<svg xmlns="http://www.w3.org/2000/svg" viewBox="0 0 48 48"><path d="m 47.61 32.2 c 4.77 -68.6 -87.3 -8.1 -26.68 14.61 c 9.34 3 23.27 -1.32 26.68 -14.61" style="fill:#778799"/><path d="m 35.88 19.84 c -0.79 -3.8 -4.16 -6.55 -8.32 -6.55 c -3.57 0 -6.34 2.75 -7.73 5.71 c -0.96 -0.54 -2.23 -0.6 -3.57 -0.85 c -4.16 0 -7.54 3.59 -7.54 8 c 0 4.65 3.37 8.24 7.54 8.24 h 0.2 c 5.85 0 11.8 0 17.1 0 c 3.77 0 6.94 -3.59 6.94 -7.82 c 0 -3.17 -1.79 -5.7 -4.56 -6.76 m -2.38 12.47 c -5.81 0 -11.81 0 -17.1 0 h -0.2 c -2.98 0 -5.55 -2.75 -5.55 -6.13 c 0 -3.38 2.38 -5.92 5.75 -5.92 c 0.99 -0.21 2.18 0.21 3.17 1.06 c 0 0 0 0 0.2 0 c 1.05 -0.23 1.15 -0.14 1.39 -0.85 c 0.99 -2.32 3.37 -5.07 6.34 -5.07 c 2.77 0 5.95 1.69 6.54 5.5 c 0.11 0.25 0.33 0.37 0.6 0.42 h 0.2 c 1.98 0.42 3.57 2.54 3.57 4.86 c 0 3.38 -2.38 6.13 -4.96 6.13" style="fill:#fff"/></svg>