<svg xmlns="http://www.w3.org/2000/svg" viewBox="0 0 48 48"><path d="m 0.38 13.86 c -4.77 68.7 87.3 17.21 26.68 -11.98 c -9.34 -4 -23.27 -1.08 -26.68 11.98" style="fill:#ff8c00"/><g style="fill:#fff"><path d="m 12.64 18 c 0.19 0.18 0.57 0.18 0.75 0.18 c 0.19 0 0.57 0 0.75 -0.18 c 0.38 -0.37 0.38 -0.93 0 -1.3 l -2.45 -2.61 c -0.38 -0.18 -1.13 -0.18 -1.51 0 c -0.38 0.19 -0.38 0.93 0 1.3"/><path d="m 27.56 18.23 c 0.19 0 0.57 0 0.75 -0.18 l 2.45 -2.42 c 0.38 -0.37 0.38 -0.93 0 -1.3 c -0.38 -0.37 -0.94 -0.37 -1.32 0 l -2.45 2.42 c -0.38 0.37 -0.38 0.93 0 1.3 c 0 0.18 0.38 0.18 0.57 0.18"/><path d="m 19.82 14.1 c 0.57 0 0.94 -0.37 0.94 -0.93 v -2.98 c 0 -0.56 -0.38 -0.93 -0.94 -0.93 c -0.57 0 -0.95 0.37 -0.95 0.93 v 2.98 c 0 0.55 0.38 0.93 0.95 0.93"/><path d="m 33.6 24.92 c -0.94 -2.79 -3.4 -4.83 -6.42 -5.2 c -1.32 -2.42 -3.78 -3.72 -6.61 -3.72 c -4.15 0 -7.36 3.16 -7.36 7.25 c 0 0.37 0 0.56 0 0.93 c -0.19 0.18 -0.57 0.18 -0.76 0.37 c 0 0 0 -0.19 0 -0.19 c 0 -0.55 -0.38 -0.93 -0.94 -0.93 h -3 c -0.57 0 -0.94 0.37 -0.94 0.93 c 0 0.56 0.38 0.93 0.94 0.93 h 3 c -1.32 1.12 -2.08 2.79 -2.08 4.65 c 0 3.53 3.21 6.5 6.99 6.5 h 14.73 c 0 0 0.19 0 0.19 0 c 0 0 0.19 0 0.19 0 c 3.4 0 6.23 -2.6 6.23 -5.95 c 0 -2.42 -1.7 -4.65 -4.16 -5.58 m -18.5 -1.67 c 0 -2.97 2.46 -5.39 5.48 -5.39 c 1.7 0 3.21 0.74 4.15 2.05 c -2.45 0.37 -4.53 2.23 -5.66 4.09 c -0.57 -0.37 -1.51 -0.55 -2.64 -0.55 c -0.38 0 -0.95 0 -1.32 0.18 c 0 -0.18 0 -0.18 0 -0.37 m 16.43 11.34 c 0 0 -0.19 0 -0.19 0 c 0 0 -0.19 0 -0.19 0 h -14.73 c -2.84 0 -5.1 -2.05 -5.1 -4.65 c 0 -2.04 1.13 -3.53 3 -4.27 c 0 0 0.19 0 0.19 0 c 0 0 0 0 0.19 0 c 0.57 -0.19 1.13 -0.38 1.7 -0.38 c 1.13 0 1.89 0.19 2.64 0.56 c 0 0 0 0 0.19 0 c 0 0 0.19 0 0.19 0 c 0 0 0.19 0 0.19 0 c 0 0 0.19 0 0.19 0 c 0 0 0.19 0 0.19 0 c 0 0 0 0 0.19 0 c 0 0 0.19 -0.18 0.19 -0.18 c 0.94 -2.05 3 -4.09 5.66 -4.09 c 2.83 0 5.29 1.67 5.85 4.27 c 0 0.19 0.19 0.37 0.38 0.37 c 0.19 0 0.19 0.19 0.38 0.19 c 1.89 0.37 3.21 2.23 3.21 3.9 c 0 2.42 -2.08 4.28 -4.34 4.28"/></g></svg>