<svg xmlns="http://www.w3.org/2000/svg" viewBox="0 0 48 48"><path d="m 8.58 7.13 c -37.69 49.73 66 56.79 32.73 6 c -7.59 -11.57 -22.76 -19.2 -32.73 -6" style="fill:#7a68ed"/><path d="m 29.88 20.2 c -0.35 -0.65 -1.23 -1.3 -2.45 -2.12 v -2.61 c 0.52 -0.33 0.88 -0.82 0.88 -1.3 c 0 -0.82 -0.52 -1.47 -1.4 -1.63 c -0.18 0 -0.18 0 -0.35 0 c -0.18 0 -0.18 0 -0.35 0 c -0.7 0.16 -1.23 0.65 -1.4 1.3 l -3.51 2.29 c -0.17 0 -0.52 -0.16 -0.7 -0.16 c -2.8 -0.49 -3.68 0.16 -4 0.82 c 0 0.16 0 0.16 -0.18 0.32 l -2.98 13.7 c -0.35 1.96 0.88 4.08 2.8 4.73 l 1.05 0.32 c 0.53 0.16 1.05 0.33 1.75 0.33 c 1.58 0 2.98 -0.82 3.86 -2.12 l 2.8 -4.89 v 7.83 h -0.88 c -0.53 0 -0.88 0.32 -0.88 0.81 c 0 0.49 0.35 0.82 0.88 0.82 h 3.5 c 0.53 0 0.88 -0.32 0.88 -0.82 c 0 -0.49 -0.35 -0.81 -0.88 -0.81 h -0.88 v -10.93 l 2.45 -4.4 c 0.18 -0.49 0.35 -0.98 0 -1.47 m -1.58 0.65 c -0.18 0 -0.35 0.16 -0.88 0.16 v -0.98 c 0.7 0.49 0.88 0.81 0.88 0.81 m -5.26 9.46 c -1.05 0 -2.45 -0.33 -3.5 -0.82 c -1.23 -0.49 -2.63 -1.14 -3.51 -1.63 l 0.7 -3.59 c 0.88 0.65 2.28 1.47 3.86 1.96 c 1.58 0.65 3.16 0.82 4.21 0.82 m -7 -7.66 c 1.05 0.65 2.63 1.3 4.56 2.12 c 1.23 0.33 2.45 0.65 3.33 0.82 v 3.1 c 0 0 -0.18 0 -0.18 0 c -1.58 0 -3.15 -0.16 -4.21 -0.65 c -1.23 -0.32 -2.8 -1.14 -4 -2.12 c 0 0 -0.17 0 -0.17 0 m 7.89 -7.83 c 0.18 0.32 0.35 0.49 0.7 0.65 v 1.96 c -0.52 -0.16 -0.88 -0.49 -1.4 -0.65 h -0.18 c -0.52 -0.16 -0.88 -0.16 -1.23 -0.33 c -0.18 0 -0.18 0 -0.35 -0.16 m -2.28 1.3 c 0.7 0.16 1.23 0.33 2.11 0.49 c 0.35 0.16 0.88 0.16 1.4 0.32 c 0.7 0.33 1.4 0.49 1.93 0.82 v 1.47 c -0.7 -0.16 -1.58 -0.33 -2.63 -0.82 c -3.68 -1.14 -4.55 -2.12 -4.73 -2.45 c 0.35 0 0.88 0 1.93 0.16 m -2.1 16.64 l -1.05 -0.33 c -1.23 -0.32 -1.93 -1.63 -1.75 -2.77 l 0.35 -1.47 c 1.05 0.49 2.28 1.14 3.33 1.47 c 0.35 0.16 1.75 0.49 3.33 0.81 l -0.7 1.3 c -0.88 1.14 -2.28 1.47 -3.5 0.98" style="fill:#fff"/></svg>