<svg xmlns="http://www.w3.org/2000/svg" viewBox="0 0 48 48"><path d="m 39.63 40.4 c 37.69 -51.4 -66 -53.86 -32.74 -4.58 c 7.59 11.24 22.77 18.2 32.74 4.58" style="fill:#d60329"/><path d="m 32.99 36.83 h -0.81 v -18.77 c 0.98 -0.31 1.63 -1.24 1.63 -2.17 c 0 -1.24 -1.14 -2.33 -2.44 -2.33 c -1.3 0 -2.44 1.09 -2.44 2.33 c 0 1.09 0.65 1.86 1.63 2.17 v 4.34 l -3.25 -1.86 c 0 -0.31 0 -0.62 -0.16 -0.93 c -0.16 -0.62 -0.65 -2.64 -1.95 -2.95 c 0 0 -0.16 0 -0.16 0 c 0 0 0 0 -0.16 0 l -13.66 1.86 c -1.95 0.46 -3.41 2 -3.41 3.88 v 0.93 c 0 1.86 1.46 3.41 3.41 3.88 l 13.5 1.86 c 0 0 0 0 0.16 0 c 0.16 0 0.16 0 0.32 0 c 1.3 -0.31 1.79 -1.86 1.95 -3.72 l 3.41 -2 v 13.5 h -0.81 c -0.49 0 -0.81 0.31 -0.81 0.77 c 0 0.46 0.32 0.78 0.81 0.78 h 3.25 c 0.49 0 0.82 -0.31 0.82 -0.78 c 0 -0.46 -0.33 -0.77 -0.82 -0.77 m -18.38 -10.7 c -0.16 -0.93 -0.32 -2.33 -0.32 -3.26 c 0 -0.93 0.16 -2.33 0.32 -3.26 l 3.58 -0.46 c -0.32 1.09 -0.65 2.48 -0.65 3.72 c 0 1.24 0.32 2.64 0.65 3.72 m 1.79 0 c -0.48 -0.93 -0.81 -2.48 -0.81 -3.72 c 0 -1.24 0.33 -2.79 0.81 -3.72 c 0 -0.16 0 -0.16 0 -0.31 l 2.93 -0.46 c -0.32 1.4 -0.49 3.1 -0.49 4.5 c 0 1.39 0.16 3.1 0.49 4.34 l -2.93 -0.31 c 0 -0.15 0 -0.15 0 -0.31 m -10.57 -3.26 v -0.93 c 0 -1.09 0.81 -2.17 2.11 -2.33 l 1.46 -0.16 c -0.32 0.93 -0.32 2.17 -0.32 2.95 c 0 0.77 0 2 0.32 2.95 l -1.46 -0.15 c -1.3 -0.16 -2.11 -1.24 -2.11 -2.33 m 15.45 4.19 c -0.16 -0.16 -0.82 -0.77 -0.82 -4.65 c 0 -3.88 0.65 -4.5 0.82 -4.66 c 0 0 0.32 0.31 0.65 1.71 c 0.16 0.62 0.16 1.71 0.16 2.95 c 0 4 -0.65 4.65 -0.81 4.65 m 2.44 -3.26 c 0 -0.46 0 -0.93 0 -1.39 c 0 -0.46 0 -0.93 0 -1.4 l 2.44 1.4" style="fill:#fff"/></svg>