<svg xmlns="http://www.w3.org/2000/svg" viewBox="0 0 48 48"><path d="m 36.78 42.99 c -17.85 15.84 -45.3 -9.14 -34.2 -30.1 c 11.23 -21.1 48.4 -15.51 45.2 10.46 c -0.94 7.73 -5.19 14.43 -11 19.59" style="fill:#70706e"/><g style="fill:#fff"><path d="m 23.43 20.2 c 0 0 -2.73 3.81 -2.73 5.47 c 0 3.81 5.46 3.81 5.46 0 c 0 -1.66 -2.73 -5.47 -2.73 -5.47"/><path d="m 10.88 31.1 c 0 2.98 4.55 2.98 4.55 0 c 0 -1.16 -2.18 -4.31 -2.18 -4.31 c 0 0 -2.36 2.98 -2.36 4.31"/><path d="m 18.2 34.44 c 0 2.98 4.55 2.98 4.55 0 c 0 -1.16 -2.18 -4.31 -2.18 -4.31 c 0 0 -2.37 2.98 -2.37 4.31"/><path d="m 25.43 34.44 c 0 2.98 4.55 2.98 4.55 0 c 0 -1.16 -2.18 -4.31 -2.18 -4.31 c 0 0 -2.36 2.98 -2.36 4.31"/><path d="m 32.3 31.1 c 0 2.98 4.55 2.98 4.55 0 c 0.18 -1.16 -2.18 -4.31 -2.18 -4.31 c 0 0 -2.36 2.98 -2.36 4.31"/><path d="m 38.3 21 c 0 -2.32 -1.64 -4.31 -4.18 -5.3 c -0.73 -3.15 -3.82 -5.47 -7.64 -5.47 c -3.09 0 -5.64 1.49 -7.09 3.81 c -0.91 -0.5 -2 -0.66 -3.09 -0.66 c -3.82 0 -7.09 2.98 -7.09 6.46 c 0 3.48 3.27 6.46 7.09 6.46 c 0.54 0 0.91 -0.33 0.91 -0.83 c 0 -0.5 -0.36 -0.83 -0.91 -0.83 c -2.91 0 -5.28 -2.16 -5.28 -4.81 c 0 -2.65 2.37 -4.8 5.28 -4.8 c 1.09 0 2.18 0.33 2.91 0.83 c 0.26 0 0.47 0 0.73 0 c 0.48 0 0.73 -0.38 0.73 -0.66 c 0.91 -1.99 3.09 -3.31 5.82 -3.31 c 3.09 0 5.46 1.82 6 4.64 c -0.04 0.35 0.36 0.5 0.54 0.66 c 2.18 0.5 3.46 1.99 3.46 3.81 c 0 2.32 -2 4.31 -4.55 4.31 c -0.55 0 -0.91 0.33 -0.91 0.83 c 0 0.5 0.36 0.83 0.91 0.83 c 3.46 0 6.37 -2.65 6.37 -5.97"/></g></svg>