<svg xmlns="http://www.w3.org/2000/svg" viewBox="0 0 48 48"><path d="m 42.99 36.79 c 15.84 -17.85 -9.14 -45.3 -30.1 -34.2 c -21.1 11.23 -15.5 48.4 10.46 45.2 c 7.73 -0.94 14.43 -5.2 19.59 -11" style="fill:#2d4564"/><g style="fill:#fff"><path d="m 30.58 35.2 c 0 2.46 3.59 2.46 3.59 0 c 0 -1.05 -1.79 -3.52 -1.79 -3.52 c 0 0 -1.79 2.46 -1.79 3.52"/><path d="m 12.63 34.88 c 0 2.46 3.59 2.46 3.59 0 c 0 -1.05 -1.79 -3.52 -1.79 -3.52 c 0 0 -1.8 2.46 -1.8 3.52"/><path d="m 33.63 17.66 c -0.9 -3.34 -3.95 -5.63 -7.54 -5.63 c -3.05 0 -5.56 1.58 -7 4 c -0.9 -0.53 -1.97 -0.7 -3.05 -0.7 c -3.77 0 -7 3.16 -7 6.85 c 0 3.69 3.23 6.86 7 6.86 c 0.54 0 0.9 -0.35 0.9 -0.88 c 0 -0.53 -0.36 -0.88 -0.9 -0.88 c -2.87 0 -5.2 -2.29 -5.2 -5.1 c 0 -2.81 2.33 -5.09 5.2 -5.09 c 1.08 0 2.15 0.35 2.87 0.88 c 0.22 0 0.61 0 0.9 0 c 0.45 -0.08 0.54 -0.46 0.54 -0.7 c 0.89 -2.11 3.05 -3.52 5.74 -3.52 c 2.87 0 5 1.76 5.74 4.22 c 0 0.18 0 0.53 0.18 0.7 c 0.32 0.45 0.6 0.7 1.08 0.7 h 0.18 c 1.61 0.7 2.69 2.28 2.69 4 c 0 2.46 -1.97 4.57 -4.49 4.57 c -0.54 0 -0.89 0.35 -0.89 0.88 c 0 0.53 0.36 0.88 0.89 0.88 c 3.41 0 6.28 -2.81 6.28 -6.32 c 0 -2.64 -1.61 -4.92 -4.13 -5.8"/><path d="m 24.84 27.85 h -4.13 l -1.79 9.66 l 5 -6.15 h 3.95 l 1.79 -8.79 h -4.48"/></g></svg>