<svg xmlns="http://www.w3.org/2000/svg" viewBox="0 0 48 48"><path d="m 10.1 5.09 c 16.77 -15.84 45.5 9.14 35.65 30.1 c -9.91 21.1 -47.1 15.51 -45.4 -10.46 c 0.48 -7.72 4.31 -14.43 9.78 -19.59" style="fill:#213352"/><g style="fill:#fff"><path d="m 33 33.47 c 0 2.5 3.7 2.5 3.7 0 c 0 -1.07 -1.85 -3.57 -1.85 -3.57 c 0 0 -1.85 2.5 -1.85 3.57"/><path d="m 10.86 33.1 c 0 2.5 3.7 2.5 3.7 0 c 0 -1.07 -1.85 -3.57 -1.85 -3.57 c 0 0 -1.85 2.5 -1.85 3.57"/><path d="m 27.48 36.68 c 0 2.5 3.69 2.5 3.69 0 c 0 -1.07 -1.85 -3.57 -1.85 -3.57 c 0 0 -1.84 2.5 -1.84 3.57"/><path d="m 16.4 36.68 c 0 2.5 3.69 2.5 3.69 0 c 0 -1.07 -1.85 -3.57 -1.85 -3.57 c 0 0 -1.84 2.5 -1.84 3.57"/><path d="m 38.56 23.3 c 0 -2.5 -1.66 -4.64 -4.25 -5.71 c -0.74 -3.39 -3.88 -5.89 -7.76 -5.89 c -3.14 0 -5.73 1.61 -7.2 4.1 c -0.92 -0.54 -2.03 -0.71 -3.14 -0.71 c -3.88 0 -7.2 3.21 -7.2 6.96 c 0 3.75 3.32 6.96 7.2 6.96 c 0.55 0 0.93 -0.36 0.93 -0.89 c 0 -0.54 -0.37 -0.89 -0.93 -0.89 c -2.95 0 -5.36 -2.32 -5.36 -5.17 c 0 -2.86 2.4 -5.18 5.36 -5.18 c 1.11 0 2.22 0.36 2.96 0.89 c 0.22 0 0.63 0 0.92 0 c 0.49 -0.04 0.55 -0.5 0.55 -0.54 c 0 0 0 0 0 -0.18 c 0.93 -2.14 3.14 -3.57 5.91 -3.57 c 3.14 0 5.54 1.96 6.09 5 v 0.18 c 0.11 0.25 0.37 0.36 0.55 0.54 c 2.22 0.54 3.51 2.14 3.51 4.1 c 0 2.5 -2.04 4.46 -4.62 4.46 c -0.55 0 -0.93 0.36 -0.93 0.89 c 0 0.54 0.37 0.89 0.93 0.89 c 3.51 0 6.46 -2.86 6.46 -6.25"/><path d="m 30.3 22.41 h -4.62 l -0.37 5.35 h -4.25 l 1.84 9.81 l 1.48 -6.24 h 4.06"/></g></svg>