<svg xmlns="http://www.w3.org/2000/svg" viewBox="0 0 48 48"><path d="m 39.8 8.45 c 24.36 19.55 -11.3 54.81 -32.85 32.3 c -21.6 -19.4 12.1 -57 32.85 -32.3" style="fill:#70929f"/><g style="fill:#fff"><path d="m 16.65 31.69 c 0 0.99 -0.77 1.79 -1.72 1.79 c -0.95 0 -1.73 -0.8 -1.73 -1.79 c 0 -0.99 0.77 -1.79 1.73 -1.79 c 0.95 0 1.72 0.8 1.72 1.79"/><path d="m 33.9 31.69 c 0 0.99 -0.77 1.79 -1.73 1.79 c -0.95 0 -1.72 -0.8 -1.72 -1.79 c 0 -0.99 0.77 -1.79 1.72 -1.79 c 0.95 0 1.73 0.8 1.73 1.79"/><path d="m 30.45 37.1 c 0 0.99 -0.77 1.79 -1.73 1.79 c -0.95 0 -1.73 -0.8 -1.73 -1.79 c 0 -0.99 0.77 -1.79 1.73 -1.79 c 0.95 0 1.73 0.8 1.73 1.79"/><path d="m 20.1 37.1 c 0 0.99 -0.77 1.79 -1.72 1.79 c -0.95 0 -1.73 -0.8 -1.73 -1.79 c 0 -0.99 0.77 -1.79 1.73 -1.79 c 0.95 0 1.72 0.8 1.72 1.79"/><path d="m 25.3 33.48 c 0 0.99 -0.77 1.79 -1.73 1.79 c -0.95 0 -1.72 -0.8 -1.72 -1.79 c 0 -0.99 0.77 -1.79 1.72 -1.79 c 0.95 0 1.73 0.8 1.73 1.79"/><path d="m 31.3 15.57 c -1.72 -2.33 -4.14 -3.58 -6.9 -3.58 c -2.76 0 -5.35 1.43 -7.1 3.76 c -0.52 0 -1.04 -0.18 -1.55 -0.18 c -3.45 0 -6 2.69 -6 6.27 c 0 3.58 2.59 6.27 6 6.27 c 0.86 0 1.89 -0.18 2.76 -0.72 c 1.55 1.61 3.62 2.51 5.86 2.51 c 1.9 0 3.8 -0.71 5.35 -2.15 c 0.52 0.18 1.04 0.36 1.55 0.36 c 3.45 0 6 -2.69 6 -6.27 c 0 -3.58 -2.59 -6.27 -6 -6.27 m 0 10.75 c -0.34 0 -0.86 -0.18 -1.38 -0.36 c 0 0 0 0 -0.17 0 c 0 0 -0.17 0 -0.17 0 c 0 0 -0.17 0 -0.17 0 c 0 0 -0.18 0 -0.18 0 c 0 0 -0.17 0 -0.17 0.18 c -1.38 1.25 -3.1 1.97 -4.66 1.97 c -1.9 0 -3.79 -0.9 -5 -2.33 c 0 0 -0.17 0 -0.17 -0.18 c 0 0 -0.18 0 -0.18 0 c 0 0 -0.17 0 -0.17 0 c 0 0 -0.17 0 -0.17 0 c 0 0 -0.17 0 -0.17 0 c 0 0 -0.17 0 -0.17 0 c 0 0 0 0 -0.17 0 c -0.69 0.36 -1.55 0.71 -2.41 0.71 c -2.42 0 -4.31 -1.97 -4.31 -4.48 c 0 -2.51 1.89 -4.48 4.31 -4.48 c 0.52 0 1.03 0.18 1.55 0.36 c 0 0 0.17 0 0.17 0 c 0.17 0 0.34 0 0.34 -0.18 c 0.35 0 0.52 -0.18 0.52 -0.18 c 1.38 -2.15 3.45 -3.58 6 -3.58 c 2.24 0 4.31 1.07 5.69 3.22 c 0 0 0 0.18 0.17 0.18 c 0 0 0 0 0.18 0 c 0 0 0.17 0 0.17 0 c 0 0 0.17 0 0.17 0 c 0 0 0 0 0.17 0 h 0.52 c 2.24 0.18 4.14 2.15 4.14 4.66 c 0 2.51 -1.9 4.48 -4.31 4.48"/></g></svg>