<svg xmlns="http://www.w3.org/2000/svg" viewBox="0 0 48 48"><path d="m 26 47.66 c -28.52 2.73 -36.2 -43.3 -6.91 -46.82 c 26.93 -4.43 40.78 37.3 14 45.58 c -2.27 0.91 -4.74 0.89 -7.13 1.23" style="fill:#00ced0"/><g style="fill:#fff"><path d="m 32 15.72 c -1.79 -2.49 -4.3 -3.84 -7.16 -3.84 c -2.86 0 -5.55 1.54 -7.34 4 c -0.54 0 -1.07 -0.19 -1.61 -0.19 c -3.58 0 -6.27 2.88 -6.27 6.71 c 0 3.84 2.68 6.71 6.27 6.71 c 0.89 0 1.97 -0.19 2.87 -0.77 c 1.61 1.73 3.76 2.69 6.09 2.69 c 1.97 0 3.94 -0.77 5.55 -2.3 c 0.54 0.19 1.07 0.38 1.61 0.38 c 3.58 0 6.27 -2.88 6.27 -6.71 c 0 -3.84 -2.69 -6.71 -6.27 -6.71 m 0 11.51 c -0.36 0 -0.9 -0.19 -1.43 -0.38 c -0.29 0 -0.45 0 -0.71 0 c 0 0 -0.18 0 -0.18 0.19 c -1.43 1.34 -3.22 2.11 -4.84 2.11 c -1.97 0 -3.94 -0.96 -5.19 -2.49 c 0 0 -0.18 0 -0.18 -0.19 c -0.36 0 -0.7 0 -1.07 0 c -0.72 0.38 -1.61 0.77 -2.51 0.77 c -2.51 0 -4.48 -2.11 -4.48 -4.8 c 0 -2.68 1.97 -4.8 4.48 -4.8 c 0.54 0 1.07 0.2 1.61 0.39 c 0.38 -0.08 0.78 -0.18 1.07 -0.39 c 1.81 -2.41 4.07 -3.79 6.27 -3.84 c 2.15 0 4.12 0.96 5.37 2.69 v 0.19 c 0 0.57 0.36 0.96 0.89 0.96 h 0.9 c 2.5 0 4.48 2.11 4.48 4.8 c 0 2.69 -1.97 4.8 -4.48 4.8"/><path d="m 22.2 37.98 c 0 3.45 4.48 3.45 4.48 0 c -0.18 -1.34 -2.32 -4.99 -2.32 -4.99 c 0 0 -2.15 3.45 -2.15 4.99"/><path d="m 30.67 35.2 c 0 3.45 4.48 3.45 4.48 0 c -0.18 -1.34 -2.33 -4.99 -2.33 -4.99 c 0 0 -2.15 3.45 -2.15 4.99"/><path d="m 12.96 35.3 c 0 3.45 4.48 3.45 4.48 0 c -0.18 -1.34 -2.33 -4.99 -2.33 -4.99 c 0 0 -2.15 3.45 -2.15 4.99"/></g></svg>