<svg xmlns="http://www.w3.org/2000/svg" viewBox="0 0 48 48"><path d="m 36.2 44.4 c 41.92 -36 -44.3 -70.7 -35.42 -14.96 c 1.94 12.23 24.1 24.67 35.42 14.96" style="fill:#695acd"/><g style="fill:#fff"><path d="m 31.73 16.36 c -1.89 -2.68 -4.55 -4.13 -7.58 -4.13 c -3 0 -5.88 1.65 -7.77 4.34 c -0.57 0 -1.14 -0.21 -1.71 -0.21 c -3.79 0 -6.63 3.1 -6.63 7.23 c 0 4.13 2.84 7.23 6.63 7.23 c 0.95 0 2.09 -0.2 3.04 -0.82 c 1.7 1.86 3.98 2.89 6.44 2.89 c 2.09 0 4.17 -0.83 5.88 -2.48 c 0.57 0.21 1.14 0.41 1.71 0.41 c 3.79 0 6.63 -3.1 6.63 -7.23 c 0 -4.13 -2.84 -7.23 -6.63 -7.23 m 0 12.4 c -0.38 0 -0.95 -0.2 -1.52 -0.41 c -0.32 0.01 -0.94 -0.1 -0.95 0.21 c -1.52 1.45 -3.41 2.27 -5.12 2.27 c -2.08 0 -4.17 -1.03 -5.5 -2.68 c -0.3 -0.29 -0.82 -0.21 -1.33 -0.21 c -0.76 0.41 -1.7 0.82 -2.65 0.82 c -2.65 0 -4.74 -2.27 -4.74 -5.16 c 0 -2.89 2.09 -5.17 4.74 -5.17 c 0.57 0 1.14 0.21 1.71 0.41 h 0.19 c 0.38 -0.14 0.71 -0.25 0.95 -0.41 c 1.52 -2.48 3.79 -4.13 6.63 -4.13 c 2.28 0 4.36 1.04 5.69 2.89 v 0.21 c 0 0.62 0.38 1.03 0.95 1.03 h 0.95 c 2.66 0 4.74 2.27 4.74 5.17 c 0 2.89 -2.08 5.16 -4.74 5.16"/><path d="m 17.51 33.92 c 0 0.57 -0.43 1.04 -0.95 1.04 c -0.52 0 -0.95 -0.46 -0.95 -1.04 c 0 -0.57 0.42 -1.03 0.95 -1.03 c 0.52 0 0.95 0.46 0.95 1.03"/><path d="m 21.3 35.99 c 0 0.57 -0.42 1.04 -0.95 1.04 c -0.52 0 -0.95 -0.46 -0.95 -1.04 c 0 -0.57 0.43 -1.03 0.95 -1.03 c 0.52 0 0.95 0.46 0.95 1.03"/><path d="m 25.1 38.1 c 0 0.57 -0.43 1.04 -0.95 1.04 c -0.52 0 -0.95 -0.46 -0.95 -1.04 c 0 -0.57 0.42 -1.03 0.95 -1.03 c 0.52 0 0.95 0.46 0.95 1.03"/><path d="m 28.88 35.99 c 0 0.57 -0.42 1.04 -0.95 1.04 c -0.52 0 -0.95 -0.46 -0.95 -1.04 c 0 -0.57 0.43 -1.03 0.95 -1.03 c 0.52 0 0.95 0.46 0.95 1.03"/><path d="m 32.68 33.92 c 0 0.57 -0.43 1.04 -0.95 1.04 c -0.52 0 -0.95 -0.46 -0.95 -1.04 c 0 -0.57 0.42 -1.03 0.95 -1.03 c 0.52 0 0.95 0.46 0.95 1.03"/></g></svg>