<svg xmlns="http://www.w3.org/2000/svg" viewBox="0 0 48 48"><path d="m 8.84 8.36 c 20.26 -24.2 54.5 11.23 31.3 32.64 c -20 21.46 -56.68 -12 -31.3 -32.64" style="fill:#0c363f"/><path d="m 31.59 27.8 c -0.53 0 -0.88 -0.37 -0.88 -0.91 c 0 -0.55 0.35 -0.91 0.88 -0.91 c 2.82 0 5.12 -2.36 5.12 -5.28 c 0 -2.91 -2.3 -5.27 -5.12 -5.27 c -1.06 0 -2.12 0.36 -2.82 0.91 c -0.27 0 -0.75 0 -1.06 0 c -0.13 -0.11 -0.35 -0.23 -0.35 -0.36 c 0 -0.13 0 -0.26 0 -0.37 c -0.88 -2.18 -3 -3.64 -5.65 -3.64 c -2.82 0 -4.94 1.82 -5.65 4.37 c 0 0.18 0 0.54 -0.18 0.73 c -0.18 0.36 -0.53 0.73 -0.88 0.73 c -0.12 0 -0.23 0 -0.35 0 c -1.59 0.73 -2.65 2.37 -2.65 4.18 c 0 2.55 1.94 4.73 4.41 4.73 c 0.53 0 0.88 0.36 0.88 0.91 c 0 0.55 -0.36 0.91 -0.88 0.91 c -3.36 0 -6.18 -2.91 -6.18 -6.55 c 0 -2.73 1.59 -5.09 4.06 -6 c 0.88 -3.46 3.88 -5.82 7.41 -5.82 c 3 0 5.47 1.64 6.88 4.18 c 0.88 -0.54 1.94 -0.73 3 -0.73 c 3.71 0 6.89 3.27 6.89 7.09 c 0 3.82 -3.18 7.1 -6.89 7.1" style="fill:#fff"/><g style="fill:#f4f4f4"><path d="m 28.72 27.34 c -0.16 -0.52 -0.02 -0.52 -2.54 -0.09 c -0.89 0.15 -1.64 0.26 -1.66 0.24 c -0.02 -0.02 0.02 -0.1 0.07 -0.17 c 1.93 -2.43 2.29 -3.04 2.06 -3.52 c -0.11 -0.23 -0.2 -0.29 -0.46 -0.29 c -0.57 0 -0.75 0.27 -1.45 2.16 c -0.71 1.95 -0.66 1.83 -0.72 1.7 c -0.04 -0.07 -0.23 -0.62 -0.44 -1.24 c -0.86 -2.55 -1.12 -2.91 -1.77 -2.46 c -0.54 0.37 -0.46 0.83 0.29 1.69 c 0.69 0.8 1.64 2 1.64 2.1 c 0 0.09 0.09 0.11 -1.63 -0.2 c -1.62 -0.29 -2.1 -0.32 -2.27 -0.17 c -0.33 0.29 -0.45 0.85 -0.23 1.09 c 0.33 0.36 0.73 0.43 1.42 0.25 c 0.69 -0.18 2.72 -0.54 2.77 -0.49 c 0.05 0.05 -0.31 0.52 -1.37 1.79 c -0.49 0.58 -0.82 1.05 -0.89 1.25 c -0.11 0.3 -0.1 0.34 0.03 0.62 c 0.13 0.29 0.15 0.29 0.55 0.32 c 0.35 0.02 0.44 0 0.54 -0.14 c 0.07 -0.09 0.41 -0.91 0.74 -1.84 c 0.34 -0.92 0.64 -1.69 0.67 -1.7 c 0.03 -0.01 0.29 0.63 0.57 1.43 c 0.81 2.27 0.8 2.26 1.33 2.26 c 0.38 0 0.48 -0.06 0.63 -0.4 c 0.2 -0.32 0.08 -0.43 -0.07 -0.75 c -0.12 -0.25 -0.64 -0.98 -1.16 -1.63 c -0.52 -0.65 -0.93 -1.2 -0.91 -1.21 c 0.04 -0.05 1.2 0.16 2.31 0.41 c 1 0.23 1.39 0.24 1.71 0.06 c 0.36 -0.33 0.34 -0.77 0.24 -1.07"/><path d="m 10.63 34.63 c 0.15 0.45 0.02 0.44 2.28 0.08 c 0.8 -0.13 1.48 -0.22 1.5 -0.2 c 0.02 0.02 -0.01 0.08 -0.07 0.15 c -1.73 2.07 -2.06 2.59 -1.86 3 c 0.1 0.2 0.18 0.25 0.42 0.25 c 0.52 0 0.68 -0.23 1.3 -1.84 c 0.64 -1.66 0.59 -1.56 0.65 -1.45 c 0.03 0.05 0.21 0.53 0.39 1.05 c 0.77 2.17 1 2.48 1.59 2.1 c 0.48 -0.31 0.41 -0.71 -0.26 -1.44 c -0.62 -0.68 -1.48 -1.71 -1.48 -1.79 c 0 -0.08 -0.08 -0.09 1.47 0.17 c 1.46 0.25 1.89 0.28 2.04 0.15 c 0.3 -0.25 0.41 -0.73 0.21 -0.93 c -0.29 -0.31 -0.66 -0.37 -1.28 -0.21 c -0.62 0.15 -2.45 0.46 -2.49 0.42 c -0.04 -0.05 0.28 -0.44 1.23 -1.52 c 0.44 -0.5 0.73 -0.89 0.79 -1.07 c 0.1 -0.26 0.1 -0.29 -0.02 -0.53 c -0.12 -0.24 -0.14 -0.25 -0.5 -0.27 c -0.31 -0.02 -0.39 0 -0.49 0.12 c -0.06 0.07 -0.36 0.78 -0.66 1.57 c -0.3 0.79 -0.57 1.44 -0.6 1.45 c -0.03 0.01 -0.26 -0.54 -0.52 -1.22 c -0.73 -1.93 -0.72 -1.93 -1.2 -1.93 c -0.34 0 -0.43 0.05 -0.57 0.34 c -0.18 0.27 -0.07 0.37 0.07 0.64 c 0.11 0.21 0.57 0.83 1.04 1.39 c 0.46 0.55 0.84 1.02 0.82 1.04 c -0.04 0.04 -1.08 -0.14 -2.08 -0.35 c -0.91 -0.2 -1.25 -0.2 -1.54 -0.05 c -0.32 0.28 -0.3 0.65 -0.22 0.92"/><path d="m 29.1 34.4 c 0.15 0.45 0.02 0.45 2.26 0.08 c 0.8 -0.13 1.46 -0.22 1.48 -0.21 c 0.02 0.02 -0.02 0.09 -0.07 0.15 c -1.72 2.11 -2.04 2.65 -1.84 3.06 c 0.1 0.21 0.17 0.25 0.41 0.25 c 0.51 0 0.67 -0.23 1.29 -1.88 c 0.63 -1.7 0.59 -1.59 0.65 -1.48 c 0.03 0.05 0.2 0.54 0.39 1.08 c 0.77 2.21 1 2.53 1.57 2.15 c 0.48 -0.32 0.41 -0.72 -0.25 -1.47 c -0.62 -0.7 -1.46 -1.75 -1.46 -1.83 c 0 -0.08 -0.09 -0.09 1.45 0.18 c 1.45 0.25 1.87 0.28 2.02 0.15 c 0.3 -0.25 0.4 -0.74 0.21 -0.95 c -0.29 -0.32 -0.64 -0.38 -1.27 -0.22 c -0.61 0.16 -2.42 0.47 -2.46 0.43 c -0.04 -0.05 0.27 -0.45 1.21 -1.55 c 0.43 -0.51 0.73 -0.91 0.79 -1.09 c 0.09 -0.27 0.09 -0.3 -0.02 -0.54 c -0.12 -0.25 -0.13 -0.26 -0.49 -0.28 c -0.31 -0.02 -0.39 0 -0.48 0.12 c -0.07 0.08 -0.36 0.8 -0.66 1.6 c -0.3 0.8 -0.57 1.47 -0.59 1.48 c -0.03 0.01 -0.26 -0.55 -0.51 -1.25 c -0.72 -1.98 -0.72 -1.96 -1.18 -1.96 c -0.34 0 -0.43 0.05 -0.57 0.34 c -0.18 0.27 -0.07 0.38 0.07 0.65 c 0.1 0.21 0.57 0.85 1.03 1.42 c 0.46 0.57 0.83 1.04 0.81 1.06 c -0.04 0.04 -1.07 -0.14 -2.06 -0.36 c -0.9 -0.2 -1.24 -0.21 -1.52 -0.05 c -0.32 0.29 -0.3 0.66 -0.22 0.93"/></g></svg>