<svg xmlns="http://www.w3.org/2000/svg" viewBox="0 0 48 48"><path d="m 39.8 8.45 c 24.36 19.55 -11.3 54.81 -32.85 32.3 c -21.6 -19.4 12.1 -57 32.85 -32.3" style="fill:#084670"/><g style="fill:#fff"><path d="m 22.82 36.2 c 0 0.5 -0.39 0.91 -0.88 0.91 c -0.49 0 -0.88 -0.41 -0.88 -0.91 c 0 -0.5 0.39 -0.91 0.88 -0.91 c 0.49 0 0.88 0.41 0.88 0.91"/><path d="m 27.5 36.3 c 0 0.5 -0.39 0.91 -0.88 0.91 c -0.48 0 -0.88 -0.41 -0.88 -0.91 c 0 -0.5 0.39 -0.91 0.88 -0.91 c 0.49 0 0.88 0.41 0.88 0.91"/><path d="m 24.28 39.66 c 0 0.5 -0.39 0.91 -0.88 0.91 c -0.49 0 -0.88 -0.41 -0.88 -0.91 c 0 -0.5 0.39 -0.91 0.88 -0.91 c 0.49 0 0.88 0.41 0.88 0.91"/><path d="m 16.81 28.49 c 0.53 0 0.88 -0.36 0.88 -0.91 c 0 -0.55 -0.35 -0.91 -0.88 -0.91 c -2.82 0 -5.12 -2.37 -5.12 -5.28 c 0 -2.91 2.29 -5.27 5.12 -5.27 c 1.06 0 2.12 0.36 2.82 0.91 c 0.26 0 0.74 0 1.06 0 c 0.14 -0.11 0.35 -0.23 0.35 -0.36 c 0 -0.13 0 -0.26 0 -0.36 c 0.88 -2.18 3 -3.64 5.65 -3.64 c 2.82 0 4.94 1.82 5.65 4.36 c 0 0.18 0 0.55 0.18 0.73 c 0.18 0.36 0.53 0.73 0.88 0.73 c 0.12 0 0.23 0 0.36 0 c 1.59 0.73 2.64 2.36 2.64 4.18 c 0 2.55 -1.94 4.73 -4.41 4.73 c -0.53 0 -0.88 0.36 -0.88 0.91 c 0 0.55 0.35 0.91 0.88 0.91 c 3.35 0 6.18 -2.91 6.18 -6.55 c 0 -2.73 -1.59 -5.09 -4.06 -6 c -0.88 -3.45 -3.88 -5.82 -7.41 -5.82 c -3 0 -5.47 1.64 -6.88 4.18 c -0.88 -0.55 -1.94 -0.73 -3 -0.73 c -3.71 0 -6.88 3.27 -6.88 7.09 c 0 3.82 3.18 7.09 6.88 7.09"/></g><g style="fill:#f4f4f4"><path d="m 23.56 33.44 c -0.64 -0.23 -0.64 -0.03 -0.11 -3.49 c 0.19 -1.23 0.32 -2.26 0.3 -2.29 c -0.03 -0.03 -0.13 0.02 -0.21 0.1 c -3 2.66 -3.77 3.15 -4.36 2.84 c -0.29 -0.15 -0.35 -0.27 -0.36 -0.64 c 0 -0.79 0.33 -1.04 2.68 -1.99 c 2.42 -0.98 2.27 -0.91 2.11 -1 c -0.08 -0.05 -0.77 -0.32 -1.53 -0.61 c -3.16 -1.19 -3.61 -1.54 -3.06 -2.43 c 0.46 -0.74 1.03 -0.63 2.1 0.39 c 0.99 0.95 2.49 2.26 2.6 2.26 c 0.12 0 0.13 0.13 -0.25 -2.24 c -0.36 -2.23 -0.4 -2.89 -0.21 -3.13 c 0.36 -0.46 1.05 -0.62 1.36 -0.32 c 0.45 0.45 0.54 1 0.31 1.96 c -0.22 0.95 -0.67 3.74 -0.61 3.8 c 0.07 0.07 0.64 -0.42 2.21 -1.88 c 0.72 -0.67 1.3 -1.12 1.55 -1.22 c 0.38 -0.14 0.43 -0.14 0.77 0.04 c 0.36 0.18 0.37 0.21 0.39 0.76 c 0.02 0.48 -0.01 0.6 -0.17 0.75 c -0.11 0.1 -1.13 0.55 -2.27 1.02 c -1.14 0.46 -2.09 0.88 -2.11 0.92 c -0.02 0.05 0.78 0.4 1.77 0.79 c 2.81 1.11 2.8 1.11 2.8 1.83 c 0 0.53 -0.07 0.65 -0.5 0.87 c -0.39 0.27 -0.54 0.11 -0.93 -0.1 c -0.3 -0.16 -1.21 -0.88 -2 -1.59 c -0.8 -0.71 -1.48 -1.28 -1.51 -1.25 c -0.05 0.06 0.2 1.65 0.51 3.18 c 0.29 1.39 0.3 1.91 0.07 2.34 c -0.41 0.5 -0.95 0.47 -1.33 0.34"/><path d="m 37.85 35 c -0.16 0.48 -0.02 0.47 -2.45 0.09 c -0.87 -0.14 -1.59 -0.24 -1.61 -0.22 c -0.02 0.02 0.02 0.09 0.07 0.16 c 1.87 2.2 2.21 2.76 2 3.19 c -0.11 0.21 -0.19 0.26 -0.45 0.26 c -0.55 0 -0.73 -0.24 -1.39 -1.96 c -0.69 -1.77 -0.64 -1.66 -0.7 -1.54 c -0.03 0.06 -0.22 0.56 -0.42 1.13 c -0.84 2.31 -1.09 2.64 -1.71 2.24 c -0.52 -0.34 -0.45 -0.75 0.27 -1.54 c 0.67 -0.73 1.59 -1.83 1.59 -1.9 c 0 -0.09 0.09 -0.1 -1.58 0.18 c -1.57 0.26 -2.03 0.29 -2.19 0.16 c -0.32 -0.26 -0.44 -0.77 -0.23 -0.99 c 0.31 -0.33 0.7 -0.39 1.37 -0.23 c 0.66 0.16 2.63 0.49 2.67 0.45 c 0.05 -0.05 -0.3 -0.47 -1.32 -1.62 c -0.47 -0.53 -0.79 -0.95 -0.86 -1.14 c -0.1 -0.28 -0.1 -0.31 0.02 -0.56 c 0.13 -0.26 0.14 -0.27 0.54 -0.29 c 0.33 -0.02 0.42 0 0.52 0.13 c 0.07 0.08 0.39 0.83 0.71 1.67 c 0.32 0.84 0.61 1.53 0.64 1.54 c 0.03 0.01 0.28 -0.57 0.55 -1.3 c 0.79 -2.06 0.78 -2.05 1.29 -2.05 c 0.37 0 0.46 0.05 0.61 0.36 c 0.2 0.29 0.07 0.39 -0.07 0.68 c -0.11 0.22 -0.62 0.89 -1.12 1.48 c -0.5 0.59 -0.9 1.09 -0.88 1.1 c 0.04 0.04 1.16 -0.14 2.23 -0.37 c 0.97 -0.21 1.34 -0.22 1.65 -0.05 c 0.35 0.3 0.33 0.7 0.24 0.97"/><path d="m 19.77 34.73 c -0.16 0.47 -0.02 0.47 -2.45 0.08 c -0.87 -0.14 -1.59 -0.23 -1.61 -0.21 c -0.02 0.02 0.02 0.09 0.07 0.16 c 1.87 2.21 2.21 2.76 2 3.2 c -0.11 0.21 -0.19 0.26 -0.45 0.26 c -0.55 0 -0.73 -0.25 -1.39 -1.96 c -0.69 -1.77 -0.64 -1.66 -0.7 -1.54 c -0.03 0.06 -0.22 0.56 -0.42 1.12 c -0.84 2.31 -1.09 2.64 -1.71 2.24 c -0.52 -0.34 -0.45 -0.75 0.27 -1.54 c 0.67 -0.73 1.59 -1.82 1.59 -1.9 c 0 -0.09 0.09 -0.09 -1.58 0.18 c -1.57 0.26 -2.03 0.29 -2.2 0.16 c -0.32 -0.27 -0.43 -0.78 -0.22 -1 c 0.31 -0.33 0.7 -0.39 1.37 -0.23 c 0.66 0.16 2.63 0.49 2.67 0.44 c 0.05 -0.05 -0.3 -0.47 -1.32 -1.62 c -0.47 -0.53 -0.79 -0.95 -0.86 -1.14 c -0.1 -0.28 -0.1 -0.31 0.02 -0.56 c 0.13 -0.26 0.14 -0.27 0.54 -0.29 c 0.33 -0.02 0.42 0 0.52 0.13 c 0.07 0.08 0.39 0.83 0.71 1.66 c 0.32 0.84 0.61 1.53 0.64 1.54 c 0.03 0.01 0.28 -0.57 0.55 -1.3 c 0.79 -2.06 0.78 -2.05 1.29 -2.05 c 0.37 0 0.46 0.05 0.61 0.36 c 0.2 0.29 0.07 0.39 -0.07 0.68 c -0.11 0.22 -0.62 0.89 -1.12 1.48 c -0.5 0.59 -0.9 1.09 -0.88 1.1 c 0.04 0.04 1.16 -0.14 2.23 -0.38 c 0.97 -0.21 1.34 -0.22 1.65 -0.05 c 0.35 0.3 0.33 0.7 0.24 0.98"/></g></svg>