<svg xmlns="http://www.w3.org/2000/svg" viewBox="0 0 48 48"><path d="m 19.39 46.97 c -4.38 -1.87 -10.47 -4.62 -11 -4.98 c -0.33 -0.22 -0.89 -0.77 -1.24 -1.23 c -1 -1.31 -6.39 -10.73 -6.62 -11.57 c -0.22 -0.78 -0.12 -3.62 0.21 -6.18 c 0.75 -7.58 0.37 -7.41 1.37 -9 c 0.21 -0.44 2.36 -2.95 4.77 -5.57 c 4.64 -5 5.13 -5.45 7.09 -5.83 c 5.27 -0.91 8.6 -2.03 13.33 -2.31 c 4.21 1.8 8.75 3.68 12.73 5.93 c 0.62 0.53 1.54 1.93 3.62 5.46 c 4.24 7.24 3.9 6.45 3.88 8.98 c -0.43 3.94 -0.4 10.52 -1.77 13.31 c -0.47 0.88 -6.66 7.86 -8.61 9.72 c -0.97 0.92 -1.95 1.34 -4.21 1.81 c -2.29 0.85 -7.66 1.73 -9.5 2.08 c -1.06 0.25 -2.3 0.16 -4 -0.58" style="fill:#4069e0"/><path d="m 31.45 20.93 l 4.73 2.22 c 0.19 0 0.19 0 0.38 0 c 0.38 0 0.76 -0.18 0.95 -0.55 c 0.19 -0.37 0 -0.93 -0.38 -1.3 l -3.41 -1.67 l 3 -1.67 c 0.38 -0.19 0.57 -0.74 0.38 -1.3 c -0.19 -0.56 -0.95 -0.56 -1.32 -0.19 l -3.22 1.67 l 0.38 -3.71 c 0 -0.55 -0.38 -0.93 -0.76 -0.93 c -0.57 0 -0.95 0.37 -0.95 0.74 l -0.76 5 l -5.68 3.15 v -6.3 l 4.16 -2.96 c 0.38 -0.37 0.57 -0.93 0.19 -1.3 c -0.38 -0.37 -0.95 -0.55 -1.32 -0.19 l -3 2.04 v -3.52 c 0 -0.55 -0.38 -0.93 -0.95 -0.93 c -0.57 0 -0.95 0.37 -0.95 0.93 v 3.52 l -3 -2.04 c -0.38 -0.37 -0.95 -0.18 -1.32 0.19 c -0.38 0.37 -0.19 0.93 0.19 1.3 l 4.16 2.96 v 6.49 l -5.49 -3.52 l -0.57 -5 c 0 -0.55 -0.57 -0.93 -0.95 -0.74 c -0.57 0 -0.95 0.55 -0.95 1.11 l 0.38 3.52 l -3 -1.86 c -0.57 -0.37 -1.13 -0.18 -1.32 0.19 c -0.38 0.55 -0.19 1.11 0.19 1.3 l 3.21 1.85 l -3.41 1.48 c -0.57 0.37 -0.76 0.93 -0.57 1.3 c 0.19 0.37 0.57 0.55 0.95 0.55 c 0.19 0 0.19 0 0.38 0 l 4.54 -2.04 l 5.68 3.34 l -5.68 3.15 l -4.73 -2.22 c -0.38 -0.19 -0.95 0 -1.33 0.37 c -0.19 0.55 0 1.11 0.57 1.48 l 3.41 1.67 l -3.22 1.67 c -0.38 0.19 -0.57 0.74 -0.38 1.3 c 0.19 0.37 0.57 0.56 0.76 0.56 c 0.19 0 0.38 0 0.38 -0.19 l 3.22 -1.67 l -0.38 3.71 c 0 0.56 0.38 0.93 0.76 0.93 c 0 0 0 0 0.19 0 c 0.57 0 0.95 -0.37 0.95 -0.74 l 0.76 -5.19 l 5.68 -3.15 v 6.49 l -4.16 2.96 c -0.38 0.37 -0.57 0.93 -0.19 1.3 c 0.19 0.19 0.57 0.37 0.76 0.37 c 0.19 0 0.38 0 0.57 -0.18 l 3 -2.22 v 3.52 c 0 0.55 0.38 0.93 0.95 0.93 c 0.57 0 0.95 -0.37 0.95 -0.93 v -3.52 l 3 2.04 c 0.38 0.37 0.95 0.19 1.32 -0.18 c 0.38 -0.37 0.19 -0.93 -0.19 -1.3 l -4.16 -2.96 v -6.3 l 5.49 3.34 l 0.57 5 c 0 0.55 0.38 0.74 0.95 0.74 c 0 0 0 0 0.19 0 c 0.57 0 0.95 -0.55 0.76 -0.93 l -0.38 -3.71 l 3 1.86 c 0.19 0 0.38 0.18 0.57 0.18 c 0.38 0 0.57 -0.18 0.76 -0.37 c 0.19 -0.37 0.19 -0.93 -0.38 -1.3 l -3.21 -1.85 l 3.41 -1.48 c 0.57 -0.18 0.76 -0.74 0.57 -1.3 c -0.19 -0.55 -0.76 -0.74 -1.32 -0.55 l -4.54 2.04 l -5.49 -3.34" style="fill:#fff"/></svg>