<svg xmlns="http://www.w3.org/2000/svg" viewBox="0 0 48 48"><path d="m 41.1 9 c 29.95 42.56 -47.94 56.1 -40.2 10.88 c 4.1 -17.98 28.2 -27.94 40.2 -10.88" style="fill:#ffa400"/><path d="m 39.98 22.75 h -3.36 c -1.05 -5.96 -6.09 -10.64 -12.39 -10.64 c -4.62 0 -8.61 2.55 -10.91 6.38 h -4.83 c -0.63 0 -1.05 0.42 -1.05 1.06 c 0 0.64 0.42 1.06 1.05 1.06 h 3.99 c -0.42 0.64 -0.63 1.49 -0.63 2.13 h -0.21 c -0.63 0 -1.05 0.42 -1.05 1.06 c 0 0.64 0.42 1.06 1.05 1.06 c 0 1.49 0.21 2.98 0.84 4.25 h -3.99 c -0.63 0 -1.05 0.43 -1.05 1.06 c 0 0.64 0.42 1.07 1.05 1.07 h 4.83 c 2.1 3.83 6.3 6.38 10.91 6.38 c 4.62 0 8.61 -2.55 10.92 -6.38 h 1.68 c 0.63 0 1.05 -0.43 1.05 -1.07 c 0 -0.64 -0.42 -1.06 -1.05 -1.06 h -0.84 c 0.63 -1.28 0.84 -2.77 0.84 -4.25 h 3.15 c 0.63 0 1.05 -0.43 1.05 -1.06 c 0 -0.64 -0.42 -1.06 -1.05 -1.06 m -25.39 -2.13 h 9.65 c 0.63 0 1.05 -0.43 1.05 -1.06 c 0 -0.64 -0.42 -1.06 -1.05 -1.06 h -8.39 c 1.89 -2.55 4.83 -4.25 8.39 -4.25 c 5.25 0 9.24 3.61 10.29 8.51 h -20.57 c 0.21 -0.64 0.42 -1.49 0.63 -2.13 m 9.65 14.89 c -3.57 0 -6.5 -1.7 -8.39 -4.25 h 16.79 c -1.89 2.55 -4.83 4.25 -8.4 4.25 m 9.66 -6.38 h -19.31 c -0.63 -1.28 -0.84 -2.77 -0.84 -4.25 h 20.99 c 0 1.49 -0.21 2.98 -0.84 4.25" style="fill:#fff"/></svg>