<svg xmlns="http://www.w3.org/2000/svg" viewBox="0 0 48 48"><path d="m 39.6 41 c 37.84 -49.95 -66.3 -57 -32.89 -6.1 c 7.62 11.62 22.86 19.29 32.89 6.1" style="fill:#3e4a79"/><g style="fill:#fff"><path d="m 31.44 27.1 c -0.03 -0.52 -0.33 -1.03 -0.76 -1.55 c 1.16 -0.69 1.9 -1.72 1.84 -2.75 c -0.03 -0.52 -0.18 -0.86 -0.48 -1.37 c 1.03 -0.69 1.63 -1.72 1.56 -2.92 c -0.18 -2.92 -4.45 -5.16 -9.66 -5.16 c -5.21 0 -9.22 2.23 -9 5.16 c 0.07 1.2 0.8 2.23 1.91 2.92 c -0.23 0.51 -0.35 0.86 -0.32 1.37 c 0.06 1.03 0.93 2.06 2.17 2.75 c -0.37 0.52 -0.61 1.03 -0.57 1.55 c 0.05 0.86 0.63 1.55 1.59 2.06 c -0.12 0.17 -0.11 0.34 -0.1 0.52 c 0.05 0.86 0.89 1.55 2.26 2.06 c -0.51 0.34 -0.75 0.86 -0.72 1.37 c 0.04 0.69 0.75 1.38 1.72 1.89 c -0.13 0.17 -0.24 0.52 -0.23 0.69 c 0.05 0.86 1.16 1.55 2.78 1.72 c 0.06 1.03 1.04 1.72 2.11 1.72 c 1.07 0 1.96 -0.69 1.9 -1.72 c -0.02 -0.34 -0.18 -0.69 -0.46 -1.03 c 0.25 -0.34 0.37 -0.52 0.35 -0.86 c -0.01 -0.17 -0.16 -0.34 -0.16 -0.52 c 0.9 -0.52 1.39 -1.2 1.36 -1.89 c -0.04 -0.69 -0.62 -1.37 -1.44 -1.71 c 0.77 -0.52 1.27 -1.03 1.23 -1.72 c -0.01 -0.17 -0.02 -0.34 -0.16 -0.52 c 0.91 -0.52 1.4 -1.2 1.35 -2.06 m -15.89 -8.59 c -0.13 -2.06 3.35 -4.3 8.43 -4.3 c 5.08 0 8.82 2.23 8.95 4.3 c 0.05 0.86 -0.43 1.72 -1.32 2.41 c -1.42 -1.38 -4.29 -2.41 -7.36 -2.41 c -3.07 0 -5.82 1.03 -7.1 2.41 c -0.98 -0.69 -1.57 -1.55 -1.62 -2.41 m 15.27 2.75 c -1.42 0.86 -3.65 1.54 -6.32 1.54 c -2.67 0 -4.98 -0.69 -6.51 -1.54 c 1.14 -1.03 3.5 -1.89 6.3 -1.89 c 2.8 0 5.26 0.86 6.53 1.89 m -13.67 1.54 c -0.02 -0.34 0.1 -0.52 0.21 -0.86 c 1.8 1.03 4.38 1.72 7.18 1.72 c 2.81 0 5.3 -0.69 6.98 -1.72 c 0.15 0.34 0.3 0.52 0.32 0.86 c 0.04 0.69 -0.71 1.55 -1.87 2.23 c -1.25 -0.86 -3.16 -1.38 -5.43 -1.38 c -2.27 0 -4.11 0.52 -5.26 1.38 c -1.24 -0.69 -2.1 -1.55 -2.14 -2.23 m 11.91 2.58 c -1.17 0.52 -2.62 0.86 -4.36 0.86 c -1.74 0 -3.23 -0.34 -4.46 -0.86 c 1.04 -0.52 2.49 -0.86 4.36 -0.86 c 1.87 0 3.36 0.34 4.46 0.86 m -0.34 12 c 0.02 0.34 -0.48 0.86 -1.29 0.86 c -0.8 0 -1.37 -0.52 -1.39 -0.86 c 0.93 0 1.73 -0.17 2.24 -0.52 c 0.28 0.17 0.42 0.34 0.43 0.52 m -2.05 -0.69 c 0.13 0 0.39 -0.17 0.66 -0.17 c -0.14 0 -0.39 0.17 -0.66 0.17 m 1.94 -1.03 c 0.01 0.17 0.01 0.17 -0.11 0.34 c -0.28 -0.17 -0.69 -0.34 -1.22 -0.34 c -0.8 0 -1.45 0.34 -1.81 1.03 c -1.48 -0.17 -2.18 -0.69 -2.2 -1.03 c -0.01 -0.17 0.13 -0.17 0.25 -0.34 c 0.68 0.17 1.49 0.34 2.43 0.34 c 0.94 0 1.73 -0.17 2.39 -0.34 c 0.14 0.17 0.28 0.17 0.29 0.34 m -3.79 -0.86 c 0.27 0 0.66 -0.17 1.06 -0.17 c 0.4 0 0.8 0 1.08 0.17 c -0.27 0 -0.67 0 -1.07 0 c -0.4 0 -0.67 0 -1.07 0 m 4.98 -1.72 c 0.02 0.34 -0.48 0.86 -1.4 1.2 c -0.69 -0.34 -1.5 -0.52 -2.57 -0.52 c -0.93 0 -1.86 0.17 -2.5 0.69 c -0.96 -0.34 -1.52 -0.86 -1.55 -1.38 c -0.02 -0.34 0.35 -0.86 1 -1.2 c 0.68 0.17 1.49 0.34 2.29 0.34 c 1.2 0 2.13 -0.17 3.04 -0.51 c 1.09 0.34 1.66 1.03 1.69 1.37 m -0.21 -3.43 c 0.02 0.34 -0.48 0.86 -1.53 1.2 c -0.68 -0.17 -1.49 -0.34 -2.43 -0.34 c -1.07 0 -2.13 0.17 -2.9 0.69 c -1.63 -0.34 -2.47 -1.03 -2.5 -1.55 c 0 0 0 0 -0.01 -0.17 c 1.25 0.69 2.87 1.03 4.74 1.03 c 1.87 0 3.45 -0.34 4.62 -0.86 m -8.73 -0.69 c 0.77 -0.52 2.08 -1.03 3.95 -1.03 c 1.87 0 3.37 0.52 4.07 1.03 c -1.04 0.52 -2.36 0.69 -3.97 0.69 c -1.6 0 -2.96 -0.34 -4.05 -0.69 m 8.79 -0.52 c -0.98 -0.69 -2.75 -1.38 -4.89 -1.38 c -2.14 0 -3.83 0.69 -4.73 1.38 c -0.82 -0.34 -1.25 -0.86 -1.29 -1.38 c -0.02 -0.34 0.23 -0.69 0.61 -1.03 c 1.51 0.69 3.4 1.03 5.41 1.03 c 2 0 3.86 -0.34 5.29 -1.03 c 0.42 0.34 0.71 0.69 0.73 1.03 c 0.03 0.52 -0.34 1.03 -1.12 1.38"/><path d="m 13.78 22.52 c -0.47 0.03 -0.85 -0.33 -0.85 -0.81 c 0 -0.48 0.38 -0.89 0.85 -0.91 c 0.47 -0.03 0.85 0.33 0.85 0.81 c 0 0.48 -0.38 0.89 -0.85 0.91"/><path d="m 14.16 27.1 c -0.47 0.03 -0.85 -0.32 -0.85 -0.77 c 0 -0.46 0.38 -0.85 0.85 -0.88 c 0.47 -0.03 0.85 0.32 0.85 0.77 c 0 0.46 -0.38 0.85 -0.85 0.88"/><path d="m 17.66 32.2 c -0.47 0.04 -0.85 -0.31 -0.85 -0.77 c 0 -0.46 0.38 -0.86 0.85 -0.89 c 0.47 -0.04 0.85 0.3 0.85 0.77 c 0 0.46 -0.38 0.86 -0.85 0.9"/><path d="m 9.92 13.16 c 0.03 0.52 -0.36 0.93 -0.87 0.93 c -0.52 0 -0.95 -0.42 -0.98 -0.93 c -0.03 -0.52 0.36 -0.93 0.87 -0.93 c 0.51 0 0.95 0.42 0.98 0.93"/><path d="m 20.69 36.1 c 0.03 0.41 -0.25 0.74 -0.62 0.74 c -0.37 0 -0.69 -0.33 -0.72 -0.74 c -0.03 -0.41 0.25 -0.74 0.61 -0.74 c 0.37 0 0.69 0.33 0.72 0.74"/><path d="m 32.44 32.1 c -0.47 0.03 -0.86 -0.28 -0.86 -0.69 c 0 -0.41 0.39 -0.77 0.86 -0.8 c 0.48 -0.03 0.86 0.28 0.86 0.69 c 0 0.41 -0.38 0.77 -0.86 0.8"/><path d="m 33.43 26.91 c -0.47 0.03 -0.86 -0.27 -0.86 -0.66 c 0 -0.39 0.39 -0.73 0.86 -0.76 c 0.48 -0.03 0.86 0.27 0.86 0.66 c 0 0.39 -0.38 0.73 -0.86 0.76"/><path d="m 32.3 12.46 c 0.03 0.48 -0.35 0.86 -0.84 0.86 c -0.49 0 -0.92 -0.38 -0.95 -0.86 c -0.03 -0.47 0.35 -0.86 0.84 -0.86 c 0.49 0 0.91 0.39 0.95 0.86"/><path d="m 15.87 12.61 c 0.03 0.56 -0.42 1 -1.02 1 c -0.59 0 -1.11 -0.45 -1.14 -1 c -0.04 -0.56 0.42 -1.01 1.02 -1.01 c 0.6 0 1.11 0.45 1.14 1.01"/><path d="m 24.1 16.65 c 0.04 0.6 -0.4 1.09 -0.97 1.09 c -0.57 0 -1.07 -0.48 -1.11 -1.09 c -0.04 -0.6 0.4 -1.08 0.97 -1.08 c 0.57 0 1.07 0.48 1.11 1.08"/><path d="m 27.1 21.1 c 0.03 0.47 -0.35 0.86 -0.84 0.86 c -0.49 0 -0.92 -0.38 -0.95 -0.86 c -0.03 -0.48 0.35 -0.86 0.84 -0.86 c 0.49 0 0.91 0.38 0.95 0.86"/><path d="m 11.71 18.23 c -0.64 0.04 -1.15 -0.41 -1.15 -1.02 c 0 -0.6 0.51 -1.12 1.15 -1.16 c 0.63 -0.04 1.15 0.42 1.15 1.02 c 0 0.6 -0.52 1.12 -1.15 1.16"/></g></svg>