<svg xmlns="http://www.w3.org/2000/svg" viewBox="0 0 48 48"><path d="m 20.44 0.87 c -24.78 3.68 -27.72 40.3 -4.19 45.79 c 18.98 5.69 36 -14.92 30.61 -30.3 c -2.37 -10.32 -14.1 -18.66 -26.43 -15.46" style="fill:#4b4d6f"/><g transform="matrix(1.598 0 0 1.683 11.1 10.83)" style="fill:none;stroke-miterlimit:10;stroke:#fff;stroke-linecap:round"><path d="m 0.5 12.5 c 1.1 0.6 2.3 1 3.5 1 c 1.4 0 2.8 -0.4 4 -1 c 1.3 -0.6 2.6 -0.9 4 -1 c 1.4 0 1.7 0.4 3.5 1"/><path d="m 0.5 9.5 c 1.1 0.6 2.3 1 3.5 1 c 1.4 0 2.8 -0.4 4 -1 c 1.3 -0.6 2.6 -0.9 4 -1 c 1.4 0 1.7 0.4 3.5 1"/><path d="m 0.5 6.5 c 1.1 0.6 2.3 1 3.5 1 c 1.4 0 2.8 -0.4 4 -1 c 1.2 -0.6 2.6 -1 4 -1 c 1.4 0 1.7 0.4 3.5 1"/><path d="m 0.5 3.5 c 1.1 0.6 2.3 1 3.5 1 c 1.4 0 2.8 -0.4 4 -1 c 1.2 -0.6 2.6 -1 4 -1 c 1.5 0.1 1.7 0.4 3.5 1"/></g></svg>