<svg xmlns="http://www.w3.org/2000/svg" viewBox="0 0 48 48"><path d="m 44.49 11.89 c -36.3 -41.98 -71.1 44.3 -15.1 35.48 c 12.3 -1.95 24.82 -24.1 15.1 -35.48" style="fill:#008b8b"/><g style="fill:#fff"><path d="m 30.49 18.67 c -3.39 0 -6.24 2.16 -6.96 5 c -0.71 -2.88 -3.57 -5 -7.14 -5 c -4.11 0 -7.32 2.88 -7.32 6.31 c 0 3.43 3.21 6.31 7.32 6.31 c 3.57 0 6.42 -2.16 7.14 -5 c 0.71 2.88 3.57 5 6.96 5 c 3.93 0 7.14 -2.88 7.14 -6.31 c 0 -3.43 -3.21 -6.31 -7.14 -6.31 m -14.1 10.82 c -3.04 0 -5.53 -1.98 -5.53 -4.51 c 0 -2.53 2.5 -4.51 5.53 -4.51 c 3 0 5.53 1.98 5.53 4.51 c 0 2.52 -2.5 4.51 -5.53 4.51 m 14.1 0 c -3 0 -5.35 -1.98 -5.35 -4.51 c 0 -2.53 2.32 -4.51 5.35 -4.51 c 3.04 0 5.36 1.98 5.36 4.51 c 0 2.52 -2.32 4.51 -5.36 4.51"/><path d="m 16.21 15.1 c 0 0.99 -0.8 1.8 -1.79 1.8 c -0.98 0 -1.79 -0.81 -1.79 -1.8 c 0 -1 0.8 -1.8 1.79 -1.8 c 0.98 0 1.79 0.81 1.79 1.8"/><path d="m 34.1 15.1 c 0 0.99 -0.8 1.8 -1.79 1.8 c -0.98 0 -1.79 -0.81 -1.79 -1.8 c 0 -1 0.8 -1.8 1.79 -1.8 c 0.98 0 1.79 0.81 1.79 1.8"/><path d="m 16.21 34.9 c 0 1 -0.8 1.8 -1.79 1.8 c -0.98 0 -1.79 -0.8 -1.79 -1.8 c 0 -1 0.8 -1.8 1.79 -1.8 c 0.98 0 1.79 0.81 1.79 1.8"/><path d="m 34.1 34.9 c 0 1 -0.8 1.8 -1.79 1.8 c -0.98 0 -1.79 -0.8 -1.79 -1.8 c 0 -1 0.8 -1.8 1.79 -1.8 c 0.98 0 1.79 0.81 1.79 1.8"/></g></svg>