<svg xmlns="http://www.w3.org/2000/svg" viewBox="0 0 48 48"><path d="m 3.49 11.89 c 36.3 -41.98 71.1 44.3 15.1 35.48 c -12.3 -1.95 -24.82 -24.1 -15.1 -35.48" style="fill:#5f9d9f"/><g style="fill:#fff"><path d="m 30.47 19.49 c -3.29 0 -6.07 1.8 -6.76 4.15 c -0.69 -2.35 -3.46 -4.15 -6.93 -4.15 c -3.98 0 -7.11 2.35 -7.11 5.42 c 0 3.07 3.12 5.41 7.11 5.41 c 3.47 0 6.24 -1.8 6.93 -4.15 c 0.7 2.35 3.47 4.15 6.76 4.15 c 3.81 0 6.93 -2.35 6.93 -5.41 c 0 -3.07 -3.12 -5.42 -6.93 -5.42 m -13.7 9 c -2.95 0 -5.37 -1.63 -5.37 -3.61 c 0 -1.99 2.43 -3.61 5.37 -3.61 c 2.95 0 5.38 1.63 5.38 3.61 c 0 1.98 -2.43 3.61 -5.38 3.61 m 13.7 0 c -2.77 0 -5.2 -1.63 -5.2 -3.61 c 0 -1.99 2.43 -3.61 5.2 -3.61 c 2.77 0 5.2 1.63 5.2 3.61 c 0 1.98 -2.43 3.61 -5.2 3.61"/><path d="m 14.87 14.1 c 0 1 -0.77 1.8 -1.73 1.8 c -0.96 0 -1.73 -0.81 -1.73 -1.8 c 0 -1 0.78 -1.8 1.73 -1.8 c 0.96 0 1.73 0.81 1.73 1.8"/><path d="m 35.67 14.1 c 0 1 -0.78 1.8 -1.73 1.8 c -0.96 0 -1.73 -0.81 -1.73 -1.8 c 0 -1 0.78 -1.8 1.73 -1.8 c 0.96 0 1.73 0.81 1.73 1.8"/><path d="m 14.87 35.74 c 0 1 -0.77 1.8 -1.73 1.8 c -0.96 0 -1.73 -0.81 -1.73 -1.8 c 0 -1 0.78 -1.8 1.73 -1.8 c 0.96 0 1.73 0.81 1.73 1.8"/><path d="m 35.67 35.74 c 0 1 -0.78 1.8 -1.73 1.8 c -0.96 0 -1.73 -0.81 -1.73 -1.8 c 0 -1 0.78 -1.8 1.73 -1.8 c 0.96 0 1.73 0.81 1.73 1.8"/><path d="m 25.3 33.93 c 0 1 -0.78 1.8 -1.73 1.8 c -0.96 0 -1.73 -0.81 -1.73 -1.8 c 0 -1 0.78 -1.8 1.73 -1.8 c 0.96 0 1.73 0.81 1.73 1.8"/><path d="m 25.3 15.88 c 0 1 -0.78 1.8 -1.73 1.8 c -0.96 0 -1.73 -0.81 -1.73 -1.8 c 0 -1 0.78 -1.8 1.73 -1.8 c 0.96 0 1.73 0.81 1.73 1.8"/></g></svg>