<svg xmlns="http://www.w3.org/2000/svg" viewBox="0 0 48 48"><path d="m 44.49 11.89 c -36.3 -41.98 -71.1 44.3 -15.1 35.48 c 12.3 -1.95 24.82 -24.1 15.1 -35.48" style="fill:#707f8f"/><g style="fill:#fff"><path d="m 30.47 19.61 c -3.29 0 -6.07 1.78 -6.76 4.09 c -0.69 -2.31 -3.46 -4.09 -6.93 -4.09 c -3.98 0 -7.11 2.31 -7.11 5.34 c 0 3 3.12 5.34 7.11 5.34 c 3.47 0 6.24 -1.78 6.93 -4.09 c 0.7 2.31 3.47 4.09 6.76 4.09 c 3.81 0 6.93 -2.31 6.93 -5.34 c 0 -3 -3.12 -5.34 -6.93 -5.34 m -13.7 8.89 c -2.95 0 -5.37 -1.6 -5.37 -3.56 c 0 -1.96 2.43 -3.55 5.37 -3.55 c 2.95 0 5.38 1.6 5.38 3.55 c 0 1.96 -2.43 3.56 -5.38 3.56 m 13.7 0 c -2.77 0 -5.2 -1.6 -5.2 -3.56 c 0 -1.96 2.43 -3.55 5.2 -3.55 c 2.77 0 5.2 1.6 5.2 3.55 c 0 1.96 -2.43 3.56 -5.2 3.56"/><path d="m 14.87 14.28 c 0 0.98 -0.77 1.78 -1.73 1.78 c -0.96 0 -1.73 -0.8 -1.73 -1.78 c 0 -0.98 0.78 -1.78 1.73 -1.78 c 0.96 0 1.73 0.8 1.73 1.78"/><path d="m 35.67 14.28 c 0 0.98 -0.78 1.78 -1.73 1.78 c -0.96 0 -1.73 -0.8 -1.73 -1.78 c 0 -0.98 0.78 -1.78 1.73 -1.78 c 0.96 0 1.73 0.8 1.73 1.78"/><path d="m 14.87 35.62 c 0 0.98 -0.77 1.78 -1.73 1.78 c -0.96 0 -1.73 -0.8 -1.73 -1.78 c 0 -0.98 0.78 -1.78 1.73 -1.78 c 0.96 0 1.73 0.8 1.73 1.78"/><path d="m 35.67 35.62 c 0 0.98 -0.78 1.78 -1.73 1.78 c -0.96 0 -1.73 -0.8 -1.73 -1.78 c 0 -0.98 0.78 -1.78 1.73 -1.78 c 0.96 0 1.73 0.8 1.73 1.78"/><path d="m 21.8 33.84 c 0 0.98 -0.77 1.78 -1.73 1.78 c -0.96 0 -1.73 -0.8 -1.73 -1.78 c 0 -0.98 0.77 -1.78 1.73 -1.78 c 0.96 0 1.73 0.8 1.73 1.78"/><path d="m 28.74 33.84 c 0 0.98 -0.78 1.78 -1.73 1.78 c -0.96 0 -1.73 -0.8 -1.73 -1.78 c 0 -0.98 0.77 -1.78 1.73 -1.78 c 0.96 0 1.73 0.8 1.73 1.78"/><path d="m 21.8 16.1 c 0 0.98 -0.77 1.78 -1.73 1.78 c -0.96 0 -1.73 -0.8 -1.73 -1.78 c 0 -0.98 0.77 -1.78 1.73 -1.78 c 0.96 0 1.73 0.79 1.73 1.78"/><path d="m 28.74 16.1 c 0 0.98 -0.78 1.78 -1.73 1.78 c -0.96 0 -1.73 -0.8 -1.73 -1.78 c 0 -0.98 0.77 -1.78 1.73 -1.78 c 0.96 0 1.73 0.79 1.73 1.78"/></g></svg>