<svg xmlns="http://www.w3.org/2000/svg" viewBox="0 0 48 48"><path d="m 6.09 12.58 c -16.97 19.2 8.16 39.47 22.88 34.48 c 14.72 -4.99 24.62 -19.1 15 -31.43 c -9.62 -12.35 -19.1 -24.3 -36 -5.08" style="fill:#ff8c00"/><path d="m 28.2 26.72 v -12.73 c 0 -2.15 -1.91 -3.92 -4.25 -3.92 c -2.33 0 -4.25 1.77 -4.25 3.92 v 12.73 c -2.55 1.37 -4.25 3.92 -4.25 6.86 c 0 4.31 3.82 7.84 8.49 7.84 c 4.67 0 8.5 -3.53 8.5 -7.84 c 0 -2.75 -1.7 -5.29 -4.25 -6.86 m -4.25 12.73 c -3.39 0 -6.37 -2.74 -6.37 -5.88 c 0 -2.35 1.48 -4.31 3.61 -5.49 c 0.21 0 0.43 -0.2 0.64 -0.39 v -11.75 h 4.25 v 11.75 c 0 0.2 0.21 0.39 0.43 0.39 c 2.34 1.18 3.82 3.14 3.82 5.49 c 0 3.13 -2.97 5.88 -6.37 5.88" style="fill:#fff"/><g transform="matrix(2.123 0 0 1.959 6.96 10.1)" style="fill:none;stroke-miterlimit:10;stroke:#fff;stroke-linecap:round"><path d="m 3 4.5 h 1.5"/><path d="m 3.5 6.5 h 1"/><path d="m 2.5 2.5 h 2"/></g></svg>