<svg xmlns="http://www.w3.org/2000/svg" viewBox="0 0 48 48"><path d="m 39.72 8.4 c 24.2 19.51 -11.25 54.71 -32.68 32.2 c -21.49 -19.37 12 -56.93 32.68 -32.2" style="fill:#084670"/><path d="m 23.79 6.86 c -9.65 0 -17.47 7.79 -17.47 17.41 c 0 9.62 7.82 17.41 17.47 17.41 c 9.65 0 17.47 -7.79 17.47 -17.41 c 0 -9.61 -7.82 -17.41 -17.47 -17.41 m 0 1.3 c 8.93 0 16.2 7.2 16.2 16.1 c 0 8.89 -7.23 16.1 -16.2 16.1 c -8.93 0 -16.2 -7.21 -16.2 -16.1 c 0 -8.89 7.23 -16.1 16.2 -16.1 m 0 3.11 c -0.11 0 -0.22 0 -0.33 0 c -2.1 0.05 -4.08 0.61 -5.83 1.55 c -0.19 0.11 -0.38 0.21 -0.57 0.33 c -3.62 2.21 -6.1 6.14 -6.17 10.63 c 0 0.11 0 0.22 0 0.33 c 0 0.11 0 0.22 0 0.33 c 0.05 2.11 0.62 4.09 1.58 5.83 c 0.11 0.19 0.21 0.38 0.33 0.57 c 0.51 0.82 1.11 1.59 1.8 2.28 l 2.93 -2.92 c -1.55 -1.57 -2.49 -3.72 -2.49 -6.1 c 0 -4.82 3.92 -8.72 8.76 -8.72 c 1.92 0 3.7 0.62 5.14 1.66 c 0.11 0.09 0.22 0.18 0.33 0.27 l 2.95 -2.94 c -0.54 -0.46 -1.1 -0.88 -1.7 -1.25 c -0.19 -0.11 -0.38 -0.22 -0.57 -0.33 c -1.74 -0.94 -3.71 -1.5 -5.82 -1.55 c -0.11 0 -0.22 0 -0.33 0 m -0.04 4.27 c -0.14 0 -0.27 0.11 -0.27 0.25 l -0.43 6.6 c -0.25 0.11 -0.48 0.28 -0.67 0.5 c -0.57 0.68 -0.57 1.69 0 2.37 c 0.74 0.88 2.08 0.88 2.83 0.01 c 0.58 -0.68 0.59 -1.68 0.02 -2.37 c -0.2 -0.23 -0.44 -0.41 -0.7 -0.52 l -0.5 -6.59 c -0.01 -0.14 -0.13 -0.26 -0.28 -0.25 m 9.89 0.32 l -2.95 2.94 c 0.04 0.04 0.08 0.09 0.12 0.13 c 0.48 0.64 0.87 1.35 1.16 2.11 l 4 -1.07 c -0.24 -0.69 -0.54 -1.36 -0.88 -1.99 c -0.11 -0.2 -0.22 -0.38 -0.34 -0.57 c -0.34 -0.54 -0.72 -1.06 -1.13 -1.55 m 2.86 6.07 l -4 1.07 c 0.05 0.37 0.07 0.75 0.07 1.14 c 0 0.48 -0.04 0.95 -0.12 1.42 l 4 1.07 c 0.14 -0.71 0.23 -1.45 0.24 -2.2 c 0 -0.09 0 -0.19 0 -0.29 c 0 -0.13 0 -0.25 -0.01 -0.38 c -0.02 -0.63 -0.09 -1.23 -0.19 -1.84 m -12.7 1.48 c 0.17 0 0.34 0.07 0.47 0.2 c 0.13 0.13 0.19 0.3 0.19 0.46 c 0 0.17 -0.06 0.34 -0.2 0.48 c -0.26 0.26 -0.68 0.25 -0.95 0 c -0.13 -0.13 -0.19 -0.3 -0.19 -0.46 c 0 -0.17 0.07 -0.35 0.2 -0.48 c 0.13 -0.13 0.3 -0.19 0.47 -0.19 m 8.1 4.09 c -0.43 1.02 -1.05 1.95 -1.81 2.73 l 2.93 2.91 c 0.7 -0.7 1.32 -1.49 1.84 -2.34 c 0.11 -0.19 0.22 -0.38 0.33 -0.57 c 0.29 -0.53 0.53 -1.08 0.75 -1.65 l -4 -1.07" style="fill:#fff;fill-opacity:0.5"/></svg>