<svg xmlns="http://www.w3.org/2000/svg" viewBox="0 0 48 48"><path d="m 0.38 24.29 c -3.61 31.67 47.98 31.2 47.4 -0.56 c 1.71 -29.57 -50.2 -32.2 -47.4 0.56" style="fill:#105331"/><g style="fill:#fff"><path d="m 3.21 3.86 c -1.06 0 -1.91 0.85 -1.91 1.91 v 8.58 c 0 1.06 0.85 1.91 1.91 1.91 h 5.99 v 2 h -2.71 c -0.27 0 -0.49 0.02 -0.49 0.3 c 0 0.28 0.22 0.29 0.49 0.3 h 9 c 0.27 0 0.49 -0.02 0.49 -0.3 c 0 -0.28 -0.22 -0.31 -0.49 -0.3 h -2.71 v -2 h 5.99 c 1.06 0 1.91 -0.85 1.91 -1.91 v -8.58 c 0 -1.06 -0.85 -1.91 -1.91 -1.91 m -15.56 0.5 h 15.54 c 0.79 0 1.43 0.64 1.43 1.43 v 8.54 c 0 0.79 -0.64 1.43 -1.43 1.43 h -15.54 c -0.79 0 -1.43 -0.64 -1.43 -1.43 v -8.54 c 0 -0.79 0.64 -1.43 1.43 -1.43 m 6.57 11.92 h 2.4 v 2 h -2.4" transform="matrix(1.443 0 0 1.483 7.99 8.84)" style="stroke:#fff"/><path d="m 18.95 23.53 c 0.57 0 1.14 0 1.71 0 v -1.39 c 0 -1.55 -0.05 -1.71 -0.59 -1.94 c -0.39 -0.17 -0.89 -0.13 -1.28 0.06 c -0.54 0.26 -0.59 0.03 -0.61 2.37 l -0.04 2.49 c -1.08 0 -1.9 -0.04 -2.98 -0.04 l 0.03 -2.48 c -0.02 -1.13 -0.13 -2.16 0.36 -3.18 c 1.04 -2 2.71 -2.54 4.46 -2.41 c 1.3 0.16 2.27 0.67 3 1.58 c 0.75 0.91 0.95 1.7 0.95 3.73 v 1.21 c 2.4 0 4.8 0 7.2 0 c 0 2.09 0 4.19 0 6.28 c -4.08 0 -8.16 0 -12.25 0 c 0 -2.19 0 -4 0 -6.28"/></g></svg>