<svg xmlns="http://www.w3.org/2000/svg" viewBox="0 0 48 48"><path d="m 43.89 12.7 c 12.91 17.25 -7.75 38.3 -24.39 34.65 c -16.39 -2.14 -26.29 -27.1 -13.61 -39.73 c 9.26 -9.11 25.1 -12.16 38 5.08" style="fill:#2699f2"/><path d="m 23 8.6 c -8.21 0 -14.87 6.62 -14.87 14.79 c 0 8.16 6.66 14.79 14.87 14.79 c 2.7 -0.01 5.35 -0.75 7.66 -2.14 c -0.15 -0.5 -0.22 -1.03 -0.22 -1.55 c 0 -3.06 2.5 -5.55 5.57 -5.55 c 0.24 0 0.48 0.02 0.72 0.05 c 0.74 -1.77 1.13 -3.67 1.14 -5.59 c 0 -8.16 -6.66 -14.79 -14.87 -14.79 m -5.82 9.24 c 0.36 0 0.85 0.02 1.72 0.07 c 3.4 0.18 4.1 0.19 6.07 0.06 c 2.43 -0.16 4.74 -0.16 5.41 0 c 1.37 0.32 2.62 1.38 3.32 2.82 c 0.38 0.79 0.5 1.42 0.45 2.38 c -0.04 0.8 -0.2 1.55 -0.45 2.14 c -0.39 0.95 -1.32 2.02 -2.1 2.43 c -0.88 0.46 -2.38 0.84 -4.22 1.06 c -0.99 0.12 -6.18 0.18 -7.68 0.09 c -1.49 -0.09 -3.39 -0.39 -4.3 -0.69 c -1.36 -0.44 -2.24 -1.21 -2.91 -2.53 c -0.43 -0.85 -0.57 -1.41 -0.62 -2.53 c -0.03 -0.79 -0.02 -0.97 0.1 -1.43 c 0.24 -0.94 0.68 -1.7 1.45 -2.48 c 0.74 -0.76 1.54 -1.13 2.89 -1.32 c 0.31 -0.04 0.53 -0.07 0.88 -0.06 m 1.18 1.85 c -1.54 0 -2.79 1.65 -2.79 3.7 c 0 2.04 1.25 3.7 2.79 3.7 c 1.54 0 2.79 -1.65 2.79 -3.7 c 0 -2.04 -1.25 -3.7 -2.79 -3.7 m 9.29 0 c -1.54 0 -2.79 1.65 -2.79 3.7 c 0 2.04 1.25 3.7 2.79 3.7 c 1.54 0 2.79 -1.65 2.79 -3.7 c 0 -2.04 -1.25 -3.7 -2.79 -3.7" style="fill:#fff"/><path d="m 39.73 34.47 c 0 2.04 -1.66 3.7 -3.72 3.7 c -2.05 0 -3.71 -1.66 -3.71 -3.7 c 0 -2.04 1.66 -3.7 3.71 -3.7 c 2.05 0 3.72 1.66 3.72 3.7" style="fill:#ff4500"/></svg>