<svg xmlns="http://www.w3.org/2000/svg" viewBox="0 0 48 48"><path d="m 0.61 29.49 c 9.37 44.98 73.86 -3.3 35.1 -26.2 c -15 -9.81 -39.94 3.04 -35.1 26.2" style="fill:#5ba4ff"/><path d="m 28.86 13.43 l 0.05 0.05 l 0.13 -0.05 m 1.44 1.52 l 8.92 8.3 v -8.3" style="fill-opacity:0.2"/><path d="m 28.86 5.12 l 10.54 9.83 h -8.92 c -0.79 0 -1.62 -0.78 -1.62 -1.52 v -8.31" style="fill:#fff;fill-opacity:0.39"/><path d="m 22.1 15.55 c -5.59 0 -10.12 4.54 -10.12 10.14 c 0 5.6 4.53 10.14 10.12 10.14 h 8.43 c 0.32 0 0.61 -0.18 0.75 -0.46 c 0.14 -0.28 0.12 -0.62 -0.07 -0.88 l -1.51 -2.12 c 1.62 -1.85 2.51 -4.22 2.51 -6.68 c 0 -5.6 -4.53 -10.14 -10.11 -10.14 m -5.06 8.45 c 0.93 0 1.68 0.75 1.68 1.69 c 0 0.94 -0.75 1.69 -1.68 1.69 c -0.93 0 -1.69 -0.75 -1.69 -1.69 c 0 -0.94 0.75 -1.69 1.69 -1.69 m 5.06 0 c 0.93 0 1.68 0.75 1.68 1.69 c 0 0.94 -0.75 1.69 -1.68 1.69 c -0.94 0 -1.69 -0.75 -1.69 -1.69 c 0 -0.94 0.75 -1.69 1.69 -1.69 m 5.1 0 c 0.93 0 1.69 0.75 1.69 1.69 c 0 0.94 -0.75 1.69 -1.69 1.69 c -0.93 0 -1.68 -0.75 -1.68 -1.69 c 0 -0.94 0.75 -1.69 1.68 -1.69" style="fill:#e3f6ff"/></svg>