<svg xmlns="http://www.w3.org/2000/svg" xmlns:xlink="http://www.w3.org/1999/xlink" viewBox="0 0 48 48"><defs><g id="3" style="clip-path:url(#2)"><path d="m 18.77 9.51 l -2.46 3.32 l -0.03 0.05 c -0.04 0.07 -0.07 0.14 -0.07 0.23 v 24.91 c 0 0.27 0.26 0.49 0.59 0.49 h 15.19 c 0.32 0 0.59 -0.22 0.59 -0.49 v -24.91 c 0 -0.08 -0.03 -0.16 -0.07 -0.23 l -0.03 -0.05 l -2.46 -3.32" style="fill:#fff;fill-rule:evenodd"/><path d="m 16.91 12.61 h 14.96 c 0.39 0 0.7 0.32 0.7 0.7 v 24.48 c 0 0.39 -0.32 0.7 -0.7 0.7 h -14.96 c -0.39 0 -0.7 -0.32 -0.7 -0.7 v -24.48 c 0 -0.39 0.31 -0.7 0.7 -0.7" style="fill:#ffe4e0;fill-rule:evenodd"/><path d="m 19.98 13.1 h 8.82 v 25.29 h -8.82" style="fill:#fff;fill-rule:evenodd"/><path d="m 16.8 12.61 c -0.33 0 -0.59 0.22 -0.59 0.49 v 0.26 c 0 -0.27 0.26 -0.48 0.59 -0.48 h 2.71 l 0.47 0.26 h 8.86 l 0.51 -0.26 h 2.64 c 0.32 0 0.59 0.21 0.59 0.48 v -0.26 c 0 -0.27 -0.27 -0.49 -0.59 -0.49" style="fill:#ff4500;fill-rule:evenodd"/><path d="m 29.39 12.88 l -0.59 0.32 c 0 0 -0.07 25.44 0 25.2 c 0.06 -0.2 0.43 -3.75 0.43 -3.75" style="fill:#ff4500"/><path d="m 19.41 12.88 l 0.59 0.32 c 0 0 0.06 25.44 0 25.2 c -0.07 -0.2 -0.43 -3.75 -0.43 -3.75" style="fill:#ff4500"/><path d="m 22.71 18 c -0.35 0 -0.63 -0.22 -0.63 -0.48 c 0 -0.27 0.29 -0.48 0.63 -0.48 h 3.05 c 0.35 0 0.63 0.22 0.63 0.48 c 0 0.26 -0.29 0.48 -0.63 0.48" style="fill:#fc561f"/><path d="m 22.75 17.1 h 2.97 c 0.22 0 0.4 0.13 0.4 0.28 c 0 0.15 -0.18 0.28 -0.4 0.28 h -2.97 c -0.22 0 -0.41 -0.13 -0.41 -0.28 c 0 -0.16 0.18 -0.28 0.41 -0.28" style="fill:#fc561f"/><path d="m 22.71 15.43 c -0.35 0 -0.63 -0.21 -0.63 -0.48 c 0 -0.27 0.29 -0.48 0.63 -0.48 h 3.05 c 0.35 0 0.63 0.21 0.63 0.48 c 0 0.27 -0.29 0.48 -0.63 0.48" style="fill:#fc561f"/><path d="m 22.75 14.55 h 2.97 c 0.22 0 0.4 0.13 0.4 0.28 c 0 0.15 -0.18 0.28 -0.4 0.28 h -2.97 c -0.22 0 -0.41 -0.13 -0.41 -0.28 c 0 -0.16 0.18 -0.28 0.41 -0.28" style="fill:#fc561f"/><path d="m 22.71 20.34 c -0.35 0 -0.63 -0.21 -0.63 -0.48 c 0 -0.27 0.29 -0.48 0.63 -0.48 h 3.05 c 0.35 0 0.63 0.21 0.63 0.48 c 0 0.27 -0.29 0.48 -0.63 0.48" style="fill:#fc561f"/><path d="m 22.75 19.48 h 2.97 c 0.22 0 0.4 0.13 0.4 0.28 c 0 0.16 -0.18 0.28 -0.4 0.28 h -2.97 c -0.22 0 -0.41 -0.13 -0.41 -0.28 c 0 -0.15 0.18 -0.28 0.41 -0.28" style="fill:#fc561f"/><path d="m 22.71 22.68 c -0.35 0 -0.63 -0.22 -0.63 -0.48 c 0 -0.26 0.29 -0.48 0.63 -0.48 h 3.05 c 0.35 0 0.63 0.22 0.63 0.48 c 0 0.27 -0.29 0.48 -0.63 0.48" style="fill:#ff4500"/><path d="m 22.75 21.8 h 2.97 c 0.22 0 0.4 0.13 0.4 0.28 c 0 0.15 -0.18 0.28 -0.4 0.28 h -2.97 c -0.22 0 -0.41 -0.13 -0.41 -0.28 c 0 -0.16 0.18 -0.28 0.41 -0.28" style="fill:#fc561f"/><path d="m 27 26.47 c 0 1.55 -1.22 2.82 -2.73 2.82 c -1.51 0 -2.73 -1.27 -2.73 -2.82 c 0 -1.56 1.22 -2.82 2.73 -2.82 c 1.51 0 2.73 1.26 2.73 2.82" style="fill:#fc561f"/><path d="m 26.2 26.47 c 0 1.07 -0.84 1.94 -1.88 1.94 c -1.04 0 -1.88 -0.87 -1.88 -1.94 c 0 -1.07 0.84 -1.94 1.88 -1.94 c 1.04 0 1.88 0.87 1.88 1.94" style="fill:#fc561f"/><path d="m 25.95 26.47 c 0 0.94 -0.74 1.7 -1.65 1.7 c -0.91 0 -1.65 -0.77 -1.65 -1.7 c 0 -0.94 0.74 -1.7 1.65 -1.7 c 0.91 0 1.65 0.76 1.65 1.7" style="fill:#fc561f"/><path d="m 24.3 24.77 c -0.91 0 -1.65 0.76 -1.65 1.7 c 0 0.09 0.01 0.18 0.02 0.26 c 0.12 -0.81 0.8 -1.44 1.63 -1.44 c 0.82 0 1.5 0.63 1.63 1.44 c 0.01 -0.09 0.02 -0.17 0.02 -0.26 c 0 -0.94 -0.74 -1.7 -1.65 -1.7" style="fill:#fc561f;fill-opacity:0.2"/><path d="m 46.3 688.9 c 2.35 2.34 2.35 6.14 0 8.48 c -2.35 2.34 -6.14 2.34 -8.49 0 c -2.35 -2.34 -2.35 -6.14 0 -8.48 c 0.06 -0.06 0.13 -0.11 0.17 -0.17" transform="matrix(0.248 0 0 0.247 13.85 -144.6)" style="fill:#fc561f;stroke:#fff;stroke-linecap:round;stroke-width:2"/><path d="m 42.3 687.5 v 5" transform="matrix(0.248 0 0 0.247 13.85 -144.6)" style="fill:none;stroke:#fff;stroke-linecap:round;stroke-width:2"/><path d="m 95.8 213.8 c -2.93 -0.54 -4.17 -1.12 -6.08 -2.78 c -3.35 -2.93 -3.55 -3.89 -3.7 -18.23 c -0.1 -7 -0.02 -13.22 0.12 -13.79 c 0.25 -1.03 0.45 -1.09 3.6 -1.09 c 2.83 0 3.4 0.12 3.8 0.88 c 0.3 0.54 0.47 5.4 0.47 12.74 c 0 10.47 0.1 11.98 0.74 12.64 c 2.31 2.29 8.19 1.96 9.38 -0.57 c 0.22 -0.42 0.5 -6.34 0.62 -13.1 l 0.25 -12.31 h 7.17 l 0.12 12.77 c 0.12 14.2 -0.12 15.93 -2.66 18.98 c -2.66 3.23 -8.56 4.89 -13.85 3.92" transform="matrix(0.157 0 0 0.129 4.24 7.51)" style="fill:#fc561f;stroke:#ff4500;stroke-width:1.42"/><path d="m 118.4 213.4 c -0.45 -0.3 -0.55 -4.16 -0.45 -17.84 l 0.1 -17.44 l 7.15 -0.15 c 8.31 -0.12 10.99 0.42 13.3 2.72 c 2.16 2.14 3.08 4.56 3.08 7.97 c -0.02 5.1 -1.79 8.3 -5.81 10.5 c -1.94 1.03 -3.08 1.3 -6.33 1.51 l -3.97 0.21 v 5.91 c 0 3.98 -0.17 6.1 -0.55 6.43 c -0.6 0.6 -5.63 0.72 -6.53 0.18 m 12.88 -21.31 c 1.74 -0.6 2.68 -2 2.38 -3.62 c -0.27 -1.36 -1.49 -1.9 -5.21 -2.29 l -2.98 -0.33 v 6.85 l 2.11 -0.03 c 1.19 -0.03 2.83 -0.27 3.7 -0.57" transform="matrix(0.157 0 0 0.129 4.24 7.51)" style="fill:#fc561f;stroke:#ff4500;stroke-width:1.42"/><path d="m 173 241.4 c -2.73 -0.66 -6.68 -2.26 -7.22 -2.96 c -0.4 -0.45 -0.3 -1.36 0.37 -3.62 c 1.32 -4.44 1.34 -4.44 5.68 -3.08 c 4.24 1.36 6.68 1.48 8.83 0.45 c 2.93 -1.39 1.84 -2.96 -3.4 -4.89 c -7.37 -2.75 -9.88 -4.8 -10.72 -8.72 c -1.07 -4.98 1.69 -9.84 6.9 -12.19 c 4.27 -1.96 14.59 -1.09 15.88 1.33 c 0.57 1.06 -1.34 6.97 -2.28 7.15 c -0.42 0.09 -2.23 -0.15 -4 -0.51 c -4.64 -0.97 -8.46 -0.09 -8.46 1.96 c 0 0.88 1.32 1.6 5.88 3.26 c 6.8 2.44 9.4 5.07 9.73 9.81 c 0.35 4.83 -2.13 8.81 -6.85 10.98 c -2.63 1.21 -7.59 1.69 -10.32 1.03" transform="matrix(0.157 0 0 0.129 1.09 3.81)" style="fill:#fc561f;stroke:#ff4500;stroke-width:1.42"/></g><clipPath id="0"><path d="m 16 9 h 17 v 30 h -17"/></clipPath><clipPath id="1"><path d="m 18.77 9.51 l -2.46 3.32 l -0.03 0.05 c -0.04 0.07 -0.07 0.14 -0.07 0.23 v 24.91 c 0 0.27 0.26 0.49 0.59 0.49 h 15.19 c 0.32 0 0.59 -0.22 0.59 -0.49 v -24.91 c 0 -0.08 -0.03 -0.16 -0.07 -0.23 l -0.03 -0.05 l -2.46 -3.32"/></clipPath><clipPath id="2"><path d="M 0,0 H48 V48 H0 z"/></clipPath></defs><path d="m 0.55 29.47 c 2.98 19.38 29.41 24.57 41.1 10.73 c 10.28 -10.27 7.72 -29.94 -4.88 -36.69 c -14.48 -9 -35.57 2.13 -36.72 20.1 c -0.12 1.96 0.05 3.95 0.52 5.86" style="fill:#fc561f"/><g style="clip-path:url(#0)"><g style="clip-path:url(#1)"><use xlink:href="#3"/></g></g></svg>