<svg xmlns="http://www.w3.org/2000/svg" viewBox="0 0 48 48"><path d="m 42.1 35.73 c 16.97 -19.2 -8.85 -39.61 -23.57 -34.62 c -14.72 4.99 -23.93 19.2 -14.3 31.56 c 9.62 12.35 19.1 24.3 36 5.08" style="fill:#454c9c"/><path d="m 21.42 34.47 c -1.28 -2.21 -4.32 -6.99 -5.55 -8.73 c -1.88 -3.37 -6.49 -8.79 -5.43 -9.11 c 0.02 -0.12 0.3 -0.36 0.63 -0.52 c 1.54 -0.77 3.22 0.02 4.73 2.24 c 1.38 2.03 3.97 6.22 4.58 7.43 c 0.61 1.21 2.23 3.95 2.8 4.75 c 0.34 0.47 0.75 0.45 1.25 -0.07 c 0.54 -0.56 0.98 -1.32 2.73 -4.71 c 1.4 -2.72 3.41 -6.27 4.46 -7.89 c 0.85 -1.3 2.28 -2.03 3.66 -1.87 c 0.79 0.09 1.02 0.26 1.02 0.76 c 0 0.86 -1.75 4.1 -4.49 8.3 c -0.39 0.61 -1.21 1.98 -1.81 3.05 c -4.39 7.81 -4.46 7.93 -5.16 8.36 c -1.67 0.77 -2.76 -0.86 -3.42 -1.99" style="fill:#fff"/></svg>