<svg xmlns="http://www.w3.org/2000/svg" viewBox="0 0 48 48"><path d="m 45.79 35.3 c -9.45 22.52 -46 12.49 -45.79 -12.1 c -0.37 -22.29 28.73 -30.77 41.48 -14.87 c 6.38 6.87 8.6 18.26 4.33 26.95"/><path d="m 39.48 23.91 c 0 8.29 -6.9 15 -15.41 15 c -8.52 0 -15.42 -6.71 -15.42 -15 c 0 -8.29 6.9 -15 15.42 -15 c 8.51 0 15.41 6.71 15.41 15" style="fill:#696969"/><g style="fill:#fff"><path d="m 6.32 19.84 l -0.69 -3.65 l -2.53 -1.33 l 2.54 -0.99 l 0.93 -3.63 l 0.7 3.65 l 2.53 1.33 l -2.55 0.99"/><path d="m 43.1 23.76 l -0.76 -1.84 l -1.52 -1.02 l 1.58 -0.89 l 0.88 -1.76 l 0.76 1.83 l 1.52 1.02 l -1.58 0.89"/><path d="m 31.7 45.3 l -0.48 -1.83 l -1.45 -0.89 l 1.39 -0.63 l 0.68 -1.9 l 0.48 1.84 l 1.45 0.89 l -1.39 0.63"/></g><path d="m 23.79 23.91 v -14.91 l -0.75 0.06 c -5.94 0.46 -11.3 4.37 -13.37 9.74 c -1.26 3.28 -1.27 6.92 -0.02 10.16 c 1.78 4.65 5.92 8.21 11 9.45 c 0.78 0.19 2.12 0.38 2.64 0.38 h 0.47 v -14.91" style="fill:#a9a9a9"/><path d="m 96.4 206.5 c -14.83 1.13 -23.96 -15 -19.75 -31.42 c 4.06 -10.85 8.1 -14.4 20 -19.1 c -3 -12.31 0.79 -22.75 9.9 -26.71 c 7.35 -3.52 17 -3.54 23.44 -0.06 c 2.9 1.56 3.46 4.17 6.13 3.19 c 3.48 -8.85 10.52 -20.9 32.2 -20.81 c 12.19 -0.85 25.3 11 28.2 20.81 c 2.96 9.46 5.42 -0.29 15.85 2.63 c 27.96 3.9 29.1 41.69 5.94 48.85 c -0.96 13.81 -5.65 19.1 -14.17 21.75 c -32.69 8 -36.9 -12.1 -52.6 -8.81 c -6.13 2.77 -16.56 14.4 -38.56 3.31" transform="scale(0.188)" style="fill:#fff;stroke:#696969;stroke-width:2.13"/></svg>