<svg xmlns="http://www.w3.org/2000/svg" viewBox="0 0 48 48"><path d="m 45.79 35.3 c -9.45 22.52 -46 12.49 -45.79 -12.1 c -0.37 -22.29 28.73 -30.77 41.48 -14.87 c 6.38 6.87 8.6 18.26 4.33 26.95"/><path d="m 39.48 23.91 c 0 8.29 -6.9 15 -15.41 15 c -8.52 0 -15.42 -6.71 -15.42 -15 c 0 -8.29 6.9 -15 15.42 -15 c 8.51 0 15.41 6.71 15.41 15" style="fill:#696969"/><path d="m 24.2 38.3 c 4.5 -2.78 7.35 -7.49 7.95 -13.14 c 0.21 -1.99 0.02 -4.37 -0.49 -6.41 c -0.86 -3.41 -2.94 -6.73 -5.6 -8.94 l -0.93 -0.77 l 0.83 0.11 c 6.89 0.88 12.3 6.17 13.26 12.96 c 0.68 4.84 -1.46 10.1 -5.42 13.27 c -2.5 2 -5.77 3.26 -9 3.45 l -1.55 0.09 l 0.97 -0.59" style="fill:#a9a9a9"/><g style="fill:#fff"><path d="m 6.32 19.84 l -0.69 -3.65 l -2.53 -1.33 l 2.54 -0.99 l 0.93 -3.63 l 0.7 3.65 l 2.53 1.33 l -2.55 0.99"/><path d="m 43.1 23.76 l -0.76 -1.84 l -1.52 -1.02 l 1.58 -0.89 l 0.88 -1.76 l 0.76 1.83 l 1.52 1.02 l -1.58 0.89"/><path d="m 31.7 45.3 l -0.48 -1.83 l -1.45 -0.89 l 1.39 -0.63 l 0.68 -1.9 l 0.48 1.84 l 1.45 0.89 l -1.39 0.63"/></g></svg>