<svg xmlns="http://www.w3.org/2000/svg" viewBox="0 0 48 48"><path d="m 45.79 35.4 c -9.41 22.58 -45.86 12.52 -45.62 -12.1 c -0.36 -22.37 28.61 -30.84 41.3 -14.91 c 6.35 6.89 8.57 18.3 4.31 27"/><path d="m 23.74 6.49 c -6.4 0 -11.6 5.23 -11.6 11.68 c 0 6.45 5.19 11.69 11.6 11.69 c 6.41 0 11.61 -5.23 11.61 -11.69 c 0 -6.46 -5.19 -11.68 -11.61 -11.68 m 0.1 4.18 c 0.04 0 0.07 0 0.12 0 c 0.17 0 0.39 0 0.5 0.14 c 0.11 0.6 0.35 1.18 0.7 1.72 c 0.57 0.98 1.58 1.71 2.4 2.55 c 1.6 1.77 1.39 4.3 -0.13 6.1 c 0.33 -0.77 0.6 -1.58 0.63 -2.41 c 0.11 -1.34 -1.5 -3 -2.1 -3.36 c -0.6 -0.34 -0.84 -0.57 -1.47 -0.57 c -0.05 2.61 0.03 5.22 0.02 7.83 c -0.06 1.93 -1.01 2.6 -2.71 3.04 c -2.21 0.17 -2.96 -0.57 -2.96 -1.87 c 0.09 -1.46 1.84 -2.54 3.57 -2.62 c 0.38 0 0.61 0.02 1.01 -0.02 c 0.02 -3.17 0.01 -6.34 0.02 -9.51 c 0.01 -0.34 -0.12 -0.93 0.42 -0.96" style="fill:#fff;fill-opacity:0.92"/></svg>