<svg xmlns="http://www.w3.org/2000/svg" viewBox="0 0 24 24"><path d="m 19.1 2.56 c 19.69 17.26 -27.68 34.71 -17.63 6.59 c 2.5 -7 10.98 -12.43 17.63 -6.59" style="fill:#dc133c"/><path d="m -2.61 302.7 c -5.11 -2.09 -5.1 -5.1 0.03 -15.84 c 1.45 -3.06 2.93 -7.48 3.27 -9.9 c 0.81 -5.94 1.83 -7.56 6.09 -9.22 c 5.71 -2.2 9.83 -5.55 12.76 -10.41 c 3.83 -6.31 9.52 -13.16 22.77 -27.52 c 17.68 -19.2 25.48 -30.1 40.4 -56.65 c 10.92 -19.39 16.65 -28.1 26.44 -40.4 c 8.78 -10.89 25.83 -27.3 31.2 -29.97 c 3.27 -1.63 4.08 -1.71 6.95 -0.64 c 6.71 2.65 18.53 4.82 28.75 5.45 l 10.69 0.61 l 0.44 3.82 c 1.4 11 1.65 21.54 4.96 32.45 c 2.12 6.95 2.26 8.43 1.22 11.31 c -2.82 7.81 -18.1 24.1 -33.4 35.56 c -11.75 8.84 -21 14.6 -39.4 24.2 c -25 13.29 -34.2 20 -51.1 37.51 c -10.63 11 -16.1 15.71 -24.31 20.88 c -10.37 6.5 -13.92 10.71 -15.83 18.93 c -0.51 2.21 -1.15 2.5 -6.77 3.11 c -7.19 0.76 -11.73 2.38 -15.85 5.68 c -3.35 2.67 -4.97 2.83 -9.39 0.99" transform="matrix(0.068 0.002 0.001 0.071 4.69 -1.71)" style="fill:#fff;stroke:#fff;stroke-linecap:round;stroke-width:1.93"/><g style="fill:#dc133c"><path d="m 16 8.34 c 0.17 0.15 0.16 0.42 -0.02 0.59 l -2.81 2.72 c -0.18 0.17 -0.46 0.19 -0.63 0.03 c -0.17 -0.15 -0.16 -0.42 0.02 -0.59 l 2.81 -2.72 c 0.18 -0.17 0.46 -0.19 0.63 -0.03"/><path d="m 14.39 7.54 c 0.16 0.11 0.15 0.36 -0.01 0.55 l -2.06 2.38 c -0.16 0.19 -0.42 0.25 -0.57 0.13 c -0.16 -0.12 -0.15 -0.36 0.02 -0.55 l 2.05 -2.38 c 0.16 -0.19 0.42 -0.25 0.57 -0.13"/><path d="m 16.75 9.9 c 0.14 0.14 0.09 0.38 -0.09 0.54 l -2.38 2.06 c -0.19 0.16 -0.45 0.18 -0.59 0.05 c -0.14 -0.14 -0.09 -0.38 0.09 -0.54 l 2.38 -2.06 c 0.19 -0.16 0.45 -0.18 0.59 -0.05"/></g></svg>