<svg xmlns="http://www.w3.org/2000/svg" viewBox="0 0 24 24"><path d="m 19.83 3.62 c 18.76 24.88 -32.87 28.4 -16.3 3 c 3.78 -5.79 11.34 -9.6 16.3 -3" style="fill:#ff8c00"/><g style="fill:#fff"><path d="m 6.25 19.5 c -0.08 -0.06 -0.09 -0.12 -0.06 -0.26 c 0.08 -0.37 0.5 -0.93 1.84 -2.43 c 0.74 -0.84 1.16 -1.36 1.3 -1.64 c 0.05 -0.11 0.12 -0.47 0.16 -0.85 c 0.04 -0.36 0.08 -0.75 0.1 -0.87 c 0.04 -0.23 0.17 -0.41 0.3 -0.41 c 0.25 0 0.44 0.34 0.68 1.22 c 0.08 0.3 0.17 0.57 0.19 0.59 c 0.02 0.02 0.28 0.1 0.56 0.18 c 0.28 0.07 0.65 0.21 0.82 0.32 c 0.25 0.15 0.3 0.21 0.3 0.35 c 0 0.14 -0.04 0.2 -0.2 0.28 c -0.11 0.05 -0.34 0.1 -0.5 0.1 c -0.46 0.01 -1.07 0.11 -1.27 0.21 c -0.25 0.13 -0.56 0.39 -1.94 1.64 c -1.1 1 -1.77 1.54 -2.05 1.61 c -0.07 0.02 -0.17 0 -0.23 -0.04"/><path d="m 18.66 19.37 c -0.36 -0.21 -1.04 -0.77 -2.05 -1.69 c -1.39 -1.26 -1.6 -1.37 -2.76 -1.46 c -0.52 -0.04 -0.8 -0.16 -0.8 -0.35 c 0 -0.21 0.49 -0.49 1.16 -0.65 c 0.47 -0.11 0.65 -0.22 0.65 -0.38 c 0 -0.06 0.08 -0.37 0.18 -0.68 c 0.19 -0.58 0.36 -0.84 0.57 -0.84 c 0.22 0 0.3 0.23 0.37 1.06 c 0.06 0.78 0.06 0.79 0.31 1.16 c 0.13 0.21 0.54 0.71 0.91 1.11 c 1.72 1.87 2 2.23 2 2.6 c 0 0.21 -0.01 0.24 -0.14 0.25 c -0.08 0.01 -0.26 -0.05 -0.41 -0.14"/><path d="m 15.25 12.59 c -0.14 -0.16 -0.28 -0.51 -0.45 -1.15 l -0.15 -0.58 l -0.61 -0.18 c -0.68 -0.2 -0.91 -0.31 -1.07 -0.49 c -0.09 -0.1 -0.1 -0.15 -0.04 -0.27 c 0.09 -0.2 0.24 -0.25 1.06 -0.32 c 0.49 -0.04 0.78 -0.1 0.93 -0.18 c 0.32 -0.16 0.77 -0.54 1.9 -1.63 c 1.48 -1.41 2.05 -1.8 2.29 -1.56 c 0.08 0.08 0.09 0.13 0.03 0.28 c -0.15 0.39 -0.48 0.85 -1.46 1.99 c -1.16 1.35 -1.5 1.79 -1.65 2.13 c -0.07 0.16 -0.13 0.49 -0.17 0.99 c -0.05 0.55 -0.09 0.79 -0.17 0.9 c -0.13 0.18 -0.3 0.21 -0.43 0.07"/><path d="m 9.77 12.63 c -0.13 -0.08 -0.21 -0.35 -0.25 -0.93 c -0.08 -1.1 -0.16 -1.25 -1.47 -2.78 c -1.11 -1.29 -1.54 -1.84 -1.73 -2.23 c -0.15 -0.3 -0.16 -0.38 -0.1 -0.45 c 0.25 -0.29 0.72 0.02 2.41 1.61 c 1.71 1.61 1.78 1.66 2.75 1.74 c 0.33 0.03 0.65 0.05 0.71 0.05 c 0.06 0 0.18 0.08 0.28 0.18 c 0.14 0.15 0.16 0.2 0.11 0.29 c -0.11 0.2 -0.92 0.55 -1.56 0.68 c -0.14 0.03 -0.2 0.07 -0.23 0.19 c -0.1 0.46 -0.39 1.3 -0.5 1.47 c -0.15 0.22 -0.25 0.26 -0.41 0.17"/><path d="m 12.26 14 c -0.8 -0.41 -0.98 -1.42 -0.36 -2.04 c 0.44 -0.44 1.04 -0.49 1.52 -0.13 c 0.37 0.28 0.52 0.62 0.49 1.09 c -0.02 0.4 -0.14 0.64 -0.42 0.89 c -0.31 0.27 -0.89 0.36 -1.23 0.18"/></g></svg>