<svg xmlns="http://www.w3.org/2000/svg" viewBox="0 0 24 24"><path d="m 19.9 19.89 c 12.18 -9.83 -5.65 -27.57 -16.43 -16.24 c -10.8 9.76 6.1 28.69 16.43 16.24" style="fill:#ff8c00"/><path d="m 6.73 19.21 l -1.25 -0.03 c 0.88 -0.85 1.77 -1.71 2.65 -2.56 h 2.23 c 2.18 0 2.24 0 2.38 0.16 c 0.08 0.09 0.61 0.59 1.18 1.1 l 1.04 0.93 c 0.81 -0.72 1.7 -1.51 2.37 -2.2 c 0.42 0 0.84 0 1.25 0.01 l -1.37 1.32 l -1.36 1.32 l -3.94 -0.02 c -1.73 -0.02 -3.46 -0.01 -5.19 -0.04" style="fill:#ffdeac"/><path d="m 13.54 16.1 c -1.55 -1.46 -1.53 -1.35 -0.29 -1.37 l 0.74 -0.02 l 0.02 -2.17 c 0.01 -1.55 0 -2.2 -0.06 -2.26 c -0.12 -0.13 -3.66 -0.13 -3.78 0 c -0.1 0.28 -0.06 0.5 -0.04 0.8 l 0.81 0.02 c 0.44 0.01 0.85 0.03 0.91 0.05 c 0.07 0.02 -0.34 0.45 -1.27 1.32 c -0.75 0.71 -1.4 1.29 -1.44 1.29 c -0.04 0 -0.67 -0.56 -1.41 -1.25 c -0.88 -0.82 -1.31 -1.27 -1.26 -1.32 c 0.04 -0.04 0.43 -0.07 0.88 -0.09 l 0.81 -0.02 l 0.04 -0.63 c 0.07 -0.92 0.38 -1.43 1.13 -1.82 l 0.38 -0.2 h 4.71 l 0.38 0.2 c 0.42 0.22 0.71 0.5 0.94 0.91 c 0.16 0.27 0.16 0.33 0.18 2.74 l 0.02 2.46 h 0.84 c 0.54 0 0.85 0.03 0.88 0.07 c 0.05 0.08 -2.55 2.57 -2.68 2.57 c -0.04 0 -0.68 -0.58 -1.44 -1.28 m -8.1 -8.67 c 0 -0.03 0.63 -0.64 1.39 -1.36 l 1.39 -1.3 h 5.17 c 2.84 0 5.19 0.02 5.22 0.05 c -0.9 0.99 -1.68 1.67 -2.73 2.66 h -5.22 c -2.87 0 -5.22 -0.02 -5.22 -0.05" style="fill:#fff"/><g style="fill:#ffdeac"><path d="m 5.6 15.52 c 0 -0.08 1.25 -1.32 1.65 -1.63 l 0.21 -0.16 c 0.56 0.43 1.04 1 1.63 1.38 c 0.55 -0.29 0.89 -0.65 1.38 -1.08 c 0.46 0.82 0.52 1 0.82 1.52 c 0 0.03 -1.28 0.06 -2.85 0.06 c -1.93 0 -2.85 -0.03 -2.85 -0.08"/><path d="m 10.83 13.75 c 0.23 -0.32 0.46 -0.52 0.75 -0.8 c 0.46 0.04 0.96 -0.04 1.42 0 v 0.57 c 0 0.42 -0.1 0.29 -1.21 0.29 c -0.53 0 -0.96 -0.03 -0.96 -0.06"/><path d="m 16.82 13.63 c -0.05 -0.61 0.04 -0.67 0.63 -0.67 c 0.39 0 0.77 0.05 1.14 0.11 l -0.43 0.37 c -0.38 0.33 -0.46 0.37 -0.79 0.37 c -0.34 0 -0.54 0.02 -0.56 -0.18"/></g></svg>