<svg xmlns="http://www.w3.org/2000/svg" viewBox="0 0 24 24"><path d="m 21.2 4.36 c 5.84 8.92 1.13 17.1 -5.48 18.99 c -8.9 2.59 -20.97 -4.23 -13 -18.28 c 3.16 -5.59 14.34 -7.1 18.5 -0.71" style="fill:#fb8600"/><path d="m 4.89 19.97 c -0.03 -0.03 0.58 -0.7 1.34 -1.5 l 1.39 -1.45 h 1.99 l 1.07 0.93 c 1.35 1.16 1.32 1.14 1.74 1.14 c 0.42 0 0.39 0.02 1.74 -1.14 l 1.08 -0.93 h 1.89 c 1.04 0 1.89 0.02 1.89 0.05 c 0 0.03 -0.63 0.71 -1.39 1.5 l -1.39 1.45 h -5.66 c -3.11 0 -5.68 -0.02 -5.71 -0.05 m 6.1 -3.23 c -1.16 -1.01 -1.41 -1.27 -1.43 -1.44 c -0.01 -0.12 0.02 -0.24 0.07 -0.28 c 0.05 -0.03 0.48 -0.06 0.96 -0.06 h 0.86 l -0.02 -1.49 l -0.02 -1.49 h -2.81 l -0.04 0.96 l -0.04 0.95 h -0.25 c -0.23 0 -0.3 -0.07 -1.39 -1.43 c -0.63 -0.79 -1.14 -1.47 -1.14 -1.52 c 0 -0.05 0.53 -0.76 1.17 -1.57 c 1.09 -1.37 1.19 -1.47 1.39 -1.45 l 0.21 0.02 l 0.02 0.97 c 0.02 0.94 0.02 0.98 0.18 1.01 c 0.09 0.02 0.72 0.03 1.42 0.02 l 1.27 -0.02 v -3 l -0.91 -0.04 l -0.91 -0.04 l -0.02 -0.22 c -0.02 -0.21 0.07 -0.3 1.39 -1.45 c 0.77 -0.68 1.44 -1.23 1.48 -1.23 c 0.04 0 0.71 0.55 1.48 1.23 c 1.31 1.14 1.41 1.24 1.39 1.45 l -0.02 0.22 l -0.91 0.04 l -0.91 0.04 v 3 l 1.26 0.02 c 0.7 0.01 1.34 0 1.42 -0.02 c 0.15 -0.04 0.16 -0.07 0.18 -1.01 l 0.02 -0.97 l 0.22 -0.02 c 0.21 -0.02 0.29 0.06 1.39 1.44 c 0.64 0.8 1.17 1.51 1.17 1.57 c 0 0.05 -0.52 0.75 -1.16 1.55 c -1.11 1.38 -1.18 1.45 -1.39 1.43 l -0.22 -0.02 l -0.04 -0.95 l -0.04 -0.96 h -2.81 l -0.04 2.98 h 0.86 c 0.47 0 0.9 0.03 0.95 0.06 c 0.05 0.04 0.09 0.16 0.07 0.28 c -0.02 0.18 -0.27 0.43 -1.43 1.44 c -0.77 0.68 -1.42 1.23 -1.44 1.23 c -0.02 0 -0.67 -0.55 -1.44 -1.23" style="fill:#fff"/></svg>