<svg xmlns="http://www.w3.org/2000/svg" viewBox="0 0 24 24"><path d="m 2.68 7.6 c -1.2 1.42 -2.43 4.12 -2.63 5.75 c -0.29 2.35 0.45 5.08 1.81 6.74 c 1.82 2.22 5.6 3.77 9.43 3.84 c 2.74 0.05 6.44 -0.66 8.35 -1.61 c 1.63 -0.81 2.8 -2.03 3.48 -3.6 c 0.92 -2.13 1.02 -4.22 0.32 -6.33 c -1.11 -4.49 -3.86 -7.57 -6.32 -10 c -6.29 -5.54 -10.79 0.86 -14.43 5.26" style="fill:#ff8c00"/><path d="m 4.74 19.71 c -0.02 -0.05 -0.03 -0.26 -0.02 -0.46 l 0.02 -0.36 l 1.28 -0.02 c 1.45 -0.02 1.58 -0.01 1.74 0.23 c 0.15 0.22 0.04 0.51 -0.25 0.63 c -0.29 0.13 -2.73 0.11 -2.78 -0.02 m 7.74 0.02 c -0.27 -0.12 -0.37 -0.41 -0.23 -0.63 c 0.07 -0.09 0.2 -0.19 0.29 -0.21 c 0.1 -0.02 1.71 -0.03 3.58 -0.02 l 3.41 0.02 v 0.89 l -3.45 0.02 c -2.26 0.01 -3.5 -0.02 -3.61 -0.07 m -5.6 -2 c -0.06 -0.07 -0.08 -1.06 -0.07 -3.54 l 0.02 -3.44 l 0.35 -0.02 c 0.74 -0.04 0.68 0.09 0.72 -1.48 c 0.04 -1.54 0.11 -1.85 0.58 -2.71 c 1.21 -2.21 4.81 -2.66 6.72 -0.83 c 0.91 0.87 1.2 1.78 1.2 3.75 c 0 1.33 -0.06 1.23 0.7 1.27 l 0.35 0.02 l 0.02 3.44 c 0.02 2.48 0 3.46 -0.07 3.54 c -0.07 0.08 -0.98 0.1 -5.26 0.1 c -4.27 0 -5.18 -0.02 -5.26 -0.1 m 7.35 -7.12 c 0.07 -0.08 0.09 -0.42 0.07 -1.24 c -0.03 -0.98 -0.05 -1.18 -0.21 -1.5 c -0.78 -1.65 -3.12 -1.65 -3.9 0 c -0.15 0.32 -0.18 0.52 -0.2 1.5 c -0.02 0.82 -0.01 1.16 0.06 1.24 c 0.14 0.16 4 0.16 4.18 0" style="fill:#fff"/></svg>