<svg xmlns="http://www.w3.org/2000/svg" viewBox="0 0 24 24"><path d="m 7.64 23.56 c 33.8 4.17 5.79 -43.75 -6.63 -13.1 c -1.9 5.38 -0.25 11.45 6.63 13.1" style="fill:#ff8c00"/><path d="m 4.77 19.2 c -0.02 -0.05 -0.03 -0.27 -0.02 -0.49 l 0.02 -0.39 h 14.52 v 0.94 l -7.24 0.02 c -6.09 0.02 -7.25 0 -7.28 -0.08 m 6.17 -3.59 c -1.45 -0.47 -2.5 -1.66 -2.88 -3.27 c -0.09 -0.35 -0.11 -0.66 -0.08 -1.23 c 0.05 -1.21 0.45 -2.21 1.44 -3.63 c 0.55 -0.79 2.48 -2.97 2.62 -2.97 c 0.14 0 2.07 2.18 2.62 2.97 c 0.59 0.85 0.95 1.52 1.21 2.27 c 0.19 0.55 0.2 0.66 0.21 1.53 c 0 0.84 -0.02 1 -0.17 1.46 c -0.43 1.32 -1.36 2.32 -2.55 2.79 c -0.59 0.23 -1.82 0.27 -2.41 0.07" style="fill:#fff"/></svg>