<svg xmlns="http://www.w3.org/2000/svg" viewBox="0 0 24 24"><path d="m 11 23.83 c 14.26 1.36 18.1 -21.63 3.46 -23.41 c -13.46 -2.21 -20.39 18.63 -7 22.79 c 1.14 0.46 2.37 0.45 3.56 0.62" style="fill:#ff8c00"/><path d="m 17.25 19.58 c 0.34 -0.13 0.74 -0.55 0.83 -0.89 c 0.11 -0.38 0.11 -12.48 0 -12.86 c -0.04 -0.15 -0.18 -0.38 -0.32 -0.53 c -0.46 -0.5 -0.27 -0.48 -5.63 -0.46 l -4.78 0.02 l -0.32 0.18 c -0.18 0.1 -0.44 0.32 -0.59 0.5 c -0.46 0.57 -0.46 0.45 -0.44 5.5 c 0.02 4.3 0.02 4.5 0.14 4.75 c 0.17 0.37 0.55 0.76 0.94 0.95 l 0.33 0.16 h 4.56 c 5.09 0 4.84 -0.02 5.15 0.46 c 0.18 0.29 0.18 0.6 0 0.89 c -0.31 0.49 -0.05 0.47 -5.18 0.45 l -4.6 -0.02 l -0.29 -0.16 c -0.35 -0.2 -0.66 -0.51 -0.84 -0.84 c -0.15 -0.29 -0.24 -0.27 -0.24 0.04 c 0 0.66 0.43 1.38 1.04 1.72 l 0.32 0.18 l 4.82 0.01 c 4.14 0.01 4.86 0 5.08 -0.09 m -4.93 -6.54 c -1.03 -1.09 -1.89 -1.99 -1.91 -1.99 c -0.03 0 -0.05 0.89 -0.07 1.98 l -0.02 1.97 l -1.74 0.04 l 0.03 -8.34 l 0.79 -0.02 c 0.52 -0.01 0.81 0.01 0.87 0.06 c 0.07 0.07 0.09 0.45 0.09 2.03 c 0 1.07 0.02 1.95 0.05 1.95 c 0.03 0 0.91 -0.91 1.96 -2.03 c 1.72 -1.83 1.93 -2.03 2.09 -2 l 0.18 0.02 l 0.02 4.17 l 0.02 4.17 h -0.24 c -0.23 0 -0.32 -0.09 -2.11 -1.99" style="fill:#fff"/></svg>