<svg xmlns="http://www.w3.org/2000/svg" viewBox="0 0 24 24"><path d="m 21.71 18.36 c 13.1 -23.85 -34.64 -24.98 -18.23 -0.39 c 4.33 6.33 14.71 9.41 18.23 0.39" style="fill:#ff8c00"/><path d="m 7.54 16.64 c -0.43 -1.41 -1.01 -4.08 -0.9 -4.14 c 0.02 -0.02 0.28 -0.02 0.57 -0.02 c 0.86 0.12 1.41 -0.52 1.98 -0.64 c 0.15 0.14 1.02 3.75 1.2 4.98 c 0.13 0.86 0.16 1.3 0.12 1.87 c -2.25 0.53 -2.41 -0.21 -2.98 -2.05 m 3.89 3.42 c -0.29 -2.87 -0.46 -5 -0.46 -8.77 c 0.05 -0.07 0.4 0.04 0.73 0.13 c 0.9 0.29 1.5 -0.19 2.19 -0.24 c 0.09 0.14 0.19 2.86 0.16 4.16 c -0.04 1.35 0.05 3.95 -0.06 4.41 c 0.05 2.28 -2.28 2.51 -2.57 0.31 m 3.5 -2.54 c 0.14 -1.44 0.63 -4.07 0.77 -4.21 c 0.05 -0.04 0.22 0 0.5 0.12 c 0.55 0.23 1.25 0.29 1.73 0.15 c 0.2 -0.06 0.38 -0.08 0.41 -0.05 c -0.28 2.23 -0.49 4.93 -1.39 5.14 c -2 0.68 -2.21 0.91 -2 -1.14 m 1.89 -4.8 c -0.66 -0.16 -1.29 -0.67 -1.45 -1.19 c -0.28 -0.98 0.27 -1.71 0.75 -2.4 c 0.86 -1.19 1.02 -1.82 0.71 -2.61 c -0.18 -0.44 -0.14 -0.52 0.15 -0.43 c 0.77 0.25 1.95 1.89 2.4 3.33 c 0.2 0.63 0.18 1.55 -0.05 2.04 c -0.43 0.91 -1.57 1.48 -2.52 1.26 m -10.5 -1.28 c -1.14 -0.42 -1.7 -1.73 -1.3 -3.09 c 0.32 -1.1 1.09 -2.36 1.84 -3 c 0.38 -0.34 0.74 -0.52 0.84 -0.43 c 0.02 0.02 -0.04 0.25 -0.13 0.51 c -0.29 0.86 -0.15 1.3 0.84 2.71 c 0.7 1 0.83 1.34 0.72 1.9 c -0.04 0.18 -0.1 0.4 -0.14 0.5 c -0.13 0.31 -0.53 0.68 -0.96 0.87 c -0.53 0.24 -1.15 0.25 -1.71 0.05 m 4.65 -1.31 c -0.46 -0.41 -0.66 -0.86 -0.62 -1.4 c 0.04 -0.46 0.2 -0.78 0.88 -1.83 c 0.62 -0.95 0.8 -1.31 0.91 -1.79 c 0.12 -0.56 0.23 -0.56 0.81 0 c 0.56 0.55 0.86 1.02 1.15 1.86 c 0.19 0.54 0.22 0.71 0.23 1.42 c 0.02 0.75 -0.1 1.25 -0.67 1.73 c -1 0.5 -1.87 0.71 -2.68 0" style="fill:#fff"/></svg>