<svg xmlns="http://www.w3.org/2000/svg" viewBox="0 0 24 24"><path d="m 11 23.83 c 14.26 1.36 18.1 -21.63 3.46 -23.41 c -13.46 -2.21 -20.39 18.63 -7 22.79 c 1.14 0.46 2.37 0.45 3.56 0.62" style="fill:#ff8c00"/><path d="m 7.56 19.38 c -0.16 -0.05 -0.36 -0.13 -0.42 -0.18 c -0.34 -0.27 -0.57 -0.53 -0.71 -0.83 l -0.15 -0.33 v -10.84 l 0.15 -0.34 c 0.25 -0.55 0.8 -0.99 1.3 -1.03 c 0.29 -0.03 0.29 -0.03 0.29 0.77 c 0 0.49 0.03 0.84 0.09 0.98 c 0.1 0.25 0.49 0.62 0.79 0.75 c 0.29 0.12 0.8 0.12 1.11 -0.01 c 0.23 -0.09 0.27 -0.09 0.54 0.04 c 0.38 0.17 0.77 0.17 1.17 -0.01 c 0.31 -0.14 0.33 -0.14 0.52 -0.03 c 0.32 0.2 0.88 0.21 1.26 0.04 c 0.31 -0.14 0.34 -0.14 0.53 -0.04 c 0.3 0.16 0.82 0.13 1.21 -0.05 c 0.64 -0.31 0.81 -0.66 0.81 -1.7 c 0 -0.52 0.02 -0.73 0.08 -0.76 c 0.04 -0.02 0.21 0 0.38 0.05 c 0.52 0.14 0.99 0.6 1.18 1.16 c 0.15 0.44 0.15 10.74 0 11.19 c -0.13 0.41 -0.49 0.82 -0.89 1.04 l -0.33 0.18 l -4.3 0.01 c -3.33 0.01 -4.37 0 -4.61 -0.07 m 1.47 -11.96 c -0.08 -0.12 -0.1 -0.36 -0.1 -1.2 c 0 -1.04 0 -1.05 0.16 -1.22 c 0.18 -0.18 0.35 -0.17 0.56 0.02 c 0.1 0.09 0.11 0.24 0.11 1.21 c 0 0.99 -0.01 1.12 -0.12 1.22 c -0.17 0.16 -0.5 0.14 -0.62 -0.04 m 1.8 0.01 c -0.11 -0.12 -0.13 -0.27 -0.14 -1.1 c -0.02 -1.05 0.03 -1.32 0.29 -1.42 c 0.2 -0.07 0.44 0.04 0.54 0.25 c 0.04 0.09 0.07 0.55 0.07 1.09 c 0 1.12 -0.07 1.32 -0.46 1.32 c -0.09 0 -0.22 -0.06 -0.29 -0.14 m 1.75 -0.01 c -0.08 -0.12 -0.1 -0.36 -0.1 -1.2 c 0 -1.04 0 -1.05 0.16 -1.22 c 0.18 -0.18 0.35 -0.17 0.57 0.02 c 0.1 0.09 0.11 0.24 0.11 1.21 c 0 0.99 -0.01 1.12 -0.12 1.22 c -0.18 0.16 -0.5 0.14 -0.63 -0.04 m 1.8 0.01 c -0.11 -0.12 -0.13 -0.27 -0.14 -1.1 c -0.02 -1.05 0.03 -1.32 0.29 -1.42 c 0.2 -0.07 0.44 0.04 0.53 0.25 c 0.04 0.09 0.07 0.55 0.07 1.09 c 0 1.12 -0.07 1.32 -0.46 1.32 c -0.09 0 -0.22 -0.06 -0.29 -0.14" style="fill:#fff"/></svg>