<svg xmlns="http://www.w3.org/2000/svg" viewBox="0 0 24 24"><path d="m 21.71 5.63 c 13.1 23.85 -34.64 24.98 -18.23 0.39 c 4.33 -6.33 14.71 -9.41 18.23 -0.39" style="fill:#ff8c00"/><path d="m 7.39 20.1 c -0.06 -0.02 -0.21 -0.13 -0.34 -0.24 c -0.36 -0.32 -0.52 -0.87 -0.55 -2 c -0.04 -1.09 -0.01 -1.24 0.71 -4.05 c 0.65 -2.53 0.76 -3.13 0.77 -4.25 c 0 -0.81 -0.02 -1.02 -0.16 -1.42 c -0.19 -0.57 -0.49 -0.96 -0.98 -1.26 c -0.22 -0.13 -0.37 -0.27 -0.37 -0.34 c 0 -0.1 0.07 -0.12 0.53 -0.12 c 1.03 0 2.04 0.23 2.57 0.57 c 0.15 0.1 0.36 0.32 0.47 0.51 c 0.18 0.29 0.2 0.39 0.2 0.89 c 0 0.79 -0.09 1.1 -1.14 3.68 c -0.86 2.1 -1.09 3.04 -1.09 4.28 c 0 1.51 0.44 2.42 1.1 2.27 c 0.11 -0.03 0.41 -0.25 0.67 -0.49 c 0.26 -0.25 0.48 -0.45 0.5 -0.45 c 0.02 0 0.04 0.17 0.04 0.38 v 0.38 l -0.68 0.63 c -0.41 0.38 -0.85 0.7 -1.11 0.83 c -0.42 0.21 -0.93 0.31 -1.14 0.23 m 4.59 -0.49 c -0.27 -0.15 -0.27 -0.35 0.02 -0.89 c 0.43 -0.81 0.53 -1.15 0.53 -1.85 c 0 -0.47 -0.04 -0.72 -0.15 -1.05 c -0.21 -0.59 -0.26 -1.02 -0.16 -1.48 c 0.25 -1.14 1.17 -2 2.36 -2.19 c 1.19 -0.2 2.5 0.45 3.04 1.5 c 0.18 0.36 0.23 0.53 0.25 1 c 0.04 0.68 -0.09 1.12 -0.47 1.68 c -0.41 0.58 -1.29 1.41 -1.93 1.81 c -0.52 0.32 -3.11 1.53 -3.28 1.53 c -0.04 0 -0.13 -0.03 -0.2 -0.07 m 4.78 -8 c -0.87 -0.23 -1.6 -0.46 -1.63 -0.5 c -0.07 -0.11 -0.07 -4.7 0.01 -4.81 c 0.05 -0.07 0.17 -0.08 0.57 -0.04 c 1.16 0.11 1.79 0.38 2.41 1.05 c 0.81 0.87 1.05 1.06 1.36 1.11 c 0.16 0.02 0.3 0.08 0.32 0.12 c 0.04 0.1 -1.32 3.46 -1.41 3.48 c -0.04 0.01 -0.78 -0.18 -1.64 -0.41" style="fill:#fff"/></svg>