<svg xmlns="http://www.w3.org/2000/svg" viewBox="0 0 24 24"><path d="m 21.2 19.73 c 5.84 -8.93 1.13 -17.1 -5.48 -18.99 c -8.9 -2.6 -20.97 4.23 -13 18.28 c 3.16 5.59 14.34 7.1 18.5 0.71" style="fill:#fb8600"/><path d="m 6.73 19.67 c -0.35 -0.13 -0.78 -0.57 -0.87 -0.89 c -0.09 -0.34 -0.09 -12.41 0 -12.75 c 0.09 -0.34 0.52 -0.76 0.9 -0.89 c 0.26 -0.09 0.63 -0.1 2.32 -0.09 l 2 0.02 l 0.02 2.85 c 0.01 1.57 0 2.89 -0.02 2.94 c -0.02 0.07 -0.21 -0.07 -0.6 -0.48 c -0.31 -0.32 -0.63 -0.61 -0.71 -0.65 c -0.08 -0.04 -0.41 -0.07 -0.73 -0.07 h -0.59 v 0.59 c 0 0.45 0.03 0.63 0.12 0.79 c 0.2 0.34 3.79 4.05 3.91 4.05 c 0.06 0 0.95 -0.88 2.04 -2.03 c 2.11 -2.23 2 -2.11 1.98 -2.93 l -0.02 -0.44 l -0.52 -0.02 c -0.29 -0.01 -0.59 0 -0.68 0.02 c -0.09 0.02 -0.43 0.31 -0.75 0.64 c -0.33 0.33 -0.61 0.6 -0.64 0.6 c -0.03 0 -0.04 -1.32 -0.03 -2.93 l 0.02 -2.93 h 2.99 l 0.33 0.18 c 0.44 0.24 0.84 0.72 0.97 1.15 c 0.14 0.49 0.14 8.84 0 9.32 c -0.13 0.46 -0.49 0.87 -0.96 1.11 l -0.4 0.21 h -4.69 c -5.23 0 -4.97 -0.02 -5.29 0.46 c -0.19 0.29 -0.19 0.59 0 0.88 c 0.32 0.49 0.05 0.47 5.32 0.45 l 4.72 -0.02 l 0.32 -0.18 c 0.35 -0.19 0.66 -0.5 0.85 -0.84 c 0.14 -0.25 0.23 -0.23 0.23 0.07 c 0 0.66 -0.45 1.36 -1.07 1.7 l -0.33 0.18 l -4.95 0.01 c -4.25 0.01 -4.98 0 -5.21 -0.09" style="fill:#fff"/></svg>