<svg xmlns="http://www.w3.org/2000/svg" viewBox="0 0 24 24"><path d="m 4.09 4.11 c -12.18 9.84 5.65 27.57 16.43 16.24 c 10.8 -9.76 -6.1 -28.69 -16.43 -16.24" style="fill:#ff8c00"/><path d="m 5.08 19.22 c -0.03 -0.03 0.54 -0.65 1.25 -1.39 l 1.3 -1.34 h 5.77 c 4.65 0 5.77 0.02 5.77 0.09 c 0 0.05 -0.57 0.68 -1.27 1.39 l -1.27 1.3 h -5.75 c -3.16 0 -5.77 -0.02 -5.8 -0.05 m 8.87 -4.07 c -0.15 -0.16 -0.14 -0.22 0.17 -0.88 c 0.24 -0.51 0.28 -0.67 0.3 -1.16 c 0.02 -0.45 0 -0.66 -0.12 -1.06 c -0.29 -0.96 -0.09 -1.81 0.56 -2.43 c 0.47 -0.45 0.81 -0.58 1.48 -0.59 c 0.5 0 0.61 0.02 1 0.23 c 0.91 0.46 1.39 1.48 1.17 2.45 c -0.18 0.75 -1.09 1.84 -2 2.39 c -0.57 0.34 -2.23 1.14 -2.37 1.14 c -0.05 0 -0.13 -0.05 -0.19 -0.11 m -7.8 -0.68 c -0.94 -0.3 -1.47 -1.55 -1.07 -2.48 c 0.16 -0.36 0.53 -0.75 0.86 -0.93 c 0.33 -0.17 1.2 -0.17 1.53 0 c 0.61 0.31 1 0.96 1 1.64 c 0 1.27 -1.14 2.14 -2.33 1.76 m 0.98 -0.97 c 0.3 -0.17 0.48 -0.52 0.44 -0.85 c -0.06 -0.51 -0.38 -0.81 -0.86 -0.81 c -0.48 0 -0.8 0.3 -0.86 0.81 c -0.06 0.49 0.37 0.97 0.86 0.97 c 0.11 0 0.3 -0.05 0.42 -0.12 m 3.49 0.95 c -0.25 -0.09 -0.45 -0.23 -0.67 -0.47 c -1.08 -1.17 -0.3 -3.07 1.25 -3.07 c 1.03 0 1.77 0.77 1.78 1.84 c 0 1.27 -1.2 2.13 -2.36 1.7 m -2.16 -3.71 c -1.56 -0.5 -1.71 -2.68 -0.24 -3.41 c 0.96 -0.47 2.15 0.07 2.44 1.13 c 0.2 0.71 0.02 1.37 -0.52 1.89 c -0.46 0.44 -1.08 0.59 -1.68 0.39 m 1.04 -0.98 c 0.2 -0.14 0.39 -0.52 0.39 -0.74 c 0 -0.47 -0.38 -0.89 -0.84 -0.94 c -1.02 -0.09 -1.39 1.28 -0.48 1.77 c 0.27 0.14 0.65 0.11 0.92 -0.09 m 7.5 -1.5 c -0.59 -0.11 -1.12 -0.21 -1.16 -0.23 c -0.07 -0.03 -0.09 -0.38 -0.09 -1.84 v -1.8 l 0.15 -0.04 c 0.24 -0.06 1.18 0.14 1.54 0.33 c 0.21 0.11 0.52 0.38 0.87 0.79 c 0.36 0.41 0.6 0.63 0.73 0.65 c 0.41 0.09 0.41 0.14 -0.29 1.68 c -0.35 0.78 -0.18 0.73 -1.75 0.45" style="fill:#fff"/></svg>