<svg xmlns="http://www.w3.org/2000/svg" viewBox="0 0 24 24"><path d="m 23.56 9.3 c -4.63 -22.2 -36.45 1.64 -17.33 12.93 c 7.43 4.84 19.71 -1.5 17.33 -12.93" style="fill:#ffa400"/><path d="m 10.97 5.51 c -1.96 0 -3.55 1.35 -3.55 3.04 v 2.18 h -0.81 v 6.88 h 9.14 v -6.88 h -0.75 v -2.18 c 0 -1.68 -1.58 -3.04 -3.55 -3.04 m -0.35 1.33 h 0.29 c 1.19 0 2.15 1.02 2.15 2.28 v 1.61 h -4.61 v -1.61 c 0 -1.26 0.96 -2.28 2.15 -2.28 m 0.2 5.66 c 0.56 0.02 1 0.41 1 0.89 c 0 0.32 -0.2 0.62 -0.52 0.78 l 0.29 2.13 c -0.52 0.15 -1.05 0.13 -1.55 -0.04 l 0.21 -2.1 c -0.32 -0.16 -0.51 -0.45 -0.51 -0.77 c 0 -0.47 0.43 -0.86 0.98 -0.89 h 0.11" style="fill:#fff;fill-rule:evenodd"/><path d="m 12.49 20.27 c -0.08 -0.04 -0.07 -0.25 0.02 -0.97 l 0.11 -0.93 l 2.62 -3.33 c 4.14 -5.25 4.29 -5.45 4.44 -5.39 c 0.25 0.09 1.14 0.71 1.31 0.91 l 0.18 0.21 l -1.15 1.51 c -1.14 1.5 -4.62 5.9 -5.39 6.82 l -0.41 0.48 l -0.82 0.37 c -0.54 0.25 -0.85 0.35 -0.91 0.32" style="fill:#ff4500"/><path d="m 39.69 231.4 h 3.54 l 0.03 19 h -3.54" transform="matrix(0.053 -0.077 0.071 0.062 0 0)" style="fill:#fff;stroke:#fff;stroke-linecap:round;stroke-width:3.2"/></svg>