<svg xmlns="http://www.w3.org/2000/svg" viewBox="0 0 24 24"><path d="m 23.56 14.73 c -4.63 22.2 -36.45 -1.63 -17.33 -12.93 c 7.43 -4.84 19.71 1.5 17.33 12.93" style="fill:#ff8c00"/><path d="m 11.34 4.99 c -1.97 0 -3.55 1.33 -3.55 2.99 v 2.14 h -0.81 v 6.78 h 9.14 v -6.78 h -0.75 v -2.14 c 0 -1.66 -1.58 -2.99 -3.55 -2.99 m -0.36 1.31 h 0.29 c 1.2 0 2.15 1 2.16 2.24 v 1.58 h -4.6 v -1.58 c 0 -1.24 0.96 -2.24 2.16 -2.24 m 0.2 5.57 c 0.56 0.02 1 0.41 1 0.88 c 0 0.31 -0.2 0.61 -0.52 0.76 l 0.21 2.1 c -0.53 0.14 -0.98 0.12 -1.48 -0.04 l 0.21 -2.07 c -0.31 -0.16 -0.51 -0.45 -0.51 -0.75 c 0 -0.46 0.43 -0.85 0.98 -0.88 h 0.11" style="fill:#fff;fill-rule:evenodd"/><g style="fill:#ff4500;stroke:#ff4500;stroke-linecap:round;stroke-width:1.48"><path d="m -551.8 780.8 l 7.18 -0.01 c 2.44 0.01 4.39 1.84 4.37 4.07 l 0.03 73.7 c -0.02 2.23 -1.98 4.07 -4.37 4.06 l -7.18 0.01 c -2.44 -0.01 -4.39 -1.84 -4.41 -4.12 l 0.01 -73.7 c 0.02 -2.23 1.98 -4.07 4.37 -4.06" transform="matrix(-0.093 0.001 0 0.093 -35.2 -58.81)"/><path d="m 818.1 507.3 l 7.21 0.02 c 2.4 -0.02 4.37 1.81 4.35 4 l 0.04 73.7 c -0.01 2.27 -1.97 4.09 -4.41 4.07 l -7.17 0.03 c -2.4 -0.02 -4.37 -1.85 -4.35 -4.07 l -0.04 -73.7 c 0.01 -2.27 1.97 -4.09 4.37 -4.07" transform="matrix(0 0.093 0.093 -0.001 -35.2 -58.81)"/></g></svg>