<svg xmlns="http://www.w3.org/2000/svg" viewBox="0 0 24 24"><path d="m 12.23 23.87 c -2.48 -0.19 -5.37 -1.37 -7.39 -3 c -2.45 -2 -4.25 -5.06 -4.73 -8.1 c -0.57 -3.99 1.74 -8.28 4.36 -10.31 c 1.31 -0.99 3.05 -1.78 4.69 -2.13 c 4.25 -0.9 8.68 0.8 11.72 4.5 c 1.82 2.21 2.76 4.45 2.99 7.09 c 0.28 3.17 -0.98 6.56 -3.26 8.85 c -2.6 2.16 -5.28 3.32 -8.36 3.1" style="fill:#ff8c00"/><path d="m 11.1 19 c -1.53 -0.23 -2.91 -0.92 -4 -2 c -2.77 -2.77 -2.77 -7.19 0 -9.96 c 1.08 -1.08 2.34 -1.72 3.89 -1.99 c 1.68 -0.29 2.76 0.11 3.35 1.24 c 0.17 0.33 0.2 0.48 0.2 1.01 c 0 0.57 -0.02 0.66 -0.25 1.09 c -0.44 0.82 -1.05 1.17 -2.19 1.27 c -1.11 0.09 -1.79 0.53 -2.19 1.39 c -0.22 0.48 -0.22 1.45 0 1.93 c 0.23 0.49 0.64 0.91 1.12 1.15 c 0.36 0.18 0.51 0.2 1.04 0.2 c 0.54 0 0.69 -0.03 1.04 -0.2 c 0.39 -0.19 0.98 -0.74 1.25 -1.16 c 0.71 2.61 2.73 1.6 4.17 0.05 c 0.55 0.5 -0.59 2.84 -0.97 3.38 c -1.33 1.86 -4.06 2.96 -6.46 2.61" style="fill:#fff"/></svg>