<svg xmlns="http://www.w3.org/2000/svg" viewBox="0 0 24 24"><path d="m 12.23 23.87 c -2.48 -0.19 -5.37 -1.37 -7.39 -3 c -2.45 -2 -4.25 -5.06 -4.73 -8.1 c -0.57 -3.99 1.74 -8.28 4.36 -10.31 c 1.31 -0.99 3.05 -1.78 4.69 -2.13 c 4.25 -0.9 8.68 0.8 11.72 4.5 c 1.82 2.21 2.76 4.45 2.99 7.09 c 0.28 3.17 -0.98 6.56 -3.26 8.85 c -2.6 2.16 -5.28 3.32 -8.36 3.1" style="fill:#ff8c00"/><path d="m 18.9 10.5 c 0.3 1.51 0.11 3.05 -0.56 4.45 c -1.68 3.53 -5.85 5 -9.38 3.33 c -1.38 -0.66 -2.4 -1.63 -3.18 -3 c -0.84 -1.48 -0.82 -2.64 0.05 -3.57 c 0.25 -0.27 0.38 -0.35 0.89 -0.53 c 0.54 -0.19 0.63 -0.2 1.11 -0.13 c 0.92 0.14 1.45 0.6 1.93 1.64 c 0.46 1.02 1.1 1.52 2.04 1.6 c 0.53 0.05 1.44 -0.28 1.82 -0.64 c 0.38 -0.38 0.64 -0.91 0.71 -1.44 c 0.05 -0.39 0.02 -0.55 -0.16 -1.05 c -0.18 -0.5 -0.26 -0.64 -0.54 -0.91 c -0.31 -0.3 -1.03 -0.68 -1.51 -0.8 c 2.22 -1.54 0.6 -3.11 -1.35 -3.95 c 0.29 -0.68 2.88 -0.39 3.51 -0.21 c 2.2 0.63 4.15 2.84 4.62 5.22" style="fill:#fff"/></svg>