<svg xmlns="http://www.w3.org/2000/svg" viewBox="0 0 24 24"><path d="m 12.23 23.87 c -2.48 -0.19 -5.37 -1.37 -7.39 -3 c -2.45 -2 -4.25 -5.06 -4.73 -8.1 c -0.57 -3.99 1.74 -8.28 4.36 -10.31 c 1.31 -0.99 3.05 -1.78 4.69 -2.13 c 4.25 -0.9 8.68 0.8 11.72 4.5 c 1.82 2.21 2.76 4.45 2.99 7.09 c 0.28 3.17 -0.98 6.56 -3.26 8.85 c -2.6 2.16 -5.28 3.32 -8.36 3.1" style="fill:#ff8c00"/><path d="m 5.1 13.53 c -0.3 -1.51 -0.12 -3.05 0.54 -4.45 c 1.67 -3.54 5.83 -5 9.37 -3.37 c 1.38 0.65 2.41 1.62 3.19 2.99 c 0.84 1.48 0.83 2.63 -0.04 3.57 c -0.25 0.27 -0.38 0.35 -0.88 0.53 c -0.54 0.2 -0.63 0.21 -1.11 0.14 c -0.92 -0.14 -1.45 -0.59 -1.93 -1.63 c -0.47 -1.01 -1.11 -1.51 -2.05 -1.59 c -0.53 -0.05 -1.44 0.28 -1.82 0.65 c -0.38 0.38 -0.64 0.91 -0.7 1.44 c -0.04 0.39 -0.02 0.55 0.16 1.05 c 0.18 0.5 0.26 0.64 0.54 0.91 c 0.31 0.3 1.03 0.68 1.51 0.79 c -2.21 1.55 -0.58 3.11 1.37 3.95 c -0.29 0.68 -2.88 0.4 -3.5 0.22 c -2.2 -0.62 -4.16 -2.82 -4.64 -5.2" style="fill:#fff"/></svg>