<svg xmlns="http://www.w3.org/2000/svg" viewBox="0 0 24 24"><path d="m 12.23 23.87 c -2.48 -0.19 -5.37 -1.37 -7.39 -3 c -2.45 -2 -4.25 -5.06 -4.73 -8.1 c -0.57 -3.99 1.74 -8.28 4.36 -10.31 c 1.31 -0.99 3.05 -1.78 4.69 -2.13 c 4.25 -0.9 8.68 0.8 11.72 4.5 c 1.82 2.21 2.76 4.45 2.99 7.09 c 0.28 3.17 -0.98 6.56 -3.26 8.85 c -2.6 2.16 -5.28 3.32 -8.36 3.1" style="fill:#ff8c00"/><path d="m 8.56 5.88 c 1.36 -0.73 2.89 -0.99 4.42 -0.77 c 3.87 0.58 6.5 4.13 5.93 8 c -0.22 1.51 -0.85 2.77 -1.94 3.92 c -1.18 1.23 -2.29 1.55 -3.43 0.99 c -0.33 -0.16 -0.44 -0.27 -0.76 -0.69 c -0.34 -0.46 -0.38 -0.55 -0.45 -1.03 c -0.13 -0.92 0.14 -1.56 1 -2.32 c 0.84 -0.74 1.13 -1.49 0.93 -2.42 c -0.11 -0.52 -0.69 -1.3 -1.15 -1.55 c -0.47 -0.26 -1.05 -0.36 -1.58 -0.26 c -0.39 0.07 -0.53 0.14 -0.96 0.45 c -0.43 0.32 -0.54 0.43 -0.71 0.79 c -0.2 0.38 -0.35 1.18 -0.32 1.68 c -2.12 -1.68 -3.15 0.34 -3.38 2.45 c -0.74 -0.08 -1.21 -2.64 -1.23 -3.29 c -0.04 -2.29 1.5 -4.8 3.64 -5.95" style="fill:#fff"/></svg>