<svg xmlns="http://www.w3.org/2000/svg" viewBox="0 0 24 24"><path d="m 12.23 23.87 c -2.48 -0.19 -5.37 -1.37 -7.39 -3 c -2.45 -2 -4.25 -5.06 -4.73 -8.1 c -0.57 -3.99 1.74 -8.28 4.36 -10.31 c 1.31 -0.99 3.05 -1.78 4.69 -2.13 c 4.25 -0.9 8.68 0.8 11.72 4.5 c 1.82 2.21 2.76 4.45 2.99 7.09 c 0.28 3.17 -0.98 6.56 -3.26 8.85 c -2.6 2.16 -5.28 3.32 -8.36 3.1" style="fill:#ff8c00"/><path d="m 16.72 6.79 c 1.13 1.05 1.88 2.41 2.16 3.93 c 0.7 3.85 -1.81 7.49 -5.66 8.2 c -1.5 0.28 -2.9 0.09 -4.34 -0.57 c -1.55 -0.71 -2.21 -1.66 -2.05 -2.93 c 0.05 -0.37 0.11 -0.51 0.41 -0.95 c 0.32 -0.47 0.39 -0.54 0.82 -0.75 c 0.83 -0.43 1.53 -0.37 2.52 0.2 c 0.97 0.55 1.78 0.58 2.59 0.1 c 0.45 -0.27 1 -1.07 1.1 -1.59 c 0.09 -0.53 -0.01 -1.11 -0.27 -1.58 c -0.2 -0.35 -0.3 -0.46 -0.74 -0.76 c -0.44 -0.3 -0.58 -0.37 -0.97 -0.42 c -0.43 -0.07 -1.23 0.05 -1.69 0.24 c 0.9 -2.55 -1.34 -2.87 -3.41 -2.41 c -0.16 -0.73 2.1 -2 2.72 -2.23 c 2.15 -0.78 5 -0.14 6.8 1.52" style="fill:#fff"/></svg>