<svg xmlns="http://www.w3.org/2000/svg" viewBox="0 0 24 24"><path d="m 12.23 23.87 c -2.48 -0.19 -5.37 -1.37 -7.39 -3 c -2.45 -2 -4.25 -5.06 -4.73 -8.1 c -0.57 -3.99 1.74 -8.28 4.36 -10.31 c 1.31 -0.99 3.05 -1.78 4.69 -2.13 c 4.25 -0.9 8.68 0.8 11.72 4.5 c 1.82 2.21 2.76 4.45 2.99 7.09 c 0.28 3.17 -0.98 6.56 -3.26 8.85 c -2.6 2.16 -5.28 3.32 -8.36 3.1" style="fill:#ff8c00"/><path d="m 7.35 17.34 c -1.15 -1.03 -1.92 -2.38 -2.23 -3.89 c -0.78 -3.84 1.67 -7.52 5.5 -8.3 c 1.49 -0.3 2.89 -0.14 4.34 0.49 c 1.56 0.68 2.24 1.62 2.1 2.89 c -0.04 0.37 -0.09 0.51 -0.39 0.95 c -0.32 0.48 -0.38 0.54 -0.81 0.77 c -0.82 0.44 -1.52 0.4 -2.52 -0.15 c -0.98 -0.54 -1.79 -0.55 -2.59 -0.05 c -0.45 0.28 -0.99 1.09 -1.07 1.61 c -0.08 0.53 0.03 1.11 0.3 1.58 c 0.2 0.34 0.31 0.45 0.75 0.75 c 0.45 0.29 0.59 0.36 0.98 0.41 c 0.43 0.05 1.23 -0.07 1.68 -0.27 c -0.85 2.56 1.39 2.84 3.45 2.34 c 0.18 0.72 -2.07 2.04 -2.68 2.28 c -2.14 0.82 -5 0.23 -6.83 -1.4" style="fill:#fff"/></svg>