<svg xmlns="http://www.w3.org/2000/svg" viewBox="0 0 24 24"><path d="m 3.04 17.87 c -8.49 -9.59 4.07 -19.74 11.44 -17.24 c 7.36 2.49 12.3 9.54 7.5 15.71 c -4.8 6.18 -9.53 12.1 -18 2.54" style="fill:#ff8c00"/><g transform="matrix(0.085 0 0 -0.089 1.07 24.32)" style="fill:#fff;stroke:#fff"><path d="m 101 233.5 c -5 -2.28 -7.38 -5.53 -6.33 -8.82 c 0.37 -1.14 5.46 -7.28 11.32 -13.56 c 15.54 -16.63 18.89 -24.31 10.64 -24.35 c -6 -0.04 -8.21 -1.1 -9.44 -4.61 c -0.69 -2.06 -1.15 -15.53 -1.15 -35.45 c 0 -27.33 0.28 -32.51 1.7 -34.53 c 1.6 -2.33 2.34 -2.41 19.35 -2.41 h 17.65 l 1.28 2.76 c 0.87 1.89 1.24 13.29 1.24 36.81 v 34.1 l -2.43 1.36 c -1.33 0.7 -4.35 1.58 -6.74 1.93 c -4.54 0.61 -4.58 0.7 -9.17 10.88 c -1.19 2.72 -6.37 9.61 -11.46 15.36 c -5.09 5.75 -9.26 11 -9.26 11.67 c 0 1.45 2.98 1.49 16.27 0.09 c 9.26 -1 10.45 -0.92 11.69 0.75 c 1.97 2.68 1.65 6.62 -0.55 7.28 c -10.64 3.25 -28.33 3.6 -34.61 0.75" style="stroke-width:2.28"/><g style="stroke-width:1.51"><path d="m 117.4 49.59 c -0.83 -2.11 0.18 -8.86 1.51 -10.35 c 1.15 -1.27 2.2 -1.45 7.98 -1.45 c 6.33 0 6.69 0.09 8.11 1.89 c 1.7 2.15 2.11 8.69 0.64 10.13 c -0.6 0.61 -3.71 0.88 -9.35 0.88 c -6.97 0 -8.57 -0.18 -8.89 -1.1"/><path d="m 120.3 71.8 c -0.78 -0.22 -1.83 -0.75 -2.34 -1.14 c -1.05 -0.88 -1.19 -8.99 -0.18 -10.57 c 0.83 -1.36 13.66 -1.97 16.69 -0.79 c 1.88 0.7 1.97 0.97 1.97 5.7 c 0 3.64 -0.32 5.18 -1.15 5.88 c -1.19 0.97 -12.29 1.62 -14.99 0.92"/><path d="m 121.8 92.5 c -1.56 -0.13 -3.25 -0.83 -3.76 -1.45 c -1.15 -1.54 -1.19 -9.65 -0.05 -10.79 c 0.55 -0.57 3.62 -0.88 8.94 -0.88 c 7.24 0 8.16 0.13 8.8 1.4 c 1.05 1.93 0.96 8.82 -0.14 10.22 c -0.96 1.23 -8.53 2.06 -13.8 1.49"/><path d="m 119.4 102.3 c -0.87 -0.35 -1.6 -0.92 -1.6 -1.32 c 0 -1.18 2.15 -1.54 9.31 -1.54 c 5.32 0 7.24 0.26 7.88 1.1 c 0.73 0.88 0.55 1.18 -1 1.8 c -2.38 0.88 -12.33 0.88 -14.58 -0.04"/></g></g></svg>