<svg xmlns="http://www.w3.org/2000/svg" viewBox="0 0 24 24"><path d="m 6.32 22.9 c -11.34 -4.73 -6.28 -23 6.07 -22.9 c 11.22 -0.18 15.48 14.36 7.48 20.74 c -3.46 3.19 -9.18 4.3 -13.55 2.16" style="fill:#ff8c00"/><path d="m 19.1 16.23 c -0.61 -0.49 -1.65 -0.95 -1.73 -1.21 c -0.01 -0.63 0.03 -0.64 0.09 -0.91 c 0.31 0.01 0.5 0.03 1.33 0.23 c 0.89 0.25 0.96 -0.17 0.82 1.17 c -0.2 0.66 0.01 1.04 -0.51 0.72" style="fill:#fff"/><path d="m 13.63 9.13 c 0 0.74 -1.11 1.34 -2.47 1.34 c -1.36 0 -2.47 -0.6 -2.47 -1.34 c 0 -0.74 1.11 -1.34 2.47 -1.34 c 1.36 0 2.47 0.6 2.47 1.34" style="fill:#ffe4c3"/><g style="fill:#fff"><path d="m 10.25 16.54 c -1.13 -0.27 -1.65 -0.45 -2.12 -0.75 c -0.83 -0.53 -1.23 -1 -1.5 -1.72 l -0.23 -0.63 l 0.21 -1.12 c 0.12 -0.62 0.35 -1.74 0.52 -2.49 c 0.13 -0.84 0.2 -1.26 0.73 -1.83 c 0.7 -0.74 1.72 -1.2 2.98 -1.32 c 0.99 -0.01 1.72 0.2 2.64 0.68 c 0.43 0.22 0.68 0.29 1.21 0.32 c 0.55 0.04 0.86 -0.06 0.86 0.05 c 0.03 1.56 0 3.62 0.18 4.51 c 0.11 0.58 0.18 1.14 0.16 1.24 c -0.14 0.53 -0.56 1.33 -0.87 1.68 c -0.9 1.02 -3.32 1.71 -4.77 1.37 m 2.63 -6.09 c 0.57 -0.24 1.06 -0.7 1.19 -1.11 c 0.18 -0.6 -0.31 -1.27 -1.19 -1.64 c -0.59 -0.25 -1.98 -0.34 -2.73 -0.18 c -2.37 0.5 -2.48 2.43 -0.19 3.07 c 0.97 0.11 2.06 0.21 2.92 -0.14"/><path d="m 4.83 14.75 c -0.14 -0.1 -0.23 -0.42 -0.36 -1.24 c -0.05 -2.68 0.73 -3.16 2.62 -4.28 c -0.18 0.48 -0.27 0.96 -0.34 1.47 c -1.5 0.86 -1.7 1.25 -1.71 2.69 c -0.01 1.08 -0.07 1.45 -0.21 1.35"/><path d="m 17.5 13.8 c -0.27 -1.66 -0.42 -2.23 -1.67 -2.86 c 0.08 -0.63 0 -0.99 -0.05 -1.9 c 1.72 0.39 3.5 1.9 3.75 4.27 c 0.02 0.3 0.27 0.85 0 0.91 c -0.95 -0.2 -1.17 -0.3 -2.02 -0.42"/></g></svg>