<svg xmlns="http://www.w3.org/2000/svg" viewBox="0 0 24 24"><path d="m 10.13 23.67 c 3.24 -0.53 7.47 -2.86 10.1 -5.55 c 2.07 -2.13 3.11 -3.98 3.5 -6.21 c 0.54 -3.12 -0.6 -5.62 -3.61 -7.88 c -3.53 -2.53 -8.61 -4.92 -12.41 -3.52 c -1.5 0.56 -2.52 1.21 -3.57 2.28 c -2.13 2.18 -3.47 5.31 -3.8 8.93 c -0.19 2.05 -0.06 3.66 0.46 5.58 c 0.89 3.24 2.77 5.38 5.46 6.23 c 0.85 0.27 2.71 0.34 3.9 0.14" style="fill:#fd8b01"/><g style="stroke:#fff"><g transform="matrix(0.028 0.249 -0.295 0.024 161.2 -95.4)" style="fill:#fff;fill-rule:evenodd"><path d="m 358.4 518.1 l 4.92 -3.92 l 45.94 41.2 l -5.08 3.12" style="stroke-miterlimit:2"/><path d="m 402.5 554.5 c -8.1 -7 5.38 -2.67 12.91 10.48 c -14.33 -8.31 -11.21 -9 -12.91 -10.48"/></g><path d="m 6.56 44.5 c 0 0 -8.61 -21.29 -0.61 -30.59 c 6.65 -7.72 11.5 11.25 16.22 2.2 c 1.76 -3.41 0.11 -11.23 -11.34 -15.22" transform="matrix(0.334 0 0 0.345 4.07 6.26)" style="fill:#ffdeac"/></g></svg>