<svg xmlns="http://www.w3.org/2000/svg" viewBox="0 0 24 24"><path d="m 14.8 23.48 c 22.49 -6.09 -1.66 -36.82 -13.1 -16.74 c -4.9 7.82 1.52 19.88 13.1 16.74" style="fill:#ff8c00"/><g style="fill:#fff"><path d="m 11.97 17.55 c -1.56 -1.08 -1.77 -1 -4.09 -1.12 c -3.55 -0.19 -3.14 -1.19 0.54 -1.19 c 1.23 0 1.89 0.06 3.08 -0.68 c 0.75 -0.46 1.54 -1 1.75 -1.18 c 0.52 -0.46 1.09 -0.2 1.07 0.51 c -0.04 1.69 0.34 0.9 1.54 0.01 c 0.62 -0.46 1.22 -0.77 1.35 -0.69 c 0.5 0.32 0.48 0.95 -0.36 1.64 l -1.34 1.11 l 1 0.84 c 0.88 0.73 0.92 0.76 0.92 1.21 c 0 0.82 -0.37 0.81 -1.53 -0.06 c -1.15 -0.86 -1.71 -1.89 -1.63 -0.06 c 0.01 0.35 -0.22 0.66 -0.41 0.69 c -0.18 0.03 -1.04 -0.44 -1.89 -1.04"/><path d="m 7.55 11.16 c -1.14 -0.73 -2.07 -1.44 -2.07 -1.57 c 0 -0.13 0.93 -0.84 2.06 -1.57 c 2.05 -1.33 2.74 -1.46 2.49 -0.47 c -0.05 0.23 0 0.7 0.13 1.04 c 0.18 0.62 2.45 0.56 3.61 0.52 c 4.51 -0.15 4.56 1.36 0.09 1.18 c -2.04 -0.08 -3.43 0.04 -3.61 0.2 c -0.2 0.17 -0.25 0.25 -0.17 0.74 c 0.25 1.41 -0.25 1.4 -2.53 -0.07"/></g></svg>