<svg xmlns="http://www.w3.org/2000/svg" viewBox="0 0 24 24"><path d="m 11 23.83 c 14.26 1.36 18.1 -21.63 3.46 -23.41 c -13.46 -2.21 -20.39 18.63 -7 22.79 c 1.14 0.46 2.37 0.45 3.56 0.62" style="fill:#ff8c00"/><g style="fill:#fff"><path d="m 8.27 6.35 c -0.29 0.12 -0.48 0.33 -0.81 0.86 c -0.43 0.53 -0.27 1.2 -0.27 1.84 c 0 0.79 0.04 1.5 0.08 1.61 c 0.12 0.3 0.75 1.02 1.01 1.14 c 0.34 0.16 1.08 0.15 1.42 -0.02 c 0.31 -0.16 0.64 -0.53 0.8 -0.9 c 0.16 -0.37 0.16 -3.21 -0.01 -3.58 c -0.18 -0.42 -0.54 -0.8 -0.86 -0.93 c -0.35 -0.14 -1.06 -0.14 -1.37 -0.01 m 1.12 1.22 c 0.13 0.09 0.14 0.21 0.17 1.46 c 0.02 0.89 -0.01 1.41 -0.06 1.51 c -0.07 0.12 -0.16 0.14 -0.49 0.14 c -0.53 0 -0.61 -0.11 -0.68 -1 c -0.07 -0.97 0.02 -1.9 0.2 -2.08 c 0.17 -0.16 0.64 -0.18 0.85 -0.04 m 2.82 -1.18 c -0.33 0.15 -0.63 0.49 -0.81 0.9 c -0.09 0.21 -0.12 0.57 -0.11 1.78 c 0 1.73 0.02 1.82 0.61 2.44 c 0.33 0.36 0.34 0.36 0.86 0.39 c 0.69 0.04 0.99 -0.07 1.36 -0.47 c 0.47 -0.52 0.54 -0.84 0.51 -2.51 c -0.02 -1.28 -0.04 -1.43 -0.19 -1.7 c -0.24 -0.43 -0.54 -0.75 -0.81 -0.86 c -0.35 -0.14 -1.05 -0.12 -1.4 0.04 m 1.14 1.22 c 0.11 0.1 0.16 0.29 0.2 0.76 c 0.06 0.73 -0.02 2.11 -0.13 2.23 c -1.54 0.6 -1.54 -2.57 -0.92 -3 c 0.21 -0.15 0.68 -0.13 0.85 0.04 m 2.91 -1.27 c -0.26 0.1 -0.65 0.48 -0.84 0.82 c -0.15 0.26 -0.16 0.41 -0.19 1.8 c -0.02 1.69 0.01 1.84 0.52 2.46 c 0.32 0.39 0.55 0.5 1.09 0.5 c 0.57 0 0.79 -0.08 1.19 -0.45 c 0.57 -0.52 0.6 -0.66 0.6 -2.38 c 0 -1.32 -0.02 -1.54 -0.14 -1.79 c -0.16 -0.34 -0.7 -0.86 -1 -0.96 c -0.26 -0.09 -0.99 -0.09 -1.24 0 m 1.09 1.29 c 0.13 0.13 0.14 0.29 0.16 1.41 c 0.03 1.54 0 1.61 -0.55 1.64 c -0.3 0.02 -0.4 0 -0.52 -0.13 c -0.13 -0.14 -0.14 -0.27 -0.14 -1.46 c 0 -1.19 0.01 -1.32 0.14 -1.46 c 0.2 -0.21 0.71 -0.21 0.91 0 m -10.64 5.61 c -0.3 0.13 -0.82 0.66 -0.96 0.99 c -0.09 0.21 -0.11 0.57 -0.11 1.74 c 0 1.65 0 1.66 0.55 2.28 c 0.4 0.45 0.61 0.55 1.15 0.55 c 0.57 0 0.79 -0.08 1.19 -0.45 c 0.57 -0.52 0.6 -0.66 0.6 -2.38 c 0 -1.32 -0.02 -1.54 -0.14 -1.79 c -0.16 -0.34 -0.7 -0.85 -1 -0.96 c -0.29 -0.11 -1.01 -0.09 -1.28 0.03 m 1.12 1.27 c 0.13 0.13 0.14 0.29 0.16 1.41 c 0.02 1.54 0 1.61 -0.55 1.64 c -0.3 0.02 -0.4 -0.01 -0.52 -0.13 c -0.2 -0.48 -0.28 -2.62 0 -2.93 c 0.2 -0.21 0.71 -0.21 0.91 0"/><path d="m 5.97 11.87 c -0.16 -0.07 -0.3 -0.3 -0.3 -0.52 c 0 -0.25 0.21 -0.44 0.5 -0.44 c 0.27 0 0.39 0.06 0.47 0.26 c 0.08 0.18 0.01 0.46 -0.14 0.6 c -0.12 0.11 -0.38 0.15 -0.53 0.09"/><path d="m 16.74 14.63 c 0 0 -0.02 1.42 0 1.47 c -0.05 0.39 -0.57 0.18 -1.6 0.3 c -0.58 -0.02 -2 -0.03 -2.68 -0.02 c -1.7 0.67 -0.86 0.85 1.99 0.91 h 2.89 l 0.13 -0.07 c 0.18 -0.11 0.21 -0.18 0.23 -0.6 c 0.02 -0.36 0 -1.66 0.02 -2.15 c -0.49 -0.31 -0.71 -0.36 -0.98 0.18"/><path d="m 12 18.46 c -0.23 -0.1 -0.49 -0.33 -1.22 -1.05 c -0.48 -0.46 -0.51 -0.51 -0.51 -0.72 c 0 -0.21 0.03 -0.29 0.17 -0.43 c 0.25 -0.26 1.21 -1.04 1.52 -1.23 c 0.34 -0.19 0.46 0.26 0.52 0.46 c 0.07 0.23 0.07 0.23 0.07 1.39 c 0 1.04 0 1.18 -0.04 1.29 c -0.1 0.26 -0.3 0.39 -0.51 0.29"/></g></svg>