<svg xmlns="http://www.w3.org/2000/svg" viewBox="0 0 24 24"><g style="fill:#ff8c00"><path d="M 19.894531 19.90625 C 10.058594 32.082031 -7.679688 14.25 3.65625 3.480469 C 13.414062 -7.320312 32.34375 9.535156 19.894531 19.90625 "/><path d="M 59.375 64.208333 L 191.375 64.208333 L 191.375 191.625 L 59.375 191.625 Z M 59.375 64.208333 " transform="scale(0.094)" style="stroke-dasharray:8.199 16.398;stroke-miterlimit:1.3;stroke:#fff;stroke-linecap:round;stroke-width:8.2"/></g><g style="fill:#fff"><path d="M 15.21875 11.945312 C 14.96875 11.875 14.746094 11.730469 14.53125 11.496094 C 13.800781 10.707031 13.648438 9.238281 14.179688 8.132812 C 14.363281 7.757812 14.695312 7.40625 15.023438 7.25 C 15.21875 7.152344 15.273438 7.144531 15.597656 7.144531 C 15.921875 7.144531 15.980469 7.152344 16.164062 7.246094 C 16.277344 7.300781 16.441406 7.414062 16.53125 7.5 C 16.691406 7.65625 16.953125 8.015625 16.949219 8.078125 C 16.949219 8.101562 16.808594 8.269531 16.632812 8.453125 L 16.320312 8.789062 L 16.203125 8.632812 C 16.035156 8.410156 15.863281 8.304688 15.636719 8.285156 C 15.300781 8.257812 15.054688 8.457031 14.878906 8.890625 C 14.792969 9.105469 14.761719 9.726562 14.824219 10.003906 C 14.96875 10.667969 15.441406 10.988281 15.90625 10.746094 C 16.003906 10.699219 16.226562 10.46875 16.296875 10.347656 C 16.332031 10.285156 16.367188 10.3125 16.660156 10.605469 C 16.839844 10.78125 16.988281 10.941406 16.988281 10.957031 C 16.988281 11.027344 16.679688 11.460938 16.53125 11.59375 C 16.1875 11.914062 15.632812 12.0625 15.21875 11.945312 Z M 15.21875 11.945312 "/><path d="M 6.421875 11.859375 C 6.421875 11.84375 6.734375 10.785156 7.117188 9.503906 L 7.8125 7.179688 L 8.671875 7.179688 L 9.347656 9.449219 C 9.71875 10.699219 10.03125 11.757812 10.042969 11.804688 L 10.066406 11.886719 L 9.589844 11.875 L 9.113281 11.867188 L 9.003906 11.46875 L 8.890625 11.074219 L 7.5625 11.074219 L 7.453125 11.480469 L 7.34375 11.882812 L 6.882812 11.882812 C 6.628906 11.882812 6.421875 11.871094 6.421875 11.859375 Z M 8.621094 10.0625 C 8.621094 10.050781 8.539062 9.75 8.441406 9.394531 C 8.34375 9.035156 8.261719 8.734375 8.261719 8.71875 C 8.261719 8.707031 8.246094 8.710938 8.226562 8.730469 C 8.210938 8.75 8.117188 9.039062 8.027344 9.378906 C 7.933594 9.714844 7.847656 10.011719 7.839844 10.035156 C 7.824219 10.070312 7.910156 10.082031 8.222656 10.082031 C 8.441406 10.082031 8.621094 10.074219 8.621094 10.0625 Z M 8.621094 10.0625 "/><path d="M 10.53125 9.503906 L 10.53125 7.15625 L 11.53125 7.167969 C 12.390625 7.179688 12.554688 7.191406 12.675781 7.242188 C 12.902344 7.34375 13.050781 7.476562 13.164062 7.675781 C 13.453125 8.183594 13.363281 8.9375 12.964844 9.277344 L 12.820312 9.402344 L 12.914062 9.460938 C 13.113281 9.589844 13.335938 9.859375 13.402344 10.050781 C 13.5 10.335938 13.492188 10.859375 13.382812 11.140625 C 13.285156 11.394531 13.054688 11.640625 12.8125 11.753906 C 12.652344 11.824219 12.582031 11.832031 11.585938 11.839844 L 10.53125 11.851562 Z M 12.46875 10.722656 C 12.546875 10.644531 12.566406 10.585938 12.582031 10.414062 C 12.59375 10.214844 12.585938 10.191406 12.488281 10.078125 L 12.378906 9.957031 L 11.886719 9.945312 L 11.398438 9.933594 L 11.398438 10.84375 L 11.882812 10.832031 C 12.355469 10.820312 12.371094 10.816406 12.46875 10.722656 Z M 12.117188 9.039062 C 12.347656 8.992188 12.445312 8.871094 12.445312 8.617188 C 12.445312 8.445312 12.429688 8.402344 12.339844 8.3125 C 12.234375 8.207031 12.230469 8.207031 11.816406 8.207031 L 11.398438 8.207031 L 11.398438 8.617188 C 11.398438 8.839844 11.410156 9.035156 11.421875 9.046875 C 11.457031 9.082031 11.925781 9.074219 12.117188 9.039062 Z M 12.117188 9.039062 "/><path d="M 6.671875 13.578125 L 10.3125 13.578125 L 10.3125 14.625 L 6.671875 14.625 Z M 6.671875 13.578125 "/><path d="M 10.382812 17.203125 C 10.074219 16.648438 10.121094 16.140625 10.601562 15.496094 C 11.1875 15.332031 11.855469 16.375 12.015625 16.574219 C 12.34375 16.992188 12.464844 17.105469 12.644531 17.164062 C 12.914062 17.179688 12.796875 16.113281 13 15.03125 C 12.972656 14.304688 12.351562 12.300781 13.746094 12.179688 C 14.734375 11.582031 14.941406 14.78125 14.910156 15.355469 C 15.097656 15.8125 14.890625 16.21875 15.691406 15.675781 C 16.226562 15.3125 16.582031 15.363281 16.945312 15.679688 C 17.054688 15.773438 17.308594 16.082031 17.789062 15.925781 C 18.667969 15.632812 18.921875 16.113281 18.875 16.777344 C 18.835938 17.316406 18.503906 19.484375 18.324219 19.828125 C 18.183594 20.089844 17.765625 21.320312 16.183594 21.496094 C 15.160156 21.609375 15.613281 22 13.917969 21.914062 C 12.773438 21.238281 12.539062 20.824219 11.96875 19.359375 C 11.3125 18.757812 10.75 17.828125 10.382812 17.203125 Z M 10.382812 17.203125 "/></g></svg>