<svg xmlns="http://www.w3.org/2000/svg" viewBox="0 0 24 24"><path d="m 11.72 23.87 c 2.45 -0.19 5.31 -1.37 7.3 -3 c 2.43 -1.99 4.21 -5 4.68 -8.1 c 0.57 -3.98 -1.72 -8.25 -4.31 -10.28 c -1.3 -0.99 -3 -1.77 -4.63 -2.12 c -4.2 -0.9 -8.58 0.8 -11.59 4.48 c -1.8 2.21 -2.73 4.43 -2.96 7.1 c -0.27 3.16 0.96 6.54 3.22 8.82 c 2.57 2.15 5.22 3.31 8.27 3.09" style="fill:#ff8c00"/><path d="m 6.11 9.48 l 11.52 -3.78 v 8.48 l -11.52 3.78" style="fill:#fff"/><path d="m 17.96 15.1 c 0 2.13 -1.72 3.84 -3.84 3.84 c -2.13 0 -3.84 -1.72 -3.84 -3.84 c 0 -2.12 1.72 -3.84 3.84 -3.84 c 2.12 0 3.84 1.72 3.84 3.84" style="fill:#ff8c00"/><path d="m 17.42 15.18 c 0 1.82 -1.46 3.3 -3.25 3.3 c -1.8 0 -3.25 -1.48 -3.25 -3.3 c 0 -1.82 1.45 -3.29 3.25 -3.29 c 1.8 0 3.25 1.47 3.25 3.29" style="fill:#fff"/></svg>