<svg xmlns="http://www.w3.org/2000/svg" viewBox="0 0 24 24"><path d="m 18.36 2.56 c -12.27 -8.59 -24.71 7.28 -14.71 17.4 c 9.42 9.54 24.1 0.7 19.49 -11.18 c -0.96 -2.48 -2.52 -4.65 -4.78 -6.23" style="fill:#ff8c00"/><path d="m 9.2 18.65 c -1.57 -0.77 -2.91 -1.91 -3.85 -3.29 c -1 -1.84 -1.3 -4.45 -0.54 -5.91 c 0.8 -1.52 1.94 -2.61 3.4 -3.25 c 1.47 -0.65 3.59 -0.76 3.89 -0.2 c 0.27 0.49 0.12 0.59 -1.15 0.74 c -6.22 0.73 -7.16 7.93 -1.4 10.74 c 2.06 0.91 4.65 0.97 6.23 0.09 c 1.52 -0.86 2.57 -2.31 2.75 -3.77 c 0.11 -0.93 0.24 -1.2 0.57 -1.14 c 0.66 0.11 0.91 1.8 0.42 2.89 c -0.47 1.04 -2 2.58 -3.31 3.29 c -2 0.79 -5.2 0.7 -7 -0.18" style="fill:#fff"/></svg>