<svg xmlns="http://www.w3.org/2000/svg" viewBox="0 0 24 24"><path d="m 9.31 23.65 c -22.4 -4.68 1.65 -36.86 13 -17.52 c 4.88 7.5 -1.51 19.93 -13 17.52" style="fill:#ff8c00"/><g style="fill:#fff"><path d="m 9.13 17.9 c -0.38 -0.85 -0.51 -0.69 -1.95 -0.77 c -2.52 -0.39 -3.61 -2.23 -2.94 -4.58 c 0.5 -1.7 1.29 -2.57 3.09 -3.51 c 1.21 -0.64 1.88 -0.68 2.16 -0.41 c 0.27 0.28 0.17 0.49 -0.49 1.03 c -1.83 1.25 -3.12 1.19 -3.41 3.47 c -0.06 1.7 0.15 2.58 1.99 2.58 c 1.37 0 1.52 -0.06 1.68 -0.71 c 0.24 -0.95 0.55 -0.89 1.93 0.4 l 1.18 1.1 l -1.26 1.15 c -0.69 0.63 -1.33 1.15 -1.41 1.15 c -0.09 0 -0.34 -0.41 -0.56 -0.91"/><path d="m 11.5 10.91 c -0.12 -0.18 0.37 -1.13 1.07 -2.1 c 1.31 -1.82 1.31 -2.2 -0.01 -2.37 c -0.43 -0.05 -1.11 0.44 -1.16 -0.3 c -0.07 -0.97 0.85 -0.71 2.27 -0.77 c 1.66 -0.08 1.89 -0.02 2.07 0.52 c 0.14 0.43 -0.11 1.04 -0.89 2.09 c -0.6 0.82 -1.02 1.59 -0.94 1.73 c 0.09 0.13 0.58 0.32 1.09 0.43 c 0.57 0.11 0.83 0.32 0.82 0.55 c -0.07 0.93 -4 0.68 -4.32 0.22"/><path d="m 17.82 18.37 c -1.36 -1.67 -1.56 -1.78 -2.32 -0.63 c -0.77 1.15 -1.67 1.04 -1.67 0.59 c 0 -0.35 -0.32 -0.92 1.61 -4.67 c 0.23 -0.45 0.59 -0.84 0.79 -0.84 c 0.51 0 1.49 0.78 1.73 1.7 c 0.11 0.41 0.4 1.34 0.65 1.95 c 0.32 0.8 0.47 1.67 0.09 1.99 c -0.48 0.28 -0.63 0.2 -0.87 -0.09 m -0.62 -2.5 c 0 -0.41 -0.75 -1.44 -0.75 -1.44 c -0.67 0.96 -0.66 0.87 -0.74 1.45 c -0.07 0.46 1.48 0.29 1.48 0"/></g></svg>