<svg xmlns="http://www.w3.org/2000/svg" viewBox="0 0 24 24"><path d="m 11.32 23.87 c 2.48 -0.19 5.41 -1.37 7.48 -3 c 2.52 -2 4.42 -5.06 4.99 -8.1 c 0.7 -3.99 -1.48 -8.28 -4 -10.31 c -1.28 -0.99 -3 -1.78 -4.62 -2.13 c -4.22 -0.9 -8.71 0.8 -11.86 4.5 c -1.89 2.21 -2.9 4.45 -3.21 7.09 c -0.37 3.17 0.77 6.56 2.98 8.85 c 2.54 2.16 5.18 3.32 8.27 3.1" style="fill:#ff8c00"/><path d="m 6.32 13.86 v -4 c 3.73 -0.02 6.76 -0.98 10.91 -3.55 c 0.03 -0.01 0.04 0.8 0.04 3.98 v 4 c -3.73 2.79 -6.95 3.36 -10.88 3.54 l -0.07 0.02" style="fill:#fff"/></svg>