<svg xmlns="http://www.w3.org/2000/svg" viewBox="0 0 24 24"><path d="m 21.39 7.88 c 1.14 1.46 2.27 4.21 2.41 5.85 c 0.21 2.36 -0.61 5.08 -2 6.7 c -1.88 2.17 -5.66 3.59 -9.44 3.53 c -2.71 -0.04 -6.34 -0.88 -8.19 -1.9 c -1.58 -0.87 -2.7 -2.13 -3.32 -3.73 c -0.83 -2.16 -0.87 -4.27 -0.11 -6.36 c 1.25 -4.46 4.06 -7.46 6.58 -9.85 c 6.4 -5.34 10.63 1.22 14.1 5.76" style="fill:#ff8c00"/><path d="m 17.79 16.86 c 0 -0.18 -5.57 -12.25 -5.65 -12.24 c -0.05 0 -3.05 5.98 -4.67 9.31 l -1.32 2.73 l 2.86 2.79 c 0.18 0.18 8.79 -2.52 8.79 -2.58" style="fill:#fff"/></svg>