<svg xmlns="http://www.w3.org/2000/svg" viewBox="0 0 24 24"><path d="m 11.41 23.87 c 2.46 -0.02 5.38 -0.99 7.43 -2.48 c 2.5 -1.82 4.39 -4.75 4.95 -7.73 c 0.7 -3.94 -1.47 -8.38 -4 -10.6 c -1.27 -1.08 -2.98 -1.99 -4.59 -2.45 c -4.19 -1.2 -8.65 0.19 -11.78 3.66 c -1.88 2.08 -2.88 4.24 -3.2 6.86 c -0.37 3.14 0.77 6.61 2.96 9.1 c 2.52 2.33 5.14 3.69 8.21 3.69" style="fill:#ff8c00"/><path d="m 6.95 6.43 h 10.75 v 10.51 h -10.75" style="fill:#fff"/><path d="m 7 16.5 l 1.29 -0.61 c 1.75 -0.83 2.06 -1 2.92 -1.61 c 1.63 -1.15 2.83 -2.39 4.08 -4.19 c 0.74 -1.06 1.23 -1.92 1.84 -3.18 l 0.22 -0.46 c 0.12 0 0.23 0 0.35 0 c 0 0.22 0 0.45 0 0.67 l -0.48 0.95 c -0.51 1 -0.73 1.4 -1.18 2.08 c -1.34 2 -2.59 3.38 -4.25 4.59 c -0.89 0.65 -1.43 0.95 -3.21 1.8 l -0.8 0.38 c -0.27 0 -0.53 0 -0.79 0 c 0.01 -0.14 0.01 -0.27 0.02 -0.42" style="fill:#ff8c00"/><g style="fill:#fff"><path d="m 5.26 9.27 h 0.76 v 7.67 h -0.76"/><path d="m 15.98 17.7 v 0.76 h -9.13 v -0.76"/></g></svg>