<svg xmlns="http://www.w3.org/2000/svg" viewBox="0 0 24 24"><path d="m 12 0.29 c 15.83 -1.8 15.61 23.99 -0.28 23.69 c -14.79 0.85 -16.1 -25.1 0.28 -23.69" style="fill:#ff8c00"/><path d="m 11.86 6.48 c 2.24 0 4.06 0.85 4.06 1.89 v 8.8 c 0 1.04 -1.82 1.89 -4.06 1.89 c -2.24 0 -4.06 -0.84 -4.06 -1.89 v -8.8 c 0 -1.04 1.82 -1.89 4.06 -1.89" style="fill:#fff"/><path d="m 15.85 7.37 c 0 1.06 -1.75 1.93 -3.92 1.93 c -2.16 0 -3.92 -0.86 -3.92 -1.93 c 0 -1.06 1.75 -1.92 3.92 -1.92 c 2.16 0 3.92 0.86 3.92 1.92" style="fill:#ffdeac"/></svg>