<svg xmlns="http://www.w3.org/2000/svg" viewBox="0 0 24 24"><g style="fill:#ff8c00"><path d="M 0.277344 14.738281 C 1.765625 24.421875 14.988281 27.019531 20.820312 20.101562 C 25.957031 14.960938 24.679688 5.128906 18.371094 1.753906 C 11.132812 -2.757812 0.585938 2.820312 0.015625 11.804688 C -0.0429688 12.785156 0.0390625 13.78125 0.277344 14.738281 Z M 0.277344 14.738281 "/><path d="M 59.392005 64.208167 L 191.392005 64.208167 L 191.392005 191.624834 L 59.392005 191.624834 Z M 59.392005 64.208167 " transform="matrix(0.094 0 0 0.094 0.24 0.18)" style="stroke:#fff;stroke-linecap:round;stroke-width:8.3"/></g><g style="fill:#fff"><path d="M 5.742188 6.636719 L 6.179688 6.140625 L 18.0625 17.5 L 17.625 17.996094 Z M 5.742188 6.636719 "/><path d="M 18.0625 6.636719 L 17.625 6.140625 L 5.742188 17.5 L 6.179688 17.996094 Z M 18.0625 6.636719 "/><path d="M 7.507812 14.699219 L 16.429688 14.699219 L 16.429688 16.71875 L 7.507812 16.71875 Z M 7.507812 14.699219 "/><path d="M 7.472656 11.878906 L 16.351562 11.878906 L 16.351562 13.058594 L 7.472656 13.058594 Z M 7.472656 11.878906 "/><path d="M 7.507812 8.714844 L 16.390625 8.714844 L 16.390625 9.402344 L 7.507812 9.402344 Z M 7.507812 8.714844 "/></g></svg>