<svg xmlns="http://www.w3.org/2000/svg" xmlns:xlink="http://www.w3.org/1999/xlink" viewBox="0 0 24 24"><defs><g id="3" style="clip-path:url(#2)"><path d="m 11.32 19.1 c -0.06 -0.01 -0.59 0.2 -0.77 0.17 c -2.94 -0.37 -5.32 -2.74 -6 -5.25 c -0.72 -2.51 0.45 -5.43 3 -7 c 0.68 -0.44 3.65 -1.36 4.41 -0.91 c 0.89 2.34 0.53 4.5 0.48 6.86 c 2.76 0.19 4.54 -0.2 6.88 0 l 0.09 0.66 c 0.26 1.89 -2.17 4.05 -4.14 5.09 c -1.27 0.52 -2.51 0.59 -3.93 0.43" style="fill:#fff"/></g><clipPath id="2"><path d="M 0,0 H24 V24 H0 z"/></clipPath><filter id="0" filterUnits="objectBoundingBox" x="0" y="0" width="24" height="24"><feColorMatrix type="matrix" in="SourceGraphic" values="0 0 0 0 1 0 0 0 0 1 0 0 0 0 1 0 0 0 1 0"/></filter><mask id="1"><g style="filter:url(#0)"><path d="M 0,0 H24 V24 H0 z" style="fill-opacity:0.5"/></g></mask></defs><path d="m 18.36 2.42 c -12.27 -8.32 -24.71 7.84 -14.71 17.74 c 9.42 9.32 24.1 0.14 19.49 -11.62 c -0.96 -2.45 -2.52 -4.59 -4.78 -6.12" style="fill:#ff8c00"/><use xlink:href="#3" style="mask:url(#1)"/><path d="m 11 19.59 c -2.82 -0.3 -4.95 -1.57 -6.36 -3.8 c -1.02 -2.04 -1.23 -4.57 -0.14 -6.21 c 1.41 -2.11 3.97 -3.5 6.82 -3.71 c 1.27 -0.1 1.99 -0.12 2.1 0.13 c 0.08 0.18 0.09 1.51 0.16 3.08 l 0.14 3 c 2.2 0.16 4.23 0.04 6.56 0 l 0.09 1.31 c -1.31 3.73 -3.34 6.12 -9.39 6.19 m 3.88 -1.4 c 2.09 -0.79 4.15 -3 4.43 -5.07 c -1.62 -0.23 -3.86 0.01 -6.96 0.02 c 0.09 -1.83 0.25 -6.54 -0.68 -6.54 c -0.99 -0.21 -3.14 0.54 -4.5 1.55 c -2.41 1.8 -3.13 4.5 -1.81 6.8 c 1.83 2.98 5.86 4.43 9.51 3.24" style="fill:#fff"/></svg>