<svg xmlns="http://www.w3.org/2000/svg" xmlns:xlink="http://www.w3.org/1999/xlink" viewBox="0 0 24 24"><defs><g id="3" style="clip-path:url(#2)"><path d="m 10.8 19.1 c -3.98 -1.24 -6.39 -5 -5.32 -8.79 c 0.91 -2.64 3.31 -4.83 6.07 -4.87 c 2.07 -0.43 6.75 5.42 7.52 7.64 c -0.21 2.06 -1.65 4.05 -3.08 5 c -1.54 0.96 -3.36 1.34 -5.2 1.02" style="fill:#fff"/></g><clipPath id="2"><path d="M 0,0 H24 V24 H0 z"/></clipPath><filter id="0" filterUnits="objectBoundingBox" x="0" y="0" width="24" height="24"><feColorMatrix type="matrix" in="SourceGraphic" values="0 0 0 0 1 0 0 0 0 1 0 0 0 0 1 0 0 0 1 0"/></filter><mask id="1"><g style="filter:url(#0)"><path d="M 0,0 H24 V24 H0 z" style="fill-opacity:0.5"/></g></mask></defs><path d="m 5.64 2.56 c 12.27 -8.59 24.71 7.28 14.71 17.4 c -9.42 9.54 -24.1 0.7 -19.49 -11.18 c 0.95 -2.48 2.52 -4.65 4.78 -6.23" style="fill:#ff8c00"/><use xlink:href="#3" style="mask:url(#1)"/><path d="m 8.21 19.33 c -1.54 -0.98 -2.9 -2.55 -3.61 -4.2 c -0.64 -1.47 -0.51 -4.77 0.23 -6.22 c 1.4 -2.71 4.43 -4.78 6.99 -4.78 c 1.16 0 1.53 0.28 4.88 3.79 c 3.29 3.44 3.62 3.9 3.63 5.06 c 0.01 1.58 -0.7 3.04 -2.3 4.72 c -1.85 1.95 -3.33 2.58 -6 2.58 c -1.95 0 -2.53 -0.15 -3.8 -0.95 m 7 -1.04 c 0.69 -0.35 1.58 -1 1.99 -1.43 c 0.8 -0.86 1.78 -2.96 1.78 -3.82 c 0 -0.79 -5.75 -7.2 -6.68 -7.44 c -1.09 -0.29 -3.18 0.39 -4.43 1.45 c -4.7 3.95 -1.96 11.82 4.14 11.88 c 1.28 0.01 2.38 -0.2 3.2 -0.63" style="fill:#fff"/></svg>