<svg xmlns="http://www.w3.org/2000/svg" xmlns:xlink="http://www.w3.org/1999/xlink" viewBox="0 0 24 24"><defs><g id="3" style="clip-path:url(#2)"><path d="m 6.66 18.29 c -0.13 -3.24 0.19 -8.1 -0.12 -10.98 c -0.12 -1.18 4.43 -1.24 5.72 -0.66 c 0.76 1.64 0.25 3.69 0.84 5.18 c 2.55 0.51 3.95 -0.05 5.33 0.57 c -0.01 2.37 0.65 4.48 0.01 5.87 c -3.18 0.21 -8.75 1.68 -11.79 0.03" style="fill:#fff"/></g><clipPath id="2"><path d="M 0,0 H24 V24 H0 z"/></clipPath><filter id="0" filterUnits="objectBoundingBox" x="0" y="0" width="24" height="24"><feColorMatrix type="matrix" in="SourceGraphic" values="0 0 0 0 1 0 0 0 0 1 0 0 0 0 1 0 0 0 1 0"/></filter><mask id="1"><g style="filter:url(#0)"><path d="M 0,0 H24 V24 H0 z" style="fill-opacity:0.5"/></g></mask></defs><path d="m 17.1 23.91 c -34.51 2.38 -8.64 -43.65 6 -13.34 c 2 4.67 0.54 11.64 -6 13.34" style="fill:#ff8c00"/><use xlink:href="#3" style="mask:url(#1)"/><path d="m 6.8 19 c -0.59 -0.05 -0.72 -0.25 -1.07 -0.64 v -11.9 c 0.13 -0.44 0.22 -0.51 0.62 -0.66 h 3.11 c 4.3 0 4 -0.23 4.05 3 c 0.03 2.18 0.03 2.23 0.23 2.41 c 0.2 0.18 0.3 0.19 2.42 0.21 c 1.92 0.02 2.25 0.04 2.51 0.18 c 0.62 0.33 0.61 0.29 0.61 3.74 v 3.11 c -0.44 0.55 -0.69 0.5 -1.02 0.54 c -0.52 0.06 -10.46 0.07 -11.45 0.01 m 11.54 -1.44 l -0.04 -2.38 c -0.04 -2.26 -0.05 -2.39 -0.22 -2.57 c -0.18 -0.17 -0.28 -0.18 -2.48 -0.17 c -2.45 0.01 -2.58 -0.01 -2.9 -0.43 c -0.15 -0.2 -0.17 -0.45 -0.2 -2.54 c -0.03 -2.18 -0.04 -2.33 -0.21 -2.5 c -0.17 -0.16 -0.31 -0.18 -2.65 -0.18 c -2.34 0 -2.48 0 -2.65 0.17 c -0.17 0.17 -0.18 0.32 -0.18 5.41 v 5.23 c 0.13 0.23 0.17 0.27 0.4 0.41 h 10.68 c 0.27 -0.09 0.38 -0.21 0.46 -0.45" style="fill:#fff"/></svg>