<svg xmlns="http://www.w3.org/2000/svg" viewBox="0 0 24 24"><path d="m 12.23 23.87 c -2.48 -0.19 -5.37 -1.37 -7.39 -3 c -2.45 -2 -4.25 -5.06 -4.73 -8.1 c -0.57 -3.99 1.74 -8.28 4.36 -10.31 c 1.31 -0.99 3.05 -1.78 4.69 -2.13 c 4.25 -0.9 8.68 0.8 11.72 4.5 c 1.82 2.21 2.76 4.45 2.99 7.09 c 0.28 3.17 -0.98 6.56 -3.26 8.85 c -2.6 2.16 -5.28 3.32 -8.36 3.1" style="fill:#ff8c00"/><g style="fill:#fff"><path d="m 4.74 9.42 h 2.46 v 7 h -2.46"/><path d="m 7.95 5.91 h 2.46 v 10.55 h -2.46"/><path d="m 11.1 10.91 h 2.46 v 5.55 h -2.46"/><path d="m 15.96 11.88 h 5.11 v 0.63 h -5.11"/><path d="m 16 13.33 h 5.15 v 0.64 h -5.15"/><path d="m 16 14.71 h 5.07 v 0.64 h -5.07"/></g></svg>