<svg xmlns="http://www.w3.org/2000/svg" viewBox="0 0 24 24"><path d="m 15.1 0.52 c 12.1 1.83 11.5 20.1 -0.48 22.83 c -9.73 2.84 -17 -7.44 -13.49 -15.1 c 1.75 -5.14 8 -9.3 13.97 -7.71" style="fill:#ff8c00"/><path d="m 5.99 9.79 h 9.18 v 9.44 h -9.18" style="fill:#ffdeac"/><g style="fill:#ff8c00"><path d="m 6.79 9.48 h 0.92 v 9.84 h -0.92"/><path d="m 13.41 9.48 h 0.92 v 9.84 h -0.92"/><path d="m 15.61 17.23 v 0.92 h -9.84 v -0.92"/><path d="m 15.72 10.83 v 0.92 h -9.84 v -0.92"/></g><path d="m 12 14.44 c -0.83 -0.16 -0.88 -0.03 -0.96 -1.68 c -0.06 -1.21 -0.03 -1.36 0.12 -1.55 c 0.3 -0.39 0.76 -0.3 2.8 -0.26 c 1.45 0.03 2.22 0.07 2.8 -0.2 c 0.43 -0.2 0.12 -1.26 -0.04 -1.41 c -1.3 -0.49 -4.58 0 -5.34 -0.23 c -0.44 -0.63 -0.31 -1.1 -0.31 -1.54 c 0.01 -1.54 0.08 -1.93 0.96 -2 c 2.2 -0.02 4.15 -0.08 6.36 0.08 c 0.71 0.18 1.05 0.27 1.31 0.86 c 0.25 0.55 0.3 0.98 0.33 2.83 c 0.03 1.64 -0.02 2.86 -0.14 3.42 c -0.08 0.4 -0.3 0.77 -0.67 1.13 c -0.49 0.52 -5.59 0.65 -7.21 0.55 m 0.88 -0.74 c 0.15 -0.11 0.16 -0.87 0.16 -1.42 c 0 -0.7 -0.13 -0.68 -0.55 -0.73 c -0.24 -0.03 -0.63 -0.05 -0.74 0.29 c -0.11 0.34 -0.11 1.61 0 1.82 c -0.08 0.33 1.21 0.56 1.13 0.04 m -0.12 -5.07 c 0.25 -0.26 0.43 -1.65 0.29 -2.16 c -0.09 -0.34 -0.8 -0.18 -1.14 -0.16 c -0.35 0.07 -0.27 2.15 -0.08 2.29 c 0.23 0.17 0.79 0.16 0.93 0.03" style="fill:#fff"/></svg>