<svg xmlns="http://www.w3.org/2000/svg" viewBox="0 0 24 24"><g style="fill:#ff8c00"><path d="M 0.378906 14.738281 C 2.238281 24.421875 15.5625 27.019531 21.125 20.101562 C 26.066406 14.960938 24.414062 5.128906 17.976562 1.753906 C 10.566406 -2.757812 0.234375 2.820312 0.00390625 11.804688 C -0.015625 12.785156 0.105469 13.78125 0.378906 14.738281 Z M 0.378906 14.738281 "/><path d="M 59.392005 64.208167 L 191.392005 64.208167 L 191.392005 191.624834 L 59.392005 191.624834 Z M 59.392005 64.208167 " transform="matrix(0.094 0 0 0.094 0.24 0.18)" style="stroke:#fff;stroke-linecap:round;stroke-width:8.3"/></g><g style="fill:#fff"><path d="M 5.742188 6.636719 L 6.179688 6.140625 L 18.0625 17.5 L 17.625 17.996094 Z M 5.742188 6.636719 "/><path d="M 18.0625 6.636719 L 17.625 6.140625 L 5.742188 17.5 L 6.179688 17.996094 Z M 18.0625 6.636719 "/><path d="M 11.777344 14.242188 C 11.777344 15.609375 10.6875 16.71875 9.339844 16.71875 C 7.992188 16.71875 6.898438 15.609375 6.898438 14.242188 C 6.898438 12.875 7.992188 11.765625 9.339844 11.765625 C 10.6875 11.765625 11.777344 12.875 11.777344 14.242188 Z M 11.777344 14.242188 "/><path d="M 12.351562 7.265625 L 16.582031 7.265625 L 16.582031 11.535156 L 12.351562 11.535156 Z M 12.351562 7.265625 "/><path d="M 11.972656 16.820312 L 13.242188 14.414062 L 14.558594 12.039062 L 15.84375 14.433594 L 17.085938 16.855469 L 14.527344 16.867188 Z M 11.972656 16.820312 "/></g></svg>