<svg xmlns="http://www.w3.org/2000/svg" viewBox="0 0 24 24"><path d="m 0.14 13.93 c 0.26 -3.25 2.23 -7.5 4.7 -10.13 c 1.96 -2.07 3.72 -3.12 5.92 -3.51 c 3.08 -0.55 5.68 0.61 8.19 3.63 c 2.83 3.55 5.65 8.65 4.57 12.46 c -0.43 1.51 -1 2.53 -1.97 3.58 c -2 2.14 -5 3.49 -8.61 3.82 c -2.04 0.19 -3.66 0.05 -5.62 -0.47 c -3.32 -0.89 -5.62 -2.77 -6.7 -5.48 c -0.34 -0.86 -0.57 -2.73 -0.47 -3.92" style="fill:#fd8b01"/><g style="fill:#fff"><path d="m 5.93 19.22 c 0.05 -0.17 0.18 -0.79 0.3 -1.38 c 0.27 -1.36 1.03 -2.93 1.48 -3.08 c 0.25 -0.08 0.47 0.02 0.74 0.34 c 0.44 0.52 1.59 3.96 1.42 4.25 c -0.19 0.31 -0.78 0.21 -0.98 -0.17 c -0.27 -0.51 -0.96 -0.93 -1.32 -0.79 c -0.51 0.32 -0.7 1.14 -1.28 1.15 c -0.34 0 -0.43 -0.07 -0.36 -0.32 m 2.42 -2.18 c 0.26 -0.48 0.04 -0.94 -0.41 -0.88 c -0.76 0.46 -0.11 1.84 0.41 0.88"/><path d="m 11 18.97 c -0.11 -0.31 -0.2 -1.24 -0.2 -2.06 c 0 -1.26 0.06 -1.55 0.36 -1.86 c 0.5 -0.5 1.35 -0.46 2.09 0.11 c 0.57 0.44 0.91 0.63 0.53 1.26 c -0.32 0.52 -0.02 0.83 0.07 0.88 c 0.09 0.05 0.16 0.37 0.16 0.71 c 0 0.86 -0.88 1.52 -2 1.52 c -0.75 0 -0.82 -0.04 -1 -0.57 m 1.85 -0.96 c 0 -0.39 -0.55 -0.59 -0.84 -0.3 c -0.3 0.3 -0.27 0.82 0.18 0.76 c 0.26 -0.04 0.67 -0.22 0.67 -0.46 m -0.16 -1.59 c 0.04 -0.25 -0.17 -0.66 -0.34 -0.66 c -0.3 0 -0.46 0.34 -0.33 0.68 c 0.13 0.34 0.61 0.43 0.68 -0.02"/><path d="m 15.86 19 c -0.73 -0.49 -1.12 -1.28 -1.08 -2.2 c 0.03 -0.86 0.4 -1.37 1.32 -1.82 c 0.91 -0.45 1.43 -0.48 1.73 -0.11 c 0.3 0.37 -0.07 0.8 -0.69 0.81 c -0.77 0.01 -1.34 0.58 -1.34 1.33 c 0 0.82 0.36 1.18 1.3 1.31 c 0.68 0.09 0.74 0.14 0.69 0.57 c -0.05 0.39 -0.15 0.47 -0.68 0.51 c -0.48 -0.03 -0.94 -0.18 -1.26 -0.39"/><path d="m 10.17 8.27 c -0.18 -0.12 -0.11 -0.5 0.31 -1.82 c 0.68 -2.13 0.93 -2.52 1.62 -2.52 c 0.47 0 0.58 0.11 0.9 0.85 c 0.77 1.79 1.18 3.24 0.98 3.44 c -0.3 0.31 -0.6 0.23 -1.25 -0.34 c -0.34 -0.3 -0.68 -0.54 -0.78 -0.54 c -0.09 0 -0.38 0.24 -0.64 0.54 c -0.49 0.55 -0.75 0.64 -1.15 0.39 m 2.17 -1.92 c 0.36 -0.36 0.35 -0.52 0 -0.88 c -0.22 -0.22 -0.34 -0.24 -0.54 -0.08 c -0.3 0.26 -0.32 0.74 -0.04 1.03 c 0.27 0.27 0.24 0.27 0.57 -0.07"/><path d="m 14.7 11.92 c -0.59 -1.05 -0.69 -2.16 -0.21 -2.23 c 0.25 -0.04 0.39 0.14 0.77 0.99 c 0.82 1.81 0.34 2.87 -0.57 1.24"/><path d="m 11.73 12.57 c -0.39 -0.56 -0.25 -2.8 0.18 -2.97 c 0.12 -0.05 0.33 0.02 0.45 0.14 c 0.3 0.3 0.32 2.55 0.03 2.91 c -0.27 0.32 -0.39 0.31 -0.67 -0.08"/><path d="m 8.17 12.47 c -0.18 -0.33 -0.05 -0.82 0.51 -1.97 c 0.32 -0.66 0.48 -0.84 0.71 -0.8 c 0.49 0.07 0.45 0.75 -0.13 1.96 c -0.52 1.11 -0.82 1.33 -1.1 0.81"/></g></svg>