<svg xmlns="http://www.w3.org/2000/svg" viewBox="0 0 24 24"><path d="m 18.36 2.42 c -12.27 -8.32 -24.71 7.84 -14.71 17.74 c 9.42 9.32 24.1 0.14 19.49 -11.62 c -0.96 -2.45 -2.52 -4.59 -4.78 -6.12" style="fill:#ff8c00"/><path d="m 11 19.59 c -2.82 -0.3 -4.95 -1.57 -6.36 -3.8 c -1.02 -2.04 -1.23 -4.57 -0.14 -6.21 c 1.41 -2.11 3.97 -3.5 6.82 -3.71 c 1.27 -0.1 1.99 -0.12 2.1 0.13 c 0.08 0.18 0.09 1.51 0.16 3.08 l 0.14 3 c 2.2 0.16 4.23 0.04 6.56 0 l 0.09 1.31 c -1.31 3.73 -3.34 6.12 -9.39 6.19 m 3.88 -1.4 c 2.09 -0.79 4.15 -3 4.43 -5.07 c -1.62 -0.23 -3.86 0.01 -6.96 0.02 c 0.09 -1.83 0.25 -6.54 -0.68 -6.54 c -0.99 -0.21 -3.14 0.54 -4.5 1.55 c -2.41 1.8 -3.13 4.5 -1.81 6.8 c 1.83 2.98 5.86 4.43 9.51 3.24" style="fill:#fff"/></svg>