<svg xmlns="http://www.w3.org/2000/svg" viewBox="0 0 24 24"><path d="m 12.1 23.87 c 2.45 -0.19 5.28 -1.37 7.23 -3 c 2.38 -1.99 4.07 -5.1 4.46 -8.1 c 0.46 -3.98 -1.96 -8.26 -4.61 -10.29 c -1.33 -0.99 -3.07 -1.78 -4.7 -2.12 c -4.23 -0.89 -8.58 0.8 -11.48 4.49 c -1.74 2.21 -2.61 4.44 -2.77 7.1 c -0.18 3.16 1.15 6.55 3.48 8.83 c 2.64 2.15 5.32 3.32 8.37 3.1" style="fill:#ff8c00"/><path d="m 16.64 6.4 l -0.07 12.31 h -9.41 l 0.07 -12.31" style="fill:#fff"/><path d="m 17.95 13.97 c 0 2.18 -1.78 3.95 -3.97 3.95 c -2.19 0 -3.97 -1.77 -3.97 -3.95 c 0 -2.18 1.78 -3.95 3.97 -3.95 c 2.2 0 3.97 1.77 3.97 3.95" style="fill:#ff8c00"/><path d="m 17.32 13.97 c 0 1.87 -1.5 3.39 -3.36 3.39 c -1.86 0 -3.36 -1.52 -3.36 -3.39 c 0 -1.87 1.5 -3.39 3.36 -3.39 c 1.86 0 3.36 1.52 3.36 3.39" style="fill:#ffdeac"/></svg>