<svg xmlns="http://www.w3.org/2000/svg" viewBox="0 0 24 24"><path d="m 0.26 12.1 c -1.8 -15.83 23.92 -15.61 23.62 0.28 c 0.85 14.79 -25 16.1 -23.62 -0.28" style="fill:#ff8c00"/><path d="m 3.95 9.15 h 16.25 v 7.12 h -16.25" style="fill:#fff"/><g style="fill:#ff8c00"><path d="m 13.24 15.35 c -0.28 -0.04 -0.42 -0.09 -0.71 -0.24 c -0.23 -0.12 -0.72 -0.55 -0.7 -0.62 c 0.01 -0.02 0.16 -0.22 0.35 -0.44 l 0.33 -0.41 l 0.18 0.18 c 0.27 0.26 0.52 0.37 0.8 0.38 c 0.37 0 0.57 -0.18 0.57 -0.53 c 0 -0.38 -0.2 -0.52 -0.79 -0.55 l -0.38 -0.02 l -0.07 -0.32 c -0.04 -0.18 -0.07 -0.34 -0.07 -0.36 c 0 -0.02 0.21 -0.27 0.48 -0.56 l 0.48 -0.52 h -0.82 l -0.82 -0.01 v -1.1 h 3 v 0.97 l -0.5 0.51 c -0.27 0.28 -0.5 0.52 -0.5 0.54 c 0 0.02 0.08 0.06 0.17 0.09 c 0.57 0.2 0.89 0.7 0.89 1.35 c 0 0.52 -0.16 0.93 -0.5 1.25 c -0.25 0.23 -0.49 0.36 -0.82 0.41 c -0.26 0.04 -0.32 0.04 -0.62 0"/><path d="m 6.41 13.38 c 0 -1.5 -0.01 -1.91 -0.04 -1.91 c -0.02 0 -0.18 0.04 -0.35 0.09 c -0.2 0.05 -0.31 0.07 -0.32 0.05 c -0.03 -0.05 -0.22 -0.99 -0.2 -1 c 0.01 -0.01 0.27 -0.1 0.59 -0.21 c 0.58 -0.2 0.58 -0.2 1 -0.2 h 0.42 v 5.09 h -1.11"/><path d="m 8.16 14.76 v -0.52 l 0.87 -0.8 c 1.1 -1.01 1.23 -1.18 1.23 -1.58 c 0 -0.32 -0.18 -0.52 -0.48 -0.52 c -0.23 0 -0.46 0.16 -0.77 0.53 l -0.07 0.09 l -0.38 -0.38 l -0.38 -0.37 l 0.13 -0.19 c 0.07 -0.11 0.22 -0.28 0.33 -0.39 c 0.75 -0.75 2.06 -0.61 2.54 0.27 c 0.29 0.53 0.27 1.32 -0.04 1.84 c -0.14 0.23 -0.55 0.65 -1.08 1.09 l -0.36 0.3 l 0.86 0.01 h 0.86 v 1.14 h -3.28"/></g></svg>