<svg xmlns="http://www.w3.org/2000/svg" viewBox="0 0 24 24"><path d="m 5.64 2.46 c 12.27 -8.63 24.71 7.31 14.71 17.48 c -9.42 9.58 -24.1 0.7 -19.49 -11.22 c 0.95 -2.49 2.52 -4.67 4.78 -6.25" style="fill:#acd7e5"/><path d="m 6.21 16.88 c -0.32 -0.41 -0.39 -0.95 -0.14 -1.43 c 0.57 -1.23 3.79 -2.24 3.75 -3.56 c -0.02 -0.09 -0.57 -1.07 -1.22 -2.17 c -1.61 -2.7 -1.63 -2.77 -1.3 -3.43 c 0.32 -0.64 0.35 -0.64 5.07 0.3 c 2.73 0.54 4.38 0.92 4.52 1.03 c 0.3 0.24 0.35 0.57 0.29 1.76 c -0.11 2 0.04 2.19 -0.55 2.35 c -1.28 -1.46 -2.27 -2.06 -4 -1.88 c -0.11 0.53 -0.01 1.16 0.2 1.51 c 0.91 1.51 1 1.23 -0.33 2.39 c -0.23 0.2 -0.75 1 -0.75 1.05 c 0.63 0.24 1.51 0.58 2.21 0.72 c 1.68 -1.35 2.56 -0.98 2.33 0.77 c -0.23 1.7 -0.31 2.02 -0.6 2.3 c -2.57 -0.55 -7.25 -1.34 -9.47 -1.72" style="fill:#63c8f6"/><path d="m 10.55 18 c -2.46 -0.46 -4.58 -0.89 -4.7 -0.96 c -0.31 -0.15 -0.55 -0.81 -0.43 -1.17 c 0.13 -0.37 0.5 -0.71 2.55 -2.36 c 0.97 -0.78 1.79 -1.48 1.82 -1.55 c 0.02 -0.07 -0.63 -1.19 -1.44 -2.48 c -0.82 -1.29 -1.52 -2.47 -1.55 -2.62 c -0.13 -0.61 0.32 -1.2 0.92 -1.2 c 0.67 0 9.41 1.7 9.65 1.88 c 0.45 0.34 0.48 0.59 0.25 2.27 c -0.24 1.76 -0.38 2.14 -0.83 2.32 c -0.46 0.18 -0.85 -0.08 -1.42 -0.94 l -0.47 -0.72 c -0.72 -0.01 -1.59 -0.49 -2.3 -0.33 c -0.04 0.04 0.17 0.45 0.45 0.91 c 0.29 0.46 0.57 0.98 0.62 1.14 c 0.17 0.52 -0.08 0.96 -0.94 1.64 c -0.74 0.59 -0.86 0.73 -0.7 0.84 c 0.77 0.2 1.38 0.3 2.2 0.46 l 0.67 -0.54 c 0.82 -0.66 1.28 -0.73 1.65 -0.24 c 0.29 0.38 0.29 0.71 0.02 2.5 c -0.18 1.24 -0.23 1.41 -0.5 1.69 c -0.22 0.23 -0.4 0.31 -0.68 0.3 c -0.21 0 -2.39 -0.39 -4.85 -0.85 m 4.89 -0.3 c 0.11 -0.18 0.42 -2.28 0.36 -2.39 c -0.02 -0.05 -0.34 0.15 -0.69 0.43 l -0.65 0.52 l -2.23 -0.41 c -2.64 -0.48 -2.69 -0.49 -2.69 -0.63 c 0 -0.06 0.7 -0.67 1.55 -1.36 c 0.86 -0.7 1.58 -1.3 1.61 -1.36 c 0.03 -0.05 -0.45 -0.88 -1.05 -1.83 c -0.98 -1.55 -1.23 -2.05 -1.04 -2.05 c 0.08 0 4.24 0.79 4.59 0.86 c 0.19 0.04 0.4 0.27 0.7 0.74 c 0.23 0.37 0.47 0.66 0.53 0.64 c 0.17 -0.06 0.46 -2.27 0.32 -2.43 c -0.06 -0.07 -0.61 -0.21 -1.21 -0.32 c -0.61 -0.11 -2.49 -0.45 -4.18 -0.76 c -3.68 -0.68 -3.47 -0.65 -3.45 -0.48 c 0.01 0.07 0.73 1.25 1.59 2.61 c 0.86 1.36 1.56 2.55 1.56 2.66 c 0 0.11 -0.62 0.68 -1.47 1.38 c -2.54 2.05 -3.07 2.52 -3 2.59 c 0.04 0.05 7.2 1.46 8.73 1.73 c 0.04 0.01 0.11 -0.05 0.15 -0.13" style="fill:#4c6072"/></svg>