<svg xmlns="http://www.w3.org/2000/svg" viewBox="0 0 24 24"><path d="m 3.23 20.5 c -13.56 -20.99 23.48 -29.1 20.53 -7.52 c -1.2 8.81 -15.34 15.55 -20.53 7.52" style="fill:#ff8c00"/><g style="fill-rule:evenodd"><g transform="matrix(0.246 0 0 0.24 5.97 2.53)" style="stroke:#ff8c00;stroke-width:0.74"><g style="fill:#fff;stroke-linecap:round;stroke-linejoin:round"><path d="m 35.41 36.82 c 11.58 20.1 19.75 24.29 22.26 21.82 c 2.61 -2.59 -1.78 -10.56 -20.74 -23.39"/><path d="m 44.58 23.59 c 0 11.57 -9.37 20.95 -20.91 20.95 c -11.54 0 -20.91 -9.39 -20.91 -20.95 c 0 -11.57 9.37 -20.94 20.91 -20.94 c 11.54 0 20.91 9.37 20.91 20.94"/></g><path d="m 18.2 39.6 c -9.73 -3.84 -13.74 -14.28 -9.11 -23.7 c 2 -4.1 7.27 -7.86 12.1 -8.69 c 4.48 -0.76 9.65 0.93 13.28 4.33 c 3.56 3.35 5.28 7.29 5.3 12.14 c 0.03 6.75 -3.55 12.4 -9.78 15.42 c -2.1 1.02 -2.64 1.14 -6 1.22 c -3.21 0.08 -4 -0.02 -5.76 -0.72" style="fill:#ff8c00"/></g><path d="m 11.15 8.45 c -1.7 0 -3.43 1.04 -3.43 2.61 v 2.86 h -1.26 v 6.39 h 9.48 v -6.39 c -0.05 0.01 -0.11 0.02 -0.16 0.02 h -4.43 c -0.06 0 -0.11 -0.01 -0.16 -0.02 h -1.91 v -2.56 c 0 -0.96 1.05 -1.48 1.84 -1.48 c 0.91 0 1.91 0.58 1.91 1.47 v 0.81 h 1.61 v -1.18 c 0 -1.18 -1.34 -2.53 -3.5 -2.53 m 0.02 6.88 c 0.52 0 0.95 0.39 0.95 0.87 c 0 0.29 -0.15 0.54 -0.39 0.7 l 0.38 1.93 h -1.86 l 0.38 -1.92 c -0.24 -0.16 -0.4 -0.41 -0.4 -0.7 c 0 -0.48 0.43 -0.87 0.95 -0.87" style="fill:#fff"/></g></svg>