<svg xmlns="http://www.w3.org/2000/svg" viewBox="0 0 24 24"><path d="m 2.47 18.38 c -8.63 -12.22 7.31 -24.61 17.47 -14.65 c 9.58 9.38 0.7 23.96 -11.22 19.41 c -2.49 -0.95 -4.67 -2.52 -6.25 -4.76" style="fill:#ff8c00"/><g style="fill:#fff"><path d="m 16.33 4.73 c 0 0 0.78 0 0.78 1 v 5 h -1.56 v -1.01 h -0.62 l -1.33 -1.72 l -0.55 -0.71 l -1.88 2.43 h -3.41 v 7.1 h 4.16 l 1.13 1.47 l 1.14 -1.47 h 1.37 v -2 h 1.56 v 3 c 0 0 0 1 -0.78 1 h -9.34 c -0.78 0 -0.78 -1 -0.78 -1 v -12.1 c 0 0 0 -1 0.78 -1 m 6.1 3.99 l 1.08 1.4 l -1.27 1.65 l 5 -0.02 v 2 l -5 0.02 l 1.27 1.65 l -1.08 1.4 l -3.11 -4.08 l 3.11 -4" style="fill-opacity:0.5"/><path d="m 16.77 18.57 c 0.25 -0.25 0.25 -0.28 0.25 -1.98 v -1.73 h -1.42 v 2.03 h -1.41 l -0.53 0.71 c -0.29 0.39 -0.56 0.71 -0.61 0.71 c -0.05 0 -0.32 -0.32 -0.62 -0.71 l -0.54 -0.71 h -4.13 v -7.12 h 3.34 l 0.94 -1.22 c 0.51 -0.67 0.96 -1.22 1 -1.22 c 0.04 0 0.49 0.55 1 1.22 c 0.83 1.07 0.98 1.22 1.24 1.22 c 0.29 0 0.3 0.02 0.3 0.46 v 0.46 h 1.42 v -5.4 l -0.5 -0.5 h -4.84 c -2.96 0 -4.91 0.04 -5 0.1 c -0.1 0.05 -0.24 0.24 -0.3 0.42 c -0.14 0.4 -0.16 12.56 -0.02 12.93 c 0.23 0.61 -0.02 0.58 5.3 0.58 h 4.88"/><path d="m 13.59 16.1 l 0.48 -0.63 l -0.61 -0.78 c -0.33 -0.43 -0.6 -0.81 -0.6 -0.85 c 0 -0.04 1.12 -0.07 2.49 -0.07 h 2.49 v -1.93 h -2.49 c -1.37 0 -2.49 -0.04 -2.49 -0.08 c 0 -0.04 0.27 -0.42 0.6 -0.84 l 0.6 -0.76 l -0.27 -0.37 c -0.5 -0.66 -0.73 -0.95 -0.77 -0.9 c -0.02 0.02 -0.71 0.91 -1.52 1.96 l -1.49 1.93 l 0.28 0.36 c 1.23 1.63 2.7 3.52 2.75 3.54 c 0.04 0.01 0.29 -0.26 0.55 -0.6"/></g></svg>