<svg xmlns="http://www.w3.org/2000/svg" viewBox="0 0 24 24"><path d="m 0.4 14.54 c 1.86 12.31 20.32 12.68 23.1 0.71 c 2.87 -9.68 -7.53 -17.61 -15.31 -14.44 c -5.21 1.5 -9.42 7.64 -7.8 13.71" style="fill:#ff8c00"/><g style="fill:#fff"><path d="m 11.45 16.78 c -0.5 -0.03 -0.89 -0.09 -1.45 -0.23 c -1.82 -0.46 -3.55 -1.67 -4.85 -3.4 c -0.38 -0.51 -0.57 -0.84 -0.55 -0.93 c 0.03 -0.11 0.48 -0.77 0.79 -1.16 c 0.34 -0.43 1.08 -1.17 1.5 -1.5 c 1.26 -1 2.73 -1.63 4.18 -1.79 c 0.39 -0.04 1.26 -0.04 1.64 0 c 1.52 0.17 2.96 0.78 4.24 1.8 c 0.36 0.29 1.21 1.14 1.5 1.51 c 0.25 0.32 0.59 0.8 0.73 1.04 l 0.09 0.15 l -0.09 0.14 c -0.35 0.6 -0.83 1.21 -1.46 1.84 c -0.56 0.56 -0.85 0.8 -1.44 1.2 c -0.7 0.46 -1.25 0.74 -2.04 0.99 c -0.88 0.29 -1.76 0.4 -2.78 0.35 m 1.06 -0.72 c 0.28 -0.04 0.81 -0.22 1.06 -0.36 c 0.86 -0.48 1.51 -1.25 1.81 -2.16 c 0.21 -0.63 0.26 -1.46 0.13 -2.09 c -0.18 -0.82 -0.54 -1.49 -1.13 -2.05 c -1.06 -1 -2.57 -1.28 -3.9 -0.7 c -1.12 0.49 -1.91 1.49 -2.18 2.74 c -0.08 0.37 -0.08 1.22 0 1.59 c 0.23 1.09 0.86 2 1.73 2.54 c 0.77 0.46 1.55 0.62 2.47 0.48 m -3.72 -0.74 c -0.53 -0.56 -0.96 -1.43 -1.11 -2.25 c -0.08 -0.45 -0.08 -1.22 0.01 -1.68 c 0.16 -0.82 0.44 -1.41 1 -2.1 l 0.27 -0.32 l -0.36 0.19 c -0.2 0.1 -0.48 0.27 -0.64 0.36 c -0.89 0.55 -1.89 1.53 -2.49 2.43 c -0.1 0.14 -0.18 0.29 -0.18 0.31 c 0 0.02 0.09 0.17 0.19 0.32 c 0.61 0.89 1.5 1.77 2.38 2.35 c 0.29 0.19 1.03 0.59 1.09 0.59 c 0.02 0 -0.06 -0.09 -0.17 -0.21 m 6.74 -0.13 c 1.08 -0.62 2.14 -1.61 2.83 -2.66 l 0.18 -0.27 l -0.07 -0.12 c -0.13 -0.22 -0.47 -0.68 -0.7 -0.95 c -0.28 -0.33 -0.89 -0.93 -1.22 -1.19 c -0.45 -0.36 -1.21 -0.83 -1.59 -0.98 l -0.13 -0.05 l 0.13 0.14 c 0.58 0.62 0.95 1.33 1.14 2.18 c 0.06 0.28 0.07 0.41 0.07 0.96 c 0 0.7 -0.03 0.93 -0.21 1.45 c -0.2 0.59 -0.54 1.19 -0.93 1.62 l -0.2 0.21 l 0.18 -0.08 c 0.09 -0.04 0.32 -0.16 0.51 -0.27"/><path d="m 11.63 14.42 c -0.96 -0.21 -1.66 -1.09 -1.66 -2.1 c 0 -0.37 0.07 -0.67 0.22 -0.98 c 0.29 -0.57 0.77 -0.96 1.36 -1.11 c 0.98 -0.25 2 0.3 2.38 1.28 c 0.12 0.3 0.14 0.45 0.14 0.81 c 0 0.4 -0.06 0.66 -0.24 1.02 c -0.41 0.82 -1.34 1.28 -2.21 1.09"/></g></svg>