<svg xmlns="http://www.w3.org/2000/svg" viewBox="0 0 16 16"><path d="m 0.2 9.83 c 3.13 14.99 24.62 -1.1 11.71 -8.73 c -5 -3.27 -13.31 1.01 -11.71 8.73" style="fill:#bc162f"/><path d="m 9.84 4.39 l 0.02 0.02 l 0.04 -0.02 m 0.48 0.5 l 2.97 2.77 v -2.77" style="fill-opacity:0.2"/><g style="fill:#fff"><path d="m 9.92 1.58 l 3.51 3.27 h -2.97 c -0.26 0 -0.54 -0.26 -0.54 -0.51 v -2.77" style="fill-opacity:0.39"/><path d="m 6.43 12 c -0.79 -0.56 -1.75 -1.08 -2.46 -1.63 l -0.02 -1.21 c -0.01 -0.66 -0.03 -1.22 -0.05 -1.24 c -0.02 -0.02 -0.52 -0.03 -1.12 -0.04 h -1.09 l -0.11 -0.11 c -0.16 -0.16 -0.14 -0.44 0.04 -0.52 c 0.03 -0.02 0.57 -0.03 1.18 -0.03 h 1.12 c 0.03 -0.09 -0.02 -0.21 0.03 -0.29 c 0.38 0.11 0.75 0.34 1.09 0.5 c 0.64 0.32 1.27 0.63 1.91 0.96 c 0.21 0.11 0.29 0.2 0.31 0.26 c 0.05 0.12 -0.01 3.84 -0.06 3.86 c -0.02 0.01 -0.34 -0.22 -0.77 -0.5 m -0.41 -2.38 c 0 -0.25 -0.28 -0.58 -0.5 -0.58 c -0.18 0 -0.38 0.16 -0.46 0.36 c -0.12 0.04 -0.27 0.03 -0.45 0.02 c -0.04 -0.03 -0.05 -0.3 -0.05 -1 c 0 -0.73 -0.01 -0.97 -0.05 -1 c -0.03 -0.02 -0.18 -0.04 -0.33 -0.05 c -0.31 -0.02 -0.36 0.01 -0.36 0.2 c 0 0.15 0.07 0.23 0.2 0.23 h 0.12 v 0.98 c 0 0.8 0.01 1 0.05 1.03 c 0.04 0.03 0.21 0.04 0.48 0.05 l 0.39 0.02 l -0.01 -0.23 l -0.02 -0.18 h 0.23 c 0.25 0 0.37 0.06 0.37 0.18 c 0 0.13 -0.11 0.2 -0.34 0.2 c -0.2 0 -0.21 0 -0.19 0.08 c 0.04 0.12 0.25 0.27 0.38 0.27 c 0.28 -0.01 0.53 -0.31 0.54 -0.57 m 1.55 2.84 c -0.01 -0.01 -0.02 -0.88 -0.02 -1.92 v -1.9 c 0.51 -0.33 1.01 -0.56 1.45 -0.78 c 1.7 -0.86 1.8 -0.91 1.87 -0.88 c 0.05 0.02 0.05 0.29 0.05 1.7 c 0 1.55 0 1.69 -0.07 1.75 c -0.97 0.68 -1.81 1.18 -2.85 1.88 c -0.25 0.17 -0.37 0.21 -0.43 0.16 m -0.29 -4.11 c -0.07 -0.1 -0.59 -0.51 -1.05 -0.78 c -0.7 -0.4 -1.29 -0.63 -1.9 -0.75 c -0.15 -0.03 -0.32 -0.07 -0.34 -0.1 c -0.03 -0.07 0.4 -0.43 0.81 -0.68 c 0.66 -0.39 1.18 -0.57 1.91 -0.67 c 0.5 -0.07 0.88 -0.07 1.39 0 c 0.74 0.1 1.22 0.27 1.87 0.64 c 0.38 0.21 0.88 0.63 0.86 0.7 c -0.01 0.03 -0.09 0.06 -0.17 0.08 c -0.45 0.09 -1.11 0.27 -1.59 0.52 c -0.55 0.28 -1.17 0.73 -1.42 0.96 c -0.17 0.16 -0.29 0.18 -0.36 0.07"/></g></svg>