<svg xmlns="http://www.w3.org/2000/svg" viewBox="0 0 16 16"><path d="m 0.2 9.83 c 3.13 14.99 24.62 -1.1 11.71 -8.73 c -5 -3.27 -13.31 1.01 -11.71 8.73" style="fill:#40ab93"/><path d="m 9.62 4.48 l 0.02 0.02 l 0.04 -0.02 m 0.48 0.5 l 2.97 2.77 v -2.77" style="fill-opacity:0.2"/><path d="m 9.62 1.71 l 3.52 3.27 h -2.97 c -0.26 0 -0.54 -0.26 -0.54 -0.5 v -2.77" style="fill:#fff;fill-opacity:0.39"/><g style="fill:#e4e4e4"><path d="m 8.47 6.66 h 0.3 v 3.17 h -0.3"/><path d="m 7 6.66 h 0.29 v 3.17 h -0.29"/><path d="m 5.99 6.73 l 0.29 0.05 l -0.58 3.12 l -0.29 -0.05"/></g><path d="m 6.12 10.1 c 0 0.34 -0.29 0.61 -0.66 0.61 c -0.36 0 -0.65 -0.27 -0.65 -0.61 c 0 -0.34 0.29 -0.62 0.65 -0.62 c 0.36 0 0.66 0.28 0.66 0.62" style="fill:#3e3e3e"/><path d="m 4.3 6.58 c -0.17 0 -0.31 0.12 -0.3 0.27 v 4.49 h 0.7 v -4.07 h 4.91 v 4.07 h 0.7 v -4.49 c 0 -0.15 -0.13 -0.27 -0.3 -0.27" style="fill:#4e4e4e"/><g style="fill:#3e3e3e"><path d="m 7.78 10.14 c 0 0.34 -0.29 0.63 -0.65 0.63 c -0.36 0 -0.65 -0.28 -0.65 -0.63 c 0 -0.35 0.29 -0.63 0.65 -0.63 c 0.36 0 0.65 0.28 0.65 0.63"/><path d="m 9.28 10.14 c 0 0.34 -0.3 0.63 -0.67 0.63 c -0.37 0 -0.66 -0.28 -0.66 -0.63 c 0 -0.35 0.3 -0.63 0.66 -0.63 c 0.37 0 0.67 0.28 0.67 0.63"/></g></svg>