<svg xmlns="http://www.w3.org/2000/svg" viewBox="0 0 16 16"><path d="m 0.2 9.83 c 3.13 14.99 24.62 -1.1 11.71 -8.73 c -5 -3.27 -13.31 1.01 -11.71 8.73" style="fill:#dcdcdc"/><path d="m 9.62 4.48 l 0.02 0.02 l 0.04 -0.02 m 0.48 0.5 l 2.97 2.77 v -2.77" style="fill-opacity:0.2"/><path d="m 9.62 1.71 l 3.52 3.27 h -2.97 c -0.26 0 -0.54 -0.26 -0.54 -0.5 v -2.77" style="fill:#fff;fill-opacity:0.39"/><g style="fill:#696969"><path d="m 3.55 10.25 v -3.14 h 0.27 v 2.77 h 1 v 0.37"/><path d="m 6.08 9.97 c -0.09 0.12 -0.18 0.21 -0.27 0.26 c -0.09 0.05 -0.18 0.07 -0.27 0.07 c -0.16 0 -0.29 -0.06 -0.38 -0.18 c -0.09 -0.12 -0.13 -0.28 -0.13 -0.47 c 0 -0.11 0.02 -0.21 0.05 -0.3 c 0.04 -0.09 0.08 -0.17 0.13 -0.22 c 0.05 -0.05 0.11 -0.1 0.18 -0.13 c 0.05 -0.02 0.13 -0.04 0.22 -0.06 c 0.2 -0.04 0.35 -0.08 0.45 -0.13 c 0 -0.05 0 -0.09 0 -0.1 c 0 -0.16 -0.02 -0.27 -0.07 -0.33 c -0.06 -0.09 -0.16 -0.13 -0.29 -0.13 c -0.12 0 -0.21 0.03 -0.26 0.1 c -0.06 0.06 -0.1 0.18 -0.13 0.34 l -0.25 -0.05 c 0.02 -0.16 0.06 -0.29 0.11 -0.39 c 0.05 -0.1 0.13 -0.18 0.22 -0.23 c 0.1 -0.05 0.21 -0.08 0.34 -0.08 c 0.13 0 0.23 0.02 0.31 0.07 c 0.08 0.05 0.14 0.11 0.18 0.17 c 0.04 0.07 0.06 0.16 0.08 0.26 c 0.01 0.07 0.01 0.19 0.01 0.36 v 0.51 c 0 0.36 0 0.59 0.02 0.68 c 0.01 0.09 0.03 0.18 0.06 0.27 h -0.26 c -0.02 -0.08 -0.04 -0.18 -0.05 -0.28 m -0.02 -0.86 c -0.09 0.06 -0.23 0.11 -0.41 0.14 c -0.11 0.02 -0.18 0.05 -0.22 0.08 c -0.04 0.03 -0.08 0.07 -0.1 0.13 c -0.02 0.05 -0.03 0.11 -0.03 0.18 c 0 0.11 0.02 0.19 0.07 0.26 c 0.05 0.07 0.13 0.11 0.22 0.11 c 0.1 0 0.18 -0.04 0.26 -0.1 c 0.07 -0.07 0.13 -0.16 0.17 -0.27 c 0.03 -0.09 0.04 -0.21 0.04 -0.39"/><path d="m 7.26 10.25 v -2.77 h -0.67 v -0.37 h 1.62 v 0.37 h -0.68 v 2.77"/><path d="m 9.15 9.52 l 0.26 0.05 c -0.04 0.23 -0.12 0.41 -0.23 0.54 c -0.11 0.13 -0.25 0.19 -0.43 0.19 c -0.21 0 -0.39 -0.1 -0.52 -0.31 c -0.13 -0.2 -0.19 -0.49 -0.19 -0.86 c 0 -0.38 0.07 -0.68 0.2 -0.89 c 0.13 -0.21 0.29 -0.32 0.5 -0.32 c 0.2 0 0.36 0.11 0.49 0.31 c 0.13 0.21 0.19 0.5 0.19 0.88 c 0 0.02 0 0.06 0 0.1 h -1.11 c 0.01 0.25 0.05 0.45 0.14 0.58 c 0.08 0.13 0.19 0.2 0.31 0.2 c 0.09 0 0.17 -0.04 0.24 -0.11 c 0.06 -0.07 0.12 -0.19 0.15 -0.36 m -0.82 -0.63 h 0.83 c -0.01 -0.19 -0.04 -0.34 -0.09 -0.43 c -0.08 -0.15 -0.18 -0.22 -0.31 -0.22 c -0.11 0 -0.21 0.06 -0.29 0.18 c -0.08 0.12 -0.12 0.28 -0.13 0.48"/><path d="m 9.55 10.25 l 0.79 -1.64 l -0.7 -1.5 h 0.32 l 0.37 0.8 c 0.08 0.17 0.13 0.3 0.16 0.39 c 0.05 -0.11 0.1 -0.23 0.16 -0.36 l 0.41 -0.83 h 0.3 l -0.72 1.48 l 0.77 1.66 h -0.34 l -0.52 -1.12 c -0.03 -0.07 -0.06 -0.14 -0.09 -0.21 c -0.04 0.11 -0.08 0.19 -0.1 0.23 l -0.51 1.1"/></g></svg>