<svg xmlns="http://www.w3.org/2000/svg" viewBox="0 0 16 16"><path d="m 0.2 9.83 c 3.13 14.99 24.62 -1.1 11.71 -8.73 c -5 -3.27 -13.31 1.01 -11.71 8.73" style="fill:#dcdcdc"/><path d="m 9.62 4.48 l 0.02 0.02 l 0.04 -0.02 m 0.48 0.5 l 2.97 2.77 v -2.77" style="fill-opacity:0.2"/><path d="m 9.62 1.71 l 3.52 3.27 h -2.97 c -0.26 0 -0.54 -0.26 -0.54 -0.5 v -2.77" style="fill:#fff;fill-opacity:0.39"/><path d="m 6.9 8.27 v -0.82 c 0 -0.09 0.08 -0.17 0.17 -0.17 h 0.59 c 0.1 0 0.18 0.07 0.18 0.17 v 1.5 c 0 0.02 -0.02 0.04 -0.03 0.06 l -0.15 0.14 c -0.04 0.04 -0.04 0.09 0 0.11 l 0.15 0.14 c 0.02 0.02 0.03 0.04 0.03 0.06 v 0.82 c 0 0.09 -0.08 0.17 -0.18 0.17 h -0.59 c -0.09 0 -0.17 -0.07 -0.17 -0.17 v -1.5 c 0 -0.02 0.01 -0.04 0.02 -0.06 l 0.15 -0.14 c 0.04 -0.03 0.04 -0.09 0 -0.11 l -0.15 -0.14 c -0.02 -0.02 -0.02 -0.04 -0.02 -0.06 m 2.68 0.6 c 0 -1.19 -1 -2.15 -2.22 -2.15 c -1.23 0 -2.22 0.96 -2.22 2.15 c 0 1.18 0.99 2.15 2.22 2.15 c 1.22 0 2.22 -0.96 2.22 -2.15 m 0.7 0 c 0 1.56 -1.31 2.82 -2.91 2.82 c -1.61 0 -2.91 -1.27 -2.91 -2.82 c 0 -1.56 1.31 -2.82 2.91 -2.82 c 1.61 0 2.91 1.26 2.91 2.82 m -6.41 0 c 0 1.87 1.56 3.39 3.5 3.39 c 1.93 0 3.5 -1.52 3.5 -3.39 c 0 -1.87 -1.57 -3.39 -3.5 -3.39 c -1.93 0 -3.5 1.52 -3.5 3.39 m -0.24 0 c 0 -2 1.67 -3.62 3.73 -3.62 c 2.06 0 3.73 1.62 3.73 3.62 c 0 2 -1.67 3.62 -3.73 3.62 c -2.07 0 -3.73 -1.62 -3.73 -3.62" style="fill:#777"/></svg>