<svg xmlns="http://www.w3.org/2000/svg" viewBox="0 0 16 16"><path d="m 0.2 9.83 c 3.13 14.99 24.62 -1.1 11.71 -8.73 c -5 -3.27 -13.31 1.01 -11.71 8.73" style="fill:#eaeaea"/><path d="m 9.62 4.48 l 0.02 0.02 l 0.04 -0.02 m 0.48 0.5 l 2.97 2.77 v -2.77" style="fill-opacity:0.2"/><path d="m 9.62 1.71 l 3.52 3.27 h -2.97 c -0.26 0 -0.54 -0.26 -0.54 -0.5 v -2.77" style="fill:#fff;fill-opacity:0.39"/><path d="m 10.39 6.45 c -0.45 -0.06 -1.64 0.79 -2.8 2 c -0.52 0.54 -0.97 1.08 -1.32 1.59 c 0.41 0.14 0.73 0.48 0.86 0.9 c 0.48 -0.36 1 -0.83 1.52 -1.38 c 1.32 -1.39 2.16 -2.76 1.86 -3.07 c -0.03 -0.03 -0.07 -0.05 -0.13 -0.06 m -4.33 4.21 c -1.5 0.43 -0.38 1.42 -1.5 2.11 c 1.5 0 2.26 -0.79 2.26 -1.32 c 0 -0.26 0.02 -0.75 -0.75 -0.79" style="fill:#a37fdc"/></svg>