<svg xmlns="http://www.w3.org/2000/svg" viewBox="0 0 16 16"><path d="m 0.2 9.83 c 3.13 14.99 24.62 -1.1 11.71 -8.73 c -5 -3.27 -13.31 1.01 -11.71 8.73" style="fill:#f9731e"/><path d="m 9.62 4.48 l 0.02 0.02 l 0.04 -0.02 m 0.48 0.5 l 2.97 2.77 v -2.77" style="fill-opacity:0.2"/><g style="fill:#fff"><path d="m 9.62 1.71 l 3.52 3.27 h -2.97 c -0.26 0 -0.54 -0.26 -0.54 -0.5 v -2.77" style="fill-opacity:0.39"/><path d="m 6.14 5.3 c -0.18 0 -0.36 0.07 -0.49 0.2 c 0 0 -1.64 1.57 -1.64 1.57 c -0.12 0.13 -0.2 0.3 -0.2 0.48 c 0 0 -0.01 2.23 -0.01 2.23 c 0 0.18 0.07 0.35 0.2 0.48 c 0 0 1.61 1.59 1.61 1.59 c 0.13 0.12 0.3 0.2 0.49 0.2 c 0 0 2.29 0.01 2.29 0.01 c 0.19 0 0.36 -0.07 0.49 -0.2 c 0 0 1.63 -1.57 1.63 -1.57 c 0.13 -0.13 0.2 -0.3 0.2 -0.48 c 0 0 0.02 -2.23 0.02 -2.23 c 0 -0.18 -0.07 -0.35 -0.2 -0.48 c 0 0 -1.61 -1.59 -1.61 -1.59 c -0.13 -0.12 -0.3 -0.2 -0.49 -0.2 c 0 0 -2.29 -0.02 -2.29 -0.02 m 2.27 2.53 c -0.22 0 -0.43 0.09 -0.59 0.24 c -0.16 0.16 -0.25 0.36 -0.25 0.59 c 0 0.21 0.09 0.43 0.25 0.58 c 0.16 0.15 0.38 0.24 0.59 0.24 c 0.23 0 0.45 -0.09 0.61 -0.24 c 0.16 -0.16 0.25 -0.37 0.25 -0.58 c 0 -0.46 -0.38 -0.83 -0.85 -0.83 m -2.26 -0.77 c 0.36 0 0.71 0.11 0.99 0.33 c 0 0 -0.39 0.68 -0.39 0.68 c -0.16 -0.15 -0.37 -0.24 -0.59 -0.24 c -0.23 0 -0.44 0.09 -0.6 0.24 c -0.16 0.16 -0.25 0.36 -0.25 0.59 c 0 0.21 0.09 0.43 0.25 0.58 c 0.16 0.15 0.38 0.24 0.6 0.24 c 0.21 0 0.42 -0.08 0.58 -0.22 c 0 0 0.4 0.66 0.4 0.66 c -0.29 0.21 -0.63 0.32 -0.98 0.32 c -0.44 0 -0.85 -0.17 -1.16 -0.46 c -0.31 -0.3 -0.48 -0.71 -0.48 -1.13 c 0 -0.88 0.73 -1.59 1.64 -1.59 m 2.26 0 c 0.91 0 1.64 0.71 1.64 1.59 c 0 0.88 -0.73 1.59 -1.64 1.59 c -0.43 0 -0.84 -0.17 -1.15 -0.46 c -0.3 -0.3 -0.48 -0.71 -0.48 -1.13 c 0 -0.88 0.73 -1.59 1.63 -1.59"/></g></svg>