<svg xmlns="http://www.w3.org/2000/svg" viewBox="0 0 16 16"><path d="m 0.2 9.83 c 3.13 14.99 24.62 -1.1 11.71 -8.73 c -5 -3.27 -13.31 1.02 -11.71 8.73" style="fill:#e6ecef"/><path d="m 9.62 4.48 l 0.02 0.02 l 0.04 -0.02 m 0.48 0.5 l 2.97 2.77 v -2.77" style="fill-opacity:0.2"/><path d="m 9.62 1.7 l 3.51 3.27 h -2.97 c -0.26 0 -0.54 -0.26 -0.54 -0.5 v -2.77" style="fill:#fff;fill-opacity:0.39"/><path d="m 11.78 9.84 c 0.03 -0.06 0 -0.12 -0.14 -0.27 c -0.2 -0.21 -0.41 -0.59 -0.59 -1 c -0.18 -0.42 -0.21 -0.55 -0.34 -1.39 c -0.04 -0.23 -0.07 -0.43 -0.08 -0.46 c -0.02 -0.03 -0.14 -0.09 -0.35 -0.16 c -0.36 -0.11 -0.53 -0.23 -0.75 -0.49 c -0.16 -0.2 -0.4 -0.76 -0.46 -1.1 c -0.04 -0.24 -0.05 -0.27 -0.11 -0.28 c -0.07 -0.02 -1.45 0.14 -1.55 0.18 c -0.07 0.03 -0.09 0.09 -0.13 0.31 c -0.03 0.23 -0.22 0.65 -0.4 0.9 c -0.09 0.12 -0.18 0.24 -0.2 0.28 l -0.05 0.06 l 1 2.38 c 0.77 1.82 1.01 2.38 1.05 2.39 c 0.06 0.02 3.05 -1.29 3.08 -1.35 m -1.68 0.43 c -0.05 -0.13 -0.13 -0.18 -0.21 -0.14 c -0.09 0.04 -0.11 0.13 -0.05 0.26 l 0.03 0.07 l -1.03 0.45 l -0.43 -1.02 l 0.08 -0.04 c 0.15 -0.07 0.2 -0.14 0.17 -0.22 c -0.04 -0.08 -0.12 -0.09 -0.27 -0.03 l -0.08 0.04 l -0.67 -1.61 l -0.68 -1.61 l 0.15 -0.2 c 0.23 -0.32 0.41 -0.72 0.48 -1.1 c 0.01 -0.05 0.05 -0.06 0.59 -0.13 c 0.32 -0.04 0.59 -0.07 0.61 -0.06 c 0.02 0 0.05 0.12 0.09 0.27 c 0.2 0.85 0.67 1.41 1.34 1.61 l 0.2 0.05 l 0.04 0.29 c 0.15 1.02 0.23 1.32 0.5 1.82 c 0.1 0.19 0.25 0.44 0.33 0.55 c 0.08 0.11 0.15 0.21 0.16 0.23 c 0 0.01 -0.29 0.14 -0.64 0.3 l -0.65 0.29 m -0.25 -0.51 c 0 -0.04 -0.01 -0.11 -0.03 -0.15 c -0.02 -0.04 -0.05 -0.09 -0.08 -0.12 c -0.05 -0.04 -0.07 -0.04 -0.14 -0.01 c -0.07 0.04 -0.08 0.06 -0.07 0.15 c 0.01 0.06 0.04 0.13 0.08 0.18 c 0.05 0.07 0.07 0.08 0.15 0.05 c 0.08 -0.03 0.09 -0.04 0.09 -0.11 m 0.7 -0.93 c 0.04 -0.04 0.05 -0.06 0.01 -0.13 c -0.04 -0.07 -0.05 -0.07 -0.15 -0.05 c -0.07 0.02 -0.15 0.05 -0.2 0.09 c -0.08 0.06 -0.09 0.08 -0.07 0.15 c 0.02 0.07 0.04 0.08 0.11 0.07 c 0.1 -0.01 0.23 -0.07 0.3 -0.14 m -0.65 0.29 c 0.04 -0.04 0.04 -0.06 0.01 -0.13 c -0.04 -0.07 -0.05 -0.07 -0.15 -0.05 c -0.07 0.02 -0.14 0.05 -0.2 0.09 c -0.08 0.06 -0.09 0.08 -0.07 0.15 c 0.02 0.07 0.04 0.08 0.11 0.07 c 0.1 -0.01 0.23 -0.07 0.31 -0.14 m -0.65 0.29 c 0.04 -0.04 0.04 -0.06 0.01 -0.13 c -0.04 -0.07 -0.06 -0.07 -0.15 -0.05 c -0.07 0.02 -0.15 0.05 -0.21 0.09 c -0.08 0.06 -0.09 0.08 -0.07 0.15 c 0.02 0.07 0.04 0.08 0.11 0.07 c 0.1 -0.01 0.23 -0.07 0.31 -0.14 m 0.2 -0.62 c 0 -0.04 -0.01 -0.11 -0.03 -0.14 c -0.02 -0.04 -0.05 -0.09 -0.09 -0.12 c -0.04 -0.05 -0.07 -0.05 -0.14 -0.01 c -0.07 0.04 -0.09 0.06 -0.07 0.15 c 0.01 0.06 0.04 0.13 0.08 0.18 c 0.05 0.07 0.07 0.07 0.16 0.05 c 0.07 -0.03 0.09 -0.05 0.09 -0.11 m -0.25 -0.58 c 0 -0.04 -0.01 -0.11 -0.03 -0.15 c -0.02 -0.04 -0.05 -0.09 -0.09 -0.12 c -0.04 -0.04 -0.07 -0.04 -0.14 0 c -0.07 0.04 -0.09 0.06 -0.07 0.15 c 0.01 0.06 0.04 0.13 0.08 0.18 c 0.05 0.07 0.07 0.08 0.16 0.05 c 0.07 -0.03 0.09 -0.04 0.09 -0.11 m 1.02 -1.07 c 0.04 -0.04 0.05 -0.07 0.01 -0.13 c -0.04 -0.07 -0.05 -0.07 -0.15 -0.05 c -0.07 0.01 -0.15 0.05 -0.2 0.09 c -0.08 0.06 -0.09 0.08 -0.07 0.15 c 0.02 0.07 0.04 0.08 0.11 0.08 c 0.1 -0.01 0.24 -0.07 0.31 -0.14 m -0.65 0.29 c 0.04 -0.04 0.05 -0.07 0.01 -0.13 c -0.04 -0.07 -0.05 -0.07 -0.15 -0.05 c -0.07 0.01 -0.15 0.05 -0.2 0.09 c -0.08 0.06 -0.09 0.08 -0.07 0.15 c 0.02 0.07 0.04 0.08 0.11 0.08 c 0.1 -0.01 0.23 -0.07 0.3 -0.14 m -0.65 0.29 c 0.04 -0.04 0.05 -0.07 0.01 -0.13 c -0.04 -0.07 -0.05 -0.07 -0.15 -0.05 c -0.07 0.01 -0.14 0.05 -0.2 0.09 c -0.08 0.06 -0.09 0.08 -0.07 0.15 c 0.02 0.07 0.04 0.08 0.11 0.08 c 0.1 -0.01 0.23 -0.07 0.3 -0.14 m -0.65 0.29 c 0.04 -0.04 0.04 -0.07 0.01 -0.13 c -0.04 -0.07 -0.06 -0.07 -0.16 -0.05 c -0.07 0.01 -0.14 0.05 -0.2 0.09 c -0.08 0.06 -0.09 0.08 -0.07 0.15 c 0.02 0.07 0.04 0.08 0.11 0.08 c 0.1 -0.01 0.23 -0.07 0.31 -0.14 m 0.52 -0.76 c 0 -0.04 -0.01 -0.11 -0.03 -0.14 c -0.02 -0.04 -0.05 -0.09 -0.09 -0.12 c -0.04 -0.05 -0.07 -0.05 -0.14 -0.01 c -0.07 0.04 -0.08 0.06 -0.07 0.15 c 0.01 0.06 0.04 0.13 0.07 0.18 c 0.05 0.07 0.07 0.07 0.16 0.05 c 0.07 -0.03 0.09 -0.04 0.09 -0.11 m -0.25 -0.58 c 0 -0.04 -0.01 -0.11 -0.03 -0.15 c -0.02 -0.04 -0.05 -0.09 -0.08 -0.12 c -0.05 -0.04 -0.07 -0.04 -0.14 0 c -0.07 0.04 -0.08 0.06 -0.07 0.15 c 0.01 0.06 0.04 0.13 0.07 0.18 c 0.05 0.07 0.08 0.08 0.16 0.05 c 0.08 -0.03 0.09 -0.04 0.09 -0.11 m -0.24 -0.59 c 0 -0.04 -0.02 -0.11 -0.03 -0.14 c -0.02 -0.04 -0.05 -0.09 -0.08 -0.13 c -0.05 -0.04 -0.07 -0.04 -0.14 0 c -0.07 0.04 -0.08 0.06 -0.07 0.15 c 0.01 0.06 0.04 0.13 0.07 0.18 c 0.06 0.07 0.08 0.07 0.16 0.05 c 0.08 -0.02 0.09 -0.04 0.09 -0.11 m -0.25 -0.59 c 0 -0.04 -0.02 -0.11 -0.03 -0.14 c -0.02 -0.04 -0.05 -0.09 -0.08 -0.12 c -0.05 -0.04 -0.07 -0.05 -0.14 -0.01 c -0.07 0.04 -0.08 0.06 -0.07 0.15 c 0.01 0.06 0.04 0.13 0.07 0.18 c 0.06 0.07 0.08 0.08 0.16 0.05 c 0.08 -0.03 0.09 -0.04 0.09 -0.11 m 0.07 5.77 c 0.03 -0.06 -0.49 -1.29 -0.55 -1.3 c -0.06 -0.02 -2.73 1.14 -2.76 1.21 c -0.03 0.06 0.48 1.28 0.55 1.3 c 0.06 0.02 2.73 -1.14 2.76 -1.21 m -1.36 0.28 c -0.05 -0.13 -0.13 -0.18 -0.22 -0.14 c -0.09 0.04 -0.11 0.13 -0.05 0.26 l 0.03 0.07 l -1.03 0.45 l -0.14 -0.34 l 0.13 -0.06 c 0.2 -0.09 0.26 -0.15 0.22 -0.24 c -0.04 -0.09 -0.13 -0.09 -0.32 0 l -0.13 0.06 l -0.07 -0.17 l -0.07 -0.17 l 0.51 -0.23 l 0.51 -0.22 l 0.06 0.07 c 0.05 0.06 0.07 0.07 0.15 0.03 c 0.08 -0.04 0.09 -0.05 0.08 -0.13 v -0.09 l 0.51 -0.23 l 0.51 -0.22 l 0.07 0.17 l 0.07 0.17 l -0.13 0.06 c -0.2 0.09 -0.26 0.15 -0.22 0.24 c 0.04 0.09 0.12 0.09 0.32 0 l 0.13 -0.06 l 0.07 0.17 l 0.07 0.17 l -1.03 0.45 m 0.19 -0.52 c 0.04 -0.04 0.05 -0.07 0.01 -0.13 c -0.04 -0.07 -0.05 -0.07 -0.15 -0.05 c -0.07 0.01 -0.14 0.05 -0.2 0.09 c -0.08 0.06 -0.09 0.08 -0.07 0.15 c 0.02 0.07 0.04 0.08 0.11 0.07 c 0.1 -0.01 0.23 -0.07 0.3 -0.13 m -0.65 0.29 c 0.04 -0.04 0.04 -0.07 0.01 -0.13 c -0.04 -0.07 -0.06 -0.07 -0.16 -0.05 c -0.07 0.01 -0.14 0.05 -0.2 0.09 c -0.08 0.06 -0.09 0.08 -0.07 0.15 c 0.02 0.07 0.04 0.08 0.11 0.07 c 0.1 -0.01 0.23 -0.07 0.31 -0.13 m 0.79 -1.91 c 0.02 -0.09 -0.72 -3 -0.77 -3.09 c -0.02 -0.03 -0.13 -0.07 -0.24 -0.09 c -0.11 -0.02 -0.36 -0.07 -0.54 -0.13 c -0.21 -0.06 -0.43 -0.1 -0.55 -0.1 c -0.2 0 -0.23 0 -0.52 0.14 c -0.3 0.13 -0.32 0.14 -0.46 0.29 c -0.09 0.1 -0.21 0.28 -0.31 0.48 c -0.09 0.18 -0.22 0.4 -0.28 0.49 c -0.06 0.09 -0.11 0.2 -0.11 0.23 c 0.01 0.09 1.59 2.65 1.66 2.7 l 0.06 0.04 l 1.03 -0.45 l 1.03 -0.45 m -2.04 0.54 c -0.03 -0.04 -0.37 -0.59 -0.76 -1.23 l -0.71 -1.16 l 0.07 -0.12 c 0.04 -0.07 0.13 -0.24 0.21 -0.38 c 0.29 -0.54 0.38 -0.64 0.69 -0.78 c 0.31 -0.14 0.45 -0.13 1.03 0.02 c 0.16 0.04 0.34 0.09 0.42 0.11 l 0.13 0.03 l 0.33 1.33 c 0.18 0.73 0.34 1.36 0.35 1.41 l 0.02 0.09 l -1.73 0.76 m 0.88 -0.66 c 0 -0.04 -0.02 -0.11 -0.03 -0.14 c -0.02 -0.04 -0.05 -0.09 -0.08 -0.12 c -0.05 -0.04 -0.07 -0.05 -0.14 -0.01 c -0.07 0.04 -0.08 0.06 -0.07 0.15 c 0.01 0.06 0.04 0.14 0.08 0.18 c 0.05 0.07 0.07 0.08 0.15 0.05 c 0.08 -0.03 0.09 -0.04 0.09 -0.11 m -0.25 -0.58 c 0 -0.04 -0.02 -0.11 -0.03 -0.15 c -0.02 -0.04 -0.05 -0.09 -0.08 -0.12 c -0.05 -0.04 -0.07 -0.04 -0.14 0 c -0.07 0.04 -0.08 0.06 -0.07 0.15 c 0.01 0.06 0.04 0.13 0.08 0.18 c 0.05 0.07 0.07 0.07 0.15 0.05 c 0.08 -0.03 0.09 -0.04 0.09 -0.11 m -0.25 -0.59 c 0 -0.04 -0.01 -0.11 -0.03 -0.14 c -0.02 -0.04 -0.05 -0.09 -0.08 -0.12 c -0.05 -0.05 -0.07 -0.05 -0.14 -0.01 c -0.07 0.04 -0.09 0.06 -0.07 0.15 c 0.01 0.06 0.04 0.13 0.08 0.18 c 0.05 0.07 0.07 0.07 0.15 0.05 c 0.08 -0.03 0.09 -0.05 0.09 -0.11 m -0.25 -0.58 c 0 -0.04 -0.01 -0.11 -0.03 -0.15 c -0.02 -0.04 -0.05 -0.09 -0.09 -0.12 c -0.04 -0.04 -0.07 -0.04 -0.14 0 c -0.07 0.04 -0.09 0.06 -0.07 0.15 c 0.01 0.06 0.04 0.13 0.08 0.18 c 0.05 0.07 0.07 0.08 0.16 0.05 c 0.07 -0.03 0.09 -0.04 0.09 -0.11 m 0.7 -0.93 c 0.04 -0.04 0.04 -0.07 0.02 -0.13 c -0.04 -0.09 -0.16 -0.09 -0.27 0 c -0.06 0.05 -0.07 0.07 -0.05 0.14 c 0.02 0.07 0.04 0.08 0.11 0.07 c 0.09 -0.01 0.13 -0.02 0.2 -0.09 m -0.54 0.23 c 0.04 -0.04 0.04 -0.06 0.01 -0.13 c -0.04 -0.07 -0.05 -0.07 -0.15 -0.05 c -0.07 0.02 -0.14 0.05 -0.2 0.09 c -0.08 0.06 -0.09 0.08 -0.07 0.15 c 0.02 0.07 0.04 0.08 0.11 0.08 c 0.1 -0.01 0.23 -0.07 0.31 -0.14 m -0.65 0.29 c 0.04 -0.04 0.04 -0.06 0.01 -0.13 c -0.04 -0.07 -0.06 -0.07 -0.16 -0.05 c -0.07 0.02 -0.14 0.05 -0.2 0.09 c -0.08 0.06 -0.09 0.08 -0.07 0.15 c 0.02 0.07 0.04 0.08 0.11 0.08 c 0.1 -0.01 0.23 -0.07 0.31 -0.14 m -0.65 0.29 c 0.04 -0.04 0.04 -0.07 0.02 -0.13 c -0.04 -0.09 -0.16 -0.09 -0.27 0 c -0.06 0.05 -0.07 0.07 -0.05 0.14 c 0.02 0.07 0.04 0.08 0.11 0.08 c 0.1 -0.01 0.13 -0.02 0.2 -0.09 m 0.78 -0.76 c 0 -0.04 -0.02 -0.11 -0.03 -0.14 c -0.02 -0.04 -0.05 -0.09 -0.08 -0.12 c -0.05 -0.05 -0.07 -0.05 -0.14 -0.01 c -0.07 0.04 -0.08 0.06 -0.07 0.15 c 0.01 0.06 0.04 0.13 0.08 0.18 c 0.05 0.07 0.07 0.07 0.15 0.05 c 0.08 -0.03 0.09 -0.05 0.09 -0.11"/></svg>