<svg xmlns="http://www.w3.org/2000/svg" viewBox="0 0 16 16"><path d="m 0.2 9.83 c 3.13 14.99 24.62 -1.1 11.71 -8.73 c -5 -3.27 -13.31 1.01 -11.71 8.73" style="fill:#dcdcdc"/><path d="m 9.62 4.48 l 0.02 0.02 l 0.04 -0.02 m 0.48 0.5 l 2.97 2.77 v -2.77" style="fill-opacity:0.2"/><path d="m 9.62 1.71 l 3.52 3.27 h -2.97 c -0.26 0 -0.54 -0.26 -0.54 -0.5 v -2.77" style="fill:#fff;fill-opacity:0.39"/><g style="fill:#7f7f7f"><path d="m 3.27 7.37 h 0.26 l 0.33 1.98 l 0.33 -1.98 h 0.31 l 0.33 1.98 l 0.33 -1.98 h 0.27 l -0.42 2.53 h -0.31 l -0.34 -2.07 l -0.35 2.07 h -0.31"/><path d="m 6.55 8.63 c -0.21 0 -0.36 0.04 -0.45 0.12 c -0.08 0.08 -0.12 0.21 -0.12 0.39 c 0 0.14 0.03 0.26 0.09 0.35 c 0.06 0.09 0.15 0.13 0.25 0.13 c 0.14 0 0.26 -0.08 0.35 -0.25 c 0.09 -0.16 0.13 -0.38 0.13 -0.65 v -0.09 m 0.26 -0.17 v 1.45 h -0.26 v -0.38 c -0.06 0.15 -0.14 0.27 -0.23 0.34 c -0.09 0.07 -0.2 0.11 -0.33 0.11 c -0.16 0 -0.3 -0.07 -0.39 -0.22 c -0.09 -0.14 -0.14 -0.34 -0.14 -0.58 c 0 -0.29 0.06 -0.5 0.18 -0.64 c 0.12 -0.14 0.3 -0.22 0.54 -0.22 h 0.37 v -0.04 c 0 -0.19 -0.04 -0.34 -0.12 -0.45 c -0.08 -0.11 -0.19 -0.16 -0.34 -0.16 c -0.09 0 -0.18 0.02 -0.27 0.05 c -0.09 0.04 -0.17 0.09 -0.25 0.16 v -0.38 c 0.1 -0.06 0.19 -0.11 0.28 -0.13 c 0.09 -0.03 0.18 -0.04 0.27 -0.04 c 0.23 0 0.41 0.09 0.52 0.28 c 0.11 0.19 0.17 0.48 0.17 0.86"/><path d="m 8.64 7.45 v 0.39 c -0.07 -0.06 -0.15 -0.11 -0.23 -0.14 c -0.08 -0.03 -0.16 -0.04 -0.25 -0.04 c -0.13 0 -0.23 0.03 -0.29 0.09 c -0.07 0.06 -0.1 0.16 -0.1 0.29 c 0 0.1 0.02 0.17 0.07 0.23 c 0.05 0.05 0.14 0.11 0.28 0.16 l 0.09 0.03 c 0.19 0.06 0.32 0.15 0.4 0.27 c 0.08 0.11 0.12 0.28 0.12 0.48 c 0 0.24 -0.06 0.42 -0.18 0.56 c -0.12 0.14 -0.28 0.21 -0.48 0.21 c -0.09 0 -0.18 -0.02 -0.27 -0.04 c -0.09 -0.03 -0.19 -0.07 -0.29 -0.12 v -0.43 c 0.1 0.08 0.19 0.14 0.29 0.18 c 0.09 0.04 0.19 0.06 0.28 0.06 c 0.13 0 0.22 -0.04 0.29 -0.1 c 0.07 -0.07 0.1 -0.16 0.1 -0.29 c 0 -0.11 -0.02 -0.2 -0.07 -0.26 c -0.05 -0.06 -0.16 -0.12 -0.32 -0.18 l -0.09 -0.03 c -0.16 -0.05 -0.28 -0.14 -0.35 -0.25 c -0.07 -0.11 -0.11 -0.27 -0.11 -0.46 c 0 -0.23 0.05 -0.42 0.16 -0.55 c 0.11 -0.13 0.26 -0.19 0.45 -0.19 c 0.1 0 0.19 0.01 0.28 0.03 c 0.09 0.02 0.16 0.06 0.24 0.1"/><path d="m 10.4 7.86 c 0.06 -0.19 0.14 -0.33 0.23 -0.41 c 0.09 -0.09 0.2 -0.13 0.32 -0.13 c 0.17 0 0.3 0.09 0.39 0.28 c 0.09 0.18 0.14 0.45 0.14 0.79 v 1.53 h -0.27 v -1.51 c 0 -0.25 -0.03 -0.43 -0.08 -0.54 c -0.05 -0.12 -0.14 -0.18 -0.25 -0.18 c -0.14 0 -0.24 0.07 -0.32 0.21 c -0.08 0.14 -0.12 0.34 -0.12 0.59 v 1.43 h -0.27 v -1.51 c 0 -0.25 -0.03 -0.43 -0.08 -0.54 c -0.05 -0.12 -0.14 -0.18 -0.25 -0.18 c -0.14 0 -0.24 0.07 -0.32 0.22 c -0.08 0.14 -0.12 0.34 -0.12 0.58 v 1.43 h -0.27 v -2.53 h 0.27 v 0.39 c 0.06 -0.16 0.13 -0.27 0.22 -0.34 c 0.08 -0.07 0.18 -0.11 0.3 -0.11 c 0.12 0 0.21 0.04 0.3 0.14 c 0.08 0.09 0.14 0.23 0.18 0.41"/></g></svg>