<svg xmlns="http://www.w3.org/2000/svg" viewBox="0 0 16 16"><path d="m 15.84 9.88 c -3.13 15 -24.62 -1.1 -11.71 -8.72 c 5 -3.27 13.31 1.01 11.71 8.72" style="fill:#8fd244"/><path d="m 9.8 4.3 l 0.02 0.02 l 0.04 -0.02 m 0.48 0.5 l 2.97 2.77 v -2.77" style="fill-opacity:0.2"/><path d="m 9.75 1.53 l 3.51 3.27 h -2.97 c -0.26 0 -0.54 -0.26 -0.54 -0.5 v -2.77" style="fill:#fff;fill-opacity:0.39"/><g style="fill:#4069e0"><path d="m 5.53 10.1 l 0.25 -0.29 l 1.94 1.64 l -0.25 0.29"/><path d="m 5.51 8.79 l 0.25 0.29 l 1.93 -1.65 l -0.25 -0.29"/><path d="m 6.1 9.17 v 0.38 h 1.51 v -0.39"/></g><path d="m 6.29 9.35 c 0 0.6 -0.48 1.09 -1.07 1.09 c -0.59 0 -1.07 -0.49 -1.07 -1.09 c 0 -0.61 0.48 -1.09 1.07 -1.09 c 0.59 0 1.07 0.49 1.07 1.09" style="fill:#6395ec"/><g style="fill:#fff"><path d="m 7.5 8.97 h 2.78 c 0.16 0 0.3 0.18 0.3 0.41 c 0 0.22 -0.14 0.41 -0.3 0.41 h -2.78 c -0.17 0 -0.3 -0.18 -0.3 -0.41 c 0 -0.23 0.13 -0.41 0.3 -0.41"/><path d="m 7.62 6.6 h 2.54 c 0.23 0 0.42 0.23 0.42 0.53 c 0 0.29 -0.19 0.53 -0.42 0.53 h -2.54 c -0.23 0 -0.42 -0.23 -0.42 -0.53 c 0 -0.29 0.19 -0.53 0.42 -0.53"/><path d="m 7.74 11.13 h 2.49 c 0.25 0 0.45 0.26 0.45 0.57 c 0 0.32 -0.2 0.57 -0.45 0.57 h -2.49 c -0.25 0 -0.45 -0.26 -0.45 -0.57 c 0 -0.32 0.2 -0.57 0.45 -0.57"/></g></svg>