<svg xmlns="http://www.w3.org/2000/svg" viewBox="0 0 16 16"><path d="m 0.29 9.81 c 3.1 14.82 24.41 -1.09 11.61 -8.63 c -4.97 -3.23 -13.2 1 -11.61 8.63" style="fill:#ff8c00"/><path d="m 10.18 4.71 l 0.02 0.02 l 0.04 -0.02 m 0.45 0.5 l 2.77 2.75 v -2.75" style="fill-opacity:0.2"/><g style="fill:#fff"><path d="m 10.16 1.86 l 3.32 3.34 h -2.81 c -0.25 0 -0.51 -0.26 -0.51 -0.52 v -2.82" style="fill-opacity:0.39"/><path d="m 8.7 10.1 v -0.81 h 0.47 v 0.83 h 1.03 v 0.79 h -1.5"/><path d="m 5.11 9.67 v -1.25 h -0.52 v -0.79 h 0.52 v -1.62 h 0.98 v 0.79 h -0.51 v 0.83 h 0.51 v 0.79 h -0.51 v 2.49 h -0.47"/><path d="m 6.65 8.46 v -2.45 h 0.47 v 1.62 h 0.51 v 0.79 h -0.51 v 1.7 h 0.51 v 0.79 h -0.98"/><path d="m 7.68 9.27 v -0.81 h 0.47 v 1.62 h -0.47"/><path d="m 8.7 7.22 v -0.38 h 0.98 v 0.75 h -0.98"/><path d="m 9.73 8 v -0.39 h 0.48 v 0.79 h -0.48"/><path d="m 9.21 8.86 v -0.39 h 0.47 v 0.79 h -0.47"/></g></svg>