<svg xmlns="http://www.w3.org/2000/svg" viewBox="0 0 16 16"><path d="m 0.2 9.83 c 3.13 14.99 24.62 -1.1 11.71 -8.73 c -5 -3.27 -13.31 1.01 -11.71 8.73" style="fill:#4581b3"/><path d="m 9.62 4.48 l 0.02 0.02 l 0.04 -0.02 m 0.48 0.5 l 2.97 2.77 v -2.77" style="fill-opacity:0.2"/><g style="fill:#fff"><path d="m 9.62 1.71 l 3.52 3.27 h -2.97 c -0.26 0 -0.54 -0.26 -0.54 -0.5 v -2.77" style="fill-opacity:0.39"/><path d="m 6.66 9.47 c -0.52 -0.25 -0.86 -0.65 -0.88 -1.4 c -0.01 -0.26 0.03 -0.77 0.22 -0.91 c 1.07 -0.86 0.57 -2.43 1.21 -1.75 c 0.16 0.16 0.7 0.99 0.79 1.2 c 0.32 0.73 0.48 1.84 0.01 2.44 c -0.17 0.21 -0.41 0.39 -0.62 0.46 c -0.23 0.08 -0.53 0.06 -0.73 -0.04"/><path d="m 6.51 8.78 c 0.49 0 0.71 -0.02 1.2 -0.02 c 0 1.11 0.35 2.22 0.35 3.34 c -0.49 0 -1.41 0.02 -1.9 0.02 c 0 -1.11 0.35 -2.22 0.35 -3.33"/></g><path d="m 6.29 9.64 h 1.7 v 0.34 h -1.7" style="fill:#4581b3"/></svg>