<svg xmlns="http://www.w3.org/2000/svg" viewBox="0 0 16 16"><path d="m 0.2 9.83 c 3.13 14.99 24.62 -1.1 11.71 -8.73 c -5 -3.27 -13.31 1.01 -11.71 8.73" style="fill:#b0c3de"/><path d="m 9.62 4.48 l 0.02 0.02 l 0.04 -0.02 m 0.48 0.5 l 2.97 2.77 v -2.77" style="fill-opacity:0.2"/><path d="m 9.62 1.71 l 3.52 3.27 h -2.97 c -0.26 0 -0.54 -0.26 -0.54 -0.5 v -2.77" style="fill:#fff;fill-opacity:0.39"/><g style="fill:#4069e0"><path d="m 7.54 7.13 c 0 0.69 0.53 1.24 1.18 1.24 c 0.65 0 1.18 -0.55 1.18 -1.24 c 0 -0.68 -0.53 -1.24 -1.18 -1.24 c -0.65 0 -1.18 0.55 -1.18 1.24"/><path d="m 8.71 8.14 c 0.86 0 1.56 0.82 1.56 1.83 c 0 0.34 -0.02 0.33 -0.09 0.94 h -3 c -0.05 -0.52 -0.02 -0.6 -0.02 -0.94 c 0 -1.01 0.7 -1.83 1.57 -1.83"/><path d="m 4.87 6.86 c 0 0.82 0.64 1.49 1.43 1.49 c 0.79 0 1.43 -0.67 1.43 -1.49 c 0 -0.82 -0.64 -1.49 -1.43 -1.49 c -0.79 0 -1.43 0.67 -1.43 1.49"/><path d="m 6.3 8.1 c 1.05 0 1.9 0.98 1.9 2.21 c 0 0.41 -0.02 0.39 -0.11 1.13 h -3.67 c -0.06 -0.63 -0.03 -0.72 -0.03 -1.13 c 0 -1.22 0.86 -2.21 1.91 -2.21"/></g><path d="m 4.85 9.99 c 0 0 -0.41 -1.14 0.18 -1.19 c 0.67 -0.06 2.37 1.54 4 1.38 c 1.64 -0.16 2.17 -0.4 1.94 -0.39 c -0.77 0.02 -1.9 0.29 -2.79 0 c -0.86 -0.28 -2.24 -1.34 -2.88 -1.42 c -0.67 -0.08 -1 0.39 -1 0.62 c 0 0.23 0.54 0.99 0.54 0.99" style="fill:#ffdeac"/></svg>