<svg xmlns="http://www.w3.org/2000/svg" viewBox="0 0 16 16"><path d="m 0.2 9.83 c 3.13 14.99 24.62 -1.1 11.71 -8.73 c -5 -3.27 -13.31 1.01 -11.71 8.73" style="fill:#b0c3de"/><path d="m 9.62 4.48 l 0.02 0.02 l 0.04 -0.02 m 0.48 0.5 l 2.97 2.77 v -2.77" style="fill-opacity:0.2"/><path d="m 9.62 1.71 l 3.52 3.27 h -2.97 c -0.26 0 -0.54 -0.26 -0.54 -0.5 v -2.77" style="fill:#fff;fill-opacity:0.39"/><path d="m 4.56 7.28 c -0.25 0 -0.45 0.19 -0.45 0.41 c 0 0.23 0.2 0.41 0.45 0.41 c 0.14 0 0.26 -0.05 0.34 -0.14 l 4.21 2.12 c -0.01 0.03 -0.01 0.06 -0.01 0.1 c 0 0.23 0.21 0.41 0.45 0.41 c 0.25 0 0.46 -0.19 0.46 -0.41 c 0 -0.23 -0.21 -0.41 -0.46 -0.41 c -0.13 0 -0.25 0.05 -0.33 0.13 l -4.22 -2.13 c 0.01 -0.02 0.01 -0.05 0.01 -0.08 c 0 -0.23 -0.21 -0.41 -0.46 -0.41 m 0 0.21 c 0.13 0 0.23 0.09 0.23 0.21 c 0 0.12 -0.1 0.21 -0.23 0.21 c -0.13 0 -0.23 -0.09 -0.23 -0.21 c 0 -0.12 0.1 -0.21 0.23 -0.21 m 5 2.49 c 0.13 0 0.23 0.09 0.23 0.21 c 0 0.11 -0.1 0.21 -0.23 0.21 c -0.13 0 -0.23 -0.09 -0.23 -0.21 c 0 -0.12 0.1 -0.21 0.23 -0.21" style="fill:#f34e17"/><g style="fill-rule:evenodd"><path d="m 5.24 11.84 c 2.95 1.25 4.32 -1.66 1.82 -2.9 c -2.5 -1.24 -1.13 -4.14 1.82 -2.9" style="fill:#8e76e4;fill-opacity:0.25"/><path d="m 7.4 5.63 c -0.75 0.04 -1.3 0.39 -1.57 0.87 c -0.43 0.78 -0.11 1.88 1.18 2.52 c 1.21 0.6 1.46 1.57 1.09 2.25 c -0.37 0.67 -1.37 1.07 -2.8 0.47 l -0.1 0.19 c 1.52 0.64 2.68 0.21 3.11 -0.57 c 0.43 -0.78 0.11 -1.88 -1.18 -2.52 c -1.21 -0.6 -1.46 -1.57 -1.09 -2.25 c 0.37 -0.67 1.36 -1.08 2.8 -0.47 l 0.1 -0.19 c -0.57 -0.24 -1.09 -0.33 -1.54 -0.3" style="fill:#8c59d8"/></g><path d="m 8.54 5.72 v 0.62 h 0.68 v -0.62 m -2.5 2.9 v 0.62 h 0.68 v -0.62 m -2.5 2.9 v 0.62 h 0.68 v -0.62" style="fill:#fff"/><path d="m 8.43 5.62 v 0.83 h 0.91 v -0.83 m -0.68 0.21 h 0.45 v 0.41 h -0.45 m -2.05 2.28 v 0.83 h 0.91 v -0.83 m -0.68 0.21 h 0.46 v 0.41 h -0.46 m -2.04 2.28 v 0.83 h 0.91 v -0.83 m -0.68 0.21 h 0.45 v 0.41 h -0.45" style="fill:#8e76e4"/></svg>