<svg xmlns="http://www.w3.org/2000/svg" viewBox="0 0 16 16"><path d="m 0.2 9.83 c 3.13 14.99 24.62 -1.1 11.71 -8.73 c -5 -3.27 -13.31 1.01 -11.71 8.73" style="fill:#9370db"/><path d="m 9.62 4.48 l 0.02 0.02 l 0.04 -0.02 m 0.48 0.5 l 2.97 2.77 v -2.77" style="fill-opacity:0.2"/><g style="fill:#fff"><path d="m 9.62 1.71 l 3.52 3.27 h -2.97 c -0.26 0 -0.54 -0.26 -0.54 -0.5 v -2.77" style="fill-opacity:0.39"/><path d="m 5 11 c -0.03 -0.02 -0.04 -0.26 -0.05 -1.02 v -1 h -0.48 c -0.29 0 -0.5 -0.02 -0.52 -0.04 c -0.05 -0.04 -0.05 -0.47 0 -0.51 c 0.02 -0.02 0.23 -0.03 0.52 -0.04 h 0.48 v -1.14 h -0.59 c -0.68 -0.01 -0.66 0 -0.66 -0.27 c 0 -0.3 -0.08 -0.28 1 -0.28 c 0.91 0 0.94 0 0.97 0.05 c 0.02 0.04 0.03 0.72 0.02 2.15 c -0.01 1.83 -0.02 2.1 -0.05 2.12 c -0.05 0.03 -0.59 0.04 -0.64 0 m 1.25 0 c -0.05 -0.03 -0.05 -0.16 -0.05 -2.13 c 0 -1.16 0.01 -2.13 0.02 -2.15 c 0.03 -0.07 0.67 -0.07 0.7 0 c 0.01 0.02 0.02 0.88 0.02 1.89 v 1.85 h 0.6 c 0.42 0 0.61 0.01 0.63 0.03 c 0.02 0.02 0.04 0.12 0.04 0.26 c 0 0.2 0 0.23 -0.05 0.25 c -0.08 0.04 -1.82 0.04 -1.89 0 m 2.51 0 c -0.04 -0.02 -0.05 -0.29 -0.05 -2.12 c 0 -1.43 0 -2.11 0.02 -2.15 c 0.03 -0.05 0.07 -0.05 0.97 -0.05 c 1.08 0 1 -0.02 1 0.28 c 0 0.27 0.02 0.27 -0.66 0.27 h -0.59 v 1.14 h 0.48 c 0.3 0 0.5 0.02 0.52 0.04 c 0.05 0.04 0.05 0.47 0 0.51 c -0.02 0.02 -0.23 0.03 -0.52 0.04 h -0.48 v 1 c -0.01 0.76 -0.02 1 -0.05 1.02 c -0.05 0.03 -0.59 0.03 -0.64 0 m -1.28 -1.08 c -0.02 -0.05 -0.02 -3.15 0 -3.2 c 0.03 -0.07 0.67 -0.07 0.7 0 c 0.02 0.05 0.02 3.15 0 3.2 c -0.02 0.04 -0.07 0.04 -0.35 0.04 c -0.27 0 -0.33 0 -0.35 -0.04 m 0.02 -3.77 c -0.02 -0.02 -0.04 -0.14 -0.04 -0.35 c 0 -0.38 0 -0.38 0.37 -0.38 c 0.37 0 0.37 0 0.37 0.38 c 0 0.21 -0.01 0.33 -0.04 0.35 c -0.05 0.04 -0.61 0.04 -0.66 0"/></g></svg>