<svg xmlns="http://www.w3.org/2000/svg" xmlns:xlink="http://www.w3.org/1999/xlink" viewBox="0 0 16 16"><defs><g id="3" style="clip-path:url(#2)"><path d="m 156 127.1 c -2.64 -4.56 -4.72 -8.43 -4.72 -8.57 c 0 -0.14 2.15 -4 4.79 -8.5 l 4.79 -8.29 h 19.38 l 4.58 8.1 c 2.5 4.42 4.65 8.22 4.79 8.36 c 0.14 0.28 -1.04 2.53 -4.45 8.5 c -2.57 4.49 -4.79 8.36 -4.93 8.5 c -0.21 0.28 -1.53 0.35 -9.86 0.35 h -9.66" transform="matrix(0.056 0 0 0.056 -2.18 2.33)" style="fill:#fff;stroke:#0c0606;stroke-width:0.67"/></g><clipPath id="2"><path d="M 0,0 H16 V16 H0 z"/></clipPath><filter id="0" filterUnits="objectBoundingBox" x="0" y="0" width="16" height="16"><feColorMatrix type="matrix" in="SourceGraphic" values="0 0 0 0 1 0 0 0 0 1 0 0 0 0 1 0 0 0 1 0"/></filter><mask id="1"><g style="filter:url(#0)"><path d="M 0,0 H16 V16 H0 z" style="fill-opacity:0.98"/></g></mask></defs><path d="m 0.2 9.83 c 3.13 14.99 24.62 -1.1 11.71 -8.73 c -5 -3.27 -13.31 1.01 -11.71 8.73" style="fill:#31cd31"/><path d="m 9.62 4.48 l 0.02 0.02 l 0.04 -0.02 m 0.48 0.5 l 2.97 2.77 v -2.77" style="fill-opacity:0.2"/><path d="m 9.62 1.71 l 3.52 3.27 h -2.97 c -0.26 0 -0.54 -0.26 -0.54 -0.5 v -2.77" style="fill:#fff;fill-opacity:0.39"/><g transform="matrix(0.056 0 0 0.056 -2.18 2.33)"><g style="stroke:#000;stroke-width:1.18"><path d="m 115.8 101.6 c -1.67 5.27 -2.43 11.1 -2.43 16.92 c 0 14.47 5.28 27.67 14 37.78 l 31.61 -54.63 h -43.2" style="fill:#c0f"/><path d="m 128.5 157.5 c 10.42 11.31 25.35 18.33 42 18.33 c 3.75 0 7.36 -0.35 10.91 -1.05 l -31.2 -54.7" style="fill:#4c3dff"/><path d="m 212.2 79.3 c -10.49 -11.1 -25.2 -17.98 -41.68 -17.98 c -3.75 0 -7.5 0.35 -11.18 1.05 l 31.3 54.63" style="fill:#ff8433"/><path d="m 157.8 62.7 c -19.52 4.35 -35.2 18.82 -41.4 37.43 h 63" style="fill:#f00"/></g><path d="m 225.2 135.4 c 1.67 -5.27 2.5 -11.1 2.5 -16.92 c 0 -14.61 -5.56 -27.88 -14.45 -38.1 l -31.2 54.98 h 43.1" style="fill:#04d503;stroke:#0c0606;stroke-width:1.88"/><path d="m 182.9 174.5 c 19.59 -4.35 35.3 -18.82 41.68 -37.5 h -63.2" style="fill:#fff200;stroke:#000;stroke-width:1.95"/></g><g style="fill:#fff"><path d="m 7.98 7.9 v 0.08 h -0.02 l 0.54 0.94 l 0.05 -0.09 l -1.76 -3.04 c -0.03 0 -0.06 0.01 -0.09 0.02 l 1.21 2.08"/><path d="m 6.8 7.93 l 0.07 0.04 l -0.02 0.02 h 1.1 l -0.05 -0.09 h -3.54 c -0.01 0.03 -0.02 0.06 -0.03 0.09 h 2.43"/><path d="m 7.92 7.91 l 0.05 0.09 h 0.03 v -0.09"/><path d="m 4.9 11.17 l 0.07 0.04 l 0.07 -0.13 c -0.02 -0.02 -0.04 -0.05 -0.06 -0.07"/><path d="m 6.23 8.95 l 0.07 -0.04 l 0.01 0.02 l 0.55 -0.94 h -0.1 l -1.78 3.04 c 0.02 0.02 0.04 0.05 0.06 0.07 l 1.21 -2.08"/><path d="m 6.77 7.99 h 0.1 l 0.01 -0.02 l -0.07 -0.04"/><path d="m 6.84 9.95 v -0.09 h 0.02 l -0.54 -0.94 l -0.05 0.08 l 1.75 3.04 c 0.03 0 0.06 -0.01 0.09 -0.02 l -1.2 -2.09 h -0.07"/><path d="m 6.28 9 l 0.04 -0.09 l -0.01 -0.02 l -0.07 0.04"/><path d="m 10.45 9.95 h 0.17 v -0.09 h -0.14 c -0.02 0.03 -0.02 0.06 -0.04 0.09"/><path d="m 8.1 9.86 l -0.04 0.07 l -0.07 -0.04 l 0.02 -0.02 h -1.1 l 0.05 0.09 h 3.54 c 0.01 -0.03 0.02 -0.06 0.03 -0.09 h -2.43"/><path d="m 6.92 9.95 l -0.05 -0.08 h -0.02 v 0.08"/><path d="m 9.89 6.67 l -0.07 -0.04 l -0.07 0.12 c 0.02 0.02 0.04 0.04 0.06 0.07"/><path d="m 8.59 8.91 l -0.07 0.04 l -0.01 -0.02 l -0.54 0.94 h 0.1 l 1.75 -3.06 c -0.02 -0.02 -0.04 -0.04 -0.06 -0.06 l -1.2 2.09"/><path d="m 8.56 8.84 l -0.05 0.09 l 0.02 0.03 l 0.07 -0.04"/><path d="m 8 9.93 l 0.04 -0.06 h -0.1 l -0.01 0.02"/></g><use xlink:href="#3" style="mask:url(#1)"/><path d="m 231.2 118.4 c 0 33.4 -27 60.4 -60.4 60.4 c -33.3 0 -60.4 -27 -60.4 -60.4 c 0 -33.4 27.1 -60.4 60.4 -60.4 c 33.3 0 60.4 27 60.4 60.4" transform="matrix(0.056 0 0 0.056 -2.18 2.33)" style="fill:none;stroke-miterlimit:10;stroke:#0c0606;stroke-width:6.6"/></svg>