<svg xmlns="http://www.w3.org/2000/svg" viewBox="0 0 16 16"><path d="m 0.2 9.83 c 3.13 14.99 24.62 -1.1 11.71 -8.73 c -5 -3.27 -13.31 1.01 -11.71 8.73" style="fill:#e73c58"/><path d="m 9.62 4.48 l 0.02 0.02 l 0.04 -0.02 m 0.48 0.5 l 2.97 2.77 v -2.77" style="fill-opacity:0.2"/><g style="fill:#fff"><path d="m 9.62 1.71 l 3.52 3.27 h -2.97 c -0.26 0 -0.54 -0.26 -0.54 -0.5 v -2.77" style="fill-opacity:0.39"/><path d="m 9.61 10 c -0.28 -0.06 -0.74 -0.31 -0.74 -0.4 c 0 -0.02 0.07 -0.13 0.16 -0.25 c 0.16 -0.21 0.16 -0.22 0.23 -0.17 c 0.28 0.21 0.68 0.31 0.88 0.22 c 0.1 -0.04 0.12 -0.06 0.12 -0.16 c 0 -0.16 -0.06 -0.2 -0.54 -0.34 c -0.31 -0.09 -0.43 -0.15 -0.57 -0.3 c -0.14 -0.15 -0.18 -0.28 -0.18 -0.53 c 0 -0.34 0.19 -0.63 0.5 -0.77 c 0.17 -0.07 0.7 -0.07 0.9 0 c 0.18 0.07 0.46 0.23 0.46 0.27 c -0.09 0.18 -0.18 0.31 -0.29 0.5 l -0.22 -0.11 c -0.29 -0.14 -0.55 -0.18 -0.66 -0.07 c -0.04 0.04 -0.07 0.09 -0.07 0.13 c 0 0.13 0.1 0.19 0.42 0.29 c 0.65 0.2 0.86 0.38 0.89 0.77 c 0.04 0.36 -0.17 0.73 -0.49 0.87 c -0.2 0.09 -0.56 0.11 -0.81 0.05"/><path d="m 4.54 9.99 c -0.01 -0.03 -0.21 -0.59 -0.45 -1.25 c -0.23 -0.66 -0.45 -1.25 -0.47 -1.32 l -0.04 -0.12 c 0.23 0 0.47 0 0.71 0 l 0.1 0.31 c 0.05 0.17 0.18 0.56 0.28 0.87 c 0.1 0.31 0.19 0.55 0.2 0.54 c 0.02 -0.02 0.14 -0.41 0.29 -0.87 l 0.27 -0.84 c 0.23 0 0.46 0 0.7 0 l -0.39 1.1 c -0.21 0.6 -0.43 1.22 -0.49 1.37 l -0.1 0.28 c -0.19 -0.01 -0.47 0.04 -0.61 -0.05"/><path d="m 6.41 8.66 v -1.36 h 0.42 c 0.84 0 1.2 0.1 1.48 0.39 c 0.55 0.57 0.46 1.67 -0.18 2.1 c -0.28 0.19 -0.49 0.23 -1.14 0.23 h -0.58 c 0 -0.45 0 -0.91 0 -1.36 m 1.33 0.62 c 0.17 -0.12 0.26 -0.3 0.27 -0.54 c 0.03 -0.51 -0.21 -0.77 -0.73 -0.77 h -0.25 c 0 0.48 0 0.95 0 1.43 c 0.24 -0.05 0.52 0 0.7 -0.12"/></g></svg>