<svg xmlns="http://www.w3.org/2000/svg" viewBox="0 0 16 16"><path d="m 0.2 9.83 c 3.13 14.99 24.62 -1.1 11.71 -8.73 c -5 -3.27 -13.31 1.01 -11.71 8.73" style="fill:#e84d31"/><path d="m 9.62 4.48 l 0.02 0.02 l 0.04 -0.02 m 0.48 0.5 l 2.97 2.77 v -2.77" style="fill-opacity:0.2"/><g style="fill:#fff"><path d="m 9.62 1.71 l 3.52 3.27 h -2.97 c -0.26 0 -0.54 -0.26 -0.54 -0.5 v -2.77" style="fill-opacity:0.39"/><path d="m 8.26 9.97 c -0.2 -0.05 -0.53 -0.2 -0.67 -0.32 l -0.09 -0.08 c 0.1 -0.19 0.19 -0.39 0.29 -0.58 l 0.09 0.06 c 0.45 0.29 0.95 0.34 0.95 0.09 c 0 -0.11 -0.07 -0.16 -0.41 -0.29 c -0.5 -0.19 -0.7 -0.36 -0.78 -0.68 c -0.05 -0.2 -0.02 -0.52 0.06 -0.69 c 0.08 -0.18 0.26 -0.36 0.45 -0.45 c 0.2 -0.09 0.61 -0.09 0.87 0 c 0.18 0.06 0.48 0.23 0.48 0.26 c 0 0.04 -0.26 0.6 -0.27 0.59 c -0.54 -0.27 -0.89 -0.31 -0.89 -0.09 c 0 0.11 0.06 0.16 0.3 0.25 c 0.57 0.22 0.75 0.36 0.86 0.64 c 0.13 0.34 0.04 0.82 -0.21 1.05 c -0.22 0.21 -0.64 0.3 -1.03 0.21"/><path d="m 5.56 9.9 c -0.09 -0.03 -0.18 -0.09 -0.27 -0.18 c -0.18 -0.18 -0.23 -0.35 -0.23 -0.69 c 0 -0.23 0.01 -0.28 0.08 -0.42 c 0.09 -0.19 0.25 -0.33 0.44 -0.4 c 0.18 -0.06 0.53 -0.05 0.72 0 c 0.08 0.02 0.15 0.04 0.16 0.04 c 0.04 0 -0.01 -0.29 -0.06 -0.36 c -0.2 -0.22 -0.6 -0.17 -0.84 -0.09 c -0.11 0.04 -0.16 0.05 -0.17 0.02 c -0.04 -0.22 -0.14 -0.44 -0.11 -0.66 c 0.02 -0.01 0.14 -0.05 0.27 -0.1 c 0.39 -0.09 0.8 -0.14 1.13 0 c 0.28 0.13 0.46 0.39 0.53 0.73 c 0.04 0.73 0.03 1.3 0.03 2.07 c -0.25 0 -0.5 0 -0.75 0 v -0.15 c 0 -0.09 0 -0.15 -0.01 -0.15 c -0.01 0 -0.05 0.04 -0.1 0.09 c -0.24 0.19 -0.57 0.3 -0.81 0.23 m 0.74 -0.63 c 0.1 -0.07 0.18 -0.25 0.18 -0.42 c 0 -0.16 -0.03 -0.19 -0.24 -0.22 c -0.27 -0.03 -0.45 0.13 -0.45 0.39 c 0.01 0.2 0.16 0.33 0.32 0.32 c 0.07 -0.01 0.14 -0.04 0.2 -0.06"/></g></svg>