<svg xmlns="http://www.w3.org/2000/svg" viewBox="0 0 16 16"><path d="m 0.2 9.83 c 3.13 14.99 24.62 -1.1 11.71 -8.73 c -5 -3.27 -13.31 1.01 -11.71 8.73" style="fill:#dcdcdc"/><path d="m 9.62 4.48 l 0.02 0.02 l 0.04 -0.02 m 0.48 0.5 l 2.97 2.77 v -2.77" style="fill-opacity:0.2"/><path d="m 9.62 1.71 l 3.52 3.27 h -2.97 c -0.26 0 -0.54 -0.26 -0.54 -0.5 v -2.77" style="fill:#fff;fill-opacity:0.39"/><g style="fill:#545454"><path d="m 5.57 10.39 c 0 0.17 0.05 0.3 0.16 0.38 c 0.1 0.07 0.25 0.11 0.45 0.12 v 0.36 c -0.34 0 -0.59 -0.07 -0.78 -0.22 c -0.18 -0.14 -0.28 -0.34 -0.28 -0.61 v -0.77 c 0 -0.18 -0.05 -0.3 -0.16 -0.38 c -0.11 -0.07 -0.27 -0.11 -0.49 -0.11 v -0.36 c 0.23 0 0.4 -0.04 0.5 -0.13 c 0.11 -0.07 0.15 -0.2 0.15 -0.36 v -0.77 c 0 -0.27 0.1 -0.46 0.29 -0.61 c 0.19 -0.14 0.45 -0.22 0.77 -0.22 v 0.35 c -0.4 0.01 -0.61 0.18 -0.61 0.5 v 0.75 c 0 0.36 -0.2 0.58 -0.59 0.64 v 0.03 c 0.4 0.07 0.59 0.28 0.59 0.64 v 0.75"/><path d="m 9.17 8.96 c -0.39 -0.07 -0.59 -0.28 -0.59 -0.64 v -0.75 c 0 -0.32 -0.2 -0.49 -0.6 -0.5 v -0.35 c 0.33 0 0.58 0.07 0.77 0.22 c 0.19 0.14 0.28 0.35 0.28 0.61 v 0.77 c 0 0.16 0.05 0.29 0.16 0.36 c 0.1 0.08 0.27 0.12 0.5 0.12 v 0.36 c -0.22 0 -0.38 0.04 -0.49 0.11 c -0.11 0.08 -0.17 0.2 -0.17 0.38 v 0.77 c 0 0.26 -0.09 0.46 -0.27 0.6 c -0.18 0.15 -0.44 0.22 -0.77 0.22 v -0.36 c 0.2 0 0.35 -0.04 0.45 -0.12 c 0.1 -0.08 0.15 -0.21 0.15 -0.38 v -0.75 c 0 -0.2 0.05 -0.34 0.14 -0.44 c 0.1 -0.1 0.25 -0.17 0.45 -0.2 v -0.03"/></g></svg>