<svg xmlns="http://www.w3.org/2000/svg" viewBox="0 0 16 16"><path d="m 0.2 9.83 c 3.13 14.99 24.62 -1.1 11.71 -8.73 c -5 -3.27 -13.31 1.01 -11.71 8.73" style="fill:#ffd733"/><path d="m 9.62 4.48 l 0.02 0.02 l 0.04 -0.02 m 0.48 0.5 l 2.97 2.77 v -2.77" style="fill-opacity:0.2"/><path d="m 9.62 1.71 l 3.52 3.27 h -2.97 c -0.26 0 -0.54 -0.26 -0.54 -0.5 v -2.77" style="fill:#fff;fill-opacity:0.39"/><path d="m 5.67 5.63 h 3.13 c 0.86 0 1.57 0.67 1.57 1.5 v 2.99 c 0 0.83 -0.7 1.5 -1.57 1.5 h -3.13 c -0.87 0 -1.57 -0.67 -1.57 -1.5 v -2.99 c 0 -0.82 0.7 -1.5 1.57 -1.5" style="fill:#fbb100"/><path d="m 7.21 8.43 h 1.36 v 1.7 c -0.18 0.06 -0.37 0.11 -0.57 0.14 c -0.19 0.04 -0.41 0.05 -0.66 0.05 c -0.51 0 -0.91 -0.14 -1.18 -0.43 c -0.28 -0.29 -0.41 -0.71 -0.41 -1.26 c 0 -0.34 0.07 -0.64 0.2 -0.89 c 0.14 -0.25 0.34 -0.44 0.61 -0.58 c 0.27 -0.14 0.59 -0.21 0.97 -0.21 c 0.18 0 0.36 0.02 0.54 0.05 c 0.18 0.04 0.34 0.09 0.48 0.15 l -0.25 0.55 c -0.1 -0.05 -0.22 -0.09 -0.36 -0.13 c -0.14 -0.04 -0.28 -0.05 -0.42 -0.05 c -0.21 0 -0.39 0.04 -0.55 0.13 c -0.15 0.09 -0.27 0.22 -0.36 0.39 c -0.08 0.16 -0.13 0.36 -0.13 0.58 c 0 0.21 0.03 0.41 0.09 0.57 c 0.06 0.16 0.16 0.29 0.29 0.39 c 0.13 0.09 0.3 0.14 0.52 0.14 c 0.11 0 0.19 0 0.26 -0.02 c 0.07 -0.01 0.14 -0.02 0.2 -0.03 v -0.68 h -0.65" style="fill:#fff"/></svg>