<svg xmlns="http://www.w3.org/2000/svg" viewBox="0 0 16 16"><path d="m 3.76 1.71 c 8.18 -5.73 16.47 4.85 9.8 11.6 c -6.28 6.36 -16 0.46 -12.99 -7.45 c 0.63 -1.65 1.68 -3.1 3.18 -4.15" style="fill:#f60"/><path d="m 5.93 5.91 l -3.23 1.79 l 3.53 1.96 l 3.5 -1.96 l -3.2 -1.79 v 1.38 l 1.26 0.7 c 0.05 0.02 0.05 0.09 0 0.12 l -1.5 0.83 c -0.05 0.02 -0.1 0.02 -0.13 0 l -1.49 -0.83 c -0.05 -0.02 -0.05 -0.09 0 -0.12 l 1.26 -0.7 m 3.8 0.41 l -3.5 1.96 l -3.53 -1.96 v 3.57 l 1.23 -0.69 v -1.39 c 0 -0.05 0.07 -0.08 0.1 -0.07 l 1.49 0.83 c 0.05 0.02 0.07 0.06 0.07 0.13 v 1.66 c 0.04 0.05 -0.03 0.08 -0.08 0.06 l -1.26 -0.7 l -1.23 0.69 l 3.22 1.79 l 3.2 -1.79 l -1.23 -0.69 l -1.26 0.72 c -0.05 0.03 -0.1 -0.02 -0.1 -0.07 v -1.66 c 0 -0.05 0.04 -0.1 0.07 -0.13 l 1.49 -0.83 c 0.05 -0.03 0.1 0.02 0.1 0.06 v 1.39 l 1.23 0.69" style="fill:#fff"/></svg>