<svg xmlns="http://www.w3.org/2000/svg" viewBox="0 0 16 16"><path d="m 3.76 1.71 c 8.18 -5.73 16.48 4.85 9.81 11.6 c -6.28 6.36 -16 0.46 -13 -7.45 c 0.64 -1.65 1.68 -3.1 3.18 -4.15" style="fill:#f60"/><g style="fill:#fff"><path d="m 2.57 7.1 c -0.08 -0.09 -0.2 -0.27 -0.27 -0.39 c -0.12 -0.22 -0.12 -0.22 0 -0.32 c 0.07 -0.05 0.28 -0.15 0.47 -0.22 c 0.29 -0.11 0.38 -0.18 0.49 -0.38 c 0.11 -0.19 0.25 -0.31 0.6 -0.51 c 0.25 -0.14 0.59 -0.3 0.76 -0.36 c 0.41 -0.13 1.36 -0.18 1.73 -0.09 c 0.46 0.11 0.86 0.31 0.9 0.45 c 0.02 0.07 0.02 0.14 0.02 0.14 c -0.01 0.01 -0.2 -0.01 -0.41 -0.05 c -0.48 -0.08 -0.92 -0.03 -1.27 0.14 c -0.34 0.16 -0.39 0.37 -0.23 0.8 c 0.02 0.05 -0.07 0.15 -0.27 0.27 c -0.29 0.18 -0.3 0.18 -0.45 0.08 c -0.24 -0.17 -0.59 -0.26 -0.88 -0.22 c -0.22 0.04 -0.29 0.09 -0.48 0.34 c -0.13 0.16 -0.3 0.34 -0.4 0.39 c -0.16 0.09 -0.18 0.08 -0.32 -0.08"/><path d="m 11.13 8.15 c -0.36 -0.38 -0.36 -0.38 -0.69 -0.38 c -0.22 0.01 -0.41 0.05 -0.57 0.15 c -0.25 0.14 -0.25 0.14 -0.46 0.02 c -0.31 -0.16 -0.34 -0.21 -0.27 -0.48 c 0.08 -0.34 0 -0.49 -0.35 -0.63 c -0.3 -0.12 -1.04 -0.15 -1.38 -0.06 c -0.2 0.05 -0.23 -0.07 -0.08 -0.23 c 0.37 -0.37 1.64 -0.5 2.45 -0.24 c 0.63 0.2 1.19 0.55 1.34 0.84 c 0.1 0.19 0.18 0.26 0.41 0.34 c 0.16 0.05 0.36 0.15 0.45 0.22 l 0.17 0.13 l -0.12 0.21 c -0.16 0.28 -0.36 0.49 -0.46 0.49 c -0.05 0 -0.24 -0.17 -0.44 -0.38"/><path d="m 5.61 13 c -0.2 -0.13 -0.39 -0.29 -0.42 -0.34 c -0.07 -0.12 0.02 -0.26 1.04 -1.62 l 0.66 -0.88 l -0.55 -0.89 c -0.3 -0.49 -0.55 -0.96 -0.56 -1.05 c -0.01 -0.13 -0.46 -0.82 -0.88 -1.37 c -0.03 -0.04 0.07 -0.14 0.25 -0.26 l 0.3 -0.2 l 0.48 0.67 c 0.33 0.46 0.52 0.67 0.6 0.67 c 0.08 0 0.31 0.23 0.67 0.68 c 0.35 0.43 0.58 0.66 0.63 0.64 c 0.05 -0.02 0.12 -0.03 0.17 -0.03 c 0.04 0 0.28 -0.28 0.52 -0.61 c 0.24 -0.34 0.47 -0.61 0.5 -0.61 c 0.03 0 0.16 0.07 0.3 0.16 c 0.28 0.19 0.31 0.11 -0.32 0.96 c -0.2 0.27 -0.34 0.53 -0.33 0.57 c 0.02 0.05 -0.02 0.18 -0.09 0.29 l -0.13 0.21 l 0.46 0.65 c 0.26 0.36 0.48 0.69 0.5 0.73 c 0.04 0.11 -0.18 0.3 -0.61 0.57 c -0.41 0.25 -0.46 0.23 -0.83 -0.29 c -0.15 -0.21 -0.29 -0.37 -0.3 -0.37 c -0.02 0 -0.34 0.43 -0.71 0.96 c -0.52 0.74 -0.71 0.96 -0.82 0.98 c -0.09 0.01 -0.29 -0.08 -0.51 -0.23"/></g></svg>