<svg xmlns="http://www.w3.org/2000/svg" viewBox="0 0 24 24"><path d="m 12.34 0.2 c -2.45 0.19 -5.32 1.36 -7.31 3 c -2.43 1.98 -4.21 5 -4.69 8 c -0.57 3.96 1.73 8.22 4.32 10.24 c 1.3 0.98 3 1.77 4.64 2.11 c 4.21 0.89 8.59 -0.8 11.6 -4.47 c 1.8 -2.2 2.73 -4.41 2.96 -7 c 0.27 -3.14 -0.97 -6.52 -3.23 -8.79 c -2.57 -2.14 -5.23 -3.3 -8.28 -3.08" style="fill:#2f4e4e"/><path d="m 14.9 11.79 c -1.46 0.83 -2.16 1.43 -3.45 1.84 c 0.28 -0.83 0.56 -1.67 0.89 -2.48 c 0.43 -1.06 0.31 -1.61 -0.65 -3.05 c -0.41 -0.62 -0.75 -1.13 -0.75 -1.15 c 0.95 -0.02 1.89 0.02 2.91 0.05 c 0.86 -0.79 1.29 -1.45 2.17 -2.19 c 0.27 0.97 0.35 1.74 0.52 2.81 c 0.84 0.26 1.69 0.52 2.54 0.78 c 0.29 0.09 0.52 0.2 0.52 0.24 c -0.86 0.75 -1.59 1.22 -2.59 1.93 c 0.17 0.54 1.44 3.42 1.14 3.59 c -0.99 -0.73 -2.34 -1.69 -3.27 -2.36" style="fill:#f9de28"/><g style="fill:#ff8c00"><path d="m 7.98 13.52 c -0.02 -0.07 -0.01 -0.49 -0.09 -0.98 c -0.08 -0.49 -0.15 -1.06 -0.18 -1.13 c -0.14 -0.34 -0.68 -0.23 -0.95 -0.27 l 0.01 -0.14 c 0.02 -0.23 0.86 -2.57 1.15 -3.22 c 0.09 -0.2 0.14 -0.27 0.21 -0.28 c 0.2 -0.02 1.53 0.41 1.81 0.58 c 0.08 0.05 0.09 0.09 0.08 0.49 c -0.02 0.82 -0.35 3.8 -0.52 4.73 c -0.03 0.25 -0.05 0.52 -0.34 0.52 c -0.33 -0.06 -1.07 -0.02 -1.18 -0.31"/><path d="m 6.99 18.82 c -0.16 -0.08 -0.41 -0.35 -0.48 -0.5 c -0.07 -0.15 -0.08 -0.33 -0.03 -0.43 c 0.05 -0.09 0.17 -0.08 0.4 0.02 c 0.14 0.08 0.18 0.1 0.31 0.02 c 0.2 -0.13 0.27 -0.31 0.18 -0.49 c -0.02 -0.04 -0.12 -0.17 -0.23 -0.29 c -0.43 -0.5 -0.57 -0.79 -0.5 -1.04 c 0.05 -0.19 0.16 -0.32 0.38 -0.42 c 0.34 -0.17 0.55 -0.15 0.77 0.06 c 0.11 0.1 0.11 0.19 0.01 0.31 c -0.07 0.09 -0.1 0.09 -0.28 0.09 c -0.34 -0.02 -0.52 0.17 -0.4 0.41 c 0.03 0.06 0.18 0.25 0.34 0.42 c 0.31 0.35 0.37 0.48 0.41 0.85 c 0.04 0.41 -0.13 0.85 -0.39 0.98 c -0.16 0.05 -0.35 0.07 -0.48 0.01"/><path d="m 8.71 19.45 c -0.15 -0.1 -0.31 -0.26 -0.41 -0.41 c -0.07 -0.11 -0.07 -0.29 0.02 -0.47 c 0.09 -0.18 0.19 -0.24 0.31 -0.16 c 0.22 0.15 0.54 0.09 0.64 -0.13 c 0.05 -0.1 0.05 -0.14 0.02 -0.27 c -0.05 -0.2 -0.15 -0.34 -0.48 -0.72 c -0.23 -0.26 -0.29 -0.35 -0.32 -0.48 c -0.13 -0.55 0.36 -1.15 0.9 -1.1 c 0.15 0.01 0.2 0.03 0.28 0.13 c 0.13 0.16 0.1 0.29 0.02 0.46 c -0.03 0.03 -0.15 0.06 -0.29 0.08 c -0.26 0.03 -0.3 0.05 -0.38 0.22 c -0.07 0.16 -0.04 0.25 0.16 0.48 c 0.45 0.5 0.54 0.66 0.59 1.02 c 0.04 0.28 0 0.79 -0.09 0.96 c -0.03 0.07 -0.13 0.18 -0.2 0.26 c -0.28 0.26 -0.5 0.3 -0.75 0.14"/><path d="m 10.24 19.69 c -0.04 -0.02 -0.04 -0.24 -0.03 -1.39 c 0.03 -1.71 0.07 -2.32 0.15 -2.4 c 0.09 -0.09 0.24 -0.09 0.32 -0.01 c 0.05 0.05 0.05 0.17 0.05 0.84 c 0 0.75 -0.08 2.48 -0.12 2.76 c -0.03 0.2 -0.22 0.3 -0.38 0.2"/><path d="m 11.62 19.94 c -0.21 -0.11 -0.45 -0.41 -0.45 -0.56 c 0 -0.11 0.14 -0.45 0.22 -0.54 c 0.25 -0.11 0.64 0.01 0.79 -0.27 c 0.07 -0.14 0.08 -0.38 0.01 -0.5 c -0.03 -0.05 -0.18 -0.2 -0.33 -0.33 c -0.38 -0.32 -0.5 -0.55 -0.5 -0.94 c 0 -0.32 0.08 -0.51 0.29 -0.74 c 0.3 -0.33 0.61 -0.37 0.87 -0.13 c 0.16 0.15 0.15 0.36 -0.01 0.52 c -0.2 0.12 -0.49 0.05 -0.58 0.26 c -0.1 0.24 -0.03 0.43 0.25 0.68 c 0.43 0.38 0.6 0.75 0.6 1.27 c 0 0.39 -0.13 0.72 -0.4 1.02 c -0.27 0.3 -0.53 0.39 -0.75 0.27"/><path d="m 13.98 19.63 c -0.32 -0.13 -0.38 -0.36 -0.41 -1.82 c -0.01 -0.6 -0.04 -0.98 -0.06 -1.02 c -0.02 -0.03 -0.18 -0.04 -0.24 -0.05 c -0.14 -0.04 -0.21 -0.1 -0.26 -0.33 c -0.04 -0.18 0.07 -0.27 0.13 -0.35 c 0.04 -0.05 0.15 -0.12 0.26 -0.18 c 0.22 -0.11 0.77 -0.29 0.95 -0.31 c 0.12 -0.02 0.23 -0.11 0.27 -0.03 c 0.04 0.11 0.25 0.38 0 0.64 c -0.12 0.16 -0.27 0.3 -0.33 0.47 c -0.02 0.07 -0.04 0.73 -0.06 1.45 c -0.02 0.83 -0.04 1.35 -0.06 1.4 c -0.04 0.09 -0.13 0.15 -0.2 0.12"/><path d="m 15 19.45 c -0.19 -0.15 -0.19 -0.29 0.01 -1.69 c 0.2 -1.4 0.31 -1.97 0.41 -2.08 c 0.07 -0.07 0.16 -0.02 0.23 0.12 c 0.11 0.22 0.91 2.71 0.91 2.84 c 0 0.04 -0.16 0.27 -0.29 0.39 c -0.09 0.09 -0.13 0.06 -0.27 -0.17 c -0.07 -0.12 -0.16 -0.22 -0.18 -0.22 c -0.37 0.02 -0.36 0.31 -0.49 0.61 c -0.13 0.3 -0.17 0.33 -0.34 0.2 m 0.77 -1.3 l 0.12 -0.06 l -0.02 -0.28 c -0.04 -0.6 -0.22 -1.11 -0.35 -0.98 c -0.06 0.06 -0.14 0.66 -0.14 1.05 v 0.33 c 0.14 0 0.28 -0.02 0.39 -0.05"/><path d="m 17 18.75 c -0.02 -0.06 -0.06 -0.32 -0.08 -0.58 c -0.05 -0.57 -0.1 -2.3 -0.06 -2.38 c 0.03 -0.09 0.1 -0.05 0.54 0.33 c 0.52 0.44 0.62 0.43 0.52 -0.11 c -0.11 -0.57 -0.11 -0.64 -0.02 -0.66 c 0.13 -0.03 0.3 0.04 0.36 0.16 c 0.03 0.05 0.07 0.21 0.1 0.36 c 0.05 0.29 0.24 1.9 0.2 1.95 c -0.05 0.04 -0.31 -0.13 -0.49 -0.34 c -0.38 -0.48 -0.5 -0.59 -0.58 -0.58 c -0.07 0.01 -0.08 0.03 -0.07 0.25 c 0.02 0.45 0.19 0.83 0.22 1.28 c -0.03 0.11 -0.42 0.46 -0.51 0.46 c -0.05 0 -0.08 -0.04 -0.11 -0.12"/><path d="m 19.31 17.39 c -0.04 -0.05 -0.07 -0.29 -0.09 -0.66 c -0.02 -0.32 -0.06 -0.65 -0.09 -0.74 c -0.06 -0.18 0.04 -0.22 -0.2 -0.18 c -0.18 0.03 -0.21 0.04 -0.23 0 c -0.03 -0.06 -0.18 -0.12 0.18 -0.39 c 0.21 -0.16 1.15 -0.69 1.32 -0.62 c 0.07 0.02 -0.16 0.33 -0.22 0.37 c -0.12 0.08 -0.19 0.41 -0.29 1.35 c -0.06 0.57 -0.1 0.77 -0.19 0.87 c -0.1 0.11 -0.13 0.11 -0.19 0"/><path d="m 5.87 17.85 c -0.16 -0.27 -0.19 -0.54 -0.32 -0.83 c -0.05 -0.09 -0.08 -0.12 -0.02 -0.26 c 0.07 -0.15 0.07 -0.18 0 -0.45 c -0.09 -0.39 -0.2 -0.6 -0.3 -0.6 c -0.14 0 -0.21 0.16 -0.22 0.47 c 0 0.24 0.01 0.31 0.11 0.48 l 0.6 0.04 l 0.01 0.47 c 0 0.09 -0.7 -0.04 -0.7 -0.01 c 0 0.07 -0.14 0.16 -0.25 0.16 c -0.05 0 -0.14 -0.03 -0.2 -0.07 c -0.09 -0.06 -0.1 -0.09 -0.09 -0.3 c 0.01 -0.24 0.2 -1.06 0.34 -1.45 c 0.09 -0.25 0.16 -0.3 0.37 -0.3 c 0.22 0 0.33 0.11 0.43 0.41 c 0.2 0.62 0.52 2.22 0.47 2.3 c -0.04 0.06 -0.13 0.04 -0.22 -0.06"/><path d="m 3.84 12.79 c 0 -0.02 0 -0.16 0 -0.3 c -0.01 -0.42 -0.07 -0.36 -0.39 -0.3 c -0.11 -0.85 -0.37 -0.67 0.4 -0.89 c 0 -0.2 0 -0.36 0 -0.57 c -0.17 0 -0.29 0.03 -0.47 0.06 c -0.04 -0.26 -0.09 -0.52 -0.13 -0.79 c 0.2 -0.04 0.41 -0.08 0.61 -0.11 c 0 -0.23 0 -0.45 0 -0.68 c 0.23 -0.04 0.47 -0.08 0.71 -0.11 c 0 0.23 -0.01 0.41 0 0.66 c 0.23 0.01 0.38 -0.04 0.66 -0.09 c 0 -0.23 0 -0.46 0 -0.68 c 0.23 -0.04 0.47 -0.07 0.71 -0.11 c -0.01 0.22 -0.01 0.45 0 0.68 c 0.14 0 0.24 -0.02 0.38 -0.05 c 0.04 0.26 0.09 0.52 0.13 0.79 c -0.18 0.03 -0.35 0.07 -0.52 0.1 c 0 0.2 0 0.41 -0.01 0.59 c 0.16 -0.02 0.31 -0.05 0.47 -0.07 c 0.04 0.26 0.09 0.52 0.13 0.79 c -0.2 0.04 -0.39 0.07 -0.59 0.11 v 0.07 c -0.01 0.23 -0.01 0.41 -0.01 0.64 c -0.23 0.04 -0.47 0.08 -0.7 0.12 c 0 -0.23 0.02 -0.47 0 -0.7 c -0.02 -0.02 -0.63 0.08 -0.64 0.11 c -0.01 0.02 -0.02 0.66 -0.02 0.69 c -0.23 0.04 -0.5 0.11 -0.7 0.08 m 1.39 -1.94 c 0 -0.13 0 -0.26 0 -0.39 c -0.23 0.04 -0.46 0.07 -0.69 0.11 c -0.01 0.21 -0.01 0.43 -0.01 0.61 c 0.23 0.04 0.37 -0.03 0.7 -0.09 c 0 -0.09 0 -0.17 0 -0.24"/></g></svg>