<svg xmlns="http://www.w3.org/2000/svg" viewBox="0 0 24 24"><path d="m 18.36 2.47 c -12.27 -8.64 -24.71 7.31 -14.71 17.47 c 9.42 9.58 24.1 0.7 19.49 -11.22 c -0.96 -2.49 -2.52 -4.67 -4.78 -6.25" style="fill:#dd9fdd"/><path d="m 4.7 14.42 c 0.38 -0.18 0.61 -0.11 1.18 -0.13 l 0.02 -3.16 c 0.02 -2.03 0.04 -3.17 0.06 -3.19 c 0.02 -0.02 0.72 -0.05 1.43 -0.07 c 0.15 1.04 0.11 6.89 -0.04 9.7 c -0.78 -0.77 -1.96 -2.41 -2.66 -3.16" style="fill:#4d3d77"/><path d="m 9 5.95 h 6.58 c 0.97 0 1.76 0.78 1.76 1.74 v 9.78 c 0 0.96 -0.79 1.74 -1.76 1.74 h -6.58 c -0.97 0 -1.76 -0.78 -1.76 -1.74 v -9.78 c 0 -0.96 0.79 -1.74 1.76 -1.74" style="fill:#be5fc8"/><path d="m 16.2 10.9 c 0 2.18 -1.77 3.95 -3.95 3.95 c -2.18 0 -3.94 -1.77 -3.94 -3.95 c 0 -2.18 1.77 -3.94 3.94 -3.94 c 2.18 0 3.95 1.77 3.95 3.94" style="fill:#ffe4e0"/><path d="m 14.65 17.88 c -0.38 -1.13 -1.84 -4.82 -1.91 -5 c -0.62 -1.44 -0.82 -2.4 -0.43 -1.87 c 0.91 1.32 3.55 5.38 3.83 5.76 l 0.34 0.48 c -0.11 1.06 -0.92 1.43 -1.64 0.95 c -0.07 0.02 -0.1 -0.03 -0.18 -0.27" style="fill:#9400d2"/><g style="fill:#ffe4e0"><path d="m 11.42 17.1 c -0.28 -0.26 -0.32 -0.32 -0.28 -0.38 c 0.02 -0.04 0.37 -0.4 0.77 -0.81 c 0.64 -0.65 0.74 -0.73 0.85 -0.73 c 0.16 0 0.31 0.04 0.31 0.07 c 0 0.02 -0.32 0.35 -0.72 0.75 c -0.4 0.39 -0.72 0.73 -0.72 0.75 c 0 0.02 0.07 0.11 0.16 0.21 c 0.18 0.2 0.2 0.31 0.05 0.4 c -0.09 0.06 -0.11 0.05 -0.41 -0.25"/><path d="m 11.36 18.61 c 0 -0.06 0.34 -0.45 1.02 -1.17 c 0.38 -0.4 0.41 -0.44 0.36 -0.51 c -0.03 -0.04 -0.11 -0.15 -0.18 -0.25 c -0.07 -0.1 -0.13 -0.19 -0.13 -0.21 c 0 -0.02 0.04 -0.06 0.1 -0.1 c 0.09 -0.06 0.1 -0.06 0.21 0.02 c 0.06 0.05 0.21 0.19 0.34 0.33 c 0.21 0.23 0.23 0.25 0.18 0.34 c -0.07 0.13 -1.2 1.31 -1.42 1.47 c -0.2 0.15 -0.47 0.2 -0.47 0.08"/></g><g style="fill:#dd9fdd"><path d="m 13.1 10.84 c 0 0.58 -0.46 1.05 -1.03 1.05 c -0.57 0 -1.03 -0.47 -1.03 -1.05 c 0 -0.58 0.46 -1.05 1.03 -1.05 c 0.57 0 1.03 0.47 1.03 1.05"/><path d="m 15.89 17.31 c 0 0.26 -0.21 0.48 -0.48 0.48 c -0.26 0 -0.48 -0.21 -0.48 -0.48 c 0 -0.27 0.21 -0.48 0.48 -0.48 c 0.27 0 0.48 0.21 0.48 0.48"/></g></svg>