<svg xmlns="http://www.w3.org/2000/svg" viewBox="0 0 24 24"><path d="m 2.15 18.3 c -7.81 -12.2 8.69 -24.57 18.1 -14.63 c 8.91 9.37 -0.74 23.93 -12.25 19.38 c -2.4 -0.95 -4.46 -2.51 -5.9 -4.75" style="fill:#ececec"/><path d="m 4.3 15.3 c 0 -2 0 -4 0 -6 c 1.59 -1.52 3.18 -3.05 4.76 -4.58 c 2.08 0 4.16 0 6.24 0 c 1.54 1.53 3.09 3.06 4.63 4.59 c 0 2.05 0 4.09 0 6.14 c -1.77 1.55 -3.06 3.07 -4.71 4.36 c -2.07 0 -4.15 0 -6.22 0 c -1.57 -1.49 -3.14 -2.97 -4.7 -4.46" style="fill:#636363"/><path d="m 10.54 15.9 c -0.32 -0.03 -0.52 -0.14 -0.84 -0.46 c -0.54 -0.54 -0.74 -1.18 -0.57 -1.79 c 0.14 -0.5 0.46 -0.91 1.05 -1.32 c 0.21 -0.15 0.56 -0.43 0.77 -0.63 c 0.46 -0.42 0.58 -0.48 0.93 -0.46 c 0.29 0.02 0.48 0.12 0.72 0.36 c 0.22 0.22 0.27 0.36 0.24 0.76 c -0.02 0.48 -0.19 0.76 -0.56 0.93 c -0.14 0.06 -0.23 0.08 -0.5 0.08 c -0.38 0 -0.39 -0.01 -0.87 -0.38 c -0.17 -0.13 -0.3 -0.21 -0.33 -0.2 c -0.19 0.07 -0.61 0.36 -0.7 0.47 c -0.47 0.75 -0.23 1.79 0.66 2.11 c 0.17 0.05 0.37 0.06 2.06 0.07 c 2.17 0.02 3.08 -0.02 3.32 -0.13 c 0.19 -0.08 0.42 -0.3 0.54 -0.5 c 0.21 -0.34 0.25 -0.85 0.12 -1.2 c -0.08 -0.22 -0.3 -0.48 -0.6 -0.71 c -0.32 -0.21 -0.32 -0.58 -0.36 -0.87 c -0.04 -0.3 -0.08 -0.59 -0.1 -0.64 c -0.16 -0.53 -0.6 -0.92 -1.19 -1.05 c -0.88 -0.19 -1.08 0.07 -1.51 -0.57 c -0.57 -0.85 -1 -1.11 -1.93 -1.14 c -0.73 -0.02 -1 0.05 -1.42 0.38 c -0.41 0.33 -0.74 0.78 -0.91 1.25 c -0.09 0.27 -0.22 0.41 -0.7 0.8 c -0.5 0.4 -0.72 0.8 -0.29 1.11 c 0.55 0.4 0.72 0.64 0.72 1.01 c 0 0.27 -0.08 0.48 -0.24 0.67 c -0.17 0.19 -0.32 0.29 -0.56 0.35 c -0.51 0.13 -0.91 0.04 -1.21 -0.47 c -0.18 -0.3 -0.2 -0.69 0.04 -1.14 c 0.07 -0.14 0.39 -0.46 0.38 -0.71 c -0.03 -0.77 0.07 -0.89 0.5 -1.23 c 0.56 -0.44 0.75 -0.77 1.02 -1.21 c 0.46 -0.78 0.77 -1.08 1.39 -1.39 c 0.36 -0.18 0.77 -0.18 1.28 -0.18 c 0.54 0 0.8 0.06 1.21 0.27 c 0.4 0.21 0.7 0.45 1.1 0.9 c 0.34 0.38 0.27 0.35 1.04 0.48 c 0.7 0.11 0.96 0.23 1.36 0.62 c 0.45 0.43 0.68 0.82 0.7 1.54 c 0.02 0.61 0.08 0.59 0.51 0.97 c 0.16 0.14 0.26 0.41 0.33 0.54 c 0.41 0.82 0.25 1.6 -0.49 2.29 c -0.33 0.31 -0.49 0.38 -0.94 0.41 c -1.73 -0.04 -3.46 0.11 -5.19 0 m -3.05 -2.21 c 0.06 -0.04 0.15 -0.13 0.2 -0.2 c 0.15 -0.21 0.05 -0.51 -0.23 -0.72 c -0.16 -0.12 -0.34 -0.12 -0.51 0.02 c -0.35 0.27 -0.31 0.46 -0.14 0.67 c 0.25 0.3 0.46 0.37 0.68 0.23 m 4.76 -1.57 c -0.09 -0.19 -0.33 -0.27 -0.48 -0.24 c -0.24 0.05 -0.48 0.27 -0.48 0.46 c 0 0.11 0.14 0.33 0.26 0.41 c 0.38 0.37 1.05 -0.18 0.69 -0.63" style="fill:#fff"/></svg>