<svg xmlns="http://www.w3.org/2000/svg" viewBox="0 0 24 24"><path d="m 3.04 17.81 c -8.48 -9.67 4.08 -19.91 11.44 -17.39 c 7.36 2.52 12.31 9.62 7.5 15.85 c -4.81 6.23 -9.53 12.23 -18 2.56" style="fill:#ffd600"/><g style="fill:#0ab1dd"><path d="m 6.85 8.31 c 0 -0.12 0.35 -0.69 0.69 -1.13 c 0.74 -0.96 1.84 -1.72 3 -2.1 c 1.12 -0.23 2.12 -0.37 3.11 -0.1 c 1.28 0.35 2.26 0.93 3.11 1.84 c 0.34 0.36 0.75 0.94 0.75 1.05 c -0.38 0.23 -0.59 0.2 -1.09 0.29 l -0.5 -0.49 c -0.82 -0.8 -1.3 -1.12 -2.17 -1.43 c -0.79 -0.27 -2.37 -0.19 -2.94 0 c -1.15 0.43 -1.85 1.13 -2.68 1.93 l -0.62 0.12 c -0.34 0.06 -0.64 0.12 -0.66 0.12 c -0.02 0 -0.04 -0.04 -0.04 -0.09"/><path d="m 9.71 17.91 c -0.84 -1 -2.14 -2.83 -2.46 -3.48 l -0.08 -0.16 c 0.31 -0.13 0.61 -0.17 0.93 -0.23 l 0.5 0.53 c 0.74 0.78 1.39 1.22 2.24 1.51 c 1.05 0.33 2.13 0.27 3.05 -0.03 c 0.73 -0.25 1.25 -0.59 1.88 -1.23 c 0.61 -0.62 0.92 -1.11 1.24 -1.94 c 0.07 -0.2 0.16 -0.39 0.2 -0.43 c 0.07 -0.09 0.79 -0.22 1.04 -0.2 c 0.08 0.01 0.06 0.13 -0.07 0.52 c -0.54 1.55 -1.95 3.68 -4 6 c -0.77 0.89 -1.76 1.9 -1.85 1.9 c -0.95 -0.81 -1.79 -1.82 -2.61 -2.79"/></g><path d="m 3.36 12.82 v -2 l 0.39 -0.07 c 0.21 -0.04 0.63 -0.12 0.91 -0.19 l 0.52 -0.13 l 0.09 -0.71 c 0.07 -0.59 0.13 -0.71 0.31 -0.76 c 1.37 -0.35 6.46 -1.18 6.68 -1.1 c 0.1 0.04 0.17 0.19 0.18 0.36 c 0 0.59 0.11 0.77 0.44 0.77 c 0.36 0 3.13 -0.47 5.91 -1 c 1.06 -0.2 1.96 -0.34 2 -0.31 c 0.13 0.08 0.11 3.94 -0.02 4 c -0.13 0.08 -16.85 3.13 -17.2 3.13 h -0.23" style="fill:#e33744"/><g style="fill:#fff"><path d="m 4.15 13.53 c -0.17 -0.49 0.46 -0.85 0.68 -0.97 c 0.39 -0.23 0.26 -0.37 -0.25 -0.27 c -0.27 0.05 -0.32 0.03 -0.32 -0.17 c 0 -0.08 0.03 -0.15 0.08 -0.18 c 0.14 -0.1 0.49 -0.18 0.81 -0.18 c 0.51 0 0.56 0.07 0.62 0.83 c 0.03 0.39 0.03 0.4 0.17 0.53 c 0.11 0.1 0.13 0.15 0.11 0.23 c -0.04 0.14 -0.29 0.24 -0.68 0.25 c -0.17 0.01 -0.38 0.04 -0.46 0.07 c -0.29 0.11 -0.63 0.13 -0.75 -0.14 m 0.87 -0.33 c 0.16 -0.17 0.06 -0.31 -0.18 -0.25 c -0.35 0.19 -0.03 0.46 0.18 0.25"/><path d="m 6.48 12.8 c -0.01 -0.35 -0.04 -0.66 -0.07 -0.71 c -0.09 -0.13 -0.29 -0.19 -0.26 -0.32 c 0.01 -0.06 0.05 -0.13 0.07 -0.16 c 0.03 -0.03 0.27 -0.09 0.53 -0.13 c 0.26 -0.04 0.56 -0.11 0.67 -0.14 c 0.36 -0.11 0.49 -0.08 0.64 0.15 c 0.06 0.09 0.08 0.21 0.09 0.69 c 0.02 0.63 0 0.83 -0.1 0.93 c -0.07 0.07 -0.39 0.09 -0.43 0.02 c -0.01 -0.02 -0.03 -0.22 -0.04 -0.45 c -0.04 -0.68 -0.05 -0.76 -0.16 -0.81 c -0.07 -0.04 -0.12 -0.03 -0.2 0.02 c -0.13 0.09 -0.18 0.27 -0.22 0.83 c -0.02 0.25 -0.05 0.49 -0.06 0.53 c -0.02 0.07 -0.21 0.16 -0.36 0.16 c -0.09 0 -0.09 -0.02 -0.11 -0.62"/><path d="m 8.86 12.89 c -0.2 -0.28 -0.18 -0.57 -0.18 -0.95 c 0 -0.24 -0.06 -0.38 -0.16 -0.38 c -0.02 0 -0.05 -0.04 -0.07 -0.1 c -0.05 -0.13 -0.13 -0.26 0.12 -0.38 c 0.06 -0.03 0.1 -0.15 0.12 -0.27 c 0.04 -0.21 0.16 -0.36 0.34 -0.41 c 0.13 -0.03 0.2 0.04 0.24 0.24 c 0.04 0.23 0.09 0.31 0.19 0.31 c 0.2 0 0.26 0.27 0.08 0.39 c -0.27 0.18 -0.27 0.19 -0.24 0.58 c 0 0.25 0.01 0.43 0.21 0.54 c 0.12 0.07 0.15 0.11 0.15 0.2 c -0.05 0.22 -0.27 0.26 -0.48 0.29 c -0.14 0.01 -0.24 -0.01 -0.31 -0.07"/><path d="m 10.35 12.67 c -0.03 -0.02 -0.11 -0.07 -0.17 -0.13 c -0.46 -0.43 -0.29 -1.41 0.32 -1.72 c 0.3 -0.16 0.54 -0.17 0.77 -0.05 c 0.23 0.13 0.32 0.29 0.32 0.64 c 0.04 0.32 -0.07 0.28 -0.35 0.34 c -0.41 0.08 -0.69 0.2 -0.69 0.27 c 0 0.03 0.04 0.09 0.08 0.13 c 0.07 0.06 0.12 0.07 0.33 0.04 c 0.46 -0.06 0.57 -0.05 0.58 0.04 c 0.02 0.14 -0.13 0.29 -0.38 0.36 c -0.26 0.07 -0.71 0.12 -0.8 0.08 m 0.6 -1.31 c 0.11 -0.08 0.1 -0.08 0 -0.16 c -0.11 -0.09 -0.21 -0.08 -0.34 0.04 c -0.18 0.18 -0.07 0.38 0.34 0.12"/><path d="m 12.14 12 c 0 -0.18 -0.02 -0.47 -0.04 -0.63 c -0.02 -0.27 -0.04 -0.31 -0.16 -0.41 c -0.14 -0.11 -0.16 -0.24 -0.07 -0.34 c 0.06 -0.06 0.27 -0.12 0.64 -0.17 c 0.27 -0.06 0.55 -0.18 0.8 -0.18 c 0.22 0 0.27 0.02 0.35 0.1 c 0.13 0.14 0.14 0.25 0.14 0.94 c 0 0.7 -0.04 0.82 -0.28 0.82 c -0.21 0 -0.24 -0.06 -0.29 -0.63 c -0.05 -0.64 -0.07 -0.71 -0.22 -0.7 c -0.17 0.02 -0.28 0.29 -0.35 0.86 c -0.03 0.26 -0.06 0.49 -0.06 0.51 c 0 0.09 -0.14 0.16 -0.3 0.16 c -0.25 0.04 -0.18 -0.12 -0.18 -0.33"/><path d="m 14.4 11.28 c 0 -0.7 0.01 -0.66 -0.24 -0.85 c -0.08 -0.06 -0.09 -0.09 -0.05 -0.15 c 0.08 -0.14 0.29 -0.22 0.66 -0.28 c 0.2 -0.03 0.45 -0.08 0.54 -0.12 c 0.27 -0.1 0.53 -0.09 0.64 0.04 c 0.09 0.1 0.1 0.12 0.11 0.91 l 0.01 0.8 l -0.11 0.04 c -0.18 0.07 -0.33 0.05 -0.38 -0.05 c -0.1 -0.31 -0.07 -1.4 -0.33 -1.23 c -0.19 0.13 -0.23 0.24 -0.26 0.78 c -0.02 0.29 -0.04 0.55 -0.06 0.59 c -0.17 0.14 -0.34 0.15 -0.54 0.15 c 0 -0.22 0 -0.43 0 -0.65"/><path d="m 16.7 11.36 c -0.21 -0.19 -0.27 -0.32 -0.27 -0.64 c 0 -0.38 0.09 -0.65 0.28 -0.87 c 0.18 -0.21 0.42 -0.34 0.71 -0.38 c 0.26 -0.03 0.42 0.08 0.56 0.29 c 0.11 0.17 0.15 0.52 0.07 0.63 c -0.03 0.04 -0.21 0.11 -0.43 0.17 c -0.49 0.13 -0.52 0.14 -0.52 0.25 c 0 0.15 0.12 0.19 0.46 0.14 c 0.45 -0.06 0.45 -0.06 0.45 0.07 c 0 0.25 -0.29 0.39 -0.88 0.44 c -0.3 0.02 -0.3 0.02 -0.45 -0.11 m 0.75 -1.19 c 0.16 -0.13 -0.1 -0.29 -0.3 -0.18 c -0.08 0.04 -0.2 0.25 -0.15 0.31 c 0.05 0.05 0.37 -0.07 0.45 -0.13"/><path d="m 19.48 10.88 c -0.04 -0.62 -0.02 -1.11 -0.03 -1.75 l -0.18 0.03 c -0.21 0.04 -0.25 0 -0.25 -0.23 c 0 -0.13 0.02 -0.16 0.15 -0.25 c 0.16 -0.11 0.65 -0.3 0.77 -0.3 c 0.07 0 0.07 0.09 0.07 1.24 c 0 0.68 -0.02 1.27 -0.04 1.29 c -0.04 0.06 -0.25 0.13 -0.39 0.13 c -0.09 -0.05 -0.09 -0.07 -0.11 -0.15"/></g></svg>