<svg xmlns="http://www.w3.org/2000/svg" viewBox="0 0 24 24"><path d="m 12.3 23.94 c -2.46 -0.19 -5.34 -1.38 -7.34 -3 c -2.44 -2 -4.23 -5.08 -4.71 -8.11 c -0.57 -4 1.73 -8.3 4.33 -10.34 c 1.3 -1 3.04 -1.79 4.66 -2.13 c 4.22 -0.9 8.62 0.8 11.64 4.51 c 1.81 2.22 2.75 4.46 2.98 7.11 c 0.27 3.18 -0.97 6.58 -3.24 8.88 c -2.59 2.16 -5.25 3.33 -8.31 3.11" style="fill:#d9e4e5"/><path d="m 12.41 22.45 c -2.15 -0.17 -4.66 -1.2 -6.41 -2.63 c -2.13 -1.75 -3.7 -4.42 -4.11 -7.1 c -0.5 -3.48 1.51 -7.23 3.79 -9 c 1.14 -0.87 2.65 -1.55 4.07 -1.86 c 3.68 -0.79 7.53 0.7 10.17 3.93 c 1.58 1.93 2.4 3.88 2.6 6.19 c 0.24 2.77 -0.85 5.73 -2.83 7.73 c -2.25 1.88 -4.58 2.9 -7.25 2.71" style="fill:#8ccef3"/><path d="m 12.14 22.39 c -1.79 -0.22 -3.62 -0.91 -5.23 -1.96 c -1.96 -1.28 -3.77 -3.65 -4.53 -5.94 l -0.17 -0.52 l 10.1 -0.02 c 5.54 -0.01 10.1 0 10.11 0.02 c 0.06 0.06 -0.19 1.17 -0.41 1.86 c -0.6 1.82 -1.65 3.37 -2.96 4.38 c -1.47 1.12 -2.92 1.8 -4.43 2.09 c -0.68 0.13 -1.84 0.18 -2.46 0.1" style="fill:#006a9a"/><path d="m 10.79 14.67 c -0.14 -0.11 -0.24 -0.34 -0.21 -0.49 c 0.05 -0.26 0.2 -0.29 2.02 -0.32 c 2.2 -0.05 2.23 -0.06 2.86 -1.18 c 0.34 -0.61 0.36 -0.7 0.27 -2.27 c -0.09 -1.7 -0.24 -2.5 -0.46 -2.5 c -0.15 0 -0.28 0.85 -0.53 3.43 l -0.18 1.83 l -1.73 0.04 c -0.97 0.02 -1.73 -0.02 -1.73 -0.09 c 0 -0.22 4.09 -5.79 4.29 -5.83 c 0.29 -0.07 1.92 1.83 2.29 2.66 c 0.18 0.41 0.34 0.98 0.34 1.26 c 0 0.77 -0.41 1.87 -0.79 2.13 c -0.46 0.31 -0.42 0.48 0.09 0.48 c 0.5 0 0.56 0.27 0.15 0.65 c -0.24 0.23 -0.66 0.27 -3.36 0.33 c -2.52 0.05 -3.13 0.03 -3.34 -0.14" style="fill:#061720"/><path d="m 8.82 7.93 c 0 1 -0.81 1.82 -1.81 1.82 c -1 0 -1.81 -0.82 -1.81 -1.82 c 0 -1 0.81 -1.82 1.81 -1.82 c 1 0 1.81 0.82 1.81 1.82" style="fill:#ff1200"/></svg>