<svg xmlns="http://www.w3.org/2000/svg" viewBox="0 0 24 24"><path d="m 18.2 2 c 21.1 17.91 -22.31 35.1 -17.85 7.43 c 0.98 -6.08 12.15 -12.26 17.85 -7.43" style="fill:#3bb962"/><path d="m 19.53 12.66 c 0 4.2 -3.42 7.61 -7.63 7.61 c -4.21 0 -7.63 -3.41 -7.63 -7.61 c 0 -4.21 3.41 -7.61 7.63 -7.61 c 4.21 0 7.63 3.41 7.63 7.61" style="fill:#090327"/><g style="fill:#fff"><path d="m 7.62 7.75 c -0.03 0.01 -0.05 0.02 -0.07 0.03 c -0.1 0.06 -0.13 0.19 -0.06 0.29 l 0.7 1.09 c -0.59 0.54 -0.97 1.32 -0.97 2.19 v 0.05 h 5.91 v -0.05 c 0 -0.87 -0.38 -1.64 -0.97 -2.19 l 0.7 -1.09 c 0.06 -0.1 0.03 -0.23 -0.06 -0.29 c -0.02 -0.01 -0.05 -0.02 -0.07 -0.03 c -0.03 0 -0.05 0 -0.08 0 c -0.05 0.01 -0.1 0.04 -0.13 0.09 l -0.68 1.04 c -0.47 -0.32 -1.04 -0.5 -1.66 -0.5 c -0.62 0 -1.19 0.19 -1.66 0.5 l -0.67 -1.04 c -0.03 -0.05 -0.08 -0.08 -0.13 -0.09 c -0.03 0 -0.05 0 -0.08 0 m 1.13 1.93 c 0.24 0 0.44 0.2 0.44 0.43 c 0 0.24 -0.2 0.43 -0.44 0.43 c -0.24 0 -0.43 -0.19 -0.43 -0.43 c 0 -0.24 0.2 -0.43 0.43 -0.43 m 2.82 0 c 0.24 0 0.43 0.2 0.43 0.43 c 0 0.24 -0.2 0.43 -0.43 0.43 c -0.24 0 -0.44 -0.19 -0.44 -0.43 c 0 -0.24 0.2 -0.43 0.44 -0.43 m -4.37 2.29 v 3.93 c 0 0.92 0.74 1.66 1.66 1.66 h 2.59 c 0.92 0 1.66 -0.74 1.66 -1.66 h -0.71 c -0.04 -0.26 0.15 -0.41 0.16 -0.68 c 0 -0.25 -0.2 -0.45 -0.46 -0.45 c -0.25 0 -0.45 0.2 -0.45 0.45 c 0 0.01 0 0.01 0 0.27 h -0.8 c -0.27 0 -0.5 -0.22 -0.5 -0.5 v -0.68 c -0.23 0 -0.37 0.16 -0.61 0.16 c -0.25 0 -0.45 -0.2 -0.45 -0.46 c 0 -0.25 0.2 -0.45 0.45 -0.45 c 0.01 0 0.01 0 0.25 0 v -0.1 c 0 -0.27 0.22 -0.5 0.5 -0.5 h 0.79 c 0.04 0.26 -0.13 0.4 -0.13 0.67 c 0 0.26 0.2 0.46 0.45 0.46 c 0.25 0 0.46 -0.2 0.46 -0.45 c 0 -0.27 -0.19 -0.42 -0.16 -0.68 h 0.71 v -1.03"/><path d="m 14.54 12.88 c -0.27 0 -0.5 0.22 -0.5 0.5 v 0.65 c -0.22 0.01 -0.36 -0.13 -0.61 -0.13 c -0.26 0 -0.46 0.2 -0.46 0.45 c 0 0.25 0.2 0.45 0.45 0.45 c 0.25 0 0.4 -0.16 0.62 -0.16 v 0.67 c 0 0.27 0.22 0.5 0.5 0.5 h 0.8 c 0.04 -0.25 -0.13 -0.41 -0.13 -0.67 c 0 -0.25 0.2 -0.46 0.45 -0.46 c 0.25 0 0.46 0.21 0.46 0.45 c 0 0.27 -0.2 0.42 -0.16 0.68 h 0.82 c 0.27 0 0.5 -0.22 0.5 -0.5 v -1.93 c 0 -0.27 -0.22 -0.5 -0.5 -0.5 h -0.82 c -0.04 0.25 0.15 0.4 0.16 0.67 c 0 0.25 -0.21 0.45 -0.46 0.45 c -0.25 0 -0.45 -0.2 -0.45 -0.45 c 0 -0.01 0 -0.01 0 -0.27"/></g></svg>