<svg xmlns="http://www.w3.org/2000/svg" viewBox="0 0 24 24"><path d="m 21.52 18.27 c 7.54 -9.13 -5.18 -19.78 -16.61 -18.1 c -8.51 1.21 -5.09 25.32 7.28 23.71 c 3.68 -0.48 6.87 -2.66 9.33 -5.64" style="fill:#8fd1ec"/><path d="m 9 17.92 c -0.85 -0.46 -1.69 -1.36 -2.18 -2.34 c -0.5 -0.99 -2.2 -7.24 -2.21 -8.1 c 0.01 -0.98 1.24 -1.47 1.9 -1.05 c 0.57 0.75 1.04 1.8 1.29 2.71 l 0.41 -0.55 c 0.86 -0.57 1.72 -0.45 2.78 -0.71 c 0.93 -0.06 3.28 0.13 4 0.5 c 0.73 1.01 0.14 2.25 0.26 3.41 c 1.1 -0.02 3.31 -0.4 4.14 0 c 0.82 0.45 0.84 1.63 0.29 2.15 c -1.04 1.09 -3.17 0.59 -4 1.44 c -1.87 2.14 -2.94 2.69 -6.67 2.52" style="fill:#fff"/><path d="m 9.68 18.46 c -0.99 -0.18 -2.09 -1.07 -2.75 -2.23 c -0.48 -0.86 -0.96 -2.23 -1.16 -3.39 c -0.16 -0.91 -0.41 -1.89 -1.1 -4.39 c -0.34 -1.25 -0.36 -1.64 -0.11 -2 c 0.41 -0.61 1.11 -0.82 1.75 -0.52 c 0.66 0.51 0.91 1.41 1.36 2.56 l 0.07 0.2 l 0.2 -0.29 c 0.11 -0.16 0.32 -0.35 0.48 -0.43 c 0.32 -0.15 1.29 -0.18 1.54 -0.05 c 0.13 0.07 0.21 0.04 0.44 -0.16 c 0.33 -0.29 0.67 -0.37 1.39 -0.32 c 0.44 0.03 0.58 0.07 0.85 0.29 c 0.3 0.24 0.34 0.25 0.64 0.17 c 0.46 -0.13 1.39 -0.04 1.66 0.15 c 0.45 0.33 0.5 0.58 0.5 2.18 v 1.46 l 0.31 -0.05 c 0.17 -0.03 0.84 -0.11 1.5 -0.18 c 0.93 -0.11 1.26 -0.12 1.52 -0.04 c 0.49 0.13 0.86 0.41 1.17 0.87 c 0.26 0.39 0.27 0.44 0.25 1 c -0.05 0.88 -0.09 0.91 -2.5 1.69 l -1.97 0.64 l -0.22 0.49 c -0.77 1.89 -3.77 2.64 -5.81 2.36 m 1.89 -0.66 c 1.81 -0.25 3.04 -1.04 3.45 -2.22 c 0.18 -0.5 0.07 -0.45 2.46 -1.22 c 1 -0.32 1.88 -0.63 1.95 -0.68 c 0.18 -0.13 0.17 -0.81 0 -1.08 c -0.17 -0.25 -0.57 -0.51 -0.93 -0.57 c -0.26 -0.05 -2.9 0.24 -3.05 0.34 c -0.05 0.03 -0.08 0.13 -0.08 0.22 c 0 0.27 -0.3 0.69 -0.61 0.83 c -0.38 0.18 -1.36 0.18 -1.74 0 c -0.26 -0.13 -0.3 -0.13 -0.55 0.01 c -0.6 0.16 -1.52 0.3 -1.98 -0.12 c -0.21 -0.19 -0.26 -0.2 -1.02 -0.18 c -1.38 0.05 -1.64 -0.23 -1.64 -1.65 c 0 -0.86 -0.02 -0.92 -0.36 -1.8 c -0.2 -0.5 -0.54 -1.35 -0.75 -1.89 c -0.21 -0.54 -0.46 -1.06 -0.55 -1.16 c -0.36 -0.39 -1.13 -0.09 -1.13 0.43 c 0 0.12 0.26 1.14 0.57 2.28 c 0.32 1.13 0.64 2.46 0.73 2.96 c 0.24 1.32 0.53 2.25 1 3.23 c 0.5 0.96 1.19 1.89 2.12 2.2 c 0.61 0.19 1.18 0.21 2.1 0.09 m 0.68 -4.98 c 0.16 -0.16 0.16 -0.27 0.16 -2.21 c 0 -2.54 0 -2.53 -0.88 -2.53 c -0.45 0 -0.53 0.02 -0.68 0.21 c -0.16 0.2 -0.17 0.32 -0.17 2.25 v 2.04 l 0.2 0.2 c 0.36 0.25 1.03 0.36 1.36 0.04 m 2.54 -0.24 v -1.89 c 0 -2.25 0.02 -2.21 -0.86 -2.21 c -0.48 -0.01 -0.64 0.11 -0.94 0.4 v 3.7 l 0.2 0.2 c 0.17 0.17 0.28 0.2 0.7 0.2 c 0.46 0.01 0.61 -0.11 0.9 -0.4 m -4.85 -0.14 c 0.18 -0.13 0.18 -0.16 0.18 -1.84 c 0 -1.71 0 -1.72 -0.2 -1.92 c -0.27 -0.27 -1.07 -0.29 -1.34 -0.04 c -0.18 0.16 -0.18 0.22 -0.18 1.88 c 0 1.61 0.01 1.73 0.16 1.88 c 0.21 0.21 1.09 0.23 1.38 0.04" style="fill:#565c5f"/></svg>