<svg xmlns="http://www.w3.org/2000/svg" viewBox="0 0 24 24"><path d="m 22.25 5.83 c -18.1 -21.1 -35.57 22.31 -7.53 17.85 c 6.15 -0.98 12.41 -12.15 7.53 -17.85" style="fill:#4c2f66"/><path d="m 7.99 7.1 c -0.99 0 -1.8 0.77 -1.8 1.71 v 6.87 c 0 0.95 0.81 1.72 1.8 1.72 h 1.43 l 4.97 1.11 c 0.14 0.03 0.27 0.04 0.39 0.04 c 0.84 0 1.57 -0.56 1.77 -1.34 l 1.62 -6.69 c 0.22 -0.92 -0.4 -1.85 -1.37 -2.06 l -2.46 -0.54 c -0.33 -0.51 -0.91 -0.82 -1.54 -0.82 m -4.81 1.14 h 4.81 c 0.33 0 0.6 0.26 0.6 0.57 v 6.87 c 0 0.32 -0.27 0.57 -0.6 0.57 h -4.81 c -0.33 0 -0.6 -0.26 -0.6 -0.57 v -6.87 c 0 -0.31 0.27 -0.57 0.6 -0.57 m 6.61 0.91 l 1.94 0.41 c 0.32 0.07 0.52 0.39 0.45 0.7 l -1.62 6.7 c -0.07 0.3 -0.39 0.5 -0.71 0.43 l -0.98 -0.21 c 0.54 -0.3 0.92 -0.85 0.92 -1.49 m -4.2 -6.3 c 0 0 -2.41 1.86 -2.41 2.9 c 0 0.69 0.59 1.27 1.32 1.27 c 0.25 0 0.5 -0.08 0.71 -0.21 l -0.43 1.2 h 1.61 l -0.43 -1.18 c 0.2 0.12 0.44 0.2 0.71 0.2 c 0.72 0 1.32 -0.57 1.32 -1.27 c 0 -1.04 -2.41 -2.9 -2.41 -2.9" style="fill:#fff"/></svg>