<svg xmlns="http://www.w3.org/2000/svg" viewBox="0 0 24 24"><path d="m 21.34 18.7 c 14.25 -22.82 -33.51 -25.73 -18.25 -1.07 c 4 6.35 14.29 9.76 18.25 1.07" style="fill:#333"/><g style="fill:#f00"><path d="m 5.34 15.59 c -0.43 -0.02 -0.48 -0.05 -0.48 -0.29 c 0 -0.17 0.23 -1.34 0.33 -1.68 c 0.09 -0.29 0.18 -0.41 0.31 -0.44 c 0.07 -0.01 0.5 -0.02 0.95 -0.01 h 0.84 l 0.01 0.09 c 0.01 0.06 -0.08 0.37 -0.11 0.39 c 0 0 -0.3 0.01 -0.67 0.02 c -0.61 0.02 -0.67 0.03 -0.74 0.1 c -0.09 0.29 -0.45 1 -0.23 1.21 c 0.04 0.04 0.13 0.05 0.38 0.05 c 0.18 0 0.48 0.01 0.66 0.02 l 0.32 0.02 v 0.1 c 0 0.11 -0.08 0.32 -0.13 0.35 c -0.04 0.03 -1.04 0.05 -1.45 0.04"/><path d="m 7.84 15.58 c -0.13 -0.01 -0.26 -0.04 -0.29 -0.07 c -0.09 -0.07 -0.07 -0.32 0.08 -1.08 c 0.22 -1.09 0.26 -1.18 0.54 -1.23 c 0.09 -0.02 0.58 -0.03 1.09 -0.03 h 0.93 l 0.06 0.09 c 0.06 0.09 0.06 0.11 0 0.46 c -0.09 0.54 -0.25 1.29 -0.33 1.5 c -0.09 0.27 -0.18 0.32 -0.62 0.35 c -0.41 0.03 -1.11 0.03 -1.45 0 m 1.48 -0.58 c 0.04 -0.03 0.09 -0.11 0.11 -0.17 c 0.05 -0.16 0.18 -0.85 0.18 -0.97 c 0 -0.15 -0.11 -0.18 -0.66 -0.17 c -0.58 0.02 -0.59 0.02 -0.68 0.46 c -0.16 0.71 -0.17 0.84 -0.05 0.87 c 0.33 -0.04 0.8 0.16 1.1 -0.03"/><path d="m 10.55 15.58 c -0.04 -0.02 -0.08 -0.04 -0.08 -0.05 c 0 -0.07 0.4 -1.96 0.45 -2.13 c 0.07 -0.22 0.13 -0.25 0.4 -0.21 c 0.42 0.04 0.87 0.01 1.23 0 c 0.99 0 0.93 -0.07 0.75 0.9 c -0.05 0.25 -0.14 0.68 -0.21 0.96 l -0.13 0.51 l -0.13 0.02 c -0.07 0.01 -0.19 0.01 -0.25 0 c -0.11 -0.02 -0.11 -0.02 -0.1 -0.2 c 0.01 -0.1 0.08 -0.48 0.15 -0.86 c 0.07 -0.37 0.12 -0.7 0.11 -0.74 c -0.4 -0.15 -0.73 -0.2 -1.23 -0.06 c -0.07 0.05 -0.08 0.11 -0.29 1.04 c -0.09 0.39 -0.18 0.73 -0.2 0.75 c -0.06 0.05 -0.35 0.09 -0.45 0.05"/><path d="m 13.76 15.59 c -0.11 -0.01 -0.13 -0.03 -0.13 -0.09 c 0 -0.11 0.52 -2.64 0.59 -2.88 c 0.08 -0.27 0.18 -0.41 0.31 -0.45 c 0.17 -0.05 0.61 -0.09 0.79 -0.06 l 0.27 0.01 l -0.03 0.18 c -0.04 0.21 -0.19 0.23 -0.44 0.25 c -0.26 0.02 -0.33 0.09 -0.37 0.33 c -0.03 0.2 0.01 0.23 0.27 0.27 c 0.22 0.03 0.26 0.07 0.21 0.24 c -0.05 0.17 -0.08 0.19 -0.37 0.23 l -0.25 0.03 l -0.05 0.16 c -0.02 0.09 -0.1 0.42 -0.17 0.75 c -0.16 0.73 -0.23 1 -0.28 1.01 c -0.1 0.03 -0.23 0.04 -0.35 0.02"/><path d="m 16.54 16.6 l -0.12 -0.02 l 0.02 -0.18 c 0.03 -0.3 0.04 -0.3 0.96 -0.3 h 0.78 l 0.07 -0.16 c 0.07 -0.16 0.45 -1.92 0.45 -2.11 c 0 -0.14 -0.1 -0.17 -0.62 -0.17 c -0.62 0 -0.62 0 -0.78 0.88 c -0.09 0.49 -0.08 0.5 0.37 0.53 c 0.19 0.01 0.37 0.04 0.4 0.05 c 0.06 0.04 0.02 0.27 -0.06 0.36 c -0.13 0.13 -1.2 0.11 -1.35 -0.02 c -0.07 -0.06 -0.04 -0.34 0.11 -1.13 c 0.16 -0.78 0.21 -0.96 0.33 -1.09 l 0.09 -0.11 c 0.73 0 1.47 0 2.21 0 l -0.02 0.21 c -0.03 0.26 -0.38 1.99 -0.53 2.61 c -0.14 0.57 -0.16 0.6 -0.61 0.63 c -0.35 0.02 -1.49 0.03 -1.69 0"/><path d="m 4.91 10.44 c -0.25 -0.11 -0.38 -0.38 -0.38 -0.79 c 0 -0.3 0.07 -0.52 0.21 -0.69 c 0.14 -0.17 0.31 -0.23 0.64 -0.27 c 0.5 -0.05 0.55 -0.07 0.55 -0.33 c 0 -0.2 -0.13 -0.46 -0.25 -0.52 c -0.19 -0.09 -0.45 -0.05 -0.91 0.15 c -0.06 0.03 -0.14 -0.18 -0.09 -0.25 c 0.1 -0.11 0.36 -0.18 0.77 -0.18 c 0.45 0 0.57 0.04 0.69 0.21 c 0.09 0.12 0.09 0.16 0.11 0.74 c 0.01 0.34 0.03 0.9 0.03 1.26 v 0.64 l -0.11 0.01 c -0.15 0.02 -0.21 -0.04 -0.24 -0.21 c -0.01 -0.08 -0.03 -0.14 -0.05 -0.15 c -0.01 -0.01 -0.12 0.07 -0.23 0.16 c -0.11 0.1 -0.25 0.19 -0.29 0.21 c -0.12 0.05 -0.33 0.04 -0.45 -0.02 m 0.55 -0.32 c 0.13 -0.06 0.3 -0.25 0.38 -0.4 c 0.07 -0.14 0.11 -0.58 0.06 -0.71 c -0.04 -0.11 -0.23 -0.15 -0.5 -0.1 c -0.36 0.07 -0.51 0.26 -0.51 0.68 c 0 0.28 0.06 0.4 0.24 0.51 c 0.14 0.06 0.23 0.07 0.33 0.02"/><path d="m 6.94 10.43 c -0.06 -0.01 -0.06 -0.11 -0.06 -1.27 c 0 -0.99 -0.01 -1.28 -0.05 -1.37 l -0.05 -0.12 c 0.14 -0.04 0.3 -0.09 0.44 -0.11 c 0.04 0.14 0.04 0.28 0.11 0.4 c 0.03 0.01 0.14 -0.06 0.25 -0.18 c 0.21 -0.2 0.34 -0.26 0.45 -0.22 c 0.04 0.02 0.05 0.05 0.03 0.12 c -0.04 0.13 -0.07 0.16 -0.23 0.21 c -0.16 0.05 -0.41 0.29 -0.49 0.49 c -0.04 0.1 -0.06 0.35 -0.08 1.09 c -0.02 0.53 -0.03 0.96 -0.03 0.97 c 0 0.02 -0.23 0 -0.3 -0.02"/><path d="m 8.41 10 c 0.04 -0.61 0 -2.13 -0.06 -2.27 c -0.03 -0.06 -0.05 -0.12 -0.05 -0.13 c 0 -0.01 0.13 -0.05 0.36 -0.1 c 0.09 -0.02 0.1 -0.01 0.12 0.1 c 0.04 0.2 0.09 0.21 0.27 0.09 c 0.42 -0.3 0.77 -0.27 0.99 0.09 c 0.09 0.14 0.09 0.14 0.34 -0.07 c 0.28 -0.23 0.59 -0.29 0.81 -0.15 c 0.22 0.13 0.23 0.21 0.26 1.61 l 0.02 1.25 c -0.14 0 -0.27 0 -0.41 0 l 0.02 -1.16 c -0.07 -0.42 0.12 -1.06 -0.11 -1.29 c -0.18 -0.18 -0.35 -0.2 -0.54 -0.08 c -0.24 0.16 -0.26 0.2 -0.29 0.84 c -0.02 0.31 -0.03 0.81 -0.03 1.11 v 0.55 c -0.12 0 -0.23 0 -0.35 0 l -0.02 -1.11 c -0.01 -0.93 -0.02 -1.13 -0.07 -1.23 c -0.11 -0.25 -0.4 -0.3 -0.63 -0.11 c -0.22 0.18 -0.23 0.2 -0.25 1.39 c -0.01 0.59 -0.03 1.09 -0.03 1.09 c -0.13 0.02 -0.24 0.01 -0.38 0.01"/><path d="m 12.43 10.48 c -0.12 -0.01 -0.37 -0.05 -0.4 -0.06 c -0.06 -0.02 0.05 -0.11 0.02 -1.8 c -0.01 -0.99 -0.04 -1.84 -0.05 -1.88 c -0.03 -0.07 -0.02 -0.09 0.18 -0.17 c 0.12 -0.05 0.22 -0.09 0.23 -0.09 c 0.01 0 0.02 0.11 0.02 0.23 c 0 0.41 0.05 1.12 0.07 1.16 c 0.02 0.03 0.07 0 0.19 -0.11 c 0.19 -0.17 0.29 -0.21 0.51 -0.21 c 0.5 0 0.74 0.48 0.7 1.38 c -0.02 0.45 -0.12 0.84 -0.29 1.1 c -0.22 0.36 -0.64 0.52 -1.19 0.45 m 0.58 -0.26 c 0.38 -0.18 0.51 -0.52 0.51 -1.3 c 0 -0.46 -0.01 -0.52 -0.09 -0.68 c -0.09 -0.19 -0.22 -0.32 -0.36 -0.35 c -0.18 -0.04 -0.42 0.13 -0.53 0.38 c -0.07 0.15 -0.14 1.09 -0.12 1.57 c 0.01 0.31 0.01 0.31 0.13 0.39 c 0.16 0.1 0.23 0.1 0.45 -0.01"/><path d="m 14.38 10.1 c 0.04 -0.33 0.02 -2.19 -0.02 -2.34 c 0.08 -0.14 0.31 -0.17 0.44 -0.14 c 0.01 0.03 0.02 0.55 0.03 1.16 c 0 0.61 0.02 1.23 0.03 1.39 l 0.03 0.29 c -0.18 0 -0.36 0 -0.54 0"/><path d="m 14.4 7.16 c -0.14 -0.13 -0.14 -0.32 0 -0.46 c 0.2 -0.22 0.44 -0.08 0.44 0.25 c 0 0.29 -0.23 0.4 -0.44 0.21"/><path d="m 15.8 10.46 c -0.05 -0.01 -0.14 -0.07 -0.2 -0.13 c -0.32 -0.31 -0.31 -1.09 0.01 -1.41 c 0.16 -0.15 0.31 -0.2 0.73 -0.25 c 0.17 -0.02 0.33 -0.05 0.36 -0.07 c 0.04 -0.03 0.05 -0.11 0.05 -0.25 c 0 -0.5 -0.32 -0.67 -0.91 -0.46 c -0.14 0.05 -0.26 0.09 -0.27 0.09 c -0.02 0 -0.11 -0.21 -0.09 -0.23 c 0.13 -0.11 0.52 -0.19 0.88 -0.19 c 0.36 0 0.49 0.05 0.63 0.23 l 0.11 0.15 l 0.02 1.23 c 0.01 0.68 0.01 1.24 0 1.25 c -0.02 0.02 -0.08 0.02 -0.15 0.02 c -0.11 -0.01 -0.12 -0.02 -0.17 -0.19 c -0.03 -0.09 -0.05 -0.18 -0.06 -0.19 c 0 0 -0.1 0.07 -0.21 0.17 c -0.11 0.1 -0.25 0.2 -0.29 0.21 c -0.15 0.03 -0.3 0.03 -0.43 0.01 m 0.94 -1.16 c 0.02 -0.37 0 -0.4 -0.34 -0.4 c -0.48 0.01 -0.71 0.26 -0.67 0.77 c 0.01 0.21 0.02 0.23 0.16 0.36 c 0.51 0.41 0.83 -0.43 0.85 -0.73"/><path d="m 17.8 10.41 c -0.02 -0.02 -0.04 -0.62 -0.05 -1.33 c -0.01 -0.71 -0.03 -1.32 -0.05 -1.35 c -0.03 -0.07 0.03 -0.1 0.25 -0.14 c 0.1 -0.02 0.11 -0.02 0.14 0.09 c 0.04 0.15 0.13 0.16 0.29 0.04 c 0.36 -0.29 0.9 -0.23 1.08 0.1 c 0.07 0.15 0.08 0.19 0.09 1.38 l 0.02 1.23 h -0.09 c -0.05 0 -0.14 0.01 -0.2 0.02 l -0.11 0.02 v -1.16 c 0 -1.29 0 -1.32 -0.23 -1.45 c -0.19 -0.09 -0.4 -0.05 -0.59 0.14 c -0.11 0.1 -0.17 0.2 -0.19 0.29 c -0.02 0.07 -0.03 0.6 -0.04 1.16 v 1.02 c -0.12 0.01 -0.24 0 -0.34 -0.04"/><path d="m 14.29 20.1 c -0.08 -0.04 -0.19 -0.11 -0.25 -0.17 c -0.2 -0.21 -0.22 -0.46 -0.08 -1.23 c 0.21 -1.16 0.36 -1.66 0.59 -2 l 0.13 -0.18 l -0.06 -0.21 c -0.07 -0.27 -0.07 -0.42 0 -0.48 c 0.04 -0.03 0.2 0 0.39 -0.06 l 0.12 -0.04 c 0.16 -0.63 0.36 -1.17 0.51 -1.8 c 0.11 -0.47 0.27 -0.6 0.17 -0.78 c -0.13 -0.25 -0.06 -0.61 0.11 -1.08 c 0.06 -0.17 0.05 -0.23 0.41 -0.14 c 0.41 0.11 0.33 0.11 0.21 0.55 c -0.09 0.36 -0.09 0.5 -0.28 0.72 c -0.14 0.17 -0.14 0.59 -0.27 1.09 c -0.14 0.55 -0.29 1.51 -0.29 1.58 c 0 0.05 -0.08 -0.05 0.07 0.02 c 0.3 0.14 0.4 0.22 0.4 0.31 c 0 0.04 -0.07 0.2 -0.16 0.35 c -0.18 0.29 -0.2 0.38 -0.11 0.55 c 0.08 0.15 0.05 0.33 -0.19 1.38 c -0.3 1.31 -0.38 1.49 -0.67 1.63 c -0.2 0.09 -0.56 0.09 -0.77 0"/></g></svg>