<svg xmlns="http://www.w3.org/2000/svg" viewBox="0 0 24 24"><path d="m 9.79 23.1 c -16 -1.58 -10.54 -26.44 4.95 -22.57 c 14.72 2.37 10.73 27.73 -4.95 22.57" style="fill:#7f7f7f"/><g style="fill:#221f20"><path d="m 7.71 7.25 h 8.68 c 0.63 0 1.14 0.56 1.14 1.24 v 7.58 c 0 0.69 -0.51 1.24 -1.14 1.24 h -8.68 c -0.63 0 -1.13 -0.55 -1.13 -1.24 v -7.58 c 0 -0.68 0.51 -1.24 1.13 -1.24"/><path d="m 8.24 6.14 h 0.66 v 12.22 h -0.66"/><path d="m 9.84 6.11 h 0.66 v 12.22 h -0.66"/><path d="m 13.4 6.15 h 0.66 v 12.22 h -0.66"/><path d="m 15.1 6.13 h 0.66 v 12.22 h -0.66"/><path d="m 11.72 6.13 h 0.66 v 12.22 h -0.66"/><path d="m 18.66 8.75 v 0.66 h -13.28 v -0.66"/><path d="m 18.66 10.43 v 0.66 h -13.28 v -0.66"/><path d="m 18.66 12.1 v 0.66 h -13.28 v -0.66"/><path d="m 18.69 13.48 v 0.66 h -13.28 v -0.66"/><path d="m 18.66 14.99 v 0.66 h -13.28 v -0.66"/></g><g style="fill:#f00"><path d="m 7.68 12.97 c -0.15 -0.08 -0.23 -0.3 -0.23 -0.63 c 0 -0.24 0.04 -0.41 0.13 -0.55 c 0.09 -0.13 0.19 -0.19 0.39 -0.21 c 0.3 -0.04 0.34 -0.06 0.34 -0.26 c 0 -0.16 -0.08 -0.36 -0.15 -0.41 c -0.12 -0.07 -0.27 -0.04 -0.55 0.12 c -0.04 0.02 -0.09 -0.15 -0.05 -0.2 c 0.06 -0.09 0.22 -0.14 0.47 -0.14 c 0.28 0 0.34 0.03 0.42 0.17 c 0.05 0.09 0.05 0.13 0.07 0.59 c 0.01 0.27 0.02 0.72 0.02 1 v 0.51 h -0.07 c -0.09 0.01 -0.13 -0.03 -0.14 -0.16 c -0.01 -0.06 -0.02 -0.11 -0.03 -0.12 c -0.01 0 -0.07 0.05 -0.14 0.13 c -0.07 0.08 -0.15 0.15 -0.18 0.16 c -0.07 0.04 -0.2 0.03 -0.28 -0.02 m 0.34 -0.25 c 0.07 -0.05 0.18 -0.2 0.23 -0.32 c 0.04 -0.11 0.07 -0.46 0.04 -0.56 c -0.03 -0.09 -0.14 -0.12 -0.3 -0.08 c -0.22 0.05 -0.31 0.21 -0.31 0.54 c 0 0.22 0.04 0.32 0.15 0.4 c 0.08 0.05 0.14 0.05 0.2 0.02"/><path d="m 8.92 12.96 c -0.04 -0.01 -0.04 -0.08 -0.04 -1 c 0 -0.79 -0.01 -1.01 -0.03 -1.09 l -0.03 -0.09 c 0.09 -0.04 0.18 -0.07 0.27 -0.08 c 0.02 0.11 0.03 0.22 0.07 0.32 c 0.02 0.01 0.08 -0.05 0.16 -0.14 c 0.13 -0.16 0.21 -0.21 0.27 -0.18 c 0.03 0.02 0.03 0.04 0.02 0.09 c -0.02 0.11 -0.04 0.13 -0.14 0.17 c -0.1 0.04 -0.25 0.23 -0.3 0.39 c -0.02 0.08 -0.04 0.28 -0.05 0.86 c -0.01 0.42 -0.02 0.77 -0.02 0.77 c 0 0.01 -0.14 0 -0.18 -0.02"/><path d="m 9.82 12.66 c 0.02 -0.48 0 -1.69 -0.04 -1.8 c -0.02 -0.05 -0.03 -0.1 -0.03 -0.1 c 0 -0.01 0.08 -0.04 0.22 -0.08 c 0.05 -0.02 0.06 -0.01 0.07 0.08 c 0.02 0.16 0.05 0.17 0.16 0.07 c 0.25 -0.23 0.47 -0.21 0.61 0.07 c 0.05 0.11 0.05 0.11 0.21 -0.06 c 0.17 -0.18 0.36 -0.23 0.5 -0.12 c 0.13 0.1 0.14 0.17 0.15 1.27 l 0.02 0.99 c -0.09 0 -0.17 0 -0.25 0 l 0.02 -0.92 c -0.04 -0.33 0.07 -0.84 -0.07 -1.02 c -0.11 -0.14 -0.21 -0.16 -0.33 -0.06 c -0.14 0.12 -0.16 0.16 -0.18 0.66 c -0.01 0.25 -0.02 0.64 -0.02 0.89 v 0.43 c -0.07 0 -0.14 0 -0.21 0 v -0.88 c -0.01 -0.73 -0.02 -0.89 -0.04 -0.98 c -0.07 -0.2 -0.25 -0.24 -0.39 -0.09 c -0.14 0.14 -0.14 0.16 -0.15 1.1 c -0.01 0.47 -0.02 0.86 -0.02 0.87 c -0.08 0.01 -0.14 0 -0.23 0"/><path d="m 12.27 13 c -0.07 -0.01 -0.22 -0.04 -0.25 -0.05 c -0.04 -0.02 0.03 -0.09 0.02 -1.43 c -0.01 -0.79 -0.02 -1.46 -0.04 -1.49 c -0.02 -0.06 -0.01 -0.07 0.11 -0.14 c 0.07 -0.04 0.13 -0.07 0.14 -0.07 c 0.01 0 0.01 0.08 0.01 0.19 c 0 0.32 0.03 0.89 0.04 0.92 c 0.01 0.02 0.05 0 0.12 -0.08 c 0.12 -0.14 0.18 -0.17 0.31 -0.17 c 0.3 0 0.45 0.38 0.43 1.09 c -0.01 0.35 -0.07 0.66 -0.17 0.87 c -0.14 0.29 -0.39 0.41 -0.73 0.36 m 0.36 -0.21 c 0.23 -0.15 0.31 -0.41 0.31 -1.04 c 0 -0.36 -0.01 -0.41 -0.05 -0.54 c -0.05 -0.15 -0.13 -0.25 -0.22 -0.28 c -0.11 -0.04 -0.25 0.11 -0.32 0.3 c -0.04 0.12 -0.08 0.87 -0.07 1.25 c 0.01 0.25 0.01 0.25 0.08 0.31 c 0.09 0.08 0.14 0.08 0.28 -0.01"/><path d="m 13.46 12.7 c 0.02 -0.26 0.01 -1.74 -0.01 -1.86 c 0.05 -0.11 0.19 -0.14 0.27 -0.11 c 0.01 0.02 0.02 0.44 0.02 0.92 c 0 0.48 0.01 0.98 0.02 1.11 l 0.02 0.23 c -0.11 0 -0.22 0 -0.33 0"/><path d="m 13.46 10.37 c -0.08 -0.1 -0.08 -0.25 0 -0.37 c 0.12 -0.17 0.27 -0.06 0.27 0.2 c 0 0.23 -0.14 0.32 -0.27 0.17"/><path d="m 14.32 12.99 c -0.03 0 -0.08 -0.05 -0.13 -0.11 c -0.19 -0.25 -0.19 -0.86 0.01 -1.11 c 0.09 -0.12 0.19 -0.16 0.45 -0.2 c 0.1 -0.01 0.2 -0.04 0.22 -0.06 c 0.02 -0.02 0.03 -0.09 0.03 -0.2 c 0 -0.4 -0.19 -0.53 -0.55 -0.37 c -0.08 0.04 -0.16 0.07 -0.16 0.07 c -0.02 0 -0.07 -0.17 -0.06 -0.18 c 0.08 -0.09 0.32 -0.15 0.53 -0.15 c 0.22 0 0.3 0.04 0.38 0.19 l 0.07 0.12 l 0.02 0.97 c 0.01 0.54 0 0.98 0 0.99 c -0.01 0.02 -0.05 0.02 -0.09 0.02 c -0.07 -0.01 -0.07 -0.02 -0.1 -0.15 c -0.02 -0.07 -0.04 -0.14 -0.04 -0.15 c 0 0 -0.06 0.05 -0.13 0.14 c -0.07 0.08 -0.15 0.15 -0.18 0.17 c -0.09 0.02 -0.18 0.02 -0.26 0 m 0.57 -0.92 c 0.02 -0.29 0 -0.31 -0.21 -0.31 c -0.3 0 -0.43 0.21 -0.41 0.61 c 0.01 0.17 0.01 0.19 0.1 0.29 c 0.31 0.33 0.51 -0.34 0.52 -0.59"/><path d="m 15.54 12.95 c -0.01 -0.02 -0.02 -0.49 -0.03 -1.05 c 0 -0.57 -0.02 -1.05 -0.03 -1.07 c -0.02 -0.05 0.02 -0.08 0.15 -0.11 c 0.06 -0.02 0.07 -0.01 0.09 0.07 c 0.03 0.12 0.08 0.13 0.18 0.03 c 0.22 -0.23 0.55 -0.19 0.66 0.08 c 0.05 0.12 0.05 0.15 0.06 1.1 v 0.97 h -0.05 c -0.03 0 -0.08 0.01 -0.12 0.02 l -0.06 0.02 v -0.93 c 0 -1.02 0 -1.05 -0.14 -1.14 c -0.12 -0.08 -0.24 -0.04 -0.36 0.11 c -0.06 0.08 -0.11 0.16 -0.12 0.23 c -0.01 0.06 -0.02 0.47 -0.02 0.92 v 0.81 c -0.07 0.01 -0.15 0 -0.21 -0.04"/><path d="m 15.54 14.54 c -0.02 0.05 -0.07 0.14 -0.11 0.18 c -0.15 0.16 -0.36 0.21 -1.02 0.23 c -0.99 0.04 -1.43 0.02 -1.73 -0.09 l -0.17 -0.05 l -0.17 0.07 c -0.21 0.09 -0.34 0.11 -0.4 0.07 c -0.03 -0.02 -0.02 -0.13 -0.1 -0.24 l -0.05 -0.07 c -0.55 -0.01 -1.02 -0.06 -1.56 -0.06 c -0.41 0 -0.53 -0.08 -0.67 0 c -0.19 0.12 -0.5 0.13 -0.91 0.09 c -0.15 -0.02 -0.2 0 -0.16 -0.24 c 0.04 -0.28 0.05 -0.23 0.44 -0.22 c 0.31 0 0.43 -0.02 0.63 0.07 c 0.16 0.07 0.5 0.01 0.94 0.01 c 0.48 0 1.29 -0.04 1.36 -0.05 c 0.04 0 -0.04 0.06 0.01 -0.05 c 0.08 -0.21 0.14 -0.29 0.21 -0.3 c 0.04 -0.01 0.18 0.02 0.31 0.05 c 0.27 0.07 0.34 0.07 0.47 -0.01 c 0.12 -0.07 0.27 -0.09 1.17 -0.08 c 1.13 0 1.29 0.02 1.43 0.19 c 0.1 0.11 0.15 0.35 0.09 0.49"/></g></svg>