<svg xmlns="http://www.w3.org/2000/svg" viewBox="0 0 24 24"><path d="m 21.1 17.82 c 8.48 -9.66 -4.08 -19.88 -11.44 -17.37 c -7.36 2.51 -12.31 9.61 -7.5 15.83 c 4.81 6.21 9.54 12.22 18 2.56" style="fill:#2a5f85"/><path d="m 11.7 18.71 c -0.54 -0.28 -1.47 -0.88 -1.88 -1.2 c -0.57 -0.45 -1.52 -1.41 -1.79 -1.82 c -0.41 -0.62 -0.65 -1.35 -0.75 -2.22 c -0.12 -1.14 -0.21 -5.93 -0.12 -6.25 c 0.02 -0.07 0.08 -0.14 0.15 -0.17 c 0.09 -0.04 1.18 -0.05 4.3 -0.06 c 4.3 -0.02 5.37 0.01 5.45 0.12 c 0.05 0.07 0.01 5.21 -0.05 6.07 c -0.07 1.04 -0.18 1.5 -0.46 2.06 c -0.52 1 -1.79 2.19 -3.43 3.18 c -0.46 0.28 -0.88 0.48 -0.98 0.48 c -0.04 0 -0.24 -0.09 -0.45 -0.2 m 0.81 -0.48 c 1.77 -0.91 3.32 -2.37 3.71 -3.5 c 0.24 -0.7 0.29 -1.25 0.32 -3.45 c 0.02 -1.23 0.01 -1.91 -0.02 -1.94 c -0.05 -0.06 -0.99 0.99 -4.31 4.82 c -1.62 1.88 -2.3 2.69 -2.3 2.74 c 0 0.07 0.38 0.38 0.8 0.67 c 0.35 0.23 1.38 0.82 1.43 0.82 c 0.01 0 0.18 -0.08 0.36 -0.17 m -3.43 -4.52 c 1.54 -1.61 4.52 -4.8 5.25 -5.62 c 0.32 -0.36 0.36 -0.41 0.28 -0.44 c -0.1 -0.04 -6.78 -0.13 -6.82 -0.09 c -0.01 0.01 -0.02 1.14 -0.02 2.5 c 0 2.51 0.03 3.08 0.17 3.78 c 0.06 0.3 0.16 0.56 0.23 0.65 c 0.06 0.08 0.16 -0.01 0.9 -0.79" style="fill:#fff"/></svg>