<svg xmlns="http://www.w3.org/2000/svg" viewBox="0 0 24 24"><path d="m 5.16 22.2 c 9.67 6.76 23.38 -6.65 17.33 -16.63 c -4.46 -8.53 -17.39 -6.1 -20.91 1.79 c -2.78 4.85 -1.7 12 3.59 14.84" style="fill:#ffd600"/><path d="m 10.86 18.96 c -2.71 -0.46 -4.87 -2.41 -5.52 -4.98 c -0.71 -2.85 0.38 -5.73 2.81 -7.39 c 0.38 -0.26 1.39 -0.73 1.84 -0.85 c 4.07 -1.14 8.1 1.51 8.62 5.7 c 0.12 0.91 0 2.07 -0.3 2.99 c -0.49 1.41 -1.53 2.69 -2.67 3.48 c -1.45 0.88 -3.07 1.31 -4.78 1.05 m 2.66 -2.09 c 2.52 -0.63 4.23 -3.06 3.93 -5.62 c -0.44 -3.88 -4.76 -5.92 -8 -3.79 c -2 1.31 -2.85 3.86 -2.03 6.13 c 0.63 1.76 2.25 3.09 4.1 3.37 c 0.48 0.08 1.52 0.03 2.02 -0.1 m -2.55 -2.11 c -0.05 -0.05 -0.04 -6.1 0.01 -6.13 c 0.04 -0.02 5.2 2.92 5.29 3 c 0.06 0.06 -0.23 0.24 -2.6 1.61 c -2.9 1.68 -2.66 1.54 -2.7 1.5" style="fill:#2735eb"/></svg>