<svg xmlns="http://www.w3.org/2000/svg" viewBox="0 0 24 24"><path d="m 19.54 21.29 c -14.23 11.1 -29 -16.49 -11.39 -20.52 c 11.1 -4.13 21.93 12.32 11.39 20.52" style="fill:#707f8f"/><path d="m 8.3 5.73 l 3.45 3.52 l -2.12 3.36 l -3.45 -3.52" style="fill:#dcdcdc"/><path d="m 12.36 14.94 l -4.68 -1.4 l 0.27 -3.98 l 4.68 1.4" style="fill:#218b21"/><path d="m 13.33 5.14 l -2.68 4.15 l 2.74 2.86 l 2.68 -4.15" style="fill:#dc133c"/><path d="m 17.93 12.8 l -4.08 -2.73 l -2.81 2.79 l 4.08 2.73" style="fill:#7a68ed"/><path d="m 17.27 11.71 l -2.68 4.15 l 2.74 2.86 l 2.68 -4.15" style="fill:#ffa400"/><path d="m 10.64 12.73 l 3.45 3.52 l -2.12 3.36 l -3.45 -3.52" style="fill:#f4f4f4"/><path d="m 17.37 15.96 l 2.68 -4.15 l -2.74 -2.86 l -2.68 4.15" style="fill:#473d8b"/><path d="m 4.17 15.79 l 1.38 -4.77 l 3.91 0.28 l -1.38 4.76" style="fill:#c71485"/></svg>