<svg xmlns="http://www.w3.org/2000/svg" viewBox="0 0 24 24"><defs><linearGradient id="1" gradientUnits="userSpaceOnUse" x1="53.66" y1="137.6" x2="53.72" y2="147.5" gradientTransform="matrix(1.044 0 0 1.023 7.1 -1.02)"><stop style="stop-color:#dcd7d7"/><stop offset="1" style="stop-color:#b0b0c0"/></linearGradient><linearGradient id="2" gradientUnits="userSpaceOnUse" x1="255.4" y1="250.1" x2="256.4" y2="257.1" gradientTransform="matrix(0.996 0 0 0.895 -29.46 2.91)"><stop style="stop-color:#4f4f58"/><stop offset="1" style="stop-color:#5b5b63"/></linearGradient><linearGradient id="3" gradientUnits="userSpaceOnUse" x1="255.7" y1="247.6" x2="256.2" y2="253.4" gradientTransform="matrix(1 0 0 0.902 -32.1 -0.31)"><stop style="stop-color:#606068"/><stop offset="1" style="stop-color:#7f7f87;stop-opacity:0.99"/></linearGradient><radialGradient id="0" gradientUnits="userSpaceOnUse" cx="67.9" cy="134.7" r="20.51" gradientTransform="matrix(1.167 -0.007 0.006 0.812 -18.1 27)"><stop style="stop-color:#fbf8f8"/><stop offset="1" style="stop-color:#e7e7ff"/></radialGradient></defs><path d="m 21.95 17.66 c 6.46 -8.63 -3.87 -19.1 -12.2 -17.33 c -8.2 1.07 -13.14 13.54 -6.8 19.87 c 4.63 4.55 12.54 6.08 19 -2.54" style="fill:#b9bfc9"/><g style="stroke-linecap:round;stroke-linejoin:round"><path d="m 44.67 124.6 h 34.4 c 0.45 0 0.81 0.33 0.81 0.74 v 21 c 0 0.41 -0.37 0.74 -0.81 0.74 h -34.4 c -0.46 0 -0.82 -0.33 -0.82 -0.74 v -21 c 0 -0.41 0.37 -0.74 0.82 -0.74" transform="matrix(0.341 0 0 0.378 -9.21 -39.3)" style="fill:url(#0);stroke:#7c8497;stroke-width:1.2"/><path d="m 56.3 140 h 14.1 c 0.46 0 0.83 0.29 0.82 0.64 v 8 c 0.01 0.36 -0.36 0.64 -0.82 0.64 h -14.1 c -0.46 0 -0.82 -0.28 -0.82 -0.64 v -8 c -0.01 -0.35 0.37 -0.64 0.82 -0.64" transform="matrix(0.341 0 -0.017 0.378 -9.21 -39.3)" style="fill:url(#1);stroke:#737884;stroke-width:1.1"/><path d="m 218.7 227.5 h 14.1 c 0.22 0 0.39 0.17 0.4 0.38 v 4.11 c -0.01 0.2 -0.18 0.38 -0.39 0.38 h -14.1 c -0.22 0 -0.4 -0.17 -0.4 -0.38 v -4.11 c 0 -0.2 0.17 -0.38 0.38 -0.38" transform="matrix(0.341 0 -0.256 0.25 -9.21 -39.3)" style="fill:none;stroke:url(#2);stroke-width:1.85"/><path d="m 213.8 222.3 h 12 c 0.94 0 1.69 0.31 1.68 0.68 v 4.73 c 0 0.38 -0.75 0.69 -1.69 0.69 h -12 c -0.93 0 -1.68 -0.31 -1.68 -0.69 v -4.73 c 0 -0.37 0.76 -0.68 1.69 -0.68" transform="matrix(0.341 0 -0.252 0.254 -9.21 -39.3)" style="fill:url(#3);stroke:#606068;stroke-width:1.22"/></g></svg>