<svg xmlns="http://www.w3.org/2000/svg" viewBox="0 0 24 24"><path d="m 19.65 21.2 c -14.4 11 -29.33 -16.39 -11.52 -20.4 c 11.22 -4.11 22.2 12.25 11.52 20.4" style="fill:#ededec"/><path d="m 0.16 8.23 l 11.48 0.05 l 11.37 0.02 c 0.38 1.1 0.74 2 0.88 3.04 h -23.74 c -0.11 -1.05 -0.11 -2.24 0.01 -3.1" style="fill:#ff8c00"/><path d="m 0.32 12.54 c 0.01 0 5.34 0 11.84 0 l 11.82 0.02 c -0.01 1.11 -0.22 2.18 -0.46 3.11 l -11 0.11 h -11.12 c -0.23 -0.58 -1.18 -3 -1.04 -3.23" style="fill:#9acd31"/><path d="m 4.12 16.95 c -0.04 -0.04 -0.07 -1.19 -0.03 -1.22 c 0.01 -0.01 1.02 -0.03 2.25 -0.05 c 2.54 -0.04 2.58 -0.05 2.96 -0.59 c 0.17 -0.23 0.2 -0.35 0.22 -0.76 c 0.01 -0.27 -0.01 -0.59 -0.05 -0.73 c -0.11 -0.34 -0.44 -0.69 -0.79 -0.85 c -0.28 -0.13 -0.43 -0.14 -2.45 -0.16 l -2.15 -0.02 v -0.59 c 0 -0.32 -0.01 -0.61 -0.02 -0.64 c -0.01 -0.03 0.88 -0.06 1.99 -0.08 c 1.91 -0.03 2 -0.04 2.33 -0.18 c 0.18 -0.08 0.38 -0.2 0.45 -0.27 c 0.43 -0.39 0.55 -1.32 0.23 -1.87 c -0.32 -0.54 -0.36 -0.55 -2.84 -0.58 l -2.16 -0.04 l 0.01 -0.56 c 0.01 -0.3 0.03 -0.58 0.05 -0.61 c 0.05 -0.07 3.99 -0.06 4.53 0.02 c 0.64 0.09 1.05 0.3 1.54 0.79 c 0.34 0.34 0.45 0.5 0.54 0.81 c 0.16 0.5 0.15 1.11 -0.01 1.64 c -0.12 0.39 -0.46 0.91 -0.59 0.91 c -0.06 0 -0.86 0.46 -0.86 0.5 c 0 0.02 0.2 0.13 0.45 0.26 c 0.73 0.38 0.95 0.56 1.15 0.96 c 0.26 0.52 0.35 1.13 0.25 1.71 c -0.1 0.63 -0.25 0.88 -0.76 1.37 c -0.52 0.48 -0.68 0.57 -1.33 0.74 c -0.45 0.11 -0.74 0.13 -2.68 0.13 c -1.2 0 -2.2 -0.02 -2.23 -0.05 m 8.8 -0.56 c -0.05 -0.66 -0.05 -3.55 -0.01 -4.5 l 0.03 -0.6 l 2.96 -0.02 l 2.96 -0.02 v 1.32 h -4.47 v 3.1 h 2.32 c 1.27 0 2.36 0.03 2.4 0.05 c 0.06 0.04 0.08 0.22 0.07 0.64 l -0.02 0.59 l -3.1 0.02 l -3.1 0.02 m -0.03 -8.7 c -0.01 -0.03 -0.01 -0.31 0 -0.63 l 0.02 -0.58 h 3.04 c 2.72 0 3.05 0.01 3.09 0.11 c 0.02 0.05 0.04 0.34 0.04 0.63 v 0.52 h -3.09 c -1.7 0 -3.09 -0.02 -3.11 -0.05" style="fill:#040402"/></svg>