<svg xmlns="http://www.w3.org/2000/svg" viewBox="0 0 24 24"><path d="m 23.81 12.14 c 1.8 15.83 -23.99 15.61 -23.69 -0.28 c -0.85 -14.78 25.1 -16.1 23.69 0.28" style="fill:#c6d7f3"/><g style="fill:#ec4936"><path d="m 8.2 15.1 c -0.97 -0.04 -1.1 -0.15 -1.1 -0.36 c 0 -0.04 -0.04 -0.2 -0.09 -0.38 c -0.11 -0.38 -0.47 -0.79 -0.87 -0.99 c -0.36 -0.18 -0.52 -0.34 -0.52 -0.52 c 0 -0.19 0.19 -0.31 0.59 -0.36 c 0.57 -0.07 0.75 -0.23 0.7 -0.65 c -0.03 -0.21 -0.22 -0.32 -0.6 -0.32 c -0.54 0 -0.81 0.25 -1.11 1.02 c -0.46 1.2 -0.56 1.43 -0.71 1.59 c -0.16 0.17 -0.17 0.17 -0.75 0.17 c -0.64 0 -0.78 -0.03 -0.78 -0.15 c 0 -0.27 0.7 -2.2 1.13 -3.11 l 0.24 -0.51 l 0.33 -0.05 c 0.18 -0.03 0.96 -0.05 1.72 -0.05 c 1.55 0 1.95 0.05 2.11 0.3 c 0.15 0.23 0.07 0.88 -0.19 1.59 c -0.38 1.03 -0.37 0.94 -0.1 1.48 c 0.13 0.26 0.29 0.51 0.34 0.56 c 0.09 0.07 0.95 0.09 5.61 0.14 l 5.51 0.05 c 0.02 0.18 0 0.44 -0.13 0.5 c -0.54 0.11 -9.63 0.12 -11.34 0.05"/><path d="m 8.9 13.96 c -0.16 -0.16 0.07 -0.73 0.61 -1.53 c 0.2 -0.29 0.55 -0.81 0.78 -1.16 c 0.45 -0.79 0.73 -0.71 1.48 -0.68 c 0.82 0.03 1.12 0.11 1.39 0.36 c 0.14 0.13 1.33 2.48 1.4 2.77 l 0.04 0.15 l -0.46 0.03 c -0.62 0.04 -0.61 0.19 -1.13 -0.32 l -0.26 -0.25 l -0.96 -0.02 c -1.09 -0.02 -1.27 0.01 -1.68 0.34 c -0.16 0.13 -0.34 0.26 -0.41 0.29 c -0.14 0.07 -0.74 0.1 -0.8 0.03 m 3.15 -1.48 c 0.18 -0.04 0.19 -0.04 0.16 -0.3 c -0.03 -0.28 -0.18 -0.49 -0.34 -0.49 c -0.19 0 -0.41 0.14 -0.53 0.34 c -0.16 0.27 -0.11 0.42 0.17 0.45 c 0.18 0.04 0.38 0.04 0.54 0"/><path d="m 18.77 13.75 c -0.11 -0.04 -0.23 -0.21 -0.46 -0.65 c -0.37 -0.7 -0.5 -0.88 -0.64 -0.88 c -0.16 0 -0.38 0.27 -0.68 0.83 c -0.36 0.65 -0.43 0.71 -0.89 0.71 c -0.37 0 -0.38 0 -0.61 -0.27 c -0.14 -0.16 -0.31 -0.46 -0.43 -0.75 c -0.11 -0.27 -0.3 -0.72 -0.45 -1 c -0.58 -1.14 -0.41 -1.23 0.2 -1.22 c 0.34 0 0.54 0.25 0.76 0.53 c 0.51 0.64 0.73 0.77 0.92 0.55 c 0.05 -0.06 0.2 -0.29 0.33 -0.52 c 0.35 -0.61 0.5 -0.73 0.84 -0.73 c 0.35 0 0.53 0.13 0.77 0.58 c 0.21 0.39 0.48 0.71 0.61 0.71 c 0.16 0 0.43 -0.29 0.56 -0.59 c 0.18 -0.42 0.74 -1.04 0.46 -1.05 l -0.7 -0.04 l -7.4 -0.03 c -5.2 -0.02 -7.42 -0.05 -7.46 -0.09 c -0.09 -0.09 0.16 -0.42 0.32 -0.46 c 0.07 -0.02 3.68 -0.03 7.96 -0.02 c 8.8 0.02 7.71 0.13 8.1 0.7 c 0.35 0.54 0.33 0.63 -0.63 2.63 c -0.35 0.73 -0.46 0.92 -0.63 1.02 c -0.21 0.13 -0.56 0.15 -0.83 0.05"/></g><g style="fill:#0869cd"><path d="m 2.78 7.44 c 1.74 -2.09 4.59 -3.55 7.75 -3.98 c 0.88 -0.12 2.61 -0.12 3.49 0 c 2.53 0.34 4.69 1.34 6.27 2.89 c 0.49 0.49 1.02 1.11 1.17 1.37 c -6.75 0.13 -10.6 0.07 -18.98 0.07"/><path d="m 4.38 18.2 c -0.49 -0.41 -1.27 -1.21 -1.56 -1.62 l -0.11 -0.16 c 6.38 0 12.76 0 19.1 0 l -0.23 0.33 c -1.6 2.34 -4.36 3.86 -7.65 4.21 c -3.33 0.32 -7.42 -1.02 -9.59 -2.77"/></g></svg>