<svg xmlns="http://www.w3.org/2000/svg" viewBox="0 0 24 24"><path d="m 18.2 22.25 c 21.1 -18.1 -22.31 -35.57 -17.85 -7.53 c 0.98 6.15 12.16 12.41 17.85 7.53" style="fill:#c0c0c0"/><g style="stroke:#000"><path d="m 199.8 154.5 c 0.9 21.1 -10.1 41.1 -28.53 51.88 c -18.5 10.82 -41.54 10.82 -60 0 c -18.5 -10.82 -29.43 -30.76 -28.57 -51.88 c -0.86 -21.1 10.1 -41 28.57 -51.84 c 18.46 -10.82 41.5 -10.82 60 0 c 18.46 10.82 29.43 30.72 28.53 51.84" transform="matrix(0.095 0 0 0.096 -2.18 -2.91)" style="fill:#696969"/><path d="m 90.1 192.7 c -1.06 -1.27 -2.64 -3.66 -3.49 -5.29 c -1.27 -2.49 -1.16 -3 0.63 -3 c 1.9 0 2.06 -1.12 1.22 -8.9 c -1.22 -11.6 -2 -12.97 -8.88 -14.7 c -3.91 -1.02 -7.14 -3.1 -10.42 -6.82 c -5.87 -6.61 -8.57 -6.92 -8.57 -0.92 c 0 4.73 7.09 14.65 11.42 15.97 c 1.22 0.46 2.96 2.59 3.75 4.88 l 12.95 15.62 l -15.92 -7.78 c -2.27 -1.12 -8.41 -6.82 -13.22 -8.45 c -6.98 -2.39 -9.1 -3.71 -10.52 -6.87 c -0.95 -2.19 -5.29 -8.29 -9.52 -13.58 c -4.28 -5.34 -10.68 -14.86 -14.22 -21.2 c -3.54 -6.36 -8.62 -13.89 -11.32 -16.84 c -9.46 -10.38 -15.39 -18.67 -21.36 -29.91 c -6.77 -12.87 -13.8 -32.76 -13.64 -38.82 c 0.05 -3.56 0.21 -3.71 1.16 -1.27 c 0.74 1.93 2.7 3.05 6.13 3.61 c 5.23 0.86 47.1 21.83 51.4 25.74 c 1.37 1.27 4.86 5.85 7.72 10.23 c 2.91 4.38 8.14 11.1 11.53 15 c 5.39 6.1 15.65 28.34 12.27 29.1 c -1.06 0.25 -9.89 -18.82 -13.85 -21.1 c -4.65 -2.65 -8.99 -9.77 -8.99 -14.75 c 0 -0.92 -2.8 -4.73 -6.19 -8.39 c -4.44 -4.83 -8.25 -7.53 -13.64 -9.56 c -17.82 -6.66 -24.59 -4.17 -9.36 3.51 c 14.65 7.38 19.2 10.73 17.45 12.92 c -2.33 2.85 -0.69 5.44 4.71 7.28 c 4.34 1.53 5.76 0.92 1.69 3.97 c -2.86 2.24 -2.91 2.54 -0.95 4.83 c 1.16 1.32 2.54 4.58 3 7.17 c 0.58 3.31 2.86 6.82 7.14 11.14 c 6.93 6.92 11.37 7.99 15.23 3.66 c 3.81 -4.27 15.28 -6.92 30.88 -7.12 c 15.92 -0.15 24.1 1.78 30.46 7.28 c 4 3.46 12.9 4.93 12.9 2.09 c 0 -0.71 2.43 -4.07 5.45 -7.38 c 4.18 -4.63 4.97 -6.26 3.65 -7.12 c -1.48 -0.92 -1.37 -1.73 0.42 -4.53 c 2.49 -3.87 6.29 -6.11 16.1 -9.31 c 7.98 -2.65 8.35 -3.15 7.35 -8.5 c -0.69 -3.31 -1.9 -4.48 -6.5 -6.31 c -3.12 -1.22 -5.66 -2.65 -5.66 -3.21 c 0 -1.37 7.77 -6.26 16.97 -10.73 c 18.2 -8.75 3.49 -8.55 -15.65 0.2 c -6.56 3 -30.67 57.79 -36.4 54.84 c -5.45 -2.85 27.71 -55.86 33.74 -61.86 c 10.26 -10.18 27.3 -22.1 31.41 -22.1 c 1.06 0 3.38 -1.22 5.18 -2.7 c 2.38 -1.88 5.23 -2.65 10.52 -2.65 c 6 0 7.3 -0.36 7.35 -2.29 c 0.05 -1.78 0.37 -1.63 1.27 0.66 c 1.48 3.71 -0.53 15.31 -4.55 26.2 c -6.45 17.5 -14.65 31.2 -28.39 47.3 c -4.55 5.34 -12.21 15.92 -17 23.61 c -4.81 7.63 -11.1 16.48 -13.85 19.59 c -2.8 3.15 -5.98 7.73 -6.98 10.23 c -2.33 5.7 -5.5 7.78 -15.97 10.58 c -10.89 2.85 -14.28 4.68 -22.84 12.62 c -7.56 6.97 -11.74 8.14 -15.1 4.22 m 18.77 -14.3 c 2.27 -2.54 7.14 -7.78 10.89 -11.6 c 6.87 -7.1 9.36 -11.7 8.46 -15.87 c -0.74 -3.36 -2 -2.9 -7.72 2.9 c -3.44 3.51 -7.14 5.75 -11.26 6.82 c -7.09 1.83 -8.57 4.32 -8.57 14.3 c 0 9.67 1.96 10.53 8.2 3.46" transform="matrix(0.074 0 0 0.077 4.19 4)" style="stroke-width:1.21"/><path d="m 135 180.9 c -0.02 1.27 -1.56 2.34 -3.5 2.34 c -1.91 0.01 -3.49 -1.04 -3.49 -2.35 c 0.02 -1.27 1.58 -2.3 3.49 -2.31 c 1.91 -0.01 3.49 1.04 3.5 2.32" transform="matrix(0.104 -0.05 0.048 0.11 -10 3.65)"/><path d="m 135 180.9 c 0.01 1.28 -1.56 2.34 -3.5 2.34 c -1.91 0.01 -3.49 -1.04 -3.46 -2.33 c -0.01 -1.28 1.55 -2.31 3.46 -2.32 c 1.94 0 3.49 1.04 3.5 2.32" transform="matrix(-0.104 -0.05 -0.048 0.11 32.42 3.65)"/></g><g transform="scale(0.094)" style="fill:#fff;stroke:#fff"><g style="stroke-width:0.29"><path d="m 107.5 189.5 c -2 -2.38 -3.92 -4.83 -4.25 -5.5 c -0.71 -1.33 -1.75 -2.38 -3.54 -3.38 c -2.71 -1.54 -6.71 -6.63 -7.96 -10.13 c -0.58 -1.71 -0.58 -3.75 0.04 -4.5 c 0.63 -0.75 1.58 -0.13 4.71 2.88 c 4.17 4.08 5.75 5.13 9.79 6.46 c 3.75 1.25 4.96 2.13 5.71 4.08 c 0.92 2.42 2.04 13.46 1.42 13.83 c -0.13 0.08 -0.67 0.25 -1.25 0.33 l -1.04 0.21 l -3.63 -4.33 m 2.5 -5.42 c 2.92 -1.21 2.17 -5.21 -1.33 -6.96 c -1.71 -0.83 -3.25 -0.96 -4.75 -0.33 c -1.17 0.5 -1.58 1.21 -1.58 2.63 c 0 1.38 0.63 2.58 1.83 3.46 c 2.08 1.58 4 2 5.83 1.21"/><path d="m 125.4 191 c -0.5 -1.92 -0.42 -8.46 0.08 -10.46 c 0.79 -2.92 1.75 -3.75 6 -5.17 c 4.92 -1.63 6.5 -2.63 11.42 -7.17 c 1.42 -1.33 2.75 -2.42 3 -2.42 c 0.5 0 1 1.21 1 2.46 c -0.04 1.17 -1.08 3.75 -2.29 5.5 c -1.13 1.63 -6 6.92 -12.75 13.79 c -3.67 3.79 -4.75 4.75 -5.38 4.75 c -0.67 0 -0.79 -0.17 -1.08 -1.29 m 7.87 -7.25 c 2.33 -1.13 3.79 -3.54 3.21 -5.29 c -0.13 -0.46 -0.71 -1.17 -1.25 -1.5 c -1.75 -1.21 -4.5 -0.71 -6.63 1.21 c -1.17 1.08 -1.33 1.38 -1.46 2.71 c -0.17 1.67 0.08 2.13 1.54 3.04 c 1.04 0.67 2.96 0.58 4.58 -0.17"/></g><g style="stroke-width:1.43"><path d="m 86.2 145.9 c -5.08 -5.08 -9.92 -16.33 -7.88 -18.33 c 2.33 -2.33 1.96 -3.25 -2 -5 c -1.96 -0.92 -3.58 -2.83 -3.58 -4.33 c 0 -3.21 -2.71 -5.67 -11.88 -10.96 c -3.79 -2.21 -6.63 -4.25 -6.29 -4.54 c 0.33 -0.33 4.21 0.75 8.63 2.38 c 8.58 3.25 14 8.46 17.58 17 c 1.17 2.88 3.67 6.83 5.5 8.79 c 1.83 1.96 5.08 6.42 7.21 9.88 c 3.13 5 3.5 6.54 2 7.5 c -3.21 2.04 -5.46 1.46 -9.25 -2.33"/><path d="m 148.8 149.6 c -1.63 -1.04 -1.5 -1.96 0.88 -5.33 c 1.58 -2.25 6.58 -10.88 11.1 -19.1 c 9.67 -17.63 11.25 -19.63 17.88 -22.42 c 7.25 -3 8.96 -1.5 2.25 2.04 c -3.13 1.71 -7 4.08 -8.58 5.33 c -2.88 2.29 -2.88 2.29 0 4.38 c 5.67 4.13 7.88 6.33 7.88 7.83 c 0 0.83 -3.38 3 -7.54 4.88 c -8.21 3.63 -13.21 8.17 -12.17 11.1 c 0.63 1.83 -6.83 12.67 -8.71 12.63 c -0.54 -0.04 -1.88 -0.63 -2.96 -1.29"/></g></g></svg>