<svg xmlns="http://www.w3.org/2000/svg" viewBox="0 0 24 24"><path d="m 11.62 0.29 c 15.91 -1.8 16.61 23.99 0.56 23.69 c -14.89 0.85 -17.2 -25.1 -0.56 -23.69" style="fill:#00707d"/><path d="m 8.26 18.39 c -0.76 -0.31 -0.72 -0.02 -0.72 -6.14 c 0 -5.16 0.01 -5.45 0.19 -5.77 c 0.32 -0.59 0.34 -0.59 4.07 -0.59 c 3.89 0.03 4.97 0.1 3 3.13 c -0.45 0.83 -2.29 2.33 -2.34 3.24 c 0 0.26 0.24 0.71 0.66 1.23 c 0.13 0.16 0.21 0.34 0.18 0.39 c 0.72 0.97 1.75 2.05 2.46 3.14 c 0.21 0.34 0.16 0.91 -0.11 1.15 c -0.4 0.36 -0.64 0.39 -3.9 0.39 c -2.92 0 -3.11 -0.01 -3.5 -0.16" style="fill:#fbc60b"/><path d="m 7.61 17.86 c -0.14 -0.3 -0.09 -11.1 0.01 -11.31 c 0.35 -0.49 0.54 -0.47 0.92 -0.66 h 3.09 c 3.36 0 3.43 0.01 3.84 0.45 c 0.14 0.15 0.2 0.34 0.2 0.59 c 0 0.33 -0.11 0.51 -0.89 1.55 c -1.16 1.55 -2.07 2.82 -2.29 3.19 c -0.31 0.52 -0.21 0.89 0.49 1.83 c 0.14 0.18 0.05 0.26 -2.45 2.38 c -1.43 1.21 -2.65 2.19 -2.71 2.19 c -0.07 0 -0.17 -0.09 -0.22 -0.21" style="fill:#1e53f4"/><path d="m 10.62 8.39 l -2.63 -2.22 l 0.33 -0.17 c 0.31 -0.16 0.46 -0.17 3.43 -0.17 c 3.36 0 3.44 0.01 3.85 0.46 c 0.14 0.15 0.2 0.33 0.2 0.59 c 0 0.34 -0.11 0.53 -1.21 2 c -0.66 0.89 -1.24 1.65 -1.27 1.68 c -0.04 0.03 -1.25 -0.94 -2.69 -2.17" style="fill:#27285a"/><path d="m 14.31 15.53 c -2 -2.89 -2.05 -2.95 -2.05 -3.29 c 0 -0.38 0.31 -0.88 2 -3.24 c 0.75 -1.05 1.43 -2 1.5 -2.11 c 0.12 -0.19 0.13 0.26 0.13 5.32 c 0 3.04 -0.01 5.53 -0.02 5.53 c -0.01 0 -0.72 -1 -1.57 -2.21" style="fill:#fff"/></svg>