<svg xmlns="http://www.w3.org/2000/svg" viewBox="0 0 24 24"><path d="m 14.63 0.82 c 22.3 7.29 -1.64 36.3 -12.98 15.82 c -4.86 -8 1.51 -19.57 12.98 -15.82" style="fill:#ff8c00"/><g style="fill:#fff"><path d="m 7.82 15.21 v 3.18 h -1.73 v -3.18"/><path d="m 17.84 15.1 v 3.18 h -1.73 v -3.18"/><path d="m 4.37 14.1 h 15.1 v 1.73 h -15.1"/><path d="m 15.94 6.24 l 2.82 7 l -1.17 0.53 l -2.82 -7"/><path d="m 12.77 4.71 v 9 h -3 v -9"/><path d="m 14.5 5.52 v 8.19 h -1.34 v -8.19"/><path d="m 9.38 5.46 v 8.25 h -1.83 v -8.25"/><path d="m 7.17 6.16 v 7.6 h -1.51 v -7.6"/></g><g style="fill:#ff8c00"><path d="m 12.83 6.32 h -3.13 v -0.54 h 3.13"/><path d="m 12.83 12.73 h -3.13 v -0.54 h 3.13"/><path d="m 14.1 8.1 h -0.7 v -1.02 h 0.7"/><path d="m 8.79 13.17 h -0.7 v -0.54 h 0.7"/><path d="m 8.79 12.2 h -0.7 v -0.54 h 0.7"/><path d="m 6.74 13.44 h -0.49 v -0.54 h 0.49"/><path d="m 6.68 11.17 h -0.48 v -4.58 h 0.48"/><path d="m 8.73 8.91 h -0.48 v -2.8 h 0.48"/></g></svg>