<svg xmlns="http://www.w3.org/2000/svg" viewBox="0 0 24 24"><path d="m 18.36 21.53 c -12.27 8.63 -24.71 -7.31 -14.71 -17.48 c 9.42 -9.58 24.1 -0.7 19.49 11.22 c -0.96 2.49 -2.52 4.67 -4.78 6.25"/><path d="m 6.13 17.88 c -1.68 -0.46 -3.11 -1.82 -3.62 -3.46 c -0.34 -1.23 -0.25 -2.64 0.23 -3.71 c 0.62 -1.35 1.7 -2.32 3.13 -2.79 c 1.33 -0.44 2.73 -0.11 3.87 0.29 c 0.76 -0.75 1.62 -1.53 2.43 -1.93 c 0.95 -0.46 1.47 -0.61 2.42 -0.67 c 3.6 -0.21 6.69 2.94 6.44 6.57 c -0.18 2.66 -1.84 4.75 -4.43 5.61 c -0.66 0.22 -2.19 0.28 -2.92 0.11 c -0.8 -0.18 -1.44 -0.45 -2.12 -0.88 l -0.61 -0.38 l -0.49 0.34 c -1.89 0.94 -3 1.18 -4.34 0.9" style="fill:#fff"/><path d="m 6.68 17 c -0.99 -0.2 -1.66 -0.58 -2.37 -1.34 c -2.27 -2.45 -0.98 -6.3 2.35 -6.99 c 0.88 -0.18 1.58 -0.08 2.59 0.38 c 0.43 0.2 0.84 0.36 0.91 0.36 c 0.07 0 0.28 -0.22 0.48 -0.48 c 0.7 -0.96 1.62 -1.63 2.75 -2.02 c 1.54 -0.44 3.19 -0.22 4.66 0.93 c 1.25 0.99 2 2.7 1.9 4.26 c -0.12 1.54 -0.69 2.64 -1.91 3.68 c -1.23 1.05 -3.11 1.44 -4.57 0.94 c -0.78 -0.26 -1.35 -0.56 -1.89 -0.98 c -0.25 -0.19 -0.49 -0.35 -0.55 -0.35 c -0.64 0.35 -1.07 0.89 -1.77 1.24 c -0.83 0.29 -1.79 0.53 -2.57 0.38" style="fill:#fc6400"/></svg>