<svg xmlns="http://www.w3.org/2000/svg" xmlns:xlink="http://www.w3.org/1999/xlink" viewBox="0 0 24 24"><defs><g id="3" style="clip-path:url(#2)"><path d="m 9.8 18.3 c -0.93 0.02 -1.29 -0.12 -1.8 -0.71 c -0.31 -0.36 -0.41 -0.39 -1.06 -0.44 c -0.82 -0.05 -1.26 -0.31 -1.76 -1.03 c -0.64 -0.8 -1.31 -0.09 -1.52 -1.29 c -1.14 -1.5 0.27 -2.34 0.01 -2.88 c -0.66 -1.35 -0.29 -2.89 -0.05 -3.2 c 0.19 -0.24 0.53 -0.54 0.75 -0.67 c 0.22 -0.13 0.57 -0.46 0.79 -0.74 c 0.58 -0.77 1.03 -1.03 1.78 -1.03 c 0.6 0 0.66 -0.03 1.18 -0.54 c 0.52 -0.63 0.64 -0.54 1.42 -0.55 c 0.48 0 1.17 0.48 1.53 0.4 c 0.54 -0.12 0.77 -0.67 1.25 -0.55 c 1.23 0.32 2.27 -0.47 3.09 0.96 c 0.13 0.21 0.29 0.26 0.96 0.29 c 0.91 -0.05 1 0.26 1.63 0.9 c 0.46 0.47 1.04 1.03 1.29 1.24 c 0.38 0.31 0.5 0.52 0.7 1.18 c 0.34 1.15 -0.05 1.71 -0.16 2.42 c -0.05 0.34 0.71 0.91 0.27 1.71 c 0.02 1.29 -1.42 1.17 -1.75 1.99 c -0.04 0.11 -0.32 0.46 -0.63 0.77 c -0.55 0.54 -0.59 0.56 -1.33 0.61 c -0.71 0.04 -0.79 0.08 -1.09 0.44 c -0.49 0.59 -0.87 0.74 -1.81 0.72 c -0.45 -0.02 -1.02 0.02 -1.27 0.08 c -1.4 -1.1 -0.32 -0.17 -2.41 -0.09 m 3.9 -4.14 c 1.04 -0.56 3.05 -2.34 3.05 -2.59 c 0 -0.29 -2.05 -1.82 -2.96 -2.26 c -1.22 -0.6 -2.58 -0.73 -3.41 -0.32 c -1.94 0.95 -3.57 1.95 -3.77 2.52 c 0 0.23 2 2 3.28 2.68 c 1.48 0.79 2.48 0.68 3.81 -0.03" style="fill:#fff"/></g><clipPath id="2"><path d="M 0,0 H24 V24 H0 z"/></clipPath><filter id="0" filterUnits="objectBoundingBox" x="0" y="0" width="24" height="24"><feColorMatrix type="matrix" in="SourceGraphic" values="0 0 0 0 1 0 0 0 0 1 0 0 0 0 1 0 0 0 1 0"/></filter><mask id="1"><g style="filter:url(#0)"><path d="M 0,0 H24 V24 H0 z" style="fill-opacity:0.5"/></g></mask></defs><path d="m 19.77 19.41 c -9.71 12.61 -27.2 -4.38 -16 -15.53 c 9.64 -11.19 28.34 4.8 16 15.53" style="fill:#2c2c2c"/><path d="m 14.3 11.67 c 0 1.49 -1.2 2.7 -2.67 2.7 c -1.47 0 -2.67 -1.21 -2.67 -2.7 c 0 -1.49 1.2 -2.7 2.67 -2.7 c 1.48 0 2.67 1.21 2.67 2.7" style="fill:#fff"/><use xlink:href="#3" style="mask:url(#1)"/><g style="fill:#2c2c2c"><path d="m 10.34 11.69 v -1.57 h 0.93 c 0.51 0 0.99 0.01 1.07 0.03 c 0.21 0.04 0.42 0.14 0.54 0.28 c 0.32 0.34 0.23 0.87 -0.19 1.11 l -0.13 0.07 l 0.16 0.07 c 0.33 0.16 0.48 0.37 0.48 0.7 c 0 0.4 -0.24 0.68 -0.7 0.8 c -0.18 0.05 -0.28 0.05 -1.18 0.07 l -0.98 0.02 m 1.84 -0.75 c 0.11 -0.06 0.16 -0.14 0.16 -0.25 c 0 -0.24 -0.13 -0.3 -0.71 -0.3 h -0.43 v 0.61 l 0.45 -0.01 c 0.36 -0.01 0.46 -0.02 0.53 -0.05 m -0.08 -1.22 c 0.14 -0.11 0.14 -0.32 0 -0.43 c -0.06 -0.05 -0.11 -0.05 -0.48 -0.06 h -0.42 v 0.56 h 0.42 c 0.38 0 0.42 -0.01 0.48 -0.06"/><path d="m 10.76 9.5 h 0.55 v 1 h -0.55"/><path d="m 11.71 9.5 h 0.55 v 1 h -0.55"/><path d="m 10.73 12.72 h 0.55 v 1.07 h -0.55"/><path d="m 11.69 12.72 h 0.55 v 1.07 h -0.55"/></g></svg>