<svg xmlns="http://www.w3.org/2000/svg" viewBox="0 0 24 24"><path d="m 20.52 4.2 c -24.98 -18.92 -28.52 33.2 -3 16.45 c 5.81 -3.81 9.64 -11.43 3 -16.45" style="fill:#eaf81c"/><path d="m 19 5 l -8 8" transform="matrix(0.418 0 0 0.406 5.36 5.63)" style="fill:none;stroke:#caba2e;stroke-width:6"/><path d="m 10.8 10.1 h -3.35 v 6.89 h 3.35" style="fill:#caba2e"/><path d="m 10.8 16.18 c 0.42 0 0.42 0.4 0.42 0.4 v 0.81 h -4.19 v -0.81 c 0 -0.4 0.42 -0.4 0.42 -0.4" style="fill:#d6c84a"/><path d="m 11.64 16.58 c 0.42 0 0.42 0.41 0.42 0.41 v 0.81 h -5.86 v -0.81 c 0 -0.41 0.42 -0.41 0.42 -0.41"/><path d="m 19 5 l 4 4" transform="matrix(0.418 0 0 0.406 5.36 5.63)" style="fill:#ff0;stroke:#caba2e;stroke-linecap:square;stroke-width:4"/><g style="fill-opacity:0.2"><path d="m 14.61 6.44 h -2.6 c -0.21 0 -0.38 0.17 -0.38 0.38 v 2.5 c 0 0.21 0.17 0.38 0.38 0.38 h 2.6 c 0.21 0 0.38 -0.17 0.38 -0.38 v -2.5 c 0 -0.21 -0.17 -0.38 -0.38 -0.38"/><path d="m 11.1 9.69 h -3.9 c -0.31 0 -0.56 0.25 -0.56 0.56 v 3.74 c 0 0.31 0.25 0.56 0.56 0.56 h 3.9 c 0.31 0 0.56 -0.25 0.56 -0.56 v -3.74 c 0 -0.31 -0.25 -0.56 -0.56 -0.56"/></g><path d="m 11.1 9.28 h -3.9 c -0.31 0 -0.56 0.25 -0.56 0.56 v 3.74 c 0 0.31 0.25 0.56 0.56 0.56 h 3.9 c 0.31 0 0.56 -0.25 0.56 -0.56 v -3.74 c 0 -0.31 -0.25 -0.56 -0.56 -0.56" style="fill:#d6c84a"/><path d="m 10.43 10.1 h -2.6 c -0.21 0 -0.38 0.17 -0.38 0.38 v 2.5 c 0 0.21 0.17 0.38 0.38 0.38 h 2.6 c 0.21 0 0.38 -0.17 0.38 -0.38 v -2.5 c 0 -0.21 -0.17 -0.38 -0.38 -0.38"/><path d="m 10.1 10.5 h -1.95 c -0.15 0 -0.28 0.13 -0.28 0.28 v 1.87 c 0 0.16 0.13 0.28 0.28 0.28 h 1.95 c 0.16 0 0.28 -0.13 0.28 -0.28 v -1.87 c 0 -0.16 -0.13 -0.28 -0.28 -0.28" style="fill:#fff;fill-opacity:0.2"/><path d="m 14.61 6 h -2.6 c -0.21 0 -0.38 0.17 -0.38 0.38 v 2.5 c 0 0.21 0.17 0.38 0.38 0.38 h 2.6 c 0.21 0 0.38 -0.17 0.38 -0.38 v -2.5 c 0 -0.21 -0.17 -0.38 -0.38 -0.38" style="fill:#d6c84a"/><path d="m 25 16 l -2 -1 v -4 l 2 -2 h 4 l 1 2" transform="matrix(0.418 0 0 0.406 5.36 5.63)" style="fill:none;stroke:#000;stroke-linecap:round;stroke-width:2"/><path d="m 13.96 6.85 h -1.3 c -0.11 0 -0.19 0.09 -0.19 0.19 v 1.25 c 0 0.1 0.08 0.19 0.19 0.19 h 1.3 c 0.11 0 0.19 -0.09 0.19 -0.19 v -1.25 c 0 -0.1 -0.08 -0.19 -0.19 -0.19"/><path d="m 6.62 16.58 c 0 0 -0.42 0 -0.42 0.41 v 0.41 c 0 -0.41 0.42 -0.41 0.42 -0.41 h 5 c 0.42 0 0.42 0.41 0.42 0.41 v -0.41 c 0 0 0 -0.41 -0.42 -0.41" style="fill:#fff;fill-opacity:0.2"/></svg>