<svg xmlns="http://www.w3.org/2000/svg" viewBox="0 0 24 24" xmlns:xlink="http://www.w3.org/1999/xlink"><defs><linearGradient id="7" gradientUnits="userSpaceOnUse" x1="2.45" y1="10.13" x2="2.2" y2="9.64" gradientTransform="matrix(0.814 0 0 0.885 4.21 4.32)" xlink:href="#1"/><linearGradient id="C" gradientUnits="userSpaceOnUse" x1="4.66" y1="4.27" x2="5.25" y2="3.93" gradientTransform="matrix(0.814 0 0 0.885 4.21 4.32)" xlink:href="#0"/><linearGradient id="8" gradientUnits="userSpaceOnUse" x1="3.63" y1="9.27" x2="2.93" y2="11.56" gradientTransform="matrix(0.814 0 0 0.885 4.21 4.32)" xlink:href="#1"/><linearGradient id="A" gradientUnits="userSpaceOnUse" x1="118.9" y1="63.1" x2="117.9" y2="78.7" gradientTransform="matrix(0.12 0 0 0.124 2.91 -2.27)"><stop style="stop-color:#007f66;stop-opacity:0"/><stop offset="1" style="stop-color:#0fc"/></linearGradient><linearGradient id="B" gradientUnits="userSpaceOnUse" x1="103.5" y1="21.85" x2="103.1" y2="27.94" gradientTransform="matrix(0.148 0 0 0.154 2.32 11.89)" xlink:href="#A"/><linearGradient id="9" gradientUnits="userSpaceOnUse" x1="8.5" y1="14.54" x2="9.13" y2="13.46" gradientTransform="matrix(0.814 0 0 0.885 4.21 4.32)" xlink:href="#1"/><linearGradient id="6" gradientUnits="userSpaceOnUse" x1="5.47" y1="14.66" x2="4.79" y2="14.31" gradientTransform="matrix(0.814 0 0 0.885 4.21 4.32)" xlink:href="#0"/><linearGradient id="0" gradientUnits="userSpaceOnUse" y1="8.6" x2="0" y2="8.96" gradientTransform="matrix(0.814 0 0 0.885 4.21 4.32)"><stop style="stop-color:#001212"/><stop offset="1" style="stop-color:#001212;stop-opacity:0"/></linearGradient><linearGradient id="5" gradientUnits="userSpaceOnUse" x1="3.29" y1="12.41" x2="4.56" y2="12.4" gradientTransform="matrix(0.814 0 0 0.885 4.21 4.32)" xlink:href="#1"/><linearGradient id="1" gradientUnits="userSpaceOnUse" x1="7.37" y1="2.11" x2="6.32" y2="4.08" gradientTransform="matrix(0.814 0 0 0.885 4.21 4.32)"><stop style="stop-color:#020202"/><stop offset="1" style="stop-color:#020202;stop-opacity:0"/></linearGradient><linearGradient id="3" gradientUnits="userSpaceOnUse" x1="2.8" y1="8.76" x2="1.97" y2="7.25" gradientTransform="matrix(0.814 0 0 0.885 4.21 4.32)" xlink:href="#1"/><linearGradient id="4" gradientUnits="userSpaceOnUse" x1="4.92" y1="5.31" x2="3.74" y2="5.3" gradientTransform="matrix(0.814 0 0 0.885 4.21 4.32)" xlink:href="#1"/><linearGradient id="2" gradientUnits="userSpaceOnUse" x1="1022.5" y1="1582.4" x2="1018.6" y2="1575.6" gradientTransform="matrix(0.07 0 0 0.073 -60.2 -106.4)" xlink:href="#1"/></defs><path d="m 1.13 16.46 c -9 -29.2 39.4 -14.59 16.77 5.41 c -4.54 4 -14.34 2.46 -16.77 -5.41" style="fill:#2f4e4e"/><path d="m 7.73 6 h 6.8 l -1.72 3.23 h -3.69 l -1.54 2.89 l 1.55 2.93 h 7.19 l -1.77 3.32 h -6.97 l -3.37 -6.33 l 3.22 -6.07" style="fill:#fff"/><g style="fill:#00aa87"><path d="m 7.44 5.99 l 5.36 3.27 l 1.71 -3.23"/><path d="m 9.17 15.1 l -1.55 3.32 h 6.97 l 1.77 -3.32"/></g><path d="m 7.44 5.99 l 5.36 3.27 h -3.69 l -1.54 2.89 l 1.55 2.93 l -1.55 3.32 l -3.37 -6.33 l 3.22 -6.07" style="fill:#0cf"/><path d="m 4.21 12.1 l 3.37 0.09 l 0.1 0.18 l -3.36 -0.07" style="fill:url(#0)"/><path d="m 12.8 9.26 l -5.36 -3.27 l -0.41 0.8 l 4.06 2.45" style="fill:url(#1)"/><path d="m 9.1 9.22 l 5.46 -3.34 l -1.77 3.15" style="fill:url(#2)"/><g style="fill:#00aa87"><path d="m 9.1 9.26 l 5.4 -3.23 l -1.71 3.23"/><path d="m 4.21 12.1 l 4.88 -2.8 l -1.54 2.89"/></g><path d="m 4.21 12.1 l 4.88 -2.8 l -0.33 -0.57 l -4.23 2.66" style="fill:url(#3)"/><path d="m 9.1 9.26 l -1.68 -3.27 l 0.14 6.16" style="fill:#00aa87"/><path d="m 9.17 15.1 l 5.42 3.32 l 1.77 -3.32" style="fill:#0cf"/><path d="m 7.44 5.99 l -0.41 0.8 l 0.04 5.31 l 0.52 0.03" style="fill:url(#4)"/><path d="m 7.59 12.15 l -2.57 1.4 l 2.57 4.84" style="fill:#00aa87"/><path d="m 7.59 12.15 v 6.29 l 0.63 -1.34 l 0.05 -3.66" style="fill:url(#5)"/><path d="m 7.59 18.39 l -0.25 -0.48 l 1.56 -3.28 l 0.23 0.44" style="fill:url(#6)"/><path d="m 5 13.55 l 2.57 -1.4 l -0.52 -0.03 l -2.23 1.16" style="fill:url(#7)"/><path d="m 5 13.55 l 4.12 1.52 l -1.55 -2.93" style="fill:#00aa87"/><path d="m 9.17 15.1 l -4.13 -1.52 l 0.45 0.84 l 3.39 1.34" style="fill:url(#8)"/><path d="m 9.17 15.1 l 5.42 3.32 l 0.65 -1.26 l -3.49 -2.09" style="fill:url(#9)"/><path d="m 18.2 7.1 c 0 0.66 -0.52 1.2 -1.16 1.2 c -0.64 0 -1.16 -0.54 -1.16 -1.2 c 0 -0.66 0.52 -1.2 1.16 -1.2 c 0.64 0 1.16 0.54 1.16 1.2" style="fill:#0cf"/><path d="m 18.2 7.1 c 0 0.66 -0.52 1.2 -1.16 1.2 c -0.64 0 -1.16 -0.54 -1.16 -1.2 c 0 -0.66 0.52 -1.2 1.16 -1.2 c 0.64 0 1.16 0.54 1.16 1.2" style="fill:url(#A)"/><path d="m 18.1 15.99 c 0 0.32 -0.25 0.58 -0.56 0.58 c -0.31 0 -0.56 -0.26 -0.56 -0.58 c 0 -0.32 0.25 -0.59 0.56 -0.59 c 0.31 0 0.56 0.26 0.56 0.59" style="fill:#0cf"/><path d="m 18.1 15.98 c 0 0.32 -0.25 0.59 -0.56 0.59 c -0.31 0 -0.56 -0.26 -0.56 -0.59 c 0 -0.32 0.25 -0.58 0.56 -0.58 c 0.31 0 0.56 0.26 0.56 0.58" style="fill:url(#B)"/><path d="m 9.1 9.26 l -1.68 -3.27 h 0.43 l 1.58 3.05" style="fill:url(#C)"/><path d="m 15.38 8.54 c -0.14 0 -0.24 0.11 -0.24 0.25 v 0.59 c -0.21 0.05 -0.4 0.13 -0.58 0.24 l -0.41 -0.41 c -0.1 -0.1 -0.25 -0.1 -0.34 0 l -0.4 0.41 c -0.09 0.1 -0.09 0.25 0 0.35 l 0.41 0.41 c -0.11 0.18 -0.19 0.38 -0.24 0.58 h -0.58 c -0.14 0 -0.24 0.11 -0.24 0.25 v 0.57 c 0 0.14 0.11 0.25 0.24 0.25 h 0.58 c 0.05 0.21 0.13 0.41 0.24 0.59 l -0.41 0.41 c -0.09 0.1 -0.09 0.25 0 0.35 l 0.4 0.41 c 0.09 0.1 0.25 0.1 0.34 0 l 0.41 -0.41 c 0.18 0.11 0.37 0.19 0.58 0.24 v 0.59 c 0 0.14 0.11 0.25 0.24 0.25 h 0.57 c 0.13 0 0.24 -0.11 0.24 -0.25 v -0.59 c 0.21 -0.05 0.4 -0.14 0.58 -0.24 l 0.41 0.41 c 0.09 0.1 0.25 0.1 0.34 0 l 0.4 -0.41 c 0.1 -0.1 0.1 -0.25 0 -0.35 l -0.41 -0.41 c 0.11 -0.18 0.19 -0.38 0.24 -0.59 h 0.58 c 0.13 0 0.24 -0.11 0.24 -0.25 v -0.57 c 0 -0.14 -0.11 -0.25 -0.24 -0.25 h -0.58 c -0.05 -0.21 -0.13 -0.4 -0.24 -0.58 l 0.41 -0.41 c 0.1 -0.1 0.1 -0.25 0 -0.35 l -0.4 -0.41 c -0.09 -0.1 -0.25 -0.1 -0.34 0 l -0.41 0.41 c -0.18 -0.11 -0.37 -0.19 -0.58 -0.24 v -0.59 c 0 -0.14 -0.11 -0.25 -0.24 -0.25 m -0.29 1.94 c 0.55 0 1 0.45 1 1 c 0 0.56 -0.45 1.01 -1 1.01 c -0.55 0 -0.99 -0.45 -0.99 -1.01 c 0 -0.55 0.45 -1 0.99 -1" style="fill:#0cf"/><path d="m 15.4 12.97 c -0.67 -0.13 -1.14 -0.58 -1.27 -1.21 c -0.04 -0.18 -0.02 -0.48 0.02 -0.66 c 0.21 -0.75 0.93 -1.26 1.66 -1.17 c 0.61 0.07 1.08 0.43 1.3 0.96 c 0.14 0.34 0.14 0.76 0 1.11 c -0.18 0.46 -0.59 0.83 -1.07 0.95 c -0.14 0.04 -0.51 0.05 -0.65 0.02 m 0.48 -0.68 c 0.31 -0.07 0.6 -0.33 0.68 -0.63 c 0.01 -0.04 0.02 -0.13 0.02 -0.21 c 0 -0.23 -0.07 -0.41 -0.25 -0.59 c -0.29 -0.29 -0.71 -0.35 -1.07 -0.17 c -0.54 0.27 -0.64 0.98 -0.2 1.38 c 0.22 0.2 0.53 0.28 0.82 0.21" style="fill:#00aa87"/></svg>