<svg xmlns="http://www.w3.org/2000/svg" viewBox="0 0 24 24" xmlns:xlink="http://www.w3.org/1999/xlink"><defs><linearGradient id="8" gradientUnits="userSpaceOnUse" x1="25.86" y1="65.4" x2="21.1" y2="80.98" gradientTransform="matrix(0.111 0 0 0.121 4.57 4.51)" xlink:href="#1"/><linearGradient id="D" gradientUnits="userSpaceOnUse" x1="32.85" y1="31.3" x2="36.85" y2="29" gradientTransform="matrix(0.111 0 0 0.121 4.57 4.51)" xlink:href="#0"/><linearGradient id="9" gradientUnits="userSpaceOnUse" x1="58.99" y1="101.3" x2="63.3" y2="93.9" gradientTransform="matrix(0.111 0 0 0.121 4.57 4.51)" xlink:href="#1"/><linearGradient id="B" gradientUnits="userSpaceOnUse" x1="93.9" y1="45.71" x2="93.1" y2="57.5" gradientTransform="matrix(0.111 0 0 0.121 4.54 4.16)" xlink:href="#A"/><linearGradient id="C" gradientUnits="userSpaceOnUse" x1="103.5" y1="21.85" x2="103.1" y2="27.93" gradientTransform="matrix(0.111 0 0 0.121 4.57 4.51)" xlink:href="#A"/><linearGradient id="A" gradientUnits="userSpaceOnUse" x1="119" y1="63.1" x2="117.9" y2="78.7" gradientTransform="matrix(0.111 0 0 0.121 4.05 4.43)"><stop style="stop-color:#007f66;stop-opacity:0"/><stop offset="1" style="stop-color:#0fc"/></linearGradient><linearGradient id="7" gradientUnits="userSpaceOnUse" x1="17.85" y1="71.2" x2="16.2" y2="67.93" gradientTransform="matrix(0.111 0 0 0.121 4.57 4.51)" xlink:href="#1"/><linearGradient id="0" gradientUnits="userSpaceOnUse" x1="14.93" y1="60.86" x2="14.9" y2="63.3" gradientTransform="matrix(0.111 0 0 0.121 4.57 4.51)"><stop style="stop-color:#001212"/><stop offset="1" style="stop-color:#001212;stop-opacity:0"/></linearGradient><linearGradient id="1" gradientUnits="userSpaceOnUse" x1="51.3" y1="16.58" x2="44.2" y2="30" gradientTransform="matrix(0.111 0 0 0.121 4.57 4.51)"><stop style="stop-color:#020202"/><stop offset="1" style="stop-color:#020202;stop-opacity:0"/></linearGradient><linearGradient id="6" gradientUnits="userSpaceOnUse" x1="38.4" y1="102.1" x2="33.72" y2="99.8" gradientTransform="matrix(0.111 0 0 0.121 4.57 4.51)" xlink:href="#0"/><linearGradient id="2" gradientUnits="userSpaceOnUse" x1="1022.5" y1="1582.4" x2="1018.6" y2="1575.6" gradientTransform="matrix(0.065 0 0 0.068 -55.2 -98.5)" xlink:href="#1"/><linearGradient id="4" gradientUnits="userSpaceOnUse" x1="34.6" y1="38.42" x2="26.62" y2="38.4" gradientTransform="matrix(0.111 0 0 0.121 4.57 4.51)" xlink:href="#1"/><linearGradient id="5" gradientUnits="userSpaceOnUse" x1="23.51" y1="86.8" x2="32.2" y2="86.7" gradientTransform="matrix(0.111 0 0 0.121 4.57 4.51)" xlink:href="#1"/><linearGradient id="3" gradientUnits="userSpaceOnUse" x1="20.2" y1="61.91" x2="14.56" y2="51.61" gradientTransform="matrix(0.111 0 0 0.121 4.57 4.51)" xlink:href="#1"/></defs><path d="m 1.13 16.46 c -9 -29.2 39.4 -14.59 16.77 5.41 c -4.54 4 -14.34 2.46 -16.77 -5.41" style="fill:#3d4e7f"/><g style="fill:#fff"><path d="m 7.96 6.37 h 6.31 l -1.6 3 h -3.42 l -1.43 2.69 l 1.45 2.73 h 6.68 l -1.64 3.1 h -6.48 l -3.13 -5.91 l 3 -5.66"/><path d="m 7.7 6.34 l 4.98 3.05 l 1.6 -3"/><path d="m 9.28 14.82 l -1.45 3.09 h 6.48 l 1.64 -3.09"/></g><path d="m 7.7 6.34 l 4.98 3.05 h -3.42 l -1.43 2.69 l 1.45 2.73 l -1.45 3.09 l -3.12 -5.91 l 2.99 -5.66" style="fill:#0cf"/><path d="m 4.7 12 l 3.12 0.09 l 0.09 0.16 l -3.11 -0.07" style="fill:url(#0)"/><path d="m 12.68 9.39 l -4.98 -3.05 l -0.38 0.75 l 3.78 2.29" style="fill:url(#1)"/><path d="m 9.23 9.36 l 5.07 -3.13 l -1.64 2.93" style="fill:url(#2)"/><g style="fill:#fff"><path d="m 9.25 9.39 l 5 -3 l -1.59 3"/><path d="m 4.7 12 l 4.55 -2.61 l -1.43 2.69"/></g><path d="m 4.7 12 l 4.55 -2.61 l -0.31 -0.53 l -3.92 2.48" style="fill:url(#3)"/><path d="m 9.25 9.39 l -1.55 -3.05 l 0.13 5.75" style="fill:#fff"/><path d="m 9.28 14.82 l 5 3.09 l 1.64 -3.09" style="fill:#0cf"/><path d="m 7.7 6.34 l -0.38 0.75 l 0.04 4.97 l 0.48 0.03" style="fill:url(#4)"/><path d="m 7.83 12.1 l -2.39 1.31 l 2.39 4.52" style="fill:#fff"/><path d="m 7.83 12.1 v 5.84 l 0.58 -1.25 l 0.05 -3.42" style="fill:url(#5)"/><path d="m 7.83 17.91 l -0.23 -0.45 l 1.45 -3.05 l 0.22 0.41" style="fill:url(#6)"/><path d="m 5.44 13.39 l 2.39 -1.3 l -0.48 -0.03 l -2.07 1.08" style="fill:url(#7)"/><path d="m 5.44 13.39 l 3.84 1.43 l -1.45 -2.73" style="fill:#fff"/><path d="m 9.28 14.82 l -3.84 -1.43 l 0.42 0.79 l 3.15 1.25" style="fill:url(#8)"/><path d="m 9.28 14.82 l 5 3.09 l 0.6 -1.17 l -3.24 -1.95" style="fill:url(#9)"/><path d="m 18.24 13.57 c 0 0.65 -0.48 1.18 -1.08 1.18 c -0.59 0 -1.07 -0.53 -1.07 -1.18 c 0 -0.65 0.48 -1.18 1.07 -1.18 c 0.6 0 1.08 0.52 1.08 1.18" style="fill:#0cf"/><path d="m 18.25 13.56 c 0 0.65 -0.48 1.17 -1.08 1.17 c -0.59 0 -1.07 -0.52 -1.07 -1.17 c 0 -0.65 0.48 -1.18 1.07 -1.18 c 0.59 0 1.08 0.52 1.08 1.18" style="fill:url(#A)"/><path d="m 15.7 10.83 c 0 0.49 -0.37 0.89 -0.82 0.89 c -0.45 0 -0.82 -0.4 -0.82 -0.89 c 0 -0.5 0.37 -0.89 0.82 -0.89 c 0.45 0 0.82 0.4 0.82 0.89" style="fill:#0cf"/><path d="m 15.71 10.83 c 0 0.49 -0.37 0.89 -0.82 0.89 c -0.45 0 -0.82 -0.4 -0.82 -0.89 c 0 -0.5 0.37 -0.89 0.82 -0.89 c 0.45 0 0.82 0.4 0.82 0.89" style="fill:url(#B)"/><path d="m 16.44 7.74 c 0 0.25 -0.19 0.46 -0.42 0.46 c -0.23 0 -0.42 -0.21 -0.42 -0.46 c 0 -0.25 0.19 -0.46 0.42 -0.46 c 0.23 0 0.42 0.2 0.42 0.46" style="fill:#0cf"/><path d="m 16.44 7.74 c 0 0.25 -0.19 0.46 -0.42 0.46 c -0.23 0 -0.42 -0.21 -0.42 -0.46 c 0 -0.25 0.19 -0.46 0.42 -0.46 c 0.23 0 0.42 0.21 0.42 0.46" style="fill:url(#C)"/><path d="m 9.25 9.39 l -1.55 -3.05 h 0.39 l 1.46 2.85" style="fill:url(#D)"/></svg>