<svg xmlns="http://www.w3.org/2000/svg" viewBox="0 0 24 24"><defs><linearGradient id="0" gradientUnits="userSpaceOnUse" x1="4.25" y1="5.12" x2="12.21" y2="13.39" gradientTransform="matrix(0.847 0 0 0.83 5 4.92)"><stop style="stop-color:#868e96"/><stop offset="1" style="stop-color:#5d6268"/></linearGradient><linearGradient id="1" gradientUnits="userSpaceOnUse" x1="5.61" y1="7.19" x2="10.1" y2="11.15" gradientTransform="matrix(0.847 0 0 0.83 5 4.92)"><stop style="stop-color:#d078e5"/><stop offset="1" style="stop-color:#26c7ff"/></linearGradient></defs><path d="m 22.95 8.2 c 4.66 11.95 -8.4 18.1 -16.52 15 c -5.67 -2.13 -8.49 -10.59 -4.47 -17.44 c 5.08 -8.63 17.4 -6.8 20.99 2.41" style="fill:#02c8ef"/><path d="m 5.86 7.41 h 1.69 v 3.32 h -1.69" style="fill:#22bcfa"/><path d="m 10.83 6.58 c -0.42 0 -0.82 0.21 -1.06 0.56 l -0.93 1.04 c -0.02 0.03 -0.01 0.04 -0.02 0.07 h -2.96 c -0.46 0 -0.85 0.38 -0.85 0.83 v 7.47 c 0 0.46 0.38 0.83 0.85 0.83 h 11.85 c 0.46 0 0.85 -0.38 0.85 -0.83 v -7.47 c 0 -0.46 -0.38 -0.83 -0.85 -0.83 h -2.96 c -0.02 -0.02 -0.01 -0.05 -0.03 -0.07 l -0.93 -1.04 c -0.24 -0.35 -0.64 -0.56 -1.06 -0.56" style="fill:url(#0)"/><path d="m 17.71 9.48 c 0 0.23 -0.19 0.42 -0.42 0.42 c -0.23 0 -0.43 -0.19 -0.43 -0.42 c 0 -0.23 0.19 -0.41 0.43 -0.41 c 0.23 0 0.42 0.19 0.42 0.41" style="fill:#b8c1cc"/><path d="m 15.17 12.39 c 0 1.84 -1.52 3.32 -3.39 3.32 c -1.87 0 -3.39 -1.49 -3.39 -3.32 c 0 -1.83 1.52 -3.32 3.39 -3.32 c 1.87 0 3.39 1.49 3.39 3.32" style="fill:#fff"/><path d="m 14.32 12.39 c 0 1.38 -1.14 2.49 -2.54 2.49 c -1.4 0 -2.54 -1.12 -2.54 -2.49 c 0 -1.38 1.14 -2.49 2.54 -2.49 c 1.4 0 2.54 1.11 2.54 2.49" style="fill:url(#1)"/><path d="m 18.56 16.54 c 0 0.46 -0.38 0.83 -0.85 0.83 h -11.85 c -0.46 0 -0.85 -0.38 -0.85 -0.83" style="fill:#3e454a"/></svg>