<svg xmlns="http://www.w3.org/2000/svg" xmlns:xlink="http://www.w3.org/1999/xlink" viewBox="0 0 24 24"><defs><g id="1" style="clip-path:url(#0)"><path d="m 11.83 9 c -0.78 0 -1.43 0.29 -1.96 0.87 c -0.58 0.64 -0.87 1.41 -0.87 2.32 c 0 0.64 0.13 1.21 0.38 1.71 c 0.26 0.51 0.61 0.89 1.04 1.17 c 0.44 0.27 0.91 0.4 1.43 0.4 c 0.13 0 0.27 -0.01 0.41 -0.03 c 0.14 -0.02 0.29 -0.05 0.45 -0.09 c 0.06 0.66 0.18 1.1 0.35 1.33 c 0.18 0.23 0.41 0.35 0.7 0.35 c 0.31 0 0.55 -0.12 0.75 -0.36 c 0.19 -0.24 0.29 -0.61 0.29 -1.11 h -0.25 c 0 0.28 -0.05 0.47 -0.13 0.59 c -0.07 0.12 -0.16 0.18 -0.27 0.18 c -0.11 0 -0.21 -0.06 -0.3 -0.17 c -0.09 -0.11 -0.18 -0.35 -0.28 -0.72 c -0.05 -0.2 -0.1 -0.36 -0.14 -0.47 c 0.43 -0.37 0.75 -0.77 0.95 -1.21 c 0.21 -0.45 0.31 -0.95 0.31 -1.52 c 0 -0.62 -0.13 -1.18 -0.39 -1.68 c -0.26 -0.5 -0.61 -0.89 -1.04 -1.15 c -0.43 -0.27 -0.91 -0.41 -1.43 -0.41 m 0.02 0.31 c 0.35 0 0.66 0.1 0.94 0.3 c 0.28 0.2 0.49 0.5 0.64 0.91 c 0.15 0.41 0.23 0.96 0.23 1.67 c 0 0.5 -0.04 0.92 -0.11 1.25 c -0.07 0.34 -0.18 0.64 -0.33 0.93 c -0.16 -0.46 -0.33 -0.78 -0.52 -0.96 c -0.24 -0.25 -0.54 -0.37 -0.91 -0.37 c -0.36 0 -0.64 0.11 -0.87 0.34 c -0.22 0.23 -0.33 0.51 -0.33 0.86 c 0 0.08 0 0.18 0.01 0.31 c -0.19 -0.32 -0.34 -0.67 -0.43 -1.03 c -0.09 -0.36 -0.14 -0.8 -0.14 -1.3 c 0 -0.71 0.07 -1.28 0.23 -1.7 c 0.16 -0.42 0.37 -0.73 0.64 -0.92 c 0.27 -0.2 0.58 -0.29 0.93 -0.29 m -0.05 4.07 c 0.33 0 0.57 0.14 0.73 0.44 c 0.13 0.23 0.19 0.59 0.2 1.1 c -0.13 0.08 -0.27 0.14 -0.41 0.18 c -0.15 0.04 -0.3 0.06 -0.47 0.06 c -0.21 0 -0.42 -0.04 -0.62 -0.13 c -0.2 -0.23 -0.3 -0.48 -0.3 -0.75 c 0 -0.27 0.08 -0.48 0.25 -0.65 c 0.16 -0.16 0.38 -0.25 0.64 -0.25"/><path d="m 17.8 4.46 c 0 0 -2.42 1.48 -2.38 2.66 c 0.04 1 1.27 1.37 2.05 0.78 l -0.69 1.37 h 2.03 l -0.69 -1.37 c 0.8 0.57 2.1 0.24 2.06 -0.78 c -0.05 -1.23 -2.39 -2.66 -2.39 -2.66"/><path d="m 4.48 15.76 c -0.55 0.03 -1.03 0.42 -1.09 0.93 c -0.03 0.34 0.05 0.69 0.27 0.98 c 0.66 0.84 1.45 1.61 2.19 2.38 h 0.02 c 0.7 -0.8 1.53 -1.55 2.19 -2.38 c 0.23 -0.36 0.32 -0.77 0.19 -1.17 c -0.2 -0.41 -0.49 -0.76 -1.02 -0.74 c -0.6 0 -1.23 0.46 -1.38 0.95 c -0.17 -0.39 -0.73 -0.91 -1.25 -0.95" style="fill:#f00"/></g><clipPath id="0"><path d="M 0,0 H24 V24 H0 z"/></clipPath></defs><path d="m 12.59 23.71 c 4 -0.76 7.86 -3.77 9.89 -7.69 c 1.71 -3.29 1.97 -6.5 0.77 -9.32 c -0.9 -2.12 -2.95 -4.1 -5.49 -5.31 c -2.71 -1.29 -5.24 -1.59 -7.85 -0.92 c -6.44 1.64 -11.16 10.27 -9.23 16.88 c 0.94 3.23 3.42 5.42 7.08 6.22 c 1.59 0.13 3.27 0.41 4.84 0.14" style="fill:#f4f4f4"/><use xlink:href="#1"/></svg>