<svg xmlns="http://www.w3.org/2000/svg" viewBox="0 0 24 24"><path d="m 22.25 5.9 c -18.1 -21 -35.57 22.2 -7.53 17.79 c 6.15 -0.98 12.41 -12.1 7.53 -17.79" style="fill:#b22121"/><path d="m 11.58 20.1 c -0.08 -0.06 -1.58 -0.92 -3.32 -1.91 c -1.75 -0.99 -3.23 -1.84 -3.29 -1.89 c -0.1 -0.09 -0.11 -0.35 -0.11 -3.88 c 0 -2.08 0.02 -3.83 0.04 -3.88 c 0.02 -0.05 0.22 -0.2 0.45 -0.33 c 2.53 -1.43 6 -3.43 6.17 -3.54 c 0.2 -0.14 0.22 -0.14 0.37 -0.04 c 0.09 0.06 1.6 0.92 3.36 1.92 c 1.76 1 3.21 1.85 3.23 1.88 c 0.02 0.06 -3.05 1.84 -3.28 1.89 c -0.08 0.02 -0.67 -0.29 -1.74 -0.89 c -0.89 -0.51 -1.67 -0.93 -1.72 -0.93 c -0.1 0 -3.22 1.73 -3.41 1.89 c -0.1 0.08 -0.11 0.26 -0.11 1.97 c 0 1.41 0.02 1.9 0.07 1.98 c 0.11 0.13 3.32 1.95 3.45 1.95 c 0.1 0 0.54 -0.25 4.46 -2.5 c 1.26 -0.72 2.32 -1.29 2.35 -1.27 c 0.09 1.32 0.06 2.26 0.06 3.71 l -0.23 0.14 c -2.25 1.4 -4.41 2.63 -6.53 3.75 c -0.12 0.08 -0.15 0.08 -0.28 -0.02" style="fill:#f84769"/><path d="m 15.37 14.38 c 1.04 -0.6 2.08 -1.21 3.16 -1.75 c 0.06 1.34 0.08 2.37 0.04 3.64 c -0.29 0.16 -0.57 0.36 -0.88 0.46 c -0.4 -0.36 -2.5 -2.15 -2.32 -2.36 m -3.59 -5.98 c -0.54 0.28 -1.04 0.64 -1.59 0.89 c -0.12 0.04 -2.49 -2.25 -2.43 -2.34 c 1.36 -0.63 2.53 -1.75 3.98 -2.23 c 0.11 0 6.57 3.65 6.6 3.73 c 0.02 0.05 -2.87 1.73 -3.11 1.81 c -1.19 -0.54 -2.34 -1.26 -3.45 -1.86" style="fill:#fb7d34"/><path d="m 8.28 10.31 c 1.13 -0.67 2.37 -1.34 3.38 -1.88 c 1.28 0.52 2.19 1.1 3.5 1.82 c -1.29 0.7 -2.32 1.25 -3.5 1.89 c -1.25 -0.66 -2.31 -1.29 -3.39 -1.84" style="fill:#fbb4b3"/></svg>