<svg xmlns="http://www.w3.org/2000/svg" viewBox="0 0 24 24"><path d="m 21.52 18.37 c 8.64 -12.24 -7.3 -24.65 -17.47 -14.67 c -9.58 9.4 -0.7 24 11.22 19.44 c 2.48 -0.95 4.67 -2.52 6.25 -4.77" style="fill:#473d8b"/><path d="m 11.87 16.1 c 0 -1.84 -0.02 -3.37 -0.04 -3.39 c -0.02 -0.02 -1.11 1.04 -2.42 2.35 l -2.39 2.38 l 0.23 0.21 c 1.1 1 2.61 1.63 4.23 1.77 l 0.39 0.04" style="fill:#9400d2"/><path d="m 17.63 16.76 c 0.83 -0.98 1.36 -2.11 1.52 -3.25 c 0.14 -0.52 0.15 -0.53 0.18 -1.09 h -3.34 c -2.07 0 -3.34 0.02 -3.33 0.05 c 0.03 0.07 4.59 4.64 4.64 4.64 c 0.02 0 0.17 -0.16 0.33 -0.35" style="fill:#ffa400"/><path d="m 9.16 14.74 l 2.34 -2.33 l -3.4 -0.03 c -1.87 -0.02 -3.4 -0.03 -3.41 -0.03 c 0 0 0.01 0.2 0.04 0.45 c 0.12 1.22 0.59 2.5 1.27 3.43 c 0.32 0.45 0.68 0.83 0.76 0.83 c 0.04 0 1.12 -1.05 2.4 -2.33" style="fill:#1e8fff"/><g transform="matrix(-0.054 0 0 0.053 18.84 5.42)" style="stroke-width:0.11"><path d="m 129.9 119.3 c -0.07 -0.22 0 -11.44 0.22 -24.92 c 0.22 -13.41 0.43 -41.78 0.43 -62.97 l 0.07 -38.63 h 1.95 c 6.93 0.07 23.76 3.23 33.36 6.3 c 11 3.59 24.55 10.19 34.45 16.93 c 5.2 3.52 14.23 10.7 16.61 13.27 l 1.52 1.69 l -1.52 1.17 c -5.99 4.76 -75.83 75.1 -82.91 83.6 c -3.18 3.81 -3.76 4.25 -4.19 3.52" style="fill:#eaf81c;stroke:#ffd9b9"/><path d="m 51.69 123.5 c -47.2 -0.07 -59.4 -0.22 -59.4 -0.81 c 0 -2.05 1.66 -15.39 2.53 -20 c 4.69 -25.73 15.67 -48.67 31.1 -65.4 l 3.76 -4.1 l 42.3 44.64 c 23.25 24.48 42.2 44.86 42.2 45.2 c 0 0.37 -0.65 0.66 -1.52 0.66 c -0.87 0 -28.31 -0.07 -61 -0.15" style="fill:#ffd600;stroke:#fff"/><path d="m 114.5 262.9 c -20.29 -1.47 -41.1 -7.99 -57.5 -18.1 c -6.57 -4 -15.38 -10.63 -19.64 -14.51 l -3.97 -3.67 l 28.96 -29.47 c 15.96 -16.2 35.82 -36.1 44.1 -44.3 l 15.17 -14.88 l 0.36 15.61 c 0.14 8.58 0.36 36.8 0.36 62.75 c 0.07 37.46 -0.07 47.1 -0.58 47.1 c -0.36 0 -3.68 -0.22 -7.29 -0.51" style="fill:#f00;stroke:#f00"/><path d="m 98.1 95.2 c -23.83 -23.75 -61.2 -62.2 -62.5 -64.3 c 1.08 -6.67 14.23 -14.29 21.52 -18.69 c 7.94 -4.69 22.53 -11 31.34 -13.41 c 9.82 -2.79 25.93 -5.57 31.78 -5.57 h 2.09 l -0.29 60.84 c -0.22 33.5 -0.51 61.4 -0.65 62.1 c -0.22 0.66 -0.51 1.25 -0.72 1.25 c -0.22 0 -10.33 -10 -22.53 -22.2" style="fill:#ff0;stroke:#ff7f4f"/><path d="m 184.1 123.5 c -22.97 -0.22 -42.75 -0.59 -43.98 -0.73 l -2.31 -0.37 l 4.41 -4.91 c 6.64 -7.4 53.73 -55.3 68.2 -69.3 l 12.78 -12.39 l 3.68 3.96 c 4.77 5.2 12.2 15.25 15.38 20.67 c 6.5 11.29 12.35 26.76 15.24 40.61 c 0.72 6.82 5.13 15.39 2.89 22.2 c -0.36 1.03 -3.47 1.03 -76.3 0.29" style="fill:#9acd31;stroke:#ff9f79"/></g></svg>