<svg xmlns="http://www.w3.org/2000/svg" viewBox="0 0 24 24"><path d="m 5.64 2.56 c 12.27 -8.59 24.71 7.28 14.71 17.4 c -9.42 9.54 -24.1 0.7 -19.49 -11.18 c 0.95 -2.48 2.52 -4.65 4.78 -6.23" style="fill:#392e78"/><path d="m 6.46 6.32 h 11 c 0.13 0 0.23 0.1 0.23 0.23 v 1.69 c 0 0.12 -0.1 0.22 -0.23 0.22 h -11 c -0.12 0 -0.22 -0.1 -0.22 -0.22 v -1.69 c 0 -0.13 0.1 -0.23 0.22 -0.23" style="fill:#8d8d8d"/><path d="m 6.46 9.53 h 11 c 0.13 0 0.23 0.1 0.23 0.22 v 1.69 c 0 0.13 -0.1 0.22 -0.23 0.22 h -11 c -0.12 0 -0.22 -0.1 -0.22 -0.22 v -1.69 c 0 -0.13 0.1 -0.22 0.22 -0.22" style="fill:#81d453"/><path d="m 6.45 12.74 h 11 c 0.13 0 0.22 0.1 0.22 0.22 v 1.69 c 0 0.13 -0.1 0.22 -0.22 0.22 h -11 c -0.12 0 -0.22 -0.1 -0.22 -0.22 v -1.69 c 0 -0.12 0.1 -0.22 0.22 -0.22" style="fill:#fccc53"/><path d="m 6.46 15.95 h 11 c 0.13 0 0.23 0.1 0.23 0.23 v 1.69 c 0 0.13 -0.1 0.23 -0.23 0.23 h -11 c -0.12 0 -0.22 -0.1 -0.22 -0.23 v -1.69 c 0 -0.13 0.1 -0.23 0.22 -0.23" style="fill:#4d8cd6"/></svg>