<svg xmlns="http://www.w3.org/2000/svg" viewBox="0 0 24 24"><path d="m 0.15 14.74 c 1.04 9.68 14.1 12.28 20.29 5.36 c 5.38 -5.14 4.56 -14.97 -1.59 -18.35 c -7 -4.51 -17.84 1.07 -18.83 10.1 c -0.11 0.98 -0.07 1.98 0.13 2.93" style="fill:#105331"/><g style="fill:#fff"><path d="m 12.18 17.64 l -0.68 -0.04 c -0.37 -0.02 -1.83 -0.04 -3.23 -0.04 h -2.56 v -4.83 l -0.17 -0.16 c -0.26 -0.25 -0.65 -0.79 -0.84 -1.16 c -0.78 -1.56 -0.27 -3.5 1.16 -4.46 c 0.5 -0.34 0.85 -0.46 1.44 -0.54 c 1.07 -0.13 1.9 0.14 2.78 0.92 l 0.48 0.42 h 8.1 v 9.88 l -1.59 -0.04 c -0.87 -0.02 -2 -0.02 -2.55 0.01 l -0.96 0.04 c -0.09 0.41 -0.52 0.62 -0.75 0.76 c -0.21 -0.27 -0.39 -0.49 -0.6 -0.77 m -0.63 -0.66 c 0.04 -0.01 0.07 -0.07 0.07 -0.13 c 0 -0.16 -2.04 -3.23 -2.29 -3.45 c -0.23 -0.2 -0.25 -0.2 -0.75 -0.09 c -0.46 0.1 -1.26 0.1 -1.68 0 c -0.54 -0.13 -0.61 -0.12 -0.66 0.13 c -0.04 0.27 -0.04 2.91 0 3.29 l 0.03 0.29 l 1.2 0.02 c 1.35 0.02 3.97 -0.01 4.07 -0.05 m 6.35 -0.02 c 0.06 -0.04 0.08 -0.76 0.13 -3.5 c 0.07 -4.1 0.05 -5.08 -0.06 -5.15 c -0.1 -0.06 -4.2 -0.07 -5.89 -0.02 l -1.12 0.04 v 0.14 c 0.28 0.93 0.27 1.74 0.05 2.51 c -0.09 0.32 -0.49 1 -0.85 1.48 c -0.05 0.07 0.17 0.43 1.75 2.88 c 0.57 0.87 1.07 1.61 1.13 1.63 c 0.14 0.05 4.77 0.05 4.86 0 m -9.4 -4.22 c 0.49 -0.13 0.84 -0.35 1.27 -0.79 c 0.65 -0.66 0.86 -1.19 0.86 -2.17 c 0 -0.84 -0.26 -1.45 -0.87 -2.07 c -0.61 -0.61 -1.18 -0.82 -2.16 -0.8 c -0.62 0.02 -0.66 0.03 -1.08 0.24 c -0.87 0.43 -1.5 1.29 -1.63 2.21 c -0.07 0.47 -0.03 1.08 0.1 1.45 c 0.29 0.87 1.26 1.79 2.07 1.95 c 0.48 0.03 0.99 0.09 1.45 -0.02"/><path d="m 8.59 16.68 c -0.02 -0.02 -0.04 -0.07 -0.04 -0.12 c -0.08 -0.26 -0.29 -0.43 -0.38 -0.68 c -0.09 -0.28 -0.32 -0.16 -0.45 0 c -0.14 0.2 -0.22 0.2 -0.34 0.02 c -0.14 -0.31 -0.1 -0.49 -0.1 -0.83 l -0.25 -0.09 c -0.27 -0.1 -0.28 -0.12 -0.17 -0.29 c 0.08 -0.14 0.16 -0.17 0.4 -0.17 c 0.9 -0.11 0.45 -0.69 0.69 -0.83 c 0.11 -0.06 0.14 -0.06 0.28 -0.02 c 0.09 0.03 0.23 0.07 0.32 0.09 c 0.29 0.15 0.43 0.33 0.6 0.59 c -1.05 -0.36 -0.98 0.25 -0.6 0.82 c 0.17 0.25 0.22 0.27 0.72 0.21 c 0.59 -0.08 0.46 -0.31 0.77 0.04 c 0.16 0.18 0.35 0.43 0.44 0.56 c 0.13 0.2 0.14 0.22 0.06 0.2 c -0.22 -0.07 -0.55 -0.08 -0.82 -0.01 c -0.41 0.03 -0.57 0.52 -0.95 0.53 c -0.08 0 -0.16 -0.01 -0.18 -0.03"/><path d="m 12.81 13.88 c -0.29 -0.22 -0.44 -0.3 -0.76 -0.41 c -0.11 -0.04 -1.21 -1 -1.09 -1.17 c 0.22 -0.84 1 0.57 1.49 -0.06 c 0.14 -0.13 0.35 -0.25 0.46 -0.27 c 0.38 -0.14 0.25 -0.61 -0.07 -0.65 c -0.13 -0.01 -0.16 -0.05 -0.14 -0.13 c 0.07 -0.25 0.17 -0.68 0.2 -0.9 c 0.02 -0.13 -0.96 -0.54 -0.87 -0.65 c -0.57 -1.08 0.38 -0.71 4.37 -0.68 l 1.14 0.04 v 2.3 c -0.46 -1.48 -1 -0.54 -0.34 0.65 c -0.37 1.36 -1.37 -0.5 -1.48 0.5 c -0.08 0.78 -0.05 1.91 -0.36 1.91 c -0.23 0 -0.54 -1.18 -0.68 -1.49 c -0.12 -0.27 -0.34 -0.39 -0.52 -0.27 c -0.2 0.13 -0.8 0.91 -0.84 1.1 c -0.06 0.32 0.04 1.18 0 1.19 c -0.9 0.04 -0.33 -0.88 -0.51 -1.01 m 2.7 -2.62 c 0.03 -1.09 -1.04 -0.91 -1.65 0.17 c -0.45 0.29 0.81 0.72 1.23 0.28"/><path d="m 10.3 10.32 c -0.02 0.02 -0.09 0.04 -0.15 0.04 c -0.32 0.09 -0.53 0.32 -0.85 0.43 c -0.28 0.79 0.33 0.99 -1 0.98 l -0.11 0.27 c -0.13 0.3 -0.69 0.43 -0.91 0.33 c -1.89 -0.79 0.34 -0.32 0.34 -0.58 c -0.14 -1 -0.86 -0.5 -1.03 -0.77 c -0.07 -0.12 -0.07 -0.16 -0.02 -0.31 c 2.57 0.35 1.31 -1.09 2.18 -1.64 c 0.49 -0.35 0.84 -0.34 0.93 0 c 0.04 0.46 0.65 0.64 0.66 1.05 c 0 0.09 -0.02 0.18 -0.04 0.2"/><path d="m 17.3 16.45 c -0.02 0 -0.09 -0.02 -0.14 -0.05 c -0.31 -0.1 -0.57 -0.06 -0.88 -0.15 c -0.49 0.32 0 0.72 -1.18 0.1 l -0.18 0.11 c -0.2 0.11 -1.2 0.2 -1.35 0.04 c -0.12 -0.13 0.84 -0.3 0.92 -0.45 c 0.18 -0.64 -0.61 -0.69 -0.68 -0.92 c -0.03 -0.1 -0.02 -0.13 0.07 -0.19 c 1.34 1.21 2.2 -1.04 2.29 0.21 c 0.54 0.03 1.4 -2.54 1.38 -2.3 c -0.11 0.28 -0.04 3.27 -0.16 3.52 c -0.03 0.05 -0.07 0.09 -0.09 0.09"/></g></svg>