<svg xmlns="http://www.w3.org/2000/svg" viewBox="0 0 24 24"><path d="m 1.13 7.66 c -9 28.96 39.4 14.48 16.77 -5.37 c -4.54 -3.98 -14.34 -2.45 -16.77 5.37" style="fill:#5237f2"/><path d="m 4.59 18.2 c -0.02 -0.03 0.05 -0.39 0.14 -0.8 c 0.09 -0.41 0.16 -0.76 0.14 -0.79 c -0.02 -0.03 -0.21 -0.05 -0.45 -0.05 c -0.41 0 -0.61 -0.04 -0.61 -0.12 c 0 -0.02 0.34 -0.39 0.75 -0.82 l 0.75 -0.78 l 0.19 -0.82 c 0.11 -0.45 0.19 -0.84 0.19 -0.86 c 0 -0.02 -0.18 -0.04 -0.39 -0.04 c -0.22 0 -0.41 -0.03 -0.43 -0.07 c -0.02 -0.04 0.29 -0.41 0.75 -0.89 l 0.8 -0.82 l 2.54 -0.02 c 2.84 -0.02 2.73 -0.04 2.62 0.4 c -0.03 0.13 -0.1 0.43 -0.15 0.65 c -0.05 0.22 -0.16 0.7 -0.23 1.07 c -0.13 0.59 -0.27 1.2 -0.66 2.94 c -0.2 0.89 -0.11 0.82 -1 0.82 c -0.48 0 -0.8 -0.03 -0.84 -0.07 c -0.04 -0.04 -0.05 -0.17 -0.04 -0.31 l 0.04 -0.25 h -0.95 c -1.1 0 -0.98 -0.09 -1.2 0.88 c -0.2 0.89 -0.1 0.82 -1.08 0.82 c -0.46 0 -0.86 -0.03 -0.88 -0.06 m 4.67 -4 c 0.07 -0.3 0.15 -0.66 0.18 -0.8 l 0.04 -0.25 l -1.91 0.03 l -0.17 0.69 c -0.09 0.38 -0.17 0.74 -0.17 0.8 c 0 0.1 0.07 0.11 0.95 0.09 l 0.95 -0.02 m 2.49 3.49 c -0.02 -0.03 0.07 -0.5 0.2 -1.05 c 0.25 -1.1 0.84 -3.67 0.89 -3.9 c 0.03 -0.13 0.02 -0.14 -0.4 -0.14 c -0.31 0 -0.43 -0.02 -0.43 -0.08 c 0 -0.05 0.36 -0.46 0.81 -0.91 l 0.81 -0.83 h 2.52 c 2.07 0 2.53 0.02 2.59 0.09 c 0.05 0.07 0.04 0.24 -0.08 0.74 c -0.09 0.36 -0.24 1.04 -0.34 1.53 c -0.42 1.94 -0.51 2.32 -0.57 2.41 c -0.04 0.05 -0.38 0.37 -0.78 0.7 l -0.71 0.61 h -1.14 c -0.9 0 -1.14 -0.02 -1.14 -0.08 c 0 -0.04 0.35 -0.44 0.78 -0.88 c 0.74 -0.76 0.79 -0.8 1.02 -0.8 c 0.14 0 0.28 -0.04 0.31 -0.08 c 0.04 -0.04 0.12 -0.33 0.19 -0.64 c 0.07 -0.31 0.18 -0.8 0.25 -1.09 c 0.06 -0.29 0.12 -0.57 0.12 -0.61 c 0 -0.06 -0.21 -0.07 -0.95 -0.06 l -0.95 0.02 l -0.19 0.82 c -0.11 0.45 -0.36 1.55 -0.57 2.44 c -0.21 0.9 -0.4 1.68 -0.43 1.74 c -0.05 0.1 -0.15 0.11 -0.89 0.11 c -0.46 0 -0.86 -0.02 -0.88 -0.05 m -1.69 -7.64 c -0.72 -0.02 -0.95 -0.04 -0.95 -0.1 c 0 -0.05 0.36 -0.45 0.81 -0.91 l 0.81 -0.82 h 2.22 c 1.98 0 2.23 0.01 2.26 0.1 c 0.03 0.07 -0.18 0.32 -0.68 0.85 c -0.39 0.41 -0.79 0.79 -0.88 0.84 c -0.16 0.09 -0.79 0.1 -3.58 0.04 m -5 -0.09 c -0.02 -0.04 0.3 -0.42 0.74 -0.88 l 0.78 -0.81 h 0.32 c 0.36 0 0.33 0.02 2.31 -1.88 l 1.18 -1.13 h 2.89 h 2.89 l 0.15 0.2 c 0.08 0.11 0.46 0.74 0.86 1.39 c 0.39 0.65 0.75 1.23 0.79 1.28 c 0.06 0.06 0.24 0.08 0.67 0.07 c 0.66 -0.01 0.8 0.04 0.7 0.22 c -0.03 0.06 -0.39 0.45 -0.79 0.85 l -0.73 0.74 h -0.79 l -0.89 -1.47 l -0.89 -1.47 h -4.21 l -0.91 0.86 c -0.5 0.47 -1.2 1.13 -1.55 1.47 l -0.65 0.62 h -1.42 c -0.96 0 -1.44 -0.02 -1.46 -0.07" style="fill:#f47a8e"/></svg>