<svg xmlns="http://www.w3.org/2000/svg" viewBox="0 0 24 24"><path d="m 5.65 2.62 c 11.94 -8.52 24.4 7.21 14.71 17.24 c -9.12 9.45 -23.64 0.69 -19.32 -11.1 c 0.9 -2.45 2.41 -4.61 4.61 -6.17" style="fill:#008b8b"/><path d="m 7.53 5.84 h 8.8 c 0.57 0 1.03 0.41 1.03 0.91 v 11.1 c 0 0.5 -0.46 0.91 -1.03 0.91 h -8.8 c -0.57 0 -1.03 -0.41 -1.03 -0.91 v -11.1 c 0 -0.5 0.46 -0.91 1.03 -0.91" style="fill:#fff"/><g style="fill:#d4d4d0"><path d="m 5.91 14.43 h 1.75 v 0.59 h -1.75"/><path d="m 8.18 14.91 c -0.2 -0.06 -0.32 -0.21 -0.32 -0.38 c 0 -0.3 0.02 -0.33 0.52 -0.81 c 0.82 -0.77 1.02 -0.9 1.29 -0.82 c 0.19 0.06 0.3 0.2 0.32 0.4 c 0.03 0.3 -0.04 0.39 -0.73 1 c -0.34 0.3 -0.64 0.55 -0.67 0.57 c -0.12 0.06 -0.28 0.07 -0.41 0.03"/></g><path d="m 16.56 10.62 c 0 2.36 -1.88 4.27 -4.19 4.27 c -2.31 0 -4.19 -1.91 -4.19 -4.27 c 0 -2.36 1.88 -4.27 4.19 -4.27 c 2.31 0 4.19 1.91 4.19 4.27" style="fill:#37a675"/><path d="m 16.1 10.62 c 0 1.98 -1.63 3.58 -3.65 3.58 c -2 0 -3.65 -1.6 -3.65 -3.58 c 0 -1.98 1.63 -3.58 3.65 -3.58 c 2 0 3.65 1.61 3.65 3.58" style="fill:#fff"/><g style="fill:#403e46"><path d="m 10.25 11.71 c -0.24 -0.11 -0.38 -0.25 -0.44 -0.47 c -0.07 -0.26 -0.06 -1.5 0.01 -1.59 c 0.03 -0.04 0.14 -0.07 0.25 -0.07 c 0.24 0 0.29 0.09 0.29 0.68 c 0 0.62 0.05 0.86 0.16 0.88 c 0.05 0.01 0.11 -0.01 0.13 -0.04 c 0.02 -0.03 0.05 -0.36 0.07 -0.73 c 0.02 -0.37 0.06 -0.7 0.09 -0.73 c 0.03 -0.03 0.14 -0.06 0.24 -0.06 c 0.26 0 0.29 0.09 0.29 0.9 c 0 0.79 -0.08 1.02 -0.43 1.2 c -0.25 0.13 -0.4 0.14 -0.64 0.03"/><path d="m 11.85 11.75 c -0.04 -0.02 -0.09 -0.05 -0.11 -0.09 c -0.02 -0.03 -0.04 -0.49 -0.04 -1.02 c 0 -0.79 0.01 -0.97 0.07 -1.02 c 0.05 -0.04 0.22 -0.05 0.54 -0.04 c 0.54 0.02 0.67 0.09 0.84 0.44 c 0.09 0.18 0.11 0.3 0.11 0.66 c 0 0.52 -0.12 0.82 -0.38 0.97 c -0.16 0.09 -0.88 0.16 -1.04 0.1 m 0.71 -0.64 c 0.06 -0.06 0.18 -0.1 0.14 -0.52 c -0.04 -0.41 -0.09 -0.41 -0.21 -0.42 c -0.12 -0.02 -0.13 0 -0.16 0.26 c -0.03 0.25 0 0.63 0.05 0.72 c 0.04 0.06 0.1 0.04 0.19 -0.04"/><path d="m 13.73 11.71 c -0.06 -0.07 -0.07 -0.23 -0.07 -1.05 c 0 -0.69 0.02 -0.98 0.05 -1.02 c 0.09 -0.09 0.83 -0.08 1.04 0.01 c 0.22 0.09 0.43 0.38 0.45 0.63 c 0.02 0.16 0 0.25 -0.09 0.38 c -0.14 0.21 -0.39 0.38 -0.62 0.43 c -0.21 0.04 -0.25 0.08 -0.25 0.34 c 0 0.24 -0.09 0.36 -0.29 0.36 c -0.07 0 -0.17 -0.04 -0.21 -0.07 m 0.89 -1.3 c 0.09 -0.11 -0.01 -0.31 -0.27 -0.33 c -0.39 -0.03 -0.25 0.22 -0.26 0.46 c 0.21 -0.01 0.3 0.07 0.53 -0.14"/><path d="m 5.35 18 c -0.4 -0.14 -0.65 -0.44 -0.65 -0.8 c 0 -0.65 0.03 -0.7 1.07 -1.72 c 1.68 -1.64 2.1 -1.91 2.64 -1.74 c 0.39 0.13 0.63 0.42 0.66 0.84 c 0.05 0.63 -0.08 0.83 -1.5 2.13 c -0.7 0.63 -1.32 1.18 -1.38 1.21 c -0.24 0.13 -0.57 0.16 -0.83 0.07"/></g><g style="fill:#d4d4d0"><path d="m 5.93 8.8 h 1.75 v 0.59 h -1.75"/><path d="m 5.96 9.91 h 1.75 v 0.59 h -1.75"/><path d="m 5.91 10.96 h 1.75 v 0.59 h -1.75"/><path d="m 5.94 12.1 h 1.75 v 0.59 h -1.75"/><path d="m 5.91 13.29 h 1.75 v 0.59 h -1.75"/><path d="m 5.93 7.57 h 1.75 v 0.59 h -1.75"/></g></svg>