<svg xmlns="http://www.w3.org/2000/svg" viewBox="0 0 24 24"><path d="m 3.15 5.75 c -8.58 9.13 3.18 19.78 14.91 18.1 c 8.74 -1.21 7.8 -25.32 -4.88 -23.71 c -3.77 0.48 -7.23 2.66 -10 5.64" style="fill:#d2d2d2"/><path d="m 6.69 19.44 c -0.23 -0.09 -0.49 -0.36 -0.57 -0.57 c -0.12 -0.29 -0.03 -0.32 0.94 -0.32 c 0.96 0 1.05 0.03 0.93 0.32 c -0.2 0.5 -0.82 0.77 -1.3 0.57 m 2.63 -0.04 c -0.52 -0.26 -0.91 -0.91 -0.82 -1.39 c 0.05 -0.29 0.15 -0.5 0.25 -0.5 c 0.05 0 0.35 0.32 0.68 0.7 c 0.32 0.39 0.62 0.72 0.66 0.74 c 0.04 0.02 0.23 0.04 0.44 0.04 c 0.4 0 0.51 0.06 0.38 0.21 c -0.26 0.3 -1.14 0.4 -1.57 0.19 m 3.39 0 c -0.26 -0.13 -0.38 -0.26 -0.33 -0.34 c 0.02 -0.04 0.39 -0.06 0.97 -0.06 c 0.95 0 1.09 0.03 0.93 0.21 c -0.26 0.3 -1.14 0.4 -1.57 0.19 m 3.39 0 c -0.26 -0.13 -0.39 -0.26 -0.33 -0.34 c 0.02 -0.04 0.33 -0.06 0.79 -0.06 c 0.7 0 0.75 -0.01 0.79 -0.12 c 0.05 -0.17 -0.07 -0.36 -0.73 -1.14 c -0.36 -0.42 -0.58 -0.73 -0.55 -0.78 c 0.05 -0.12 0.51 -0.22 0.84 -0.18 c 0.57 0.06 1.04 0.43 1.23 0.95 c 0.11 0.3 0.11 0.45 0.02 0.79 c -0.08 0.3 -0.46 0.73 -0.79 0.89 c -0.31 0.15 -0.97 0.15 -1.27 0 m 2.62 -0.41 c -0.11 -0.11 -0.1 -2.13 0.01 -2.22 c 0.32 -0.09 0.57 -0.05 0.91 -0.03 c 0.13 0.86 0.41 1.38 0.67 2.27 c -0.06 0.09 -1.5 0.07 -1.59 -0.01 m -8.41 -0.43 c -0.13 -0.08 -1.23 -1.42 -1.21 -1.48 c 0.05 -0.16 0.45 -0.29 0.86 -0.29 c 0.69 0 1.18 0.34 1.4 0.96 c 0.11 0.31 0.09 0.71 -0.05 0.79 c -0.1 0.06 -0.9 0.07 -1 0.01 m 1.68 -0.01 c -0.2 -0.12 -0.1 -0.96 0.14 -1.15 c 0.13 -0.1 0.22 -0.03 0.66 0.5 c 0.56 0.68 0.55 0.71 -0.15 0.71 c -0.31 0 -0.6 -0.02 -0.64 -0.05 m 1.92 -0.02 c -0.23 -0.18 -1.27 -1.48 -1.24 -1.56 c 0.05 -0.12 0.51 -0.22 0.84 -0.18 c 0.58 0.07 1.05 0.43 1.24 0.97 c 0.11 0.31 0.08 0.71 -0.05 0.79 c -0.12 0.07 -0.68 0.06 -0.79 -0.02 m 1.47 0.02 c -0.2 -0.12 -0.1 -0.96 0.14 -1.15 c 0.13 -0.1 0.22 -0.03 0.66 0.5 c 0.56 0.68 0.55 0.71 -0.15 0.71 c -0.3 0 -0.59 -0.02 -0.64 -0.05 m -8.61 -0.51 c 0 -0.08 1.04 -0.86 1.45 -1.07 c 0.16 -0.09 0.18 0.1 0.03 0.39 c -0.08 0.16 -0.16 0.39 -0.18 0.5 c -0.02 0.11 -0.07 0.22 -0.11 0.24 c -0.04 0.02 -0.32 0.04 -0.63 0.04 c -0.49 0 -0.56 -0.01 -0.56 -0.1 m -0.69 -0.28 c -0.08 -0.08 -0.04 -0.92 0.04 -0.99 c 0.12 -0.09 1.38 -0.06 1.41 0.04 c 0.03 0.07 -1.23 0.99 -1.35 0.99 c -0.04 0 -0.08 -0.02 -0.11 -0.04 m 0.03 -1.52 c -0.1 -0.1 -0.1 -2.58 0 -2.68 c 0.04 -0.04 0.14 -0.07 0.21 -0.07 c 0.28 -0.35 0.14 -0.66 0.14 -1.26 c -0.21 -0.01 -0.42 -0.02 -0.64 -0.04 c 0 -0.19 0 -0.38 0 -0.57 h 4.85 c 0 0.19 0 0.38 0 0.57 c -0.21 0.01 -0.43 0.02 -0.64 0.04 v 0.63 c 0 0.62 0 0.63 0.14 0.63 c 0.07 0 0.17 0.03 0.21 0.07 c 0.11 0.1 0.11 2.58 0 2.68 c -0.11 0.1 -4.17 0.1 -4.28 0 m 1.32 -4 h -0.3 c 0 0.42 0 0.84 0 1.26 h 0.3 c 0 -0.42 0 -0.84 0 -1.26 m 1.94 0 c -0.43 0 -0.85 0 -1.27 0 c 0 0.42 0 0.84 0 1.26 c 0.43 0 0.85 0 1.27 0 c 0 -0.42 0 -0.84 0 -1.26 m 1.59 4 c -0.1 -0.1 -0.09 -0.76 0.01 -0.84 c 0.06 -0.04 1.16 -0.07 3.74 -0.08 l 3.66 -0.02 v -0.34 l -3.66 -0.01 c -2.58 -0.01 -3.68 -0.04 -3.74 -0.08 c -0.1 -0.08 -0.11 -0.74 -0.01 -0.84 c 0.05 -0.05 1.1 -0.07 4.32 -0.07 c 4 0 4.25 0.01 4.45 0.11 c 0.69 0.35 0.69 1.79 0 2.14 c -0.2 0.1 -0.43 0.11 -4.45 0.11 c -3.22 0 -4.26 -0.02 -4.32 -0.07 m 3.39 -2.75 c -0.08 -0.08 -0.1 -0.5 -0.02 -0.61 c 0.06 -0.1 0.4 -0.19 0.7 -0.19 c 0.3 0 0.64 0.09 0.71 0.19 c 0.07 0.11 0.06 0.53 -0.02 0.61 c -0.46 0.07 -0.9 0.16 -1.37 0 m 2.91 -0.01 c -0.1 -0.42 -0.09 -0.76 -0.1 -1.21 l -0.21 -0.03 c -0.21 -0.03 -0.21 -0.03 -0.21 -0.32 v -0.29 c 0.8 0 1.61 0 2.42 0 v 0.29 c 0 0.29 0 0.29 -0.21 0.32 l -0.21 0.03 c -0.03 0.4 0.02 0.84 -0.1 1.21 c -0.45 0.08 -0.71 0.04 -1.38 0 m -0.05 -2.44 c -0.14 -0.07 -0.48 -0.36 -0.58 -0.48 c -0.11 -0.12 -0.23 -0.22 -0.29 -0.22 c -0.5 0 -1.16 -0.43 -1.45 -0.95 c -0.13 -0.23 -0.18 -0.28 -0.31 -0.27 c -0.69 0.08 -1.77 0.07 -2.2 -0.01 c -0.8 -0.16 -1.57 -0.49 -2.14 -0.94 c -0.29 -0.23 -0.73 -0.79 -0.86 -1.1 c -0.11 -0.26 -0.13 -0.28 -0.47 -0.22 c -0.73 0.11 -1.8 0.4 -2.45 0.1 c -0.54 -0.25 -0.83 -1.23 -0.82 -1.54 c -0.73 -0.17 -1.02 -1.02 -0.75 -1.39 c 1.13 -3.33 4.36 -4.42 8 -3.81 c 2.95 1.48 4.89 2.61 4.75 5.68 c 0.07 0.22 0.04 0.84 -0.15 1.23 l -0.16 0.33 l 0.3 0.27 c 0.38 0.36 0.51 0.62 0.54 1.09 c 0.02 0.38 0.03 0.39 0.26 0.54 c 0.64 0.4 0.63 1.09 -0.02 1.5 c -0.36 0.22 -0.86 0.38 -1.25 0.2"/></svg>