<svg xmlns="http://www.w3.org/2000/svg" viewBox="0 0 24 24"><path d="m 23 14.21 c -2.39 16 -26.97 10.54 -22.32 -4.95 c 3.12 -14.72 28.3 -10.73 22.32 4.95" style="fill:#2159ff"/><path d="m 111.5 198.6 c -11.25 -3.38 -19.92 -8.75 -28 -17.33 c -9.33 -9.83 -13.79 -18.71 -16.42 -32.88 l -1.58 -8.5 l -4.62 -4.88 c -5.88 -6.21 -7.54 -9.96 -7.58 -16.87 c 0 -8 1.54 -11.75 7.42 -17.79 l 5 -5.13 v -5.5 c 0 -3 0.33 -6.33 0.71 -7.42 c 0.67 -1.79 1 -1.92 6.29 -1.92 h 5.54 l 5.63 -5.29 c 7.75 -7.33 14.38 -11.63 22.25 -14.5 c 15.67 -5.67 30.1 -5.25 44.5 1.29 c 6.13 2.83 11.67 6.67 18.42 12.83 l 6 5.5 l 5.58 0.29 c 3.04 0.17 5.75 0.5 6 0.71 c 0.21 0.25 0.63 3.58 0.88 7.42 l 0.5 6.96 l 4.5 4.58 c 5.92 5.92 7.96 11.1 7.5 18.79 c -0.38 6.54 -2.83 11.54 -8.1 16.58 c -3.58 3.42 -3.67 3.58 -5.33 11.58 c -1.92 9.33 -3.83 14.92 -7 20.79 c -8.1 14.63 -20.33 24.83 -36 29.92 c -7.58 2.46 -24.96 2.88 -32 0.75 m 24.88 -17.58 c 10.21 -2.46 19.88 -9.33 25.67 -18.29 c 4.29 -6.58 5.5 -9.92 6.71 -18.38 c 0.79 -5.58 1.08 -41.75 0.33 -43 c -0.67 -1.13 -4.38 1.13 -10.17 6.08 c -2.79 2.42 -5.38 4.38 -5.75 4.38 c -0.33 0 -2.79 -1.29 -5.42 -2.96 c -7.79 -4.79 -11 -5.63 -21.42 -5.58 c -10.33 0.08 -14.88 1.33 -21.75 5.96 c -2.08 1.42 -4.17 2.58 -4.58 2.58 c -0.42 0 -2.13 -1.29 -3.83 -2.88 c -4.5 -4.17 -9.33 -7.58 -10.79 -7.58 c -1.96 0 -2.42 6.38 -1.83 25.67 c 0.58 19.87 1.08 23.2 4.38 30.1 c 9.17 18.92 28.88 28.67 48.5 23.92 m -28 -93.1 c 13.33 -4.63 23.3 -4.63 36.4 0 l 6.5 2.29 l 2.54 -1.58 c 1.42 -0.92 2.54 -2.08 2.54 -2.63 c 0 -1.33 -4.71 -5 -9.75 -7.79 c -14.58 -7.83 -37 -5.08 -48.67 6 l -1.75 1.67 l 2.46 2.08 c 1.38 1.17 2.67 2.13 2.92 2.13 c 0.25 0 3.29 -1 6.83 -2.21" transform="scale(0.094)" style="fill:#fff;stroke:#2159ff;stroke-linecap:round;stroke-width:2"/></svg>