<svg xmlns="http://www.w3.org/2000/svg" viewBox="0 0 24 24"><path d="m 21.27 4.21 c 5.87 9 1.13 17.25 -5.51 19.2 c -8.95 2.62 -21.1 -4.27 -13.1 -18.48 c 3.18 -5.65 14.41 -7.14 18.59 -0.71" style="fill:#4069e0"/><g style="fill:#554570"><path d="m 6.94 16.72 c -0.04 -0.03 -0.11 -0.14 -0.14 -0.23 c -0.05 -0.16 -0.06 -0.34 -0.06 -1.64 c 0 -1.44 0 -1.46 -0.08 -1.7 c -0.11 -0.3 -0.14 -0.86 -0.08 -1.17 c 0.06 -0.29 0.21 -0.62 0.38 -0.82 c 0.07 -0.09 0.19 -0.03 0.2 -0.06 c 0.25 0.39 0.5 0.82 0.65 1.27 c 0 0.13 -0.07 0.26 -0.09 0.38 c -0.04 0.29 -0.18 0.54 -0.46 0.84 l -0.26 0.27 c 0.07 0.4 0.09 1.2 0.14 1.66 c 0.26 0.03 0.28 0.01 0.51 0.17 c 0.13 0.04 -0.3 0.77 -0.39 1.02 c -0.06 0.09 -0.21 0.1 -0.32 0.02"/><path d="m 17.33 16.67 c 0.04 -0.03 0.11 -0.13 0.14 -0.23 c 0.06 -0.16 0.06 -0.33 0.07 -1.64 c 0 -1.44 0 -1.46 0.08 -1.7 c 0.11 -0.31 0.14 -0.86 0.07 -1.17 c -0.06 -0.29 -0.23 -0.61 -0.38 -0.82 c -0.19 -0.27 -0.5 -0.07 -0.51 -0.11 c -0.25 0.39 -0.21 0.64 -0.37 1.09 c 0 0.13 0.09 0.48 0.11 0.6 c 0.04 0.29 0.18 0.54 0.47 0.84 l 0.26 0.27 c -0.07 0.4 -0.09 1.21 -0.14 1.66 c -0.34 -0.02 -0.12 -0.09 -0.51 0.17 c -0.13 0.04 0.3 0.77 0.39 1.02 c 0.06 0.09 0.21 0.11 0.32 0.02"/></g><path d="m 11.3 19.49 c -1.3 -0.5 -2.25 -2.18 -2.68 -4.86 c -0.15 -0.92 -0.18 -3.09 -0.06 -4.06 c 0.25 -2 0.82 -3.63 1.64 -4.66 c 1.5 -1.89 3.38 -1.29 4.55 1.46 c 0.48 1.11 0.79 2.57 0.87 4.1 c 0.21 3.72 -0.9 7 -2.62 8 c -0.61 0.2 -1.23 0.2 -1.71 0.03" style="fill:#fff"/><path d="m 11 8.57 c -0.1 -0.43 0.34 -0.55 0.57 -0.93 c 0 -0.05 0.13 -0.19 0.46 -0.19 c 0.36 0 0.45 0.13 0.49 0.24 c 0.11 0.11 0.89 0.82 0.59 0.86 c -0.14 0.07 -0.2 0.3 -0.31 0.41 c -0.24 -0.15 -0.5 -0.3 -0.73 -0.45 c -0.21 0.13 -0.36 0.23 -0.57 0.36 c -0.2 0.06 -0.33 -0.2 -0.49 -0.29" style="fill:#ff8c00"/><g style="fill:#00ba00"><path d="m 9.76 16.1 c -0.1 -0.16 -0.17 -0.37 -0.34 -0.45 c -0.45 0.01 -0.61 0.21 -0.92 0.49 c -0.46 -0.27 -0.85 -0.42 -1.23 -0.71 l 0.15 -0.66 c 0.22 -1 0.38 -1.55 0.44 -1.55 c 0.03 0 0.31 0.13 0.62 0.3 c 0.66 0.35 0.7 0.34 1.32 -0.03 l 0.44 -0.26 l 0.11 0.16 c 0.27 0.4 1.04 1.86 1.04 1.98 c -0.51 0.44 -0.91 0.66 -1.48 0.97 c -0.05 -0.08 -0.1 -0.16 -0.15 -0.24"/><path d="m 12.23 15.1 c -0.59 -0.61 -0.92 -1.5 -1.32 -2.26 l 0.2 -0.18 c 0.28 -0.24 0.91 -0.61 0.96 -0.56 c 0.06 0.07 0.45 2.64 0.45 2.98 c 0 0.17 -0.03 0.17 -0.29 0.02"/><path d="m 13.43 12 c -0.61 -0.37 -1.15 -0.69 -1.2 -0.72 c -0.07 -0.04 -0.31 0.07 -0.88 0.38 c -0.43 0.24 -0.82 0.42 -0.86 0.41 c -0.04 -0.02 -0.1 -0.13 -0.13 -0.25 c -0.09 -0.28 -0.09 -0.27 0.64 -0.79 c 0.31 -0.23 0.63 -0.46 0.7 -0.52 c 0.15 -0.14 0.18 -0.45 0.04 -0.58 c -0.08 -0.09 -0.12 -0.08 -0.39 0.07 c -0.16 0.09 -0.49 0.29 -0.74 0.44 c -0.49 0.31 -0.57 0.3 -0.54 -0.06 c 0.02 -0.21 0.05 -0.24 0.67 -0.68 c 0.54 -0.38 0.66 -0.5 0.7 -0.65 c 0.13 -0.29 0.32 -0.36 0.57 -0.52 l 0.38 0.2 c 0.21 0.11 0.79 0.46 1.29 0.77 l 0.91 0.57 l 0.01 1.22 c 0.01 0.67 0 1.26 -0.03 1.3 c -0.04 0.07 -0.26 -0.05 -1.16 -0.59"/><path d="m 15.19 12.41 c -0.02 -0.04 0 -0.53 0.03 -1.08 c 0.06 -1 0.06 -1 0.23 -1.14 c 0.26 -0.21 1.18 -0.66 1.23 -0.61 c 0.09 0.08 0.05 1.76 -0.04 1.98 c -0.43 0.46 -0.78 0.64 -1.39 0.94 c -0.02 0 -0.05 -0.04 -0.07 -0.09"/><path d="m 13.91 16.1 c -0.63 -0.35 -0.62 -0.34 -0.69 -0.97 c -0.1 -0.79 -0.09 -1.04 0.03 -1.1 c 0.05 -0.03 0.34 -0.11 0.64 -0.18 c 0.66 -0.16 1.07 -0.35 1.8 -0.83 c 0.31 -0.21 0.61 -0.38 0.65 -0.38 c 0.06 0 0.12 0.08 0.16 0.22 c 0.15 0.37 0.47 0.65 0.7 0.97 c -0.1 0.36 0.03 1.34 -0.27 1.54 c -0.46 0.26 -0.81 0.46 -1.29 0.72 l -0.29 -0.25 c -0.75 -0.48 -0.76 -0.07 -1.13 0.43 c -0.12 -0.06 -0.21 -0.11 -0.31 -0.16"/><path d="m 13 13.38 c -0.02 -0.05 -0.05 -0.26 -0.07 -0.45 c -0.03 -0.32 -0.03 -0.34 0.07 -0.3 c 0.13 0.05 0.63 0.35 0.82 0.5 l 0.14 0.11 l -0.2 0.09 c -0.11 0.05 -0.32 0.1 -0.46 0.13 c -0.22 0.03 -0.27 0.02 -0.3 -0.06"/><path d="m 8.45 12.64 l -0.68 -0.36 l -0.15 -0.48 c -0.11 -0.35 -0.2 -0.53 -0.36 -0.69 c -0.28 -0.21 -0.21 -0.44 -0.21 -0.76 c 0 -0.83 0.06 -1.32 0.16 -1.32 c 0.05 0 1.93 0.93 1.99 1 c 0 0.01 0.14 0.57 0.3 1.25 c 0.29 1.23 0.29 1.24 0.18 1.36 c -0.16 0.16 -0.34 0.25 -0.54 0.36 c -0.23 -0.12 -0.45 -0.24 -0.68 -0.36"/></g><path d="m 12.88 15.42 c -0.13 -0.09 -0.25 -0.23 -0.27 -0.3 c -0.01 -0.07 -0.11 -0.79 -0.22 -1.59 c -0.19 -1.37 -0.23 -1.55 -0.39 -1.56 c -0.08 0 -1.08 0.7 -1.11 0.77 c -0.02 0.05 0.22 0.57 0.52 1.15 l 0.55 1.07 c -0.14 0.09 -0.29 0.18 -0.44 0.23 c -0.04 0 -0.29 -0.41 -0.57 -0.92 c -0.28 -0.5 -0.55 -0.98 -0.61 -1.05 l -0.09 -0.13 c -0.37 0.17 -0.71 0.5 -1.12 0.6 c -0.48 -0.13 -0.81 -0.45 -1.31 -0.57 c -0.07 0 -0.26 0.62 -0.47 1.58 c -0.18 0.81 -0.24 0.79 -0.29 -0.13 l -0.04 -0.64 l 0.25 -0.46 c 0.18 -0.34 0.51 -0.63 0.51 -0.86 c 0 -0.06 0.02 -0.12 0.04 -0.14 c 0.02 -0.02 0.32 0.11 0.66 0.28 c 0.6 0.3 0.63 0.31 0.81 0.23 c 0.22 -0.11 0.38 -0.25 0.57 -0.41 l -0.26 -1.14 c -0.14 -0.62 -0.26 -1.18 -0.26 -1.24 c 0 -0.06 0.09 -0.15 0.24 -0.22 c 0.13 -0.07 0.64 -0.26 1.01 -0.59 c 0.63 -0.55 0.73 -0.64 0.75 -0.58 c 0.03 0.14 -0.02 0.42 -0.7 0.89 l -0.62 0.43 c 0 0.19 -0.02 0.41 0.08 0.57 c 0.1 0.08 0.12 0.07 0.89 -0.41 c 0.3 -0.19 0.59 -0.34 0.64 -0.34 c 0.11 0 0.19 0.27 0.11 0.4 c -0.05 0.09 -0.37 0.34 -1.13 0.89 c -0.34 0.25 -0.38 0.29 -0.34 0.43 c 0.07 0.3 0.16 0.47 0.25 0.47 c 0.05 0 0.42 -0.18 0.82 -0.4 c 0.41 -0.22 0.77 -0.4 0.81 -0.4 c 0.04 0 0.53 0.28 1.09 0.62 c 1.08 0.66 1.33 0.79 1.38 0.73 c 0.02 -0.02 0.05 -0.57 0.07 -1.22 c 0.02 -0.66 0.04 -1.23 0.04 -1.29 c 0.01 -0.14 2.23 -1.23 2.3 -1.13 c 0.02 0.04 0.05 0.48 0.05 0.97 v 0.9 c -0.11 0.05 -0.21 0.1 -0.32 0.13 c -0.02 0 -0.03 -0.2 -0.03 -0.45 c 0 -0.64 -0.05 -0.98 -0.16 -0.98 c -0.1 0 -1.01 0.47 -1.21 0.63 c -0.13 0.11 -0.14 0.15 -0.18 1.02 c -0.04 0.95 -0.03 1.23 0.08 1.23 c 0.04 0 0.28 -0.13 0.55 -0.29 c 0.27 -0.16 0.5 -0.29 0.53 -0.29 c 0.05 0 0.14 0.45 0.07 0.59 c -0.06 0.12 -1.14 0.74 -1.61 0.98 c -0.17 0.09 -0.6 0.23 -0.97 0.32 c -0.36 0.09 -0.69 0.2 -0.71 0.23 c -0.07 0.06 -0.06 0.43 0.02 0.97 c 0 0.59 0.1 0.68 -0.27 0.41 m 0.7 -1.98 c 0.46 -0.12 0.5 -0.17 0.25 -0.38 c -0.3 -0.26 -0.79 -0.53 -0.89 -0.48 c -0.07 0.03 -0.08 0.09 -0.05 0.38 c 0.04 0.41 0.12 0.57 0.26 0.57 c 0.16 -0.02 0.3 -0.05 0.44 -0.09" style="fill:#ff0"/><g style="fill:#ff8c00"><path d="m 15.26 19.47 c -0.18 -0.03 -0.45 -0.3 -0.66 -0.68 c -0.24 -0.41 -0.3 -0.73 -0.3 -1.63 c -0.05 -0.48 -0.11 -0.93 0.12 -1.33 c 0.27 -0.5 0.5 -0.39 1.05 0.13 c 0.23 0.28 0.32 0.02 0.61 -0.14 c 0.44 -0.25 0.57 -0.13 0.69 0.06 c 0.07 0.11 0.2 0.67 0.2 0.88 c 0 0.02 0.18 0.04 0.4 0.03 c 0.33 -0.01 0.42 0.01 0.53 0.11 c 0.29 0.27 -0.05 1 -0.86 1.84 c -0.56 0.58 -1.18 0.84 -1.77 0.73"/><path d="m 8.3 19.46 c -0.57 -0.15 -1.23 -0.72 -1.76 -1.51 c -0.32 -0.5 -0.4 -0.77 -0.27 -0.98 c 0.09 -0.14 0.48 -0.3 0.54 -0.21 c 0.04 0.07 0.36 0.07 0.4 0 c 0.02 -0.03 0.06 -0.21 0.09 -0.39 c 0.09 -0.48 0.19 -0.62 0.43 -0.59 c 0.1 0.02 0.32 0.12 0.48 0.22 c 0.3 0.23 0.38 0.02 0.64 -0.22 c 0.31 -0.27 0.45 -0.23 0.61 -0.17 c 0.05 0.02 0.16 0.19 0.26 0.38 c 0.17 0.34 0.18 0.39 0.19 1.23 c 0.01 0.48 0 0.88 -0.03 0.88 c -0.02 0 -0.05 0.05 -0.05 0.1 c 0 0.18 -0.33 0.8 -0.54 1.03 c -0.29 0.26 -0.6 0.32 -0.99 0.23"/></g><g style="fill:#554570"><path d="m 10.63 19.76 c -0.34 -0.04 -1.32 -0.3 -1.45 -0.38 c -0.02 -0.01 0.06 -0.11 0.16 -0.23 c 0.2 -0.22 0.42 -0.63 0.46 -0.85 c 0.04 -0.23 0.06 -0.24 0.29 -0.11 c 0.36 0.2 0.62 0.32 0.85 0.38 c 0.48 0.12 1.79 0.12 2.26 0 c 0.46 -0.11 0.68 -0.37 1.07 -0.48 c 0.01 0.01 0.05 0.12 0.08 0.23 c 0.07 0.28 0.25 0.61 0.47 0.85 c 0.1 0.11 0.16 0.2 0.15 0.21 c -1.29 0.44 -3.14 0.49 -4.34 0.38"/><path d="m 12.82 8.88 c 0.16 -0.14 0.48 -0.39 0.55 -0.39 c 0.16 0 0.44 -0.16 0.61 -0.34 c 0.24 -0.28 0.35 -0.7 0.28 -1.13 c -0.13 -0.78 -0.68 -1.23 -1.19 -0.98 c -0.33 0.16 -0.52 0.53 -0.58 1.1 c -0.04 0.44 -0.05 0.45 -0.14 0.37 c -0.1 -0.09 -0.46 -0.09 -0.56 0 c -0.04 0.03 -0.08 0.05 -0.09 0.03 c -0.01 -0.02 -0.04 -0.19 -0.05 -0.38 c -0.05 -0.54 -0.2 -0.86 -0.5 -1.06 c -0.18 -0.13 -0.49 -0.16 -0.65 -0.08 c -0.54 0.28 -0.79 1.21 -0.51 1.86 c 0.16 0.35 0.35 0.52 0.71 0.6 c 0.12 0.03 0.23 0.06 0.24 0.07 c 0.11 0.09 0.22 0.15 0.32 0.25 c -0.61 0.36 -1.28 1.13 -1.98 1.32 c -0.11 0 -0.45 -0.22 -0.6 -0.34 c -0.18 -0.41 0.01 -1.13 0.06 -1.6 c 0.13 -1.22 0.23 -1.63 0.54 -2.24 c 0.34 -0.55 0.77 -1.02 1.28 -1.27 c 0.57 -0.28 1.27 -0.41 1.82 -0.35 c 0.88 0.11 1.46 0.39 2 0.97 c 0.43 0.46 0.7 1 0.86 1.73 c 0.18 0.77 0.11 1.48 0.32 2.26 c 0.09 0.31 0.09 0.31 -0.46 0.58 l -0.41 0.21 c -0.55 -0.48 -1.42 -0.78 -1.87 -1.2"/></g><g style="fill:#382951"><path d="m 12.82 7.3 c 0 -0.54 0.34 -0.93 0.66 -0.76 c 0.3 0.16 0.44 0.68 0.27 1.02 c -0.09 0.18 -0.35 0.36 -0.52 0.36 c -0.27 -0.09 -0.41 -0.41 -0.41 -0.61"/><path d="m 10.86 7.91 c -0.21 -0.07 -0.41 -0.24 -0.48 -0.41 c -0.2 -0.44 0.13 -1.07 0.49 -0.98 c 0.26 0.06 0.42 0.3 0.46 0.67 c 0.04 0.3 -0.17 0.82 -0.46 0.72"/></g></svg>