<svg xmlns="http://www.w3.org/2000/svg" viewBox="0 0 24 24"><path d="m 0.28 14.74 c 1.49 9.68 14.71 12.28 20.54 5.36 c 5.14 -5.14 3.86 -14.97 -2.45 -18.35 c -7.24 -4.51 -17.79 1.07 -18.36 10.1 c -0.06 0.98 0.02 1.98 0.26 2.93" style="fill:#fc561f"/><path d="m 7.32 6.31 h 9.73 c 0.62 0 1.12 0.52 1.12 1.15 v 9.5 c 0 0.64 -0.5 1.15 -1.12 1.15 h -9.73 c -0.62 0 -1.12 -0.52 -1.12 -1.15 v -9.5 c 0 -0.64 0.5 -1.15 1.12 -1.15" style="fill:#fff"/><path d="m 7.51 7.73 h 4.38 v 4.33 h -4.38" style="fill:#613582"/><path d="m 12.28 7.75 h 4.38 v 4.33 h -4.38" style="fill:#c061ca"/><g style="fill:#613582"><path d="m 12.27 12.5 h 4.38 v 4.33 h -4.38"/><path d="m 7.46 12.53 h 4.38 v 4.34 h -4.38"/></g></svg>