<svg xmlns="http://www.w3.org/2000/svg" viewBox="0 0 24 24"><path d="m 3.04 6.29 c -8.48 9.59 4.08 19.73 11.44 17.24 c 7.36 -2.5 12.31 -9.54 7.5 -15.71 c -4.81 -6.18 -9.53 -12.13 -18 -2.54" style="fill:#b0dfe5"/><path d="m 8.51 20.2 c -0.05 -0.13 -0.16 -0.57 -0.23 -0.99 c -0.33 -1.76 -0.75 -3.07 -1.63 -5.11 l -0.48 -1.11 l 0.36 -0.33 c 1.21 -1.12 2.37 -2.84 3.57 -5.33 c 0.52 -1.06 1.29 -2.93 1.43 -3.46 c 0.05 -0.17 0.36 -1.02 0.38 -1.02 c 0.02 0 0.03 0.86 0.14 1.42 c 0.24 1.09 0.09 1.58 -0.15 2.18 c -0.07 0.18 -0.24 0.49 -0.39 0.71 c -0.57 0.84 -0.58 1.15 -0.09 2.23 c 0.27 0.59 0.48 0.9 0.41 1.23 c -0.4 1.97 0.14 2.83 0.11 1.27 c -0.01 -0.32 0.25 -1.82 0.06 -2.3 c -0.33 -0.86 -0.44 -1.23 -0.39 -1.41 c 0.02 -0.1 0.2 -0.43 0.4 -0.72 c 0.46 -0.7 0.63 -1.17 0.63 -1.86 l -0.38 -2.77 l 1.04 3.38 c 0.91 2.97 2.5 5.11 3.75 6.27 c 0.28 0.26 0.51 0.51 0.51 0.54 c 0 0.04 -0.22 0.58 -0.49 1.2 c -0.84 1.94 -1.25 3.23 -1.59 4.99 c -0.08 0.42 -0.18 0.86 -0.23 0.99 l -0.09 0.23 h -6.56" style="fill:#4cabe5"/><path d="m 10.79 22.1 c -0.03 -0.1 -0.04 -1.77 -0.02 -3.72 l 0.02 -3.54 l 2.05 -0.05 v 7.5 h -1 c -0.97 0 -1 -0.01 -1.05 -0.18 m 0.04 -7.99 c 0 -0.13 0.97 -1.88 1.02 -1.84 c 0.07 0.04 0.99 1.75 0.99 1.84 c 0 0.02 -0.45 0.04 -1 0.04 c -0.55 0 -1 -0.02 -1 -0.04" style="fill:#303130"/></svg>