<svg xmlns="http://www.w3.org/2000/svg" viewBox="0 0 24 24"><path d="m 5.82 2 c -21.1 17.91 22.31 35.1 17.85 7.43 c -0.98 -6.08 -12.15 -12.26 -17.85 -7.43" style="fill:#b0dfe5"/><path d="m 11.95 20.64 c -1.91 -0.44 -4.39 -1.27 -5.79 -1.94 c -0.42 -0.2 -0.55 -0.31 -1.34 -1.18 c -0.48 -0.53 -0.89 -0.96 -0.92 -0.96 c -0.02 0 -0.04 -1.94 -0.04 -4.31 v -4.3 c 0.75 -0.67 1.51 -1.39 2.14 -2 l 1.16 -1.11 l 5.06 -2.41 l 5.31 1.59 c 0.91 1 1.83 1.73 2.84 2.59 l 1.54 6.24 l -1.64 6 c -2.95 1.79 -5.98 2.3 -8.32 1.79" style="fill:#9dd5d6"/><path d="m 11.32 17.88 c -0.55 -0.35 -1.18 -0.73 -1.39 -0.85 c -0.52 -0.29 -1.86 -1.16 -1.95 -1.27 c -0.07 -0.09 -1.18 -4.42 -1.18 -4.61 c 0 -0.15 2.18 -3.81 2.37 -3.98 c 0.07 -0.06 0.63 -0.26 1.25 -0.44 c 0.62 -0.18 1.61 -1.1 2 -1.42 c 0.13 -0.05 1.9 0.38 2.66 0.16 c 0.74 -0.21 1.39 -0.39 1.46 -0.39 c 0.16 0 2.04 1.92 2.7 2.77 c 0.85 1.08 0.86 1.11 0.9 2.18 c 0.05 1.48 -0.15 3.52 -0.41 4 c -0.27 0.54 -2.62 2.75 -3.39 3.19 c -0.16 0.09 -0.46 0.29 -0.67 0.44 c -0.21 0.15 -0.5 0.32 -0.64 0.37 c -0.19 0.07 -2.55 0.49 -2.7 0.48 c -0.01 0 -0.46 -0.29 -1.01 -0.64" style="fill:#b1f4a2"/><path d="m 10.48 16 c -0.13 -0.14 -1.28 -2.17 -1.44 -2.54 c -0.5 -0.78 -0.62 -1.38 -0.97 -1.79 c 0 -0.29 0.11 -0.48 0.83 -1.41 c 0.5 -0.64 1.39 -1.57 1.63 -1.7 c 0.42 -0.21 2.99 -0.59 3.54 -0.51 c 1.12 0.56 2.93 1.47 3.52 2.39 c 0.21 0.33 0.81 1.81 0.81 1.98 c -0.46 1.06 -0.89 2.3 -1.41 3.28 c -0.49 0.3 -1.02 0.5 -1.55 0.74 c -1.04 0.47 -1.51 0.66 -1.71 0.65 c -0.75 -0.25 -2.8 -0.88 -3.25 -1.11" style="fill:#c8f45b"/><path d="m 10.93 14.91 l -0.41 -0.7 c -0.78 -1.34 -1.05 -1.87 -1.05 -2.02 c 0 -0.09 0.07 -0.4 0.15 -0.7 c 0.27 -0.63 0.24 -1.37 0.59 -1.96 c 0.1 -0.16 2.29 -1.5 2.45 -1.5 c 0.5 -0.09 1.35 -0.96 1.77 -0.87 c 0.24 0.08 1.46 0.84 2.08 1.3 c 0.7 0.52 0.71 0.55 0.98 1.62 c 0.26 1.02 0.36 1.75 0.29 2 c -0.16 0.59 -1.05 1.95 -1.71 2.63 c -0.38 0.39 -0.52 0.48 -1.18 0.79 c -0.41 0.19 -0.79 0.34 -0.84 0.34 c -1.04 -0.29 -2.23 -0.63 -3.12 -0.93" style="fill:#d9d929"/><path d="m 11.34 13.96 c -0.11 -0.04 -0.41 -0.8 -0.68 -1.55 c -0.45 -1.24 -0.4 -0.6 0.16 -1.74 c 0.68 -1.4 0.28 -1.12 1.78 -1.71 c 0.83 -0.32 0.65 -0.46 2 -0.21 l 0.64 0.12 c 0.31 0.52 1.45 1.61 1.37 2 c -0.13 0.68 -0.09 1.26 -0.25 1.95 c -0.54 0.54 -1 0.9 -1.62 1.41 c -1.14 -0.11 -2.2 -0.15 -3.39 -0.28" style="fill:#f68e02"/><path d="m 14.3 22.1 c -1.96 -0.81 -3.24 -1.69 -5.23 -2.29 c -1.34 -0.41 -2.35 -0.78 -2.99 -1.1 c -0.32 -0.16 -0.51 -0.33 -1.31 -1.14 c -0.51 -0.52 -0.95 -1 -0.97 -1.06 c -0.03 -0.08 -1.63 -5.52 -1.44 -5.75 c 0.3 -0.36 1.41 -2.5 1.43 -2.58 c 0.02 -0.07 0.14 -0.24 0.28 -0.36 c 1 -0.97 2.06 -1.88 3 -2.88 c 0.71 -0.41 2.92 -1.54 3.41 -1.65 c -0.02 0.03 -1.31 2.28 -1.48 2.49 c -0.13 0.16 -3.31 1.96 -3.38 2.1 c -0.1 0.21 -0.41 1.31 -0.6 2.21 c -0.25 1.19 -0.66 1.99 -0.8 3.8 c 1 1.27 2.7 3.2 4.5 5.08 c 0.17 -0.02 0.77 0.07 1.47 -0.05 c 0.71 -0.11 3.54 0.92 3.96 0.82 c 0.19 -0.05 3.36 -1.8 3.56 -1.91 c 0.15 -0.08 0.54 -0.53 1.5 -1.73 l 0.89 -1.12 c 0.05 1.35 0.07 2.8 0.08 3.98 l -0.86 0.45 c -1.4 0.74 -3.16 1.61 -3.51 1.72 c -0.23 0.13 -1.26 0.89 -1.56 0.95" style="fill:#8dabf2"/></svg>