<svg xmlns="http://www.w3.org/2000/svg" viewBox="0 0 24 24"><path d="m 2.84 6.24 c -5.48 5.54 -1.47 10.66 2.89 14.86 c 3.55 3.42 6.84 3.58 10.33 1.31 c 9.11 -5.92 12.48 -13.61 -1.64 -21.67 c -4.66 -1.99 -9 2.2 -11.58 5.5" style="fill:#ef4f33"/><path d="m 11.51 5.16 c -0.26 0.19 -6.56 6.4 -6.82 6.71 c -0.16 0.19 -0.17 0.5 -0.03 0.68 c 0.05 0.07 1.13 1.14 2.38 2.38 l 2.27 2.25 c 0.52 -0.51 1.04 -1.02 1.56 -1.53 v -0.38 c -0.01 -0.45 0.09 -0.68 0.45 -1.01 l 0.26 -0.23 v -3.77 l -0.29 -0.27 c -1 -0.91 0.09 -2.47 1.22 -1.96 c 0.43 0.25 0.71 0.62 0.71 1.08 c 0 0.36 -0.1 0.57 -0.39 0.85 l -0.21 0.2 v 1.84 c 0 1.01 0.02 1.84 0.05 1.84 c 0.48 -0.41 0.82 -0.77 1.3 -1.24 c 0 -0.39 0.02 -0.85 0.19 -1.1 c 0.23 -0.31 0.6 -0.51 0.97 -0.51 c 0.38 0 0.61 0.11 0.87 0.39 c 0.39 0.43 0.43 0.98 0.1 1.43 c -0.23 0.32 -0.57 0.48 -1.03 0.48 h -0.37 c -0.5 0.49 -0.99 0.98 -1.49 1.48 v 0.35 c 0.01 0.43 -0.17 0.77 -0.52 1.01 c -0.2 0.14 -0.32 0.17 -0.69 0.2 l -0.44 0.04 c -0.5 0.51 -1 1.01 -1.51 1.52 c 0.56 0.49 1.04 1.07 1.63 1.54 c 0.18 0.14 0.49 0.13 0.69 -0.03 c 0.34 -0.27 6.7 -6.52 6.86 -6.74 c 0.2 -0.27 0.22 -0.59 0.07 -0.82 c -0.14 -0.2 -6.55 -6.52 -6.82 -6.72 c -0.32 -0.23 -0.62 -0.23 -0.96 0.03" style="fill:#fff"/></svg>