<svg xmlns="http://www.w3.org/2000/svg" viewBox="0 0 24 24"><path d="m 14.49 23.54 c 12.24 -1.84 12.6 -20.1 0.71 -22.91 c -9.63 -2.85 -17.5 7.46 -14.35 15.17 c 1.5 5.16 7.59 9.34 13.64 7.73" style="fill:#f8f8ff"/><path d="m 8.63 18.36 c -0.57 -0.06 -1.35 -0.18 -2.57 -0.41 c -0.73 -0.14 -1.43 -0.25 -1.54 -0.23 c -0.14 0.02 -0.22 -0.01 -0.28 -0.11 c -0.21 -0.32 -0.88 -1.47 -0.88 -1.5 c 0 -0.02 0.68 0.16 1.51 0.4 c 2.45 0.7 2.96 0.82 3.73 0.86 c 1.25 0.06 2.04 -0.2 2.68 -0.89 c 0.36 -0.39 1.02 -1.41 0.96 -1.48 c -0.02 -0.02 -0.3 0.19 -0.63 0.45 c -0.72 0.59 -1.28 0.91 -1.87 1.12 c -0.39 0.13 -0.56 0.15 -1.4 0.15 c -1.08 0 -1.36 -0.05 -3 -0.56 c -0.87 -0.26 -1.14 -0.32 -1.57 -0.32 h -0.52 l -0.13 -0.34 c -0.43 -1.14 -0.6 -2.25 -0.55 -3.57 c 0.04 -0.98 0.23 -2.16 0.44 -2.67 l 0.09 -0.22 c 0.26 0.37 0.68 0.68 0.86 1.1 c 0.2 0.65 0.17 1.34 0.48 1.96 c 0.21 0.43 0.83 1.06 1.31 1.35 c 1.31 0.79 3.27 0.75 4.2 -0.07 c 0.37 -0.24 0.29 -0.43 0.28 -0.84 c -0.03 -0.71 -0.16 -1.02 -0.8 -1.91 c -0.54 -0.74 -0.7 -1.07 -0.75 -1.48 c -0.09 -0.81 0.46 -1.57 1.43 -1.94 c 0.54 -0.2 1.59 -0.19 2.83 0.04 c 1.25 0.23 1.64 0.2 2.78 -0.18 c 1.1 -0.37 1.69 -0.48 2.96 -0.57 l 1.04 -0.07 l 0.25 0.31 c 0.49 0.62 1.27 2.13 1.42 2.74 l 0.05 0.19 l -0.3 -0.18 c -0.62 -0.36 -1.56 -0.8 -1.87 -0.88 c -0.24 -0.06 -0.45 -0.06 -0.84 0 c -1.09 0.16 -1.65 0.74 -1.65 1.69 c 0 0.46 0.08 0.71 0.3 0.94 c 0.18 0.2 0.47 0.27 1.38 0.37 c 0.95 0.11 1.3 0.17 2.4 0.43 l 1 0.24 v 0.19 c 0 0.18 -0.25 1.95 -0.27 1.98 c -0.01 0.01 -0.36 -0.2 -0.77 -0.46 c -0.9 -0.56 -1.13 -0.64 -2 -0.69 c -1.25 -0.07 -2.43 -0.35 -3.11 -0.75 c -0.19 -0.11 -0.61 -0.45 -0.92 -0.76 c -0.72 -0.7 -0.82 -0.75 -0.99 -0.57 c -0.17 0.17 -0.14 0.33 0.21 1.11 c 0.18 0.42 0.26 0.69 0.29 1 c 0.05 0.7 -0.12 1.02 -1.21 2.23 c -0.36 0.41 -0.81 0.98 -0.98 1.27 c -0.18 0.29 -0.45 0.66 -0.6 0.8 c -0.93 0.63 -1.98 0.82 -2.85 0.74" style="fill:#2679af"/><path d="m 10.7 22.24 c -0.42 -0.07 -1.55 -0.36 -2.06 -0.54 c -2.5 -0.89 -4.7 -2.84 -5.85 -5.21 c -0.68 -1.39 -0.96 -2.62 -0.96 -4.23 c 0 -1.69 0.3 -2.93 1.07 -4.43 c 0.8 -1.57 2.34 -3.19 3.92 -4.14 c 2.3 -1.38 5.07 -1.79 7.84 -1.16 c 2.79 0.64 5.51 2.81 6.86 5.48 c 0.64 1.26 0.96 2.7 0.96 4.25 c 0 1.62 -0.31 2.95 -0.99 4.31 c -0.53 1.06 -1.15 1.87 -2.17 2.86 c -1.41 1.36 -2.98 2.2 -5 2.67 c -1.43 0.1 -2.52 0.27 -3.59 0.14 m 2.29 -0.56 c 1.63 -0.11 3.34 -0.69 4.62 -1.58 c 1.71 -1.18 3.07 -2.84 3.7 -4.52 c 0.31 -0.83 0.61 -2.76 0.6 -3.86 c -0.01 -0.94 -0.46 -2.49 -1.09 -3.7 c -0.74 -1.43 -1.82 -2.64 -3.2 -3.57 c -1.02 -0.68 -1.91 -1.07 -3.31 -1.43 c -1.44 -0.21 -2.24 -0.34 -3.84 -0.1 c -1.2 0.2 -2.56 0.72 -3.59 1.37 c -1.52 0.97 -3.2 2.91 -3.7 4.23 c -0.51 1.38 -0.74 2.71 -0.69 4 c 0.07 1.77 0.55 3.31 1.49 4.72 c 0.84 1.34 2.1 2.53 3.44 3.28 c 1.38 0.75 3.34 1.26 4.57 1.19 c 0.34 -0.02 0.67 -0.04 0.98 -0.06" style="fill:#282526"/><g style="fill:#2f5269"><path d="m 11.78 13.77 c 0.29 -0.43 0.41 -0.74 0.41 -1.07 c 0 -0.64 -0.32 -1.22 -1.33 -2.38 c -0.32 -0.37 -0.62 -0.76 -0.68 -0.88 c -0.21 -0.44 0.05 -0.71 0.82 -0.84 c 0.59 -0.1 0.99 -0.04 1.7 0.24 c 0.5 0.2 0.69 0.23 1.24 0.26 c 0.84 0.04 1.01 -0.02 1.43 -0.5 c 0.34 -0.39 0.54 -0.47 0.69 -0.29 c 0.09 0.11 0.07 0.19 -0.22 0.93 c -0.28 0.54 -0.23 1.02 0.31 1.31 c 0.46 0.28 0.51 0.82 0.94 1.05 c 0.21 0.11 1.84 0.4 2.46 0.44 c 0.33 0.02 0.07 0.16 -0.72 0.2 c -1.1 0.05 -2.14 -0.06 -2.61 -0.31 c -0.17 -0.09 -0.68 -0.52 -1.13 -0.95 c -1.21 -1.15 -1.47 -1.29 -1.97 -1.08 c -0.58 0.25 -0.65 0.62 -0.37 1.84 c 0.23 0.99 0.25 1.44 0.09 1.59 c -0.13 0.12 -1 0.93 -1.08 0.93 c -0.03 0 -0.04 -0.39 0.02 -0.49"/><path d="m 6.95 16 c -0.68 -0.14 -1.25 -0.46 -2.06 -1.13 c -0.52 -0.5 -1.2 -0.81 -1.81 -1.13 c -0.4 -0.21 -0.45 -0.25 -0.5 -0.48 c -0.02 -1.24 -0.07 -2.55 0.33 -3.73 c 0.07 -0.08 0.5 0.32 0.64 0.61 c 0.3 0.7 0.26 1.43 0.59 2.13 c 0.21 0.44 1.07 1.27 1.61 1.55 c 1.17 0.61 2.09 0.69 3.37 0.28 c 0.27 -0.09 0.51 -0.15 0.52 -0.13 c -0.09 0.3 -0.48 0.52 -0.5 0.85 c 0 0.27 0.57 0.34 1.11 0.14 c 0.18 -0.07 0.73 -0.21 0.79 -0.24 c 0.3 -0.11 0.2 0.34 -1.47 1.02 c -0.73 0.3 -1.68 0.45 -2.62 0.25"/><path d="m 18.44 7.3 l -0.99 0.05 c 0.39 -0.43 1.6 -0.48 2.02 -0.41 c 0.45 0.07 0.55 0.07 0.58 0 c 0.29 0.16 0.52 0.64 0.64 0.98 c -1.16 -0.53 -1.21 -0.66 -2.25 -0.62"/></g></svg>