<svg xmlns="http://www.w3.org/2000/svg" viewBox="0 0 24 24"><path d="m 23.82 12.48 c -0.76 4 -3.77 7.86 -7.69 9.89 c -3.29 1.71 -6.5 1.97 -9.32 0.77 c -2.12 -0.9 -4.1 -2.95 -5.31 -5.49 c -1.29 -2.71 -1.59 -5.24 -0.92 -7.85 c 1.65 -6.44 10.27 -11.16 16.88 -9.23 c 3.23 0.94 5.42 3.42 6.23 7.08 c 0.13 1.59 0.41 3.27 0.13 4.84" style="fill:#c90a00"/><g style="fill:#033654"><path d="m 13.39 20.27 c -2.97 0.3 -5.7 -1.91 -6.1 -4.96 c -0.4 -3.05 1.68 -5.76 4.64 -6.07 c 2.97 -0.3 5.7 1.91 6.1 4.96 c 0.4 3.05 -1.68 5.76 -4.64 6.07"/><path d="m 15.45 8.73 l -0.91 1.18 c -0.19 0.25 0.1 0.82 0.64 1.26 c 0.55 0.45 1.15 0.6 1.34 0.35 l 0.91 -1.18"/><path d="m 17.43 10.34 c -0.2 0.25 -0.79 0.09 -1.34 -0.35 c -0.55 -0.45 -0.84 -1.01 -0.64 -1.26 c 0.19 -0.25 0.79 -0.09 1.34 0.35 c 0.55 0.45 0.84 1.01 0.65 1.26"/><path d="m 17.25 10.2 c -0.16 0.2 -0.65 0.07 -1.09 -0.29 c -0.45 -0.36 -0.68 -0.82 -0.53 -1.03 c 0.16 -0.2 0.65 -0.07 1.09 0.29 c 0.45 0.36 0.68 0.82 0.53 1.03"/><path d="m 15.9 11.37 l 0.54 0.14 l 0.69 -0.99 l -0.28 -0.04 l -0.25 -0.13"/><path d="m 17.57 7.32 c -0.05 0.11 -0.19 0.15 -0.3 0.09 c -0.21 -0.12 -0.39 -0.15 -0.47 -0.09 c -0.11 0.09 -0.13 0.36 -0.08 0.54 c 0.04 0.13 0.11 0.25 0.18 0.38 c 0.2 0.34 0.44 0.77 -0.24 1.29 c -0.1 0.08 -0.24 0.05 -0.32 -0.05 c -0.08 -0.1 -0.06 -0.25 0.04 -0.32 c 0.37 -0.28 0.32 -0.37 0.13 -0.69 c -0.07 -0.14 -0.16 -0.29 -0.22 -0.48 c -0.09 -0.34 -0.06 -0.8 0.23 -1.03 c 0.16 -0.13 0.46 -0.22 0.96 0.06 c 0.11 0.06 0.16 0.2 0.1 0.32" style="fill-rule:evenodd"/></g><path d="m 178.3 76.98 l -9.44 18.65 l -4.45 -16.82 l -21.81 -8.6 l 19.34 -3.47 l 9.42 -18.59 l 4.46 16.76 l 21.8 8.65" transform="matrix(-0.05 -0.08 -0.08 0.05 31.91 15.59)" style="fill:#ff7f4f;stroke:#ff7f4f;fill-rule:evenodd;stroke-width:0.4"/><path d="m 6.95 17.22 c 0.09 -0.52 0.32 -0.77 1.19 -1.29 c 1.2 -0.71 1.23 -0.75 1.23 -1.4 c 0 -0.99 -0.75 -4.86 -0.99 -5.16 c -1.71 -0.33 -4.87 1.35 -5.08 0.87 c -0.21 -0.27 -0.21 -0.68 0 -1.16 c 0.18 -0.43 0.56 -0.86 2.38 -1.52 c 1.49 -0.54 2.31 -0.8 4.26 -0.89 c 1.47 -0.12 3.75 0.15 3.49 1.95 c -0.61 4.21 -3.06 8.26 -5.59 9.26 c -0.48 0.25 -0.98 -0.08 -0.88 -0.66 m 4.38 -5.81 c 0.25 -0.73 0.5 -2.39 0.38 -2.56 c -0.07 -0.1 -1.81 -0.05 -1.88 0.05 c 0.65 1.08 0.55 2.62 0.84 3.77 c 0.09 0.2 0.41 -0.54 0.66 -1.26" style="fill:#ffd600"/><path d="m 11.55 19.48 c 0.05 -0.3 0.2 -1.29 0.32 -2.21 c 0.13 -0.92 0.3 -1.94 0.39 -2.27 c 0.33 -1.28 1.35 -1.98 3.13 -2.15 c 1.13 -0.11 1.59 0.18 1.73 1.1 c 0.14 0.91 -0.05 1.37 -0.97 2.38 l -0.86 0.93 l 0.56 0.68 c 1.12 1.36 1.35 1.63 -0.04 1.56 c -0.44 -0.02 -0.84 -0.4 -1.29 -0.71 c -0.72 -0.5 -0.89 -1.46 -1.29 0.23 c -0.14 0.6 -0.39 0.81 -1.16 0.92 c -0.71 0.1 -0.66 0.25 -0.54 -0.45 m 3.46 -3.91 c 0.36 -0.47 0.43 -1.02 0.13 -1.06 c -1.18 -0.14 -1.27 0.67 -1.05 1.27 c 0.13 0.36 0.55 0.27 0.92 -0.21" style="fill:#269ec1"/></svg>