<svg xmlns="http://www.w3.org/2000/svg" viewBox="0 0 24 24"><defs><radialGradient id="0" gradientUnits="userSpaceOnUse" cx="32" cy="32" r="18.1" gradientTransform="matrix(0.229 0 0 0.227 4.7 5)"><stop style="stop-color:#3d7e95"/><stop offset="1" style="stop-color:#2a5977"/></radialGradient></defs><path d="m 12.7 23.83 c -14.29 1.36 -17.53 -21.63 -2.85 -23.41 c 13.52 -2.21 19.91 18.63 6.43 22.79 c -1.15 0.46 -2.39 0.45 -3.58 0.62" style="fill:#2f627e"/><path d="m 7.16 6 h 9.8 c 0.78 0 1.41 0.63 1.41 1.41 v 9.7 c 0 0.78 -0.63 1.41 -1.41 1.41 h -9.8 c -0.78 0 -1.41 -0.63 -1.41 -1.41 v -9.7 c 0 -0.78 0.63 -1.41 1.41 -1.41" style="fill:#e2e5e6"/><path d="m 7.41 6.39 h 9.27 c 0.73 0 1.33 0.59 1.33 1.33 v 9.17 c 0 0.73 -0.59 1.33 -1.33 1.33 h -9.27 c -0.73 0 -1.33 -0.59 -1.33 -1.33 v -9.17 c 0 -0.73 0.6 -1.33 1.33 -1.33" style="fill:#444e60"/><path d="m 8.65 7.98 h 6.77 c 0.54 0 0.97 0.43 0.97 0.97 v 6.7 c 0 0.54 -0.43 0.97 -0.97 0.97 h -6.77 c -0.54 0 -0.97 -0.43 -0.97 -0.97 v -6.7 c 0 -0.54 0.44 -0.97 0.97 -0.97" style="fill:#f2f4fa"/><path d="m 8.81 8.18 h 6.45 c 0.51 0 0.93 0.41 0.93 0.93 v 6.38 c 0 0.51 -0.41 0.93 -0.93 0.93 h -6.45 c -0.51 0 -0.93 -0.41 -0.93 -0.93 v -6.38 c 0 -0.51 0.41 -0.93 0.93 -0.93" style="fill:url(#0)"/><path d="m 14.3 10.38 c -0.13 -0.03 -0.27 0.02 -0.36 0.12 l -2.54 2.86 l -1.23 -1.18 c -0.07 -0.07 -0.17 -0.11 -0.27 -0.11 c -0.1 0 -0.2 0.04 -0.27 0.11 c -0.07 0.07 -0.11 0.16 -0.11 0.26 c 0 0.1 0.04 0.2 0.11 0.26 l 1.52 1.46 c 0.07 0.07 0.17 0.11 0.27 0.1 c 0.11 0 0.2 -0.05 0.27 -0.13 l 2.8 -3.15 c 0.07 -0.07 0.1 -0.17 0.09 -0.27 c -0.01 -0.1 -0.05 -0.19 -0.13 -0.26 c -0.05 -0.04 -0.11 -0.07 -0.17 -0.09" style="fill:#f2f4fa"/></svg>