<svg xmlns="http://www.w3.org/2000/svg" viewBox="0 0 24 24"><path d="m 4.82 20.8 c 18 13.86 29.2 -23.2 5.83 -20.55 c -9.64 1.15 -15.49 14 -5.83 20.55" style="fill:#f4f4f4"/><g style="fill:#093579"><path d="m 11.64 11.93 c 0.14 -0.45 0.52 -0.62 0.76 -1.03 l -0.22 -0.73 c -0.18 -0.58 -0.22 -0.83 -0.18 -1.25 c 0.09 -1.14 0.81 -2.13 1.77 -2.43 c 0.49 -0.15 1.32 -0.15 1.37 0 c -0.35 0.76 -0.91 1.27 -1.33 2.06 c -0.15 0.29 -0.15 0.32 -0.02 0.65 c 0.26 0.65 0.94 0.99 1.45 0.73 c 0.14 -0.07 0.55 -0.5 0.93 -0.96 c 0.38 -0.46 0.73 -0.85 0.8 -0.88 c 0.2 -0.08 0.29 0.23 0.29 1.05 c 0 0.68 -0.03 0.84 -0.22 1.22 c -0.31 0.61 -0.96 1.21 -1.58 1.44 c -0.42 0.16 -0.6 0.18 -1.11 0.14 l -0.61 -0.05 c -0.27 0.25 -0.58 0.98 -0.96 1 c -0.3 -0.15 -1.11 -0.58 -1.14 -0.96"/><path d="m 14.41 18.23 c 0 -0.13 0.72 -1.14 0.91 -1.29 c 0.07 -0.05 0.39 -0.24 0.71 -0.42 c 0.8 -0.45 1.92 -1.63 2.33 -2.46 c 0.73 -1.5 0.83 -3.11 0.28 -4.74 c -0.45 -1.33 -1.57 -2.61 -2.81 -3.2 c -1.31 -0.62 -2.36 -0.75 -3.49 -0.44 c -1.86 0.52 -2.97 1.44 -3.83 3.16 c -0.14 0.29 -0.32 0.52 -0.38 0.52 c -0.16 0 -0.65 -0.38 -0.77 -0.59 c -0.07 -0.14 -0.02 -0.31 0.31 -0.94 c 0.69 -1.32 2.09 -2.59 3.46 -3.13 c 1.88 -0.74 3.82 -0.57 5.68 0.48 c 2.59 1.47 3.93 4.83 3.16 7.9 c -0.6 2.4 -2.25 4.23 -4.52 5 c -0.7 0.24 -1.05 0.28 -1.05 0.11"/></g><g style="fill:#62ab1e"><path d="m 11.21 20.53 c -0.39 -0.25 -7.32 -5.44 -7.93 -5.94 c -0.47 -0.39 -0.56 -0.66 -0.36 -1.11 c 0.17 -0.38 1.27 -2.03 1.46 -2.18 c 0.16 -0.14 0.29 -0.05 3.7 2.52 c 5.09 3.83 5.65 4.27 5.65 4.42 c 0 0.18 -1.05 1.77 -1.45 2.21 c -0.35 0.38 -0.56 0.39 -1.07 0.07"/><path d="m 14.21 16.66 c -0.56 -0.36 -8 -5.98 -8.5 -6.4 l -0.38 -0.35 l 0.14 -0.27 c 0.17 -0.33 0.61 -0.62 0.84 -0.55 c 0.24 0.07 0.27 0.09 4.54 3.31 c 2.12 1.59 3.95 3 4.09 3.18 c 0.19 0.22 0.23 0.34 0.19 0.56 c -0.05 0.27 -0.35 0.78 -0.46 0.78 c -0.03 0 -0.24 -0.12 -0.46 -0.25"/></g></svg>