<svg xmlns="http://www.w3.org/2000/svg" viewBox="0 0 24 24"><path d="m 3.13 3.68 c -13.59 20.82 23.53 28.87 20.57 7.45 c -1.2 -8.73 -15.37 -15.42 -20.57 -7.45" style="fill:#103997"/><g style="fill:#fff"><path d="m 9 17.94 c -1.64 -0.32 -3.21 -1.57 -4 -3.2 c -0.58 -1.15 -0.75 -3.12 -0.39 -4.48 c 0.36 -1.38 1.45 -2.84 2.66 -3.57 c 0.28 -0.17 0.79 -0.4 1.12 -0.52 c 1.35 -0.36 2.84 -0.34 4.1 0.23 c 0.48 0.22 1.26 0.82 1.26 0.97 c -0.33 0.4 -0.67 0.65 -1.08 0.93 l -0.43 -0.28 c -0.7 -0.46 -1.58 -0.67 -2.5 -0.59 c -1 0.09 -1.57 0.38 -2.39 1.2 c -0.6 0.61 -0.91 1.13 -1.16 1.91 c -0.2 1.02 -0.25 2.09 0.05 2.96 c 0.45 1.32 1.39 2.35 2.53 2.78 c 0.73 0.26 1.46 0.22 2.16 0.07 l 0.45 -0.11 c 0.21 0.34 0.73 0.89 0.67 1.28 c -0.91 0.46 -1.99 0.6 -3 0.42"/><path d="m 15.41 17.1 c -0.28 -0.25 -0.43 -0.47 -0.66 -0.92 c -0.36 -0.73 -0.52 -1.37 -0.64 -2.5 c -0.12 -1.07 -0.14 -1.21 -0.25 -1.25 c -0.47 -0.07 -0.83 -0.09 -1.33 -0.13 c 0 -0.52 0.04 -0.95 0.08 -1.45 c 0.38 -0.03 0.77 -0.06 1.15 -0.09 v -0.22 c 0 -0.25 -0.21 -0.84 -0.52 -1.44 c -0.11 -0.23 -0.18 -0.43 -0.15 -0.46 c 0.16 -0.16 1.02 -0.77 1.09 -0.77 c 0.24 0 0.81 1.03 1.09 1.97 c 0.29 0.99 0.28 0.98 1.21 0.99 h 0.57 c 0 0.49 0 0.98 0 1.47 c -0.39 0.1 -1 -0.08 -1.34 0.16 c -0.19 0.16 -0.03 1.65 0.28 2.63 c 0.17 0.55 0.52 0.98 0.96 1.21 c 0.62 0.22 1.11 0.35 1.8 0.18 c 0.19 -0.05 0.25 -0.04 0.33 0.04 c 0.16 0.18 0.63 1 0.63 1.11 c 0 0.23 -0.76 0.38 -1.81 0.38 c -0.93 0 -1.83 -0.32 -2.48 -0.91"/></g></svg>