<svg xmlns="http://www.w3.org/2000/svg" viewBox="0 0 24 24"><path d="m 3.04 6.29 c -8.48 9.59 4.08 19.73 11.44 17.24 c 7.36 -2.5 12.31 -9.54 7.5 -15.71 c -4.81 -6.18 -9.53 -12.13 -18 -2.54" style="fill:#b0dfe5"/><path d="m 7.69 18.76 c -0.94 -0.27 -2.71 -0.99 -2.82 -1.14 c 2.4 -5.18 4.71 -9.1 7.29 -14.55 c 0.18 -0.35 0.96 1.52 1.54 2.7 c 2.08 4.73 3.41 7.1 5.76 11.7 c 0.04 0.16 -1.55 0.87 -2.8 1.25 c -3.05 1.05 -6.61 0.71 -8.97 0.04" style="fill:#284993"/><path d="m 9 18.99 c -0.09 -0.08 3.14 -6.27 3.27 -6.27 c 1.07 2.28 1.91 3.62 2.97 6.26 c -1.27 0.26 -5.18 0.7 -6.24 0.01" style="fill:#212327"/><path d="m 5 17.54 c 2.5 -5.13 4.7 -9.39 7.27 -14.48 c -0.03 3.18 -0.06 6.36 -0.09 9.55 c -1.09 2.27 -1.86 3.58 -3.34 6.41 c -1.3 -0.43 -3.43 -1.09 -3.83 -1.48" style="fill:#3f78fa"/></svg>