<svg xmlns="http://www.w3.org/2000/svg" viewBox="0 0 24 24"><path d="m 0.28 14.74 c 1.49 9.68 14.71 12.28 20.54 5.36 c 5.14 -5.14 3.86 -14.97 -2.45 -18.35 c -7.24 -4.51 -17.79 1.07 -18.36 10.1 c -0.06 0.98 0.02 1.98 0.26 2.93" style="fill:#393939"/><path d="m 7.15 5.35 l 3.07 4.34 l -2.45 -4.34 m 2.45 0 l 1.23 3.71 l -0.62 -3.71 m 2.46 0 l -0.61 3.71 l 1.23 -3.71 m 2.46 0 l -2.46 4.34 l 3.07 -4.34 m -12.28 2.48 v 0.62 l 4.3 2.48 m 10.44 -3.1 l -4.3 3.1 l 4.3 -2.48 m -8.6 1.86 c -1.23 0 -1.23 1.24 -1.23 1.86 v 1.24 h 1.23 c 0 -1.24 0.62 -1.55 0.62 -2.17 c 0 -0.31 0 -0.93 -0.62 -0.93 m 2.46 0 c -0.61 0 -0.61 0.62 -0.61 0.93 c 0 0.62 0.61 0.93 0.61 2.17 h 1.23 v -1.24 c 0 -0.62 0 -1.86 -1.23 -1.86 m -8.59 0.62 v 0.62 l 3.68 0.62 m 11.1 -1.24 l -3.68 1.24 l 3.68 -0.62 m -11.1 1.86 l -3.68 0.62 v 0.62 m 11.1 -1.24 l 3.68 1.24 v -0.62 m -9.82 0 v 0.62 c 0 0.34 0.27 0.62 0.61 0.62 c 0.34 0 0.61 -0.28 0.61 -0.62 v -0.62 m 2.46 0 v 0.62 c 0 0.34 0.27 0.62 0.61 0.62 c 0.34 0 0.61 -0.28 0.61 -0.62 v -0.62 m -5.52 0.62 l -4.3 2.48 v 0.62 m 10.43 -3.1 l 4.3 3.1 v -0.62 m -9.21 -1.24 l -3.07 4.34 h 0.62 m 6.14 -4.34 l 2.46 4.34 h 0.61 m -5.52 -3.71 l -1.23 3.71 h 0.61 m 1.84 -3.71 l 0.61 3.71 h 0.61" style="fill-opacity:0.1"/><path d="m 7.15 4.73 l 3.07 4.34 l -2.45 -4.34 m 2.45 0 l 1.23 3.72 l -0.62 -3.72 m 2.46 0 l -0.61 3.72 l 1.23 -3.72 m 2.46 0 l -2.46 4.34 l 3.07 -4.34 m -12.28 2.48 v 0.62 l 4.3 2.48 m 10.44 -3.1 l -4.3 3.1 l 4.3 -2.48 m -8.6 1.86 c -1.23 0 -1.23 1.24 -1.23 1.86 v 1.24 h 1.23 c 0 -1.24 0.62 -1.55 0.62 -2.17 c 0 -0.31 0 -0.93 -0.62 -0.93 m 2.46 0 c -0.61 0 -0.61 0.62 -0.61 0.93 c 0 0.62 0.61 0.93 0.61 2.17 h 1.23 v -1.24 c 0 -0.62 0 -1.86 -1.23 -1.86 m -8.59 0.62 v 0.62 l 3.68 0.62 m 11.1 -1.24 l -3.68 1.24 l 3.68 -0.62 m -11.1 1.86 l -3.68 0.62 v 0.62 m 11.1 -1.24 l 3.68 1.24 v -0.62 m -9.82 0 v 0.62 c 0 0.34 0.27 0.62 0.61 0.62 c 0.34 0 0.61 -0.28 0.61 -0.62 v -0.62 m 2.46 0 v 0.62 c 0 0.34 0.27 0.62 0.61 0.62 c 0.34 0 0.61 -0.28 0.61 -0.62 v -0.62 m -5.52 0.62 l -4.3 2.48 v 0.62 m 10.43 -3.1 l 4.3 3.1 v -0.62 m -9.21 -1.24 l -3.07 4.34 h 0.62 m 6.14 -4.34 l 2.46 4.34 h 0.61 m -5.52 -3.72 l -1.23 3.72 h 0.61 m 1.84 -3.72 l 0.61 3.72 h 0.61" style="fill:#ededed"/></svg>