<svg xmlns="http://www.w3.org/2000/svg" viewBox="0 0 24 24"><path d="m 12.1 0.25 c 15.84 -1.8 15.61 23.99 -0.28 23.69 c -14.79 0.86 -16.1 -25.1 0.28 -23.69" style="fill:#4581b3"/><path d="m 11.22 19.61 c -1.25 -1.62 -2 -2.69 -1.92 -2.75 c 0.03 -0.02 0.45 -0.05 0.93 -0.07 l 0.88 -0.04 v -2.83 c 0 -3.4 -0.05 -4.58 0.07 -4.66 c 0.12 -0.08 0.76 -0.07 0.84 0.02 c -0.01 0.3 0.06 0.68 0.04 0.94 c 0.28 0.07 0.5 0.04 0.8 0.07 l 0.02 3.18 c 0.01 2 0.04 3.2 0.07 3.24 c 0.03 0.03 0.43 0.08 0.89 0.1 c 0.48 0.03 0.84 0.07 0.84 0.11 c 0 0.2 -2.55 3.61 -2.69 3.61 c -0.04 0 -0.39 -0.41 -0.77 -0.91" style="fill:#ff8c00"/><g style="fill:#04b9ef"><path d="m 6.42 16.8 c -0.02 -0.03 -0.05 -0.39 -0.08 -0.81 l -0.04 -0.76 l 0.42 -0.11 c 0.89 -0.22 1.5 -0.6 1.98 -1.23 c 0.43 -0.57 0.57 -0.94 0.61 -1.69 c 0.05 -1.09 -0.15 -1.68 -0.84 -2.39 c -0.46 -0.47 -0.93 -0.75 -1.57 -0.9 l -0.52 -0.13 v -0.77 c 0 -0.56 0.02 -0.79 0.08 -0.83 c 0.1 -0.09 0.67 0 1.17 0.17 c 1.22 0.41 2.07 1.11 2.88 2.34 l 0.29 0.43 c 0 1.24 0 2.49 0 3.73 l -0.36 0.54 c -0.8 1.21 -1.68 1.89 -2.92 2.26 c -0.45 0.14 -1.05 0.21 -1.1 0.14"/><path d="m 16.64 16.74 c -0.46 -0.1 -1.13 -0.35 -1.44 -0.55 c -0.62 -0.38 -1.61 -1.41 -1.88 -1.96 l -0.17 -0.33 c -0.01 -1.27 -0.03 -2.55 -0.04 -3.82 l 0.18 -0.08 c 0.19 -0.07 0.28 -0.23 0.34 -0.61 c 0.05 -0.27 0.31 -0.65 0.53 -0.76 c 0.09 -0.05 0.29 -0.21 0.43 -0.36 c 0.56 -0.59 1.96 -1.18 2.64 -1.11 c 0.21 0.02 0.21 0.02 0.25 0.38 c 0.02 0.2 0.02 0.52 0 0.72 c -0.05 0.41 -0.17 0.55 -0.54 0.62 c -0.43 0.07 -0.99 0.39 -1.43 0.79 c -0.34 0.32 -0.48 0.51 -0.71 0.97 c -0.3 0.42 -0.29 0.78 -0.29 1.27 c 0 0.54 0.02 0.77 0.12 1 c 0.21 0.55 0.61 1.13 0.98 1.43 c 0.39 0.31 1.12 0.68 1.47 0.74 c 0.36 0.07 0.43 0.23 0.43 0.96 c 0 0.82 -0.04 0.85 -0.86 0.68"/></g><g style="fill:#ff8c00"><path d="m 12.89 6.63 h 1.48 v 1.59 h -1.48"/><path d="m 9.38 5.63 h 1.63 v 1.08 h -1.63"/><path d="m 10 7.67 h 1.04 v 0.93 h -1.04"/><path d="m 12.31 8.58 h 1.04 v 1.06 h -1.04"/><path d="m 11.61 7 h 0.8 v 1.15 h -0.8"/></g></svg>