<svg xmlns="http://www.w3.org/2000/svg" viewBox="0 0 24 24"><defs><linearGradient id="0" gradientUnits="userSpaceOnUse" x1="0" x2="1" gradientTransform="matrix(12.397 0 0 14.816 7.32 12.25)"><stop style="stop-color:#b1007f"/><stop offset="0.3" style="stop-color:#ff00e0"/><stop offset="0.81" style="stop-color:#ffa300"/><stop offset="1" style="stop-color:#ff8b00"/></linearGradient><radialGradient id="1" gradientUnits="userSpaceOnUse" cx="-45.64" cy="2.74" r="11.7" gradientTransform="matrix(0.902 0 0 0.899 47.4 6.33)"><stop style="stop-color:#00a9ff"/><stop offset="0.9" style="stop-color:#00afff"/><stop offset="1" style="stop-color:#000"/></radialGradient></defs><path d="m 23 14.21 c -2.39 16 -26.97 10.54 -22.32 -4.95 c 3.12 -14.72 28.3 -10.73 22.32 4.95" style="fill:#190401"/><g style="fill-rule:evenodd"><path d="m 19.22 9.41 c 0.27 0.79 0.42 1.64 0.42 2.53 c 0 4.26 -3.47 7.72 -7.75 7.72 c -4.09 0 -7.45 -3.18 -7.73 -7.19 l 8.72 -1.45 h -8.68 c 0.1 -0.86 0.34 -1.67 0.7 -2.43 l 9.59 -1.59 h -8.56 c 1.43 -1.7 3.56 -2.79 5.96 -2.79 c 2.89 0 5.4 1.57 6.74 3.91 l -7.77 1.29" style="fill:#00a9ff"/><path d="m 19.22 9.41 c 0.27 0.79 0.42 1.64 0.42 2.53 c 0 4.26 -3.47 7.72 -7.75 7.72 c -1.74 0 -3.36 -0.58 -4.65 -1.55 c 4.77 -0.14 8.61 -3.96 8.77 -8.69 m -0.01 -0.86 c -0.08 -1.34 -0.45 -2.6 -1.07 -3.72 c 1.56 0.66 2.85 1.82 3.68 3.28" style="fill:url(#0)"/><path d="m 7.32 18.1 c 0.59 0.45 0.26 0.2 0.03 0.02 c -1.76 -1.31 -2.94 -3.34 -3.1 -5.66 l 8.72 -1.45 h -8.68 c 0.1 -0.86 0.34 -1.67 0.7 -2.43 l 9.59 -1.59 h -8.56 c 1.43 -1.7 3.56 -2.79 5.96 -2.79 c 1.09 0 2.12 0.23 3.06 0.62 c 0.61 1.11 0.98 2.38 1.07 3.72 l -5.14 0.85 h 5.15 c -0.16 4.75 -4 8.57 -8.78 8.7" style="fill:url(#1)"/><g style="fill:#fff;fill-opacity:0.1"><path d="m 14.1 4.54 c 1.95 0.57 3.59 1.88 4.57 3.6 l -7.77 1.29 h 8.35 c 0.27 0.79 0.43 1.63 0.43 2.52 c 0 3.51 -2.35 6.46 -5.56 7.41 l -7.33 -7.3 l 6.13 -1.02 h -5.35 l 3.45 -3.43 l 3.52 -0.59 h -2.93"/><path d="m 19.31 9.5 c 0.25 0.77 0.39 1.59 0.39 2.44 c 0 0.84 -0.13 1.65 -0.39 2.42 l -2.43 -2.43"/><path d="m 15.96 9.41 h 3.29 c 0.27 0.79 0.43 1.64 0.43 2.53 c 0 1.74 -0.58 3.35 -1.56 4.64 l -4.67 -4.66 m 4.66 -4.64 c 0.21 0.27 0.39 0.55 0.56 0.84 l -1.7 0.28"/><path d="m 11 4.27 c 0.3 -0.04 0.61 -0.05 0.92 -0.05 c 2.89 0 5.4 1.57 6.74 3.91 l -7.77 1.29 h 8.35 c 0.27 0.79 0.43 1.64 0.43 2.53 c 0 4.26 -3.47 7.72 -7.75 7.72 c -0.3 0 -0.59 -0.02 -0.88 -0.05 l -6.81 -6.79 c -0.01 -0.11 -0.03 -0.23 -0.04 -0.35 l 8.72 -1.45 h -8.68 l 2.78 -2.77 l 7.52 -1.25 h -6.27"/><path d="m 10.93 11 l 1.61 -1.61 h 6.7 c 0.27 0.79 0.43 1.64 0.43 2.53 c 0 2.61 -1.3 4.92 -3.29 6.29 l -6.31 -6.29 l 0.51 -0.5 l 2.37 -0.39 m 3.39 -5.41 c 0.94 0.66 1.72 1.52 2.3 2.52 l -5.78 0.96"/></g></g></svg>