<svg xmlns="http://www.w3.org/2000/svg" viewBox="0 0 24 24"><path d="m 12.23 23.87 c -2.48 -0.19 -5.37 -1.37 -7.39 -3 c -2.45 -2 -4.25 -5.06 -4.73 -8.1 c -0.57 -3.99 1.74 -8.28 4.36 -10.31 c 1.31 -0.99 3.05 -1.78 4.69 -2.13 c 4.25 -0.9 8.68 0.8 11.72 4.5 c 1.82 2.21 2.76 4.45 2.99 7.09 c 0.28 3.17 -0.98 6.56 -3.26 8.85 c -2.6 2.16 -5.28 3.32 -8.36 3.1" style="fill:#334996"/><path d="m 11.58 18.93 c -0.41 -0.16 -0.72 -0.48 -0.82 -0.89 c -0.13 -0.46 0.07 -1.05 0.44 -1.34 c 0.64 -0.49 1.54 -0.31 1.92 0.39 c 0.19 0.41 0.19 0.88 0 1.23 c -0.39 0.51 -0.93 0.83 -1.53 0.61 m -2.89 -0.69 c -0.22 -0.11 -0.33 -0.26 -0.4 -0.52 c -0.13 -0.48 0.25 -0.96 0.74 -0.96 c 0.84 0 1.09 1.14 0.34 1.48 c -0.25 0.08 -0.5 0.08 -0.68 -0.01 m 5.91 0.01 c -0.75 -0.36 -0.5 -1.48 0.33 -1.49 c 0.57 0 0.93 0.61 0.68 1.14 c -0.17 0.35 -0.66 0.52 -1.02 0.35 m -7.61 -1.97 c -0.45 -0.15 -0.75 -0.44 -0.88 -0.86 c -0.21 -0.66 0.19 -1.43 0.84 -1.62 c 0.29 -0.08 0.76 -0.04 1 0.11 c 0.45 0.26 0.68 0.7 0.64 1.22 c -0.05 0.65 -0.52 1.13 -1.16 1.18 c -0.15 0 -0.3 0 -0.44 -0.04 m 9.34 0.01 c -0.25 -0.06 -0.4 -0.15 -0.59 -0.34 c -0.62 -0.7 -0.33 -1.72 0.36 -2.08 c 0.49 -0.22 1.12 -0.06 1.46 0.27 c 0.47 0.47 0.49 1.24 0.04 1.74 c -0.38 0.3 -0.88 0.5 -1.27 0.41 m -6.37 -0.34 c -0.69 -0.34 -0.75 -1.34 -0.1 -1.75 c 0.38 -0.25 0.86 -0.21 1.2 0.08 c 0.23 0.21 0.35 0.45 0.35 0.77 c 0 0.77 -0.77 1.24 -1.45 0.9 m 3.24 0.05 c -0.38 -0.14 -0.64 -0.54 -0.64 -0.96 c 0 -0.32 0.11 -0.56 0.35 -0.77 c 0.34 -0.29 0.82 -0.32 1.2 -0.08 c 0.61 0.39 0.6 1.34 -0.03 1.71 c -0.28 0.11 -0.63 0.18 -0.88 0.09 m -1.44 -2.68 c -0.26 -0.05 -0.56 -0.26 -0.7 -0.48 c -0.65 -1.03 0.47 -2.21 1.51 -1.59 c 0.34 0.2 0.53 0.54 0.53 0.96 c 0 0.59 -0.4 1.04 -1 1.12 c -0.11 0.01 -0.23 0.01 -0.34 -0.01 m -3.18 -0.15 c -0.63 -0.23 -0.87 -0.97 -0.49 -1.54 c 0.33 -0.5 1.1 -0.57 1.51 -0.14 c 0.23 0.24 0.3 0.41 0.3 0.72 c 0.04 0.73 -0.79 1.13 -1.32 0.96 m 6.11 -0.01 c -0.21 -0.08 -0.44 -0.29 -0.55 -0.52 c -0.11 -0.21 -0.11 -0.64 -0.01 -0.84 c 0.28 -0.55 0.93 -0.76 1.45 -0.45 c 0.63 0.38 0.63 1.36 0 1.73 c -0.29 0.11 -0.63 0.18 -0.89 0.09 m -8.72 -0.22 c -0.47 -0.17 -0.66 -0.8 -0.35 -1.2 c 0.35 -0.47 1.11 -0.39 1.33 0.14 c 0.17 0.41 0 0.86 -0.4 1.04 c -0.21 0.1 -0.34 0.1 -0.57 0.02 m 11.5 0 c -0.42 -0.16 -0.63 -0.61 -0.47 -1.04 c 0.1 -0.26 0.44 -0.5 0.73 -0.5 c 0.2 0 0.48 0.15 0.62 0.34 c 0.17 0.29 0.19 0.68 0 0.92 c -0.19 0.4 -0.62 0.37 -0.88 0.28 m -10.58 -2.34 c -0.25 -0.08 -0.55 -0.36 -0.69 -0.63 c -0.45 -0.88 0.16 -1.87 1.14 -1.87 c 0.68 0 1.19 0.48 1.24 1.18 c 0.03 0.38 -0.07 0.68 -0.3 0.94 c -0.42 0.4 -0.89 0.51 -1.39 0.38 m 8.55 -0.79 c -0.1 -0.3 -0.07 -0.75 0.05 -1 c 0.23 -0.45 0.64 -0.71 1.13 -0.71 c 0.99 0 1.59 0.99 1.14 1.88 c -0.14 0.27 -0.44 0.54 -0.71 0.62 c -0.66 0.16 -1.39 -0.17 -1.61 -0.79 m -5.35 0.51 c -0.36 -0.13 -0.57 -0.37 -0.66 -0.75 c -0.21 -0.94 0.93 -1.62 1.64 -0.97 c 0.23 0.21 0.34 0.45 0.34 0.76 c 0 0.31 -0.11 0.55 -0.35 0.76 c -0.27 0.24 -0.65 0.32 -0.98 0.2 m 2.55 -0.54 c -0.11 -0.23 -0.11 -0.61 0 -0.84 c 0.11 -0.24 0.4 -0.5 0.63 -0.55 c 0.73 -0.2 1.42 0.44 1.27 1.17 c -0.06 0.3 -0.22 0.53 -0.45 0.67 c -0.56 0.22 -1.18 0.12 -1.45 -0.44 m -1.11 -1.88 c -0.3 -0.12 -0.52 -0.32 -0.68 -0.59 c -0.19 -0.41 -0.19 -0.88 0 -1.23 c 0.32 -0.57 1.09 -0.84 1.68 -0.55 c 0.27 0.15 0.43 0.29 0.57 0.55 c 0.19 0.41 0.19 0.88 0 1.23 c -0.51 0.68 -1.05 0.78 -1.58 0.59 m -2.68 -0.27 c -0.65 -0.21 -0.8 -1.05 -0.25 -1.41 c 0.72 -0.48 1.55 0.37 1.08 1.1 c -0.22 0.22 -0.57 0.38 -0.82 0.31 m 5.8 -0.03 c -0.39 -0.13 -0.61 -0.6 -0.45 -1.02 c 0.3 -0.8 1.49 -0.58 1.49 0.29 c -0.07 0.75 -0.62 0.84 -1.04 0.73" style="fill:#fff"/></svg>