<svg xmlns="http://www.w3.org/2000/svg" viewBox="0 0 24 24"><path d="m 23.81 17.24 c 2.38 -34.51 -43.65 -8.64 -13.34 6 c 4.67 2 11.64 0.54 13.34 -6" style="fill:#f4f4f4"/><path d="m 19.55 18.82 c -2.95 -3.33 -4.12 -4.36 -4.96 -4.36 c -0.3 0 -0.45 0.1 -0.6 0.39 c -0.11 0.2 -0.12 0.31 -0.12 0.87 c 0 0.36 0.02 0.99 0.05 1.41 c 0.03 0.53 0.03 0.77 -0.01 0.8 c -0.09 0.06 -0.79 -2.13 -1.04 -3.31 c -0.16 -0.74 -0.18 -1.82 -0.03 -2.09 c 0.2 -0.37 0.64 -0.43 1.15 -0.18 c 0.77 0.38 2.31 1.96 4.23 4.34 c 1.23 1.52 2.32 3 2.24 3.08 c -0.01 0.01 -0.42 -0.42 -0.9 -0.96" style="fill:#cd1216"/><path d="m 13 11.53 c -0.18 -0.08 -0.34 -0.34 -0.48 -0.79 c -0.08 -0.26 -0.09 -0.44 -0.07 -1.46 c 0.04 -1.29 0.13 -2.28 0.37 -3.94 c 0.17 -1.18 0.55 -3.23 0.63 -3.45 c 0.12 -0.3 0.14 0.1 0.04 1.1 c -0.05 0.57 -0.13 1.4 -0.17 1.86 c -0.19 2.09 -0.05 3.63 0.38 4.08 c 0.15 0.16 0.21 0.18 0.44 0.18 c 0.39 0 0.5 -0.08 1.92 -1.45 c 0.26 -0.25 0.49 -0.44 0.5 -0.43 c 0.11 0.11 -1.21 2.25 -1.94 3.15 c -0.39 0.5 -0.96 1.03 -1.19 1.12 c -0.23 0.1 -0.23 0.1 -0.44 0.01"/><path d="m 2.41 15.44 c -0.29 -0.04 -0.02 -0.19 0.47 -0.25 c 0.34 -0.04 3.34 -0.86 4.21 -1.14 c 1.05 -0.35 1.87 -0.76 2.23 -1.13 c 0.75 -0.75 0.45 -1.18 -1.45 -2.06 c -1.09 -0.5 -1.16 -0.61 -0.33 -0.5 c 0.29 0.04 0.91 0.16 1.39 0.27 c 1.7 0.4 2.47 0.72 2.99 1.22 c 0.23 0.23 0.28 0.3 0.28 0.46 c 0 0.53 -1.04 1.19 -2.73 1.71 c -2.21 0.69 -6.36 1.52 -7.1 1.42" style="fill:#fda820"/></svg>