<svg xmlns="http://www.w3.org/2000/svg" viewBox="0 0 24 24"><path d="m 22.25 5.83 c -18.1 -21.1 -35.57 22.31 -7.53 17.85 c 6.15 -0.98 12.41 -12.15 7.53 -17.85" style="fill:#ff8c00"/><g style="fill:#fff;stroke:#ff8c00;fill-rule:evenodd"><g style="stroke-linecap:round;stroke-linejoin:round"><path d="m 9.57 15.42 l -6 17 c -0.17 0.48 0.21 1 0.68 1 l 39.4 -0.04 c 0.68 0 1.18 -0.77 0.9 -1.45 l -6.69 -16.39 c -0.2 -0.47 -0.84 -0.87 -1.46 -0.87 l -25.56 -0.03 c -0.48 0 -1.03 0.11 -1.26 0.73" transform="matrix(0.292 0 0 0.31 4.42 6.68)"/><g transform="matrix(0.292 0 0 0.311 4.42 6.62)"><path d="m 4 28.35 c 0.09 -0.23 0.32 -0.38 0.64 -0.38 l 2 0.03 l 3.18 3.79 c 0 0 -0.52 1.3 -0.29 2.13 c 0.45 0.4 -0.01 0.67 -0.01 0.67 c 0 0 -6 0 -6.5 0 c -0.51 0 -1.12 -1.26 -0.82 -2 c 0.8 -1.92 0.92 -2.23 1.79 -4.21"/><path d="m 44.49 28.35 c -0.09 -0.23 -0.31 -0.38 -0.63 -0.38 l -2 0.03 l -3.18 3.79 c 0 0 0.52 1.3 0.29 2.13 c -0.45 0.4 0.01 0.67 0.01 0.67 c 0 0 6 0 6.5 0 c 0.49 0 1.12 -1.26 0.82 -2 c -0.8 -1.92 -0.92 -2.23 -1.81 -4.21"/><g style="stroke-width:0.81"><path d="m 8.9 17.4 l 5.42 -2.64 c 0.36 -0.18 -0.31 -0.98 -0.7 -0.98 h -4.33 l -1.24 3.18 c -0.17 0.45 0.33 1.87 0.49 1.42"/><path d="m 38.53 17.4 l -5.42 -2.64 c -0.36 -0.18 0.29 -0.98 0.7 -0.98 h 4.33 l 1.24 3.18 c 0.17 0.45 -0.33 1.87 -0.49 1.42"/></g></g></g><path d="m 5.97 4.89 l 5.63 -5.63 l 20.1 -9.76 c 3.25 -1.24 5.18 3.38 2.31 5 l -20 9.38" transform="matrix(0.274 -0.126 0.123 0.279 8.79 13.26)"/></g></svg>