<svg xmlns="http://www.w3.org/2000/svg" viewBox="0 0 24 24"><path d="m 22.87 7.65 c 9 28.98 -39.4 14.49 -16.77 -5.37 c 4.54 -3.98 14.34 -2.45 16.77 5.37" style="fill:#ffe74e"/><path d="m 15.1 18.26 c -0.02 -0.29 -0.04 -0.58 -0.06 -0.87 c -0.32 -0.02 -0.65 -0.04 -0.97 -0.06 l -0.03 -3.94 c 0.32 0 0.65 0 0.97 0 c 0.04 -0.27 -0.08 -0.71 0.08 -0.93 c 0.06 -0.05 0.49 -0.07 1.44 -0.05 l 1.36 0.02 c 0.02 0.29 0 0.61 0.1 0.88 c 0.29 0.12 0.52 0 0.84 0.01 c -0.02 0.62 0.07 1.38 0.03 2 c -0.21 0.06 -0.88 0.02 -1.88 0.05 c -1 0.04 -1.53 0.04 -1.77 0.07 c -0.06 0.27 0 0.65 0.01 0.94 c 1.23 0.02 2.28 -0.07 3.58 -0.09 c 0.05 0.34 0.05 0.69 0.05 1.04 c -0.3 0.02 -0.64 0 -0.92 0.11 c -0.13 0.27 -0.05 0.53 -0.13 0.81 c -1 0.06 -1.78 0.08 -2.71 0.01 m 1.85 -3.92 c 0.14 -0.06 0.1 -0.83 0.04 -0.93 c -0.36 -0.12 -0.63 -0.01 -1.04 0.01 c -0.01 0.29 -0.05 0.59 -0.01 0.88 c 0.32 0.16 0.63 0.02 1 0.04 m -9.64 3.04 c -0.05 -0.13 -0.05 -1.55 -0.02 -5 l 0.04 -4.86 h 5.69 c 0.01 0.28 -0.03 0.6 0.07 0.86 c 0.32 0.13 0.63 0.02 0.95 0.15 c 0.1 0.29 0.07 0.54 0.07 0.86 c 0.27 0.01 0.57 -0.02 0.83 0.05 c 0.08 0.05 0.12 1.67 0.05 2.45 l -0.04 0.48 h -0.42 c -0.5 -0.03 -0.6 -0.18 -0.54 0.61 v 0.38 h -0.97 l -0.02 -0.95 l -0.02 -0.95 c -0.26 -0.02 -0.53 -0.04 -0.79 -0.06 c -0.03 -0.31 0.07 -0.75 -0.06 -1.03 c -0.32 -0.1 -0.63 -0.01 -0.97 -0.02 c -0.01 -0.28 -0.02 -0.55 -0.04 -0.84 c -0.32 0 -0.64 0 -0.96 0 c -0.01 0.28 0.02 0.66 -0.05 0.93 c -0.36 -0.02 -0.52 0.02 -0.83 0.03 c 0 1.68 0.02 3.13 0.03 4.81 c 1.34 0.1 1.88 0.04 3.23 0.02 c 0.52 -0.05 0.5 -0.12 0.5 0.89 c 0 0.67 -0.01 1.41 -0.05 2.07 c -1.81 0.05 -3.46 0.02 -5.19 0.08 c 0.05 -0.98 0.02 -0.99 -0.5 -0.93 m 8.61 -8.88 c -0.29 -0.1 -0.52 -0.07 -0.84 -0.07 c 0 -0.33 0 -0.66 0 -0.99 c 0.27 -0.01 0.59 0.03 0.84 -0.07 c 0.1 -0.06 0.07 -0.54 0.07 -0.86 c 0.34 0.02 0.67 0.03 1 0.04 c 0.01 0.28 0.02 0.55 0.04 0.83 c 0.27 0.01 0.54 0.02 0.81 0.04 c 0 0.35 0 0.7 0 1.05 c -0.26 0.02 -0.53 0.04 -0.79 0.06 c -0.02 0.27 -0.04 0.54 -0.06 0.8 c -0.34 0.01 -0.67 0.03 -1 0.04 c -0.01 -0.28 0.03 -0.61 -0.07 -0.86" style="fill:#0d0902"/></svg>