<svg xmlns="http://www.w3.org/2000/svg" viewBox="0 0 24 24"><path d="m 0.54 9.25 c 6.61 -22.49 36.79 1.66 16.44 13.1 c -7.94 4.9 -19.84 -1.52 -16.44 -13.1" style="fill:#ff8c00"/><g style="fill:#fff"><path d="m 5.79 9.85 h 11.84 c 0.11 0 0.2 0.09 0.2 0.2 v 8.41 c 0 0.11 -0.09 0.2 -0.2 0.2 h -11.84 c -0.11 0 -0.2 -0.09 -0.2 -0.2 v -8.41 c 0 -0.11 0.09 -0.2 0.2 -0.2"/><path d="m 6.62 9.26 c 0 -0.02 0.02 -0.17 0.05 -0.35 c 0.34 -2.09 1.91 -3.74 3.98 -4.18 c 0.43 -0.09 1.52 -0.09 1.95 0 c 2.07 0.44 3.64 2.09 3.98 4.2 c 0.03 0.17 0.05 0.32 0.05 0.33 c 0 0.01 -2.25 0.03 -5 0.03 c -2.75 0 -5 -0.02 -5 -0.03"/></g></svg>