<svg xmlns="http://www.w3.org/2000/svg" viewBox="0 0 24 24"><defs><linearGradient id="0" gradientUnits="userSpaceOnUse" x1="1507.1" x2="1541.3" gradientTransform="matrix(0.394 0 0 0.506 -588.3 -412.5)"><stop style="stop-color:#00f;stop-opacity:0"/><stop offset="0.78" style="stop-color:#0ff"/><stop offset="0.81" style="stop-color:#03ffff"/><stop offset="0.84" style="stop-color:#1ff"/><stop offset="0.86" style="stop-color:#25ffff"/><stop offset="0.89" style="stop-color:#43ffff"/><stop offset="0.92" style="stop-color:#68ffff"/><stop offset="0.94" style="stop-color:#95ffff"/><stop offset="0.97" style="stop-color:#caffff"/><stop offset="0.99" style="stop-color:#fff"/></linearGradient></defs><path d="m 18.2 2 c 21.1 17.91 -22.31 35.1 -17.85 7.43 c 0.98 -6.08 12.15 -12.26 17.85 -7.43" style="fill:#132869"/><g style="fill:#fff"><path d="m 15.41 13 c -0.25 0.07 -0.91 0.12 -0.91 0.12 l -0.08 0.34 c 0 0 0.33 -0.04 0.57 -0.01 c 0 0 0.08 -0.01 0.09 0.11 c 0 0.12 -0.01 0.24 -0.01 0.24 c 0 0 0 0.07 -0.09 0.09 c -0.09 0.02 -0.71 0.05 -0.71 0.05 l -0.1 0.44 c 0 0 -0.04 0.1 0.05 0.07 c 0.08 -0.03 0.72 -0.18 0.81 -0.16 c 0.09 0.03 0.19 0.18 0.16 0.32 c -0.03 0.17 -0.68 0.7 -1.07 0.66 c 0 0 -0.21 0.02 -0.38 -0.34 c -0.16 -0.34 0.06 -0.99 0.06 -0.99 c 0 0 -0.1 -0.3 -0.03 -0.4 c 0 0 0.04 -0.05 0.17 -0.07 l 0.16 -0.42 c 0 0 -0.18 0.02 -0.29 -0.16 c -0.1 -0.16 -0.11 -0.23 -0.03 -0.28 c 0.08 -0.05 0.83 -0.23 1.35 -0.21 c 0 0 0.18 -0.02 0.34 0.38 c 0 0 0.07 0.16 -0.05 0.2 m -1.95 1.62 c -0.06 0.2 -0.24 0.41 -0.46 0.28 c -0.21 -0.13 -0.55 -1.03 -0.55 -1.03 c 0 0 -0.13 -0.33 -0.16 -0.33 c 0 0 -0.03 -0.06 -0.04 0.3 c -0.02 0.37 0 1.07 -0.11 1.19 c -0.11 0.11 -0.24 0.07 -0.3 -0.07 c -0.06 -0.13 -0.09 -0.43 -0.05 -0.97 c 0.04 -0.54 0.14 -1.11 0.26 -1.29 c 0.13 -0.18 0.23 -0.05 0.26 0 c 0 0 0.17 0.2 0.45 0.77 l 0.05 0.1 c 0 0 0.25 0.54 0.28 0.54 c 0 0 0.02 0.02 0.04 0 c 0.03 -0.01 0.02 -0.18 0.02 -0.18 c 0 0 -0.05 -0.59 -0.28 -1.58 c 0 0 -0.04 -0.13 -0.01 -0.24 c 0.02 -0.12 0.11 -0.06 0.11 -0.06 c 0 0 0.36 0.23 0.53 0.97 c 0.17 0.74 0.05 1.41 -0.02 1.61 m -1.73 -1.9 c -0.03 0.07 -0.05 0.18 -0.2 0.21 c 0 0 -1.43 0.13 -1.49 0.25 c 0 0 -0.05 0.07 0.03 0.1 c 0.08 0.02 0.4 0.07 0.55 0.09 c 0.17 0 0.73 0.01 0.93 0.33 c 0 0 0.12 0.15 0.12 0.5 c -0.01 0.36 -0.05 0.48 -0.16 0.61 c -0.11 0.12 -1.08 0.68 -1.7 -0.18 c 0 0 -0.29 -0.41 0.1 -0.73 c 0 0 0.28 -0.21 0.99 0.04 c 0 0 0.21 0.1 0.21 0.2 c -0.02 0.11 -0.18 0.22 -0.42 0.21 c -0.23 -0.01 -0.4 -0.15 -0.37 -0.13 c 0.03 0.02 -0.25 -0.17 -0.34 -0.04 c -0.09 0.12 -0.07 0.19 0.02 0.26 c 0.22 0.16 1.05 0.11 1.3 -0.25 c 0 0 0.1 -0.15 -0.05 -0.27 c -0.15 -0.11 -0.58 -0.18 -0.75 -0.19 c -0.16 -0.01 -0.76 0 -0.85 -0.2 c 0 0 -0.09 -0.14 0.01 -0.53 c 0.1 -0.41 0.8 -0.57 1.1 -0.6 c 0 0 0.83 -0.04 0.98 0.18 c 0 0 0.02 0.05 0 0.13 m -2.36 2.4 c -0.1 0.09 -0.32 0.05 -0.38 -0.05 c -0.06 -0.09 -0.08 -0.48 -0.07 -1.07 c 0.01 -0.61 0.02 -1.35 0.13 -1.47 c 0.11 -0.12 0.17 -0.02 0.21 0.07 c 0.04 0.08 0.1 0.17 0.11 0.36 c 0.01 0.19 0.05 1.18 0.05 1.18 c 0 0 0.04 0.89 -0.05 0.99 m 0.21 -3.2 c -0.29 0.13 -0.49 0.09 -0.66 -0.01 c -0.07 0.16 -0.12 0.21 -0.18 0.23 c -0.08 0.01 -0.16 -0.16 -0.17 -0.21 c -0.01 -0.04 -0.05 -0.11 0 -0.28 c -0.17 -0.19 -0.18 -0.45 -0.15 -0.63 c 0.04 -0.2 0.32 -0.96 1.18 -1.05 c 0 0 0.42 -0.04 0.49 0.25 h 0.01 c 0 0 0.41 0 0.4 0.47 c 0 0.46 -0.45 1.04 -0.91 1.24 m -0.8 -1.03 c -0.09 0.18 -0.09 0.29 -0.05 0.36 c 0.1 -0.19 0.28 -0.5 0.54 -0.73 c -0.2 0.02 -0.38 0.14 -0.49 0.38 m 1.18 -0.3 c -0.27 0.05 -0.68 0.52 -0.88 0.89 c 0.3 0.07 0.84 0.04 1.08 -0.58 c 0 0 0.11 -0.38 -0.2 -0.32 m 7.3 3.59 c -0.16 0.36 -0.61 1.11 -1.22 0.94 c -0.2 0.62 -0.37 1.25 -0.46 2.19 c 0 0 -0.02 0.18 -0.14 0.12 c -0.11 -0.05 -0.31 -0.3 -0.35 -0.65 c -0.04 -0.45 0.12 -1.22 0.44 -2.1 c -0.09 -0.2 -0.16 -0.48 -0.1 -0.88 c 0 0 0.08 -0.74 0.66 -1.41 c 0 0 0.07 -0.08 0.11 -0.05 c 0.04 0.03 0.02 0.27 -0.01 0.38 c -0.04 0.12 -0.3 0.69 -0.3 0.69 c 0 0 -0.16 0.39 -0.12 0.69 c 0.3 -0.6 1 -1.81 1.42 -1.43 c 0.14 0.13 0.21 0.42 0.21 0.73 c 0 0.27 -0.05 0.56 -0.14 0.78 m -0.13 -0.95 c 0 0 -0.02 -0.24 -0.21 0.02 c -0.15 0.22 -0.43 0.64 -0.66 1.2 c 0.24 -0.04 0.47 -0.2 0.54 -0.29 c 0.11 -0.13 0.38 -0.48 0.33 -0.94 m -8.42 0.3 c -0.03 0.54 -0.2 1.45 -1.34 1.89 c -0.75 0.29 -1.47 0.15 -1.86 0.03 c -0.01 0.2 -0.03 0.28 -0.05 0.32 c -0.04 0.04 -0.28 0.22 -0.41 -0.04 c -0.06 -0.12 -0.09 -0.34 -0.11 -0.54 c -0.88 -0.52 -1.28 -1.26 -1.29 -1.29 c -0.02 -0.02 -0.22 -0.29 -0.02 -0.62 c 0.19 -0.29 0.8 -0.59 1.35 -0.71 c 0.02 -0.61 0.07 -1.06 0.14 -1.27 c 0.08 -0.24 0.18 -0.02 0.27 0.14 c 0.07 0.12 0.12 0.65 0.12 1.07 c 0.36 -0.02 0.57 0.01 0.98 0.11 c 0.52 0.12 0.88 0.46 0.84 0.85 c -0.02 0.38 -0.3 0.54 -0.4 0.55 c -0.11 0.01 -0.28 -0.09 -0.28 -0.09 c -0.11 -0.07 -0.01 -0.13 0.13 -0.21 c 0.15 -0.1 0.12 -0.2 0.12 -0.2 c -0.05 -0.21 -0.73 -0.36 -1.41 -0.36 c 0 0.48 0.02 1.27 0.02 1.74 c 0.47 0.11 0.83 0.09 0.83 0.09 c 0 0 1.73 -0.06 1.78 -1.48 c 0.05 -1.42 -1.72 -2.78 -3.04 -3.21 c -1.31 -0.44 -2.05 -0.14 -2.12 -0.09 c -0.07 0.05 0 0.06 0 0.06 c 0 0 0.07 0.02 0.19 0.07 c 0.13 0.05 0.03 0.14 0.03 0.14 c -0.22 0.09 -0.48 0.04 -0.52 -0.1 c -0.05 -0.13 0.03 -0.25 0.13 -0.42 c 0.09 -0.18 0.2 -0.17 0.2 -0.17 c 1.62 -0.72 3.6 0.58 3.6 0.58 c 1.85 1.21 2.17 2.62 2.13 3.16 m -4.89 -0.07 c -0.18 0.12 -0.06 0.29 -0.06 0.29 c 0.35 0.48 0.77 0.77 1.18 0.96 c 0.05 -0.82 0.04 -1.11 0.04 -1.52 c -0.63 0.05 -0.99 0.18 -1.16 0.28"/><path d="m 20.7 13.3 v 0.29 c 0 0.07 -0.04 0.12 -0.09 0.12 h -1.09 c 0 0.07 0 0.14 0 0.2 c 0 0.44 -0.01 0.79 -0.05 1.19 c 0 0.06 -0.04 0.11 -0.09 0.11 h -0.23 c -0.02 0 -0.05 -0.01 -0.06 -0.04 c -0.02 -0.02 -0.02 -0.05 -0.02 -0.09 c 0.03 -0.39 0.05 -0.75 0.05 -1.17 c 0 -0.06 0 -0.13 0 -0.2 h -1.08 c -0.05 0 -0.09 -0.05 -0.09 -0.12 v -0.29 c 0 -0.07 0.04 -0.12 0.09 -0.12 h 1.06 c -0.02 -0.48 -0.07 -0.94 -0.14 -1.41 c 0 -0.03 0 -0.06 0.02 -0.08 c 0.01 -0.02 0.04 -0.04 0.05 -0.04 h 0.26 c 0.04 0 0.07 0.04 0.08 0.09 c 0.07 0.48 0.11 0.95 0.14 1.43 h 1.11 c 0.05 0 0.09 0.05 0.09 0.12"/></g><path d="m 19.36 11 c -0.57 -1.79 -1.52 -3.31 -2.76 -4.41 c -1.27 -1.12 -2.76 -1.71 -4.32 -1.71 c -2.57 0 -4.95 1.63 -6.39 4.38 c -0.02 0.03 -0.02 0.07 -0.01 0.1 c 0.01 0.04 0.03 0.06 0.05 0.07 l 0.2 0.09 c 0.02 0.01 0.03 0.01 0.04 0.01 c 0.04 0 0.07 -0.03 0.09 -0.06 c 0.65 -1.23 1.53 -2.25 2.55 -2.96 c 1.05 -0.73 2.24 -1.12 3.44 -1.12 c 1.45 0 2.85 0.55 4.05 1.59 c 1.17 1.01 2.08 2.43 2.63 4.1 c 0.02 0.05 0.05 0.08 0.1 0.08 h 0.23 c 0.03 0 0.05 -0.02 0.07 -0.05 c 0.02 -0.03 0.02 -0.07 0.01 -0.1 m -13.15 -1.56 c 0 0 -0.01 0 -0.02 0 s 0.01 0 0.02 0 m 12.81 1.66 c 0 0.01 0.01 0.01 0.02 0.01 s -0.01 0 -0.02 -0.01" style="fill:url(#0)"/></svg>