<svg xmlns="http://www.w3.org/2000/svg" viewBox="0 0 24 24"><path d="m 18.77 2.56 c -11.92 -8.59 -25 7.28 -15.42 17.4 c 9 9.54 24 0.7 19.95 -11.18 c -0.86 -2.48 -2.33 -4.65 -4.52 -6.23" style="fill:#006789"/><path d="m 5.52 12.1 v -6.26 h 12.94 v 12.53 h -12.94 m 12.43 -6.27 v -5.77 h -11.92 v 11.55 h 11.92 m -11.26 -0.65 c -0.09 -0.09 -0.09 -10.17 0 -10.26 c 0.09 -0.09 10.5 -0.09 10.59 0 c 0.09 0.09 0.09 10.17 0 10.26 c -0.09 0.09 -2.82 0.09 -2.91 0 c -0.04 -0.04 -0.06 -0.94 -0.06 -3.72 v -3.66 h -0.81 v 3.66 c 0 2.78 -0.02 3.68 -0.06 3.72 c -0.09 0.09 -2.82 0.09 -2.91 0 c -0.04 -0.04 -0.06 -0.94 -0.06 -3.72 v -3.66 h -0.81 v 3.66 c 0 2.78 -0.02 3.68 -0.06 3.72 c -0.09 0.09 -2.82 0.09 -2.91 0" style="fill:#701b90"/><g style="fill:#0ff"><path d="m 5.55 14.88 c 0.14 -0.06 0.29 -0.13 0.44 -0.18 c 0.02 1.16 0.01 2.05 0.01 3.3 c 3.98 0 7.96 0 11.95 0 c 0 -0.82 0 -1.64 0 -2.46 c 0.16 0.13 0.33 0.27 0.49 0.39 c 0 0.85 0 1.7 0 2.55 c -4.3 0 -8.6 0 -12.9 0 c 0 -1.2 0.01 -2.4 0.02 -3.6"/><path d="m 6.69 14.2 c 0.47 -0.56 0.87 -1.36 1.47 -1.72 c 0.57 -0.27 0.82 0.5 1.33 0.68 c 0.18 0.06 0.19 0.1 0.14 0.51 c -0.07 1.26 -0.05 2.26 -0.05 3.55 c -0.96 0 -1.92 0 -2.88 0 c 0 -1.05 0 -1.94 0 -3"/><path d="m 10.53 13.7 c 0.52 -0.07 0.88 -0.46 1.13 -0.73 c 0.48 -0.52 1.45 -1.21 1.7 -1.21 c 0.09 1.91 0.05 3.36 0.05 5.42 c -0.96 0 -1.92 0 -2.88 0 c 0 -1.16 0 -2.32 0 -3.47"/><path d="m 14.38 12.1 l 0.53 0.37 c 0.49 0.34 0.54 0.41 0.7 0.95 c 0.22 0.71 0.25 0.75 1.02 1.27 l 0.64 0.42 c 0 0.7 0 1.39 0 2.08 c -0.96 0 -1.93 0 -2.89 0 c 0 -1.69 0 -3.39 0 -5.08"/></g></svg>