<svg xmlns="http://www.w3.org/2000/svg" viewBox="0 0 24 24"><path d="m 0.3 14.75 c 4.69 22.49 36.93 -1.65 17.56 -13.1 c -7.52 -4.9 -19.97 1.52 -17.56 13.1" style="fill:#1eabe6"/><path d="m 9.98 18.77 c -1.52 -0.39 -2.8 -1.25 -3.63 -2.4 c -1.27 -1.77 -1.57 -3.8 -0.88 -5.88 c 0.21 -0.61 0.73 -1.59 0.89 -1.64 c 0.04 -0.02 0.41 0.38 0.84 0.87 c 0.69 0.81 0.77 0.93 0.77 1.22 v 0.32 l 3.54 0.02 l 3.53 0.02 v -0.19 c 0 -0.23 -0.4 -0.87 -0.8 -1.28 c -0.37 -0.38 -1.04 -0.79 -1.63 -0.98 c -0.56 -0.18 -1.58 -0.19 -2.16 -0.01 l -0.43 0.13 l -0.77 -0.89 c -0.42 -0.49 -0.77 -0.95 -0.77 -1.02 c 0 -0.09 0.16 -0.21 0.46 -0.34 c 1.53 -0.68 3.41 -0.7 5 -0.04 c 1.13 0.46 2.32 1.48 2.96 2.52 c 0.57 0.92 0.94 2.21 0.94 3.25 c 0 0.55 -0.16 0.88 -0.59 1.2 c -0.22 0.16 -0.3 0.17 -4.79 0.19 c -3.52 0.02 -4.55 0.04 -4.55 0.12 c 0.01 0.23 0.34 0.8 0.7 1.18 c 0.75 0.79 1.46 1.14 2.63 1.27 c 0.38 0.05 0.74 0.14 0.9 0.23 c 0.75 0.46 0.76 1.58 0.04 2.1 c -0.39 0.27 -1.24 0.29 -2.21 0.04" style="fill:#095da5"/></svg>