<svg xmlns="http://www.w3.org/2000/svg" viewBox="0 0 24 24"><path d="m 0.09 12.17 c -1.82 15.94 24.2 15.72 23.89 -0.29 c 0.86 -14.88 -25.3 -16.23 -23.89 0.29" style="fill:#cf76be"/><path d="m 5 14.59 v 0.89 c 0 0.74 0.68 1.34 1.52 1.34 h 0.51 v 0.45 l 0.51 1.34 h 1.02 l 0.51 -1.34 v -0.45 h 1.52 v 0.45 l 0.51 1.34 h 1.02 l 0.51 -1.34 v -0.45 h 1.52 v 0.45 l 0.51 1.34 h 1.02 l 0.5 -1.34 v -0.45 h 0.51 c 0.84 0 1.52 -0.59 1.52 -1.34 v -0.89" style="fill-opacity:0.1"/><path d="m 7.57 6.57 l -0.51 1.34 v 8.9 l 0.51 1.34 h 1.02 l 0.51 -1.34 v -8.9 l -0.51 -1.34 m 2.54 0 l -0.51 1.34 v 8.9 l 0.51 1.34 h 1.02 l 0.51 -1.34 v -8.9 l -0.51 -1.34 m 2.54 0 l -0.51 1.34 v 8.9 l 0.51 1.34 h 1.02 l 0.5 -1.34 v -8.9 l -0.5 -1.34" style="fill:#e5e5e5"/><path d="m 5.31 8.36 h 12.63 c 0.16 0 0.28 0.13 0.28 0.28 v 7.45 c 0 0.16 -0.13 0.28 -0.28 0.28 h -12.63 c -0.16 0 -0.28 -0.13 -0.28 -0.28 v -7.45 c 0 -0.16 0.13 -0.28 0.28 -0.28" style="fill:#616161"/><g style="fill-opacity:0.1"><path d="m 7.1 16.37 v 0.45 h 2.03 v -0.45 m 1.52 0 v 0.45 h 2.03 v -0.45 m 1.52 0 v 0.45 h 2.03 v -0.45"/><path d="m 5 15.21 c 0.1 0.66 0.73 1.16 1.5 1.16 h 10.14 c 0.77 0 1.4 -0.5 1.5 -1.16 c -0.09 0.41 -0.5 0.71 -0.99 0.71 h -11.16 c -0.49 0 -0.89 -0.3 -0.99 -0.71"/></g><path d="m 7.57 10.14 l -0.51 0.45 v 3.56 l 0.51 0.45 h 2.03 l 0.51 -0.45 l -0.51 -0.44 h -1.52 v -0.89 h 1.02 l 0.5 -0.45 l -0.5 -0.45 h -1.02 v -0.89 h 1.52 l 0.51 -0.45 l -0.51 -0.45 m 1.52 0 l -0.51 0.45 v 3.56 l 0.51 0.45 l 0.51 -0.45 v -1.33 h 1.02 l 0.5 -0.45 l -0.5 -0.45 h -1.02 v -0.89 h 1.52 l 0.51 -0.45 l -0.51 -0.45 m 1.52 0 l -0.51 0.45 l 0.51 0.45 v 2.67 l -0.51 0.44 l 0.51 0.45 h 1.02 l 0.5 -0.45 l -0.5 -0.44 v -2.67 l 0.5 -0.45 l -0.5 -0.45" style="fill:#e5e5e5"/></svg>