<svg xmlns="http://www.w3.org/2000/svg" viewBox="0 0 24 24"><path d="m 0.28 14.74 c 1.49 9.68 14.71 12.28 20.54 5.36 c 5.14 -5.14 3.86 -14.97 -2.45 -18.35 c -7.24 -4.51 -17.79 1.07 -18.36 10.1 c -0.06 0.98 0.02 1.98 0.26 2.93" style="fill:#deb0b4"/><path d="m 5.91 7.66 v 2.06 h 0.51 v 6.18 h -0.51 v 2.06 c 0 0.57 0.45 1.03 1.01 1.03 h 2.02 v -0.52 h 6.07 v 0.52 h 2 c 0.56 0 1.01 -0.46 1.01 -1.03 v -2.06 h -0.5 v -6.18 h 0.5 v -2.06" style="fill-opacity:0.1"/><path d="m 6.41 6.63 h 11.12 v 11.34 h -11.12" style="fill:#ececec"/><path d="m 6.92 6.63 c -0.18 0 -0.36 0.05 -0.5 0.14 v 2.96 h 0.5 v -2.06 h 2.02 v -1.03 m 6.07 0 v 1.03 h 2 v 2.06 h 0.51 v -2.96 c -0.15 -0.09 -0.32 -0.14 -0.51 -0.14" style="fill-opacity:0.1"/><path d="m 6.92 6.12 c -0.56 0 -1.01 0.46 -1.01 1.03 v 2.06 h 1.01 v -2.06 h 2.02 v -1.03 m 6.07 0 v 1.03 h 2 v 2.06 h 1.01 v -2.06 c 0 -0.57 -0.45 -1.03 -1.01 -1.03 m -11.12 9.28 v 2.06 c 0 0.57 0.45 1.03 1.01 1.03 h 2.02 v -1.03 h -2.02 v -2.06 m 6.07 0 v 1.03 h 1.01 v -1.03 m 1.01 0 v 1.03 h 1 v -1.03 m 1.01 0 v 2.06 h -2 v 1.03 h 2 c 0.56 0 1.01 -0.46 1.01 -1.03 v -2.06" style="fill:#ed444c"/><path d="m 7.93 8.18 v 1.03 h 1.01 v 2.57 h -1.01 v 1.03 h 4 v -2.06 h -1.01 v 1.03 h -1.01 v -2.57 h 1.01 v -1.03 m 2.02 0 v 1.03 h 1.01 v -1.03 m 1.01 0 v 1.03 h 1 v -1.03" style="fill:#3584e4"/><path d="m 12.98 10.24 v 0.52 h 3 v -0.52 m -3 1.03 v 0.52 h 3 v -0.52 m -3 1.03 v 0.52 h 3 v -0.52 m -8.1 1.55 v 0.52 h 8.1 v -0.52 m -8.1 1.03 v 0.52 h 4 v -0.52 m -4 1.03 v 0.52 h 4 v -0.52" style="fill:#b2b2b2"/></svg>