<svg xmlns="http://www.w3.org/2000/svg" viewBox="0 0 24 24"><path d="m 9.7 23.64 c -2.22 -0.94 -5.29 -2.33 -5.57 -2.51 c -0.17 -0.11 -0.45 -0.39 -0.63 -0.63 c -0.5 -0.66 -3.23 -5.41 -3.34 -5.84 c -0.11 -0.39 -0.06 -1.82 0.11 -3.12 c 0.38 -3.82 0.19 -3.73 0.69 -4.56 c 0.11 -0.22 1.19 -1.49 2.41 -2.81 c 2.35 -2.55 2.6 -2.75 3.59 -2.94 c 2.66 -0.46 4.35 -1.03 6.74 -1.16 c 2.13 0.91 4.42 1.85 6.43 2.99 c 0.32 0.27 0.78 0.97 1.83 2.75 c 2.14 3.65 1.97 3.25 1.96 4.53 c -0.21 1.98 -0.2 5.3 -0.89 6.71 c -0.24 0.45 -3.36 3.96 -4.35 4.9 c -0.49 0.47 -0.98 0.68 -2.13 0.91 c -1.16 0.43 -3.87 0.88 -4.8 1.05 c -0.54 0.13 -1.16 0.08 -2.04 -0.29" style="fill:#0a0a0a"/><path d="m 11.54 20.1 c -1.7 -0.88 -6.24 -3.46 -6.55 -3.72 l -0.21 -0.18 l -0.03 -2.73 c -0.02 -1.5 0 -3.37 0.03 -4.15 l 0.05 -1.41 l 0.45 -0.26 c 1.75 -1.04 5.45 -3.12 6.12 -3.46 l 0.81 -0.41 l 0.54 0.29 c 0.66 0.36 1.21 0.73 1.21 0.8 c 0 0.09 -1.93 1.25 -4.4 2.65 c -1.22 0.69 -2.33 1.34 -2.47 1.46 l -0.25 0.21 l -0.03 1.13 c -0.02 0.62 0 1.98 0.03 3 l 0.05 1.89 l 2.53 1.43 c 1.39 0.79 2.58 1.43 2.65 1.43 c 0.22 0 0.65 -0.22 3.12 -1.61 c 3.45 -1.95 4.18 -2.34 4.24 -2.27 c 0.03 0.03 0.06 0.52 0.06 1.09 v 1.03 l -1.27 0.74 c -2.09 1.21 -5.95 3.39 -6 3.39 c -0.03 0 -0.34 -0.14 -0.69 -0.32" style="fill:#f1c95b"/><g style="fill:#fff"><path d="m 9.1 12.29 c -0.09 -0.23 -0.11 -1.39 -0.03 -1.68 c 0.03 -0.11 0.25 -0.31 0.57 -0.52 c 0.78 -0.5 3.93 -2.25 4.72 -2.64 l 0.69 -0.34 l 0.66 0.33 c 0.66 0.33 1.17 0.68 1.1 0.74 c -0.18 0.16 -7.2 4.15 -7.5 4.26 c -0.1 0.04 -0.16 0 -0.22 -0.16"/><path d="m 11.56 15.34 c -0.63 -0.31 -1.17 -0.75 -1.08 -0.87 c 0.08 -0.12 2 -1.25 4.48 -2.64 c 2.27 -1.27 3 -1.66 3.09 -1.6 c 0.07 0.07 0.13 1.65 0.07 1.87 c -0.05 0.2 -0.87 0.74 -2.92 1.9 c -1.07 0.61 -2.96 1.61 -3.04 1.61 c -0.02 0 -0.29 -0.13 -0.59 -0.27"/><path d="m 18.55 11.98 c -0.03 -0.03 -0.05 -0.54 -0.05 -1.13 v -1.08 l 0.34 -0.2 c 0.4 -0.23 0.57 -0.25 0.64 -0.07 c 0.03 0.07 0.05 0.54 0.05 1.06 v 0.93 l -0.3 0.18 c -0.47 0.29 -0.63 0.37 -0.68 0.31"/><path d="m 16.62 7.47 c -0.73 -0.41 -0.98 -0.59 -0.98 -0.71 c 0 -0.11 0.73 -0.54 0.92 -0.54 c 0.17 0 1.4 0.69 1.62 0.9 c 0.1 0.1 0.08 0.14 -0.14 0.34 c -0.48 0.44 -0.63 0.44 -1.42 0"/></g></svg>