<svg xmlns="http://www.w3.org/2000/svg" viewBox="0 0 24 24"><path d="m 18.1 1.8 c 20.88 17.91 -22.1 35.1 -17.65 7.43 c 0.96 -6.08 12 -12.26 17.65 -7.43" style="fill:#182340"/><g style="fill:#fff"><path d="m 10.17 7.75 c 0 1.25 -1.04 2.27 -2.32 2.27 c -1.29 0 -2.32 -1.02 -2.32 -2.27 c 0 -1.25 1.04 -2.27 2.32 -2.27 c 1.28 0 2.32 1.02 2.32 2.27"/><path d="m 13.86 12.23 c 0 1.16 -0.95 2.11 -2.13 2.11 c -1.17 0 -2.13 -0.95 -2.13 -2.11 c 0 -1.16 0.95 -2.11 2.13 -2.11 c 1.18 0 2.13 0.94 2.13 2.11"/><path d="m 15.86 17.1 c 0 1.21 -0.98 2.19 -2.18 2.19 c -1.21 0 -2.19 -0.98 -2.19 -2.19 c 0 -1.21 0.98 -2.19 2.19 -2.19 c 1.21 0 2.19 0.98 2.18 2.19"/><path d="m 17.77 6.88 c 0 1.25 -1.04 2.27 -2.32 2.27 c -1.29 0 -2.32 -1.02 -2.32 -2.27 c 0 -1.25 1.04 -2.27 2.32 -2.27 c 1.28 0 2.32 1.02 2.32 2.27"/><path d="m 9.35 16.6 c 0 1.55 -1.27 2.82 -2.84 2.82 c -1.57 0 -2.84 -1.26 -2.84 -2.82 c 0 -1.55 1.27 -2.82 2.84 -2.82 c 1.57 0 2.84 1.26 2.84 2.82"/><path d="m 19.6 12.73 c 0 1.12 -0.89 2.03 -2 2.03 c -1.1 0 -2 -0.91 -2 -2.03 c 0 -1.13 0.89 -2.04 2 -2.04 c 1.11 0 2 0.91 2 2.04"/></g><g style="fill:#211a14"><path d="m 7.08 18.1 c -0.32 -0.12 -0.54 -0.32 -0.54 -0.5 c 0 -0.2 0.25 -0.21 0.52 -0.02 c 0.17 0.13 0.25 0.14 0.39 0.05 c 0.22 -0.21 0.23 -0.54 0.05 -0.72 c -0.08 -0.08 -0.16 -0.12 -0.23 -0.12 c -0.29 0 -0.48 -0.2 -0.35 -0.38 c 0.03 -0.05 0.09 -0.1 0.12 -0.11 c 0.18 -0.06 0.37 -0.17 0.49 -0.28 c 0.17 -0.16 0.17 -0.39 0.03 -0.53 c -0.33 -0.2 -0.46 0.04 -0.77 0.13 c -0.2 0.03 -0.25 -0.15 -0.2 -0.27 c 0.12 -0.23 0.5 -0.44 0.8 -0.44 c 0.27 0 0.48 0.12 0.59 0.34 c 0.12 0.3 0.37 0.52 0.04 0.9 c -0.16 0.23 -0.46 0.49 -0.22 0.62 c 0.55 0.29 0.25 0.95 0.11 1.15 c -0.16 0.22 -0.54 0.31 -0.84 0.2"/><path d="m 4.77 18.1 c -0.07 -0.32 0.45 -0.3 0.57 -0.58 c 0.06 -0.14 0.07 -1.94 0.02 -1.99 c -0.23 -0.03 -0.43 0.07 -0.66 0.03 c -0.03 -0.02 -0.05 -0.06 -0.05 -0.09 c 0 -0.08 0.2 -0.23 0.49 -0.38 c 0.38 -0.19 0.57 -0.24 0.67 -0.19 c 0.08 0.04 0.08 0.05 0.05 0.93 c -0.02 0.49 -0.03 1.08 -0.02 1.3 c -0.07 0.38 0.19 0.61 0.19 0.91 c -0.02 0.04 -0.06 0.07 -0.08 0.07 c -0.4 -0.01 -0.77 0.07 -1.17 -0.03"/><path d="m 11.41 13.57 c -0.45 -0.2 -0.82 -0.78 -0.85 -1.15 c -0.06 -1.14 0.26 -1.04 0.57 -1.32 c 0.36 -0.3 0.93 -0.32 1.23 -0.02 c 0.29 0.29 0.6 0.43 0.5 1.35 c -0.05 0.55 -0.39 0.74 -0.63 0.96 c -0.2 0.18 -0.53 0.25 -0.83 0.18 m 0.57 -0.56 c 0.2 -0.12 0.24 -0.21 0.29 -0.63 c 0.05 -0.43 0.04 -0.59 -0.06 -0.75 c -0.11 -0.17 -0.21 -0.22 -0.44 -0.22 c -0.25 0 -0.38 0.05 -0.5 0.21 c -0.11 0.38 -0.23 0.82 -0.01 1.23 c 0.19 0.23 0.48 0.3 0.72 0.16"/><path d="m 7.33 9.2 c -0.14 -0.04 -0.19 -0.1 -0.17 -0.2 c 0.02 -0.13 0.14 -0.35 0.36 -0.66 c 0.34 -0.5 0.6 -1.05 0.64 -1.37 c 0.02 -0.1 0.01 -0.13 -0.04 -0.17 c -0.06 -0.06 -0.13 -0.07 -0.4 -0.01 c -0.28 0.05 -0.41 0.04 -0.52 -0.08 c -0.09 -0.11 -0.1 -0.2 -0.02 -0.32 c 0.11 -0.16 0.17 -0.18 0.76 -0.17 c 0.63 0 0.64 0.01 0.7 0.26 c 0.07 0.26 0.04 0.49 -0.11 0.94 c -0.07 0.2 -0.18 0.56 -0.23 0.79 c -0.15 0.61 -0.28 0.87 -0.48 0.96 c -0.13 0.06 -0.38 0.08 -0.5 0.05"/><path d="m 15.43 8.72 c -0.09 -0.05 -0.17 -0.19 -0.17 -0.27 c 0 -0.03 0.05 -0.2 0.11 -0.37 c 0.14 -0.41 0.12 -0.56 -0.06 -0.69 c -0.3 -0.07 -0.45 -0.04 -0.79 -0.04 l -0.06 -0.07 c -0.07 -0.09 -0.13 -0.39 -0.06 -0.55 c 0.18 -0.41 0.25 -0.59 0.48 -0.99 c 0.23 -0.39 0.8 -0.74 0.95 -0.59 c 0.08 0.08 0.1 0.33 0.08 1.06 c -0.02 0.83 -0.03 0.8 0.21 0.74 c 0.14 -0.03 0.14 -0.03 0.21 0.04 c 0.09 0.09 0.1 0.26 0.01 0.36 c -0.18 0.12 -0.39 0.04 -0.48 0.2 c -0.08 0.12 -0.07 0.2 0.04 0.55 c 0.07 0.21 0.09 0.32 0.08 0.38 c -0.11 0.23 -0.38 0.34 -0.54 0.25 m -0.1 -1.96 c 0.18 -0.09 0.21 -0.17 0.21 -0.35 c 0 -0.12 0.05 -0.44 -0.03 -0.48 c -0.16 -0.09 -0.4 0.07 -0.54 0.34 c -0.08 0.16 -0.07 0.33 0.04 0.44 c 0.1 0.1 0.2 0.11 0.32 0.05"/><path d="m 17.21 14.17 c -0.28 -0.09 -0.39 -0.29 -0.24 -0.41 c 0.09 -0.07 0.18 -0.07 0.4 0.02 c 0.22 0.09 0.34 0.1 0.47 0.03 c 0.27 -0.42 0.43 -0.43 0.27 -0.85 c -0.34 -0.43 -0.63 -0.05 -1.03 0.04 c -0.07 -0.01 -0.24 -0.57 -0.26 -0.8 c -0.02 -0.22 0.04 -0.46 0.14 -0.69 c 0.05 -0.13 0.13 -0.04 0.23 -0.09 c 0.19 -0.08 0.35 -0.18 0.83 -0.12 c 0.24 0.04 0.48 0.17 0.51 0.18 c 0.28 0.19 0.08 0.25 -0.01 0.3 c -0.11 0.06 -0.34 0.13 -0.67 0.05 c -0.45 -0.1 -0.59 -0.25 -0.64 -0.05 c -0.06 0.24 -0.02 0.45 0.11 0.55 c 0.08 0.07 0.17 0.07 0.46 0.02 c 0.25 -0.05 0.32 -0.04 0.47 0.08 c 0.24 0.17 0.43 0.5 0.35 0.85 c -0.06 0.27 -0.23 0.52 -0.38 0.66 c -0.24 0.24 -0.77 0.29 -1.03 0.21"/><path d="m 13 18.57 c -0.07 -0.29 0.45 -0.27 0.57 -0.52 c 0.05 -0.13 0.07 -1.76 0.02 -1.8 c -0.23 -0.02 -0.44 0.07 -0.66 0.03 c -0.03 -0.02 -0.05 -0.06 -0.05 -0.08 c 0 -0.07 0.2 -0.21 0.49 -0.34 c 0.38 -0.17 0.57 -0.21 0.67 -0.17 c 0.07 0.04 0.07 0.04 0.04 0.84 c -0.02 0.45 -0.02 0.98 -0.02 1.18 c -0.07 0.34 0.2 0.55 0.19 0.82 c -0.02 0.04 -0.06 0.07 -0.08 0.07 c -0.4 -0.01 -0.77 0.06 -1.17 -0.03"/></g></svg>