<svg xmlns="http://www.w3.org/2000/svg" viewBox="0 0 24 24"><path d="m 22.95 8.2 c 4.66 11.95 -8.39 18.1 -16.52 15 c -5.67 -2.13 -8.5 -10.59 -4.47 -17.44 c 5.09 -8.64 17.4 -6.8 20.99 2.41" style="fill:#251017"/><path d="m 20.1 12.39 c 0 -4.54 -3.72 -8.21 -8.31 -8.21 c -4.59 0 -8.31 3.68 -8.31 8.21 c 0 4.54 3.72 8.22 8.31 8.22 c 4.59 0 8.31 -3.68 8.31 -8.22" style="fill:#d9a420"/><g style="fill:#251017"><path d="m 16.43 4.99 h 0.57 v 14.93 h -0.57"/><path d="m 6.15 5.12 h 0.56 v 14.93 h -0.56"/><path d="m 9.35 3.61 h 0.56 v 17.31 h -0.56"/><path d="m 13 3.61 h 0.57 v 17.75 h -0.57"/></g><path d="m 117.5 -142.8 c 3.5 -7.08 21.57 -37.7 24.1 -37.7 c 2.21 0 16.33 22.92 24.94 40.5 c 8.1 16.59 12.83 34.2 11.27 42.1 c -0.76 3.91 -1.65 10.95 -12.96 15.56 c -69.93 4.73 -65.5 -18.36 -47.4 -60.5" transform="matrix(0.097 0 0 0.095 -1.98 24.39)" style="fill:#fd1f31;stroke:#251017;stroke-width:4.56"/></svg>