<svg xmlns="http://www.w3.org/2000/svg" viewBox="0 0 24 24"><path d="m 20.56 4.5 c 14.97 21.28 -23.97 28.1 -20.1 5.44 c 2.05 -8.99 14.1 -13.97 20.1 -5.44" style="fill:#66f"/><path d="m 7.79 18.53 c -0.32 -0.05 -0.43 -0.11 -0.7 -0.39 c -0.47 -0.25 -0.3 -1.19 -0.32 -3.96 c 0 -3.54 0 -3.63 0.16 -3.86 c 0.09 -0.13 0.27 -0.31 0.4 -0.4 c 0.22 -0.15 0.34 -0.16 1.86 -0.21 c 0.89 -0.02 2.43 -0.05 3.41 -0.05 h 1.79 l 0.05 -0.62 c 0.1 -1.29 -0.12 -1.97 -0.86 -2.59 c -0.44 -0.37 -0.79 -0.48 -1.5 -0.48 c -0.67 0 -1.1 0.14 -1.55 0.51 c -0.58 0.46 -0.76 0.93 -0.86 2.18 l -0.05 0.66 h -0.52 c -0.68 0 -0.71 -0.06 -0.64 -1 c 0.09 -1.28 0.43 -2.07 1.18 -2.72 c 0.71 -0.62 1.48 -0.89 2.49 -0.89 c 0.98 0 1.78 0.32 2.46 0.96 c 0.82 0.79 1.04 1.38 1.14 3.06 l 0.05 0.93 l 0.44 0.09 c 0.52 0.1 0.86 0.34 1.06 0.75 c 0.13 0.27 0.14 0.54 0.14 3.63 c 0 2.15 -0.03 3.44 -0.08 3.61 c -0.05 0.15 -0.2 0.39 -0.34 0.53 c -0.24 0.25 -0.28 0.26 -0.88 0.31 c -0.88 0.07 -7.89 0.05 -8.35 -0.02 m 5.15 -2.3 c 0 -0.68 -0.09 -1.2 -0.18 -1.92 l 0.26 -0.32 c 0.49 -0.6 0.49 -1.19 0.01 -1.62 c -0.34 -0.31 -0.52 -0.38 -0.93 -0.38 c -0.68 0 -1.2 0.43 -1.29 1.08 c -0.05 0.36 0.07 0.66 0.43 1.02 l 0.21 0.21 c -0.08 0.63 -0.25 1.28 -0.22 1.9 c 0.18 0.16 1.63 0.2 1.71 0.02" style="fill:#fff"/></svg>