<svg xmlns="http://www.w3.org/2000/svg" viewBox="0 0 24 24"><path d="m 21.27 6.19 c 5.46 5.54 1.46 10.66 -2.88 14.86 c -3.54 3.42 -6.81 3.58 -10.29 1.31 c -9.1 -5.92 -12.43 -13.61 1.64 -21.67 c 4.64 -1.99 8.96 2.2 11.53 5.5" style="fill:#3e3e3e"/><g style="fill:#2fc5e7"><path d="m 11.73 6.75 h 0.71 c 0.18 0 0.34 0.11 0.34 0.25 v 10.38 c 0 0.14 -0.15 0.25 -0.34 0.25 h -0.71 c -0.18 0 -0.34 -0.11 -0.34 -0.25 v -10.38 c 0 -0.14 0.15 -0.25 0.34 -0.25"/><path d="m 13.64 8.71 h 0.71 c 0.18 0 0.34 0.11 0.34 0.25 v 6.24 c 0 0.14 -0.15 0.25 -0.34 0.25 h -0.71 c -0.18 0 -0.34 -0.11 -0.34 -0.25 v -6.24 c 0 -0.14 0.15 -0.25 0.34 -0.25"/></g><path d="m 9.79 8.68 h 0.7 c 0.19 0 0.34 0.11 0.34 0.25 v 6.24 c 0 0.14 -0.15 0.25 -0.34 0.25 h -0.7 c -0.19 0 -0.34 -0.11 -0.34 -0.25 v -6.24 c 0 -0.14 0.15 -0.25 0.34 -0.25" style="fill:#20d7ec"/><g style="fill:#3ce6be"><path d="m 6.16 10.51 h 0.49 c 0.19 0 0.34 0.11 0.34 0.25 v 3.11 c 0 0.14 -0.15 0.25 -0.34 0.25 h -0.49 c -0.19 0 -0.34 -0.11 -0.34 -0.25 v -3.11 c 0 -0.14 0.15 -0.25 0.34 -0.25"/><path d="m 7.99 11 h 0.49 c 0.19 0 0.34 0.11 0.34 0.25 v 1.93 c 0 0.14 -0.15 0.25 -0.34 0.25 h -0.49 c -0.19 0 -0.34 -0.11 -0.34 -0.25 v -1.93 c 0 -0.14 0.15 -0.25 0.34 -0.25"/><path d="m 17.55 11 h 0.49 c 0.19 0 0.34 0.11 0.34 0.25 v 1.93 c 0 0.14 -0.15 0.25 -0.34 0.25 h -0.49 c -0.18 0 -0.34 -0.11 -0.34 -0.25 v -1.93 c 0 -0.14 0.15 -0.25 0.34 -0.25"/><path d="m 19.39 11.64 h 0.49 c 0.19 0 0.34 0.11 0.34 0.25 v 0.73 c 0 0.14 -0.15 0.25 -0.34 0.25 h -0.49 c -0.19 0 -0.34 -0.11 -0.34 -0.25 v -0.73 c 0 -0.14 0.15 -0.25 0.34 -0.25"/><path d="m 4.29 11.64 h 0.49 c 0.19 0 0.34 0.11 0.34 0.25 v 0.73 c 0 0.14 -0.15 0.25 -0.34 0.25 h -0.49 c -0.18 0 -0.34 -0.11 -0.34 -0.25 v -0.73 c 0 -0.14 0.15 -0.25 0.34 -0.25"/></g><path d="m 15.58 10.34 h 0.53 c 0.19 0 0.34 0.11 0.34 0.25 v 3.28 c 0 0.14 -0.15 0.25 -0.34 0.25 h -0.53 c -0.18 0 -0.34 -0.11 -0.34 -0.25 v -3.28 c 0 -0.14 0.15 -0.25 0.34 -0.25" style="fill:#2fc5e7"/></svg>