<svg xmlns="http://www.w3.org/2000/svg" viewBox="0 0 24 24"><path d="m 2.99 5.87 c 19.75 -21.25 32.2 22.61 5.98 17.77 c -6.92 -2.38 -12.32 -10.95 -5.98 -17.77" style="fill:#edd1eb"/><path d="m 13.52 19.75 c -0.81 -0.19 -1.78 -0.76 -1.99 -1.17 c -0.09 -0.19 -0.12 -0.38 -0.14 -1.32 c -0.02 -0.84 -0.05 -1.1 -0.11 -1.13 c -0.04 -0.02 -0.17 0.05 -0.29 0.15 c -0.91 0.78 -1.63 1.21 -2.1 1.26 c -0.24 0.02 -0.33 -0.01 -0.71 -0.21 c -0.57 -0.46 -2.57 -0.57 -2.58 -1.28 c 0.19 -0.66 0.59 -1.4 0.99 -1.99 c 0.18 -0.25 0.55 -0.7 0.83 -0.99 c 0.28 -0.29 1 -0.42 1 -0.46 c 0 -0.05 -0.62 -0.32 -0.77 -0.44 c -0.36 -0.27 -0.82 -0.77 -0.96 -1.05 c -0.13 -0.27 -0.26 -0.85 -0.21 -0.99 c 0.07 -0.24 0.2 -1.34 0.2 -1.69 c 0 -0.3 0.02 -0.42 0.12 -0.54 c 0.12 -0.15 0.13 -0.15 0.8 -0.15 c 0.66 0.01 1.35 -0.11 1.96 -0.13 c 0.74 -0.01 0.94 0.08 1.48 0.66 c 0.21 0.22 0.58 0.68 0.61 0.66 c 0.04 -0.02 -0.11 -0.42 -0.11 -0.52 c 0 -0.11 0.05 -0.45 0.12 -0.76 c 0.26 -1.23 0.47 -1.39 2.74 -2.08 c 0.29 -0.07 0.48 -0.28 0.71 -0.43 c 0.08 0 0.69 0.68 0.95 1.06 c 0.55 0.8 0.97 1.85 0.89 2.25 c -0.05 0.24 -0.37 0.96 -0.6 1.33 c -0.23 0.38 -0.18 0.42 0.39 0.33 c 0.57 -0.1 0.91 -0.03 1.62 0.32 c 0.41 0.2 0.58 0.33 0.86 0.63 c 0.39 0.42 0.87 1.24 0.87 1.48 c 0 0.25 -0.24 0.69 -0.81 1.48 c -0.78 1.08 -0.86 1.17 -1.23 1.29 c -0.59 0.2 -1.48 0.21 -2.32 0.02 c -0.21 -0.05 -0.2 0.08 0.04 0.43 c 0.28 0.4 0.54 0.99 0.54 1.23 c 0 0.14 -0.07 0.32 -0.23 0.56 c -0.49 0.69 -0.59 1.63 -1.22 2.19 c -0.18 0.15 -0.27 0.18 -0.47 0.18 c -0.29 0 -0.59 -0.11 -0.85 -0.17" style="fill:#ec8db8"/></svg>