<svg xmlns="http://www.w3.org/2000/svg" viewBox="0 0 24 24"><path d="m 23.9 11.64 c -0.37 8.53 -6.15 14.96 -14.17 11.41 c -5.5 -2.43 -10.73 -5.11 -9.42 -11.41 c 1.31 -6.3 7.66 -11.41 14.17 -11.41 c 6.52 0 9.69 5.18 9.42 11.41" style="fill:#8b276f"/><path d="m 9.49 18.1 c -0.44 -0.26 -2.84 -2.93 -3.85 -4.28 c -0.31 -0.43 -0.35 -0.5 -0.35 -0.76 c 0 -0.17 0.04 -0.35 0.1 -0.45 c 0.05 -0.09 1.33 -1.51 2.84 -3.15 c 1.88 -2.06 2.8 -3 2.95 -3.09 c 0.18 -0.08 0.49 -0.09 2.45 -0.05 c 1.23 0.02 2.3 0.07 2.38 0.1 c 0.08 0.03 0.85 0.82 1.71 1.76 c 1.29 1.4 1.58 1.75 1.63 1.95 c 0.09 0.36 0.08 2.07 -0.02 2.32 c -0.16 0.43 -0.63 0.6 -1 0.36 c -0.16 -0.11 -0.33 -0.41 -0.33 -0.59 c 0 -0.23 -0.17 -0.24 -2.75 -0.19 c -1.38 0.03 -2.66 0.03 -2.84 0 c -0.64 -0.09 -0.91 -0.67 -0.56 -1.22 c 0.28 -0.44 1.34 -1.68 1.51 -1.76 c 0.37 -0.16 0.77 -0.02 0.92 0.33 c 0.13 0.29 0.12 0.45 -0.05 0.76 c -0.12 0.22 -0.13 0.29 -0.07 0.33 c 0.09 0.06 3.28 0.07 3.42 0.02 c 0.05 -0.02 0.09 -0.07 0.09 -0.11 c 0 -0.04 -0.51 -0.62 -1.13 -1.28 l -1.12 -1.21 h -3.73 l -2.34 2.53 c -1.56 1.68 -2.34 2.57 -2.34 2.66 c 0 0.17 0.94 1.29 2.12 2.53 l 0.95 1 h 3.41 l 0.64 -0.69 c 0.35 -0.38 0.64 -0.72 0.64 -0.77 c 0 -0.06 -0.51 -0.08 -2.41 -0.1 l -2.41 -0.02 l -0.2 -0.24 c -0.19 -0.22 -0.2 -0.26 -0.18 -0.54 c 0.03 -0.36 0.19 -0.57 0.49 -0.67 c 0.13 -0.04 1.36 -0.06 3.57 -0.05 l 3.36 0.02 l 0.19 0.23 c 0.24 0.29 0.27 0.64 0.07 0.96 c -0.17 0.26 -2.98 3.23 -3.16 3.33 c -0.11 0.06 -0.64 0.09 -2.27 0.11 c -2 0.02 -2.14 0.02 -2.32 -0.09" style="fill:#fff"/></svg>