<svg xmlns="http://www.w3.org/2000/svg" viewBox="0 0 24 24"><path d="m 1.15 15.92 c -7.91 -21.99 30.83 -20.55 21.1 0.73 c -3.55 8.66 -17 10.58 -21.1 -0.73" style="fill:#ff8c00"/><path d="m 5.54 6.27 h 12.89 v 10.18 h -12.89" style="fill:#fff"/><path d="m 6.17 6.88 h 11.66 v 8.99 h -11.66" style="fill:#2945d9"/><path d="m 12.54 9.79 c -0.37 -0.1 -2.22 -0.53 -3.05 -0.71 l -0.54 -0.12 l 3.13 -0.38 l 3 0.38 l -0.64 0.25 c -0.96 0.37 -1.51 0.6 -1.54 0.64 c -0.03 0.04 -0.01 0.04 -0.4 -0.06" style="fill:#9f78e5"/><path d="m 8.8 13.1 c 0.01 0.01 0.07 -4.14 0.1 -4.16 c 0.01 -0.01 3.51 0.78 4.06 0.96 c 0.1 1.63 0.2 2.63 0.4 4.59 c -1.86 -0.49 -1.98 -0.51 -4.57 -1.38" style="fill:#16ff2a"/><path d="m 11.76 14 v -2.2 c 0 -2.08 0 -2.2 0.07 -2.19 c 0.11 0.02 1.04 0.16 1.08 0.19 c 0.14 1.13 0.19 2.48 0.29 3.37 c 0.07 0.65 0.13 1.21 0.13 1.25 l -0.01 0.06 c -0.56 -0.18 -1.05 -0.32 -1.55 -0.48" style="fill:#fffb34"/><path d="m 13.19 13.1 c -0.07 -0.79 -0.15 -1.82 -0.19 -2.29 c -0.04 -0.47 -0.07 -0.88 -0.08 -0.89 c -0.01 -0.02 0.02 -0.05 0.06 -0.08 c 0.18 -0.09 2.14 -0.92 2.16 -0.91 c 0.02 0.01 0.09 3.37 0.09 4.07 v 0.49 l -0.2 0.11 c -0.11 0.06 -0.54 0.29 -0.95 0.52 c -0.41 0.23 -0.75 0.41 -0.75 0.41 c 0 0 -0.07 -0.64 -0.13 -1.43" style="fill:#df2876"/><path d="m 14.1 10.88 c -0.57 -0.48 -1.06 -0.91 -1.1 -0.95 l -0.07 -0.07 l 0.68 -0.29 c 0.96 -0.42 1.45 -0.61 1.46 -0.6 c 0.02 0.02 0.09 2.76 0.08 2.77 c -0.01 0 -0.48 -0.39 -1.04 -0.87" style="fill:#de2fd4"/><path d="m 8.93 8.95 c 0.04 -0.04 2.67 0.59 2.66 0.63 c -0.91 0.79 -1.82 1.59 -2.74 2.37 c 0.09 -0.84 -0.05 -1.91 0.08 -3" style="fill:#2afce5"/><g style="fill:#fff"><path d="m 14.9 17.92 c 0 0.48 -1.39 0.87 -3.12 0.87 c -1.72 0 -3.12 -0.39 -3.12 -0.87 c 0 -0.48 1.39 -0.86 3.12 -0.86 c 1.72 0 3.12 0.39 3.12 0.86"/><path d="m 11 16.25 h 1.73 v 1.17 h -1.73"/></g></svg>