<svg xmlns="http://www.w3.org/2000/svg" viewBox="0 0 24 24"><path d="m 11.2 23.87 c -2.46 -0.19 -5.25 -1.37 -7.13 -3 c -2.28 -2 -3.82 -5.06 -4 -8.1 c -0.23 -3.99 2.46 -8.28 5.25 -10.31 c 1.39 -0.99 3.21 -1.78 4.87 -2.13 c 4.32 -0.9 8.61 0.8 11.33 4.5 c 1.63 2.21 2.38 4.45 2.38 7.09 c 0 3.17 -1.54 6.56 -4 8.85 c -2.79 2.16 -5.57 3.32 -8.63 3.1" style="fill:#546a2f"/><path d="m 11.45 19.32 c -2.67 -0.46 -4.57 -1.84 -5.61 -4.08 c -1.5 -3.24 -0.3 -7.09 2.76 -8.88 l 0.74 -0.43 c 0.74 -0.16 1.86 0.39 0.97 0.74 c -0.82 0.26 -1.63 0.78 -2.34 1.48 c -0.6 0.6 -0.77 0.83 -1.09 1.49 c -0.45 0.94 -0.64 1.72 -0.64 2.69 c 0 1 0.18 1.75 0.61 2.63 c 0.6 1.21 1.41 2.04 2.61 2.66 c 0.85 0.44 1.63 0.62 2.68 0.62 c 2.7 -0.01 4.98 -1.77 5.66 -4.36 c 0.22 -0.82 0.23 -2.14 0.04 -2.95 c -0.45 -1.87 -2.08 -3.69 -3.75 -4.18 c -0.94 -0.72 0.5 -0.99 1.29 -0.55 c 3.53 1.96 4.76 6.21 2.78 9.59 c -0.46 0.78 -1.52 1.9 -2.26 2.4 c -1.29 0.61 -3.13 1.33 -4.46 1.14" style="fill:#ede7aa"/><path d="m 11.29 18.59 c -0.32 -0.12 -1 -0.83 -1.28 -1.32 c -0.3 -0.33 -0.52 -1.62 -0.96 -1.63 c -0.22 0 -0.63 0.2 -1.15 0.56 c -0.46 0.32 -0.69 0.34 -0.86 0.08 c -0.12 -0.17 -0.12 -0.2 0 -0.37 c 0.07 -0.1 0.48 -0.38 0.92 -0.61 c 1.14 -0.61 1.05 -0.47 0.98 -1.45 c -0.04 -0.46 -0.1 -0.87 -0.14 -0.91 c -0.05 -0.05 -0.7 -0.09 -1.56 -0.12 c -1.55 -0.04 -1.63 -0.06 -1.63 -0.39 c 0 -0.37 0 -0.37 1.64 -0.37 h 1.55 c 0.03 -0.58 0.27 -1.29 0.09 -1.84 c -0.32 -0.5 -1.91 -0.94 -1.95 -1.45 c 0 -0.15 0.25 -0.36 0.44 -0.36 c 0.09 0 0.45 0.19 0.8 0.42 c 0.67 0.44 0.89 0.5 1 0.29 c 0.25 -0.77 0.15 -1.59 0.52 -2.33 c 0.3 -0.57 0.25 -0.74 -0.25 -0.84 c -0.48 -0.1 -0.69 -0.56 -0.41 -0.9 c 0.12 -0.15 0.23 -0.21 0.41 -0.21 c 0.34 0 0.43 0.07 0.59 0.5 c 0.08 0.21 0.2 0.39 0.27 0.4 c 0.06 0.01 0.3 -0.07 0.53 -0.18 c 0.34 -0.17 0.55 -0.21 1.12 -0.24 c 0.67 -0.03 0.72 -0.02 1.16 0.21 c 0.57 0.3 0.76 0.28 0.85 -0.07 c 0.16 -0.6 0.73 -0.82 1.07 -0.4 c 0.28 0.35 0.08 0.76 -0.45 0.92 c -0.16 0.05 -0.36 0.14 -0.44 0.2 c -0.14 0.11 -0.14 0.13 0.09 0.48 c 0.28 0.43 0.36 0.73 0.47 1.64 c 0.09 0.7 0.18 0.97 0.35 0.97 c 0.34 -0.05 1.98 -1.45 2.07 -0.44 c 0 0.16 -0.49 0.5 -1.24 0.86 l -0.8 0.38 c 0.12 0.6 -0.05 1.34 0.18 1.9 c 0.64 0.18 2.84 -0.06 3.09 0.24 c 0.09 0.13 0.07 0.45 -0.04 0.56 c -1.09 0.08 -1.93 0.08 -3.1 0.11 c -0.02 0.59 -0.24 1.22 -0.17 1.82 c 0.02 0.06 0.45 0.32 0.95 0.59 c 0.98 0.52 1.19 0.72 1.05 0.98 c -0.15 0.27 -0.41 0.27 -0.87 -0.02 c -0.58 -0.36 -1.05 -0.59 -1.21 -0.59 c -0.1 0 -0.28 0.29 -0.65 1.05 c -0.76 1.54 -1.29 2 -2.33 1.99 c -0.28 0 -0.59 -0.04 -0.7 -0.08 m 0.27 -3.45 c -0.39 -0.01 -1.3 -0.09 -1.49 0.24 c -0.18 0.44 1.03 2.56 1.39 2.44 c 0.3 -0.85 0.15 -1.89 0.1 -2.68 m 1.34 2.52 c 0.24 -0.34 1.46 -2.04 1 -2.38 c -0.07 -0.05 -0.39 -0.12 -0.72 -0.15 c -0.82 -0.07 -0.81 -0.1 -0.81 1.36 c 0 0.66 0.02 1.23 0.05 1.27 c 0.08 0.12 0.25 0.08 0.48 -0.11 m 1.26 -3.16 c 0.24 -0.15 0.34 -1.55 0.12 -1.64 c -0.16 -0.06 -1.5 -0.06 -1.73 0 c -0.09 0.37 -0.08 1.27 0.03 1.48 c 0.17 0.07 0.93 0.18 1.35 0.21 c 0.07 0 0.16 -0.02 0.22 -0.05 m -2.63 -0.25 c 0.09 -0.5 0.07 -0.9 0.07 -1.43 h -1.97 l 0.04 0.7 c 0.06 0.99 0.05 0.97 0.67 0.97 c 0.42 -0.05 0.85 0.03 1.19 -0.24 m -0.02 -2.23 c 0.04 -0.04 0.1 -0.34 0.13 -0.66 c 0.07 -0.73 -0.03 -0.86 -0.71 -0.93 c -0.31 0.02 -0.9 -0.25 -1.14 -0.02 c -0.14 0.14 -0.24 0.9 -0.17 1.33 c 0.04 0.26 0.08 0.32 0.25 0.34 c 0.37 0.06 1.56 0.02 1.64 -0.06 m 2.84 -0.04 c 0.14 -0.14 0.1 -1.26 -0.06 -1.5 c -0.14 -0.21 -0.09 -0.21 -1.3 -0.02 c -0.6 0.1 -0.62 0.13 -0.61 0.83 c 0 0.59 0.05 0.74 0.27 0.78 c 0.32 0.07 1.62 0 1.71 -0.1 m -2.87 -2.26 c 0.1 -0.04 0.12 -0.2 0.12 -1 v -0.95 l -0.25 0.05 c -0.4 0.07 -0.86 0.43 -1.13 0.88 c -0.27 0.43 -0.33 0.79 -0.16 0.89 c 0.18 0.11 1.21 0.21 1.41 0.13 m 2.41 -0.11 c 0.26 -0.12 0.27 -0.3 0 -0.81 c -0.22 -0.44 -0.63 -0.81 -1.03 -0.94 c -0.43 -0.14 -0.49 -0.01 -0.49 0.95 c 0 0.45 0.02 0.85 0.05 0.9 c 0.07 0.11 1.16 0.03 1.46 -0.1 m -2.68 -2.39 c 0.53 -0.14 1 -0.14 1.6 0 c 0.91 0.21 1.02 0.11 0.57 -0.54 c -0.3 -0.44 -0.61 -0.63 -1.14 -0.69 c -0.78 -0.09 -1.28 0.16 -1.7 0.86 c -0.23 0.38 -0.2 0.6 0.07 0.53 c 0.21 -0.05 0.42 -0.11 0.6 -0.16" style="fill:#ff4500"/></svg>