<svg xmlns="http://www.w3.org/2000/svg" viewBox="0 0 24 24"><path d="m 19.9 19.93 c 12.18 -9.75 -5.65 -27.32 -16.43 -16.1 c -10.8 9.67 6.1 28.43 16.43 16.1" style="fill:#214d72"/><path d="m 19.34 12.2 c 0 4.07 -3.33 7.36 -7.44 7.36 c -4.11 0 -7.44 -3.3 -7.44 -7.36 c 0 -4.07 3.33 -7.36 7.44 -7.36 c 4.11 0 7.44 3.3 7.44 7.36" style="fill:#445475"/><g style="fill:#a2aab9"><path d="m 4.63 12.66 c 0 0.51 0.41 0.92 0.93 0.92 c 0.34 0 0.64 -0.19 0.8 -0.46 h 0.9 v 0.31 h 2.48 v -0.31 h 0.47 l 1.08 1.07 v 5.34 c 0.21 0.02 0.41 0.03 0.62 0.03 c 0.11 0 0.21 0 0.31 -0.01 v -5.67 l -1.71 -1.69 h -0.77 v -0.31 h -2.48 v 0.31 h -0.9 c -0.16 -0.27 -0.46 -0.46 -0.8 -0.46 c -0.51 0 -0.93 0.41 -0.93 0.92"/><path d="m 7.25 8.82 v 0.31 h -2.11 c -0.14 0.3 -0.26 0.61 -0.35 0.92 h 2.46 v 0.31 h 2.48 v -1.54 h -2.48"/><path d="m 9.73 7.29 h -2.48 v -0.84 c 0.52 -0.41 1.09 -0.75 1.71 -1.01 v 0.32 h 0.77 v 1.54"/><path d="m 6.18 14.65 l -0.31 0.31 h -0.85 c 0.88 2.14 2.74 3.79 5 4.36 v -3.91 l -0.46 -0.46 h -2.17 l -0.31 -0.31 h -0.93"/><path d="m 12.99 13.1 l -1.71 -1.69 v -2.41 c -0.36 -0.17 -0.62 -0.54 -0.62 -0.97 c 0 -0.43 0.25 -0.8 0.62 -0.97 v -2.22 c 0.21 -0.02 0.41 -0.03 0.62 -0.03 c 0.11 0 0.21 0 0.31 0.01 v 2.24 c 0.36 0.17 0.62 0.54 0.62 0.97 c 0 0.43 -0.25 0.8 -0.62 0.97 v 2.1 l 1.08 1.07 h 0.16 v -0.31 h 2.48 v 0.31 h 3.41 c 0 0.31 -0.02 0.62 -0.06 0.92 h -3.35 v 0.31 h -2.48 v -0.31 h -0.46"/><path d="m 13.46 7.29 v -1.54 h 2.05 c 0.14 0.08 0.29 0.16 0.42 0.25 c 0.03 0.02 0.06 0.04 0.09 0.05 c 0.41 0.27 0.79 0.58 1.14 0.92 h -1.22 v 0.31 h -2.48"/><path d="m 15.93 8.82 v 0.31 h 2.74 c 0.14 0.3 0.25 0.61 0.35 0.92 h -3.09 v 0.31 h -2.48 v -1.54 h 2.48"/><path d="m 13.92 14.35 l -0.47 0.46 v 4.59 c 2.76 -0.58 4.96 -2.67 5.65 -5.36 h -2.55 l -0.31 0.31 h -2.32"/></g></svg>