<svg xmlns="http://www.w3.org/2000/svg" viewBox="0 0 24 24" xmlns:xlink="http://www.w3.org/1999/xlink"><defs><linearGradient id="0" gradientUnits="userSpaceOnUse" y1="1046.2" x2="0" y2="963" gradientTransform="matrix(0.142 0 0 0.138 5 -125.9)"><stop style="stop-color:#dfe3dd"/><stop offset="1" style="stop-color:#dfe2de"/></linearGradient><linearGradient id="4" gradientUnits="userSpaceOnUse" y1="37.68" x2="0" y2="32.36" gradientTransform="matrix(0.051 0 0 0.045 0.96 10.29)"><stop style="stop-color:#f36262"/><stop offset="1" style="stop-color:#d55f5c;stop-opacity:0"/></linearGradient><radialGradient id="5" gradientUnits="userSpaceOnUse" cx="113.5" cy="-61.5" r="15" gradientTransform="matrix(0.103 0 0 0.11 4.78 15)" xlink:href="#1"/><radialGradient id="3" gradientUnits="userSpaceOnUse" cx="233" cy="-56" r="36.5" gradientTransform="matrix(0 -0.094 0.073 0 20.46 30.99)"><stop style="stop-color:#ff5454;stop-opacity:0"/><stop offset="0.94" style="stop-color:#f47676;stop-opacity:0"/><stop offset="0.97" style="stop-color:#f47777;stop-opacity:0.5"/><stop offset="1" style="stop-color:#f47979"/></radialGradient><radialGradient id="1" gradientUnits="userSpaceOnUse" cx="113.5" cy="-61.5" r="15" gradientTransform="matrix(0.137 0 0 0.142 0.91 16.98)"><stop style="stop-color:#fd3e3e"/><stop offset="1" style="stop-color:#d11111"/></radialGradient><radialGradient id="2" gradientUnits="userSpaceOnUse" cx="108.6" cy="-49.4" r="15" gradientTransform="matrix(0.179 0 0 0.27 -3.58 23)"><stop style="stop-color:#f46a6a"/><stop offset="1" style="stop-color:#ea1212"/></radialGradient></defs><path d="m 19.65 2.79 c -14.4 -11.1 -29.33 16.51 -11.52 20.55 c 11.22 4.14 22.2 -12.34 11.52 -20.55" style="fill:#707f8f"/><path d="m 6.81 6.52 h 10 c 0.52 0 0.94 0.42 0.94 0.94 v 9.68 c 0 0.52 -0.42 0.94 -0.94 0.94 h -10 c -0.52 0 -0.94 -0.42 -0.94 -0.94 v -9.68 c 0 -0.52 0.42 -0.94 0.94 -0.94" style="fill:url(#0)"/><g style="fill:#a8a8a8"><path d="m 12.79 11.48 h 2.05 v 1.93 h -2.05"/><path d="m 12.86 15.4 h 1.7 v 2.13 h -1.7"/></g><path d="m 11.83 14.54 h -1.06 v 3.45 h 1.06" style="fill:#f8cf25"/><g style="fill:#a8a8a8"><path d="m 8.89 6.95 h 3.4 v 6.46 h -3.4"/><path d="m 12.79 6.95 h 2.05 v 3.99 h -2.05"/></g><g style="fill:#f8cf25"><path d="m 14.98 14.89 v -1.03 h -9.1 v 1.03"/><path d="m 8.39 6.6 h -1.06 v 7.39 h 1.06"/></g><path d="m 18.63 7.64 c 0 2.06 -1.62 4.62 -2.27 4.62 c -0.64 0 -2.27 -2.55 -2.27 -4.62 c 0 -1.17 1.02 -2.13 2.27 -2.13 c 1.25 0 2.27 0.95 2.27 2.13" style="fill:url(#1)"/><path d="m 18.49 7.69 c 0 1.98 -1.52 4.43 -2.12 4.43 c -0.61 0 -2.12 -2.45 -2.12 -4.43 c 0 -1.13 0.95 -2.04 2.12 -2.04 c 1.17 0 2.12 0.91 2.12 2.04" style="fill:url(#2)"/><path d="m 16.37 5.66 c -1.18 0 -2.12 0.91 -2.12 2.04 c 0 1.98 1.52 4.43 2.12 4.43 c 0.61 0 2.12 -2.45 2.12 -4.43 c 0 -1.13 -0.95 -2.04 -2.12 -2.04 m 0 0.2 c 1.13 0 2.04 0.85 2.04 1.9 c 0 1.85 -1.46 4.14 -2.04 4.14 c -0.59 0 -2.04 -2.29 -2.04 -4.14 c 0 -1.05 0.91 -1.9 2.04 -1.9" style="fill:url(#3)"/><path d="m 15 10.46 c 0.43 0.93 1.04 1.65 1.35 1.65 c 0.32 0 0.92 -0.72 1.35 -1.65" style="fill:url(#4)"/><path d="m 18.1 7.73 c 0 0.91 -0.76 1.65 -1.7 1.65 c -0.94 0 -1.7 -0.74 -1.7 -1.65 c 0 -0.91 0.76 -1.65 1.7 -1.65 c 0.94 0 1.7 0.74 1.7 1.65" style="fill:url(#5)"/><path d="m 16.36 6.52 c 0.3 0 0.55 0.28 0.55 0.62 v 1.11 c 0 0.34 -0.25 0.62 -0.55 0.62 c -0.3 0 -0.55 -0.28 -0.55 -0.62 v -1.11 c 0 -0.34 0.25 -0.62 0.55 -0.62" style="fill:#fff"/></svg>