<svg xmlns="http://www.w3.org/2000/svg" viewBox="0 0 24 24"><path d="m 22.25 5.83 c -18.1 -21.1 -35.57 22.31 -7.53 17.85 c 6.15 -0.98 12.41 -12.15 7.53 -17.85" style="fill:#2d496e"/><g style="fill:#fff"><path d="m 4.9 14.82 c -0.05 -0.04 -0.2 -0.14 -0.34 -0.22 c -0.3 -0.18 -0.71 -0.6 -0.83 -0.86 c -0.08 -0.18 -0.09 -0.25 -0.08 -0.71 c 0.01 -0.53 0.07 -0.92 0.19 -1.11 c 0.42 -0.67 1.27 -1.05 1.94 -0.87 c 0.53 0.14 1.13 0.58 1.24 0.9 c 0.04 0.11 0.03 0.14 -0.05 0.19 c -0.13 0.09 -0.56 0.17 -0.64 0.13 c -0.04 -0.02 -0.19 -0.2 -0.34 -0.39 c -0.15 -0.2 -0.32 -0.38 -0.39 -0.41 c -0.27 -0.13 -0.6 0.1 -0.83 0.6 c -0.12 0.25 -0.14 0.34 -0.15 0.67 c -0.02 0.42 0.05 0.79 0.2 1.16 c 0.25 0.58 0.61 0.73 0.97 0.41 c 0.26 -0.24 0.49 -0.92 0.38 -1.14 c -0.04 -0.09 -0.07 -0.09 -0.45 -0.07 c -0.5 0.02 -0.62 -0.01 -0.4 -0.11 c 0.33 -0.15 1.41 -0.38 1.71 -0.36 c 0.13 0.01 0.18 0.04 0.23 0.13 c 0.12 0.21 -0.07 0.88 -0.36 1.3 c -0.16 0.23 -0.48 0.52 -0.68 0.61 c -0.46 0.21 -1.13 0.29 -1.32 0.14"/><path d="m 7.16 14.48 c -0.07 -0.02 -0.14 -0.04 -0.16 -0.05 c -0.01 -0.01 0.04 -0.09 0.12 -0.18 c 0.3 -0.35 0.44 -0.82 0.44 -1.5 c 0.05 -0.44 -0.13 -0.77 -0.33 -1.08 c -0.13 -0.21 -0.24 -0.39 -0.24 -0.41 c 0 -0.22 2.59 -0.43 3.42 -0.27 c 0.48 0.09 0.75 0.35 0.75 0.73 c 0 0.54 -0.61 0.94 -1.83 1.2 c -0.63 0.13 -0.7 0.16 -0.7 0.28 c 0.05 0.45 0.29 0.86 0.27 1.3 c -0.07 0.04 -1.57 0.04 -1.75 -0.01 m 2.14 -2 c 0.63 -0.31 0.86 -0.54 0.8 -0.78 c -0.03 -0.12 -0.28 -0.28 -0.61 -0.38 c -0.39 -0.12 -1.63 -0.08 -1.63 0.05 c 0 0.01 0.05 0.15 0.11 0.3 c 0.15 0.39 0.41 0.88 0.51 0.95 c 0.33 0.1 0.6 -0.04 0.81 -0.14"/><path d="m 15 12.74 l -0.18 -0.13 c -0.39 0.07 -1.66 0.04 -1.87 0.07 c -0.06 0.07 -0.07 0.18 -0.08 0.95 l -0.02 0.88 c -0.84 -0.11 -1.64 0.11 -2.36 -0.06 l 0.2 -0.36 c 0.61 -1.06 0.89 -1.99 1.12 -3.77 c 0.13 -0.98 0.15 -1.08 0.26 -1.11 c 0.17 -0.05 1.27 0.07 2.11 0.23 c 1.46 0.27 3.25 1.01 3.95 1.64 c 0.38 0.25 -0.11 0.57 -0.23 0.86 c -0.15 0.36 -0.12 0.34 -0.93 0.48 c -0.29 0.05 -0.55 0.11 -0.59 0.13 c -0.1 0.06 -0.04 0.12 0.33 0.36 c 0.17 0.11 0.48 0.31 0.69 0.45 c 0.49 0.34 0.71 0.76 0.99 1.19 c -0.63 0 -1.11 0.02 -1.89 -0.02 c -0.81 -0.53 -0.57 -1.1 -1.49 -1.8 m -1.31 -0.48 c 1.72 -0.26 2.95 -0.74 2.85 -1.11 c -0.08 -0.29 -0.84 -0.77 -1.73 -1.09 c -0.96 -0.35 -1.98 -0.52 -2.15 -0.37 c -0.09 0.08 -0.09 0.15 0.04 1.06 c 0.15 1.18 0.21 1.47 0.29 1.54 c 0.09 0.06 0.05 0.07 0.71 -0.04"/><path d="m 18.34 14.1 c -0.37 -0.81 -0.25 -1.07 -0.25 -1.98 c 0.36 -0.72 0.43 -0.67 0.93 -0.91 c 0.4 -0.2 0.66 -0.25 1.02 -0.23 c 0.78 0.06 1.32 0.52 1.61 1.39 c 0.1 0.28 0.1 0.33 0.07 0.59 c -0.05 0.33 -0.23 0.73 -0.44 0.99 c -0.08 0.1 -0.3 0.27 -0.48 0.38 c -0.39 0.25 -1.42 0.92 -2.46 -0.23 m 2.14 -0.31 c 0.44 -0.84 0.17 -2.22 -0.46 -2.41 c -0.48 -0.14 -0.97 0.53 -0.97 1.35 c 0 0.74 0.29 1.39 0.67 1.5 c 0.35 0.07 0.63 -0.2 0.76 -0.44"/></g><g style="fill:#fbfb00"><path d="m 21.24 11.27 c -0.43 -0.41 -0.5 -0.61 -0.37 -1.09 c 0.05 -0.17 0.21 -0.26 0.74 -0.41 c 0.99 -0.27 1.45 -0.32 1.45 -0.15 c 0 0.08 -0.17 0.22 -0.38 0.32 c -0.63 0.31 -0.89 0.64 -0.95 1.21 l -0.05 0.5"/><path d="m 1.64 14.73 c -0.65 -0.05 -0.73 -0.07 -0.77 -0.25 c -0.04 -0.18 0.09 -0.44 0.34 -0.65 c 0.5 -0.43 2.16 -1.45 2.23 -1.36 c 0.02 0.02 -0.11 0.53 -0.42 0.77 c -0.68 0.54 -1.26 0.68 -1.35 0.88 c -0.07 0.14 0.02 0.04 0.13 0.11 c 0.44 0.06 1.96 -0.11 2.05 -0.04 c 0.05 0.06 0.18 0.19 0.29 0.29 c 0.19 0.18 0.2 0.19 0.1 0.21 c -0.2 0.05 -2 0.08 -2.59 0.04"/><path d="m 9.14 10.7 v -0.43 c 0 -0.57 0.48 -1.13 1.15 -1.34 c 0.39 -0.13 0.78 -0.03 1.11 0.27 c 0.39 0.24 0.32 1.17 0.18 1.45 c -0.86 -0.03 -1.57 0.05 -2.45 0.04 m 1.92 -0.69 c 0.5 -0.41 -0.24 -0.84 -0.56 -0.84 c -0.4 0 -0.55 0.18 -0.3 0.36 c 0.11 0.08 0.11 0.09 0 0.21 c -0.22 0.26 -0.14 0.34 0.3 0.34 c 0.22 0 0.48 -0.03 0.57 -0.07"/></g><g style="fill:#fff"><path d="m 1.77 7.42 c 0 -0.04 0.21 -0.45 0.48 -0.89 c 1.52 -2.6 3.42 -4.41 5.77 -5.51 c 3.31 -1.55 6.67 -1.13 10.23 1.3 c 1.2 0.82 3.67 3.13 4.32 4.05 l 0.32 0.45 l -1.49 0.03 c -3.69 0.07 -3.94 0.02 -6.13 -1.24 c -1.84 -1.06 -1.86 -1.06 -2.82 -1.05 c -0.88 0.01 -1.17 0.1 -3.24 0.98 c -2.71 1.16 -4.3 1.68 -5.43 1.77 c -0.46 0.04 -1.11 0.1 -1.43 0.13 c -0.32 0.03 -0.59 0.03 -0.59 -0.02"/><path d="m 8.66 23.78 c -1.28 -0.17 -2.5 -0.54 -3.72 -1.13 c -0.94 -0.45 -1.39 -0.78 -2.23 -1.63 c -0.96 -0.96 -1.91 -2.42 -1.91 -2.91 c 0 -0.23 2.66 -0.02 3.38 0.26 c 0.3 0.12 1.27 0.66 2.14 1.19 c 1.54 0.95 1.61 0.97 2.48 0.97 c 0.8 0 1.18 -0.11 3.52 -1.07 c 3.7 -1.5 4.42 -1.67 7.1 -1.6 c 1.16 0.03 2.15 0.1 2.2 0.15 c 0.14 0.14 -1.14 1.86 -2.07 2.8 c -1 1.01 -2.3 1.91 -3.41 2.36 c -1.48 0.6 -5.19 0.9 -7.43 0.6"/></g><path d="m 2.29 20.53 l -0.1 -0.13 c 0.77 -0.06 1.51 -0.02 2.06 0.02 c 0.31 0.02 0.4 0.01 0.4 -0.02 c 0 -0.02 -0.29 -0.34 -0.64 -0.7 c -0.67 -0.68 -1.04 -1.14 -1.05 -1.31 c 0 -0.09 0.01 -0.1 0.11 -0.11 c 1.69 0.16 2.33 0.75 3.5 1.77 c 0.68 0.75 0.69 0.36 0.82 0.57 c -0.02 0.25 -0.46 0.41 -0.68 0.32 c -0.7 -0.29 -1.53 -0.49 -1.63 -0.39 c 0.21 0.76 1.24 1.14 1.31 1.93 c 0 0.08 0.15 0.37 0.04 0.39 c -0.48 0.03 -1.03 -0.25 -1.53 -0.25 c -1.01 -0.55 -2 -1.35 -2.62 -2.09"/><path d="m 8.79 23.78 c -0.65 -0.07 -2.17 -0.43 -2.23 -0.52 c -0.02 -0.02 -0.03 -0.09 -0.03 -0.16 c 0 -0.11 0 -0.11 0.11 -0.09 c 0.19 0.04 2.23 0.07 2.31 0.03 c 0.07 -0.03 0.06 -0.05 -0.3 -0.49 c -0.63 -0.77 -1.04 -1.41 -1.11 -1.73 c -0.02 -0.08 -0.01 -0.13 0.06 -0.2 l 0.08 -0.09 c 0.75 0.08 1.37 0.1 2.11 0.13 l 0.32 0.36 c 0.5 0.54 1.43 1.45 1.49 1.45 c 0.16 0 2.24 -0.89 2.24 -0.96 c 0 -0.01 -0.18 -0.21 -0.39 -0.45 c -0.82 -0.88 -1.14 -1.28 -1.14 -1.42 c 0 -0.11 0.12 -0.17 0.84 -0.46 c 1.31 -0.52 1.98 -0.75 2.2 -0.75 c 0.47 0.09 1.83 1.65 1.92 1.95 c 0 0.06 -0.17 0.14 -0.46 0.22 c -0.62 0.16 -2.51 0.88 -2.51 0.95 c 0.4 0.5 0.84 1.04 1.16 1.61 c 0.27 0.43 -2.72 0.73 -2.97 0.62 c -0.26 -0.3 -0.37 -0.68 -0.7 -0.92 c -0.65 -0.09 -2.12 -0.18 -2.64 0.18 c -0.09 0.25 -0.03 0.41 0.04 0.73 c -0.23 0.13 -0.02 0.08 -0.39 0.04"/><path d="m 17.48 20.36 c 0 -0.04 0.18 -0.09 0.53 -0.15 c 0.65 -0.11 2.14 -0.2 2.14 -0.13 c 0 0.09 -1.58 1.62 -1.68 1.61 c -0.3 -0.46 -0.73 -0.94 -0.99 -1.34"/><path d="m 18.85 17.98 c 0.49 -0.06 1.99 0.04 2.69 0.09 c -0.15 0.51 -0.87 1.37 -1.3 1.81 c -0.29 -0.51 -1.32 -1.24 -1.39 -1.9"/><path d="m 5.85 6.58 c -0.47 -0.55 -2.07 -1.59 -2.26 -2.07 c 0 -0.05 0.78 0.02 1.25 -0.13 c 0.57 -0.18 1.48 -0.54 1.89 -0.74 c 0.23 -0.11 0.32 -0.17 0.32 -0.21 c 0 -0.08 -0.09 -0.2 -0.36 -0.48 c -0.29 -0.3 -0.62 -0.75 -0.58 -0.78 c 0.7 -0.39 1.54 -1.17 2.33 -1.3 c 0.02 0 0.33 0.32 0.69 0.71 l 0.66 0.71 l 0.2 -0.05 c 0.63 -0.03 1.03 -0.13 1.61 -0.38 c 0.37 -0.16 0.69 -0.3 0.71 -0.3 c 0.02 -0.01 0.04 0 0.04 0.04 c 0 0.16 0.34 0.71 0.73 1.18 c 0.14 0.16 0.28 0.34 0.31 0.39 c 1.27 0.69 0.79 1 -0.41 1.29 c -0.54 -0.11 -0.86 -0.09 -1.25 -0.03 l -0.13 -0.15 c -0.32 -0.38 -0.96 -1.05 -1.27 -1.32 c -0.36 -0.32 -0.52 -0.42 -0.64 -0.42 c -0.14 0 -1.93 0.81 -2.04 0.92 c -0.05 0.05 0.07 0.23 0.53 0.7 c 0.5 0.54 0.91 1.04 0.94 1.17 c 0.02 0.07 0 0.11 -0.06 0.16 c -0.2 0.16 -0.93 0.48 -1.87 0.82 c -0.95 0.34 -1.12 0.38 -1.34 0.27"/><path d="m 12.41 1.52 c -0.24 -0.44 -0.63 -0.9 -0.68 -1.38 c 0.11 -0.04 1.18 0.03 1.61 0.1 c 0.73 0.12 0.66 0.06 0.96 0.77 c 0.3 0.71 0.67 1.14 0.64 1.17 c -0.79 0.15 -1.88 -0.48 -2.53 -0.66"/><path d="m 17.75 6.67 c -0.61 -0.14 -1.57 -0.56 -1.93 -0.81 c -0.48 -1.02 -0.41 -0.99 -1.54 -2.06 c 0.02 0 0.23 0.07 0.48 0.16 c 0.54 0.2 1.04 0.34 1.36 0.36 c 0.21 0.02 0.23 0.02 0.23 -0.05 c -0.16 -0.52 -1.31 -1.28 -1.37 -1.92 c 0 -0.03 0.04 -0.06 0.08 -0.07 c 0.95 -0.03 1.96 -0.05 2.86 -0.16 c 0.64 0.54 1.73 1.27 2.36 1.98 c -0.57 0.37 -1.7 0.32 -2.16 0.32 c -0.69 0.02 -1.25 0.05 -1.28 0.07 c -0.05 0.03 0.02 0.11 0.51 0.59 c 0.56 0.54 1.09 1.41 1.13 1.55 c 0.06 0.18 -0.21 0.15 -0.73 0.03"/><path d="m 21.1 6.53 c -0.28 -0.76 -0.71 -1.28 -0.73 -2.3 c 0.78 0.74 1.77 1.64 2.37 2.51 c -0.67 0 -1.17 0.1 -1.64 -0.21"/></svg>