<svg xmlns="http://www.w3.org/2000/svg" viewBox="0 0 24 24"><path d="m 12.1 0.09 c 16.2 -1.82 15.94 24.2 -0.29 23.89 c -15.1 0.86 -16.46 -25.3 0.29 -23.89" style="fill:#6f6063"/><path d="m 5.43 6.44 h 1.86 c 0.03 0 0.05 0.03 0.05 0.06 v 10.85 c 0 0.03 -0.02 0.06 -0.05 0.06 h -1.86 c -0.03 0 -0.05 -0.03 -0.05 -0.06 v -10.85 c 0 -0.03 0.02 -0.06 0.05 -0.06" style="fill:#8eb7f1"/><path d="m 7.52 6.37 h 1.86 c 0.03 0 0.05 0.02 0.05 0.06 v 10.93 c 0 0.04 -0.02 0.06 -0.05 0.06 h -1.86 c -0.03 0 -0.05 -0.02 -0.05 -0.06 v -10.93 c 0 -0.04 0.02 -0.06 0.05 -0.06" style="fill:#7fe0b0"/><path d="m 9.61 6.3 h 1.86 c 0.03 0 0.05 0.03 0.05 0.06 v 11 c 0 0.03 -0.02 0.06 -0.05 0.06 h -1.86 c -0.03 0 -0.05 -0.03 -0.05 -0.06 v -11 c 0 -0.03 0.02 -0.06 0.05 -0.06" style="fill:#f4ec88"/><path d="m 11.7 6.19 h 1.86 c 0.03 0 0.05 0.03 0.05 0.06 v 11.1 c 0 0.03 -0.02 0.06 -0.05 0.06 h -1.86 c -0.03 0 -0.05 -0.03 -0.05 -0.06 v -11.1 c 0 -0.03 0.02 -0.06 0.05 -0.06" style="fill:#f49ea2"/><path d="m 13.75 6.27 h 4.7 c 0.03 0 0.05 0.03 0.05 0.06 v 11 c 0 0.03 -0.02 0.06 -0.05 0.06 h -4.7 c -0.03 0 -0.05 -0.03 -0.05 -0.06 v -11 c 0 -0.03 0.02 -0.06 0.05 -0.06" style="fill:#fff"/><path d="m 18.46 6.22 v 2.07 c 0 0.03 -0.02 0.05 -0.06 0.05 h -12.97 c -0.03 0 -0.06 -0.02 -0.06 -0.05 v -2.07 c 0 -0.03 0.03 -0.05 0.06 -0.05 h 12.97 c 0.04 0 0.06 0.02 0.06 0.05" style="fill:#d0d0d0"/><path d="m 17.82 7.31 c 0 0.38 -0.31 0.69 -0.7 0.69 c -0.39 0 -0.7 -0.31 -0.7 -0.69 c 0 -0.38 0.31 -0.69 0.7 -0.69 c 0.39 0 0.7 0.31 0.7 0.69" style="fill:#929292"/></svg>