<svg xmlns="http://www.w3.org/2000/svg" viewBox="0 0 24 24"><path d="m 6.11 2.75 c 5.54 -5.48 10.66 -1.47 14.86 2.89 c 3.43 3.55 3.58 6.84 1.31 10.33 c -5.93 9.11 -13.61 12.49 -21.68 -1.64 c -1.99 -4.66 2.2 -9 5.5 -11.58" style="fill:#f4f4f4"/><path d="m 10.1 19.99 c -1.43 -1.42 -1.63 -1.66 -1.54 -1.83 c 0.09 -0.16 -0.03 -0.32 -0.86 -1.13 c -0.81 -0.8 -0.95 -0.98 -0.9 -1.18 c 0.05 -0.21 -0.08 -0.39 -0.88 -1.18 c -0.52 -0.52 -0.89 -0.93 -0.82 -0.91 c 0.07 0.02 1.58 1.45 3.37 3.18 c 1.79 1.73 3.31 3.16 3.39 3.17 c 0.08 0.02 1.58 -1.41 3.34 -3.17 c 1.76 -1.76 3.27 -3.2 3.36 -3.2 c 0.09 0 -0.23 0.39 -0.77 0.93 c -0.68 0.67 -0.93 0.99 -0.93 1.18 c 0 0.18 -0.25 0.49 -0.91 1.14 c -0.8 0.79 -0.91 0.93 -0.85 1.16 c 0.05 0.24 -0.1 0.43 -1.53 1.87 c -0.88 0.88 -1.64 1.6 -1.7 1.6 c -0.07 0 -0.86 -0.73 -1.76 -1.64" style="fill:#222"/><path d="m 8.89 15.95 c 0 -0.05 -0.19 -0.55 -0.41 -1.13 c -0.43 -1.07 -0.5 -1.26 -0.43 -1.26 c 0.02 0 0.09 0.06 0.16 0.13 c 0.34 0.37 0.78 1.05 1.54 2.46 c 0.29 0.54 0.61 1.1 0.7 1.25 c 0.09 0.15 0.03 0.27 0.03 0.28 c -0.46 -0.55 -1.3 -1.08 -1.58 -1.73" style="fill:#008e00"/><path d="m 10.16 17.8 c -0.97 -0.93 -2.79 -2.72 -4 -3.96 l -2.27 -2.27 l 2.97 -2.97 c 1.63 -1.64 3.43 -3.41 4 -3.95 l 1.03 -0.98 l 0.2 0.14 c 0.11 0.08 1.88 1.82 3.94 3.86 c 3.54 3.52 3.73 3.72 3.67 3.87 c -0.18 0.37 -5.74 6.16 -7.2 7.48 l -0.54 0.49 m 0.77 -1.09 c 1.86 -1.97 4.6 -4.25 6.61 -6.75 l 0.14 -0.2 l -0.27 -0.34 c -2.03 -2.07 -3.94 -3.93 -5.66 -5.63 l -1.62 -1.6 l -0.7 0.65 c -0.38 0.36 -2.13 2.07 -3.87 3.8 l -3.18 3.15 l 0.27 0.3 c 0.3 0.34 2.3 2.27 3.46 3.34 c 0.42 0.38 1.2 1.2 1.87 1.85 c 0.66 0.72 1.46 1.45 2.18 2.03 c 0 0.11 0.45 -0.27 0.75 -0.61"/><path d="m 11.16 18.25 c -0.09 -0.39 -0.9 -2.66 -1.46 -3.98 c -0.38 -0.87 -0.71 -1.52 -1.05 -2.04 c -0.37 -0.57 -0.52 -0.84 -0.5 -0.89 c 0.02 -0.07 0.65 0.59 0.95 1 c 0.51 0.7 1.25 2.04 1.73 3.16 c 0.14 0.32 0.27 0.57 0.3 0.57 c 0.06 -0.04 0.02 -0.65 -0.06 -0.98 c -0.1 -0.39 -0.24 -0.65 -0.8 -1.53 c -0.63 -0.99 -0.9 -1.45 -1.4 -2.39 c -0.61 -1.15 -0.87 -1.84 -0.66 -1.8 c 0.12 0.02 0.43 0.43 1.43 1.87 c 0.53 0.75 1 1.42 1.05 1.47 l 0.09 0.1 l -0.03 -0.45 c -0.08 -1.53 -0.07 -2.28 0.04 -2.28 c 0.1 0 0.21 0.59 0.51 2.77 c 0.14 1 0.27 1.43 0.44 1.43 c 0.06 0 0.12 -0.28 0.23 -1.11 c 0.13 -0.98 0.18 -1.93 0.14 -2.93 c -0.04 -0.99 -0.09 -1.34 -0.29 -1.92 c -0.21 -0.64 -0.32 -1.09 -0.38 -1.7 c -0.05 -0.52 -0.02 -0.75 0.12 -0.88 c 0.21 -0.21 0.61 0.29 0.89 1.13 c 0.27 0.8 0.28 0.89 0.18 1.88 c -0.13 1.21 -0.13 1.17 -0.21 2.5 c -0.12 1.76 -0.14 2.21 -0.11 2.26 c 0.02 0.03 0.08 -0.02 0.17 -0.13 c 0.19 -0.24 1.29 -1.86 1.53 -2.25 c 0.15 -0.24 0.22 -0.32 0.36 -0.38 c 0.21 -0.09 0.27 -0.19 0.39 -0.59 c 0.09 -0.32 0.43 -2.08 0.43 -2.25 c 0 -0.1 0.02 -0.22 0.13 -0.09 c 0.11 0.13 0.1 0.26 0.09 0.76 l -0.05 0.7 l 0.14 -0.39 c 0.04 -0.12 0.11 -0.27 0.13 -0.34 c 0.05 -0.26 0.09 -0.35 0.25 -0.2 c 0.15 0.14 0.11 0.23 0.09 0.49 c -0.03 0.31 -0.17 0.72 -0.42 1.2 c -0.4 0.78 -0.54 1.26 -0.96 3.27 c -0.29 1.4 -0.41 2.13 -0.37 2.19 c 0.04 0.06 0.08 -0.03 0.35 -0.8 c 0.14 -0.39 0.31 -0.84 0.38 -1 c 0.12 -0.25 0.14 -0.27 0.17 -0.19 c 0.08 0.2 -0.22 0.97 -0.41 2.54 l -0.05 0.45 c -0.57 0.46 -1 1.19 -1.59 1.54 c -0.05 -0.2 -0.22 -0.37 -0.34 -0.6 c -0.33 -0.66 -0.45 -0.75 -0.57 -0.47 c -0.09 0.2 -0.12 0.98 -0.06 1.42 c 0.05 0.35 0 0.55 -0.16 0.63 c -0.26 -0.31 -0.69 -0.56 -0.74 -0.78 m 2.08 -1.62 c 0.07 -0.13 0.73 -3.22 0.7 -3.26 c -0.04 -0.04 -0.18 0.2 -0.52 0.83 c -0.49 0.9 -0.72 1.43 -0.72 1.64 c 0 0.24 0.34 0.87 0.46 0.87 c 0.02 0 0.05 -0.04 0.08 -0.08" style="fill:#008e00"/></svg>