<svg xmlns="http://www.w3.org/2000/svg" viewBox="0 0 24 24"><path d="m 21.29 4.42 c 5.86 8.89 1.13 17 -5.5 18.93 c -8.93 2.59 -21 -4.21 -13.1 -18.22 c 3.17 -5.57 14.38 -7 18.55 -0.71" style="fill:#d0ede4"/><path d="m 8 10.14 c -0.13 -1 -0.09 -1.75 -0.09 -2.81 l 0.38 -0.52 c 0.45 -0.61 0.84 -0.97 1.3 -1.21 c 0.3 -0.16 0.49 -0.17 2.45 -0.17 c 1.89 0 2.16 0.02 2.47 0.16 c 0.47 0.22 1 0.72 1.36 1.29 l 0.3 0.47 c 0 0.97 0 1.94 0 2.91 c -0.3 0.17 -1.09 0.2 -1.43 -0.05 c -0.08 -0.07 -0.12 -0.3 -0.12 -0.8 c 0 -1.04 -0.17 -1.54 -0.72 -2.08 l -0.45 -0.45 c -0.93 0 -1.85 0 -2.78 0 l -0.43 0.41 c -0.55 0.53 -0.66 0.81 -0.74 1.92 c -0.04 0.51 -0.09 0.96 -0.12 1 c -0.3 0.1 -1.24 0.14 -1.38 -0.08" style="fill:#ed6b2f"/><path d="m 8.34 18.8 c -1.07 0.08 -0.96 -0.25 -1.41 -0.66 v -6.5 c 0.14 -0.38 0.27 -0.52 0.66 -0.66 h 9.32 c 0.23 0.09 0.49 0.19 0.61 0.71 c 0.1 0.24 0.09 1 -0.01 1.1 c -0.45 0.16 -0.86 0.01 -1.35 0.13 c -0.34 0.09 -0.45 0.36 -0.22 0.69 c 0.09 0.13 0.36 0.12 1.03 0.16 c 0.75 0.04 0.57 0.23 0.62 0.72 c 0.05 0.55 -0.11 0.38 -0.88 0.41 c -0.87 0.04 -0.95 -0.07 -0.95 0.45 c -0.04 0.57 0.37 0.37 1 0.4 c 0.71 -0.07 0.71 0.14 0.73 0.48 c 0.01 0.12 0.06 0.52 -0.24 0.55 c -0.19 0.02 -0.59 -0.04 -0.79 -0.04 c -0.63 0 -0.82 -0.08 -0.71 0.52 c 0.08 0.43 0.24 0.29 1.08 0.34 c 0.73 0.04 0.62 -0.04 0.67 0.39 c 0.02 0.11 -0.1 0.25 -0.32 0.45 c -0.35 0.43 -0.83 0.31 -1.35 0.33 c -0.99 0.04 -6.07 0.04 -7.5 0 m 4.3 -1.8 c 0.24 -0.12 0.29 -0.44 0.29 -0.71 c 0 -0.14 -0.02 -0.58 0.15 -0.89 c 0.23 -0.45 0.54 -0.41 0.54 -0.83 c 0 -0.5 -0.04 -0.61 -0.42 -1 c -0.29 -0.3 -0.5 -0.39 -0.95 -0.39 c -0.45 0 -0.58 0.05 -0.93 0.37 c -0.37 0.34 -0.45 0.53 -0.45 1.08 c 0 0.44 0.41 0.5 0.63 0.85 c 0.15 0.24 0.08 0.65 0.11 0.87 c 0.05 0.37 0.02 0.53 0.26 0.65 c 0.21 0.1 0.57 0.1 0.78 0" style="fill:#53c1f1"/></svg>