<svg xmlns="http://www.w3.org/2000/svg" viewBox="0 0 24 24"><path d="m 20.95 20.38 c 13.73 -21.1 -23.77 -29.3 -20.77 -7.57 c 1.21 8.87 15.52 15.66 20.77 7.57" style="fill:#edc8d7"/><g style="fill:#d5004c;fill-opacity:0.97"><path d="m 11.76 21.66 c -2.23 -0.29 -4.72 -2.51 -5.76 -5.14 c -0.44 -1.11 -0.52 -1.7 -0.53 -3.7 c -0.3 -1.21 -0.8 -1.1 0.29 -2.55 c 0.26 -0.35 0.43 -0.93 0.59 -1.17 c 0.49 -0.72 0.49 -0.71 -0.31 -1.6 c -0.53 -0.59 -0.8 -0.97 -1.07 -1.53 c -0.3 -0.61 -0.45 -1.13 -0.34 -1.13 c 0.01 0 0.39 0.36 0.84 0.8 c 0.75 0.72 0.88 0.82 1.51 1.06 c 0.38 0.14 0.74 0.27 0.8 0.27 c 0.06 0 0.45 -0.21 0.86 -0.46 c 0.41 -0.25 0.98 -0.96 1.32 -1.13 c 0.61 -0.3 0.66 0.07 1.6 0.09 c 1.29 0.02 2.07 0.13 2.72 0.38 c 0.77 0.19 1.49 -0.21 2.15 0.86 c 0.27 0.18 0.55 0.33 0.64 0.33 c 0.3 0 1.22 -0.37 1.63 -0.65 c 0.23 -0.16 0.68 -0.5 1 -0.76 c 0.33 -0.27 0.62 -0.46 0.64 -0.44 c 0.07 0.07 -0.47 1.07 -0.86 1.56 c -0.44 0.62 -1.11 0.95 -1.57 1.52 c 0 0.04 0.05 0.21 0.11 0.38 c 0.17 0.49 0.58 0.93 0.35 1.96 c 0.02 0.11 -0.31 -0.26 -0.32 -0.77 c 0 -0.32 -0.31 -0.51 -0.37 -0.51 c -0.14 0 -0.13 0.05 0.03 0.3 c 0.09 0.13 0.17 0.5 0.21 1 c 0.11 1.15 0.1 1.33 -0.09 1.75 c -0.22 0.52 -0.36 1.11 -0.73 1.55 c -0.46 0.68 -1.16 1.23 -1.86 1.58 c -0.36 0.17 -0.83 0.32 -1.27 0.39 c -1.36 0.13 -1.79 0.13 -2.97 -0.61 c -0.39 -0.25 -1.11 -0.95 -1.11 -1.07 c 0 -0.1 0.46 0.15 0.5 0.24 c 0.02 0.04 0.18 0.16 0.38 0.29 c 0.43 0.28 0.49 0.09 0.07 -0.23 c -0.25 -0.19 -0.3 -0.3 -0.46 -0.96 c -0.21 -0.91 -0.18 -1.37 0.18 -2.11 c 0.53 -1.13 1.17 -1.63 2.16 -1.69 c 0.53 -0.03 0.65 -0.01 1.04 0.18 c 0.24 0.12 0.51 0.3 0.59 0.39 c 0.16 0.18 0.16 0.18 -0.05 0.11 c -0.11 -0.04 -0.42 -0.11 -0.69 -0.17 c -0.82 -0.19 -1.63 0.06 -2.19 0.68 c -0.43 0.48 -0.59 0.96 -0.54 1.68 c 0.11 1.71 1.63 2.93 3.21 2.6 c 0.74 -0.16 2.16 -1.1 2.16 -1.44 c 0 -0.05 0.1 -0.24 0.23 -0.42 c 0.22 -0.32 0.22 -0.33 0.22 -1.71 c 0 -1.25 -0.02 -1.43 -0.19 -1.88 c -0.43 -1.11 -1.27 -2.05 -2.18 -2.45 c -1.16 -0.52 -3.06 -0.48 -3.86 0.07 c -0.17 0.12 -0.37 0.79 -0.6 0.86 c -1.08 -0.21 -0.23 -0.39 -1.2 0.2 c -0.77 0.47 -1.44 1.22 -1.74 1.93 c -0.35 0.83 -0.46 1.3 -0.54 2.16 c -0.07 0.85 -0.02 1.62 0.18 2.49 c 0.12 0.53 0.47 0.38 0.77 0.66 c 0.38 0.36 0.28 0.94 0.2 1.06 c -0.08 0.13 0.36 1.18 0.73 1.73 c 0.61 0.8 1.4 1.73 2.26 2.15 c 0.73 0.54 1.21 0.59 1.96 0.87 c 0.26 0.11 0.04 0.18 -0.12 0.21 c -0.04 0 -0.33 -0.04 -0.64 -0.08"/><path d="m 12.9 14.1 c -0.21 -0.07 -0.24 -0.24 -0.05 -0.3 c 0.19 -0.06 0.99 -0.05 1.04 0.02 c 0.02 0.04 -0.02 0.13 -0.08 0.21 c -0.13 0.16 -0.55 0.2 -0.9 0.08"/><path d="m 14.23 13.56 c -0.17 -0.25 0.38 -0.85 0.59 -0.63 c 0.1 0.1 -0.01 0.54 -0.15 0.68 c -0.12 0.12 -0.36 0.1 -0.45 -0.04"/><path d="m 14.85 12.3 c -0.07 -0.26 0.06 -0.74 0.21 -0.74 c 0.14 0 0.19 0.62 0.11 0.81 c -0.08 0.21 -0.27 0.16 -0.33 -0.07"/></g></svg>