<svg xmlns="http://www.w3.org/2000/svg" viewBox="0 0 24 24"><path d="m 4.2 20.52 c -18.92 -24.98 33.1 -28.52 16.44 -3 c -3.81 5.81 -11.43 9.65 -16.44 3" style="fill:#ebebeb"/><path d="m 10.59 18.68 c -0.11 -0.16 -0.14 -0.46 -0.15 -1.29 c 0 -1.32 -0.04 -1.5 -0.33 -1.5 c -0.46 0 -1.26 -0.39 -1.73 -0.85 c -0.78 -0.76 -0.87 -1.06 -0.93 -3.09 c -0.03 -0.95 -0.08 -1.78 -0.12 -1.84 c -0.04 -0.06 -0.21 -0.16 -0.38 -0.21 c -0.19 -0.06 -0.36 -0.2 -0.43 -0.35 c -0.1 -0.21 -0.09 -0.29 0.07 -0.49 c 0.17 -0.23 0.23 -0.24 1.13 -0.27 c 1.4 -0.04 1.33 -0.18 1.33 2.53 c 0 1.93 0.02 2.23 0.18 2.57 c 0.19 0.42 0.61 0.77 0.96 0.81 l 0.22 0.02 l 0.05 -4.34 c 0.05 -5 -0.04 -4.61 1.04 -4.61 c 0.48 0 0.68 0.04 0.85 0.18 l 0.22 0.18 l 0.05 4.3 c 0.05 4.23 0.05 4.3 0.23 4.27 c 0.28 -0.05 0.73 -0.35 0.89 -0.59 c 0.11 -0.17 0.15 -0.7 0.19 -2.57 c 0.05 -2.91 -0.02 -2.75 1.3 -2.75 c 1.03 0 1.32 0.12 1.32 0.55 c 0 0.28 -0.25 0.57 -0.48 0.57 c -0.08 0 -0.21 0.08 -0.3 0.17 c -0.13 0.14 -0.15 0.39 -0.15 1.48 c 0 2.02 -0.15 2.59 -0.87 3.38 c -0.45 0.48 -0.94 0.77 -1.61 0.92 l -0.47 0.11 l -0.05 1.32 c -0.04 0.92 -0.09 1.36 -0.18 1.47 c -0.1 0.12 -0.3 0.15 -0.91 0.15 c -0.7 0 -0.79 -0.02 -0.93 -0.21" style="fill:#4c4c4c"/></svg>