<svg xmlns="http://www.w3.org/2000/svg" viewBox="0 0 24 24"><path d="m 14.96 23.41 c 8.51 -0.3 9.14 -7.38 8.82 -13.98 c -0.26 -5.37 -2.77 -7.96 -7.24 -8.77 c -11.69 -2.1 -20.1 1.49 -14.91 18.46 c 2.22 5.07 8.82 4.98 13.33 4.29" style="fill:#b0dfe5"/><path d="m 8.7 12.31 c 0.02 -0.07 -0.9 -1.44 -2.36 -3.3 c -1.3 -1.66 -2.36 -3 -2.36 -3.04 c 0 -0.02 1.51 -0.04 3.35 -0.04 c 2.59 0 3.37 0.02 3.45 0.09 c 0.05 0.05 0.36 0.42 0.68 0.84 c 0.32 0.42 0.63 0.75 0.69 0.75 c 0.06 0 0.36 -0.32 0.68 -0.73 c 0.31 -0.4 0.61 -0.78 0.67 -0.84 c 0.08 -0.09 0.56 -0.1 3.46 -0.1 c 1.85 0 3.36 0.02 3.36 0.04 c 0 0.02 -1.06 1.39 -2.35 3.04 c -1.3 1.65 -2.32 3.25 -2.32 3.3 c 1.05 5.36 1.24 4.79 -3.49 4.37 c -5.43 0.46 -4.09 0.32 -3.45 -4.36" style="fill:#028ee6"/><path d="m 3.99 18.23 c 0 -0.04 0.83 -1.1 1.84 -2.35 c 2.63 -3.25 2.81 -3.47 2.87 -3.45 c 0.06 0.02 3.39 4.12 3.39 4.17 c 0 0.05 -1.24 1.58 -1.33 1.64 c -0.12 0.08 -6.77 0.06 -6.77 -0.02 m 9.56 0.02 c -0.09 -0.06 -1.33 -1.59 -1.33 -1.64 c 0 -0.05 3.33 -4.15 3.39 -4.18 c 0.05 -0.02 0.73 0.81 4.07 4.93 c 0.35 0.43 0.64 0.82 0.64 0.86 c 0 0.08 -6.65 0.1 -6.77 0.02 m -2.56 -4.71 c -0.27 -0.14 -0.8 -0.64 -0.79 -0.74 c 0.26 -0.29 0.53 -0.44 0.87 -0.67 l 0.63 0.08 c 0.53 0.07 0.69 0.06 1.01 -0.03 c 0.43 -0.12 1.16 -0.5 1.2 -0.63 c 0.04 -0.11 -0.27 -0.11 -0.66 0.02 c -0.46 0.14 -1.02 0.13 -1.02 -0.03 c 0 -0.03 0.12 -0.11 0.27 -0.18 c 0.17 -0.08 0.25 -0.16 0.24 -0.23 c -0.02 -0.14 -0.68 -0.17 -1.5 -0.08 c -0.48 0.05 -0.67 0.11 -1 0.31 c -0.23 0.13 -0.45 0.22 -0.5 0.2 c -0.13 -0.08 -0.01 -0.89 0.2 -1.35 c 0.27 -0.6 0.59 -0.93 1.18 -1.23 c 1.23 -0.63 2.77 0.13 3.29 1.18 c 0.2 0.42 0.21 0.5 0.21 1.13 c 0 0.61 -0.02 0.71 -0.19 1.08 c -0.24 0.52 -0.69 0.97 -1.18 1.22 c -0.73 0.31 -1.58 0.28 -2.24 -0.06" style="fill:#0a0a0a"/></svg>