<svg xmlns="http://www.w3.org/2000/svg" viewBox="0 0 24 24"><path d="m 23.94 12.55 c -0.37 -8.53 -6.15 -14.96 -14.16 -11.41 c -5.5 2.43 -10.73 5.11 -9.42 11.41 c 1.31 6.3 7.66 11.41 14.16 11.41 c 6.52 0 9.7 -5.19 9.42 -11.41" style="fill:#8b008b"/><path d="m 14.42 17.86 c 2.16 -1.06 3.43 -3.2 4 -5.16 c 0.94 0.68 0.99 4.28 0.4 5.24 c -0.42 0.79 -5.87 0.6 -4.44 -0.08" style="fill:#ff8c00"/><path d="m 9.83 18.5 c -0.65 -0.17 -1.09 -0.38 -1.67 -0.8 c -0.85 -0.67 -1.5 -1.4 -1.84 -2.46 c -0.21 -0.5 -0.21 -1.06 -0.02 -1.49 c 0.28 -0.6 0.81 -1 1.33 -1 c 0.25 0 0.88 0.22 1.2 0.42 c 0.56 0.34 0.93 0.79 1.8 2.14 c 0.73 1.12 1.22 2.19 1.22 2.63 c 0 0.21 -0.15 0.43 -0.37 0.54 c -0.54 0.1 -1.14 0.15 -1.66 0.02" style="fill:#fb006c"/><path d="m 6.99 11.84 c -0.19 -0.04 -0.32 -0.2 -0.45 -0.54 c -0.16 -0.43 -0.15 -0.66 0.05 -1.37 c 0.49 -1.72 1.48 -2.91 2.92 -3.52 c 1.08 -0.45 1.94 -0.31 2.49 0.41 c 0.4 0.51 0.22 1.36 0.04 1.73 c -0.31 0.64 -0.93 1.21 -2.24 2.08 c -1.41 0.93 -2.29 1.3 -2.81 1.21" style="fill:#9327ff"/><path d="m 15.64 10.75 c -0.52 -0.57 -1.57 -2.16 -2 -3.06 c -0.24 -0.48 -0.34 -0.83 -0.34 -1.18 c 0.01 -0.71 0.93 -0.67 1.26 -0.66 c 0.71 0.03 1.06 0.12 1.76 0.48 c 1.06 0.54 1.74 1.22 2.27 2.3 c 0.26 0.54 0.34 0.85 0.34 1.44 c -0.12 1.05 -0.57 1.57 -1.4 1.61 c -0.74 0.03 -1.43 -0.45 -1.88 -0.93" style="fill:#00c8ff"/><path d="m 13.88 18.1 c -0.49 -0.18 -0.93 -0.68 -1 -1.16 c -0.02 -0.84 0.42 -1.6 0.91 -2.06 c 0.41 -0.38 1.83 -1.34 2.73 -1.85 c 0.64 -0.36 1.05 -0.5 1.44 -0.51 c 0.35 -0.01 0.49 0.09 0.62 0.43 c 0.11 0.28 0.07 1.1 -0.07 1.63 c -0.43 1.62 -1.61 2.92 -3.13 3.46 c -0.41 0.15 -1.15 0.18 -1.49 0.05" style="fill:#ffce00"/></svg>