<svg xmlns="http://www.w3.org/2000/svg" xmlns:xlink="http://www.w3.org/1999/xlink" viewBox="0 0 24 24"><defs><g id="8" style="clip-path:url(#7)"><path d="m 69.5 37 c -9.13 0 -16.49 7.39 -16.49 16.49 c 0 9.1 7.37 16.49 16.49 16.49 c 9.1 0 16.49 -7.39 16.49 -16.49 c 0 -9.1 -7.41 -16.49 -16.49 -16.49 m -6.09 35 c -0.04 0 -0.08 0 -0.12 0 c -3.84 0.78 -7.89 2.33 -11.13 4.55 c -3.24 2.26 -5.69 5.25 -6.17 8.87 c 0 0.04 0 0.04 0 0.08 v 3.5 c 0 2.76 2.24 4.98 5 4.98 h 36.99 c 2.76 0 5 -2.22 5 -4.98 v -3.5 c 0 -0.04 0 -0.04 0 -0.08 c -0.44 -3.62 -3.56 -6.92 -7.13 -9.33 c -3.6 -2.45 -7.65 -4 -10.29 -4.08" transform="matrix(0.098 0 0 0.1 5.68 6.22)" style="fill:#007267;stroke:#007267;stroke-linecap:round;stroke-linejoin:round;stroke-width:2"/></g><clipPath id="7"><path d="M 0,0 H24 V24 H0 z"/></clipPath><filter id="5" filterUnits="objectBoundingBox" x="0" y="0" width="24" height="24"><feColorMatrix type="matrix" in="SourceGraphic" values="0 0 0 0 1 0 0 0 0 1 0 0 0 0 1 0 0 0 1 0"/></filter><linearGradient id="A" gradientUnits="userSpaceOnUse" y1="44" x2="0" y2="3.9" gradientTransform="matrix(2.6 0 0 2.795 5.8 -3.08)" xlink:href="#3"/><linearGradient id="B" gradientUnits="userSpaceOnUse" y1="5" x2="0" y2="43" gradientTransform="matrix(2.459 0 0 2.892 4.97 -5.41)"><stop style="stop-color:#fff;stop-opacity:0.5"/><stop offset="0.03" style="stop-color:#fff;stop-opacity:0.12"/><stop offset="0.97" style="stop-color:#fff;stop-opacity:0.08"/><stop offset="1" style="stop-color:#fff;stop-opacity:0.19"/></linearGradient><linearGradient id="4" gradientUnits="userSpaceOnUse" y1="10" x2="0" y2="118"><stop style="stop-color:#43d6b4"/><stop offset="1" style="stop-color:#28bba3"/></linearGradient><linearGradient id="3" gradientUnits="userSpaceOnUse" y1="44" x2="0" y2="3.9" gradientTransform="matrix(2.6 0 0 0.282 5.8 0.23)"><stop style="stop-color:#272727"/><stop offset="1" style="stop-color:#454545"/></linearGradient><linearGradient id="0" gradientUnits="userSpaceOnUse" x1="24.63" y1="3.12" x2="24.64" y2="4.88" gradientTransform="matrix(2.665 0 0 4.093 4.35 -10.57)"><stop style="stop-color:#f4f4f4"/><stop offset="1" style="stop-color:#e0e0e0"/></linearGradient><linearGradient id="2" gradientUnits="userSpaceOnUse" y1="1" x2="0" y2="3" gradientTransform="matrix(2.6 0 0 2.75 0.6 0.12)" xlink:href="#0"/><linearGradient id="1" gradientUnits="userSpaceOnUse" x1="5.21" x2="54.89" gradientTransform="matrix(1.901 0 0 1.988 6.82 0.04)"><stop style="stop-color:#0d9a82"/><stop offset="0.96" style="stop-color:#0d9a82"/><stop offset="0.96" style="stop-color:#c1c1c1"/><stop offset="1" style="stop-color:#c1c1c1"/></linearGradient><mask id="6"><g style="filter:url(#5)"><path d="M 0,0 H24 V24 H0 z" style="fill-opacity:0.05"/></g></mask><radialGradient id="C" gradientUnits="userSpaceOnUse" cx="64.4" cy="114.8" r="52.5" gradientTransform="matrix(1.333 0 0 0.082 -19.85 -3.92)"><stop style="stop-color:#000;stop-opacity:0.1"/><stop offset="1" style="stop-color:#000;stop-opacity:0"/></radialGradient><radialGradient id="9" gradientUnits="userSpaceOnUse" cx="7.5" cy="8.45" r="20" gradientTransform="matrix(0 6.532 -6.428 0 122.5 -37.83)"><stop style="stop-color:#5f5f5f"/><stop offset="0.26" style="stop-color:#4e4e4e"/><stop offset="0.7" style="stop-color:#3b3b3b"/><stop offset="1" style="stop-color:#2a2a2a"/></radialGradient></defs><path d="m 11.96 23.91 c -15.83 1.8 -15.61 -23.99 0.28 -23.69 c 14.79 -0.85 16.1 25.1 -0.28 23.69" style="fill:#007f7f"/><g style="stroke-linejoin:round"><path d="m 109.5 10.37 c -0.8 -2.64 -0.32 -6.34 -0.72 -8.87 h -80.3 l 0.48 7.97" transform="matrix(0.098 0 0 0.1 5.68 6.22)" style="fill:url(#0);stroke-miterlimit:0;stroke:url(#1);stroke-width:1.02"/><g style="stroke-linecap:round"><path d="m 30.52 12.51 h -10.41 c -1.48 0 -2.6 -0.12 -2.6 -0.27 v -8.17 c 0 -1.94 0.64 -2.57 2.56 -2.57 h 10.45" transform="matrix(0.098 0 0 0.1 5.68 6.22)" style="fill:url(#2);stroke:url(#3)"/><path d="m 22.1 9.47 h 86.5 c 1.04 0 1.92 0.86 1.92 1.87 v 105.3 c 0 1.05 -0.88 1.87 -1.92 1.87 h -86.5 c -1.04 0 -1.92 -0.82 -1.92 -1.87 v -105.3 c 0 -1.01 0.88 -1.87 1.92 -1.87" transform="matrix(0.098 0 0 0.1 5.68 6.22)" style="fill:url(#4);stroke-miterlimit:0;stroke:#0d9a82;stroke-width:1.02"/></g></g><use xlink:href="#8" style="mask:url(#6)"/><path d="m 12.46 9.94 c -0.89 0 -1.61 0.74 -1.61 1.66 c 0 0.91 0.72 1.66 1.61 1.66 c 0.89 0 1.61 -0.74 1.61 -1.66 c 0 -0.91 -0.72 -1.66 -1.61 -1.66 m -0.59 3.52 c 0 0 -0.01 0 -0.01 0 c -0.38 0.08 -0.77 0.23 -1.09 0.46 c -0.32 0.23 -0.55 0.53 -0.6 0.89 v 0.36 c 0 0.28 0.22 0.5 0.49 0.5 h 3.61 c 0.27 0 0.49 -0.22 0.49 -0.5 v -0.35 c 0 0 0 0 0 -0.01 c -0.04 -0.36 -0.35 -0.7 -0.7 -0.94 c -0.35 -0.25 -0.75 -0.4 -1 -0.41" style="fill:#007267;fill-opacity:0.15"/><path d="m 12.46 9.84 c -0.89 0 -1.61 0.74 -1.61 1.66 c 0 0.92 0.72 1.66 1.61 1.66 c 0.89 0 1.61 -0.74 1.61 -1.66 c 0 -0.91 -0.72 -1.66 -1.61 -1.66 m -0.59 3.52 c 0 0 -0.01 0 -0.01 0 c -0.38 0.08 -0.77 0.23 -1.09 0.46 c -0.32 0.22 -0.55 0.52 -0.6 0.89 v 0.36 c 0 0.28 0.22 0.5 0.49 0.5 h 3.61 c 0.27 0 0.49 -0.23 0.49 -0.5 v -0.35 c 0 0 0 0 0 0 c -0.04 -0.37 -0.35 -0.7 -0.7 -0.94 c -0.35 -0.24 -0.75 -0.4 -1 -0.41" style="fill:#fafafa"/><g style="stroke-linecap:round;stroke-linejoin:round"><path d="m 30.52 9.51 c 0 0 0 75.8 0 109 h -10.73 c -1.48 0 -2.28 -0.86 -2.28 -2.37 v -106.6" transform="matrix(0.098 0 0 0.1 5.68 6.22)" style="fill:url(#9);stroke:url(#A)"/><path d="m 19.47 10.48 h 89.1 c 0.52 0 0.96 0.43 0.96 0.93 v 105.2 c 0 0.51 -0.44 0.93 -0.96 0.93 h -89.1 c -0.52 0 -0.96 -0.43 -0.96 -0.93 v -105.2 c 0 -0.51 0.44 -0.93 0.96 -0.93" transform="matrix(0.098 0 0 0.1 5.68 6.22)" style="fill:none;stroke:url(#B)"/></g><path d="m 18.51 3.48 h 92 m -92 2.02 h 92 m -92 1.98 h 92" transform="matrix(0.098 0 0 0.1 5.68 6.22)" style="fill:none;stroke:url(#C)"/></svg>