<svg xmlns="http://www.w3.org/2000/svg" viewBox="0 0 24 24"><path d="m 21.5 18.42 c 7.92 -8.88 -4.57 -22.56 -15 -17 c -10.57 5.59 -7.75 24.1 5.23 22.52 c 3.86 -0.47 7.21 -2.59 9.8 -5.48"/><path d="m 11.84 18.64 v -0.6 l 1.9 -1.76 c 1.05 -0.97 1.93 -1.76 1.96 -1.76 c 0.09 0 1.21 1.05 1.23 1.16 c 0.01 0.08 -0.18 0.27 -2.7 2.61 l -1.02 0.95 h -1.38 m -3.98 -0.58 c -0.29 -0.07 -0.54 -0.21 -0.74 -0.43 c -0.24 -0.26 -0.29 -0.38 -0.32 -0.87 l -0.03 -0.41 l -0.63 -0.01 l -0.63 -0.02 v -1.2 l 0.63 -0.01 l 0.63 -0.01 l 0.02 -2.29 h -1.28 v -1.2 l 0.63 -0.01 l 0.63 -0.01 l 0.02 -2.29 h -1.28 v -1.2 l 0.63 -0.01 l 0.63 -0.01 l 0.02 -0.43 c 0.02 -0.31 0.06 -0.49 0.14 -0.63 c 0.13 -0.24 0.47 -0.54 0.66 -0.58 c 0.07 -0.02 0.13 -0.05 0.13 -0.07 c 0 -0.02 1.79 -0.04 4.09 -0.04 h 4.09 l 0.3 0.15 c 0.17 0.08 0.37 0.23 0.45 0.32 c 0.28 0.34 0.29 0.43 0.29 2.42 v 1.81 l -0.54 0.52 c -0.58 0.57 -0.67 0.63 -0.74 0.57 c -0.02 -0.02 -0.05 -1.06 -0.06 -2.3 l -0.01 -2.26 l -0.53 -0.02 c -0.35 -0.01 -0.56 0.01 -0.6 0.04 c -0.06 0.05 -0.07 0.36 -0.07 1.71 c 0 1.3 -0.01 1.66 -0.06 1.66 c -0.03 0 -0.3 -0.23 -0.61 -0.5 c -0.3 -0.28 -0.57 -0.51 -0.59 -0.51 c -0.02 0 -0.3 0.24 -0.62 0.53 c -0.32 0.29 -0.6 0.52 -0.63 0.5 c -0.03 -0.02 -0.05 -0.68 -0.05 -1.71 c 0 -1.48 -0.01 -1.68 -0.08 -1.71 c -0.04 -0.02 -0.58 -0.03 -1.2 -0.03 c -1.06 0 -1.13 0 -1.17 0.09 c -0.05 0.1 -0.07 9 -0.02 9.17 c 0.03 0.06 0.13 0.08 0.56 0.08 c 0.29 0 0.57 0.01 0.61 0.03 c 0.12 0.04 0.12 1.15 0 1.2 c -0.12 0.04 -2.47 0.02 -2.68 -0.02 m 0.18 -2.33 v -0.53 l -0.6 -0.01 l -0.6 -0.02 v 1.11 l 0.6 -0.01 l 0.6 -0.02 m 0 -4 v -0.53 l -0.6 -0.01 l -0.6 -0.02 v 1.11 l 0.6 -0.01 l 0.6 -0.02 m 0 -4 v -0.53 l -0.6 -0.01 l -0.6 -0.02 v 1.11 l 0.6 -0.01 l 0.6 -0.02 m 8.67 4.95 c -0.33 -0.31 -0.6 -0.59 -0.6 -0.62 c 0 -0.03 0.16 -0.2 0.34 -0.38 c 0.46 -0.43 0.53 -0.43 1 0 c 0.57 0.52 0.63 0.58 0.63 0.77 c 0 0.14 -0.05 0.21 -0.33 0.48 c -0.18 0.17 -0.35 0.31 -0.38 0.31 c -0.03 0 -0.32 -0.26 -0.65 -0.57" style="fill:#fff"/></svg>