<svg xmlns="http://www.w3.org/2000/svg" viewBox="0 0 24 24"><path d="m 1 9.74 c 2.39 -16 26.97 -10.54 22.32 4.95 c -3.12 14.72 -28.3 10.73 -22.32 -4.95" style="fill:#cd86de"/><path d="m 10.5 18.83 c -1.89 -0.34 -3.78 -1.71 -4.75 -3.44 c -0.9 -1.48 -1.04 -3.59 -0.68 -5.14 c 0.56 -2.38 2.53 -4.37 4.98 -5.1 c 1.48 -0.37 3.34 -0.17 4.55 0.3 c 1.55 0.65 2.93 1.97 3.66 3.51 c 0.85 2.05 0.77 4.32 -0.09 6.1 c -0.96 1.95 -2.88 3.4 -4.95 3.76 c -1.16 0.14 -1.92 0.13 -2.73 0 m 2.16 -4 c 0.5 -0.13 0.89 -0.36 1.3 -0.77 c 0.6 -0.6 0.84 -1.19 0.84 -2.07 c 0 -0.88 -0.24 -1.48 -0.84 -2.07 c -0.6 -0.6 -1.2 -0.84 -2.09 -0.84 c -0.82 0 -1.44 0.23 -2 0.75 c -0.63 0.58 -0.92 1.25 -0.92 2.13 c 0 0.92 0.23 1.51 0.84 2.11 c 0.78 0.76 1.89 0.99 2.87 0.77 m -1.2 -0.84 c -0.61 -0.13 -1.16 -0.57 -1.43 -1.14 c -0.25 -0.59 -0.23 -1.21 0 -1.7 c 0.21 -0.44 0.6 -0.82 1.04 -1.02 c 0.54 -0.19 1.12 -0.22 1.6 0 c 0.45 0.2 0.84 0.59 1.05 1.02 c 0.23 0.57 0.26 1.15 0.03 1.66 c -0.18 0.41 -0.65 0.88 -1.05 1.05 c -0.39 0.11 -0.84 0.21 -1.23 0.14 m 0.8 -1.14 c 0.26 -0.12 0.44 -0.32 0.52 -0.61 c 0.23 -0.75 -0.61 -1.45 -1.31 -1.09 c -0.48 0.25 -0.67 0.73 -0.47 1.19 c 0.23 0.52 0.82 0.71 1.26 0.51" style="fill:#fff"/></svg>