<svg xmlns="http://www.w3.org/2000/svg" xmlns:xlink="http://www.w3.org/1999/xlink" viewBox="0 0 24 24"><defs><g id="7" style="clip-path:url(#6)"><path d="m 16.2 7.7 l -2.35 0.71 l 0.1 3.96 l 1.51 -0.04" style="fill:url(#0);fill-rule:evenodd"/><path d="m 14.6 15.49 l 1.77 0.46 l -0.11 -4.19" style="fill:url(#1);fill-rule:evenodd"/><path d="m 12.26 18.7 l 2.38 -1.55 l 1.62 -5.21 l 0.1 4 l 1.84 -1.16 l -0.15 -6 l -1.89 -1.09 l -1.64 4.26 l -0.14 -5.36 l -2.47 -1.45" style="fill:url(#2);fill-rule:evenodd"/><path d="m 7.8 7.88 l 2.39 0.61 l 0.1 3.96 l -1.51 0.03" style="fill:url(#3);fill-rule:evenodd"/><path d="m 9.77 15.59 l -1.75 0.54 l -0.11 -4.19" style="fill:url(#4);fill-rule:evenodd"/><path d="m 12.26 18.7 l -2.45 -1.45 l -1.89 -5.14 l 0.1 4 l -1.9 -1.07 l -0.15 -6 l 1.83 -1.18 l 1.86 4.18 l -0.14 -5.36 l 2.39 -1.55" style="fill:url(#5);fill-rule:evenodd"/></g><clipPath id="6"><path d="M 0,0 H24 V24 H0 z"/></clipPath><linearGradient id="5" gradientUnits="userSpaceOnUse" y1="107.1" x2="0" y2="-102.9" gradientTransform="matrix(0.06 -0.001 0.001 0.056 13.1 11.99)" xlink:href="#0"/><linearGradient id="4" gradientUnits="userSpaceOnUse" y1="72.1" x2="0" y2="2.13" gradientTransform="matrix(0.06 -0.001 0.001 0.056 13.1 11.99)" xlink:href="#2"/><linearGradient id="3" gradientUnits="userSpaceOnUse" x1="-69.96" y1="-2.77" x2="-69.2" y2="-71.8" gradientTransform="matrix(0.06 -0.001 0.001 0.056 13.1 11.99)" xlink:href="#1"/><linearGradient id="2" gradientUnits="userSpaceOnUse" y1="87.1" x2="0" y2="-92.9" gradientTransform="matrix(0.06 -0.001 0.001 0.056 13.1 11.99)"><stop style="stop-color:#014b79"/><stop offset="1" style="stop-color:#039dff"/></linearGradient><linearGradient id="1" gradientUnits="userSpaceOnUse" y1="67.1" x2="0" y2="-2.88" gradientTransform="matrix(0.06 -0.001 0.001 0.056 13.1 11.99)"><stop style="stop-color:#d73b37"/><stop offset="1" style="stop-color:#f37270"/></linearGradient><linearGradient id="0" gradientUnits="userSpaceOnUse" x1="28.38" y1="-10.24" x2="39.55" y2="-76.2" gradientTransform="matrix(0.06 -0.001 0.001 0.056 13.1 11.99)"><stop style="stop-color:#62973e"/><stop offset="1" style="stop-color:#a6ff69"/></linearGradient></defs><path d="m 6.24 2.84 c 5.54 -5.48 10.66 -1.47 14.86 2.89 c 3.43 3.55 3.58 6.84 1.31 10.33 c -5.93 9.11 -13.61 12.49 -21.68 -1.64 c -1.99 -4.66 2.21 -9 5.5 -11.58" style="fill:#e3ecee"/><use xlink:href="#7"/></svg>