<svg xmlns="http://www.w3.org/2000/svg" viewBox="0 0 24 24"><path d="m 23.7 9.25 c -4.69 -22.49 -36.93 1.66 -17.56 13.1 c 7.52 4.9 19.97 -1.52 17.56 -13.1" style="fill:#f4f4f4"/><path d="m 17.64 19.25 c -0.45 -0.08 0.06 -0.73 0.1 -0.93 c 0.16 -0.28 0.48 -0.06 1.14 -0.02 c 0 0.36 0 0.71 0 1.06 c -0.28 -0.02 -0.65 0.02 -1.24 -0.12 m -4.46 -1.23 c 0 -0.29 -0.09 -0.96 0.18 -1.06 c 0.25 -0.09 1.27 -0.32 1.3 -0.29 c 0.05 0.05 0.05 0.86 0 1.01 c -0.16 0.2 -1.37 0.49 -1.48 0.34 m -2.23 -0.68 c -0.05 -0.09 0.04 -0.99 0.11 -1.05 c 0.06 -0.05 0.79 -0.22 1.23 -0.3 l 0.17 -0.03 c -0.05 0.32 0.11 0.8 -0.07 1.08 c -0.26 0.15 -1.35 0.42 -1.43 0.3 m 6.26 -0.16 c 0 -0.15 0.09 -0.63 0.19 -1.03 c 0.06 -0.24 0.14 -0.27 0.95 -0.43 c 0.17 -0.03 0.36 -0.07 0.42 -0.09 c 0.08 -0.03 0.11 0 0.11 0.13 c -0.1 0.45 -0.2 0.93 -0.26 1.3 l -0.27 0.13 c -0.26 0.12 -1.13 0.27 -1.13 -0.02 m -8.29 -1.52 c 0.05 -0.05 0.68 -0.21 1.14 -0.28 c 0.22 -0.03 0.22 -0.03 0.26 0.2 c 0.05 0.32 0.05 0.71 -0.01 0.8 c -0.04 0.07 -1.08 0.33 -1.29 0.33 c -0.13 -0.33 -0.2 -0.68 -0.11 -1.05 m 6.39 0.84 c -0.25 0.02 -0.46 0.01 -0.48 -0.02 c 0.04 -0.3 -0.09 -1.06 0.21 -1.23 c 0.05 -0.03 0.38 -0.11 0.71 -0.19 c 0.68 -0.16 0.72 -0.14 0.67 0.23 c 0 0.48 0.13 0.86 0.23 1.34 c -0.46 0.01 -0.93 -0.16 -1.34 -0.13 m -8.23 -0.21 c -0.02 -0.02 -0.11 -0.49 -0.13 -0.76 c -0.03 -0.56 -0.1 -0.5 0.77 -0.69 c 0.33 -0.07 0.5 -0.09 0.55 -0.05 c 0.07 0.07 0.11 0.97 0.05 1.03 c -0.4 0.05 -0.82 0.57 -1.23 0.46 m 5.47 -0.55 c 0.07 -0.31 -0.05 -1.05 0.23 -1.17 c 0.23 -0.09 1.16 -0.26 1.24 -0.23 c 0.05 0.02 0.09 0.2 0.12 0.54 c 0.02 0.29 0.05 0.65 0.07 0.81 c 0.18 0.49 -1.67 0.05 -1.67 0.05 m -7.39 -0.29 c -0.05 -0.36 -0.05 -0.64 -0.07 -1.03 c 0.4 -0.09 0.82 -0.13 1.2 -0.25 c 0.27 0.3 0.19 0.67 0.19 1.07 c -0.41 0.12 -0.77 0.14 -1.18 0.23 c -0.05 0.02 -0.12 0.01 -0.13 -0.02 m 5.27 -0.25 l 0.04 -0.58 c -0.05 -0.7 1.43 -1.4 1.44 -0.62 c 0 0.42 0.13 0.8 0.13 1.21 c -0.54 -0.03 -1.13 -0.06 -1.61 -0.02 m 6.14 -0.43 c -0.02 -0.39 0.14 -0.71 0.14 -1.13 c 0 -0.2 -0.04 -0.18 0.82 -0.34 c 0.3 -0.05 0.56 -0.09 0.58 -0.07 c 0.02 0.02 0 0.25 -0.04 0.51 c -0.12 0.84 -0.11 0.8 -0.43 0.91 c -0.39 0.13 -1.04 0.19 -1.08 0.11 m -7 -0.2 c -0.39 -0.05 -0.72 -0.02 -1.11 0.02 c 0.04 -0.27 -0.11 -1.15 0.14 -1.21 c 0.66 -0.14 1.17 -0.22 1.21 -0.2 c 0.11 0.43 0.11 0.8 0.15 1.27 c 0.02 0.18 -0.07 0.2 -0.39 0.12 m 5.92 -0.36 c -0.43 -0.1 -0.83 0.01 -1.25 -0.11 c -0.04 -0.06 0.11 -1.14 0.17 -1.23 c 0.22 -0.13 0.52 -0.12 0.75 -0.17 c 0.67 -0.14 0.64 -0.15 0.65 0.29 c -0.01 0.42 0.12 0.8 0.18 1.2 c 0 0.09 -0.25 0.09 -0.49 0.02 m -8.95 -0.25 c -0.05 -0.46 -0.04 -1.05 0.02 -1.09 c 0.07 -0.05 0.91 -0.21 1.19 -0.23 c 0.29 0.26 0.23 0.92 0.29 1.35 h -0.75 c -0.41 0 -0.75 -0.01 -0.75 -0.03 m 5.48 -0.39 c 0.08 -0.39 -0.04 -0.91 0.16 -1.25 c 0.1 -0.09 1.19 -0.29 1.32 -0.25 c 0.13 0.41 0.12 0.99 0.18 1.35 c 0.04 0.21 0.03 0.23 -0.11 0.22 c -0.56 -0.11 -1 -0.11 -1.55 -0.07 m -5.99 -0.09 c -0.46 -0.07 -0.81 -0.05 -1.3 -0.05 c 0 -0.37 0 -0.73 0 -1.1 c 0.4 -0.07 0.8 -0.18 1.21 -0.22 c 0.18 0.18 0.32 1.58 0.09 1.37 m 5.32 -1.96 c 0.02 0.02 0.05 0.25 0.08 0.52 c 0.18 0.84 -2.55 -0.16 -0.08 -0.52 m -2.75 0.91 l -0.63 -0.02 c 0.04 -0.26 -0.11 -1.14 0.13 -1.2 c 0.71 -0.14 1.17 -0.21 1.21 -0.19 c 0.12 0.4 0.1 0.78 0.17 1.22 c 0.04 0.21 0.03 0.23 -0.11 0.22 c -0.08 -0.01 -0.43 -0.02 -0.77 -0.04 m 7.35 -0.02 c 0.06 -0.43 -0.02 -1.04 0.27 -1.38 c 0.23 -0.06 1.19 -0.17 1.22 -0.14 c 0.05 0.05 -0.11 1.23 -0.18 1.31 c -0.11 0.14 -1.25 0.32 -1.32 0.2 m -9.21 -0.47 l -0.63 -0.02 c 0.01 -0.39 -0.02 -0.79 0.02 -1.17 c 0.18 -0.04 1.15 -0.18 1.23 -0.18 c 0.17 0.17 0.27 1.39 0.14 1.4 c -0.28 -0.02 -0.52 -0.02 -0.75 -0.03 m 8.19 -0.02 c -0.42 -0.11 -0.94 0.04 -1.29 -0.14 c 0.05 -0.44 0.1 -0.78 0.16 -1.24 l 0.21 -0.04 c 0.6 -0.09 1.17 -0.39 1.17 0.21 c -0.01 0.42 0.12 0.8 0.18 1.2 c 0 0.09 -0.19 0.09 -0.43 0.02 m -5.46 -1.11 c 0.02 -0.41 0.02 -0.81 0.06 -1.21 c 0.42 -0.1 0.79 -0.13 1.24 -0.24 c 0.15 -0.04 0.16 -0.02 0.16 0.2 c 0 0.21 0.04 0.46 0.17 1.18 c 0.02 0.11 0.01 0.2 -0.02 0.19 c -0.57 -0.11 -1.04 -0.11 -1.6 -0.11 m -0.6 -0.41 c -0.46 -0.07 -0.82 -0.05 -1.31 -0.05 c 0 -0.41 0 -0.82 0 -1.23 l 0.53 -0.07 c 0.85 -0.12 0.77 -0.17 0.86 0.52 c 0.05 0.33 0.09 0.65 0.09 0.72 c 0.01 0.12 -0.09 0.2 -0.16 0.12 m 6.44 -0.29 c 0 -0.07 0.19 -1.36 0.2 -1.38 c 0.04 -0.04 1.29 -0.16 1.31 -0.13 c 0.03 0.03 -0.06 0.86 -0.13 1.26 c -0.02 0.1 -0.1 0.15 -0.3 0.2 c -0.25 0.06 -1.09 0.1 -1.09 0.05 m -2.18 -0.48 c 0.01 -0.47 0.06 -0.82 0.12 -1.32 c 0.45 -0.05 0.93 -0.2 1.32 -0.19 c 0.03 0.28 0.25 1.65 0.08 1.63 c -0.49 -0.16 -1.08 -0.06 -1.52 -0.12 m -0.87 -0.3 c -0.42 -0.1 -0.82 0.01 -1.22 -0.11 c -0.01 -0.47 0.02 -0.83 0.05 -1.33 c 0.42 -0.05 0.86 -0.2 1.28 -0.17 c 0.04 0.58 0.5 1.76 -0.11 1.61 m -3.21 -0.59 c 0 -0.42 -0.01 -0.84 -0.01 -1.26 c 0.37 -0.05 0.73 -0.11 1.1 -0.17 l 0.23 -0.03 c 0.04 0.4 0.05 0.81 0.14 1.21 c 0.06 0.26 0.04 0.35 -0.08 0.33 c -0.48 -0.04 -0.86 -0.05 -1.37 -0.08 m 5.73 -0.86 c -0.02 -0.05 0 -0.38 0.05 -0.73 l 0.08 -0.63 c 0.5 -0.1 0.87 -0.15 1.34 -0.16 c -0.11 0.47 -0.07 1.02 -0.21 1.39 c -0.32 0.14 -0.64 0.13 -0.99 0.18 c -0.18 0.03 -0.24 0.01 -0.27 -0.06 m -2.22 -0.42 c -0.01 -0.39 0.08 -0.8 0.09 -1.17 c 0.32 -0.35 0.68 -0.27 1.27 -0.33 c 0.14 0.42 0.1 0.84 0.18 1.3 l 0.05 0.26 h -0.78 c -0.43 0 -0.8 -0.03 -0.81 -0.05 m -1.47 -0.36 c -0.53 -0.03 -0.55 -0.04 -0.55 -0.17 c 0.01 -0.41 0.02 -0.74 0.03 -1.16 c 0.42 -0.04 0.86 -0.15 1.28 -0.13 c 0.4 1.47 0.24 1.53 -0.76 1.46 m 3.1 -1.34 c 0.05 -0.45 0 -1.02 0.14 -1.41 c 0.46 -0.07 0.82 -0.08 1.31 -0.11 l -0.04 0.46 c -0.07 0.82 -0.1 0.92 -0.25 0.98 c -0.21 0.08 -1.13 0.15 -1.16 0.09 m -2.15 -0.34 c 0.05 -0.45 0.02 -0.92 0.12 -1.36 c 0.04 -0.03 1 -0.17 1.22 -0.17 c 0.16 0.5 0.15 1.09 0.23 1.6 l -0.21 -0.01 c -0.48 -0.02 -0.87 -0.04 -1.36 -0.05" style="fill:#272727"/><path d="m 12.1 13.33 c 0 0.8 -0.65 1.45 -1.46 1.45 c -0.81 0 -1.46 -0.65 -1.46 -1.45 c 0 -0.8 0.65 -1.44 1.46 -1.44 c 0.81 0 1.46 0.64 1.46 1.44" style="fill:#4581b3"/><path d="m 11.49 11.29 c 0.02 -0.41 0.04 -0.81 0.06 -1.21 c 0.4 -0.07 1.26 -0.45 1.35 -0.04 c 0.07 0.36 0.17 1.35 0.13 1.33 c -0.54 -0.05 -0.96 -0.05 -1.54 -0.08" style="fill:#bb423f"/><g style="fill:#b9b918"><path d="m 3.22 15.2 c -0.11 -0.46 -0.15 -0.84 -0.21 -1.32 l 0.68 -0.16 c 0.37 -0.09 0.76 -0.13 0.84 -0.1 c 0.2 0.09 0.34 1.11 0.18 1.32 c -0.39 0.29 -0.85 0.21 -1.3 0.39 c -0.07 0.03 -0.17 -0.02 -0.2 -0.12"/><path d="m 15.2 17.79 c 0.05 -0.07 1.53 -0.55 1.68 -0.55 c 0.19 0.3 0.25 1.33 -0.06 1.54 c -0.17 0.11 -1.56 0.53 -1.74 0.53 c -0.03 -0.53 0.01 -0.97 0.13 -1.52"/></g></svg>