<svg xmlns="http://www.w3.org/2000/svg" viewBox="0 0 24 24"><path d="m 3.62 4.5 c -14.97 21.28 23.97 28.1 20.1 5.44 c -2.05 -8.99 -14.1 -13.97 -20.1 -5.44" style="fill:#2e3436"/><path d="m 19.59 12.64 c 0 4.15 -3.36 7.52 -7.51 7.52 c -4.15 0 -7.51 -3.37 -7.51 -7.52 c 0 -4.15 3.36 -7.52 7.51 -7.52 c 4.15 0 7.51 3.37 7.51 7.52" style="fill:#1970d6"/><path d="m 10.88 20.1 c -2.58 -0.43 -4.81 -2.24 -5.77 -4.66 c -0.19 -0.61 -0.83 -2.76 -0.43 -3 c 0.21 -0.14 0.89 -0.25 1.74 -0.29 c 0.74 -0.04 0.8 -0.05 1.29 -0.25 c 1.63 -0.68 2.81 -1.78 3.51 -3.25 c 0.29 -0.43 0.24 -0.84 0.24 -1.34 c 0 -1.12 0.17 -2.02 0.4 -2.14 c 0.15 -0.08 1.32 0.03 1.95 0.17 c 2.53 0.59 4.61 2.51 5.43 5 c 0.22 0.69 0.31 1.16 0.34 1.94 c 0.03 0.71 0.03 0.73 -0.09 0.8 c -0.25 0.14 -1.18 0.28 -1.79 0.28 c -0.54 0 -0.65 0.02 -1.04 0.17 c -1.36 0.54 -2.52 1.42 -3.21 2.44 c -0.5 0.7 -0.79 1.52 -0.8 2.27 c -0.02 0.76 -0.11 1.52 -0.23 1.82 c -0.38 0.3 -0.91 0.16 -1.52 0.07" style="fill:#fff"/></svg>