<svg xmlns="http://www.w3.org/2000/svg" viewBox="0 0 24 24"><path d="m 0.58 9.43 c 7.37 -22.3 36.73 1.64 15.99 12.98 c -8.11 4.86 -19.79 -1.51 -15.99 -12.98" style="fill:#f4f4f4"/><path d="m 19.1 12.58 c 0 4.08 -3.43 7.39 -7.65 7.39 c -4.23 0 -7.65 -3.3 -7.65 -7.39 c 0 -4.08 3.42 -7.39 7.65 -7.39 c 4.22 0 7.65 3.31 7.65 7.39" style="fill:#cccdcd"/><path d="m 12.48 19.68 c -0.07 -0.07 -0.27 -0.34 -0.43 -0.58 c -0.26 -0.38 -0.34 -0.45 -0.55 -0.51 c -0.14 -0.04 -0.37 -0.12 -0.51 -0.18 c -0.14 -0.06 -0.29 -0.11 -0.33 -0.11 c -0.13 0 -0.97 -0.29 -1.42 -0.49 l -0.43 -0.18 l -0.41 0.13 c -0.23 0.07 -0.51 0.18 -0.63 0.25 c -0.29 0.16 -0.73 0.29 -1.01 0.29 c -0.2 0 -0.29 -0.05 -0.71 -0.47 c -0.61 -0.59 -0.96 -1.07 -1.3 -1.75 c -0.25 -0.51 -0.26 -0.57 -0.26 -1.07 c 0 -0.48 0.03 -0.57 0.25 -1.03 c 0.15 -0.3 0.24 -0.58 0.24 -0.71 c 0 -0.12 -0.02 -0.82 -0.05 -1.57 l -0.04 -1.36 l -0.18 -0.15 c -0.24 -0.2 -0.24 -0.35 0.04 -0.89 c 0.7 -1.34 1.73 -2.43 2.98 -3.11 c 0.6 -0.33 0.78 -0.38 0.84 -0.21 c 0.02 0.07 0 0.2 -0.05 0.29 c -0.11 0.2 -0.33 1.36 -0.28 1.48 c 0.02 0.05 0.17 0.12 0.34 0.17 c 0.17 0.05 0.63 0.22 1.03 0.38 c 0.39 0.16 0.75 0.29 0.79 0.29 c 0.09 0 2.72 -0.83 2.84 -0.89 c 0.09 -0.05 0.38 -0.91 0.38 -1.15 c 0 -0.19 -0.43 -0.52 -1.04 -0.8 c -0.54 -0.25 -0.66 -0.35 -0.53 -0.43 c 0.15 -0.09 1.25 0.1 2 0.34 c 0.53 0.17 1.52 0.66 1.67 0.82 c 0.05 0.06 0.08 0.14 0.05 0.18 c -0.05 0.07 -0.09 0.07 -1.07 -0.04 c -0.45 -0.05 -0.43 -0.07 -0.65 0.69 c -0.11 0.4 -0.13 0.53 -0.07 0.64 c 0.04 0.07 0.47 0.61 0.96 1.19 c 0.81 0.96 0.92 1.07 1.14 1.11 c 0.14 0.03 0.54 0.14 0.9 0.23 c 0.36 0.1 0.67 0.16 0.7 0.13 c 0.07 -0.07 0.25 -0.69 0.25 -0.88 c 0 -0.24 0.13 -0.48 0.25 -0.46 c 0.13 0.02 0.27 0.31 0.46 0.93 c 0.21 0.66 0.27 0.96 0.36 1.86 c 0.07 0.67 0.07 0.88 -0.02 1.58 c -0.13 1 -0.2 1.24 -0.39 1.34 c -0.08 0.04 -0.29 0.28 -0.46 0.53 c -0.17 0.25 -0.43 0.58 -0.56 0.73 c -0.33 0.36 -0.37 0.45 -0.42 0.91 c -0.06 0.52 -0.12 0.65 -0.39 0.93 c -0.7 0.7 -1.97 1.34 -3.19 1.62 c -0.7 0.16 -0.91 0.15 -1.07 -0.02 m -0.12 -2.18 c 0.28 -0.24 0.8 -0.67 1.16 -0.96 l 0.64 -0.51 l -0.04 -0.47 c -0.05 -0.55 -0.31 -1.71 -0.43 -1.88 c -0.05 -0.08 -0.53 -0.27 -1.49 -0.59 c -0.77 -0.26 -1.45 -0.49 -1.51 -0.51 c -0.07 -0.03 -0.39 0.2 -1.21 0.91 c -0.61 0.52 -1.1 0.98 -1.1 1.02 c 0 0.34 0.51 2.27 0.66 2.5 c 0.11 0.16 1 0.53 1.79 0.73 c 0.33 0.08 0.61 0.16 0.62 0.18 c 0.02 0.02 0.11 0.02 0.21 0.02 c 0.14 0 0.31 -0.1 0.7 -0.44 m 4.67 -1.8 c 0.36 -0.42 0.61 -0.77 0.84 -1.16 c 0.13 -0.23 0.16 -0.39 0.2 -1 c 0.05 -0.75 0.02 -0.94 -0.23 -1.78 c -0.13 -0.43 -0.14 -0.43 -0.68 -0.59 c -0.28 -0.08 -1.18 -0.31 -1.21 -0.31 c -0.01 0 -0.23 0.32 -0.48 0.71 c -0.25 0.39 -0.63 0.95 -0.83 1.25 c -0.26 0.38 -0.36 0.57 -0.34 0.66 c 0.02 0.07 0.09 0.36 0.16 0.64 c 0.07 0.28 0.18 0.78 0.24 1.12 l 0.11 0.62 l 0.53 0.1 c 0.29 0.05 0.72 0.1 0.95 0.11 h 0.42 m -7.65 -3 c 0.55 -0.48 1.03 -0.91 1.05 -0.95 c 0.05 -0.08 0.04 -2.74 -0.02 -2.87 c -0.05 -0.14 -1.94 -0.88 -2.23 -0.88 c -0.24 0 -1.78 1.26 -2.18 1.78 l -0.18 0.24 v 1.04 c 0 0.57 0.02 1.16 0.05 1.31 c 0.04 0.25 0.07 0.28 0.39 0.45 c 0.43 0.23 1.8 0.75 1.98 0.75 c 0.09 0 0.46 -0.28 1.14 -0.87" style="fill:#464c4e"/></svg>