<svg xmlns="http://www.w3.org/2000/svg" viewBox="0 0 24 24"><path d="m 7.54 22.87 c 29.2 9 14.59 -39.4 -5.41 -16.77 c -4 4.54 -2.46 14.34 5.41 16.77" style="fill:#85ddca"/><path d="m 62.84 1 c -4.68 0.09 -9.4 0.71 -13.96 1.83 c -10.15 2.51 -19.62 7.56 -27.35 14.62 c -4.28 3.9 -8.11 8.49 -11.16 13.45 c -5.19 8.4 -8.36 18.1 -9.18 27.97 c -0.28 3.84 -0.25 7.84 0.16 11.71 c 0.97 9.39 4.09 18.53 9.1 26.58 c 6.1 9.79 14.9 17.91 25.31 23.1 c 11.85 6 25.69 8.12 38.83 5.86 c 9.9 -1.67 19.55 -5.82 27.57 -11.93 c 12.14 -9.2 20.72 -22.83 23.67 -37.79 c 1.48 -7.4 1.63 -15.1 0.44 -22.46 c -1.35 -8.3 -4.4 -16.48 -8.93 -23.58 c -7.23 -11.46 -18.2 -20.48 -30.87 -25.28 c -4.97 -1.89 -10.15 -3.16 -15.34 -3.72 c -2.74 -0.28 -5.44 -0.43 -8.17 -0.37 m -3.52 11.15 c 1.19 0.03 1.6 1.3 2 2.23 c 1.98 4.24 3.99 8.52 6 12.79 c 1.7 0.19 3.4 0.46 5.09 0.87 c 3.68 -3.84 7.33 -7.71 11.1 -11.49 c 1 -0.71 2.07 0.15 2.92 0.65 c 2.8 1.67 5.66 3.22 8.39 4.93 c 0.88 0.9 0.19 2.14 -0.06 3.13 c -1.29 4.49 -2.61 8.95 -3.9 13.41 c 1.16 1.27 2.26 2.6 3.27 4 c 5.28 -0.43 10.56 -0.93 15.84 -1.3 c 1.13 0.09 1.48 1.3 1.73 2.2 c 1 3.1 2.14 6.16 3.05 9.29 c 0.13 1.15 -1.1 1.83 -2.11 1.86 c -6.89 1.46 -13.74 2.91 -20.62 4.37 c -1.19 -6.6 -4.72 -12.79 -9.93 -17 c -5.78 -4.8 -13.49 -7.19 -20.94 -6.41 c -2.36 0.25 -4.68 0.81 -6.95 1.55 c -2.3 -7.09 -4.62 -14.1 -6.85 -21.2 c -0.16 -1.12 1 -1.92 2.04 -1.92 c 3.3 -0.62 6.6 -1.36 9.93 -1.95 m -29.49 13.17 c 1.23 0.19 1.76 1.49 2.61 2.26 c 4.37 4.86 8.74 9.73 13.1 14.56 c -3.8 3.25 -6.79 7.47 -8.49 12.14 c -1.89 5.27 -2.23 11.25 -0.82 16.73 c 1.38 5.61 4.97 11.1 9.31 14.9 c 0 0 -0.47 0.4 -1.13 1.15 c -3.52 4 -7.14 7.93 -10.69 11.9 c -1.1 1.18 -2.11 2.45 -3.27 3.53 c -1 0.59 -2.14 -0.19 -2.64 -1.05 c -2.2 -2.48 -4.4 -4.93 -6.54 -7.44 c -0.63 -1.05 0.31 -2.08 0.88 -2.88 l 8.11 -11.62 c -0.72 -1.58 -1.32 -3.19 -1.82 -4.86 c -5.16 -1.27 -10.31 -2.48 -15.47 -3.81 c -1.1 -0.53 -0.91 -1.86 -0.91 -2.88 c 0.03 -3.22 -0.03 -6.44 0.06 -9.67 c 0.22 -1.18 1.57 -1.33 2.55 -1.55 c 4.59 -1.15 9.18 -2.23 13.77 -3.38 c 0.5 -1.64 1.1 -3.25 1.82 -4.83 c -2.99 -4.37 -6.07 -8.71 -8.99 -13.1 c -0.5 -1.12 0.53 -2 1.23 -2.73 c 2.11 -2.39 4.15 -4.83 6.35 -7.13 c 0.31 -0.19 0.66 -0.31 1.04 -0.25 m 62.5 43.77 c 7.14 1.55 14.27 2.97 21.41 4.58 c 0.47 0.09 0.47 0.87 1.04 0.71 c 0.31 0.25 -0.31 1.08 -0.35 1.55 c -1.13 3.35 -2.2 6.69 -3.43 9.98 c -0.6 1.05 -1.89 0.77 -2.89 0.68 c -4.72 -0.4 -9.43 -0.81 -14.1 -1.21 c -1 1.43 -2.11 2.76 -3.3 4 c 1.48 5.11 3 10.19 4.43 15.33 c 0.06 1.24 -1.26 1.73 -2.14 2.23 c -2.8 1.58 -5.56 3.28 -8.39 4.77 c -1.23 0.34 -1.98 -0.9 -2.7 -1.61 c -3.21 -3.35 -6.44 -6.72 -9.68 -10.1 c -1.67 0.4 -3.36 0.68 -5.09 0.84 c -2.26 4.8 -4.5 9.6 -6.79 14.37 c -0.72 0.99 -2.04 0.56 -3 0.34 c -3.11 -0.68 -6.29 -1.21 -9.37 -2 c -1 -0.5 -0.97 -1.86 -0.5 -2.73 c 2.17 -6.66 4.37 -13.35 6.54 -19.98 c 6.1 2.2 12.98 2.29 19.1 0.12 c 7.39 -2.54 13.64 -8.24 16.76 -15.46 c 0.91 -2.08 1.54 -4.28 1.98 -6.51 c 0.16 0.03 0.35 0.06 0.5 0.09" transform="matrix(0.124 0 0 0.126 4.19 4.35)" style="fill:#0078c1;stroke:#7fcfff"/><path d="m 16.2 13.19 c 1.98 0 3.58 1.59 3.58 3.56 v 0.15 c 0 1.96 -1.6 3.56 -3.58 3.56 c -1.98 0 -3.58 -1.6 -3.58 -3.56 v -0.15 c 0 -1.97 1.6 -3.56 3.58 -3.56" style="fill:#fff"/><path d="m 12.62 16.73 c 0 0.03 0 0.06 0 0.09 c 0 2 1.6 3.64 3.58 3.64 c 1.99 0 3.59 -1.62 3.59 -3.64 c 0 -0.03 0 -0.06 0 -0.09 c -0.05 1.98 -1.63 3.55 -3.58 3.55 c -1.95 0 -3.53 -1.57 -3.58 -3.55" style="fill:#99a1a6"/><g style="fill:#2d4564"><path d="m 16.45 14 c -0.54 0 -1.04 0.15 -0.84 0.49 c 0.32 0.53 0.36 1.1 0.37 1.29 c 0.07 -0.02 0.15 -0.03 0.23 -0.03 c 0.49 0 0.91 0.35 0.99 0.83 c 1.02 -0.51 1.24 -1.81 0.11 -2.39 c -0.2 -0.12 -0.54 -0.18 -0.86 -0.18 m -1.81 1.7 c -0.68 0.02 -1.27 0.51 -1.23 1.37 c 0 0.62 0.81 1.84 1.12 1.3 c 0.3 -0.54 0.79 -0.86 0.95 -0.96 c -0.17 -0.18 -0.27 -0.43 -0.27 -0.67 c 0 -0.3 0.14 -0.58 0.37 -0.77 c -0.3 -0.19 -0.63 -0.28 -0.93 -0.27 m 2.53 1.32 c -0.13 0.41 -0.52 0.7 -0.96 0.7 c -0.12 0 -0.24 -0.03 -0.36 -0.07 c -0.07 1.13 0.97 1.97 2.05 1.3 c 0.54 -0.31 1.2 -1.61 0.58 -1.6 c -0.63 0.01 -1.16 -0.25 -1.32 -0.33"/><path d="m 16.8 16.77 c 0 -0.33 -0.27 -0.59 -0.6 -0.59 c -0.34 0 -0.61 0.27 -0.61 0.59 c 0 0.33 0.27 0.59 0.61 0.59 c 0.33 0 0.6 -0.27 0.6 -0.59"/></g></svg>