<svg xmlns="http://www.w3.org/2000/svg" viewBox="0 0 24 24"><path d="m 3.07 18.36 c -15.1 -23.85 32.49 -24.98 18.2 -0.39 c -3.79 6.33 -12.68 9.41 -18.2 0.39" style="fill:#707f8f"/><path d="m 11.1 18.95 v -0.48 l -0.46 -0.03 l -0.45 -0.03 l -0.03 -0.43 l -0.03 -0.44 l -0.45 -0.03 l -0.45 -0.03 l -0.03 -0.44 l -0.03 -0.43 l -0.45 -0.03 l -0.46 -0.03 l -0.03 -0.44 l -0.03 -0.44 l -0.46 -0.03 l -0.45 -0.03 l -0.06 -0.88 l -0.45 -0.03 l -0.45 -0.03 l -0.03 -0.9 l -0.03 -0.9 l -0.45 -0.03 l -0.46 -0.03 v -4.48 l 0.46 -0.03 l 0.45 -0.03 l 0.03 -0.43 l 0.03 -0.44 l 0.45 -0.03 l 0.45 -0.03 l 0.03 -0.44 l 0.03 -0.43 l 0.45 -0.03 l 0.46 -0.03 l 0.03 -0.44 l 0.03 -0.43 h 7.58 l 0.03 0.43 l 0.03 0.44 l 0.45 0.03 l 0.46 0.03 l 0.03 0.43 l 0.03 0.44 l 0.46 0.03 l 0.45 0.03 l 0.03 0.44 l 0.03 0.43 l 0.46 0.03 l 0.45 0.03 v 4.48 l -0.45 0.03 l -0.46 0.03 l -0.03 0.9 l -0.03 0.9 l -0.45 0.03 l -0.46 0.03 l -0.03 0.44 l -0.03 0.44 l -0.46 0.03 l -0.45 0.03 l -0.06 0.87 l -0.45 0.03 l -0.46 0.03 l -0.03 0.43 l -0.03 0.44 l -0.45 0.03 l -0.46 0.03 l -0.03 0.44 l -0.03 0.43 l -0.46 0.03 l -0.45 0.03 v 0.96 h -1.88 m -0.05 -8.39 l 0.02 -0.92 h 0.96 l 0.02 0.45 l 0.02 0.45 l 0.47 0.02 l 0.46 0.02 l 0.02 0.45 l 0.02 0.45 h 0.91 v -0.87 l -0.46 -0.02 l -0.47 -0.02 l -0.02 -0.45 l -0.02 -0.45 l -0.47 -0.02 l -0.47 -0.02 v -0.92 l 0.47 -0.02 l 0.47 -0.02 l 0.02 -0.45 l 0.02 -0.45 l 0.47 -0.02 l 0.46 -0.02 v -0.87 h -0.91 l -0.02 0.45 l -0.02 0.45 l -0.46 0.02 l -0.47 0.02 l -0.02 0.45 l -0.02 0.45 h -0.96 l -0.02 -0.91 l -0.02 -0.92 h -0.91 l -0.02 2.24 c -0.01 1.23 0 2.27 0.02 2.32 c 0.02 0.05 0.15 0.07 0.47 0.06 l 0.44 -0.02" style="fill:#0029c8"/></svg>