<svg xmlns="http://www.w3.org/2000/svg" viewBox="0 0 24 24"><path d="m 21.95 17.66 c 6.46 -8.63 -3.87 -19.1 -12.2 -17.33 c -8.2 1.07 -13.14 13.54 -6.8 19.87 c 4.63 4.55 12.54 6.08 19 -2.54" style="fill:#86cefa"/><path d="m 18.98 12.23 c 0 3.99 -3.29 7.22 -7.33 7.22 c -4.05 0 -7.33 -3.23 -7.33 -7.22 c 0 -3.99 3.28 -7.22 7.33 -7.22 c 4.05 0 7.33 3.23 7.33 7.22" style="fill:#1e8fff"/><path d="m 7.21 8.7 v 7 h 1.93 v -1.8 l 0.64 -0.82 l 1.6 2.63 h 2.3 l -2.46 -3.88 l 2.4 -3.12 h -2.25 l -2.14 2.83 h -0.1 v -2.83 m 6.84 1.66 h -1.9 v 5.35 h 1.9" style="fill:#f4f4f4;fill-rule:evenodd"/><path d="m 15.99 9.15 c 0 0.52 -0.43 0.94 -0.95 0.94 c -0.53 0 -0.95 -0.42 -0.95 -0.94 c 0 -0.52 0.43 -0.93 0.95 -0.93 c 0.52 0 0.95 0.42 0.95 0.93" style="fill:#ff6c00"/></svg>