<svg xmlns="http://www.w3.org/2000/svg" viewBox="0 0 24 24"><path d="m 19.36 2.7 c -14.75 -11.13 -28.82 16.59 -10.89 20.64 c 11.35 4.16 21.8 -12.39 10.89 -20.64" style="fill:#a42929"/><path d="m 6.8 7.45 v 4.7 h 4.8 v -4.7 m 0.96 0 v 4.7 h 4.8 v -4.7 m -9.6 0.94 h 2.88 v 2.82 h -2.88 m 5.76 -2.82 h 2.88 v 2.82 h -2.88 m -6.72 1.88 v 4.7 h 4.8 v -4.7 m 0.96 0 v 0.94 h 0.96 v -0.94 m 0 0.94 v 0.94 h 0.96 v -0.94 m 0 0 h 0.96 v -0.94 h -0.96 m 0.96 0.94 v 0.94 h 0.96 v -0.94 m 0 0 h 0.96 v -0.94 h -0.96 m 0 1.88 v 0.94 h 0.96 v -0.94 m -0.96 0.94 h -0.96 v 0.94 h 0.96 m 0 0 v 0.94 h 0.96 v -0.94 m -1.92 0 h -0.96 v 0.94 h 0.96 m -0.96 -0.94 v -0.94 h -0.96 v 0.94 m 0 0 h -0.96 v 0.94 h 0.96 m 0 -1.88 v -0.94 h -0.96 v 0.94 m 1.92 0 h 0.96 v -0.94 h -0.96 m -6.72 -0.94 h 2.88 v 2.82 h -2.88" style="fill-opacity:0.1"/><path d="m 6.8 6.98 v 4.7 h 4.8 v -4.7 m 0.96 0 v 4.7 h 4.8 v -4.7 m -9.6 0.94 h 2.88 v 2.82 h -2.88 m 5.76 -2.82 h 2.88 v 2.82 h -2.88 m -6.72 1.88 v 4.7 h 4.8 v -4.7 m 0.96 0 v 0.94 h 0.96 v -0.94 m 0 0.94 v 0.94 h 0.96 v -0.94 m 0 0 h 0.96 v -0.94 h -0.96 m 0.96 0.94 v 0.94 h 0.96 v -0.94 m 0 0 h 0.96 v -0.94 h -0.96 m 0 1.88 v 0.94 h 0.96 v -0.94 m -0.96 0.94 h -0.96 v 0.94 h 0.96 m 0 0 v 0.94 h 0.96 v -0.94 m -1.92 0 h -0.96 v 0.94 h 0.96 m -0.96 -0.94 v -0.94 h -0.96 v 0.94 m 0 0 h -0.96 v 0.94 h 0.96 m 0 -1.88 v -0.94 h -0.96 v 0.94 m 1.92 0 h 0.96 v -0.94 h -0.96 m -6.72 -0.94 h 2.88 v 2.82 h -2.88" style="fill:#f9f9f9"/></svg>