<svg xmlns="http://www.w3.org/2000/svg" viewBox="0 0 24 24"><path d="m 23.89 11.94 c 1.81 -15.89 -24.1 -15.66 -23.77 0.28 c -0.86 14.84 25.2 16.2 23.77 -0.28" style="fill:#00c00f"/><path d="m 6.91 8 h 11.2 c 0.84 0 1.52 0.68 1.52 1.52 v 6.46 c 0 0.84 -0.68 1.52 -1.52 1.52 h -11.2 c -0.84 0 -1.52 -0.68 -1.52 -1.52 v -6.46 c 0 -0.84 0.68 -1.52 1.52 -1.52" style="fill:#814b14"/><g style="fill:#def606"><path d="m 11.29 12.25 c -0.31 -0.31 -0.28 -0.64 0.08 -0.85 c 0.23 -0.13 0.45 -0.16 1.91 -0.2 c 0.91 -0.03 1.81 -0.05 2 -0.06 c 0.45 -0.01 0.46 -0.1 0.04 -0.61 c -0.52 -0.63 -0.58 -0.74 -0.58 -1.04 c 0 -0.51 0.52 -0.65 1.05 -0.28 c 0.12 0.08 0.55 0.52 0.95 0.98 c 1.29 1.46 1.33 1.54 0.96 2 l -0.2 0.26 h -6"/><path d="m 17.48 13.38 c 0.31 0.31 0.28 0.64 -0.08 0.85 c -0.23 0.13 -0.45 0.15 -1.91 0.2 c -0.91 0.03 -1.81 0.05 -2 0.06 c -0.45 0.01 -0.46 0.1 -0.04 0.61 c 0.51 0.63 0.58 0.74 0.58 1.04 c 0 0.51 -0.53 0.65 -1.05 0.28 c -0.12 -0.09 -0.55 -0.53 -0.95 -0.98 c -1.29 -1.46 -1.33 -1.54 -0.96 -2 l 0.2 -0.26 h 6"/></g><path d="m 5.79 10.56 h 2.21 c 0.84 0 1.52 0.68 1.52 1.52 v 1.34 c 0 0.84 -0.68 1.52 -1.52 1.52 h -2.21 c -0.84 0 -1.51 -0.68 -1.51 -1.52 v -1.34 c 0 -0.84 0.68 -1.52 1.51 -1.52" style="fill:#ab825a;fill-opacity:0.98"/><path d="m 8.77 12.86 c 0 0.53 -0.45 0.96 -1.01 0.96 c -0.56 0 -1.01 -0.43 -1.01 -0.96 c 0 -0.54 0.45 -0.96 1.01 -0.96 c 0.56 0 1.01 0.43 1.01 0.96" style="fill:#def606"/></svg>