<svg xmlns="http://www.w3.org/2000/svg" viewBox="0 0 24 24"><path d="m 15.91 23.1 c -11.95 4.66 -18.1 -8.4 -15 -16.52 c 2.13 -5.67 10.59 -8.5 17.44 -4.47 c 8.63 5.08 6.8 17.4 -2.41 20.99" style="fill:#70706e"/><path d="m 20 12.26 c 0 4.36 -3.61 7.89 -8.1 7.89 c -4.45 0 -8.1 -3.54 -8.1 -7.89 c 0 -4.36 3.61 -7.89 8.1 -7.89 c 4.45 0 8.1 3.54 8.1 7.89" style="fill:#4e4e4e"/><g style="fill:#fff"><path d="m 14.87 17.44 c 1.85 -1 3.11 -2.95 3.11 -5.18 c 0 -3.27 -2.71 -5.92 -6 -5.92 c -3.34 0 -6 2.66 -6 5.92 c 0 2.23 1.26 4.16 3.11 5.18 c -1.48 -0.94 -2.46 -2.58 -2.46 -4.42 c 0 -2.91 2.41 -5.28 5.39 -5.28 c 2.97 0 5.39 2.36 5.39 5.28 c 0 1.86 -0.98 3.48 -2.46 4.42"/><path d="m 16.1 14.91 c 0.28 -0.57 0.43 -1.23 0.43 -1.91 c 0 -2.46 -2 -4.44 -4.54 -4.44 c -2.51 0 -4.53 1.97 -4.53 4.44 c 0 0.68 0.16 1.32 0.43 1.91 c -0.07 -0.31 -0.11 -0.63 -0.11 -0.96 c 0 -2.28 1.88 -4.13 4.21 -4.13 c 2.33 0 4.21 1.85 4.21 4.13 c 0 0.32 -0.04 0.65 -0.11 0.96"/><path d="m 11.94 16.73 c 1.63 0 2.96 -1.29 2.96 -2.9 c 0 -0.56 -0.16 -1.1 -0.45 -1.54 c 0.63 0.62 1.02 1.48 1.02 2.43 c 0 1.91 -1.58 3.45 -3.52 3.45 c -1.95 0 -3.53 -1.55 -3.53 -3.45 c 0 -0.95 0.39 -1.8 1.02 -2.43 c -0.29 0.44 -0.45 0.98 -0.45 1.54 c 0 1.6 1.32 2.9 2.96 2.9"/><path d="m 13.95 13.25 c 0 1.09 -0.91 1.97 -2 1.97 c -1.11 0 -2 -0.89 -2 -1.97 c 0 -1.09 0.91 -1.98 2 -1.98 c 1.11 0 2 0.89 2 1.98"/></g></svg>