<svg xmlns="http://www.w3.org/2000/svg" viewBox="0 0 24 24"><path d="m 11.67 23.87 c -2.47 -0.19 -5.31 -1.37 -7.25 -3 c -2.36 -2 -4 -5.06 -4.36 -8.1 c -0.39 -3.99 2.13 -8.28 4.84 -10.31 c 1.36 -0.99 3.14 -1.78 4.79 -2.13 c 4.29 -0.9 8.64 0.8 11.5 4.5 c 1.72 2.21 2.55 4.45 2.66 7.09 c 0.13 3.17 -1.29 6.56 -3.68 8.85 c -2.7 2.16 -5.44 3.32 -8.51 3.1" style="fill:#4494cf"/><path d="m 6.83 6.99 v 2.8 l 2.55 3.26 l 1.16 -6.1 m 0.46 0 l -0.58 3.26 l 6.84 -3.26 m 0.7 0.23 l -5.1 2.45 l 5.1 2.45 m -11.13 -1.4 v 4.66 h 3.71 m 4.41 -4.19 l 1.62 6.99 h 1.39 v -5.59 m -2.78 1.63 l -3.25 3.96 h 4.17 m -9.27 -2.33 v 2.33 h 4.41 l 1.86 -2.33" style="fill-opacity:0.1"/><path d="m 6.36 6.52 v 2.79 l 2.55 3.27 l 1.16 -6.1 m 0.46 0 l -0.58 3.26 l 6.84 -3.26 m 0.7 0.23 l -5.1 2.45 l 5.1 2.45 m -11.13 -1.4 v 4.66 h 3.71 m 4.41 -4.2 l 1.62 6.99 h 1.39 v -5.59 m -2.78 1.63 l -3.25 3.96 h 4.18 m -9.28 -2.33 v 2.33 h 4.41 l 1.86 -2.33" style="fill:#f9f9f9"/></svg>