<svg xmlns="http://www.w3.org/2000/svg" viewBox="0 0 24 24"><path d="m 0.52 14.66 c 1.47 9.64 14.56 12.22 20.34 5.34 c 5.09 -5.11 3.82 -14.9 -2.42 -18.25 c -7.17 -4.49 -17.61 1.06 -18.2 10 c -0.06 0.98 0.02 1.97 0.26 2.92" style="fill:#299fdf"/><g style="fill:#fff"><path d="m 11.25 18.95 c -3.11 -0.32 -5.64 -2.8 -6 -5.87 c -0.25 -2.11 0.43 -4.1 1.89 -5.57 c 0.55 -0.56 1.07 -0.93 1.88 -1.33 c 1.98 -1 4.5 -0.87 6.43 0.34 c 0.63 0.39 1.48 1.18 1.86 1.71 c 0.35 0.49 0.93 1.65 1.09 2.19 c 0.28 0.91 0.28 2.55 0 3.61 c -0.57 2.19 -2.57 4.17 -4.77 4.73 c -0.78 0.18 -1.66 0.28 -2.39 0.2 m 2.11 -1.55 c 1.48 -0.47 2.66 -1.45 3.29 -2.73 c 0.53 -1.37 0.78 -2.63 0.39 -3.91 c -0.44 -1.41 -1.39 -2.57 -2.62 -3.21 c -1.45 -0.66 -2.89 -0.82 -4.14 -0.39 c -1.48 0.51 -2.56 1.47 -3.21 2.85 c -0.61 1.53 -0.63 3.08 -0.03 4.42 c 0.4 0.89 1.16 1.78 1.94 2.29 c 0.5 0.33 1.26 0.65 1.82 0.77 c 0.62 0.13 2 0.08 2.55 -0.09"/><path d="m 11.18 15.75 c -0.45 -0.11 -0.79 -0.24 -1.09 -0.42 c -0.29 -0.17 -0.64 -0.48 -0.64 -0.57 c 0 -0.09 0.57 -0.69 0.74 -0.78 c 0.14 -0.08 0.2 -0.06 0.71 0.18 c 0.68 0.34 1.35 0.34 1.91 0.07 c 0.88 -0.43 1.36 -1.26 1.29 -2.18 c -0.07 -0.82 -0.5 -1.43 -1.27 -1.79 c -0.69 -0.32 -1.36 -0.28 -2.11 0.14 c -0.39 0.22 -0.43 0.2 -0.94 -0.32 l -0.35 -0.36 l 0.31 -0.29 c 1.12 -1.04 3.18 -1.03 4.43 0.01 c 0.59 0.48 1.09 1.28 1.26 1.99 c 0.09 0.38 0.1 1.18 0 1.56 c -0.21 0.87 -0.91 1.86 -1.64 2.29 c -0.83 0.36 -1.82 0.64 -2.61 0.46"/></g></svg>