<svg xmlns="http://www.w3.org/2000/svg" viewBox="0 0 24 24"><path d="m 0.78 8.7 c -4.48 12.51 11.63 18.59 17.67 13.5 c 6 -5.09 8.12 -13.82 1.27 -18.21 c -6.86 -4.39 -14.46 -7.8 -18.94 4.72" style="fill:#10121a"/><g style="fill:#78a4f6"><path d="m 12.26 16 l 1.34 -0.55 c 2.42 -0.98 2.11 -0.91 2.23 -3.32 l 0.11 -1.98 l 1.03 -0.46 c 2.08 -0.92 2 -2.02 2 2.42 c 0 3 -0.13 4.87 -0.38 5.07 c -1.29 0.8 -5.65 2.17 -6.31 2.43 c -0.18 -1.2 -0.06 -2.22 -0.03 -3.61"/><path d="m 15.1 9.75 l -1.34 0.55 c -2.42 0.98 -2.11 0.91 -2.23 3.32 l -0.11 1.98 l -1.03 0.46 c -2.46 1.09 -2 2.02 -2 -2.42 c 0 -3 0.04 -4.81 0.29 -5 c 1.29 -0.8 5.74 -2.23 6.4 -2.48 c 0.18 1.2 0.06 2.22 0.03 3.61"/></g><path d="m 4.88 15.79 c 0 -2.82 0 -5.63 0 -8.45 c 0.98 0.39 2.14 0.87 3.13 1.27 c 0.07 3 -0.11 4.29 0.07 8.49 c -1.13 -0.46 -1.99 -0.81 -3.2 -1.31" style="fill:#045bf9"/><path d="m 5.25 7.13 c 2.27 -0.99 4.8 -1.74 6.73 -2.47 c 0.38 0.15 2.7 0.91 2.76 1.16 c 0 0.13 -5.37 2.08 -6.36 2.36 c -1.18 -0.12 -2 -0.59 -3.14 -1.06" style="fill:#36455f"/><g style="fill:#045bf9"><path d="m 10.46 18.63 c -2.34 -1.16 -2.2 -1.31 -0.37 -1.99 c 0.78 -0.34 1.57 -0.77 1.63 -0.77 c 0.17 0 0.13 2.51 0.18 3.41 c 0.02 0.45 0.15 -0.07 -1.44 -0.66"/><path d="m 13.53 13.32 c -0.69 -0.28 -1.29 -1.05 -1.41 -1.16 c -0.1 -0.09 -0.34 -0.47 1.77 -1.38 l 1.52 -0.66 v 1.86 c 0 2.11 0.01 2.1 -1.88 1.33"/></g><path d="m 15.74 7.16 c 0.98 0.58 1.93 0.92 2.98 1.34 c -0.92 0.34 -2 0.82 -2.94 1.16 c -0.12 -0.69 -0.42 -2.79 -0.04 -2.5" style="fill:#36455f"/><path d="m 12 12.77 c 0.6 0.31 2.02 1.24 2.79 1.53 c 0.13 0.23 -2.2 1.36 -2.76 1.36 c -0.28 -1 -0.16 -1.81 -0.04 -2.89" style="fill:#fff"/></svg>