<svg xmlns="http://www.w3.org/2000/svg" viewBox="0 0 24 24"><path d="m 5.81 22.2 c -21.1 -18.1 22.25 -35.41 17.8 -7.49 c -0.98 6.12 -12.1 12.36 -17.8 7.49" style="fill:#218b21"/><g style="fill:#ff1414"><path d="m 7.51 11.87 c -0.08 -0.06 -0.07 -0.09 0.24 -0.43 c 0.44 -0.5 0.72 -0.95 0.72 -1.15 c 0 -0.2 -0.5 -1.23 -0.82 -1.7 c -0.12 -0.18 -0.21 -0.34 -0.21 -0.38 c 0 -0.12 0.24 -0.16 0.88 -0.16 h 0.65 l 0.03 0.32 c 0.04 0.37 0.14 0.55 0.32 0.55 c 0.13 0 0.14 -0.04 0.18 -0.48 c 0.04 -0.34 0.1 -0.39 0.43 -0.39 c 0.51 0 0.55 0.16 0.16 0.54 c -0.26 0.26 -0.44 0.54 -0.52 0.81 c -0.07 0.23 0.04 0.52 0.52 1.49 c 0.27 0.55 0.45 0.96 0.43 0.99 c -0.03 0.04 -0.22 0.05 -0.8 0.03 c -0.42 -0.02 -0.77 -0.04 -0.79 -0.05 c -0.01 -0.01 0.02 -0.09 0.05 -0.19 c 0.1 -0.23 0.09 -0.27 -0.03 -0.52 c -0.14 -0.29 -0.25 -0.34 -0.39 -0.18 c -0.13 0.15 -0.18 0.41 -0.12 0.64 c 0.04 0.14 0.03 0.19 -0.02 0.23 c -0.11 0.09 -0.8 0.11 -0.91 0.02"/><path d="m 11.5 11.89 l -0.32 -0.03 v -0.18 c 0.01 -0.1 0.03 -0.52 0.05 -0.92 c 0.04 -0.68 0 -1.97 -0.07 -2.44 c -0.02 -0.16 -0.02 -0.18 0.1 -0.22 c 0.07 -0.03 0.28 -0.05 0.48 -0.05 c 0.31 0 0.39 0.02 0.6 0.14 c 0.13 0.08 0.27 0.14 0.3 0.14 c 0.03 0 0.18 -0.08 0.32 -0.18 c 0.33 -0.22 0.63 -0.24 0.82 -0.05 c 0.18 0.18 0.21 0.55 0.05 0.77 c -0.09 0.14 -0.14 0.16 -0.3 0.18 c -0.13 0.01 -0.26 -0.02 -0.39 -0.08 c -0.24 -0.12 -0.39 -0.09 -0.48 0.09 c -0.11 0.21 -0.17 0.86 -0.16 1.65 c 0.02 0.65 0.03 0.74 0.12 0.9 c 0.09 0.16 0.09 0.18 0.02 0.21 c -0.11 0.06 -0.76 0.09 -1.15 0.06"/><path d="m 15.23 11.96 c -0.09 -0.04 -0.25 -0.13 -0.35 -0.2 c -0.36 -0.28 -0.33 -0.18 -0.35 -1.61 l -0.01 -1.29 l -0.14 -0.26 l -0.13 -0.26 l 0.4 -0.49 c 0.22 -0.27 0.44 -0.57 0.5 -0.68 c 0.05 -0.1 0.15 -0.22 0.21 -0.27 c 0.2 -0.13 0.27 -0.01 0.29 0.5 c 0.01 0.23 0.04 0.46 0.06 0.5 c 0.02 0.04 0.18 0.12 0.34 0.18 c 0.17 0.06 0.33 0.14 0.36 0.17 c 0.08 0.09 -0.13 0.27 -0.41 0.36 c -0.2 0.05 -0.26 0.1 -0.3 0.2 c -0.06 0.16 -0.11 1.66 -0.07 2 c 0.04 0.35 0.11 0.42 0.38 0.45 c 0.27 0.03 0.31 0.12 0.13 0.35 c -0.22 0.29 -0.63 0.43 -0.91 0.32"/></g><g style="fill:#fff"><path d="m 10.85 19.1 c -0.23 -0.08 -0.37 -0.21 -0.62 -0.59 c -0.11 -0.18 -0.27 -0.35 -0.35 -0.39 c -0.08 -0.04 -0.27 -0.16 -0.43 -0.26 c -0.32 -0.21 -0.56 -0.57 -0.74 -1.08 c -0.1 -0.28 -0.11 -0.38 -0.1 -1.11 c 0.01 -1.24 0.18 -1.84 0.62 -2.29 c 0.23 -0.24 0.44 -0.34 0.83 -0.39 c 0.48 -0.07 0.9 -0.01 1.26 0.18 c 0.76 0.39 1.02 0.92 1.06 2.19 c 0.02 0.5 0.01 0.77 -0.05 1.07 c -0.15 0.8 -0.25 0.96 -0.85 1.45 c -0.24 0.19 -0.43 0.37 -0.43 0.41 c 0 0.08 0.21 0.27 0.47 0.41 c 0.34 0.19 0.34 0.35 0 0.45 c -0.23 0.06 -0.46 0.05 -0.67 -0.02 m 0.14 -1.61 c 0.29 -0.17 0.39 -0.45 0.48 -1.29 c 0.06 -0.61 0.06 -0.95 -0.02 -1.59 c -0.08 -0.6 -0.17 -0.81 -0.41 -0.98 c -0.5 -0.34 -1.03 -0.13 -1.21 0.48 c -0.15 0.5 -0.12 2.25 0.05 2.82 c 0.09 0.3 0.36 0.61 0.58 0.66 c 0.2 0.04 0.35 0.02 0.54 -0.1"/><path d="m 13.39 17.63 l -0.24 -0.17 v -2.75 l -0.19 -0.13 c -0.1 -0.07 -0.18 -0.16 -0.18 -0.21 c 0 -0.05 0.09 -0.15 0.2 -0.23 c 0.15 -0.11 0.25 -0.24 0.37 -0.48 c 0.13 -0.26 0.2 -0.34 0.29 -0.37 c 0.26 -0.06 0.39 0.14 0.39 0.59 c 0 0.19 0.02 0.31 0.05 0.31 c 0.11 0 0.51 0.2 0.51 0.25 c 0 0.05 -0.4 0.25 -0.5 0.25 c -0.07 0 -0.11 0.77 -0.09 1.68 c 0.02 0.91 0.03 0.95 0.35 0.95 c 0.14 0 0.29 0.1 0.29 0.18 c 0 0.14 -0.39 0.28 -0.77 0.28 c -0.2 0 -0.28 -0.03 -0.48 -0.17"/></g></svg>