<svg xmlns="http://www.w3.org/2000/svg" viewBox="0 0 24 24"><path d="m 23.9 12.1 c 1.81 -15.83 -24.1 -15.61 -23.78 0.28 c -0.86 14.79 25.2 16.1 23.78 -0.28" style="fill:#d0d2e5"/><g style="fill:#3c4597"><path d="m 3.75 14.47 c -1.25 -0.39 -1.74 -2.49 -0.82 -3.53 c 0.41 -0.47 0.8 -0.62 1.58 -0.62 c 0.92 0 1.31 0.18 1.34 0.62 c 0.02 0.29 0.02 0.3 -0.16 0.26 c -0.91 -0.26 -1.46 -0.24 -1.88 0.07 c -0.33 0.25 -0.45 0.63 -0.41 1.3 c 0.04 0.77 0.4 1.2 1.07 1.31 c 0.45 0.07 0.69 -0.15 0.66 -0.59 c -0.02 -0.24 -0.07 -0.31 -0.29 -0.41 c -0.22 -0.09 -0.26 -0.16 -0.26 -0.38 v -0.26 c 0.45 0 0.91 0 1.36 0 v 1.96 c -0.34 0.48 -1.52 0.44 -2.2 0.25"/><path d="m 7.84 14.5 c -0.03 -0.03 -0.05 -0.36 -0.05 -0.74 c 0 -0.88 -0.05 -1.02 -0.72 -2.21 c -0.31 -0.55 -0.56 -1.05 -0.56 -1.1 c 0 -0.06 0.13 -0.09 0.35 -0.09 c 0.39 0 0.5 0.09 0.95 0.8 c 0.16 0.25 0.32 0.47 0.37 0.5 c 0.05 0.03 0.21 -0.15 0.38 -0.41 c 0.5 -0.77 0.65 -0.89 1.04 -0.89 c 0.19 0 0.35 0.02 0.35 0.04 c 0 0.08 -0.42 0.87 -0.85 1.59 c -0.42 0.71 -0.43 0.73 -0.44 1.38 c -0.02 1.04 -0.05 1.13 -0.44 1.16 c -0.18 0.01 -0.35 0 -0.38 -0.03"/><path d="m 10.76 14.48 c -0.13 -0.08 -0.22 -2.85 -0.11 -3.61 c 0.03 -0.43 0.02 -0.47 0.43 -0.51 c 0.55 -0.06 1.62 0.04 1.9 0.19 c 0.33 0.17 0.5 0.5 0.5 0.98 c 0.01 0.49 -0.29 0.65 -0.46 1.04 c 0.01 0.03 0.21 0.43 0.45 0.9 c 0.24 0.46 0.41 0.9 0.38 0.97 c -0.25 0.18 -0.48 0.11 -0.81 0.11 l -0.32 -0.68 c -0.33 -0.7 -0.6 -1 -0.88 -0.96 c -0.19 0.03 -0.27 0.37 -0.28 1.1 c 0 0.33 -0.04 0.46 -0.13 0.5 c -0.21 0.02 -0.48 0.08 -0.66 -0.02 m 1.5 -2.34 c 0.59 -0.3 0.36 -1.11 -0.3 -1.05 c -0.28 0.02 -0.3 0.04 -0.36 0.38 c -0.13 0.68 0.13 0.95 0.66 0.68"/><path d="m 15.56 14.41 c -0.66 -0.32 -0.83 -0.89 -0.8 -2.76 l 0.02 -1.26 l 0.38 -0.02 c 0.46 -0.03 0.44 -0.12 0.5 1.72 c 0.05 1.26 0.07 1.4 0.22 1.56 c 0.28 0.3 0.82 0.21 1.04 -0.16 c 0.06 -0.11 0.11 -0.71 0.14 -1.64 l 0.04 -1.46 c 0.33 -0.01 0.7 -0.01 0.78 0.24 c 0.04 0.13 0.05 0.84 0.03 1.57 c -0.05 1.57 -0.15 1.84 -0.76 2.16 c -0.43 0.23 -1.19 0.25 -1.59 0.05"/><path d="m 19.44 14.46 c -0.33 -0.1 -0.53 -0.3 -0.53 -0.55 c 0 -0.11 0.02 -0.23 0.04 -0.25 c 0.02 -0.02 0.32 0.02 0.65 0.11 c 0.45 0.16 1.21 0.14 1.23 -0.42 c 0 -0.27 -0.19 -0.41 -0.88 -0.64 c -0.32 -0.11 -0.62 -0.27 -0.78 -0.43 c -0.24 -0.23 -0.26 -0.3 -0.26 -0.73 c 0 -0.57 0.21 -0.94 0.66 -1.16 c 0.39 -0.19 1.17 -0.19 1.57 0 c 0.25 0.12 0.3 0.18 0.32 0.44 c 0.04 0.47 -0.55 0.19 -0.96 0.18 c -0.45 0 -0.57 0.02 -0.71 0.16 c -0.34 0.34 -0.1 0.57 0.89 0.85 c 0.24 0.07 0.57 0.23 0.72 0.36 c 0.54 0.54 0.28 1.69 -0.32 2 c -0.3 0.15 -1.21 0.18 -1.63 0.05"/></g></svg>