<svg xmlns="http://www.w3.org/2000/svg" viewBox="0 0 24 24"><path d="m 22.88 16.48 c 8.95 -29.1 -39.1 -14.55 -16.64 5.39 c 4.5 3.99 14.23 2.46 16.64 -5.39" style="fill:#d74b75"/><path d="m 11.1 18.53 c -1.19 -0.18 -2.09 -0.59 -3.04 -1.41 c -1.5 -1.28 -2.17 -2.59 -2.28 -4.43 c -0.17 -2.71 1.5 -5.18 4.2 -6.23 c 0.75 -0.29 2.28 -0.39 5.26 -0.36 c 2.51 0.03 2.6 0.04 2.89 0.47 c 0.14 0.21 0.15 0.53 0.15 3.62 v 3.39 l -0.24 0.64 c -0.68 1.8 -1.82 3.07 -3.43 3.81 c -1.04 0.48 -2.39 0.67 -3.51 0.5" style="fill:#b7c1c8"/><path d="m 16.54 12.46 c 0 2.51 -2.03 4.54 -4.53 4.54 c -2.5 0 -4.52 -2.04 -4.52 -4.54 c 0 -2.5 2.02 -4.54 4.52 -4.54 c 2.5 0 4.53 2.04 4.53 4.54" style="fill:#8169c8"/><path d="m 8.1 14.84 c -0.35 -0.46 -0.57 -1.21 -0.63 -2.07 c -0.08 -1.42 0.35 -2.55 1.34 -3.55 c 1.47 -1.49 3.73 -1.75 5.48 -0.64 c 0.54 0.35 0.48 0.38 -0.22 0.13 c -0.72 -0.26 -2.06 -0.32 -2.73 -0.12 c -1.6 0.46 -2.84 1.71 -3.25 3.29 c -0.19 0.73 -0.13 1.98 0.12 2.69 c 0.1 0.28 0.16 0.52 0.15 0.54 c -0.02 0.02 -0.13 -0.1 -0.26 -0.26" style="fill:#7560b3"/><path d="m 17.5 7.5 c 0 0.38 -0.32 0.69 -0.7 0.69 c -0.39 0 -0.71 -0.31 -0.71 -0.69 c 0 -0.38 0.32 -0.69 0.71 -0.69 c 0.39 0 0.7 0.31 0.7 0.69" style="fill:#80878d"/></svg>