<svg xmlns="http://www.w3.org/2000/svg" viewBox="0 0 24 24"><path d="m 4.61 21.39 c 14.2 11.1 28.92 -16.52 11.36 -20.57 c -11.1 -4.14 -21.87 12.34 -11.36 20.57" style="fill:#ecd6e0"/><path d="m 6.07 17.73 l -0.21 -0.22 v -4.7 l 0.21 -0.22 c 0.3 -0.31 0.78 -0.31 1.08 0 c 0.21 0.22 0.21 0.26 0.26 2.04 l 0.04 1.82 l 4.77 0.04 l 4.77 0.04 l 0.17 0.2 c 0.24 0.29 0.22 0.74 -0.05 1 l -0.22 0.21 h -10.6 m 2.66 -2.96 l -0.21 -0.21 v -3.77 c 0 -2.82 0.03 -3.8 0.11 -3.9 c 0.25 -0.32 0.41 -0.34 4.23 -0.34 h 3.73 l 0.52 0.5 v 7.5 l -0.21 0.21 l -0.22 0.21 h -7.72 m 6.63 -4.19 l 0.02 -2.68 l -0.2 -0.05 c -0.11 -0.02 -1.36 -0.04 -2.77 -0.02 l -2.57 0.03 l -0.02 2.62 c -0.01 1.44 0 2.67 0.02 2.73 c 0.04 0.09 0.63 0.11 2.77 0.09 l 2.73 -0.02 m -4.43 -1.03 c -0.29 -0.29 -0.29 -0.75 0 -1.04 c 0.46 -0.45 1.22 -0.13 1.22 0.52 c 0 0.64 -0.76 0.96 -1.22 0.52 m 2.39 0.01 c -0.5 -0.42 -0.17 -1.26 0.5 -1.26 c 0.38 0 0.7 0.34 0.7 0.73 c 0 0.63 -0.7 0.95 -1.2 0.53 m -2.39 -2.33 c -0.46 -0.45 -0.14 -1.25 0.49 -1.25 c 0.65 0 0.98 0.89 0.48 1.28 c -0.32 0.24 -0.7 0.23 -0.97 -0.03 m 2.37 0.01 c -0.29 -0.3 -0.27 -0.85 0.04 -1.09 c 0.51 -0.39 1.18 -0.07 1.18 0.55 c 0 0.64 -0.79 0.98 -1.22 0.53 m -7.41 0.61 c -0.29 -0.15 -0.4 -0.34 -0.4 -0.68 c 0 -0.62 0.73 -0.94 1.19 -0.52 c 0.26 0.24 0.3 0.4 0.21 0.76 c -0.05 0.18 -0.17 0.32 -0.34 0.41 c -0.3 0.15 -0.43 0.16 -0.66 0.03 m -0.21 -2.93 c -0.21 -0.21 -0.26 -0.64 -0.11 -0.91 c 0.14 -0.26 0.58 -0.39 0.89 -0.26 c 0.32 0.13 0.44 0.32 0.44 0.71 c 0 0.6 -0.8 0.91 -1.22 0.47" style="fill:#f45ba1"/></svg>