<svg xmlns="http://www.w3.org/2000/svg" xmlns:xlink="http://www.w3.org/1999/xlink" viewBox="0 0 24 24"><defs><g id="3" style="clip-path:url(#2)"><path d="m 89.7 101.5 v -20.3 l 2.21 0.13 l 2.17 0.13 l 2.88 13.7 c 1.58 7.53 2.96 13.79 3.09 13.91 c 0.21 0.21 0.13 0.76 3.17 -13.87 c 1.42 -6.64 2.63 -12.48 2.75 -12.98 c 0.21 -0.85 0.5 -0.97 2.34 -0.97 h 2.13 v 40.6 h -2.54 l -0.04 -18.1 c 0 -11.5 -0.17 -17.76 -0.42 -17.21 c -0.29 0.63 -5.88 26.39 -5.88 27.1 c -1 0.21 -1.75 0.17 -2.84 0.17 l -2.88 -13.66 c -1.58 -7.49 -3.04 -13.79 -3.25 -14 c -0.21 -0.21 -0.33 7.53 -0.33 17.68 v 17.97 h -2.54 v -20.3" transform="matrix(0.094 0 0 0.092 0 0.27)" style="fill:#fff;stroke:#fff;stroke-width:0.77"/></g><g id="6" style="clip-path:url(#5)"><path d="m 114.3 121.1 c 0.13 -0.42 2.09 -9.56 4.38 -20.3 l 4.21 -19.54 c 1.04 -0.08 2.25 0 3.17 0.21 c 0 0.13 1.88 9.1 4.21 19.92 c 2.34 10.83 4.25 19.88 4.25 20.1 c 0 0.21 -0.58 0.38 -1.25 0.38 c -0.96 0 -1.33 -0.25 -1.5 -0.97 c -0.29 -1.27 -1.92 -9.22 -1.92 -9.43 c -3.79 -0.25 -6.71 -0.17 -10.84 -0.17 c -0.67 3.51 -1.33 7 -2 10.53 c -1.33 0.21 -2.29 -0.21 -2.71 -0.72 m 12.93 -21.99 c -2.63 -12.6 -2.71 -12.98 -3 -12.35 c -0.29 0.76 -4.09 19.1 -4.09 19.79 c 3.04 0.8 5.17 0.47 8.76 0.47 c -0.54 -2.62 -1.08 -5.29 -1.67 -7.91" transform="matrix(0.094 0 0 0.092 0 0.27)" style="fill:#fff;stroke:#fff;stroke-width:0.77"/></g><g id="9" style="clip-path:url(#8)"><path d="m 138.3 101.5 v -20.26 h 2.92 l 0.13 8.67 l 0.08 8.71 l 5.21 -8.71 l 5.17 -8.67 h 3.42 l -0.83 1.35 c -4.96 8.12 -10.22 17.1 -10.22 17.55 c 0 0.42 6.3 11.97 10.84 19.88 l 1.04 1.78 h -3.63 l -11 -19.79 l -0.08 9.9 l -0.13 9.9 h -2.96 v -20.3" transform="matrix(0.094 0 0 0.092 0 0.27)" style="fill:#fff;stroke:#fff;stroke-width:0.77"/></g><g id="C" style="clip-path:url(#B)"><path d="m 159 101.5 v -20.26 h 13.93 v 4.19 h -11.38 v 12.69 h 10.97 v 4.23 h -10.97 v 15.23 h 11.8 v 4.23 h -14.34" transform="matrix(0.094 0 0 0.092 0 0.27)" style="fill:#fff;stroke:#fff;stroke-width:0.77"/></g><g id="F" style="clip-path:url(#E)"><path d="m 133.4 173 c -0.13 -0.3 -2.09 -9.43 -4.34 -20.3 l -4.17 -19.79 l 1.21 -0.13 c 0.71 -0.08 1.29 -0.04 1.42 0.04 c 0.08 0.08 1.67 7.57 3.54 16.71 c 3.5 17 3.79 18.2 4 17.93 c 0.08 -0.08 1.67 -7.57 3.59 -16.71 c 1.88 -9.1 3.54 -16.87 3.63 -17.3 c 0.25 -0.8 2.71 -1.1 2.71 -0.3 c 0 0.47 -7.92 38.44 -8.3 39.67 c -0.25 0.89 -3 1.06 -3.29 0.21" transform="matrix(0.094 0 0 0.092 0 0.27)" style="fill:#fff;stroke:#fff;stroke-width:0.78"/></g><g id="I" style="clip-path:url(#H)"><path d="m 100.1 172.1 c 0.13 -0.42 2.09 -9.56 4.38 -20.3 l 4.21 -19.54 c 1.04 -0.08 2.25 0 3.17 0.21 c 0 0.13 1.92 9.1 4.25 19.92 c 2.29 10.83 4.21 19.88 4.21 20.1 c 0 0.21 -0.58 0.38 -1.25 0.38 c -0.96 0 -1.33 -0.25 -1.5 -0.97 c -0.29 -1.27 -1.88 -9.22 -1.88 -9.43 c -3.84 -0.25 -6.76 -0.17 -10.84 -0.17 c -0.67 3.51 -1.33 7 -2 10.57 c -1.38 0.17 -2.34 -0.25 -2.71 -0.76 m 12.89 -21.99 c -2.63 -12.6 -2.71 -12.98 -2.96 -12.35 c -0.33 0.76 -4.13 19.1 -4.13 19.79 c 3.04 0.8 5.21 0.47 8.8 0.47 c -0.58 -2.62 -1.13 -5.29 -1.71 -7.91" transform="matrix(0.094 0 0 0.092 0 0.27)" style="fill:#fff;stroke:#fff;stroke-width:0.77"/></g><clipPath id="E"><path d="M 0,0 H24 V24 H0 z"/></clipPath><clipPath id="B"><path d="M 0,0 H24 V24 H0 z"/></clipPath><clipPath id="5"><path d="M 0,0 H24 V24 H0 z"/></clipPath><clipPath id="8"><path d="M 0,0 H24 V24 H0 z"/></clipPath><clipPath id="2"><path d="M 0,0 H24 V24 H0 z"/></clipPath><clipPath id="H"><path d="M 0,0 H24 V24 H0 z"/></clipPath><filter id="0" filterUnits="objectBoundingBox" x="0" y="0" width="24" height="24"><feColorMatrix type="matrix" in="SourceGraphic" values="0 0 0 0 1 0 0 0 0 1 0 0 0 0 1 0 0 0 1 0"/></filter><mask id="G"><g style="filter:url(#0)"><path d="M 0,0 H24 V24 H0 z" style="fill-opacity:0.9"/></g></mask><mask id="D"><g style="filter:url(#0)"><path d="M 0,0 H24 V24 H0 z" style="fill-opacity:0.9"/></g></mask><mask id="1"><g style="filter:url(#0)"><path d="M 0,0 H24 V24 H0 z" style="fill-opacity:0.9"/></g></mask><mask id="A"><g style="filter:url(#0)"><path d="M 0,0 H24 V24 H0 z" style="fill-opacity:0.9"/></g></mask><mask id="7"><g style="filter:url(#0)"><path d="M 0,0 H24 V24 H0 z" style="fill-opacity:0.9"/></g></mask><mask id="4"><g style="filter:url(#0)"><path d="M 0,0 H24 V24 H0 z" style="fill-opacity:0.9"/></g></mask></defs><path d="m 5.48 21.66 c 18.71 12 27.68 -26.3 4.64 -21.2 c -9.52 2.16 -14.61 15.69 -4.64 21.2" style="fill:#f4f4f4"/><path d="m 6.09 5.43 v 13.1 h 12.45 v -13.1 m -12.25 0.36 h 1.18 v 1.38 h -1.18 m 10.91 -1.38 h 1.18 v 1.38 h -1.18 m -10.91 2.29 h 1.18 v 1.38 h -1.18 m 10.91 -1.38 h 1.18 v 1.38 h -1.18 m -10.91 2.29 h 1.18 v 1.38 h -1.18 m 10.91 -1.38 h 1.18 v 1.38 h -1.18 m -10.91 2.29 h 1.18 v 1.38 h -1.18 m 10.91 -1.38 h 1.18 v 1.38 h -1.18"/><use xlink:href="#3" style="mask:url(#1)"/><use xlink:href="#6" style="mask:url(#4)"/><use xlink:href="#9" style="mask:url(#7)"/><use xlink:href="#C" style="mask:url(#A)"/><use xlink:href="#F" style="mask:url(#D)"/><use xlink:href="#I" style="mask:url(#G)"/><g style="fill:#fff"><path d="m 14.58 13.1 h 0.35 v 3.19 h -0.35"/><path d="m 14.58 12.44 h 0.35 v 0.46 h -0.35"/></g></svg>