<svg xmlns="http://www.w3.org/2000/svg" viewBox="0 0 24 24"><path d="m 21.1 19.73 c 6 -8.93 1.47 -17.1 -5.1 -18.99 c -8.85 -2.6 -21.1 4.23 -13.38 18.28 c 3.05 5.59 14.19 7.1 18.48 0.71" style="fill:#522a20"/><path d="m 8.26 18.26 c -0.09 -0.04 -0.1 -0.36 0 -0.45 c 0.05 -0.05 0.35 -0.07 0.99 -0.07 c 1.11 0 1.1 0.01 1.1 -0.58 c 0 -0.32 -0.02 -0.42 -0.09 -0.44 c -0.05 -0.02 -0.9 -0.04 -1.88 -0.04 c -2.38 0 -2.69 -0.07 -2.94 -0.6 c -0.19 -0.41 -0.23 -1.55 -0.21 -5.14 c 0.02 -2.84 0.04 -3.3 0.13 -3.55 c 0.15 -0.44 0.32 -0.6 0.78 -0.72 c 0.37 -0.1 0.71 -0.11 5.88 -0.11 c 5.17 0 5.51 0.01 5.88 0.11 c 0.46 0.12 0.63 0.28 0.78 0.72 c 0.08 0.25 0.1 0.71 0.12 3.55 c 0.03 3.59 -0.02 4.73 -0.2 5.14 c -0.25 0.53 -0.57 0.59 -2.84 0.6 c -0.96 0 -1.73 0.02 -1.78 0.05 c -0.07 0.04 -0.09 0.15 -0.08 0.47 c 0 0.23 0.02 0.45 0.05 0.48 c 0.02 0.04 0.36 0.06 0.9 0.06 c 0.59 0 0.88 0.02 0.93 0.07 c 0.1 0.1 0.09 0.42 -0.02 0.46 c -0.11 0.04 -7.37 0.04 -7.48 0 m 9.64 -2.05 c 0.37 -0.18 0.43 -0.31 0.51 -1.03 c 0.09 -0.88 0.03 -7.27 -0.07 -7.65 c -0.09 -0.36 -0.3 -0.52 -0.74 -0.58 c -0.19 -0.02 -2.8 -0.04 -5.81 -0.04 c -5.16 0.01 -5.48 0.02 -5.68 0.11 c -0.42 0.2 -0.44 0.26 -0.49 1.62 c -0.05 1.52 -0.05 4.86 0 6.14 c 0.05 1.33 0.1 1.4 1 1.5 c 0.24 0.03 2.82 0.05 5.75 0.04 c 5.18 -0.01 5.32 -0.01 5.54 -0.12 m -8.09 -1.54 c -0.12 -0.07 -0.14 -0.38 -0.03 -0.48 c 0.1 -0.1 4.31 -0.1 4.41 0 c 0.12 0.11 0.09 0.42 -0.04 0.49 c -0.15 0.08 -4.2 0.07 -4.34 0 m -0.07 -1.2 c -0.05 -0.14 -0.04 -0.33 0.04 -0.4 c 0.05 -0.05 0.63 -0.07 2.21 -0.07 c 2.36 0 2.3 -0.01 2.26 0.34 l -0.02 0.18 l -2.23 0.02 c -1.99 0.01 -2.23 0 -2.26 -0.07 m -1.06 -1.1 c -0.02 -0.04 -0.02 -0.32 -0.01 -0.63 l 0.02 -0.55 l 3.26 -0.02 c 2.36 -0.01 3.28 0 3.34 0.05 c 0.1 0.07 0.11 0.95 0.02 1.11 c -0.06 0.11 -0.16 0.11 -3.33 0.11 c -2.66 0 -3.27 -0.02 -3.3 -0.07 m 5.91 -0.58 c 0.02 -0.3 -0.12 -0.16 -2.57 -0.18 c -2.69 -0.02 -2.62 -0.05 -2.6 0.2 c 0.02 0.27 -0.16 0.23 2.55 0.25 c 2.74 0.02 2.6 0.06 2.62 -0.26 m -4.82 -1.25 c -0.11 -0.11 -0.09 -0.42 0.04 -0.49 c 0.18 -0.09 4.21 -0.08 4.34 0.02 c 0.07 0.05 0.1 0.13 0.09 0.29 l -0.02 0.22 l -2.19 0.02 c -1.65 0.01 -2.21 0 -2.26 -0.05 m 0 -1.11 c -0.11 -0.11 -0.09 -0.42 0.04 -0.49 c 0.07 -0.04 0.86 -0.06 2.16 -0.06 c 1.3 0 2.09 0.02 2.16 0.06 c 0.13 0.07 0.16 0.38 0.04 0.49 c -0.1 0.09 -4.31 0.09 -4.41 0" style="fill:#fff"/></svg>