<svg xmlns="http://www.w3.org/2000/svg" viewBox="0 0 24 24"><path d="m 22.87 7.54 c 9 29.2 -39.4 14.59 -16.77 -5.4 c 4.54 -4 14.34 -2.47 16.77 5.4" style="fill:#007f00"/><g style="fill:#35bf5b"><path d="m 6.24 6.53 h 2.78 v 10.1 h -2.78"/><path d="m 13.68 6.55 h 2.79 v 10.1 h -2.79"/><path d="m 9.96 6.55 h 2.76 v 10.1 h -2.76"/><path d="m 6.25 9.34 v -2.83 l 10.2 0.02 v 2.83"/></g><g style="fill:#efffef"><path d="m 16.95 13.22 c -0.18 0 -0.32 0.14 -0.32 0.32 v 0.77 c -0.27 0.07 -0.53 0.18 -0.76 0.32 l -0.54 -0.54 c -0.13 -0.13 -0.33 -0.13 -0.46 0 l -0.53 0.53 c -0.13 0.13 -0.13 0.33 0 0.46 l 0.54 0.54 c -0.14 0.23 -0.25 0.49 -0.32 0.77 h -0.77 c -0.18 0 -0.32 0.14 -0.32 0.32 v 0.75 c 0 0.18 0.14 0.32 0.32 0.32 h 0.77 c 0.07 0.27 0.18 0.53 0.32 0.77 l -0.54 0.54 c -0.13 0.13 -0.13 0.33 0 0.46 l 0.53 0.54 c 0.13 0.13 0.33 0.13 0.46 0 l 0.54 -0.54 c 0.23 0.14 0.49 0.25 0.76 0.32 v 0.77 c 0 0.18 0.14 0.32 0.32 0.32 h 0.75 c 0.18 0 0.32 -0.14 0.32 -0.32 v -0.77 c 0.27 -0.07 0.53 -0.18 0.76 -0.32 l 0.54 0.54 c 0.13 0.13 0.33 0.13 0.46 0 l 0.53 -0.54 c 0.13 -0.13 0.13 -0.33 0 -0.46 l -0.54 -0.54 c 0.14 -0.23 0.25 -0.49 0.32 -0.77 h 0.77 c 0.18 0 0.32 -0.14 0.32 -0.32 v -0.75 c 0 -0.18 -0.14 -0.32 -0.32 -0.32 h -0.77 c -0.07 -0.27 -0.18 -0.53 -0.32 -0.77 l 0.54 -0.54 c 0.13 -0.13 0.13 -0.33 0 -0.46 l -0.53 -0.53 c -0.13 -0.13 -0.33 -0.13 -0.46 0 l -0.54 0.54 c -0.23 -0.14 -0.49 -0.25 -0.76 -0.32 v -0.77 c 0 -0.18 -0.14 -0.32 -0.32 -0.32 m -0.38 2.54 c 0.73 0 1.32 0.59 1.32 1.32 c 0 0.73 -0.59 1.32 -1.32 1.32 c -0.73 0 -1.32 -0.59 -1.32 -1.32 c 0 -0.73 0.59 -1.32 1.32 -1.32"/><path d="m 163.6 128 c 0 19.66 -15.94 35.57 -35.57 35.57 c -19.63 0 -35.49 -15.9 -35.49 -35.57 c 0 -19.66 15.86 -35.57 35.49 -35.57 c 19.63 0 35.57 15.9 35.57 35.57" transform="matrix(0.05 0 0 0.05 10.96 10.7)" style="stroke:#007f00;stroke-width:17.6"/></g></svg>