<svg xmlns="http://www.w3.org/2000/svg" viewBox="0 0 24 24"><path d="m 23.68 11.94 c 1.79 -15.96 -23.86 -15.74 -23.56 0.29 c -0.85 14.91 24.95 16.25 23.56 -0.29" style="fill:#ffe4c3"/><g style="fill:#f9a62a"><path d="m 6.36 10.81 h 8.72 c 0.36 0 0.65 0.27 0.65 0.59 v 0.88 c 0 0.33 -0.29 0.6 -0.65 0.6 h -8.72 c -0.36 0 -0.66 -0.27 -0.66 -0.6 v -0.88 c 0 -0.33 0.29 -0.59 0.66 -0.59"/><path d="m 6.36 13.98 h 8.72 c 0.36 0 0.65 0.27 0.65 0.59 v 0.88 c 0 0.33 -0.29 0.59 -0.65 0.59 h -8.72 c -0.36 0 -0.66 -0.27 -0.66 -0.59 v -0.88 c 0 -0.33 0.29 -0.59 0.66 -0.59"/><path d="m 13.98 17.2 h 3.59 c 0.36 0 0.66 0.27 0.66 0.59 v 0.88 c 0 0.33 -0.3 0.59 -0.66 0.59 h -3.59 c -0.36 0 -0.66 -0.27 -0.66 -0.59 v -0.88 c 0 -0.33 0.3 -0.59 0.66 -0.59"/><path d="m 5.64 7.25 h 13.1 c 0.36 0 0.66 0.27 0.66 0.59 v 0.88 c 0 0.33 -0.29 0.59 -0.66 0.59 h -13.1 c -0.36 0 -0.65 -0.27 -0.65 -0.59 v -0.88 c 0 -0.33 0.29 -0.59 0.65 -0.59"/></g><g style="fill:#fff"><path d="m 7.52 14.99 c 0 0.36 -0.3 0.65 -0.67 0.65 c -0.37 0 -0.67 -0.29 -0.67 -0.65 c 0 -0.36 0.3 -0.64 0.67 -0.64 c 0.37 0 0.67 0.29 0.67 0.64"/><path d="m 9.12 15.1 c 0 0.36 -0.3 0.65 -0.67 0.65 c -0.37 0 -0.67 -0.29 -0.67 -0.65 c 0 -0.36 0.3 -0.65 0.67 -0.65 c 0.37 0 0.67 0.29 0.67 0.65"/><path d="m 10.8 15.1 c 0 0.36 -0.3 0.65 -0.67 0.65 c -0.37 0 -0.67 -0.29 -0.67 -0.65 c 0 -0.36 0.3 -0.64 0.67 -0.64 c 0.37 0 0.67 0.29 0.67 0.64"/><path d="m 12.46 15.1 c 0 0.36 -0.3 0.65 -0.67 0.65 c -0.37 0 -0.67 -0.29 -0.67 -0.65 c 0 -0.36 0.3 -0.64 0.67 -0.64 c 0.37 0 0.67 0.29 0.67 0.64"/><path d="m 7.08 11.3 h 3.26 c 0.36 0 0.66 0.25 0.66 0.55 c 0 0.3 -0.29 0.55 -0.66 0.55 h -3.26 c -0.36 0 -0.66 -0.25 -0.66 -0.55 c 0 -0.31 0.29 -0.55 0.66 -0.55"/><path d="m 14.6 17.66 h 2.25 c 0.36 0 0.66 0.25 0.66 0.55 c 0 0.3 -0.29 0.55 -0.66 0.55 h -2.25 c -0.36 0 -0.66 -0.25 -0.66 -0.55 c 0 -0.3 0.29 -0.55 0.66 -0.55"/></g><path d="m 17.9 7.68 h 0.07 c 0.36 0 0.66 0.27 0.66 0.59 v 0.16 c 0 0.33 -0.29 0.59 -0.66 0.59 h -0.07 c -0.36 0 -0.65 -0.27 -0.65 -0.59 v -0.16 c 0 -0.33 0.29 -0.59 0.65 -0.59" style="fill:#ff4500"/></svg>