<svg xmlns="http://www.w3.org/2000/svg" viewBox="0 0 24 24"><path d="m 4.27 21.27 c 8.93 5.84 17.1 1.13 19 -5.48 c 2.59 -8.9 -4.23 -20.97 -18.28 -13 c -5.59 3.16 -7.1 14.34 -0.71 18.5" style="fill:#fb8600"/><g style="fill:#fff"><path d="m 8.91 17.2 v 1.08 h -1.15 c -0.21 0 -0.38 0.18 -0.38 0.4 c 0 0.22 0.17 0.39 0.38 0.39 h 4.21 c 0.21 0 0.38 -0.18 0.38 -0.39 c 0 -0.22 -0.17 -0.4 -0.38 -0.4 h -1.15 v -1.08"/><path d="m 4.97 10.83 c -0.18 0 -0.32 0.15 -0.32 0.34 v 6.09 c 0 0.18 0.14 0.33 0.32 0.33 h 9.77 c 0.18 0 0.32 -0.15 0.32 -0.33 v -6.09 c 0 -0.18 -0.14 -0.34 -0.32 -0.34 m -9.15 0.89 h 8.52 v 4.98 h -8.52"/><g style="stroke:#fff"><path d="m 134.5 101.9 c 0 0.36 0 0.78 0.05 1.19 l 2.66 -1.19" transform="matrix(0.076 0 0 0.076 4.38 0.81)"/><g transform="matrix(0.076 0 0 0.076 4.26 0.73)"><path d="m 79.3 172.8 c -2.35 -0.93 -5.22 -4.71 -8.7 -11.59 c -3.27 -6.52 -5.68 -13.1 -6.6 -18.1 c -1.38 -7.5 -1.64 -19.45 -0.46 -22.56 c 0.77 -1.97 1.23 -4.29 1.43 -7.81 c 0.31 -4.19 0.77 -6.36 2.1 -9.88 c 3.38 -8.85 10.49 -18.62 18.77 -25.87 c 7.37 -6.42 12.74 -9.16 15.7 -7.97 c 2 0.83 2.56 0.52 3.89 -2 c 1.13 -2.12 2.05 -3.41 2.46 -3.41 c 1.59 0.78 2.92 1.66 4.66 2.48 c 1.43 0.31 0.61 0.67 -0.1 1.6 c -1.84 2.17 -2.3 3.62 -1.59 4.97 c -1.79 14.85 1.59 5.17 -6.39 11.95 c -0.97 0.83 -3.48 -0.41 -4.91 -0.1 c -2.61 0.62 -9.77 4.24 -14.63 7.45 c -2.61 1.76 -4.96 3.62 -7.42 5.95 c -3.27 3.16 -3.58 3.36 -3.79 2.79 c -0.26 -0.72 -1.28 -1.19 -2.1 -0.98 c -1.94 0.52 -3.73 6.1 -3.79 12.21 l -0.05 3.36 l 9.62 4 c 5.32 2.17 9.92 4.14 10.23 4.29 c 1.94 2.69 4.09 5.38 6.19 6.83 c 2.25 1.5 3.12 2.85 2.86 4.14 c -0.1 0.52 -0.92 1.91 -1.84 3.1 c -0.97 1.14 -2.51 3.57 -3.43 5.33 c -2.05 3.78 -3.12 4.86 -6.09 6 c -4.96 1.91 -5.93 3.26 -7.1 9.57 c -0.72 2.07 -0.36 3.16 0.46 5.07 c 0.51 1.24 2 4.29 3.27 6.83 c 1.23 2.54 2.25 4.66 2.25 4.76 c -1.74 -0.36 -2.86 -1.45 -4.96 -2.48"/><path d="m 146 162.3 c -1.28 -0.52 -3.07 -3.05 -5.06 -7.09 c -3.48 -7.19 -4.66 -10.81 -5.88 -18.88 c -0.82 -5 -1.23 -6.78 -2.4 -10.35 c -0.92 -4.6 -5.47 -2.69 -9.26 -2.69 c -3.17 0 -6.75 1.03 -8.1 0.21 c -2.71 -3.62 -7.47 -5.79 -6.24 -12.57 c -0.56 -2.28 0.15 -2.74 4.4 -6.57 l 5.93 -5.33 c 6.65 -1.09 6.45 2.28 10.28 2.9 c 1.53 0.26 8.54 1.71 11.2 2.54 c 4.81 1.4 8.59 0.05 9.57 0 c 0.72 4.14 0.72 -0.1 0.92 -0.26 c -0.2 -4.35 -2.81 0.83 -8.75 -5.48 l -4.19 -4.55 l -3.07 4.6 c -1.18 1.86 -2.81 -4.66 -5.58 -3.98 c -1.84 0.47 -3.53 0.93 -3.79 1.09 c -0.41 0.16 -5.73 0.52 -6 -0.47 c -0.36 -1.14 -1.18 -2.59 -0.72 -3.52 c 0.61 -1.24 6.6 -2 6 -3.1 c -0.2 -0.47 -1.38 -1.71 -2.61 -2.79 c -2.35 -2.12 -2.71 -2.74 -2.2 -3.72 c 0.36 -0.67 3 -2 3.99 -2 c 0.82 0 0.87 -0.47 0.05 -0.88 c -0.82 -0.47 -3.73 0.83 -5.88 0.47 c -7.67 -0.62 -0.92 -2.28 -1.07 -4.86 c 0.92 -3.21 3.89 -5 4.3 -4.97 c 0.46 0 2.35 8.54 1.84 6.36 c -0.41 -1.97 1.18 -0.16 2.56 -1.14 c 2.2 -1.66 7.1 -4.14 12.1 -6.26 c 6.14 -2.59 8.54 -3.31 11.2 -3.52 c 2.86 -0.21 4.09 0.16 8.7 2.38 c 11.92 5.85 23.99 17.54 29.62 28.77 c 4.35 8.64 7.57 19.76 7.26 25 c -0.2 3.67 -1.59 3.98 -4 0.83 c -1.18 -1.55 -1.48 -1.81 -2.46 -1.86 c -0.82 -0.05 -1.38 0.1 -2 0.52 c -1.94 1.45 -2.97 2.07 -3.48 2.07 c -0.92 0 -1.59 -1.03 -1.84 -2.59 c -0.2 -1.86 -2.1 -0.52 -2.97 -2.38 c -4.96 -10.55 -9.77 -7.97 -10 -7.86 c -1.23 2.17 -1.74 3.36 6.65 6.1 c 1.69 0.57 3.63 7.92 3.68 8.74 v 1.09 h -2.05 c -1.84 0 -8.24 -0.67 -9.57 0.16 c -1.84 1.19 -13.25 -21.32 -13.61 -18.57 c -0.72 5.43 13.25 18.99 10.79 21.32 c -2.76 2.64 -6.6 16 -6.34 18.2 c 0.15 1.66 -0.15 2.43 -1.23 3.05 c -0.56 0.31 -1.33 1.55 -2.66 4.09 c -2.35 4.6 -3.53 6.42 -4.66 7.24 c -1.02 0.72 -2.51 0.98 -3.38 0.62 m 9.57 -65.1 c 2.1 -1.09 2.66 -3.98 1.13 -5.54 c -1.07 -1.09 -2.25 -1.14 -4.4 -0.1 c -1.48 0.72 -1.84 0.72 -4.45 0.57 c -2.3 -0.1 -2.86 -0.05 -3.17 0.31 c -0.31 0.36 -2.86 3.88 -0.92 5.79 c 1.84 1.86 5.47 -0.72 6.5 -0.47 c 1.64 0.36 3.94 0.1 5.32 -0.57"/><path d="m 187 162.1 c -2.1 -1.35 -3.79 -2.9 -5.93 -4.29 c -1.94 -1.29 -2.35 -1.97 -2.86 -4.71 c -0.51 -2.9 -0.51 -10.4 0 -11 c 0.51 -0.67 1.07 -0.62 2.2 0.16 c 1.89 0.98 3.33 0.57 5.47 0.93 c 0.61 0.16 1.64 -0.05 3.89 -0.67 c 3.58 -1.09 4.66 -1.14 5.12 -0.36 c 1.07 2.07 -0.77 9.78 -4 16.71 c -1.02 1.71 -2.3 3.78 -3.84 3.26"/></g><path d="m -213.6 -11.46 c 9.82 -2.74 10 -4.19 10 -6.83 c 0 -1.76 -0.36 -2.07 -1.59 -1.29 c -1.94 1.24 -2.25 1.35 -2.92 0.93 c -0.41 -0.16 -3.22 1.91 -4.09 0.88 c -1.74 -2.12 0.31 -5.17 -2.46 -3.93 l -1.64 0.72 c 0.05 3.05 0.15 5.07 -1.69 6.52 c 1.43 0.21 2.92 3.41 4.35 3" transform="matrix(-0.076 0 0 0.076 2.77 12)"/><g transform="matrix(0.076 0 0 0.076 4.26 0.73)"><path d="m 121.2 196.7 c -4.19 -0.31 -5.73 -0.83 -9 -1.71 c -2.92 -0.83 -18.31 -6.42 -19.1 -7.24 c -1.23 -1.4 7.88 -3.31 9.67 -2.33 c 1.94 1.14 10.79 3.21 12.64 2.43 c 7.57 -3.1 7.72 -3.16 11.61 -2.79 c 6.14 0.62 10.64 2.22 12.43 4.35 c 0.77 0.98 15.5 2.9 15.24 3.26 c -0.41 0.67 -4.96 3.72 -24.4 4.91 c -2 -0.05 -7.26 -0.78 -9.16 -0.88"/><path d="m 117.7 202.1 c -8.95 -1.35 -20.77 -6.1 -29.47 -11.9 c -13.76 -9.16 -23.38 -22.1 -29 -38.96 c -2.25 -6.67 -3.27 -13.55 -3.27 -21.99 c 0 -21.47 6.6 -37.77 21.2 -52.4 c 12.69 -12.73 24.86 -18.99 41.59 -21.37 c 2.81 -0.36 5.68 -0.52 12.28 -0.52 c 9.62 0 11.77 0.31 18.52 2.33 c 23.2 7 40 23.33 49.1 47.6 c 2.25 6.1 3.17 10.5 3.68 18.62 c 0.51 8.33 -0.26 17.8 -2.05 24 c -3.58 12.68 -10.79 24.94 -20 34.1 c -9.98 10 -23.2 17.1 -36.2 19.4 c -7.78 1.4 -20.46 1.86 -26.29 1.03 m 21.49 -2.33 c 15.45 -2.43 29.1 -9.21 39.7 -19.71 c 3.48 -3.41 6 -6.62 9.21 -11.38 c 6.65 -9.98 10.23 -19.71 11.51 -31.2 c 0.51 -4.5 0.46 -14.9 -0.1 -19.1 c -2.2 -16.1 -8.9 -29.1 -21.49 -41.54 c -9.26 -9.11 -16.73 -13.4 -30.54 -17.38 c -7 -2.07 -9 -2.28 -18.83 -2.12 c -8.85 0.16 -12.1 0.52 -18.1 2.07 c -10.95 2.85 -21.33 8.85 -30.69 17.64 c -2.3 2.17 -7.1 7.55 -9 10.14 c -4.71 6.26 -8.39 14.64 -10.95 24.99 c -1.38 5.79 -1.74 10.3 -1.28 18.83 c 0.77 16.61 3.84 27 11.25 38.1 c 10.95 16.35 30.64 28.56 49.88 30.89 c 6.39 0.72 13 0.78 19.44 -0.1"/><path d="m 114.9 68.2 c -1.13 -0.93 0.92 -3.67 0.92 -4.4 c 0 -0.62 1.18 -1.03 3.99 -1.55 c 2.81 -0.47 5.88 -0.57 6.5 -0.16 c -0.15 2.64 -3.68 5.12 -6.19 5.48 c -1.28 -0.05 -4.6 1.19 -5.22 0.62"/></g></g><path d="m 6.24 12.24 h 1.36 v 1.06 h -1.36"/></g></svg>