<svg xmlns="http://www.w3.org/2000/svg" viewBox="0 0 24 24"><path d="m 1 9.74 c 2.39 -16 26.97 -10.54 22.32 4.95 c -3.12 14.72 -28.3 10.73 -22.32 -4.95" style="fill:#dcdcdc"/><path d="m 8.53 19.91 c -0.43 -0.25 -1.04 -1.51 -1.02 -1.58 c 1.08 -0.13 1.52 -0.44 2.05 -0.54 c 0.17 0.08 0.35 0.15 0.4 0.15 c 0.13 0 0.56 -0.35 0.56 -0.46 c 0 -0.05 0.2 -0.29 0.45 -0.52 c 0.51 -0.48 1.08 -0.76 0.89 -1.02 c -0.06 -0.09 -0.1 -0.16 -0.13 -0.3 c -0.04 -0.23 -0.56 -0.3 -0.75 -0.32 c -0.3 -0.03 -0.45 0.2 -0.43 0.68 c 0.01 0.21 0.27 0.79 0.23 0.8 c -0.17 0.1 -0.75 -0.73 -1 -1.5 c -0.11 -0.34 -0.12 -0.41 -0.05 -0.61 c 0.11 -0.31 0.01 -0.53 -0.25 -0.53 c -0.25 0 -0.35 0.13 -0.36 0.44 c 0 0.19 -0.04 0.25 -0.12 0.27 c -0.08 0.02 -0.13 -0.03 -0.16 -0.18 c -0.03 -0.12 -0.15 -0.29 -0.32 -0.44 c -0.48 -0.43 -0.35 -0.63 0.41 -0.63 c 0.6 0 0.73 -0.09 0.73 -0.48 c 0 -0.36 -0.11 -0.46 -0.4 -0.37 c -0.45 0.14 -0.73 0.05 -0.83 -0.27 c 0.11 -0.74 0.14 -1.28 0.13 -1.79 c -0.02 -0.63 -0.02 -1.54 0.01 -2.03 c -0.15 -0.74 0.35 -1.2 0.57 -1.76 c 0 -0.16 0.86 -0.89 1.38 -1.18 l 0.53 -0.29 c 1.45 -0.01 2.9 -0.02 4.35 -0.03 c 0.9 0.43 1.56 1.27 2.15 1.82 c 0.61 0.43 0.41 1.09 0.32 1.71 c -0.06 0.42 0.13 0.86 0.03 1.22 c -0.07 0.24 -0.07 0.27 0.07 0.45 c 0.14 0.18 0.15 0.24 0.14 1 c 0.04 0.57 -0.12 1.07 -0.33 1.57 c -0.08 0.18 -0.16 0.37 -0.18 0.43 c -0.04 0.12 -0.18 0.18 -0.3 0.13 c -0.14 -0.05 -0.19 -0.59 -0.11 -1.19 c 0.06 -0.43 0.05 -0.54 -0.02 -0.61 c -0.07 -0.07 -0.12 -0.07 -0.26 -0.01 c -0.23 0.1 -0.17 -0.26 -0.31 -0.52 c -0.25 -0.39 -0.8 0.03 -1.21 -0.05 c -0.22 -0.05 -0.47 0 -0.47 0.09 c 0 0.03 0.14 0.11 0.31 0.19 c 0.3 0.13 0.31 0.14 0.31 0.4 c 0 0.22 -0.02 0.28 -0.16 0.34 c -0.46 0.25 -0.77 -0.14 -1.04 -0.18 c -0.07 0.02 -0.23 0 -0.35 -0.04 c -0.33 -0.1 -0.32 -0.3 0.03 -0.59 c 0.14 -0.12 0.36 -0.36 0.49 -0.53 c 0.29 -0.39 0.48 -0.45 1.22 -0.38 c 0.46 0.05 0.55 0.07 0.67 0.21 c 0.38 0.33 0.21 -0.63 0.31 -0.96 c 0.13 -0.46 0.14 -1.16 0.01 -1.32 c -0.05 -0.06 -0.1 -0.18 -0.1 -0.27 c 0 -0.32 -0.12 -0.38 -0.75 -0.34 c -0.64 -0.12 -0.87 0.45 -1.43 0.46 c -0.44 0.04 -0.77 0.3 -1.21 0.36 c -0.75 -0.36 -1.46 -0.46 -2.21 -0.59 c -0.43 -0.08 -0.56 -0.03 -0.52 0.2 c -0.05 0.35 -0.27 0.64 -0.28 0.96 c -0.02 0.88 -0.11 1.52 -0.27 1.95 c -0.13 0.35 -0.15 0.52 -0.12 0.73 c 0.06 0.36 0.17 0.45 0.45 0.35 c 0.4 -0.2 0.33 0.21 0.32 0.45 c -0.01 0.47 -0.04 0.58 -0.18 0.79 c -0.09 0.13 -0.17 0.33 -0.17 0.43 c 0 0.21 0.14 0.56 0.26 0.63 c 0.16 0.09 1.64 0.72 1.69 0.03 c 0.01 -0.22 -0.36 -0.68 -0.13 -0.8 c 0.39 -0.22 0.42 -0.22 0.5 -0.12 c 0.11 0.21 0.1 0.45 0.26 0.61 c 0.15 0.14 0.2 0.15 0.56 0.11 l 0.39 -0.04 l -0.04 0.26 c -0.04 0.2 -0.11 0.31 -0.32 0.48 c -0.23 0.19 -0.31 0.22 -0.5 0.2 c -0.22 -0.03 -0.64 0.16 -0.65 0.27 c 0 0.03 0.55 0.09 0.69 0.14 c 0.43 0.16 -0.05 0.12 0.02 0.26 c 0.34 0.61 -1.56 1.71 -1.43 1.8 c 0.06 0.02 0.59 0.39 0.91 0.46 c 0.51 0.01 2.11 0.33 2.38 -0.26 c 0.09 -0.18 0.75 -0.97 0.94 -0.97 c 0.19 0 -0.47 0.96 -0.82 1.33 c -0.39 0.54 -0.91 0.38 -1.52 0.39 c -0.56 0.04 -1.04 0.07 -1.54 -0.17 c -0.21 -0.1 -0.42 -0.24 -0.47 -0.33 c -0.18 -0.31 -0.41 -0.26 -0.64 0.13 c -0.21 0.35 -0.66 0.91 -0.83 1.01 c -0.09 0.06 -0.28 0.2 -0.43 0.3 c -0.32 0.23 -0.61 0.25 -1 0.07 m -1.51 -2.16 c -0.18 -0.16 0.82 -0.28 1.07 -0.38 c 0.41 -0.35 0.18 -1.11 -0.2 -1.33 c -0.47 -0.23 0.08 -0.39 0.2 -0.63 c 0.12 -0.26 0.32 -0.39 0.6 -0.39 c 0.19 0 0.21 0.02 0.21 0.17 c 0 0.2 -0.15 0.34 -0.42 0.4 c -0.49 0.12 -0.36 0.45 -0.07 0.56 c 0.19 0.07 0.3 0.15 0.3 0.22 c -0.01 0.32 0.16 0.82 -0.06 1.03 c -0.22 0.13 -0.42 0.16 -0.51 0.36 c -0.11 0.27 -0.92 0.16 -1.11 -0.02 m -0.7 -0.77 c -0.42 -0.31 -0.79 -0.58 -1.2 -0.81 c -0.23 -0.12 -0.43 -0.72 -0.43 -0.83 c -0.08 -2.3 0.17 0.04 0.65 0.39 c 0.22 0.18 0.58 0.29 0.7 0.55 c 0.13 0.29 1.12 0.8 0.98 1.51 c 0 0.15 -0.52 -0.75 -0.71 -0.81 m 9.55 -0.12 c -0.02 -0.04 -0.02 -0.25 0 -0.49 c 0.04 -0.34 0.08 -0.46 0.24 -0.64 c 0.47 -0.59 -0.76 -0.8 -0.11 -1.07 c 0.16 -0.07 0.38 -0.21 0.49 -0.32 c 0.27 -0.28 0.41 -0.23 0.36 0.11 c -0.02 0.14 -0.05 0.45 -0.07 0.7 c -0.02 0.25 -0.11 0.61 -0.2 0.82 c -0.09 0.2 -0.16 0.43 -0.16 0.52 c 0 0.29 -0.42 0.59 -0.56 0.39 m -2.57 -0.32 c -0.32 -0.09 0.02 -0.29 0.32 -0.32 c 0.33 -0.03 0.53 0.04 0.53 0.16 c -0.12 0.26 -0.66 0.21 -0.85 0.16 m 0.9 -1.38 c 0.1 -0.02 0.31 -0.09 0.48 -0.15 c 0.41 -0.15 0.81 -0.15 0.86 0 c 0.05 0.13 -0.02 0.42 -0.12 0.54 c -0.09 0.1 -0.59 0.3 -0.75 0.3 c -0.27 -0.11 -0.86 -0.61 -0.48 -0.69 m -9.77 -0.76 c -0.17 -0.33 -0.38 -0.25 -0.72 -0.25 c -0.63 -0.01 -1.32 -0.41 -1.36 -0.7 c -0.02 -0.2 -0.23 -2.04 0.39 -0.28 c 0.29 0.13 0.22 0.34 0.48 0.54 c 0.21 0.07 0.76 0.05 1.04 -0.04 c 0.14 -0.05 0.34 -0.09 0.43 -0.09 c 0.4 0 0.66 0.6 0.39 0.91 c -0.21 0.24 -0.41 0.21 -0.63 -0.09 m 7.93 -1.07 c -0.11 -0.2 -0.14 -0.67 -0.06 -1.1 c 0.04 -0.21 0.03 -0.26 -0.08 -0.31 c -0.16 -0.08 -0.28 -0.01 -0.4 0.24 c -0.09 0.16 -0.14 0.2 -0.34 0.22 c -0.28 0.02 -0.64 -0.13 -0.64 -0.27 c 0 -0.18 0.14 -0.32 0.39 -0.39 c 0.33 -0.09 1.33 -0.18 0.01 -0.23 c -0.42 -0.02 -0.75 -0.13 -0.82 -0.3 c -0.09 -0.24 -0.01 -0.34 0.39 -0.44 c 0.58 -0.15 0.86 -0.09 1.22 0.29 c 0.43 0.45 0.74 0.95 0.79 1.28 c 0.12 0.83 0.12 0.88 -0.03 1.05 c -0.18 0.21 -0.3 0.21 -0.43 -0.03 m -9 -0.2 c -0.14 -0.07 -0.49 -0.46 -0.48 -0.59 c 0.02 -0.14 0.38 0.17 0.68 0.11 c 0.37 0.02 0.53 -0.43 0.82 -0.44 c 0.23 0 0.21 0.25 -0.02 0.41 c -0.37 0.35 -0.57 0.71 -1.01 0.5 m -0.81 -0.44 c -0.21 -0.08 -0.2 -0.34 0.01 -0.43 c 0.21 -0.09 0.49 0.07 0.49 0.27 c 0 0.2 -0.21 0.27 -0.5 0.16 m 3 -0.57 c -0.17 -0.35 0.2 -0.67 0.43 -0.38 c 0.2 0.26 0.1 0.53 -0.2 0.53 c -0.1 0 -0.18 -0.05 -0.23 -0.15 m 1.66 -0.32 c -1.9 -0.34 -0.23 -1.29 -0.19 -1.94 l -0.4 -0.02 c -0.68 -0.07 -0.85 0.68 -1.43 0.99 c -0.08 0.04 -0.16 0.15 -0.18 0.27 c -0.02 0.11 -0.1 0.27 -0.17 0.35 c -0.13 0.13 -0.39 1.1 -0.48 0.99 c -0.17 -0.2 0.14 -1.41 0.36 -1.53 c 0.11 -0.06 0.39 -0.32 0.63 -0.57 c 0.23 -0.25 0.5 -0.47 0.58 -0.49 c 0.09 -0.02 0.19 -0.11 0.25 -0.24 c 0.54 -0.65 0.77 -0.12 1.04 -0.05 c 0.51 0.13 0.44 0.73 0.03 0.82 c -0.13 0.03 -0.18 0.09 -0.21 0.23 c -0.08 0.37 -0.05 0.46 0.17 0.57 c 0.29 0.14 0.9 0.63 0.96 0.77 c 0.07 0.17 0.12 0.41 -0.07 0.41 c -0.32 -0.08 -0.58 -0.55 -0.88 -0.55"/></svg>