<svg xmlns="http://www.w3.org/2000/svg" viewBox="0 0 24 24"><path d="m 3.04 6.29 c -8.49 9.59 4.07 19.74 11.44 17.24 c 7.36 -2.49 12.3 -9.54 7.5 -15.71 c -4.8 -6.18 -9.53 -12.1 -18 -2.54" style="fill:#ffd600"/><path d="m 6.79 18.22 v -1 l 0.22 -0.22 c 0.12 -0.12 0.47 -0.37 0.77 -0.55 c 0.92 -0.55 2.48 -1.61 2.65 -1.79 c 0.41 -0.43 0.48 -0.17 0.48 1.77 v 1.59 l -0.5 0.13 c -0.27 0.07 -0.61 0.18 -0.74 0.25 c -0.13 0.06 -0.41 0.15 -0.61 0.2 c -0.2 0.04 -0.45 0.12 -0.55 0.18 c -0.1 0.05 -0.31 0.13 -0.47 0.17 c -0.16 0.04 -0.32 0.12 -0.37 0.17 c -0.06 0.07 -0.21 0.1 -0.49 0.1 h -0.4 m 4.89 -0.21 c 0 -0.16 -0.07 -0.28 -0.23 -0.43 c -0.13 -0.12 -0.27 -0.28 -0.31 -0.36 c -0.07 -0.13 -0.05 -0.16 0.16 -0.23 c 0.13 -0.04 0.27 -0.14 0.31 -0.21 c 0.05 -0.08 0.07 -0.63 0.06 -1.41 c -0.01 -0.7 0.01 -1.33 0.04 -1.4 c 0.1 -0.23 0.46 -0.23 0.55 0 c 0.03 0.06 0.04 0.69 0.04 1.39 c -0.01 0.79 0.02 1.33 0.06 1.41 c 0.04 0.07 0.18 0.17 0.31 0.21 c 0.22 0.07 0.23 0.09 0.16 0.23 c -0.04 0.08 -0.18 0.24 -0.31 0.36 c -0.17 0.16 -0.23 0.28 -0.23 0.43 c 0 0.21 -0.01 0.21 -0.31 0.21 c -0.3 0 -0.31 0 -0.31 -0.21 m 4.61 0.11 c -0.05 -0.05 -0.21 -0.13 -0.37 -0.17 c -0.16 -0.04 -0.37 -0.12 -0.46 -0.17 c -0.1 -0.05 -0.35 -0.13 -0.55 -0.18 c -0.2 -0.04 -0.48 -0.13 -0.61 -0.2 c -0.13 -0.07 -0.47 -0.18 -0.74 -0.25 l -0.5 -0.13 v -1.59 c 0 -1.94 0.07 -2.21 0.48 -1.77 c 0.17 0.18 1.73 1.23 2.65 1.79 c 0.3 0.18 0.65 0.43 0.77 0.55 l 0.23 0.22 v 2 h -0.41 c -0.27 0 -0.43 -0.04 -0.49 -0.11 m -5.54 -5.27 c -0.02 -0.06 -0.04 -1.34 -0.04 -2.84 c 0 -2.95 0.03 -3.27 0.39 -3.87 c 0.09 -0.15 0.16 -0.38 0.16 -0.51 c 0 -0.13 0.07 -0.35 0.16 -0.51 c 0.15 -0.26 0.16 -0.4 0.24 -1.88 c 0.07 -1.57 0.11 -1.79 0.32 -1.79 c 0.21 0 0.25 0.22 0.32 1.79 c 0.07 1.47 0.09 1.62 0.24 1.88 c 0.09 0.16 0.16 0.38 0.16 0.51 c 0 0.13 0.07 0.36 0.16 0.51 c 0.36 0.61 0.39 0.92 0.39 3.87 c 0 1.5 -0.02 2.78 -0.04 2.84 c -0.04 0.09 -0.21 0.11 -1.23 0.11 c -1.02 0 -1.2 -0.01 -1.23 -0.11" style="fill:#fff"/></svg>