<svg xmlns="http://www.w3.org/2000/svg" viewBox="0 0 24 24"><path d="m 23.86 12.1 c 1.8 15.84 -23.99 15.61 -23.69 -0.28 c -0.85 -14.79 25.1 -16.1 23.69 0.28" style="fill:#f4f4f4"/><path d="m 4.89 8.68 h 14.56 v 7.8 h -14.56" style="fill:#090605"/><g style="fill:#fff"><path d="m 7.1 13.93 c -0.07 -0.06 -0.11 -0.2 -0.15 -0.62 c -0.07 -0.68 0.01 -2.05 0.13 -2.17 c 0.06 -0.05 0.45 -0.07 1.79 -0.09 c 1.68 -0.02 1.72 -0.01 1.87 0.09 c 0.34 0.25 0.48 0.96 0.42 2.15 l -0.04 0.71 c -0.58 -0.05 -0.79 0.25 -0.79 -0.36 c 0 -0.55 -0.1 -1.61 -0.16 -1.72 c -0.07 -0.13 -0.23 -0.18 -0.38 -0.13 c -0.21 0.07 -0.27 0.36 -0.3 1.32 l -0.03 0.9 c -0.23 -0.02 -0.83 0.1 -0.77 -0.16 c -0.04 -0.07 -0.08 -0.54 -0.1 -1.09 c -0.1 -0.54 0.28 -0.97 -0.34 -0.94 c -0.52 -0.05 -0.32 0.59 -0.33 0.98 c -0.02 0.58 -0.05 1 -0.09 1.08 c -0.2 0.19 -0.47 0.15 -0.73 0.05"/><path d="m 12.61 14.1 c -0.5 -0.13 -0.88 -0.41 -1.02 -0.77 c -0.14 -0.36 -0.13 -1.16 0.03 -1.52 c 0.21 -0.49 0.66 -0.76 1.26 -0.76 c 0.75 0 1.13 0.27 1.35 0.95 c 0.2 0.6 0.1 1.15 -0.28 1.63 c -0.27 0.35 -0.93 0.57 -1.34 0.46 m 0.63 -0.92 c 0.19 -0.22 0.25 -0.68 0.13 -0.97 c -0.2 -0.46 -0.7 -0.51 -0.92 -0.08 c -0.11 0.21 -0.07 0.77 0.05 0.96 c 0.19 0.27 0.55 0.32 0.74 0.09"/><path d="m 16.76 14 c -0.12 -0.02 -0.48 -0.02 -0.8 -0.01 c -0.68 0.03 -0.89 -0.04 -1.13 -0.35 c -0.19 -0.25 -0.23 -0.7 -0.07 -1.04 c 0.14 -0.31 0.46 -0.55 0.8 -0.6 c 0.45 -0.06 0.57 0.1 0.54 -0.17 c -0.01 -0.14 -0.25 -0.19 -0.6 -0.12 c -0.31 0.07 -0.32 0.06 -0.42 -0.06 c -0.19 -0.23 -0.11 -0.54 0.17 -0.64 c 0.21 -0.07 0.97 -0.07 1.23 0 c 0.24 0.07 0.45 0.29 0.56 0.59 c 0.05 0.13 0.12 0.58 0.16 0.99 c 0.04 0.41 0.09 0.86 0.11 0.99 c 0.03 0.2 0.02 0.26 -0.07 0.33 c -0.19 0.12 -0.32 0.12 -0.47 0.1 m -0.63 -0.86 c 0.28 -0.26 0.07 -0.5 -0.33 -0.36 c -0.22 0.07 -0.29 0.23 -0.16 0.38 c 0.12 0.14 0.33 0.13 0.49 -0.02"/></g><g style="fill:#ef0306"><path d="m 17.38 6.1 h 1.2 v 4.26 h -1.2"/><path d="m 20.1 7.59 v 1.21 h -4.27 v -1.21"/></g></svg>