<svg xmlns="http://www.w3.org/2000/svg" viewBox="0 0 24 24"><path d="m 0.08 12.27 c 0.2 -2.48 1.37 -5.38 3 -7.39 c 2 -2.45 5.06 -4.25 8.1 -4.73 c 3.99 -0.57 8.28 1.74 10.31 4.36 c 0.99 1.31 1.78 3.05 2.13 4.69 c 0.9 4.25 -0.8 8.68 -4.5 11.72 c -2.21 1.82 -4.45 2.76 -7.09 2.99 c -3.16 0.28 -6.56 -0.98 -8.85 -3.26 c -2.16 -2.6 -3.32 -5.28 -3.11 -8.36" style="fill:#b0dfe5"/><path d="m 11.43 19.45 c -2.26 -0.28 -4.21 -1.55 -5.42 -3.52 c -1.44 -2.35 -1.44 -5.38 0 -7.72 c 1.73 -2.83 4.99 -4.15 8.15 -3.32 c 2.65 0.7 4.73 2.92 5.31 5.66 c 0.26 1.23 0.16 2.82 -0.25 3.98 c -0.76 2.14 -2.48 3.86 -4.56 4.57 c -0.99 0.34 -2.26 0.47 -3.23 0.35 m 2.91 -3.52 c 2.34 -0.63 3.88 -3 3.49 -5.43 c -0.27 -1.7 -1.44 -3.16 -2.99 -3.75 c -0.89 -0.34 -1.72 -0.43 -2.57 -0.26 c -2.43 0.47 -4.11 2.6 -3.95 5 c 0.05 0.76 0.18 1.25 0.5 1.92 c 0.65 1.32 1.86 2.26 3.32 2.57 c 0.53 0.11 1.64 0.08 2.19 -0.07" style="fill:#5485d0"/><path d="m 10.51 19.67 c -1.05 -0.17 -2.1 -0.58 -2.97 -1.18 c -0.55 -0.37 -1.47 -1.3 -1.86 -1.87 c -1.99 -2.91 -1.64 -6.85 0.83 -9.35 c 2.44 -2.46 6.3 -2.84 9.16 -0.89 c 0.93 0.63 1.91 1.77 2.43 2.8 c 0.52 1.05 0.73 1.98 0.73 3.26 c 0 1.28 -0.21 2.22 -0.73 3.27 c -0.51 1.03 -1.49 2.17 -2.42 2.8 c -1.5 1.02 -3.39 1.44 -5.17 1.16 m 4.18 -3.67 c 0.77 -0.39 1.68 -1.3 2.07 -2.08 c 0.84 -1.65 0.71 -3.64 -0.34 -5.13 c -0.72 -1.02 -1.79 -1.73 -2.99 -1.98 c -2.44 -0.51 -4.81 0.88 -5.64 3.29 c -0.26 1.07 -0.3 2.15 0.02 3.08 c 0.26 0.74 0.54 1.2 1.06 1.78 c 0.96 1.05 2.11 1.56 3.54 1.57 c 0.83 0.01 1.55 -0.18 2.28 -0.54" style="fill:#86c0c1"/></svg>