<svg xmlns="http://www.w3.org/2000/svg" viewBox="0 0 24 24"><path d="m 3.04 6.18 c -8.48 9.68 4.08 19.91 11.44 17.39 c 7.36 -2.52 12.31 -9.62 7.5 -15.85 c -4.81 -6.23 -9.53 -12.24 -18 -2.56" style="fill:#37445f"/><path d="m 9.65 19.45 c -1.62 -0.97 -2.51 -2.46 -2.63 -4.41 c -0.04 -0.34 -0.1 -0.55 0.13 -0.79 c 0.26 -0.28 0.89 -0.81 0.98 -0.81 c 0.1 0 0.1 0.06 0.02 0.48 c -0.1 0.47 0.61 0.87 0.92 1.08 c 0.08 0.05 0.26 0.3 0.4 0.57 c 0.5 0.93 1.27 1.68 2.11 2.09 c 0.42 0.28 0.86 0.21 1.34 0.21 c 1.06 0 1.39 -0.07 2.13 -0.43 c 0.83 -0.41 1.38 -1.07 1.81 -2.17 c 0.1 -0.26 0.22 -0.72 0.23 -0.8 c 0.38 -1.95 -1.93 -4.16 -1.87 -4.1 c 0.02 0.02 2.42 0.47 2.83 4.12 c 0.1 0.85 -0.54 2.97 -1.27 3.87 c -0.58 0.71 -2.11 1.39 -3.09 1.63 c -1.4 0.28 -2.81 0.17 -4 -0.55" style="fill:#c2e7ed"/><path d="m 8.91 14.8 c -0.21 -0.2 -0.41 -0.37 -0.43 -0.37 c -0.62 -0.63 0.15 -1.66 0.3 -1.84 c 0.21 -0.31 0.5 -0.79 0.66 -1.07 c 0.15 -0.28 0.38 -0.63 0.52 -0.77 c 0.25 -0.28 0.64 -0.5 0.79 -0.44 c 0.12 0.05 0.37 0.62 0.42 0.95 c 0.05 0.34 -0.1 0.59 -0.65 1.13 c -0.89 0.87 -0.86 1 -0.36 1.17 c 0.24 0.08 0.44 0.09 1.1 0.07 c 0.88 -0.03 1.29 -0.11 1.44 -0.28 c 0.06 -0.07 0.16 -0.41 0.25 -0.87 c 0.22 -1.09 0.4 -1.29 0.67 -0.75 c 0.09 0.17 0.16 0.48 0.21 0.83 c 0.08 0.64 0.14 0.78 0.36 0.86 c 0.23 0.09 1.01 0.09 1.12 0 c 0.13 -0.11 0.12 -0.15 -0.1 -0.39 c -0.41 -0.45 -1.14 -2.29 -0.91 -2.29 c 0.12 0 0.38 0.23 0.62 0.57 c 0.5 0.71 1.32 1.49 1.82 1.7 c 0.15 0.13 0.4 0.41 0.57 0.8 c -0.21 0.31 -1.28 0.31 -1.74 0.35 c -0.72 0.05 -2 0.13 -2.86 0.16 c -1.18 -0.04 -3.25 0.45 -3.79 0.48" style="fill:#ffdeac"/><path d="m 12 17.7 c -0.32 -0.09 -0.56 -0.23 -1.13 -0.66 c -0.52 -0.39 -0.75 -0.62 -0.61 -0.62 c 0.05 0 0.14 -0.12 0.22 -0.32 c 0.16 -0.4 0.27 -0.57 0.67 -1 c 0.6 -0.65 0.07 -0.71 0.3 -0.66 c 0.36 0 2.53 -0.1 3.09 -0.14 c -0.02 -0.02 -0.17 0.02 -0.17 0.45 c 0 0.13 -0.04 0.49 -0.09 0.8 c -0.16 1.09 -0.09 1.42 0.41 1.73 c 0.25 0.15 0.23 0.17 -0.43 0.34 c -0.61 0.16 -1.83 0.21 -2.24 0.09" style="fill:#8dc896"/><path d="m 12.27 10.73 c -0.13 -0.06 -0.27 -0.17 -0.3 -0.23 c -0.09 -0.17 -0.02 -0.48 0.2 -0.8 c 0.46 -0.69 0.66 -1.28 0.66 -1.93 c 0 -0.44 0.04 -0.53 0.39 -0.91 c 0.15 -0.16 0.33 -0.37 0.41 -0.48 c 0.39 -0.5 0.75 0.3 0.7 1.73 c -0.04 0.86 -0.18 0.99 -0.52 0.99 c -0.43 0 -0.57 0.24 -0.61 1.03 c -0.02 0.43 -0.04 0.48 -0.17 0.6 c -0.19 0.16 -0.44 0.16 -0.76 0" style="fill:#ffdeac"/><path d="m 11.36 13.37 c 0 -0.24 -0.23 -0.87 -0.39 -1.04 l -0.11 -0.13 l 0.13 -0.18 c 0.3 -0.4 0.32 -0.83 0.06 -1.36 c -0.14 -0.28 -0.14 -0.28 -0.02 -0.28 c 0.3 -0.03 0.54 -0.09 0.84 -0.15 v 0.16 c 0 0.43 0.85 0.73 1.23 0.44 c 0.08 -0.07 0.15 -0.17 0.15 -0.23 c 0 -0.11 0.01 -0.11 0.18 -0.02 c 0.1 0.05 0.3 0.11 0.46 0.13 c 0.16 0.02 0.3 0.06 0.3 0.1 c 0.01 0.04 0.05 0.23 0.09 0.43 c 0.42 0.85 0.58 1.43 0.42 2.05 c -0.04 0.2 -0.1 0.21 -0.42 0.08 c -0.19 -0.08 -0.23 -0.13 -0.27 -0.3 c -0.27 -1.52 -0.45 -1.87 -0.8 -1.54 c -0.11 0.09 -0.18 0.31 -0.32 0.89 c -0.12 0.51 -0.22 0.81 -0.3 0.9 c -0.13 0.15 -0.54 0.25 -0.99 0.25 c -0.25 0 -0.25 0 -0.25 -0.19" style="fill:#8dc896"/><g style="fill:#78a6be"><path d="m 11.1 8.52 c -0.06 -0.03 -0.3 -0.1 -0.52 -0.15 c -0.6 -0.14 -0.76 -0.28 -0.76 -0.7 c 0 -0.28 0.05 -0.41 0.27 -0.71 c 0.14 -0.21 0.26 -0.41 0.26 -0.46 c 0 -0.17 0.16 -0.08 0.3 0.16 c 0.09 0.16 0.16 0.43 0.18 0.81 c 0.04 0.51 0.06 0.59 0.27 0.81 c 0.13 0.14 0.23 0.26 0.23 0.27 c 0 0.04 -0.11 0.03 -0.23 -0.03"/><path d="m 11.97 5.72 c 0.04 -0.04 0.09 -0.05 0.11 -0.04 c 0.02 0.02 0.4 0.09 0.86 0.16 c 0.46 0.07 0.86 0.15 0.88 0.17 c 0.06 0.05 -0.84 0.89 -0.96 0.89 c -0.27 -0.11 -0.83 -0.86 -0.89 -1.18"/></g><path d="m 6.92 14.34 c 0 -0.08 0.1 -0.68 0.15 -0.88 c 0.23 -0.86 0.72 -1.66 1.41 -2.31 c 0.55 -0.52 0.91 -0.75 2.07 -1.39 c 0.29 -0.16 0.59 -0.35 0.68 -0.42 c 0.2 -0.17 0.28 -0.39 0.25 -0.63 c -0.02 -0.21 -0.09 -0.33 -0.31 -0.63 c -0.29 -0.39 -0.29 -0.42 -0.3 -0.95 c -0.01 -0.56 -0.05 -0.75 -0.27 -1.04 c -0.29 -0.39 -0.52 -0.52 -1.01 -0.58 c -2.39 0.36 -2.61 2.63 -0.71 3.26 c 0.21 0.12 -2.1 0.39 -1.8 -2.14 c 0.07 -0.62 0.48 -1.27 1.04 -1.54 c 0.45 -0.22 1.06 -0.39 1.59 -0.39 c 0.51 0 0.89 0.08 1.32 0.29 c 0.66 0.31 0.85 0.92 1.24 1.49 c 0.12 0.18 0.26 0.36 0.3 0.4 c 0.45 0.23 0.26 0.01 0.18 0.81 c -0.04 0.69 -0.12 0.94 -0.57 1.75 c -0.16 0.3 -0.3 0.59 -0.32 0.65 c -0.03 0.12 0.02 0.11 -0.57 0.2 c -0.16 0.03 -0.3 0.06 -0.31 0.07 c -0.01 0.01 -0.07 -0.03 -0.14 -0.09 c -0.07 -0.06 -0.13 -0.11 -0.15 -0.11 c -0.11 0 -0.44 0.16 -0.6 0.3 c -0.25 0.21 -0.36 0.36 -0.8 1.09 c -0.44 0.73 -0.72 1.16 -0.87 1.33 c -0.06 0.06 -0.3 0.38 -0.48 0.5 c -0.38 0.25 -0.79 0.54 -0.93 0.8 c -0.05 0.09 -0.09 0.14 -0.09 0.12" style="fill:#8ebfd0"/><path d="m 12.38 7.36 c 0 0.4 -0.29 0.73 -0.64 0.73 c -0.35 0 -0.63 -0.33 -0.63 -0.73 c 0 -0.41 0.29 -0.73 0.63 -0.73 c 0.35 0 0.64 0.33 0.64 0.73" style="fill:#a8d6e0"/><path d="m 11.99 7.35 c 0 0.18 -0.13 0.32 -0.29 0.32 c -0.15 0 -0.28 -0.14 -0.28 -0.32 c 0 -0.17 0.13 -0.32 0.28 -0.32 c 0.16 0 0.29 0.14 0.29 0.32" style="fill:#dfffff"/></svg>