<svg xmlns="http://www.w3.org/2000/svg" viewBox="0 0 24 24"><path d="m 0.37 14.52 c 0.93 12.33 19.25 12.7 22.9 0.71 c 3.57 -9.7 -6.18 -17.63 -14.1 -14.45 c -5.29 1.51 -9.93 7.65 -8.77 13.74" style="fill:#2e2f31"/><path d="m 4.55 17.96 c -0.07 -0.04 -0.08 -0.97 -0.07 -4.41 l 0.02 -4.36 l 5.88 -0.02 c 4.66 -0.01 5.89 0 5.94 0.07 c 0.03 0.05 0.05 2 0.05 4.35 c 0 3.22 -0.02 4.28 -0.08 4.34 c -0.06 0.06 -1.45 0.08 -5.87 0.08 c -3.18 0 -5.82 -0.02 -5.87 -0.05 m 10.6 -1.37 l -0.02 -0.19 l -4.73 -0.02 c -4.16 -0.02 -4.73 0 -4.77 0.09 c -0.02 0.05 -0.02 0.15 0 0.21 c 0.04 0.09 0.63 0.1 4.79 0.1 h 4.75 m -5.36 -4.6 v -1.82 h -4.17 l -0.02 1.75 c -0.01 0.96 0 1.79 0.02 1.84 c 0.03 0.07 0.47 0.08 2.1 0.07 l 2.07 -0.02 m 5.33 -1.8 l -0.02 -1.84 h -1.95 l -0.02 1.84 l -0.02 1.84 h 2 m 1.66 -1.25 l -0.02 -4.07 l -11.23 -0.07 v -1.1 h 12.31 l 0.02 4.65 l 0.02 4.65 h -1.07 m 1.75 -5.74 c 0 -2.59 -0.02 -4 -0.07 -4.09 c -0.07 -0.13 -0.2 -0.13 -5.65 -0.13 h -5.58 v -0.89 h 12.1 v 9.1 h -0.81" style="fill:#fff"/></svg>