<svg xmlns="http://www.w3.org/2000/svg" viewBox="0 0 24 24"><path d="m 12.23 23.87 c -2.48 -0.19 -5.37 -1.37 -7.39 -3 c -2.45 -2 -4.25 -5.06 -4.73 -8.1 c -0.57 -3.99 1.74 -8.28 4.36 -10.31 c 1.31 -0.99 3.05 -1.78 4.69 -2.13 c 4.25 -0.9 8.68 0.8 11.72 4.5 c 1.82 2.21 2.76 4.45 2.99 7.09 c 0.28 3.17 -0.98 6.56 -3.26 8.85 c -2.6 2.16 -5.28 3.32 -8.36 3.1" style="fill:#007c89"/><g style="fill:#fff"><path d="m 8.36 9.45 l 2.02 -1.45 v 8.27 l -2.02 -1.45 v -5.38"/><g style="fill-rule:evenodd"><path d="m 13.63 12.72 v -4.71 l 2.02 1.45 v 5.38 l -2.02 1.45 l -4.87 -7.1 l 1.63 -1.17 l 3.24 4.72"/><path d="m 15 17.54 c 0.31 -0.18 0.7 -0.07 0.88 0.24 c 0.18 0.32 0.07 0.71 -0.23 0.9 c -1.2 0.7 -2.56 1.05 -3.94 1 c -1.25 -0.05 -2.46 -0.41 -3.54 -1.07 c -0.3 -0.19 -0.4 -0.59 -0.22 -0.9 c 0.18 -0.31 0.58 -0.41 0.88 -0.22 c 0.89 0.54 1.89 0.84 2.93 0.88 c 1.14 0.04 2.27 -0.25 3.25 -0.83 m 2.42 -8.18 c -0.16 -0.32 -0.03 -0.72 0.29 -0.88 c 0.32 -0.16 0.7 -0.03 0.86 0.3 c 0.55 1.12 0.82 2.37 0.77 3.63 c -0.03 0.95 -0.24 1.89 -0.61 2.77 c -0.14 0.33 -0.52 0.48 -0.85 0.34 c -0.32 -0.14 -0.47 -0.54 -0.33 -0.87 c 0.31 -0.72 0.48 -1.5 0.51 -2.29 c 0.04 -1.04 -0.18 -2.07 -0.64 -2.99 m -8.11 -2.83 c -0.32 0.16 -0.71 0.02 -0.86 -0.31 c -0.15 -0.32 -0.02 -0.72 0.3 -0.88 c 1.07 -0.53 2.26 -0.79 3.45 -0.74 c 1.15 0.04 2.28 0.35 3.29 0.91 c 0.31 0.17 0.43 0.57 0.26 0.89 c -0.17 0.32 -0.56 0.43 -0.88 0.26 c -0.84 -0.46 -1.77 -0.72 -2.71 -0.76 c -0.98 -0.04 -1.96 0.18 -2.85 0.61 m -3.14 7.61 c 0.11 0.34 -0.07 0.71 -0.41 0.83 c -0.34 0.12 -0.7 -0.07 -0.82 -0.41 c -0.27 -0.85 -0.4 -1.75 -0.38 -2.65 c 0.04 -1.18 0.35 -2.35 0.92 -3.39 c 0.17 -0.32 0.56 -0.43 0.87 -0.26 c 0.31 0.18 0.43 0.58 0.25 0.89 c -0.46 0.86 -0.72 1.82 -0.76 2.8 c -0.02 0.75 0.08 1.48 0.31 2.19 m 11.32 -6.75 c -0.01 0.36 -0.3 0.64 -0.66 0.63 c -0.35 -0.01 -0.63 -0.32 -0.61 -0.68 c 0.01 -0.36 0.3 -0.64 0.66 -0.63 c 0.35 0.01 0.63 0.31 0.61 0.68 m -10 9.1 c -0.01 0.36 -0.3 0.64 -0.66 0.63 c -0.35 -0.01 -0.63 -0.32 -0.61 -0.68 c 0.01 -0.36 0.3 -0.64 0.66 -0.63 c 0.35 0.01 0.63 0.31 0.61 0.68 m 10.29 0.36 c 0.01 -0.36 -0.26 -0.66 -0.61 -0.68 c -0.36 -0.02 -0.65 0.27 -0.67 0.63 c -0.01 0.36 0.27 0.66 0.62 0.68 c 0.36 0.01 0.65 -0.27 0.66 -0.63 m -9.82 -9.78 c 0.01 -0.36 -0.27 -0.67 -0.62 -0.68 c -0.36 -0.01 -0.65 0.27 -0.66 0.63 c -0.01 0.36 0.27 0.67 0.61 0.68 c 0.36 0.01 0.65 -0.27 0.67 -0.63"/></g></g></svg>