<svg xmlns="http://www.w3.org/2000/svg" viewBox="0 0 24 24"><path d="m 0.38 11.95 c -1.64 -15.76 24.85 -15.65 23.4 0.41 c 1.17 15.1 -25.38 15.73 -23.4 -0.41" style="fill:#778799"/><path d="m 6.52 7.56 h 11.17 c 1.14 0 2.06 0.72 2.06 1.61 v 6.16 c 0 0.89 -0.93 1.61 -2.06 1.61 h -11.17 c -1.14 0 -2.06 -0.72 -2.06 -1.61 v -6.16 c 0 -0.89 0.92 -1.61 2.06 -1.61" style="fill:#3d3745"/><g style="fill:#a3a2a5"><path d="m 10.34 14.46 h 3.26 c 0.46 0 0.83 0.32 0.83 0.73 c 0 0.4 -0.37 0.72 -0.83 0.72 h -3.26 c -0.46 0 -0.83 -0.32 -0.83 -0.72 c 0 -0.4 0.37 -0.73 0.83 -0.73"/><path d="m 18.23 11.39 c 0 1.39 -1.13 2.52 -2.53 2.52 c -1.39 0 -2.52 -1.13 -2.52 -2.52 c 0 -1.39 1.13 -2.52 2.52 -2.52 c 1.39 0 2.53 1.13 2.53 2.52"/><path d="m 11.24 11.32 c 0 1.39 -1.13 2.52 -2.53 2.52 c -1.39 0 -2.52 -1.13 -2.52 -2.52 c 0 -1.39 1.13 -2.52 2.52 -2.52 c 1.4 0 2.53 1.13 2.53 2.52"/></g><g style="fill:#e36396"><path d="m 10.48 11.36 c 0 0.99 -0.79 1.79 -1.77 1.79 c -0.97 0 -1.76 -0.8 -1.76 -1.79 c 0 -0.99 0.79 -1.8 1.76 -1.8 c 0.98 0 1.77 0.8 1.77 1.8"/><path d="m 17.4 11.36 c 0 0.99 -0.79 1.79 -1.76 1.79 c -0.98 0 -1.77 -0.8 -1.77 -1.79 c 0 -0.99 0.79 -1.8 1.77 -1.8 c 0.97 0 1.76 0.8 1.76 1.8"/></g><path d="m 6.54 8.97 c 0 0.4 -0.32 0.73 -0.72 0.73 c -0.4 0 -0.73 -0.32 -0.73 -0.73 c 0 -0.4 0.32 -0.72 0.73 -0.72 c 0.4 0 0.73 0.32 0.72 0.72" style="fill:#3ccd80"/></svg>