<svg xmlns="http://www.w3.org/2000/svg" viewBox="0 0 24 24"><path d="m 0.28 14.74 c 1.49 9.68 14.71 12.28 20.54 5.36 c 5.14 -5.14 3.86 -14.97 -2.45 -18.35 c -7.24 -4.51 -17.79 1.07 -18.36 10.1 c -0.06 0.98 0.02 1.98 0.26 2.93" style="fill:#fc561f"/><path d="m 10.98 13.54 h -1.68 l 2.81 4.09 l 2.81 -4.09 h -1.69 v -2.61 h 1.69 l -2.81 -4.09 l -2.81 4.09 h 1.68 v 2.61 m 4.09 4.05 c 0.3 -0.18 0.69 -0.07 0.86 0.24 c 0.18 0.31 0.07 0.71 -0.23 0.89 c -1.17 0.7 -2.5 1.04 -3.84 1 c -1.22 -0.04 -2.4 -0.41 -3.46 -1.06 c -0.3 -0.18 -0.39 -0.59 -0.21 -0.89 c 0.18 -0.31 0.57 -0.41 0.86 -0.23 c 0.86 0.54 1.84 0.84 2.85 0.88 c 1.11 0.04 2.21 -0.25 3.17 -0.82 m 2.36 -8.11 c -0.16 -0.32 -0.03 -0.71 0.28 -0.88 c 0.31 -0.16 0.69 -0.03 0.84 0.29 c 0.54 1.11 0.79 2.35 0.75 3.6 c -0.03 0.95 -0.23 1.87 -0.6 2.75 c -0.14 0.33 -0.51 0.48 -0.83 0.34 c -0.32 -0.14 -0.46 -0.53 -0.32 -0.86 c 0.31 -0.71 0.47 -1.49 0.5 -2.27 c 0.03 -1.03 -0.18 -2.05 -0.62 -2.97 m -7.91 -2.8 c -0.31 0.16 -0.69 0.02 -0.84 -0.3 c -0.15 -0.32 -0.02 -0.71 0.29 -0.87 c 1.05 -0.52 2.21 -0.78 3.37 -0.73 c 1.12 0.04 2.22 0.35 3.21 0.91 c 0.3 0.17 0.42 0.57 0.25 0.88 c -0.16 0.31 -0.55 0.43 -0.85 0.26 c -0.81 -0.46 -1.72 -0.72 -2.65 -0.75 c -0.96 -0.04 -1.91 0.18 -2.78 0.61 m -3.07 7.55 c 0.11 0.34 -0.07 0.71 -0.4 0.82 c -0.33 0.12 -0.68 -0.07 -0.79 -0.41 c -0.27 -0.85 -0.39 -1.74 -0.37 -2.63 c 0.04 -1.18 0.34 -2.33 0.89 -3.36 c 0.17 -0.31 0.55 -0.43 0.85 -0.25 c 0.3 0.18 0.41 0.57 0.25 0.89 c -0.45 0.86 -0.71 1.8 -0.74 2.78 c -0.02 0.74 0.08 1.47 0.3 2.18 m 11 -6.7 c -0.01 0.36 -0.3 0.64 -0.65 0.63 c -0.34 -0.01 -0.62 -0.31 -0.6 -0.67 c 0.01 -0.36 0.3 -0.64 0.65 -0.63 c 0.35 0.01 0.62 0.31 0.6 0.67 m -9.79 9 c -0.01 0.36 -0.3 0.64 -0.65 0.63 c -0.34 -0.01 -0.61 -0.31 -0.6 -0.67 c 0.01 -0.36 0.3 -0.64 0.65 -0.63 c 0.34 0.01 0.61 0.31 0.6 0.67 m 10 0.36 c 0.02 -0.36 -0.26 -0.66 -0.6 -0.67 c -0.35 -0.01 -0.64 0.27 -0.65 0.63 c -0.01 0.36 0.26 0.66 0.6 0.67 c 0.35 0.01 0.64 -0.27 0.65 -0.63 m -9.58 -9.7 c 0.01 -0.36 -0.26 -0.66 -0.6 -0.67 c -0.34 -0.02 -0.64 0.27 -0.65 0.62 c -0.01 0.36 0.26 0.66 0.6 0.68 c 0.34 0.01 0.64 -0.27 0.65 -0.63" style="fill:#fff;fill-rule:evenodd"/></svg>