<svg xmlns="http://www.w3.org/2000/svg" viewBox="0 0 24 24"><path d="m 9.7 23.48 c -2.2 -0.93 -5.24 -2.31 -5.51 -2.49 c -0.17 -0.11 -0.45 -0.39 -0.62 -0.62 c -0.5 -0.66 -3.2 -5.36 -3.31 -5.79 c -0.11 -0.39 -0.06 -1.81 0.11 -3.09 c 0.37 -3.79 0.19 -3.7 0.68 -4.52 c 0.11 -0.22 1.18 -1.47 2.39 -2.79 c 2.32 -2.52 2.57 -2.73 3.55 -2.92 c 2.63 -0.45 4.3 -1.02 6.66 -1.15 c 2.11 0.9 4.38 1.84 6.36 2.96 c 0.31 0.27 0.77 0.96 1.81 2.73 c 2.12 3.62 1.95 3.23 1.94 4.49 c -0.21 1.97 -0.2 5.26 -0.88 6.66 c -0.23 0.44 -3.33 3.93 -4.3 4.86 c -0.49 0.46 -0.97 0.67 -2.11 0.91 c -1.14 0.43 -3.83 0.87 -4.75 1.04 c -0.53 0.13 -1.15 0.08 -2 -0.29" style="fill:#556c9e"/><path d="m 10.15 21.1 c -1.35 -0.88 -1.59 -0.98 -3.34 -1.34 c -1.77 -0.38 -2.08 -0.69 -2.45 -2.45 c -0.35 -1.71 -0.41 -1.87 -1.16 -3 c -0.9 -1.37 -1.03 -1.63 -1.04 -2.09 c -0.01 -0.52 0.21 -1 1 -2.19 c 0.78 -1.18 0.87 -1.41 1.18 -2.95 c 0.27 -1.3 0.54 -1.87 1.02 -2.15 c 0.19 -0.11 0.9 -0.31 1.58 -0.44 c 1.5 -0.3 1.75 -0.4 2.95 -1.18 c 1.96 -1.27 2.38 -1.27 4.3 0.03 c 0.9 0.6 1.49 0.84 2.58 1.07 c 0.96 0.19 1.74 0.43 2.06 0.64 c 0.36 0.23 0.63 0.84 0.9 2.07 c 0.33 1.51 0.55 2.04 1.23 3 c 0.71 1 0.89 1.43 0.89 2 c 0 0.54 -0.26 1.13 -0.88 2 c -0.73 1.05 -0.98 1.63 -1.2 2.81 c -0.23 1.23 -0.41 1.71 -0.74 2.07 c -0.36 0.38 -0.65 0.49 -2.04 0.79 c -1.38 0.3 -1.89 0.52 -3.09 1.32 c -0.97 0.65 -1.34 0.8 -1.97 0.8 c -0.46 0 -0.63 -0.08 -1.78 -0.83" style="fill:#002370"/><g style="fill:#fff"><path d="m 6.25 15.84 c -0.34 -0.1 -0.57 -0.24 -0.81 -0.48 c -0.55 -0.56 -0.71 -1.41 -0.46 -2.43 c 0.07 -0.27 0.12 -0.32 0.23 -0.21 c 0.14 0.13 0.19 0.35 0.22 1 c 0.02 0.33 0.06 0.68 0.09 0.79 c 0.13 0.48 0.45 0.71 1.11 0.81 c 0.38 0.05 0.48 0.1 0.63 0.24 c 0.21 0.21 0.05 0.33 -0.48 0.35 c -0.26 0.01 -0.39 -0.01 -0.55 -0.05"/><path d="m 9.38 18.33 c -0.38 -0.02 -0.55 -0.05 -0.77 -0.12 c -0.87 -0.28 -1.8 -0.95 -2.25 -1.61 c -0.3 -0.45 -0.32 -0.57 -0.07 -0.57 c 0.2 0 0.3 0.07 0.73 0.51 c 0.63 0.63 1.15 0.96 1.86 1.16 c 0.28 0.08 0.42 0.09 1.16 0.12 c 0.84 0.03 1 0.05 1.24 0.18 c 0.22 0.11 0.2 0.2 -0.05 0.27 c -0.12 0.04 -1.12 0.11 -1.3 0.1 c -0.04 0 -0.29 -0.02 -0.55 -0.03"/><path d="m 9.35 16.87 c -0.68 -0.38 -2.14 -1.59 -2.46 -2.06 c -0.09 -0.13 -0.11 -0.17 -0.09 -0.3 c 0.02 -0.15 0.06 -0.21 0.15 -0.21 c 0.08 0 0.33 0.2 0.83 0.66 c 0.62 0.57 0.95 0.85 1.37 1.14 c 0.48 0.34 0.54 0.4 0.54 0.56 c 0 0.17 -0.05 0.31 -0.11 0.31 c -0.03 0 -0.12 -0.04 -0.22 -0.09"/><path d="m 8.1 14.99 c -0.05 -0.05 -0.09 -0.12 -0.09 -0.16 c 0 -0.04 0.07 -0.23 0.15 -0.44 c 0.25 -0.61 0.35 -1.07 0.44 -2.06 l 0.04 -0.45 h 0.2 c 0.24 0 0.25 0.02 0.29 0.39 c 0.04 0.47 -0.13 1.46 -0.34 2.04 c -0.11 0.29 -0.31 0.64 -0.41 0.71 c -0.11 0.07 -0.17 0.07 -0.28 -0.03"/><path d="m 6.14 15 c -0.17 -0.12 -0.23 -0.39 -0.13 -0.67 c 0.19 -0.53 0.99 -1.23 1.67 -1.46 c 0.43 -0.14 0.5 -0.15 0.6 -0.05 c 0.2 0.2 0.06 0.38 -0.46 0.58 c -0.56 0.23 -0.9 0.5 -1.13 0.91 c -0.06 0.11 -0.18 0.31 -0.26 0.45 c -0.08 0.14 -0.16 0.26 -0.18 0.27 c -0.02 0.01 -0.07 -0.01 -0.11 -0.04"/><path d="m 5.95 13.55 c -0.48 -0.5 -1.13 -2.36 -1.08 -3.14 c 0.03 -0.5 0.34 -1.27 0.6 -1.48 c 0.09 -0.07 0.1 -0.07 0.14 -0.02 c 0.07 0.09 0.05 0.49 -0.02 0.74 c -0.11 0.35 -0.11 0.4 -0.11 0.87 c 0 0.68 0.08 0.97 0.56 2.05 c 0.31 0.69 0.35 0.81 0.3 0.93 c -0.08 0.2 -0.22 0.21 -0.38 0.05"/><path d="m 5.79 11.55 c -0.11 -0.25 -0.12 -0.35 -0.04 -0.51 c 0.2 -0.39 0.78 -1.2 1.09 -1.54 c 0.16 -0.17 0.2 -0.2 0.31 -0.2 c 0.07 0 0.16 0.02 0.2 0.05 c 0.15 0.1 0.11 0.21 -0.33 0.8 c -0.22 0.3 -0.56 0.77 -0.76 1.05 c -0.2 0.28 -0.37 0.5 -0.39 0.5 c -0.02 0 -0.07 -0.07 -0.1 -0.15"/><path d="m 6 9.98 c -0.09 -0.14 -0.16 -0.45 -0.16 -0.71 c 0 -0.68 0.36 -1.43 1 -2.06 c 0.65 -0.65 1.62 -1.11 2.57 -1.22 c 0.27 -0.03 0.36 0.01 0.36 0.18 c 0 0.23 -0.09 0.3 -0.62 0.43 c -0.44 0.11 -0.67 0.2 -1.03 0.38 c -0.41 0.21 -0.71 0.44 -1.02 0.76 c -0.43 0.45 -0.59 0.8 -0.68 1.54 c -0.06 0.46 -0.07 0.49 -0.16 0.63 c -0.1 0.15 -0.18 0.18 -0.24 0.09"/><path d="m 8.57 10.86 c -0.11 -0.11 -0.17 -0.23 -0.29 -0.55 c -0.23 -0.61 -0.61 -1 -1.2 -1.23 c -0.36 -0.14 -0.46 -0.2 -0.46 -0.24 c 0 -0.02 0.06 -0.13 0.14 -0.23 l 0.14 -0.19 l 0.27 0.08 c 0.48 0.15 0.73 0.3 0.99 0.57 c 0.34 0.36 0.63 0.88 0.75 1.35 c 0.09 0.35 0.05 0.47 -0.14 0.51 c -0.09 0.02 -0.12 0 -0.2 -0.08"/><path d="m 8.1 8.77 c -0.04 -0.03 -0.1 -0.1 -0.13 -0.15 c -0.04 -0.09 -0.04 -0.1 0.03 -0.18 c 0.1 -0.12 0.44 -0.37 0.88 -0.67 c 1.1 -0.73 1.72 -1 2.18 -0.96 c 0.18 0.02 0.44 0.13 0.44 0.19 c 0 0.02 -0.15 0.09 -0.34 0.18 c -0.83 0.36 -1.46 0.71 -2.22 1.21 c -0.51 0.34 -0.68 0.44 -0.73 0.44 c -0.02 0 -0.06 -0.02 -0.11 -0.05"/><path d="m 14.1 11.49 c -1.83 -0.48 -3.33 -1.63 -3.96 -3.04 c -0.18 -0.4 -0.18 -0.46 0.01 -0.6 c 0.08 -0.05 0.16 -0.1 0.19 -0.09 c 0.05 0.01 0.16 0.19 0.47 0.74 c 0.46 0.83 1.22 1.52 2.22 2 c 0.56 0.27 0.94 0.4 1.34 0.48 c 0.49 0.1 0.59 0.2 0.45 0.48 c -0.07 0.13 -0.09 0.14 -0.2 0.14 c -0.07 0 -0.3 -0.05 -0.52 -0.1"/><path d="m 13.19 7.26 c -0.08 -0.03 -0.31 -0.11 -0.53 -0.19 c -0.43 -0.16 -0.71 -0.23 -1.34 -0.37 c -0.52 -0.11 -0.59 -0.14 -0.59 -0.32 c 0 -0.34 0.27 -0.36 1.38 -0.07 c 0.8 0.21 1.28 0.4 1.39 0.55 c 0.06 0.09 0.07 0.27 0.02 0.37 c -0.04 0.08 -0.13 0.08 -0.32 0.02"/><path d="m 9.96 6.82 c -0.09 -0.07 -0.05 -0.42 0.08 -0.71 c 0.49 -1.08 1.54 -1.62 2.58 -1.33 c 0.22 0.06 0.43 0.17 0.75 0.41 c 0.46 0.34 0.57 0.56 0.33 0.63 c -0.18 0.05 -0.33 0 -0.67 -0.23 c -0.38 -0.25 -0.63 -0.34 -0.92 -0.34 c -0.37 0 -0.66 0.11 -1 0.37 c -0.23 0.18 -0.31 0.29 -0.55 0.7 c -0.21 0.35 -0.3 0.46 -0.45 0.51 c -0.07 0.03 -0.11 0.02 -0.15 -0.01"/><path d="m 17.65 8.27 c -0.07 -0.04 -0.32 -0.25 -0.54 -0.48 c -0.55 -0.56 -1.09 -0.91 -1.73 -1.14 c -0.21 -0.07 -0.35 -0.09 -1 -0.12 c -1.12 -0.05 -1.63 -0.15 -1.66 -0.31 c -0.03 -0.14 0.55 -0.23 1.52 -0.23 c 1.05 0 1.63 0.16 2.42 0.68 c 0.55 0.36 1.4 1.33 1.37 1.56 c -0.02 0.11 -0.2 0.12 -0.39 0.03"/><path d="m 12.46 9.98 c -0.08 -0.06 -0.14 -0.12 -0.14 -0.14 c 0 -0.02 0.14 -0.19 0.31 -0.38 c 0.7 -0.79 0.98 -1.35 1.07 -2.13 c 0.04 -0.43 0.05 -0.47 0.14 -0.57 c 0.18 -0.2 0.4 -0.11 0.47 0.19 c 0.08 0.32 -0.11 1.06 -0.43 1.7 c -0.34 0.67 -0.99 1.43 -1.23 1.43 c -0.03 0 -0.11 -0.05 -0.19 -0.1"/><path d="m 8.69 11.65 c -0.06 -0.01 -0.23 -0.03 -0.38 -0.05 c -0.54 -0.07 -1.22 -0.34 -1.44 -0.57 c -0.12 -0.12 -0.13 -0.2 -0.04 -0.32 c 0.1 -0.15 0.18 -0.15 0.55 0.02 c 0.6 0.27 0.89 0.33 1.54 0.34 c 0.65 0 1.13 -0.11 1.95 -0.43 c 0.48 -0.2 0.63 -0.2 0.79 -0.06 c 0.11 0.1 0.11 0.1 0.05 0.19 c -0.25 0.39 -2.31 1 -3 0.89"/><path d="m 13.66 16.47 c -0.05 -0.08 -0.16 -0.26 -0.23 -0.41 c -0.36 -0.72 -0.89 -1.33 -1.58 -1.78 c -0.63 -0.41 -1.11 -0.64 -2.03 -0.91 c -0.57 -0.18 -0.72 -0.34 -0.47 -0.53 c 0.11 -0.09 0.28 -0.09 0.63 0 c 1.24 0.32 2.45 1 3.15 1.8 c 0.46 0.51 0.92 1.3 0.96 1.62 c 0.02 0.13 0.01 0.15 -0.09 0.25 c -0.14 0.14 -0.22 0.13 -0.34 -0.04"/><path d="m 12.49 13.8 c -0.1 -0.1 -0.1 -0.11 -0.05 -0.2 c 0.1 -0.19 0.67 -0.46 1.39 -0.66 c 0.79 -0.22 1.44 -0.29 1.96 -0.2 c 0.56 0.1 1.02 0.25 1.3 0.45 c 0.31 0.21 0.34 0.29 0.19 0.47 c -0.11 0.13 -0.16 0.13 -0.61 -0.07 c -0.52 -0.23 -0.74 -0.28 -1.39 -0.28 c -0.77 0 -1.21 0.09 -2.05 0.43 c -0.49 0.2 -0.59 0.21 -0.73 0.07"/><path d="m 15.1 12.48 c -0.06 -0.04 -0.07 -0.09 -0.07 -0.59 c 0 -0.3 0.02 -0.66 0.05 -0.8 c 0.2 -1.18 0.71 -2.04 1.03 -1.72 c 0.1 0.1 0.09 0.19 -0.09 0.54 c -0.27 0.56 -0.36 0.89 -0.45 1.86 c -0.03 0.29 -0.06 0.56 -0.07 0.61 c -0.04 0.14 -0.28 0.2 -0.41 0.1"/><path d="m 15.82 11.5 c -0.05 -0.1 -0.04 -0.26 0.02 -0.34 c 0.04 -0.04 0.23 -0.14 0.44 -0.24 c 0.21 -0.09 0.45 -0.21 0.54 -0.27 c 0.43 -0.3 0.73 -0.66 0.86 -1.02 c 0.09 -0.28 0.19 -0.37 0.32 -0.28 c 0.14 0.09 0.23 0.26 0.21 0.4 c -0.02 0.18 -0.25 0.59 -0.46 0.84 c -0.3 0.37 -0.83 0.7 -1.39 0.89 c -0.33 0.11 -0.48 0.11 -0.54 0.02"/><path d="m 17.1 10.1 c -0.05 -0.04 -0.43 -0.38 -0.84 -0.74 c -0.4 -0.37 -0.97 -0.84 -1.25 -1.05 c -0.28 -0.21 -0.54 -0.41 -0.56 -0.44 c -0.06 -0.08 -0.02 -0.27 0.08 -0.36 c 0.07 -0.06 0.1 -0.07 0.17 -0.04 c 0.21 0.08 1.06 0.71 1.57 1.15 c 0.39 0.34 1.03 0.99 1.09 1.09 c 0.04 0.09 0.04 0.11 -0.04 0.28 c -0.05 0.11 -0.09 0.19 -0.1 0.19 c -0.01 0 -0.06 -0.04 -0.11 -0.07"/><path d="m 18.9 11.64 c -0.13 -0.14 -0.23 -0.64 -0.23 -1.14 c 0 -0.5 -0.13 -0.87 -0.37 -1.11 c -0.19 -0.18 -0.36 -0.26 -0.75 -0.34 c -0.19 -0.04 -0.39 -0.09 -0.45 -0.12 c -0.16 -0.07 -0.32 -0.21 -0.32 -0.29 c 0 -0.09 0.2 -0.17 0.5 -0.19 c 0.73 -0.05 1.5 0.43 1.82 1.14 c 0.18 0.39 0.18 1.59 0.01 1.94 c -0.09 0.18 -0.13 0.2 -0.21 0.12"/><path d="m 18.46 15.39 c -0.05 -0.14 -0.04 -0.3 0.05 -0.59 c 0.2 -0.63 0.19 -1.46 -0.03 -2.1 c -0.06 -0.18 -0.23 -0.61 -0.38 -0.95 c -0.31 -0.72 -0.34 -0.91 -0.18 -1 c 0.09 -0.05 0.1 -0.05 0.19 0.02 c 0.35 0.26 0.82 1.25 1.04 2.21 c 0.1 0.41 0.12 1.07 0.05 1.41 c -0.07 0.31 -0.24 0.68 -0.43 0.92 c -0.16 0.2 -0.26 0.23 -0.32 0.09"/><path d="m 16.75 15 c -0.08 -0.05 -0.11 -0.09 -0.11 -0.15 c 0 -0.05 0.14 -0.26 0.38 -0.57 c 0.2 -0.27 0.54 -0.75 0.75 -1.07 c 0.21 -0.31 0.39 -0.58 0.41 -0.59 c 0.08 -0.05 0.25 0.24 0.25 0.43 c 0 0.37 -1.21 2.03 -1.48 2.03 c -0.05 0 -0.13 -0.03 -0.19 -0.07"/><path d="m 16.87 15.84 c -0.5 -0.14 -0.84 -0.4 -1.14 -0.84 c -0.29 -0.43 -0.56 -1.19 -0.5 -1.43 c 0.02 -0.11 0.13 -0.15 0.26 -0.11 c 0.12 0.04 0.27 0.19 0.27 0.28 c 0 0.12 0.18 0.54 0.36 0.82 c 0.28 0.45 0.51 0.62 0.98 0.74 c 0.16 0.04 0.31 0.09 0.33 0.11 c 0.05 0.04 0.05 0.25 0.01 0.34 c -0.04 0.07 -0.21 0.17 -0.3 0.17 c -0.03 0 -0.16 -0.03 -0.27 -0.06"/><path d="m 14.38 18.31 c -0.07 -0.05 -0.08 -0.09 -0.06 -0.17 c 0.04 -0.16 0.15 -0.24 0.41 -0.3 c 0.77 -0.18 1.2 -0.35 1.66 -0.65 c 0.31 -0.21 0.65 -0.52 0.84 -0.78 c 0.27 -0.37 0.52 -1.14 0.47 -1.48 c -0.04 -0.27 0.16 -0.63 0.32 -0.6 c 0.15 0.03 0.28 0.57 0.24 1 c -0.1 1.21 -1.35 2.47 -2.89 2.91 c -0.18 0.05 -0.44 0.1 -0.62 0.11 c -0.27 0.02 -0.32 0.01 -0.39 -0.05"/><path d="m 12.89 17.49 c -0.09 -0.02 -0.18 -0.06 -0.2 -0.08 c -0.02 -0.02 0.24 -0.17 0.77 -0.45 c 0.95 -0.49 1.27 -0.68 1.89 -1.1 c 0.26 -0.18 0.5 -0.32 0.54 -0.32 c 0.04 0 0.13 0.05 0.2 0.11 c 0.11 0.11 0.12 0.13 0.09 0.2 c -0.11 0.25 -1.91 1.4 -2.5 1.61 c -0.23 0.08 -0.54 0.09 -0.79 0.02"/><path d="m 11.86 19.67 c -0.5 -0.08 -1.03 -0.36 -1.36 -0.73 c -0.17 -0.2 -0.19 -0.34 -0.06 -0.4 c 0.13 -0.06 0.31 0.01 0.68 0.25 c 0.52 0.34 0.89 0.41 1.36 0.25 c 0.5 -0.17 0.72 -0.36 1.02 -0.89 c 0.21 -0.38 0.39 -0.59 0.54 -0.61 c 0.14 -0.03 0.2 0.02 0.2 0.18 c 0 0.43 -0.42 1.13 -0.9 1.5 c -0.46 0.35 -1.04 0.53 -1.48 0.46"/><path d="m 12.8 18.24 c -0.58 -0.13 -1.89 -0.54 -2.05 -0.65 c -0.16 -0.1 -0.25 -0.41 -0.14 -0.5 c 0.07 -0.05 0.13 -0.04 0.96 0.21 c 0.38 0.11 0.89 0.25 1.15 0.31 c 0.54 0.12 0.67 0.18 0.68 0.32 c 0.01 0.11 -0.05 0.2 -0.2 0.3 c -0.1 0.07 -0.12 0.07 -0.4 0"/><path d="m 9.91 17.58 c -0.08 -0.06 -0.08 -0.09 -0.07 -0.4 c 0.01 -0.58 0.26 -1.26 0.72 -1.95 c 0.25 -0.38 0.74 -0.89 0.88 -0.93 c 0.11 -0.03 0.29 0.04 0.33 0.13 c 0.05 0.09 -0.02 0.21 -0.32 0.55 c -0.39 0.45 -0.54 0.68 -0.71 1.04 c -0.19 0.4 -0.22 0.51 -0.29 1.08 c -0.05 0.36 -0.07 0.44 -0.13 0.49 c -0.1 0.08 -0.31 0.08 -0.41 0"/></g></svg>