<svg xmlns="http://www.w3.org/2000/svg" viewBox="0 0 24 24"><path d="m 0.43 14.48 c 1.85 12.2 20.3 12.57 23.1 0.71 c 2.87 -9.61 -7.52 -17.45 -15.29 -14.3 c -5.2 1.49 -9.41 7.57 -7.79 13.6" style="fill:#b954d2"/><path d="m 20 12.32 c 0 4.37 -3.53 7.91 -7.89 7.91 c -4.36 0 -7.89 -3.54 -7.89 -7.91 c 0 -4.37 3.54 -7.92 7.89 -7.92 c 4.36 0 7.89 3.55 7.89 7.92" style="fill:#8b008b"/><g style="fill:#fff"><path d="m 10.82 17.44 c -0.85 -0.3 -2.18 -1.17 -2.54 -1.83 c -0.4 -0.75 -0.55 -1.24 -0.55 -1.88 c -0.01 -0.59 0.08 -0.89 0.46 -1.59 c 0.16 -0.29 0.29 -0.54 0.3 -0.55 c 0.03 -0.02 0.47 0.41 0.53 0.52 c 0.07 0.11 0.06 0.16 -0.11 0.72 c -0.2 0.69 -0.19 1.46 0.04 2 c 0.34 0.84 1.05 1.4 2.13 1.7 c 0.46 0.13 0.57 0.11 1.43 -0.16 c 0.38 -0.12 0.7 -0.22 0.71 -0.22 c 0.04 0 0.63 0.49 0.64 0.53 c -0.8 0.81 -2.25 0.9 -3.04 0.76"/><path d="m 15.26 14.77 c -0.23 -0.36 -0.07 -0.8 0 -1.23 c 0.1 -0.54 0.06 -0.93 -0.15 -1.47 c -0.11 -0.28 -0.48 -0.93 -0.57 -1 c -0.05 -0.04 -0.14 -0.01 -0.49 0.15 c -0.79 0.35 -1.37 0.43 -1.76 0.22 c -0.21 -0.11 -0.78 -0.94 -0.75 -1 c 0.03 -0.05 0.46 0.15 1.12 0.1 c 0.62 -0.04 0.83 -0.1 1.25 -0.34 c 0.18 -0.1 0.37 -0.2 0.43 -0.21 c 0.27 -0.07 0.6 0.12 0.96 0.54 c 0.63 0.74 0.95 1.79 0.85 2.82 c -0.05 0.54 -0.15 1.07 -0.21 1.17 c -0.09 0.13 -0.13 1.11 -0.68 0.25"/><path d="m 12.64 9.43 c -0.25 -0.35 -0.14 -0.87 0.17 -1 c 0.23 -0.1 0.45 -0.06 0.59 0.09 c 0.4 0.57 -0.1 1.36 -0.76 0.91"/><path d="m 10.63 9.96 c -0.17 -0.11 -0.32 -0.39 -0.36 -0.68 c -0.03 -0.38 0.29 -0.49 0.52 -0.49 c 0.5 0 0.7 0.16 0.7 0.56 c -0.01 0.54 -0.46 0.86 -0.86 0.61"/><path d="m 11.28 8.4 c -0.16 -0.17 -0.22 -0.35 -0.22 -0.65 c 0 -0.41 0.16 -0.62 0.48 -0.65 c 0.5 0.01 0.81 0.62 0.58 0.99 c -0.23 0.26 -0.63 0.52 -0.84 0.31"/><path d="m 12.47 6.45 c -0.04 -0.46 0.43 -0.72 0.78 -0.73 c 0.17 0 0.6 0.48 0.6 0.8 c 0 0.6 -0.44 0.58 -0.73 0.68 c -0.36 0.06 -0.62 -0.41 -0.65 -0.75"/></g><path d="m 7.55 9.87 l 1.09 -1.04 l 7.76 7.51 l -1.09 1.04" style="fill:#ff4500"/></svg>