<svg xmlns="http://www.w3.org/2000/svg" viewBox="0 0 24 24"><path d="m 22.85 17.62 c -4.69 11.23 -22.86 6.23 -22.74 -6 c -0.18 -11.13 14.27 -15.34 20.6 -7.41 c 3.16 3.43 4.27 9.11 2.15 13.43" style="fill:#ee1970"/><g style="fill:#fff"><path d="m 9.1 22.1 c -0.65 -0.1 -1.21 -0.39 -1.51 -0.77 c -0.47 -0.6 -0.59 -1.58 -0.27 -2.16 c 0.23 -0.42 0.7 -0.62 1.85 -0.78 c 0.85 -0.12 1.1 -0.21 1.39 -0.54 c 0.28 -0.31 0.35 -0.49 0.36 -0.85 c 0 -0.29 -0.02 -0.38 -0.26 -0.86 c -0.45 -0.94 -1.16 -2.24 -1.52 -2.66 c -0.23 -0.36 -3.21 1.28 -3.64 1.55 c -0.86 0.55 -1.61 0.96 -2 1.1 c -2.08 0.16 -1.97 -2.05 -0.98 -3.23 c 0.29 -0.29 0.95 -0.68 2.62 -1.52 c 0.78 -0.4 1.75 -0.9 2.14 -1.12 c 0.86 -0.46 0.82 -0.36 0.55 -1.38 c -0.34 -1.28 -0.37 -1.46 -0.4 -2.33 c -0.04 -1.39 0.13 -2 0.76 -2.68 c 1.15 -1.23 3.49 -1.84 4.76 -1.23 c 0.48 0.23 0.87 0.66 1.18 1.29 c 0.27 0.57 0.43 1.02 0.77 2.23 c 0.35 1.24 0.4 1.33 0.76 1.33 c 0.36 0 0.7 -0.2 0.95 -0.56 c 0.23 -0.33 0.34 -0.57 0.86 -1.86 c 0.19 -0.48 0.5 -1.18 0.7 -1.57 c 0.59 -1.43 3 1.7 2.78 2.07 c -0.04 0.06 -0.16 0.37 -0.27 0.68 c -0.53 1.47 -0.93 2.05 -2.95 4.23 c -0.42 0.45 -0.8 0.9 -0.85 1 c -0.14 0.3 -0.06 0.43 0.68 1.1 c 1.01 0.92 1.73 1.76 2.04 2.39 c 0.36 0.71 0.88 2.2 1.32 3.7 c 0.47 1.16 -1.44 2.38 -2.13 2.39 c -0.76 0 -1.03 -0.07 -1.34 -0.33 c -0.32 -0.28 -0.46 -0.7 -0.55 -1.68 c -0.13 -1.42 -0.64 -2.47 -1.39 -2.85 c -0.26 -0.13 -0.36 -0.15 -0.6 -0.14 l -0.29 0.02 l -0.01 0.35 c -0.01 0.19 -0.05 0.74 -0.09 1.22 c -0.21 2.5 -0.93 3.46 -3.09 4.12 c -1 0.3 -1.75 0.41 -2.3 0.32 m 2.66 -14.29 c 0.93 -0.27 1.77 -0.71 2 -1.07 c 0.14 -0.2 0.14 -0.23 0.14 -0.73 c -0.01 -0.51 -0.01 -0.54 -0.24 -1.08 c -0.41 -0.96 -0.81 -1.34 -1.49 -1.39 c -0.43 -0.03 -0.91 0.09 -1.46 0.36 c -0.71 0.36 -1.03 0.79 -1.09 1.5 c -0.05 0.83 0.01 1.79 0.76 2.29 c 0.45 0.28 0.74 0.3 1.38 0.12"/><path d="m 12.95 6.61 c -0.12 -0.17 -0.27 -0.87 -0.21 -1.02 c 0.02 -0.06 0.11 -0.14 0.2 -0.18 c 0.2 -0.08 0.32 0.02 0.48 0.37 c 0.15 0.32 0.13 0.53 -0.07 0.76 c -0.21 0.24 -0.27 0.25 -0.4 0.07"/><path d="m 12.41 4.83 c -0.19 -0.23 -0.21 -0.48 -0.07 -0.63 c 0.11 -0.11 0.33 -0.05 0.48 0.14 c 0.14 0.18 0.13 0.51 -0.03 0.61 c -0.18 0.12 -0.19 0.12 -0.39 -0.12"/></g></svg>