<svg xmlns="http://www.w3.org/2000/svg" viewBox="0 0 24 24"><defs><linearGradient id="0" gradientUnits="userSpaceOnUse" x1="9.47" x2="14.41"><stop style="stop-color:#26a269"/><stop offset="0.09" style="stop-color:#84e3b7"/><stop offset="0.33" style="stop-color:#26a269"/><stop offset="0.69" style="stop-color:#26a269"/><stop offset="0.9" style="stop-color:#175d3c"/><stop offset="1" style="stop-color:#26a269"/></linearGradient><linearGradient id="1" gradientUnits="userSpaceOnUse" x1="6.1" x2="11"><stop style="stop-color:#803d9c"/><stop offset="0.11" style="stop-color:#b278c9"/><stop offset="0.24" style="stop-color:#803d9c"/><stop offset="0.73" style="stop-color:#803d9c"/><stop offset="0.87" style="stop-color:#4c255c"/><stop offset="1" style="stop-color:#803d9c"/></linearGradient><linearGradient id="2" gradientUnits="userSpaceOnUse" x1="12.88" x2="17.82"><stop style="stop-color:#e56100"/><stop offset="0.07" style="stop-color:#ff8f3d"/><stop offset="0.17" style="stop-color:#e56100"/><stop offset="0.89" style="stop-color:#e56100"/><stop offset="1" style="stop-color:#9c4200"/></linearGradient></defs><path d="m 2.77 6.55 c -14 25.29 33.4 21.46 18.1 -1.5 c -4 -5.9 -14.23 -7.91 -18.1 1.5" style="fill:#ffd600"/><path d="m 10.41 6.33 h 3.06 c 0.52 0 0.94 0.42 0.94 0.94 v 3.05 c 0 0.52 -0.42 0.94 -0.94 0.94 h -3.06 c -0.52 0 -0.94 -0.42 -0.94 -0.94 v -3.05 c 0 -0.52 0.42 -0.94 0.94 -0.94" style="fill:url(#0)"/><path d="m 10.41 5.62 h 3.06 c 0.52 0 0.94 0.42 0.94 0.94 v 3.05 c 0 0.52 -0.42 0.94 -0.94 0.94 h -3.06 c -0.52 0 -0.94 -0.42 -0.94 -0.94 v -3.05 c 0 -0.52 0.42 -0.94 0.94 -0.94" style="fill:#56e388"/><g transform="matrix(0.118 0 0 0.117 4.41 4.21)" style="fill:#f4f4f4;stroke:#f4f4f4"><path d="m 76.97 55.5 c 1.49 -0.86 3.39 -0.33 4.25 1.13 l 6.71 11.68 c 0.86 1.5 0.37 3.36 -1.13 4.22 c -1.46 0.86 -3.35 0.37 -4.22 -1.13 l -6.74 -11.68 c -0.86 -1.46 -0.33 -3.36 1.13 -4.22"/><path d="m 52.8 55.5 c -1.46 -0.86 -3.35 -0.33 -4.22 1.13 l -6.74 11.68 c -0.86 1.5 -0.33 3.36 1.13 4.22 c 1.49 0.86 3.39 0.37 4.22 -1.13 l 6.74 -11.68 c 0.86 -1.46 0.37 -3.36 -1.13 -4.22"/></g><path d="m 7 12.9 h 3.06 c 0.52 0 0.94 0.42 0.94 0.94 v 3.05 c 0 0.52 -0.42 0.94 -0.94 0.94 h -3.06 c -0.52 0 -0.94 -0.42 -0.94 -0.94 v -3.05 c 0 -0.52 0.42 -0.94 0.94 -0.94" style="fill:url(#1)"/><path d="m 7 12.2 h 3.06 c 0.52 0 0.94 0.42 0.94 0.94 v 3.05 c 0 0.52 -0.42 0.94 -0.94 0.94 h -3.06 c -0.52 0 -0.94 -0.42 -0.94 -0.94 v -3.05 c 0 -0.52 0.42 -0.94 0.94 -0.94" style="fill:#dc89dd"/><path d="m 13.82 12.9 h 3.06 c 0.52 0 0.94 0.42 0.94 0.94 v 3.05 c 0 0.52 -0.42 0.94 -0.94 0.94 h -3.06 c -0.52 0 -0.94 -0.42 -0.94 -0.94 v -3.05 c 0 -0.52 0.42 -0.94 0.94 -0.94" style="fill:url(#2)"/><path d="m 13.82 12.2 h 3.06 c 0.52 0 0.94 0.42 0.94 0.94 v 3.05 c 0 0.52 -0.42 0.94 -0.94 0.94 h -3.06 c -0.52 0 -0.94 -0.42 -0.94 -0.94 v -3.05 c 0 -0.52 0.42 -0.94 0.94 -0.94" style="fill:#ff8c00"/><g transform="matrix(0.076 0 0 0.074 2.04 4.06)" style="stroke:#000;stroke-width:1.33"><path d="m 76.5 246 c -21.92 -8.59 -42.75 -25.28 -54.3 -43.4 l -2.53 -3.92 h 17.48 l 4.13 4.61 c 5.36 6 24.6 26.5 34.55 36.68 c 4.28 4.45 7.68 8.22 7.53 8.37 c -0.15 0.16 -3.3 -0.85 -6.91 -2.28"/><path d="m 119.8 254.9 c 0 -1.11 -11.6 -13.67 -32.44 -35.2 l -20.42 -21.1 h 33.42 l 2.68 3.23 c 1.5 1.8 10 10.92 18.82 20.3 c 8.87 9.38 19.1 20.25 22.85 24.2 c 7.68 8.11 7.89 7.37 -2.63 8.53 c -7.74 0.85 -22.28 0.85 -22.28 0.05"/><path d="m 153.2 222.5 l -23.2 -23.96 h 27.2 l 6.96 7.74 c 3.87 4.24 12.1 13.1 18.36 19.72 c 6.24 6.57 11.35 12.14 11.35 12.4 c 0 0.42 -13.92 7.1 -16.1 7.63 c -1.08 0.32 -5.93 -4.35 -24.55 -23.53"/><path d="m 186.8 198.6 h 33.42 l 3.09 3.55 c 6.14 7.1 6.09 5.78 0.46 12 c -3.4 3.92 -7.22 7.53 -11.14 10.97"/></g></svg>