<svg xmlns="http://www.w3.org/2000/svg" viewBox="0 0 24 24"><defs><linearGradient id="0" gradientUnits="userSpaceOnUse" x1="12" x2="36" gradientTransform="matrix(0.443 0 0 0.454 1.44 0.83)"><stop style="stop-color:#e2f4fb"/><stop offset="1" style="stop-color:#f9f9f9"/></linearGradient></defs><path d="m 19.1 19.43 c 18.4 -25.71 -22.74 -23.77 -18.69 -5.39 c 1.75 8.91 12.71 14.1 18.69 5.39" style="fill:#009c47"/><path d="m 12.96 15.43 v 0.02 c 0 0.21 0.17 0.38 0.38 0.38 h 3.56 c 0.21 0 0.38 -0.17 0.38 -0.38 v -0.02 c 0 0.21 -0.17 0.38 -0.38 0.38 h -3.56 c -0.21 0 -0.38 -0.17 -0.38 -0.38 m 0 0.05 v 0.05 c 0 0.21 0.17 0.38 0.38 0.38 h 3.56 c 0.21 0 0.38 -0.17 0.38 -0.38 v -0.05 c 0 0.21 -0.17 0.38 -0.38 0.38 h -3.56 c -0.21 0 -0.38 -0.17 -0.38 -0.38" style="fill-opacity:0.02"/><g style="fill-rule:evenodd"><path d="m 6.76 13.1 l 3.54 3.64 l 7.09 -7.73 l -1.33 -1.36 l -5.76 6.36 l -2.21 -2.27" style="fill-opacity:0.1"/><path d="m 6.76 12.65 l 3.54 3.64 l 7.09 -7.73 l -1.33 -1.36 l -5.76 6.36 l -2.21 -2.27" style="fill:url(#0)"/></g></svg>