<svg xmlns="http://www.w3.org/2000/svg" viewBox="0 0 24 24"><path d="m 18.2 2 c 21.1 17.91 -22.31 35.1 -17.85 7.43 c 0.98 -6.08 12.15 -12.26 17.85 -7.43" style="fill:#ffd600"/><path d="m 9.48 8.15 c -0.08 0 -0.15 0.07 -0.15 0.15 v 1.23 h 0.24 v -0.98 c 0 -0.07 0.06 -0.12 0.13 -0.12 h 4 c 0.07 0 0.13 0.05 0.13 0.12 v 0.98 h 0.24 v -1.23 c 0 -0.08 -0.07 -0.15 -0.15 -0.15" style="fill:#3d3745"/><path d="m 5.45 15.96 h 12.54 v 1.48 h -12.54" style="fill:#a41c2d;fill-rule:evenodd"/><path d="m 6.3 9.53 c -0.47 0 -0.85 0.39 -0.85 0.87 v 1.44 h 12.54 v -1.44 c 0 -0.48 -0.38 -0.87 -0.85 -0.87" style="fill:#ec333b"/><path d="m 5.45 11.84 h 12.54 v 4.12 h -12.54" style="fill:#c01b28;fill-rule:evenodd"/><path d="m 9.89 13.16 h 3.66 c 0.14 0 0.25 0.11 0.25 0.25 v 0.96 c 0 0.14 -0.11 0.25 -0.25 0.25 h -3.66 c -0.14 0 -0.25 -0.11 -0.25 -0.25 v -0.96 c 0 -0.14 0.11 -0.25 0.25 -0.25" style="fill:#c0bfbb"/><path d="m 10.26 13.65 h 2.93 c 0.07 0 0.13 0.05 0.13 0.13 v 0.25 c 0 0.07 -0.05 0.13 -0.13 0.13 h -2.93 c -0.07 0 -0.13 -0.05 -0.13 -0.13 v -0.25 c 0 -0.07 0.05 -0.13 0.13 -0.13" style="fill:#77767a"/><path d="m 15.39 4.78 c -0.1 -0.05 -0.22 -0.02 -0.28 0.07 l -0.24 0.41 l -1.11 1.93 l -0.65 1.13 c -0.19 0.33 -0.07 0.74 0.26 0.93 l 0.49 0.28 l -0.74 1.3 c -0.36 -0.03 -0.69 0.14 -0.87 0.45 c -0.25 0.43 -0.09 0.98 0.34 1.23 c 0.43 0.24 0.98 0.09 1.23 -0.34 c 0.18 -0.3 0.16 -0.68 -0.05 -0.97 l 0.74 -1.3 l 0.54 0.3 c 0.33 0.19 0.75 0.07 0.93 -0.25 l 0.65 -1.13 l 1.11 -1.93 l 0.24 -0.41 c 0.05 -0.1 0.02 -0.22 -0.08 -0.28 l -0.4 -0.22 l -1.86 3.25 c -0.11 0.2 -0.36 0.26 -0.56 0.15 l -1.02 -0.57 c -0.2 -0.11 -0.27 -0.36 -0.15 -0.55 l 1.86 -3.25" style="fill:#f4f4f4"/><g transform="matrix(0.078 0 0 0.072 0.8 4.89)" style="stroke:#000;stroke-width:1.33"><path d="m 76.5 246 c -21.91 -8.61 -42.72 -25.29 -54.3 -43.4 l -2.49 -3.98 h 17.43 l 4.13 4.63 c 5.38 5.99 24.6 26.49 34.56 36.68 c 4.28 4.41 7.67 8.17 7.52 8.34 c -0.15 0.16 -3.24 -0.87 -6.87 -2.29"/><path d="m 119.8 254.9 c 0 -1.09 -11.6 -13.68 -32.42 -35.2 l -20.47 -21.1 h 33.41 l 2.69 3.27 c 1.54 1.8 10 10.9 18.82 20.27 c 8.86 9.37 19.1 20.2 22.86 24.2 c 7.67 8.12 7.87 7.41 -2.64 8.56 c -7.72 0.82 -22.26 0.87 -22.26 0.05"/><path d="m 153.2 222.5 l -23.2 -23.92 h 27.2 l 6.97 7.68 c 3.88 4.25 12.1 13.1 18.37 19.73 c 6.22 6.59 11.3 12.15 11.3 12.37 c 0 0.49 -13.89 7.14 -16.1 7.68 c -1.1 0.27 -5.98 -4.36 -24.55 -23.54"/><path d="m 186.8 198.6 h 33.41 l 3.09 3.6 c 6.37 7.19 11.8 10.74 2.24 14.82 c -5.63 4.41 -8.96 4.69 -12.9 8.12"/></g></svg>