<svg xmlns="http://www.w3.org/2000/svg" viewBox="0 0 24 24"><path d="m 23.72 9.42 c -1.49 -9.68 -14.71 -12.28 -20.54 -5.36 c -5.14 5.14 -3.86 14.97 2.45 18.35 c 7.24 4.51 17.79 -1.07 18.36 -10.1 c 0.06 -0.98 -0.03 -1.98 -0.26 -2.93" style="fill:#424242"/><path d="m 7 6.59 h 9.8 c 0.57 0 1.02 0.48 1.02 1.08 v 9.29 c 0 0.59 -0.46 1.07 -1.02 1.07 h -9.8 c -0.57 0 -1.02 -0.48 -1.02 -1.07 v -9.29 c 0 -0.59 0.46 -1.08 1.02 -1.08" style="fill:#cdcdcd"/><path d="m 7 6.59 c -0.57 0 -1.04 0.46 -1.04 1.03 v 9.39 c 0 0.57 0.46 1.03 1.04 1.03 h 9.77 c 0.57 0 1.04 -0.45 1.04 -1.03 v -9.39 c 0 -0.56 -0.46 -1.03 -1.04 -1.03 m -9.63 0.29 h 9.48 c 0.49 0 0.88 0.39 0.88 0.88 v 8.5 c 0 0.49 -0.39 0.88 -0.88 0.88 h -9.48 c -0.49 0 -0.88 -0.39 -0.88 -0.88 v -8.5 c 0 -0.49 0.39 -0.88 0.88 -0.88" style="fill-opacity:0.5"/><path d="m 7.36 7.76 h 9.11 c 0.1 0 0.19 0.09 0.19 0.19 v 8.13 c 0 0.1 -0.09 0.19 -0.19 0.19 h -9.11 c -0.11 0 -0.19 -0.09 -0.19 -0.19 v -8.13 c 0 -0.1 0.08 -0.19 0.19 -0.19" style="fill:#424242"/><path d="m 8.1 8.64 v 0.29 h 7.7 v -0.29 m -7.7 0.88 v 0.29 h 4.73 v -0.29" style="fill:#94a5ff"/><path d="m 8.1 12.16 v 0.29 h 1.78 v -0.29 m -1.78 0.88 v 0.29 h 1.78 v -0.29 m -1.78 0.88 v 0.29 h 1.78 v -0.29" style="fill:#cf3b00"/><path d="m 8.1 10.4 v 0.29 h 1.78 v -0.29 m -1.78 0.88 v 0.29 h 1.78 v -0.29" style="fill:#7851c1"/><path d="m 10.4 12.16 v 0.29 h 5.33 v -0.29 m -5.33 0.88 v 0.29 h 2.96 v -0.29" style="fill:#72c38e"/><path d="m 10.4 13.91 v 0.29 h 5.33 v -0.29 m -7.7 0.88 v 0.29 h 4.73 v -0.29" style="fill:#fff"/><path d="m 10.4 10.4 v 0.29 h 5.33 v -0.29 m -5.33 0.88 v 0.29 h 2.96 v -0.29" style="fill:#b84aca"/></svg>