<svg xmlns="http://www.w3.org/2000/svg" viewBox="0 0 24 24"><path d="m 4.55 20.51 c -19.33 -24.73 32.3 -28.2 16.27 -3 c -3.66 5.75 -11.14 9.55 -16.27 3" style="fill:#86cefa"/><path d="m 9.77 18.59 c -0.05 -0.08 -0.09 -0.27 -0.09 -0.48 c 0 -1.77 -0.71 -3.28 -2.03 -4.3 c -0.59 -0.46 -0.62 -0.54 -0.34 -1.11 c 0.43 -0.87 0.62 -1.93 0.5 -2.81 c -0.2 -1.46 -0.8 -2.57 -1.82 -3.39 c -0.5 -0.41 -0.55 -0.46 -0.55 -0.71 c 0.05 -0.44 0.49 -0.45 0.73 -0.43 c 1.97 0.21 3.79 1.48 4.69 3.28 c 0.15 0.3 0.17 0.32 0.44 0.36 c 0.36 0.05 0.96 0.05 1.32 0 c 0.27 -0.04 0.29 -0.06 0.44 -0.36 c 0.27 -0.54 0.63 -1.04 1.11 -1.52 c 1 -1.02 2.22 -1.61 3.58 -1.76 c 0.36 -0.05 0.72 0.07 0.73 0.43 c 0 0.24 -0.05 0.3 -0.55 0.71 c -1.02 0.82 -1.61 1.94 -1.82 3.39 c -0.12 0.87 0.07 1.95 0.5 2.81 c 0.25 0.5 0.23 0.61 -0.11 0.89 c -0.82 0.68 -1.39 1.34 -1.71 1.99 c -0.34 0.68 -0.55 1.61 -0.55 2.44 c 0 0.48 0 0.49 -0.22 0.7 c -0.47 0.45 -1.76 1.2 -2.06 1.2 c -0.67 -0.26 -1.73 -0.73 -2.18 -1.32" style="fill:#c1d6f3"/><path d="m 10 18.41 c -0.14 -0.17 -0.15 -0.23 -0.15 -0.72 c 0 -1.56 -0.76 -3.1 -1.99 -4 c -0.3 -0.23 -0.41 -0.35 -0.41 -0.45 c 0 -0.07 0.09 -0.34 0.2 -0.58 c 0.34 -0.75 0.41 -1.11 0.41 -2.16 c 0 -0.88 -0.02 -0.96 -0.19 -1.5 c -0.33 -1.02 -0.91 -1.84 -1.9 -2.69 c -0.24 -0.21 -0.27 -0.32 -0.12 -0.48 c 0.21 -0.22 1.53 0.05 2.38 0.49 c 0.59 0.3 0.88 0.52 1.38 1.01 c 0.48 0.48 0.85 0.97 1.11 1.52 c 0.22 0.45 0.29 0.47 1.21 0.47 c 0.92 0 0.99 -0.02 1.21 -0.47 c 0.27 -0.55 0.63 -1.04 1.12 -1.52 c 0.5 -0.49 0.79 -0.71 1.38 -1.01 c 0.86 -0.44 2.17 -0.71 2.38 -0.49 c 0.15 0.15 0.13 0.27 -0.12 0.48 c -1 0.85 -1.57 1.67 -1.91 2.69 c -0.18 0.54 -0.18 0.62 -0.19 1.5 c 0 1.05 0.06 1.41 0.41 2.16 c 0.11 0.24 0.2 0.5 0.2 0.58 c 0 0.1 -0.11 0.22 -0.4 0.45 c -1.26 0.96 -1.96 2.36 -2.02 4 c -0.01 0.38 -0.05 0.65 -0.1 0.71 c -0.28 0.35 -1.66 1.18 -1.96 1.17 c -0.67 -0.21 -1.45 -0.6 -1.93 -1.15 m 3.37 -0.68 c 0 -0.82 0.31 -2 0.72 -2.78 c 0.28 -0.5 0.83 -1.22 1.18 -1.51 c 0.46 -0.39 0.46 -0.38 0.35 -0.63 c -0.66 -1.59 -0.61 -3.33 0.13 -4.86 c 0.14 -0.3 0.38 -0.7 0.52 -0.9 c 0.36 -0.49 0.28 -0.55 -0.34 -0.23 c -1 0.51 -1.75 1.29 -2.29 2.36 c -0.15 0.38 -0.22 0.53 -0.58 0.63 c -0.41 0.11 -1.97 0.1 -2.32 -0.02 c -0.24 -0.08 -0.27 -0.12 -0.54 -0.64 c -0.54 -1.06 -1.28 -1.82 -2.27 -2.32 c -0.62 -0.32 -0.7 -0.26 -0.34 0.23 c 1.14 1.55 1.43 3.76 0.73 5.52 c -0.21 0.43 -0.09 0.57 0.21 0.83 c 1.13 1 1.8 2.43 1.94 4.12 c 0.04 0.52 0.05 0.54 0.25 0.71 c 0.26 0.21 1.05 0.65 1.2 0.66 c 0.59 -0.22 1.45 -0.62 1.45 -1.16 m -2.37 -0.44 c -0.12 -0.13 -0.12 -0.29 0.02 -0.41 c 0.15 -0.14 0.34 -0.12 0.45 0.05 c 0.09 0.14 0.09 0.16 0 0.3 c -0.11 0.18 -0.33 0.2 -0.47 0.06 m 1.41 -0.02 c -0.13 -0.14 -0.12 -0.27 0.02 -0.4 c 0.15 -0.14 0.36 -0.1 0.47 0.1 c 0.08 0.14 0.08 0.17 -0.02 0.29 c -0.14 0.15 -0.34 0.16 -0.46 0.02" style="fill:#314fb0"/><g style="fill:#ef1c0a"><path d="m 10.55 11.38 c 0.2 0 0.36 0.27 0.36 0.59 v 1 c 0 0.33 -0.16 0.59 -0.36 0.59 c -0.2 0 -0.36 -0.27 -0.36 -0.59 v -1 c 0 -0.33 0.16 -0.59 0.36 -0.59"/><path d="m 13.37 11.38 c 0.2 0 0.36 0.27 0.36 0.59 v 1 c 0 0.33 -0.16 0.59 -0.36 0.59 c -0.2 0 -0.36 -0.27 -0.36 -0.59 v -1 c 0 -0.33 0.16 -0.59 0.36 -0.59"/></g></svg>