<svg xmlns="http://www.w3.org/2000/svg" viewBox="0 0 24 24"><path d="m 18.2 2 c 21.1 17.91 -22.31 35.1 -17.85 7.43 c 0.98 -6.08 12.15 -12.26 17.85 -7.43" style="fill:#ada59b"/><path d="m 7.96 17.6 c -1.31 -0.12 -2.99 -0.58 -3.59 -0.98 c -0.25 -0.16 -0.4 -0.35 -0.56 -0.66 c -0.2 -0.39 -0.22 -0.5 -0.22 -1.1 c 0 -0.58 0.03 -0.71 0.21 -1.1 c 0.38 -0.78 1.83 -2.05 3 -2.66 l 0.3 -0.15 l 0.08 -0.78 c 0.1 -0.91 0.29 -1.37 0.96 -2.3 c 1.07 -1.48 2.04 -2.3 2.89 -2.44 c 0.52 -0.17 0.86 0.11 1.32 0.34 c 1.81 0.91 2.73 1.57 3.43 2.51 c 0.38 0.5 0.46 0.57 0.68 0.59 c 0.5 0.04 1.58 0.18 1.91 0.25 c 0.95 0.23 1.96 1 2.32 1.78 c 0.29 0.63 0.26 1.09 -0.12 1.85 c -1.43 2.88 -7.73 5.3 -12.63 4.85" style="fill:#634a28"/><path d="m 9.39 14.74 c -0.71 -0.06 -1.05 -0.16 -1.55 -0.45 c -0.57 -0.32 -0.73 -0.55 -0.79 -1.13 c -0.04 -0.39 -0.03 -0.51 0.06 -0.6 c 0.1 -0.1 0.14 -0.07 0.43 0.22 c 0.34 0.35 1.07 0.68 1.31 0.61 c 0.14 -0.04 0.54 -0.6 0.79 -1.1 c 0.29 -0.57 0.39 -1.03 0.5 -2.25 c 0.11 -1.21 0.2 -1.69 0.72 -3.5 c 0.11 -0.38 0.21 -0.74 0.23 -0.8 c 0.02 -0.07 0.13 -0.09 0.44 -0.07 c 0.3 0.02 0.61 0.14 1.23 0.45 c 1.48 0.74 2.3 1.38 3.04 2.38 c 0.22 0.29 0.42 0.53 0.46 0.53 c 0.18 0.23 0.25 0.45 0.36 0.73 h 0.65 c 0.41 0 0.71 0.04 0.83 0.1 c 0.1 0.05 0.57 0.3 1.03 0.56 c 1 0.55 1.52 0.9 1.58 1.11 c 0.11 0.35 -0.55 0.74 -3.16 1.86 c -2.47 1.07 -3.09 1.21 -5.8 1.35 c -1.44 0.07 -1.49 0.07 -2.35 0 m -1.82 -5.1 c -0.24 -0.23 0.5 -1.5 1.44 -2.49 c 0.52 -0.54 0.98 -0.89 1.06 -0.8 c 0.05 0.05 -0.06 0.57 -0.25 1.16 c -0.1 0.32 -0.13 0.35 -0.36 0.35 c -0.34 0 -0.67 0.31 -1.06 0.97 c -0.45 0.76 -0.67 0.97 -0.83 0.81" style="fill:#4a361b"/><path d="m 8.91 14.57 c -0.54 -0.12 -0.85 -0.25 -0.89 -0.37 c -0.42 -0.38 -0.37 -0.27 -0.73 -1.23 c -0.04 -0.14 -0.03 -0.14 0.12 0.01 c 0.09 0.08 0.36 0.24 0.6 0.35 c 0.43 0.2 0.48 0.2 1.76 0.2 c 1.86 0 2.93 -0.22 4.3 -0.91 c 1.29 -0.64 1.99 -1.25 2.32 -2 c 0.25 -0.58 0.38 -0.59 0.55 -0.07 c 0.18 0.52 0.17 1.02 -0.03 1.3 c -0.64 0.92 -1.6 1.61 -2.85 2.06 c -1.44 0.52 -4.24 0.88 -5.16 0.67 m 2.19 -4.61 c -0.22 -0.16 -0.31 -0.91 -0.21 -1.8 c 0.14 -1.33 0.35 -1.93 0.73 -2.07 c 0.61 -0.23 2.93 1.09 3.37 1.92 c 0.22 0.41 -0.02 0.54 -1.12 0.61 c -0.71 -0.03 -1.11 0.22 -1.54 0.66 c -0.43 0.44 -0.87 0.77 -1.03 0.77 c -0.04 0 -0.13 -0.04 -0.2 -0.09 m -3.29 -0.77 c -0.04 -0.09 1.07 -1.74 1.43 -2.13 c 0.59 -0.65 0.81 -0.04 -0.06 0.68 c -0.93 0.77 -1.24 1.74 -1.37 1.46" style="fill:#36220f"/></svg>