<svg xmlns="http://www.w3.org/2000/svg" xmlns:xlink="http://www.w3.org/1999/xlink" viewBox="0 0 24 24"><defs><g id="3" style="clip-path:url(#2)"><path d="m 87.2 71.1 h 76.3 c 2.96 0 5.38 2.42 5.38 5.38 v 116.9 c 0 2.96 -2.42 5.38 -5.38 5.38 h -76.3 c -2.96 0 -5.38 -2.42 -5.38 -5.38 v -116.9 c 0 -2.96 2.42 -5.38 5.38 -5.38" transform="scale(0.094)" style="fill:#7f7d7f;stroke:#fff;stroke-linecap:round;stroke-width:1.03"/></g><g id="6" style="clip-path:url(#5)"><path d="m 87.2 52.58 h 76.8 c 2.96 0 5.38 2.42 5.38 5.38 v 116.9 c 0 2.96 -2.42 5.38 -5.38 5.38 h -76.8 c -2.96 0 -5.38 -2.42 -5.38 -5.38 v -116.9 c 0 -2.96 2.42 -5.38 5.38 -5.38" transform="scale(0.094)" style="fill:#3d3745;stroke:#fff;stroke-linecap:round;stroke-width:1.03"/></g><g id="9" style="clip-path:url(#8)"><path d="m 107.7 66 h 37.1 c 9.5 0 17.25 6.25 17.25 13.92 c 0 7.71 -7.75 13.96 -17.25 13.96 h -37.1 c -9.5 0 -17.21 -6.25 -17.21 -13.96 c 0 -7.67 7.71 -13.92 17.21 -13.92" transform="scale(0.094)" style="fill:#3584e4;stroke:#fff;stroke-linecap:round;stroke-width:1.19"/></g><g id="C" style="clip-path:url(#B)"><path d="m 105.5 103.6 h 37.1 c 9.5 0 17.21 6.21 17.21 13.92 c 0 7.71 -7.71 13.92 -17.21 13.92 h -37.1 c -9.5 0 -17.21 -6.21 -17.21 -13.92 c 0 -7.71 7.71 -13.92 17.21 -13.92" transform="scale(0.094)" style="fill:#c0bfbb;stroke:#fff;stroke-linecap:round;stroke-width:1.19"/></g><g id="F" style="clip-path:url(#E)"><path d="m 241.2 80.9 c 0 8.11 -6.2 14.74 -13.87 14.74 c -7.64 0 -13.84 -6.63 -13.84 -14.74 c 0 -8.15 6.2 -14.74 13.84 -14.74 c 7.67 0 13.87 6.59 13.87 14.74" transform="matrix(0.114 0 0 0.103 -16.1 2.72)" style="fill:#fff;stroke:#fff;stroke-linecap:round"/></g><g id="I" style="clip-path:url(#H)"><path d="m 106.4 142 h 37.1 c 9.5 0 17.21 6.25 17.21 13.92 c 0 7.71 -7.71 13.96 -17.21 13.96 h -37.1 c -9.54 0 -17.25 -6.25 -17.25 -13.96 c 0 -7.67 7.71 -13.92 17.25 -13.92" transform="scale(0.094)" style="fill:#3584e4;stroke:#fff;stroke-linecap:round;stroke-width:1.19"/></g><g id="L" style="clip-path:url(#K)"><path d="m 241.2 80.89 c 0 8.15 -6.2 14.74 -13.84 14.74 c -7.64 0 -13.84 -6.59 -13.84 -14.74 c 0 -8.11 6.2 -14.7 13.84 -14.7 c 7.64 0 13.84 6.59 13.84 14.7" transform="matrix(0.114 0 0 0.103 -12.32 -0.8)" style="fill:#fff;stroke:#fff;stroke-linecap:round"/></g><g id="O" style="clip-path:url(#N)"><path d="m 241.2 80.89 c 0 8.15 -6.2 14.74 -13.84 14.74 c -7.64 0 -13.84 -6.59 -13.84 -14.74 c 0 -8.11 6.2 -14.7 13.84 -14.7 c 7.64 0 13.84 6.59 13.84 14.7" transform="matrix(0.114 0 0 0.103 -12.32 6.32)" style="fill:#fff;stroke:#fff;stroke-linecap:round"/></g><g id="R" style="clip-path:url(#Q)"><path d="m 98 188.8 h 55.2 c 1.46 0 2.67 0.33 2.67 0.67 v 2.13 c 0 0.33 -1.21 0.63 -2.67 0.63 h -55.2 c -1.5 0 -2.71 -0.29 -2.71 -0.63 v -2.13 c 0 -0.33 1.21 -0.67 2.71 -0.67" transform="scale(0.094)" style="fill:#3e3947;stroke:#3e3947;stroke-linecap:round;stroke-width:2.25"/></g><clipPath id="B"><path d="M 0,0 H24 V24 H0 z"/></clipPath><clipPath id="H"><path d="M 0,0 H24 V24 H0 z"/></clipPath><clipPath id="E"><path d="M 0,0 H24 V24 H0 z"/></clipPath><clipPath id="8"><path d="M 0,0 H24 V24 H0 z"/></clipPath><clipPath id="5"><path d="M 0,0 H24 V24 H0 z"/></clipPath><clipPath id="K"><path d="M 0,0 H24 V24 H0 z"/></clipPath><clipPath id="Q"><path d="M 0,0 H24 V24 H0 z"/></clipPath><clipPath id="2"><path d="M 0,0 H24 V24 H0 z"/></clipPath><clipPath id="N"><path d="M 0,0 H24 V24 H0 z"/></clipPath><filter id="0" filterUnits="objectBoundingBox" x="0" y="0" width="24" height="24"><feColorMatrix type="matrix" in="SourceGraphic" values="0 0 0 0 1 0 0 0 0 1 0 0 0 0 1 0 0 0 1 0"/></filter><mask id="D"><g style="filter:url(#0)"><path d="M 0,0 H24 V24 H0 z" style="fill-opacity:0.97"/></g></mask><mask id="M"><g style="filter:url(#0)"><path d="M 0,0 H24 V24 H0 z" style="fill-opacity:0.97"/></g></mask><mask id="P"><g style="filter:url(#0)"><path d="M 0,0 H24 V24 H0 z" style="fill-opacity:0.97"/></g></mask><mask id="1"><g style="filter:url(#0)"><path d="M 0,0 H24 V24 H0 z" style="fill-opacity:0.97"/></g></mask><mask id="4"><g style="filter:url(#0)"><path d="M 0,0 H24 V24 H0 z" style="fill-opacity:0.97"/></g></mask><mask id="J"><g style="filter:url(#0)"><path d="M 0,0 H24 V24 H0 z" style="fill-opacity:0.97"/></g></mask><mask id="A"><g style="filter:url(#0)"><path d="M 0,0 H24 V24 H0 z" style="fill-opacity:0.97"/></g></mask><mask id="7"><g style="filter:url(#0)"><path d="M 0,0 H24 V24 H0 z" style="fill-opacity:0.97"/></g></mask><mask id="G"><g style="filter:url(#0)"><path d="M 0,0 H24 V24 H0 z" style="fill-opacity:0.97"/></g></mask></defs><path d="m 12.1 0.17 c 15.96 -1.81 15.73 24.1 -0.29 23.81 c -14.9 0.86 -16.25 -25.2 0.29 -23.81" style="fill:#56545d"/><use xlink:href="#3" style="mask:url(#1)"/><use xlink:href="#6" style="mask:url(#4)"/><use xlink:href="#9" style="mask:url(#7)"/><use xlink:href="#C" style="mask:url(#A)"/><use xlink:href="#F" style="mask:url(#D)"/><use xlink:href="#I" style="mask:url(#G)"/><use xlink:href="#L" style="mask:url(#J)"/><use xlink:href="#O" style="mask:url(#M)"/><use xlink:href="#R" style="mask:url(#P)"/></svg>