<svg xmlns="http://www.w3.org/2000/svg" viewBox="0 0 24 24"><path d="m 21.95 6.35 c 6.46 8.63 -3.87 19.1 -12.2 17.33 c -8.2 -1.07 -13.14 -13.54 -6.8 -19.87 c 4.63 -4.55 12.54 -6.08 19 2.54" style="fill:#e86a21"/><path d="m 15.1 18.2 c -0.34 -0.25 -1.91 -1.11 -1.95 -1.39 c 0 -0.1 1.24 -2 1.5 -2.29 c 0.24 -0.28 0.84 -0.56 1.32 -0.64 c 0.21 -0.04 0.43 -0.08 0.48 -0.11 c 0.05 -0.02 0.52 -0.89 1.05 -1.91 c 0.54 -1.03 1.01 -1.92 1.06 -1.98 c 0.59 -0.49 1.22 0.01 1.22 0.56 c 0 0.33 -0.05 0.44 -0.99 2.23 l -0.98 1.89 l 0.18 0.37 c 0.25 0.49 0.37 1.2 0.28 1.63 c -0.36 0.85 -0.52 1.77 -1.02 2.55 c -0.76 -0.16 -1.49 -0.55 -2.16 -0.91 m -8.64 0.15 c -0.3 -0.11 -0.71 -0.56 -0.79 -0.87 c -0.09 -0.34 -0.09 -9.73 0 -10.1 c 0.09 -0.32 0.54 -0.79 0.85 -0.88 c 0.31 -0.09 0.75 -0.09 0.84 0 c 0.04 0.05 0.07 0.27 0.07 0.59 c 0 0.61 0.09 0.86 0.4 1.11 c 0.35 0.23 0.85 0.23 1.14 0 c 0.31 -0.25 0.4 -0.5 0.4 -1.11 c 0 -0.32 0.03 -0.54 0.07 -0.59 c 0.1 -0.11 4.65 -0.11 4.75 0 c 0.04 0.05 0.07 0.27 0.07 0.59 c 0 0.61 0.09 0.86 0.4 1.11 c 0.35 0.23 0.85 0.23 1.14 0 c 0.31 -0.25 0.4 -0.5 0.4 -1.11 c 0 -0.32 0.03 -0.54 0.07 -0.59 c 0.09 -0.09 0.53 -0.09 0.84 0 c 0.31 0.09 0.76 0.56 0.85 0.88 c 0.09 0.94 0.07 1.65 0.07 2.63 c -0.16 0.26 -0.63 1.41 -0.8 1.27 c -0.06 -0.05 -0.08 -0.25 -0.08 -0.77 c 0 -0.77 -0.06 -0.99 -0.32 -1.11 c -0.11 -0.05 -1.38 -0.07 -5 -0.07 c -5.29 0 -5.11 -0.01 -5.26 0.34 c -0.05 0.12 -0.07 1.1 -0.07 3.76 c 0 3.91 0 3.86 0.32 4 c 0.11 0.05 1 0.07 3.4 0.07 h 3.24 c 0.26 0.16 1.36 0.67 1.23 0.83 c -0.11 0.13 -7.87 0.13 -8.23 0 m 0.47 -1.34 c -0.04 -0.46 -0.01 -0.82 0 -1.3 c 0.67 0 1.34 0 2 0 c 0 0.45 0 0.9 0 1.36 c -0.6 -0.09 -1.27 -0.07 -2 -0.05 m 0 -1.97 c -0.04 -0.46 -0.01 -0.82 0 -1.3 c 0.67 0 1.34 0 2 0 c 0 0.45 0 0.9 0 1.35 c -0.85 0.02 -1.38 -0.04 -2 -0.05 m 2.59 0 c -0.03 -0.46 -0.01 -0.82 0 -1.3 c 0.67 0 1.34 0 2 0 c 0 0.45 0 0.9 0 1.35 c -0.64 -0.05 -1.31 0.07 -2 -0.05 m 2.6 0 c -0.04 -0.46 -0.01 -0.82 0 -1.3 c 0.67 0 1.34 0 2 0 l 0.02 0.34 c -0.02 0.52 -0.19 0.63 -0.48 1.05 h -0.76 c -0.57 0 -0.77 -0.02 -0.79 -0.08 m -5.19 -1.96 c -0.04 -0.46 -0.01 -0.82 0 -1.3 c 0.67 0 1.34 0 2 0 c 0 0.45 0 0.9 0 1.35 l -0.99 0.02 c -0.79 0.01 -1 0 -1.02 -0.07 m 2.59 0 c -0.03 -0.46 -0.01 -0.82 0 -1.3 c 0.67 0 1.34 0 2 0 c 0 0.45 0 0.9 0 1.35 c -0.78 0.05 -1.63 0.04 -2 -0.05 m 2.6 0 c -0.04 -0.46 -0.01 -0.82 0 -1.3 c 0.67 0 1.34 0 2 0 c 0 0.45 0 0.9 0 1.35 l -0.99 0.02 c -0.79 0.01 -1 0 -1.02 -0.07 m 2.59 0 c -0.03 -0.46 -0.01 -0.82 0 -1.3 c 0.67 0 1.34 0 2 0 l 0.02 0.31 c -0.02 0.46 -0.17 0.64 -0.38 1.04 c -0.48 -0.07 -1.34 -0.03 -1.64 -0.05 m -2.59 -1.97 c -0.04 -0.46 -0.01 -0.82 0 -1.3 c 0.67 0 1.34 0 2 0 c 0 0.45 0 0.9 0 1.36 l -0.99 0.02 c -0.79 0.01 -1 0 -1.02 -0.07 m 2.59 0 c -0.03 -0.46 -0.01 -0.82 0 -1.3 c 0.67 0 1.34 0 2 0 c 0 0.45 0 0.9 0 1.36 l -0.99 0.02 c -0.79 0.01 -1 0 -1.02 -0.07 m -6.59 -3.15 c -0.3 -0.17 -0.34 -0.36 -0.34 -1.41 c 0 -1.06 0.05 -1.25 0.35 -1.41 c 0.21 -0.12 0.32 -0.12 0.54 0 c 0.3 0.17 0.35 0.35 0.35 1.41 c 0 1.06 -0.05 1.25 -0.35 1.41 c -0.21 0.11 -0.34 0.11 -0.55 0 m 6.84 0 c -0.29 -0.17 -0.34 -0.36 -0.34 -1.41 c 0 -1.06 0.05 -1.25 0.36 -1.41 c 0.21 -0.12 0.32 -0.12 0.53 0 c 0.31 0.17 0.36 0.35 0.36 1.41 c 0 1.06 -0.05 1.25 -0.36 1.41 c -0.21 0.11 -0.34 0.11 -0.55 0" style="fill:#fff"/><path d="m 14.68 14.96 c 0 -0.18 0.15 -0.29 0.32 -0.43 c 0.09 -0.09 0.13 -0.05 0.24 0 c 0.19 0.09 2.3 1.26 2.64 1.46 c 0.14 0.09 0.27 0.17 0.28 0.19 c 0.05 0.07 -0.05 0.62 -0.12 0.62 c -1.09 -0.62 -2.33 -1.1 -3.36 -1.85" style="fill:#e86a21"/></svg>