<svg xmlns="http://www.w3.org/2000/svg" viewBox="0 0 24 24"><path d="m 4.94 3.73 c -17.78 21 17.63 29.1 19 7.52 c 0.57 -8.82 -12.21 -15.56 -19 -7.52" style="fill:#4581b3"/><path d="m 6.35 17.49 c -0.57 -0.29 -0.83 -0.74 -0.8 -1.4 c 0.02 -0.41 0.05 -0.54 0.25 -0.84 c 0.3 -0.45 0.88 -0.76 1.42 -0.76 c 1.12 0 1.9 1.14 1.46 2.15 c -0.39 0.91 -1.46 1.3 -2.33 0.85 m 1.22 -0.7 c 0.24 -0.12 0.4 -0.39 0.41 -0.7 c 0.02 -0.63 -0.59 -0.98 -1.22 -0.71 c -0.54 0.23 -0.59 1.13 -0.07 1.41 c 0.23 0.13 0.62 0.13 0.88 0 m 1.52 0.83 c -0.04 -0.06 3.73 -9.49 3.93 -9.84 c 0.07 -0.11 0.21 -0.13 1.2 -0.13 c 0.88 0 1.13 0.02 1.16 0.1 c 0.04 0.1 -3.8 9.68 -3.95 9.85 c -0.1 0.11 -2.28 0.13 -2.35 0.02 m 3.5 -4.87 c 0.92 -2.26 1.67 -4.15 1.67 -4.2 c 0 -0.07 -0.09 -0.09 -0.34 -0.07 l -0.35 0.02 l -1.68 4.14 c -0.92 2.28 -1.68 4.17 -1.68 4.2 c 0 0.03 0.16 0.05 0.36 0.04 l 0.36 -0.02 m 1.39 0.73 c -0.04 -0.11 3.8 -9.68 3.95 -9.84 c 0.1 -0.11 2.28 -0.13 2.35 -0.02 c 0.03 0.05 -3.48 8.87 -3.88 9.73 l -0.11 0.23 h -1.13 c -0.9 0 -1.14 -0.02 -1.17 -0.1 m 3.49 -4.88 c 0.93 -2.28 1.68 -4.17 1.68 -4.2 c 0 -0.03 -0.16 -0.05 -0.35 -0.05 h -0.36 l -1.4 3.47 c -0.77 1.91 -1.54 3.8 -1.71 4.22 l -0.3 0.75 l 0.38 -0.02 l 0.38 -0.02 m -7.6 -3.68 c -1.18 -0.59 -1.13 -2.27 0.1 -2.88 c 1.05 -0.52 2.37 0.29 2.34 1.43 c -0.02 0.47 -0.36 1.06 -0.78 1.34 c -0.45 0.3 -1.18 0.34 -1.66 0.11 m 1.23 -0.74 c 0.19 -0.09 0.37 -0.45 0.38 -0.75 c 0.02 -0.39 -0.37 -0.76 -0.8 -0.76 c -0.26 0 -0.36 0.04 -0.58 0.25 c -0.21 0.2 -0.27 0.3 -0.27 0.55 c -0.02 0.67 0.62 1.04 1.27 0.71" style="fill:#f4f4f4"/></svg>