<svg xmlns="http://www.w3.org/2000/svg" viewBox="0 0 24 24"><path d="m 21.63 5.69 c 12.89 23.65 -34.2 24.77 -17.99 0.39 c 4.28 -6.27 14.52 -9.33 17.99 -0.39" style="fill:#ffd600"/><path d="m 7.57 10.32 c -1.03 0 -1.86 1.81 -1.86 4 c 0 2.21 0.83 3.9 1.86 3.9 c 0.03 0 0.05 -0.03 0.08 -0.03 v 0.03 l 7.1 -0.78 c -1.46 0 -2.47 -0.98 -2.47 -3.12 c 0 -2.13 0.84 -3.12 2.47 -3.12 l -1.28 -0.89 c -2.6 -0.01 -5.9 0 -5.9 0 m 0.02 0.89 h 4 c 0.14 0 0.26 0.17 0.15 0.33 c -0.68 1.35 -0.72 3.38 -0.29 4.97 c 0 0.16 -0.12 0.28 -0.25 0.28 l -4.07 0.02 c -0.14 0 -0.2 -0.18 -0.2 -0.34 c -0.07 -1.57 -0.74 -3.71 0.47 -5.21 c 0 0 0.04 -0.05 0.18 -0.05"/><path d="m 10.73 6.76 c -0.32 0 -0.57 0.15 -0.72 0.41 l -1.84 3.29 l -0.11 0.25 h 1.23 l 0.04 -0.09 l 1.17 -1.94 c 0.03 -0.05 0.13 -0.13 0.23 -0.13 h 5.96 c 0.06 -0.01 0.06 0.1 0.06 0.1 l -2.31 5.1 l -0.07 0.14 l 0.13 0.08 l 0.06 0.63 l 0.56 0.33 l 0.07 -0.14 l 2.8 -6.24 c 0.11 -0.21 0 -1.24 -0.09 -1.42 c -0.1 -0.2 -0.31 -0.37 -0.57 -0.36" style="fill-rule:evenodd"/><path d="m 15.36 14.34 c 0 0.74 -0.32 1.34 -0.71 1.34 c -0.39 0 -0.71 -0.6 -0.71 -1.34 c 0 -0.74 0.32 -1.34 0.71 -1.34 c 0.39 0 0.71 0.6 0.71 1.34"/><path d="m 10.78 15.69 c 0 0 -2.35 -0.02 -2.5 -0.02 c -0.15 0 -0.21 0.03 -0.3 -0.13 c -0.25 -0.38 -0.42 -0.98 -0.46 -1.53 c -0.01 -0.11 -0.17 -0.11 -0.24 -0.11 h -2.06 c -0.11 0 -0.13 0.21 -0.13 0.21 c -0.04 1.7 0.58 4.24 2.32 4.23 h 6.36 c -2.16 -0.14 -2.12 -1.2 -2.29 -2.2 c -0.14 -0.32 -0.21 -0.46 -0.46 -0.46" style="fill-rule:evenodd"/><path d="m 12.25 10.32 c -0.22 0.02 -0.39 0.24 -0.36 0.49 c 0.02 0.25 0.21 0.43 0.44 0.41 h 2 c 2.5 0 2.89 6.24 0 6.24 h -2.36 c -0.22 0 -0.4 0.2 -0.4 0.45 c 0 0.25 0.18 0.45 0.4 0.45 h 2.36 c 3.91 0 3.63 -8 0 -8 h -2 c -0.02 0 -0.05 0 -0.07 0"/><g transform="matrix(0.085 0 0 0.071 0.55 5.48)" style="stroke:#000;stroke-width:1.33"><path d="m 76.5 246 c -21.91 -8.59 -42.73 -25.28 -54.3 -43.4 l -2.52 -3.91 h 17.48 l 4.12 4.63 c 5.4 5.95 24.61 26.43 34.54 36.67 c 4.3 4.41 7.69 8.15 7.55 8.32 c -0.18 0.17 -3.29 -0.88 -6.91 -2.31"/><path d="m 119.8 254.9 c 0 -1.1 -11.62 -13.71 -32.48 -35.2 l -20.45 -21.1 h 33.44 l 2.7 3.25 c 1.51 1.76 9.97 10.9 18.85 20.26 c 8.83 9.36 19.1 20.2 22.83 24.2 c 7.64 8.15 7.87 7.38 -2.61 8.54 c -7.78 0.88 -22.28 0.94 -22.28 0.06"/><path d="m 153.2 222.5 l -23.2 -23.95 h 27.2 l 7 7.71 c 3.84 4.24 12.1 13.1 18.34 19.71 c 6.22 6.61 11.35 12.17 11.35 12.39 c 0 0.44 -13.91 7.1 -16.1 7.65 c -1.1 0.33 -5.99 -4.35 -24.57 -23.57"/><path d="m 186.8 198.6 h 33.4 l 3.11 3.52 c 6.13 7.1 6.08 5.78 0.46 12 c -3.43 3.96 -7.23 7.54 -11.16 10.96"/></g></svg>