<svg xmlns="http://www.w3.org/2000/svg" viewBox="0 0 24 24"><path d="m 21.59 5.71 c 13.1 23.85 -34.64 24.98 -18.23 0.39 c 4.33 -6.33 14.71 -9.41 18.23 -0.39" style="fill:#4581b3"/><g style="fill:#fff"><path d="m 11 19.4 c -0.41 -0.58 0.06 -0.9 1.46 -0.99 c 0.73 -0.05 1.48 -0.22 1.67 -0.39 c 0.62 -0.54 -0.39 -8.17 -1.16 -8.82 c -0.66 -0.55 -3.77 -0.12 -3.83 0.53 c -0.03 0.25 -1.39 4.73 -1.25 5.38 c 0.04 0.16 -0.11 1.21 -0.25 0.6 c -0.17 -0.74 0.51 -4.79 0.53 -5.46 c 0.02 -0.67 1.57 -3.95 2.68 -4.69 c 0.81 -0.53 1.2 -0.59 2.1 -0.28 c 0.61 0.21 1.63 0.37 2.28 0.37 c 0.64 0 1.17 0.16 1.17 0.35 c 0 0.2 -0.33 0.35 -0.74 0.35 c -0.41 0 -1.21 0.32 -1.77 0.71 l -1.03 0.71 l 1.41 2.2 c 0.77 1.21 1.56 2.36 1.74 2.55 c 0.56 0.6 2.04 4.13 1.89 4.52 c -0.08 0.2 -0.69 -0.46 -1.36 -1.49 l -1.22 -1.86 l -0.27 1.7 c -0.24 1.54 -0.17 1.77 0.74 2.43 c 0.55 0.4 1.01 0.83 1.01 0.97 c 0 0.4 -1.8 0.29 -2.29 -0.14 c -0.32 -0.29 -0.56 -0.19 -0.89 0.36 c -0.47 0.77 -2.18 1.03 -2.63 0.39 m -3 -0.32 c 0 -0.18 0.23 -0.39 0.5 -0.48 c 0.4 -0.13 0.39 -0.3 0 -0.91 c -1.13 -1.73 -0.2 -0.97 0.08 -0.54 c 0.11 0.17 1.33 1.19 1.64 1.19 c 0.33 0 0.46 0.21 0.33 0.53 c -0.25 0.57 -2.55 0.75 -2.55 0.21 m 0.12 -2.79 c 0.1 0.47 0.8 1.35 0.39 1.12 c -0.58 -0.32 -0.86 -1.54 -0.87 -1.7 c -0.04 -0.54 0.25 -1.33 0.17 -0.9 m -2.07 0.18 c -0.35 -0.8 0.16 -2.15 1.49 -3.98 l 1.39 -2.08 l -0.46 2.19 c -0.2 0.91 -1.5 4.41 -1.97 4.41 c -0.11 0 -0.31 -0.24 -0.44 -0.53"/><path d="m 11.86 11.75 c 0 0.43 -0.34 0.77 -0.77 0.77 c -0.43 0 -0.77 -0.34 -0.77 -0.77 c 0 -0.43 0.35 -0.77 0.77 -0.77 c 0.43 0 0.77 0.35 0.77 0.77"/><path d="m 10.84 13 h 0.61 c 0.18 0 0.32 0.2 0.32 0.43 v 3.05 c 0 0.24 -0.14 0.44 -0.32 0.44 h -0.61 c -0.18 0 -0.32 -0.2 -0.32 -0.44 v -3.05 c 0 -0.24 0.14 -0.43 0.32 -0.43"/></g></svg>