<svg xmlns="http://www.w3.org/2000/svg" viewBox="0 0 24 24"><path d="m 7.54 1.14 c 29.2 -9 14.59 39.4 -5.41 16.77 c -4 -4.54 -2.46 -14.34 5.41 -16.77" style="fill:#2fb466"/><path d="m 6.4 17.87 c -0.11 -0.13 -0.14 -0.8 -0.16 -3.18 c -0.03 -2.64 -0.01 -3.05 0.13 -3.26 l 0.16 -0.24 l 5.59 0.03 c 4.57 0.02 5.62 0.05 5.75 0.16 c 0.14 0.12 0.16 0.47 0.16 3.22 c 0 1.77 -0.04 3.15 -0.09 3.23 c -0.07 0.11 -0.37 0.15 -1.41 0.18 l -1.32 0.03 v -0.86 c 0 -1.83 -0.25 -2.66 -1 -3.3 c -0.65 -0.56 -1.18 -0.76 -2.03 -0.77 c -0.89 -0.01 -1.58 0.27 -2.21 0.9 c -0.62 0.63 -0.74 0.97 -0.83 2.36 c -0.12 1.84 0.03 1.66 -1.39 1.66 c -1 0 -1.23 -0.03 -1.34 -0.16" style="fill:#ffd600"/><path d="m 12.91 10.91 c -0.07 -0.11 0.99 -2.8 1.73 -4.4 l 0.5 -1.09 l 0.19 0.37 c 0.45 0.88 2.12 4.95 2.12 5.16 c 0 0.11 -4.48 0.06 -4.54 -0.04" style="fill:#4c89d6"/><path d="m 12.1 8.67 c 0 1.24 -1 2.25 -2.25 2.25 c -1.24 0 -2.25 -1 -2.25 -2.25 c 0 -1.24 1 -2.25 2.25 -2.25 c 1.24 0 2.25 1 2.25 2.25" style="fill:#ea4c4d"/></svg>