<svg xmlns="http://www.w3.org/2000/svg" viewBox="0 0 24 24"><path d="m 6.24 2.84 c 5.54 -5.48 10.66 -1.47 14.86 2.89 c 3.43 3.55 3.58 6.84 1.31 10.33 c -5.93 9.11 -13.61 12.49 -21.68 -1.64 c -1.99 -4.66 2.21 -9 5.5 -11.58" style="fill:#55406a"/><path d="m 11.71 18.8 c -1.09 -0.48 -6.1 -3.23 -6.24 -3.45 c -0.05 -0.06 -0.07 -1.21 -0.05 -3.55 l 0.02 -3.46 l 0.61 -0.37 c 0.75 -0.46 3.84 -2.14 5.1 -2.76 l 0.89 -0.46 l 0.93 0.47 c 2.32 1.18 5.49 2.96 5.57 3.13 c 0.07 0.15 0.11 6.19 0.04 6.67 l -0.06 0.38 c -2.18 1.3 -4.52 2.53 -6.45 3.53 m 0.62 -1.57 c 0.36 -0.18 1.57 -0.82 2.7 -1.42 l 2.05 -1.1 v -5.98 l -1.56 -0.85 c -2.32 -1.26 -3.73 -1.98 -3.88 -1.98 c -0.13 0 -1.12 0.52 -3.95 2.05 l -1.42 0.77 c 0 1.29 -0.02 2.64 -0.05 3.77 l -0.04 2.14 l 1.68 0.93 c 1.61 0.89 3.7 1.98 3.78 1.98 c 0.27 -0.12 0.47 -0.21 0.69 -0.32" style="fill:#9c8cf2"/><path d="m 7.87 14.28 c -0.08 -0.02 -0.21 -0.09 -0.28 -0.18 c -0.12 -0.13 -0.13 -0.3 -0.13 -2.31 c 0 -2.45 -0.02 -2.36 0.57 -2.45 c 0.48 -0.08 7.33 -0.08 7.88 0 c 0.3 0.04 0.49 0.11 0.55 0.19 c 0.08 0.1 0.09 0.53 0.06 2.27 c -0.02 1.38 -0.06 2.2 -0.11 2.29 c -0.05 0.09 -0.18 0.16 -0.34 0.19 c -0.29 0.05 -7.96 0.04 -8.2 0 m 1.5 -2.66 l 0.02 -1.13 c -0.21 -0.02 -0.45 -0.09 -0.65 -0.03 c -0.14 0.05 -0.15 0.1 -0.13 1.13 c 0.01 0.59 0.03 1.11 0.05 1.14 c 0.02 0.03 0.18 0.05 0.36 0.04 l 0.33 -0.02 m 1.51 -1.12 v -1.16 c -0.23 0 -0.45 0 -0.68 0 l -0.04 0.37 c -0.07 0.57 -0.05 1.66 0.03 1.81 c -0.08 0.27 0.41 0.14 0.7 0.14 m 1.47 -1.16 v -1.16 c -0.23 0 -0.47 0 -0.7 0 v 1.11 c 0 0.61 0.02 1.13 0.05 1.16 c 0.23 0.07 0.41 0.05 0.65 0.05 m 1.56 -0.89 c 0.05 -1.1 0.01 -1.36 -0.24 -1.43 c -0.19 -0.04 -0.36 -0.02 -0.55 0.02 v 1.1 c 0 0.61 0.02 1.13 0.05 1.15 c 0.24 0.07 0.44 0.05 0.7 0.05 c 0.01 -0.3 0.03 -0.6 0.04 -0.89" style="fill:#c3bee4"/><path d="m 7.51 13.27 h 8.97 c 0.03 0 0.05 0.22 0.05 0.49 v 0.12 c 0 0.27 -0.02 0.49 -0.05 0.49 h -8.97 c -0.02 0 -0.05 -0.22 -0.05 -0.49 v -0.12 c 0 -0.27 0.02 -0.49 0.05 -0.49" style="fill:#76c"/></svg>