<svg xmlns="http://www.w3.org/2000/svg" viewBox="0 0 24 24"><path d="m 2.29 18.36 c -13.1 -23.85 34.64 -24.98 18.23 -0.39 c -4.33 6.33 -14.71 9.41 -18.23 0.39" style="fill:#ff8c00"/><path d="m 10.99 5.32 c -0.55 0 -0.98 0.44 -0.98 0.98 v 4.91 c 0 0.55 0.45 0.98 0.98 0.98 h 1.47 v 1.97 l 1.96 -1.97 h 3.91 c 0.55 0 0.98 -0.44 0.98 -0.98 v -4.91 c 0 -0.55 -0.43 -0.98 -0.98 -0.98" style="fill:#fff"/><path d="m 11.67 11.42 c 0 1.39 -1.11 2.53 -2.48 2.53 c -1.37 0 -2.48 -1.13 -2.48 -2.53 c 0 -1.39 1.11 -2.52 2.48 -2.52 c 1.37 0 2.48 1.13 2.48 2.52" style="fill:#ff8c00"/><g style="fill:#fff"><path d="m 10.93 11.73 c 0 1.18 -1 2.13 -2.23 2.13 c -1.23 0 -2.23 -0.96 -2.23 -2.13 c 0 -1.18 1 -2.14 2.23 -2.14 c 1.23 0 2.23 0.96 2.23 2.14"/><path d="m 8.69 14.37 c -1.86 0 -3.35 1.43 -3.35 3.2 v 0.54 c 0 0.29 0.25 0.53 0.56 0.53 h 5.57 c 0.31 0 0.56 -0.24 0.56 -0.53 v -0.54 c 0 -1.77 -1.5 -3.19 -3.34 -3.19"/></g></svg>