<svg xmlns="http://www.w3.org/2000/svg" viewBox="0 0 24 24"><path d="m 12.34 23.87 c -2.48 -0.19 -5.37 -1.37 -7.39 -3 c -2.46 -2 -4.26 -5.06 -4.73 -8.1 c -0.58 -3.99 1.74 -8.28 4.36 -10.31 c 1.31 -0.99 3.05 -1.78 4.68 -2.13 c 4.25 -0.9 8.68 0.8 11.72 4.5 c 1.82 2.21 2.77 4.45 3 7.09 c 0.27 3.17 -0.98 6.56 -3.27 8.85 c -2.6 2.16 -5.28 3.32 -8.36 3.1" style="fill:#008b00"/><g style="fill:#fff"><path d="m 6.66 10.94 c -0.61 -0.9 -0.95 -1.85 -0.32 -2.99 c 0.35 -0.65 0.59 -0.85 1.23 -1.01 c 0.43 -0.11 0.46 -0.13 0.66 -0.57 c 0.32 -0.69 0.46 -0.87 0.99 -1.21 c 1 -0.53 2.16 -0.47 3.04 -0.09 c 0.37 0.16 1.66 1.2 2.5 2.05 c 1.09 -1.11 1.43 -0.09 0.56 0.91 c -0.44 0.5 -1.7 -1.04 -2.64 -1.66 c -0.8 -0.5 -1.87 -0.68 -2.48 -0.52 c -0.93 0.25 -1.02 0.32 -1.29 1.07 c -0.38 1 -0.36 0.99 -1.05 1.07 c -0.34 0.04 -0.66 0.13 -0.71 0.19 c -0.37 0.43 -0.38 1.41 -0.02 1.94 c 0.23 0.34 1.23 1.18 1.07 1.4 c -0.35 0.51 -1.23 -0.3 -1.54 -0.61"/><path d="m 7.53 18.2 c -0.75 -0.02 -0.76 -0.03 -0.59 -0.43 c 0.05 -0.1 0.13 -0.32 0.18 -0.49 c 0.12 -0.4 0.82 -1.81 1.13 -2.27 l 0.24 -0.36 h 7.64 l 0.57 1.14 c 0.57 1.14 0.91 1.95 0.93 2.21 c 0.01 0.11 -0.03 0.15 -0.16 0.18 c -0.17 0.04 -8.62 0.04 -9.93 0.01 m 6.07 -0.5 c 0.41 -0.11 0.62 -0.25 0.64 -0.44 c 0.04 -0.27 -0.1 -0.3 -0.7 -0.17 c -0.6 0.14 -1.45 0.16 -1.8 0.06 c -0.48 -0.14 -0.85 -0.63 -0.73 -0.94 c 0.08 -0.21 0.31 -0.45 0.6 -0.62 c 0.32 -0.19 1 -0.24 1.45 -0.11 c 0.17 0.05 0.41 0.1 0.54 0.1 c 0.19 0.01 0.23 -0.01 0.23 -0.1 c 0 -0.13 -0.3 -0.34 -0.62 -0.44 c -0.8 -0.24 -2.18 0.1 -2.68 0.65 c -0.37 0.41 -0.45 0.75 -0.26 1.16 c 0.2 0.44 0.78 0.8 1.48 0.94 c 0.36 0.07 1.44 0.02 1.85 -0.09"/><path d="m 12.16 9.1 h 1.19 v 3.98 h -1.19"/><path d="m 14.49 9.79 h 1.14 v 3.98 h -1.14"/><path d="m 9.72 7.52 h 1.2 v 4.95 h -1.2"/><path d="m 16.6 7.18 h 1.14 v 2.67 h -1.14"/></g></svg>