<svg xmlns="http://www.w3.org/2000/svg" viewBox="0 0 24 24"><path d="m 4.95 21.66 c 18 11.97 29.2 -26.2 5.83 -21.2 c -9.64 2.15 -15.49 15.66 -5.83 21.2" style="fill:#66cdaa"/><path d="m 7.48 11.43 c 0 -0.42 0.81 -7.29 0.88 -7.48 c 0.07 -0.21 0.11 -0.22 0.41 -0.18 c 2.95 0.17 5.29 0.39 8.11 0.86 c -0.18 1.99 -0.31 3.1 -0.57 6.58 l -0.04 0.18 c -1.04 0.06 -8.17 0.09 -8.79 0.04" style="fill:#fff"/><path d="m 10.63 11 c -0.38 -0.07 -0.5 -0.34 -0.6 -0.53 c -0.24 -0.47 -0.48 -1.09 0.73 -1.3 c 0.2 -0.04 0.18 -0.11 0.21 -0.35 c 0.06 -0.48 0.06 -0.48 0.25 -0.68 c 0.4 -0.42 0.95 -0.48 1.38 -0.14 c 0.2 0.16 0.31 0.38 0.34 0.7 c 0.03 0.25 -0.04 0.36 -0.14 0.55 c 0 0.01 0.15 0.13 0.33 0.26 c 1.49 0.25 0.31 2.6 -0.86 1.38 l 0.16 1.36 c 0.05 0.43 -1.46 0.24 -1.22 -0.21 c 0.47 -0.89 0.11 -1.19 0.05 -1.21"/><path d="m 14.1 7.19 c -0.11 -0.04 -0.3 -0.18 -0.35 -0.28 c -0.14 -0.25 -0.28 -0.57 0.42 -0.68 c 0.12 -0.02 0.11 -0.06 0.13 -0.18 c 0.03 -0.25 0.04 -0.25 0.14 -0.36 c 0.23 -0.22 0.55 -0.25 0.81 -0.07 c 0.12 0.08 0.18 0.2 0.2 0.36 c 0.02 0.13 -0.02 0.19 -0.08 0.29 c 0 0 0.09 0.06 0.2 0.13 c 0.87 0.13 0.18 1.36 -0.5 0.72 l 0.09 0.71 c 0.03 0.23 -0.86 0.13 -0.71 -0.11 c 0.27 -0.46 0.07 -0.62 0.03 -0.63"/><path d="m 11.57 21.81 c -0.35 -0.13 -1.02 -0.41 -2.32 -0.99 c -0.64 -0.29 -1.48 -0.65 -1.86 -0.82 c -0.39 -0.17 -0.79 -0.36 -0.89 -0.43 l -0.19 -0.13 v -7.94 l 0.14 -0.06 c 0.13 -0.05 0.62 -0.06 5.4 -0.06 c 4.38 0 5.3 0.01 5.44 0.05 l 0.18 0.05 v 2.84 c 0 1.56 -0.01 3.37 -0.03 4 l -0.02 1.16 l -0.5 0.24 c -0.52 0.25 -3.52 1.58 -4.13 1.84 c -0.43 0.18 -0.84 0.32 -0.92 0.32 c -0.03 0 -0.17 -0.04 -0.3 -0.09" style="fill:#698e5c"/><path d="m 10.1 7.24 c -0.05 -0.02 -0.14 -0.13 -0.2 -0.24 c -0.2 -0.37 -0.47 -0.41 -0.64 -0.09 c -0.09 0.16 -0.27 0.25 -0.43 0.23 c -0.09 -0.02 -0.1 -0.04 -0.1 -0.24 c 0 -0.18 0.06 -0.35 0.3 -0.84 c 0.16 -0.34 0.36 -0.7 0.43 -0.79 c 0.14 -0.18 0.35 -0.26 0.49 -0.18 c 0.1 0.05 0.32 0.75 0.45 1.4 c 0.12 0.62 0.11 0.69 -0.05 0.75 c -0.08 0.03 -0.14 0.05 -0.14 0.05 c 0 0 -0.04 -0.02 -0.09 -0.04 m -0.3 -0.96 c 0.07 -0.29 -0.1 -0.57 -0.23 -0.38 c -0.08 0.12 -0.08 0.31 0 0.44 c 0.08 0.12 0.19 0.09 0.23 -0.06"/><g transform="scale(0.094)" style="fill:none;stroke:#fff"><path d="m 77.2 134 l 98.9 -0.58" style="stroke-dasharray:5.82237 5.82237;stroke-width:5.82"/><g style="stroke-dasharray:5.5818 5.5818;stroke-width:5.58"><path d="m 173.3 142 l 0.79 63.71"/><path d="m 79.8 143.1 l 0.83 63.75"/></g></g></svg>