<svg xmlns="http://www.w3.org/2000/svg" xmlns:xlink="http://www.w3.org/1999/xlink" viewBox="0 0 24 24"><defs><g id="5" style="clip-path:url(#4)"><path d="m 12.16 18.33 c -3.41 0 -6.18 -2.78 -6.18 -6.2 c 0 -3.43 2.77 -6.2 6.18 -6.2 c 3.41 0 6.18 2.78 6.18 6.2 c 0 3.42 -2.77 6.2 -6.18 6.2" style="fill:url(#3)"/></g><clipPath id="4"><path d="M 0,0 H24 V24 H0 z"/></clipPath><filter id="1" filterUnits="objectBoundingBox" x="0" y="0" width="24" height="24"><feColorMatrix type="matrix" in="SourceGraphic" values="0 0 0 0 1 0 0 0 0 1 0 0 0 0 1 0 0 0 1 0"/></filter><linearGradient id="C" gradientUnits="userSpaceOnUse" x1="13.37" y1="14.45" x2="11.1" y2="9.82"><stop style="stop-color:#fff;stop-opacity:0.7"/><stop offset="1" style="stop-color:#fff;stop-opacity:0"/></linearGradient><linearGradient id="9" gradientUnits="userSpaceOnUse" y1="13.1" x2="0" y2="9.79"><stop style="stop-color:#fff"/><stop offset="1" style="stop-color:#979797"/></linearGradient><linearGradient id="B" gradientUnits="userSpaceOnUse" y1="14.46" x2="0" y2="9.8"><stop style="stop-color:#fff"/><stop offset="1" style="stop-color:#393939"/></linearGradient><linearGradient id="A" gradientUnits="userSpaceOnUse" x1="14.48" x2="9.83"><stop style="stop-color:#fff;stop-opacity:0.2"/><stop offset="1" style="stop-color:#fff;stop-opacity:0"/></linearGradient><linearGradient id="7" gradientUnits="userSpaceOnUse" y1="14.95" x2="0" y2="8.92"><stop style="stop-color:#ccc"/><stop offset="1" style="stop-color:#959595"/></linearGradient><linearGradient id="6" gradientUnits="userSpaceOnUse" x1="27" x2="67.4" gradientTransform="matrix(0 0.295 -0.294 0 25.59 -1.79)"><stop style="stop-color:#191919"/><stop offset="1" style="stop-color:#393939"/></linearGradient><linearGradient id="3" gradientUnits="userSpaceOnUse" x1="27" x2="94.4" gradientTransform="matrix(0 0.307 -0.306 0 26.2 -2.36)"><stop style="stop-color:#fff"/><stop offset="1" style="stop-color:#fff;stop-opacity:0"/></linearGradient><linearGradient id="0" gradientUnits="userSpaceOnUse" x1="35.1" x2="59.1" gradientTransform="matrix(-0.337 0.195 -0.195 -0.338 36.98 18.38)"><stop style="stop-color:#b3b3b3"/><stop offset="0.5" style="stop-color:#787878"/><stop offset="1" style="stop-color:#b3b3b3"/></linearGradient><mask id="2"><g style="filter:url(#1)"><path d="M 0,0 H24 V24 H0 z" style="fill-opacity:0.6"/></g></mask><radialGradient id="8" gradientUnits="userSpaceOnUse" cx="47.2" cy="45.74" r="20.2" gradientTransform="matrix(-0.131 0 0 -0.131 18.34 18)"><stop style="stop-color:#000;stop-opacity:0"/><stop offset="0.83" style="stop-color:#000"/><stop offset="1" style="stop-color:#000;stop-opacity:0"/></radialGradient></defs><path d="m 0.35 14.55 c 1.86 12.29 20.36 12.65 23.2 0.71 c 2.88 -9.67 -7.55 -17.57 -15.34 -14.41 c -5.22 1.5 -9.44 7.62 -7.82 13.7" style="fill:#7f7f7f"/><path d="m 5.35 16.1 c -2.17 -3.78 -0.88 -8.61 2.88 -10.79 c 3.77 -2.18 8.57 -0.88 10.75 2.89 c 2.17 3.78 0.88 8.6 -2.88 10.78 c -3.76 2.18 -8.57 0.89 -10.74 -2.89" style="fill:url(#0)"/><use xlink:href="#5" style="mask:url(#2)"/><path d="m 12.15 18.1 c -3.27 0 -5.93 -2.66 -5.93 -5.95 c 0 -3.29 2.66 -5.96 5.93 -5.96 c 3.28 0 5.94 2.67 5.94 5.96 c 0 3.29 -2.66 5.95 -5.94 5.95" style="fill:url(#6)"/><path d="m 12.15 16.38 l 0.87 -1.16 c 1.34 -0.38 2.33 -1.62 2.33 -3.09 c 0 -1.77 -1.43 -3.21 -3.2 -3.21 c -1.77 0 -3.2 1.44 -3.2 3.21 c 0 1.47 0.99 2.71 2.33 3.09" style="fill:url(#7)"/><path d="m 9.54 12 c 0 -1.46 1.18 -2.64 2.64 -2.64 c 1.46 0 2.64 1.18 2.64 2.64 c 0 1.46 -1.18 2.65 -2.64 2.65 c -1.45 0 -2.64 -1.19 -2.64 -2.65" style="fill:url(#8)"/><path d="m 9.83 12.1 c 0 -1.29 1.04 -2.34 2.33 -2.34 c 1.29 0 2.33 1.04 2.33 2.34 c 0 1.29 -1.04 2.34 -2.33 2.34 c -1.29 0 -2.33 -1.05 -2.33 -2.34" style="fill:url(#9)"/><path d="m 15.2 16.98 l -0.31 0.18 l -0.71 -1.23 l 0.31 -0.18 m 3.25 -2.31 l -0.09 0.34 l -1.37 -0.37 l 0.09 -0.34 m 0.67 -3.94 l 0.18 0.3 l -1.23 0.71 l -0.18 -0.31 m -2.3 -3.26 l 0.34 0.09 l -0.37 1.38 l -0.34 -0.09 m -3.93 -0.67 l 0.31 -0.18 l 0.71 1.24 l -0.3 0.18 m -3.25 2.31 l 0.09 -0.34 l 1.37 0.37 l -0.09 0.34 m -0.67 3.95 l -0.18 -0.31 l 1.23 -0.71 l 0.18 0.31 m 2.3 3.27 l -0.34 -0.09 l 0.37 -1.38 l 0.34 0.09" style="fill:#fff;fill-opacity:0.7"/><path d="m 12.15 14.46 c 0.1 0 0.2 0 0.3 -0.02 l -0.3 -0.76 l -0.3 0.76 c 0.1 0.01 0.2 0.02 0.3 0.02 m -0.3 -0.02 l -0.09 -0.81 l -0.49 0.66 c 0.09 0.04 0.2 0.07 0.29 0.1 c 0.1 0.03 0.2 0.05 0.3 0.06 m -0.59 -0.16 l 0.11 -0.81 l -0.64 0.5 c 0.08 0.06 0.16 0.12 0.25 0.17 c 0.09 0.05 0.18 0.09 0.27 0.13 m -0.53 -0.3 l 0.32 -0.75 l -0.75 0.32 c 0.06 0.08 0.13 0.16 0.2 0.23 c 0.07 0.07 0.15 0.14 0.23 0.2 m -0.43 -0.43 l 0.51 -0.64 l -0.81 0.12 c 0.04 0.09 0.08 0.19 0.14 0.27 c 0.05 0.09 0.11 0.18 0.17 0.25 m -0.3 -0.53 l 0.66 -0.49 l -0.75 0.21 c 0.03 0.1 0.06 0.19 0.09 0.29 m 0.66 -0.49 l -0.81 -0.1 c 0.02 0.1 0.04 0.2 0.06 0.3 m -0.06 -0.3 l 0.76 -0.3 l -0.76 -0.3 c -0.01 0.1 -0.02 0.2 -0.02 0.3 c 0 0.1 0 0.2 0.02 0.3 m 0 -0.61 l 0.81 -0.1 l -0.66 -0.49 c -0.04 0.09 -0.07 0.2 -0.09 0.29 c -0.03 0.1 -0.05 0.2 -0.06 0.3 m 0.16 -0.59 l 0.8 0.12 l -0.5 -0.64 c -0.06 0.08 -0.12 0.17 -0.17 0.26 c -0.05 0.09 -0.09 0.18 -0.13 0.27 m 0.3 -0.53 l 0.75 0.32 l -0.32 -0.75 c -0.08 0.06 -0.16 0.13 -0.23 0.2 c -0.07 0.08 -0.14 0.15 -0.2 0.23 m 0.43 -0.43 l 0.64 0.51 l -0.12 -0.82 c -0.09 0.04 -0.18 0.08 -0.27 0.13 c -0.09 0.06 -0.18 0.11 -0.26 0.17 m 0.53 -0.3 l 0.49 0.66 l -0.21 -0.75 c -0.1 0.03 -0.19 0.06 -0.29 0.1 m 0.49 0.66 l 0.09 -0.81 c -0.1 0.01 -0.2 0.04 -0.3 0.06 m 0.3 -0.06 l 0.3 0.76 l 0.3 -0.76 c -0.1 -0.01 -0.2 -0.02 -0.3 -0.02 c -0.1 0 -0.2 0 -0.3 0.02 m 0.61 0 l 0.1 0.81 l 0.49 -0.66 c -0.09 -0.04 -0.19 -0.07 -0.29 -0.1 c -0.1 -0.03 -0.2 -0.05 -0.3 -0.06 m 0.59 0.16 l -0.12 0.81 l 0.64 -0.5 c -0.08 -0.06 -0.17 -0.12 -0.25 -0.17 c -0.09 -0.05 -0.18 -0.09 -0.27 -0.13 m 0.53 0.3 l -0.32 0.75 l 0.75 -0.32 c -0.06 -0.08 -0.13 -0.16 -0.2 -0.23 c -0.08 -0.07 -0.15 -0.14 -0.23 -0.2 m 0.43 0.43 l -0.51 0.64 l 0.81 -0.12 c -0.04 -0.09 -0.08 -0.19 -0.13 -0.27 c -0.06 -0.09 -0.11 -0.18 -0.17 -0.25 m 0.3 0.53 l -0.66 0.49 l 0.75 -0.21 c -0.03 -0.1 -0.06 -0.19 -0.1 -0.29 m -0.66 0.49 l 0.81 0.1 c -0.01 -0.1 -0.04 -0.2 -0.06 -0.3 m 0.06 0.3 l -0.76 0.3 l 0.76 0.3 c 0.01 -0.1 0.02 -0.2 0.02 -0.3 c 0 -0.1 0 -0.2 -0.02 -0.3 m 0 0.61 l -0.81 0.1 l 0.66 0.49 c 0.04 -0.09 0.07 -0.2 0.1 -0.29 c 0.03 -0.1 0.05 -0.2 0.06 -0.3 m -0.16 0.59 l -0.81 -0.12 l 0.5 0.64 c 0.06 -0.08 0.12 -0.17 0.17 -0.26 c 0.05 -0.09 0.09 -0.18 0.14 -0.27 m -0.3 0.53 l -0.75 -0.32 l 0.32 0.75 c 0.08 -0.06 0.16 -0.13 0.23 -0.2 c 0.07 -0.08 0.14 -0.15 0.2 -0.23 m -0.43 0.43 l -0.64 -0.51 l 0.11 0.81 c 0.09 -0.04 0.19 -0.08 0.27 -0.13 c 0.09 -0.06 0.18 -0.11 0.25 -0.17 m -0.53 0.3 l -0.49 -0.66 l 0.21 0.75 c 0.1 -0.03 0.19 -0.06 0.28 -0.1 m -0.49 -0.66 l -0.1 0.81 c 0.1 -0.01 0.2 -0.04 0.3 -0.06" style="fill:url(#A)"/><path d="m 9.83 12.13 c 0 1.29 1.04 2.33 2.32 2.33 c 1.28 0 2.32 -1.04 2.32 -2.33 c 0 -1.29 -1.04 -2.33 -2.32 -2.33 c -1.29 0 -2.32 1.04 -2.32 2.33 m 0.75 0 c 0 -0.87 0.7 -1.57 1.57 -1.57 c 0.86 0 1.57 0.71 1.57 1.57 c 0 0.86 -0.7 1.57 -1.57 1.57 c -0.86 0 -1.57 -0.71 -1.57 -1.57" style="fill:url(#B)"/><path d="m 12.46 14.45 l 0.09 -0.81 c -0.13 0.04 -0.27 0.05 -0.4 0.05 l 0.3 0.76 m -0.3 -0.76 c -0.14 0 -0.27 -0.02 -0.4 -0.05 l 0.1 0.81 m -0.1 -0.81 c -0.13 -0.04 -0.26 -0.09 -0.38 -0.15 l -0.12 0.81 l 0.49 -0.66 m -0.37 -0.15 c -0.12 -0.07 -0.23 -0.16 -0.32 -0.25 l -0.32 0.75 l 0.64 -0.5 m -0.32 -0.25 c -0.1 -0.1 -0.18 -0.21 -0.24 -0.32 l -0.51 0.64 m 2.23 0.08 l 0.49 0.66 l -0.12 -0.81 c -0.12 0.07 -0.25 0.12 -0.38 0.15 m 1.02 0.35 l -0.32 -0.75 c -0.1 0.1 -0.21 0.18 -0.32 0.24 m 0.32 -0.24 l 0.75 0.32 l -0.5 -0.64 c -0.07 0.12 -0.16 0.23 -0.25 0.32 m 0.24 -0.32 l 0.81 0.12 l -0.66 -0.49 c -0.04 0.13 -0.09 0.26 -0.15 0.38 m 0.15 -0.38 l 0.81 -0.09 l -0.76 -0.3 c 0 0.14 -0.02 0.27 -0.05 0.4 m 0.05 -0.4 l 0.76 -0.3 l -0.81 -0.1 c 0.04 0.14 0.05 0.27 0.05 0.4 m -0.05 -0.4 l 0.66 -0.49 l -0.81 0.12 c 0.07 0.12 0.12 0.25 0.15 0.38 m -3.65 1.29 l 0.81 -0.12 c -0.07 -0.12 -0.12 -0.25 -0.15 -0.38 m 0 0 c -0.04 -0.13 -0.05 -0.27 -0.05 -0.4 l -0.76 0.3 m 0.76 -0.3 c 0 -0.14 0.02 -0.27 0.05 -0.4 l -0.81 0.09 l 0.76 0.3 m 0.05 -0.4 c 0.04 -0.14 0.09 -0.27 0.15 -0.38 l -0.81 -0.12 l 0.66 0.49 m 0.15 -0.38 c 0.07 -0.12 0.16 -0.23 0.25 -0.32 l -0.75 -0.32 l 0.5 0.64 m 0.25 -0.32 c 0.1 -0.1 0.21 -0.18 0.32 -0.24 l -0.64 -0.51 m 2.75 1.08 l 0.51 -0.64 l -0.75 0.32 c 0.1 0.1 0.18 0.21 0.24 0.32 m -0.24 -0.32 l 0.32 -0.75 l -0.64 0.5 c 0.12 0.07 0.23 0.16 0.32 0.25 m -0.32 -0.25 l 0.12 -0.81 l -0.49 0.66 c 0.13 0.04 0.26 0.09 0.38 0.15 m -0.38 -0.15 l -0.1 -0.81 l -0.3 0.76 c 0.14 0 0.27 0.02 0.4 0.05 m -0.41 -0.05 l -0.3 -0.76 l -0.1 0.81 c 0.14 -0.04 0.27 -0.05 0.4 -0.05 m -0.4 0.05 l -0.49 -0.66 l 0.12 0.81 c 0.12 -0.07 0.25 -0.12 0.38 -0.15" style="fill:url(#C)"/><path d="m 12.46 14.45 l -0.3 -0.76 l -0.3 0.76 l 0.3 -0.37 m 0.3 0.37 l 0.2 -0.43 l 0.39 0.27 l -0.49 -0.66 m 0.49 0.66 l 0.08 -0.48 l 0.45 0.17 l -0.64 -0.51 m 0.64 0.51 l -0.05 -0.48 l 0.48 0.05 l -0.75 -0.32 l 0.32 0.75 m 0.43 -0.43 l -0.17 -0.45 l 0.47 -0.08 l -0.81 -0.12 m 0.81 0.12 l -0.28 -0.39 l 0.43 -0.2 l -0.81 0.1 m 0.81 -0.1 l -0.37 -0.3 l 0.37 -0.3 l -0.76 0.3 m 0.76 -0.31 l -0.43 -0.2 l 0.27 -0.39 l -0.66 0.49 m 0.66 -0.49 l -0.47 -0.08 l 0.17 -0.45 l -0.51 0.64 m 0.51 -0.64 l -0.48 0.05 l 0.05 -0.48 l -0.32 0.75 l 0.75 -0.32 m -0.43 -0.44 l -0.45 0.17 l -0.08 -0.47 l -0.11 0.81 l 0.64 -0.5 m -0.53 -0.3 l -0.39 0.28 l -0.2 -0.44 l 0.09 0.81 m -0.09 -0.82 l -0.3 0.37 l -0.3 -0.37 l 0.3 0.76 m -0.3 -0.76 l -0.2 0.43 l -0.39 -0.28 l 0.49 0.66 l 0.1 -0.82 m -0.59 0.16 l -0.08 0.47 l -0.45 -0.17 l 0.64 0.51 m -0.64 -0.51 l 0.05 0.48 l -0.48 -0.05 l 0.75 0.32 l -0.32 -0.75 m -0.43 0.43 l 0.17 0.45 l -0.47 0.08 l 0.8 0.12 l -0.5 -0.64 m -0.3 0.53 l 0.28 0.39 l -0.43 0.2 l 0.81 -0.09 l -0.65 -0.49 m -0.16 0.59 l 0.37 0.3 l -0.37 0.3 l 0.76 -0.3 m -0.76 0.3 l 0.43 0.2 l -0.27 0.39 l 0.66 -0.49 l -0.81 -0.09 m 0.16 0.59 l 0.47 0.08 l -0.17 0.45 l 0.51 -0.65 m -0.51 0.65 l 0.48 -0.05 l -0.05 0.48 l 0.32 -0.75 l -0.75 0.32 m 0.43 0.43 l 0.45 -0.17 l 0.08 0.48 l 0.12 -0.81 l -0.64 0.5 m 0.53 0.31 l 0.39 -0.28 l 0.2 0.44 l -0.1 -0.82 l -0.49 0.66" style="fill-opacity:0.3"/><g style="fill:#fff"><path d="m 12.15 16.38 l 0.87 -1.16 c 1.34 -0.38 2.34 -1.61 2.34 -3.09 c 0 -0.05 -0.01 -0.09 -0.01 -0.13 c -0.05 1.42 -1.02 2.6 -2.33 2.97 l -0.87 1.16 l -0.86 -1.16 c -1.31 -0.37 -2.27 -1.55 -2.33 -2.97 c 0 0.05 -0.01 0.09 -0.01 0.13 c 0 1.47 0.99 2.71 2.34 3.09" style="fill-opacity:0.8"/><g style="fill-opacity:0.3"><path d="m 13.45 17.69 l 0.35 -0.09 l -0.19 -0.72 c -0.11 0.04 -0.23 0.06 -0.35 0.09 m -3.79 0.2 l 0.37 -0.65 c -0.11 -0.06 -0.21 -0.11 -0.31 -0.18 l -0.37 0.65 m 7.84 -1.84 l 0.18 -0.31 l -0.65 -0.37 c -0.06 0.11 -0.12 0.21 -0.18 0.31 m -9.63 -0.98 l 0.72 -0.2 c -0.04 -0.11 -0.06 -0.23 -0.09 -0.35 l -0.73 0.19 m 10.36 -2.41 l 0.73 -0.2 l -0.09 -0.35 l -0.72 0.19 c 0.04 0.12 0.06 0.23 0.08 0.35 m -9.17 -1.22 c 0.06 -0.11 0.11 -0.21 0.18 -0.31 l -0.65 -0.38 l -0.18 0.31 m 7.65 -1.5 l 0.37 -0.65 l -0.31 -0.18 l -0.37 0.65 c 0.1 0.06 0.21 0.11 0.31 0.18 m -4.08 -0.54 c 0.11 -0.04 0.23 -0.06 0.35 -0.09 l -0.2 -0.73 l -0.35 0.09"/><path d="m 11.96 17.84 h 0.36 v -0.75 c -0.12 0 -0.24 0 -0.36 -0.01 m -3.71 -0.79 l 0.53 -0.54 c -0.09 -0.08 -0.17 -0.16 -0.25 -0.25 l -0.52 0.54 m 8 0.25 l 0.25 -0.25 l -0.53 -0.53 c -0.08 0.09 -0.16 0.17 -0.25 0.25 m -9.1 -3.46 h 0.75 c 0 -0.12 0 -0.24 0.01 -0.36 h -0.75 m 10.63 0.36 h 0.75 v -0.36 h -0.74 c 0 0.12 0 0.24 -0.01 0.36 m -8.54 -3.56 c 0.08 -0.09 0.16 -0.17 0.25 -0.25 l -0.53 -0.53 l -0.25 0.25 m 7.77 0.54 l 0.53 -0.54 l -0.25 -0.25 l -0.53 0.54 c 0.09 0.08 0.17 0.16 0.25 0.25 m -3.8 -1.59 c 0.12 0 0.24 0 0.36 0.01 v -0.75 h -0.36"/></g></g></svg>