<svg xmlns="http://www.w3.org/2000/svg" viewBox="0 0 24 24"><path d="m 19.65 21.38 c -14.4 11.16 -29.33 -16.64 -11.52 -20.71 c 11.22 -4.17 22.2 12.43 11.52 20.71" style="fill:#3e4553"/><path d="m 17.34 14.23 c -1.46 -0.86 -5.88 -3.55 -8.45 -5.14 c -3.3 -2.05 -3.3 -2.04 -3.3 -2.11 c 0 -0.04 0.18 -0.09 0.39 -0.12 c 0.52 -0.07 11.36 -0.05 11.91 0.02 l 0.42 0.05 l 0.02 3.91 c 0.01 2.15 -0.01 3.91 -0.05 3.91 c -0.04 0 -0.46 -0.23 -0.95 -0.52" style="fill:#3dade8"/><path d="m 6.95 12.93 h 4.19 c 0.8 0 1.46 0.46 1.46 1.03 v 1.99 c 0 0.57 -0.65 1.03 -1.46 1.03 h -4.19 c -0.8 0 -1.46 -0.46 -1.46 -1.03 v -1.99 c 0 -0.57 0.65 -1.03 1.46 -1.03" style="fill:#1bdc9a"/></svg>