<svg xmlns="http://www.w3.org/2000/svg" viewBox="0 0 24 24"><path d="m 1 14.33 c 2.39 15.8 26.97 10.41 22.32 -4.89 c -3.12 -14.54 -28.3 -10.6 -22.32 4.89" style="fill:#db2a2a"/><g style="fill:#fff"><path d="m 6.21 17.1 c 0 -0.09 1.21 -2.18 2.23 -3.87 c 0.36 -0.59 0.7 -1.07 0.75 -1.07 c 0.06 0 0.56 0.41 1.11 0.9 c 0.55 0.5 1.16 0.96 1.36 1.04 c 0.42 0.17 0.71 0 2.04 -1.16 c 0.5 -0.44 0.98 -0.76 1.06 -0.71 c 0.08 0.05 0.63 0.9 1.21 1.89 c 0.58 1 1.21 2.05 1.4 2.34 l 0.34 0.54 l -0.55 0.09 c -0.68 0.11 -10.96 0.12 -10.96 0.01"/><path d="m 5.62 12.49 c 0 -1.83 0.04 -3.32 0.09 -3.32 c 0.14 0 2.34 1.91 2.47 2.15 c 0.08 0.14 -0.09 0.57 -0.53 1.29 c -0.36 0.59 -0.93 1.55 -1.27 2.14 c -0.34 0.59 -0.65 1.07 -0.69 1.07 c -0.04 0 -0.07 -1.5 -0.07 -3.32"/><path d="m 10.1 11.64 c -0.88 -0.75 -2.06 -1.73 -2.61 -2.18 c -0.93 -0.75 -0.98 -0.82 -0.66 -0.91 c 0.44 -0.13 9.51 -0.12 10.1 0 c 0.42 0.09 0.36 0.16 -1.77 1.95 c -2.7 2.28 -3 2.51 -3.24 2.51 c -0.11 0 -0.91 -0.61 -1.8 -1.37"/><path d="m 17.74 15.2 c -0.2 -0.36 -0.74 -1.29 -1.21 -2.08 c -0.48 -0.79 -0.86 -1.53 -0.86 -1.64 c 0 -0.11 0.54 -0.69 1.2 -1.29 c 0.93 -0.84 1.23 -1.04 1.33 -0.87 c 0.15 0.24 0.16 5.64 0.01 6.17 c -0.09 0.32 -0.12 0.3 -0.46 -0.3"/></g></svg>