<svg xmlns="http://www.w3.org/2000/svg" viewBox="0 0 24 24"><path d="m 6.13 21.66 c 19.51 11.97 25.95 -26.2 3.25 -21.2 c -9.38 2.15 -13.57 15.66 -3.25 21.2" style="fill:#00679a"/><g style="fill:#fff"><path d="m 11.56 18.1 c -0.59 -0.34 -0.77 -1.18 -0.38 -1.83 c 0.36 -0.62 0.8 -0.69 1.61 -0.28 c 0.9 0.46 1.43 0.84 1.43 1.02 c 0 0.13 -0.19 0.29 -0.71 0.59 c -1.05 0.6 -1.54 0.73 -1.95 0.49"/><path d="m 8.27 16.18 c -0.22 -0.08 -0.85 -0.46 -1.14 -0.7 c -0.73 -0.58 -0.82 -1.17 -0.27 -1.7 c 0.39 -0.38 3.3 -2.12 4.57 -2.74 c 0.61 -0.3 0.77 -0.32 1.07 -0.16 c 0.38 0.19 0.82 0.85 0.83 1.21 c 0 0.39 -0.54 0.82 -2.49 1.96 c -1.93 1.14 -1.81 1.04 -1.87 1.58 c -0.05 0.45 -0.15 0.61 -0.36 0.61 c -0.1 0 -0.25 -0.03 -0.34 -0.06"/><path d="m 16.23 15.68 c -0.29 -0.11 -1.18 -0.61 -1.48 -0.83 c -0.16 -0.11 -0.27 -0.25 -0.3 -0.34 c -0.03 -0.13 0 -0.18 0.21 -0.37 c 0.14 -0.12 0.29 -0.3 0.33 -0.39 c 0.14 -0.27 0.21 -0.84 0.2 -1.7 c 0 -1.6 -0.14 -1.93 -1.07 -2.49 c -0.55 -0.34 -1.75 -0.92 -1.98 -0.96 c -0.24 -0.05 -0.54 0.1 -2.54 1.23 c -1.57 0.89 -2.46 1.35 -2.73 1.4 c -0.14 0.03 -0.18 0.01 -0.23 -0.09 c -0.1 -0.18 -0.09 -1.97 0.01 -2.18 c 0.09 -0.18 0.42 -0.41 1.82 -1.24 c 2.41 -1.43 3.23 -1.85 3.61 -1.85 c 0.36 0 1.15 0.4 3.24 1.64 c 1.63 0.96 2.06 1.29 2.17 1.65 c 0.08 0.27 0.13 4.21 0.05 5.1 c -0.07 0.91 -0.15 1.11 -0.52 1.28 c -0.37 0.18 -0.56 0.21 -0.81 0.12"/></g></svg>