<svg xmlns="http://www.w3.org/2000/svg" viewBox="0 0 24 24"><path d="m 21.2 4.36 c 5.84 8.92 1.53 17.82 -5.48 18.99 c -9.44 2.28 -20.97 -4.23 -13 -18.28 c 3.16 -5.59 14.34 -7.1 18.5 -0.71" style="fill:#003693"/><g style="fill:#fff"><path d="m 10.54 13.68 c -0.1 -0.1 -0.28 -0.47 -0.4 -0.82 c -0.12 -0.35 -0.28 -0.63 -0.34 -0.63 c -0.2 0 -0.32 0.34 -0.29 0.86 c 0.02 0.54 -0.12 0.81 -0.32 0.62 c -0.11 -0.11 -0.13 -1.8 -0.02 -2.54 c 0.04 -0.28 0 -0.47 -0.14 -0.75 c -0.12 -0.23 -0.2 -0.55 -0.2 -0.82 c 0 -0.38 -0.04 -0.48 -0.29 -0.71 c -0.16 -0.15 -0.41 -0.45 -0.56 -0.67 c -0.24 -0.35 -0.28 -0.48 -0.28 -1.05 c 0 -0.58 -0.03 -0.68 -0.23 -0.87 c -0.22 -0.2 -0.24 -0.27 -0.24 -1.06 c 0 -1.05 0.14 -1.12 0.56 -0.26 c 0.16 0.32 0.32 0.59 0.37 0.59 c 0.13 0 0.36 -0.3 0.57 -0.76 c 0.14 -0.32 0.24 -0.43 0.36 -0.41 c 0.14 0.03 0.17 0.15 0.2 0.84 c 0.03 0.77 0.02 0.83 -0.21 1.03 c -0.52 0.46 -0.44 0.89 0.33 1.85 c 0.55 0.69 0.56 0.71 0.56 1.3 c 0 0.69 0.12 0.85 0.59 0.78 c 0.28 -0.04 0.36 0 0.88 0.54 c 0.31 0.32 0.62 0.58 0.68 0.58 c 0.06 0 0.29 -0.22 0.5 -0.5 c 0.38 -0.48 0.74 -0.68 1.24 -0.68 c 0.22 0 0.38 -0.31 0.3 -0.59 c -0.11 -0.41 0.05 -0.86 0.52 -1.44 c 0.63 -0.79 0.7 -0.95 0.63 -1.32 c -0.04 -0.22 -0.14 -0.36 -0.34 -0.47 c -0.27 -0.15 -0.28 -0.17 -0.28 -0.89 c 0 -0.83 0.14 -1.16 0.44 -0.99 c 0.09 0.05 0.2 0.22 0.25 0.37 c 0.23 0.69 0.68 0.77 0.91 0.15 c 0.18 -0.47 0.32 -0.61 0.51 -0.54 c 0.12 0.04 0.15 0.21 0.15 0.87 c 0 0.8 -0.01 0.82 -0.29 1.05 c -0.27 0.22 -0.29 0.27 -0.27 0.8 c 0.02 0.63 -0.06 0.82 -0.68 1.57 c -0.24 0.3 -0.39 0.59 -0.43 0.84 c -0.04 0.23 -0.15 0.46 -0.29 0.59 c -0.16 0.14 -0.23 0.3 -0.23 0.54 c 0 0.45 -0.14 0.55 -0.71 0.55 c -0.57 0 -0.6 0.04 -0.6 1.06 c 0 0.9 0.02 0.94 0.57 0.94 c 0.56 0 0.88 0.23 0.6 0.43 c -0.23 0.16 -1.36 0.16 -1.6 -0.01 c -0.16 -0.11 -0.18 -0.23 -0.15 -0.86 c 0.02 -0.45 -0.01 -0.75 -0.07 -0.79 c -0.16 -0.1 -0.47 0.11 -0.54 0.36 c -0.03 0.13 -0.08 0.23 -0.11 0.23 c -0.03 0 -0.24 -0.17 -0.46 -0.38 l -0.4 -0.38 l -0.09 0.24 c -0.05 0.13 -0.07 0.52 -0.04 0.86 c 0.05 0.6 0.04 0.63 -0.19 0.78 c -0.23 0.15 -0.25 0.15 -0.42 -0.03 m -0.34 -2.04 c 0.25 -0.18 0.07 -0.46 -0.3 -0.46 c -0.32 0 -0.43 0.29 -0.17 0.47 c 0.21 0.15 0.25 0.15 0.47 -0.01"/><path d="m 11.44 9.7 c -0.18 -0.05 -0.58 -0.61 -0.5 -0.99 c 0.03 -0.13 0.09 0.13 0.28 0.31 c 0.26 0.24 0.77 0.38 1.14 0.3 c 0.39 -0.07 0.67 -0.43 0.33 -1.13 c -0.27 -0.55 -0.27 -0.85 0.27 -0.98 c 0.13 -0.03 0.25 0.05 0.36 0.21 c 0.16 0.23 0.34 0.44 -0.04 0.62 c -0.35 0.17 -0.21 0.54 -0.21 0.84 c 0 0.64 -0.12 0.75 -0.85 0.8 c -0.34 0.03 -0.69 0.03 -0.78 0"/><path d="m 10.67 8 c -0.13 -0.37 -0.01 -0.74 0.25 -0.79 c 0.3 -0.04 0.54 0.16 0.54 0.46 c 0 0.62 -0.61 0.87 -0.79 0.32"/><path d="m 15.5 14.73 c -0.03 -0.04 -0.06 -0.34 -0.08 -0.66 c -0.03 -0.53 -0.05 -0.61 -0.19 -0.79 c -0.12 -0.15 -0.14 -0.21 -0.09 -0.27 c 0.19 -0.18 0.54 0.1 0.64 0.5 c 0.07 0.29 0 1.18 -0.09 1.24 c -0.09 0.06 -0.14 0.05 -0.19 -0.02"/><path d="m 16.32 14.2 c -0.11 -0.11 -0.11 -0.09 -0.04 -0.48 c 0.05 -0.23 0.04 -0.36 -0.01 -0.51 c -0.08 -0.22 -0.46 -0.54 -0.84 -0.71 c -0.26 -0.11 -0.31 -0.22 -0.16 -0.34 c 0.2 -0.16 0.6 0.06 0.9 0.47 c 0.09 0.13 0.25 0.27 0.36 0.32 c 0.11 0.04 0.23 0.11 0.27 0.16 c 0.19 0.22 0.19 0.26 -0.02 0.57 c -0.11 0.16 -0.2 0.34 -0.2 0.39 c 0 0.16 -0.14 0.23 -0.25 0.13"/><path d="m 16.61 12.49 c -0.02 -0.09 -0.16 -0.29 -0.32 -0.46 c -0.29 -0.3 -0.3 -0.31 -0.7 -0.35 c -0.45 -0.04 -0.59 -0.13 -0.43 -0.29 c 0.08 -0.08 0.18 -0.09 0.52 -0.07 c 0.4 0.02 0.43 0.03 0.66 0.24 c 0.33 0.31 0.65 0.79 0.63 0.94 c -0.01 0.09 -0.06 0.13 -0.17 0.13 c -0.13 -0.03 -0.16 -0.05 -0.18 -0.14"/><path d="m 17.33 13.19 c -0.06 -0.07 -0.06 -0.3 0.01 -0.86 c 0.04 -0.32 -0.02 -0.46 -0.45 -0.92 l -0.43 -0.48 l -0.53 -0.04 c -0.67 -0.05 -0.82 -0.09 -0.76 -0.18 c 0.07 -0.11 0.44 -0.18 1 -0.18 c 0.6 0 0.66 0.04 1.02 0.58 c 0.14 0.22 0.33 0.47 0.41 0.55 c 0.14 0.14 0.15 0.19 0.15 0.8 c 0 0.67 -0.04 0.82 -0.25 0.82 c -0.06 0 -0.14 -0.04 -0.18 -0.09"/><path d="m 8.09 14.7 c -0.13 -0.14 -0.18 -0.65 -0.11 -1.02 c 0.05 -0.26 0.1 -0.35 0.3 -0.52 c 0.13 -0.12 0.29 -0.2 0.34 -0.2 c 0.15 0.03 0.14 0.2 -0.03 0.34 c -0.14 0.12 -0.16 0.17 -0.2 0.75 c -0.05 0.76 -0.11 0.88 -0.31 0.66"/><path d="m 7.61 12.89 c -0.09 -0.13 0.38 -0.68 0.65 -0.76 c 0.15 -0.04 0.36 0.05 0.36 0.16 c 0 0.04 -0.08 0.11 -0.18 0.15 c -0.1 0.04 -0.3 0.17 -0.44 0.29 c -0.27 0.22 -0.34 0.25 -0.39 0.16"/><path d="m 7.1 13.78 c -0.25 -0.28 -0.3 -0.36 -0.26 -0.46 c 0.03 -0.07 0.04 -0.32 0.03 -0.55 l -0.02 -0.43 l 0.31 -0.38 c 0.43 -0.54 0.56 -0.62 0.97 -0.61 c 0.61 0 0.68 0.26 0.09 0.33 c -0.37 0.04 -0.57 0.18 -0.84 0.57 c -0.21 0.31 -0.24 0.61 -0.07 0.66 c 0.09 0.03 0.12 0.11 0.14 0.33 c 0.07 0.68 0.07 0.88 0.01 0.88 c -0.04 0 -0.2 -0.16 -0.37 -0.34"/><path d="m 6.14 13.21 c -0.04 -0.05 -0.07 -0.29 -0.07 -0.73 c 0 -0.6 0.01 -0.67 0.13 -0.82 c 0.07 -0.09 0.21 -0.27 0.3 -0.41 c 0.09 -0.13 0.27 -0.36 0.4 -0.49 l 0.23 -0.25 h 0.61 c 0.73 0.01 0.91 0.04 0.91 0.2 c 0 0.1 -0.05 0.11 -0.49 0.15 c -0.8 0.07 -0.87 0.1 -1.33 0.65 c -0.4 0.48 -0.45 0.61 -0.35 1.08 c 0.07 0.34 0.06 0.4 -0.02 0.53 c -0.11 0.16 -0.21 0.18 -0.32 0.08"/></g><g style="fill:#9aabcf"><path d="m 4.05 18.93 c -0.14 -0.16 -0.08 -3.77 0.05 -3.86 c 0.15 -0.09 0.92 -0.16 1.27 -0.1 c 0.25 0.04 0.38 0.11 0.61 0.33 c 0.48 0.48 0.48 0.89 -0.02 1.46 c -0.37 0.43 -0.37 0.45 0.35 1.68 c 0.15 0.25 0.15 0.29 0.05 0.43 c -0.14 0.2 -0.44 0.2 -0.63 0 c -0.08 -0.09 -0.27 -0.41 -0.42 -0.71 c -0.29 -0.58 -0.51 -0.81 -0.59 -0.59 c -0.02 0.06 -0.01 0.36 0.04 0.66 c 0.1 0.64 0.06 0.72 -0.38 0.78 c -0.13 0 -0.28 0.02 -0.35 -0.07 m 1.2 -2.2 c 0.18 -0.13 0.35 -0.44 0.35 -0.64 c 0 -0.19 -0.24 -0.59 -0.42 -0.68 c -0.21 -0.11 -0.32 0.05 -0.4 0.59 c -0.11 0.73 0.07 1.02 0.47 0.73"/><path d="m 7.43 19 c -0.14 -0.02 -0.28 -0.07 -0.32 -0.12 c -0.1 -0.12 -0.11 -3.08 -0.02 -3.18 c 0.04 -0.04 0.32 -0.09 0.64 -0.1 c 0.44 -0.03 0.6 -0.01 0.7 0.07 c 0.21 0.16 0.06 0.34 -0.35 0.4 c -0.38 0.06 -0.5 0.18 -0.5 0.49 c 0 0.27 0.11 0.37 0.38 0.37 c 0.36 0 0.58 0.12 0.56 0.29 c -0.03 0.18 -0.13 0.23 -0.57 0.3 c -0.33 0.05 -0.34 0.07 -0.36 0.3 c -0.02 0.28 0.08 0.6 0.21 0.64 c 0.05 0.02 0.2 0.05 0.34 0.07 c 0.3 0.05 0.46 0.27 0.27 0.36 c -0.32 0.09 -0.67 0.13 -0.98 0.1"/><path d="m 10.78 18.89 c -0.07 -0.07 -0.16 -0.24 -0.18 -0.38 c -0.05 -0.3 -0.31 -0.51 -0.61 -0.51 c -0.25 0 -0.39 0.14 -0.68 0.63 c -0.2 0.36 -0.34 0.41 -0.46 0.16 c -0.06 -0.13 -0.05 -0.21 0.04 -0.39 c 0.25 -0.52 0.44 -1.06 0.64 -1.59 c 0.16 -0.25 0.24 -1.12 0.55 -1.12 c 0.18 0 0.29 0.18 0.61 1.09 c 0.15 0.43 0.37 1.03 0.48 1.33 c 0.23 0.64 0.24 0.75 0.07 0.84 c -0.2 0.1 -0.33 0.09 -0.48 -0.06 m -0.58 -1.46 c 0.12 -0.48 -0.17 -0.71 -0.35 -0.27 c -0.13 0.3 -0.09 0.44 0.14 0.44 c 0.13 0 0.18 -0.04 0.21 -0.16"/><path d="m 12.1 18.91 c -0.15 -0.11 -0.15 -0.13 -0.15 -1.62 c 0 -1.51 0 -1.52 0.15 -1.59 c 0.08 -0.04 0.21 -0.05 0.3 -0.02 c 0.14 0.05 0.14 0.11 0.19 1.36 c 0.03 0.72 0.07 1.35 0.08 1.39 c 0.02 0.05 0.19 0.1 0.38 0.13 c 0.41 0.05 0.52 0.13 0.42 0.3 c -0.11 0.17 -1.14 0.2 -1.37 0.05"/><path d="m 14.27 18.96 c -0.05 -0.03 -0.09 -0.53 -0.12 -1.37 c -0.03 -0.77 -0.07 -1.36 -0.12 -1.41 c -0.04 -0.05 -0.19 -0.09 -0.32 -0.11 c -0.21 -0.02 -0.25 -0.05 -0.25 -0.19 c 0 -0.13 0.05 -0.18 0.21 -0.21 c 0.27 -0.06 1.23 -0.07 1.55 -0.02 c 0.23 0.04 0.25 0.06 0.24 0.21 c -0.02 0.14 -0.07 0.19 -0.25 0.22 c -0.13 0.03 -0.25 0.09 -0.29 0.14 c -0.04 0.05 -0.06 0.63 -0.06 1.28 c 0 0.97 -0.02 1.22 -0.11 1.34 c -0.11 0.15 -0.33 0.2 -0.48 0.1"/><path d="m 16.1 18.97 c -0.08 -0.02 -0.13 -0.13 -0.16 -0.32 c -0.07 -0.46 -0.01 -2.82 0.07 -2.9 c 0.04 -0.04 0.34 -0.09 0.66 -0.11 c 0.5 -0.04 0.62 -0.02 0.77 0.08 c 0.2 0.12 0.18 0.25 0 0.39 c -0.1 0.08 -0.24 -0.02 -0.42 -0.02 c -0.38 0 -0.47 0.11 -0.42 0.52 c 0.04 0.37 0.12 0.44 0.51 0.42 c 0.32 -0.02 0.43 0.08 0.4 0.32 c -0.01 0.11 -0.09 0.15 -0.44 0.2 l -0.43 0.06 c 0 0.31 0 0.62 0 0.93 h 0.36 c 0.38 0 0.48 0.04 0.54 0.21 c 0.07 0.21 -0.09 0.27 -0.73 0.26 c -0.34 0 -0.67 -0.02 -0.73 -0.04"/><path d="m 18.1 18.89 c -0.04 -0.08 -0.07 -0.71 -0.07 -1.59 c 0 -1.38 0 -1.46 0.14 -1.58 c 0.11 -0.1 0.18 -0.11 0.32 -0.06 c 0.18 0.06 0.18 0.09 0.22 0.63 c 0.02 0.3 0.06 0.57 0.08 0.6 c 0.34 -0.27 0.56 -0.66 0.88 -1.02 c 0.21 -0.24 0.26 -0.26 0.36 -0.18 c 0.16 0.14 0.14 0.2 -0.23 0.68 c -0.19 0.25 -0.36 0.51 -0.38 0.6 c -0.07 0.28 0.04 0.59 0.38 1.11 c 0.19 0.28 0.34 0.57 0.34 0.65 c 0 0.32 -0.36 0.41 -0.59 0.15 c -0.08 -0.09 -0.25 -0.38 -0.39 -0.64 c -0.33 -0.66 -0.45 -0.63 -0.45 0.12 c 0 0.46 -0.02 0.54 -0.13 0.61 c -0.2 0.11 -0.4 0.08 -0.48 -0.06"/></g></svg>