<svg xmlns="http://www.w3.org/2000/svg" viewBox="0 0 24 24"><path d="m 23.72 14.71 c -1.47 9.71 -14.57 12.31 -20.35 5.38 c -5.09 -5.15 -3.83 -15 2.42 -18.39 c 7.17 -4.52 17.62 1.07 18.2 10.1 c 0.06 0.99 -0.03 1.98 -0.26 2.94" style="fill:#dc312f"/><g style="fill:#fff"><path d="m 3.76 16.46 c -0.33 -0.13 -0.72 -0.55 -0.72 -0.78 c 0 -0.35 0.69 -1.3 1.41 -1.94 c 0.41 -0.36 0.45 -0.49 0.48 -1.61 c 0.03 -0.79 0.07 -1.16 0.19 -1.63 c 0.73 -2.87 2.63 -4.84 5.44 -5.62 c 0.92 -0.5 3.34 -0.23 3.14 0.11 c -0.05 0.05 -0.36 0.2 -0.69 0.32 c -0.76 0.3 -1.13 0.49 -1.57 0.81 c -1.11 0.81 -1.85 1.93 -2.14 3.23 c -0.13 0.54 -0.11 2.02 0.04 2.7 c 0.13 0.65 0.39 1.29 0.61 1.49 c 0.27 0.25 0.68 0.14 2.09 -0.56 c 0.96 -0.48 1.66 -0.91 1.69 -1.04 c 0.23 -0.85 0.28 -1.31 0.94 -1.6 c 0.79 -0.49 1.47 0.02 2 0.06 c 0.08 -0.02 0.69 -0.4 1.36 -0.85 c 0.67 -0.45 1.34 -0.87 1.49 -0.93 c 0.31 -0.16 0.5 0 0.58 0.32 c 0 0.24 -0.54 0.77 -1.56 1.51 c -1.21 0.88 -1.3 1.06 -1.55 1.69 c -0.4 1.02 -1.34 1.41 -2.26 1.15 c -0.71 -0.21 -0.89 -0.02 -2.55 0.75 c -2.58 1.19 -4.58 1.91 -6.4 2.32 c -0.8 0.18 -1.71 0.22 -2.04 0.1 m 1.39 -1.03 c 0.54 -0.08 0.36 -0.39 0.28 -0.57 c -0.2 -0.28 -0.57 -0.15 -0.73 0.04 c -0.57 0.41 -0.18 0.8 0.45 0.53"/><path d="m 10.76 19.38 c -0.9 -0.17 -2 -0.67 -2.85 -1.29 c -0.5 -0.36 -0.86 -0.73 -0.86 -0.88 c 0 -0.11 0.4 -0.3 1.25 -0.6 c 1.11 -0.4 2.05 -0.78 3.15 -1.22 l 0.61 0.29 c 1.37 0.53 2.5 0.73 3.84 0.46 c 0.75 -0.15 1.62 -0.6 2.47 -1.28 c 0.38 -0.3 0.7 -0.54 0.71 -0.52 c 0.02 0.02 -0.03 0.21 -0.1 0.43 c -0.22 0.73 -1.04 2 -1.73 2.69 c -1.97 1.8 -4.37 2.2 -6.5 1.91"/></g></svg>