<svg xmlns="http://www.w3.org/2000/svg" viewBox="0 0 24 24"><path d="m 23 14.21 c -2.39 16 -26.97 10.54 -22.32 -4.95 c 3.12 -14.72 28.3 -10.73 22.32 4.95" style="fill:#acd7e5"/><path d="m 6.56 17.2 c -0.15 -0.04 -0.36 -0.12 -0.45 -0.18 c -0.25 -0.15 -0.58 -0.54 -0.71 -0.82 c -0.11 -0.24 -0.11 -0.28 -0.11 -2.61 v -2.36 l 0.15 -0.31 c 0.19 -0.39 0.48 -0.68 0.85 -0.86 c 0.29 -0.13 0.32 -0.14 1.59 -0.16 l 1.29 -0.03 l 0.03 -0.8 c 0.02 -0.73 0.04 -0.83 0.16 -1.09 c 0.19 -0.41 0.42 -0.64 0.81 -0.84 l 0.34 -0.17 h 6.72 l 0.24 0.12 c 0.39 0.2 0.65 0.45 0.83 0.83 l 0.17 0.35 v 4.78 l -0.15 0.3 c -0.18 0.35 -0.51 0.68 -0.85 0.83 c -0.22 0.11 -0.35 0.11 -1.56 0.14 l -1.32 0.03 l -0.03 0.83 c -0.03 0.89 -0.06 1 -0.35 1.41 c -0.2 0.28 -0.53 0.5 -0.88 0.61 c -0.25 0.07 -0.68 0.08 -3.38 0.08 c -2.55 0 -3.16 -0.02 -3.39 -0.08 m 6.46 -1.48 c 0.1 -0.1 0.11 -0.16 0.09 -0.74 l -0.01 -0.64 l -1.29 -0.03 c -1.38 -0.03 -1.47 -0.05 -1.88 -0.32 c -0.33 -0.23 -0.66 -0.73 -0.68 -1.04 c 0 -0.09 0.21 -0.09 3.74 -0.09 c 2.31 0 3.8 -0.02 3.88 -0.05 l 0.13 -0.05 v -4.2 l -0.12 -0.08 c -0.1 -0.07 -0.48 -0.08 -3.07 -0.08 c -2.91 0 -2.96 0 -3.07 0.11 c -0.09 0.1 -0.1 0.16 -0.09 0.74 l 0.02 0.64 l 1.32 0.03 c 1.49 0.03 1.59 0.05 2.04 0.46 c 0.25 0.23 0.5 0.67 0.5 0.87 v 0.12 h -3.8 c -3.73 0 -3.8 0 -3.9 0.1 c -0.1 0.1 -0.1 0.18 -0.1 2.13 c 0 1.96 0 2.03 0.1 2.13 c 0.1 0.1 0.17 0.11 3.1 0.11 c 2.95 0 3 0 3.1 -0.11" style="fill:#54aafd"/><path d="m 13.61 14.93 v -1.97 l 0.97 -0.03 c 0.53 -0.02 1.25 -0.04 1.61 -0.04 c 0.61 0 0.64 -0.01 0.76 -0.13 l 0.13 -0.13 l -0.02 -2.06 l -0.01 -2.05 l -0.13 -0.1 c -0.11 -0.09 -0.21 -0.1 -0.98 -0.1 c -0.47 0 -1.19 -0.02 -1.6 -0.04 l -0.73 -0.03 v -1.21 l 1.61 -0.04 c 1.11 -0.02 1.7 -0.02 1.87 0.02 c 0.54 0.13 0.91 0.42 1.18 0.95 l 0.17 0.32 v 4.63 l -0.17 0.32 c -0.21 0.41 -0.47 0.67 -0.84 0.84 c -0.29 0.14 -0.29 0.14 -1.59 0.14 c -0.71 0 -1.32 0.02 -1.34 0.04 c -0.02 0.02 -0.05 0.42 -0.07 0.88 c -0.02 0.73 -0.04 0.87 -0.14 1.05 c -0.15 0.28 -0.33 0.49 -0.52 0.61 l -0.16 0.09 m 0 -6.16 c 0 -0.27 0.01 -0.49 0.03 -0.49 c 0.16 0 0.74 0.71 0.74 0.92 c 0 0.05 -0.11 0.07 -0.39 0.07 h -0.39" style="fill:#016ffd"/></svg>