<svg xmlns="http://www.w3.org/2000/svg" viewBox="0 0 24 24"><path d="m 11.96 23.91 c -15.83 1.8 -15.61 -23.99 0.28 -23.69 c 14.79 -0.85 16.1 25.1 -0.28 23.69" style="fill:#f27f1c"/><path d="m 9.34 18.53 c -0.54 -0.05 -0.55 -0.15 -0.09 -0.63 l 0.42 -0.43 h 4.68 l 0.42 0.42 c 0.23 0.23 0.41 0.48 0.39 0.54 c -0.03 0.09 -0.61 0.11 -2.76 0.12 c -1.5 0 -2.88 -0.01 -3.06 -0.03 m 5.79 -0.99 l -0.46 -0.46 v -3.75 l 0.88 -0.82 l -0.88 -0.94 v -3.72 l 0.43 -0.44 c 0.71 -0.71 0.68 -0.96 0.68 5.19 c 0 3.63 -0.03 5.31 -0.09 5.35 c -0.05 0.03 -0.3 -0.15 -0.55 -0.41 m -6.8 0.23 c -0.07 -0.17 -0.07 -10.38 0 -10.55 c 0.08 -0.21 0.23 -0.15 0.65 0.28 l 0.4 0.41 v 3.8 l -0.9 0.78 l 0.9 0.91 v 3.8 l -0.41 0.35 c -0.44 0.38 -0.57 0.42 -0.65 0.22 m 1.03 -4.9 c -0.37 -0.27 -0.4 -0.44 -0.11 -0.71 c 0.2 -0.19 0.22 -0.2 2.75 -0.18 l 2.54 0.01 l 0.24 0.23 c 0.3 0.29 0.3 0.39 -0.03 0.66 l -0.26 0.22 h -4.81 m 0 -5.65 c -0.33 -0.2 -0.83 -0.77 -0.77 -0.88 c 0.07 -0.11 6.15 -0.11 6.22 0 c 0.03 0.05 -0.15 0.3 -0.39 0.56 l -0.45 0.47 h -2.18 c -1.96 0 -2.21 -0.02 -2.44 -0.16" style="fill:#3d3d3d"/></svg>