<svg xmlns="http://www.w3.org/2000/svg" viewBox="0 0 24 24"><path d="m 16.73 23.84 c -33.91 2.35 -8.24 -43.3 6.17 -13.44 c 1.99 4.6 1.73 12.25 -4.17 13.15" style="fill:#d41919"/><g style="fill:#fff"><path d="m 6.49 12.14 v -0.79 l -0.36 -0.05 c -0.58 -0.08 -0.7 -0.16 -0.7 -0.48 c 0 -0.37 0.13 -0.47 0.63 -0.53 l 0.42 -0.05 v -1.63 l -0.43 -0.06 c -0.52 -0.07 -0.62 -0.15 -0.62 -0.5 c 0 -0.35 0.1 -0.43 0.62 -0.5 c 0.5 -0.07 0.49 -0.05 0.52 -1.1 l 0.02 -0.68 l -1.13 -0.05 l -0.02 -0.32 c -0.02 -0.18 0.01 -0.36 0.06 -0.42 c 0.05 -0.05 0.29 -0.11 0.55 -0.14 l 0.46 -0.04 l 0.02 -0.61 l 0.02 -0.61 h -1.58 v 0.33 c 0 0.41 -0.13 0.5 -0.71 0.5 h -0.42 v 1.82 l 0.54 0.03 l 0.54 0.02 l 0.02 0.32 c 0.02 0.18 -0.01 0.36 -0.06 0.41 c -0.04 0.05 -0.27 0.11 -0.51 0.14 l -0.43 0.04 v 1.66 l 0.41 0.04 c 0.22 0.02 0.45 0.07 0.5 0.11 c 0.11 0.08 0.13 0.69 0.01 0.77 c -0.04 0.03 -0.28 0.07 -0.52 0.1 l -0.45 0.04 v 1.63 l 0.36 0.05 c 0.66 0.09 0.77 0.23 0.77 1 v 0.28 h 1.42 v -0.79"/><path d="m 4.7 19.1 c -0.09 -0.09 -0.12 -0.3 -0.12 -0.78 c -0.01 -0.91 -0.1 -1.59 -0.21 -1.64 c -0.05 -0.02 -0.16 -0.1 -0.23 -0.18 c -0.12 -0.13 -0.14 -0.28 -0.14 -1.21 c 0 -0.59 0.02 -1.2 0.05 -1.36 l 0.05 -0.3 h 1.23 c 1.22 0 1.24 0 1.28 0.18 c 0.02 0.1 0.05 0.71 0.05 1.36 c 0 1.05 -0.02 1.2 -0.14 1.33 c -0.08 0.08 -0.18 0.16 -0.23 0.18 c -0.13 0.05 -0.21 0.64 -0.22 1.59 v 0.85 l -0.23 0.05 c -0.44 0.09 -1 0.06 -1.13 -0.07 m 0.88 -3.59 c 0.08 -0.04 0.11 -0.15 0.11 -0.4 c 0 -0.3 -0.02 -0.36 -0.18 -0.4 c -0.1 -0.03 -0.27 -0.03 -0.37 0 c -0.16 0.04 -0.18 0.1 -0.18 0.35 c 0 0.16 0.04 0.34 0.09 0.4 c 0.09 0.1 0.34 0.13 0.53 0.05"/><path d="m 8.95 18.45 c -0.07 -0.06 -0.09 -0.11 -0.1 -0.34 c -0.02 -0.33 0.06 -0.84 0.19 -1 c 0.17 -0.2 0.58 -0.14 0.56 0.24 c -0.03 0.43 0.05 0.73 -0.08 1.08 c -0.07 0.17 -0.43 0.13 -0.57 0.02"/><path d="m 9.78 15.92 c -0.34 -0.1 -0.27 -0.54 0.21 -1.17 c 0.22 -0.29 1.11 -1.15 1.38 -1.33 c 0.12 -0.08 0.26 -0.14 0.32 -0.14 c 0.13 0 0.39 0.26 0.39 0.39 c 0 0.13 -0.16 0.33 -0.61 0.75 c -0.48 0.45 -0.76 0.75 -0.94 1.03 c -0.18 0.27 -0.31 0.41 -0.46 0.47 c -0.14 0.06 -0.14 0.06 -0.29 0.01"/><path d="m 19.23 18.53 c -0.09 -1.43 -0.23 -2 -0.65 -2.79 c -0.53 -0.94 -1.56 -1.8 -2.48 -2.08 c -0.68 -0.2 -1.74 -0.38 -2.34 -0.38 c -0.48 0 -0.52 -0.02 -0.52 -0.31 c 0 -0.26 0.05 -0.32 0.32 -0.36 c 0.57 -0.08 2.03 -0.01 2.47 0.12 c 1.32 0.39 2.75 1.59 3.41 2.86 c 0.36 0.7 0.62 1.73 0.62 2.51 c 0 0.55 -0.06 1.14 -0.29 0.98 c -0.46 0.02 -0.51 -0.18 -0.54 -0.55"/><path d="m 7.68 19.89 c -0.42 -1.49 -0.13 -3.41 0.45 -4.59 c 0.8 -1.61 1.84 -2.65 3.42 -3.42 c 1.48 -0.62 2.8 -0.89 4.46 -0.55 c 0.37 0.09 0.9 0.26 1.26 0.42 c 2.17 0.96 3.58 2.68 4.11 4.96 c 0.29 1.24 0.04 2.99 -0.42 3.24 c -0.25 0.04 -0.4 -0.06 -0.55 -0.25 c 0.13 -0.44 0.26 -2.22 0.15 -2.75 c -0.24 -1.16 -0.89 -2.32 -1.75 -3.17 c -0.79 -0.76 -1.7 -1.27 -2.83 -1.57 c -1.3 -0.35 -2.52 -0.24 -3.94 0.36 c -1.53 0.65 -2.72 1.92 -3.32 3.56 c -0.58 1.15 -0.21 4 -0.36 3.96 c -0.2 0.11 -0.56 -0.01 -0.68 -0.2"/><path d="m 19.71 20.61 c -0.46 -0.13 -0.83 -0.25 -2.16 -0.72 c -1.2 -0.42 -1.63 -0.56 -1.91 -0.6 c -0.18 -0.03 -0.23 -0.02 -0.48 0.09 c -0.36 0.16 -0.62 0.2 -0.95 0.16 c -0.48 -0.05 -0.84 -0.31 -1.02 -0.72 c -0.13 -0.31 -0.12 -0.73 0.04 -1 c 0.16 -0.28 0.27 -0.38 0.61 -0.52 c 0.39 -0.14 0.75 -0.2 1.11 -0.02 c 0.25 0.12 0.48 0.36 0.64 0.66 c 0.16 0.31 0.31 0.44 0.77 0.64 c 0.64 0.29 3.58 1.36 3.76 1.36 c 0.37 0.25 0.27 0.6 0.03 0.78 c -0.16 -0.04 -0.29 -0.07 -0.42 -0.11 m -5.14 -1.88 c 0.17 -0.1 0.21 -0.5 0.07 -0.69 c -0.09 -0.11 -0.45 -0.16 -0.59 -0.07 c -0.2 0.12 -0.22 0.39 -0.05 0.62 c 0.17 0.21 0.36 0.26 0.57 0.14"/></g></svg>