<svg xmlns="http://www.w3.org/2000/svg" viewBox="0 0 24 24"><path d="m 0.3 14.75 c 4.69 22.49 36.93 -1.65 17.56 -13.1 c -7.52 -4.9 -19.97 1.52 -17.56 13.1" style="fill:#ec8719"/><path d="m 6.99 7 v 2 h 2 c 3.33 0 6 2.68 6 6 v 2 h 2 v -2 c 0 -4.44 -3.57 -8 -8 -8 m -2 4 v 2 h 2 c 1.11 0 2 0.89 2 2 v 2 h 2 v -2 c 0 -2.22 -1.79 -4 -4 -4 m -0.84 3.67 c -0.64 0 -1.17 0.52 -1.17 1.17 c 0 0.64 0.52 1.17 1.17 1.17 c 0.65 0 1.17 -0.52 1.17 -1.17 c 0 -0.65 -0.52 -1.17 -1.17 -1.17" style="fill:#464646"/></svg>