<svg xmlns="http://www.w3.org/2000/svg" xmlns:xlink="http://www.w3.org/1999/xlink" viewBox="0 0 24 24"><defs><g id="3" style="clip-path:url(#2)"><path d="m 15.92 7.91 c 0 2.15 -1.77 3.9 -3.95 3.9 c -2.18 0 -3.95 -1.75 -3.95 -3.9 c 0 -2.15 1.77 -3.9 3.95 -3.9 c 2.18 0 3.95 1.75 3.95 3.9" style="fill:#f2a50c"/></g><g id="6" style="clip-path:url(#5)"><path d="m 15.88 15.64 c 0 2.15 -1.77 3.9 -3.95 3.9 c -2.18 0 -3.95 -1.75 -3.95 -3.9 c 0 -2.15 1.77 -3.89 3.95 -3.89 c 2.18 0 3.95 1.74 3.95 3.89" style="fill:#f2a50c"/></g><g id="9" style="clip-path:url(#8)"><path d="m 12.59 13.45 c 0 2.15 -1.77 3.9 -3.95 3.9 c -2.18 0 -3.95 -1.75 -3.95 -3.9 c 0 -2.15 1.77 -3.9 3.95 -3.9 c 2.18 0 3.95 1.75 3.95 3.9" style="fill:#f2a50c"/></g><g id="C" style="clip-path:url(#B)"><path d="m 19.1 10.23 c 0 2.15 -1.77 3.89 -3.95 3.89 c -2.18 0 -3.95 -1.74 -3.95 -3.89 c 0 -2.15 1.77 -3.9 3.95 -3.9 c 2.18 0 3.95 1.75 3.95 3.9" style="fill:#f2a50c"/></g><g id="F" style="clip-path:url(#E)"><path d="m 19.1 13.66 c 0 2.15 -1.77 3.9 -3.94 3.9 c -2.18 0 -3.95 -1.75 -3.95 -3.9 c 0 -2.15 1.77 -3.9 3.95 -3.9 c 2.18 0 3.94 1.75 3.94 3.9" style="fill:#f2a50c"/></g><g id="I" style="clip-path:url(#H)"><path d="m 12.77 10 c 0 2.15 -1.77 3.9 -3.95 3.9 c -2.18 0 -3.95 -1.75 -3.95 -3.9 c 0 -2.15 1.77 -3.9 3.95 -3.9 c 2.18 0 3.95 1.75 3.95 3.9" style="fill:#f2a50c"/></g><clipPath id="E"><path d="M 0,0 H24 V24 H0 z"/></clipPath><clipPath id="B"><path d="M 0,0 H24 V24 H0 z"/></clipPath><clipPath id="5"><path d="M 0,0 H24 V24 H0 z"/></clipPath><clipPath id="8"><path d="M 0,0 H24 V24 H0 z"/></clipPath><clipPath id="2"><path d="M 0,0 H24 V24 H0 z"/></clipPath><clipPath id="H"><path d="M 0,0 H24 V24 H0 z"/></clipPath><filter id="0" filterUnits="objectBoundingBox" x="0" y="0" width="24" height="24"><feColorMatrix type="matrix" in="SourceGraphic" values="0 0 0 0 1 0 0 0 0 1 0 0 0 0 1 0 0 0 1 0"/></filter><mask id="G"><g style="filter:url(#0)"><path d="M 0,0 H24 V24 H0 z" style="fill-opacity:0.8"/></g></mask><mask id="D"><g style="filter:url(#0)"><path d="M 0,0 H24 V24 H0 z" style="fill-opacity:0.8"/></g></mask><mask id="1"><g style="filter:url(#0)"><path d="M 0,0 H24 V24 H0 z" style="fill-opacity:0.8"/></g></mask><mask id="A"><g style="filter:url(#0)"><path d="M 0,0 H24 V24 H0 z" style="fill-opacity:0.8"/></g></mask><mask id="7"><g style="filter:url(#0)"><path d="M 0,0 H24 V24 H0 z" style="fill-opacity:0.8"/></g></mask><mask id="4"><g style="filter:url(#0)"><path d="M 0,0 H24 V24 H0 z" style="fill-opacity:0.8"/></g></mask></defs><path d="m 9.63 23.34 c -2.19 -0.93 -5.23 -2.3 -5.5 -2.48 c -0.16 -0.11 -0.44 -0.39 -0.62 -0.62 c -0.5 -0.66 -3.2 -5.34 -3.31 -5.77 c -0.11 -0.39 -0.06 -1.8 0.11 -3.08 c 0.37 -3.77 0.19 -3.69 0.68 -4.5 c 0.11 -0.22 1.18 -1.47 2.38 -2.78 c 2.32 -2.51 2.57 -2.72 3.54 -2.91 c 2.63 -0.45 4.3 -1.01 6.66 -1.15 c 2.1 0.89 4.37 1.83 6.36 2.95 c 0.31 0.27 0.77 0.96 1.8 2.72 c 2.12 3.61 1.95 3.21 1.94 4.48 c -0.21 1.96 -0.2 5.24 -0.88 6.63 c -0.23 0.44 -3.32 3.92 -4.3 4.84 c -0.49 0.46 -0.97 0.67 -2.11 0.9 c -1.14 0.42 -3.83 0.86 -4.75 1.04 c -0.53 0.13 -1.15 0.08 -2 -0.29" style="fill:#efe0c2"/><use xlink:href="#3" style="mask:url(#1)"/><use xlink:href="#6" style="mask:url(#4)"/><use xlink:href="#9" style="mask:url(#7)"/><use xlink:href="#C" style="mask:url(#A)"/><use xlink:href="#F" style="mask:url(#D)"/><use xlink:href="#I" style="mask:url(#G)"/><g style="fill:#e87a0b"><path d="m 14.31 17.39 c -0.56 -0.13 -0.96 -0.29 -1.39 -0.57 c -0.41 -0.27 -1.25 -1.13 -1.18 -1.22 c 0.39 -0.05 0.43 -0.18 0.57 -0.49 c 0.22 -0.5 0.32 -1 0.32 -1.56 v -0.41 l 0.37 -0.08 c 0.66 -0.14 1.66 0.04 2.23 0.73 l 0.25 0.29 l 0.13 0.38 c 0.26 0.79 0.22 1.77 -0.11 2.61 l -0.16 0.4 l -0.31 0.01 c -0.17 0.01 -0.5 -0.03 -0.72 -0.08"/><path d="m 7.58 13.69 c -0.87 -0.28 -1.75 -1 -2.16 -1.75 c -0.18 -0.34 -0.18 -0.35 -0.07 -0.57 c 0.18 -0.35 0.91 -1.03 1.37 -1.27 c 0.45 -0.24 0.95 -0.41 1.38 -0.48 l 0.28 -0.04 l 0.25 0.41 c 0.49 0.8 1.5 1.52 2.45 1.74 l 0.37 0.09 l -0.49 0.12 c -0.27 0.07 -0.59 0.18 -0.71 0.24 c -0.6 0.31 -1.2 0.84 -1.58 1.39 c -0.24 0.36 -0.34 0.37 -1.08 0.13"/><path d="m 8.36 16.98 c -0.2 -0.5 -0.28 -1.29 -0.19 -1.87 c 0.04 -0.28 0.13 -0.62 0.18 -0.76 c 0.1 -0.24 0.13 -0.26 0.4 -0.26 c 0.69 0 1.7 -0.33 2.21 -0.72 c 0.13 -0.1 0.25 -0.18 0.27 -0.18 c 0.03 0 0.05 0.18 0.05 0.39 c 0 0.53 0.16 1.25 0.38 1.72 c 0.2 0.45 0.19 0.5 -0.32 0.95 c -0.66 0.58 -1.73 1 -2.57 1 c -0.27 0 -0.29 -0.01 -0.4 -0.29"/><path d="m 15.1 13.54 c -0.5 -0.8 -1.34 -1.4 -2.27 -1.64 l -0.5 -0.13 l 0.37 -0.09 c 0.88 -0.2 1.87 -0.87 2.36 -1.58 c 0.22 -0.32 0.29 -0.33 0.9 -0.18 c 0.94 0.24 1.85 0.89 2.35 1.68 l 0.23 0.37 l -0.18 0.29 c -0.41 0.7 -1.42 1.43 -2.31 1.67 c -0.59 0.16 -0.62 0.14 -0.96 -0.39"/><path d="m 12.78 9.89 c -0.04 -0.63 -0.17 -1.1 -0.47 -1.72 l -0.16 -0.34 l 0.43 -0.41 c 0.66 -0.63 1.44 -0.97 2.43 -1.07 c 0.57 -0.06 0.63 0 0.79 0.7 c 0.14 0.64 0.1 1.46 -0.1 2.04 c -0.22 0.64 -0.25 0.68 -0.58 0.68 c -0.51 0 -1.23 0.19 -1.77 0.46 l -0.52 0.27"/><path d="m 10.85 10.2 c -0.51 -0.34 -1.37 -0.62 -1.99 -0.64 l -0.47 -0.02 l -0.15 -0.48 c -0.22 -0.7 -0.21 -1.75 0.02 -2.38 l 0.17 -0.45 l 0.46 -0.02 c 0.56 -0.02 1.17 0.12 1.75 0.41 c 0.46 0.23 1.16 0.82 1.31 1.11 c 0.08 0.15 0.07 0.2 -0.12 0.5 c -0.29 0.45 -0.48 1.08 -0.54 1.71 l -0.05 0.52"/></g><g style="fill:#e44211"><path d="m 11.28 11.91 c -1.17 0.22 -2.15 0.89 -2.82 1.92 c -0.1 0.15 -0.18 0.29 -0.18 0.3 c 0 0.05 0.16 0.06 0.53 0.03 c 0.82 -0.07 1.61 -0.39 2.22 -0.89 l 0.2 -0.16 v 0.52 c 0 0.4 0.02 0.6 0.07 0.88 c 0.08 0.39 0.31 0.97 0.49 1.25 l 0.11 0.18 l 0.11 -0.18 c 0.44 -0.69 0.7 -1.64 0.66 -2.4 c -0.01 -0.17 -0.01 -0.32 0 -0.32 c 0 0 0.1 0.07 0.21 0.15 c 0.58 0.43 1.28 0.67 2.02 0.71 c 0.22 0.01 0.41 0.01 0.41 0 c 0.01 -0.1 -0.48 -0.77 -0.73 -1 c -0.52 -0.48 -1.16 -0.82 -1.78 -0.95 c -0.16 -0.03 -0.33 -0.07 -0.38 -0.07 c -0.06 -0.02 -0.07 -0.01 -0.06 0.03 c 0.16 0.42 0.29 0.92 0.29 1.07 c 0 0.07 -0.29 -0.21 -0.5 -0.48 l -0.18 -0.23 l -0.21 0.28 c -0.12 0.15 -0.29 0.34 -0.37 0.42 l -0.16 0.14 l 0.03 -0.16 c 0.05 -0.25 0.18 -0.7 0.27 -0.9 c 0.05 -0.13 0.07 -0.18 0.04 -0.18 c -0.02 0 -0.16 0.02 -0.3 0.05"/><path d="m 11.29 11.73 c -1.14 -0.21 -2.08 -0.85 -2.69 -1.84 c -0.09 -0.14 -0.16 -0.28 -0.16 -0.29 c 0 -0.05 0.17 -0.06 0.53 -0.03 c 0.81 0.07 1.57 0.37 2.16 0.85 l 0.19 0.15 l 0.02 -0.5 c 0.02 -0.38 0.04 -0.57 0.11 -0.84 c 0.1 -0.37 0.36 -0.93 0.55 -1.2 l 0.12 -0.16 l 0.1 0.16 c 0.4 0.66 0.61 1.58 0.54 2.3 c -0.02 0.16 -0.03 0.3 -0.02 0.3 c 0.01 0 0.11 -0.06 0.22 -0.14 c 0.6 -0.41 1.3 -0.64 2.04 -0.68 c 0.22 -0.01 0.4 -0.01 0.4 0 c 0 0.09 -0.52 0.73 -0.77 0.96 c -0.54 0.46 -1.19 0.79 -1.8 0.91 c -0.16 0.03 -0.33 0.06 -0.38 0.07 c -0.06 0.01 -0.07 0 -0.06 -0.03 c 0.18 -0.4 0.33 -0.88 0.33 -1.02 c 0 -0.06 -0.29 0.2 -0.51 0.46 l -0.18 0.22 l -0.2 -0.27 c -0.11 -0.14 -0.27 -0.32 -0.34 -0.4 l -0.14 -0.14 l 0.02 0.16 c 0.03 0.23 0.14 0.66 0.22 0.86 c 0.05 0.12 0.05 0.17 0.03 0.17 c -0.02 0 -0.16 -0.03 -0.3 -0.05"/></g></svg>