<svg xmlns="http://www.w3.org/2000/svg" viewBox="0 0 24 24"><path d="m 0.3 14.75 c 4.69 22.49 36.93 -1.65 17.56 -13.1 c -7.52 -4.9 -19.97 1.52 -17.56 13.1" style="fill:#5a73ad"/><path d="m 9.93 19.84 c -5.1 -1.07 -7.92 -6.7 -5.82 -11.48 c 0.87 -1.97 2.73 -3.57 4.82 -4.28 c 1.67 -0.56 3.84 -0.53 5.46 0.07 c 2.16 0.8 3.84 2.59 4.71 4.73 c 0.68 2.1 0.66 4.37 -0.07 6.16 c -1.05 2.53 -3.26 4.31 -5.97 4.83 c -0.79 0.15 -2.33 0.13 -3.13 -0.03 m 2.91 -0.42 c 1.93 -0.29 3.95 -1.6 5.07 -3.28 c 1.64 -2.46 1.71 -5.96 0.16 -8.44 c -2.43 -3.88 -7.58 -4.83 -11.21 -2.07 c -2.09 1.59 -3.16 4.1 -2.95 6.88 c 0.25 3.27 2.53 5.96 5.73 6.78 c 1 0.26 2.04 0.3 3.2 0.13 m -2.04 -2 c -0.38 -0.05 -0.61 -0.16 -0.94 -0.47 c -0.28 -0.26 -0.53 -0.78 -0.53 -1.11 c 0 -0.25 0.05 -0.33 0.45 -0.76 c 0.25 -0.26 0.45 -0.53 0.46 -0.6 c 0.01 -0.07 0.02 -0.32 0.02 -0.57 c 0.02 -1.02 0.62 -1.5 2.25 -1.8 c 0.83 -0.15 1.38 0.13 2.05 1.03 c 0.2 0.27 0.41 0.38 0.94 0.49 c 0.52 0.11 0.75 0.27 0.89 0.62 c 0.26 0.65 0.07 1.45 -0.43 1.85 c -0.89 0.7 -3.93 1.48 -5.16 1.31 m -3.72 -2.93 c -0.41 -0.2 -0.71 -0.53 -0.94 -1.03 c -0.23 -0.51 -0.54 -1.65 -0.51 -1.94 c 0.02 -0.23 0.04 -0.26 0.24 -0.28 c 0.19 -0.02 0.24 0.01 0.33 0.2 c 0.09 0.18 0.14 0.21 0.26 0.16 c 0.08 -0.03 0.29 -0.05 0.46 -0.06 c 0.27 0 0.41 0.06 1.16 0.55 c 1.26 0.81 1.4 0.99 1.24 1.57 c -0.1 0.38 -0.55 0.84 -0.93 0.94 c -0.47 0.13 -0.93 0.09 -1.33 -0.1 m 8.33 -1.93 c -0.2 -0.05 -0.46 -0.16 -0.57 -0.23 c -0.54 -0.39 -0.54 -0.7 0 -1.89 c 0.45 -0.97 0.61 -1.18 0.91 -1.25 c 0.11 -0.02 0.2 -0.08 0.21 -0.12 c 0 -0.05 0.01 -0.2 0.02 -0.35 c 0.02 -0.61 0.45 -0.44 0.74 0.29 c 0.09 0.21 0.26 0.58 0.38 0.81 c 0.48 0.87 0.46 1.68 -0.05 2.25 c -0.41 0.47 -1.01 0.65 -1.64 0.48 m -6.43 -1.43 c -0.98 -0.37 -1.32 -1.29 -0.91 -2.47 c 0.11 -0.3 0.17 -0.64 0.17 -0.88 c 0 -0.49 0.11 -0.82 0.27 -0.82 c 0.16 0 0.25 0.12 0.31 0.41 c 0.07 0.34 0.14 0.41 0.42 0.36 c 0.29 -0.04 0.63 0.09 0.73 0.28 c 0.04 0.08 0.12 0.29 0.17 0.48 c 0.05 0.19 0.23 0.55 0.41 0.8 c 0.41 0.6 0.46 0.92 0.21 1.3 c -0.32 0.48 -1.21 0.75 -1.79 0.54 m 2.88 -0.74 c -0.52 -0.19 -0.77 -0.69 -0.7 -1.34 c 0.03 -0.29 0.01 -0.43 -0.13 -0.74 c -0.23 -0.52 -0.22 -0.74 0.04 -0.96 c 0.11 -0.1 0.25 -0.18 0.3 -0.18 c 0.18 0 0.19 -0.15 0.03 -0.48 c -0.13 -0.28 -0.14 -0.36 -0.07 -0.44 c 0.05 -0.06 0.13 -0.11 0.16 -0.11 c 0.04 0 0.35 0.27 0.68 0.6 c 0.33 0.33 0.77 0.76 0.97 0.95 c 0.48 0.45 0.69 0.84 0.7 1.35 c 0 0.33 -0.03 0.43 -0.2 0.68 c -0.31 0.45 -0.68 0.67 -1.17 0.71 c -0.23 0.02 -0.51 0 -0.62 -0.04" style="fill:#fff"/></svg>