<svg xmlns="http://www.w3.org/2000/svg" viewBox="0 0 24 24" xmlns:xlink="http://www.w3.org/1999/xlink"><path d="m 7.54 22.87 c 29.2 9 14.59 -39.4 -5.41 -16.77 c -4 4.54 -2.46 14.34 5.41 16.77" style="fill:#3d4e7f"/><path d="m 15.45 6.24 c -2.38 0.03 -5.27 1.16 -6.74 1.11 c -1.35 -0.04 -4 -0.35 -5 0.57 c -0.44 0.39 2.25 0.26 5.23 1.95 c 3.16 1.78 3.35 3.42 3.35 3.42 c 0 0 -1.63 1.36 -2.14 2.55 c 0.79 0 0.95 0.01 0.95 0.01 c 0.11 -0.18 0.29 -0.36 0.44 -0.55 c 0.16 -0.19 0.33 -0.39 0.53 -0.58 c 0.2 -0.19 0.42 -0.37 0.66 -0.53 c 0.13 -0.08 0.25 -0.16 0.38 -0.23 c 0.14 -0.07 0.27 -0.14 0.42 -0.2 c 0.14 -0.06 0.3 -0.11 0.45 -0.15 c 0.16 -0.04 0.32 -0.08 0.5 -0.11 c 0.17 -0.02 0.34 -0.03 0.5 -0.02 c 0.17 0.01 0.33 0.04 0.49 0.07 c 0.16 0.04 0.32 0.09 0.47 0.15 c 0.15 0.07 0.3 0.14 0.45 0.22 c 0.15 0.09 0.29 0.18 0.43 0.28 c 0.14 0.1 0.27 0.21 0.4 0.32 c 0.26 0.22 0.5 0.47 0.71 0.72 c 0.21 0.25 0.2 0.36 0.38 0.59 h 3.19 c 0 0 -0.32 -7.32 -3.87 -9.17 c -0.61 -0.32 -1.34 -0.43 -2.13 -0.42 m -0.73 2.04 c 0.3 0 0.61 0.13 0.57 0.4 c -0.03 0.25 -0.29 0.33 -0.55 0.34 c -0.3 0.01 -0.54 -0.11 -0.56 -0.37 c -0.02 -0.25 0.16 -0.37 0.54 -0.37 m -7.49 0.02 c 2.24 -0.01 3.32 0.38 3.88 0.72 c 0.75 0.44 0.46 0.94 -0.3 0.8 c -1.17 -0.22 -1.07 -0.68 -3.59 -1.51" id="0" style="fill:#fff;fill-rule:evenodd"/><use xlink:href="#0"/><g style="fill:#fff"><path d="m 3.74 18.74 v -0.46 h 0.91 c 0.14 0 0.26 -0.04 0.35 -0.1 c 0.09 -0.07 0.14 -0.16 0.14 -0.27 c 0 -0.05 -0.01 -0.11 -0.04 -0.15 c -0.02 -0.05 -0.06 -0.09 -0.1 -0.12 c -0.04 -0.04 -0.09 -0.06 -0.15 -0.08 c -0.06 -0.02 -0.13 -0.03 -0.19 -0.03 h -0.21 c -0.11 0 -0.21 -0.02 -0.3 -0.05 c -0.09 -0.04 -0.17 -0.09 -0.23 -0.15 c -0.07 -0.07 -0.12 -0.14 -0.16 -0.23 c -0.04 -0.09 -0.06 -0.18 -0.06 -0.29 c 0 -0.11 0.02 -0.2 0.06 -0.29 c 0.04 -0.09 0.09 -0.17 0.16 -0.23 c 0.07 -0.06 0.16 -0.12 0.26 -0.15 c 0.1 -0.04 0.21 -0.06 0.33 -0.06 h 0.86 v 0.46 h -0.89 c -0.1 0 -0.17 0.03 -0.23 0.08 c -0.05 0.05 -0.08 0.11 -0.08 0.19 c 0 0.08 0.03 0.15 0.08 0.21 c 0.06 0.05 0.14 0.08 0.23 0.08 h 0.25 c 0.12 0 0.22 0.02 0.32 0.06 c 0.1 0.04 0.18 0.09 0.25 0.17 c 0.07 0.07 0.13 0.16 0.17 0.26 c 0.04 0.1 0.06 0.21 0.06 0.33 c 0 0.12 -0.02 0.23 -0.06 0.33 c -0.04 0.1 -0.1 0.19 -0.18 0.26 c -0.08 0.07 -0.17 0.13 -0.28 0.17 c -0.11 0.04 -0.23 0.06 -0.36 0.06"/><path d="m 5.77 18.74 v -2.66 h 0.45 v 2.19 h 0.71 v 0.46"/><path d="m 7.11 18.74 v -2.66 h 0.46 v 2.66"/><path d="m 7.72 18.74 m 1.63 -2.54 c 0.03 -0.05 0.07 -0.09 0.12 -0.11 c 0.05 -0.02 0.09 -0.04 0.14 -0.04 c 0.05 0 0.1 0.02 0.14 0.07 c 0.04 0.04 0.05 0.09 0.05 0.16 v 1.62 l 1.12 -1.71 c 0.03 -0.05 0.07 -0.09 0.11 -0.11 c 0.05 -0.02 0.09 -0.04 0.14 -0.04 c 0.06 0 0.11 0.02 0.14 0.07 c 0.04 0.04 0.05 0.09 0.05 0.16 v 2.45 h -0.46 v -1.79 l -1.02 1.63 c -0.04 0.06 -0.08 0.1 -0.12 0.13 c -0.05 0.02 -0.09 0.04 -0.14 0.04 c -0.04 0 -0.08 -0.01 -0.11 -0.02 c -0.04 -0.02 -0.07 -0.04 -0.09 -0.06 c -0.03 -0.03 -0.05 -0.06 -0.07 -0.09 c -0.02 -0.04 -0.02 -0.08 -0.02 -0.13 v -1.49 l -1.11 1.79 h -0.54"/><path d="m 11.66 18.73 m 0.45 -2.2 v 1.73 h 0.4 c 0.16 0 0.28 -0.02 0.38 -0.08 c 0.1 -0.05 0.15 -0.13 0.15 -0.24 c 0 -0.11 -0.04 -0.2 -0.1 -0.25 c -0.07 -0.05 -0.15 -0.08 -0.25 -0.08 h -0.31 v -0.46 h 0.31 c 0.1 0 0.18 -0.02 0.23 -0.07 c 0.05 -0.05 0.08 -0.13 0.08 -0.24 c 0 -0.11 -0.04 -0.19 -0.11 -0.23 c -0.07 -0.05 -0.2 -0.07 -0.38 -0.07 m 0.6 0.8 c 0.07 0.03 0.13 0.07 0.17 0.12 c 0.05 0.05 0.09 0.09 0.12 0.15 c 0.03 0.05 0.05 0.11 0.06 0.17 c 0.01 0.06 0.02 0.11 0.02 0.17 c 0 0.11 -0.02 0.21 -0.07 0.31 c -0.04 0.09 -0.1 0.18 -0.19 0.25 c -0.09 0.07 -0.2 0.13 -0.32 0.17 c -0.13 0.04 -0.28 0.06 -0.46 0.06 h -0.78 v -2.66 h 0.88 c 0.29 0 0.51 0.06 0.67 0.17 c 0.15 0.11 0.23 0.29 0.23 0.52 c 0 0.05 -0.01 0.11 -0.02 0.16 c -0.01 0.05 -0.03 0.11 -0.05 0.16 c -0.03 0.05 -0.06 0.1 -0.1 0.14 c -0.04 0.04 -0.09 0.08 -0.16 0.11"/><path d="m 13.62 18.72 m 1.2 0 c -0.18 0 -0.34 -0.04 -0.49 -0.1 c -0.14 -0.07 -0.27 -0.17 -0.38 -0.29 c -0.11 -0.12 -0.19 -0.27 -0.25 -0.43 c -0.06 -0.17 -0.09 -0.34 -0.09 -0.53 c 0 -0.19 0.03 -0.36 0.09 -0.52 c 0.06 -0.16 0.14 -0.29 0.25 -0.41 c 0.11 -0.12 0.23 -0.2 0.38 -0.27 c 0.15 -0.06 0.31 -0.09 0.49 -0.09 h 0.07 c 0.18 0 0.35 0.04 0.5 0.1 c 0.15 0.07 0.27 0.15 0.38 0.27 c 0.11 0.11 0.19 0.25 0.25 0.41 c 0.06 0.16 0.09 0.33 0.09 0.52 c 0 0.19 -0.03 0.37 -0.09 0.53 c -0.06 0.16 -0.14 0.3 -0.25 0.43 c -0.11 0.12 -0.23 0.22 -0.38 0.29 c -0.14 0.07 -0.3 0.1 -0.48 0.1 m -0.07 -2.18 c -0.11 0 -0.22 0.02 -0.32 0.07 c -0.09 0.04 -0.18 0.1 -0.25 0.18 c -0.07 0.07 -0.13 0.17 -0.16 0.27 c -0.04 0.11 -0.06 0.22 -0.06 0.35 c 0 0.13 0.02 0.24 0.06 0.34 c 0.04 0.1 0.09 0.19 0.16 0.27 c 0.07 0.07 0.15 0.13 0.25 0.18 c 0.1 0.04 0.2 0.06 0.32 0.06 h 0.07 c 0.12 0 0.23 -0.02 0.32 -0.07 c 0.1 -0.04 0.18 -0.1 0.25 -0.18 c 0.07 -0.08 0.12 -0.17 0.16 -0.27 c 0.04 -0.11 0.06 -0.22 0.06 -0.34 c 0 -0.13 -0.02 -0.24 -0.06 -0.35 c -0.04 -0.11 -0.09 -0.2 -0.17 -0.28 c -0.07 -0.08 -0.15 -0.14 -0.25 -0.18 c -0.1 -0.04 -0.2 -0.07 -0.32 -0.07"/><path d="m 16.3 18.74 m 1.21 0 c -0.18 0 -0.34 -0.04 -0.49 -0.11 c -0.15 -0.07 -0.27 -0.16 -0.38 -0.29 c -0.11 -0.12 -0.19 -0.26 -0.25 -0.43 c -0.06 -0.17 -0.09 -0.34 -0.09 -0.54 c 0 -0.19 0.03 -0.37 0.09 -0.52 c 0.06 -0.16 0.14 -0.3 0.25 -0.41 c 0.11 -0.11 0.23 -0.2 0.38 -0.27 c 0.15 -0.07 0.32 -0.1 0.5 -0.1 h 0.07 c 0.18 0 0.35 0.04 0.49 0.1 c 0.15 0.06 0.28 0.15 0.38 0.27 c 0.11 0.12 0.19 0.25 0.25 0.41 c 0.05 0.16 0.08 0.33 0.08 0.52 c 0 0.19 -0.03 0.37 -0.09 0.54 c -0.06 0.16 -0.14 0.3 -0.25 0.43 c -0.11 0.13 -0.23 0.22 -0.38 0.29 c -0.15 0.07 -0.31 0.1 -0.48 0.1 m -0.07 -2.19 c -0.12 0 -0.22 0.02 -0.32 0.06 c -0.1 0.04 -0.18 0.11 -0.25 0.18 c -0.07 0.08 -0.13 0.17 -0.17 0.28 c -0.04 0.11 -0.06 0.22 -0.06 0.36 c 0 0.12 0.02 0.24 0.06 0.34 c 0.04 0.1 0.09 0.19 0.16 0.27 c 0.07 0.07 0.15 0.13 0.25 0.18 c 0.1 0.04 0.21 0.06 0.32 0.06 h 0.07 c 0.12 0 0.23 -0.02 0.32 -0.06 c 0.1 -0.05 0.18 -0.11 0.25 -0.18 c 0.07 -0.07 0.12 -0.17 0.16 -0.27 c 0.04 -0.11 0.06 -0.22 0.06 -0.34 c 0 -0.13 -0.02 -0.25 -0.06 -0.35 c -0.04 -0.11 -0.09 -0.2 -0.16 -0.28 c -0.07 -0.08 -0.15 -0.14 -0.25 -0.18 c -0.09 -0.04 -0.2 -0.06 -0.31 -0.06"/><path d="m 18.99 18.73 m 1.06 -1.07 l -0.61 0.95 c -0.03 0.05 -0.07 0.09 -0.12 0.11 c -0.05 0.02 -0.09 0.03 -0.14 0.03 c -0.06 0 -0.11 -0.02 -0.14 -0.06 c -0.04 -0.04 -0.05 -0.09 -0.05 -0.16 v -2.45 h 0.45 v 1.79 l 1.12 -1.79 h 0.54 l -0.78 1.17 l 1.06 1.48 h -0.61"/></g></svg>