<svg xmlns="http://www.w3.org/2000/svg" viewBox="0 0 24 24"><path d="m 12.36 0.29 c -15.77 -1.8 -16.43 23.99 -0.53 23.69 c 14.75 0.85 16.97 -25.1 0.53 -23.69" style="fill:#801297"/><g style="fill:#f4f4f4"><path d="m 9.18 5.45 c -1.1 0 -2 0.96 -2 2.13 v 9.35 c 0 1.16 0.91 2.13 2 2.13 h 5.64 c 1.1 0 2 -0.96 2 -2.13 v -9.35 c 0 -1.16 -0.91 -2.13 -2 -2.13 m -5.64 1.7 h 5.64 c 0.23 0 0.4 0.18 0.4 0.43 v 8.5 c 0 0.25 -0.17 0.43 -0.4 0.43 h -5.64 c -0.23 0 -0.4 -0.18 -0.4 -0.43 v -8.5 c 0 -0.25 0.17 -0.43 0.4 -0.43"/><path d="m 8.38 8 c -0.22 0 -0.4 0.19 -0.4 0.43 v 5.1 c 0 0.23 0.18 0.42 0.4 0.42 h 0.8 c 0.22 0 0.4 -0.19 0.4 -0.42 v -5.1 c 0 -0.24 -0.18 -0.43 -0.4 -0.43 m 1.61 0 c -0.23 0 -0.4 0.19 -0.4 0.43 v 5.1 c 0 0.23 0.18 0.42 0.4 0.42 h 2.41 c 0.23 0 0.4 -0.19 0.4 -0.42 v -5.1 c 0 -0.24 -0.18 -0.43 -0.4 -0.43 m 1.61 0 c -0.22 0 -0.4 0.19 -0.4 0.43 v 5.1 c 0 0.23 0.18 0.42 0.4 0.42 h 0.8 c 0.22 0 0.4 -0.19 0.4 -0.42 v -5.1 c 0 -0.24 -0.18 -0.43 -0.4 -0.43 m -5.64 6.8 c -0.22 0 -0.4 0.19 -0.4 0.43 c 0 0.23 0.18 0.43 0.4 0.43 h 4 c 0.22 0 0.4 -0.19 0.4 -0.43 c 0 -0.24 -0.18 -0.43 -0.4 -0.43" style="fill-opacity:0.35"/></g></svg>