<svg xmlns="http://www.w3.org/2000/svg" viewBox="0 0 24 24"><path d="m 22.95 16 c 4.66 -11.94 -8.4 -18.1 -16.52 -15 c -5.67 2.13 -8.49 10.59 -4.47 17.44 c 5.08 8.64 17.4 6.8 20.99 -2.41" style="fill:#203428"/><path d="m 11.52 20.62 l -0.3 -0.56 v -6.93 l 0.49 -0.46 c 0.48 -0.45 0.49 -0.46 0.61 -0.46 h 0.12 v 7.88 l -0.29 0.53 c -0.16 0.29 -0.29 0.54 -0.3 0.55 c -0.01 0.01 -0.16 -0.23 -0.32 -0.54 m -1.3 -1.36 c -0.6 -0.17 -1.16 -0.41 -1.63 -0.7 c -0.52 -0.32 -0.63 -0.45 -0.73 -0.84 l -0.05 -0.19 l -0.05 0.09 c -0.02 0.05 -0.05 0.13 -0.06 0.17 l -0.02 0.07 l -0.09 -0.07 c -0.47 -0.42 -1.04 -1.25 -1.3 -1.9 c -0.12 -0.29 -0.27 -0.8 -0.3 -1 c -0.01 -0.07 -0.03 -0.14 -0.03 -0.16 c -0.01 -0.04 0.02 -0.04 0.15 0.03 c 0.09 0.04 0.24 0.09 0.33 0.12 c 0.17 0.04 0.72 0.1 0.75 0.09 c 0 -0.01 -0.05 -0.04 -0.14 -0.06 c -0.43 -0.13 -0.83 -0.43 -1.05 -0.78 c -0.12 -0.19 -0.12 -0.21 -0.07 -0.69 c 0.16 -1.71 1.13 -3.23 2.66 -4.18 c 0.34 -0.21 0.98 -0.5 1.38 -0.63 c 0.46 -0.14 0.52 -0.15 0.61 -0.09 c 0.06 0.05 0.06 0.07 0.06 0.57 v 0.52 l -0.13 0.03 c -0.07 0.02 -0.26 0.08 -0.41 0.14 c -1.53 0.59 -2.6 1.82 -2.89 3.34 c -0.07 0.37 -0.09 0.97 -0.03 1.35 c 0.14 0.98 0.6 1.86 1.34 2.55 c 0.51 0.48 1.18 0.87 1.86 1.08 l 0.29 0.09 v 0.52 c 0 0.47 -0.01 0.53 -0.05 0.57 c -0.07 0.06 -0.09 0.06 -0.36 -0.02 m 2.87 -0.01 c -0.06 -0.06 -0.06 -0.09 -0.06 -0.57 v -0.51 l 0.29 -0.09 c 0.38 -0.12 0.93 -0.38 1.27 -0.6 c 0.34 -0.23 0.84 -0.7 1.09 -1.02 c 0.36 -0.48 0.65 -1.09 0.79 -1.71 c 0.05 -0.23 0.07 -0.35 0.07 -0.87 c 0 -0.52 -0.01 -0.63 -0.07 -0.87 c -0.27 -1.15 -0.92 -2.09 -1.92 -2.75 c -0.32 -0.22 -0.85 -0.46 -1.23 -0.58 l -0.29 -0.09 v -0.5 c 0 -0.51 0 -0.51 0.07 -0.57 l 0.07 -0.06 l 0.23 0.05 c 0.48 0.13 1.26 0.44 1.41 0.57 c 0.11 0.09 0.25 0.29 0.34 0.47 c 0.1 0.19 0.13 0.18 0.16 -0.05 l 0.02 -0.13 l 0.23 0.17 c 0.72 0.54 1.36 1.33 1.73 2.16 c 0.17 0.37 0.18 0.46 0.03 0.74 c -0.13 0.24 -0.34 0.44 -0.57 0.52 l -0.15 0.06 l 0.12 -0.02 c 0.2 -0.02 0.55 -0.14 0.73 -0.24 c 0.11 -0.06 0.17 -0.08 0.18 -0.06 c 0.05 0.13 0.11 0.58 0.12 0.95 c 0.05 1.09 -0.23 2.13 -0.81 3.04 c -0.78 1.22 -2.02 2.13 -3.45 2.52 c -0.17 0.04 -0.3 0.08 -0.32 0.08 c -0.01 0 -0.05 -0.03 -0.08 -0.06 m -1.87 -7.1 c -0.01 -0.01 -0.02 -0.95 -0.02 -2.09 v -2.08 l -0.07 -0.05 c -0.06 -0.05 -0.08 -0.05 -0.87 -0.05 h -0.81 l -0.14 0.13 c -0.24 0.23 -0.24 0.25 -0.24 -0.61 c 0 -0.86 0 -0.84 0.24 -0.61 l 0.14 0.13 h 0.87 c 0.8 0 0.87 0 0.91 -0.05 c 0.04 -0.04 0.05 -0.17 0.05 -1.31 c 0 -1.07 0 -1.27 0.04 -1.31 c 0.06 -0.08 0.05 -0.15 -0.05 -0.25 l -0.1 -0.09 v -0.34 c 0 -0.44 -0.04 -0.42 0.64 -0.42 c 0.68 0 0.66 -0.02 0.66 0.43 v 0.32 l -0.11 0.1 c -0.12 0.11 -0.14 0.18 -0.07 0.23 c 0.04 0.03 0.04 0.18 0.04 1.11 c 0 1 0 1.09 -0.05 1.19 c -0.06 0.12 -0.23 0.27 -0.36 0.34 c -0.08 0.04 0 0.04 1.08 0.04 h 1.17 l 0.14 -0.13 c 0.25 -0.23 0.24 -0.24 0.24 0.61 c 0 0.86 0 0.84 -0.24 0.61 l -0.14 -0.13 h -1.62 l -0.12 0.12 v 3.24 l -0.5 0.47 c -0.45 0.42 -0.51 0.47 -0.59 0.47 c -0.05 0 -0.1 -0.01 -0.11 -0.02" style="fill:#fff"/></svg>