<svg xmlns="http://www.w3.org/2000/svg" viewBox="0 0 24 24"><path d="m 5.87 21.28 c 8.73 7.8 22.2 -4.5 16.75 -14.79 c -5.5 -10.4 -23.69 -7.63 -22.1 5.14 c 0.46 3.8 2.54 7.1 5.39 9.64" style="fill:#0a0504"/><g style="fill:#fff"><path d="m 11.93 20.2 c -0.02 -0.09 -0.07 -0.46 -0.11 -0.82 c -0.14 -1.07 -0.41 -1.11 -0.56 -0.08 c -0.04 0.32 -0.11 0.6 -0.14 0.64 c -0.13 0.14 -0.32 -0.34 -0.38 -1 c -0.1 -1.02 -0.16 -1.11 -0.55 -0.74 c -0.12 0.11 -0.23 0.19 -0.24 0.17 c -0.02 -0.02 -0.14 -0.41 -0.27 -0.88 c -0.27 -0.96 -0.52 -1.39 -0.98 -1.64 c -0.65 -0.36 -1.65 -0.38 -2.04 -0.03 c -0.13 0.11 -0.16 0.11 -0.35 0 c -0.11 -0.07 -0.37 -0.34 -0.57 -0.6 c -0.57 -0.75 -0.49 -1.16 0.23 -1.16 c 0.44 0 0.8 -0.23 1.01 -0.64 c 0.11 -0.22 0.29 -0.92 0.48 -1.88 c 0.44 -2.27 0.43 -2.25 1.39 -2.39 c 0.91 -0.14 1.31 -0.64 1.45 -1.81 c 0.13 -1.1 0.13 -1.13 0.35 -1.27 c 0.17 -0.11 0.39 -0.14 1.39 -0.14 c 1.06 0 1.22 0.02 1.46 0.16 l 0.27 0.16 l 0.01 0.71 c 0.01 0.62 0.04 0.77 0.23 1.15 c 0.28 0.55 0.71 0.89 1.31 1.02 c 0.67 0.14 0.83 0.25 1.05 0.7 c 0.14 0.3 0.22 0.62 0.27 1.21 c 0.09 0.93 0.32 1.9 0.57 2.35 c 0.19 0.35 0.7 0.65 1.11 0.65 c 0.35 0 0.55 0.13 0.55 0.34 c 0 0.3 -0.66 1.18 -1.09 1.46 c -0.21 0.14 -0.22 0.14 -0.44 -0.05 c -0.28 -0.23 -0.93 -0.33 -1.39 -0.21 c -0.62 0.17 -1.45 1.2 -1.45 1.79 c 0 0.34 -0.16 0.91 -0.25 0.91 c -0.05 0 -0.2 -0.11 -0.33 -0.24 c -0.23 -0.22 -0.25 -0.23 -0.32 -0.1 c -0.04 0.08 -0.14 0.52 -0.21 0.97 c -0.07 0.46 -0.16 0.88 -0.2 0.93 c -0.11 0.17 -0.27 -0.16 -0.33 -0.66 c -0.07 -0.62 -0.11 -0.75 -0.23 -0.75 c -0.13 0 -0.17 0.18 -0.23 0.96 c -0.07 0.86 -0.1 0.96 -0.27 0.96 c -0.1 0 -0.16 -0.07 -0.19 -0.18 m 0.71 -4.82 c 0.12 -0.07 0.17 -0.16 0.17 -0.35 c 0 -0.3 -0.41 -1.17 -0.59 -1.23 c -0.18 -0.07 -0.4 0.16 -0.65 0.69 c -0.23 0.48 -0.28 0.92 -0.12 0.99 c 0.15 0.07 1.01 0 1.19 -0.1 m -3.83 -1.51 c 0.29 -0.24 0.73 -0.25 1.41 -0.04 c 0.63 0.2 0.74 0.2 0.8 -0.02 c 0.06 -0.26 -0.05 -0.5 -0.54 -1.1 c -0.24 -0.29 -0.55 -0.79 -0.71 -1.11 c -0.15 -0.32 -0.31 -0.6 -0.36 -0.63 c -0.14 -0.09 -0.63 0.24 -0.84 0.58 c -0.26 0.4 -0.5 1.18 -0.56 1.79 c -0.04 0.43 -0.03 0.48 0.14 0.6 c 0.25 0.18 0.4 0.16 0.67 -0.07 m 5.07 0 c 0.52 -0.22 0.84 -0.24 1.31 -0.07 c 0.56 0.2 0.89 0.25 0.98 0.16 c 0.4 -0.4 -0.83 -3.22 -1.32 -3 c -0.06 0.02 -0.27 0.35 -0.46 0.73 c -0.34 0.66 -0.55 0.93 -1.14 1.46 c -0.32 0.29 -0.35 0.45 -0.12 0.74 c 0.2 0.25 0.2 0.25 0.76 0.01"/><path d="m 15.2 8.21 c -0.43 -0.26 -0.61 -0.56 -0.65 -1.06 c -0.04 -0.52 0.11 -0.8 0.56 -1.09 c 0.49 -0.31 0.83 -0.55 1.92 -0.48 c 0.71 0.05 1.07 0.14 1.67 -0.53 c 0.29 -0.33 0.51 -0.25 0.62 0.16 c 0.22 0.79 -0.66 2.19 -1.55 2.46 c -0.23 0.07 -0.61 0.25 -0.84 0.4 c -0.55 0.36 -1.28 0.42 -1.73 0.15"/><path d="m 9.21 8.21 c 0.43 -0.26 0.61 -0.56 0.65 -1.06 c 0.04 -0.52 -0.11 -0.8 -0.56 -1.09 c -0.49 -0.31 -0.83 -0.55 -1.92 -0.48 c -0.71 0.05 -1.07 0.14 -1.67 -0.53 c -0.29 -0.33 -0.51 -0.25 -0.62 0.16 c -0.22 0.79 0.66 2.19 1.55 2.46 c 0.23 0.07 0.61 0.25 0.84 0.4 c 0.55 0.36 1.29 0.42 1.73 0.15"/></g></svg>