<svg xmlns="http://www.w3.org/2000/svg" viewBox="0 0 24 24"><path d="m 20.56 4.5 c 14.97 21.28 -23.97 28.1 -20.1 5.44 c 2.05 -8.99 14.1 -13.97 20.1 -5.44" style="fill:#617376"/><path d="m 9.63 23.68 c -2.47 -0.39 -4.7 -1.51 -6.28 -3.13 c 2.88 -0.24 13.62 0.03 17.41 -0.37 c -2.95 2.8 -6.56 3.76 -11.13 3.5"/><g style="fill:#fff"><path d="m 4.71 9.82 c -0.07 -0.02 -0.13 -0.1 -0.12 -0.18 c 0 -0.09 -0.02 -0.98 -0.04 -2 l -0.04 -1.84 l 0.8 -0.05 c 0.99 -0.06 1.43 0 1.57 0.2 c 0.09 0.47 0.36 1.33 0.04 1.66 c -0.14 0.14 -0.2 0.14 -0.75 0.1 c -0.87 -0.07 -0.88 -0.05 -0.88 1.14 c 0 0.91 0 0.94 -0.16 0.98 c -0.14 0.02 -0.3 0.03 -0.42 0 m 1.55 -2.93 c 0.18 -0.27 -0.04 -0.46 -0.23 -0.5 c -0.41 -0.09 -0.67 0.03 -0.67 0.3 c 0 0.12 0.05 0.24 0.12 0.29 c 0.14 0.09 0.64 0.03 0.78 -0.09"/><path d="m 9.29 9.88 c -0.06 -0.04 -0.08 -0.16 -0.11 -0.7 c -0.04 -0.66 -0.12 -1.06 -0.23 -1.23 c -0.2 -0.16 -0.53 -0.1 -0.73 0.05 c -0.29 0.19 -0.13 0.64 -0.12 0.94 c 0.02 0.68 0.02 0.84 -0.02 0.86 c -0.09 0.05 -0.54 0.04 -0.61 -0.01 c -0.06 -0.05 -0.06 -0.19 -0.01 -1.48 c 0.03 -0.79 0.07 -1.5 0.08 -1.58 c 0.04 -0.29 -0.18 -0.59 -0.07 -0.87 c 0.02 -0.06 0.16 -0.07 1.11 -0.07 c 1.13 0 1.31 0.02 1.35 0.16 c 0.01 0.04 0 0.29 -0.02 0.55 c -0.02 0.26 -0.04 1.13 -0.03 1.92 l 0.01 1.45 l -0.14 0.02 c -0.23 0.04 -0.38 0.03 -0.46 -0.03 m -0.43 -2.77 c 0.24 -0.12 0.38 -0.56 0.21 -0.65 c -1.12 -0.39 -1 1.02 -0.21 0.65"/><path d="m 11.44 9.8 c -0.04 -0.06 -0.04 -0.48 -0.02 -1.55 c 0.03 -1.56 0.02 -1.75 -0.15 -1.86 c -0.12 -0.09 -0.35 -0.08 -0.6 0.02 c -0.27 0.11 -0.33 0.06 -0.35 -0.3 l -0.02 -0.26 l 0.13 -0.04 c 0.09 -0.03 0.54 -0.05 1.34 -0.05 h 1.21 c 0.01 0.2 0.02 0.4 0.02 0.6 c -0.25 0.01 -0.52 0.02 -0.75 0.08 c -0.04 0.03 -0.11 2 -0.11 3.09 v 0.27 c -0.19 0.05 -0.59 0.16 -0.69 0"/><path d="m 13.66 9.86 l -0.15 -0.02 v -0.31 c 0 -0.45 -0.07 -2.83 -0.1 -3.32 l -0.02 -0.41 c 0.27 0 0.54 0 0.8 0 c 0.05 0.43 -0.04 0.91 0.09 1.33 c 0.29 0.16 0.45 0.09 0.84 0.09 c 0.02 -0.49 0.04 -0.98 0.06 -1.47 c 0.25 0.02 0.51 0.03 0.74 0.09 c 0.05 0.05 0.04 2.07 -0.02 2.73 c -0.04 0.45 -0.04 0.51 0.04 0.75 c 0.04 0.14 0.08 0.33 0.08 0.41 c -0.02 0.27 -0.33 0.13 -0.51 0.1 c -0.32 -0.02 -0.29 -0.09 -0.31 -0.39 c -0.02 -0.19 -0.04 -0.57 -0.06 -0.84 c -0.04 -0.48 -0.04 -0.5 -0.14 -0.59 c -0.25 -0.14 -0.38 -0.1 -0.66 -0.1 c -0.05 0.41 -0.07 0.84 -0.07 1.2 c -0.01 0.38 -0.01 0.71 -0.02 0.74 c 0 0.05 -0.22 0.06 -0.58 0.02"/><path d="m 17 9.85 c -0.13 -0.02 -0.28 -0.05 -0.35 -0.08 c -0.15 -0.06 -0.25 -0.28 -0.25 -0.53 c 0.07 -0.35 0.23 -0.47 0.53 -0.69 c 0.07 -0.04 0.08 -0.03 0.08 0.08 c 0 0.13 0.14 0.55 0.21 0.64 c 0.05 0.06 0.33 0.06 0.52 0 c 0.17 -0.05 0.21 -0.16 0.31 -0.74 c 0.16 -0.59 -0.32 -0.71 -0.7 -0.75 c -0.68 -0.07 -0.88 -0.16 -0.95 -0.46 c -0.08 -0.35 -0.02 -1.06 0.12 -1.3 c 0.11 -0.19 0.32 -0.27 0.72 -0.28 c 0.36 -0.02 0.7 0.07 1.04 0.12 c 0.35 0.05 0.59 0.37 0.59 0.81 c 0 0.11 -0.02 0.19 -0.06 0.22 c -0.05 0.04 -0.09 0.02 -0.25 -0.14 c -0.23 -0.24 -0.54 -0.39 -0.88 -0.41 c -0.37 -0.05 -0.63 0.28 -0.52 0.55 c 0.08 0.2 0.15 0.25 0.5 0.29 c 0.3 0.04 0.57 0.14 0.86 0.33 c 0.16 0.11 0.2 0.16 0.25 0.33 c 0.1 0.35 0.13 0.85 0.05 1.05 c -0.03 0.09 -0.08 0.27 -0.11 0.4 c -0.06 0.29 -0.24 0.49 -0.5 0.55 c -0.2 0.05 -0.84 0.05 -1.21 0.01"/><path d="m 18.27 18.51 c -0.02 -0.04 -0.11 -4.09 -0.09 -4.12 c 0 0 0.36 -0.03 0.78 -0.05 c 0.82 -0.05 1.28 -0.02 1.47 0.11 c 0.13 0.09 0.24 0.35 0.29 0.71 c 0.07 0.45 -0.02 0.7 -0.31 0.98 l -0.22 0.21 c 0.2 0.16 0.41 0.31 0.61 0.46 v 0.39 c 0 0.21 -0.02 0.58 -0.04 0.82 c -0.04 0.52 -0.05 0.53 -0.51 0.53 h -0.32 c -0.07 -0.48 0.14 -1.18 -0.08 -1.58 c -0.11 -0.18 -0.39 -0.33 -0.61 -0.32 c -0.35 0.02 -0.22 0.78 -0.22 1.04 c 0 0.63 -0.02 0.75 -0.1 0.79 c -0.14 0.05 -0.62 0.07 -0.65 0.03 m 1.57 -2.81 c 0.12 -0.08 0.2 -0.33 0.14 -0.43 c -0.29 -0.2 -0.52 -0.22 -0.85 -0.27 c 0 0.26 -0.04 0.77 0.2 0.8 c 0.15 0.02 0.39 -0.03 0.5 -0.1"/><path d="m 15.61 18.52 c -0.1 -0.01 -0.21 -0.04 -0.23 -0.07 c -0.04 -0.04 -0.06 -0.64 -0.09 -2.02 c -0.02 -1.09 -0.04 -1.98 -0.03 -1.98 c 0.01 -0.01 0.54 -0.03 1.18 -0.04 l 1.16 -0.03 l 0.1 0.1 c 0.09 0.09 0.11 0.14 0.11 0.32 c 0 0.33 -0.02 0.34 -0.76 0.32 c -0.69 -0.02 -0.87 0.02 -0.94 0.18 c -0.06 0.13 -0.06 0.32 -0.01 0.42 c 0.41 0.31 0.89 -0.05 0.89 0.51 c 0 0.33 -0.06 0.4 -0.31 0.36 c -0.24 -0.04 -0.45 0.01 -0.5 0.11 c -0.06 0.12 -0.11 0.76 -0.07 0.92 c 0.02 0.07 0.06 0.14 0.09 0.16 c 0.1 0.06 0.55 0.09 0.88 0.04 c 0.4 -0.05 0.56 -0.04 0.63 0.02 c 0.06 0.05 0.11 0.36 0.08 0.5 c -0.05 0.21 -0.07 0.22 -1.07 0.21 c -0.51 0 -1 -0.01 -1.11 -0.02"/><path d="m 14.22 18.85 c -0.3 -0.34 -0.27 -0.33 -1.05 -0.29 c -0.6 0.03 -0.7 0.03 -0.78 -0.03 c -0.21 -0.14 -0.22 -0.2 -0.21 -2.14 c 0.01 -1.75 0.02 -1.8 0.1 -1.91 c 0.12 -0.16 0.31 -0.21 0.57 -0.17 c 0.25 0.05 1 0.06 1.38 0.02 c 0.25 -0.03 0.3 -0.02 0.39 0.05 c 0.09 0.07 0.1 0.11 0.1 0.36 c 0 0.61 -0.13 0.88 -0.51 1.05 c -0.16 0.07 -0.17 0.07 -0.22 0 c -0.03 -0.04 -0.05 -0.11 -0.05 -0.16 c 0 -0.16 -0.09 -0.4 -0.19 -0.5 c -0.09 -0.09 -0.12 -0.1 -0.27 -0.07 c -0.29 0.05 -0.43 0.13 -0.48 0.31 c -0.05 0.21 -0.16 1.5 -0.16 1.99 c 0 0.52 0.03 0.55 0.5 0.55 c 0.3 0 0.36 -0.01 0.45 -0.1 c 0.1 -0.08 0.11 -0.13 0.11 -0.34 c 0 -0.3 -0.08 -0.43 -0.36 -0.56 c -0.11 -0.05 -0.19 -0.11 -0.19 -0.13 c 0 -0.07 0.2 -0.2 0.59 -0.37 c 0.21 -0.09 0.43 -0.16 0.48 -0.16 c 0.15 0.02 0.2 0.25 0.22 1.21 c 0.02 0.82 0.02 0.89 -0.07 1.21 c -0.05 0.19 -0.1 0.36 -0.11 0.37 c -0.02 0.01 -0.12 -0.07 -0.23 -0.2"/><path d="m 9.34 18.54 c -0.16 -0.06 -0.18 -0.16 -0.21 -1.77 c -0.02 -0.86 -0.04 -1.75 -0.04 -2 l -0.01 -0.44 c 0.25 0.01 0.51 0.02 0.77 0.02 l 0.21 0.59 c 0.35 0.95 0.54 1.27 0.67 1.13 c 0.03 -0.03 0.05 -0.36 0.07 -0.91 c 0.01 -0.48 0.04 -0.88 0.05 -0.9 c 0.03 -0.03 0.57 0.05 0.7 0.09 c 0.06 0.03 0.07 0.45 0.02 2.65 c -0.02 1 -0.05 1.42 -0.08 1.46 c -0.06 0.07 -0.32 0.11 -0.46 0.06 c -0.14 -0.05 -0.2 -0.14 -0.39 -0.6 c -0.19 -0.43 -0.46 -0.87 -0.6 -0.94 c -0.18 -0.09 -0.2 -0.02 -0.21 0.79 l -0.01 0.74 l -0.2 0.02 c -0.11 0.01 -0.24 0 -0.28 -0.02"/><path d="m 7.89 18.55 l -0.03 -0.41 c -0.04 -0.62 -0.14 -1.24 -0.23 -1.49 c -0.05 -0.13 -0.14 -0.16 -0.45 -0.11 c -0.48 0.07 -0.51 0.14 -0.45 1.22 c 0.02 0.39 0.03 0.71 0.02 0.73 c -0.04 0.05 -0.67 0.08 -0.72 0.04 c -0.04 -0.02 -0.04 -0.07 0.01 -0.21 c 0.05 -0.15 0.05 -0.43 0.04 -1.74 c -0.01 -0.86 -0.03 -1.66 -0.05 -1.77 c -0.03 -0.22 0.05 -0.46 0.15 -0.46 c 0.45 -0.02 1.85 0.01 2.03 0.04 c 0.31 0.04 0.39 0.13 0.39 0.45 c -0.17 0.48 0 1.03 -0.05 1.46 c -0.05 0.39 -0.06 1.43 -0.02 1.99 l 0.03 0.31 c -0.23 -0.02 -0.49 -0.03 -0.68 -0.04 m -0.37 -2.83 c 0.23 -0.23 0.22 -0.42 0.25 -0.73 c -0.29 0 -0.57 0 -0.85 0 c -0.01 0.23 -0.07 0.65 0.12 0.76 c 0.1 0.05 0.36 0.03 0.48 -0.04"/><path d="m 3.05 17.33 c -0.02 -1.36 -0.1 -2.27 -0.23 -2.67 c -0.04 -0.13 -0.08 -0.25 -0.08 -0.27 c 0 -0.05 0.93 -0.08 1.56 -0.05 c 0.78 0.04 0.94 0.12 1.14 0.55 c 0.09 0.2 0.1 0.25 0.1 1.01 c 0 1.01 -0.04 1.9 -0.09 2.06 c -0.02 0.07 -0.14 0.23 -0.27 0.37 l -0.23 0.25 l -0.38 -0.04 c -0.36 -0.04 -1.14 -0.02 -1.38 0.03 l -0.11 0.02 m 1.52 -0.79 c 0.07 -0.03 0.14 -0.07 0.16 -0.11 c 0.05 -0.11 0.07 -2.22 0.02 -2.34 c -0.07 -0.17 -0.24 -0.25 -0.54 -0.25 c -0.44 0 -0.41 -0.07 -0.41 1.3 c 0 0.66 0.02 1.24 0.03 1.3 c 0.17 0.23 0.52 0.18 0.75 0.1"/><path d="m 11.1 13.83 c -0.42 -0.07 -0.47 -0.36 -0.57 -0.64 c -0.09 -0.27 -0.01 -0.61 0.24 -0.91 c 0.29 -0.35 0.29 -0.42 0.01 -0.85 c -0.33 -0.5 -0.32 -0.61 0.05 -0.91 c 0.3 -0.24 0.3 -0.24 0.61 -0.21 c 0.4 0.04 0.66 0.16 0.79 0.38 c 0.11 0.17 0.11 0.36 -0.02 0.58 c -0.14 0.24 -0.3 0.27 -0.47 0.48 l 0.2 0.28 c 0.3 0.41 0.36 0.95 0.7 0.77 l 0.45 -0.25 l 0.21 0.17 c -0.99 0.7 0.11 0.85 -0.2 1.09 c -0.09 0.07 -0.67 -0.2 -0.76 -0.17 c -0.89 0.24 -0.65 0.39 -1.25 0.21 m 0.95 -0.39 c 0.26 -0.11 0.17 -0.39 -0.24 -0.79 c -0.25 -0.24 -0.47 -0.26 -0.61 -0.05 c -0.15 0.22 -0.12 0.71 0.13 0.83 c 0.11 0.05 0.52 0.09 0.71 0.01 m -0.33 -2.27 c 0.12 -0.38 -0.05 -0.59 -0.39 -0.39 c -0.18 0.11 -0.24 0.29 -0.14 0.44 c 0.09 0.13 0.25 0.83 0.53 -0.05"/></g><path d="m 19.91 13.53 c -0.16 -0.04 -0.18 -0.07 -0.23 -0.41 c -0.07 -0.42 -0.13 -0.48 -0.55 -0.46 c -0.3 0.02 -0.35 0 -0.46 -0.11 c -0.23 -0.24 -0.23 -0.84 0 -1.18 c 0.05 -0.08 0.14 -0.3 0.19 -0.48 c 0.09 -0.32 0.36 -0.93 0.52 -1.14 c 0.07 -0.1 0.08 -0.09 0.23 0.12 c 0.28 0.45 0.41 0.91 0.64 1.39 c 0.18 0.37 0.23 0.39 1.3 0.46 c 0.42 0.03 0.85 0.09 0.96 0.13 l 0.2 0.07 c 0.02 0.56 -1.17 0.87 -1.66 1.25 c -0.44 0.36 -0.77 0.46 -1.15 0.37"/><path d="m 5.55 13.65 c -0.03 -0.04 -0.07 -0.16 -0.09 -0.27 c -0.02 -0.11 -0.05 -0.22 -0.07 -0.23 c -0.02 -0.01 -0.15 0.03 -0.28 0.1 c -0.36 0.19 -0.52 0.16 -0.76 -0.11 c -0.11 -0.13 -0.34 -0.36 -0.5 -0.53 c -0.16 -0.16 -0.29 -0.34 -0.29 -0.38 c 0 -0.13 0.24 -0.27 0.5 -0.31 c 0.15 -0.02 0.48 0 0.88 0.05 c 0.35 0.05 0.7 0.07 0.77 0.06 c 0.18 -0.04 0.23 -0.27 0.24 -0.89 c 0 -1.09 0.32 -1.5 0.74 -0.94 c 0.11 0.14 0.32 0.37 0.46 0.5 c 0.3 0.28 0.33 0.39 0.16 0.71 c -0.16 0.31 -0.12 0.59 0.11 0.59 c 0.13 0 0.16 0.13 0.07 0.41 c -0.1 0.33 -0.18 0.39 -0.5 0.39 c -0.31 0 -0.48 0.11 -0.63 0.4 c -0.18 0.35 -0.66 0.61 -0.8 0.44"/><path d="m 10.48 2.82 c 0.02 -0.06 0.05 -0.11 0.08 -0.11 c 0.11 0 0.41 -0.31 0.41 -0.43 c 0 -0.07 -0.09 -0.22 -0.2 -0.34 c -0.11 -0.11 -1 0.05 -0.77 -0.53 c 0.03 -0.07 0.73 -0.1 0.96 -0.32 c 0.38 -0.37 0.39 -0.38 0.3 -0.57 c -0.18 -0.39 0.16 -0.43 1.1 -0.43 c 0.68 -0.11 0.73 0.23 1.32 0.38 c 0.2 0.05 0.37 0.15 0.56 0.36 c 0.5 0.52 0.32 0.81 -0.43 0.73 c -0.39 -0.04 -0.71 0.02 -0.81 0.16 c -0.17 0.25 0.21 0.75 0.7 0.91 c 0.51 0.17 0.78 0.7 0.62 1.19 c -0.25 0.57 -0.6 0.25 -0.86 -0.07 c -0.37 -0.46 -0.44 -0.42 -0.45 0.23 c -0.01 0.84 -0.21 1.27 -0.52 1.09 c -0.19 -0.11 -0.42 -0.54 -0.46 -0.87 c -0.05 -0.36 -0.19 -0.58 -0.37 -0.58 c -0.07 0 -0.34 0.09 -0.58 0.2 c -0.44 0.2 -0.8 0.34 -0.89 0.22 c -0.09 -0.11 -0.48 -0.65 0.3 -1.24"/></svg>