<svg xmlns="http://www.w3.org/2000/svg" viewBox="0 0 24 24"><path d="m 12.23 23.87 c -2.48 -0.19 -5.37 -1.37 -7.39 -3 c -2.45 -2 -4.25 -5.06 -4.73 -8.1 c -0.57 -3.99 1.74 -8.28 4.36 -10.31 c 1.31 -0.99 3.05 -1.78 4.69 -2.13 c 4.25 -0.9 8.68 0.8 11.72 4.5 c 1.82 2.21 2.76 4.45 2.99 7.09 c 0.28 3.17 -0.98 6.56 -3.26 8.85 c -2.6 2.16 -5.28 3.32 -8.36 3.1" style="fill:#eff8ff"/><path d="m 12.2 18.53 c -0.1 -0.24 -0.23 -0.62 -0.31 -0.84 c -0.1 -0.3 -0.32 -0.49 -0.89 -0.76 c -0.95 -0.46 -1.04 -0.46 -1.6 -0.05 c -0.25 0.19 -0.54 0.34 -0.64 0.34 c -0.24 0 -2.04 -1.79 -2.04 -2.02 c 0.3 -0.59 0.42 -0.87 0.71 -1.35 l -0.39 -0.87 c -0.37 -0.83 -0.42 -0.88 -1.07 -1.07 c -0.38 -0.11 -0.73 -0.27 -0.79 -0.36 c -0.06 -0.09 -0.11 -0.61 -0.11 -1.14 c 0 -1.09 0.13 -1.25 1.02 -1.25 c 0.45 0 0.51 -0.05 0.77 -0.62 c 0.35 -0.77 0.35 -0.78 -0.01 -1.25 c -0.36 -0.48 -0.3 -0.65 0.4 -1.13 c 0.59 -0.4 0.71 -0.38 1.57 0.21 c 0.16 0.11 0.42 0.12 0.89 0.03 c 0.56 -0.11 0.68 -0.19 0.79 -0.53 c 0.07 -0.22 0.15 -0.42 0.17 -0.45 c 0.02 -0.02 0.39 0.03 0.82 0.13 c 0.63 0.14 0.82 0.25 0.98 0.55 c 0.27 0.51 0.16 0.64 -0.54 0.65 c -1.21 0 -2.55 1.02 -2.87 2.17 c -0.39 1.42 0.28 4.08 1 3.98 c 0.29 -0.04 0.32 -0.11 0.35 -1.14 c 0.04 -1.1 0.04 -1.11 0.67 -1.78 c 0.61 -0.66 0.65 -0.68 1.38 -0.68 c 0.41 0 0.75 0.04 0.75 0.09 c 0 0.05 -0.22 0.34 -0.48 0.66 c -0.56 0.66 -0.58 0.78 -0.21 1.36 c 0.2 0.31 0.41 0.45 0.79 0.52 c 0.48 0.09 0.55 0.06 1.04 -0.48 c 0.29 -0.31 0.59 -0.53 0.66 -0.48 c 0.08 0.05 0.14 0.39 0.14 0.75 c 0 0.61 -0.06 0.73 -0.63 1.32 c -0.61 0.63 -0.66 0.66 -1.6 0.75 c -0.72 0.07 -1.04 0.17 -1.24 0.38 c -0.15 0.16 -0.25 0.34 -0.23 0.42 c 0.02 0.08 0.46 0.35 0.98 0.6 c 1.63 0.8 3.15 0.7 4.27 -0.26 l 0.58 -0.5 l 0.45 0.62 c 0.25 0.34 0.45 0.73 0.45 0.86 c 0 0.32 -0.67 1.44 -0.86 1.44 c -0.44 -0.18 -0.71 -0.42 -1.1 -0.71 l -0.68 0.31 c -0.71 0.32 -0.78 0.43 -0.84 1.4 l -0.04 0.54 c -0.76 0.03 -1.52 0.05 -2.29 0.08 c -0.06 -0.14 -0.12 -0.29 -0.18 -0.44" style="fill:#2195e0"/><path d="m 15.57 14.59 c 0.5 -0.5 0.67 -0.79 0.81 -1.39 c 0.32 -1.39 -0.56 -3.28 -1.96 -4.23 c -0.9 -0.61 -2.03 -0.87 -2.91 -0.67 c -0.54 0.13 -0.83 0.32 -1.27 0.88 c -0.39 0.49 -0.48 0.49 -0.39 0 c 0.13 -0.71 0.71 -1.45 1.43 -1.81 c 1 -0.44 2.46 -0.2 3.28 0.21 c 0.84 0.42 1.78 1.33 2.32 2.25 c 0.75 1.26 0.88 2.74 0.35 3.79 c -0.36 0.71 -1.21 1.36 -1.83 1.41 l -0.29 0.02" style="fill:#60a66a"/></svg>