<svg xmlns="http://www.w3.org/2000/svg" viewBox="0 0 24 24"><path d="m 20.56 4.5 c 14.97 21.28 -23.97 28.1 -20.1 5.44 c 2.05 -8.99 14.1 -13.97 20.1 -5.44" style="fill:#020000"/><path d="m 9.43 16.75 c -0.08 -0.1 -0.11 -0.31 -0.07 -0.56 c 0.09 -0.55 0.61 -0.99 2.39 -2.04 c 1.78 -1.04 2.34 -1.53 2.34 -2.04 c 0 -0.3 -0.07 -0.41 -0.34 -0.58 c -0.19 -0.12 -0.47 -0.21 -0.63 -0.21 c -0.3 0 -0.61 -0.25 -0.61 -0.49 c 0 -0.12 0.16 -0.15 0.71 -0.15 c 1.53 0 2.53 1.07 1.98 2.14 c -0.08 0.16 -0.61 0.73 -1.18 1.26 l -1.03 0.96 l 0.46 0.07 c 0.68 0.11 3.73 0.09 4.58 -0.02 c 0.4 -0.05 0.77 -0.15 0.81 -0.23 c 0.14 -0.23 -0.35 -1.15 -2.62 -4.91 c -1.34 -2.23 -1.71 -2.69 -2.03 -2.51 c -0.1 0.05 -0.58 0.7 -1.07 1.45 c -1.04 1.58 -0.89 1.58 -1.91 0.01 c -0.36 -0.55 -0.74 -1.04 -0.85 -1.07 c -0.45 -0.14 -0.31 -0.34 -3.73 5.44 c -1.07 1.8 -1.97 3.53 -2.06 3.55 c -0.51 0.1 -1.03 -3.32 -0.64 -4.99 c 0.71 -3 3.2 -5.39 6.09 -6.21 c 1.12 -0.32 3.29 -0.34 4.28 -0.04 c 2.68 0.8 4.53 2.72 5.54 5.41 c 0.32 1.21 0.58 3.31 -0.13 5.78 c -0.14 0.14 -0.79 0.17 -5.16 0.17 c -4.33 0 -5 -0.02 -5.14 -0.16" style="fill:#fff"/></svg>