<svg xmlns="http://www.w3.org/2000/svg" viewBox="0 0 24 24"><path d="m 3.92 21.2 c 8.46 8 23.72 -3.71 19.24 -14.49 c -3.13 -9.12 -16.1 -8.29 -20.63 -0.86 c -3.4 4.51 -3.36 11.84 1.39 15.35" style="fill:#392f28"/><path d="m 10.37 13.5 l 0.52 0.45 c 0.26 0.23 0.29 0.61 0.07 0.85 l -2.16 2.41 c -0.22 0.25 -0.61 0.26 -0.87 0.03 l -0.52 -0.45 c -0.26 -0.23 -0.29 -0.61 -0.07 -0.86 l 2.16 -2.41 c 0.22 -0.25 0.61 -0.26 0.87 -0.04" style="fill:#fff"/><path d="m 15.73 5.62 c 1.23 0.09 2.5 1.19 2.48 2.8 c -0.01 0.98 -0.42 2.08 -1.13 3 c -2.22 2.7 -3.04 0.8 -1.26 -1 c 1.13 -1.2 0.83 -1.77 0.81 -2.02 c -0.06 -0.71 -0.93 -1.35 -1.51 -1.18 c -0.5 0.14 -0.97 0.01 -2.05 1.18 c -1.38 1.88 -2.91 0.74 -1.1 -1.04 c 1.45 -1.51 2.68 -1.75 3.76 -1.72" style="fill:#f4f4f4"/><path d="m 10.92 6.91 l 6.56 5.75 c 0.26 0.22 0.29 0.61 0.07 0.85 l -3.99 4.46 c -0.22 0.24 -0.61 0.26 -0.87 0.03 l -6.56 -5.74 c -0.26 -0.23 -0.29 -0.61 -0.07 -0.85 l 4 -4.46 c 0.22 -0.25 0.61 -0.26 0.86 -0.04" style="fill:#ffa400"/><path d="m 9.51 18.64 c -0.84 0.93 -2.33 0.98 -3.34 0.09 c -1 -0.88 -1.15 -2.36 -0.31 -3.29 c 0.83 -0.93 2.33 -0.98 3.34 -0.09 c 1 0.88 1.15 2.36 0.31 3.29" style="fill:#f4f4f4"/><path d="m 7.68 18.24 c -0.28 0.31 -0.78 0.33 -1.12 0.03 c -0.34 -0.3 -0.38 -0.79 -0.11 -1.11 c 0.28 -0.31 0.79 -0.33 1.13 -0.03 c 0.34 0.3 0.38 0.79 0.1 1.11" style="fill:#392f28"/></svg>