<svg xmlns="http://www.w3.org/2000/svg" viewBox="0 0 24 24"><path d="m 20.56 19.59 c 14.97 -21.28 -23.97 -28.1 -20.1 -5.44 c 2.05 8.99 14.1 13.97 20.1 5.44" style="fill:#00a1ad"/><g style="fill:#fff"><path d="m 10.41 19.55 c -0.36 -0.16 -0.56 -0.68 -0.73 -1.7 c -0.09 -0.51 -0.17 -0.79 -0.37 -1.21 c -0.14 -0.3 -0.3 -0.72 -0.35 -0.92 c -0.21 -0.84 -0.38 -1.21 -1.25 -2.87 c -0.27 -0.52 -0.57 -1.18 -0.67 -1.46 c -0.77 -2.29 0.22 -4.62 2.44 -5.77 c 1.38 -0.63 2.8 -0.64 4.12 -0.13 c 1.01 0.4 2 1.32 2.5 2.29 c 0.48 0.95 0.55 2.39 0.18 3.58 c -0.09 0.27 -0.45 1.07 -0.8 1.77 c -0.75 1.49 -0.77 1.55 -1.27 3 c -0.25 0.77 -0.39 1.26 -0.43 1.6 c -0.03 0.27 -0.08 0.59 -0.11 0.7 c -0.09 0.34 -0.41 0.93 -0.63 1.02 c -0.44 0.18 -2.3 0.21 -2.64 0.06 m 0.89 -3.33 c 0.01 -0.01 0.03 -0.61 0.05 -1.32 l 0.04 -1.3 l -0.36 -0.24 c -0.82 -0.55 -1.15 -0.93 -1.36 -1.56 c -0.11 -0.31 -0.57 -2.55 -0.57 -2.75 c 0 -0.13 0.08 -0.11 0.53 0.11 c 1.02 0.52 1.74 1.15 2.16 1.89 c 0.36 0.63 0.28 1.23 0.61 0.3 c 0.18 -0.53 0.85 -0.77 1.49 -0.78 c 0.84 -0.01 0.65 0.18 0.43 0.61 c -0.14 0.29 -0.69 0.98 -0.96 1.23 c -0.25 0.23 -0.4 0.3 -0.79 0.35 c -0.18 0.02 -0.32 0.08 -0.39 0.16 c -0.06 0.07 -0.21 0.23 -0.32 0.38 l -0.21 0.25 c 0.1 0.75 0.11 1.82 0.19 2.67 c 0.51 -0.07 1.42 0.07 1.61 -0.11 c 0.06 -0.11 0.14 -0.32 0.18 -0.48 c 0.11 -0.45 0.33 -0.98 1.04 -2.47 c 0.8 -1.66 0.98 -2.11 1.11 -2.73 c 0.11 -0.54 0.09 -0.95 -0.09 -1.6 c -0.2 -0.74 -0.49 -1.23 -1 -1.75 c -0.53 -0.53 -0.98 -0.8 -1.78 -1.04 c -1.08 -0.29 -2.28 -0.18 -3.15 0.25 c -0.82 0.41 -1.4 0.99 -1.8 1.82 c -0.27 0.55 -0.4 1.09 -0.4 1.75 c 0 0.89 0.22 1.52 1.12 3.21 c 0.67 1.27 0.82 1.63 1.03 2.43 c 0.2 0.78 0.22 0.8 1 0.75 c 0.32 -0.02 0.6 -0.04 0.61 -0.05"/><path d="m 12.28 12.63 h 0.24 v 3.83 h -0.24"/></g><g style="fill:#00a1ad"><path d="m 10.56 17.1 l 2.21 -0.09 c 0.1 0 0.19 0.08 0.19 0.18 v 0.19 c 0 0.1 -0.07 0.19 -0.18 0.19 l -2.21 0.09 c -0.1 0 -0.19 -0.07 -0.2 -0.18 v -0.18 c 0 -0.11 0.08 -0.19 0.18 -0.2"/><path d="m 10.91 18.1 l 1.71 -0.04 c 0.1 0 0.19 0.08 0.19 0.18 v 0.19 c 0 0.11 -0.08 0.19 -0.18 0.19 l -1.71 0.04 c -0.1 0 -0.19 -0.08 -0.19 -0.18 v -0.19 c 0 -0.1 0.08 -0.19 0.18 -0.19"/></g></svg>