<svg xmlns="http://www.w3.org/2000/svg" viewBox="0 0 24 24"><path d="m 0.1 14.74 c 0.82 9.68 13.87 12.28 20.2 5.36 c 5.49 -5.14 4.89 -14.97 -1.19 -18.35 c -6.93 -4.51 -17.86 1.07 -19 10.1 c -0.13 0.98 -0.11 1.98 0.06 2.93" style="fill:#f4b243"/><path d="m 5.96 7.64 v 6.65 l 2.53 0.51 l 1.01 -2.05 l 5.56 3.07 l -5.56 1.54 l -3.54 -2.05 v 3.59 h 11.12 l 1.01 -1.02 v -6.66 l -3.54 1.54 l -5.56 -3.58 l 4.55 1.02 l 1 -2.05 l 3.54 2.05 v -3.58" style="fill-opacity:0.1"/><path d="m 6.97 6.11 l -1.01 1.02 v 6.65 l 2.53 0.51 l 1.01 -2.05 l 5.56 3.07 v 0.51 l -4.55 -1.02 l -1.01 2.05 l -3.54 -2.05 v 3.59 h 11.12 l 1.01 -1.03 v -6.65 l -2.53 -0.51 l -1.01 2.05 l -5.56 -3.07 v -0.51 l 4.55 1.02 l 1 -2.05 l 3.54 2.05 v -3.58" style="fill:#464646"/></svg>