<svg xmlns="http://www.w3.org/2000/svg" viewBox="0 0 24 24"><path d="m 0.12 11.64 c 0.37 8.53 6.15 14.96 14.16 11.41 c 5.5 -2.43 10.73 -5.11 9.42 -11.41 c -1.31 -6.3 -7.66 -11.41 -14.16 -11.41 c -6.52 0 -9.7 5.18 -9.42 11.41" style="fill:#282534"/><g style="fill:#fff"><path d="m 4.67 11 c -0.03 -0.03 -0.05 -0.32 -0.05 -0.66 v -0.61 l 1.02 -0.56 c 0.66 -0.37 1 -0.6 0.99 -0.69 c -0.01 -0.07 -0.47 -0.35 -1.02 -0.63 l -1 -0.5 l 0.03 -0.62 c 0.02 -0.61 0.03 -0.62 0.27 -0.6 c 0.22 0.02 1.47 0.65 2.88 1.45 l 0.54 0.3 v 1.18 l -1.56 0.91 c -1.6 0.93 -1.99 1.12 -2.08 1.03"/><path d="m 8.92 11.27 h 3.76 v 1.38 h -3.76"/></g><path d="m 23.93 18 c 0 3.27 -2.65 5.91 -5.91 5.91 c -3.27 0 -5.91 -2.65 -5.91 -5.91 c 0 -3.27 2.64 -5.91 5.91 -5.91 c 3.27 0 5.91 2.64 5.91 5.91" style="fill:#fa01d2"/><g style="fill:#fff"><path d="m 14.1 19.96 c -0.08 -0.46 -0.17 -3.73 0.05 -4.13 c 1.41 0.86 2.48 1.42 3.8 2.12 c 0 1.46 0 2.92 0 4.38 c -1.38 -0.72 -2.71 -1.52 -3.85 -2.38"/><path d="m 18.2 17.64 c -0.25 -0.06 -1.57 -0.75 -1.64 -0.86 c 1.49 -0.9 2.55 -1.55 3.79 -2.19 c 0.63 0.45 1.24 0.52 1.72 1 c -1.02 0.56 -3.28 1.73 -3.87 2.04"/><path d="m 14.27 15.61 c 0 0 0.02 -0.04 0.05 -0.08 c 0.96 -0.45 3.33 -1.88 3.86 -2.04 c 0.52 0.31 1.27 0.67 1.79 0.95 c -1.3 0.46 -2.71 1.44 -3.91 2.1 c -0.62 -0.24 -1.26 -0.62 -1.79 -0.93"/><path d="m 18.32 22.2 c -0.04 -1.47 0.02 -2.59 0.01 -4.16 c 1.05 -0.43 2.91 -1.54 3.82 -2.05 c 0.15 0.13 0.08 0.42 0.07 0.6 c -0.03 0.63 -0.11 3.32 -0.07 3.47 c -1.44 0.99 -2.88 1.79 -3.84 2.13"/></g></svg>