<svg xmlns="http://www.w3.org/2000/svg" viewBox="0 0 24 24"><path d="m 22.89 17.71 c -4.73 11.27 -23 6.24 -22.89 -6 c -0.18 -11.16 14.36 -15.39 20.74 -7.44 c 3.19 3.44 4.3 9.13 2.16 13.48" style="fill:#eff8ff"/><path d="m 10.61 20.73 c -3.29 -0.63 -5.94 -3.1 -6.85 -6.4 c -0.29 -1.05 -0.29 -3.21 0 -4.29 c 0.25 -0.93 0.83 -2.14 1.37 -2.9 c 0.45 -0.63 1.49 -1.65 2.13 -2.09 c 2.39 -1.64 5.61 -1.98 8.27 -0.87 c 2.53 1.05 4.41 3.25 5.14 5.99 c 0.25 0.95 0.27 2.94 0.04 3.9 c -0.77 3.17 -3.06 5.56 -6.2 6.47 c -1.3 0.22 -2.68 0.4 -3.91 0.18 m 3.3 -0.56 c 2.51 -0.53 4.62 -2.21 5.71 -4.56 c 0.48 -1.03 0.66 -1.79 0.73 -2.96 c 0.21 -3.7 -2.06 -7 -5.6 -8.2 c -1.98 -0.59 -4.41 -0.39 -6.15 0.44 c -2.02 0.98 -3.53 2.73 -4.23 4.91 c -0.25 0.77 -0.39 2.68 -0.27 3.52 c 0.06 0.39 0.24 0.53 0.24 0.18 c 0 -0.08 0.13 -0.46 0.28 -0.85 c 1 -2.52 3.72 -4.85 6.46 -5.56 c 0.36 -0.09 0.43 -0.09 0.53 0.05 c 0.11 0.14 0.17 0.12 0.7 -0.23 c 0.91 -0.62 2.17 -1.1 2.44 -0.93 c 0.14 0.09 0.16 0.47 0.07 1.26 l -0.07 0.56 l 0.23 -0.44 c 0.13 -0.25 0.36 -0.51 0.5 -0.58 c 0.37 -0.19 1.31 -0.33 1.78 -0.27 c 0.59 0.08 0.66 0.23 0.36 0.83 c -0.28 0.56 -0.95 1.35 -1.16 1.35 c -0.19 0 -0.16 0.05 0.27 0.59 c 0.86 1.06 1.28 2.12 1.1 2.79 c -0.15 0.57 -0.56 0.74 -0.56 0.23 c 0 -0.12 -0.07 -0.31 -0.16 -0.43 c -0.22 -0.27 -0.45 -0.17 -0.68 0.29 c -0.15 0.3 -0.23 0.36 -0.46 0.36 c -0.17 0 -0.28 0.05 -0.28 0.13 c 0 0.33 -0.63 0.93 -1.36 1.29 c -1.07 0.53 -1.76 0.68 -2.9 0.63 c -1.16 -0.05 -1.6 -0.23 -2.26 -0.91 c -0.57 -0.6 -0.86 -0.76 -1.36 -0.76 c -0.55 0 -1.04 0.5 -1.26 1.27 c -0.22 0.75 -0.15 2.23 0.13 2.94 c 0.64 1.59 1.97 2.66 3.8 3.06 c 0.78 0.17 2.61 0.17 3.43 0 m -0.66 -3.17 c 0.22 -0.24 0.27 -0.25 1.23 -0.25 c 1.11 0 1.37 -0.09 0.69 -0.23 c -0.75 -0.16 -0.61 -0.3 0.28 -0.29 c 0.67 0.01 0.83 -0.02 1.06 -0.19 c 0.14 -0.11 0.29 -0.32 0.31 -0.47 c 0.04 -0.2 0.1 -0.27 0.22 -0.24 c 0.27 0.05 0.42 -0.15 0.48 -0.63 c 0.13 -0.93 0.28 -1.04 0.38 -0.26 c 0.09 0.68 0 1.3 -0.79 1.59 c -0.34 0.13 -0.6 0.49 -0.7 0.6 c -0.31 0.38 -0.53 0.44 -1.71 0.45 c -0.62 0 -1.25 0.04 -1.41 0.09 l -0.28 0.08" style="fill:#5678d7"/></svg>