<svg xmlns="http://www.w3.org/2000/svg" viewBox="0 0 24 24"><path d="m 23.57 14.7 c -4.64 22.31 -36.54 -1.64 -17.38 -12.98 c 7.44 -4.87 19.76 1.5 17.38 12.98" style="fill:#009de3"/><g style="fill:#fff"><path d="m 8.29 10.3 c -0.72 -0.08 -1.27 -0.09 -2.04 -0.13 c 0 -0.8 0 -1.6 0 -2.4 l 2.6 -0.05 c 1.55 -0.03 3.1 -0.05 4.65 -0.05 c 0 0.83 0 1.66 0 2.5 c -0.48 0.13 -1.81 -0.13 -2.14 0.2 c -0.19 1.38 -0.12 2.1 -0.14 3.8 c -0.92 0 -1.84 0 -2.77 0 c -0.02 -0.65 0.07 -3.74 -0.17 -3.87"/><path d="m 12.1 14.44 c -0.11 -0.16 -0.09 -0.17 2.13 -2.55 l 0.98 -1.05 c 1.17 0 2.34 0 3.51 0 l -1.42 1.46 c -1.34 1.38 -1.81 1.91 -1.81 2 c 0 0.1 0.22 0.33 1.71 1.82 c 0.88 0.88 1.57 1.61 1.55 1.63 c -1.18 0.09 -2.09 0.08 -3.36 0.11 c -1.05 -1.24 -2.3 -2.07 -3.29 -3.41"/></g></svg>