<svg xmlns="http://www.w3.org/2000/svg" viewBox="0 0 24 24"><path d="m 20.56 19.59 c 14.97 -21.28 -23.97 -28.1 -20.1 -5.44 c 2.05 8.99 14.1 13.97 20.1 5.44" style="fill:#a9a9a9"/><path d="m 5.25 7.11 h 13.77 v 9.65 h -13.77" style="fill:#c00"/><path d="m 5.77 7.66 h 12.71 v 8.52 h -12.71" style="fill:#fff"/><g style="fill:#949494"><path d="m 12.13 7.66 h 0.53 v 9.65 h -0.53"/><path d="m 11.6 7.66 h 0.53 v 10.22 h -0.53"/></g><path d="m 6.3 8.22 h 0.53 v 1.7 h -0.53"/><path d="m 7.36 8.22 h 3.71 v 0.57 h -3.71"/><path d="m 7.36 9.38 h 3.71 v 0.57 h -3.71"/><path d="m 6.3 10.5 h 4.77 v 0.57 h -4.77"/><path d="m 6.3 11.61 h 4.77 v 0.57 h -4.77"/><path d="m 6.3 12.77 h 4.77 v 0.57 h -4.77"/><path d="m 6.3 13.89 h 4.77 v 0.57 h -4.77"/><path d="m 6.3 15 h 4.77 v 0.57 h -4.77"/><path d="m 13.19 8.22 h 4.77 v 0.57 h -4.77"/><path d="m 13.19 9.38 h 4.77 v 0.57 h -4.77"/><path d="m 13.19 10.5 h 4.77 v 0.57 h -4.77"/><path d="m 13.19 11.61 h 4.77 v 0.57 h -4.77"/><path d="m 13.19 12.77 h 4.77 v 0.57 h -4.77"/><path d="m 13.19 13.89 h 4.77 v 0.57 h -4.77"/><path d="m 13.19 15 h 4.77 v 0.57 h -4.77"/></svg>