<svg xmlns="http://www.w3.org/2000/svg" viewBox="0 0 24 24"><path d="m 20.56 4.5 c 14.97 21.28 -23.97 28.1 -20.1 5.44 c 2.05 -8.99 14.1 -13.97 20.1 -5.44" style="fill:#1a6980"/><path d="m 11.1 20.41 c -2.14 -0.24 -4.19 -1.4 -5.48 -3.09 c -1.56 -2.05 -1.96 -4.52 -1.14 -7.13 l 0.29 -0.95 c -0.18 -0.18 -0.35 -0.36 -0.53 -0.54 l 0.4 -0.59 c 0.79 -1.16 2.11 -2.34 3.25 -2.89 c 2.45 -1.09 5.19 -0.98 7.26 -0.02 c 2.18 1.01 3.76 2.76 4.44 4.91 c 0.38 1.2 0.45 3.29 0.15 4.41 c -0.74 2.75 -2.77 4.8 -5.52 5.58 c -1.11 0.29 -2.12 0.4 -3.12 0.29 m 7.57 -7 c 0.33 -2.92 -1.2 -5.66 -3.88 -6.95 c -1.1 -0.53 -1.89 -0.71 -3.2 -0.7 c -1.3 0 -2 0.14 -2.94 0.57 c -0.89 0.42 -1.63 0.96 -2.17 1.6 c -0.7 0.82 -0.56 0.85 0.8 0.2 c 1.71 -0.75 3.41 -1.02 4.95 -0.51 c 2.5 0.84 4.05 2.84 4.05 5.23 c 0 1.35 -0.48 2.52 -1.41 3.43 c -0.82 0.8 -1.78 1.19 -2.95 1.19 c -1.61 0 -2.89 -0.8 -3.4 -2.14 c -0.38 -0.98 -0.29 -1.96 0.3 -3.11 c 0.35 -0.67 0.3 -0.88 -0.12 -0.58 c -0.31 0.21 -0.88 0.87 -1.07 1.23 c -0.58 1.11 -0.47 2.85 0.25 4.06 c 0.64 1.06 2 1.97 3.3 2.2 c 3.75 0.53 7.08 -2.87 7.47 -5.72 m -5.46 2.53 c 0.22 -0.16 0.55 -0.48 0.48 -0.61 c -0.05 -0.09 -0.27 -0.23 -0.63 -0.54 c -0.13 -0.25 0.6 -0.61 0.37 -1.7 c -0.24 -0.79 -1.21 -1.37 -2 -1.19 c -0.69 0.15 -1.35 0.65 -1.66 1.24 c -0.59 1.14 0.15 2.72 1.46 3 c 0.72 0.15 1.49 0.17 1.99 -0.2 m -7.32 -0.94 c 0.01 -0.41 0.29 -1.84 0.42 -2.2 c 0.68 -1.77 2.32 -2.91 4.22 -2.91 c 1.32 -0.01 2.42 0.44 3.58 1.44 c 0.36 0.32 0.7 0.58 0.73 0.58 c 0.2 0 0.15 -0.24 -0.14 -0.82 c -0.44 -0.88 -1.16 -1.56 -2.1 -2 c -0.85 -0.39 -1.38 -0.51 -2.31 -0.5 c -0.88 0 -1.64 0.2 -2.38 0.6 c -1.35 0.74 -2.31 2.1 -2.52 3.57 c -0.13 0.84 0.12 2.3 0.38 2.3 c 0.07 0 0.13 -0.03 0.13 -0.06" style="fill:#fff"/></svg>