<svg xmlns="http://www.w3.org/2000/svg" viewBox="0 0 24 24"><path d="m 7.54 22.87 c 29.2 9 14.59 -39.4 -5.41 -16.77 c -4 4.54 -2.46 14.34 5.41 16.77" style="fill:#0094ef"/><g transform="matrix(0.093 0 0 0.094 81 -6.83)" style="fill:none;stroke:#fff;stroke-linecap:round"><path d="m -720.4 206.6 c 0 12.44 -10 22.5 -22.46 22.54 c -12.38 0 -22.5 -10 -22.54 -22.41 c -0.04 -12.44 9.95 -22.54 22.38 -22.62 c 12.42 -0.04 22.54 9.93 22.63 22.33" style="stroke-width:15"/><path d="m -778.1 171.4 c 14.22 -14.23 35.68 -18.49 54.3 -10.81 c 18.61 7.72 30.74 25.88 30.74 46 c 0 20.2 -12.1 38.3 -30.74 46 c -18.61 7.68 -40.1 3.42 -54.3 -10.81" style="stroke-width:15.33"/><path d="m -688.2 261.3 c -9.58 9.6 -21.54 16.49 -34.63 19.99" style="stroke-width:15.45"/><path d="m -791 219.5 c -2.26 -8.47 -2.26 -17.36 0 -25.84" style="stroke-width:15.33"/><g style="stroke-width:15.45"><path d="m -817.5 226.6 c -3.51 -13.1 -3.51 -26.92 0 -40"/><path d="m -722.9 132 c 13.1 3.51 25.1 10.43 34.67 19.99"/></g></g><path d="m 23.7 22.86 v -8.59 c 0 -0.47 -0.37 -0.86 -0.83 -0.86 h -6.3 c -0.46 0 -0.83 0.38 -0.83 0.86 v 8.59 c 0 0.47 0.37 0.86 0.83 0.86 h 6.3 c 0.46 0 0.83 -0.39 0.83 -0.86" style="fill-opacity:0.2"/><path d="m 23.7 22.68 v -8.59 c 0 -0.47 -0.37 -0.86 -0.83 -0.86 h -6.3 c -0.46 0 -0.83 0.39 -0.83 0.86 v 8.59 c 0 0.47 0.37 0.86 0.83 0.86 h 6.3 c 0.46 0 0.83 -0.38 0.83 -0.86" style="fill:#8e8e8e"/><path d="m 19.72 14.7 c -1.4 0 -2.54 1.15 -2.54 2.57 v 2.58 h 2.54 c 1.4 0 2.53 -1.15 2.53 -2.58 c 0 -1.42 -1.13 -2.57 -2.53 -2.57 m 0 1.47 c 0.6 0 1.08 0.49 1.08 1.1 c 0 0.61 -0.48 1.11 -1.08 1.11 c -0.6 0 -1.09 -0.5 -1.09 -1.11 c 0 -0.61 0.48 -1.1 1.09 -1.1" style="fill-opacity:0.5"/><path d="m 16.46 13.22 c -0.4 0 -0.72 0.33 -0.72 0.73 v 0.19 c 0 -0.41 0.32 -0.74 0.72 -0.74 h 6.51 c 0.4 0 0.72 0.33 0.72 0.74 v -0.19 c 0 -0.41 -0.32 -0.73 -0.72 -0.73" style="fill:#fff;fill-opacity:0.2"/><path d="m 20.84 12.78 c 0.08 0 0.2 -0.13 0.2 -0.29 v -2.97 h -2.59 v 2.97 c 0 0.16 0.12 0.29 0.2 0.29" style="fill:#b90c0c"/><path d="m 21.65 9.59 c 0.02 0 0.34 0 0.02 -0.38 l -1.71 -1.98 c -0.07 -0.07 -0.13 -0.11 -0.21 -0.11 c -0.08 0 -0.15 0.04 -0.21 0.11 l -1.71 1.98 c -0.32 0.38 0 0.38 0.02 0.38 h 1.91" style="fill:#ef2c2c;fill-rule:evenodd"/><g style="fill:#464646"><path d="m 17.1 14.25 c 0 0.25 -0.2 0.44 -0.44 0.44 c -0.24 0 -0.44 -0.2 -0.44 -0.44 c 0 -0.24 0.2 -0.44 0.44 -0.44 c 0.24 0 0.44 0.2 0.44 0.44"/><path d="m 23.31 14.31 c 0 0.25 -0.2 0.45 -0.44 0.45 c -0.24 0 -0.44 -0.2 -0.44 -0.45 c 0 -0.24 0.2 -0.44 0.44 -0.44 c 0.25 0 0.44 0.2 0.44 0.44"/><path d="m 23.2 22.64 c 0 0.24 -0.2 0.44 -0.44 0.44 c -0.24 0 -0.44 -0.2 -0.44 -0.44 c 0 -0.24 0.2 -0.44 0.44 -0.44 c 0.24 0 0.44 0.2 0.44 0.44"/><path d="m 17.2 22.71 c 0 0.25 -0.2 0.44 -0.45 0.44 c -0.24 0 -0.44 -0.2 -0.44 -0.44 c 0 -0.24 0.2 -0.44 0.44 -0.44 c 0.25 0 0.45 0.2 0.45 0.44"/></g></svg>