<svg xmlns="http://www.w3.org/2000/svg" viewBox="0 0 24 24"><path d="m 21.37 4.42 c 11.16 14.34 -16.64 29.2 -20.71 11.48 c -4.17 -11.18 12.43 -22.1 20.71 -11.48" style="fill:#fc2f28"/><path d="m 15.65 6 c -0.34 0.08 -0.66 0.29 -0.98 0.41 c -1.23 0.44 -2.44 0.94 -3.64 1.46 c -0.34 0.14 -0.67 0.3 -1.01 0.44 c -0.19 0.07 -0.39 0.18 -0.45 0.41 c -0.14 0.64 0.36 0.98 0.74 1.36 c 0.33 0.32 0.63 0.73 0.83 1.15 c 0.42 0.86 0.5 1.71 0.44 2.66 c -0.02 0.25 -0.09 0.52 -0.16 0.75 c -0.04 0.13 -0.12 0.29 -0.08 0.43 c 0.05 0.15 0.27 0.24 0.39 0.33 c 0.34 0.23 0.68 0.46 1 0.7 c 0.27 0.19 0.54 0.38 0.81 0.56 c 0.11 0.08 0.23 0.19 0.38 0.15 c 0.16 -0.04 0.29 -0.28 0.38 -0.41 c 0.27 -0.38 0.54 -0.77 0.82 -1.15 c 0.94 -1.31 1.86 -2.63 2.8 -3.94 c 0.24 -0.34 0.49 -0.68 0.73 -1.03 c 0.12 -0.17 0.28 -0.36 0.29 -0.57 c 0.02 -0.33 -0.17 -0.69 -0.25 -1 c -0.11 -0.39 -0.2 -0.89 -0.39 -1.24 c -0.13 -0.21 -0.36 -0.38 -0.54 -0.54 c -0.61 -0.6 -1.21 -1.14 -2.11 -0.92 m -2.4 0.38 v -0.06 c -0.53 -0.28 -0.94 -0.05 -1.45 0.16 c -0.56 0.23 -1.12 0.45 -1.68 0.68 c -1.13 0.48 -2.27 0.96 -3.41 1.38 c -0.34 0.13 -0.67 0.27 -1 0.41 c -0.19 0.07 -0.4 0.13 -0.54 0.3 c -0.5 0.64 -0.46 1.84 -0.38 2.61 c 0.13 1.34 0.98 2.79 1.87 3.72 c 0.24 0.26 0.5 0.51 0.81 0.69 c 0.09 0.05 0.23 0.16 0.34 0.1 c 0.1 -0.06 0.21 -0.33 0.15 -0.45 c -0.07 -0.14 -0.29 -0.23 -0.4 -0.32 c -0.23 -0.2 -0.42 -0.43 -0.59 -0.68 c -0.94 -1.39 -1.43 -3.46 -0.79 -5.09 c 0.13 -0.31 0.29 -0.73 0.55 -0.95 c 0.42 -0.35 1.17 -0.47 1.67 -0.66 c 1.61 -0.62 3.25 -1.2 4.86 -1.84 m 2.77 -0.23 c 0.61 -0.04 1.1 0.55 1.53 0.92 c 0.1 0.09 0.49 0.33 0.4 0.51 c -0.05 0.11 -0.25 0.16 -0.35 0.21 c -0.3 0.15 -0.62 0.29 -0.92 0.45 c -1 0.51 -2 1 -3.04 1.47 c -0.34 0.16 -0.84 0.54 -1.21 0.56 c -0.19 0.01 -0.26 -0.39 -0.33 -0.52 c -0.25 -0.46 -0.61 -0.84 -1.03 -1.13 c -0.08 -0.05 -0.46 -0.22 -0.36 -0.36 c 0.08 -0.1 0.27 -0.14 0.38 -0.19 c 0.34 -0.15 0.68 -0.29 1.01 -0.43 c 0.73 -0.31 1.46 -0.63 2.2 -0.95 c 0.57 -0.25 1.08 -0.5 1.71 -0.54 m -8.41 3.11 v 0.03 c 0.39 -0.04 0.78 -0.09 1.16 -0.16 c 0.12 -0.02 0.32 0 0.41 -0.11 c 0.09 -0.1 0.05 -0.29 0.02 -0.4 l -1.59 0.63 m 9.94 0.29 c 0.33 -0.09 0.38 0.35 0.24 0.56 c -0.75 1.16 -1.66 2.22 -2.48 3.33 c -0.2 0.27 -0.4 0.55 -0.6 0.82 c -0.09 0.12 -0.18 0.26 -0.34 0.27 c -0.32 0.02 -0.49 -0.41 -0.32 -0.66 c 0.36 -0.57 0.84 -1.09 1.27 -1.6 c 0.44 -0.53 0.84 -1.1 1.27 -1.63 c 0.23 -0.28 0.6 -0.98 0.96 -1.07 m -9 0.51 c -1.05 0.15 -1.64 1.34 -1.51 2.38 c 0.2 1.57 1.28 3.35 3 3.05 c 1 -0.18 1.36 -1.25 1.36 -2.17 c 0 -1.57 -1.16 -3.5 -2.86 -3.26 m 0.95 0.41 v 0.06 c -0.46 0.14 -0.83 0.02 -1.2 0.46 c -1.07 1.28 0.02 3.65 1.55 3.84 c 0.34 0.04 0.57 -0.15 0.86 -0.26 v -0.03 c -1.38 0 -2.23 -1.56 -1.95 -2.88 c 0.1 -0.51 0.66 -1.27 1.2 -0.91 c -0.07 0.14 -0.21 0.14 -0.35 0.21 c -0.16 0.07 -0.29 0.2 -0.39 0.34 c -0.52 0.7 -0.23 1.83 0.34 2.41 c 0.27 0.28 0.63 0.56 1.04 0.55 c 0.09 0 0.38 -0.12 0.38 0.04 c 0.01 0.21 -0.25 0.5 -0.38 0.61 c -0.57 0.5 -1.23 0.41 -1.85 0.07 c -1.04 -0.57 -1.56 -1.96 -1.44 -3.14 c 0.13 -1.2 1.18 -1.77 2.2 -1.36 m -1.13 5.44 c -0.19 0.09 -0.02 0.73 0.12 0.82 c 0.1 0.07 0.28 0.04 0.39 0.04 c 0.33 0 0.69 -0.06 1 -0.03 c 0.3 0.03 0.61 0.38 0.84 0.57 c 0.13 0.1 0.46 0.48 0.63 0.39 c 0.09 -0.04 0.14 -0.18 0.18 -0.27 c 0.05 -0.11 0.19 -0.29 0.17 -0.43 c -0.04 -0.22 -0.53 -0.45 -0.69 -0.57 c -0.25 -0.17 -0.52 -0.45 -0.81 -0.54 c -0.33 -0.1 -0.78 -0.02 -1.13 -0.02 c -0.21 0 -0.54 -0.06 -0.72 0.02 m 0.8 1.44 c -0.21 0.03 -0.62 -0.07 -0.8 0.05 c -0.11 0.07 -0.09 0.25 -0.11 0.36 c -0.04 0.27 -0.11 0.54 -0.15 0.82 c -0.02 0.09 -0.1 0.29 0 0.36 c 0.11 0.08 0.35 0.02 0.48 0.04 c 0.4 0.05 0.79 0.04 1.19 0.05 c 0.15 0 0.31 0.07 0.46 0.05 c 0.26 -0.03 0.53 -0.55 0.67 -0.75 c 0.06 -0.08 0.16 -0.2 0.11 -0.3 c -0.07 -0.14 -0.32 -0.23 -0.44 -0.3 c -0.49 -0.29 -0.84 -0.46 -1.41 -0.39" style="fill:#fffafa"/></svg>