<svg xmlns="http://www.w3.org/2000/svg" viewBox="0 0 24 24"><path d="m 12.23 0.12 c -2.48 0.2 -5.37 1.38 -7.39 3 c -2.45 2 -4.25 5.06 -4.73 8.1 c -0.57 3.99 1.74 8.28 4.36 10.31 c 1.31 0.99 3.05 1.78 4.69 2.13 c 4.25 0.9 8.68 -0.8 11.72 -4.5 c 1.82 -2.21 2.76 -4.45 2.99 -7.09 c 0.28 -3.16 -0.98 -6.56 -3.26 -8.85 c -2.6 -2.16 -5.28 -3.32 -8.36 -3.11" style="fill:#4f4f4f"/><g style="fill:#fff"><path d="m 9.72 17 c -0.5 -0.11 -1.66 -0.5 -2 -0.68 c -0.43 -0.22 -1.25 -0.85 -1.3 -1 c -0.02 -0.05 0.04 -0.09 0.14 -0.09 c 0.1 0 0.24 -0.05 0.32 -0.11 c 0.13 -0.09 0.14 -0.22 0.16 -1.8 c 0.02 -0.93 0 -1.93 -0.02 -2.23 c -0.04 -0.47 -0.07 -0.54 -0.22 -0.61 c -0.48 -0.22 -1.32 0.44 -2.3 1.8 c -0.32 0.45 -0.62 0.82 -0.66 0.82 c -0.12 0 0.01 -0.84 0.21 -1.37 c 0.38 -1 0.89 -1.74 1.99 -2.84 c 0.71 -0.71 1.5 -1.32 2.15 -1.65 c 0.49 -0.25 1.12 -0.46 1.16 -0.39 c 0.02 0.03 -0.09 0.2 -0.24 0.38 c -0.4 0.46 -0.54 0.76 -0.53 1.17 c 0.01 0.44 0.11 0.63 0.38 0.72 l 0.21 0.07 v 5.28 l 0.24 0.15 c 0.32 0.2 0.65 0.19 1.1 -0.02 c 0.62 -0.29 0.59 -0.13 0.57 -2.75 l -0.02 -2.31 l -0.22 -0.3 c -0.12 -0.17 -0.22 -0.33 -0.22 -0.36 c 0 -0.09 0.37 -0.08 0.63 0.01 c 0.21 0.07 0.26 0.05 0.85 -0.4 c 0.35 -0.26 0.95 -0.63 1.33 -0.81 c 0.66 -0.32 1.26 -0.48 1.25 -0.34 c 0 0.04 -0.29 0.47 -0.65 0.96 c -0.64 0.9 -0.65 0.9 -0.7 1.45 c -0.03 0.3 -0.06 1.42 -0.06 2.48 c -0.01 2.14 0 2.17 0.44 2.17 c 0.32 0 0.64 -0.13 1.11 -0.47 c 0.21 -0.15 0.4 -0.25 0.42 -0.23 c 0.07 0.07 -0.34 0.7 -0.83 1.28 c -0.54 0.63 -1.09 1.17 -1.49 1.44 c -0.32 0.22 -0.41 0.2 -1.03 -0.27 c -0.21 -0.16 -0.43 -0.29 -0.5 -0.29 c -0.06 0 -0.39 0.26 -0.74 0.58 c -0.35 0.32 -0.67 0.58 -0.72 0.57 c -0.05 -0.01 -0.16 -0.02 -0.24 -0.04"/><path d="m 15.1 17.2 l 0.04 1.45 l 1.43 -0.32 l 3.52 -4.48 l -1.47 -1.13 m 2.7 -0.44 c 0.15 -0.19 0.14 -0.43 -0.01 -0.55 l -0.92 -0.71 c -0.15 -0.12 -0.39 -0.07 -0.54 0.12 l -0.73 0.93 l 1.47 1.13"/></g><path d="m 15.17 18.65 l -0.04 -1.45 l 1.47 1.13" style="fill:#7f7f7f"/><path d="m 15.17 18.65 l -0.02 -0.6 l 0.6 0.47" style="fill:#fff"/></svg>