<svg xmlns="http://www.w3.org/2000/svg" viewBox="0 0 24 24"><path d="m 23 9.74 c -2.39 -16 -26.97 -10.54 -22.32 4.95 c 3.12 14.72 28.3 10.73 22.32 -4.95" style="fill:#2d84c5"/><g style="fill:#fff;fill-rule:evenodd"><path d="m 12.49 5.54 c 0.15 0.07 0.25 0.19 0.32 0.32 l 6 12.1 c -3.34 -1.25 -5.56 -1.86 -6.65 -1.86 c -1.09 0 -3.31 0.61 -6.65 1.86 l 6 -12.1 c 0.17 -0.36 0.61 -0.51 0.97 -0.32" style="fill-opacity:0.61"/><path d="m 12.49 5.54 c 0.15 0.07 0.25 0.19 0.32 0.32 l 1.5 3.04 l -8.81 9.1 l 6 -12 c 0.17 -0.36 0.61 -0.51 0.97 -0.32"/><path d="m 5.44 17.93 l 10.98 -4.69 l -2.17 -4.36" style="fill-opacity:0.47"/></g></svg>