<svg xmlns="http://www.w3.org/2000/svg" viewBox="0 0 24 24"><path d="m 11.7 23.87 c -2.46 -0.19 -5.29 -1.37 -7.21 -3 c -2.34 -2 -3.96 -5.06 -4.26 -8.1 c -0.34 -3.99 2.23 -8.28 4.96 -10.31 c 1.37 -0.99 3.16 -1.78 4.81 -2.13 c 4.3 -0.9 8.63 0.8 11.45 4.5 c 1.69 2.21 2.5 4.45 2.58 7.09 c 0.09 3.17 -1.36 6.56 -3.79 8.85 c -2.73 2.16 -5.47 3.32 -8.54 3.1" style="fill:#dbe4ec"/><path d="m 7.54 5.68 h 9.25 c 1 0 1.82 0.69 1.82 1.54 v 9.93 c 0 0.85 -0.82 1.53 -1.82 1.53 h -9.25 c -1 0 -1.82 -0.68 -1.82 -1.53 v -9.93 c 0 -0.85 0.82 -1.54 1.82 -1.54" style="fill:#8bb9e6"/><path d="m 9.93 18.64 c -0.02 -0.66 0.11 -1.35 0.09 -2 c -0.73 0 -1.45 0 -2.18 0 l -0.03 1 c -0.03 0.99 0.09 1 -0.27 1 c -0.61 0 -1.08 -0.11 -1.52 -0.74 c -0.25 -0.36 -0.34 -1.2 -0.24 -1.35 c 0.03 -0.05 0.49 0.04 1.03 0.04 h 0.98 c 0 -0.71 0 -1.43 0 -2.14 c -0.67 -0.02 -1.02 0.01 -2.07 0.04 c 0 -0.72 0.05 -1.61 0.05 -2.33 c 0.67 -0.02 1.35 0.04 2 0.02 c 0 -0.71 0 -1.42 0 -2.13 c -0.67 -0.02 -1.35 -0.02 -2 -0.04 c 0 -0.68 -0.02 -1.52 -0.02 -2.2 c 0.67 -0.02 1.37 0.09 2.04 0.07 c 0.07 -0.46 -0.06 -2.14 0.13 -2.12 c 0.13 -0.13 1.51 -0.07 2 -0.09 c 0.14 0 0.14 0.38 0.14 1.21 v 1.02 c 0.47 -0.02 0.93 -0.04 1.4 -0.06 c 0.08 -0.44 -0.1 -1.8 0.18 -2.08 c 0.08 -0.07 1.09 -0.07 2.82 -0.03 c 2.48 0.07 2.96 -0.03 3.36 0.18 c 0.54 0.28 0.69 0.88 0.82 1.47 c 0.15 0.64 0.15 9.23 0 9.78 c -0.15 0.55 -0.45 1.04 -0.91 1.29 c -0.56 0.32 -0.82 0.17 -3.33 0.21 c -1.61 0 -3 0.07 -4.5 0 m 1.54 -4.16 l -0.7 -0.03 l -0.7 -0.03 v 2.16 h 1.46 c -0.02 -0.7 -0.04 -1.4 -0.06 -2.1 m -1.47 -0.97 c -0.04 -1.42 0.41 -1.31 -0.77 -1.3 l -1.39 0.02 l -0.03 0.97 c -0.02 0.53 -0.01 1.03 0.02 1.1 c 0.04 0.11 0.29 0.13 1.12 0.11 l 1.06 -0.03 m 1.43 -4.35 c 0 -0.02 -0.57 0 -0.86 0 h -0.52 c 0 0.38 0 0.76 0 1.14 c 0.34 -0.37 1.08 -0.74 1.38 -1.14 m -1.37 -2.16 c -0.75 0.02 -1.49 0.04 -2.23 0.06 l -0.03 0.91 c -0.02 0.5 -0.03 1.1 0 1.18 c 0.59 0.07 1.27 -0.02 2.21 -0.04 c 0.02 -0.7 0.04 -1.41 0.06 -2.11" style="fill:#5b9cd9"/><g style="fill:#364662"><path d="m 11.5 5.66 h 1.4 v 12.97 h -1.4"/><path d="m 14.53 12.36 c 0 1.3 -1.06 2.36 -2.36 2.36 c -1.31 0 -2.37 -1.06 -2.36 -2.36 c 0 -1.31 1.05 -2.37 2.36 -2.37 c 1.3 0 2.36 1.06 2.36 2.37"/></g><g style="fill:#fff"><path d="m 12.89 11.1 c 0.15 0 1.23 1.14 1.23 1.3 c 0 0.17 -1.06 1.16 -1.22 1.16 c 0.02 -0.75 0 -1.68 -0.01 -2.46"/><path d="m 11.52 11.1 c -0.15 0 -1.23 1.14 -1.23 1.3 c 0 0.16 1.06 1.16 1.23 1.16 c -0.02 -0.75 0 -1.68 0.01 -2.47"/></g></svg>