<svg xmlns="http://www.w3.org/2000/svg" viewBox="0 0 24 24"><path d="m 20.48 4.5 c 14.97 21.28 -23.97 28.1 -20.1 5.44 c 2.05 -8.99 14.1 -13.97 20.1 -5.44" style="fill:#f00"/><path d="m 10.16 21.1 c -0.06 -0.09 -0.2 -0.41 -0.31 -0.7 c -0.12 -0.79 -0.31 -0.57 -0.83 -0.71 c -0.73 -0.2 -0.83 -0.28 -0.9 -0.71 c -0.07 -0.47 -0.16 -0.52 -0.96 -0.52 c -0.46 0 -0.72 -0.03 -0.77 -0.07 c -0.04 -0.04 -0.07 -0.24 -0.07 -0.43 c 0 -0.54 0.12 -1.62 0.2 -1.77 c 0.04 -0.07 0.89 -0.97 1.89 -2 c 1.71 -1.77 2.23 -2.35 2.14 -2.45 c -0.07 -0.06 -0.46 0.27 -1.58 1.36 c -1.69 1.63 -2.04 1.9 -3.42 2.6 c -1.17 0.59 -2.03 0.96 -2.2 0.94 c -0.18 -0.03 -0.27 -0.23 -0.45 -0.99 c -0.19 -0.79 0.42 -0.95 -0.61 -1.4 c -0.23 -0.1 -0.29 -0.41 -0.29 -0.46 c 0 -0.05 0.15 -0.3 0.34 -0.56 c 0.38 -0.53 0.41 -0.7 0.25 -1.33 c -0.16 -0.6 -0.13 -0.73 0.22 -1.09 c 0.26 -0.23 0.32 -0.27 0.21 -0.59 c -0.05 -0.15 -0.09 -0.44 -0.09 -0.64 c 0 -0.43 0.08 -0.53 0.76 -0.94 c 0.23 -0.14 0.73 -0.13 0.76 -0.2 c 0.03 -0.07 -0.2 -0.51 -0.16 -0.75 c 0.09 -0.56 0.18 -0.65 1.04 -1.06 c 0.63 -0.29 0.64 -0.31 0.93 -0.74 c 0.33 -0.51 0.39 -0.53 1.08 -0.39 l 0.43 0.09 l 0.39 -0.37 c 0.46 -0.43 0.55 -0.45 1.13 -0.21 c 0.34 0.14 0.31 0.52 0.77 0.12 c 0.55 -0.47 0.72 -0.08 0.78 0.13 c 0.18 0.64 0.31 1.6 0.45 3.15 c 0.15 1.73 0.22 2.21 0.34 2.28 c 0.23 0.14 0.74 -0.46 0.91 -1.08 c 0.07 -0.23 0.19 -0.76 0.28 -1.17 c 0.28 -1.3 0.61 -2 1.45 -3.07 c 0.45 -0.56 0.5 -0.58 0.92 -0.39 l 0.26 0.12 c 0.28 -0.15 0.57 -0.45 0.89 -0.48 c 0.25 0.13 0.35 0.38 0.5 0.62 c 0.14 0.23 0.18 0.26 0.68 0.38 c 0.46 0.12 1.2 0.39 1.29 0.48 c 0.03 0.04 0.11 0.25 0.16 0.49 c 0.1 0.4 0.11 0.42 0.32 0.47 c 0.75 0.19 0.72 0.15 0.77 0.76 c 0.06 0.73 0.07 0.75 0.31 0.84 c 0.44 0.16 1.02 0.46 1.05 0.54 c 0.02 0.05 -0.07 0.33 -0.19 0.62 c -0.3 0.56 -0.16 0.81 0.18 1.21 c 0.22 0.26 0.4 0.5 0.4 0.55 c 0 0.05 -0.11 0.3 -0.25 0.58 c -0.28 0.45 -0.25 0.67 0.02 1.04 c 0.44 0.6 0.44 0.59 0.22 1.02 c -0.16 0.31 -0.18 0.45 -0.18 0.82 c 0 0.44 0 0.45 -0.29 0.77 c -0.92 0.16 -0.34 0.44 -0.56 1.1 c -0.29 0.82 -0.48 1.18 -0.63 1.18 c -0.05 0 -0.34 -0.16 -0.63 -0.37 c -0.39 -0.27 -0.65 -0.39 -0.95 -0.47 c -0.49 -0.13 -0.46 -0.11 -2.24 -1.67 c -1.52 -1.34 -1.67 -1.5 -2.42 -2.56 c -0.7 -0.99 -1.38 -1.86 -1.45 -1.86 c -0.1 0 -0.06 0.25 0.09 0.55 c 0.08 0.16 0.41 0.63 0.72 1.04 c 0.79 1.04 1.14 1.62 2.1 3.54 c 0.13 0.52 1.05 1.4 0.7 1.84 c -0.33 0.41 -0.41 0.59 -0.52 1.14 c -0.16 0.77 -0.17 0.78 -0.82 0.68 c -0.76 -0.12 -1.02 -0.06 -1.42 0.32 l -0.33 0.31 h -0.58 l -0.75 -0.39 l -0.44 0.74 c -0.2 0.33 -0.67 0.34 -0.73 0.34 c -0.07 0 -0.18 -0.08 -0.25 -0.17" style="fill:#007f7f"/><g style="fill:#fff"><path d="m 14.34 19.25 c -0.05 -0.04 -0.23 -0.2 -0.41 -0.36 c -0.32 -0.29 -0.49 -0.39 -0.52 -0.29 c -0.02 0.07 -0.26 0.33 -0.34 0.38 c -0.05 0.03 -0.08 0.03 -0.13 -0.02 c -0.07 -0.08 -0.04 -0.23 0.14 -0.54 c 0.14 -0.23 0.15 -0.29 0.16 -0.55 c 0.01 -0.16 0 -0.35 -0.01 -0.42 c -0.02 -0.13 -0.04 -0.14 -0.28 -0.19 c -0.19 -0.04 -0.23 -0.13 -0.14 -0.31 c 0.14 -0.27 0.07 -0.9 -0.14 -1.18 c -0.06 -0.09 -0.22 -0.35 -0.35 -0.59 c -0.25 -0.45 -0.7 -0.98 -0.82 -0.98 c -0.04 0 -0.09 0.05 -0.12 0.14 c -0.09 0.22 -0.31 1.4 -0.29 1.54 c 0.01 0.07 0.09 0.25 0.18 0.41 c 0.2 0.34 0.24 0.53 0.15 0.62 c -0.08 0.09 -0.13 0.07 -0.23 -0.1 c -0.09 -0.14 -0.16 -0.17 -0.2 -0.09 c -0.02 0.02 -0.04 0.26 -0.06 0.53 c -0.02 0.27 -0.05 0.56 -0.07 0.64 c -0.04 0.14 -0.13 0.21 -0.26 0.18 c -0.05 -0.02 -0.06 -0.07 -0.06 -0.59 c 0 -0.32 -0.01 -0.6 -0.02 -0.63 c -0.07 -0.19 -0.32 0.03 -0.73 0.64 c -0.13 0.19 -0.78 0.98 -0.79 0.96 c -0.22 -0.36 0.49 -1.06 0.55 -1.2 c 0.03 -0.07 0.27 -0.36 0.53 -0.64 c 0.26 -0.28 0.5 -0.56 0.52 -0.63 c 0.03 -0.07 0.06 -0.23 0.07 -0.36 c 0.03 -0.28 0.13 -0.76 0.23 -1.13 c 0.05 -0.21 0.06 -0.26 0.02 -0.27 c -0.08 -0.03 -0.35 0.06 -0.5 0.17 c -0.18 0.13 -1.53 1.29 -1.66 1.27 c -0.39 -0.06 1.15 -1.43 1.68 -1.73 c 0.36 -0.21 0.57 -0.4 0.65 -0.6 c 0.07 -0.18 0.18 -0.75 0.25 -1.34 c 0.09 -0.71 0.09 -0.96 0.29 -0.96 c 0.1 0 0.16 0.32 0.16 0.34 c 0 0.06 -0.18 1.54 -0.22 1.82 c -0.03 0.18 -0.03 0.29 0 0.36 c 0.02 0.05 0.19 0.27 0.38 0.48 c 0.71 0.81 1.07 1.32 1.07 1.52 c 0 0.17 0.19 0.58 0.33 0.7 c 0.13 0.11 0.18 0.11 0.4 -0.05 c 0.17 -0.11 0.21 -0.08 0.3 0.18 c 0.06 0.2 0.14 0.27 0.37 0.34 c 0.08 0.03 0.18 0.08 0.22 0.12 c 0.1 0.09 0.1 0.24 0 0.3 c -0.12 0.07 -0.48 0.01 -0.75 -0.12 c -0.41 -0.2 -0.46 -0.16 -0.4 0.32 c 0.04 0.37 0.14 0.55 0.52 1 c 0.17 0.21 0.36 0.46 0.42 0.56 c 0.16 0.29 0.1 0.48 -0.11 0.33"/><path d="m 4 15.82 c -0.11 -0.3 0.23 -1.2 0.61 -1.62 c 0.34 -0.38 1.59 -1.43 1.84 -1.54 c 0.08 -0.04 0.13 -0.16 0.1 -0.24 c -0.01 -0.03 -0.06 -0.05 -0.13 -0.05 c -0.13 0 -1.52 0.27 -1.78 0.35 c -0.22 0.06 -0.51 0.27 -0.75 0.54 c -0.27 0.3 -0.26 0.47 0.04 0.57 c 0.2 0.06 0.33 0.18 0.31 0.27 c -0.02 0.09 -0.2 0.1 -0.39 0.01 c -0.14 -0.06 -0.29 -0.06 -0.43 -0.1 c -0.08 -0.04 -0.16 -0.2 -0.16 -0.32 c 0 -0.16 0.22 -0.5 0.52 -0.79 c 0.58 -0.56 0.6 -0.58 0.62 -0.71 c 0.05 -0.3 -0.27 -0.76 0.39 -0.08 c 0.3 0.24 1.18 0.05 1.64 -0.05 c 0.46 -0.08 0.98 -0.2 1.32 -0.37 c 0.73 -0.37 1.8 -0.75 2.33 -0.84 c 0.17 -0.02 0.32 -0.05 0.34 -0.07 c 0.05 -0.03 -0.04 -0.18 -0.19 -0.32 c -0.2 -0.19 -0.46 -0.36 -0.66 -0.42 c -0.18 -0.05 -1.68 -0.05 -1.71 -0.22 c -0.05 -0.27 1.17 -0.32 1.77 -0.18 c 0.05 0.01 0.21 0.13 0.37 0.25 c 0.3 0.24 0.66 0.47 0.76 0.47 c 0.05 0 0.05 -0.02 0.03 -0.11 c -0.09 -0.43 -0.55 -1.77 -0.76 -2.18 c -0.19 -0.39 -0.46 -0.64 -0.62 -0.57 c -0.15 0.18 -0.15 0.66 -0.36 0.66 c -0.24 0 -0.28 -0.22 -0.12 -0.63 c 0.13 -0.3 0.33 -0.54 0.47 -0.54 c 0.21 0 0.52 0.26 0.77 0.65 c 0.35 0.56 0.87 1.87 0.87 2.2 c 0 0.2 0.08 0.6 0.16 0.82 c 0.04 0.1 0.06 0.19 0.06 0.19 c -0.62 0.76 -0.62 0.13 -0.83 0.26 c -0.41 0.17 -0.89 0.22 -1.23 0.35 c -0.19 0.07 -0.41 0.15 -0.48 0.17 c -0.27 0.07 -1.3 0.72 -2.09 1.33 c -0.92 0.71 -1.89 1.6 -2.06 1.89 c -0.04 0.08 -0.09 0.21 -0.1 0.29 c -0.04 0.28 -0.29 0.73 -0.39 0.73 c -0.03 0 -0.05 -0.02 -0.07 -0.05"/><path d="m 19.93 16.87 c -0.3 -0.42 -0.34 -0.52 -0.44 -0.9 c 0.04 -0.39 0.02 -0.54 -0.08 -0.58 c -0.07 -0.03 -0.24 0.11 -0.32 0.26 c -0.13 0.26 -0.06 0.55 0.23 0.89 c 0.21 0.21 0.03 0.16 -0.13 0.14 c -0.27 -0.04 -0.29 -0.05 -0.46 -0.38 c -0.15 -0.29 -0.14 -0.5 0.05 -0.75 c 0.17 -0.23 0.38 -0.67 0.38 -0.81 c 0 -0.32 -0.22 -0.55 -0.91 -0.97 c -0.6 -0.36 -0.91 -0.59 -1.33 -0.95 c -0.52 -0.5 -1.23 -0.78 -1.81 -1.02 c -0.41 -0.16 -1.38 -0.39 -1.99 -0.46 c -0.48 -0.34 -0.97 -0.32 -0.85 -0.57 c 0.09 -0.18 0.65 -0.14 0.7 -0.43 c 0.04 -0.22 0.05 -0.24 0.27 -0.47 c 0.28 -0.29 0.39 -0.45 0.7 -0.96 c 0.32 -0.54 0.51 -1 0.59 -1.38 c 0.04 -0.18 0.12 -0.44 0.2 -0.61 c 0.12 -0.26 0.13 -0.32 0.17 -0.72 c 0.04 -0.47 0.09 -0.65 0.19 -0.65 c 0.13 0 0.19 0.12 0.18 0.36 c -0.01 0.27 0.03 0.28 0.3 0.01 c 0.18 -0.25 0.56 -0.48 0.58 -0.13 l -0.25 0.3 c -0.54 0.65 -0.98 1.29 -0.92 1.35 c 0.04 0.05 0.36 -0.15 0.76 -0.48 c 0.22 -0.18 0.51 -0.39 0.66 -0.48 c 0.22 -0.14 0.27 -0.16 0.32 -0.12 c 0.04 0.02 0.06 0.05 0.06 0.05 c 0 0.02 -0.73 0.72 -1.02 0.97 c -0.12 0.11 -0.34 0.28 -0.49 0.39 c -0.39 0.28 -0.51 0.43 -0.77 0.93 c -0.2 0.38 -0.37 0.66 -0.77 1.26 c -0.12 0.18 -0.11 0.22 0.03 0.22 c 0.14 0 0.6 -0.25 1.26 -0.7 c 0.82 -0.81 1.16 -1.55 1.94 -2.27 c 0.21 -0.2 0.49 -0.14 0.97 -0.27 c 0.39 -0.11 0.54 -0.08 0.54 0.07 c 0 0.04 0.03 0.12 0.07 0.18 c 0.12 0.19 -0.12 0.15 -0.23 0.15 c -0.36 0 -1.15 0.15 -1.34 0.26 c -0.45 0.37 -0.68 0.9 -1 1.37 c -0.08 0.11 -0.14 0.22 -0.14 0.23 c 0 0.02 0.58 -0.01 1.05 -0.06 c 0.38 -0.04 0.55 -0.12 0.73 -0.33 c 0.28 -0.34 0.79 -0.65 1.13 -0.69 c 0.75 -0.34 0.89 -0.18 0.52 0.42 h -0.34 c -0.31 0 -0.36 0.01 -0.54 0.1 c -0.25 0.13 -0.55 0.43 -0.52 0.53 c 0.04 0.13 0.94 0.44 1.29 0.44 c 0.09 0 0.3 -0.02 0.46 -0.05 c 0.31 -0.06 0.56 -0.04 0.67 0.04 c 0.08 0.06 0.04 0.1 -0.24 0.18 c -0.37 0.11 -0.48 0.29 -0.29 0.48 c 0.12 0.12 0.16 0.25 0.09 0.32 c -0.06 0.06 -0.14 0.03 -0.38 -0.18 c -0.34 -0.28 -1.34 -0.7 -1.94 -0.81 c -0.44 -0.08 -1.34 -0.04 -1.8 0.07 c -0.24 0.06 -0.57 0.21 -1.09 0.52 c -0.22 0.13 -0.57 0.3 -0.77 0.4 c -0.49 0.22 -0.49 0.22 -0.44 0.3 c 0.08 0.13 0.25 0.19 0.59 0.2 c 0.41 0.02 0.61 -0.03 0.89 -0.2 c 0.23 -0.14 0.32 -0.16 0.38 -0.09 c 0.05 0.06 0.02 0.13 -0.14 0.3 c -0.2 0.2 -0.14 0.31 0.18 0.38 c 0.1 0.02 0.45 0.16 0.76 0.3 c 0.47 0.21 0.61 0.26 0.74 0.26 c 0.19 0 0.88 -0.2 1.3 -0.37 c 0.39 -0.16 0.51 -0.17 0.93 -0.07 c 0.4 0.1 0.72 0.11 1.43 0.05 c 0.49 -0.04 0.56 -0.03 0.58 0.1 c 0.01 0.07 -0.06 0.14 -0.44 0.36 c -0.38 0.23 -0.34 0.22 -0.68 0.11 c -0.49 -0.16 -0.67 -0.18 -1.18 -0.18 c -0.52 0 -0.9 0.07 -1.25 0.23 c -0.16 0.07 -0.17 0.09 -0.17 0.2 c 0 0.1 0.03 0.14 0.21 0.31 c 0.3 0.28 0.63 0.52 0.86 0.6 c 0.11 0.04 0.3 0.12 0.41 0.18 c 0.27 0.13 0.33 0.13 0.65 0 c 0.47 -0.18 0.75 -0.2 0.84 -0.05 c 0.05 0.08 -0.06 0.17 -0.33 0.25 c -0.26 0.08 -0.48 0.19 -0.48 0.24 c -0.01 0.14 0.04 0.31 0.23 0.84 c 0.13 0.36 0.24 0.7 0.26 0.85 c 0.31 1.07 0.08 2.05 -0.02 1.16"/><path d="m 3.99 9.87 c -0.04 -0.12 0.01 -0.22 0.14 -0.3 c 0.07 -0.04 0.22 -0.17 0.35 -0.27 c 0.34 -0.3 0.38 -0.31 0.91 -0.34 c 0.41 -0.02 0.49 -0.04 0.53 -0.1 c 0.06 -0.09 0.03 -0.27 -0.07 -0.38 c -0.31 -0.18 -0.55 -0.21 -0.88 -0.25 c -0.34 -0.22 -0.25 -0.48 0.13 -0.42 c 0.21 0 0.59 0.25 0.7 0.08 c 0.05 -0.29 -0.06 -0.63 0.1 -0.82 c 0 -0.02 0.28 0.2 0.33 0.21 c 0.07 0.03 0.16 0.02 0.38 -0.06 c 0.45 -0.15 0.56 -0.22 0.56 -0.35 c 0 -0.14 -0.09 -0.42 -0.16 -0.51 c -0.26 -0.59 0.21 -0.34 0.28 -0.21 c 0.11 0.18 0.24 0.55 0.24 0.65 c 0 0.16 0.12 0.26 0.54 0.48 c 0.32 0.17 0.41 0.23 0.41 0.3 c 0.01 0.06 -0.02 0.1 -0.08 0.13 c -0.08 0.04 -0.13 0.03 -0.32 -0.04 c -0.41 -0.16 -1.24 -0.17 -1.5 -0.02 c -0.25 0.14 -0.47 0.41 -0.54 0.67 c -0.03 0.11 -0.02 0.14 0.13 0.32 c 0.16 0.2 0.29 0.54 0.25 0.66 c -0.04 0.11 -0.21 0.11 -0.69 0.03 c -0.55 -0.1 -0.57 -0.1 -1.02 0.27 c -0.45 0.38 -0.67 0.46 -0.72 0.3"/><path d="m 4.36 11.32 c -0.07 -0.04 -0.51 -0.15 -0.32 -0.27 c 0.1 -0.06 0.84 -0.2 1.06 -0.2 c 0.31 0 0.32 0.09 0.03 0.32 c -0.21 0.16 -0.71 0.19 -0.77 0.15"/><path d="m 5.66 10.84 c -0.07 -0.08 0.1 -0.17 0.17 -0.27 c 0.06 -0.09 0.24 -0.11 0.34 -0.03 c 0.08 0.06 0.08 0.1 -0.03 0.23 c -0.1 0.13 -0.39 0.16 -0.48 0.07"/><path d="m 6.51 10.57 c -0.13 -0.13 0.2 -0.44 0.45 -0.44 c 0.08 0 0.4 -0.27 0.4 0.02 c 0 0.12 -0.45 0.34 -0.66 0.41 c -0.14 0.05 -0.16 0.05 -0.2 0.02"/><path d="m 15.22 13 c 0.03 -0.1 -0.01 -0.63 0.19 -0.45 c 0.1 0.09 0.27 0.65 0.59 1.12 c 0.21 0.3 0.01 0.39 -0.34 0.14 c -0.25 -0.18 -0.46 -0.74 -0.44 -0.81"/></g></svg>