<svg xmlns="http://www.w3.org/2000/svg" viewBox="0 0 24 24"><path d="m 2.8 16.25 c -1.14 -1.45 -2.3 -4.18 -2.45 -5.81 c -0.23 -2.36 0.57 -5.07 1.96 -6.7 c 1.86 -2.18 5.63 -3.63 9.4 -3.61 c 2.71 0.02 6.35 0.82 8.21 1.82 c 1.58 0.85 2.71 2.1 3.34 3.68 c 0.86 2.15 0.91 4.25 0.16 6.34 c -1.21 4.46 -4 7.48 -6.49 9.88 c -6.35 5.38 -10.63 -1.12 -14.1 -5.61" style="fill:#0027b7"/><g style="fill:#fff"><path d="m 6.13 8.46 c -0.48 -0.79 -0.57 -0.98 -0.45 -1.06 c 0.13 -0.09 12.42 -0.06 12.51 0.03 c 0.06 0.07 -0.33 0.89 -0.57 1.2 l -0.14 0.18 h -11.1"/><path d="m 10.93 16.85 c -2.2 -3.78 -3.71 -6.48 -3.67 -6.53 c 0.07 -0.07 9.36 -0.1 9.43 -0.03 c 0.07 0.07 -0.96 1.96 -3.11 5.72 c -1.29 2.25 -1.5 2.59 -1.58 2.59 c -0.03 0 -0.51 -0.79 -1.07 -1.76 m 1.92 -2.61 c 0.97 -1.69 1.29 -2.29 1.23 -2.37 c -0.03 -0.05 -0.77 -0.08 -2.09 -0.08 c -1.84 0 -2.05 0.01 -2.05 0.12 c 0 0.17 1.43 2.75 1.93 3.46 c 0.18 0.27 0.16 0.3 0.98 -1.14"/></g></svg>