<svg xmlns="http://www.w3.org/2000/svg" viewBox="0 0 24 24"><path d="m 20.56 4.5 c 14.97 21.28 -23.97 28.1 -20.1 5.44 c 2.05 -8.99 14.1 -13.97 20.1 -5.44" style="fill:#f4f4f4"/><path d="m 5.47 14.65 c -0.08 -0.16 0.53 -2.63 0.68 -2.75 c 0.18 -0.15 0.57 -0.11 0.62 0.06 c 0.03 0.09 -0.1 0.74 -0.28 1.45 c -0.32 1.25 -0.34 1.29 -0.64 1.33 c -0.18 0.02 -0.35 -0.02 -0.38 -0.09 m 13 -0.03 c -0.04 -0.08 0.24 -0.73 0.63 -1.45 l 0.69 -1.31 l 0.73 -0.02 c 0.45 -0.01 0.76 0.04 0.82 0.13 c 0.08 0.13 0.32 2.04 0.32 2.5 c 0 0.26 -0.68 0.2 -0.79 -0.07 c -0.09 -0.21 -0.14 -0.43 -0.31 0.07 c -0.11 0.3 -0.31 0.29 -1.11 0.29 c -0.54 0 -0.93 -0.05 -0.96 -0.14 m 2.3 -0.94 c 0.05 -0.17 -0.01 -1.14 -0.09 -1.48 c -0.04 -0.14 -0.07 -0.14 -0.19 -0.02 c -0.25 0.26 -0.68 1.3 -0.62 1.5 c 0.07 0.24 0.82 0.25 0.9 0 m -17.82 0.66 c -0.05 -0.33 -0.26 -3 -0.26 -3.35 c 0 -0.16 0.08 -0.23 0.3 -0.23 c 0.16 0 0.32 0.05 0.35 0.11 c 0.03 0.06 0.1 0.63 0.16 1.26 c 0.06 0.63 0.15 1.2 0.2 1.26 c 0.05 0.07 0.23 -0.15 0.43 -0.5 c 0.18 -0.34 0.52 -0.95 0.76 -1.36 l 0.43 -0.75 h 0.86 c 0.11 0 -0.06 0.21 0.24 -0.02 c 0.22 -0.17 0.61 0.02 0.63 0.25 c 0.04 0.46 -0.73 0.78 -0.78 0.27 c -0.04 -0.43 -0.11 -0.24 -0.16 -0.21 c -0.06 0.03 -0.54 0.84 -1.05 1.81 l -0.95 1.76 h -0.54 c -0.48 0 -0.55 -0.03 -0.59 -0.29 m 3.84 0.19 c -0.02 -0.05 -0.01 -0.23 0.04 -0.39 c 0.08 -0.26 0.15 -0.29 0.82 -0.29 c 0.8 0 1.05 -0.11 0.96 -0.43 c -0.04 -0.14 -0.19 -0.21 -0.41 -0.21 c -0.66 0 -1.14 -0.52 -1.05 -1.11 c 0.05 -0.35 0.5 -0.38 0.73 -0.05 c 0.14 0.19 0.31 0.27 0.63 0.27 c 0.9 0 1.26 1.11 0.63 1.92 c -0.3 0.39 -0.33 0.4 -1.3 0.4 c -0.55 0 -1.02 -0.04 -1.04 -0.1 m 2.76 -0.26 c 0.01 -0.2 0.13 -0.82 0.28 -1.39 c 0.25 -0.94 0.3 -1.04 0.56 -1.07 c 0.16 -0.02 0.33 0.01 0.38 0.07 c 0.08 0.11 -0.3 2.27 -0.46 2.61 c -0.04 0.07 -0.22 0.13 -0.41 0.13 c -0.31 0 -0.34 -0.04 -0.34 -0.36 m 1.21 0.13 c 0 -0.43 0.8 -3.55 0.93 -3.66 c 0.18 -0.15 1.83 -0.14 2.14 0.02 c 0.52 0.25 0.44 1.45 -0.19 2.66 c -0.48 0.91 -0.97 1.21 -2.05 1.21 c -0.72 0 -0.82 -0.03 -0.82 -0.23 m 1.82 -0.98 c 0.38 -0.33 0.76 -1.23 0.66 -1.55 c -0.07 -0.25 -0.92 -0.28 -1.04 -0.04 c -0.1 0.2 -0.43 1.53 -0.43 1.74 c 0 0.26 0.43 0.18 0.81 -0.15 m 0.8 1.11 c 0 -0.16 1.3 -2.52 1.44 -2.62 c 0.13 -0.09 1.45 -0.08 1.52 0.02 c 0.05 0.07 0.27 1.96 0.27 2.39 c 0 0.26 -0.05 0.31 -0.29 0.31 c -0.19 0 -0.34 -0.1 -0.44 -0.29 l -0.15 -0.29 l -0.12 0.29 c -0.11 0.27 -0.19 0.29 -1.17 0.29 c -0.58 0 -1.06 -0.05 -1.06 -0.11 m 2.39 -0.86 c 0.08 -0.28 -0.06 -1.61 -0.18 -1.61 c -0.15 0 -0.82 1.42 -0.76 1.62 c 0.08 0.26 0.86 0.25 0.93 -0.01 m 1.43 0.9 c -0.07 -0.09 0.4 -2.39 0.55 -2.61 c 0.11 -0.18 0.64 -0.22 0.72 -0.05 c 0.03 0.06 -0.07 0.68 -0.22 1.39 l -0.27 1.28 l -0.36 0.04 c -0.2 0.02 -0.38 0 -0.41 -0.04 m -9.81 -3.15 c -0.03 -0.06 0.07 -0.24 0.21 -0.39 c 0.23 -0.23 0.41 -0.27 1.21 -0.27 c 0.84 0 0.95 0.02 0.95 0.23 c 0 0.45 -0.21 0.54 -1.27 0.54 c -0.57 0 -1.06 -0.05 -1.09 -0.12 m 2.83 0.02 c -0.19 -0.4 0.31 -0.94 0.7 -0.75 c 0.18 0.09 0.2 0.48 0.03 0.7 c -0.14 0.18 -0.65 0.21 -0.73 0.05 m 4.88 -0.05 c 0.01 -0.41 0.28 -0.63 0.72 -0.59 c 0.39 0.04 0.44 0.07 0.44 0.36 c 0 0.3 -0.04 0.32 -0.58 0.36 c -0.43 0.03 -0.58 0 -0.58 -0.13 m 1.88 0.06 c -0.02 -0.05 0 -0.23 0.04 -0.39 c 0.08 -0.28 0.14 -0.29 1.25 -0.29 c 1.05 0 1.16 0.02 1.16 0.23 c 0 0.46 -0.21 0.54 -1.32 0.54 c -0.59 0 -1.1 -0.04 -1.13 -0.1 m 3.16 -0.04 c 0 -0.42 0.22 -0.64 0.65 -0.64 c 0.36 0 0.45 0.05 0.5 0.28 c 0.03 0.15 0.04 0.33 0 0.39 c -0.07 0.16 -1.15 0.13 -1.15 -0.03"/></svg>