<svg xmlns="http://www.w3.org/2000/svg" viewBox="0 0 24 24"><path d="m 5.48 2.93 c 9.26 -8.3 22.69 2.64 17.2 13.46 c -5.59 10.93 -24.1 9.84 -22.49 -3.09 c 0.59 -4.71 3.18 -8 5.32 -10.36" style="fill:#4092d8"/><path d="m 10.82 18.98 c -0.85 -0.16 -1.71 -0.48 -2.42 -0.91 c -0.13 -0.08 -3.07 1.9 -3.68 1.47 c -0.38 -0.5 1.28 -3.72 1.2 -3.93 c -0.54 -1.19 -1.01 -2.32 -1.01 -3.71 c 0 -0.91 0.11 -1.6 0.37 -2.34 c 0.87 -2.45 3.04 -4.29 5.56 -4.73 c 0.67 -0.11 1.94 -0.11 2.61 0 c 2.91 0.5 5.34 2.9 5.84 5.78 c 0.12 0.66 0.12 1.92 0 2.58 c -0.51 2.88 -2.93 5.28 -5.84 5.78 c -0.63 0.11 -2.02 0.11 -2.62 0 m 1.98 -3.94 c 0.08 -0.08 0.11 -0.25 0.14 -0.75 c 0.02 -0.53 0.05 -0.66 0.14 -0.71 c 0.19 -0.11 0.61 0.17 1.36 0.91 l 0.69 0.69 c 0.4 0.07 1.07 0.09 1.55 -0.05 c 0.15 -0.1 0.1 -0.41 -0.13 -0.75 c -0.12 -0.18 -0.46 -0.59 -0.76 -0.92 c -0.83 -0.91 -0.8 -0.75 -0.21 -1.64 c 0.93 -1.41 1.15 -1.95 0.87 -2.1 c -0.15 -0.08 -1.23 -0.09 -1.43 -0.01 c -0.11 0.04 -0.23 0.22 -0.43 0.62 c -0.45 0.92 -1.05 1.77 -1.36 1.93 c -0.13 0.07 -0.17 0.07 -0.25 0 c -0.08 -0.07 -0.09 -0.27 -0.09 -1.28 c 0 -1.14 0 -1.21 -0.12 -1.27 c -0.07 -0.04 -0.47 -0.06 -1.02 -0.05 c -1.09 0.02 -1.14 0.05 -0.87 0.53 c 0.17 0.29 0.17 0.31 0.17 1.4 c 0 0.98 -0.01 1.1 -0.1 1.14 c -0.27 0.1 -1.13 -1.2 -1.61 -2.45 c -0.23 -0.6 -0.29 -0.63 -1.11 -0.63 c -0.53 0 -0.63 0.02 -0.73 0.12 c -0.09 0.09 -0.11 0.17 -0.09 0.29 c 0.25 1.12 1.23 2.91 2.1 3.85 c 0.55 0.59 1.28 1.02 2.13 1.23 c 0.07 0.02 0.34 0.02 0.6 0.01 c 0.35 -0.01 0.51 -0.04 0.58 -0.12" style="fill:#fff"/></svg>