<svg xmlns="http://www.w3.org/2000/svg" viewBox="0 0 24 24"><path d="m 12 0.25 c 16.1 -1.79 15.83 23.88 -0.29 23.57 c -14.99 0.85 -16.34 -24.97 0.29 -23.57" style="fill:#46cfcc"/><path d="m 10.1 3.86 h 3.95 c 0.86 0 1.55 0.52 1.55 1.16 v 14.1 c 0 0.64 -0.7 1.16 -1.55 1.16 h -3.95 c -0.86 0 -1.55 -0.52 -1.55 -1.16 v -14.1 c 0 -0.64 0.7 -1.16 1.55 -1.16" style="fill:#77767a"/><path d="m 8.6 6.79 h 6.73 c 0.86 0 1.55 0.52 1.55 1.16 v 8.12 c 0 0.64 -0.7 1.16 -1.55 1.16 h -6.73 c -0.86 0 -1.55 -0.52 -1.55 -1.16 v -8.12 c 0 -0.64 0.7 -1.16 1.55 -1.16" style="fill:#344fa3"/><path d="m 7.76 18 c -0.19 -0.07 -0.43 -0.18 -0.52 -0.24 c -0.21 -0.14 -0.82 -0.88 -0.98 -1.2 c -0.22 -0.41 -0.3 -3.79 -0.17 -7.17 l 0.06 -1.59 c 0.33 -0.79 0.91 -1.5 1.59 -1.77 l 0.43 -0.17 h 3.82 c 3.79 0 3.82 0 4.23 0.16 c 0.89 0.47 1.21 0.95 1.59 1.78 v 4.3 c 0 3.45 -0.02 4.34 -0.09 4.47 c -0.41 0.58 -0.95 1.23 -1.48 1.41 c -0.46 0.16 -0.51 0.16 -4.29 0.16 c -3.47 0 -3.85 -0.02 -4.17 -0.13 m 8.48 -1.59 c 0.09 -0.05 0.21 -0.18 0.29 -0.3 c 0.13 -0.2 0.13 -0.37 0.13 -4.19 c 0 -4.31 0.01 -4.18 -0.38 -4.45 c -0.19 -0.13 -0.36 -0.14 -4.32 -0.14 c -4 0 -4.13 0 -4.35 0.14 c -0.43 0.27 -0.43 0.22 -0.41 4.58 l 0.02 3.95 l 0.17 0.19 c 0.09 0.11 0.23 0.21 0.31 0.25 c 0.07 0.03 1.99 0.06 4.26 0.06 c 3.23 0 4.16 -0.02 4.28 -0.09" style="fill:#221e2f"/><g style="fill:#fff"><path d="m 7.91 12.1 c -0.13 -0.25 0.26 -0.44 0.73 -0.34 c 0.2 0.03 0.37 0.2 0.28 0.36 c -0.27 0.17 -0.79 0.22 -1 -0.02"/><path d="m 8.48 14.1 c -0.03 -0.02 -0.07 -0.07 -0.09 -0.11 c -0.04 -0.06 -0.03 -0.09 0.02 -0.16 c 0.16 -0.16 0.32 -0.28 0.48 -0.12 c 0.06 0.07 0.06 0.09 0.02 0.18 c -0.08 0.19 -0.32 0.3 -0.44 0.21"/><path d="m 9.93 15.61 c -0.16 -0.08 -0.17 -0.27 -0.02 -0.41 c 0.13 -0.12 0.21 -0.13 0.3 -0.04 c 0.12 0.11 0.1 0.25 -0.05 0.41 c -0.07 0.08 -0.13 0.09 -0.23 0.04"/><path d="m 11.81 16.1 c -0.1 -0.1 -0.13 -0.3 -0.09 -0.6 c 0.05 -0.33 0.12 -0.41 0.32 -0.38 c 0.18 0.16 0.18 0.71 0.08 0.96 c -0.05 0.11 -0.21 0.13 -0.31 0.02"/><path d="m 11.86 8.79 c -0.1 -0.05 -0.15 -0.2 -0.14 -0.48 c 0 -0.41 0.11 -0.6 0.31 -0.57 c 0.19 0.15 0.14 0.49 0.12 0.78 l -0.03 0.29 c -0.09 0.02 -0.18 0 -0.26 -0.02"/><path d="m 10 8.8 c -0.08 -0.03 -0.19 -0.18 -0.21 -0.29 c -0.03 -0.11 0.11 -0.25 0.25 -0.24 c 0.15 0.06 0.28 0.27 0.21 0.39 c -0.07 0.11 -0.16 0.17 -0.24 0.14"/><path d="m 8.59 10.2 c -0.11 -0.05 -0.2 -0.16 -0.2 -0.24 c 0 -0.08 0.15 -0.25 0.23 -0.25 c 0.1 0 0.3 0.23 0.3 0.34 c 0 0.16 -0.16 0.23 -0.33 0.15"/><path d="m 13.71 8.73 c -0.07 -0.06 -0.09 -0.09 -0.07 -0.16 c 0.05 -0.2 0.29 -0.33 0.41 -0.22 c 0.07 0.07 0.06 0.16 -0.02 0.31 c -0.09 0.15 -0.18 0.17 -0.32 0.07"/><path d="m 15.1 10.17 c -0.15 -0.12 -0.06 -0.34 0.19 -0.44 c 0.3 -0.02 0.25 0.34 0.09 0.44 c -0.13 0.08 -0.18 0.08 -0.29 0"/><path d="m 15.1 14.1 c -0.11 -0.11 -0.15 -0.24 -0.09 -0.34 c 0.07 -0.13 0.21 -0.13 0.36 0.01 c 0.16 0.13 0.17 0.22 0.05 0.34 c -0.1 0.11 -0.21 0.11 -0.33 -0.01"/><path d="m 13.86 15.59 c -0.09 -0.04 -0.23 -0.21 -0.23 -0.29 c 0 -0.07 0.16 -0.21 0.25 -0.21 c 0.07 0 0.18 0.2 0.2 0.34 c 0.02 0.11 0.01 0.13 -0.07 0.16 c -0.05 0.02 -0.09 0.03 -0.09 0.03 c -0.03 -0.01 -0.05 -0.02 -0.07 -0.03"/><path d="m 15.69 12.16 c 0.11 -0.02 0.18 -0.06 0.24 -0.13 c 0.13 -0.25 -0.26 -0.44 -0.73 -0.34 c -0.2 0.03 -0.37 0.2 -0.28 0.36 c 0.17 0.19 0.52 0.14 0.76 0.11"/><path d="m 10.51 13.45 l -0.16 -0.16 c -0.15 0.23 -0.37 0.47 -0.56 0.38 c -0.17 -0.08 -0.2 -0.23 -0.2 -0.91 c 0 -0.9 0 -0.89 0.93 -0.89 c 0.77 0 0.84 0.03 0.84 0.3 c -0.02 0.24 -0.18 0.38 -0.41 0.42 c -0.11 0.02 -0.16 0.04 -0.16 0.09 c 0 0.11 0.38 0.44 0.65 0.57 c 0.51 0.25 0.96 0.13 1.55 -0.4 c 0.35 -0.32 0.42 -0.36 0.54 -0.33 c 0.33 0.1 0.28 0.46 -0.11 0.85 c -0.25 0.25 -0.66 0.5 -0.96 0.57 c -0.68 0.14 -1.43 -0.01 -1.95 -0.5"/></g><path d="m 12.64 11.88 c -0.3 -0.13 -0.17 -0.52 0.19 -0.58 c 0.29 -0.05 0.32 -0.13 0.13 -0.35 c -0.26 -0.3 -0.6 -0.44 -1.04 -0.45 c -0.42 0.01 -0.71 0.16 -1.02 0.45 c -0.43 0.4 -0.54 0.45 -0.69 0.27 c -0.14 -0.18 -0.09 -0.36 0.22 -0.73 c 0.26 -0.31 0.85 -0.64 1.27 -0.71 c 0.52 -0.09 1.13 0.12 1.63 0.55 l 0.25 0.21 l 0.09 -0.18 c 0.1 -0.22 0.21 -0.29 0.38 -0.25 c 0.31 0.29 0.37 1.33 0.18 1.74 c -0.4 0.08 -1.11 0.24 -1.58 0.04" style="fill:#ff8c00"/></svg>