<svg xmlns="http://www.w3.org/2000/svg" viewBox="0 0 24 24"><path d="m 21.58 18.25 c 7.54 -9.1 -5.18 -19.63 -16.6 -17.93 c -8.52 1.2 -5.09 25.1 7.27 23.53 c 3.68 -0.48 6.87 -2.64 9.33 -5.6" style="fill:#bac3ce"/><path d="m 15.44 18.55 c -0.72 -0.69 -2.04 -1.46 -2.7 -1.59 c -1.09 -0.31 -2.25 -0.37 -3.31 -0.37 c -0.68 0.01 -0.75 -0.35 -0.82 -0.48 c -0.07 -0.12 -0.32 0.17 -0.79 0.16 c -0.6 -0.01 -0.58 -0.21 -0.58 -0.54 c 0 -0.55 -0.23 -0.11 -0.59 -0.05 c -0.46 0.07 -0.63 -0.06 -0.63 -0.48 c 0 -0.27 -0.03 -0.32 -0.16 -0.28 c -0.53 0.16 -0.66 0.16 -0.79 0.02 c -0.09 -0.12 -0.1 -0.21 -0.02 -0.38 c 0.18 -0.4 1.02 -0.46 1.05 -0.08 c 0.03 0.4 0.08 0.2 0.66 0.19 c 0.63 -0.02 0.7 -0.01 0.67 0.23 c -0.06 0.52 0.13 0.5 0.59 0.2 c 0.46 -0.3 0.49 0.62 0.59 0.7 c 0.8 -0.84 0.83 -2.15 1.31 -3.15 c 0.36 -0.71 0.24 -0.43 -0.23 -0.3 c -0.52 0.1 -0.96 0.15 -0.93 -0.33 l 0.02 -0.37 l -0.43 0.06 c -0.56 0.07 -0.71 0.01 -0.71 -0.32 c 0 -0.66 1.13 -1.02 1.41 -0.45 c 0.12 0.25 -0.15 0.47 0.63 0.2 c 0.37 -0.13 0.63 -0.06 0.63 0.09 c -0.02 0.68 0.29 0.2 0.29 0 c 0.12 -0.56 1.34 -2.79 1.35 -3.28 c 0 -0.2 -0.24 0.4 -0.77 0.46 c -0.66 0.08 -0.83 -0.05 -0.73 -0.53 c 0.06 -0.27 0.05 -0.29 -0.11 -0.22 c -0.1 0.04 -0.35 0.08 -0.56 0.09 c -0.4 0.03 -0.38 0.02 -0.37 -0.36 c 0.02 -0.43 0.1 -0.53 0.53 -0.62 c 0.48 -0.1 0.65 -0.03 0.71 0.29 c 0.06 0.28 0.06 0.28 0.57 0.22 c 0.36 -0.04 0.55 -0.03 0.66 0.06 c 0.11 0.09 0.58 0.12 1.83 0.1 c 1 -0.08 1.99 0.07 2.9 0.32 c 0.79 0.22 2.14 1.02 2.88 1.7 c 0.7 0.65 0.7 0.63 0.35 1.51 c -0.36 0.89 -0.88 2.18 -0.97 2.36 c -0.67 1.66 -1.45 3.39 -2.04 4.92 c -0.24 0.61 -0.45 0.89 -0.68 0.89 c -0.05 0 -0.37 -0.27 -0.71 -0.59 m -11.14 -4.66 c -0.18 -0.21 0.01 -0.46 0.35 -0.46 c 0.39 0 0.6 0.59 0.23 0.73 c -0.31 0.12 -0.44 -0.09 -0.59 -0.27 m -0.82 -0.61 c -0.18 -0.07 -0.23 -0.57 -0.02 -0.63 c 0.22 -0.07 0.56 0.13 0.56 0.3 c 0.22 0.64 -0.2 0.57 -0.54 0.33 m 3.25 -2.39 c -0.08 -0.21 0.13 -0.52 0.39 -0.59 c 0.38 -0.1 0.54 0.02 0.5 0.36 c -0.03 0.29 -0.05 0.31 -0.44 0.34 c -0.29 0.02 -0.42 -0.01 -0.46 -0.11 m -0.7 -0.73 c -0.09 -0.16 -0.02 -0.64 0.18 -0.7 c 0.24 -0.08 0.32 0.02 0.38 0.24 c 0.15 0.57 -0.43 0.68 -0.56 0.46 m -0.83 -0.91 c -0.22 -0.16 -0.35 -0.42 -0.23 -0.59 c 0.36 -0.48 0.97 0.28 0.94 0.36 c -0.24 0.63 -0.4 0.45 -0.7 0.23 m 3.2 -2.25 c -0.2 -0.24 0.12 -0.62 0.53 -0.62 c 0.43 0 0.52 0.21 0.23 0.53 c -0.25 0.26 -0.58 0.3 -0.75 0.09 m -0.74 -0.83 c -0.16 -0.16 0.04 -0.64 0.31 -0.64 c 0.16 0 0.32 0.29 0.32 0.41 c 0 0.33 -0.42 0.44 -0.64 0.23 m -0.78 -0.71 c -0.16 -0.1 -0.42 -0.65 0.04 -0.71 c 0.13 -0.02 0.55 0.41 0.53 0.52 c -0.04 0.18 -0.26 0.38 -0.57 0.19" style="fill:#212121"/><path d="m 10.62 15.29 c -0.14 -0.03 -0.25 -0.13 -0.25 -0.22 c 0 -0.3 0.91 -2.44 1.11 -2.59 c 0.2 -0.16 1.03 -0.11 1.87 0.11 c 0.4 0.1 0.43 0.14 0.37 0.42 c -0.29 0.85 -0.54 1.68 -0.95 2.51 c -0.68 -0.04 -1.39 -0.29 -2.15 -0.23" style="fill:#02a4ff"/><path d="m 11.77 11.58 c 0.37 -1.2 0.75 -1.93 1.18 -2.97 c 0.54 0.05 2.34 0.13 2.36 0.53 c -0.32 0.94 -0.7 1.63 -1.17 2.57 c -1.3 -0.36 -1.44 -0.13 -2.37 -0.13" style="fill:#f30"/><path d="m 17.1 13.15 c -0.06 -0.06 -0.59 -0.38 -0.95 -0.56 c -0.57 -0.29 -0.8 -0.43 -0.79 -0.72 c 0.02 -0.39 1.07 -2.36 1.28 -2.48 c 0.36 -0.21 1.85 0.71 1.78 1.1 c -0.02 0.12 -0.26 0.75 -0.53 1.39 c -0.47 1.14 -0.52 1.52 -0.79 1.27" style="fill:#66cd33"/><path d="m 13.92 15.61 c -0.07 -0.27 0.74 -2.28 1 -2.5 c 0.17 -0.14 0.76 0.07 1.41 0.51 c 0.37 0.25 0.54 0.54 0.49 0.82 c -0.06 0.34 -0.88 2.41 -1.04 2.55 c -0.48 -0.56 -1.73 -0.92 -1.87 -1.39" style="fill:#ffd600"/></svg>