<svg xmlns="http://www.w3.org/2000/svg" viewBox="0 0 24 24"><path d="m 4.59 4.63 c -19.59 26.1 34.2 25.68 14.83 0.11 c -3.5 -4.49 -10.78 -6.7 -14.83 -0.11" style="fill:#d6c5b8"/><path d="m 10.71 20.71 c -0.65 -0.21 -1.16 -0.51 -1.63 -0.95 c 0.72 0.04 1.49 -0.11 2 -0.26 l 0.89 -0.26 l 0.77 0.23 c 0.51 0.15 0.99 0.24 1.41 0.27 c 0.36 0.02 0.64 0.06 0.64 0.09 c 0 0.18 -1.02 0.72 -1.73 0.91 c -0.54 0.14 -1.84 0.13 -2.37 -0.03 m -1.42 -1.7 c -0.81 -0.52 -1.45 -1.36 -1.72 -2.25 c -0.15 -0.5 -0.16 -0.49 0.27 -0.45 c 0.36 0.04 0.45 0.09 1.38 0.9 c 0.55 0.48 1.24 1.02 1.54 1.21 c 0.3 0.19 0.54 0.38 0.54 0.42 c 0 0.09 -0.75 0.37 -1.2 0.45 c -0.26 0.04 -0.35 0.01 -0.8 -0.28 m 4.21 0.21 c -0.43 -0.1 -0.93 -0.29 -0.93 -0.36 c 0 -0.02 0.29 -0.21 0.64 -0.44 c 0.35 -0.23 1.06 -0.78 1.58 -1.24 c 0.86 -0.76 0.97 -0.83 1.3 -0.87 c 0.43 -0.04 0.45 0.01 0.2 0.72 c -0.29 0.8 -1.21 1.84 -1.96 2.18 c -0.47 0.14 -0.49 0.09 -0.83 0.01 m -2.31 -1.04 c -0.7 -0.46 -2.08 -1.68 -2.08 -1.84 c 0 -0.06 0.23 -0.14 0.6 -0.22 c 0.74 -0.15 1.41 -0.39 2.14 -0.59 c 0.81 0.11 1.51 0.41 2.36 0.59 c 0.33 0.07 0.62 0.16 0.64 0.19 c 0.06 0.09 -0.83 0.97 -1.42 1.41 c -0.6 0.45 -1.33 0.89 -1.48 0.89 c -0.06 0 -0.4 -0.2 -0.76 -0.43 m -2.96 -2.58 c -0.65 -0.62 -1.03 -1.3 -1.18 -2.12 c -0.06 -0.29 -0.06 -0.56 0.01 -0.84 l 0.55 0.11 c 0.52 0.11 0.59 0.15 1.25 0.73 c 0.62 0.54 1.84 1.35 2.25 1.48 c 0.36 0.12 -0.06 0.33 -1.26 0.63 c -0.89 0.24 -1.23 0.37 -1.62 0 m 6.62 0.19 c -0.6 -0.12 -1.91 -0.5 -2.07 -0.6 c -0.14 -0.09 -0.14 -0.1 0.09 -0.22 c 0.89 -0.47 1.49 -0.88 2.14 -1.43 c 0.66 -0.57 0.8 -0.65 1.22 -0.75 c 0.62 -0.14 0.72 -0.11 0.72 0.28 c 0 0.81 -0.48 1.81 -1.16 2.44 c -0.4 0.38 -0.42 0.38 -0.95 0.28 m -3.55 -1.2 c -0.47 -0.22 -2.29 -1.49 -2.23 -1.74 c 0.02 -0.04 0.3 -0.1 0.6 -0.15 c 0.82 -0.15 1.52 -0.36 2.32 -0.59 c 0.73 0.21 1.46 0.43 2.2 0.57 c 0.38 0.07 0.7 0.16 0.7 0.19 c 0 0.13 -0.59 0.69 -1.09 1.04 c -0.68 0.46 -1.62 0.96 -1.84 0.95 c -0.09 0 -0.39 -0.13 -0.67 -0.27 m -3 -2.41 c -0.35 -0.33 -0.52 -0.91 -0.5 -1.75 c 0.02 -0.93 0.03 -0.95 0.59 -0.75 c 0.33 0.12 0.62 0.31 1.05 0.7 c 0.32 0.3 0.87 0.7 1.21 0.9 c 0.34 0.2 0.62 0.4 0.63 0.45 c 0 0.1 -1.1 0.41 -2 0.56 c -0.35 0.06 -0.66 0.11 -0.68 0.11 c -0.02 0 -0.15 -0.1 -0.28 -0.22 m 6.24 0.09 c -0.77 -0.14 -1.75 -0.43 -1.82 -0.52 c 0.57 -0.48 1.28 -0.87 1.87 -1.38 c 0.57 -0.49 0.79 -0.64 1.1 -0.71 c 0.21 -0.05 0.41 -0.07 0.44 -0.04 c 0.03 0.03 0.05 0.45 0.05 0.93 c -0.01 0.94 -0.14 1.37 -0.53 1.7 c -0.2 0.18 -0.26 0.18 -1.12 0.01 m -3.39 -1.2 c -0.64 -0.38 -1.53 -1.11 -1.53 -1.26 c 0 -0.04 0.09 -0.09 0.19 -0.11 c 0.62 -0.11 1.35 -0.28 1.75 -0.4 c 0.45 -0.14 0.46 -0.14 0.93 0 c 0.55 0.32 1.5 0.09 1.84 0.54 c 0 0.29 -1.93 1.63 -2.34 1.63 c -0.1 0 -0.48 -0.18 -0.84 -0.39 m -2.11 -1.89 c -0.24 -0.25 -0.16 -1.6 0.1 -1.88 c 0.13 -0.13 0.51 0.07 0.93 0.5 c 0.2 0.21 0.56 0.49 0.79 0.63 c 0.23 0.14 0.41 0.29 0.41 0.33 c 0 0.1 -0.27 0.2 -1.09 0.39 c -0.77 0.18 -1 0.18 -1.15 0.03 m 5 0.03 c -0.63 -0.14 -1.36 -0.36 -1.36 -0.42 c 0 -0.03 0.18 -0.18 0.41 -0.32 c 0.55 -0.3 0.9 -0.88 1.47 -1.15 c 0.28 -0.15 0.27 -0.12 0.4 0.15 c 0.2 0.41 0.24 1.23 0.09 1.56 c -0.11 0.24 -0.16 0.27 -0.4 0.27 c -0.15 0 -0.42 -0.04 -0.61 -0.08 m -3.52 -1.68 c -0.11 -0.18 -0.03 -0.23 0.8 -0.58 l 0.67 -0.28 l 0.8 0.34 c 0.68 0.29 0.79 0.36 0.72 0.46 c -0.19 0.3 -1.3 1.1 -1.53 1.09 c -0.5 -0.23 -1.14 -0.54 -1.47 -1.04 m -0.55 -0.71 c -0.16 -0.14 -0.11 -0.64 0.1 -1.04 c 0.11 -0.2 0.23 -0.39 0.29 -0.42 c 0.48 -0.01 0.64 0.35 0.89 0.61 c 0.29 0.3 0.3 0.31 0.14 0.41 c -0.2 0.14 -1.12 0.53 -1.24 0.53 c -0.05 0 -0.13 -0.04 -0.19 -0.09 m 3.25 -0.14 c -0.57 -0.25 -0.71 -0.34 -0.7 -0.45 c 0 -0.14 0.87 -0.91 1.02 -0.91 c 0.23 0 0.56 0.71 0.53 1.17 c -0.03 0.48 -0.15 0.5 -0.85 0.2 m -1.86 -1.62 c 0 -0.27 0.23 -0.66 0.47 -0.79 c 0.2 -0.12 0.21 -0.11 0.45 0.08 c 0.33 0.28 0.46 0.67 0.32 0.97 c -0.12 0.24 -0.47 0.64 -0.57 0.64 c -0.31 -0.18 -0.66 -0.56 -0.67 -0.9" style="fill:#9c7653"/></svg>