<svg xmlns="http://www.w3.org/2000/svg" viewBox="0 0 24 24"><path d="m 22.26 5.89 c -18 -21 -35.3 22.2 -7.47 17.79 c 6.11 -0.98 12.32 -12.1 7.47 -17.79" style="fill:#3d4f20"/><path d="m 5.06 18.77 c 0.85 -0.93 5.11 -5.77 5.11 -5.8 c 0 -0.02 -1.02 -1.54 -2.25 -3.38 c -1.24 -1.84 -2.25 -3.35 -2.25 -3.37 c 0 -0.02 0.48 -0.03 1.06 -0.03 h 1.05 l 1.89 2.68 c 1.04 1.47 1.91 2.69 1.95 2.7 c 0.04 0.01 0.92 -1.2 1.96 -2.68 l 1.89 -2.7 h 2.16 l -0.12 0.17 c -0.32 0.45 -4.38 6.3 -4.48 6.45 l -0.11 0.17 l 2.39 2.82 c 1.32 1.55 2.45 2.88 2.53 2.96 l 0.13 0.14 h -3.29 l -1.59 -2.29 c -0.88 -1.26 -1.61 -2.29 -1.63 -2.29 c -0.02 0 -0.76 1.03 -1.64 2.29 l -1.6 2.29 h -3.28"/><path d="m 15.27 17 c -0.55 -0.73 -0.96 -2.32 -2 -1.89 c -0.46 0.19 -1.81 1.07 -2.05 0.82 c -2 0.03 -1.62 0.11 -3.06 -0.46 c -0.64 -0.1 -1.19 -0.83 -1.29 -1.1 c -0.05 -0.14 -0.21 -0.39 -0.36 -0.55 c -0.17 -0.18 -0.3 -0.65 -0.37 -1.29 c -0.09 -0.91 -0.07 -1.02 0.23 -1.34 c 0.2 -0.21 0.59 -0.39 0.95 -0.45 c 2.59 -0.27 3.19 -1.39 3.21 -1.75 c 0 -0.21 -0.1 -0.54 -0.23 -0.72 c -0.36 -0.54 -0.14 -0.82 0.61 -0.82 c 0.48 0 0.65 0.06 0.65 0.22 c 0 0.12 -0.11 0.66 0.19 0.66 c 0.07 0 0.16 -0.54 0.26 -0.66 c 0.27 -0.32 0.55 -0.27 0.83 0.15 l 0.13 0.57 l 0.28 -0.53 c 0.27 -0.51 0.27 -0.16 0.81 0.04 c 0.4 0.14 0.62 0.89 0.76 1 c 0.41 0.3 0.98 -0.08 1.34 -0.43 c 0.34 -0.33 0.49 -0.25 0.86 0.46 c 0.17 0.32 0.17 0.43 0 0.7 c -0.15 0.23 -1.39 0.57 -1.26 1.05 c 0.03 0.11 1.44 -1.21 1.48 0.61 c 0.02 1.04 0.05 1.15 -0.23 1.35 c -0.29 0.2 -1.37 0.16 -1.09 0.3 c 0.89 0.45 1.26 0.88 1.18 1.27 c -0.05 0.24 0.06 0.21 -0.05 0.64 c -0.09 0.33 -1.07 -0.43 -0.96 0.27 c 0.05 0.31 1.27 0.69 0.82 0.85 c -0.13 0.05 -0.21 0.34 -0.47 0.5 c -0.53 0.13 -0.98 -0.71 -0.88 -0.54 c 0.42 0.77 0.05 0.85 -0.3 1.07" style="fill:#fcc54d"/><path d="m 6.82 14.19 c -0.19 -0.21 -0.14 -0.37 0.07 -0.25 c 0.35 0.27 0.88 0.23 1.21 0.45 c 0.55 0.27 2.13 -0.04 2.47 -0.48 c 0.01 -0.11 0.64 -0.68 0.71 -0.64 c 0.04 0.02 0.06 0.11 0.06 0.2 c 0 0.12 -0.12 0.28 -0.45 0.6 c -0.59 0.71 -1.49 0.75 -1.96 0.75 c -0.5 0.11 -1.83 -0.34 -2.12 -0.65"/><g style="fill:#fff"><path d="m 13.41 10.82 c -0.1 0.58 -0.64 1.04 -1.2 1.04 c -0.56 0 -0.93 -0.46 -0.83 -1.04 c 0.1 -0.57 0.64 -1.04 1.2 -1.04 c 0.56 0 0.93 0.47 0.83 1.04"/><path d="m 11.56 9.96 c -0.07 0.41 -0.45 0.73 -0.84 0.73 c -0.39 0 -0.65 -0.33 -0.58 -0.73 c 0.07 -0.41 0.45 -0.74 0.84 -0.74 c 0.39 0 0.65 0.33 0.58 0.74"/></g><path d="m 6.71 13 c -0.11 -0.43 0.12 -0.9 0.49 -1.02 c 0.64 -0.21 0.99 0.52 0.38 0.82 c -0.26 0.13 -0.52 0.23 -0.79 0.35 c -0.03 0.01 -0.07 -0.05 -0.09 -0.14"/><path d="m 11.2 10.3 c -0.06 0.17 -0.24 0.27 -0.39 0.21 c -0.15 -0.05 -0.22 -0.24 -0.16 -0.41 c 0.06 -0.17 0.24 -0.27 0.39 -0.21 c 0.15 0.05 0.22 0.24 0.16 0.41"/><path d="m 12.92 11.14 c 0.02 0.21 -0.16 0.44 -0.39 0.52 c -0.23 0.08 -0.43 -0.02 -0.45 -0.23 c -0.02 -0.2 0.16 -0.44 0.39 -0.52 c 0.23 -0.08 0.43 0.02 0.45 0.23"/></svg>