<svg xmlns="http://www.w3.org/2000/svg" viewBox="0 0 24 24"><path d="m 20.98 20.39 c 13.6 -21.1 -23.55 -29.2 -20.59 -7.54 c 1.21 8.84 15.38 15.61 20.59 7.54" style="fill:#bfa99a"/><path d="m 11.33 13.83 c 2.38 -0.5 3.76 -0.7 4.84 -2.97 c 0 0 -2.76 -2.56 -4.14 -3.08 c -1.63 -0.54 -3.48 -0.39 -4.89 0.24 c -1.5 0.78 -3.27 2.41 -3 3.3 c 0.44 1.1 2.9 2.04 4.42 2.43 c 0.64 0.16 2.17 0.2 2.8 0.07" style="fill:#707f8f"/><path d="m 11.96 15.3 c 2.02 -0.67 3.27 -1.43 4.45 -3.84 c 0 0 -2.18 -2.05 -3.69 -2.6 c -1.79 -0.58 -3.44 -0.74 -4.97 -0.06 c -1.64 0.83 -3.44 2.52 -3.3 2.93 c 0.48 1.17 2.8 3.07 4.46 3.49 c 0.7 0.17 2.4 0.29 3.05 0.07" style="fill:#fff"/><path d="m 13.1 11.82 c 0 1.64 -1.33 2.96 -2.98 2.96 c -1.64 0 -2.97 -1.32 -2.97 -2.96 c 0 -1.64 1.33 -2.96 2.97 -2.96 c 1.64 0 2.98 1.32 2.98 2.96" style="fill:#2fa208"/><path d="m 11.23 11.81 c 0 0.61 -0.5 1.11 -1.11 1.11 c -0.61 0 -1.11 -0.5 -1.11 -1.11 c 0 -0.61 0.5 -1.11 1.11 -1.11 c 0.61 0 1.11 0.5 1.11 1.11" style="fill:#121"/><g style="fill:#817f8f"><path d="m 12.3 17.1 l 1.26 -0.89 c 0.02 -0.02 0.06 -0.01 0.07 0.02 l 1.78 3.37 c 0.01 0.03 0 0.06 -0.02 0.08 l -1.26 0.89 c -0.03 0.02 -0.06 0.01 -0.07 -0.02 l -1.77 -3.37 c -0.02 -0.03 -0.01 -0.07 0.02 -0.08"/><path d="m 8.57 18.33 c -4.52 -0.8 -7.16 -5.48 -5.44 -9.64 c 1.2 -2.89 4.28 -4.71 7.41 -4.38 c 3 0.32 5.48 2.4 6.26 5.28 c 0.2 0.73 0.27 2.03 0.15 2.8 c -0.52 3.46 -3.63 6.07 -7.2 6 c -0.39 0 -0.93 -0.05 -1.19 -0.09 m 2.77 -1.54 c 2.14 -0.61 3.66 -2.21 4.11 -4.28 c 0.13 -0.61 0.13 -1.66 0 -2.27 c -0.45 -2.14 -2.22 -3.87 -4.47 -4.35 c -0.61 -0.13 -1.91 -0.13 -2.5 0.01 c -2.31 0.54 -4 2.28 -4.45 4.48 c -0.1 0.55 -0.09 1.61 0.04 2.17 c 0.45 2.09 2.17 3.82 4.29 4.3 c 1.13 0.19 1.93 0.25 2.99 -0.05"/></g><path d="m 15.18 23.86 c -0.55 -1.32 -1.38 -2.52 -1.78 -3.93 c 0.62 -0.5 1.4 -0.97 2.05 -0.96 c 0.9 1.55 1.68 2.18 2.76 4.15 c -0.08 0.23 -2.69 0.91 -3 0.74" style="fill:#5c4080"/></svg>