<svg xmlns="http://www.w3.org/2000/svg" viewBox="0 0 24 24"><path d="m 23.88 12.1 c 1.75 15.98 -24.2 15.76 -23.87 -0.29 c -0.8 -14.93 25.34 -16.27 23.87 0.29" style="fill:#5ca19c"/><path d="m 3.97 16.43 l -0.2 -0.18 v -4.1 c 0 -3.77 0.01 -4.11 0.15 -4.28 c 0.3 -0.35 2.93 -1.07 4.93 -1.34 c 1.93 -0.26 5.48 -0.26 7.26 0 c 1.71 0.25 4 0.81 4.56 1.11 c 0.57 0.31 0.55 0.11 0.55 4.44 c 0 3.43 -0.02 3.96 -0.14 4.15 c -0.27 0.43 -2.14 1 -4.62 1.44 c -3.85 -0.07 -8.25 0.31 -12.49 -1.24" style="fill:#147e71"/><path d="m 10 17.86 c -1.7 -0.14 -5 -0.86 -5.82 -1.28 c -0.46 -0.23 -0.5 -0.32 -0.5 -0.96 c 0 -0.51 0.02 -0.59 0.14 -0.68 c 0.07 -0.05 0.83 -0.88 1.68 -1.84 c 1.72 -1.95 2.13 -2.37 2.55 -2.59 c 0.42 -0.22 0.98 -0.21 1.43 0.02 c 0.38 0.2 1.05 0.95 3.73 4.14 c 0.85 1.02 1.79 2.12 2.08 2.45 l 0.54 0.61 l -0.33 0.05 c -0.36 0.05 -4.97 0.12 -5.49 0.08" style="fill:#87bb00"/><path d="m 14.59 16.1 c -1.59 -1.94 -1.74 -2.13 -1.74 -2.2 c 0 -0.09 0.68 -0.94 1.13 -1.42 c 0.52 -0.55 0.7 -0.64 1.2 -0.61 c 0.37 0.03 0.41 0.05 0.76 0.39 c 0.47 0.47 2.32 2.56 3.2 3.63 l 0.68 0.82 l -0.16 0.09 c -0.36 0.19 -2.5 0.66 -3.54 0.79 l -0.28 0.03 c -0.41 -0.51 -0.83 -1.02 -1.25 -1.52" style="fill:#0b6244"/></svg>