<svg xmlns="http://www.w3.org/2000/svg" viewBox="0 0 24 24"><path d="m 20.84 19.73 c 6.28 -8.93 1.97 -17.1 -4.55 -18.99 c -8.77 -2.59 -21.2 4.23 -13.91 18.28 c 2.89 5.59 13.99 7.1 18.46 0.71" style="fill:#f4f4f4"/><path d="m 5.49 15.66 h 13.21 c 0.02 0 0.02 0.02 0.02 0.05 v 2.88 c 0 0.03 -0.01 0.05 -0.02 0.05 h -13.21 c -0.02 0 -0.03 -0.02 -0.03 -0.05 v -2.88 c 0 -0.03 0.01 -0.05 0.03 -0.05" style="fill:#ff7f86"/><path d="m 4 8.47 h 2.88 c 0.01 0 0.02 0.02 0.02 0.05 v 5.67 c 0 0.03 -0.01 0.05 -0.02 0.05 h -2.88 c -0.01 0 -0.02 -0.02 -0.02 -0.05 v -5.67 c 0 -0.03 0.01 -0.05 0.02 -0.05" style="fill:#f37040"/><path d="m 17.55 8.4 h 2.8 c 0.02 0 0.02 0.02 0.02 0.05 v 5.81 c 0 0.03 -0.01 0.05 -0.02 0.05 h -2.8 c -0.01 0 -0.02 -0.02 -0.02 -0.05 v -5.81 c 0 -0.03 0.01 -0.05 0.02 -0.05" style="fill:#8e93c8"/><path d="m 14.49 8.47 h 2.59 c 0.02 0 0.02 0.02 0.02 0.05 v 5.52 c 0 0.03 -0.01 0.05 -0.02 0.05 h -2.59 c -0.02 0 -0.02 -0.03 -0.02 -0.05 v -5.52 c 0 -0.03 0.01 -0.05 0.02 -0.05" style="fill:#acff2f"/><path d="m 11.42 9.96 h 2.95 c 0.02 0 0.02 0.03 0.02 0.06 v 4.16 c 0 0.03 -0.01 0.06 -0.02 0.06 h -2.95 c -0.01 0 -0.02 -0.03 -0.02 -0.06 v -4.16 c 0 -0.03 0.01 -0.06 0.02 -0.06" style="fill:#ffd600"/><path d="m 5.32 18.71 c -0.04 -0.07 -0.07 -0.68 -0.07 -1.52 c 0 -0.84 0.03 -1.45 0.07 -1.52 c 0.07 -0.12 0.21 -0.13 6.8 -0.13 h 6.73 l 0.06 0.17 c 0.08 0.21 0.08 2.75 0 2.96 l -0.06 0.17 h -3.16 c -2.37 0 -3.18 -0.02 -3.24 -0.08 c -0.11 -0.11 -0.1 -0.29 0.02 -0.34 c 0.08 -0.03 0.1 -0.13 0.08 -0.51 l -0.02 -0.47 l -0.38 -0.02 c -0.23 -0.01 -0.42 0.01 -0.48 0.06 c -0.13 0.1 -0.12 0.71 0 0.87 c 0.13 0.16 0.13 0.39 0 0.44 c -0.05 0.02 -1.5 0.04 -3.2 0.04 c -3 0 -3.1 0 -3.17 -0.13 m 1.34 -0.81 v -0.45 h -0.92 l -0.02 0.38 c -0.03 0.55 -0.02 0.56 0.49 0.54 l 0.45 -0.02 m 1.52 -0.39 c 0.02 -0.5 -0.04 -0.56 -0.55 -0.53 l -0.38 0.02 l -0.02 0.47 l -0.02 0.47 l 0.95 -0.04 m 1.46 -0.44 l -0.02 -0.47 l -0.38 -0.02 c -0.22 -0.01 -0.42 0.01 -0.47 0.06 c -0.09 0.08 -0.14 0.77 -0.05 0.86 c 0.03 0.02 0.25 0.04 0.5 0.04 h 0.45 m 1.48 -0.46 c 0.02 -0.41 0.01 -0.44 -0.14 -0.47 c -0.08 -0.02 -0.3 -0.03 -0.48 -0.02 l -0.32 0.02 l -0.02 0.38 c -0.03 0.55 -0.02 0.56 0.49 0.54 l 0.44 -0.02 m 2.94 -0.45 v -0.45 h -0.91 l -0.02 0.38 c -0.03 0.55 -0.02 0.56 0.49 0.54 l 0.44 -0.02 m 1.5 -0.07 c 0.07 -0.18 0.04 -0.71 -0.04 -0.79 c -0.04 -0.04 -0.25 -0.08 -0.46 -0.08 c -0.42 0 -0.51 0.08 -0.51 0.46 c 0 0.47 0.04 0.5 0.52 0.5 c 0.34 0 0.45 -0.02 0.48 -0.1 m 1.45 -0.38 v -0.45 h -0.92 l -0.02 0.38 c -0.03 0.55 -0.02 0.56 0.5 0.54 l 0.44 -0.02 m 1.52 -0.39 c 0.02 -0.5 -0.04 -0.56 -0.55 -0.53 l -0.38 0.02 l -0.02 0.47 l -0.02 0.47 l 0.95 -0.04 m -11.91 -1.43 c 0.08 -0.03 0.1 -0.14 0.1 -0.49 v -0.45 l -0.47 0.02 l -0.48 0.02 l -0.02 0.38 c -0.01 0.22 0.01 0.41 0.06 0.47 c 0.08 0.09 0.61 0.13 0.81 0.05 m 1.54 -0.05 c 0.05 -0.05 0.07 -0.25 0.06 -0.47 l -0.02 -0.38 l -0.48 -0.02 l -0.47 -0.02 v 0.44 c 0 0.25 0.02 0.46 0.04 0.49 c 0.09 0.09 0.79 0.05 0.87 -0.05 m 1.5 -0.41 l 0.02 -0.47 l -0.95 0.04 l -0.02 0.38 c -0.03 0.5 0.04 0.57 0.54 0.55 l 0.4 -0.02 m 1.47 -0.06 c 0.04 -0.05 0.07 -0.25 0.05 -0.47 l -0.02 -0.38 l -0.47 -0.02 l -0.48 -0.02 v 0.45 c 0 0.3 0.03 0.46 0.08 0.48 c 0.19 0.07 0.75 0.04 0.83 -0.05 m 1.49 -0.41 l 0.02 -0.47 h -0.45 c -0.51 0 -0.53 0.02 -0.53 0.46 c 0 0.45 0.08 0.52 0.54 0.5 l 0.4 -0.02 m 1.46 -0.02 c 0.06 -0.04 0.08 -0.18 0.06 -0.47 l -0.02 -0.41 h -0.91 l -0.02 0.41 c -0.02 0.48 0.01 0.52 0.48 0.52 c 0.18 0 0.37 -0.03 0.41 -0.05 m 1.51 -0.04 c 0.05 -0.05 0.07 -0.25 0.06 -0.47 l -0.02 -0.38 l -0.46 -0.02 c -0.52 -0.02 -0.54 0.01 -0.55 0.49 c 0 0.39 0.09 0.46 0.52 0.46 c 0.25 0 0.41 -0.03 0.46 -0.09 m 1.41 0.05 c 0.08 -0.03 0.1 -0.14 0.1 -0.49 v -0.45 l -0.47 0.02 l -0.48 0.02 l -0.02 0.41 c -0.01 0.29 0.01 0.43 0.07 0.47 c 0.1 0.06 0.65 0.07 0.8 0.02 m 1.54 -0.05 c 0.05 -0.05 0.07 -0.25 0.06 -0.47 l -0.02 -0.38 l -0.48 -0.02 l -0.47 -0.02 v 0.44 c 0 0.25 0.02 0.46 0.04 0.49 c 0.09 0.09 0.79 0.05 0.87 -0.05 m -14.67 -2.53 c -0.06 -0.16 -0.05 -7.35 0.02 -7.45 c 0.04 -0.06 0.27 -0.08 0.93 -0.07 l 0.88 0.02 l 0.02 0.55 c 0.03 0.89 -0.02 0.84 0.72 0.84 c 0.41 0 0.67 0.03 0.72 0.08 c 0.05 0.05 0.08 0.3 0.08 0.7 c 0 0.51 0.02 0.63 0.11 0.66 c 0.05 0.02 1.59 0.04 3.42 0.04 c 2.49 0 3.34 -0.02 3.39 -0.08 c 0.05 -0.05 0.08 -0.29 0.08 -0.66 c 0 -0.37 0.03 -0.62 0.08 -0.66 c 0.05 -0.06 0.63 -0.08 2.15 -0.08 c 1.63 0 2.09 -0.02 2.14 -0.09 c 0.04 -0.05 0.08 -0.36 0.09 -0.7 l 0.02 -0.61 l 0.8 -0.02 c 0.48 -0.01 0.86 0.01 0.93 0.05 c 0.13 0.07 0.13 0.14 0.13 1.7 c 0 0.9 -0.02 1.66 -0.05 1.7 c -0.09 0.13 -0.33 0.11 -0.41 -0.03 c -0.07 -0.12 -0.12 -0.13 -0.54 -0.12 l -0.47 0.02 l -0.02 0.45 c -0.02 0.31 0 0.46 0.06 0.5 c 0.15 0.09 0.8 0.06 0.94 -0.04 c 0.17 -0.13 0.4 -0.13 0.45 0 c 0.02 0.05 0.04 0.81 0.04 1.68 c 0 1.49 0 1.58 -0.13 1.64 c -0.09 0.04 -2.8 0.07 -8.33 0.07 c -7.42 0 -8.21 -0.01 -8.24 -0.1 m 4.38 -0.8 v -0.48 l -0.41 -0.02 c -0.25 -0.01 -0.45 0.01 -0.51 0.06 c -0.12 0.09 -0.13 0.78 -0.01 0.89 c 0.05 0.05 0.23 0.07 0.51 0.06 l 0.43 -0.02 m 1.46 -0.04 c 0.09 -0.09 0.11 -0.75 0.02 -0.88 c -0.04 -0.06 -0.19 -0.08 -0.51 -0.07 l -0.45 0.02 l -0.02 0.41 c -0.01 0.23 0 0.45 0.01 0.5 c 0.05 0.11 0.83 0.12 0.94 0.01 m 1.48 -0.44 v -0.48 l -0.42 -0.02 c -0.34 -0.02 -0.44 0 -0.51 0.09 c -0.1 0.13 -0.11 0.53 -0.02 0.77 c 0.06 0.16 0.08 0.17 0.51 0.15 l 0.44 -0.02 m 1.46 -0.04 c 0.09 -0.09 0.11 -0.75 0.02 -0.88 c -0.04 -0.06 -0.19 -0.08 -0.5 -0.07 l -0.45 0.02 l -0.02 0.41 c -0.01 0.23 0 0.45 0.02 0.5 c 0.04 0.11 0.83 0.12 0.94 0.01 m 1.52 -0.05 c 0.07 -0.14 0.09 -0.54 0.03 -0.77 c -0.04 -0.13 -0.08 -0.14 -0.49 -0.14 c -0.51 0 -0.58 0.06 -0.58 0.52 c 0 0.45 0.07 0.52 0.55 0.52 c 0.35 0 0.43 -0.02 0.49 -0.13 m 1.47 -0.39 v -0.48 h -0.98 l -0.02 0.41 c -0.03 0.6 -0.03 0.6 0.53 0.57 l 0.47 -0.02 m 1.46 -0.04 c 0.09 -0.09 0.11 -0.75 0.02 -0.88 c -0.04 -0.06 -0.19 -0.08 -0.51 -0.07 l -0.45 0.02 l -0.02 0.41 c -0.01 0.23 0 0.45 0.02 0.5 c 0.04 0.11 0.83 0.12 0.94 0.01 m 1.54 -0.07 c 0.06 -0.21 0.05 -0.71 -0.01 -0.81 c -0.04 -0.06 -0.2 -0.08 -0.54 -0.07 l -0.48 0.02 l -0.02 0.41 c -0.01 0.23 0 0.45 0.01 0.5 c 0.03 0.06 0.17 0.09 0.52 0.09 c 0.45 0 0.49 -0.01 0.52 -0.15 m 1.4 0.07 c 0.09 -0.09 0.11 -0.75 0.02 -0.88 c -0.04 -0.06 -0.19 -0.08 -0.51 -0.07 l -0.45 0.02 l -0.02 0.41 c -0.01 0.23 0 0.45 0.01 0.5 c 0.05 0.11 0.83 0.12 0.94 0.01 m -14.77 -0.44 v -0.45 h -0.91 v 0.41 c 0 0.23 0.02 0.43 0.04 0.45 c 0.02 0.02 0.23 0.04 0.46 0.04 h 0.41 m 1.47 -0.45 v -0.42 h -0.92 l -0.02 0.35 c -0.03 0.52 -0.02 0.53 0.49 0.51 l 0.45 -0.02 m 11.83 -1.43 c 0.12 -0.12 0.14 -0.68 0.04 -0.88 c -0.06 -0.1 -0.14 -0.13 -0.45 -0.13 c -0.58 0 -0.59 0.01 -0.59 0.51 c 0 0.25 0.04 0.46 0.08 0.51 c 0.12 0.12 0.81 0.1 0.93 -0.02 m -13.34 -0.45 v -0.45 h -0.85 l -0.02 0.38 c -0.03 0.55 -0.02 0.57 0.46 0.54 l 0.41 -0.02 m 1.5 -0.45 v -0.45 l -0.42 -0.02 c -0.49 -0.02 -0.52 0.01 -0.53 0.48 c 0 0.43 0.07 0.49 0.55 0.47 l 0.39 -0.02 m 1.52 -0.46 c 0.02 -0.43 0.01 -0.46 -0.13 -0.5 c -0.22 -0.06 -0.54 -0.05 -0.73 0.02 c -0.16 0.06 -0.17 0.09 -0.17 0.47 c 0 0.23 0.02 0.43 0.05 0.46 c 0.03 0.02 0.25 0.04 0.51 0.03 l 0.46 -0.02 m 1.52 -0.42 c 0.02 -0.5 -0.05 -0.59 -0.5 -0.59 c -0.47 0 -0.54 0.07 -0.54 0.54 c 0 0.22 0.02 0.43 0.05 0.45 c 0.03 0.02 0.25 0.04 0.51 0.03 l 0.46 -0.02 m 1.46 -0.46 c 0.02 -0.43 0.01 -0.46 -0.13 -0.5 c -0.21 -0.05 -0.66 -0.05 -0.75 0.01 c -0.11 0.07 -0.17 0.46 -0.12 0.75 l 0.04 0.23 l 0.47 -0.02 l 0.47 -0.02 m 1.52 -0.42 c 0.02 -0.5 -0.05 -0.59 -0.49 -0.59 c -0.47 0 -0.54 0.07 -0.54 0.54 c 0 0.22 0.02 0.43 0.04 0.45 c 0.03 0.02 0.25 0.04 0.51 0.03 l 0.46 -0.02 m 1.5 -0.07 c 0.07 -0.16 0.05 -0.67 -0.03 -0.81 c -0.05 -0.1 -0.14 -0.13 -0.45 -0.13 c -0.48 0 -0.59 0.09 -0.59 0.52 c 0 0.5 0.02 0.52 0.55 0.52 c 0.38 0 0.48 -0.02 0.52 -0.1 m 1.46 -0.38 c 0.02 -0.32 0 -0.46 -0.06 -0.5 c -0.13 -0.08 -0.8 -0.07 -0.89 0.02 c -0.08 0.09 -0.11 0.84 -0.03 0.92 c 0.02 0.02 0.25 0.04 0.51 0.03 l 0.46 -0.02 m 1.53 -0.42 c 0.02 -0.5 -0.05 -0.59 -0.52 -0.59 c -0.5 0 -0.52 0.02 -0.52 0.56 v 0.48 l 1.02 -0.04 m 2.94 -0.45 v -0.45 h -0.98 l -0.02 0.38 c -0.03 0.56 -0.03 0.56 0.52 0.54 l 0.48 -0.02 m -11.88 -1.45 c 0.06 -0.04 0.08 -0.19 0.07 -0.5 l -0.02 -0.45 l -0.41 -0.02 c -0.25 -0.01 -0.45 0.01 -0.51 0.05 c -0.12 0.09 -0.13 0.78 -0.02 0.89 c 0.09 0.09 0.76 0.11 0.89 0.02 m 1.5 -0.02 c 0.11 -0.11 0.1 -0.79 -0.01 -0.89 c -0.06 -0.04 -0.26 -0.07 -0.51 -0.05 l -0.41 0.02 l -0.02 0.45 c -0.02 0.31 0 0.46 0.06 0.5 c 0.13 0.08 0.8 0.07 0.89 -0.02 m 1.44 0.02 c 0.06 -0.04 0.08 -0.19 0.07 -0.5 l -0.02 -0.45 l -0.42 -0.02 c -0.5 -0.02 -0.59 0.05 -0.59 0.49 c 0 0.45 0.07 0.53 0.51 0.53 c 0.21 0 0.41 -0.02 0.46 -0.05 m 1.5 -0.02 c 0.11 -0.11 0.1 -0.79 -0.01 -0.89 c -0.05 -0.04 -0.26 -0.07 -0.51 -0.05 l -0.41 0.02 l -0.02 0.41 c -0.01 0.25 0.01 0.45 0.06 0.5 c 0.09 0.11 0.79 0.13 0.89 0.01 m 1.52 -0.05 c 0.09 -0.16 0.09 -0.62 0 -0.78 c -0.05 -0.11 -0.14 -0.13 -0.49 -0.13 c -0.48 0 -0.55 0.07 -0.55 0.52 c 0 0.45 0.07 0.52 0.55 0.52 c 0.35 0 0.43 -0.02 0.49 -0.13 m 1.47 -0.39 v -0.48 h -0.98 l -0.02 0.45 c -0.01 0.31 0.01 0.46 0.07 0.5 c 0.05 0.03 0.28 0.05 0.51 0.04 l 0.42 -0.02 m 1.46 -0.05 c 0.09 -0.09 0.11 -0.75 0.02 -0.88 c -0.04 -0.06 -0.19 -0.08 -0.51 -0.06 l -0.45 0.02 l -0.02 0.41 c -0.01 0.23 0 0.45 0.02 0.5 c 0.04 0.11 0.83 0.12 0.94 0.01 m 1.52 -0.05 c 0.08 -0.15 0.09 -0.71 0.01 -0.83 c -0.04 -0.06 -0.2 -0.08 -0.54 -0.06 l -0.48 0.02 l -0.02 0.41 c -0.01 0.23 0 0.45 0.01 0.5 c 0.02 0.06 0.17 0.09 0.49 0.09 c 0.39 0 0.47 -0.02 0.53 -0.13 m -13.35 -0.41 l 0.02 -0.44 h -0.92 v 0.41 c 0 0.22 0.02 0.43 0.05 0.45 c 0.02 0.03 0.22 0.04 0.44 0.03 l 0.39 -0.02 m 1.5 -0.42 v -0.42 h -0.92 l -0.02 0.35 c -0.03 0.52 -0.02 0.54 0.49 0.51 l 0.45 -0.02 m 11.83 -1.43 c 0.13 -0.13 0.14 -0.73 0.02 -0.89 c -0.07 -0.09 -0.17 -0.11 -0.54 -0.09 l -0.45 0.02 l -0.02 0.45 c -0.02 0.37 0 0.46 0.09 0.53 c 0.16 0.12 0.77 0.11 0.9 -0.02 m -11.88 -0.02 c 0.06 -0.04 0.08 -0.18 0.07 -0.47 l -0.02 -0.41 h -0.92 l -0.02 0.38 c -0.01 0.22 0.01 0.41 0.06 0.47 c 0.09 0.1 0.69 0.13 0.83 0.04 m 8.96 -0.43 c 0.02 -0.52 0 -0.55 -0.49 -0.55 c -0.53 0 -0.54 0.02 -0.54 0.51 c 0 0.24 0.02 0.46 0.05 0.48 c 0.02 0.03 0.25 0.04 0.51 0.03 l 0.46 -0.02 m 1.53 -0.41 c 0.02 -0.52 -0.04 -0.59 -0.48 -0.59 c -0.55 0 -0.55 0.01 -0.55 0.56 v 0.48 l 1.02 -0.04 m 2.93 -0.07 c 0.02 -0.06 0.04 -0.26 0.04 -0.45 c 0 -0.4 -0.09 -0.48 -0.52 -0.48 c -0.45 0 -0.52 0.07 -0.52 0.54 c 0 0.23 0.02 0.43 0.05 0.45 c 0.02 0.02 0.24 0.04 0.48 0.04 c 0.34 0 0.45 -0.02 0.48 -0.1 m -14.82 -0.4 l -0.02 -0.44 h -0.85 l -0.02 0.44 l -0.02 0.43 h 0.93 m 14.76 -1.43 c 0.11 -0.11 0.1 -0.79 -0.01 -0.89 c -0.06 -0.05 -0.26 -0.07 -0.51 -0.06 l -0.41 0.02 l -0.02 0.41 c -0.01 0.25 0.01 0.45 0.05 0.5 c 0.1 0.12 0.79 0.13 0.9 0.02 m -14.78 -0.46 l 0.02 -0.43 h -0.92 v 0.41 c 0 0.23 0.02 0.43 0.05 0.46 c 0.02 0.02 0.22 0.04 0.44 0.03 l 0.39 -0.02"/></svg>