<svg xmlns="http://www.w3.org/2000/svg" viewBox="0 0 24 24"><path d="m 0.28 14.74 c 1.49 9.68 14.71 12.28 20.54 5.36 c 5.14 -5.14 3.86 -14.97 -2.45 -18.35 c -7.24 -4.51 -17.79 1.07 -18.36 10.1 c -0.06 0.98 0.02 1.98 0.26 2.93" style="fill:#2095f3"/><path d="m 11 19.98 c -1.71 -0.27 -3.07 -0.96 -4.34 -2.22 c -2.03 -2 -2.73 -5.13 -1.78 -7.87 c 1.85 -5.32 8.66 -6.86 12.61 -2.84 c 1.5 1.52 2.21 3.29 2.21 5.46 c -0.02 4.55 -4.23 8.17 -8.7 7.48 m 1.4 -3.21 c 0.18 -0.47 -0.18 -0.59 -1.86 -0.59 c -2.38 0 -2.21 0.25 -2.27 -3.67 l -0.04 -3.16 c 0.27 -0.48 0.34 -0.49 0.79 -0.79 l 3.16 0.04 c 3.92 0.05 3.66 -0.11 3.66 2.27 c 0 1.68 0.11 2.04 0.6 1.85 c 0.18 -0.07 0.2 -0.34 0.17 -1.97 c -0.04 -1.81 -0.06 -1.91 -0.37 -2.25 c -0.61 -0.66 -0.93 -0.71 -4.16 -0.71 c -2.68 0 -3.04 0.03 -3.55 0.26 c -0.45 0.2 -0.62 0.38 -0.83 0.86 c -0.25 0.56 -0.26 0.82 -0.23 3.71 c 0.05 3.45 0.07 3.57 0.93 4.09 c 0.36 0.22 0.67 0.26 2.16 0.26 c 1.43 0 1.75 -0.04 1.82 -0.2 m 3.44 -0.64 c 0.57 -0.57 0.81 -0.91 0.75 -1.05 c -0.11 -0.29 -0.52 -0.26 -0.81 0.05 c -0.13 0.14 -0.29 0.26 -0.35 0.26 c -0.06 0 -0.11 -0.49 -0.11 -1.09 c 0 -1.17 -0.18 -1.64 -0.57 -1.49 c -0.18 0.07 -0.22 0.29 -0.22 1.26 c 0 1.29 -0.11 1.51 -0.57 1.07 c -0.35 -0.33 -0.68 -0.36 -0.79 -0.05 c -0.06 0.16 0.15 0.46 0.74 1.05 c 0.45 0.46 0.88 0.83 0.96 0.83 c 0.08 0 0.52 -0.38 0.97 -0.84 m -3.3 -2.31 c 1.36 -0.76 1.65 -1.29 1.08 -2 c -0.31 -0.39 -2.02 -1.39 -2.39 -1.39 c -0.13 0 -0.41 0.17 -0.62 0.38 c -0.37 0.37 -0.38 0.43 -0.38 1.64 c 0 1.17 0.02 1.29 0.32 1.59 c 0.45 0.45 0.9 0.41 2 -0.2 m -1.45 -0.35 c -0.05 -0.05 -0.09 -0.55 -0.09 -1.1 c 0 -0.73 0.05 -1.04 0.18 -1.08 c 0.18 -0.07 1.71 0.73 1.86 0.97 c 0.12 0.2 -0.15 0.46 -0.92 0.91 c -0.71 0.41 -0.88 0.46 -1.03 0.31" style="fill:#fff"/></svg>