<svg xmlns="http://www.w3.org/2000/svg" viewBox="0 0 24 24"><path d="m 1.13 16.51 c -9 -29 39.4 -14.5 16.77 5.37 c -4.54 3.98 -14.34 2.45 -16.77 -5.37" style="fill:#b3dec8"/><path d="m 10.28 18.76 c -2.24 -0.31 -4.38 -2.16 -5.19 -4.48 c -0.3 -0.88 -0.4 -2.27 -0.24 -3.48 c 0.3 -2.33 2.11 -4.48 4.45 -5.31 c 1.21 -0.43 3.3 -0.43 4.52 0 c 2.34 0.83 4.14 2.98 4.45 5.31 c 0.1 0.75 0.1 1.66 0 2.41 c -0.36 2.74 -2.79 5.19 -5.51 5.55 c -0.7 0.09 -1.77 0.09 -2.47 0 m 4.28 -2.68 c 0.48 -0.23 0.52 -1.02 0.06 -1.32 c -0.07 -0.04 -0.9 -0.29 -1.84 -0.54 c -0.95 -0.25 -1.77 -0.48 -1.82 -0.49 c -0.25 -0.07 -0.34 -0.41 -0.15 -0.57 c 0.05 -0.05 0.94 -0.46 1.97 -0.91 c 1.03 -0.45 1.95 -0.86 2.04 -0.9 c 0.66 -0.35 0.77 -1.39 0.19 -1.78 c -0.2 -0.14 -5.8 -1.68 -6.08 -1.68 c -0.08 0 -0.23 0.04 -0.34 0.1 c -0.53 0.29 -0.51 1.08 0.03 1.34 c 0.12 0.06 0.81 0.26 1.54 0.46 c 1.57 0.42 1.61 0.43 1.65 0.6 c 0.08 0.32 0.08 0.32 -1.93 1.3 c -1.04 0.51 -1.96 0.97 -2.04 1.02 c -0.38 0.27 -0.52 1.06 -0.25 1.47 c 0.08 0.12 0.22 0.25 0.32 0.3 c 0.27 0.13 6 1.68 6.26 1.69 c 0.11 0 0.29 -0.04 0.39 -0.09" style="fill:#139c53"/></svg>