<svg xmlns="http://www.w3.org/2000/svg" viewBox="0 0 24 24"><path d="m 21.58 19.1 c 11.92 -17.69 -26.1 -29.2 -21.1 -6.07 c 2.14 9.57 15.61 15.54 21.1 6.07" style="fill:#f4f4f4"/><g style="fill:#2f70a9"><path d="m 14.1 16.76 c -0.66 0.02 -1.22 -0.53 -1.53 -0.66 c -0.42 -0.11 -1.91 -0.77 -2.35 -1.02 c -0.11 -0.07 -0.54 -0.39 -0.95 -0.73 c -0.41 -0.34 -0.78 -0.58 -0.81 -0.55 c -0.09 0.09 0.52 0.69 0.95 0.93 c 0.48 0.27 0.51 0.37 0.1 0.36 c -0.43 0.04 -0.58 0.2 -0.78 0.49 l -1.04 -0.53 c -1.25 -0.64 -2.3 -1.96 -2.84 -3.5 c -0.26 -0.74 -0.3 -1.9 -0.08 -2.49 c 0.3 -0.8 1.64 -1.71 2.97 -2.03 c 1.25 -0.29 3.51 0.05 4.9 0.75 c 1.11 0.55 3.9 2.89 5.2 4.34 c 1.22 1.37 1.41 2.8 0.49 3.76 c -0.83 0.86 -2.25 1.16 -4.22 0.89 m 2.21 -1.06 c -0.05 -0.05 -0.95 -0.43 -2 -0.84 c -1.05 -0.41 -2.49 -1.06 -3.21 -1.43 c -0.71 -0.37 -1.34 -0.68 -1.38 -0.68 c -0.34 -0.01 1.22 1.12 2.22 1.6 c 1.71 0.82 4.77 1.77 4.37 1.36 m 1.48 -1.34 c -0.53 -0.66 -6.07 -3.18 -7 -3.18 h -0.28 l 0.32 0.18 c 0.18 0.1 1.08 0.5 2 0.89 c 0.92 0.39 2.41 1.06 3.3 1.48 c 0.89 0.42 1.66 0.77 1.71 0.77 c 0.04 0 0.03 -0.06 -0.04 -0.14 m -0.25 -1.84 c -0.92 -0.89 -2.95 -2.25 -4.55 -2.82 c -0.92 -0.33 -2.59 -0.55 -2.6 -0.34 c 0 0.11 0.05 0.13 1.03 0.32 c 0.33 0.07 0.88 0.21 1.21 0.32 c 0.84 0.29 2.91 1.54 4.07 2.29 c 1.06 0.7 1.3 0.67 0.84 0.22 m -8.24 4 c -0.22 -0.07 -0.43 -0.58 -0.32 -0.74 c 0.24 -0.36 0.65 -0.11 0.73 -0.08 c -0.02 0.41 -0.39 0.2 -0.17 0.44 c 0.18 0.13 0.6 0.1 0.81 0.07 c 0.13 -0.2 0.05 -0.13 -0.13 -0.23 l -0.1 -0.33 c -0.1 -0.35 1.08 0.25 1.56 0.45 c 0.32 0.14 0.68 0.28 0.8 0.32 c 0.11 0.04 0.16 0.13 0.21 0.15 c 0.5 0.26 -1.98 0.45 -3.39 -0.04 m 10.32 -0.46 c -0.25 -0.07 -0.57 -0.07 -0.64 -0.1 c -0.19 -0.08 0.1 -0.49 0.33 -0.48 c 0.18 0 1.18 0.55 1.18 0.64 c 0 0.07 -0.4 0.08 -0.87 -0.06 m -10.54 -0.43 c 0.41 -0.42 0.75 -0.2 0.96 -0.15 c 0.37 0.08 1.36 0.62 -0.53 0.47 c -0.33 0 -0.52 -0.27 -0.43 -0.32"/><path d="m 16.84 10.39 c 0.07 -0.13 0.44 -0.42 0.62 -0.5 c 0.34 -0.13 0.46 0.02 0.42 0.54 c 0 0.22 -0.05 0.43 -0.11 0.64 c -0.03 0.11 -0.11 0.18 -0.22 0.18 c -0.38 -0.42 -0.89 -0.57 -0.71 -0.86"/></g></svg>