<svg xmlns="http://www.w3.org/2000/svg" viewBox="0 0 32 32"><path d="m 0.41 19.66 c 6.25 29.98 49.2 -2.21 23.41 -17.45 c -10 -6.54 -26.63 2.03 -23.41 17.45" style="fill:#eaeaea"/><path d="m 19.24 8.95 l 0.03 0.03 l 0.09 -0.03 m 0.96 1.01 l 5.94 5.54 v -5.54" style="fill-opacity:0.2"/><path d="m 19.24 3.41 l 7 6.55 h -5.94 c -0.53 0 -1.08 -0.52 -1.08 -1.01 v -5.54" style="fill:#fff;fill-opacity:0.39"/><path d="m 20.77 12.9 c -0.91 -0.12 -3.27 1.58 -5.6 4 c -1.04 1.09 -1.94 2.17 -2.63 3.19 c 0.81 0.27 1.46 0.95 1.72 1.8 c 0.97 -0.73 2 -1.67 3.04 -2.76 c 2.64 -2.78 4.31 -5.53 3.72 -6.14 c -0.06 -0.07 -0.14 -0.11 -0.25 -0.12 m -8.66 8.41 c -3 0.85 -0.75 2.85 -3 4.21 c 3 0 4.52 -1.58 4.52 -2.64 c 0 -0.52 0.05 -1.49 -1.5 -1.58" style="fill:#a37fdc"/></svg>