<svg xmlns="http://www.w3.org/2000/svg" viewBox="0 0 32 32"><path d="m 0.41 19.66 c 6.25 29.98 49.2 -2.21 23.41 -17.45 c -10 -6.54 -26.63 2.03 -23.41 17.45" style="fill:#dcdcdc"/><path d="m 19.24 8.95 l 0.03 0.03 l 0.09 -0.03 m 0.96 1.01 l 5.94 5.54 v -5.54" style="fill-opacity:0.2"/><path d="m 19.24 3.41 l 7 6.55 h -5.94 c -0.53 0 -1.08 -0.52 -1.08 -1.01 v -5.54" style="fill:#fff;fill-opacity:0.39"/><g style="fill:#696969"><path d="m 7.09 20.5 v -6.29 h 0.54 v 5.55 h 2 v 0.74"/><path d="m 12.17 19.94 c -0.19 0.24 -0.37 0.41 -0.54 0.51 c -0.17 0.1 -0.36 0.15 -0.55 0.15 c -0.32 0 -0.57 -0.12 -0.75 -0.36 c -0.18 -0.25 -0.26 -0.56 -0.26 -0.94 c 0 -0.22 0.03 -0.43 0.1 -0.61 c 0.07 -0.19 0.15 -0.34 0.26 -0.45 c 0.11 -0.11 0.23 -0.2 0.36 -0.25 c 0.1 -0.04 0.25 -0.08 0.45 -0.12 c 0.4 -0.07 0.7 -0.16 0.89 -0.27 c 0 -0.11 0 -0.17 0 -0.2 c 0 -0.32 -0.05 -0.54 -0.14 -0.67 c -0.13 -0.17 -0.32 -0.26 -0.57 -0.26 c -0.24 0 -0.41 0.07 -0.53 0.2 c -0.11 0.13 -0.19 0.35 -0.25 0.67 l -0.49 -0.1 c 0.04 -0.32 0.12 -0.58 0.22 -0.78 c 0.11 -0.2 0.25 -0.35 0.45 -0.46 c 0.2 -0.11 0.42 -0.16 0.67 -0.16 c 0.25 0 0.46 0.04 0.62 0.14 c 0.16 0.09 0.28 0.21 0.35 0.35 c 0.07 0.14 0.13 0.31 0.16 0.52 c 0.02 0.13 0.02 0.37 0.02 0.71 v 1.03 c 0 0.72 0.01 1.17 0.03 1.36 c 0.02 0.19 0.07 0.37 0.13 0.55 h -0.53 c -0.05 -0.16 -0.09 -0.35 -0.1 -0.56 m -0.04 -1.73 c -0.18 0.11 -0.46 0.21 -0.82 0.29 c -0.21 0.05 -0.35 0.1 -0.44 0.15 c -0.09 0.06 -0.15 0.14 -0.2 0.25 c -0.05 0.11 -0.07 0.23 -0.07 0.37 c 0 0.2 0.05 0.38 0.15 0.51 c 0.1 0.14 0.25 0.21 0.45 0.21 c 0.2 0 0.37 -0.06 0.52 -0.19 c 0.15 -0.13 0.26 -0.31 0.33 -0.54 c 0.05 -0.17 0.08 -0.43 0.08 -0.77"/><path d="m 14.52 20.5 v -5.55 h -1.35 v -0.74 h 3.25 v 0.74 h -1.36 v 5.55"/><path d="m 18.3 19 l 0.52 0.1 c -0.08 0.47 -0.23 0.83 -0.46 1.09 c -0.22 0.26 -0.5 0.39 -0.85 0.39 c -0.43 0 -0.78 -0.2 -1.03 -0.61 c -0.25 -0.41 -0.38 -0.99 -0.38 -1.73 c 0 -0.77 0.13 -1.36 0.39 -1.79 c 0.26 -0.42 0.59 -0.63 1 -0.63 c 0.39 0 0.72 0.21 0.97 0.62 c 0.25 0.41 0.38 1 0.38 1.75 c 0 0.05 0 0.11 0 0.21 h -2.21 c 0.02 0.5 0.11 0.88 0.28 1.15 c 0.17 0.27 0.37 0.4 0.62 0.4 c 0.18 0 0.34 -0.07 0.47 -0.22 c 0.13 -0.15 0.23 -0.39 0.31 -0.71 m -1.65 -1.25 h 1.65 c -0.02 -0.38 -0.09 -0.67 -0.19 -0.86 c -0.16 -0.3 -0.37 -0.45 -0.63 -0.45 c -0.23 0 -0.43 0.12 -0.58 0.36 c -0.16 0.24 -0.24 0.56 -0.26 0.95"/><path d="m 19.1 20.5 l 1.59 -3.28 l -1.4 -3 h 0.64 l 0.74 1.61 c 0.16 0.34 0.27 0.59 0.33 0.77 c 0.09 -0.23 0.2 -0.47 0.32 -0.71 l 0.82 -1.67 h 0.59 l -1.44 2.96 l 1.55 3.33 h -0.67 l -1.03 -2.25 c -0.06 -0.13 -0.12 -0.27 -0.18 -0.42 c -0.09 0.23 -0.16 0.39 -0.2 0.47 l -1.03 2.2"/></g></svg>