<svg xmlns="http://www.w3.org/2000/svg" viewBox="0 0 32 32"><path d="m 0.41 19.66 c 6.25 29.98 49.2 -2.21 23.41 -17.45 c -10 -6.54 -26.63 2.03 -23.41 17.45" style="fill:#f9731e"/><path d="m 19.24 8.95 l 0.03 0.03 l 0.09 -0.03 m 0.96 1.01 l 5.94 5.54 v -5.54" style="fill-opacity:0.2"/><g style="fill:#fff"><path d="m 19.24 3.41 l 7 6.55 h -5.94 c -0.53 0 -1.08 -0.52 -1.08 -1.01 v -5.54" style="fill-opacity:0.39"/><path d="m 12.28 10.6 c -0.38 0 -0.72 0.13 -0.98 0.39 c 0 0 -3.27 3.14 -3.27 3.14 c -0.25 0.25 -0.4 0.59 -0.4 0.95 c 0 0 -0.03 4.46 -0.03 4.46 c 0 0.36 0.14 0.7 0.4 0.96 c 0 0 3.22 3.18 3.22 3.18 c 0.27 0.24 0.61 0.39 0.98 0.39 c 0 0 4.58 0.02 4.58 0.02 c 0.37 0 0.72 -0.13 0.98 -0.39 c 0 0 3.27 -3.14 3.27 -3.14 c 0.25 -0.25 0.4 -0.59 0.4 -0.95 c 0 0 0.03 -4.46 0.03 -4.46 c 0 -0.36 -0.14 -0.7 -0.4 -0.96 c 0 0 -3.23 -3.18 -3.23 -3.18 c -0.26 -0.25 -0.61 -0.39 -0.98 -0.39 c 0 0 -4.58 -0.03 -4.58 -0.03 m 4.54 5.06 c -0.44 0 -0.87 0.17 -1.19 0.48 c -0.32 0.31 -0.5 0.73 -0.5 1.17 c 0 0.43 0.18 0.85 0.5 1.16 c 0.32 0.31 0.75 0.48 1.19 0.48 c 0.46 0 0.89 -0.18 1.2 -0.48 c 0.32 -0.31 0.5 -0.73 0.5 -1.16 c 0 -0.92 -0.76 -1.66 -1.7 -1.66 m -4.53 -1.54 c 0.72 0 1.41 0.23 1.98 0.66 c 0 0 -0.79 1.36 -0.79 1.36 c -0.32 -0.31 -0.75 -0.48 -1.19 -0.48 c -0.46 0 -0.89 0.17 -1.2 0.48 c -0.32 0.31 -0.5 0.73 -0.5 1.17 c 0 0.43 0.18 0.85 0.5 1.16 c 0.32 0.31 0.75 0.48 1.2 0.48 c 0.43 0 0.84 -0.16 1.16 -0.45 c 0 0 0.8 1.34 0.8 1.34 c -0.57 0.42 -1.26 0.64 -1.96 0.64 c -0.87 0 -1.7 -0.34 -2.31 -0.93 c -0.62 -0.61 -0.97 -1.41 -0.97 -2.25 c 0 -1.77 1.47 -3.19 3.28 -3.19 m 4.53 0 c 1.81 0 3.28 1.43 3.28 3.19 c 0 1.75 -1.47 3.18 -3.28 3.18 c -0.86 0 -1.69 -0.34 -2.31 -0.93 c -0.61 -0.61 -0.95 -1.41 -0.95 -2.25 c 0 -1.77 1.46 -3.19 3.27 -3.19"/></g></svg>