<svg xmlns="http://www.w3.org/2000/svg" viewBox="0 0 32 32"><path d="m 0.41 19.66 c 6.25 29.99 49.2 -2.21 23.41 -17.45 c -10 -6.54 -26.63 2.02 -23.41 17.45" style="fill:#e6ecef"/><path d="m 19.24 8.95 l 0.03 0.03 l 0.09 -0.03 m 0.96 1 l 5.94 5.54 v -5.54" style="fill-opacity:0.2"/><path d="m 19.24 3.41 l 7 6.55 h -5.94 c -0.53 0 -1.08 -0.52 -1.08 -1 v -5.54" style="fill:#fff;fill-opacity:0.39"/><path d="m 23.56 19.68 c 0.06 -0.12 -0.01 -0.25 -0.27 -0.54 c -0.39 -0.42 -0.83 -1.17 -1.18 -2 c -0.36 -0.84 -0.41 -1.09 -0.67 -2.77 c -0.07 -0.45 -0.14 -0.87 -0.17 -0.93 c -0.03 -0.07 -0.27 -0.18 -0.7 -0.32 c -0.71 -0.23 -1.06 -0.46 -1.49 -0.98 c -0.32 -0.39 -0.79 -1.51 -0.92 -2.2 c -0.09 -0.47 -0.11 -0.52 -0.21 -0.56 c -0.13 -0.04 -2.91 0.27 -3.09 0.35 c -0.14 0.06 -0.2 0.19 -0.25 0.63 c -0.07 0.47 -0.43 1.29 -0.8 1.79 c -0.18 0.23 -0.36 0.48 -0.41 0.55 l -0.09 0.13 l 2 4.76 c 1.53 3.64 2.02 4.77 2.09 4.79 c 0.13 0.04 6.11 -2.57 6.16 -2.7 m -3.36 0.85 c -0.11 -0.27 -0.25 -0.36 -0.44 -0.28 c -0.18 0.08 -0.22 0.25 -0.11 0.51 l 0.06 0.14 l -1.03 0.45 l -1.03 0.45 l -0.86 -2.05 l 0.16 -0.07 c 0.29 -0.13 0.4 -0.27 0.34 -0.44 c -0.07 -0.16 -0.25 -0.18 -0.54 -0.05 l -0.16 0.07 l -1.35 -3.21 l -1.35 -3.21 l 0.29 -0.41 c 0.46 -0.63 0.82 -1.45 0.96 -2.2 c 0.02 -0.11 0.11 -0.13 1.18 -0.26 c 0.64 -0.08 1.18 -0.14 1.21 -0.13 c 0.03 0.01 0.11 0.25 0.18 0.54 c 0.4 1.7 1.34 2.82 2.68 3.21 l 0.4 0.12 l 0.08 0.56 c 0.31 2.04 0.47 2.64 0.99 3.65 c 0.2 0.38 0.49 0.88 0.66 1.11 c 0.16 0.23 0.31 0.43 0.32 0.45 c 0.01 0.02 -0.57 0.29 -1.29 0.61 l -1.3 0.57 m -0.49 -1.02 c 0 -0.08 -0.03 -0.21 -0.06 -0.29 c -0.04 -0.07 -0.11 -0.18 -0.17 -0.24 c -0.09 -0.09 -0.14 -0.09 -0.28 -0.01 c -0.15 0.08 -0.17 0.12 -0.14 0.3 c 0.02 0.13 0.07 0.27 0.15 0.37 c 0.11 0.14 0.15 0.15 0.31 0.1 c 0.15 -0.05 0.18 -0.09 0.18 -0.21 m 1.39 -1.85 c 0.09 -0.08 0.09 -0.13 0.02 -0.25 c -0.07 -0.13 -0.11 -0.14 -0.3 -0.11 c -0.14 0.03 -0.29 0.09 -0.41 0.18 c -0.16 0.11 -0.18 0.15 -0.14 0.3 c 0.04 0.14 0.08 0.16 0.21 0.15 c 0.2 -0.02 0.47 -0.14 0.61 -0.27 m -1.3 0.57 c 0.09 -0.08 0.09 -0.13 0.02 -0.25 c -0.07 -0.13 -0.11 -0.14 -0.3 -0.11 c -0.14 0.03 -0.3 0.09 -0.41 0.18 c -0.16 0.12 -0.18 0.16 -0.13 0.3 c 0.04 0.14 0.07 0.16 0.21 0.15 c 0.2 -0.02 0.47 -0.14 0.61 -0.27 m -1.3 0.57 c 0.09 -0.08 0.09 -0.13 0.02 -0.25 c -0.07 -0.13 -0.11 -0.14 -0.3 -0.11 c -0.14 0.03 -0.29 0.09 -0.41 0.18 c -0.16 0.12 -0.18 0.16 -0.14 0.3 c 0.04 0.14 0.08 0.16 0.21 0.15 c 0.2 -0.02 0.47 -0.14 0.61 -0.27 m 0.39 -1.24 c 0 -0.08 -0.03 -0.21 -0.06 -0.29 c -0.03 -0.08 -0.11 -0.19 -0.17 -0.25 c -0.09 -0.09 -0.13 -0.09 -0.28 -0.01 c -0.15 0.08 -0.16 0.12 -0.14 0.3 c 0.02 0.13 0.08 0.27 0.16 0.37 c 0.11 0.14 0.15 0.15 0.31 0.1 c 0.15 -0.05 0.18 -0.09 0.18 -0.21 m -0.49 -1.17 c 0 -0.08 -0.02 -0.21 -0.06 -0.29 c -0.03 -0.08 -0.11 -0.19 -0.16 -0.25 c -0.09 -0.09 -0.14 -0.09 -0.28 -0.01 c -0.15 0.08 -0.16 0.12 -0.14 0.3 c 0.02 0.13 0.07 0.27 0.15 0.37 c 0.11 0.14 0.15 0.15 0.31 0.1 c 0.16 -0.05 0.18 -0.09 0.18 -0.21 m 2.05 -2.14 c 0.09 -0.08 0.09 -0.13 0.02 -0.25 c -0.07 -0.13 -0.11 -0.14 -0.31 -0.11 c -0.14 0.03 -0.29 0.1 -0.41 0.18 c -0.16 0.12 -0.18 0.15 -0.13 0.3 c 0.04 0.14 0.07 0.16 0.21 0.15 c 0.2 -0.02 0.47 -0.14 0.61 -0.27 m -1.3 0.57 c 0.09 -0.08 0.09 -0.13 0.02 -0.25 c -0.07 -0.13 -0.11 -0.14 -0.3 -0.11 c -0.14 0.03 -0.29 0.09 -0.41 0.18 c -0.16 0.12 -0.18 0.15 -0.14 0.3 c 0.04 0.14 0.07 0.16 0.21 0.15 c 0.2 -0.02 0.47 -0.14 0.61 -0.27 m -1.3 0.57 c 0.09 -0.08 0.09 -0.13 0.02 -0.25 c -0.07 -0.13 -0.11 -0.14 -0.31 -0.11 c -0.14 0.03 -0.29 0.09 -0.41 0.18 c -0.16 0.11 -0.18 0.15 -0.13 0.3 c 0.04 0.14 0.07 0.16 0.21 0.15 c 0.2 -0.02 0.47 -0.14 0.61 -0.27 m -1.3 0.57 c 0.09 -0.08 0.09 -0.13 0.02 -0.25 c -0.07 -0.13 -0.11 -0.14 -0.3 -0.11 c -0.14 0.03 -0.29 0.09 -0.41 0.18 c -0.16 0.11 -0.18 0.15 -0.14 0.3 c 0.04 0.14 0.07 0.16 0.21 0.15 c 0.2 -0.02 0.47 -0.14 0.61 -0.27 m 1.05 -1.52 c 0 -0.08 -0.03 -0.21 -0.06 -0.29 c -0.04 -0.08 -0.11 -0.19 -0.17 -0.25 c -0.09 -0.09 -0.14 -0.09 -0.28 -0.01 c -0.15 0.08 -0.17 0.12 -0.14 0.3 c 0.02 0.13 0.07 0.27 0.15 0.37 c 0.11 0.14 0.15 0.15 0.31 0.1 c 0.15 -0.05 0.18 -0.09 0.18 -0.21 m -0.49 -1.17 c 0 -0.08 -0.03 -0.21 -0.06 -0.29 c -0.03 -0.08 -0.11 -0.19 -0.17 -0.25 c -0.09 -0.09 -0.13 -0.09 -0.28 -0.01 c -0.15 0.08 -0.17 0.12 -0.14 0.3 c 0.02 0.13 0.08 0.27 0.16 0.37 c 0.11 0.14 0.15 0.15 0.31 0.1 c 0.15 -0.05 0.18 -0.09 0.18 -0.21 m -0.49 -1.17 c 0 -0.08 -0.03 -0.21 -0.06 -0.29 c -0.03 -0.07 -0.11 -0.18 -0.17 -0.24 c -0.09 -0.09 -0.13 -0.09 -0.28 -0.01 c -0.15 0.08 -0.16 0.12 -0.14 0.3 c 0.02 0.13 0.08 0.27 0.16 0.36 c 0.11 0.14 0.15 0.16 0.31 0.1 c 0.15 -0.05 0.18 -0.09 0.18 -0.21 m -0.49 -1.17 c 0 -0.09 -0.02 -0.21 -0.06 -0.29 c -0.03 -0.08 -0.11 -0.19 -0.16 -0.24 c -0.09 -0.09 -0.14 -0.09 -0.28 -0.01 c -0.15 0.08 -0.16 0.12 -0.14 0.3 c 0.02 0.13 0.07 0.27 0.15 0.36 c 0.11 0.14 0.15 0.15 0.31 0.1 c 0.16 -0.05 0.18 -0.09 0.18 -0.21 m 0.15 11.54 c 0.06 -0.13 -0.97 -2.57 -1.1 -2.61 c -0.13 -0.04 -5.46 2.29 -5.52 2.41 c -0.05 0.13 0.97 2.57 1.1 2.61 c 0.13 0.04 5.46 -2.29 5.52 -2.41 m -2.71 0.56 c -0.11 -0.26 -0.25 -0.35 -0.43 -0.27 c -0.18 0.08 -0.22 0.25 -0.11 0.51 l 0.06 0.14 l -1.03 0.45 l -1.03 0.45 l -0.14 -0.34 l -0.14 -0.34 l 0.27 -0.12 c 0.4 -0.18 0.52 -0.3 0.45 -0.48 c -0.08 -0.18 -0.25 -0.18 -0.65 0 l -0.27 0.12 l -0.14 -0.34 l -0.14 -0.34 l 1.02 -0.45 l 1.02 -0.45 l 0.12 0.14 c 0.1 0.12 0.14 0.13 0.3 0.05 c 0.16 -0.07 0.18 -0.11 0.17 -0.26 l -0.02 -0.18 l 2.05 -0.9 l 0.14 0.34 l 0.14 0.34 l -0.27 0.12 c -0.4 0.18 -0.52 0.3 -0.44 0.48 c 0.07 0.18 0.25 0.18 0.65 0 l 0.27 -0.12 l 0.14 0.34 l 0.14 0.34 l -1.03 0.45 l -1.03 0.45 m 0.39 -1.04 c 0.09 -0.08 0.09 -0.13 0.02 -0.25 c -0.07 -0.13 -0.11 -0.14 -0.31 -0.11 c -0.14 0.03 -0.29 0.09 -0.41 0.18 c -0.16 0.12 -0.18 0.16 -0.13 0.3 c 0.04 0.14 0.07 0.16 0.21 0.15 c 0.2 -0.02 0.47 -0.14 0.61 -0.27 m -1.3 0.57 c 0.09 -0.08 0.09 -0.13 0.02 -0.25 c -0.07 -0.13 -0.11 -0.14 -0.3 -0.11 c -0.14 0.03 -0.29 0.09 -0.41 0.18 c -0.16 0.12 -0.18 0.16 -0.14 0.3 c 0.04 0.14 0.08 0.16 0.21 0.15 c 0.2 -0.02 0.47 -0.14 0.61 -0.27 m 1.58 -3.81 c 0.04 -0.18 -1.43 -6 -1.55 -6.18 c -0.05 -0.05 -0.26 -0.13 -0.48 -0.16 c -0.22 -0.04 -0.71 -0.16 -1.09 -0.26 c -0.42 -0.12 -0.85 -0.2 -1.11 -0.2 c -0.39 0 -0.45 0.01 -1.04 0.27 c -0.6 0.26 -0.64 0.29 -0.91 0.59 c -0.18 0.19 -0.42 0.56 -0.63 0.96 c -0.19 0.35 -0.44 0.8 -0.57 0.98 c -0.13 0.19 -0.22 0.4 -0.21 0.47 c 0.02 0.18 3.17 5.3 3.32 5.4 l 0.12 0.08 l 2.06 -0.9 l 2.06 -0.9 m -4.07 1.08 c -0.05 -0.08 -0.73 -1.19 -1.52 -2.46 l -1.43 -2.32 l 0.14 -0.23 c 0.08 -0.13 0.27 -0.47 0.43 -0.76 c 0.58 -1.08 0.76 -1.29 1.38 -1.56 c 0.62 -0.27 0.89 -0.27 2.06 0.05 c 0.31 0.08 0.69 0.18 0.84 0.21 l 0.26 0.06 l 0.66 2.65 c 0.36 1.46 0.68 2.73 0.7 2.82 l 0.04 0.17 l -1.73 0.76 l -1.73 0.76 m 1.75 -1.32 c 0 -0.09 -0.02 -0.21 -0.06 -0.29 c -0.03 -0.07 -0.11 -0.19 -0.16 -0.24 c -0.09 -0.09 -0.14 -0.09 -0.28 -0.01 c -0.15 0.08 -0.17 0.12 -0.14 0.3 c 0.02 0.13 0.07 0.27 0.15 0.36 c 0.11 0.14 0.15 0.15 0.31 0.1 c 0.16 -0.05 0.18 -0.09 0.18 -0.21 m -0.49 -1.17 c 0 -0.09 -0.03 -0.21 -0.06 -0.29 c -0.04 -0.08 -0.11 -0.19 -0.17 -0.25 c -0.09 -0.09 -0.14 -0.09 -0.28 -0.01 c -0.15 0.08 -0.17 0.12 -0.14 0.3 c 0.02 0.13 0.07 0.27 0.15 0.36 c 0.11 0.14 0.15 0.15 0.31 0.1 c 0.15 -0.05 0.18 -0.09 0.18 -0.21 m -0.49 -1.17 c 0 -0.08 -0.03 -0.21 -0.06 -0.29 c -0.03 -0.08 -0.11 -0.19 -0.17 -0.25 c -0.09 -0.09 -0.13 -0.09 -0.28 -0.01 c -0.15 0.08 -0.17 0.12 -0.14 0.3 c 0.02 0.13 0.08 0.27 0.16 0.37 c 0.11 0.14 0.15 0.15 0.31 0.1 c 0.15 -0.05 0.18 -0.09 0.18 -0.21 m -0.49 -1.17 c 0 -0.08 -0.03 -0.21 -0.06 -0.29 c -0.03 -0.08 -0.11 -0.19 -0.17 -0.25 c -0.09 -0.09 -0.13 -0.09 -0.28 -0.01 c -0.15 0.08 -0.16 0.12 -0.14 0.3 c 0.02 0.13 0.08 0.27 0.16 0.37 c 0.11 0.14 0.15 0.15 0.31 0.1 c 0.15 -0.05 0.18 -0.09 0.18 -0.21 m 1.39 -1.85 c 0.08 -0.07 0.09 -0.14 0.04 -0.25 c -0.08 -0.18 -0.32 -0.18 -0.55 -0.01 c -0.12 0.09 -0.14 0.14 -0.1 0.28 c 0.04 0.14 0.08 0.16 0.21 0.15 c 0.19 -0.02 0.25 -0.04 0.39 -0.18 m -1.08 0.47 c 0.09 -0.08 0.09 -0.13 0.02 -0.25 c -0.07 -0.13 -0.11 -0.14 -0.31 -0.11 c -0.13 0.02 -0.29 0.09 -0.41 0.18 c -0.16 0.12 -0.18 0.16 -0.13 0.3 c 0.04 0.14 0.07 0.16 0.21 0.15 c 0.2 -0.02 0.47 -0.14 0.61 -0.27 m -1.3 0.57 c 0.09 -0.08 0.09 -0.13 0.02 -0.25 c -0.07 -0.13 -0.11 -0.14 -0.3 -0.11 c -0.14 0.02 -0.29 0.09 -0.41 0.18 c -0.16 0.12 -0.18 0.16 -0.14 0.3 c 0.04 0.14 0.08 0.16 0.21 0.15 c 0.2 -0.02 0.47 -0.14 0.61 -0.27 m -1.31 0.57 c 0.08 -0.07 0.09 -0.14 0.04 -0.25 c -0.08 -0.18 -0.32 -0.19 -0.55 -0.01 c -0.12 0.09 -0.14 0.14 -0.1 0.28 c 0.04 0.14 0.08 0.16 0.21 0.15 c 0.19 -0.02 0.25 -0.05 0.39 -0.18 m 1.56 -1.52 c 0 -0.08 -0.02 -0.21 -0.06 -0.29 c -0.03 -0.08 -0.11 -0.19 -0.16 -0.25 c -0.09 -0.09 -0.14 -0.09 -0.28 -0.01 c -0.15 0.08 -0.17 0.12 -0.14 0.3 c 0.02 0.13 0.07 0.27 0.15 0.37 c 0.11 0.14 0.15 0.15 0.31 0.1 c 0.16 -0.05 0.18 -0.09 0.18 -0.21"/></svg>