<svg xmlns="http://www.w3.org/2000/svg" viewBox="0 0 32 32"><path d="m 0.41 19.66 c 6.25 29.98 49.2 -2.21 23.41 -17.45 c -10 -6.54 -26.63 2.03 -23.41 17.45" style="fill:#bc162f"/><path d="m 19.67 8.78 l 0.04 0.03 l 0.09 -0.03 m 0.96 1.01 l 5.95 5.54 v -5.54" style="fill-opacity:0.2"/><g style="fill:#fff"><path d="m 19.84 3.15 l 7 6.55 h -5.95 c -0.52 0 -1.08 -0.52 -1.08 -1.01 v -5.54" style="fill-opacity:0.39"/><path d="m 12.86 24 c -1.59 -1.13 -3.52 -2.16 -4.93 -3.27 l -0.03 -2.43 c -0.02 -1.34 -0.06 -2.45 -0.09 -2.48 c -0.04 -0.03 -1.04 -0.06 -2.24 -0.07 l -2.18 -0.02 l -0.23 -0.23 c -0.32 -0.32 -0.28 -0.88 0.07 -1.04 c 0.07 -0.03 1.13 -0.05 2.36 -0.05 h 2.23 c 0.05 -0.17 -0.04 -0.42 0.05 -0.57 c 0.77 0.22 1.49 0.66 2.18 1 c 1.27 0.64 2.53 1.25 3.83 1.92 c 0.41 0.21 0.58 0.4 0.63 0.51 c 0.1 0.23 -0.02 7.68 -0.13 7.71 c -0.04 0.02 -0.68 -0.44 -1.55 -1 m -0.82 -4.76 c 0 -0.52 -0.56 -1.17 -1 -1.17 c -0.37 0 -0.77 0.31 -0.91 0.71 c -0.25 0.07 -0.54 0.05 -0.9 0.04 c -0.07 -0.06 -0.09 -0.6 -0.09 -2 c 0 -1.45 -0.02 -1.94 -0.1 -1.99 c -0.05 -0.04 -0.35 -0.09 -0.66 -0.11 c -0.63 -0.04 -0.73 0.01 -0.73 0.41 c 0 0.3 0.14 0.45 0.39 0.45 h 0.23 v 1.98 c 0 1.6 0.02 1.99 0.11 2.05 c 0.07 0.05 0.43 0.07 0.96 0.1 l 0.77 0.04 l -0.02 -0.46 l -0.03 -0.36 h 0.45 c 0.5 0 0.74 0.12 0.74 0.37 c 0 0.26 -0.23 0.39 -0.69 0.39 c -0.4 0 -0.42 0.01 -0.37 0.16 c 0.07 0.23 0.51 0.54 0.76 0.54 c 0.57 -0.02 1.06 -0.62 1.08 -1.13 m 3.11 5.67 c -0.03 -0.02 -0.05 -1.75 -0.05 -3.84 v -3.8 c 1.02 -0.67 2.03 -1.13 2.9 -1.57 c 3.4 -1.71 3.61 -1.81 3.73 -1.77 c 0.09 0.03 0.11 0.58 0.11 3.41 c 0 3.11 -0.01 3.38 -0.14 3.51 c -1.93 1.35 -3.62 2.36 -5.7 3.75 c -0.51 0.34 -0.73 0.42 -0.86 0.31 m -0.58 -8.23 c -0.14 -0.2 -1.19 -1.02 -2.1 -1.55 c -1.4 -0.81 -2.59 -1.26 -3.8 -1.51 c -0.31 -0.06 -0.65 -0.13 -0.68 -0.2 c -0.06 -0.14 0.8 -0.87 1.63 -1.35 c 1.31 -0.77 2.36 -1.14 3.81 -1.33 c 1 -0.14 1.76 -0.14 2.78 0 c 1.48 0.2 2.45 0.52 3.74 1.27 c 0.75 0.43 1.76 1.27 1.71 1.41 c -0.02 0.05 -0.17 0.12 -0.34 0.16 c -0.9 0.18 -2.23 0.55 -3.19 1.04 c -1.11 0.56 -2.34 1.46 -2.84 1.92 c -0.34 0.32 -0.58 0.36 -0.73 0.15"/></g></svg>