<svg xmlns="http://www.w3.org/2000/svg" viewBox="0 0 32 32"><path d="m 0.41 19.66 c 6.25 29.98 49.2 -2.21 23.41 -17.45 c -10 -6.54 -26.63 2.03 -23.41 17.45" style="fill:#ffa400"/><path d="m 19.24 8.95 l 0.03 0.03 l 0.09 -0.03 m 0.96 1.01 l 5.94 5.54 v -5.54" style="fill-opacity:0.2"/><g style="fill:#fff"><path d="m 19.24 3.41 l 7 6.55 h -5.94 c -0.53 0 -1.08 -0.52 -1.08 -1.01 v -5.54" style="fill-opacity:0.39"/><path d="m 14.17 24.46 c -0.77 -0.13 -1.46 -0.73 -1.96 -1.69 l -0.18 -0.36 l -0.37 0.03 c -0.2 0.02 -0.63 0.03 -0.94 0.02 c -2.3 -0.02 -3.2 -0.96 -2.14 -2.24 c 0.34 -0.41 1.25 -1.08 1.91 -1.41 l 0.21 -0.11 l -0.33 -0.21 c -1.34 -0.88 -2.46 -2 -2.95 -2.97 c -0.23 -0.46 -0.31 -0.75 -0.29 -1.14 c 0.04 -0.66 0.45 -1.05 1.21 -1.15 c 0.74 -0.1 1.86 0.16 3.04 0.72 l 0.55 0.26 v -0.19 c 0 -0.27 0.09 -0.61 0.26 -0.94 c 0.18 -0.36 0.65 -0.84 1.02 -1.03 c 1.52 -0.81 3.43 -0.01 3.82 1.61 c 0.03 0.13 0.05 0.3 0.05 0.39 v 0.16 l 0.46 -0.22 c 1.2 -0.57 2.37 -0.86 3.13 -0.76 c 0.75 0.1 1.17 0.5 1.21 1.15 c 0.07 1.1 -1.17 2.69 -3.16 4.05 l -0.4 0.27 l 0.2 0.1 c 0.53 0.26 1.31 0.81 1.71 1.21 c 1.09 1.07 0.77 2.02 -0.8 2.34 c -0.46 0.09 -1.23 0.13 -1.8 0.09 c -0.27 -0.02 -0.54 -0.04 -0.59 -0.04 c -0.08 0 -0.12 0.05 -0.29 0.36 c -0.48 0.93 -1.14 1.51 -1.88 1.66 c -0.28 0.06 -0.44 0.06 -0.71 0.02 m 0.79 -0.76 c 0.13 -0.04 0.31 -0.13 0.39 -0.18 c 0.18 -0.12 0.61 -0.54 0.61 -0.6 c 0 -0.04 -0.38 -0.16 -0.72 -0.23 c -0.3 -0.06 -1.17 -0.06 -1.47 0 c -0.37 0.07 -0.71 0.2 -0.71 0.25 c 0 0.07 0.42 0.48 0.62 0.61 c 0.41 0.25 0.86 0.31 1.29 0.17 m -3.07 -1.72 c -0.07 -0.19 -0.19 -0.71 -0.25 -1.13 c -0.07 -0.46 -0.08 -1.63 -0.02 -2 c 0.02 -0.13 0.03 -0.25 0.03 -0.25 c -0.03 -0.02 -0.4 0.16 -0.73 0.35 c -1.27 0.75 -1.89 1.52 -1.74 2.15 c 0.14 0.61 0.99 0.98 2.26 0.99 h 0.49 m 6.38 -0.05 c 0.42 -0.07 0.64 -0.13 0.9 -0.26 c 0.63 -0.31 0.8 -0.79 0.49 -1.41 c -0.19 -0.38 -0.84 -0.97 -1.5 -1.36 c -0.32 -0.19 -0.81 -0.43 -0.83 -0.41 c -0.01 0.01 0 0.17 0.02 0.35 c 0.1 0.83 0.03 1.84 -0.19 2.68 c -0.06 0.25 -0.12 0.45 -0.12 0.46 c 0 0.04 0.94 0 1.22 -0.05 m -5.4 -0.24 c 0.53 -0.26 0.9 -0.35 1.55 -0.38 c 0.43 -0.01 0.59 0 0.82 0.05 c 0.31 0.07 0.67 0.22 0.97 0.4 c 0.11 0.06 0.21 0.1 0.22 0.09 c 0.04 -0.03 0.23 -0.71 0.23 -0.79 c 0 -0.02 -0.16 -0.12 -0.36 -0.21 c -1.16 -0.56 -2.5 -0.56 -3.66 0 c -0.36 0.17 -0.36 0.18 -0.34 0.29 c 0.02 0.14 0.19 0.73 0.2 0.73 c 0 0 0.18 -0.08 0.38 -0.18 m -0.13 -2.11 c 0.29 -0.19 0.65 -0.35 0.96 -0.43 c 0.34 -0.09 1.07 -0.11 1.38 -0.04 c 0.52 0.12 0.99 0.36 1.42 0.73 c 0.12 0.1 0.23 0.19 0.25 0.19 c 0.03 0 -0.01 -0.74 -0.05 -1 c -0.02 -0.12 -0.05 -0.16 -0.26 -0.3 c -0.64 -0.44 -1.23 -0.63 -1.96 -0.63 c -0.63 0 -1.03 0.09 -1.6 0.37 c -0.19 0.09 -0.41 0.23 -0.5 0.31 c -0.15 0.13 -0.16 0.16 -0.2 0.42 c -0.02 0.16 -0.04 0.41 -0.04 0.56 v 0.28 l 0.2 -0.17 c 0.11 -0.09 0.29 -0.21 0.38 -0.28 m -1.31 -1.33 c 0.24 -0.11 0.25 -0.12 0.28 -0.27 c 0.04 -0.23 0.27 -0.88 0.43 -1.21 c 0.08 -0.16 0.23 -0.41 0.34 -0.57 l 0.2 -0.29 l -0.18 -0.2 c -0.1 -0.11 -0.26 -0.36 -0.36 -0.54 l -0.18 -0.35 l -0.36 -0.17 c -0.78 -0.37 -1.42 -0.54 -2.08 -0.53 c -0.36 0 -0.49 0.02 -0.67 0.08 c -0.58 0.21 -0.86 0.7 -0.71 1.26 c 0.16 0.62 0.77 1.35 1.75 2.09 c 0.48 0.36 1.15 0.81 1.22 0.81 c 0.04 0 0.18 -0.05 0.32 -0.11 m 6.86 -0.18 c 1.22 -0.81 2.09 -1.66 2.39 -2.34 c 0.05 -0.12 0.09 -0.29 0.1 -0.5 c 0.02 -0.28 0.01 -0.33 -0.09 -0.52 c -0.12 -0.24 -0.3 -0.39 -0.63 -0.51 c -0.18 -0.07 -0.3 -0.09 -0.66 -0.09 c -0.5 0 -0.73 0.04 -1.29 0.21 c -0.44 0.14 -1.15 0.47 -1.2 0.55 c -0.02 0.03 -0.08 0.17 -0.15 0.31 c -0.07 0.14 -0.21 0.36 -0.32 0.49 l -0.21 0.24 l 0.14 0.19 c 0.3 0.41 0.65 1.19 0.82 1.86 c 0.04 0.15 0.06 0.17 0.28 0.27 c 0.13 0.06 0.27 0.11 0.31 0.11 c 0.04 0 0.27 -0.13 0.5 -0.29 m -5.42 -0.7 c 0.95 -0.62 2.26 -0.61 3.21 0.02 c 0.08 0.05 0.16 0.09 0.16 0.09 c 0.01 -0.01 -0.07 -0.15 -0.17 -0.31 c -0.25 -0.41 -0.65 -0.8 -0.99 -0.97 c -0.25 -0.12 -0.3 -0.13 -0.62 -0.13 c -0.31 0 -0.38 0.02 -0.61 0.12 c -0.3 0.14 -0.62 0.42 -0.86 0.75 c -0.16 0.22 -0.35 0.55 -0.31 0.55 c 0.01 0 0.09 -0.05 0.19 -0.12 m 0.15 -2.74 c 0.15 -0.16 0.22 -0.39 0.22 -0.74 c 0 -0.36 -0.05 -0.55 -0.19 -0.71 c -0.28 -0.32 -0.64 -0.01 -0.69 0.6 c -0.04 0.39 0.05 0.64 0.29 0.81 c 0.1 0.07 0.2 0.13 0.23 0.14 c 0.02 0 0.09 -0.05 0.14 -0.1 m 3.23 -0.04 c 0.25 -0.16 0.3 -0.29 0.3 -0.69 c 0 -0.64 -0.32 -1.03 -0.63 -0.78 c -0.32 0.26 -0.35 1.18 -0.05 1.5 c 0.06 0.06 0.12 0.11 0.14 0.11 c 0.02 0 0.13 -0.06 0.23 -0.14"/></g></svg>