<svg xmlns="http://www.w3.org/2000/svg" viewBox="0 0 32 32"><path d="m 0.41 19.66 c 6.25 29.98 49.2 -2.21 23.41 -17.45 c -10 -6.54 -26.63 2.03 -23.41 17.45" style="fill:#dcdcdc"/><path d="m 19.24 8.95 l 0.03 0.03 l 0.09 -0.03 m 0.96 1.01 l 5.94 5.54 v -5.54" style="fill-opacity:0.2"/><path d="m 19.24 3.41 l 7 6.55 h -5.94 c -0.53 0 -1.08 -0.52 -1.08 -1.01 v -5.54" style="fill:#fff;fill-opacity:0.39"/><path d="m 13.8 16.54 v -1.64 c 0 -0.18 0.16 -0.33 0.34 -0.33 h 1.19 c 0.19 0 0.34 0.15 0.34 0.33 v 3 c 0 0.04 -0.02 0.08 -0.05 0.11 l -0.3 0.29 c -0.07 0.07 -0.07 0.17 0 0.23 l 0.3 0.29 c 0.04 0.03 0.05 0.07 0.05 0.11 v 1.64 c 0 0.18 -0.15 0.33 -0.34 0.33 h -1.19 c -0.19 0 -0.34 -0.15 -0.34 -0.33 v -3 c 0 -0.05 0.02 -0.08 0.05 -0.11 l 0.3 -0.29 c 0.07 -0.07 0.07 -0.17 0 -0.23 l -0.3 -0.29 c -0.04 -0.04 -0.05 -0.07 -0.05 -0.11 m 5.36 1.2 c 0 -2.37 -1.98 -4.29 -4.44 -4.29 c -2.45 0 -4.43 1.92 -4.43 4.29 c 0 2.38 1.98 4.3 4.43 4.3 c 2.45 0 4.44 -1.92 4.44 -4.3 m 1.4 0 c 0 3.12 -2.62 5.64 -5.83 5.64 c -3.22 0 -5.82 -2.54 -5.82 -5.64 c 0 -3.12 2.61 -5.64 5.82 -5.64 c 3.21 0 5.83 2.52 5.83 5.64 m -12.83 0 c 0 3.75 3.13 6.77 6.99 6.77 c 3.87 0 7 -3 7 -6.77 c 0 -3.74 -3.13 -6.77 -7 -6.77 c -3.86 0 -6.99 3 -6.99 6.77 m -0.48 0 c 0 -4 3.34 -7.23 7.47 -7.23 c 4.13 0 7.47 3.23 7.47 7.23 c 0 4 -3.34 7.23 -7.47 7.23 c -4.13 0 -7.47 -3.23 -7.47 -7.23" style="fill:#777"/></svg>