<svg xmlns="http://www.w3.org/2000/svg" viewBox="0 0 32 32"><path d="m 0.41 19.66 c 6.25 29.98 49.2 -2.21 23.41 -17.45 c -10 -6.54 -26.63 2.03 -23.41 17.45" style="fill:#dcdcdc"/><path d="m 19.24 8.95 l 0.03 0.03 l 0.09 -0.03 m 0.96 1.01 l 5.94 5.54 v -5.54" style="fill-opacity:0.2"/><path d="m 19.24 3.41 l 7 6.55 h -5.94 c -0.53 0 -1.08 -0.52 -1.08 -1.01 v -5.54" style="fill:#fff;fill-opacity:0.39"/><g style="fill:#7f7f7f"><path d="m 6.55 14.74 h 0.53 l 0.66 3.95 l 0.66 -3.95 h 0.62 l 0.66 3.95 l 0.66 -3.95 h 0.53 l -0.84 5.06 h -0.62 l -0.69 -4.15 l -0.69 4.15 h -0.62"/><path d="m 13.1 17.26 c -0.43 0 -0.72 0.07 -0.88 0.23 c -0.16 0.15 -0.25 0.41 -0.25 0.79 c 0 0.3 0.06 0.53 0.18 0.71 c 0.12 0.17 0.29 0.26 0.5 0.26 c 0.29 0 0.52 -0.16 0.7 -0.49 c 0.18 -0.33 0.27 -0.77 0.27 -1.31 v -0.18 m 0.53 -0.34 v 2.89 h -0.53 v -0.77 c -0.12 0.3 -0.27 0.53 -0.45 0.68 c -0.18 0.14 -0.4 0.22 -0.66 0.22 c -0.33 0 -0.59 -0.14 -0.79 -0.43 c -0.2 -0.29 -0.29 -0.68 -0.29 -1.17 c 0 -0.57 0.12 -1 0.36 -1.29 c 0.24 -0.29 0.61 -0.43 1.08 -0.43 h 0.74 v -0.08 c 0 -0.38 -0.08 -0.68 -0.24 -0.88 c -0.16 -0.21 -0.38 -0.32 -0.67 -0.32 c -0.18 0 -0.36 0.03 -0.54 0.1 c -0.17 0.07 -0.34 0.18 -0.5 0.31 v -0.77 c 0.19 -0.12 0.38 -0.2 0.56 -0.26 c 0.18 -0.06 0.36 -0.09 0.53 -0.09 c 0.46 0 0.81 0.19 1.04 0.57 c 0.23 0.38 0.34 0.95 0.34 1.73"/><path d="m 17.29 14.89 v 0.79 c -0.15 -0.12 -0.3 -0.21 -0.46 -0.27 c -0.16 -0.06 -0.33 -0.09 -0.5 -0.09 c -0.26 0 -0.46 0.06 -0.59 0.19 c -0.13 0.13 -0.2 0.32 -0.2 0.57 c 0 0.19 0.05 0.34 0.14 0.46 c 0.09 0.11 0.28 0.21 0.56 0.31 l 0.18 0.07 c 0.37 0.13 0.64 0.3 0.79 0.54 c 0.16 0.23 0.24 0.55 0.24 0.96 c 0 0.47 -0.12 0.84 -0.36 1.12 c -0.23 0.27 -0.56 0.41 -0.97 0.41 c -0.17 0 -0.35 -0.03 -0.54 -0.08 c -0.18 -0.05 -0.38 -0.13 -0.59 -0.23 v -0.86 c 0.2 0.16 0.39 0.28 0.57 0.36 c 0.19 0.08 0.38 0.12 0.56 0.12 c 0.25 0 0.44 -0.07 0.57 -0.2 c 0.14 -0.14 0.2 -0.33 0.2 -0.57 c 0 -0.23 -0.05 -0.4 -0.15 -0.52 c -0.09 -0.12 -0.3 -0.24 -0.63 -0.35 l -0.18 -0.07 c -0.32 -0.11 -0.56 -0.27 -0.71 -0.5 c -0.14 -0.23 -0.21 -0.54 -0.21 -0.93 c 0 -0.48 0.11 -0.84 0.32 -1.1 c 0.21 -0.26 0.52 -0.39 0.91 -0.39 c 0.2 0 0.38 0.02 0.55 0.07 c 0.17 0.05 0.33 0.11 0.47 0.2"/><path d="m 20.79 15.71 c 0.13 -0.38 0.29 -0.65 0.47 -0.83 c 0.18 -0.18 0.4 -0.27 0.65 -0.27 c 0.33 0 0.59 0.19 0.77 0.55 c 0.18 0.37 0.27 0.89 0.27 1.57 v 3.05 h -0.53 v -3 c 0 -0.48 -0.05 -0.84 -0.16 -1.08 c -0.11 -0.23 -0.28 -0.35 -0.5 -0.35 c -0.27 0 -0.49 0.14 -0.64 0.43 c -0.16 0.29 -0.24 0.68 -0.24 1.17 v 2.86 h -0.53 v -3 c 0 -0.49 -0.05 -0.85 -0.16 -1.08 c -0.11 -0.23 -0.27 -0.35 -0.5 -0.35 c -0.27 0 -0.48 0.14 -0.64 0.43 c -0.16 0.29 -0.24 0.68 -0.24 1.17 v 2.86 h -0.53 v -5.06 h 0.53 v 0.79 c 0.12 -0.31 0.27 -0.54 0.43 -0.69 c 0.17 -0.15 0.37 -0.22 0.6 -0.22 c 0.23 0 0.43 0.09 0.59 0.28 c 0.16 0.19 0.29 0.46 0.36 0.81"/></g></svg>