<svg xmlns="http://www.w3.org/2000/svg" viewBox="0 0 32 32"><path d="m 0.41 19.66 c 6.25 29.98 49.2 -2.21 23.41 -17.45 c -10 -6.54 -26.63 2.03 -23.41 17.45" style="fill:#dcdcdc"/><path d="m 20.42 8.39 l 0.03 0.03 l 0.09 -0.03 m 0.96 1.01 l 5.94 5.54 v -5.54" style="fill-opacity:0.2"/><path d="m 20.47 2.85 l 7 6.55 h -5.94 c -0.53 0 -1.08 -0.52 -1.08 -1.01 v -5.54" style="fill:#fff;fill-opacity:0.39"/><path d="m 11.25 24.94 c -0.03 -0.15 -0.07 -0.68 -0.09 -0.94 l -0.03 -0.48 l -0.9 -0.07 c -1.45 -0.11 -1.34 0.45 -1.3 -6.5 c 0.03 -5.66 0.04 -5.89 0.25 -6.1 c 0.33 -0.25 10.33 -0.25 10.66 0 c 0.21 0.16 0.22 0.37 0.25 4.81 c 0.03 3.96 0.01 4.71 -0.14 5.08 c -0.22 0.55 -0.23 1.09 -0.01 1.63 c 0.16 0.39 0.15 0.45 -0.05 0.7 c -0.21 0.27 -0.26 0.28 -2.95 0.34 l -2.73 0.06 l -0.03 0.88 c -0.02 0.89 -0.31 0.81 -0.95 0.21 c -0.25 -0.23 -0.5 -0.43 -0.57 -0.43 c -0.06 0 -0.31 0.19 -0.56 0.42 c -0.51 0.48 -0.79 0.72 -0.87 0.34 m -0.06 -3.14 l 0.07 -0.3 c 0.95 0 1.89 0 2.84 0 c 0.04 0.2 0.09 0.39 0.13 0.59 l 2.14 0.03 l 2.14 0.04 c 0 -0.4 0 -0.8 0 -1.2 l -4.15 0.03 l -4.15 0.03 l -0.04 0.4 c -0.05 0.63 0.04 0.75 0.52 0.71 c 0.35 -0.03 0.44 -0.09 0.49 -0.33 m 7.45 -2.14 c 0.21 -0.12 0.22 -0.29 0.22 -3.79 c 0 -2.69 -0.04 -3.7 -0.14 -3.8 c -0.2 -0.21 -7.2 -0.21 -7.4 0 c -0.1 0.1 -0.14 1.1 -0.14 3.74 c 0 3.11 0.02 3.62 0.18 3.78 c 0.16 0.16 0.64 0.19 3.61 0.19 c 2.15 0 3.52 -0.05 3.66 -0.12 m -6.5 -0.73 c -0.2 -0.2 -0.18 -0.99 0.02 -1.16 c 0.09 -0.08 0.39 -0.13 0.66 -0.1 l 0.49 0.04 c 0.1 0.47 0.1 1.07 0 1.31 c -0.33 -0.01 -0.92 0.16 -1.17 -0.08 m 0.05 -2.37 c -0.23 -0.14 -0.28 -1.05 -0.06 -1.27 c 0.08 -0.08 0.32 -0.14 0.55 -0.14 c 0.54 0 0.69 0.18 0.69 0.79 c 0 0.38 -0.05 0.54 -0.22 0.63 c -0.31 0.11 -0.7 0.14 -0.95 -0.01 m -0.01 -2.52 c -0.15 -0.12 -0.19 -0.29 -0.16 -0.68 c 0.03 -0.45 0.08 -0.54 0.35 -0.64 c 0.2 -0.07 0.43 -0.07 0.63 0 c 0.27 0.1 0.32 0.19 0.35 0.63 c 0.02 0.28 -0.02 0.59 -0.1 0.68 c -0.17 0.21 -0.8 0.22 -1.07 0.02" style="fill:#7f7f7f"/></svg>