<svg xmlns="http://www.w3.org/2000/svg" viewBox="0 0 32 32"><path d="m 0.41 19.66 c 6.25 29.98 49.2 -2.21 23.41 -17.45 c -10 -6.54 -26.63 2.03 -23.41 17.45" style="fill:#a16884"/><path d="m 19.24 8.95 l 0.03 0.03 l 0.09 -0.03 m 0.96 1.01 l 5.94 5.54 v -5.54" style="fill-opacity:0.2"/><g style="fill:#fff"><path d="m 19.24 3.41 l 7 6.55 h -5.94 c -0.53 0 -1.08 -0.52 -1.08 -1.01 v -5.54" style="fill-opacity:0.39"/><path d="m 12.5 24.66 c -1.71 -0.6 -3.99 -1.48 -4.12 -1.59 c -0.23 -0.2 -0.4 -0.91 -0.42 -1.72 c -0.01 -0.44 -0.02 -0.84 -0.02 -0.88 c 0 -0.04 -0.16 -0.18 -0.35 -0.31 c -0.78 -0.56 -0.98 -0.99 -0.93 -2 c 0.03 -0.49 0.08 -0.77 0.18 -0.99 c 0.18 -0.38 0.29 -0.47 0.91 -0.82 c 0.28 -0.16 0.55 -0.35 0.59 -0.43 c 0.05 -0.08 0.14 -0.48 0.2 -0.9 c 0.15 -1.06 0.21 -1.19 0.7 -1.43 c 0.6 -0.3 2 -0.85 3.57 -1.39 c 1.64 -0.57 1.79 -0.58 3 -0.19 c 0.86 0.28 4.39 1.57 4.41 1.62 c -0.11 1.03 -0.52 1.59 0.02 3.16 c -0.02 0.06 -0.36 0.28 -0.76 0.48 c -0.39 0.2 -0.82 0.44 -0.96 0.52 c -0.62 0.4 -0.27 1.38 0.68 1.88 c 0.55 0.29 0.8 0.52 0.46 1.07 c -0.32 0.52 -0.43 1.14 -0.01 1.46 c 0.56 0.44 0.16 0.79 -0.23 1 c -0.67 0.36 -4.68 1.85 -5.23 1.95 c -0.19 0.04 -0.57 -0.07 -1.71 -0.47 m 3.56 -0.77 c 2.14 -0.77 2.88 -1.1 3.05 -1.39 c -0.23 -0.7 0.04 -1.15 -0.11 -1.82 c -0.05 -0.21 0.11 -0.16 -0.22 -0.12 c -0.41 0.05 -2.44 0.73 -3.71 1.25 c -0.92 0.38 -1.15 0.54 -1.38 1.01 c -0.16 0.33 -0.52 0.1 -0.7 -0.09 c -0.29 -0.28 -3.83 -1.71 -4.3 -1.76 c -0.21 -0.02 -0.21 -0.02 -0.23 0.41 c -0.02 0.3 0.17 0.95 0.24 1.07 c 0.14 0.23 1.22 0.58 2.73 1.32 c 3.07 1.52 1.34 -0.87 1.81 -1.36 c 0.23 -0.24 0.29 1.45 0.55 1.78 c 0.16 0.2 0.32 0.37 0.34 0.37 c 0.02 0 0.89 -0.3 1.94 -0.68 m -2.29 -2.8 c 0.71 -0.21 3.84 -1.18 4.19 -1.37 c 0.44 -0.23 0 -0.41 -0.01 -0.93 c -0.02 -0.54 0.08 -0.83 -0.12 -0.83 c -0.08 0 -0.84 0.22 -1.46 0.44 c -0.77 0.39 -1.48 0.39 -2.32 0.39 c -0.69 0.21 -0.94 0.21 -1.48 0.29 l -0.4 1.17 l -0.23 -1.08 c -0.7 -0.4 -3.73 -1.55 -4.34 -1.65 c -0.25 -0.04 -0.32 -0.02 -0.46 0.11 c -0.14 0.15 -0.15 0.22 -0.12 0.68 c 0.05 0.66 0.17 0.84 0.84 1.2 c 0.59 0.31 3.08 1.27 3.89 1.48 c 0.5 0.13 -0.32 -2.45 0.42 -1.5 c 0.18 0.66 -0.11 1.33 0.48 1.77 c 0.17 0.09 0.23 0.09 1.1 -0.18 m 2.26 -3.21 c 1.12 -0.38 2.68 -0.96 3.2 -1.21 c 0.46 -0.21 0.22 -0.18 0.27 -1.09 c 0.05 -1.1 0.32 -1.43 -0.89 -1.06 c -0.66 0.2 -2.87 1.05 -3.51 1.36 c -0.42 0.2 -0.54 0.3 -0.66 0.54 c -0.3 0.61 -0.28 1.39 0.03 1.71 c 0.2 0.21 0.17 0.22 1.57 -0.25 m -2.25 -0.19 c 0.04 -0.05 0.1 -0.31 0.13 -0.57 c 0.04 -0.36 0.02 -0.48 -0.05 -0.54 c -0.12 -0.08 -3.08 -1.11 -3.94 -1.37 c -0.86 -0.26 -0.9 -0.25 -0.9 0.09 c 0 0.6 0.31 0.86 1.61 1.37 c 0.76 0.3 2.95 1.09 3.04 1.1 c 0.02 0 0.08 -0.04 0.13 -0.09 m -3.47 -0.26 c 0 -0.14 -1.82 -0.88 -1.99 -0.92 c -0.17 -0.05 -0.56 0.13 -0.62 0.28 c -0.05 0.15 0.3 0.09 0.76 0.25 c 0.5 0.17 1.85 0.53 1.85 0.4"/></g></svg>