<svg xmlns="http://www.w3.org/2000/svg" xmlns:xlink="http://www.w3.org/1999/xlink" viewBox="0 0 32 32"><defs><g id="3" style="clip-path:url(#2)"><path d="m 156 127.1 c -2.64 -4.6 -4.76 -8.46 -4.76 -8.6 c 0 -0.11 2.19 -3.93 4.83 -8.5 l 4.79 -8.29 h 19.35 l 4.62 8.11 c 2.54 4.42 4.69 8.22 4.79 8.39 c 0.14 0.21 -1.04 2.49 -4.45 8.46 c -2.54 4.49 -4.76 8.32 -4.9 8.5 c -0.24 0.28 -1.56 0.32 -9.93 0.32 h -9.66" transform="matrix(0.112 0 0 0.111 -4.35 4.66)" style="fill:#fff;stroke:#0c0606;stroke-width:0.67"/></g><clipPath id="2"><path d="M 0,0 H32 V32 H0 z"/></clipPath><filter id="0" filterUnits="objectBoundingBox" x="0" y="0" width="32" height="32"><feColorMatrix type="matrix" in="SourceGraphic" values="0 0 0 0 1 0 0 0 0 1 0 0 0 0 1 0 0 0 1 0"/></filter><mask id="1"><g style="filter:url(#0)"><path d="M 0,0 H32 V32 H0 z" style="fill-opacity:0.98"/></g></mask></defs><path d="m 0.41 19.66 c 6.25 29.98 49.2 -2.21 23.41 -17.45 c -10 -6.54 -26.63 2.03 -23.41 17.45" style="fill:#31cd31"/><path d="m 19.24 8.95 l 0.03 0.03 l 0.09 -0.03 m 0.96 1.01 l 5.94 5.54 v -5.54" style="fill-opacity:0.2"/><path d="m 19.24 3.41 l 7 6.55 h -5.94 c -0.53 0 -1.08 -0.52 -1.08 -1.01 v -5.54" style="fill:#fff;fill-opacity:0.39"/><g transform="matrix(0.112 0 0 0.111 -4.35 4.66)"><g style="stroke:#000;stroke-width:1.18"><path d="m 115.8 101.6 c -1.63 5.27 -2.47 11.1 -2.47 16.92 c 0 14.47 5.28 27.67 14.1 37.78 l 31.57 -54.6 h -43.2" style="fill:#c0f"/><path d="m 128.5 157.5 c 10.45 11.31 25.35 18.36 41.99 18.36 c 3.75 0 7.4 -0.35 10.91 -1.05 l -31.2 -54.74" style="fill:#4c3dff"/><path d="m 212.2 79.3 c -10.45 -11.1 -25.2 -18 -41.68 -18 c -3.75 0 -7.5 0.35 -11.15 1.05 l 31.3 54.6" style="fill:#ff8433"/><path d="m 157.8 62.7 c -19.45 4.35 -35.2 18.82 -41.4 37.4 h 63" style="fill:#f00"/></g><path d="m 225.2 135.4 c 1.63 -5.27 2.47 -11.1 2.47 -16.92 c 0 -14.61 -5.52 -27.88 -14.45 -38.1 l -31.2 54.95 h 43.2" style="fill:#04d503;stroke:#0c0606;stroke-width:1.88"/><path d="m 182.9 174.5 c 19.59 -4.35 35.3 -18.82 41.68 -37.53 h -63.2" style="fill:#fff200;stroke:#000;stroke-width:1.95"/></g><g style="fill:#fff"><path d="m 15.97 15.8 v 0.17 h -0.04 l 1.08 1.87 l 0.09 -0.17 l -3.52 -6.07 c -0.07 0.02 -0.12 0.03 -0.17 0.04 l 2.43 4.16"/><path d="m 13.61 15.86 l 0.14 0.08 l -0.02 0.04 h 2.19 l -0.11 -0.17 h -7.08 c -0.03 0.05 -0.04 0.12 -0.05 0.17 h 4.86"/><path d="m 15.84 15.81 l 0.09 0.17 h 0.05 v -0.17"/><path d="m 9.81 22.34 l 0.14 0.08 l 0.14 -0.25 c -0.04 -0.04 -0.08 -0.09 -0.12 -0.13"/><path d="m 12.46 17.89 l 0.15 -0.08 l 0.02 0.04 l 1.1 -1.87 h -0.2 l -3.55 6.07 c 0.04 0.04 0.08 0.09 0.12 0.13 l 2.43 -4.16"/><path d="m 13.54 15.98 h 0.2 l 0.03 -0.04 l -0.14 -0.08"/><path d="m 13.68 19.89 v -0.17 h 0.04 l -1.08 -1.89 l -0.11 0.17 l 3.51 6.09 c 0.07 -0.01 0.12 -0.03 0.17 -0.04 l -2.4 -4.18 h -0.13"/><path d="m 12.55 18 l 0.09 -0.17 l -0.03 -0.04 l -0.14 0.08"/><path d="m 20.91 19.89 h 0.34 v -0.17 h -0.28 c -0.02 0.06 -0.04 0.12 -0.07 0.17"/><path d="m 16.1 19.73 l -0.08 0.13 l -0.14 -0.08 l 0.02 -0.04 h -2.19 l 0.09 0.17 h 7.09 c 0.03 -0.05 0.04 -0.12 0.05 -0.17 h -4.85"/><path d="m 13.83 19.91 l -0.11 -0.17 h -0.04 v 0.17"/><path d="m 19.79 13.34 l -0.14 -0.08 l -0.13 0.24 c 0.04 0.04 0.08 0.09 0.12 0.13"/><path d="m 17.19 17.82 l -0.14 0.08 l -0.03 -0.05 l -1.08 1.89 h 0.2 l 3.51 -6.11 c -0.04 -0.04 -0.08 -0.09 -0.12 -0.13 l -2.4 4.19"/><path d="m 17.1 17.68 l -0.11 0.17 l 0.04 0.05 l 0.14 -0.08"/><path d="m 16.1 19.87 l 0.08 -0.13 h -0.2 l -0.02 0.05"/></g><use xlink:href="#3" style="mask:url(#1)"/><path d="m 231.2 118.4 c 0 33.4 -27.1 60.4 -60.4 60.4 c -33.38 0 -60.4 -27.1 -60.4 -60.4 c 0 -33.4 27 -60.4 60.4 -60.4 c 33.3 0 60.4 27 60.4 60.4" transform="matrix(0.112 0 0 0.111 -4.35 4.66)" style="fill:none;stroke-miterlimit:10;stroke:#0c0606;stroke-width:6.6"/></svg>