<svg xmlns="http://www.w3.org/2000/svg" viewBox="0 0 32 32"><path d="m 0.41 19.66 c 6.25 29.98 49.2 -2.21 23.41 -17.45 c -10 -6.54 -26.63 2.03 -23.41 17.45" style="fill:#b0c3de"/><path d="m 19.24 8.95 l 0.03 0.03 l 0.09 -0.03 m 0.96 1.01 l 5.94 5.54 v -5.54" style="fill-opacity:0.2"/><path d="m 19.24 3.41 l 7 6.55 h -5.94 c -0.53 0 -1.08 -0.52 -1.08 -1.01 v -5.54" style="fill:#fff;fill-opacity:0.39"/><path d="m 9.12 14.55 c -0.5 0 -0.91 0.38 -0.91 0.83 c 0 0.46 0.41 0.83 0.91 0.83 c 0.27 0 0.52 -0.11 0.69 -0.29 l 8.43 4.24 c -0.02 0.06 -0.03 0.13 -0.03 0.19 c 0 0.46 0.41 0.83 0.91 0.83 c 0.5 0 0.91 -0.38 0.91 -0.83 c 0 -0.45 -0.41 -0.83 -0.91 -0.83 c -0.27 0 -0.5 0.11 -0.67 0.27 l -8.44 -4.25 c 0.01 -0.05 0.02 -0.11 0.02 -0.17 c 0 -0.45 -0.41 -0.83 -0.91 -0.83 m 0 0.41 c 0.25 0 0.45 0.18 0.45 0.41 c 0 0.23 -0.2 0.41 -0.45 0.41 c -0.25 0 -0.46 -0.18 -0.46 -0.41 c 0 -0.23 0.2 -0.41 0.46 -0.41 m 10 4.97 c 0.25 0 0.45 0.18 0.45 0.41 c 0 0.23 -0.2 0.42 -0.45 0.42 c -0.25 0 -0.45 -0.18 -0.45 -0.42 c 0 -0.23 0.2 -0.41 0.45 -0.41" style="fill:#f34e17"/><g style="fill-rule:evenodd"><path d="m 10.48 23.67 c 5.91 2.49 8.64 -3.31 3.64 -5.8 c -5 -2.49 -2.27 -8.29 3.64 -5.8" style="fill:#8e76e4;fill-opacity:0.25"/><path d="m 14.79 11.27 c -1.5 0.07 -2.61 0.77 -3.14 1.75 c -0.86 1.55 -0.21 3.76 2.37 5 c 2.42 1.2 2.91 3.15 2.18 4.49 c -0.74 1.35 -2.73 2.16 -5.61 0.94 l -0.19 0.38 c 3 1.27 5.36 0.42 6.21 -1.13 c 0.85 -1.56 0.21 -3.76 -2.37 -5 c -2.42 -1.2 -2.92 -3.15 -2.18 -4.49 c 0.74 -1.34 2.73 -2.15 5.61 -0.94 l 0.19 -0.38 c -1.14 -0.48 -2.17 -0.66 -3.07 -0.61" style="fill:#8c59d8"/></g><path d="m 17.1 11.45 v 1.24 h 1.36 v -1.24 m -5 5.8 v 1.24 h 1.36 v -1.24 m -5 5.8 v 1.25 h 1.36 v -1.25" style="fill:#fff"/><path d="m 16.85 11.24 v 1.66 h 1.82 v -1.66 m -1.37 0.41 h 0.91 v 0.83 h -0.91 m -4.09 4.56 v 1.66 h 1.82 v -1.66 m -1.37 0.41 h 0.91 v 0.83 h -0.91 m -4.09 4.56 v 1.66 h 1.82 v -1.66 m -1.37 0.41 h 0.91 v 0.83 h -0.91" style="fill:#8e76e4"/></svg>