<svg xmlns="http://www.w3.org/2000/svg" viewBox="0 0 32 32"><path d="m 0.41 19.66 c 6.25 29.98 49.2 -2.21 23.41 -17.45 c -10 -6.54 -26.63 2.03 -23.41 17.45" style="fill:#7f7f7f"/><path d="m 19.9 8.95 l 0.03 0.03 l 0.09 -0.03 m 0.96 1.01 l 5.94 5.54 v -5.54" style="fill-opacity:0.2"/><path d="m 19.98 3.41 l 7 6.55 h -5.95 c -0.52 0 -1.08 -0.52 -1.08 -1.01 v -5.54" style="fill:#fff;fill-opacity:0.39"/><path d="m 9.31 14.5 c 0.03 -0.03 0.8 -0.66 1.73 -1.39 c 1.3 -1.04 1.7 -1.38 1.77 -1.5 c 0.07 -0.12 0.17 -0.31 0.17 -0.77 c -0.01 -0.86 -0.13 -1.3 0.33 -1.32 c 0.54 -0.04 0.42 0.1 0.54 0.23 c 0.13 0.14 0.08 0.46 0.16 1 c 0.03 0.22 0.06 0.41 0.07 0.41 c 0.01 0 1.48 0.04 3.29 0.07 c 1.8 0.03 3.28 0.07 3.29 0.07 c 0.01 0 -0.16 0.13 -0.37 0.28 c -0.38 0.27 -1.39 1.05 -2.91 2.26 l -0.79 0.62 l -3.35 0.03 c -1.84 0.01 -3.49 0.04 -3.66 0.05 c -0.25 0.02 -0.29 0.02 -0.25 -0.03" style="fill:#f4f4f4"/><path d="m 7.55 23.77 c -0.16 -0.2 -0.01 -0.46 0.84 -1.33 l 0.53 -0.54 l 0.02 -3.33 c 0.02 -3.11 0.03 -3.34 0.13 -3.45 c 0.1 -0.1 0.36 -0.11 3.73 -0.13 l 3.62 -0.02 v 7.52 l -0.48 0.04 c -0.27 0.02 -1.85 0.04 -3.52 0.04 h -2.75 l -0.6 0.61 c -0.71 0.72 -1.2 1 -1.53 0.59" style="fill:#999"/><path d="m 16.78 18.72 v -3.7 l 1.96 -1.54 c 1.08 -0.85 2 -1.55 2.04 -1.55 c 0.04 0 0.07 1.55 0.07 3.45 c 0 3.86 -0.04 3.56 0.98 3.56 c 0.39 0 0.6 0.2 0.63 0.39 c 0.08 0.57 -0.45 0.44 -1.19 0.49 c -1.06 0.08 -0.86 -0.21 -2.72 1.27 c -0.79 0.63 -1.52 1.19 -1.61 1.24 c -0.13 0.08 -0.17 -0.68 -0.17 -3.6 m -6.59 1.61 c -0.22 -0.06 -0.43 -0.43 -0.32 -0.55 c 0.04 -0.04 0.35 -0.07 0.7 -0.08 c 0.53 -0.01 0.63 -0.05 0.67 -0.29 c 0.03 -0.21 -0.06 -0.31 -0.39 -0.41 c -0.49 -0.14 -0.58 -0.49 -0.15 -0.55 c 0.36 -0.05 0.65 -0.39 0.49 -0.55 c -0.06 -0.07 -0.36 -0.14 -0.64 -0.16 c -0.69 -0.05 -0.71 -0.39 -0.04 -0.56 c 1 -0.25 1.82 0.34 1.54 1.1 c -0.09 0.23 -0.08 0.45 0.02 0.7 c 0.09 0.21 0.11 0.53 0.07 0.71 c -0.13 0.54 -1.11 0.86 -1.93 0.64 m 2.7 -0.22 c -0.04 -0.1 -0.05 -0.77 -0.03 -1.49 l 0.04 -1.32 l 0.84 -0.04 c 0.46 -0.02 1 0.03 1.21 0.11 c 1.05 0.44 1.11 2.2 0.09 2.72 c -0.47 0.25 -2.06 0.26 -2.16 0.02 m 1.79 -0.75 c 0.14 -0.15 0.26 -0.41 0.26 -0.6 c 0 -0.18 -0.12 -0.45 -0.26 -0.6 c -0.14 -0.14 -0.41 -0.27 -0.59 -0.27 c -0.32 0 -0.33 0.03 -0.33 0.86 c 0 0.83 0.01 0.86 0.33 0.86 c 0.18 0 0.45 -0.12 0.59 -0.27" style="fill:#686868"/></svg>