<svg xmlns="http://www.w3.org/2000/svg" viewBox="0 0 32 32"><path d="m 0.41 19.66 c 6.25 29.98 49.2 -2.21 23.41 -17.45 c -10 -6.54 -26.63 2.03 -23.41 17.45" style="fill:#dcdcdc"/><path d="m 19.24 8.95 l 0.03 0.03 l 0.09 -0.03 m 0.96 1.01 l 5.94 5.54 v -5.54" style="fill-opacity:0.2"/><path d="m 19.24 3.41 l 7 6.55 h -5.94 c -0.53 0 -1.08 -0.52 -1.08 -1.01 v -5.54" style="fill:#fff;fill-opacity:0.39"/><g style="fill:#545454"><path d="m 11.13 20.79 c 0 0.34 0.11 0.6 0.32 0.75 c 0.2 0.15 0.51 0.23 0.91 0.24 v 0.71 c -0.67 -0.01 -1.19 -0.16 -1.56 -0.44 c -0.37 -0.29 -0.55 -0.69 -0.55 -1.21 v -1.54 c 0 -0.35 -0.11 -0.6 -0.33 -0.75 c -0.23 -0.15 -0.55 -0.23 -0.98 -0.23 v -0.72 c 0.47 0 0.8 -0.09 1 -0.25 c 0.2 -0.15 0.3 -0.39 0.3 -0.71 v -1.55 c 0 -0.52 0.2 -0.93 0.58 -1.22 c 0.38 -0.29 0.89 -0.44 1.54 -0.44 v 0.7 c -0.81 0.02 -1.22 0.36 -1.22 1.01 v 1.5 c 0 0.72 -0.39 1.16 -1.18 1.29 v 0.06 c 0.79 0.13 1.18 0.56 1.18 1.29 v 1.51"/><path d="m 18.33 17.93 c -0.79 -0.13 -1.18 -0.57 -1.18 -1.29 v -1.5 c 0 -0.65 -0.4 -0.99 -1.2 -1.01 v -0.7 c 0.66 0 1.17 0.14 1.53 0.45 c 0.38 0.29 0.57 0.7 0.57 1.21 v 1.55 c 0 0.32 0.11 0.57 0.31 0.72 c 0.21 0.15 0.54 0.23 1 0.24 v 0.72 c -0.43 0 -0.76 0.07 -0.98 0.23 c -0.22 0.15 -0.34 0.4 -0.34 0.75 v 1.54 c 0 0.52 -0.18 0.92 -0.55 1.21 c -0.36 0.29 -0.88 0.44 -1.55 0.45 v -0.71 c 0.39 -0.01 0.69 -0.09 0.9 -0.24 c 0.21 -0.16 0.3 -0.41 0.3 -0.75 v -1.51 c 0 -0.39 0.1 -0.68 0.29 -0.89 c 0.2 -0.2 0.5 -0.34 0.89 -0.4 v -0.06"/></g></svg>