<svg xmlns="http://www.w3.org/2000/svg" viewBox="0 0 32 32"><path d="m 0.41 19.66 c 6.25 29.98 49.2 -2.21 23.41 -17.45 c -10 -6.54 -26.63 2.03 -23.41 17.45" style="fill:#93a525"/><path d="m 19.24 8.95 l 0.03 0.03 l 0.09 -0.03 m 0.96 1.01 l 5.94 5.54 v -5.54" style="fill-opacity:0.2"/><g style="fill:#fff"><path d="m 19.24 3.41 l 7 6.55 h -5.94 c -0.53 0 -1.08 -0.52 -1.08 -1.01 v -5.54" style="fill-opacity:0.39"/><path d="m 19.59 16.81 v -2.52 h 0.94 v 3.82 c 0.57 0 1.14 0 1.72 0 c 0 0.41 0 0.81 0 1.22 c -0.89 0 -1.77 0 -2.66 0"/><path d="m 7 14.29 c 0.31 0 0.63 0 0.94 0 c 0 0.63 0 1.25 0 1.88 c 0.44 0 0.89 0 1.33 0 c 0 -0.63 0 -1.26 0 -1.88 c 0.33 0 0.66 0 1 0 c 0 1.68 0 3.36 0 5 c -0.33 0 -0.66 0 -1 0 c 0 -0.64 0 -1.29 0 -1.94 c -0.44 0 -0.89 0 -1.33 0 c 0 0.64 0 1.29 0 1.94 c -0.32 0 -0.63 0 -0.94 0 c 0 -1.68 0 -3.36 0 -5"/><path d="m 10.7 19.2 c 0.02 -0.07 0.37 -1.21 0.77 -2.53 l 0.73 -2.41 c 0.31 0 0.62 0 0.93 0 l 0.76 2.52 c 0.42 1.39 0.76 2.53 0.76 2.54 c -0.36 0.02 -0.63 0 -1.02 -0.02 c -0.09 -0.3 -0.18 -0.61 -0.27 -0.91 c -0.46 0.03 -1.03 -0.06 -1.45 0.07 c -0.09 0.31 -0.16 0.55 -0.25 0.87 c -0.21 -0.01 -1.02 0.07 -0.96 -0.13 m 2.36 -1.84 c 0.04 -0.04 -0.36 -1.47 -0.41 -1.47 c -0.03 0 -0.43 1.37 -0.43 1.46 c 0 0.04 0.8 0.04 0.84 0"/><path d="m 15 16.81 v -2.52 c 0.35 0 0.7 0 1.04 0 l 0.43 0.97 c 0.23 0.53 0.45 0.97 0.46 0.97 c 0.02 0 0.22 -0.44 0.45 -0.97 l 0.41 -0.97 c 0.34 0 0.68 0 1.03 0 v 5 c -0.32 0 -0.63 0 -0.94 0 v -1.48 c 0 -0.82 -0.02 -1.46 -0.05 -1.43 c -0.03 0.03 -0.23 0.45 -0.45 0.94 c -0.23 0.49 -0.43 0.91 -0.45 0.93 c -0.02 0.02 -0.23 -0.38 -0.47 -0.9 c -0.24 -0.52 -0.46 -0.95 -0.48 -0.95 c -0.02 0 -0.04 0.65 -0.04 1.44 v 1.44 c -0.31 0 -0.63 0 -0.94 0"/></g></svg>