<svg xmlns="http://www.w3.org/2000/svg" viewBox="0 0 32 32"><path d="m 0.41 19.66 c 6.25 29.98 49.2 -2.21 23.41 -17.45 c -10 -6.54 -26.63 2.03 -23.41 17.45" style="fill:#e84d31"/><path d="m 19.24 8.95 l 0.03 0.03 l 0.09 -0.03 m 0.96 1.01 l 5.94 5.54 v -5.54" style="fill-opacity:0.2"/><g style="fill:#fff"><path d="m 19.24 3.41 l 7 6.55 h -5.94 c -0.53 0 -1.08 -0.52 -1.08 -1.01 v -5.54" style="fill-opacity:0.39"/><path d="m 16.52 19.94 c -0.4 -0.09 -1.06 -0.4 -1.34 -0.64 l -0.18 -0.15 c 0.19 -0.39 0.39 -0.77 0.58 -1.16 l 0.18 0.12 c 0.89 0.58 1.89 0.68 1.89 0.18 c 0 -0.22 -0.14 -0.32 -0.82 -0.57 c -1 -0.37 -1.41 -0.72 -1.56 -1.36 c -0.1 -0.39 -0.05 -1.03 0.11 -1.38 c 0.17 -0.36 0.53 -0.72 0.9 -0.88 c 0.4 -0.18 1.23 -0.18 1.75 0 c 0.36 0.13 0.96 0.45 0.96 0.52 c 0 0.08 -0.52 1.21 -0.55 1.19 c -1.08 -0.55 -1.77 -0.62 -1.77 -0.18 c 0 0.22 0.12 0.32 0.59 0.5 c 1.15 0.44 1.51 0.71 1.73 1.27 c 0.26 0.68 0.07 1.63 -0.41 2.11 c -0.45 0.43 -1.28 0.61 -2.07 0.43"/><path d="m 11.1 19.8 c -0.18 -0.05 -0.36 -0.18 -0.53 -0.35 c -0.36 -0.35 -0.47 -0.7 -0.47 -1.39 c 0 -0.46 0.02 -0.56 0.16 -0.84 c 0.19 -0.38 0.51 -0.67 0.89 -0.79 c 0.35 -0.12 1.06 -0.12 1.44 0 c 0.15 0.05 0.3 0.09 0.32 0.09 c 0.08 0 -0.01 -0.57 -0.12 -0.71 c -0.41 -0.45 -1.2 -0.34 -1.68 -0.18 c -0.23 0.08 -0.32 0.1 -0.34 0.05 c -0.07 -0.45 -0.29 -0.88 -0.23 -1.32 c 0.04 -0.02 0.27 -0.11 0.53 -0.2 c 0.78 -0.18 1.59 -0.3 2.25 0 c 0.56 0.26 0.93 0.77 1.06 1.46 c 0.08 1.47 0.05 2.6 0.05 4.14 c -0.5 0 -0.99 0 -1.49 0 v -0.3 c 0 -0.16 -0.02 -0.3 -0.03 -0.3 c -0.02 0 -0.1 0.08 -0.19 0.18 c -0.48 0.38 -1.14 0.59 -1.63 0.45 m 1.49 -1.26 c 0.2 -0.13 0.35 -0.5 0.35 -0.84 c 0 -0.34 -0.06 -0.39 -0.48 -0.44 c -0.53 -0.06 -0.89 0.25 -0.89 0.77 c 0.02 0.4 0.33 0.66 0.63 0.63 c 0.14 -0.02 0.27 -0.06 0.39 -0.12"/></g></svg>