<svg xmlns="http://www.w3.org/2000/svg" viewBox="0 0 32 32"><path d="m 0.41 19.66 c 6.25 29.98 49.2 -2.21 23.41 -17.45 c -10 -6.54 -26.63 2.03 -23.41 17.45" style="fill:#ffd733"/><path d="m 19.24 8.95 l 0.03 0.03 l 0.09 -0.03 m 0.96 1.01 l 5.94 5.54 v -5.54" style="fill-opacity:0.2"/><path d="m 19.24 3.41 l 7 6.55 h -5.94 c -0.53 0 -1.08 -0.52 -1.08 -1.01 v -5.54" style="fill:#fff;fill-opacity:0.39"/><path d="m 11.33 11.25 h 6.27 c 1.73 0 3.13 1.34 3.13 2.99 v 5.98 c 0 1.65 -1.4 2.99 -3.13 2.99 h -6.27 c -1.73 0 -3.13 -1.34 -3.13 -2.99 v -5.98 c 0 -1.65 1.4 -2.99 3.13 -2.99" style="fill:#fbb100"/><path d="m 14.42 16.85 h 2.73 v 3.39 c -0.36 0.12 -0.73 0.21 -1.13 0.27 c -0.38 0.07 -0.82 0.11 -1.31 0.11 c -1.03 0 -1.81 -0.29 -2.37 -0.87 c -0.55 -0.58 -0.83 -1.42 -0.83 -2.51 c 0 -0.69 0.14 -1.28 0.41 -1.78 c 0.28 -0.5 0.69 -0.89 1.22 -1.17 c 0.54 -0.28 1.18 -0.42 1.95 -0.42 c 0.36 0 0.73 0.04 1.08 0.11 c 0.36 0.07 0.67 0.17 0.95 0.3 l -0.48 1.11 c -0.21 -0.1 -0.45 -0.18 -0.72 -0.25 c -0.27 -0.07 -0.55 -0.11 -0.84 -0.11 c -0.42 0 -0.79 0.09 -1.11 0.27 c -0.3 0.18 -0.54 0.44 -0.72 0.78 c -0.17 0.33 -0.25 0.72 -0.25 1.17 c 0 0.43 0.06 0.8 0.19 1.14 c 0.13 0.33 0.32 0.59 0.58 0.78 c 0.26 0.18 0.61 0.27 1.04 0.27 c 0.21 0 0.38 -0.01 0.52 -0.03 c 0.14 -0.02 0.28 -0.04 0.41 -0.06 v -1.36 h -1.3" style="fill:#fff"/></svg>