<svg xmlns="http://www.w3.org/2000/svg" viewBox="0 0 256 256"><path d="m 2 171.9 c -25.43 -365.8 465.6 -43.2 142.3 77.93 c -49.83 16.2 -124.1 -7 -142.3 -77.93" style="fill:#808080"/><path d="m 182 120.6 c -4.22 -17.5 -18.98 -29.53 -37.96 -29.53 -2.11 0 -3.16 0 -5.27 1.09 c -1.05 -18.59 -15.81 -33.9 -33.74 -33.9 c -15.81 0 -30.58 13.1 -34.79 29.53 -16.87 -6.56 -34.79 6.56 -34.79 25.2 0 14.22 9.49 22.97 18.98 27.34 1.05 0 1.05 0 2.11 0 1.05 0 1.05 0 2.11 -1.09 -1.05 4.37 -2.11 7.66 -2.11 12 0 21.87 15.81 38.3 35.85 38.3 28.1 0 55.88 0 80.1 0 17.92 0 32.68 -16.4 32.68 -36.1 c -1.05 -14.22 -10.54 -27.34 -23.2 -32.81 z m -121.2 12 c 0 -1.09 -1.05 -2.19 -2.11 -3.28 -6.33 -2.19 -12.65 -7.66 -12.65 -16.4 0 -12 12.65 -21.87 25.3 -13.1 1.71 -0.57 4.53 -0.16 6.33 -1.09 0 -0.75 0 -1.52 0 -2.19 c 2.11 -14.22 14.76 -27.34 27.41 -27.34 c 12.65 0 23.2 10.94 23.2 24.1 0 1.09 0 1.09 0 2.19 -8.43 4.37 -15.81 12 -20 20.78 -17.61 -9.57 -40.2 3.2 -47.4 16.4 z m 110.7 45.93 c -27.47 0 -55.4 0 -80.1 0 -12.65 0 -24.2 -12 -24.2 -27.34 0 -15.31 11.6 -27.34 26.36 -27.34 4.22 -1.09 9.49 1.09 13.71 4.37 7.09 -1.48 8.43 -0.38 8.43 -4.37 4.22 -9.84 14.76 -21.87 28.47 -21.87 14.76 0 26.36 9.84 28.47 24.1 -0.73 2.53 2.08 3.64 2.11 4.37 c 9.49 3.28 16.87 13.1 16.87 22.97 2.11 13.1 -8.43 25.2 -20 25.2 z" style="fill:#fff"/></svg>