<svg xmlns="http://www.w3.org/2000/svg" viewBox="0 0 256 256"><path d="m 253.9 171.9 c 25.43 -365.8 -465.6 -43.2 -142.3 77.93 49.83 16.2 124.1 -7 142.3 -77.93" style="fill:#789"/><path d="m 191.4 105.8 c -4.23 -20.28 -22.2 -34.93 -44.4 -34.93 -19 0 -33.84 14.65 -41.2 30.43 -5.12 -2.88 -11.88 -3.2 -19 -4.51 -22.2 0 -40.2 19.2 -40.2 42.82 0 24.79 17.98 43.95 40.2 43.95 h 1.06 c 31.2 0 62.93 0 90.9 0 20.1 0 37 -19.2 37 -41.7 0 -16.9 -9.52 -30.43 -24.32 -36.1 z m -12.69 66.5 c -31 0 -62.99 0 -90.9 0 h -1.06 c -15.86 0 -29.61 -14.65 -29.61 -32.68 0 -18 12.69 -31.55 30.66 -31.55 5.29 -1.13 11.63 1.13 16.92 5.63 0 0 0 0 1.06 0 5.6 -1.2 6.15 -0.75 7.4 -4.51 5.29 -12.4 17.98 -27 33.84 -27 14.8 0 31.72 9 34.89 29.3 c 0.57 1.34 1.74 1.99 3.17 2.25 h 1.06 c 10.57 2.25 19 13.52 19 25.92 0 18 -12.69 32.68 -26.43 32.68 z" style="fill:#fff"/></svg>