<svg xmlns="http://www.w3.org/2000/svg" viewBox="0 0 256 256"><path d="m 2 73.9 c -25.43 366.4 465.6 91.8 142.3 -63.89 -49.83 -21.46 -124.1 -5.77 -142.3 63.89" style="fill:#ff8c00"/><g transform="matrix(10.07 0 0 9.913 40.2 45.69)" style="fill:#fff"><path d="M 2.7,5.1 C 2.8,5.2 3,5.2 3.1,5.2 3.2,5.2 3.4,5.2 3.5,5.1 3.7,4.9 3.7,4.6 3.5,4.4 L 2.2,3 C 2,2.9 1.6,2.9 1.4,3 1.2,3.1 1.2,3.5 1.4,3.7 l 1.3,1.4 z"/><path d="m 10.6 5.2 c 0.1 0 0.3 0 0.4 -0.1 l 1.3 -1.3 c 0.2 -0.2 0.2 -0.5 0 -0.7 -0.2 -0.2 -0.5 -0.2 -0.7 0 l -1.3 1.3 c -0.2 0.2 -0.2 0.5 0 0.7 0 0.1 0.2 0.1 0.3 0.1 z"/><path d="M 6.5,3 C 6.8,3 7,2.8 7,2.5 V 0.9 C 7,0.6 6.8,0.4 6.5,0.4 6.2,0.4 6,0.6 6,0.9 V 2.5 C 6,2.8 6.2,3 6.5,3 z"/><path d="M 13.8,8.8 C 13.3,7.3 12,6.2 10.4,6 9.7,4.7 8.4,4 6.9,4 4.7,4 3,5.7 3,7.9 3,8.1 3,8.2 3,8.4 2.9,8.5 2.7,8.5 2.6,8.6 c 0,0 0,-0.1 0,-0.1 C 2.6,8.2 2.4,8 2.1,8 H 0.5 C 0.2,8 0,8.2 0,8.5 0,8.8 0.2,9 0.5,9 H 2.1 C 1.4,9.6 1,10.5 1,11.5 1,13.4 2.7,15 4.7,15 h 7.8 c 0,0 0.1,0 0.1,0 0,0 0.1,0 0.1,0 1.8,0 3.3,-1.4 3.3,-3.2 0,-1.3 -0.9,-2.5 -2.2,-3 z M 4,7.9 C 4,6.3 5.3,5 6.9,5 7.8,5 8.6,5.4 9.1,6.1 7.8,6.3 6.7,7.3 6.1,8.3 5.8,8.1 5.3,8 4.7,8 4.5,8 4.2,8 4,8.1 4,8 4,8 4,7.9 z m 8.7,6.1 c 0,0 -0.1,0 -0.1,0 0,0 -0.1,0 -0.1,0 H 4.7 C 3.2,14 2,12.9 2,11.5 2,10.4 2.6,9.6 3.6,9.2 c 0,0 0.1,0 0.1,0 0,0 0,0 0.1,0 C 4.1,9.1 4.4,9 4.7,9 c 0.6,0 1,0.1 1.4,0.3 0,0 0,0 0,0 0,0 0,0 0,0 0,0 0,0 0.1,0 0,0 0.1,0 0.1,0 0,0 0.1,0 0.1,0 0,0 0.1,0 0.1,0 0,0 0.1,0 0.1,0 0,0 0,0 0.1,0 0,0 0.1,-0.1 0.1,-0.1 0,0 0,0 0,0 0,0 0,0 0,0 0,0 0,0 0,0 C 7.3,8.1 8.4,7 9.8,7 c 1.5,0 2.8,0.9 3.1,2.3 0,0 0,0 0,0 0,0.1 0.1,0.2 0.2,0.2 0,0 0,0 0,0 0.1,0 0.1,0.1 0.2,0.1 1,0.2 1.7,1.2 1.7,2.1 0,1.3 -1.1,2.3 -2.3,2.3 z"/></g></svg>