<svg xmlns="http://www.w3.org/2000/svg" viewBox="0 0 256 256"><g style="fill:#fe6606"><path d="m 45.74 1015.4 c -201 -265.2 352.1 -302.9 174.6 -32.2 -40.46 61.73 -121.4 102.4 -174.6 32.2 z" transform="matrix(-1 0 0 -1 257.1 1053.4)" style="color:#fff"/></g><path d="m 175.6 196.8 h -4.22 v -100.1 c 5.07 -1.65 8.45 -6.62 8.45 -11.58 0 -6.62 -5.91 -12.41 -12.67 -12.41 -5.91 0 -10.14 3.31 -11.83 8.27 h -33.79 c -0.84 -0.83 -2.53 -1.65 -3.38 -2.48 -5.07 -3.31 -11.83 -6.62 -17.74 -4.96 -0.84 0 -1.69 0.83 -1.69 0.83 0 0 -0.84 0.83 -0.84 1.65 l -42.2 55.4 c -5.91 8.27 -5.07 19.86 1.69 27.3 l 3.38 3.31 c 4.22 4.14 9.29 5.79 15.21 5.79 4.22 0 8.45 -1.65 12.67 -4.14 l 57.4 -41.4 c 0 0 0 0 0 0 4.22 -4.14 2.53 -9.1 0 -14.89 l 10.14 -15.72 c 1.69 2.48 3.38 4.14 6.76 4.96 v 100.1 h -4.22 c -2.53 0 -4.22 1.65 -4.22 4.14 0 2.48 1.69 4.14 4.22 4.14 h 16.9 c 2.53 0 4.22 -1.65 4.22 -4.14 0 -2.48 -1.69 -4.14 -4.22 -4.14 z m -50.69 -100.9 c 15.21 14.89 15.21 19.86 15.21 20.68 c -0.84 0 -5.91 0 -21.1 -14.89 -12.67 -13.24 -14.36 -19 -14.36 -20.68 0.84 0 3.38 0.83 8.45 4.14 3.38 2.48 6.76 5.79 11.83 10.75 z m -27 51.3 c -4.22 -2.48 -10.14 -7.45 -14.36 -11.58 -4.22 -2.48 -8.45 -8.27 -10.98 -13.24 l 10.98 -14.1 c 2.53 4.96 5.91 11.58 11.83 16.55 5.07 4.96 11.83 9.1 16.9 11.58 l -14.36 10.75 z m 20.27 -17.37 c -5.07 -2.48 -10.98 -6.62 -16.9 -11.58 -5.07 -4.14 -8.45 -9.93 -10.98 -16.55 0 -0.83 -0.84 -0.83 -0.84 -0.83 l 9.29 -12.41 c 2.53 4.96 7.6 10.75 15.21 18.2 5.07 5.79 11.83 12.41 18.58 15.72 l -12.67 9.1 c -0.84 -0.83 -0.84 -0.83 -1.69 -1.65 z m -34.64 27.3 c -5.07 3.31 -11.83 3.31 -16.1 -1.65 l -3.38 -3.31 c -4.22 -4.14 -5.07 -11.58 -1.69 -16.55 l 5.07 -6.62 c 2.53 5.79 6.76 10.75 10.14 13.24 3.38 3.31 8.45 7.45 12.67 9.93 l -6.76 4.96 z m 59.98 -53.77 c -3.38 -4.96 -8.45 -9.93 -12.67 -14.1 -1.69 -1.65 -3.38 -2.48 -4.22 -4.14 h 27.88 c 0 0.83 0 0.83 0 1.65 l -10.98 16.55 z" style="fill:#fff"/></svg>