<svg xmlns="http://www.w3.org/2000/svg" viewBox="0 0 256 256"><path d="m 211.2 218.8 c 201.8 -266.4 -353.6 -304.2 -175.4 -32.3 c 40.63 61.99 121.9 102.9 175.4 32.3" style="fill:#0c787a"/><g transform="matrix(6.697 0 0 10.804 73.5 44.3)" style="fill:#fff"><path d="m 9.5,14 h -3 C 6.2,14 6,14.2 6,14.5 6,14.8 6.2,15 6.5,15 h 3 C 9.8,15 10,14.8 10,14.5 10,14.2 9.8,14 9.5,14 z"/><path d="m 12.5,12 h -6 C 6.2,12 6,12.2 6,12.5 6,12.8 6.2,13 6.5,13 h 6 C 12.8,13 13,12.8 13,12.5 13,12.2 12.8,12 12.5,12 z"/><path d="m 14.5,10 h -8 C 6.2,10 6,10.2 6,10.5 6,10.8 6.2,11 6.5,11 h 8 C 14.8,11 15,10.8 15,10.5 15,10.2 14.8,10 14.5,10 z"/><path d="M 15.5,8 H 3.5 C 3.2,8 3,8.2 3,8.5 3,8.8 3.2,9 3.5,9 h 12 C 15.8,9 16,8.8 16,8.5 16,8.2 15.8,8 15.5,8 z"/><path d="M 14,6.5 C 14,6.2 13.8,6 13.5,6 H 1.5 C 1.2,6 1,6.2 1,6.5 1,6.8 1.2,7 1.5,7 h 12 C 13.8,7 14,6.8 14,6.5 z"/><path d="M 14.5,4 H 3.5 C 3.2,4 3,4.2 3,4.5 3,4.8 3.2,5 3.5,5 h 11 C 14.8,5 15,4.8 15,4.5 15,4.2 14.8,4 14.5,4 z"/><path d="M 15,2.5 C 15,2.2 14.8,2 14.5,2 H 0.5 C 0.2,2 0,2.2 0,2.5 0,2.8 0.2,3 0.5,3 h 14 C 14.8,3 15,2.8 15,2.5 z"/></g></svg>