<svg xmlns="http://www.w3.org/2000/svg" viewBox="0 0 256 256"><path d="m 59.78 26.67 c 95.2 -84.5 241.8 48.77 182.5 160.3 -59.91 112.7 -258.2 82.7 -241.3 -55.77 5 -41.2 27.7 -76.95 58.77 -104.5" style="fill:#20b2aa"/><g transform="matrix(10.432 0 0 9.828 44.4 54.99)" style="fill:#fff"><path d="m 7,13.3 c 0,2.3 3,2.3 3,0 C 10,12.3 8.5,10 8.5,10 8.5,10 7,12.3 7,13.3 z"/><path d="M 13.7,4.5 C 13.3,2.5 11.6,1 9.5,1 7.8,1 6.3,2 5.6,3.5 5.1,3.3 4.5,3 3.9,3 1.7,3 0,4.9 0,7.2 c 0,2.3 1.7,4.2 3.9,4.2 0.3,0 0.5,-0.2 0.5,-0.5 C 4.4,10.6 4.2,10.4 3.9,10.4 2.3,10.4 1,9 1,7.2 1,5.4 2.3,4 3.9,4 4.5,4 5.2,4.4 5.5,4.7 5.7,4.9 6,4.8 6.2,4.6 6.3,4.5 6.3,4.4 6.3,4.3 6.8,2.9 8.1,2 9.5,2 c 1.7,0 3,1.3 3.3,3 0,0 0,0.1 0,0.1 0,0 0,0 0,0.1 0,0.1 0.1,0.1 0.1,0.1 0,0 0,0 0,0 0,0 0.1,0.1 0.1,0.1 0,0 0,0 0,0 1.3,0.3 2,1.3 2,2.5 0,1.5 -1.2,2.8 -2.5,2.8 -0.3,0 -0.5,0.2 -0.5,0.5 0,0.3 0.2,0.5 0.5,0.5 C 14.4,11.7 16,10 16,7.9 16,6.3 15.1,5.1 13.7,4.5 z"/></g></svg>