<svg xmlns="http://www.w3.org/2000/svg" viewBox="0 0 256 256"><path d="m 196.2 229.3 c -95.2 84.5 -241.8 -48.77 -182.5 -160.3 59.91 -112.7 258.2 -82.7 241.3 55.77 -5 41.2 -27.7 76.95 -58.77 104.5" style="fill:#71706e"/><g transform="matrix(9.7 0 0 8.84 49.3 54.61)" style="fill:#fff"><path d="m 7.8,6 c 0,0 -1.5,2.3 -1.5,3.3 0,2.3 3,2.3 3,0 C 9.3,8.3 7.8,6 7.8,6 z"/><path d="m 0.9 12.6 c 0 1.8 2.5 1.8 2.5 0 0 -0.7 -1.2 -2.6 -1.2 -2.6 0 0 -1.3 1.8 -1.3 2.6 z"/><path d="m 4.9 14.6 c 0 1.8 2.5 1.8 2.5 0 0 -0.7 -1.2 -2.6 -1.2 -2.6 0 0 -1.3 1.8 -1.3 2.6 z"/><path d="m 8.9 14.6 c 0 1.8 2.5 1.8 2.5 0 0 -0.7 -1.2 -2.6 -1.2 -2.6 0 0 -1.3 1.8 -1.3 2.6 z"/><path d="m 12.7,12.6 c 0,1.8 2.5,1.8 2.5,0 C 15.3,11.9 14,10 14,10 c 0,0 -1.3,1.8 -1.3,2.6 z"/><path d="m 16 6.5 c 0 -1.4 -0.9 -2.6 -2.3 -3.2 -0.4 -1.9 -2.1 -3.3 -4.2 -3.3 -1.7 0 -3.1 0.9 -3.9 2.3 -0.5 -0.3 -1.1 -0.4 -1.7 -0.4 -2.1 0 -3.9 1.8 -3.9 3.9 0 2.1 1.8 3.9 3.9 3.9 0.3 0 0.5 -0.2 0.5 -0.5 0 -0.3 -0.2 -0.5 -0.5 -0.5 -1.6 0 -2.9 -1.3 -2.9 -2.9 0 -1.6 1.3 -2.9 2.9 -2.9 c 0.6 0 1.2 0.2 1.6 0.5 0.14 0 0.26 0 0.4 0 c 0.27 0 0.4 -0.23 0.4 -0.4 0.5 -1.2 1.7 -2 3.2 -2 c 1.7 0 3 1.1 3.3 2.8 -0.02 0.21 0.2 0.3 0.3 0.4 c 1.2 0.3 1.9 1.2 1.9 2.3 0 1.4 -1.1 2.6 -2.5 2.6 -0.3 0 -0.5 0.2 -0.5 0.5 0 0.3 0.2 0.5 0.5 0.5 1.9 0 3.5 -1.6 3.5 -3.6 z"/></g></svg>