<svg xmlns="http://www.w3.org/2000/svg" viewBox="0 0 256 256"><path d="m 117.8 254.2 c 152.1 14.54 193 -230.7 36.86 -249.7 c -143.6 -23.6 -217.5 198.7 -74.86 243.1 c 12.1 4.87 25.3 4.78 38 6.59" style="fill:#66cdaa"/><g transform="matrix(9.55 0 0 10.233 51.4 53.2)" style="fill:#fff"><path d="m 12.5 3 c -1 -1.3 -2.4 -2 -4 -2 -1.6 0 -3.1 0.8 -4.1 2.1 -0.3 0 -0.6 -0.1 -0.9 -0.1 -2 0 -3.5 1.5 -3.5 3.5 0 2 1.5 3.5 3.5 3.5 0.5 0 1.1 -0.1 1.6 -0.4 0.9 0.9 2.1 1.4 3.4 1.4 1.1 0 2.2 -0.4 3.1 -1.2 0.3 0.1 0.6 0.2 0.9 0.2 2 0 3.5 -1.5 3.5 -3.5 0 -2 -1.5 -3.5 -3.5 -3.5 z m 0 6 c -0.2 0 -0.5 -0.1 -0.8 -0.2 c -0.16 0 -0.25 0 -0.4 0 0 0 -0.1 0 -0.1 0.1 c -0.8 0.7 -1.8 1.1 -2.7 1.1 -1.1 0 -2.2 -0.5 -2.9 -1.3 c 0 0 -0.1 0 -0.1 -0.1 -0.2 0 -0.39 0 -0.6 0 c -0.4 0.2 -0.9 0.4 -1.4 0.4 -1.4 0 -2.5 -1.1 -2.5 -2.5 0 -1.4 1.1 -2.5 2.5 -2.5 0.3 0 0.6 0.1 0.9 0.2 0.21 -0.04 0.44 -0.09 0.6 -0.2 1.01 -1.26 2.27 -1.98 3.5 -2 c 1.2 0 2.3 0.5 3 1.4 v 0.1 c 0 0.3 0.2 0.5 0.5 0.5 h 0.5 c 1.4 0 2.5 1.1 2.5 2.5 0 1.4 -1.1 2.5 -2.5 2.5 z"/><path d="m 7,14.6 c 0,1.8 2.5,1.8 2.5,0 C 9.4,13.9 8.2,12 8.2,12 8.2,12 7,13.8 7,14.6 z"/></g></svg>