<svg xmlns="http://www.w3.org/2000/svg" viewBox="0 0 256 256"><path d="m 219.3 48 c 159.7 227 -255.7 299.3 -214.5 58 c 21.84 -95.9 150.5 -149 214.5 -58" style="fill:#00bfff"/><g transform="matrix(-9.559 0 0 10.198 202.7 49.5)" style="fill:#fff"><path d="m 16 6.5 c 0 -2 -1.5 -3.5 -3.5 -3.5 h -0.1 c -0.9 -1.3 -2.4 -2 -3.9 -2 -1.6 0 -3.1 0.8 -4.1 2.1 -0.3 0 -0.6 -0.1 -0.9 -0.1 -2 0 -3.5 1.5 -3.5 3.5 0 2 1.5 3.5 3.5 3.5 0.5 0 1.1 -0.1 1.6 -0.4 0.9 0.9 2.1 1.4 3.4 1.4 c 1.1 0 2.2 -0.4 3.1 -1.2 0.3 0.1 0.6 0.2 0.9 0.2 2 0 3.5 -1.5 3.5 -3.5 z m -3.5 2.5 c -0.2 0 -0.5 -0.1 -0.8 -0.2 -0.17 0.01 -0.49 -0.05 -0.5 0.1 -0.74 0.67 -1.79 1.08 -2.7 1.1 -1.1 0 -2.2 -0.5 -2.9 -1.3 -0.08 -0.07 -0.1 0 -0.1 -0.1 -0.2 0 -0.42 0 -0.6 0 -0.4 0.2 -0.9 0.4 -1.4 0.4 -1.4 0 -2.5 -1.1 -2.5 -2.5 0 -1.4 1.1 -2.5 2.5 -2.5 0.3 0 0.6 0.1 0.9 0.2 0.2 -0.02 0.45 -0.11 0.6 -0.2 0.82 -1.26 2.26 -1.98 3.5 -2 c 1.2 0 2.3 0.5 3 1.4 v 0.1 c 0 0.3 0.2 0.5 0.5 0.5 h 0.5 c 1.4 0 2.5 1.1 2.5 2.5 0 1.4 -1.1 2.5 -2.5 2.5 z"/><path d="m 3.9 14 c 0 1.4 2 1.4 2 0 0 -0.6 -1 -2 -1 -2 0 0 -1 1.4 -1 2 z"/><path d="m 0.8 13 c 0 1.4 2 1.4 2 0 0 -0.6 -1 -2 -1 -2 0 0 -1 1.4 -1 2 z"/><path d="m 13 13 c 0 1.4 2 1.4 2 0 0 -0.6 -1 -2 -1 -2 0 0 -1 1.4 -1 2 z"/><path d="m 10 14 c 0 1.4 2 1.4 2 0 0 -0.6 -1 -2 -1 -2 0 0 -1 1.4 -1 2 z"/><path d="m 7 15 c 0 1.4 2 1.4 2 0 0 -0.6 -1 -2 -1 -2 0 0 -1 1.4 -1 2 z"/></g></svg>