<svg xmlns="http://www.w3.org/2000/svg" viewBox="0 0 256 256"><path d="m 38.63 209 c -159.7 -227 255.7 -299.3 214.5 -58 -21.84 95.9 -150.5 149 -214.5 58" style="fill:#7d75af"/><g transform="matrix(9.768 0 0 9.912 49.94 50.5)" style="fill:#fff"><path d="M 3.5,10 C 4,10 4.6,9.9 5.1,9.6 6,10.5 7.2,11 8.5,11 9.6,11 10.7,10.6 11.6,9.8 11.9,9.9 12.2,10 12.5,10 14.5,10 16,8.5 16,6.5 16,4.5 14.5,3 12.5,3 H 12.4 C 11.5,1.7 10,1 8.5,1 6.9,1 5.4,1.8 4.4,3.1 4.1,3.1 3.8,3 3.5,3 1.5,3 0,4.5 0,6.5 0,8.5 1.5,10 3.5,10 z m 0,-6 c 0.3,0 0.6,0.1 0.9,0.2 0,0 0.1,0 0.1,0 0,0 0,0 0,0 0,0 0,0 0,0 0.1,0 0.2,0 0.2,-0.1 0,0 0,0 0,0 C 4.9,4.1 5,4 5,4 5,4 5,4 5,4 5.8,2.8 7,2 8.5,2 c 1.2,0 2.3,0.5 3,1.4 0,0 0,0.1 0,0.1 0,0.3 0.2,0.5 0.5,0.5 h 0.5 C 13.9,4 15,5.1 15,6.5 15,7.9 13.9,9 12.5,9 12.3,9 12,8.9 11.7,8.8 c 0,0 0,0 -0.1,0 0,0 -0.1,0 -0.1,0 0,0 -0.1,0 -0.1,0 0,0 -0.1,0 -0.1,0 0,0 -0.1,0 -0.1,0.1 0,0 0,0 0,0 C 10.4,9.6 9.4,10 8.5,10 7.4,10 6.3,9.5 5.6,8.7 c 0,0 0,0 0,0 0,0 -0.1,0 -0.1,-0.1 0,0 -0.1,0 -0.1,0 0,0 -0.1,0 -0.1,0 0,0 -0.1,0 -0.1,0 0,0 -0.1,0 -0.1,0 0,0 -0.1,0 -0.1,0 0,0 0,0 -0.1,0 C 4.5,8.8 4,9 3.5,9 2.1,9 1,7.9 1,6.5 1,5.1 2.1,4 3.5,4 z"/><path d="M 8.5,13 C 8.2,13 8,13.2 8,13.5 v 2 C 8,15.8 8.2,16 8.5,16 8.8,16 9,15.8 9,15.5 v -2 C 9,13.2 8.8,13 8.5,13 z"/><path d="M 5.5,12 C 5.2,12 5,12.2 5,12.5 v 2 C 5,14.8 5.2,15 5.5,15 5.8,15 6,14.8 6,14.5 v -2 C 6,12.2 5.8,12 5.5,12 z"/><path d="M 10.5,12 C 10.2,12 10,12.2 10,12.5 v 2 c 0,0.3 0.2,0.5 0.5,0.5 0.3,0 0.5,-0.2 0.5,-0.5 v -2 C 11,12.2 10.8,12 10.5,12 z"/><path d="M 3.5,11 C 3.2,11 3,11.2 3,11.5 v 2 C 3,13.8 3.2,14 3.5,14 3.8,14 4,13.8 4,13.5 v -2 C 4,11.2 3.8,11 3.5,11 z"/><path d="M 12.5,11 C 12.2,11 12,11.2 12,11.5 v 2 c 0,0.3 0.2,0.5 0.5,0.5 0.3,0 0.5,-0.2 0.5,-0.5 v -2 C 13,11.2 12.8,11 12.5,11 z"/><path d="M 1.5,10 C 1.2,10 1,10.2 1,10.5 v 2 C 1,12.8 1.2,13 1.5,13 1.8,13 2,12.8 2,12.5 v -2 C 2,10.2 1.8,10 1.5,10 z"/><path d="M 14.5,10 C 14.2,10 14,10.2 14,10.5 v 2 c 0,0.3 0.2,0.5 0.5,0.5 0.3,0 0.5,-0.2 0.5,-0.5 v -2 C 15,10.2 14.8,10 14.5,10 z"/></g></svg>