<svg xmlns="http://www.w3.org/2000/svg" viewBox="0 0 256 256"><path d="m 193.3 236.9 c 223.6 -192.2 -236.2 -377 -188.9 -79.8 c 10.36 65.2 128.6 131.6 188.9 79.8" style="fill:#6a5acd"/><g transform="matrix(10.11 0 0 11.02 42.85 54.2)" style="fill:#fff"><path d="m 12.5 3 c -1 -1.3 -2.4 -2 -4 -2 -1.6 0 -3.1 0.8 -4.1 2.1 -0.3 0 -0.6 -0.1 -0.9 -0.1 -2 0 -3.5 1.5 -3.5 3.5 0 2 1.5 3.5 3.5 3.5 0.5 0 1.1 -0.1 1.6 -0.4 0.9 0.9 2.1 1.4 3.4 1.4 1.1 0 2.2 -0.4 3.1 -1.2 0.3 0.1 0.6 0.2 0.9 0.2 2 0 3.5 -1.5 3.5 -3.5 0 -2 -1.5 -3.5 -3.5 -3.5 z m 0 6 c -0.2 0 -0.5 -0.1 -0.8 -0.2 -0.17 0.01 -0.49 -0.05 -0.5 0.1 c -0.8 0.7 -1.8 1.1 -2.7 1.1 -1.1 0 -2.2 -0.5 -2.9 -1.3 c -0.16 -0.14 -0.43 -0.1 -0.7 -0.1 -0.4 0.2 -0.9 0.4 -1.4 0.4 -1.4 0 -2.5 -1.1 -2.5 -2.5 0 -1.4 1.1 -2.5 2.5 -2.5 0.3 0 0.6 0.1 0.9 0.2 h 0.1 c 0.2 -0.07 0.37 -0.12 0.5 -0.2 c 0.8 -1.2 2 -2 3.5 -2 c 1.2 0 2.3 0.5 3 1.4 v 0.1 c 0 0.3 0.2 0.5 0.5 0.5 h 0.5 c 1.4 0 2.5 1.1 2.5 2.5 0 1.4 -1.1 2.5 -2.5 2.5 z"/><circle r="0.5" cy="11.5" cx="4.5"/><circle r="0.5" cy="12.5" cx="6.5"/><circle r="0.5" cy="13.5" cx="8.5"/><circle r="0.5" cy="12.5" cx="10.5"/><circle r="0.5" cy="11.5" cx="12.5"/></g></svg>