<svg xmlns="http://www.w3.org/2000/svg" viewBox="0 0 256 256"><path d="m 219.3 209 c 159.7 -227 -255.7 -299.3 -214.5 -58 21.84 95.9 150.5 149 214.5 58" style="fill:#4c5262"/><g transform="matrix(9.672 0 0 10.115 50.5 49.4)" style="fill:#fff"><path d="M 3.5,10 C 1.5,10 0,8.5 0,6.5 0,4.5 1.5,3 3.5,3 3.9,3 4.3,3.1 4.8,3.2 5,3.3 5.2,3.6 5.1,3.9 5,4.1 4.7,4.3 4.4,4.2 4.1,4.1 3.8,4 3.5,4 2.1,4 1,5.1 1,6.5 1,7.9 2.1,9 3.5,9 4,9 4.5,8.8 4.9,8.6 5.1,8.5 5.4,8.5 5.6,8.8 5.8,9.1 5.7,9.3 5.4,9.5 4.8,9.8 4.1,10 3.5,10 z"/><path d="M 12.5,10 C 12.1,10 11.5,9.8 11.3,9.8 11,9.7 10.9,9.4 11,9.2 11.1,8.9 11.4,8.8 11.6,8.9 12,8.9 12.3,9 12.5,9 13.9,9 15,7.9 15,6.5 15,5.1 13.9,4 12.5,4 H 12 C 11.7,4 11.5,3.8 11.5,3.5 11.5,3.2 11.7,3 12,3 h 0.5 c 2,0 3.5,1.5 3.5,3.5 0,2 -1.5,3.5 -3.5,3.5 z"/><path d="M 8.5,11 C 7.1,11 5.8,10.4 4.8,9.3 4.6,9.1 4.6,8.8 4.8,8.6 5,8.4 5.3,8.4 5.5,8.6 c 0.8,0.9 1.9,1.4 3,1.4 0.9,0 1.9,-0.4 2.7,-1.1 0.2,-0.2 0.5,-0.2 0.7,0 0.2,0.2 0.2,0.5 0,0.7 -1,0.9 -2.2,1.4 -3.4,1.4 z"/><path d="M 4.6,4.2 C 4.5,4.2 4.4,4.2 4.3,4.1 4.1,4 4,3.7 4.2,3.4 5.1,1.9 6.7,1 8.5,1 c 1.7,0 3.2,0.8 4.1,2.2 0.2,0.2 0.1,0.5 -0.1,0.7 C 12.3,4.1 12,4 11.8,3.8 11,2.6 9.8,2 8.5,2 7.1,2 5.8,2.7 5,4 4.9,4.1 4.8,4.2 4.6,4.2 z"/><path d="m 2,10.106134 -1,1.5 1,1.5 1,-1.5"/><path d="m 14,10.106134 -1,1.5 1,1.5 1,-1.5"/><path d="M 11,11.5 10,13 11,14.5 12,13"/><path d="m 5,11.606134 -1,1.5 1,1.5 1,-1.5"/><path d="m 8,13.17689 -1,1.5 1,1.5 1,-1.5"/></g></svg>