<svg xmlns="http://www.w3.org/2000/svg" viewBox="0 0 256 256"><path d="m 212.2 212.1 c 129.1 -104.3 -59.91 -292.3 -174.1 -172.2 -114.5 103.5 64.2 304.2 174.1 172.2" style="fill:#4b4e6f"/><g transform="matrix(-9.413 0 0 9.702 203.1 53.3)" style="fill:#fff"><g style="fill:#fff"><circle r="0.5" cy="13.5" cx="6.5" transform="translate(0.13 0.43)"/><circle r="0.5" cy="13.5" cx="9.5" transform="translate(0.04 0.38)"/><circle r="0.5" cy="15.5" cx="7.5" transform="translate(0.66 0.38)"/><path d="M 3.9,9.7 C 4.2,9.7 4.4,9.5 4.4,9.2 4.4,8.9 4.2,8.7 3.9,8.7 2.3,8.7 1,7.4 1,5.8 1,4.2 2.3,2.9 3.9,2.9 c 0.6,0 1.2,0.2 1.6,0.5 0.1485721,0 0.4211427,0 0.6,0 C 6.176142,3.341209 6.2973111,3.2726968 6.3,3.2 6.3,3.1296673 6.3,3.057731 6.3,3 6.8,1.8 8,1 9.5,1 c 1.6,0 2.8,1 3.2,2.4 0,0.1 0,0.3 0.1,0.4 0.1,0.2 0.3,0.4 0.5,0.4 0.06667,0 0.133333,0 0.2,0 0.9,0.4 1.5,1.3 1.5,2.3 0,1.4 -1.1,2.6 -2.5,2.6 -0.3,0 -0.5,0.2 -0.5,0.5 0,0.3 0.2,0.5 0.5,0.5 C 14.4,10.1 16,8.5 16,6.5 16,5 15.1,3.7 13.7,3.2 13.2,1.3 11.5,0 9.5,0 7.8,0 6.4,0.9 5.6,2.3 5.1,2 4.5,1.9 3.9,1.9 1.8,1.9 0,3.7 0,5.8 0,7.9 1.8,9.7 3.9,9.7 z"/></g><g style="fill:#f5f5f5"><path d="m 5.53 9.45 c 0.09 -0.29 0.01 -0.28 1.44 -0.05 0.51 0.08 0.93 0.14 0.94 0.13 0.01 -0.01 -0.01 -0.05 -0.04 -0.1 c -1.09 -1.33 -1.3 -1.67 -1.17 -1.93 0.06 -0.13 0.11 -0.16 0.26 -0.16 0.33 0 0.43 0.15 0.82 1.19 0.4 1.07 0.37 1 0.41 0.93 0.02 -0.04 0.13 -0.34 0.25 -0.68 0.49 -1.4 0.64 -1.6 1 -1.36 0.31 0.2 0.26 0.46 -0.16 0.93 -0.39 0.44 -0.93 1.11 -0.93 1.15 c 0 0.05 -0.05 0.06 0.92 -0.11 c 0.92 -0.16 1.19 -0.18 1.29 -0.09 0.19 0.16 0.26 0.47 0.13 0.6 -0.18 0.2 -0.41 0.24 -0.8 0.14 -0.39 -0.1 -1.54 -0.3 -1.57 -0.27 c -0.03 0.03 0.18 0.28 0.77 0.98 0.28 0.32 0.46 0.58 0.5 0.69 0.06 0.17 0.06 0.19 -0.01 0.34 c -0.08 0.16 -0.08 0.16 -0.31 0.17 -0.2 0.01 -0.25 0 -0.31 -0.07 -0.04 -0.05 -0.23 -0.5 -0.42 -1 -0.19 -0.51 -0.36 -0.93 -0.38 -0.93 -0.02 -0.01 -0.17 0.35 -0.33 0.78 -0.46 1.25 -0.46 1.24 -0.75 1.24 c -0.22 0 -0.27 -0.03 -0.36 -0.22 -0.11 -0.17 -0.04 -0.24 0.04 -0.41 0.07 -0.13 0.36 -0.54 0.66 -0.89 c 0.29 -0.36 0.53 -0.66 0.52 -0.67 -0.02 -0.03 -0.68 0.09 -1.31 0.23 -0.57 0.13 -0.79 0.13 -0.97 0.03 -0.21 -0.18 -0.19 -0.42 -0.14 -0.59 z"/><path d="m 13.26 15.55 c -0.25 -0.08 -0.25 -0.01 -0.04 -1.25 0.07 -0.44 0.12 -0.81 0.11 -0.82 -0.01 -0.01 -0.05 0.01 -0.08 0.04 -1.17 0.95 -1.47 1.13 -1.7 1.02 -0.11 -0.05 -0.14 -0.1 -0.14 -0.23 0 -0.28 0.13 -0.37 1.04 -0.71 0.94 -0.35 0.88 -0.33 0.82 -0.36 -0.03 -0.02 -0.3 -0.11 -0.6 -0.22 -1.23 -0.43 -1.4 -0.55 -1.19 -0.87 0.18 -0.27 0.4 -0.23 0.82 0.14 0.39 0.34 0.97 0.81 1.01 0.81 0.05 0 0.05 0.05 -0.1 -0.81 -0.14 -0.8 -0.16 -1.04 -0.08 -1.12 0.14 -0.16 0.41 -0.22 0.53 -0.12 0.17 0.16 0.21 0.36 0.12 0.7 -0.09 0.34 -0.26 1.34 -0.24 1.37 0.03 0.02 0.25 -0.15 0.86 -0.68 0.28 -0.24 0.51 -0.4 0.61 -0.44 0.15 -0.05 0.16 -0.05 0.3 0.01 0.14 0.07 0.14 0.07 0.15 0.27 0.01 0.17 0 0.22 -0.07 0.27 -0.04 0.04 -0.44 0.2 -0.89 0.36 -0.45 0.17 -0.81 0.31 -0.82 0.33 -0.01 0.02 0.3 0.14 0.69 0.28 1.1 0.4 1.09 0.4 1.09 0.66 0 0.19 -0.03 0.24 -0.19 0.31 -0.15 0.1 -0.21 0.04 -0.36 -0.04 -0.12 -0.06 -0.47 -0.32 -0.79 -0.57 -0.31 -0.26 -0.58 -0.46 -0.59 -0.45 -0.02 0.02 0.08 0.59 0.2 1.14 0.11 0.5 0.12 0.69 0.03 0.84 -0.16 0.18 -0.37 0.17 -0.52 0.12 z"/><path d="m 2.79 15.38 c -0.26 -0.08 -0.25 -0.01 -0.04 -1.24 0.07 -0.44 0.13 -0.81 0.12 -0.82 -0.01 -0.01 -0.05 0.01 -0.09 0.04 -1.2 0.95 -1.5 1.12 -1.74 1.01 -0.12 -0.05 -0.14 -0.1 -0.14 -0.23 0 -0.28 0.13 -0.37 1.07 -0.71 0.96 -0.35 0.9 -0.32 0.84 -0.36 c -0.03 -0.02 -0.31 -0.11 -0.61 -0.21 -1.26 -0.42 -1.44 -0.55 -1.22 -0.87 0.18 -0.26 0.41 -0.23 0.83 0.14 c 0.39 0.34 0.99 0.8 1.03 0.8 0.05 0 0.05 0.05 -0.1 -0.8 -0.14 -0.79 -0.16 -1.03 -0.08 -1.11 0.14 -0.16 0.42 -0.22 0.54 -0.11 0.18 0.16 0.21 0.36 0.12 0.7 -0.09 0.34 -0.27 1.33 -0.24 1.35 0.03 0.02 0.26 -0.15 0.88 -0.67 0.29 -0.24 0.52 -0.4 0.62 -0.43 0.15 -0.05 0.17 -0.05 0.31 0.01 0.14 0.06 0.14 0.07 0.16 0.27 0.01 0.17 0 0.21 -0.07 0.27 -0.04 0.03 -0.45 0.2 -0.91 0.36 -0.46 0.16 -0.83 0.31 -0.84 0.33 -0.01 0.02 0.31 0.14 0.7 0.28 1.12 0.4 1.12 0.39 1.12 0.65 0 0.19 -0.03 0.23 -0.2 0.31 -0.15 0.1 -0.21 0.04 -0.37 -0.04 c -0.12 -0.06 -0.48 -0.31 -0.8 -0.57 -0.32 -0.25 -0.59 -0.46 -0.6 -0.45 c -0.02 0.02 0.08 0.59 0.2 1.13 0.11 0.49 0.12 0.68 0.03 0.84 -0.16 0.18 -0.38 0.17 -0.53 0.12 z"/></g><g style="fill:#fff"><circle r="0.5" cy="13.5" cx="6.5" transform="translate(-1.45 3.11)"/><circle r="0.5" cy="13.5" cx="6.5" transform="translate(4.48 3.24)"/></g></g></svg>