<svg xmlns="http://www.w3.org/2000/svg" viewBox="0 0 256 256"><path d="m 43.68 45.1 c -129.9 104.3 60.3 292.3 175.2 172.2 115.2 -103.5 -64.6 -304.2 -175.2 -172.2" style="fill:#223352"/><g transform="matrix(9.413 0 0 9.702 52.94 57.86)" style="fill:#fff"><path d="M 3.9,9.7 C 4.2,9.7 4.4,9.5 4.4,9.2 4.4,8.9 4.2,8.7 3.9,8.7 2.3,8.7 1,7.4 1,5.8 1,4.2 2.3,2.9 3.9,2.9 c 0.6,0 1.2,0.2 1.6,0.5 0.1485721,0 0.4211427,0 0.6,0 C 6.176142,3.341209 6.2973111,3.2726968 6.3,3.2 6.3,3.1296673 6.3,3.057731 6.3,3 6.8,1.8 8,1 9.5,1 c 1.6,0 2.8,1 3.2,2.4 0,0.1 0,0.3 0.1,0.4 0.1,0.2 0.3,0.4 0.5,0.4 0.06667,0 0.133333,0 0.2,0 0.9,0.4 1.5,1.3 1.5,2.3 0,1.4 -1.1,2.6 -2.5,2.6 -0.3,0 -0.5,0.2 -0.5,0.5 0,0.3 0.2,0.5 0.5,0.5 C 14.4,10.1 16,8.5 16,6.5 16,5 15.1,3.7 13.7,3.2 13.2,1.3 11.5,0 9.5,0 7.8,0 6.4,0.9 5.6,2.3 5.1,2 4.5,1.9 3.9,1.9 1.8,1.9 0,3.7 0,5.8 0,7.9 1.8,9.7 3.9,9.7 z" style="fill:#fff"/><path d="m 8.1 13.19 c -0.37 -0.13 -0.36 -0.02 -0.06 -1.92 0.11 -0.68 0.18 -1.24 0.17 -1.26 -0.01 -0.01 -0.07 0.01 -0.12 0.06 -1.71 1.46 -2.14 1.73 -2.47 1.56 -0.16 -0.08 -0.2 -0.15 -0.2 -0.35 0 -0.43 0.19 -0.57 1.52 -1.09 c 1.37 -0.54 1.29 -0.5 1.19 -0.55 -0.04 -0.02 -0.44 -0.17 -0.87 -0.33 -1.79 -0.65 -2.04 -0.85 -1.73 -1.34 0.26 -0.41 0.58 -0.35 1.19 0.21 0.56 0.52 1.41 1.24 1.47 1.24 c 0.07 0 0.07 0.07 -0.14 -1.23 c -0.2 -1.23 -0.23 -1.59 -0.12 -1.72 0.2 -0.25 0.6 -0.34 0.77 -0.18 0.25 0.25 0.3 0.55 0.18 1.07 -0.13 0.52 -0.38 2.06 -0.34 2.09 0.04 0.04 0.36 -0.23 1.25 -1.03 0.41 -0.37 0.74 -0.62 0.88 -0.67 c 0.22 -0.08 0.24 -0.08 0.43 0.02 0.2 0.1 0.21 0.11 0.22 0.42 0.01 0.26 0 0.33 -0.1 0.41 -0.06 0.05 -0.64 0.3 -1.29 0.56 -0.65 0.25 -1.18 0.48 -1.19 0.5 -0.01 0.02 0.44 0.22 1 0.44 1.59 0.61 1.59 0.61 1.59 1 0 0.29 -0.04 0.36 -0.28 0.48 -0.22 0.15 -0.3 0.06 -0.53 -0.06 -0.17 -0.09 -0.69 -0.48 -1.14 -0.88 -0.46 -0.39 -0.84 -0.7 -0.85 -0.69 -0.03 0.03 0.11 0.91 0.29 1.75 0.16 0.76 0.17 1.05 0.04 1.29 -0.23 0.27 -0.54 0.26 -0.75 0.19 z" style="fill:#f5f5f5"/></g><g transform="matrix(9.457 0 0 9.608 52.4 56.93)" style="fill:#fff;opacity:0.75"><path d="m 1.66 14 c 0 1.8 2.5 1.8 2.5 0 0 -0.7 -1.2 -2.6 -1.2 -2.6 0 0 -1.3 1.8 -1.3 2.6 z"/><path d="m 12.28 13.99 c 0 1.8 2.5 1.8 2.5 0 0 -0.7 -1.2 -2.6 -1.2 -2.6 0 0 -1.3 1.8 -1.3 2.6 z"/></g></svg>