<svg xmlns="http://www.w3.org/2000/svg" viewBox="0 0 256 256"><path d="m 219.3 48 c 159.7 227 -255.7 299.3 -214.5 58 c 21.84 -95.9 150.5 -149 214.5 -58" style="fill:#6495ed"/><path d="m 168.3 98.5 c -19.66 0 -36.2 11.98 -40.4 27.94 -4.14 -15.97 -20.7 -27.94 -41.4 -27.94 -23.8 0 -42.4 15.97 -42.4 34.93 0 18.96 18.63 34.93 42.4 34.93 20.7 0 37.3 -11.98 41.4 -27.94 4.14 15.97 20.7 27.94 40.4 27.94 22.77 0 41.4 -15.97 41.4 -34.93 0 -18.96 -18.63 -34.93 -41.4 -34.93 z m -81.8 59.88 c -17.59 0 -32.1 -10.98 -32.1 -24.95 0 -13.97 14.49 -24.95 32.1 -24.95 17.59 0 32.1 10.98 32.1 24.95 0 13.97 -14.49 24.95 -32.1 24.95 z m 81.8 0 c -17.59 0 -31 -10.98 -31 -24.95 0 -13.97 13.45 -24.95 31 -24.95 17.59 0 31 10.98 31 24.95 0 13.97 -13.45 24.95 -31 24.95 z" style="fill:#fff"/></svg>