<svg xmlns="http://www.w3.org/2000/svg" viewBox="0 0 256 256"><path d="m 211.2 218.8 c 201.8 -266.4 -353.6 -304.2 -175.4 -32.3 40.63 61.99 121.9 102.9 175.4 32.3" style="fill:#3f4a7a"/><g transform="matrix(7.126 0 0.553 9.163 62.91 61.89)" style="fill:#fff"><path d="M 14,9 C 14,8.7 13.8,8.4 13.5,8.1 14.4,7.7 15,7.1 15,6.5 15,6.2 14.9,6 14.7,5.7 15.5,5.3 16,4.7 16,4 16,2.3 12.9,1 9,1 5.1,1 2,2.3 2,4 2,4.7 2.5,5.3 3.3,5.7 3.1,6 3,6.2 3,6.5 3,7.1 3.6,7.7 4.5,8.1 4.2,8.4 4,8.7 4,9 4,9.5 4.4,9.9 5.1,10.2 5,10.3 5,10.4 5,10.5 5,11 5.6,11.4 6.6,11.7 6.2,11.9 6,12.2 6,12.5 6,12.9 6.5,13.3 7.2,13.6 7.1,13.7 7,13.9 7,14 c 0,0.5 0.8,0.9 2,1 0,0 0,0 0,0 0,0.6 0.7,1 1.5,1 0.8,0 1.5,-0.4 1.5,-1 0,-0.2 -0.1,-0.4 -0.3,-0.6 0.2,-0.2 0.3,-0.3 0.3,-0.5 0,-0.1 -0.1,-0.2 -0.1,-0.3 0.7,-0.3 1.1,-0.7 1.1,-1.1 0,-0.4 -0.4,-0.8 -1,-1 0.6,-0.3 1,-0.6 1,-1 0,-0.1 0,-0.2 -0.1,-0.3 C 13.6,9.9 14,9.5 14,9 z M 2.5,4 C 2.5,2.8 5.2,1.5 9,1.5 c 3.8,0 6.5,1.3 6.5,2.5 0,0.5 -0.4,1 -1.1,1.4 C 13.4,4.6 11.3,4 9,4 6.7,4 4.6,4.6 3.6,5.4 2.9,5 2.5,4.5 2.5,4 z M 13.8,5.6 C 12.7,6.1 11,6.5 9,6.5 7,6.5 5.3,6.1 4.2,5.6 5.1,5 6.9,4.5 9,4.5 c 2.1,0 3.9,0.5 4.8,1.1 z M 3.5,6.5 C 3.5,6.3 3.6,6.2 3.7,6 5,6.6 6.9,7 9,7 c 2.1,0 4,-0.4 5.3,-1 0.1,0.2 0.2,0.3 0.2,0.5 0,0.4 -0.6,0.9 -1.5,1.3 C 12.1,7.3 10.7,7 9,7 7.3,7 5.9,7.3 5,7.8 4.1,7.4 3.5,6.9 3.5,6.5 z M 12.3,8 C 11.4,8.3 10.3,8.5 9,8.5 7.7,8.5 6.6,8.3 5.7,8 6.5,7.7 7.6,7.5 9,7.5 c 1.4,0 2.5,0.2 3.3,0.5 z m -0.8,7 c 0,0.2 -0.4,0.5 -1,0.5 -0.6,0 -1,-0.3 -1,-0.5 0.7,0 1.3,-0.1 1.7,-0.3 0.2,0.1 0.3,0.2 0.3,0.3 z M 10,14.6 c 0.1,0 0.3,-0.1 0.5,-0.1 0,0 0,0 0,0 -0.1,0 -0.3,0.1 -0.5,0.1 z M 11.5,14 c 0,0.1 0,0.1 -0.1,0.2 C 11.2,14.1 10.9,14 10.5,14 9.9,14 9.4,14.2 9.1,14.6 8,14.5 7.5,14.2 7.5,14 c 0,-0.1 0.1,-0.1 0.2,-0.2 0.5,0.1 1.1,0.2 1.8,0.2 0.7,0 1.3,-0.1 1.8,-0.2 0.1,0.1 0.2,0.1 0.2,0.2 z M 8.7,13.5 c 0.2,0 0.5,-0.1 0.8,-0.1 0.3,0 0.6,0 0.8,0.1 -0.2,0 -0.5,0 -0.8,0 -0.3,0 -0.5,0 -0.8,0 z m 3.8,-1 c 0,0.2 -0.4,0.5 -1.1,0.7 C 10.9,13 10.3,12.9 9.5,12.9 8.8,12.9 8.1,13 7.6,13.3 6.9,13.1 6.5,12.8 6.5,12.5 6.5,12.3 6.8,12 7.3,11.8 7.8,11.9 8.4,12 9,12 c 0.9,0 1.6,-0.1 2.3,-0.3 0.8,0.2 1.2,0.6 1.2,0.8 z m 0,-2 c 0,0.2 -0.4,0.5 -1.2,0.7 C 10.8,11.1 10.2,11 9.5,11 8.7,11 7.9,11.1 7.3,11.4 6.1,11.2 5.5,10.8 5.5,10.5 c 0,0 0,0 0,-0.1 0.9,0.4 2.1,0.6 3.5,0.6 1.4,0 2.6,-0.2 3.5,-0.5 0,0 0,0 0,0 z M 6,10.1 C 6.6,9.8 7.6,9.5 9,9.5 c 1.4,0 2.5,0.3 3,0.6 -0.8,0.3 -1.8,0.4 -3,0.4 -1.2,0 -2.2,-0.2 -3,-0.4 z M 12.6,9.8 C 11.9,9.4 10.6,9 9,9 7.4,9 6.1,9.4 5.4,9.8 4.8,9.6 4.5,9.3 4.5,9 4.5,8.8 4.7,8.6 5,8.4 6.1,8.8 7.5,9 9,9 c 1.5,0 2.9,-0.2 4,-0.6 0.3,0.2 0.5,0.4 0.5,0.6 0,0.3 -0.3,0.6 -0.9,0.8 z"/><circle r="0.5" cy="5.5" cx="0.5" transform="matrix(-0.078 1 -1.278 0.061 8.1 5)"/><circle r="0.5" cy="8.5" cx="1.5" transform="matrix(-0.075 0.96 -1.278 0.061 12.1 6.59)"/><circle r="0.5" cy="11.5" cx="3.5" transform="matrix(-0.075 0.969 -1.279 0.075 18.47 7.25)"/><circle r="0.5" cy="13.5" cx="5.5" transform="matrix(1.39 0 0 1.087 -9.81 -13.77)"/><circle r="0.5" cy="15.5" cx="6.5" transform="matrix(1 0 0.011 0.863 -1.62 0.88)"/><circle r="0.5" cy="11.5" cx="14.5" transform="matrix(-0.067 0.864 -1.29 0.06 30.37 -1.73)"/><circle r="0.5" cy="8.5" cx="15.5" transform="matrix(-0.064 0.821 -1.29 0.06 27.48 -4.74)"/><circle r="0.5" cy="0.5" cx="14.5" transform="matrix(1.335 0 0 1 -4.68 0)"/><circle r="0.5" cy="0.5" cx="2.5" transform="matrix(1.613 0 0 1.175 -1.84 0)"/><circle r="0.5" cy="2.5" cx="8.5" transform="matrix(1.558 0 0 1.262 -5 -0.22)"/><circle r="0.5" cy="5.5" cx="10.5" transform="matrix(1.335 0 0 1 -3.68 0)"/><circle r="0.5" cy="13.5" cx="1.5" transform="matrix(-0.098 1.267 -1.725 0.082 23.1 0.21)"/></g></svg>