<svg xmlns="http://www.w3.org/2000/svg" viewBox="0 0 256 256"><path d="m 237.3 63.4 c -193.4 -223.9 -379.4 236.5 -80.3 189.2 65.6 -10.38 132.4 -128.8 80.3 -189.2" style="fill:#008b8b"/><g transform="matrix(9.517 0 0 9.618 48.4 61.1)" style="fill:#fff"><path d="M 12,4 C 10.1,4 8.5,5.2 8.1,6.8 7.7,5.2 6.1,4 4.1,4 1.8,4 0,5.6 0,7.5 0,9.4 1.8,11 4.1,11 c 2,0 3.6,-1.2 4,-2.8 0.4,1.6 2,2.8 3.9,2.8 2.2,0 4,-1.6 4,-3.5 C 16,5.6 14.2,4 12,4 z M 4.1,10 C 2.4,10 1,8.9 1,7.5 1,6.1 2.4,5 4.1,5 5.8,5 7.2,6.1 7.2,7.5 7.2,8.9 5.8,10 4.1,10 z M 12,10 C 10.3,10 9,8.9 9,7.5 9,6.1 10.3,5 12,5 c 1.7,0 3,1.1 3,2.5 0,1.4 -1.3,2.5 -3,2.5 z"/><circle r="1" cy="2" cx="3"/><circle r="1" cy="2" cx="13"/><circle r="1" cy="13" cx="3"/><circle r="1" cy="13" cx="13"/></g></svg>