<svg xmlns="http://www.w3.org/2000/svg" viewBox="0 0 256 256"><path d="m 237.3 63.4 c -193.4 -223.9 -379.4 236.5 -80.3 189.2 65.6 -10.38 132.4 -128.8 80.3 -189.2" style="fill:#708090"/><g transform="matrix(9.243 0 0 9.485 51.59 57.2)" style="fill:#fff"><path d="M 12,5 C 10.1,5 8.5,6 8.1,7.3 7.7,6 6.1,5 4.1,5 1.8,5 0,6.3 0,8 c 0,1.7 1.8,3 4.1,3 2,0 3.6,-1 4,-2.3 0.4,1.3 2,2.3 3.9,2.3 2.2,0 4,-1.3 4,-3 C 16,6.3 14.2,5 12,5 z M 4.1,10 C 2.4,10 1,9.1 1,8 1,6.9 2.4,6 4.1,6 5.8,6 7.2,6.9 7.2,8 7.2,9.1 5.8,10 4.1,10 z M 12,10 C 10.4,10 9,9.1 9,8 9,6.9 10.4,6 12,6 c 1.6,0 3,0.9 3,2 0,1.1 -1.4,2 -3,2 z"/><circle r="1" cy="2" cx="2"/><circle r="1" cy="2" cx="14"/><circle r="1" cy="14" cx="2"/><circle r="1" cy="14" cx="14"/><circle r="1" cy="13" cx="6"/><circle r="1" cy="13" cx="10"/><circle r="1" cy="3" cx="6"/><circle r="1" cy="3" cx="10"/></g></svg>