<svg xmlns="http://www.w3.org/2000/svg" viewBox="0 0 256 256"><path d="m 32.45 67.1 c -90.5 102.3 43.5 210.5 122 183.9 c 78.5 -26.61 131.3 -101.7 79.98 -167.6 c -51.3 -65.85 -101.7 -129.4 -192.2 -27.1" style="fill:#4682b4"/><g transform="matrix(11.324 0 0 10.448 37.1 53.7)" style="fill:#fff"><path d="M 10,8.5 10,2 C 10,0.9 9.1,0 8,0 6.9,0 6,0.9 6,2 l 0,6.5 c -1.2,0.7 -2,2 -2,3.5 0,2.2 1.8,4 4,4 2.2,0 4,-1.8 4,-4 0,-1.4 -0.8,-2.7 -2,-3.5 z M 8,15 C 6.4,15 5,13.6 5,12 5,10.8 5.7,9.8 6.7,9.2 6.8,9.2 6.9,9.1 7,9 l 0,0 -0.036277,-2.0289887 1.9637231,0 L 9,9 9,9 c 0,0.1 0.1,0.2 0.2,0.2 1.1,0.6 1.8,1.6 1.8,2.8 0,1.6 -1.4,3 -3,3 z"/><g style="stroke-miterlimit:10;stroke:#fff;stroke-linecap:round"><path d="m 3 4.5 h 1.5"/><path d="m 3.5 6.5 h 1"/><path d="m 2.5 2.5 h 2"/></g></g></svg>