<svg xmlns="http://www.w3.org/2000/svg" viewBox="0 0 256 256"><path d="m 101.2 4.29 c -131 19.69 -134.8 215.7 -7.59 245.2 103.1 30.48 187.3 -79.93 153.5 -162.4 -15.99 -55.3 -81.2 -100 -146 -82.8" style="fill:#322f2e"/><g transform="matrix(8.79 0 0 8.37 58.3 58.4)" style="fill:#fff"><path d="M 5,11.5 1.3,4 1,4 0,4 0,13 1,13 1,6 4.7,13 5,13 6,13 6,4 5,4"/><path d="M 14.7,13 H 16 L 13.7,4 H 12.3 L 10,13 h 1.3 L 12,10 h 2.1 l 0.6,3 z M 12.3,9 13,6 13.8,9 h -1.5 z"/><path d="m 9,5 -2,7 1,0 2,-7"/></g></svg>