<svg xmlns="http://www.w3.org/2000/svg" viewBox="0 0 256 256"><path d="m 128.4 255.1 c 168.9 19.22 166.5 -255.9 -3 -252.7 -157.7 -9.1 -171.9 267.6 3 252.7" style="fill:#5b6e85"/><path d="m 127.6 55.81 c -15.48 0.06 -28 13.58 -28.1 30.3 v 44.98 h 56.1 v -44.98 c -0.06 -16.69 -12.6 -30.2 -28.1 -30.3 m -6.59 14.91 c 2.18 0 4 1.9 4 4.31 0 2.35 -1.77 4.31 -4 4.31 -2.18 0 -4 -1.9 -4 -4.31 0 -2.35 1.77 -4.31 4 -4.31 z m 13.1 0 c 2.18 0 4 1.9 4 4.31 0 2.35 -1.77 4.31 -4 4.31 -2.18 0 -4 -1.9 -4 -4.31 0 -2.35 1.77 -4.31 4 -4.31 m -26.2 13.26 c 2.18 0 4 1.9 4 4.31 0 2.35 -1.77 4.31 -4 4.31 -2.18 0 -4 -1.9 -4 -4.31 0 -2.35 1.77 -4.31 4 -4.31 z m 13.1 0 c 2.18 0 4 1.9 4 4.31 0 2.35 -1.77 4.31 -4 4.31 -2.18 0 -4 -1.9 -4 -4.31 0 -2.35 1.77 -4.31 4 -4.31 z m 13.1 0 c 2.18 0 4 1.9 4 4.31 0 2.35 -1.77 4.31 -4 4.31 -2.18 0 -4 -1.9 -4 -4.31 0 -2.35 1.77 -4.31 4 -4.31 m 13.1 0 c 2.18 0 4 1.9 4 4.31 0 2.35 -1.77 4.31 -4 4.31 -2.18 0 -4 -1.9 -4 -4.31 0 -2.35 1.77 -4.31 4 -4.31 m -39.4 13.83 c 2.18 0 4 1.9 4 4.31 0 2.35 -1.77 4.31 -4 4.31 -2.18 0 -4 -1.9 -4 -4.31 0 -2.35 1.77 -4.31 4 -4.31 z m 13.1 0 c 2.18 0 4 1.9 4 4.31 0 2.35 -1.77 4.31 -4 4.31 -2.18 0 -4 -1.9 -4 -4.31 0 -2.35 1.77 -4.31 4 -4.31 z m 13.1 0 c 2.18 0 4 1.9 4 4.31 0 2.35 -1.77 4.31 -4 4.31 -2.18 0 -4 -1.9 -4 -4.31 0 -2.35 1.77 -4.31 4 -4.31 z m 13.1 0 c 2.18 0 4 1.9 4 4.31 0 2.35 -1.77 4.31 -4 4.31 -2.18 0 -4 -1.9 -4 -4.31 0 -2.35 1.77 -4.31 4 -4.31 z m -39.4 14.34 c 2.18 0 4 1.9 4 4.31 0 2.35 -1.77 4.31 -4 4.31 -2.18 0 -4 -1.9 -4 -4.31 0 -2.35 1.77 -4.31 4 -4.31 z m 13.1 0 c 2.18 0 4 1.9 4 4.31 0 2.35 -1.77 4.31 -4 4.31 -2.18 0 -4 -1.9 -4 -4.31 0 -2.35 1.77 -4.31 4 -4.31 z m 13.1 0 c 2.18 0 4 1.9 4 4.31 0 2.35 -1.77 4.31 -4 4.31 -2.18 0 -4 -1.9 -4 -4.31 0 -2.35 1.77 -4.31 4 -4.31 z m 13.1 0 c 2.18 0 4 1.9 4 4.31 0 2.35 -1.77 4.31 -4 4.31 -2.18 0 -4 -1.9 -4 -4.31 0 -2.35 1.77 -4.31 4 -4.31 z m -58.4 23 v 10.4 c 0.06 19.73 13.95 35.91 33.1 38.1 v 17.7 c -14.65 0.82 -25.84 5.08 -25.84 10.28 h 61.74 c 0 -5.2 -11.18 -9.45 -25.84 -10.28 v -17.89 c 18.66 -2.73 33 -18.72 33.1 -38 v -10.4 z m 6.12 0 h 63.98 v 8.37 c -0.06 19.35 -14.95 33.82 -32.61 33.88 -17.66 -0.06 -31.37 -14.47 -31.43 -33.88 z m 4.53 1.08 v 7.23 c 0.06 16.69 12.6 30.2 28.1 30.3 15.48 -0.06 28 -13.58 28.1 -30.3 v -7.23 z" style="fill:#fff;fill-opacity:0.5;color:#31363b"/></svg>