<svg xmlns="http://www.w3.org/2000/svg" viewBox="0 0 256 256"><path d="m 211.9 44.78 c 129.2 104.1 -59.99 291.8 -174.3 171.8 -114.6 -103.3 64.3 -303.6 174.3 -171.8" style="fill:#084770"/><path d="m 126.9 36.61 c -51.5 0 -93.2 41.55 -93.2 92.8 0 51.3 41.71 92.8 93.2 92.8 51.5 0 93.2 -41.55 93.2 -92.8 0 -51.3 -41.71 -92.8 -93.2 -92.8 z m 0 6.94 c 47.6 0 86.2 38.43 86.2 85.9 0 47.4 -38.57 85.9 -86.2 85.9 -47.6 0 -86.2 -38.43 -86.2 -85.9 0 -47.4 38.57 -85.9 86.2 -85.9 z m 0 16.58 c -0.59 0 -1.18 0.01 -1.77 0.02 -11.22 0.28 -21.78 3.25 -31.1 8.29 -1.03 0.56 -2.06 1.15 -3.06 1.76 -19.28 11.78 -32.3 32.76 -32.9 56.72 -0.02 0.58 -0.02 1.17 -0.02 1.76 0 0.59 0.01 1.17 0.02 1.76 0.28 11.24 3.29 21.81 8.4 31.1 0.56 1.03 1.16 2.05 1.78 3.04 2.73 4.41 5.95 8.49 9.58 12.15 l 15.61 -15.56 c -8.25 -8.39 -13.28 -19.85 -13.28 -32.53 0 -25.7 20.9 -46.53 46.7 -46.53 10.25 0 19.73 3.29 27.41 8.88 0.59 0.47 1.18 0.97 1.78 1.47 l 15.74 -15.68 c -2.84 -2.45 -5.87 -4.68 -9.1 -6.65 -1 -0.61 -2.03 -1.2 -3.06 -1.77 -9.27 -5 -19.81 -7.99 -31 -8.27 -0.58 -0.02 -1.18 -0.02 -1.77 -0.02 z m -0.21 22.69 c -0.77 0 -1.42 0.6 -1.46 1.37 l -2.32 35.2 c -1.33 0.59 -2.56 1.48 -3.57 2.69 -3.06 3.63 -3.04 9 0.01 12.62 3.94 4.69 11.1 4.69 15.1 0.06 3.08 -3.6 3.13 -8.96 0.11 -12.62 -1.04 -1.26 -2.32 -2.19 -3.7 -2.78 l -2.67 -35.2 c -0.06 -0.77 -0.7 -1.37 -1.48 -1.36 z m 52.74 1.73 l -15.74 15.68 c 0.2 0.25 0.41 0.46 0.62 0.72 2.56 3.42 4.65 7.21 6.21 11.26 l 21.42 -5.72 c -1.28 -3.7 -2.86 -7.25 -4.72 -10.64 -0.56 -1.03 -1.16 -2.04 -1.78 -3.04 -1.8 -2.89 -3.83 -5.65 -6 -8.24 z m 15.22 32.39 l -21.46 5.73 c 0.26 1.98 0.39 4 0.39 6 0 2.58 -0.22 5.09 -0.62 7.58 l 21.43 5.72 c 0.76 -3.81 1.2 -7.74 1.29 -11.75 0.02 -0.51 0.02 -1.02 0.02 -1.53 0 -0.67 -0.01 -1.33 -0.03 -1.99 -0.1 -3.33 -0.46 -6.59 -1.02 -9.79 z m -67.7 7.88 c 0.91 0.01 1.82 0.35 2.51 1.05 0.69 0.69 1.03 1.58 1.03 2.48 0.01 0.92 -0.34 1.84 -1.05 2.53 -1.39 1.38 -3.65 1.37 -5 -0.02 -0.68 -0.68 -1.02 -1.58 -1.03 -2.48 -0.01 -0.92 0.34 -1.84 1.05 -2.53 0.7 -0.69 1.61 -1.03 2.52 -1.02 z m 43.1 21.84 c -2.29 5.46 -5.6 10.39 -9.68 14.58 l 15.61 15.56 c 3.73 -3.77 7 -7.97 9.8 -12.51 0.61 -1 1.2 -2 1.74 -3.06 1.53 -2.82 2.85 -5.78 3.98 -8.83 l -21.45 -5.73 z" style="fill:#fff;opacity:0.5;color:#31363b"/></svg>