<svg xmlns="http://www.w3.org/2000/svg" viewBox="0 0 256 256"><path d="m 212.2 212.5 c -104.9 129.2 -294.1 -59.99 -173.2 -174.3 104.1 -114.6 306 64.3 173.2 174.3" style="fill:#ef6708"/><path d="m 126.6 36.57 a 93.5 92.8 0 0 0 -93.5 92.8 93.5 92.8 0 0 0 93.5 92.8 93.5 92.8 0 0 0 93.5 -92.8 93.5 92.8 0 0 0 -93.5 -92.8 z m 0 6.94 a 86.5 85.9 0 0 1 86.5 85.9 86.5 85.9 0 0 1 -86.5 85.9 86.5 85.9 0 0 1 -86.5 -85.9 86.5 85.9 0 0 1 86.5 -85.9 z m 0 16.6 c -0.58 0 -1.22 0 -1.81 0 -11.25 0.29 -21.86 3.25 -31.1 8.28 -1.05 0.58 -2.1 1.16 -3.09 1.79 -19.35 11.75 -32.41 32.7 -32.99 56.72 -0.06 0.58 -0.06 1.16 -0.06 1.74 0 0.58 0 1.22 0.06 1.79 0.23 11.23 3.26 21.82 8.39 31.1 0.58 1.04 1.17 2.03 1.81 3 2.74 4.46 5.95 8.51 9.62 12.21 l 15.68 -15.57 c -8.28 -8.39 -13.35 -19.85 -13.35 -32.52 0 -25.7 20.99 -46.53 46.87 -46.53 10.26 0 19.82 3.3 27.51 8.91 0.58 0.46 1.22 0.93 1.81 1.45 l 15.74 -15.68 c -2.8 -2.43 -5.89 -4.69 -9.1 -6.66 -0.99 -0.58 -2.04 -1.16 -3.09 -1.74 -9.27 -5 -19.88 -7.99 -31.1 -8.28 -0.58 0 -1.17 0 -1.75 0 z m 52.76 24.36 l -15.8 15.68 c 0.23 0.23 0.41 0.46 0.64 0.69 2.56 3.41 4.66 7.23 6.24 11.29 l 21.45 -5.73 c -1.28 -3.7 -2.86 -7.23 -4.72 -10.65 -0.58 -1.04 -1.17 -2.03 -1.81 -3 -1.81 -2.95 -3.85 -5.67 -6 -8.28 z m 15.21 32.41 l -21.51 5.73 c 0.23 1.97 0.41 3.99 0.41 6 0 2.6 -0.23 5.09 -0.64 7.58 l 21.51 5.73 c 0.76 -3.82 1.22 -7.75 1.28 -11.75 0 -0.52 0 -1.04 0 -1.56 0 -0.64 0 -1.33 0 -1.97 -0.12 -3.36 -0.47 -6.6 -1.05 -9.78 z m -68.2 2.66 c -6.12 0 -10.78 5.5 -9.74 11.46 0.82 4.69 4.95 8.16 9.68 8.16 1.69 0.06 3.21 -0.35 4.55 -1.04 l 28.91 20.49 c 0.64 0.46 1.52 0.35 1.98 -0.23 0.52 -0.64 0.47 -1.5 -0.12 -2.03 l -25.71 -24.31 c 0.41 -1.39 0.52 -2.89 0.23 -4.46 -0.87 -4.63 -5 -8.1 -9.79 -8 z m 0.12 6.25 c 0.82 0 1.57 0.35 2.22 0.81 0.7 0.58 1.17 1.45 1.28 2.43 0.17 1.97 -1.28 3.7 -3.26 3.88 -0.99 0.06 -1.87 -0.23 -2.56 -0.81 -0.76 -0.58 -1.22 -1.45 -1.28 -2.43 -0.17 -1.97 1.28 -3.7 3.21 -3.88 0.12 0 0.29 0 0.41 0 z m 43.4 20.78 c -2.33 5.5 -5.65 10.42 -9.74 14.58 l 15.68 15.57 c 3.73 -3.82 7.1 -7.99 9.79 -12.56 0.64 -0.98 1.22 -1.97 1.81 -3 1.52 -2.84 2.86 -5.79 3.96 -8.85 l -21.51 -5.73 z" style="fill:#fff;color:#31363b"/></svg>