<svg xmlns="http://www.w3.org/2000/svg" viewBox="0 0 256 256"><path d="m 2 129.5 c -19.22 168.9 255.9 166.5 252.7 -3 9.1 -157.7 -267.6 -171.9 -252.7 3" style="fill:#105432"/><g style="fill:#fff;stroke:#463331"><path d="m 3.21 3.86 c -1.06 0 -1.91 0.85 -1.91 1.91 v 8.58 c 0 1.06 0.85 1.91 1.91 1.91 h 5.99 v 2 h -2.71 c -0.27 0 -0.49 0.02 -0.49 0.3 0 0.28 0.22 0.29 0.49 0.3 h 3 h 0.02 h 2.97 h 0.04 h 2.99 c 0.27 0 0.49 -0.02 0.49 -0.3 0 -0.28 -0.22 -0.31 -0.49 -0.3 h -2.71 v -2 h 5.99 c 1.06 0 1.91 -0.85 1.91 -1.91 v -8.58 c 0 -1.06 -0.85 -1.91 -1.91 -1.91 z m 0.02 0.5 h 15.54 c 0.79 0 1.43 0.64 1.43 1.43 v 8.54 c 0 0.79 -0.64 1.43 -1.43 1.43 h -15.54 c -0.79 0 -1.43 -0.64 -1.43 -1.43 v -8.54 c 0 -0.79 0.64 -1.43 1.43 -1.43 z m 6.57 11.92 h 2.4 v 2 h -2.4 z" transform="matrix(7.696 0 0 7.911 42.6 47.2)" style="fill:#fff;stroke:#fff;color:#31363b"/></g><g style="stroke:#3a2e78"><path d="m 6.96 9.35 c 0.4 0 0.79 0 1.19 0 v -0.93 c 0 -1.04 -0.03 -1.14 -0.41 -1.3 c -0.27 -0.11 -0.63 -0.08 -0.89 0.04 -0.38 0.17 -0.41 0.02 -0.43 1.58 l -0.02 1.66 c -0.76 0 -1.32 -0.03 -2.08 -0.03 l 0.02 -1.66 c -0.01 -0.75 -0.09 -1.44 0.25 -2.12 0.72 -1.34 1.89 -1.69 3.11 -1.6 0.91 0.1 1.59 0.44 2.11 1.05 0.52 0.61 0.66 1.13 0.66 2.49 v 0.8 c 1.67 0 3.35 0 5 0 0 1.4 0 2.79 0 4.19 -2.85 0 -5.69 0 -8.54 0 0 -1.46 0 -2.7 0 -4.19 z" transform="matrix(7.65 0 0 7.993 47.82 50.75)" style="fill:#fff;stroke:none"/></g></svg>