<svg xmlns="http://www.w3.org/2000/svg" viewBox="0 0 256 256"><path d="m 254 129.5 c 19.22 168.9 -255.9 166.5 -252.7 -3 -9.1 -157.7 267.6 -171.9 252.7 3" style="fill:#d21454"/><g style="fill:#fff;stroke:none"><path d="m 92.9 200.1 c -1.68 -0.51 -3.54 -2.54 -3.85 -4.2 -0.42 -2.26 0.41 -4.71 2.05 -6 1.39 -1.1 1.46 -1.1 11.88 -1.23 l 10.48 -0.13 c 0 -2.76 0 -5.51 0 -8.27 l -22.8 -0.17 c -20.1 -0.15 -23.1 -0.26 -25.1 -0.93 -6.63 -3.2 -10.25 -7.62 -12.71 -13.71 l -0.12 -36.5 c -0.08 -23.76 0.03 -37.4 0.33 -38.99 1.39 -7.58 7.37 -13.6 14.94 -15 3.23 -0.61 122.8 -0.62 126.1 -0.01 5.2 0.99 9.84 4.25 12.44 8.74 2.83 4.88 2.68 2.73 2.85 41.4 0.09 21.28 -0.02 36.6 -0.28 38.45 -1.18 8.48 -7.65 15.1 -16 16.28 -1.53 0.22 -12.14 0.41 -23.59 0.41 h -20.81 c 0 2.78 0 5.55 0 8.33 l 10.54 0.13 l 10.54 0.13 l 1.35 1.3 c 2.63 2.53 2.64 6.33 0 8.86 l -1.36 1.3 l -37.97 0.07 c -20.88 0.04 -38.4 -0.06 -38.92 -0.22 z m 43.5 -19.89 c -3.67 0 -7.34 0 -11 0 0 2.79 0 5.58 0 8.37 3.67 0 7.34 0 11 0 0 -2.79 0 -5.58 0 -8.37 z m 61.67 -17.32 v -35.63 c 0 -34.63 -0.02 -35.68 -0.87 -37.3 -0.93 -1.69 -2.24 -2.68 -3.75 -3.76 l -61.2 -0.13 c -33.68 -0.07 -61.87 -0.01 -62.7 0.13 -1.7 0.31 -3.84 2 -4.87 3.91 -0.69 1.26 -0.77 4.25 -0.88 35.45 -0.08 22.2 0.03 34.94 0.33 36.56 0.57 3.09 1.5 4.42 3.99 5.69 l 1.94 0.99 h 61.1 h 61.1 c 3 -1.49 4.42 -3.12 5.87 -5.87 z"/><path d="m 98.9 126.1 c 3.05 0 6.09 0 9.14 0 l 0.23 -8.48 c 0.2 -7.26 0.37 -8.82 1.17 -10.82 3.48 -8.72 11.8 -14.18 21.62 -14.18 9.73 0 18.61 5.92 21.67 14.45 0.74 2.07 0.94 3.97 1.13 10.77 l 0.23 8.26 c 3.05 0 6.09 0 9.14 0 0 10.87 0 21.73 0 32.6 -21.44 0 -42.88 0 -64.3 0 0 -10.87 0 -21.73 0 -32.6 z m 37.89 -7.31 v -7.31 c -1.81 -2.17 -3.96 -2.99 -5.73 -3 -3.13 0.05 -3.76 1.03 -5.73 3 v 7.31 v 7.31 c 3.82 0 7.64 0 11.45 0 z"/></g></svg>