<svg xmlns="http://www.w3.org/2000/svg" viewBox="0 0 256 256"><path d="m 234.1 67.7 c 68.88 92 -41.3 204.2 -130.1 184.8 -87.4 -11.43 -140.2 -144.4 -72.6 -211.9 c 49.4 -48.59 133.8 -64.86 202.7 27.1" style="fill:#2699f2"/><g transform="matrix(9.912 0 0 9.857 3.71 6.43)" style="fill:#fff"><path d="m 12 4 a 8 8 0 0 0 -8 8 8 8 0 0 0 8 8 8 8 0 0 0 4.12 -1.16 A 3 3 0 0 1 16 18 3 3 0 0 1 19 15 3 3 0 0 1 19.39 15 8 8 0 0 0 20 12 8 8 0 0 0 12 4 z M 8.87 9 c 0.19 0 0.46 0.01 0.93 0.04 1.83 0.1 2.21 0.1 3.27 0.03 1.3 -0.09 2.55 -0.09 2.91 0 0.74 0.17 1.41 0.75 1.79 1.53 0.2 0.43 0.27 0.77 0.24 1.29 -0.02 0.43 -0.11 0.84 -0.24 1.16 -0.21 0.51 -0.71 1.09 -1.13 1.31 -0.48 0.25 -1.28 0.45 -2.27 0.57 -0.53 0.07 -3.33 0.1 -4.13 0.05 C 9.42 14.93 8.4 14.76 7.91 14.6 7.18 14.37 6.7 13.95 6.34 13.23 6.11 12.77 6 12.47 6 11.87 5.99 11.44 6 11.34 6.1 11.1 6.19 10.58 6.43 10.17 6.84 9.75 7.24 9.34 7.67 9.14 8.39 9 8.56 9 8.68 9 8.87 9 z M 9.5 10 A 1.5 2 0 0 0 8 12 1.5 2 0 0 0 9.5 14 1.5 2 0 0 0 11 12 1.5 2 0 0 0 9.5 10 z m 5 0 a 1.5 2 0 0 0 -1.5 2 1.5 2 0 0 0 1.5 2 1.5 2 0 0 0 1.5 -2 1.5 2 0 0 0 -1.5 -2 z" style="fill:#fff;color:#fff"/><circle r="2" cy="18" cx="19" style="fill:#ff4500;color:#4285f4"/></g></svg>