<svg xmlns="http://www.w3.org/2000/svg" viewBox="0 0 256 256"><path d="m 193.3 20.47 c 225.3 191.1 -238 374.9 -190.4 79.3 10.44 -64.81 129.7 -130.8 190.4 -79.3 z" style="fill:#1e90ff;color:#000"/><path d="m 159.3 64.76 a 7.66 7.08 0.35 0 0 -1.21 0.19 L 80.2 84.3 a 7.66 7.08 0.35 0 0 -0.21 0.09 c -10.84 3 -18.1 11.1 -22.8 20.2 -4.68 9.1 -7.19 19.56 -8.64 29.75 -1.45 10.19 -1.78 20.1 -1.66 27.77 0.06 3.85 0.25 7.15 0.47 9.7 0.14 1.57 0.42 2.65 0.6 3.75 0 0 0 0 0.01 0.07 a 7.66 7.08 0.35 0 0 -0.01 0.53 h 0.08 c 0.13 0.56 0 0.97 0.28 1.78 a 7.66 7.08 0.35 0 0 7.64 4.89 l 69.2 -2.87 a 7.66 7.08 0.35 0 0 1.7 -0.23 l 74.8 -18.89 a 7.66 7.08 0.35 0 0 5.62 -6.9 c 0 0 -0.15 -21.1 -5.42 -42.55 C 199.2 100.6 195.3 89.7 189 80.8 182.6 71.9 172.7 64.78 160.1 64.78 a 7.66 7.08 0.35 0 0 -0.78 0.04 v -0.06 z m 1.26 14.24 c 6.48 0.17 11.13 3.19 15.67 9.52 4.67 6.5 8.28 16.1 10.68 25.89 4.16 16.96 4.24 29.95 4.36 34.3 l -65.5 16.53 c -1.12 -17.68 -6 -60.1 -28.93 -70.4 L 160.5 79 z M 81.4 104.2 c 22.55 -1.15 27 62.4 27 62.4 l -45.92 2.34 c 0 0 -3.66 -63.6 18.89 -64.72 z m 90.8 7.21 l -36.64 9.3 l -0.62 0.75 l 1.06 8.7 l 1.15 0.18 l 26.92 -7 l 1.05 7.27 l 0.79 0.05 l 9.11 -2.95 l 0.56 -0.44 l -2.63 -15.37 l -0.76 -0.46 z m -89.3 13.96 a 7.66 7.1 0.35 0 0 -7.24 7.46 7.66 7.1 0.35 0 0 2.75 5 l -5.28 16.37 l 22.96 -1.28 l -7.09 -15.74 a 7.66 7.1 0.35 0 0 1.99 -5.16 7.66 7.1 0.35 0 0 -8.1 -6.68 z" style="fill:#fff;color:#dfdfdf"/></svg>