<svg xmlns="http://www.w3.org/2000/svg" viewBox="0 0 256 256"><defs><clipPath><path transform="matrix(15.333 0 0 11.5 415 -125.5)" d="m -24 13 c 0 1.11 -0.67 2 -1.5 2 -0.83 0 -1.5 -0.89 -1.5 -2 0 -1.11 0.67 -2 1.5 -2 0.83 0 1.5 0.89 1.5 2 z"/></clipPath></defs><g transform="translate(0 -796.4)"><path d="m 52.78 1021.6 c 192.5 142.8 311 -256.2 62.2 -221.3 c -102.8 15.1 -165.2 154.7 -62.2 221.3 z" style="fill:#ff8c00;color:#000"/><path d="m 40 20 l -20 24 h 40 v -24 z m 28 0 v 24 h 40 l -20 -24 z m -48 32 v 56 h 50.68 c 11.55 -0.6 24.83 -0.14 36.92 -0.24 0 0 0.12 -18.49 0.4 -33.1 v -22.7 h -88 z" transform="matrix(1.502 0 0 1.536 33.3 824.1)" style="fill:#fff"/><path d="m 115.8 179.2 l -13.19 -27.2 l -26.2 -15.1 l 27.2 -13.19 l 15.1 -26.2 l 13.19 27.2 l 26.2 15.1 l -27.2 13.19 z" transform="matrix(0.903 -0.031 0.032 0.891 18.33 828.9)" style="fill:#ff8c00"/></g></svg>