<svg xmlns="http://www.w3.org/2000/svg" viewBox="0 0 256 256"><path d="m 244.2 188.1 c -50.4 120.1 -245.5 66.6 -244.2 -64.3 -1.95 -118.9 153.2 -164.1 221.2 -79.3 c 34 36.65 45.89 97.4 23.1 143.7"/><path d="m 201.9 130.3 a 63.2 59.89 0 1 1 -126.5 0 63.2 59.89 0 1 1 126.5 0 z" transform="matrix(1.3 0 0 1.335 -51.92 -46.4)" style="fill:#a9a9a9"/><g style="fill:#fff"><path d="m 31.3 79.7 l -4.61 -16.9 l -16.81 -6.17 l 16.9 -4.61 l 6.17 -16.81 l 4.61 16.9 l 16.81 6.17 l -16.9 4.61 z" transform="matrix(0.803 0 0 1.151 8.56 14.1)"/><path transform="matrix(0.568 0 0 0.66 212.1 74.1)" d="m 31.3 79.7 l -7.16 -14.82 l -14.25 -8.24 l 14.82 -7.16 l 8.24 -14.25 l 7.16 14.82 l 14.25 8.24 l -14.82 7.16 z"/><path d="m 31.3 79.7 l -5.31 -15.53 l -16.1 -7.54 l 15.53 -5.31 l 7.54 -16.1 l 5.31 15.53 l 16.1 7.54 l -15.53 5.31 z" transform="matrix(0.479 0 0 0.63 154.1 191.4)"/></g><path d="m 96.4 204.3 c -14.84 1.12 -23.97 -15 -19.75 -31.42 4.07 -10.87 8.1 -14.4 19.99 -19.1 -2.98 -12.31 0.8 -22.74 9.9 -26.72 7.36 -3.52 17 -3.54 23.44 -0.06 2.89 1.58 3.46 4.18 6.14 3.2 3.47 -8.87 10.52 -20.9 32.2 -20.81 12.19 -0.87 25.3 11 28.2 20.8 2.94 9.48 5.42 -0.28 15.85 2.63 27.95 3.9 29.1 41.69 5.93 48.85 -0.94 13.82 -5.65 19.1 -14.2 21.76 -32.69 8 -36.9 -12.1 -52.61 -8.83 -6.13 2.78 -16.57 14.4 -38.57 3.31 z" style="fill:#fff;stroke:#696969;stroke-width:2.13"/></svg>