<svg xmlns="http://www.w3.org/2000/svg" viewBox="0 0 256 256"><path d="m 244.2 188.1 c -50.4 120.1 -245.5 66.6 -244.2 -64.3 -1.95 -118.9 153.2 -164.1 221.2 -79.3 c 34 36.65 45.89 97.4 23.1 143.7"/><path d="m 201.9 130.3 a 63.2 59.89 0 1 1 -126.5 0 63.2 59.89 0 1 1 126.5 0 z" transform="matrix(1.3 0 0 1.335 -51.92 -46.4)" style="fill:#696969"/><g style="fill:#fff"><path d="m 31.3 79.7 l -4.61 -16.9 l -16.81 -6.17 l 16.9 -4.61 l 6.17 -16.81 l 4.61 16.9 l 16.81 6.17 l -16.9 4.61 z" transform="matrix(0.803 0 0 1.151 8.56 14.1)"/><path transform="matrix(0.568 0 0 0.66 212.1 74.1)" d="m 31.3 79.7 l -7.16 -14.82 l -14.25 -8.24 l 14.82 -7.16 l 8.24 -14.25 l 7.16 14.82 l 14.25 8.24 l -14.82 7.16 z"/><path d="m 31.3 79.7 l -5.31 -15.53 l -16.1 -7.54 l 15.53 -5.31 l 7.54 -16.1 l 5.31 15.53 l 16.1 7.54 l -15.53 5.31 z" transform="matrix(0.479 0 0 0.63 154.1 191.4)"/></g><path d="m 129.9 127.5 v -79.5 l 4 0.31 c 31.69 2.46 60.3 23.29 71.3 51.95 6.71 17.48 6.75 36.89 0.13 54.2 -9.48 24.82 -31.6 43.78 -58.77 50.4 -4.15 1 -11.31 2.04 -14.1 2.04 h -2.51 v -79.5 z" style="fill:#a9a9a9"/></svg>