<svg xmlns="http://www.w3.org/2000/svg" viewBox="0 0 48 48"><path d="m 11.29 5.13 c 24.54 -17.2 49.4 14.55 29.42 34.8 c -18.84 19.1 -48.1 1.39 -38.98 -22.35 c 1.91 -4.95 5 -9.3 9.55 -12.45" style="fill:#f60"/><path d="m 8.31 36.96 c 2.44 5.09 8.64 7.26 13.85 4.85 c 5.21 -2.41 7.45 -8.49 5 -13.59 c -2.44 -5.09 -8.64 -7.26 -13.85 -4.85 c -5.21 2.41 -7.45 8.49 -5 13.59" style="fill:#fff"/><path d="m 25.45 28.61 c 2.62 2.29 2.29 6.83 -0.74 10.16 c -3 3.32 -7.6 4.16 -10.22 1.88 c -2.62 -2.29 -2.29 -6.83 0.74 -10.16 c 3 -3.32 7.6 -4.17 10.22 -1.88" style="fill:#f60;fill-opacity:0.6"/><g style="fill:#fff"><path d="m 24.53 22.1 l -0.98 2.65 c -0.21 0.56 -1.38 0.66 -2.63 0.23 c -1.24 -0.43 -2.09 -1.24 -1.88 -1.8 l 0.98 -2.65"/><path d="m 20 20.48 c -0.21 0.56 0.63 1.37 1.88 1.8 c 1.24 0.44 2.42 0.34 2.63 -0.23 c 0.21 -0.56 -0.63 -1.37 -1.88 -1.8 c -1.24 -0.43 -2.42 -0.34 -2.63 0.23"/><path d="m 20.44 20.63 c -0.17 0.46 0.52 1.12 1.53 1.47 c 1.02 0.36 1.98 0.27 2.14 -0.18 c 0.17 -0.46 -0.52 -1.12 -1.53 -1.47 c -1.02 -0.36 -1.98 -0.27 -2.14 0.19"/><path d="m 19.91 23.97 l -0.76 -0.73 l 0.89 -2.1 l 0.34 0.42 l 0.44 0.27"/><path d="m 24.66 17.21 c -0.12 0.21 -0.05 0.47 0.16 0.59 c 0.41 0.23 0.63 0.46 0.61 0.66 c -0.03 0.26 -0.43 0.56 -0.78 0.67 c -0.24 0.06 -0.51 0.07 -0.77 0.09 c -0.73 0.03 -1.65 0.07 -1.8 1.69 c -0.02 0.23 0.15 0.44 0.39 0.46 c 0.24 0.02 0.45 -0.15 0.47 -0.39 c 0.08 -0.87 0.27 -0.88 0.97 -0.91 c 0.29 -0.01 0.62 -0.02 0.98 -0.12 c 0.64 -0.2 1.33 -0.71 1.41 -1.4 c 0.04 -0.39 -0.1 -0.97 -1.04 -1.49 c -0.21 -0.12 -0.48 -0.05 -0.6 0.16" style="fill-rule:evenodd"/></g><path d="m 166.8 84.96 l -25.1 -3.33 l 17.42 -11.16 l 1.07 -27.1 l 11.7 19.87 l 25.1 3.33 l -17.4 11.14 l -1.1 27.1" transform="matrix(0.175 0 0 0.178 -2.54 2.41)" style="fill:#ffd600;stroke:#ff7f4f;fill-rule:evenodd;stroke-width:0.48"/></svg>