<svg xmlns="http://www.w3.org/2000/svg" viewBox="0 0 48 48"><path d="m 11.29 5.13 c 24.54 -17.2 49.4 14.55 29.42 34.8 c -18.84 19.1 -48.1 1.39 -38.98 -22.35 c 1.91 -4.95 5 -9.3 9.55 -12.45" style="fill:#f60"/><path d="m 30.92 25.51 c 0 0.76 -0.32 1.45 -0.8 1.74 l -0.5 0.3 v 5.38 c 0 0.52 1.41 6.36 -0.44 6.41 c -2.06 0.07 -0.86 -5.89 -0.86 -6.41 v -4.59 l -2.14 1.13 v 4.66 c 0 0.81 0.27 1.46 -0.27 1.72 l -6.66 3.2 c -0.13 0.06 -0.27 0.1 -0.41 0.1 c -0.13 0 -0.25 -0.03 -0.38 -0.08 l -7.32 -3.2 c -0.55 -0.24 -0.46 -0.84 -0.44 -1.67 l 0.07 -4.73 l -3.88 -2.22 c -0.48 -0.3 -0.8 -0.98 -0.8 -1.74 c 0 -0.76 0.32 -1.45 0.8 -1.75 l 11.1 -6.72 c 0.32 -0.2 0.69 -0.2 1 0 l 11.1 6.72 c 0.49 0.29 0.8 0.98 0.8 1.75" style="fill:#fff"/></svg>