<svg xmlns="http://www.w3.org/2000/svg" xmlns:xlink="http://www.w3.org/1999/xlink" viewBox="0 0 48 48"><defs><g id="3" style="clip-path:url(#2)"><path d="m 346.7 405.9 h 42.64 c 8.1 0.02 14.69 6.85 14.67 15.25 l -0.02 109.4 c -0.01 8.5 -6.58 15.31 -14.66 15.29 l -42.68 0.04 c -8.1 -0.02 -14.69 -6.85 -14.63 -15.3 l -0.03 -109.5 c 0.02 -8.41 6.58 -15.22 14.7 -15.25" transform="matrix(0.04 0.047 -0.046 0.041 26.74 -8.69)" style="fill:#fff;stroke:#fff;fill-rule:evenodd"/></g><g id="8" style="clip-path:url(#7)"><path d="m 346.7 405.9 h 42.64 c 8.1 0.02 14.69 6.85 14.67 15.25 l -0.02 109.4 c -0.01 8.5 -6.58 15.31 -14.66 15.29 l -42.68 0.04 c -8.1 -0.02 -14.69 -6.85 -14.63 -15.3 l -0.03 -109.5 c 0.02 -8.41 6.58 -15.22 14.7 -15.25" transform="matrix(0.04 0.047 -0.046 0.041 26.74 -8.69)" style="fill:#fff;fill-opacity:0.28;stroke:#fff;fill-rule:evenodd"/></g><g id="C" style="clip-path:url(#B)"><path d="m 215.4 320.3 l 49.5 -0.01 l 0.03 49.5 l -49.5 0.01" transform="matrix(0.04 0.047 -0.046 0.041 18.1 -8.15)" style="fill:#fff;stroke:#fff;fill-rule:evenodd"/></g><g id="F" style="clip-path:url(#E)"><path d="m 275 320.3 l 49.5 -0.01 l -0.02 49.5 l -49.5 0.01" transform="matrix(0.04 0.047 -0.046 0.041 18.1 -8.15)" style="fill:#fff;stroke:#fff;fill-rule:evenodd"/></g><g id="I" style="clip-path:url(#H)"><path d="m 334.5 320.3 l 49.54 0.03 l -0.02 49.5 l -49.5 0.01" transform="matrix(0.04 0.047 -0.046 0.041 18.1 -8.15)" style="fill:#fff;stroke:#fff;fill-rule:evenodd"/></g><g id="L" style="clip-path:url(#K)"><path d="m 215.4 380.3 l 49.54 0.03 l -0.02 49.5 l -49.5 0.01" transform="matrix(0.04 0.047 -0.046 0.041 18.1 -8.15)" style="fill:#fff;stroke:#fff;fill-rule:evenodd"/></g><g id="O" style="clip-path:url(#N)"><path d="m 275 380.3 l 49.5 0.04 l 0.03 49.5 l -49.5 0.01" transform="matrix(0.04 0.047 -0.046 0.041 18.1 -8.15)" style="fill:#fff;stroke:#fff;fill-rule:evenodd"/></g><g id="R" style="clip-path:url(#Q)"><path d="m 334.5 380.3 l 49.5 -0.01 l 0.03 49.5 l -49.54 -0.03" transform="matrix(0.04 0.047 -0.046 0.041 18.1 -8.15)" style="fill:#fff;stroke:#fff;fill-rule:evenodd"/></g><g id="U" style="clip-path:url(#T)"><path d="m 215.4 320.3 l 49.5 -0.01 l 0.03 49.5 l -49.5 0.01" transform="matrix(0.04 0.047 -0.046 0.041 30.41 6.31)" style="fill:#fff;fill-opacity:0.97;stroke:#fff;fill-rule:evenodd"/></g><g id="X" style="clip-path:url(#W)"><path d="m 275 320.3 l 49.5 -0.01 l -0.02 49.5 l -49.5 0.01" transform="matrix(0.04 0.047 -0.046 0.041 30.41 6.31)" style="fill:#fff;fill-opacity:0.97;stroke:#fff;fill-rule:evenodd"/></g><g id="a" style="clip-path:url(#Z)"><path d="m 334.6 320.3 l 49.5 0.04 l -0.02 49.5 l -49.5 -0.04" transform="matrix(0.04 0.047 -0.046 0.041 30.41 6.31)" style="fill:#fff;fill-opacity:0.97;stroke:#fff;fill-rule:evenodd"/></g><g id="d" style="clip-path:url(#c)"><path d="m 215.4 380.3 l 49.5 -0.01 l -0.02 49.5 l -49.5 0.01" transform="matrix(0.04 0.047 -0.046 0.041 30.41 6.31)" style="fill:#fff;fill-opacity:0.97;stroke:#fff;fill-rule:evenodd"/></g><g id="g" style="clip-path:url(#f)"><path d="m 275 380.3 l 49.5 -0.01 l 0.03 49.5 l -49.5 0.01" transform="matrix(0.04 0.047 -0.046 0.041 30.41 6.31)" style="fill:#fff;fill-opacity:0.97;stroke:#fff;fill-rule:evenodd"/></g><g id="j" style="clip-path:url(#i)"><path d="m 334.5 380.3 l 49.5 -0.01 l 0.03 49.5 l -49.54 -0.03" transform="matrix(0.04 0.047 -0.046 0.041 30.41 6.31)" style="fill:#fff;fill-opacity:0.97;stroke:#fff;fill-rule:evenodd"/></g><clipPath id="B"><path d="M 0,0 H48 V48 H0 z"/></clipPath><clipPath id="W"><path d="M 0,0 H48 V48 H0 z"/></clipPath><clipPath id="N"><path d="M 0,0 H48 V48 H0 z"/></clipPath><clipPath id="E"><path d="M 0,0 H48 V48 H0 z"/></clipPath><clipPath id="T"><path d="M 0,0 H48 V48 H0 z"/></clipPath><clipPath id="K"><path d="M 0,0 H48 V48 H0 z"/></clipPath><clipPath id="H"><path d="M 0,0 H48 V48 H0 z"/></clipPath><clipPath id="Q"><path d="M 0,0 H48 V48 H0 z"/></clipPath><clipPath id="Z"><path d="M 0,0 H48 V48 H0 z"/></clipPath><clipPath id="i"><path d="M 0,0 H48 V48 H0 z"/></clipPath><clipPath id="f"><path d="M 0,0 H48 V48 H0 z"/></clipPath><clipPath id="9"><path d="m 6 28 h 12 v 10 h -12"/></clipPath><clipPath id="2"><path d="M 0,0 H48 V48 H0 z"/></clipPath><clipPath id="4"><path d="m 2 18 h 22 v 20 h -22"/></clipPath><clipPath id="7"><path d="M 0,0 H48 V48 H0 z"/></clipPath><clipPath id="5"><path d="m 17.67 18 l 5.58 6.57 l -14.89 13.1 l -5.58 -6.57"/></clipPath><clipPath id="c"><path d="M 0,0 H48 V48 H0 z"/></clipPath><filter id="0" filterUnits="objectBoundingBox" x="0" y="0" width="48" height="48"><feColorMatrix type="matrix" in="SourceGraphic" values="0 0 0 0 1 0 0 0 0 1 0 0 0 0 1 0 0 0 1 0"/></filter><mask id="b"><g style="filter:url(#0)"><path d="M 0,0 H48 V48 H0 z" style="fill-opacity:0.97"/></g></mask><mask id="M"><g style="filter:url(#0)"><path d="M 0,0 H48 V48 H0 z" style="fill-opacity:0.97"/></g></mask><mask id="6"><g style="filter:url(#0)"><path d="M 0,0 H48 V48 H0 z" style="fill-opacity:0.97"/></g></mask><mask id="1"><g style="filter:url(#0)"><path d="M 0,0 H48 V48 H0 z" style="fill-opacity:0.97"/></g></mask><mask id="h"><g style="filter:url(#0)"><path d="M 0,0 H48 V48 H0 z" style="fill-opacity:0.97"/></g></mask><mask id="e"><g style="filter:url(#0)"><path d="M 0,0 H48 V48 H0 z" style="fill-opacity:0.97"/></g></mask><mask id="A"><g style="filter:url(#0)"><path d="M 0,0 H48 V48 H0 z" style="fill-opacity:0.97"/></g></mask><mask id="P"><g style="filter:url(#0)"><path d="M 0,0 H48 V48 H0 z" style="fill-opacity:0.97"/></g></mask><mask id="J"><g style="filter:url(#0)"><path d="M 0,0 H48 V48 H0 z" style="fill-opacity:0.97"/></g></mask><mask id="Y"><g style="filter:url(#0)"><path d="M 0,0 H48 V48 H0 z" style="fill-opacity:0.97"/></g></mask><mask id="S"><g style="filter:url(#0)"><path d="M 0,0 H48 V48 H0 z" style="fill-opacity:0.97"/></g></mask><mask id="V"><g style="filter:url(#0)"><path d="M 0,0 H48 V48 H0 z" style="fill-opacity:0.97"/></g></mask><mask id="D"><g style="filter:url(#0)"><path d="M 0,0 H48 V48 H0 z" style="fill-opacity:0.97"/></g></mask><mask id="G"><g style="filter:url(#0)"><path d="M 0,0 H48 V48 H0 z" style="fill-opacity:0.97"/></g></mask></defs><path d="m 11.29 5.13 c 24.54 -17.2 49.4 14.55 29.42 34.8 c -18.84 19.1 -48.1 1.39 -38.98 -22.35 c 1.91 -4.95 5 -9.3 9.55 -12.45" style="fill:#f60"/><use xlink:href="#3" style="mask:url(#1)"/><path d="m 251.8 647.3 c 22.51 -50.83 67.4 -82.8 116.5 -82.8 c 49 0.04 93.9 31.92 116.6 82.7" transform="matrix(0.04 0.047 -0.046 0.04 26.74 -8.69)" style="fill:#fff;fill-opacity:0.97;stroke:#fff;fill-rule:evenodd"/><g style="clip-path:url(#4)"><g style="clip-path:url(#5)"><use xlink:href="#8" style="mask:url(#6)"/></g></g><path d="m 381 -673.2 c 0 7.23 -5.83 13.1 -13.1 13.1 c -7.26 0 -13.1 -5.85 -13.1 -13.1 c 0 -7.23 5.87 -13.1 13.1 -13.1 c 7.22 -0.04 13.1 5.85 13.1 13.1" transform="matrix(0.04 0.047 0.046 -0.041 26.74 -8.69)" style="fill:#fff;stroke:#fff;fill-rule:evenodd"/><g style="clip-path:url(#9)"><g style="clip-path:url(#5)"><path d="m 251.8 647.3 c 22.51 -50.83 67.4 -82.8 116.5 -82.8 c 49 0.04 93.9 31.92 116.6 82.7" transform="matrix(0.04 0.047 -0.046 0.04 26.74 -8.69)" style="fill:#fff;fill-opacity:0.28;stroke:#fff;fill-rule:evenodd"/></g></g><use xlink:href="#C" style="mask:url(#A)"/><use xlink:href="#F" style="mask:url(#D)"/><use xlink:href="#I" style="mask:url(#G)"/><use xlink:href="#L" style="mask:url(#J)"/><use xlink:href="#O" style="mask:url(#M)"/><use xlink:href="#R" style="mask:url(#P)"/><use xlink:href="#U" style="mask:url(#S)"/><use xlink:href="#X" style="mask:url(#V)"/><use xlink:href="#a" style="mask:url(#Y)"/><use xlink:href="#d" style="mask:url(#b)"/><use xlink:href="#g" style="mask:url(#e)"/><use xlink:href="#j" style="mask:url(#h)"/></svg>