<svg xmlns="http://www.w3.org/2000/svg" viewBox="0 0 48 48"><path d="m 11.28 5.13 c 24.55 -17.19 49.4 14.55 29.42 34.8 c -18.85 19.1 -48.1 1.39 -38.97 -22.35 c 1.91 -4.95 5 -9.3 9.55 -12.45" style="fill:#f60"/><path d="m 17.78 17.75 l -9.71 5.37 l 10.6 5.9 l 10.5 -5.9 l -9.61 -5.37 v 4.13 l 3.79 2.11 c 0.15 0.05 0.15 0.29 0 0.38 l -4.48 2.5 c -0.15 0.05 -0.3 0.05 -0.4 0 l -4.48 -2.5 c -0.15 -0.05 -0.15 -0.29 0 -0.38 l 3.78 -2.11 m 11.4 1.24 l -10.5 5.9 l -10.6 -5.9 v 10.7 l 3.69 -2.06 v -4.17 c 0 -0.14 0.2 -0.24 0.3 -0.2 l 4.48 2.5 c 0.15 0.05 0.2 0.19 0.2 0.38 v 4.99 c 0.1 0.14 -0.1 0.23 -0.25 0.19 l -3.78 -2.11 l -3.68 2.06 l 9.66 5.37 l 9.61 -5.37 l -3.68 -2.06 l -3.78 2.16 c -0.15 0.1 -0.3 -0.05 -0.3 -0.19 v -4.99 c 0 -0.14 0.1 -0.29 0.2 -0.38 l 4.48 -2.5 c 0.15 -0.09 0.3 0.05 0.3 0.19 v 4.17 l 3.68 2.06" style="fill:#fff"/></svg>