<svg xmlns="http://www.w3.org/2000/svg" viewBox="0 0 48 48"><path d="m 11.29 5.13 c 24.54 -17.2 49.4 14.55 29.42 34.8 c -18.84 19.1 -48.1 1.39 -38.98 -22.35 c 1.91 -4.95 5 -9.3 9.55 -12.45" style="fill:#f60"/><g style="fill:#fff"><path d="m 7.73 21.2 c -0.24 -0.28 -0.61 -0.81 -0.8 -1.18 c -0.36 -0.67 -0.36 -0.68 0 -0.95 c 0.2 -0.15 0.84 -0.45 1.42 -0.67 c 0.87 -0.32 1.13 -0.52 1.47 -1.15 c 0.32 -0.57 0.74 -0.94 1.79 -1.54 c 0.76 -0.43 1.79 -0.91 2.29 -1.07 c 1.24 -0.39 4.07 -0.54 5.17 -0.28 c 1.38 0.33 2.58 0.94 2.7 1.37 c 0.05 0.21 0.08 0.4 0.05 0.43 c -0.03 0.03 -0.58 -0.04 -1.23 -0.14 c -1.43 -0.23 -2.75 -0.09 -3.8 0.41 c -1 0.48 -1.18 1.11 -0.68 2.4 c 0.07 0.17 -0.21 0.45 -0.79 0.82 c -0.87 0.54 -0.91 0.55 -1.34 0.24 c -0.72 -0.52 -1.78 -0.78 -2.63 -0.65 c -0.66 0.1 -0.88 0.25 -1.45 1.02 c -0.37 0.5 -0.91 1.03 -1.2 1.18 c -0.49 0.25 -0.54 0.24 -0.96 -0.24"/><path d="m 33.38 24.44 c -1.07 -1.14 -1.07 -1.14 -2.07 -1.12 c -0.66 0.02 -1.25 0.16 -1.73 0.44 c -0.73 0.41 -0.73 0.41 -1.39 0.06 c -0.92 -0.49 -1 -0.63 -0.82 -1.44 c 0.23 -1.04 -0.01 -1.48 -1.04 -1.88 c -0.91 -0.36 -3.13 -0.46 -4.14 -0.19 c -0.58 0.15 -0.7 -0.21 -0.23 -0.68 c 1.11 -1.11 4.92 -1.48 7.34 -0.72 c 1.91 0.61 3.57 1.64 4 2.52 c 0.3 0.57 0.55 0.78 1.24 1 c 0.47 0.16 1.09 0.46 1.36 0.66 l 0.5 0.38 l -0.35 0.61 c -0.48 0.84 -1.08 1.48 -1.38 1.48 c -0.14 0 -0.73 -0.51 -1.32 -1.14"/><path d="m 16.84 38.99 c -0.6 -0.4 -1.16 -0.87 -1.26 -1.03 c -0.2 -0.35 0.08 -0.77 3.13 -4.85 l 1.99 -2.65 l -1.66 -2.66 c -0.91 -1.46 -1.67 -2.88 -1.69 -3.14 c -0.03 -0.38 -1.38 -2.47 -2.66 -4.11 c -0.08 -0.11 0.23 -0.43 0.75 -0.78 l 0.89 -0.59 l 1.43 2 c 0.99 1.4 1.54 2 1.8 2 c 0.24 0 0.93 0.7 2 2.03 c 1.05 1.29 1.73 1.99 1.9 1.93 c 0.14 -0.05 0.36 -0.1 0.5 -0.1 c 0.13 0 0.84 -0.83 1.57 -1.84 c 0.73 -1 1.4 -1.84 1.49 -1.84 c 0.08 0 0.48 0.22 0.89 0.49 c 0.85 0.56 0.93 0.31 -0.95 2.89 c -0.59 0.81 -1.04 1.59 -0.98 1.73 c 0.05 0.14 -0.07 0.54 -0.28 0.88 l -0.38 0.62 l 1.4 1.95 c 0.77 1.07 1.45 2.06 1.5 2.2 c 0.12 0.32 -0.52 0.91 -1.83 1.7 c -1.23 0.74 -1.37 0.69 -2.5 -0.87 c -0.45 -0.61 -0.86 -1.11 -0.91 -1.11 c -0.06 0 -1.02 1.3 -2.14 2.89 c -1.57 2.23 -2.13 2.89 -2.48 2.93 c -0.27 0.03 -0.86 -0.23 -1.53 -0.68"/></g></svg>