<svg xmlns="http://www.w3.org/2000/svg" viewBox="0 0 48 48"><path d="m 38.2 6.96 c 42.1 49.95 -61.5 57 -32.37 6.1 c 6.63 -11.62 21.2 -19.29 32.37 -6.1" style="fill:#ff8c00"/><path d="m 19.2 39.74 c -0.36 -0.25 -0.66 -0.66 -0.66 -0.91 c 0 -0.25 0.74 -1.31 1.64 -2.36 l 1.64 -1.91 v -3.67 c 0 -2.14 -0.12 -3.67 -0.29 -3.67 c -0.35 0 -9.36 1.41 -10.51 1.65 c -0.73 0.15 -0.82 0.08 -0.82 -0.59 c 0 -0.66 0.77 -1.27 5.77 -4.57 l 5.77 -3.81 l 0.15 -3.78 c 0.16 -4 0.77 -6.36 1.81 -6.99 c 1.23 -0.74 2.28 2.35 2.5 7.35 l 0.16 3.55 l 5.61 3.66 c 4.11 2.68 5.65 3.84 5.78 4.37 c 0.1 0.39 0.13 0.77 0.06 0.84 c -0.07 0.07 -2.54 -0.28 -5.5 -0.77 c -2.95 -0.49 -5.52 -0.89 -5.7 -0.89 c -0.22 0 -0.32 1.22 -0.32 3.73 v 3.72 l 1.64 1.9 c 0.9 1.05 1.64 2.02 1.64 2.17 c 0 0.15 -0.27 0.54 -0.59 0.86 c -0.54 0.54 -0.99 0.59 -4.85 0.59 c -3.37 0 -4.39 -0.09 -4.91 -0.46" style="fill:#fff"/></svg>