<svg xmlns="http://www.w3.org/2000/svg" viewBox="0 0 256 256"><path d="m 60.2 27.35 c 130.9 -91.7 263.6 77.6 156.9 185.6 c -100.5 101.7 -256.7 7.42 -207.9 -119.2 c 10.19 -26.41 26.91 -49.59 50.95 -66.4" style="fill:#f60"/><g style="fill:#fff;stroke-width:2.4"><path d="m 38 16.53 c 0 0.8 -0.48 1.51 -1.21 1.82 l -0.76 0.32 v 5.62 c 0 0.55 2.12 6.64 -0.67 6.71 -3.1 0.07 -1.3 -6.16 -1.3 -6.71 v -4.8 l -3.22 1.18 v 4.87 c 0 0.85 0.4 1.53 -0.4 1.8 l -10 3.34 c -0.2 0.07 -0.41 0.1 -0.62 0.1 -0.19 0 -0.38 -0.03 -0.57 -0.08 l -11 -3.34 c -0.83 -0.25 -0.68 -0.87 -0.66 -1.74 l 0.11 -4.95 l -5.84 -2.32 c -0.73 -0.31 -1.21 -1.03 -1.21 -1.82 c 0 -0.8 0.48 -1.51 1.21 -1.82 l 16.72 -7 c 0.48 -0.2 1.03 -0.2 1.52 0 l 16.72 7 c 0.73 0.31 1.21 1.03 1.21 1.82 z" transform="matrix(3.544 0 0 5.103 30.1 51.7)" style="fill:#fff;stroke-width:2.4"/></g></svg>