<svg xmlns="http://www.w3.org/2000/svg" viewBox="0 0 256 256"><defs><clipPath><rect width="46" height="46" x="1" y="1" rx="4" style="fill:#1890d0"/></clipPath><clipPath><rect width="46" height="46" x="1" y="1" rx="4" style="fill:#1890d0"/></clipPath><clipPath><path d="m 74 56.82 h 129 v 139.7 h -129"/></clipPath><clipPath><path d="m 148 97 h 77.6 v 24 h -77.6"/></clipPath><clipPath><path d="m 171 132 h 54.63 v 24 h -54.63"/></clipPath><clipPath><path d="m 27.71 56.82 h 82.3 v 139.7 h -82.3"/></clipPath></defs><path d="m 60.2 27.35 c 130.9 -91.7 263.6 77.6 156.9 185.6 -100.5 101.7 -256.7 7.42 -207.9 -119.2 10.19 -26.41 26.91 -49.59 50.95 -66.4 z" style="fill:#f60;color:#000"/><path d="m 94.8 94.7 l -51.76 28.64 l 56.5 31.46 l 56 -31.46 l -51.2 -28.64 v 22 l 20.2 11.25 c 0.79 0.25 0.79 1.54 0 2.05 l -23.88 13.31 c -0.79 0.25 -1.6 0.25 -2.13 0 l -23.88 -13.31 c -0.79 -0.25 -0.79 -1.54 0 -2.05 l 20.2 -11.25 z m 60.79 28.64 l -56 31.46 l -56.5 -31.46 v 57.1 l 19.65 -11 v -22.25 c 0 -0.76 1.05 -1.29 1.6 -1.04 l 23.91 13.31 c 0.79 0.25 1.05 1.02 1.05 2.05 v 26.61 c 0.53 0.76 -0.53 1.27 -1.32 1.02 l -20.2 -11.25 l -19.65 11 l 51.5 28.64 l 51.2 -28.64 l -19.65 -11 l -20.2 11.51 c -0.79 0.51 -1.58 -0.25 -1.58 -1.04 v -26.59 c 0 -0.76 0.53 -1.52 1.05 -2.05 l 23.88 -13.31 c 0.79 -0.51 1.6 0.25 1.6 1.02 v 22.25 l 19.65 11 z" style="fill:#fff;stroke-width:0.15"/></svg>