<svg xmlns="http://www.w3.org/2000/svg" viewBox="0 0 256 256"><defs><clipPath><path d="m 171 132 h 54.63 v 24 h -54.63"/></clipPath><clipPath><path d="m 148 97 h 77.6 v 24 h -77.6"/></clipPath><clipPath><path d="m 27.71 56.82 h 82.3 v 139.7 h -82.3"/></clipPath><clipPath><path d="m 74 56.82 h 129 v 139.7 h -129"/></clipPath></defs><path d="m 60.2 27.35 c 130.9 -91.7 263.6 77.6 156.9 185.6 c -100.5 101.7 -256.7 7.42 -207.9 -119.2 c 10.19 -26.41 26.91 -49.59 50.95 -66.4" style="fill:#f60"/><g style="fill:#fff"><path d="m 41.2 113 c -1.3 -1.49 -3.23 -4.31 -4.29 -6.28 -1.91 -3.56 -1.91 -3.59 0 -5.06 1.06 -0.81 4.46 -2.42 7.55 -3.57 4.65 -1.74 6 -2.8 7.84 -6.13 1.69 -3.07 3.96 -5 9.54 -8.21 4 -2.3 9.53 -4.87 12.22 -5.71 6.63 -2.08 21.7 -2.88 27.59 -1.47 7.35 1.76 13.78 5 14.37 7.3 0.29 1.12 0.41 2.15 0.27 2.29 -0.14 0.14 -3.1 -0.2 -6.57 -0.77 -7.62 -1.25 -14.66 -0.48 -20.25 2.2 -5.34 2.56 -6.29 5.89 -3.63 12.81 0.35 0.9 -1.14 2.43 -4.24 4.35 -4.62 2.87 -4.85 2.91 -7.13 1.28 -3.85 -2.75 -9.51 -4.16 -13.99 -3.48 -3.52 0.53 -4.69 1.35 -7.76 5.46 -1.99 2.66 -4.86 5.48 -6.38 6.27 -2.63 1.36 -2.89 1.29 -5.14 -1.27 z"/><path d="m 178 130.3 c -5.68 -6.1 -5.7 -6.07 -11 -5.95 -3.52 0.08 -6.65 0.87 -9.23 2.32 -3.91 2.2 -3.92 2.2 -7.43 0.32 -4.92 -2.63 -5.34 -3.37 -4.37 -7.67 1.24 -5.52 -0.07 -7.9 -5.54 -10 -4.87 -1.88 -16.7 -2.42 -22.1 -1.02 -3.08 0.8 -3.73 -1.09 -1.22 -3.6 5.92 -5.92 26.2 -7.91 39.1 -3.83 10.17 3.22 19 8.74 21.47 13.4 1.6 3.06 2.96 4.16 6.61 5.38 2.52 0.85 5.79 2.44 7.27 3.55 l 2.67 2 l -1.88 3.29 c -2.55 4.46 -5.74 7.87 -7.36 7.87 -0.73 0 -3.89 -2.73 -7 -6.07 z"/><path d="m 89.8 207.9 c -3.19 -2.14 -6.21 -4.61 -6.71 -5.49 -1.04 -1.85 0.42 -4.1 16.72 -25.87 l 10.61 -14.16 l -8.84 -14.2 c -4.86 -7.81 -8.92 -15.36 -9 -16.77 -0.14 -2 -7.34 -13.17 -14.1 -21.93 -0.45 -0.57 1.22 -2.3 4 -4.14 l 4.78 -3.16 l 7.62 10.72 c 5.29 7.45 8.22 10.73 9.58 10.75 1.29 0.02 4.94 3.7 10.72 10.82 5.59 6.88 9.25 10.6 10.11 10.27 0.74 -0.29 1.94 -0.52 2.67 -0.52 0.72 0 4.51 -4.4 8.41 -9.79 3.9 -5.38 7.47 -9.79 7.92 -9.79 0.46 0 2.59 1.17 4.74 2.59 4.53 3 4.97 1.67 -5.09 15.4 -3.17 4.33 -5.53 8.49 -5.24 9.25 0.29 0.75 -0.39 2.86 -1.52 4.67 l -2.04 3.3 l 7.48 10.39 c 4.12 5.71 7.71 10.99 7.99 11.72 0.64 1.67 -2.81 4.87 -9.77 9.1 -6.54 3.94 -7.3 3.67 -13.32 -4.63 -2.38 -3.28 -4.57 -5.94 -4.88 -5.92 -0.31 0.03 -5.44 6.96 -11.4 15.41 -8.38 11.88 -11.38 15.43 -13.21 15.63 -1.47 0.16 -4.59 -1.22 -8.18 -3.62 z"/></g></svg>