<svg xmlns="http://www.w3.org/2000/svg" viewBox="0 0 256 256"><path d="m 60.2 27.35 c 130.9 -91.7 263.6 77.6 156.9 185.6 c -100.5 101.7 -256.7 7.42 -207.9 -119.2 c 10.19 -26.41 26.91 -49.59 50.95 -66.4" style="fill:#f60"/><g transform="matrix(0.931 0 0 0.95 -13.56 12.87)"><g transform="matrix(1.074 -0.308 0.316 1.031 37.83 116.9)" style="fill:#fff"><path d="m 0.56 75 c 4.46 29.1 31.65 49 60.72 44.57 29.1 -4.46 49 -31.64 44.57 -60.72 c -4.46 -29.1 -31.64 -49 -60.72 -44.57 -29.1 4.46 -49 31.64 -44.57 60.72 z" style="fill:#fff"/><path d="m 96.8 58.3 c 9.46 15.27 1.13 37.55 -18.6 49.78 -19.73 12.22 -43.4 9.76 -52.85 -5.51 c -9.46 -15.27 -1.13 -37.55 18.6 -49.78 19.73 -12.22 43.4 -9.76 52.85 5.51 z" style="fill:#f60;opacity:0.6"/><g style="fill:#fff"><path d="m 102 24.1 l -8.7 11.86 c -1.84 2.51 -7.76 1.3 -13.22 -2.71 -5.45 -4 -8.38 -9.29 -6.54 -11.8 l 8.7 -11.85 z"/><path d="m 82.3 9.59 c -1.84 2.51 1.09 7.79 6.54 11.79 5.45 4 11.37 5.22 13.21 2.71 1.84 -2.51 -1.09 -7.79 -6.54 -11.79 c -5.46 -4 -11.37 -5.22 -13.21 -2.71 z"/><path d="m 84.1 10.93 c -1.5 2.04 0.89 6.35 5.34 9.62 4.44 3.27 9.27 4.25 10.77 2.21 1.5 -2.05 -0.89 -6.35 -5.33 -9.62 c -4.45 -3.27 -9.27 -4.25 -10.77 -2.21 z"/><path d="m 76.5 26.92 l -2.65 -4.74 l 7.44 -9.23 l 1.04 2.58 l 1.76 1.99 z"/><path d="m 109.8 0 c -0.89 0.85 -0.92 2.27 -0.07 3.16 1.66 1.73 2.38 3.26 1.99 4.2 -0.53 1.27 -2.96 2.19 -4.81 2.22 -1.29 -0.05 -2.61 -0.38 -3.9 -0.7 -3.66 -0.92 -8.21 -2.07 -11.33 5.82 -0.45 1.15 0.11 2.44 1.25 2.9 1.15 0.45 2.44 -0.11 2.9 -1.25 1.68 -4.24 2.61 -4 6.09 -3.13 1.44 0.36 3.07 0.77 4.95 0.84 3.41 -0.06 7.58 -1.64 8.97 -4.97 0.79 -1.91 0.94 -5 -2.89 -9 -0.85 -0.89 -2.27 -0.92 -3.16 -0.07 z" style="fill-rule:evenodd"/></g></g><path d="m 166.8 84.95 l -25.1 -3.33 l 17.42 -11.16 l 1.08 -27.1 l 11.7 19.86 l 25.1 3.33 l -17.42 11.16 l -1.08 27.1 z" style="fill:#ffd700;stroke:#ff7f50;fill-rule:evenodd;stroke-width:0.48"/></g></svg>