<svg xmlns="http://www.w3.org/2000/svg" viewBox="0 0 256 256"><defs><clipPath><rect rx="4" y="1" x="1" height="46" width="46" style="fill:#1890d0"/></clipPath><clipPath id="0"><rect rx="4" y="1" x="1" height="46" width="46" style="fill:#1890d0"/></clipPath></defs><path d="m 60.2 27.35 c 130.9 -91.7 263.6 77.6 156.9 185.6 c -100.5 101.7 -256.7 7.42 -207.9 -119.2 c 10.19 -26.41 26.91 -49.59 50.95 -66.4" style="fill:#f60"/><g transform="translate(47.1 -708.8)"><g transform="matrix(5.364 0 0 4.258 -69.84 775.2)" style="clip-path:url(#0);fill:#fff"><path transform="translate(0 -1)" d="m 34 14 c 0 7 0 13.9 0 20 -7 0 -13.93 0 -20 0 0 -7 0 -13.9 0 -20 6.94 0 14.1 0 20 0 m -2 2 h -9 v 4 h 9 m -11 -4 h -5 v 4 h 5 m 11 2 h -9 v 4 h 9 m -11 -4 h -5 v 4 h 5 m 11 2 h -9 v 4 h 9 m -11 -4 h -5 v 4 h 5" style="fill:#fff"/></g></g></svg>