<svg xmlns="http://www.w3.org/2000/svg" viewBox="0 0 256 256"><g transform="translate(0 -796.4)"><path d="m 52.72 835.3 c -218 264.1 330.1 301.6 171.7 32 -36.1 -61.5 -113.9 -102 -171.7 -32 z" style="fill:#ff8c00;color:#000"/><path d="m 79.3 1000.5 c -4.61 -1.72 -4.85 -3.71 -4.85 -41 v -36.3 l -6.22 -0.38 c -4.99 -0.31 -6.6 -0.98 -8.14 -3.41 -1.91 -3 -1.73 -3.22 27.72 -33.2 l 29.64 -30.1 l 11.52 0.04 l 11.52 0.04 l 28.83 29.34 c 29.59 30.1 31.84 33.2 26.38 36.2 -1.29 0.72 -4.56 1.31 -7.27 1.31 h -4.93 l -0.02 36.3 c -0.01 19.98 -0.42 36.96 -0.91 37.72 -2.56 3.99 -6.46 4.3 -53.83 4.2 -26.2 -0.05 -48.5 -0.4 -49.5 -0.78 z" style="fill:#fff"/></g></svg>