<svg xmlns="http://www.w3.org/2000/svg" viewBox="0 0 256 256"><path d="m 194.9 27.2 c -130 -91 -261.7 77 -155.8 184.3 99.8 101 254.9 7.37 206.4 -118.3 -10.12 -26.2 -26.72 -49.2 -50.59 -65.92" style="fill:#ff8c00"/><g style="fill:#fff"><rect width="6.68" height="121.9" x="115.3" y="40.5" rx="1.18" ry="1.25"/><path d="m 130.2 102.7 v -47.59 l 4.44 3.04 c 22.2 15.17 41.76 42.2 53 73.2 2.75 7.57 5.25 14.92 5.55 16.34 l 0.55 2.58 h -31.79 h -31.79 v -47.59 z"/><path d="m 89.2 192.3 c -24.1 -11.79 -38.64 -20.73 -38.64 -33.77 h 86.3 l 67.1 -0.4 c 0 11.77 -3.84 19.52 -10.56 33.3 -34.7 0.55 -70.7 2.8 -104.2 0.87 z"/><path d="m 106.4 112.2 v -37.2 l -2.37 2.37 c -11.84 11.87 -22.26 32.99 -28.3 57.3 c -1.47 5.92 -2.8 11.67 -2.96 12.78 l -0.29 2 h 16.95 h 16.95 v -37.2 z"/></g></svg>