<svg xmlns="http://www.w3.org/2000/svg" viewBox="0 0 22 22"><path d="m 0.17 14.77 c -2.18 -31.43 40 -3.71 12.23 6.7 c -4.28 1.39 -10.66 -0.61 -12.23 -6.7" style="fill:#7f7f7f"/><path d="m 15.64 10.36 c -0.36 -1.5 -1.63 -2.54 -3.26 -2.54 c -0.18 0 -0.27 0 -0.45 0.09 c -0.09 -1.6 -1.36 -2.91 -2.9 -2.91 c -1.36 0 -2.63 1.13 -2.99 2.54 c -1.45 -0.57 -2.99 0.56 -2.99 2.16 c 0 1.22 0.82 1.97 1.63 2.35 c 0.09 0 0.09 0 0.18 0 c 0.09 0 0.09 0 0.18 -0.09 c -0.09 0.38 -0.18 0.66 -0.18 1.04 c 0 1.88 1.36 3.29 3.08 3.29 c 2.41 0 4.8 0 6.89 0 c 1.54 0 2.81 -1.41 2.81 -3.1 c -0.09 -1.22 -0.91 -2.35 -1.99 -2.82 m -10.42 1.04 c 0 -0.09 -0.09 -0.19 -0.18 -0.28 c -0.54 -0.19 -1.09 -0.66 -1.09 -1.41 c 0 -1.04 1.09 -1.88 2.18 -1.13 c 0.14 -0.05 0.39 -0.01 0.54 -0.09 c 0 -0.06 0 -0.13 0 -0.19 c 0.18 -1.22 1.27 -2.35 2.36 -2.35 c 1.09 0 1.99 0.94 1.99 2.07 c 0 0.09 0 0.09 0 0.19 c -0.73 0.38 -1.36 1.04 -1.72 1.79 c -1.51 -0.82 -3.45 0.27 -4.07 1.41 m 9.51 3.95 c -2.36 0 -4.76 0 -6.89 0 c -1.09 0 -2.08 -1.03 -2.08 -2.35 c 0 -1.32 1 -2.35 2.27 -2.35 c 0.36 -0.1 0.81 0.09 1.18 0.38 c 0.61 -0.13 0.73 -0.04 0.73 -0.38 c 0.36 -0.85 1.27 -1.88 2.45 -1.88 c 1.27 0 2.27 0.85 2.45 2.07 c -0.06 0.21 0.18 0.31 0.18 0.38 c 0.81 0.28 1.45 1.13 1.45 1.97 c 0.18 1.13 -0.73 2.16 -1.72 2.16" style="fill:#fff"/></svg>