<svg xmlns="http://www.w3.org/2000/svg" viewBox="0 0 22 22"><path d="m 0.17 6.35 c -2.18 31.48 40 7.88 12.23 -5.49 c -4.28 -1.84 -10.66 -0.5 -12.23 5.49" style="fill:#ff8c00"/><g style="fill:#fff"><path d="m 5.8 8.27 c 0.09 0.09 0.26 0.09 0.34 0.09 c 0.09 0 0.26 0 0.35 -0.09 c 0.17 -0.17 0.17 -0.43 0 -0.59 l -1.13 -1.2 c -0.18 -0.08 -0.52 -0.08 -0.7 0 c -0.17 0.09 -0.17 0.43 0 0.6"/><path d="m 12.63 8.36 c 0.09 0 0.26 0 0.34 -0.09 l 1.13 -1.11 c 0.18 -0.17 0.18 -0.43 0 -0.6 c -0.17 -0.17 -0.43 -0.17 -0.61 0 l -1.13 1.11 c -0.17 0.17 -0.17 0.43 0 0.59 c 0 0.09 0.18 0.09 0.26 0.09"/><path d="m 9.1 6.48 c 0.26 0 0.43 -0.17 0.43 -0.43 v -1.36 c 0 -0.25 -0.17 -0.43 -0.43 -0.43 c -0.26 0 -0.43 0.17 -0.43 0.43 v 1.36 c 0 0.26 0.17 0.43 0.43 0.43"/><path d="m 15.4 11.42 c -0.43 -1.28 -1.56 -2.21 -2.95 -2.38 c -0.61 -1.11 -1.73 -1.71 -3 -1.71 c -1.9 0 -3.38 1.45 -3.38 3.32 c 0 0.17 0 0.25 0 0.43 c -0.09 0.09 -0.26 0.09 -0.35 0.17 c 0 0 0 -0.09 0 -0.09 c 0 -0.26 -0.17 -0.43 -0.43 -0.43 h -1.39 c -0.26 0 -0.43 0.17 -0.43 0.43 c 0 0.25 0.18 0.43 0.43 0.43 h 1.39 c -0.61 0.51 -0.95 1.28 -0.95 2.13 c 0 1.62 1.47 2.98 3.2 2.98 h 6.75 c 0 0 0.09 0 0.09 0 c 0 0 0.09 0 0.09 0 c 1.56 0 2.86 -1.19 2.86 -2.72 c 0 -1.11 -0.78 -2.13 -1.9 -2.56 m -8.48 -0.77 c 0 -1.36 1.13 -2.47 2.51 -2.47 c 0.78 0 1.47 0.34 1.9 0.93 c -1.13 0.17 -2.07 1.02 -2.59 1.88 c -0.26 -0.17 -0.69 -0.25 -1.21 -0.25 c -0.18 0 -0.43 0 -0.61 0.09 c 0 -0.09 0 -0.09 0 -0.17 m 7.53 5.2 c 0 0 -0.09 0 -0.09 0 c 0 0 -0.09 0 -0.09 0 h -6.75 c -1.3 0 -2.34 -0.94 -2.34 -2.13 c 0 -0.94 0.52 -1.62 1.39 -1.96 c 0 0 0.09 0 0.09 0 c 0 0 0 0 0.09 0 c 0.26 -0.09 0.52 -0.17 0.78 -0.17 c 0.52 0 0.86 0.09 1.21 0.25 c 0 0 0 0 0.09 0 c 0 0 0.09 0 0.09 0 c 0 0 0.09 0 0.09 0 c 0 0 0.09 0 0.09 0 c 0 0 0.09 0 0.09 0 c 0 0 0 0 0.09 0 c 0 0 0.09 -0.08 0.09 -0.08 c 0.43 -0.94 1.38 -1.88 2.6 -1.88 c 1.3 0 2.42 0.77 2.68 1.96 c 0 0.09 0.09 0.17 0.18 0.17 c 0.09 0 0.09 0.09 0.17 0.09 c 0.87 0.17 1.47 1.02 1.47 1.79 c 0 1.11 -0.95 1.96 -1.99 1.96"/></g></svg>