<svg xmlns="http://www.w3.org/2000/svg" viewBox="0 0 22 22"><path d="m 3.93 3.27 c -17.27 22.79 30.3 26 15 2.77 c -3.48 -5.3 -10.43 -8.8 -15 -2.77" style="fill:#7a68ed"/><path d="m 13.7 9.24 c -0.16 -0.3 -0.56 -0.6 -1.13 -0.97 v -1.2 c 0.24 -0.15 0.4 -0.38 0.4 -0.6 c 0 -0.38 -0.24 -0.68 -0.64 -0.75 c -0.08 0 -0.08 0 -0.16 0 c -0.08 0 -0.08 0 -0.16 0 c -0.32 0.07 -0.56 0.3 -0.64 0.6 l -1.61 1.05 c -0.08 0 -0.24 -0.07 -0.32 -0.07 c -1.29 -0.22 -1.69 0.07 -1.85 0.38 c 0 0.07 0 0.07 -0.08 0.15 l -1.36 6.28 c -0.16 0.9 0.4 1.87 1.29 2.17 l 0.48 0.15 c 0.24 0.07 0.48 0.15 0.8 0.15 c 0.72 0 1.36 -0.38 1.77 -0.97 l 1.29 -2.24 v 3.59 h -0.4 c -0.24 0 -0.4 0.15 -0.4 0.37 c 0 0.23 0.16 0.38 0.4 0.38 h 1.61 c 0.24 0 0.4 -0.15 0.4 -0.38 c 0 -0.22 -0.16 -0.37 -0.4 -0.37 h -0.4 v -5 l 1.13 -2 c 0.08 -0.23 0.16 -0.45 0 -0.67 m -0.72 0.3 c -0.08 0 -0.16 0.07 -0.4 0.07 v -0.45 c 0.32 0.23 0.4 0.38 0.4 0.38 m -2.41 4.34 c -0.48 0 -1.13 -0.15 -1.61 -0.38 c -0.56 -0.22 -1.2 -0.52 -1.61 -0.75 l 0.32 -1.64 c 0.4 0.3 1.05 0.67 1.77 0.9 c 0.72 0.3 1.45 0.37 1.93 0.37 m -3.21 -3.51 c 0.48 0.3 1.2 0.6 2.09 0.97 c 0.56 0.15 1.12 0.3 1.52 0.37 v 1.42 c 0 0 -0.08 0 -0.08 0 c -0.72 0 -1.45 -0.07 -1.93 -0.3 c -0.56 -0.15 -1.29 -0.52 -1.85 -0.97 c 0 0 -0.08 0 -0.08 0 m 3.61 -3.59 c 0.08 0.15 0.16 0.23 0.32 0.3 v 0.89 c -0.24 -0.07 -0.4 -0.22 -0.64 -0.3 h -0.08 c -0.24 -0.07 -0.4 -0.07 -0.56 -0.15 c -0.08 0 -0.08 0 -0.16 -0.08 m -1.04 0.6 c 0.32 0.08 0.56 0.15 0.96 0.23 c 0.16 0.07 0.4 0.07 0.64 0.15 c 0.32 0.15 0.64 0.23 0.88 0.38 v 0.67 c -0.32 -0.07 -0.72 -0.15 -1.2 -0.38 c -1.69 -0.52 -2.09 -0.97 -2.17 -1.12 c 0.16 0 0.4 0 0.89 0.07 m -0.96 7.63 l -0.48 -0.15 c -0.56 -0.15 -0.89 -0.75 -0.8 -1.27 l 0.16 -0.67 c 0.48 0.22 1.04 0.52 1.53 0.67 c 0.16 0.07 0.8 0.22 1.53 0.37 l -0.32 0.6 c -0.4 0.52 -1.04 0.68 -1.61 0.45" style="fill:#fff"/></svg>