<svg xmlns="http://www.w3.org/2000/svg" viewBox="0 0 22 22"><path d="m 18.2 3.27 c 17.27 22.79 -30.3 26 -15 2.77 c 3.48 -5.3 10.43 -8.8 15 -2.77" style="fill:#fd6605"/><path d="m 15.1 16.91 h -0.36 v -8.6 c 0.44 -0.14 0.73 -0.57 0.73 -1 c 0 -0.57 -0.51 -1.07 -1.09 -1.07 c -0.51 0 -0.87 0.29 -1.02 0.71 h -2.9 c -0.07 -0.07 -0.22 -0.14 -0.29 -0.21 c -0.43 -0.29 -1.02 -0.57 -1.52 -0.43 c -0.07 0 -0.14 0.07 -0.14 0.07 c 0 0 -0.07 0.07 -0.07 0.14 l -3.63 4.76 c -0.51 0.71 -0.43 1.71 0.14 2.35 l 0.29 0.29 c 0.36 0.36 0.8 0.5 1.3 0.5 c 0.36 0 0.73 -0.14 1.09 -0.36 l 4.94 -3.55 c 0.36 -0.36 0.21 -0.78 0 -1.28 l 0.87 -1.35 c 0.14 0.21 0.29 0.36 0.58 0.43 v 8.6 h -0.36 c -0.21 0 -0.36 0.14 -0.36 0.36 c 0 0.21 0.14 0.36 0.36 0.36 h 1.45 c 0.22 0 0.36 -0.14 0.36 -0.36 c 0 -0.21 -0.14 -0.36 -0.36 -0.36 m -4.36 -8.67 c 1.31 1.28 1.31 1.71 1.31 1.78 c -0.07 0 -0.51 0 -1.82 -1.28 c -1.09 -1.14 -1.23 -1.63 -1.23 -1.78 c 0.07 0 0.29 0.07 0.73 0.36 c 0.29 0.21 0.58 0.5 1.02 0.93 m -2.32 4.41 c -0.36 -0.21 -0.87 -0.64 -1.23 -1 c -0.36 -0.21 -0.72 -0.71 -0.94 -1.14 l 0.94 -1.21 c 0.22 0.43 0.51 1 1.02 1.42 c 0.43 0.43 1.02 0.78 1.45 1 m 0.51 -0.57 c -0.43 -0.21 -0.94 -0.57 -1.45 -1 c -0.44 -0.36 -0.73 -0.85 -0.95 -1.42 c 0 -0.07 -0.07 -0.07 -0.07 -0.07 l 0.8 -1.07 c 0.22 0.43 0.65 0.93 1.3 1.56 c 0.44 0.5 1.02 1.07 1.6 1.35 l -1.09 0.78 c -0.07 -0.07 -0.07 -0.07 -0.15 -0.14 m -2.98 2.35 c -0.43 0.29 -1.02 0.29 -1.38 -0.14 l -0.29 -0.28 c -0.36 -0.36 -0.44 -1 -0.14 -1.43 l 0.43 -0.57 c 0.22 0.5 0.58 0.92 0.87 1.14 c 0.29 0.29 0.73 0.64 1.09 0.86 m 4.57 -4.2 c -0.29 -0.43 -0.73 -0.86 -1.09 -1.21 c -0.14 -0.14 -0.29 -0.21 -0.36 -0.36 h 2.4 c 0 0.07 0 0.07 0 0.14" style="fill:#fff"/></svg>