<svg xmlns="http://www.w3.org/2000/svg" viewBox="0 0 22 22"><path d="m 5.14 19.71 c 8.18 7.26 20.78 -4.19 15.68 -13.78 c -5.15 -9.68 -22.2 -7.11 -20.73 4.79 c 0.43 3.54 2.38 6.61 5 8.98" style="fill:#689586"/><g style="fill:#fff"><path d="m 7.2 11.73 c 0.41 0 0.89 -0.08 1.3 -0.32 c 0.73 0.73 1.71 1.13 2.77 1.13 c 0.9 0 1.79 -0.32 2.53 -0.97 c 0.16 0.08 0.49 0.16 0.73 0.16 c 1.63 0 2.85 -1.21 2.85 -2.83 c 0 -1.62 -1.22 -2.83 -2.85 -2.83 h -0.08 c -0.73 -1.05 -1.95 -1.62 -3.18 -1.62 c -1.3 0 -2.52 0.64 -3.34 1.7 c -0.24 0 -0.49 -0.08 -0.73 -0.08 c -1.63 0 -2.85 1.21 -2.85 2.83 c 0 1.62 1.22 2.83 2.85 2.83 m 0 -4.86 c 0.24 0 0.49 0.08 0.73 0.16 c 0 0 0.08 0 0.08 0 c 0.08 0 0.16 0 0.16 -0.08 c 0.16 0 0.24 -0.08 0.24 -0.08 c 0.65 -0.97 1.63 -1.62 2.85 -1.62 c 0.98 0 1.88 0.4 2.45 1.13 c 0 0 0 0.08 0 0.08 c 0 0.24 0.16 0.4 0.41 0.4 h 0.41 c 1.14 0 2.04 0.89 2.04 2.02 c 0 1.13 -0.9 2.02 -2.04 2.02 c -0.16 0 -0.41 -0.08 -0.65 -0.16 c 0 0 0 0 -0.08 0 c 0 0 -0.08 0 -0.08 0 c 0 0 -0.08 0 -0.08 0 c 0 0 -0.08 0 -0.08 0 c 0 0 -0.08 0 -0.08 0 c 0 0 0 0 -0.08 0 c -0.57 0.65 -1.38 0.97 -2.12 0.97 c -0.89 0 -1.79 -0.41 -2.36 -1.05 c 0 0 -0.08 0 -0.08 -0.08 c 0 0 -0.08 0 -0.08 0 c 0 0 -0.08 0 -0.08 0 c 0 0 -0.08 0 -0.08 0 c 0 0 -0.08 0 -0.08 0 c 0 0 -0.08 0 -0.08 0 c -0.41 0.16 -0.81 0.32 -1.22 0.32 c -1.14 0 -2.04 -0.89 -2.04 -2.02 c 0 -1.13 0.9 -2.02 2.04 -2.02"/><path d="m 6.79 16.58 c 0 1.13 1.63 1.13 1.63 0 c 0 -0.49 -0.81 -1.62 -0.81 -1.62 c 0 0 -0.82 1.13 -0.82 1.62"/><path d="m 5.98 12.54 c 0 0 -0.82 1.13 -0.82 1.62 c 0 1.13 1.63 1.13 1.63 0 c 0 -0.48 -0.81 -1.62 -0.81 -1.62"/><path d="m 12.5 12.54 c 0 0 -0.81 1.13 -0.81 1.62 c 0 1.13 1.63 1.13 1.63 0 c 0 -0.48 -0.82 -1.62 -0.82 -1.62"/><path d="m 14.94 14.2 c 0 1.13 1.63 1.13 1.63 0 c 0 -0.48 -0.82 -1.62 -0.82 -1.62 c 0 0 -0.81 1.13 -0.81 1.62"/><path d="m 10.1 16.58 c 0 1.13 1.63 1.13 1.63 0 c 0 -0.49 -0.82 -1.62 -0.82 -1.62 c 0 0 -0.82 1.13 -0.82 1.62"/><path d="m 13.31 16.58 c 0 1.13 1.63 1.13 1.63 0 c 0 -0.49 -0.82 -1.62 -0.82 -1.62 c 0 0 -0.81 1.13 -0.81 1.62"/><path d="m 9.24 12.54 c 0 0 -0.82 1.13 -0.82 1.62 c 0 1.13 1.63 1.13 1.63 0 c 0 -0.48 -0.81 -1.62 -0.81 -1.62"/></g></svg>