<svg xmlns="http://www.w3.org/2000/svg" viewBox="0 0 22 22"><path d="m 16.86 19.71 c -8.18 7.26 -20.78 -4.19 -15.68 -13.78 c 5.15 -9.68 22.2 -7.11 20.73 4.79 c -0.43 3.54 -2.38 6.61 -5.1 8.98" style="fill:#70706e"/><g style="fill:#fff"><path d="m 10.74 9.25 c 0 0 -1.25 1.75 -1.25 2.51 c 0 1.75 2.5 1.75 2.5 0 c 0 -0.76 -1.25 -2.51 -1.25 -2.51"/><path d="m 4.98 14.27 c 0 1.37 2.09 1.37 2.09 0 c 0 -0.53 -1 -1.98 -1 -1.98 c 0 0 -1.09 1.37 -1.09 1.98"/><path d="m 8.32 15.79 c 0 1.37 2.08 1.37 2.08 0 c 0 -0.53 -1 -1.98 -1 -1.98 c 0 0 -1.08 1.37 -1.08 1.98"/><path d="m 11.66 15.79 c 0 1.37 2.08 1.37 2.08 0 c 0 -0.53 -1 -1.98 -1 -1.98 c 0 0 -1.08 1.37 -1.08 1.98"/><path d="m 14.82 14.27 c 0 1.37 2.08 1.37 2.08 0 c 0.08 -0.53 -1 -1.98 -1 -1.98 c 0 0 -1.08 1.37 -1.08 1.98"/><path d="m 17.57 9.63 c 0 -1.07 -0.75 -1.98 -1.92 -2.43 c -0.33 -1.44 -1.75 -2.51 -3.5 -2.51 c -1.42 0 -2.59 0.69 -3.25 1.75 c -0.41 -0.23 -0.91 -0.3 -1.41 -0.3 c -1.75 0 -3.25 1.37 -3.25 2.96 c 0 1.6 1.5 2.96 3.25 2.96 c 0.25 0 0.41 -0.15 0.41 -0.38 c 0 -0.23 -0.16 -0.38 -0.41 -0.38 c -1.34 0 -2.42 -0.98 -2.42 -2.2 c 0 -1.21 1.08 -2.2 2.42 -2.2 c 0.5 0 1 0.15 1.33 0.38 c 0.12 0 0.22 0 0.33 0 c 0.22 0 0.34 -0.18 0.34 -0.3 c 0.41 -0.91 1.42 -1.52 2.67 -1.52 c 1.41 0 2.5 0.84 2.75 2.13 c -0.02 0.16 0.16 0.23 0.25 0.3 c 1 0.23 1.58 0.91 1.58 1.75 c 0 1.06 -0.91 1.97 -2.08 1.97 c -0.25 0 -0.42 0.15 -0.42 0.38 c 0 0.23 0.17 0.38 0.42 0.38 c 1.58 0 2.92 -1.22 2.92 -2.73"/></g></svg>