<svg xmlns="http://www.w3.org/2000/svg" viewBox="0 0 22 22"><path d="m 10.13 21.84 c 13.1 1.25 16.59 -19.82 3.17 -21.46 c -12.34 -2.03 -18.69 17.1 -6.43 20.89 c 1.04 0.42 2.17 0.41 3.27 0.57" style="fill:#66cdaa"/><g style="fill:#fff"><path d="m 14.68 7.21 c -0.82 -1.14 -1.97 -1.76 -3.29 -1.76 c -1.31 0 -2.54 0.7 -3.36 1.84 c -0.25 0 -0.49 -0.09 -0.74 -0.09 c -1.64 0 -2.87 1.32 -2.87 3.08 c 0 1.76 1.23 3.08 2.87 3.08 c 0.41 0 0.9 -0.09 1.31 -0.35 c 0.74 0.79 1.72 1.23 2.79 1.23 c 0.91 0 1.81 -0.35 2.55 -1.05 c 0.25 0.09 0.49 0.18 0.74 0.18 c 1.64 0 2.87 -1.32 2.87 -3.08 c 0 -1.76 -1.23 -3.08 -2.87 -3.08 m 0 5.28 c -0.16 0 -0.41 -0.09 -0.66 -0.18 c -0.13 0 -0.21 0 -0.33 0 c 0 0 -0.08 0 -0.08 0.09 c -0.66 0.62 -1.48 0.97 -2.22 0.97 c -0.9 0 -1.8 -0.44 -2.38 -1.14 c 0 0 -0.08 0 -0.08 -0.09 c -0.16 0 -0.32 0 -0.49 0 c -0.33 0.18 -0.74 0.35 -1.15 0.35 c -1.15 0 -2.05 -0.97 -2.05 -2.2 c 0 -1.23 0.9 -2.2 2.05 -2.2 c 0.25 0 0.49 0.09 0.74 0.18 c 0.17 -0.04 0.36 -0.08 0.49 -0.18 c 0.83 -1.11 1.86 -1.74 2.87 -1.76 c 0.99 0 1.89 0.44 2.46 1.23 v 0.09 c 0 0.27 0.16 0.44 0.41 0.44 h 0.41 c 1.15 0 2.05 0.97 2.05 2.2 c 0 1.23 -0.9 2.2 -2.05 2.2"/><path d="m 10.16 17.41 c 0 1.59 2.05 1.59 2.05 0 c -0.09 -0.61 -1.07 -2.29 -1.07 -2.29 c 0 0 -0.98 1.58 -0.98 2.29"/></g></svg>