<svg xmlns="http://www.w3.org/2000/svg" viewBox="0 0 22 22"><path d="m 18.85 4.13 c 13.72 19.51 -21.98 25.72 -18.43 4.98 c 1.88 -8.24 12.93 -12.8 18.43 -4.98" style="fill:#00bfff"/><g style="fill:#fff"><path d="m 4.27 9.95 c 0 -1.75 1.23 -3.07 2.88 -3.07 h 0.08 c 0.74 -1.14 1.97 -1.75 3.2 -1.75 c 1.31 0 2.55 0.7 3.37 1.84 c 0.25 0 0.49 -0.09 0.74 -0.09 c 1.64 0 2.88 1.32 2.88 3.07 c 0 1.75 -1.23 3.07 -2.88 3.07 c -0.41 0 -0.9 -0.09 -1.31 -0.35 c -0.74 0.79 -1.73 1.23 -2.79 1.23 c -0.91 0 -1.81 -0.35 -2.55 -1.05 c -0.25 0.09 -0.49 0.18 -0.74 0.18 c -1.64 0 -2.88 -1.32 -2.88 -3.07 m 2.88 2.19 c 0.16 0 0.41 -0.09 0.66 -0.17 c 0.14 0 0.41 -0.04 0.41 0.09 c 0.61 0.59 1.47 0.95 2.22 0.96 c 0.9 0 1.8 -0.44 2.38 -1.14 c 0.06 -0.06 0.08 0 0.08 -0.09 c 0.16 0 0.34 0 0.49 0 c 0.33 0.18 0.74 0.35 1.15 0.35 c 1.15 0 2.05 -0.96 2.05 -2.19 c 0 -1.23 -0.9 -2.19 -2.05 -2.19 c -0.25 0 -0.49 0.09 -0.74 0.18 c -0.17 -0.02 -0.37 -0.1 -0.49 -0.18 c -0.67 -1.1 -1.86 -1.73 -2.88 -1.75 c -0.99 0 -1.89 0.44 -2.46 1.23 v 0.09 c 0 0.27 -0.16 0.44 -0.41 0.44 h -0.41 c -1.15 0 -2.05 0.96 -2.05 2.19 c 0 1.23 0.9 2.19 2.05 2.19"/><path d="m 14.21 16.52 c 0 1.23 -1.64 1.23 -1.64 0 c 0 -0.52 0.82 -1.75 0.82 -1.75 c 0 0 0.82 1.23 0.82 1.75"/><path d="m 16.76 15.65 c 0 1.23 -1.64 1.23 -1.64 0 c 0 -0.53 0.82 -1.75 0.82 -1.75 c 0 0 0.82 1.23 0.82 1.75"/><path d="m 6.74 15.65 c 0 1.23 -1.64 1.23 -1.64 0 c 0 -0.53 0.82 -1.75 0.82 -1.75 c 0 0 0.82 1.23 0.82 1.75"/><path d="m 9.2 16.52 c 0 1.23 -1.64 1.23 -1.64 0 c 0 -0.52 0.82 -1.75 0.82 -1.75 c 0 0 0.82 1.23 0.82 1.75"/><path d="m 11.67 17.4 c 0 1.23 -1.64 1.23 -1.64 0 c 0 -0.53 0.82 -1.75 0.82 -1.75 c 0 0 0.82 1.23 0.82 1.75"/></g></svg>