<svg xmlns="http://www.w3.org/2000/svg" viewBox="0 0 22 22"><path d="m 16.61 20.36 c 19.21 -16.52 -20.3 -32.4 -16.24 -6.86 c 0.89 5.6 11.1 11.3 16.24 6.86" style="fill:#695acd"/><g style="fill:#fff"><path d="m 14.54 7.5 c -0.87 -1.23 -2.09 -1.89 -3.48 -1.89 c -1.39 0 -2.69 0.76 -3.56 1.99 c -0.26 0 -0.52 -0.09 -0.78 -0.09 c -1.74 0 -3.04 1.42 -3.04 3.32 c 0 1.89 1.3 3.31 3.04 3.31 c 0.43 0 0.96 -0.09 1.39 -0.38 c 0.78 0.86 1.82 1.33 2.95 1.33 c 0.96 0 1.91 -0.38 2.7 -1.14 c 0.26 0.09 0.52 0.19 0.78 0.19 c 1.73 0 3.04 -1.42 3.04 -3.31 c 0 -1.89 -1.3 -3.32 -3.04 -3.32 m 0 5.68 c -0.18 0 -0.44 -0.09 -0.7 -0.19 c -0.15 0 -0.43 -0.05 -0.43 0.09 c -0.7 0.66 -1.57 1.04 -2.35 1.04 c -0.96 0 -1.91 -0.47 -2.52 -1.23 c -0.14 -0.13 -0.38 -0.09 -0.61 -0.09 c -0.34 0.19 -0.78 0.38 -1.21 0.38 c -1.21 0 -2.17 -1.04 -2.17 -2.37 c 0 -1.33 0.96 -2.37 2.17 -2.37 c 0.26 0 0.52 0.09 0.78 0.19 h 0.09 c 0.17 -0.06 0.32 -0.11 0.43 -0.19 c 0.7 -1.14 1.73 -1.89 3.04 -1.89 c 1.04 0 2 0.47 2.61 1.32 v 0.09 c 0 0.29 0.18 0.48 0.43 0.48 h 0.44 c 1.21 0 2.17 1.04 2.17 2.37 c 0 1.32 -0.96 2.37 -2.17 2.37"/><path d="m 8 15.55 c 0 0.26 -0.2 0.47 -0.43 0.47 c -0.24 0 -0.44 -0.21 -0.44 -0.47 c 0 -0.26 0.2 -0.47 0.44 -0.47 c 0.24 0 0.43 0.21 0.43 0.47"/><path d="m 9.76 16.5 c 0 0.26 -0.19 0.47 -0.43 0.47 c -0.24 0 -0.43 -0.21 -0.43 -0.47 c 0 -0.26 0.2 -0.48 0.43 -0.48 c 0.24 0 0.43 0.21 0.43 0.48"/><path d="m 11.5 17.44 c 0 0.26 -0.19 0.47 -0.43 0.47 c -0.24 0 -0.43 -0.21 -0.43 -0.47 c 0 -0.26 0.2 -0.47 0.43 -0.47 c 0.24 0 0.43 0.21 0.43 0.47"/><path d="m 13.24 16.5 c 0 0.26 -0.2 0.47 -0.43 0.47 c -0.24 0 -0.43 -0.21 -0.43 -0.47 c 0 -0.26 0.19 -0.48 0.43 -0.48 c 0.24 0 0.43 0.21 0.43 0.48"/><path d="m 14.98 15.55 c 0 0.26 -0.2 0.47 -0.43 0.47 c -0.24 0 -0.44 -0.21 -0.44 -0.47 c 0 -0.26 0.2 -0.47 0.44 -0.47 c 0.24 0 0.43 0.21 0.43 0.47"/></g></svg>