<svg xmlns="http://www.w3.org/2000/svg" viewBox="0 0 22 22"><path d="m 4.05 3.83 c 9.29 -11.1 24.97 5.15 14.36 14.96 c -9.18 9.84 -25.98 -5.52 -14.36 -14.96" style="fill:#0c363f"/><path d="m 14.48 12.74 c -0.24 0 -0.41 -0.16 -0.41 -0.41 c 0 -0.25 0.16 -0.42 0.41 -0.42 c 1.29 0 2.34 -1.09 2.34 -2.42 c 0 -1.34 -1.05 -2.42 -2.34 -2.42 c -0.48 0 -0.97 0.17 -1.3 0.42 c -0.12 0 -0.34 0 -0.48 0 c -0.06 -0.05 -0.16 -0.11 -0.16 -0.17 c 0 -0.06 0 -0.12 0 -0.17 c -0.41 -1 -1.38 -1.67 -2.59 -1.67 c -1.29 0 -2.27 0.84 -2.59 2 c 0 0.08 0 0.25 -0.08 0.33 c -0.08 0.17 -0.24 0.33 -0.41 0.33 c -0.05 0 -0.11 0 -0.16 0 c -0.73 0.34 -1.21 1.09 -1.21 1.92 c 0 1.17 0.89 2.17 2.02 2.17 c 0.24 0 0.4 0.17 0.4 0.42 c 0 0.25 -0.16 0.42 -0.4 0.42 c -1.54 0 -2.83 -1.34 -2.83 -3 c 0 -1.25 0.73 -2.33 1.86 -2.75 c 0.41 -1.59 1.78 -2.67 3.4 -2.67 c 1.38 0 2.51 0.75 3.16 1.92 c 0.4 -0.25 0.89 -0.34 1.38 -0.34 c 1.7 0 3.15 1.5 3.15 3.25 c 0 1.75 -1.45 3.25 -3.15 3.25" style="fill:#fff"/><g style="fill:#f4f4f4"><path d="m 13.16 12.53 c -0.08 -0.24 -0.01 -0.23 -1.16 -0.04 c -0.41 0.07 -0.75 0.12 -0.76 0.11 c -0.01 -0.01 0.01 -0.05 0.04 -0.08 c 0.88 -1.11 1.05 -1.39 0.95 -1.61 c -0.05 -0.11 -0.09 -0.13 -0.21 -0.13 c -0.26 0 -0.34 0.12 -0.66 0.99 c -0.33 0.89 -0.3 0.84 -0.33 0.78 c -0.02 -0.03 -0.11 -0.29 -0.2 -0.57 c -0.39 -1.17 -0.51 -1.33 -0.81 -1.13 c -0.25 0.17 -0.21 0.38 0.13 0.78 c 0.32 0.37 0.75 0.92 0.75 0.96 c 0 0.04 0.04 0.05 -0.75 -0.09 c -0.74 -0.13 -0.96 -0.15 -1.04 -0.08 c -0.15 0.13 -0.21 0.39 -0.11 0.5 c 0.15 0.16 0.33 0.2 0.65 0.11 c 0.32 -0.08 1.25 -0.25 1.27 -0.22 c 0.02 0.02 -0.14 0.24 -0.63 0.82 c -0.22 0.27 -0.37 0.48 -0.41 0.57 c -0.05 0.14 -0.05 0.16 0.01 0.29 c 0.06 0.13 0.07 0.13 0.25 0.14 c 0.16 0.01 0.2 0 0.25 -0.06 c 0.03 -0.04 0.18 -0.42 0.34 -0.84 c 0.16 -0.43 0.29 -0.77 0.31 -0.78 c 0.02 0 0.13 0.29 0.26 0.66 c 0.37 1.04 0.37 1.04 0.61 1.04 c 0.18 0 0.22 -0.03 0.29 -0.18 c 0.09 -0.14 0.04 -0.2 -0.04 -0.34 c -0.05 -0.11 -0.29 -0.45 -0.53 -0.74 c -0.24 -0.3 -0.43 -0.55 -0.42 -0.56 c 0.02 -0.02 0.55 0.07 1.06 0.19 c 0.46 0.11 0.64 0.11 0.78 0.03 c 0.17 -0.15 0.16 -0.35 0.11 -0.49"/><path d="m 4.87 15.87 c 0.07 0.21 0.01 0.2 1.05 0.04 c 0.37 -0.06 0.68 -0.1 0.68 -0.09 c 0.01 0.01 0 0.04 -0.03 0.07 c -0.8 0.95 -0.95 1.19 -0.85 1.38 c 0.05 0.09 0.08 0.11 0.19 0.11 c 0.24 0 0.31 -0.11 0.59 -0.85 c 0.29 -0.76 0.27 -0.71 0.3 -0.66 c 0.01 0.03 0.09 0.24 0.18 0.48 c 0.36 1 0.46 1.14 0.73 0.96 c 0.22 -0.14 0.19 -0.32 -0.12 -0.66 c -0.29 -0.31 -0.68 -0.79 -0.68 -0.82 c 0 -0.04 -0.04 -0.04 0.67 0.08 c 0.67 0.11 0.86 0.13 0.93 0.07 c 0.14 -0.11 0.19 -0.33 0.1 -0.43 c -0.13 -0.14 -0.3 -0.17 -0.59 -0.1 c -0.28 0.07 -1.12 0.21 -1.14 0.19 c -0.02 -0.02 0.13 -0.2 0.57 -0.7 c 0.2 -0.23 0.34 -0.41 0.36 -0.49 c 0.04 -0.12 0.04 -0.13 -0.01 -0.24 c -0.05 -0.11 -0.06 -0.11 -0.23 -0.12 c -0.14 -0.01 -0.18 0 -0.22 0.05 c -0.03 0.03 -0.17 0.36 -0.3 0.71 c -0.14 0.36 -0.26 0.66 -0.28 0.66 c -0.01 0 -0.12 -0.25 -0.23 -0.56 c -0.34 -0.89 -0.33 -0.88 -0.55 -0.88 c -0.16 0 -0.2 0.02 -0.26 0.16 c -0.08 0.13 -0.03 0.17 0.03 0.29 c 0.05 0.1 0.26 0.38 0.48 0.64 c 0.21 0.25 0.38 0.46 0.38 0.47 c -0.02 0.02 -0.5 -0.06 -0.95 -0.16 c -0.41 -0.09 -0.57 -0.09 -0.7 -0.02 c -0.15 0.13 -0.14 0.3 -0.1 0.42"/><path d="m 13.35 15.75 c 0.07 0.21 0.01 0.21 1.04 0.04 c 0.36 -0.06 0.67 -0.11 0.68 -0.1 c 0.01 0.01 -0.01 0.04 -0.03 0.07 c -0.79 0.97 -0.94 1.21 -0.84 1.41 c 0.05 0.09 0.08 0.11 0.19 0.11 c 0.23 0 0.31 -0.11 0.59 -0.86 c 0.29 -0.78 0.27 -0.73 0.3 -0.68 c 0.01 0.03 0.09 0.25 0.18 0.5 c 0.36 1.02 0.46 1.16 0.72 0.98 c 0.22 -0.15 0.19 -0.33 -0.12 -0.68 c -0.28 -0.32 -0.67 -0.8 -0.67 -0.84 c 0 -0.04 -0.04 -0.04 0.66 0.08 c 0.66 0.11 0.86 0.13 0.93 0.07 c 0.14 -0.12 0.18 -0.34 0.09 -0.44 c -0.13 -0.14 -0.3 -0.17 -0.58 -0.1 c -0.28 0.07 -1.11 0.21 -1.13 0.2 c -0.02 -0.02 0.13 -0.21 0.56 -0.71 c 0.2 -0.23 0.33 -0.42 0.36 -0.5 c 0.04 -0.12 0.04 -0.13 -0.01 -0.25 c -0.05 -0.11 -0.06 -0.12 -0.23 -0.13 c -0.14 -0.01 -0.18 0 -0.22 0.05 c -0.03 0.04 -0.16 0.36 -0.3 0.73 c -0.14 0.37 -0.26 0.67 -0.27 0.68 c -0.01 0 -0.12 -0.25 -0.23 -0.57 c -0.33 -0.91 -0.33 -0.9 -0.54 -0.9 c -0.16 0 -0.2 0.02 -0.26 0.16 c -0.08 0.13 -0.03 0.17 0.03 0.3 c 0.05 0.1 0.26 0.39 0.47 0.65 c 0.21 0.26 0.38 0.48 0.37 0.48 c -0.02 0.02 -0.49 -0.07 -0.95 -0.16 c -0.41 -0.09 -0.57 -0.1 -0.7 -0.02 c -0.15 0.13 -0.14 0.3 -0.1 0.43"/></g></svg>