<svg xmlns="http://www.w3.org/2000/svg" xmlns:xlink="http://www.w3.org/1999/xlink" viewBox="0 0 22 22"><defs><g id="3" style="clip-path:url(#2)"><path d="m 5.85 16.48 c 0 1.49 2.03 1.49 2.03 0 c 0 -0.58 -0.98 -2.14 -0.98 -2.14 c 0 0 -1.05 1.48 -1.05 2.14" style="fill:#fff"/><path d="m 14.48 16.44 c 0 1.49 2.04 1.49 2.04 0 c 0 -0.58 -0.98 -2.14 -0.98 -2.14 c 0 0 -1.06 1.48 -1.06 2.14" style="fill:#fff"/></g><clipPath id="2"><path d="M 0,0 H22 V22 H0 z"/></clipPath><filter id="0" filterUnits="objectBoundingBox" x="0" y="0" width="22" height="22"><feColorMatrix type="matrix" in="SourceGraphic" values="0 0 0 0 1 0 0 0 0 1 0 0 0 0 1 0 0 0 1 0"/></filter><mask id="1"><g style="filter:url(#0)"><path d="M 0,0 H22 V22 H0 z" style="fill-opacity:0.75"/></g></mask></defs><path d="m 3.75 3.88 c -11.16 8.96 5.18 25.1 15.1 14.79 c 9.9 -8.89 -5.55 -26.1 -15.1 -14.79" style="fill:#213352"/><path d="m 7.7 13.1 c 0.24 0 0.41 -0.16 0.41 -0.41 c 0 -0.25 -0.16 -0.42 -0.41 -0.42 c -1.29 0 -2.34 -1.09 -2.34 -2.42 c 0 -1.34 1.05 -2.42 2.34 -2.42 c 0.49 0 0.97 0.17 1.3 0.42 c 0.12 0 0.34 0 0.48 0 c 0.06 -0.05 0.16 -0.11 0.16 -0.17 c 0 -0.06 0 -0.12 0 -0.17 c 0.41 -1 1.38 -1.67 2.59 -1.67 c 1.29 0 2.27 0.84 2.59 2 c 0 0.08 0 0.25 0.08 0.33 c 0.08 0.17 0.24 0.33 0.41 0.33 c 0.05 0 0.11 0 0.16 0 c 0.73 0.34 1.21 1.09 1.21 1.92 c 0 1.17 -0.89 2.17 -2.02 2.17 c -0.24 0 -0.4 0.17 -0.4 0.42 c 0 0.25 0.16 0.42 0.4 0.42 c 1.54 0 2.83 -1.34 2.83 -3 c 0 -1.25 -0.73 -2.33 -1.86 -2.75 c -0.41 -1.59 -1.78 -2.67 -3.4 -2.67 c -1.38 0 -2.51 0.75 -3.16 1.92 c -0.4 -0.25 -0.89 -0.34 -1.38 -0.34 c -1.7 0 -3.15 1.5 -3.15 3.25 c 0 1.75 1.45 3.25 3.15 3.25" style="fill:#fff"/><path d="m 11.1 15.96 c -0.3 -0.11 -0.29 -0.01 -0.05 -1.6 c 0.09 -0.57 0.15 -1.04 0.14 -1.05 c -0.02 -0.01 -0.06 0.01 -0.1 0.05 c -1.38 1.21 -1.73 1.44 -2 1.3 c -0.13 -0.07 -0.16 -0.13 -0.16 -0.29 c 0 -0.36 0.15 -0.48 1.23 -0.91 c 1.11 -0.45 1.04 -0.42 0.97 -0.46 c -0.04 -0.02 -0.36 -0.15 -0.7 -0.28 c -1.45 -0.55 -1.65 -0.71 -1.4 -1.11 c 0.21 -0.34 0.47 -0.29 0.96 0.18 c 0.45 0.44 1.14 1.04 1.19 1.04 c 0.05 0 0.06 0.06 -0.11 -1.03 c -0.16 -1.02 -0.18 -1.32 -0.1 -1.43 c 0.16 -0.21 0.48 -0.29 0.62 -0.14 c 0.21 0.2 0.25 0.46 0.14 0.89 c -0.11 0.43 -0.31 1.71 -0.28 1.74 c 0.03 0.03 0.29 -0.2 1.01 -0.86 c 0.33 -0.31 0.6 -0.52 0.71 -0.56 c 0.17 -0.07 0.19 -0.07 0.35 0.02 c 0.16 0.08 0.17 0.09 0.18 0.35 c 0.01 0.22 0 0.27 -0.07 0.34 c -0.05 0.04 -0.52 0.25 -1.04 0.46 c -0.53 0.21 -0.96 0.4 -0.97 0.42 c 0 0.02 0.36 0.18 0.81 0.36 c 1.29 0.51 1.29 0.5 1.29 0.84 c 0 0.24 -0.04 0.3 -0.23 0.4 c -0.18 0.13 -0.25 0.05 -0.43 -0.05 c -0.14 -0.07 -0.55 -0.4 -0.93 -0.73 c -0.37 -0.33 -0.68 -0.59 -0.69 -0.57 c -0.03 0.02 0.09 0.76 0.23 1.46 c 0.13 0.64 0.14 0.88 0.03 1.08 c -0.18 0.23 -0.43 0.21 -0.61 0.15" style="fill:#f4f4f4"/><use xlink:href="#3" style="mask:url(#1)"/></svg>