<svg xmlns="http://www.w3.org/2000/svg" viewBox="0 0 22 22"><path d="m 8.89 21.53 c -2 -0.86 -4.8 -2.12 -5 -2.28 c -0.15 -0.1 -0.41 -0.36 -0.57 -0.57 c -0.46 -0.6 -2.93 -4.91 -3 -5.3 c -0.1 -0.36 -0.06 -1.66 0.09 -2.84 c 0.34 -3.47 0.17 -3.39 0.63 -4.14 c 0.1 -0.2 1.08 -1.35 2.19 -2.55 c 2.12 -2.31 2.35 -2.5 3.25 -2.67 c 2.41 -0.42 3.94 -0.93 6.11 -1.06 c 1.93 0.82 4 1.69 5.83 2.72 c 0.29 0.24 0.71 0.88 1.66 2.5 c 1.94 3.32 1.79 2.96 1.77 4.12 c -0.2 1.8 -0.18 4.82 -0.81 6.1 c -0.21 0.4 -3.05 3.6 -3.95 4.45 c -0.45 0.43 -0.89 0.62 -1.93 0.83 c -1.05 0.39 -3.51 0.8 -4.36 0.95 c -0.48 0.11 -1.05 0.07 -1.85 -0.26" style="fill:#4069e0"/><path d="m 14.41 9.59 l 2.17 1.02 c 0.09 0 0.09 0 0.17 0 c 0.18 0 0.35 -0.09 0.43 -0.25 c 0.09 -0.17 0 -0.43 -0.17 -0.59 l -1.56 -0.77 l 1.39 -0.77 c 0.17 -0.09 0.26 -0.34 0.17 -0.59 c -0.09 -0.25 -0.43 -0.25 -0.61 -0.09 l -1.48 0.77 l 0.18 -1.7 c 0 -0.25 -0.18 -0.43 -0.35 -0.43 c -0.26 0 -0.43 0.17 -0.43 0.34 l -0.35 2.29 l -2.6 1.45 v -2.89 l 1.91 -1.36 c 0.18 -0.17 0.26 -0.43 0.09 -0.59 c -0.17 -0.17 -0.43 -0.26 -0.61 -0.09 l -1.39 0.93 v -1.61 c 0 -0.25 -0.18 -0.43 -0.43 -0.43 c -0.26 0 -0.43 0.17 -0.43 0.43 v 1.61 l -1.39 -0.93 c -0.17 -0.17 -0.43 -0.09 -0.61 0.09 c -0.17 0.17 -0.09 0.42 0.09 0.59 l 1.91 1.36 v 2.97 l -2.52 -1.61 l -0.26 -2.29 c 0 -0.26 -0.26 -0.43 -0.43 -0.34 c -0.26 0 -0.43 0.25 -0.43 0.51 l 0.17 1.61 l -1.39 -0.85 c -0.26 -0.17 -0.52 -0.09 -0.61 0.08 c -0.18 0.26 -0.09 0.51 0.09 0.6 l 1.47 0.85 l -1.56 0.68 c -0.26 0.17 -0.35 0.43 -0.26 0.59 c 0.09 0.17 0.26 0.26 0.43 0.26 c 0.09 0 0.09 0 0.18 0 l 2.08 -0.94 l 2.61 1.53 l -2.61 1.45 l -2.17 -1.02 c -0.17 -0.09 -0.43 0 -0.61 0.17 c -0.09 0.25 0 0.51 0.26 0.68 l 1.56 0.77 l -1.47 0.76 c -0.18 0.09 -0.26 0.34 -0.18 0.6 c 0.09 0.17 0.26 0.25 0.35 0.25 c 0.09 0 0.18 0 0.18 -0.09 l 1.47 -0.77 l -0.17 1.7 c 0 0.26 0.17 0.43 0.34 0.43 c 0 0 0 0 0.09 0 c 0.26 0 0.43 -0.17 0.43 -0.34 l 0.34 -2.38 l 2.61 -1.44 v 2.97 l -1.91 1.36 c -0.17 0.17 -0.26 0.42 -0.09 0.59 c 0.09 0.09 0.26 0.17 0.35 0.17 c 0.09 0 0.17 0 0.26 -0.08 l 1.39 -1.02 v 1.61 c 0 0.25 0.17 0.43 0.43 0.43 c 0.26 0 0.43 -0.17 0.43 -0.43 v -1.61 l 1.39 0.93 c 0.17 0.17 0.43 0.09 0.61 -0.09 c 0.18 -0.17 0.09 -0.43 -0.09 -0.59 l -1.91 -1.36 v -2.89 l 2.52 1.53 l 0.26 2.29 c 0 0.25 0.18 0.34 0.43 0.34 c 0 0 0 0 0.09 0 c 0.26 0 0.43 -0.25 0.34 -0.43 l -0.17 -1.7 l 1.39 0.85 c 0.09 0 0.18 0.09 0.26 0.09 c 0.17 0 0.26 -0.09 0.35 -0.17 c 0.09 -0.17 0.09 -0.43 -0.18 -0.59 l -1.47 -0.85 l 1.56 -0.68 c 0.26 -0.09 0.35 -0.34 0.26 -0.6 c -0.09 -0.25 -0.35 -0.34 -0.61 -0.25 l -2.08 0.93 l -2.52 -1.53" style="fill:#fff"/></svg>