<svg xmlns="http://www.w3.org/2000/svg" viewBox="0 0 22 22"><path d="m 18.85 4.13 c 13.72 19.51 -21.98 25.72 -18.43 4.98 c 1.88 -8.24 12.93 -12.8 18.43 -4.98" style="fill:#ffa400"/><path d="m 18.33 10.43 h -1.54 c -0.48 -2.73 -2.79 -4.88 -5.68 -4.88 c -2.12 0 -3.95 1.17 -5 2.93 h -2.21 c -0.29 0 -0.48 0.2 -0.48 0.49 c 0 0.29 0.2 0.49 0.48 0.49 h 1.83 c -0.19 0.29 -0.29 0.68 -0.29 0.97 h -0.1 c -0.29 0 -0.48 0.2 -0.48 0.49 c 0 0.29 0.19 0.49 0.48 0.49 c 0 0.68 0.1 1.36 0.38 1.95 h -1.83 c -0.29 0 -0.48 0.2 -0.48 0.49 c 0 0.29 0.2 0.48 0.48 0.48 h 2.21 c 0.96 1.76 2.89 2.93 5 2.93 c 2.11 0 3.94 -1.17 5 -2.93 h 0.77 c 0.29 0 0.48 -0.2 0.48 -0.48 c 0 -0.29 -0.19 -0.49 -0.48 -0.49 h -0.38 c 0.29 -0.59 0.38 -1.27 0.38 -1.95 h 1.45 c 0.29 0 0.48 -0.2 0.48 -0.49 c 0 -0.29 -0.19 -0.49 -0.48 -0.49 m -11.64 -0.97 h 4.43 c 0.29 0 0.48 -0.2 0.48 -0.49 c 0 -0.29 -0.2 -0.49 -0.48 -0.49 h -3.85 c 0.87 -1.17 2.21 -1.95 3.85 -1.95 c 2.4 0 4.23 1.66 4.71 3.9 h -9.43 c 0.09 -0.29 0.19 -0.68 0.29 -0.97 m 4.43 6.82 c -1.64 0 -2.98 -0.78 -3.85 -1.95 h 7.7 c -0.87 1.17 -2.21 1.95 -3.85 1.95 m 4.42 -2.93 h -8.85 c -0.29 -0.59 -0.39 -1.27 -0.39 -1.95 h 9.62 c 0 0.68 -0.1 1.36 -0.39 1.95" style="fill:#fff"/></svg>