<svg xmlns="http://www.w3.org/2000/svg" viewBox="0 0 22 22"><path d="m 18.85 4.13 c 13.72 19.51 -21.98 25.72 -18.43 4.98 c 1.88 -8.24 12.93 -12.8 18.43 -4.98" style="fill:#6395ec"/><path d="m 14.46 8.47 c -1.69 0 -3.11 1.03 -3.47 2.4 c -0.36 -1.38 -1.78 -2.4 -3.56 -2.4 c -2.05 0 -3.64 1.37 -3.64 3 c 0 1.63 1.6 3 3.64 3 c 1.78 0 3.2 -1.03 3.56 -2.4 c 0.36 1.37 1.78 2.4 3.47 2.4 c 1.96 0 3.56 -1.38 3.56 -3 c 0 -1.63 -1.6 -3 -3.56 -3 m -7 5.14 c -1.51 0 -2.76 -0.94 -2.76 -2.14 c 0 -1.2 1.25 -2.14 2.76 -2.14 c 1.51 0 2.76 0.95 2.76 2.14 c 0 1.2 -1.25 2.14 -2.76 2.14 m 7 0 c -1.51 0 -2.67 -0.94 -2.67 -2.14 c 0 -1.2 1.16 -2.14 2.67 -2.14 c 1.51 0 2.67 0.95 2.67 2.14 c 0 1.2 -1.16 2.14 -2.67 2.14" style="fill:#fff"/></svg>