<svg xmlns="http://www.w3.org/2000/svg" viewBox="0 0 22 22"><path d="m 3.85 18.8 c -17.34 -22.89 30.39 -26.1 15.1 -2.78 c -3.49 5.33 -10.48 8.84 -15.1 2.78" style="fill:#297296"/><g style="fill:#fff"><path d="m 16.55 8.1 c 0 -1.75 -1.79 -3.22 -4.34 -3.86 c 1.24 0.73 2 1.84 2 2.94 c 0 2.3 -3.1 4.14 -6.98 4.14 c -0.93 0 -1.79 -0.09 -2.64 -0.28 c 1.24 0.74 3 1.2 4.96 1.2 c 1.63 0 3.18 -0.37 4.35 -0.92 c -0.23 1.66 -2.56 2.94 -5.43 2.94 c -0.7 0 -1.39 -0.09 -2 -0.27 c 1 0.55 2.33 0.92 3.88 0.92 c 0.93 0 1.79 -0.18 2.56 -0.37 c 0.08 0.18 0.16 0.37 0.16 0.55 c 0 1.2 -1.63 2.12 -3.65 2.12 c -0.46 0 -0.93 -0.09 -1.39 -0.18 c 0.62 0.46 1.55 0.73 2.56 0.73 c 2 0 3.65 -0.92 3.65 -2.11 c 0 -0.46 -0.31 -0.92 -0.78 -1.38 c 1.4 -0.55 2.33 -1.56 2.33 -2.57 c 0 -0.46 -0.15 -0.92 -0.46 -1.29 c 0.78 -0.64 1.24 -1.47 1.24 -2.3"/><path d="m 7.23 6.24 c 0 0.25 -0.17 0.46 -0.39 0.46 c -0.21 0 -0.39 -0.2 -0.39 -0.46 c 0 -0.25 0.17 -0.46 0.39 -0.46 c 0.21 0 0.39 0.21 0.39 0.46"/><path d="m 11.1 6.24 c 0 0.25 -0.18 0.46 -0.39 0.46 c -0.21 0 -0.39 -0.2 -0.39 -0.46 c 0 -0.25 0.17 -0.46 0.39 -0.46 c 0.21 0 0.39 0.21 0.39 0.46"/><path d="m 9.56 8.1 c 0 0.25 -0.17 0.46 -0.39 0.46 c -0.21 0 -0.39 -0.2 -0.39 -0.46 c 0 -0.25 0.17 -0.46 0.39 -0.46 c 0.21 0 0.39 0.21 0.39 0.46"/><path d="m 5.68 9 c 0 0.25 -0.17 0.46 -0.39 0.46 c -0.21 0 -0.39 -0.21 -0.39 -0.46 c 0 -0.25 0.18 -0.46 0.39 -0.46 c 0.21 0 0.39 0.21 0.39 0.46"/><path d="m 8 9.92 c 0 0.25 -0.18 0.46 -0.39 0.46 c -0.21 0 -0.39 -0.2 -0.39 -0.46 c 0 -0.25 0.18 -0.46 0.39 -0.46 c 0.21 0 0.39 0.21 0.39 0.46"/><path d="m 11.89 9 c 0 0.25 -0.17 0.46 -0.39 0.46 c -0.21 0 -0.39 -0.21 -0.39 -0.46 c 0 -0.25 0.17 -0.46 0.39 -0.46 c 0.21 0 0.39 0.21 0.39 0.46"/><path d="m 8 13.6 c 0 0.25 -0.18 0.46 -0.39 0.46 c -0.21 0 -0.39 -0.2 -0.39 -0.46 c 0 -0.25 0.18 -0.46 0.39 -0.46 c 0.21 0 0.39 0.21 0.39 0.46"/><path d="m 10.34 13.6 c 0 0.25 -0.18 0.46 -0.39 0.46 c -0.21 0 -0.39 -0.2 -0.39 -0.46 c 0 -0.25 0.18 -0.46 0.39 -0.46 c 0.21 0 0.39 0.21 0.39 0.46"/><path d="m 8.79 16.36 c 0 0.25 -0.18 0.46 -0.39 0.46 c -0.21 0 -0.39 -0.21 -0.39 -0.46 c 0 -0.25 0.17 -0.46 0.39 -0.46 c 0.21 0 0.39 0.21 0.39 0.46"/></g></svg>