<svg xmlns="http://www.w3.org/2000/svg" viewBox="0 0 22 22"><path d="m 18.25 3.76 c 11.16 9 -5.18 25.28 -15.1 14.89 c -9.9 -8.95 5.55 -26.3 15.1 -14.89" style="fill:#473d8b"/><g style="fill:#fff"><path d="m 7.65 7.69 c 0 0.45 -0.36 0.81 -0.79 0.81 c -0.44 0 -0.79 -0.36 -0.79 -0.81 c 0 -0.45 0.36 -0.81 0.79 -0.81 c 0.44 0 0.79 0.36 0.79 0.81"/><path d="m 15.58 7.69 c 0 0.45 -0.36 0.81 -0.79 0.81 c -0.44 0 -0.79 -0.36 -0.79 -0.81 c 0 -0.45 0.36 -0.81 0.79 -0.81 c 0.44 0 0.79 0.36 0.79 0.81"/><path d="m 11.62 9.3 c 0 0.45 -0.36 0.81 -0.79 0.81 c -0.44 0 -0.79 -0.36 -0.79 -0.81 c 0 -0.45 0.36 -0.81 0.79 -0.81 c 0.44 0 0.79 0.36 0.79 0.81"/><path d="m 11.62 13.36 c 0 0.45 -0.36 0.81 -0.79 0.81 c -0.44 0 -0.79 -0.36 -0.79 -0.81 c 0 -0.45 0.36 -0.81 0.79 -0.81 c 0.44 0 0.79 0.36 0.79 0.81"/><path d="m 7.65 11.73 c 0 0.45 -0.36 0.81 -0.79 0.81 c -0.44 0 -0.79 -0.36 -0.79 -0.81 c 0 -0.45 0.36 -0.81 0.79 -0.81 c 0.44 0 0.79 0.36 0.79 0.81"/><path d="m 15.58 11.73 c 0 0.45 -0.36 0.81 -0.79 0.81 c -0.44 0 -0.79 -0.36 -0.79 -0.81 c 0 -0.45 0.36 -0.81 0.79 -0.81 c 0.44 0 0.79 0.36 0.79 0.81"/></g><path d="m 0.5 13.5 h 15" transform="matrix(0.662 0 0 0.838 5.54 4.38)" style="fill:none;stroke-miterlimit:10;stroke:#fff;stroke-linecap:round"/></svg>