<svg xmlns="http://www.w3.org/2000/svg" viewBox="0 0 22 22"><path d="m 3.19 4.25 c 22.89 -18.32 26.1 29.3 2.78 14.95 c -5.33 -3.26 -8.84 -10.1 -2.78 -14.95" style="fill:#4c7896"/><g style="fill:#fff"><path d="m 16.24 8.38 c -0.84 0 -1.53 0.75 -1.53 1.66 c 0 0.33 0.07 0.58 0.23 0.83 h -9 c -0.23 0 -0.38 0.17 -0.38 0.41 c 0 0.25 0.15 0.42 0.38 0.42 h 10.34 c 0.84 0 1.53 -0.75 1.53 -1.66 c 0 -0.91 -0.69 -1.66 -1.53 -1.66"/><path d="m 13.94 13.36 h -8 c -0.23 0 -0.38 0.17 -0.38 0.41 c 0 0.25 0.15 0.42 0.38 0.42 h 6.74 c -0.15 0.25 -0.23 0.5 -0.23 0.83 c 0 0.91 0.69 1.66 1.54 1.66 c 0.84 0 1.53 -0.75 1.53 -1.66 c 0 -0.91 -0.69 -1.66 -1.53 -1.66"/><path d="m 5.9 9.21 h 5.74 c 0.84 0 1.54 -0.75 1.54 -1.66 c 0 -0.91 -0.69 -1.66 -1.54 -1.66 c -0.84 0 -1.53 0.75 -1.53 1.66 c 0 0.33 0.08 0.58 0.23 0.83 h -4.44 c -0.23 0 -0.38 0.17 -0.38 0.41 c 0 0.25 0.15 0.42 0.38 0.42"/></g></svg>