<svg xmlns="http://www.w3.org/2000/svg" viewBox="0 0 22 22"><path d="m 9.37 0.4 c -11.36 1.68 -12.7 18.45 -1.92 20.98 c 8.7 2.61 16.51 -6.84 14 -13.9 c -1.09 -4.73 -6.46 -8.55 -12.1 -7.09" style="fill:#4b4d6f"/><g transform="matrix(0.733 0 0 0.771 5.08 4.96)" style="fill:none;stroke-miterlimit:10;stroke:#fff;stroke-linecap:round"><path d="m 0.5 12.5 c 1.1 0.6 2.3 1 3.5 1 c 1.4 0 2.8 -0.4 4 -1 c 1.3 -0.6 2.6 -0.9 4 -1 c 1.4 0 1.7 0.4 3.5 1"/><path d="m 0.5 9.5 c 1.1 0.6 2.3 1 3.5 1 c 1.4 0 2.8 -0.4 4 -1 c 1.3 -0.6 2.6 -0.9 4 -1 c 1.4 0 1.7 0.4 3.5 1"/><path d="m 0.5 6.5 c 1.1 0.6 2.3 1 3.5 1 c 1.4 0 2.8 -0.4 4 -1 c 1.2 -0.6 2.6 -1 4 -1 c 1.4 0 1.7 0.4 3.5 1"/><path d="m 0.5 3.5 c 1.1 0.6 2.3 1 3.5 1 c 1.4 0 2.8 -0.4 4 -1 c 1.2 -0.6 2.6 -1 4 -1 c 1.5 0.1 1.7 0.4 3.5 1"/></g></svg>