<svg xmlns="http://www.w3.org/2000/svg" viewBox="0 0 22 22"><path d="m 20.39 5.45 c -16.62 -19.24 -32.61 20.32 -6.9 16.26 c 5.64 -0.89 11.38 -11.1 6.9 -16.26" style="fill:#008b8b"/><g style="fill:#fff"><path d="m 13.97 8.56 c -1.55 0 -2.86 0.99 -3.19 2.31 c -0.33 -1.32 -1.64 -2.31 -3.27 -2.31 c -1.88 0 -3.35 1.32 -3.35 2.89 c 0 1.57 1.47 2.89 3.35 2.89 c 1.64 0 2.95 -0.99 3.27 -2.32 c 0.33 1.32 1.64 2.32 3.19 2.32 c 1.8 0 3.27 -1.32 3.27 -2.89 c 0 -1.57 -1.47 -2.89 -3.27 -2.89 m -6.46 4.96 c -1.39 0 -2.54 -0.91 -2.54 -2.07 c 0 -1.16 1.15 -2.07 2.54 -2.07 c 1.39 0 2.54 0.91 2.54 2.07 c 0 1.16 -1.15 2.07 -2.54 2.07 m 6.46 0 c -1.39 0 -2.45 -0.91 -2.45 -2.07 c 0 -1.16 1.07 -2.07 2.45 -2.07 c 1.39 0 2.46 0.91 2.46 2.07 c 0 1.16 -1.07 2.07 -2.46 2.07"/><path d="m 7.43 6.91 c 0 0.45 -0.37 0.82 -0.82 0.82 c -0.45 0 -0.82 -0.37 -0.82 -0.82 c 0 -0.46 0.37 -0.83 0.82 -0.83 c 0.45 0 0.82 0.37 0.82 0.83"/><path d="m 15.61 6.91 c 0 0.45 -0.37 0.82 -0.82 0.82 c -0.45 0 -0.82 -0.37 -0.82 -0.82 c 0 -0.46 0.37 -0.83 0.82 -0.83 c 0.45 0 0.82 0.37 0.82 0.83"/><path d="m 7.43 16 c 0 0.46 -0.37 0.83 -0.82 0.83 c -0.45 0 -0.82 -0.37 -0.82 -0.83 c 0 -0.46 0.37 -0.83 0.82 -0.83 c 0.45 0 0.82 0.37 0.82 0.83"/><path d="m 15.61 16 c 0 0.46 -0.37 0.83 -0.82 0.83 c -0.45 0 -0.82 -0.37 -0.82 -0.83 c 0 -0.46 0.37 -0.83 0.82 -0.83 c 0.45 0 0.82 0.37 0.82 0.83"/></g></svg>