<svg xmlns="http://www.w3.org/2000/svg" viewBox="0 0 22 22"><path d="m 20.39 5.45 c -16.62 -19.24 -32.61 20.32 -6.9 16.26 c 5.64 -0.89 11.38 -11.1 6.9 -16.26" style="fill:#707f8f"/><g style="fill:#fff"><path d="m 13.96 8.99 c -1.51 0 -2.78 0.82 -3.1 1.88 c -0.32 -1.06 -1.59 -1.88 -3.18 -1.88 c -1.83 0 -3.26 1.06 -3.26 2.45 c 0 1.39 1.43 2.45 3.26 2.45 c 1.59 0 2.86 -0.82 3.18 -1.88 c 0.32 1.06 1.59 1.88 3.1 1.88 c 1.75 0 3.18 -1.06 3.18 -2.45 c 0 -1.39 -1.43 -2.45 -3.18 -2.45 m -6.27 4.07 c -1.35 0 -2.46 -0.73 -2.46 -1.63 c 0 -0.9 1.11 -1.63 2.46 -1.63 c 1.35 0 2.46 0.73 2.46 1.63 c 0 0.89 -1.11 1.63 -2.46 1.63 m 6.27 0 c -1.27 0 -2.38 -0.73 -2.38 -1.63 c 0 -0.9 1.11 -1.63 2.38 -1.63 c 1.27 0 2.38 0.73 2.38 1.63 c 0 0.89 -1.11 1.63 -2.38 1.63"/><path d="m 6.82 6.54 c 0 0.45 -0.36 0.82 -0.79 0.82 c -0.44 0 -0.8 -0.37 -0.8 -0.82 c 0 -0.45 0.36 -0.82 0.8 -0.82 c 0.44 0 0.79 0.37 0.79 0.82"/><path d="m 16.35 6.54 c 0 0.45 -0.36 0.82 -0.79 0.82 c -0.44 0 -0.79 -0.37 -0.79 -0.82 c 0 -0.45 0.36 -0.82 0.79 -0.82 c 0.44 0 0.79 0.37 0.79 0.82"/><path d="m 6.82 16.32 c 0 0.45 -0.36 0.82 -0.79 0.82 c -0.44 0 -0.8 -0.37 -0.8 -0.82 c 0 -0.45 0.36 -0.82 0.8 -0.82 c 0.44 0 0.79 0.37 0.79 0.82"/><path d="m 16.35 16.32 c 0 0.45 -0.36 0.82 -0.79 0.82 c -0.44 0 -0.79 -0.37 -0.79 -0.82 c 0 -0.45 0.36 -0.82 0.79 -0.82 c 0.44 0 0.79 0.37 0.79 0.82"/><path d="m 9.99 15.51 c 0 0.45 -0.36 0.82 -0.79 0.82 c -0.44 0 -0.79 -0.36 -0.79 -0.82 c 0 -0.45 0.36 -0.81 0.79 -0.81 c 0.44 0 0.79 0.36 0.79 0.81"/><path d="m 13.17 15.51 c 0 0.45 -0.36 0.82 -0.79 0.82 c -0.44 0 -0.8 -0.36 -0.8 -0.82 c 0 -0.45 0.36 -0.81 0.8 -0.81 c 0.44 0 0.79 0.36 0.79 0.81"/><path d="m 9.99 7.36 c 0 0.45 -0.36 0.81 -0.79 0.81 c -0.44 0 -0.79 -0.36 -0.79 -0.81 c 0 -0.45 0.36 -0.82 0.79 -0.82 c 0.44 0 0.79 0.36 0.79 0.82"/><path d="m 13.17 7.36 c 0 0.45 -0.36 0.81 -0.79 0.81 c -0.44 0 -0.8 -0.36 -0.8 -0.81 c 0 -0.45 0.36 -0.82 0.8 -0.82 c 0.44 0 0.79 0.36 0.79 0.82"/></g></svg>