<svg xmlns="http://www.w3.org/2000/svg" viewBox="0 0 22 22"><path d="m 2.79 5.77 c -7.78 8.79 3.74 18.1 10.48 15.8 c 6.75 -2.29 11.28 -8.74 6.87 -14.4 c -4.41 -5.66 -8.74 -11.12 -16.52 -2.33" style="fill:#ff8c00"/><path d="m 12.92 12.25 v -5.84 c 0 -0.99 -0.88 -1.8 -1.95 -1.8 c -1.07 0 -1.95 0.81 -1.95 1.8 v 5.84 c -1.17 0.63 -1.95 1.8 -1.95 3.14 c 0 1.97 1.75 3.59 3.89 3.59 c 2.14 0 3.89 -1.62 3.89 -3.59 c 0 -1.26 -0.78 -2.43 -1.95 -3.14 m -1.95 5.84 c -1.56 0 -2.92 -1.26 -2.92 -2.69 c 0 -1.08 0.68 -1.98 1.66 -2.52 c 0.1 0 0.2 -0.09 0.29 -0.18 v -5.39 h 1.95 v 5.39 c 0 0.09 0.1 0.18 0.2 0.18 c 1.07 0.54 1.75 1.44 1.75 2.52 c 0 1.43 -1.36 2.69 -2.92 2.69" style="fill:#fff"/><g transform="matrix(0.973 0 0 0.898 3.19 4.61)" style="fill:none;stroke-miterlimit:10;stroke:#fff;stroke-linecap:round"><path d="m 3 4.5 h 1.5"/><path d="m 3.5 6.5 h 1"/><path d="m 2.5 2.5 h 2"/></g></svg>