<svg xmlns="http://www.w3.org/2000/svg" viewBox="0 0 22 22"><path d="m 18.23 18.27 c -9 11.1 -25.3 -5.16 -14.88 -14.98 c 8.95 -9.85 26.3 5.52 14.88 14.98" style="fill:#ee6708"/><path d="m 10.88 3.14 c -4.44 0 -8 3.57 -8 7.98 c 0 4.41 3.6 7.98 8 7.98 c 4.44 0 8 -3.57 8 -7.98 c 0 -4.41 -3.6 -7.98 -8 -7.98 m 0 0.59 c 4.11 0 7.43 3.3 7.43 7.38 c 0 4.07 -3.33 7.38 -7.43 7.38 c -4.11 0 -7.43 -3.3 -7.43 -7.38 c 0 -4.08 3.33 -7.38 7.43 -7.38 m 0 1.43 c -0.05 0 -0.11 0 -0.16 0 c -0.96 0.02 -1.88 0.28 -2.67 0.71 c -0.09 0.05 -0.18 0.1 -0.27 0.15 c -1.66 1.01 -2.79 2.81 -2.84 4.88 c -0.01 0.05 -0.01 0.1 -0.01 0.15 c 0 0.05 0 0.11 0.01 0.16 c 0.02 0.96 0.28 1.88 0.72 2.67 c 0.05 0.09 0.1 0.18 0.16 0.26 c 0.23 0.38 0.51 0.73 0.83 1.05 l 1.35 -1.34 c -0.71 -0.72 -1.15 -1.71 -1.15 -2.8 c 0 -2.21 1.8 -4 4 -4 c 0.88 0 1.7 0.29 2.36 0.77 c 0.05 0.04 0.11 0.08 0.16 0.13 l 1.35 -1.35 c -0.24 -0.21 -0.5 -0.4 -0.78 -0.57 c -0.08 -0.05 -0.17 -0.1 -0.27 -0.15 c -0.79 -0.43 -1.71 -0.69 -2.67 -0.71 c -0.05 0 -0.1 0 -0.15 0 m 4.54 2.09 l -1.36 1.35 c 0.02 0.02 0.04 0.04 0.05 0.06 c 0.22 0.29 0.4 0.62 0.54 0.97 l 1.84 -0.49 c -0.11 -0.32 -0.25 -0.62 -0.41 -0.91 c -0.05 -0.09 -0.1 -0.18 -0.16 -0.26 c -0.16 -0.25 -0.33 -0.49 -0.52 -0.71 m 1.31 2.79 l -1.85 0.49 c 0.02 0.17 0.04 0.34 0.04 0.52 c 0 0.22 -0.02 0.44 -0.05 0.65 l 1.85 0.49 c 0.07 -0.33 0.11 -0.67 0.11 -1.01 c 0 -0.04 0 -0.09 0 -0.13 c 0 -0.05 0 -0.11 0 -0.17 c -0.01 -0.29 -0.04 -0.57 -0.09 -0.84 m -5.86 0.23 c -0.53 0 -0.93 0.47 -0.84 0.98 c 0.07 0.4 0.43 0.7 0.83 0.7 c 0.14 0 0.27 -0.03 0.39 -0.09 l 2.48 1.76 c 0.05 0.04 0.13 0.03 0.17 -0.02 c 0.05 -0.05 0.04 -0.13 -0.01 -0.17 l -2.21 -2.09 c 0.04 -0.12 0.05 -0.25 0.02 -0.38 c -0.07 -0.4 -0.43 -0.7 -0.84 -0.69 m 0.01 0.54 c 0.07 0 0.13 0.03 0.19 0.07 c 0.06 0.05 0.1 0.12 0.11 0.21 c 0.01 0.17 -0.11 0.32 -0.28 0.33 c -0.09 0.01 -0.16 -0.02 -0.22 -0.07 c -0.06 -0.05 -0.11 -0.12 -0.11 -0.21 c -0.02 -0.17 0.11 -0.32 0.28 -0.33 c 0.01 0 0.02 0 0.04 0 m 3.73 1.79 c -0.2 0.47 -0.49 0.89 -0.84 1.25 l 1.35 1.34 c 0.32 -0.33 0.61 -0.69 0.84 -1.08 c 0.05 -0.09 0.11 -0.17 0.16 -0.26 c 0.13 -0.25 0.25 -0.5 0.34 -0.76" style="fill:#fff"/></svg>