<svg xmlns="http://www.w3.org/2000/svg" viewBox="0 0 22 22"><path d="m 11 0.27 c 14.52 -1.65 14.31 21.99 -0.26 21.71 c -13.55 0.78 -14.77 -23 0.26 -21.71" style="fill:#7a68ed"/><path d="m 10.95 4.82 c -1.31 0.01 -2.38 1.17 -2.38 2.61 v 3.87 h 4.76 v -3.87 c 0 -1.44 -1.07 -2.6 -2.38 -2.61 m 3.81 0.89 c -0.12 0 -0.21 0.11 -0.21 0.23 v 5.15 c 0 0.13 0.09 0.23 0.21 0.23 h 0.01 c 0.12 0 0.21 -0.1 0.21 -0.23 v -5.15 c 0 -0.13 -0.09 -0.23 -0.21 -0.23 m -4.38 0.39 c 0.18 0 0.34 0.16 0.34 0.37 c 0 0.2 -0.15 0.37 -0.34 0.37 c -0.18 0 -0.34 -0.16 -0.34 -0.37 c 0 -0.2 0.15 -0.37 0.34 -0.37 m 1.11 0 c 0.18 0 0.34 0.16 0.34 0.37 c 0 0.2 -0.15 0.37 -0.34 0.37 c -0.18 0 -0.34 -0.16 -0.34 -0.37 c 0 -0.2 0.15 -0.37 0.34 -0.37 m 3.96 0.59 c -0.12 0 -0.21 0.11 -0.21 0.23 v 3.26 c 0 0.13 0.09 0.24 0.21 0.24 h 0.02 c 0.12 0 0.22 -0.11 0.22 -0.24 v -3.26 c 0 -0.13 -0.1 -0.23 -0.22 -0.23 m -8.5 0.09 c 0 0 -0.01 0 -0.02 0 c -0.08 -0.01 -0.16 0.04 -0.18 0.15 l -0.65 2.95 l -0.39 -1.97 c -0.02 -0.1 -0.09 -0.14 -0.16 -0.14 c -0.07 -0.02 -0.15 0 -0.2 0.1 l -0.58 1.23 l -0.2 -0.5 c -0.04 -0.1 -0.11 -0.13 -0.18 -0.11 h -0.52 c -0.25 0 -0.25 0.42 0 0.42 h 0.41 l 0.31 0.78 c 0.04 0.09 0.11 0.12 0.18 0.11 c 0.06 0 0.12 -0.03 0.16 -0.11 l 0.52 -1.11 l 0.46 2.29 c 0.02 0.11 0.1 0.15 0.18 0.15 c 0.09 0.01 0.16 -0.03 0.19 -0.15 l 0.64 -2.93 l 0.15 0.81 c 0.02 0.09 0.07 0.14 0.14 0.15 c 0.02 0.01 0.03 0.01 0.05 0.01 h 0.67 c 0.25 0 0.25 -0.42 0 -0.42 h -0.52 l -0.29 -1.56 c -0.02 -0.1 -0.09 -0.15 -0.17 -0.15 m 2.3 0.45 c 0.18 0 0.34 0.16 0.34 0.37 c 0 0.2 -0.15 0.37 -0.34 0.37 c -0.18 0 -0.34 -0.16 -0.34 -0.37 c 0 -0.2 0.15 -0.37 0.34 -0.37 m 1.11 0 c 0.18 0 0.34 0.16 0.34 0.37 c 0 0.2 -0.15 0.37 -0.34 0.37 c -0.18 0 -0.34 -0.16 -0.34 -0.37 c 0 -0.2 0.15 -0.37 0.34 -0.37 m 1.11 0 c 0.18 0 0.34 0.16 0.34 0.37 c 0 0.2 -0.15 0.37 -0.34 0.37 c -0.18 0 -0.34 -0.16 -0.34 -0.37 c 0 -0.2 0.15 -0.37 0.34 -0.37 m 1.11 0 c 0.18 0 0.34 0.16 0.34 0.37 c 0 0.2 -0.15 0.37 -0.34 0.37 c -0.18 0 -0.34 -0.16 -0.34 -0.37 c 0 -0.2 0.15 -0.37 0.34 -0.37 m 1.43 0.23 c -0.12 0 -0.21 0.11 -0.21 0.23 v 1.62 c 0 0.13 0.09 0.23 0.21 0.23 h 0.02 c 0.12 0 0.22 -0.1 0.22 -0.23 v -1.62 c 0 -0.13 -0.1 -0.23 -0.22 -0.23 m 2.81 0.02 c -0.12 0 -0.21 0.1 -0.21 0.23 v 1.62 c 0 0.13 0.09 0.23 0.21 0.23 h 0.02 c 0.12 0 0.22 -0.11 0.22 -0.23 v -1.62 c 0 -0.13 -0.1 -0.23 -0.22 -0.23 m -0.72 0.32 c -0.12 0 -0.22 0.11 -0.22 0.23 v 1.02 c 0 0.13 0.1 0.24 0.22 0.24 h 0.02 c 0.12 0 0.21 -0.11 0.21 -0.24 v -1.02 c 0 -0.13 -0.09 -0.23 -0.21 -0.23 m 1.39 0.38 c -0.11 0 -0.2 0.11 -0.2 0.23 v 0.18 c 0 0.13 0.09 0.24 0.21 0.24 h 0.02 c 0.12 0 0.21 -0.11 0.21 -0.24 v -0.18 c 0 -0.13 -0.1 -0.23 -0.21 -0.23 h -0.02 c 0 0 -0.01 0 -0.01 0 m -8.29 0.24 c 0.18 0 0.34 0.16 0.34 0.37 c 0 0.2 -0.15 0.37 -0.34 0.37 c -0.18 0 -0.34 -0.16 -0.34 -0.37 c 0 -0.2 0.15 -0.37 0.34 -0.37 m 1.11 0 c 0.18 0 0.34 0.16 0.34 0.37 c 0 0.2 -0.15 0.37 -0.34 0.37 c -0.18 0 -0.34 -0.16 -0.34 -0.37 c 0 -0.2 0.15 -0.37 0.34 -0.37 m 1.11 0 c 0.18 0 0.34 0.16 0.34 0.37 c 0 0.2 -0.15 0.37 -0.34 0.37 c -0.18 0 -0.34 -0.16 -0.34 -0.37 c 0 -0.2 0.15 -0.37 0.34 -0.37 m 1.11 0 c 0.18 0 0.34 0.16 0.34 0.37 c 0 0.2 -0.15 0.37 -0.34 0.37 c -0.18 0 -0.34 -0.16 -0.34 -0.37 c 0 -0.2 0.15 -0.37 0.34 -0.37 m -3.34 1.23 c 0.18 0 0.34 0.16 0.34 0.37 c 0 0.2 -0.15 0.38 -0.34 0.38 c -0.18 0 -0.34 -0.16 -0.34 -0.38 c 0 -0.2 0.15 -0.37 0.34 -0.37 m 1.11 0 c 0.18 0 0.34 0.16 0.34 0.37 c 0 0.2 -0.15 0.38 -0.34 0.38 c -0.18 0 -0.34 -0.16 -0.34 -0.38 c 0 -0.2 0.15 -0.37 0.34 -0.37 m 1.11 0 c 0.18 0 0.34 0.16 0.34 0.37 c 0 0.2 -0.15 0.38 -0.34 0.38 c -0.18 0 -0.34 -0.16 -0.34 -0.38 c 0 -0.2 0.15 -0.37 0.34 -0.37 m 1.11 0 c 0.18 0 0.34 0.16 0.34 0.37 c 0 0.2 -0.15 0.38 -0.34 0.38 c -0.18 0 -0.34 -0.16 -0.34 -0.38 c 0 -0.2 0.15 -0.37 0.34 -0.37 m -4.95 1.98 v 0.89 c 0 1.7 1.18 3.09 2.8 3.28 v 1.52 c -1.24 0.07 -2.19 0.44 -2.19 0.89 h 5.23 c 0 -0.45 -0.95 -0.82 -2.19 -0.89 v -1.54 c 1.58 -0.24 2.8 -1.61 2.8 -3.27 v -0.9 m -5.95 0.01 h 5.43 v 0.72 c 0 1.66 -1.27 2.91 -2.77 2.92 c -1.5 -0.01 -2.66 -1.25 -2.66 -2.92 m 0.39 -0.63 v 0.62 c 0 1.44 1.07 2.6 2.38 2.61 c 1.31 -0.01 2.38 -1.17 2.38 -2.61 v -0.62" style="fill:#fff"/></svg>