<svg xmlns="http://www.w3.org/2000/svg" viewBox="0 0 22 22"><path d="m 18.21 3.85 c 11.1 8.95 -5.16 25.1 -14.98 14.77 c -9.85 -8.87 5.52 -26.1 14.98 -14.77" style="fill:#084670"/><path d="m 10.91 3.14 c -4.43 0 -8 3.57 -8 7.98 c 0 4.41 3.59 7.98 8 7.98 c 4.42 0 8 -3.57 8 -7.98 c 0 -4.41 -3.59 -7.98 -8 -7.98 m 0 0.6 c 4.09 0 7.41 3.3 7.41 7.38 c 0 4.07 -3.32 7.38 -7.41 7.38 c -4.09 0 -7.41 -3.3 -7.41 -7.38 c 0 -4.08 3.32 -7.38 7.41 -7.38 m 0 1.43 c -0.05 0 -0.1 0 -0.15 0 c -0.96 0.02 -1.87 0.28 -2.67 0.71 c -0.09 0.05 -0.18 0.1 -0.26 0.15 c -1.66 1.01 -2.78 2.81 -2.83 4.87 c 0 0.05 0 0.1 0 0.15 c 0 0.05 0 0.1 0 0.15 c 0.02 0.96 0.28 1.88 0.72 2.67 c 0.05 0.09 0.1 0.18 0.15 0.26 c 0.23 0.38 0.51 0.73 0.82 1.04 l 1.34 -1.34 c -0.71 -0.72 -1.14 -1.71 -1.14 -2.8 c 0 -2.21 1.8 -4 4 -4 c 0.88 0 1.7 0.28 2.36 0.76 c 0.05 0.04 0.1 0.08 0.15 0.13 l 1.36 -1.35 c -0.25 -0.21 -0.5 -0.4 -0.78 -0.57 c -0.09 -0.05 -0.18 -0.11 -0.26 -0.15 c -0.8 -0.43 -1.7 -0.69 -2.67 -0.71 c -0.05 0 -0.1 0 -0.15 0 m -0.02 1.95 c -0.07 0 -0.12 0.05 -0.13 0.12 l -0.2 3 c -0.12 0.05 -0.22 0.13 -0.31 0.23 c -0.26 0.31 -0.26 0.77 0 1.09 c 0.34 0.4 0.95 0.4 1.3 0 c 0.27 -0.31 0.27 -0.77 0.01 -1.08 c -0.09 -0.11 -0.2 -0.19 -0.32 -0.24 l -0.23 -3 c -0.01 -0.07 -0.06 -0.12 -0.13 -0.12 m 4.53 0.15 l -1.35 1.35 c 0.02 0.02 0.04 0.04 0.05 0.06 c 0.22 0.29 0.4 0.62 0.54 0.97 l 1.84 -0.49 c -0.11 -0.32 -0.25 -0.62 -0.41 -0.91 c -0.05 -0.09 -0.1 -0.18 -0.15 -0.26 c -0.15 -0.25 -0.33 -0.48 -0.52 -0.71 m 1.31 2.78 l -1.84 0.49 c 0.02 0.17 0.03 0.34 0.03 0.52 c 0 0.22 -0.02 0.44 -0.05 0.65 l 1.84 0.49 c 0.07 -0.32 0.11 -0.66 0.11 -1 c 0 -0.04 0 -0.09 0 -0.13 c 0 -0.05 0 -0.11 0 -0.17 c -0.01 -0.29 -0.04 -0.57 -0.09 -0.84 m -5.82 0.68 c 0.08 0 0.16 0.03 0.21 0.09 c 0.06 0.06 0.09 0.14 0.09 0.21 c 0 0.08 -0.03 0.16 -0.09 0.22 c -0.12 0.12 -0.32 0.12 -0.43 0 c -0.06 -0.06 -0.09 -0.14 -0.09 -0.21 c 0 -0.08 0.03 -0.16 0.09 -0.22 c 0.06 -0.06 0.14 -0.09 0.22 -0.09 m 3.7 1.88 c -0.2 0.47 -0.48 0.89 -0.83 1.25 l 1.34 1.34 c 0.32 -0.32 0.61 -0.69 0.84 -1.08 c 0.05 -0.09 0.1 -0.17 0.15 -0.26 c 0.13 -0.24 0.25 -0.5 0.34 -0.76" style="fill:#fff;fill-opacity:0.5"/></svg>