<svg xmlns="http://www.w3.org/2000/svg" viewBox="0 0 22 22"><path d="m 0.17 11.13 c -1.65 14.52 21.99 14.31 21.71 -0.26 c 0.78 -13.55 -23 -14.77 -21.71 0.26" style="fill:#105331"/><g style="fill:#fff"><path d="m 3.21 3.86 c -1.06 0 -1.91 0.85 -1.91 1.91 v 8.58 c 0 1.06 0.85 1.91 1.91 1.91 h 5.99 v 2 h -2.71 c -0.27 0 -0.49 0.02 -0.49 0.3 c 0 0.28 0.22 0.29 0.49 0.3 h 9 c 0.27 0 0.49 -0.02 0.49 -0.3 c 0 -0.28 -0.22 -0.31 -0.49 -0.3 h -2.71 v -2 h 5.99 c 1.06 0 1.91 -0.85 1.91 -1.91 v -8.58 c 0 -1.06 -0.85 -1.91 -1.91 -1.91 m -15.56 0.5 h 15.54 c 0.79 0 1.43 0.64 1.43 1.43 v 8.54 c 0 0.79 -0.64 1.43 -1.43 1.43 h -15.54 c -0.79 0 -1.43 -0.64 -1.43 -1.43 v -8.54 c 0 -0.79 0.64 -1.43 1.43 -1.43 m 6.57 11.92 h 2.4 v 2 h -2.4" transform="matrix(0.661 0 0 0.68 3.66 4.05)" style="stroke:#fff"/><path d="m 8.69 10.78 c 0.26 0 0.52 0 0.79 0 v -0.64 c 0 -0.71 -0.02 -0.79 -0.27 -0.89 c -0.18 -0.07 -0.41 -0.05 -0.59 0.03 c -0.25 0.12 -0.27 0.02 -0.28 1.09 l -0.02 1.14 c -0.5 0 -0.87 -0.02 -1.37 -0.02 l 0.01 -1.14 c 0 -0.52 -0.05 -0.99 0.17 -1.46 c 0.48 -0.92 1.25 -1.16 2.04 -1.1 c 0.6 0.07 1.04 0.3 1.39 0.73 c 0.34 0.41 0.43 0.78 0.43 1.71 v 0.55 c 1.1 0 2.2 0 3.3 0 c 0 0.96 0 1.92 0 2.88 c -1.87 0 -3.74 0 -5.61 0 c 0 -1 0 -1.85 0 -2.88"/></g></svg>