<svg xmlns="http://www.w3.org/2000/svg" viewBox="0 0 22 22"><path d="m 20.1 5.82 c 5.92 7.91 -3.55 17.55 -11.18 15.88 c -7.51 -0.98 -12 -12.41 -6.24 -18.21 c 4.25 -4.18 11.5 -5.57 17.42 2.33" style="fill:#2699f2"/><path d="m 10.54 3.94 c -3.77 0 -6.82 3 -6.82 6.78 c 0 3.74 3.05 6.77 6.82 6.77 c 1.23 0 2.45 -0.34 3.51 -0.98 c -0.07 -0.23 -0.1 -0.47 -0.1 -0.71 c 0 -1.41 1.14 -2.54 2.55 -2.54 c 0.11 0 0.22 0.01 0.33 0.02 c 0.34 -0.81 0.52 -1.68 0.52 -2.56 c 0 -3.75 -3.05 -6.78 -6.81 -6.78 m -2.67 4.23 c 0.16 0 0.39 0.01 0.79 0.03 c 1.56 0.09 1.88 0.09 2.78 0.03 c 1.11 -0.07 2.17 -0.07 2.48 0 c 0.63 0.14 1.2 0.63 1.52 1.29 c 0.18 0.36 0.23 0.65 0.21 1.09 c -0.02 0.37 -0.09 0.71 -0.2 0.98 c -0.18 0.43 -0.61 0.93 -0.96 1.11 c -0.41 0.21 -1.09 0.38 -1.93 0.48 c -0.45 0.06 -2.83 0.09 -3.52 0.04 c -0.68 -0.04 -1.55 -0.18 -1.97 -0.32 c -0.62 -0.2 -1.02 -0.55 -1.34 -1.16 c -0.2 -0.39 -0.26 -0.65 -0.28 -1.16 c -0.02 -0.36 -0.01 -0.44 0.05 -0.66 c 0.11 -0.43 0.31 -0.78 0.66 -1.14 c 0.34 -0.35 0.71 -0.52 1.32 -0.6 c 0.14 -0.02 0.24 -0.03 0.4 -0.03 m 0.54 0.85 c -0.7 0 -1.28 0.76 -1.28 1.7 c 0 0.93 0.57 1.69 1.28 1.69 c 0.71 0 1.28 -0.76 1.28 -1.69 c 0 -0.94 -0.57 -1.7 -1.28 -1.7 m 4.26 0 c -0.71 0 -1.28 0.76 -1.28 1.7 c 0 0.93 0.57 1.69 1.28 1.69 c 0.7 0 1.28 -0.76 1.28 -1.69 c 0 -0.94 -0.57 -1.7 -1.28 -1.7" style="fill:#fff"/><path d="m 18.21 15.8 c 0 0.93 -0.76 1.69 -1.7 1.69 c -0.94 0 -1.7 -0.76 -1.7 -1.69 c 0 -0.94 0.76 -1.7 1.7 -1.7 c 0.94 0 1.7 0.76 1.7 1.7" style="fill:#ff4500"/></svg>