<svg xmlns="http://www.w3.org/2000/svg" viewBox="0 0 22 22"><path d="m 2.36 16.41 c 15.82 20.1 31.82 -21.86 6 -15.62 c -6.42 1.56 -11.39 8.82 -6 15.62" style="fill:#696969"/><path d="m 11.52 14.52 c -0.35 -1.23 -0.72 -2.57 -0.82 -2.98 c -0.25 -0.98 -0.58 -0.75 -0.98 0.7 c -0.58 2.09 -1.69 2.36 -2.15 0.5 c -0.84 -3.39 -0.26 -0.73 -1.74 -0.69 l -2.55 0.07 l -0.12 -1.22 c -0.07 -0.72 0.92 -0.38 1.57 -0.38 c 0.61 0 0.87 -0.23 1.33 -1.2 c 0.73 -1.54 1.41 -2.04 1.7 -0.96 c 0.4 1.49 0.47 2.89 0.97 2.27 c 0.05 -0.07 0.58 -2.22 0.82 -3 c 0.24 -0.81 0.52 -1.92 0.78 -2.07 c 0.96 -0.55 1.05 -0.2 1.88 2.98 c 0.45 1.73 1.06 5.09 1.21 5.09 c 0.15 0 0.86 -2.18 0.86 -2.41 c 0 -0.53 0.8 -0.68 2.31 -0.68 c 0.82 0 1.53 0.12 1.53 0.38 c 0 0.9 -0.04 1.25 -1.72 1.25 c -1 0 -1.01 0.01 -1.79 2.31 c -0.73 2.18 -0.82 2.31 -1.61 2.31 c -0.8 0 -0.87 -0.11 -1.48 -2.24" style="fill:#fff"/></svg>