<svg xmlns="http://www.w3.org/2000/svg" viewBox="0 0 22 22"><path d="m 4.54 19.36 c 16.54 12.27 26.73 -22 5.35 -19 c -8.84 1.3 -14.2 13.29 -5.35 19" style="fill:#ff8c00"/><path d="m 8 5 l -2.58 3.17 h 5.16 v -3.17 m 1.04 0 v 3.17 h 5.16 l -2.58 -3.17 m -8.78 4.22 v 7.39 h 6.54 c 1.49 -0.08 3.21 -0.02 4.77 -0.03 c 0 0 0.02 -2.44 0.05 -4.36 v -3 h -11.36" style="fill:#fff"/><path d="m 11 16.2 l -1.1 -2.05 l -2.08 -1.09 l 2.08 -1.08 l 1.11 -2.05 l 1.1 2.05 l 2.07 1.09 l -2.08 1.09" style="fill:#ff8c00"/></svg>