<svg xmlns="http://www.w3.org/2000/svg" viewBox="0 0 22 22"><path d="m 2.79 16.33 c -7.78 -8.86 3.74 -18.23 10.48 -15.93 c 6.75 2.3 11.28 8.81 6.87 14.51 c -4.41 5.7 -8.74 11.21 -16.52 2.35" style="fill:#ff8c00"/><g style="fill:#fff"><path d="m 7.68 14.36 v 1.97 l 3.21 2.19 l 3.21 -2.19 v -1.97 l -3.21 -1.26"/><path d="m 10.88 4 l -4.99 2 l -2.33 5.25 l 0.42 0.43 l 3.99 -2.46 l -3.43 3.09 l 1.47 1.53 l 4.16 -1.83 l 0.1 -1.99 l -2.11 -2.49 h 5.43 l -2.1 2.49 l 0.1 1.99 l 4.16 1.83 l 1.47 -1.53 l -3.43 -3.09 l 3.99 2.46 l 0.42 -0.43 l -2.33 -5.25"/></g></svg>