<svg xmlns="http://www.w3.org/2000/svg" viewBox="0 0 22 22"><path d="m 20.98 16.2 c -4.33 10.32 -21.1 5.72 -20.98 -5.52 c -0.17 -10.22 13.16 -14.1 19 -6.82 c 2.92 3.15 3.95 8.37 1.99 12.35"/><path d="m 18.1 10.96 c 0 3.8 -3.16 6.87 -7.1 6.87 c -3.9 0 -7.1 -3.08 -7.1 -6.87 c 0 -3.8 3.16 -6.88 7.1 -6.88 c 3.9 0 7.1 3.08 7.1 6.88" style="fill:#696969"/><g style="fill:#fff"><path d="m 2.89 9.1 l -0.32 -1.67 l -1.16 -0.61 l 1.16 -0.46 l 0.43 -1.66 l 0.32 1.67 l 1.16 0.61 l -1.17 0.46"/><path d="m 19.75 10.89 l -0.35 -0.84 l -0.7 -0.46 l 0.72 -0.41 l 0.4 -0.81 l 0.35 0.84 l 0.7 0.47 l -0.72 0.41"/><path d="m 14.53 20.76 l -0.22 -0.84 l -0.66 -0.41 l 0.64 -0.29 l 0.31 -0.87 l 0.21 0.84 l 0.66 0.41 l -0.64 0.29"/></g><path d="m 11.16 10.96 v -6.83 l 0.34 0.03 c 2.72 0.21 5.18 2 6.13 4.46 c 0.58 1.5 0.58 3.17 0.01 4.66 c -0.81 2.13 -2.71 3.76 -5.1 4.33 c -0.36 0.09 -0.97 0.18 -1.21 0.18 h -0.21 v -6.83" style="fill:#a9a9a9"/><path d="m 99.6 203.2 c -14.82 1.09 -23.95 -15 -19.73 -31.45 c 4.05 -10.86 8.09 -14.41 20 -19.1 c -3 -12.32 0.77 -22.73 9.86 -26.73 c 7.36 -3.5 17 -3.5 23.45 -0.05 c 2.91 1.59 3.45 4.18 6.14 3.18 c 3.45 -8.86 10.55 -20.86 32.2 -20.77 c 12.18 -0.86 25.3 11 28.2 20.77 c 2.95 9.5 5.41 -0.27 15.86 2.64 c 27.95 3.91 29.1 41.68 5.91 48.86 c -0.91 13.82 -5.64 19.1 -14.1 21.77 c -32.68 8 -36.91 -12.1 -52.59 -8.86 c -6.14 2.77 -16.59 14.41 -38.59 3.32" transform="scale(0.086)" style="fill:#fff;stroke:#696969;stroke-width:2.13"/></svg>