<svg xmlns="http://www.w3.org/2000/svg" viewBox="0 0 48 48"><path d="m 0.61 29.49 c 9.37 44.98 73.86 -3.3 35.1 -26.2 c -15 -9.81 -39.94 3.04 -35.1 26.2" style="fill:#171717"/><g style="fill:#fff"><path d="m 5.14 26.7 c 0.48 -3.05 0.86 -4.09 1.66 -7.29 h 1.93 c 2.09 0 2.61 0.15 2.98 0.85 c 0.55 1.04 0.33 1.98 -0.7 3 c -0.75 0.75 -1.51 1.08 -2.73 1.19 l -0.98 0.09 c -0.36 1.08 -0.49 2.16 -1.45 2.27 c -0.49 0.05 -0.66 0.02 -0.72 -0.14 m 4.62 -4.21 c 0.43 -0.32 0.54 -1 0.22 -1.32 c -0.29 -0.29 -0.8 -0.42 -1.24 -0.31 c -0.61 0.15 -1.01 1.43 -0.59 1.86 c 0.55 0.14 1.2 0.05 1.61 -0.23"/><path d="m 12.54 26.2 c -1.1 -1.16 -0.79 -2.59 0.91 -4.14 c 0.64 -0.79 1.09 -0.71 2.04 -0.7 c 0.7 0 1.54 0.05 1.89 0.11 c 0.64 0.05 0.62 0.08 0.59 0.68 c -0.03 0.65 -0.79 3.91 -1.01 4.32 c -0.13 0.25 -0.36 0.63 -2.02 0.27 c -1.04 0.05 -1.7 0.2 -2.39 -0.54 m 2.48 -0.91 c 1.2 -0.62 1.29 -2.13 0.14 -2.49 c -0.57 -0.18 -1.66 0.81 -1.66 1.52 c 0.24 0.81 0.84 1.32 1.52 0.97"/><path d="m 18.75 26.66 c -0.12 -0.14 -0.14 -0.45 -0.08 -1 c 0.14 -1.25 0.89 -3.94 1.15 -4.14 c 0.32 -0.24 1.02 -0.21 1.4 0.05 c 0.29 0.2 0.36 0.2 0.87 0 c 0.69 -0.27 1.02 -0.1 0.88 0.46 c -0.13 0.5 -0.32 0.7 -0.96 0.98 c -0.86 0.38 -1.14 0.73 -1.52 1.94 c -0.39 1.21 -0.59 1.66 -0.82 1.82 c -0.26 0.17 -0.73 0.12 -0.91 -0.1"/><path d="m 23.86 26.72 c -0.78 -0.31 -1.08 -0.95 -0.58 -1.21 c 0.14 -0.07 0.64 -0.1 1.12 -0.05 c 0.8 0.07 0.87 0.06 0.82 -0.18 c -0.03 -0.14 -0.27 -0.39 -0.53 -0.56 c -1.05 -0.67 -1.24 -0.88 -1.24 -1.34 c 0 -0.55 0.8 -1.55 1.47 -1.83 c 0.9 -0.38 2.04 -0.11 2.4 0.57 c 0.29 0.54 -0.03 0.8 -0.82 0.7 c -1.3 -0.17 -1.32 -0.16 -1.32 0.13 c 0 0.19 0.22 0.39 0.73 0.66 c 1.29 0.7 1.42 1.29 0.49 2.32 c -0.82 0.91 -1.63 1.16 -2.53 0.8"/><path d="m 28.1 26.74 c -0.13 -0.09 -0.19 -0.3 -0.16 -0.65 c 0.06 -0.8 1.01 -4.52 1.18 -4.63 c 0.3 -0.2 1.2 -0.12 1.28 0.12 c 0.18 0.46 -0.89 4.6 -1.3 5.06 c -0.23 0.26 -0.68 0.31 -1 0.11"/><path d="m 29.56 20.66 c -0.45 -0.18 -0.35 -1.07 0.16 -1.41 c 0.26 -0.18 1.28 -0.12 1.45 0.08 c 0.18 0.21 0.07 0.98 -0.17 1.18 c -0.25 0.2 -1.09 0.3 -1.43 0.15"/><path d="m 31.37 26.66 c -0.05 -0.12 0.09 -0.94 0.3 -1.83 c 0.46 -1.95 0.46 -1.95 0.07 -2.36 c -0.27 -0.29 -0.29 -0.38 -0.13 -0.75 c 0.1 -0.23 0.35 -0.5 0.57 -0.59 c 0.21 -0.09 0.73 -0.14 0.99 -0.49 c 0.26 -0.35 0.61 -1.08 0.93 -1.24 c 0.69 -0.35 1.72 -0.39 1.84 -0.07 c 0.13 0.34 -0.32 0.89 -0.89 1.07 c -0.68 0.18 -0.46 0.35 -0.08 0.67 c 0.24 0.2 0.44 0.48 0.44 0.63 c 0 0.27 -0.56 0.79 -1.01 0.93 c -0.32 0.1 -0.61 0.75 -1.12 2.54 c -0.32 1.12 -0.46 1.42 -0.74 1.54 c -0.5 0.22 -1.06 0.2 -1.16 -0.05"/><path d="m 35.2 28.49 c -0.12 -0.32 0.29 -1.11 0.63 -1.2 c 0.16 -0.04 0.46 -0.08 0.66 -0.08 c 0.4 0 0.9 -0.42 0.9 -0.75 c -0.16 -0.33 -0.44 -0.4 -0.76 -0.54 c -0.03 -0.01 -0.34 -2.3 -0.5 -3.68 c -0.1 -0.85 0.07 -1.04 0.88 -0.98 c 0.64 0.05 0.63 0.02 0.91 1.83 c 0.08 0.54 0.23 1.08 0.32 1.21 c 0.15 0.21 0.23 0.13 0.77 -0.7 c 0.33 -0.52 0.73 -1.16 0.9 -1.45 c 0.4 -0.67 0.77 -0.92 1.38 -0.92 c 0.43 0 0.5 0.04 0.5 0.31 c 0 0.36 -1.57 3.34 -2.56 4.87 c -1 1.55 -2.1 2.3 -3.38 2.3 c -0.39 0 -0.59 -0.06 -0.64 -0.21"/></g></svg>