<svg xmlns="http://www.w3.org/2000/svg" viewBox="0 0 48 48"><path d="m 24.69 0.41 c -4.9 0.38 -10.64 2.73 -14.63 6 c -4.86 3.97 -8.43 10.1 -9.38 16.1 c -1.14 7.92 3.45 16.44 8.63 20.48 c 2.6 1.97 6 3.54 9.28 4.22 c 8.41 1.79 17.19 -1.59 23.2 -8.93 c 3.61 -4.4 5.47 -8.83 5.93 -14.1 c 0.55 -6.29 -1.93 -13 -6.46 -17.58 c -5.15 -4.28 -10.45 -6.61 -16.55 -6.16" style="fill:#2f4e4e"/><path d="m 29.8 23.57 c -2.93 1.66 -4.32 2.86 -6.9 3.69 c 0.56 -1.67 1.13 -3.35 1.78 -4.97 c 0.86 -2.11 0.62 -3.22 -1.3 -6.11 c -0.82 -1.23 -1.48 -2.27 -1.48 -2.3 c 1.9 -0.04 3.78 0.04 5.83 0.1 c 1.71 -1.58 2.58 -2.9 4.34 -4.38 c 0.53 1.94 0.7 3.48 1.04 5.61 c 1.69 0.52 3.38 1.05 5.07 1.56 c 0.58 0.18 1.05 0.39 1.05 0.48 c -1.73 1.48 -3.2 2.44 -5.18 3.85 c 0.34 1.07 2.88 6.84 2.29 7.18 c -1.98 -1.46 -4.68 -3.38 -6.54 -4.72" style="fill:#f9de28"/><g style="fill:#ff8c00"><path d="m 15.96 27 c -0.05 -0.14 -0.02 -0.98 -0.19 -1.96 c -0.17 -0.98 -0.3 -2.12 -0.35 -2.26 c -0.27 -0.69 -1.36 -0.46 -1.89 -0.53 l 0.02 -0.29 c 0.04 -0.46 1.71 -5.14 2.3 -6.44 c 0.18 -0.4 0.29 -0.54 0.43 -0.55 c 0.39 -0.05 3.06 0.81 3.61 1.16 c 0.16 0.1 0.18 0.19 0.16 0.98 c -0.04 1.64 -0.7 7.59 -1.05 9.46 c -0.06 0.51 -0.11 1.05 -0.68 1.04 c -0.67 -0.12 -2.14 -0.04 -2.36 -0.62"/><path d="m 13.99 37.64 c -0.31 -0.17 -0.84 -0.71 -0.97 -1 c -0.14 -0.3 -0.16 -0.65 -0.06 -0.85 c 0.09 -0.18 0.34 -0.17 0.8 0.04 c 0.29 0.16 0.36 0.2 0.62 0.04 c 0.41 -0.25 0.55 -0.63 0.37 -0.97 c -0.04 -0.08 -0.25 -0.35 -0.45 -0.59 c -0.86 -0.99 -1.14 -1.57 -1 -2.08 c 0.1 -0.38 0.32 -0.63 0.75 -0.84 c 0.68 -0.34 1.09 -0.3 1.54 0.12 c 0.21 0.2 0.21 0.38 0.01 0.62 c -0.14 0.17 -0.2 0.19 -0.55 0.17 c -0.68 -0.03 -1.04 0.34 -0.8 0.82 c 0.06 0.12 0.36 0.5 0.67 0.85 c 0.62 0.7 0.75 0.96 0.81 1.7 c 0.08 0.83 -0.26 1.7 -0.77 1.97 c -0.33 0.1 -0.7 0.15 -0.96 0.02"/><path d="m 17.41 38.91 c -0.3 -0.2 -0.62 -0.52 -0.82 -0.82 c -0.15 -0.23 -0.14 -0.57 0.03 -0.93 c 0.18 -0.37 0.39 -0.48 0.62 -0.33 c 0.45 0.3 1.08 0.17 1.29 -0.26 c 0.1 -0.21 0.1 -0.29 0.03 -0.55 c -0.11 -0.41 -0.3 -0.69 -0.96 -1.44 c -0.46 -0.51 -0.58 -0.7 -0.64 -0.96 c -0.26 -1.1 0.71 -2.3 1.79 -2.21 c 0.3 0.02 0.39 0.06 0.55 0.25 c 0.25 0.33 0.19 0.57 0.03 0.93 c -0.06 0.06 -0.3 0.13 -0.57 0.15 c -0.53 0.06 -0.61 0.11 -0.77 0.44 c -0.15 0.32 -0.09 0.5 0.32 0.96 c 0.89 1.01 1.07 1.32 1.18 2.03 c 0.09 0.56 0 1.57 -0.17 1.93 c -0.06 0.13 -0.24 0.36 -0.41 0.51 c -0.55 0.51 -1 0.6 -1.49 0.28"/><path d="m 20.48 39.4 c -0.08 -0.05 -0.09 -0.48 -0.05 -2.79 c 0.05 -3.42 0.13 -4.64 0.29 -4.8 c 0.18 -0.18 0.48 -0.19 0.64 -0.02 c 0.09 0.09 0.11 0.34 0.11 1.67 c 0 1.5 -0.15 4.95 -0.24 5.52 c -0.06 0.39 -0.45 0.6 -0.75 0.41"/><path d="m 23.2 39.88 c -0.43 -0.22 -0.9 -0.81 -0.9 -1.12 c 0 -0.21 0.28 -0.9 0.44 -1.08 c 0.5 -0.21 1.29 0.02 1.57 -0.53 c 0.14 -0.29 0.15 -0.75 0.02 -1.02 c -0.05 -0.11 -0.35 -0.41 -0.65 -0.66 c -0.77 -0.65 -1.01 -1.1 -1 -1.87 c 0 -0.65 0.15 -1.03 0.57 -1.49 c 0.59 -0.66 1.22 -0.75 1.73 -0.25 c 0.32 0.3 0.3 0.71 -0.02 1.02 c -0.4 0.24 -0.98 0.1 -1.16 0.52 c -0.2 0.48 -0.05 0.86 0.5 1.35 c 0.85 0.76 1.2 1.5 1.2 2.53 c 0 0.79 -0.25 1.44 -0.8 2.04 c -0.54 0.59 -1.05 0.79 -1.5 0.55"/><path d="m 27.97 39.3 c -0.64 -0.26 -0.75 -0.72 -0.82 -3.64 c -0.03 -1.19 -0.07 -1.95 -0.12 -2.02 c -0.04 -0.07 -0.37 -0.07 -0.48 -0.11 c -0.28 -0.09 -0.41 -0.21 -0.51 -0.66 c -0.07 -0.35 0.14 -0.54 0.26 -0.7 c 0.07 -0.09 0.3 -0.25 0.51 -0.35 c 0.45 -0.21 1.54 -0.57 1.91 -0.61 c 0.23 -0.03 0.47 -0.21 0.53 -0.07 c 0.09 0.21 0.5 0.76 0 1.29 c -0.23 0.31 -0.54 0.59 -0.66 0.95 c -0.04 0.15 -0.09 1.45 -0.11 2.9 c -0.03 1.66 -0.07 2.7 -0.12 2.8 c -0.08 0.19 -0.25 0.29 -0.39 0.24"/><path d="m 30.1 38.89 c -0.38 -0.29 -0.38 -0.57 0.02 -3.37 c 0.4 -2.8 0.63 -3.95 0.83 -4.15 c 0.14 -0.14 0.32 -0.04 0.46 0.23 c 0.23 0.45 1.83 5.41 1.83 5.67 c 0 0.09 -0.33 0.53 -0.57 0.78 c -0.17 0.18 -0.27 0.12 -0.55 -0.34 c -0.15 -0.24 -0.31 -0.44 -0.36 -0.44 c -0.74 0.05 -0.73 0.63 -0.98 1.22 c -0.26 0.61 -0.35 0.65 -0.68 0.4 m 1.52 -2.61 l 0.24 -0.12 l -0.04 -0.55 c -0.09 -1.21 -0.44 -2.23 -0.69 -1.97 c -0.13 0.13 -0.29 1.32 -0.29 2.09 v 0.66 c 0.28 0 0.56 -0.04 0.78 -0.11"/><path d="m 34 37.51 c -0.04 -0.13 -0.11 -0.66 -0.16 -1.16 c -0.1 -1.15 -0.19 -4.6 -0.13 -4.76 c 0.07 -0.17 0.2 -0.09 1.08 0.66 c 1.04 0.89 1.23 0.85 1.03 -0.21 c -0.22 -1.14 -0.22 -1.28 -0.04 -1.33 c 0.25 -0.06 0.6 0.09 0.71 0.31 c 0.06 0.11 0.15 0.43 0.2 0.71 c 0.1 0.57 0.48 3.79 0.39 3.89 c -0.09 0.09 -0.63 -0.25 -0.98 -0.68 c -0.77 -0.95 -1 -1.19 -1.17 -1.16 c -0.14 0.02 -0.16 0.07 -0.15 0.5 c 0.04 0.91 0.39 1.66 0.44 2.56 c -0.05 0.21 -0.84 0.91 -1.02 0.91 c -0.09 0 -0.17 -0.08 -0.22 -0.24"/><path d="m 38.62 34.77 c -0.07 -0.11 -0.13 -0.58 -0.18 -1.32 c -0.04 -0.63 -0.13 -1.3 -0.19 -1.48 c -0.13 -0.37 0.07 -0.44 -0.4 -0.36 c -0.37 0.06 -0.41 0.08 -0.45 0 c -0.06 -0.12 -0.37 -0.24 0.35 -0.77 c 0.42 -0.31 2.3 -1.38 2.64 -1.24 c 0.13 0.05 -0.32 0.66 -0.44 0.74 c -0.25 0.16 -0.39 0.82 -0.57 2.7 c -0.11 1.14 -0.2 1.54 -0.38 1.73 c -0.19 0.21 -0.25 0.21 -0.38 0"/><path d="m 11.74 35.7 c -0.33 -0.54 -0.38 -1.08 -0.65 -1.66 c -0.1 -0.18 -0.15 -0.25 -0.03 -0.53 c 0.13 -0.3 0.13 -0.36 0 -0.89 c -0.19 -0.79 -0.39 -1.2 -0.6 -1.2 c -0.28 0 -0.43 0.31 -0.44 0.94 c -0.01 0.49 0.02 0.63 0.21 0.96 l 1.2 0.08 l 0.02 0.95 c 0.01 0.17 -1.4 -0.07 -1.4 -0.02 c 0 0.14 -0.28 0.33 -0.49 0.33 c -0.11 0 -0.29 -0.06 -0.4 -0.14 c -0.18 -0.13 -0.2 -0.19 -0.19 -0.61 c 0.01 -0.48 0.39 -2.11 0.68 -2.9 c 0.18 -0.5 0.32 -0.6 0.74 -0.6 c 0.43 0 0.65 0.21 0.85 0.82 c 0.39 1.24 1.05 4.45 0.94 4.61 c -0.09 0.13 -0.27 0.07 -0.44 -0.13"/><path d="m 7.68 25.58 c -0.01 -0.04 -0.01 -0.32 -0.01 -0.61 c -0.02 -0.84 -0.16 -0.71 -0.79 -0.61 c -0.21 -1.7 -0.74 -1.34 0.81 -1.78 c 0 -0.4 0 -0.71 0 -1.13 c -0.34 0 -0.59 0.06 -0.95 0.12 c -0.09 -0.52 -0.17 -1.05 -0.25 -1.57 c 0.41 -0.07 0.81 -0.15 1.22 -0.23 c 0 -0.45 0 -0.91 0 -1.36 c 0.47 -0.07 0.95 -0.16 1.42 -0.22 c 0 0.46 -0.02 0.83 -0.01 1.32 c 0.48 0.02 0.75 -0.08 1.32 -0.18 c 0 -0.45 0 -0.91 0 -1.36 c 0.47 -0.08 0.95 -0.16 1.42 -0.23 c -0.02 0.45 -0.02 0.91 -0.01 1.36 c 0.27 0 0.48 -0.05 0.76 -0.1 c 0.09 0.52 0.17 1.05 0.26 1.57 c -0.35 0.07 -0.7 0.13 -1.04 0.2 c 0 0.39 -0.01 0.83 -0.02 1.18 c 0.31 -0.05 0.63 -0.1 0.94 -0.15 c 0.09 0.52 0.17 1.05 0.26 1.57 c -0.39 0.07 -0.79 0.14 -1.18 0.22 v 0.14 c -0.02 0.45 -0.02 0.8 -0.03 1.27 c -0.47 0.07 -0.94 0.15 -1.4 0.23 c 0 -0.46 0.02 -0.94 0 -1.4 c -0.04 -0.04 -1.26 0.16 -1.28 0.21 c -0.02 0.04 -0.04 1.32 -0.03 1.38 c -0.46 0.09 -0.99 0.22 -1.39 0.16 m 2.77 -3.88 c 0 -0.26 0 -0.52 0.01 -0.79 c -0.46 0.08 -0.92 0.15 -1.38 0.23 c -0.02 0.42 -0.01 0.87 -0.02 1.21 c 0.46 0.07 0.74 -0.05 1.39 -0.17 c 0 -0.16 0 -0.34 0 -0.48"/></g></svg>