<svg xmlns="http://www.w3.org/2000/svg" viewBox="0 0 48 48"><path d="m 36.71 4.94 c -24.54 -17.27 -49.4 14.62 -29.42 34.95 c 18.84 19.2 48.1 1.39 38.98 -22.45 c -1.91 -4.97 -5 -9.34 -9.55 -12.51" style="fill:#dd9fdd"/><path d="m 9.39 28.85 c 0.75 -0.38 1.23 -0.21 2.37 -0.25 l 0.04 -6.31 c 0.03 -4.06 0.07 -6.34 0.12 -6.39 c 0.05 -0.04 1.45 -0.1 2.86 -0.13 c 0.29 2.08 0.22 13.79 -0.08 19.39 c -1.55 -1.53 -3.91 -4.83 -5.31 -6.31" style="fill:#4d3d77"/><path d="m 18 11.9 h 13.16 c 1.94 0 3.52 1.56 3.52 3.48 v 19.55 c 0 1.92 -1.57 3.48 -3.52 3.48 h -13.16 c -1.95 0 -3.52 -1.56 -3.52 -3.48 v -19.55 c 0 -1.92 1.57 -3.48 3.52 -3.48" style="fill:#be5fc8"/><path d="m 32.3 21.81 c 0 4.36 -3.53 7.89 -7.89 7.89 c -4.36 0 -7.89 -3.54 -7.89 -7.89 c 0 -4.36 3.53 -7.89 7.89 -7.89 c 4.36 0 7.89 3.53 7.89 7.89" style="fill:#ffe4e0"/><path d="m 29.3 35.75 c -0.76 -2.27 -3.69 -9.64 -3.82 -10.1 c -1.24 -2.88 -1.64 -4.8 -0.87 -3.73 c 1.84 2.63 7.12 10.75 7.66 11.52 l 0.68 0.96 c -0.22 2.12 -1.84 2.86 -3.28 1.89 c -0.13 0.04 -0.2 -0.06 -0.36 -0.54" style="fill:#9400d2"/><g style="fill:#ffe4e0"><path d="m 22.84 34.2 c -0.55 -0.53 -0.64 -0.64 -0.57 -0.77 c 0.05 -0.08 0.74 -0.81 1.54 -1.62 c 1.29 -1.3 1.48 -1.47 1.71 -1.47 c 0.32 0 0.61 0.07 0.61 0.15 c 0 0.03 -0.65 0.7 -1.44 1.48 c -0.79 0.79 -1.44 1.46 -1.44 1.5 c 0 0.04 0.14 0.23 0.32 0.42 c 0.36 0.39 0.39 0.61 0.09 0.8 c -0.18 0.11 -0.21 0.09 -0.83 -0.5"/><path d="m 22.71 37.2 c 0 -0.13 0.67 -0.9 2.04 -2.34 c 0.75 -0.79 0.81 -0.88 0.71 -1.02 c -0.06 -0.08 -0.23 -0.31 -0.37 -0.5 c -0.14 -0.19 -0.25 -0.38 -0.25 -0.41 c 0 -0.04 0.09 -0.13 0.19 -0.2 c 0.18 -0.12 0.21 -0.12 0.41 0.03 c 0.12 0.09 0.43 0.38 0.68 0.65 c 0.41 0.45 0.45 0.51 0.36 0.68 c -0.13 0.27 -2.4 2.62 -2.84 2.95 c -0.39 0.3 -0.93 0.39 -0.93 0.16"/></g><g style="fill:#dd9fdd"><path d="m 26.3 21.67 c 0 1.16 -0.92 2.1 -2.06 2.1 c -1.14 0 -2.06 -0.94 -2.06 -2.1 c 0 -1.16 0.92 -2.09 2.06 -2.09 c 1.14 0 2.06 0.94 2.06 2.09"/><path d="m 31.78 34.61 c 0 0.53 -0.43 0.95 -0.95 0.95 c -0.53 0 -0.95 -0.43 -0.95 -0.95 c 0 -0.52 0.43 -0.95 0.95 -0.95 c 0.52 0 0.95 0.43 0.95 0.95"/></g></svg>