<svg xmlns="http://www.w3.org/2000/svg" viewBox="0 0 48 48"><path d="m 9.13 8.66 c -39.64 52.3 69.2 51.58 30 0.21 c -7.09 -9 -21.82 -13.45 -30 -0.21" style="fill:#c1676a"/><path d="m 21.94 30.86 h -2.79 c -0.21 0 -0.43 0 -0.64 0 c -0.08 0 -0.2 0 -0.23 -0.08 c -0.06 -0.14 0.2 -0.48 0.27 -0.6 c 0.31 -0.58 0.61 -1.13 0.92 -1.71 c 1.11 -2.06 2.28 -4.07 3.32 -6.16 c 0.27 -0.54 0.56 -1.05 0.84 -1.56 c 0.06 -0.13 0.2 -0.5 0.33 -0.52 c 0.1 -0.02 0.16 0.14 0.2 0.21 c 0.14 0.25 0.27 0.49 0.39 0.74 c 0.55 1.03 1.11 2 1.66 3.05 c 0.88 1.66 1.78 3.29 2.68 4.96 c 0.21 0.39 0.43 0.78 0.64 1.17 c 0.06 0.11 0.23 0.31 0.16 0.43 c -0.12 0.16 -0.74 0.06 -0.91 0.06 h -2.79 v 0.02 c 1.62 1.15 3.22 2.3 4.82 3.46 c 0.41 0.31 0.84 0.59 1.25 0.91 c 0.14 0.1 0.35 0.33 0.53 0.33 c 0.16 0 0.35 -0.25 0.47 -0.35 c 0.39 -0.33 0.76 -0.64 1.15 -0.96 c 0.47 -0.39 0.93 -0.79 1.4 -1.2 c 0.12 -0.11 0.45 -0.29 0.45 -0.45 c 0 -0.16 -0.18 -0.39 -0.25 -0.52 c -0.23 -0.39 -0.45 -0.8 -0.66 -1.21 c -0.8 -1.42 -1.58 -2.86 -2.38 -4.3 c -1.93 -3.42 -3.82 -6.86 -5.71 -10.29 c -0.61 -1.09 -1.21 -2.18 -1.81 -3.27 c -0.39 -0.7 -0.84 -1.38 -1.17 -2.12 l -0.29 0.41 l -0.49 0.89 l -1.85 3.36 l -6.73 12.1 l -2.03 3.66 l -0.53 0.97 l -0.16 0.35 l 0.45 0.43 l 2.54 2.14 l 0.49 0.37 l 0.45 -0.27 l 1.15 -0.82 l 3.28 -2.37 l 1.07 -0.76" style="fill:#fff"/></svg>