<svg xmlns="http://www.w3.org/2000/svg" viewBox="0 0 48 48"><path d="m 36.3 4 c 42.2 35.83 -44.63 70.3 -35.7 14.87 c 1.96 -12.15 24.3 -24.52 35.7 -14.87" style="fill:#3bb962"/><path d="m 39.1 25.31 c 0 8.41 -6.83 15.22 -15.26 15.22 c -8.43 0 -15.27 -6.82 -15.27 -15.22 c 0 -8.41 6.84 -15.22 15.27 -15.22 c 8.43 0 15.26 6.82 15.26 15.22" style="fill:#090327"/><g style="fill:#fff"><path d="m 15.24 15.5 c -0.05 0.01 -0.1 0.03 -0.14 0.06 c -0.2 0.13 -0.25 0.38 -0.13 0.57 l 1.4 2.17 c -1.2 1.07 -1.95 2.63 -1.95 4.38 v 0.09 h 11.83 v -0.09 c 0 -1.75 -0.75 -3.29 -1.95 -4.38 l 1.4 -2.17 c 0.13 -0.2 0.07 -0.45 -0.13 -0.57 c -0.04 -0.03 -0.09 -0.05 -0.14 -0.06 c -0.05 -0.01 -0.11 -0.01 -0.16 0 c -0.11 0.02 -0.2 0.09 -0.26 0.18 l -1.36 2.09 c -0.94 -0.64 -2.08 -1.02 -3.32 -1.02 c -1.23 0 -2.38 0.38 -3.32 1.02 l -1.35 -2.09 c -0.06 -0.09 -0.15 -0.15 -0.26 -0.18 c -0.05 -0.01 -0.11 -0.01 -0.17 0 m 2.27 3.85 c 0.48 0 0.87 0.39 0.87 0.87 c 0 0.48 -0.39 0.87 -0.87 0.87 c -0.48 0 -0.87 -0.39 -0.87 -0.87 c 0 -0.48 0.39 -0.87 0.87 -0.87 m 5.64 0 c 0.48 0 0.87 0.39 0.87 0.87 c 0 0.48 -0.39 0.87 -0.87 0.87 c -0.48 0 -0.87 -0.39 -0.87 -0.87 c 0 -0.48 0.39 -0.87 0.87 -0.87 m -8.74 4.58 v 7.86 c 0 1.84 1.48 3.32 3.33 3.32 h 5.17 c 1.84 0 3.32 -1.47 3.33 -3.31 h -1.43 c -0.07 -0.51 0.3 -0.82 0.32 -1.35 c 0 -0.01 0 -0.01 0 -0.01 c 0 -0.5 -0.41 -0.9 -0.91 -0.9 c -0.5 0 -0.91 0.41 -0.91 0.9 c 0 0 0 0 0 0.01 c 0 0.01 0 0.01 0.01 0.53 h -1.59 c -0.55 0 -1 -0.44 -1 -0.99 v -1.34 c -0.45 -0.01 -0.73 0.31 -1.22 0.32 c -0.01 0 -0.01 0 -0.01 0 c -0.5 0 -0.9 -0.41 -0.9 -0.91 c 0 -0.5 0.41 -0.91 0.9 -0.91 c 0 0 0 0 0.01 0 c 0.01 0 0.01 0 0.49 0.01 v -0.2 c 0 -0.54 0.44 -0.99 0.99 -0.99 h 1.59 c 0.07 0.51 -0.25 0.8 -0.26 1.34 c 0 0 0 0.01 0 0.01 c 0 0.5 0.41 0.91 0.91 0.91 c 0.5 0 0.91 -0.41 0.91 -0.9 c 0 -0.01 0 -0.01 0 -0.01 c 0 -0.53 -0.38 -0.82 -0.32 -1.34 h 1.44 v -2.06"/><path d="m 29.1 25.77 c -0.54 0 -0.99 0.44 -0.99 0.99 v 1.3 c -0.45 0.02 -0.73 -0.27 -1.23 -0.27 c -0.51 0 -0.92 0.41 -0.92 0.91 c 0 0.5 0.41 0.91 0.9 0.91 c 0.5 0 0.8 -0.32 1.23 -0.32 v 1.34 c 0 0.54 0.44 0.99 1 0.99 h 1.59 c 0.09 -0.51 -0.25 -0.81 -0.26 -1.34 c 0 0 0 -0.01 0 -0.01 c 0 -0.5 0.41 -0.91 0.91 -0.91 c 0.5 0 0.91 0.41 0.91 0.9 c 0 0.54 -0.39 0.84 -0.31 1.36 h 1.64 c 0.54 0 0.99 -0.44 0.99 -0.99 v -3.86 c 0 -0.54 -0.44 -0.99 -0.99 -0.99 h -1.64 c -0.07 0.51 0.3 0.8 0.31 1.34 c 0 0.51 -0.41 0.91 -0.91 0.91 c -0.5 0 -0.91 -0.41 -0.91 -0.9 c 0 -0.02 0 -0.02 0.01 -0.54"/></g></svg>