<svg xmlns="http://www.w3.org/2000/svg" viewBox="0 0 48 48"><path d="m 43 36.54 c 15.1 -18.27 -10.37 -39.55 -33.2 -36.1 c -17 2.42 -10.18 50.64 14.55 47.4 c 7.35 -0.96 13.75 -5.3 18.66 -11.27" style="fill:#8fd1ec"/><path d="m 18 35.84 c -1.7 -0.93 -3.38 -2.73 -4.36 -4.69 c -0.99 -1.98 -4.4 -14.48 -4.41 -16.2 c 0.02 -1.97 2.48 -2.95 3.81 -2.11 c 1.14 1.51 2.08 3.61 2.58 5.42 l 0.8 -1.1 c 1.71 -1.14 3.44 -0.91 5.55 -1.41 c 1.87 -0.13 6.56 0.27 8.1 1 c 1.47 2.02 0.28 4.5 0.51 6.82 c 2.2 -0.05 6.63 -0.8 8.27 0 c 1.64 0.89 1.69 3.25 0.58 4.3 c -2.07 2.17 -6.34 1.17 -8.1 2.88 c -3.73 4.29 -5.88 5.38 -13.34 5" style="fill:#fff"/><path d="m 19.36 36.92 c -1.98 -0.36 -4.18 -2.14 -5.49 -4.46 c -0.97 -1.71 -1.91 -4.48 -2.33 -6.8 c -0.32 -1.8 -0.82 -3.77 -2.2 -8.78 c -0.69 -2.5 -0.73 -3.27 -0.21 -4 c 0.82 -1.22 2.23 -1.63 3.5 -1.03 c 1.32 1.03 1.81 2.82 2.71 5.12 l 0.16 0.4 l 0.39 -0.58 c 0.21 -0.32 0.65 -0.7 0.96 -0.85 c 0.65 -0.3 2.57 -0.37 3.07 -0.09 c 0.27 0.14 0.43 0.09 0.89 -0.32 c 0.66 -0.58 1.33 -0.73 2.78 -0.64 c 0.88 0.05 1.16 0.15 1.7 0.58 c 0.6 0.48 0.69 0.5 1.28 0.34 c 0.93 -0.26 2.78 -0.09 3.31 0.3 c 0.89 0.65 1 1.16 1.01 4.37 v 2.93 l 0.61 -0.1 c 0.34 -0.05 1.68 -0.22 2.99 -0.37 c 1.86 -0.21 2.52 -0.23 3.05 -0.09 c 0.97 0.27 1.71 0.82 2.33 1.75 c 0.52 0.77 0.55 0.88 0.49 2 c -0.09 1.75 -0.18 1.82 -5 3.38 l -3.93 1.27 l -0.45 0.97 c -1.53 3.78 -7.55 5.29 -11.63 4.71 m 3.78 -1.32 c 3.62 -0.5 6.07 -2.07 6.89 -4.43 c 0.35 -1 0.15 -0.91 4.93 -2.44 c 2 -0.65 3.76 -1.26 3.91 -1.37 c 0.35 -0.25 0.34 -1.61 -0.01 -2.15 c -0.33 -0.51 -1.15 -1.02 -1.84 -1.14 c -0.52 -0.1 -5.81 0.48 -6.12 0.68 c -0.09 0.05 -0.16 0.25 -0.16 0.43 c 0 0.54 -0.61 1.39 -1.22 1.67 c -0.75 0.35 -2.73 0.35 -3.48 0 c -0.53 -0.25 -0.6 -0.25 -1.1 0.02 c -1.2 0.31 -3.05 0.6 -3.96 -0.24 c -0.41 -0.39 -0.52 -0.41 -2.04 -0.36 c -2.74 0.09 -3.29 -0.45 -3.29 -3.3 c 0 -1.71 -0.03 -1.84 -0.73 -3.6 c -0.4 -1 -1.07 -2.71 -1.49 -3.79 c -0.42 -1.08 -0.92 -2.13 -1.11 -2.33 c -0.72 -0.78 -2.25 -0.19 -2.25 0.87 c 0 0.24 0.52 2.29 1.15 4.55 c 0.63 2.26 1.29 4.93 1.47 5.92 c 0.47 2.63 1.05 4.51 2 6.45 c 1.01 1.93 2.38 3.8 4.24 4.39 c 1.21 0.38 2.36 0.43 4.21 0.18 m 1.36 -9.97 c 0.31 -0.31 0.33 -0.55 0.33 -4.43 c 0 -5.08 0.01 -5.1 -1.75 -5.06 c -0.9 0 -1.05 0.04 -1.36 0.43 c -0.32 0.41 -0.34 0.63 -0.34 4.51 v 4.07 l 0.4 0.4 c 0.73 0.51 2.06 0.71 2.71 0.07 m 5.08 -0.48 v -3.77 c 0 -4.51 0.03 -4.43 -1.73 -4.43 c -0.96 -0.02 -1.29 0.21 -1.88 0.8 v 7.39 l 0.4 0.4 c 0.34 0.34 0.56 0.4 1.4 0.4 c 0.93 0.01 1.23 -0.23 1.8 -0.8 m -9.71 -0.27 c 0.36 -0.25 0.37 -0.32 0.37 -3.69 c 0 -3.43 0 -3.44 -0.4 -3.84 c -0.55 -0.55 -2.13 -0.59 -2.68 -0.07 c -0.35 0.32 -0.36 0.45 -0.36 3.77 c 0 3.21 0.02 3.45 0.33 3.76 c 0.42 0.42 2.19 0.46 2.75 0.07" style="fill:#565c5f"/></svg>