<svg xmlns="http://www.w3.org/2000/svg" viewBox="0 0 48 48"><path d="m 47.79 25.3 c -0.73 -17.1 -12.3 -29.92 -28.33 -22.82 c -11 4.87 -21.47 10.22 -18.84 22.82 c 2.62 12.6 15.32 22.82 28.33 22.82 c 13 0 19.39 -10.37 18.84 -22.82" style="fill:#ffd600"/><path d="m 23.91 40.79 c -0.6 -0.25 -12.21 -6.72 -12.63 -7 c -0.49 -0.41 -0.75 -0.91 -1.05 -1.46 v -7.4 v -7.41 c 0.31 -0.53 0.61 -1.15 1.1 -1.52 c 0.67 -0.49 12.5 -7 12.72 -7 c 1.59 -0.29 1.19 -0.42 2.38 0 c 0.21 0 10.91 5.87 12.34 6.77 c 0.47 0.29 0.82 0.64 1.08 1.08 c 0.7 0.67 0.38 5.73 0.38 8.1 v 7.42 c -0.36 0.61 -0.77 1.29 -1.34 1.67 c -0.31 0.2 -3.21 1.83 -6.46 3.63 l -5.89 3.26 c -0.83 -0.09 -1.83 0.24 -2.63 -0.05" style="fill:#04af4a"/><path d="m 15.64 30.68 c -0.13 -0.18 -0.17 -1.35 -0.17 -5.34 c 0 -4.69 0.02 -5.14 0.23 -5.37 c 0.2 -0.23 9.47 -5.43 9.67 -5.43 c 0.09 0 8.51 4.64 9.26 5.11 l 0.49 0.3 v 5.31 c 0 2.92 -0.05 5.38 -0.1 5.45 c -0.18 0.27 -9.48 5.33 -9.77 5.32 c -3.2 -1.71 -6.77 -3.66 -9.62 -5.35 m 12.77 -1.09 c 0.77 -0.41 0.89 -0.79 0.89 -2.98 c 0 -2.2 -0.07 -2.41 -1 -2.97 c -0.46 -0.29 -0.5 -0.35 -0.5 -0.9 c 0 -1.66 -0.91 -2.67 -2.41 -2.67 c -1.49 0 -2.43 0.97 -2.43 2.54 c 0 0.7 -0.02 0.73 -0.52 1.04 c -0.93 0.56 -0.98 0.74 -0.98 2.95 c 0 3.16 0.15 3.28 4.13 3.24 c 2.04 -0.02 2.49 -0.06 2.85 -0.25 m -3.57 -4.05 c 0.35 0 0.7 0 1.05 0 l 0.04 0.99 c 0.05 1.35 0.16 1.86 -0.66 1.91 c -0.83 0.04 -0.46 -2.05 -0.43 -2.9 m -0.63 -2.15 c -0.15 -0.14 -0.11 -1.3 0.06 -1.6 c 0.52 -0.75 1.52 -0.73 2 -0.2 c 0.45 0.66 0.31 1.04 0.27 1.81 c -0.77 -0.01 -1.59 0.13 -2.33 -0.02" style="fill:#0a0c0b"/><path d="m 20.1 38.64 c -3.99 -2.21 -9.49 -4.68 -9.75 -6.23 c 0 -4.98 0 -9.95 0 -14.93 c 1.69 0.89 3.38 1.77 5.07 2.66 c 0.1 3.19 -0.05 6 0.03 9.61 l 0.1 0.99 l 2.25 1.31 c 2.31 1.34 5.19 2.7 7.54 3.96 c 0 1.61 -0.14 3.14 -0.14 4.75 c -1.76 0.3 -3.66 -1.34 -5.1 -2.13" style="fill:#039542"/></svg>