<svg xmlns="http://www.w3.org/2000/svg" viewBox="0 0 48 48"><path d="m 42.67 37.4 c 28.5 -45.64 -67 -51.5 -36.5 -2.15 c 8.1 12.7 28.57 19.52 36.5 2.15" style="fill:#333"/><g style="fill:#f00"><path d="m 10.67 31.2 c -0.85 -0.03 -0.96 -0.1 -0.96 -0.57 c 0 -0.34 0.47 -2.7 0.66 -3.36 c 0.17 -0.57 0.35 -0.82 0.63 -0.87 c 0.13 -0.02 0.98 -0.03 1.9 -0.02 l 1.67 0.02 l 0.02 0.16 c 0.02 0.13 -0.16 0.75 -0.23 0.78 c -0.01 0 -0.61 0.03 -1.34 0.05 c -1.22 0.04 -1.34 0.06 -1.48 0.19 c -0.19 0.59 -0.9 2 -0.45 2.43 c 0.09 0.08 0.27 0.11 0.77 0.11 c 0.36 0 0.95 0.02 1.31 0.05 l 0.65 0.04 v 0.2 c 0 0.21 -0.16 0.64 -0.26 0.7 c -0.09 0.05 -2.09 0.1 -2.9 0.07"/><path d="m 15.67 31.2 c -0.26 -0.02 -0.52 -0.08 -0.59 -0.14 c -0.18 -0.15 -0.15 -0.64 0.16 -2.16 c 0.45 -2.18 0.52 -2.36 1.07 -2.46 c 0.18 -0.04 1.15 -0.06 2.17 -0.06 h 1.86 l 0.13 0.19 c 0.12 0.18 0.12 0.22 0 0.93 c -0.18 1.07 -0.52 2.57 -0.66 3 c -0.19 0.54 -0.36 0.64 -1.25 0.7 c -0.82 0.06 -2.2 0.06 -2.9 0 m 2.97 -1.16 c 0.09 -0.06 0.19 -0.21 0.23 -0.33 c 0.11 -0.33 0.36 -1.7 0.36 -1.94 c 0 -0.3 -0.22 -0.36 -1.32 -0.33 c -1.16 0.03 -1.17 0.03 -1.37 0.92 c -0.32 1.42 -0.33 1.68 -0.09 1.74 c 0.66 -0.08 1.6 0.32 2.19 -0.06"/><path d="m 21.1 31.2 c -0.09 -0.04 -0.16 -0.09 -0.16 -0.11 c 0 -0.13 0.79 -3.93 0.89 -4.25 c 0.13 -0.45 0.25 -0.51 0.8 -0.42 c 0.84 0.07 1.73 0.01 2.45 0.01 c 1.98 -0.01 1.87 -0.15 1.49 1.8 c -0.09 0.5 -0.29 1.37 -0.43 1.93 l -0.25 1.02 l -0.27 0.04 c -0.15 0.02 -0.37 0.02 -0.5 0 c -0.23 -0.04 -0.23 -0.05 -0.2 -0.4 c 0.02 -0.2 0.15 -0.96 0.29 -1.71 c 0.14 -0.75 0.24 -1.41 0.22 -1.48 c -0.81 -0.3 -1.47 -0.41 -2.46 -0.12 c -0.14 0.1 -0.17 0.21 -0.59 2.07 c -0.18 0.79 -0.36 1.46 -0.41 1.51 c -0.12 0.12 -0.69 0.18 -0.89 0.1"/><path d="m 27.53 31.2 c -0.22 -0.02 -0.27 -0.05 -0.27 -0.18 c 0 -0.21 1.04 -5.28 1.18 -5.77 c 0.16 -0.54 0.35 -0.82 0.62 -0.9 c 0.35 -0.11 1.21 -0.17 1.58 -0.12 l 0.54 0.02 l -0.07 0.36 c -0.07 0.41 -0.37 0.47 -0.88 0.5 c -0.52 0.04 -0.66 0.17 -0.74 0.66 c -0.06 0.39 0.02 0.47 0.53 0.54 c 0.44 0.06 0.52 0.15 0.43 0.48 c -0.09 0.34 -0.17 0.38 -0.74 0.45 l -0.5 0.06 l -0.09 0.31 c -0.05 0.17 -0.2 0.85 -0.34 1.5 c -0.31 1.46 -0.46 2 -0.55 2.02 c -0.19 0.05 -0.45 0.07 -0.7 0.05"/><path d="m 33.1 33.2 l -0.24 -0.03 l 0.03 -0.36 c 0.06 -0.6 0.09 -0.61 1.91 -0.61 h 1.56 l 0.15 -0.33 c 0.14 -0.32 0.9 -3.84 0.9 -4.22 c 0 -0.27 -0.2 -0.33 -1.24 -0.33 c -1.24 0 -1.24 0.01 -1.56 1.77 c -0.18 0.98 -0.17 1 0.73 1.06 c 0.39 0.03 0.75 0.07 0.8 0.11 c 0.13 0.08 0.04 0.55 -0.13 0.71 c -0.25 0.25 -2.38 0.23 -2.7 -0.03 c -0.15 -0.12 -0.09 -0.68 0.23 -2.26 c 0.31 -1.56 0.42 -1.92 0.65 -2.19 l 0.18 -0.21 c 1.47 0 2.94 0 4.41 0 l -0.04 0.44 c -0.05 0.52 -0.75 3.98 -1.05 5.22 c -0.28 1.14 -0.33 1.2 -1.22 1.26 c -0.71 0.05 -2.99 0.05 -3.38 0.01"/><path d="m 9.81 20.88 c -0.49 -0.21 -0.76 -0.77 -0.77 -1.58 c 0 -0.6 0.13 -1.05 0.43 -1.38 c 0.29 -0.33 0.62 -0.47 1.27 -0.53 c 1 -0.09 1.1 -0.15 1.1 -0.66 c 0 -0.4 -0.25 -0.91 -0.5 -1.04 c -0.39 -0.19 -0.89 -0.11 -1.82 0.3 c -0.13 0.05 -0.28 -0.37 -0.17 -0.49 c 0.2 -0.23 0.73 -0.35 1.53 -0.35 c 0.91 0 1.13 0.07 1.38 0.43 c 0.17 0.24 0.18 0.33 0.23 1.48 c 0.03 0.67 0.05 1.8 0.06 2.52 l 0.02 1.29 l -0.23 0.02 c -0.3 0.03 -0.42 -0.08 -0.48 -0.42 c -0.02 -0.15 -0.07 -0.29 -0.09 -0.3 c -0.02 -0.02 -0.23 0.13 -0.46 0.32 c -0.23 0.19 -0.5 0.38 -0.59 0.41 c -0.24 0.09 -0.66 0.07 -0.91 -0.04 m 1.09 -0.63 c 0.25 -0.13 0.61 -0.5 0.76 -0.8 c 0.15 -0.29 0.22 -1.16 0.12 -1.41 c -0.09 -0.23 -0.46 -0.3 -1 -0.2 c -0.72 0.14 -1.02 0.53 -1.02 1.36 c 0 0.55 0.12 0.8 0.48 1.02 c 0.27 0.12 0.48 0.13 0.66 0.03"/><path d="m 13.88 20.86 c -0.11 -0.03 -0.13 -0.21 -0.13 -2.54 c 0 -1.99 -0.02 -2.55 -0.1 -2.74 l -0.1 -0.23 c 0.28 -0.09 0.59 -0.18 0.88 -0.21 c 0.07 0.28 0.09 0.55 0.22 0.8 c 0.06 0.02 0.27 -0.13 0.52 -0.35 c 0.41 -0.39 0.68 -0.52 0.9 -0.44 c 0.09 0.03 0.11 0.09 0.07 0.23 c -0.07 0.27 -0.14 0.33 -0.45 0.43 c -0.32 0.09 -0.82 0.59 -0.98 0.97 c -0.08 0.2 -0.12 0.7 -0.17 2.18 c -0.03 1.05 -0.06 1.93 -0.06 1.93 c 0 0.03 -0.45 0.01 -0.59 -0.03"/><path d="m 16.83 20.1 c 0.08 -1.22 -0.01 -4.25 -0.13 -4.54 c -0.05 -0.13 -0.1 -0.25 -0.1 -0.26 c 0 -0.02 0.27 -0.1 0.72 -0.21 c 0.18 -0.04 0.2 -0.02 0.24 0.2 c 0.07 0.39 0.18 0.43 0.53 0.18 c 0.84 -0.59 1.54 -0.53 1.99 0.18 c 0.18 0.28 0.17 0.28 0.69 -0.15 c 0.55 -0.46 1.17 -0.57 1.63 -0.3 c 0.43 0.26 0.46 0.43 0.51 3.21 l 0.05 2.5 c -0.28 0 -0.55 0 -0.83 0 l 0.04 -2.32 c -0.14 -0.83 0.23 -2.13 -0.22 -2.59 c -0.37 -0.36 -0.7 -0.4 -1.07 -0.16 c -0.48 0.31 -0.52 0.41 -0.58 1.67 c -0.03 0.62 -0.06 1.63 -0.06 2.23 v 1.1 c -0.23 0 -0.46 0 -0.7 0 l -0.03 -2.21 c -0.02 -1.86 -0.05 -2.25 -0.14 -2.47 c -0.23 -0.5 -0.81 -0.6 -1.27 -0.22 c -0.45 0.37 -0.45 0.41 -0.5 2.78 c -0.02 1.19 -0.05 2.17 -0.05 2.18 c -0.27 0.03 -0.47 0.02 -0.76 0.02"/><path d="m 24.86 20.96 c -0.25 -0.03 -0.73 -0.1 -0.8 -0.13 c -0.12 -0.04 0.1 -0.22 0.05 -3.61 c -0.03 -1.98 -0.08 -3.67 -0.11 -3.76 c -0.06 -0.15 -0.03 -0.18 0.36 -0.34 c 0.23 -0.1 0.44 -0.18 0.46 -0.18 c 0.02 0 0.03 0.21 0.03 0.47 c 0 0.82 0.09 2.24 0.15 2.33 c 0.04 0.06 0.14 0 0.38 -0.21 c 0.39 -0.35 0.58 -0.43 1.02 -0.43 c 0.99 0 1.49 0.96 1.41 2.75 c -0.04 0.89 -0.24 1.67 -0.57 2.2 c -0.45 0.72 -1.28 1.03 -2.38 0.9 m 1.17 -0.52 c 0.76 -0.38 1.02 -1.04 1.02 -2.61 c 0 -0.92 -0.02 -1.05 -0.17 -1.37 c -0.18 -0.37 -0.45 -0.63 -0.73 -0.7 c -0.35 -0.09 -0.84 0.27 -1.05 0.76 c -0.13 0.3 -0.27 2.18 -0.24 3.15 c 0.02 0.63 0.02 0.63 0.27 0.79 c 0.31 0.2 0.46 0.2 0.91 -0.02"/><path d="m 28.77 20.2 c 0.06 -0.66 0.04 -4.38 -0.04 -4.68 c 0.16 -0.29 0.62 -0.34 0.88 -0.27 c 0.03 0.05 0.05 1.1 0.05 2.31 c 0 1.21 0.03 2.47 0.06 2.79 l 0.06 0.57 c -0.36 0 -0.73 0 -1.09 0"/><path d="m 28.8 14.31 c -0.27 -0.25 -0.28 -0.64 -0.01 -0.93 c 0.4 -0.43 0.89 -0.16 0.89 0.5 c 0 0.57 -0.46 0.8 -0.88 0.43"/><path d="m 31.61 20.92 c -0.09 -0.02 -0.27 -0.14 -0.41 -0.27 c -0.63 -0.62 -0.62 -2.18 0.02 -2.81 c 0.31 -0.3 0.62 -0.41 1.46 -0.49 c 0.34 -0.03 0.66 -0.1 0.72 -0.14 c 0.07 -0.06 0.11 -0.22 0.11 -0.5 c 0 -1.01 -0.64 -1.34 -1.81 -0.93 c -0.27 0.09 -0.52 0.17 -0.54 0.17 c -0.05 0 -0.22 -0.43 -0.18 -0.46 c 0.27 -0.21 1.03 -0.38 1.74 -0.38 c 0.73 0 0.99 0.1 1.26 0.47 l 0.21 0.3 l 0.05 2.45 c 0.02 1.35 0.02 2.48 -0.01 2.51 c -0.03 0.03 -0.16 0.05 -0.29 0.04 c -0.22 -0.02 -0.24 -0.05 -0.34 -0.37 c -0.05 -0.19 -0.11 -0.36 -0.12 -0.38 c -0.02 -0.02 -0.21 0.14 -0.44 0.34 c -0.23 0.2 -0.48 0.39 -0.57 0.43 c -0.29 0.05 -0.59 0.06 -0.85 0.01 m 1.89 -2.32 c 0.04 -0.74 0 -0.8 -0.68 -0.79 c -0.97 0.01 -1.41 0.52 -1.35 1.54 c 0.03 0.43 0.05 0.47 0.32 0.73 c 1.02 0.82 1.66 -0.86 1.71 -1.48"/><path d="m 35.59 20.82 c -0.03 -0.05 -0.07 -1.25 -0.09 -2.67 c -0.02 -1.42 -0.07 -2.64 -0.1 -2.7 c -0.06 -0.13 0.05 -0.2 0.5 -0.29 c 0.2 -0.04 0.23 -0.03 0.29 0.18 c 0.09 0.3 0.27 0.32 0.59 0.07 c 0.73 -0.57 1.8 -0.47 2.15 0.2 c 0.15 0.29 0.16 0.38 0.19 2.76 l 0.04 2.46 h -0.18 c -0.1 0 -0.27 0.02 -0.39 0.04 l -0.21 0.04 v -2.32 c 0 -2.59 -0.01 -2.66 -0.47 -2.89 c -0.38 -0.2 -0.8 -0.1 -1.17 0.27 c -0.2 0.2 -0.34 0.41 -0.38 0.58 c -0.04 0.15 -0.07 1.19 -0.07 2.32 v 2.04 c -0.23 0.02 -0.48 -0.01 -0.69 -0.09"/><path d="m 28.57 40.1 c -0.16 -0.07 -0.39 -0.23 -0.5 -0.34 c -0.4 -0.42 -0.44 -0.93 -0.16 -2.46 c 0.42 -2.32 0.71 -3.32 1.19 -3.99 l 0.27 -0.38 l -0.12 -0.42 c -0.15 -0.53 -0.15 -0.83 0 -0.95 c 0.07 -0.05 0.4 0 0.77 -0.13 l 0.25 -0.08 c 0.33 -1.26 0.72 -2.33 1.02 -3.61 c 0.22 -0.95 0.54 -1.2 0.35 -1.55 c -0.26 -0.5 -0.13 -1.21 0.23 -2.17 c 0.13 -0.34 0.09 -0.45 0.8 -0.27 c 0.83 0.21 0.66 0.22 0.44 1.11 c -0.19 0.73 -0.18 1 -0.56 1.44 c -0.3 0.34 -0.29 1.17 -0.54 2.18 c -0.27 1.1 -0.58 3 -0.58 3.17 c 0 0.09 -0.16 -0.11 0.14 0.04 c 0.59 0.27 0.8 0.44 0.8 0.63 c 0 0.09 -0.15 0.4 -0.33 0.69 c -0.36 0.59 -0.39 0.75 -0.21 1.09 c 0.16 0.3 0.11 0.67 -0.37 2.76 c -0.61 2.61 -0.75 2.97 -1.33 3.25 c -0.39 0.19 -1.13 0.19 -1.54 0.01"/></g></svg>