<svg xmlns="http://www.w3.org/2000/svg" viewBox="0 0 48 48"><path d="m 19.57 46.2 c -32 -3.15 -21.1 -52.87 9.9 -45.1 c 29.44 4.75 21.47 55.5 -9.9 45.1" style="fill:#7f7f7f"/><g style="fill:#221f20"><path d="m 15.43 14.49 h 17.36 c 1.25 0 2.27 1.11 2.27 2.48 v 15.2 c 0 1.37 -1.02 2.48 -2.27 2.48 h -17.36 c -1.25 0 -2.27 -1.11 -2.27 -2.48 v -15.2 c 0 -1.37 1.02 -2.48 2.27 -2.48"/><path d="m 16.47 12.28 h 1.33 v 24.44 h -1.33"/><path d="m 19.68 12.22 h 1.33 v 24.44 h -1.33"/><path d="m 26.81 12.3 h 1.32 v 24.44 h -1.32"/><path d="m 30.2 12.27 h 1.33 v 24.44 h -1.33"/><path d="m 23.44 12.26 h 1.33 v 24.44 h -1.33"/><path d="m 37.3 17.5 v 1.33 h -26.55 v -1.33"/><path d="m 37.3 20.86 v 1.32 h -26.55 v -1.32"/><path d="m 37.3 24.1 v 1.33 h -26.55 v -1.33"/><path d="m 37.4 26.96 v 1.33 h -26.55 v -1.33"/><path d="m 37.3 29.98 v 1.32 h -26.55 v -1.32"/></g><g style="fill:#f00"><path d="m 15.36 25.94 c -0.3 -0.17 -0.46 -0.61 -0.47 -1.25 c 0 -0.48 0.08 -0.84 0.26 -1.1 c 0.18 -0.27 0.38 -0.38 0.78 -0.42 c 0.61 -0.07 0.67 -0.12 0.67 -0.52 c 0 -0.32 -0.15 -0.73 -0.3 -0.82 c -0.23 -0.15 -0.54 -0.08 -1.11 0.24 c -0.08 0.05 -0.17 -0.29 -0.11 -0.39 c 0.12 -0.18 0.44 -0.28 0.93 -0.28 c 0.55 0 0.69 0.05 0.84 0.34 c 0.1 0.19 0.11 0.26 0.14 1.17 c 0.02 0.54 0.04 1.43 0.04 2 v 1.02 l -0.14 0.02 c -0.18 0.02 -0.26 -0.07 -0.29 -0.33 c -0.02 -0.12 -0.04 -0.22 -0.06 -0.24 c -0.02 -0.01 -0.14 0.11 -0.29 0.26 c -0.14 0.15 -0.3 0.3 -0.36 0.33 c -0.15 0.07 -0.4 0.06 -0.55 -0.03 m 0.66 -0.5 c 0.15 -0.1 0.37 -0.4 0.46 -0.63 c 0.09 -0.23 0.13 -0.92 0.07 -1.12 c -0.05 -0.18 -0.29 -0.24 -0.61 -0.16 c -0.44 0.11 -0.62 0.42 -0.62 1.08 c 0 0.44 0.07 0.64 0.29 0.81 c 0.17 0.09 0.29 0.1 0.41 0.02"/><path d="m 17.84 25.93 c -0.07 -0.02 -0.07 -0.17 -0.07 -2 c 0 -1.58 -0.01 -2.03 -0.06 -2.18 l -0.06 -0.18 c 0.17 -0.07 0.36 -0.14 0.54 -0.17 c 0.05 0.22 0.05 0.44 0.14 0.64 c 0.04 0.02 0.16 -0.1 0.31 -0.28 c 0.25 -0.3 0.42 -0.41 0.55 -0.34 c 0.05 0.02 0.06 0.07 0.04 0.18 c -0.04 0.21 -0.09 0.26 -0.28 0.34 c -0.2 0.07 -0.5 0.46 -0.6 0.77 c -0.05 0.16 -0.08 0.56 -0.11 1.73 c -0.02 0.84 -0.04 1.53 -0.04 1.54 c 0 0.02 -0.28 0 -0.36 -0.02"/><path d="m 19.64 25.31 c 0.05 -0.97 -0.01 -3.37 -0.08 -3.6 c -0.03 -0.11 -0.06 -0.2 -0.06 -0.21 c 0 -0.02 0.16 -0.08 0.44 -0.16 c 0.11 -0.03 0.12 -0.02 0.14 0.16 c 0.05 0.31 0.11 0.34 0.32 0.14 c 0.51 -0.47 0.94 -0.42 1.21 0.14 c 0.11 0.22 0.1 0.22 0.42 -0.12 c 0.34 -0.37 0.71 -0.46 0.99 -0.24 c 0.27 0.21 0.28 0.34 0.31 2.55 l 0.03 1.99 c -0.17 0 -0.34 0 -0.51 0 l 0.03 -1.85 c -0.08 -0.66 0.14 -1.68 -0.14 -2.05 c -0.23 -0.28 -0.42 -0.32 -0.65 -0.13 c -0.29 0.25 -0.32 0.32 -0.35 1.32 c -0.02 0.49 -0.04 1.29 -0.04 1.77 v 0.87 c -0.14 0 -0.28 0 -0.42 0 l -0.02 -1.75 c -0.01 -1.47 -0.03 -1.79 -0.09 -1.96 c -0.14 -0.4 -0.49 -0.48 -0.77 -0.18 c -0.27 0.29 -0.28 0.32 -0.31 2.2 c -0.02 0.95 -0.03 1.72 -0.03 1.73 c -0.16 0.02 -0.29 0.02 -0.46 0.02"/><path d="m 24.53 26 c -0.15 -0.02 -0.45 -0.08 -0.49 -0.1 c -0.07 -0.03 0.06 -0.18 0.03 -2.86 c -0.02 -1.57 -0.05 -2.91 -0.07 -2.98 c -0.04 -0.12 -0.02 -0.14 0.22 -0.27 c 0.14 -0.08 0.27 -0.14 0.28 -0.14 c 0.01 0 0.02 0.17 0.02 0.37 c 0 0.65 0.05 1.78 0.09 1.85 c 0.02 0.05 0.09 0 0.23 -0.16 c 0.23 -0.28 0.35 -0.34 0.63 -0.34 c 0.61 0 0.91 0.77 0.86 2.18 c -0.02 0.71 -0.14 1.33 -0.35 1.75 c -0.27 0.57 -0.78 0.82 -1.45 0.71 m 0.71 -0.41 c 0.46 -0.29 0.62 -0.82 0.62 -2.07 c 0 -0.73 -0.01 -0.83 -0.1 -1.09 c -0.11 -0.29 -0.27 -0.5 -0.45 -0.56 c -0.21 -0.07 -0.51 0.21 -0.64 0.61 c -0.08 0.24 -0.17 1.73 -0.14 2.5 c 0.01 0.5 0.01 0.5 0.16 0.63 c 0.19 0.16 0.28 0.16 0.55 -0.02"/><path d="m 26.91 25.39 c 0.04 -0.52 0.02 -3.48 -0.02 -3.71 c 0.09 -0.23 0.38 -0.27 0.54 -0.22 c 0.02 0.05 0.03 0.88 0.03 1.84 c 0 0.96 0.02 1.96 0.04 2.21 l 0.04 0.46 c -0.22 0 -0.44 0 -0.66 0"/><path d="m 26.93 20.73 c -0.17 -0.2 -0.17 -0.51 -0.01 -0.74 c 0.25 -0.34 0.54 -0.13 0.54 0.39 c 0 0.46 -0.29 0.64 -0.54 0.34"/><path d="m 28.65 25.98 c -0.05 -0.02 -0.17 -0.11 -0.25 -0.21 c -0.38 -0.49 -0.38 -1.73 0.02 -2.23 c 0.19 -0.24 0.38 -0.32 0.89 -0.39 c 0.2 -0.03 0.4 -0.08 0.44 -0.12 c 0.05 -0.05 0.07 -0.17 0.07 -0.4 c 0 -0.8 -0.39 -1.06 -1.11 -0.73 c -0.17 0.07 -0.32 0.14 -0.33 0.14 c -0.03 0 -0.13 -0.34 -0.11 -0.36 c 0.16 -0.17 0.63 -0.3 1.07 -0.3 c 0.45 0 0.6 0.08 0.77 0.38 l 0.13 0.24 l 0.03 1.95 c 0.02 1.07 0.02 1.97 0 1.99 c -0.02 0.02 -0.1 0.04 -0.18 0.03 c -0.13 -0.02 -0.15 -0.04 -0.2 -0.29 c -0.04 -0.15 -0.07 -0.29 -0.07 -0.3 c -0.01 -0.01 -0.13 0.11 -0.27 0.27 c -0.14 0.16 -0.3 0.31 -0.35 0.34 c -0.18 0.04 -0.36 0.05 -0.52 0.01 m 1.15 -1.84 c 0.03 -0.59 0 -0.63 -0.42 -0.63 c -0.59 0.01 -0.86 0.41 -0.82 1.22 c 0.02 0.34 0.03 0.38 0.2 0.57 c 0.62 0.66 1.01 -0.68 1.04 -1.17"/><path d="m 31.1 25.89 c -0.02 -0.04 -0.05 -0.99 -0.06 -2.12 c -0.01 -1.13 -0.04 -2.09 -0.06 -2.14 c -0.04 -0.1 0.04 -0.16 0.3 -0.23 c 0.12 -0.04 0.14 -0.02 0.17 0.14 c 0.05 0.24 0.16 0.26 0.36 0.06 c 0.45 -0.45 1.1 -0.37 1.31 0.16 c 0.09 0.23 0.1 0.3 0.12 2.19 l 0.02 1.95 h -0.11 c -0.06 0 -0.16 0.02 -0.23 0.04 l -0.13 0.03 v -1.84 c 0 -2.05 0 -2.11 -0.29 -2.29 c -0.23 -0.16 -0.49 -0.08 -0.72 0.21 c -0.13 0.16 -0.2 0.32 -0.23 0.46 c -0.02 0.12 -0.04 0.95 -0.04 1.84 v 1.62 c -0.14 0.01 -0.3 -0.01 -0.42 -0.07"/><path d="m 31.1 29.1 c -0.04 0.11 -0.14 0.28 -0.23 0.37 c -0.3 0.32 -0.72 0.42 -2.03 0.46 c -1.98 0.07 -2.85 0.03 -3.46 -0.18 l -0.34 -0.12 l -0.34 0.14 c -0.42 0.17 -0.68 0.22 -0.79 0.14 c -0.06 -0.04 -0.05 -0.25 -0.2 -0.48 l -0.1 -0.14 c -1.09 -0.02 -2.03 -0.12 -3.13 -0.13 c -0.82 0 -1.07 -0.16 -1.34 0.01 c -0.38 0.24 -1 0.26 -1.84 0.17 c -0.29 -0.03 -0.39 0.01 -0.32 -0.47 c 0.08 -0.56 0.11 -0.46 0.88 -0.44 c 0.63 0.02 0.85 -0.03 1.26 0.15 c 0.32 0.14 1 0.02 1.88 0.03 c 0.95 0.01 2.59 -0.07 2.71 -0.09 c 0.07 -0.01 -0.07 0.12 0.01 -0.1 c 0.16 -0.42 0.27 -0.57 0.43 -0.6 c 0.07 -0.01 0.35 0.04 0.62 0.11 c 0.53 0.14 0.68 0.14 0.93 -0.02 c 0.23 -0.14 0.54 -0.17 2.34 -0.16 c 2.25 0.01 2.57 0.05 2.87 0.38 c 0.2 0.22 0.29 0.7 0.18 0.98"/></g></svg>