<svg xmlns="http://www.w3.org/2000/svg" viewBox="0 0 48 48"><path d="m 41.91 40.77 c 27.45 -42.3 -47.53 -58.6 -41.55 -15.1 c 2.44 17.74 31.1 31.3 41.55 15.1" style="fill:#403c6c"/><path d="m 26.7 40.6 c -0.84 -0.32 -0.96 -0.62 -0.96 -2.5 c 0 -1.55 -0.05 -1.85 -0.33 -1.99 c -0.19 -0.09 -1.16 -0.22 -2.16 -0.29 c -3.81 -0.25 -6.72 -1.59 -9.3 -4.27 c -1.38 -1.43 -2.32 -3 -3 -4.98 c -0.67 -2.49 -0.75 -4.95 0 -7.18 c 1.36 -3.97 4.7 -7.29 8.59 -8.55 c 2.64 -0.86 5.09 -0.86 8 -0.02 c 3.6 1.04 7.11 4.4 8.59 8.21 c 0.67 2.7 0.9 5.65 -0.07 8 c -1.04 2.52 -2.83 4.8 -5 6.4 c -0.6 0.44 -1.14 0.93 -1.22 1.11 c -0.08 0.17 -0.17 1.36 -0.21 2.64 c -0.09 2.78 -0.15 3.11 -0.59 3.23 c -0.63 0.18 -2.05 0.29 -2.34 0.18 m -1.27 -9.89 c 0.77 -1.28 -0.14 -3.11 0.5 -4.47 c 0.27 -0.49 2 -1.16 2.84 -1.09 c 0.96 -0.05 0.74 0.49 0.8 1.3 c 0.05 0.68 0.16 1.3 0.24 1.38 c 0.26 0.25 1.09 -0.71 1.51 -1.77 c 0.55 -1.38 0.61 -4.48 0.12 -5.87 c -0.85 -2.36 -3.13 -4.39 -5.66 -5 c -5.82 -1.47 -11.1 3.07 -10.35 8.89 c 0.41 3.17 2.42 5.52 5.65 6.63 c 1.32 0.45 3.82 0.47 4.36 0.04" style="fill:#fff;fill-opacity:0.97"/></svg>