<svg xmlns="http://www.w3.org/2000/svg" viewBox="0 0 48 48"><path d="m 10.32 44.3 c 19.34 13.52 46.76 -13.3 34.66 -33.3 c -8.91 -17.1 -34.77 -12.1 -41.82 3.57 c -5.57 9.69 -3.4 24 7.17 29.68" style="fill:#ffd600"/><path d="m 21.73 37.91 c -5.42 -0.91 -9.74 -4.82 -11 -9.97 c -1.43 -5.69 0.77 -11.47 5.62 -14.77 c 0.77 -0.52 2.78 -1.45 3.67 -1.7 c 8.14 -2.27 16.1 3 17.25 11.39 c 0.24 1.82 0 4.15 -0.61 5.99 c -0.97 2.82 -3.05 5.39 -5.34 6.97 c -2.91 1.75 -6.13 2.62 -9.56 2.1 m 5.32 -4.19 c 5 -1.25 8.45 -6.11 7.86 -11.23 c -0.88 -7.76 -9.53 -11.84 -16.1 -7.58 c -4 2.62 -5.7 7.71 -4.06 12.26 c 1.27 3.52 4.5 6.18 8.2 6.75 c 0.97 0.15 3.04 0.05 4.05 -0.2 m -5.1 -4.21 c -0.1 -0.11 -0.08 -12.2 0.03 -12.26 c 0.07 -0.04 10.38 5.84 10.58 6 c 0.11 0.11 -0.47 0.47 -5.21 3.21 c -5.79 3.36 -5.32 3.09 -5.4 3" style="fill:#2735eb"/></svg>