<svg xmlns="http://www.w3.org/2000/svg" viewBox="0 0 48 48"><path d="m 39.1 42.58 c -28.46 22.1 -57.99 -32.98 -22.78 -41 c 22.2 -8.27 43.85 24.63 22.78 41" style="fill:#707f8f"/><path d="m 16.61 11.46 l 6.89 7 l -4.24 6.72 l -6.89 -7" style="fill:#dcdcdc"/><path d="m 24.73 29.89 l -9.37 -2.81 l 0.55 -7.97 l 9.37 2.81" style="fill:#218b21"/><path d="m 26.67 10.28 l -5.36 8.3 l 5.48 5.72 l 5.36 -8.3" style="fill:#dc133c"/><path d="m 35.86 25.61 l -8.16 -5.46 l -5.62 5.58 l 8.16 5.45" style="fill:#7a68ed"/><path d="m 34.53 23.42 l -5.36 8.3 l 5.48 5.71 l 5.36 -8.3" style="fill:#ffa400"/><path d="m 21.29 25.46 l 6.89 7 l -4.24 6.72 l -6.89 -7" style="fill:#f4f4f4"/><path d="m 34.75 31.92 l 5.36 -8.3 l -5.48 -5.71 l -5.36 8.3" style="fill:#473d8b"/><path d="m 8.33 31.59 l 2.76 -9.53 l 7.83 0.56 l -2.76 9.53" style="fill:#c71485"/></svg>