<svg xmlns="http://www.w3.org/2000/svg" viewBox="0 0 48 48"><path d="m 39.3 42.4 c -28.8 22 -58.67 -32.79 -23 -40.8 c 22.44 -8.22 44.4 24.49 23 40.8" style="fill:#ededec"/><path d="m 0.31 16.45 l 22.96 0.1 l 22.74 0.03 c 0.75 2.2 1.47 4 1.76 6.08 h -47.5 c -0.21 -2.11 -0.22 -4.49 0.02 -6.21" style="fill:#ff8c00"/><path d="m 0.64 25.1 c 0.02 -0.01 10.68 0 23.69 0.01 l 23.65 0.03 c -0.02 2.21 -0.44 4.37 -0.92 6.2 l -22.1 0.22 h -22.2 c -0.45 -1.16 -2.36 -6.1 -2.09 -6.46" style="fill:#9acd31"/><path d="m 8.23 33.9 c -0.08 -0.08 -0.13 -2.38 -0.05 -2.45 c 0.02 -0.01 2.05 -0.06 4.5 -0.1 c 5.07 -0.08 5.15 -0.1 5.91 -1.18 c 0.33 -0.47 0.4 -0.71 0.44 -1.53 c 0.03 -0.55 -0.02 -1.18 -0.11 -1.46 c -0.22 -0.67 -0.88 -1.38 -1.57 -1.7 c -0.55 -0.26 -0.86 -0.28 -4.9 -0.32 l -4.3 -0.04 v -1.18 c 0 -0.65 -0.02 -1.22 -0.04 -1.28 c -0.02 -0.05 1.77 -0.13 3.98 -0.16 c 3.83 -0.06 4 -0.08 4.66 -0.37 c 0.36 -0.17 0.77 -0.4 0.9 -0.53 c 0.87 -0.79 1.09 -2.65 0.45 -3.75 c -0.63 -1.07 -0.7 -1.09 -5.67 -1.16 l -4.33 -0.07 l 0.03 -1.12 c 0.02 -0.61 0.06 -1.16 0.09 -1.22 c 0.09 -0.15 7.97 -0.12 9.1 0.04 c 1.29 0.19 2.1 0.61 3.08 1.59 c 0.68 0.68 0.89 1 1.09 1.62 c 0.31 1 0.3 2.23 -0.02 3.28 c -0.24 0.77 -0.93 1.83 -1.19 1.83 c -0.13 0 -1.71 0.93 -1.71 1 c 0 0.03 0.4 0.25 0.89 0.51 c 1.47 0.76 1.91 1.13 2.3 1.93 c 0.52 1.04 0.7 2.25 0.5 3.43 c -0.21 1.25 -0.49 1.77 -1.52 2.73 c -1.03 0.97 -1.35 1.15 -2.66 1.49 c -0.89 0.23 -1.47 0.25 -5.36 0.25 c -2.4 0 -4.4 -0.04 -4.45 -0.09 m 17.59 -1.13 c -0.1 -1.33 -0.11 -7.09 -0.02 -9 l 0.06 -1.19 l 5.93 -0.04 l 5.93 -0.04 v 2.64 h -8.94 v 6.2 h 4.64 c 2.55 0 4.71 0.05 4.8 0.11 c 0.13 0.08 0.16 0.43 0.13 1.29 l -0.04 1.18 l -6.2 0.04 l -6.2 0.04 m -0.05 -17.39 c -0.02 -0.05 -0.02 -0.62 0 -1.25 l 0.05 -1.15 h 6.09 c 5.43 0 6.1 0.02 6.17 0.21 c 0.04 0.12 0.08 0.68 0.08 1.25 v 1.05 h -6.17 c -3.39 0 -6.19 -0.05 -6.21 -0.1" style="fill:#040402"/></svg>