<svg xmlns="http://www.w3.org/2000/svg" viewBox="0 0 48 48"><path d="m 45.99 28.43 c -4.78 32 -53.94 21.1 -44.64 -9.9 c 6.24 -29.44 56.5 -21.47 44.64 9.9" style="fill:#dcdcdc"/><path d="m 12.29 34.45 c 0.73 -0.65 3.28 -3.2 5.67 -5.66 l 4.35 -4.48 l 1.35 1.89 c 1.93 2.7 2.77 3.57 3.43 3.57 c 0.57 0 0.91 -0.24 2.98 -2.19 c 1.38 -1.3 1.84 -1.46 2.45 -0.89 c 0.92 0.86 4.77 6.32 5.57 7.89 c 0.16 0.32 0.24 0.63 0.18 0.69 c -0.16 0.16 -9.88 0.34 -19.2 0.36 l -8.13 0.02" style="fill:#3489c1"/><path d="m 35.79 8.34 l 0.28 0.24 c 0.31 0.28 0.32 0.74 0.03 1.04 l -26.7 26.9 c -0.3 0.3 -0.79 0.32 -1.11 0.05 l -0.28 -0.25 c -0.31 -0.27 -0.32 -0.74 -0.02 -1.04 l 26.7 -26.9 c 0.3 -0.3 0.79 -0.32 1.11 -0.04" style="fill:#3c3c3c"/><g style="fill:#7f7f7f"><path d="m 25.2 16.27 c -0.7 -2.48 0.9 -5.07 3.4 -5.52 c 0.64 -0.12 2.46 0.28 2.46 0.54 c 0 0.07 -1.27 1.39 -2.83 2.94 l -2.82 2.82"/><path d="m 8.48 33.8 c 0.17 -0.5 0.52 -2.89 0.52 -3.26 c 0 -0.37 0.55 -1.2 1.16 -1.29 c 0.94 -0.13 1.75 0.37 1.96 -1.75 c 0.3 -2.98 0.71 -3.75 2 -3.75 c 0.71 0 0.96 -0.35 0.96 -1.38 c 0.01 -2.14 0.54 -3.63 1.29 -3.63 c 1.28 -0.31 1.46 -1.86 3.23 1.69 l 0.82 1.67 l -5.7 5.7 c -3.13 3.13 -6.41 6.5 -6.23 6"/></g><path d="m 29.2 19.5 c -0.54 -0.07 -1.58 -0.49 -1.55 -0.62 c 0 -0.02 1.25 -1.33 2.77 -2.9 l 2.76 -2.86 l 0.11 0.19 c 0.18 0.31 0.41 1.09 0.45 1.55 c 0.13 1.41 -0.32 2.64 -1.33 3.59 c -0.46 0.44 -1.16 0.83 -1.73 0.96 c -0.42 0.1 -1.08 0.14 -1.48 0.08" style="fill:#3489c1"/></svg>