<svg xmlns="http://www.w3.org/2000/svg" viewBox="0 0 48 48"><path d="m 29.3 1.64 c 44.61 14.57 -3.28 72.6 -25.95 31.63 c -9.72 -16 3 -39.1 25.95 -31.63" style="fill:#ff8c00"/><g style="fill:#fff"><path d="m 15.63 30.43 v 6.36 h -3.45 v -6.36"/><path d="m 35.68 30.2 v 6.36 h -3.45 v -6.36"/><path d="m 8.73 28.2 h 30.2 v 3.45 h -30.2"/><path d="m 31.88 12.47 l 5.64 14.1 l -2.34 1.05 l -5.64 -14.1"/><path d="m 25.55 9.41 v 18 h -6 v -18"/><path d="m 29 11 v 16.38 h -2.7 v -16.38"/><path d="m 18.75 10.92 v 16.49 h -3.66 v -16.49"/><path d="m 14.34 12.32 v 15.2 h -3 v -15.2"/></g><g style="fill:#ff8c00"><path d="m 25.65 12.64 h -6.25 v -1.08 h 6.25"/><path d="m 25.65 25.47 h -6.25 v -1.08 h 6.25"/><path d="m 28.2 16.2 h -1.4 v -2.05 h 1.4"/><path d="m 17.57 26.34 h -1.4 v -1.08 h 1.4"/><path d="m 17.57 24.39 h -1.4 v -1.08 h 1.4"/><path d="m 13.47 26.87 h -0.97 v -1.07 h 0.97"/><path d="m 13.37 22.35 h -0.97 v -9.16 h 0.97"/><path d="m 17.46 17.82 h -0.97 v -5.61 h 0.97"/></g></svg>