<svg xmlns="http://www.w3.org/2000/svg" viewBox="0 0 48 48"><path d="m 36.71 43.1 c -24.54 17.27 -49.4 -14.62 -29.42 -34.95 c 18.84 -19.2 48.1 -1.4 38.98 22.44 c -1.91 4.98 -5 9.34 -9.55 12.51"/><path d="m 12.25 35.75 c -3.37 -0.92 -6.22 -3.64 -7.25 -6.91 c -0.68 -2.46 -0.5 -5.3 0.46 -7.43 c 1.24 -2.71 3.39 -4.63 6.25 -5.59 c 2.66 -0.87 5.46 -0.21 7.74 0.59 c 1.52 -1.48 3.25 -3.06 4.86 -3.86 c 1.89 -0.93 2.94 -1.22 4.84 -1.34 c 7.2 -0.44 13.39 5.88 12.89 13.1 c -0.37 5.31 -3.68 9.51 -8.85 11.23 c -1.33 0.45 -4.37 0.56 -5.84 0.22 c -1.61 -0.37 -2.88 -0.89 -4.24 -1.75 l -1.21 -0.76 l -0.98 0.68 c -3.79 1.87 -6 2.36 -8.67 1.79" style="fill:#fff"/><path d="m 13.37 34.1 c -1.98 -0.4 -3.33 -1.16 -4.73 -2.67 c -4.55 -4.89 -1.95 -12.61 4.69 -13.97 c 1.77 -0.36 3.16 -0.16 5.2 0.75 c 0.86 0.39 1.68 0.71 1.82 0.71 c 0.13 0 0.56 -0.43 0.95 -0.96 c 1.41 -1.93 3.23 -3.27 5.49 -4.05 c 3.09 -0.89 6.39 -0.44 9.32 1.86 c 2.5 1.97 4 5.4 3.79 8.51 c -0.23 3.08 -1.38 5.28 -3.82 7.36 c -2.46 2.09 -6.23 2.87 -9.14 1.89 c -1.55 -0.53 -2.71 -1.13 -3.78 -1.97 c -0.49 -0.38 -0.98 -0.7 -1.11 -0.7 c -1.29 0.7 -2.16 1.78 -3.54 2.48 c -1.66 0.58 -3.58 1.05 -5.13 0.77" style="fill:#fc6400"/></svg>