<svg xmlns="http://www.w3.org/2000/svg" viewBox="0 0 48 48"><path d="m 41 8.39 c -49.95 -37.84 -57 66.3 -6.1 32.89 c 11.63 -7.62 19.29 -22.86 6.1 -32.89" style="fill:#eaf81c"/><path d="m 19 5 l -8 8" transform="matrix(0.837 0 0 0.811 10.72 11.26)" style="fill:none;stroke:#caba2e;stroke-width:6"/><path d="m 21.61 20.2 h -6.7 v 13.79 h 6.7" style="fill:#caba2e"/><path d="m 21.61 32.36 c 0.84 0 0.84 0.81 0.84 0.81 v 1.62 h -8.37 v -1.62 c 0 -0.81 0.84 -0.81 0.84 -0.81" style="fill:#d6c84a"/><path d="m 23.28 33.2 c 0.84 0 0.84 0.81 0.84 0.81 v 1.62 h -11.72 v -1.62 c 0 -0.81 0.84 -0.81 0.84 -0.81"/><path d="m 19 5 l 4 4" transform="matrix(0.837 0 0 0.811 10.72 11.26)" style="fill:#ff0;stroke:#caba2e;stroke-linecap:square;stroke-width:4"/><g style="fill-opacity:0.2"><path d="m 29.2 12.89 h -5.2 c -0.41 0 -0.75 0.34 -0.75 0.75 v 4.99 c 0 0.41 0.34 0.75 0.75 0.75 h 5.2 c 0.41 0 0.75 -0.34 0.75 -0.75 v -4.99 c 0 -0.41 -0.34 -0.75 -0.75 -0.75"/><path d="m 22.2 19.38 h -7.79 c -0.62 0 -1.13 0.5 -1.13 1.13 v 7.48 c 0 0.63 0.5 1.13 1.13 1.13 h 7.79 c 0.62 0 1.13 -0.5 1.13 -1.13 v -7.48 c 0 -0.62 -0.5 -1.13 -1.13 -1.13"/></g><path d="m 22.2 18.56 h -7.79 c -0.62 0 -1.13 0.5 -1.13 1.13 v 7.49 c 0 0.62 0.5 1.13 1.13 1.13 h 7.79 c 0.62 0 1.13 -0.5 1.13 -1.13 v -7.49 c 0 -0.62 -0.5 -1.13 -1.13 -1.13" style="fill:#d6c84a"/><path d="m 20.86 20.2 h -5.2 c -0.41 0 -0.75 0.34 -0.75 0.75 v 4.99 c 0 0.41 0.34 0.75 0.75 0.75 h 5.2 c 0.41 0 0.75 -0.34 0.75 -0.75 v -4.99 c 0 -0.41 -0.34 -0.75 -0.75 -0.75"/><path d="m 20.2 21 h -3.9 c -0.31 0 -0.56 0.25 -0.56 0.56 v 3.74 c 0 0.31 0.25 0.56 0.56 0.56 h 3.9 c 0.31 0 0.56 -0.25 0.56 -0.56 v -3.74 c 0 -0.31 -0.25 -0.56 -0.56 -0.56" style="fill:#fff;fill-opacity:0.2"/><path d="m 29.2 12.1 h -5.2 c -0.41 0 -0.75 0.34 -0.75 0.75 v 4.99 c 0 0.41 0.34 0.75 0.75 0.75 h 5.2 c 0.41 0 0.75 -0.34 0.75 -0.75 v -4.99 c 0 -0.41 -0.34 -0.75 -0.75 -0.75" style="fill:#d6c84a"/><path d="m 25 16 l -2 -1 v -4 l 2 -2 h 4 l 1 2" transform="matrix(0.837 0 0 0.811 10.72 11.26)" style="fill:none;stroke:#000;stroke-linecap:round;stroke-width:2"/><path d="m 27.93 13.7 h -2.6 c -0.21 0 -0.38 0.17 -0.38 0.38 v 2.5 c 0 0.21 0.17 0.38 0.38 0.38 h 2.6 c 0.21 0 0.38 -0.17 0.38 -0.38 v -2.5 c 0 -0.21 -0.17 -0.38 -0.38 -0.38"/><path d="m 13.23 33.2 c 0 0 -0.84 0 -0.84 0.81 v 0.81 c 0 -0.81 0.84 -0.81 0.84 -0.81 h 10 c 0.84 0 0.84 0.81 0.84 0.81 v -0.81 c 0 0 0 -0.81 -0.84 -0.81" style="fill:#fff;fill-opacity:0.2"/></svg>