<svg xmlns="http://www.w3.org/2000/svg" viewBox="0 0 48 48" xmlns:xlink="http://www.w3.org/1999/xlink"><defs><linearGradient id="7" gradientUnits="userSpaceOnUse" x1="2.45" y1="10.13" x2="2.2" y2="9.64" gradientTransform="matrix(1.627 0 0 1.771 8.41 8.64)" xlink:href="#1"/><linearGradient id="C" gradientUnits="userSpaceOnUse" x1="4.66" y1="4.27" x2="5.25" y2="3.93" gradientTransform="matrix(1.627 0 0 1.771 8.41 8.64)" xlink:href="#0"/><linearGradient id="8" gradientUnits="userSpaceOnUse" x1="3.63" y1="9.27" x2="2.93" y2="11.56" gradientTransform="matrix(1.627 0 0 1.771 8.41 8.64)" xlink:href="#1"/><linearGradient id="A" gradientUnits="userSpaceOnUse" x1="118.9" y1="63.1" x2="117.9" y2="78.7" gradientTransform="matrix(0.239 0 0 0.248 5.82 -4.55)"><stop style="stop-color:#007f66;stop-opacity:0"/><stop offset="1" style="stop-color:#0fc"/></linearGradient><linearGradient id="B" gradientUnits="userSpaceOnUse" x1="103.5" y1="21.85" x2="103.1" y2="27.94" gradientTransform="matrix(0.295 0 0 0.308 4.65 23.77)" xlink:href="#A"/><linearGradient id="9" gradientUnits="userSpaceOnUse" x1="8.5" y1="14.54" x2="9.13" y2="13.46" gradientTransform="matrix(1.627 0 0 1.771 8.41 8.64)" xlink:href="#1"/><linearGradient id="6" gradientUnits="userSpaceOnUse" x1="5.47" y1="14.66" x2="4.79" y2="14.31" gradientTransform="matrix(1.627 0 0 1.771 8.41 8.64)" xlink:href="#0"/><linearGradient id="0" gradientUnits="userSpaceOnUse" y1="8.6" x2="0" y2="8.96" gradientTransform="matrix(1.627 0 0 1.771 8.41 8.64)"><stop style="stop-color:#001212"/><stop offset="1" style="stop-color:#001212;stop-opacity:0"/></linearGradient><linearGradient id="5" gradientUnits="userSpaceOnUse" x1="3.29" y1="12.41" x2="4.56" y2="12.4" gradientTransform="matrix(1.627 0 0 1.771 8.41 8.64)" xlink:href="#1"/><linearGradient id="1" gradientUnits="userSpaceOnUse" x1="7.37" y1="2.11" x2="6.32" y2="4.08" gradientTransform="matrix(1.627 0 0 1.771 8.41 8.64)"><stop style="stop-color:#020202"/><stop offset="1" style="stop-color:#020202;stop-opacity:0"/></linearGradient><linearGradient id="3" gradientUnits="userSpaceOnUse" x1="2.8" y1="8.76" x2="1.97" y2="7.25" gradientTransform="matrix(1.627 0 0 1.771 8.41 8.64)" xlink:href="#1"/><linearGradient id="4" gradientUnits="userSpaceOnUse" x1="4.92" y1="5.31" x2="3.74" y2="5.3" gradientTransform="matrix(1.627 0 0 1.771 8.41 8.64)" xlink:href="#1"/><linearGradient id="2" gradientUnits="userSpaceOnUse" x1="1022.5" y1="1582.4" x2="1018.6" y2="1575.6" gradientTransform="matrix(0.14 0 0 0.145 -120.5 -212.7)" xlink:href="#1"/></defs><path d="m 2.27 32.93 c -18 -58.4 78.8 -29.2 33.54 10.81 c -9.1 8 -28.69 4.93 -33.54 -10.81" style="fill:#2f4e4e"/><path d="m 15.46 12 h 13.59 l -3.43 6.46 h -7.37 l -3.08 5.77 l 3.11 5.86 h 14.37 l -3.53 6.64 h -13.95 l -6.74 -12.66 l 6.45 -12.13" style="fill:#fff"/><g style="fill:#00aa87"><path d="m 14.88 11.98 l 10.73 6.54 l 3.43 -6.46"/><path d="m 18.34 30.1 l -3.11 6.64 h 13.95 l 3.53 -6.64"/></g><path d="m 14.88 11.98 l 10.73 6.54 h -7.38 l -3.07 5.77 l 3.11 5.86 l -3.11 6.64 l -6.74 -12.66 l 6.45 -12.1" style="fill:#0cf"/><path d="m 8.43 24.1 l 6.74 0.18 l 0.2 0.36 l -6.7 -0.14" style="fill:url(#0)"/><path d="m 25.6 18.52 l -10.73 -6.54 l -0.81 1.59 l 8.12 4.89" style="fill:url(#1)"/><path d="m 18.2 18.45 l 10.92 -6.7 l -3.54 6.3" style="fill:url(#2)"/><g style="fill:#00aa87"><path d="m 18.2 18.52 l 10.8 -6.46 l -3.43 6.46"/><path d="m 8.43 24.1 l 9.77 -5.6 l -3.07 5.77"/></g><path d="m 8.43 24.1 l 9.77 -5.6 l -0.67 -1.13 l -8.45 5.31" style="fill:url(#3)"/><path d="m 18.2 18.52 l -3.35 -6.54 l 0.29 12.31" style="fill:#00aa87"/><path d="m 18.34 30.1 l 10.84 6.64 l 3.53 -6.64" style="fill:#0cf"/><path d="m 14.88 11.98 l -0.81 1.59 l 0.08 10.63 l 1.02 0.05" style="fill:url(#4)"/><path d="m 15.17 24.29 l -5.14 2.8 l 5.14 9.69" style="fill:#00aa87"/><path d="m 15.17 24.29 v 12.57 l 1.25 -2.68 l 0.1 -7.31" style="fill:url(#5)"/><path d="m 15.17 36.78 l -0.49 -0.96 l 3.12 -6.55 l 0.47 0.87" style="fill:url(#6)"/><path d="m 10 27.1 l 5.14 -2.8 l -1.02 -0.05 l -4.46 2.32" style="fill:url(#7)"/><path d="m 10 27.1 l 8.25 3.05 l -3.11 -5.86" style="fill:#00aa87"/><path d="m 18.34 30.1 l -8.25 -3.05 l 0.89 1.68 l 6.79 2.68" style="fill:url(#8)"/><path d="m 18.34 30.1 l 10.84 6.64 l 1.3 -2.52 l -6.98 -4.18" style="fill:url(#9)"/><path d="m 36.4 14.1 c 0 1.33 -1.04 2.4 -2.32 2.4 c -1.28 0 -2.32 -1.07 -2.32 -2.4 c 0 -1.33 1.04 -2.4 2.32 -2.4 c 1.28 0 2.32 1.07 2.32 2.4" style="fill:#0cf"/><path d="m 36.4 14.1 c 0 1.32 -1.04 2.4 -2.32 2.4 c -1.28 0 -2.32 -1.08 -2.32 -2.4 c 0 -1.33 1.04 -2.4 2.32 -2.4 c 1.28 0 2.32 1.07 2.32 2.4" style="fill:url(#A)"/><path d="m 36.2 31.98 c 0 0.64 -0.5 1.16 -1.12 1.16 c -0.62 0 -1.12 -0.52 -1.12 -1.16 c 0 -0.64 0.5 -1.17 1.12 -1.17 c 0.62 0 1.12 0.52 1.12 1.17" style="fill:#0cf"/><path d="m 36.2 31.97 c 0 0.64 -0.5 1.17 -1.12 1.17 c -0.62 0 -1.12 -0.52 -1.12 -1.17 c 0 -0.64 0.5 -1.16 1.12 -1.16 c 0.62 0 1.12 0.52 1.12 1.16" style="fill:url(#B)"/><path d="m 18.2 18.52 l -3.35 -6.54 h 0.86 l 3.16 6.11" style="fill:url(#C)"/><path d="m 30.75 17.1 c -0.27 0 -0.49 0.22 -0.49 0.5 v 1.17 c -0.41 0.11 -0.8 0.27 -1.15 0.48 l -0.81 -0.83 c -0.19 -0.2 -0.5 -0.2 -0.69 0 l -0.8 0.81 c -0.19 0.2 -0.19 0.51 0 0.7 l 0.81 0.83 c -0.21 0.36 -0.37 0.75 -0.48 1.17 h -1.15 c -0.27 0 -0.49 0.22 -0.49 0.49 v 1.15 c 0 0.27 0.22 0.5 0.49 0.5 h 1.15 c 0.11 0.42 0.27 0.81 0.48 1.17 l -0.81 0.83 c -0.19 0.2 -0.19 0.51 0 0.7 l 0.8 0.82 c 0.19 0.19 0.5 0.19 0.69 0 l 0.81 -0.83 c 0.36 0.21 0.74 0.38 1.15 0.48 v 1.17 c 0 0.27 0.22 0.49 0.49 0.49 h 1.13 c 0.27 0 0.49 -0.22 0.49 -0.49 v -1.17 c 0.41 -0.11 0.8 -0.27 1.15 -0.48 l 0.82 0.83 c 0.19 0.19 0.5 0.19 0.69 0 l 0.8 -0.82 c 0.19 -0.19 0.19 -0.5 0 -0.7 l -0.82 -0.83 c 0.21 -0.36 0.38 -0.75 0.48 -1.17 h 1.16 c 0.27 0 0.48 -0.22 0.48 -0.5 v -1.15 c 0 -0.27 -0.21 -0.49 -0.48 -0.49 h -1.16 c -0.1 -0.42 -0.27 -0.81 -0.48 -1.17 l 0.82 -0.83 c 0.19 -0.19 0.19 -0.5 0 -0.7 l -0.8 -0.81 c -0.19 -0.2 -0.5 -0.2 -0.69 0 l -0.82 0.83 c -0.35 -0.21 -0.74 -0.38 -1.15 -0.48 v -1.17 c 0 -0.27 -0.22 -0.5 -0.49 -0.5 m -0.57 3.89 c 1.1 0 1.98 0.9 1.98 2 c 0 1.11 -0.89 2 -1.98 2 c -1.1 0 -1.99 -0.91 -1.99 -2 c 0 -1.12 0.89 -2 1.99 -2" style="fill:#0cf"/><path d="m 30.8 25.93 c -1.34 -0.26 -2.27 -1.16 -2.53 -2.42 c -0.07 -0.36 -0.05 -0.96 0.05 -1.31 c 0.42 -1.5 1.86 -2.52 3.31 -2.34 c 1.22 0.15 2.17 0.85 2.61 1.93 c 0.27 0.67 0.28 1.51 0.01 2.21 c -0.36 0.93 -1.18 1.66 -2.14 1.9 c -0.29 0.07 -1.02 0.09 -1.31 0.04 m 0.96 -1.35 c 0.63 -0.13 1.2 -0.66 1.36 -1.27 c 0.02 -0.08 0.04 -0.27 0.04 -0.41 c 0 -0.47 -0.15 -0.83 -0.5 -1.18 c -0.57 -0.57 -1.42 -0.7 -2.14 -0.34 c -1.09 0.55 -1.29 1.96 -0.39 2.76 c 0.44 0.39 1.06 0.55 1.64 0.43" style="fill:#00aa87"/></svg>