<svg xmlns="http://www.w3.org/2000/svg" viewBox="0 0 48 48" xmlns:xlink="http://www.w3.org/1999/xlink"><defs><linearGradient id="8" gradientUnits="userSpaceOnUse" x1="25.86" y1="65.4" x2="21.1" y2="80.98" gradientTransform="matrix(0.222 0 0 0.243 9.13 9)" xlink:href="#1"/><linearGradient id="D" gradientUnits="userSpaceOnUse" x1="32.85" y1="31.3" x2="36.85" y2="29" gradientTransform="matrix(0.222 0 0 0.243 9.13 9)" xlink:href="#0"/><linearGradient id="9" gradientUnits="userSpaceOnUse" x1="58.99" y1="101.3" x2="63.3" y2="93.9" gradientTransform="matrix(0.222 0 0 0.243 9.13 9)" xlink:href="#1"/><linearGradient id="B" gradientUnits="userSpaceOnUse" x1="93.9" y1="45.71" x2="93.1" y2="57.5" gradientTransform="matrix(0.222 0 0 0.243 9.1 8.32)" xlink:href="#A"/><linearGradient id="C" gradientUnits="userSpaceOnUse" x1="103.5" y1="21.85" x2="103.1" y2="27.93" gradientTransform="matrix(0.222 0 0 0.243 9.13 9)" xlink:href="#A"/><linearGradient id="A" gradientUnits="userSpaceOnUse" x1="119" y1="63.1" x2="117.9" y2="78.7" gradientTransform="matrix(0.222 0 0 0.243 8.11 8.85)"><stop style="stop-color:#007f66;stop-opacity:0"/><stop offset="1" style="stop-color:#0fc"/></linearGradient><linearGradient id="7" gradientUnits="userSpaceOnUse" x1="17.85" y1="71.2" x2="16.2" y2="67.93" gradientTransform="matrix(0.222 0 0 0.243 9.13 9)" xlink:href="#1"/><linearGradient id="0" gradientUnits="userSpaceOnUse" x1="14.93" y1="60.86" x2="14.9" y2="63.3" gradientTransform="matrix(0.222 0 0 0.243 9.13 9)"><stop style="stop-color:#001212"/><stop offset="1" style="stop-color:#001212;stop-opacity:0"/></linearGradient><linearGradient id="1" gradientUnits="userSpaceOnUse" x1="51.3" y1="16.58" x2="44.2" y2="30" gradientTransform="matrix(0.222 0 0 0.243 9.13 9)"><stop style="stop-color:#020202"/><stop offset="1" style="stop-color:#020202;stop-opacity:0"/></linearGradient><linearGradient id="6" gradientUnits="userSpaceOnUse" x1="38.4" y1="102.1" x2="33.72" y2="99.8" gradientTransform="matrix(0.222 0 0 0.243 9.13 9)" xlink:href="#0"/><linearGradient id="2" gradientUnits="userSpaceOnUse" x1="1022.5" y1="1582.4" x2="1018.6" y2="1575.6" gradientTransform="matrix(0.131 0 0 0.135 -110.3 -197.1)" xlink:href="#1"/><linearGradient id="4" gradientUnits="userSpaceOnUse" x1="34.6" y1="38.42" x2="26.62" y2="38.4" gradientTransform="matrix(0.222 0 0 0.243 9.13 9)" xlink:href="#1"/><linearGradient id="5" gradientUnits="userSpaceOnUse" x1="23.51" y1="86.8" x2="32.2" y2="86.7" gradientTransform="matrix(0.222 0 0 0.243 9.13 9)" xlink:href="#1"/><linearGradient id="3" gradientUnits="userSpaceOnUse" x1="20.2" y1="61.91" x2="14.56" y2="51.61" gradientTransform="matrix(0.222 0 0 0.243 9.13 9)" xlink:href="#1"/></defs><path d="m 2.27 32.93 c -18 -58.4 78.8 -29.2 33.54 10.81 c -9.1 8 -28.69 4.93 -33.54 -10.81" style="fill:#3d4e7f"/><g style="fill:#fff"><path d="m 15.93 12.74 h 12.62 l -3.19 6 h -6.84 l -2.85 5.39 l 2.89 5.46 h 13.35 l -3.27 6.19 h -12.95 l -6.24 -11.82 l 5.98 -11.32"/><path d="m 15.39 12.68 l 9.96 6.09 l 3.19 -6"/><path d="m 18.55 29.64 l -2.89 6.2 h 12.95 l 3.27 -6.2"/></g><path d="m 15.39 12.68 l 9.96 6.09 h -6.84 l -2.85 5.39 l 2.89 5.46 l -2.89 6.2 l -6.25 -11.83 l 5.99 -11.32" style="fill:#0cf"/><path d="m 9.41 24 l 6.24 0.17 l 0.18 0.33 l -6.22 -0.14" style="fill:url(#0)"/><path d="m 25.35 18.77 l -9.96 -6.09 l -0.76 1.49 l 7.55 4.57" style="fill:url(#1)"/><path d="m 18.46 18.72 l 10.14 -6.25 l -3.28 5.87" style="fill:url(#2)"/><g style="fill:#fff"><path d="m 18.51 18.77 l 10 -6 l -3.2 6"/><path d="m 9.41 24 l 9.1 -5.22 l -2.85 5.39"/></g><path d="m 9.41 24 l 9.1 -5.22 l -0.61 -1.05 l -7.84 4.96" style="fill:url(#3)"/><path d="m 18.51 18.77 l -3.11 -6.09 l 0.27 11.5" style="fill:#fff"/><path d="m 18.55 29.64 l 10.1 6.2 l 3.27 -6.2" style="fill:#0cf"/><path d="m 15.39 12.68 l -0.76 1.49 l 0.07 9.95 l 0.95 0.05" style="fill:url(#4)"/><path d="m 15.66 24.2 l -4.77 2.62 l 4.77 9" style="fill:#fff"/><path d="m 15.66 24.2 v 11.67 l 1.17 -2.5 l 0.09 -6.84" style="fill:url(#5)"/><path d="m 15.66 35.82 l -0.45 -0.88 l 2.91 -6.11 l 0.44 0.81" style="fill:url(#6)"/><path d="m 10.89 26.78 l 4.77 -2.62 l -0.95 -0.05 l -4.14 2.16" style="fill:url(#7)"/><path d="m 10.89 26.78 l 7.66 2.85 l -2.89 -5.46" style="fill:#fff"/><path d="m 18.55 29.64 l -7.66 -2.85 l 0.83 1.57 l 6.3 2.5" style="fill:url(#8)"/><path d="m 18.55 29.64 l 10.1 6.2 l 1.2 -2.35 l -6.48 -3.91" style="fill:url(#9)"/><path d="m 36.48 27.1 c 0 1.3 -0.96 2.35 -2.15 2.35 c -1.19 0 -2.15 -1.05 -2.15 -2.35 c 0 -1.3 0.96 -2.35 2.15 -2.35 c 1.19 0 2.15 1.05 2.15 2.35" style="fill:#0cf"/><path d="m 36.5 27.1 c 0 1.3 -0.96 2.35 -2.15 2.35 c -1.19 0 -2.16 -1.05 -2.16 -2.35 c 0 -1.3 0.96 -2.35 2.16 -2.35 c 1.19 0 2.15 1.05 2.15 2.35" style="fill:url(#A)"/><path d="m 31.41 21.66 c 0 0.98 -0.73 1.79 -1.64 1.79 c -0.9 0 -1.63 -0.8 -1.63 -1.79 c 0 -0.98 0.73 -1.79 1.63 -1.79 c 0.91 0 1.64 0.8 1.64 1.79" style="fill:#0cf"/><path d="m 31.43 21.65 c 0 0.99 -0.73 1.79 -1.64 1.79 c -0.9 0 -1.64 -0.8 -1.64 -1.79 c 0 -0.98 0.73 -1.79 1.64 -1.79 c 0.9 0 1.64 0.8 1.64 1.79" style="fill:url(#B)"/><path d="m 32.88 15.48 c 0 0.51 -0.38 0.92 -0.84 0.92 c -0.46 0 -0.84 -0.41 -0.84 -0.92 c 0 -0.51 0.38 -0.92 0.84 -0.92 c 0.46 0 0.84 0.41 0.84 0.92" style="fill:#0cf"/><path d="m 32.88 15.48 c 0 0.51 -0.38 0.92 -0.84 0.92 c -0.46 0 -0.84 -0.41 -0.84 -0.92 c 0 -0.51 0.38 -0.92 0.84 -0.92 c 0.46 0 0.84 0.41 0.84 0.92" style="fill:url(#C)"/><path d="m 18.51 18.77 l -3.11 -6.09 l 0.79 -0.02 l 2.93 5.7" style="fill:url(#D)"/></svg>