<svg xmlns="http://www.w3.org/2000/svg" viewBox="0 0 48 48"><path d="m 0.56 29.48 c 2.97 19.37 29.42 24.56 41.1 10.72 c 10.28 -10.27 7.73 -29.94 -4.89 -36.69 c -14.48 -9 -35.57 2.13 -36.71 20.1 c -0.12 1.97 0.05 3.96 0.52 5.87" style="fill:#871434"/><path d="m 32.91 24.2 c 0 4.85 -3.87 8.78 -8.64 8.78 c -4.77 0 -8.64 -3.93 -8.64 -8.78 c 0 -4.85 3.87 -8.78 8.64 -8.78 c 4.77 0 8.64 3.93 8.64 8.78" style="fill:#2f2f2f"/><path d="m 24.27 11 c -7.75 0 -14 6.39 -14 14.27 c 0 7.88 6.29 14.27 14 14.27 c 7.75 0 14 -6.39 14 -14.27 c 0 -7.88 -6.29 -14.27 -14 -14.27 m -0.77 7.79 c 0.2 0.74 0.48 1.55 0.77 2.12 c 0.28 -0.57 0.56 -1.37 0.77 -2.12 c 1.21 0.15 2.36 0.64 3.3 1.42 c -0.31 0.54 -0.61 1.16 -0.83 1.8 c 0.63 -0.21 1.24 -0.52 1.77 -0.85 c 0.77 0.96 1.26 2.12 1.41 3.35 c -0.73 0.21 -1.54 0.5 -2.11 0.78 c 0.57 0.29 1.37 0.57 2.11 0.78 c -0.15 1.23 -0.64 2.39 -1.41 3.35 c -0.53 -0.32 -1.14 -0.63 -1.77 -0.84 c 0.21 0.63 0.51 1.26 0.83 1.8 c -0.95 0.78 -2.09 1.27 -3.3 1.42 c -0.2 -0.74 -0.48 -1.54 -0.77 -2.11 c -0.28 0.57 -0.56 1.37 -0.77 2.11 c -1.21 -0.15 -2.36 -0.64 -3.3 -1.42 c 0.31 -0.54 0.63 -1.16 0.83 -1.8 c -0.63 0.21 -1.24 0.52 -1.77 0.84 c -0.77 -0.96 -1.26 -2.12 -1.41 -3.35 c 0.73 -0.21 1.54 -0.49 2.11 -0.78 c -0.57 -0.29 -1.37 -0.57 -2.11 -0.78 c 0.15 -1.23 0.64 -2.39 1.41 -3.35 c 0.53 0.32 1.14 0.64 1.77 0.85 c -0.21 -0.63 -0.51 -1.26 -0.83 -1.8 c 0.95 -0.78 2.09 -1.27 3.3 -1.42" style="fill-opacity:0.1"/><path d="m 24.27 9.93 c -7.75 0 -14 6.39 -14 14.27 c 0 7.88 6.29 14.27 14 14.27 c 7.75 0 14 -6.39 14 -14.27 c 0 -7.88 -6.29 -14.27 -14 -14.27 m 0 7.68 c 3.58 0 6.48 2.95 6.48 6.59 c 0 3.64 -2.9 6.59 -6.48 6.59 c -3.58 0 -6.48 -2.95 -6.48 -6.59 c 0 -3.64 2.9 -6.59 6.48 -6.59" style="fill:#63263f"/><path d="m 24.27 19.8 c 0.54 -1.1 1.08 -3.07 1.08 -3.73 c 0 -0.88 -2.16 -0.88 -2.16 0 c 0 0.66 0.54 2.63 1.08 3.73 m 0 8.78 c 0.54 1.1 1.08 3.07 1.08 3.73 c 0 0.88 -2.16 0.88 -2.16 0 c 0 -0.66 0.54 -2.63 1.08 -3.73 m -4.32 -4.39 c -1.08 0.55 -3 1.1 -3.67 1.1 c -0.86 0 -0.86 -2.2 0 -2.2 c 0.65 0 2.59 0.55 3.67 1.1 m 8.64 0 c 1.08 0.55 3 1.1 3.67 1.1 c 0.86 0 0.86 -2.2 0 -2.2 c -0.65 0 -2.59 0.55 -3.67 1.1 m -10.8 -5.49 c 0 -0.55 0.54 -1.1 1.08 -1.1 c 0.43 0 1.62 1.65 2.16 3.29 c -1.62 -0.55 -3.24 -1.75 -3.24 -2.2 m 0 10.98 c 0 0.55 0.54 1.1 1.08 1.1 c 0.43 0 1.62 -1.65 2.16 -3.29 c -1.62 0.55 -3.24 1.75 -3.24 2.2 m 12.96 -10.98 c 0 -0.55 -0.54 -1.1 -1.08 -1.1 c -0.43 0 -1.62 1.65 -2.16 3.29 c 1.62 -0.55 3.24 -1.75 3.24 -2.2 m 0 10.98 c 0 0.55 -0.54 1.1 -1.08 1.1 c -0.43 0 -1.62 -1.65 -2.16 -3.29 c 1.62 0.55 3.24 1.75 3.24 2.2" style="fill:#b19b80"/><path d="m 24.27 8.83 c -8.95 0 -16.2 7.37 -16.2 16.46 c 0 9.1 7.25 16.46 16.2 16.46 c 8.95 0 16.2 -7.37 16.2 -16.46 c 0 -9.1 -7.25 -16.46 -16.2 -16.46 m 0 3.29 c 1.37 0 2.73 0.23 4 0.67 c -0.43 1.2 -0.8 3 -0.8 4.82 c 1.38 -1.4 2.37 -2.81 2.97 -3.87 c 2.17 1.22 3.95 3.05 5.13 5.27 c -1.05 0.61 -2.41 1.6 -3.78 3 c 1.77 0 3.53 -0.37 4.71 -0.8 c 0.86 2.66 0.86 5.54 0 8.2 c -1.18 -0.44 -2.94 -0.81 -4.71 -0.81 c 1.37 1.39 2.73 2.39 3.78 3 c -1.18 2.22 -2.96 4.05 -5.13 5.27 c -0.59 -1.06 -1.59 -2.47 -2.97 -3.88 c 0 1.82 0.37 3.63 0.8 4.82 c -1.3 0.44 -2.67 0.66 -4 0.67 c -1.37 0 -2.73 -0.23 -4 -0.67 c 0.43 -1.2 0.8 -3 0.8 -4.82 c -1.38 1.41 -2.37 2.81 -2.97 3.88 c -2.17 -1.22 -3.95 -3.05 -5.13 -5.27 c 1.05 -0.61 2.41 -1.6 3.78 -3 c -1.77 0 -3.54 0.37 -4.71 0.81 c -0.86 -2.66 -0.86 -5.54 0 -8.2 c 1.18 0.44 2.94 0.8 4.71 0.8 c -1.37 -1.39 -2.73 -2.39 -3.78 -3 c 1.18 -2.22 2.96 -4.05 5.13 -5.27 c 0.59 1.06 1.59 2.47 2.97 3.87 c 0 -1.81 -0.37 -3.62 -0.8 -4.82 c 1.3 -0.44 2.67 -0.66 4 -0.67" style="fill-opacity:0.1"/><path d="m 19.95 11 c 0.54 1.1 1.08 3.29 1.08 5.49 c -1.62 -1.65 -2.7 -3.29 -3.24 -4.39 m -6.48 7.68 c 1.08 0.55 3.24 1.1 5.4 1.1 c -1.62 -1.64 -3.24 -2.74 -4.32 -3.29 m 7.56 19.75 c 0.54 -1.1 1.08 -3.29 1.08 -5.48 c -1.62 1.64 -2.7 3.29 -3.24 4.39 m -6.48 -7.68 c 1.08 -0.55 3.24 -1.1 5.4 -1.1 c -1.62 1.64 -3.24 2.74 -4.32 3.29 m 16.2 -19.75 c -0.54 1.1 -1.08 3.29 -1.08 5.49 c 1.62 -1.65 2.7 -3.29 3.24 -4.39 m 6.48 7.68 c -1.08 0.55 -3.24 1.1 -5.4 1.1 c 1.62 -1.64 3.24 -2.74 4.32 -3.29 m -7.56 19.75 c -0.54 -1.1 -1.08 -3.29 -1.08 -5.48 c 1.62 1.64 2.7 3.29 3.24 4.39 m 6.48 -7.68 c -1.08 -0.55 -3.24 -1.1 -5.4 -1.1 c 1.62 1.64 3.24 2.74 4.32 3.29" style="fill:#fddfb9"/><path d="m 24.27 7.73 c -8.95 0 -16.2 7.37 -16.2 16.46 c 0 9.1 7.25 16.46 16.2 16.46 c 8.95 0 16.2 -7.37 16.2 -16.46 c 0 -9.1 -7.25 -16.46 -16.2 -16.46 m 0 3.29 c 7.16 0 12.96 5.89 12.96 13.17 c 0 7.27 -5.8 13.17 -12.96 13.17 c -7.16 0 -12.96 -5.89 -12.96 -13.17 c 0 -7.27 5.8 -13.17 12.96 -13.17" style="fill:#c10a2d"/></svg>