<svg xmlns="http://www.w3.org/2000/svg" viewBox="0 0 48 48"><path d="m 44.49 11.8 c -36.3 -42.1 -71.1 44.5 -15.1 35.56 c 12.3 -1.95 24.82 -24.2 15.1 -35.56" style="fill:#b22121"/><path d="m 23.2 40.2 c -0.17 -0.13 -3.16 -1.84 -6.65 -3.82 c -3.49 -1.97 -6.45 -3.68 -6.57 -3.78 c -0.2 -0.17 -0.21 -0.7 -0.21 -7.75 c 0 -4.16 0.03 -7.66 0.07 -7.77 c 0.04 -0.11 0.45 -0.41 0.9 -0.66 c 5.06 -2.87 12 -6.86 12.34 -7.08 c 0.41 -0.27 0.45 -0.28 0.75 -0.08 c 0.17 0.11 3.2 1.84 6.72 3.84 c 3.53 2 6.43 3.7 6.45 3.76 c 0.04 0.12 -6.11 3.67 -6.56 3.79 c -0.16 0.04 -1.35 -0.57 -3.48 -1.79 c -1.79 -1.02 -3.33 -1.85 -3.44 -1.85 c -0.2 0 -6.43 3.45 -6.82 3.78 c -0.2 0.17 -0.22 0.51 -0.22 3.94 c 0 2.82 0.04 3.81 0.16 3.95 c 0.21 0.25 6.64 3.9 6.89 3.9 c 0.2 0 1.07 -0.49 8.93 -4.99 c 2.52 -1.44 4.63 -2.59 4.7 -2.55 c 0.19 2.63 0.12 4.52 0.12 7.41 l -0.47 0.3 c -4.5 2.79 -8.8 5.26 -13.1 7.5 c -0.23 0.16 -0.29 0.16 -0.56 -0.04" style="fill:#f84769"/><path d="m 30.73 28.77 c 2.09 -1.2 4.16 -2.42 6.32 -3.5 c 0.12 2.69 0.16 4.75 0.09 7.28 c -0.58 0.31 -1.14 0.71 -1.77 0.93 c -0.8 -0.71 -5 -4.3 -4.64 -4.71 m -7.18 -11.96 c -1.07 0.56 -2.07 1.29 -3.18 1.78 c -0.25 0.07 -4.98 -4.5 -4.86 -4.69 c 2.72 -1.25 5.06 -3.51 7.96 -4.45 c 0.21 0 13.15 7.3 13.2 7.45 c 0.04 0.1 -5.73 3.47 -6.21 3.63 c -2.39 -1.08 -4.69 -2.52 -6.91 -3.72" style="fill:#fb7d34"/><path d="m 16.56 20.62 c 2.25 -1.33 4.74 -2.68 6.76 -3.75 c 2.56 1.04 4.38 2.2 7 3.64 c -2.57 1.39 -4.64 2.52 -7 3.78 c -2.49 -1.32 -4.62 -2.57 -6.77 -3.68" style="fill:#fbb4b3"/></svg>