<svg xmlns="http://www.w3.org/2000/svg" viewBox="0 0 48 48"><path d="m 11.29 5.13 c 24.54 -17.2 49.4 14.55 29.42 34.8 c -18.84 19.1 -48.1 1.39 -38.98 -22.35 c 1.91 -4.95 5 -9.3 9.55 -12.45" style="fill:#392e78"/><path d="m 12.92 12.64 h 22.1 c 0.25 0 0.45 0.2 0.45 0.45 v 3.38 c 0 0.25 -0.2 0.45 -0.45 0.45 h -22.1 c -0.25 0 -0.45 -0.2 -0.45 -0.45 v -3.38 c 0 -0.25 0.2 -0.45 0.45 -0.45" style="fill:#8d8d8d"/><path d="m 12.92 19.1 h 22.1 c 0.25 0 0.45 0.2 0.45 0.45 v 3.38 c 0 0.25 -0.2 0.45 -0.45 0.45 h -22.1 c -0.25 0 -0.45 -0.2 -0.45 -0.45 v -3.38 c 0 -0.25 0.2 -0.45 0.45 -0.45" style="fill:#81d453"/><path d="m 12.91 25.48 h 22.1 c 0.25 0 0.45 0.2 0.45 0.45 v 3.38 c 0 0.25 -0.2 0.45 -0.45 0.45 h -22.1 c -0.25 0 -0.45 -0.2 -0.45 -0.45 v -3.38 c 0 -0.25 0.2 -0.45 0.45 -0.45" style="fill:#fccc53"/><path d="m 12.92 31.89 h 22.1 c 0.25 0 0.45 0.2 0.45 0.45 v 3.38 c 0 0.25 -0.2 0.45 -0.45 0.45 h -22.1 c -0.25 0 -0.45 -0.2 -0.45 -0.45 v -3.38 c 0 -0.25 0.2 -0.45 0.45 -0.45" style="fill:#4d8cd6"/></svg>