<svg xmlns="http://www.w3.org/2000/svg" viewBox="0 0 48 48"><path d="m 39.2 42.54 c -28.53 22.1 -58.1 -32.91 -22.83 -40.95 c 22.2 -8.25 43.95 24.58 22.83 40.95" style="fill:#6c453b"/><path d="m 22.96 36.43 c 0 -0.15 -0.13 -0.36 -0.28 -0.46 c -0.39 -0.25 -1.86 -0.48 -2.46 -0.39 l -0.49 0.08 l 0.26 -0.33 c 0.35 -0.45 0.85 -2.13 0.95 -3.21 c 0.04 -0.49 0.13 -0.95 0.18 -1.04 c 0.07 -0.12 0.49 -0.02 1.74 0.42 c 2.85 1 4.7 1.75 4.8 1.94 c 0.05 0.1 0.28 0.63 0.51 1.17 l 0.41 0.99 h -1.11 c -0.87 0 -1.23 0.06 -1.61 0.25 l -0.5 0.25 l -0.22 -1.18 c -0.23 -1.25 -0.48 -1.98 -0.68 -1.98 c -0.19 0 -0.34 0.34 -0.94 2.13 c -0.3 0.9 -0.55 1.51 -0.55 1.36" style="fill:#29b9ee"/><g style="fill:#f8e8b9"><path d="m 18.1 37.42 c -0.21 -0.55 0.82 -1.47 1.88 -1.67 c 0.85 -0.16 2.4 0.04 2.71 0.35 c 0.22 0.22 0.24 1.16 0.04 1.38 c -0.11 0.1 -0.8 0.14 -2.35 0.14 c -1.93 0 -2.21 -0.02 -2.28 -0.2"/><path d="m 13.36 23.44 c -0.16 -0.05 -0.41 -0.24 -0.55 -0.43 c -0.24 -0.32 -0.26 -0.5 -0.26 -2.59 c 0 -1.23 0.04 -2.39 0.09 -2.58 c 0.14 -0.51 0.59 -0.45 1.25 0.16 c 0.79 0.73 1.29 2.25 1.49 4.6 l 0.09 0.96 l -0.91 -0.01 c -0.5 -0.01 -1.04 -0.05 -1.2 -0.1"/><path d="m 25.55 37.1 c -0.21 -0.77 0.01 -1.11 0.86 -1.29 c 1.47 -0.32 2.62 -0.09 3.41 0.67 c 0.59 0.57 0.69 0.98 0.26 1.1 c -0.15 0.04 -1.2 0.07 -2.32 0.07 h -2.05"/><path d="m 31.5 26.56 c -0.05 -0.11 -0.05 -1.04 0 -2.07 c 0.14 -2.74 0.42 -3.69 1.13 -3.76 c 0.78 -0.07 1.16 0.73 1.16 2.46 c 0 1.75 -0.48 2.76 -1.55 3.33 c -0.56 0.29 -0.63 0.29 -0.75 0.04"/></g><path d="m 29.4 18.88 c 0 3.79 -2.18 6.86 -4.87 6.86 c -2.69 0 -4.86 -3.07 -4.86 -6.86 c 0 -3.79 2.18 -6.86 4.86 -6.86 c 2.69 0 4.87 3.07 4.87 6.86" style="fill:#f1e0b1"/><g style="fill:#baba25"><path d="m 26.69 24.48 c -0.42 -0.05 -0.89 -0.16 -1.05 -0.25 c -0.16 -0.09 -0.39 -0.12 -0.52 -0.07 c -0.29 0.1 -0.16 -0.03 0.51 -0.53 c 0.65 -0.49 1.38 -1.62 1.38 -2.14 c 0 -0.23 -0.14 -0.67 -0.32 -0.99 c -0.6 -1.08 -0.38 -2.73 0.6 -4.57 c 0.29 -0.53 0.48 -1 0.44 -1.04 c -0.04 -0.04 -0.54 0.06 -1.1 0.23 l -1.02 0.3 l -0.58 -0.55 c -0.32 -0.3 -0.67 -0.55 -0.77 -0.55 c -0.11 0 -0.42 0.24 -0.7 0.53 c -0.36 0.38 -0.61 0.53 -0.88 0.53 c -0.21 0 -0.55 0.06 -0.77 0.14 c -0.35 0.13 -0.43 0.26 -0.71 1.22 c -0.18 0.59 -0.39 1.4 -0.48 1.8 c -0.19 0.85 -0.23 2.88 -0.08 3.62 c 0.09 0.45 0.08 0.5 -0.08 0.36 c -0.11 -0.09 -0.6 -0.2 -1.1 -0.24 l -0.91 -0.08 v -0.96 c 0 -0.57 0.16 -1.7 0.38 -2.78 c 0.21 -1 0.47 -2.69 0.57 -3.76 c 0.2 -2 0.34 -2.54 0.87 -3.18 c 0.33 -0.41 0.99 -0.58 2.39 -0.6 c 0.54 -0.01 0.9 -0.12 1.59 -0.48 c 1.09 -0.58 2.02 -0.71 2.68 -0.4 c 0.27 0.13 0.82 0.7 1.38 1.41 c 0.52 0.66 1.08 1.29 1.25 1.4 c 0.51 0.34 0.59 0.62 0.29 1.02 l -0.27 0.34 l 0.36 1.02 c 0.36 1.02 0.36 1.03 0.41 5.21 l 0.05 4.18 l -1.52 -0.02 c -0.83 -0.01 -1.86 -0.06 -2.29 -0.1"/><path d="m 18 28.83 c 0 -0.1 0.18 -0.67 0.4 -1.27 l 0.4 -1.09 l -0.44 -0.3 l -0.44 -0.3 l 0.43 -0.7 c 0.24 -0.39 0.59 -0.77 0.77 -0.86 c 0.48 -0.21 1.8 -0.2 1.89 0.02 c 0.08 0.18 -0.07 1.04 -0.53 2.95 l -0.3 1.24 l -0.84 0.25 c -1 0.29 -1.35 0.31 -1.35 0.07"/><path d="m 29.43 28.84 c -0.45 -0.42 -0.9 -0.77 -0.99 -0.77 c -0.09 0 -0.49 0.25 -0.88 0.56 c -0.39 0.3 -0.79 0.56 -0.88 0.56 c -0.23 0 -0.75 -1.11 -1.17 -2.46 c -0.18 -0.59 -0.33 -1.09 -0.33 -1.13 c 0 -0.16 1.19 -0.01 2.29 0.29 c 1.56 0.41 2.75 1 2.98 1.48 c 0.2 0.42 0.16 2.12 -0.05 2.19 c -0.08 0.03 -0.52 -0.3 -0.96 -0.72"/></g><path d="m 24.39 31.86 c -3.84 -1.46 -4.92 -2 -4.49 -2.29 c 0.17 -0.11 0.47 -1.14 0.67 -2.29 c 0.43 -2.49 0.21 -2.94 -1.2 -2.41 c -0.53 0.2 -0.98 0.23 -1.08 0.07 c -0.09 -0.15 -0.7 -0.28 -1.33 -0.28 c -0.66 0 -1.32 -0.2 -1.54 -0.46 c -0.25 -0.3 -0.26 -0.46 -0.05 -0.46 c 0.21 0 0.26 -0.54 0.14 -1.56 c -0.18 -1.54 -0.18 -1.55 0.55 -1.32 c 0.4 0.13 1.61 0.4 2.68 0.61 c 1.59 0.3 2.1 0.55 2.74 1.34 c 0.43 0.53 1.06 0.96 1.39 0.95 c 1.32 -0.02 8.22 -0.04 8.44 -0.03 c 0.13 0.01 0.23 0.7 0.23 1.54 c 0 0.92 0.13 1.52 0.34 1.52 c 0.24 0 0.23 0.14 -0.04 0.46 c -0.48 0.58 -1.04 0.59 -1.51 0.02 c -0.39 -0.47 -3.18 -1.38 -4.24 -1.38 c -0.85 0 -0.8 0.5 0.25 2.79 c 0.96 2.09 1.86 4.21 1.86 4.4 c 0 0.21 -0.45 0.07 -3.8 -1.2" style="fill:#ef6442"/><g style="fill:#5f5c58"><path d="m 22.48 17.75 c 0.31 0 0.56 0.44 0.56 0.98 v 1.57 c 0 0.54 -0.25 0.98 -0.56 0.98 c -0.31 0 -0.56 -0.44 -0.56 -0.98 v -1.57 c 0 -0.54 0.25 -0.98 0.56 -0.98"/><path d="m 24.44 17.75 c 0.31 0 0.56 0.44 0.56 0.98 v 1.57 c 0 0.54 -0.25 0.98 -0.56 0.98 c -0.31 0 -0.56 -0.44 -0.56 -0.98 v -1.57 c 0 -0.54 0.25 -0.98 0.56 -0.98"/></g></svg>