<svg xmlns="http://www.w3.org/2000/svg" viewBox="0 0 48 48"><path d="m 31.81 45.93 c -23.89 9.9 -36.2 -15.91 -30.1 -32.3 c 4.25 -11.45 21.2 -17.51 34.88 -9.8 c 17.27 9.74 13.59 34.46 -4.82 42.1" style="fill:#e3f4cd"/><path d="m 16 16.93 h 15 v 15.97 h -15" style="fill:#c5d2d8"/><g style="fill:#ffd733"><path d="m 15 11.95 h 17.39 v 3.55 h -17.39"/><path d="m 14.77 34.2 h 17.39 v 3.55 h -17.39"/></g><path d="m 11.44 37.2 c -0.33 -0.2 -0.39 -0.57 -0.39 -2.45 v -2.22 h 1.29 c 1.64 0 2.28 -0.41 2.28 -1.46 c 0 -1.2 -0.62 -1.66 -2.23 -1.66 h -1.34 v -10.1 h 1.35 c 1.81 0 2.22 -0.24 2.22 -1.31 c 0 -1.15 -0.51 -1.55 -2.19 -1.73 l -1.38 -0.14 v -1.72 c 0 -2.24 0.21 -2.46 2.42 -2.46 h 1.6 c 0 0.66 0 1.32 0 1.98 l 4.18 0.07 c 2.3 0.04 6.17 0.04 8.6 0 l 4.41 -0.08 c 0 -0.66 0 -1.31 0 -1.97 h 1.88 c 2.2 0 2.14 -0.06 2.14 2.45 v 1.74 l -1.45 0.09 c -1.66 0.11 -2.2 0.47 -2.2 1.51 c 0 1.15 0.6 1.57 2.23 1.57 h 1.42 v 9.83 h -1.29 c -1.64 0 -2.29 0.41 -2.29 1.45 c 0 1.14 0.46 1.46 2.14 1.46 h 1.44 v 2.41 c 0 1.58 -0.09 2.5 -0.27 2.68 c -0.16 0.16 -0.95 0.27 -2 0.27 h -1.74 c 0 -0.8 0 -1.59 0 -2.39 l -3.66 -0.13 c -2 -0.07 -5.93 -0.07 -8.71 0 l -5 0.13 c 0 0.8 0 1.59 0 2.39 h -1.5 c -0.83 0 -1.68 -0.11 -1.9 -0.23 m 2.42 -1.88 c 0.18 -0.7 -0.26 -1.27 -0.89 -1.18 c -0.29 0.04 -0.5 0.26 -0.54 0.58 c -0.11 0.8 0.12 1.16 0.73 1.16 c 0.43 -0.09 0.62 -0.26 0.7 -0.56 m 20.95 -0.02 c 0.2 -0.19 0.35 -0.43 0.35 -0.54 c 0 -0.29 -0.66 -0.89 -0.98 -0.89 c -0.43 0 -0.81 0.49 -0.81 1.03 c 0 0.75 0.84 0.99 1.43 0.4 m -4.42 -3.58 c 0.48 -0.13 0.48 -0.15 0.47 -7.25 l -0.02 -7.13 h -14.66 v 7.11 c 0 3.91 0.07 7.17 0.15 7.25 c 0.18 0.18 13.39 0.2 14.1 0.02 m -16.7 -17.27 c 0.1 -0.7 -0.53 -1.2 -1.11 -0.89 c -0.41 0.22 -0.57 1.09 -0.26 1.41 c 0.09 0.09 0.41 0.13 0.73 0.09 c 0.4 -0.13 0.6 -0.32 0.64 -0.61 m 21.1 0.14 c 0.47 -0.35 0.4 -1 -0.15 -1.36 c -0.77 -0.49 -1.64 0.61 -1.05 1.32 c 0.34 0.4 0.68 0.41 1.2 0.03" style="fill:#00b79f"/><path d="m 15.28 30.43 c -0.03 -1.46 -0.05 -3.43 -0.05 -4.38 c 0 -1.52 -0.02 -1.78 -0.16 -2.18 c -0.09 -0.36 -0.14 -0.7 -0.39 -0.9 c -0.21 -0.11 -0.24 -0.16 -0.21 -0.46 c 0.06 -0.45 0.3 -0.36 0.63 -0.54 c 0.07 -0.07 0.1 -0.91 0.11 -2.89 l 0.02 -2.8 l 8.23 0.06 c 4.52 0.03 8.24 0.07 8.26 0.09 c 0.02 0.02 0.05 1.29 0.07 2.82 l 0.04 2.79 l 0.49 0.05 c 0.27 0.03 0.54 0.1 0.58 0.16 c 0.16 0.66 -0.4 0.78 -0.51 1.24 c -0.21 0.54 -0.48 0.64 -0.52 1.07 c -0.03 0.31 -0.05 2 -0.06 3.8 c 0 1.79 -0.03 3.58 -0.06 3.98 l -0.05 0.73 h -16.37 m 15.32 -1.34 c 0.08 -0.08 0.11 -0.74 0.13 -2.9 l 0.03 -2.8 l -1.27 0.4 c -1.38 0.34 -1.43 -0.09 -2.77 -0.35 c -0.97 0.16 -1.75 -1.57 -1.91 -1.43 c 0.53 0.57 -0.85 -1.95 -2.21 -0.32 c -0.16 0.37 -0.91 1.34 -0.96 1.36 c -1.06 0.42 -2.78 1.16 -3.7 0.42 c -1.07 0.14 -1.17 -1.34 -1.63 -1.35 c -0.14 0 -0.16 0.91 -0.07 4.74 l 0.05 2.29 l 0.36 0.04 c 0.2 0.02 3.39 0.03 7.11 0.02 c 5.42 -0.01 6.77 -0.03 6.85 -0.11 m 0.04 -9.72 c 0.08 -0.08 0.09 -4.57 0.01 -4.65 c -0.03 -0.03 -3.27 -0.03 -7.21 0 l -7.17 0.06 v 4.61 l 1.46 0.02 c 3.04 0.05 12.85 0.02 12.91 -0.05"/><path d="m 21.82 21.57 c -1.07 -0.32 -0.79 -1.28 -0.79 -1.75 c -0.01 -0.61 -0.14 -1 0.33 -1.37 c 0.66 -0.52 1.52 -0.51 2.11 0 c 0.19 0.17 0.33 0.35 0.31 0.41 c -0.07 0.17 -0.37 0.14 -0.68 -0.06 c -0.3 -0.2 -0.62 -0.25 -1.05 -0.15 c -0.44 0.73 -0.22 1.21 -0.22 2.32 c 0.43 0 0.98 0.05 1.29 -0.16 c 0.06 -0.09 0.21 -0.16 0.35 -0.16 c 0.38 0 0.32 0.32 -0.11 0.62 c -0.57 0.26 -1.08 0.41 -1.53 0.3"/><path d="m 24.47 21.5 c -0.23 -1.1 -0.19 -2.2 -0.07 -3.3 l 0.48 -0.06 c 0.78 -0.09 1.2 0 1.61 0.34 c 0.33 0.28 0.36 0.33 0.36 0.73 c 0 0.38 -0.04 0.47 -0.26 0.69 c -0.33 0.32 -0.72 0.47 -1.22 0.47 h -0.39 v 0.44 c 0 0.63 -0.18 0.87 -0.5 0.68 m 1.59 -1.81 c 0.18 -0.32 0.12 -0.57 0.02 -0.94 c -0.32 -0.1 -0.7 -0.14 -0.97 0 c -0.19 0.17 -0.2 0.77 -0.01 0.95 c 0.18 0.17 0.77 0.16 0.96 -0.01"/><path d="m 28.37 21.57 c -1.04 -0.31 -1.02 -0.68 -1 -1.7 c 0.02 -1.45 0.05 -1.63 0.35 -1.63 c 0.61 -0.08 0.32 1.3 0.42 2.27 c 0.03 0.46 -0.02 0.53 0.43 0.53 c 0.67 0 0.69 -0.03 0.74 -1.57 c 0.13 -0.39 -0.28 -1.44 0.28 -1.31 c 0.13 0.03 0.27 0.08 0.31 0.11 c 0.04 0.03 0.09 0.64 0.12 1.36 c 0.08 0.8 0.19 1.18 -0.4 1.67 c -0.49 0.4 -0.63 0.43 -1.24 0.26"/><path d="m 17.1 28.1 c 0.07 -0.35 0.2 -0.37 0.61 -0.09 c 0.56 0.39 2.52 2.59 2.48 2.71 c -1.11 0.21 -1.66 -0.04 -3.04 -0.02 c -0.09 -0.84 -0.19 -1.76 -0.05 -2.61"/></svg>