<svg xmlns="http://www.w3.org/2000/svg" viewBox="0 0 48 48"><path d="m 0.31 29.48 c 2.07 19.37 28.3 24.56 40.58 10.72 c 10.76 -10.27 9.13 -29.94 -3.18 -36.69 c -14.1 -9 -35.67 2.13 -37.65 20.1 c -0.21 1.97 -0.14 3.96 0.24 5.87" style="fill:#105331"/><g style="fill:#fff"><path d="m 24.35 35.3 l -1.35 -0.07 c -0.74 -0.04 -3.65 -0.07 -6.46 -0.07 h -5.11 v -9.66 l -0.34 -0.33 c -0.52 -0.5 -1.3 -1.59 -1.66 -2.32 c -1.56 -3.12 -0.55 -7 2.32 -8.92 c 1 -0.67 1.7 -0.94 2.88 -1.08 c 2.15 -0.26 3.8 0.29 5.56 1.84 l 0.96 0.84 h 16.1 v 19.76 l -3.18 -0.07 c -1.75 -0.04 -4 -0.03 -5.1 0.02 l -1.92 0.09 c -0.18 0.8 -1.05 1.24 -1.49 1.51 c -0.42 -0.54 -0.78 -0.99 -1.21 -1.53 m -1.26 -1.32 c 0.07 -0.02 0.14 -0.14 0.14 -0.27 c 0 -0.31 -4.07 -6.46 -4.57 -6.9 c -0.45 -0.4 -0.5 -0.41 -1.5 -0.19 c -0.93 0.21 -2.53 0.21 -3.37 0 c -1.09 -0.27 -1.23 -0.24 -1.31 0.25 c -0.09 0.55 -0.09 5.82 0 6.58 l 0.07 0.58 l 2.39 0.03 c 2.7 0.04 7.94 -0.02 8.15 -0.09 m 12.7 -0.04 c 0.11 -0.07 0.17 -1.52 0.26 -7 c 0.13 -8.2 0.11 -10.16 -0.13 -10.31 c -0.19 -0.13 -8.39 -0.15 -11.78 -0.04 l -2.23 0.07 v 0.29 c 0.55 1.86 0.55 3.48 0.11 5 c -0.19 0.64 -0.98 2 -1.7 2.95 c -0.11 0.14 0.34 0.87 3.5 5.75 c 1.13 1.75 2.15 3.21 2.25 3.25 c 0.28 0.11 9.55 0.11 9.72 0 m -18.8 -8.44 c 0.98 -0.25 1.68 -0.69 2.54 -1.57 c 1.3 -1.32 1.72 -2.38 1.71 -4.34 c 0 -1.68 -0.52 -2.89 -1.74 -4.14 c -1.21 -1.23 -2.35 -1.65 -4.31 -1.59 c -1.24 0.04 -1.32 0.05 -2.16 0.47 c -1.74 0.87 -3 2.59 -3.27 4.42 c -0.13 0.94 -0.05 2.15 0.2 2.9 c 0.57 1.75 2.52 3.57 4.14 3.9 c 0.95 0.06 1.98 0.17 2.89 -0.05"/><path d="m 17.2 33.4 c -0.04 -0.03 -0.06 -0.14 -0.06 -0.24 c -0.16 -0.51 -0.59 -0.85 -0.77 -1.37 c -0.19 -0.55 -0.65 -0.3 -0.89 0.01 c -0.29 0.39 -0.45 0.39 -0.7 0.04 c -0.27 -0.61 -0.2 -0.97 -0.2 -1.65 l -0.49 -0.18 c -0.54 -0.2 -0.55 -0.23 -0.34 -0.57 c 0.16 -0.27 0.32 -0.34 0.8 -0.34 c 1.8 -0.22 0.9 -1.39 1.38 -1.66 c 0.21 -0.12 0.29 -0.12 0.55 -0.03 c 0.17 0.06 0.45 0.14 0.63 0.19 c 0.59 0.3 0.87 0.66 1.2 1.17 c -2.09 -0.73 -1.95 0.49 -1.19 1.64 c 0.34 0.51 0.44 0.54 1.45 0.42 c 1.19 -0.16 0.92 -0.63 1.54 0.09 c 0.31 0.36 0.7 0.86 0.87 1.11 c 0.26 0.39 0.28 0.45 0.12 0.39 c -0.43 -0.14 -1.1 -0.15 -1.64 -0.02 c -0.83 0.06 -1.15 1.04 -1.89 1.06 c -0.16 0 -0.32 -0.03 -0.36 -0.06"/><path d="m 25.63 27.77 c -0.59 -0.45 -0.88 -0.6 -1.53 -0.81 c -0.21 -0.07 -2.42 -1.99 -2.17 -2.34 c 0.44 -1.69 2 1.14 2.98 -0.13 c 0.29 -0.26 0.7 -0.51 0.91 -0.55 c 0.75 -0.28 0.5 -1.21 -0.13 -1.3 c -0.26 -0.03 -0.33 -0.09 -0.29 -0.25 c 0.14 -0.5 0.34 -1.37 0.4 -1.8 c 0.04 -0.26 -1.91 -1.09 -1.74 -1.3 c -1.15 -2.16 0.76 -1.43 8.73 -1.36 l 2.28 0.09 v 4.59 c -0.93 -2.98 -2 -1.09 -0.67 1.3 c -0.74 2.72 -2.74 -1 -2.95 1 c -0.16 1.55 -0.11 3.82 -0.73 3.82 c -0.46 0 -1.08 -2.36 -1.36 -2.98 c -0.24 -0.55 -0.68 -0.77 -1.04 -0.55 c -0.41 0.26 -1.6 1.83 -1.67 2.21 c -0.13 0.64 0.08 2.36 -0.02 2.37 c -1.8 0.09 -0.66 -1.75 -1 -2 m 5.39 -5.23 c 0.06 -2.18 -2.08 -1.82 -3.3 0.34 c -0.9 0.59 1.63 1.45 2.47 0.56"/><path d="m 20.61 20.64 c -0.04 0.04 -0.17 0.07 -0.3 0.07 c -0.64 0.18 -1.05 0.65 -1.7 0.86 c -0.56 1.58 0.67 1.98 -2 1.97 l -0.22 0.54 c -0.25 0.59 -1.38 0.85 -1.83 0.66 c -3.78 -1.58 0.69 -0.64 0.69 -1.16 c -0.28 -2 -1.72 -1 -2.06 -1.53 c -0.15 -0.23 -0.15 -0.32 -0.04 -0.62 c 5.14 0.7 2.62 -2.17 4.35 -3.29 c 0.99 -0.7 1.69 -0.68 1.87 0 c 0.07 0.92 1.3 1.28 1.32 2.11 c 0 0.18 -0.03 0.36 -0.07 0.39"/><path d="m 34.61 32.91 c -0.05 0 -0.18 -0.04 -0.29 -0.1 c -0.62 -0.2 -1.13 -0.12 -1.76 -0.3 c -0.98 0.65 -0.01 1.45 -2.37 0.2 l -0.37 0.21 c -0.4 0.23 -2.39 0.41 -2.7 0.07 c -0.25 -0.26 1.69 -0.59 1.85 -0.89 c 0.36 -1.28 -1.22 -1.38 -1.36 -1.84 c -0.06 -0.2 -0.04 -0.26 0.15 -0.37 c 2.68 2.41 4.39 -2.08 4.58 0.41 c 1.09 0.06 2.8 -5.08 2.76 -4.61 c -0.22 0.56 -0.08 6.55 -0.32 7 c -0.05 0.1 -0.14 0.19 -0.18 0.2"/></g></svg>