<svg xmlns="http://www.w3.org/2000/svg" viewBox="0 0 48 48"><path d="m 2.27 15.32 c -18 57.93 78.8 28.96 33.54 -10.73 c -9.1 -7.95 -28.69 -4.9 -33.54 10.73" style="fill:#5237f2"/><path d="m 9.18 36.4 c -0.04 -0.06 0.09 -0.78 0.29 -1.59 c 0.2 -0.82 0.33 -1.53 0.29 -1.58 c -0.03 -0.05 -0.43 -0.1 -0.89 -0.1 c -0.83 0 -1.21 -0.07 -1.21 -0.24 c 0 -0.05 0.67 -0.79 1.5 -1.65 l 1.5 -1.56 l 0.38 -1.65 c 0.21 -0.91 0.38 -1.68 0.38 -1.72 c 0 -0.04 -0.35 -0.07 -0.78 -0.07 c -0.44 0 -0.82 -0.06 -0.86 -0.14 c -0.05 -0.08 0.58 -0.83 1.51 -1.79 l 1.59 -1.65 l 5.07 -0.04 c 5.68 -0.04 5.47 -0.07 5.24 0.81 c -0.07 0.26 -0.21 0.84 -0.3 1.29 c -0.1 0.45 -0.31 1.41 -0.48 2.13 c -0.27 1.18 -0.54 2.41 -1.31 5.89 c -0.39 1.77 -0.21 1.63 -2 1.63 c -0.96 0 -1.61 -0.05 -1.69 -0.14 c -0.07 -0.08 -0.1 -0.35 -0.07 -0.63 l 0.06 -0.49 h -1.89 c -2.21 0 -1.96 -0.18 -2.39 1.75 c -0.39 1.77 -0.2 1.63 -2.16 1.63 c -0.93 0 -1.71 -0.05 -1.75 -0.11 m 9.34 -8.1 c 0.15 -0.61 0.3 -1.33 0.35 -1.6 l 0.08 -0.5 l -1.91 0.04 l -1.91 0.04 l -0.34 1.38 c -0.19 0.76 -0.34 1.48 -0.34 1.6 c 0 0.21 0.14 0.22 1.9 0.19 l 1.91 -0.03 m 4.99 6.98 c -0.04 -0.05 0.15 -1 0.4 -2.1 c 0.51 -2.2 1.69 -7.35 1.79 -7.79 c 0.06 -0.27 0.03 -0.28 -0.8 -0.28 c -0.63 0 -0.86 -0.05 -0.86 -0.16 c 0 -0.09 0.73 -0.91 1.61 -1.82 l 1.62 -1.66 h 5 c 4.15 0 5.06 0.03 5.18 0.18 c 0.11 0.13 0.07 0.48 -0.16 1.47 c -0.16 0.71 -0.47 2.09 -0.68 3.05 c -0.84 3.88 -1.03 4.64 -1.14 4.83 c -0.07 0.11 -0.77 0.74 -1.56 1.41 l -1.44 1.22 h -2.29 c -1.8 0 -2.29 -0.04 -2.29 -0.16 c 0 -0.09 0.7 -0.88 1.55 -1.75 c 1.48 -1.51 1.58 -1.59 2.05 -1.59 c 0.27 0 0.55 -0.07 0.62 -0.16 c 0.07 -0.09 0.24 -0.67 0.38 -1.29 c 0.14 -0.62 0.36 -1.6 0.49 -2.18 c 0.13 -0.59 0.24 -1.14 0.24 -1.23 c 0 -0.13 -0.42 -0.15 -1.9 -0.13 l -1.9 0.04 l -0.38 1.63 c -0.21 0.89 -0.73 3.09 -1.14 4.89 c -0.42 1.79 -0.81 3.36 -0.87 3.48 c -0.1 0.19 -0.31 0.22 -1.79 0.22 c -0.93 0 -1.71 -0.05 -1.75 -0.1 m -3.38 -15.28 c -1.44 -0.03 -1.91 -0.08 -1.91 -0.2 c 0 -0.09 0.73 -0.9 1.62 -1.81 l 1.61 -1.66 h 4.45 c 3.96 0 4.46 0.02 4.52 0.2 c 0.05 0.14 -0.35 0.65 -1.36 1.7 c -0.79 0.82 -1.59 1.58 -1.77 1.68 c -0.33 0.18 -1.58 0.2 -7.16 0.09 m -10.1 -0.17 c -0.05 -0.07 0.59 -0.84 1.48 -1.75 l 1.56 -1.62 h 0.63 c 0.73 0 0.67 0.05 4.63 -3.74 l 2.36 -2.26 h 5.78 h 5.78 l 0.29 0.41 c 0.16 0.22 0.94 1.48 1.72 2.79 c 0.79 1.31 1.5 2.46 1.58 2.55 c 0.11 0.13 0.47 0.17 1.34 0.16 c 1.31 -0.02 1.59 0.07 1.4 0.44 c -0.07 0.13 -0.78 0.9 -1.58 1.71 l -1.46 1.47 h -1.58 l -1.78 -2.95 l -1.78 -2.95 h -8.41 l -1.8 1.71 c -0.99 0.94 -2.39 2.27 -3.11 2.95 l -1.3 1.23 h -2.84 c -1.93 0 -2.87 -0.05 -2.93 -0.14" style="fill:#f47a8e"/></svg>