<svg xmlns="http://www.w3.org/2000/svg" viewBox="0 0 48 48"><path d="m 6.3 11.51 c -17.2 18.27 6.36 39.55 29.82 36.1 c 17.48 -2.42 15.6 -50.64 -9.76 -47.4 c -7.54 0.96 -14.46 5.31 -20.1 11.27" style="fill:#d2d2d2"/><path d="m 13.37 38.88 c -0.45 -0.19 -0.97 -0.71 -1.14 -1.14 c -0.23 -0.59 -0.06 -0.65 1.87 -0.65 c 1.94 0 2.11 0.06 1.88 0.65 c -0.4 1 -1.64 1.55 -2.6 1.14 m 5.25 -0.07 c -1.04 -0.52 -1.81 -1.84 -1.64 -2.79 c 0.1 -0.58 0.31 -0.99 0.5 -0.99 c 0.09 0 0.7 0.63 1.36 1.41 c 0.65 0.77 1.25 1.44 1.32 1.49 c 0.07 0.05 0.46 0.09 0.88 0.09 c 0.8 0 1 0.13 0.74 0.43 c -0.52 0.59 -2.29 0.81 -3.14 0.38 m 6.79 0 c -0.52 -0.26 -0.77 -0.52 -0.66 -0.69 c 0.05 -0.07 0.78 -0.12 1.94 -0.12 c 1.9 0 2.17 0.06 1.86 0.43 c -0.52 0.59 -2.29 0.81 -3.14 0.38 m 6.78 0 c -0.51 -0.26 -0.77 -0.52 -0.66 -0.69 c 0.05 -0.07 0.67 -0.12 1.58 -0.12 c 1.39 0 1.5 -0.02 1.58 -0.23 c 0.11 -0.34 -0.13 -0.72 -1.45 -2.27 c -0.71 -0.84 -1.16 -1.46 -1.12 -1.56 c 0.1 -0.24 1.02 -0.44 1.68 -0.37 c 1.15 0.13 2.08 0.85 2.46 1.89 c 0.22 0.61 0.23 0.89 0.05 1.57 c -0.16 0.61 -0.91 1.46 -1.57 1.78 c -0.63 0.3 -1.93 0.3 -2.54 0 m 5.24 -0.83 c -0.22 -0.21 -0.2 -4.27 0.03 -4.45 c 0.65 -0.17 1.13 -0.09 1.83 -0.07 c 0.25 1.73 0.82 2.77 1.33 4.53 c -0.11 0.17 -3 0.15 -3.19 -0.02 m -16.82 -0.87 c -0.26 -0.16 -2.46 -2.84 -2.42 -2.95 c 0.11 -0.32 0.88 -0.57 1.71 -0.57 c 1.39 0.01 2.36 0.68 2.8 1.93 c 0.21 0.62 0.17 1.43 -0.1 1.58 c -0.2 0.12 -1.8 0.13 -2 0.01 m 3.37 -0.01 c -0.4 -0.24 -0.2 -1.93 0.27 -2.3 c 0.25 -0.2 0.44 -0.06 1.31 0.99 c 1.12 1.35 1.11 1.41 -0.3 1.41 c -0.62 0 -1.19 -0.04 -1.28 -0.1 m 3.84 -0.04 c -0.46 -0.36 -2.54 -2.97 -2.48 -3.12 c 0.09 -0.24 1.02 -0.44 1.68 -0.37 c 1.17 0.13 2.09 0.86 2.47 1.95 c 0.22 0.62 0.17 1.43 -0.09 1.58 c -0.25 0.15 -1.36 0.12 -1.57 -0.04 m 2.95 0.04 c -0.4 -0.24 -0.2 -1.93 0.27 -2.3 c 0.25 -0.2 0.44 -0.06 1.31 0.99 c 1.12 1.35 1.11 1.41 -0.3 1.41 c -0.62 0 -1.19 -0.04 -1.28 -0.1 m -17.22 -1.02 c 0 -0.16 2.08 -1.71 2.89 -2.15 c 0.32 -0.18 0.35 0.2 0.06 0.79 c -0.16 0.32 -0.32 0.77 -0.37 0.99 c -0.04 0.22 -0.14 0.44 -0.21 0.48 c -0.07 0.05 -0.64 0.09 -1.25 0.09 c -0.99 0 -1.12 -0.02 -1.12 -0.2 m -1.38 -0.56 c -0.16 -0.15 -0.09 -1.84 0.09 -1.98 c 0.23 -0.18 2.76 -0.12 2.83 0.07 c 0.05 0.14 -2.46 1.98 -2.71 1.98 c -0.07 0 -0.16 -0.03 -0.21 -0.07 m 0.07 -3.04 c -0.21 -0.2 -0.21 -5.15 0 -5.35 c 0.08 -0.07 0.27 -0.14 0.42 -0.14 c 0.56 -0.7 0.28 -1.32 0.28 -2.51 c -0.43 -0.02 -0.85 -0.05 -1.27 -0.07 c 0 -0.38 0 -0.77 0 -1.15 h 9.69 c 0 0.38 0 0.77 0 1.15 c -0.43 0.02 -0.85 0.05 -1.27 0.07 v 1.25 c 0 1.23 0.01 1.26 0.28 1.26 c 0.15 0 0.34 0.06 0.42 0.14 c 0.21 0.2 0.21 5.15 0 5.35 c -0.21 0.2 -8.34 0.2 -8.55 0 m 2.64 -8 h -0.61 c 0 0.84 0 1.68 0 2.53 h 0.61 c 0 -0.84 0 -1.68 0 -2.53 m 3.88 0 c -0.85 0 -1.7 0 -2.54 0 c 0 0.84 0 1.68 0 2.53 c 0.85 0 1.7 0 2.54 0 c 0 -0.84 0 -1.68 0 -2.53 m 3.18 8 c -0.2 -0.2 -0.19 -1.52 0.02 -1.68 c 0.12 -0.09 2.32 -0.14 7.48 -0.16 l 7.32 -0.03 v -0.69 l -7.32 -0.03 c -5.16 -0.02 -7.36 -0.07 -7.48 -0.16 c -0.21 -0.16 -0.22 -1.49 -0.02 -1.68 c 0.11 -0.11 2.19 -0.14 8.63 -0.14 c 8.1 0 8.51 0.01 8.91 0.21 c 1.38 0.7 1.38 3.57 0 4.27 c -0.4 0.2 -0.86 0.21 -8.91 0.21 c -6.44 0 -8.52 -0.04 -8.63 -0.14 m 6.79 -5.51 c -0.16 -0.16 -0.2 -0.99 -0.05 -1.21 c 0.13 -0.19 0.81 -0.37 1.41 -0.37 c 0.61 0 1.29 0.18 1.41 0.37 c 0.15 0.23 0.12 1.06 -0.05 1.21 c -0.91 0.15 -1.8 0.32 -2.73 0 m 5.81 -0.01 c -0.21 -0.85 -0.17 -1.53 -0.2 -2.43 l -0.42 -0.06 c -0.42 -0.05 -0.43 -0.06 -0.43 -0.63 v -0.57 c 1.62 0 3.23 0 4.85 0 v 0.57 c 0 0.57 0 0.57 -0.43 0.63 l -0.42 0.06 c -0.06 0.8 0.03 1.67 -0.2 2.43 c -0.89 0.16 -1.41 0.07 -2.75 0 m -0.1 -4.88 c -0.29 -0.14 -0.95 -0.71 -1.16 -0.95 c -0.21 -0.25 -0.47 -0.45 -0.58 -0.45 c -1 0 -2.32 -0.87 -2.9 -1.9 c -0.27 -0.47 -0.37 -0.56 -0.62 -0.54 c -1.38 0.16 -3.55 0.15 -4.4 -0.02 c -1.6 -0.31 -3.13 -0.98 -4.29 -1.88 c -0.59 -0.46 -1.47 -1.59 -1.73 -2.21 c -0.21 -0.53 -0.27 -0.55 -0.94 -0.45 c -1.47 0.23 -3.59 0.8 -4.89 0.19 c -1.07 -0.5 -1.66 -2.46 -1.63 -3.07 c -1.47 -0.34 -2.05 -2.03 -1.5 -2.79 c 2.27 -6.67 8.73 -8.84 16.1 -7.63 c 5.89 2.96 9.77 5.22 9.51 11.36 c 0.13 0.45 0.07 1.68 -0.3 2.45 l -0.32 0.67 l 0.59 0.55 c 0.76 0.71 1.03 1.23 1.09 2.19 c 0.05 0.75 0.06 0.77 0.53 1.07 c 1.29 0.8 1.27 2.19 -0.04 3 c -0.71 0.44 -1.72 0.77 -2.49 0.4"/></svg>