<svg xmlns="http://www.w3.org/2000/svg" viewBox="0 0 48 48"><path d="m 36.3 4 c 42.2 35.83 -44.63 70.3 -35.7 14.87 c 1.96 -12.15 24.3 -24.52 35.7 -14.87" style="fill:#ffd600"/><g transform="matrix(-2.106 -1.266 -1.035 1.794 50.59 21.62)" style="stroke-width:0.11"><path d="m 8.16 11.28 c -0.04 0.04 -0.06 0.09 -0.06 0.15 v 1.33 c 0 0.12 0.1 0.21 0.21 0.21 c 0.12 0 0.21 -0.1 0.21 -0.21 v -1.12" style="fill:#2d4564;stroke:#2d4564"/><path d="m 12.28 11.15 h -3.83 c -0.06 0 -0.11 0.03 -0.15 0.06 l 0.36 0.36 h 3.83 c 0.06 0 0.11 -0.03 0.15 -0.06" style="fill:#365473;stroke:#365473"/><g style="fill:#2d4564;stroke:#2d4564"><path d="m 12.35 9.64 v 1.41 l 0.36 0.36 c 0.04 -0.04 0.06 -0.09 0.06 -0.15 v -1.84"/><path d="m 11.75 9.43 c -0.31 0.03 -0.27 0.65 0.04 0.62 l 0.71 0.01 l 0.33 -0.64"/></g></g><path d="m 27.86 28.3 l -3.81 -2.29 l -2.41 4.18 l 3.81 2.29 m -1.4 -6.46 l -3.81 -2.29 l -2.41 4.17 l 3.81 2.29 m -6.4 -3.85 l 3.27 1.96 c 0.68 0.41 1.51 0.24 1.87 -0.38 l 1.12 -1.94 c 0.36 -0.62 0.1 -1.45 -0.58 -1.85 l -3.27 -1.96 c -0.68 -0.41 -1.52 -0.24 -1.87 0.38 l -1.12 1.94 c -0.36 0.62 -0.1 1.45 0.58 1.85 m 15.2 3.52 l -3.27 -1.96 c -0.68 -0.41 -1.51 -0.24 -1.87 0.38 l -1.12 1.94 c -0.36 0.62 -0.1 1.45 0.58 1.86 l 3.27 1.96 c 0.68 0.41 1.51 0.23 1.87 -0.38 l 1.12 -1.94 c 0.36 -0.62 0.1 -1.45 -0.58 -1.85" style="fill:#fff"/><path d="m 21.68 35.3 l -3.93 -2.36 l -5.36 9.28 l 3.93 2.36" style="fill:#f9731e"/><g style="fill-opacity:0.7"><path d="m 39.1 17.62 l -3.81 -2.29 l -8.68 15 l 3.81 2.29" style="fill:#629fea"/><path d="m 35.3 15.33 l -3.81 -2.29 l -8.68 15 l 3.81 2.29" style="fill:#56e388"/><path d="m 31.53 13 l -3.81 -2.29 l -8.68 15 l 3.81 2.29" style="fill:#f8e45b"/><path d="m 15.23 23.49 l 3.81 2.29 l 8.68 -15 l -3.81 -2.29" style="fill:#ec333b"/></g><path d="m 30.45 29.83 l -3.27 -1.96 c -0.68 -0.41 -1.52 -0.23 -1.87 0.38 l -1.12 1.94 c -0.36 0.62 -0.1 1.45 0.58 1.86 l 3.27 1.96 c 0.68 0.41 1.52 0.23 1.87 -0.38 l 1.12 -1.94 c 0.36 -0.62 0.09 -1.45 -0.58 -1.85" style="fill:#629fea"/><path d="m 27.86 28.3 l -3.81 -2.29 l -2.41 4.18 l 3.81 2.29" style="fill:#56e388"/><path d="m 15.25 26.31 l 3.27 1.96 c 0.68 0.41 1.52 0.24 1.87 -0.38 l 1.12 -1.94 c 0.36 -0.62 0.1 -1.45 -0.58 -1.85 l -3.27 -1.96 c -0.68 -0.41 -1.52 -0.23 -1.87 0.38 l -1.12 1.94 c -0.36 0.62 -0.09 1.45 0.58 1.85" style="fill:#ec333b"/><path d="m 24.1 25.98 l -3.81 -2.29 l -2.41 4.17 l 3.81 2.29" style="fill:#f8e45b"/><g transform="matrix(0 0.161 -0.128 0 33.58 6.1)" style="stroke:#000;stroke-width:1.33"><path d="m 76.5 246 c -21.91 -8.61 -42.73 -25.3 -54.3 -43.4 l -2.51 -3.97 h 17.46 l 4.11 4.64 c 5.38 5.98 24.61 26.46 34.54 36.69 c 4.31 4.43 7.71 8.18 7.54 8.33 c -0.15 0.15 -3.26 -0.85 -6.88 -2.29"/><path d="m 119.8 254.9 c 0 -1.1 -11.58 -13.67 -32.42 -35.2 l -20.46 -21.1 h 33.42 l 2.7 3.24 c 1.51 1.77 9.97 10.9 18.83 20.27 c 8.85 9.37 19.1 20.24 22.84 24.2 c 7.66 8.12 7.88 7.39 -2.6 8.55 c -7.76 0.85 -22.3 0.89 -22.3 0.06"/><path d="m 153.2 222.5 l -23.2 -23.93 h 27.2 l 7 7.69 c 3.84 4.24 12.1 13.1 18.34 19.72 c 6.23 6.59 11.33 12.18 11.33 12.39 c 0 0.46 -13.91 7.11 -16.1 7.66 c -1.09 0.31 -5.98 -4.36 -24.57 -23.56"/><path d="m 186.8 198.6 h 33.39 l 3.09 3.54 c 6.15 7.11 6.08 5.77 0.49 12 c -3.43 3.97 -7.22 7.54 -11.14 10.99"/></g></svg>