<svg xmlns="http://www.w3.org/2000/svg" viewBox="0 0 48 48"><path d="m 28.98 47.1 c 24.48 -3.68 25.2 -40.3 1.42 -45.81 c -19.27 -5.7 -35 14.93 -28.7 30.34 c 2.99 10.33 15.18 18.68 27.3 15.47" style="fill:#f8f8ff"/><path d="m 17.26 36.72 c -1.16 -0.11 -2.7 -0.36 -5.14 -0.82 c -1.47 -0.28 -2.85 -0.48 -3.07 -0.46 c -0.29 0.03 -0.45 -0.03 -0.57 -0.22 c -0.41 -0.64 -1.76 -2.93 -1.76 -3 c 0 -0.04 1.36 0.32 3 0.79 c 4.9 1.41 5.91 1.64 7.46 1.71 c 2.5 0.12 4.08 -0.4 5.36 -1.79 c 0.71 -0.77 2.05 -2.82 1.92 -2.95 c -0.04 -0.04 -0.6 0.37 -1.26 0.9 c -1.45 1.17 -2.55 1.83 -3.73 2.23 c -0.78 0.27 -1.12 0.3 -2.8 0.3 c -2.16 0 -2.71 -0.1 -6 -1.11 c -1.74 -0.53 -2.28 -0.64 -3.15 -0.66 l -1.05 -0.01 l -0.25 -0.68 c -0.85 -2.27 -1.2 -4.52 -1.1 -7.15 c 0.07 -1.96 0.46 -4.31 0.88 -5.34 l 0.18 -0.43 c 0.52 0.74 1.37 1.35 1.72 2.19 c 0.4 1.3 0.34 2.68 0.95 3.93 c 0.43 0.85 1.66 2.12 2.62 2.69 c 2.63 1.57 6.55 1.52 8.41 -0.13 c 0.73 -0.48 0.58 -0.87 0.55 -1.68 c -0.05 -1.42 -0.32 -2.04 -1.6 -3.81 c -1.07 -1.48 -1.41 -2.14 -1.51 -2.96 c -0.19 -1.63 0.92 -3.14 2.87 -3.88 c 1.07 -0.41 3.18 -0.38 5.66 0.07 c 2.49 0.46 3.28 0.4 5.56 -0.36 c 2.2 -0.73 3.39 -0.97 5.91 -1.15 l 2.09 -0.15 l 0.5 0.63 c 0.97 1.23 2.54 4.26 2.84 5.48 l 0.09 0.38 l -0.59 -0.35 c -1.25 -0.73 -3.12 -1.61 -3.74 -1.75 c -0.49 -0.11 -0.89 -0.11 -1.68 0 c -2.17 0.31 -3.31 1.47 -3.31 3.38 c 0 0.92 0.16 1.41 0.61 1.88 c 0.38 0.39 0.95 0.55 2.77 0.75 c 1.91 0.21 2.61 0.33 4.79 0.86 l 2 0.48 v 0.38 c 0 0.36 -0.49 3.91 -0.55 3.97 c -0.02 0.02 -0.71 -0.4 -1.54 -0.92 c -1.81 -1.13 -2.26 -1.29 -4 -1.38 c -2.5 -0.14 -4.86 -0.7 -6.21 -1.49 c -0.38 -0.22 -1.21 -0.9 -1.84 -1.51 c -1.45 -1.39 -1.63 -1.5 -1.99 -1.14 c -0.33 0.34 -0.27 0.66 0.42 2.22 c 0.37 0.83 0.52 1.38 0.57 2 c 0.11 1.39 -0.25 2.04 -2.42 4.45 c -0.73 0.81 -1.61 1.95 -1.97 2.54 c -0.36 0.59 -0.89 1.31 -1.2 1.61 c -1.85 1.26 -3.96 1.63 -5.69 1.48" style="fill:#2679af"/><path d="m 21.39 44.48 c -0.85 -0.13 -3.11 -0.73 -4.11 -1.09 c -5 -1.77 -9.4 -5.68 -11.71 -10.41 c -1.36 -2.78 -1.91 -5.24 -1.91 -8.47 c 0 -3.38 0.6 -5.86 2.14 -8.87 c 1.61 -3.13 4.69 -6.38 7.85 -8.28 c 4.61 -2.77 10.15 -3.59 15.68 -2.32 c 5.59 1.27 11 5.61 13.71 10.97 c 1.27 2.52 1.93 5.41 1.92 8.5 c 0 3.24 -0.61 5.89 -1.97 8.61 c -1.07 2.13 -2.29 3.75 -4.34 5.72 c -2.82 2.73 -5.97 4.4 -10.1 5.35 c -2.86 0.2 -5.1 0.54 -7.18 0.29 m 4.57 -1.13 c 3.25 -0.2 6.67 -1.37 9.25 -3.15 c 3.41 -2.36 6.13 -5.68 7.39 -9.1 c 0.63 -1.66 1.23 -5.53 1.2 -7.71 c -0.02 -1.89 -0.93 -4.98 -2.17 -7.4 c -1.47 -2.87 -3.63 -5.29 -6.39 -7.14 c -2.04 -1.37 -3.81 -2.14 -6.61 -2.86 c -2.89 -0.41 -4.49 -0.69 -7.68 -0.2 c -2.39 0.39 -5.12 1.43 -7.18 2.75 c -3.04 1.95 -6.41 5.8 -7.4 8.46 c -1.02 2.75 -1.48 5.41 -1.38 8 c 0.13 3.54 1.11 6.63 2.98 9.44 c 1.69 2.68 4.2 5.1 6.89 6.57 c 2.75 1.49 6.68 2.51 9.14 2.38 c 0.67 -0.04 1.35 -0.07 1.97 -0.12" style="fill:#282526"/><g style="fill:#2f5269"><path d="m 23.56 27.54 c 0.57 -0.86 0.81 -1.48 0.81 -2.15 c 0 -1.28 -0.65 -2.44 -2.65 -4.76 c -0.64 -0.73 -1.25 -1.53 -1.36 -1.76 c -0.42 -0.88 0.11 -1.42 1.64 -1.68 c 1.18 -0.2 1.97 -0.09 3.41 0.47 c 1 0.39 1.39 0.47 2.48 0.53 c 1.68 0.08 2.02 -0.04 2.85 -1 c 0.68 -0.78 1.08 -0.95 1.39 -0.57 c 0.18 0.21 0.14 0.39 -0.45 1.87 c -0.55 1.08 -0.46 2.04 0.63 2.61 c 0.91 0.55 1.01 1.63 1.88 2.1 c 0.41 0.21 3.67 0.8 4.93 0.88 c 0.66 0.05 0.14 0.32 -1.44 0.39 c -2.21 0.11 -4.29 -0.12 -5.21 -0.62 c -0.35 -0.19 -1.37 -1.04 -2.27 -1.9 c -2.42 -2.29 -2.94 -2.58 -3.94 -2.16 c -1.15 0.5 -1.3 1.23 -0.74 3.68 c 0.45 1.99 0.5 2.88 0.17 3.18 c -0.26 0.23 -2 1.86 -2.16 1.86 c -0.06 0 -0.08 -0.78 0.05 -0.97"/><path d="m 13.89 32 c -1.37 -0.29 -2.51 -0.91 -4.13 -2.26 c -1.05 -1 -2.39 -1.63 -3.62 -2.25 c -0.81 -0.41 -0.89 -0.5 -0.99 -0.96 c -0.03 -2.48 -0.14 -5.1 0.66 -7.47 c 0.15 -0.16 1 0.65 1.27 1.21 c 0.6 1.4 0.53 2.85 1.17 4.27 c 0.42 0.88 2.14 2.54 3.23 3.1 c 2.35 1.22 4.19 1.38 6.74 0.56 c 0.55 -0.18 1.02 -0.29 1.05 -0.27 c -0.17 0.59 -0.96 1.04 -0.99 1.7 c 0 0.54 1.13 0.69 2.22 0.29 c 0.35 -0.13 1.45 -0.43 1.59 -0.48 c 0.59 -0.22 0.39 0.67 -2.95 2.04 c -1.46 0.6 -3.37 0.91 -5.24 0.5"/><path d="m 36.89 14.61 l -1.99 0.11 c 0.79 -0.85 3.2 -0.96 4.05 -0.82 c 0.89 0.14 1.11 0.14 1.15 0.01 c 0.57 0.33 1.04 1.29 1.27 1.95 c -2.32 -1.06 -2.42 -1.33 -4.48 -1.24"/></g></svg>