<svg xmlns="http://www.w3.org/2000/svg" viewBox="0 0 48 48"><path d="m 47.63 24.95 c -1.53 7.99 -7.54 15.71 -15.38 19.78 c -6.58 3.41 -12.99 3.94 -18.64 1.54 c -4.25 -1.8 -8.21 -5.91 -10.63 -10.99 c -2.58 -5.43 -3.18 -10.48 -1.84 -15.69 c 3.29 -12.88 20.53 -22.31 33.75 -18.47 c 6.46 1.87 10.84 6.84 12.45 14.16 c 0.26 3.18 0.82 6.54 0.27 9.67" style="fill:#c90a00"/><g style="fill:#033654"><path d="m 26.79 40.55 c -5.94 0.61 -11.4 -3.83 -12.2 -9.92 c -0.8 -6.09 3.36 -11.52 9.29 -12.1 c 5.94 -0.61 11.4 3.83 12.2 9.91 c 0.8 6.09 -3.36 11.52 -9.29 12.13"/><path d="m 30.89 17.46 l -1.82 2.37 c -0.38 0.5 0.2 1.63 1.29 2.52 c 1.1 0.89 2.3 1.21 2.68 0.7 l 1.81 -2.37"/><path d="m 34.86 20.69 c -0.38 0.5 -1.58 0.19 -2.68 -0.7 c -1.1 -0.89 -1.68 -2 -1.29 -2.52 c 0.38 -0.5 1.58 -0.18 2.68 0.71 c 1.09 0.89 1.67 2 1.29 2.52"/><path d="m 34.5 20.39 c -0.31 0.41 -1.29 0.15 -2.18 -0.57 c -0.89 -0.73 -1.37 -1.65 -1.05 -2.05 c 0.31 -0.41 1.29 -0.15 2.18 0.57 c 0.89 0.73 1.36 1.64 1.05 2.05"/><path d="m 31.81 22.74 l 1.08 0.29 l 1.38 -1.98 l -0.57 -0.07 l -0.49 -0.25"/><path d="m 35.2 14.64 c -0.12 0.23 -0.39 0.3 -0.61 0.18 c -0.43 -0.25 -0.77 -0.31 -0.93 -0.18 c -0.22 0.17 -0.26 0.71 -0.16 1.09 c 0.08 0.26 0.22 0.5 0.36 0.75 c 0.39 0.69 0.88 1.55 -0.48 2.59 c -0.2 0.15 -0.48 0.11 -0.64 -0.11 c -0.16 -0.21 -0.12 -0.5 0.08 -0.65 c 0.73 -0.55 0.63 -0.73 0.26 -1.39 c -0.16 -0.27 -0.33 -0.58 -0.45 -0.95 c -0.19 -0.69 -0.12 -1.61 0.45 -2.07 c 0.33 -0.26 0.93 -0.45 1.93 0.11 c 0.22 0.13 0.31 0.41 0.2 0.63" style="fill-rule:evenodd"/></g><path d="m 178.2 76.99 l -9.43 18.62 l -4.45 -16.79 l -21.8 -8.63 l 19.35 -3.42 l 9.44 -18.65 l 4.45 16.82 l 21.81 8.6" transform="matrix(-0.099 -0.159 -0.159 0.099 63.82 31.2)" style="fill:#ff7f4f;stroke:#ff7f4f;fill-rule:evenodd;stroke-width:0.4"/><path d="m 13.9 34.44 c 0.18 -1.05 0.64 -1.54 2.38 -2.58 c 2.41 -1.43 2.46 -1.49 2.46 -2.79 c 0 -1.98 -1.49 -9.73 -1.98 -10.32 c -3.43 -0.66 -9.74 2.7 -10.16 1.74 c -0.42 -0.55 -0.42 -1.35 -0.01 -2.32 c 0.36 -0.85 1.12 -1.71 4.77 -3 c 2.98 -1.08 4.62 -1.59 8.52 -1.79 c 2.95 -0.24 7.5 0.3 6.98 3.91 c -1.22 8.43 -6.12 16.52 -11.2 18.52 c -0.96 0.5 -1.95 -0.17 -1.76 -1.32 m 8.76 -11.63 c 0.51 -1.46 1 -4.78 0.76 -5.13 c -0.14 -0.2 -3.63 -0.09 -3.77 0.1 c 1.3 2.15 1.1 5.24 1.69 7.54 c 0.17 0.41 0.81 -1.08 1.31 -2.51" style="fill:#ffd600"/><path d="m 23.1 38.97 c 0.1 -0.6 0.39 -2.59 0.65 -4.43 c 0.26 -1.84 0.61 -3.88 0.77 -4.54 c 0.66 -2.55 2.71 -3.95 6.26 -4.3 c 2.27 -0.22 3.18 0.36 3.46 2.19 c 0.28 1.82 -0.09 2.74 -1.94 4.75 l -1.71 1.86 l 1.13 1.36 c 2.25 2.72 2.7 3.24 -0.07 3.12 c -0.88 -0.04 -1.67 -0.8 -2.57 -1.42 c -1.45 -0.99 -1.77 -2.91 -2.57 0.47 c -0.28 1.2 -0.78 1.62 -2.32 1.84 c -1.44 0.2 -1.32 0.49 -1.09 -0.91 m 6.92 -7.83 c 0.71 -0.95 0.87 -2.05 0.25 -2.12 c -2.36 -0.28 -2.54 1.34 -2.1 2.54 c 0.27 0.71 1.11 0.54 1.84 -0.42" style="fill:#269ec1"/></svg>