<svg xmlns="http://www.w3.org/2000/svg" viewBox="0 0 48 48"><path d="m 5.68 12.48 c -10.97 11.1 -2.93 21.32 5.79 29.72 c 7.1 6.85 13.68 7.16 20.66 2.62 c 18.23 -11.85 24.98 -27.2 -3.29 -43.4 c -9.32 -3.97 -18 4.41 -23.2 11" style="fill:#ef4f33"/><path d="m 23 10.33 c -0.51 0.38 -13.1 12.79 -13.64 13.43 c -0.32 0.39 -0.34 0.99 -0.06 1.35 c 0.11 0.14 2.25 2.28 4.75 4.75 l 4.54 4.5 c 1.04 -1.02 2.08 -2.04 3.12 -3.06 l -0.02 -0.75 c -0.02 -0.91 0.19 -1.35 0.91 -2 l 0.51 -0.47 l -0.02 -7.53 l -0.58 -0.54 c -2 -1.82 0.19 -4.94 2.44 -3.91 c 0.85 0.51 1.42 1.24 1.43 2.17 c 0 0.73 -0.2 1.15 -0.78 1.7 l -0.41 0.39 v 3.68 c 0 2 0.04 3.68 0.09 3.68 c 0.97 -0.82 1.64 -1.53 2.61 -2.48 c -0.02 -0.78 0.02 -1.7 0.37 -2.2 c 0.45 -0.63 1.19 -1.02 1.93 -1.02 c 0.75 0 1.22 0.21 1.74 0.77 c 0.79 0.86 0.87 1.96 0.21 2.86 c -0.47 0.64 -1.15 0.96 -2.06 0.98 l -0.73 0.01 c -0.99 0.98 -1.98 1.97 -2.97 2.95 v 0.7 c 0.01 0.86 -0.34 1.54 -1.04 2 c -0.4 0.28 -0.65 0.35 -1.38 0.41 l -0.89 0.07 c -1 1.01 -2 2.02 -3 3.04 c 1.12 0.98 2.09 2.15 3.25 3.07 c 0.37 0.28 0.98 0.25 1.38 -0.05 c 0.69 -0.54 13.4 -13 13.72 -13.48 c 0.39 -0.55 0.45 -1.19 0.15 -1.63 c -0.27 -0.41 -13.1 -13 -13.64 -13.44 c -0.64 -0.46 -1.23 -0.45 -1.92 0.06" style="fill:#fff"/></svg>