<svg xmlns="http://www.w3.org/2000/svg" viewBox="0 0 48 48"><path d="m 4.68 38 c -16.61 -20.1 17.64 -50.1 36.56 -32.42 c 21.2 19.41 -13.22 57.4 -34.41 35.83 c -1.3 -1.13 -1.43 -2.27 -2.15 -3.39" style="fill:#ecccfb"/><path d="m 15.75 38.2 c 0.01 -0.09 3.13 -3.22 6.93 -6.95 l 6.9 -6.77 l -1.96 -1.94 c -1.09 -1.07 -1.96 -2 -1.96 -2.13 c 0 -0.23 1.59 -1.87 1.91 -1.97 c 0.18 -0.05 0.8 0.5 3.25 2.9 c 1.67 1.63 3 3.04 3 3.13 c 0 0.09 -3.15 3.25 -7 7 l -7 6.86 h -2.06 c -1.81 0 -2.06 -0.02 -2.04 -0.17 m 0.98 -10.6 c -1.66 -1.63 -3 -3 -3 -3.12 c 0 -0.09 3.15 -3.25 7 -7 l 7 -6.86 h 2.07 c 1.76 0 2.06 0.02 1.99 0.15 c -0.05 0.09 -3.17 3.21 -6.94 6.95 l -6.85 6.8 l 1.95 1.93 c 1.07 1.06 1.95 2 1.95 2.09 c 0 0.18 -1.88 2.05 -2.05 2.05 c -0.06 0 -1.46 -1.33 -3.12 -2.96" style="fill:#a900ff"/></svg>