<svg xmlns="http://www.w3.org/2000/svg" viewBox="0 0 48 48"><path d="m 0.56 29.48 c 2.97 19.37 29.42 24.56 41.1 10.72 c 10.28 -10.27 7.73 -29.94 -4.89 -36.69 c -14.48 -9 -35.57 2.13 -36.71 20.1 c -0.12 1.97 0.05 3.96 0.52 5.87" style="fill:#393939"/><path d="m 14.3 10.7 l 6.14 8.67 l -4.91 -8.67 m 4.91 0 l 2.46 7.43 l -1.23 -7.43 m 4.91 0 l -1.23 7.43 l 2.45 -7.43 m 4.91 0 l -4.91 8.67 l 6.14 -8.67 m -24.56 4.96 v 1.24 l 8.6 4.96 m 20.87 -6.2 l -8.59 6.2 l 8.59 -4.96 m -17.19 3.71 c -2.46 0 -2.46 2.48 -2.46 3.72 v 2.48 h 2.46 c 0 -2.48 1.23 -3.1 1.23 -4.34 c 0 -0.62 0 -1.86 -1.23 -1.86 m 4.91 0 c -1.23 0 -1.23 1.24 -1.23 1.86 c 0 1.24 1.23 1.86 1.23 4.34 h 2.46 v -2.48 c 0 -1.24 0 -3.72 -2.46 -3.72 m -17.19 1.24 v 1.24 l 7.37 1.24 m 22.1 -2.48 l -7.37 2.48 l 7.37 -1.24 m -22.1 3.71 l -7.37 1.24 v 1.24 m 22.1 -2.48 l 7.37 2.48 v -1.24 m -19.64 0 v 1.24 c 0 0.68 0.55 1.24 1.23 1.24 c 0.68 0 1.23 -0.55 1.23 -1.24 v -1.24 m 4.91 0 v 1.24 c 0 0.68 0.55 1.24 1.23 1.24 c 0.68 0 1.23 -0.55 1.23 -1.24 v -1.24 m -11.1 1.24 l -8.6 4.95 v 1.24 m 20.88 -6.2 l 8.59 6.2 v -1.24 m -18.42 -2.48 l -6.14 8.67 h 1.23 m 12.28 -8.67 l 4.91 8.67 h 1.23 m -11.1 -7.43 l -2.46 7.43 h 1.23 m 3.68 -7.43 l 1.23 7.43 h 1.23" style="fill-opacity:0.1"/><path d="m 14.3 9.46 l 6.14 8.67 l -4.91 -8.67 m 4.91 0 l 2.46 7.43 l -1.23 -7.43 m 4.91 0 l -1.23 7.43 l 2.45 -7.43 m 4.91 0 l -4.91 8.67 l 6.14 -8.67 m -24.56 4.95 v 1.24 l 8.6 4.95 m 20.87 -6.2 l -8.59 6.2 l 8.59 -4.95 m -17.19 3.71 c -2.46 0 -2.46 2.48 -2.46 3.72 v 2.48 h 2.46 c 0 -2.48 1.23 -3.1 1.23 -4.34 c 0 -0.62 0 -1.86 -1.23 -1.86 m 4.91 0 c -1.23 0 -1.23 1.24 -1.23 1.86 c 0 1.24 1.23 1.86 1.23 4.34 h 2.46 v -2.48 c 0 -1.24 0 -3.72 -2.46 -3.72 m -17.19 1.24 v 1.24 l 7.37 1.24 m 22.1 -2.48 l -7.37 2.48 l 7.37 -1.24 m -22.1 3.71 l -7.37 1.24 v 1.24 m 22.1 -2.48 l 7.37 2.48 v -1.24 m -19.64 0 v 1.24 c 0 0.68 0.55 1.24 1.23 1.24 c 0.68 0 1.23 -0.55 1.23 -1.24 v -1.24 m 4.91 0 v 1.24 c 0 0.68 0.55 1.24 1.23 1.24 c 0.68 0 1.23 -0.55 1.23 -1.24 v -1.24 m -11.1 1.24 l -8.6 4.95 v 1.24 m 20.88 -6.19 l 8.59 6.19 v -1.24 m -18.42 -2.48 l -6.14 8.67 h 1.23 m 12.28 -8.67 l 4.91 8.67 h 1.23 m -11.1 -7.43 l -2.46 7.43 h 1.23 m 3.68 -7.43 l 1.23 7.43 h 1.23" style="fill:#ededed"/></svg>