<svg xmlns="http://www.w3.org/2000/svg" viewBox="0 0 48 48"><defs><linearGradient id="0" gradientUnits="userSpaceOnUse" x1="0" x2="1" gradientTransform="matrix(24.795 0 0 29.632 14.63 24.5)"><stop style="stop-color:#b1007f"/><stop offset="0.3" style="stop-color:#ff00e0"/><stop offset="0.81" style="stop-color:#ffa300"/><stop offset="1" style="stop-color:#ff8b00"/></linearGradient><radialGradient id="1" gradientUnits="userSpaceOnUse" cx="-45.64" cy="2.74" r="11.7" gradientTransform="matrix(1.804 0 0 1.798 94.7 12.67)"><stop style="stop-color:#00a9ff"/><stop offset="0.9" style="stop-color:#00afff"/><stop offset="1" style="stop-color:#000"/></radialGradient></defs><path d="m 45.99 28.43 c -4.78 32 -53.94 21.1 -44.64 -9.9 c 6.24 -29.44 56.5 -21.47 44.64 9.9" style="fill:#190401"/><g style="fill-rule:evenodd"><path d="m 38.45 18.82 c 0.54 1.58 0.85 3.27 0.85 5.1 c 0 8.52 -6.95 15.44 -15.5 15.44 c -8.19 0 -14.9 -6.34 -15.46 -14.38 l 17.44 -2.89 h -17.37 c 0.2 -1.73 0.69 -3.34 1.41 -4.86 l 19.2 -3.18 h -17.1 c 2.85 -3.39 7.13 -5.57 11.92 -5.57 c 5.77 0 10.8 3.14 13.47 7.82 l -15.53 2.57" style="fill:#00a9ff"/><path d="m 38.45 18.82 c 0.54 1.58 0.85 3.27 0.85 5.1 c 0 8.52 -6.95 15.44 -15.5 15.44 c -3.48 0 -6.71 -1.15 -9.31 -3.09 c 9.54 -0.27 17.23 -7.91 17.55 -17.39 m -0.02 -1.72 c -0.16 -2.68 -0.9 -5.2 -2.13 -7.45 c 3.12 1.33 5.7 3.65 7.36 6.56" style="fill:url(#0)"/><path d="m 14.63 36.2 c 1.19 0.9 0.52 0.39 0.05 0.04 c -3.52 -2.63 -5.88 -6.69 -6.2 -11.32 l 17.44 -2.89 h -17.37 c 0.2 -1.73 0.69 -3.34 1.41 -4.86 l 19.2 -3.18 h -17.1 c 2.85 -3.39 7.13 -5.57 11.92 -5.57 c 2.16 0 4.24 0.45 6.11 1.24 c 1.21 2.23 1.97 4.77 2.13 7.45 l -10.28 1.71 h 10.3 c -0.32 9.49 -8 17.1 -17.55 17.38" style="fill:url(#1)"/><g style="fill:#fff;fill-opacity:0.1"><path d="m 28.2 9.1 c 3.89 1.13 7.18 3.76 9.14 7.19 l -15.53 2.57 h 16.7 c 0.54 1.58 0.85 3.27 0.85 5.1 c 0 7 -4.69 12.93 -11.1 14.81 l -14.67 -14.62 l 12.27 -2.03 h -10.7 l 6.89 -6.87 l 7 -1.17 h -5.86"/><path d="m 38.63 19 c 0.5 1.53 0.79 3.18 0.79 4.87 c 0 1.69 -0.27 3.31 -0.78 4.84 l -4.87 -4.86"/><path d="m 31.93 18.82 h 6.58 c 0.54 1.58 0.85 3.27 0.85 5.1 c 0 3.49 -1.16 6.71 -3.12 9.28 l -9.34 -9.31 m 9.33 -9.3 c 0.41 0.54 0.79 1.12 1.12 1.69 l -3.39 0.56"/><path d="m 22 8.53 c 0.61 -0.07 1.23 -0.11 1.84 -0.11 c 5.77 0 10.8 3.14 13.48 7.82 l -15.53 2.57 h 16.7 c 0.54 1.58 0.85 3.27 0.85 5.1 c 0 8.52 -6.95 15.44 -15.5 15.44 c -0.59 0 -1.19 -0.04 -1.77 -0.11 l -13.62 -13.57 c -0.02 -0.23 -0.05 -0.47 -0.07 -0.7 l 17.44 -2.89 h -17.37 l 5.55 -5.54 l 15 -2.5 h -12.54"/><path d="m 21.85 22 l 3.23 -3.22 h 13.4 c 0.54 1.58 0.85 3.27 0.85 5.1 c 0 5.21 -2.6 9.83 -6.57 12.59 l -12.63 -12.59 l 1 -1 l 4.75 -0.79 m 6.78 -10.82 c 1.88 1.31 3.45 3.04 4.6 5 l -11.56 1.92"/></g></g></svg>