<svg xmlns="http://www.w3.org/2000/svg" viewBox="0 0 48 48"><path d="m 24.45 47.74 c -4.95 -0.39 -10.74 -2.75 -14.77 -6 c -4.91 -4 -8.51 -10.12 -9.47 -16.2 c -1.15 -7.98 3.48 -16.56 8.72 -20.63 c 2.63 -1.98 6.11 -3.56 9.37 -4.25 c 8.5 -1.8 17.36 1.61 23.44 8.99 c 3.64 4.43 5.53 8.89 5.99 14.18 c 0.55 6.33 -1.95 13.1 -6.52 17.7 c -5.2 4.31 -10.56 6.65 -16.73 6.21" style="fill:#ff8c00"/><path d="m 23.2 37.86 c -0.82 -0.31 -1.44 -0.97 -1.65 -1.78 c -0.25 -0.93 0.14 -2.1 0.89 -2.67 c 1.27 -0.98 3.08 -0.61 3.84 0.78 c 0.38 0.82 0.38 1.76 0 2.45 c -0.78 1.02 -1.87 1.65 -3.07 1.22 m -5.77 -1.38 c -0.44 -0.22 -0.67 -0.52 -0.8 -1.03 c -0.25 -0.95 0.5 -1.93 1.49 -1.92 c 1.68 0 2.18 2.28 0.67 2.97 c -0.5 0.17 -1 0.15 -1.35 -0.02 m 11.82 0.02 c -1.51 -0.71 -1 -2.97 0.67 -2.97 c 1.14 0 1.87 1.22 1.37 2.28 c -0.33 0.7 -1.31 1.04 -2.04 0.69 m -15.21 -3.95 c -0.9 -0.3 -1.5 -0.89 -1.76 -1.71 c -0.41 -1.34 0.39 -2.87 1.69 -3.23 c 0.59 -0.17 1.52 -0.07 2 0.21 c 0.89 0.52 1.34 1.4 1.27 2.44 c -0.09 1.3 -1.03 2.25 -2.32 2.36 c -0.29 0 -0.61 0.01 -0.88 -0.07 m 18.69 0.03 c -0.49 -0.12 -0.81 -0.31 -1.17 -0.68 c -1.24 -1.39 -0.66 -3.44 0.71 -4.15 c 0.99 -0.45 2.24 -0.13 2.92 0.54 c 0.93 0.94 0.97 2.48 0.08 3.48 c -0.75 0.6 -1.76 0.99 -2.54 0.82 m -12.74 -0.68 c -1.38 -0.69 -1.5 -2.67 -0.2 -3.5 c 0.76 -0.49 1.72 -0.42 2.4 0.16 c 0.47 0.41 0.7 0.9 0.7 1.53 c 0 1.53 -1.54 2.48 -2.89 1.8 m 6.47 0.11 c -0.75 -0.28 -1.28 -1.07 -1.28 -1.91 c 0 -0.63 0.22 -1.13 0.7 -1.53 c 0.68 -0.59 1.64 -0.65 2.4 -0.16 c 1.23 0.79 1.2 2.68 -0.06 3.43 c -0.56 0.22 -1.25 0.36 -1.75 0.18 m -2.88 -5.36 c -0.52 -0.11 -1.13 -0.52 -1.4 -0.96 c -1.3 -2.06 0.94 -4.42 3 -3.19 c 0.69 0.41 1.05 1.07 1.05 1.93 c 0 1.19 -0.8 2.08 -2 2.25 c -0.23 0.01 -0.46 0.02 -0.67 -0.02 m -6.36 -0.31 c -1.27 -0.46 -1.74 -1.93 -0.98 -3.08 c 0.66 -1.01 2.2 -1.15 3 -0.28 c 0.46 0.48 0.6 0.82 0.6 1.44 c 0.07 1.46 -1.57 2.26 -2.64 1.91 m 12.21 -0.02 c -0.42 -0.16 -0.88 -0.59 -1.1 -1.04 c -0.21 -0.42 -0.23 -1.29 -0.03 -1.7 c 0.56 -1.11 1.86 -1.52 2.91 -0.9 c 1.27 0.75 1.27 2.71 -0.01 3.46 c -0.57 0.23 -1.26 0.35 -1.77 0.17 m -17.45 -0.44 c -0.95 -0.33 -1.32 -1.59 -0.71 -2.39 c 0.71 -0.94 2.23 -0.78 2.66 0.29 c 0.34 0.82 0 1.7 -0.8 2.08 c -0.42 0.2 -0.67 0.2 -1.14 0.04 m 23 0.01 c -0.84 -0.31 -1.25 -1.22 -0.93 -2.07 c 0.2 -0.53 0.88 -1 1.45 -1 c 0.41 0 0.96 0.3 1.25 0.67 c 0.35 0.59 0.37 1.35 0 1.84 c -0.37 0.8 -1.23 0.73 -1.77 0.55 m -21.2 -4.69 c -0.51 -0.16 -1.12 -0.71 -1.38 -1.25 c -0.89 -1.77 0.31 -3.74 2.29 -3.74 c 1.36 0 2.39 0.97 2.48 2.35 c 0.05 0.75 -0.14 1.35 -0.6 1.88 c -0.84 0.79 -1.78 1.02 -2.79 0.75 m 17.1 -1.57 c -0.2 -0.6 -0.15 -1.5 0.11 -2 c 0.46 -0.89 1.29 -1.41 2.27 -1.41 c 1.98 0 3.18 1.98 2.27 3.76 c -0.27 0.55 -0.89 1.07 -1.43 1.24 c -1.33 0.33 -2.77 -0.34 -3.21 -1.58 m -10.71 1.02 c -0.71 -0.26 -1.14 -0.74 -1.3 -1.5 c -0.42 -1.89 1.85 -3.24 3.27 -1.94 c 0.46 0.42 0.68 0.91 0.68 1.52 c 0 0.63 -0.23 1.11 -0.69 1.53 c -0.55 0.48 -1.3 0.63 -1.96 0.39 m 5.11 -1.07 c -0.21 -0.46 -0.21 -1.23 0 -1.69 c 0.21 -0.47 0.79 -0.98 1.26 -1.11 c 1.46 -0.4 2.85 0.88 2.54 2.34 c -0.13 0.6 -0.44 1.06 -0.9 1.34 c -1.12 0.44 -2.35 0.25 -2.89 -0.88 m -2.21 -3.76 c -0.6 -0.25 -1.05 -0.64 -1.35 -1.18 c -0.38 -0.82 -0.38 -1.76 0 -2.45 c 0.64 -1.13 2.17 -1.68 3.37 -1.1 c 0.55 0.3 0.85 0.59 1.14 1.1 c 0.38 0.82 0.38 1.76 0 2.45 c -1.02 1.37 -2.11 1.56 -3.16 1.18 m -5.37 -0.54 c -1.29 -0.41 -1.59 -2.09 -0.5 -2.81 c 1.45 -0.96 3.11 0.73 2.15 2.2 c -0.44 0.44 -1.14 0.76 -1.65 0.62 m 11.61 -0.05 c -0.79 -0.25 -1.22 -1.21 -0.91 -2.04 c 0.61 -1.61 2.98 -1.15 2.99 0.58 c -0.15 1.5 -1.24 1.69 -2.08 1.46" style="fill:#fff"/></svg>