<svg xmlns="http://www.w3.org/2000/svg" viewBox="0 0 48 48"><path d="m 41.82 40.71 c 27.32 -41.95 -47.3 -58.2 -41.4 -15 c 2.43 17.61 30.91 31.1 41.4 15" style="fill:#1096ec"/><g style="fill:#ffdeac"><path d="m 12 28.46 h 22.29 v 1.39 h -22.29"/><path d="m 12.1 32.89 h 22.29 v 1.39 h -22.29"/></g><g style="fill:#eb4600"><path d="m 30.1 37.44 c -1.45 -0.25 -3.09 -1.44 -3.8 -2.75 c -0.78 -1.45 -0.75 -3.38 0.08 -4.79 c 0.63 -1.07 1.46 -1.82 2.71 -2.44 c 1.12 -0.64 3.35 -0.53 4.42 -0.21 c 0.74 0.24 1.71 0.8 1.75 1.02 c -0.03 0.28 -0.18 0.45 -0.35 0.68 l -0.79 -0.36 c -0.94 -0.42 -1.96 -0.7 -2.61 -0.7 c -1.85 0.01 -3.6 1.09 -4.38 2.71 c -0.48 1.05 -0.46 2.64 0 3.52 c 0.3 0.56 1.21 1.48 1.8 1.82 c 1.21 0.69 2.84 0.68 4.05 -0.04 c 1.98 -1.17 2.39 -3.74 0.84 -5.32 c -0.59 -0.6 -1.14 -0.83 -2.31 -0.95 c -0.98 -0.1 -2.43 1.7 -2.51 1.46 c -0.06 -0.17 0.22 -1.61 1.43 -2.21 c 0.91 -0.34 2.23 -0.17 2.98 0.2 c 1.23 0.59 2.06 1.63 2.33 2.9 c 0.16 0.98 0.04 2.11 -0.31 2.8 c -0.47 0.93 -1.32 1.72 -2.36 2.2 c -0.99 0.45 -2 0.61 -2.98 0.44"/><path d="m 11.32 13.15 h 24.5 v 4.59 h -24.5"/></g><g style="fill:#ffdeac"><path d="m 12.21 20 h 22.3 v 1.39 h -22.3"/><path d="m 12.21 24.45 h 22.3 v 1.39 h -22.3"/></g></svg>