<svg xmlns="http://www.w3.org/2000/svg" viewBox="0 0 48 48"><path d="m 0.56 29.48 c 2.97 19.37 29.42 24.56 41.1 10.72 c 10.28 -10.27 7.73 -29.94 -4.89 -36.69 c -14.48 -9 -35.57 2.13 -36.71 20.1 c -0.12 1.97 0.05 3.96 0.52 5.87" style="fill:#007f7f"/><path d="m 12.65 35.63 c -0.31 -7.7 -0.18 -12.2 -0.18 -21.41 c 7.64 0 15.29 0 22.93 0 v 10.62 c 0 8.1 -0.04 10.66 -0.18 10.79 c -0.26 0.25 -22.3 0.25 -22.57 0 m 12.71 -2.61 c 0.21 -0.2 0.23 -0.86 0.2 -5.64 l -0.04 -5.42 c -1.05 0 -2.11 0 -3.17 0 l -0.04 5.42 c -0.04 4.79 -0.01 5.45 0.2 5.64 c 0.78 0.21 2.15 0.61 2.85 0 m 0 -12.78 c 0.3 -0.28 0.34 -2.74 0.05 -3 c -0.25 -0.23 -2.71 -0.23 -2.96 0 c -0.11 0.11 -0.18 0.65 -0.18 1.48 c 0 1.68 0.07 1.76 1.66 1.76 c 0.88 0 1.25 -0.06 1.42 -0.22" style="fill:#3fdfcf"/></svg>