<svg xmlns="http://www.w3.org/2000/svg" viewBox="0 0 48 48"><path d="m 37.76 40.98 c 41.88 -49.66 -61.68 -56.71 -32.4 -6 c 6.68 11.56 21.29 19.2 32.4 6" style="fill:#ff8c00"/><path d="m 24.1 9.45 c -1.78 0 -3.38 1.19 -3.38 2.66 c 0 1.16 0.91 2.26 2.16 2.62 v 4.23 l -5.15 3.68 c -0.27 0.16 -0.51 0.44 -0.51 0.72 v 1.95 h -1.64 v 4.23 h 4.86 v -4.23 h -1.21 v -1.5 l 3.65 -2.74 v 10.58 h -2.43 l 3.65 5.29 l 3.65 -5.29 h -2.43 v -13.23 l 3.65 2.65 v 1.89 c -0.95 0.34 -1.71 1.11 -1.71 2 c 0 1.23 1.2 2.22 2.68 2.22 c 1.48 0 2.68 -0.99 2.68 -2.22 c 0 -0.91 -0.66 -1.68 -1.61 -2 v -2.42 c 0 -0.26 -0.14 -0.53 -0.39 -0.69 l -5.3 -3.75 v -1.38 c 1.25 -0.36 1.84 -1.47 1.84 -2.63 c 0 -1.47 -1.28 -2.66 -3.05 -2.66" style="fill-opacity:0.1"/><path d="m 23.59 7.95 c -1.51 -0.05 -2.84 1.63 -2.84 3.1 c 0 1.16 0.91 2.27 2.16 2.62 v 4.23 l -5.15 3.67 c -0.27 0.16 -0.51 0.44 -0.51 0.72 v 1.95 h -1.64 v 4.23 h 4.86 v -4.23 h -1.21 v -1.5 l 3.65 -2.74 v 10.58 h -2.43 l 3.65 5.29 l 3.65 -5.29 h -2.43 v -13.23 l 3.65 2.65 v 1.89 c -0.95 0.34 -1.71 1.11 -1.71 2 c 0 1.23 1.2 2.22 2.68 2.22 c 1.48 0 2.68 -0.99 2.68 -2.22 c 0 -0.91 -0.66 -1.68 -1.61 -2 v -2.42 c 0 -0.26 -0.14 -0.52 -0.39 -0.69 l -5.3 -3.75 v -1.38 c 1.25 -0.37 1.84 -1.47 1.84 -2.63 c 0 -1.47 -1.33 -3.1 -3.11 -3.1" style="fill:#1266bc"/><path d="m 20.82 44.52 c -3.22 -1.36 -5.64 -4.18 -6.7 -7.77 c 8 2 10.44 3.35 20.38 -0.89 l -0.29 1.13 c -0.69 2.68 -2.68 5.66 -5.28 6.87 c -3 1.39 -6.51 1.34 -8.11 0.66" style="fill:#ffd070"/></svg>