<svg xmlns="http://www.w3.org/2000/svg" viewBox="0 0 48 48"><path d="m 47.61 34.48 c 4.77 -69 -87.3 -17.29 -26.68 12 c 9.34 4 23.27 1.09 26.68 -12" style="fill:#f4f4f4"/><path d="m 39.1 37.64 c -5.89 -6.65 -8.24 -8.71 -9.92 -8.72 c -0.6 0 -0.9 0.2 -1.21 0.79 c -0.2 0.39 -0.24 0.63 -0.24 1.75 c 0 0.71 0.04 1.98 0.09 2.82 c 0.07 1.05 0.06 1.54 -0.02 1.59 c -0.2 0.12 -1.58 -4.27 -2.09 -6.62 c -0.32 -1.48 -0.36 -3.64 -0.06 -4.18 c 0.4 -0.73 1.27 -0.87 2.3 -0.36 c 1.54 0.77 4.62 3.93 8.47 8.69 c 2.46 3.04 4.63 6 4.49 6.17 c -0.03 0.03 -0.84 -0.84 -1.8 -1.93" style="fill:#cd1216"/><path d="m 26 23.1 c -0.36 -0.16 -0.68 -0.68 -0.97 -1.57 c -0.17 -0.52 -0.18 -0.88 -0.13 -2.91 c 0.07 -2.57 0.25 -4.56 0.73 -7.88 c 0.34 -2.37 1.09 -6.46 1.27 -6.9 c 0.24 -0.61 0.27 0.2 0.09 2.21 c -0.11 1.13 -0.26 2.8 -0.34 3.73 c -0.38 4.17 -0.09 7.25 0.77 8.15 c 0.3 0.32 0.41 0.37 0.87 0.37 c 0.79 0 1 -0.16 3.85 -2.89 c 0.52 -0.5 0.97 -0.88 1 -0.85 c 0.21 0.21 -2.42 4.49 -3.87 6.31 c -0.79 0.99 -1.92 2.05 -2.39 2.24 c -0.45 0.19 -0.46 0.19 -0.87 0.01"/><path d="m 4.83 30.88 c -0.59 -0.09 -0.04 -0.38 0.94 -0.49 c 0.69 -0.09 6.68 -1.71 8.41 -2.29 c 2.1 -0.7 3.74 -1.52 4.47 -2.25 c 1.51 -1.51 0.91 -2.37 -2.91 -4.12 c -2.19 -1 -2.32 -1.22 -0.65 -1.01 c 0.57 0.07 1.82 0.32 2.78 0.54 c 3.4 0.8 4.95 1.43 5.98 2.43 c 0.47 0.46 0.57 0.61 0.57 0.93 c 0 1.06 -2.09 2.37 -5.46 3.43 c -4.42 1.38 -12.72 3.05 -14.1 2.84" style="fill:#fda820"/></svg>