<svg xmlns="http://www.w3.org/2000/svg" viewBox="0 0 48 48"><path d="m 43.89 12.7 c 12.91 17.25 -7.75 38.3 -24.39 34.65 c -16.39 -2.14 -26.29 -27.1 -13.61 -39.73 c 9.26 -9.11 25.1 -12.16 38 5.08" style="fill:#f4f4f4"/><path d="m 32.43 35.84 c -1.19 -0.23 -2.28 -0.66 -2.62 -1.02 c -0.72 -0.77 -0.71 -0.58 -0.66 -10 c 0.04 -7.64 0.02 -8.72 -0.15 -8.82 c -0.11 -0.05 -1.36 -0.14 -2.78 -0.18 c -1.42 -0.05 -3.37 -0.12 -4.33 -0.16 c -0.96 -0.04 -1.95 -0.02 -2.2 0.04 l -0.45 0.12 v 2.53 c 0 3.51 -0.3 9.63 -0.51 10.38 c -0.09 0.34 -0.33 1.21 -0.52 1.93 c -0.41 1.52 -0.74 2.09 -1.62 2.79 c -0.97 0.77 -1.32 0.85 -3.36 0.72 c -0.96 -0.06 -2.19 -0.11 -2.73 -0.11 c -1.13 -0.01 -1.57 -0.22 -1.89 -0.91 c -0.28 -0.59 -0.14 -1.23 0.36 -1.71 l 0.39 -0.38 l 2.51 0.04 c 1.49 0.02 2.61 -0.02 2.75 -0.09 c 0.13 -0.07 0.3 -0.29 0.38 -0.49 c 0.29 -0.79 0.79 -2.61 0.86 -3.17 c 0.14 -1.07 0.25 -5.88 0.21 -9.35 c -0.04 -3.28 -0.02 -3.45 0.24 -4 c 0.61 -1.27 1.51 -1.45 6.66 -1.32 c 7.27 0.19 7.96 0.23 8.42 0.56 c 0.93 0.66 1.11 1.99 0.83 6.2 c -0.11 1.65 -0.13 4 -0.06 7.76 c 0.11 6.18 -0.06 5.56 1.55 5.76 c 0.54 0.07 1.18 0.22 1.43 0.34 c 0.88 0.42 1.1 1.56 0.45 2.29 c -0.35 0.4 -0.43 0.43 -1.32 0.45 c -0.52 0.02 -1.36 -0.05 -1.86 -0.14" style="fill:#2e2e2e"/></svg>