<svg xmlns="http://www.w3.org/2000/svg" viewBox="0 0 48 48"><path d="m 45.79 35.3 c -9.45 22.67 -46 12.56 -45.79 -12.14 c -0.37 -22.45 28.73 -30.96 41.48 -14.96 c 6.38 6.91 8.6 18.38 4.33 27.1" style="fill:#f4f4f4"/><path d="m 15.54 32.79 v -3.52 l 6.1 -0.05 c 6 -0.04 6.12 -0.05 6.84 -0.38 c 0.89 -0.4 1.61 -1.13 2.19 -2.18 c 0.4 -0.73 0.43 -0.76 0.43 -0.36 c 0 0.75 -0.55 2.79 -1.06 3.91 c -0.97 2.13 -2.59 3.97 -4.7 5.36 l -1.12 0.73 h -8.67 m 0.04 -13.79 c 1.41 0.02 2.77 -0.07 4.17 -0.05 c 0 1.39 0 2.74 0 4.13 c -1.4 0.02 -2.81 0.05 -4.21 0.08 c -0.02 -1.39 0.01 -2.78 0.04 -4.16 m -4.21 -1.32 c -0.14 -0.98 0.03 -1.82 0.03 -2.86 c 1.06 -0.04 1.71 0 2.86 0 c 0 0.96 0 1.92 0 2.88 c -0.95 -0.05 -1.96 0.07 -2.89 -0.02" style="fill:#516676"/><path d="m 20.75 36.3 l 2.39 -1.45 c 2.99 -2.31 6 -5.3 7.68 -8.25 c 0.32 -0.5 0.11 1.05 -0.25 2.33 c -0.83 3 -2.95 5.51 -5.68 7 c -0.67 0.51 -2.89 0.49 -4.14 0.36" style="fill:#354a5b"/><path d="m 25.29 35.68 c 3.6 -2.57 5.66 -7.12 5.57 -9.46 c -0.04 -0.75 0.32 -2.74 -0.37 -3.98 c -0.41 -0.71 -1.43 -1.64 -2.07 -1.92 c -0.46 -0.2 -3.85 -0.32 -12.38 -0.43 l -0.71 -0.01 c 0 -2.38 0 -4.77 0 -7.15 l 7 0.04 c 2.74 0.22 6.21 -0.02 8.2 0.46 c 3.45 1.22 5.87 3.5 7.31 6.87 c 1.16 2.71 1.18 6.29 0.04 9 c -1.13 2.72 -3.38 5 -6.12 6.31 c -1.63 0.75 -2.16 0.85 -5 0.94 h -2.91" style="fill:#c24ae6"/><path d="m 37.91 23.91 c -2.55 -4.63 -3.92 -5.68 -8.34 -8.19 c -1.04 -0.59 -5.65 -2.5 -6.15 -2.71 c -0.27 -0.12 -0.12 -0.13 2.08 -0.09 c 2.96 0.05 4.68 0.16 5.34 0.32 c 0.72 0.18 2.3 0.94 3.07 1.47 c 2.35 1.62 4 4.06 4.64 6.8 c 0.16 0.7 0.27 3.16 0.16 3.64 l -0.07 0.31" style="fill:#d482e8"/></svg>