<svg xmlns="http://www.w3.org/2000/svg" viewBox="0 0 48 48"><path d="m 23.66 47.92 c -4.93 -0.2 -10.62 -2.35 -14.5 -5.49 c -4.73 -3.82 -8 -9.82 -8.73 -15.84 c -0.79 -7.95 4.23 -16.72 9.65 -21 c 2.71 -2.09 6.27 -3.8 9.56 -4.61 c 8.57 -2.12 17.28 0.95 23 8.13 c 3.44 4.3 5.12 8.7 5.34 13.98 c 0.26 6.32 -2.55 13.22 -7.33 17.98 c -5.39 4.52 -10.85 7.1 -17 6.85" style="fill:#096051"/><g style="fill:#fff"><path d="m 30.47 15.1 c -0.26 -0.13 -0.03 -0.38 0.14 -0.55 c 0.35 -0.28 0.88 -0.85 0.48 -1.12 c -0.33 -0.2 -0.4 -0.36 -0.28 -0.59 c 0.13 -0.23 0.33 -0.2 0.97 0.17 c 0.23 0.13 0.23 0.36 0.7 0.05 c 0.41 -0.27 0.61 -0.54 0.79 -0.43 c 0.17 0.11 0.31 0.25 0.31 0.32 c -0.15 0.28 -0.39 0.52 -0.5 0.82 c 0 0.1 0.13 0.3 0.36 0.57 c 0.26 0.28 0.33 0.41 0.14 0.68 c -0.44 0.5 -0.79 -0.32 -1.09 -0.53 c -0.28 -0.15 -0.65 0 -1.1 0.43 c -0.41 0.38 -0.46 0.41 -0.94 0.16"/><path d="m 30.88 12 c -0.11 -0.02 -0.18 -0.09 -0.23 -0.23 c -0.07 -0.18 0 -0.33 0.27 -0.56 c 0.53 -0.46 0.25 -0.87 -0.04 -1.17 c -0.16 -0.16 -0.28 -0.32 -0.28 -0.36 c 0 -0.04 0.05 -0.12 0.12 -0.18 c 0.17 -0.16 0.28 -0.13 0.92 0.2 c 0.47 0.29 0.51 0.29 0.89 -0.07 c 0.36 -0.33 0.49 -0.43 0.58 -0.43 c 0.07 0 0.42 0.33 0.45 0.42 c 0.03 0.09 -0.02 0.18 -0.21 0.4 c -0.36 0.41 -0.35 0.52 0.08 1.03 c 0.2 0.24 0.3 0.4 0.3 0.46 c 0 0.12 -0.35 0.47 -0.46 0.47 c -0.38 -0.19 -0.73 -0.64 -1.14 -0.65 c -0.21 0 -0.44 0.12 -0.64 0.34 c -0.22 0.23 -0.44 0.35 -0.61 0.31"/><path d="m 37.95 17.92 c -0.38 -0.54 -0.31 -0.84 -0.34 -1.48 h -1.39 c -2.71 0.01 -9.73 0.09 -9.75 0.11 c -0.01 0.02 -0.04 0.26 -0.07 0.54 c -0.06 0.7 -0.11 0.78 -0.48 0.78 c -0.61 -0.03 -0.41 -0.91 -0.43 -1.28 l -0.02 -1 c 0.4 -0.04 0.8 -0.07 1.2 -0.1 v -0.37 c 0 -0.2 -0.03 -1.42 -0.06 -2.71 c -0.03 -1.29 -0.05 -2.35 -0.05 -2.36 c 0.01 -0.01 1.09 -0.31 1.9 -0.53 c 0.89 -0.16 0.97 -0.23 1.28 0.29 c 0.14 0.3 -0.04 0.43 -0.8 0.59 c -0.78 0.16 -1.1 0.3 -1.22 0.57 c -0.12 0.24 0.02 0.54 0.34 0.71 c 0.62 0.16 1.18 -0.06 1.79 0.16 c 0.13 0.12 0.14 0.32 0.01 0.44 c -0.6 0.45 -1.56 -0.15 -2.09 0.38 c -0.12 0.13 -0.14 0.39 -0.04 0.54 c 0.16 0.26 0.52 0.36 1.34 0.36 c 0.8 0 0.95 0.05 0.88 0.33 c -0.07 0.3 -0.21 0.34 -1.19 0.39 c -0.8 0.04 -0.91 0.07 -1 0.32 c -0.09 0.21 -0.11 0.52 -0.05 0.64 c 0.08 0.15 0.35 0.26 0.74 0.3 c 0.37 0.04 5.3 0.03 7 -0.02 l 1 -0.03 v -0.45 c 0 -0.67 0.01 -0.66 -1.06 -0.75 c -0.8 -0.06 -0.98 -0.12 -1 -0.3 c -0.04 -0.34 0.04 -0.38 1.13 -0.46 c 0.71 -0.06 0.85 -0.1 0.93 -0.28 c 0.08 -0.17 0.1 -0.59 0.04 -0.68 c -0.07 -0.09 -0.52 -0.13 -1.33 -0.13 c -0.38 0 -0.51 -0.02 -0.61 -0.07 c -0.13 -0.06 -0.13 -0.08 -0.13 -0.26 c 0.07 -0.46 0.84 -0.37 1.09 -0.38 c 0.91 -0.06 0.96 -0.07 1.06 -0.18 c 0.05 -0.06 0.07 -0.14 0.07 -0.43 c 0 -0.55 -0.02 -0.55 -1.09 -0.65 c -0.85 -0.07 -1.06 -0.12 -1.17 -0.23 c -0.11 -0.11 -0.12 -0.27 -0.04 -0.39 c 0.03 -0.33 0.94 -0.38 3.5 -0.28 l -0.02 0.09 c -0.06 0.52 -0.09 1.09 -0.12 1.58 c -0.07 1.41 -0.17 2.83 -0.17 4.25 l 0.39 0.05 c 0.52 0.06 0.78 0.19 0.86 0.41 c 0.04 0.57 0.23 1.69 -0.27 2 c -0.23 0.1 -0.41 0.1 -0.55 -0.02"/><path d="m 19.38 23.29 c -0.16 -0.04 -0.29 -0.1 -0.3 -0.16 c -0.05 -0.16 -0.09 -1.61 -0.09 -3.18 v -1.74 c -0.57 0.04 -1.14 0.07 -1.71 0.11 l -0.14 0.57 c -0.41 1.67 -0.7 2.28 -1.47 3.05 c -0.34 0.34 -1.04 0.93 -1.23 1.03 c -0.55 0 -0.72 -0.25 -1.07 -0.58 c 0.23 -0.25 0.51 -0.45 0.73 -0.62 c 0.82 -0.66 1.57 -1.34 1.85 -2.38 c 0.06 -0.23 0.17 -0.92 0.17 -1.07 c -0.75 -0.21 -1.21 -0.11 -2.28 -0.19 c -0.04 -0.03 -0.09 -1.69 -0.07 -2.2 c 0.02 -0.57 0.13 -1.58 0.18 -1.62 c 0.79 -0.07 1.44 -0.06 2.28 -0.13 l 0.13 -0.02 c 0 -0.61 0 -1.22 0 -1.83 h -0.09 c -0.64 -0.2 -1.49 0.2 -2.08 -0.01 c -0.12 -0.05 -0.13 -0.27 -0.13 -0.46 c 0 -0.37 0.1 -0.41 1.42 -0.51 l 0.87 -0.07 l 0.02 -0.16 c 0.14 -0.6 -0.06 -1.42 0.3 -1.95 c 0.04 -0.05 0.09 -0.06 0.29 -0.04 c 0.31 0.03 0.57 -0.17 0.63 0.02 c 0.02 0.51 -0.09 1.19 -0.08 2.21 c 0.49 -0.01 0.91 -0.05 1.39 -0.09 c 0.14 -0.52 -0.08 -1.93 0.38 -2.16 c 0.1 -0.04 0.89 -0.14 0.92 -0.11 c 0 0.72 -0.04 1.32 -0.06 2.08 v 0.19 c 0.82 0.03 1.65 0.07 2.48 0.09 h 0.13 v 1.09 c 0 1.46 -0.08 2.18 -0.26 2.36 c -0.1 0.1 -0.43 0.14 -1.06 0.14 c -0.95 0 -1.32 0.18 -1.32 0.18 c -0.02 0.19 -0.03 1.55 0.03 1.95 l 0.02 0.16 c 1.02 0 2.04 0 3.05 0 v 0.28 c 0 0.44 -0.07 1.74 -0.12 2.11 c -0.05 0.46 -0.17 0.97 -0.28 1.22 c -0.27 0.5 -0.69 0.78 -1.25 0.79 c -0.21 0 -0.41 -0.21 -0.51 -0.51 c -0.1 -0.33 -0.07 -0.43 0.2 -0.55 c 0.4 -0.19 0.72 -0.61 0.81 -1.07 c 0.06 -0.32 0.05 -0.98 -0.02 -1.11 c -0.09 -0.18 -0.14 -0.18 -1.32 -0.13 l -0.56 0.03 l -0.02 0.62 c -0.01 0.34 -0.03 1.41 -0.05 2.38 c -0.01 0.97 -0.04 1.79 -0.06 1.83 c -0.15 0.17 -0.41 0.15 -0.63 0.15 m -3 -6.49 c 0.05 -0.54 0.17 -1.5 -0.37 -1.73 c -0.36 -0.16 -0.85 -0.07 -1.02 0.18 c -0.13 0.18 -0.19 0.58 -0.19 1.2 c 0 0.85 0.06 0.93 0.71 0.91 c 0.44 0 0.77 -0.2 0.86 -0.54 m 2.53 0.47 l 0.02 -0.52 c 0.04 -0.77 0.03 -1.37 -0.02 -1.48 c -0.05 -0.12 -0.23 -0.2 -0.55 -0.26 c -0.58 -0.1 -0.87 0.15 -0.98 0.84 c -0.05 0.34 -0.03 1.17 0.03 1.29 c 0.45 0.32 1 0.16 1.49 0.13 m -0.07 -3.24 c 0.07 -0.59 0.07 -1.05 0.09 -1.68 c -0.3 -0.03 -0.95 -0.06 -1.24 -0.06 c -0.21 0.02 -0.53 0.93 -0.27 1.56 c 0.27 0.5 1.14 0.46 1.42 0.18 m 2.85 -0.35 c 0.09 -0.4 0.12 -0.99 0.06 -1.14 c -0.09 -0.22 -0.36 -0.29 -0.95 -0.23 c -0.68 0.06 -0.71 0.11 -0.71 1.03 c 0 0.71 -0.02 0.56 0.21 0.63 c 0.62 0.11 1.26 0.23 1.39 -0.29"/><path d="m 11.18 20 c 0 -4.79 -0.06 -5.3 -0.53 -4.56 c -0.18 0.28 -0.32 0.4 -0.46 0.4 c -0.23 0 -0.66 -0.39 -0.66 -0.59 c 0 -0.14 0.13 -0.37 0.52 -0.96 c 0.75 -1.13 1.21 -2 1.88 -3.64 c 0.57 -1.37 0.63 -1.49 0.75 -1.52 c 0.15 -0.04 0.94 0.25 1.05 0.38 c 0.07 0.09 -0.23 0.8 -1 2.31 l -0.49 0.97 v 10.31 c -0.36 0 -0.71 0 -1.07 0"/><path d="m 30.88 23.3 c -0.27 -0.1 -0.34 -0.17 -0.49 -0.48 c -0.26 -0.51 0.02 -0.5 0.42 -0.54 c 0.55 -0.06 0.66 -0.1 0.71 -0.25 c 0.05 -0.46 0.04 -0.82 0.04 -1.29 h -0.24 c -1.3 -0.01 -6 -0.1 -6 -0.12 c -0.02 -0.02 0.08 -0.88 0.11 -0.9 c 0.01 -0.01 0.96 0 2.13 0.02 c 1.23 0.02 2.47 0.04 3.71 0.06 c 0.62 -0.47 1.36 -0.91 1.83 -1.49 c 0 -0.03 -0.03 -0.06 -0.07 -0.07 c -0.2 -0.06 -1.07 -0.11 -2.67 -0.14 c -1.83 -0.04 -2.22 -0.07 -2.33 -0.19 c -0.09 -0.09 -0.12 -0.31 -0.05 -0.39 c 0.15 -0.2 1.07 -0.26 3.55 -0.23 c 2.03 0.02 3.48 0.07 3.85 0.14 c 0.89 -0.11 0.39 0.72 -0.32 0.82 c -0.61 0.37 -1.57 0.74 -1.78 1.4 c 0.1 0.1 0.6 0.12 3 0.13 c 2.84 0 2.75 0 2.72 0.27 c -0.01 0.21 -0.07 0.34 -0.17 0.39 c -0.21 0.11 -0.95 0.16 -3.52 0.23 c -0.84 0.02 -1.69 0.05 -2.53 0.09 l -0.05 0.66 c -0.1 1.38 -0.21 1.61 -0.91 1.84 c -0.32 0.08 -0.68 0.16 -0.95 0.07"/><path d="m 25.32 34.68 c 0 -0.63 0.02 -0.64 1.12 -0.71 l 0.41 -0.03 v -0.39 c 0.01 -1.45 0.09 -6.18 0.11 -6.19 c 0.99 -0.07 1.79 -0.06 2.85 -0.13 l 0.11 -0.02 l 0.08 -0.84 c 0.09 -0.93 0.13 -1.05 0.34 -1.14 c 0.18 -0.08 0.54 -0.08 0.61 -0.01 c 0.18 0.67 0.13 1.07 0.19 1.8 l 0.02 0.18 c 0.61 0 1.21 0 1.82 0 c 0.07 -0.74 0.04 -1.38 0.17 -2.1 c 0.21 -0.17 0.4 -0.11 0.69 -0.05 c 0.16 0.09 0.21 0.29 0.3 1.24 c 0.04 0.48 0.09 0.89 0.11 0.9 c 1 0.1 1.79 0.11 2.85 0.21 c 0.01 0 0.03 1.3 0.05 2.88 c 0.02 1.57 0.05 3.05 0.06 3.29 l 0.02 0.42 c 0.51 0.08 1.27 -0.04 1.65 0.26 c 0.05 0.08 0.14 0.54 0.14 0.73 v 0.1 h -13.73 c 0 -0.14 0 -0.28 0 -0.42 m 4.38 -0.57 c 0.17 -0.06 0.24 -0.22 0.29 -0.59 c 0.05 -0.36 0.02 -1.39 -0.04 -1.61 c -0.11 -0.35 -0.32 -0.45 -0.94 -0.45 c -0.7 0 -0.89 0.12 -0.98 0.62 c -0.06 0.38 -0.03 1.51 0.05 1.78 c 0.28 0.48 1.1 0.33 1.61 0.25 m 3.28 -0.35 c 0.09 -0.28 0.13 -1.2 0.07 -1.57 c -0.05 -0.3 -0.18 -0.52 -0.36 -0.63 c -0.16 -0.09 -0.79 -0.13 -1.08 -0.07 c -0.45 0.1 -0.53 0.3 -0.53 1.29 c 0 0.66 0.05 1.08 0.15 1.23 c 0.59 0.18 1.55 0.33 1.75 -0.25 m 2.81 0.32 c 0.21 -0.09 0.26 -0.18 0.34 -0.64 c 0.09 -0.48 0.06 -1.18 -0.06 -1.5 c -0.14 -0.37 -0.35 -0.49 -0.91 -0.49 c -0.91 0 -1.04 0.21 -1 1.55 c 0.03 0.89 0.08 1.04 0.37 1.12 c 0.21 0.07 1.06 0.03 1.25 -0.05 m -6.2 -3.39 c 0.16 -0.05 0.31 -0.21 0.36 -0.4 c 0.07 -0.8 0.03 -1.23 -0.01 -2 c -0.62 0 -1.24 0 -1.86 0 c 0.04 0.69 -0.23 1.55 0.03 2.19 c 0.38 0.32 0.96 0.36 1.47 0.21 m 3.36 -0.29 c 0.17 -0.9 0.11 -1.31 0.05 -2.11 c -0.61 0 -1.21 0 -1.82 0 l -0.03 0.21 c -0.01 0.66 -0.11 1.29 0.03 1.93 c 0.4 0.38 1.52 0.52 1.77 -0.04 m 3.12 0.03 c 0.12 -0.83 0.06 -1.3 0.03 -2.14 c -0.62 0 -1.24 0 -1.86 0 l -0.03 0.59 c -0.04 0.76 -0.01 1.46 0.06 1.61 c 0.42 0.19 1.65 0.29 1.8 -0.05"/><path d="m 37.48 38.8 c -0.9 -0.85 -3.27 -1.89 -3.43 -2.48 c 0.02 -0.2 0.18 -0.37 0.37 -0.43 c 0.12 -0.04 0.18 -0.02 0.44 0.07 c 0.91 0.31 2.42 1.13 3.1 1.66 c 0.79 0.15 -0.02 1.43 -0.48 1.18"/><path d="m 26.56 38.96 c -0.27 -0.18 -0.59 -0.37 -0.68 -0.65 c 1.05 -0.56 2.29 -1.22 3.13 -1.78 c 0.75 -0.5 1.05 -0.66 1.2 -0.66 c 0.2 0 0.84 0.45 0.97 0.68 c 0.02 0.38 -2.27 1.41 -2.95 1.75 c -0.82 0.41 -1.5 0.74 -1.51 0.74 c -0.07 -0.03 -0.11 -0.05 -0.16 -0.07"/><path d="m 19.88 39.2 c -0.18 -0.2 -0.25 -1.05 -0.25 -2.81 v -0.98 c -0.31 -0.05 -0.61 -0.07 -0.86 -0.1 c -1.09 -0.1 -1.14 -0.13 -1.14 -0.56 c 0 -0.36 0 -0.36 0.79 -0.36 c 0.63 0 0.66 0 0.84 -0.09 c 0.5 -0.34 0.56 -1.09 0.31 -1.63 c -0.18 -0.37 -0.39 -0.43 -1.58 -0.45 c -0.88 -0.01 -0.82 -0.03 -0.88 0.3 c -0.06 0.32 -0.12 1.31 -0.2 3.53 c -0.09 2.63 -0.09 2.63 -0.23 2.69 c -0.44 0.14 -0.98 0.35 -1.38 0.23 c -0.12 -0.11 -0.17 -0.34 -0.11 -0.56 c 0.22 -0.46 0.72 -0.69 0.77 -1.12 c 0.05 -2 0.16 -3.38 0.16 -5.48 l -1.23 -0.13 c -1.14 -0.11 -1.31 0.03 -1.54 0.27 c -0.17 0.18 -0.38 0.58 -0.38 0.75 c 0.23 0.57 0.98 0.01 1.21 -0.25 c 0.12 -0.14 0.23 -0.26 0.25 -0.25 c 0.05 0.01 0.5 0.54 0.63 0.73 c 0.23 0.31 0.24 0.76 -0.23 0.73 c -0.17 -0.01 -0.84 -0.04 -1.48 -0.06 c -1.53 -0.05 -1.73 -0.09 -1.77 -0.33 c -0.03 -0.18 0 -0.24 0.16 -0.33 c 0.34 -0.26 0.54 -0.7 0.59 -1.12 c -0.04 -0.09 -0.29 -0.14 -0.83 -0.14 h -0.52 l -0.02 0.76 c -0.05 1.98 -0.03 3.71 -0.09 5.75 l -0.02 0.79 c -0.29 0 -0.58 0 -0.87 0 v -8.1 l 0.95 -0.02 c 1 -0.02 1.18 -0.05 1.27 -0.21 c 0.04 -0.07 0.04 -0.07 -0.19 -0.5 c -0.08 -0.15 -0.06 -0.25 0.09 -0.36 c 0.64 -0.03 0.85 0.3 1.46 0.6 c 0.14 0.04 0.36 -0.08 0.61 -0.34 c 0.28 -0.28 0.34 -0.41 0.23 -0.52 c -0.17 -0.17 -0.56 -0.21 -2.94 -0.3 c -1.29 -0.05 -1.53 -0.11 -1.5 -0.38 c 0.02 -0.2 0.11 -0.2 2.49 -0.22 l 2.17 -0.02 l 0.31 -0.62 c 0.49 -0.98 0.61 -1.1 0.98 -1 c 0.11 0.03 0.21 0.06 0.23 0.07 c 0.11 0.42 -0.66 1.25 -0.23 1.49 c 0.06 0.04 0.17 0.06 0.24 0.06 c 0.07 0 0.15 0.02 0.18 0.04 c 0.09 0.05 -0.04 0.26 -0.44 0.68 c -0.87 0.92 -1.02 1.12 -1.02 1.33 c 0 0.09 0.03 0.14 0.1 0.19 c 0.54 0.1 1.13 0 1.74 0 l 0.16 0.18 c 0.2 0.22 0.27 0.25 0.67 0.32 c 0.41 0.07 1.79 0.11 2.23 0.07 c 0.4 -0.15 0.71 -0.99 0.84 -1.41 c 0.39 -1.29 0.66 -1.54 1.04 -1.42 c 0.47 0.14 0.48 0.32 0.07 1.34 c -0.29 0.71 -0.39 1.03 -0.39 1.23 c 0.33 0.46 1.34 0.18 1.81 0.41 c 0.05 0.07 0.03 0.5 -0.02 0.57 c -0.08 0.11 -0.32 0.14 -1.32 0.14 h -0.96 c 0 0.67 0 1.35 0 2 l 0.95 0.01 c 1.1 0.02 1.16 0.03 1.21 0.29 c 0.02 0.09 0.02 0.22 0 0.3 c -0.64 0.54 -1.35 0.32 -2.26 0.4 l -0.02 1.71 c -0.02 1.95 -0.02 2 -0.27 2.13 c -0.23 0.11 -0.48 0.13 -0.57 0.03"/><path d="m 18.63 30.48 c -0.38 -0.36 -0.64 -0.88 -0.65 -1.39 c 0.05 -0.38 0.27 -0.46 0.55 -0.4 c 0.3 0.2 0.81 1.41 0.68 1.62 c -0.07 0.11 -0.29 0.23 -0.39 0.23 c -0.05 0 -0.14 -0.03 -0.2 -0.06"/><path d="m 17.2 27.39 v -0.45 l 1.14 0.02 c 2.45 0.05 3.97 0.1 4.16 0.14 c 0.33 0.07 0.39 0.13 0.45 0.58 l 0.02 0.14 h -5.77"/><path d="m 19.8 26.44 c -0.47 -0.22 -0.79 -0.87 -0.55 -1.12 c 0.15 -0.16 0.31 -0.22 0.63 -0.22 h 0.3 l 0.13 0.15 c 0.26 0.3 0.39 0.91 0.23 1.09 c -0.19 0.21 -0.43 0.24 -0.73 0.1"/><path d="m 10.17 26.72 c -0.38 -0.07 -0.64 -0.32 -0.58 -0.55 c 0.05 -0.18 0.32 -0.22 2.81 -0.41 c 1.32 -0.1 1.71 -0.13 2.66 -0.25 c 0.83 -0.11 1.41 -0.11 1.6 -0.01 c 0.25 0.18 0.32 0.38 0.18 0.55 c -2.14 0.46 -3.13 0.31 -5.47 0.63 c -0.39 0.02 -0.81 0.11 -1.2 0.05"/><path d="m 13.17 27.87 c -0.22 -0.26 -0.33 -0.51 -0.16 -0.77 c 0.27 -0.27 0.83 -0.04 1 0.41 c 0.06 0.16 0.02 0.23 -0.2 0.36 c -0.27 0.16 -0.47 0.16 -0.63 0"/><path d="m 11.1 27.98 c -0.17 -0.05 -0.34 -0.15 -0.38 -0.23 c -0.02 -0.04 -0.04 -0.13 -0.04 -0.21 c 0.09 -0.5 0.19 -0.66 0.55 -0.45 c 0.65 0.34 0.59 1.07 -0.14 0.88"/><path d="m 12.34 37.93 c -0.12 -0.05 -0.36 -0.35 -0.36 -0.45 c 0 -0.11 0.29 -0.37 0.53 -0.48 c 0.29 -0.13 0.29 -0.13 0.3 -0.25 c 0.02 -0.17 -0.13 -0.39 -0.45 -0.65 c -0.45 -0.38 -0.48 -0.51 -0.11 -0.54 c 0.15 -0.01 0.33 0.02 0.66 0.11 c 0.58 0.15 0.72 0.14 0.96 -0.09 c 0.09 -0.09 0.17 -0.2 0.17 -0.23 c 0 -0.21 -0.29 -0.34 -0.96 -0.42 c -1.05 -0.13 -1.27 -0.2 -1.25 -0.38 c 0.03 -0.22 0.7 -0.31 2.14 -0.29 c 1.11 0.02 1.07 0 0.97 0.42 c -0.04 0.15 -0.18 0.56 -0.33 0.91 c -0.14 0.35 -0.26 0.64 -0.26 0.66 c 0.01 0.02 0.13 0.11 0.26 0.2 c 0.32 0.22 0.46 0.42 0.49 0.7 c 0.02 0.18 0 0.22 -0.08 0.31 c -0.13 0.13 -0.18 0.11 -0.71 -0.14 c -0.43 -0.2 -0.61 -0.23 -0.77 -0.12 c -0.05 0.04 -0.27 0.2 -0.48 0.37 c -0.31 0.25 -0.58 0.42 -0.64 0.41 c -0.01 0 -0.05 -0.02 -0.09 -0.04"/></g></svg>