<svg xmlns="http://www.w3.org/2000/svg" viewBox="0 0 48 48"><path d="m 1.08 18.5 c 13.22 -44.98 73.6 3.3 32.88 26.2 c -15.88 9.81 -39.68 -3.04 -32.88 -26.2" style="fill:#ff8c00"/><g style="fill:#fff"><path d="m 11.57 19.7 h 23.69 c 0.22 0 0.39 0.18 0.39 0.39 v 16.83 c 0 0.21 -0.18 0.39 -0.39 0.39 h -23.69 c -0.21 0 -0.39 -0.18 -0.39 -0.39 v -16.83 c 0 -0.21 0.18 -0.39 0.39 -0.39"/><path d="m 13.55 9.59 h 19.3 c 0.22 0 0.39 0.18 0.39 0.39 v 8.34 c 0 0.21 -0.18 0.39 -0.39 0.39 h -19.3 c -0.22 0 -0.39 -0.18 -0.39 -0.39 v -8.34 c 0 -0.22 0.18 -0.39 0.39 -0.39"/></g></svg>