<svg xmlns="http://www.w3.org/2000/svg" viewBox="0 0 48 48"><path d="m 18.51 0.61 c -44.98 9.37 3.3 73.86 26.2 35.1 c 9.81 -15 -3.04 -39.94 -26.2 -35.1" style="fill:#ff8c00"/><g style="fill:#fff"><path d="m 38.7 30.51 c -0.87 -0.47 -2 -0.93 -2.86 -1.42 c 0.02 -0.18 0.06 -0.36 0.06 -0.55 c 0 -0.66 -0.1 -1.3 -0.25 -1.91 c 0.76 -0.6 1.79 -1.25 2.55 -1.85 c -0.21 -0.56 -0.45 -1.09 -0.75 -1.61 c -0.96 0.19 -2.13 0.54 -3.11 0.74 c -0.5 -0.68 -1.06 -1.24 -1.74 -1.73 c 0.19 -0.97 0.55 -2.13 0.75 -3.09 c -0.52 -0.29 -1.05 -0.53 -1.62 -0.74 c -0.61 0.75 -1.26 1.77 -1.87 2.53 c -0.61 -0.15 -1.27 -0.25 -1.93 -0.25 c -0.19 0 -0.37 0.05 -0.56 0.06 c -0.5 -0.85 -0.95 -1.97 -1.43 -2.84 c -0.55 0.1 -1.1 0.25 -1.61 0.43 c 0.02 0.96 0.19 2.17 0.19 3.14 c -0.79 0.37 -1.5 0.83 -2.12 1.42 c -0.93 -0.34 -2 -0.88 -2.92 -1.23 c -0.36 0.42 -0.65 0.89 -0.93 1.36 c 0.63 0.73 1.53 1.53 2.17 2.28 c -0.34 0.75 -0.52 1.56 -0.62 2.4 c -0.95 0.33 -2.17 0.61 -3.11 0.93 c 0 0.6 0.03 1.16 0.13 1.73 c 0.98 0.16 2.23 0.21 3.23 0.37 c 0.23 0.81 0.53 1.61 1 2.29 c -0.53 0.84 -1.25 1.77 -1.74 2.59 c 0.38 0.44 0.8 0.86 1.25 1.23 c 0.82 -0.48 1.77 -1.2 2.61 -1.72 c 0.69 0.46 1.48 0.75 2.3 0.99 c 0.15 1 0.21 2.23 0.38 3.2 c 0.57 0.1 1.14 0.12 1.74 0.13 c 0.33 -0.94 0.61 -2.14 0.93 -3.09 c 0.86 -0.09 1.68 -0.27 2.43 -0.62 c 0.76 0.64 1.56 1.53 2.3 2.16 c 0.48 -0.28 0.95 -0.58 1.37 -0.93 c -0.36 -0.91 -0.9 -1.97 -1.25 -2.9 c 0.59 -0.61 1.06 -1.32 1.43 -2.1 c 0.98 0 2.19 0.17 3.17 0.18 c 0.18 -0.51 0.34 -1.06 0.44 -1.6 m -6.77 -1.97 c 0 2.18 -1.78 3.95 -3.98 3.95 c -2.2 0 -3.98 -1.77 -3.98 -3.95 c 0 -2.18 1.78 -3.95 3.98 -3.95 c 2.2 0 3.98 1.77 3.98 3.95"/><path d="m 23.77 15.33 c -0.09 -0.45 -0.27 -0.88 -0.44 -1.29 c -1.24 -0.04 -2.87 0.17 -3.3 -0.31 c -0.42 -0.47 -0.07 -2.05 0.06 -3.27 c -0.47 -0.26 -0.96 -0.46 -1.49 -0.62 c -0.79 0.95 -1.67 2.25 -2.3 2.28 c -0.64 0.03 -1.6 -1.23 -2.49 -2.1 c -0.52 0.2 -0.98 0.5 -1.43 0.8 c 0.25 1.2 0.75 2.7 0.38 3.21 c -0.38 0.52 -2 0.52 -3.23 0.68 c -0.15 0.49 -0.21 1.01 -0.25 1.54 c 1.1 0.55 2.63 1.12 2.8 1.73 c 0.18 0.63 -0.91 1.9 -1.55 2.96 c 0.3 0.43 0.67 0.81 1.06 1.17 c 1.14 -0.5 2.57 -1.42 3.17 -1.17 c 0.6 0.25 0.93 1.92 1.37 3.08 c 0.15 0.01 0.29 0.06 0.44 0.06 c 0.38 0 0.75 -0.07 1.12 -0.13 c 0.32 -1.2 0.48 -2.9 1.06 -3.21 c 0.57 -0.31 2.11 0.48 3.29 0.86 c 0.36 -0.39 0.67 -0.83 0.93 -1.29 c -0.75 -0.99 -1.98 -2.14 -1.86 -2.78 c 0.11 -0.63 1.63 -1.3 2.67 -1.97 c -0.02 -0.08 0.02 -0.17 0 -0.25 m -3.73 1.23 c 0 1.84 -1.5 3.33 -3.36 3.33 c -1.86 0 -3.36 -1.49 -3.36 -3.33 c 0 -1.84 1.5 -3.33 3.36 -3.33 c 1.86 0 3.36 1.49 3.36 3.33"/></g></svg>