<svg xmlns="http://www.w3.org/2000/svg" viewBox="0 0 48 48"><defs><linearGradient id="0" gradientUnits="userSpaceOnUse" x1="1507.1" x2="1541.3" gradientTransform="matrix(0.788 0 0 1.012 -1176.5 -825)"><stop style="stop-color:#00f;stop-opacity:0"/><stop offset="0.78" style="stop-color:#0ff"/><stop offset="0.81" style="stop-color:#03ffff"/><stop offset="0.84" style="stop-color:#1ff"/><stop offset="0.86" style="stop-color:#25ffff"/><stop offset="0.89" style="stop-color:#43ffff"/><stop offset="0.92" style="stop-color:#68ffff"/><stop offset="0.94" style="stop-color:#95ffff"/><stop offset="0.97" style="stop-color:#caffff"/><stop offset="0.99" style="stop-color:#fff"/></linearGradient></defs><path d="m 36.3 4 c 42.2 35.83 -44.63 70.3 -35.7 14.87 c 1.96 -12.15 24.3 -24.52 35.7 -14.87" style="fill:#132869"/><g style="fill:#fff"><path d="m 30.82 26 c -0.5 0.14 -1.82 0.23 -1.82 0.23 l -0.17 0.67 c 0 0 0.66 -0.07 1.14 -0.01 c 0 0 0.16 -0.02 0.17 0.23 c 0.01 0.23 -0.01 0.48 -0.01 0.48 c 0 0 -0.01 0.15 -0.18 0.19 c -0.18 0.04 -1.41 0.1 -1.41 0.1 l -0.2 0.87 c 0 0 -0.07 0.2 0.09 0.14 c 0.15 -0.05 1.45 -0.37 1.62 -0.32 c 0.18 0.05 0.38 0.36 0.32 0.65 c -0.07 0.35 -1.36 1.41 -2.15 1.33 c 0 0 -0.41 0.04 -0.76 -0.68 c -0.33 -0.68 0.13 -1.98 0.13 -1.98 c 0 0 -0.21 -0.61 -0.05 -0.8 c 0 0 0.09 -0.1 0.34 -0.13 l 0.32 -0.84 c 0 0 -0.36 0.03 -0.57 -0.31 c -0.2 -0.32 -0.21 -0.47 -0.06 -0.56 c 0.16 -0.1 1.66 -0.45 2.7 -0.41 c 0 0 0.36 -0.04 0.67 0.76 c 0 0 0.15 0.32 -0.11 0.4 m -3.89 3.23 c -0.13 0.4 -0.48 0.83 -0.91 0.56 c -0.43 -0.27 -1.12 -2.06 -1.12 -2.06 c 0 0 -0.26 -0.67 -0.31 -0.65 c 0 0 -0.05 -0.13 -0.09 0.6 c -0.04 0.73 0.01 2.15 -0.22 2.38 c -0.21 0.22 -0.47 0.13 -0.61 -0.13 c -0.12 -0.26 -0.17 -0.88 -0.11 -1.95 c 0.08 -1.08 0.27 -2.23 0.52 -2.59 c 0.25 -0.36 0.45 -0.1 0.53 -0.01 c 0 0 0.33 0.39 0.88 1.53 l 0.1 0.21 c 0 0 0.5 1.08 0.55 1.07 c 0 0 0.04 0.05 0.08 0.02 c 0.05 -0.02 0.03 -0.37 0.03 -0.37 c 0 0 -0.11 -1.17 -0.56 -3.16 c 0 0 -0.07 -0.25 -0.02 -0.48 c 0.05 -0.23 0.23 -0.13 0.23 -0.13 c 0 0 0.71 0.46 1.05 1.93 c 0.34 1.49 0.11 2.82 -0.02 3.22 m -3.48 -3.8 c -0.06 0.15 -0.09 0.37 -0.39 0.43 c 0 0 -2.86 0.25 -2.99 0.51 c 0 0 -0.1 0.15 0.05 0.2 c 0.16 0.04 0.8 0.15 1.12 0.17 c 0.33 0 1.46 0.02 1.86 0.66 c 0 0 0.24 0.3 0.23 1 c -0.01 0.71 -0.11 0.96 -0.32 1.22 c -0.23 0.24 -2.16 1.36 -3.41 -0.36 c 0 0 -0.58 -0.82 0.2 -1.45 c 0 0 0.56 -0.43 1.98 0.07 c 0 0 0.43 0.2 0.41 0.4 c -0.02 0.21 -0.35 0.44 -0.83 0.43 c -0.46 -0.02 -0.8 -0.3 -0.74 -0.26 c 0.06 0.03 -0.5 -0.35 -0.67 -0.09 c -0.18 0.24 -0.13 0.38 0.04 0.53 c 0.43 0.32 2.11 0.2 2.61 -0.51 c 0 0 0.2 -0.29 -0.1 -0.52 c -0.3 -0.22 -1.17 -0.36 -1.5 -0.38 c -0.32 -0.02 -1.52 0 -1.7 -0.41 c 0 0 -0.18 -0.28 0.02 -1.06 c 0.2 -0.82 1.6 -1.14 2.2 -1.21 c 0 0 1.66 -0.07 1.97 0.36 c 0 0 0.04 0.1 -0.02 0.25 m -4.72 4.8 c -0.2 0.19 -0.63 0.11 -0.75 -0.11 c -0.12 -0.19 -0.16 -0.95 -0.14 -2.14 c 0.02 -1.21 0.04 -2.7 0.25 -2.94 c 0.21 -0.24 0.35 -0.03 0.43 0.13 c 0.09 0.16 0.2 0.34 0.22 0.72 c 0.02 0.38 0.09 2.36 0.09 2.36 c 0 0 0.09 1.79 -0.1 1.98 m 0.43 -6.4 c -0.59 0.25 -0.99 0.16 -1.33 -0.02 c -0.15 0.34 -0.23 0.44 -0.35 0.46 c -0.16 0.02 -0.31 -0.32 -0.34 -0.43 c -0.03 -0.09 -0.11 -0.23 -0.01 -0.57 c -0.33 -0.38 -0.36 -0.9 -0.3 -1.25 c 0.08 -0.4 0.64 -1.92 2.36 -2.1 c 0 0 0.84 -0.08 0.98 0.5 h 0.02 c 0 0 0.81 0 0.8 0.93 c -0.01 0.93 -0.9 2.09 -1.82 2.48 m -1.59 -2.06 c -0.18 0.36 -0.18 0.57 -0.1 0.72 c 0.2 -0.39 0.56 -1 1.09 -1.46 c -0.41 0.04 -0.75 0.27 -0.99 0.74 m 2.36 -0.59 c -0.54 0.1 -1.37 1.03 -1.77 1.79 c 0.61 0.14 1.68 0.09 2.15 -1.16 c 0 0 0.23 -0.77 -0.39 -0.63 m 14.6 7.17 c -0.32 0.72 -1.23 2.22 -2.44 1.87 c -0.4 1.24 -0.73 2.5 -0.92 4.37 c 0 0 -0.04 0.37 -0.28 0.24 c -0.23 -0.11 -0.62 -0.61 -0.7 -1.3 c -0.08 -0.91 0.23 -2.44 0.88 -4.2 c -0.19 -0.39 -0.32 -0.95 -0.2 -1.75 c 0 0 0.16 -1.48 1.32 -2.82 c 0 0 0.14 -0.16 0.22 -0.11 c 0.09 0.05 0.05 0.53 -0.02 0.76 c -0.07 0.23 -0.59 1.38 -0.59 1.38 c 0 0 -0.32 0.77 -0.23 1.38 c 0.61 -1.2 1.98 -3.61 2.84 -2.85 c 0.29 0.26 0.42 0.84 0.42 1.46 c 0 0.55 -0.1 1.13 -0.29 1.56 m -0.25 -1.9 c 0 0 -0.05 -0.48 -0.41 0.05 c -0.31 0.44 -0.88 1.27 -1.33 2.4 c 0.47 -0.07 0.93 -0.4 1.07 -0.57 c 0.23 -0.26 0.75 -0.95 0.67 -1.88 m -16.84 0.61 c -0.07 1.08 -0.39 2.89 -2.68 3.79 c -1.51 0.58 -2.93 0.3 -3.71 0.05 c -0.02 0.4 -0.05 0.57 -0.1 0.63 c -0.07 0.09 -0.56 0.45 -0.83 -0.07 c -0.12 -0.25 -0.18 -0.69 -0.22 -1.09 c -1.75 -1.03 -2.55 -2.52 -2.59 -2.59 c -0.04 -0.05 -0.43 -0.59 -0.04 -1.24 c 0.38 -0.59 1.6 -1.18 2.7 -1.43 c 0.04 -1.21 0.15 -2.12 0.28 -2.54 c 0.16 -0.49 0.36 -0.05 0.54 0.28 c 0.15 0.25 0.23 1.3 0.24 2.14 c 0.72 -0.05 1.14 0.02 1.95 0.21 c 1.05 0.25 1.75 0.93 1.68 1.71 c -0.04 0.77 -0.59 1.08 -0.8 1.1 c -0.22 0.02 -0.56 -0.18 -0.56 -0.18 c -0.23 -0.14 -0.02 -0.27 0.26 -0.43 c 0.31 -0.19 0.24 -0.39 0.24 -0.39 c -0.11 -0.43 -1.48 -0.72 -2.83 -0.72 c -0.01 0.96 0.03 2.54 0.05 3.47 c 0.95 0.23 1.65 0.19 1.65 0.19 c 0 0 3.46 -0.13 3.56 -2.95 c 0.11 -2.84 -3.45 -5.56 -6.07 -6.42 c -2.62 -0.88 -4.11 -0.27 -4.23 -0.18 c -0.14 0.09 -0.01 0.11 -0.01 0.11 c 0 0 0.14 0.03 0.39 0.13 c 0.26 0.11 0.06 0.28 0.06 0.28 c -0.45 0.18 -0.95 0.07 -1.05 -0.2 c -0.09 -0.26 0.07 -0.5 0.25 -0.84 c 0.19 -0.36 0.39 -0.34 0.39 -0.34 c 3.24 -1.44 7.2 1.17 7.2 1.17 c 3.7 2.41 4.33 5.23 4.26 6.32 m -9.79 -0.15 c -0.37 0.23 -0.11 0.57 -0.11 0.57 c 0.69 0.95 1.54 1.55 2.35 1.92 c 0.09 -1.64 0.08 -2.22 0.09 -3.05 c -1.26 0.11 -1.99 0.37 -2.32 0.56"/><path d="m 41.4 26.59 v 0.59 c 0 0.13 -0.08 0.23 -0.18 0.23 h -2.18 c 0 0.14 0 0.27 0 0.39 c 0 0.87 -0.03 1.57 -0.09 2.37 c -0.01 0.12 -0.09 0.21 -0.18 0.21 h -0.47 c -0.05 0 -0.09 -0.03 -0.13 -0.07 c -0.03 -0.05 -0.05 -0.11 -0.04 -0.17 c 0.06 -0.79 0.09 -1.49 0.09 -2.34 c 0 -0.13 0 -0.25 0 -0.39 h -2.16 c -0.1 0 -0.18 -0.11 -0.18 -0.23 v -0.59 c 0 -0.13 0.08 -0.23 0.18 -0.23 h 2.13 c -0.05 -0.96 -0.14 -1.88 -0.28 -2.82 c -0.01 -0.06 0 -0.11 0.03 -0.16 c 0.03 -0.04 0.07 -0.07 0.11 -0.07 h 0.51 c 0.08 0 0.15 0.07 0.16 0.17 c 0.14 0.97 0.23 1.91 0.28 2.88 h 2.21 c 0.1 0 0.18 0.11 0.18 0.23"/></g><path d="m 38.71 22.1 c -1.14 -3.57 -3.04 -6.62 -5.52 -8.81 c -2.55 -2.25 -5.52 -3.43 -8.64 -3.43 c -5.13 0 -9.89 3.27 -12.77 8.75 c -0.03 0.06 -0.04 0.13 -0.02 0.2 c 0.02 0.07 0.06 0.12 0.11 0.14 l 0.39 0.17 c 0.02 0.01 0.05 0.01 0.07 0.01 c 0.07 0 0.14 -0.05 0.18 -0.12 c 1.3 -2.46 3.07 -4.5 5.1 -5.92 c 2.11 -1.46 4.49 -2.24 6.89 -2.24 c 2.9 0 5.7 1.11 8.1 3.18 c 2.34 2.02 4.16 4.86 5.25 8.2 c 0.03 0.1 0.11 0.16 0.19 0.16 h 0.47 c 0.05 0 0.11 -0.04 0.14 -0.09 c 0.03 -0.06 0.04 -0.13 0.02 -0.19 m -26.31 -3.12 c -0.01 0 -0.02 0 -0.03 -0.01 c 0.01 0 0.02 0.01 0.03 0.01 m 25.63 3.32 c 0.01 0.01 0.02 0.02 0.03 0.02 c -0.01 -0.01 -0.02 -0.01 -0.03 -0.02" style="fill:url(#0)"/></svg>