<svg xmlns="http://www.w3.org/2000/svg" viewBox="0 0 48 48"><path d="m 10.51 5.13 c 23.84 -17.2 50 14.55 30.84 34.8 c -18.1 19.1 -48.1 1.39 -39.89 -22.35 c 1.71 -4.95 4.67 -9.3 9 -12.45" style="fill:#105331"/><path d="m 11 24.1 v -12.53 h 25.87 v 25.1 h -25.87 m 24.86 -12.53 v -11.55 h -23.85 v 23.1 h 23.85 m -22.51 -1.29 c -0.18 -0.17 -0.18 -20.34 0 -20.51 c 0.18 -0.17 21 -0.17 21.2 0 c 0.18 0.17 0.18 20.34 0 20.51 c -0.17 0.17 -5.65 0.17 -5.82 0 c -0.09 -0.09 -0.12 -1.87 -0.12 -7.44 v -7.32 h -1.62 v 7.32 c 0 5.57 -0.03 7.35 -0.12 7.44 c -0.17 0.17 -5.65 0.17 -5.82 0 c -0.09 -0.09 -0.12 -1.87 -0.12 -7.44 v -7.32 h -1.62 v 7.32 c 0 5.57 -0.03 7.35 -0.12 7.44 c -0.18 0.17 -5.65 0.17 -5.82 0" style="fill:#e8f6ec"/></svg>