<svg xmlns="http://www.w3.org/2000/svg" viewBox="0 0 48 48"><path d="m 37.55 5.13 c -23.84 -17.2 -50 14.55 -30.84 34.8 c 18.1 19.1 48.1 1.39 39.89 -22.35 c -1.71 -4.95 -4.67 -9.3 -9 -12.45" style="fill:#006789"/><path d="m 11 24.1 v -12.53 h 25.87 v 25.1 h -25.87 m 24.86 -12.53 v -11.55 h -23.85 v 23.1 h 23.85 m -22.51 -1.29 c -0.18 -0.17 -0.18 -20.34 0 -20.51 c 0.18 -0.17 21 -0.17 21.2 0 c 0.18 0.17 0.18 20.34 0 20.51 c -0.17 0.17 -5.65 0.17 -5.82 0 c -0.09 -0.09 -0.12 -1.87 -0.12 -7.44 v -7.32 h -1.62 v 7.32 c 0 5.57 -0.03 7.35 -0.12 7.44 c -0.17 0.17 -5.65 0.17 -5.82 0 c -0.09 -0.09 -0.12 -1.87 -0.12 -7.44 v -7.32 h -1.62 v 7.32 c 0 5.57 -0.03 7.35 -0.12 7.44 c -0.18 0.17 -5.65 0.17 -5.82 0" style="fill:#701b90"/><g style="fill:#0ff"><path d="m 11.1 29.76 c 0.29 -0.13 0.58 -0.25 0.88 -0.36 c 0.03 2.32 0.02 4.09 0.02 6.6 c 7.96 0 15.93 0 23.89 0 c 0 -1.64 0 -3.28 0 -4.92 c 0.33 0.26 0.66 0.52 0.99 0.79 c 0 1.7 0 3.4 0 5.11 c -8.61 0 -17.21 0 -25.81 0 c 0.01 -2.4 0.02 -4.8 0.04 -7.2"/><path d="m 13.38 28.31 c 0.95 -1.13 1.74 -2.73 2.94 -3.45 c 1.15 -0.53 1.63 1 2.66 1.36 c 0.35 0.11 0.38 0.2 0.28 1.02 c -0.14 2.52 -0.11 4.52 -0.11 7.1 c -1.92 0 -3.84 0 -5.77 0 c 0 -2.1 0 -3.88 0 -6"/><path d="m 21.1 27.4 c 1.04 -0.14 1.77 -0.93 2.26 -1.46 c 0.96 -1.04 2.9 -2.43 3.39 -2.43 c 0.18 3.81 0.12 6.72 0.12 10.83 c -1.92 0 -3.84 0 -5.77 0 c 0 -2.31 0 -4.63 0 -6.95"/><path d="m 28.75 24.2 l 1.05 0.73 c 0.98 0.68 1.07 0.82 1.4 1.89 c 0.43 1.43 0.49 1.5 2.05 2.53 l 1.27 0.84 c 0 1.39 0 2.78 0 4.16 c -1.92 0 -3.84 0 -5.77 0 c 0 -3.38 0 -6.77 0 -10.16"/></g></svg>