<svg xmlns="http://www.w3.org/2000/svg" viewBox="0 0 48 48"><path d="m 0.18 24.34 c -3.64 31.88 48.4 31.43 47.77 -0.57 c 1.71 -29.77 -50.61 -32.45 -47.77 0.57" style="fill:#cf76be"/><path d="m 10.1 29.2 v 1.78 c 0 1.48 1.36 2.67 3.04 2.67 h 1.01 v 0.89 l 1.02 2.67 h 2.03 l 1.01 -2.67 v -0.89 h 3.04 v 0.89 l 1.02 2.67 h 2.03 l 1.02 -2.67 v -0.89 h 3.04 v 0.89 l 1.02 2.67 h 2.03 l 1.02 -2.67 v -0.89 h 1.02 c 1.68 0 3.04 -1.19 3.04 -2.67 v -1.78" style="fill-opacity:0.1"/><path d="m 15.1 13.15 l -1.02 2.67 v 17.81 l 1.02 2.67 h 2.03 l 1.01 -2.67 v -17.81 l -1.01 -2.67 m 5.07 0 l -1.02 2.67 v 17.81 l 1.02 2.67 h 2.03 l 1.02 -2.67 v -17.81 l -1.02 -2.67 m 5.07 0 l -1.02 2.67 v 17.81 l 1.02 2.67 h 2.03 l 1.02 -2.67 v -17.81 l -1.02 -2.67" style="fill:#e5e5e5"/><path d="m 10.63 16.71 h 25.3 c 0.31 0 0.56 0.25 0.56 0.56 v 14.9 c 0 0.31 -0.25 0.56 -0.56 0.56 h -25.2 c -0.31 0 -0.56 -0.25 -0.56 -0.56 v -14.9 c 0 -0.31 0.25 -0.56 0.56 -0.56" style="fill:#616161"/><g style="fill-opacity:0.1"><path d="m 14.1 32.74 v 0.89 h 4.06 v -0.89 m 3.04 0 v 0.89 h 4.06 v -0.89 m 3.04 0 v 0.89 h 4.06 v -0.89"/><path d="m 10.1 30.42 c 0.2 1.31 1.46 2.32 3 2.32 h 20.29 c 1.54 0 2.8 -1 3 -2.32 c -0.19 0.81 -1 1.43 -1.99 1.43 h -22.32 c -0.98 0 -1.8 -0.61 -1.99 -1.43"/></g><path d="m 15.1 20.27 l -1.02 0.89 v 7.12 l 1.02 0.89 h 4.06 l 1.02 -0.89 l -1.02 -0.89 h -3.04 v -1.78 h 2.03 l 1.02 -0.89 l -1.02 -0.89 h -2.03 v -1.78 h 3.04 l 1.02 -0.89 l -1.02 -0.89 m 3.04 0 l -1.02 0.89 v 7.12 l 1.02 0.89 l 1.02 -0.89 v -2.67 h 2.03 l 1.02 -0.89 l -1.02 -0.89 h -2.03 v -1.78 h 3.04 l 1.01 -0.89 l -1.01 -0.89 m 3.04 0 l -1.02 0.89 l 1.02 0.89 v 5.34 l -1.02 0.89 l 1.02 0.89 h 2.03 l 1.02 -0.89 l -1.02 -0.89 v -5.34 l 1.02 -0.89 l -1.02 -0.89" style="fill:#e5e5e5"/></svg>