<svg xmlns="http://www.w3.org/2000/svg" viewBox="0 0 48 48"><path d="m 0.56 29.48 c 2.97 19.37 29.42 24.56 41.1 10.72 c 10.28 -10.27 7.73 -29.94 -4.89 -36.69 c -14.48 -9 -35.57 2.13 -36.71 20.1 c -0.12 1.97 0.05 3.96 0.52 5.87" style="fill:#deb0b4"/><path d="m 11.81 15.33 v 4.12 h 1.01 v 12.37 h -1.01 v 4.13 c 0 1.14 0.9 2.06 2.02 2.06 h 4 v -1.03 h 12.13 v 1.03 h 4 c 1.12 0 2.02 -0.92 2.02 -2.06 v -4.13 h -1.01 v -12.37 h 1.01 v -4.12" style="fill-opacity:0.1"/><path d="m 12.82 13.27 h 22.24 v 22.68 h -22.24" style="fill:#ececec"/><path d="m 13.84 13.27 c -0.37 0 -0.71 0.1 -1.01 0.27 v 5.91 h 1.01 v -4.12 h 4 v -2.06 m 12.13 0 v 2.06 h 4 v 4.12 h 1.01 v -5.91 c -0.3 -0.17 -0.64 -0.27 -1.01 -0.27" style="fill-opacity:0.1"/><path d="m 13.84 12.23 c -1.12 0 -2.02 0.92 -2.02 2.06 v 4.12 h 2.02 v -4.12 h 4 v -2.06 m 12.13 0 v 2.06 h 4 v 4.12 h 2.02 v -4.12 c 0 -1.14 -0.9 -2.06 -2.02 -2.06 m -22.24 18.55 v 4.13 c 0 1.14 0.9 2.06 2.02 2.06 h 4 v -2.06 h -4 v -4.13 m 12.13 0 v 2.06 h 2 v -2.06 m 2.02 0 v 2.06 h 2.02 v -2.06 m 2 0 v 4.13 h -4 v 2.06 h 4 c 1.12 0 2.02 -0.92 2.02 -2.06 v -4.13" style="fill:#ed444c"/><path d="m 15.86 16.36 v 2.06 h 2 v 5.16 h -2 v 2.06 h 8.1 v -4.13 h -2 v 2.06 h -2.02 v -5.16 h 2.02 v -2.06 m 4 0 v 2.06 h 2 v -2.06 m 2.02 0 v 2.06 h 2.02 v -2.06" style="fill:#3584e4"/><path d="m 25.97 20.48 v 1.03 h 6.07 v -1.03 m -6.07 2.06 v 1.03 h 6.07 v -1.03 m -6.07 2.06 v 1.03 h 6.07 v -1.03 m -16.2 3.09 v 1.03 h 16.2 v -1.03 m -16.2 2.06 v 1.03 h 8.1 v -1.03 m -8.1 2.06 v 1.03 h 8.1 v -1.03" style="fill:#b2b2b2"/></svg>