<svg xmlns="http://www.w3.org/2000/svg" viewBox="0 0 48 48"><path d="m 36.3 3.6 c 41.77 35.83 -44.1 70.3 -35.3 14.87 c 1.93 -12.15 24 -24.53 35.3 -14.87" style="fill:#182340"/><g style="fill:#fff"><path d="m 20.34 15.5 c 0 2.51 -2.08 4.54 -4.64 4.54 c -2.57 0 -4.65 -2.03 -4.65 -4.54 c 0 -2.5 2.08 -4.54 4.65 -4.54 c 2.57 0 4.64 2.03 4.64 4.54"/><path d="m 27.71 24.46 c 0 2.32 -1.91 4.21 -4.25 4.21 c -2.35 0 -4.25 -1.89 -4.25 -4.21 c 0 -2.33 1.9 -4.21 4.25 -4.21 c 2.35 0 4.25 1.89 4.25 4.21"/><path d="m 31.71 34.3 c 0 2.42 -1.96 4.38 -4.37 4.38 c -2.42 0 -4.38 -1.96 -4.38 -4.38 c 0 -2.41 1.96 -4.37 4.38 -4.37 c 2.41 0 4.37 1.96 4.37 4.37"/><path d="m 35.53 13.75 c 0 2.5 -2.08 4.54 -4.64 4.54 c -2.57 0 -4.64 -2.03 -4.64 -4.54 c 0 -2.51 2.08 -4.54 4.64 -4.54 c 2.57 0 4.65 2.03 4.64 4.54"/><path d="m 18.7 33.2 c 0 3.11 -2.54 5.63 -5.68 5.63 c -3.13 0 -5.68 -2.52 -5.67 -5.63 c 0 -3.11 2.54 -5.63 5.67 -5.63 c 3.14 0 5.68 2.52 5.68 5.63"/><path d="m 39.2 25.47 c 0 2.25 -1.79 4.07 -3.99 4.07 c -2.21 0 -4 -1.82 -4 -4.07 c 0 -2.25 1.79 -4.07 4 -4.07 c 2.21 0 3.99 1.82 3.99 4.07"/></g><g style="fill:#211a14"><path d="m 14.16 36.3 c -0.64 -0.23 -1.08 -0.65 -1.08 -1 c 0 -0.41 0.51 -0.44 1.03 -0.05 c 0.34 0.25 0.49 0.27 0.78 0.1 c 0.44 -0.43 0.47 -1.08 0.11 -1.44 c -0.17 -0.17 -0.31 -0.24 -0.46 -0.24 c -0.59 0 -0.95 -0.39 -0.71 -0.77 c 0.07 -0.1 0.18 -0.2 0.25 -0.23 c 0.35 -0.12 0.73 -0.34 0.97 -0.55 c 0.34 -0.33 0.34 -0.78 0.06 -1.06 c -0.66 -0.41 -0.93 0.07 -1.54 0.26 c -0.41 0.05 -0.51 -0.3 -0.39 -0.54 c 0.23 -0.45 1 -0.88 1.6 -0.88 c 0.55 0 0.96 0.23 1.18 0.68 c 0.25 0.6 0.74 1.04 0.07 1.8 c -0.32 0.45 -0.93 0.97 -0.44 1.23 c 1.1 0.57 0.5 1.91 0.22 2.29 c -0.31 0.44 -1.07 0.62 -1.67 0.4"/><path d="m 9.54 36.3 c -0.14 -0.65 0.9 -0.59 1.15 -1.16 c 0.12 -0.28 0.14 -3.88 0.04 -3.97 c -0.46 -0.06 -0.87 0.14 -1.31 0.06 c -0.06 -0.05 -0.11 -0.13 -0.11 -0.18 c 0 -0.16 0.39 -0.45 0.98 -0.75 c 0.75 -0.37 1.14 -0.48 1.34 -0.37 c 0.15 0.08 0.15 0.09 0.09 1.87 c -0.04 0.98 -0.05 2.16 -0.04 2.61 c -0.14 0.75 0.38 1.21 0.38 1.81 c -0.04 0.08 -0.12 0.14 -0.16 0.15 c -0.8 -0.03 -1.55 0.13 -2.34 -0.07"/><path d="m 22.81 27.1 c -0.9 -0.4 -1.63 -1.55 -1.7 -2.3 c -0.13 -2.27 0.51 -2.08 1.13 -2.64 c 0.73 -0.59 1.86 -0.64 2.47 -0.04 c 0.57 0.57 1.2 0.85 1.02 2.7 c -0.11 1.11 -0.78 1.49 -1.26 1.92 c -0.4 0.36 -1.05 0.5 -1.66 0.36 m 1.14 -1.12 c 0.39 -0.24 0.48 -0.43 0.58 -1.25 c 0.11 -0.86 0.08 -1.18 -0.13 -1.5 c -0.22 -0.34 -0.41 -0.44 -0.88 -0.45 c -0.5 -0.01 -0.76 0.11 -1 0.43 c -0.21 0.77 -0.45 1.65 -0.02 2.46 c 0.38 0.46 0.96 0.6 1.44 0.31"/><path d="m 14.66 18.4 c -0.29 -0.08 -0.38 -0.19 -0.34 -0.4 c 0.05 -0.26 0.29 -0.7 0.71 -1.32 c 0.68 -1 1.2 -2.09 1.29 -2.74 c 0.03 -0.2 0.02 -0.26 -0.07 -0.34 c -0.13 -0.13 -0.26 -0.13 -0.8 -0.02 c -0.57 0.11 -0.83 0.07 -1.04 -0.16 c -0.19 -0.21 -0.2 -0.4 -0.04 -0.64 c 0.22 -0.32 0.34 -0.35 1.52 -0.34 c 1.27 0.01 1.28 0.01 1.41 0.52 c 0.14 0.52 0.09 0.97 -0.23 1.87 c -0.14 0.41 -0.35 1.11 -0.46 1.57 c -0.29 1.22 -0.55 1.74 -0.95 1.91 c -0.27 0.12 -0.75 0.16 -0.99 0.09"/><path d="m 30.86 17.44 c -0.17 -0.11 -0.33 -0.38 -0.33 -0.54 c 0 -0.06 0.09 -0.39 0.21 -0.74 c 0.27 -0.82 0.25 -1.11 -0.12 -1.37 c -0.59 -0.14 -0.89 -0.09 -1.59 -0.09 l -0.13 -0.14 c -0.15 -0.18 -0.26 -0.77 -0.12 -1.09 c 0.36 -0.81 0.51 -1.19 0.97 -1.99 c 0.46 -0.77 1.61 -1.48 1.91 -1.18 c 0.16 0.16 0.2 0.66 0.16 2.13 c -0.04 1.65 -0.06 1.59 0.41 1.48 c 0.28 -0.07 0.29 -0.06 0.43 0.07 c 0.19 0.19 0.2 0.53 0.01 0.72 c -0.34 0.23 -0.78 0.07 -0.97 0.39 c -0.15 0.25 -0.14 0.41 0.07 1.09 c 0.14 0.43 0.18 0.64 0.15 0.77 c -0.22 0.47 -0.76 0.68 -1.08 0.49 m -0.19 -3.91 c 0.34 -0.18 0.42 -0.34 0.42 -0.7 c 0 -0.23 0.11 -0.88 -0.05 -0.97 c -0.32 -0.17 -0.8 0.14 -1.09 0.69 c -0.17 0.32 -0.14 0.66 0.08 0.88 c 0.2 0.19 0.4 0.22 0.64 0.1"/><path d="m 34.42 28.34 c -0.56 -0.17 -0.79 -0.57 -0.48 -0.82 c 0.18 -0.14 0.35 -0.14 0.8 0.05 c 0.45 0.18 0.68 0.19 0.95 0.05 c 0.54 -0.84 0.85 -0.85 0.53 -1.7 c -0.69 -0.87 -1.27 -0.11 -2.06 0.09 c -0.13 -0.02 -0.48 -1.14 -0.52 -1.6 c -0.03 -0.43 0.09 -0.92 0.29 -1.38 c 0.11 -0.25 0.26 -0.09 0.45 -0.17 c 0.38 -0.16 0.7 -0.36 1.66 -0.23 c 0.48 0.07 0.98 0.34 1.02 0.37 c 0.56 0.37 0.17 0.5 -0.01 0.59 c -0.22 0.11 -0.7 0.25 -1.34 0.11 c -0.9 -0.2 -1.19 -0.51 -1.29 -0.09 c -0.13 0.49 -0.04 0.89 0.22 1.1 c 0.17 0.13 0.35 0.14 0.93 0.03 c 0.51 -0.09 0.64 -0.07 0.95 0.16 c 0.48 0.35 0.85 0.99 0.7 1.7 c -0.12 0.54 -0.46 1.03 -0.75 1.32 c -0.48 0.49 -1.55 0.59 -2.05 0.43"/><path d="m 25.99 37.1 c -0.14 -0.59 0.9 -0.54 1.15 -1.05 c 0.11 -0.25 0.14 -3.52 0.03 -3.6 c -0.46 -0.05 -0.87 0.13 -1.31 0.05 c -0.06 -0.04 -0.11 -0.12 -0.11 -0.16 c 0 -0.14 0.39 -0.41 0.98 -0.68 c 0.75 -0.34 1.14 -0.44 1.34 -0.34 c 0.15 0.07 0.15 0.08 0.09 1.69 c -0.04 0.89 -0.05 1.95 -0.04 2.36 c -0.14 0.68 0.39 1.09 0.38 1.64 c -0.04 0.07 -0.11 0.13 -0.16 0.13 c -0.8 -0.02 -1.55 0.12 -2.34 -0.05"/></g></svg>