<svg xmlns="http://www.w3.org/2000/svg" viewBox="0 0 48 48"><path d="m 45.91 16.4 c 9.32 23.89 -16.79 36.1 -33 30.1 c -11.34 -4.25 -17 -21.2 -8.94 -34.88 c 10.17 -17.28 34.8 -13.6 41.99 4.82" style="fill:#251017"/><path d="m 40.1 24.79 c 0 -9.1 -7.44 -16.43 -16.62 -16.43 c -9.18 0 -16.63 7.36 -16.63 16.43 c 0 9.1 7.45 16.44 16.63 16.44 c 9.18 0 16.62 -7.36 16.62 -16.44" style="fill:#d9a420"/><g style="fill:#251017"><path d="m 32.87 9.99 h 1.13 v 29.86 h -1.13"/><path d="m 12.29 10.24 h 1.13 v 29.86 h -1.13"/><path d="m 18.69 7.23 h 1.13 v 34.63 h -1.13"/><path d="m 26.1 7.23 h 1.13 v 35.5 h -1.13"/></g><path d="m 117.5 -142.8 c 3.48 -7.1 21.52 -37.7 24.1 -37.7 c 2.21 0 16.31 22.92 24.94 40.52 c 8.11 16.56 12.81 34.1 11.27 42.1 c -0.74 3.93 -1.65 10.97 -12.94 15.56 c -69.95 4.75 -65.5 -18.36 -47.4 -60.5" transform="matrix(0.194 0 0 0.19 -3.96 48.79)" style="fill:#fd1f31;stroke:#251017;stroke-width:4.56"/></svg>