<svg xmlns="http://www.w3.org/2000/svg" viewBox="0 0 48 48"><path d="m 41.1 9 c 29.95 42.56 -47.94 56.1 -40.2 10.88 c 4.1 -17.98 28.2 -27.94 40.2 -10.88" style="fill:#66f"/><path d="m 15.58 37.1 c -0.63 -0.1 -0.86 -0.23 -1.4 -0.78 c -0.93 -0.5 -0.59 -2.39 -0.64 -7.91 c 0 -7.09 0.01 -7.26 0.32 -7.73 c 0.17 -0.26 0.53 -0.62 0.79 -0.8 c 0.45 -0.3 0.68 -0.33 3.73 -0.42 c 1.79 -0.05 4.86 -0.1 6.83 -0.11 l 3.57 -0.01 l 0.1 -1.25 c 0.21 -2.58 -0.24 -3.94 -1.71 -5.18 c -0.88 -0.74 -1.57 -0.96 -3 -0.96 c -1.34 0 -2.21 0.28 -3.12 1.01 c -1.16 0.93 -1.52 1.86 -1.71 4.35 l -0.1 1.32 h -1.04 c -1.35 0 -1.43 -0.12 -1.29 -2 c 0.19 -2.57 0.87 -4.14 2.37 -5.44 c 1.42 -1.23 2.96 -1.79 4.98 -1.79 c 1.95 0 3.56 0.63 4.91 1.92 c 1.65 1.57 2.09 2.75 2.28 6.11 l 0.11 1.86 l 0.88 0.17 c 1.04 0.2 1.73 0.69 2.13 1.5 c 0.26 0.53 0.28 1.08 0.28 7.25 c 0 4.3 -0.05 6.88 -0.16 7.23 c -0.09 0.3 -0.39 0.78 -0.66 1.06 c -0.48 0.49 -0.56 0.52 -1.77 0.61 c -1.77 0.14 -15.77 0.11 -16.7 -0.03 m 10.3 -4.6 c -0.01 -1.37 -0.18 -2.41 -0.36 -3.84 l 0.51 -0.63 c 0.98 -1.21 0.99 -2.38 0.02 -3.24 c -0.69 -0.61 -1.05 -0.76 -1.86 -0.76 c -1.36 0 -2.39 0.86 -2.58 2.16 c -0.1 0.71 0.15 1.32 0.85 2.03 l 0.42 0.43 c -0.16 1.26 -0.5 2.56 -0.44 3.8 c 0.38 0.33 3.27 0.39 3.43 0.05" style="fill:#fff"/></svg>