<svg xmlns="http://www.w3.org/2000/svg" viewBox="0 0 48 48"><path d="m 42.54 12.38 c 10.92 11.1 2.93 21.32 -5.76 29.72 c -7.1 6.85 -13.63 7.16 -20.57 2.62 c -18.1 -11.85 -24.87 -27.2 3.27 -43.4 c 9.28 -3.97 17.92 4.41 23.1 11" style="fill:#3e3e3e"/><g style="fill:#2fc5e7"><path d="m 23.46 13.5 h 1.41 c 0.37 0 0.67 0.22 0.67 0.5 v 20.76 c 0 0.27 -0.3 0.5 -0.67 0.5 h -1.41 c -0.37 0 -0.67 -0.23 -0.67 -0.5 v -20.76 c 0 -0.27 0.3 -0.5 0.67 -0.5"/><path d="m 27.3 17.43 h 1.41 c 0.38 0 0.68 0.22 0.68 0.5 v 12.48 c 0 0.27 -0.3 0.5 -0.68 0.5 h -1.41 c -0.37 0 -0.68 -0.22 -0.68 -0.5 v -12.48 c 0 -0.28 0.3 -0.5 0.68 -0.5"/></g><path d="m 19.58 17.36 h 1.41 c 0.37 0 0.67 0.22 0.67 0.5 v 12.48 c 0 0.28 -0.3 0.5 -0.67 0.5 h -1.41 c -0.37 0 -0.67 -0.22 -0.67 -0.5 v -12.48 c 0 -0.27 0.3 -0.5 0.67 -0.5" style="fill:#20d7ec"/><g style="fill:#3ce6be"><path d="m 12.31 21 h 0.98 c 0.38 0 0.68 0.22 0.68 0.5 v 6.21 c 0 0.28 -0.3 0.5 -0.68 0.5 h -0.98 c -0.37 0 -0.67 -0.22 -0.67 -0.5 v -6.21 c 0 -0.28 0.3 -0.5 0.67 -0.5"/><path d="m 15.98 22.1 h 0.98 c 0.37 0 0.67 0.22 0.67 0.5 v 3.86 c 0 0.27 -0.3 0.5 -0.67 0.5 h -0.98 c -0.37 0 -0.68 -0.22 -0.68 -0.5 v -3.86 c 0 -0.28 0.3 -0.5 0.68 -0.5"/><path d="m 35.1 22.1 h 0.99 c 0.37 0 0.67 0.22 0.67 0.5 v 3.86 c 0 0.27 -0.3 0.5 -0.67 0.5 h -0.99 c -0.37 0 -0.67 -0.22 -0.67 -0.5 v -3.86 c 0 -0.28 0.3 -0.5 0.67 -0.5"/><path d="m 38.78 23.29 h 0.98 c 0.37 0 0.67 0.22 0.67 0.5 v 1.45 c 0 0.27 -0.3 0.5 -0.67 0.5 h -0.98 c -0.37 0 -0.67 -0.22 -0.67 -0.5 v -1.45 c 0 -0.27 0.3 -0.5 0.67 -0.5"/><path d="m 8.57 23.29 h 0.99 c 0.37 0 0.67 0.22 0.67 0.5 v 1.45 c 0 0.27 -0.3 0.5 -0.67 0.5 h -0.99 c -0.37 0 -0.67 -0.22 -0.67 -0.5 v -1.45 c 0 -0.27 0.3 -0.5 0.67 -0.5"/></g><path d="m 31.2 20.67 h 1.06 c 0.37 0 0.67 0.22 0.67 0.5 v 6.55 c 0 0.28 -0.3 0.5 -0.67 0.5 h -1.06 c -0.37 0 -0.67 -0.22 -0.67 -0.5 v -6.55 c 0 -0.28 0.3 -0.5 0.67 -0.5" style="fill:#2fc5e7"/></svg>