<svg xmlns="http://www.w3.org/2000/svg" viewBox="0 0 48 48"><path d="m 3.5 11.66 c 36.3 -42.2 71.1 44.62 15.1 35.7 c -12.3 -1.96 -24.82 -24.31 -15.1 -35.7" style="fill:#c9c8c8"/><path d="m 13.83 32.95 h 24.97 v 2.24 h -24.97" style="fill:#536fff"/><path d="m 13.67 36.49 c -0.51 -0.12 -0.7 -0.26 -0.91 -0.66 c -0.25 -0.48 -0.27 -1.07 -0.19 -8.7 c 0.16 -14.66 0.14 -14.1 0.43 -14.39 c 0.34 -0.33 1.18 -0.31 1.45 0.03 c 0.2 0.26 0.29 6.5 0.29 19.74 v 2.06 l 11.89 0.04 c 8.47 0.03 11.95 0.09 12.1 0.2 c 0.12 0.09 0.21 0.91 0.21 1.23 c 0 1.08 0.71 0.53 -12.68 0.56 c -7.55 0.02 -12.18 -0.02 -12.58 -0.11 m 14.2 -4.66 c -0.27 -0.25 -0.02 -2 -0.02 -2 c 2.39 0.25 4.57 -0.14 8.94 0.08 c 0.28 0.27 0.32 1.56 0.09 1.98 c -2.4 -0.16 -5.24 0.17 -9 -0.05 m -6.45 -0.9 c -0.12 -0.74 -0.12 -1.32 -0.16 -2.1 l -0.7 -0.1 c -1.05 -0.16 -2.21 -0.64 -2.54 -1.06 c -0.25 -0.32 -0.27 -0.48 -0.15 -0.94 c 0.17 -0.66 0.26 -0.66 1.91 -0.12 c 0.63 0.21 1.24 0.35 1.35 0.31 c 0.28 -0.1 0.28 -2.93 0.01 -3.14 c -0.11 -0.08 -0.44 -0.2 -0.73 -0.26 c -0.79 -0.16 -1.64 -0.73 -2.11 -1.39 c -0.56 -1 -0.52 -2.31 0.14 -3.15 c 0.48 -0.6 1.44 -1.13 2.27 -1.27 c 0.5 -0.08 0.54 -0.13 0.58 -0.67 c 0.08 -1.15 0.15 -1.27 0.7 -1.22 c 0.48 0.04 0.5 0.07 0.54 0.78 c 0.03 0.4 0.12 0.81 0.2 0.9 c 0.75 0.35 1.54 0.18 2.34 0.48 c 0.55 0.37 0.65 1.2 0.22 1.69 c -0.11 0.04 -0.67 -0.02 -1.24 -0.14 c -1.41 -0.3 -1.5 -0.25 -1.5 0.84 c 0 1.16 0.16 1.42 0.92 1.54 c 0.98 0.16 2.34 1.09 2.75 1.87 c 0.46 0.88 0.47 2.25 0.04 3.06 c -0.47 0.89 -1.72 1.68 -2.92 1.86 l -0.64 0.1 c -0.07 0.65 0.17 1.58 -0.18 2.14 c -0.3 0.11 -0.99 0.27 -1.13 -0.01 m 2.43 -4.64 c 0.43 -0.37 0.46 -0.72 0.14 -1.33 c -0.32 -0.61 -1.01 -1.07 -1.25 -0.84 c -0.15 0.91 -0.03 1.63 0.04 2.59 c 0.37 -0.09 0.78 -0.18 1.07 -0.42 m -2.54 -5.79 c 0.06 -0.93 -0.04 -1.06 -0.55 -0.79 c -0.91 0.48 -0.98 0.7 -0.18 1.34 c 0.53 0.43 0.68 0.33 0.73 -0.56"/></svg>