<svg xmlns="http://www.w3.org/2000/svg" viewBox="0 0 48 48"><path d="m 5.98 11.73 c 39.5 -42.51 64.4 45.2 11.95 35.55 c -13.84 -4.77 -24.64 -21.9 -11.95 -35.55" style="fill:#edd1eb"/><path d="m 27 39.5 c -1.63 -0.39 -3.57 -1.53 -3.98 -2.34 c -0.2 -0.39 -0.23 -0.76 -0.29 -2.64 c -0.05 -1.67 -0.1 -2.2 -0.21 -2.25 c -0.08 -0.03 -0.34 0.11 -0.57 0.31 c -1.82 1.56 -3.27 2.43 -4.2 2.52 c -0.47 0.05 -0.66 -0.01 -1.41 -0.42 c -1.14 -0.92 -5.16 -1.14 -5.16 -2.55 c 0.39 -1.32 1.17 -2.81 1.98 -3.98 c 0.36 -0.51 1.1 -1.4 1.65 -1.99 c 0.55 -0.58 2 -0.84 2 -0.93 c 0 -0.09 -1.24 -0.65 -1.54 -0.87 c -0.73 -0.55 -1.64 -1.55 -1.92 -2.1 c -0.27 -0.54 -0.52 -1.7 -0.43 -1.98 c 0.14 -0.48 0.41 -2.67 0.41 -3.38 c 0 -0.61 0.05 -0.84 0.23 -1.08 c 0.23 -0.3 0.26 -0.3 1.61 -0.3 c 1.31 0.02 2.7 -0.22 3.93 -0.24 c 1.49 -0.02 1.88 0.15 2.95 1.3 c 0.42 0.45 1.16 1.37 1.23 1.33 c 0.07 -0.04 -0.23 -0.84 -0.23 -1.04 c 0 -0.21 0.11 -0.89 0.24 -1.52 c 0.51 -2.46 0.95 -2.79 5.47 -4.16 c 0.58 -0.13 0.95 -0.56 1.41 -0.86 c 0.16 0 1.38 1.36 1.9 2.12 c 1.1 1.6 1.93 3.71 1.77 4.5 c -0.1 0.47 -0.74 1.91 -1.19 2.65 c -0.46 0.77 -0.36 0.85 0.79 0.66 c 1.15 -0.19 1.82 -0.06 3.25 0.64 c 0.82 0.4 1.16 0.65 1.71 1.25 c 0.77 0.84 1.73 2.48 1.73 2.95 c 0 0.5 -0.48 1.38 -1.63 2.96 c -1.55 2.16 -1.72 2.33 -2.46 2.58 c -1.18 0.4 -2.97 0.41 -4.64 0.05 c -0.43 -0.1 -0.41 0.16 0.08 0.86 c 0.56 0.8 1.08 1.98 1.08 2.46 c 0 0.29 -0.14 0.64 -0.45 1.13 c -0.98 1.38 -1.17 3.26 -2.44 4.38 c -0.36 0.3 -0.54 0.37 -0.95 0.36 c -0.59 0 -1.18 -0.21 -1.7 -0.34" style="fill:#ec8db8"/></svg>