<svg xmlns="http://www.w3.org/2000/svg" viewBox="0 0 48 48"><path d="m 38.2 4.74 c -35.4 -23.85 -58.4 52.2 -12.13 42.2 c 19.1 -4.29 31.1 -31.2 12.13 -42.2" style="fill:#ff8b00"/><path d="m 14.69 38.84 c 0 -0.04 1.02 -2.23 2.28 -4.87 c 1.56 -3.31 2.24 -4.85 2.16 -4.94 c -0.08 -0.09 -0.66 -0.07 -1.86 0.06 c -2.29 0.25 -2.12 0.27 -2.12 -0.27 c 0 -0.25 0.07 -0.57 0.16 -0.7 c 0.09 -0.13 1.81 -3.22 3.83 -6.86 c 2 -3.64 3.73 -6.69 3.8 -6.77 c 3.35 -0.26 5.68 -0.66 9.2 -1.02 c 0.66 -0.07 1.24 -0.09 1.3 -0.05 c 0.17 1 0.11 1.77 0.11 2.85 c -2.11 2.74 -4.73 5.11 -6.71 7.93 c 0 0.07 0.42 0.09 1.13 0.03 c 2.06 -0.16 1.82 -0.23 1.86 0.55 l 0.04 0.68 l -5.71 5.1 c -7.34 6.55 -9.46 8.41 -9.46 8.26" style="fill:#f8eb69"/><path d="m 24.41 29.72 c 0.16 -0.31 4.77 -4.95 4.92 -4.95 c 0.07 0 0.12 0.16 0.11 0.36 c -0.03 0.43 -0.21 0.61 -2.53 2.61 c -2.17 1.87 -2.64 2.24 -2.5 1.98 m -9 -0.89 c 0 -0.06 0.09 -0.2 0.31 -0.2 c 0.82 -0.06 1.73 -0.15 2.5 -0.21 c 0.72 -0.06 0.9 -0.04 0.86 0.09 c -0.05 0.18 -0.75 0.28 -2.49 0.38 c -0.68 0.04 -1.19 0.02 -1.19 -0.05 m 10 -4.49 c 0.16 -0.28 7.15 -9.91 7.38 -10.16 c 0.13 -0.15 0.28 -0.27 0.33 -0.27 c 0.14 0.84 0.1 1.5 0.1 2.42 c -1.73 2.05 -3.49 4.08 -5.26 6.09 c -0.38 0.43 -0.95 1.08 -1.26 1.43 c -0.47 0.53 -0.62 0.63 -0.96 0.63 c -0.26 0 -0.38 -0.05 -0.33 -0.13" style="fill:#e6a90c"/></svg>