<svg xmlns="http://www.w3.org/2000/svg" viewBox="0 0 48 48"><path d="m 2.3 31.84 c -15.81 -43.98 61.7 -41.1 42.1 1.47 c -7.11 17.32 -34 21.2 -42.1 -1.47" style="fill:#ff8c00"/><path d="m 11.1 12.54 h 25.78 v 20.36 h -25.78" style="fill:#fff"/><path d="m 12.34 13.76 h 23.33 v 17.98 h -23.33" style="fill:#2945d9"/><path d="m 25.1 19.58 c -0.73 -0.19 -4.43 -1.05 -6.09 -1.42 l -1.07 -0.23 l 6.26 -0.77 l 6.07 0.76 l -1.28 0.5 c -1.92 0.75 -3 1.21 -3.08 1.28 c -0.06 0.09 -0.01 0.09 -0.8 -0.12" style="fill:#9f78e5"/><path d="m 17.59 26.2 c 0.02 0.03 0.14 -8.29 0.2 -8.33 c 0.03 -0.02 7 1.56 8.13 1.92 c 0.2 3.25 0.4 5.25 0.8 9.17 c -3.71 -0.99 -3.96 -1.02 -9.13 -2.76" style="fill:#16ff2a"/><path d="m 23.52 28.1 v -4.4 c 0 -4.15 0.01 -4.39 0.14 -4.37 c 0.21 0.04 2.08 0.32 2.15 0.37 c 0.28 2.25 0.39 4.96 0.59 6.74 c 0.15 1.3 0.26 2.43 0.25 2.49 l -0.02 0.12 c -1.12 -0.35 -2.11 -0.63 -3.1 -0.96" style="fill:#fffb34"/><path d="m 26.38 26.2 c -0.14 -1.57 -0.31 -3.63 -0.38 -4.57 c -0.07 -0.94 -0.14 -1.74 -0.16 -1.78 c -0.02 -0.04 0.04 -0.11 0.13 -0.16 c 0.35 -0.18 4.28 -1.85 4.3 -1.83 c 0.03 0.03 0.17 6.74 0.17 8.15 v 0.98 l -0.41 0.22 c -0.22 0.12 -1.08 0.59 -1.9 1.04 c -0.82 0.45 -1.5 0.82 -1.5 0.82 c -0.01 0 -0.13 -1.29 -0.26 -2.86" style="fill:#df2876"/><path d="m 28.3 21.75 c -1.13 -0.97 -2.13 -1.82 -2.21 -1.89 l -0.15 -0.14 l 1.36 -0.59 c 1.92 -0.83 2.89 -1.22 2.92 -1.2 c 0.04 0.03 0.19 5.52 0.16 5.55 c -0.01 0.01 -0.95 -0.77 -2.08 -1.74" style="fill:#de2fd4"/><path d="m 17.86 17.9 c 0.07 -0.07 5.34 1.18 5.33 1.26 c -1.82 1.59 -3.64 3.18 -5.49 4.73 c 0.19 -1.68 -0.11 -3.82 0.16 -6" style="fill:#2afce5"/><g style="fill:#fff"><path d="m 29.81 35.84 c 0 0.96 -2.79 1.73 -6.24 1.73 c -3.44 0 -6.23 -0.78 -6.23 -1.73 c 0 -0.95 2.79 -1.73 6.23 -1.73 c 3.45 0 6.24 0.78 6.24 1.73"/><path d="m 22 32.5 h 3.46 v 2.34 h -3.46"/></g></svg>