<svg xmlns="http://www.w3.org/2000/svg" viewBox="0 0 48 48"><path d="m 15.1 47.2 c 68.6 8.4 11.73 -88.1 -13.44 -26.38 c -3.86 10.84 -0.51 23.1 13.44 26.38" style="fill:#030d36"/><path d="m 25.62 30.51 c -1.09 -0.2 -2.74 -0.66 -3.41 -0.93 c -1.66 -0.68 -2.99 -1.89 -3.64 -3.3 c -0.44 -0.94 -0.56 -1.51 -0.56 -2.58 c 0 -1.85 0.71 -3.25 2.51 -4.93 c 0.96 -0.89 0.95 -0.87 0.45 -1.52 l -0.47 -0.61 c 0.51 -0.01 1.2 0.08 1.63 0.15 c 2.07 0.34 4.28 1.3 5.24 1.99 c 1.17 0.84 2.09 2.21 2.42 3.59 c 0.19 0.82 0.18 2.11 -0.02 2.93 c -0.24 0.96 -0.42 1.29 -1.39 2.5 c -0.32 0.4 -1.47 1.44 -1.82 1.64 c 0.04 0.48 0.4 0.68 0.7 1.16 c 0 0.1 -0.89 0.05 -1.64 -0.09 m -1.23 -6 c 0.77 -0.55 0.5 -1.61 -0.39 -1.58 c -0.42 0.02 -0.71 0.23 -0.78 0.57 c -0.1 0.46 0.03 0.84 0.34 1.04 c 0.36 0.23 0.47 0.23 0.83 -0.03 m 2.7 0.07 c 0.63 -0.43 0.51 -1.34 -0.06 -1.6 c -0.27 -0.12 -0.34 -0.12 -0.62 0.02 c -0.66 0.32 -0.73 0.76 -0.23 1.33 c 0.38 0.42 0.51 0.46 0.91 0.25 m -5.36 -0.22 c 0.51 -0.5 0.46 -1.12 -0.12 -1.37 c -0.59 -0.26 -1.2 0.1 -1.2 0.71 c 0 0.28 0.06 0.4 0.32 0.64 c 0.39 0.36 0.66 0.37 1 0.02" style="fill:#ffc100"/><g style="fill:#fff"><path d="m 13.71 29.98 c -0.24 -0.3 -0.31 -1.2 -0.32 -3.98 c -0.01 -2.98 0.05 -3.47 0.39 -3.59 c 0.54 -0.18 0.63 0.21 0.73 3 c 0.05 1.31 0.11 2.52 0.13 2.7 c 0.05 0.31 0.05 0.31 0.44 0.26 c 0.21 -0.03 0.96 -0.23 1.66 -0.43 c 0.69 -0.2 1.37 -0.38 1.5 -0.38 c 0.15 0 0.34 0.11 0.52 0.3 c 0.32 0.34 0.34 0.41 0.12 0.53 c -0.46 0.25 -4.69 1.69 -4.97 1.69 c -0.05 0 -0.14 -0.05 -0.2 -0.12"/><path d="m 37.72 25.3 c -0.24 -0.17 -0.04 -0.14 0.09 -0.25 c 0 -0.31 -13 -13.68 -13.76 -14.1 c -0.08 -0.05 -0.21 -0.02 -0.35 0.07 c -0.32 0.22 -2.18 2.04 -6.62 6.5 c -2.18 2.18 -4.43 4.43 -4.99 4.98 c -2.7 2.68 -3.56 3.28 -3.56 2.49 c 0 -0.48 0.73 -1.27 7.92 -8.6 c 2.1 -1.88 6.52 -7 7.34 -7.19 c 0.13 0 0.5 0.28 1.04 0.78 c 2.17 2.04 13.64 13.61 14.25 14.37 c 0.38 0.48 0.41 0.61 0.15 0.86 c -0.25 0.23 -1.2 0.29 -1.51 0.09"/><path d="m 32.51 29.69 c -1.33 -0.46 -2.91 -1.08 -3.32 -1.3 c -0.28 -0.15 -0.28 -0.16 -0.14 -0.39 c 0.08 -0.13 0.26 -0.3 0.4 -0.38 c 0.24 -0.13 0.34 -0.11 1.65 0.29 c 1.52 0.46 2 0.52 2.12 0.26 c 0.04 -0.09 0.1 -1.11 0.14 -2.26 c 0.11 -2.68 0.15 -3.21 0.29 -3.41 c 0.15 -0.21 0.48 -0.1 0.59 0.2 c 0.14 0.37 0.2 3.77 0.11 5.47 c -0.07 1.28 -0.12 1.6 -0.25 1.75 c -0.09 0.1 -0.22 0.18 -0.3 0.18 c -0.08 0 -0.66 -0.18 -1.3 -0.41"/><path d="m 37.3 37.64 c -0.57 -0.21 -0.84 -0.69 -0.84 -1.47 c 0 -1.02 0.45 -1.52 1.42 -1.57 c 0.75 -0.04 1.3 0.23 1.54 0.75 c 0.29 0.61 0.02 0.9 -0.96 1.04 c -1.03 0.15 -1.27 0.4 -0.79 0.8 c 0.3 0.25 0.46 0.24 1.12 -0.05 c 0.59 -0.26 0.79 -0.21 0.61 0.14 c -0.17 0.32 -0.57 0.48 -1.23 0.47 c -0.33 0 -0.72 -0.05 -0.87 -0.11 m 1.24 -1.81 c 0.21 -0.09 0.17 -0.38 -0.09 -0.59 c -0.33 -0.27 -0.62 -0.24 -0.95 0.1 c -0.27 0.28 -0.27 0.3 -0.11 0.42 c 0.36 0.09 0.8 0.2 1.15 0.07"/><path d="m 33.57 37.66 c -0.11 -0.04 -0.27 -0.19 -0.38 -0.33 c -0.35 -0.46 -0.02 -0.56 0.64 -0.18 c 0.5 0.28 0.77 0.29 0.98 0.05 c 0.3 -0.35 0.05 -0.64 -0.73 -0.84 c -0.5 -0.14 -1 -0.59 -1 -0.93 c 0 -0.29 0.27 -0.63 0.59 -0.76 c 0.32 -0.13 1.06 -0.11 1.41 0.05 c 0.2 0.09 0.32 0.22 0.36 0.38 c 0.08 0.34 0 0.39 -0.37 0.2 c -0.4 -0.2 -0.94 -0.28 -1.1 -0.17 c -0.24 0.16 -0.01 0.39 0.82 0.8 c 0.97 0.49 1.16 0.74 0.91 1.25 c -0.59 0.77 -1.33 0.65 -2.15 0.48"/><path d="m 29.82 37.64 c -0.36 -0.18 -0.51 -0.68 -0.51 -1.76 c 0 -1.04 0.07 -1.3 0.4 -1.3 c 0.24 0 0.29 0.14 0.4 1.23 c 0.12 1.14 0.27 1.47 0.65 1.47 c 0.35 0 0.59 -0.5 0.73 -1.49 c 0.14 -0.98 0.21 -1.21 0.42 -1.21 c 0.34 0 0.38 0.18 0.38 1.64 v 1.42 c -0.77 0.05 -1.74 0.3 -2.46 0"/><path d="m 26.53 37.75 c -0.32 -0.08 -0.73 -0.34 -0.89 -0.56 c -0.06 -0.08 -0.15 -0.34 -0.21 -0.57 c -0.13 -0.57 0.02 -1.18 0.4 -1.64 c 0.29 -0.35 0.3 -0.36 0.99 -0.38 c 0.6 -0.02 0.75 0 1.05 0.19 c 0.78 0.47 1 1.61 0.45 2.36 c -0.38 0.51 -1.16 0.78 -1.8 0.61 m 1.04 -0.73 c 0.52 -0.54 0.41 -1.52 -0.2 -1.82 c -0.56 -0.29 -1 -0.06 -1.14 0.57 c -0.11 0.5 0.02 1.13 0.28 1.35 c 0.3 0.25 0.76 0.21 1.05 -0.1"/><path d="m 20.89 37.49 c -0.13 -0.34 -0.05 -3.83 0.09 -4.11 c 0.08 -0.16 0.14 -0.18 0.27 -0.11 c 0.61 0.06 0.36 1.09 0.61 1.59 c 0.14 0.18 0.24 0.21 0.81 0.2 c 0.84 -0.01 1.04 -0.17 1.13 -0.94 c 0.07 -0.64 0.17 -0.85 0.39 -0.85 c 0.34 0 0.4 0.32 0.4 2.15 c 0 1.99 -0.04 2.24 -0.36 2.24 c -0.27 0 -0.36 -0.2 -0.45 -1.06 c -0.04 -0.35 -0.11 -0.64 -0.16 -0.66 c -0.67 -0.07 -1.19 -0.09 -1.9 -0.13 c -0.05 0.59 -0.05 1.21 -0.23 1.77 c -0.16 0.27 -0.49 0.22 -0.61 -0.08"/><path d="m 18.89 37.64 c -0.04 -0.06 -0.09 -0.48 -0.13 -0.94 c -0.04 -0.45 -0.12 -1.09 -0.18 -1.42 c -0.13 -0.69 -0.04 -1.18 0.31 -1.6 c 0.25 -0.3 0.37 -0.24 0.52 0.26 c 0.06 0.21 0.2 0.44 0.31 0.52 c 0.27 0.18 0.26 0.41 -0.01 0.67 c -0.25 0.25 -0.37 0.91 -0.28 1.5 c 0.05 0.31 0.13 0.43 0.46 0.67 c 0.3 0.21 0.37 0.31 0.28 0.37 c -0.4 0.05 -0.96 0.14 -1.29 -0.03"/><path d="m 15.61 37.68 c -0.31 -0.08 -0.58 -0.32 -0.58 -0.5 c 0 -0.29 0.23 -0.3 0.76 -0.04 c 0.32 0.21 1.16 0.39 1.2 -0.19 c 0 -0.17 -0.4 -0.48 -0.71 -0.55 c -0.45 -0.09 -0.98 -0.43 -1.11 -0.7 c -0.17 -0.35 0.03 -0.8 0.44 -0.98 c 0.64 -0.28 1.61 -0.1 1.83 0.33 c 0.17 0.32 -0.01 0.38 -0.55 0.17 c -0.32 -0.12 -0.59 -0.17 -0.74 -0.13 c -0.41 0.11 -0.23 0.36 0.56 0.77 c 0.4 0.21 0.81 0.46 0.91 0.55 c 0.27 0.25 0.23 0.71 -0.08 1.06 c -0.65 0.45 -1.07 0.33 -1.92 0.22"/><path d="m 13.63 37.64 c -0.04 -0.07 -0.09 -0.69 -0.11 -1.38 c -0.03 -1.16 -0.02 -1.28 0.15 -1.49 c 0.14 -0.19 0.21 -0.21 0.34 -0.13 c 0.09 0.05 0.18 0.2 0.22 0.33 c 0.11 0.41 0.08 2.26 -0.04 2.51 c -0.13 0.26 -0.45 0.36 -0.57 0.17"/><path d="m 9.66 37.61 c -0.78 -0.29 -1.25 -1.11 -1.25 -2.16 c 0 -0.93 0.3 -1.46 1.06 -1.86 c 1.28 -0.67 2.98 -0.26 2.98 0.71 c 0 0.36 -0.13 0.34 -0.86 -0.07 c -0.46 -0.27 -0.7 -0.34 -1.02 -0.34 c -0.84 0.02 -1.23 0.57 -1.23 1.76 c 0 0.72 0 0.72 0.36 1.08 c 0.46 0.45 0.9 0.6 1.39 0.46 c 0.41 -0.12 0.83 -0.43 0.83 -0.62 c 0 -0.2 -0.34 -0.48 -0.67 -0.55 c -0.38 -0.07 -0.48 -0.31 -0.18 -0.43 c 0.12 -0.05 0.5 -0.06 0.84 -0.03 l 0.63 0.05 v 0.77 c 0 0.88 -0.12 1.07 -0.76 1.25 c -0.49 0.14 -1.71 0.12 -2.12 -0.04"/><path d="m 13.48 33.79 c -0.11 -0.38 0.2 -0.74 0.58 -0.65 c 0.13 0.03 0.24 0.23 0.24 0.46 c 0 0.52 -0.68 0.68 -0.82 0.2"/></g></svg>