<svg xmlns="http://www.w3.org/2000/svg" viewBox="0 0 48 48" xmlns:xlink="http://www.w3.org/1999/xlink"><defs><linearGradient id="0" gradientUnits="userSpaceOnUse" y1="1046.2" x2="0" y2="963" gradientTransform="matrix(0.283 0 0 0.275 10 -251.7)"><stop style="stop-color:#dfe3dd"/><stop offset="1" style="stop-color:#dfe2de"/></linearGradient><linearGradient id="4" gradientUnits="userSpaceOnUse" y1="37.68" x2="0" y2="32.36" gradientTransform="matrix(0.102 0 0 0.091 1.92 20.59)"><stop style="stop-color:#f36262"/><stop offset="1" style="stop-color:#d55f5c;stop-opacity:0"/></linearGradient><radialGradient id="5" gradientUnits="userSpaceOnUse" cx="113.5" cy="-61.5" r="15" gradientTransform="matrix(0.205 0 0 0.22 9.55 30)" xlink:href="#1"/><radialGradient id="3" gradientUnits="userSpaceOnUse" cx="233" cy="-56" r="36.5" gradientTransform="matrix(0 -0.188 0.147 0 40.91 61.99)"><stop style="stop-color:#ff5454;stop-opacity:0"/><stop offset="0.94" style="stop-color:#f47676;stop-opacity:0"/><stop offset="0.97" style="stop-color:#f47777;stop-opacity:0.5"/><stop offset="1" style="stop-color:#f47979"/></radialGradient><radialGradient id="1" gradientUnits="userSpaceOnUse" cx="113.5" cy="-61.5" r="15" gradientTransform="matrix(0.274 0 0 0.283 1.83 33.96)"><stop style="stop-color:#fd3e3e"/><stop offset="1" style="stop-color:#d11111"/></radialGradient><radialGradient id="2" gradientUnits="userSpaceOnUse" cx="108.6" cy="-49.4" r="15" gradientTransform="matrix(0.359 0 0 0.539 -7.16 46)"><stop style="stop-color:#f46a6a"/><stop offset="1" style="stop-color:#ea1212"/></radialGradient></defs><path d="m 39.3 5.59 c -28.8 -22.2 -58.67 33 -23 41.1 c 22.44 8.28 44.4 -24.67 23 -41.1" style="fill:#707f8f"/><path d="m 13.61 13 h 20 c 1.04 0 1.88 0.84 1.88 1.88 v 19.36 c 0 1.04 -0.84 1.88 -1.88 1.88 h -20 c -1.04 0 -1.88 -0.84 -1.88 -1.88 v -19.36 c 0 -1.04 0.84 -1.88 1.88 -1.88" style="fill:url(#0)"/><g style="fill:#a8a8a8"><path d="m 25.57 22.96 h 4.11 v 3.85 h -4.11"/><path d="m 25.71 30.8 h 3.4 v 4.27 h -3.4"/></g><path d="m 23.66 29.1 h -2.12 v 6.91 h 2.12" style="fill:#f8cf25"/><g style="fill:#a8a8a8"><path d="m 17.78 13.89 h 6.8 v 12.93 h -6.8"/><path d="m 25.57 13.89 h 4.11 v 7.98 h -4.11"/></g><g style="fill:#f8cf25"><path d="m 29.96 29.79 v -2.06 h -18.1 v 2.06"/><path d="m 16.79 13.2 h -2.13 v 14.79 h 2.13"/></g><path d="m 37.3 15.28 c 0 4.13 -3.24 9.23 -4.53 9.23 c -1.3 0 -4.54 -5.1 -4.54 -9.23 c 0 -2.34 2.03 -4.25 4.54 -4.25 c 2.5 0 4.53 1.9 4.53 4.25" style="fill:url(#1)"/><path d="m 36.98 15.39 c 0 3.96 -3.04 8.86 -4.25 8.86 c -1.21 0 -4.25 -4.89 -4.25 -8.86 c 0 -2.25 1.91 -4.07 4.25 -4.07 c 2.35 0 4.25 1.82 4.25 4.07" style="fill:url(#2)"/><path d="m 32.73 11.31 c -2.34 0 -4.25 1.82 -4.25 4.07 c 0 3.96 3.04 8.86 4.25 8.86 c 1.21 0 4.25 -4.89 4.25 -8.86 c 0 -2.25 -1.9 -4.07 -4.25 -4.07 m 0 0.39 c 2.25 0 4.08 1.7 4.08 3.8 c 0 3.7 -2.91 8.28 -4.08 8.28 c -1.17 0 -4.09 -4.57 -4.09 -8.28 c 0 -2.1 1.83 -3.8 4.09 -3.8" style="fill:url(#3)"/><path d="m 29.99 20.92 c 0.86 1.86 2.07 3.3 2.7 3.3 c 0.64 0 1.84 -1.45 2.7 -3.3 h -5.41" style="fill:url(#4)"/><path d="m 36.1 15.47 c 0 1.82 -1.52 3.3 -3.4 3.3 c -1.88 0 -3.4 -1.48 -3.4 -3.3 c 0 -1.82 1.52 -3.3 3.4 -3.3 c 1.88 0 3.4 1.48 3.4 3.3" style="fill:url(#5)"/><path d="m 32.71 13 c 0.61 0 1.11 0.55 1.11 1.24 v 2.21 c 0 0.69 -0.5 1.24 -1.11 1.24 c -0.61 0 -1.1 -0.55 -1.1 -1.24 v -2.21 c 0 -0.69 0.49 -1.24 1.1 -1.24" style="fill:#fff"/></svg>