<svg xmlns="http://www.w3.org/2000/svg" viewBox="0 0 48 48"><path d="m 24.2 0.19 c 32.3 -3.64 31.88 48.4 -0.57 47.77 c -30.2 1.71 -32.92 -50.61 0.57 -47.77" style="fill:#6f6063"/><path d="m 10.86 12.88 h 3.73 c 0.05 0 0.1 0.05 0.1 0.12 v 21.69 c 0 0.07 -0.05 0.12 -0.1 0.12 h -3.73 c -0.06 0 -0.11 -0.05 -0.11 -0.12 v -21.69 c 0 -0.07 0.05 -0.12 0.11 -0.12" style="fill:#8eb7f1"/><path d="m 15 12.74 h 3.73 c 0.05 0 0.1 0.05 0.1 0.12 v 21.87 c 0 0.06 -0.05 0.12 -0.1 0.12 h -3.73 c -0.06 0 -0.11 -0.05 -0.11 -0.12 v -21.87 c 0 -0.07 0.05 -0.12 0.11 -0.12" style="fill:#7fe0b0"/><path d="m 19.21 12.6 h 3.73 c 0.06 0 0.11 0.05 0.11 0.12 v 21.99 c 0 0.06 -0.05 0.12 -0.11 0.12 h -3.73 c -0.05 0 -0.1 -0.05 -0.1 -0.12 v -21.99 c 0 -0.07 0.05 -0.12 0.1 -0.12" style="fill:#f4ec88"/><path d="m 23.39 12.38 h 3.73 c 0.06 0 0.11 0.05 0.11 0.12 v 22.2 c 0 0.07 -0.05 0.12 -0.11 0.12 h -3.73 c -0.05 0 -0.1 -0.05 -0.1 -0.12 v -22.2 c 0 -0.07 0.05 -0.12 0.1 -0.12" style="fill:#f49ea2"/><path d="m 27.51 12.54 h 9.4 c 0.05 0 0.1 0.05 0.1 0.12 v 22.1 c 0 0.07 -0.05 0.12 -0.1 0.12 h -9.4 c -0.05 0 -0.1 -0.05 -0.1 -0.12 v -22.1 c 0 -0.07 0.05 -0.12 0.1 -0.12" style="fill:#fff"/><path d="m 36.93 12.45 v 4.14 c 0 0.06 -0.05 0.11 -0.12 0.11 h -25.94 c -0.06 0 -0.12 -0.05 -0.12 -0.11 v -4.14 c 0 -0.06 0.05 -0.11 0.12 -0.11 h 25.94 c 0.07 0 0.12 0.05 0.12 0.11" style="fill:#d0d0d0"/><path d="m 35.65 14.63 c 0 0.76 -0.63 1.38 -1.4 1.38 c -0.77 0 -1.4 -0.62 -1.4 -1.38 c 0 -0.76 0.63 -1.38 1.4 -1.38 c 0.77 0 1.4 0.62 1.4 1.38" style="fill:#929292"/></svg>