<svg xmlns="http://www.w3.org/2000/svg" viewBox="0 0 48 48"><path d="m 12.22 5.5 c 11.1 -10.97 21.32 -2.94 29.72 5.78 c 6.85 7.1 7.16 13.68 2.62 20.66 c -11.85 18.22 -27.2 24.97 -43.3 -3.29 c -3.98 -9.32 4.41 -18 10.99 -23.2" style="fill:#f4f4f4"/><path d="m 20.1 39.98 c -2.86 -2.84 -3.27 -3.32 -3.09 -3.66 c 0.18 -0.33 -0.06 -0.64 -1.71 -2.27 c -1.63 -1.6 -1.89 -1.95 -1.79 -2.36 c 0.1 -0.41 -0.17 -0.77 -1.76 -2.37 c -1.04 -1.04 -1.77 -1.85 -1.64 -1.81 c 0.13 0.04 3.16 2.9 6.73 6.36 c 3.57 3.46 6.63 6.32 6.79 6.35 c 0.15 0.04 3.16 -2.82 6.67 -6.34 c 3.52 -3.52 6.54 -6.4 6.72 -6.4 c 0.19 0 -0.46 0.78 -1.54 1.85 c -1.36 1.34 -1.87 1.98 -1.87 2.35 c 0 0.36 -0.5 0.99 -1.82 2.29 c -1.61 1.58 -1.81 1.86 -1.71 2.33 c 0.11 0.48 -0.2 0.87 -3.05 3.74 c -1.74 1.76 -3.28 3.21 -3.41 3.21 c -0.13 0 -1.71 -1.48 -3.52 -3.28" style="fill:#222"/><path d="m 17.77 31.91 c 0 -0.1 -0.38 -1.11 -0.83 -2.25 c -0.86 -2.15 -0.99 -2.53 -0.87 -2.53 c 0.04 0 0.19 0.13 0.33 0.27 c 0.69 0.73 1.55 2.11 3.08 4.91 c 0.59 1.08 1.22 2.21 1.4 2.5 c 0.18 0.29 0.06 0.54 0.05 0.55 c -0.91 -1.11 -2.6 -2.16 -3.16 -3.46" style="fill:#008e00"/><path d="m 20.31 35.6 c -1.95 -1.87 -5.58 -5.45 -8.1 -7.94 l -4.54 -4.53 l 5.94 -5.95 c 3.26 -3.27 6.86 -6.83 8 -7.91 l 2.06 -1.96 l 0.41 0.29 c 0.22 0.16 3.77 3.63 7.88 7.71 c 7.1 7 7.46 7.45 7.33 7.73 c -0.34 0.74 -11.47 12.32 -14.39 14.96 l -1.08 0.98 m 1.55 -2.16 c 3.7 -3.95 9.2 -8.49 13.22 -13.5 l 0.29 -0.4 l -0.53 -0.67 c -4.06 -4.14 -7.89 -7.85 -11.32 -11.25 l -3.23 -3.2 l -1.4 1.3 c -0.77 0.71 -4.25 4.14 -7.75 7.6 l -6.35 6.3 l 0.54 0.61 c 0.6 0.69 4.6 4.54 6.92 6.67 c 0.84 0.77 2.41 2.39 3.75 3.7 c 1.32 1.45 2.92 2.91 4.37 4.05 c 0 0.23 0.89 -0.54 1.5 -1.22"/><path d="m 22.32 36.5 c -0.19 -0.79 -1.79 -5.33 -2.93 -7.96 c -0.75 -1.73 -1.41 -3 -2.09 -4.08 c -0.75 -1.15 -1.05 -1.68 -1.02 -1.79 c 0.05 -0.14 1.3 1.18 1.91 2 c 1.02 1.39 2.5 4.09 3.47 6.31 c 0.28 0.64 0.55 1.15 0.59 1.13 c 0.13 -0.07 0.05 -1.29 -0.12 -1.95 c -0.21 -0.77 -0.48 -1.29 -1.59 -3.05 c -1.26 -1.98 -1.79 -2.89 -2.8 -4.77 c -1.22 -2.3 -1.73 -3.68 -1.33 -3.61 c 0.24 0.05 0.86 0.86 2.88 3.74 c 1.05 1.51 2 2.84 2.09 2.95 l 0.18 0.2 l -0.05 -0.89 c -0.17 -3.06 -0.14 -4.56 0.08 -4.57 c 0.2 -0.01 0.42 1.18 1.01 5.54 c 0.27 2 0.53 2.87 0.87 2.87 c 0.13 0 0.25 -0.56 0.46 -2.22 c 0.26 -1.96 0.35 -3.87 0.27 -5.85 c -0.08 -1.98 -0.18 -2.68 -0.57 -3.85 c -0.43 -1.27 -0.63 -2.18 -0.76 -3.39 c -0.11 -1.04 -0.05 -1.49 0.23 -1.76 c 0.43 -0.42 1.22 0.57 1.79 2.25 c 0.54 1.61 0.56 1.77 0.35 3.76 c -0.25 2.41 -0.25 2.35 -0.43 5 c -0.24 3.52 -0.28 4.41 -0.21 4.51 c 0.04 0.06 0.16 -0.04 0.34 -0.27 c 0.38 -0.48 2.59 -3.72 3.05 -4.49 c 0.3 -0.49 0.44 -0.64 0.72 -0.76 c 0.41 -0.19 0.54 -0.38 0.77 -1.18 c 0.18 -0.64 0.85 -4.17 0.85 -4.5 c 0 -0.2 0.04 -0.44 0.27 -0.18 c 0.23 0.26 0.19 0.52 0.17 1.52 l -0.09 1.4 l 0.28 -0.79 c 0.09 -0.23 0.23 -0.53 0.26 -0.69 c 0.09 -0.52 0.18 -0.7 0.5 -0.41 c 0.3 0.28 0.23 0.45 0.18 0.99 c -0.06 0.63 -0.34 1.43 -0.84 2.41 c -0.8 1.55 -1.09 2.52 -1.92 6.54 c -0.58 2.8 -0.83 4.25 -0.75 4.38 c 0.08 0.12 0.16 -0.06 0.7 -1.61 c 0.28 -0.79 0.63 -1.68 0.77 -1.99 c 0.23 -0.5 0.27 -0.54 0.33 -0.37 c 0.16 0.41 -0.44 1.94 -0.82 5.09 l -0.11 0.9 c -1.16 0.92 -2 2.38 -3.19 3.07 c -0.11 -0.39 -0.45 -0.73 -0.68 -1.19 c -0.67 -1.32 -0.9 -1.51 -1.14 -0.95 c -0.18 0.4 -0.24 1.96 -0.12 2.84 c 0.1 0.71 0 1.09 -0.32 1.25 c -0.52 -0.62 -1.38 -1.12 -1.49 -1.55 m 4.15 -3.24 c 0.15 -0.26 1.48 -6.45 1.4 -6.52 c -0.07 -0.07 -0.36 0.39 -1.05 1.67 c -0.97 1.8 -1.43 2.86 -1.43 3.27 c 0 0.47 0.68 1.73 0.93 1.73 c 0.04 0 0.11 -0.07 0.15 -0.16" style="fill:#008e00"/></svg>