<svg xmlns="http://www.w3.org/2000/svg" viewBox="0 0 48 48"><path d="m 42.59 8.84 c 11.72 17.79 2.26 34 -11 37.86 c -17.86 5.17 -42.1 -8.43 -26.1 -36.44 c 6.35 -11.14 28.77 -14.1 37.1 -1.41" style="fill:#d0ede4"/><path d="m 16 20.27 c -0.25 -1.99 -0.17 -3.51 -0.17 -5.62 l 0.76 -1.03 c 0.89 -1.21 1.69 -1.95 2.59 -2.43 c 0.61 -0.32 0.98 -0.34 4.9 -0.34 c 3.79 0 4.32 0.04 4.94 0.32 c 0.94 0.44 2 1.45 2.73 2.58 l 0.6 0.94 c 0 1.94 0.01 3.88 0.01 5.82 c -0.59 0.35 -2.19 0.41 -2.87 -0.1 c -0.17 -0.14 -0.23 -0.61 -0.23 -1.6 c 0 -2.08 -0.34 -3.07 -1.44 -4.16 l -0.9 -0.9 c -1.85 0 -3.7 0 -5.56 0 l -0.86 0.81 c -1.1 1.05 -1.32 1.61 -1.48 3.84 c -0.07 1 -0.18 1.91 -0.24 2 c -0.61 0.21 -2.48 0.29 -2.77 -0.15" style="fill:#ed6b2f"/><path d="m 16.67 37.61 c -2.15 0.16 -1.92 -0.51 -2.83 -1.32 v -13 c 0.27 -0.77 0.54 -1.05 1.31 -1.32 h 18.64 c 0.46 0.18 0.98 0.37 1.21 1.42 c 0.19 0.49 0.18 2 -0.02 2.2 c -0.9 0.32 -1.72 0.02 -2.7 0.26 c -0.68 0.18 -0.89 0.72 -0.43 1.39 c 0.17 0.26 0.73 0.24 2.05 0.32 c 1.5 0.09 1.15 0.46 1.23 1.45 c 0.09 1.09 -0.23 0.74 -1.75 0.81 c -1.73 0.07 -1.88 -0.13 -1.88 0.91 c -0.09 1.13 0.73 0.73 2 0.8 c 1.43 -0.14 1.43 0.27 1.47 0.96 c 0.01 0.23 0.13 1.04 -0.48 1.11 c -0.38 0.04 -1.18 -0.09 -1.57 -0.08 c -1.27 0 -1.66 -0.15 -1.43 1.04 c 0.16 0.86 0.49 0.59 2.16 0.69 c 1.45 0.09 1.23 -0.08 1.35 0.79 c 0.03 0.22 -0.2 0.5 -0.64 0.91 c -0.69 0.85 -1.65 0.63 -2.7 0.66 c -1.98 0.08 -12.15 0.07 -15 -0.01 m 8.6 -3.59 c 0.48 -0.23 0.57 -0.88 0.57 -1.42 c 0 -0.3 -0.04 -1.16 0.29 -1.79 c 0.47 -0.9 1.09 -0.81 1.09 -1.67 c 0 -1.01 -0.08 -1.21 -0.83 -1.99 c -0.58 -0.61 -1 -0.78 -1.9 -0.78 c -0.91 0 -1.17 0.1 -1.86 0.74 c -0.74 0.68 -0.9 1.06 -0.91 2.16 c -0.01 0.88 0.82 1.01 1.26 1.7 c 0.31 0.49 0.16 1.31 0.22 1.74 c 0.1 0.75 0.03 1.06 0.51 1.3 c 0.41 0.2 1.14 0.2 1.55 0" style="fill:#53c1f1"/></svg>