<svg xmlns="http://www.w3.org/2000/svg" viewBox="0 0 48 48"><path d="m 41.91 40.77 c 27.45 -42.3 -47.53 -58.6 -41.55 -15.1 c 2.44 17.74 31.1 31.3 41.55 15.1" style="fill:#edc8d7"/><g style="fill:#d5004c;fill-opacity:0.97"><path d="m 23.53 43.3 c -4.46 -0.57 -9.44 -5 -11.52 -10.27 c -0.88 -2.21 -1.05 -3.41 -1.07 -7.4 c -0.6 -2.43 -1.6 -2.2 0.57 -5.09 c 0.52 -0.7 0.86 -1.87 1.18 -2.35 c 0.97 -1.44 0.98 -1.43 -0.63 -3.2 c -1.06 -1.18 -1.59 -1.93 -2.14 -3.06 c -0.59 -1.22 -0.91 -2.26 -0.69 -2.26 c 0.02 0 0.78 0.72 1.68 1.59 c 1.49 1.45 1.77 1.64 3 2.13 c 0.76 0.29 1.48 0.53 1.6 0.53 c 0.12 0 0.89 -0.41 1.71 -0.91 c 0.82 -0.5 1.95 -1.93 2.63 -2.27 c 1.21 -0.6 1.34 0.15 3.2 0.18 c 2.58 0.05 4.13 0.27 5.43 0.77 c 1.54 0.38 2.98 -0.41 4.3 1.73 c 0.53 0.36 1.11 0.65 1.29 0.65 c 0.59 0 2.44 -0.73 3.27 -1.3 c 0.45 -0.3 1.35 -0.99 2 -1.52 c 0.66 -0.53 1.24 -0.93 1.29 -0.87 c 0.15 0.15 -0.94 2.15 -1.7 3.13 c -0.89 1.23 -2.21 1.89 -3.15 3.04 c 0 0.08 0.11 0.41 0.23 0.75 c 0.34 0.99 1.17 1.86 0.7 3.92 c 0.05 0.23 -0.63 -0.52 -0.64 -1.55 c 0 -0.63 -0.63 -1.02 -0.74 -1.02 c -0.28 0 -0.27 0.09 0.07 0.6 c 0.18 0.27 0.33 1 0.42 2 c 0.21 2.29 0.19 2.65 -0.19 3.49 c -0.45 1.04 -0.72 2.22 -1.45 3.1 c -0.92 1.36 -2.32 2.47 -3.71 3.16 c -0.72 0.35 -1.65 0.63 -2.53 0.77 c -2.71 0.26 -3.57 0.27 -5.95 -1.21 c -0.79 -0.49 -2.22 -1.91 -2.22 -2.14 c 0 -0.2 0.92 0.29 1 0.48 c 0.03 0.07 0.37 0.32 0.75 0.57 c 0.87 0.56 0.98 0.19 0.13 -0.46 c -0.5 -0.38 -0.6 -0.6 -0.91 -1.93 c -0.43 -1.81 -0.35 -2.73 0.35 -4.21 c 1.07 -2.26 2.34 -3.25 4.32 -3.38 c 1.06 -0.07 1.31 -0.03 2.08 0.35 c 0.48 0.23 1.02 0.59 1.19 0.78 c 0.31 0.35 0.31 0.35 -0.1 0.23 c -0.22 -0.07 -0.84 -0.22 -1.38 -0.34 c -1.65 -0.38 -3.25 0.13 -4.37 1.36 c -0.87 0.96 -1.18 1.91 -1.08 3.37 c 0.22 3.41 3.27 5.87 6.43 5.19 c 1.48 -0.32 4.32 -2.2 4.32 -2.87 c 0 -0.1 0.2 -0.48 0.45 -0.84 c 0.45 -0.65 0.45 -0.66 0.45 -3.43 c 0 -2.52 -0.04 -2.87 -0.38 -3.75 c -0.86 -2.21 -2.54 -4.1 -4.36 -4.91 c -2.32 -1.03 -6.13 -0.96 -7.71 0.13 c -0.35 0.24 -0.73 1.59 -1.2 1.72 c -2.17 -0.41 -0.46 -0.79 -2.4 0.41 c -1.53 0.93 -2.88 2.43 -3.48 3.86 c -0.7 1.66 -0.93 2.59 -1.09 4.33 c -0.15 1.69 -0.04 3.23 0.36 4.98 c 0.25 1.06 0.94 0.75 1.54 1.31 c 0.76 0.72 0.57 1.87 0.41 2.13 c -0.16 0.27 0.71 2.37 1.45 3.46 c 1.23 1.61 2.81 3.45 4.52 4.3 c 1.46 1.08 2.41 1.19 3.91 1.73 c 0.52 0.23 0.09 0.37 -0.24 0.44 c -0.09 -0.01 -0.66 -0.09 -1.27 -0.16"/><path d="m 25.8 28.1 c -0.42 -0.14 -0.48 -0.48 -0.11 -0.61 c 0.38 -0.13 1.97 -0.1 2.07 0.04 c 0.04 0.06 -0.03 0.25 -0.16 0.42 c -0.26 0.32 -1.11 0.4 -1.8 0.16"/><path d="m 28.47 27.1 c -0.34 -0.52 0.75 -1.7 1.19 -1.27 c 0.2 0.19 -0.02 1.08 -0.3 1.36 c -0.24 0.23 -0.71 0.19 -0.89 -0.09"/><path d="m 29.7 24.59 c -0.13 -0.52 0.12 -1.47 0.43 -1.47 c 0.27 0 0.38 1.23 0.23 1.63 c -0.15 0.41 -0.54 0.32 -0.66 -0.16"/></g></svg>