<svg xmlns="http://www.w3.org/2000/svg" viewBox="0 0 48 48"><path d="m 8.4 41 c -37.84 -49.95 66.3 -57 32.89 -6.1 c -7.62 11.62 -22.86 19.29 -32.89 6.1" style="fill:#ebebeb"/><path d="m 21.2 37.4 c -0.22 -0.32 -0.29 -0.93 -0.29 -2.58 c 0 -2.64 -0.09 -3 -0.67 -3 c -0.93 0 -2.52 -0.78 -3.46 -1.7 c -1.56 -1.52 -1.75 -2.13 -1.86 -6.18 c -0.05 -1.91 -0.16 -3.57 -0.24 -3.69 c -0.08 -0.12 -0.43 -0.31 -0.77 -0.43 c -0.38 -0.13 -0.72 -0.41 -0.85 -0.7 c -0.2 -0.43 -0.18 -0.57 0.13 -0.98 c 0.34 -0.45 0.46 -0.48 2.25 -0.54 c 2.8 -0.08 2.66 -0.35 2.66 5.07 c 0 3.84 0.05 4.45 0.36 5.13 c 0.38 0.84 1.22 1.55 1.92 1.62 l 0.44 0.05 l 0.09 -8.69 c 0.11 -10 -0.07 -9.22 2.08 -9.22 c 0.96 0 1.36 0.09 1.7 0.36 l 0.44 0.36 l 0.09 8.59 c 0.09 8.47 0.1 8.6 0.47 8.53 c 0.56 -0.09 1.46 -0.7 1.78 -1.19 c 0.23 -0.34 0.3 -1.39 0.38 -5.14 c 0.12 -5.81 -0.03 -5.5 2.61 -5.5 c 2.07 0 2.64 0.24 2.64 1.11 c 0 0.55 -0.5 1.14 -0.97 1.14 c -0.16 0 -0.42 0.15 -0.59 0.34 c -0.26 0.28 -0.31 0.79 -0.31 2.96 c 0 4.05 -0.29 5.19 -1.74 6.76 c -0.88 0.96 -1.88 1.53 -3.23 1.84 l -0.94 0.21 l -0.09 2.63 c -0.06 1.84 -0.17 2.72 -0.35 2.94 c -0.2 0.24 -0.6 0.31 -1.82 0.31 c -1.4 0 -1.59 -0.04 -1.85 -0.42" style="fill:#4c4c4c"/></svg>