<svg xmlns="http://www.w3.org/2000/svg" viewBox="0 0 48 48"><path d="m 45.74 15.1 c 17.96 58.1 -78.5 29.1 -33.4 -10.77 c 9 -7.98 28.57 -4.91 33.4 10.77" style="fill:#30b4d4;fill-opacity:0.73"/><path d="m 22.92 39.9 c -0.15 -0.11 -0.15 -0.13 0.04 -0.23 c 0.11 -0.06 0.26 -0.11 0.33 -0.11 c 0.2 0 0.51 -0.39 0.59 -0.75 c 0.04 -0.18 0.02 -1.23 -0.05 -2.34 c -0.13 -2.23 -0.17 -2.36 -0.71 -2.36 c -0.44 0 -0.48 -0.16 -0.06 -0.29 c 0.2 -0.06 0.57 -0.26 0.85 -0.44 c 0.91 -0.59 0.85 -0.74 0.88 2.57 c 0.03 3.2 0.05 3.31 0.65 3.52 c 0.41 0.14 0.28 0.3 -0.3 0.38 c -1.21 0.14 -2.05 0.16 -2.21 0.04 m -6.64 -0.04 c -0.03 -0.05 0.07 -0.22 0.23 -0.38 l 0.28 -0.3 v -1.42 c 0 -1.29 -0.02 -1.44 -0.2 -1.67 c -0.24 -0.31 -0.6 -0.33 -1.12 -0.06 c -0.5 0.26 -0.59 0.6 -0.55 2.07 c 0.03 1.05 0.05 1.18 0.24 1.39 c 0.12 0.13 0.18 0.26 0.15 0.29 c -0.09 0.09 -1.55 0.08 -1.7 -0.02 c -0.09 -0.05 -0.06 -0.13 0.12 -0.3 c 0.23 -0.22 0.23 -0.25 0.23 -1.71 c 0 -0.82 -0.03 -1.54 -0.07 -1.59 c -0.04 -0.06 -0.2 -0.17 -0.35 -0.25 c -0.3 -0.15 -0.31 -0.14 0 -0.26 c 0.16 -0.06 0.48 -0.16 0.73 -0.21 c 0.38 -0.09 0.49 -0.08 0.77 0.07 c 0.32 0.18 0.33 0.18 0.74 -0.03 c 0.56 -0.28 1.07 -0.27 1.51 0.03 c 0.42 0.29 0.73 0.3 1.15 0.04 c 0.48 -0.3 1.23 -0.35 1.71 -0.1 c 0.68 0.36 0.74 0.54 0.69 2.27 c -0.04 1.38 -0.03 1.52 0.13 1.66 c 0.09 0.09 0.25 0.17 0.34 0.19 c 0.09 0.02 0.18 0.08 0.19 0.13 c 0.04 0.18 -5.13 0.33 -5.23 0.16 m 2.9 -0.34 c 0.13 -0.14 0.36 -0.21 0.41 -0.31 c 0.05 -0.1 0.12 -0.79 0.16 -1.54 l 0.07 -1.36 c -0.23 -0.26 -0.53 -0.48 -0.81 -0.48 c -0.38 0 -0.84 0.21 -0.92 0.41 c -0.03 0.07 -0.08 0.77 -0.12 1.54 c -0.07 1.38 -0.07 1.41 0.15 1.64 c 0.25 0.27 0.34 0.95 1.07 0.1 m 9 0.36 c -0.13 -0.13 -0.05 -0.41 0.4 -1.63 c 0.15 -1 1.29 -3.4 1.29 -3.99 c -0.04 -0.09 -0.34 -0.15 -1.04 -0.2 c -1.2 -0.08 -1.48 -0.03 -1.89 0.34 c -0.58 0.52 -0.64 0.35 -0.22 -0.6 c 0.17 -0.39 0.35 -0.65 0.47 -0.69 c 0.9 -0.04 1.73 0.16 2.67 0.09 c 0.82 -0.07 1.28 0.04 1.28 0.29 c 0 0.09 -0.1 0.33 -0.22 0.55 c -0.77 1.55 -1.33 4.57 -2.19 5.72 c -0.15 0.17 -0.41 0.22 -0.53 0.11 m 3.85 -0.09 c -0.04 -0.04 0.04 -0.19 0.17 -0.34 c 0.22 -0.27 0.23 -0.33 0.23 -1.71 v -1.43 l -0.29 -0.27 c -0.35 -0.32 -0.27 -0.41 0.48 -0.59 c 0.46 -0.11 0.55 -0.1 0.78 0.05 c 0.24 0.16 0.26 0.16 0.75 -0.08 c 0.28 -0.14 0.61 -0.25 0.75 -0.25 c 0.3 0 0.95 0.4 1.11 0.69 c 0.08 0.14 0.14 0.78 0.17 1.81 c 0.04 1.49 0.06 1.61 0.27 1.82 c 0.19 0.21 0.2 0.24 0.06 0.29 c -0.2 0.08 -1.39 0.08 -1.59 0 c -0.13 -0.05 -0.11 -0.1 0.09 -0.34 c 0.23 -0.27 0.23 -0.33 0.23 -1.59 c 0 -1.43 -0.07 -1.7 -0.5 -1.91 c -0.34 -0.17 -0.82 -0.01 -1.14 0.38 c -0.23 0.28 -0.24 0.34 -0.24 1.56 c 0 1.21 0.01 1.29 0.23 1.55 c 0.13 0.15 0.2 0.3 0.17 0.34 c -0.57 0.02 -1.17 0.21 -1.75 0" style="fill:#121111"/><path d="m 23.3 31.87 c -0.07 -0.13 -0.13 -0.5 -0.14 -0.83 c -0.02 -0.58 0.01 -0.63 0.52 -1.18 c 0.51 -0.55 0.53 -0.6 0.53 -1.23 c 0 -0.5 -0.04 -0.67 -0.18 -0.71 c -0.8 -0.09 -1.43 -0.07 -2.27 -0.07 c -0.02 0.78 -0.86 1.61 -0.61 2.31 c 0.24 0.66 0.76 1.34 -0.54 1.16 c -0.82 -2 -0.95 1.26 -1.66 0.1 c -0.34 -0.36 -0.08 -1.23 -0.17 -1.19 c -2.76 0.66 -0.91 -1.22 0.51 -1.51 c 0.73 -0.15 0.96 -0.24 1.14 -0.47 c 0.14 -0.18 0.18 -0.32 0.12 -0.38 c -1.68 -0.45 -3.27 -0.31 -5 -0.85 c -0.54 -0.18 0.3 -1.55 -1.32 -1 c -0.95 0.13 -2.13 1.29 -2.47 0.42 c -0.5 -1.3 1.15 -1.39 0.15 -2.07 c -2.22 -1.91 1.82 -0.77 1.57 -1.56 c -0.07 -0.22 -0.25 -0.51 -0.4 -0.64 c -0.54 -1 0.18 -1.6 0.96 -0.95 c 1.2 -0.5 1.92 1.49 2.91 1.82 c 1.67 -2.18 2.55 -4.87 4.14 -6.98 c 1.33 -1.77 2.48 -3.46 3.54 -5.19 c 0.5 -0.82 0.14 -0.89 0.02 -1.24 c -0.21 -0.77 0.14 -1.54 1.02 -1.54 c 0.28 0 0.89 0.91 1.13 0.62 c -0.04 -1.76 1.89 -1.64 1.46 -0.05 c 1.23 -0.29 2.85 -0.69 1.82 1.18 c -0.36 0.65 0.04 0.54 0.92 1.45 c 0.51 0.52 1.33 1.25 1.82 1.62 c 1.7 1.26 2.37 2.16 2.8 3.76 c 0.4 1.49 0.45 2.24 0.23 3.14 c -0.07 1.38 -2.6 0.66 -3.54 0.45 c -1.48 -0.35 -2.14 -0.66 -2.39 -0.43 c -0.38 0.36 -0.1 1.27 -0.01 2.63 c 0.11 1.77 -0.3 4.2 -0.86 5.06 c -0.31 0.47 -0.9 0.66 -2.37 0.73 c -0.7 0.04 -1.33 0.12 -1.41 0.18 c -0.08 0.06 -0.14 0.24 -0.14 0.41 c 0 0.25 0.07 0.34 0.42 0.47 c 0.94 0.38 1.23 0.57 1.8 1.22 c 0.67 0.77 0.81 1.09 0.56 1.33 c -0.21 0.21 -0.46 0.09 -1.33 -0.62 c -0.34 -0.28 -0.95 -0.77 -0.55 -0.14 c 0.29 0.45 0.26 0.84 -0.07 0.88 c -0.16 0.02 -0.46 -0.15 -0.89 -0.5 c -0.36 -0.29 -0.69 -0.54 -0.73 -0.54 c -0.05 0 -0.12 0.16 -0.16 0.34 c -0.16 0.74 -0.59 1.04 -0.85 0.6 m 11.64 -13.17 c 0.11 -0.7 0 -2.04 -0.22 -2.52 c -0.25 -0.58 -2.04 -2.24 -2.54 -2.36 c -1.39 -0.33 -2.36 2.57 -2.57 3.15 c -0.39 1.11 -0.42 1.32 -0.21 1.45 c 0.15 0.09 4.51 1.16 4.82 1.18 c 0.47 -0.08 0.64 -0.52 0.71 -0.89" style="fill:#fb5839"/><g style="fill:#30b4d4"><path d="m 22.58 18.38 c 0.87 0.3 2.98 1.57 3.21 2.57 c 0.13 0.56 -0.79 2.1 -1.27 2.67 c -1.37 1.38 -2.05 2.57 -3.62 2.21 c -1.51 -0.35 -1.96 -0.76 -1.71 -1.54 c 0.73 -1.29 2.53 -6.25 3.4 -5.93"/><path d="m 27.83 13.77 c 0 0.68 -0.52 1.24 -1.16 1.24 c -0.64 0 -1.17 -0.56 -1.17 -1.24 c 0 -0.68 0.52 -1.24 1.17 -1.24 c 0.64 0 1.16 0.55 1.16 1.24"/></g></svg>