<svg xmlns="http://www.w3.org/2000/svg" viewBox="0 0 48 48"><path d="m 29.82 1.05 c 4.29 2.06 10.23 5.09 10.76 5.47 c 0.32 0.23 0.85 0.82 1.17 1.3 c 0.93 1.37 5.81 11.1 5.99 11.96 c 0.18 0.79 -0.08 3.66 -0.55 6.24 c -1.17 7.63 -0.78 7.47 -1.87 9.1 c -0.24 0.44 -2.53 2.89 -5.09 5.45 c -4.93 4.92 -5.45 5.31 -7.43 5.61 c -5.33 0.71 -8.73 1.71 -13.48 1.81 c -4.12 -1.99 -8.56 -4.07 -12.43 -6.5 c -0.59 -0.56 -1.44 -2 -3.32 -5.66 c -3.85 -7.49 -3.55 -6.68 -3.39 -9.23 c 0.64 -3.96 0.98 -10.62 2.51 -13.39 c 0.52 -0.88 7.1 -7.69 9.16 -9.49 c 1.03 -0.9 2.03 -1.29 4.32 -1.67 c 2.34 -0.77 7.77 -1.45 9.64 -1.73 c 1.07 -0.21 2.32 -0.07 4 0.74" style="fill:#d11353"/><path d="m 10.23 26.74 c -0.05 -0.17 2.44 -11.31 2.61 -11.64 c 0.18 -0.36 10.71 -5.54 11.26 -5.54 c 0.34 0 10.69 5.13 11 5.46 c 0.16 0.16 2.84 11.86 2.74 11.96 c -11.57 -0.39 -17.49 -0.07 -27.63 -0.26" style="fill:#221f20"/><g style="fill:#fff"><path d="m 19.6 19 c 0 -0.04 0.71 -1.59 1.57 -3.46 c 0.87 -1.86 1.6 -3.45 1.64 -3.53 c 0.72 -0.23 1.25 -0.03 2.11 -0.03 l 1.61 3.38 c 0.91 1.91 1.64 3.54 1.66 3.59 c -0.75 0.15 -1.36 0.09 -2.19 0.09 c -0.17 -0.4 -0.33 -0.8 -0.5 -1.2 c -1.08 -0.02 -2.16 -0.04 -3.24 -0.06 c -0.17 0.4 -0.34 0.8 -0.5 1.2 c -0.71 0.01 -1.48 0.08 -2.16 0 m 5.18 -2.88 c -0.31 -0.64 -0.49 -1.41 -0.94 -1.89 c -0.12 0.11 -0.87 1.82 -0.87 1.98 c 0.38 0.17 1.91 0.17 1.81 -0.09"/><path d="m 10.13 27.2 c 0.01 -0.14 4.93 -7.47 5.3 -7.91 c 2.93 0.3 6.19 1.01 8.59 1.43 c 2.77 -0.25 5.5 -1.13 8.27 -1.26 c 0.23 0 0.59 0.4 1.47 1.66 c 2.9 4.14 4.13 6 4.09 6.17 c -2.48 3.1 -5.18 6.14 -7.69 9 c -7.22 -0.07 -8.84 0.07 -12.34 0.04 c -2.93 -3.59 -4.69 -5.55 -7.7 -9.18"/></g><path d="m 21.28 35.66 c -1.36 -2.04 -2.44 -3.76 -2.39 -3.83 c 0.12 -0.2 4.8 -3.13 4.87 -3.05 c 0.04 0.04 0.05 2.43 0.03 5.32 l -0.04 5.26" style="fill:#f68121"/><path d="m 23.7 34 c 0 -2.89 0.04 -5.25 0.09 -5.25 c 0.05 0 1.11 0.65 2.36 1.44 c 1.4 0.89 2.26 1.53 2.26 1.67 c 0 0.2 -3.17 5.22 -4.3 6.82 l -0.4 0.57" style="fill:#ec1a23"/><g style="fill:#221f20"><path d="m 21.32 24.47 c 0 1.09 -0.82 1.97 -1.83 1.97 c -1.01 0 -1.83 -0.88 -1.83 -1.97 c 0 -1.09 0.82 -1.97 1.83 -1.97 c 1.02 0 1.84 0.88 1.83 1.97"/><path d="m 30.64 24.6 c 0 1.09 -0.82 1.97 -1.83 1.97 c -1.01 0 -1.83 -0.88 -1.83 -1.97 c 0 -1.09 0.82 -1.97 1.83 -1.97 c 1.02 0 1.84 0.88 1.83 1.97"/></g></svg>