<svg xmlns="http://www.w3.org/2000/svg" xmlns:xlink="http://www.w3.org/1999/xlink" viewBox="0 0 48 48"><defs><g id="8" style="clip-path:url(#7)"><path d="m 69.5 37 c -9.11 0 -16.49 7.39 -16.49 16.49 c 0 9.12 7.39 16.51 16.49 16.51 c 9.11 0 16.51 -7.39 16.51 -16.51 c 0 -9.1 -7.41 -16.49 -16.51 -16.49 m -6.1 35 c -0.04 0 -0.08 0 -0.1 0 c -3.84 0.78 -7.91 2.31 -11.15 4.57 c -3.24 2.24 -5.71 5.21 -6.19 8.85 c 0 0.02 0 0.04 0 0.06 v 3.5 c 0 2.76 2.24 5 5 5 h 37 c 2.74 0 4.98 -2.24 4.98 -5 v -3.5 c 0 -0.02 0 -0.04 0 -0.04 c -0.4 -3.66 -3.54 -6.94 -7.13 -9.37 c -3.58 -2.43 -7.65 -3.99 -10.27 -4.08" transform="matrix(0.195 0 0 0.201 11.36 12.45)" style="fill:#007267;stroke:#007267;stroke-linecap:round;stroke-linejoin:round;stroke-width:2"/></g><clipPath id="7"><path d="M 0,0 H48 V48 H0 z"/></clipPath><filter id="5" filterUnits="objectBoundingBox" x="0" y="0" width="48" height="48"><feColorMatrix type="matrix" in="SourceGraphic" values="0 0 0 0 1 0 0 0 0 1 0 0 0 0 1 0 0 0 1 0"/></filter><linearGradient id="A" gradientUnits="userSpaceOnUse" y1="44" x2="0" y2="3.9" gradientTransform="matrix(2.6 0 0 2.795 5.8 -3.08)" xlink:href="#3"/><linearGradient id="B" gradientUnits="userSpaceOnUse" y1="5" x2="0" y2="43" gradientTransform="matrix(2.459 0 0 2.892 4.97 -5.41)"><stop style="stop-color:#fff;stop-opacity:0.5"/><stop offset="0.03" style="stop-color:#fff;stop-opacity:0.12"/><stop offset="0.97" style="stop-color:#fff;stop-opacity:0.08"/><stop offset="1" style="stop-color:#fff;stop-opacity:0.19"/></linearGradient><linearGradient id="4" gradientUnits="userSpaceOnUse" y1="10" x2="0" y2="118"><stop style="stop-color:#43d6b4"/><stop offset="1" style="stop-color:#28bba3"/></linearGradient><linearGradient id="3" gradientUnits="userSpaceOnUse" y1="44" x2="0" y2="3.9" gradientTransform="matrix(2.6 0 0 0.282 5.8 0.23)"><stop style="stop-color:#272727"/><stop offset="1" style="stop-color:#454545"/></linearGradient><linearGradient id="0" gradientUnits="userSpaceOnUse" x1="24.63" y1="3.12" x2="24.64" y2="4.88" gradientTransform="matrix(2.665 0 0 4.093 4.35 -10.57)"><stop style="stop-color:#f4f4f4"/><stop offset="1" style="stop-color:#e0e0e0"/></linearGradient><linearGradient id="2" gradientUnits="userSpaceOnUse" y1="1" x2="0" y2="3" gradientTransform="matrix(2.6 0 0 2.75 0.6 0.12)" xlink:href="#0"/><linearGradient id="1" gradientUnits="userSpaceOnUse" x1="5.21" x2="54.89" gradientTransform="matrix(1.901 0 0 1.988 6.82 0.04)"><stop style="stop-color:#0d9a82"/><stop offset="0.96" style="stop-color:#0d9a82"/><stop offset="0.96" style="stop-color:#c1c1c1"/><stop offset="1" style="stop-color:#c1c1c1"/></linearGradient><mask id="6"><g style="filter:url(#5)"><path d="M 0,0 H48 V48 H0 z" style="fill-opacity:0.05"/></g></mask><radialGradient id="C" gradientUnits="userSpaceOnUse" cx="64.4" cy="114.8" r="52.5" gradientTransform="matrix(1.333 0 0 0.082 -19.85 -3.92)"><stop style="stop-color:#000;stop-opacity:0.1"/><stop offset="1" style="stop-color:#000;stop-opacity:0"/></radialGradient><radialGradient id="9" gradientUnits="userSpaceOnUse" cx="7.5" cy="8.45" r="20" gradientTransform="matrix(0 6.532 -6.428 0 122.5 -37.83)"><stop style="stop-color:#5f5f5f"/><stop offset="0.26" style="stop-color:#4e4e4e"/><stop offset="0.7" style="stop-color:#3b3b3b"/><stop offset="1" style="stop-color:#2a2a2a"/></radialGradient></defs><path d="m 23.91 47.83 c -31.67 3.61 -31.2 -47.98 0.56 -47.4 c 29.57 -1.71 32.2 50.2 -0.56 47.4" style="fill:#007f7f"/><g style="stroke-linejoin:round"><path d="m 109.5 10.37 c -0.78 -2.64 -0.3 -6.34 -0.74 -8.87 h -80.3 l 0.46 7.97" transform="matrix(0.195 0 0 0.201 11.36 12.45)" style="fill:url(#0);stroke-miterlimit:0;stroke:url(#1);stroke-width:1.02"/><g style="stroke-linecap:round"><path d="m 30.5 12.51 h -10.39 c -1.48 0 -2.6 -0.14 -2.6 -0.27 v -8.15 c 0 -1.94 0.64 -2.61 2.54 -2.61 h 10.45" transform="matrix(0.195 0 0 0.201 11.36 12.45)" style="fill:url(#2);stroke:url(#3)"/><path d="m 22.1 9.49 h 86.5 c 1.06 0 1.92 0.84 1.92 1.87 v 105.3 c 0 1.03 -0.86 1.87 -1.92 1.87 h -86.5 c -1.06 0 -1.92 -0.84 -1.92 -1.87 v -105.3 c 0 -1.03 0.86 -1.87 1.92 -1.87" transform="matrix(0.195 0 0 0.201 11.36 12.45)" style="fill:url(#4);stroke-miterlimit:0;stroke:#0d9a82;stroke-width:1.02"/></g></g><use xlink:href="#8" style="mask:url(#6)"/><path d="m 24.92 19.88 c -1.78 0 -3.22 1.48 -3.22 3.31 c 0 1.83 1.44 3.32 3.22 3.32 c 1.78 0 3.22 -1.48 3.22 -3.32 c 0 -1.83 -1.45 -3.31 -3.22 -3.31 m -1.18 7 c -0.01 0 -0.02 0 -0.02 0 c -0.75 0.16 -1.54 0.46 -2.18 0.92 c -0.63 0.45 -1.11 1.05 -1.21 1.78 c 0 0 0 0.01 0 0.01 v 0.7 c 0 0.55 0.44 1 0.98 1 h 7.22 c 0.54 0 0.97 -0.45 0.97 -1 v -0.7 c 0 0 0 -0.01 0 -0.01 c -0.08 -0.73 -0.69 -1.39 -1.39 -1.88 c -0.7 -0.49 -1.49 -0.8 -2 -0.82" style="fill:#007267;fill-opacity:0.15"/><path d="m 24.92 19.68 c -1.78 0 -3.22 1.48 -3.22 3.32 c 0 1.83 1.44 3.31 3.22 3.31 c 1.78 0 3.22 -1.48 3.22 -3.31 c 0 -1.83 -1.45 -3.32 -3.22 -3.32 m -1.18 7 c -0.01 0 -0.02 0 -0.02 0 c -0.75 0.16 -1.54 0.46 -2.18 0.91 c -0.63 0.45 -1.11 1.05 -1.21 1.78 c 0 0 0 0.01 0 0.01 v 0.7 c 0 0.55 0.44 1 0.98 1 h 7.22 c 0.54 0 0.97 -0.45 0.97 -1 v -0.7 c 0 0 0 -0.01 0 -0.01 c -0.08 -0.73 -0.69 -1.39 -1.39 -1.88 c -0.7 -0.49 -1.49 -0.8 -2 -0.82" style="fill:#fafafa"/><g style="stroke-linecap:round;stroke-linejoin:round"><path d="m 30.5 9.49 c 0 0 0 75.8 0 109 h -10.73 c -1.48 0 -2.26 -0.88 -2.26 -2.37 v -106.6" transform="matrix(0.195 0 0 0.201 11.36 12.45)" style="fill:url(#9);stroke:url(#A)"/><path d="m 19.47 10.5 h 89.1 c 0.52 0 0.96 0.41 0.96 0.93 v 105.1 c 0 0.51 -0.44 0.93 -0.96 0.93 h -89.1 c -0.54 0 -0.96 -0.43 -0.96 -0.93 v -105.1 c 0 -0.53 0.42 -0.93 0.96 -0.93" transform="matrix(0.195 0 0 0.201 11.36 12.45)" style="fill:none;stroke:url(#B)"/></g><path d="m 18.51 3.5 h 92 m -92 2 h 92 m -92 2 h 92" transform="matrix(0.195 0 0 0.201 11.36 12.45)" style="fill:none;stroke:url(#C)"/></svg>