<svg xmlns="http://www.w3.org/2000/svg" viewBox="0 0 48 48"><path d="m 1.16 18.85 c 14.74 -44.61 73.5 3.28 31.99 25.95 c -16.22 9.71 -39.58 -3 -31.99 -25.95" style="fill:#f4f4f4"/><path d="m 38.2 25.2 c 0 8.16 -6.85 14.78 -15.3 14.78 c -8.45 0 -15.3 -6.62 -15.3 -14.78 c 0 -8.16 6.85 -14.77 15.3 -14.77 c 8.45 0 15.3 6.61 15.3 14.77" style="fill:#cccdcd"/><path d="m 24.95 39.3 c -0.14 -0.15 -0.52 -0.67 -0.86 -1.15 c -0.51 -0.75 -0.67 -0.9 -1.11 -1.02 c -0.29 -0.07 -0.75 -0.24 -1.02 -0.36 c -0.28 -0.13 -0.58 -0.23 -0.66 -0.23 c -0.25 0 -1.95 -0.58 -2.85 -0.97 l -0.85 -0.37 l -0.83 0.26 c -0.45 0.14 -1.02 0.37 -1.27 0.5 c -0.58 0.32 -1.46 0.57 -2 0.58 c -0.4 0 -0.57 -0.11 -1.43 -0.94 c -1.21 -1.18 -1.93 -2.13 -2.61 -3.51 c -0.5 -1.02 -0.53 -1.13 -0.52 -2.13 c 0.01 -0.96 0.05 -1.15 0.5 -2.06 c 0.29 -0.61 0.48 -1.17 0.47 -1.43 c 0 -0.23 -0.05 -1.64 -0.09 -3.14 l -0.08 -2.71 l -0.37 -0.3 c -0.49 -0.39 -0.47 -0.71 0.08 -1.78 c 1.39 -2.69 3.46 -4.85 5.96 -6.22 c 1.2 -0.66 1.56 -0.75 1.67 -0.42 c 0.04 0.14 0 0.4 -0.1 0.59 c -0.21 0.41 -0.65 2.73 -0.56 2.96 c 0.04 0.09 0.34 0.24 0.68 0.34 c 0.34 0.09 1.26 0.43 2.05 0.76 c 0.79 0.32 1.5 0.59 1.58 0.59 c 0.18 0 5.45 -1.66 5.68 -1.79 c 0.18 -0.1 0.75 -1.82 0.76 -2.29 c 0 -0.38 -0.86 -1.05 -2.07 -1.61 c -1.07 -0.5 -1.32 -0.7 -1.06 -0.86 c 0.3 -0.18 2.51 0.2 4 0.68 c 1.05 0.34 3 1.31 3.34 1.63 c 0.11 0.12 0.16 0.28 0.11 0.36 c -0.09 0.14 -0.17 0.14 -2.14 -0.07 c -0.9 -0.1 -0.86 -0.14 -1.3 1.38 c -0.23 0.8 -0.26 1.06 -0.14 1.27 c 0.08 0.15 0.95 1.22 1.94 2.39 c 1.61 1.91 1.84 2.13 2.29 2.22 c 0.27 0.06 1.08 0.27 1.8 0.47 c 0.71 0.2 1.35 0.31 1.4 0.26 c 0.15 -0.16 0.5 -1.38 0.5 -1.75 c 0 -0.48 0.26 -0.97 0.49 -0.93 c 0.25 0.05 0.54 0.62 0.93 1.85 c 0.42 1.31 0.54 1.92 0.72 3.72 c 0.14 1.33 0.13 1.75 -0.05 3.15 c -0.26 2 -0.39 2.48 -0.77 2.68 c -0.16 0.09 -0.58 0.56 -0.92 1.06 c -0.35 0.5 -0.85 1.16 -1.12 1.46 c -0.66 0.73 -0.74 0.9 -0.85 1.82 c -0.12 1.04 -0.23 1.3 -0.79 1.86 c -1.39 1.4 -3.94 2.69 -6.38 3.24 c -1.39 0.32 -1.81 0.31 -2.14 -0.04 m -0.23 -4.36 c 0.56 -0.48 1.6 -1.34 2.31 -1.91 l 1.29 -1.03 l -0.07 -0.93 c -0.09 -1.1 -0.61 -3.43 -0.85 -3.77 c -0.11 -0.16 -1.07 -0.54 -2.98 -1.18 c -1.55 -0.52 -2.91 -0.98 -3 -1.03 c -0.15 -0.06 -0.78 0.41 -2.41 1.82 c -1.21 1.04 -2.21 1.96 -2.21 2.04 c 0 0.68 1.02 4.54 1.32 5 c 0.21 0.32 2 1.05 3.57 1.46 c 0.65 0.17 1.21 0.33 1.24 0.36 c 0.03 0.03 0.22 0.05 0.42 0.05 c 0.29 0 0.61 -0.21 1.39 -0.88 m 9.34 -3.61 c 0.72 -0.84 1.23 -1.54 1.67 -2.32 c 0.27 -0.48 0.34 -0.78 0.41 -2 c 0.09 -1.51 0.05 -1.88 -0.45 -3.56 c -0.25 -0.85 -0.27 -0.87 -1.37 -1.18 c -0.56 -0.16 -2.36 -0.62 -2.43 -0.62 c -0.03 0 -0.46 0.64 -0.96 1.43 c -0.5 0.78 -1.25 1.91 -1.66 2.5 c -0.53 0.76 -0.72 1.15 -0.67 1.34 c 0.04 0.14 0.18 0.71 0.33 1.27 c 0.14 0.55 0.36 1.57 0.48 2.24 l 0.21 1.23 l 1.07 0.2 c 0.59 0.11 1.44 0.21 1.91 0.21 l 0.84 0.01 m -15.3 -6 c 1.11 -0.96 2.05 -1.82 2.11 -1.91 c 0.1 -0.16 0.07 -5.48 -0.04 -5.74 c -0.11 -0.27 -3.88 -1.75 -4.46 -1.75 c -0.48 0 -3.57 2.52 -4.36 3.57 l -0.36 0.47 l 0.01 2.07 c 0 1.14 0.05 2.32 0.09 2.62 c 0.08 0.51 0.13 0.57 0.77 0.91 c 0.86 0.45 3.61 1.49 3.97 1.51 c 0.18 0.01 0.92 -0.55 2.28 -1.75" style="fill:#464c4e"/></svg>