<svg xmlns="http://www.w3.org/2000/svg" viewBox="0 0 48 48"><path d="m 0.42 29.2 c 2.31 24.52 39.3 25.2 46.2 1.42 c 6.86 -19.3 -13.1 -35.1 -29 -28.74 c -10.61 2.99 -19.75 15.2 -17.21 27.32" style="fill:#5b6ee0"/><path d="m -0.09 27.81 c -0.69 -3.13 2.87 -6.83 9.18 -5.92 c 4.52 0.65 4.66 1.92 9.24 -2 c 6.24 -5.36 4.63 -6.1 -2.64 -12.57 l -3.51 -3.14 c 13.72 -7.35 39.63 22.3 34.68 24.51 c -3.36 0 -5.95 -0.5 -7.62 2.52 c -1.12 2 -1.04 5.23 -1.18 6.38 c -0.39 3.26 -2.61 3 -4.93 4.23 c -2.31 1.23 -2.03 3.15 -2.33 4.84 c -10.69 2.45 -28.49 -9.2 -30.9 -18.84" style="fill:#f9ef20"/><path d="m 0.19 29.39 c 0 -3.72 5.57 -6.61 11.1 -5.74 c 3.94 0.62 4.71 0.32 8.7 -3.43 c 5.45 -5.11 5.07 -7.76 -1.88 -13.1 l -4.77 -3.77 l 3.48 -1.47 c 12.6 -5.31 31.79 4.41 31.38 22.2 c 0.01 3.23 -0.26 3.49 -3.56 3.49 c -2.94 0 -5.26 -0.07 -6.72 2.81 c -0.98 1.92 -0.91 4.99 -1.03 6.08 c -0.34 3.11 -2.28 2.86 -4.3 4 c -2 1.18 -2.68 4.4 -2.93 6 c -0.18 1.11 -4 1.48 -6.79 1.41 c -14.8 0.23 -22.1 -10.41 -22.66 -18.46" style="fill:#99e44e"/><path d="m 15.7 46.96 c -2.18 -0.49 -9.29 -3.07 -12.24 -8.67 l 3.65 -2.31 c 1.85 -1.17 6.07 -3.69 9.45 -5.48 c 4.74 -2.52 6.79 -3.96 8.98 -6.34 c 5 -5.45 2.96 -8.3 0.25 -12.1 c -2.09 -2.91 -0.95 -7.45 -5.23 -9.9 l -1.77 -1 c 13.96 -3.63 23.44 5 27.1 12.34 l -1.09 2.36 c -0.72 1.55 1.1 2.47 -1.04 3.2 c -0.68 0.23 -3.79 0.61 -5.28 1.62 c -1.49 1 -3.13 1.83 -3.64 1.83 c -2.24 0 -7.47 6.39 -8.88 10.86 c -0.37 1.17 -1.2 2.95 -1.85 3.97 c -0.65 1.02 -2.17 3.59 -3.38 5.7 c -2.18 3.81 -1.93 5.17 -4.98 3.9" style="fill:#495b28"/><g style="fill:#99e44e"><path d="m 38.66 8.23 c 0 1.18 -0.99 2.15 -2.21 2.15 c -1.22 0 -2.21 -0.96 -2.21 -2.15 c 0 -1.19 0.99 -2.15 2.21 -2.15 c 1.22 0 2.21 0.96 2.21 2.15"/><path d="m 39.4 14.57 c 0 1.19 -0.99 2.15 -2.21 2.15 c -1.22 0 -2.21 -0.96 -2.21 -2.15 c 0 -1.19 0.99 -2.15 2.21 -2.15 c 1.22 0 2.21 0.96 2.21 2.15"/><path d="m 33.58 11.36 c 0 1.18 -0.99 2.14 -2.21 2.14 c -1.22 0 -2.21 -0.96 -2.21 -2.14 c 0 -1.19 0.99 -2.15 2.21 -2.15 c 1.22 0 2.21 0.96 2.21 2.15"/></g><g style="fill:#4e3621"><path d="m 30.36 10.39 h 1.82 v 1.82 h -1.82"/><path d="m 35.5 7.32 h 1.82 v 1.82 h -1.82"/><path d="m 36.3 13.62 h 1.82 v 1.82 h -1.82"/></g><path d="m 11.15 45.2 c -3.13 -1.59 -3.25 -1.77 -2.28 -3.25 c 1.05 -1.62 2.13 -2.46 2.82 -2.21 c 0.3 0.11 1.08 -0.23 1.73 -0.74 c 1.51 -1.19 2.21 -0.68 3 2.16 c 0.58 2.05 0.57 2.09 -0.95 3.66 c -0.84 0.87 -1.64 1.57 -1.79 1.57 c -0.14 0 -1.29 -0.54 -2.54 -1.18" style="fill:#b5b2b8"/></svg>