<svg xmlns="http://www.w3.org/2000/svg" xmlns:xlink="http://www.w3.org/1999/xlink" viewBox="0 0 48 48"><defs><g id="3" style="clip-path:url(#2)"><path d="m 21.2 43.65 c -1.87 -0.07 -1.44 5.11 -6.14 3.2 l -2.09 -0.85 l 0.48 -0.93 c 2.49 -7.59 -2.3 -15.77 -6.7 -19.34 c -3.56 -3.25 0.02 -2.32 3.14 -2.48 c 3.12 -1.54 6.55 -4.73 6 -8.14 c -0.2 -1.32 -4.32 -2.49 -5.07 -3.29 c -1.28 -0.41 -1.54 -1.29 -0.07 -2.35 c 1.36 -1.72 3.18 -3.43 1.83 -4.88 c -0.5 -0.5 0.08 -1.17 0.64 -1.57 c 0.93 -0.66 3.67 -2.23 4.52 -1.71 c 9.38 5.69 11.14 -2.15 17.55 3.69 c 1.64 1.5 4.58 4.05 6.39 6.43 c 5 6.61 -2.5 6.66 -0.04 12.69 c 0.61 1.49 6.7 4.77 6.29 6.32 c -2.39 9.1 -7.92 2.07 -6.92 7.84 c 0.56 3.23 -4.26 6.1 -8.82 7.68 c -3.36 1.17 -6.77 -3.73 -11 -2.32" style="fill:#62c288"/></g><g id="6" style="clip-path:url(#5)"><path d="m 30.1 40.67 c -3.55 -0.38 -4.88 -0.7 -6.84 -1.66 c -2.62 -1.1 -2.93 -3.84 -4.26 -5.38 c -0.25 0.05 -0.11 -0.18 0.32 -0.56 c 5.66 -5.68 12.25 -6.95 16.93 -6.71 c 0.27 -0.17 0.28 -0.17 0.28 0.09 c 0 0.14 0.16 0.72 0.35 1.28 c 0.98 2.79 1.26 4.51 1.45 8.88 c 1.34 6.63 -3.66 4.52 -8.23 4.07" style="fill:#479060"/></g><g id="9" style="clip-path:url(#8)"><path d="m 10.3 34.1 c -0.32 -0.3 -0.24 -0.65 0.27 -1.31 c 0.56 -0.71 2.16 -2.22 2.36 -2.22 c 0.34 0.2 0.5 0.54 0.75 0.86 c 0.38 0.6 -0.63 1.24 -1.03 1.63 c -1.23 1.18 -1.9 1.48 -2.34 1.05" style="fill:#479567"/></g><g id="C" style="clip-path:url(#B)"><path d="m 30.9 35.1 c -0.38 -0.25 -1.97 -1.51 -2.3 -1.82 c 0.55 -0.74 0.39 -1.68 1.13 -2.23 c 0 -0.34 0 -0.34 0.16 -0.13 c 0.5 0.96 4.6 4.6 4 5.73 c -0.34 0.65 -2.35 -1.13 -3 -1.56" style="fill:#9fc83d"/></g><clipPath id="8"><path d="M 0,0 H48 V48 H0 z"/></clipPath><clipPath id="2"><path d="M 0,0 H48 V48 H0 z"/></clipPath><clipPath id="5"><path d="M 0,0 H48 V48 H0 z"/></clipPath><clipPath id="B"><path d="M 0,0 H48 V48 H0 z"/></clipPath><filter id="0" filterUnits="objectBoundingBox" x="0" y="0" width="48" height="48"><feColorMatrix type="matrix" in="SourceGraphic" values="0 0 0 0 1 0 0 0 0 1 0 0 0 0 1 0 0 0 1 0"/></filter><mask id="A"><g style="filter:url(#0)"><path d="M 0,0 H48 V48 H0 z" style="fill-opacity:0.93"/></g></mask><mask id="4"><g style="filter:url(#0)"><path d="M 0,0 H48 V48 H0 z" style="fill-opacity:0.93"/></g></mask><mask id="7"><g style="filter:url(#0)"><path d="M 0,0 H48 V48 H0 z" style="fill-opacity:0.93"/></g></mask><mask id="1"><g style="filter:url(#0)"><path d="M 0,0 H48 V48 H0 z" style="fill-opacity:0.93"/></g></mask></defs><path d="m 36.4 5.96 c 42.51 39.5 -45.2 64.4 -35.55 11.95 c 4.77 -13.84 21.9 -24.64 35.55 -11.95" style="fill:#199a8e"/><use xlink:href="#3" style="mask:url(#1)"/><path d="m 19.1 25.93 c -1.91 -2.27 -2.3 -5.08 -1.26 -7.26 c 1.27 -2.63 3.81 -4 6.87 -3.8 c 4.14 0.32 7 4.24 5.95 8.19 c -0.31 1.17 -0.7 1.89 -1.55 2.86 c -3.26 2.98 -7.3 2.77 -10 0.02" style="fill:#a25838"/><path d="m 6.09 37.4 c -0.05 -3 0.17 -7.5 2.08 -10 c 0.52 -0.66 1.92 -1.61 2.86 -1.95 c 5.65 0.48 9.1 6.18 8 8.66 c -0.6 1.07 -1.38 1.97 -2 2.33 c -1.25 0.7 -3.58 1.27 -6.8 1.66 c -1.38 -0.06 -3.47 0.82 -4.16 -0.69" style="fill:#9fc83d"/><use xlink:href="#6" style="mask:url(#4)"/><path d="m 22.2 33.1 c -0.32 -0.7 -0.62 -1.31 -0.68 -1.37 c -2.3 0.78 -3.38 -1.06 -3.77 -1 c -0.17 0.06 -1.06 0.33 -1.98 0.58 c -1.23 0.32 -1.38 0.79 -2.18 -0.11 c -0.66 -0.74 -0.65 -1.23 0.04 -2.88 c 0.3 -0.73 0.5 -1.41 0.43 -1.52 c -1.14 -1.42 -1.64 -1.35 -1.43 -3.18 c 0 -0.19 -0.63 -0.57 -1.59 -0.96 c -1.37 -0.56 -1.61 -0.74 -1.79 -1.33 c -0.27 -0.92 0.11 -1.3 2.18 -2.18 c 0.9 -0.38 1.63 -0.76 1.63 -0.84 c -1.29 -2.83 -1.36 -2.4 1.14 -3.12 c 0.09 -0.05 -0.05 -0.59 -0.3 -1.2 c -0.83 -2 -0.91 -2.47 -0.52 -3.04 c 0.45 -0.66 0.94 -0.65 3 0.06 c 3.43 1.55 2.89 1.07 4.26 -0.39 c 0.94 0.72 0.84 -0.3 1.84 -2.36 c 0.79 -1.64 1.14 -1.89 2.21 -1.65 c 0.83 0.18 1.05 1.28 1.42 2.18 c 0.32 0.79 0.71 1.43 0.85 1.43 c 2.11 1.23 1.84 1.77 5.1 0.72 c 2.96 -0.97 3.53 -0.46 2.58 2.31 c -0.31 0.91 -0.52 1.77 -0.48 1.91 c 1.13 1.44 0.11 2.71 2.86 4 c 1.29 0.46 2.11 0.77 2.14 2.05 c 0 0.54 -0.85 1.11 -2.69 1.77 c -0.7 0.25 -1.26 0.5 -1.26 0.55 c 0.16 1.95 0.84 2 -0.99 3.28 c -0.08 0.12 0.14 0.98 0.48 1.91 c 0.68 1.88 0.61 2.28 -0.46 2.65 c -0.47 0.16 -0.9 0.1 -1.95 -0.29 c -2.31 -0.85 -2.34 -0.84 -2.34 0.15 c -0.72 3.1 -1.23 1.36 -3 0.68 c -0.11 0 -0.43 0.5 -0.72 1.11 c -0.83 1.79 -1.26 2.29 -1.94 2.29 c -1.2 -0.22 -1.68 -1.3 -2.1 -2.22 m 5.06 -6.23 c 0.5 -0.25 1.36 -0.94 1.91 -1.53 c 3.1 -5.65 -0.02 -9.79 -5 -10.73 c -2.87 0.01 -5 1.28 -6.17 3.61 c -1.31 3.66 0.11 7.52 3.71 8.91 c 1.36 0.48 4.37 0.35 5.56 -0.25" style="fill:#ffdf45"/><path d="m 22.34 27.2 c -1.86 -0.48 -3.42 -1.73 -4.29 -3.43 c -0.66 -1.77 -0.68 -3.74 0.05 -5.25 c 0.55 -1.13 1.54 -2.22 2.23 -2.5 c 0.42 -0.17 0.5 -0.15 0.8 0.13 c 0.31 0.3 0.32 0.38 0.15 1.62 c -0.27 2.07 0.14 3.71 1.3 5.18 c 1.02 1.28 3.31 2.42 4.86 2.42 c 0.67 0 0.92 0.29 0.58 0.68 c -1.6 1.25 -3.98 1.59 -5.68 1.16" style="fill:#763926"/><use xlink:href="#9" style="mask:url(#7)"/><use xlink:href="#C" style="mask:url(#A)"/><path d="m 18.32 33.2 c -0.34 -0.73 -0.32 -1.47 -0.64 -2.2 c -0.07 -0.03 -0.08 -0.09 -0.01 -0.17 c 0.39 -1.16 0.56 -2.33 1.02 -3.54 c 0.22 -0.57 0.4 -1.12 0.4 -1.22 c 0 -0.34 -0.36 -0.32 -1.5 0.08 c -1.49 0.73 -2.2 0.37 -3.58 0.87 c -0.72 -0.13 -2.83 -0.26 -2.87 -0.95 c 0.11 -1.67 1.04 -1.29 1.25 -2.13 c 0.68 -0.89 2.35 -1.55 3.25 -1.95 c 1.33 -0.58 1.35 -0.59 1.35 -0.86 c 0 -0.17 -0.2 -0.31 -0.79 -0.56 c -1.07 -0.45 -1.82 -0.85 -2.59 -1.37 c -1.88 -1.53 -2.27 -3.38 -0.68 -3.62 c 0.52 -0.06 1 -0.16 1.06 -0.21 c 0.18 -0.13 2.53 0.36 3.67 0.78 c 1.64 0.59 1.76 0.49 1.16 -1.04 c -0.23 -0.57 -0.5 -1.48 -0.61 -2 c 0.18 -0.82 -0.28 -4 0.8 -4.07 c 2.85 -0.12 3.64 3.88 5.1 5.49 c 0.25 0 0.34 -0.12 0.67 -0.94 c 0.21 -0.51 0.68 -1.39 1.03 -1.94 c 0.18 -0.77 2.47 -2.49 3 -2.5 c 0.64 0 0.81 0.26 0.94 1.36 c 0.45 1.59 0.49 0.88 0.11 2.44 c -0.2 0.92 -0.55 2.04 -0.82 2.55 c -0.21 0.41 -0.3 0.94 -0.2 1.11 c 0.07 0.11 0.36 0.05 1.26 -0.26 c 1.73 -0.61 3.24 -0.89 3.96 -0.75 c 0.66 0.23 2.22 0.11 2.45 0.72 c 0.16 0.97 -0.82 1.33 -1.1 2.09 c 0 0.29 -1.79 1.44 -3.31 2.12 c -1.53 0.68 -1.52 0.81 0.1 1.59 c 2.23 0.86 3.1 1.85 4.25 3.77 c 0.28 1.32 -2.88 1.21 -3.46 1.11 c -1.02 -0.13 -1.71 -0.32 -2.88 -0.77 c -1.04 -0.4 -1.18 -0.43 -1.34 -0.27 c -0.16 0.15 -0.14 0.26 0.18 1.05 c 0.43 1.04 0.84 2.46 0.84 2.87 c 0.57 4.46 -1.35 3.88 -2.93 2.36 c -0.06 -0.01 -0.16 -0.02 -0.21 -0.03 c -0.18 -0.02 -1.26 -1.71 -1.93 -3 c -0.63 -1.2 -0.88 -1.48 -1.09 -1.22 c -0.06 0.07 -0.38 0.67 -0.7 1.32 c -0.25 0.99 -1.37 1.73 -1.55 2.71 c -1.03 0.92 -2.27 1.3 -2.69 1.48 c -0.18 -0.05 -0.3 -0.16 -0.41 -0.28 m 7.26 -5.67 c 1.29 -0.26 2.16 -0.76 3.16 -1.78 c 1.45 -1.49 2 -2.92 1.89 -4.9 c -0.33 -4.18 -6.17 -6.45 -8.77 -5.78 c -2.43 0.72 -4.42 2.96 -4.6 5.16 c -0.11 1.38 0.12 2.98 0.54 3.8 c 0.55 1.08 2.08 2.51 3.38 3.15 c 0.96 0.48 2.98 0.64 4.4 0.35" style="fill:#fbb44c"/></svg>