<svg xmlns="http://www.w3.org/2000/svg" viewBox="0 0 48 48"><path d="m 39.54 38.83 c -19.43 25.2 -54.5 -8.76 -32.1 -31.1 c 19.28 -22.37 56.68 9.6 32.1 31.1" style="fill:#2c2c2c"/><path d="m 19.1 35.8 c -1.49 -0.07 -2.96 0.2 -4.31 -0.46 c -1.73 -0.84 -3.07 -2.35 -3.7 -4.16 l -0.32 -0.93 l 0.04 -7 l 0.04 -7 l 0.56 -1.15 c 1.02 -2.09 2.98 -3.61 5.11 -3.94 c 0.52 -0.08 3.49 -0.12 7.41 -0.09 c 6.52 0.04 6.55 0.05 7.36 0.37 c 1.71 0.68 3 1.84 3.87 3.45 c 0.38 0.72 0.45 0.98 0.54 2.38 c 0.13 1.96 0.14 10.4 0 12.4 c -0.09 1.32 -0.15 1.62 -0.55 2.44 c -0.59 1.21 -1.94 2.56 -3.16 3.16 c -0.74 0.36 -1.08 0.45 -2 0.49 c -2.21 0.1 -7.41 0.13 -10.86 0.05 m 11.87 -2.54 c 1.35 -0.79 1.98 -1.68 2.61 -2.94 v -13.53 l -0.45 -0.91 c -0.79 -1.34 -1.63 -1.91 -2.86 -2.54 h -13.98 l -0.74 0.42 c -1.26 0.79 -1.8 1.59 -2.47 2.76 v 13.95 c 0.6 1.09 1.45 2.21 2.32 2.69 c 0.98 0.53 1.81 0.59 8.64 0.56 l 6 -0.02" style="fill:#1780c8"/><path d="m 27.52 29.96 c -0.09 -0.19 -0.95 -2.11 -1.89 -4.27 c -1.99 -4.5 -2.26 -5.1 -2.4 -4.9 c -0.06 0.06 -0.97 1.78 -2.03 3.81 l -1.92 3.7 l -0.6 -0.63 c -0.33 -0.35 -1.07 -1.14 -1.66 -1.78 l -1.06 -1.14 l -0.55 0.86 c -0.3 0.47 -0.61 0.86 -0.68 0.86 c -0.23 0 -1 -0.53 -1 -0.69 c 0 -0.13 1.3 -2.48 1.79 -3.23 c 0.18 -0.27 0.03 -0.4 2.42 2.09 c 0.48 0.51 0.93 0.92 0.98 0.92 c 0.05 0 1.06 -1.85 2.24 -4.11 c 1.18 -2.26 2.2 -4.12 2.27 -4.13 c 0.14 -0.02 0.35 0.44 2.68 5.74 c 0.84 1.9 1.57 3.47 1.64 3.49 c 0.07 0.02 0.67 -1.13 1.32 -2.55 c 0.66 -1.43 1.24 -2.67 1.3 -2.76 c 0.11 -0.17 0.88 0.9 1.89 2.63 l 0.47 0.8 c -0.36 0.23 -0.71 0.46 -1.06 0.7 l -0.49 -0.56 c -0.58 -0.67 -0.38 -0.93 -1.8 2.25 c -1.25 2.79 -1.48 3.25 -1.59 3.25 c -0.05 0 -0.16 -0.16 -0.25 -0.35" style="fill:#0dc322"/></svg>