<svg xmlns="http://www.w3.org/2000/svg" viewBox="0 0 48 48"><path d="m 24.45 47.74 c -4.95 -0.39 -10.74 -2.75 -14.77 -6 c -4.91 -4 -8.51 -10.12 -9.47 -16.2 c -1.15 -7.98 3.48 -16.56 8.72 -20.63 c 2.63 -1.98 6.11 -3.56 9.37 -4.25 c 8.5 -1.8 17.36 1.61 23.44 8.99 c 3.64 4.43 5.53 8.89 5.99 14.18 c 0.55 6.33 -1.95 13.1 -6.52 17.7 c -5.2 4.31 -10.56 6.65 -16.73 6.21" style="fill:#fb445f"/><path d="m 10.35 34.77 l 0.09 -2.04 l 4.77 -4.73 c 2.63 -2.61 4.86 -4.96 4.97 -5.23 c 0.14 -0.37 0.11 -0.93 -0.13 -2.2 c -0.28 -1.45 -0.3 -1.89 -0.11 -3 c 0.66 -3.86 3.7 -6.84 7.56 -7.41 c 8.5 -1.26 13.74 8.88 7.67 14.82 c -2.04 1.99 -4.6 2.83 -7.56 2.46 c -2.03 -0.25 -3 -0.55 -4.18 -1.3 c -0.61 -0.38 -1.15 -0.7 -1.21 -0.7 c -0.06 0 -2.78 2.55 -6 5.68 l -5.92 5.68 m 22.82 -18.49 c 1.37 -0.91 1.53 -2.81 0.34 -3.91 c -1.58 -1.46 -4.08 -0.67 -4.44 1.4 c -0.1 0.58 -0.04 0.92 0.31 1.6 c 0.75 1.49 2.36 1.88 3.79 0.92" style="fill:#ffa400"/><path d="m 10.65 37.1 c -0.16 -0.1 11.38 -11.1 11.64 -11.1 c 0.09 0 0.64 0.31 1.24 0.68 c 0.59 0.38 1.16 0.7 1.24 0.73 c 0.14 0.05 -1.4 1.75 -1.83 2 c -0.21 0.13 -1.14 0.14 -1.84 0.03 c -1.02 -0.16 -1.08 -0.09 -1.08 1.25 c -0.04 0.63 0.28 1.11 -0.41 1.25 c -0.71 0.15 -1.53 -0.06 -2.14 0.23 c -0.32 0.82 0.16 1.43 -0.06 2 c -0.78 0.27 -1.36 0.24 -2.59 0.18 c -0.11 0.85 -0.13 1.43 -0.24 2.58 c -1.92 0.1 -2.49 0.19 -3.94 0.12" style="fill:#ffd600"/><path d="m 21.89 23.82 c -0.72 -0.92 -1.13 -1.84 -1.42 -3.25 c -0.35 -1.67 -0.35 -2.27 0 -3.66 c 1.07 -4.25 5.3 -7 9.64 -6.29 c 1.36 0.22 2.93 0.89 3.91 1.65 l 0.64 0.5 c -0.48 0.47 -0.97 0.93 -1.46 1.39 c -1.63 -1.11 -2.92 -0.35 -3.68 0.4 c -0.94 1.4 -0.62 2.09 -0.06 3.38 c -2.68 2.42 -4.42 4 -6.96 6.42 c -0.26 -0.16 -0.45 -0.36 -0.61 -0.55" style="fill:#ff0"/></svg>