<svg xmlns="http://www.w3.org/2000/svg" viewBox="0 0 48 48"><path d="m 47.4 18.5 c -9.37 -44.98 -73.86 3.3 -35.1 26.2 c 15 9.81 39.94 -3.04 35.1 -26.2" style="fill:#f4f4f4"/><path d="m 35.3 38.5 c -0.89 -0.16 0.13 -1.46 0.21 -1.85 c 0.32 -0.55 0.96 -0.12 2.27 -0.04 c 0 0.71 0 1.42 0 2.13 c -0.57 -0.03 -1.3 0.03 -2.48 -0.23 m -8.92 -2.45 c 0.01 -0.58 -0.17 -1.91 0.37 -2.13 c 0.49 -0.18 2.53 -0.64 2.59 -0.57 c 0.09 0.09 0.1 1.73 0 2 c -0.33 0.41 -2.73 0.98 -2.96 0.68 m -4.45 -1.37 c -0.11 -0.19 0.08 -1.98 0.23 -2.09 c 0.13 -0.09 1.57 -0.45 2.45 -0.61 l 0.34 -0.06 c -0.11 0.63 0.21 1.61 -0.16 2.16 c -0.51 0.3 -2.7 0.85 -2.86 0.59 m 12.52 -0.31 c 0 -0.31 0.18 -1.27 0.38 -2.06 c 0.13 -0.48 0.28 -0.55 1.89 -0.86 c 0.34 -0.07 0.72 -0.15 0.84 -0.19 c 0.17 -0.05 0.22 0 0.22 0.26 c -0.2 0.89 -0.41 1.86 -0.52 2.61 l -0.55 0.27 c -0.52 0.23 -2.26 0.54 -2.27 -0.03 m -16.58 -3.04 c 0.11 -0.11 1.36 -0.42 2.27 -0.56 c 0.44 -0.07 0.45 -0.06 0.52 0.41 c 0.11 0.64 0.1 1.43 -0.02 1.61 c -0.08 0.13 -2.15 0.66 -2.57 0.66 c -0.25 -0.66 -0.39 -1.36 -0.21 -2.11 m 12.79 1.67 c -0.5 0.04 -0.92 0.02 -0.96 -0.05 c 0.09 -0.61 -0.17 -2.11 0.41 -2.46 c 0.11 -0.05 0.75 -0.23 1.42 -0.38 c 1.37 -0.31 1.45 -0.28 1.35 0.47 c 0.01 0.96 0.27 1.73 0.46 2.68 c -0.92 0.02 -1.86 -0.32 -2.68 -0.27 m -16.46 -0.43 c -0.03 -0.05 -0.23 -0.99 -0.25 -1.52 c -0.05 -1.12 -0.2 -0.99 1.54 -1.38 c 0.66 -0.14 1 -0.18 1.09 -0.09 c 0.14 0.13 0.22 1.93 0.1 2.06 c -0.8 0.1 -1.63 1.14 -2.46 0.93 m 10.93 -1.11 c 0.14 -0.61 -0.11 -2.09 0.47 -2.34 c 0.46 -0.18 2.3 -0.52 2.48 -0.46 c 0.11 0.04 0.19 0.41 0.25 1.09 c 0.04 0.56 0.11 1.29 0.15 1.61 c 0.35 0.98 -3.34 0.09 -3.35 0.09 m -14.79 -0.58 c -0.11 -0.73 -0.11 -1.29 -0.14 -2.06 c 0.8 -0.17 1.63 -0.26 2.41 -0.5 c 0.54 0.61 0.37 1.33 0.37 2.15 c -0.83 0.25 -1.54 0.28 -2.37 0.45 c -0.11 0.04 -0.23 0.02 -0.27 -0.04 m 10.55 -0.51 l 0.07 -1.15 c -0.09 -1.4 2.86 -2.79 2.88 -1.25 c 0.01 0.85 0.26 1.61 0.26 2.44 c -1.07 -0.06 -2.24 -0.12 -3.21 -0.04 m 12.28 -0.86 c -0.04 -0.78 0.29 -1.43 0.3 -2.25 c 0 -0.4 -0.08 -0.37 1.64 -0.68 c 0.6 -0.11 1.12 -0.17 1.15 -0.14 c 0.04 0.04 0 0.5 -0.08 1.03 c -0.24 1.69 -0.2 1.61 -0.84 1.82 c -0.78 0.25 -2.07 0.38 -2.17 0.22 m -14 -0.41 c -0.79 -0.11 -1.43 -0.03 -2.22 0.04 c 0.07 -0.55 -0.23 -2.3 0.28 -2.42 c 1.32 -0.28 2.34 -0.44 2.42 -0.39 c 0.22 0.85 0.21 1.61 0.3 2.53 c 0.03 0.35 -0.14 0.41 -0.77 0.24 m 11.85 -0.73 c -0.86 -0.2 -1.67 0.02 -2.52 -0.22 c -0.07 -0.13 0.22 -2.27 0.34 -2.47 c 0.44 -0.25 1.05 -0.24 1.5 -0.33 c 1.34 -0.29 1.3 -0.3 1.3 0.58 c -0.01 0.84 0.24 1.59 0.37 2.41 c 0 0.17 -0.5 0.19 -0.98 0.03 m -17.91 -0.49 c -0.11 -0.93 -0.09 -2.09 0.04 -2.18 c 0.14 -0.11 1.82 -0.43 2.37 -0.46 c 0.58 0.52 0.46 1.84 0.58 2.7 h -1.5 c -0.82 0 -1.5 -0.03 -1.5 -0.06 m 10.96 -0.78 c 0.16 -0.77 -0.07 -1.81 0.32 -2.5 c 0.2 -0.18 2.38 -0.59 2.63 -0.49 c 0.27 0.82 0.24 1.98 0.36 2.69 c 0.08 0.43 0.07 0.46 -0.21 0.45 c -1.13 -0.22 -2 -0.21 -3.11 -0.15 m -11.99 -0.18 c -0.91 -0.14 -1.63 -0.1 -2.61 -0.1 c 0 -0.73 0 -1.47 0 -2.2 c 0.8 -0.13 1.6 -0.36 2.41 -0.45 c 0.36 0.35 0.65 3.16 0.19 2.74 m 10.64 -3.92 c 0.04 0.04 0.11 0.5 0.16 1.02 c 0.35 1.68 -5.09 -0.31 -0.16 -1.02 m -5.49 1.82 l -1.25 -0.04 c 0.07 -0.52 -0.23 -2.28 0.27 -2.39 c 1.43 -0.29 2.34 -0.43 2.42 -0.38 c 0.23 0.8 0.2 1.56 0.34 2.44 c 0.07 0.43 0.05 0.46 -0.22 0.43 c -0.16 -0.01 -0.86 -0.04 -1.54 -0.07 m 14.7 -0.04 c 0.11 -0.87 -0.04 -2.09 0.55 -2.75 c 0.45 -0.13 2.38 -0.34 2.44 -0.28 c 0.1 0.1 -0.21 2.45 -0.36 2.63 c -0.22 0.28 -2.5 0.63 -2.64 0.4 m -18.41 -0.95 l -1.27 -0.04 c 0.02 -0.78 -0.04 -1.57 0.03 -2.34 c 0.36 -0.07 2.31 -0.36 2.45 -0.36 c 0.34 0.34 0.55 2.79 0.29 2.81 c -0.56 -0.04 -1.04 -0.05 -1.5 -0.07 m 16.39 -0.03 c -0.85 -0.22 -1.89 0.07 -2.59 -0.28 c 0.09 -0.89 0.19 -1.56 0.31 -2.49 l 0.43 -0.08 c 1.19 -0.18 2.34 -0.77 2.34 0.41 c -0.01 0.84 0.24 1.59 0.37 2.41 c 0 0.17 -0.38 0.18 -0.86 0.03 m -10.94 -2.22 c 0.05 -0.81 0.04 -1.63 0.13 -2.43 c 0.84 -0.2 1.58 -0.26 2.47 -0.48 c 0.3 -0.07 0.32 -0.05 0.32 0.4 c 0 0.42 0.07 0.91 0.33 2.36 c 0.04 0.22 0.02 0.39 -0.04 0.39 c -1.13 -0.23 -2.08 -0.23 -3.21 -0.23 m -1.2 -0.82 c -0.92 -0.13 -1.63 -0.1 -2.62 -0.11 c 0 -0.82 0 -1.64 0 -2.46 l 1.05 -0.14 c 1.7 -0.24 1.53 -0.34 1.72 1.04 c 0.09 0.66 0.17 1.31 0.18 1.44 c 0.02 0.24 -0.18 0.39 -0.33 0.24 m 12.87 -0.58 c 0 -0.13 0.38 -2.73 0.41 -2.75 c 0.07 -0.07 2.57 -0.32 2.63 -0.27 c 0.06 0.05 -0.12 1.71 -0.27 2.52 c -0.04 0.2 -0.19 0.3 -0.6 0.4 c -0.49 0.12 -2.17 0.2 -2.17 0.1 m -4.36 -0.95 c 0.01 -0.94 0.12 -1.64 0.23 -2.64 c 0.9 -0.11 1.86 -0.4 2.64 -0.39 c 0.06 0.56 0.49 3.3 0.16 3.26 c -0.98 -0.32 -2.16 -0.11 -3 -0.24 m -1.75 -0.61 c -0.83 -0.2 -1.63 0.02 -2.45 -0.22 c -0.03 -0.94 0.04 -1.66 0.1 -2.66 c 0.84 -0.1 1.73 -0.39 2.56 -0.34 c 0.09 1.16 0.99 3.52 -0.22 3.22 m -6.42 -1.17 c -0.01 -0.84 -0.02 -1.68 -0.03 -2.51 c 0.74 -0.11 1.47 -0.23 2.21 -0.34 l 0.45 -0.07 c 0.09 0.8 0.11 1.63 0.28 2.42 c 0.11 0.52 0.07 0.7 -0.17 0.66 c -0.97 -0.07 -1.71 -0.11 -2.74 -0.16 m 11.47 -1.71 c -0.04 -0.11 0 -0.76 0.09 -1.45 l 0.17 -1.27 c 0.99 -0.2 1.74 -0.31 2.69 -0.32 c -0.21 0.94 -0.15 2.03 -0.43 2.79 c -0.63 0.27 -1.27 0.26 -1.98 0.37 c -0.35 0.05 -0.48 0.02 -0.54 -0.12 m -4.45 -0.84 c -0.02 -0.77 0.16 -1.61 0.19 -2.33 c 0.64 -0.71 1.36 -0.54 2.54 -0.66 c 0.29 0.84 0.2 1.67 0.37 2.61 l 0.09 0.51 l -1.57 -0.01 c -0.86 -0.01 -1.59 -0.06 -1.63 -0.11 m -2.95 -0.71 c -1.05 -0.07 -1.11 -0.09 -1.1 -0.35 c 0.02 -0.82 0.03 -1.48 0.05 -2.32 c 0.85 -0.07 1.72 -0.3 2.57 -0.25 c 0.8 2.93 0.48 3.05 -1.52 2.92 m 6.2 -2.68 c 0.1 -0.9 0 -2.03 0.27 -2.82 c 0.92 -0.15 1.64 -0.17 2.63 -0.23 l -0.08 0.91 c -0.15 1.65 -0.2 1.85 -0.5 1.96 c -0.42 0.16 -2.25 0.29 -2.32 0.17 m -4.31 -0.67 c 0.09 -0.9 0.05 -1.85 0.25 -2.72 c 0.07 -0.07 2 -0.35 2.44 -0.35 c 0.32 1 0.3 2.17 0.45 3.21 l -0.42 -0.03 c -0.96 -0.05 -1.74 -0.07 -2.72 -0.11" style="fill:#272727"/><path d="m 24.1 26.66 c 0 1.59 -1.31 2.89 -2.92 2.89 c -1.61 0 -2.92 -1.29 -2.92 -2.89 c 0 -1.6 1.31 -2.89 2.92 -2.89 c 1.61 0 2.92 1.29 2.92 2.89" style="fill:#4581b3"/><path d="m 22.99 22.59 c 0.04 -0.81 0.08 -1.63 0.12 -2.43 c 0.8 -0.15 2.52 -0.91 2.69 -0.07 c 0.14 0.72 0.34 2.69 0.27 2.65 c -1.09 -0.09 -1.91 -0.11 -3.07 -0.15" style="fill:#bb423f"/><g style="fill:#b9b918"><path d="m 6.44 30.3 c -0.22 -0.93 -0.3 -1.68 -0.43 -2.64 l 1.37 -0.33 c 0.75 -0.18 1.51 -0.26 1.69 -0.19 c 0.39 0.17 0.67 2.21 0.36 2.63 c -0.77 0.57 -1.7 0.41 -2.59 0.77 c -0.16 0.07 -0.34 -0.04 -0.41 -0.24"/><path d="m 30.41 35.59 c 0.1 -0.13 3.07 -1.09 3.35 -1.09 c 0.38 0.61 0.5 2.66 -0.12 3.08 c -0.34 0.21 -3.12 1.06 -3.48 1.06 c -0.05 -1.06 0.02 -1.95 0.25 -3.05"/></g></svg>