<svg xmlns="http://www.w3.org/2000/svg" viewBox="0 0 48 48"><path d="m 45.2 14.76 c 18.35 43 -59.5 44.72 -42.3 1.03 c 6.14 -17.73 32.87 -23.2 42.3 -1.03" style="fill:#b0dfe5"/><path d="m 12.86 38.78 c -0.64 -0.18 -1.13 -0.67 -1.3 -1.32 c -0.2 -0.77 -0.2 -22.3 0 -23.1 c 0.17 -0.66 0.66 -1.14 1.37 -1.32 c 2.82 -0.2 4.83 -0.14 7.84 -0.14 c -0.31 1.81 -0.25 2.36 -0.48 3.54 c -0.1 0.08 -1.18 0.14 -2.59 0.17 l -2.42 0.03 v 18.52 l 6.81 0.06 l 6.81 0.06 c -0.05 1.16 0.04 2.36 -0.11 3.51 c -0.09 0.15 -15.38 0.11 -15.94 -0.04 m 4.07 -4.47 c 0 -0.08 1.44 -1.39 1.58 -1.44 c 0.13 -0.05 1.29 0.78 1.54 1.08 c 0.09 0.11 0.13 0.25 0.09 0.3 c -0.07 0.11 -3.21 0.16 -3.21 0.05 m 3.8 -0.84 c 0.02 -0.95 0.05 -1.9 0.07 -2.85 c 1.05 -0.04 2.11 -0.03 3.16 -0.02 c 0.29 2.34 0.57 2.51 0.59 3.77 l -0.69 -0.02 c -1.23 -0.04 -2.09 -0.38 -3.13 -0.88 m 5.11 -2.91 c 0.98 0.1 2.27 -0.21 3.11 0.16 c 0.03 1.03 -0.06 1.82 -0.13 2.91 c -1.16 0.57 -2.56 0.7 -3.61 0.78 c -0.01 -1.13 0.43 -2.36 0.63 -3.84 m -9.7 1.53 c 0 -0.84 0.05 -1.55 0.11 -1.58 c 0.06 -0.04 0.2 0 0.32 0.09 c 0.31 0.23 1.17 1.37 1.12 1.48 c -0.05 0.13 -1.41 1.52 -1.49 1.52 c -0.03 0 -0.06 -0.68 -0.06 -1.51 m 3.22 0.56 l -0.39 -0.31 c 0.38 -0.36 0.75 -0.71 1.12 -1.07 v 0.85 c 0 0.96 -0.09 1.03 -0.72 0.54 m -1.77 -1.96 c 0 -0.08 0.36 -0.13 0.88 -0.13 h 0.88 c -0.36 0.35 -0.71 0.73 -1.11 1.02 c -0.3 -0.24 -0.51 -0.52 -0.66 -0.88 m -0.61 -0.92 c -0.36 -0.45 -0.71 -1.59 -0.79 -2.51 l -0.08 -1.02 h 3.99 l -0.04 1.81 l -0.04 1.81 l -1.46 0.04 c -1.07 0.02 -1.49 -0.01 -1.59 -0.13 m 6.95 -2.04 c 0.05 1.02 -0.01 1 -0.01 2.11 c -1.03 0 -1.43 0.09 -2.45 0.09 c 1.02 -0.96 1.41 -1.26 2.46 -2.2 m 2.05 -0.02 c 1 0.99 1.28 1.16 2.25 2.18 c -1.06 0.05 -1.2 0.08 -2.34 0.08 c 0 -0.99 0.09 -1.26 0.09 -2.25 m 3.78 2.12 c -0.05 -0.04 -0.08 -0.87 -0.08 -1.84 v -1.75 c 1.32 0 2.65 0 3.98 0 l -0.08 1.02 c -0.07 0.87 -0.45 2.14 -0.73 2.43 c -0.11 0.11 -2.98 0.25 -3.08 0.15 m 4.82 -0.1 c -0.03 -0.07 -0.06 -3.04 -0.08 -6.59 l -0.03 -6.47 l -2.42 -0.03 c -1.41 -0.02 -2.48 -0.09 -2.58 -0.17 c -0.04 -0.98 -0.17 -2.39 -0.48 -3.54 h 3.66 c 3.92 0 4.48 0.07 5.07 0.6 c 0.61 0.56 0.64 1.02 0.6 8.91 l -0.04 7.29 c -1.31 -0.16 -2.15 -0.02 -3.7 0 m -13.84 -2.03 v -1.46 h 3.08 l -1.5 1.46 c -0.83 0.8 -1.52 1.46 -1.54 1.46 c -0.02 0 -0.04 -0.66 -0.04 -1.46 m 6.7 0 l -1.5 -1.46 h 3.08 c -0.03 0.97 0.05 1.96 -0.04 2.92 c -0.02 0 -0.71 -0.66 -1.54 -1.46 m -11.25 -3.11 c 0.07 -0.92 0.43 -2.06 0.79 -2.51 c 0.09 -0.11 0.55 -0.16 1.47 -0.16 c 1.4 0 1.59 0.06 1.64 0.57 c 0.02 0.14 0.02 0.89 0.01 1.68 l -0.02 1.43 h -3.98 m 4.72 -2.16 c 0.52 0.52 2.88 1.54 2.94 2.05 c -1.2 0.18 -1.81 0.16 -3 0.11 c 0.01 -0.71 -0.04 -1.49 0.08 -2.16 m 8.1 0 c 0.05 0 0.09 0.48 0.09 1.08 v 1.08 c -1.02 0 -2.04 0 -3.05 0 c 0.82 -0.9 2.07 -1.61 2.96 -2.16 m 0.75 0.47 c 0 -1.14 0.05 -1.73 0.16 -1.84 c 0.22 -0.21 2.79 -0.21 2.96 0 c 0.36 0.45 0.71 1.59 0.79 2.51 l 0.08 1.01 c -1.32 0 -2.65 0 -3.98 0 m -13.45 -4.28 c -0.09 -0.09 -0.11 -3.08 -0.02 -3.08 c 0.08 0 1.44 1.39 1.49 1.52 c 0.05 0.14 -1 1.49 -1.22 1.57 c -0.1 0.04 -0.21 0.03 -0.25 -0.01 m 16.96 -0.07 c -0.31 -0.23 -1.16 -1.36 -1.12 -1.48 c 0.05 -0.13 1.41 -1.52 1.49 -1.52 c 0.11 0 0.05 3 -0.05 3.1 c -0.06 0.04 -0.21 0 -0.32 -0.09 m -15.59 -0.12 c 0.15 -0.38 0.38 -0.61 0.65 -0.92 c 0.38 0.36 0.75 0.72 1.12 1.08 c -0.55 -0.02 -1.37 0.09 -1.77 -0.16 m 13.92 -0.92 l 0.32 0.38 c 0.51 0.61 0.44 0.7 -0.55 0.7 h -0.88 c 0.37 -0.36 0.74 -0.72 1.11 -1.08 m -14.58 -2.67 c 0 -0.03 0.62 -0.05 1.38 -0.05 c 0.77 0 1.38 0.05 1.38 0.12 c 0 0.48 -0.73 1.39 -1.12 1.39 c -0.64 -0.43 -1.1 -0.87 -1.64 -1.46 m 13.1 0.07 c 0 -0.07 0.61 -0.12 1.38 -0.12 c 0.76 0 1.38 0.03 1.38 0.05 c 0 0.11 -1.52 1.46 -1.64 1.46 c -0.52 -0.21 -1.09 -0.82 -1.11 -1.39" style="fill:#3381e2"/><g style="fill:#ffd600"><path d="m 24.96 15.87 c 0.41 -0.01 0.74 3.73 0.73 8.36 c -0.02 4.63 -0.36 8.39 -0.77 8.4 c -0.41 0.02 -0.73 -3.73 -0.72 -8.36 c 0.01 -4.63 0.36 -8.39 0.77 -8.4" style="fill-opacity:0.99"/><path d="m 27.55 8.93 c -0.5 0.52 -1.61 0.88 -2.9 0.86 c -1.29 -0.02 -2.42 -0.39 -2.96 -0.93 l -0.5 9.56 c 0 0 0 0 0 0 v 0.03 h 0.03 c 0.63 0.72 2.1 1.24 3.79 1.26 c 1.69 0.02 3.12 -0.47 3.7 -1.17 h 0.04 l -1.2 -9.62"/><path d="m 24.77 17.1 c -3.1 0.1 -5.63 1.63 -5.76 3.45 c -0.02 0.08 -0.03 0.16 -0.03 0.24 c 0 1.51 2.57 2.65 5.76 2.55 c 3.19 -0.1 5.78 -1.4 5.79 -2.91 c 0 -0.08 -0.02 -0.16 -0.03 -0.25 c -0.12 -1.81 -2.64 -3.18 -5.73 -3.09"/><path d="m 28.74 8.41 c 0 1.07 -1.9 1.96 -4.25 2 c -2.35 0.03 -4.26 -0.81 -4.26 -1.88 c 0 -1.07 1.9 -1.96 4.25 -2 c 2.35 -0.03 4.26 0.81 4.26 1.88"/></g><path d="m 29.43 34.57 v -4.38 h 4.3 c 2.36 0 4.29 0.02 4.29 0.05 c 0 0.03 -1.6 1.66 -3.56 3.63 c -1.96 1.97 -3.89 3.92 -4.3 4.33 l -0.73 0.75" style="fill:#eff8ff"/></svg>