<svg xmlns="http://www.w3.org/2000/svg" viewBox="0 0 48 48"><path d="m 1.27 29.64 c 14.73 44.61 73.5 -3.28 31.98 -25.95 c -16.22 -9.71 -39.58 3 -31.98 25.95" style="fill:#336790"/><path d="m 25.1 23.48 h 4.42 c 2.77 0 5 1.13 5 2.51 v 8.63 c 0 1.39 -2.25 2.52 -5 2.52 h -4.42 c -2.77 0 -5 -1.13 -5 -2.52 v -8.63 c 0 -1.39 2.25 -2.51 5 -2.51" style="fill:#92b9d7"/><path d="m 21.2 36.4 c -0.33 -0.13 -1.54 -0.58 -1.27 -1.07 c 0.08 -0.12 0.19 -0.09 0.54 0.18 c 1.73 1.28 6.9 1.79 10.84 1.07 c 1.32 -0.24 2.52 -0.64 3.11 -1.05 c 0.37 -0.25 0.45 -0.27 0.45 -0.07 c 0 0.47 -1.81 1.34 -3.39 1.63 c -0.58 0.11 -3.88 0.42 -4.2 0.41 c -2.02 -0.18 -4.42 -0.38 -6.09 -1.09 m -9.15 -1.6 c 0.06 -1.08 -0.14 -2.85 0.04 -3.66 c 0.67 0.03 1.99 0 3.65 0 c 2.6 0 3.05 0.02 3.21 0.17 c 0.23 1.17 0.37 2 0.11 3.39 c -0.06 0.15 -0.46 0.18 -3.31 0.18 c -1.79 0 -3.09 -0.04 -3.7 -0.07 m 13.46 -2 c -3.47 -0.33 -5.69 -1.16 -5.69 -2.13 c 0 -0.38 0.1 -0.38 0.68 -0.01 c 0.67 0.43 2 0.87 3.46 1.12 c 1.5 0.26 5.36 0.26 6.87 0 c 1.4 -0.24 2.48 -0.56 3.21 -0.96 c 0.78 -0.41 0.88 -0.41 0.79 0.03 c -0.1 0.46 -0.24 0.61 -0.87 0.91 c -2.79 0.86 -5.88 1.26 -8.45 1.04 m -13.43 -2.39 c -0.06 -1.21 -0.02 -2.14 0.01 -3.43 l 3.58 0.04 c 2.54 0.02 3.29 0 3.36 0.11 c 0.11 0.16 0.13 3.05 0.03 3.31 c -0.06 0.15 -0.46 0.17 -3.34 0.17 c -2.57 0 -3 -0.16 -3.64 -0.2 m 13.6 -2.49 c -3.14 -0.24 -5.58 -1.07 -5.82 -1.97 c -0.45 -1.7 2.64 -2.9 7.45 -2.9 c 3.9 0 6.75 0.74 7.43 1.95 c 0.2 0.36 0.16 1.06 -0.09 1.36 c -0.44 0.53 -1.79 1.02 -3.75 1.36 c -0.9 0.16 -4.21 0.29 -5.23 0.21 m -13.51 -1.57 c -0.16 -1.41 -0.08 -3.59 -0.08 -3.59 l 3.52 -0.03 c 2.27 -0.02 3.25 0 3.36 0.09 c 0.21 0.17 0.23 3.28 0.02 3.48 c -0.16 0.15 -6.57 0.19 -6.82 0.04 m 0 -4.33 c 0.07 -1.07 -0.33 -2.4 0.11 -3.4 c 1.84 -0.02 5.06 0.05 6.71 -0.06 c 0.19 0.18 0.19 3.29 0 3.47 c -2.66 -0.02 -4.16 0.14 -6.82 -0.01 m 0.09 -4.16 c -0.2 -0.19 -0.2 -3.61 0 -3.8 c 0.1 -0.09 1.04 -0.13 3.5 -0.13 c 3.21 0 3.37 0.01 3.48 0.21 c 0.16 0.28 0.16 3.36 0 3.64 c -0.11 0.2 -0.27 0.21 -3.48 0.21 c -2.46 0 -3.4 -0.04 -3.5 -0.13 m 7.58 -0.11 c -0.14 -0.71 -0.34 -3.37 0.09 -3.6 c 0.14 -0.07 2.57 -0.11 7.1 -0.11 c 6.69 0 6.85 0 7.1 0.22 c 0.23 0.81 -0.02 1.79 0.05 3.38 l -0.18 0.24 h -6.98 c -5.27 0 -7 -0.03 -7.12 -0.13" style="fill:#fff"/><path d="m 20.2 18.54 h 13.79 c 0.3 0 0.54 0.82 0.54 1.84 c 0 1.02 -0.24 1.84 -0.54 1.84 h -13.79 c -0.3 0 -0.54 -0.82 -0.54 -1.84 c 0 -1.02 0.24 -1.84 0.54 -1.84" style="fill:#92b9d7"/></svg>