<svg xmlns="http://www.w3.org/2000/svg" viewBox="0 0 48 48"><path d="m 7.24 9 c -29.94 42.56 47.95 56.1 40.2 10.88 c -4.09 -17.98 -28.2 -27.94 -40.2 -10.88" style="fill:#2e3436"/><path d="m 39.2 25.3 c 0 8.3 -6.73 15 -15 15 c -8.29 0 -15 -6.73 -15 -15 c 0 -8.3 6.73 -15 15 -15 c 8.3 0 15 6.73 15 15" style="fill:#1970d6"/><path d="m 21.76 40.3 c -5.16 -0.87 -9.62 -4.47 -11.54 -9.32 c -0.38 -1.21 -1.66 -5.52 -0.87 -6 c 0.42 -0.28 1.77 -0.5 3.47 -0.57 c 1.48 -0.06 1.61 -0.09 2.57 -0.49 c 3.27 -1.38 5.63 -3.56 7 -6.5 c 0.58 -0.86 0.48 -1.69 0.48 -2.69 c 0.01 -2.24 0.34 -4.05 0.8 -4.29 c 0.29 -0.16 2.65 0.05 3.89 0.34 c 5.1 1.18 9.22 5 10.86 10 c 0.45 1.37 0.62 2.32 0.69 3.88 c 0.06 1.44 0.06 1.47 -0.18 1.6 c -0.5 0.27 -2.36 0.56 -3.58 0.56 c -1.09 0 -1.3 0.03 -2.08 0.34 c -2.73 1.08 -5.1 2.84 -6.42 4.88 c -1 1.4 -1.58 3 -1.61 4.53 c -0.03 1.52 -0.22 3 -0.46 3.65 c -0.75 0.6 -1.82 0.34 -3.05 0.14" style="fill:#fff"/></svg>