<svg xmlns="http://www.w3.org/2000/svg" viewBox="0 0 48 48"><path d="m 2 28.43 c 4.78 32 53.94 21.1 44.64 -9.9 c -6.24 -29.44 -56.5 -21.47 -44.64 9.9" style="fill:#211e1f"/><g style="fill:#fff"><path d="m 14.36 12.44 h 4.06 v 4.05 h -4.06"/><path d="m 19.1 12.51 h 4.06 v 4.05 h -4.06"/><path d="m 24 12.4 h 4.06 v 4.06 h -4.06"/><path d="m 28.77 12.46 h 4.06 v 4.06 h -4.06"/><path d="m 28.86 17.43 h 4.06 v 4.05 h -4.06"/><path d="m 28.86 22.35 h 4.06 v 4.05 h -4.06"/><path d="m 28.93 27.1 h 4.06 v 4.06 h -4.06"/><path d="m 28.86 32.1 h 4.06 v 4.06 h -4.06"/><path d="m 14.36 32.1 h 4.06 v 4.06 h -4.06"/></g><path d="m 14.29 27.1 h 4.06 v 4.06 h -4.06" style="fill:#e54203"/><g style="fill:#fff"><path d="m 14.23 22.2 h 4.06 v 4.06 h -4.06"/><path d="m 14.23 17.36 h 4.06 v 4.05 h -4.06"/></g><path d="m 19.1 27.1 h 4.06 v 4.05 h -4.06" style="fill:#23e03e"/><path d="m 24.1 27.1 h 4.06 v 4.06 h -4.06" style="fill:#2f2de6"/><path d="m 17.1 27.1 h 1.26 v 4.06 h -1.26" style="fill:#ffd600"/><path d="m 26.89 27.1 h 1.26 v 4.05 h -1.26" style="fill:#9370db"/><path d="m 21.83 27.1 h 1.31 v 4.05 h -1.31" style="fill:#00ced0"/></svg>