<svg xmlns="http://www.w3.org/2000/svg" viewBox="0 0 48 48"><path d="m 8.35 9.1 c 19.43 -25.2 54.5 8.76 32.1 31.1 c -19.28 22.37 -56.68 -9.6 -32.1 -31.1" style="fill:#d7bfd7"/><path d="m 20.95 35 c -1.92 -0.36 -3.74 -0.93 -4.11 -1.3 l -0.35 -0.35 h -6.9 v -0.99 l 1.06 -0.04 l 1.06 -0.04 v -14.88 l -1.06 -0.04 l -1.06 -0.04 v -1 l 4.37 0.01 h 4.37 l 0.65 -0.43 c 0.36 -0.24 1.06 -0.58 1.55 -0.76 c 2.65 -0.5 5 -0.57 7.75 0 c 2.17 0.47 2.46 0.56 2.74 0.88 c 0.24 0.27 0.42 0.29 4.27 0.29 h 4 v 0.99 l -1.06 0.04 l -1.06 0.04 v 14.88 l 1.06 0.04 l 1.06 0.04 v 1 h -4.4 c -4.11 -0.01 -4.42 0 -4.69 0.25 c -0.52 0.47 -1 0.74 -2.1 1.13 c -2.52 0.5 -4.47 0.71 -7.16 0.27 m -4.3 -2.83 c 0.05 -0.09 0.09 -0.76 0.07 -1.48 c -0.04 -1.5 0.1 -1.78 0.86 -1.78 c 0.59 0 0.86 0.24 1.03 0.93 c 0.2 0.78 0.9 2.02 1.3 2.29 c 0.24 0.17 0.61 0.21 1.4 0.18 l 1.08 -0.04 l 0.04 -2.61 c 0.04 -2.98 0.1 -2.84 -1.27 -3.18 c -1.07 -0.27 -2.59 -1.07 -3.26 -1.71 c -0.91 -0.88 -1.23 -1.77 -1.3 -3.59 c -0.05 -1.34 -0.02 -1.63 0.3 -2.59 c 0.2 -0.59 0.36 -1.13 0.36 -1.18 c 0 -0.06 -0.32 -0.09 -0.72 -0.06 l -0.72 0.04 l -0.04 7.3 c -0.02 4 0 7.38 0.03 7.48 c 0.08 0.23 0.71 0.23 0.84 0.01 m 10.73 0.03 c 0.58 -0.32 0.76 -2.29 0.29 -3.11 c -0.31 -0.53 -0.89 -0.97 -1.09 -0.84 c -0.16 0.1 -0.21 3.83 -0.05 3.99 c 0.14 0.14 0.57 0.12 0.86 -0.05 m 5.69 -7.37 v -7.44 l -0.88 -0.04 c -0.48 -0.02 -0.94 0.02 -1.02 0.11 c -0.08 0.09 -0.13 0.66 -0.11 1.35 c 0.04 1.38 -0.11 1.66 -0.88 1.66 c -0.51 0 -1.02 -0.41 -1.02 -0.82 c 0 -0.41 -0.78 -1.7 -1.23 -2.04 c -0.51 -0.32 -0.88 -0.27 -1.44 -0.22 l -0.04 2.67 l -0.04 2.66 c 0.42 0.17 0.84 0.38 1.28 0.46 c 0.3 0 2.17 0.99 2.61 1.38 c 1.21 1.07 1.73 2.47 1.72 4.61 c 0 0.93 -0.09 1.64 -0.25 2.17 c -0.14 0.43 -0.22 0.84 -0.19 0.9 c 0.51 0.14 0.93 0.06 1.48 0.03 m -10.68 -12.81 v -2.07 l -0.63 -0.04 c -1.25 -0.05 -1.36 1.23 -1.33 1.9 c 0.05 1.14 0.29 1.59 1.07 2.07 c 0.86 0.53 0.89 0.47 0.89 -1.85" style="fill:#e03737"/><path d="m 21.4 34.3 c -1.51 -0.27 -3.58 -0.84 -3.83 -1.07 c -0.2 -0.18 -0.23 -0.47 -0.23 -2.16 c 0 -2.17 0.06 -2.35 0.83 -2.35 c 0.57 0 0.82 0.22 0.99 0.85 c 0.46 1.76 1.79 2.81 4 3.19 c 1.17 0.2 1.33 0.2 2.33 -0.01 c 1.83 -0.38 2.6 -1.16 2.6 -2.63 c 0 -1.61 -0.5 -1.99 -3.92 -2.9 c -2.9 -0.77 -3.22 -0.88 -4.18 -1.32 c -1.17 -0.54 -2.03 -1.31 -2.43 -2.2 c -0.27 -0.6 -0.31 -0.88 -0.31 -2.32 c 0 -1.49 0.03 -1.71 0.36 -2.48 c 0.2 -0.46 0.49 -0.99 0.66 -1.17 c 0.48 -0.53 1.77 -1.3 2.7 -1.62 c 0.8 -0.28 1.1 -0.3 3.45 -0.3 c 2.29 0 2.75 0.04 4.34 0.37 c 0.98 0.2 1.91 0.45 2.07 0.55 c 0.27 0.18 0.29 0.27 0.29 2 c 0 2.03 -0.07 2.23 -0.79 2.23 c -0.6 0 -0.88 -0.21 -1.03 -0.78 c -0.41 -1.52 -1.68 -2.46 -3.72 -2.77 c -1.9 -0.28 -3.57 0.13 -4.36 1.07 c -0.33 0.39 -0.36 0.5 -0.31 1.35 c 0.06 1.08 0.3 1.5 1.1 1.89 c 0.53 0.26 2.27 0.77 3.62 1.07 c 1.07 0.23 2.92 0.86 3.71 1.26 c 1.92 0.96 2.73 2.4 2.73 4.83 c 0 2.79 -1.04 4.2 -3.78 5.14 c -0.95 0.32 -1.21 0.36 -3.45 0.39 c -1.59 0.02 -2.78 -0.03 -3.42 -0.14" style="fill:#040303"/></svg>