<svg xmlns="http://www.w3.org/2000/svg" viewBox="0 0 48 48"><path d="m 2 19.49 c 4.78 -32 53.94 -21.1 44.64 9.9 c -6.24 29.44 -56.5 21.47 -44.64 -9.9" style="fill:#cd86de"/><path d="m 21 37.66 c -3.79 -0.68 -7.56 -3.41 -9.51 -6.88 c -1.81 -2.96 -2.08 -7.18 -1.36 -10.29 c 1.13 -4.76 5.06 -8.75 9.96 -10.1 c 2.97 -0.74 6.67 -0.34 9.11 0.61 c 3.11 1.3 5.87 3.95 7.31 7 c 1.7 4.09 1.53 8.63 -0.18 12.1 c -1.93 3.88 -5.77 6.8 -9.89 7.52 c -2.33 0.27 -3.84 0.24 -5.45 0 m 4.33 -8.1 c 1 -0.27 1.78 -0.72 2.59 -1.53 c 1.21 -1.2 1.7 -2.39 1.7 -4.14 c 0 -1.76 -0.48 -2.95 -1.69 -4.15 c -1.2 -1.2 -2.4 -1.68 -4.17 -1.68 c -1.64 0 -2.88 0.46 -4 1.5 c -1.27 1.16 -1.85 2.51 -1.85 4.26 c 0 1.84 0.47 3 1.69 4.21 c 1.56 1.52 3.79 1.97 5.74 1.53 m -2.39 -1.68 c -1.21 -0.27 -2.31 -1.14 -2.87 -2.29 c -0.51 -1.17 -0.46 -2.43 0 -3.4 c 0.42 -0.87 1.21 -1.64 2.08 -2.03 c 1.07 -0.38 2.24 -0.44 3.2 -0.01 c 0.89 0.41 1.68 1.17 2.1 2.03 c 0.47 1.13 0.52 2.29 0.06 3.32 c -0.37 0.82 -1.31 1.75 -2.1 2.1 c -0.79 0.21 -1.7 0.43 -2.46 0.28 m 1.6 -2.29 c 0.52 -0.23 0.87 -0.64 1.04 -1.21 c 0.45 -1.49 -1.23 -2.89 -2.62 -2.19 c -0.96 0.48 -1.34 1.45 -0.95 2.38 c 0.46 1.04 1.64 1.41 2.52 1.02" style="fill:#fff"/></svg>