<svg xmlns="http://www.w3.org/2000/svg" viewBox="0 0 48 48"><path d="m 44.3 34.1 c 13.81 -19.2 -14.16 -43.3 -33.78 -30.2 c -19.82 13.3 -10.1 49 15.46 43.1 c 7.6 -1.76 13.81 -6.66 18.31 -12.92" style="fill:#260022"/><path d="m 10.94 39.1 c -0.38 -0.19 -1.55 -1.74 -1.96 -2.61 c -0.65 -1.84 -1.35 -4.39 -0.54 -5.63 c 0.3 -0.45 1.08 -1.36 1.73 -2.02 c 1.38 -1.4 2.92 -3.65 2.86 -4.18 c -0.08 -0.73 -0.83 -1.32 -2.5 -1.95 c -2.04 -0.77 -2.2 -0.98 -2.1 -2.69 c 0.09 -1.58 0.39 -3.64 0.61 -4.2 c 0.21 -0.54 1.36 -1.47 2.28 -1.84 c 1.67 -0.69 3.97 0.6 5 2.8 c 0.2 0.41 0.38 0.72 0.4 0.69 c 0.03 -0.03 0.11 -0.54 0.18 -1.14 c 0.25 -2 1.16 -3.56 2.46 -4.44 c 1.38 -0.93 2.93 -1.31 4.94 -0.59 c 1.53 0.54 2.51 1.47 3.46 3.65 c 0.26 0.6 0.5 1.09 0.52 1.09 c 0.02 0 0.15 -0.44 0.29 -0.96 c 0.31 -1.23 1.12 -2.35 2.19 -3 c 1.06 -0.66 1.61 -0.72 2.78 -0.32 c 1.72 0.59 2.19 1.27 3.18 4.57 c 0.5 1.67 0.52 1.74 0.29 2.23 c -0.17 0.36 -0.64 0.76 -1.66 1.39 c -1.26 0.79 -1.45 0.96 -1.68 1.59 c -0.16 0.43 -0.21 0.84 -0.12 1.07 c 0.2 0.54 2.29 2.38 3.7 3.26 c 0.67 0.42 1.52 1.05 1.88 1.39 c 1.21 1.46 0.97 3.48 1.18 5.34 l -0.66 1.49 c -0.36 0.82 -0.76 1.59 -0.87 1.7 c -0.32 0.32 -0.87 0.32 -2.16 0 c -2.86 -0.71 -2.88 -2.46 -0.03 -4.86 c 0.47 -0.39 0.85 -0.78 0.84 -0.85 c -0.01 -0.07 -0.34 -0.14 -0.73 -0.16 c -1.29 -0.04 -1.68 -0.72 -1.25 -2.12 c 0.16 -0.53 0.27 -0.98 0.23 -1 c -0.03 -0.03 -0.36 0.18 -0.73 0.45 l -0.68 0.49 l -0.63 -0.61 c -1.18 -1.14 -1.6 -1.63 -2.18 -2.5 c -0.36 -0.54 -0.6 -0.78 -0.64 -0.63 c -0.46 1.9 -0.56 2.13 -1.25 2.83 c -0.39 0.4 -0.96 1.24 -1.27 1.86 c -0.78 1.59 -1.45 2.37 -2.41 2.84 c -1.14 0.57 -2.33 0.67 -3.65 0.32 c -1.24 -0.33 -1.51 -0.53 -2.59 -1.92 c -0.44 -0.56 -1.3 -1.39 -1.92 -1.84 c -1.04 -0.76 -1.14 -0.89 -1.43 -1.78 c -0.32 -1.03 -0.51 -1.18 -0.61 -0.5 c -0.07 0.49 -1.06 2.47 -1.77 3.54 l -0.48 0.73 l -0.66 -0.28 c -0.36 -0.15 -0.7 -0.22 -0.75 -0.16 c -0.05 0.07 0.05 0.39 0.23 0.73 c 0.38 0.7 0.48 1.27 0.29 1.72 c -0.14 0.34 -1 0.74 -1.78 0.83 c -0.44 0.05 -0.36 0.11 0.81 0.68 c 1.65 0.8 2.4 1.39 2.6 2.04 c 0.21 0.7 0.02 2.02 -0.37 2.54 c -0.44 0.58 -2.33 1.2 -2.86 0.94 m 0.86 -7.9 c -0.04 -0.39 -0.11 -0.46 -0.46 -0.42 c -0.22 0.02 -0.44 0.16 -0.47 0.29 c -0.09 0.32 -0.01 0.71 0.68 0.63 c 0.23 -0.02 0.29 -0.15 0.25 -0.5 m 25.1 -2.58 c 0.23 -0.34 -0.04 -0.73 -0.46 -0.68 c -0.36 0.04 -0.54 0.42 -0.36 0.8 c 0.12 0.25 0.63 0.18 0.82 -0.11 m -18.95 -6.64 c -0.04 -0.32 -0.09 -0.79 -0.11 -1.04 c -0.02 -0.26 -0.67 -2.49 -0.89 -2.66 c -0.41 -0.34 0.14 1.95 -0.27 3.11 c 0.04 0.66 0.18 0.44 0.54 0.88 c 0.47 0.55 0.8 0.42 0.72 -0.29 m 11.39 -1.6 c 0.18 -0.27 -0.82 -3.76 -0.91 -3.55 c -0.3 0.75 -0.53 2.17 -0.47 3.59 c 0.08 0.83 0.15 1 0.36 0.98 c 0.14 -0.02 0.93 -0.89 1.02 -1.02" style="fill:#78afde"/><g style="fill:#260022"><path d="m 21.2 26.38 c -1.29 -0.25 -1.95 -0.63 -2.71 -1.51 c -0.27 -0.32 -0.87 -0.93 -1.33 -1.35 c -0.46 -0.43 -0.81 -0.79 -0.79 -0.82 c 0.07 -0.08 0.61 0.11 1.05 0.38 c 0.23 0.14 0.84 0.65 1.36 1.14 c 1.17 1.1 1.45 1.29 2.47 1.7 c 0.44 0.18 2.47 0.46 2.48 0.54 c 0.02 0.18 -1.64 0.1 -2.53 -0.07"/><path d="m 23.43 26.55 c -0.09 -0.11 1.46 -0.68 2 -1.04 c 0.69 -0.44 1.14 -0.93 1.87 -1.99 c 0.85 -1.25 1.34 -1.82 1.79 -2.06 c 0.2 -0.11 0.39 -0.18 0.41 -0.16 c 0.02 0.02 -0.2 0.36 -0.48 0.77 c -0.29 0.41 -0.75 1.14 -1.02 1.62 c -0.71 1.29 -1.11 1.68 -2.41 2.27 c -0.86 0.39 -2.09 0.7 -2.18 0.6"/><path d="m 26.82 20.72 c 0.23 2.09 -1.29 3.96 -3.39 4.2 c -2.11 0.24 -4 -1.26 -4.23 -3.34 c -0.23 -2.09 1.29 -3.97 3.39 -4.21 c 2.11 -0.24 4 1.26 4.23 3.34"/></g><path d="m 25.1 21 c 0.13 1.12 -0.69 2.14 -1.82 2.27 c -1.13 0.13 -2.14 -0.68 -2.27 -1.8 c -0.13 -1.13 0.69 -2.14 1.82 -2.27 c 1.13 -0.13 2.15 0.68 2.27 1.8" style="fill:#b0dede"/><g style="fill:#4c529c"><path d="m 9.5 20.22 c 0.41 -0.22 0.32 -0.52 0.99 -0.09 c 0.45 0.29 1 0.71 1.97 1.01 c 0.8 0.23 0.02 0.8 -0.69 0.67 c -0.46 -0.09 -1.53 -0.44 -2.15 -0.68 c -0.73 -0.29 -0.29 -0.5 -0.33 -0.66 c 0.05 -0.18 0.08 -0.19 0.21 -0.26"/><path d="m 35.98 17.59 c -0.45 -0.12 -0.43 -0.43 -0.98 0.14 c -0.38 0.39 -0.82 0.92 -1.7 1.43 c -0.72 0.41 0.15 0.79 0.82 0.5 c 0.43 -0.19 1.39 -0.77 1.95 -1.15 c 0.65 -0.45 0.18 -0.55 0.18 -0.71 c -0.09 -0.16 -0.12 -0.17 -0.26 -0.21"/></g><g style="fill:#d2ffde"><path d="m 19.1 13.58 c 0.58 -1.04 1.76 -1.86 2.84 -1.98 c 1.09 -0.13 2.41 0.41 3.21 1.3 l 0.49 0.55 c -3.17 -0.46 -3.86 0.08 -6.91 0.78"/><path d="m 22.1 29.69 c 0.53 0.91 1.38 1.5 2.05 1.43 c 0.67 -0.07 1.38 -0.84 1.69 -1.85 l 0.2 -0.63 c -1.82 1.03 -2.16 1.31 -4.27 0.48"/><path d="m 10.1 16.2 c 0.37 -0.82 1.15 -1.46 1.88 -1.54 c 0.73 -0.08 1.63 0.37 2.17 1.09 l 0.34 0.45 c -2.14 -0.42 -2.59 0.01 -4.63 0.52"/><path d="m 30.2 13.61 c 0.38 -0.82 1.15 -1.46 1.88 -1.54 c 0.73 -0.08 1.63 0.37 2.17 1.09 l 0.34 0.45 c -2.14 -0.42 -2.59 0.01 -4.63 0.52"/></g><path d="m 18.96 27.35 c 1.16 0.84 3.18 1.3 4.86 1.11 c 1.68 -0.19 3.54 -1.09 4.49 -2.17 l 0.6 -0.68 c -5.15 2.66 -5.88 2.19 -10.68 1.21" style="fill:#4c529c"/><g style="fill:#4b4c95"><path d="m 26.45 13.95 c 0.77 0.64 1.15 1.46 0.92 1.98 c -0.23 0.52 -1.14 0.95 -2.19 0.91 l -1.28 -0.06 c 1.42 -1.21 1.75 -1.64 2.07 -3.23"/><path d="m 18.1 14.99 c -0.61 0.8 -0.8 1.68 -0.46 2.14 c 0.34 0.45 1.34 0.75 2.34 0.39 l 1.09 -0.39 c -1.65 -0.86 -1.92 -1.16 -2.58 -2.63"/><path d="m 15.28 17.2 c 0.77 0.64 1.15 1.46 0.92 1.98 c -0.23 0.52 -1.14 0.96 -2.2 0.91 l -1.28 -0.06 c 1.42 -1.2 1.75 -1.64 2.07 -3.23"/><path d="m 29.63 15 c -0.61 0.8 -0.8 1.68 -0.46 2.14 c 0.34 0.45 1.32 0.68 2.34 0.39 l 1.23 -0.34 c -1.65 -0.86 -2.07 -1.21 -2.72 -2.69"/></g></svg>