<svg xmlns="http://www.w3.org/2000/svg" viewBox="0 0 48 48"><path d="m 39.6 7.1 c 37.84 49.82 -66.3 56.89 -32.89 6 c 7.62 -11.59 22.86 -19.25 32.89 -6" style="fill:#1693d0"/><path d="m 9 36.55 c 0.01 -0.07 0.37 -0.63 0.8 -1.25 c 3.13 -4.61 5.85 -8.71 8.65 -13.2 c 1.65 -2.64 2.3 -3.59 2.44 -3.59 c 0.04 0 0.42 0.22 0.84 0.49 c 1.52 0.98 2.26 1.3 2.29 0.98 c 0.01 -0.07 -0.6 -0.7 -1.35 -1.39 c -0.75 -0.69 -1.36 -1.28 -1.36 -1.31 c 0.18 -0.3 0.38 -0.52 0.56 -0.82 c 1.2 -2.14 2.15 -3.98 3.5 -6.5 c 0.19 -0.17 0.5 0.26 0.64 0.89 c 0.46 1.97 3.89 10.52 6.52 16.25 c 0.75 1.63 1.35 3.05 1.34 3.15 c -0.03 0.29 -0.38 0.23 -1.54 -0.29 c -1.01 -0.46 -1.47 -0.38 -1.48 -0.2 c -0.02 0.19 1.27 0.86 2.54 1.71 c 1.82 1.22 1.88 1.57 2.78 3.55 c 0.86 1.89 0.84 1.96 -0.45 1.2 c -1.95 -1.15 -4.24 -2.2 -7.15 -3.28 c -1.06 -0.39 -1.96 -0.75 -2 -0.79 c 0.55 -2.16 0.19 -4.54 -0.95 -5.93 c -0.97 -0.96 -2.22 -1.05 -3.14 -0.09 c -1.91 1.84 -2.12 3.38 -2.38 5.82 l -0.04 0.34 l -1.46 0.45 c -2.83 0.88 -6.82 2.53 -8.73 3.61 c -0.6 0.34 -0.89 0.41 -0.87 0.2 m 23.2 -4.84 c -1.76 -1.22 -2.86 -2.16 -2.84 -2.43 c 0.02 -0.23 0.26 -0.45 0.55 -0.52 c 0.18 -0.04 0.69 -0.09 1.14 -0.13 c 1.03 -0.07 1.07 -0.16 0.52 -1.15 c -0.39 -0.7 -4.72 -11.16 -5.71 -13.8 c -0.3 -0.81 -0.56 -1.34 -0.63 -1.32 c -1.08 1.71 -1.64 3 -2.64 4.54 l 0.22 0.29 c 0.12 0.16 0.58 0.71 1.03 1.25 c 1.5 1.79 1.65 2.13 1.02 2.42 c -0.23 0.11 -0.4 0.11 -0.86 0.02 c -0.56 -0.11 -1.87 -0.69 -2.36 -1.05 c -0.14 -0.11 -0.32 -0.16 -0.4 -0.13 c -0.09 0.03 -0.42 0.49 -0.75 1.02 c -1.5 2.41 -3.06 4.81 -4.55 7.14 c -0.91 1.42 -2.18 3.34 -2.82 4.28 c -0.64 0.93 -1.18 1.75 -1.18 1.8 c 2.03 -0.65 3 -1.09 5 -1.85 c 0.8 -0.3 1.49 -0.61 1.62 -0.74 c 0.17 -0.17 0.26 -0.41 0.37 -0.96 c 0.3 -1.58 1.58 -4 2.58 -4.96 c 1.21 -0.94 2.6 -1.31 3.67 -0.77 c 1.16 0.61 1.66 1.21 2.27 2.72 c 0.39 0.97 0.48 1.47 0.5 2.83 c 0.02 0.67 0.06 1.25 0.1 1.29 c 0.04 0.04 0.59 0.25 1.21 0.48 c 0.63 0.23 2.03 0.85 3.13 1.38 c 1.32 0.63 2.82 1.39 2.63 1.13 c -0.67 -1.7 -2.13 -2.25 -2.83 -2.73"/></svg>