<svg xmlns="http://www.w3.org/2000/svg" viewBox="0 0 48 48"><path d="m 41.1 9 c 29.95 42.56 -47.94 56.1 -40.2 10.88 c 4.1 -17.98 28.2 -27.94 40.2 -10.88" style="fill:#262626"/><path d="m 39.95 24.9 c 0 8.71 -7 15.78 -15.67 15.78 c -8.65 0 -15.67 -7.1 -15.67 -15.78 c 0 -8.71 7 -15.78 15.67 -15.78 c 8.66 0 15.67 7.1 15.67 15.78" style="fill:#fbca00;fill-rule:evenodd"/><g style="fill:#262626"><path d="m 16.63 13.21 v 23.76 l 2.42 -2.11 v -19.71"/><path d="m 14.27 18.49 v 13.48 l -2.44 -2.22 v -9.18"/><path d="m 21.36 11.19 v 12.41 h 8.11 l 6.74 -5.45 l -1.45 -1.9 l -6 4.78 h -4.97 v -9.84"/><path d="m 26 11.5 v 7.57 h 2.12 l 5 -4.28 l -1.98 -1.52 l -2.77 2.2 v -3.41"/><path d="m 36.63 20.77 l -4.83 4.13 l 4.83 4.09 l 1.52 -1.91 l -2.59 -2.18 l 2.53 -2.24"/><path d="m 21.36 26.32 v 12.27 h 2.39 v -9.8 h 5.09 l 5.82 4.7 l 1.56 -1.87 l -6.66 -5.36"/><path d="m 26.1 31.1 v 7.45 l 2.39 -0.64 v -3.33 l 2.65 2.2 l 1.99 -1.54 l -5.08 -4.16"/></g></svg>