<svg xmlns="http://www.w3.org/2000/svg" viewBox="0 0 48 48"><path d="m 24 0.44 c 31.96 -3.61 31.51 47.98 -0.57 47.4 c -29.84 1.71 -32.53 -50.2 0.57 -47.4" style="fill:#ee6708"/><path d="m 10.56 14.29 h 27.48 c 1.13 0 2.05 0.92 2.05 2.05 v 13.89 c 0 1.13 -0.92 2.05 -2.05 2.05 h -27.48 c -1.13 0 -2.05 -0.92 -2.05 -2.05 v -13.89 c 0 -1.13 0.92 -2.05 2.05 -2.05" style="fill:#ff8c00"/><g style="fill:#fff"><path d="m 15.1 35.59 c -0.08 -0.1 -0.18 -1.61 -0.24 -3.56 l -0.1 -3.39 l -0.75 -0.71 c -1.29 -1.22 -1.62 -2.38 -1.02 -3.58 c 0.64 -1.28 1.52 -1.85 2.84 -1.85 c 1.71 0 3.05 1.26 3.06 2.87 c 0 1.15 -0.22 1.62 -1.3 2.66 c -1.06 1.03 -1.27 1.46 -1.05 2.1 c 0.09 0.27 0.29 0.7 -0.01 1.02 c -0.5 0.53 -0.36 0.95 0.04 1.4 c 0.58 0.64 0.15 0.86 0.02 1.21 c -0.09 0.24 -0.16 0.67 -0.16 0.95 c 0 0.42 -0.07 0.55 -0.44 0.78 c -0.52 0.31 -0.7 0.34 -0.89 0.1 m 1.41 -10 c 0.39 -0.39 0.41 -0.86 0.16 -1.2 c -0.92 -1 -2.3 0.42 -1.42 1.16 c 0.52 0.3 0.98 0.32 1.27 0.04"/><path d="m 12.74 19.1 h 6 v 2.05 h -6"/><path d="m 21.35 19.25 h 6 v 2.05 h -6"/><path d="m 29.82 19.25 h 6 v 2.05 h -6"/><path d="m 23.58 35.4 c -0.08 -0.1 -0.18 -1.61 -0.24 -3.56 l -0.1 -3.39 l -0.75 -0.71 c -1.29 -1.21 -1.62 -2.37 -1.02 -3.58 c 0.64 -1.28 1.52 -1.84 2.84 -1.84 c 1.71 0 3.05 1.25 3.06 2.87 c 0 1.15 -0.22 1.62 -1.3 2.67 c -1.06 1.03 -1.27 1.46 -1.05 2.09 c 0.09 0.27 0.29 0.71 -0.01 1.03 c -0.5 0.52 -0.36 0.95 0.04 1.39 c 0.58 0.65 0.15 0.86 0.02 1.21 c -0.09 0.25 -0.16 0.67 -0.16 0.95 c 0 0.43 -0.07 0.55 -0.44 0.78 c -0.52 0.32 -0.7 0.34 -0.89 0.1 m 1.41 -10 c 0.38 -0.39 0.4 -0.87 0.15 -1.21 c -0.92 -0.99 -2.3 0.42 -1.42 1.16 c 0.52 0.3 0.98 0.32 1.27 0.05"/><path d="m 31.95 35.69 c -0.08 -0.1 -0.18 -1.61 -0.24 -3.56 l -0.1 -3.39 l -0.75 -0.71 c -1.29 -1.21 -1.62 -2.37 -1.02 -3.58 c 0.64 -1.28 1.52 -1.84 2.84 -1.84 c 1.71 0 3.05 1.25 3.06 2.87 c 0 1.15 -0.22 1.62 -1.3 2.66 c -1.06 1.03 -1.27 1.46 -1.05 2.09 c 0.09 0.27 0.29 0.71 -0.01 1.03 c -0.5 0.53 -0.36 0.95 0.04 1.39 c 0.58 0.65 0.15 0.86 0.02 1.21 c -0.09 0.24 -0.16 0.67 -0.16 0.95 c 0 0.42 -0.07 0.55 -0.44 0.77 c -0.52 0.32 -0.7 0.34 -0.89 0.1 m 1.41 -10 c 0.38 -0.39 0.4 -0.86 0.15 -1.2 c -0.92 -1 -2.3 0.42 -1.42 1.16 c 0.52 0.3 0.98 0.32 1.27 0.04"/></g><g style="fill:#6b5946"><path d="m 12.28 17.1 c 0 0.66 -0.52 1.2 -1.16 1.2 c -0.64 0 -1.17 -0.54 -1.17 -1.2 c 0 -0.66 0.52 -1.2 1.17 -1.2 c 0.64 0 1.16 0.54 1.16 1.2"/><path d="m 38.63 17.1 c 0 0.66 -0.52 1.2 -1.17 1.2 c -0.64 0 -1.17 -0.54 -1.17 -1.2 c 0 -0.66 0.52 -1.2 1.17 -1.2 c 0.64 0 1.17 0.54 1.17 1.2"/></g></svg>