<svg xmlns="http://www.w3.org/2000/svg" viewBox="0 0 48 48"><path d="m 6.14 36.73 c -30.2 -47.7 64.99 -49.95 36.4 -0.78 c -7.57 12.66 -25.36 18.83 -36.4 0.78" style="fill:#707f8f"/><path d="m 22.2 37.91 v -0.96 l -0.91 -0.06 l -0.91 -0.06 l -0.06 -0.87 l -0.06 -0.87 l -1.82 -0.12 l -0.06 -0.87 l -0.06 -0.88 l -1.82 -0.12 l -0.06 -0.87 l -0.06 -0.87 l -0.91 -0.06 l -0.91 -0.06 l -0.06 -0.87 l -0.06 -0.88 l -0.91 -0.06 l -0.91 -0.05 l -0.06 -1.8 l -0.06 -1.8 l -0.91 -0.06 l -0.91 -0.05 v -8.96 l 1.82 -0.12 l 0.06 -0.88 l 0.06 -0.87 l 1.82 -0.12 l 0.06 -0.87 l 0.06 -0.87 l 0.91 -0.06 l 0.91 -0.06 l 0.06 -0.88 l 0.06 -0.87 h 15.2 l 0.06 0.87 l 0.06 0.88 l 0.91 0.06 l 0.91 0.06 l 0.06 0.87 l 0.06 0.87 l 1.82 0.12 l 0.06 0.87 l 0.06 0.88 l 1.82 0.12 v 8.96 l -0.91 0.05 l -0.91 0.06 l -0.06 1.8 l -0.06 1.8 l -0.91 0.05 l -0.91 0.06 l -0.06 0.88 l -0.06 0.87 l -0.91 0.06 l -0.91 0.06 l -0.06 0.87 l -0.06 0.87 l -1.82 0.12 l -0.06 0.88 l -0.06 0.87 l -1.82 0.12 l -0.06 0.87 l -0.06 0.87 l -0.91 0.06 l -0.91 0.06 v 1.92 h -3.76 m -0.09 -16.78 l 0.03 -1.83 h 1.93 l 0.04 0.9 l 0.04 0.9 l 0.93 0.04 l 0.94 0.04 l 0.04 0.89 l 0.04 0.9 h 1.82 v -1.75 l -0.93 -0.03 l -0.93 -0.04 l -0.04 -0.9 l -0.04 -0.89 l -1.88 -0.07 v -1.84 l 1.88 -0.07 l 0.04 -0.89 l 0.04 -0.9 l 0.93 -0.03 l 0.93 -0.04 v -1.75 h -1.82 l -0.04 0.9 l -0.04 0.89 l -0.94 0.04 l -0.93 0.04 l -0.04 0.9 l -0.04 0.9 h -1.93 l -0.03 -1.83 l -0.04 -1.83 h -1.82 l -0.03 4.48 c -0.02 2.46 -0.01 4.55 0.03 4.63 c 0.04 0.11 0.3 0.14 0.94 0.12 l 0.88 -0.04" style="fill:#0029c8"/></svg>