<svg xmlns="http://www.w3.org/2000/svg" viewBox="0 0 48 48"><path d="m 47.79 23.88 c 3.61 -31.78 -48.2 -31.3 -47.55 0.57 c -1.71 29.67 50.4 32.3 47.55 -0.57" style="fill:#00c00f"/><path d="m 13.83 16.1 h 22.4 c 1.67 0 3 1.36 3 3 v 12.91 c 0 1.67 -1.36 3 -3 3 h -22.4 c -1.68 0 -3 -1.36 -3 -3 v -12.91 c 0 -1.67 1.36 -3 3 -3" style="fill:#814b14"/><g style="fill:#def606"><path d="m 22.59 24.5 c -0.63 -0.62 -0.56 -1.28 0.16 -1.69 c 0.46 -0.27 0.9 -0.31 3.82 -0.41 c 1.82 -0.05 3.62 -0.11 4 -0.11 c 0.91 -0.02 0.91 -0.2 0.07 -1.23 c -1.03 -1.25 -1.16 -1.48 -1.16 -2.07 c 0 -1.02 1.05 -1.3 2.11 -0.55 c 0.24 0.17 1.09 1.05 1.9 1.96 c 2.58 2.92 2.65 3.08 1.92 4 l -0.4 0.52 h -11.99"/><path d="m 34.95 26.76 c 0.63 0.61 0.56 1.28 -0.16 1.69 c -0.46 0.27 -0.9 0.31 -3.82 0.4 c -1.82 0.06 -3.62 0.11 -4 0.12 c -0.91 0.02 -0.91 0.2 -0.07 1.23 c 1.03 1.25 1.16 1.48 1.16 2.07 c 0 1.02 -1.05 1.3 -2.11 0.56 c -0.24 -0.17 -1.09 -1.05 -1.9 -1.96 c -2.58 -2.93 -2.65 -3.08 -1.92 -4 l 0.4 -0.52 h 11.99"/></g><path d="m 11.58 21.1 h 4.43 c 1.67 0 3 1.36 3 3 v 2.69 c 0 1.67 -1.36 3 -3 3 h -4.43 c -1.67 0 -3 -1.36 -3 -3 v -2.69 c 0 -1.67 1.36 -3 3 -3" style="fill:#ab825a;fill-opacity:0.98"/><path d="m 17.54 25.72 c 0 1.06 -0.91 1.93 -2.02 1.93 c -1.12 0 -2.02 -0.86 -2.02 -1.93 c 0 -1.06 0.91 -1.93 2.02 -1.93 c 1.12 0 2.02 0.86 2.02 1.93" style="fill:#def606"/></svg>