<svg xmlns="http://www.w3.org/2000/svg" viewBox="0 0 48 48"><path d="m 23.33 47.74 c -4.93 -0.39 -10.61 -2.75 -14.49 -6 c -4.73 -4 -8 -10.12 -8.71 -16.2 c -0.77 -7.98 4.26 -16.56 9.69 -20.63 c 2.71 -1.98 6.27 -3.56 9.57 -4.25 c 8.58 -1.8 17.29 1.61 23 8.99 c 3.43 4.43 5.11 8.89 5.32 14.18 c 0.25 6.33 -2.57 13.1 -7.36 17.7 c -5.4 4.31 -10.87 6.65 -17 6.21" style="fill:#4494cf"/><path d="m 13.66 13.98 v 5.59 l 5.1 6.53 l 2.32 -12.1 m 0.93 0 l -1.16 6.52 l 13.68 -6.52 m 1.39 0.46 l -10.2 4.89 l 10.2 4.89 m -22.26 -2.8 v 9.32 h 7.42 m 8.81 -8.39 l 3.25 13.98 h 2.78 v -11.19 m -5.56 3.26 l -6.49 7.93 h 8.35 m -18.55 -4.66 v 4.66 h 8.81 l 3.71 -4.66" style="fill-opacity:0.1"/><path d="m 12.73 13 v 5.59 l 5.1 6.52 l 2.32 -12.1 m 0.93 0 l -1.16 6.52 l 13.68 -6.52 m 1.39 0.46 l -10.2 4.89 l 10.2 4.89 m -22.26 -2.8 v 9.32 h 7.42 m 8.81 -8.39 l 3.25 13.98 h 2.78 v -11.18 m -5.57 3.26 l -6.49 7.92 h 8.35 m -18.55 -4.66 v 4.66 h 8.81 l 3.71 -4.66" style="fill:#f9f9f9"/></svg>