<svg xmlns="http://www.w3.org/2000/svg" viewBox="0 0 48 48"><path d="m 1.03 29.33 c 2.95 19.27 29.1 24.44 40.67 10.67 c 10.17 -10.22 7.64 -29.79 -4.85 -36.51 c -14.33 -8.97 -35.2 2.12 -36.3 20 c -0.12 1.96 0.05 3.94 0.51 5.84" style="fill:#299fdf"/><g style="fill:#fff"><path d="m 22.5 37.89 c -6.23 -0.66 -11.28 -5.6 -12 -11.75 c -0.49 -4.21 0.87 -8.2 3.79 -11.14 c 1.11 -1.12 2.14 -1.84 3.75 -2.66 c 3.98 -2 9 -1.73 12.86 0.68 c 1.26 0.79 2.96 2.35 3.71 3.41 c 0.7 0.98 1.86 3.3 2.19 4.38 c 0.55 1.81 0.56 5.11 0.01 7.21 c -1.15 4.38 -5.14 8.34 -9.54 9.46 c -1.56 0.37 -3.33 0.55 -4.78 0.4 m 4.22 -3.1 c 2.96 -0.94 5.32 -2.89 6.59 -5.45 c 1.07 -2.75 1.57 -5.27 0.79 -7.84 c -0.88 -2.81 -2.77 -5.14 -5.24 -6.43 c -2.9 -1.32 -5.78 -1.63 -8.28 -0.77 c -2.96 1.02 -5.12 2.93 -6.43 5.7 c -1.21 3.05 -1.25 6.16 -0.05 8.84 c 0.8 1.77 2.31 3.55 3.88 4.59 c 1.01 0.66 2.53 1.3 3.64 1.54 c 1.25 0.26 4 0.16 5.11 -0.18"/><path d="m 22.35 31.51 c -0.89 -0.22 -1.57 -0.48 -2.18 -0.84 c -0.59 -0.34 -1.29 -0.96 -1.29 -1.13 c 0 -0.18 1.13 -1.38 1.48 -1.57 c 0.29 -0.15 0.39 -0.13 1.42 0.36 c 1.35 0.67 2.7 0.68 3.82 0.14 c 1.75 -0.86 2.73 -2.52 2.57 -4.37 c -0.14 -1.63 -1.01 -2.86 -2.55 -3.57 c -1.38 -0.65 -2.71 -0.56 -4.22 0.29 c -0.78 0.43 -0.86 0.41 -1.88 -0.64 l -0.7 -0.71 l 0.63 -0.58 c 2.23 -2.07 6.35 -2.06 8.86 0.02 c 1.16 0.96 2.18 2.55 2.52 3.98 c 0.19 0.76 0.19 2.35 0 3.11 c -0.41 1.74 -1.83 3.73 -3.27 4.59 c -1.66 0.73 -3.65 1.27 -5.22 0.92"/></g></svg>