<svg xmlns="http://www.w3.org/2000/svg" viewBox="0 0 48 48"><path d="m 1.55 17.4 c -8.96 25 23.3 37.2 35.3 27 c 12.1 -10.18 16.24 -27.64 2.53 -36.41 c -13.7 -8.78 -28.91 -15.6 -37.88 9.43" style="fill:#10121a"/><g style="fill:#78a4f6"><path d="m 24.52 32 l 2.69 -1.09 c 4.84 -1.96 4.21 -1.82 4.47 -6.64 l 0.21 -3.97 l 2.06 -0.91 c 4.16 -1.84 4 -4.05 4 4.85 c 0 6 -0.27 9.73 -0.74 10.13 c -2.57 1.61 -11.3 4.34 -12.63 4.85 c -0.35 -2.4 -0.13 -4.45 -0.06 -7.21"/><path d="m 30.2 19.5 l -2.69 1.09 c -4.84 1.96 -4.22 1.82 -4.47 6.64 l -0.21 3.97 l -2.06 0.91 c -4.92 2.18 -4 4.05 -4 -4.85 c 0 -6 0.09 -9.61 0.57 -10 c 2.57 -1.61 11.48 -4.46 12.8 -4.97 c 0.36 2.4 0.13 4.45 0.07 7.21"/></g><path d="m 9.75 31.57 c 0 -5.63 0 -11.26 0 -16.89 c 1.96 0.79 4.29 1.74 6.25 2.53 c 0.14 6 -0.22 8.59 0.14 16.98 c -2.26 -0.92 -3.98 -1.63 -6.39 -2.62" style="fill:#045bf9"/><path d="m 10.5 14.25 c 4.53 -1.98 9.61 -3.48 13.46 -4.94 c 0.76 0.31 5.41 1.83 5.53 2.33 c -0.01 0.26 -10.74 4.15 -12.72 4.73 c -2.35 -0.24 -4 -1.17 -6.27 -2.12" style="fill:#36455f"/><g style="fill:#045bf9"><path d="m 20.91 37.3 c -4.68 -2.3 -4.39 -2.63 -0.73 -3.97 c 1.55 -0.68 3.14 -1.54 3.26 -1.54 c 0.34 0 0.26 5 0.36 6.82 c 0.05 0.89 0.3 -0.13 -2.88 -1.32"/><path d="m 27.1 26.65 c -1.38 -0.56 -2.57 -2.1 -2.82 -2.31 c -0.2 -0.18 -0.67 -0.95 3.54 -2.76 l 3.04 -1.31 v 3.73 c 0 4.21 0.03 4.19 -3.76 2.66"/></g><path d="m 31.48 14.33 c 1.95 1.16 3.85 1.84 5.96 2.67 c -1.84 0.68 -4 1.65 -5.88 2.33 c -0.24 -1.38 -0.84 -5.58 -0.09 -5" style="fill:#36455f"/><path d="m 24.1 25.53 c 1.2 0.62 4 2.48 5.59 3.07 c 0.25 0.47 -4.39 2.72 -5.52 2.72 c -0.56 -2 -0.32 -3.62 -0.07 -5.79" style="fill:#fff"/></svg>