<svg xmlns="http://www.w3.org/2000/svg" viewBox="0 0 48 48"><path d="m 19.1 0.98 c -24.75 3.7 -25.7 40.49 -1.7 46 c 19.43 5.73 35.45 -15 29.2 -30.5 c -2.96 -10.38 -15.23 -18.77 -27.47 -15.55" style="fill:#696969"/><path d="m 42.8 24.61 c 0 10.19 -8.35 18.45 -18.66 18.45 c -10.3 0 -18.65 -8.26 -18.65 -18.45 c 0 -10.19 8.35 -18.45 18.65 -18.45 c 10.3 0 18.66 8.26 18.66 18.45" style="fill:#fdd036"/><path d="m 34.3 19.88 c 0 4.32 -4.42 7.82 -9.88 7.82 c -5.45 0 -9.88 -3.5 -9.88 -7.82 c 0 -4.32 4.42 -7.82 9.88 -7.82 c 5.46 0 9.88 3.5 9.88 7.82" style="fill:#fff"/><path d="m 11.1 38 c -1.56 -1.69 -1.51 -1.47 -0.75 -3.48 c 0.86 -2.31 0.98 -3.05 1.18 -7.66 c 0.21 -4.73 0.34 -5.73 1.09 -8 c 0.81 -2.46 1.46 -3.62 2.89 -5.14 c 1.39 -1.48 2.8 -2.38 4.49 -2.85 c 1.69 -0.48 6.86 -0.45 8.44 0.05 c 1.74 0.55 2.52 1.02 3.89 2.38 c 2.12 2.09 2.9 3.54 3.56 6.64 c 0.54 2.53 0.72 4.19 0.84 7.78 c 0.11 3.32 0.28 4.16 1.36 6.83 c 0.45 1.1 0.54 1.5 0.42 1.78 c -0.23 0.52 -1.86 2.29 -2.11 2.29 c -0.12 0 -0.29 -0.38 -0.39 -0.89 c -0.28 -1.39 -1.35 -3.8 -2.18 -4.92 c -0.42 -0.56 -1.13 -1.29 -1.59 -1.62 c -0.79 -0.57 -0.89 -0.6 -2.16 -0.59 c -1.08 0.01 -1.63 0.12 -2.91 0.58 c -1.39 0.51 -1.77 0.57 -3.16 0.57 c -1.32 -0.01 -1.85 -0.1 -3.24 -0.56 c -2.71 -0.9 -3.89 -0.68 -5.6 1.09 c -1.2 1.23 -2.22 3.23 -2.57 5.07 c -0.14 0.74 -0.33 1.43 -0.41 1.51 c -0.09 0.1 -0.51 -0.23 -1.08 -0.84 m 7.75 -16.5 c 0.98 -0.51 1.37 -1.1 1.46 -2.21 c 0.18 -2.27 -1.76 -3.76 -3.63 -2.79 c -1.96 1.02 -1.97 3.98 0 4.99 c 0.41 0.21 0.89 0.38 1.09 0.38 c 0.19 0 0.68 -0.17 1.08 -0.38 m -1.76 -2.08 c -0.22 -0.34 -0.24 -0.51 -0.09 -0.85 c 0.23 -0.5 0.55 -0.65 1.11 -0.51 c 0.5 0.13 0.71 0.79 0.44 1.38 c -0.26 0.58 -1.08 0.57 -1.46 -0.02 m 15 1.85 c 0.75 -0.58 1.04 -1.24 1.04 -2.32 c 0 -1.44 -0.94 -2.59 -2.26 -2.76 c -1.4 -0.18 -2.9 1.27 -2.9 2.81 c 0 1.56 1.51 3 2.91 2.79 c 0.36 -0.06 0.91 -0.3 1.21 -0.53 m -2.14 -1.83 c -0.4 -0.89 0.41 -1.81 1.17 -1.33 c 0.33 0.21 0.44 1.17 0.18 1.5 c -0.33 0.41 -1.14 0.3 -1.35 -0.17" style="fill:#454545"/><path d="m 22.36 28.1 c -1.64 -0.35 -2.7 -0.97 -3.38 -2 l -0.36 -0.55 h 11 l -0.71 0.76 c -1.26 1.36 -2.77 1.93 -5 1.88 c -0.69 -0.01 -1.4 -0.05 -1.58 -0.09" style="fill:#ff8c00"/><path d="m 17.68 25.47 c -1.63 -0.08 -1.91 -0.16 -2.18 -0.62 c -0.37 -0.62 -0.33 -1.07 0.14 -1.47 c 0.41 -0.35 0.68 -0.4 2.94 -0.56 c 1.34 -0.1 1.55 -0.23 2.56 -1.57 c 0.89 -1.2 1.37 -1.68 1.87 -1.89 c 0.57 -0.24 1.64 -0.25 2.1 0 c 0.38 0.2 1.36 1.21 2.13 2.18 c 0.68 0.86 0.93 0.97 2.69 1.18 c 2.66 0.3 2.79 0.36 2.94 1.28 c 0.06 0.36 0 0.54 -0.26 0.86 c -0.31 0.38 -0.42 0.41 -1.76 0.56 c -1.27 0.14 -10.78 0.19 -13.16 0.07" style="fill:#ffd600"/></svg>