<svg xmlns="http://www.w3.org/2000/svg" viewBox="0 0 48 48"><path d="m 9.23 42.79 c 28.39 22.2 57.84 -33 22.72 -41.1 c -22.1 -8.29 -43.74 24.69 -22.72 41.1" style="fill:#ecd6e0"/><path d="m 12.15 35.46 l -0.43 -0.44 v -9.4 l 0.43 -0.45 c 0.59 -0.61 1.56 -0.61 2.15 0 c 0.42 0.43 0.43 0.52 0.52 4.08 l 0.09 3.64 l 9.54 0.09 l 9.53 0.09 l 0.34 0.41 c 0.48 0.58 0.44 1.49 -0.1 2 l -0.43 0.42 h -21.2 m 5.33 -5.92 l -0.43 -0.42 v -7.53 c 0 -5.64 0.06 -7.59 0.22 -7.8 c 0.51 -0.65 0.82 -0.67 8.45 -0.67 h 7.46 l 0.52 0.5 l 0.52 0.5 v 15 l -0.87 0.84 h -15.44 m 13.25 -8.38 l 0.05 -5.37 l -0.4 -0.09 c -0.22 -0.05 -2.71 -0.07 -5.54 -0.05 l -5.13 0.05 l -0.05 5.24 c -0.03 2.88 -0.01 5.34 0.04 5.46 c 0.07 0.17 1.25 0.21 5.54 0.17 l 5.45 -0.04 m -8.86 -2.05 c -0.59 -0.57 -0.59 -1.51 0 -2.08 c 0.92 -0.89 2.43 -0.25 2.43 1.04 c 0 1.29 -1.51 1.94 -2.43 1.04 m 4.78 0.03 c -1.01 -0.84 -0.34 -2.53 1 -2.53 c 0.75 0 1.4 0.68 1.4 1.46 c 0 1.27 -1.41 1.9 -2.4 1.07 m -4.78 -4.67 c -0.92 -0.89 -0.29 -2.5 0.98 -2.5 c 1.29 0 1.96 1.8 0.95 2.57 c -0.63 0.48 -1.39 0.46 -1.93 -0.07 m 4.73 0.03 c -0.57 -0.6 -0.54 -1.7 0.08 -2.17 c 1 -0.77 2.37 -0.14 2.37 1.11 c 0 1.28 -1.58 1.96 -2.45 1.07 m -14.82 1.23 c -0.57 -0.3 -0.8 -0.69 -0.8 -1.35 c 0 -1.24 1.46 -1.88 2.38 -1.04 c 0.53 0.48 0.62 0.8 0.42 1.52 c -0.09 0.36 -0.34 0.65 -0.67 0.82 c -0.61 0.3 -0.85 0.32 -1.33 0.06 m -0.41 -5.88 c -0.41 -0.42 -0.51 -1.29 -0.21 -1.82 c 0.29 -0.52 1.15 -0.78 1.78 -0.52 c 0.65 0.26 0.88 0.64 0.88 1.42 c 0 1.2 -1.6 1.81 -2.45 0.93" style="fill:#f45ba1"/></svg>