<svg xmlns="http://www.w3.org/2000/svg" xmlns:xlink="http://www.w3.org/1999/xlink" viewBox="0 0 48 48"><defs><g id="3" style="clip-path:url(#2)"><path d="m 89.7 101.5 v -20.32 l 4.38 0.25 l 2.88 13.7 c 1.56 7.53 2.96 13.79 3.06 13.89 c 0.25 0.25 0.13 0.78 3.19 -13.85 c 1.4 -6.62 2.65 -12.46 2.75 -13 c 0.19 -0.82 0.5 -0.93 2.34 -0.93 h 2.11 v 40.58 h -2.54 l -0.02 -18.1 c -0.02 -11.5 -0.17 -17.76 -0.42 -17.23 c -0.31 0.63 -5.9 26.41 -5.9 27.1 c -0.96 0.21 -1.75 0.13 -2.81 0.13 l -2.88 -13.62 c -1.58 -7.51 -3.04 -13.81 -3.23 -14 c -0.21 -0.23 -0.38 7.53 -0.38 17.66 v 18 h -2.54 v -20.32" transform="matrix(0.187 0 0 0.185 0 0.54)" style="fill:#fff;stroke:#fff;stroke-width:0.77"/></g><g id="6" style="clip-path:url(#5)"><path d="m 114.3 121.1 c 0.13 -0.42 2.09 -9.56 4.38 -20.3 l 4.19 -19.54 c 1.06 -0.08 2.25 0.02 3.19 0.19 c 0 0.13 1.9 9.11 4.23 19.94 c 2.31 10.85 4.23 19.88 4.23 20.1 c 0 0.21 -0.58 0.36 -1.27 0.36 c -0.96 0 -1.31 -0.21 -1.48 -0.93 c -0.29 -1.29 -1.9 -9.24 -1.9 -9.45 c -3.82 -0.25 -6.73 -0.17 -10.84 -0.17 c -0.67 3.51 -1.33 7 -2 10.55 c -1.36 0.21 -2.31 -0.23 -2.71 -0.74 m 12.91 -21.99 c -2.63 -12.62 -2.73 -13 -2.98 -12.35 c -0.31 0.76 -4.11 19.1 -4.11 19.79 c 3.04 0.78 5.19 0.49 8.78 0.49 c -0.58 -2.64 -1.11 -5.31 -1.69 -7.93" transform="matrix(0.187 0 0 0.185 0 0.54)" style="fill:#fff;stroke:#fff;stroke-width:0.77"/></g><g id="9" style="clip-path:url(#8)"><path d="m 138.3 101.5 v -20.3 h 2.94 l 0.13 8.71 l 0.1 8.69 l 5.19 -8.69 l 5.19 -8.71 h 3.42 l -0.83 1.37 c -4.98 8.12 -10.24 17.1 -10.24 17.55 c 0 0.44 6.3 11.97 10.84 19.86 l 1.04 1.8 h -1.81 l -1.81 -0.02 l -5.5 -9.88 l -5.5 -9.9 l -0.21 19.79 h -2.94" transform="matrix(0.187 0 0 0.185 0 0.54)" style="fill:#fff;stroke:#fff;stroke-width:0.77"/></g><g id="C" style="clip-path:url(#B)"><path d="m 159 101.5 v -20.3 h 13.95 v 4.23 h -11.43 v 12.67 h 11 v 4.23 h -11 v 15.23 h 11.84 v 4.21 h -14.39 v -20.28" transform="matrix(0.187 0 0 0.185 0 0.54)" style="fill:#fff;stroke:#fff;stroke-width:0.77"/></g><g id="F" style="clip-path:url(#E)"><path d="m 133.4 173.1 c -0.1 -0.3 -2.06 -9.45 -4.34 -20.32 l -4.15 -19.79 l 1.23 -0.13 c 0.67 -0.06 1.29 -0.06 1.38 0.02 c 0.1 0.11 1.71 7.61 3.57 16.71 c 3.52 17 3.79 18.21 4 17.97 c 0.08 -0.08 1.69 -7.59 3.57 -16.71 c 1.9 -9.11 3.54 -16.92 3.67 -17.3 c 0.23 -0.82 2.69 -1.12 2.69 -0.32 c 0 0.47 -7.92 38.44 -8.28 39.67 c -0.27 0.91 -3 1.08 -3.34 0.21" transform="matrix(0.187 0 0 0.185 0 0.54)" style="fill:#fff;stroke:#fff;stroke-width:0.78"/></g><g id="I" style="clip-path:url(#H)"><path d="m 100.1 172.1 c 0.1 -0.42 2.09 -9.56 4.38 -20.3 l 4.19 -19.54 c 1.04 -0.08 2.25 0.02 3.17 0.21 c 0 0.11 1.92 9.1 4.23 19.92 c 2.34 10.85 4.23 19.88 4.23 20.1 c 0 0.21 -0.56 0.38 -1.25 0.38 c -0.96 0 -1.31 -0.23 -1.48 -0.95 c -0.31 -1.29 -1.92 -9.24 -1.92 -9.45 c -3.82 -0.25 -6.73 -0.17 -10.84 -0.17 c -0.67 3.51 -1.33 7 -2 10.55 c -1.33 0.21 -2.29 -0.23 -2.71 -0.74 m 12.93 -21.99 c -2.65 -12.62 -2.73 -13 -3 -12.35 c -0.29 0.76 -4.09 19.1 -4.09 19.79 c 3 0.78 5.19 0.49 8.76 0.49 c -0.56 -2.64 -1.08 -5.31 -1.67 -7.93" transform="matrix(0.187 0 0 0.185 0 0.54)" style="fill:#fff;stroke:#fff;stroke-width:0.77"/></g><clipPath id="E"><path d="M 0,0 H48 V48 H0 z"/></clipPath><clipPath id="B"><path d="M 0,0 H48 V48 H0 z"/></clipPath><clipPath id="5"><path d="M 0,0 H48 V48 H0 z"/></clipPath><clipPath id="8"><path d="M 0,0 H48 V48 H0 z"/></clipPath><clipPath id="2"><path d="M 0,0 H48 V48 H0 z"/></clipPath><clipPath id="H"><path d="M 0,0 H48 V48 H0 z"/></clipPath><filter id="0" filterUnits="objectBoundingBox" x="0" y="0" width="48" height="48"><feColorMatrix type="matrix" in="SourceGraphic" values="0 0 0 0 1 0 0 0 0 1 0 0 0 0 1 0 0 0 1 0"/></filter><mask id="G"><g style="filter:url(#0)"><path d="M 0,0 H48 V48 H0 z" style="fill-opacity:0.9"/></g></mask><mask id="D"><g style="filter:url(#0)"><path d="M 0,0 H48 V48 H0 z" style="fill-opacity:0.9"/></g></mask><mask id="1"><g style="filter:url(#0)"><path d="M 0,0 H48 V48 H0 z" style="fill-opacity:0.9"/></g></mask><mask id="A"><g style="filter:url(#0)"><path d="M 0,0 H48 V48 H0 z" style="fill-opacity:0.9"/></g></mask><mask id="7"><g style="filter:url(#0)"><path d="M 0,0 H48 V48 H0 z" style="fill-opacity:0.9"/></g></mask><mask id="4"><g style="filter:url(#0)"><path d="M 0,0 H48 V48 H0 z" style="fill-opacity:0.9"/></g></mask></defs><path d="m 10.97 43.3 c 37.43 24 55.4 -52.5 9.28 -42.4 c -19 4.31 -29.2 31.39 -9.28 42.4" style="fill:#f4f4f4"/><path d="m 12.18 10.86 v 26.3 h 24.9 v -26.3 m -24.49 0.73 h 2.36 v 2.76 h -2.36 m 21.82 -2.76 h 2.36 v 2.76 h -2.36 m -21.82 4.58 h 2.36 v 2.76 h -2.36 m 21.82 -2.76 h 2.36 v 2.76 h -2.36 m -21.82 4.57 h 2.36 v 2.76 h -2.36 m 21.82 -2.76 h 2.36 v 2.76 h -2.36 m -21.82 4.58 h 2.36 v 2.77 h -2.36 m 21.82 -2.77 h 2.36 v 2.77 h -2.36"/><use xlink:href="#3" style="mask:url(#1)"/><use xlink:href="#6" style="mask:url(#4)"/><use xlink:href="#9" style="mask:url(#7)"/><use xlink:href="#C" style="mask:url(#A)"/><use xlink:href="#F" style="mask:url(#D)"/><use xlink:href="#I" style="mask:url(#G)"/><g style="fill:#fff"><path d="m 29.2 26.2 h 0.7 v 6.37 h -0.7"/><path d="m 29.2 24.88 h 0.7 v 0.93 h -0.7"/></g></svg>