<svg xmlns="http://www.w3.org/2000/svg" viewBox="0 0 48 48"><path d="m 2.27 32.92 c -18 -58.4 78.8 -29.2 33.54 10.81 c -9.1 8 -28.68 4.93 -33.54 -10.81" style="fill:#ffd600"/><path d="m 23.54 14 c 15.8 2.25 9.1 13.29 -1.35 24.1 c -11.25 -18.91 -10.7 -20.34 1.35 -24.1" style="fill:#ff4500"/><path d="m 17.57 35.52 c -2.29 -1.96 -4.32 -3.74 -4.52 -3.95 l -0.36 -0.38 v -3.61 c 0 -2.7 0.42 -3.5 0.3 -3.64 c -0.09 -0.1 -1.52 -1.11 -2.61 -2.04 c -2.47 -2.12 -2.76 -2.41 -2.66 -2.66 c 0.11 -0.27 0.48 -0.25 2.55 0.18 c 1 0.21 1.83 0.38 1.85 0.38 c 0.15 0 -0.08 -0.48 -0.95 -2 c -0.55 -0.96 -0.96 -1.8 -0.92 -1.91 c 0.04 -0.11 0.89 -0.61 1.88 -1.13 c 1 -0.52 3.51 -1.83 5.58 -2.91 c 2.07 -1.08 3.87 -1.96 3.99 -1.96 c 0.29 0 0.7 0.53 1.67 2.21 c 0.45 0.77 0.9 1.47 1 1.55 c 0.16 0.13 0.5 -0.13 1.95 -1.49 c 1.11 -1.04 1.86 -1.64 2.03 -1.64 c 0.15 0 0.82 0.46 1.52 1.04 c 4.42 3.68 7.76 6.53 7.82 6.69 c 0.11 0.29 -0.21 0.67 -1.71 1.99 c -0.76 0.67 -1.38 1.29 -1.38 1.37 c 0 0.17 1.17 0.4 2.71 0.52 c 1.39 0.11 1.91 0.27 1.91 0.55 c 0 0.3 -0.07 0.34 -2.98 1.86 l -2.36 1.23 l -0.04 3.64 c -0.03 3.27 -0.06 3.66 -0.26 3.83 c -0.49 0.41 -11.21 5.86 -11.53 5.86 c -0.24 0 -1.42 -0.95 -4.49 -3.57 m 4.83 1.94 c 0.21 -1.42 0.18 -0.71 0.27 -2.23 c -0.07 -1.59 0.22 -6.39 -0.55 -6.72 c -0.2 0 -0.25 0.07 -0.21 0.25 c 0.09 0.4 0.05 4.88 -0.06 5.36 c 0.02 1.05 -0.07 3.38 0.54 3.34 m 3.86 -11.74 c 1.38 -0.61 7.45 -3.78 6.76 -3.96 c -0.53 -0.14 -8.59 -7.62 -8.59 -7.48 c 0 0.07 -10.42 5.17 -10.68 5.54 c -0.25 0.38 6.13 6.73 7.54 7.1 c 1.33 0.32 3.71 -0.63 4.96 -1.18" style="fill:#fbeb59"/><path d="m 169.5 287.2 c -3.51 -3.22 -14.71 -13.46 -24.89 -22.75 c -26.69 -24.39 -35.97 -33.3 -36.1 -34.79 c -0.06 -0.68 0 -13.96 0.12 -29.5 l -0.67 -24.54 l -2.64 -4.15 c -1.19 -1.89 -12.36 -9.13 -21.29 -17.3 c -8.96 -8.17 -20.39 -20.27 -20.2 -20.92 c 0.52 -1.52 7.25 -1.52 30.43 3.44 c 6.09 1.3 10.36 3.71 10.36 1.8 c 0 -0.71 -5.28 3 -9.48 -4.58 c -5.54 -10.1 -9.51 -28 -8.85 -29.1 c 1.45 -2.32 86.9 -47.88 89.1 -47.57 c 1.42 0.19 6.24 6.44 12.1 16.74 c 5.92 10.4 6.64 17.55 8.12 17.77 c 1.51 0.25 5.66 -3.22 15.55 -12.91 c 12.68 -12.5 13.6 -13.18 15.78 -12 c 4.44 2.38 68.2 58.65 68.5 60.5 c 0.26 1.3 -3.34 5.57 -11.92 14.21 c -6.79 6.78 -12 12.6 -11.72 12.91 c 0.84 0.84 15.69 3.22 24.97 3.99 c 4.21 0.34 8.5 1.27 9.51 2.07 c 1.74 1.36 1.65 1.58 -1.36 4.18 c -1.74 1.49 -9.77 6.31 -17.84 10.71 c -8.09 4.39 -15.98 8.76 -17.58 9.75 l -2.9 1.73 v 28.41 c 0 25.63 -0.17 28.6 -1.74 30.36 c -2.2 2.48 -82.5 46.2 -86.2 46.92 c -5.25 -1.21 -6.1 -2.54 -9.14 -5.35 m 42.81 -20.43 c 18.59 -10 36.75 -19.81 40.3 -21.82 l 6.5 -3.68 l -0.23 -16.43 c -0.29 -20.52 -0.87 -25.5 -2.81 -23.89 c -0.9 0.74 -3.1 0.93 -6.38 0.46 c -4.64 -0.62 -5.8 -0.28 -17.78 5.35 l -12.79 6 c -15 0.19 -28.3 -4.3 -41.57 -4.89 c -6.21 0 -39.8 -7.61 -42.3 -9.47 c -8.82 -6.44 -8.88 -6.44 -14.76 -5.82 c -6.82 0.68 -6.56 0.03 -7.51 20.77 l -0.64 14.21 l 11.89 10.55 c 32.83 29.2 52.96 46.73 53.6 46.77 c 0.38 0 15.92 -8.14 34.52 -18.1 m 29.82 -74.5 c 29.1 -16.62 38.49 -22.78 38.49 -25.2 c 0 -2.32 -3.63 -3.74 -11.86 -4.67 c -5.77 -0.65 -6 -0.59 -18.24 5.82 c -46.76 24.45 -60.97 32.1 -61.5 32.9 c -0.32 0.53 -0.29 1.27 0.06 1.64 c 0.9 0.9 25.35 3.03 28.54 2.51 c 1.36 -0.25 12.39 -6.07 24.51 -12.97 m -89.5 -3.06 c 0 -1.61 -21 -23.37 -34.1 -35.3 l -9.57 -8.73 l -10.94 -2.66 c -12.39 -3 -16.45 -3.31 -16.45 -1.24 c 0 1.49 13.72 13.99 36.95 33.64 c 20.33 17.21 21.46 17.95 27 17.95 c 3.39 -0.09 5.98 -0.31 7 -3.71 m 43.62 -1.58 c 18.82 -6 14.33 -7.89 10.12 -13.25 c -2.84 -3.62 -12.47 -5.79 -27.79 -9.75 c -24.57 -6.41 -30.69 -12.41 -38.3 -22.53 c -2.67 -3.59 -1.22 -10.62 -1.65 -10.8 c -0.81 -0.31 -19.72 11.51 -19.72 13.15 c 0 0.5 7.19 8.1 8.99 10.12 c 4.87 5.57 35.85 34.4 36.95 34.4 c 11.63 7.24 10.44 9 31.44 -1.3 m 47.5 -23 c 6.24 -3.44 11.49 -6.93 11.66 -7.77 c 0.26 -1.45 -25.61 -24.91 -27.5 -24.91 c -17 -13.22 -23.64 -14.1 -35.1 -24.57 c -13.26 1.05 -42.4 7.55 -36.3 21.23 c 2.2 4.61 11.4 7.18 30.98 12.32 c 12.3 3.25 35.2 15.32 41.1 28.85 c 0 3.03 0.87 2.72 15.1 -5.11 m 40.78 -37.4 l -11 -11.1 c -5.1 -5.14 -43 -39.71 -45.77 -41 c -1.51 -0.74 -2.06 -0.62 -11.52 8.2 c -6.35 5.91 -10.91 10.99 -14.62 10 c -0.61 -0.19 1.86 4.21 4.15 5.23 c 13.37 8.29 13.17 15.97 24.86 24 c 0 2.6 0.78 3.37 12.88 13.1 c 12.1 9.72 17.52 13.74 18.8 13.74 c 6.67 -8.39 17.29 -14.64 22.25 -22.25 m -161.5 7.1 c 5.54 -3.06 10.41 -6.13 10.82 -6.75 c 25.5 -20 36.43 -25.1 53.4 -37.1 c 0.64 -1.61 -10.56 -22.44 -12.85 -23.86 c -0.99 -0.65 -7.31 2.29 -21.35 9.9 c -10.96 5.94 -28.48 15.41 -38.93 21.1 c -10.44 5.63 -19.4 10.89 -19.9 11.67 c -1.19 1.86 14.91 30.7 17.1 30.7 c 0.87 0 6.12 -2.54 11.66 -5.63" transform="matrix(0.135 0 0 0.126 -1.93 2.13)" style="fill:#c9630c;stroke:#c9630c"/><path d="m 25.39 25.1 c 0 -0.95 -0.84 -1.5 -3.23 -2.1 c -3.86 -0.97 -5.16 -1.69 -6.1 -3.33 c -0.32 -0.6 -0.41 -0.96 -0.46 -1.87 c -0.13 -2.49 1.24 -4.21 3.9 -4.93 c 0.96 -0.26 3.86 -0.27 4.8 -0.02 c 1.38 0.37 2.46 1.07 3.19 2.08 c 0.3 0.41 0.49 0.54 0.8 0.54 c 0.47 0 0.5 0.08 0.16 0.46 c -0.39 0.56 0.81 1.06 0.17 1.65 c -0.25 0.59 -0.37 1.17 -0.75 1.56 c -0.47 0.47 -0.63 0.54 -1.18 0.54 c -0.51 0 -0.73 -0.08 -1.12 -0.43 c -0.52 -0.39 -0.56 -1.2 -1.07 -1.48 c -0.4 -0.21 -0.51 -0.43 -0.58 -1.25 c -0.06 -0.66 -0.7 -0.95 -2.1 -0.95 c -1.84 0 -2.89 0.6 -2.89 1.64 c 0 0.99 0.76 1.45 3.79 2.25 c 3.46 0.93 4.67 1.58 5.52 3 c 1.41 1.83 -2.55 2.89 -2.9 2.6" style="fill:#52b705"/><path d="m 24.34 17.63 c -0.51 -0.52 -0.29 -1.55 0.41 -1.93 c 0.39 -0.21 0.43 -0.21 0.51 0 c 0.05 0.13 -0.02 0.31 -0.18 0.43 c -0.25 0.2 -0.25 0.21 -0.02 0.36 c 0.44 0.27 0.57 0.69 0.32 1.07 c -0.27 0.42 -0.68 0.45 -1.05 0.06 m 3.46 -0.11 c -0.35 -0.41 -0.4 -0.74 -0.2 -1.23 c 0.12 -0.29 0.36 -0.54 0.63 -0.65 c 0.5 -0.21 0.77 -0.08 0.4 0.2 c -0.33 0.25 -0.31 0.6 0.04 0.69 c 0.32 0.09 0.39 0.79 0.11 1.07 c -0.24 0.25 -0.73 0.21 -0.97 -0.08" style="fill:#273405"/></svg>