<svg xmlns="http://www.w3.org/2000/svg" viewBox="0 0 48 48"><path d="m 42.1 39.47 c 12 -17.85 2.93 -34.1 -10.21 -37.99 c -17.69 -5.19 -42.1 8.46 -26.76 36.56 c 6.1 11.18 28.39 14.1 36.96 1.42" style="fill:#522a20"/><path d="m 16.52 36.52 c -0.18 -0.07 -0.19 -0.73 0 -0.91 c 0.1 -0.09 0.7 -0.13 1.97 -0.13 c 2.23 0 2.2 0.01 2.2 -1.16 c 0 -0.64 -0.04 -0.83 -0.18 -0.89 c -0.1 -0.04 -1.8 -0.07 -3.76 -0.07 c -4.76 0 -5.39 -0.13 -5.88 -1.19 c -0.38 -0.82 -0.47 -3.1 -0.41 -10.29 c 0.04 -5.68 0.08 -6.59 0.25 -7.1 c 0.29 -0.88 0.64 -1.2 1.56 -1.44 c 0.74 -0.2 1.42 -0.21 11.76 -0.21 c 10.34 0 11 0.01 11.75 0.21 c 0.92 0.25 1.27 0.56 1.56 1.44 c 0.17 0.51 0.2 1.43 0.25 7.1 c 0.06 7.18 -0.03 9.47 -0.41 10.29 c -0.48 1.05 -1.14 1.19 -5.68 1.19 c -1.93 0 -3.46 0.05 -3.56 0.11 c -0.13 0.08 -0.17 0.3 -0.16 0.94 c 0.01 0.46 0.05 0.89 0.09 0.95 c 0.05 0.07 0.71 0.12 1.8 0.12 c 1.18 0 1.77 0.04 1.86 0.13 c 0.21 0.2 0.18 0.83 -0.04 0.91 c -0.22 0.08 -14.75 0.07 -14.96 -0.01 m 19.28 -4.1 c 0.74 -0.36 0.87 -0.63 1.01 -2.06 c 0.18 -1.75 0.06 -14.54 -0.13 -15.3 c -0.19 -0.71 -0.61 -1.04 -1.48 -1.16 c -0.37 -0.05 -5.59 -0.08 -11.61 -0.07 c -10.33 0.02 -10.96 0.03 -11.37 0.23 c -0.84 0.4 -0.88 0.52 -0.98 3.23 c -0.11 3.05 -0.12 9.72 -0.01 12.29 c 0.11 2.66 0.2 2.79 2 3 c 0.48 0.06 5.66 0.09 11.5 0.08 c 10.36 -0.02 10.63 -0.02 11.1 -0.24 m -16.18 -3.07 c -0.24 -0.13 -0.28 -0.77 -0.07 -0.97 c 0.2 -0.19 8.62 -0.19 8.82 0 c 0.23 0.22 0.17 0.84 -0.09 0.98 c -0.3 0.16 -8.39 0.15 -8.67 0 m -0.13 -2.39 c -0.11 -0.29 -0.08 -0.66 0.07 -0.81 c 0.11 -0.1 1.25 -0.13 4.42 -0.13 c 4.71 0 4.59 -0.02 4.52 0.69 l -0.04 0.37 l -4.45 0.03 c -3.98 0.02 -4.46 0.01 -4.52 -0.15 m -2.12 -2.2 c -0.04 -0.08 -0.05 -0.64 -0.03 -1.25 l 0.04 -1.11 l 6.52 -0.03 c 4.72 -0.02 6.57 0 6.68 0.1 c 0.19 0.15 0.22 1.89 0.04 2.22 c -0.12 0.21 -0.31 0.21 -6.65 0.21 c -5.31 0 -6.55 -0.03 -6.59 -0.15 m 11.82 -1.16 c 0.04 -0.6 -0.23 -0.32 -5.15 -0.36 c -5.37 -0.04 -5.23 -0.11 -5.2 0.39 c 0.04 0.55 -0.31 0.47 5.11 0.5 c 5.49 0.02 5.21 0.11 5.24 -0.52 m -9.63 -2.5 c -0.23 -0.22 -0.18 -0.85 0.08 -0.98 c 0.36 -0.18 8.43 -0.16 8.69 0.03 c 0.15 0.1 0.2 0.26 0.17 0.58 l -0.04 0.44 l -4.38 0.03 c -3.31 0.02 -4.41 0 -4.52 -0.11 m 0 -2.23 c -0.23 -0.22 -0.17 -0.84 0.09 -0.98 c 0.14 -0.07 1.72 -0.12 4.33 -0.12 c 2.6 0 4.18 0.04 4.32 0.12 c 0.26 0.13 0.31 0.76 0.09 0.98 c -0.2 0.19 -8.62 0.19 -8.82 0" style="fill:#fff"/></svg>