<svg xmlns="http://www.w3.org/2000/svg" viewBox="0 0 48 48"><path d="m 41.1 39.83 c 33.48 -52.2 -69.2 -51.76 -32.71 -3.66 c 8.33 10.97 23.85 17.46 32.71 3.66" style="fill:#8b4512"/><g style="fill:#fff"><path d="m 14.98 13.94 c -0.09 -0.08 -0.11 -0.14 -0.11 -0.41 c 0.03 -1.02 0.78 -2.59 1.78 -3.71 c 1.03 -1.12 2.44 -1.44 3.68 -1.22 c 1.51 0.27 2.97 0.9 3.72 1.61 c 0.4 0.38 0.46 0.52 0.36 0.8 c -0.1 0.26 -0.8 1.11 -1.35 1.64 c -0.48 0.46 -0.48 0.46 -1.23 0.09 c -0.71 -0.35 -1.07 -0.45 -1.55 -0.41 c -0.82 0.03 -1.43 0.7 -1.8 1.23 c -0.32 0.48 -0.52 0.68 -0.66 0.66 c -0.82 -0.17 -1.96 -0.07 -2.85 -0.28"/><path d="m 20.31 27.99 c -0.68 -0.7 -0.71 -0.82 -0.34 -1.28 c 0.41 -0.52 1.77 -1.76 1.95 -1.77 c 0.14 -0.01 1.31 1.05 1.25 1.13 c -0.87 1.02 -2.07 2.73 -2.85 1.93"/><path d="m 18.45 25.86 c -0.35 -0.36 -0.88 -1.17 -0.89 -1.39 c 0.54 -0.82 1.74 -1.21 2.66 -1.62 l 0.42 0.37 c 0.56 0.5 0.67 0.86 0.38 1.21 c -0.36 0.42 -1.92 1.56 -2.17 1.58 c -0.12 0.01 -0.3 -0.06 -0.39 -0.16"/><path d="m 16.1 21.34 c 0.13 -0.15 1.55 -0.62 2.27 -0.75 c 0.56 -0.14 0.61 -0.15 0.89 0.33 c 0.45 0.75 0.5 0.98 0.27 1.24 c -0.82 0.59 -1.73 1 -2.71 1.17 c -0.17 -0.49 -0.98 -1.57 -0.72 -1.99"/><path d="m 15.61 20.1 c -0.25 -0.23 -0.39 -0.7 -0.4 -1.36 c 0 -0.65 0.19 -0.75 1.66 -0.86 c 1.39 -0.11 1.5 -0.05 1.66 0.86 c 0.1 0.57 0.09 0.59 -0.21 0.81 c -0.3 0.21 -0.91 0.41 -2 0.64 c -0.27 0.04 -0.53 0.04 -0.69 -0.1"/><path d="m 14.99 15.1 c 0.3 -0.3 2.52 -0.24 2.92 0.08 c 0.27 0.21 0.34 1.07 0.11 1.39 c -1.02 0.51 -1.55 0.41 -2.91 0.57 c -0.08 -0.57 -0.48 -1.62 -0.12 -2.04"/><path d="m 19 17.92 c -0.03 -0.36 1.09 -2.34 1.33 -2.37 c 0.17 -0.02 0.56 0.55 0.66 0.96 c 0.09 0.35 -0.04 0.76 -0.45 1.45 c -0.36 0.6 -0.88 1.23 -1.02 1.24 c -0.32 -0.34 -0.44 -0.79 -0.54 -1.28"/><path d="m 22.91 16.75 c -0.97 -0.19 -1.1 -0.24 -1.29 -0.52 c -0.21 -0.36 -0.26 -0.72 -0.32 -1.13 l 0.61 -0.04 c 0.8 -0.05 1.32 0.1 1.83 0.51 c 0.63 0.5 0.89 1.35 0.43 1.37 c -0.1 0 -0.67 -0.09 -1.27 -0.2"/><path d="m 24.69 19.47 c -0.34 -0.07 -0.93 -0.26 -1.31 -0.41 c -0.58 -0.23 -0.72 -0.34 -0.91 -0.69 c -0.34 -0.64 -0.24 -0.79 0.51 -0.76 c 0.77 0.03 1.82 0.22 2.13 0.39 c 0.25 0.14 0.6 1.12 0.51 1.43 c -0.44 0.27 -0.51 0.13 -0.93 0.04"/><path d="m 20.35 21.45 c -0.41 -0.44 -0.4 -0.82 0.04 -1.62 c 0.53 -0.96 1 -1.62 1.16 -1.63 c 0.16 -0.01 0.59 0.74 0.61 1.07 c 0.03 0.38 -1.18 2.46 -1.45 2.48 c -0.04 0 -0.21 -0.13 -0.37 -0.3"/><path d="m 21.92 23.71 c -0.26 -0.09 -0.62 -0.73 -0.57 -1.02 c 0.06 -0.34 0.65 -1.42 0.99 -1.8 c 0.32 -0.36 0.55 -0.25 0.77 0.37 c 0.14 0.4 0.14 0.5 -0.02 0.92 c -0.22 0.57 -1 1.58 -1.17 1.52"/><path d="m 24.83 21.88 c -0.93 -0.3 -1.1 -0.43 -1.31 -0.99 c -0.14 -0.38 -0.14 -0.45 0.01 -0.58 c 0.21 -0.19 0.32 -0.2 1.21 -0.07 c 1.05 0.15 1.28 0.25 1.54 0.69 c 0.29 0.48 0.3 0.73 0.09 0.97 c -0.25 0.27 -0.66 0.26 -1.54 -0.02"/><path d="m 27.58 25 c -0.14 -0.2 -0.23 -0.5 -0.25 -0.89 c -0.06 -0.86 0.05 -0.95 1.36 -1.03 c 0.58 -0.04 1.25 -0.03 1.47 0.03 c 0.48 0.11 0.56 0.27 0.65 1.29 c -0.1 0.77 -3 0.88 -3.23 0.61"/><path d="m 27.4 22.1 c -0.23 -0.07 -0.46 -0.57 -0.5 -1.08 c -0.02 -0.31 0.02 -0.38 0.32 -0.54 c 0.5 -0.26 1.93 -0.71 2.36 -0.75 c 0.32 -0.03 0.39 0.01 0.51 0.29 c 0.17 0.4 0.23 1.18 0.12 1.45 c -0.05 0.11 -0.22 0.25 -0.39 0.3 c -0.77 0.04 -1.65 0.47 -2.41 0.32"/><path d="m 26.51 19.51 c -0.35 -0.74 -0.43 -1.17 0.21 -1.6 c 0.59 -0.4 1.71 -0.95 1.95 -0.97 c 0.12 -0.01 0.28 0.17 0.47 0.52 c 0.36 0.68 0.4 1.05 0.12 1.29 c -0.27 0.23 -1.32 0.65 -2.03 0.82 c -0.45 0.11 -0.55 0.1 -0.71 -0.06"/><path d="m 25.39 16.92 c -0.36 -0.64 -0.36 -0.93 0.01 -1.33 c 0.41 -0.45 1.86 -1.33 2.07 -1.27 c 0.21 0.07 0.91 1.33 0.85 1.54 c -0.06 0.19 -2.17 1.48 -2.46 1.5 c -0.15 0.01 -0.29 -0.12 -0.47 -0.44"/><path d="m 23.95 14.62 c -0.76 -0.83 -0.76 -0.81 -0.08 -1.58 c 0.43 -0.5 0.93 -0.91 1.46 -1.29 l 0.48 0.47 c 0.58 0.57 0.7 0.89 0.46 1.21 c -0.32 0.44 -1.58 1.57 -1.76 1.59 c -0.1 0.01 -0.35 -0.18 -0.56 -0.41"/><path d="m 29.1 32.52 c -0.09 -0.13 -0.22 -0.55 -0.29 -0.96 c -0.16 -0.71 -0.18 -0.72 0.46 -0.91 c 0.32 -0.09 0.95 -0.22 1.39 -0.29 c 1.1 -0.17 1.18 -0.11 1.33 1 c 0.13 0.98 0.25 0.87 -1.27 1.16 c -1.3 0.25 -1.43 0.25 -1.63 -0.01"/><path d="m 29.73 34.65 c -0.48 -0.23 -0.63 -0.99 -0.23 -1.18 c 0.36 -0.17 2.68 -0.44 2.86 -0.33 c 0.08 0.05 0.18 0.3 0.23 0.56 c 0.13 0.68 -0.11 0.85 -1.46 1 c -0.85 0.1 -1.09 0.09 -1.4 -0.05"/><path d="m 31.1 36.69 c -0.61 -0.14 -1.19 -0.32 -1.28 -0.39 c -0.2 -0.27 -0.19 -0.52 -0.21 -0.84 l 1.48 -0.08 c 1.33 -0.07 1.5 -0.05 1.64 0.12 c 0.35 0.42 0.11 1.43 -0.34 1.45 c -0.49 -0.07 -0.89 -0.16 -1.29 -0.26"/><path d="m 27.1 41.1 c -1.05 -0.03 -2.76 -0.72 -3.15 -1.26 c -0.19 -0.27 0.05 -0.54 1.12 -1.31 c 0.98 -0.7 1.25 -0.8 1.68 -0.61 c 1.24 0.23 2.08 -0.28 2.87 -1 c 0.82 0.18 1.64 0.4 2.46 0.56 c 0.1 -0.01 0.39 0.31 0.4 0.44 c 0.02 0.24 -0.81 1.48 -1.27 1.9 c -0.81 0.74 -2.69 1.33 -4.12 1.29"/><path d="m 23.2 38.66 c -0.2 -0.22 -0.41 -0.89 -0.36 -1.11 c 0.07 -0.29 0.43 -0.5 1.41 -0.84 c 1.04 -0.37 1.43 -0.36 1.59 0.02 c 0.17 0.39 -0.09 0.68 -1.31 1.44 c -1.04 0.64 -1.15 0.69 -1.32 0.5"/><path d="m 22.47 36.3 c -0.04 -0.05 -0.11 -0.31 -0.17 -0.55 c -0.15 -0.75 0.17 -0.93 2.23 -1.24 c 0.54 -0.07 0.74 -0.3 0.84 0.27 c 0.13 0.75 0.11 0.77 -1.07 1.2 c -0.77 0.29 -1.74 0.45 -1.84 0.32"/><path d="m 22.2 34.2 c -0.31 -0.28 -0.26 -1.74 0.08 -2.09 c 0.65 -0.34 1.25 -0.25 1.97 -0.48 c 0.15 -0.06 0.25 0 0.41 0.25 c 0.3 0.46 0.44 1.34 0.25 1.56 c -0.11 0.14 -1.07 0.49 -2.32 0.85 c -0.12 0.03 -0.3 -0.01 -0.39 -0.09"/><path d="m 26.3 33.79 c -0.62 -0.29 -0.85 -0.72 -0.64 -1.21 c 0.13 -0.3 0.36 -0.28 0.78 0.1 c 0.26 0.23 0.38 0.43 0.39 0.66 c 0.03 0.39 -0.22 0.59 -0.53 0.45"/><path d="m 27.55 33.3 c -0.16 -0.21 -0.22 -0.7 -0.11 -1 c 0.04 -0.11 0.2 -0.29 0.34 -0.38 c 0.25 -0.16 0.28 -0.16 0.48 -0.05 c 0.43 0.24 0.46 0.96 0.06 1.35 c -0.29 0.28 -0.58 0.31 -0.77 0.08"/><path d="m 22.8 24.53 c -0.21 -0.26 -0.18 -0.34 0.3 -0.92 c 0.55 -0.66 0.75 -0.7 1 -0.21 c 0.24 0.48 0.16 1.16 -0.18 1.57 c -0.43 0.27 -0.79 -0.05 -1.11 -0.44"/><path d="m 26.2 24.1 c 0.09 -0.18 0.17 -0.46 0.19 -0.61 c 0.04 -0.33 -0.02 -0.39 -0.73 -0.61 c -0.81 -0.26 -1 -0.18 -0.95 0.36 c 0.05 0.54 0.47 1.07 0.97 1.23 c 0.26 0.08 0.34 0.02 0.52 -0.37"/><path d="m 22.2 29.71 c -0.55 -0.56 -0.57 -0.65 -0.27 -1.02 c 0.33 -0.41 1.62 -1.5 1.75 -1.51 c 0.11 -0.01 0.85 0.94 0.8 1 c -0.69 0.81 -1.66 2.18 -2.28 1.54"/><path d="m 30.41 26.81 c -0.01 -0.79 -0.06 -0.88 -0.53 -0.91 c -0.52 -0.04 -2.22 0.02 -2.32 0.11 c -0.08 0.08 0.11 1.43 0.2 1.43 c 1.05 0.05 2.67 0.28 2.65 -0.63"/></g></svg>