<svg xmlns="http://www.w3.org/2000/svg" viewBox="0 0 48 48"><path d="m 47.4 23.89 c 3.58 -31.94 -47.71 -31.48 -47.1 0.57 c -1.7 29.82 49.89 32.5 47.1 -0.57" style="fill:#ffe4c3"/><g style="fill:#f9a62a"><path d="m 12.73 21.63 h 17.44 c 0.72 0 1.31 0.53 1.31 1.19 v 1.75 c 0 0.66 -0.59 1.19 -1.31 1.19 h -17.44 c -0.72 0 -1.31 -0.53 -1.31 -1.19 v -1.75 c 0 -0.66 0.59 -1.19 1.31 -1.19"/><path d="m 12.73 27.96 h 17.44 c 0.72 0 1.31 0.54 1.31 1.19 v 1.75 c 0 0.66 -0.59 1.19 -1.31 1.19 h -17.44 c -0.72 0 -1.31 -0.53 -1.31 -1.19 v -1.75 c 0 -0.66 0.59 -1.19 1.31 -1.19"/><path d="m 27.96 34.3 h 7.18 c 0.73 0 1.31 0.53 1.31 1.19 v 1.75 c 0 0.66 -0.59 1.19 -1.31 1.19 h -7.18 c -0.73 0 -1.31 -0.53 -1.31 -1.19 v -1.75 c 0 -0.66 0.59 -1.19 1.31 -1.19"/><path d="m 11.29 14.5 h 26.2 c 0.73 0 1.31 0.54 1.31 1.19 v 1.75 c 0 0.66 -0.59 1.19 -1.31 1.19 h -26.2 c -0.72 0 -1.31 -0.53 -1.31 -1.19 v -1.75 c 0 -0.66 0.59 -1.19 1.31 -1.19"/></g><g style="fill:#fff"><path d="m 15 29.98 c 0 0.71 -0.6 1.29 -1.34 1.29 c -0.74 0 -1.34 -0.58 -1.34 -1.29 c 0 -0.71 0.6 -1.3 1.34 -1.3 c 0.74 0 1.34 0.58 1.34 1.3"/><path d="m 18.23 30.1 c 0 0.72 -0.6 1.3 -1.34 1.3 c -0.74 0 -1.34 -0.58 -1.34 -1.3 c 0 -0.71 0.6 -1.29 1.34 -1.29 c 0.74 0 1.34 0.58 1.34 1.29"/><path d="m 21.61 30.2 c 0 0.71 -0.6 1.29 -1.34 1.29 c -0.74 0 -1.34 -0.58 -1.34 -1.29 c 0 -0.71 0.6 -1.3 1.34 -1.3 c 0.74 0 1.34 0.58 1.34 1.3"/><path d="m 24.92 30.2 c 0 0.71 -0.6 1.29 -1.34 1.29 c -0.74 0 -1.34 -0.58 -1.34 -1.29 c 0 -0.71 0.6 -1.3 1.34 -1.3 c 0.74 0 1.34 0.58 1.34 1.3"/><path d="m 14.16 22.61 h 6.52 c 0.72 0 1.31 0.5 1.31 1.11 c 0 0.61 -0.59 1.11 -1.31 1.11 h -6.52 c -0.72 0 -1.31 -0.5 -1.31 -1.11 c 0 -0.61 0.59 -1.11 1.31 -1.11"/><path d="m 29.2 35.3 h 4.49 c 0.72 0 1.31 0.5 1.31 1.11 c 0 0.61 -0.59 1.11 -1.31 1.11 h -4.49 c -0.73 0 -1.31 -0.5 -1.31 -1.11 c 0 -0.61 0.59 -1.11 1.31 -1.11"/></g><path d="m 35.8 15.36 h 0.13 c 0.72 0 1.31 0.54 1.31 1.19 v 0.31 c 0 0.66 -0.59 1.19 -1.31 1.19 h -0.13 c -0.73 0 -1.31 -0.53 -1.31 -1.19 v -0.31 c 0 -0.66 0.59 -1.19 1.31 -1.19" style="fill:#ff4500"/></svg>