<svg xmlns="http://www.w3.org/2000/svg" viewBox="0 0 48 48"><path d="m 47.61 34.2 c 4.77 -68.4 -87.3 -17.1 -26.68 11.94 c 9.34 4 23.27 1.08 26.68 -11.94" style="fill:#9370db"/><path d="m 25.34 26.1 h 11.53 v 11.18 h -11.53" style="fill:#f4a360"/><path d="m 11.27 22.1 h 11.53 v 11.19 h -11.53" style="fill:#a9a9a9"/><path d="m 20.66 8.96 h 11.53 v 11.19 h -11.53" style="fill:#bcb76a"/><g style="fill:#d41919"><path d="m 21 9.38 c 1.19 0 2.38 0 3.57 0 c -1.21 1.2 -2.3 2.54 -3.55 3.71 c -0.04 -1.31 -0.03 -2.3 -0.03 -3.71"/><path d="m 11.75 22.59 c 1.19 0 2.38 0 3.57 0 c -1.21 1.21 -2.3 2.54 -3.55 3.71 c -0.04 -1.3 -0.03 -2.3 -0.03 -3.71"/><path d="m 25.86 26.59 c 1.19 0 2.38 0 3.57 0 c -1.21 1.21 -2.3 2.54 -3.55 3.71 c -0.04 -1.3 -0.03 -2.3 -0.03 -3.71"/></g></svg>