<svg xmlns="http://www.w3.org/2000/svg" viewBox="0 0 48 48"><path d="m 8.53 42.54 c 17.85 11.68 34.1 2.25 37.99 -10.97 c 5.19 -17.79 -8.46 -41.94 -36.56 -26 c -11.18 6.32 -14.1 28.67 -1.41 36.99" style="fill:#fb8600"/><g style="fill:#fff"><path d="m 17.82 34.4 v 2.16 h -2.3 c -0.42 0 -0.75 0.35 -0.75 0.79 c 0 0.44 0.34 0.79 0.75 0.79 h 8.41 c 0.42 0 0.76 -0.35 0.76 -0.79 c 0 -0.44 -0.34 -0.79 -0.76 -0.79 h -2.3 v -2.16"/><path d="m 9.95 21.67 c -0.36 0 -0.64 0.3 -0.64 0.67 v 12.16 c 0 0.38 0.29 0.67 0.64 0.67 h 19.55 c 0.36 0 0.64 -0.29 0.64 -0.67 v -12.16 c 0 -0.37 -0.29 -0.67 -0.64 -0.67 m -18.3 1.77 h 17 v 9.96 h -17"/><g style="stroke:#fff"><path d="m 134.5 101.9 c 0 0.41 0 0.8 0 1.19 l 2.71 -1.19" transform="matrix(0.153 0 0 0.151 8.75 1.62)"/><g transform="matrix(0.153 0 0 0.151 8.52 1.46)"><path d="m 79.3 172.8 c -2.35 -0.91 -5.22 -4.71 -8.7 -11.61 c -3.27 -6.47 -5.68 -13 -6.6 -18 c -1.41 -7.5 -1.61 -19.43 -0.43 -22.53 c 0.77 -2 1.18 -4.29 1.43 -7.86 c 0.28 -4.19 0.74 -6.34 2.07 -9.86 c 3.38 -8.85 10.46 -18.6 18.77 -25.87 c 7.39 -6.44 12.74 -9.16 15.68 -7.97 c 2 0.8 2.61 0.52 3.91 -1.99 c 1.1 -2.15 2.05 -3.47 2.46 -3.47 c 1.59 0.8 2.92 1.68 4.63 2.48 c 1.43 0.34 0.67 0.72 -0.08 1.6 c -1.84 2.2 -2.33 3.67 -1.61 4.99 c -1.74 14.85 1.61 5.17 -6.34 11.95 c -1 0.83 -3.48 -0.41 -4.94 -0.08 c -2.61 0.59 -9.8 4.24 -14.61 7.45 c -2.63 1.73 -4.99 3.62 -7.42 5.95 c -3.27 3.1 -3.61 3.34 -3.81 2.77 c -0.28 -0.72 -1.28 -1.19 -2.07 -0.98 c -2 0.52 -3.73 6.1 -3.84 12.21 l -0.05 3.39 l 9.64 3.98 c 5.29 2.2 9.9 4.14 10.23 4.35 c 1.94 2.66 4.09 5.33 6.19 6.8 c 2.23 1.53 3.12 2.82 2.86 4.16 c -0.08 0.52 -0.92 1.89 -1.87 3.05 c -0.92 1.16 -2.46 3.6 -3.43 5.35 c -2 3.8 -3.09 4.86 -6.1 6 c -4.96 1.91 -5.96 3.26 -7.09 9.55 c -0.69 2.1 -0.36 3.18 0.46 5.1 c 0.54 1.24 2 4.32 3.27 6.83 c 1.25 2.54 2.28 4.68 2.28 4.76 c -1.71 -0.36 -2.89 -1.47 -4.96 -2.48"/><path d="m 146 162.3 c -1.25 -0.52 -3.04 -3.05 -5 -7.11 c -3.5 -7.17 -4.66 -10.81 -5.93 -18.88 c -0.77 -4.97 -1.18 -6.73 -2.38 -10.32 c -0.92 -4.58 -5.5 -2.66 -9.26 -2.66 c -3.2 0 -6.75 0.98 -8.11 0.18 c -2.71 -3.62 -7.44 -5.77 -6.22 -12.57 c -0.54 -2.3 0.18 -2.74 4.43 -6.57 l 5.91 -5.3 c 6.62 -1.09 6.47 2.28 10.26 2.85 c 1.56 0.26 8.54 1.76 11.25 2.56 c 4.78 1.42 8.57 0.03 9.57 0.03 c 0.69 4.11 0.67 -0.13 0.9 -0.28 c -0.2 -4.35 -2.84 0.85 -8.72 -5.51 l -4.25 -4.55 l -3.04 4.66 c -1.18 1.81 -2.79 -4.71 -5.55 -4 c -1.87 0.49 -3.58 0.96 -3.84 1.06 c -0.36 0.16 -5.7 0.54 -6 -0.44 c -0.36 -1.11 -1.18 -2.59 -0.72 -3.52 c 0.61 -1.22 6.65 -2.04 6.09 -3.1 c -0.23 -0.44 -1.41 -1.68 -2.61 -2.77 c -2.35 -2.12 -2.74 -2.77 -2.23 -3.72 c 0.36 -0.7 2.99 -2 4 -2.04 c 0.82 0 0.84 -0.47 0.03 -0.88 c -0.84 -0.47 -3.73 0.8 -5.91 0.47 c -7.65 -0.65 -0.9 -2.25 -1.05 -4.89 c 0.92 -3.16 3.91 -4.97 4.3 -4.97 c 0.43 0.03 2.35 8.56 1.84 6.36 c -0.43 -1.91 1.18 -0.1 2.56 -1.14 c 2.2 -1.63 7.1 -4.11 12.1 -6.23 c 6.16 -2.59 8.54 -3.34 11.18 -3.52 c 2.89 -0.18 4.09 0.13 8.72 2.41 c 11.94 5.82 23.99 17.51 29.64 28.77 c 4.3 8.61 7.52 19.74 7.24 25 c -0.2 3.67 -1.59 3.93 -4 0.78 c -1.2 -1.53 -1.51 -1.76 -2.48 -1.84 c -0.79 -0.08 -1.36 0.08 -1.94 0.52 c -1.97 1.45 -2.99 2.04 -3.5 2.04 c -0.9 0 -1.61 -0.98 -1.82 -2.56 c -0.26 -1.86 -2.1 -0.49 -2.99 -2.41 c -4.96 -10.5 -9.77 -7.94 -10 -7.86 c -1.23 2.17 -1.74 3.39 6.65 6.1 c 1.66 0.54 3.66 7.92 3.66 8.69 l 0.05 1.11 h -2.07 c -1.84 0.03 -8.24 -0.7 -9.54 0.16 c -1.87 1.19 -13.28 -21.32 -13.63 -18.55 c -0.74 5.41 13.25 18.99 10.82 21.29 c -2.81 2.64 -6.62 16 -6.37 18.2 c 0.18 1.63 -0.13 2.41 -1.23 3 c -0.59 0.34 -1.36 1.53 -2.66 4.09 c -2.35 4.63 -3.5 6.44 -4.63 7.24 c -1.02 0.72 -2.53 1 -3.43 0.62 m 9.59 -65.2 c 2.1 -1.06 2.69 -3.96 1.13 -5.54 c -1.1 -1.06 -2.25 -1.09 -4.4 -0.08 c -1.51 0.7 -1.82 0.75 -4.45 0.59 c -2.3 -0.13 -2.86 -0.08 -3.17 0.28 c -0.31 0.36 -2.89 3.88 -0.92 5.82 c 1.87 1.84 5.47 -0.75 6.52 -0.52 c 1.64 0.39 3.89 0.16 5.29 -0.57"/><path d="m 187 162 c -2.07 -1.32 -3.79 -2.85 -5.93 -4.27 c -1.97 -1.32 -2.38 -1.99 -2.86 -4.73 c -0.54 -2.87 -0.54 -10.4 0 -11 c 0.54 -0.65 1.07 -0.59 2.17 0.18 c 1.89 0.96 3.35 0.57 5.52 0.91 c 0.56 0.18 1.61 0 3.86 -0.67 c 3.61 -1.06 4.68 -1.14 5.09 -0.34 c 1.13 2.07 -0.74 9.75 -4 16.68 c -1.02 1.71 -2.3 3.8 -3.84 3.29"/></g><path d="m -213.6 -11.46 c 9.85 -2.77 10 -4.16 10 -6.83 c 0 -1.78 -0.36 -2.07 -1.56 -1.29 c -1.94 1.22 -2.25 1.32 -2.94 0.96 c -0.36 -0.21 -3.22 1.89 -4.09 0.83 c -1.74 -2.07 0.31 -5.12 -2.46 -3.91 l -1.59 0.7 c 0.03 3.08 0.13 5.12 -1.74 6.54 c 1.43 0.21 2.92 3.41 4.37 3" transform="matrix(-0.153 0 0 0.151 5.53 24.1)"/><g transform="matrix(0.153 0 0 0.151 8.52 1.46)"><path d="m 121.2 196.7 c -4.14 -0.31 -5.7 -0.8 -8.98 -1.71 c -2.92 -0.8 -18.29 -6.36 -19.1 -7.24 c -1.23 -1.37 7.9 -3.26 9.69 -2.3 c 1.89 1.11 10.77 3.23 12.64 2.46 c 7.55 -3.16 7.7 -3.18 11.56 -2.79 c 6.19 0.62 10.69 2.17 12.46 4.32 c 0.79 0.98 15.5 2.87 15.24 3.29 c -0.41 0.65 -4.96 3.72 -24.4 4.89 c -1.97 -0.05 -7.26 -0.75 -9.13 -0.91"/><path d="m 117.7 202.1 c -9 -1.32 -20.82 -6.1 -29.49 -11.87 c -13.76 -9.18 -23.38 -22.1 -29 -38.98 c -2.23 -6.65 -3.22 -13.5 -3.22 -21.96 c 0 -21.47 6.57 -37.77 21.2 -52.4 c 12.66 -12.73 24.86 -18.99 41.62 -21.32 c 2.79 -0.41 5.63 -0.52 12.25 -0.52 c 9.59 0 11.77 0.26 18.49 2.3 c 23.2 7 40 23.36 49.1 47.6 c 2.28 6.1 3.15 10.53 3.68 18.65 c 0.54 8.3 -0.28 17.75 -2.05 23.98 c -3.61 12.65 -10.79 24.94 -20 34.2 c -10 9.98 -23.3 17.1 -36.2 19.4 c -7.78 1.37 -20.46 1.86 -26.3 0.98 m 21.46 -2.3 c 15.47 -2.41 29.1 -9.18 39.72 -19.71 c 3.43 -3.41 6 -6.65 9.18 -11.38 c 6.65 -10 10.23 -19.74 11.54 -31.2 c 0.51 -4.5 0.41 -14.9 -0.15 -19.1 c -2.17 -16.1 -8.88 -29.1 -21.46 -41.57 c -9.23 -9.13 -16.75 -13.4 -30.51 -17.41 c -7.1 -2.04 -9 -2.25 -18.83 -2.1 c -8.88 0.13 -12.1 0.52 -18.1 2.07 c -10.97 2.85 -21.36 8.82 -30.72 17.67 c -2.28 2.15 -7.09 7.53 -9 10.1 c -4.68 6.29 -8.36 14.69 -10.9 25 c -1.43 5.79 -1.74 10.27 -1.33 18.81 c 0.79 16.63 3.89 27 11.28 38.1 c 10.95 16.35 30.64 28.56 49.9 30.89 c 6.37 0.75 13 0.78 19.41 -0.1"/><path d="m 114.8 68.3 c -1.1 -0.96 0.97 -3.7 0.97 -4.45 c 0 -0.57 1.15 -1 3.99 -1.5 c 2.79 -0.49 5.86 -0.57 6.5 -0.18 c -0.15 2.64 -3.73 5.1 -6.22 5.46 c -1.25 0 -4.6 1.24 -5.24 0.67"/></g></g><path d="m 12.48 24.48 h 2.71 v 2.13 h -2.71"/></g></svg>