<svg xmlns="http://www.w3.org/2000/svg" viewBox="0 0 48 48"><path d="m 0.49 29.53 c 2.25 19.32 28.3 24.49 40.3 10.7 c 10.56 -10.25 8.74 -29.86 -3.51 -36.59 c -14 -9 -35.3 2.13 -37.1 20 c -0.19 1.96 -0.1 3.95 0.3 5.85" style="fill:#4581b3"/><path d="m 29 12.71 h 6.1 c 1.49 0 2.7 1.27 2.7 2.84 v 5.51 c 0 1.57 -1.21 2.85 -2.7 2.85 h -6.1 c -1.49 0 -2.7 -1.27 -2.7 -2.85 v -5.51 c 0 -1.57 1.21 -2.84 2.7 -2.84" style="fill:#00bfff"/><path d="m 14.1 18.54 h 12 c 1.49 0 2.7 1.27 2.7 2.84 v 11.18 c 0 1.57 -1.21 2.84 -2.7 2.84 h -12 c -1.49 0 -2.7 -1.27 -2.7 -2.84 v -11.18 c 0 -1.57 1.2 -2.84 2.7 -2.84" style="fill:#b0c3de"/><path d="m 15.17 21 c 0 0.6 -0.48 1.08 -1.07 1.08 c -0.59 0 -1.07 -0.48 -1.07 -1.08 c 0 -0.6 0.48 -1.08 1.07 -1.08 c 0.59 0 1.07 0.48 1.07 1.08" style="fill:#fff"/><path d="m 18.23 21.1 c 0 0.6 -0.48 1.08 -1.07 1.08 c -0.59 0 -1.07 -0.48 -1.07 -1.08 c 0 -0.6 0.48 -1.08 1.07 -1.08 c 0.59 0 1.07 0.48 1.07 1.08" style="fill:#fffafa"/><path d="m 21.1 21.1 c 0 0.6 -0.48 1.08 -1.07 1.08 c -0.59 0 -1.07 -0.48 -1.07 -1.08 c 0 -0.6 0.48 -1.08 1.07 -1.08 c 0.59 0 1.07 0.48 1.07 1.08" style="fill:#ffe4e0"/><g style="fill:#eff8ff"><path d="m 29.78 15 c 0 0.5 -0.39 0.89 -0.88 0.89 c -0.49 0 -0.88 -0.4 -0.88 -0.89 c 0 -0.5 0.39 -0.89 0.88 -0.89 c 0.48 0 0.88 0.4 0.88 0.89"/><path d="m 32.38 15 c 0 0.5 -0.39 0.89 -0.88 0.89 c -0.48 0 -0.88 -0.4 -0.88 -0.89 c 0 -0.5 0.39 -0.89 0.88 -0.89 c 0.48 0 0.88 0.4 0.88 0.89"/></g></svg>