<svg xmlns="http://www.w3.org/2000/svg" viewBox="0 0 48 48"><path d="m 6.08 12.58 c -16.98 19.2 8.15 39.47 22.88 34.48 c 14.72 -4.99 24.61 -19.1 15 -31.42 c -9.61 -12.35 -19.1 -24.3 -36 -5.08" style="fill:#ffd600"/><path d="m 13.58 36.44 v -2 l 0.45 -0.44 c 0.25 -0.24 0.94 -0.73 1.55 -1.1 c 1.85 -1.11 4.96 -3.21 5.3 -3.57 c 0.82 -0.86 0.96 -0.34 0.96 3.54 v 3.18 l -1 0.25 c -0.55 0.14 -1.21 0.36 -1.48 0.49 c -0.27 0.13 -0.82 0.31 -1.22 0.39 c -0.41 0.09 -0.9 0.25 -1.1 0.36 c -0.2 0.11 -0.62 0.27 -0.93 0.34 c -0.31 0.08 -0.65 0.23 -0.74 0.34 c -0.11 0.14 -0.43 0.21 -0.98 0.21 h -0.81 v -2 m 9.77 1.57 c 0 -0.31 -0.13 -0.55 -0.46 -0.86 c -0.25 -0.24 -0.53 -0.56 -0.62 -0.72 c -0.14 -0.26 -0.11 -0.3 0.32 -0.45 c 0.27 -0.09 0.55 -0.28 0.63 -0.43 c 0.09 -0.17 0.13 -1.26 0.12 -2.83 c -0.01 -1.41 0.02 -2.66 0.07 -2.79 c 0.19 -0.46 0.92 -0.46 1.11 0 c 0.05 0.13 0.09 1.38 0.07 2.79 c -0.02 1.57 0.03 2.66 0.12 2.83 c 0.08 0.15 0.36 0.34 0.63 0.43 c 0.44 0.14 0.47 0.19 0.32 0.45 c -0.09 0.16 -0.36 0.48 -0.62 0.72 c -0.33 0.31 -0.46 0.55 -0.46 0.86 c 0 0.42 -0.02 0.43 -0.62 0.43 c -0.6 0 -0.62 -0.01 -0.62 -0.43 m 9.22 0.22 c -0.09 -0.11 -0.43 -0.27 -0.74 -0.34 c -0.31 -0.08 -0.73 -0.23 -0.93 -0.34 c -0.2 -0.11 -0.7 -0.27 -1.1 -0.36 c -0.41 -0.09 -0.96 -0.26 -1.22 -0.39 c -0.27 -0.13 -0.93 -0.35 -1.48 -0.49 l -1 -0.25 v -3.18 c 0 -3.88 0.14 -4.41 0.96 -3.54 c 0.34 0.36 3.46 2.46 5.3 3.57 c 0.61 0.36 1.3 0.86 1.55 1.1 l 0.45 0.44 v 4 h -0.81 c -0.55 0 -0.86 -0.07 -0.98 -0.2 m -11.1 -10.55 c -0.05 -0.12 -0.09 -2.67 -0.09 -5.67 c 0 -5.9 0.07 -6.54 0.77 -7.74 c 0.18 -0.31 0.33 -0.77 0.33 -1.02 c 0 -0.25 0.15 -0.7 0.32 -1.01 c 0.3 -0.52 0.34 -0.8 0.48 -3.76 c 0.15 -3.13 0.23 -3.58 0.64 -3.58 c 0.41 0 0.5 0.45 0.64 3.58 c 0.14 2.95 0.18 3.24 0.48 3.76 c 0.18 0.31 0.32 0.76 0.32 1.01 c 0 0.25 0.15 0.71 0.33 1.02 c 0.71 1.21 0.77 1.84 0.77 7.74 c 0 3 -0.04 5.55 -0.08 5.67 c -0.07 0.18 -0.42 0.21 -2.46 0.21 c -2.04 0 -2.39 -0.03 -2.46 -0.21" style="fill:#fff"/></svg>