<svg xmlns="http://www.w3.org/2000/svg" viewBox="0 0 48 48"><path d="m 0.17 24.53 c 0.38 -4.95 2.75 -10.74 6 -14.77 c 4 -4.91 10.13 -8.51 16.2 -9.47 c 7.98 -1.15 16.55 3.48 20.63 8.72 c 1.98 2.63 3.56 6.11 4.25 9.37 c 1.8 8.5 -1.61 17.36 -8.99 23.44 c -4.43 3.64 -8.89 5.53 -14.18 5.99 c -6.33 0.55 -13.1 -1.95 -17.7 -6.53 c -4.31 -5.2 -6.65 -10.55 -6.21 -16.72" style="fill:#b0dfe5"/><path d="m 22.86 38.9 c -4.53 -0.57 -8.44 -3.11 -10.84 -7 c -2.88 -4.7 -2.88 -10.75 0 -15.45 c 3.45 -5.65 9.98 -8.3 16.3 -6.63 c 5.31 1.4 9.47 5.84 10.62 11.32 c 0.52 2.46 0.31 5.64 -0.51 7.96 c -1.52 4.27 -4.96 7.72 -9.13 9.13 c -1.98 0.67 -4.52 0.95 -6.45 0.71 m 5.81 -7 c 4.68 -1.25 7.76 -6 6.98 -10.85 c -0.54 -3.4 -2.88 -6.33 -5.98 -7.52 c -1.79 -0.68 -3.44 -0.85 -5.14 -0.52 c -4.85 0.94 -8.21 5.2 -7.9 10 c 0.1 1.51 0.36 2.5 1.01 3.83 c 1.3 2.65 3.72 4.53 6.65 5.15 c 1.05 0.23 3.29 0.16 4.38 -0.13" style="fill:#5485d0"/><path d="m 21 39.3 c -2.11 -0.33 -4.19 -1.16 -5.94 -2.34 c -1.1 -0.75 -2.95 -2.6 -3.72 -3.73 c -3.98 -5.82 -3.29 -13.7 1.65 -18.7 c 4.88 -4.94 12.61 -5.69 18.34 -1.79 c 1.86 1.27 3.82 3.53 4.84 5.6 c 1.04 2.09 1.46 3.98 1.46 6.53 c 0 2.55 -0.42 4.43 -1.46 6.53 c -1.02 2.07 -2.98 4.33 -4.84 5.59 c -2.99 2.03 -6.77 2.88 -10.34 2.32 m 8.35 -7.34 c 1.54 -0.77 3.36 -2.59 4.16 -4.16 c 1.68 -3.3 1.42 -7.27 -0.69 -10.25 c -1.44 -2.04 -3.58 -3.45 -5.97 -3.95 c -4.88 -1.02 -9.63 1.75 -11.29 6.58 c -0.53 2.15 -0.61 4.3 0.04 6.17 c 0.52 1.47 1.07 2.4 2.13 3.55 c 1.91 2.09 4.22 3.12 7.1 3.13 c 1.65 0.02 3.11 -0.36 4.55 -1.07" style="fill:#86c0c1"/></svg>