<svg xmlns="http://www.w3.org/2000/svg" viewBox="0 0 48 48"><path d="m 24.45 47.74 c -4.95 -0.39 -10.74 -2.75 -14.77 -6 c -4.91 -4 -8.51 -10.12 -9.47 -16.2 c -1.15 -7.98 3.48 -16.56 8.72 -20.63 c 2.63 -1.98 6.11 -3.56 9.37 -4.25 c 8.5 -1.8 17.36 1.61 23.44 8.99 c 3.64 4.43 5.53 8.89 5.99 14.18 c 0.55 6.33 -1.95 13.1 -6.52 17.7 c -5.2 4.31 -10.56 6.65 -16.73 6.21" style="fill:#007c89"/><g style="fill:#fff"><path d="m 16.72 18.9 l 4 -2.89 v 16.54 l -4 -2.89 v -10.75"/><g style="fill-rule:evenodd"><path d="m 27.3 25.45 v -9.43 l 4 2.89 v 10.75 l -4 2.89 l -9.73 -14.2 l 3.26 -2.33 l 6.48 9.43"/><path d="m 30.1 35.1 c 0.62 -0.36 1.41 -0.14 1.76 0.48 c 0.36 0.63 0.14 1.43 -0.47 1.79 c -2.4 1.41 -5.13 2.1 -7.88 2 c -2.5 -0.09 -4.93 -0.82 -7.09 -2.13 c -0.61 -0.37 -0.81 -1.18 -0.45 -1.8 c 0.36 -0.62 1.16 -0.82 1.76 -0.45 c 1.77 1.09 3.78 1.69 5.85 1.76 c 2.28 0.08 4.53 -0.49 6.5 -1.66 m 4.84 -16.35 c -0.32 -0.65 -0.06 -1.44 0.57 -1.76 c 0.63 -0.33 1.4 -0.06 1.72 0.59 c 1.1 2.25 1.63 4.74 1.55 7.25 c -0.06 1.91 -0.48 3.78 -1.23 5.55 c -0.29 0.66 -1.05 0.97 -1.7 0.68 c -0.65 -0.29 -0.95 -1.07 -0.66 -1.73 c 0.63 -1.44 0.97 -3 1.02 -4.58 c 0.07 -2.08 -0.37 -4.13 -1.28 -5.99 m -16.21 -5.66 c -0.64 0.31 -1.41 0.04 -1.72 -0.62 c -0.31 -0.66 -0.04 -1.44 0.6 -1.75 c 2.15 -1.06 4.52 -1.57 6.91 -1.48 c 2.3 0.08 4.56 0.71 6.58 1.83 c 0.62 0.34 0.86 1.14 0.51 1.79 c -0.34 0.64 -1.12 0.87 -1.75 0.52 c -1.67 -0.93 -3.53 -1.45 -5.43 -1.52 c -1.97 -0.07 -3.93 0.35 -5.7 1.23 m -6.29 15.22 c 0.23 0.69 -0.14 1.43 -0.81 1.66 c -0.67 0.23 -1.4 -0.14 -1.63 -0.83 c -0.55 -1.71 -0.81 -3.5 -0.75 -5.3 c 0.08 -2.37 0.7 -4.7 1.83 -6.79 c 0.34 -0.63 1.12 -0.86 1.74 -0.51 c 0.62 0.35 0.85 1.15 0.51 1.79 c -0.93 1.72 -1.45 3.64 -1.52 5.6 c -0.05 1.49 0.16 2.97 0.62 4.39 m 22.64 -13.5 c -0.02 0.73 -0.62 1.29 -1.33 1.26 c -0.71 -0.02 -1.27 -0.63 -1.23 -1.36 c 0.03 -0.72 0.62 -1.29 1.33 -1.26 c 0.71 0.02 1.26 0.63 1.23 1.36 m -20.1 18.2 c -0.03 0.73 -0.62 1.29 -1.33 1.26 c -0.71 -0.02 -1.26 -0.63 -1.23 -1.36 c 0.02 -0.72 0.62 -1.29 1.33 -1.26 c 0.71 0.02 1.26 0.63 1.23 1.36 m 20.57 0.72 c 0.02 -0.72 -0.53 -1.33 -1.23 -1.36 c -0.71 -0.02 -1.3 0.54 -1.33 1.26 c -0.02 0.72 0.53 1.34 1.23 1.36 c 0.71 0.02 1.3 -0.54 1.33 -1.26 m -19.65 -19.56 c 0.02 -0.73 -0.53 -1.34 -1.23 -1.36 c -0.71 -0.03 -1.3 0.54 -1.33 1.26 c -0.03 0.72 0.53 1.33 1.23 1.36 c 0.71 0.02 1.3 -0.54 1.33 -1.26"/></g></g></svg>