<svg xmlns="http://www.w3.org/2000/svg" viewBox="0 0 48 48"><path d="m 0.75 23.89 c -3.29 -31.51 49.7 -31.3 46.8 0.82 c 2.34 30.2 -50.75 31.46 -46.8 -0.82" style="fill:#778799"/><path d="m 13 15.1 h 22.34 c 2.28 0 4.12 1.44 4.12 3.22 v 12.32 c 0 1.78 -1.84 3.22 -4.12 3.22 h -22.34 c -2.28 0 -4.13 -1.44 -4.13 -3.22 v -12.32 c 0 -1.78 1.85 -3.22 4.13 -3.22" style="fill:#3d3745"/><g style="fill:#a3a2a5"><path d="m 20.68 28.92 h 6.51 c 0.91 0 1.66 0.65 1.66 1.45 c 0 0.8 -0.74 1.45 -1.66 1.45 h -6.51 c -0.92 0 -1.66 -0.65 -1.66 -1.45 c 0 -0.8 0.74 -1.45 1.66 -1.45"/><path d="m 36.46 22.78 c 0 2.78 -2.26 5 -5.1 5 c -2.79 0 -5.1 -2.25 -5.1 -5 c 0 -2.78 2.26 -5 5.1 -5 c 2.79 0 5.1 2.25 5.1 5"/><path d="m 22.48 22.64 c 0 2.78 -2.26 5 -5.1 5 c -2.79 0 -5.1 -2.25 -5.1 -5 c 0 -2.78 2.26 -5 5.1 -5 c 2.79 0 5.1 2.26 5.1 5"/></g><g style="fill:#e36396"><path d="m 20.96 22.71 c 0 1.98 -1.58 3.59 -3.53 3.59 c -1.95 0 -3.53 -1.61 -3.53 -3.59 c 0 -1.98 1.58 -3.59 3.53 -3.59 c 1.95 0 3.53 1.61 3.53 3.59"/><path d="m 34.8 22.71 c 0 1.98 -1.58 3.59 -3.53 3.59 c -1.95 0 -3.53 -1.61 -3.53 -3.59 c 0 -1.98 1.58 -3.59 3.53 -3.59 c 1.95 0 3.53 1.61 3.53 3.59"/></g><path d="m 13.1 17.95 c 0 0.8 -0.65 1.45 -1.45 1.45 c -0.8 0 -1.45 -0.65 -1.45 -1.45 c 0 -0.8 0.65 -1.45 1.45 -1.45 c 0.8 0 1.45 0.65 1.45 1.45" style="fill:#3ccd80"/></svg>