<svg xmlns="http://www.w3.org/2000/svg" viewBox="0 0 48 48"><path d="m 0.56 29.48 c 2.97 19.37 29.42 24.56 41.1 10.72 c 10.28 -10.27 7.73 -29.94 -4.89 -36.69 c -14.48 -9 -35.57 2.13 -36.71 20.1 c -0.12 1.97 0.05 3.96 0.52 5.87" style="fill:#fc561f"/><path d="m 21.97 27.1 h -3.37 l 5.61 8.17 l 5.62 -8.17 h -3.37 v -5.23 h 3.37 l -5.62 -8.17 l -5.61 8.17 h 3.37 v 5.23 m 8.19 8.11 c 0.6 -0.36 1.37 -0.14 1.72 0.48 c 0.35 0.63 0.14 1.41 -0.46 1.78 c -2.34 1.4 -5 2.08 -7.68 1.99 c -2.44 -0.09 -4.8 -0.82 -6.91 -2.11 c -0.59 -0.37 -0.79 -1.17 -0.43 -1.79 c 0.36 -0.62 1.13 -0.82 1.72 -0.45 c 1.73 1.08 3.69 1.67 5.71 1.75 c 2.22 0.08 4.42 -0.49 6.34 -1.65 m 4.72 -16.22 c -0.31 -0.64 -0.06 -1.43 0.56 -1.75 c 0.62 -0.32 1.37 -0.06 1.68 0.59 c 1.07 2.23 1.59 4.7 1.51 7.19 c -0.06 1.9 -0.47 3.74 -1.2 5.5 c -0.28 0.66 -1.02 0.96 -1.65 0.67 c -0.64 -0.29 -0.93 -1.06 -0.65 -1.71 c 0.61 -1.43 0.94 -2.98 1 -4.54 c 0.07 -2.06 -0.36 -4.1 -1.24 -5.94 m -15.82 -5.61 c -0.63 0.31 -1.38 0.04 -1.68 -0.61 c -0.3 -0.65 -0.04 -1.43 0.58 -1.74 c 2.1 -1.05 4.41 -1.55 6.74 -1.47 c 2.24 0.08 4.45 0.7 6.42 1.82 c 0.6 0.34 0.84 1.14 0.5 1.77 c -0.33 0.62 -1.09 0.86 -1.71 0.52 c -1.63 -0.92 -3.44 -1.43 -5.29 -1.5 c -1.92 -0.07 -3.83 0.35 -5.56 1.22 m -6.14 15.1 c 0.22 0.68 -0.13 1.42 -0.79 1.65 c -0.65 0.23 -1.37 -0.14 -1.59 -0.82 c -0.54 -1.69 -0.79 -3.47 -0.73 -5.26 c 0.08 -2.35 0.68 -4.67 1.79 -6.73 c 0.33 -0.63 1.09 -0.86 1.7 -0.51 c 0.6 0.35 0.83 1.14 0.49 1.77 c -0.91 1.71 -1.41 3.61 -1.48 5.56 c -0.05 1.48 0.16 2.95 0.6 4.35 m 22.1 -13.39 c -0.02 0.71 -0.6 1.28 -1.3 1.25 c -0.69 -0.02 -1.23 -0.62 -1.2 -1.35 c 0.02 -0.71 0.6 -1.28 1.3 -1.25 c 0.69 0.02 1.23 0.63 1.2 1.35 m -19.58 18 c -0.02 0.72 -0.6 1.28 -1.3 1.25 c -0.69 -0.02 -1.23 -0.62 -1.2 -1.35 c 0.02 -0.71 0.6 -1.28 1.3 -1.25 c 0.69 0.02 1.23 0.63 1.2 1.35 m 20.1 0.71 c 0.02 -0.72 -0.52 -1.32 -1.2 -1.35 c -0.69 -0.02 -1.27 0.54 -1.3 1.25 c -0.02 0.72 0.52 1.32 1.2 1.35 c 0.69 0.03 1.27 -0.54 1.3 -1.25 m -19.2 -19.4 c 0.02 -0.71 -0.52 -1.32 -1.2 -1.35 c -0.69 -0.02 -1.27 0.54 -1.3 1.25 c -0.02 0.71 0.52 1.32 1.2 1.35 c 0.69 0.02 1.27 -0.54 1.3 -1.25" style="fill:#fff;fill-rule:evenodd"/></svg>