<svg xmlns="http://www.w3.org/2000/svg" viewBox="0 0 48 48"><path d="m 19.39 46.97 c -4.38 -1.87 -10.47 -4.62 -11 -4.98 c -0.33 -0.22 -0.89 -0.77 -1.24 -1.23 c -1 -1.31 -6.39 -10.73 -6.62 -11.57 c -0.22 -0.78 -0.12 -3.62 0.21 -6.18 c 0.75 -7.58 0.37 -7.41 1.37 -9 c 0.21 -0.44 2.36 -2.95 4.77 -5.57 c 4.64 -5 5.13 -5.45 7.09 -5.83 c 5.27 -0.91 8.6 -2.03 13.33 -2.31 c 4.21 1.8 8.75 3.68 12.73 5.93 c 0.62 0.53 1.54 1.93 3.62 5.46 c 4.24 7.24 3.9 6.45 3.88 8.98 c -0.43 3.94 -0.4 10.52 -1.77 13.31 c -0.47 0.88 -6.66 7.86 -8.61 9.72 c -0.97 0.92 -1.95 1.34 -4.21 1.81 c -2.29 0.85 -7.66 1.73 -9.5 2.08 c -1.06 0.25 -2.3 0.16 -4 -0.58" style="fill:#556c9e"/><path d="m 20.3 42.3 c -2.7 -1.76 -3.18 -1.96 -6.69 -2.7 c -3.53 -0.74 -4.16 -1.38 -4.89 -4.89 c -0.7 -3.41 -0.83 -3.73 -2.32 -6 c -1.8 -2.74 -2.06 -3.25 -2.08 -4.17 c -0.01 -1.05 0.42 -1.99 2 -4.38 c 1.56 -2.35 1.75 -2.81 2.37 -5.9 c 0.53 -2.6 1.07 -3.75 2.04 -4.31 c 0.37 -0.21 1.79 -0.61 3.15 -0.89 c 3 -0.59 3.5 -0.8 5.9 -2.35 c 3.92 -2.54 4.76 -2.53 8.59 0.05 c 1.79 1.21 2.97 1.69 5.16 2.13 c 1.93 0.38 3.49 0.87 4.13 1.28 c 0.72 0.47 1.25 1.68 1.79 4.14 c 0.67 3 1.1 4.07 2.47 6 c 1.41 2 1.79 2.85 1.78 4 c 0 1.08 -0.52 2.27 -1.76 4 c -1.46 2.09 -1.96 3.25 -2.41 5.62 c -0.47 2.46 -0.81 3.42 -1.48 4.14 c -0.7 0.75 -1.29 0.98 -4.08 1.58 c -2.77 0.59 -3.79 1.03 -6.18 2.64 c -1.93 1.3 -2.68 1.61 -3.93 1.61 c -0.92 0 -1.26 -0.16 -3.56 -1.66" style="fill:#002370"/><g style="fill:#fff"><path d="m 12.51 31.67 c -0.67 -0.2 -1.14 -0.48 -1.62 -0.96 c -1.11 -1.12 -1.42 -2.81 -0.91 -4.87 c 0.14 -0.54 0.24 -0.64 0.47 -0.43 c 0.28 0.26 0.38 0.7 0.45 1.99 c 0.04 0.66 0.11 1.37 0.16 1.57 c 0.25 0.95 0.9 1.42 2.23 1.62 c 0.77 0.11 0.97 0.2 1.27 0.49 c 0.42 0.42 0.09 0.66 -0.95 0.69 c -0.52 0.02 -0.79 -0.01 -1.1 -0.1"/><path d="m 18.75 36.66 c -0.75 -0.04 -1.09 -0.09 -1.55 -0.23 c -1.74 -0.55 -3.61 -1.89 -4.5 -3.23 c -0.6 -0.9 -0.63 -1.14 -0.14 -1.14 c 0.41 0 0.59 0.13 1.47 1.02 c 1.25 1.27 2.3 1.92 3.73 2.32 c 0.56 0.16 0.83 0.19 2.32 0.23 c 1.67 0.06 2 0.1 2.48 0.35 c 0.43 0.22 0.4 0.39 -0.11 0.54 c -0.24 0.07 -2.24 0.22 -2.61 0.2 c -0.07 0 -0.57 -0.03 -1.1 -0.06"/><path d="m 18.7 33.73 c -1.36 -0.75 -4.28 -3.19 -4.93 -4.13 c -0.18 -0.26 -0.2 -0.34 -0.17 -0.61 c 0.03 -0.29 0.13 -0.43 0.3 -0.43 c 0.15 0 0.66 0.4 1.65 1.31 c 1.23 1.14 1.91 1.71 2.73 2.29 c 0.96 0.68 1.07 0.8 1.07 1.13 c 0 0.34 -0.11 0.63 -0.22 0.63 c -0.05 0 -0.24 -0.09 -0.43 -0.19"/><path d="m 16.2 29.98 c -0.1 -0.09 -0.18 -0.23 -0.18 -0.3 c 0 -0.07 0.14 -0.47 0.3 -0.88 c 0.5 -1.21 0.69 -2.14 0.87 -4.13 l 0.08 -0.91 h 0.4 c 0.49 0 0.51 0.04 0.58 0.79 c 0.08 0.95 -0.25 2.93 -0.68 4.07 c -0.22 0.58 -0.63 1.29 -0.81 1.42 c -0.21 0.15 -0.35 0.13 -0.55 -0.06"/><path d="m 12.28 30 c -0.35 -0.25 -0.45 -0.78 -0.26 -1.33 c 0.38 -1.07 1.97 -2.46 3.34 -2.92 c 0.85 -0.28 1 -0.29 1.2 -0.09 c 0.39 0.39 0.11 0.74 -0.93 1.16 c -1.13 0.46 -1.79 0.99 -2.27 1.81 c -0.12 0.22 -0.35 0.63 -0.51 0.91 c -0.16 0.28 -0.32 0.52 -0.36 0.53 c -0.04 0.01 -0.14 -0.02 -0.22 -0.09"/><path d="m 11.91 27.1 c -0.97 -1 -2.25 -4.73 -2.16 -6.29 c 0.05 -1 0.68 -2.55 1.2 -2.95 c 0.18 -0.14 0.19 -0.14 0.27 -0.03 c 0.13 0.18 0.11 0.97 -0.04 1.48 c -0.21 0.71 -0.22 0.8 -0.22 1.74 c 0 1.36 0.16 1.94 1.13 4.09 c 0.62 1.38 0.7 1.63 0.59 1.87 c -0.16 0.39 -0.45 0.42 -0.77 0.09"/><path d="m 11.57 23.1 c -0.22 -0.51 -0.23 -0.69 -0.07 -1.02 c 0.41 -0.79 1.55 -2.4 2.19 -3.09 c 0.32 -0.34 0.4 -0.4 0.62 -0.4 c 0.14 0 0.32 0.05 0.4 0.11 c 0.3 0.21 0.21 0.42 -0.65 1.59 c -0.45 0.6 -1.13 1.55 -1.52 2.1 c -0.39 0.55 -0.74 1 -0.78 1 c -0.04 0 -0.13 -0.14 -0.2 -0.3"/><path d="m 12 19.95 c -0.18 -0.29 -0.32 -0.89 -0.32 -1.43 c 0 -1.36 0.72 -2.86 1.99 -4.12 c 1.31 -1.31 3.24 -2.22 5.14 -2.44 c 0.54 -0.06 0.71 0.02 0.71 0.35 c 0 0.46 -0.18 0.59 -1.23 0.86 c -0.88 0.21 -1.35 0.39 -2.06 0.76 c -0.83 0.43 -1.42 0.87 -2.04 1.52 c -0.86 0.91 -1.17 1.6 -1.36 3.07 c -0.12 0.91 -0.14 0.98 -0.32 1.26 c -0.21 0.3 -0.38 0.36 -0.49 0.17"/><path d="m 17.1 21.71 c -0.21 -0.23 -0.34 -0.46 -0.57 -1.09 c -0.46 -1.22 -1.21 -1.99 -2.41 -2.46 c -0.72 -0.29 -0.93 -0.39 -0.93 -0.48 c 0 -0.05 0.13 -0.25 0.27 -0.46 l 0.27 -0.38 l 0.54 0.17 c 0.95 0.3 1.46 0.59 1.98 1.14 c 0.68 0.72 1.26 1.76 1.5 2.7 c 0.18 0.7 0.11 0.95 -0.27 1.03 c -0.17 0.03 -0.24 0 -0.39 -0.16"/><path d="m 16.2 17.53 c -0.08 -0.06 -0.2 -0.19 -0.25 -0.3 c -0.09 -0.17 -0.09 -0.2 0.05 -0.36 c 0.2 -0.23 0.88 -0.75 1.77 -1.34 c 2.19 -1.45 3.44 -2 4.35 -1.93 c 0.36 0.04 0.88 0.26 0.88 0.39 c 0 0.03 -0.3 0.18 -0.67 0.35 c -1.66 0.73 -2.94 1.42 -4.45 2.42 c -1.02 0.68 -1.36 0.88 -1.46 0.88 c -0.03 0 -0.13 -0.05 -0.21 -0.11"/><path d="m 28.2 22.99 c -3.66 -0.96 -6.66 -3.27 -7.93 -6.09 c -0.36 -0.79 -0.35 -0.92 0.02 -1.19 c 0.16 -0.11 0.33 -0.2 0.39 -0.19 c 0.1 0.02 0.33 0.39 0.93 1.49 c 0.92 1.66 2.44 3 4.45 3.99 c 1.13 0.54 1.88 0.81 2.67 0.97 c 0.98 0.2 1.17 0.4 0.89 0.95 c -0.13 0.25 -0.16 0.28 -0.4 0.28 c -0.14 0 -0.6 -0.09 -1.03 -0.2"/><path d="m 26.38 14.51 c -0.15 -0.05 -0.63 -0.21 -1.05 -0.37 c -0.86 -0.32 -1.42 -0.46 -2.69 -0.73 c -1.04 -0.21 -1.17 -0.29 -1.17 -0.64 c 0 -0.69 0.53 -0.72 2.75 -0.14 c 1.59 0.41 2.56 0.8 2.78 1.11 c 0.12 0.18 0.14 0.55 0.04 0.75 c -0.08 0.15 -0.26 0.16 -0.65 0.03"/><path d="m 19.93 13.63 c -0.18 -0.14 -0.1 -0.85 0.16 -1.43 c 0.98 -2.15 3.07 -3.23 5.17 -2.67 c 0.45 0.12 0.86 0.35 1.5 0.82 c 0.91 0.68 1.14 1.13 0.66 1.26 c -0.36 0.1 -0.66 0 -1.33 -0.45 c -0.77 -0.51 -1.25 -0.69 -1.85 -0.69 c -0.73 0 -1.31 0.21 -1.99 0.74 c -0.46 0.37 -0.63 0.57 -1.12 1.4 c -0.41 0.7 -0.59 0.91 -0.89 1.02 c -0.13 0.05 -0.21 0.05 -0.3 -0.02"/><path d="m 35.3 16.54 c -0.15 -0.07 -0.63 -0.5 -1.08 -0.95 c -1.09 -1.11 -2.18 -1.83 -3.45 -2.27 c -0.41 -0.14 -0.7 -0.18 -1.99 -0.23 c -2.23 -0.1 -3.26 -0.3 -3.32 -0.63 c -0.05 -0.29 1.12 -0.46 3.04 -0.46 c 2.1 0 3.27 0.33 4.85 1.36 c 1.11 0.72 2.8 2.66 2.73 3.12 c -0.03 0.21 -0.4 0.24 -0.78 0.06"/><path d="m 24.92 19.97 c -0.16 -0.11 -0.29 -0.24 -0.29 -0.28 c 0 -0.04 0.28 -0.38 0.62 -0.77 c 1.4 -1.58 1.96 -2.7 2.13 -4.26 c 0.09 -0.85 0.12 -0.94 0.29 -1.14 c 0.36 -0.39 0.8 -0.21 0.94 0.37 c 0.16 0.64 -0.21 2.12 -0.86 3.41 c -0.67 1.33 -1.98 2.87 -2.46 2.87 c -0.05 0 -0.22 -0.09 -0.38 -0.21"/><path d="m 17.38 23.3 c -0.11 -0.01 -0.45 -0.06 -0.75 -0.1 c -1.08 -0.14 -2.44 -0.69 -2.88 -1.15 c -0.23 -0.24 -0.25 -0.4 -0.09 -0.65 c 0.2 -0.3 0.36 -0.3 1.11 0.04 c 1.21 0.54 1.78 0.66 3.09 0.67 c 1.3 0 2.27 -0.21 3.9 -0.86 c 0.97 -0.38 1.26 -0.41 1.58 -0.12 c 0.21 0.19 0.22 0.2 0.11 0.38 c -0.51 0.78 -4.61 1.99 -6.1 1.79"/><path d="m 27.32 32.95 c -0.11 -0.16 -0.32 -0.52 -0.46 -0.81 c -0.72 -1.45 -1.79 -2.66 -3.15 -3.56 c -1.25 -0.84 -2.23 -1.28 -4.05 -1.83 c -1.15 -0.35 -1.44 -0.68 -0.95 -1.07 c 0.22 -0.18 0.56 -0.18 1.25 0 c 2.48 0.64 4.89 2 6.3 3.61 c 0.91 1.02 1.84 2.59 1.93 3.24 c 0.04 0.25 0.02 0.31 -0.17 0.5 c -0.29 0.29 -0.45 0.27 -0.69 -0.08"/><path d="m 24.98 27.6 c -0.2 -0.2 -0.2 -0.21 -0.11 -0.4 c 0.2 -0.38 1.33 -0.91 2.78 -1.31 c 1.58 -0.44 2.88 -0.57 3.93 -0.39 c 1.13 0.2 2.04 0.51 2.6 0.89 c 0.61 0.41 0.68 0.58 0.38 0.94 c -0.22 0.26 -0.33 0.25 -1.22 -0.15 c -1.05 -0.47 -1.49 -0.55 -2.79 -0.56 c -1.54 0 -2.42 0.18 -4.1 0.86 c -0.99 0.4 -1.19 0.41 -1.48 0.13"/><path d="m 30.2 24.96 c -0.13 -0.09 -0.13 -0.19 -0.13 -1.19 c 0 -0.6 0.05 -1.31 0.09 -1.6 c 0.39 -2.35 1.43 -4.07 2.06 -3.43 c 0.2 0.2 0.17 0.38 -0.17 1.08 c -0.55 1.13 -0.71 1.79 -0.9 3.71 c -0.05 0.58 -0.12 1.13 -0.14 1.22 c -0.07 0.28 -0.55 0.4 -0.82 0.21"/><path d="m 31.65 23 c -0.11 -0.2 -0.08 -0.52 0.05 -0.69 c 0.07 -0.08 0.46 -0.29 0.88 -0.48 c 0.42 -0.18 0.9 -0.43 1.07 -0.54 c 0.86 -0.59 1.47 -1.33 1.71 -2.05 c 0.19 -0.56 0.39 -0.73 0.66 -0.55 c 0.28 0.18 0.46 0.52 0.41 0.8 c -0.05 0.36 -0.51 1.19 -0.92 1.69 c -0.61 0.73 -1.66 1.4 -2.79 1.77 c -0.66 0.21 -0.97 0.23 -1.07 0.04"/><path d="m 34.2 20.1 c -0.11 -0.09 -0.87 -0.75 -1.68 -1.48 c -0.81 -0.73 -1.94 -1.68 -2.51 -2.1 c -0.56 -0.43 -1.07 -0.82 -1.13 -0.88 c -0.13 -0.16 -0.05 -0.54 0.15 -0.73 c 0.13 -0.13 0.19 -0.14 0.34 -0.08 c 0.42 0.16 2.12 1.41 3.13 2.3 c 0.78 0.69 2.06 1.98 2.18 2.18 c 0.09 0.18 0.09 0.22 -0.07 0.56 c -0.09 0.21 -0.18 0.37 -0.19 0.37 c -0.01 0 -0.12 -0.07 -0.23 -0.15"/><path d="m 37.8 23.29 c -0.25 -0.29 -0.46 -1.29 -0.46 -2.29 c -0.01 -1.01 -0.25 -1.75 -0.73 -2.21 c -0.38 -0.36 -0.73 -0.52 -1.5 -0.69 c -0.37 -0.08 -0.78 -0.19 -0.89 -0.23 c -0.32 -0.13 -0.64 -0.43 -0.64 -0.59 c 0 -0.19 0.39 -0.34 0.99 -0.38 c 1.46 -0.11 3 0.86 3.65 2.27 c 0.36 0.78 0.37 3.18 0.02 3.88 c -0.18 0.36 -0.26 0.41 -0.41 0.23"/><path d="m 36.92 30.79 c -0.11 -0.29 -0.08 -0.61 0.11 -1.18 c 0.41 -1.27 0.38 -2.93 -0.06 -4.2 c -0.13 -0.36 -0.47 -1.22 -0.76 -1.89 c -0.62 -1.44 -0.69 -1.84 -0.37 -2.02 c 0.17 -0.1 0.2 -0.09 0.38 0.04 c 0.7 0.52 1.63 2.5 2.09 4.42 c 0.2 0.83 0.25 2.15 0.1 2.81 c -0.13 0.63 -0.47 1.36 -0.86 1.84 c -0.32 0.41 -0.52 0.46 -0.63 0.18"/><path d="m 33.51 30 c -0.16 -0.09 -0.23 -0.19 -0.23 -0.3 c 0 -0.11 0.28 -0.53 0.75 -1.15 c 0.41 -0.54 1.09 -1.5 1.5 -2.13 c 0.42 -0.63 0.79 -1.16 0.83 -1.18 c 0.16 -0.1 0.49 0.48 0.49 0.85 c 0 0.74 -2.43 4.05 -2.97 4.05 c -0.09 0 -0.26 -0.06 -0.38 -0.14"/><path d="m 33.73 31.67 c -0.99 -0.28 -1.68 -0.8 -2.28 -1.68 c -0.58 -0.87 -1.12 -2.38 -1 -2.87 c 0.05 -0.21 0.26 -0.31 0.52 -0.23 c 0.25 0.07 0.54 0.38 0.54 0.56 c 0 0.23 0.37 1.07 0.72 1.63 c 0.56 0.9 1.02 1.25 1.97 1.48 c 0.32 0.08 0.61 0.18 0.66 0.21 c 0.11 0.08 0.11 0.49 0.02 0.67 c -0.08 0.16 -0.42 0.34 -0.6 0.34 c -0.07 0 -0.31 -0.06 -0.54 -0.13"/><path d="m 28.76 36.62 c -0.13 -0.11 -0.15 -0.17 -0.12 -0.34 c 0.07 -0.32 0.3 -0.49 0.84 -0.61 c 1.53 -0.36 2.4 -0.7 3.32 -1.3 c 0.63 -0.41 1.3 -1.04 1.69 -1.55 c 0.54 -0.74 1.04 -2.3 0.95 -2.97 c -0.07 -0.54 0.31 -1.26 0.64 -1.2 c 0.29 0.05 0.55 1.14 0.48 2 c -0.21 2.42 -2.7 4.94 -5.78 5.83 c -0.36 0.11 -0.88 0.2 -1.24 0.22 c -0.54 0.04 -0.64 0.02 -0.78 -0.09"/><path d="m 25.78 34.99 c -0.18 -0.05 -0.36 -0.12 -0.4 -0.16 c -0.05 -0.04 0.48 -0.35 1.53 -0.89 c 1.91 -0.98 2.53 -1.35 3.79 -2.2 c 0.52 -0.35 1 -0.64 1.08 -0.64 c 0.07 0 0.25 0.11 0.39 0.23 c 0.23 0.21 0.25 0.25 0.18 0.4 c -0.23 0.5 -3.82 2.8 -5 3.21 c -0.46 0.16 -1.07 0.18 -1.57 0.04"/><path d="m 23.72 39.3 c -1 -0.15 -2.06 -0.73 -2.72 -1.47 c -0.34 -0.39 -0.39 -0.68 -0.12 -0.8 c 0.26 -0.12 0.63 0.02 1.35 0.5 c 1.05 0.69 1.77 0.82 2.72 0.51 c 1 -0.34 1.44 -0.71 2.05 -1.78 c 0.43 -0.76 0.79 -1.17 1.07 -1.23 c 0.28 -0.05 0.4 0.05 0.4 0.36 c 0 0.87 -0.84 2.27 -1.8 2.99 c -0.92 0.7 -2.08 1.06 -2.96 0.92"/><path d="m 25.61 36.49 c -1.16 -0.25 -3.79 -1.09 -4.12 -1.3 c -0.32 -0.21 -0.49 -0.82 -0.27 -1 c 0.13 -0.11 0.25 -0.08 1.93 0.42 c 0.75 0.23 1.79 0.5 2.3 0.62 c 1.09 0.24 1.33 0.36 1.36 0.64 c 0.02 0.21 -0.11 0.4 -0.39 0.6 c -0.2 0.14 -0.23 0.14 -0.8 0.01"/><path d="m 19.82 35.2 c -0.15 -0.13 -0.16 -0.17 -0.15 -0.81 c 0.02 -1.16 0.52 -2.51 1.45 -3.9 c 0.51 -0.77 1.48 -1.79 1.77 -1.86 c 0.22 -0.05 0.57 0.08 0.66 0.25 c 0.09 0.18 -0.04 0.41 -0.63 1.11 c -0.78 0.9 -1.09 1.34 -1.44 2.08 c -0.38 0.8 -0.43 1.02 -0.58 2.17 c -0.09 0.71 -0.13 0.88 -0.25 0.98 c -0.2 0.16 -0.63 0.16 -0.83 -0.01"/></g></svg>