<svg xmlns="http://www.w3.org/2000/svg" viewBox="0 0 48 48"><defs><linearGradient id="0" gradientUnits="userSpaceOnUse" x1="35.63" y1="74.1" x2="36.4" y2="5.61" gradientTransform="matrix(1.067 0 0 1.106 -5.54 -7)"><stop style="stop-color:#066ab3"/><stop offset="1" style="stop-color:#20cdf6"/></linearGradient><linearGradient id="1" gradientUnits="userSpaceOnUse" x1="77.1" y1="103.1" x2="74.5" y2="-19.94"><stop style="stop-color:#0c0c0c"/><stop offset="1" style="stop-color:#262626"/></linearGradient><linearGradient id="2" gradientUnits="userSpaceOnUse" x1="55.72" y1="61.2" x2="56.73" y2="30.51"><stop style="stop-color:#bc0000"/><stop offset="1" style="stop-color:#ff1616"/></linearGradient></defs><path d="m 5.14 10.16 c -17.22 20 16.1 50 35.58 32.36 c 21.81 -19.37 -11.48 -57.3 -33.3 -35.76 c -1.33 1.12 -1.5 2.27 -2.25 3.39" style="fill:#191919"/><g style="stroke:#000"><g style="stroke-width:1.55"><path d="m 38.1 -2.29 l -0.36 10.36 l 3.93 1.5 l -4 1.87 l 3.81 1.97 l -3.86 2.63 l 3.89 0.47 l -3.56 2.99 l 0.07 1.71 c -4.4 4.05 -5.96 9.12 -6.65 14.7 c -2.1 17.39 15.29 35.3 38.84 39.92 c 23.57 4.67 44.3 -5.64 46.4 -23 c 0.1 -0.78 0.14 -1.57 0.15 -2.37 c 5 -6.36 10.17 -11.91 13.87 -19 c -7.44 -0.89 -13.98 -0.81 -20.2 -0.47 c 3.51 -3.27 7.69 -7.54 11.18 -12.15 c -4.87 2.55 -9.54 3.83 -12.49 4.88 c 3.2 -4.11 6.16 -7.84 7.98 -11.92 l -13.29 7.2 l 4.25 -9.54 c -6.61 4.42 -11.12 6.32 -15.8 8.37 c -4.55 -2.22 -9.47 -3.89 -14.49 -4.92 c -6.68 -1.33 -14.1 -1.46 -20.37 -0.41 c -9.14 -9.43 -13.66 -11.39 -19.2 -14.75" transform="matrix(0.283 0 0 0.315 2.15 11.76)" style="fill:url(#0)"/><g style="fill:url(#1)"><path d="m 76.3 45.2 c 0 0 5.92 -11.1 20.1 -7.24 c 14.22 3.84 14 14.51 14 14.51 c 0 0 -5.55 10.73 -19.57 7.3 c -13.99 -3.45 -14.62 -14.59 -14.62 -14.59" transform="matrix(0.283 0 0 0.315 2.29 11.21)"/><path d="m 35.91 37.4 c 0 0 5.92 -11.1 20.1 -7.25 c 14.22 3.85 13.99 14.52 13.99 14.52 c 0 0 -5.53 10.73 -19.56 7.29 c -14 -3.43 -14.63 -14.57 -14.63 -14.57" transform="matrix(0.283 0 0 0.315 2.29 11.21)"/></g></g><g transform="matrix(0.283 0 0 0.315 2.43 11.21)"><g style="fill:none;stroke-linecap:round;stroke-width:2.12"><path d="m 62.2 56.91 l -9.59 -2.35"/><path d="m 61 60.4 l -8.52 -0.1"/><path d="m 75.3 59.97 l 12.55 2"/><path d="m 74.6 63.7 l 7.87 3.8"/><path d="m 71.2 67.1 c -1.2 -2.29 -2.36 -4.14 -3.81 -12.24 l 3.92 1.36 c -2.4 4.06 -4.98 7.11 -7.65 9.6" style="stroke-linejoin:round"/><path d="m 73.2 33 l -2.65 -5.39"/><path d="m 76.1 26.2 l 0.79 -5.19"/><path d="m 78.4 31.3 l 3.44 -4.7"/></g><g style="fill:url(#2);stroke-width:1.55"><path d="m 101.8 39.99 c -5 1.85 -8.39 6.61 -8.39 11.92 c 0 3.11 1.16 6.12 3.24 8.44 c 9.81 -0.21 13.83 -7.93 13.83 -7.93 c 0 0 0.1 -7.76 -8.68 -12.43"/><path d="m 61.4 32.3 c -5 1.83 -8.39 6.59 -8.39 11.92 c 0 3.11 1.16 6.11 3.24 8.44 c 9.81 -0.21 13.83 -7.94 13.83 -7.94 c 0 0 0.1 -7.75 -8.68 -12.43"/></g></g></g></svg>