<svg xmlns="http://www.w3.org/2000/svg" viewBox="0 0 48 48"><path d="m 0.86 28.95 c 3.7 24.41 40.59 25.1 46.2 1.41 c 5.74 -19.2 -15 -34.9 -30.57 -28.61 c -10.41 2.98 -18.82 15.1 -15.59 27.2" style="fill:#b954d2"/><path d="m 40 24.63 c 0 8.74 -7.1 15.83 -15.78 15.83 c -8.72 0 -15.78 -7.09 -15.78 -15.83 c 0 -8.75 7.1 -15.83 15.78 -15.83 c 8.71 0 15.78 7.09 15.78 15.83" style="fill:#8b008b"/><g style="fill:#fff"><path d="m 21.64 34.88 c -1.71 -0.61 -4.36 -2.35 -5.08 -3.66 c -0.81 -1.5 -1.09 -2.47 -1.11 -3.76 c -0.01 -1.18 0.16 -1.79 0.91 -3.18 c 0.32 -0.58 0.59 -1.07 0.61 -1.09 c 0.05 -0.05 0.94 0.82 1.07 1.04 c 0.13 0.23 0.11 0.32 -0.21 1.44 c -0.41 1.39 -0.38 2.93 0.07 4 c 0.69 1.68 2.11 2.8 4.27 3.4 c 0.93 0.26 1.13 0.23 2.86 -0.32 c 0.75 -0.25 1.39 -0.45 1.42 -0.45 c 0.08 0 1.26 0.98 1.28 1.05 c -1.6 1.63 -4.51 1.8 -6.07 1.52"/><path d="m 30.52 29.54 c -0.46 -0.71 -0.15 -1.61 0.01 -2.45 c 0.2 -1.07 0.12 -1.87 -0.3 -2.95 c -0.22 -0.56 -0.96 -1.85 -1.14 -2 c -0.09 -0.07 -0.27 -0.02 -0.97 0.29 c -1.57 0.71 -2.74 0.87 -3.52 0.44 c -0.42 -0.23 -1.56 -1.88 -1.49 -1.99 c 0.06 -0.09 0.93 0.3 2.23 0.2 c 1.23 -0.09 1.66 -0.21 2.51 -0.69 c 0.36 -0.2 0.74 -0.39 0.86 -0.42 c 0.55 -0.13 1.19 0.23 1.92 1.08 c 1.26 1.48 1.89 3.57 1.7 5.63 c -0.1 1.07 -0.29 2.14 -0.43 2.35 c -0.17 0.27 -0.26 2.21 -1.36 0.5"/><path d="m 25.28 18.86 c -0.51 -0.7 -0.28 -1.74 0.33 -2 c 0.47 -0.2 0.91 -0.13 1.19 0.19 c 0.79 1.15 -0.21 2.72 -1.52 1.82"/><path d="m 21.25 19.92 c -0.34 -0.21 -0.64 -0.77 -0.72 -1.35 c -0.06 -0.75 0.58 -0.98 1.05 -0.98 c 1 0 1.39 0.32 1.39 1.13 c -0.02 1.07 -0.92 1.71 -1.72 1.21"/><path d="m 22.56 16.81 c -0.32 -0.35 -0.44 -0.7 -0.44 -1.3 c 0 -0.82 0.31 -1.24 0.96 -1.29 c 1.01 0.01 1.62 1.24 1.17 1.98 c -0.47 0.52 -1.27 1.03 -1.69 0.62"/><path d="m 24.95 12.89 c -0.09 -0.93 0.85 -1.43 1.55 -1.46 c 0.34 0 1.2 0.97 1.2 1.6 c 0 1.2 -0.88 1.16 -1.46 1.36 c -0.71 0.12 -1.23 -0.84 -1.29 -1.5"/></g><path d="m 15.1 19.74 l 2.19 -2.08 l 15.51 15 l -2.18 2.08" style="fill:#ff4500"/></svg>