<svg xmlns="http://www.w3.org/2000/svg" viewBox="0 0 48 48"><path d="m 43.89 35.3 c 12.91 -17.25 -7.75 -38.3 -24.39 -34.65 c -16.39 2.14 -26.29 27.1 -13.61 39.73 c 9.26 9.11 25.1 12.16 38 -5.08" style="fill:#6a8e22"/><path d="m 5.79 24.2 h 35.84 c 0 0 0 0.34 0 0.76 c 0 0.42 0 0.76 0 0.76 h -35.84 c 0 0 0 -0.34 0 -0.76 c 0 -0.42 0 -0.76 0 -0.76" style="fill:#dcdcdc"/><path d="m 12.18 18.99 h 22.97 c 1.02 0 1.84 0.82 1.84 1.84 v 7.56 c 0 1.02 -0.82 1.84 -1.84 1.84 h -22.97 c -1.02 0 -1.84 -0.82 -1.84 -1.84 v -7.56 c 0 -1.02 0.82 -1.84 1.84 -1.84" style="fill:#d0bea8"/><path d="m 13.54 19 h 2.58 v 11.14 h -2.58" style="fill:#734206"/><path d="m 17.45 18.96 h 2.58 v 11.14 h -2.58" style="fill:#f00"/><path d="m 21.6 19 h 2.58 v 11.14 h -2.58"/><path d="m 31.61 19 h 2.58 v 11.14 h -2.58" style="fill:#ffd600"/></svg>