<svg xmlns="http://www.w3.org/2000/svg" viewBox="0 0 48 48"><path d="m 47.6 18.5 c -7.72 -44.98 -73.98 3.3 -36.1 26.2 c 14.68 9.81 40 -3.04 36.1 -26.2" style="fill:#007f7f"/><path d="m 16.53 32.3 c 0 -0.08 0.2 -0.91 0.43 -1.83 c 1.7 -6.61 4.72 -11.52 9.1 -14.75 c 1.45 -1.08 2.18 -1.53 4.63 -2.88 c 1.75 -0.96 5.17 -2.1 7.67 -2.54 c 0.93 -0.57 1.84 0.36 1.35 0.65 c -0.14 0.07 -2.92 2.82 -6.18 6.11 l -5.93 5.98 c -0.87 -0.17 -0.86 -0.23 -1.72 -0.16 l -2.68 2.7 c -1.47 1.48 -3.57 3.63 -4.66 4.78 c -1.09 1.14 -1.98 2 -1.98 1.93" style="fill:#ff5d81"/><path d="m 22.1 30.8 c 4.29 -4.43 5.25 -5.45 5.52 -5.85 c 0.33 -0.49 0.27 -1.1 -0.16 -1.53 c -0.35 -0.35 -0.36 -0.37 -0.09 -0.37 c 0.35 0 1.15 -0.76 6.15 -5.85 c 4.82 -4.91 6.39 -6.42 6.55 -6.32 c 0.32 0.2 0.05 1.51 -1.16 5.73 c -0.62 2.16 -1.21 3.5 -2.54 5.75 c -0.38 0.64 -0.38 0.64 -1.28 0.8 c -1.29 0.23 -2.1 0.49 -2.1 0.68 c 0 0.09 0.17 0.39 0.38 0.66 c 0.73 0.96 0.47 1.66 -1.2 3.19 c -3 2.78 -6.81 4.79 -11.57 6.14 c -0.84 0.24 -1.65 0.48 -1.79 0.52 c -0.14 0.05 1.34 -1.56 3.29 -3.56" style="fill:#b7457d"/><path d="m 12.56 38.53 c -0.68 -0.67 -0.62 -1.08 0.3 -2.13 c 1.71 -1.93 12.16 -12.48 12.88 -13 c 0.33 -0.23 0.43 -0.25 0.88 -0.12 c 0.6 0.18 0.91 0.56 0.91 1.14 c 0 0.31 -0.15 0.59 -0.61 1.11 c -0.91 1.03 -9 9.35 -11.25 11.53 c -2.2 2.16 -2.35 2.23 -3.11 1.47" style="fill:#4b438c"/><path d="m 10.59 33.57 c -1.07 -1.06 -1.54 -2.79 -1.73 -6.34 c -0.27 -4.78 1.05 -8.37 4.39 -11.98 c 2.13 -2.3 5.32 -4.05 8.59 -4.69 c 2.39 -0.47 6 -0.06 8.36 0.95 l 1.47 0.64 l -1.96 1.05 c -1.08 0.58 -2.75 1.64 -3.71 2.37 c -1.12 0.85 -1.15 1.32 -2.71 1.32 c -1.58 0 -3.69 0.98 -5.22 2.44 c -2.58 2.45 -3.55 5.38 -3 9.14 c 0.37 2.59 -0.03 4.3 -1.21 5.23 c -1.14 0.89 -2.27 0.86 -3.23 -0.11" style="fill:#51d1fb"/><path d="m 20.55 42.2 c -1.38 -0.32 -3.38 -1.29 -5.23 -2.51 l -1.21 -0.8 c 0.96 -0.88 1.92 -1.77 2.88 -2.66 l 0.86 0.67 c 2.52 1.98 7.93 2.42 11.25 0.91 c 2.56 -1.17 5.11 -3.71 6.28 -6.26 c 0.79 -1.74 0.93 -2.45 0.95 -5.15 c 0.02 -2.35 -0.18 -3.53 0.27 -4.38 c 0.81 -1.1 1.32 -2.09 1.76 -3.35 l 0.73 2.13 c 2.04 5.98 0.84 12.1 -3.24 16.57 c -3.23 3.53 -6.99 5.22 -11.51 5.16 c -1.39 -0.02 -3.09 -0.16 -3.77 -0.32" style="fill:#0d9cbf"/></svg>