<svg xmlns="http://www.w3.org/2000/svg" viewBox="0 0 48 48"><path d="m 36.3 4 c 42.2 35.83 -44.63 70.3 -35.7 14.87 c 1.96 -12.15 24.3 -24.52 35.7 -14.87" style="fill:#ada59b"/><path d="m 15.93 35.2 c -2.62 -0.24 -5.98 -1.16 -7.17 -1.95 c -0.49 -0.33 -0.8 -0.7 -1.12 -1.33 c -0.4 -0.78 -0.45 -1 -0.45 -2.2 c 0 -1.17 0.05 -1.43 0.43 -2.21 c 0.76 -1.55 3.65 -4.1 6 -5.32 l 0.6 -0.3 l 0.16 -1.55 c 0.19 -1.84 0.57 -2.74 1.92 -4.61 c 2.13 -2.95 4.07 -4.59 5.77 -4.88 c 1.04 -0.34 1.71 0.22 2.63 0.68 c 3.63 1.81 5.45 3.15 6.86 5 c 0.75 1 0.91 1.14 1.37 1.18 c 1 0.07 3.16 0.36 3.81 0.51 c 1.89 0.45 3.94 2 4.64 3.55 c 0.58 1.26 0.52 2.18 -0.24 3.7 c -2.86 5.75 -15.47 10.59 -25.3 9.7" style="fill:#634a28"/><path d="m 18.79 29.48 c -1.43 -0.13 -2.11 -0.32 -3.11 -0.89 c -1.14 -0.64 -1.46 -1.1 -1.58 -2.26 c -0.09 -0.78 -0.06 -1.03 0.11 -1.2 c 0.2 -0.2 0.29 -0.15 0.86 0.44 c 0.67 0.69 2.13 1.36 2.62 1.21 c 0.27 -0.09 1.07 -1.2 1.58 -2.2 c 0.58 -1.14 0.79 -2.06 1 -4.49 c 0.21 -2.43 0.41 -3.38 1.45 -7 c 0.22 -0.77 0.43 -1.48 0.46 -1.59 c 0.05 -0.15 0.27 -0.18 0.88 -0.14 c 0.61 0.05 1.23 0.28 2.46 0.89 c 2.96 1.48 4.61 2.77 6.08 4.76 c 0.43 0.58 0.84 1.06 0.91 1.06 c 0.37 0.45 0.5 0.89 0.73 1.46 h 1.3 c 0.82 0 1.43 0.07 1.66 0.2 c 0.2 0.11 1.13 0.61 2.05 1.12 c 2 1.09 3.04 1.81 3.16 2.21 c 0.22 0.7 -1.1 1.48 -6.32 3.73 c -4.94 2.13 -6.2 2.42 -11.61 2.7 c -2.89 0.15 -2.98 0.15 -4.7 -0.01 m -3.65 -10.2 c -0.47 -0.47 0.99 -3 2.88 -4.97 c 1.03 -1.09 1.96 -1.78 2.13 -1.61 c 0.1 0.1 -0.13 1.15 -0.5 2.32 c -0.2 0.65 -0.25 0.7 -0.71 0.7 c -0.68 0 -1.35 0.61 -2.13 1.95 c -0.89 1.52 -1.33 1.95 -1.66 1.62" style="fill:#4a361b"/><path d="m 17.81 29.1 c -1.07 -0.25 -1.7 -0.51 -1.79 -0.75 c -0.84 -0.76 -0.73 -0.55 -1.47 -2.46 c -0.07 -0.27 -0.07 -0.27 0.25 0.02 c 0.18 0.17 0.72 0.48 1.2 0.71 c 0.86 0.39 0.95 0.4 3.52 0.41 c 3.71 0 5.85 -0.45 8.59 -1.81 c 2.57 -1.28 3.97 -2.5 4.64 -4 c 0.5 -1.15 0.76 -1.19 1.12 -0.14 c 0.36 1.05 0.34 2.04 -0.06 2.61 c -1.28 1.83 -3.2 3.21 -5.69 4.11 c -2.89 1.04 -8.49 1.77 -10.32 1.35 m 4.38 -9.21 c -0.44 -0.32 -0.61 -1.81 -0.43 -3.59 c 0.29 -2.66 0.71 -3.86 1.46 -4.14 c 1.22 -0.46 5.87 2.19 6.74 3.84 c 0.44 0.83 -0.02 1.09 -2.23 1.23 c -1.42 -0.07 -2.23 0.45 -3.07 1.31 c -0.85 0.88 -1.73 1.54 -2.06 1.54 c -0.09 0 -0.27 -0.08 -0.41 -0.18 m -6.57 -1.54 c -0.08 -0.18 2.15 -3.48 2.86 -4.27 c 1.17 -1.29 1.62 -0.07 -0.11 1.35 c -1.87 1.55 -2.49 3.48 -2.75 2.92" style="fill:#36220f"/></svg>