<svg xmlns="http://www.w3.org/2000/svg" viewBox="0 0 48 48"><path d="m 47.62 24.1 c 3.6 31.86 -47.98 31.41 -47.4 -0.57 c -1.71 -29.75 50.2 -32.43 47.4 0.57" style="fill:#61d670"/><path d="m 13.43 15 h 21.65 c 1.34 0 2.44 0.5 2.44 1.12 v 18.43 c 0 0.62 -1.09 1.13 -2.44 1.13 h -21.65 c -1.35 0 -2.44 -0.5 -2.44 -1.13 v -18.43 c 0 -0.62 1.09 -1.12 2.44 -1.12" style="fill-opacity:0.1"/><path d="m 13.43 14.1 h 21.65 c 1.34 0 2.44 0.5 2.44 1.13 v 18.43 c 0 0.62 -1.09 1.13 -2.44 1.13 h -21.65 c -1.35 0 -2.44 -0.5 -2.44 -1.13 v -18.43 c 0 -0.62 1.09 -1.13 2.44 -1.13" style="fill:#534545"/><path d="m 16.1 17.84 c -0.57 0 -1.02 0.42 -1.02 0.94 c 0 0.52 0.45 0.94 1.02 0.94 h 9.18 c 0.56 0 1.02 -0.42 1.02 -0.94 c 0 -0.52 -0.46 -0.94 -1.02 -0.94 m -10.2 3.76 c -0.57 0 -1.02 0.42 -1.02 0.94 c 0 0.52 0.45 0.94 1.02 0.94 h 6.12 c 0.57 0 1.02 -0.42 1.02 -0.94 c 0 -0.52 -0.45 -0.94 -1.02 -0.94 m 4.08 0 c -0.57 0 -1.02 0.42 -1.02 0.94 c 0 0.52 0.46 0.94 1.02 0.94 h 4.08 c 0.57 0 1.02 -0.42 1.02 -0.94 c 0 -0.52 -0.46 -0.94 -1.02 -0.94 m 2.04 3.76 c -0.57 0 -1.02 0.42 -1.02 0.94 c 0 0.52 0.45 0.94 1.02 0.94 h 2.04 c 0.57 0 1.02 -0.42 1.02 -0.94 c 0 -0.52 -0.45 -0.94 -1.02 -0.94" style="fill:#e6e0c6"/><path d="m 33.43 21.6 c -0.56 0 -1.02 0.42 -1.02 0.94 c 0 0.52 0.46 0.94 1.02 0.94 c 0.56 0 1.02 -0.42 1.02 -0.94 c 0 -0.52 -0.46 -0.94 -1.02 -0.94 m -16.32 3.76 c -0.57 0 -1.02 0.42 -1.02 0.94 c 0 0.52 0.45 0.94 1.02 0.94 h 3.06 c 0.56 0 1.02 -0.42 1.02 -0.94 c 0 -0.52 -0.46 -0.94 -1.02 -0.94 m 0 3.76 c -0.57 0 -1.02 0.42 -1.02 0.94 c 0 0.52 0.46 0.94 1.02 0.94 h 3.06 c 0.57 0 1.02 -0.42 1.02 -0.94 c 0 -0.52 -0.45 -0.94 -1.02 -0.94" style="fill:#d96b6b"/><path d="m 29.35 17.84 c -0.56 0 -1.02 0.42 -1.02 0.94 c 0 0.52 0.46 0.94 1.02 0.94 h 3.06 c 0.57 0 1.02 -0.42 1.02 -0.94 c 0 -0.52 -0.45 -0.94 -1.02 -0.94 m -8.16 7.52 c -0.56 0 -1.02 0.42 -1.02 0.94 c 0 0.52 0.46 0.94 1.02 0.94 h 3.06 c 0.57 0 1.02 -0.42 1.02 -0.94 c 0 -0.52 -0.45 -0.94 -1.02 -0.94 m -11.22 3.76 c -0.57 0 -1.02 0.42 -1.02 0.94 c 0 0.52 0.45 0.94 1.02 0.94 c 0.57 0 1.02 -0.42 1.02 -0.94 c 0 -0.52 -0.45 -0.94 -1.02 -0.94" style="fill:#66cc69"/></svg>