<svg xmlns="http://www.w3.org/2000/svg" viewBox="0 0 48 48"><path d="m 45.9 16.41 c 9.32 23.89 -16.8 36.1 -33 30.1 c -11.34 -4.25 -16.99 -21.2 -8.94 -34.88 c 10.16 -17.27 34.8 -13.59 41.98 4.82" style="fill:#fbdc00"/><path d="m 20.68 44.4 c -2.33 -0.34 -5.73 -1.79 -8 -3.41 c -1.4 -1 -3.34 -2.95 -4.41 -4.41 c -1.56 -2.14 -3 -5.42 -3.4 -7.78 c -0.72 -2.72 -0.45 -5.75 -0.01 -8.16 c 0.99 -5.51 5.16 -11 10.35 -13.64 c 2.03 -1.02 4.75 -1.9 5.9 -1.9 c 3.11 -0.58 6.76 -0.12 9.54 0.88 c 6.65 2.42 11.58 8.36 12.76 15.35 c 0.3 1.8 0.3 5.26 0 7 c -1.38 8 -7.88 14.59 -15.76 15.98 c -1.5 0.27 -5.33 0.3 -6.96 0.06 m 9 -2.89 c 5.17 -1.79 9.16 -5.83 10.92 -11.1 c 1.27 -3.78 1.21 -7.92 -0.19 -11.82 c -1.88 -5.27 -6.21 -9.31 -11.69 -10.91 c -1.68 -0.49 -1.81 -0.5 -4.64 -0.5 c -2.84 0 -2.96 0.02 -4.67 0.52 c -8.13 2.37 -13.46 10.1 -12.72 18.32 c 0.38 4.18 1.65 7.32 4.18 10.32 c 2.79 3.31 6.65 5.39 11.1 5.97 c 2.83 0.38 5.23 0.04 7.74 -0.82 m -13.1 -5.18 c -0.11 -0.09 -0.27 -0.7 -0.38 -1.36 c -0.22 -1.91 -1.46 -2.36 -3.05 -2.68 c -0.67 -0.14 -0.82 -0.25 -1.07 -0.74 c -0.51 -1.02 -1.39 -3.34 -1.39 -3.68 c 0 -0.18 0.31 -0.78 0.69 -1.32 c 1.01 -1.3 0.64 -2.56 0 -3.54 c -0.38 -0.57 -0.69 -1.16 -0.69 -1.3 c 0 -0.31 1.25 -3.41 1.58 -3.92 c 0.19 -0.29 0.47 -0.4 1.44 -0.56 c 1.52 -0.19 2.3 -1.17 2.5 -2.32 c 0.27 -1.6 0.32 -1.66 2.37 -2.51 c 1 -0.42 1.96 -0.77 2.13 -0.77 c 0.16 0 0.73 0.32 1.26 0.7 c 1.3 1.04 2.59 0.66 3.56 0 c 0.56 -0.38 1.12 -0.7 1.23 -0.7 c 0.43 0 4 1.61 4.15 1.85 c 0.07 0.14 0.21 0.77 0.32 1.39 c 0.29 1.66 0.72 2.12 2.27 2.39 c 0.75 0.13 1.29 0.31 1.51 0.51 c 0.18 0.18 0.66 1.17 1.07 2.22 l 0.73 1.91 l -0.72 1.06 c -0.83 1.17 -0.92 2.42 -0.25 3.45 c 1.04 1.55 1.03 1.34 0.14 3.55 c -0.43 1.08 -0.9 2.05 -1.03 2.16 c -0.13 0.11 -0.55 0.23 -0.95 0.28 c -2 0.26 -2.52 0.7 -2.86 2.49 c -0.13 0.67 -0.3 1.31 -0.39 1.41 c -0.19 0.23 -3.73 1.77 -4.08 1.77 c -0.13 0 -0.7 -0.33 -1.26 -0.74 c -0.89 -0.64 -1.11 -0.74 -1.78 -0.74 c -0.67 0 -0.89 0.09 -1.78 0.74 c -0.56 0.41 -1.14 0.73 -1.3 0.73 c -1.35 -0.6 -2.75 -0.78 -3.99 -1.71 m 11.27 -1.35 c 0.82 -0.42 0.83 -0.43 1.09 -1.5 c 0.24 -0.99 0.34 -1.15 1.32 -2.13 c 0.94 -1.08 1.63 -1.04 2.83 -1.33 c 0.23 -0.06 0.9 -1.43 0.9 -1.83 c 0 -0.09 -0.24 -0.54 -0.54 -0.98 c -0.52 -0.79 -0.54 -0.84 -0.54 -2.38 c 0 -1.56 0.01 -1.59 0.54 -2.32 c 0.63 -0.87 0.64 -0.96 0.22 -1.98 c -0.23 -0.87 -0.53 -0.82 -1.34 -0.98 c -0.97 -0.18 -1.07 -0.24 -2.1 -1.3 c -1.04 -1.05 -1.09 -1.16 -1.29 -2.17 c -0.2 -1.05 -0.21 -1.07 -0.88 -1.36 c -0.93 -0.41 -1.16 -0.38 -2.08 0.25 c -0.77 0.53 -0.84 0.54 -2.26 0.54 c -1.41 0 -1.48 -0.02 -2.26 -0.54 c -0.92 -0.63 -1.14 -0.66 -2.09 -0.24 c -0.72 0.31 -0.73 0.34 -0.94 1.64 c -0.08 0.49 -0.32 0.85 -1.21 1.76 c -1.06 1.1 -1.15 1.16 -2.09 1.33 l -0.98 0.18 c -0.29 0.6 -0.58 1.2 -0.87 1.81 l 0.63 0.97 c 0.61 0.95 0.63 0.99 0.63 2.38 c 0 1.39 -0.01 1.42 -0.63 2.37 l -0.63 0.96 c 0.39 1.02 0.72 1.77 1.5 1.9 c 1.2 0.21 1.64 0.47 2.58 1.55 c 0.73 0.84 0.91 1.17 1.06 1.92 c 0.1 0.5 0.23 0.98 0.29 1.07 c 0.58 0.38 1.11 0.52 1.79 0.75 l 0.85 -0.57 c 0.84 -0.57 0.87 -0.57 2.34 -0.57 c 1.49 0.01 1.5 0.01 2.34 0.61 c 0.77 0.7 1.08 0.57 1.83 0.19 m -6.1 -2.5 c -3.19 -0.93 -5.28 -3.7 -5.3 -7 c -0.01 -1.67 0.32 -2.83 1.15 -4.07 c 0.93 -1.39 1.03 -1.42 1.86 -0.59 c 0.38 0.38 0.69 0.78 0.69 0.88 c 0 0.11 -0.2 0.5 -0.44 0.86 c -0.62 0.93 -1 2.32 -0.88 3.27 c 0.16 1.42 1.08 3 2.07 3.59 l 0.47 0.28 l 1.07 -1.68 c 0.59 -0.93 1.02 -1.72 0.96 -1.78 c -1 -0.57 -2.46 -0.19 -3.39 -0.99 c -0.18 -0.19 -0.08 -0.47 0.76 -1.98 c 0.54 -0.96 1.49 -2.7 2.13 -3.86 c 0.83 -1.5 1.25 -2.11 1.47 -2.14 c 0.4 -0.05 1.76 0.82 1.76 1.14 c 0 0.13 -0.59 1.29 -1.3 2.56 c -0.71 1.28 -1.32 2.41 -1.34 2.51 c 0.65 0.49 3.68 0.82 3.71 1.37 c 0 0.06 -0.7 1.22 -1.55 2.58 c -0.85 1.36 -1.59 2.57 -1.63 2.68 c -0.07 0.17 0.03 0.19 0.44 0.1 c 2.29 -0.49 3.83 -2.27 3.95 -4.54 c 0.07 -1.41 -0.23 -2.37 -1.05 -3.38 c -0.34 -0.41 -0.61 -0.84 -0.61 -0.94 c 0 -0.1 0.25 -0.48 0.55 -0.84 c 0.75 -0.89 1.1 -0.86 1.91 0.16 c 1.34 1.7 1.88 3.66 1.57 5.82 c -0.6 4.25 -4.98 7.15 -9 5.98" style="fill:#042639"/></svg>