<svg xmlns="http://www.w3.org/2000/svg" viewBox="0 0 48 48"><path d="m 43.5 38 c 23.99 -36.1 -52.5 -58.3 -42.4 -11.66 c 4.32 19.28 31.39 30.98 42.4 11.66"/><g style="fill:#fff"><path d="m 9.39 21.4 c -0.45 -0.2 -0.82 -1.03 -0.7 -1.61 c 0.12 -0.6 1.13 -2.07 2.19 -3.18 c 0.88 -0.92 1.33 -1.65 1.18 -1.92 c -0.05 -0.09 -0.47 -0.44 -0.94 -0.78 c -2.19 -1.62 -2.95 -3.51 -1.84 -4.64 c 0.29 -0.29 0.46 -0.34 0.91 -0.26 c 1.77 0.31 5.59 3.57 6.37 5.44 c 0.52 1.24 0.3 1.98 -0.89 3.16 c -1.47 1.44 -5.2 3.98 -5.8 3.93 c -0.08 0 -0.29 -0.07 -0.47 -0.15"/><path d="m 18.1 26.1 c -0.54 -0.18 -0.95 -0.89 -0.95 -1.65 c 0 -0.98 1.35 -1.62 3.77 -1.79 c 1.71 -0.13 5.93 0.15 6.41 0.42 c 0.51 0.28 0.58 0.45 0.58 1.36 c 0 1.03 -0.23 1.35 -1.08 1.53 c -1.07 0.22 -8.13 0.33 -8.72 0.14"/></g><g style="stroke:#fff"><path d="m 155.1 158.6 c 0 30.43 -24.3 55.1 -54.2 55.1 c -29.93 0 -54.2 -24.67 -54.2 -55.1 c 0 -30.43 24.28 -55.1 54.2 -55.1 c 29.93 0 54.2 24.67 54.2 55.1" transform="matrix(-0.195 0 0 0.197 56.3 4.94)" style="stroke-width:7.21"/><path d="m 74.93 206.2 c -2.57 -0.74 -3.95 -1.39 -3.95 -1.9 c 0 -0.18 0.69 -1.14 1.53 -2.13 c 1.97 -2.29 3.38 -2.67 10.14 -2.67 c 3.63 0.51 5.9 -0.25 9 -1.83 c 5.48 -2.8 10.24 -8.09 12.48 -13.9 c 1.11 -3.22 1.48 -16.2 -1.92 -15.65 c -1.7 -0.2 -3.08 0.69 -8.43 5.46 l -4.88 4.35 c -2.24 -2.19 -6.91 -4.69 -7.62 -7.74 c 0 -0.28 1.92 -2.5 4.24 -4.94 c 5.58 -5.82 5.85 -6.25 5.21 -8.23 c -0.34 -1.01 -1.09 -1.95 -2.25 -2.71 c -6.61 -3.17 -18.23 -0.07 -23.89 6.1 c -1.5 1.7 -3.53 4.58 -4.51 6.33 c -2.34 3.06 -1.78 6.25 -1.78 9.94 c 0 6.66 0 6.72 -1.18 8.26 c -1.35 1.78 -2.64 2.35 -3.57 1.6 c -1.23 -1.03 -2.52 -6.43 -2.47 -10.34 c 0.12 -9.7 5.25 -19.46 13 -24.82 c 3.95 -2.7 9.72 -4.89 14.47 -5.51 c 6.44 -0.83 14.1 1.21 20.54 5.51 c 5.47 3.68 9.1 7.98 11.44 16.47 c 1.61 5.77 1.83 11.58 0.2 16.29 c -2.17 6.25 -4.09 9.62 -8.28 13.85 c -3.7 3.73 -8.19 6.39 -13.1 7.74 c -3.52 0.98 -11.71 1.21 -14.5 0.41" transform="matrix(-0.232 0 0 0.239 55.5 -5.88)" style="fill:#fff;stroke-width:1.55"/></g></svg>