<svg xmlns="http://www.w3.org/2000/svg" viewBox="0 0 48 48"><path d="m 39.51 7.13 c 37.4 49.73 -65.5 56.79 -32.48 6 c 7.53 -11.57 22.58 -19.2 32.48 -6" style="fill:#7092a6"/><path d="m 19 41.2 c -8.13 -0.74 -13.91 -3.1 -14.32 -5.86 c -0.19 -1.26 0.87 -4.37 3.04 -3.75 c 17.99 5.07 21.82 -3.85 30 -0.62 c 2.27 0.89 3.92 2.13 4.34 3.25 c 1.1 2.97 -3.95 5.72 -12.48 6.8 c -1.9 0.24 -8.67 0.36 -10.63 0.18" style="fill:#87d75b"/><path d="m 7 32.54 c 0.16 -1.16 0.08 -2.26 0.29 -3.41 c -0.49 0.15 0.75 -0.32 1.18 -0.46 c 1.27 -0.4 1.46 -0.6 1.58 -1.63 c 0.06 -0.5 -0.18 -1.01 -0.05 -1.14 c 0.2 -0.21 2.44 -0.75 2.96 -0.75 c 0.16 0 -0.14 -0.17 -0.08 -1.23 c 0.05 -0.89 0.26 -1.57 0.39 -1.65 c 0.11 -0.07 0.89 -0.27 1.39 -0.36 c 0.51 -0.09 1.02 -0.27 1.13 -0.39 c 0.34 -0.98 -0.28 -2.09 0.4 -3.28 l 1.39 -0.36 c 1.48 -0.14 1.44 -1.06 1.52 -3.15 l 0.64 -0.25 c 0.35 -0.14 0.91 -0.35 1.25 -0.47 c 0.71 -0.25 1 -0.72 1 -1.62 c 0 -0.43 -0.16 -1.09 0.09 -1.35 c 0.42 -0.45 2.19 -0.79 2.44 -0.53 c 5 0.17 7.35 -0.03 11.5 0.36 c 0.11 8.6 -0.36 18.28 -0.46 24.91 c -9.39 0.23 -28.84 1.97 -28.57 -3.23 m 9.51 -0.43 c 0 -0.57 -0.21 -1.23 -0.59 -1.31 c -0.89 -0.2 -7.61 -1.24 -7.84 -1.24 c -0.38 0.41 -0.41 1.37 -0.05 1.88 c 1.78 0.27 8.4 1.64 8.48 0.67 m 0.73 -2.39 c -1.7 -0.53 -6.68 -1.34 -7.26 -1.18 c -0.91 0.25 -0.65 0.46 0.89 0.74 c 1.65 0.29 4.7 0.73 5.67 0.82 c 0.64 -0.22 0.55 -0.05 0.7 -0.38 m 1.63 -2.39 c -0.52 -0.43 -4.15 -0.64 -7.29 -0.96 l -1.11 -0.11 v 0.66 c 0 0.78 -0.13 0.71 2.39 1.17 c 2.34 0.42 4.57 0.7 4.96 0.62 c 0.75 0.02 1.5 -0.98 1.06 -1.37 m 1.25 -0.81 c 0.33 -0.22 -1.28 -0.18 -3.5 -0.53 c -3 -0.48 -4.16 -0.58 -4.16 -0.38 c 0 0.09 0.12 0.21 0.27 0.25 c 0.26 0.08 2.59 0.45 4.66 0.74 c 0.55 0.07 1.04 0.14 1.08 0.16 c 0.04 0.01 1.32 0.13 1.65 -0.24 m 1.69 -1.09 c 0.27 -0.42 0.66 -1.38 0.22 -1.68 c -0.18 -0.13 -2.82 -0.2 -4.41 -0.39 c -3.22 -0.39 -3.88 -0.41 -3.97 -0.13 c -0.1 0.29 0.05 1.31 0.23 1.51 c 0.2 0.23 3.77 0.69 5.47 0.71 c 1.27 0.02 2.26 0.27 2.46 -0.03 m 1.6 -2.66 c 0.05 -0.33 -2.31 -0.33 -4.24 -0.55 c -1.81 -0.21 -4.7 -0.21 -4.7 0 c 0 0.23 0.45 0.31 2.54 0.47 c 0.1 0.3 6.94 0.48 6.39 0.09 m 2.23 -1 c 0.25 -0.27 0.29 -1.56 0.29 -1.68 c 0 -0.13 -0.39 0.08 -0.8 -0.11 c -3.45 -0.22 -5.08 -0.35 -8.69 -0.52 c 0.07 0.64 -0.12 1.19 0.12 1.78 c 2.73 0.66 7.48 0.87 9.1 0.54 m 2.08 -2.96 c 0.04 -0.07 -0.27 -0.19 -0.59 -0.24 c -1.31 -0.22 -6.8 -0.62 -7.77 -0.56 c -0.99 0.06 -1.55 0.31 -1.29 0.58 c 0.22 0.23 9.21 0.97 9.64 0.23 m 1.3 -1.19 c 0.52 -0.25 0.59 -1.39 0.08 -1.92 c -0.3 -0.32 -0.63 0 -1.71 -0.09 c -2.13 -0.17 -7.76 -0.39 -7.88 -0.31 c -0.17 0.69 -0.12 1.25 -0.12 2 l 0.52 0.11 c 0.55 0.11 4.88 0.33 7.29 0.38 c 0.8 0.01 1.59 -0.06 1.81 -0.16 m 1 -2.89 c 0 -0.28 -0.52 -0.34 -4.29 -0.52 c -2.81 -0.13 -3.92 -0.13 -4.25 0.01 c -0.82 0.34 -0.2 0.49 2.22 0.54 c 5.63 0.12 6.32 0.12 6.32 -0.02 m 1.68 -1.1 c 0.55 -0.12 0.77 -0.65 0.54 -1.35 c -0.14 -0.42 -0.17 -0.43 -2.45 -0.62 c -1.27 -0.11 -3.43 -0.2 -4.8 -0.2 c -2.73 -0.02 -2.68 -0.04 -2.67 1.02 c 0 0.95 0.11 1 2.34 1.1 c 3.04 0.14 6.49 0.17 7 0.05" style="fill:#3f5b84"/><path d="m 35.77 23.55 c 0.48 0.26 0.6 0.96 0.27 1.55 l -3.45 6.36 c -0.33 0.6 -0.98 0.88 -1.45 0.61 c -0.48 -0.26 -0.6 -0.95 -0.27 -1.55 l 3.46 -6.36 c 0.32 -0.6 0.97 -0.88 1.45 -0.62" style="fill:#ffa400"/><path d="m 23.26 28.9 h 12.64 c 0.56 0 1.01 0.4 1.01 0.89 v 6.1 c 0 0.5 -0.45 0.89 -1.01 0.89 h -12.64 c -0.56 0 -1.01 -0.4 -1.01 -0.89 v -6.1 c 0 -0.5 0.45 -0.89 1.01 -0.89" style="fill:#ea673b"/><path d="m 26.41 35.78 c 0 1.62 -1.37 2.94 -3.06 2.94 c -1.69 0 -3.06 -1.32 -3.06 -2.94 c 0 -1.62 1.37 -2.93 3.06 -2.93 c 1.69 0 3.06 1.31 3.06 2.93" style="fill:#5586e7"/><path d="m 23.1 35.43 c -0.3 0.62 -0.92 0.94 -1.38 0.71 c -0.46 -0.23 -0.59 -0.92 -0.29 -1.55 c 0.3 -0.62 0.92 -0.94 1.38 -0.71 c 0.46 0.23 0.59 0.92 0.29 1.55" style="fill:#86ceeb"/><path d="m 37.86 27.2 l -0.41 0.85 c -0.33 0.69 -1.02 1.04 -1.55 0.77 l -4.39 -2.24 c -0.52 -0.27 -0.68 -1.05 -0.35 -1.74 l 0.41 -0.85 c 0.33 -0.69 1.02 -1.04 1.54 -0.77 l 4.39 2.24 c 0.53 0.27 0.68 1.04 0.36 1.73" style="fill:#942a38"/><path d="m 26.92 27.33 c -0.28 0.01 -0.57 -0.07 -0.81 -0.14 c -0.92 -0.28 -1.87 -1.09 -2.2 -1.81 c -0.27 -0.63 -0.4 -0.82 -0.63 -1.38 c 1.43 -0.78 2.87 -1.55 4.3 -2.34 c 0.44 0.6 0.79 1.32 0.91 1.88 c 0.27 1.25 0.24 2 -0.08 2.64 l -0.19 0.38 c 0.81 1.5 1.62 2.99 2.43 4.49 c -0.45 0.24 -0.89 0.48 -1.33 0.72 c -0.86 -1.58 -1.71 -3.16 -2.41 -4.45 m 0.28 -1.59 c 0.75 -0.61 0.29 -1.63 0.08 -2.49 c -0.87 0.47 -1.73 0.94 -2.6 1.41 c 0.45 0.48 0.95 1.15 1.47 1.37 c 0.38 0.16 0.71 0.07 1.05 -0.29" style="fill:#c54560"/><g style="fill:#ed8be6"><path d="m 17.71 37.6 c -0.07 -0.02 -0.33 -0.16 -0.56 -0.31 c -0.5 -0.32 -0.68 -0.33 -1.38 -0.07 c -0.52 0.19 -1.03 0.25 -1.27 0.15 c -0.26 -0.83 0.61 -1.57 0.07 -2.25 c -0.33 -0.4 -0.59 -1.08 -0.5 -1.32 c 0.7 -0.38 1.17 -0.01 2 -0.07 c 0.55 -0.32 1.58 -1.54 2.05 -1.07 c 0.11 0.13 0.14 0.27 0.14 0.64 c -0.06 1.11 1.39 0.67 1.39 1.41 c 0 0.25 -0.05 0.36 -0.31 0.64 c -0.31 0.39 -0.86 0.32 -1.07 0.71 c 0 0.04 0.08 0.29 0.18 0.55 c 0.22 0.59 0.23 0.86 0.04 0.96 c -0.14 0.08 -0.51 0.09 -0.76 0.03"/><path d="m 7.82 35.74 c -0.02 0.08 -0.02 0.38 0 0.67 c 0.04 0.63 -0.03 0.8 -0.5 1.35 c -0.34 0.41 -0.59 0.87 -0.61 1.14 c -0.11 0.79 1.38 0.09 1.66 0.95 c 0.16 0.49 0.55 1.04 0.76 1.07 c 0.16 0.02 0.3 -0.23 0.53 -1 c 0.13 -0.69 0.45 -0.99 0.98 -1.27 c 0.81 -0.41 1.04 -0.67 0.93 -1.05 c -0.33 -0.52 -1.23 -0.23 -0.8 -1.28 c 0.06 -0.2 0.11 -0.5 0.12 -0.67 c 0.02 -0.27 0 -0.32 -0.2 -0.44 c -0.68 -0.33 -1.05 0.58 -1.54 0.71 c -0.03 -0.02 -0.18 -0.21 -0.33 -0.43 c -0.34 -0.47 -0.53 -0.61 -0.69 -0.47 c -0.59 0.22 -0.27 0.47 -0.32 0.71"/><path d="m 38.73 29.82 c 0.09 0.75 0.04 1.3 -0.46 1.6 c -0.41 0.23 -0.68 0.54 -0.69 0.78 c 0 0.18 -0.22 0.61 1.1 0.62 c 0.6 0.11 0.86 0.35 1.09 0.81 c 0.24 0.49 0.19 1.34 1.05 1.21 c 0.21 0.08 0.36 -0.09 0.59 -0.69 c 0.2 -0.68 0.57 -0.72 1.14 -0.76 c 0.99 -0.07 1.27 -0.21 1.1 -0.59 c -0.07 -0.16 -0.19 -0.28 -0.55 -0.52 c -0.79 -0.51 -0.52 -0.73 -0.47 -1.43 c 0 -0.23 -0.03 -0.28 -0.29 -0.45 c -0.43 -0.23 -0.93 -0.32 -1.3 -0.04 c -0.09 0.15 -0.44 0.22 -0.59 0.11 c -0.03 -0.02 -0.24 -0.25 -0.45 -0.49 c -0.39 -0.51 -1.09 -1 -1.26 -0.15"/></g><g style="fill:#ffeff4"><path d="m 40.2 32.1 c 0 0.31 0.11 0.59 0.29 0.75 c 0.18 0.16 0.41 0.16 0.59 0 c 0.18 -0.16 0.29 -0.44 0.29 -0.75 c 0 -0.31 -0.11 -0.6 -0.29 -0.75 c -0.18 -0.16 -0.41 -0.16 -0.59 0 c -0.18 0.15 -0.29 0.44 -0.29 0.75"/><path d="m 16.1 35 c 0 0.25 0.13 0.48 0.34 0.61 c 0.21 0.13 0.46 0.13 0.67 0 c 0.21 -0.13 0.34 -0.36 0.34 -0.61 c 0 -0.25 -0.13 -0.48 -0.34 -0.61 c -0.21 -0.13 -0.46 -0.13 -0.67 0 c -0.21 0.13 -0.34 0.36 -0.34 0.61"/><path d="m 8.43 37.72 c 0 0.28 0.1 0.54 0.27 0.68 c 0.17 0.14 0.38 0.14 0.55 0 c 0.17 -0.14 0.27 -0.4 0.27 -0.68 c 0 -0.28 -0.1 -0.54 -0.27 -0.68 c -0.17 -0.14 -0.38 -0.14 -0.55 0 c -0.17 0.14 -0.27 0.4 -0.27 0.68"/></g><g style="fill:#ff0"><path d="m 37.8 37.48 c 0 0.36 -0.49 0.66 -1.09 0.66 c -0.6 0 -1.09 -0.29 -1.09 -0.66 c 0 -0.36 0.49 -0.66 1.09 -0.66 c 0.61 0 1.09 0.3 1.09 0.66"/><path d="m 35.66 38.61 c 0 0.36 -0.51 0.65 -1.14 0.65 c -0.63 0 -1.14 -0.29 -1.14 -0.65 c 0 -0.36 0.51 -0.66 1.14 -0.66 c 0.63 0 1.14 0.29 1.14 0.66"/></g><path d="m 32.93 37.55 c -0.41 0.02 -0.66 -0.05 -1.4 -0.4 c -0.75 -0.36 -1.3 -0.82 -1.84 -1.54 c -0.35 -0.47 -1.13 -1.69 -1.11 -1.73 c 0 -0.02 0.33 -0.22 0.72 -0.45 l 0.71 -0.41 l -0.46 -0.88 l -0.46 -0.88 l 0.08 -0.26 c 0.08 -0.24 0.1 -0.27 0.39 -0.42 c 0.24 -0.13 0.34 -0.15 0.49 -0.12 c 0.32 0.06 0.45 0.21 0.88 1.05 l 0.4 0.77 l 0.81 -0.42 l 0.81 -0.42 l 0.2 0.43 c 1.18 2.63 1.41 3.56 1.09 4.43 c -0.14 0.39 -0.61 1.05 -0.81 1.16 c -0.07 0.04 -0.3 0.08 -0.51 0.09" style="fill:#6e58a3"/><path d="m 30.69 35.88 c 0.01 0.07 -0.02 0.37 -0.06 0.65 c -0.1 0.62 -0.03 0.76 0.57 1.11 c 0.43 0.26 0.73 0.61 0.74 0.86 c 0.01 0.2 -0.4 0.43 -1.18 0.68 c -0.65 0.13 -1.24 0.45 -1.49 0.95 c -0.04 1.13 -0.52 1.18 -0.8 1.29 c -0.23 0.09 -0.39 -0.11 -0.63 -0.77 c -0.21 -0.74 -0.61 -0.79 -1.23 -0.84 c -1.07 -0.07 -1.36 -0.23 -1.18 -0.65 c 0.07 -0.18 0.2 -0.3 0.59 -0.58 c 0.85 -0.56 0.56 -0.81 0.5 -1.58 c 0 -0.25 -0.02 -0.79 0.26 -0.99 c 0.46 -0.25 1.05 0.14 1.45 0.44 c 0.1 0.16 0.47 0.24 0.64 0.12 c 0.39 -0.3 0.96 -1.41 1.46 -1.27 c 0.15 0.05 0.34 0.32 0.38 0.56" style="fill:#ed8be6"/><path d="m 28 38.4 c 0 0.31 0.11 0.6 0.29 0.75 c 0.18 0.16 0.41 0.16 0.59 0 c 0.18 -0.15 0.29 -0.44 0.29 -0.75 c 0 -0.31 -0.11 -0.59 -0.29 -0.75 c -0.18 -0.16 -0.41 -0.16 -0.59 0 c -0.18 0.16 -0.29 0.44 -0.29 0.75" style="fill:#ffeff4"/></svg>