<svg xmlns="http://www.w3.org/2000/svg" viewBox="0 0 48 48"><path d="m 46.96 28.54 c -1.87 4.39 -4.62 10.47 -4.98 11 c -0.21 0.33 -0.77 0.89 -1.23 1.24 c -1.31 1 -10.73 6.39 -11.57 6.62 c -0.77 0.21 -3.62 0.12 -6.18 -0.21 c -7.57 -0.75 -7.41 -0.37 -9 -1.37 c -0.44 -0.21 -2.95 -2.36 -5.57 -4.77 c -5 -4.64 -5.46 -5.13 -5.83 -7.09 c -0.91 -5.27 -2.03 -8.6 -2.31 -13.33 c 1.8 -4.21 3.68 -8.75 5.93 -12.73 c 0.54 -0.62 1.93 -1.54 5.46 -3.62 c 7.24 -4.24 6.45 -3.9 8.98 -3.88 c 3.94 0.43 10.52 0.4 13.31 1.77 c 0.88 0.47 7.86 6.66 9.72 8.61 c 0.93 0.97 1.34 1.95 1.81 4.21 c 0.85 2.29 1.74 7.66 2.08 9.5 c 0.25 1.06 0.16 2.3 -0.57 4" style="fill:#00707d"/><path d="m 10.53 32.2 c 0 -0.24 5.54 -3.5 5.95 -3.5 c 1.61 1.22 5.8 2.68 6.94 4 c 0.3 0.41 0.29 6.63 -0.02 6.82 c -4 -1.04 -9.8 -4.11 -12.87 -7.35" style="fill:#4c3e33"/><path d="m 9.94 30.63 c -0.24 -1.46 -0.24 -11.95 0 -13.15 c 0.1 -0.51 0.34 -0.93 0.52 -0.92 c 2.1 0.95 3.59 1.9 5.7 3.12 c 0.34 1.86 -0.19 6.63 0.54 8.12 c 0.14 0.22 0.09 0.37 -0.13 0.37 c -2.39 1 -3.96 2.38 -6.36 3.58 c -0.05 0 -0.17 -0.5 -0.27 -1.12" style="fill:#79563b"/><path d="m 10.36 15.91 c -0.04 -0.65 10.35 -6.81 12.73 -7.54 l 0.67 -0.21 c 0 2.55 -0.01 5.09 -0.01 7.64 c -2.55 0.99 -5 2.59 -6.99 3.87 c -1.93 -1.43 -4.68 -2.09 -6.4 -3.77" style="fill:#99cd61"/><path d="m 24.1 15.65 c 0 -2.48 0 -4.95 0 -7.43 l 0.82 0.31 c 1.93 0.73 5.13 2.54 8.45 4.78 c 1.95 1.32 3.55 2.45 3.55 2.5 c 0 0.1 -4.42 2.79 -5.52 3.35 c -2.35 -0.44 -5 -2.37 -7.3 -3.52" style="fill:#de6277"/><path d="m 30.85 19.92 c 0.91 -0.49 6.2 -3.94 6.74 -3.66 c 0.49 2.6 0.45 4.64 0.56 7.44 c -2.05 0.18 -4.26 0.43 -6.27 0.19 c -1.06 0.18 -0.85 -2.88 -1.03 -3.97" style="fill:#f3db6b"/><path d="m 31.1 28.2 c 0.39 -1.69 0.05 -2.34 0.28 -3.88 c 2.25 0 4.49 0 6.73 0 v 2.34 c 0 2.59 -0.28 5.12 -0.56 5.09 c -1.82 -0.63 -4.82 -3.32 -6.45 -3.56" style="fill:#79b292"/><path d="m 24.1 32.2 c 2.6 -1.31 4.56 -2.39 6.97 -3.77 c 1.05 0.8 5.27 2.67 5.74 3.6 c 0.23 0.68 -11.15 7.51 -12.52 7.51 c -0.58 -2.83 -0.28 -4.17 -0.2 -7.34" style="fill:#6395ec"/><path d="m 24.57 23.96 l 2.96 -1.65 c 3.44 -1.91 3.31 -1.98 3.36 1.74 c 0.04 3.14 -0.27 3.97 -1.87 5 c -1.34 0.88 -4.14 2.39 -4.45 2.39 c -0.19 -2.63 -0.06 -4.65 0 -7.5" style="fill:#dcdcdc"/><path d="m 17.21 27.2 c -0.32 -0.93 -0.41 -4.98 -0.13 -6 c 1.43 -0.57 4.42 1.7 6.82 3 c -0.1 0.96 0.54 7.21 -0.22 7.3 c -1.86 -0.79 -5.95 -2.81 -6.48 -4.29" style="fill:#d2d2d2"/><path d="m 17.23 20.23 c -0.05 -0.65 5.59 -3.98 6.75 -3.98 c 0.71 0 5.09 2.5 6 3.44 c 0.64 0.64 0.67 0.73 0.2 0.73 c -0.57 0 -5.31 2.48 -5.94 3.11 c -1.66 -0.41 -5 -2.23 -7 -3.3" style="fill:#fff"/></svg>