<svg xmlns="http://www.w3.org/2000/svg" viewBox="0 0 48 48"><path d="m 9.11 41 c -38.67 -49.5 64.6 -56.5 32.54 -6 c -7.32 11.51 -22.29 19.1 -32.54 6" style="fill:#86cefa"/><path d="m 19.53 37.2 c -0.11 -0.16 -0.18 -0.54 -0.18 -0.96 c 0 -3.54 -1.43 -6.55 -4.06 -8.61 c -1.19 -0.93 -1.24 -1.09 -0.68 -2.22 c 0.86 -1.73 1.23 -3.87 0.99 -5.61 c -0.41 -2.91 -1.6 -5.15 -3.64 -6.79 c -1.01 -0.82 -1.1 -0.93 -1.1 -1.41 c 0.1 -0.88 0.98 -0.9 1.46 -0.85 c 3.95 0.41 7.59 2.96 9.37 6.56 c 0.3 0.6 0.35 0.64 0.88 0.71 c 0.73 0.1 1.92 0.1 2.65 0 c 0.54 -0.07 0.59 -0.11 0.88 -0.71 c 0.54 -1.09 1.26 -2.08 2.21 -3.05 c 1.99 -2.03 4.43 -3.23 7.16 -3.52 c 0.71 -0.1 1.45 0.13 1.45 0.85 c 0 0.48 -0.09 0.6 -1.1 1.41 c -2.03 1.64 -3.23 3.88 -3.64 6.79 c -0.25 1.74 0.13 3.9 0.99 5.62 c 0.49 1 0.46 1.22 -0.22 1.78 c -1.64 1.35 -2.79 2.68 -3.43 3.98 c -0.68 1.37 -1.09 3.22 -1.09 4.88 c 0 0.96 0 0.98 -0.44 1.39 c -0.94 0.91 -3.52 2.39 -4.13 2.39 c -1.34 -0.52 -3.47 -1.45 -4.35 -2.64" style="fill:#c1d6f3"/><path d="m 20.1 36.83 c -0.28 -0.34 -0.3 -0.46 -0.3 -1.44 c 0 -3.12 -1.52 -6.2 -3.98 -8.1 c -0.59 -0.45 -0.82 -0.7 -0.82 -0.9 c 0 -0.15 0.18 -0.67 0.41 -1.16 c 0.69 -1.5 0.82 -2.21 0.82 -4.32 c 0 -1.77 -0.02 -1.93 -0.38 -3 c -0.66 -2.05 -1.82 -3.68 -3.8 -5.38 c -0.48 -0.41 -0.54 -0.64 -0.24 -0.96 c 0.43 -0.44 3.05 0.11 4.76 0.99 c 1.18 0.61 1.77 1.04 2.76 2.02 c 0.97 0.96 1.69 1.95 2.23 3.05 c 0.43 0.89 0.57 0.94 2.42 0.94 c 1.84 0 1.98 -0.05 2.42 -0.94 c 0.54 -1.1 1.26 -2.09 2.23 -3.05 c 1 -0.98 1.59 -1.41 2.77 -2.02 c 1.71 -0.88 4.33 -1.43 4.76 -0.99 c 0.3 0.31 0.24 0.55 -0.24 0.96 c -1.99 1.7 -3.14 3.33 -3.81 5.38 c -0.35 1.09 -0.37 1.25 -0.38 3 c -0.01 2.11 0.13 2.82 0.82 4.32 c 0.23 0.49 0.41 1 0.41 1.16 c 0 0.2 -0.23 0.44 -0.81 0.89 c -2.52 1.93 -3.92 4.72 -4 8.1 c -0.03 0.75 -0.11 1.3 -0.2 1.42 c -0.56 0.7 -3.34 2.36 -3.92 2.34 c -1.34 -0.41 -2.91 -1.19 -3.87 -2.29 m 6.73 -1.35 c 0 -1.64 0.63 -4 1.45 -5.55 c 0.55 -1 1.66 -2.43 2.35 -3 c 0.93 -0.79 0.91 -0.75 0.7 -1.26 c -1.32 -3.17 -1.23 -6.66 0.25 -9.73 c 0.29 -0.6 0.76 -1.41 1.05 -1.8 c 0.72 -0.98 0.56 -1.1 -0.68 -0.46 c -1.99 1.02 -3.5 2.57 -4.57 4.71 c -0.3 0.75 -0.44 1.07 -1.16 1.26 c -0.83 0.22 -3.95 0.2 -4.65 -0.04 c -0.48 -0.16 -0.54 -0.23 -1.07 -1.28 c -1.07 -2.11 -2.56 -3.64 -4.54 -4.65 c -1.24 -0.63 -1.4 -0.52 -0.68 0.46 c 2.28 3.11 2.86 7.52 1.46 11 c -0.43 0.87 -0.18 1.15 0.41 1.67 c 2.27 2 3.62 4.85 3.88 8.23 c 0.08 1.03 0.09 1.07 0.5 1.42 c 0.51 0.44 2.11 1.31 2.39 1.32 c 1.18 -0.45 2.89 -1.23 2.9 -2.32 m -4.74 -0.88 c -0.25 -0.25 -0.23 -0.57 0.03 -0.82 c 0.31 -0.29 0.69 -0.25 0.91 0.1 c 0.18 0.28 0.18 0.32 0 0.61 c -0.22 0.34 -0.66 0.4 -0.94 0.11 m 2.82 -0.03 c -0.25 -0.29 -0.24 -0.54 0.03 -0.79 c 0.31 -0.29 0.73 -0.2 0.94 0.19 c 0.16 0.3 0.16 0.35 -0.04 0.57 c -0.27 0.31 -0.67 0.32 -0.93 0.03" style="fill:#314fb0"/><g style="fill:#ef1c0a"><path d="m 21.1 22.77 c 0.39 0 0.72 0.53 0.72 1.19 v 2 c 0 0.66 -0.32 1.19 -0.72 1.19 c -0.4 0 -0.72 -0.54 -0.72 -1.19 v -2 c 0 -0.66 0.32 -1.19 0.72 -1.19"/><path d="m 26.74 22.77 c 0.39 0 0.72 0.53 0.72 1.19 v 2 c 0 0.66 -0.32 1.19 -0.72 1.19 c -0.4 0 -0.72 -0.54 -0.72 -1.19 v -2 c 0 -0.66 0.32 -1.19 0.72 -1.19"/></g></svg>