<svg xmlns="http://www.w3.org/2000/svg" viewBox="0 0 48 48"><path d="m 43.89 12.7 c 12.91 17.25 -7.75 38.3 -24.39 34.65 c -16.39 -2.14 -26.29 -27.1 -13.61 -39.73 c 9.26 -9.11 25.1 -12.16 38 5.08" style="fill:#e86a21"/><path d="m 30.3 36.4 c -0.68 -0.5 -3.82 -2.23 -3.9 -2.79 c 0 -0.2 2.48 -4 3 -4.58 c 0.48 -0.55 1.67 -1.13 2.64 -1.27 c 0.43 -0.07 0.86 -0.16 0.95 -0.21 c 0.09 -0.05 1.04 -1.77 2.1 -3.83 c 1.07 -2.06 2.02 -3.84 2.13 -3.96 c 1.19 -0.98 2.44 0.02 2.45 1.12 c -0.01 0.66 -0.11 0.88 -1.98 4.46 l -1.96 3.77 l 0.37 0.75 c 0.49 0.98 0.73 2.4 0.55 3.26 c -0.73 1.7 -1.04 3.53 -2.04 5.11 c -1.52 -0.33 -2.98 -1.1 -4.31 -1.82 m -17.29 0.3 c -0.6 -0.22 -1.42 -1.11 -1.58 -1.73 c -0.18 -0.68 -0.18 -19.47 0 -20.2 c 0.17 -0.65 1.07 -1.59 1.7 -1.77 c 0.63 -0.18 1.51 -0.18 1.69 0.01 c 0.09 0.09 0.14 0.54 0.14 1.18 c 0 1.21 0.19 1.72 0.8 2.21 c 0.71 0.47 1.7 0.46 2.29 0 c 0.62 -0.49 0.8 -1 0.8 -2.21 c 0 -0.64 0.05 -1.09 0.14 -1.18 c 0.2 -0.21 9.3 -0.21 9.51 0 c 0.09 0.09 0.14 0.54 0.14 1.18 c 0 1.21 0.18 1.72 0.8 2.21 c 0.7 0.47 1.7 0.46 2.29 0 c 0.62 -0.49 0.8 -1 0.8 -2.21 c 0 -0.64 0.05 -1.09 0.14 -1.18 c 0.18 -0.19 1.06 -0.19 1.69 -0.01 c 0.63 0.18 1.52 1.12 1.7 1.77 c 0.18 1.88 0.13 3.29 0.13 5.26 c -0.32 0.52 -1.27 2.82 -1.61 2.54 c -0.12 -0.1 -0.16 -0.5 -0.16 -1.54 c 0 -1.55 -0.13 -1.98 -0.65 -2.23 c -0.23 -0.11 -2.75 -0.14 -10 -0.14 c -10.57 0 -10.22 -0.02 -10.52 0.67 c -0.11 0.24 -0.14 2.2 -0.14 7.52 c 0 7.8 -0.01 7.71 0.64 8 c 0.23 0.11 2 0.14 6.79 0.14 h 6.48 c 0.52 0.32 2.72 1.34 2.47 1.67 c -0.21 0.26 -15.74 0.25 -16.45 -0.01 m 0.94 -2.68 c -0.07 -0.93 -0.02 -1.64 0.01 -2.61 c 1.34 0 2.67 0 4 0 c 0 0.9 0 1.8 0 2.7 c -1.21 -0.18 -2.55 -0.14 -4 -0.1 m 0 -3.93 c -0.07 -0.93 -0.02 -1.64 0.01 -2.61 c 1.34 0 2.67 0 4 0 c 0 0.9 0 1.8 0 2.71 c -1.7 0.03 -2.76 -0.07 -4 -0.1 m 5.19 0 c -0.07 -0.93 -0.02 -1.64 0 -2.61 c 1.34 0 2.68 0 4 0 c 0 0.9 0 1.8 0 2.71 c -1.28 -0.11 -2.62 0.14 -4 -0.1 m 5.19 0 c -0.06 -0.92 -0.02 -1.63 0.01 -2.61 c 1.34 0 2.68 0 4 0 l 0.04 0.68 c -0.04 1.03 -0.38 1.27 -0.96 2.09 h -1.52 c -1.14 0 -1.53 -0.04 -1.57 -0.16 m -10.38 -3.93 c -0.07 -0.92 -0.02 -1.64 0.01 -2.61 c 1.34 0 2.67 0 4 0 c 0 0.9 0 1.8 0 2.7 l -1.98 0.04 c -1.57 0.03 -1.99 0 -2.04 -0.13 m 5.19 0 c -0.07 -0.92 -0.02 -1.64 0 -2.61 c 1.34 0 2.68 0 4 0 c 0 0.9 0 1.8 0 2.7 c -1.56 0.11 -3.25 0.07 -4 -0.1 m 5.19 0 c -0.07 -0.92 -0.02 -1.64 0 -2.61 c 1.34 0 2.68 0 4 0 c 0 0.9 0 1.8 0 2.7 l -1.98 0.04 c -1.57 0.03 -1.99 0 -2.04 -0.13 m 5.19 0 c -0.07 -0.93 -0.02 -1.64 0.01 -2.61 c 1.34 0 2.68 0 4 0 l 0.03 0.61 c -0.03 0.92 -0.33 1.29 -0.76 2.09 c -0.97 -0.13 -2.69 -0.06 -3.29 -0.09 m -5.19 -3.94 c -0.07 -0.93 -0.02 -1.64 0 -2.61 c 1.34 0 2.68 0 4 0 c 0 0.9 0 1.8 0 2.7 l -1.98 0.04 c -1.57 0.03 -1.99 0 -2.04 -0.13 m 5.19 0 c -0.07 -0.93 -0.02 -1.64 0.01 -2.61 c 1.34 0 2.68 0 4 0 c 0 0.9 0 1.8 0 2.7 l -1.98 0.04 c -1.57 0.03 -1.99 0 -2.04 -0.13 m -13.17 -6.3 c -0.59 -0.33 -0.68 -0.71 -0.68 -2.82 c 0 -2.13 0.09 -2.5 0.71 -2.82 c 0.43 -0.23 0.63 -0.23 1.07 0 c 0.61 0.33 0.71 0.7 0.71 2.82 c 0 2.13 -0.09 2.5 -0.71 2.83 c -0.43 0.23 -0.68 0.23 -1.09 -0.01 m 13.68 0 c -0.59 -0.33 -0.68 -0.71 -0.68 -2.82 c 0 -2.13 0.09 -2.5 0.7 -2.82 c 0.43 -0.23 0.64 -0.23 1.07 0 c 0.61 0.33 0.7 0.7 0.7 2.82 c 0 2.13 -0.09 2.5 -0.7 2.83 c -0.43 0.23 -0.68 0.23 -1.09 -0.01" style="fill:#fff"/><path d="m 29.35 29.91 c -0.01 -0.36 0.3 -0.57 0.63 -0.85 c 0.19 -0.18 0.27 -0.09 0.49 0.01 c 0.38 0.18 4.6 2.52 5.29 2.93 c 0.28 0.17 0.54 0.34 0.56 0.38 c 0.11 0.15 -0.1 1.24 -0.24 1.23 c -2.19 -1.24 -4.66 -2.19 -6.73 -3.7" style="fill:#e86a21"/></svg>