<svg xmlns="http://www.w3.org/2000/svg" viewBox="0 0 48 48"><path d="m 2.27 32.93 c -18 -58.4 78.8 -29.2 33.54 10.81 c -9.1 8 -28.69 4.93 -33.54 -10.81" style="fill:#3d005f"/><path d="m 13.43 30.1 c 0 -0.7 -0.13 -1.29 -0.81 -1.29 c -0.29 0 -0.72 0.26 -0.68 -0.33 c 0.01 -0.1 0.03 -0.5 -0.03 -0.66 c -0.07 -0.2 0.08 -0.32 0.51 -0.41 c 0.84 -0.18 0.73 -0.43 0.73 -1.1 c 0 -0.46 0.49 -0.61 0.84 -0.61 c 0.61 0 0.9 -0.36 0.9 -1.11 c 0 -0.56 -0.07 -0.64 -0.64 -0.75 c -0.91 -0.18 -1.27 0.02 -1.27 0.7 c 0 0.5 -0.07 0.57 -0.54 0.57 c -0.68 0 -1 0.33 -1 1.03 c 0.25 1.18 0.06 1.13 -1.21 1.01 l -0.02 -2.29 c -0.03 -2.58 -0.23 -2.68 -0.94 -2.75 c -0.6 -0.06 -0.61 -0.07 -0.66 -1.29 c -0.07 -1.52 0.16 -2.03 0.93 -2.03 c 0.56 0 0.57 -0.01 0.57 -1.14 c 0 -1.7 0.13 -2 0.88 -2.14 c 0.63 -0.12 0.65 -0.15 0.65 -1.07 c 0 -1.47 -0.18 -2.18 0.58 -2.18 c 0.62 0 0.91 0.04 0.84 -1.04 c -0.05 -0.76 0.43 -0.62 1.3 -0.56 c 0.25 0.02 0.34 0.2 0.34 0.69 c 0 0.74 0.88 0.36 1.69 0.55 c 0.35 0.09 0.11 1 0.09 1.22 c -0.07 0.71 0.02 0.83 0.64 0.83 c 0.9 0 0.88 -0.34 0.81 -1.12 c -0.06 -0.62 -0.12 -0.67 -0.78 -0.73 l -0.72 -0.06 v -2.89 c 1.61 -0.28 2.98 -0.25 4.58 -0.25 l 0.05 1.53 l 0.06 1.53 c 0.55 0.04 1.11 0.08 1.67 0.13 l -0.13 -1.18 c -0.21 -1.89 -0.08 -2 2.19 -2 c 1.04 0 2.03 0.05 2.2 0.12 c 0.2 0.08 0.3 0.37 0.3 0.88 c 0 0.75 0.01 0.76 0.81 0.82 c 1.23 -0.07 0.3 1.49 1.16 1.5 c 1.2 -0.11 1.31 0.01 1.28 0.92 c -0.05 1.27 0.23 0.63 0.79 0.71 c 0.54 0.08 0.67 0.2 0.72 0.59 c 0.13 1.21 0.23 1.38 0.79 1.38 c 0.51 0 0.55 0.06 0.66 1.04 c 0.16 1.39 0.15 3.16 -0.02 3.44 c -0.08 0.13 -0.69 0.14 -0.95 0.18 c -0.4 0.06 -0.16 0.3 -0.21 0.93 c -0.06 0.7 -0.03 0.74 0.5 0.74 c 0.35 0 0.61 0.13 0.69 0.32 c 0.18 0.47 -0.95 2.29 -1.68 1.98 c -0.63 -0.27 -0.95 -2.36 -2.48 -2.61 c -0.63 -0.1 -1.01 -0.38 -1.02 -0.84 c 0 -0.5 -0.75 -0.63 -1.01 -0.28 c -0.26 0.35 0.55 0.93 -0.91 0.7 c -1.67 -0.27 -3.16 0.02 -4.75 0.01 c -0.92 0 -0.88 0.27 -0.88 -0.21 c 0 -0.27 -0.07 -0.35 -0.19 -0.36 c -0.95 -0.09 -0.59 0.29 -0.59 0.55 c 0 0.55 -0.11 0.82 -1.18 0.75 c -0.7 -0.05 -0.71 -0.03 -0.84 0.76 c -0.12 0.78 -0.15 0.8 -0.87 0.8 h -0.74 v 0.89 c 0 1.29 1.31 0.14 1.3 1.26 c 0 1.28 0.64 1.86 -1.41 1.82 c -0.11 1.36 0.11 2.35 -0.25 2.39 c -0.37 0 -2.62 0.47 -2.62 0.02 m -0.31 -8.78 c 0.05 -0.71 0.05 -0.72 -0.72 -0.8 l -0.78 -0.07 c 0 0.57 0 1.14 0 1.71 l 0.72 -0.06 c 0.71 -0.06 0.76 0.35 0.78 -0.78 m 2.99 0.7 c 0.2 -0.08 0.3 -0.36 0.3 -0.79 c 0 -0.66 -0.01 -0.67 -0.86 -0.67 h -0.86 v 0.79 c 0 0.74 0.04 0.79 0.56 0.79 c 0.31 0 0.7 -0.05 0.86 -0.12 m 14.49 -2.35 c 0 -0.7 -0.69 -0.77 -1.6 -0.77 c -0.49 0 -0.11 -0.19 -0.16 -0.86 c -0.05 -0.61 -0.14 -0.75 -0.52 -0.81 c -0.53 -0.08 -0.78 0.24 -0.79 1 c 0 0.49 0.07 0.55 0.67 0.55 c 0.65 0 0.67 0.02 0.67 0.75 c 0 0.42 0.04 0.8 0.09 0.85 c 0.05 0.05 0.44 0.05 0.86 0.01 c 0.73 -0.07 0.78 -0.11 0.78 -0.73 m -8.11 -0.28 c -0.05 -0.56 -1.1 -0.45 -1.18 -0.04 c -0.02 0.13 -0.17 0.79 0 0.77 c 0.82 -0.08 1.28 0.49 1.18 -0.73 m 2.75 0.08 c -0.12 -0.71 -0.62 -0.16 -0.94 -0.16 c -0.44 0 -0.25 0.88 -0.03 1.03 c 0.16 0.11 0.55 -0.19 0.86 -0.19 c 0.44 0 0.15 -0.42 0.11 -0.68 m -11.89 -2.27 c -0.57 0 -1.15 0 -1.72 0 c 0 0.53 0 1.05 0 1.58 c 0.57 0 1.15 0 1.72 0 c 0 -0.53 0 -1.05 0 -1.58 m 6.14 0.79 c 0 -0.79 0 -0.79 -0.77 -0.79 c -0.77 0 -0.77 0 -0.77 0.79 c 0 0.79 0 0.79 0.77 0.79 c 0.77 0 0.77 0 0.77 -0.79 m 3.16 -4.05 h -1.53 c -1.46 0 -1.54 0.02 -1.6 0.46 c -0.13 0.92 -0.36 1.16 1.29 1.1 l 1.96 -0.08 c 0.48 -0.02 -0.08 -0.98 -0.12 -1.48 m 3.16 0.71 c 0 -0.61 -0.09 -0.81 -0.38 -0.91 c -0.76 -0.25 -1.15 0.06 -1.15 0.91 c 0 0.77 0 0.77 0.77 0.77 c 0.76 0 0.77 0 0.77 -0.77 m 1.54 -2.37 c 0 -1.63 -0.31 -1.19 -1.17 -1.19 c -0.35 0 -0.36 0.38 -0.36 1.86 c 0 0.79 0.1 0.89 0.89 0.89 h 0.64" style="fill:#ee79ed"/><path d="m 19.58 40.1 c -0.22 -0.13 -0.23 -0.65 -0.23 -7.72 v -7.58 h 0.6 c 0.93 0 1.02 -0.07 1.02 -0.85 c 0 -0.59 0.01 -0.97 0.27 -1.07 c 2.15 0.08 2.7 0.02 4.96 -0.06 c -0.07 1.84 1.11 0.85 1.18 1.41 c 0.56 0.06 1.23 0.39 1.8 0.46 l 0.09 0.81 l 0.15 1.33 h 2.14 c -0.09 3.18 2.58 0.6 2.78 2.31 c 0 0.7 0.16 0.86 0.86 0.85 c -0.09 1.82 1.73 0.53 2 2.12 c -0.04 1.01 -1.39 2.23 -1.39 2.45 c 0 0.38 -0.03 0.4 -0.57 0.4 c -0.88 0 -2.31 0.27 -2.43 0.46 c -0.05 0.09 -0.1 0.4 -0.1 0.69 c 0 0.42 -0.05 1.04 -0.26 1.04 c -0.81 0 -3.06 -0.2 -3.14 -0.08 c -0.05 0.08 -0.06 0.39 -0.02 0.68 l 0.07 0.53 c -1.13 0.16 -2.35 0.15 -3.34 0.09 l -0.07 -0.55 c -0.11 -0.83 -0.2 -0.91 -1.02 -0.91 h -0.73 v 1.53 c 0 1.36 -0.03 1.54 -0.26 1.67 c -0.34 0.19 -4.05 0.18 -4.36 0 m 7.2 -11.98 c -0.45 -0.04 -1.06 -0.03 -0.96 -0.33 c -0.09 -0.45 0.09 -1.41 -0.01 -1.47 c -0.1 -0.06 -0.47 -0.12 -0.82 -0.12 c -1.02 0.15 -0.75 0.17 -0.75 -1.39 c -0.58 0 -1.16 0 -1.74 0 c -0.04 0.46 0.11 1.23 -0.04 1.59 c -0.77 0.05 -0.83 0.03 -1.62 0.03 l 0.06 2.63 c 1.46 -0.11 1.19 -0.01 1.27 1.49 c 5 -0.31 4.8 0.74 4.6 -2.42 m 5.51 7 c 0.39 -0.08 0.42 -0.13 0.42 -0.68 c 0 -0.92 -0.08 -1.04 -0.75 -1.04 c -0.71 0 -1 0.27 -1 0.91 c 0 0.91 0.23 1.05 1.33 0.82" style="fill:#d156d5"/></svg>