<svg xmlns="http://www.w3.org/2000/svg" xmlns:xlink="http://www.w3.org/1999/xlink" viewBox="0 0 48 48"><defs><g id="3" style="clip-path:url(#2)"><path d="m 87.2 71.1 h 76.3 c 2.96 0 5.38 2.4 5.38 5.35 v 116.9 c 0 2.96 -2.42 5.35 -5.38 5.35 h -76.3 c -2.96 0 -5.38 -2.4 -5.38 -5.35 v -116.9 c 0 -2.96 2.42 -5.35 5.38 -5.35" transform="scale(0.188)" style="fill:#7f7d7f;stroke:#fff;stroke-linecap:round;stroke-width:1.03"/></g><g id="6" style="clip-path:url(#5)"><path d="m 87.2 52.6 h 76.8 c 2.96 0 5.35 2.4 5.35 5.35 v 116.9 c 0 2.98 -2.4 5.38 -5.35 5.38 h -76.8 c -2.96 0 -5.35 -2.4 -5.35 -5.38 v -116.9 c 0 -2.96 2.4 -5.35 5.35 -5.35" transform="scale(0.188)" style="fill:#3d3745;stroke:#fff;stroke-linecap:round;stroke-width:1.03"/></g><g id="9" style="clip-path:url(#8)"><path d="m 107.7 66 h 37.1 c 9.52 0 17.23 6.23 17.23 13.94 c 0 7.69 -7.71 13.92 -17.23 13.92 h -37.1 c -9.52 0 -17.23 -6.23 -17.23 -13.92 c 0 -7.71 7.71 -13.94 17.23 -13.94" transform="scale(0.188)" style="fill:#3584e4;stroke:#fff;stroke-linecap:round;stroke-width:1.19"/></g><g id="C" style="clip-path:url(#B)"><path d="m 105.5 103.6 h 37.1 c 9.52 0 17.23 6.25 17.23 13.94 c 0 7.69 -7.71 13.94 -17.23 13.94 h -37.1 c -9.5 0 -17.23 -6.25 -17.23 -13.94 c 0 -7.69 7.73 -13.94 17.23 -13.94" transform="scale(0.188)" style="fill:#c0bfbb;stroke:#fff;stroke-linecap:round;stroke-width:1.19"/></g><g id="F" style="clip-path:url(#E)"><path d="m 241.2 80.9 c 0 8.13 -6.2 14.72 -13.84 14.72 c -7.66 0 -13.85 -6.59 -13.84 -14.72 c -0.02 -8.13 6.18 -14.72 13.84 -14.72 c 7.64 0 13.84 6.59 13.84 14.72" transform="matrix(0.228 0 0 0.205 -32.2 5.44)" style="fill:#fff;stroke:#fff;stroke-linecap:round"/></g><g id="I" style="clip-path:url(#H)"><path d="m 106.4 142 h 37.1 c 9.52 0 17.23 6.23 17.23 13.94 c 0 7.69 -7.71 13.92 -17.23 13.92 h -37.1 c -9.52 0 -17.23 -6.23 -17.23 -13.92 c 0 -7.71 7.71 -13.94 17.23 -13.94" transform="scale(0.188)" style="fill:#3584e4;stroke:#fff;stroke-linecap:round;stroke-width:1.19"/></g><g id="L" style="clip-path:url(#K)"><path d="m 241.2 80.91 c 0 8.13 -6.2 14.72 -13.84 14.72 c -7.66 0 -13.85 -6.59 -13.85 -14.72 c 0 -8.13 6.2 -14.74 13.85 -14.74 c 7.64 0 13.84 6.61 13.84 14.74" transform="matrix(0.228 0 0 0.205 -24.64 -1.6)" style="fill:#fff;stroke:#fff;stroke-linecap:round"/></g><g id="O" style="clip-path:url(#N)"><path d="m 241.2 80.91 c 0 8.13 -6.2 14.72 -13.84 14.72 c -7.66 0 -13.85 -6.59 -13.85 -14.72 c 0 -8.13 6.2 -14.74 13.85 -14.74 c 7.64 0 13.84 6.61 13.84 14.74" transform="matrix(0.228 0 0 0.205 -24.64 12.64)" style="fill:#fff;stroke:#fff;stroke-linecap:round"/></g><g id="R" style="clip-path:url(#Q)"><path d="m 98 188.8 h 55.2 c 1.5 0 2.71 0.29 2.71 0.67 v 2.08 c 0 0.38 -1.21 0.67 -2.71 0.67 h -55.2 c -1.48 0 -2.69 -0.29 -2.69 -0.67 v -2.08 c 0 -0.38 1.21 -0.67 2.69 -0.67" transform="scale(0.188)" style="fill:#3e3947;stroke:#3e3947;stroke-linecap:round;stroke-width:2.25"/></g><clipPath id="B"><path d="M 0,0 H48 V48 H0 z"/></clipPath><clipPath id="H"><path d="M 0,0 H48 V48 H0 z"/></clipPath><clipPath id="E"><path d="M 0,0 H48 V48 H0 z"/></clipPath><clipPath id="8"><path d="M 0,0 H48 V48 H0 z"/></clipPath><clipPath id="5"><path d="M 0,0 H48 V48 H0 z"/></clipPath><clipPath id="K"><path d="M 0,0 H48 V48 H0 z"/></clipPath><clipPath id="Q"><path d="M 0,0 H48 V48 H0 z"/></clipPath><clipPath id="2"><path d="M 0,0 H48 V48 H0 z"/></clipPath><clipPath id="N"><path d="M 0,0 H48 V48 H0 z"/></clipPath><filter id="0" filterUnits="objectBoundingBox" x="0" y="0" width="48" height="48"><feColorMatrix type="matrix" in="SourceGraphic" values="0 0 0 0 1 0 0 0 0 1 0 0 0 0 1 0 0 0 1 0"/></filter><mask id="D"><g style="filter:url(#0)"><path d="M 0,0 H48 V48 H0 z" style="fill-opacity:0.97"/></g></mask><mask id="M"><g style="filter:url(#0)"><path d="M 0,0 H48 V48 H0 z" style="fill-opacity:0.97"/></g></mask><mask id="P"><g style="filter:url(#0)"><path d="M 0,0 H48 V48 H0 z" style="fill-opacity:0.97"/></g></mask><mask id="1"><g style="filter:url(#0)"><path d="M 0,0 H48 V48 H0 z" style="fill-opacity:0.97"/></g></mask><mask id="4"><g style="filter:url(#0)"><path d="M 0,0 H48 V48 H0 z" style="fill-opacity:0.97"/></g></mask><mask id="J"><g style="filter:url(#0)"><path d="M 0,0 H48 V48 H0 z" style="fill-opacity:0.97"/></g></mask><mask id="A"><g style="filter:url(#0)"><path d="M 0,0 H48 V48 H0 z" style="fill-opacity:0.97"/></g></mask><mask id="7"><g style="filter:url(#0)"><path d="M 0,0 H48 V48 H0 z" style="fill-opacity:0.97"/></g></mask><mask id="G"><g style="filter:url(#0)"><path d="M 0,0 H48 V48 H0 z" style="fill-opacity:0.97"/></g></mask></defs><path d="m 24.1 0.34 c 31.93 -3.62 31.47 48.2 -0.57 47.63 c -29.8 1.71 -32.49 -50.4 0.57 -47.63" style="fill:#56545d"/><use xlink:href="#3" style="mask:url(#1)"/><use xlink:href="#6" style="mask:url(#4)"/><use xlink:href="#9" style="mask:url(#7)"/><use xlink:href="#C" style="mask:url(#A)"/><use xlink:href="#F" style="mask:url(#D)"/><use xlink:href="#I" style="mask:url(#G)"/><use xlink:href="#L" style="mask:url(#J)"/><use xlink:href="#O" style="mask:url(#M)"/><use xlink:href="#R" style="mask:url(#P)"/></svg>