<svg xmlns="http://www.w3.org/2000/svg" viewBox="0 0 48 48" xmlns:xlink="http://www.w3.org/1999/xlink"><defs><linearGradient id="8" gradientUnits="userSpaceOnUse" x1="3.63" y1="9.27" x2="2.93" y2="11.56" gradientTransform="matrix(1.627 0 0 1.771 8.72 8.46)" xlink:href="#1"/><linearGradient id="D" gradientUnits="userSpaceOnUse" x1="4.66" y1="4.27" x2="5.25" y2="3.93" gradientTransform="matrix(1.627 0 0 1.771 8.72 8.46)" xlink:href="#0"/><linearGradient id="9" gradientUnits="userSpaceOnUse" x1="8.5" y1="14.54" x2="9.13" y2="13.46" gradientTransform="matrix(1.627 0 0 1.771 8.72 8.46)" xlink:href="#1"/><linearGradient id="B" gradientUnits="userSpaceOnUse" x1="93.9" y1="45.7" x2="93.1" y2="57.5" gradientTransform="matrix(0.239 0 0 0.26 8.39 7.13)" xlink:href="#A"/><linearGradient id="C" gradientUnits="userSpaceOnUse" x1="103.5" y1="21.85" x2="103.1" y2="27.94" gradientTransform="matrix(0.239 0 0 0.26 8.44 7.87)" xlink:href="#A"/><linearGradient id="A" gradientUnits="userSpaceOnUse" x1="118.9" y1="63.1" x2="117.9" y2="78.7" gradientTransform="matrix(0.239 0 0 0.26 7.33 7.69)"><stop style="stop-color:#007f66;stop-opacity:0"/><stop offset="1" style="stop-color:#0fc"/></linearGradient><linearGradient id="7" gradientUnits="userSpaceOnUse" x1="2.45" y1="10.13" x2="2.2" y2="9.64" gradientTransform="matrix(1.627 0 0 1.771 8.72 8.46)" xlink:href="#1"/><linearGradient id="0" gradientUnits="userSpaceOnUse" y1="8.6" x2="0" y2="8.96" gradientTransform="matrix(1.627 0 0 1.771 8.72 8.46)"><stop style="stop-color:#001212"/><stop offset="1" style="stop-color:#001212;stop-opacity:0"/></linearGradient><linearGradient id="1" gradientUnits="userSpaceOnUse" x1="7.37" y1="2.11" x2="6.32" y2="4.08" gradientTransform="matrix(1.627 0 0 1.771 8.72 8.46)"><stop style="stop-color:#020202"/><stop offset="1" style="stop-color:#020202;stop-opacity:0"/></linearGradient><linearGradient id="6" gradientUnits="userSpaceOnUse" x1="5.47" y1="14.66" x2="4.79" y2="14.31" gradientTransform="matrix(1.627 0 0 1.771 8.72 8.46)" xlink:href="#0"/><linearGradient id="2" gradientUnits="userSpaceOnUse" x1="1022.5" y1="1582.4" x2="1018.6" y2="1575.6" gradientTransform="matrix(0.14 0 0 0.145 -120.2 -212.9)" xlink:href="#1"/><linearGradient id="4" gradientUnits="userSpaceOnUse" x1="4.92" y1="5.31" x2="3.74" y2="5.3" gradientTransform="matrix(1.627 0 0 1.771 8.72 8.46)" xlink:href="#1"/><linearGradient id="5" gradientUnits="userSpaceOnUse" x1="3.29" y1="12.41" x2="4.56" y2="12.4" gradientTransform="matrix(1.627 0 0 1.771 8.72 8.46)" xlink:href="#1"/><linearGradient id="3" gradientUnits="userSpaceOnUse" x1="2.8" y1="8.76" x2="1.97" y2="7.25" gradientTransform="matrix(1.627 0 0 1.771 8.72 8.46)" xlink:href="#1"/></defs><path d="m 2.27 32.93 c -18 -58.4 78.8 -29.2 33.54 10.81 c -9.1 8 -28.69 4.93 -33.54 -10.81" style="fill:#007f7f"/><path d="m 15.76 11.86 h 13.59 l -3.43 6.46 h -7.37 l -3.08 5.77 l 3.11 5.86 h 14.37 l -3.53 6.64 h -13.95 l -6.73 -12.66 l 6.44 -12.1" style="fill:#fff"/><g style="fill:#00aa87"><path d="m 15.18 11.8 l 10.73 6.54 l 3.43 -6.46"/><path d="m 18.64 29.96 l -3.11 6.64 h 13.95 l 3.53 -6.64"/></g><path d="m 15.18 11.8 l 10.73 6.54 h -7.37 l -3.08 5.77 l 3.11 5.86 l -3.11 6.64 l -6.74 -12.66 l 6.45 -12.13" style="fill:#0cf"/><path d="m 8.73 23.93 l 6.73 0.18 l 0.2 0.35 l -6.7 -0.14" style="fill:url(#0)"/><path d="m 25.9 18.34 l -10.73 -6.54 l -0.81 1.59 l 8.12 4.89" style="fill:url(#1)"/><path d="m 18.48 18.27 l 10.92 -6.69 l -3.53 6.3" style="fill:url(#2)"/><g style="fill:#00aa87"><path d="m 18.48 18.34 l 10.81 -6.46 l -3.43 6.46"/><path d="m 8.73 23.93 l 9.76 -5.59 l -3.07 5.77"/></g><path d="m 8.73 23.93 l 9.76 -5.59 l -0.66 -1.14 l -8.45 5.32" style="fill:url(#3)"/><path d="m 18.48 18.34 l -3.35 -6.54 l 0.29 12.31" style="fill:#00aa87"/><path d="m 18.64 29.96 l 10.84 6.64 l 3.53 -6.64" style="fill:#0cf"/><path d="m 15.18 11.8 l -0.81 1.59 l 0.08 10.62 l 1.02 0.05" style="fill:url(#4)"/><path d="m 15.47 24.1 l -5.14 2.8 l 5.14 9.69" style="fill:#00aa87"/><path d="m 15.47 24.1 v 12.57 l 1.25 -2.67 l 0.1 -7.31" style="fill:url(#5)"/><path d="m 15.47 36.6 l -0.49 -0.96 l 3.13 -6.55 l 0.47 0.87" style="fill:url(#6)"/><path d="m 10.33 26.91 l 5.14 -2.8 l -1.02 -0.05 l -4.46 2.32" style="fill:url(#7)"/><path d="m 10.33 26.91 l 8.25 3.05 l -3.11 -5.86" style="fill:#00aa87"/><path d="m 18.64 29.96 l -8.25 -3.05 l 0.89 1.68 l 6.79 2.67" style="fill:url(#8)"/><path d="m 18.64 29.96 l 10.84 6.64 l 1.3 -2.52 l -6.98 -4.18" style="fill:url(#9)"/><path d="m 37.88 27.32 c 0 1.39 -1.04 2.52 -2.32 2.52 c -1.28 0 -2.32 -1.13 -2.32 -2.52 c 0 -1.39 1.04 -2.52 2.32 -2.52 c 1.28 0 2.32 1.13 2.32 2.52" style="fill:#0cf"/><path d="m 37.91 27.3 c 0 1.39 -1.04 2.52 -2.32 2.52 c -1.28 0 -2.32 -1.13 -2.32 -2.52 c 0 -1.39 1.04 -2.52 2.32 -2.52 c 1.28 0 2.32 1.13 2.32 2.52" style="fill:url(#A)"/><path d="m 32.43 21.45 c 0 1.06 -0.79 1.92 -1.76 1.92 c -0.97 0 -1.76 -0.86 -1.76 -1.92 c 0 -1.06 0.79 -1.91 1.76 -1.91 c 0.97 0 1.76 0.86 1.76 1.91" style="fill:#0cf"/><path d="m 32.45 21.44 c 0 1.06 -0.79 1.92 -1.76 1.92 c -0.97 0 -1.76 -0.86 -1.76 -1.92 c 0 -1.06 0.79 -1.91 1.76 -1.91 c 0.97 0 1.76 0.86 1.76 1.91" style="fill:url(#B)"/><path d="m 34 14.81 c 0 0.54 -0.41 0.99 -0.91 0.99 c -0.5 0 -0.91 -0.45 -0.91 -0.99 c 0 -0.55 0.41 -0.99 0.91 -0.99 c 0.5 0 0.91 0.44 0.91 0.99" style="fill:#0cf"/><path d="m 34 14.8 c 0 0.55 -0.41 0.99 -0.91 0.99 c -0.5 0 -0.91 -0.44 -0.91 -0.99 c 0 -0.54 0.41 -0.98 0.91 -0.98 c 0.5 0 0.91 0.44 0.91 0.98" style="fill:url(#C)"/><path d="m 18.48 18.34 l -3.35 -6.54 h 0.86 l 3.16 6.11" style="fill:url(#D)"/></svg>