<svg xmlns="http://www.w3.org/2000/svg" viewBox="0 0 48 48"><path d="m 41.1 7.22 c 29.52 42.3 -44.67 58.6 -40.81 15.1 c 1.57 -17.74 29.52 -31.3 40.81 -15.1" style="fill:#1096ec"/><path d="m 41.3 24.73 c 0 9.43 -7.64 17.1 -17.1 17.1 c -9.43 0 -17.1 -7.64 -17.1 -17.1 c 0 -9.43 7.64 -17.1 17.1 -17.1 c 9.43 0 17.1 7.64 17.1 17.1" style="fill:#ffdeac"/><path d="m 21.75 40 c -4.6 -0.86 -8.29 -3.66 -10.3 -7.81 c -0.91 -1.88 -1.34 -3.54 -1.42 -5.44 c -0.04 -1.07 -0.04 -1.15 0.13 -1.36 c 0.55 -0.7 2.69 -1.41 5.57 -1.83 c 1.34 -0.2 3.66 -0.43 4.33 -0.43 c 0.46 0 0.49 0.01 0.62 0.27 c 0.67 1.32 1.97 2.57 3.32 3.19 c 1.05 0.48 1.7 0.62 2.98 0.61 c 1.01 -0.01 1.26 -0.04 1.91 -0.23 c 1.63 -0.5 2.99 -1.51 3.94 -2.92 c 0.11 -0.16 0.23 -0.32 0.27 -0.34 c 0.18 -0.13 2.85 0.52 3.84 0.94 c 0.37 0.16 0.78 0.41 0.97 0.59 l 0.33 0.32 l -0.05 1.16 c -0.08 1.93 -0.51 3.57 -1.42 5.46 c -1.93 3.98 -5.46 6.76 -9.83 7.72 c -1.17 0.26 -4 0.3 -5.2 0.09" style="fill:#845117"/><path d="m 22.91 40.1 c -1.19 -0.17 -1.6 -0.25 -2.3 -0.42 c -2.45 -0.62 -4.47 -1.8 -6.39 -3.75 c -1.95 -1.96 -3.07 -3.97 -3.72 -6.66 c -0.24 -0.99 -0.46 -2.65 -0.38 -2.79 c 0.02 -0.04 0.23 0.06 0.45 0.22 c 1.29 0.88 4.26 1.52 8.84 1.91 c 1.65 0.14 7.73 0.14 9.38 0 c 4.58 -0.39 7.56 -1.04 8.84 -1.91 c 0.23 -0.16 0.43 -0.25 0.46 -0.21 c 0.06 0.09 -0.1 1.48 -0.25 2.23 c -0.59 2.92 -1.89 5.31 -4 7.43 c -1.69 1.66 -3.68 2.83 -5.93 3.45 c -0.42 0.12 -1.08 0.27 -1.46 0.34 c -0.68 0.12 -3 0.23 -3.52 0.16" style="fill:#6b4004"/><path d="m 10.41 20.1 c -0.35 -0.35 -0.28 -0.72 0.38 -2 c 1.56 -3.04 4.09 -5.62 7.11 -7.22 c 0.68 -0.36 1.34 -0.65 1.49 -0.65 c 0.64 0 0.98 1.05 0.49 1.5 c -0.14 0.13 -0.84 0.59 -1.55 1.04 c -2.34 1.47 -4.11 3.24 -5.52 5.52 c -1.2 1.95 -1.29 2.05 -1.75 2.05 c -0.23 0 -0.52 -0.1 -0.65 -0.23" style="fill:#fff"/><path d="m 33.97 20.2 c 0 3.93 -3.13 7.11 -6.98 7.11 c -3.86 0 -6.99 -3.18 -6.99 -7.11 c 0 -3.92 3.13 -7.1 6.99 -7.1 c 3.86 0 6.98 3.18 6.98 7.1" style="fill:#f55d42"/></svg>