<svg xmlns="http://www.w3.org/2000/svg" viewBox="0 0 48 48"><path d="m 36.3 4 c 42.2 35.83 -44.63 70.3 -35.7 14.87 c 1.96 -12.15 24.3 -24.52 35.7 -14.87" style="fill:#ffd600"/><path d="m 18.96 16.31 c -0.16 0 -0.3 0.13 -0.3 0.29 v 2.46 h 0.48 v -1.96 c 0 -0.13 0.12 -0.23 0.27 -0.23 h 8.1 c 0.15 0 0.27 0.11 0.27 0.23 v 1.96 h 0.48 v -2.46 c 0 -0.16 -0.13 -0.29 -0.3 -0.29" style="fill:#3d3745"/><path d="m 10.9 31.92 h 25.1 v 2.96 h -25.1" style="fill:#a41c2d;fill-rule:evenodd"/><path d="m 12.6 19.1 c -0.94 0 -1.7 0.78 -1.7 1.74 v 2.88 h 25.1 v -2.87 c 0 -0.96 -0.76 -1.74 -1.7 -1.74" style="fill:#ec333b"/><path d="m 10.9 23.68 h 25.1 v 8.24 h -25.1" style="fill:#c01b28;fill-rule:evenodd"/><path d="m 19.78 26.33 h 7.31 c 0.28 0 0.5 0.22 0.5 0.5 v 1.93 c 0 0.27 -0.22 0.5 -0.5 0.5 h -7.31 c -0.28 0 -0.5 -0.22 -0.5 -0.5 v -1.93 c 0 -0.27 0.22 -0.5 0.5 -0.5" style="fill:#c0bfbb"/><path d="m 20.52 27.3 h 5.86 c 0.14 0 0.25 0.11 0.25 0.25 v 0.51 c 0 0.14 -0.11 0.25 -0.25 0.25 h -5.86 c -0.14 0 -0.25 -0.11 -0.25 -0.25 v -0.51 c 0 -0.14 0.11 -0.25 0.25 -0.25" style="fill:#77767a"/><path d="m 30.79 9.55 c -0.2 -0.11 -0.45 -0.05 -0.56 0.15 l -0.47 0.82 l -2.21 3.86 l -1.3 2.27 c -0.38 0.65 -0.14 1.48 0.52 1.85 l 0.98 0.55 l -1.49 2.6 c -0.7 -0.06 -1.38 0.29 -1.73 0.9 c -0.49 0.86 -0.19 1.96 0.68 2.45 c 0.87 0.49 1.98 0.19 2.47 -0.68 c 0.35 -0.61 0.31 -1.36 -0.1 -1.93 l 1.49 -2.6 l 1.07 0.61 c 0.66 0.37 1.49 0.14 1.87 -0.51 l 1.3 -2.27 l 2.21 -3.86 l 0.48 -0.83 c 0.11 -0.2 0.04 -0.44 -0.16 -0.55 l -0.79 -0.45 l -3.73 6.51 c -0.22 0.39 -0.72 0.53 -1.11 0.3 l -2.03 -1.14 c -0.4 -0.22 -0.54 -0.71 -0.31 -1.1 l 3.73 -6.51" style="fill:#f4f4f4"/><g transform="matrix(0.157 0 0 0.143 1.6 9.78)" style="stroke:#000;stroke-width:1.33"><path d="m 76.5 246 c -21.91 -8.61 -42.75 -25.29 -54.3 -43.4 l -2.49 -3.92 h 17.45 l 4.11 4.6 c 5.38 5.99 24.62 26.49 34.56 36.68 c 4.31 4.44 7.69 8.2 7.52 8.37 c -0.15 0.16 -3.26 -0.87 -6.87 -2.32"/><path d="m 119.8 254.9 c 0 -1.12 -11.6 -13.71 -32.44 -35.2 l -20.44 -21.1 h 33.41 l 2.71 3.24 c 1.49 1.77 9.96 10.9 18.82 20.27 c 8.86 9.37 19.1 20.2 22.83 24.2 c 7.67 8.12 7.89 7.38 -2.61 8.53 c -7.74 0.84 -22.28 0.9 -22.28 0.08"/><path d="m 153.2 222.5 l -23.2 -23.95 h 27.2 l 7 7.71 c 3.83 4.25 12.1 13.1 18.32 19.7 c 6.25 6.62 11.35 12.18 11.35 12.43 c 0 0.44 -13.92 7.08 -16.1 7.66 c -1.1 0.3 -5.95 -4.36 -24.55 -23.57"/><path d="m 186.8 198.6 h 33.39 l 3.11 3.54 c 6.32 7.22 11.78 10.74 2.22 14.85 c -5.63 4.44 -8.96 4.69 -12.9 8.15"/></g></svg>