<svg xmlns="http://www.w3.org/2000/svg" viewBox="0 0 48 48"><path d="m 41.98 7.58 c 27.1 41.89 -46.91 58.1 -41 15 c 2.41 -17.58 30.64 -31 41 -15" style="fill:#d4ade7"/><path d="m 24.66 12.77 c -7.36 0 -13.34 6.1 -13.34 13.52 c 0 7.46 5.98 13.52 13.34 13.52 c 3.53 -0.02 7.3 -1.06 9.79 -3.61 v -0.9 l -9.79 -9 l 1.78 -1.8 h 2.67 v -2.7 h 2.67 v -2.7 h 2.67 v -2.7 c 0 0 -9.43 -3.61 -9.79 -3.61" style="fill-opacity:0.1"/><path d="m 29.1 15.47 l -2.67 8.11 h 2.67 v -2.7 h 2.67 v -2.7 h 2.67 v -2.7 m -8 11.71 l 2.67 8.11 h 5.34 v -2.7 h -2.67 v -2.7 h -2.67 v -2.7" style="fill:#f9f9f9"/><path d="m 24.66 11.87 c -7.36 0 -13.34 6.1 -13.34 13.51 c 0 7.46 5.98 13.52 13.34 13.52 c 3.53 -0.01 7.3 -1.06 9.79 -3.61 l -9.79 -9.91 l 9.79 -9.91 c -2.5 -2.53 -6.24 -3.6 -9.79 -3.6" style="fill:#535353"/></svg>