<svg xmlns="http://www.w3.org/2000/svg" viewBox="0 0 48 48"><path d="m 8.55 41.1 c -37.7 -49.59 66.1 -56.63 32.77 -6 c -7.59 11.54 -22.77 19.2 -32.77 6" style="fill:#e7cfec"/><path d="m 17.51 37.97 c -0.46 -0.59 -0.73 -1.05 -0.76 -1.55 c -0.04 -0.64 -0.02 -0.8 0.17 -1.12 c 0.42 -0.72 0.47 -0.73 3.61 -0.73 c 2.76 0 2.79 0 3.1 0.22 c 0.48 0.33 0.61 0.65 0.61 1.51 c 0.03 0.93 -0.37 1.02 -0.78 1.71 c 0 0.05 -1.19 0.09 -2.98 0.09 c -2.47 0 -2.98 -0.02 -2.98 -0.13 m 0.14 -4.56 c -0.68 -0.38 -0.88 -1.02 -0.91 -1.5 c -0.04 -0.64 -0.02 -0.79 0.17 -1.11 c 0.42 -0.72 0.48 -0.73 3.57 -0.73 c 2.45 0 2.77 0.02 3.05 0.17 c 0.53 0.28 0.7 0.65 0.7 1.55 c 0.15 0.82 -0.39 1.18 -0.86 1.66 l -2.76 0.02 c -0.98 -0.06 -1.99 0.07 -2.96 -0.06 m 0 -4.6 c -0.36 -0.22 -0.58 -0.47 -0.88 -0.77 c 0 -4.31 0 -8.63 0 -12.94 c 0.29 -0.25 0.58 -0.53 0.73 -0.86 c 0 -0.17 0.2 -0.18 6.88 -0.18 c 6.68 0 6.88 0 6.88 0.18 c 0.16 0.38 0.43 0.58 0.73 0.86 c 0 4.32 0 8.63 0 12.95 c -0.28 0.27 -0.55 0.54 -0.83 0.8 l -6.66 0.02 c -3.66 0.01 -6.75 -0.02 -6.86 -0.06 m 10.95 -2.69 c 0.15 -0.11 0.38 -0.34 0.5 -0.51 c 0.21 -0.31 0.22 -0.33 0.22 -3.96 c 0 -3.95 -0.02 -4.08 -0.53 -4.47 c -0.57 -0.43 -1.09 -0.49 -4.36 -0.49 c -3.83 0 -4.35 0.1 -4.79 0.95 c -0.15 0.29 -0.17 0.7 -0.17 4.35 c 0 3.65 0.02 4.05 0.17 4.2 c 0.16 0.17 0.37 0.18 4.43 0.15 c 4.15 -0.02 4.27 -0.03 4.54 -0.22 m -6.59 -2.18 c -0.2 -1.5 -0.09 -2.35 -0.07 -4.16 c 0.21 -0.18 0.43 -0.37 0.64 -0.55 c 1.2 0 2.4 0 3.6 0 c 0.21 0.18 0.43 0.36 0.64 0.55 c 0.02 1.16 0.04 2.32 0.06 3.48 c -0.23 0.24 -0.45 0.48 -0.68 0.71 c -1.37 -0.11 -2.84 0.23 -4.19 -0.03" style="fill:#ab4aba"/></svg>