<svg xmlns="http://www.w3.org/2000/svg" viewBox="0 0 48 48"><path d="m 15.1 2.27 c 58.4 -18 29.2 78.8 -10.81 33.55 c -8 -9.1 -4.93 -28.69 10.81 -33.55" style="fill:#2fb466"/><path d="m 12.8 35.74 c -0.21 -0.25 -0.28 -1.59 -0.32 -6.37 c -0.05 -5.27 -0.02 -6.11 0.26 -6.52 l 0.31 -0.48 l 11.18 0.06 c 9.13 0.05 11.25 0.11 11.51 0.33 c 0.29 0.24 0.32 0.93 0.32 6.44 c 0 3.55 -0.08 6.3 -0.19 6.47 c -0.14 0.23 -0.74 0.31 -2.83 0.36 l -2.64 0.07 v -1.73 c -0.01 -3.67 -0.51 -5.33 -1.99 -6.6 c -1.31 -1.13 -2.37 -1.53 -4.06 -1.55 c -1.77 -0.02 -3.17 0.54 -4.42 1.8 c -1.24 1.25 -1.48 1.94 -1.66 4.71 c -0.24 3.68 0.06 3.32 -2.78 3.32 c -2 0 -2.46 -0.05 -2.68 -0.32" style="fill:#ffd600"/><path d="m 25.81 21.81 c -0.14 -0.23 1.98 -5.61 3.46 -8.8 l 1 -2.16 l 0.38 0.73 c 0.9 1.75 4.24 9.89 4.24 10.32 c 0 0.2 -8.95 0.11 -9.1 -0.09" style="fill:#4c89d6"/><path d="m 24.2 17.34 c 0 2.48 -2 4.49 -4.49 4.49 c -2.48 0 -4.49 -2 -4.49 -4.49 c 0 -2.48 2 -4.49 4.49 -4.49 c 2.48 0 4.49 2 4.49 4.49" style="fill:#ea4c4d"/></svg>