<svg xmlns="http://www.w3.org/2000/svg" viewBox="0 0 48 48"><path d="m 23.96 0.21 c 31.67 -3.59 31.2 47.71 -0.56 47.1 c -29.57 1.7 -32.2 -49.9 0.56 -47.1" style="fill:#f4f4f4"/><path d="m 30.2 31.62 c 0 3.63 -2.92 6.57 -6.51 6.57 c -3.6 0 -6.52 -2.94 -6.52 -6.57 c 0 -3.63 2.92 -6.57 6.52 -6.57 c 3.59 0 6.51 2.94 6.51 6.57" style="fill:#c83d38"/><path d="m 30.1 23.67 c 0 3.63 -2.92 6.57 -6.52 6.57 c -3.59 0 -6.51 -2.94 -6.51 -6.57 c 0 -3.63 2.92 -6.57 6.51 -6.57 c 3.6 0 6.52 2.94 6.52 6.57" style="fill:#945bb0"/><path d="m 30.1 16.82 c 0 3.63 -2.92 6.57 -6.52 6.57 c -3.59 0 -6.51 -2.94 -6.51 -6.57 c 0 -3.63 2.92 -6.56 6.51 -6.56 c 3.6 0 6.52 2.94 6.52 6.56" style="fill:#3b962e"/></svg>