<svg xmlns="http://www.w3.org/2000/svg" viewBox="0 0 48 48"><path d="m 39.3 5.68 c -28.8 -22.1 -58.67 32.95 -23 41 c 22.44 8.26 44.4 -24.62 23 -41" style="fill:#54498e"/><path d="m 16.88 16.25 c -2.77 0 -5 2.22 -5 4.96 c 0 1.42 0.62 2.78 1.71 3.72 c -1.08 0.94 -1.7 2.3 -1.71 3.72 c 0 2.74 2.25 4.96 5 4.96 c 0.58 -0.01 1.16 -0.11 1.71 -0.31 c 0.27 2.52 2.42 4.44 5 4.45 c 2.57 0 4.73 -1.92 4.99 -4.45 c 0.55 0.2 1.13 0.3 1.71 0.31 c 2.77 0 5 -2.23 5 -4.96 c 0 -1.42 -0.62 -2.78 -1.71 -3.72 c 1.08 -0.94 1.7 -2.3 1.71 -3.72 c 0 -2.74 -2.25 -4.96 -5 -4.96 c 0 0 -13.32 0.13 -13.41 0" style="fill-opacity:0.1"/><path d="m 28.61 17.1 c 0 2.74 -2.25 4.96 -5 4.96 c -2.78 0 -5 -2.22 -5 -4.96 c 0 -2.74 2.25 -4.96 5 -4.96 c 2.78 0 5 2.22 5 4.96" style="fill:#6764cd"/><path d="m 21.91 20.38 c 0 2.74 -2.25 4.96 -5 4.96 c -2.78 0 -5 -2.22 -5 -4.96 c 0 -2.74 2.25 -4.96 5 -4.96 c 2.78 0 5 2.22 5 4.96" style="fill:#f1920d"/><path d="m 28.61 31.96 c 0 2.74 -2.25 4.96 -5 4.96 c -2.78 0 -5 -2.22 -5 -4.96 c 0 -2.74 2.25 -4.96 5 -4.96 c 2.78 0 5 2.22 5 4.96" style="fill:#dd8812"/><g style="fill:#7673d7"><path d="m 35.3 27.83 c 0 2.74 -2.25 4.96 -5 4.96 c -2.78 0 -5 -2.22 -5 -4.96 c 0 -2.74 2.25 -4.96 5 -4.96 c 2.78 0 5 2.22 5 4.96"/><path d="m 21.91 27.83 c 0 2.74 -2.25 4.96 -5 4.96 c -2.78 0 -5 -2.22 -5 -4.96 c 0 -2.74 2.25 -4.96 5 -4.96 c 2.78 0 5 2.22 5 4.96"/></g><path d="m 35.3 20.38 c 0 2.74 -2.25 4.96 -5 4.96 c -2.78 0 -5 -2.22 -5 -4.96 c 0 -2.74 2.25 -4.96 5 -4.96 c 2.78 0 5 2.22 5 4.96" style="fill:#f1920d"/><path d="m 28.61 24.52 c 0 2.74 -2.25 4.96 -5 4.96 c -2.78 0 -5 -2.22 -5 -4.96 c 0 -2.74 2.25 -4.96 5 -4.96 c 2.78 0 5 2.22 5 4.96" style="fill:#ed9e2f"/></svg>