<svg xmlns="http://www.w3.org/2000/svg" viewBox="0 0 48 48"><path d="m 41.66 40.69 c 27.2 -41.76 -47.1 -57.92 -41.2 -14.95 c 2.41 17.53 30.77 30.95 41.2 14.95" style="fill:#9c703f"/><path d="m 36.89 33.79 c 0 4.2 -3.39 7.6 -7.57 7.6 c -4.18 0 -7.56 -3.4 -7.56 -7.6 c 0 -4.2 3.39 -7.6 7.56 -7.6 c 4.18 0 7.57 3.4 7.57 7.6" style="fill:#fff"/><path d="m 35.43 33.82 c 0 3.41 -2.7 6.18 -6 6.18 c -3.33 0 -6 -2.77 -6 -6.18 c 0 -3.41 2.7 -6.17 6 -6.17 c 3.33 0 6 2.77 6 6.17" style="fill:#ff0a03"/><g style="fill:#fff"><path d="m 28.48 38.1 c -1 -0.09 -1.92 -0.44 -2.45 -1.3 c -0.34 -1.4 -0.3 -2.7 -0.27 -4.45 c 0.03 -1.73 -0.3 -2.39 0.67 -2.39 c 0.97 -0.06 0.82 0.77 0.76 3.07 c 0.1 2.72 0.02 3.1 0.15 3.23 c 1.15 0.16 3.26 0.78 4 -0.04 c 0.17 -0.2 0.42 -0.29 0.39 -1.33 c -0.07 -2.32 -0.49 -2.66 0.75 -2.66 c 0.52 0 0.49 -0.12 0.49 2.1 c 0 1.14 -0.04 2.13 -0.08 2.3 c -0.11 0.44 -0.38 0.71 -1.01 1.06 c -0.83 0.46 -1.69 0.56 -3.41 0.41"/><path d="m 12.5 10.83 h 8.78 c 1.25 0 2.27 1.11 2.27 2.48 v 10.61 c 0 1.37 -1.02 2.48 -2.27 2.48 h -8.78 c -1.25 0 -2.27 -1.11 -2.27 -2.48 v -10.61 c 0 -1.37 1.02 -2.48 2.27 -2.48"/></g><g style="fill:#814f22"><path d="m 12.37 17.54 c -0.89 -1.46 -1.23 -1.06 0.02 -2.71 c 0.7 -0.92 1.23 -1.71 1.61 -1.59 c 0.33 0.11 2.46 2.56 2.48 3.08 c 0.01 0.22 -0.77 0.75 -0.86 1.23 c -0.26 2.38 -0.17 4.32 -0.25 6.79 c -0.95 0.13 -1.98 -0.07 -2.82 -0.07 c -0.06 -1.83 0.21 -6 -0.18 -6.74"/><path d="m 18.27 17.54 c -0.89 -1.46 -1.23 -1.06 0.02 -2.71 c 0.7 -0.92 1.23 -1.71 1.61 -1.59 c 0.33 0.11 2.46 2.56 2.48 3.08 c 0.01 0.22 -0.77 0.75 -0.86 1.23 c -0.26 2.38 -0.17 4.32 -0.25 6.79 c -0.95 0.13 -1.98 -0.07 -2.82 -0.07 c -0.06 -1.83 0.21 -6 -0.18 -6.74"/></g></svg>