<svg xmlns="http://www.w3.org/2000/svg" viewBox="0 0 48 48"><path d="m 9.89 43.3 c 36.1 23.94 58.3 -52.4 11.66 -42.3 c -19.28 4.31 -30.98 31.3 -11.66 42.3" style="fill:#66cdaa"/><path d="m 14.96 22.87 c 0 -0.83 1.62 -14.59 1.76 -14.97 c 0.15 -0.41 0.21 -0.45 0.82 -0.37 c 5.91 0.34 10.57 0.78 16.23 1.73 c -0.36 3.98 -0.63 6.21 -1.13 13.16 l -0.09 0.37 c -2.08 0.12 -16.33 0.18 -17.58 0.08" style="fill:#fff"/><path d="m 21.25 22.1 c -0.75 -0.14 -1.01 -0.69 -1.2 -1.07 c -0.48 -0.94 -0.96 -2.18 1.45 -2.6 c 0.41 -0.07 0.36 -0.23 0.41 -0.7 c 0.12 -0.95 0.13 -0.96 0.5 -1.37 c 0.79 -0.84 1.89 -0.95 2.77 -0.29 c 0.4 0.3 0.62 0.76 0.66 1.39 c 0.06 0.5 -0.07 0.71 -0.27 1.11 c 0 0.02 0.3 0.25 0.67 0.52 c 2.99 0.5 0.61 5.2 -1.71 2.76 l 0.32 2.72 c 0.1 0.87 -2.93 0.49 -2.45 -0.42 c 0.94 -1.77 0.23 -2.38 0.1 -2.42"/><path d="m 28.2 14.38 c -0.23 -0.07 -0.59 -0.36 -0.7 -0.56 c -0.28 -0.49 -0.56 -1.14 0.85 -1.36 c 0.24 -0.04 0.21 -0.12 0.24 -0.37 c 0.07 -0.5 0.07 -0.5 0.29 -0.71 c 0.46 -0.44 1.11 -0.5 1.62 -0.15 c 0.23 0.16 0.36 0.4 0.39 0.73 c 0.04 0.26 -0.04 0.38 -0.16 0.58 c 0 0.01 0.18 0.13 0.39 0.27 c 1.75 0.26 0.36 2.72 -1 1.45 l 0.19 1.42 c 0.06 0.45 -1.71 0.25 -1.43 -0.22 c 0.55 -0.93 0.14 -1.24 0.06 -1.27"/><path d="m 23.1 43.61 c -0.7 -0.25 -2.03 -0.82 -4.64 -1.98 c -1.28 -0.57 -2.95 -1.3 -3.72 -1.63 c -0.77 -0.33 -1.57 -0.71 -1.79 -0.85 l -0.38 -0.25 v -15.88 l 0.27 -0.12 c 0.25 -0.11 1.23 -0.12 10.81 -0.13 c 8.74 0 10.59 0.02 10.88 0.1 l 0.35 0.1 v 5.69 c 0 3.13 -0.02 6.73 -0.05 8 l -0.05 2.33 l -1 0.48 c -1.04 0.5 -7 3.16 -8.25 3.67 c -0.87 0.36 -1.68 0.65 -1.84 0.64 c -0.06 0 -0.33 -0.08 -0.59 -0.18" style="fill:#698e5c"/><path d="m 20.1 14.48 c -0.1 -0.04 -0.28 -0.26 -0.41 -0.49 c -0.4 -0.73 -0.94 -0.81 -1.29 -0.19 c -0.18 0.32 -0.53 0.51 -0.84 0.46 c -0.19 -0.03 -0.21 -0.08 -0.2 -0.48 c 0 -0.36 0.13 -0.7 0.59 -1.69 c 0.32 -0.68 0.71 -1.39 0.85 -1.58 c 0.29 -0.37 0.71 -0.52 0.99 -0.36 c 0.2 0.11 0.63 1.49 0.89 2.8 c 0.24 1.24 0.23 1.38 -0.11 1.5 c -0.16 0.06 -0.29 0.1 -0.29 0.1 c 0 0 -0.09 -0.04 -0.18 -0.08 m -0.61 -1.93 c 0.14 -0.59 -0.19 -1.13 -0.46 -0.76 c -0.17 0.24 -0.16 0.62 0.01 0.87 c 0.16 0.25 0.38 0.19 0.45 -0.11"/><g transform="scale(0.188)" style="fill:none;stroke:#fff"><path d="m 77.2 133.9 l 98.9 -0.56" style="stroke-dasharray:5.82237 5.82237;stroke-width:5.82"/><g style="stroke-dasharray:5.5818 5.5818;stroke-width:5.58"><path d="m 173.3 142 l 0.79 63.75"/><path d="m 79.9 143.1 l 0.79 63.75"/></g></g></svg>