<svg xmlns="http://www.w3.org/2000/svg" xmlns:xlink="http://www.w3.org/1999/xlink" viewBox="0 0 48 48"><defs><g id="5" style="clip-path:url(#4)"><path d="m 24.32 36.66 c -6.83 0 -12.36 -5.55 -12.36 -12.4 c 0 -6.85 5.53 -12.4 12.36 -12.4 c 6.82 0 12.36 5.55 12.36 12.4 c 0 6.85 -5.53 12.4 -12.36 12.4" style="fill:url(#3)"/></g><clipPath id="4"><path d="M 0,0 H48 V48 H0 z"/></clipPath><filter id="1" filterUnits="objectBoundingBox" x="0" y="0" width="48" height="48"><feColorMatrix type="matrix" in="SourceGraphic" values="0 0 0 0 1 0 0 0 0 1 0 0 0 0 1 0 0 0 1 0"/></filter><linearGradient id="C" gradientUnits="userSpaceOnUse" x1="43.1" y1="38.67" x2="52.3" y2="57.3" gradientTransform="matrix(-0.495 0 0 -0.496 48 48.1)"><stop style="stop-color:#fff;stop-opacity:0.7"/><stop offset="1" style="stop-color:#fff;stop-opacity:0"/></linearGradient><linearGradient id="9" gradientUnits="userSpaceOnUse" y1="26.2" x2="0" y2="19.58"><stop style="stop-color:#fff"/><stop offset="1" style="stop-color:#979797"/></linearGradient><linearGradient id="B" gradientUnits="userSpaceOnUse" y1="38.61" x2="0" y2="57.4" gradientTransform="matrix(-0.495 0 0 -0.496 48 48.1)"><stop style="stop-color:#fff"/><stop offset="1" style="stop-color:#393939"/></linearGradient><linearGradient id="A" gradientUnits="userSpaceOnUse" x1="38.59" x2="57.4" gradientTransform="matrix(-0.495 0 0 -0.496 48 48.1)"><stop style="stop-color:#fff;stop-opacity:0.2"/><stop offset="1" style="stop-color:#fff;stop-opacity:0"/></linearGradient><linearGradient id="7" gradientUnits="userSpaceOnUse" y1="36.63" x2="0" y2="60.93" gradientTransform="matrix(-0.495 0 0 -0.496 48 48.1)"><stop style="stop-color:#ccc"/><stop offset="1" style="stop-color:#959595"/></linearGradient><linearGradient id="6" gradientUnits="userSpaceOnUse" x1="27" x2="67.4" gradientTransform="matrix(0 0.59 -0.588 0 51.2 -3.58)"><stop style="stop-color:#191919"/><stop offset="1" style="stop-color:#393939"/></linearGradient><linearGradient id="3" gradientUnits="userSpaceOnUse" x1="27" x2="94.4" gradientTransform="matrix(0 0.614 -0.612 0 52.3 -4.72)"><stop style="stop-color:#fff"/><stop offset="1" style="stop-color:#fff;stop-opacity:0"/></linearGradient><linearGradient id="0" gradientUnits="userSpaceOnUse" x1="35.1" x2="59.1" gradientTransform="matrix(-0.675 0.391 -0.389 -0.677 73.96 36.77)"><stop style="stop-color:#b3b3b3"/><stop offset="0.5" style="stop-color:#787878"/><stop offset="1" style="stop-color:#b3b3b3"/></linearGradient><mask id="2"><g style="filter:url(#1)"><path d="M 0,0 H48 V48 H0 z" style="fill-opacity:0.6"/></g></mask><radialGradient id="8" gradientUnits="userSpaceOnUse" cx="47.2" cy="45.74" r="20.2" gradientTransform="matrix(-0.261 0 0 -0.262 36.67 36.1)"><stop style="stop-color:#000;stop-opacity:0"/><stop offset="0.83" style="stop-color:#000"/><stop offset="1" style="stop-color:#000;stop-opacity:0"/></radialGradient></defs><path d="m 0.7 29.1 c 3.71 24.58 40.72 25.3 46.3 1.42 c 5.75 -19.34 -15.1 -35.1 -30.68 -28.8 c -10.44 3 -18.88 15.24 -15.64 27.39" style="fill:#7f7f7f"/><path d="m 10.69 32.1 c -4.34 -7.55 -1.76 -17.21 5.77 -21.57 c 7.52 -4.36 17.1 -1.77 21.49 5.79 c 4.34 7.55 1.76 17.21 -5.77 21.56 c -7.52 4.36 -17.1 1.77 -21.49 -5.78" style="fill:url(#0)"/><use xlink:href="#5" style="mask:url(#2)"/><path d="m 24.31 36.2 c -6.55 0 -11.87 -5.33 -11.87 -11.91 c 0 -6.58 5.31 -11.91 11.87 -11.91 c 6.55 0 11.87 5.33 11.87 11.91 c 0 6.58 -5.31 11.91 -11.87 11.91" style="fill:url(#6)"/><path d="m 24.31 32.75 l 1.73 -2.32 c 2.69 -0.76 4.66 -3.23 4.66 -6.18 c 0 -3.54 -2.86 -6.42 -6.39 -6.42 c -3.53 0 -6.39 2.88 -6.39 6.42 c 0 2.95 1.97 5.42 4.66 6.18" style="fill:url(#7)"/><path d="m 19.1 24.1 c 0 -2.93 2.36 -5.3 5.28 -5.3 c 2.91 0 5.27 2.37 5.27 5.3 c 0 2.92 -2.36 5.29 -5.27 5.29 c -2.91 0 -5.28 -2.37 -5.28 -5.29" style="fill:url(#8)"/><path d="m 19.66 24.3 c 0 -2.58 2.08 -4.67 4.65 -4.67 c 2.57 0 4.66 2.09 4.66 4.67 c 0 2.58 -2.08 4.67 -4.66 4.67 c -2.57 0 -4.65 -2.09 -4.65 -4.67" style="fill:url(#9)"/><path d="m 30.3 33.97 l -0.61 0.36 l -1.42 -2.47 l 0.61 -0.36 m 6.5 -4.63 l -0.18 0.69 l -2.75 -0.74 l 0.18 -0.69 m 1.34 -7.89 l 0.36 0.62 l -2.46 1.42 l -0.36 -0.61 m -4.61 -6.53 l 0.69 0.18 l -0.74 2.75 l -0.69 -0.18 m -7.86 -1.34 l 0.61 -0.36 l 1.42 2.47 l -0.61 0.36 m -6.5 4.63 l 0.18 -0.69 l 2.74 0.74 l -0.18 0.69 m -1.34 7.89 l -0.36 -0.61 l 2.46 -1.43 l 0.36 0.61 m 4.61 6.53 l -0.69 -0.18 l 0.74 -2.75 l 0.69 0.18" style="fill:#fff;fill-opacity:0.7"/><path d="m 24.31 28.93 c 0.2 0 0.41 -0.01 0.6 -0.04 l -0.6 -1.52 l -0.61 1.52 c 0.2 0.02 0.4 0.04 0.61 0.04 m -0.61 -0.04 l -0.19 -1.63 l -0.98 1.32 c 0.19 0.08 0.39 0.14 0.59 0.19 c 0.2 0.05 0.39 0.09 0.59 0.12 m -1.18 -0.32 l 0.23 -1.62 l -1.29 1 c 0.16 0.13 0.33 0.24 0.51 0.34 c 0.18 0.11 0.36 0.19 0.54 0.27 m -1.05 -0.61 l 0.64 -1.51 l -1.5 0.64 c 0.13 0.16 0.26 0.32 0.4 0.46 c 0.15 0.14 0.3 0.28 0.46 0.4 m -0.86 -0.87 l 1.02 -1.29 h -0.01 l -1.61 0.23 c 0.08 0.19 0.16 0.37 0.27 0.55 h 0.01 c 0.1 0.18 0.2 0.35 0.32 0.51 m -0.6 -1.05 l 1.31 -0.98 l -1.5 0.41 c 0.05 0.2 0.12 0.38 0.2 0.57 m 1.31 -0.98 l -1.62 -0.19 c 0.02 0.2 0.07 0.39 0.12 0.59 m -0.12 -0.59 l 1.51 -0.61 l -1.51 -0.61 c -0.02 0.2 -0.04 0.4 -0.04 0.61 c 0 0.2 0.01 0.41 0.04 0.61 m 0 -1.22 l 1.62 -0.19 l -1.31 -0.98 c -0.08 0.19 -0.14 0.39 -0.2 0.59 c -0.05 0.2 -0.09 0.4 -0.12 0.6 m 0.32 -1.19 l 1.61 0.23 l -1 -1.29 c -0.13 0.16 -0.24 0.33 -0.34 0.51 c -0.1 0.18 -0.19 0.36 -0.27 0.55 m 0.6 -1.06 l 1.5 0.65 l -0.64 -1.51 c -0.16 0.13 -0.32 0.26 -0.46 0.4 v 0.01 c -0.14 0.14 -0.28 0.29 -0.4 0.45 m 0.86 -0.86 l 1.29 1.02 v -0.01 l -0.23 -1.62 c -0.19 0.08 -0.37 0.16 -0.54 0.27 c -0.18 0.11 -0.35 0.21 -0.51 0.34 m 1.05 -0.61 l 0.98 1.32 l -0.41 -1.51 c -0.2 0.05 -0.38 0.12 -0.57 0.19 m 0.98 1.32 l 0.19 -1.63 c -0.2 0.03 -0.39 0.07 -0.59 0.12 m 0.59 -0.12 l 0.61 1.52 l 0.6 -1.52 c -0.2 -0.02 -0.4 -0.04 -0.6 -0.04 c -0.2 0 -0.41 0.01 -0.61 0.04 m 1.21 0 l 0.19 1.63 l 0.98 -1.32 c -0.19 -0.08 -0.39 -0.14 -0.59 -0.19 c -0.2 -0.05 -0.39 -0.09 -0.59 -0.12 m 1.18 0.32 l -0.23 1.62 l 1.29 -1 c -0.16 -0.13 -0.33 -0.24 -0.51 -0.34 c -0.18 -0.11 -0.36 -0.19 -0.54 -0.27 m 1.05 0.61 l -0.64 1.51 l 1.5 -0.64 c -0.13 -0.16 -0.26 -0.32 -0.4 -0.46 c -0.15 -0.14 -0.3 -0.28 -0.46 -0.4 m 0.86 0.86 l -1.02 1.29 h 0.01 l 1.61 -0.23 c -0.08 -0.19 -0.16 -0.37 -0.27 -0.55 h -0.01 c -0.1 -0.18 -0.2 -0.35 -0.32 -0.51 m 0.6 1.05 l -1.31 0.98 l 1.5 -0.41 c -0.05 -0.2 -0.12 -0.38 -0.2 -0.57 m -1.31 0.98 l 1.62 0.19 c -0.02 -0.2 -0.07 -0.39 -0.12 -0.59 m 0.12 0.59 l -1.51 0.61 l 1.51 0.61 c 0.02 -0.2 0.04 -0.4 0.04 -0.61 c 0 -0.2 -0.01 -0.41 -0.04 -0.61 m 0 1.22 l -1.62 0.19 l 1.31 0.98 c 0.08 -0.19 0.14 -0.39 0.2 -0.59 c 0.05 -0.2 0.09 -0.4 0.12 -0.6 m -0.32 1.19 l -1.61 -0.23 l 1 1.29 c 0.13 -0.16 0.24 -0.33 0.34 -0.51 c 0.1 -0.18 0.19 -0.36 0.27 -0.55 m -0.6 1.06 l -1.5 -0.64 l 0.64 1.51 c 0.16 -0.13 0.32 -0.26 0.46 -0.4 v -0.01 c 0.14 -0.14 0.28 -0.29 0.4 -0.45 m -0.86 0.86 l -1.29 -1.02 v 0.01 l 0.23 1.62 c 0.19 -0.08 0.37 -0.16 0.54 -0.27 c 0.18 -0.11 0.35 -0.21 0.51 -0.34 m -1.05 0.61 l -0.98 -1.32 l 0.41 1.51 c 0.2 -0.05 0.38 -0.12 0.57 -0.19 m -0.98 -1.32 l -0.19 1.63 c 0.2 -0.03 0.39 -0.07 0.59 -0.12" style="fill:url(#A)"/><path d="m 19.66 24.3 c 0 2.58 2.07 4.66 4.64 4.66 c 2.57 0 4.64 -2.08 4.64 -4.66 c 0 -2.57 -2.07 -4.66 -4.64 -4.66 c -2.57 0 -4.64 2.08 -4.64 4.66 m 1.51 0 c 0 -1.73 1.4 -3.14 3.13 -3.14 c 1.73 0 3.13 1.41 3.13 3.14 c 0 1.73 -1.41 3.14 -3.13 3.14 c -1.73 0 -3.13 -1.41 -3.13 -3.14" style="fill:url(#B)"/><path d="m 24.91 28.89 l 0.2 -1.63 c -0.27 0.07 -0.54 0.11 -0.8 0.11 l 0.6 1.52 m -0.6 -1.52 c -0.28 0 -0.54 -0.04 -0.8 -0.11 l 0.19 1.63 l 0.61 -1.52 m -0.8 -0.11 c -0.27 -0.07 -0.52 -0.18 -0.75 -0.3 l -0.23 1.62 l 0.98 -1.32 m -0.75 -0.3 c -0.23 -0.14 -0.45 -0.31 -0.64 -0.5 l -0.64 1.51 l 1.29 -1 m -0.64 -0.5 c -0.2 -0.2 -0.35 -0.41 -0.48 -0.64 l -1.02 1.29 m 4.47 0.16 l 0.98 1.32 l -0.23 -1.62 c -0.24 0.14 -0.5 0.23 -0.75 0.3 m 2.04 0.71 l -0.64 -1.51 c -0.2 0.2 -0.41 0.35 -0.64 0.49 m 0.64 -0.49 l 1.5 0.64 l -1 -1.29 c -0.14 0.24 -0.31 0.46 -0.5 0.64 m 0.49 -0.64 l 1.61 0.23 l -1.31 -0.98 c -0.07 0.27 -0.17 0.53 -0.3 0.75 m 0.3 -0.76 l 1.62 -0.2 l -1.51 -0.61 c 0 0.28 -0.04 0.55 -0.11 0.8 m 0.11 -0.81 l 1.51 -0.61 l -1.62 -0.19 c 0.07 0.27 0.11 0.54 0.11 0.8 m -0.11 -0.81 l 1.31 -0.98 l -1.61 0.23 c 0.14 0.24 0.23 0.5 0.3 0.76 m -7.29 2.59 l 1.61 -0.23 c -0.14 -0.24 -0.23 -0.5 -0.3 -0.75 l -1.31 0.98 m 1.31 -0.98 c -0.07 -0.27 -0.11 -0.54 -0.11 -0.8 l -1.51 0.61 l 1.62 0.2 m -0.11 -0.8 c 0 -0.28 0.04 -0.55 0.11 -0.8 l -1.62 0.2 l 1.51 0.61 m 0.11 -0.8 c 0.07 -0.27 0.17 -0.52 0.3 -0.75 l -1.61 -0.23 l 1.31 0.98 m 0.3 -0.75 c 0.14 -0.24 0.31 -0.46 0.5 -0.64 l -1.5 -0.64 l 1 1.29 m 0.5 -0.64 c 0.2 -0.2 0.41 -0.35 0.64 -0.49 l -1.29 -1.02 m 5.52 2.15 l 1.02 -1.29 l -1.5 0.64 c 0.2 0.2 0.35 0.42 0.48 0.64 m -0.48 -0.64 l 0.64 -1.51 l -1.29 1 c 0.24 0.14 0.46 0.31 0.64 0.5 m -0.64 -0.49 l 0.23 -1.62 l -0.98 1.31 c 0.27 0.07 0.52 0.18 0.75 0.3 m -0.76 -0.3 l -0.2 -1.63 l -0.6 1.52 c 0.28 0 0.54 0.04 0.8 0.11 m -0.8 -0.11 l -0.61 -1.52 l -0.19 1.63 c 0.27 -0.07 0.54 -0.11 0.8 -0.11 m -0.8 0.11 l -0.98 -1.31 l 0.23 1.62 c 0.24 -0.14 0.5 -0.23 0.75 -0.3" style="fill:url(#C)"/><path d="m 24.91 28.89 l -0.6 -1.52 l -0.61 1.52 l 0.61 -0.74 m 0.6 0.74 l 0.4 -0.87 l 0.78 0.55 l -0.98 -1.32 l -0.19 1.63 m 1.17 -0.32 l 0.16 -0.95 l 0.89 0.34 l -1.29 -1.02 m 1.29 1.02 l -0.1 -0.96 l 0.95 0.1 l -1.5 -0.64 l 0.64 1.51 m 0.87 -0.87 l -0.34 -0.9 l 0.95 -0.16 l -1.61 -0.23 l 1 1.29 m 0.61 -1.05 l -0.56 -0.78 l 0.87 -0.4 l -1.62 0.2 l 1.31 0.98 m 0.32 -1.18 l -0.74 -0.61 l 0.74 -0.61 l -1.51 0.61 m 1.51 -0.61 l -0.86 -0.4 h -0.01 l 0.56 -0.78 l -1.31 0.98 l 1.62 0.2 m -0.32 -1.18 l -0.95 -0.16 l 0.34 -0.9 l -1.02 1.29 m 1.02 -1.29 l -0.96 0.1 l 0.1 -0.96 l -0.64 1.51 l 1.5 -0.64 m -0.87 -0.87 l -0.89 0.34 l -0.16 -0.95 l -0.23 1.62 l 1.29 -1 m -1.05 -0.61 l -0.78 0.56 l -0.4 -0.87 l 0.2 1.63 l 0.98 -1.31 m -1.17 -0.32 l -0.6 0.74 l -0.61 -0.74 l 0.61 1.52 m -0.61 -1.52 l -0.4 0.86 v 0.01 l -0.78 -0.56 l 0.98 1.32 l 0.2 -1.63 m -1.17 0.32 l -0.16 0.95 l -0.89 -0.34 l 1.29 1.02 m -1.29 -1.02 l 0.1 0.96 l -0.95 -0.1 l 1.5 0.64 l -0.64 -1.51 m -0.86 0.87 l 0.34 0.9 l -0.95 0.16 l 1.61 0.23 l -1 -1.29 m -0.61 1.05 l 0.56 0.78 l -0.87 0.4 l 1.62 -0.2 l -1.31 -0.98 m -0.32 1.18 l 0.74 0.61 l -0.74 0.61 l 1.52 -0.61 m -1.52 0.61 l 0.86 0.4 l -0.55 0.78 l 1.31 -0.98 l -1.63 -0.2 m 0.32 1.18 l 0.95 0.16 l -0.34 0.9 l 1.02 -1.29 h -0.01 m -1 1.29 l 0.95 -0.1 l -0.1 0.96 l 0.64 -1.51 l -1.5 0.64 m 0.86 0.87 l 0.89 -0.34 l 0.16 0.95 l 0.23 -1.62 l -1.29 1 m 1.05 0.61 l 0.78 -0.56 l 0.4 0.87 l -0.19 -1.63 l -0.98 1.31" style="fill-opacity:0.3"/><g style="fill:#fff"><path d="m 24.31 32.76 l 1.73 -2.33 c 2.69 -0.76 4.67 -3.23 4.67 -6.17 c 0 -0.09 -0.01 -0.18 -0.02 -0.26 c -0.1 2.84 -2.03 5.2 -4.65 5.94 l -1.73 2.33 l -1.73 -2.33 c -2.62 -0.73 -4.55 -3.1 -4.66 -5.94 c 0 0.09 -0.01 0.17 -0.01 0.26 c 0 2.94 1.97 5.41 4.67 6.17" style="fill-opacity:0.8"/><g style="fill-opacity:0.3"><path d="m 26.91 35.39 l 0.7 -0.19 l -0.39 -1.45 c -0.23 0.07 -0.46 0.12 -0.7 0.17 l 0.39 1.46 m -7.96 -1.05 l 0.74 -1.3 c -0.21 -0.12 -0.41 -0.23 -0.62 -0.36 l -0.74 1.3 m 15.67 -3.69 l 0.36 -0.62 l -1.3 -0.74 c -0.11 0.21 -0.23 0.41 -0.36 0.62 m -19.27 -1.97 l 1.44 -0.39 c -0.07 -0.23 -0.12 -0.46 -0.17 -0.7 l -1.45 0.39 l 0.19 0.7 m 20.52 -5.52 l 1.45 -0.39 l -0.19 -0.7 l -1.44 0.39 c 0.07 0.23 0.12 0.46 0.17 0.7 m -18.34 -2.44 c 0.11 -0.21 0.23 -0.42 0.36 -0.62 l -1.3 -0.74 l -0.36 0.62 m 15.29 -3 l 0.74 -1.3 l -0.62 -0.36 l -0.74 1.3 c 0.21 0.11 0.42 0.23 0.62 0.36 m -8.16 -1.09 c 0.23 -0.07 0.46 -0.12 0.7 -0.17 l -0.39 -1.46 l -0.7 0.19 l 0.39 1.44"/><path d="m 23.93 35.68 h 0.72 v -1.5 c -0.23 0.01 -0.47 0 -0.71 -0.02 v 1.51 m -7.42 -3.09 l 1.05 -1.07 c -0.17 -0.16 -0.34 -0.33 -0.5 -0.5 l -1.05 1.07 m 16.1 0.51 l 0.5 -0.51 l -1.07 -1.05 c -0.16 0.17 -0.33 0.34 -0.5 0.5 m -18.1 -6.91 h 1.49 c -0.01 -0.24 0 -0.48 0.02 -0.72 h -1.5 v 0.72 m 21.25 0 h 1.5 v -0.73 h -1.49 c 0.01 0.24 0 0.48 -0.02 0.72 m -17.1 -7.12 c 0.16 -0.17 0.33 -0.34 0.5 -0.51 l -1.07 -1.05 l -0.5 0.5 m 15.55 1.07 l 1.05 -1.07 l -0.5 -0.5 l -1.05 1.07 c 0.17 0.16 0.34 0.33 0.51 0.51 m -7.6 -3.17 c 0.23 -0.01 0.47 0 0.71 0.02 v -1.51 h -0.72 v 1.5"/></g></g></svg>