<svg xmlns="http://www.w3.org/2000/svg" xmlns:xlink="http://www.w3.org/1999/xlink" viewBox="0 0 48 48"><defs><g id="8" style="clip-path:url(#7)"><path d="m 76.8 5.93 c -0.07 4.44 -1.85 7.19 -3.2 10.26 c -2.43 5.54 -3.32 11.29 2.14 14.68 c 5.25 -1.28 14.53 -13.49 1.07 -24.94" transform="matrix(0.176 0 0 0.217 17.2 14.61)" style="fill:url(#5);stroke:url(#6);fill-rule:evenodd;stroke-linecap:round;stroke-linejoin:round"/></g><clipPath id="7"><path d="M 0,0 H48 V48 H0 z"/></clipPath><filter id="3" filterUnits="objectBoundingBox" x="0" y="0" width="48" height="48"><feColorMatrix type="matrix" in="SourceGraphic" values="0 0 0 0 1 0 0 0 0 1 0 0 0 0 1 0 0 0 1 0"/></filter><linearGradient id="6" gradientUnits="userSpaceOnUse" x1="77.7" y1="12.5" x2="80.3" y2="31.86"><stop style="stop-color:#f4a200;stop-opacity:0.89"/><stop offset="1" style="stop-color:#f45f00"/></linearGradient><linearGradient id="9" gradientUnits="userSpaceOnUse" x1="22.8" y1="8.67" x2="24.45" y2="21.82"><stop style="stop-color:#fff;stop-opacity:0.9"/><stop offset="1" style="stop-color:#fff;stop-opacity:0.15"/></linearGradient><linearGradient id="A" gradientUnits="userSpaceOnUse" x1="24.53" y1="9.34" x2="22.55" y2="32" gradientTransform="matrix(0.071 0 0 0.112 29.1 17.2)"><stop style="stop-color:#ff4c19;stop-opacity:0.95"/><stop offset="1" style="stop-color:#ff4c19;stop-opacity:0.16"/></linearGradient><linearGradient id="5" gradientUnits="userSpaceOnUse" x1="76.7" y1="19.45" x2="76.6" y2="25.64"><stop style="stop-color:#fbe84e;stop-opacity:0.83"/><stop offset="1" style="stop-color:#fdc345"/></linearGradient><linearGradient id="1" gradientUnits="userSpaceOnUse" x1="10" y1="10.26" x2="37.2" y2="23.46"><stop style="stop-color:#e6ebeb"/><stop offset="0.5" style="stop-color:#e5ebeb"/><stop offset="1" style="stop-color:#fff"/></linearGradient><linearGradient id="0" gradientUnits="userSpaceOnUse" x1="4.43" x2="39.86"><stop style="stop-color:#e2e2e2"/><stop offset="1" style="stop-color:#9e9e9e"/></linearGradient><linearGradient id="2" gradientUnits="userSpaceOnUse" x1="19.5" x2="32.86" spreadMethod="reflect"><stop style="stop-color:#be6108"/><stop offset="1" style="stop-color:#f49d11"/></linearGradient><mask id="4"><g style="filter:url(#3)"><path d="M 0,0 H48 V48 H0 z" style="fill-opacity:0.9"/></g></mask></defs><path d="m 47.61 34.2 c 4.77 -68.5 -87.3 -17.2 -26.68 11.96 c 8.69 4.23 23.27 1.08 26.68 -11.96" style="fill:#d41919"/><g style="fill-rule:evenodd"><path d="m 2.5 32.49 c -0.21 1 0.61 2.04 1.96 2 h 36.2 c 1.29 -0.04 1.71 -1.21 1.43 -2.18 l -7.86 -28.82 h -26 l -5.71 29" transform="matrix(0.593 0 0 0.663 12.18 10.48)" style="fill:#a6a6a6;stroke:#646464"/><g style="stroke:#696969"><g transform="matrix(0.592 0 0 0.718 12.19 9.28)"><path d="m 7.29 23.99 h 29.3 c 0.83 0 1.5 0.65 1.5 1.46 l 1.29 4.65 c 0 0.81 -0.67 1.46 -1.5 1.46 h -31.43 c -0.83 0 -1.5 -0.65 -1.5 -1.46 l 0.86 -4.65 c 0 -0.81 0.67 -1.46 1.5 -1.46" style="fill:#c5c5c5"/><path d="m 7.29 21.85 h 29.3 c 0.83 0 1.5 0.65 1.5 1.46 l 1.29 4.65 c 0 0.81 -0.67 1.46 -1.5 1.46 h -31.43 c -0.83 0 -1.5 -0.65 -1.5 -1.46 l 0.86 -4.65 c 0 -0.81 0.67 -1.46 1.5 -1.46" style="fill:url(#0)"/></g><path d="m 7.69 6.76 l -4.07 20.48 c 0 0 24.78 0 24.78 0 c 11.86 0 14.35 -3.77 14.35 -3.77 c 0 0 -3.16 -1.11 -4.51 -5.79 c 0 0 -2.89 -10.91 -2.89 -10.91" transform="matrix(0.593 0 0 0.663 12.18 10.48)" style="fill:url(#1)"/></g></g><g transform="matrix(0.593 0 0 0.663 12.18 10.48)"><path d="m 8.55 7.68 l -3.76 18.63 c 0 0 16.2 0 23 0 c 10.58 0 13.29 -2.69 13.29 -2.69 c 0 0 -2.82 -1.76 -4.04 -6 c 0 0 -2.58 -9.86 -2.58 -9.86 l -25.93 -0.07" style="fill:none;stroke:#fff"/><path d="m 8.96 1.49 h 25.2 c 0.87 0 1.57 0.67 1.57 1.5 l 0.36 2.14 c 0 0.83 -0.7 1.5 -1.58 1.5 h -25.89 c -0.87 0 -1.58 -0.67 -1.58 -1.5 l 0.36 -2.14 c 0 -0.83 0.7 -1.5 1.58 -1.5" style="fill:#3464a3;stroke:#696969;fill-rule:evenodd"/></g><path d="m 27.82 25.69 l -2.57 -0.14 l -0.21 -7.1 l -3.25 0.42 l -0.04 -1.33 l 5.8 -0.65 l 0.26 8.77"/><g style="stroke-linecap:round"><path d="m 10.69 2.66 h 23.33" transform="matrix(0.593 0 0 0.663 12.18 10.48)" style="stroke-opacity:0.3;fill:none;stroke:#fff"/><g style="stroke-linejoin:round"><path d="m 48.3 41.1 c 0 4.22 -7 7.64 -15.65 7.64 c -8.64 0 -15.65 -3.42 -15.65 -7.64 c 0 -4.22 7 -7.65 15.65 -7.65 c 8.64 0 15.65 3.42 15.65 7.65" transform="matrix(0.557 0 0 0.615 12.4 10.27)" style="fill:#9bb9df;stroke:#3366a3"/><path d="m 48.3 41.1 c 0 4.23 -7 7.65 -15.64 7.65 c -8.64 0 -15.65 -3.42 -15.65 -7.65 c 0 -4.22 7 -7.64 15.65 -7.64 c 8.64 0 15.64 3.42 15.64 7.64" transform="matrix(0.526 0 0 0.527 13.51 13.91)" style="fill:none;stroke:#fff"/><g style="stroke:#be6108"><path d="m 32.84 24.2 c -7.1 0 -12.84 2.51 -12.84 5.64 c 0 0.32 0.06 0.68 0.19 1 h -0.19 v 8.59 c 0 0.02 0 0.04 0 0.06 c 0 3.11 5.75 5.65 12.84 5.65 c 7.1 0 12.87 -2.53 12.88 -5.65 c 0 -0.03 0 -0.04 0 -0.06 v -8.59 h -0.22 c 0.13 -0.32 0.22 -0.66 0.22 -1 c 0 -3.11 -5.78 -5.62 -12.88 -5.64" transform="matrix(0.557 0 0 0.615 12.4 10.71)" style="fill:url(#2)"/><path d="m 32.84 24.1 c -7.1 0 -12.84 2.53 -12.84 5.66 c 0 0.1 0.02 0.18 0.03 0.28 c -0.01 0 -0.02 0 -0.03 0 c 0.03 0.08 0.05 0.14 0.06 0.22 c 0 0.01 0 0.02 0 0.03 c 0 0.01 0 0.02 0 0.03 c 0.04 0.57 0.25 1.9 0.08 2.53 c -0.19 0.76 0.27 1.35 0.76 1.86 c 0.48 0.48 0.41 1.21 0.8 1.6 c 0.48 0.48 0.07 0.4 0.86 0.01 c 0.66 -0.33 1.06 -0.9 1.44 -1.28 c 0.36 -0.36 1.06 -0.5 1.72 -0.59 c 0.81 0.24 1.7 0.41 2.63 0.56 c 0.28 0.62 0.38 1.17 0.81 1.59 c 0.74 0.74 1.42 0.85 2 1.44 c 0.03 0.03 0.08 0 0.13 0 c 0.54 0 0.63 1.03 1.16 1.16 c 1.06 0.27 1.07 -1.94 1.84 -2.72 c 0.37 -0.37 1.71 -0.65 2.17 -0.88 c 0.52 -0.26 0.95 -0.48 1.41 -0.66 c 0.01 0 0.02 0 0.03 0 c 0.02 0 0.04 -0.03 0.06 -0.03 c 0.6 -0.11 1.14 -0.23 1.69 -0.38 c 0.04 -0.01 0.09 0.01 0.13 0 c 0.39 0.03 0.74 0.15 1.09 0.5 c 0.6 0.6 0.93 1.18 1.44 1.56 c 0.57 0.43 1.21 0.37 1.72 -0.13 c 0.42 -0.42 0.49 -1.49 1 -2 c 0.51 -0.51 -0.15 -2.12 0.44 -2.72 c 0.57 -0.57 0.35 -1.16 0.22 -1.44 c 0.04 -0.19 0.06 -0.37 0.06 -0.57 c 0 -3.11 -5.77 -5.66 -12.88 -5.66" transform="matrix(0.557 0 0 0.615 12.4 10.71)" style="fill:#ffe6c1"/></g><path d="m 32.68 25 c -6.51 0 -11.78 2.03 -11.78 4.52 c 0 0.08 0.02 0.15 0.04 0.22 c -0.01 0 -0.02 0 -0.04 0 c 0.04 0.06 0.05 0.12 0.06 0.17 c 0 0.01 0 0.02 0 0.02 c 0 0.01 0 0.02 0 0.02 c 0.03 0.46 0.22 1.52 0.08 2.03 c -0.17 0.61 0.25 1.08 0.7 1.48 c 0.44 0.38 0.38 1.56 0.73 1.87 c 0.44 0.39 0.06 -0.27 0.78 -0.58 c 0.61 -0.26 0.97 -0.72 1.32 -1.02 c 0.33 -0.29 0.97 -0.4 1.58 -0.47 c 0.74 0.19 1.56 0.33 2.41 0.45 c 0.26 0.5 0.35 0.93 0.75 1.27 c 0.68 0.59 0.71 1.15 1.24 1.62 c 0.04 0.03 0.19 -0.24 0.23 -0.24 c 0.49 0 0.93 1.65 1.41 1.75 c 0.98 0.21 1.45 -2.14 2.16 -2.76 c 0.34 -0.3 1.33 -0.4 1.75 -0.58 c 0.48 -0.21 0.76 -0.97 1.17 -1.11 c 0.01 0 0.02 0 0.03 0 c 0.02 0 0.39 0.45 0.41 0.45 c 0.55 -0.09 0.69 -0.65 1.19 -0.77 c 0.04 -0.01 0.08 0.01 0.11 0 c 0.36 0.01 0.68 0.12 1 0.4 c 0.55 0.48 0.85 0.94 1.32 1.25 c 0.53 0.34 1.59 1.36 2.05 0.96 c 0.39 -0.34 0.21 -1.54 0.69 -1.95 c 0.47 -0.41 0.2 -2.05 0.76 -2.53 c 0.52 -0.45 -0.26 -1.28 -0.39 -1.5 c 0.04 -0.15 0.06 -0.29 0.06 -0.45 c 0 -2.49 -5.3 -4.52 -11.81 -4.52" transform="matrix(0.557 0 0 0.615 12.4 10.71)" style="fill:none;stroke:#fff;stroke-width:0.86"/><g style="fill:#ff8162;stroke:#ff3d0f"><path d="m 21.95 11.65 v 11.44 h 0.09 c 0.27 0.33 1.05 0.56 1.97 0.56 c 0.9 0 1.66 -0.24 1.94 -0.56 c 0.07 -0.08 0.13 -0.16 0.13 -0.25 c 0 -0.1 -0.04 -0.22 -0.13 -0.3 v -10.87 h -4" transform="matrix(0.557 0 0 0.615 17.21 14)" style="stroke-width:0.5"/><path d="m 34.79 29.6 c 0.1 0.32 -0.32 0.62 -1.09 0.79 c -0.77 0.17 -1.75 0.17 -2.52 0 c -0.76 -0.17 -1.19 -0.48 -1.09 -0.79 c -0.1 -0.32 0.33 -0.63 1.09 -0.8 c 0.77 -0.17 1.75 -0.17 2.52 0 c 0.77 0.17 1.19 0.48 1.09 0.8" transform="matrix(0.488 0 0 0.615 14.78 3.07)" style="fill-opacity:0.94;stroke-width:0.53"/></g><path d="m 22.47 12.75 l -0.05 9.96 l 0.15 0.22 l -0.12 -0.17 c 0.21 0.3 0.98 0.53 1.69 0.53 c 0.69 0 1.21 -0.17 1.42 -0.46 c 0.06 -0.08 0.07 -0.12 0.07 -0.2 c 0 -0.09 0.09 -0.13 0.03 -0.21 v -9.65 l -0.74 0.24 l -0.81 0.11 l -1.03 -0.11" transform="matrix(0.557 0 0 0.615 17.21 14)" style="fill:none;stroke:#ffa189;stroke-width:0.42"/></g></g><use xlink:href="#8" style="mask:url(#4)"/><path d="m 77.6 8.13 c -0.52 3.46 -1.98 6 -3.06 8.48 c -1.19 2.68 -1.96 5.37 -1.8 7.68 c 0.13 2.18 1.06 3.98 3.24 5.48 c 1.01 -0.36 2.22 -1.14 3.39 -2.39 c 1.28 -1.39 2.45 -3.25 3.06 -5.41 c 1.08 -3.93 0.25 -8.8 -4.81 -13.84" transform="matrix(0.174 0 0 0.219 17.31 14.58)" style="fill:none;stroke:url(#9)"/><path d="m 30.96 17.74 c -0.07 0.97 -1.05 1.73 -0.29 2.6 c 0.35 -0.11 0.95 -0.86 0.29 -2.6" style="fill:url(#A);fill-rule:evenodd"/></svg>