<svg xmlns="http://www.w3.org/2000/svg" viewBox="0 0 48 48"><defs><clipPath id="0"><path d="m 12 15 h 16 v 14 h -16"/></clipPath><clipPath id="1"><path d="m 6.33 7.29 h 27.88 c 1.62 0 2.94 1.21 2.94 2.71 v 25.73 c 0 1.5 -1.32 2.71 -2.94 2.71 h -27.88 c -1.62 0 -2.93 -1.21 -2.93 -2.71 v -25.73 c 0 -1.5 1.31 -2.71 2.93 -2.71"/></clipPath></defs><path d="m 24.45 47.74 c -4.95 -0.39 -10.74 -2.75 -14.77 -6 c -4.91 -4 -8.51 -10.12 -9.47 -16.2 c -1.15 -7.98 3.48 -16.56 8.72 -20.63 c 2.63 -1.98 6.11 -3.56 9.37 -4.25 c 8.5 -1.8 17.36 1.61 23.44 8.99 c 3.64 4.43 5.53 8.89 5.99 14.18 c 0.55 6.33 -1.95 13.1 -6.52 17.7 c -5.2 4.31 -10.56 6.65 -16.73 6.21" style="fill:#778799"/><g style="clip-path:url(#0)"><g style="clip-path:url(#1)"><path d="m 27.61 15.42 c 0 4.77 0 9.41 0 13.54 c -5.15 0 -10.22 0 -14.67 0 c 0 -4.77 0 -9.41 0 -13.54 c 5.09 0 10.31 0 14.67 0 m -1.47 1.36 h -6.6 v 2.71 h 6.6 m -8.1 -2.71 h -3.66 v 2.71 h 3.66 m 8.1 1.35 h -6.6 v 2.71 h 6.6 m -8.1 -2.71 h -3.66 v 2.71 h 3.66 m 8.1 1.36 h -6.6 v 2.71 h 6.6 m -8.1 -2.71 h -3.66 v 2.71 h 3.66" style="fill:#fff"/></g></g><path d="m 24.87 35.4 c -0.12 -0.08 -0.11 -1.46 -0.08 -5.88 c 0.03 -4.76 0.05 -5.56 0.2 -5.67 c 0.28 -0.21 6.5 -0.3 7.08 -0.07 c 1.17 0.46 1.82 1.61 1.82 2.98 c 0 1.45 -0.57 2.32 -1.98 3 c -0.48 0.28 -0.18 0.42 0.14 0.9 c 0.58 0.39 0.68 0.54 1.64 2.4 c 0.81 1.57 0.99 2 0.87 2.1 c -1.06 0.16 -1.89 0.11 -3 0.11 l -0.97 -1.95 c -1.31 -2.64 -1.3 -2.62 -2.13 -2.62 h -0.67 l -0.03 2.21 l -0.03 2.38 c -0.97 0.2 -1.92 0.12 -2.86 0.12 m 5.56 -7.28 c 0.57 -0.34 0.57 -1.27 0.13 -1.85 c -0.81 -0.63 -2.77 -0.44 -2.77 -0.21 l -0.03 1.5 c -0.02 0.95 0.04 1.04 1.4 0.96 c 0.57 -0.04 0.95 -0.2 1.28 -0.4" style="fill:#1f64b7"/></svg>