<svg xmlns="http://www.w3.org/2000/svg" viewBox="0 0 48 48"><path d="m 2 28.66 c 4.78 31.61 53.94 20.81 44.64 -9.78 c -6.24 -29.1 -56.5 -21.2 -44.64 9.78" style="fill:#db2a2a"/><g style="fill:#fff"><path d="m 12.41 34.1 c 0 -0.18 2.41 -4.37 4.46 -7.74 c 0.71 -1.18 1.39 -2.14 1.51 -2.14 c 0.12 0 1.11 0.81 2.22 1.8 c 1.11 0.99 2.33 1.92 2.71 2.08 c 0.84 0.33 1.42 0 4.09 -2.32 c 1 -0.88 1.96 -1.52 2.13 -1.42 c 0.16 0.1 1.24 1.8 2.41 3.79 c 1.16 1.98 2.43 4.09 2.8 4.68 l 0.69 1.07 l -1.09 0.18 c -1.36 0.23 -21.93 0.25 -21.93 0.02"/><path d="m 11.23 24.98 c 0 -3.66 0.08 -6.65 0.17 -6.65 c 0.28 0 4.68 3.84 4.94 4.31 c 0.16 0.29 -0.19 1.14 -1.06 2.57 c -0.72 1.18 -1.86 3.1 -2.54 4.28 c -0.68 1.18 -1.3 2.14 -1.38 2.14 c -0.07 0 -0.13 -2.99 -0.13 -6.65"/><path d="m 20.2 23.28 c -1.77 -1.5 -4.12 -3.46 -5.22 -4.36 c -1.86 -1.5 -1.95 -1.64 -1.32 -1.82 c 0.88 -0.25 19 -0.25 20.2 0 c 0.83 0.18 0.71 0.3 -3.55 3.89 c -5.41 4.55 -6 5 -6.49 5 c -0.21 0 -1.83 -1.23 -3.6 -2.73"/><path d="m 35.49 30.4 c -0.39 -0.71 -1.49 -2.58 -2.44 -4.16 c -0.95 -1.58 -1.72 -3.06 -1.72 -3.29 c 0 -0.22 1.08 -1.38 2.39 -2.57 c 1.87 -1.68 2.45 -2.07 2.66 -1.74 c 0.3 0.47 0.32 11.28 0.02 12.34 c -0.18 0.65 -0.24 0.61 -0.91 -0.59"/></g></svg>