<svg xmlns="http://www.w3.org/2000/svg" viewBox="0 0 48 48"><path d="m 42.4 8.71 c 11.68 17.85 3.06 35.65 -10.97 37.99 c -18.87 4.56 -41.94 -8.46 -26 -36.56 c 6.32 -11.18 28.67 -14.1 36.99 -1.41" style="fill:#003693"/><g style="fill:#fff"><path d="m 21.1 27.36 c -0.2 -0.2 -0.56 -0.95 -0.8 -1.64 c -0.25 -0.7 -0.55 -1.27 -0.68 -1.27 c -0.4 0 -0.63 0.68 -0.59 1.73 c 0.05 1.08 -0.23 1.63 -0.63 1.23 c -0.23 -0.22 -0.26 -3.61 -0.04 -5.08 c 0.08 -0.55 0 -0.94 -0.29 -1.5 c -0.24 -0.46 -0.39 -1.09 -0.39 -1.63 c 0 -0.75 -0.09 -0.97 -0.58 -1.42 c -0.32 -0.29 -0.82 -0.9 -1.13 -1.34 c -0.48 -0.7 -0.55 -0.97 -0.55 -2.11 c 0 -1.16 -0.05 -1.36 -0.47 -1.73 c -0.44 -0.4 -0.47 -0.55 -0.47 -2.13 c 0 -2.11 0.28 -2.23 1.12 -0.52 c 0.32 0.65 0.65 1.19 0.74 1.19 c 0.27 0 0.72 -0.6 1.13 -1.52 c 0.29 -0.64 0.49 -0.86 0.73 -0.82 c 0.29 0.05 0.34 0.3 0.39 1.69 c 0.05 1.54 0.03 1.65 -0.42 2.05 c -1.04 0.93 -0.88 1.77 0.66 3.7 c 1.11 1.38 1.12 1.41 1.12 2.59 c 0 1.38 0.24 1.69 1.18 1.55 c 0.56 -0.08 0.71 0.02 1.75 1.07 c 0.63 0.64 1.23 1.16 1.36 1.16 c 0.13 0 0.58 -0.45 1 -1 c 0.75 -0.97 1.48 -1.37 2.48 -1.37 c 0.43 0 0.75 -0.62 0.6 -1.19 c -0.21 -0.82 0.11 -1.71 1.03 -2.88 c 1.25 -1.57 1.4 -1.89 1.25 -2.63 c -0.09 -0.44 -0.29 -0.73 -0.68 -0.94 c -0.54 -0.3 -0.55 -0.34 -0.55 -1.77 c 0 -1.66 0.29 -2.33 0.87 -1.98 c 0.18 0.11 0.41 0.44 0.51 0.73 c 0.46 1.38 1.36 1.54 1.82 0.31 c 0.36 -0.94 0.63 -1.23 1.02 -1.08 c 0.24 0.09 0.3 0.43 0.3 1.74 c 0 1.59 -0.02 1.64 -0.57 2.1 c -0.54 0.44 -0.57 0.54 -0.53 1.61 c 0.04 1.27 -0.11 1.64 -1.35 3.15 c -0.48 0.59 -0.79 1.18 -0.86 1.67 c -0.07 0.46 -0.3 0.93 -0.57 1.18 c -0.32 0.29 -0.45 0.61 -0.45 1.07 c 0 0.89 -0.27 1.1 -1.43 1.1 c -1.15 0 -1.2 0.09 -1.21 2.13 c 0 1.8 0.05 1.89 1.14 1.89 c 1.12 0 1.77 0.46 1.2 0.85 c -0.46 0.33 -2.73 0.32 -3.2 -0.01 c -0.31 -0.22 -0.35 -0.45 -0.3 -1.71 c 0.04 -0.89 -0.02 -1.5 -0.14 -1.58 c -0.32 -0.19 -0.95 0.23 -1.07 0.73 c -0.07 0.25 -0.17 0.45 -0.23 0.45 c -0.06 0 -0.48 -0.34 -0.91 -0.76 l -0.8 -0.76 l -0.19 0.47 c -0.1 0.26 -0.14 1.04 -0.08 1.73 c 0.11 1.2 0.09 1.27 -0.38 1.56 c -0.46 0.3 -0.5 0.29 -0.84 -0.06 m -0.68 -4.09 c 0.51 -0.36 0.15 -0.92 -0.59 -0.92 c -0.66 0 -0.86 0.58 -0.34 0.95 c 0.43 0.3 0.49 0.3 0.94 -0.02"/><path d="m 22.88 19.41 c -0.37 -0.1 -1.16 -1.22 -1 -1.98 c 0.05 -0.27 0.17 0.27 0.56 0.62 c 0.52 0.47 1.54 0.74 2.28 0.61 c 0.78 -0.14 1.35 -0.86 0.66 -2.25 c -0.55 -1.1 -0.54 -1.7 0.53 -1.95 c 0.25 -0.06 0.51 0.11 0.72 0.43 c 0.32 0.47 0.68 0.88 -0.08 1.24 c -0.7 0.34 -0.41 1.08 -0.41 1.68 c 0 1.28 -0.23 1.49 -1.7 1.6 c -0.67 0.05 -1.38 0.05 -1.55 0"/><path d="m 21.34 16 c -0.25 -0.75 -0.02 -1.49 0.51 -1.57 c 0.61 -0.09 1.08 0.31 1.08 0.91 c 0 1.25 -1.21 1.75 -1.59 0.65"/><path d="m 30.99 29.45 c -0.05 -0.07 -0.12 -0.67 -0.15 -1.32 c -0.06 -1.07 -0.09 -1.22 -0.38 -1.59 c -0.25 -0.31 -0.29 -0.43 -0.18 -0.53 c 0.37 -0.36 1.08 0.2 1.27 1 c 0.14 0.59 0.01 2.36 -0.18 2.48 c -0.19 0.12 -0.28 0.11 -0.38 -0.05"/><path d="m 32.64 28.4 c -0.22 -0.21 -0.22 -0.18 -0.07 -0.97 c 0.09 -0.46 0.08 -0.72 -0.03 -1.02 c -0.16 -0.45 -0.91 -1.08 -1.68 -1.43 c -0.51 -0.23 -0.61 -0.44 -0.32 -0.68 c 0.39 -0.31 1.21 0.12 1.8 0.95 c 0.19 0.27 0.51 0.55 0.73 0.63 c 0.21 0.08 0.45 0.23 0.53 0.32 c 0.38 0.44 0.38 0.52 -0.04 1.13 c -0.22 0.33 -0.4 0.69 -0.4 0.79 c 0 0.32 -0.29 0.48 -0.51 0.27"/><path d="m 33.2 24.98 c -0.04 -0.16 -0.33 -0.58 -0.65 -0.92 c -0.57 -0.61 -0.59 -0.62 -1.39 -0.7 c -0.91 -0.09 -1.18 -0.27 -0.87 -0.57 c 0.16 -0.15 0.36 -0.18 1.04 -0.15 c 0.81 0.04 0.87 0.06 1.32 0.49 c 0.66 0.62 1.29 1.58 1.25 1.88 c -0.03 0.18 -0.12 0.25 -0.34 0.26 c -0.26 -0.06 -0.33 -0.11 -0.37 -0.3"/><path d="m 34.66 26.39 c -0.13 -0.15 -0.13 -0.61 0.02 -1.73 c 0.08 -0.64 -0.05 -0.91 -0.89 -1.84 l -0.87 -0.96 l -1.06 -0.08 c -1.33 -0.1 -1.64 -0.18 -1.51 -0.37 c 0.14 -0.22 0.88 -0.35 1.99 -0.35 c 1.2 0 1.34 0.07 2.05 1.16 c 0.29 0.44 0.66 0.94 0.82 1.11 c 0.28 0.29 0.3 0.37 0.3 1.59 c 0 1.34 -0.09 1.64 -0.5 1.64 c -0.11 0 -0.27 -0.07 -0.35 -0.17"/><path d="m 16.19 29.39 c -0.25 -0.27 -0.35 -1.31 -0.21 -2.05 c 0.1 -0.51 0.2 -0.69 0.6 -1.04 c 0.27 -0.23 0.57 -0.41 0.67 -0.39 c 0.3 0.06 0.28 0.41 -0.05 0.68 c -0.29 0.24 -0.31 0.34 -0.39 1.5 c -0.1 1.52 -0.21 1.76 -0.62 1.31"/><path d="m 15.23 25.77 c -0.17 -0.27 0.76 -1.36 1.3 -1.51 c 0.3 -0.09 0.73 0.1 0.73 0.32 c 0 0.08 -0.16 0.21 -0.37 0.3 c -0.2 0.08 -0.59 0.34 -0.88 0.57 c -0.54 0.45 -0.67 0.5 -0.79 0.32"/><path d="m 14.1 27.55 c -0.5 -0.55 -0.59 -0.73 -0.52 -0.92 c 0.05 -0.13 0.07 -0.63 0.05 -1.09 l -0.03 -0.85 l 0.61 -0.77 c 0.86 -1.07 1.12 -1.24 1.94 -1.23 c 1.23 0 1.36 0.52 0.18 0.66 c -0.73 0.09 -1.13 0.36 -1.67 1.15 c -0.42 0.62 -0.48 1.21 -0.13 1.32 c 0.17 0.05 0.24 0.2 0.29 0.65 c 0.14 1.37 0.15 1.76 0.02 1.76 c -0.07 0 -0.4 -0.31 -0.74 -0.68"/><path d="m 12.29 26.42 c -0.09 -0.09 -0.14 -0.58 -0.14 -1.45 c 0 -1.2 0.02 -1.34 0.27 -1.63 c 0.14 -0.18 0.41 -0.54 0.59 -0.81 c 0.18 -0.27 0.54 -0.71 0.8 -0.98 l 0.46 -0.49 l 1.23 0.01 c 1.47 0.01 1.81 0.09 1.81 0.39 c 0 0.19 -0.11 0.23 -0.99 0.3 c -1.61 0.13 -1.74 0.19 -2.66 1.3 c -0.8 0.97 -0.89 1.22 -0.7 2.16 c 0.13 0.69 0.13 0.8 -0.04 1.06 c -0.21 0.31 -0.41 0.36 -0.63 0.15"/></g><g style="fill:#9aabcf"><path d="m 8.11 37.86 c -0.27 -0.32 -0.16 -7.54 0.11 -7.71 c 0.31 -0.19 1.83 -0.32 2.55 -0.21 c 0.51 0.08 0.77 0.22 1.22 0.67 c 0.96 0.96 0.96 1.78 -0.03 2.93 c -0.74 0.87 -0.74 0.89 0.7 3.35 c 0.3 0.51 0.3 0.57 0.11 0.85 c -0.28 0.39 -0.88 0.39 -1.25 -0.01 c -0.16 -0.17 -0.54 -0.81 -0.84 -1.42 c -0.57 -1.16 -1.03 -1.61 -1.19 -1.18 c -0.05 0.13 -0.01 0.71 0.08 1.32 c 0.2 1.27 0.11 1.44 -0.76 1.55 c -0.25 0 -0.56 0.03 -0.71 -0.14 m 2.4 -4.39 c 0.36 -0.25 0.71 -0.89 0.71 -1.3 c 0 -0.38 -0.49 -1.17 -0.84 -1.36 c -0.42 -0.23 -0.65 0.11 -0.81 1.18 c -0.21 1.47 0.14 2.04 0.94 1.48"/><path d="m 14.86 38.1 c -0.27 -0.03 -0.57 -0.14 -0.65 -0.24 c -0.2 -0.24 -0.23 -6.16 -0.03 -6.36 c 0.07 -0.07 0.65 -0.17 1.27 -0.2 c 0.89 -0.05 1.19 -0.02 1.41 0.14 c 0.42 0.32 0.11 0.68 -0.7 0.81 c -0.75 0.13 -1 0.37 -1 0.98 c 0 0.54 0.21 0.75 0.77 0.75 c 0.71 0 1.16 0.23 1.11 0.56 c -0.05 0.36 -0.26 0.47 -1.13 0.62 c -0.66 0.11 -0.68 0.13 -0.72 0.6 c -0.05 0.55 0.16 1.2 0.41 1.28 c 0.09 0.03 0.4 0.09 0.68 0.14 c 0.61 0.1 0.93 0.53 0.55 0.73 c -0.64 0.16 -1.34 0.26 -1.96 0.2"/><path d="m 21.56 37.77 c -0.14 -0.14 -0.3 -0.48 -0.36 -0.75 c -0.11 -0.59 -0.62 -1.03 -1.21 -1.03 c -0.49 0 -0.79 0.28 -1.35 1.26 c -0.41 0.71 -0.7 0.82 -0.92 0.32 c -0.12 -0.26 -0.1 -0.42 0.09 -0.78 c 0.49 -1.04 0.87 -2.13 1.29 -3.18 c 0.31 -0.5 0.48 -2.23 1.1 -2.25 c 0.36 0 0.57 0.38 1.22 2.18 c 0.31 0.86 0.74 2.05 0.96 2.66 c 0.47 1.29 0.48 1.5 0.13 1.69 c -0.39 0.21 -0.66 0.17 -0.95 -0.13 m -1.16 -2.92 c 0.24 -0.96 -0.34 -1.42 -0.7 -0.55 c -0.25 0.62 -0.17 0.88 0.28 0.88 c 0.25 0 0.36 -0.09 0.42 -0.32"/><path d="m 24.2 37.83 c -0.3 -0.21 -0.31 -0.26 -0.31 -3.25 c 0 -3 0 -3 0.31 -3.17 c 0.17 -0.08 0.43 -0.09 0.59 -0.04 c 0.27 0.1 0.29 0.23 0.39 2.72 c 0.05 1.44 0.13 2.69 0.16 2.78 c 0.04 0.09 0.38 0.2 0.76 0.25 c 0.82 0.1 1.05 0.26 0.84 0.6 c -0.21 0.34 -2.29 0.41 -2.73 0.09"/><path d="m 28.54 37.93 c -0.09 -0.06 -0.18 -1.07 -0.24 -2.74 c -0.05 -1.54 -0.15 -2.71 -0.23 -2.82 c -0.08 -0.1 -0.37 -0.2 -0.64 -0.21 c -0.43 -0.04 -0.5 -0.09 -0.5 -0.38 c 0 -0.27 0.09 -0.36 0.41 -0.43 c 0.55 -0.12 2.46 -0.14 3.1 -0.03 c 0.46 0.08 0.51 0.13 0.48 0.44 c -0.03 0.27 -0.14 0.37 -0.5 0.44 c -0.25 0.05 -0.51 0.18 -0.58 0.28 c -0.06 0.1 -0.12 1.26 -0.12 2.57 c 0 1.93 -0.04 2.44 -0.21 2.68 c -0.21 0.3 -0.66 0.39 -0.96 0.2"/><path d="m 32.3 37.95 c -0.15 -0.04 -0.26 -0.26 -0.32 -0.64 c -0.14 -0.93 -0.02 -5.63 0.15 -5.8 c 0.08 -0.08 0.68 -0.19 1.32 -0.23 c 0.99 -0.07 1.23 -0.05 1.54 0.16 c 0.39 0.23 0.36 0.5 0.01 0.78 c -0.2 0.16 -0.48 -0.04 -0.84 -0.04 c -0.75 0 -0.94 0.23 -0.85 1.04 c 0.08 0.75 0.25 0.88 1.03 0.84 c 0.63 -0.03 0.87 0.16 0.81 0.64 c -0.03 0.23 -0.19 0.3 -0.89 0.39 l -0.85 0.12 c 0 0.62 0 1.25 0 1.87 h 0.71 c 0.77 0 0.96 0.08 1.09 0.43 c 0.15 0.41 -0.18 0.53 -1.45 0.51 c -0.68 -0.01 -1.34 -0.04 -1.46 -0.08"/><path d="m 36.2 37.77 c -0.08 -0.16 -0.14 -1.43 -0.14 -3.18 c 0 -2.75 0.02 -2.93 0.28 -3.16 c 0.22 -0.2 0.35 -0.22 0.64 -0.12 c 0.36 0.13 0.38 0.18 0.45 1.24 c 0.04 0.61 0.11 1.15 0.16 1.2 c 0.69 -0.55 1.12 -1.31 1.76 -2.03 c 0.43 -0.48 0.52 -0.53 0.71 -0.37 c 0.32 0.27 0.28 0.41 -0.47 1.37 c -0.38 0.48 -0.72 1.02 -0.76 1.19 c -0.14 0.55 0.07 1.17 0.77 2.21 c 0.37 0.56 0.68 1.14 0.68 1.3 c 0 0.63 -0.71 0.81 -1.19 0.3 c -0.16 -0.17 -0.5 -0.75 -0.77 -1.29 c -0.66 -1.32 -0.9 -1.25 -0.9 0.24 c 0 0.92 -0.04 1.09 -0.26 1.21 c -0.41 0.21 -0.8 0.16 -0.96 -0.13"/></g></svg>