<svg xmlns="http://www.w3.org/2000/svg" viewBox="0 0 48 48"><path d="m 47.4 29.43 c -2.95 19.42 -29.1 24.62 -40.7 10.75 c -10.18 -10.3 -7.65 -30 4.85 -36.78 c 14.34 -9 35.2 2.14 36.4 20.1 c 0.12 1.97 -0.05 3.96 -0.52 5.88" style="fill:#dc312f"/><g style="fill:#fff"><path d="m 7.52 32.93 c -0.66 -0.25 -1.44 -1.09 -1.44 -1.56 c 0 -0.7 1.38 -2.59 2.84 -3.88 c 0.82 -0.73 0.89 -0.98 0.97 -3.22 c 0.05 -1.57 0.14 -2.31 0.38 -3.25 c 1.46 -5.74 5.27 -9.67 10.88 -11.24 c 1.84 -1 6.67 -0.46 6.27 0.23 c -0.1 0.1 -0.71 0.39 -1.37 0.64 c -1.52 0.59 -2.26 0.98 -3.13 1.62 c -2.21 1.63 -3.69 3.86 -4.29 6.46 c -0.25 1.09 -0.21 4.05 0.06 5.41 c 0.27 1.3 0.78 2.56 1.21 2.97 c 0.54 0.52 1.37 0.29 4.19 -1.12 c 1.92 -0.96 3.32 -1.82 3.39 -2.07 c 0.46 -1.71 0.56 -2.62 1.88 -3.2 c 1.57 -0.98 2.93 0.04 4 0.13 c 0.15 -0.04 1.38 -0.8 2.72 -1.7 c 1.34 -0.9 2.68 -1.74 2.98 -1.87 c 0.63 -0.32 1 0 1.16 0.63 c 0 0.48 -1.08 1.54 -3.11 3 c -2.41 1.77 -2.61 2.11 -3.1 3.37 c -0.79 2.05 -2.67 2.84 -4.51 2.3 c -1.43 -0.41 -1.78 -0.03 -5.1 1.5 c -5.16 2.37 -9.16 3.82 -12.8 4.64 c -1.59 0.36 -3.42 0.45 -4.08 0.2 m 2.79 -2.06 c 1.07 -0.16 0.72 -0.77 0.55 -1.13 c -0.39 -0.55 -1.14 -0.3 -1.45 0.08 c -1.14 0.83 -0.36 1.59 0.9 1.05"/><path d="m 21.52 38.76 c -1.8 -0.34 -4 -1.35 -5.7 -2.57 c -0.99 -0.72 -1.71 -1.46 -1.71 -1.77 c 0 -0.23 0.8 -0.61 2.5 -1.2 c 2.22 -0.8 4.1 -1.56 6.3 -2.44 l 1.22 0.59 c 2.75 1.05 5 1.45 7.69 0.93 c 1.5 -0.3 3.24 -1.2 4.95 -2.56 c 0.75 -0.6 1.39 -1.07 1.41 -1.05 c 0.02 0.03 -0.07 0.42 -0.2 0.86 c -0.45 1.46 -2.09 4 -3.46 5.38 c -3.95 3.59 -8.73 4.4 -12.99 3.82"/></g></svg>