<svg xmlns="http://www.w3.org/2000/svg" viewBox="0 0 48 48"><path d="m 36.86 40.97 c 43.77 -49.64 -58.84 -56.68 -31.93 -6 c 6.13 11.55 20.33 19.2 31.93 6" style="fill:#eaf3ff"/><path d="m 22.9 41.87 c -0.56 -0.27 -0.74 -0.85 -1 -3.2 c -0.81 -7.14 -4.61 -12.89 -10.99 -16.61 c -1.6 -0.93 -1.85 -1.34 -3.25 -5.18 c -1.3 -3.59 -1.65 -4.72 -1.83 -5.99 c -0.44 -1.79 1.78 -0.25 2.28 -0.14 c 1.04 0.17 4.46 1.34 6.7 2.29 c 1.87 0.79 2.31 0.83 3.65 0.3 c 2.96 -1.17 7.34 -1.24 10.67 -0.18 l 1.97 0.63 l 1.96 -0.82 c 2.05 -0.86 5.2 -1.96 6.61 -2.33 c 1.32 -0.41 2.27 -1.14 2.21 0.24 c -0.1 2.16 -3.08 9.52 -4.11 10.62 c -0.22 0.23 -0.84 0.61 -1.38 0.84 c -1.53 0.65 -3.14 1.9 -5 3.88 c -3.39 3.58 -5.09 7.41 -5.73 12.89 c -0.23 1.94 -0.33 2.35 -0.68 2.64 c -0.46 0.37 -1.39 0.42 -2.04 0.11" style="fill:#5d9ad7"/><g style="fill:#635462"><path d="m 16.82 33.4 c -0.48 -0.45 -1.22 -1.05 -1.64 -1.34 c -1.36 -0.93 -1.63 -1.33 -1.08 -1.62 c 0.79 -0.43 2.07 0.14 3.44 1.53 c 1.38 1.39 1.6 2.27 0.57 2.26 c -0.31 0 -0.59 -0.19 -1.28 -0.83"/><path d="m 28.82 33.57 c 0.11 -0.46 0.84 -1.43 1.59 -2.1 c 1.57 -1.41 3.61 -1.7 3.21 -0.46 c -0.04 0.14 -0.43 0.46 -0.86 0.72 c -0.43 0.26 -1.23 0.88 -1.79 1.38 c -0.87 0.77 -1.44 1.2 -1.61 1.2 c -0.33 -0.16 -0.61 -0.43 -0.54 -0.74"/><path d="m 23.1 42.2 c -1.04 -0.68 -1.34 -1.6 -0.98 -2.72 c 0.06 -0.04 0.78 -0.09 1.58 -0.1 c 1.8 -0.04 1.93 0.02 1.83 0.98 c -0.17 1.66 -1.18 2.42 -2.43 1.84"/><path d="m 9.93 18.61 c -0.63 -1.34 -1.91 -4.43 -1.96 -5.66 c 0 -0.47 -0.14 -0.29 0.4 -0.19 c 0.91 0.23 5.33 1.23 5.38 1.88 c -0.89 1.28 -1.81 2.29 -2.86 3.58 c -0.55 0.67 -0.66 0.71 -0.96 0.39"/><path d="m 36.68 18.74 c -0.18 -0.59 -2.7 -3.41 -3.04 -3.41 c -0.32 -1.15 3 -1.61 4.16 -2.29 c 0.66 -0.13 1.82 -0.77 1.69 0.31 c -0.47 1.59 -1.02 4.16 -1.86 5.23 c -0.39 0.46 -0.83 0.53 -0.95 0.16"/></g></svg>