<svg xmlns="http://www.w3.org/2000/svg" viewBox="0 0 48 48"><path d="m 6.38 10.37 c -29.92 52 68.85 47.93 34.4 -2.1 c -6.91 -10 -26.29 -11.93 -34.4 2.1" style="fill:#2f4e4e"/><path d="m 26.9 17.79 c -0.62 -0.11 -1.35 -0.25 -1.62 -0.29 l -0.49 -0.08 v -1.91 c 0.01 -2.15 0.19 -4.95 0.33 -5.09 c 0.15 -0.15 2.86 0.2 4.33 0.55 c 1.63 0.4 1.59 0.06 0.35 3.3 c -0.46 1.2 -0.95 2.54 -1.08 2.97 c -0.16 0.52 -0.33 0.79 -0.47 0.77 c -0.13 -0.01 -0.73 -0.11 -1.36 -0.23" style="fill:#ff0"/><path d="m 5.6 30.47 c -0.3 -0.06 -0.32 -0.13 -0.32 -1.31 c 0 -2.54 1.06 -6.28 2.5 -8.8 c 1.86 -3.25 5.14 -6.34 8.44 -7.93 c 0.82 -0.39 1.1 -0.47 1.25 -0.35 c 0.44 0.36 2.7 5.79 2.57 6.15 c -0.04 0.1 -0.58 0.48 -1.21 0.85 c -1.63 0.97 -2.67 1.86 -3.74 3.2 c -1.51 1.87 -2.3 3.79 -2.82 6.8 c -0.12 0.69 -0.25 1.3 -0.3 1.34 c -0.1 0.1 -5.92 0.15 -6.37 0.06" style="fill:#d25345"/><path d="m 20.73 17.55 c -0.49 -0.75 -2.33 -5.33 -2.33 -5.8 c 0 -0.29 0.43 -0.46 2.05 -0.79 c 1 -0.21 3.38 -0.55 3.89 -0.56 c 0.05 0 0.06 0.46 0.04 1.02 c -0.03 0.56 -0.09 2.14 -0.14 3.51 l -0.09 2.49 l -1.05 0.23 c -1.51 0.33 -2.11 0.31 -2.38 -0.09" style="fill:#ff8c00"/><path d="m 36.96 30.1 c -0.04 -0.33 -0.11 -0.92 -0.16 -1.3 c -0.14 -1.23 -0.63 -2.77 -1.41 -4.53 c -0.64 -1.41 -0.77 -1.85 -0.77 -2.5 v -0.79 l -0.53 -0.08 c -0.94 -0.14 -1.44 -0.36 -3.36 -1.47 l -1.89 -1.09 l 0.47 -1.33 c 0.59 -1.66 1.55 -4.07 1.93 -4.81 c 0.34 -0.66 0.35 -0.66 2.14 0.28 c 2.6 1.36 5.48 3.9 7.13 6.28 c 1.95 2.82 3.23 6.7 3.49 10.57 l 0.09 1.38 h -7.1" style="fill:#6f922f"/><g style="fill:#fff"><path d="m 20.1 30.51 c -0.25 -0.45 0.15 -1.98 1.27 -4.84 c 0.26 -0.67 0.48 -1.24 0.48 -1.28 c 0 -0.04 -0.4 -0.09 -0.9 -0.11 c -0.63 -0.04 -1.03 -0.12 -1.35 -0.28 c -0.5 -0.25 -0.69 -0.59 -0.45 -0.82 c 0.22 -0.21 1.18 -0.36 2.3 -0.35 c 1.25 0 1.88 0.12 2.16 0.4 l 0.22 0.21 l -0.23 0.69 c -0.34 1 -1.9 4.49 -2.5 5.59 c -0.54 0.98 -0.78 1.18 -1 0.79"/><path d="m 25.61 30.58 c -1.02 -0.24 -0.9 -0.67 0.88 -3.06 c 1.21 -1.63 1.38 -1.88 1.63 -2.41 c 0.2 -0.42 0.2 -0.46 0.05 -0.71 c -0.21 -0.34 -0.75 -0.58 -1.13 -0.49 c -0.17 0.04 -0.52 0.2 -0.79 0.37 c -0.84 0.52 -1.35 0.34 -1.04 -0.37 c 0.28 -0.63 1.4 -1.29 2.2 -1.29 c 0.68 0 1.54 0.52 1.89 1.13 c 0.48 0.84 0.13 2.05 -1.09 3.73 c -0.97 1.33 -1.09 1.55 -0.94 1.66 c 0.07 0.04 0.39 0.11 0.71 0.15 c 0.7 0.09 0.99 0.2 1.28 0.48 c 0.29 0.3 0.27 0.58 -0.05 0.71 c -0.33 0.13 -3.11 0.21 -3.59 0.11"/></g></svg>