<svg xmlns="http://www.w3.org/2000/svg" viewBox="0 0 48 48"><path d="m 23.91 47.83 c -31.67 3.61 -31.2 -47.98 0.56 -47.4 c 29.57 -1.71 32.2 50.2 -0.56 47.4" style="fill:#f27f1c"/><path d="m 18.68 37.1 c -1.07 -0.11 -1.1 -0.3 -0.17 -1.25 l 0.84 -0.86 h 9.36 l 0.84 0.85 c 0.46 0.47 0.81 0.95 0.77 1.07 c -0.05 0.17 -1.22 0.22 -5.52 0.23 c -2.99 0.01 -5.75 -0.02 -6.13 -0.05 m 11.59 -1.98 l -0.93 -0.93 v -7.5 l 0.88 -0.82 l 0.88 -0.82 l -0.88 -0.94 l -0.88 -0.94 v -7.45 l 0.87 -0.87 c 1.41 -1.42 1.35 -1.92 1.35 10.38 c 0 7.27 -0.05 10.63 -0.18 10.71 c -0.1 0.06 -0.6 -0.3 -1.11 -0.82 m -13.61 0.47 c -0.13 -0.34 -0.13 -20.77 0 -21.1 c 0.16 -0.43 0.46 -0.3 1.3 0.56 l 0.8 0.82 v 7.59 l -0.89 0.78 l -0.89 0.78 l 0.89 0.91 l 0.89 0.92 v 7.6 l -0.81 0.7 c -0.88 0.75 -1.14 0.84 -1.3 0.44 m 2.07 -9.81 c -0.74 -0.53 -0.8 -0.88 -0.23 -1.41 c 0.41 -0.39 0.44 -0.39 5.5 -0.37 l 5.09 0.02 l 0.47 0.45 c 0.6 0.58 0.59 0.77 -0.05 1.32 l -0.52 0.45 h -9.61 m 0 -11.3 c -0.66 -0.41 -1.66 -1.55 -1.53 -1.75 c 0.14 -0.22 12.3 -0.21 12.44 0.01 c 0.06 0.09 -0.3 0.59 -0.78 1.11 l -0.89 0.95 h -4.36 c -3.93 0 -4.42 -0.03 -4.88 -0.32" style="fill:#3d3d3d"/></svg>