<svg xmlns="http://www.w3.org/2000/svg" viewBox="0 0 48 48"><path d="m 47.79 25.3 c -0.73 -17.1 -12.3 -29.92 -28.33 -22.82 c -11 4.87 -21.47 10.22 -18.84 22.82 c 2.62 12.6 15.32 22.82 28.33 22.82 c 13 0 19.39 -10.37 18.84 -22.82" style="fill:#b8b0a5"/><path d="m 10.75 25.39 c -0.39 -0.3 -1.25 -0.74 -2.18 -1.11 c -1.52 -0.59 -2.13 -1 -2.13 -1.4 c 0 -0.38 0.63 -1.44 1.09 -1.85 c 0.71 -0.63 1.53 -0.98 3.31 -1.44 c 1.18 -0.3 2.72 -0.45 3.06 -0.39 c 3.04 0.98 1.3 1.46 1.75 2.39 c -0.19 1.44 -2.58 4.7 -4.9 3.79" style="fill:#ab380a"/><path d="m 42.77 36.2 c -1.5 -1.25 -5.6 -3.29 -7.79 -3.87 c -1.3 -0.34 -1.83 -0.61 -1.83 -0.92 c 0 -0.24 -0.29 -1.07 -0.65 -1.84 c -0.7 -1.52 -1.82 -2.4 -3.42 -2.68 c -1.07 -0.19 -4.53 0.8 -8.43 2.4 c -3.72 1.53 -3.38 1.57 -5.83 -0.71 c -1.19 -1.1 -2.47 -2.25 -2.85 -2.55 c -1.24 -0.99 -1.18 -1.13 1.1 -2.48 c 2.16 -1.29 2.38 -1.55 1.92 -2.29 c -0.23 -0.37 -1.31 -0.05 -3.71 0.41 c -0.73 0.14 -0.46 -0.61 -0.01 -0.92 c 2.31 -1.62 2.55 -1.46 3.5 -3.43 c 0.55 -1.13 1.27 -2.24 1.61 -2.46 c 1.05 -0.69 2.22 -1.9 2.95 -1.72 c 0.43 0.11 0.77 0.85 1.96 -0.2 c 0.46 -0.41 1.37 -1.06 1.94 -0.84 c 1 0.38 2.2 1.51 3.94 1.06 c 1.65 -0.43 2.09 -0.36 2.33 0.44 c -0.81 3.15 -0.41 3.11 3.24 3.48 l 1.64 1.78 c 2.11 2.27 3.05 4.11 4.44 8.61 c 1.05 3.41 1.19 3.68 2.31 4.61 c 2.64 2.18 3.14 2.79 3.14 3.8 c 0 0.53 -0.1 1.02 -0.21 1.09 c -0.12 0.07 -0.7 -0.27 -1.29 -0.77" style="fill:#161711"/><g style="fill:#ffd600"><path d="m 17.93 19.33 c -0.14 -0.14 0.54 -0.66 1.16 -0.89 c 0.3 -0.11 1.28 -0.47 2.16 -0.8 c 1.23 -0.46 1.84 -0.62 2.61 -0.66 c 0.84 -0.05 1 -0.04 1.07 0.14 c 0.16 0.43 -0.33 0.84 -1.95 1.65 c -0.96 0.65 -1.76 0.81 -2.86 0.84 c -0.74 -0.02 -1.52 0.06 -2.19 -0.28"/><path d="m 26.45 15.48 c -0.21 -0.05 0.24 -0.88 0.77 -1.41 c 0.26 -0.27 1.09 -1.11 1.85 -1.89 c 1.05 -1.08 1.6 -1.55 2.36 -2 c 0.84 -0.51 1.02 -0.58 1.18 -0.46 c 0.36 0.29 0.05 0.93 -1.23 2.52 c -1.15 1.54 -3.11 3.07 -4.92 3.25"/><path d="m 27.36 16.67 c -0.25 -0.09 0.5 -1 1.29 -1.55 c 0.39 -0.28 1.63 -1.16 2.75 -1.96 c 1.56 -1.12 2.36 -1.59 3.42 -2.03 c 1.17 -0.47 1.41 -0.53 1.58 -0.37 c 0.39 0.39 -0.14 1.1 -2.11 2.79 c -1.1 1.2 -2.17 1.77 -3.72 2.34 c -1.05 0.35 -2.12 0.82 -3.2 0.78"/><path d="m 27.78 17.29 c -0.19 -0.14 0.73 -0.66 1.57 -0.89 c 0.41 -0.11 1.74 -0.47 2.94 -0.8 c 1.67 -0.46 2.5 -0.61 3.54 -0.66 c 1.14 -0.05 1.37 -0.03 1.46 0.15 c 0.22 0.42 -0.45 0.84 -2.64 1.65 c -1.3 0.65 -2.39 0.81 -3.89 0.83 c -1 -0.01 -2.06 0.07 -2.97 -0.27"/></g><path d="m 24.55 47.65 c -0.74 -0.14 -2.21 -0.51 -3.26 -0.83 c -1.46 -0.45 -1.95 -0.73 -2.09 -1.21 c -0.1 -0.34 -0.46 -0.94 -0.81 -1.33 c -1.68 -1.89 -2.65 -8.32 -1.68 -11.1 c 0.47 -1.34 0.85 -1.62 4.15 -3.09 c 4.3 -1.92 7.59 -3 8.42 -2.81 c 1.12 0.29 2.23 1.66 2.61 3.23 c 0.18 0.76 0.48 1.51 0.65 1.65 c 0.18 0.14 1.21 0.53 2.29 0.85 c 3.96 1.18 7.72 3.61 9 5.81 l 0.52 0.88 l -1.22 1.57 c -2.13 2.73 -5.1 4.71 -8.61 5.85 c -1.92 0.61 -7.78 0.91 -9.98 0.51" style="fill:#fff"/><path d="m 25.2 20.46 c 0.14 0.55 -0.42 1.17 -1.25 1.38 c -0.83 0.21 -1.61 -0.07 -1.75 -0.63 c -0.14 -0.55 0.42 -1.17 1.25 -1.38 c 0.83 -0.21 1.61 0.07 1.75 0.63" style="fill:#f00"/></svg>