<svg xmlns="http://www.w3.org/2000/svg" viewBox="0 0 48 48"><path d="m 22.1 47.3 c 29 2.73 36.81 -43.3 7 -46.82 c -27.39 -4.42 -41.48 37.3 -14.28 45.58 c 2.31 0.91 4.83 0.9 7.25 1.23" style="fill:#c6e252"/><path d="m 28.71 33.98 c -0.38 -0.07 -0.54 -0.21 -0.72 -0.61 c -0.2 -0.44 -0.2 -1.34 0 -1.79 c 0.25 -0.56 0.37 -0.6 1.72 -0.6 h 1.19 v -12 h -1.03 c -1.39 0 -1.57 -0.05 -1.83 -0.58 c -0.35 -0.71 -0.27 -1.75 0.19 -2.24 l 0.23 -0.25 h 6.57 l 0.27 0.27 c 0.15 0.15 0.31 0.42 0.36 0.63 c 0.2 0.72 -0.07 1.79 -0.51 2.03 c -0.11 0.06 -0.63 0.11 -1.33 0.13 l -1.15 0.03 v 12 h 1.21 c 1.34 0 1.36 0.01 1.67 0.58 c 0.21 0.38 0.2 1.45 0 1.86 c -0.29 0.58 -0.29 0.58 -3.6 0.59 c -1.62 0.01 -3.08 -0.01 -3.25 -0.05"/><path d="m 13 33.99 c -0.16 -0.04 -0.29 -0.14 -0.4 -0.37 c -0.24 -0.46 -0.25 -1.79 -0.01 -2.26 c 0.14 -0.28 0.2 -0.33 0.46 -0.35 l 0.3 -0.03 v -12 h -0.18 c -0.32 0 -0.53 -0.22 -0.67 -0.7 c -0.23 -0.79 -0.05 -2.05 0.32 -2.3 c 0.05 -0.04 0.86 -0.06 1.79 -0.06 c 1.54 0 1.73 0.02 2.06 0.16 c 1.12 0.5 1.83 2.08 2 4.43 c 0.16 2.18 -0.22 3.95 -1.17 5.43 c -0.13 0.2 -0.12 0.24 0.23 1.13 c 0.36 0.91 0.79 2.24 1.07 3.36 c 0.14 0.57 0.15 0.58 0.43 0.61 c 0.39 0.04 0.57 0.31 0.67 1.04 c 0.1 0.72 -0.02 1.42 -0.29 1.74 c -0.16 0.18 -0.26 0.21 -0.79 0.25 l -0.61 0.04 l -0.3 -1.2 c -0.57 -2.3 -1.24 -4.31 -1.76 -5.3 l -0.25 -0.46 h -1.35 v 3.88 h 0.4 c 0.25 0 0.45 0.05 0.52 0.12 c 0.22 0.22 0.34 0.71 0.33 1.45 c 0 0.95 -0.14 1.29 -0.57 1.41 c -0.33 0.09 -1.84 0.1 -2.24 0.02 m 3.3 -10.15 c 0.75 -0.39 1.13 -1.27 1.13 -2.58 c -0.01 -1 -0.2 -1.57 -0.69 -2 l -0.32 -0.29 h -1.86 v 5.11 l 0.71 -0.03 c 0.52 -0.02 0.79 -0.07 1.03 -0.2"/><path d="m 21.47 33.97 c -0.58 -0.15 -0.76 -0.86 -0.33 -1.32 c 0.21 -0.23 0.28 -0.25 0.8 -0.25 h 0.57 v -4.11 h -0.53 c -0.66 0 -0.92 -0.22 -0.92 -0.79 c 0 -0.57 0.26 -0.79 0.92 -0.79 h 0.53 v -0.57 c 0 -1.09 0.46 -1.91 1.33 -2.34 c 0.77 -0.38 2.93 -0.2 3.29 0.29 c 0.22 0.29 0.18 0.83 -0.07 1.1 c -0.19 0.2 -0.25 0.22 -0.63 0.16 c -1.13 -0.17 -1.58 -0.2 -1.95 -0.13 c -0.55 0.11 -0.69 0.29 -0.75 0.94 l -0.04 0.54 h 1.23 c 1.19 0 1.23 0 1.42 0.21 c 0.29 0.31 0.3 0.84 0.02 1.16 c -0.16 0.19 -0.23 0.2 -1.41 0.2 h -1.23 v 4.11 h 1.12 c 1.24 0 1.4 0.06 1.53 0.57 c 0.13 0.52 -0.09 0.91 -0.56 1.01 c -0.45 0.09 -3.97 0.09 -4.35 -0.01"/><path d="m 23 22.64 c -1.15 -0.3 -2.03 -1.16 -2.37 -2.34 c -0.59 -2 0.66 -4 2.7 -4.35 c 2.21 -0.36 4.14 1.65 3.77 3.92 c -0.33 1.99 -2.2 3.25 -4.1 2.76 m 1.72 -1.49 c 0.75 -0.31 1.17 -0.96 1.17 -1.82 c 0 -0.63 -0.16 -1.03 -0.57 -1.42 c -1.16 -1.1 -3.22 -0.54 -3.55 0.97 c -0.36 1.68 1.3 2.96 2.95 2.27"/></svg>