<svg xmlns="http://www.w3.org/2000/svg" viewBox="0 0 48 48"><path d="m 11.27 43.4 c 47.7 26.1 49.95 -69.3 0.78 -36.45 c -12.66 8.66 -18.82 29.42 -0.78 36.45" style="fill:#e4e4e4"/><path d="m 41.75 14.66 c 0 0 -4.16 1.61 -12.98 7.43 c -1.86 1.23 -3.53 2.46 -5 3.62 c -3.98 2.87 -7.1 5.54 -7.1 5.54 c 0 0 0.69 0.49 1.28 0.76 c 4.5 2.03 10.99 3 12.22 2.44 c 3.31 -1.54 6.67 -10.42 7.67 -14.48 c 0 0 -3.47 1.93 -6.97 4.21 c -4.29 2.79 -8.78 6 -8.78 6 l 10.86 -5.41 c 0 0 -1.9 6.39 -4.79 7.3 c -2.89 0.9 -8.24 -1.24 -8.24 -1.24 c 0 0 5.52 -4.83 18.56 -12.29 c 0.2 -0.11 0.42 -0.46 0.6 -0.87 c 0.59 -0.28 1.16 -0.61 1.75 -0.87 c 0.41 -0.23 0.91 -1.43 0.91 -2.12 v -0.02 c 0 -0.01 0 -0.02 0 -0.02" style="fill:#e53835"/><path d="m 35.45 15 c -1.91 0 -4.95 0.29 -8.64 1.69 c -2.27 0.86 -5.61 6.29 -11.72 12.19 c -0.73 0.71 -3.09 -1.81 -5.11 -2.31 c 0 0 0.36 0.32 0.57 0.78 c 0.71 1.63 1.86 4.16 2.86 5.79 c 1.55 2.53 4.33 3.99 4.33 3.99 c 0 0 -2.12 -2.69 -2.76 -4.16 c -0.33 -0.77 0.08 -1.78 2.8 -4.21 c 2.47 -2.2 11.34 -11.18 19.84 -13.6 c 0 0 -0.79 -0.15 -2.17 -0.15 m -29.65 8.33 c 0 0 0.57 3.27 1.37 4.95 c 0.79 1.68 4.81 3.52 4.81 3.52 c -2.08 -2.35 -6.18 -8.46 -6.18 -8.46" style="fill:#3e3e3e"/></svg>