<svg xmlns="http://www.w3.org/2000/svg" viewBox="0 0 48 48"><path d="m 0.61 29.49 c 9.37 44.98 73.85 -3.3 35.1 -26.2 c -15 -9.8 -39.94 3.04 -35.1 26.2" style="fill:#ec8719"/><path d="m 13.99 13.99 v 4 h 4 c 6.66 0 12 5.36 12 12 v 4 h 4 v -4 c 0 -8.87 -7.14 -16 -16 -16 m -4 8 v 4 h 4 c 2.22 0 4 1.79 4 4 v 4 h 4 v -4 c 0 -4.44 -3.57 -8 -8 -8 m -1.67 7.34 c -1.29 0 -2.34 1.04 -2.34 2.34 c 0 1.3 1.04 2.34 2.34 2.34 c 1.29 0 2.34 -1.04 2.34 -2.34 c 0 -1.29 -1.04 -2.34 -2.34 -2.34" style="fill:#464646"/></svg>