<svg xmlns="http://www.w3.org/2000/svg" viewBox="0 0 48 48"><path d="m 45.73 15.1 c 18 58.4 -78.8 29.2 -33.54 -10.81 c 9.1 -8 28.69 -4.93 33.54 10.81" style="fill:#661325"/><path d="m 36.66 38.9 c -0.31 -0.29 -2.46 -3.77 -4.79 -7.73 c -2.32 -3.95 -4.48 -7.43 -4.79 -7.73 c -0.67 -0.64 -1.29 -0.68 -1.99 -0.13 c -0.61 0.48 -0.66 1.22 -0.2 2.45 c 0.2 0.53 0.27 1.06 0.19 1.5 c -0.17 0.91 -1.11 1.82 -2 1.96 c -1.3 0.21 -1.56 0.43 -3.81 3.27 c -1.35 1.7 -2.4 2.84 -2.68 2.91 c -0.57 0.15 -1.29 -0.31 -1.44 -0.91 c -0.14 -0.55 -0.2 -0.42 4.28 -8.67 c 1.89 -3.48 3.48 -6.52 3.54 -6.76 c 0.17 -0.69 -0.41 -1.41 -1.14 -1.41 c -0.49 0 -0.87 0.25 -1.9 1.25 c -1.61 1.55 -2.18 1.73 -5.34 1.64 c -1.91 -0.06 -2.46 -0.14 -3 -0.46 c -1.09 -0.64 -1.48 -1.33 -1.48 -2.63 c 0 -1.23 0.32 -1.85 1.34 -2.61 c 0.52 -0.39 0.81 -0.4 8.54 -0.46 c 4.4 -0.03 8.37 0 8.82 0.06 c 1 0.15 2.25 0.96 2.88 1.88 c 0.6 0.88 7.49 20.68 7.49 21.52 c 0 0.77 -0.74 1.58 -1.45 1.58 c -0.27 0 -0.74 -0.24 -1.05 -0.54" style="fill:#fff"/></svg>