<svg xmlns="http://www.w3.org/2000/svg" viewBox="0 0 48 48"><path d="m 10 42.4 c 30.2 23.1 56.5 -31.63 20.36 -40.77 c -22.98 -8.98 -42.75 23.61 -20.36 40.77" style="fill:#121a1a"/><path d="m 19.1 13.67 l -2.81 4.88 l -0.61 -0.36 l -0.35 0.61 l -0.61 -0.35 l -0.7 1.22 l 0.61 0.35 l -0.35 0.61 l 0.61 0.36 l -2.81 4.88 l 2.43 1.41 l 2.81 -4.88 l 0.96 -0.26 l 0.7 -1.22 l -0.26 -0.96 l 2.82 -4.88 m 6.36 -1.41 l -2.43 1.41 l 2.81 4.88 l -0.26 0.96 l 0.7 1.22 l 0.96 0.26 l 2.81 4.88 l 2.43 -1.41 l -2.81 -4.88 l 0.61 -0.36 l -0.35 -0.61 l 0.61 -0.35 l -0.7 -1.22 l -0.61 0.35 l -0.35 -0.61 l -0.61 0.36" style="fill-opacity:0.1"/><path d="m 26.29 23.64 c 0 1.56 -1.26 2.82 -2.81 2.82 c -1.55 0 -2.81 -1.26 -2.81 -2.82 c 0 -1.55 1.26 -2.82 2.81 -2.82 c 1.55 0 2.81 1.26 2.81 2.82" style="fill:#5c68ad"/><path d="m 16.45 29.99 h 14.1 v 2.82 h -14.1" style="fill:#317581"/><path d="m 22.77 29.3 l -0.7 0.7 v 3.52 h 0.7 v 0.71 h 1.41 v -0.71 h 0.7 v -3.52 l -0.7 -0.7" style="fill:#d7c584"/><path d="m 18.55 29.99 v 2.82 h 0.7 v -2.82 m 2.11 0 v 2.82 h 0.7 v -2.82 m 2.81 0 v 2.82 h 0.7 v -2.82 m 2.11 0 v 2.82 h 0.7 v -2.82" style="fill-opacity:0.15"/><path d="m 21.51 14.38 l -7 12.21 l -2.43 -1.41 l 7 -12.21" style="fill:#317581"/><path d="m 18.96 20.2 l -0.26 -0.96 l -3.05 -1.76 l -0.35 0.61 l -0.61 -0.35 l -0.7 1.22 l 0.61 0.35 l -0.35 0.61 l 3.05 1.76 l 0.96 -0.26" style="fill:#d7c584"/><path d="m 20.46 16.2 l -2.44 -1.41 l -0.35 0.61 l 2.44 1.41 m -1.05 1.83 l -2.44 -1.41 l -0.35 0.61 l 2.44 1.41 m -1.41 2.44 l -2.44 -1.41 l -0.35 0.61 l 2.44 1.41 m -1.05 1.83 l -2.44 -1.41 l -0.35 0.61 l 2.44 1.41" style="fill-opacity:0.15"/><path d="m 32.48 26.58 l -7 -12.21 l 2.43 -1.41 l 7 12.21" style="fill:#317581"/><path d="m 28.7 21.44 l 0.96 0.26 l 3.04 -1.76 l -0.35 -0.61 l 0.61 -0.35 l -0.7 -1.22 l -0.61 0.35 l -0.35 -0.61 l -3.04 1.76 l -0.26 0.96" style="fill:#d7c584"/><path d="m 31.42 24.75 l 2.44 -1.41 l -0.35 -0.61 l -2.44 1.41 m -1.05 -1.83 l 2.44 -1.41 l -0.35 -0.61 l -2.44 1.41 m -1.41 -2.44 l 2.44 -1.41 l -0.35 -0.61 l -2.44 1.41 m -1.05 -1.83 l 2.43 -1.41 l -0.35 -0.61 l -2.43 1.41" style="fill-opacity:0.15"/><path d="m 23.48 17.3 c -0.78 0 -1.55 0.15 -2.28 0.44 l -0.63 1.08 c 0.88 -0.53 1.88 -0.81 2.91 -0.82 c 1.03 0 2.03 0.29 2.91 0.82 l -0.63 -1.1 c -0.73 -0.28 -1.5 -0.43 -2.28 -0.42 m -5.62 6.23 l -0.63 1.08 c 0.24 1.56 1.05 2.97 2.27 3.96 h 1.25 c -1.79 -0.99 -2.9 -2.88 -2.9 -4.93 c 0 -0.04 0 -0.07 0 -0.11 m 11.25 0 c 0 0.04 0 0.07 0.01 0.11 c 0 2.05 -1.12 3.95 -2.92 4.93 h 1.26 c 1.22 -0.99 2.04 -2.4 2.28 -3.95" style="fill:#f9f9f9;fill-opacity:0.9"/><g style="fill:#fff"><path d="m 23.34 9.75 l -0.48 -2.13 l -1.83 -0.52 l 1.82 -0.56 l 0.45 -2.14 l 0.48 2.13 l 1.83 0.52 l -1.82 0.56"/><path d="m 37.92 35.3 l -0.46 -2.04 l -1.76 -0.5 l 1.75 -0.54 l 0.43 -2.05 l 0.46 2.04 l 1.76 0.5 l -1.75 0.54"/><path d="m 9.97 35.55 l -0.48 -2.11 l -1.86 -0.52 l 1.85 -0.55 l 0.45 -2.12 l 0.48 2.11 l 1.86 0.52 l -1.85 0.55"/></g></svg>