<svg xmlns="http://www.w3.org/2000/svg" xmlns:xlink="http://www.w3.org/1999/xlink" viewBox="0 0 48 48"><defs><g id="3" style="clip-path:url(#2)"><path d="m 31.84 15.81 c 0 4.3 -3.53 7.79 -7.89 7.79 c -4.36 0 -7.89 -3.49 -7.89 -7.79 c 0 -4.3 3.53 -7.8 7.89 -7.8 c 4.36 0 7.89 3.49 7.89 7.8" style="fill:#f2a50c"/></g><g id="6" style="clip-path:url(#5)"><path d="m 31.76 31.3 c 0 4.3 -3.53 7.79 -7.89 7.79 c -4.36 0 -7.89 -3.49 -7.89 -7.79 c 0 -4.3 3.53 -7.8 7.89 -7.8 c 4.36 0 7.89 3.49 7.89 7.8" style="fill:#f2a50c"/></g><g id="9" style="clip-path:url(#8)"><path d="m 25.2 26.89 c 0 4.31 -3.54 7.8 -7.89 7.8 c -4.36 0 -7.89 -3.49 -7.89 -7.8 c 0 -4.3 3.53 -7.79 7.89 -7.79 c 4.36 0 7.89 3.49 7.89 7.79" style="fill:#f2a50c"/></g><g id="C" style="clip-path:url(#B)"><path d="m 38.3 20.45 c 0 4.3 -3.53 7.8 -7.89 7.8 c -4.36 0 -7.89 -3.49 -7.89 -7.8 c 0 -4.3 3.54 -7.79 7.89 -7.79 c 4.36 0 7.89 3.49 7.89 7.79" style="fill:#f2a50c"/></g><g id="F" style="clip-path:url(#E)"><path d="m 38.1 27.33 c 0 4.3 -3.53 7.8 -7.89 7.8 c -4.36 0 -7.89 -3.49 -7.89 -7.8 c 0 -4.3 3.53 -7.79 7.89 -7.79 c 4.36 0 7.89 3.49 7.89 7.79" style="fill:#f2a50c"/></g><g id="I" style="clip-path:url(#H)"><path d="m 25.55 20.1 c 0 4.3 -3.53 7.79 -7.89 7.79 c -4.36 0 -7.89 -3.49 -7.89 -7.79 c 0 -4.31 3.54 -7.8 7.89 -7.8 c 4.36 0 7.89 3.49 7.89 7.8" style="fill:#f2a50c"/></g><clipPath id="E"><path d="M 0,0 H48 V48 H0 z"/></clipPath><clipPath id="B"><path d="M 0,0 H48 V48 H0 z"/></clipPath><clipPath id="5"><path d="M 0,0 H48 V48 H0 z"/></clipPath><clipPath id="8"><path d="M 0,0 H48 V48 H0 z"/></clipPath><clipPath id="2"><path d="M 0,0 H48 V48 H0 z"/></clipPath><clipPath id="H"><path d="M 0,0 H48 V48 H0 z"/></clipPath><filter id="0" filterUnits="objectBoundingBox" x="0" y="0" width="48" height="48"><feColorMatrix type="matrix" in="SourceGraphic" values="0 0 0 0 1 0 0 0 0 1 0 0 0 0 1 0 0 0 1 0"/></filter><mask id="G"><g style="filter:url(#0)"><path d="M 0,0 H48 V48 H0 z" style="fill-opacity:0.8"/></g></mask><mask id="D"><g style="filter:url(#0)"><path d="M 0,0 H48 V48 H0 z" style="fill-opacity:0.8"/></g></mask><mask id="1"><g style="filter:url(#0)"><path d="M 0,0 H48 V48 H0 z" style="fill-opacity:0.8"/></g></mask><mask id="A"><g style="filter:url(#0)"><path d="M 0,0 H48 V48 H0 z" style="fill-opacity:0.8"/></g></mask><mask id="7"><g style="filter:url(#0)"><path d="M 0,0 H48 V48 H0 z" style="fill-opacity:0.8"/></g></mask><mask id="4"><g style="filter:url(#0)"><path d="M 0,0 H48 V48 H0 z" style="fill-opacity:0.8"/></g></mask></defs><path d="m 19.25 46.68 c -4.38 -1.86 -10.46 -4.6 -11 -4.96 c -0.33 -0.21 -0.89 -0.77 -1.24 -1.23 c -1 -1.31 -6.39 -10.69 -6.61 -11.53 c -0.21 -0.77 -0.12 -3.61 0.21 -6.16 c 0.75 -7.55 0.37 -7.38 1.37 -9 c 0.21 -0.44 2.36 -2.94 4.77 -5.55 c 4.64 -5 5.13 -5.43 7.09 -5.81 c 5.27 -0.91 8.59 -2.02 13.32 -2.3 c 4.21 1.79 8.74 3.66 12.72 5.91 c 0.62 0.53 1.54 1.92 3.61 5.44 c 4.24 7.21 3.9 6.43 3.88 8.95 c -0.43 3.93 -0.4 10.48 -1.77 13.27 c -0.47 0.88 -6.65 7.84 -8.61 9.69 c -0.97 0.92 -1.95 1.34 -4.2 1.81 c -2.29 0.85 -7.66 1.73 -9.5 2.07 c -1.06 0.25 -2.3 0.16 -4 -0.57" style="fill:#efe0c2"/><use xlink:href="#3" style="mask:url(#1)"/><use xlink:href="#6" style="mask:url(#4)"/><use xlink:href="#9" style="mask:url(#7)"/><use xlink:href="#C" style="mask:url(#A)"/><use xlink:href="#F" style="mask:url(#D)"/><use xlink:href="#I" style="mask:url(#G)"/><g style="fill:#e87a0b"><path d="m 28.63 34.77 c -1.12 -0.25 -1.92 -0.58 -2.79 -1.15 c -0.81 -0.54 -2.48 -2.25 -2.36 -2.44 c 0.79 -0.1 0.86 -0.36 1.14 -0.99 c 0.44 -1 0.64 -2 0.64 -3.11 v -0.82 l 0.75 -0.16 c 1.32 -0.29 3.31 0.09 4.47 1.46 l 0.49 0.58 l 0.25 0.76 c 0.52 1.57 0.45 3.54 -0.21 5.21 l -0.32 0.8 l -0.62 0.02 c -0.34 0.02 -0.99 -0.05 -1.45 -0.16"/><path d="m 15.17 27.38 c -1.75 -0.57 -3.51 -2 -4.33 -3.51 c -0.37 -0.68 -0.38 -0.71 -0.14 -1.15 c 0.36 -0.7 1.82 -2.06 2.73 -2.54 c 0.9 -0.47 1.89 -0.81 2.76 -0.95 l 0.56 -0.09 l 0.51 0.83 c 0.98 1.6 3 3.04 4.89 3.47 l 0.74 0.17 l -0.97 0.25 c -0.54 0.14 -1.18 0.36 -1.43 0.48 c -1.2 0.61 -2.41 1.68 -3.16 2.78 c -0.48 0.7 -0.69 0.73 -2.16 0.25"/><path d="m 16.73 33.95 c -0.4 -1 -0.56 -2.58 -0.39 -3.73 c 0.09 -0.56 0.25 -1.25 0.38 -1.53 c 0.2 -0.48 0.25 -0.52 0.8 -0.52 c 1.38 0 3.39 -0.66 4.41 -1.44 c 0.25 -0.2 0.5 -0.36 0.55 -0.36 c 0.05 0 0.09 0.36 0.09 0.8 c 0 1.05 0.32 2.5 0.75 3.44 c 0.41 0.9 0.38 1 -0.64 1.9 c -1.31 1.17 -3.46 2 -5.13 2 c -0.55 0 -0.59 -0.03 -0.8 -0.58"/><path d="m 30.2 27.1 c -1 -1.59 -2.68 -2.8 -4.55 -3.27 l -0.99 -0.25 l 0.75 -0.17 c 1.74 -0.41 3.73 -1.74 4.72 -3.16 c 0.44 -0.64 0.58 -0.67 1.8 -0.36 c 1.88 0.48 3.7 1.78 4.7 3.36 l 0.47 0.73 l -0.34 0.59 c -0.81 1.39 -2.84 2.86 -4.63 3.34 c -1.18 0.31 -1.23 0.29 -1.92 -0.79"/><path d="m 25.55 19.79 c -0.08 -1.26 -0.34 -2.21 -0.94 -3.44 l -0.32 -0.67 l 0.86 -0.82 c 1.33 -1.25 2.88 -1.93 4.85 -2.13 c 1.14 -0.11 1.27 0 1.58 1.41 c 0.29 1.28 0.21 2.91 -0.2 4.07 c -0.45 1.29 -0.5 1.36 -1.16 1.36 c -1.02 0 -2.47 0.39 -3.55 0.94 l -1.05 0.53"/><path d="m 21.7 20.39 c -1.02 -0.68 -2.74 -1.24 -3.97 -1.28 l -0.95 -0.03 l -0.3 -0.97 c -0.44 -1.39 -0.41 -3.5 0.05 -4.76 l 0.33 -0.9 l 0.93 -0.04 c 1.13 -0.05 2.33 0.23 3.5 0.82 c 0.91 0.46 2.32 1.65 2.63 2.21 c 0.16 0.31 0.14 0.41 -0.23 1 c -0.57 0.9 -0.97 2.16 -1.09 3.43 l -0.1 1.05"/></g><g style="fill:#e44211"><path d="m 22.56 23.82 c -2.34 0.44 -4.3 1.77 -5.63 3.83 c -0.2 0.3 -0.36 0.57 -0.36 0.6 c 0 0.11 0.33 0.13 1.06 0.06 c 1.65 -0.15 3.21 -0.77 4.45 -1.78 l 0.4 -0.32 v 1.04 c -0.01 0.79 0.03 1.21 0.14 1.76 c 0.16 0.77 0.63 1.95 0.99 2.51 l 0.22 0.35 l 0.22 -0.35 c 0.88 -1.38 1.4 -3.29 1.32 -4.8 c -0.02 -0.35 -0.02 -0.63 -0.01 -0.63 c 0.02 0 0.21 0.13 0.43 0.29 c 1.16 0.85 2.55 1.34 4 1.41 c 0.45 0.02 0.82 0.02 0.82 -0.01 c 0.01 -0.2 -0.97 -1.53 -1.47 -2 c -1.04 -0.97 -2.32 -1.65 -3.56 -1.9 c -0.32 -0.06 -0.66 -0.13 -0.75 -0.15 c -0.12 -0.03 -0.16 -0.01 -0.13 0.06 c 0.31 0.84 0.58 1.84 0.57 2.13 c -0.01 0.13 -0.57 -0.41 -0.99 -0.95 l -0.36 -0.46 l -0.43 0.55 c -0.23 0.3 -0.56 0.68 -0.73 0.84 l -0.31 0.29 l 0.06 -0.32 c 0.09 -0.48 0.36 -1.39 0.54 -1.8 c 0.11 -0.26 0.13 -0.36 0.07 -0.36 c -0.05 0 -0.32 0.05 -0.61 0.11"/><path d="m 22.59 23.47 c -2.29 -0.42 -4.16 -1.7 -5.38 -3.67 c -0.18 -0.29 -0.33 -0.55 -0.33 -0.58 c 0 -0.1 0.33 -0.12 1.05 -0.06 c 1.63 0.14 3.14 0.74 4.31 1.7 l 0.38 0.31 l 0.04 -0.99 c 0.03 -0.76 0.08 -1.16 0.22 -1.68 c 0.2 -0.74 0.71 -1.86 1.1 -2.41 l 0.23 -0.33 l 0.2 0.33 c 0.8 1.33 1.23 3.16 1.07 4.6 c -0.04 0.33 -0.05 0.61 -0.04 0.61 c 0.02 0 0.21 -0.13 0.44 -0.28 c 1.19 -0.82 2.59 -1.28 4.06 -1.36 c 0.45 -0.02 0.81 -0.02 0.81 0.01 c 0 0.2 -1.03 1.47 -1.55 1.92 c -1.08 0.93 -2.37 1.58 -3.61 1.82 c -0.32 0.06 -0.66 0.13 -0.75 0.14 c -0.11 0.03 -0.15 0.01 -0.12 -0.05 c 0.35 -0.8 0.66 -1.76 0.66 -2.04 c 0 -0.13 -0.59 0.4 -1.02 0.91 l -0.37 0.44 l -0.39 -0.53 c -0.21 -0.29 -0.52 -0.65 -0.68 -0.8 l -0.29 -0.27 l 0.05 0.31 c 0.07 0.46 0.29 1.33 0.45 1.72 c 0.09 0.25 0.11 0.35 0.05 0.34 c -0.05 0 -0.32 -0.05 -0.6 -0.1"/></g></svg>