<svg xmlns="http://www.w3.org/2000/svg" viewBox="0 0 48 48"><path d="m 24.1 0.26 c -32.1 -3.63 -31.89 48.3 0.38 47.7 c 30 1.71 32.93 -50.5 -0.38 -47.7" style="fill:#2a2afb"/><path d="m 22.48 35.51 l -0.95 -0.1 c -0.52 -0.05 -2.73 -0.19 -4.91 -0.31 c -4.71 -0.25 -6 -0.46 -5.61 -0.88 c 0.14 -0.14 3.91 -0.39 8.45 -0.56 l 3 -0.11 v -4.59 c 0 -2.48 -0.18 -5.18 0.02 -7.65 l -4.7 -0.13 c -5.78 -0.16 -7.78 -0.13 -7.36 -0.56 c 0.16 -0.17 7.41 -0.67 9.72 -0.67 c 1.27 0 2.32 -0.07 2.32 -0.16 c 0 -0.09 0.23 -1.92 0.38 -4.2 c 0.32 -4.88 0.44 -6.91 0.83 -8.34 c 0.16 -0.57 0.45 -1.64 0.45 -1.77 c 0.01 -0.63 0.14 0.39 0.39 1.53 c 0.59 2.62 0.4 5.95 0.91 11.1 l 0.2 1.95 l 5 0.11 c 4.91 0.11 6.67 0.25 6.84 0.55 c 0.2 0.34 -1.02 0.44 -6.3 0.52 c -3.96 0.06 -5.62 0.15 -5.71 0.3 c 0.1 4.61 0.1 7.77 0.31 11.96 l 3.24 0.14 c 5.86 0.25 9.1 0.46 9.22 0.6 c -0.61 0.57 -6.26 0.91 -7.21 0.97 c -2.75 0.15 -5.24 0.32 -5.33 0.38 c -0.15 2.43 0.3 9.89 0.3 12.23 c -1.38 0.61 -2.68 0.11 -3.76 0.11 c 0 -2.08 0.2 -10.34 0.2 -12.41" style="fill:#c8c1df"/><g style="fill:#f46670"><path d="m 5.8 22.1 h 36.3 c 0.09 0 0.16 0.06 0.16 0.14 v 1.49 c 0 0.07 -0.07 0.14 -0.16 0.14 h -36.3 c -0.08 0 -0.15 -0.06 -0.15 -0.14 v -1.49 c 0 -0.08 0.07 -0.14 0.15 -0.14"/><path d="m 5.82 17.41 h 36.2 c 0.09 0 0.16 0.06 0.16 0.14 v 1.49 c 0 0.08 -0.07 0.14 -0.16 0.14 h -36.2 c -0.08 0 -0.15 -0.06 -0.15 -0.14 v -1.49 c 0 -0.07 0.07 -0.14 0.15 -0.14"/><path d="m 7.32 17.77 v 5.64 c 0 0.09 -0.06 0.16 -0.13 0.16 h -1.41 c -0.07 0 -0.13 -0.07 -0.13 -0.16 v -5.64 c 0 -0.09 0.06 -0.16 0.13 -0.16 h 1.41 c 0.07 0 0.13 0.07 0.13 0.16"/><path d="m 42.2 17.84 v 5.53 c 0 0.09 -0.06 0.16 -0.13 0.16 h -1.41 c -0.07 0 -0.13 -0.07 -0.13 -0.16 v -5.53 c 0 -0.09 0.06 -0.16 0.13 -0.16 h 1.41 c 0.07 0 0.13 0.07 0.13 0.16"/></g></svg>