<svg xmlns="http://www.w3.org/2000/svg" viewBox="0 0 48 48"><path d="m 35.3 45.88 c 22.57 -9.45 12.51 -46 -12.1 -45.79 c -22.35 -0.37 -30.83 28.72 -14.9 41.47 c 6.89 6.38 18.3 8.61 27 4.33" style="fill:#86cefa"/><path d="m 14.57 38.1 c -3.39 -2.29 -6.09 -6.55 -6.89 -10.89 c -0.25 -1.34 -0.22 -4.47 0.05 -5.86 c 1 -5.07 4.16 -9.26 8.74 -11.56 c 2.43 -1.22 4.67 -1.75 7.49 -1.75 c 6.23 -0.01 11.75 3.31 14.85 8.93 c 1.32 2.38 1.84 4.46 1.84 7.36 c 0.01 3.74 -1.03 6.91 -3.25 9.92 c -1.38 1.88 -4.44 4.5 -4.99 4.29 c -0.27 -0.11 -1.51 -2.24 -1.5 -2.59 c 1.23 -1.39 2.95 -2.52 4.05 -4.1 c 1.63 -2.4 2.34 -4.71 2.34 -7.56 c 0 -2.14 -0.36 -3.73 -1.23 -5.52 c -1.61 -3.3 -5.22 -6.2 -8.91 -7.16 c -1.83 -0.48 -4.69 -0.47 -6.47 0.01 c -1.71 0.46 -3.54 1.39 -4.95 2.52 c -4.97 3.99 -6.34 10.54 -3.43 16.43 c 0.26 0.53 0.68 1.27 0.93 1.63 c 0.57 0.83 2.41 2.6 3.19 3.08 c 0.59 0.36 0.65 0.46 0.59 1.03 c -0.04 0.41 -1.1 2.25 -1.35 2.34 c -0.11 0.04 -0.6 -0.2 -1.1 -0.54 m 3.36 -5.76 c -2.27 -1.81 -3.87 -5.15 -3.87 -8.1 c 0 -2.24 1.23 -5.08 2.94 -6.79 c 3.89 -3.88 10.1 -3.85 14 0.07 c 1.16 1.16 2.08 2.65 2.64 4.27 c 0.75 2.52 0.27 5.46 -0.99 7.59 c -0.95 1.58 -2.79 3.37 -3.48 3.37 c -0.84 -0.74 -1.18 -1.52 -1.7 -2.6 c 0 -0.03 0.48 -0.54 1.07 -1.12 c 1.18 -1.17 1.63 -1.91 2 -3.36 c 0.55 -2.18 -0.28 -4.52 -2.18 -6.14 c -1.42 -1.21 -2.61 -1.66 -4.39 -1.66 c -2.31 0 -4.12 0.96 -5.38 2.85 c -0.74 1.11 -1.09 2.28 -1.09 3.59 c 0 1.96 0.65 3.5 2.05 4.85 c 0.5 0.49 0.91 1 0.91 1.16 c 0 0.29 -0.82 1.84 -1.22 2.31 c -0.33 0.39 -0.48 0.35 -1.31 -0.32 m 4.95 -4.77 c -1.4 -0.7 -2.16 -2.18 -2.07 -3.43 c 0.23 -3.15 4.29 -4.07 6 -1.36 c 0.58 0.91 0.67 2.17 0.23 3.05 c -0.77 1.51 -2.61 2.27 -4.16 1.73" style="fill:#4c90f3"/></svg>