<svg xmlns="http://www.w3.org/2000/svg" viewBox="0 0 48 48"><path d="m 24.45 47.74 c -4.95 -0.39 -10.74 -2.75 -14.77 -6 c -4.91 -4 -8.51 -10.12 -9.47 -16.2 c -1.15 -7.98 3.48 -16.56 8.72 -20.63 c 2.63 -1.98 6.11 -3.56 9.37 -4.25 c 8.5 -1.8 17.36 1.61 23.44 8.99 c 3.64 4.43 5.53 8.89 5.99 14.18 c 0.55 6.33 -1.95 13.1 -6.52 17.7 c -5.2 4.31 -10.56 6.65 -16.73 6.21" style="fill:#eff8ff"/><path d="m 24.39 37.1 c -0.19 -0.48 -0.47 -1.25 -0.62 -1.69 c -0.2 -0.6 -0.65 -0.98 -1.78 -1.53 c -1.89 -0.91 -2.09 -0.91 -3.2 -0.09 c -0.5 0.37 -1.08 0.67 -1.29 0.67 c -0.47 0 -4.07 -3.58 -4.07 -4.05 c 0.59 -1.18 0.84 -1.74 1.42 -2.7 l -0.78 -1.74 c -0.75 -1.67 -0.84 -1.76 -2.14 -2.14 c -0.75 -0.21 -1.47 -0.54 -1.59 -0.73 c -0.12 -0.18 -0.22 -1.21 -0.22 -2.27 c 0 -2.18 0.25 -2.5 2.04 -2.5 c 0.89 0 1.02 -0.1 1.54 -1.24 c 0.7 -1.54 0.7 -1.56 -0.02 -2.51 c -0.73 -0.96 -0.61 -1.3 0.81 -2.25 c 1.18 -0.8 1.42 -0.77 3.14 0.42 c 0.32 0.22 0.84 0.24 1.77 0.06 c 1.13 -0.21 1.36 -0.37 1.59 -1.05 c 0.14 -0.45 0.3 -0.85 0.34 -0.9 c 0.04 -0.05 0.78 0.06 1.64 0.25 c 1.26 0.28 1.64 0.49 1.96 1.11 c 0.54 1.02 0.31 1.29 -1.08 1.29 c -2.42 0.01 -5.09 2.04 -5.73 4.35 c -0.79 2.84 0.56 8.16 2 7.96 c 0.59 -0.08 0.63 -0.23 0.71 -2.29 c 0.08 -2.19 0.08 -2.2 1.34 -3.56 c 1.22 -1.32 1.3 -1.36 2.75 -1.36 c 0.82 0 1.5 0.08 1.5 0.18 c 0 0.09 -0.44 0.69 -0.97 1.32 c -1.12 1.33 -1.15 1.56 -0.43 2.72 c 0.39 0.63 0.82 0.91 1.57 1.05 c 0.97 0.18 1.1 0.12 2.07 -0.95 c 0.57 -0.63 1.17 -1.06 1.32 -0.96 c 0.16 0.09 0.29 0.77 0.29 1.51 c 0 1.22 -0.11 1.46 -1.25 2.64 c -1.21 1.26 -1.32 1.31 -3.19 1.5 c -1.45 0.14 -2.08 0.33 -2.48 0.75 c -0.3 0.31 -0.5 0.69 -0.45 0.84 c 0.04 0.15 0.93 0.7 1.96 1.2 c 3.25 1.6 6.3 1.41 8.53 -0.52 l 1.16 -1 l 0.9 1.24 c 0.5 0.68 0.91 1.46 0.91 1.73 c 0 0.63 -1.34 2.87 -1.73 2.87 c -0.87 -0.35 -1.42 -0.84 -2.2 -1.41 l -1.36 0.62 c -1.42 0.65 -1.55 0.88 -1.69 2.81 l -0.07 1.07 c -1.52 0.05 -3.05 0.1 -4.57 0.16 c -0.12 -0.3 -0.24 -0.59 -0.36 -0.89" style="fill:#2195e0"/><path d="m 31.2 29.2 c 1 -1 1.33 -1.58 1.61 -2.79 c 0.64 -2.78 -1.12 -6.56 -3.92 -8.45 c -1.81 -1.22 -4.06 -1.74 -5.81 -1.34 c -1.08 0.25 -1.66 0.65 -2.55 1.77 c -0.77 0.98 -0.95 0.98 -0.78 0 c 0.26 -1.43 1.42 -2.89 2.88 -3.62 c 2 -0.88 4.92 -0.39 6.55 0.42 c 1.68 0.84 3.55 2.66 4.64 4.49 c 1.5 2.52 1.77 5.48 0.7 7.58 c -0.72 1.41 -2.42 2.71 -3.67 2.81 l -0.57 0.05" style="fill:#60a66a"/></svg>