<svg xmlns="http://www.w3.org/2000/svg" viewBox="0 0 48 48"><path d="m 7.84 42.5 c 16.93 16 47.4 -7.43 38.48 -28.99 c -6.27 -18.24 -32.2 -16.57 -41.3 -1.7 c -6.79 9 -6.72 23.68 2.79 30.69" style="fill:#392f28"/><path d="m 20.73 27 l 1.04 0.91 c 0.52 0.45 0.58 1.22 0.14 1.71 l -4.32 4.82 c -0.44 0.49 -1.21 0.52 -1.73 0.07 l -1.03 -0.91 c -0.52 -0.45 -0.58 -1.21 -0.14 -1.71 l 4.32 -4.82 c 0.44 -0.49 1.21 -0.52 1.73 -0.07" style="fill:#fff"/><path d="m 31.46 11.23 c 2.46 0.19 5 2.38 4.96 5.59 c -0.03 1.97 -0.85 4.16 -2.25 6 c -4.45 5.41 -6.08 1.59 -2.53 -2 c 2.27 -2.4 1.66 -3.54 1.62 -4.05 c -0.13 -1.42 -1.85 -2.71 -3 -2.37 c -1 0.29 -1.94 0.01 -4.12 2.37 c -2.75 3.75 -5.82 1.49 -2.2 -2.09 c 2.91 -3 5.36 -3.5 7.53 -3.45" style="fill:#f4f4f4"/><path d="m 21.84 13.83 l 13.1 11.48 c 0.52 0.45 0.58 1.22 0.14 1.71 l -7.99 8.93 c -0.44 0.49 -1.21 0.52 -1.73 0.07 l -13.1 -11.49 c -0.52 -0.45 -0.58 -1.21 -0.14 -1.71 l 7.99 -8.93 c 0.44 -0.49 1.21 -0.52 1.73 -0.07" style="fill:#ffa400"/><path d="m 19 37.3 c -1.67 1.87 -4.66 1.96 -6.68 0.19 c -2 -1.77 -2.29 -4.71 -0.62 -6.58 c 1.67 -1.87 4.66 -1.95 6.68 -0.19 c 2 1.77 2.3 4.71 0.62 6.58" style="fill:#f4f4f4"/><path d="m 15.36 36.48 c -0.56 0.63 -1.57 0.66 -2.25 0.06 c -0.68 -0.59 -0.77 -1.58 -0.21 -2.21 c 0.56 -0.63 1.57 -0.66 2.24 -0.06 c 0.68 0.59 0.77 1.58 0.21 2.21" style="fill:#392f28"/></svg>