<svg xmlns="http://www.w3.org/2000/svg" viewBox="0 0 48 48"><path d="m 41.1 39.2 c 29.95 -42.56 -47.94 -56.1 -40.2 -10.88 c 4.1 17.98 28.2 27.94 40.2 10.88" style="fill:#00a1ad"/><g style="fill:#fff"><path d="m 20.82 39.1 c -0.71 -0.31 -1.12 -1.36 -1.47 -3.39 c -0.17 -1.01 -0.34 -1.57 -0.74 -2.42 c -0.28 -0.61 -0.6 -1.44 -0.7 -1.85 c -0.42 -1.67 -0.75 -2.41 -2.48 -5.73 c -0.55 -1.04 -1.15 -2.36 -1.34 -2.93 c -1.53 -4.58 0.45 -9.26 4.88 -11.54 c 2.76 -1.26 5.6 -1.28 8.25 -0.25 c 2.02 0.8 4 2.63 5 4.58 c 0.95 1.9 1.09 4.79 0.34 7.16 c -0.17 0.54 -0.88 2.14 -1.59 3.55 c -1.49 2.98 -1.54 3.1 -2.52 6.1 c -0.52 1.54 -0.78 2.52 -0.85 3.21 c -0.06 0.54 -0.16 1.17 -0.22 1.39 c -0.18 0.67 -0.82 1.86 -1.25 2.04 c -0.88 0.37 -4.6 0.43 -5.29 0.12 m 1.79 -6.66 c 0.02 -0.02 0.06 -1.2 0.11 -2.63 l 0.08 -2.6 l -0.72 -0.49 c -1.63 -1.09 -2.29 -1.86 -2.72 -3.12 c -0.21 -0.63 -1.15 -5.11 -1.15 -5.51 c 0 -0.26 0.17 -0.23 1.07 0.23 c 2.03 1.03 3.47 2.3 4.31 3.79 c 0.71 1.26 0.56 2.46 1.22 0.6 c 0.37 -1.05 1.69 -1.55 2.98 -1.57 c 1.69 -0.02 1.29 0.36 0.86 1.21 c -0.29 0.57 -1.38 1.96 -1.92 2.47 c -0.51 0.47 -0.8 0.6 -1.57 0.7 c -0.36 0.05 -0.63 0.16 -0.78 0.32 c -0.12 0.14 -0.41 0.48 -0.64 0.75 l -0.43 0.5 c 0.2 1.49 0.22 3.63 0.38 5.33 c 1.02 -0.15 2.84 0.13 3.21 -0.21 c 0.13 -0.21 0.29 -0.64 0.37 -0.96 c 0.21 -0.89 0.66 -1.95 2.09 -4.93 c 1.59 -3.32 1.95 -4.22 2.2 -5.45 c 0.22 -1.09 0.18 -1.9 -0.19 -3.21 c -0.41 -1.47 -0.97 -2.46 -2 -3.49 c -1.05 -1.05 -1.97 -1.59 -3.56 -2.07 c -2.16 -0.59 -4.55 -0.36 -6.3 0.5 c -1.65 0.82 -2.8 1.98 -3.62 3.63 c -0.55 1.11 -0.79 2.19 -0.79 3.5 c 0 1.79 0.43 3 2.23 6.42 c 1.35 2.53 1.65 3.25 2.06 4.87 c 0.39 1.55 0.45 1.6 1.99 1.51 c 0.65 -0.04 1.2 -0.08 1.22 -0.1"/><path d="m 24.55 25.3 h 0.48 v 7.67 h -0.48"/></g><g style="fill:#00a1ad"><path d="m 21.1 34.3 l 4.42 -0.18 c 0.21 -0.01 0.38 0.15 0.39 0.36 l 0.02 0.38 c 0.01 0.2 -0.15 0.38 -0.36 0.39 l -4.42 0.18 c -0.21 0.01 -0.38 -0.15 -0.39 -0.36 l -0.02 -0.37 c -0.01 -0.21 0.15 -0.38 0.36 -0.39"/><path d="m 21.83 36.2 l 3.41 -0.07 c 0.2 -0.01 0.38 0.16 0.38 0.36 v 0.37 c 0 0.21 -0.16 0.38 -0.37 0.38 l -3.41 0.07 c -0.21 0 -0.38 -0.16 -0.38 -0.36 v -0.38 c 0 -0.21 0.16 -0.38 0.37 -0.38"/></g></svg>