<svg xmlns="http://www.w3.org/2000/svg" viewBox="0 0 48 48"><path d="m 0.38 24.1 c -3.61 -31.67 47.98 -31.2 47.4 0.56 c 1.71 29.57 -50.2 32.2 -47.4 -0.56" style="fill:#b4f1f6"/><path d="m 13.1 32.56 c -6 -1.35 -8.31 -9.21 -4.1 -13.98 c 2.11 -2.39 5.84 -3.3 9 -2.2 c 1.67 0.58 1.67 0.55 0 2.63 l -1.47 1.82 h -1.12 c -1.91 0.02 -3.19 1.01 -3.59 2.81 c -0.51 2.29 1.09 4.28 3.42 4.28 c 1.97 0 3 -0.81 6.19 -4.73 c 4.96 -6.14 7.66 -7.81 11.68 -7.19 c 3.78 0.58 6.43 3.26 6.97 7.1 c 0.8 5.62 -3.25 10.1 -8.88 9.72 c -1.45 -0.09 -3.32 -0.62 -3.56 -1 c 0.85 -1.47 1.74 -2.43 2.88 -3.85 c 0.92 0 2 0.05 2.78 -0.34 c 2.87 -1.51 2.28 -5.94 -0.88 -6.67 c -0.86 -0.2 -1.09 -0.19 -1.91 0.08 c -1.33 0.43 -2.4 1.43 -4.76 4.39 c -3.25 4.11 -4.68 5.5 -6.75 6.55 c -1.77 0.91 -3.79 1.12 -5.94 0.63" style="fill:#494949"/><g style="fill:#20a4c7"><path d="m 16.55 20.71 c 0.78 -1.26 2.27 -2.25 2.83 -3.63 c 1.92 0.53 3.13 1.85 4.45 3.22 c -0.95 0.95 -2.39 3.41 -3.4 3.83 c -1.18 -1.22 -2.54 -2.49 -3.87 -3.42"/><path d="m 23.4 28.33 c 1.07 -1.34 2.14 -2.68 3.21 -4 c 1.1 1.41 2.64 2.58 3.88 3.45 c -0.73 0.7 -2.09 3.53 -2.97 3.73 c -1.65 -0.61 -3 -2.15 -4.12 -3.16"/></g></svg>