<svg xmlns="http://www.w3.org/2000/svg" viewBox="0 0 48 48"><path d="m 36.81 41 c 43.94 -49.5 -59.1 -56.5 -32.1 -6 c 6.16 11.51 20.41 19.1 32.1 6" style="fill:#ffd000"/><path d="m 22.56 42.84 c -1.23 -0.85 -2.24 -2.41 -2.52 -3.91 c -0.13 -0.72 -0.3 -1.13 -0.59 -1.41 c -0.21 -0.22 -1.01 -1.23 -1.77 -2.25 c -1.41 -1.91 -1.58 -2.32 -2.1 -4.95 c -0.14 -0.71 -0.61 -1.38 -1.03 -1.47 c -0.72 -0.26 -0.14 -1.59 -0.8 -1.61 c -0.88 0 -1.62 -2.7 -0.88 -3.19 c 0.36 -0.24 0.37 -0.63 0.03 -1.49 c -0.33 -0.84 -0.23 -0.75 -1.06 -0.89 c -0.77 -0.13 -3.41 -1.66 -3.41 -1.96 c 0 -0.39 0.71 -0.96 1.88 -1.51 c 0.68 -0.31 1.33 -0.61 1.46 -0.64 c 0.16 -0.05 0.09 -0.2 -0.29 -0.57 c -0.28 -0.27 -0.73 -0.98 -1 -1.57 c -0.54 -0.82 -0.45 -1.27 -0.25 -2.18 c 0.34 -1.5 1.79 -3.7 2.88 -4.36 c 0.73 -0.44 0.79 -0.11 0.3 1.84 c -0.43 1.72 -0.46 2.64 -0.09 2.85 c 0.08 0.05 0.22 -0.08 0.3 -0.29 c 0.2 -0.48 0.44 -0.47 1.2 0.06 c 0.34 0.24 0.68 0.43 0.76 0.44 c 0.08 0 0.42 -0.23 0.76 -0.51 c 0.34 -0.28 1.22 -0.79 1.95 -1.13 c 0.9 -0.41 1.24 -0.34 1.24 -0.51 c 2.47 1.79 6.21 1.34 9.12 0.07 c 0.08 0.18 0.54 0.51 1.05 0.75 c 0.5 0.24 1.12 0.63 1.38 0.88 c 0.25 0.25 0.56 0.45 0.68 0.45 c 0.36 0 1.3 -0.75 1.3 -1.03 c 0 -0.42 0.18 -0.73 0.41 -0.73 c 0.34 0 0.54 0.49 0.44 1.07 c -0.12 0.68 0.18 0.71 0.42 0.04 c 0.14 -0.41 0.11 -0.77 -0.23 -2.11 c -0.22 -0.89 -0.4 -1.75 -0.4 -1.92 c 0 -0.86 1.45 0.27 2.6 2.03 c 0.61 0.93 1.03 2.16 1.03 3.04 c 0 0.59 -0.84 2.34 -1.38 2.86 c -0.23 0.22 -0.38 0.43 -0.34 0.45 c 0.04 0.03 0.61 0.29 1.27 0.58 c 0.7 0.31 1.41 0.75 1.71 1.06 c 0.48 0.5 0.49 0.54 0.23 0.8 c -0.52 0.53 -2.66 1.66 -3.3 1.74 c -0.63 0.08 -0.63 0.08 -0.58 0.67 c 0.03 0.33 -0.06 0.85 -0.19 1.17 c -0.4 0.87 -0.18 1.82 -0.53 2.7 c -0.15 0.71 -0.01 1.41 -0.5 1.75 c -0.36 0.23 -0.49 0.44 -0.49 0.75 c 0 0.32 -0.11 0.48 -0.45 0.64 c -0.7 0.34 -0.81 0.54 -1.27 2.39 c -0.42 1.71 -0.45 1.77 -1.82 3.63 c -0.77 1.04 -1.56 2.03 -1.76 2.19 c -0.28 0.22 -0.41 0.56 -0.54 1.37 c -0.19 1.16 -1.02 2.68 -1.87 3.41 c -0.57 0.5 -1.62 1.14 -1.85 1.14 c -0.1 0 -0.61 -0.29 -1.13 -0.65 m 0.19 -2.53 c -0.17 -0.16 -0.2 -0.04 -0.45 0.14 c -0.45 0.31 0.78 1.83 0.84 1.57 c 0.03 -0.14 -0.34 -1.67 -0.39 -1.71 m 2.24 0.02 c -0.15 -0.14 -0.74 0.23 -0.74 0.5 c 0 0.22 -0.03 2.39 0.57 0.65 c 0.07 -0.19 0.22 -1.1 0.17 -1.15 m -2.41 -0.95 c 0.23 -0.34 -0.09 -0.84 -0.68 -1.06 c -0.32 -0.12 -0.64 -0.19 -0.7 -0.16 c -0.12 0.07 0.47 1.09 0.73 1.26 c 0.24 0.16 0.53 0.14 0.64 -0.04 m 1.47 -0.33 c 0.04 -0.33 -0.01 -0.39 -0.36 -0.39 c -0.46 0 -0.46 0 -0.25 0.52 c 0.2 0.47 0.54 0.41 0.6 -0.13 m 1.84 -0.09 c 0.53 -0.78 0.51 -0.9 -0.12 -0.71 c -0.74 0.23 -0.91 0.39 -0.91 0.87 c 0 0.64 0.54 0.56 1.02 -0.16 m -1.52 -1.43 c 0.14 -0.29 0.11 -1.05 -0.29 -1.21 c -0.33 -0.13 -0.53 -0.13 -0.78 -0.01 c -0.38 0.19 -0.49 0.73 -0.29 1.08 c 0.23 0.39 1.15 0.55 1.35 0.13 m -0.61 -1.95 c 0.13 0 0.42 0.04 0.64 0.09 c 0.49 0.11 2.25 -0.46 2.17 -0.71 c -0.11 -0.3 -2.58 -0.52 -4.15 -0.36 c -0.78 0.08 -1.49 0.2 -1.57 0.27 c -0.26 0.22 1.49 0.87 2.12 0.79 c 0.3 -0.04 0.66 -0.08 0.79 -0.08 m 5.69 -2.56 c 0.01 -0.42 -0.27 -0.6 -1.02 -0.66 c -0.61 -0.05 -0.63 -0.04 -0.68 0.44 c -0.04 0.34 0.07 0.67 0.36 1.06 c 0.22 0.31 0.41 0.68 0.41 0.83 c 0.01 0.36 0.92 -1.27 0.93 -1.66 m -10.43 1.52 c 0 -0.11 0.18 -0.43 0.4 -0.73 c 0.48 -0.66 0.5 -1.05 0.04 -1.35 c -0.49 -0.32 -0.8 -0.29 -1.23 0.14 l -0.38 0.37 l 0.45 0.88 c 0.43 0.83 0.71 1.1 0.71 0.69 m 2.49 -0.48 c 0.92 -0.09 0.56 -0.33 0.01 -0.54 c -0.58 -0.29 -0.65 -0.27 -1.11 0.14 c -0.56 0.5 -0.56 0.68 -0.01 0.58 c 0.24 -0.04 0.74 -0.12 1.11 -0.17 m 5.86 -0.02 c -0.03 -0.13 -0.23 -0.36 -0.45 -0.52 c -0.37 -0.26 -0.44 -0.26 -0.98 -0.05 c -0.85 0.33 -0.85 0.49 -0.01 0.59 c 0.41 0.05 0.86 0.11 0.99 0.14 c 0.31 0.02 0.49 0.07 0.45 -0.16 m -14.77 -13.25 c 0.13 -0.33 0.09 -0.46 -0.23 -0.78 c -0.36 -0.36 -0.45 -0.38 -1.41 -0.29 c -0.56 0.05 -1.09 0.15 -1.16 0.22 c -0.15 0.14 1.14 1 1.77 1.18 c 0.64 0.18 0.87 0.1 1.04 -0.34 m 24.37 -0.21 c 0.48 -0.3 0.81 -0.59 0.74 -0.65 c -0.18 -0.17 -2.15 -0.31 -2.34 -0.18 c -0.38 0.27 -1.02 1.11 -1.02 1.32 c 0 0.43 1.61 0.12 2.62 -0.5 m -23.82 -1.94 c -0.29 -0.32 -0.62 -0.59 -0.75 -0.59 c -0.3 0 -2.12 0.75 -2.02 0.84 c 0.04 0.04 0.46 -0.02 0.93 -0.11 c 0.82 -0.17 0.9 -0.16 1.55 0.2 c 0.38 0.21 0.71 0.35 0.75 0.32 c 0.03 -0.03 -0.17 -0.32 -0.46 -0.65 m 21.58 0.27 c 0.51 -0.28 0.64 -0.29 1.36 -0.13 c 0.44 0.1 0.84 0.14 0.89 0.09 c 0.1 -0.09 -1.57 -0.82 -1.89 -0.82 c -0.1 0 -0.42 0.21 -0.71 0.47 c -0.82 0.74 -0.65 0.94 0.34 0.39 m -0.64 -1.17 c -0.13 -0.2 -0.54 -0.15 -0.54 0.07 c 0 0.11 0.05 0.24 0.1 0.29 c 0.14 0.13 0.55 -0.2 0.44 -0.36 m -20.1 -0.96 c 0.59 -0.26 1.2 -0.96 1 -1.15 c -0.05 -0.05 -0.51 0.11 -1 0.36 c -0.5 0.25 -1.04 0.45 -1.19 0.45 c -0.59 0 -0.79 0.16 -0.61 0.47 c 0.2 0.35 0.82 0.3 1.8 -0.13 m 21.1 0.18 c 0.28 -0.32 0.06 -0.52 -0.56 -0.52 c -0.36 0 -0.58 0.08 -0.64 0.23 c -0.19 0.45 0.84 0.7 1.21 0.29 m -21.66 -1.38 c 0.74 -0.35 0.76 -0.52 0.1 -0.89 c -0.49 -0.28 -0.63 -0.3 -1.11 -0.15 c -0.3 0.09 -0.77 0.13 -1.03 0.07 c -0.57 -0.12 -0.61 0.09 -0.2 0.88 c 0.27 0.52 0.29 0.53 0.99 0.43 c 0.39 -0.05 0.96 -0.21 1.26 -0.35 m 22.8 -0.16 c 0.31 -0.61 0.26 -0.73 -0.29 -0.73 c -0.64 -0.01 -1.5 -0.44 -1.94 -0.08 c -0.29 0.24 -0.29 0.29 -0.08 0.68 c 0.32 0.48 0.74 0.51 1.26 0.64 c 0.43 0.14 0.81 -0.04 1.05 -0.52 m -19.65 -0.84 c 0.05 -0.52 -0.19 -0.63 -0.44 -0.19 c -0.25 0.44 -0.2 0.77 0.11 0.71 c 0.18 -0.03 0.29 -0.21 0.33 -0.52 m -1.55 -0.25 c -0.38 -0.37 -0.79 -0.49 -0.79 -0.23 c 0 0.08 0.2 0.31 0.43 0.51 c 0.57 0.49 0.89 0.24 0.36 -0.28 m 16.1 -0.01 c -0.24 -0.27 -0.96 -0.58 -0.93 -0.3 c 0.1 0.76 0.98 0.87 1.07 0.66 c 0.03 -0.08 -0.03 -0.24 -0.14 -0.36 m -18.73 -0.51 c 0.23 -0.34 -0.1 -0.71 -0.73 -0.81 c -0.35 -0.05 -0.66 -0.07 -0.68 -0.05 c -0.12 0.35 -0.16 0.63 -0.24 1 h 0.78 c 0.43 0 0.82 -0.07 0.88 -0.15 m 6.57 -0.92 c 0 -0.38 -1.16 0.18 -1.34 0.32 c -0.13 0.09 -0.19 0.3 -0.14 0.46 c 0.13 0.45 1.48 -0.27 1.48 -0.78 m 17.53 0.73 c 0 -0.58 -0.22 -0.74 -0.86 -0.63 c -1.09 0.19 -0.97 0.96 0.14 0.96 c 0.64 0 0.72 -0.04 0.71 -0.33 m -6.88 -0.5 c -0.16 -0.11 -0.86 -0.55 -1 -0.55 c -0.2 0.27 0.57 1.37 1.12 0.84 c 0.1 -0.06 0.05 -0.17 -0.13 -0.29 m -17.4 -0.91 c 0.05 -0.07 0.13 -0.4 0.19 -0.73 c 0.08 -0.48 0.05 -0.61 -0.13 -0.61 c -0.27 0 -0.98 1.11 -0.84 1.32 c 0.12 0.18 0.66 0.2 0.77 0.02 m 23.73 -0.02 c 0.11 -0.17 -0.64 -1.32 -0.87 -1.32 c -0.17 0 -0.2 0.63 -0.06 1.13 c 0.1 0.34 0.74 0.47 0.93 0.19" style="fill:#cc5122"/><path d="m 22.55 14.38 c -0.46 -0.17 -0.5 -0.31 -0.12 -0.43 c 0.38 -0.12 0.63 -0.79 0.54 -1.43 c -0.04 -0.3 -0.11 -0.57 -0.14 -0.61 c -0.04 -0.03 -0.29 -0.61 -0.59 -0.64 c -0.3 -0.04 -0.71 0.43 -0.88 0.38 c -0.18 -0.05 -0.39 0 -0.52 0.13 c -0.2 0.19 -0.95 -1.19 -0.6 -1.04 c 1.6 0.68 0.05 -1.69 0.66 -0.96 c 0.4 0.46 1.39 0.85 1.39 0.6 c 0 -0.84 -1.2 -2.06 -2.2 -2.25 c -0.52 -0.1 -0.59 -0.16 -0.71 -0.61 c -0.07 -0.27 -0.09 -0.54 -0.04 -0.59 c 0.05 -0.05 0.43 0.07 0.83 0.27 c 0.87 0.43 1.11 0.32 1.11 -0.46 c 0 -0.38 -0.07 -0.55 -0.25 -0.61 c -0.14 -0.04 -0.34 -0.1 -0.45 -0.13 c -0.35 -0.1 0.24 -0.63 0.61 -0.54 c 0.58 0.14 1.43 1.13 1.93 1.76 c 0.27 0.34 0.57 0.61 0.67 0.61 c 0.34 0 0.38 -0.64 0.08 -1.21 c -0.3 -0.58 -1.26 -3.33 0.09 -2.63 c 0.17 0.09 0.5 2.48 0.65 2.49 c 0.41 0.01 1.45 -0.62 1.8 -1.08 c 0.36 -0.48 0.61 -0.37 0.54 0.22 c -0.04 0.29 -0.31 0.58 -1.08 1.17 c -0.57 0.44 -1.03 0.88 -1.03 0.98 c 0 0.32 0.79 0.23 1.25 -0.14 c 0.44 -0.35 1.17 -0.69 1.43 -0.7 c 0.77 -0.03 -0.62 0.89 -0.87 1.14 c -0.39 0.39 0.56 0.92 0.7 1.14 c 0.1 0.15 -0.13 0.35 -0.95 -0.1 c -0.15 -0.08 -0.43 -0.34 -0.43 -0.66 c 0 -0.12 -0.06 -0.21 -0.14 -0.21 c -0.08 0 -0.14 0.09 -0.14 0.2 c -0.28 0.17 -0.54 0.36 -0.81 0.38 c -0.46 -0.17 -0.75 0.71 -0.52 1.55 c 0.11 0.38 0.76 0.32 0.78 -0.07 c 0.05 -0.99 -0.18 -0.94 0.25 -0.95 c 0.35 -0.01 0.43 0.05 0.51 0.38 c 0.05 0.21 -0.32 1.31 0.44 0.87 c 1.25 -0.72 0.43 0.69 -0.08 0.79 c -0.27 0.05 -0.43 0.16 -0.43 0.3 c 0 0.17 -0.09 0.2 -0.37 0.13 c -1.07 -0.25 -1.07 0.78 -0.54 2.41 c 0.17 0.52 -1.45 0.53 -2.4 0.17 m 0.81 -4.82 c -0.01 -0.84 -0.74 -1.89 -1.11 -2.21 c -0.78 -0.68 -0.95 0.03 -0.95 0.26 c 0 0.23 0.56 0.7 0.96 0.82 c 0.2 0.05 0.35 0.23 0.4 0.45 c 0.2 0.95 0.38 1.38 0.54 1.33 c 0.1 -0.03 0.16 -0.3 0.16 -0.65" style="fill:#218b21"/><path d="m 31.97 23.2 c 0 4.36 -3.62 7.9 -8.09 7.9 c -4.47 0 -8.09 -3.54 -8.09 -7.9 c 0 -4.36 3.62 -7.89 8.09 -7.89 c 4.47 0 8.09 3.54 8.09 7.89" style="fill:#d6c3b7"/><path d="m 26.1 19.36 c 2.24 -0.02 0.33 -3.8 2.7 -1.51 c 1.05 -0.66 -0.86 1.66 -0.5 1.71 c 0.36 0.05 1 -0.64 1.2 -0.57 c 0.21 0.07 0.47 0 0.68 -0.19 c 0.3 -0.28 0.8 1.79 0.43 1.56 c 0.18 0.94 -2.13 -0.42 -2.64 0.54 c -0.25 1.26 0.62 1.28 1.8 1.56 c 0.78 0.25 1.14 1.84 0.71 3.18 c -0.08 0.07 -0.45 0.32 -0.89 0.03 c -0.94 -0.64 -1.27 -0.49 -1.5 0.7 c -0.12 0.57 -0.08 0.82 0.13 0.9 c 0.15 0.06 0.38 0.15 0.51 0.2 c 0.39 0.15 -1.25 1.69 -1.68 1.55 c -2.67 -2.94 -0.63 2.76 -3.07 1.45 c -0.18 -0.13 -0.66 -1.92 -0.85 -1.92 c -0.5 -0.01 -1.16 -0.88 -1.73 -0.18 c -0.58 0.71 -0.86 0.55 -0.59 -0.34 c 0.49 -0.71 1.35 -0.93 1.33 -1.46 c -0.05 -1.58 0.07 -0.65 -1.65 -0.5 c -0.96 0.04 1.03 -1.33 1.41 -1.7 c 0.6 -0.58 -0.41 -1.39 -0.52 -1.72 c -0.07 -0.23 0.38 -1.09 1.25 -0.42 c 0.16 0.13 0.31 1.09 0.21 1.56 c -0.04 0.18 0.02 0.32 0.11 0.32 c 0.88 -0.61 2.77 4.62 2.89 1.53 c -0.01 -0.32 -0.98 -2.13 -0.36 -3.61 c 0.43 -1.04 -1 -1.25 -1.06 -1 c -0.24 2.46 -0.57 4.89 -1.11 0.85 c 0.3 -3 -3.23 -1.37 -0.72 -4.27 c 1.33 -1.32 3.59 -0.36 3.51 1.73 m 0.31 2.77 c -0.24 1.25 0.34 2.84 0.7 3.32 c 0.75 1.02 1.17 -0.04 1.24 -0.39 c 0.06 -0.34 -0.48 -1.05 -0.93 -1.22 c -0.22 -0.08 -0.36 -0.35 -0.35 -0.68 c 0.04 -1.43 -0.05 -2.07 -0.25 -2 c -0.13 0.05 -0.3 0.46 -0.39 0.97" style="fill:#7c8b88"/></svg>