<svg xmlns="http://www.w3.org/2000/svg" viewBox="0 0 48 48"><path d="m 15.28 47.1 c 67.6 8.34 11.57 -87.5 -13.26 -26.2 c -3.8 10.76 -0.5 22.89 13.26 26.2" style="fill:#3e4a79"/><path d="m 17.1 35.95 c -0.19 -0.14 -0.18 -0.19 0.21 -0.89 c 0.37 -0.7 0.82 -1.35 1.21 -2.03 c 1.43 0.23 2.35 0.58 3.26 0.59 c -0.03 0.97 0.24 2.57 0.1 3.53 c -1.62 0.26 -2.64 -0.15 -4.78 -1.2 m 7.69 0.87 c -0.13 -0.08 -0.14 -0.38 -0.07 -1.65 c 0.04 -0.85 0.11 -1.59 0.16 -1.64 c 0.05 -0.05 0.52 -0.19 1.05 -0.31 c 0.89 -0.15 1.7 -0.58 2.55 -0.82 c 0.35 0.35 0.49 0.78 0.82 1.18 c 0.25 0.22 0.91 1.36 0.91 1.56 c 0 0.4 -2.52 1.29 -4.9 1.72 c -0.21 0.04 -0.45 0.02 -0.53 -0.04 m -11.4 -3.53 c -0.86 -0.98 -1.43 -1.98 -1.25 -2.21 c 0.86 -0.36 1.77 -1.14 2.68 -1.25 c 0.56 0.56 0.95 1.02 1.5 1.64 c -0.27 0.41 -1.87 2.65 -1.99 2.67 c -0.11 0 -0.53 -0.38 -0.94 -0.85 m 17.38 -2.41 c 0 -0.11 0.17 -0.32 0.38 -0.46 c 0.75 -0.63 1.25 -1.26 1.9 -2 c 0.57 0.46 2.86 0.66 2.94 1.41 c 0 0.59 -2.66 3.74 -3.16 3.74 c -0.8 -0.62 -1.72 -1.78 -2.06 -2.68 m -9 -0.05 c -1.11 -0.21 -1.68 -0.45 -2.48 -1 c -1.16 -0.8 -1.11 -0.5 -1.11 -6.56 c 0 -4.81 0.02 -5.24 0.2 -5.67 c 0.25 -0.59 0.88 -1.16 1.55 -1.39 c 0.28 -0.1 0.57 -0.26 0.64 -0.35 c 0.17 -0.22 0.29 -1.57 0.13 -1.57 c -0.5 -0.21 -0.78 -0.69 -0.79 -1.09 c 0 -0.61 0.25 -0.89 1.04 -1.16 c 2 -0.69 5.96 -0.41 6.82 0.47 c 0.52 0.53 0.39 1.21 -0.3 1.65 c -0.39 0.25 -0.39 0.26 -0.32 0.8 c 0.12 0.88 0.13 0.89 0.99 1.3 c 0.91 0.43 1.39 0.92 1.57 1.6 c 0.07 0.27 0.11 2.3 0.11 5.42 c 0 4.73 -0.01 5 -0.21 5.46 c -0.43 0.94 -1.76 1.74 -3.47 2.09 c -1.1 0.22 -3.23 0.22 -4.36 0 m 3.35 -11.62 c 0.52 -0.36 0 -0.74 -1.02 -0.74 c -0.83 0 -1.35 0.18 -1.35 0.47 c 0 0.12 0.06 0.25 0.13 0.3 c 0.46 0.31 1.79 0.29 2.24 -0.02 m 0.27 -5.98 c 0.71 -0.25 -0.18 -0.46 -1.44 -0.47 c -0.69 -0.01 -0.75 -0.09 -1.35 0.28 c -0.36 0.22 1.13 0.77 2.79 0.2 m -14.1 15.2 c -0.18 -0.5 0.37 -2.75 0.71 -2.94 c 0.92 -0.04 1.09 0.07 1.98 0.25 c -0.09 0.46 0.34 2.07 -0.22 2.24 c -0.79 0.22 -1.51 0.57 -2.36 0.63 c -0.02 0 -0.07 -0.08 -0.11 -0.18 m 22.77 -2.33 c -0.05 -0.89 0.01 -1.8 -0.09 -2.7 c -0.03 -0.24 0.06 -0.31 0.79 -0.6 c 0.45 -0.18 0.97 -0.33 1.16 -0.34 c 0.77 0.32 0.93 1.23 1.17 2.17 c 0.21 0.86 0.23 2.3 0.04 2.38 c -1.05 -0.11 -2.16 -0.58 -3.07 -0.91 m -20.74 -2.87 c 0 -0.07 0.28 -0.43 0.63 -0.78 c 0.94 -0.96 0.93 -0.96 1.32 -0.75 c 0.18 0.1 0.33 0.27 0.33 0.38 c 0 0.25 -1.11 1.54 -1.32 1.52 c -0.35 -0.06 -0.74 -0.13 -0.97 -0.38 m 18.29 -3.39 c 0.16 -0.33 0.39 -0.52 0.65 -0.79 c 0.5 0.36 1.85 0.7 1.96 1.28 c -0.15 0.28 -0.41 0.71 -0.91 0.71 c -0.62 -0.12 -1.4 -0.66 -1.7 -1.2" style="fill:#fff"/></svg>