<svg xmlns="http://www.w3.org/2000/svg" viewBox="0 0 48 48"><path d="m 41.1 39.2 c 29.95 -42.56 -47.94 -56.1 -40.2 -10.88 c 4.1 17.98 28.2 27.94 40.2 10.88" style="fill:#a9a9a9"/><path d="m 10.49 14.21 h 27.55 v 19.3 h -27.55" style="fill:#c00"/><path d="m 11.55 15.33 h 25.42 v 17 h -25.42" style="fill:#fff"/><g style="fill:#949494"><path d="m 24.3 15.33 h 1.06 v 19.3 h -1.06"/><path d="m 23.2 15.33 h 1.05 v 20.43 h -1.05"/></g><path d="m 12.61 16.45 h 1.05 v 3.41 h -1.05"/><path d="m 14.73 16.45 h 7.41 v 1.13 h -7.41"/><path d="m 14.73 18.76 h 7.41 v 1.13 h -7.41"/><path d="m 12.61 21 h 9.54 v 1.13 h -9.54"/><path d="m 12.61 23.2 h 9.54 v 1.13 h -9.54"/><path d="m 12.61 25.54 h 9.54 v 1.13 h -9.54"/><path d="m 12.61 27.77 h 9.54 v 1.13 h -9.54"/><path d="m 12.61 30.1 h 9.54 v 1.13 h -9.54"/><path d="m 26.38 16.45 h 9.54 v 1.13 h -9.54"/><path d="m 26.38 18.76 h 9.54 v 1.13 h -9.54"/><path d="m 26.38 21 h 9.54 v 1.13 h -9.54"/><path d="m 26.38 23.2 h 9.54 v 1.13 h -9.54"/><path d="m 26.38 25.54 h 9.54 v 1.13 h -9.54"/><path d="m 26.38 27.77 h 9.54 v 1.13 h -9.54"/><path d="m 26.38 30.1 h 9.54 v 1.13 h -9.54"/></svg>