<svg xmlns="http://www.w3.org/2000/svg" viewBox="0 0 48 48"><path d="m 15.1 45.73 c 58.4 18 29.2 -78.8 -10.81 -33.54 c -8 9.1 -4.93 28.69 10.81 33.54" style="fill:#0094ef"/><g transform="matrix(0.187 0 0 0.187 162 -13.66)" style="fill:none;stroke:#fff;stroke-linecap:round"><path d="m -720.4 206.6 c 0 12.4 -10 22.48 -22.44 22.5 c -12.42 0.02 -22.5 -10 -22.56 -22.41 c -0.04 -12.4 9.95 -22.5 22.38 -22.58 c 12.4 -0.08 22.52 9.89 22.63 22.31" style="stroke-width:15"/><path d="m -778.1 171.4 c 14.26 -14.23 35.68 -18.51 54.3 -10.79 c 18.61 7.7 30.74 25.86 30.76 46 c -0.02 20.1 -12.15 38.3 -30.76 46 c -18.63 7.72 -40 3.44 -54.3 -10.79" style="stroke-width:15.33"/><path d="m -688.2 261.3 c -9.6 9.6 -21.54 16.49 -34.63 19.99" style="stroke-width:15.45"/><path d="m -791 219.5 c -2.26 -8.45 -2.26 -17.34 0 -25.79" style="stroke-width:15.33"/><g style="stroke-width:15.45"><path d="m -817.5 226.6 c -3.51 -13.1 -3.51 -26.9 0 -39.99"/><path d="m -722.9 132 c 13.1 3.53 25.1 10.41 34.63 20"/></g></g><path d="m 47.4 45.72 v -17.19 c 0 -0.95 -0.74 -1.71 -1.66 -1.71 h -12.6 c -0.92 0 -1.66 0.77 -1.66 1.71 v 17.19 c 0 0.95 0.74 1.72 1.66 1.72 h 12.6 c 0.92 0 1.66 -0.77 1.66 -1.72" style="fill-opacity:0.2"/><path d="m 47.4 45.3 v -17.2 c 0 -0.95 -0.74 -1.72 -1.66 -1.72 h -12.6 c -0.92 0 -1.66 0.77 -1.66 1.72 v 17.2 c 0 0.95 0.74 1.72 1.66 1.72 h 12.6 c 0.92 0 1.66 -0.77 1.66 -1.72" style="fill:#8e8e8e"/><path d="m 39.44 29.39 c -2.8 0 -5.06 2.3 -5.06 5.15 v 5.15 h 5.06 c 2.8 0 5.07 -2.31 5.07 -5.15 c 0 -2.85 -2.27 -5.15 -5.07 -5.15 m 0 2.94 c 1.2 0 2.17 0.99 2.17 2.21 c 0 1.22 -0.97 2.21 -2.17 2.21 c -1.2 0 -2.17 -0.99 -2.17 -2.21 c 0 -1.22 0.97 -2.21 2.17 -2.21" style="fill-opacity:0.5"/><path d="m 32.93 26.45 c -0.8 0 -1.45 0.66 -1.45 1.47 v 0.37 c 0 -0.81 0.64 -1.47 1.45 -1.47 h 13 c 0.8 0 1.45 0.66 1.45 1.47 v -0.37 c 0 -0.82 -0.64 -1.47 -1.45 -1.47" style="fill:#fff;fill-opacity:0.2"/><path d="m 41.67 25.55 c 0.16 0 0.4 -0.26 0.4 -0.57 v -5.95 h -5.18 v 5.95 c 0 0.31 0.23 0.57 0.4 0.57" style="fill:#b90c0c"/><path d="m 43.3 19.2 c 0.04 0 0.68 0 0.03 -0.77 l -3.43 -3.96 c -0.13 -0.15 -0.26 -0.22 -0.43 -0.23 c -0.17 0 -0.3 0.08 -0.43 0.23 l -3.43 3.96 c -0.64 0.77 0 0.77 0.03 0.77 h 3.83" style="fill:#ef2c2c;fill-rule:evenodd"/><g style="fill:#464646"><path d="m 34.2 28.49 c 0 0.49 -0.39 0.88 -0.88 0.88 c -0.49 0 -0.88 -0.39 -0.88 -0.88 c 0 -0.49 0.39 -0.88 0.88 -0.88 c 0.49 0 0.88 0.39 0.88 0.88"/><path d="m 46.63 28.63 c 0 0.49 -0.39 0.88 -0.88 0.88 c -0.49 0 -0.88 -0.39 -0.88 -0.88 c 0 -0.49 0.39 -0.88 0.88 -0.88 c 0.49 0 0.88 0.39 0.88 0.88"/><path d="m 46.4 45.3 c 0 0.49 -0.39 0.88 -0.88 0.88 c -0.49 0 -0.88 -0.39 -0.88 -0.88 c 0 -0.49 0.39 -0.88 0.88 -0.88 c 0.49 0 0.88 0.39 0.88 0.88"/><path d="m 34.3 45.4 c 0 0.49 -0.39 0.88 -0.88 0.88 c -0.49 0 -0.88 -0.39 -0.88 -0.88 c 0 -0.49 0.39 -0.88 0.88 -0.88 c 0.49 0 0.88 0.39 0.88 0.88"/></g></svg>