<svg xmlns="http://www.w3.org/2000/svg" viewBox="0 0 48 48"><path d="m 23 0.7 c 17.1 -2.81 29.93 6.08 22.82 23.59 c -4.87 12 -10.22 23.59 -22.82 23.59 c -12.6 0 -22.82 -10.57 -22.82 -23.59 c 0 -13 10.37 -21.54 22.82 -23.59" style="fill:#ffd600"/><path d="m 21.6 30.67 c 2.17 -1.35 5.11 -3.04 7.63 -5.65 c 5.42 -5.62 9.8 -13.56 8.71 -14.69 c -1.09 -1.13 -8.75 3.42 -14.16 9 c -2.52 2.61 -4.14 5.66 -5.45 7.91" style="fill:#3b87c2"/><path d="m 10.71 36.3 c 0 0 5.45 1.13 9.25 -2.83 c 1.64 -1.7 1.64 -3.95 1.64 -3.95 l -2.18 -2.26 c 0 0 -2.72 0.57 -3.81 1.7 c -1.09 1.13 -1.94 3.38 -2.22 4.47 c -0.52 2 -2.68 2.88 -2.68 2.88" style="fill:#c1694e"/><path d="m 24.2 28.79 l -3.98 -4.13 c -0.3 -0.31 -0.74 -0.26 -0.98 0.11 l -0.86 1.36 c -0.24 0.38 -0.21 0.91 0.07 1.2 l 3.18 3.29 c 0.27 0.29 0.79 0.32 1.16 0.07 l 1.31 -0.9 c 0.36 -0.25 0.41 -0.7 0.11 -1.01" style="fill:#ccd6dd"/><path d="m 19 34.3 c -0.92 0.61 -1.41 0.1 -1.24 -0.49 c 0.17 -0.6 -0.09 -1.32 -0.95 -1.13 c -0.86 0.19 -1.43 -0.28 -1.16 -1.41 c 0.27 -1.11 -0.84 -1.49 -1.35 -0.35 c -0.45 0.93 -0.79 1.88 -0.94 2.49 c -0.52 2 -2.68 2.87 -2.68 2.87 c 0 0 4.61 0.95 8.32 -1.98" style="fill:#9f031e"/></svg>