<svg xmlns="http://www.w3.org/2000/svg" viewBox="0 0 48 48"><path d="m 47.4 29.49 c -9.37 44.98 -73.86 -3.3 -35.1 -26.2 c 15 -9.81 39.94 3.04 35.1 26.2" style="fill:#b0c3de"/><path d="m 21.37 36.79 c -6.73 -1.1 -10.51 -5.76 -10.5 -12.93 c 0.01 -6.59 3.27 -10.92 9.47 -12.57 c 3.28 -0.47 6.61 -0.73 9.57 0.09 c 6.08 1.71 9.16 5.96 9.15 12.61 c 0 2.77 -0.35 4.5 -1.31 6.54 l -0.65 1.38 c 0.21 1.68 0.91 3.35 1 5 c -1.82 -0.43 -3.18 -0.87 -5.11 -1.44 l -1.65 0.53 c -0.91 0.29 -2.22 0.62 -2.93 0.74 c -2.34 0.09 -4.75 0.35 -7.1 0" style="fill:#4c6297"/><g style="fill:#dcdcdc"><path d="m 14.61 23.68 c 0.26 -0.26 0.91 -0.14 2.43 -0.14 c 0.61 0 1.06 -0.04 1.2 -0.11 c 0.3 -0.15 1.07 -1.21 1.67 -2.46 l 0.63 -1.32 c -0.21 1.22 0.14 3.43 -0.01 4.07 c -0.57 0.58 -0.75 0.73 -1.02 1.05 c -0.51 0.6 -1.64 0.28 -2.38 0.28 h -2.15 c -0.66 -0.24 -0.67 -1.05 -0.38 -1.36"/><path d="m 32.1 23.98 l 1.17 0.02 c 0.69 0.02 1.23 0.11 1.36 0.13 c 0.79 0.16 0.68 1.18 0.17 1.38 c -0.21 0.08 -2.57 0.14 -3.19 0.14 c 0.12 -0.26 0.49 -1.18 0.49 -1.67"/></g><path d="m 23.2 29.1 c -1.02 -0.17 -1.79 -0.79 -2.27 -1.8 c -0.25 -0.52 -0.25 -0.58 -0.36 -2.91 c -0.11 -2.57 -0.07 -4.97 0.08 -5.36 c 0.22 -0.55 1.08 -0.77 1.47 -0.39 c 0.28 0.28 0.29 0.41 0.38 4.34 c 0.09 3.93 0.09 3.89 0.84 4.24 c 0.53 0.24 0.73 0.23 1.32 -0.07 c 0.52 -0.26 0.6 -0.55 0.68 -2.45 c 0.07 -1.86 0.16 -2.14 0.84 -2.9 c 0.68 -0.76 1.95 -1.25 2.85 -1.12 c 1.02 0.15 2 0.76 2.45 1.5 c 0.3 0.5 0.55 1.35 0.63 2.05 c 0.12 1.18 -0.52 1.87 -1.41 1.53 c -0.38 -0.14 -0.52 -0.47 -0.6 -1.44 c -0.04 -0.5 -0.12 -0.99 -0.16 -1.1 c -0.05 -0.11 -0.27 -0.32 -0.5 -0.46 c -0.61 -0.39 -1.13 -0.35 -1.74 0.15 c -0.5 0.3 -0.33 0.95 -0.36 1.48 c -0.09 1.91 -0.19 2.57 -0.45 3.05 c -0.49 0.89 -1.3 1.48 -2.33 1.68 c -0.53 0.1 -0.74 0.1 -1.36 0" style="fill:#fff"/></svg>