<svg xmlns="http://www.w3.org/2000/svg" viewBox="0 0 48 48"><path d="m 24.45 0.25 c -4.95 0.38 -10.74 2.75 -14.77 6 c -4.91 4 -8.51 10.13 -9.47 16.2 c -1.15 7.98 3.48 16.55 8.72 20.63 c 2.63 1.98 6.11 3.56 9.37 4.25 c 8.5 1.79 17.36 -1.61 23.44 -8.99 c 3.64 -4.43 5.53 -8.89 5.99 -14.18 c 0.55 -6.33 -1.95 -13.1 -6.52 -17.7 c -5.2 -4.31 -10.56 -6.65 -16.73 -6.21" style="fill:#4f4f4f"/><g style="fill:#fff"><path d="m 19.44 34.1 c -1 -0.22 -3.32 -1 -4 -1.36 c -0.86 -0.44 -2.49 -1.7 -2.59 -2 c -0.04 -0.11 0.07 -0.18 0.29 -0.18 c 0.19 0 0.47 -0.09 0.63 -0.21 c 0.27 -0.19 0.29 -0.44 0.33 -3.6 c 0.03 -1.86 0 -3.87 -0.05 -4.45 c -0.09 -0.93 -0.14 -1.08 -0.45 -1.22 c -0.97 -0.44 -2.65 0.88 -4.59 3.62 c -0.64 0.91 -1.24 1.65 -1.32 1.65 c -0.24 0 0.02 -1.68 0.42 -2.75 c 0.75 -2 1.79 -3.48 3.98 -5.68 c 1.42 -1.42 3 -2.64 4.3 -3.3 c 0.98 -0.5 2.23 -0.92 2.32 -0.78 c 0.04 0.07 -0.18 0.41 -0.48 0.75 c -0.8 0.91 -1.08 1.52 -1.06 2.34 c 0.02 0.88 0.22 1.26 0.76 1.45 l 0.43 0.15 v 10.55 l 0.49 0.3 c 0.63 0.39 1.3 0.38 2.2 -0.04 c 1.23 -0.57 1.17 -0.27 1.13 -5.49 l -0.03 -4.63 l -0.44 -0.61 c -0.24 -0.33 -0.44 -0.66 -0.44 -0.73 c 0 -0.17 0.74 -0.15 1.27 0.03 c 0.41 0.14 0.52 0.09 1.7 -0.8 c 0.7 -0.52 1.89 -1.25 2.66 -1.62 c 1.34 -0.64 2.52 -0.97 2.52 -0.69 c 0 0.07 -0.59 0.94 -1.3 1.93 c -1.29 1.79 -1.29 1.8 -1.4 2.91 c -0.06 0.61 -0.11 2.84 -0.12 4.97 c -0.02 4.28 0 4.34 0.88 4.34 c 0.64 0 1.27 -0.27 2.21 -0.94 c 0.42 -0.3 0.8 -0.51 0.84 -0.46 c 0.14 0.14 -0.67 1.39 -1.66 2.55 c -1.07 1.26 -2.19 2.33 -2.99 2.88 c -0.64 0.44 -0.82 0.39 -2.05 -0.54 c -0.42 -0.32 -0.87 -0.58 -1 -0.58 c -0.12 0 -0.79 0.52 -1.48 1.16 c -0.69 0.64 -1.34 1.16 -1.43 1.14 c -0.1 -0.01 -0.31 -0.05 -0.47 -0.08"/><path d="m 30.3 34.39 l 0.07 2.9 l 2.86 -0.64 l 7 -8.96 l -2.94 -2.25 m 5.41 -0.88 c 0.29 -0.38 0.28 -0.86 -0.03 -1.1 l -1.84 -1.41 c -0.31 -0.24 -0.79 -0.14 -1.08 0.24 l -1.46 1.86 l 2.94 2.25"/></g><path d="m 30.34 37.3 l -0.07 -2.9 l 2.94 2.25" style="fill:#7f7f7f"/><path d="m 30.34 37.3 l -0.05 -1.2 l 1.2 0.94" style="fill:#fff"/></svg>