<svg xmlns="http://www.w3.org/2000/svg" viewBox="0 0 48 48"><path d="m 23.41 47.74 c -4.93 -0.39 -10.58 -2.75 -14.42 -6 c -4.68 -4 -7.92 -10.12 -8.52 -16.2 c -0.68 -7.98 4.46 -16.56 9.93 -20.63 c 2.74 -1.98 6.32 -3.56 9.62 -4.25 c 8.6 -1.8 17.27 1.61 22.91 8.99 c 3.38 4.43 5 8.89 5.15 14.18 c 0.18 6.33 -2.72 13.1 -7.57 17.7 c -5.45 4.31 -10.95 6.65 -17.1 6.21" style="fill:#dbe4ec"/><path d="m 15.1 11.35 h 18.49 c 2 0 3.65 1.38 3.65 3.07 v 19.86 c 0 1.69 -1.64 3.07 -3.65 3.07 h -18.49 c -2 0 -3.65 -1.38 -3.65 -3.07 v -19.86 c 0 -1.69 1.63 -3.07 3.65 -3.07" style="fill:#8bb9e6"/><path d="m 19.86 37.3 c -0.04 -1.32 0.22 -2.7 0.18 -4 c -1.45 0 -2.9 0 -4.35 0 l -0.06 2 c -0.06 1.98 0.19 2 -0.53 2 c -1.23 0 -2.17 -0.22 -3.05 -1.48 c -0.5 -0.71 -0.68 -2.39 -0.49 -2.69 c 0.06 -0.09 0.99 0.08 2.07 0.08 h 1.95 c 0 -1.43 0 -2.86 0 -4.29 c -1.35 -0.04 -2.04 0.02 -4.14 0.09 c 0 -1.43 0.1 -3.22 0.1 -4.66 c 1.35 -0.04 2.69 0.07 4 0.04 c 0 -1.43 0 -2.85 0 -4.27 c -1.35 -0.04 -2.69 -0.03 -4 -0.07 c 0 -1.36 -0.05 -3 -0.05 -4.4 c 1.35 -0.04 2.74 0.18 4.09 0.14 c 0.14 -0.93 -0.12 -4.29 0.25 -4.24 c 0.26 -0.26 3 -0.15 4 -0.18 c 0.29 0 0.27 0.75 0.27 2.41 v 2.04 c 0.93 -0.04 1.87 -0.08 2.8 -0.12 c 0.16 -0.87 -0.2 -3.6 0.37 -4.16 c 0.16 -0.13 2.17 -0.15 5.64 -0.06 c 4.97 0.13 5.92 -0.05 6.72 0.36 c 1.09 0.56 1.38 1.76 1.65 2.94 c 0.3 1.28 0.29 18.48 -0.01 19.56 c -0.3 1.09 -0.9 2.07 -1.8 2.58 c -1.13 0.64 -1.65 0.34 -6.66 0.42 c -3.21 0.01 -6 0.14 -8.98 0 m 3.08 -8.33 l -1.4 -0.06 l -1.4 -0.06 v 4.32 h 2.91 c -0.04 -1.4 -0.08 -2.8 -0.12 -4.2 m -2.95 -1.95 c -0.07 -2.84 0.83 -2.62 -1.53 -2.59 l -2.77 0.04 l -0.06 1.93 c -0.03 1.06 -0.01 2.05 0.05 2.21 c 0.09 0.21 0.59 0.27 2.24 0.22 l 2.13 -0.06 m 2.86 -8.69 c 0 -0.05 -1.15 -0.01 -1.72 -0.01 h -1.04 c 0 0.76 0 1.52 0 2.28 c 0.68 -0.73 2.16 -1.47 2.76 -2.27 m -2.74 -4.33 c -1.49 0.04 -2.98 0.08 -4.46 0.12 l -0.06 1.82 c -0.03 1 -0.06 2.21 0 2.36 c 1.17 0.15 2.54 -0.04 4.41 -0.09 c 0.04 -1.4 0.08 -2.81 0.12 -4.21" style="fill:#5b9cd9"/><g style="fill:#364662"><path d="m 22.99 11.32 h 2.8 v 25.95 h -2.8"/><path d="m 29.1 24.71 c 0 2.61 -2.11 4.73 -4.73 4.73 c -2.61 0 -4.73 -2.12 -4.73 -4.73 c 0 -2.61 2.12 -4.73 4.73 -4.73 c 2.61 0 4.73 2.12 4.73 4.73"/></g><g style="fill:#fff"><path d="m 25.78 22.2 c 0.3 0 2.46 2.29 2.46 2.61 c 0 0.33 -2.13 2.33 -2.45 2.33 c 0.04 -1.49 0 -3.36 -0.01 -4.93"/><path d="m 23 22.2 c -0.3 0 -2.46 2.28 -2.46 2.6 c 0 0.33 2.12 2.33 2.45 2.33 c -0.04 -1.49 0 -3.36 0.01 -4.93"/></g></svg>