<svg xmlns="http://www.w3.org/2000/svg" viewBox="0 0 48 48"><path d="m 7.25 9 c -29.95 42.57 47.94 56.1 40.2 10.88 c -4.09 -17.99 -28.2 -27.93 -40.2 -10.88" style="fill:#e6ecef"/><path d="m 10.45 38 c -0.2 -0.19 -0.18 -0.49 0.09 -1.3 c 0.38 -1.17 0.61 -3 0.61 -4.99 c 0 -1.95 -0.08 -2.51 -0.91 -6.1 c -0.22 -0.95 -0.4 -1.84 -0.4 -1.97 c 0 -0.16 0.36 -0.59 1.05 -1.23 c 1.13 -1.07 1.59 -1.81 1.98 -3.22 c 0.29 -1.05 0.29 -3.66 -0.01 -5.14 c -0.21 -1.01 -0.21 -1.13 -0.04 -1.29 c 0.2 -0.2 5.55 -1.97 5.95 -1.97 c 0.3 0 0.5 0.21 0.95 1.01 c 0.48 0.88 1.8 2.18 2.86 2.85 c 0.5 0.31 1.02 0.65 1.17 0.75 l 0.27 0.18 v 11.12 c 0 8.5 -0.04 11.16 -0.14 11.26 c -0.2 0.2 -13.2 0.2 -13.41 0 m 6.82 -1.22 c 0 -0.62 0.2 -0.92 0.59 -0.92 c 0.4 0 0.59 0.3 0.59 0.92 v 0.34 h 4.48 v -4.78 h -0.35 c -0.64 0 -0.95 -0.18 -0.95 -0.57 c 0 -0.38 0.31 -0.57 0.95 -0.57 h 0.35 v -15 l -0.86 -0.54 c -1.33 -0.84 -2.62 -2.15 -3.46 -3.52 c -0.11 -0.18 -0.29 -0.14 -2.36 0.52 c -1.23 0.39 -2.28 0.75 -2.32 0.79 c -0.05 0.04 -0.01 0.59 0.09 1.21 c 0.58 3.69 -0.29 6.73 -2.46 8.65 l -0.64 0.57 l 0.28 1.19 c 1.01 4.29 1.18 5.6 0.99 8.1 c -0.07 0.92 -0.23 2.16 -0.36 2.75 c -0.13 0.6 -0.23 1.12 -0.23 1.17 c 0 0.05 1.27 0.09 2.83 0.09 h 2.83 m 0.12 -2.45 c -0.07 -0.17 -0.12 -0.45 -0.12 -0.63 c 0 -0.18 0.05 -0.46 0.12 -0.63 c 0.1 -0.25 0.18 -0.29 0.5 -0.26 c 0.34 0.03 0.4 0.09 0.49 0.46 c 0.07 0.26 0.07 0.59 0 0.86 c -0.09 0.37 -0.16 0.43 -0.49 0.46 c -0.32 0.03 -0.4 -0.01 -0.5 -0.26 m -3.99 -2.45 c -0.22 -0.09 -0.27 -0.18 -0.24 -0.48 c 0.04 -0.32 0.09 -0.39 0.48 -0.48 c 0.27 -0.07 0.61 -0.07 0.89 0 c 0.39 0.09 0.45 0.15 0.48 0.47 c 0.03 0.31 -0.02 0.39 -0.27 0.48 c -0.38 0.14 -0.97 0.14 -1.34 0 m 2.83 0 c -0.22 -0.09 -0.27 -0.18 -0.23 -0.48 c 0.03 -0.32 0.09 -0.39 0.48 -0.48 c 0.27 -0.07 0.62 -0.07 0.89 0 c 0.39 0.09 0.45 0.15 0.48 0.47 c 0.03 0.31 -0.01 0.39 -0.27 0.48 c -0.38 0.14 -0.97 0.14 -1.34 0 m 2.83 0 c -0.22 -0.09 -0.27 -0.18 -0.23 -0.48 c 0.03 -0.32 0.09 -0.39 0.48 -0.48 c 0.27 -0.07 0.61 -0.07 0.88 0 c 0.39 0.09 0.45 0.15 0.48 0.47 c 0.03 0.31 -0.01 0.39 -0.27 0.48 c -0.38 0.14 -0.97 0.14 -1.34 0 m -1.67 -2.1 c -0.07 -0.16 -0.12 -0.45 -0.12 -0.63 c 0 -0.18 0.05 -0.46 0.12 -0.63 c 0.1 -0.25 0.18 -0.29 0.5 -0.27 c 0.34 0.03 0.4 0.09 0.49 0.46 c 0.07 0.26 0.07 0.59 0 0.85 c -0.09 0.38 -0.16 0.43 -0.49 0.46 c -0.32 0.03 -0.4 -0.02 -0.5 -0.27 m 0 -2.73 c -0.07 -0.16 -0.12 -0.45 -0.12 -0.63 c 0 -0.18 0.05 -0.46 0.12 -0.63 c 0.1 -0.25 0.18 -0.29 0.5 -0.27 c 0.34 0.03 0.4 0.09 0.49 0.46 c 0.07 0.26 0.07 0.59 0 0.85 c -0.09 0.37 -0.16 0.43 -0.49 0.46 c -0.32 0.03 -0.4 -0.02 -0.5 -0.27 m -5.41 -2.45 c -0.22 -0.09 -0.27 -0.18 -0.23 -0.48 c 0.03 -0.32 0.09 -0.38 0.48 -0.48 c 0.27 -0.06 0.61 -0.06 0.88 0 c 0.39 0.09 0.45 0.15 0.48 0.48 c 0.03 0.31 -0.01 0.39 -0.27 0.48 c -0.38 0.14 -0.97 0.14 -1.34 -0.01 m 2.83 0 c -0.22 -0.09 -0.27 -0.18 -0.23 -0.48 c 0.03 -0.32 0.09 -0.38 0.48 -0.48 c 0.27 -0.06 0.61 -0.06 0.88 0 c 0.39 0.09 0.45 0.15 0.48 0.48 c 0.03 0.31 -0.01 0.39 -0.27 0.48 c -0.38 0.14 -0.96 0.14 -1.34 -0.01 m 2.84 0 c -0.22 -0.09 -0.27 -0.18 -0.24 -0.48 c 0.04 -0.32 0.09 -0.38 0.48 -0.48 c 0.27 -0.06 0.61 -0.06 0.89 0 c 0.38 0.09 0.45 0.15 0.48 0.48 c 0.03 0.31 -0.01 0.39 -0.27 0.48 c -0.38 0.14 -0.96 0.14 -1.33 -0.01 m 2.83 0 c -0.22 -0.09 -0.27 -0.18 -0.24 -0.48 c 0.04 -0.32 0.09 -0.38 0.48 -0.48 c 0.27 -0.06 0.61 -0.06 0.89 0 c 0.39 0.09 0.45 0.15 0.48 0.48 c 0.03 0.31 -0.02 0.39 -0.27 0.48 c -0.38 0.14 -0.97 0.14 -1.34 -0.01 m -3.09 -2.1 c -0.07 -0.16 -0.12 -0.45 -0.12 -0.63 c 0 -0.18 0.05 -0.46 0.12 -0.63 c 0.1 -0.25 0.18 -0.29 0.5 -0.26 c 0.34 0.03 0.4 0.09 0.49 0.46 c 0.07 0.26 0.07 0.59 0 0.86 c -0.09 0.37 -0.16 0.43 -0.49 0.46 c -0.32 0.03 -0.4 -0.01 -0.5 -0.26 m 0 -2.73 c -0.07 -0.16 -0.12 -0.45 -0.12 -0.63 c 0 -0.18 0.05 -0.46 0.12 -0.63 c 0.1 -0.25 0.18 -0.29 0.5 -0.26 c 0.34 0.03 0.4 0.09 0.49 0.46 c 0.07 0.26 0.07 0.59 0 0.86 c -0.09 0.37 -0.16 0.43 -0.49 0.46 c -0.32 0.03 -0.4 -0.01 -0.5 -0.26 m 0 -2.73 c -0.07 -0.16 -0.12 -0.45 -0.12 -0.63 c 0 -0.18 0.05 -0.46 0.12 -0.63 c 0.1 -0.25 0.18 -0.29 0.5 -0.26 c 0.34 0.03 0.4 0.09 0.49 0.46 c 0.07 0.26 0.07 0.59 0 0.86 c -0.09 0.37 -0.16 0.43 -0.49 0.46 c -0.32 0.03 -0.4 -0.01 -0.5 -0.27 m 0 -2.73 c -0.07 -0.16 -0.12 -0.45 -0.12 -0.63 c 0 -0.18 0.05 -0.46 0.12 -0.63 c 0.1 -0.25 0.18 -0.29 0.5 -0.26 c 0.34 0.03 0.4 0.09 0.49 0.46 c 0.07 0.26 0.07 0.59 0 0.85 c -0.09 0.38 -0.16 0.43 -0.49 0.46 c -0.32 0.03 -0.4 -0.01 -0.5 -0.27 m 8.64 22.91 c -0.2 -0.2 -0.2 -5.91 0 -6.1 c 0.21 -0.2 11.79 -0.2 11.99 0 c 0.2 0.2 0.2 5.91 0 6.1 c -0.2 0.2 -11.79 0.2 -11.99 0 m 5.41 -1.22 c 0 -0.62 0.2 -0.92 0.59 -0.92 c 0.4 0 0.59 0.3 0.59 0.92 v 0.33 h 4.48 v -1.59 h -0.58 c -0.88 0 -1.19 -0.15 -1.19 -0.57 c 0 -0.42 0.32 -0.57 1.19 -0.57 h 0.58 v -1.59 h -4.45 l -0.11 0.37 c -0.1 0.32 -0.16 0.37 -0.52 0.37 c -0.35 0 -0.42 -0.05 -0.51 -0.37 l -0.11 -0.37 h -4.45 v 1.59 h 0.58 c 0.88 0 1.19 0.15 1.19 0.57 c 0 0.42 -0.31 0.57 -1.19 0.57 h -0.58 v 1.59 h 4.48 m -1.51 -1.71 c -0.22 -0.09 -0.27 -0.18 -0.23 -0.48 c 0.03 -0.32 0.09 -0.39 0.48 -0.48 c 0.27 -0.07 0.61 -0.07 0.88 0 c 0.39 0.09 0.45 0.15 0.48 0.48 c 0.03 0.31 -0.01 0.39 -0.27 0.48 c -0.38 0.14 -0.97 0.14 -1.34 0 m 2.83 0 c -0.22 -0.09 -0.27 -0.18 -0.23 -0.48 c 0.03 -0.32 0.09 -0.39 0.48 -0.48 c 0.27 -0.07 0.61 -0.07 0.88 0 c 0.39 0.09 0.45 0.15 0.48 0.48 c 0.03 0.31 -0.01 0.39 -0.27 0.48 c -0.38 0.14 -0.97 0.14 -1.34 0 m -5.84 -6.17 c -0.2 -0.32 -2.03 -13.15 -1.93 -13.53 c 0.04 -0.15 0.38 -0.48 0.75 -0.75 c 0.38 -0.26 1.18 -0.91 1.8 -1.45 c 0.69 -0.61 1.41 -1.13 1.89 -1.35 c 0.73 -0.35 0.84 -0.36 2.13 -0.36 c 1.29 0 1.4 0.02 2.13 0.36 c 0.47 0.22 1.2 0.74 1.89 1.35 c 0.61 0.54 1.42 1.2 1.8 1.45 c 0.38 0.26 0.71 0.6 0.75 0.75 c 0.11 0.38 -1.72 13.21 -1.93 13.53 l -0.16 0.26 h -8.96 m 8.31 -1.39 c 0.04 -0.2 0.44 -2.98 0.89 -6.18 l 0.83 -5.8 l -0.44 -0.34 c -0.24 -0.19 -0.86 -0.7 -1.37 -1.14 c -1.9 -1.63 -2.4 -1.88 -3.75 -1.88 c -1.35 0 -1.85 0.25 -3.75 1.88 c -0.51 0.44 -1.13 0.95 -1.37 1.14 l -0.44 0.34 l 0.83 5.8 c 0.45 3.19 0.86 5.97 0.89 6.18 l 0.06 0.37 h 7.54 m -4.24 -1.08 c -0.07 -0.17 -0.12 -0.45 -0.12 -0.63 c 0 -0.18 0.05 -0.46 0.12 -0.63 c 0.1 -0.25 0.18 -0.29 0.5 -0.26 c 0.34 0.03 0.4 0.09 0.49 0.46 c 0.07 0.26 0.07 0.59 0 0.86 c -0.09 0.37 -0.16 0.43 -0.49 0.46 c -0.32 0.03 -0.4 -0.01 -0.5 -0.26 m 0 -2.73 c -0.07 -0.16 -0.12 -0.45 -0.12 -0.63 c 0 -0.18 0.05 -0.46 0.12 -0.63 c 0.1 -0.25 0.18 -0.29 0.5 -0.26 c 0.34 0.03 0.4 0.09 0.49 0.46 c 0.07 0.26 0.07 0.59 0 0.85 c -0.09 0.38 -0.16 0.43 -0.49 0.46 c -0.32 0.03 -0.4 -0.01 -0.5 -0.27 m 0 -2.73 c -0.07 -0.16 -0.12 -0.45 -0.12 -0.63 c 0 -0.18 0.05 -0.46 0.12 -0.63 c 0.1 -0.25 0.18 -0.29 0.5 -0.27 c 0.34 0.03 0.4 0.09 0.49 0.46 c 0.07 0.26 0.07 0.59 0 0.85 c -0.09 0.38 -0.16 0.43 -0.49 0.46 c -0.32 0.03 -0.4 -0.02 -0.5 -0.27 m 0 -2.73 c -0.07 -0.16 -0.12 -0.45 -0.12 -0.63 c 0 -0.18 0.05 -0.46 0.12 -0.63 c 0.1 -0.25 0.18 -0.29 0.5 -0.27 c 0.34 0.03 0.4 0.09 0.49 0.46 c 0.07 0.26 0.07 0.59 0 0.85 c -0.09 0.37 -0.16 0.43 -0.49 0.46 c -0.32 0.03 -0.4 -0.01 -0.5 -0.26 m -3.98 -2.45 c -0.2 -0.07 -0.27 -0.2 -0.27 -0.45 c 0 -0.43 0.45 -0.64 1 -0.49 c 0.29 0.08 0.36 0.17 0.39 0.46 c 0.03 0.3 -0.02 0.38 -0.27 0.48 c -0.37 0.13 -0.5 0.13 -0.86 0 m 2.35 0 c -0.22 -0.09 -0.27 -0.18 -0.23 -0.48 c 0.03 -0.32 0.09 -0.38 0.48 -0.48 c 0.27 -0.06 0.61 -0.06 0.88 0 c 0.39 0.09 0.45 0.15 0.48 0.48 c 0.03 0.31 -0.01 0.39 -0.27 0.48 c -0.38 0.14 -0.97 0.14 -1.34 -0.01 m 2.83 0 c -0.22 -0.09 -0.27 -0.18 -0.23 -0.48 c 0.03 -0.32 0.09 -0.38 0.48 -0.48 c 0.27 -0.06 0.61 -0.06 0.88 0 c 0.39 0.09 0.45 0.15 0.48 0.48 c 0.03 0.31 -0.01 0.39 -0.27 0.48 c -0.38 0.14 -0.96 0.14 -1.34 -0.01 m 2.84 0 c -0.2 -0.07 -0.27 -0.2 -0.27 -0.45 c 0 -0.43 0.44 -0.64 1 -0.49 c 0.29 0.08 0.36 0.17 0.39 0.46 c 0.03 0.3 -0.02 0.38 -0.27 0.48 c -0.37 0.13 -0.5 0.13 -0.86 0 m -4 -1.65 c -0.07 -0.16 -0.12 -0.45 -0.12 -0.63 c 0 -0.18 0.05 -0.46 0.12 -0.63 c 0.1 -0.25 0.18 -0.29 0.5 -0.26 c 0.34 0.03 0.4 0.09 0.49 0.46 c 0.07 0.26 0.07 0.59 0 0.85 c -0.09 0.38 -0.16 0.43 -0.49 0.46 c -0.32 0.03 -0.4 -0.01 -0.5 -0.27"/></svg>