<svg xmlns="http://www.w3.org/2000/svg" viewBox="0 0 48 48"><path d="m 24.45 47.74 c -4.95 -0.39 -10.74 -2.75 -14.77 -6 c -4.91 -4 -8.51 -10.12 -9.47 -16.2 c -1.15 -7.98 3.48 -16.56 8.72 -20.63 c 2.63 -1.98 6.11 -3.56 9.37 -4.25 c 8.5 -1.8 17.36 1.61 23.44 8.99 c 3.64 4.43 5.53 8.89 5.99 14.18 c 0.55 6.33 -1.95 13.1 -6.52 17.7 c -5.2 4.31 -10.56 6.65 -16.73 6.21" style="fill:#ff8c00"/><path d="m 22.68 39.3 c -3.81 -0.46 -6.72 -1.82 -9.3 -4.31 c -3.9 -3.78 -5.43 -9.1 -4.13 -14.36 c 2.06 -8.34 10.69 -13.26 19 -10.85 c 3.8 1.1 7.22 3.87 9 7.3 c 1.26 2.39 1.79 4.5 1.78 7.13 c 0 4.19 -1.56 7.87 -4.57 10.78 c -2.23 2.17 -4.77 3.5 -7.72 4.06 c -1.13 0.21 -3.34 0.35 -4.13 0.25 m 0.9 -5.84 c 0.07 -0.09 0.18 -0.35 0.22 -0.57 c 0.05 -0.22 0.18 -0.72 0.3 -1.12 l 0.2 -0.71 l 1.18 0.09 c 2.35 0.18 3.61 -0.39 4.47 -2.06 c 0.44 -0.85 0.5 -1.09 0.5 -1.9 c 0 -1.05 -0.16 -1.44 -0.86 -2.11 l -0.47 -0.45 l 0.66 -0.59 c 0.69 -0.62 1.07 -1.46 1.07 -2.37 c 0 -1.27 -0.82 -2.34 -2.36 -3.11 c -0.69 -0.34 -0.98 -0.55 -0.93 -0.68 c 0.13 -0.34 0.48 -1.92 0.48 -2.19 c 0 -0.32 -0.71 -0.66 -1.4 -0.66 c -0.4 0 -0.48 0.05 -0.55 0.37 c -0.05 0.2 -0.19 0.73 -0.32 1.17 c -0.22 0.78 -0.24 0.8 -0.66 0.78 c -0.24 -0.01 -0.46 -0.05 -0.5 -0.08 c -0.04 -0.04 0.07 -0.58 0.23 -1.22 c 0.23 -0.89 0.26 -1.2 0.13 -1.34 c -0.23 -0.28 -1.45 -0.54 -1.67 -0.36 c -0.09 0.08 -0.29 0.63 -0.42 1.23 c -0.14 0.6 -0.33 1.12 -0.43 1.16 c -0.1 0.04 -0.83 -0.09 -1.62 -0.27 c -0.92 -0.22 -1.48 -0.3 -1.57 -0.21 c -0.16 0.16 -0.47 1.17 -0.47 1.56 c 0 0.25 0.13 0.33 0.73 0.51 c 0.75 0.22 1.14 0.48 1.14 0.78 c 0 0.09 -0.2 0.91 -0.45 1.83 c -0.25 0.92 -0.68 2.61 -0.95 3.77 c -0.27 1.15 -0.57 2.16 -0.67 2.24 c -0.13 0.1 -0.37 0.1 -0.87 -0.02 c -0.83 -0.19 -0.91 -0.14 -1.36 1 c -0.21 0.52 -0.27 0.82 -0.17 0.91 c 0.07 0.07 0.77 0.3 1.56 0.5 c 0.78 0.2 1.46 0.4 1.5 0.44 c 0.04 0.04 -0.04 0.54 -0.2 1.09 c -0.15 0.56 -0.27 1.14 -0.27 1.3 c 0 0.54 1.61 0.91 1.86 0.43 c 0.07 -0.13 0.23 -0.67 0.37 -1.2 c 0.23 -0.89 0.28 -0.97 0.59 -0.97 c 0.66 0 0.7 0.12 0.4 1.32 c -0.15 0.61 -0.26 1.21 -0.23 1.32 c 0.07 0.39 1.57 0.71 1.82 0.39 m -0.5 -5.29 c -1.18 -0.27 -1.15 -0.17 -0.58 -2.03 c 0.29 -0.93 0.45 -1.25 0.59 -1.21 c 0.11 0.03 0.64 0.17 1.19 0.31 c 1.77 0.45 2.43 0.94 2.43 1.8 c 0 0.29 -0.13 0.58 -0.39 0.87 c -0.36 0.4 -0.46 0.43 -1.31 0.46 c -0.51 0.02 -1.37 -0.07 -1.93 -0.2 m 1.3 -5.44 c -0.43 -0.09 -0.81 -0.2 -0.84 -0.23 c -0.07 -0.07 0.42 -2.63 0.52 -2.73 c 0.04 -0.04 0.45 0.04 0.92 0.16 c 2 0.55 2.63 1.24 2.06 2.33 c -0.33 0.64 -1.18 0.79 -2.66 0.46" style="fill:#fff"/></svg>