<svg xmlns="http://www.w3.org/2000/svg" viewBox="0 0 48 48"><path d="m 40.97 9 c 29.95 42.56 -47.94 56.1 -40.2 10.88 c 4.1 -17.98 28.2 -27.94 40.2 -10.88" style="fill:#f00"/><path d="m 20.33 42.2 c -0.13 -0.18 -0.41 -0.81 -0.62 -1.4 c -0.25 -1.57 -0.63 -1.13 -1.67 -1.41 c -1.46 -0.39 -1.66 -0.56 -1.79 -1.43 c -0.14 -0.94 -0.32 -1.04 -1.94 -1.04 c -0.92 0 -1.44 -0.05 -1.54 -0.15 c -0.08 -0.08 -0.15 -0.47 -0.15 -0.86 c 0 -1.08 0.24 -3.24 0.4 -3.53 c 0.07 -0.14 1.77 -1.95 3.78 -4 c 3.43 -3.53 4.46 -4.71 4.28 -4.89 c -0.13 -0.13 -0.92 0.55 -3.16 2.71 c -3.38 3.27 -4.09 3.8 -6.85 5.21 c -2.34 1.18 -4.06 1.92 -4.39 1.87 c -0.35 -0.05 -0.53 -0.45 -0.9 -1.98 c -0.38 -1.58 0.83 -1.89 -1.21 -2.79 c -0.47 -0.21 -0.57 -0.82 -0.57 -0.92 c 0 -0.1 0.3 -0.6 0.68 -1.12 c 0.76 -1.05 0.82 -1.4 0.49 -2.65 c -0.32 -1.2 -0.27 -1.47 0.43 -2.19 c 0.53 -0.47 0.65 -0.55 0.43 -1.17 c -0.11 -0.3 -0.19 -0.88 -0.19 -1.28 c 0 -0.87 0.16 -1.06 1.52 -1.88 c 0.46 -0.28 1.46 -0.27 1.52 -0.41 c 0.05 -0.14 -0.4 -1.02 -0.32 -1.51 c 0.17 -1.12 0.36 -1.31 2.07 -2.12 c 1.25 -0.59 1.29 -0.62 1.85 -1.48 c 0.66 -1.02 0.79 -1.06 2.17 -0.77 l 0.86 0.18 l 0.78 -0.74 c 0.91 -0.86 1.09 -0.89 2.26 -0.41 c 0.68 0.28 0.61 1.03 1.53 0.24 c 1.09 -0.94 1.45 -0.17 1.56 0.25 c 0.36 1.29 0.63 3.2 0.9 6.3 c 0.3 3.47 0.45 4.41 0.68 4.56 c 0.46 0.28 1.48 -0.93 1.84 -2.17 c 0.13 -0.46 0.38 -1.51 0.55 -2.34 c 0.55 -2.61 1.21 -4 2.89 -6.13 c 0.89 -1.13 1 -1.17 1.84 -0.79 l 0.52 0.24 c 0.56 -0.29 1.14 -0.91 1.77 -0.96 c 0.49 0.26 0.7 0.77 0.99 1.24 c 0.29 0.46 0.37 0.51 1.36 0.77 c 0.93 0.24 2.4 0.79 2.56 0.95 c 0.07 0.07 0.21 0.5 0.33 0.97 c 0.19 0.8 0.23 0.85 0.63 0.95 c 1.51 0.37 1.44 0.3 1.54 1.51 c 0.13 1.47 0.14 1.51 0.62 1.68 c 0.88 0.32 2.04 0.92 2.1 1.09 c 0.04 0.09 -0.14 0.65 -0.38 1.25 c -0.61 1.12 -0.32 1.62 0.36 2.42 c 0.44 0.51 0.79 1 0.79 1.09 c 0 0.09 -0.22 0.61 -0.49 1.15 c -0.57 0.91 -0.49 1.34 0.04 2.07 c 0.88 1.2 0.88 1.18 0.45 2.04 c -0.31 0.63 -0.38 0.89 -0.38 1.64 c 0 0.89 0 0.89 -0.59 1.54 c -1.84 0.34 -0.66 0.89 -1.12 2.2 c -0.56 1.64 -0.95 2.36 -1.25 2.36 c -0.1 0 -0.67 -0.33 -1.26 -0.73 c -0.77 -0.53 -1.3 -0.79 -1.9 -0.94 c -0.98 -0.25 -0.93 -0.21 -4.48 -3.33 c -3.04 -2.67 -3.35 -3 -4.84 -5.11 c -1.4 -1.98 -2.77 -3.73 -2.91 -3.73 c -0.2 0 -0.12 0.5 0.19 1.11 c 0.16 0.33 0.81 1.27 1.44 2.09 c 1.59 2.07 2.28 3.24 4.2 7.1 c 0.26 1.05 2.11 2.8 1.4 3.68 c -0.65 0.81 -0.83 1.19 -1.05 2.28 c -0.31 1.54 -0.34 1.57 -1.64 1.37 c -1.52 -0.23 -2.04 -0.11 -2.85 0.64 l -0.67 0.61 h -1.16 l -1.51 -0.79 l -0.88 1.48 c -0.39 0.67 -1.34 0.68 -1.47 0.68 c -0.14 0 -0.36 -0.16 -0.49 -0.34" style="fill:#007f7f"/><g style="fill:#fff"><path d="m 28.69 38.51 c -0.1 -0.07 -0.47 -0.39 -0.82 -0.71 c -0.64 -0.59 -0.98 -0.78 -1.04 -0.59 c -0.05 0.14 -0.52 0.67 -0.68 0.76 c -0.11 0.06 -0.17 0.05 -0.25 -0.03 c -0.15 -0.16 -0.07 -0.46 0.29 -1.08 c 0.27 -0.46 0.3 -0.57 0.33 -1.09 c 0.01 -0.32 0 -0.7 -0.02 -0.84 c -0.05 -0.26 -0.09 -0.29 -0.57 -0.37 c -0.38 -0.07 -0.46 -0.26 -0.27 -0.62 c 0.28 -0.55 0.14 -1.79 -0.28 -2.37 c -0.12 -0.17 -0.44 -0.7 -0.71 -1.16 c -0.51 -0.9 -1.39 -1.96 -1.64 -1.96 c -0.08 0 -0.17 0.11 -0.24 0.27 c -0.18 0.45 -0.62 2.81 -0.58 3.09 c 0.02 0.14 0.18 0.51 0.36 0.82 c 0.39 0.68 0.47 1.05 0.3 1.24 c -0.16 0.17 -0.25 0.13 -0.46 -0.2 c -0.18 -0.28 -0.32 -0.34 -0.41 -0.19 c -0.03 0.05 -0.08 0.53 -0.12 1.07 c -0.04 0.54 -0.1 1.11 -0.14 1.27 c -0.08 0.3 -0.27 0.44 -0.52 0.37 c -0.12 -0.03 -0.13 -0.14 -0.13 -1.18 c 0 -0.63 -0.02 -1.2 -0.04 -1.26 c -0.14 -0.38 -0.64 0.05 -1.47 1.28 c -0.26 0.38 -1.55 1.97 -1.57 1.93 c -0.45 -0.72 0.98 -2.13 1.09 -2.4 c 0.06 -0.14 0.54 -0.72 1.05 -1.27 c 0.52 -0.56 0.99 -1.13 1.05 -1.26 c 0.05 -0.13 0.12 -0.46 0.14 -0.72 c 0.06 -0.55 0.25 -1.52 0.46 -2.27 c 0.12 -0.41 0.13 -0.52 0.05 -0.55 c -0.16 -0.07 -0.69 0.12 -0.99 0.34 c -0.34 0.26 -3.05 2.57 -3.32 2.53 c -0.79 -0.13 2.31 -2.85 3.37 -3.47 c 0.73 -0.43 1.14 -0.81 1.3 -1.2 c 0.15 -0.37 0.36 -1.51 0.51 -2.69 c 0.18 -1.43 0.17 -1.93 0.59 -1.93 c 0.2 0 0.32 0.65 0.32 0.69 c 0 0.13 -0.36 3.09 -0.44 3.64 c -0.05 0.37 -0.05 0.59 0 0.73 c 0.04 0.11 0.38 0.55 0.75 0.96 c 1.43 1.63 2.15 2.64 2.15 3.04 c 0 0.35 0.38 1.16 0.66 1.4 c 0.25 0.22 0.37 0.21 0.8 -0.09 c 0.33 -0.23 0.43 -0.17 0.6 0.36 c 0.13 0.39 0.28 0.54 0.75 0.68 c 0.16 0.05 0.36 0.16 0.45 0.23 c 0.2 0.19 0.19 0.48 -0.01 0.59 c -0.24 0.13 -0.96 0.02 -1.49 -0.23 c -0.82 -0.39 -0.91 -0.32 -0.8 0.64 c 0.09 0.74 0.27 1.1 1.04 2 c 0.34 0.41 0.72 0.92 0.84 1.13 c 0.33 0.58 0.2 0.96 -0.22 0.66"/><path d="m 8 31.64 c -0.23 -0.6 0.45 -2.41 1.21 -3.25 c 0.68 -0.75 3.18 -2.85 3.67 -3.07 c 0.16 -0.08 0.26 -0.31 0.2 -0.48 c -0.02 -0.06 -0.12 -0.1 -0.26 -0.1 c -0.27 0 -3 0.54 -3.56 0.7 c -0.44 0.13 -1.01 0.54 -1.49 1.07 c -0.55 0.61 -0.52 0.94 0.08 1.14 c 0.4 0.13 0.66 0.35 0.62 0.54 c -0.03 0.18 -0.4 0.19 -0.78 0.03 c -0.28 -0.13 -0.58 -0.13 -0.86 -0.21 c -0.16 -0.09 -0.32 -0.41 -0.32 -0.64 c 0 -0.33 0.44 -1 1.04 -1.58 c 1.15 -1.12 1.2 -1.17 1.24 -1.43 c 0.11 -0.6 -0.55 -1.52 0.78 -0.15 c 0.59 0.48 2.35 0.1 3.27 -0.09 c 0.93 -0.16 1.96 -0.41 2.64 -0.75 c 1.46 -0.74 3.59 -1.5 4.65 -1.66 c 0.34 -0.05 0.65 -0.11 0.69 -0.14 c 0.09 -0.06 -0.08 -0.36 -0.38 -0.64 c -0.4 -0.38 -0.93 -0.72 -1.32 -0.83 c -0.37 -0.11 -3.36 -0.1 -3.42 -0.44 c -0.11 -0.54 2.34 -0.65 3.54 -0.37 c 0.09 0.02 0.42 0.25 0.73 0.51 c 0.6 0.49 1.33 0.94 1.52 0.94 c 0.09 0 0.11 -0.04 0.07 -0.21 c -0.19 -0.86 -1.11 -3.53 -1.52 -4.36 c -0.38 -0.77 -0.92 -1.27 -1.25 -1.14 c -0.3 0.36 -0.3 1.31 -0.71 1.31 c -0.48 0 -0.57 -0.44 -0.23 -1.26 c 0.25 -0.61 0.66 -1.08 0.94 -1.08 c 0.42 0 1.04 0.53 1.53 1.3 c 0.71 1.12 1.74 3.74 1.74 4.41 c 0 0.39 0.16 1.19 0.32 1.63 c 0.08 0.2 0.13 0.38 0.11 0.39 c -1.23 1.52 -1.23 0.25 -1.66 0.52 c -0.83 0.34 -1.78 0.45 -2.46 0.7 c -0.39 0.14 -0.82 0.29 -0.96 0.33 c -0.54 0.14 -2.59 1.45 -4.19 2.67 c -1.84 1.41 -3.79 3.2 -4.12 3.77 c -0.09 0.15 -0.18 0.41 -0.2 0.57 c -0.09 0.57 -0.57 1.47 -0.79 1.47 c -0.05 0 -0.11 -0.05 -0.13 -0.11"/><path d="m 39.86 33.74 c -0.61 -0.84 -0.67 -1.03 -0.88 -1.8 c 0.08 -0.79 0.04 -1.09 -0.16 -1.16 c -0.14 -0.05 -0.48 0.22 -0.63 0.51 c -0.27 0.53 -0.12 1.11 0.46 1.79 c 0.41 0.42 0.06 0.33 -0.27 0.28 c -0.54 -0.07 -0.57 -0.1 -0.92 -0.76 c -0.3 -0.57 -0.27 -0.99 0.11 -1.5 c 0.34 -0.45 0.75 -1.34 0.75 -1.61 c 0 -0.65 -0.43 -1.11 -1.82 -1.95 c -1.2 -0.72 -1.82 -1.17 -2.66 -1.9 c -1.04 -0.99 -2.47 -1.57 -3.63 -2.03 c -0.83 -0.33 -2.75 -0.77 -3.98 -0.92 c -0.95 -0.68 -1.94 -0.64 -1.69 -1.14 c 0.18 -0.37 1.29 -0.27 1.39 -0.86 c 0.08 -0.45 0.1 -0.48 0.54 -0.94 c 0.55 -0.58 0.78 -0.89 1.39 -1.93 c 0.63 -1.08 1.02 -2 1.18 -2.77 c 0.07 -0.37 0.24 -0.88 0.39 -1.21 c 0.23 -0.52 0.27 -0.66 0.33 -1.44 c 0.08 -0.95 0.18 -1.3 0.38 -1.3 c 0.25 0 0.38 0.25 0.36 0.71 c -0.02 0.55 0.06 0.56 0.6 0.03 c 0.36 -0.49 1.12 -0.96 1.16 -0.25 l -0.5 0.6 c -1.09 1.29 -1.96 2.58 -1.84 2.7 c 0.09 0.09 0.71 -0.3 1.53 -0.96 c 0.44 -0.35 1.02 -0.79 1.31 -0.96 c 0.44 -0.27 0.54 -0.31 0.64 -0.25 c 0.07 0.04 0.13 0.1 0.13 0.12 c 0 0.05 -1.46 1.44 -2.04 1.95 c -0.24 0.2 -0.68 0.55 -0.99 0.77 c -0.77 0.55 -1.02 0.85 -1.54 1.86 c -0.4 0.76 -0.74 1.32 -1.55 2.52 c -0.24 0.36 -0.22 0.45 0.07 0.45 c 0.28 0 1.19 -0.5 2.52 -1.39 c 1.63 -1.62 2.32 -3.11 3.88 -4.54 c 0.43 -0.38 0.97 -0.29 1.93 -0.54 c 0.77 -0.2 1.09 -0.16 1.09 0.15 c 0 0.08 0.05 0.24 0.13 0.36 c 0.25 0.38 -0.23 0.29 -0.45 0.29 c -0.72 0 -2.3 0.3 -2.68 0.52 c -0.9 0.74 -1.36 1.81 -1.99 2.75 c -0.16 0.23 -0.29 0.44 -0.29 0.46 c 0 0.05 1.16 -0.02 2.11 -0.12 c 0.76 -0.08 1.09 -0.23 1.45 -0.66 c 0.56 -0.67 1.58 -1.3 2.26 -1.38 c 1.49 -0.67 1.78 -0.36 1.04 0.85 h -0.68 c -0.62 0 -0.71 0.02 -1.07 0.2 c -0.5 0.26 -1.11 0.87 -1.05 1.06 c 0.09 0.26 1.89 0.88 2.58 0.88 c 0.18 0 0.59 -0.05 0.92 -0.11 c 0.63 -0.11 1.13 -0.08 1.33 0.07 c 0.17 0.13 0.08 0.2 -0.48 0.36 c -0.73 0.22 -0.95 0.59 -0.56 0.96 c 0.24 0.23 0.32 0.5 0.18 0.64 c -0.13 0.13 -0.28 0.06 -0.77 -0.34 c -0.67 -0.56 -2.68 -1.4 -3.89 -1.62 c -0.88 -0.16 -2.67 -0.09 -3.59 0.14 c -0.48 0.12 -1.13 0.43 -2.18 1.03 c -0.43 0.25 -1.13 0.61 -1.55 0.8 c -0.98 0.45 -0.98 0.44 -0.88 0.59 c 0.16 0.27 0.49 0.38 1.17 0.41 c 0.82 0.03 1.22 -0.06 1.78 -0.39 c 0.46 -0.28 0.64 -0.32 0.77 -0.17 c 0.1 0.12 0.02 0.27 -0.29 0.59 c -0.39 0.4 -0.29 0.63 0.36 0.76 c 0.2 0.04 0.89 0.31 1.52 0.6 c 0.93 0.42 1.21 0.52 1.48 0.52 c 0.38 0 1.77 -0.39 2.61 -0.74 c 0.77 -0.32 1.01 -0.34 1.85 -0.13 c 0.8 0.2 1.44 0.22 2.86 0.09 c 0.97 -0.09 1.11 -0.06 1.15 0.2 c 0.02 0.15 -0.13 0.28 -0.88 0.73 c -0.77 0.46 -0.67 0.45 -1.36 0.23 c -0.98 -0.31 -1.34 -0.37 -2.36 -0.37 c -1.04 0 -1.8 0.14 -2.49 0.46 c -0.32 0.15 -0.35 0.18 -0.35 0.39 c 0 0.2 0.06 0.29 0.41 0.62 c 0.59 0.56 1.27 1.03 1.73 1.2 c 0.22 0.08 0.59 0.24 0.82 0.35 c 0.53 0.26 0.67 0.26 1.3 0.01 c 0.95 -0.37 1.52 -0.41 1.69 -0.11 c 0.1 0.16 -0.13 0.34 -0.66 0.51 c -0.52 0.16 -0.95 0.38 -0.96 0.49 c -0.02 0.28 0.07 0.61 0.47 1.68 c 0.27 0.72 0.48 1.41 0.52 1.7 c 0.61 2.15 0.16 4.11 -0.04 2.33"/><path d="m 7.98 19.73 c -0.07 -0.24 0.02 -0.44 0.28 -0.61 c 0.13 -0.09 0.44 -0.33 0.69 -0.55 c 0.69 -0.59 0.77 -0.62 1.84 -0.68 c 0.81 -0.05 0.97 -0.08 1.05 -0.2 c 0.12 -0.18 0.06 -0.54 -0.13 -0.77 c -0.62 -0.37 -1.11 -0.43 -1.77 -0.51 c -0.69 -0.44 -0.5 -0.96 0.26 -0.84 c 0.41 0.02 1.18 0.5 1.4 0.16 c 0.11 -0.58 -0.12 -1.26 0.2 -1.64 c 0 -0.04 0.56 0.39 0.66 0.43 c 0.13 0.05 0.32 0.02 0.76 -0.13 c 0.89 -0.3 1.12 -0.45 1.12 -0.71 c 0 -0.27 -0.18 -0.84 -0.33 -1 c -0.52 -1.18 0.42 -0.68 0.57 -0.42 c 0.21 0.36 0.47 1.09 0.47 1.3 c 0 0.31 0.24 0.53 1.08 0.96 c 0.64 0.33 0.81 0.46 0.83 0.59 c 0.02 0.13 -0.03 0.2 -0.17 0.27 c -0.16 0.08 -0.26 0.07 -0.64 -0.08 c -0.83 -0.32 -2.48 -0.35 -3 -0.05 c -0.49 0.27 -0.94 0.83 -1.08 1.34 c -0.05 0.21 -0.03 0.27 0.25 0.63 c 0.32 0.41 0.59 1.09 0.51 1.31 c -0.08 0.22 -0.41 0.23 -1.38 0.06 c -1.12 -0.21 -1.14 -0.2 -2.04 0.55 c -0.9 0.75 -1.34 0.93 -1.44 0.59"/><path d="m 8.71 22.64 c -0.14 -0.09 -1.02 -0.3 -0.64 -0.53 c 0.2 -0.13 1.68 -0.41 2.12 -0.41 c 0.63 0 0.64 0.18 0.06 0.63 c -0.41 0.32 -1.43 0.38 -1.54 0.31"/><path d="m 11.32 21.68 c -0.15 -0.16 0.2 -0.34 0.34 -0.54 c 0.13 -0.18 0.49 -0.21 0.69 -0.06 c 0.17 0.13 0.16 0.21 -0.06 0.47 c -0.21 0.25 -0.8 0.33 -0.97 0.14"/><path d="m 13 21.1 c -0.25 -0.26 0.39 -0.89 0.91 -0.89 c 0.15 0 0.79 -0.54 0.79 0.04 c 0 0.24 -0.89 0.68 -1.31 0.82 c -0.28 0.09 -0.32 0.1 -0.38 0.04"/><path d="m 30.44 26.1 c 0.05 -0.19 -0.02 -1.25 0.38 -0.9 c 0.21 0.18 0.55 1.3 1.18 2.24 c 0.41 0.61 0.01 0.79 -0.68 0.29 c -0.49 -0.36 -0.91 -1.48 -0.87 -1.63"/></g></svg>