<svg xmlns="http://www.w3.org/2000/svg" viewBox="0 0 48 48"><path d="m 41.1 9 c 29.95 42.56 -47.94 56.1 -40.2 10.88 c 4.1 -17.98 28.2 -27.94 40.2 -10.88" style="fill:#f4f4f4"/><path d="m 10.93 29.3 c -0.16 -0.33 1.07 -5.26 1.37 -5.51 c 0.37 -0.3 1.14 -0.23 1.25 0.13 c 0.05 0.18 -0.2 1.48 -0.56 2.9 c -0.64 2.5 -0.68 2.58 -1.29 2.66 c -0.35 0.04 -0.69 -0.04 -0.76 -0.18 m 25.99 -0.05 c -0.07 -0.16 0.49 -1.46 1.25 -2.9 l 1.39 -2.62 l 1.45 -0.04 c 0.89 -0.02 1.52 0.08 1.63 0.26 c 0.16 0.25 0.64 4.06 0.64 5 c 0 0.52 -1.36 0.41 -1.59 -0.13 c -0.18 -0.42 -0.28 -0.86 -0.63 0.13 c -0.21 0.61 -0.62 0.58 -2.22 0.58 c -1.08 0 -1.85 -0.11 -1.93 -0.28 m 4.61 -1.88 c 0.11 -0.35 -0.01 -2.28 -0.18 -2.96 c -0.07 -0.28 -0.15 -0.29 -0.38 -0.04 c -0.5 0.53 -1.36 2.6 -1.24 2.99 c 0.15 0.49 1.66 0.5 1.8 0.02 m -35.65 1.32 c -0.11 -0.65 -0.52 -6 -0.52 -6.7 c 0 -0.33 0.16 -0.45 0.59 -0.45 c 0.33 0 0.64 0.09 0.7 0.21 c 0.06 0.12 0.2 1.25 0.33 2.52 c 0.12 1.27 0.3 2.4 0.4 2.53 c 0.1 0.13 0.46 -0.3 0.85 -1 c 0.37 -0.68 1.05 -1.91 1.52 -2.73 l 0.85 -1.5 h 1.72 c 0.21 0 -0.13 0.43 0.47 -0.04 c 0.44 -0.34 1.21 0.04 1.25 0.49 c 0.08 0.93 -1.46 1.55 -1.56 0.54 c -0.08 -0.88 -0.21 -0.48 -0.33 -0.43 c -0.12 0.05 -1.07 1.68 -2.11 3.62 l -1.89 3.53 h -1.09 c -0.97 0 -1.1 -0.07 -1.19 -0.58 m 7.69 0.39 c -0.05 -0.11 -0.01 -0.45 0.08 -0.77 c 0.16 -0.53 0.3 -0.58 1.64 -0.58 c 1.6 0 2.1 -0.23 1.91 -0.88 c -0.08 -0.27 -0.37 -0.41 -0.82 -0.41 c -1.31 0 -2.28 -1.03 -2.1 -2.22 c 0.1 -0.7 1 -0.77 1.47 -0.11 c 0.27 0.38 0.63 0.53 1.26 0.53 c 1.79 0 2.52 2.23 1.25 3.85 c -0.61 0.78 -0.66 0.79 -2.61 0.79 c -1.09 0 -2.03 -0.09 -2.08 -0.2 m 5.53 -0.52 c 0.01 -0.39 0.26 -1.64 0.55 -2.77 c 0.49 -1.89 0.59 -2.07 1.12 -2.15 c 0.32 -0.05 0.66 0.02 0.76 0.15 c 0.17 0.21 -0.61 4.54 -0.93 5.21 c -0.07 0.15 -0.44 0.27 -0.82 0.27 c -0.63 0 -0.69 -0.07 -0.68 -0.71 m 2.41 0.26 c 0.01 -0.85 1.6 -7.11 1.86 -7.32 c 0.36 -0.29 3.66 -0.27 4.27 0.03 c 1.05 0.51 0.88 2.9 -0.38 5.33 c -0.95 1.84 -1.93 2.42 -4.1 2.42 c -1.44 0 -1.65 -0.06 -1.65 -0.45 m 3.64 -1.97 c 0.77 -0.66 1.53 -2.45 1.33 -3.11 c -0.15 -0.5 -1.84 -0.56 -2.09 -0.08 c -0.2 0.41 -0.86 3.05 -0.87 3.48 c 0 0.53 0.86 0.37 1.63 -0.3 m 1.6 2.22 c 0 -0.32 2.59 -5 2.88 -5.24 c 0.27 -0.19 2.89 -0.15 3.05 0.05 c 0.11 0.14 0.53 3.91 0.53 4.78 c 0 0.52 -0.1 0.63 -0.58 0.63 c -0.38 0 -0.68 -0.2 -0.88 -0.57 l -0.3 -0.57 l -0.24 0.57 c -0.23 0.53 -0.38 0.57 -2.35 0.57 c -1.16 0 -2.11 -0.09 -2.11 -0.21 m 4.77 -1.73 c 0.16 -0.56 -0.12 -3.22 -0.35 -3.22 c -0.3 0 -1.64 2.84 -1.52 3.24 c 0.16 0.52 1.71 0.5 1.87 -0.02 m 2.86 1.81 c -0.15 -0.19 0.81 -4.78 1.09 -5.22 c 0.23 -0.36 1.29 -0.44 1.45 -0.11 c 0.06 0.12 -0.14 1.36 -0.45 2.77 l -0.55 2.56 l -0.71 0.08 c -0.39 0.04 -0.76 0 -0.83 -0.08 m -19.62 -6.3 c -0.06 -0.13 0.13 -0.48 0.42 -0.77 c 0.45 -0.46 0.82 -0.54 2.42 -0.54 c 1.69 0 1.89 0.05 1.89 0.46 c 0 0.91 -0.42 1.09 -2.55 1.09 c -1.14 0 -2.12 -0.11 -2.18 -0.24 m 5.66 0.02 c -0.39 -0.79 0.62 -1.88 1.39 -1.5 c 0.36 0.18 0.39 0.97 0.06 1.4 c -0.27 0.35 -1.29 0.42 -1.45 0.1 m 9.77 -0.1 c 0.02 -0.82 0.55 -1.27 1.44 -1.19 c 0.79 0.07 0.88 0.15 0.88 0.73 c 0 0.6 -0.07 0.65 -1.16 0.72 c -0.85 0.06 -1.16 -0.01 -1.15 -0.26 m 3.76 0.12 c -0.05 -0.11 -0.01 -0.45 0.08 -0.77 c 0.16 -0.55 0.27 -0.58 2.5 -0.58 c 2.11 0 2.33 0.04 2.33 0.46 c 0 0.91 -0.42 1.09 -2.65 1.09 c -1.19 0 -2.21 -0.09 -2.25 -0.2 m 6.32 -0.08 c 0 -0.84 0.44 -1.27 1.3 -1.27 c 0.73 0 0.89 0.09 0.99 0.56 c 0.06 0.31 0.07 0.66 0.01 0.77 c -0.16 0.32 -2.3 0.26 -2.3 -0.06"/></svg>