<svg xmlns="http://www.w3.org/2000/svg" viewBox="0 0 48 48"><path d="m 10.96 5.87 c 18.52 -16.59 45.4 5.29 34.3 26.93 c -11.17 21.86 -48.1 19.69 -44.98 -6.19 c 1.19 -9.41 6.38 -16 10.64 -20.72" style="fill:#4092d8"/><path d="m 21.63 37.95 c -1.7 -0.31 -3.42 -0.96 -4.84 -1.81 c -0.25 -0.16 -6.15 3.79 -7.37 2.93 c -0.76 -0.99 2.55 -7.44 2.4 -7.85 c -1.09 -2.38 -2.02 -4.63 -2.02 -7.41 c 0 -1.8 0.22 -3.19 0.75 -4.67 c 1.73 -4.89 6.07 -8.58 11.13 -9.45 c 1.34 -0.23 3.87 -0.23 5.21 0 c 5.82 1 10.67 5.8 11.69 11.56 c 0.23 1.32 0.23 3.83 0 5.16 c -1.02 5.76 -5.86 10.56 -11.69 11.56 c -1.27 0.22 -4.05 0.21 -5.25 -0.01 m 3.96 -7.87 c 0.16 -0.16 0.22 -0.5 0.27 -1.5 c 0.05 -1.05 0.1 -1.31 0.28 -1.42 c 0.37 -0.23 1.22 0.34 2.71 1.82 l 1.39 1.38 c 0.79 0.14 2.13 0.17 3.09 -0.11 c 0.3 -0.19 0.2 -0.82 -0.26 -1.49 c -0.24 -0.35 -0.92 -1.18 -1.52 -1.84 c -1.66 -1.81 -1.61 -1.49 -0.43 -3.28 c 1.85 -2.82 2.3 -3.9 1.74 -4.2 c -0.29 -0.15 -2.46 -0.16 -2.87 -0.01 c -0.21 0.08 -0.46 0.44 -0.86 1.24 c -0.91 1.84 -2.1 3.53 -2.72 3.86 c -0.25 0.13 -0.34 0.13 -0.49 0.01 c -0.16 -0.13 -0.19 -0.55 -0.19 -2.56 c 0 -2.28 -0.01 -2.41 -0.24 -2.54 c -0.15 -0.08 -0.94 -0.12 -2.04 -0.1 c -2.17 0.04 -2.27 0.1 -1.73 1.05 c 0.33 0.59 0.34 0.62 0.34 2.79 c 0 1.96 -0.02 2.21 -0.21 2.28 c -0.54 0.2 -2.26 -2.41 -3.22 -4.89 c -0.46 -1.2 -0.57 -1.27 -2.22 -1.27 c -1.06 0 -1.25 0.03 -1.47 0.25 c -0.18 0.18 -0.23 0.34 -0.17 0.57 c 0.5 2.24 2.46 5.84 4.2 7.7 c 1.11 1.19 2.57 2.03 4.26 2.45 c 0.13 0.04 0.68 0.05 1.2 0.03 c 0.7 -0.02 1.01 -0.09 1.16 -0.24" style="fill:#fff"/></svg>