<svg xmlns="http://www.w3.org/2000/svg" viewBox="0 0 48 48"><path d="m 43.2 36.51 c 15.1 -18.1 -10.37 -39.3 -33.2 -35.87 c -17 2.4 -10.18 50.3 14.55 47.1 c 7.35 -0.96 13.74 -5.27 18.66 -11.19" style="fill:#bac3ce"/><path d="m 30.87 37.1 c -1.45 -1.38 -4.08 -2.92 -5.39 -3.17 c -2.17 -0.61 -4.49 -0.74 -6.63 -0.73 c -1.36 0.01 -1.5 -0.7 -1.65 -0.97 c -0.14 -0.25 -0.65 0.34 -1.58 0.32 c -1.21 -0.02 -1.16 -0.42 -1.16 -1.08 c 0 -1.09 -0.46 -0.2 -1.17 -0.09 c -0.92 0.14 -1.27 -0.12 -1.27 -0.97 c 0 -0.53 -0.06 -0.63 -0.33 -0.55 c -1.05 0.31 -1.32 0.32 -1.56 0.03 c -0.2 -0.23 -0.2 -0.41 -0.04 -0.76 c 0.36 -0.8 2.04 -0.93 2.09 -0.16 c 0.05 0.79 0.16 0.4 1.33 0.38 c 1.25 -0.03 1.39 -0.02 1.33 0.47 c -0.12 1.04 0.26 1.01 1.19 0.4 c 0.93 -0.61 0.98 1.24 1.16 1.39 c 1.61 -1.68 1.67 -4.3 2.63 -6.3 c 0.71 -1.42 0.47 -0.86 -0.47 -0.6 c -1.04 0.2 -1.92 0.3 -1.86 -0.66 l 0.04 -0.73 l -0.85 0.11 c -1.11 0.15 -1.43 0.01 -1.43 -0.64 c 0 -1.33 2.26 -2.05 2.82 -0.89 c 0.24 0.5 -0.31 0.94 1.24 0.41 c 0.75 -0.25 1.26 -0.13 1.25 0.19 c -0.04 1.36 0.59 0.39 0.59 -0.01 c 0.23 -1.12 2.68 -5.59 2.71 -6.56 c 0 -0.39 -0.48 0.8 -1.53 0.92 c -1.32 0.15 -1.67 -0.1 -1.46 -1.06 c 0.12 -0.54 0.1 -0.59 -0.22 -0.45 c -0.2 0.09 -0.7 0.16 -1.11 0.17 c -0.8 0.06 -0.76 0.04 -0.74 -0.71 c 0.03 -0.86 0.2 -1.06 1.05 -1.24 c 0.96 -0.2 1.31 -0.06 1.44 0.57 c 0.11 0.56 0.12 0.56 1.13 0.44 c 0.71 -0.09 1.11 -0.05 1.32 0.11 c 0.22 0.18 1.16 0.23 3.66 0.21 c 2 -0.17 3.98 0.14 5.8 0.64 c 1.58 0.43 4.28 2.03 5.76 3.41 c 1.4 1.3 1.39 1.26 0.69 3 c -0.71 1.79 -1.77 4.35 -1.94 4.73 c -1.34 3.3 -2.89 6.78 -4.08 9.83 c -0.47 1.23 -0.91 1.8 -1.35 1.79 c -0.1 0 -0.75 -0.53 -1.43 -1.18 m -22.27 -9.32 c -0.36 -0.43 0.02 -0.93 0.7 -0.93 c 0.77 0 1.2 1.19 0.47 1.46 c -0.63 0.24 -0.88 -0.18 -1.18 -0.53 m -1.64 -1.23 c -0.37 -0.15 -0.46 -1.13 -0.04 -1.27 c 0.45 -0.14 1.13 0.25 1.13 0.61 c 0.45 1.28 -0.39 1.13 -1.09 0.66 m 6.49 -4.78 c -0.16 -0.42 0.25 -1.05 0.79 -1.18 c 0.76 -0.19 1.07 0.03 1 0.73 c -0.05 0.58 -0.11 0.62 -0.87 0.67 c -0.58 0.04 -0.84 -0.02 -0.92 -0.22 m -1.38 -1.46 c -0.2 -0.31 -0.04 -1.28 0.36 -1.4 c 0.48 -0.15 0.64 0.04 0.75 0.48 c 0.3 1.15 -0.86 1.35 -1.12 0.92 m -1.66 -1.82 c -0.45 -0.32 -0.71 -0.84 -0.47 -1.17 c 0.7 -0.96 1.93 0.56 1.88 0.7 c -0.48 1.26 -0.8 0.9 -1.41 0.46 m 6.39 -4.49 c -0.41 -0.48 0.23 -1.23 1.05 -1.23 c 0.86 0 1.04 0.43 0.46 1.05 c -0.49 0.52 -1.16 0.6 -1.51 0.18 m -1.48 -1.66 c -0.33 -0.33 0.07 -1.28 0.63 -1.28 c 0.32 0 0.65 0.59 0.65 0.82 c 0 0.66 -0.84 0.89 -1.28 0.45 m -1.56 -1.42 c -0.32 -0.2 -0.84 -1.3 0.08 -1.42 c 0.27 -0.04 1.1 0.82 1.06 1.04 c -0.07 0.35 -0.51 0.76 -1.14 0.38" style="fill:#212121"/><path d="m 21.2 30.59 c -0.28 -0.05 -0.51 -0.25 -0.51 -0.44 c 0 -0.61 1.82 -4.88 2.22 -5.18 c 0.4 -0.32 2.05 -0.22 3.74 0.21 c 0.8 0.21 0.86 0.28 0.75 0.85 c -0.59 1.7 -1.09 3.37 -1.89 5 c -1.36 -0.07 -2.78 -0.58 -4.3 -0.46" style="fill:#02a4ff"/><path d="m 23.53 23.2 c 0.74 -2.39 1.5 -3.86 2.37 -5.93 c 1.07 0.1 4.68 0.25 4.71 1.07 c -0.63 1.87 -1.4 3.26 -2.33 5.13 c -2.6 -0.73 -2.88 -0.27 -4.74 -0.26" style="fill:#f30"/><path d="m 34.2 26.3 c -0.13 -0.12 -1.18 -0.75 -1.89 -1.12 c -1.14 -0.59 -1.6 -0.88 -1.57 -1.44 c 0.04 -0.78 2.14 -4.71 2.55 -4.95 c 0.71 -0.42 3.7 1.43 3.56 2.2 c -0.04 0.23 -0.52 1.49 -1.07 2.79 c -0.95 2.27 -1.03 3 -1.59 2.53" style="fill:#66cd33"/><path d="m 27.84 31.2 c -0.14 -0.54 1.48 -4.55 2 -4.99 c 0.35 -0.28 1.52 0.14 2.82 1.02 c 0.73 0.5 1.07 1.07 0.97 1.64 c -0.11 0.69 -1.76 4.82 -2.07 5.11 c -0.97 -1.13 -3.46 -1.85 -3.74 -2.79" style="fill:#ffd600"/></svg>