<svg xmlns="http://www.w3.org/2000/svg" viewBox="0 0 48 48"><path d="m 47.75 24.1 c 3.5 31.98 -48.5 31.52 -47.74 -0.57 c -1.6 -29.86 50.68 -32.54 47.74 0.57" style="fill:#5ca19c"/><path d="m 7.94 32.86 l -0.39 -0.37 v -8.2 c 0 -7.54 0.02 -8.22 0.31 -8.56 c 0.59 -0.7 5.84 -2.13 9.86 -2.67 c 3.86 -0.52 10.96 -0.52 14.51 0 c 3.43 0.51 8 1.62 9.13 2.21 c 1.15 0.62 1.1 0.21 1.1 8.88 c 0 6.87 -0.04 7.93 -0.28 8.3 c -0.55 0.85 -4.29 2 -9.24 2.88 c -7.71 -0.14 -16.5 0.62 -24.99 -2.47" style="fill:#147e71"/><path d="m 20.1 35.71 c -3.39 -0.27 -10 -1.72 -11.63 -2.56 c -0.91 -0.46 -1 -0.65 -1 -1.92 c 0 -1.02 0.03 -1.18 0.28 -1.35 c 0.15 -0.11 1.66 -1.77 3.36 -3.69 c 3.44 -3.9 4.26 -4.73 5.11 -5.18 c 0.84 -0.44 1.95 -0.42 2.85 0.04 c 0.75 0.39 2.11 1.9 7.46 8.29 c 1.7 2.03 3.57 4.24 4.16 4.9 l 1.06 1.21 l -0.66 0.1 c -0.73 0.11 -9.94 0.24 -10.98 0.16" style="fill:#87bb00"/><path d="m 29.2 32.2 c -3.18 -3.87 -3.47 -4.25 -3.47 -4.4 c 0 -0.18 1.36 -1.88 2.27 -2.84 c 1.04 -1.1 1.4 -1.29 2.39 -1.21 c 0.73 0.05 0.82 0.1 1.52 0.79 c 0.94 0.93 4.64 5.13 6.4 7.25 l 1.36 1.64 l -0.33 0.18 c -0.71 0.38 -4.99 1.33 -7.1 1.57 l -0.55 0.07 c -0.83 -1.02 -1.66 -2.03 -2.5 -3.04" style="fill:#0b6244"/></svg>