<svg xmlns="http://www.w3.org/2000/svg" viewBox="0 0 48 48"><path d="m 41.69 39.47 c 12.56 -17.85 3.93 -34.1 -9.11 -37.98 c -17.54 -5.19 -42.4 8.45 -27.83 36.57 c 5.78 11.17 27.98 14.1 36.93 1.41" style="fill:#f4f4f4"/><path d="m 10.98 31.3 h 26.42 c 0.03 0 0.05 0.05 0.05 0.11 v 5.75 c 0 0.06 -0.02 0.11 -0.05 0.11 h -26.42 c -0.03 0 -0.05 -0.05 -0.05 -0.11 v -5.75 c 0 -0.06 0.02 -0.11 0.05 -0.11" style="fill:#ff7f86"/><path d="m 8 16.94 h 5.76 c 0.02 0 0.04 0.05 0.04 0.1 v 11.34 c 0 0.06 -0.02 0.1 -0.04 0.1 h -5.76 c -0.02 0 -0.04 -0.04 -0.04 -0.1 v -11.34 c 0 -0.05 0.02 -0.1 0.04 -0.1" style="fill:#f37040"/><path d="m 35.1 16.79 h 5.61 c 0.02 0 0.05 0.05 0.05 0.11 v 11.62 c 0 0.06 -0.02 0.11 -0.05 0.11 h -5.61 c -0.03 0 -0.05 -0.05 -0.05 -0.11 v -11.62 c 0 -0.06 0.02 -0.11 0.05 -0.11" style="fill:#8e93c8"/><path d="m 28.97 16.94 h 5.18 c 0.02 0 0.05 0.05 0.05 0.11 v 11 c 0 0.06 -0.02 0.11 -0.05 0.11 h -5.18 c -0.03 0 -0.05 -0.05 -0.05 -0.11 v -11 c 0 -0.06 0.02 -0.11 0.05 -0.11" style="fill:#acff2f"/><path d="m 22.84 19.93 h 5.89 c 0.02 0 0.05 0.05 0.05 0.12 v 8.31 c 0 0.07 -0.02 0.12 -0.05 0.12 h -5.89 c -0.02 0 -0.04 -0.05 -0.04 -0.12 v -8.31 c 0 -0.07 0.02 -0.12 0.04 -0.12" style="fill:#ffd600"/><path d="m 10.64 37.43 c -0.08 -0.15 -0.13 -1.37 -0.13 -3.05 c 0 -1.68 0.05 -2.89 0.13 -3.05 c 0.13 -0.24 0.42 -0.25 13.61 -0.25 h 13.47 l 0.13 0.33 c 0.17 0.43 0.17 5.5 0 5.93 l -0.13 0.33 h -6.32 c -4.74 0 -6.36 -0.04 -6.48 -0.16 c -0.22 -0.22 -0.2 -0.58 0.05 -0.67 c 0.16 -0.06 0.2 -0.27 0.16 -1.02 l -0.04 -0.94 l -0.77 -0.04 c -0.45 -0.02 -0.84 0.02 -0.95 0.11 c -0.25 0.21 -0.25 1.41 0 1.75 c 0.26 0.33 0.25 0.79 0 0.88 c -0.11 0.04 -3 0.08 -6.41 0.08 c -5.99 0 -6.2 -0.01 -6.33 -0.25 m 2.68 -1.63 v -0.91 h -1.83 l -0.04 0.76 c -0.06 1.11 -0.04 1.13 0.98 1.09 l 0.88 -0.04 m 3.05 -0.79 c 0.05 -0.99 -0.08 -1.11 -1.11 -1.06 l -0.76 0.04 l -0.04 0.95 l -0.04 0.94 l 0.95 -0.04 l 0.96 -0.04 m 2.91 -0.88 l -0.04 -0.94 l -0.76 -0.04 c -0.45 -0.02 -0.84 0.02 -0.95 0.11 c -0.19 0.16 -0.27 1.55 -0.1 1.71 c 0.05 0.05 0.49 0.09 0.99 0.09 h 0.9 m 2.97 -0.93 c 0.04 -0.82 0.02 -0.87 -0.27 -0.95 c -0.17 -0.04 -0.6 -0.06 -0.95 -0.04 l -0.65 0.04 l -0.04 0.76 c -0.06 1.11 -0.04 1.13 0.99 1.09 l 0.88 -0.04 m 5.89 -0.91 v -0.91 h -1.83 l -0.04 0.76 c -0.06 1.11 -0.04 1.13 0.98 1.09 l 0.89 -0.04 m 2.99 -0.14 c 0.14 -0.36 0.09 -1.42 -0.07 -1.58 c -0.09 -0.09 -0.5 -0.16 -0.91 -0.16 c -0.85 0 -1.02 0.16 -1.02 0.93 c 0 0.95 0.07 1 1.05 1 c 0.69 0 0.91 -0.05 0.96 -0.2 m 2.89 -0.77 v -0.91 h -1.83 l -0.04 0.76 c -0.06 1.11 -0.04 1.13 0.98 1.09 l 0.89 -0.04 m 3.04 -0.79 c 0.05 -0.99 -0.08 -1.11 -1.11 -1.06 l -0.76 0.04 l -0.04 0.95 l -0.04 0.94 l 0.95 -0.04 l 0.96 -0.04 m -23.82 -2.86 c 0.16 -0.06 0.21 -0.28 0.21 -0.97 v -0.9 l -0.95 0.04 l -0.95 0.04 l -0.04 0.75 c -0.02 0.45 0.02 0.83 0.11 0.94 c 0.16 0.19 1.21 0.26 1.61 0.11 m 3.07 -0.11 c 0.09 -0.11 0.14 -0.49 0.12 -0.94 l -0.04 -0.75 l -0.95 -0.04 l -0.95 -0.04 v 0.89 c 0 0.49 0.04 0.93 0.09 0.97 c 0.17 0.17 1.58 0.09 1.73 -0.1 m 2.99 -0.82 l 0.04 -0.94 l -0.95 0.04 l -0.96 0.04 l -0.04 0.75 c -0.05 1.02 0.07 1.14 1.07 1.09 l 0.8 -0.04 m 2.93 -0.12 c 0.09 -0.11 0.14 -0.49 0.11 -0.94 l -0.04 -0.75 l -0.95 -0.04 l -0.95 -0.04 v 0.9 c 0 0.6 0.05 0.92 0.16 0.96 c 0.37 0.15 1.51 0.08 1.66 -0.1 m 2.99 -0.82 l 0.04 -0.94 h -0.91 c -1.01 0 -1.07 0.05 -1.07 0.92 c 0 0.89 0.16 1.04 1.09 0.99 l 0.81 -0.04 m 2.91 -0.05 c 0.12 -0.07 0.16 -0.36 0.13 -0.94 l -0.04 -0.83 h -1.83 l -0.04 0.83 c -0.05 0.97 0.02 1.04 0.95 1.04 c 0.36 0 0.73 -0.05 0.82 -0.11 m 3 -0.07 c 0.09 -0.11 0.14 -0.49 0.11 -0.94 l -0.04 -0.75 l -0.93 -0.04 c -1.03 -0.04 -1.09 0.01 -1.09 0.98 c 0 0.77 0.18 0.93 1.04 0.93 c 0.5 0 0.82 -0.06 0.92 -0.18 m 2.81 0.11 c 0.16 -0.06 0.21 -0.28 0.21 -0.97 v -0.9 l -0.95 0.04 l -0.95 0.04 l -0.04 0.83 c -0.03 0.58 0.01 0.86 0.13 0.94 c 0.2 0.13 1.3 0.14 1.6 0.03 m 3.08 -0.11 c 0.09 -0.11 0.14 -0.49 0.11 -0.94 l -0.04 -0.75 l -0.95 -0.04 l -0.95 -0.04 v 0.89 c 0 0.49 0.04 0.93 0.09 0.97 c 0.17 0.17 1.58 0.09 1.74 -0.1 m -29.34 -5.06 c -0.12 -0.31 -0.09 -14.7 0.03 -14.89 c 0.08 -0.13 0.54 -0.16 1.86 -0.13 l 1.76 0.04 l 0.03 1.1 c 0.05 1.79 -0.04 1.68 1.45 1.68 c 0.82 0 1.34 0.05 1.43 0.15 c 0.1 0.1 0.16 0.61 0.16 1.41 c 0 1.02 0.04 1.27 0.21 1.33 c 0.11 0.04 3.19 0.08 6.84 0.08 c 4.98 0 6.67 -0.04 6.79 -0.16 c 0.1 -0.1 0.16 -0.59 0.16 -1.33 c 0 -0.74 0.06 -1.23 0.16 -1.33 c 0.12 -0.11 1.25 -0.15 4.3 -0.15 c 3.25 0 4.18 -0.04 4.29 -0.17 c 0.08 -0.09 0.16 -0.71 0.18 -1.39 l 0.04 -1.22 l 1.6 -0.04 c 0.96 -0.02 1.71 0.02 1.86 0.1 c 0.25 0.13 0.26 0.27 0.26 3.39 c 0 1.79 -0.04 3.32 -0.1 3.39 c -0.19 0.25 -0.66 0.21 -0.81 -0.06 c -0.13 -0.25 -0.25 -0.27 -1.09 -0.23 l -0.94 0.04 l -0.04 0.89 c -0.03 0.63 0.01 0.93 0.13 1 c 0.29 0.18 1.6 0.13 1.88 -0.08 c 0.34 -0.25 0.79 -0.25 0.89 0 c 0.05 0.11 0.08 1.63 0.08 3.36 c 0 2.98 -0.02 3.16 -0.25 3.29 c -0.17 0.09 -5.6 0.13 -16.66 0.13 c -14.84 0 -16.42 -0.02 -16.49 -0.21 m 8.75 -1.6 v -0.97 l -0.83 -0.04 c -0.5 -0.02 -0.9 0.02 -1.01 0.11 c -0.23 0.2 -0.25 1.55 -0.02 1.78 c 0.11 0.1 0.46 0.15 1.02 0.12 l 0.85 -0.04 m 2.91 -0.09 c 0.18 -0.18 0.21 -1.5 0.05 -1.76 c -0.08 -0.12 -0.38 -0.16 -1.01 -0.13 l -0.91 0.04 l -0.04 0.83 c -0.02 0.45 -0.01 0.91 0.03 1 c 0.09 0.23 1.66 0.25 1.88 0.02 m 2.97 -0.88 v -0.97 l -0.85 -0.04 c -0.68 -0.03 -0.88 0 -1.01 0.19 c -0.2 0.27 -0.22 1.06 -0.04 1.53 c 0.13 0.32 0.17 0.34 1.02 0.3 l 0.88 -0.04 m 2.92 -0.09 c 0.18 -0.18 0.21 -1.5 0.04 -1.76 c -0.07 -0.12 -0.38 -0.16 -1.01 -0.13 l -0.9 0.04 l -0.04 0.83 c -0.02 0.45 -0.01 0.91 0.03 1 c 0.09 0.23 1.66 0.25 1.88 0.02 m 3 -0.1 c 0.15 -0.27 0.18 -1.07 0.05 -1.53 c -0.07 -0.27 -0.16 -0.29 -0.97 -0.29 c -1.03 0 -1.17 0.13 -1.17 1.04 c 0 0.9 0.14 1.03 1.11 1.03 c 0.7 0 0.87 -0.04 0.98 -0.25 m 2.95 -0.78 v -0.97 h -1.96 l -0.04 0.83 c -0.06 1.2 -0.06 1.2 1.05 1.15 l 0.95 -0.04 m 2.92 -0.09 c 0.18 -0.18 0.21 -1.5 0.04 -1.76 c -0.07 -0.12 -0.38 -0.16 -1.01 -0.13 l -0.9 0.04 l -0.04 0.83 c -0.02 0.45 -0.01 0.91 0.03 1 c 0.09 0.23 1.66 0.25 1.88 0.02 m 3.08 -0.14 c 0.11 -0.42 0.09 -1.43 -0.03 -1.62 c -0.07 -0.12 -0.39 -0.16 -1.07 -0.13 l -0.97 0.04 l -0.04 0.83 c -0.02 0.45 -0.01 0.91 0.03 1 c 0.05 0.13 0.34 0.18 1.04 0.18 c 0.89 0 0.98 -0.02 1.05 -0.29 m 2.8 0.14 c 0.18 -0.18 0.21 -1.5 0.05 -1.76 c -0.08 -0.12 -0.38 -0.16 -1.01 -0.13 l -0.91 0.04 l -0.04 0.83 c -0.02 0.45 -0.01 0.91 0.03 1 c 0.09 0.23 1.66 0.25 1.88 0.02 m -29.53 -0.88 v -0.91 h -1.83 v 0.82 c 0 0.45 0.04 0.86 0.09 0.9 c 0.05 0.05 0.46 0.09 0.91 0.09 h 0.83 m 2.94 -0.9 v -0.84 h -1.83 l -0.04 0.7 c -0.06 1.04 -0.04 1.07 0.99 1.02 l 0.88 -0.04 m 23.66 -2.86 c 0.24 -0.23 0.29 -1.35 0.07 -1.74 c -0.11 -0.2 -0.28 -0.25 -0.9 -0.25 c -1.16 0 -1.18 0.02 -1.18 1.02 c 0 0.5 0.07 0.93 0.16 1.02 c 0.23 0.23 1.61 0.2 1.86 -0.05 m -26.67 -0.89 v -0.9 h -1.7 l -0.04 0.76 c -0.06 1.11 -0.04 1.13 0.92 1.09 l 0.82 -0.04 m 3 -0.91 v -0.9 l -0.84 -0.04 c -0.98 -0.05 -1.05 0.02 -1.06 0.95 c 0 0.86 0.14 0.98 1.11 0.93 l 0.79 -0.04 m 3.05 -0.92 c 0.04 -0.86 0.02 -0.93 -0.26 -1 c -0.45 -0.12 -1.09 -0.1 -1.47 0.04 c -0.31 0.12 -0.33 0.18 -0.33 0.95 c 0 0.45 0.04 0.86 0.09 0.91 c 0.05 0.05 0.51 0.07 1.02 0.05 l 0.92 -0.04 m 3.05 -0.84 c 0.05 -0.99 -0.11 -1.17 -0.99 -1.17 c -0.94 0 -1.08 0.14 -1.08 1.08 c 0 0.45 0.04 0.86 0.09 0.91 c 0.05 0.05 0.51 0.07 1.02 0.05 l 0.92 -0.04 m 2.91 -0.92 c 0.04 -0.86 0.02 -0.93 -0.26 -1 c -0.43 -0.11 -1.32 -0.1 -1.52 0.03 c -0.22 0.14 -0.34 0.92 -0.23 1.5 l 0.09 0.46 l 0.94 -0.04 l 0.94 -0.04 m 3.05 -0.84 c 0.05 -0.99 -0.1 -1.17 -0.99 -1.17 c -0.94 0 -1.08 0.14 -1.08 1.08 c 0 0.45 0.04 0.86 0.09 0.91 c 0.05 0.05 0.51 0.07 1.01 0.05 l 0.92 -0.04 m 3 -0.14 c 0.13 -0.33 0.09 -1.34 -0.06 -1.61 c -0.11 -0.2 -0.28 -0.25 -0.91 -0.25 c -0.97 0 -1.18 0.18 -1.18 1.03 c 0 1 0.03 1.04 1.11 1.04 c 0.75 0 0.97 -0.04 1.04 -0.2 m 2.93 -0.75 c 0.03 -0.63 -0.01 -0.93 -0.13 -1 c -0.26 -0.16 -1.6 -0.13 -1.78 0.05 c -0.17 0.16 -0.22 1.68 -0.06 1.83 c 0.05 0.05 0.5 0.07 1.01 0.05 l 0.92 -0.04 m 3.05 -0.84 c 0.05 -1 -0.1 -1.17 -1.04 -1.17 c -1 0 -1.03 0.03 -1.03 1.12 v 0.96 l 1.02 -0.04 l 1.01 -0.04 m 5.89 -0.91 v -0.9 h -1.96 l -0.04 0.76 c -0.06 1.13 -0.05 1.13 1.05 1.09 l 0.95 -0.04 m -23.77 -2.89 c 0.12 -0.07 0.16 -0.37 0.13 -1 l -0.04 -0.89 l -0.83 -0.04 c -0.5 -0.02 -0.9 0.02 -1.01 0.11 c -0.23 0.19 -0.25 1.55 -0.03 1.77 c 0.18 0.17 1.52 0.21 1.78 0.04 m 3 -0.04 c 0.23 -0.22 0.2 -1.59 -0.03 -1.77 c -0.11 -0.09 -0.52 -0.14 -1.01 -0.11 l -0.83 0.04 l -0.04 0.89 c -0.03 0.63 0.01 0.93 0.13 1 c 0.26 0.16 1.6 0.13 1.78 -0.04 m 2.88 0.04 c 0.12 -0.07 0.16 -0.37 0.13 -1 l -0.04 -0.89 l -0.85 -0.04 c -1 -0.05 -1.18 0.1 -1.18 0.98 c 0 0.91 0.15 1.06 1.02 1.06 c 0.41 0 0.82 -0.05 0.92 -0.11 m 3 -0.04 c 0.22 -0.22 0.2 -1.59 -0.03 -1.77 c -0.11 -0.09 -0.52 -0.14 -1.02 -0.11 l -0.83 0.04 l -0.04 0.82 c -0.02 0.49 0.02 0.89 0.11 1 c 0.19 0.23 1.57 0.25 1.8 0.03 m 3 -0.1 c 0.18 -0.32 0.18 -1.24 0 -1.57 c -0.11 -0.21 -0.28 -0.25 -0.98 -0.25 c -0.96 0 -1.11 0.14 -1.11 1.04 c 0 0.9 0.14 1.03 1.11 1.03 c 0.7 0 0.87 -0.04 0.98 -0.25 m 2.95 -0.78 v -0.97 h -1.96 l -0.04 0.89 c -0.03 0.63 0.01 0.93 0.13 1 c 0.09 0.06 0.55 0.09 1.02 0.07 l 0.85 -0.03 m 2.92 -0.09 c 0.18 -0.18 0.21 -1.5 0.04 -1.76 c -0.07 -0.12 -0.38 -0.16 -1.01 -0.13 l -0.9 0.04 l -0.04 0.82 c -0.02 0.46 -0.01 0.91 0.03 1 c 0.09 0.22 1.66 0.24 1.88 0.02 m 3 -0.1 c 0.16 -0.3 0.18 -1.42 0.02 -1.66 c -0.07 -0.12 -0.39 -0.16 -1.07 -0.13 l -0.97 0.04 l -0.04 0.82 c -0.02 0.46 -0.01 0.91 0.03 1 c 0.05 0.12 0.33 0.17 0.98 0.17 c 0.77 0 0.94 -0.04 1.05 -0.25 m -26.7 -0.82 l 0.04 -0.87 h -1.84 v 0.82 c 0 0.45 0.04 0.86 0.09 0.91 c 0.05 0.05 0.45 0.07 0.88 0.05 l 0.79 -0.04 m 3 -0.84 v -0.84 h -1.83 l -0.04 0.7 c -0.06 1.04 -0.04 1.07 0.99 1.02 l 0.88 -0.04 m 23.66 -2.85 c 0.25 -0.25 0.28 -1.46 0.04 -1.79 c -0.14 -0.18 -0.33 -0.22 -1.08 -0.18 l -0.91 0.04 l -0.04 0.9 c -0.03 0.74 0 0.93 0.19 1.07 c 0.33 0.24 1.55 0.21 1.8 -0.04 m -23.75 -0.04 c 0.12 -0.07 0.16 -0.36 0.13 -0.93 l -0.04 -0.83 h -1.83 l -0.04 0.75 c -0.02 0.45 0.02 0.83 0.11 0.94 c 0.17 0.2 1.38 0.25 1.66 0.07 m 17.92 -0.85 c 0.05 -1.04 -0.01 -1.11 -0.98 -1.11 c -1.05 0 -1.09 0.03 -1.09 1.02 c 0 0.48 0.04 0.91 0.09 0.96 c 0.05 0.05 0.5 0.07 1.01 0.05 l 0.92 -0.04 m 3.05 -0.82 c 0.05 -1.04 -0.07 -1.18 -0.96 -1.18 c -1.09 0 -1.11 0.02 -1.11 1.12 v 0.96 l 1.02 -0.04 l 1.01 -0.04 m 5.87 -0.14 c 0.04 -0.11 0.08 -0.52 0.08 -0.9 c 0 -0.81 -0.17 -0.96 -1.04 -0.96 c -0.91 0 -1.05 0.14 -1.05 1.08 c 0 0.45 0.04 0.85 0.09 0.9 c 0.05 0.05 0.48 0.09 0.97 0.09 c 0.68 0 0.89 -0.04 0.96 -0.2 m -29.64 -0.8 l -0.04 -0.87 h -1.7 l -0.08 1.74 h 1.86 m 29.52 -2.87 c 0.23 -0.22 0.2 -1.59 -0.03 -1.77 c -0.11 -0.09 -0.52 -0.14 -1.01 -0.11 l -0.83 0.04 l -0.04 0.82 c -0.02 0.49 0.02 0.89 0.12 1 c 0.19 0.23 1.57 0.25 1.79 0.03 m -29.56 -0.91 l 0.04 -0.88 h -1.84 v 0.82 c 0 0.45 0.04 0.86 0.09 0.91 c 0.05 0.05 0.45 0.07 0.88 0.05 l 0.79 -0.04"/></svg>