<svg xmlns="http://www.w3.org/2000/svg" viewBox="0 0 48 48"><path d="m 12.2 5.13 c 25.37 -17.2 48.72 14.55 27.74 34.8 c -19.76 19.1 -48.2 1.39 -37.9 -22.35 c 2.15 -4.95 5.5 -9.3 10.15 -12.45" style="fill:#00f"/><g style="fill:#fff"><path d="m 19.84 33.2 v 2.72 h -2.56 c -0.46 0 -0.84 0.45 -0.84 1 c 0 0.55 0.38 1 0.84 1 h 9.35 c 0.46 0 0.84 -0.45 0.84 -1 c 0 -0.55 -0.37 -1 -0.84 -1 h -2.56 v -2.72"/><path d="m 11.1 17.23 c -0.39 0 -0.71 0.38 -0.71 0.85 v 15.31 c 0 0.47 0.32 0.84 0.71 0.84 h 21.71 c 0.39 0 0.71 -0.37 0.71 -0.84 v -15.31 c 0 -0.47 -0.32 -0.85 -0.71 -0.85 m -20.32 2.23 h 18.93 v 12.53 h -18.93"/><path d="m 14.18 20.91 h 2.78 c 0.08 0 0.15 0.06 0.15 0.14 v 2.22 c 0 0.08 -0.07 0.14 -0.15 0.14 h -2.78 c -0.08 0 -0.15 -0.06 -0.15 -0.14 v -2.22 c 0 -0.08 0.07 -0.14 0.15 -0.14"/></g><g style="fill:#f00"><path d="m 22.77 25.54 l 6.26 -7 l -6.45 -7.73 h 4.14 l 5.14 6.08 l -7.68 8.69"/><path d="m 35.61 25.73 l -5.11 -6.09 l 7.75 -8.69 h 1.38 l -6.29 7.1 l 6.41 7.71 h -4.14"/></g></svg>