<svg xmlns="http://www.w3.org/2000/svg" viewBox="0 0 48 48"><path d="m 43.2 38.2 c 23.85 -35.4 -52.2 -58.4 -42.2 -12.13 c 4.29 19.1 31.2 31.1 42.2 12.13" style="fill:#f4f4f4"/><g style="fill:#2f70a9"><path d="m 28.3 33.52 c -1.32 0.03 -2.45 -1.06 -3.07 -1.32 c -0.84 -0.23 -3.82 -1.53 -4.7 -2.05 c -0.22 -0.13 -1.08 -0.79 -1.91 -1.46 c -0.83 -0.67 -1.56 -1.17 -1.63 -1.11 c -0.19 0.18 1.04 1.38 1.91 1.87 c 0.97 0.54 1.02 0.74 0.19 0.72 c -0.86 0.08 -1.15 0.41 -1.56 0.97 l -2.08 -1.06 c -2.5 -1.27 -4.6 -3.93 -5.68 -6.99 c -0.52 -1.48 -0.59 -3.81 -0.15 -4.99 c 0.6 -1.6 3.27 -3.43 5.93 -4.05 c 2.5 -0.59 7 0.11 9.8 1.51 c 2.21 1.11 7.8 5.78 10.4 8.68 c 2.45 2.73 2.82 5.59 0.98 7.51 c -1.65 1.72 -4.49 2.32 -8.44 1.78 m 4.42 -2.13 c -0.1 -0.1 -1.89 -0.86 -3.99 -1.68 c -2.1 -0.82 -4.98 -2.11 -6.42 -2.86 c -1.43 -0.75 -2.68 -1.36 -2.77 -1.36 c -0.68 -0.01 2.44 2.23 4.44 3.2 c 3.41 1.64 9.55 3.54 8.74 2.71 m 2.96 -2.68 c -1.05 -1.32 -12.13 -6.35 -14 -6.36 h -0.57 l 0.65 0.36 c 0.36 0.2 2.16 1 4 1.79 c 1.84 0.79 4.81 2.13 6.6 2.96 c 1.79 0.84 3.32 1.54 3.41 1.54 c 0.09 0 0.06 -0.13 -0.07 -0.29 m -0.5 -3.67 c -1.85 -1.79 -5.9 -4.49 -9.1 -5.64 c -1.84 -0.66 -5.18 -1.09 -5.2 -0.67 c 0 0.22 0.11 0.25 2.05 0.63 c 0.67 0.13 1.76 0.42 2.43 0.64 c 1.68 0.57 5.82 3.07 8.14 4.59 c 2.13 1.39 2.59 1.34 1.68 0.45 m -16.49 7.99 c -0.45 -0.13 -0.86 -1.16 -0.64 -1.48 c 0.49 -0.73 1.3 -0.22 1.47 -0.16 c -0.04 0.83 -0.79 0.39 -0.34 0.89 c 0.35 0.25 1.19 0.2 1.62 0.13 c 0.25 -0.39 0.1 -0.26 -0.27 -0.47 l -0.19 -0.66 c -0.2 -0.7 2.16 0.51 3.13 0.91 c 0.65 0.27 1.37 0.55 1.6 0.63 c 0.23 0.07 0.33 0.27 0.41 0.31 c 0.99 0.52 -3.96 0.9 -6.78 -0.09 m 20.63 -0.93 c -0.49 -0.14 -1.14 -0.13 -1.29 -0.2 c -0.38 -0.16 0.19 -0.98 0.65 -0.97 c 0.35 0 2.38 1.1 2.37 1.28 c 0 0.14 -0.8 0.16 -1.73 -0.11 m -21.1 -0.87 c 0.81 -0.83 1.51 -0.39 1.92 -0.3 c 0.74 0.16 2.72 1.24 -1.06 0.94 c -0.66 0 -1.04 -0.54 -0.86 -0.64"/><path d="m 33.68 20.77 c 0.15 -0.26 0.88 -0.84 1.24 -0.99 c 0.67 -0.27 0.91 0.04 0.84 1.08 c -0.01 0.44 -0.11 0.85 -0.22 1.27 c -0.06 0.23 -0.23 0.38 -0.44 0.38 c -0.76 -0.84 -1.79 -1.14 -1.43 -1.73"/></g></svg>