<svg xmlns="http://www.w3.org/2000/svg" viewBox="0 0 256 256"><defs><filter height="1" y="0" width="1" x="0" id="1" style="color-interpolation-filters:sRGB"><feGaussianBlur stdDeviation="0.005"/></filter><linearGradient gradientUnits="userSpaceOnUse" y2="36" x2="48.73" y1="13.24" x1="27.2" id="0" gradientTransform="matrix(0.55 0 0 0.56 -3.6 5.19)"><stop style="stop-color:#f3d86a"/><stop offset="1" style="stop-color:#3e9ade"/></linearGradient></defs><path d="M 244.8,87.5 C 294.48,214.9 155.2,280.3 68.6,247.8 8.1,225.13 -22,134.8 20.92,61.8 c 54.2,-92.1 185.6,-72.5 223.9,25.73" style="fill:#d53e3e"/><g transform="matrix(5.097 0 0 4.889 45.8 53.4)"><path vector-effect="none" d="m 6,2.75 h 20 a 2,2 45 0 1 2,2 v 24 a 2,2 135 0 1 -2,2 H 6 a 2,2 45 0 1 -2,-2 v -24 a 2,2 135 0 1 2,-2 z" y="2.75" x="4" ry="0" rx="0" height="28" width="24" style="opacity:0.2;filter:url(#1)"/><path vector-effect="none" d="m 6,2 h 20 a 2,2 45 0 1 2,2 v 24 a 2,2 135 0 1 -2,2 H 6 A 2,2 45 0 1 4,28 V 4 A 2,2 135 0 1 6,2 z" y="2" x="4" ry="0" rx="0" height="28" width="24" style="fill:#fff"/><g transform="matrix(1.433 0 0 1.433 -6.13 -7.63)" style="fill:#808080;stroke-width:0.04"><path d="m 12.9 12.66 a 0.32 0.32 0 0 0 0.32 0.32 h 7.65 a 0.32 0.32 0 0 0 0 -0.64 h -7.65 a 0.32 0.32 0 0 0 -0.32 0.32 z"/><path d="m 10,14.9 h 6.38 a 0.32,0.32 0 0 0 0,-0.64 H 10 a 0.32,0.32 0 0 0 0,0.64 z"/><path d="m 20.86 16.2 h -5.74 a 0.32 0.32 0 0 0 0 0.64 h 5.74 a 0.32 0.32 0 0 0 0 -0.64 z"/><path d="m 10,18.72 h 7.65 a 0.32,0.32 0 0 0 0,-0.64 H 10 a 0.32,0.32 0 0 0 0,0.64 z"/><path d="m 10,12.98 h 1.91 a 0.32,0.32 0 0 0 0,-0.64 H 10 a 0.32,0.32 0 0 0 0,0.64 z"/><path d="m 20.86 14.26 h -3.19 a 0.32 0.32 0 0 0 0 0.64 h 3.19 a 0.32 0.32 0 0 0 0 -0.64 z"/><path d="m 10,16.81 h 3.83 a 0.32,0.32 0 0 0 0,-0.64 H 10 a 0.32,0.32 0 0 0 0,0.64 z"/><path d="m 20.86 18.1 h -1.91 a 0.32 0.32 0 0 0 0 0.64 h 1.91 a 0.32 0.32 0 0 0 0 -0.64 z"/><path d="m 18.31 21.91 h -3.19 a 0.32 0.32 0 0 0 0 0.64 h 3.19 a 0.32 0.32 0 0 0 0 -0.64 z"/><path d="m 10,22.55 h 3.83 a 0.32,0.32 0 0 0 0,-0.64 H 10 a 0.32,0.32 0 0 0 0,0.64 z"/><path d="m 10,20.63 h 2.55 a 0.32,0.32 0 0 0 0,-0.64 H 10 a 0.32,0.32 0 0 0 0,0.64 z"/><path d="m 10,11.1 h 3.83 a 0.32,0.32 0 0 0 0,-0.64 H 10 a 0.32,0.32 0 0 0 0,0.64 z"/><path d="M 17.36 20.32 A 0.32 0.32 0 0 0 17 20 h -3.19 a 0.32 0.32 0 0 0 0 0.64 h 3.19 a 0.32 0.32 0 0 0 0.32 -0.32 z"/><path d="m 20.86 20 h -2.55 a 0.32 0.32 0 0 0 0 0.64 h 2.55 a 0.32 0.32 0 0 0 0 -0.64 z"/><path d="m 20.86 21.91 h -1.28 a 0.32 0.32 0 0 0 0 0.64 h 1.28 a 0.32 0.32 0 0 0 0 -0.64 z"/></g><path d="m 11.1,22.76 v 2.99 h 2.94 l 7.42,-7.56 -2.94,-2.99 z m 12.96,-7.21 c 0.31,-0.32 0.31,-0.82 0,-1.13 l -1.84,-1.87 c -0.31,-0.32 -0.8,-0.32 -1.11,0 l -1.54,1.57 2.94,2.99 z" style="fill:url(#0);stroke-width:0.14"/><path d="m 11.1 25.76 v -2.99 l 2.94 2.99 z" style="fill:#f7ecc1"/><path d="m 11.1,25.76 -0.02,-1.24 1.2,1.24 z" style="fill:#3b3b3b"/><path d="m 19.55,14.1 2.94,2.99 -1.06,1.07 -2.94,-2.99 z" style="fill:#f0f0f0"/><path d="m 24,15.56 c 0.31,-0.32 0.31,-0.82 0,-1.13 l -1.84,-1.87 c -0.31,-0.32 -0.8,-0.32 -1.11,0 l -1.54,1.57 2.94,2.99 z" style="fill:#a00;stroke-width:0.14"/></g></svg>