<svg xmlns="http://www.w3.org/2000/svg" viewBox="0 0 256 256"><path d="m 131.7 2.17 c -26.1 2.04 -56.72 14.56 -78 31.98 -25.93 21.2 -44.94 53.62 -49.99 85.6 c -6.08 42.3 18.39 87.7 46 109.3 13.86 10.5 32.2 18.85 49.5 22.51 44.84 9.51 91.7 -8.5 123.7 -47.63 19.22 -23.46 29.2 -47.1 31.61 -75.1 c 2.91 -33.54 -10.31 -69.5 -34.45 -93.8 -27.46 -22.83 -55.73 -35.2 -88.3 -32.88" style="fill:#2f4f4f"/><path d="m 158.9 125.7 c -15.64 8.84 -23 15.27 -36.78 19.69 3 -8.9 6 -17.85 9.48 -26.52 4.54 -11.26 3.28 -17.2 -6.94 -32.57 -4.36 -6.57 -7.93 -12.1 -7.93 -12.26 10.15 -0.18 20.2 0.21 31.1 0.53 9.16 -8.43 13.76 -15.45 23.1 -23.33 2.84 10.33 3.74 18.55 5.58 29.93 9 2.78 18 5.61 27 8.33 3.09 0.93 5.61 2.09 5.61 2.57 -9.24 7.93 -17 13 -27.61 20.53 1.83 5.69 15.37 36.47 12.22 38.3 -10.58 -7.78 -24.97 -18 -34.86 -25.2 z" style="fill:#f9df28"/><g style="fill:#ff8c00"><path d="m 85.1 144.3 c -0.28 -0.78 -0.1 -5.22 -1 -10.44 -0.91 -5.22 -1.63 -11.28 -1.88 -12.1 -1.45 -3.67 -7.25 -2.44 -10.1 -2.84 l 0.12 -1.55 c 0.19 -2.45 9.12 -27.41 12.29 -34.3 0.98 -2.15 1.54 -2.87 2.27 -2.95 2.07 -0.24 16.34 4.35 19.28 6.2 0.86 0.55 0.93 0.98 0.83 5.23 -0.22 8.75 -3.72 40.48 -5.57 50.5 -0.34 2.73 -0.6 5.58 -3.66 5.56 -3.55 -0.63 -11.41 -0.19 -12.58 -3.29 z"/><path d="m 74.6 200.7 c -1.67 -0.89 -4.45 -3.76 -5.18 -5.35 -0.74 -1.61 -0.87 -3.47 -0.31 -4.53 0.5 -0.96 1.8 -0.88 4.27 0.24 1.52 0.86 1.91 1.04 3.29 0.17 2.16 -1.35 2.91 -3.34 1.96 -5.19 -0.22 -0.43 -1.31 -1.84 -2.43 -3.13 -4.58 -5.3 -6.07 -8.39 -5.35 -11.1 0.53 -2 1.73 -3.34 4 -4.48 3.6 -1.79 5.81 -1.61 8.22 0.65 1.13 1.06 1.15 2 0.05 3.29 -0.78 0.92 -1.04 1 -2.93 0.91 -3.6 -0.17 -5.54 1.82 -4.27 4.37 0.31 0.62 1.92 2.66 3.58 4.52 3.31 3.72 3.98 5.11 4.34 9 0.41 4.44 -1.4 9 -4.12 10.51 -1.75 0.53 -3.72 0.79 -5.15 0.07 z"/><path d="m 92.9 207.5 c -1.6 -1.05 -3.31 -2.75 -4.36 -4.36 -0.8 -1.21 -0.74 -3.07 0.17 -4.97 0.95 -1.99 2.06 -2.58 3.29 -1.77 2.39 1.59 5.78 0.91 6.85 -1.37 0.52 -1.11 0.55 -1.53 0.18 -2.91 -0.57 -2.18 -1.59 -3.68 -5.16 -7.68 -2.44 -2.73 -3.1 -3.71 -3.43 -5.12 -1.39 -5.88 3.78 -12.24 9.56 -11.77 1.63 0.13 2.08 0.34 2.97 1.34 1.32 1.77 1.02 3.04 0.16 4.94 -0.3 0.31 -1.62 0.66 -3.06 0.82 -2.81 0.31 -3.27 0.57 -4.1 2.35 -0.79 1.68 -0.46 2.68 1.7 5.14 4.74 5.4 5.7 7.1 6.28 10.84 0.46 3 -0.02 8.39 -0.92 10.31 -0.32 0.69 -1.3 1.92 -2.17 2.73 -2.92 2.74 -5.34 3.18 -7.95 1.48 z"/><path d="m 109.2 210 c -0.42 -0.27 -0.46 -2.56 -0.26 -14.86 0.3 -18.25 0.69 -24.72 1.56 -25.58 0.98 -0.97 2.55 -1.02 3.44 -0.11 0.48 0.48 0.56 1.8 0.56 8.92 0 7.99 -0.81 26.42 -1.28 29.46 -0.33 2.09 -2.39 3.21 -4 2.17 z"/><path d="m 123.9 212.7 c -2.27 -1.2 -4.79 -4.34 -4.79 -5.96 0 -1.13 1.5 -4.82 2.36 -5.78 2.68 -1.14 6.85 0.13 8.38 -2.83 0.76 -1.55 0.8 -4 0.09 -5.41 -0.29 -0.57 -1.86 -2.17 -3.48 -3.54 -4.08 -3.46 -5.39 -5.89 -5.36 -9.97 0.02 -3.46 0.8 -5.48 3.04 -7.95 3.18 -3.5 6.52 -3.99 9.25 -1.35 1.67 1.62 1.63 3.83 -0.12 5.48 -2.14 1.28 -5.24 0.52 -6.2 2.75 -1.05 2.54 -0.29 4.57 2.67 7.22 4.55 4.06 6.41 7.98 6.41 13.49 0 4.22 -1.35 7.68 -4.26 10.91 -2.85 3.16 -5.62 4.18 -7.99 2.93 z"/><path d="m 149.2 209.3 c -3.44 -1.37 -3.99 -3.82 -4.36 -19.42 -0.15 -6.36 -0.38 -10.41 -0.62 -10.81 -0.2 -0.35 -1.97 -0.38 -2.58 -0.58 -1.49 -0.48 -2.21 -1.11 -2.72 -3.53 -0.39 -1.87 0.73 -2.91 1.37 -3.74 0.38 -0.49 1.61 -1.33 2.73 -1.87 2.39 -1.15 8.22 -3 10.2 -3.28 1.26 -0.16 2.51 -1.14 2.82 -0.34 0.45 1.14 2.65 4.05 -0.01 6.86 -1.23 1.68 -2.85 3.18 -3.5 5.06 -0.18 0.77 -0.45 7.73 -0.6 15.46 -0.17 8.85 -0.4 14.37 -0.64 14.92 -0.43 1 -1.36 1.56 -2.09 1.27 z"/><path d="m 160.3 207.4 c -2.05 -1.55 -2.04 -3.05 0.1 -17.99 2.13 -14.94 3.36 -21 4.43 -22.1 0.71 -0.72 1.71 -0.23 2.45 1.23 1.21 2.38 9.77 28.87 9.77 30.2 0 0.46 -1.74 2.83 -3.06 4.17 -0.92 0.94 -1.43 0.63 -2.92 -1.79 -0.8 -1.29 -1.65 -2.34 -1.9 -2.34 -3.96 0.24 -3.88 3.33 -5.25 6.48 -1.4 3.22 -1.84 3.49 -3.62 2.14 z m 8.14 -13.91 l 1.26 -0.6 l -0.21 -2.96 c -0.45 -6.43 -2.35 -11.87 -3.69 -10.51 -0.65 0.66 -1.52 7 -1.53 11.17 v 3.51 c 1.47 -0.01 2.97 -0.18 4.17 -0.6 z"/><path d="m 181.5 200.1 c -0.23 -0.7 -0.61 -3.5 -0.84 -6.21 -0.53 -6.14 -1 -24.52 -0.67 -25.4 0.36 -0.91 1.07 -0.47 5.77 3.53 5.56 4.74 6.56 4.54 5.48 -1.1 -1.15 -6.1 -1.17 -6.85 -0.18 -7.1 1.33 -0.34 3.18 0.46 3.81 1.67 0.31 0.59 0.78 2.3 1.05 3.8 0.54 3.05 2.57 20.24 2.07 20.74 -0.49 0.49 -3.34 -1.32 -5.24 -3.66 -4.1 -5.06 -5.36 -6.32 -6.23 -6.19 -0.78 0.11 -0.85 0.34 -0.79 2.68 0.24 4.83 2.07 8.84 2.36 13.66 -0.28 1.1 -4.48 4.87 -5.43 4.87 -0.48 0 -0.89 -0.45 -1.16 -1.28 z"/><path d="m 206 185.5 c -0.36 -0.59 -0.7 -3.09 -0.97 -7 -0.23 -3.37 -0.68 -6.93 -1.01 -7.91 -0.66 -1.96 0.37 -2.34 -2.11 -1.93 -1.96 0.32 -2.2 0.43 -2.42 0 -0.32 -0.62 -1.96 -1.3 1.86 -4.12 2.26 -1.66 12.26 -7.33 14.1 -6.6 0.7 0.28 -1.69 3.54 -2.34 3.95 -1.32 0.86 -2.07 4.41 -3.06 14.4 -0.6 6.1 -1.06 8.18 -2 9.24 -1.03 1.15 -1.31 1.15 -2 0.01 z"/><path d="m 62.6 190.4 c -1.77 -2.9 -2.06 -5.75 -3.48 -8.86 -0.55 -0.97 -0.81 -1.3 -0.18 -2.81 0.67 -1.6 0.67 -1.91 -0.02 -4.77 -1.02 -4.22 -2.1 -6.38 -3.2 -6.38 -1.51 0 -2.29 1.66 -2.34 5 -0.04 2.6 0.12 3.35 1.11 5.09 l 6.41 0.42 l 0.13 5 c 0.02 0.93 -7.5 -0.38 -7.5 -0.12 0 0.76 -1.49 1.77 -2.61 1.76 -0.57 0 -1.53 -0.35 -2.12 -0.76 -0.96 -0.67 -1.07 -1.01 -1 -3.22 0.07 -2.58 2.11 -11.28 3.64 -15.48 0.96 -2.65 1.67 -3.22 3.96 -3.22 2.31 0 3.48 1.13 4.52 4.38 2.11 6.6 5.6 23.73 5 24.59 -0.45 0.67 -1.41 0.39 -2.33 -0.67 z"/><path d="m 40.94 136.4 c -0.04 -0.23 -0.06 -1.7 -0.04 -3.25 -0.13 -4.5 -0.82 -3.8 -4.2 -3.25 -1.13 -9.1 -3.96 -7.15 4.32 -9.5 -0.03 -2.12 0.01 -3.8 -0.01 -6 -1.79 0.01 -3.13 0.33 -5 0.64 -0.46 -2.79 -0.91 -5.58 -1.37 -8.38 2.17 -0.4 4.35 -0.8 6.52 -1.2 0 -2.42 0 -4.84 -0.01 -7.26 2.52 -0.4 5 -0.86 7.56 -1.18 -0.02 2.45 -0.1 4.43 -0.07 7 2.53 0.09 4 -0.42 7 -0.97 0 -2.42 0 -4.84 -0.01 -7.26 2.52 -0.41 5 -0.82 7.56 -1.24 -0.08 2.41 -0.12 4.83 -0.05 7.23 1.45 0 2.54 -0.26 4.08 -0.51 0.46 2.79 0.91 5.58 1.37 8.37 -1.85 0.35 -3.7 0.7 -5.55 1.05 -0.02 2.1 -0.04 4.42 -0.08 6.29 1.66 -0.27 3.33 -0.54 4.99 -0.82 0.46 2.79 0.91 5.58 1.37 8.38 -2.09 0.39 -4.17 0.77 -6.26 1.16 l -0.05 0.75 c -0.09 2.41 -0.11 4.3 -0.14 6.79 -2.5 0.41 -4.99 0.82 -7.49 1.22 0.02 -2.47 0.14 -4.99 -0.02 -7.44 -0.18 -0.23 -6.72 0.87 -6.83 1.15 -0.07 0.17 -0.22 7 -0.16 7.37 -2.46 0.47 -5.3 1.16 -7.44 0.85 z m 14.76 -20.69 c 0 -1.4 0.01 -2.79 0.03 -4.19 -2.46 0.4 -4.91 0.8 -7.37 1.21 -0.08 2.26 -0.05 4.63 -0.11 6.48 2.48 0.4 3.97 -0.28 7.45 -0.92 0 -0.88 0 -1.79 0 -2.58 z"/></g></svg>