<svg xmlns="http://www.w3.org/2000/svg" viewBox="0 0 256 256"><path d="m 22.96 195.2 c -83.3 -130.2 92.7 -262.1 193.6 -156 95.1 99.9 -7.88 255.2 -130.7 206.7 -25.62 -10.12 -47.63 -26.76 -62.91 -50.66" style="fill:#ededed"/><path d="m 45.83 163.3 c 0 -21.47 0 -42.95 0 -64.4 16.94 -16.27 33.88 -32.54 50.81 -48.82 22.2 0 44.4 0 66.6 0 16.46 16.3 32.92 32.59 49.4 48.89 0 21.83 0 43.66 0 65.5 -18.89 16.47 -32.7 32.68 -50.2 46.4 -22.1 0 -44.3 0 -66.4 0 c -16.72 -15.86 -33.45 -31.71 -50.2 -47.57 z" style="fill:#646464"/><path d="m 108.6 162.6 c -4 -0.41 -6.43 -1.74 -10.33 -5.7 -6.59 -6.7 -9.13 -14.72 -7 -22.2 1.74 -6.27 5.64 -11.24 12.88 -16.42 2.6 -1.86 6.85 -5.36 9.46 -7.78 5.6 -5.19 7.14 -5.96 11.41 -5.65 3.59 0.26 5.93 1.42 8.84 4.4 2.7 2.77 3.25 4.51 3 9.44 -0.31 5.97 -2.37 9.41 -6.88 11.49 -1.73 0.8 -2.83 0.97 -6.12 0.97 -4.59 0 -4.82 -0.1 -10.67 -4.71 -2.06 -1.62 -3.68 -2.61 -4.05 -2.46 -2.32 0.89 -7.54 4.46 -8.56 5.86 -5.8 9.3 -2.8 22.3 8.1 26.3 2.09 0.68 4.59 0.77 25.34 0.91 26.68 0.18 37.84 -0.26 40.89 -1.6 2.33 -1.03 5.18 -3.69 6.67 -6.23 2.51 -4.28 3.12 -10.55 1.44 -14.97 -1.03 -2.72 -3.76 -5.95 -7.41 -8.77 -3.86 -2.6 -3.93 -7.19 -4.4 -10.81 -0.47 -3.69 -1.03 -7.28 -1.23 -7.97 -1.91 -6.57 -7.32 -11.43 -14.57 -13.1 -10.77 -2.35 -13.24 0.88 -18.55 -7.09 -7 -10.56 -12.37 -13.74 -23.74 -14.1 -8.94 -0.31 -12.24 0.59 -17.44 4.76 -5.11 4.09 -9.1 9.67 -11.1 15.6 -1.13 3.3 -2.75 5.18 -8.59 9.94 -6.17 4.98 -8.85 9.93 -3.56 13.86 6.73 4.96 8.81 7.91 8.81 12.56 0.01 3.38 -0.95 6 -3 8.37 -2.07 2.35 -3.97 3.55 -6.83 4.31 -6.31 1.68 -11.13 0.51 -14.87 -5.81 -2.2 -3.73 -2.38 -8.57 0.46 -14.2 0.84 -1.67 4.73 -5.73 4.62 -8.81 -0.36 -9.55 0.85 -11.1 6.16 -15.29 6.92 -5.47 9.26 -9.61 12.5 -15.1 5.67 -9.65 9.4 -13.43 17.1 -17.31 4.46 -2.24 9.38 -2.23 15.7 -2.23 6.59 0 9.8 0.72 14.9 3.33 4.94 2.54 8.51 5.51 13.46 11.22 4.14 4.77 3.28 4.38 12.78 5.91 8.55 1.38 11.84 2.89 16.75 7.67 5.46 5.32 8.3 10.19 8.64 19.24 0.28 7.63 1 7.38 6.28 12.1 1.91 1.71 3.24 5.14 4 6.71 5.12 10.22 3.09 19.88 -5.98 28.44 -4.08 3.85 -6 4.7 -11.51 5.09 -21.2 -0.5 -42.62 1.38 -63.8 -0.04 z m -37.53 -27.58 c 0.78 -0.53 1.87 -1.62 2.42 -2.43 1.8 -2.65 0.68 -6.29 -2.78 -8.96 -1.95 -1.51 -4.19 -1.46 -6.27 0.21 -4.23 3.41 -3.84 5.77 -1.68 8.39 3.05 3.7 5.67 4.58 8.32 2.79 z m 58.6 -19.57 c -1.14 -2.36 -4 -3.33 -5.88 -2.96 -2.98 0.6 -5.83 3.4 -5.83 5.75 0 1.43 1.67 4.08 3.19 5.09 4.7 4.55 12.91 -2.18 8.52 -7.88 z" transform="matrix(0.868 0 0 0.857 18.1 30.2)" style="fill:#fff"/></svg>