<svg xmlns="http://www.w3.org/2000/svg" viewBox="0 0 256 256"><path d="m 48.67 46.2 c -211.4 279.1 369.1 275.1 160 1.13 -37.8 -48.1 -116.4 -71.7 -160 -1.13" style="fill:#c2676b"/><path d="m 7.42 14.45 h -1.8 c -0.14 0 -0.28 0 -0.42 0 -0.05 0 -0.13 0 -0.15 -0.05 -0.04 -0.09 0.13 -0.3 0.18 -0.37 0.2 -0.36 0.39 -0.71 0.59 -1.07 c 0.72 -1.29 1.47 -2.55 2.14 -3.85 0.18 -0.33 0.37 -0.66 0.54 -0.98 0.04 -0.08 0.13 -0.31 0.21 -0.32 c 0.06 -0.01 0.1 0.09 0.13 0.13 0.09 0.15 0.18 0.31 0.25 0.46 0.35 0.64 0.72 1.26 1.07 1.91 0.57 1.04 1.15 2.06 1.73 3.1 0.14 0.24 0.28 0.49 0.42 0.73 0.04 0.06 0.15 0.19 0.1 0.27 -0.08 0.1 -0.48 0.04 -0.59 0.04 h -1.8 v 0.01 c 1.05 0.72 2.08 1.44 3.11 2.16 0.26 0.19 0.54 0.37 0.81 0.57 0.09 0.06 0.23 0.21 0.34 0.21 0.1 0 0.23 -0.15 0.3 -0.22 0.25 -0.21 0.49 -0.4 0.74 -0.6 0.3 -0.24 0.6 -0.49 0.91 -0.75 0.08 -0.06 0.29 -0.18 0.29 -0.28 0 -0.1 -0.11 -0.24 -0.16 -0.32 c -0.15 -0.24 -0.29 -0.5 -0.43 -0.76 -0.52 -0.89 -1.02 -1.79 -1.54 -2.69 -1.25 -2.14 -2.47 -4.29 -3.69 -6.44 -0.39 -0.68 -0.78 -1.36 -1.17 -2.05 -0.25 -0.44 -0.54 -0.86 -0.76 -1.33 l -0.19 0.26 l -0.31 0.55 l -1.2 2.1 l -4.35 7.57 l -1.31 2.29 l -0.34 0.6 l -0.1 0.22 l 0.29 0.27 l 1.64 1.34 l 0.31 0.23 l 0.29 -0.17 l 0.74 -0.51 l 2.12 -1.48 l 0.69 -0.48 z" transform="matrix(8.257 0 0 8.531 55.74 41.3)" style="fill:#fff"/></svg>