<svg xmlns="http://www.w3.org/2000/svg" viewBox="0 0 256 256"><path d="m 229.6 194.9 c 80.4 -97.4 -55.3 -211 -177.1 -192.7 -90.8 12.9 -54.3 270.1 77.6 252.9 39.2 -5.14 73.3 -28.31 99.5 -60.1" style="fill:#90d2ed"/><g transform="matrix(0.874 0 0 0.873 14.2 22.2)"><path d="m 93.7 193.6 c -10.39 -5.68 -20.59 -16.68 -26.56 -28.65 -6 -12.1 -26.87 -88.5 -26.91 -98.7 0.11 -12 15.1 -18 23.2 -12.88 c 6.94 9.21 12.68 22.1 15.72 33.1 l 4.92 -6.72 c 10.46 -7 20.98 -5.56 33.89 -8.66 11.38 -0.78 39.99 1.62 49.2 6.16 8.94 12.37 1.71 27.48 3.13 41.71 13.39 -0.32 40.4 -4.87 50.5 0.03 9.97 5.45 10.29 19.86 3.56 26.3 -12.65 13.25 -38.69 7.16 -49.2 17.61 -22.79 26.2 -35.84 32.84 -81.4 30.75 z" style="fill:#fff"/><path d="m 101.8 200.2 c -12.1 -2.17 -25.49 -13.1 -33.5 -27.2 -5.9 -10.46 -11.68 -27.34 -14.22 -41.51 -1.98 -11.1 -4.97 -23.1 -13.39 -53.67 -4.19 -15.26 -4.44 -19.97 -1.28 -24.66 5 -7.45 13.59 -9.98 21.34 -6.3 8 6.27 11.1 17.23 16.52 31.3 l 0.94 2.42 l 2.4 -3.53 c 1.32 -1.94 3.96 -4.27 5.86 -5.17 3.96 -1.88 15.67 -2.24 18.77 -0.58 1.63 0.87 2.59 0.53 5.41 -1.95 4 -3.54 8.14 -4.49 16.95 -3.93 5.38 0.34 7.1 0.92 10.36 3.57 3.66 2.94 4.19 3.08 7.8 2.09 5.65 -1.56 16.96 -0.52 20.2 1.86 5.43 3.98 6.16 7.11 6.16 26.69 v 17.88 l 3.75 -0.61 c 2.06 -0.34 10.28 -1.35 18.25 -2.26 11.33 -1.29 15.4 -1.4 18.6 -0.52 5.94 1.63 10.44 5 14.25 10.66 3.17 4.71 3.33 5.36 2.98 12.33 -0.54 10.71 -1.13 11.1 -30.53 20.63 l -24 7.78 l -2.73 5.95 c -9.35 23.1 -46 32.3 -70.91 28.79 z m 23 -8.1 c 22.1 -3.05 37 -12.66 42 -27.1 2.15 -6.15 0.93 -5.54 30 -14.94 12.24 -3.95 22.97 -7.7 23.83 -8.34 2.14 -1.56 2.1 -9.86 -0.06 -13.16 -2.04 -3.11 -7 -6.21 -11.27 -7 -3.18 -0.6 -35.42 2.97 -37.3 4.13 -0.53 0.33 -0.96 1.53 -0.96 2.67 0 3.31 -3.74 8.46 -7.42 10.2 -4.56 2.16 -16.64 2.15 -21.2 -0.03 -3.21 -1.52 -3.66 -1.52 -6.68 0.11 -7.33 1.91 -18.59 3.68 -24.2 -1.47 -2.52 -2.37 -3.16 -2.48 -12.45 -2.16 -16.73 0.57 -20 -2.76 -20.1 -20.2 0 -10.46 -0.16 -11.23 -4.42 -22 -2.43 -6.14 -6.52 -16.56 -9.1 -23.2 -2.57 -6.6 -5.61 -13 -6.76 -14.25 -4.41 -4.76 -13.74 -1.14 -13.74 5.33 0 1.47 3.14 13.98 6.99 27.81 3.84 13.82 7.88 30.1 8.98 36.2 2.9 16.1 6.44 27.54 12.21 39.4 6.16 11.81 14.51 23.2 25.85 26.84 7.37 2.33 14.41 2.63 25.64 1.08 z m 8.32 -60.92 c 1.89 -1.89 2 -3.33 2 -27.1 0 -31 0.05 -30.89 -10.68 -30.92 -5.49 -0.01 -6.41 0.28 -8.25 2.62 -1.97 2.51 -2.07 3.86 -2.07 27.55 v 24.91 l 2.45 2.45 c 4.42 3.09 12.54 4.32 16.55 0.45 z m 31 -2.91 v -23 c 0 -27.55 0.2 -27 -10.55 -27 -5.9 -0.12 -7.84 1.3 -11.45 4.91 v 22.59 v 22.59 l 2.45 2.45 c 2.07 2.07 3.41 2.45 8.55 2.45 5.66 0.09 7.52 -1.42 11 -4.91 z m -59.2 -1.65 c 2.18 -1.52 2.22 -1.99 2.22 -22.55 0 -20.95 0 -20.99 -2.45 -23.44 -3.32 -3.32 -12.98 -3.56 -16.36 -0.42 -2.12 1.97 -2.19 2.72 -2.19 23 0 19.63 0.13 21.1 2 22.96 2.56 2.56 13.34 2.85 16.78 0.44 z" style="fill:#575d5f"/></g></svg>