<svg xmlns="http://www.w3.org/2000/svg" viewBox="0 0 256 256"><path d="m 254.9 134.8 c -3.92 -91 -65.6 -159.6 -151.1 -121.7 c -58.7 25.96 -114.5 54.5 -100.5 121.7 13.97 67.2 81.7 121.7 151.1 121.7 69.5 0 103.4 -55.3 100.5 -121.7" style="fill:#ffd600"/><g transform="matrix(0.699 0 0 0.671 14.5 19.71)"><path d="m 161.7 294.9 c -4.56 -1.95 -93.2 -53.4 -96.4 -55.99 -3.75 -3.29 -5.74 -7.22 -7.98 -11.6 l -0.03 -58.86 l -0.03 -58.86 c 2.38 -4.22 4.66 -9.17 8.41 -12.1 5.15 -3.89 95.4 -55.66 97.1 -55.66 12.17 -2.31 9.1 -3.36 18.2 0 1.59 0 83.2 46.65 94.2 53.8 3.56 2.33 6.27 5.15 8.24 8.59 5.33 5.33 2.93 45.53 2.93 64.1 v 59 c -2.72 4.88 -5.87 10.24 -10.22 13.27 -2.34 1.58 -24.51 14.55 -49.3 28.81 l -45 25.93 c -6.34 -0.69 -13.95 1.87 -20 -0.41 z" style="fill:#05af4a"/><path d="m 98.7 214.6 c -1.01 -1.38 -1.3 -10.72 -1.3 -42.47 0 -37.3 0.15 -40.87 1.75 -42.72 1.55 -1.79 72.3 -43.2 73.8 -43.2 0.68 0 64.93 36.91 70.7 40.62 l 3.75 2.41 l -0.02 42.2 c -0.01 23.2 -0.35 42.73 -0.75 43.3 -1.41 2.12 -72.4 42.4 -74.6 42.3 -24.4 -13.56 -51.67 -29.1 -73.4 -42.52 z m 97.4 -8.66 c 5.89 -3.22 6.77 -6.31 6.74 -23.73 -0.03 -17.48 -0.57 -19.1 -7.66 -23.61 -3.55 -2.24 -3.82 -2.75 -3.82 -7.15 -0.02 -13.25 -6.93 -21.24 -18.4 -21.24 -11.41 0 -18.53 7.75 -18.58 20.24 -0.02 5.59 -0.12 5.8 -4 8.25 -7.1 4.46 -7.53 5.9 -7.53 23.47 0 25.2 1.13 26.1 31.5 25.75 15.54 -0.17 19 -0.49 21.73 -1.97 z m -27.2 -32.2 c 2.67 0 5.33 0 8 0 l 0.29 7.84 c 0.4 10.76 1.26 14.81 -5 15.19 -6.32 0.36 -3.53 -16.32 -3.27 -23 z m -4.8 -17.1 c -1.14 -1.14 -0.8 -10.31 0.46 -12.69 3.97 -6 11.65 -5.82 15.29 -1.55 3.46 5.22 2.37 8.22 2.04 14.37 -5.84 -0.1 -12.1 1.02 -17.8 -0.13 z" style="fill:#0b0d0c"/></g><path d="m 107.2 206.1 c -21.29 -11.77 -50.6 -24.94 -51.99 -33.2 c 0 -26.54 0 -53.1 0 -79.6 9 4.74 18 9.48 27.1 14.22 0.52 17 -0.29 31.98 0.16 51.2 l 0.52 5.3 l 11.99 6.98 c 12.32 7.16 27.67 14.4 40.2 21.1 0 8.62 -0.76 16.73 -0.76 25.35 -9.39 1.61 -19.54 -7.17 -27.2 -11.34 z" style="fill:#049642"/></svg>