<svg xmlns="http://www.w3.org/2000/svg" viewBox="0 0 256 256"><path d="m 227.6 199.5 c 152 -243.4 -357.5 -274.5 -194.7 -11.45 43 67.75 152.4 104.1 194.7 11.45" style="fill:#333"/><g style="fill:#f00"><path d="m 56.91 166.3 c -4.54 -0.17 -5.13 -0.51 -5.13 -3.05 0 -1.79 2.5 -14.37 3.56 -17.89 0.92 -3.06 1.87 -4.38 3.34 -4.65 0.69 -0.12 5.26 -0.17 10.15 -0.11 l 8.91 0.11 l 0.13 0.89 c 0.1 0.68 -0.85 3.99 -1.2 4.17 -0.03 0.02 -3.26 0.14 -7.16 0.28 -6.52 0.23 -7.16 0.31 -7.89 1.03 -1 3.13 -4.78 10.64 -2.42 12.96 0.46 0.45 1.42 0.58 4.11 0.58 1.93 0 5.08 0.11 6.98 0.24 l 3.47 0.24 v 1.07 c 0 1.14 -0.85 3.44 -1.38 3.75 -0.48 0.28 -11.14 0.54 -15.47 0.39 z"/><path d="m 83.6 166.2 c -1.38 -0.12 -2.78 -0.45 -3.13 -0.73 -0.98 -0.8 -0.78 -3.42 0.88 -11.51 2.39 -11.66 2.79 -12.56 5.71 -13.1 0.93 -0.18 6.15 -0.33 11.6 -0.34 l 9.9 -0.02 l 0.67 1 c 0.65 0.97 0.65 1.18 0.01 4.93 -0.97 5.7 -2.74 13.74 -3.52 16 -0.99 2.88 -1.91 3.41 -6.64 3.75 -4.41 0.32 -11.76 0.32 -15.49 -0.01 z m 15.84 -6.17 c 0.45 -0.31 0.99 -1.1 1.2 -1.77 0.57 -1.77 1.94 -9.1 1.94 -10.35 0 -1.61 -1.18 -1.91 -7.1 -1.77 -6.19 0.15 -6.23 0.18 -7.3 4.9 -1.7 7.55 -1.78 8.95 -0.48 9.29 3.54 -0.41 8.54 1.71 11.7 -0.31 z"/><path d="m 112.5 166.2 c -0.47 -0.19 -0.85 -0.45 -0.85 -0.57 0 -0.71 4.24 -20.95 4.75 -22.66 0.7 -2.38 1.35 -2.72 4.28 -2.25 4.5 0.38 9.26 0.06 13.1 0.04 10.58 -0.06 9.96 -0.81 7.95 9.63 -0.51 2.66 -1.54 7.29 -2.27 10.28 l -1.34 5.45 l -1.43 0.23 c -0.79 0.12 -1.98 0.12 -2.65 -0.01 -1.21 -0.24 -1.22 -0.25 -1.03 -2.14 0.1 -1.04 0.81 -5.15 1.56 -9.12 0.76 -3.97 1.29 -7.51 1.17 -7.86 -4.31 -1.59 -7.83 -2.17 -13.16 -0.63 -0.72 0.55 -0.88 1.12 -3.12 11.1 -0.94 4.18 -1.92 7.8 -2.19 8 -0.65 0.62 -3.69 0.94 -4.74 0.51 z"/><path d="m 146.8 166.3 c -1.18 -0.11 -1.42 -0.28 -1.42 -0.96 0 -1.12 5.53 -28.2 6.29 -30.75 0.84 -2.86 1.86 -4.35 3.3 -4.79 1.84 -0.57 6.44 -0.91 8.44 -0.62 l 2.85 0.11 l -0.36 1.94 c -0.4 2.19 -1.97 2.5 -4.68 2.69 -2.74 0.19 -3.53 0.9 -3.94 3.53 -0.32 2.07 0.11 2.5 2.84 2.86 2.34 0.3 2.78 0.79 2.29 2.53 -0.51 1.8 -0.89 2.04 -3.94 2.4 l -2.64 0.31 l -0.49 1.67 c -0.27 0.92 -1.1 4.52 -1.84 8 -1.66 7.81 -2.44 10.63 -2.97 10.79 -1.02 0.3 -2.42 0.4 -3.73 0.27 z"/><path d="m 176.5 177.1 l -1.28 -0.15 l 0.19 -1.9 c 0.31 -3.21 0.45 -3.25 10.2 -3.25 h 8.32 l 0.8 -1.77 c 0.78 -1.73 4.8 -20.47 4.83 -22.52 0.02 -1.47 -1.08 -1.76 -6.62 -1.76 -6.59 0 -6.62 0.04 -8.33 9.42 -0.95 5.21 -0.88 5.31 3.89 5.64 2.07 0.15 3.98 0.4 4.25 0.56 0.68 0.41 0.23 2.92 -0.67 3.81 -1.35 1.33 -12.71 1.2 -14.39 -0.16 -0.79 -0.64 -0.49 -3.63 1.21 -12 1.68 -8.32 2.24 -10.23 3.48 -11.67 l 0.97 -1.13 c 7.85 0 15.69 0 23.54 0 l -0.22 2.33 c -0.27 2.78 -3.98 21.2 -5.6 27.86 -1.49 6.1 -1.76 6.37 -6.53 6.7 -3.75 0.26 -15.93 0.29 -18 0.04 z"/><path d="m 52.3 111.3 c -2.63 -1.13 -4.07 -4.07 -4.1 -8.4 -0.02 -3.21 0.71 -5.6 2.26 -7.38 1.55 -1.78 3.3 -2.51 6.79 -2.83 5.37 -0.5 5.87 -0.8 5.87 -3.5 0 -2.14 -1.32 -4.88 -2.65 -5.53 -2.06 -1 -4.74 -0.55 -9.7 1.62 -0.68 0.3 -1.48 -1.97 -0.92 -2.63 1.04 -1.22 3.88 -1.88 8.16 -1.88 4.83 0 6 0.38 7.39 2.31 0.89 1.28 0.96 1.74 1.2 7.9 0.14 3.6 0.29 9.63 0.33 13.42 l 0.08 6.88 l -1.21 0.12 c -1.57 0.15 -2.25 -0.44 -2.54 -2.22 -0.13 -0.8 -0.35 -1.52 -0.49 -1.6 -0.14 -0.08 -1.26 0.69 -2.49 1.72 -1.23 1.03 -2.64 2.02 -3.13 2.21 -1.27 0.48 -3.49 0.39 -4.85 -0.19 z m 5.82 -3.35 c 1.34 -0.69 3.24 -2.69 4.04 -4.26 0.78 -1.52 1.18 -6.19 0.65 -7.53 -0.48 -1.21 -2.49 -1.61 -5.36 -1.08 -3.86 0.72 -5.44 2.83 -5.44 7.27 0 2.94 0.63 4.27 2.57 5.43 1.46 0.63 2.53 0.67 3.54 0.17 z"/><path d="m 74 111.2 c -0.62 -0.16 -0.66 -1.12 -0.66 -13.55 0 -10.61 -0.11 -13.63 -0.53 -14.62 l -0.53 -1.24 c 1.51 -0.48 3.15 -0.97 4.67 -1.13 0.4 1.49 0.46 2.96 1.19 4.28 0.3 0.11 1.46 -0.68 2.74 -1.87 2.21 -2.07 3.66 -2.77 4.81 -2.33 0.45 0.17 0.54 0.49 0.35 1.25 -0.36 1.42 -0.74 1.77 -2.42 2.26 -1.71 0.5 -4.36 3.13 -5.24 5.2 -0.45 1.05 -0.66 3.75 -0.9 11.6 -0.17 5.63 -0.32 10.27 -0.33 10.32 -0.03 0.15 -2.42 0.02 -3.15 -0.16 z"/><path d="m 89.8 107.1 c 0.41 -6.5 -0.05 -22.67 -0.7 -24.2 -0.29 -0.69 -0.52 -1.31 -0.52 -1.38 0 -0.12 1.41 -0.52 3.86 -1.1 0.93 -0.22 1.04 -0.13 1.27 1.08 0.4 2.08 0.96 2.27 2.83 0.94 4.45 -3.17 8.22 -2.82 10.61 0.96 0.93 1.48 0.9 1.48 3.67 -0.82 2.95 -2.45 6.25 -3.05 8.67 -1.58 2.31 1.4 2.45 2.27 2.71 17.1 l 0.24 13.35 c -1.47 0 -2.94 0 -4.41 0 l 0.23 -12.4 c -0.73 -4.43 1.23 -11.32 -1.2 -13.78 -1.98 -1.89 -3.71 -2.15 -5.73 -0.84 -2.56 1.66 -2.74 2.18 -3.08 8.9 -0.17 3.32 -0.31 8.66 -0.32 11.89 l -0.02 5.86 c -1.24 0 -2.48 0 -3.72 0 l -0.15 -11.81 c -0.12 -9.9 -0.25 -12 -0.76 -13.18 -1.2 -2.66 -4.29 -3.2 -6.74 -1.17 -2.37 1.96 -2.41 2.18 -2.67 14.82 -0.13 6.34 -0.27 11.57 -0.3 11.63 -1.42 0.14 -2.51 0.09 -4 0.09 z"/><path d="m 132.6 111.8 c -1.31 -0.16 -3.92 -0.54 -4.3 -0.65 -0.65 -0.2 0.53 -1.19 0.27 -19.25 -0.15 -10.55 -0.42 -19.57 -0.6 -20 -0.31 -0.79 -0.15 -0.94 1.94 -1.83 1.25 -0.53 2.35 -0.97 2.44 -0.97 0.09 0 0.17 1.13 0.17 2.51 0 4.38 0.48 11.93 0.79 12.42 0.21 0.34 0.78 0.03 2.03 -1.1 2.06 -1.87 3.08 -2.29 5.45 -2.29 5.29 0 7.93 5.14 7.53 14.69 -0.2 4.73 -1.28 8.91 -3.04 11.72 -2.41 3.84 -6.82 5.51 -12.69 4.8 z m 6.22 -2.75 c 4.07 -1.99 5.44 -5.51 5.44 -13.93 0 -4.9 -0.09 -5.59 -0.9 -7.3 -0.94 -1.98 -2.39 -3.37 -3.9 -3.74 -1.88 -0.46 -4.48 1.42 -5.61 4.06 -0.69 1.63 -1.45 11.63 -1.26 16.81 0.12 3.33 0.12 3.34 1.4 4.19 1.64 1.08 2.47 1.07 4.83 -0.08 z"/><path d="m 153.4 107.7 c 0.34 -3.52 0.2 -23.38 -0.18 -24.97 0.82 -1.54 3.3 -1.83 4.66 -1.47 0.14 0.31 0.27 5.86 0.29 12.34 0.02 6.48 0.17 13.16 0.34 14.85 l 0.3 3.07 c -1.93 0 -3.86 0 -5.79 0 z"/><path d="m 153.6 76.3 c -1.46 -1.32 -1.49 -3.42 -0.05 -4.97 2.13 -2.3 4.73 -0.83 4.73 2.67 0 3.07 -2.48 4.29 -4.68 2.3 z"/><path d="m 168.6 111.6 c -0.48 -0.09 -1.45 -0.74 -2.16 -1.43 -3.37 -3.3 -3.3 -11.62 0.12 -14.98 1.65 -1.62 3.3 -2.18 7.78 -2.62 1.8 -0.18 3.53 -0.53 3.84 -0.79 0.39 -0.32 0.57 -1.16 0.57 -2.67 0 -5.39 -3.39 -7.13 -9.66 -4.95 -1.46 0.51 -2.76 0.92 -2.9 0.92 -0.25 0 -1.17 -2.28 -0.99 -2.43 1.42 -1.15 5.51 -2.04 9.3 -2 3.91 0.03 5.28 0.55 6.69 2.52 l 1.15 1.61 l 0.24 13.1 c 0.13 7.19 0.11 13.22 -0.05 13.39 -0.16 0.17 -0.86 0.25 -1.56 0.19 -1.17 -0.11 -1.31 -0.27 -1.8 -1.98 -0.29 -1.02 -0.59 -1.92 -0.66 -2 -0.07 -0.08 -1.12 0.73 -2.33 1.8 -1.21 1.07 -2.59 2.09 -3.07 2.28 -1.56 0.28 -3.16 0.32 -4.54 0.07 z m 10.1 -12.39 c 0.23 -3.95 -0.02 -4.25 -3.65 -4.21 -5.15 0.05 -7.53 2.77 -7.18 8.21 0.15 2.29 0.25 2.51 1.73 3.87 5.44 4.41 8.86 -4.55 9.1 -7.87 z"/><path d="m 189.8 111 c -0.17 -0.26 -0.4 -6.66 -0.51 -14.23 -0.11 -7.57 -0.34 -14.1 -0.51 -14.41 -0.33 -0.69 0.29 -1.05 2.65 -1.56 1.08 -0.23 1.2 -0.16 1.53 0.97 0.47 1.61 1.41 1.73 3.11 0.4 3.88 -3.04 9.59 -2.5 11.47 1.08 0.82 1.56 0.85 2.04 1.02 14.72 l 0.17 13.1 h -0.95 c -0.52 0 -1.45 0.1 -2.06 0.22 l -1.11 0.22 l 0.02 -12.4 c 0.03 -13.79 -0.03 -14.16 -2.51 -15.41 -2.05 -1.04 -4.26 -0.54 -6.26 1.42 -1.09 1.07 -1.8 2.16 -2.03 3.11 -0.19 0.8 -0.35 6.35 -0.35 12.34 v 10.88 c -1.26 0.09 -2.6 -0.04 -3.67 -0.47 z"/><path d="m 152.4 214.1 c -0.86 -0.39 -2.06 -1.22 -2.65 -1.84 -2.16 -2.24 -2.33 -4.93 -0.86 -13.1 2.22 -12.37 3.81 -17.7 6.34 -21.28 l 1.41 -1.99 l -0.64 -2.24 c -0.81 -2.82 -0.82 -4.44 -0.02 -5.08 0.37 -0.3 2.14 -0.02 4.12 -0.67 l 1.32 -0.43 c 1.75 -6.74 3.87 -12.44 5.43 -19.23 1.15 -5 2.85 -6.4 1.85 -8.3 -1.38 -2.63 -0.67 -6.46 1.22 -11.55 0.66 -1.79 0.49 -2.43 4.3 -1.47 4.43 1.11 3.54 1.18 2.32 5.91 -1 3.88 -0.94 5.31 -3 7.66 -1.57 1.8 -1.55 6.23 -2.86 11.61 -1.43 5.87 -3.1 16.1 -3.1 16.91 0 0.46 -0.85 -0.57 0.79 0.19 3.15 1.46 4.25 2.33 4.24 3.35 0 0.46 -0.79 2.12 -1.76 3.7 -1.92 3.13 -2.09 4 -1.13 5.81 0.86 1.61 0.59 3.55 -1.99 14.7 -3.22 13.93 -4 15.86 -7.1 17.32 -2.1 1 -6 1.01 -8.21 0.03 z"/></g></svg>