<svg xmlns="http://www.w3.org/2000/svg" viewBox="0 0 256 256"><path d="m 223.5 217.4 c 146.4 -225.4 -253.5 -312.6 -221.6 -80.7 c 12.99 94.6 165.6 167 221.6 80.7" style="fill:#413c6d"/><path d="m 142.4 216.5 c -4.49 -1.72 -5.1 -3.3 -5.1 -13.33 0 -8.26 -0.27 -9.86 -1.78 -10.61 -0.98 -0.49 -6.15 -1.18 -11.48 -1.53 -20.32 -1.33 -35.85 -8.46 -49.62 -22.78 -7.34 -7.63 -12.38 -16 -16 -26.59 -3.56 -13.28 -4 -26.41 -0.01 -38.3 7.26 -21.2 25 -38.9 45.8 -45.62 14.1 -4.56 27.2 -4.58 42.8 -0.07 19.2 5.54 37.94 23.46 45.81 43.81 3.56 14.36 4.8 30.1 -0.37 42.77 -5.52 13.41 -15.1 25.62 -26.76 34.1 -3.17 2.32 -6.11 4.97 -6.52 5.89 -0.41 0.92 -0.93 7.26 -1.15 14.1 -0.49 14.82 -0.81 16.57 -3.12 17.22 -3.37 0.95 -10.95 1.53 -12.48 0.94 z m -6.78 -52.73 c 4.09 -6.82 -0.73 -16.58 2.66 -23.84 1.44 -2.62 10.71 -6.19 15.1 -5.83 5.15 -0.28 3.93 2.6 4.26 6.91 0.28 3.64 0.86 6.95 1.28 7.36 1.4 1.36 5.8 -3.8 8 -9.42 2.95 -7.38 3.27 -23.91 0.61 -31.3 c -4.53 -12.6 -16.68 -23.39 -30.2 -26.81 -31 -7.86 -59.3 16.38 -55.2 47.4 c 2.2 16.91 12.88 29.43 30.1 35.3 7 2.41 20.34 2.52 23.2 0.19 z" style="fill:#fff;fill-opacity:0.97"/></svg>