<svg xmlns="http://www.w3.org/2000/svg" viewBox="0 0 256 256"><path d="m 55 236.5 c 103.1 72.1 249.4 -70.92 184.8 -177.4 -47.5 -91 -185.5 -64.7 -223 19 -29.68 51.68 -18.2 128.2 38.3 158.3" style="fill:#ffd700"/><path d="m 154 280.3 c -51 -8.43 -91.7 -44.54 -103.9 -92.2 -13.49 -52.66 7.2 -106.1 52.94 -136.6 c 7.22 -4.82 26.1 -13.44 34.55 -15.75 76.7 -21 152 27.86 162.4 105.3 2.26 16.82 0.04 38.4 -5.69 55.4 -9.17 26.1 -28.7 49.81 -50.3 64.5 -27.38 16.2 -57.73 24.2 -90 19.42 z m 50.1 -38.74 c 47.4 -11.53 79.5 -56.5 74 -103.9 c -8.29 -71.8 -89.7 -109.5 -151.2 -70.1 -37.79 24.2 -53.65 71.3 -38.2 113.4 c 11.96 32.54 42.4 57.1 77.2 62.5 9.16 1.4 28.62 0.45 38.1 -1.86 z m -47.97 -38.96 c -0.97 -0.95 -0.74 -112.8 0.23 -113.4 0.68 -0.41 97.8 54 99.6 55.84 1.08 1.06 -4.42 4.4 -49 29.76 -54.5 31 -50.1 28.57 -50.85 27.79 z" transform="matrix(0.566 0 0 0.577 28.68 40.55)" style="fill:#2735eb"/></svg>