<svg xmlns="http://www.w3.org/2000/svg" viewBox="0 0 256 256"><path d="m 209.6 225.9 c -153.6 117.3 -312.9 -174.9 -122.9 -217.6 119.7 -43.84 236.6 130.6 122.9 217.6" style="fill:#eeeeec"/><g transform="translate(0.63 3.17)"><path d="m 1.02 84.6 l 122.5 0.52 l 121.3 0.15 c 4 11.75 7.85 21.46 9.37 32.43 h -126.6 h -126.6 c -1.13 -11.26 -1.19 -23.94 0.13 -33.1 z" style="fill:#ff8c00"/><path d="m 2.78 130.6 c 0.12 -0.06 56.97 -0.03 126.3 0.06 l 126.1 0.16 c -0.07 11.79 -2.35 23.29 -4.89 33.1 l -117.8 1.16 h -118.6 c -2.41 -6.18 -12.56 -32.3 -11.14 -34.47 z" style="fill:#9acd32"/><path d="m 43.3 177.6 c -0.43 -0.43 -0.7 -12.71 -0.29 -13 0.1 -0.08 10.9 -0.32 24 -0.53 27.1 -0.44 27.47 -0.52 31.54 -6.3 1.77 -2.51 2.13 -3.78 2.35 -8.15 0.15 -2.91 -0.11 -6.3 -0.59 -7.76 -1.18 -3.58 -4.67 -7.35 -8.41 -9.1 -2.96 -1.37 -4.59 -1.48 -26.1 -1.69 l -22.96 -0.23 v -6.28 c 0 -3.46 -0.08 -6.52 -0.18 -6.81 -0.1 -0.29 9.45 -0.69 21.2 -0.88 20.41 -0.34 21.54 -0.43 24.86 -1.96 1.91 -0.89 4.08 -2.15 4.81 -2.82 4.63 -4.2 5.82 -14.1 2.41 -19.96 -3.35 -5.74 -3.76 -5.82 -30.3 -6.23 l -23.1 -0.35 l 0.16 -5.95 c 0.09 -3.27 0.31 -6.2 0.5 -6.51 0.5 -0.81 42.5 -0.66 48.3 0.18 6.86 1 11.22 3.24 16.45 8.47 3.64 3.64 4.75 5.3 5.78 8.62 1.66 5.35 1.62 11.88 -0.11 17.47 -1.28 4.13 -4.93 9.75 -6.33 9.75 -0.68 0 -9.11 4.95 -9.11 5.35 0 0.14 2.13 1.37 4.73 2.72 7.84 4.07 10.17 6 12.3 10.29 2.77 5.55 3.72 12 2.69 18.3 -1.1 6.68 -2.63 9.43 -8.11 14.58 -5.51 5.17 -7.22 6.12 -14.21 7.92 -4.75 1.22 -7.85 1.37 -28.59 1.37 -12.79 0 -23.47 -0.21 -23.73 -0.47 z m 93.8 -6 c -0.54 -7.09 -0.59 -37.84 -0.08 -48 l 0.32 -6.33 l 31.61 -0.18 l 31.61 -0.18 v 7 v 7 h -23.84 h -23.84 v 16.54 v 16.54 l 24.71 0.01 c 13.59 0 25.1 0.27 25.62 0.59 0.66 0.42 0.85 2.31 0.7 6.85 l -0.2 6.28 l -33.1 0.18 l -33.1 0.18 l -0.49 -6.52 z m 0.21 -86.2 c -0.13 -0.29 -0.12 -3.3 0.01 -6.69 l 0.24 -6.16 h 32.47 c 28.97 0 32.52 0.12 32.9 1.11 0.23 0.61 0.43 3.62 0.43 6.69 v 5.57 h -32.91 c -18.1 0 -33 -0.24 -33.1 -0.53 z" style="fill:#050502"/></g></svg>