<svg xmlns="http://www.w3.org/2000/svg" viewBox="0 0 256 256"><path d="m 123.9 3.13 c 169.7 -19.22 177.1 255.9 5.98 252.7 -158.8 9.1 -183 -267.6 -5.98 -252.7" style="fill:#00707d"/><g transform="matrix(1.024 0 0 0.866 -2.13 18.86)"><path d="m 88.1 204.7 c -7.88 -3.78 -7.54 -0.26 -7.51 -75.6 0.02 -63.6 0.12 -67.1 1.97 -71.1 3.39 -7.23 3.61 -7.27 42.4 -7.27 40.52 0.36 51.78 1.21 31.37 38.49 -4.67 10.24 -23.82 28.71 -24.38 39.94 0 3.22 2.49 8.68 6.91 15.1 1.39 2.03 2.22 4.16 1.85 4.74 7.46 12 18.21 25.34 25.6 38.73 2.22 4.17 1.67 11.14 -1.12 14.17 -4.14 4.5 -6.64 4.79 -40.66 4.79 -30.38 0 -32.36 -0.11 -36.41 -2.05 z" style="fill:#fcc60c"/><path d="m 81.3 198.2 c -1.43 -3.76 -0.89 -136.7 0.13 -139.3 c 3.66 -6 5.61 -5.81 9.57 -8.13 h 32.2 c 34.93 0 35.69 0.11 40 5.61 1.42 1.81 2.09 4.1 2.09 7.21 0 4 -1.08 6.26 -9.2 19.1 -12.1 19.2 -21.55 34.68 -23.9 39.3 -3.26 6.38 -2.21 11 5.15 22.54 1.39 2.18 0.53 3.16 -25.55 29.3 -14.84 14.85 -27.56 27 -28.3 27 -0.7 0 -1.72 -1.15 -2.26 -2.57 z" style="fill:#1e53f4"/><path d="m 112.7 81.6 l -27.38 -27.4 l 3.41 -2.08 c 3.27 -1.99 4.76 -2.08 35.71 -2.08 35 0 35.78 0.1 40.1 5.61 1.44 1.83 2.09 4.09 2.08 7.27 -0.01 4.18 -1.2 6.51 -12.62 24.62 -6.93 11 -12.91 20.33 -13.27 20.73 -0.36 0.4 -12.98 -11.6 -28 -26.67 z" style="fill:#27295a"/></g><path d="m 152.6 165.6 c -21.55 -30.82 -21.89 -31.38 -21.89 -35.1 0 -4 3.33 -9.42 21.43 -34.57 8.1 -11.2 15.25 -21.34 16 -22.54 1.24 -1.99 1.36 2.82 1.39 56.76 0.02 32.42 -0.08 58.94 -0.21 58.94 -0.14 0 -7.65 -10.59 -16.7 -23.54 z" style="fill:#fff"/></svg>