<svg xmlns="http://www.w3.org/2000/svg" viewBox="0 0 256 256"><path d="m 156 8.72 c 237.9 77.7 -17.49 387.4 -138.4 168.7 -51.83 -85.5 16.1 -208.7 138.4 -168.7" style="fill:#ff8c00"/><g style="fill:#fff"><g transform="matrix(0 1 -1 0 0 0)"><path d="m 162.3 -83.4 h 33.92 v 18.4 h -33.92 z"/><path d="m 161.1 -190.3 h 33.92 v 18.4 h -33.92 z"/></g><path d="m 46.57 150.2 h 161 v 18.4 h -161 z"/><path transform="matrix(0.372 0.928 -0.912 0.411 0 0)" d="m 130.6 -133.1 h 80.8 v 13.68 h -80.8 z"/><g transform="matrix(0 1 -1 0 0 0)"><path d="m 50.2 -136.2 h 96 v 32.2 h -96 z"/><path d="m 58.81 -154.6 h 87.4 v 14.37 h -87.4 z"/><path d="m 58.2 -100 h 88 v 19.55 h -88 z"/><path d="m 65.7 -76.5 h 81.1 v 16.1 h -81.1 z"/></g></g><g transform="scale(-1 -1)" style="fill:#ff8c00"><path d="m -136.8 -67.4 h 33.3 v 5.75 h -33.3 z"/><path d="m -136.8 -135.8 h 33.3 v 5.75 h -33.3 z"/><path d="m -150.6 -86.4 h 7.47 v 10.92 h -7.47 z"/><path d="m -93.7 -140.4 h 7.47 v 5.75 h -7.47 z"/><path d="m -93.7 -130.1 h 7.47 v 5.75 h -7.47 z"/><path d="m -71.86 -143.3 h 5.17 v 5.75 h -5.17 z"/><path d="m -71.3 -119.2 h 5.17 v 48.87 h -5.17 z"/><path d="m -93.1 -95 h 5.17 v 29.89 h -5.17 z"/></g></svg>