<svg xmlns="http://www.w3.org/2000/svg" viewBox="0 0 256 256"><path d="m 195.8 229.6 c -130.9 92.1 -263.6 -77.95 -156.9 -186.4 100.5 -102.2 256.7 -7.45 207.9 119.7 -10.18 26.53 -26.91 49.8 -50.95 66.7"/><g transform="matrix(0.919 0 0 0.932 -55.6 -29.77)"><path d="m 63.7 197.6 c -19.53 -5.24 -36.1 -20.81 -42.1 -39.56 c -3.96 -14.1 -2.88 -30.3 2.68 -42.54 7.18 -15.49 19.68 -26.52 36.3 -32 15.45 -4.98 31.7 -1.22 44.93 3.35 8.81 -8.5 18.83 -17.52 28.2 -22.1 10.98 -5.34 17 -6.99 28.1 -7.65 41.77 -2.5 77.7 33.64 74.8 75.2 -2.14 30.39 -21.34 54.4 -51.4 64.3 -7.7 2.53 -25.38 3.18 -33.87 1.25 -9.36 -2.13 -16.7 -5.12 -24.6 -10 l -7 -4.35 l -5.7 3.91 c -21.97 10.73 -34.96 13.52 -50.3 10.27 z" transform="translate(67.97 39)" style="fill:#fff"/><path d="m 138.1 227.1 c -11.47 -2.29 -19.33 -6.67 -27.48 -15.3 -26.41 -27.98 -11.35 -72.2 27.2 -80 10.27 -2.08 18.32 -0.92 30.1 4.33 5 2.22 9.75 4 10.54 4 0.79 0 3.28 -2.49 5.54 -5.53 8.18 -11 18.76 -18.7 31.86 -23.2 17.95 -5.08 37.1 -2.54 54.1 10.65 14.52 11.28 23.39 30.92 22 48.73 -1.36 17.64 -7.98 30.2 -22.2 42.1 -14.26 11.99 -36.2 16.45 -53.1 10.8 -9 -3 -15.71 -6.46 -21.97 -11.29 -2.83 -2.18 -5.71 -3.97 -6.41 -3.97 -7.49 3.96 -12.51 10.18 -20.57 14.17 -9.6 3.32 -20.78 6 -29.8 4.39 z" style="fill:#fd6500"/></g></svg>