<svg xmlns="http://www.w3.org/2000/svg" viewBox="0 0 256 256"><path d="m 218.9 44.77 c -266.4 -201.8 -304.2 353.6 -32.3 175.4 61.99 -40.63 102.9 -121.9 32.3 -175.4" style="fill:#eaf81d"/><g transform="matrix(4.464 0 0 4.327 57.2 60.1)"><path d="m 19,5 -8,8" style="fill:none;stroke:#cbbb2e;stroke-width:6"/><path d="m -13 11 h 8 v 17 h -8 z" transform="scale(-1 1)" style="fill:#cbbb2e"/><path d="m 13,26 c 1,0 1,1 1,1 v 2 H 4 v -2 c 0,-1 1,-1 1,-1 z" style="fill:#d6c84a"/><path d="m 15,27 c 1,0 1,1 1,1 v 2 H 2 v -2 c 0,-1 1,-1 1,-1 z"/><path d="m 19,5 4,4" style="fill:#ff0;stroke:#cbbb2e;stroke-linecap:square;stroke-width:4"/><g transform="scale(-1 1)"><rect rx="0.9" y="2" x="-23" height="8" width="8" ry="0.92" style="opacity:0.2"/><rect rx="1.34" y="10" x="-15" height="12" width="12" ry="1.39" style="opacity:0.2"/><rect rx="1.34" y="9" x="-15" height="12" width="12" ry="1.39" style="fill:#d6c84a"/><rect rx="0.9" y="11" x="-13" height="8" width="8" ry="0.92"/><rect rx="0.67" y="12" x="-12" height="6" width="6" ry="0.69" style="fill:#fff;opacity:0.2"/><rect rx="0.9" y="1" x="-23" height="8" width="8" ry="0.92" style="fill:#d6c84a"/></g><path d="m 25,16 -2,-1 v -4 l 2,-2 h 4 l 1,2" style="fill:none;stroke:#000;stroke-linecap:round;stroke-width:2"/><rect rx="0.45" transform="scale(-1 1)" y="3" x="-21" height="4" width="4" ry="0.46"/><path d="m 3,27 c 0,0 -1,0 -1,1 v 1 c 0,-1 1,-1 1,-1 h 12 c 1,0 1,1 1,1 v -1 c 0,0 0,-1 -1,-1 H 3 z" style="fill:#fff;opacity:0.2"/></g></svg>