<svg xmlns="http://www.w3.org/2000/svg" xmlns:xlink="http://www.w3.org/1999/xlink" viewBox="0 0 256 256"><defs><linearGradient xlink:href="#2" id="9" gradientUnits="userSpaceOnUse" x1="38.4" y1="102.1" x2="33.72" y2="99.8"/><linearGradient xlink:href="#1" id="A" gradientUnits="userSpaceOnUse" x1="17.85" y1="71.2" x2="16.2" y2="67.93"/><linearGradient xlink:href="#2" id="G" gradientUnits="userSpaceOnUse" x1="32.85" y1="31.3" x2="36.85" y2="29"/><linearGradient xlink:href="#1" id="B" gradientUnits="userSpaceOnUse" x1="25.86" y1="65.4" x2="21.1" y2="80.98"/><linearGradient xlink:href="#1" id="C" gradientUnits="userSpaceOnUse" x1="58.99" y1="101.3" x2="63.3" y2="93.9"/><linearGradient xlink:href="#0" id="F" gradientUnits="userSpaceOnUse" x1="103.5" y1="21.85" x2="103.1" y2="27.93"/><linearGradient xlink:href="#0" id="D" gradientUnits="userSpaceOnUse" x1="119" y1="63.1" x2="117.9" y2="78.7"/><linearGradient xlink:href="#0" id="E" gradientUnits="userSpaceOnUse" x1="93.9" y1="45.71" x2="93.1" y2="57.5"/><linearGradient xlink:href="#1" id="8" gradientUnits="userSpaceOnUse" x1="23.51" y1="86.8" x2="32.2" y2="86.7"/><linearGradient id="0"><stop style="stop-color:#008066;stop-opacity:0"/><stop offset="1" style="stop-color:#0fc"/></linearGradient><linearGradient id="1"><stop style="stop-color:#020202"/><stop offset="1" style="stop-color:#020202;stop-opacity:0"/></linearGradient><linearGradient xlink:href="#1" id="7" gradientUnits="userSpaceOnUse" x1="34.6" y1="38.42" x2="26.62" y2="38.4"/><linearGradient id="2"><stop style="stop-color:#001313"/><stop offset="1" style="stop-color:#001313;stop-opacity:0"/></linearGradient><linearGradient xlink:href="#2" id="3" gradientUnits="userSpaceOnUse" x1="14.93" y1="60.86" x2="14.9" y2="63.3"/><linearGradient xlink:href="#1" id="6" gradientUnits="userSpaceOnUse" x1="20.2" y1="61.91" x2="14.56" y2="51.61"/><linearGradient xlink:href="#1" id="4" gradientUnits="userSpaceOnUse" x1="51.3" y1="16.58" x2="44.2" y2="30"/><linearGradient xlink:href="#1" id="5" gradientUnits="userSpaceOnUse" gradientTransform="matrix(0.588 0 0 0.558 -537.6 -849.5)" x1="1022.5" y1="1582.4" x2="1018.6" y2="1575.6"/></defs><path d="m 12.1 175.6 c -96.2 -311.2 420.5 -155.6 178.9 57.66 c -48.4 42.72 -153 26.3 -178.9 -57.66" style="fill:#3e4f80"/><g transform="matrix(1.185 0 0 1.294 48.7 48.1)"><g style="fill:#fff"><path d="M 30.61,15.34 H 87.39 L 73.02,40.24 H 42.23 l -12.83,22.2 13,22.53 h 60.1 L 87.76,110.5 H 29.46 L 1.36,61.75 28.3,15.08"/><path d="M 28.2,15.1 73.02,40.2 87.39,15.3"/><path d="m 42.4,84.99 -13,25.53 h 58.3 l 14.74,-25.53 z"/></g><path d="M 28.2,15.1 73.02,40.2 H 42.23 L 29.4,62.4 42.4,84.93 29.4,110.46 1.3,61.71 28.24,15.04" style="fill:#0cf"/><path d="m 1.25,61.77 28.1,0.69 0.79,1.35 -28,-0.56 z" style="fill:url(#3)"/><path d="M 73,40.2 28.18,15.1 24.77,21.25 58.75,40.09" style="fill:url(#4)"/><path d="M 42,40 87.66,14.22 72.9,38.42" style="fill:url(#5)"/><g style="fill:#fff"><path d="M 42.2,40.2 87.4,15.3 73.03,40.2"/><path d="M 1.25,61.77 42.23,40.24 29.4,62.44"/></g><path d="M 1.25,61.77 42.23,40.24 39.46,35.91 4.16,56.38" style="fill:url(#6)"/><path d="m 42.2,40.2 -14,-25.1 1.2,47.4" style="fill:#fff"/><path d="m 42.4,84.99 45.3,25.53 14.74,-25.53 z" style="fill:#0cf"/><path d="m 28.2,15.1 -3.41,6.15 0.33,41 4.28,0.2 z" style="fill:url(#7)"/><path d="M 29.39,62.5 7.9,73.28 l 21.49,37.3 z" style="fill:#fff"/><path d="m 29.39,62.5 v 48.1 l 5.27,-10.28 0.41,-28.2 z" style="fill:url(#8)"/><path d="m 29.39,110.5 -2.03,-3.65 13.1,-25.2 1.98,3.34 z" style="fill:url(#9)"/><path d="M 7.9,73.2 29.39,62.42 25.11,62.22 6.47,71.13" style="fill:url(#A)"/><path d="M 7.9,73.2 42.4,84.96 29.4,62.43" style="fill:#fff"/><path d="M 42.4,84.99 7.9,73.23 11.65,79.7 40,90" style="fill:url(#B)"/><path d="m 42.4,84.99 45.3,25.53 5.43,-9.67 -29.2,-16.1 z" style="fill:url(#C)"/><g transform="translate(-4.61 -0.68)"><circle r="9.69" cy="75.4" cx="118" style="fill:#0cf"/><circle r="9.69" cy="75.3" cx="118.1" style="fill:url(#D)"/></g><g transform="translate(-0.2 -2.89)"><circle r="7.36" cy="55" cx="93.1" style="fill:#0cf"/><circle r="7.36" cy="54.97" cx="93.2" style="fill:url(#E)"/></g><circle r="3.79" cy="26.66" cx="103.1" style="fill:#0cf"/><circle r="3.79" cy="26.62" cx="103.1" style="fill:url(#F)"/><path d="m 42.2,40.2 -14,-25.1 3.57,-0.05 13.19,23.49" style="fill:url(#G)"/></g></svg>