<svg xmlns="http://www.w3.org/2000/svg" xmlns:xlink="http://www.w3.org/1999/xlink" viewBox="0 0 256 256"><defs><linearGradient id="9"><stop style="stop-color:#020202"/><stop offset="1" style="stop-color:#020202;stop-opacity:0"/></linearGradient><linearGradient xlink:href="#9" gradientUnits="userSpaceOnUse" gradientTransform="matrix(0.086 0 0 0.082 -79.2 -125)" y2="1575.6" y1="1582.4" x2="1018.6" x1="1022.5" id="A"/><linearGradient xlink:href="#E" gradientUnits="userSpaceOnUse" y2="8.96" y1="8.6" x2="0" id="F"/><linearGradient xlink:href="#9" gradientUnits="userSpaceOnUse" y2="4.08" y1="2.11" x2="6.32" x1="7.37" id="B"/><linearGradient xlink:href="#9" gradientUnits="userSpaceOnUse" y2="7.25" y1="8.76" x2="1.97" x1="2.8" id="D"/><linearGradient id="E"><stop style="stop-color:#001313"/><stop offset="1" style="stop-color:#001313;stop-opacity:0"/></linearGradient><linearGradient xlink:href="#9" gradientUnits="userSpaceOnUse" y2="12.4" y1="12.41" x2="4.56" x1="3.29" id="C"/><linearGradient xlink:href="#9" gradientUnits="userSpaceOnUse" y2="5.3" y1="5.31" x2="3.74" x1="4.92" id="8"/><linearGradient xlink:href="#2" gradientUnits="userSpaceOnUse" y2="27.94" y1="21.85" x2="103.1" x1="103.5" id="0"/><linearGradient xlink:href="#2" gradientUnits="userSpaceOnUse" y2="78.7" y1="63.1" x2="117.9" x1="118.9" id="1"/><linearGradient xlink:href="#E" gradientUnits="userSpaceOnUse" y2="14.31" y1="14.66" x2="4.79" x1="5.47" id="7"/><linearGradient id="2"><stop style="stop-color:#008066;stop-opacity:0"/><stop offset="1" style="stop-color:#0fc"/></linearGradient><linearGradient xlink:href="#9" gradientUnits="userSpaceOnUse" y2="13.46" y1="14.54" x2="9.13" x1="8.5" id="3"/><linearGradient xlink:href="#9" gradientUnits="userSpaceOnUse" y2="9.64" y1="10.13" x2="2.2" x1="2.45" id="6"/><linearGradient xlink:href="#E" gradientUnits="userSpaceOnUse" y2="3.93" y1="4.27" x2="5.25" x1="4.66" id="4"/><linearGradient xlink:href="#9" gradientUnits="userSpaceOnUse" y2="11.56" y1="9.27" x2="2.93" x1="3.63" id="5"/></defs><path d="m 12.1 175.6 c -96.2 -311.2 420.5 -155.6 178.9 57.66 c -48.4 42.72 -153 26.3 -178.9 -57.66" style="fill:#2f4f4f"/><g transform="matrix(8.68 0 0 9.445 44.88 46.1)"><path d="m 4.33,1.92 h 8.35 L 10.57,5.57 H 6.04 l -1.89,3.26 1.91,3.31 h 8.83 l -2.17,3.75 H 4.15 L 0.01,8.74 3.97,1.89 z" style="fill:#fff"/><g style="fill:#0a8"><path d="m 3.97,1.89 6.59,3.69 2.11,-3.65 z"/><path d="m 6.1,12.14 -1.91,3.75 h 8.57 l 2.17,-3.75 z"/></g><path d="m 3.97,1.89 6.59,3.69 H 6.03 L 4.14,8.84 6.05,12.15 4.14,15.9 0,8.75 3.96,1.9" style="fill:#0cf"/><path d="M 0.01,8.74 4.15,8.84 4.27,9.04 0.15,8.96 z" style="fill:url(#F)"/><path d="M 10.56,5.58 3.97,1.89 3.47,2.79 8.46,5.55 z" style="fill:url(#B)"/><path d="M 6,5.54 12.71,1.76 10.54,5.32 z" style="fill:url(#A)"/><g style="fill:#0a8"><path d="M 6,5.58 12.64,1.93 10.53,5.58 z"/><path d="m 0.01,8.74 6,-3.16 -1.89,3.26 z"/></g><path d="m 0.01,8.74 6,-3.16 -0.41,-0.64 -5.19,3 z" style="fill:url(#D)"/><path d="M 6,5.58 3.94,1.89 4.12,8.84 z" style="fill:#0a8"/><path d="m 6.1,12.14 6.66,3.75 2.17,-3.75 z" style="fill:#0cf"/><path d="m 3.97,1.89 -0.5,0.9 0.05,6 0.63,0.03 z" style="fill:url(#8)"/><path d="m 4.15,8.84 -3.16,1.58 3.16,5.47 z" style="fill:#0a8"/><path d="m 4.15,8.84 v 7.1 L 4.92,14.43 4.98,10.3 z" style="fill:url(#C)"/><path d="m 4.15,15.89 -0.3,-0.54 1.92,-3.7 0.29,0.49 z" style="fill:url(#7)"/><path d="M 0.99,10.42 4.15,8.84 3.52,8.81 0.78,10.12 z" style="fill:url(#6)"/><path d="M 0.99,10.42 6.06,12.14 4.15,8.83 z" style="fill:#0a8"/><path d="m 6.1,12.14 -5.07,-1.72 0.55,0.95 4.17,1.51 z" style="fill:url(#5)"/><path d="m 6.1,12.14 6.66,3.75 0.8,-1.42 -4.29,-2.36 z" style="fill:url(#3)"/><g transform="matrix(0.147 0 0 0.14 -1.59 -7.45)"><circle r="9.69" cy="75.4" cx="118" style="fill:#0cf"/><circle r="9.69" cy="75.3" cx="118.1" style="fill:url(#1)"/></g><g transform="matrix(0.181 0 0 0.174 -2.31 8.55)"><circle r="3.79" cy="26.66" cx="103.1" style="fill:#0cf"/><circle r="3.79" cy="26.62" cx="103.1" style="fill:url(#0)"/></g><path d="M 6,5.58 3.94,1.89 h 0.53 l 1.94,3.45 z" style="fill:url(#4)"/></g><g transform="matrix(0.458 0 0 0.429 107.8 63.87)" style="fill:#0cf"><path transform="matrix(0.96 0 0 1.043 195.7 -662)" d="m -76 695.7 c -3.27 0 -5.91 2.63 -5.91 5.91 v 13.99 c -4.97 1.25 -9.67 3.22 -13.96 5.79 l -9.89 -9.89 c -2.31 -2.32 -6 -2.32 -8.35 0 l -9.71 9.71 c -2.31 2.32 -2.31 6 0 8.35 l 9.89 9.89 c -2.57 4.29 -4.53 8.99 -5.79 13.96 h -13.99 c -3.27 0 -5.91 2.63 -5.91 5.91 v 13.75 c 0 3.27 2.63 5.91 5.91 5.91 h 13.99 c 1.25 4.97 3.22 9.67 5.79 13.96 l -9.89 9.89 c -2.31 2.32 -2.31 6 0 8.35 l 9.71 9.71 c 2.31 2.32 6 2.32 8.35 0 l 9.89 -9.89 c 4.29 2.57 8.99 4.53 13.96 5.79 v 13.99 c 0 3.27 2.64 5.91 5.91 5.91 h 13.75 c 3.27 0 5.91 -2.63 5.91 -5.91 v -13.99 c 4.97 -1.25 9.67 -3.22 13.96 -5.79 l 9.89 9.89 c 2.32 2.32 6 2.32 8.35 0 l 9.71 -9.71 c 2.31 -2.32 2.31 -6 0 -8.35 l -9.89 -9.89 c 2.57 -4.29 4.53 -8.99 5.79 -13.96 h 13.99 c 3.27 0 5.91 -2.63 5.91 -5.91 v -13.75 c 0 -3.27 -2.64 -5.91 -5.91 -5.91 h -13.99 c -1.25 -4.97 -3.22 -9.67 -5.79 -13.96 l 9.89 -9.89 c 2.31 -2.32 2.31 -6 0 -8.35 l -9.71 -9.71 c -2.32 -2.32 -6 -2.32 -8.35 0 l -9.89 9.89 c -4.29 -2.57 -8.99 -4.53 -13.96 -5.79 v -13.99 c 0 -3.27 -2.63 -5.91 -5.91 -5.91 h -13.75 z m 6.87 46.4 c 13.31 0 24.1 10.78 24.1 24.1 0 13.31 -10.78 24.1 -24.1 24.1 -13.31 0 -24.1 -10.78 -24.1 -24.1 0 -13.31 10.78 -24.1 24.1 -24.1 z" style="fill:#0cf;color:#000"/><path d="m 123.4 173.7 c -15.57 -3.25 -26.51 -14.43 -29.43 -30.1 -0.85 -4.56 -0.6 -11.95 0.56 -16.35 4.91 -18.67 21.71 -31.35 38.59 -29.1 14.22 1.89 25.2 10.6 30.3 23.99 3.18 8.37 3.24 18.84 0.15 27.48 -4.12 11.53 -13.72 20.62 -24.95 23.63 -3.32 0.89 -11.88 1.13 -15.23 0.43 z m 11.17 -16.78 c 7.31 -1.68 13.94 -8.3 15.8 -15.77 0.25 -1 0.45 -3.3 0.45 -5.12 0 -5.85 -1.78 -10.34 -5.82 -14.64 -6.64 -7.08 -16.52 -8.73 -25 -4.18 -12.7 6.81 -15 24.4 -4.59 34.38 5.09 4.86 12.38 6.88 19.2 5.33 z" style="fill:#0a8"/></g></svg>