<svg xmlns="http://www.w3.org/2000/svg" viewBox="0 0 256 256"><path d="m 2.97 157.2 c 15.87 103.3 156.9 131 219.1 57.2 54.8 -54.8 41.2 -159.7 -26.1 -195.7 -77.2 -48.1 -189.7 11.37 -195.8 107.2 -0.63 10.49 0.26 21.1 2.77 31.3 z" style="fill:#881534;color:#000"/><g transform="matrix(5.759 0 0 5.853 -8.78 -5.59)"><circle r="8" cy="23" cx="24" style="fill:#2f2f2f"/><path d="m 24 11 a 13 13 0 1 0 0 26 13 13 0 0 0 0 -26 z m -0.71 7.1 c 0.19 0.67 0.45 1.41 0.71 1.93 0.26 -0.52 0.52 -1.25 0.71 -1.93 a 6 6 0 0 1 3.06 1.29 c -0.29 0.49 -0.57 1.06 -0.77 1.64 0.58 -0.19 1.15 -0.47 1.64 -0.77 a 6 6 0 0 1 1.31 3.05 c -0.68 0.19 -1.42 0.45 -1.95 0.71 0.53 0.26 1.27 0.52 1.95 0.71 a 6 6 0 0 1 -1.31 3.05 C 28.1 27.49 27.58 27.2 27 27 c 0.19 0.57 0.47 1.15 0.77 1.64 a 6 6 0 0 1 -3.06 1.29 c -0.19 -0.67 -0.45 -1.4 -0.71 -1.92 -0.26 0.52 -0.52 1.25 -0.71 1.92 a 6 6 0 0 1 -3.06 -1.29 c 0.29 -0.49 0.58 -1.06 0.77 -1.64 -0.58 0.19 -1.15 0.47 -1.64 0.77 A 6 6 0 0 1 18.1 24.73 C 18.73 24.54 19.47 24.28 20 24 19.47 23.76 18.73 23.5 18.1 23.31 a 6 6 0 0 1 1.31 -3.05 c 0.49 0.29 1.06 0.58 1.64 0.77 -0.19 -0.57 -0.47 -1.15 -0.77 -1.64 a 6 6 0 0 1 3.06 -1.29 z" style="opacity:0.1"/><path d="m 24 10 a 13 13 0 1 0 0 26 13 13 0 1 0 0 -26 m 0 7 a 6 6 0 1 1 0 12 6 6 0 1 1 0 -12" style="fill:#642640"/><path d="m 24,19 c 0.5,-1 1,-2.8 1,-3.4 0,-0.8 -2,-0.8 -2,0 0,0.6 0.5,2.4 1,3.4 z m 0,8 c 0.5,1 1,2.8 1,3.4 0,0.8 -2,0.8 -2,0 0,-0.6 0.5,-2.4 1,-3.4 z m -4,-4 c -1,0.5 -2.8,1 -3.4,1 -0.8,0 -0.8,-2 0,-2 0.6,0 2.4,0.5 3.4,1 z m 8,0 c 1,0.5 2.8,1 3.4,1 0.8,0 0.8,-2 0,-2 -0.6,0 -2.4,0.5 -3.4,1 z M 18,18 c 0,-0.5 0.5,-1 1,-1 0.4,0 1.5,1.5 2,3 -1.5,-0.5 -3,-1.6 -3,-2 z m 0,10 c 0,0.5 0.5,1 1,1 0.4,0 1.5,-1.5 2,-3 -1.5,0.5 -3,1.6 -3,2 z M 30,18 c 0,-0.5 -0.5,-1 -1,-1 -0.4,0 -1.5,1.5 -2,3 1.5,-0.5 3,-1.6 3,-2 z m 0,10 c 0,0.5 -0.5,1 -1,1 -0.4,0 -1.5,-1.5 -2,-3 1.5,0.5 3,1.6 3,2 z" style="fill:#b19b81"/><path d="m 24 9 a 15 15 0 0 0 0 30 15 15 0 0 0 0 -30 z m 0 3 a 12 12 0 0 1 3.74 0.61 C 27.34 13.7 27 15.34 27 17 c 1.28 -1.28 2.19 -2.56 2.75 -3.53 a 12 12 0 0 1 4.75 4.8 c -0.97 0.55 -2.23 1.46 -3.5 2.73 1.64 0 3.27 -0.34 4.36 -0.73 a 12 12 0 0 1 0 7.47 C 34.3 27.34 32.64 27 31 27 c 1.27 1.27 2.53 2.18 3.5 2.73 a 12 12 0 0 1 -4.75 4.8 C 29.2 33.56 28.3 32.3 27 31 c 0 1.66 0.34 3.3 0.74 4.39 A 12 12 0 0 1 24 36 12 12 0 0 1 20.26 35.39 C 20.66 34.3 21 32.66 21 31 c -1.28 1.28 -2.19 2.56 -2.75 3.53 a 12 12 0 0 1 -4.75 -4.8 c 0.97 -0.55 2.23 -1.46 3.5 -2.73 -1.64 0 -3.28 0.34 -4.36 0.74 a 12 12 0 0 1 0 -7.47 C 13.73 20.67 15.36 21 17 21 15.73 19.73 14.47 18.82 13.5 18.27 a 12 12 0 0 1 4.75 -4.8 C 18.8 14.44 19.72 15.72 21 17 21 15.35 20.66 13.7 20.26 12.61 A 12 12 0 0 1 24 12 z" style="opacity:0.1"/><path d="m 20,11 c 0.5,1 1,3 1,5 -1.5,-1.5 -2.5,-3 -3,-4 z m -8,8 c 1,0.5 3,1 5,1 -1.5,-1.5 -3,-2.5 -4,-3 z m 8,16 c 0.5,-1 1,-3 1,-5 -1.5,1.5 -2.5,3 -3,4 z m -8,-8 c 1,-0.5 3,-1 5,-1 -1.5,1.5 -3,2.5 -4,3 z M 28,11 c -0.5,1 -1,3 -1,5 1.5,-1.5 2.5,-3 3,-4 z m 8,8 c -1,0.5 -3,1 -5,1 1.5,-1.5 3,-2.5 4,-3 z m -8,16 c -0.5,-1 -1,-3 -1,-5 1.5,1.5 2.5,3 3,4 z m 8,-8 c -1,-0.5 -3,-1 -5,-1 1.5,1.5 3,2.5 4,3 z" style="fill:#fee0ba"/><path d="m 24 8 a 15 15 0 1 0 0 30 15 15 0 1 0 0 -30 m 0 3 a 12 12 0 1 1 0 24 12 12 0 1 1 0 -24" style="fill:#c20a2d"/></g></svg>