<svg xmlns="http://www.w3.org/2000/svg" viewBox="0 0 256 256"><path d="m 229.6 196 c 92.1 -130.6 -77.95 -262.9 -186.4 -156.5 -102.2 100.2 -7.45 256 119.7 207.4 c 26.53 -10.15 49.8 -26.84 66.7 -50.82" style="fill:#483d8b"/><g transform="matrix(-0.577 0 0 0.568 201 57.78)" style="fill:#eaf81d"><path d="m 128.9 200.8 c 0 -34.59 0.31 -63.2 0.68 -63.6 0.37 -0.37 20.53 19.43 44.79 44 l 44.1 44.69 l -4.18 3.85 c -20.28 18.69 -48.3 30.62 -78.2 33.3 l -7.25 0.64 v -62.89 z" style="fill:#9400d3"/><g style="fill:#1e90ff"><path d="m 22.41 212.9 c -15.26 -18.39 -25 -39.58 -28.1 -61.1 -2.57 -9.74 -2.82 -10 -3.31 -20.39 h 61.83 c 38.2 0 61.71 0.36 61.5 0.94 -0.48 1.37 -84.9 87.1 -85.7 87.1 -0.4 0 -3.17 -2.95 -6.16 -6.55 z" style="fill:#ffa500"/><path d="m 178.9 174.9 l -43.1 -43.75 l 62.8 -0.5 c 34.54 -0.28 62.87 -0.5 62.96 -0.5 0.09 0 -0.2 3.82 -0.65 8.5 -2.17 22.88 -10.91 46.94 -23.42 64.4 -6.1 8.45 -12.51 15.6 -14.1 15.6 -0.73 0 -20.74 -19.69 -44.5 -43.75 z"/></g><g style="stroke-width:0.11"><path d="m 129.9 119.3 c -0.12 -0.22 -0.03 -11.41 0.19 -24.86 0.23 -13.45 0.43 -41.82 0.45 -63 l 0.04 -38.57 h 1.99 c 6.93 0.01 23.72 3.19 33.37 6.3 10.99 3.55 24.49 10.18 34.43 16.91 5.17 3.5 14.19 10.72 16.58 13.27 l 1.55 1.66 l -1.55 1.21 c -6 4.71 -75.8 75.1 -82.92 83.6 -3.16 3.79 -3.72 4.27 -4.14 3.49 z" style="stroke:#ffdab9"/><path d="m 51.71 123.6 c -47.2 -0.12 -59.5 -0.29 -59.5 -0.82 0 -2.06 1.69 -15.42 2.54 -20.1 4.71 -25.71 15.63 -48.66 31.1 -65.3 l 3.79 -4.09 l 42.3 44.59 c 23.26 24.52 42.3 44.87 42.3 45.2 0 0.34 -0.69 0.63 -1.53 0.64 -0.84 0.01 -28.3 -0.05 -61 -0.14 z" style="fill:#ffd700;stroke:#fff"/><path d="m 114.5 262.9 c -20.31 -1.45 -41.1 -7.99 -57.4 -18.1 -6.58 -4.06 -15.44 -10.6 -19.66 -14.52 l -3.97 -3.69 l 28.97 -29.45 c 15.93 -16.2 35.79 -36.1 44.1 -44.3 l 15.2 -14.85 l 0.33 15.59 c 0.18 8.57 0.36 36.82 0.4 62.76 0.06 37.46 -0.06 47.2 -0.59 47.1 -0.37 -0.04 -3.66 -0.29 -7.31 -0.55 z" style="fill:#f00;stroke:#f00"/><path d="m 98.1 95.2 c -23.82 -23.79 -61.2 -62.2 -62.6 -64.3 1.1 -6.65 14.24 -14.24 21.52 -18.64 7.92 -4.72 22.5 -10.99 31.3 -13.46 c 9.86 -2.76 25.93 -5.58 31.84 -5.58 h 2.09 l -0.32 60.88 c -0.18 33.49 -0.48 61.4 -0.67 62.1 -0.19 0.67 -0.5 1.21 -0.69 1.2 -0.19 0 -10.32 -9.98 -22.53 -22.2 z" style="fill:#ff0;stroke:#ff7f50"/><path d="m 184.2 123.4 c -22.96 -0.23 -42.78 -0.57 -44 -0.75 l -2.28 -0.34 l 4.41 -4.91 c 6.66 -7.42 53.72 -55.3 68.2 -69.4 l 12.74 -12.39 l 3.67 4 c 4.78 5.2 12.24 15.22 15.38 20.66 6.51 11.28 12.36 26.79 15.3 40.59 0.66 6.86 5.1 15.44 2.88 22.27 -0.37 0.97 -3.47 0.98 -76.3 0.26 z" style="fill:#9acd32;stroke:#ffa07a"/></g></g></svg>