<svg xmlns="http://www.w3.org/2000/svg" viewBox="0 0 256 256"><path d="m 226.9 44.93 c 62.6 96.2 12.1 183.9 -58.81 204.8 c -95.4 27.98 -224.9 -45.58 -139.5 -197.1 33.92 -60.2 153.7 -76.2 198.4 -7.63" style="fill:#4169e1"/><g style="fill:#564570"><path d="m 74 178.3 c -0.45 -0.31 -1.12 -1.44 -1.49 -2.5 -0.6 -1.73 -0.67 -3.58 -0.67 -17.48 0 -15.36 -0.01 -15.58 -0.89 -18.1 -1.12 -3.26 -1.49 -9.16 -0.8 -12.5 0.65 -3.1 2.29 -6.62 4.06 -8.72 0.8 -0.95 2 -0.34 2.14 -0.65 2.63 4.2 5.26 8.7 6.95 13.52 0.05 1.41 -0.74 2.74 -0.92 4.07 -0.38 3.05 -1.88 5.74 -4.97 8.92 l -2.76 2.85 c 0.73 4.25 1 12.84 1.54 17.7 2.73 0.29 2.95 0.1 5.41 1.78 1.33 0.46 -3.2 8.24 -4.17 10.88 -0.64 0.99 -2.21 1.11 -3.43 0.26 z"/><path d="m 184.8 177.8 c 0.45 -0.31 1.12 -1.44 1.49 -2.5 0.6 -1.73 0.67 -3.58 0.67 -17.48 0 -15.36 0.01 -15.58 0.89 -18.1 1.12 -3.26 1.49 -9.16 0.8 -12.5 -0.65 -3.1 -2.49 -6.46 -4.06 -8.72 -1.96 -2.82 -5.26 -0.81 -5.38 -1.12 -2.63 4.2 -2.25 6.83 -3.94 11.65 -0.05 1.41 0.98 5.08 1.15 6.41 0.38 3.05 1.88 5.74 4.97 8.92 l 2.76 2.85 c -0.73 4.25 -1 12.84 -1.54 17.7 -3.61 -0.26 -1.31 -0.92 -5.41 1.78 -1.33 0.46 3.2 8.24 4.17 10.88 0.64 0.99 2.21 1.11 3.43 0.26 z"/></g><g transform="matrix(0.721 0 0 0.72 34.49 33.48)"><path d="m 119.3 242.4 c -19.29 -7.39 -33.3 -32.3 -39.65 -72.1 -2.18 -13.7 -2.62 -45.89 -0.83 -60.2 3.72 -29.8 12.14 -53.81 24.2 -69.1 22.2 -28 49.92 -19.1 67.4 21.58 7 16.44 11.62 38 12.88 60.75 3.07 55.2 -13.34 103.9 -38.72 118.6 -8.99 2.94 -18.1 2.89 -25.2 0.45 z" style="fill:#fff"/><path d="m 115.5 80.4 c -1.54 -6.32 4.95 -8.24 8.46 -13.84 0 -0.82 1.99 -2.79 6.75 -2.79 5.39 0 6.72 1.98 7.22 3.56 1.62 1.67 13.2 12.18 8.67 12.65 -2.08 1.06 -2.93 4.45 -4.62 6.16 -3.5 -2.23 -7.31 -4.47 -10.81 -6.7 -3.13 1.87 -5.37 3.32 -8.43 5.3 -2.92 0.92 -4.9 -3.03 -7.25 -4.34 z" style="fill:#ff8c00"/><g style="fill:#0b0"><g transform="matrix(1.254 0 0 1.267 -31.62 -28.68)"><path d="m 102.2 173.8 c -1.2 -1.81 -2 -4.3 -3.94 -5.21 -5.31 0.09 -7.15 2.54 -10.86 5.79 -5.4 -3.14 -10.1 -4.97 -14.55 -8.37 l 1.74 -7.71 c 2.65 -11.75 4.48 -18.1 5.2 -18.1 0.36 0 3.65 1.55 7.32 3.45 7.83 4.05 8.19 4.04 15.63 -0.35 l 5.15 -3.04 l 1.26 1.82 c 3.25 4.68 12.26 21.74 12.24 23.2 -6 5.2 -10.8 7.71 -17.42 11.38 -0.59 -0.93 -1.17 -1.86 -1.76 -2.79 z"/><path d="m 131.4 162.2 c -7 -7.12 -10.83 -17.5 -15.51 -26.46 l 2.35 -2.03 c 3.27 -2.82 10.77 -7.16 11.34 -6.56 0.72 0.76 5.3 30.86 5.3 34.86 0 2 -0.32 2.03 -3.48 0.2 z"/><path d="m 145.6 126.3 c -7.2 -4.3 -13.57 -8.1 -14.17 -8.4 -0.77 -0.42 -3.69 0.85 -10.35 4.48 -5.1 2.78 -9.63 4.92 -10.1 4.75 -0.44 -0.17 -1.15 -1.46 -1.58 -2.86 -0.99 -3.22 -1 -3.2 7.55 -9.2 3.72 -2.61 7.44 -5.36 8.28 -6.11 1.8 -1.62 2.04 -5.22 0.44 -6.82 -0.98 -0.98 -1.37 -0.91 -4.54 0.84 -1.91 1.05 -5.83 3.38 -8.71 5.18 -5.82 3.63 -6.77 3.52 -6.42 -0.73 0.2 -2.49 0.56 -2.85 7.92 -8 6.32 -4.44 7.81 -5.8 8.27 -7.61 1.57 -3.34 3.73 -4.21 6.78 -6.15 l 4.44 2.34 c 2.44 1.29 9.29 5.33 15.21 8.99 l 10.77 6.64 l 0.18 14.26 c 0.1 7.84 -0.07 14.7 -0.37 15.25 -0.45 0.8 -3.12 -0.54 -13.65 -6.83 z"/></g><path d="m 176.8 137.5 c -0.26 -0.68 -0.08 -7.91 0.4 -16.1 0.86 -14.79 0.88 -14.85 3.45 -16.91 3.85 -3.08 17.43 -9.76 18.23 -8.97 1.25 1.25 0.8 26.1 -0.53 29.3 -6.32 6.86 -11.51 9.47 -20.56 13.88 -0.28 0 -0.72 -0.55 -0.98 -1.23 z"/><g transform="matrix(1.254 0 0 1.267 -31.62 -28.68)"><path d="m 151.3 174.5 c -7.37 -4.06 -7.28 -3.94 -8.19 -11.31 -1.15 -9.3 -1.07 -12.16 0.37 -12.9 0.65 -0.33 4.06 -1.29 7.57 -2.13 7.83 -1.87 12.62 -4.06 21.28 -9.75 3.66 -2.41 7.14 -4.38 7.73 -4.39 0.67 -0.01 1.37 0.98 1.86 2.62 1.81 4.3 5.53 7.59 8.3 11.34 -1.16 4.12 0.34 15.6 -3.22 17.94 -5.39 3.06 -9.59 5.35 -15.24 8.46 l -3.46 -2.92 c -8.88 -5.68 -8.98 -0.81 -13.38 4.95 -1.44 -0.71 -2.48 -1.29 -3.63 -1.92 z"/><path d="m 140.7 142.4 c -0.25 -0.65 -0.64 -3 -0.88 -5.22 -0.4 -3.78 -0.34 -4 0.86 -3.56 1.59 0.6 7.45 4.11 9.71 5.81 l 1.67 1.26 l -2.36 0.98 c -1.3 0.54 -3.75 1.19 -5.46 1.45 -2.6 0.39 -3.18 0.27 -3.56 -0.72 z"/><path d="m 86.8 133.8 l -8 -4.15 l -1.76 -5.57 c -1.3 -4.12 -2.41 -6.23 -4.24 -8.11 -3.26 -2.44 -2.47 -5.09 -2.47 -8.9 0.01 -9.67 0.68 -15.46 1.81 -15.46 0.68 0 22.73 10.96 23.53 11.69 0.05 0.05 1.63 6.6 3.5 14.55 3.39 14.39 3.4 14.47 2.09 15.87 -1.97 1.84 -4 2.92 -6.36 4.23 -2.68 -1.38 -5.36 -2.77 -8 -4.15 z"/></g></g><path d="m 139.1 166.3 c -1.57 -1.11 -2.99 -2.69 -3.16 -3.5 -0.16 -0.81 -1.36 -9.18 -2.65 -18.58 -2.2 -15.98 -2.75 -18.2 -4.56 -18.23 -0.94 -0.02 -12.76 8.14 -13.1 9.1 -0.21 0.54 2.54 6.59 6.11 13.45 l 6.49 12.47 c -1.64 1.04 -3.36 2.1 -5.17 2.71 -0.4 0 -3.43 -4.84 -6.73 -10.77 -3.3 -5.92 -6.5 -11.43 -7.11 -12.24 l -1.11 -1.47 c -4.41 2 -8.47 5.83 -13.2 6.98 -5.71 -1.47 -9.53 -5.27 -15.44 -6.73 -0.9 0 -3.07 7.26 -5.54 18.51 -2.09 9.52 -2.82 9.2 -3.44 -1.5 l -0.43 -7.48 l 2.89 -5.38 c 2.12 -3.96 6.1 -7.43 6.1 -10.12 0 -0.66 0.19 -1.4 0.42 -1.62 0.23 -0.23 3.71 1.24 7.75 3.26 7.08 3.55 7.4 3.64 9.51 2.73 2.61 -1.26 4.54 -2.97 6.72 -4.83 l -3.11 -13.27 c -1.71 -7.3 -3.11 -13.82 -3.11 -14.49 0 -0.76 1.07 -1.74 2.86 -2.62 1.57 -0.77 7.55 -3.04 11.95 -6.87 7.41 -6.46 8.63 -7.53 8.8 -6.73 0.33 1.56 -0.23 4.87 -8.22 10.39 l -7.31 5.1 c -0.01 2.22 -0.17 4.85 0.97 6.66 1.15 0.96 1.41 0.84 10.55 -4.76 3.56 -2.18 6.96 -3.96 7.56 -3.96 1.34 0 2.25 3.16 1.33 4.65 -0.65 1.05 -4.35 3.93 -13.33 10.36 -4.08 2.92 -4.47 3.4 -4.09 5 0.81 3.47 1.89 5.52 2.91 5.52 0.56 0 4.94 -2.12 9.73 -4.71 4.79 -2.59 9.1 -4.71 9.58 -4.71 0.48 0 6.29 3.26 12.91 7.25 12.8 7.71 15.67 9.21 16.34 8.54 0.23 -0.23 0.61 -6.68 0.85 -14.33 0.24 -7.65 0.47 -14.43 0.5 -15.1 0.1 -1.64 26.34 -14.38 27.1 -13.17 0.3 0.47 0.55 5.57 0.55 11.35 l 0.01 10.5 c -1.22 0.58 -2.47 1.13 -3.73 1.56 -0.17 0 -0.3 -2.38 -0.3 -5.29 0 -7.5 -0.64 -11.54 -1.84 -11.54 -1.17 0 -11.95 5.54 -14.27 7.34 -1.57 1.21 -1.66 1.71 -2.13 11.94 -0.51 11.15 -0.29 14.38 0.99 14.38 0.42 0 3.34 -1.51 6.48 -3.35 3.14 -1.84 5.95 -3.36 6.23 -3.37 0.63 -0.02 1.67 5.25 0.8 6.94 -0.7 1.37 -13.44 8.66 -19 11.5 -1.97 1 -7.11 2.72 -11.42 3.81 -4.31 1.1 -8.12 2.28 -8.47 2.63 -0.75 0.75 -0.66 5 0.25 11.32 0.04 6.9 1.22 7.91 -3.19 4.79 z m 8.27 -23.2 c 5.46 -1.42 5.86 -2 3 -4.43 -3.61 -3.07 -9.34 -6.15 -10.55 -5.68 -0.9 0.34 -1 1.11 -0.66 4.47 0.5 4.74 1.37 6.69 3 6.69 1.9 -0.26 3.62 -0.64 5.19 -1.04 z" transform="matrix(1.254 0 0 1.267 -31.62 -28.68)" style="fill:#ff0"/><g style="fill:#ff8c00"><path d="m 177.9 242 c -2.6 -0.45 -6.58 -4.48 -9.83 -9.99 -3.57 -6 -4.46 -10.85 -4.47 -24.2 -0.78 -7.14 -1.57 -13.76 1.73 -19.75 4.1 -7.44 7.51 -5.73 15.57 2 3.33 4.12 4.83 0.25 9 -2.12 6.48 -3.68 8.38 -1.91 10.21 0.92 1.07 1.66 2.97 9.89 2.99 12.99 0 0.37 2.67 0.56 5.92 0.44 4.91 -0.19 6.24 0.07 7.82 1.51 4.31 3.96 -0.79 14.91 -12.73 27.33 -8.3 8.64 -17.36 12.4 -26.2 10.89 z"/><path d="m 74.89 241.9 c -8.48 -2.21 -18.25 -10.62 -25.97 -22.35 -4.82 -7.33 -5.98 -11.46 -4.06 -14.45 1.39 -2.16 7.13 -4.42 7.92 -3.13 0.63 1.04 5.26 1.01 5.9 -0.03 0.27 -0.45 0.9 -3.08 1.4 -5.85 1.28 -7.17 2.79 -9.26 6.27 -8.68 1.52 0.25 4.75 1.69 7.17 3.21 4.49 3.52 5.58 0.33 9.53 -3.2 4.57 -4.08 6.7 -3.43 8.94 -2.56 0.69 0.27 2.41 2.82 3.83 5.68 2.48 4.99 2.59 5.7 2.84 18.25 0.14 7.18 -0.04 13.1 -0.41 13.1 -0.37 0 -0.68 0.68 -0.68 1.52 0 2.61 -4.87 11.78 -8.1 15.17 -4.28 3.93 -8.88 4.76 -14.62 3.36 z"/></g></g><g style="fill:#564570"><path d="m 113.4 210.7 c -3.64 -0.45 -14.1 -3.16 -15.52 -4 -0.16 -0.1 0.63 -1.2 1.76 -2.46 2.14 -2.38 4.51 -6.75 4.93 -9.1 0.45 -2.49 0.68 -2.58 3.09 -1.19 3.76 2.17 6.6 3.45 9.1 4.08 5.12 1.32 19 1.31 24.1 0 4.86 -1.18 7.23 -3.91 11.42 -5.1 0.12 0.12 0.48 1.23 0.8 2.46 0.76 2.93 2.72 6.42 5.07 9 1.04 1.15 1.76 2.16 1.59 2.25 -13.74 4.74 -33.52 5.23 -46.3 4 z"/><path d="m 136.8 94.7 c 1.65 -1.52 5.1 -4.21 5.88 -4.21 1.74 -0.01 4.7 -1.69 6.47 -3.68 2.62 -2.94 3.74 -7.4 3 -11.97 -1.33 -8.31 -7.19 -13.16 -12.68 -10.48 -3.53 1.72 -5.61 5.66 -6.2 11.72 -0.45 4.68 -0.51 4.84 -1.45 3.97 -1.03 -0.94 -4.94 -0.96 -5.96 -0.03 -0.4 0.36 -0.82 0.5 -0.93 0.31 -0.12 -0.19 -0.38 -2.04 -0.57 -4.1 -0.56 -5.79 -2.11 -9.1 -5.3 -11.34 -1.92 -1.35 -5.26 -1.75 -6.99 -0.84 -5.74 3 -8.46 12.96 -5.42 19.88 1.63 3.72 3.75 5.51 7.61 6.41 1.28 0.3 2.42 0.67 2.53 0.82 1.17 0.96 2.36 1.6 3.4 2.69 -6.49 3.87 -13.68 12 -21.1 14.1 -1.15 0 -4.78 -2.37 -6.41 -3.68 -1.94 -4.37 0.06 -12.1 0.6 -17 1.38 -13 2.43 -17.36 5.78 -23.87 3.56 -5.86 8.18 -10.83 13.6 -13.54 6.12 -3 13.55 -4.45 19.46 -3.71 9.43 1.18 15.6 4.16 21.39 10.36 4.6 4.92 7.47 10.7 9.17 18.45 1.84 8.23 1.2 15.78 3.36 24.1 0.9 3.29 0.91 3.28 -4.92 6.23 l -4.37 2.21 c -5.82 -5.12 -15.1 -8.36 -19.95 -12.81 z"/></g><g style="fill:#392a51"><path d="m 136.7 77.92 c 0 -5.78 3.6 -9.9 7.08 -8.1 3.24 1.69 4.71 7.24 2.88 10.84 -0.95 1.86 -3.77 3.79 -5.54 3.79 -2.87 -1 -4.4 -4.36 -4.42 -6.55 z"/><path d="m 115.9 84.4 c -2.22 -0.75 -4.38 -2.57 -5.16 -4.36 -2.05 -4.68 1.34 -11.41 5.26 -10.46 2.76 0.67 4.49 3.22 4.86 7.13 0.47 3.15 -1.82 8.69 -4.95 7.69 z"/></g></svg>