<svg xmlns="http://www.w3.org/2000/svg" viewBox="0 0 256 256"><path d="m 154.6 251.1 c 130.6 -19.62 134.4 -214.8 7.56 -244.3 -102.8 -30.37 -186.7 79.6 -153 161.8 15.94 55.1 80.97 99.6 145.5 82.5" style="fill:#f8f8ff"/><g transform="matrix(0.987 0 0 0.989 0.02 0.02)"><path d="m 93.3 198 c -6.23 -0.61 -14.57 -1.94 -27.8 -4.44 -7.93 -1.5 -15.39 -2.62 -16.57 -2.49 -1.58 0.17 -2.4 -0.14 -3.07 -1.17 -2.26 -3.47 -9.54 -15.83 -9.54 -16.19 0 -0.22 7.34 1.71 16.3 4.28 26.48 7.59 31.96 8.84 40.3 9.25 13.52 0.66 22 -2.17 28.95 -9.63 3.87 -4.17 11.1 -15.22 10.39 -15.91 -0.19 -0.19 -3.24 2 -6.8 4.87 -7.82 6.31 -13.79 9.87 -20.2 12 -4.23 1.44 -6 1.64 -15.1 1.63 -11.7 0 -14.69 -0.55 -32.61 -6 -9.39 -2.85 -12.3 -3.46 -17 -3.52 l -5.68 -0.08 l -1.38 -3.68 c -4.59 -12.26 -6.45 -24.34 -5.94 -38.54 0.39 -10.59 2.47 -23.25 4.73 -28.81 l 0.95 -2.34 c 2.8 3.98 7.4 7.28 9.3 11.82 2.16 7 1.84 14.44 5.15 21.2 2.32 4.58 9 11.42 14.16 14.51 14.21 8.49 35.39 8.16 45.5 -0.7 3.94 -2.57 3.15 -4.68 2.98 -9.1 -0.3 -7.64 -1.71 -10.99 -8.66 -20.55 -5.8 -7.97 -7.61 -11.54 -8.14 -15.99 -1.04 -8.8 4.97 -16.92 15.48 -20.92 5.77 -2.19 17.2 -2.04 30.61 0.4 13.45 2.45 17.73 2.18 30.1 -1.96 11.86 -3.97 18.3 -5.22 31.97 -6.2 l 11.28 -0.81 l 2.68 3.4 c 5.27 6.66 13.74 22.97 15.37 29.56 l 0.5 2 l -3.22 -1.89 c -6.72 -3.94 -16.86 -8.68 -20.2 -9.45 -2.65 -0.61 -4.83 -0.62 -9.1 -0.02 -11.74 1.66 -17.9 7.93 -17.9 18.23 0 4.93 0.87 7.61 3.3 10.15 2 2.11 5.13 2.95 14.98 4 10.3 1.11 14.1 1.79 25.91 4.61 l 10.81 2.58 v 2.06 c 0 1.95 -2.65 21.1 -2.97 21.39 -0.08 0.08 -3.83 -2.15 -8.34 -4.95 -9.78 -6.09 -12.23 -6.93 -21.64 -7.45 -13.49 -0.74 -26.2 -3.79 -33.58 -8 -2.04 -1.18 -6.52 -4.85 -9.95 -8.15 -7.81 -7.51 -8.81 -8.09 -10.73 -6.17 -1.8 1.8 -1.47 3.56 2.26 11.98 1.99 4.48 2.84 7.44 3.09 10.78 0.57 7.53 -1.33 11 -13.1 24 -3.94 4.36 -8.73 10.52 -10.65 13.69 -1.92 3.17 -4.82 7.1 -6.45 8.64 -9.99 6.8 -21.4 8.79 -30.77 7.99 z" style="fill:#267aaf"/><path d="m 115.6 239.9 c -4.57 -0.72 -16.77 -3.93 -22.2 -5.86 -27.1 -9.55 -50.81 -30.63 -63.3 -56.2 -7.33 -15 -10.34 -28.3 -10.34 -45.66 c 0 -18.22 3.24 -31.62 11.56 -47.82 c 8.69 -16.9 25.33 -34.43 42.4 -44.64 24.92 -14.91 54.85 -19.34 84.7 -12.54 c 30.2 6.87 59.5 30.3 74.1 59.2 6.87 13.62 10.4 29.2 10.38 45.85 -0.02 17.46 -3.31 31.77 -10.67 46.4 -5.75 11.46 -12.39 20.2 -23.42 30.84 -15.27 14.72 -32.3 23.72 -54.5 28.85 -15.47 1.06 -27.31 2.9 -38.79 1.55 z m 24.71 -6.08 c 17.55 -1.11 36.1 -7.41 49.96 -16.99 18.47 -12.73 33.1 -30.63 39.97 -48.81 3.37 -8.96 6.62 -29.79 6.49 -41.6 c -0.11 -10.18 -5 -26.85 -11.74 -39.91 -7.95 -15.45 -19.65 -28.49 -34.52 -38.49 -10.99 -7.38 -20.61 -11.53 -35.74 -15.39 -15.61 -2.22 -24.3 -3.71 -41.53 -1.06 -12.92 2.09 -27.66 7.74 -38.79 14.85 -16.4 10.48 -34.65 31.3 -39.99 45.64 -5.53 14.83 -8 29.2 -7.48 43.3 c 0.72 19.1 5.98 35.74 16.1 50.91 9.13 14.47 22.69 27.3 37.2 35.4 14.87 8 36.1 13.55 49.4 12.83 3.62 -0.21 7.27 -0.42 10.64 -0.63 z" style="fill:#282526"/><g style="fill:#2f526a"><path d="m 127.3 148.5 c 3.1 -4.63 4.39 -8 4.39 -11.59 0 -6.89 -3.5 -13.16 -14.34 -25.65 -3.44 -3.96 -6.74 -8.24 -7.34 -9.5 -2.27 -4.76 0.58 -7.68 8.86 -9.1 6.37 -1.07 10.66 -0.48 18.41 2.54 5.45 2.12 7.48 2.56 13.37 2.83 9.1 0.43 10.95 -0.23 15.41 -5.38 3.64 -4.21 5.81 -5.1 7.49 -3.08 0.96 1.16 0.74 2.08 -2.43 10.1 -2.97 5.82 -2.46 10.97 3.4 14.1 4.93 2.99 5.47 8.8 10.19 11.3 2.24 1.14 19.83 4.3 26.63 4.78 3.55 0.25 0.75 1.69 -7.79 2.09 -11.91 0.55 -23.2 -0.66 -28.2 -3.37 -1.87 -1.02 -7.39 -5.62 -12.26 -10.23 -13.1 -12.37 -15.91 -13.92 -21.3 -11.62 -6.24 2.66 -7 6.64 -4 19.87 2.46 10.72 2.73 15.52 0.94 17.1 -1.39 1.24 -10.79 10 -11.67 10 -0.33 0 -0.45 -4.21 0.25 -5.25 z"/><path d="m 75.1 172.6 c -7.41 -1.57 -13.56 -4.93 -22.31 -12.19 -5.68 -5.43 -12.94 -8.76 -19.54 -12.1 -4.37 -2.24 -4.84 -2.69 -5.38 -5.15 -0.17 -13.36 -0.78 -27.51 3.57 -40.3 0.8 -0.88 5.38 3.48 6.86 6.55 3.24 7.56 2.84 15.35 6.32 23 2.25 4.74 11.57 13.68 17.43 16.72 12.69 6.58 22.63 7.41 36.44 3 2.96 -0.94 5.5 -1.58 5.66 -1.42 -0.91 3.2 -5.21 5.61 -5.37 9.18 0 2.91 6.09 3.7 12 1.55 1.89 -0.69 7.84 -2.31 8.59 -2.59 3.21 -1.17 2.11 3.63 -15.95 11 -7.88 3.22 -18.2 4.87 -28.34 2.72 z"/><path d="m 199.3 78.8 l -10.76 0.58 c 4.24 -4.59 17.29 -5.15 21.9 -4.44 4.82 0.75 5.99 0.76 6.23 0.04 3.08 1.79 5.62 6.92 6.88 10.53 -12.53 -5.74 -13.1 -7.18 -24.2 -6.71 z"/></g></g></svg>