<svg xmlns="http://www.w3.org/2000/svg" viewBox="0 0 256 256"><path d="m 193.8 21.48 c 225.3 191.1 -238 374.9 -190.4 79.3 c 10.44 -64.81 129.6 -130.8 190.4 -79.3" style="fill:#4682b4"/><g transform="matrix(-10.743 -6.436 -5.282 9.119 260.8 111.3)" style="stroke-width:0.11"><g style="fill:#fff"><g style="stroke:#fff"><path d="m 8.16 11.28 c -0.04 0.04 -0.06 0.09 -0.06 0.15 v 1.33 a 0.21 0.21 0 1 0 0.43 0 v -1.12 z"/><path d="m 12.27 11.15 h -3.83 c -0.06 0 -0.11 0.02 -0.15 0.06 l 0.36 0.36 h 3.83 c 0.06 0 0.11 -0.02 0.15 -0.06 z"/><path d="m 12.35 9.64 v 1.41 l 0.36 0.36 c 0.04 -0.04 0.06 -0.09 0.06 -0.15 v -1.84"/></g><path d="m 11.75 9.43 c -0.31 0.03 -0.27 0.65 0.04 0.61 l 0.71 0.01 l 0.33 -0.64"/><path d="m 6.66 8.41 h 1.81 v 2.33 h -1.81 z m 1.81 0 h 1.81 v 2.33 h -1.81 z m 3.04 2.33 h -1.55 c -0.32 0 -0.58 -0.28 -0.58 -0.62 v -1.08 c 0 -0.35 0.26 -0.62 0.58 -0.62 h 1.55 c 0.32 0 0.58 0.28 0.58 0.62 v 1.08 c 0 0.34 -0.26 0.62 -0.58 0.62 z m -6.08 -2.33 h 1.55 c 0.32 0 0.58 0.28 0.58 0.62 v 1.08 c 0 0.35 -0.26 0.62 -0.58 0.62 h -1.55 c -0.32 0 -0.58 -0.28 -0.58 -0.62 v -1.08 c 0 -0.35 0.26 -0.62 0.58 -0.62 z"/></g><path d="m 7.41 12.85 h 1.87 v 5.17 h -1.87 z" style="fill:#ffd700"/><path d="m 4.85 1.19 h 1.81 v 8.38 h -1.81 z" style="fill:#62a0ea;opacity:0.7"/><path d="m 6.66 1.19 h 1.81 v 8.38 h -1.81 z" style="fill:#57e389;opacity:0.7"/><path d="m 8.47 1.19 h 1.81 v 8.38 h -1.81 z" style="fill:#f8e45c;opacity:0.7"/><path d="m 12.1 9.57 h -1.81 v -8.38 h 1.81 z" style="fill:#ed333b;opacity:0.7"/><path d="m 5.43 8.41 h 1.55 c 0.32 0 0.58 0.28 0.58 0.62 v 1.08 c 0 0.34 -0.26 0.62 -0.58 0.62 h -1.55 c -0.32 0 -0.58 -0.28 -0.58 -0.62 v -1.08 c 0 -0.34 0.26 -0.62 0.58 -0.62 z" style="fill:#62a0ea"/><path d="m 6.66 8.41 h 1.81 v 2.33 h -1.81 z" style="fill:#57e389"/><path d="m 11.5 10.74 h -1.55 c -0.32 0 -0.58 -0.28 -0.58 -0.62 v -1.08 c 0 -0.34 0.26 -0.62 0.58 -0.62 h 1.55 c 0.32 0 0.58 0.28 0.58 0.62 v 1.08 c 0 0.34 -0.26 0.62 -0.58 0.62 z" style="fill:#ed333b"/><path d="m 8.47 8.41 h 1.81 v 2.33 h -1.81 z" style="fill:#f8e45c"/></g></svg>