<svg xmlns="http://www.w3.org/2000/svg" viewBox="0 0 256 256"><path d="m 33.63 61.4 c -91.5 97.4 33.89 211 159 192.7 93.2 -12.9 83.2 -270.1 -52.1 -252.9 -40.2 5.14 -77.1 28.31 -107 60.1" style="fill:#d3d3d3"/><path d="m 216.7 332.2 c -2.42 -1.02 -5.19 -3.78 -6.11 -6.09 -1.25 -3.13 -0.33 -3.44 9.99 -3.44 10.32 0 11.24 0.32 9.99 3.44 -2.15 5.38 -8.72 8.27 -13.86 6.09 z m 28 -0.36 c -5.54 -2.77 -9.67 -9.78 -8.77 -14.88 0.55 -3.1 1.64 -5.31 2.63 -5.31 0.5 0 3.76 3.37 7.24 7.5 3.48 4.12 6.64 7.7 7 7.95 0.38 0.25 2.49 0.45 4.69 0.46 4.24 0.01 5.38 0.66 3.97 2.27 -2.77 3.17 -12.2 4.3 -16.78 2 z m 36.2 0.02 c -2.75 -1.37 -4.1 -2.78 -3.52 -3.66 0.26 -0.4 4.15 -0.64 10.36 -0.64 10.14 0 11.6 0.33 9.91 2.27 -2.76 3.15 -12.21 4.3 -16.74 2.03 z m 36.2 0 c -2.75 -1.37 -4.1 -2.78 -3.52 -3.66 0.25 -0.39 3.55 -0.64 8.41 -0.64 7.44 0 8 -0.09 8.41 -1.23 0.6 -1.8 -0.7 -3.85 -7.72 -12.1 -3.82 -4.51 -6.17 -7.8 -5.95 -8.33 0.52 -1.28 5.43 -2.36 8.94 -1.97 6.12 0.68 11.1 4.53 13.1 10.12 1.18 3.27 1.22 4.76 0.27 8.37 -0.87 3.25 -4.87 7.79 -8.38 9.48 -3.34 1.61 -10.33 1.61 -13.56 -0.01 z m 27.96 -4.42 c -1.21 -1.14 -1.08 -22.74 0.14 -23.7 3.45 -0.92 6 -0.5 9.75 -0.35 1.35 9.22 4.36 14.77 7.11 24.2 -0.6 0.91 -16 0.81 -17 -0.12 z m -89.7 -4.63 c -1.41 -0.85 -13.1 -15.1 -12.93 -15.74 0.59 -1.69 4.73 -3.06 9.15 -3.05 7.39 0.03 12.59 3.61 14.93 10.28 1.16 3.29 0.9 7.6 -0.51 8.44 -1.05 0.63 -9.62 0.68 -10.65 0.06 z m 17.98 -0.06 c -2.15 -1.29 -1.08 -10.29 1.46 -12.28 1.35 -1.06 2.35 -0.31 6.99 5.28 5.98 7.19 5.9 7.53 -1.62 7.52 -3.29 0 -6.36 -0.24 -6.83 -0.52 z m 20.45 -0.23 c -2.49 -1.89 -13.57 -15.83 -13.24 -16.64 0.52 -1.28 5.43 -2.36 8.94 -1.97 6.23 0.7 11.16 4.58 13.2 10.4 1.16 3.29 0.9 7.6 -0.51 8.44 -1.32 0.79 -7.27 0.63 -8.4 -0.23 z m 15.73 0.23 c -2.15 -1.29 -1.08 -10.29 1.46 -12.28 1.35 -1.06 2.35 -0.31 6.99 5.28 5.98 7.19 5.9 7.53 -1.62 7.52 -3.29 0 -6.36 -0.24 -6.83 -0.52 z m -91.8 -5.43 c 0.01 -0.87 11.1 -9.11 15.4 -11.46 1.72 -0.94 1.89 1.06 0.35 4.2 -0.85 1.72 -1.73 4.09 -1.96 5.27 -0.23 1.18 -0.74 2.34 -1.14 2.59 -0.39 0.25 -3.4 0.45 -6.69 0.46 -5.27 0.01 -5.97 -0.12 -5.96 -1.06 z m -7.34 -3 c -0.87 -0.82 -0.47 -9.82 0.47 -10.55 1.24 -0.98 14.72 -0.64 15.1 0.38 0.26 0.74 -13.1 10.52 -14.42 10.56 -0.38 0.01 -0.89 -0.16 -1.13 -0.39 z m 0.34 -16.24 c -1.1 -1.04 -1.1 -27.48 0 -28.52 0.43 -0.4 1.44 -0.73 2.26 -0.73 2.98 -3.7 1.49 -7 1.49 -13.4 -2.26 -0.12 -4.52 -0.25 -6.78 -0.37 0 -2.04 0 -4.08 0 -6.12 h 25.84 h 25.84 c 0 2.04 0 4.08 0 6.12 -2.26 0.12 -4.52 0.25 -6.78 0.37 v 6.7 c 0 6.58 0.03 6.7 1.49 6.7 0.82 0 1.83 0.33 2.26 0.73 1.1 1.04 1.1 27.48 0 28.52 -1.11 1.05 -44.5 1.05 -45.61 0 z m 14.1 -42.71 h -1.62 h -1.62 c 0 4.49 0 8.97 0 13.46 h 1.62 h 1.62 c 0 -4.49 0 -8.98 0 -13.46 z m 20.68 0 c -4.52 0 -9 0 -13.57 0 0 4.49 0 8.97 0 13.46 4.52 0 9 0 13.57 0 0 -4.49 0 -8.98 0 -13.46 z m 16.93 42.71 c -1.09 -1.03 -1.01 -8.11 0.09 -8.98 0.61 -0.48 12.38 -0.73 39.9 -0.84 l 39 -0.16 v -1.84 v -1.84 l -39 -0.16 c -27.52 -0.11 -39.3 -0.36 -39.9 -0.84 -1.11 -0.87 -1.18 -7.95 -0.09 -8.98 0.59 -0.56 11.7 -0.73 46 -0.73 42.97 0 45.4 0.06 47.52 1.14 7.36 3.74 7.36 19.1 0 22.8 -2.14 1.08 -4.55 1.14 -47.52 1.14 -34.3 0 -45.5 -0.18 -46 -0.73 z m 36.2 -29.37 c -0.87 -0.83 -1.03 -5.28 -0.24 -6.47 0.69 -1.03 4.31 -1.98 7.54 -1.98 3.23 0 6.85 0.95 7.54 1.98 0.8 1.19 0.64 5.64 -0.24 6.47 -4.87 0.81 -9.6 1.69 -14.6 0 z m 30.99 -0.06 c -1.09 -4.51 -0.92 -8.13 -1.07 -12.97 l -2.26 -0.31 c -2.24 -0.3 -2.26 -0.34 -2.26 -3.37 v -3.06 c 8.61 0 17.23 0 25.84 0 v 3.06 c 0 3 -0.02 3.06 -2.26 3.37 l -2.26 0.31 c -0.3 4.26 0.15 8.92 -1.07 12.97 -4.76 0.86 -7.55 0.38 -14.65 0 z m -0.53 -26 c -1.53 -0.74 -5.08 -3.79 -6.18 -5.09 -1.1 -1.3 -2.49 -2.37 -3.07 -2.37 -5.31 0 -12.39 -4.63 -15.49 -10.13 -1.41 -2.51 -1.97 -2.99 -3.29 -2.84 -7.37 0.83 -18.94 0.78 -23.47 -0.1 -8.54 -1.67 -16.73 -5.27 -22.87 -10 -3.15 -2.45 -7.86 -8.45 -9.22 -11.77 -1.15 -2.81 -1.44 -2.94 -5 -2.38 -7.84 1.22 -19.2 4.3 -26.1 1.04 -5.72 -2.68 -8.84 -13.16 -8.71 -16.4 -7.86 -1.81 -10.92 -10.85 -7.97 -14.87 12.1 -35.55 46.54 -47.2 85.7 -40.7 31.41 15.8 52.1 27.85 50.7 60.6 0.67 2.37 0.38 8.99 -1.59 13.1 l -1.72 3.57 l 3.16 2.93 c 4.06 3.77 5.47 6.59 5.79 11.66 0.26 3.98 0.33 4.14 2.8 5.68 6.85 4.3 6.77 11.69 -0.17 16 -3.77 2.37 -9.18 4.1 -13.27 2.14 z" transform="translate(-145.4 -124.8)"/></svg>