<svg xmlns="http://www.w3.org/2000/svg" viewBox="0 0 256 256"><path d="m 130.4 254.6 c -26.4 -2.05 -57.3 -14.66 -78.8 -32.2 c -26.2 -21.31 -45.4 -53.99 -50.5 -86.2 c -6.14 -42.55 18.58 -88.3 46.5 -110 c 14 -10.57 32.58 -18.98 49.99 -22.66 c 45.3 -9.58 92.6 8.56 125 47.96 c 19.42 23.62 29.47 47.4 31.93 75.6 c 2.94 33.77 -10.42 69.98 -34.8 94.4 c -27.74 22.99 -56.3 35.46 -89.2 33.1" style="fill:#625095"/><g transform="matrix(1.065 0 0 1.074 -6.58 -5.92)" style="fill:#fffafa"><path d="m 110.1 187 c -12.82 -6.82 -39.71 -20.1 -47.8 -26.86 -0.6 -1.56 -0.59 -66.3 0.01 -67.84 0.67 -1.7 34.58 -20.5 56.5 -31.3 l 7.43 -3.67 l 12 6.08 c 12.15 6.15 42.1 22.62 48.5 26.67 4.55 2.88 4.11 -2.39 4.56 39.54 0.29 26.91 -0.12 29.46 -1.48 30.62 -5 4.29 -61.2 34.53 -64.1 34.5 -0.47 0 -7.51 -3.48 -15.65 -7.71 z m 44.4 -16.34 l 27.1 -14.69 l 0.27 -18 c 0.15 -9.93 0.01 -23.45 -0.3 -30.1 l -0.56 -12 l -17.89 -9.46 c -9.84 -5.2 -22.2 -11.72 -27.41 -14.48 l -9.52 -5 c -17.26 9.81 -36.1 17.31 -52.65 28.2 l -2.34 1.61 l 0.22 30 l 0.22 30 l 26.64 14.28 c 14.65 7.85 27.2 14.27 27.91 14.27 0.7 0 13.45 -6.62 28.34 -14.7 z"/><path d="m 83.4 148 c -2.51 -1.01 -1.41 -5.13 -1.41 -25.86 0 -14.82 0.2 -17.47 1.38 -18.65 1.23 -1.23 5.59 -1.38 41.73 -1.38 22.2 0 41.4 0.29 42.63 0.64 1.93 0.54 2.37 1.25 2.88 4.65 0.33 2.21 0.25 11.95 -0.19 21.66 -0.72 15.84 0.64 17.53 -0.81 18.59 -1.33 0.97 -10.25 1.4 -43 1.35 -21.89 -0.03 -42.2 -0.61 -43.2 -1 z m 17.57 -12.37 c 0.99 -1.41 0.28 -5 0.4 -11.71 0.23 -12.9 0.71 -12.55 -4.61 -12.52 l -4.89 0.03 c 0.4 7.86 -1.22 16.1 -0.05 23.85 0.25 0.65 1.81 1.1 3.78 1.1 5.71 0 4.38 0.66 5.36 -0.75 z m 14.27 -0.65 c 1.64 -1.98 1.64 -20.6 0 -22.58 -1.48 -1.78 -6.33 -1.82 -8.1 -0.07 -1.94 1.94 -1.94 20.78 0 22.72 1.75 1.75 6.61 1.71 8.1 -0.07 z m 15.54 -11.29 v -12.26 l -3.49 -0.26 c -6.41 -0.47 -6.97 1.1 -6.71 7.14 0.41 9.47 0.07 15.3 1.43 16.94 1.16 1.13 5.34 0.93 8.77 0.71 z m 14.81 11.41 c 0.71 -0.85 1.08 -4.61 1.12 -11.34 0.08 -12 -0.38 -12.97 -6.13 -12.59 l -3.88 0.25 l -0.24 11.78 c -0.18 8.85 0.03 11.95 0.85 12.46 1.82 1.16 7.15 0.79 8.28 -0.56 z"/></g></svg>