<svg xmlns="http://www.w3.org/2000/svg" viewBox="0 0 256 256"><defs><clipPath><rect width="362.9" height="362.9" x="486" y="124" rx="32" transform="matrix(0.707 0.707 -0.707 0.707 0 0)" vector-effect="none" paint-order="normal" style="fill:#4a86cf"/></clipPath><clipPath><rect width="362.9" height="362.9" x="486" y="124" rx="32" transform="matrix(0.707 0.707 -0.707 0.707 0 0)" vector-effect="none" paint-order="normal" style="fill:#4a86cf"/></clipPath></defs><path d="m 191 227.3 c -59.1 58.5 -113.7 15.66 -158.5 -30.84 -36.52 -37.86 -38.2 -72.98 -13.98 -110.2 63.2 -97.2 145.2 -133.2 231.2 17.52 21.2 49.71 -23.52 96 -58.64 123.5" style="fill:#ffd3bf"/><g transform="matrix(-4.801 0 0 4.774 518.9 -453.6)" style="fill:#ffa500"><rect width="89.6" height="87.4" x="1724.6" y="1605.1" transform="matrix(0.192 0.18 -0.185 0.188 46.1 -505.4)" rx="5.35" ry="4.54" style="fill:#ef6708;enable-background:new;stroke-width:0.25"/><path d="m 69.2 126.3 c -1.47 -1.48 -2.74 -2.83 -2.82 -3 -0.2 -0.4 -0.2 -1.16 0 -1.56 0.15 -0.29 11.29 -11.61 11.43 -11.61 0.04 0 0.13 0.1 0.21 0.23 0.33 0.36 -0.49 0.94 -1.13 1.65 0.26 0.43 0.58 1.51 1.02 1.44 0.57 -0.06 1.04 -0.07 1.62 -0.1 0.18 0.57 0.34 1.2 0.43 1.72 -0.57 0.26 -1.14 0.52 -1.7 0.79 0.03 0.53 0.05 1.06 0.12 1.58 0.59 0.3 1.09 0.41 1.76 0.61 -0.04 0.56 0.06 1.38 -0.28 1.79 -0.07 0.04 -0.43 0.08 -0.8 0.08 -1 0 -1.01 0.01 -1.25 0.75 -0.11 0.36 -0.22 0.69 -0.24 0.74 0.42 0.54 0.85 0.86 1.41 1.34 l -0.32 0.6 c -0.56 1.04 -0.43 0.98 -1.47 0.64 l -0.91 -0.3 c -0.35 0.38 -0.73 0.76 -0.99 1.19 0.23 0.63 0.48 1.08 0.79 1.72 -0.45 0.35 -0.9 0.74 -1.39 1.03 -0.5 -0.31 -0.85 -0.67 -1.32 -1.07 -0.64 -0.05 -0.9 0.23 -1.57 0.57 -0.01 0 0.02 0.42 0.06 0.92 0.04 0.5 0.06 0.92 0.06 0.93 -0.01 0.01 -1.22 -1.19 -2.69 -2.68 z" style="fill:#ffd170"/><path d="m 138.3 189.7 c -1.58 -2.34 -3.37 -3.65 -5.59 -5.61 -2.62 1.04 -6.47 3.98 -8.81 3.43 -1.7 -2.17 -2.99 -3.9 -4.7 -6.16 1.66 -1.77 3.34 -3.53 4.96 -5.33 2.41 -2.23 -1.07 -6.11 -2.11 -8.26 -3.24 0.06 -5.8 0.43 -9.23 0.5 -0.15 -0.11 -2.24 -7.59 -2.24 -8 2.82 -1.65 5.14 -2.58 8.33 -4 -0.39 -2.65 -0.53 -5.54 -0.54 -7.89 -2.79 -0.99 -6.51 -1.58 -8.59 -3.38 0.06 -2.89 0.46 -5.1 0.88 -8.1 2.58 -0.07 5.21 0.13 7.76 -0.27 3.04 -1.77 2.67 -3.59 3.89 -7.31 -2.28 -2.14 -4.85 -4.35 -6.92 -6.1 1.37 -2.37 2.71 -4.77 4.14 -7.1 3.18 0.33 6.46 2.78 9.4 2.12 1.65 -1.81 2.95 -3.23 4.64 -5.08 -1.13 -2.66 -3.65 -6 -3.45 -8.6 0.89 -1.07 5.46 -4.47 6 -4.47 2.68 1.74 4.42 3.5 6.94 5.75 2.31 -1.12 4.62 -2.25 6.93 -3.37 -0.1 -2.96 -0.88 -7.38 0.25 -9.46 2.54 -0.77 7.26 -1.99 7.34 -1.9 1.5 2.89 2.59 5.11 4.15 8.23 2.77 -0.54 7.44 -0.25 8.23 -2.23 l 0.58 -1.69 l 11.78 10.69 c 10.1 9.14 15.9 13.79 16.56 15.22 1.43 3.16 -0.29 4.95 -3.33 1.77 -13.93 -14.58 -35.86 -15 -51.4 -2.06 -5 4.21 -9.68 11.73 -11.55 18.7 -1.11 4.14 -1.33 12.79 -0.43 16.87 1.86 8.43 7 16.69 13.41 21.44 1.44 1.07 2.42 2.7 2.43 2.82 -3.48 3.3 -6.32 6.5 -9.73 8.83 z" transform="matrix(0.208 0 0 0.209 54.67 96.1)" style="fill:#f8f8ff"/></g></svg>