<svg xmlns="http://www.w3.org/2000/svg" viewBox="0 0 256 256"><path d="m 255.3 131 c -8.19 42.65 -40.47 84.4 -82.6 107 -35.3 18.95 -69.77 22.52 -100.1 10.47 c -22.79 -9.1 -44.1 -30.38 -57.1 -57.1 -13.86 -28.53 -17 -55.3 -9.87 -83.2 17.68 -68.87 110.2 -121.1 181.2 -102.3 34.69 9.16 58.2 35 66.85 73.7 c 1.39 16.88 4.37 34.69 1.44 51.4" style="fill:#9370db"/><g transform="matrix(0.96 0 0 0.961 2.69 4.82)" style="fill:#fff"><path d="m 42.2 128 c 0.61 -1.42 3.4 -3 6.07 -3.25 1.32 4.65 1.04 9.54 1.96 14.73 7.37 -2.56 13.61 -4.7 24.86 -9.34 0.99 14.71 2.3 29.44 2.54 44.2 -11.3 4.54 -20.1 8.11 -30.94 12.52 -1.8 -20.47 -3.25 -37 -4.49 -58.84 z m 29.52 35 c -0.41 -5.78 -0.25 -11.69 -0.98 -17.41 -0.27 -0.26 -19.4 7.47 -20.1 8.13 -0.82 0.74 0.21 17.24 1.07 17.24 6.85 -2.34 13.97 -5.49 20 -7.95 z"/><path d="m 80.8 128 c 9.8 -3.83 17.62 -7.24 29.2 -12.14 0.8 14.58 1.55 29.2 2.2 43.76 -10.93 4.62 -19.28 8.14 -29.64 12.5 -0.37 -16.32 -1.62 -31.2 -1.72 -44.1 z m 25.91 20.51 c -0.45 -5.58 -0.11 -11.4 -1.17 -16.86 -7.12 1.94 -11.81 4.22 -19.1 7.28 0.34 3.49 0.89 16.23 0.7 17.77 6.48 -2.59 13 -5.48 19.59 -8.19 z"/><path d="m 115.4 113.3 c 1.75 -0.71 3.53 -1.42 5.32 -2 0.56 3.99 -0.02 7.55 0.75 11.56 3.56 -5.33 5.72 -9.74 8.98 -15.78 l 7.92 -3.32 c 9.26 -3.88 8.67 -4.21 8.77 4.86 l 0.06 5.55 c -5 2.1 -10 4.2 -15 6.3 -3.33 5.92 -5.56 10.29 -8.89 16.21 0.29 6.25 0.59 13.82 0.88 20.1 -1.53 0.66 -5.08 1.53 -6.65 2.06 -1 -16.72 -1.22 -31.82 -2.11 -45.51 z"/><path d="m 153.4 115.7 l 13.59 -5.62 c 7.23 -2.97 12.44 -3.13 12.44 -7.11 0.17 -3.47 -0.46 -3.09 -12.23 1.77 -9.38 3.87 -13.45 5.16 -13.83 4.58 -0.62 -4.56 -0.54 -6.77 -0.42 -11.58 11.39 -4.46 19.31 -7.81 30.41 -12.4 1.26 15.44 1.33 30.44 2.59 45.5 -10.15 4.11 -21.29 8.28 -31.46 12.33 -0.91 -9.65 -0.85 -18 -1.08 -27.45 z m 26.3 5.8 c 0.81 -0.33 0.64 -5.74 -0.14 -5.69 -4.06 2 -19.97 6.96 -20.1 9.8 -0.45 4.23 -2.62 6.77 9.1 0.55 5.34 -1.87 8.18 -2.93 11.21 -4.66 z"/><path d="m 189.9 82.4 c 1.54 -0.96 30.53 -12.5 30.78 -12.25 0.29 0.29 2.46 37.1 2.55 43.4 0.63 1.44 -2.41 3.24 -4.9 3.36 -0.94 -12.59 -1.86 -18.78 -2.07 -31 -0.28 -0.28 -6.4 2.2 -7.16 2.9 -0.07 11.22 0.53 21.28 1.35 32.1 -1.69 0.73 -3.49 1.51 -5.21 1.96 -1.24 -10.97 -0.94 -18.1 -1.85 -31.43 -2.81 0.61 -4.82 1.56 -7.68 2.68 0.54 11.94 0.96 21.1 1.55 32.36 -1.66 0.65 -3.32 1.31 -4.98 1.96 -1.42 -16.9 -1.62 -29.78 -2.38 -45.95 z"/></g></svg>