<svg xmlns="http://www.w3.org/2000/svg" viewBox="0 0 256 256"><path d="m 12.1 81.7 c -96.2 308.9 420.5 154.5 178.9 -57.2 -48.4 -42.4 -153 -26.1 -178.9 57.2" style="fill:#5238f2"/><path d="m 43.87 191.3 c -0.21 -0.34 0.52 -4.32 1.62 -8.85 1.1 -4.53 1.85 -8.48 1.66 -8.78 -0.18 -0.3 -2.44 -0.55 -5 -0.55 -4.68 0 -6.84 -0.42 -6.84 -1.32 0 -0.26 3.8 -4.38 8.45 -9.15 l 8.45 -8.67 l 2.13 -9.16 c 1.17 -5 2.13 -9.34 2.13 -9.57 0 -0.23 -1.98 -0.42 -4.4 -0.42 -2.5 0 -4.6 -0.34 -4.87 -0.78 -0.27 -0.45 3.27 -4.6 8.5 -9.92 l 8.97 -9.15 l 28.58 -0.2 c 32 -0.22 30.82 -0.4 29.53 4.5 -0.39 1.46 -1.16 4.7 -1.71 7.19 -0.56 2.49 -1.76 7.82 -2.68 11.84 -1.49 6.55 -3.04 13.41 -7.38 32.73 -2.21 9.85 -1.21 9.1 -11.35 9.1 -5.42 0 -9 -0.29 -9.5 -0.76 -0.42 -0.43 -0.59 -1.94 -0.39 -3.48 l 0.36 -2.72 h -10.69 c -12.42 0 -11 -1 -13.46 9.75 -2.22 9.84 -1.16 9.1 -12.21 9.1 -5.22 0 -9.66 -0.28 -9.87 -0.62 z m 52.63 -44.87 c 0.83 -3.38 1.71 -7.38 1.96 -8.9 l 0.46 -2.75 l -10.78 0.19 l -10.78 0.19 l -1.9 7.66 c -1.05 4.21 -1.91 8.22 -1.92 8.9 -0.02 1.14 0.81 1.22 10.72 1.04 l 10.74 -0.19 l 1.5 -6.15 z m 26.61 44.93 c -0.19 -0.31 0.83 -5.56 2.27 -11.66 2.87 -12.21 9.53 -40.83 10.1 -43.3 0.33 -1.51 0.17 -1.57 -4.51 -1.57 -3.52 0 -4.85 -0.25 -4.85 -0.9 0 -0.5 4.1 -5 9.1 -10.1 l 9.1 -9.19 h 28.37 c 23.37 0 28.51 0.17 29.2 0.97 0.6 0.74 0.39 2.65 -0.91 8.18 -0.93 3.97 -2.67 11.6 -3.85 16.96 -4.77 21.55 -5.79 25.81 -6.44 26.84 -0.37 0.59 -4.32 4.12 -8.78 7.83 l -8.1 6.76 h -12.9 c -10.13 0 -12.9 -0.19 -12.9 -0.9 0 -0.5 3.94 -4.88 8.76 -9.75 8.32 -8.39 8.91 -8.84 11.52 -8.84 1.52 0 3.09 -0.41 3.49 -0.9 0.4 -0.5 1.36 -3.71 2.13 -7.14 0.77 -3.43 2 -8.9 2.75 -12.15 0.74 -3.26 1.36 -6.32 1.37 -6.81 0.01 -0.69 -2.36 -0.85 -10.7 -0.7 l -10.72 0.19 l -2.17 9.1 c -1.19 4.98 -4.09 17.2 -6.44 27.2 -2.35 9.96 -4.55 18.65 -4.89 19.32 -0.54 1.07 -1.76 1.22 -10.1 1.22 -5.22 0 -9.65 -0.25 -9.84 -0.56 z m -19 -84.9 c -8.14 -0.16 -10.75 -0.43 -10.75 -1.1 0 -0.49 4.1 -5 9.1 -10.1 l 9.1 -9.19 h 25.1 c 22.29 0 25.1 0.12 25.48 1.11 0.29 0.78 -2 3.59 -7.7 9.45 -4.47 4.59 -8.95 8.79 -9.96 9.34 -1.87 1 -8.89 1.09 -40.3 0.48 z m -56.88 -0.94 c -0.26 -0.43 3.36 -4.66 8.35 -9.75 l 8.81 -8.99 h 3.54 c 4.13 0 3.76 0.29 26.1 -20.8 l 13.32 -12.57 l 32.57 -0.02 l 32.57 -0.02 l 1.64 2.26 c 0.9 1.24 5.27 8.22 9.71 15.49 4.43 7.28 8.45 13.66 8.92 14.19 0.62 0.7 2.64 0.93 7.57 0.86 7.4 -0.1 8.97 0.38 7.88 2.44 -0.38 0.72 -4.38 4.99 -8.89 9.49 l -8.2 8.18 h -4.45 h -4.45 l -10 -16.36 l -10 -16.36 h -23.71 h -23.71 l -10.18 9.51 c -5.6 5.23 -13.47 12.6 -17.5 16.36 l -7.32 6.85 h -16 c -10.85 0 -16.2 -0.25 -16.49 -0.76 z" transform="matrix(0.946 0 0 0.96 7.48 10.52)" style="fill:#f47b8e"/></svg>