<svg xmlns="http://www.w3.org/2000/svg" viewBox="0 0 256 256"><path d="m 62.1 21.48 c -225.3 191.1 238 374.9 190.4 79.3 -10.44 -64.81 -129.6 -130.8 -190.4 -79.3" style="fill:#b0e0e6"/><g transform="translate(3.44 3.44)"><path d="m 124.1 216.7 c -20.34 -4.64 -46.89 -13.52 -61.8 -20.67 -4.51 -2.16 -5.84 -3.34 -14.26 -12.63 c -5.11 -5.64 -9.52 -10.25 -9.81 -10.25 -0.28 0 -0.48 -20.67 -0.44 -45.94 l 0.07 -45.93 c 7.95 -7.12 16.1 -14.81 22.86 -21.32 l 12.34 -11.81 l 53.95 -25.7 l 56.65 16.89 c 9.71 10.69 19.47 18.51 30.3 27.59 l 16.44 66.6 l -17.47 64.1 c -31.46 19 -63.85 24.51 -88.8 19.1 z" style="fill:#9ed5d6"/><path d="m 117.3 187.3 c -5.87 -3.76 -12.53 -7.86 -14.8 -9.11 -5.51 -3 -19.82 -12.33 -20.77 -13.5 -0.76 -0.93 -12.62 -47.1 -12.61 -49.1 0 -1.6 23.2 -40.62 25.28 -42.5 0.73 -0.65 6.72 -2.76 13.32 -4.67 6.6 -1.92 17.2 -11.75 21.29 -15.19 1.35 -0.58 20.29 4.08 28.41 1.7 7.87 -2.31 14.87 -4.2 15.56 -4.2 1.74 0 21.81 20.53 28.84 29.51 9.1 11.56 9.18 11.86 9.61 23.28 0.59 15.8 -1.6 37.48 -4.31 42.83 -2.9 5.72 -27.91 29.3 -36.1 34 -1.7 0.98 -4.93 3.1 -7.18 4.71 -2.25 1.61 -5.34 3.38 -6.88 3.95 -1.98 0.73 -27.3 5.22 -28.83 5.13 -0.07 0 -4.93 -3.09 -10.79 -6.85 z" style="fill:#b1f4a2"/><path d="m 108.4 167.5 c -1.34 -1.54 -13.62 -23.2 -15.39 -27.1 -5.28 -8.35 -6.63 -14.67 -10.33 -19.1 0 -3.06 1.18 -5.06 8.85 -14.98 5.27 -6.81 14.84 -16.82 17.3 -18.1 4.51 -2.32 31.92 -6.3 37.7 -5.47 11.93 5.94 31.3 15.7 37.6 25.56 2.22 3.54 8.68 19.27 8.68 21.1 -4.9 11.29 -9.53 24.52 -15 35 -5.22 3.25 -10.82 5.27 -16.55 7.9 -11 5.08 -16.1 7 -18.23 6.96 -7.99 -2.64 -29.94 -9.32 -34.62 -11.8 z" style="fill:#c8f55b"/><path d="m 113.2 155.6 l -4.34 -7.47 c -8.33 -14.34 -11.25 -19.94 -11.25 -21.58 c 0 -0.91 0.73 -4.25 1.63 -7.43 2.83 -6.68 2.59 -14.6 6.31 -20.89 1.09 -1.71 24.39 -15.96 26.1 -15.96 5.29 -0.99 14.35 -10.31 18.87 -9.25 2.59 0.82 15.57 8.92 22.2 13.87 7.47 5.57 7.63 5.82 10.5 17.24 2.74 10.88 3.87 18.69 3.1 21.46 -1.74 6.24 -11.2 20.75 -18.27 28 -4 4.14 -5.59 5.18 -12.58 8.37 -4.39 2 -8.44 3.63 -9 3.61 -11.1 -3.13 -23.78 -6.79 -33.3 -9.96 z" style="fill:#dada2a"/><path d="m 117.5 145.5 c -1.14 -0.4 -4.35 -8.58 -7.25 -16.54 -4.81 -13.23 -4.25 -6.43 1.67 -18.59 7.29 -14.96 2.97 -11.99 18.96 -18.21 8.83 -3.43 6.9 -4.9 21.32 -2.29 l 6.85 1.24 c 3.28 5.55 15.43 17.1 14.59 21.54 -1.37 7.2 -0.94 13.42 -2.67 20.79 -5.72 5.79 -10.69 9.57 -17.31 15 -12.14 -1.17 -23.4 -1.59 -36.2 -3 z" style="fill:#f78f02"/><path d="m 152.6 235.4 c -20.96 -8.66 -34.58 -17.98 -55.81 -24.4 -14.32 -4.33 -25 -8.28 -31.89 -11.73 -3.43 -1.73 -5.43 -3.47 -13.96 -12.15 -5.48 -5.57 -10.15 -10.66 -10.39 -11.31 -0.31 -0.83 -17.41 -58.87 -15.3 -61.4 3.25 -3.87 15 -26.61 15.24 -27.48 0.2 -0.82 1.53 -2.53 2.94 -3.81 10.68 -10.3 22 -19.97 32.3 -30.67 7.58 -4.4 31.1 -16.42 36.4 -17.57 -0.18 0.29 -13.96 24.32 -15.75 26.58 -1.37 1.72 -35.3 20.94 -35.99 22.42 -1.05 2.27 -4.34 13.95 -6.41 23.57 c -2.74 12.74 -7.1 21.27 -8.53 40.52 10.67 13.54 28.77 34.1 48 54.2 1.85 -0.2 8.17 0.71 15.73 -0.51 7.56 -1.22 37.74 9.84 42.2 8.69 2.03 -0.52 35.82 -19.25 37.95 -20.39 1.64 -0.88 5.79 -5.64 16.1 -18.44 l 9.54 -11.89 c 0.53 14.35 0.75 29.88 0.84 42.4 l -9.12 4.82 c -14.93 7.9 -33.75 17.1 -37.4 18.37 -2.41 1.35 -13.47 9.54 -16.68 10.1 z" transform="translate(-3.44 -3.44)" style="fill:#8dacf2"/></g></svg>