<svg xmlns="http://www.w3.org/2000/svg" xmlns:xlink="http://www.w3.org/1999/xlink" viewBox="0 0 256 256"><defs><radialGradient gradientUnits="userSpaceOnUse" r="18.1" cy="32" cx="32" id="0"><stop style="stop-color:#3e7e96"/><stop offset="1" style="stop-color:#2b5977"/></radialGradient><radialGradient xlink:href="#0" id="1" gradientUnits="userSpaceOnUse" cx="32" cy="32" r="18.1"/></defs><path d="m 135.5 254.2 c -152.5 14.54 -187 -230.7 -30.38 -249.7 c 144.2 -23.6 212.3 198.7 68.5 243.1 -12.23 4.87 -25.42 4.78 -38.2 6.59" style="fill:#2f627e"/><g transform="matrix(2.447 0 0 2.426 50.1 53.6)"><g style="stroke-linecap:round;stroke-width:2.74"><rect rx="6.13" height="55" width="55" y="4.5" x="4.58" ry="6.18" style="fill:#e2e6e7"/><rect rx="5.79" height="52" width="52" y="6" x="6" ry="5.84" style="fill:#444f60"/><rect rx="4.23" height="38" width="38" y="13" x="13" ry="4.27" style="fill:#f2f4fa"/><rect rx="4" height="36.2" width="36.2" y="13.9" x="13.9" ry="4.07" style="fill:url(#1)"/></g><path transform="matrix(0.121 0 0 0.121 1.13 1.17)" d="m 336.4,185.1 a 13.5,13.5 0 0 0 -12.79,4.31 l -91.5,103.9 -44.4,-43.1 a 13.5,13.5 0 0 0 -19.1,0.28 13.5,13.5 0 0 0 0.28,19.1 l 54.5,52.99 a 13.5,13.5 0 0 0 19.54,-0.76 l 100.9,-114.6 a 13.5,13.5 0 0 0 -1.21,-19.1 13.5,13.5 0 0 0 -6.26,-3.1 z" data-name="Layer 6" style="fill:#f2f4fa;stroke-width:8.29"/></g></svg>