<svg xmlns="http://www.w3.org/2000/svg" viewBox="0 0 256 256"><path d="m 24.94 202.8 c -88.6 -107.1 94.1 -267.3 195 -172.9 113.2 103.5 -70.5 306.3 -183.5 191.1 -6.92 -6 -7.63 -12.1 -11.45 -18.1" style="fill:#ecccfc"/><path d="m 83.97 204 c 0.07 -0.5 16.71 -17.2 36.96 -37 l 36.82 -36.1 l -10.46 -10.32 c -5.79 -5.71 -10.46 -10.78 -10.46 -11.36 0 -1.22 8.5 -9.98 10.2 -10.51 0.94 -0.29 4.25 2.66 17.31 15.47 8.88 8.71 16.1 16.23 16.1 16.71 0 0.49 -16.8 17.35 -37.3 37.48 l -37.3 36.59 h -10.99 c -9.64 0 -10.97 -0.11 -10.85 -0.91 z m 5.21 -56.5 c -8.84 -8.68 -16.1 -16.2 -16.1 -16.65 0 -0.48 16.8 -17.34 37.3 -37.47 l 37.3 -36.59 h 11.1 c 9.39 0 11 0.13 10.6 0.82 -0.26 0.45 -16.91 17.1 -36.99 37.1 l -36.52 36.3 l 10.42 10.27 c 5.73 5.65 10.42 10.65 10.42 11.1 0 0.93 -10 10.95 -10.93 10.95 -0.32 0 -7.82 -7.1 -16.66 -15.77 z" style="fill:#a900ff"/></svg>