<svg xmlns="http://www.w3.org/2000/svg" viewBox="0 0 256 256"><path d="m 32.45 67.1 c -90.5 102.3 43.5 210.5 122 183.9 c 78.5 -26.61 131.3 -101.7 79.98 -167.6 c -51.3 -65.85 -101.7 -129.4 -192.2 -27.1" style="fill:#b0e0e6"/><g transform="matrix(0.764 0 0 0.7 19.83 22.35)"><path d="m 81.4 253.9 c -13.1 -4.1 -37.86 -15 -39.3 -17.38 33.52 -78.99 65.7 -138 101.7 -221.6 c 2.45 -5.27 13.43 23.1 21.46 41.2 29 72.1 47.62 107.6 80.4 178.2 0.51 2.45 -21.67 13.23 -39.1 19 -42.55 15.97 -92.3 10.8 -125.1 0.6 z" style="fill:#294993"/><path d="m 100 257.4 c -1.2 -1.2 43.8 -95.5 45.58 -95.5 14.99 34.74 26.73 55.1 41.49 95.3 -17.65 3.93 -72.3 10.54 -87.1 0.15 z" style="fill:#222427"/><path d="m 53.5 187.1 c 26.62 -54.64 50.1 -100.1 77.5 -154.4 -0.32 33.93 -0.63 67.87 -0.95 101.8 -11.6 24.3 -19.78 38.2 -35.66 68.4 -13.87 -4.62 -36.64 -11.67 -40.88 -15.75 z" transform="matrix(1.308 0 0 1.428 -25.93 -31.92)" style="fill:#4079fa"/></g></svg>