<svg xmlns="http://www.w3.org/2000/svg" viewBox="0 0 256 256"><path d="m 2.97 157.2 c 15.87 103.3 156.9 131 219.1 57.2 54.8 -54.8 41.2 -159.7 -26.1 -195.7 -77.2 -48.1 -189.7 11.37 -195.8 107.2 -0.63 10.49 0.26 21.1 2.77 31.3 z" style="fill:#3a3a3a;color:#000"/><g transform="matrix(6.548 0 0 6.608 -28.51 -22.2)"><path d="m 16,12 5,7 -4,-7 h -1 z m 5,0 2,6 -1,-6 h -1 z m 5,0 -1,6 2,-6 h -1 z m 5,0 -4,7 5,-7 h -1 z m -19,4 v 1 l 7,4 -7,-5 z m 24,0 -7,5 7,-4 v -1 z m -14,4 c -2,0 -2,2 -2,3 v 2 h 2 c 0,-2 1,-2.5 1,-3.5 0,-0.5 -1e-6,-1.5 -1,-1.5 z m 4,0 c -1,0 -1,1 -1,1.5 0,1 1,1.5 1,3.5 h 2 v -2 c 0,-1 -2e-6,-3 -2,-3 z m -14,1 v 1 l 6,1 -6,-2 z m 24,0 -6,2 6,-1 v -1 z m -18,4 -6,1 v 1 l 6,-2 z m 12,0 6,2 v -1 l -6,-1 z m -10,1 v 1 a 1,1 0 0 0 1,1 1,1 0 0 0 1,-1 v -1 h -2 z m 6,0 v 1 a 1,1 0 0 0 1,1 1,1 0 0 0 1,-1 v -1 h -2 z m -7,1 -7,4 v 1 l 7,-5 z m 10,0 7,5 v -1 l -7,-4 z m -8,2 -5,7 h 1 l 4,-7 z m 6,0 4,7 h 1 l -5,-7 z m -4,1 -2,6 h 1 l 1,-6 z m 2,0 1,6 h 1 l -2,-6 z" style="opacity:0.1"/><path d="m 16,11 5,7 -4,-7 h -1 z m 5,0 2,6 -1,-6 h -1 z m 5,0 -1,6 2,-6 h -1 z m 5,0 -4,7 5,-7 h -1 z m -19,4 v 1 l 7,4 -7,-5 z m 24,0 -7,5 7,-4 v -1 z m -14,4 c -2,0 -2,2 -2,3 v 2 h 2 c 0,-2 1,-2.5 1,-3.5 0,-0.5 -1e-6,-1.5 -1,-1.5 z m 4,0 c -1,0 -1,1 -1,1.5 0,1 1,1.5 1,3.5 h 2 v -2 c 0,-1 -2e-6,-3 -2,-3 z m -14,1 v 1 l 6,1 -6,-2 z m 24,0 -6,2 6,-1 v -1 z m -18,4 -6,1 v 1 l 6,-2 z m 12,0 6,2 v -1 l -6,-1 z m -10,1 v 1 a 1,1 0 0 0 1,1 1,1 0 0 0 1,-1 v -1 h -2 z m 6,0 v 1 a 1,1 0 0 0 1,1 1,1 0 0 0 1,-1 v -1 h -2 z m -7,1 -7,4 v 1 l 7,-5 z m 10,0 7,5 v -1 l -7,-4 z m -8,2 -5,7 h 1 l 4,-7 z m 6,0 4,7 h 1 l -5,-7 z m -4,1 -2,6 h 1 l 1,-6 z m 2,0 1,6 h 1 l -2,-6 z" style="fill:#eee"/></g></svg>