<svg xmlns="http://www.w3.org/2000/svg" viewBox="0 0 256 256"><defs><linearGradient gradientTransform="matrix(13.746 0 0 16.483 -44.4 6.58)" gradientUnits="userSpaceOnUse" x2="1" x1="0" id="1"><stop style="stop-color:#b1007f"/><stop offset="0.3" style="stop-color:#ff00e1"/><stop offset="0.81" style="stop-color:#ffa400"/><stop offset="1" style="stop-color:#ff8b00"/></linearGradient><radialGradient gradientUnits="userSpaceOnUse" r="11.7" cy="2.74" cx="-45.64" id="0"><stop style="stop-color:#00a9ff"/><stop offset="0.9" style="stop-color:#00afff"/><stop offset="1"/></radialGradient></defs><path d="m 245.3 151.6 c -25.5 170.7 -287.7 112.4 -238.1 -52.8 c 33.3 -157 301.6 -114.5 238.1 52.8" style="fill:#1a0501"/><g transform="matrix(9.62 0 0 9.588 505.2 67.6)" style="stroke-miterlimit:1.41;fill-rule:evenodd;stroke-linejoin:round;stroke-width:0.04"><path d="m -31.2 3.42 c 0.3 0.88 0.47 1.82 0.47 2.81 0 4.74 -3.85 8.59 -8.59 8.59 -4.54 0 -8.26 -3.53 -8.57 -8 l 9.67 -1.61 h -9.63 c 0.11 -0.96 0.38 -1.86 0.78 -2.7 l 10.63 -1.77 h -9.49 c 1.58 -1.89 3.95 -3.1 6.61 -3.1 3.2 0 5.99 1.75 7.47 4.35 l -8.61 1.43 z" style="fill:#00a9ff"/><path d="m -31.2 3.42 c 0.3 0.88 0.47 1.82 0.47 2.81 0 4.74 -3.85 8.59 -8.59 8.59 -1.93 0 -3.72 -0.64 -5.16 -1.72 5.29 -0.15 9.55 -4.4 9.73 -9.67 z m -3.56 -0.95 c -0.09 -1.49 -0.5 -2.89 -1.18 -4.14 1.73 0.74 3.16 2.03 4.08 3.65 z" style="fill:url(#1)"/><path d="m -44.4 13.1 c 0.66 0.5 0.29 0.22 0.03 0.02 -1.95 -1.46 -3.26 -3.72 -3.44 -6.3 l 9.67 -1.61 h -9.63 c 0.11 -0.96 0.38 -1.86 0.78 -2.7 l 10.63 -1.77 h -9.49 c 1.58 -1.89 3.95 -3.1 6.61 -3.1 1.2 0 2.35 0.25 3.39 0.69 0.67 1.24 1.09 2.65 1.18 4.14 l -5.7 0.95 h 5.71 c -0.18 5.28 -4.45 9.53 -9.73 9.67 z" style="fill:url(#0)"/><g style="fill:#fff;fill-opacity:0.1"><path d="m -36.88,-2 c 2.16,0.63 3.98,2.09 5.07,4 l -8.61,1.43 h 9.26 c 0.3,0.88 0.47,1.82 0.47,2.81 0,3.9 -2.6,7.19 -6.16,8.24 l -8.13,-8.13 6.8,-1.13 h -5.93 l 3.82,-3.82 3.9,-0.65 h -3.25 z"/><path d="m -31.1 3.52 c 0.28 0.85 0.44 1.77 0.44 2.71 0 0.94 -0.15 1.84 -0.43 2.69 l -2.7 -2.7 z"/><path d="m -34.81,3.42 h 3.65 c 0.3,0.88 0.47,1.82 0.47,2.81 0,1.94 -0.64,3.73 -1.73,5.16 L -37.6,6.21 z m 2.38,-2.38 c 0.23,0.3 0.44,0.62 0.62,0.94 l -1.88,0.31 z"/><path d="m -40.3,-2.3 c 0.34,-0.04 0.68,-0.06 1.02,-0.06 3.2,0 5.99,1.75 7.47,4.35 l -8.61,1.43 h 9.26 c 0.3,0.88 0.47,1.82 0.47,2.81 0,4.74 -3.85,8.59 -8.59,8.59 -0.33,0 -0.66,-0.02 -0.98,-0.06 l -7.55,-7.55 c -0.01,-0.13 -0.03,-0.26 -0.04,-0.39 l 9.67,-1.61 h -9.63 l 3.08,-3.08 8.34,-1.39 h -6.95 z"/><path d="m -40.4,5.21 1.79,-1.79 h 7.43 c 0.3,0.88 0.47,1.82 0.47,2.81 0,2.9 -1.44,5.47 -3.64,7 l -7,-7 0.56,-0.56 2.63,-0.44 z m 6,-6 c 1.04,0.73 1.91,1.69 2.55,2.8 l -6.41,1.07 z"/></g></g></svg>