<svg xmlns="http://www.w3.org/2000/svg" viewBox="0 0 256 256"><path d="m 201.4 218.5 c 223.4 -264.9 -329 -302.4 -172.8 -32.1 35.61 61.6 113.6 102.3 172.8 32.1" style="fill:#ff8c00"/><g transform="matrix(6.487 0 0 5.642 -27 -11.68)"><path d="m 24 11 c -1.46 0 -2.78 1.13 -2.78 2.52 0 1.09 0.75 2.14 1.78 2.48 v 4 l -4.23 3.47 c -0.22 0.15 -0.42 0.42 -0.42 0.68 v 1.84 h -1.35 v 4 h 4 v -4 h -1 v -1.41 l 3 -2.59 v 10 h -2 l 3 5 l 3 -5 h -2 v -12.51 l 3 2.51 v 1.78 c -0.78 0.32 -1.41 1.05 -1.41 1.91 0 1.16 0.99 2.1 2.2 2.1 1.21 0 2.2 -0.94 2.2 -2.1 0 -0.86 -0.55 -1.59 -1.32 -1.91 v -2.28 c 0 -0.25 -0.12 -0.5 -0.32 -0.65 l -4.36 -3.54 v -1.3 c 1.03 -0.34 1.51 -1.39 1.51 -2.48 0 -1.39 -1.05 -2.52 -2.51 -2.52" style="opacity:0.1"/><path d="m 23.56 9.59 c -1.24 -0.05 -2.34 1.54 -2.34 2.93 c 0 1.09 0.75 2.14 1.78 2.48 v 4 l -4.23 3.47 c -0.22 0.15 -0.42 0.42 -0.42 0.68 v 1.84 h -1.35 v 4 h 4 v -4 h -1 v -1.41 l 3 -2.59 v 10 h -2 l 3 5 l 3 -5 h -2 v -12.51 l 3 2.51 v 1.78 c -0.78 0.32 -1.41 1.05 -1.41 1.91 0 1.16 0.99 2.1 2.2 2.1 1.21 0 2.2 -0.94 2.2 -2.1 0 -0.86 -0.55 -1.59 -1.32 -1.91 v -2.29 c 0 -0.25 -0.12 -0.5 -0.32 -0.65 l -4.36 -3.54 v -1.3 c 1.03 -0.34 1.51 -1.39 1.51 -2.48 0 -1.39 -1.09 -2.93 -2.55 -2.93" style="fill:#1266bd"/></g><path d="m 111 237.4 c -17.2 -7.27 -30.1 -22.3 -35.69 -41.46 42.75 10.74 55.66 17.86 108.7 -4.73 l -1.55 6 c -3.69 14.27 -14.27 30.2 -28.2 36.64 -15.98 7.43 -34.71 7.18 -43.3 3.55 z" style="fill:#ffd170"/></svg>