<svg xmlns="http://www.w3.org/2000/svg" viewBox="0 0 256 256"><path d="m 234.1 67.7 c 68.88 92 -41.3 204.2 -130.1 184.8 -87.4 -11.43 -140.2 -144.4 -72.6 -211.9 c 49.4 -48.59 133.8 -64.86 202.7 27.1" style="fill:#f5f5f5"/><path d="m 65.1 88 c -9.2 -1.77 -17.66 -5 -20.29 -7.84 -5.57 -5.93 -5.47 -4.45 -5.08 -77 0.32 -58.6 0.18 -66.93 -1.14 -67.6 -0.83 -0.44 -10.5 -1.08 -21.5 -1.42 -11 -0.34 -26.1 -0.9 -33.5 -1.24 -7.46 -0.34 -15.1 -0.2 -17 0.31 l -3.5 0.93 v 19.43 c 0 26.94 -2.31 73.82 -3.92 79.6 -0.73 2.63 -2.55 9.29 -4 14.79 -3.16 11.67 -5.69 15.99 -12.53 21.39 -7.52 5.95 -10.23 6.53 -25.96 5.56 -7.45 -0.46 -16.94 -0.86 -21.1 -0.89 -8.68 -0.07 -12.1 -1.71 -14.64 -6.99 -2.15 -4.5 -1.11 -9.44 2.76 -13.1 l 3.07 -2.93 l 19.43 0.28 c 11.53 0.17 20.2 -0.12 21.28 -0.71 1.02 -0.55 2.33 -2.25 2.9 -3.78 2.27 -6.07 6.12 -20 6.68 -24.29 1.1 -8.21 1.95 -45.1 1.67 -71.8 -0.27 -25.1 -0.19 -26.46 1.87 -30.71 4.71 -9.72 11.7 -11.1 51.5 -10.1 56.3 1.43 61.6 1.78 65.1 4.3 7.16 5.11 8.53 15.28 6.41 47.53 -0.83 12.69 -0.98 30.79 -0.47 59.5 0.83 47.4 -0.47 42.64 11.98 44.2 4.17 0.53 9.16 1.71 11.1 2.61 6.81 3.23 8.54 11.95 3.5 17.59 -2.72 3.04 -3.35 3.26 -10.25 3.47 -4.04 0.13 -10.5 -0.37 -14.35 -1.12 z" transform="matrix(0.69 0 0 0.695 128.1 130)" style="fill:#2e2e2e"/></svg>