<svg xmlns="http://www.w3.org/2000/svg" viewBox="0 0 256 256"><path d="m 203.2 27.8 c -192.5 -126.4 -311 276.7 -62.2 223.3 102.8 -22.74 165.2 -165.3 62.2 -223.3" style="fill:#c2e4f4"/><path d="m 75.7 201.1 c -6.84 -2.1 -13.98 -9.4 -16.1 -16.43 -1.99 -6.71 -1.99 -11.17 0.02 -18 1.52 -5.19 3.43 -7.27 43.5 -47.5 23.1 -23.1 41.91 -42.62 41.91 -43.3 0 -0.72 -0.9 -2.46 -2 -3.86 -2.9 -3.69 -2.62 -8.64 0.63 -11.2 5.46 -4.29 5.95 -3.95 33.1 23.2 27.1 27.1 27.49 27.64 23.2 33.1 -2.56 3.26 -7.51 3.54 -11.2 0.63 -1.4 -1.1 -3.13 -2 -3.86 -2 -0.72 0 -20.23 18.86 -43.3 41.91 -40.2 40.1 -42.3 41.98 -47.5 43.5 -6.62 1.94 -12 1.93 -18.43 -0.04 z m 83.6 -83.1 c 7.57 -7.56 13.76 -14.18 13.76 -14.73 0 -1.34 -14.17 -15.54 -15.51 -15.54 -1.83 0 -42.75 41.77 -42 42.92 0.43 0.7 5.88 1.08 15.35 1.08 h 14.68 l 13.76 -13.74 z" transform="matrix(0.944 0 0 0.944 5.94 7.76)" style="fill:#6b5ee8"/></svg>