<svg xmlns="http://www.w3.org/2000/svg" viewBox="0 0 256 256"><path d="m 5.76 98.7 c 70.5 -239.9 392.4 17.64 175.4 139.6 c -84.7 52.3 -211.6 -16.2 -175.4 -139.6" style="fill:#ff8c00"/><g style="fill:#fff"><rect width="130.5" height="93.9" x="59.6" y="105.1" rx="2.1"/><path d="m 70.6 98.7 c 0 -0.16 0.25 -1.82 0.55 -3.69 3.61 -22.26 20.39 -39.88 42.5 -44.58 4.54 -0.97 16.21 -0.97 20.75 0 22.1 4.71 38.79 22.31 42.47 44.75 0.29 1.78 0.53 3.37 0.54 3.53 0 0.16 -24 0.28 -53.4 0.28 -29.36 0 -53.4 -0.13 -53.4 -0.28 z"/></g></svg>