<svg xmlns="http://www.w3.org/2000/svg" viewBox="0 0 256 256"><path d="m 246.9 99.2 c -86.6 -238.2 -387.4 17.51 -163.9 138.6 87.5 51.92 208.5 -16.1 163.9 -138.6" style="fill:#ff8c00"/><path d="m 192.4 129.8 a 53.95 55.3 0 1 1 -107.9 0 53.95 55.3 0 1 1 107.9 0 z" transform="matrix(0.972 0 0 0.98 -41.77 -28.75)" style="fill:#fff"/><rect width="86" height="84.1" x="77.7" y="81.98" rx="2.1" style="fill:#ff8c00"/><rect rx="2.1" y="90.3" x="85.3" height="84.1" width="86" style="fill:#fff"/><path d="m 127.9 180.2 l 18.3 -33.1 l 18 -34.62 l 19.55 32.42 l 20.96 32.93 l -37.85 0.72 z" transform="matrix(1.37 0.036 -0.046 1.311 -48.5 -52.2)" style="fill:#ff8c00"/><path transform="matrix(1.335 0.058 -0.065 1.338 -33.83 -52.67)" d="m 127.9 180.2 l 18.3 -33.1 l 18 -34.62 l 19.55 32.42 l 20.96 32.93 l -37.85 0.72 z" style="fill:#fff"/></svg>