<svg xmlns="http://www.w3.org/2000/svg" viewBox="0 0 256 256"><path d="m 200.2 27.35 c -127.2 -91.7 -266.8 77.6 -164.5 185.6 96.3 101.7 256.4 7.42 212.8 -119.2 -9.11 -26.41 -24.88 -49.59 -48.2 -66.4" style="fill:#00678a"/><g style="fill:#711c91"><path d="m 113.5 186 v -74.6 h 76.4 h 76.4 v 74.6 v 74.6 h -76.4 h -76.4 v -74.6 z m 146.8 0 v -68.8 h -70.4 h -70.4 v 68.8 v 68.8 h 70.4 h 70.4 v -68.8 z m -132.9 61.1 c -1.04 -1.02 -1.04 -121.2 0 -122.2 1.04 -1.02 124 -1.02 125 0 1.04 1.02 1.04 121.2 0 122.2 -1.02 1 -33.3 1 -34.4 0 -0.54 -0.53 -0.72 -11.17 -0.72 -44.3 v -43.61 h -4.77 h -4.77 v 43.61 c 0 33.1 -0.17 43.78 -0.72 44.3 -1.02 1 -33.3 1 -34.4 0 -0.54 -0.53 -0.72 -11.17 -0.72 -44.3 v -43.61 h -4.77 h -4.77 v 43.61 c 0 33.1 -0.17 43.78 -0.72 44.3 -1.02 1 -33.3 1 -34.4 0 z" transform="matrix(0.903 0 0 0.895 -43.71 -37.82)"/></g><g style="fill:#0ff"><path d="m -9.98 267.8 c 2.81 -1.05 5.62 -2.11 8.45 -3.08 0.32 19.53 0.21 34.42 0.21 55.5 76.87 0 153.7 0 230.6 0 0 -13.79 0 -27.59 0 -41.4 3.19 2.21 6.37 4.42 9.56 6.62 0 14.3 0 28.61 0 42.91 -83 0 -166.1 0 -249.1 0 0.1 -20.2 0.21 -40.4 0.31 -60.6 z" transform="matrix(0.553 0 0 0.634 64.76 -11.15)"/><path d="m 71.3 151 c 5 -6 9.27 -14.56 15.67 -18.38 6.12 -2.83 8.69 5.3 14.21 7.26 1.86 0.59 1.99 1.07 1.47 5.44 -0.76 13.44 -0.59 24.1 -0.59 37.88 -10.25 0 -20.5 0 -30.76 0 0 -11.2 0 -20.72 0 -32.2 z"/><path d="m 112.3 146.1 c 5.51 -0.74 9.43 -4.95 12.1 -7.78 5.1 -5.52 15.49 -12.96 18.1 -12.96 0.93 20.33 0.61 35.86 0.61 57.78 -10.25 0 -20.5 0 -30.76 0 0 -12.35 0 -24.7 0 -37 z"/><path d="m 153.3 129 l 5.59 3.92 c 5.2 3.65 5.72 4.35 7.47 10.1 2.32 7.62 2.63 8 10.94 13.48 l 6.76 4.46 c 0 7.41 0 14.82 0 22.2 -10.25 0 -20.5 0 -30.76 0 0 -18.1 0 -36.1 0 -54.2 z"/></g></svg>