<svg xmlns="http://www.w3.org/2000/svg" viewBox="0 0 256 256"><path d="m 56.1 27.35 c 127.2 -91.7 266.8 77.6 164.5 185.6 -96.3 101.7 -256.4 7.42 -212.8 -119.2 9.11 -26.41 24.88 -49.59 48.2 -66.4" style="fill:#105432"/><path d="m 113.5 186 v -74.6 h 76.4 h 76.4 v 74.6 v 74.6 h -76.4 h -76.4 v -74.6 z m 146.8 0 v -68.8 h -70.4 h -70.4 v 68.8 v 68.8 h 70.4 h 70.4 v -68.8 z m -132.9 61.1 c -1.04 -1.02 -1.04 -121.2 0 -122.2 1.04 -1.02 124 -1.02 125 0 1.04 1.02 1.04 121.2 0 122.2 -1.02 1 -33.3 1 -34.4 0 -0.54 -0.53 -0.72 -11.17 -0.72 -44.3 v -43.61 h -4.77 h -4.77 v 43.61 c 0 33.1 -0.17 43.78 -0.72 44.3 -1.02 1 -33.3 1 -34.4 0 -0.54 -0.53 -0.72 -11.17 -0.72 -44.3 v -43.61 h -4.77 h -4.77 v 43.61 c 0 33.1 -0.17 43.78 -0.72 44.3 -1.02 1 -33.3 1 -34.4 0 z" transform="matrix(0.903 0 0 0.895 -43.71 -37.82)" style="fill:#e9f7ed"/></svg>