<svg xmlns="http://www.w3.org/2000/svg" viewBox="0 0 256 256"><path d="m 4.62 156.9 c 15.77 103.6 155.9 131.4 217.7 57.4 54.4 -54.98 40.93 -160.2 -25.93 -196.3 -76.7 -48.3 -188.5 11.41 -194.5 107.6 c -0.63 10.52 0.26 21.2 2.75 31.4 z" style="fill:#9932cc;color:#000"/><g style="fill:#fff"><path d="m 37.54 129.3 c 3.08 -5.27 5.29 -9.79 10 -16.1 5.64 -1.2 10.11 0.09 17.22 -0.74 2.64 0.9 4.52 3.48 11.14 15.24 l 1.25 2.23 c -3.24 5.51 -6.47 11 -9.71 16.53 -7.15 -0.04 -14.8 0.33 -20.75 0.59 -8.1 -14.58 -2.34 -5.67 -9.19 -17.76 z"/><path d="m 49.4 98 c 0.01 -2.79 5.89 -13.94 11.1 -21.1 4.89 -6.68 14.81 -16.38 19 -18.57 6.34 0.77 5.12 8.82 12.1 5.36 4.67 -2.36 5.13 -3.5 3.23 -7.86 -1.77 -4 -1.92 -5 -0.93 -5.91 2.11 -1.92 15.1 -5.88 24.42 -7.43 5.92 -0.98 20.56 -0.82 23.42 0.27 1.46 0.55 1.61 0.77 1.35 2.06 -0.61 3.06 -9.28 17.66 -11.24 18.91 -0.57 0.36 -3.35 0.92 -6.17 1.23 -13.74 1.53 -24.72 5.87 -35.3 13.91 -8.37 4.13 -15.62 18.34 -19.2 20.68 -3.68 0.12 -21.78 2.24 -21.82 -1.6 z"/><path d="m 156 82.7 c -4.75 -6.82 -4.85 -11.76 -9.3 -18.1 3.44 -5.48 6.2 -11.63 10.16 -16.69 7.25 -0.15 12.78 0.18 20.48 0.46 3.2 5.32 6.39 10.63 9.59 15.95 -3.46 5.59 -5.54 11.5 -10.68 18.55 -3.43 0.1 -12.58 -0.14 -20.25 -0.17 z"/><path d="m 195.7 183.9 c -1.82 -2.03 -6.12 -8.86 -8.52 -13.51 -2.73 -5.3 -2.86 -4 1.49 -14.18 4.4 -10.27 6.3 -20.29 5.67 -29.91 -0.61 -9.35 -2.13 -15.27 -6.49 -25.2 -1.48 -3.39 -2.7 -6.64 -2.7 -7.22 0 -2.06 7.1 -14.5 10.2 -17.95 1.38 -1.52 1.64 -1.63 2.39 -1 2.21 1.85 8 10.77 11.21 17.2 3.63 7.32 8.79 26.81 7.87 29.74 -3.13 2.88 -6.49 1.06 -9.54 3.48 -0.56 1.05 -0.64 8.36 -0.11 9.17 3.14 2.36 5.9 1.41 9.41 2.92 0.96 1.17 -1.51 12.81 -4.69 22.1 -2.55 7.48 -8.89 19.1 -13.1 23.88 -1.67 1.92 -1.82 1.95 -3.11 0.51 z"/><path d="m 155.8 210.5 c -1.49 -1.94 -8.37 -13.86 -8.91 -15.28 2.79 -6.77 5.71 -11.13 9.68 -18 6.54 0.36 13.16 -0.06 19.67 0.6 0.87 0.18 3.68 4.62 9.38 14.85 0.78 2.2 -7.36 13.9 -10.56 18.97 -15.52 -0.56 -19.72 -0.02 -19.27 -1.14 z"/><path d="m 125.2 217.6 c -12.65 -1.15 -26 -4.46 -30.43 -7.52 -3.48 -5.79 4.65 -10.61 -2.98 -14.24 -5.52 -2.42 -8.2 2.89 -9.9 5.25 -1.02 1.42 -1.02 1.42 -2.38 0.52 -4.52 -2.99 -17.72 -16.98 -21.54 -22.81 -3.14 -4.8 -7.24 -12.46 -8.3 -15.51 -1.19 -3.42 -1.04 -3.46 11.98 -3.46 h 11.1 c 6.23 8.99 13.64 17.94 22.31 24.1 8.42 5.84 21.77 10.32 32.2 10.83 l 5.24 0.25 c 2.81 6.86 10.42 13.61 11.1 20.84 -0.63 1.65 -9.87 2.52 -18.41 1.75 z"/></g></svg>