<svg xmlns="http://www.w3.org/2000/svg" viewBox="0 0 256 256"><path d="m 0.97 129.8 c -19.39 170 258.1 167.6 254.8 -3 9.14 -158.7 -269.9 -173.1 -254.8 3" style="fill:#d076be"/><g transform="matrix(5.41 0 0 4.749 -5.85 22.64)"><path d="m 11 28 v 2 c 0 1.66 1.34 3 3 3 h 1 v 1 l 1 3 h 2 l 1 -3 v -1 h 3 v 1 l 1 3 h 2 l 1 -3 v -1 h 3 v 1 l 1 3 h 2 l 1 -3 v -1 h 1 c 1.66 0 3 -1.34 3 -3 v -2 z" style="opacity:0.1"/><path d="m 16,10 -1,3 v 20 l 1,3 h 2 l 1,-3 V 13 l -1,-3 h -2 z m 7,0 -1,3 v 20 l 1,3 h 2 l 1,-3 V 13 l -1,-3 h -2 z m 7,0 -1,3 v 20 l 1,3 h 2 l 1,-3 V 13 l -1,-3 h -2 z" style="fill:#e5e5e5"/><rect rx="0.55" height="18" width="26" y="14" x="11" ry="0.63" style="fill:#616161"/><path d="m 15 32 v 1 h 4 v -1 z m 7 0 v 1 h 4 v -1 z m 7 0 v 1 h 4 v -1 z" style="opacity:0.1"/><path d="m 11,29.4 c 0.2,1.47 1.44,2.6 2.96,2.6 h 20 c 1.52,0 2.76,-1.13 2.96,-2.6 -0.19,0.91 -0.99,1.6 -1.96,1.6 h -22 C 11.99,31 11.19,30.32 11,29.4 z" style="opacity:0.1"/><path d="m 16,18 -1,1 v 8 l 1,1 h 4 l 1,-1 -1,-1 h -3 v -2 h 2 l 1,-1 -1,-1 h -2 v -2 h 3 l 1,-1 -1,-1 z m 7,0 -1,1 v 8 l 1,1 1,-1 v -3 h 2 l 1,-1 -1,-1 h -2 v -2 h 3 l 1,-1 -1,-1 z m 7,0 -1,1 1,1 v 6 l -1,1 1,1 h 2 l 1,-1 -1,-1 v -6 l 1,-1 -1,-1 z" style="fill:#e5e5e5"/></g></svg>