<svg xmlns="http://www.w3.org/2000/svg" viewBox="0 0 256 256"><path d="m 48.4 44.56 c -134.5 103.6 46.71 290.5 165.7 171.1 119.3 -102.8 -51.2 -302.3 -165.7 -171.1" style="fill:#2c2c2c"/><g transform="matrix(0.84 0 0 0.848 18.1 23.1)"><path d="m 123.7 204.9 c -15.76 -3.33 -27.94 -9.72 -39.6 -20.8 -16.75 -15.91 -24.87 -35 -24.75 -58.3 c 0.09 -17.62 4.59 -31.53 14.89 -46.1 6.74 -9.52 20.34 -21.42 24.47 -21.43 0.83 0 7.31 5.8 14.38 12.89 11.1 11.1 12.78 13.24 12.26 15.31 -0.96 3.82 1.2 9.72 4.92 13.44 l 3.42 3.42 v 22.6 v 22.6 l -3.94 4.27 c -6.6 7.16 -6.4 15.32 0.53 21.4 6.1 5.31 16.21 3.7 20.44 -3.25 3.56 -5.84 1.89 -16.1 -3.05 -18.71 -1.9 -1.02 -1.99 -2.13 -1.99 -24 0 -12.63 0.35 -22.96 0.77 -22.96 0.43 0 4.25 3.5 8.5 7.77 7.56 7.6 7.73 7.88 7.73 12.75 0 6.15 2.5 10.54 7.28 12.81 9.57 4.54 19.7 -1.7 19.71 -12.1 0.01 -8.42 -5.75 -14.2 -14.1 -14.2 -4.22 0 -4.78 -0.38 -13.63 -9.27 -8.76 -8.8 -9.23 -9.49 -9.23 -13.55 0 -8.4 -5.76 -14.18 -14.1 -14.18 -4.28 0 -4.72 -0.32 -15.76 -11.39 -6.25 -6.27 -11.1 -11.86 -10.72 -12.42 0.83 -1.34 12.17 -3.87 21.2 -4.73 8.24 -0.79 21.68 0.77 30.68 3.56 3.42 1.06 9.95 4.08 14.5 6.71 33.3 19.22 48.2 57.4 36.61 94 -3.89 12.33 -10.24 22.43 -20.32 32.3 -9.83 9.65 -21.28 16.36 -34.1 19.99 -9.66 2.74 -27.85 3.52 -37 1.59 z" style="fill:#655c89"/><path d="m 100.3 210.3 c -31.47 -8.31 -54.3 -32.45 -61.1 -64.72 -1.78 -8.43 -1.78 -23.6 0 -32.1 6.45 -30.72 28.92 -54.77 59.4 -63.5 11 -3.16 11.39 -2.42 1.29 2.6 -11.23 5.57 -16.46 9.52 -26.63 20.1 -11.1 11.57 -17.31 22.79 -20.76 37.52 -5.43 23.2 -0.36 49.5 13 67.75 8.98 12.24 19.2 20.79 33.87 28.39 11 5.72 11.27 6.67 0.92 3.94 z" transform="translate(0 -3.42)" style="fill:#f7941e"/></g></svg>