<svg xmlns="http://www.w3.org/2000/svg" viewBox="0 0 256 256"><path d="m 2.97 157.2 c 15.87 103.3 156.9 131 219.1 57.2 54.8 -54.8 41.2 -159.7 -26.1 -195.7 -77.2 -48.1 -189.7 11.37 -195.8 107.2 -0.63 10.49 0.26 21.1 2.77 31.3 z" style="fill:#dfb0b5;color:#000"/><g transform="matrix(5.392 0 0 5.498 -1.7 4.77)"><path d="m 12 14 v 4 h 1 v 12 h -1 v 4 c 0 1.11 0.89 2 2 2 h 4 v -1 h 12 v 1 h 4 c 1.11 0 2 -0.89 2 -2 v -4 h -1 v -12 h 1 v -4 z" style="opacity:0.1"/><path d="M 13,12 H 35 V 34 H 13 z" style="fill:#ececec"/><path d="m 14 12 c -0.37 0 -0.71 0.1 -1 0.27 v 5.73 h 1 v -4 h 4 v -2 z m 16 0 v 2 h 4 v 4 h 1 v -5.73 c -0.29 -0.17 -0.63 -0.27 -1 -0.27 z" style="opacity:0.1"/><path d="m 14 11 c -1.11 0 -2 0.89 -2 2 v 4 h 2 v -4 h 4 v -2 z m 16 0 v 2 h 4 v 4 h 2 v -4 c 0 -1.11 -0.89 -2 -2 -2 z m -18 18 v 4 c 0 1.11 0.89 2 2 2 h 4 v -2 h -4 v -4 z m 14 0 v 2 h 2 v -2 z m 4 0 v 2 h 2 v -2 z m 4 0 v 4 h -4 v 2 h 4 c 1.11 0 2 -0.89 2 -2 v -4 z" style="fill:#ee444c"/><path d="m 16 15 v 2 h 2 v 5 h -2 v 2 h 8 v -4 h -2 v 2 h -2 v -5 h 2 v -2 z m 10 0 v 2 h 2 v -2 z m 4 0 v 2 h 2 v -2 z" style="fill:#3584e4"/><path d="m 26 19 v 1 h 6 v -1 z m 0 2 v 1 h 6 v -1 z m 0 2 v 1 h 6 v -1 z m -10 3 v 1 h 16 v -1 z m 0 2 v 1 h 8 v -1 z m 0 2 v 1 h 8 v -1 z" style="fill:#b2b2b2"/></g></svg>