<svg xmlns="http://www.w3.org/2000/svg" viewBox="0 0 256 256"><path d="m 103.4 252.1 c -23.64 -10.1 -56.5 -24.86 -59.4 -26.77 -1.79 -1.17 -4.79 -4.17 -6.68 -6.65 -5.4 -7.1 -34.48 -57.7 -35.69 -62.2 -1.17 -4.18 -0.65 -19.46 1.14 -33.3 4.04 -40.75 2 -39.84 7.37 -48.62 1.14 -2.37 12.73 -15.86 25.73 -29.98 25 -27.1 27.68 -29.35 38.2 -31.37 28.41 -4.88 46.4 -10.92 71.88 -12.42 22.7 9.67 47.2 19.78 68.6 31.89 c 3.35 2.86 8.32 10.37 19.5 29.35 22.88 38.95 21 34.7 20.9 48.3 -2.29 21.2 -2.15 56.6 -9.52 71.6 -2.55 4.74 -35.89 42.3 -46.4 52.3 -5.24 4.97 -10.49 7.23 -22.69 9.75 -12.34 4.58 -41.3 9.34 -51.2 11.2 -5.72 1.33 -12.43 0.86 -21.72 -3.1" style="fill:#0b0b0b"/><g transform="matrix(0.938 0 0 0.926 9.54 13.25)"><path d="m 121 217.4 c -19.26 -10.1 -70.9 -39.86 -74.4 -42.88 l -2.38 -2.05 l -0.31 -31.51 c -0.17 -17.33 -0.03 -38.84 0.32 -47.79 l 0.63 -16.28 l 5.11 -3.05 c 19.97 -11.92 61.9 -35.96 69.5 -39.87 l 9.25 -4.73 l 6.12 3.4 c 7.54 4.18 13.81 8.4 13.81 9.29 0 1 -21.87 14.34 -50 30.49 -13.83 7.94 -26.45 15.5 -28 16.81 l -2.9 2.39 l -0.31 12.99 c -0.17 7.14 -0.03 22.77 0.32 34.72 l 0.64 21.73 l 28.7 16.48 c 15.78 9.1 29.36 16.48 30.2 16.48 2.49 0 7.34 -2.54 35.45 -18.6 39.3 -22.44 47.5 -26.91 48.2 -26.2 0.35 0.35 0.63 5.97 0.63 12.5 v 11.87 l -14.47 8.52 c -23.73 13.96 -67.6 39 -68.3 39 -0.35 0 -3.86 -1.69 -7.8 -3.75 z" style="fill:#f1ca5b"/><g style="fill:#fff"><path d="m 93.3 127.2 c -1 -2.65 -1.23 -15.96 -0.32 -19.34 0.35 -1.31 2.86 -3.59 6.55 -5.95 8.87 -5.68 44.59 -25.95 53.65 -30.44 l 7.88 -3.91 l 7.5 3.81 c 7.52 3.82 13.32 7.8 12.47 8.57 -2.02 1.84 -81.8 47.77 -85.2 49.1 -1.15 0.44 -1.81 -0.04 -2.49 -1.81 z"/><path d="m 121.2 162.5 c -7.23 -3.62 -13.32 -8.6 -12.3 -10.1 0.93 -1.33 22.86 -14.44 50.89 -30.4 25.78 -14.69 34.3 -19.2 35.1 -18.42 0.76 0.76 1.43 19 0.8 21.56 -0.59 2.34 -9.9 8.5 -33.1 21.9 -12.25 7.1 -33.65 18.56 -34.55 18.56 -0.26 0 -3.3 -1.41 -6.75 -3.14 z"/><path d="m 200.7 123.7 c -0.31 -0.31 -0.57 -6.18 -0.57 -13 v -12.47 l 3.92 -2.3 c 4.52 -2.65 6.51 -2.89 7.29 -0.87 0.3 0.79 0.55 6.28 0.55 12.2 v 10.77 l -3.39 2.13 c -5.35 3.36 -7.18 4.2 -7.8 3.59 z"/><path d="m 178.8 71.8 c -8.32 -4.74 -11.15 -6.81 -11.15 -8.13 0 -1.26 8.31 -6.17 10.43 -6.17 1.9 0 15.92 7.91 18.43 10.4 1.1 1.09 0.88 1.64 -1.58 3.94 -5.46 5.1 -7.13 5.1 -16.1 -0.03 z"/></g></g></svg>