<svg xmlns="http://www.w3.org/2000/svg" viewBox="0 0 256 256" xmlns:xlink="http://www.w3.org/1999/xlink"><defs><path id="0" d="m 123 85.8 a 19.53 17.49 0 1 1 -39.1 0 19.53 17.49 0 1 1 39.1 0 z" style="fill:#fff"/></defs><path d="m 193.5 19.2 c 222.8 191.1 -235.3 374.9 -188.3 79.3 10.32 -64.81 128.1 -130.8 188.3 -79.3" style="fill:#182441"/><use transform="matrix(1.269 0 0 1.383 -47.58 -36)" xlink:href="#0"/><path d="m 153.3 129.8 a 23 22.44 0 1 1 -46.1 0 23 22.44 0 1 1 46.1 0 z" transform="matrix(0.985 0 0 1 -3.29 0.5)" style="fill:#fff"/><use transform="matrix(1.194 0 0 1.333 22.27 68.5)" xlink:href="#0"/><use transform="matrix(1.269 0 0 1.383 33.46 -45.3)" xlink:href="#0"/><use transform="matrix(1.55 0 0 1.717 -90.9 29.85)" xlink:href="#0"/><path transform="matrix(0.925 0 0 0.967 67.2 10.37)" d="m 153.3 129.8 a 23 22.44 0 1 1 -46.1 0 23 22.44 0 1 1 46.1 0 z" style="fill:#fff"/><g style="fill:#221b15"><path d="m 75.5 193.6 c -3.39 -1.25 -5.74 -3.44 -5.74 -5.35 0 -2.19 2.7 -2.33 5.49 -0.28 1.83 1.35 2.61 1.45 4.18 0.52 2.32 -2.31 2.49 -5.75 0.59 -7.67 -0.9 -0.9 -1.67 -1.31 -2.45 -1.31 -3.16 0 -5.09 -2.07 -3.78 -4.07 0.36 -0.54 0.94 -1.09 1.3 -1.21 1.87 -0.62 3.92 -1.8 5.2 -2.97 1.82 -1.75 1.81 -4.14 0.3 -5.67 -3.51 -2.17 -4.92 0.4 -8.19 1.39 -2.16 0.26 -2.73 -1.6 -2.08 -2.86 1.24 -2.39 5.37 -4.65 8.52 -4.67 2.93 -0.01 5.15 1.26 6.32 3.61 1.33 3.22 3.93 5.52 0.4 9.58 -1.73 2.41 -4.95 5.21 -2.35 6.57 5.87 3.07 2.67 10.19 1.2 12.24 -1.66 2.33 -5.72 3.3 -8.91 2.13 z"/><path d="m 50.88 193.4 c -0.77 -3.47 4.79 -3.16 6.12 -6.19 0.61 -1.48 0.77 -20.71 0.17 -21.2 -2.46 -0.32 -4.63 0.77 -7 0.33 -0.32 -0.27 -0.58 -0.69 -0.58 -0.94 0 -0.84 2.08 -2.43 5.22 -4 4 -2 6.07 -2.57 7.16 -1.98 0.81 0.44 0.82 0.48 0.48 9.94 -0.18 5.23 -0.28 11.5 -0.22 13.94 -0.74 3.99 2.06 6.44 2 9.64 -0.23 0.42 -0.62 0.78 -0.88 0.8 -4.28 -0.14 -8.25 0.71 -12.48 -0.34 z"/><path d="m 121.6 144.7 c -4.79 -2.12 -8.71 -8.29 -9 -12.26 -0.71 -12.1 2.72 -11.1 6 -14.1 3.91 -3.15 9.9 -3.39 13.17 -0.21 3.05 3 6.39 4.54 5.41 14.4 -0.59 5.93 -4.16 7.96 -6.7 10.22 -2.16 1.93 -5.63 2.69 -8.88 1.95 z m 6.08 -5.99 c 2.08 -1.27 2.54 -2.27 3.09 -6.69 0.57 -4.57 0.43 -6.3 -0.65 -8 -1.16 -1.83 -2.2 -2.36 -4.71 -2.39 -2.67 -0.04 -4 0.55 -5.32 2.29 -1.12 4.07 -2.42 8.79 -0.1 13.15 2.03 2.44 5.11 3.2 7.7 1.66 z"/><path d="m 78.2 98.2 c -1.51 -0.46 -1.98 -1.02 -1.77 -2.13 0.26 -1.39 1.51 -3.73 3.78 -7.1 3.63 -5.34 6.37 -11.17 6.85 -14.6 0.15 -1.08 0.09 -1.37 -0.38 -1.84 -0.68 -0.68 -1.38 -0.7 -4.3 -0.12 -3 0.6 -4.43 0.38 -5.53 -0.88 -1 -1.15 -1.07 -2.14 -0.21 -3.42 1.15 -1.72 1.78 -1.86 8.1 -1.8 6.78 0.07 6.8 0.07 7.53 2.77 0.76 2.79 0.46 5.21 -1.24 10 -0.77 2.17 -1.87 5.93 -2.46 8.37 -1.57 6.49 -2.95 9.28 -5.06 10.22 -1.43 0.63 -4 0.86 -5.31 0.48 z"/><path d="m 164.6 93 c -0.91 -0.6 -1.77 -2 -1.77 -2.89 0 -0.32 0.5 -2.1 1.12 -3.96 1.45 -4.36 1.31 -5.94 -0.62 -7.31 -3.15 -0.74 -4.75 -0.45 -8.47 -0.45 l -0.66 -0.77 c -0.81 -0.94 -1.37 -4.13 -0.63 -5.83 1.95 -4.33 2.71 -6.36 5.17 -10.6 2.48 -4.12 8.57 -7.9 10.16 -6.3 0.86 0.86 1.07 3.54 0.86 11.33 -0.23 8.81 -0.32 8.48 2.2 7.91 1.5 -0.34 1.54 -0.33 2.27 0.39 1 1 1.04 2.82 0.07 3.84 -1.84 1.24 -4.15 0.39 -5.17 2.07 -0.8 1.31 -0.74 2.18 0.4 5.84 0.72 2.3 0.94 3.42 0.81 4.1 -1.18 2.49 -4.05 3.65 -5.76 2.63 z m -1 -20.87 c 1.85 -0.97 2.24 -1.81 2.24 -3.73 0 -1.23 0.57 -4.71 -0.28 -5.17 -1.7 -0.91 -4.27 0.73 -5.79 3.69 -0.89 1.72 -0.71 3.5 0.45 4.67 1.03 1.03 2.12 1.21 3.39 0.54 z"/><path d="m 183.6 151.2 c -2.97 -0.9 -4.22 -3.05 -2.56 -4.37 0.97 -0.77 1.87 -0.71 4.29 0.25 2.37 0.95 3.62 1.02 5 0.3 2.87 -4.46 4.53 -4.53 2.84 -9.1 -3.68 -4.65 -6.78 -0.58 -11 0.45 -0.7 -0.13 -2.57 -6.08 -2.74 -8.54 -0.16 -2.32 0.48 -4.93 1.56 -7.38 0.58 -1.32 1.37 -0.45 2.4 -0.91 2.02 -0.9 3.72 -1.96 8.87 -1.25 2.57 0.35 5.2 1.79 5.43 1.96 2.99 1.98 0.89 2.68 -0.07 3.17 -1.16 0.6 -3.7 1.35 -7.13 0.57 -4.82 -1.09 -6.33 -2.73 -6.89 -0.51 -0.65 2.6 -0.22 4.74 1.2 5.85 0.89 0.7 1.85 0.74 4.98 0.18 2.71 -0.48 3.39 -0.37 5 0.83 2.57 1.87 4.55 5.29 3.72 9.1 -0.64 2.9 -2.42 5.49 -4 7.1 -2.6 2.6 -8.25 3.14 -10.97 2.31 z"/><path d="m 138.6 198.1 c -0.77 -3.14 4.79 -2.86 6.12 -5.6 0.61 -1.34 0.77 -18.74 0.17 -19.2 -2.46 -0.29 -4.63 0.7 -7 0.3 -0.32 -0.24 -0.58 -0.63 -0.58 -0.85 0 -0.76 2.08 -2.2 5.22 -3.62 4 -1.81 6.07 -2.32 7.16 -1.79 0.81 0.39 0.82 0.44 0.48 8.99 -0.18 4.73 -0.28 10.4 -0.22 12.61 -0.74 3.61 2.06 5.83 2 8.72 -0.23 0.38 -0.62 0.71 -0.88 0.73 -4.28 -0.13 -8.25 0.65 -12.48 -0.31 z"/></g></svg>