<svg xmlns="http://www.w3.org/2000/svg" viewBox="0 0 256 256"><path d="m 219.3 48 c 159.7 227 -255.7 299.3 -214.5 58 c 21.84 -95.9 150.5 -149 214.5 -58" style="fill:#66f"/><path d="m 83.1 197.7 c -3.38 -0.52 -4.59 -1.19 -7.46 -4.15 -4.99 -2.69 -3.15 -12.73 -3.43 -42.2 0 -37.79 0.04 -38.74 1.67 -41.2 0.92 -1.4 2.83 -3.31 4.24 -4.25 2.41 -1.61 3.64 -1.75 19.91 -2.22 9.54 -0.28 25.93 -0.54 36.41 -0.57 l 19.1 -0.06 l 0.53 -6.63 c 1.1 -13.76 -1.29 -21 -9.1 -27.62 -4.7 -3.97 -8.39 -5.16 -15.99 -5.16 -7.16 0 -11.77 1.5 -16.62 5.4 -6.16 4.95 -8.1 9.9 -9.1 23.2 l -0.53 7 h -5.53 c -7.22 0 -7.61 -0.62 -6.87 -10.71 1 -13.69 4.65 -22.1 12.64 -29 7.55 -6.57 15.79 -9.52 26.57 -9.52 10.43 0 18.98 3.34 26.2 10.25 8.8 8.39 11.13 14.65 12.14 32.61 l 0.56 9.91 l 4.71 0.91 c 5.56 1.08 9.22 3.67 11.33 8 1.37 2.83 1.48 5.76 1.49 38.68 0.01 22.96 -0.29 36.65 -0.85 38.53 -0.47 1.6 -2.07 4.15 -3.55 5.67 -2.56 2.62 -3 2.78 -9.42 3.28 -9.4 0.73 -84.1 0.6 -89 -0.15 z m 54.96 -24.53 c -0.07 -7.3 -0.99 -12.84 -1.91 -20.47 l 2.73 -3.36 c 5.23 -6.43 5.27 -12.7 0.12 -17.28 -3.67 -3.26 -5.59 -4 -9.94 -4 -7.26 0 -12.76 4.61 -13.77 11.52 -0.56 3.82 0.8 7.1 4.54 10.84 l 2.25 2.27 c -0.86 6.7 -2.67 13.65 -2.34 20.27 2 1.75 17.41 2.06 18.32 0.25 z" style="fill:#fff"/></svg>