<svg xmlns="http://www.w3.org/2000/svg" viewBox="0 0 256 256"><path d="m 226.9 66 c 58.3 59.1 15.59 113.7 -30.71 158.5 -37.7 36.52 -72.7 38.2 -109.7 13.98 -96.8 -63.2 -132.6 -145.2 17.45 -231.2 49.5 -21.2 95.6 23.52 123 58.64" style="fill:#3f3f3f"/><g style="fill:#2fc5e8"><rect width="14.69" height="116" x="121.6" y="72" rx="3.59" ry="2.66"/><rect ry="2.66" rx="3.59" y="93" x="141.9" height="71.9" width="14.69"/></g><rect width="14.69" height="71.9" x="100.9" y="92.6" rx="3.59" ry="2.66" style="fill:#21d8ed"/><g style="fill:#3ce7be"><rect ry="2.66" rx="3.59" y="112.1" x="62.1" height="38.43" width="12.43"/><rect width="12.43" height="25.92" x="81.7" y="117.6" rx="3.59" ry="2.66"/><rect ry="2.66" rx="3.59" y="117.6" x="183.7" height="25.92" width="12.43"/><rect width="12.43" height="13" x="203.2" y="124.2" rx="3.59" ry="2.66"/><rect ry="2.66" rx="3.59" y="124.2" x="42.1" height="13" width="12.43"/></g><rect width="12.81" height="40.3" x="162.6" y="110.3" rx="3.59" ry="2.66" style="fill:#2fc5e8"/></svg>