<svg xmlns="http://www.w3.org/2000/svg" viewBox="0 0 256 256"><path d="m 31.89 62.6 c 210.7 -226.7 343.5 241.2 63.75 189.6 -73.82 -25.45 -131.4 -116.8 -63.75 -189.6" style="fill:#eed2eb"/><path d="m 176.6 262.5 c -12 -2.82 -26.29 -11.14 -29.3 -17.1 -1.43 -2.83 -1.73 -5.57 -2.14 -19.26 -0.36 -12.2 -0.74 -16.1 -1.59 -16.4 -0.61 -0.24 -2.52 0.76 -4.24 2.23 -13.38 11.36 -24 17.69 -30.91 18.35 -3.48 0.34 -4.84 -0.06 -10.43 -3.05 -8.4 -6.68 -37.97 -8.31 -38 -18.63 2.84 -9.65 8.61 -20.46 14.58 -29 2.62 -3.7 8.1 -10.22 12.17 -14.48 4.07 -4.26 14.72 -6.13 14.72 -6.81 0 -0.68 -9.12 -4.73 -11.31 -6.36 -5.37 -3.98 -12.1 -11.29 -14.1 -15.34 -1.96 -3.9 -3.82 -12.34 -3.19 -14.45 1.06 -3.52 3 -19.5 3 -24.66 0 -4.42 0.37 -6.11 1.73 -7.85 1.7 -2.18 1.91 -2.22 11.87 -2.22 9.65 0.13 19.88 -1.63 28.92 -1.78 10.96 -0.14 13.86 1.12 21.76 9.52 3.07 3.26 8.54 9.99 9 9.68 0.49 -0.31 -1.69 -6.12 -1.69 -7.62 0 -1.5 0.79 -6.49 1.76 -11.1 3.76 -17.91 6.96 -20.32 40.3 -30.3 4.29 -0.95 7 -4.09 10.42 -6.26 1.17 0 10.15 9.89 14 15.43 8.12 11.65 14.22 27 13 32.78 -0.73 3.46 -5.47 13.91 -8.77 19.33 -3.4 5.59 -2.69 6.18 5.78 4.79 8.46 -1.39 13.4 -0.42 23.91 4.68 6 2.93 8.58 4.76 12.62 9.13 5.68 6.13 12.72 18 12.72 21.5 0 3.67 -3.53 10 -11.96 21.62 -11.47 15.74 -12.69 17 -18.2 18.82 -8.69 2.9 -21.88 3 -34.2 0.33 -3.19 -0.7 -3 1.2 0.58 6.25 4.14 5.82 7.96 14.43 7.96 17.93 0 2.1 -1.02 4.62 -3.33 8.24 -7.22 10.1 -8.62 23.8 -17.97 31.92 -2.62 2.19 -3.93 2.68 -6.99 2.62 -4.33 -0.01 -8.7 -1.58 -12.51 -2.47 z" transform="matrix(0.724 0 0 0.731 16.31 18.69)" style="fill:#ec8db8"/></svg>