<svg xmlns="http://www.w3.org/2000/svg" viewBox="0 0 256 256"><defs><clipPath id="9"><path d="m 66 130 h 51 v 49 h -51"/></clipPath><clipPath id="6"><path d="m 149 76 h 64 v 69 h -64"/></clipPath><clipPath id="8"><path d="m 55 76 h 65 v 69 h -65"/></clipPath><clipPath id="7"><path d="m 151 130 h 52 v 49 h -52"/></clipPath><clipPath id="5"><path d="m 106 60 h 56 v 51 h -56"/></clipPath><clipPath id="0"><path d="m 102 97 h 64 v 103 h -64"/></clipPath><clipPath id="4"><path d="m 105 141 h 59 v 27 h -59"/></clipPath><clipPath id="1"><path d="m 248.8 -22.52 h -229.2 c -13.32 0 -24.1 12.45 -24.1 27.8 v 264.1 c 0 15.35 10.8 27.8 24.1 27.8 h 229.2 c 13.32 0 24.1 -12.45 24.1 -27.8 v -264.1 c 0 -15.35 -10.8 -27.8 -24.1 -27.8"/></clipPath><clipPath id="3"><path d="m 107 165 h 54 v 21 h -54"/></clipPath><clipPath id="2"><path d="m 103 117 h 63 v 33 h -63"/></clipPath></defs><path d="m 130.3 2.2 c 111.9 -22.35 154.4 130.9 105.9 214.2 c -38.64 66.3 -171 47.4 -220.4 -42.2 c -49.4 -89.5 24.62 -154.1 114.4 -172" style="fill:#3fdfcf"/><g style="clip-path:url(#0)"><g style="clip-path:url(#1)"><path d="m 134.2 97.1 c 10.58 0 18.64 8.12 23.58 17.54 c 4.92 9.42 7.75 20.99 7.75 33.69 c 0 12.73 -2.83 24.65 -7.75 34 c -4.95 9.42 -13 17.54 -23.58 17.54 c -10.58 0 -18.94 -8.12 -23.86 -17.54 c -4.92 -9.41 -7.47 -21.3 -7.47 -34 c 0 -12.7 2.55 -24.27 7.47 -33.69 c 4.92 -9.42 13.29 -17.54 23.86 -17.54 m 0 12.14 c -13.34 0 -24.2 18.68 -24.2 41.45 c 0 22.8 10.84 41.1 24.2 41.1 c 13.34 0 24.2 -18.33 24.2 -41.1 c 0 -22.77 -10.84 -41.45 -24.2 -41.45" style="fill:#efffef"/></g></g><g style="clip-path:url(#2)"><g style="clip-path:url(#1)"><path d="m 134.1 118 c 12.65 0 23.86 7.68 30.72 19.73 c 0.38 3.77 0.54 7.71 0.61 11.68 c -6.79 -11.1 -18.21 -18.27 -31.3 -18.27 c -12.98 0 -24.41 7 -31.1 17.91 c 0.05 -3.75 0.29 -7.41 0.59 -10.96 c 6.79 -12.1 17.84 -20.1 30.54 -20.1" style="fill:#efffef"/></g></g><g style="clip-path:url(#3)"><g style="clip-path:url(#1)"><path d="m 139.5 165.8 c 7.85 1.17 14.91 5.24 20.8 10.72 c -0.73 1.63 -1.32 3.45 -2.19 4.94 c -0.73 1.28 -1.67 2.52 -2.55 3.72 c -6.24 -3.66 -13.43 -5.78 -21.2 -5.78 c -7.75 0 -14.94 2.12 -21.2 5.78 c -0.89 -1.2 -1.91 -2.47 -2.57 -3.72 c -0.89 -1.55 -1.91 -3.26 -2.66 -4.94 c 7.18 -6.76 16.3 -10.72 26.2 -10.72 c 1.82 0 3.4 -0.24 5.14 0" style="fill:#efffef"/></g></g><g style="clip-path:url(#4)"><g style="clip-path:url(#1)"><path d="m 134.3 141.3 c 11.96 0 20.82 6.38 28.83 15.61 c -0.45 3.8 0.66 6.89 -0.4 10.37 c -7.75 -6.68 -17.62 -10.72 -28.48 -10.72 c -10.84 0 -20.75 4.05 -28.46 10.72 c -1.02 -3.47 -0.26 -6.54 -0.71 -10.37 c 8 -9.29 17.2 -15.61 29.2 -15.61" style="fill:#efffef"/></g></g><g style="clip-path:url(#5)"><g style="clip-path:url(#1)"><path d="m 134.1 60.84 c 15.27 0 27.73 11.97 27.73 26.98 c 0 9.17 -4.69 17.43 -11.8 22.34 c -1.46 -3.88 -7.52 -6.92 -15 -6.92 c -8 0 -14.66 3.39 -15.46 7.68 c -7.77 -4.8 -12.95 -13.36 -12.95 -23.1 c 0 -15 12.27 -26.98 27.52 -26.98 m 17.5 15.69 c -2.59 0 -4.55 4 -4.55 8.98 c 0 4.97 1.98 8.98 4.55 8.98 c 2.59 0 4.78 -4 4.78 -8.98 c 0 -4.97 -2.19 -8.98 -4.78 -8.98 m -34.8 0 c -2.57 0 -4.76 4 -4.76 8.98 c 0 4.97 2.19 8.98 4.76 8.98 c 2.59 0 4.55 -4 4.55 -8.98 c 0 -4.97 -1.95 -8.98 -4.55 -8.98" style="fill:#efffef"/></g></g><g style="clip-path:url(#6)"><g style="clip-path:url(#1)"><path d="m 193 77.1 c -9.36 0.76 -23.49 5.18 -39.56 15.66 c -1.51 0.98 -2.68 2.09 -4.1 3.09 c 1.56 1.5 2.86 3.18 4.1 4.89 c 0.92 -0.68 1.74 -1.44 2.73 -2.06 c 9.56 -6.24 19.29 -9.8 27.3 -10.54 c 7.98 -0.73 14.2 1.3 16.82 6.43 c 5.23 10.21 -8.41 25.1 -27.52 37.54 c -1.3 0.84 -3.65 2.52 -4.92 3.26 c 0.16 0.21 3.89 3.09 4 3.36 c 1.3 -0.82 2.52 -1.44 3.87 -2.31 c 16.1 -10.48 26.81 -22 32 -30.81 c 5.25 -8.8 6.17 -15.96 3.41 -21.34 c -2.73 -5.35 -8.84 -7.96 -18.21 -7.19 m -30.3 65.5 c -0.14 0.48 -0.14 1 -0.21 1.52 c 0.12 -0.09 0.3 -0.16 0.45 -0.25 c -0.16 -0.44 -0.16 -0.79 -0.21 -1.28" style="fill:#efffef"/></g></g><g style="clip-path:url(#7)"><g style="clip-path:url(#1)"><path d="m 160.6 130.1 c 0.28 1.2 0.8 2.31 1.01 3.53 c 0.07 0.03 -0.02 0.3 0.07 0.32 c 20.38 9.15 32.68 21.8 28 30.7 c -3.89 7.41 -18.21 10.1 -36 8.14 c -0.31 0.44 -0.31 0.95 -0.61 1.38 c -0.43 0.6 -0.92 1.17 -1.37 1.79 c 9.47 1.6 18.2 2.28 25.1 1.93 c 12.51 -0.63 21 -3.77 24 -9.5 c 2.99 -5.73 -0.21 -12.89 -8.55 -20.2 c -6.83 -6 -17.65 -12.54 -31.73 -18.1" style="fill:#efffef"/></g></g><g style="clip-path:url(#8)"><g style="clip-path:url(#1)"><path d="m 75.5 77.1 c 9.36 0.76 23.49 5.18 39.56 15.66 c 1.51 0.98 2.68 2.09 4.1 3.09 c -1.56 1.5 -2.86 3.18 -4.1 4.89 c -0.92 -0.68 -1.74 -1.44 -2.73 -2.06 c -9.56 -6.24 -19.29 -9.8 -27.3 -10.54 c -7.98 -0.73 -14.2 1.3 -16.82 6.43 c -5.23 10.21 8.41 25.1 27.52 37.54 c 1.3 0.84 3.65 2.52 4.92 3.26 c -0.16 0.21 -3.89 3.09 -4 3.36 c -1.3 -0.82 -2.52 -1.44 -3.87 -2.31 c -16.1 -10.48 -26.81 -22 -32 -30.81 c -5.25 -8.8 -6.17 -15.96 -3.41 -21.34 c 2.73 -5.35 8.84 -7.96 18.21 -7.19 m 30.3 65.5 c 0.14 0.48 0.14 1 0.21 1.52 c -0.12 -0.09 -0.3 -0.16 -0.45 -0.25 c 0.16 -0.44 0.16 -0.79 0.21 -1.28" style="fill:#efffef"/></g></g><g style="clip-path:url(#9)"><g style="clip-path:url(#1)"><path d="m 107.8 130.1 c -0.28 1.2 -0.8 2.31 -1.01 3.53 c -0.07 0.03 0.02 0.3 -0.07 0.32 c -20.38 9.15 -32.68 21.8 -28 30.7 c 3.89 7.41 18.21 10.1 36 8.14 c 0.31 0.44 0.31 0.95 0.62 1.38 c 0.42 0.6 0.91 1.17 1.37 1.79 c -9.47 1.6 -18.2 2.28 -25.1 1.93 c -12.51 -0.63 -21 -3.77 -24 -9.5 c -2.99 -5.73 0.21 -12.89 8.55 -20.2 c 6.84 -6 17.65 -12.54 31.73 -18.1" style="fill:#efffef"/></g></g></svg>