<svg xmlns="http://www.w3.org/2000/svg" viewBox="0 0 256 256"><path d="m 254.9 124.2 c -3.92 91 -65.6 159.6 -151.1 121.7 -58.7 -25.96 -114.5 -54.5 -100.5 -121.7 c 13.97 -67.2 81.7 -121.7 151.1 -121.7 c 69.5 0 103.4 55.3 100.5 121.7" style="fill:#8b276f"/><g style="fill:#fff"><path d="m 91.3 193.9 c -5.66 -3.15 -36.4 -35.89 -49.3 -52.5 c -4 -5.21 -4.46 -6.07 -4.45 -9.27 0 -2.09 0.52 -4.34 1.27 -5.51 0.7 -1.09 17 -18.47 36.3 -38.61 24.2 -25.2 35.9 -36.99 37.76 -37.8 2.36 -1.02 6.29 -1.1 31.39 -0.61 15.78 0.31 29.51 0.86 30.51 1.24 1 0.38 10.85 10.1 21.9 21.59 16.47 17.1 20.22 21.43 20.88 23.86 1.19 4.42 1.04 25.38 -0.2 28.45 -2.14 5.3 -8.1 7.37 -12.86 4.46 -2.09 -1.28 -4.3 -5 -4.3 -7.27 0 -2.77 -2.13 -2.91 -35.2 -2.34 -17.67 0.3 -34 0.31 -36.4 0 -8.23 -1.07 -11.66 -8.22 -7.21 -15 3.54 -5.4 17.22 -20.64 19.36 -21.55 4.68 -2 9.79 -0.23 11.77 4.08 1.64 3.58 1.49 5.45 -0.71 9.35 -1.53 2.71 -1.71 3.48 -0.91 4 1.11 0.73 41.98 0.93 43.78 0.22 0.63 -0.25 1.15 -0.85 1.15 -1.34 0 -0.49 -6.47 -7.56 -14.38 -15.72 l -14.38 -14.84 h -23.9 h -23.9 l -29.98 31 c -19.96 20.66 -29.98 31.54 -29.98 32.57 c 0 2.06 12.1 15.84 27.2 31 l 12.16 12.23 h 21.85 h 21.85 l 8.24 -8.42 c 4.53 -4.63 8.24 -8.86 8.24 -9.38 0 -0.76 -6.46 -1 -30.92 -1.17 l -30.92 -0.21 l -2.57 -2.91 c -2.37 -2.68 -2.54 -3.19 -2.23 -6.61 0.41 -4.37 2.48 -7.1 6.32 -8.22 1.69 -0.51 17.46 -0.7 45.67 -0.55 l 43.1 0.23 l 2.49 2.81 c 3.1 3.5 3.42 7.89 0.85 11.69 -2.15 3.19 -38.2 39.55 -40.53 40.84 -1.35 0.76 -8.22 1.07 -29 1.29 -25.59 0.28 -27.39 0.21 -29.78 -1.12 z" transform="matrix(0.832 0 0 0.87 25.2 24.1)" style="fill:#fff"/></g></svg>