<svg xmlns="http://www.w3.org/2000/svg" viewBox="0 0 256 256"><path d="m 119.5 254.6 c -26.2 -2.05 -56 -14.66 -76 -32.2 -24.36 -21.31 -40.73 -53.99 -43 -86.2 -2.46 -42.55 26.2 -88.3 56 -110 14.91 -10.57 34.2 -18.98 51.95 -22.66 c 46.1 -9.58 91.9 8.56 120.9 47.96 17.38 23.62 25.37 47.4 25.39 75.6 0.02 33.77 -16.47 69.98 -42.96 94.4 -29.73 22.99 -59.4 35.46 -92.1 33.1" style="fill:#556b2f"/><g style="fill:#f5f5f5"><path d="m 296.3 -94.7 c -29.36 -5.1 -50.2 -20.3 -61.6 -44.88 -16.51 -35.61 -3.35 -77.94 30.35 -97.6 l 8.14 -4.76 c 8.18 -1.71 20.44 4.32 10.66 8.2 -9 2.88 -17.96 8.55 -25.76 16.31 -6.62 6.59 -8.47 9.12 -11.95 16.37 -4.97 10.36 -7 18.97 -6.98 29.63 0.02 10.97 1.94 19.23 6.71 28.86 6.58 13.29 15.53 22.39 28.72 29.2 9.4 4.86 17.89 6.82 29.45 6.78 29.67 -0.1 54.75 -19.42 62.3 -47.97 2.38 -9 2.58 -23.51 0.44 -32.47 -4.92 -20.57 -22.84 -40.56 -41.2 -45.94 -10.33 -7.94 5.53 -10.85 14.1 -6.1 38.75 21.56 52.3 68.3 30.52 105.5 -5 8.62 -16.64 20.93 -24.86 26.39 -14.1 6.72 -34.42 14.65 -49 12.52 z" transform="matrix(0.971 0 0 0.97 -165.4 297.8)" style="fill:#eee8aa"/></g><path d="m 120.4 198.3 c -3.38 -1.3 -10.71 -8.88 -13.64 -14.1 -3.16 -3.52 -5.58 -17.33 -10.21 -17.45 -2.38 0 -6.72 2.13 -12.27 6 -4.9 3.44 -7.34 3.67 -9.21 0.88 -1.25 -1.86 -1.25 -2.19 -0.04 -4 0.73 -1.09 5.16 -4 9.85 -6.5 12.19 -6.46 11.23 -5 10.43 -15.44 -0.38 -4.89 -1.07 -9.28 -1.54 -9.74 -0.5 -0.49 -7.46 -1 -16.63 -1.24 -16.5 -0.42 -17.32 -0.62 -17.35 -4.19 -0.04 -3.92 -0.03 -3.92 17.48 -3.92 h 16.48 c 0.29 -6.23 2.93 -13.71 0.99 -19.67 -3.44 -5.38 -20.4 -10 -20.84 -15.47 0 -1.6 2.73 -3.82 4.71 -3.82 0.92 0 4.75 2 8.5 4.46 7.2 4.71 9.5 5.36 10.73 3.04 2.66 -8.17 1.59 -16.91 5.57 -24.83 3.17 -6.1 2.64 -7.9 -2.65 -9 -5.11 -1.07 -7.37 -5.97 -4.43 -9.62 1.27 -1.57 2.52 -2.19 4.41 -2.18 3.67 0.02 4.54 0.75 6.32 5.33 0.85 2.2 2.12 4.11 2.81 4.24 0.7 0.14 3.26 -0.75 5.69 -1.97 3.61 -1.81 5.8 -2.28 11.9 -2.55 7.11 -0.31 7.71 -0.2 12.32 2.22 6.1 3.19 8.09 3 9.1 -0.79 1.67 -6.4 7.82 -8.72 11.39 -4.3 3 3.74 0.88 8.13 -4.77 9.86 -1.71 0.52 -3.8 1.47 -4.66 2.12 -1.51 1.13 -1.48 1.31 0.97 5.06 2.96 4.55 3.91 7.81 5.07 17.48 0.91 7.5 1.93 10.35 3.73 10.35 3.57 -0.51 21.2 -15.49 22.1 -4.64 0 1.68 -5.26 5.28 -13.27 9.1 l -8.52 4.06 c 1.22 6.39 -0.59 14.27 1.96 20.29 6.83 1.89 30.33 -0.61 32.93 2.6 0.98 1.31 0.77 4.81 -0.36 5.92 -11.65 0.88 -20.57 0.91 -33.1 1.22 -0.19 6.35 -2.6 13.1 -1.81 19.39 0.24 0.62 4.81 3.44 10.16 6.27 10.47 5.55 12.72 7.63 11.2 10.39 -1.61 2.94 -4.37 2.89 -9.26 -0.17 -6.16 -3.84 -11.18 -6.26 -12.95 -6.25 -1.08 0.01 -2.97 3 -6.98 11.16 -8.12 16.48 -13.75 21.29 -24.82 21.2 -2.97 -0.02 -6.33 -0.39 -7.47 -0.83 z m 2.91 -36.83 c -4.2 -0.07 -13.91 -1 -15.94 2.56 -1.85 4.72 11 27.3 14.86 26.1 3.15 -9.1 1.62 -20.1 1.09 -28.62 z m 14.26 26.87 c 2.61 -3.69 15.66 -21.7 10.68 -25.33 -0.78 -0.56 -4.22 -1.27 -7.65 -1.58 -8.81 -0.81 -8.66 -1.06 -8.65 14.54 0 7 0.23 13.1 0.5 13.52 0.82 1.3 2.63 0.9 5.11 -1.15 z m 13.44 -33.69 c 2.53 -1.57 3.64 -16.57 1.29 -17.45 -1.69 -0.64 -15.97 -0.62 -18.41 0.02 -1.02 3.91 -0.9 13.55 0.3 15.75 1.82 0.68 9.92 1.96 14.44 2.29 0.69 0.05 1.75 -0.22 2.38 -0.61 z m -28 -2.67 c 0.98 -5.36 0.71 -9.6 0.72 -15.27 h -10.5 h -10.5 l 0.47 7.51 c 0.66 10.52 0.54 10.35 7.13 10.33 4.48 -0.55 9.1 0.32 12.68 -2.56 z m -0.22 -23.79 c 0.44 -0.45 1.06 -3.6 1.38 -7 0.73 -7.8 -0.3 -9.14 -7.59 -9.94 -3.27 0.19 -9.55 -2.59 -12.1 -0.19 -1.52 1.48 -2.56 9.61 -1.82 14.1 0.45 2.77 0.9 3.37 2.73 3.68 3.89 0.65 16.61 0.15 17.43 -0.68 z m 30.3 -0.34 c 1.53 -1.51 1.03 -13.45 -0.66 -15.98 -1.51 -2.25 -0.97 -2.24 -13.91 -0.15 -6.4 1.03 -6.6 1.31 -6.56 8.84 0.03 6.22 0.58 7.84 2.85 8.34 3.42 0.74 17.27 -0.05 18.28 -1.04 z m -30.64 -24.1 c 1.1 -0.41 1.31 -2.14 1.31 -10.65 v -10.16 l -2.7 0.51 c -4.22 0.8 -9.1 4.62 -12 9.42 -2.79 4.55 -3.46 8.36 -1.66 9.48 1.92 1.19 12.93 2.2 15.1 1.4 z m 25.69 -1.23 c 2.79 -1.24 2.8 -3.25 0.04 -8.67 -2.38 -4.67 -6.71 -8.6 -10.99 -9.98 -4.52 -1.46 -5.2 -0.13 -5.2 10.11 0 4.78 0.26 9.1 0.57 9.58 0.72 1.14 12.45 0.35 15.58 -1.04 z m -28.57 -25.49 c 5.69 -1.5 10.68 -1.5 17.1 0 9.68 2.28 10.81 1.2 6 -5.74 -3.25 -4.71 -6.54 -6.71 -12.1 -7.36 -8.37 -0.97 -13.64 1.7 -18.1 9.18 -2.44 4.07 -2.12 6.43 0.75 5.63 2.25 -0.61 4.43 -1.2 6.39 -1.72 z" style="fill:#ff4500"/></svg>