<svg xmlns="http://www.w3.org/2000/svg" viewBox="0 0 256 256"><path d="m 212.3 212.6 c 129.9 -103.9 -60.3 -291.4 -175.2 -171.6 -115.2 103.2 64.6 303.2 175.2 171.6" style="fill:#224e73"/><g transform="matrix(2.938 0 0 2.909 32.99 37)" style="fill:#445575"><circle r="27" cy="32" cx="32"/><g style="fill:#a2aaba"><path d="m 5.56,33.69 c 0,1.86 1.51,3.38 3.38,3.38 1.25,0 2.34,-0.68 2.92,-1.69 h 3.26 v 1.13 h 9 v -1.13 h 1.69 l 3.94,3.94 v 19.6 c 0.74,0.06 1.49,0.09 2.25,0.09 0.38,0 0.75,-0.01 1.13,-0.02 V 38.2 l -6.19,-6.19 h -2.81 v -1.13 h -9 v 1.13 h -3.26 c -0.58,-1 -1.67,-1.69 -2.92,-1.69 -1.86,0 -3.38,1.51 -3.38,3.38"/><path d="m 15.1,19.63 v 1.13 H 7.42 c -0.5,1.09 -0.93,2.22 -1.28,3.38 h 8.96 v 1.13 h 9 v -5.63 h -9"/><path d="m 24.1 14 h -9 v -3.08 c 1.87 -1.5 3.95 -2.76 6.19 -3.72 v 1.18 h 2.81 v 5.63"/><path d="m 11.19,41 -1.13,1.13 h -3.1 c 3.18,7.86 9.96,13.88 18.29,16 V 43.79 L 23.56,42.1 h -7.88 l -1.13,-1.13 h -3.38"/><path d="M 35.94,35.4 29.75,29.21 V 20.39 C 28.42,19.76 27.5,18.4 27.5,16.83 c 0,-1.57 0.92,-2.93 2.25,-3.56 V 5.11 C 30.49,5.05 31.24,5.02 32,5.02 c 0.38,0 0.75,0.01 1.13,0.02 v 8.23 c 1.33,0.63 2.25,1.99 2.25,3.56 0,1.57 -0.92,2.93 -2.25,3.56 v 7.69 l 3.94,3.94 h 0.56 v -1.13 h 9 v 1.13 h 12.38 c 0,1.14 -0.07,2.27 -0.21,3.38 H 46.63 v 1.13 h -9 V 35.4 h -1.69"/><path d="M 37.63,14 V 8.37 h 7.46 c 0.53,0.29 1.04,0.6 1.54,0.93 0.1,0.07 0.2,0.13 0.31,0.2 1.49,0.99 2.87,2.12 4.13,3.38 h -4.43 v 1.13 h -9"/><path d="m 46.63,19.63 v 1.13 h 9.93 c 0.5,1.09 0.93,2.22 1.28,3.38 H 46.63 v 1.13 h -9 v -5.63 h 9"/><path d="m 39.3,39.88 -1.69,1.69 v 16.85 c 10,-2.12 17.99,-9.8 20.52,-19.66 h -9.27 l -1.13,1.13 h -8.44"/></g></g></svg>