<svg xmlns="http://www.w3.org/2000/svg" viewBox="0 0 256 256"><path d="m 193.8 21.48 c 225.3 191.1 -238 374.9 -190.4 79.3 c 10.44 -64.81 129.6 -130.8 190.4 -79.3" style="fill:#feb900"/><path d="m 104.1 198.1 c -18.1 -8.09 -28.67 -19.51 -37.81 -32.76 l -5.16 -7.47 l -6.74 -0.52 c -5.17 -0.4 -9.96 -1.48 -10.66 -2.2 -0.22 -5.81 -4.47 -13.1 0.11 -13.63 14 0.11 16.1 2.7 16.1 -4.41 v -8.8 l -6.87 -0.02 c -10 -0.03 -11.41 -1.34 -9.24 -8.73 l 1.77 -6 c 6 0 12.1 0 18.1 0 l 3.73 -7.76 c 6.25 -13 15.77 -22.45 29.8 -29.55 16.42 -7.71 36.2 -9.19 51.2 -2.26 c 11.65 5.45 18.1 10.27 24.68 18.38 l 5.72 7.1 c -3.18 1.92 -6.49 7.88 -10.34 8.21 -0.74 0 -3.11 -2.36 -5.27 -5.25 c -4.61 -6.18 -12.7 -11.3 -24.55 -15.54 -19.2 -6.86 -43.4 1.98 -55.8 20.41 l -4.24 6.28 c 8.24 0 16.48 0 24.73 0 v 5.07 c 0 8 0.15 9.71 -16 9.71 h -11.47 c 0 4.93 0 9.85 0 14.78 h 13.74 h 13.74 c -0.23 3.38 0.77 11.29 -1.85 13.72 -8.17 0.34 -14.39 0.82 -22.96 1.79 l 8.11 9.15 c 11.78 13.28 20.77 17.45 37.67 17.45 11.3 0 14.21 -0.56 22.1 -4.26 13.37 -6.31 22.1 -16.95 26.46 -32.2 1.51 -5.31 0.29 -5.65 -20.27 -5.65 -14.24 0 -17.23 -0.39 -17.96 -2.34 -1.33 -3.53 -1.05 -10.68 0.45 -11.63 3.16 -2 15.71 -2.59 33.85 -1.59 22.51 1.23 21.62 0.45 19.63 17.37 -2.41 20.49 -16.27 39.71 -35.71 49.5 -13.82 6.08 -35.4 9.44 -48.74 3.66 z" style="fill:#f5f5f5"/></svg>