<svg xmlns="http://www.w3.org/2000/svg" viewBox="0 0 256 256"><path d="m 65.2 29.35 c 59.1 -58.5 113.7 -15.66 158.5 30.84 36.52 37.86 38.2 72.98 13.98 110.2 -63.2 97.2 -145.2 133.2 -231.2 -17.52 c -21.2 -49.71 23.52 -96 58.64 -123.5" style="fill:#f5f5f5"/><g transform="translate(-0.03 -12.36)"><path d="m 107.4 225.6 c -15.25 -15.17 -17.42 -17.73 -16.45 -19.51 c 0.95 -1.76 -0.32 -3.44 -9.11 -12.1 -8.68 -8.52 -10.12 -10.42 -9.57 -12.61 0.55 -2.18 -0.9 -4.12 -9.39 -12.63 -5.52 -5.53 -9.47 -9.88 -8.78 -9.67 0.69 0.21 16.85 15.48 35.93 33.92 19.1 18.44 35.4 33.68 36.2 33.87 0.83 0.19 16.84 -15 35.59 -33.8 18.75 -18.77 34.87 -34.1 35.83 -34.1 1 0 -2.45 4.15 -8.21 9.87 -7.23 7.17 -9.95 10.59 -9.95 12.53 0 1.94 -2.65 5.26 -9.72 12.22 -8.57 8.42 -9.65 9.9 -9.1 12.43 0.57 2.58 -1.09 4.61 -16.29 19.96 -9.31 9.4 -17.48 17.1 -18.2 17.1 -0.68 0 -9.14 -7.86 -18.8 -17.46 z" style="fill:#232323"/><g transform="translate(1.45 12.36)"><path d="m 93.4 170.2 c 0 -0.54 -2 -5.94 -4.44 -12 -4.62 -11.47 -5.31 -13.49 -4.62 -13.49 0.22 0 1.02 0.65 1.77 1.45 3.67 3.9 8.27 11.24 16.44 26.2 3.15 5.77 6.5 11.77 7.45 13.34 0.95 1.57 0.34 2.9 0.27 2.96 -4.87 -5.92 -13.86 -11.54 -16.86 -18.48 z" style="fill:#008f00"/><path d="m 106.9 189.8 c -10.36 -9.98 -29.73 -29 -43.1 -42.3 l -24.2 -24.2 l 31.66 -31.72 c 17.41 -17.45 36.61 -36.42 42.67 -42.2 l 11 -10.44 l 2.17 1.53 c 1.19 0.84 20.1 19.36 42 41.2 37.69 37.49 39.8 39.72 39.1 41.2 -1.85 3.98 -61.2 65.7 -76.7 79.8 l -5.76 5.23 z m 27.1 6.59 c 19.76 -21.1 49.1 -45.3 70.5 -71.99 l 1.51 -2.13 l -2.83 -3.58 c -21.66 -22.1 -42.1 -41.86 -60.4 -60 l -17.23 -17 l -7.46 6.93 c -4.1 3.81 -22.69 22.1 -41.3 40.54 l -33.86 33.61 l 2.86 3.27 c 3.21 3.67 24.54 24.2 36.89 35.58 4.46 4.09 12.85 12.72 20 19.72 7 7.73 15.58 15.53 23.29 21.62 0 1.23 4.75 -2.87 8 -6.5 z"/></g></g><path d="m 119 194.7 c -1 -4.21 -9.56 -28.42 -15.63 -42.48 -3.99 -9.23 -7.54 -16.2 -11.14 -21.74 -3.98 -6.15 -5.59 -9 -5.41 -9.52 0.25 -0.73 6.93 6.31 10.17 10.73 5.44 7.41 13.35 21.79 18.52 33.66 1.5 3.43 2.91 6.14 3.14 6 0.69 -0.35 0.28 -6.89 -0.66 -10.41 -1.1 -4.14 -2.55 -6.91 -8.51 -16.27 -6.72 -10.56 -9.56 -15.4 -14.9 -25.46 -6.52 -12.27 -9.24 -19.63 -7.1 -19.23 1.26 0.23 4.57 4.55 15.32 19.94 5.62 8 10.64 15.1 11.16 15.71 l 0.94 1.08 l -0.26 -4.73 c -0.9 -16.32 -0.77 -24.32 0.42 -24.37 1.07 -0.04 2.24 6.31 5.39 29.51 1.46 10.74 2.85 15.3 4.66 15.3 0.68 0 1.31 -2.97 2.48 -11.84 1.39 -10.49 1.85 -20.63 1.44 -31.2 -0.42 -10.58 -0.97 -14.27 -3.08 -20.52 -2.3 -6.81 -3.38 -11.63 -4.05 -18.1 -0.58 -5.56 -0.26 -7.95 1.25 -9.4 2.3 -2.22 6.49 3.08 9.51 12 2.89 8.57 2.97 9.44 1.86 20.1 -1.34 12.88 -1.32 12.54 -2.27 26.65 -1.27 18.76 -1.5 23.52 -1.15 24.1 0.2 0.31 0.87 -0.21 1.84 -1.43 2 -2.55 13.8 -19.85 16.29 -23.94 1.58 -2.59 2.34 -3.39 3.82 -4.06 2.22 -0.99 2.9 -2.04 4.11 -6.27 0.98 -3.44 4.53 -22.2 4.53 -23.98 0 -1.03 0.22 -2.33 1.42 -0.95 1.21 1.39 1.03 2.79 0.93 8.12 l -0.49 7.46 l 1.49 -4.21 c 0.44 -1.25 1.22 -2.83 1.37 -3.66 0.49 -2.79 0.94 -3.77 2.65 -2.19 1.59 1.47 1.2 2.41 0.94 5.29 -0.31 3.33 -1.82 7.63 -4.5 12.83 -4.27 8.28 -5.78 13.42 -10.23 34.86 -3.1 14.91 -4.42 22.67 -3.98 23.36 0.41 0.65 0.83 -0.29 3.76 -8.55 1.49 -4.2 3.33 -8.98 4.09 -10.62 1.25 -2.7 1.43 -2.89 1.77 -1.99 0.84 2.19 -2.36 10.36 -4.36 27.1 l -0.57 4.78 c -6.15 4.92 -10.73 12.71 -17 16.37 -0.58 -2.11 -2.37 -3.91 -3.61 -6.35 -3.55 -7 -4.78 -8.1 -6.09 -5.06 -0.94 2.14 -1.29 10.48 -0.64 15.1 0.53 3.77 0 5.83 -1.68 6.7 -2.76 -3.29 -7.35 -5.99 -7.94 -8.31 z m 22.2 -17.26 c 0.78 -1.41 7.87 -34.4 7.47 -34.75 -0.38 -0.36 -1.93 2.11 -5.59 8.89 -5.19 9.61 -7.66 15.24 -7.66 17.46 0 2.52 3.61 9.22 4.96 9.22 0.2 0 0.57 -0.37 0.82 -0.82 z" style="fill:#008f00"/></svg>