<svg xmlns="http://www.w3.org/2000/svg" viewBox="0 0 256 256"><path d="m 229.6 992.2 c 92.1 -130.9 -77.95 -263.6 -186.4 -156.9 -102.2 100.5 -7.45 256.7 119.7 207.9 c 26.53 -10.18 49.8 -26.91 66.7 -50.95 z" transform="translate(0 -796.4)" style="fill:#4b0082;color:#000"/><g transform="matrix(3.665 0 0 3.549 33.39 44.78)" style="fill:#fff"><path d="m 24 1 v 7 h -7 v -5.91 c -0.34 0.11 -0.67 0.22 -1 0.34 v 5.56 h -7 v -1.44 c -0.35 0.3 -0.67 0.62 -1 0.94 v 0.5 h -0.5 c -0.32 0.33 -0.64 0.65 -0.94 1 h 1.44 v 7 h -5.56 c -0.12 0.33 -0.24 0.66 -0.34 1 h 5.91 v 7 h -7 c 0 0.33 0.02 0.67 0.03 1 h 6.97 v 7 h -5.56 c 0.13 0.34 0.26 0.67 0.41 1 h 5.16 v 7 h -0.5 c 0.48 0.5 0.98 0.99 1.5 1.44 v -0.44 h 7 v 4.56 c 0.33 0.12 0.66 0.24 1 0.34 v -4.91 h 7 v 6 c 0.33 0 0.67 -0.02 1 -0.03 v -5.97 h 7 v 4.56 c 0.34 -0.13 0.67 -0.26 1 -0.41 v -4.16 h 6.5 c 0.52 -0.48 1.02 -0.98 1.5 -1.5 0.05 -8.09 -0.15 -26.55 0.02 -31 c -0.45 -0.52 -0.52 -0.48 -1.02 -0.96 v 0.5 h -7 v -5.16 c -0.33 -0.14 -0.66 -0.28 -1 -0.41 v 5.56 h -7 v -6.97 c -0.33 -0.01 -0.67 -0.03 -1 -0.03 z m -15 8 h 7 v 7 h -7 z m 8 0 h 7 v 7 h -7 z m 8 0 h 7 v 7 h -7 z m 8 0 h 7 v 7 h -7 z m -24 8 h 7 v 7 h -7 z m 8 0 h 7 v 7 h -7 z m 8 0 h 7 v 7 h -7 z m 8 0 h 7 v 7 h -7 z m -24 8 h 7 v 7 h -7 z m 8 0 h 7 v 7 h -7 z m 8 0 h 7 v 7 h -7 z m 8 0 h 7 v 7 h -7 z m -24 8 h 7 v 7 h -7 z m 8 0 h 7 v 7 h -7 z m 8 0 h 7 v 7 h -7 z m 8 0 h 7 v 7 h -7 z"/><path d="m 37 16 l -6 7.76 a 1 1 0 0 1 0.03 0.24 1 1 0 0 1 -1 1 1 1 0 0 1 -1 -1 1 1 0 0 1 0.1 -0.44 l -4.1 -6.56 l -5 5 a 1 1 0 0 1 -1 1 1 1 0 0 1 -1 -1 l -1 -1 l -3 3 a 1 1 0 0 1 -1 1 v 9 h 24 v -18 z" style="opacity:0.1;fill-opacity:0.78"/><path solid-opacity="1" solid-color="#000000" d="m 37 14 a 1 1 0 0 0 -1 1 1 1 0 0 0 0.13 0.49 l -5.87 7.55 A 1 1 0 0 0 30 23 1 1 0 0 0 29.93 23 L 25.87 16.5 A 1 1 0 0 0 26 16 a 1 1 0 0 0 -1 -1 1 1 0 0 0 -1 1 1 1 0 0 0 0.12 0.47 L 19.47 21.1 A 1 1 0 0 0 19 21 1 1 0 0 0 18.53 21.1 L 17.88 20.47 A 1 1 0 0 0 18 20 a 1 1 0 0 0 -1 -1 1 1 0 0 0 -1 1 1 1 0 0 0 0.12 0.47 L 13.47 23.1 A 1 1 0 0 0 13 23 a 1 1 0 0 0 -1 1 1 1 0 0 0 1 1 1 1 0 0 0 1 -1 l 3 -3 l 1 1 a 1 1 0 0 0 1 1 1 1 0 0 0 1 -1 l 5 -5 l 4.1 6.56 A 1 1 0 0 0 29 24 a 1 1 0 0 0 1 1 1 1 0 0 0 1 -1 1 1 0 0 0 -0.03 -0.24 L 37 16 a 1 1 0 0 0 1 -1 1 1 0 0 0 -1 -1 z" mix-blend-mode="normal" isolation="auto" white-space="normal" style="opacity:0.12;color:#000"/><path d="m 12,24 4,-4 2,2 6,-6 5,8 7,-9 0,18 -24,0 z" style="fill-opacity:0.54"/><path solid-opacity="1" solid-color="#000000" white-space="normal" isolation="auto" mix-blend-mode="normal" d="m 36 13 a 1 1 0 0 0 -1 1 1 1 0 0 0 0.13 0.49 l -5.87 7.55 A 1 1 0 0 0 29 22 1 1 0 0 0 28.93 22 L 24.87 15.5 A 1 1 0 0 0 25 15 a 1 1 0 0 0 -1 -1 1 1 0 0 0 -1 1 1 1 0 0 0 0.12 0.47 L 18.47 20.1 A 1 1 0 0 0 18 20 1 1 0 0 0 17.53 20.1 L 16.88 19.47 A 1 1 0 0 0 17 19 a 1 1 0 0 0 -1 -1 1 1 0 0 0 -1 1 1 1 0 0 0 0.12 0.47 L 12.47 22.1 A 1 1 0 0 0 12 22 a 1 1 0 0 0 -1 1 1 1 0 0 0 1 1 1 1 0 0 0 1 -1 l 3 -3 l 1 1 a 1 1 0 0 0 1 1 1 1 0 0 0 1 -1 l 5 -5 l 4.1 6.56 A 1 1 0 0 0 28 23 a 1 1 0 0 0 1 1 1 1 0 0 0 1 -1 1 1 0 0 0 -0.03 -0.24 L 36 15 a 1 1 0 0 0 1 -1 1 1 0 0 0 -1 -1 z" style="color:#000"/></g><g style="fill:#fff"><path d="m 198.1 78.7 h 13.1 v 91.9 h -13.1 z"/><path d="m 209.6 197.2 l -5.18 -8.55 l -5.39 -8.42 l 10 -0.21 l 9.99 -0.45 l -4.81 8.76 z" transform="matrix(0.731 0 0 1.218 52.1 -43.75)"/></g></svg>