<svg xmlns="http://www.w3.org/2000/svg" viewBox="0 0 256 256"><defs><clipPath><path d="M 0,64 H64 V128 H0 z"/></clipPath></defs><g style="fill:#dee9d4;color:#000"><path d="m -1360.1 1641.3 c 46.1 -98.3 -119.6 -146.1 -181.8 -106.1 -62.2 40 -83.5 108.6 -13 143.1 70.5 34.5 148.8 61.3 194.9 -37 z" transform="matrix(1.019 0 0 -1.335 1630.9 2285.1)"/></g><g transform="matrix(0.513 0 0 0.546 23.66 22.46)"><path d="m 95.8 332.4 c -0.89 -32.58 -23.87 -133.9 -10.31 -154.7 2.3 -23.2 -10.83 -61.97 -17.43 -81.7 3.13 -3.36 20.2 -7.23 20.2 -7.23 32.82 -9.32 66.2 -9.97 84.4 -10.86 c 30.77 0.75 48.93 -2.22 75.2 -9.46 25.1 -6.45 36.86 -14.15 62.85 -20.33 11.24 16 17.1 44.99 23.1 65.73 -5.81 56.5 23.85 99.9 33.84 156.4 -23.62 -0.33 -48.1 18.2 -48.53 31.67 -69.4 9.86 -180.9 32.2 -223.4 30.51 z" style="fill:#d9cdaa"/><path d="m 146.2 171.1 c -2.79 -2.99 -5.32 -8.17 -5.37 -11 -0.03 -1.41 0.19 -5.31 0.48 -8.65 6.51 -6.53 2.19 -8.49 -2.59 -9.1 -1.72 -1.64 -0.45 -4.14 -0.6 -4.63 -0.17 -0.55 -5.51 -3.28 -6.15 -3 -0.84 0.32 1.06 4.23 1.36 6.42 0.34 2.5 0.21 2.85 -1.62 4.39 -2.26 1.9 -2.83 1.99 -5 0.74 -0.86 -0.49 -2.89 -0.9 -4.51 -0.91 -3.15 -0.02 -3.26 0.11 -3.74 4.35 -0.15 1.33 -0.49 1.56 -2.35 1.56 -1.7 0 -2.22 -0.27 -2.37 -1.25 0.48 -9.62 -4.45 -8.35 -1.67 0.88 l 0.43 4.93 c -3.28 0.87 -7.8 3.18 -10.62 2.05 -1.02 -0.42 -2.16 -1.44 -2.53 -2.26 -0.37 -0.82 -1.5 -1.91 -2.5 -2.43 -3.54 -1.83 -2.55 -6.8 1.92 -9.68 1.99 -1.29 2.34 -1.84 2.33 -3.75 -0.01 -1.35 -0.75 -3.48 -1.86 -5.36 -3.11 -4.52 -0.53 -7.39 2.19 -10.3 4.43 -4.71 5.4 -7.49 2.62 -7.49 -0.79 0 -1.75 0.32 -2.14 0.71 -4.32 1.6 -0.9 -5.56 -4.22 -3.47 -4.08 2.67 -12 -2.16 -9.41 -5.73 0.72 -0.99 1.11 -1.03 3.31 -0.37 1.37 0.41 3.07 0.75 3.78 0.75 1.46 0 3.87 -2.73 3.87 -4.38 0.65 -2.75 2.26 -1.61 3.06 -0.28 1.46 2.48 3.37 2.74 3.69 0.51 0.13 -0.89 -0.46 -1.81 -1.76 -2.8 -1.08 -0.81 -2.67 -2.13 -3.54 -2.93 -3.87 -2.58 -3.52 3.54 -6.74 0.52 -1.85 -1.74 -2 -4.08 -0.39 -6.18 0.88 -1.14 2.15 -1.66 5.45 -2.2 4.58 -0.75 5.44 -1.71 2.75 -3.05 -1.91 -0.95 -3.11 -3.22 -3.12 -5.9 -0.01 -1.82 0.17 -2.03 1.8 -2.03 9.12 -7.18 4 -5.11 16.87 -6.22 8.36 -0.73 17.3 -2.4 25.5 -4.77 3.61 -1.05 7.75 -0.98 11.91 3.08 3.89 3.79 4.46 -4.85 4.46 -7.6 5 -3.23 9.47 -5.22 16.38 -6.35 1.54 0.01 2.93 3.09 7.62 16.85 9.22 30.3 13.1 51.6 21 80.4 -1.81 0.61 -2.83 4.23 -4.87 4.23 l -1.55 -4.47 c -0.78 -2.26 0.56 -7.8 0.34 -9.1 -0.21 -1.28 -2.05 -2.64 -2.53 -3.04 -1.16 -0.96 -0.9 -0.09 -4.19 4.71 -2.13 3.1 -2.64 4.44 -2.9 7.52 -0.31 3.64 -0.37 3.75 -2.22 3.93 -1.3 0.13 -2.27 -0.22 -3.08 -1.11 -1.15 -1.27 -1.14 -1.38 0.27 -5.36 1.61 -4.55 1.51 -7.47 -0.37 -11.33 -1.01 -2.08 -1.49 -2.41 -3.9 -2.73 -3.09 -0.41 -0.94 -2.82 -1.39 -5.49 l -1.02 -6.12 l -3.96 6.71 c -1.02 1.73 -2.16 1.26 -3.51 0.64 -1.3 -0.59 -1.79 -0.54 -2.68 0.26 -1.2 1.09 -3.74 8.24 -3.74 10.53 0 1.96 2 7.71 3.66 10.39 0.73 1.2 1.33 2.78 1.34 3.51 0 1.81 -2.06 4.28 -4.38 5.24 -1.73 0.71 -2.13 0.65 -3.78 -0.57 -2.27 -1.68 -3.07 -1.27 -3.07 1.56 0 2.77 -3.71 6.94 -6.7 7.51 -1.7 0.33 -2.29 0.09 -3.75 -1.47 z m -35.68 -71.97 c 1.42 -1.42 2.6 -6.24 1.37 -7.56 -3.07 -3.3 -7.35 5.96 -6.74 6.95 0.58 0.94 3.97 2 5.37 0.61 z" transform="matrix(1.768 0 0 1.677 -18.67 -21.28)" style="fill:#c59e5d"/><g style="fill-opacity:0.96"><path d="m 94 335.1 c -2.81 -3.39 -5.16 -24.7 -6.36 -57.67 -0.84 -23.2 -1.75 -34.46 -3.19 -39.4 -1.11 -3.78 -2.52 -8.84 -3.13 -11.25 -1.77 -6.9 -4.88 -29.83 -5.25 -38.67 -0.32 -7.66 -0.19 -8.1 2.79 -8.83 3 -0.76 3.11 -1.11 2.72 -9.46 -0.45 -9.68 -2.23 -18.59 -6.86 -34.3 c -4.89 -16.61 -10 -39.68 -9.23 -41.68 c 0.42 -1.09 3.35 -2.17 7.35 -2.71 8.59 -1.16 11.35 -2.62 10.42 -5.54 -0.47 -1.48 0.05 -2.58 1.5 -3.16 2.53 -1 50.1 -3.19 52.1 -2.39 0.74 0.29 2.31 2.2 3.48 4.25 2.52 4.42 4.74 9.11 4.76 0.92 0.01 -1.55 0.43 -3.45 0.94 -4.22 0.6 -0.92 9.64 -1.71 25.92 -2.26 35.98 -0.18 55.4 -6 85 -15.71 4.81 -1.57 18.46 -6.71 30.3 -11.42 11.87 -4.71 22.36 -8.57 23.31 -8.57 2.6 0 17.33 39.1 25.2 66.75 3.37 11.87 3.42 12.53 1.41 16 -2.84 4.95 -2.69 5.85 1.69 10.37 3.5 3.61 4.08 5.56 7.57 25.68 5.99 34.48 9.52 50.76 14.24 65.5 7.21 22.56 12.13 40.71 11.5 42.4 -0.33 0.86 -4.91 3.37 -10.18 5.58 -5.27 2.21 -12.78 6.19 -16.69 8.83 -5.41 4.3 -17.66 8 -17.75 14.19 -0.01 2.22 -0.47 4.74 -1.01 5.6 -1.92 3 -43.2 9.52 -73.3 11.54 -41.2 2.76 -55.5 4.93 -60.5 9.19 -1.08 0.91 -10.68 3.84 -21.34 6.51 -19.2 4.81 -19.65 4.86 -47.59 5.3 -23.88 0.37 -28.45 0.15 -29.77 -1.43 z m 89.9 -17.24 c -0.38 -6.2 0.91 -13.46 -1.26 -19.2 -0.69 -0.43 -6.76 0.64 -13.49 2.38 -16.6 4.29 -51.2 9.1 -52.89 7.36 -1.43 -1.43 0.19 -16.96 -4.85 -46.61 -8.59 -50.59 -13.65 -82.4 -18 -105.7 -8.18 -43.51 -6.3 -45.65 -2.69 -39.65 0 0 24.1 120.7 26.1 141.8 3.25 34.3 2.2 44.1 3.46 45.4 2.81 2.81 60.2 -8.25 62.6 -12.1 0.56 -0.88 1.03 -4 1.04 -6.92 0.02 -6.72 1.63 -6.8 3.81 -0.18 0.93 2.82 2.33 5.38 3.12 5.68 0.78 0.3 5.59 -0.3 10.69 -1.33 11.99 -2.43 25.88 -4 49.9 -5.7 10.66 -0.75 23.88 -1.95 29.38 -2.68 9.15 -2.44 56.2 -13.19 62.5 -23.32 0.36 -0.93 -1.36 -7.43 -3.81 -14.43 -2.45 -7 -4.93 -15.27 -5.49 -18.36 -4.9 -14.21 -7.29 -30.49 -11.98 -43.1 -2.61 -11.97 -6.24 -24.65 -8.77 -35.57 -1.04 -17.65 -24.97 -61.94 -21.86 -67.9 -0.76 -3.74 2.64 -2.13 2.64 -2.13 2.81 6.16 16.2 44.52 19.87 56.2 2.07 6.53 8.23 29.3 13.69 50.63 9.52 37.1 13.1 49.2 19.65 66.7 1.65 4.38 2.99 8.69 2.99 9.59 0 0.89 -5.34 4.34 -11.87 7.66 -12 6.11 -13.37 7.72 -10.14 11.98 2.38 3.14 5.16 2.72 11.67 -1.76 3.16 -2.17 9.59 -5.82 14.29 -8.11 4.7 -2.29 8.55 -4.65 8.55 -5.24 0 -0.59 -3.1 -11.43 -6.89 -24.1 -7.64 -25.5 -11.1 -40.86 -16.78 -74.2 l -3.82 -22.5 l -5.63 -5.42 c -3.09 -2.98 -5.63 -5.83 -5.63 -6.32 2.6 -4.7 6.4 -9.37 5.72 -14.1 -0.93 -6 -11 -37.2 -17.26 -53.4 -4.44 -11.51 -5.29 -12.87 -7.67 -12.33 -2.22 0.5 -36 13.25 -45.4 17.1 -3.14 1.3 -4.89 9.41 -3.8 17.59 0.99 7.4 -1.63 6.13 -5.98 -2.91 -4.45 -9.26 -4.57 -9.28 -23.75 -4.35 -16.2 4.15 -22.66 4.9 -50.63 5.81 l -23.1 0.75 l -0.18 10.36 c -0.16 9.19 -0.51 10.65 -3.11 12.9 -3.16 3.26 -3.18 2.22 -5.75 -0.99 -3.81 -7.37 -6.15 -13.74 -9.91 -21 -9.95 -0.48 -20.3 -0.49 -29.8 0.29 -10.89 0.93 -11.25 1.06 -11.25 4.06 -1.11 7.81 -19.23 2.1 -19.38 8.91 0 3.06 6.52 29.51 10.13 41.1 3 9.68 6.12 29.1 6.12 38.2 0 5.88 -0.3 6.63 -2.81 6.98 -2.68 0.38 -2.8 0.87 -2.5 10.4 0.34 10.86 2.28 21.89 6.58 37.5 2.28 8.28 2.94 15.2 3.81 40 0.95 27.1 2.47 44.88 4.35 50.81 0.38 1.19 1.64 2.44 2.81 2.79 1.17 0.35 12.54 0.47 25.3 0.27 22.44 -0.79 39.91 -4.09 57.5 -9.69 z m -16.62 -81.8 c -1.7 -1.7 -0.9 -8 1.12 -8.81 2.52 -0.97 4.37 1.77 3.95 5.84 -0.31 3 -3.29 4.76 -5.07 2.97 z m -0.66 -13.65 c 0.57 -2.72 2.78 -2.88 3.29 -0.25 0.26 1.37 -0.35 2.19 -1.64 2.19 -1.2 0 -1.89 -0.81 -1.65 -1.94 z m -2.21 -8.7 c -1.49 -5.94 4.58 -8.72 6.42 -2.93 0.52 5.16 -5 8.26 -6.42 2.93 z m 1.3 -10.72 c -0.46 -0.75 -0.35 -1.85 0.25 -2.45 1.48 -1.48 4.73 0.67 3.65 2.42 -1.09 1.77 -2.82 1.78 -3.9 0.03 z m 67.3 0.53 c -0.86 -0.35 -1.56 -1.7 -1.56 -3 0 -3.19 5.78 -4.67 8.32 -2.14 1.64 1.64 1.62 2.09 -0.2 3.91 -2.07 2.07 -3.71 2.38 -6.56 1.23 z m -8.26 -1.29 c -1.49 -1.49 -0.81 -4.13 1.08 -4.13 1.03 0 1.88 0.81 1.88 1.8 0 2.09 -1.78 3.5 -2.95 2.33 z m -11.28 -3.54 c -2.3 -2.3 -1.34 -5.59 1.63 -5.59 3.41 0 6.86 3.14 5.97 5.44 -0.99 2.58 -5.08 2.66 -7.6 0.14 z m 29.79 -0.7 c -0.46 -0.75 -0.26 -1.94 0.44 -2.64 1.58 -1.58 4 -0.25 4 2.2 0 2.1 -3.22 2.42 -4.44 0.44 z m -76.8 -4.85 c 0 -4.59 3.88 -7.27 6.3 -4.36 2.18 2.62 -0.37 8.1 -3.78 8.1 -1.97 0 -2.53 -0.82 -2.53 -3.71 z m 83.4 1.67 c -1.67 -1.67 -0.87 -5.08 1.74 -7.44 2.56 -2.32 2.65 -2.32 4.37 0.04 3.76 3.62 -3.63 9.63 -6.11 7.4 z m -42.63 -1.38 c -1.65 -1.65 -0.6 -4.08 1.75 -4.08 1.38 0 2.5 0.78 2.5 1.74 0 1.89 -3.04 3.56 -4.25 2.34 z m -8.77 -8.1 c -2 -2.87 -0.78 -6 2.35 -6 2.43 0 6 4.72 5.23 6.83 -1.08 2.8 -5.38 2.35 -7.58 -0.81 z m -25.1 0.23 c -1.05 -1.69 0.37 -3.75 2.57 -3.75 0.99 0 1.8 1.13 1.8 2.5 0 2.59 -3 3.45 -4.38 1.25 z m 82.4 -2.61 c -0.46 -0.75 -0.26 -1.94 0.44 -2.64 1.58 -1.58 4 -0.25 4 2.2 0 2.1 -3.22 2.42 -4.44 0.44 z m -75.97 -1.97 c -3.19 -3.19 3.69 -8.4 7.23 -5.47 1.41 1.17 1.56 2.17 0.62 3.93 -1.22 2.29 -6.14 3.25 -7.85 1.54 z m 11.67 -2.22 c 0 -2.57 2.59 -3.83 3.81 -1.86 0.57 0.91 0.75 2.11 0.41 2.66 -1.05 1.7 -4.22 1.1 -4.22 -0.8 z m 65.6 -3.27 c -1.5 -2.43 0.59 -7.43 3.12 -7.43 3.13 0 4.22 1.9 3.27 5.7 -0.79 3.16 -4.83 4.25 -6.39 1.73 z m 3.48 -10.83 c -2.52 -0.9 -1.79 -4.1 0.94 -4.1 1.38 0 2.5 0.81 2.5 1.8 0 2.17 -1.32 3.06 -3.44 2.3 z m 7.94 -3.16 c -2.57 -4.09 -4.1 -8.52 -6.97 -12.19 -4.49 3.39 -6.62 8.5 -11.77 11.25 -1.8 0 -12 -11.58 -12 -13.63 3.63 -3.65 8.67 -4.48 12.5 -7.82 0 -0.62 -1.97 -2.86 -4.38 -4.98 -5.32 -4.67 -5.48 -7.8 -0.69 -13.58 3.31 -4.3 3.07 -4.88 6.97 -1.25 4.88 3.95 7 10.82 12.41 13.74 5.82 -3.22 8 -9.32 13.91 -12.5 2.07 0 9.52 9.86 8.89 11.76 -4.28 4.64 -10.88 6 -14.61 11.1 0 0.83 2 2.87 4.44 4.53 7.33 4.99 7.72 7.1 2.26 12.1 -5.47 5 -8.44 5.41 -10.96 1.49 z m -30.75 146 c 14.78 -1.05 29.97 -2.24 33.75 -2.64 13.74 -1.45 44.3 -6.93 45.89 -8.23 1.88 -1.56 2.26 -17.98 0.44 -19.1 -0.64 -0.4 -5.36 0.69 -10.49 2.41 -38.2 9.48 -70.5 7.51 -108.6 13.92 -6.67 1.14 -6.78 2.24 -1.66 16.42 10.71 2.46 28.77 -1.93 40.64 -2.79 z" style="fill:#6e2404"/><path d="m 120.6 141.5 c -2.26 -4.43 -3.56 -5.41 -8 -6.1 -5.84 -0.85 -10.18 -3.47 -8.9 -5.38 0.45 -0.67 3.37 -2.71 6.48 -4.52 5.61 -3.26 5.65 -3.35 4.74 -9.67 -1.14 -7.89 1.32 -13.47 4.61 -10.45 3.14 8.4 2.83 14.84 7.43 16.63 5.48 2.14 15.69 -1 16 2.78 0 1.5 -1.72 3.11 -4.43 4.15 -7.22 2.75 -8.51 4.67 -7.55 11.15 0.95 6.37 -0.22 12.58 -2.36 12.58 -4.07 -2.4 -6.1 -7.3 -8.1 -11.23 z" style="fill:#800000"/></g></g></svg>