<svg xmlns="http://www.w3.org/2000/svg" viewBox="0 0 256 256"><path d="m 190.3 234.8 c -329.4 135.7 -174.6 -434.9 40.48 -157.8 c 37.49 49.69 40.4 133.2 -40.48 157.8" style="fill:#ff8c3d"/><path d="m 60.4 77.4 h 126.5 v 124.1 h -126.5" style="fill-opacity:0.1"/><path d="m 55.1 72.6 h 126.5 v 124.1 h -126.5" style="fill:#666"/><path d="m 60.4 77.4 h 116 v 114.5 h -116" style="fill:#f4ffd5"/><g style="fill:#4c4c4c"><path d="m 148.8 94.9 h 7.25 v 1.59 h -9.77 v -1.59 c 0.79 -0.73 1.88 -1.73 3.21 -2.98 c 1.36 -1.25 2.23 -2.04 2.57 -2.41 c 0.66 -0.67 1.13 -1.25 1.41 -1.71 c 0.25 -0.46 0.4 -0.94 0.4 -1.38 c 0 -0.75 -0.3 -1.36 -0.87 -1.82 c -0.57 -0.48 -1.32 -0.71 -2.23 -0.71 c -0.66 0 -1.34 0.11 -2.09 0.31 c -0.72 0.21 -1.48 0.52 -2.3 0.94 v -1.92 c 0.83 -0.29 1.62 -0.52 2.34 -0.69 c 0.72 -0.14 1.38 -0.23 2 -0.23 c 1.6 0 2.85 0.35 3.81 1.08 c 0.96 0.73 1.43 1.68 1.43 2.89 c 0 0.56 -0.13 1.11 -0.36 1.63 c -0.23 0.5 -0.66 1.1 -1.27 1.81 c -0.19 0.19 -0.73 0.69 -1.66 1.56 c -0.92 0.85 -2.21 2.06 -3.88 3.61"/><path d="m 160.8 94.9 h 3.4 v -10.62 l -3.7 0.69 v -1.73 l 3.68 -0.66 h 2.06 v 12.34 h 3.41 v 1.58 h -8.85 v -1.58"/><path d="m 115.4 113.3 v 5.5 c -2.37 -1.02 -4.6 -1.79 -6.7 -2.29 c -2.11 -0.5 -4.13 -0.75 -6.09 -0.75 c -3.4 0 -6 0.61 -7.87 1.79 c -1.85 1.19 -2.74 2.9 -2.74 5.08 c 0 1.86 0.59 3.25 1.81 4.21 c 1.23 0.91 3.57 1.68 6.98 2.25 l 3.79 0.71 c 4.64 0.79 8.1 2.21 10.28 4.25 c 2.23 2.02 3.34 4.71 3.34 8.11 c 0 4.06 -1.51 7.13 -4.51 9.21 c -2.98 2.09 -7.36 3.13 -13.15 3.13 c -2.19 0 -4.51 -0.21 -7 -0.67 c -2.45 -0.46 -4.98 -1.1 -7.62 -1.98 v -5.84 c 2.54 1.29 5 2.27 7.45 2.92 c 2.43 0.64 4.81 0.98 7.17 0.98 c 3.55 0 6.3 -0.64 8.23 -1.89 c 1.93 -1.27 2.91 -3.08 2.91 -5.44 c 0 -2.04 -0.7 -3.65 -2.11 -4.81 c -1.38 -1.17 -3.66 -2 -6.83 -2.6 l -3.8 -0.67 c -4.64 -0.85 -8 -2.16 -10.1 -3.96 c -2.09 -1.77 -3.13 -4.27 -3.13 -7.46 c 0 -3.68 1.43 -6.6 4.3 -8.73 c 2.87 -2.12 6.85 -3.19 11.89 -3.19 c 2.15 0 4.36 0.19 6.62 0.54 c 2.23 0.35 4.53 0.88 6.88 1.59"/><path d="m 152.5 123.6 v 4.81 c -1.62 -0.81 -3.23 -1.4 -4.85 -1.79 c -1.62 -0.41 -3.23 -0.63 -4.89 -0.63 c -3.68 0 -6.53 1.09 -8.57 3.19 c -2.04 2.12 -3.07 5.08 -3.07 8.89 c 0 3.84 1.02 6.81 3.07 8.92 c 2.04 2.11 4.89 3.17 8.57 3.17 c 1.66 0 3.28 -0.19 4.89 -0.58 c 1.62 -0.41 3.23 -1.02 4.85 -1.81 v 4.75 c -1.59 0.66 -3.23 1.17 -4.95 1.5 c -1.68 0.34 -3.49 0.5 -5.4 0.5 c -5.21 0 -9.34 -1.48 -12.4 -4.44 c -3.08 -2.98 -4.62 -6.96 -4.62 -12 c 0 -5.11 1.55 -9.13 4.64 -12.1 c 3.11 -2.92 7.36 -4.37 12.77 -4.37 c 1.74 0 3.47 0.16 5.13 0.5 c 1.66 0.32 3.28 0.79 4.85 1.46"/><path d="m 80.3 172.2 v 1.61 c -0.55 -0.25 -1.11 -0.42 -1.68 -0.55 c -0.57 -0.12 -1.17 -0.18 -1.79 -0.18 c -0.94 0 -1.66 0.12 -2.13 0.37 c -0.47 0.27 -0.7 0.67 -0.7 1.19 c 0 0.39 0.17 0.71 0.51 0.94 c 0.34 0.23 1.02 0.44 2.04 0.64 l 0.64 0.12 c 1.34 0.27 2.3 0.63 2.87 1.11 c 0.57 0.48 0.85 1.15 0.85 2 c 0 0.96 -0.42 1.73 -1.27 2.29 c -0.85 0.56 -2 0.86 -3.49 0.86 c -0.61 0 -1.27 -0.07 -1.93 -0.17 c -0.66 -0.11 -1.38 -0.27 -2.11 -0.5 v -1.77 c 0.7 0.34 1.38 0.58 2.06 0.75 c 0.68 0.17 1.36 0.25 2.02 0.25 c 0.89 0 1.57 -0.14 2.06 -0.41 c 0.49 -0.27 0.72 -0.67 0.72 -1.17 c 0 -0.48 -0.17 -0.83 -0.53 -1.08 c -0.34 -0.25 -1.11 -0.48 -2.28 -0.71 l -0.66 -0.14 c -1.17 -0.23 -2 -0.56 -2.53 -1.02 c -0.54 -0.48 -0.79 -1.1 -0.79 -1.91 c 0 -0.98 0.38 -1.73 1.15 -2.27 c 0.77 -0.55 1.88 -0.81 3.28 -0.81 c 0.7 0 1.36 0.07 1.98 0.14 c 0.62 0.11 1.2 0.23 1.71 0.42"/><path d="m 85.8 180.8 v 5.52 h -1.89 v -14.39 h 1.89 v 1.59 c 0.4 -0.63 0.91 -1.09 1.51 -1.4 c 0.62 -0.29 1.34 -0.46 2.19 -0.46 c 1.41 0 2.53 0.52 3.4 1.52 c 0.87 1 1.32 2.34 1.32 3.96 c 0 1.65 -0.45 2.98 -1.32 3.98 c -0.87 1 -2 1.5 -3.4 1.5 c -0.85 0 -1.57 -0.14 -2.19 -0.44 c -0.59 -0.32 -1.11 -0.77 -1.51 -1.4 m 6.45 -3.65 c 0 -1.25 -0.28 -2.25 -0.85 -2.96 c -0.57 -0.73 -1.36 -1.09 -2.36 -1.09 c -1 0 -1.79 0.36 -2.36 1.09 c -0.57 0.71 -0.85 1.71 -0.85 2.96 c 0 1.27 0.28 2.25 0.85 2.98 c 0.57 0.71 1.36 1.08 2.36 1.08 c 1 0 1.79 -0.38 2.36 -1.08 c 0.57 -0.73 0.85 -1.71 0.85 -2.98"/><path d="m 107.2 176.7 v 0.83 h -8.7 c 0.09 1.19 0.47 2.09 1.17 2.71 c 0.7 0.6 1.68 0.92 2.93 0.92 c 0.75 0 1.45 -0.09 2.13 -0.25 c 0.68 -0.17 1.36 -0.39 2 -0.73 v 1.63 c -0.68 0.27 -1.36 0.46 -2.09 0.6 c -0.7 0.14 -1.43 0.21 -2.17 0.21 c -1.83 0 -3.3 -0.5 -4.36 -1.46 c -1.08 -0.98 -1.62 -2.29 -1.62 -3.94 c 0 -1.71 0.51 -3.06 1.53 -4.06 c 1.02 -1 2.38 -1.52 4.13 -1.52 c 1.53 0 2.77 0.46 3.66 1.38 c 0.91 0.89 1.36 2.12 1.36 3.67 m -1.89 -0.5 c 0 -0.94 -0.3 -1.68 -0.87 -2.25 c -0.55 -0.54 -1.32 -0.83 -2.23 -0.83 c -1.06 0 -1.92 0.27 -2.55 0.81 c -0.64 0.55 -1 1.31 -1.08 2.3 l 6.74 -0.02"/><path d="m 118.6 172.3 v 1.61 c -0.54 -0.27 -1.06 -0.48 -1.62 -0.6 c -0.54 -0.13 -1.09 -0.21 -1.64 -0.21 c -1.21 0 -2.17 0.35 -2.85 1.06 c -0.68 0.71 -1.02 1.71 -1.02 2.98 c 0 1.27 0.34 2.27 1.02 2.96 c 0.68 0.71 1.64 1.06 2.85 1.06 c 0.55 0 1.11 -0.07 1.64 -0.19 c 0.55 -0.14 1.08 -0.35 1.62 -0.6 v 1.58 c -0.54 0.21 -1.06 0.38 -1.64 0.5 c -0.57 0.11 -1.17 0.16 -1.81 0.16 c -1.74 0 -3.13 -0.5 -4.15 -1.5 c -1.02 -0.98 -1.53 -2.31 -1.53 -4 c 0 -1.68 0.51 -3 1.55 -4 c 1.04 -0.98 2.45 -1.48 4.25 -1.48 c 0.57 0 1.15 0.06 1.71 0.16 c 0.55 0.11 1.11 0.27 1.62 0.5"/><path d="m 123.8 168.9 v 2.96 h 3.89 v 1.33 h -3.89 v 5.67 c 0 0.85 0.13 1.42 0.38 1.65 c 0.26 0.25 0.79 0.37 1.57 0.37 h 1.93 v 1.44 h -1.93 c -1.47 0 -2.47 -0.25 -3 -0.75 c -0.55 -0.48 -0.85 -1.39 -0.85 -2.69 v -5.67 h -1.38 v -1.33 h 1.38 v -2.98 h 1.91"/><path d="m 136.9 173.5 c -0.21 -0.11 -0.47 -0.19 -0.7 -0.25 c -0.26 -0.04 -0.54 -0.09 -0.83 -0.09 c -1.06 0 -1.89 0.32 -2.47 0.96 c -0.57 0.63 -0.85 1.52 -0.85 2.71 v 5.5 h -1.92 v -10.44 h 1.92 v 1.63 c 0.38 -0.65 0.91 -1.11 1.55 -1.42 c 0.64 -0.31 1.41 -0.48 2.32 -0.48 c 0.13 0 0.28 0.02 0.43 0.04 c 0.17 0.02 0.34 0.02 0.54 0.07 l 0.02 1.77"/><path d="m 138.7 178.3 v -6.31 h 1.89 v 6.25 c 0 0.98 0.21 1.73 0.64 2.23 c 0.43 0.48 1.06 0.73 1.92 0.73 c 1.02 0 1.83 -0.3 2.4 -0.88 c 0.59 -0.61 0.91 -1.4 0.91 -2.42 v -5.91 h 1.89 v 10.44 h -1.89 v -1.61 c -0.47 0.63 -1 1.11 -1.62 1.42 c -0.61 0.32 -1.3 0.46 -2.11 0.46 c -1.32 0 -2.34 -0.38 -3 -1.13 c -0.68 -0.73 -1.02 -1.83 -1.02 -3.27"/><path d="m 161.3 173.9 c 0.47 -0.75 1.04 -1.34 1.7 -1.69 c 0.66 -0.37 1.43 -0.56 2.32 -0.56 c 1.21 0 2.13 0.39 2.79 1.14 c 0.64 0.77 0.98 1.84 0.98 3.25 v 6.29 h -1.92 v -6.23 c 0 -1.02 -0.19 -1.75 -0.57 -2.23 c -0.4 -0.5 -1 -0.73 -1.79 -0.73 c -1 0 -1.76 0.29 -2.34 0.87 c -0.57 0.61 -0.85 1.4 -0.85 2.42 v 5.89 h -1.89 v -6.23 c 0 -1.02 -0.21 -1.77 -0.59 -2.23 c -0.38 -0.5 -1 -0.73 -1.81 -0.73 c -0.98 0 -1.74 0.29 -2.32 0.9 c -0.55 0.58 -0.85 1.39 -0.85 2.39 v 5.89 h -1.89 v -10.44 h 1.89 v 1.63 c 0.43 -0.64 0.96 -1.11 1.55 -1.42 c 0.62 -0.32 1.32 -0.46 2.15 -0.46 c 0.85 0 1.55 0.19 2.15 0.58 c 0.57 0.38 1.02 0.94 1.3 1.67"/></g></svg>