<svg xmlns="http://www.w3.org/2000/svg" viewBox="0 0 256 256"><path d="m 52.77 231 c 192.5 128 311 -280.1 62.2 -226.1 c -102.8 23 -165.2 167.4 -62.2 226.1" style="fill:#10a420"/><g transform="scale(5.333)" style="fill:#fff;stroke:#fff"><path d="m 12.24 24.3 v -10.1 h 23.8 v 20.1 h -23.8 m 22.58 -10.1 v -8.85 h -21.2 v 17.69 h 21.2" style="stroke-width:0.62"/><path d="m 16.66 22.87 c 0 -0.57 0.28 -0.81 1.52 -1.24 c 0.84 -0.29 1.63 -0.64 1.76 -0.78 c 0.13 -0.13 -0.52 -0.52 -1.45 -0.85 c -1.32 -0.48 -1.71 -0.77 -1.78 -1.32 c -0.11 -0.8 -0.34 -0.83 3.08 0.43 c 1.74 0.64 1.94 0.79 2 1.63 c 0.08 0.89 0.01 0.94 -2.53 1.89 l -2.61 0.97 v -0.71" style="stroke-width:0.91"/><path d="m 22.32 25.1 c 0 -0.6 0 -0.6 3.24 -0.6 c 3.24 0 3.24 0 3.24 0.6 c 0 0.6 0 0.6 -3.24 0.6 c -3.24 0 -3.24 0 -3.24 -0.6" style="stroke-width:0.84"/></g></svg>