<svg xmlns="http://www.w3.org/2000/svg" viewBox="0 0 256 256"><path d="m 33.2 202.8 c -100.5 -107.1 64.5 -267.3 175.8 -172.9 124.7 103.5 -36.56 306.3 -162.3 191.1 -7.33 -10.3 -8.97 -12.1 -13.46 -18.1" style="fill:#2f4f4f"/><g transform="matrix(2.669 0 0 2.943 -181.2 -672.8)" style="stroke:#fff"><g transform="matrix(1.126 0 0 1.242 1.9 -280.9)" style="fill:#2f4f4f"><path d="m 115 427.4 c 0 2.76 -6.72 5 -15 5 -8.28 0 -15 -2.24 -15 -5 v 20 c 0 2.76 6.72 5 15 5 8.28 0 15 -2.24 15 -5 v -20 z" transform="matrix(1.054 0 0 1.347 -4.35 -146.1)" style="stroke:#fff;stroke-linejoin:round;stroke-width:2"/><path d="m 97.4 433.2 c -3.78 -0.43 -6.6 -1.34 -7.61 -2.46 -0.4 -0.44 -0.51 -0.78 -0.41 -1.26 0.2 -0.98 1.89 -1.93 4.62 -2.59 4.8 -1.17 12.37 -0.93 16.3 0.51 1.69 0.62 2.49 1.18 2.79 1.95 0.18 0.46 0.18 0.49 -0.06 0.96 -0.39 0.79 -1.22 1.31 -3.08 1.92 -2.41 0.8 -5.15 1.15 -8.88 1.13 -1.36 0 -3 -0.07 -3.67 -0.15 z" style="fill:#fff;stroke:none"/></g><g transform="matrix(0.996 0 0 0.963 -1.74 22.75)" style="fill:none"><g style="stroke-linecap:round;stroke-width:1.51"><path d="m 110.1,253.9 h 15.59 v 16.95 H 110.1 z"/><path d="m 114,257.3 h 7.46 v 9.63 H 114 z"/><path d="M 105.9,251.5 H 130 v 23.1 h -24.1 z"/></g><path d="M 101.8,278.4 114,266.87"/></g></g></svg>