<svg xmlns="http://www.w3.org/2000/svg" viewBox="0 0 256 256"><path d="m 223.5 217.4 c 146.4 -225.4 -253.5 -312.6 -221.6 -80.7 c 12.99 94.6 165.6 167 221.6 80.7" style="fill:#eec9d8"/><g style="fill:#d5004d;fill-opacity:0.97"><path d="m 125.5 231 c -23.8 -3.06 -50.3 -26.73 -61.4 -54.77 -4.67 -11.83 -5.59 -18.2 -5.7 -39.48 -3.21 -12.96 -8.54 -11.75 3.04 -27.2 2.79 -3.71 4.57 -9.94 6.31 -12.51 5.19 -7.67 5.2 -7.62 -3.34 -17.1 c -5.66 -6.26 -8.49 -10.31 -11.41 -16.31 -3.16 -6.5 -4.85 -12 -3.67 -12 c 0.12 0 4.15 3.82 8.96 8.49 7.95 7.72 9.41 8.75 16.1 11.34 4.05 1.57 7.9 2.84 8.54 2.83 0.64 -0.01 4.76 -2.2 9.15 -4.87 4.39 -2.67 10.42 -10.3 14 -12.1 6.48 -3.18 7.12 0.8 17.1 0.98 13.77 0.24 22 1.41 28.98 4.08 8.22 2 15.91 -2.18 22.95 9.24 2.82 1.92 5.91 3.48 6.87 3.48 3.16 0 12.99 -3.92 17.42 -6.93 2.39 -1.63 7.22 -5.29 10.72 -8.13 3.5 -2.84 6.59 -4.93 6.87 -4.65 0.81 0.81 -4.99 11.47 -9.1 16.69 -4.75 6.55 -11.81 10.11 -16.79 16.2 0 0.4 0.55 2.21 1.23 4 1.81 5.28 6.22 9.91 3.75 20.89 0.24 1.22 -3.35 -2.74 -3.4 -8.24 -0.03 -3.37 -3.33 -5.44 -3.95 -5.44 -1.47 0 -1.42 0.48 0.36 3.19 0.93 1.42 1.76 5.35 2.25 10.64 1.12 12.25 1.02 14.16 -1.01 18.63 -2.39 5.55 -3.84 11.84 -7.74 16.55 -4.91 7.27 -12.37 13.16 -19.8 16.85 -3.85 1.85 -8.83 3.37 -13.5 4.11 -14.46 1.39 -19.1 1.41 -31.71 -6.44 -4.21 -2.61 -11.83 -10.16 -11.83 -11.44 0 -1.07 4.9 1.56 5.36 2.58 0.16 0.36 1.96 1.74 3.99 3.06 4.64 3 5.23 1.02 0.71 -2.42 -2.65 -2 -3.21 -3.2 -4.87 -10.27 -2.27 -9.68 -1.87 -14.58 1.86 -22.46 5.7 -12.1 12.47 -17.35 23.1 -18 5.65 -0.36 6.98 -0.14 11.1 1.88 2.57 1.26 5.42 3.13 6.34 4.17 1.66 1.88 1.66 1.88 -0.52 1.22 -1.2 -0.36 -4.5 -1.18 -7.34 -1.83 -8.79 -1.99 -17.37 0.67 -23.31 7.24 -4.63 5.13 -6.26 10.2 -5.76 17.98 1.17 18.2 17.41 31.3 34.3 27.68 7.92 -1.7 23 -11.74 23 -15.31 0 -0.55 1.08 -2.56 2.4 -4.47 2.38 -3.45 2.4 -3.54 2.4 -18.28 0 -13.41 -0.19 -15.3 -2 -20 -4.58 -11.79 -13.52 -21.86 -23.2 -26.2 -12.38 -5.5 -32.68 -5.14 -41.1 0.72 -1.85 1.28 -3.89 8.45 -6.38 9.19 -11.55 -2.18 -2.45 -4.21 -12.8 2.18 -8.15 4.98 -15.37 12.98 -18.57 20.59 -3.72 8.84 -4.97 13.82 -5.79 23.1 -0.8 9 -0.19 17.25 1.95 26.57 1.3 5.67 5 3.99 8.21 7 4.08 3.84 3 9.97 2.19 11.33 -0.87 1.41 3.81 12.63 7.72 18.48 6.56 8.57 14.98 18.42 24.1 22.94 7.8 5.76 12.88 6.33 20.87 9.23 2.75 1.21 0.48 1.95 -1.28 2.32 -0.48 -0.05 -3.54 -0.44 -6.8 -0.86 z"/><path d="m 137.6 150 c -2.24 -0.78 -2.56 -2.58 -0.58 -3.24 2.04 -0.67 10.53 -0.54 11 0.17 0.25 0.34 -0.14 1.34 -0.86 2.23 -1.41 1.73 -5.9 2.13 -9.61 0.84 z"/><path d="m 151.8 144.7 c -1.8 -2.74 4 -9 6.34 -6.76 1.04 1.02 -0.1 5.75 -1.6 7.22 -1.28 1.26 -3.77 1.01 -4.74 -0.46 z"/><path d="m 158.4 131.1 c -0.69 -2.79 0.64 -7.84 2.29 -7.84 1.44 0 2 6.56 1.21 8.67 -0.82 2.18 -2.89 1.69 -3.51 -0.83 z"/></g></svg>