<svg xmlns="http://www.w3.org/2000/svg" viewBox="0 0 256 256"><path d="m 44.82 218.8 c -201.8 -266.4 353.6 -304.2 175.4 -32.3 -40.63 61.99 -121.9 102.9 -175.4 32.3" style="fill:#ebebeb"/><path d="m 124.8 196.6 c -1.19 -1.7 -1.56 -4.95 -1.57 -13.75 -0.02 -14.1 -0.45 -16 -3.57 -16 -4.96 0 -13.45 -4.16 -18.48 -9.1 -8.33 -8.11 -9.3 -11.34 -9.91 -32.94 -0.29 -10.17 -0.87 -19 -1.29 -19.68 -0.42 -0.65 -2.27 -1.67 -4.1 -2.28 -2 -0.66 -3.82 -2.17 -4.55 -3.75 -1.03 -2.25 -0.92 -3.04 0.71 -5.22 1.81 -2.42 2.49 -2.59 12 -2.85 14.93 -0.42 14.17 -1.86 14.2 27 0.02 20.51 0.24 23.73 1.88 27.35 2.02 4.45 6.5 8.24 10.24 8.64 l 2.36 0.26 l 0.5 -46.3 c 0.58 -53.5 -0.4 -49.2 11.1 -49.2 5.1 0 7.26 0.45 9.1 1.91 l 2.36 1.91 l 0.5 45.84 c 0.49 45.1 0.53 45.83 2.5 45.5 2.97 -0.5 7.79 -3.73 9.5 -6.35 1.19 -1.84 1.6 -7.43 2 -27.45 0.62 -30.99 -0.16 -29.35 13.93 -29.35 11 0 14.1 1.28 14.1 5.9 0 2.96 -2.66 6.1 -5.17 6.1 -0.83 0 -2.26 0.82 -3.17 1.83 -1.37 1.52 -1.65 4.2 -1.65 15.82 0 21.6 -1.57 27.67 -9.29 36.1 -4.72 5.13 -10.1 8.16 -17.21 9.8 l -5 1.15 l -0.5 14 c -0.35 9.8 -0.91 14.52 -1.87 15.68 -1.07 1.29 -3.18 1.65 -9.69 1.65 -7.46 0 -8.48 -0.23 -9.88 -2.22 z" transform="translate(-11.9 2.64)" style="fill:#4d4d4d"/></svg>