<svg xmlns="http://www.w3.org/2000/svg" viewBox="0 0 256 256"><path d="m 212.6 208.2 c -104.4 135.2 -292.9 -46.96 -172.5 -166.6 103.6 -119.9 304.8 51.5 172.5 166.6" style="fill:#2c2c2c"/><path d="m 63.2 255.6 c -0.25 -0.65 0.24 -2.34 1.15 -3.93 21.69 -29.68 54.6 -80.7 67.5 -108.7 -0.49 -1.94 -5.41 -12.92 -10.93 -24.39 c -31 -64.4 -31.2 -64.79 -30.43 -67.81 c 0.37 -1.48 0.94 -1.83 3.61 -2.19 4.62 -0.64 27.1 -0.51 43.1 0.25 11.87 0.56 14.1 0.83 15.1 1.87 4.51 6.51 15.59 35.51 19.4 35.75 1.16 0 5.38 -5.38 13.68 -17.44 9.63 -13.99 12.53 -21.6 14.44 -22.33 7.66 -0.2 17.99 -0.87 26.2 0.44 -2.41 14.18 -5.91 38.66 -8.63 56.84 -0.61 1.17 -6.52 9.63 -13.14 18.81 -6.62 9.17 -12.5 17.64 -13.1 18.83 7.28 20.62 21.8 41.4 29.81 61.77 -32.9 10.42 -35.3 21.83 -36.59 46.1 -0.54 -0.73 -5.08 -9.49 -10.1 -19.46 -5 -9.98 -9.75 -18.74 -10.55 -19.46 -1.11 -1 -1.72 -1.15 -2.6 -0.6 -0.63 0.4 -4.37 6.58 -8.31 13.73 -9.51 17.29 -16.25 28.62 -18.2 30.54 -14 1.84 -63.3 5.79 -71.6 1.33 z" transform="matrix(0.54 0 0 0.522 37.99 53.1)" style="fill:#a9a9a9"/><path d="m 154 151.4 a 22.89 20.29 0 1 1 -45.78 0 22.89 20.29 0 1 1 45.78 0 z" transform="matrix(0.469 0.29 -0.374 0.614 149.5 47.5)" style="fill:#fff"/><path d="m 157 158 c -4.24 0.38 -13.56 1.92 -16.99 2.81 -12.1 1.24 -29.61 1.53 -38.65 -2.21 -11.8 -3.93 -34.97 -16.71 -33.68 -17.1 0.55 -0.19 15.82 3.61 22.38 6.97 11.1 3.54 17.28 5.56 27.52 3.67 16.6 -3 27.65 -6.35 28.5 -8.61 -0.73 -4.23 -3.04 -6.61 -5.61 -10.32 l 2.48 -0.27 c 3 -0.32 40.3 2.25 40.85 2.82 0.96 0.96 -16.1 31.3 -17.55 31.3 -3.57 -1.93 -5.21 -9.31 -9.24 -9 z" style="fill:#4169e1"/><path d="m 161.6 128.2 c -2.55 -0.37 -2.86 -0.75 -2.38 -3 0.3 -1.43 1.76 -12.45 3.25 -24.49 1.49 -12 3.05 -23.2 3.47 -24.81 l 0.76 -2.92 l 12.98 -0.27 c 7.9 -0.17 12.98 0.1 12.98 0.67 0 0.52 -4.44 10.27 -9.86 21.68 -5.42 11.4 -11.14 23.58 -12.7 27.1 -2.91 6.47 -3.43 6.85 -8.49 6.11 z" style="fill:#ff8c00"/><path d="m 84.4 107.7 c 2.02 2.77 2.93 3.48 4.68 3.63 4.24 0.37 13.6 0.71 17.1 0.63 12.1 1.07 26.43 2.33 35.56 6.32 22.3 6.81 14.39 11.72 12.59 8.97 -10.61 -3.91 -16.52 -6.12 -26.84 -6.37 -16.72 -0.44 -27.98 0.13 -29.1 1.47 -0.42 0.53 0.31 2.13 1.91 4.19 1.59 2.49 4.07 3.45 0.12 3.15 -3 -0.23 -39.6 -7.3 -40.1 -7.75 -0.85 -0.77 19 -18 20.51 -17.82 0.57 0.08 2.17 1.7 3.55 3.59 z" style="fill:#4169e1"/></svg>