<svg xmlns="http://www.w3.org/2000/svg" viewBox="0 0 256 256"><path d="m 159.6 249.8 c 90.8 -3.26 97.6 -78.7 94.1 -149.1 c -2.81 -57.4 -29.5 -84.95 -77.3 -93.5 -124.7 -22.42 -214.7 15.88 -159.1 197 c 23.7 54 94 53.1 142.2 45.71" style="fill:#b0e0e6"/><g transform="matrix(0.697 0 0 0.721 39.3 33.5)"><path d="m 76.7 135.7 c 0.26 -1.01 -13.7 -21.34 -36 -48.92 -19.83 -24.46 -36 -44.72 -36 -45 c 0 -0.29 23.1 -0.53 51.3 -0.53 39.57 0 51.66 0.29 52.83 1.29 0.84 0.71 5.49 6.26 10.33 12.34 4.97 6.24 9.56 11.1 10.53 11.1 0.96 0 5.56 -4.77 10.43 -10.8 4.79 -5.94 9.39 -11.5 10.21 -12.34 1.29 -1.33 8.59 -1.54 52.93 -1.54 28.3 0 51.4 0.24 51.4 0.53 0 0.29 -16.2 20.52 -36 44.95 -19.8 24.43 -35.59 48.2 -35.59 48.84 16.1 79.3 18.97 70.82 -53.4 64.6 -83.1 6.91 -62.6 4.82 -52.9 -64.5 z" style="fill:#028fe7"/><path d="m 4.58 223.3 c 0 -0.58 12.69 -16.22 28.2 -34.75 40.3 -48.1 43 -51.3 43.92 -50.97 0.96 0.33 51.88 60.96 51.85 61.74 -0.03 0.77 -18.99 23.39 -20.35 24.27 -1.88 1.22 -103.6 0.93 -103.6 -0.29 z m 146.4 0.29 c -1.32 -0.86 -20.32 -23.49 -20.35 -24.2 -0.03 -0.79 50.92 -61.5 51.89 -61.79 0.75 -0.26 11.16 11.93 62.3 72.98 5.39 6.43 9.79 12.17 9.79 12.75 0 1.23 -101.7 1.52 -103.6 0.3 z m -39.2 -69.7 c -4.1 -2.14 -12.14 -9.41 -12.1 -10.96 4 -4.27 8.15 -6.47 13.36 -9.89 l 9.56 1.15 c 8.1 0.97 10.49 0.91 15.47 -0.4 6.65 -1.74 17.77 -7.34 18.36 -9.24 0.54 -1.71 -4.07 -1.59 -10.18 0.26 -6.98 2.12 -15.59 1.86 -15.59 -0.47 0 -0.41 1.82 -1.56 4 -2.56 2.61 -1.18 3.93 -2.38 3.74 -3.4 -0.39 -2.06 -10.41 -2.57 -22.93 -1.17 -7.37 0.82 -10.18 1.66 -15.44 4.6 -3.54 1.98 -6.93 3.28 -7.55 2.9 -1.98 -1.23 -0.19 -13.1 3 -19.94 4.13 -8.82 9.1 -13.84 17.95 -18.23 18.85 -9.21 42.4 2 50.4 17.56 3.04 6.17 3.27 7.37 3.27 16.67 0 9.1 -0.28 10.6 -2.93 16 -3.76 7.66 -10.52 14.4 -18.1 18 -11.1 4.67 -24.2 4.19 -34.3 -0.91 z" style="fill:#0a0a0a"/></g></svg>