<svg xmlns="http://www.w3.org/2000/svg" viewBox="0 0 256 256"><defs><clipPath><path d="M 0,64 H64 V128 H0 z"/></clipPath></defs><g style="fill:#dc143c;color:#000"><path d="m -1360.1 1641.3 c 46.1 -98.3 -119.6 -146.1 -181.8 -106.1 -62.2 40 -83.5 108.6 -13 143.1 70.5 34.5 148.8 61.3 194.9 -37 z" transform="matrix(1.027 0 0 1.347 1642.7 -2048.4)"/></g><g transform="matrix(-3.418 0 0 3.145 208.2 47.3)" style="fill:#fff0f5"><g><path d="m 17,4 -2,2 v 4 H 3 v 30 c 0,1.108 0.892,2 2,2 h 36 c 1.108,0 2,-0.892 2,-2 V 10 H 31 V 6 L 29,4 z m 0,2 h 12 v 4 H 17 z"/><path d="m 17 6 v 1 h 12 v -1 h -12 z m -14 34 v 1 c 0 1.11 0.89 2 2 2 h 36 c 1.11 0 2 -0.89 2 -2 v -1 c 0 1.11 -0.89 2 -2 2 h -36 c -1.11 0 -2 -0.89 -2 -2 z" style="opacity:0.2"/></g><path d="m 17,4 -2,2 v 1 l 2,-2 h 12 l 2,2 V 6 L 29,4 H 17 z M 3,10 v 1 H 15 V 10 H 3 z m 14,0 v 1 H 29 V 10 H 17 z m 14,0 v 1 H 43 V 10 H 31 z" style="opacity:0.2"/></g><g style="fill:#dc143c"><path d="m 162.8 158.6 c -2.31 -0.65 -2.35 -0.72 -2.35 -3.75 v -3.09 l 1.85 0.96 c 1.02 0.53 3.26 0.96 4.98 0.96 4.51 0 6.28 -1.68 6.76 -6.42 0.2 -1.98 0.22 -3.6 0.03 -3.6 -0.19 0 -1.32 0.99 -2.53 2.19 -4.24 4.24 -9.47 2.47 -12.33 -4.18 -1.19 -2.78 -1.37 -4.08 -1.14 -8.63 0.29 -5.68 1.13 -8 3.9 -10.78 3 -3 6.82 -2.8 10.11 0.59 l 2.14 2.21 v -2.29 v -2.29 h 3.16 h 3.16 l -0.19 15.19 c -0.21 17.2 -0.55 18.66 -4.96 21.58 -2.75 1.82 -8.68 2.45 -12.6 1.35 z m 9.23 -17.69 c 2.57 -2.57 2.95 -9.78 0.7 -13.21 -1.21 -1.84 -4.69 -2.19 -6.26 -0.61 -2 2 -2.73 7 -1.61 11.1 1.14 4.1 4.51 5.4 7.16 2.75 z"/><path d="m 78.6 130 v -18.47 h 3.63 h 3.63 v 14.84 v 14.84 h 6.36 h 6.36 v 3.63 v 3.63 h -9.99 h -9.99 v -18.47 z"/><path d="m 104.1 139.6 v -19.1 h 3.13 h 3.13 v 2.35 v 2.35 l 1.57 -1.99 c 1.79 -2.27 5 -3.58 7.42 -2.98 0.89 0.22 2.57 1.46 3.74 2.75 2.67 2.96 3.8 7.39 3.41 13.4 -0.7 10.65 -7.46 15.63 -13.64 10 l -2.51 -2.27 v 7.28 v 7.28 h -3.13 h -3.13 v -19.1 z m 14 1.98 c 2.7 -2.7 2.7 -11.26 0 -14.24 -1.65 -1.83 -4.99 -1.61 -6.32 0.42 -1.19 1.82 -1.83 7.24 -1.22 10.45 0.84 4.48 4.7 6.21 7.54 3.37 z"/><path d="m 132.9 128.9 v -19.1 h 3.12 h 3.12 l 0.17 10.67 l 0.17 10.67 l 4.07 -5.33 l 4.07 -5.33 l 3.68 -0.02 l 3.68 -0.02 l -3 3.6 c -1.67 1.98 -3.95 4.71 -5.09 6.1 -1.13 1.35 -2.06 2.74 -2.06 3.08 0 0.34 2.4 3.81 5.33 7.72 l 5.33 7.1 h -3.72 h -3.72 l -4.28 -5.79 l -4.28 -5.79 l -0.18 5.79 l -0.18 5.79 h -3.11 h -3.11 v -19.1 z"/></g></svg>