<svg xmlns="http://www.w3.org/2000/svg" viewBox="0 0 256 256"><path d="m 45.5 30.83 c 95.8 -62.3 183 -12 203.7 58.5 c 27.84 94.8 -45.3 223.6 -196.1 138.8 c -59.94 -33.73 -75.8 -152.9 -7.59 -197.2" style="fill:#1b2e5b"/><path d="m 59.69 42.58 h 146.8 c 0.71 0 1.27 0.56 1.27 1.27 v 172.8 c 0 0.71 -0.56 1.27 -1.27 1.27 h -146.8 c -0.71 0 -1.27 -0.56 -1.27 -1.27 v -172.8 c 0 -0.71 0.56 -1.27 1.27 -1.27" style="fill:#fff;stroke:#fff;fill-rule:evenodd;stroke-width:1.48"/><path d="m 45.68 131.8 v -91.9 l 74.7 -9.99 l 92.2 7.97 v 185.8 l -160.7 1.02 m 82.7 -25.54 c 0.84 -2.23 1.11 -4.89 0.55 -5.89 c -0.55 -1.02 -1 -4.27 -1 -7.23 l -0.02 -5.39 l -11 -0.52 c -15.57 -0.73 -24.31 4.77 -21.91 13.79 c 1.66 6.31 8.23 9.27 20.52 9.27 c 10.89 0.02 11.39 -0.14 12.88 -4 m -20.92 -1.13 c -2.08 -1.25 -3.46 -3.59 -3.72 -6.32 c -0.35 -3.67 0.29 -4.69 4.24 -6.64 c 6.5 -3.23 9.32 -2.92 13.6 1.5 c 3.99 4.12 11.1 3.17 3.49 5.96 c -1.43 0.54 -8.45 1.77 -7.28 3.17 c 0.84 1.02 1.54 2.41 1.54 3.1 c 0 1.96 -8.21 1.44 -11.87 -0.77 m 37.6 2.02 c 0 -1.69 1.45 -2.35 5.26 -2.35 c 3.83 0 5.27 0.66 5.27 2.35 c 0 1.71 1.75 2.5 6.27 2.85 c 3.44 0.25 6.26 0.09 6.26 -0.37 c 0 -2.21 -15.1 -22.94 -16.68 -22.94 c -1 0 -3.77 3.31 -6.11 7.36 c -2.34 4 -5.59 8.77 -7.21 10.52 c -4.24 4.5 -3.7 6 1.97 5.44 c 3.33 -0.34 4.96 -1.25 4.96 -2.86 m 4 -7.75 c -0.43 -0.81 1.43 -3.83 2.16 -4.37 c 0.74 -0.55 3.87 4.27 3.87 5.63 c 0 2.77 -4.89 0.94 -6 -1.25 m 37.55 9.65 c 0 -0.69 -0.66 -2.04 -1.48 -3 c -2.57 -3.08 0.12 -5.19 6.69 -5.19 c 11.33 0 15.8 -8.91 6.23 -12.35 c -2.3 -0.83 -8.64 -1.39 -14.1 -1.27 c -8.1 0.21 -9.8 0.69 -9.35 2.61 c 1.43 6.16 1.58 14.62 0.27 16.21 c -2.73 3.25 -1.5 4.27 5.13 4.27 c 3.64 0 6.6 -0.56 6.6 -1.27 m -2.63 -14.48 c 0 -2.9 0.63 -3.27 4.94 -2.86 c 3.33 0.34 4.96 1.27 4.96 2.86 c 0 1.61 -1.63 2.52 -4.96 2.85 c -4.3 0.42 -4.94 0.04 -4.94 -2.85 m -95.6 -19.77 c 0.04 -2.62 0.52 -5.58 1.02 -6.6 c 1.25 -2.39 -0.29 -9.42 -2.23 -10.25 c -0.84 -0.35 -6.69 -0.58 -12.98 -0.5 c -10.2 0.12 -11.8 0.54 -14.85 3.96 c -3.35 3.77 -4.3 8.58 -2.36 12.21 c 2.57 4.83 8.88 6.83 20.1 6.39 l 11.23 -0.46 m -19.42 -4.11 c -3.7 -1.61 -5.84 -6.31 -4.26 -9.36 c 1.2 -2.34 9 -6.14 12.54 -6.14 c 2.36 0 2.7 0.64 2 3.93 c -0.66 3.13 6.95 1.38 8.88 1.38 c 3.99 0 -2.84 4.44 -5.92 8.34 c -3.05 3.88 -7.24 4.48 -13.23 1.86 m 51.83 -4.48 c 3.05 -5.21 6.1 -9.46 6.69 -9.46 c 0.62 0 1.13 -1.06 1.13 -2.35 c 0 -1.71 -1.48 -2.35 -5.41 -2.35 c -4.26 0 -5.55 0.64 -6.09 3.08 c -0.78 3.56 -4.52 5.42 -8.16 4 c -1.38 -0.52 -2.8 -2.34 -3.17 -4 c -0.5 -2.21 -1.81 -3.08 -4.7 -3.08 c -4.5 0 -6.77 2.64 -3.51 4.14 c 1.17 0.52 4.48 5.13 7.38 10.21 c 3.34 5.84 6.19 9.25 7.78 9.25 c 1.56 0 4.59 -3.54 8.1 -9.44 m -10.67 -1.59 c 0 -0.85 0.64 -1.36 1.34 -1.56 c 0.43 -0.14 -0.04 -2.39 4.16 0.6 c 0.7 0.5 -1.23 6.38 -1.95 6.38 c -0.72 0 -3.54 -4.54 -3.54 -5.42 m 49.4 9.48 c 8.7 -3.96 3.29 -13.68 -6.63 -11.91 c -3.95 0.71 -5.91 0.35 -7.1 -1.29 c -1.07 -1.56 -1.13 -2.6 -0.2 -3.31 c 0.76 -0.56 1.4 -2.04 1.4 -3.27 c 0 -1.65 -1.65 -2.27 -5.86 -2.27 c -5.74 0 -8.72 1.94 -6 3.91 c 0.74 0.54 1.34 4.09 1.34 7.88 c 0 3.79 -0.6 7.36 -1.34 7.89 c -0.74 0.55 -1 1.65 -0.57 2.46 c 1 1.93 20.63 1.88 24.96 -0.09 m -13.45 -3.38 c -0.8 -0.96 -1.15 -2.73 -0.78 -3.94 c 0.95 -2.88 7.59 -2.77 9.65 0.16 c 1.34 1.94 1.02 2.61 -1.91 3.94 c -4.44 2.02 -5.13 2 -6.95 -0.16 m -26.1 -28.1 c 6.13 0 8.21 -2.73 5.93 -7.84 c -0.95 -2.11 -0.78 -3.1 0.61 -3.75 c 1.5 -0.69 1.63 -1.83 0.58 -5.45 c -1.28 -4.34 -1.84 -4.63 -11 -5.63 c -13.78 -1.48 -23.1 3.38 -23.1 12 c 0 6.16 10.39 12.9 17.65 11.42 c 2.08 -0.44 6.31 -0.79 9.42 -0.79 m -14.87 -5.06 c -4.46 -2.56 -4.07 -9.79 0.66 -11.96 c 6.56 -3 8.89 -3.39 10.88 -1.83 c 1.66 1.29 1.68 1.77 0.16 2.94 c -2.64 2.02 -0.6 4.89 3.43 4.89 l 5.68 0.34 l -5.33 3.61 c -4.48 3.06 -10 5.17 -15.48 2.02 m 51.3 -0.83 c 2.32 -4.12 5.7 -9.4 7.51 -11.73 l 3.29 -4.25 l -3.5 -1.04 c -4.94 -1.48 -9.65 0.32 -10.45 4 c -1.09 4.94 -8.54 4.37 -10.18 -0.77 c -0.86 -2.73 -2.25 -3.94 -4.5 -3.94 c -4.42 0 -5.68 3 -2.51 6.12 c 1.42 1.4 4.83 6.25 7.57 10.79 c 2.71 4.55 5.76 8.27 6.75 8.27 c 1 0 3.7 -3.38 6 -7.48 m -9.36 -5.13 c 0 -0.86 0.6 -1.56 1.32 -1.56 c 0.72 0 5.43 0.37 5.43 1.25 c 0 0.86 -2.49 5.42 -3.23 5.42 c -0.72 0 -3.52 -4.23 -3.52 -5.1 m 51.79 9.19 c 2.67 -1.65 3.04 -6.12 0.72 -8.88 c -0.86 -1.02 -4.73 -1.88 -8.62 -1.88 c -7.41 0 -10.1 -2.6 -7.1 -6.92 c 1.15 -1.67 1 -2.39 -0.61 -3.15 c -5.61 -2.56 -13.16 0.42 -10.14 4 c 2 2.44 2.12 9.89 0.16 14.23 c -1.09 2.44 -1.05 3.54 0.19 4.46 c 2.08 1.52 22.25 0.02 25.36 -1.88 m -15.9 -4.86 c 0.52 -4.34 4.69 -5.39 8.35 -2.06 c 2.26 2.06 2.34 2.6 0.63 3.98 c -1.09 0.88 -3.64 1.58 -5.7 1.61 c -3.11 0.02 -3.64 -0.56 -3.29 -3.52 m -64.77 -23.2 c 5.8 0 6.67 -0.43 7.84 -4.06 c 0.7 -2.23 0.84 -4.89 0.31 -5.89 c -0.55 -1.02 -0.99 -4.21 -1 -7.1 l -0.02 -5.27 l -10.43 -0.54 c -11.96 -0.65 -17.86 1.54 -21.33 7.89 c -2.2 3.98 -2.18 4.34 0.35 8.39 c 2.61 4.21 12.36 8.63 16 7.25 c 0.97 -0.35 4.7 -0.64 8.27 -0.64 m -13.33 -5.19 c -4.48 -2.69 -4.95 -8.12 -1 -11.23 c 5.55 -4.34 10.58 -4.67 14.57 -0.92 c 4.46 4.19 10.29 5.98 6.07 5.98 c -3.52 0 -11.23 2.66 -9.1 4.25 c 5.08 3.73 -4.57 5.5 -10.53 1.91 m 60.6 4.23 c 0.27 -0.29 -1.21 -2.94 -3.29 -5.88 c -2.1 -2.94 -5.47 -7.93 -7.51 -11.1 c -2 -3.15 -4.52 -5.71 -5.55 -5.71 c -1.02 0 -4.24 4.16 -7.14 9.25 c -2.9 5.08 -6.19 9.67 -7.3 10.18 c -3.72 1.69 -2.12 4.17 2.7 4.17 c 3.64 0 4.89 -0.73 5.43 -3.15 c 0.99 -4.46 9.56 -4.52 10.53 -0.09 c 0.37 1.69 1.64 3.36 2.84 3.73 c 2.06 0.6 8.19 -0.34 9.27 -1.44 m -18.92 -9.94 c -0.41 -0.81 0.43 -4.46 1.11 -4.98 c 0.7 -0.5 4.13 1.36 4.57 2.17 c 0.41 0.83 1.15 3.83 0.45 4.34 c -0.68 0.52 -5.7 -0.71 -6.13 -1.52 m 37.4 9.92 c 0.27 -0.29 -0.22 -1.59 -1.11 -2.86 c -2.63 -3.77 -0.39 -5.63 6.83 -5.63 c 6.82 0 11.55 -2.98 11.55 -7.27 c 0 -3.61 -4.28 -5 -17.2 -5.56 c -10.65 -0.46 -12.44 -0.19 -11.96 1.81 c 1.43 6.16 1.56 14.63 0.24 16.19 c -2.22 2.64 -1.79 4 1.5 4.71 c 2.8 0.61 8.96 -0.25 10.1 -1.39 m -1.86 -13.25 c -1.43 -2.79 1.27 -4.98 5.47 -4.39 c 5.32 0.71 5 5.08 -0.37 5.71 c -2.3 0.27 -4.59 -0.32 -5.11 -1.31 m -100.2 -20.41 c 3.5 0 4.45 -0.73 5.14 -4 c 0.46 -2.21 0.39 -4.86 -0.12 -5.88 c -0.54 -1.04 -0.82 -4.11 -0.62 -6.79 l 0.34 -4.94 l -9.56 -0.81 c -14.64 -1.25 -23.59 3 -23.59 11.19 c 0 8.1 7.96 13.27 18.32 11.96 c 3.19 -0.39 7.71 -0.73 10.1 -0.73 m -12.24 -3.21 c -12.61 -3.25 -9.66 -15.59 3.72 -15.65 c 3.31 -0.02 5.61 1.13 7.71 3.79 l 6.47 4.12 l -7.23 0.21 c -2.98 0.07 -3.7 1.23 -3.46 3.89 c 0.35 4.12 -1.56 5.08 -7.22 3.63 m 33.98 0.86 c 0.97 -3 2.2 -3.94 5.26 -3.94 c 2.64 0 4.32 0.96 4.9 2.75 c 1.15 3.75 3 5.06 7.21 5.1 c 6.93 0.04 6.09 -2.48 -6.85 -20.71 c -3.87 -5.46 -6.34 -4.94 -9.77 2 c -1.32 2.64 -4.16 7.21 -6.32 10.14 c -4.3 5.84 -3.96 8.56 1.02 8.56 c 2.25 0 3.64 -1.21 4.5 -3.93 m 3.95 -8.67 c 0 -0.85 1.23 -4.77 1.95 -4.77 c 0.74 0 4.18 5.84 4.18 6.69 c 0 0.88 -4.07 -0.34 -4.79 -0.34 c -0.74 0 -1.34 -0.71 -1.34 -1.58 m 34.82 11.67 c 1.46 -0.67 1.81 -2.23 1.25 -5.5 l -0.76 -4.58 h 6.85 c 3.77 0 8 -0.73 9.39 -1.63 c 3.19 -2.04 3.31 -7.23 0.25 -9.13 c -2.4 -1.48 -22.41 -3.42 -24.76 -2.41 c -0.99 0.44 -1.58 19.73 -0.72 23.79 c 0.16 0.77 6.5 0.38 8.49 -0.54 m 0.35 -14 c -0.47 -1.46 -0.54 -3.29 -0.12 -4.09 c 1.25 -2.42 8.53 -1.63 9.38 1 c 0.99 3.09 0.5 3.63 -4.4 4.79 c -3.05 0.73 -4.22 0.31 -4.86 -1.71" style="fill:#1b2e5b"/></svg>