<svg xmlns="http://www.w3.org/2000/svg" viewBox="0 0 256 256" xmlns:xlink="http://www.w3.org/1999/xlink"><path d="m 105.4 4.25 c -103.6 11.99 -137.9 150.8 -67.5 215.2 51.92 56.3 157 46.61 196 -18.73 51.6 -74.8 -2.22 -188.5 -97.3 -198.1 -10.42 -1 -21 -0.51 -31.3 1.61 z" style="fill:#4695b4;color:#000"/><g transform="matrix(3.78 0 0 3.7 15.51 32.92)"><g style="fill:#069"><g transform="matrix(0 -1.572 1.572 0 -10.1 5.46)"><path transform="matrix(0.265 0 0 0.265 -16.53 3.74)" d="M 52 76 61.5 92.5 71 76" style="fill:#069"/><path d="m 0.44 28.61 l 2.52 -4.36 a 0.79 0.79 0 0 0 -0.7 -1.18 h -5 a 0.79 0.79 0 0 0 -0.69 1.19 l 2.52 4.35 c 0.51 0.88 1.88 0.08 1.37 -0.79 l -2.52 -4.36 l -0.69 1.2 h 5 l -0.69 -1.2 l -2.51 4.36 c -0.51 0.89 0.86 1.69 1.37 0.79 z" id="0" style="fill:#069;stroke-width:0.26"/></g><path d="M 28.89 3.65 A 22.37 22.37 0 0 0 6.77 26 a 22.37 22.37 0 0 0 6.76 16 1.5 1.5 0 0 0 0.03 0.03 1.5 1.5 0 0 0 0.02 0.02 a 1.5 1.5 0 0 0 1.06 0.44 1.5 1.5 0 0 0 1.5 -1.5 1.5 1.5 0 0 0 -0.44 -1.06 A 19.37 19.37 0 0 1 9.77 26 19.37 19.37 0 0 1 28.89 6.65 v -3 z m 14.8 5.9 a 1.5 1.5 0 0 0 -1.5 1.5 1.5 1.5 0 0 0 0.48 1.1 19.37 19.37 0 0 1 5.84 13.85 19.37 19.37 0 0 1 -3.54 11.13 5.64 5.64 0 0 1 2.42 1.78 22.37 22.37 0 0 0 4.12 -12.91 22.37 22.37 0 0 0 -6.64 -15.89 1.5 1.5 0 0 0 0 0 1.5 1.5 0 0 0 -1.18 -0.57 z m -6.27 33.95 a 19.37 19.37 0 0 1 -7.99 1.87 v 3 a 22.37 22.37 0 0 0 9.33 -2.18 5.64 5.64 0 0 1 -1.34 -2.69 z"/><g transform="matrix(0 1.572 -1.572 0 63.1 47.5)"><path transform="matrix(0.265 0 0 0.265 -16.53 3.74)" d="M 71 76 52 76 61.5 92.5" style="fill:#069"/><use xlink:href="#0"/></g></g><g style="fill:#35e298"><path d="m 36.2 17.53 c -0.47 0 -0.91 0.18 -1.25 0.51 -3.46 3.89 -6.9 7.81 -10.34 11.71 l -3.92 -3.43 c -0.34 -0.36 -0.82 -0.56 -1.32 -0.57 -1 0 -1.82 0.82 -1.82 1.82 0 0.39 0.13 0.77 0.36 1.08 h -0.01 l 5.19 6.48 c 0.46 0.53 1.13 0.84 1.83 0.84 0.72 0 1.4 -0.32 1.85 -0.88 l 10.91 -14.69 c 0.22 -0.31 0.35 -0.69 0.35 -1.07 0 -1 -0.82 -1.82 -1.82 -1.82 z"/><circle r="4.07" cy="42.8" cx="40.3" style="stroke-width:0.74"/></g></g></svg>