<svg xmlns="http://www.w3.org/2000/svg" viewBox="0 0 256 256"><path d="m 2.79 157.2 c 11.91 103.3 150.9 131 215.4 57.2 56.5 -54.8 46.86 -159.7 -18.62 -195.7 -74.86 -48.1 -188.8 11.37 -198.4 107.2 c -1.02 10.49 -0.53 21.1 1.58 31.3 z" style="fill:#3b5059;color:#000"/><g style="fill:#fff"><path d="m 93.7 335.2 c -10.91 -1.44 -26.78 -7.97 -35.2 -14.48 -9.19 -7.13 -20.64 -20.71 -24.41 -28.96 -9.43 -20.62 -9.38 -47.62 0.13 -67.5 4.97 -10.39 17.43 -23.62 91.9 -97.6 l 69.2 -68.7 l 3.8 1.4 c 2.17 0.8 20 17.36 41.65 38.65 49.1 48.3 63 63.2 63 67.3 0 5.33 -147.9 153.3 -160.5 160.6 -12.87 7.42 -33.94 11.38 -49.61 9.31 z m 8.51 -15.36 c 18.81 -12.5 5.13 -49.2 -23.74 -63.7 -14.52 -7.29 -29.99 -5.49 -36.1 4.21 -3.86 6.09 -2.99 20.37 1.83 30.1 6.53 13.15 20.55 25.87 33.61 30.48 7.79 2.75 19.41 2.22 24.43 -1.12 z m 108.3 -101.2 l 48.2 -47.65 l -33.71 -33.3 l -33.71 -33.3 l -43.1 43.67 c -23.73 24 -45.2 45.97 -47.74 48.79 l -4.59 5.11 l 31.77 32.2 c 17.47 17.71 32.44 32.2 33.3 32.2 0.82 0 23.2 -21.44 49.68 -47.65 z" transform="matrix(0.422 0 0 0.434 49.5 51.4)"/><path d="m 160.7 97.6 c -7.67 -7.88 -14.19 -14.8 -14.49 -15.37 c -0.47 -0.9 0.85 -2.51 9.82 -11.92 l 10.37 -10.88 l 15.1 15.39 l 15.1 15.39 l -10.69 10.86 c -5.88 5.98 -10.84 10.86 -11 10.86 -0.18 0 -6.6 -6.45 -14.27 -14.33 z m 22.56 -1.21 c 1.95 -1.96 3.55 -3.91 3.55 -4.33 0 -0.42 -0.87 -1.61 -1.93 -2.66 -1.85 -1.83 -1.98 -1.87 -3.23 -1.04 -0.71 0.47 -2.49 2.32 -3.96 4.1 -2.16 2.63 -2.56 3.43 -2.14 4.24 0.56 1.07 3.09 3.26 3.75 3.26 0.22 0 1.99 -1.61 3.95 -3.57 z m -17.86 -17.99 c 4.08 -3.95 4.3 -4.71 2.07 -7.1 -0.97 -1.02 -2.04 -1.85 -2.38 -1.85 -0.71 0 -7.75 7.27 -7.75 8 0 0.81 3.28 3.96 4.12 3.96 0.43 0 2.2 -1.38 3.94 -3.06 z"/></g></svg>