<svg xmlns="http://www.w3.org/2000/svg" xmlns:xlink="http://www.w3.org/1999/xlink" viewBox="0 0 256 256"><defs><linearGradient gradientUnits="userSpaceOnUse" y2="118" x2="0" y1="10" id="6"><stop style="stop-color:#43d6b5"/><stop offset="1" style="stop-color:#28bca3"/></linearGradient><linearGradient y1="44" x2="0" y2="3.9" id="7" xlink:href="#2" gradientUnits="userSpaceOnUse" gradientTransform="matrix(2.6 0 0 0.282 5.8 0.23)"/><linearGradient id="9"><stop style="stop-color:#f5f5f5"/><stop offset="1" style="stop-color:#e1e1e1"/></linearGradient><linearGradient x1="5.21" x2="54.89" id="8" gradientUnits="userSpaceOnUse" gradientTransform="matrix(1.901 0 0 1.988 6.82 0.04)"><stop style="stop-color:#0e9a83"/><stop offset="0.96" style="stop-color:#0e9a83"/><stop offset="0.96" style="stop-color:#c2c2c2"/><stop offset="1" style="stop-color:#c2c2c2"/></linearGradient><linearGradient y1="5" x2="0" y2="43" id="5" gradientUnits="userSpaceOnUse" gradientTransform="matrix(2.459 0 0 2.892 4.97 -5.41)"><stop style="stop-color:#fff"/><stop offset="0.03" style="stop-color:#fff;stop-opacity:0.24"/><stop offset="0.97" style="stop-color:#fff;stop-opacity:0.16"/><stop offset="1" style="stop-color:#fff;stop-opacity:0.39"/></linearGradient><linearGradient x1="24.63" y1="3.12" x2="24.64" y2="4.88" id="A" xlink:href="#9" gradientUnits="userSpaceOnUse" gradientTransform="matrix(2.665 0 0 4.093 4.35 -10.57)"/><linearGradient id="2"><stop style="stop-color:#272727"/><stop offset="1" style="stop-color:#454545"/></linearGradient><linearGradient y1="1" x2="0" y2="3" id="4" xlink:href="#9" gradientUnits="userSpaceOnUse" gradientTransform="matrix(2.6 0 0 2.75 0.6 0.12)"/><linearGradient y1="44" x2="0" y2="3.9" id="3" xlink:href="#2" gradientUnits="userSpaceOnUse" gradientTransform="matrix(2.6 0 0 2.795 5.8 -3.08)"/><radialGradient cx="7.5" cy="8.45" r="20" id="1" gradientUnits="userSpaceOnUse" gradientTransform="matrix(0 6.532 -6.428 0 122.5 -37.83)"><stop style="stop-color:#5f5f5f"/><stop offset="0.26" style="stop-color:#4f4f4f"/><stop offset="0.7" style="stop-color:#3b3b3b"/><stop offset="1" style="stop-color:#2b2b2b"/></radialGradient><radialGradient cx="64.4" cy="114.8" r="52.5" id="0" gradientUnits="userSpaceOnUse" gradientTransform="matrix(1.333 0 0 0.082 -19.85 -3.92)"><stop/><stop offset="1" style="stop-opacity:0"/></radialGradient></defs><path d="m 127.5 255.1 c -168.9 19.22 -166.5 -255.9 3 -252.7 157.7 -9.1 171.9 267.6 -3 252.7" style="fill:#008080"/><g transform="matrix(1.041 0 0 1.071 60.6 66.4)"><g style="stroke-linejoin:round"><path d="M 109.5,10.36 C 108.72,7.72 109.2,4.02 108.77,1.5 h -80.3 l 0.47,7.98" style="fill:url(#A);stroke-miterlimit:0;stroke:url(#8);stroke-width:1.02"/><g style="stroke-linecap:round"><path d="M 30.5,12.5 H 20.1 c -1.48,0 -2.6,-0.12 -2.6,-0.27 V 4.08 c 0,-1.94 0.64,-2.59 2.55,-2.59 H 30.5" style="fill:url(#4);stroke:url(#7);color:#000"/><rect y="9.49" x="20.2" rx="1.92" height="109" width="90.3" ry="1.87" style="fill:url(#6);stroke-miterlimit:0;stroke:#0e9a83;stroke-width:1.02"/><path shape-padding="0" vector-effect="none" shape-margin="0" inline-size="0" solid-color="#000000" solid-opacity="1" white-space="normal" isolation="auto" mix-blend-mode="normal" d="M 69.5,37 C 60.39,37 53,44.39 53,53.5 53,62.61 60.39,70 69.5,70 78.61,70 86,62.61 86,53.5 86,44.39 78.61,37 69.5,37 m -6.08,35 c -0.03,0 -0.07,0 -0.1,0.01 -3.84,0.78 -7.9,2.32 -11.14,4.56 -3.24,2.24 -5.7,5.22 -6.18,8.86 0,0.02 0,0.04 0,0.06 v 3.5 c 0,2.76 2.24,5 5,5 H 69.5 88 c 2.76,0 5,-2.24 5,-5 v -3.5 c 0,-0.02 0,-0.04 0,-0.05 -0.41,-3.65 -3.54,-6.93 -7.13,-9.36 -3.59,-2.43 -7.64,-4 -10.27,-4.09 0,0 -0.01,0 -0.01,0 z" style="fill:#007367;opacity:0.05;stroke:#007367;color:#000;stroke-width:2"/></g></g><g style="color:#000"><g><path shape-padding="0" vector-effect="none" shape-margin="0" inline-size="0" solid-color="#000000" solid-opacity="1" white-space="normal" isolation="auto" mix-blend-mode="normal" d="M 69.5,37 C 60.39,37 53,44.39 53,53.5 53,62.61 60.39,70 69.5,70 78.61,70 86,62.61 86,53.5 86,44.39 78.61,37 69.5,37 m -6.08,35 c -0.03,0 -0.07,0 -0.1,0.01 -3.84,0.78 -7.9,2.32 -11.14,4.56 -3.24,2.24 -5.7,5.22 -6.18,8.86 0,0.02 0,0.04 0,0.06 v 3.5 c 0,2.76 2.24,5 5,5 H 69.5 88 c 2.76,0 5,-2.24 5,-5 v -3.5 c 0,-0.02 0,-0.04 0,-0.05 -0.41,-3.65 -3.54,-6.93 -7.13,-9.36 -3.59,-2.43 -7.64,-4 -10.27,-4.09 0,0 -0.01,0 -0.01,0 z" style="fill:#007367;opacity:0.15"/><path shape-padding="0" vector-effect="none" shape-margin="0" inline-size="0" solid-color="#000000" solid-opacity="1" white-space="normal" isolation="auto" mix-blend-mode="normal" d="M 69.5,36 C 60.39,36 53,43.39 53,52.5 53,61.61 60.39,69 69.5,69 78.61,69 86,61.61 86,52.5 86,43.39 78.61,36 69.5,36 m -6.08,35 c -0.03,0 -0.07,0 -0.1,0.01 -3.84,0.78 -7.9,2.32 -11.14,4.56 -3.24,2.24 -5.7,5.22 -6.18,8.86 0,0.02 0,0.04 0,0.06 v 3.5 c 0,2.76 2.24,5 5,5 H 69.5 88 c 2.76,0 5,-2.24 5,-5 v -3.5 c 0,-0.02 0,-0.04 0,-0.05 -0.41,-3.65 -3.54,-6.93 -7.13,-9.36 -3.59,-2.43 -7.64,-4 -10.27,-4.09 0,0 -0.01,0 -0.01,0 z" style="fill:#fafafa"/></g><path d="m 30.5,9.5 c 0,0 0,75.8 0,109 H 19.77 c -1.48,0 -2.27,-0.88 -2.27,-2.38 V 9.52 z" style="fill:url(#1);stroke:url(#3);stroke-linecap:round;stroke-linejoin:round"/></g><g style="fill:none"><rect y="10.5" x="18.5" rx="0.96" height="107" width="91" ry="0.93" style="opacity:0.5;stroke:url(#5);stroke-linecap:round;stroke-linejoin:round"/><path d="m 18.5 3.5 h 92 m -92 2 h 92 m -92 2 h 92" style="opacity:0.1;stroke:url(#0)"/></g></g></svg>