<svg xmlns="http://www.w3.org/2000/svg" viewBox="0 0 256 256"><path d="m 38.63 48 c -159.7 227 255.7 299.3 214.5 58 -21.84 -95.9 -150.5 -149 -214.5 -58" style="fill:#2e3436"/><path d="m 210.9 139.2 a 72.5 68.6 0 1 1 -145 0 72.5 68.6 0 1 1 145 0 z" transform="matrix(1.105 0 0 1.169 -24.2 -27.93)" style="fill:#1970d7"/><path d="m 116.1 214.8 c -27.52 -4.63 -51.3 -23.85 -61.6 -49.7 -2.02 -6.46 -8.88 -29.44 -4.64 -32.3 2.24 -1.46 9.46 -2.66 18.53 -3.05 7.91 -0.35 8.59 -0.48 13.71 -2.63 17.41 -7.32 30 -18.98 37.43 -34.66 3.09 -4.6 2.58 -9 2.59 -14.33 0.03 -11.93 1.83 -21.6 4.26 -22.9 1.55 -0.83 14.1 0.28 20.74 1.84 26.94 6.32 49.2 26.8 57.93 53.4 2.41 7.31 3.31 12.36 3.68 20.68 0.34 7.65 0.32 7.82 -0.98 8.52 -2.68 1.44 -12.57 2.98 -19.1 2.98 -5.81 0 -6.93 0.18 -11.1 1.82 -14.55 5.74 -26.96 15.17 -34.2 26 -5.34 7.46 -8.45 16.2 -8.6 24.2 -0.16 8.11 -1.17 16.2 -2.44 19.46 -4 3.18 -9.72 1.78 -16.28 0.71 z" style="fill:#fff"/></svg>