<svg xmlns="http://www.w3.org/2000/svg" viewBox="0 0 256 256"><path d="m 252.8 98.7 c -49.98 -239.9 -393.9 17.64 -187.3 139.6 80.2 52.3 213 -16.2 187.3 -139.6" style="fill:#f5f5f5"/><g transform="matrix(0.819 0 0 0.782 -154.9 140)"><path d="m 419.2 83.6 c -5.81 -1.11 0.82 -9.99 1.35 -12.64 2.06 -3.77 6.3 -0.8 14.81 -0.26 0 4.83 0 9.66 0 14.49 -3.7 -0.22 -8.47 0.22 -16.2 -1.59 z m -58.1 -16.75 c 0.06 -3.93 -1.1 -13 2.41 -14.51 3.17 -1.26 16.48 -4.36 16.89 -3.93 0.62 0.65 0.62 11.79 0 13.79 -2.15 2.81 -17.83 6.71 -19.3 4.65 z m -29 -9.33 c -0.74 -1.26 0.52 -13.5 1.47 -14.25 0.8 -0.63 10.24 -3.08 15.97 -4.13 l 2.21 -0.41 c -0.69 4.31 1.4 10.97 -1 14.74 -3.34 2.08 -17.6 5.78 -18.65 4.05 z m 81.6 -2.13 c 0 -2.1 1.16 -8.65 2.48 -14.1 0.8 -3.29 1.81 -3.76 12.35 -5.84 2.24 -0.44 4.71 -1.01 5.48 -1.27 1.1 -0.36 1.41 0.03 1.41 1.75 -1.29 6.09 -2.65 12.69 -3.38 17.84 l -3.56 1.81 c -3.42 1.59 -14.75 3.67 -14.78 -0.23 z m -108 -20.76 c 0.72 -0.75 8.86 -2.86 14.8 -3.84 2.84 -0.47 2.91 -0.41 3.41 2.77 0.69 4.39 0.64 9.76 -0.1 10.98 -0.53 0.86 -14 4.47 -16.74 4.47 -1.66 -4.47 -2.57 -9.29 -1.37 -14.39 z m 83.3 11.39 c -3.24 0.25 -6 0.1 -6.26 -0.34 0.58 -4.15 -1.12 -14.4 2.71 -16.76 0.71 -0.38 4.87 -1.54 9.24 -2.58 8.89 -2.12 9.43 -1.92 8.78 3.23 0.05 6.58 1.73 11.79 2.98 18.26 -6 0.18 -12.1 -2.2 -17.45 -1.81 z m -107.3 -2.92 c -0.2 -0.35 -1.5 -6.74 -1.66 -10.4 -0.33 -7.63 -1.26 -6.75 10 -9.4 4.29 -1 6.53 -1.2 7.09 -0.61 0.89 0.93 1.44 13.21 0.63 14.1 -5.25 0.67 -10.63 7.77 -16.1 6.33 z m 71.2 -7.54 c 0.89 -4.17 -0.74 -14.29 3.07 -15.96 3 -1.25 15 -3.57 16.2 -3.12 0.71 0.29 1.25 2.79 1.59 7.44 0.29 3.86 0.73 8.81 0.99 11 2.27 6.7 -21.76 0.66 -21.8 0.63 z m -96.4 -3.96 c -0.72 -4.95 -0.73 -8.79 -0.96 -14.1 5.2 -1.15 10.61 -1.79 15.68 -3.43 3.5 4.12 2.42 9.1 2.42 14.65 -5.38 1.67 -10 1.87 -15.41 3.09 -0.74 0.22 -1.51 0.11 -1.73 -0.26 z m 68.7 -3.44 l 0.46 -7.87 c -0.6 -9.58 18.63 -19.1 18.79 -8.5 0.05 5.77 1.68 10.97 1.71 16.61 -6.95 -0.4 -14.61 -0.8 -20.96 -0.24 z m 80 -5.91 c -0.25 -5.32 1.85 -9.75 1.92 -15.33 0 -2.74 -0.53 -2.51 10.73 -4.64 3.91 -0.74 7.29 -1.16 7.5 -0.93 0.22 0.23 -0.01 3.38 -0.51 7 -1.58 11.52 -1.34 10.99 -5.51 12.38 -5 1.68 -13.5 2.59 -14.1 1.51 z m -91.4 -2.76 c -5.1 -0.77 -9.34 -0.21 -14.48 0.23 0.45 -3.72 -1.51 -15.72 1.81 -16.49 8.62 -1.88 15.25 -2.99 15.79 -2.64 1.44 5.8 1.4 10.95 1.93 17.28 0.2 2.4 -0.92 2.76 -5.1 1.62 z m 77.2 -4.96 c -5.6 -1.39 -10.87 0.11 -16.38 -1.5 -0.5 -0.85 1.42 -15.51 2.2 -16.84 2.87 -1.74 6.83 -1.62 9.75 -2.26 8.75 -1.94 8.44 -2.09 8.46 3.98 -0.09 5.69 1.58 10.87 2.37 16.41 0.03 1.17 -3.23 1.27 -6.41 0.21 z m -116.7 -3.35 c -0.7 -6.35 -0.56 -14.27 0.26 -14.92 0.93 -0.73 11.85 -2.92 15.47 -3.11 3.78 3.53 2.97 12.55 3.77 18.43 l -9.73 0.02 c -5.35 0.01 -9.75 -0.18 -9.78 -0.42 z m 71.4 -5.3 c 1.05 -5.28 -0.47 -12.34 2.06 -17.1 1.28 -1.23 15.53 -4 17.2 -3.35 1.73 5.63 1.55 13.51 2.38 18.37 0.51 2.94 0.41 3.15 -1.37 3.07 -7.34 -1.47 -13 -1.44 -20.23 -0.99 z m -78.1 -1.22 c -5.95 -0.94 -10.6 -0.65 -16.97 -0.65 0 -5 0 -10 0 -15 5.25 -0.9 10.44 -2.42 15.73 -3 2.31 2.38 4.22 21.55 1.24 18.68 z m 69.4 -26.72 c 0.28 0.29 0.74 3.44 1.02 6.99 2.3 11.49 -33.2 -2.15 -1.02 -6.99 z m -35.79 12.4 l -8.17 -0.27 c 0.44 -3.58 -1.48 -15.57 1.74 -16.3 9.34 -1.97 15.24 -2.94 15.76 -2.61 1.49 5.5 1.31 10.64 2.18 16.65 0.43 2.92 0.33 3.14 -1.43 2.98 -1.04 -0.1 -5.57 -0.3 -10.1 -0.45 z m 95.8 -0.28 c 0.73 -5.91 -0.28 -14.24 3.57 -18.79 2.93 -0.85 15.49 -2.34 15.92 -1.89 0.65 0.68 -1.41 16.74 -2.31 17.93 -1.43 1.9 -16.28 4.27 -17.2 2.75 z m -120 -6.46 l -8.24 -0.27 c 0.16 -5.3 -0.27 -10.73 0.2 -15.97 2.37 -0.49 15 -2.43 15.97 -2.45 2.22 2.33 3.58 19 1.84 19.1 -3.62 -0.22 -6.75 -0.35 -9.76 -0.45 z m 106.8 -0.21 c -5.52 -1.51 -12.29 0.5 -16.84 -1.89 0.63 -6 1.23 -10.66 2 -16.99 l 2.79 -0.58 c 7.78 -1.24 15.23 -5.27 15.27 2.84 -0.09 5.69 1.58 10.87 2.37 16.41 0.03 1.16 -2.49 1.25 -5.6 0.21 z m -71.2 -15.1 c 0.32 -5.52 0.28 -11.1 0.8 -16.58 5.45 -1.38 10.28 -1.77 16.1 -3.25 1.93 -0.51 2.05 -0.35 2.06 2.71 0 2.88 0.45 6.19 2.15 16.1 0.26 1.5 0.15 2.69 -0.24 2.64 -7.36 -1.59 -13.53 -1.53 -20.89 -1.59 z m -7.81 -5.58 c -5.99 -0.88 -10.64 -0.67 -17.1 -0.73 0 -5.6 0 -11.2 0 -16.8 l 6.84 -0.99 c 11.1 -1.61 9.98 -2.32 11.19 7.1 0.58 4.51 1.11 8.92 1.17 9.8 0.11 1.65 -1.19 2.66 -2.14 1.66 z m 83.9 -3.95 c 0 -0.9 2.49 -18.59 2.63 -18.75 0.47 -0.49 16.74 -2.22 17.1 -1.83 0.37 0.39 -0.77 11.71 -1.72 17.2 -0.23 1.32 -1.26 2.04 -3.9 2.73 -3.2 0.84 -14.1 1.36 -14.1 0.67 z m -28.44 -6.5 c 0.09 -6.39 0.79 -11.22 1.5 -18 5.89 -0.7 12.16 -2.71 17.21 -2.63 0.38 3.8 3.22 22.5 1.04 22.25 -6.4 -2.19 -14.1 -0.77 -19.74 -1.63 z m -11.37 -4.17 c -5.43 -1.34 -10.65 0.14 -15.92 -1.47 -0.18 -6.45 0.26 -11.36 0.64 -18.2 5.48 -0.67 11.27 -2.67 16.7 -2.29 0.59 7.94 6.45 24 -1.42 21.95 z m -41.82 -7.99 c -0.06 -5.71 -0.13 -11.42 -0.19 -17.1 4.8 -0.77 9.59 -1.59 14.39 -2.32 l 2.94 -0.45 c 0.56 5.48 0.72 11.1 1.78 16.48 0.73 3.57 0.44 4.77 -1.08 4.51 -6.33 -0.51 -11.18 -0.73 -17.85 -1.1 z m 74.7 -11.66 c -0.26 -0.71 0.01 -5.18 0.6 -9.92 l 1.08 -8.63 c 6.47 -1.32 11.34 -2.09 17.51 -2.18 -1.39 6.43 -0.97 13.85 -2.77 19 -4.11 1.87 -8.29 1.79 -12.93 2.51 -2.27 0.35 -3.13 0.15 -3.49 -0.82 z m -28.99 -5.77 c -0.14 -5.25 1.02 -10.97 1.23 -15.91 4.18 -4.83 8.85 -3.69 16.57 -4.52 1.87 5.74 1.3 11.37 2.38 17.79 l 0.61 3.49 l -10.2 -0.09 c -5.61 -0.05 -10.38 -0.39 -10.59 -0.75 z m -19.2 -4.81 c -6.86 -0.45 -7.23 -0.57 -7.18 -2.37 0.14 -5.63 0.23 -10.1 0.34 -15.85 5.52 -0.51 11.23 -2.04 16.72 -1.71 5.18 20 3.1 20.79 -9.89 19.93 z m 40.4 -18.25 c 0.66 -6.15 0.02 -13.84 1.78 -19.22 6 -1.04 10.69 -1.14 17.1 -1.54 l -0.53 6.23 c -0.96 11.26 -1.28 12.59 -3.24 13.37 -2.72 1.08 -14.65 2 -15.1 1.17 z m -28.1 -4.58 c 0.61 -6.14 0.31 -12.6 1.61 -18.58 0.43 -0.47 13.1 -2.38 15.87 -2.39 2.07 6.84 1.93 14.82 2.94 21.87 l -2.72 -0.17 c -6.27 -0.33 -11.32 -0.49 -17.7 -0.73 z" style="fill:#272727"/><path d="m 127.5 125.1 c 0 7.8 -6.1 14.1 -13.63 14.1 -7.53 0 -13.63 -6.32 -13.63 -14.1 0 -7.8 6.1 -14.1 13.63 -14.1 7.53 0 13.63 6.32 13.63 14.1 z" transform="matrix(1.397 0 0 1.396 168.3 -171.8)" style="fill:#4682b4"/><path d="m 120.2 123.8 c 0.22 -4.51 0.43 -9 0.65 -13.53 4.42 -0.81 13.86 -5 14.78 -0.37 0.77 4 1.86 14.97 1.46 14.74 -5.96 -0.51 -10.51 -0.59 -16.89 -0.84 z" transform="matrix(1.186 0 0 1.227 196.5 -176.9)" style="fill:#bc4240"/><path d="m 231.2 27.68 c -1.44 -6.32 -1.96 -11.47 -2.79 -18 l 8.93 -2.23 c 4.91 -1.22 9.87 -1.81 11 -1.29 2.52 1.14 4.36 15.1 2.36 17.95 -5 3.88 -11 2.79 -16.86 5.25 -1 0.46 -2.2 -0.29 -2.65 -1.65 z" style="fill:#baba18"/></g><path d="m 162.2 189.8 c 0.55 -0.68 16.34 -5.83 17.87 -5.83 2.05 3.25 2.67 14.19 -0.65 16.43 -1.8 1.14 -16.62 5.66 -18.55 5.66 -0.29 -5.64 0.09 -10.36 1.33 -16.27 z" style="fill:#baba18"/></svg>