<svg xmlns="http://www.w3.org/2000/svg" viewBox="0 0 256 256" xmlns:xlink="http://www.w3.org/1999/xlink"><path d="m 2.23 155.5 c 12.32 130.8 209.5 134.6 246.6 7.57 36.61 -102.9 -69.76 -187 -154.8 -153.3 -56.6 15.96 -105.4 81.1 -91.8 145.7" style="fill:#5b6ee1"/><g transform="matrix(0.903 0 0 0.875 15.98 9.78)"><path d="m -18.23 158.4 c -4.07 -19.1 16.96 -41.63 54.2 -36.1 26.68 3.97 27.54 11.68 54.6 -12.27 c 36.85 -32.66 27.34 -36.95 -15.58 -76.6 l -20.72 -19.2 c 81 -44.78 234 136 204.7 149.4 -19.86 0 -35.1 -3.05 -44.99 15.32 -6.62 12.29 -6.14 31.91 -6.96 38.91 -2.33 19.88 -15.41 18.31 -29.1 25.82 -13.66 7.51 -12 19.2 -13.75 29.47 c -63.1 14.92 -168.2 -56.1 -182.5 -114.8 z" style="fill:#f9f021"/><path d="m -16.58 168 c 0 -22.69 32.89 -40.3 65.4 -35 23.28 3.79 27.79 1.96 51.4 -20.88 c 32.2 -31.1 29.92 -47.3 -11.1 -80.1 l -28.2 -22.94 l 20.58 -8.95 c 74.4 -32.36 187.7 26.91 185.3 135.1 c 0.03 19.7 -1.55 21.3 -21 21.3 -17.33 0 -31.1 -0.41 -39.71 17.1 -5.78 11.72 -5.36 30.42 -6.08 37.1 -2.03 18.96 -13.45 17.46 -25.37 24.62 -11.93 7.16 -15.8 26.82 -17.32 36.61 -1.05 6.76 -23.6 9 -40.1 8.6 -87.4 1.37 -130.2 -63.4 -133.8 -112.6 z" style="fill:#99e44f"/><path d="m 74.98 275.1 c -12.85 -3 -54.82 -18.72 -72.3 -52.84 l 21.55 -14.1 c 10.93 -7.14 35.85 -22.5 55.8 -33.44 28 -15.35 40.1 -24.2 53.1 -38.63 29.72 -33.2 17.5 -50.64 1.52 -73.6 -12.33 -17.74 -5.62 -45.4 -30.92 -60.3 l -10.45 -6.16 c 82.5 -22.1 138.4 30.63 159.7 75.3 l -6.45 14.39 c -4.24 9.46 6.48 15 -6.14 19.52 -3.98 1.41 -22.36 3.75 -31.2 9.88 -8.8 6.14 -18.48 11.16 -21.5 11.16 -13.22 0 -44.1 38.98 -52.5 66.2 -2.18 7.11 -7.1 18 -10.93 24.2 -3.83 6.22 -12.8 21.84 -19.94 34.72 -12.88 23.2 -11.37 31.51 -29.4 23.75 z" style="fill:#495c28"/><path d="m 209.7 47.4 c 0 6.33 -5.28 11.45 -11.8 11.45 -6.52 0 -11.8 -5.13 -11.8 -11.45 0 -6.33 5.28 -11.45 11.8 -11.45 6.52 0 11.8 5.13 11.8 11.45 z" transform="matrix(1.107 0 0 1.143 -21.54 -15.1)" id="0" style="fill:#99e44f"/><path transform="matrix(1.107 0 0 1.143 -17.2 23.46)" d="m 209.7 47.4 a 11.8 11.45 0 1 1 -23.6 0 11.8 11.45 0 1 1 23.6 0 z" style="fill:#99e44f"/><use transform="translate(-29.98 19)" xlink:href="#0"/><g style="fill:#4f3622"><path d="m 161.6 52.2 h 10.76 v 11.1 h -10.76 z"/><path d="m 191.9 33.43 h 10.76 v 11.1 h -10.76 z"/><path d="m 196.8 71.86 h 10.76 v 11.1 h -10.76 z"/></g></g><path d="m 59.5 240.9 c -16.67 -8.5 -17.31 -9.42 -12.16 -17.34 5.63 -8.64 11.33 -13.1 15.1 -11.8 1.59 0.56 5.75 -1.23 9.24 -3.97 8 -6.32 11.77 -3.63 16 11.55 3.07 10.97 3 11.16 -5.06 19.51 -4.49 4.63 -8.77 8.4 -9.52 8.36 -0.74 -0.03 -6.85 -2.87 -13.57 -6.3 z" style="fill:#b6b3b8"/></svg>