<svg xmlns="http://www.w3.org/2000/svg" xmlns:xlink="http://www.w3.org/1999/xlink" viewBox="0 0 256 256"><defs><clipPath><path d="m -229.1 1455.9 v 105.8 c 0 0.89 0.71 2.56 1.46 2.56 0.09 -0.84 -0.48 -1.58 0.63 -2.56 h 46.3 h 2.56 h 23 c 4.87 0 8.79 -3.92 8.79 -8.79 v -88.2 c 0 -4.87 -3.92 -8.79 -8.79 -8.79 h -23 h -2.56 z"/></clipPath><clipPath><path d="M 0,0 H384 V384 H0 z"/></clipPath><clipPath><path d="m 16.6 7.24 c -3.12 0 -5.68 2.55 -5.68 5.68 0 2.8 2.05 5.13 4.72 5.59 v 1.96 c -0.38 0.01 -0.68 0.32 -0.68 0.7 v 5.89 c 0 0.39 0.31 0.7 0.7 0.7 h 1.88 c 0.39 0 0.7 -0.31 0.7 -0.7 v -5.89 c 0 -0.38 -0.3 -0.69 -0.68 -0.7 v -1.96 c 2.67 -0.46 4.72 -2.8 4.72 -5.59 0 -3.12 -2.55 -5.68 -5.68 -5.68 z m 0 2 c 2.04 0 3.68 1.63 3.68 3.68 0 2.04 -1.63 3.68 -3.68 3.68 -2.04 0 -3.68 -1.63 -3.68 -3.68 0 -2.04 1.63 -3.68 3.68 -3.68 z"/></clipPath><clipPath><path transform="matrix(15.333 0 0 11.5 415 -125.5)" d="m -24 13 c 0 1.11 -0.67 2 -1.5 2 -0.83 0 -1.5 -0.89 -1.5 -2 0 -1.11 0.67 -2 1.5 -2 0.83 0 1.5 0.89 1.5 2 z"/></clipPath><clipPath><rect rx="2.87" ry="2.78" y="1487.8" x="-149.4" height="24.1" width="8.7" style="fill:#15bfe3;color:#000"/></clipPath><clipPath><path d="m 22.85 7.36 c -3.79 0 -4.5 5.76 -2.37 5.76 2.13 0 6.16 -5.76 2.37 -5.76 z m -5.84 0.89 c -0.06 0 -0.13 0.01 -0.19 0.01 -2.15 0.27 -1.39 3.91 -0.25 3.98 1.11 0.06 2.32 -3.98 0.44 -3.99 z m -3.73 1.34 c -0.13 -0.01 -0.28 0.02 -0.44 0.08 -1.73 0.71 -0.26 3.64 0.7 3.44 0.88 -0.18 1 -3.44 -0.27 -3.52 z m -2.82 2.39 c -0.15 0 -0.31 0.05 -0.49 0.18 -1.38 1.03 0.47 3.53 1.28 3.14 0.71 -0.34 0.26 -3.27 -0.79 -3.31 z m 8.17 2.38 c -3 -0.05 -6.95 1.47 -7.62 4.52 -0.73 3.3 3 7.89 6.9 7.89 1.92 0 4.13 -1.75 4.54 -3.97 0.32 -1.69 -3.72 -1 -3.57 0.11 0.18 1.34 -0.97 2 -2.09 1.14 -3.58 -2.75 5.92 -4.13 5.29 -7.89 -0.2 -1.17 -1.65 -1.77 -3.45 -1.8 z"/></clipPath><clipPath><rect rx="2.87" ry="2.78" y="1509" x="-149.4" height="24.1" width="8.7" style="fill:#05d562;color:#000"/></clipPath><clipPath><path d="m -247.8 1433 h 144.2 v 148.3 h -144.2 z"/></clipPath><clipPath><rect rx="2.87" ry="2.78" y="1530.2" x="-149.4" height="24.1" width="8.7" style="fill:#dd9201;color:#000"/></clipPath><clipPath><rect rx="17" y="1646.1" x="462.5" height="234.4" width="246.9" style="fill:#4d4d4d;color:#000"/></clipPath><clipPath><rect width="8.7" height="24.1" x="-149.4" y="1509" ry="2.78" rx="2.87" style="fill:#05d562;color:#000"/></clipPath><clipPath><rect width="8.7" height="24.1" x="-149.4" y="1487.8" ry="2.78" rx="2.87" style="fill:#15bfe3;color:#000"/></clipPath><clipPath><rect width="8.7" height="24.1" x="-149.4" y="1530.2" ry="2.78" rx="2.87" style="fill:#dd9201;color:#000"/></clipPath><clipPath><rect width="246.9" height="234.4" x="462.5" y="1646.1" rx="17" style="fill:#4d4d4d;color:#000"/></clipPath><linearGradient xlink:href="#0" id="5" gradientUnits="userSpaceOnUse" y1="87.1" x2="0" y2="-92.9"/><linearGradient xlink:href="#0" id="7" gradientUnits="userSpaceOnUse" y1="72.1" x2="0" y2="2.13"/><linearGradient xlink:href="#2" id="4" gradientUnits="userSpaceOnUse" y1="67.1" x2="0" y2="-2.88"/><linearGradient xlink:href="#2" id="6" gradientUnits="userSpaceOnUse" x1="-69.96" y1="-2.77" x2="-69.2" y2="-71.8"/><linearGradient id="0"><stop style="stop-color:#014b7a"/><stop offset="1" style="stop-color:#039eff"/></linearGradient><linearGradient xlink:href="#1" id="3" gradientUnits="userSpaceOnUse" x1="28.38" y1="-10.24" x2="39.55" y2="-76.2"/><linearGradient id="1"><stop style="stop-color:#63983f"/><stop offset="1" style="stop-color:#a7ff69"/></linearGradient><linearGradient xlink:href="#1" id="8" gradientUnits="userSpaceOnUse" y1="107.1" x2="0" y2="-102.9"/><linearGradient id="2"><stop style="stop-color:#d83b38"/><stop offset="1" style="stop-color:#f37370"/></linearGradient></defs><path d="m 66.6 30.3 c 59.1 -58.5 113.7 -15.66 158.5 30.84 c 36.52 37.86 38.2 72.98 13.98 110.2 c -63.2 97.2 -145.2 133.2 -231.2 -17.52 c -21.2 -49.71 23.52 -96 58.64 -123.5" style="fill:#e3edef"/><g transform="matrix(0.645 -0.014 0.015 0.596 139.7 127.9)" style="enable-background:new;fill-rule:evenodd"><path d="m 52.5,-75.6 -39.2,11.82 v 70.9 h 25 z" style="fill:url(#3)"/><path d="m 23.38,63.1 29.1,9 v -75 z" style="fill:url(#4)"/><path d="m -16.625,119.53 40,-26.8 29,-92.6 v 72 l 31,-20 v -107.4 l -30.8,-20.3 -29,75.5 v -95.9 l -40.2,-26.9 z" style="fill:url(#5)"/><path d="m -85.8,-75.6 39.2,11.82 v 70.9 h -25 z" style="fill:url(#6)"/><path d="m -56.63,63.1 -29.1,9 v -75 z" style="fill:url(#7)"/><path d="m -16.625,119.53 -40,-26.8 -29,-92.6 v 72 l -31,-20 v -107.4 l 30.8,-20.3 29,75.5 v -95.9 l 40.2,-26.9 z" style="fill:url(#8)"/></g></svg>