<svg xmlns="http://www.w3.org/2000/svg" viewBox="0 0 256 256"><path d="m 193.9 31.79 c 226.7 210.7 -241.2 343.5 -189.6 63.75 25.45 -73.82 116.8 -131.4 189.6 -63.75" style="fill:#199a8e"/><path d="m 113.1 232.8 c -9.98 -0.36 -7.65 27.2 -32.74 17.1 l -11.18 -4.52 l 2.59 -4.92 c 13.26 -40.51 -12.3 -84.1 -35.74 -103.1 -18.97 -17.3 0.14 -12.34 16.73 -13.24 16.64 -8.22 34.95 -25.2 32.1 -43.4 -1.09 -7.1 -23 -13.26 -27.1 -17.53 -6.82 -2.21 -8.19 -6.85 -0.36 -12.53 c 7.26 -9.17 16.95 -18.3 9.74 -26 -2.63 -2.66 0.44 -6.25 3.45 -8.37 4.98 -3.52 19.57 -11.89 24.1 -9.15 50 30.36 59.4 -11.47 93.6 19.68 8.75 7.98 24.44 21.62 34.1 34.3 26.91 35.3 -13.35 35.52 -0.17 67.7 3.25 7.93 35.7 25.4 33.51 33.7 -12.74 48.3 -42.2 11.1 -36.9 41.83 2.98 17.22 -22.73 32.54 -47 41 -17.94 6.24 -36.1 -19.93 -58.72 -12.4 z" style="fill:#62c389;opacity:0.93"/><g transform="matrix(0.824 0 0 0.79 -108.5 -17.91)"><path d="m 255.1 197.8 c -12.37 -15.34 -14.93 -34.3 -8.15 -49 8.23 -17.76 24.68 -27.3 44.5 -25.69 26.82 2.13 45.3 28.65 38.51 55.3 -2 7.89 -4.53 12.75 -10 19.33 -21.1 20.1 -47.3 18.72 -64.81 0.12 z" style="fill:#a25839"/><path d="m 171.2 275.1 c -0.36 -20.45 1.11 -50.66 13.46 -67.6 3.36 -4.46 12.41 -10.89 18.51 -13.1 36.61 3.24 58.74 41.7 52.1 58.5 -3.86 7.23 -8.92 13.31 -13.1 15.74 -8.12 4.74 -23.2 8.56 -44 11.17 -8.9 -0.4 -22.49 5.52 -26.94 -4.65 z" style="fill:#a0c83d"/><path d="m 326.9 297.3 c -23 -2.55 -31.56 -4.72 -44.3 -11.23 -16.95 -7.4 -18.94 -25.94 -27.58 -36.3 -1.62 0.38 -0.75 -1.22 2.06 -3.78 36.67 -38.4 79.3 -46.92 109.6 -45.3 1.74 -1.15 1.82 -1.13 1.82 0.58 0 0.98 1.03 4.86 2.3 8.62 6.34 18.87 8.15 30.44 9.38 59.97 8.7 44.8 -23.69 30.55 -53.3 27.48 z" style="fill:#489160;opacity:0.93"/><path d="m 275.3 246.2 c -2.05 -4.7 -4 -8.84 -4.38 -9.21 -14.93 5.27 -21.93 -7.16 -24.39 -6.74 -1.13 0.44 -6.89 2.22 -12.81 3.95 -7.95 2.15 -8.91 5.32 -14.1 -0.79 -4.26 -5 -4.22 -8.32 0.23 -19.4 1.98 -4.91 3.23 -9.53 2.78 -10.25 -7.4 -9.61 -10.63 -9.11 -9.25 -21.5 -0.01 -1.31 -4 -3.86 -10.26 -6.5 -8.86 -3.76 -10.42 -4.97 -11.56 -8.98 -1.77 -6.23 0.69 -8.79 14.1 -14.69 5.82 -2.56 10.58 -5.12 10.58 -5.68 -8.32 -19.1 -8.83 -16.19 7.42 -21.1 0.56 -0.33 -0.31 -3.96 -1.94 -8.1 -5.39 -13.57 -5.9 -16.66 -3.41 -20.5 2.9 -4.47 6.09 -4.41 19.54 0.4 22.2 10.52 18.69 7.26 27.56 -2.65 6.07 4.86 5.43 -2.03 11.91 -15.95 5.16 -11.1 7.37 -12.79 14.3 -11.15 5.4 1.22 6.78 8.62 9.21 14.74 2.11 5.33 4.59 9.69 5.51 9.69 13.66 8.32 11.9 11.97 33 4.85 19.2 -6.52 22.85 -3.1 16.71 15.61 -2 6.12 -3.39 11.91 -3.08 12.86 7.26 9.71 0.67 18.31 18.5 27 8.33 3.09 13.69 5.21 13.84 13.82 0.02 3.67 -5.51 7.47 -17.39 11.95 -4.49 1.7 -8.17 3.36 -8.17 3.69 1.06 13.16 5.41 13.65 -6.41 22.2 -0.49 0.8 0.91 6.61 3.11 12.9 4.44 12.67 3.98 15.38 -3 17.9 -3 1.09 -5.81 0.66 -12.64 -1.95 -14.98 -5.72 -15.2 -5.71 -15.2 1 -4.66 20.94 -7.97 9.18 -19.56 4.57 -0.7 0 -2.8 3.39 -4.66 7.53 -5.4 12 -8.17 15.43 -12.59 15.43 -7.72 -1.52 -10.84 -8.78 -13.58 -15 z m 32.78 -42.1 c 3.21 -1.68 8.77 -6.34 12.34 -10.35 20.1 -38.1 -0.12 -66.1 -32.4 -72.4 -18.55 0.09 -32.58 8.64 -39.95 24.33 -8.48 24.72 0.68 50.8 24 60.1 8.77 3.26 28.3 2.34 36 -1.69 z" style="fill:#ffe046"/><path d="m 276.3 206.5 c -12 -3.23 -22.1 -11.68 -27.78 -23.2 -4.32 -11.91 -4.45 -25.3 0.34 -35.43 3.6 -7.59 9.94 -15 14.43 -16.86 2.72 -1.13 3.27 -1.04 5.16 0.85 2 2 2.06 2.52 1 10.9 -1.76 13.96 0.92 25.1 8.43 34.95 6.56 8.62 21.41 16.33 31.45 16.33 4.35 0 5.97 1.97 3.78 4.59 -10.35 8.39 -25.8 10.7 -36.82 7.82 z" style="fill:#763a26"/><path d="m 66.4 191.1 c -1.5 -1.5 -1.15 -3.23 1.31 -6.47 2.67 -3.51 10.32 -10.97 11.25 -10.97 1.62 0.97 2.38 2.68 3.56 4.22 1.82 2.97 -2.98 6.1 -4.92 8 -5.87 5.83 -9.1 7.32 -11.21 5.19 z" transform="matrix(1.355 0 0 1.368 108.5 -8.52)" style="fill:#489567;opacity:0.93"/><path d="m 331.8 259.9 c -2.45 -1.68 -12.76 -10.18 -14.89 -12.28 3.56 -4.98 2.51 -11.37 7.31 -15 0.01 -2.29 0.03 -2.31 1.01 -0.89 3.22 6.44 29.8 31 25.96 38.71 -2.22 4.37 -15.19 -7.63 -19.39 -10.52 z" style="fill:#a0c83d;opacity:0.93"/><path d="m 104.7 186.6 c -1.63 -3.62 -1.55 -7.28 -3.08 -10.85 -0.35 -0.12 -0.38 -0.44 -0.06 -0.84 1.87 -5.74 2.69 -11.49 4.89 -17.48 1.05 -2.81 1.91 -5.52 1.91 -6 0 -1.7 -1.74 -1.6 -7.17 0.4 -7.12 3.57 -10.53 1.82 -17.1 4.29 -3.44 -0.6 -13.53 -1.29 -13.71 -4.67 0.5 -8.25 4.94 -6.38 5.96 -10.53 3.24 -4.4 11.23 -7.62 15.55 -9.63 6.34 -2.87 6.43 -2.92 6.43 -4.27 0 -0.85 -0.92 -1.52 -3.77 -2.77 -5.09 -2.22 -8.69 -4.19 -12.35 -6.76 -8.95 -7.53 -10.85 -16.65 -3.23 -17.84 2.48 -0.31 4.77 -0.77 5.08 -1.03 0.83 -0.67 12.1 1.78 17.52 3.82 7.85 2.94 8.41 2.42 5.53 -5.13 -1.08 -2.83 -2.39 -7.29 -2.91 -9.9 0.84 -4.05 -1.36 -19.96 3.81 -20.1 13.63 -0.57 17.37 19.2 24.37 27.1 1.19 0 1.6 -0.6 3.22 -4.62 1.02 -2.54 3.23 -6.86 4.92 -9.58 0.86 -3.78 11.83 -12.29 14.49 -12.32 3.04 0.02 3.9 1.28 4.5 6.7 2.16 7.84 2.33 4.35 0.54 12 -0.94 4.53 -2.64 10 -3.9 12.56 -1.01 2.03 -1.46 4.64 -0.93 5.46 0.35 0.55 1.71 0.25 6 -1.3 8.29 -3 15.47 -4.4 18.96 -3.67 3.15 1.11 10.6 0.55 11.68 3.54 0.74 4.79 -3.9 6.58 -5.26 10.32 0 1.43 -8.56 7.08 -15.82 10.45 -7.3 3.38 -7.26 3.99 0.48 7.87 10.69 4.23 14.8 9.12 20.3 18.59 1.33 6.49 -13.76 5.95 -16.57 5.49 -4.87 -0.66 -8.19 -1.58 -13.74 -3.8 -4.95 -1.98 -5.6 -2.12 -6.37 -1.36 -0.77 0.77 -0.67 1.3 0.88 5.22 2.03 5.13 4 12.1 4 14.1 2.74 22 -6.44 19.1 -14 11.66 -0.28 -0.04 -0.74 -0.1 -1.02 -0.14 -0.85 -0.12 -6 -8.42 -9.25 -14.85 -2.98 -5.94 -4.17 -7.31 -5.2 -6 -0.29 0.37 -1.79 3.31 -3.35 6.53 -1.17 4.88 -6.52 8.55 -7.43 13.37 -4.91 4.52 -10.81 6.4 -12.85 7.3 -0.88 -0.25 -1.45 -0.8 -1.94 -1.36 z m 34.67 -27.98 c 6.15 -1.29 10.36 -3.74 15.1 -8.78 6.92 -7.36 9.56 -14.4 9.1 -24.2 -1.57 -20.61 -29.49 -31.82 -41.91 -28.52 -11.58 3.57 -21.1 14.62 -21.96 25.45 -0.53 6.79 0.55 14.69 2.55 18.76 2.62 5.33 9.94 12.39 16.1 15.57 4.57 2.34 14.26 3.13 21 1.7 z" transform="matrix(1.355 0 0 1.368 108.5 -8.52)" style="fill:#fcb54c"/></g></svg>