<svg xmlns="http://www.w3.org/2000/svg" viewBox="0 0 256 256"><path d="m 10.66 103.9 c 25.5 -170.7 287.7 -112.4 238.1 52.8 -33.3 157 -301.6 114.5 -238.1 -52.8" style="fill:#cd87de"/><path d="m 103.2 213.5 c -24.39 -4.42 -48.66 -22 -61.2 -44.4 -11.64 -19.2 -13.38 -46.3 -8.73 -66.5 7.23 -30.75 32.54 -56.5 64 -65.2 c 19.1 -4.78 42.94 -2.19 58.6 3.93 20 8.37 37.78 25.51 47 45.4 10.94 26.44 9.85 55.72 -1.11 78.2 -12.4 25.1 -37.1 43.96 -63.6 48.6 -14.99 1.75 -24.69 1.57 -35.1 -0.01 z m 27.86 -52.1 c 6.48 -1.72 11.45 -4.67 16.65 -9.88 7.77 -7.77 10.88 -15.42 10.88 -26.77 0 -11.38 -3.11 -19.1 -10.84 -26.81 -7.73 -7.73 -15.42 -10.84 -26.81 -10.84 -10.57 0 -18.53 2.99 -25.78 9.68 -8.13 7.51 -11.9 16.22 -11.88 27.5 0.01 11.9 3 19.47 10.85 27.2 10.1 9.78 24.39 12.73 36.93 9.88 z m -15.4 -10.86 c -7.8 -1.71 -14.89 -7.39 -18.47 -14.81 -3.26 -7.54 -3 -15.69 0 -21.95 2.71 -5.62 7.75 -10.57 13.38 -13.1 6.91 -2.47 14.41 -2.84 20.57 -0.06 5.74 2.63 10.83 7.58 13.51 13.1 3 7.29 3.34 14.81 0.37 21.43 -2.39 5.26 -8.43 11.31 -13.53 13.57 -5.1 1.35 -10.89 2.8 -15.84 1.82 z m 10.27 -14.8 c 3.37 -1.53 5.62 -4.15 6.73 -7.84 2.89 -9.63 -7.91 -18.69 -16.84 -14.1 -6.16 3.14 -8.63 9.35 -6.11 15.38 2.98 6.73 10.52 9.1 16.22 6.59 z" transform="matrix(0.829 0 0 0.826 26.5 24.55)" style="fill:#fff"/></svg>