<svg xmlns="http://www.w3.org/2000/svg" viewBox="0 0 256 256"><path d="m 6.74 158.1 c 78.6 237.9 391.8 -17.49 170.6 -138.4 -86.5 -51.83 -211.1 16.1 -170.6 138.4" style="fill:#336791"/><rect width="77.1" height="72.81" x="107.3" y="125.2" rx="26.78" ry="13.41" style="fill:#92b9d8"/><g style="fill:#fff"><path d="m 112.1 197.9 c -1.92 -0.75 -8.89 -3.36 -7.32 -6.19 0.45 -0.69 1.08 -0.49 3.11 1.02 9.92 7.37 39.7 10.32 62.4 6.18 7.57 -1.38 14.48 -3.72 17.9 -6 2.13 -1.45 2.6 -1.52 2.6 -0.39 0 2.71 -10.43 7.71 -19.51 9.35 -3.36 0.61 -22.32 2.44 -24.1 2.33 -11.66 -1 -25.45 -2.21 -35 -6.26 z m -52.66 -9.21 c 0.38 -6.2 -0.82 -16.39 0.24 -21.1 3.86 0.15 11.44 -0.02 21 -0.02 14.96 0 17.57 0.14 18.46 0.99 1.34 6.71 2.11 11.56 0.64 19.51 -0.35 0.88 -2.66 1 -19.1 1 -10.26 0 -17.77 -0.19 -21.29 -0.42 z m 77.5 -11.63 c -19.95 -1.9 -32.73 -6.69 -32.73 -12.27 0 -2.21 0.54 -2.22 3.88 -0.08 3.86 2.49 11.6 4.98 19.92 6.43 8.64 1.5 30.85 1.51 39.5 0.02 8.1 -1.39 14.27 -3.24 18.51 -5.5 4.46 -2.38 5.08 -2.36 4.55 0.15 -0.55 2.63 -1.38 3.51 -5 5.25 -16.1 4.97 -33.83 7.25 -48.64 5.99 z m -77.2 -13.79 c -0.36 -6.99 -0.1 -12.34 0.04 -19.73 l 20.62 0.2 c 14.6 0.14 18.92 0.01 19.33 0.63 0.62 0.93 0.75 17.6 0.15 19.1 -0.35 0.88 -2.67 1 -19.2 1 -14.77 0 -17.4 -0.91 -20.95 -1.18 z m 78.2 -14.35 c -18.1 -1.4 -32.1 -6.16 -33.46 -11.36 -2.56 -9.77 15.2 -16.7 42.89 -16.72 22.46 -0.02 38.84 4.29 42.73 11.24 1.16 2.07 0.89 6.1 -0.53 7.82 -2.51 3.05 -10.31 5.88 -21.55 7.82 -5.2 0.9 -24.2 1.66 -30.1 1.21 z m -77.7 -9 c -0.96 -8.14 -0.48 -20.65 -0.48 -20.65 l 20.26 -0.17 c 13 -0.11 18.7 0.04 19.34 0.55 1.21 0.96 1.32 18.89 0.11 20 -0.92 0.88 -37.8 1.09 -39.2 0.23 z m 0 -24.92 c 0.38 -6.2 -1.92 -13.84 0.61 -19.6 10.61 -0.13 29.1 0.3 38.63 -0.36 1.11 1.06 1.11 18.92 0 19.98 -15.27 -0.11 -23.93 0.81 -39.2 -0.03 z m 0.49 -24 c -1.11 -1.06 -1.11 -20.82 0 -21.88 0.58 -0.56 5.98 -0.76 20.1 -0.76 18.45 0 19.38 0.06 20 1.22 0.9 1.6 0.9 19.35 0 20.95 -0.65 1.17 -1.58 1.22 -20 1.22 -14.17 0 -19.56 -0.2 -20.1 -0.76 z m 43.64 -0.63 c -0.81 -4.11 -1.98 -19.38 0.49 -20.72 0.84 -0.43 14.78 -0.65 40.66 -0.65 38.5 0 39.4 0.03 40.71 1.26 1.35 4.67 -0.09 10.32 0.29 19.46 l -1.03 1.41 h -40.2 c -30.36 0 -40.4 -0.19 -40.96 -0.76 z" transform="matrix(0.927 0 0 0.926 9.17 10.81)" style="fill:#fff"/></g><rect width="79.3" height="19.64" x="104.6" y="98.9" rx="2.87" ry="9.82" style="fill:#92b9d8"/></svg>