<svg xmlns="http://www.w3.org/2000/svg" viewBox="0 0 256 256"><path d="m 10.72 151.6 c 25.5 170.7 287.7 112.4 238.1 -52.8 -33.3 -157 -301.6 -114.5 -238.1 52.8" style="fill:#221e1f"/><g style="fill:#fff"><path d="m 76.6 66.3 h 21.64 v 21.64 h -21.64 z"/><path d="m 101.8 66.7 h 21.64 v 21.64 h -21.64 z"/><path d="m 128 66.1 h 21.64 v 21.64 h -21.64 z"/><path d="m 153.4 66.5 h 21.64 v 21.64 h -21.64 z"/><path d="m 153.9 93 h 21.64 v 21.64 h -21.64 z"/><path d="m 153.9 119.2 h 21.64 v 21.64 h -21.64 z"/><path d="m 154.3 144.4 h 21.64 v 21.64 h -21.64 z"/><path d="m 153.9 171.3 h 21.64 v 21.64 h -21.64 z"/><path d="m 76.6 171 h 21.64 v 21.64 h -21.64 z"/></g><path d="m 76.2 144.7 h 21.64 v 21.64 h -21.64 z" style="fill:#e54204"/><g style="fill:#fff"><path d="m 75.88 118.5 h 21.64 v 21.64 h -21.64 z"/><path d="m 75.88 92.6 h 21.64 v 21.64 h -21.64 z"/></g><path d="m 102.1 144.4 h 21.64 v 21.64 h -21.64 z" style="fill:#24e13f"/><path d="m 128.7 144.4 h 21.64 v 21.64 h -21.64 z" style="fill:#302de7"/><path d="m 91.2 144.7 h 6.7 v 21.64 h -6.7 z" style="fill:#ffd700"/><path d="m 143.4 144.4 h 6.7 v 21.64 h -6.7 z" style="fill:#9370db"/><path d="m 116.4 144.4 h 6.99 v 21.64 h -6.99 z" style="fill:#00ced1"/></svg>