<svg xmlns="http://www.w3.org/2000/svg" viewBox="0 0 256 256"><path d="m 6.19 100.6 c 78.6 -237.9 391.8 17.49 170.6 138.4 -86.5 51.83 -211.1 -16.1 -170.6 -138.4" style="fill:#f5f5f5"/><g transform="matrix(0.668 0 0 0.647 12.37 30.78)"><path d="m 52.76 262.2 c 0 37.71 -33.1 68.3 -73.97 68.3 -40.85 0 -73.97 -30.57 -73.97 -68.3 0 -37.71 33.1 -68.3 73.97 -68.3 40.85 0 73.97 30.57 73.97 68.3 z" transform="matrix(1.65 0 0 1.784 199.1 -308)" style="fill:#cccdcd"/><path d="m 180.6 276.9 c -1.13 -1.24 -4.2 -5.51 -6.82 -9.5 -4.11 -6.24 -5.35 -7.41 -8.87 -8.39 -2.26 -0.62 -5.93 -1.97 -8.17 -3 -2.24 -1.02 -4.59 -1.86 -5.23 -1.86 -1.96 0 -15.52 -4.78 -22.71 -8 l -6.81 -3.06 l -6.59 2.14 c -3.63 1.18 -8.17 3.04 -10.1 4.15 -4.67 2.67 -11.67 4.74 -16.1 4.76 -3.17 0.01 -4.55 -0.93 -11.37 -7.74 -9.7 -9.69 -15.38 -17.58 -20.8 -28.91 -4 -8.39 -4.22 -9.29 -4.15 -17.57 0.07 -7.96 0.42 -9.45 3.96 -16.99 2.36 -5 3.84 -9.63 3.79 -11.77 -0.05 -1.93 -0.39 -13.57 -0.75 -25.86 l -0.66 -22.35 l -2.96 -2.49 c -3.88 -3.27 -3.77 -5.85 0.64 -14.64 11.1 -22.2 27.65 -40 47.56 -51.3 9.53 -5.42 12.44 -6.17 13.3 -3.46 0.36 1.12 0 3.29 -0.79 4.83 -1.72 3.34 -5.2 22.47 -4.44 24.43 0.29 0.75 2.72 2 5.4 2.78 2.68 0.77 10 3.59 16.37 6.25 6.32 2.66 11.99 4.84 12.59 4.84 1.41 0 43.5 -13.72 45.3 -14.79 1.46 -0.84 6 -15.1 6.07 -18.88 0.03 -3.11 -6.84 -8.61 -16.55 -13.25 -8.55 -4.08 -10.55 -5.77 -8.43 -7.08 2.4 -1.48 20 1.62 32 5.63 8.42 2.82 24.2 10.81 26.61 13.49 0.87 0.96 1.26 2.28 0.86 2.93 -0.72 1.17 -1.34 1.14 -17.1 -0.62 -7.21 -0.81 -6.84 -1.21 -10.34 11.35 -1.85 6.63 -2.08 8.72 -1.16 10.5 0.63 1.22 7.58 10.1 15.45 19.69 12.89 15.75 14.69 17.56 18.25 18.35 2.17 0.48 8.62 2.21 14.33 3.84 5.71 1.63 10.73 2.6 11.16 2.15 1.2 -1.26 3.96 -11.34 3.96 -14.45 0 -3.97 2.07 -8 3.93 -7.64 1.99 0.38 4.29 5.12 7.44 15.28 3.35 10.81 4.29 15.81 5.76 30.67 1.09 11 1.04 14.42 -0.41 26 -2.08 16.65 -3.15 20.47 -6.16 22.1 -1.3 0.69 -4.61 4.64 -7.36 8.76 -2.75 4.13 -6.78 9.53 -8.94 12 -5.27 6 -5.89 7.4 -6.75 14.99 -0.97 8.53 -1.88 10.74 -6.3 15.32 -11.13 11.53 -31.41 22.2 -50.85 26.72 -11.1 2.58 -14.48 2.53 -17 -0.29 z m -1.9 -36 c 4.48 -3.99 12.77 -11.1 18.42 -15.75 l 10.27 -8.5 l -0.61 -7.7 c -0.72 -9.1 -4.89 -28.3 -6.76 -31.1 -0.89 -1.33 -8.53 -4.46 -23.77 -9.71 -12.35 -4.26 -23.2 -8.1 -24.1 -8.45 -1.22 -0.52 -6.25 3.4 -19.25 14.99 -9.68 8.63 -17.59 16.2 -17.59 16.82 0 5.65 8.12 37.45 10.54 41.3 1.7 2.68 15.97 8.71 28.46 12 5.22 1.39 9.69 2.71 9.92 2.94 0.23 0.23 1.75 0.41 3.38 0.41 2.26 0 4.89 -1.72 11.1 -7.25 z m 74.5 -29.72 c 5.78 -6.95 9.79 -12.69 13.36 -19.1 2.17 -3.92 2.66 -6.43 3.27 -16.65 0.74 -12.43 0.36 -15.51 -3.63 -29.36 -2.03 -7 -2.19 -7.18 -10.9 -9.76 -4.47 -1.32 -18.83 -5.11 -19.37 -5.11 -0.22 0 -3.69 5.29 -7.7 11.75 -4 6.46 -9.96 15.73 -13.21 20.61 -4.19 6.28 -5.75 9.48 -5.37 11 0.3 1.18 1.49 5.9 2.65 10.48 1.16 4.58 2.87 12.91 3.8 18.5 l 1.69 10.17 l 8.5 1.65 c 4.68 0.91 11.52 1.7 15.21 1.75 l 6.71 0.1 l 4.97 -5.97 z m -127 -43.52 c 8.81 -7.97 16.36 -15 16.78 -15.73 0.81 -1.31 0.54 -45.2 -0.3 -47.4 -0.86 -2.23 -30.98 -14.42 -35.64 -14.42 -3.81 0 -28.43 20.8 -34.8 29.4 l -2.89 3.9 l 0.07 17.1 c 0.04 9.4 0.38 19.1 0.75 21.6 0.63 4.2 1.04 4.7 6.18 7.46 6.87 3.7 28.76 12.29 31.67 12.43 1.47 0.07 7.34 -4.57 18.2 -14.38 z" style="fill:#474c4f"/></g></svg>