<svg xmlns="http://www.w3.org/2000/svg" viewBox="0 0 256 256"><path d="m 14.74 81.4 c -95.2 309.5 415.9 154.8 177 -57.3 -47.88 -42.49 -151.3 -26.2 -177 57.3" style="fill:#e8e8fe"/><path d="m 82.4 189.3 c -8.26 -3.83 -12.81 -8.95 -14.8 -16.7 -3.53 -13.69 7.53 -29.2 30.94 -43.3 l 4.48 -2.71 c 0.56 -6 0.38 -12.1 1.26 -18.1 0.48 -2.99 -0.98 -4 -7.09 -5 -10.28 -1.65 -14.94 -5.33 -13.88 -10.95 0.9 -4.76 5.64 -6.69 10.98 -4.48 3.44 1.42 9 2.12 10.29 1.29 0.7 -0.46 1.26 -3.31 1.72 -8.76 0.8 -9.5 1.58 -11.86 4.42 -13.32 3.29 -1.69 5.77 -1.34 8.33 1.2 3.57 2.63 2.04 6.41 1.8 10.43 -0.59 9.68 -0.71 9.56 7.26 7.79 5.89 -1.3 8.13 -0.97 10.3 1.54 1.84 2.12 2.19 4.71 1.03 7.48 -6.08 7.08 -11.43 3.94 -19.53 7.81 -1.1 0.82 -2.14 13.93 -1.19 14.88 0.46 0.46 3.66 -0.32 8.85 -2.13 10.76 -3 21 -5.16 30.36 -0.85 8.24 3.84 14.66 11.56 17.5 21.1 1.81 6 1.83 18.37 0.05 24.92 -2.23 8.18 -6.22 15.21 -12.26 21.6 -6.23 6.59 -9.32 8.16 -13 6.64 -2.94 -1.21 -4.41 -3.43 -4.41 -6.65 0 -2.25 0.76 -3.41 5.28 -8 8.69 -8.91 12.71 -19.84 11.2 -30.49 -1.59 -11.21 -7.68 -17.23 -17.47 -17.26 -4.91 -0.02 -15 3 -22.95 6.9 -5.56 2.72 -5 1.31 -7.16 17.95 -3.5 26.97 -10.96 39.1 -23.99 39.1 -3.07 -0.17 -6.1 -0.8 -8.33 -1.83 z m 10.96 -14.22 c 2.33 -2.95 4.38 -9.1 6.17 -18.55 2.33 -12.31 1.1 -12.89 -8.56 -4.06 -10.97 10 -12.34 18 -3.95 23.1 3.11 1.88 4.53 1.77 6.34 -0.51 z m 75.3 -67.4 c -1.37 -1.17 -2.09 -2.68 -2.39 -5 -0.64 -4.94 -2.46 -6.9 -10 -10.78 -5.6 -2.88 -6.99 -3.94 -7.87 -6 -1.27 -3 -0.78 -5.54 1.49 -7.65 3.11 -2.91 5.45 -2.73 12.86 0.95 12.45 6.2 17.5 12.51 17.52 21.87 0.01 3.99 -0.27 4.96 -1.83 6.51 -2.45 2.44 -7 2.51 -9.76 0.15 z" style="fill:#6563ff"/></svg>