<svg xmlns="http://www.w3.org/2000/svg" viewBox="0 0 256 256"><path d="m 211.2 37.67 c 201.8 265.7 -353.6 303.4 -175.4 32.2 40.63 -61.83 121.9 -102.6 175.4 -32.2" style="fill:#1693d1"/><path d="m 48.2 194.9 c 0.04 -0.37 1.96 -3.38 4.28 -6.69 16.68 -24.61 31.2 -46.5 46.1 -70.4 8.8 -14.1 12.23 -19.2 13 -19.2 0.24 0 2.26 1.18 4.48 2.63 8.09 5.25 12.1 6.95 12.24 5.23 0.04 -0.4 -3.21 -3.73 -7.21 -7.4 -4 -3.67 -7.27 -6.82 -7.25 -6.99 0.94 -1.59 2 -2.75 2.98 -4.39 6.39 -11.41 11.46 -21.2 18.64 -34.66 1 -0.89 2.65 1.41 3.45 4.78 2.48 10.52 20.76 56.1 34.75 86.6 3.98 8.69 7.2 16.25 7.15 16.79 -0.15 1.57 -2.05 1.21 -8.19 -1.55 -5.41 -2.43 -7.83 -2.03 -7.92 -1.05 -0.1 1.01 6.78 4.6 13.53 9.12 9.69 6.5 10 8.39 14.83 18.94 4.59 10.1 4.45 10.44 -2.41 6.41 -10.42 -6.12 -22.6 -11.71 -38.1 -17.5 -5.65 -2.1 -10.44 -4 -10.63 -4.22 2.93 -11.53 0.99 -24.2 -5.09 -31.63 -5.18 -5.11 -11.84 -5.62 -16.75 -0.48 -10.16 9.84 -11.28 18.1 -12.71 31.1 l -0.19 1.81 l -7.78 2.41 c -15.1 4.69 -36.4 13.48 -46.55 19.25 -3.21 1.82 -4.75 2.17 -4.64 1.06 z m 123.7 -25.82 c -9.38 -6.51 -15.27 -11.55 -15.1 -12.97 0.12 -1.23 1.38 -2.4 2.95 -2.74 0.94 -0.2 3.67 -0.51 6.08 -0.67 5.5 -0.38 5.72 -0.87 2.77 -6.14 -2.08 -3.71 -25.2 -59.5 -30.48 -73.6 -1.62 -4.31 -2.97 -7.16 -3.35 -7 -5.75 9.13 -8.77 16.1 -14.1 24.2 l 1.15 1.52 c 0.63 0.84 3.1 3.83 5.48 6.65 8 9.52 8.82 11.37 5.46 12.89 -1.27 0.57 -2.15 0.6 -4.6 0.14 -3 -0.56 -9.97 -3.69 -12.55 -5.64 -0.74 -0.56 -1.71 -0.88 -2.16 -0.71 -0.45 0.16 -2.23 2.61 -3.96 5.43 -8 12.84 -16.33 25.67 -24.27 38.1 -4.85 7.56 -11.62 17.82 -15.1 22.81 -3.43 4.99 -6.27 9.31 -6.3 9.61 10.81 -3.45 16.1 -5.84 26.78 -9.87 4.3 -1.61 7.93 -3.28 8.63 -3.96 0.9 -0.89 1.39 -2.17 1.96 -5.14 1.61 -8.42 8.43 -21.54 13.76 -26.45 6.42 -5 13.87 -7 19.57 -4.13 6.18 3.22 8.87 6.44 12.1 14.51 2.08 5.19 2.55 7.86 2.69 15.1 0.06 3.57 0.29 6.66 0.51 6.85 0.21 0.2 3.12 1.35 6.45 2.56 3.33 1.21 10.84 4.51 16.68 7.33 7 3.38 15 7.42 14 5.99 -3.55 -9 -11.34 -11.96 -15.1 -14.57 z"/></svg>