<svg xmlns="http://www.w3.org/2000/svg" viewBox="0 0 256 256"><path d="m 44.83 218.9 c -201.8 -266.4 353.6 -304.2 175.4 -32.3 c -40.64 61.98 -121.9 102.9 -175.4 32.3" style="fill:#9acd30"/><g style="fill:#fff"><path d="m 120.4 58.4 c -0.2 -1.47 0.26 -2.75 1.39 -3.85 l 13.1 -12.69 c 1.38 -1.59 3.3 -1.89 5.11 -2.51 c 0.06 0 0.26 -0.02 0.58 -0.06 c 6 -0.04 12.44 1.84 17.54 3.68 c 11.76 5.06 21.98 12.92 29.98 20.81 c 7.8 7.28 13.64 15.44 18.66 23.92 c 3.96 6.74 5.64 14.41 6.39 21.3 c -0.08 1.15 -0.1 1.8 -0.1 1.91 c -0.14 0.91 -0.44 1.82 -0.88 2.75 c -4 5.46 -9.72 10.14 -14.74 15.1 c -0.92 0.89 -1.96 1.36 -3.12 1.36 c -0.86 0 -1.62 -0.24 -2.26 -0.72 c -0.66 -0.48 -1.22 -1.08 -1.68 -1.79 l -10.49 -19.52 c -0.6 -1.02 -0.76 -2.16 -0.5 -3.36 c 0.26 -1.23 0.82 -2.25 1.68 -3.08 c 1.85 -1.57 3.64 -3.71 5.13 -5.35 c 0.1 -0.28 0.14 -0.52 0.14 -0.72 c -1.88 -6.92 -7.55 -12.99 -12.35 -17.89 c -4 -4.32 -8.65 -7.5 -13.59 -10.48 c -1.54 -0.76 -2.72 -1.25 -3.54 -1.39 l -1.22 -0.24 c -2.77 1.25 -5 4.12 -6.87 6.1 c -1.18 1.04 -2.54 1.54 -4.13 1.54 c -1.1 0 -1.98 -0.18 -2.64 -0.57 h -0.11 l -18.94 -10.96 c -1.38 -0.84 -2.2 -1.89 -2.46 -3.18"/><path d="m 105.1 156.3 v -59.6 c 0 -2.2 0.75 -4 2.25 -5.48 c 1.5 -1.47 3.45 -2.21 5.81 -2.21 c 2.36 0 4.29 0.69 5.75 2.04 c 1.5 1.38 2.26 3.25 2.26 5.65 v 22.28 l 26.35 -27.1 c 1.86 -1.93 3.93 -2.9 6.23 -2.9 c 2.14 0 3.98 0.7 5.54 2.1 c 1.61 1.36 2.41 3.16 2.41 5.39 c 0 1.28 -0.4 2.52 -1.24 3.75 c -0.84 1.19 -2.18 2.68 -4 4.45 l -20.24 19.21 l 24.73 24.93 c 1.44 1.3 2.54 2.56 3.31 3.79 c 0.8 1.21 1.2 2.55 1.2 4 c 0 2.32 -0.8 4.11 -2.41 5.33 c -1.6 1.21 -3.58 1.8 -5.96 1.8 c -1.4 0 -2.66 -0.37 -3.8 -1.09 c -1.12 -0.74 -2.56 -1.97 -4.3 -3.7 l -27.77 -28.96 v 26.31 c 0 2.1 -0.74 3.87 -2.25 5.29 c -1.5 1.43 -3.42 2.15 -5.77 2.15 c -2.32 0 -4.27 -0.69 -5.81 -2.04 c -1.5 -1.36 -2.25 -3.16 -2.25 -5.41"/><path d="m 65.7 185.4 l 10.3 10.29 l 16.66 -10.78 l 13.23 5.61 l 4.4 18.45 l 14.21 -0.13 l 3.91 -18.91 l 13.23 -5 l 16.66 10.29 l 7.85 -10.29 l -18.92 -17 c -48.5 42.5 -90.3 -22.96 -48.7 -50.3 v -9.82 l -4.91 2.34 l -15.2 -9.22 l -10.5 8.23 l 9.51 15.5 l -5.39 12.63 l -18.56 2.93 l -0.06 13.43 l 19.1 4.68 l 5.26 12.28 l -12.13 14.84" style="fill-rule:evenodd"/></g></svg>