<svg xmlns="http://www.w3.org/2000/svg" viewBox="0 0 256 256"><path d="m 32.73 195.9 c -161.2 -254.4 346.6 -266.4 194 -4.15 c -40.4 67.5 -135.2 100.4 -194 4.15" style="fill:#708090"/><path d="m 117.9 208.2 v -5.63 l -5.21 -0.34 l -5.21 -0.34 l -0.35 -5.11 l -0.35 -5.11 l -5.21 -0.34 l -5.21 -0.34 l -0.35 -5.11 l -0.35 -5.11 l -5.21 -0.34 l -5.21 -0.34 l -0.35 -5.11 l -0.35 -5.11 l -5.21 -0.34 l -5.21 -0.34 l -0.35 -5.11 l -0.35 -5.11 l -5.21 -0.34 l -5.21 -0.34 l -0.35 -10.57 l -0.35 -10.57 l -5.21 -0.34 l -5.21 -0.34 v -26.3 v -26.3 l 5.21 -0.34 l 5.21 -0.34 l 0.35 -5.11 l 0.35 -5.11 l 5.21 -0.34 l 5.21 -0.34 l 0.35 -5.11 l 0.35 -5.11 l 5.21 -0.34 l 5.21 -0.34 l 0.35 -5.11 l 0.35 -5.11 h 43.4 h 43.4 l 0.35 5.11 l 0.35 5.11 l 5.21 0.34 l 5.21 0.34 l 0.35 5.11 l 0.35 5.11 l 5.21 0.34 l 5.21 0.34 l 0.35 5.11 l 0.35 5.11 l 5.21 0.34 l 5.21 0.34 v 26.3 v 26.3 l -5.21 0.34 l -5.21 0.34 l -0.35 10.57 l -0.35 10.57 l -5.21 0.34 l -5.21 0.34 l -0.35 5.11 l -0.35 5.11 l -5.21 0.34 l -5.21 0.34 l -0.35 5.11 l -0.35 5.11 l -5.21 0.34 l -5.21 0.34 l -0.35 5.11 l -0.35 5.11 l -5.21 0.34 l -5.21 0.34 l -0.35 5.11 l -0.35 5.11 l -5.21 0.34 l -5.21 0.34 v 5.63 v 5.63 h -10.77 h -10.77 v -5.63 z m -0.5 -92.7 l 0.19 -10.74 h 5.51 h 5.51 l 0.2 5.28 l 0.2 5.28 l 5.35 0.2 l 5.35 0.2 l 0.2 5.26 l 0.2 5.26 h 5.21 h 5.21 v -5.11 v -5.11 l -5.35 -0.2 l -5.35 -0.2 l -0.2 -5.26 l -0.2 -5.26 l -5.38 -0.2 l -5.38 -0.2 v -5.4 v -5.4 l 5.38 -0.2 l 5.38 -0.2 l 0.2 -5.26 l 0.2 -5.26 l 5.35 -0.2 l 5.35 -0.2 v -5.11 v -5.11 h -5.21 h -5.21 l -0.2 5.26 l -0.2 5.26 l -5.35 0.2 l -5.35 0.2 l -0.2 5.28 l -0.2 5.28 h -5.51 h -5.51 l -0.19 -10.74 l -0.19 -10.74 h -5.21 h -5.21 l -0.18 26.3 c -0.1 14.44 -0.03 26.65 0.16 27.1 0.25 0.64 1.75 0.83 5.39 0.68 l 5 -0.2 l 0.19 -10.74 z" transform="matrix(0.931 0 0 0.91 8.47 12.76)" style="fill:#002ac8"/></svg>