<svg xmlns="http://www.w3.org/2000/svg" viewBox="0 0 256 256"><path d="m 254.8 127.3 c 19.29 -169.5 -256.8 -167.1 -253.6 3 -9.13 158.3 268.5 172.5 253.6 -3" style="fill:#00c00f"/><rect width="252.2" height="171.9" x="1.71" y="61.2" ry="27.45" rx="26.84" transform="matrix(0.602 0 0 0.588 56.6 49.78)" style="fill:#824b15"/><g style="fill:#def707"><path d="m 120.5 130.7 c -3.32 -3.29 -2.98 -6.81 0.88 -9 2.44 -1.41 4.8 -1.66 20.37 -2.15 9.69 -0.31 19.32 -0.59 21.4 -0.62 4.82 -0.08 4.87 -1.05 0.37 -6.55 -5.47 -6.68 -6.16 -7.92 -6.16 -11.1 0 -5.44 5.62 -6.93 11.24 -2.96 1.28 0.9 5.83 5.61 10.13 10.48 13.76 15.59 14.2 16.42 10.25 21.49 l -2.14 2.77 h -31.98 h -31.98 l -2.39 -2.36 z"/><path d="m 186.4 142.7 c 3.32 3.29 2.98 6.81 -0.88 9 -2.44 1.41 -4.8 1.66 -20.37 2.15 -9.69 0.31 -19.32 0.59 -21.4 0.62 -4.82 0.08 -4.87 1.05 -0.37 6.55 5.47 6.68 6.16 7.92 6.16 11.1 0 5.44 -5.62 6.93 -11.24 2.96 -1.28 -0.9 -5.83 -5.61 -10.13 -10.48 -13.76 -15.59 -14.2 -16.42 -10.25 -21.49 l 2.14 -2.77 h 31.98 h 31.98 l 2.39 2.36 z"/></g><g style="fill:#ac835a;fill-opacity:0.98"><rect rx="72.85" ry="59.6" y="61.2" x="1.71" height="171.9" width="252.2" transform="matrix(0.222 0 0 0.271 45.2 96.1)" style="fill-opacity:0.98"/></g><path d="m 69.1 142.9 a 10.32 8.1 0 1 1 -20.64 0 10.32 8.1 0 1 1 20.64 0 z" transform="matrix(1.045 0 0 1.272 21.32 -44.65)" style="fill:#def707;fill-opacity:1"/></svg>