<svg xmlns="http://www.w3.org/2000/svg" viewBox="0 0 256 256"><path d="m 169.7 246 c -127.4 49.68 -192.8 -89.6 -160.3 -176.2 22.67 -60.5 113 -90.6 186 -47.68 92.1 54.2 72.5 185.6 -25.73 223.9" style="fill:#71706e"/><g transform="matrix(10.743 0 0 10.528 41.4 46.53)"><circle r="8" cy="8" cx="8" style="fill:#4f4f4f"/><g style="fill:#fff"><path d="M 10.91,13.25 C 12.75,12.23 14,10.26 14,8 14,4.69 11.31,2 8,2 4.69,2 2,4.69 2,8 2,10.26 3.25,12.22 5.09,13.25 3.62,12.3 2.65,10.64 2.65,8.77 2.65,5.82 5.04,3.42 8,3.42 c 2.95,0 5.35,2.39 5.35,5.35 0,1.88 -0.97,3.53 -2.44,4.48 z"/><path d="m 12.1 10.69 c 0.28 -0.58 0.43 -1.24 0.43 -1.93 0 -2.49 -2 -4.5 -4.5 -4.5 -2.49 0 -4.5 2 -4.5 4.5 0 0.69 0.16 1.34 0.43 1.93 -0.07 -0.31 -0.11 -0.63 -0.11 -0.97 0 -2.31 1.87 -4.18 4.18 -4.18 2.31 0 4.18 1.87 4.18 4.18 0 0.33 -0.04 0.66 -0.11 0.97 z"/><path d="m 8 12.53 c 1.62 0 2.94 -1.31 2.94 -2.94 0 -0.57 -0.16 -1.11 -0.45 -1.56 0.63 0.63 1 1.5 1 2.46 0 1.93 -1.57 3.5 -3.5 3.5 -1.93 0 -3.5 -1.57 -3.5 -3.5 0 -0.96 0.39 -1.83 1 -2.46 -0.28 0.45 -0.45 0.99 -0.45 1.56 0 1.62 1.31 2.94 2.94 2.94 z"/><path d="M 10,9 C 10,10.1 9.1,11 8,11 6.9,11 6,10.1 6,9 6,7.9 6.9,7 8,7 c 1.1,0 2,0.9 2,2 z"/></g></g></svg>