<svg xmlns="http://www.w3.org/2000/svg" viewBox="0 0 256 256"><path d="m 223 210.5 c 64.98 -95.2 17.55 -182 -52.1 -202.6 -93.7 -27.68 -224.2 45.1 -144.3 195 c 31.78 59.6 150 75.4 196.3 7.55"/><g transform="matrix(0.942 0 0 0.954 7.9 5.94)"><g style="fill:#d1c3a2"><path d="m 108.4 203.7 c 0 -0.33 -0.86 -1.66 -1.9 -2.96 l -1.89 -2.37 l -29.88 -0.41 c -22.31 -0.31 -30.34 -0.67 -31.69 -1.43 l -1.81 -1.02 l 0.23 -68.1 c 0.25 -73 0.14 -71.1 4.11 -70.6 1.49 0.21 1.7 0.93 2.16 7.34 0.28 3.91 0.55 33.48 0.59 65.72 l 0.08 58.6 h 78 h 78 l 0.49 -64.6 c 0.27 -35.52 0.72 -65.2 1 -65.92 0.72 -1.87 2.92 -1.65 4.94 0.5 l 1.72 1.83 v 67.2 v 67.2 l -2.13 1.4 c -1.93 1.27 -4.99 1.42 -32.2 1.64 l -30.1 0.24 l -1.4 2.6 l -1.4 2.6 l -11.91 0.52 c -15.73 0.68 -25.1 0.65 -25.1 -0.08 z"/><path d="m 54.5 185.6 c -0.33 -0.8 -0.6 -29.81 -0.6 -64.4 0 -52.92 0.18 -63.1 1.1 -63.7 0.6 -0.37 3.8 -0.93 7.1 -1.23 3.3 -0.31 10.1 -1.23 15.1 -2.05 5.64 -0.93 12.99 -1.5 19.41 -1.5 9.94 0 10.51 0.09 15 2.38 2.57 1.31 6.21 3.78 8.09 5.5 l 3.42 3.11 l -0.27 58.4 c -0.15 32.1 -0.52 58.6 -0.82 58.94 -0.31 0.31 -3.29 -1.07 -6.63 -3.06 -7 -4.17 -12.79 -5.64 -19.2 -4.88 -8.82 1.05 -12.89 2.43 -40.1 13.6 -0.54 0.22 -1.25 -0.26 -1.58 -1.06 z"/><path d="m 198.4 183.2 c 0.33 -0.8 0.6 -29.81 0.6 -64.4 0 -52.92 -0.18 -63.1 -1.1 -63.7 -0.6 -0.37 -3.8 -0.93 -7.1 -1.23 -3.3 -0.31 -10.1 -1.23 -15.1 -2.05 -5.64 -0.93 -12.99 -1.5 -19.41 -1.5 -9.94 0 -10.51 0.09 -15 2.38 -2.57 1.31 -6.21 3.78 -8.09 5.5 l -3.42 3.11 l 0.27 58.4 c 0.15 32.1 0.52 58.6 0.82 58.94 0.31 0.31 3.29 -1.07 6.63 -3.06 7 -4.17 12.79 -5.64 19.2 -4.88 8.82 1.05 12.89 2.43 40.1 13.6 0.54 0.22 1.25 -0.26 1.58 -1.06 z"/></g><path d="m 112 159.7 c -1.52 -1.09 -2.95 -2.32 -3.18 -2.73 -0.66 -1.2 -1.53 -0.85 -1.53 0.61 0 2.55 -1.07 1.34 -3.14 -3.58 -2.68 -6.35 -4.93 -9.19 -9.23 -11.6 -2.95 -1.65 -4.21 -1.96 -8.27 -1.98 -4.05 -0.02 -5.25 0.25 -7.82 1.77 -3.92 2.32 -7.16 6.42 -9.32 11.78 -1.8 4.48 -2.46 5.07 -3.44 3.11 -0.53 -1.06 -0.85 -0.9 -3 1.49 l -2.43 2.67 v -3.13 c 0 -2.73 0.43 -3.81 3.35 -8.39 9.78 -15.37 15.8 -32.36 18.79 -53.1 1.16 -8 1.22 -11.27 2.83 -9.45 2.15 1.98 2.31 -2.41 3.64 1.35 0.35 0.74 1.2 5.12 1.88 9.72 3.51 23.76 9.77 40.3 20.7 54.87 2.71 3.6 3.3 4.81 3.15 6.48 l -0.19 2.05 z m -20.1 -24.71 c -0.49 -2.43 -4.76 -13.97 -5.2 -14.1 -0.7 -0.14 -4.65 13.1 -4.26 14.25 0.36 1.07 9.67 0.88 9.45 -0.2 z m -3.17 -27.1 c -0.02 -2.77 -1.62 -15.1 -2.03 -15.51 -0.72 -0.81 -0.91 0.42 -1.31 8.39 -0.38 7.66 -0.34 8.19 0.72 8.49 2.28 0.66 2.63 0.48 2.62 -1.37 z"/><path d="m 83.94 82.9 c -1.69 -0.53 -2.15 -2.57 -1.08 -4.79 1.53 -3.5 1.88 -6.78 3.75 -10.16 0.48 -0.18 4.84 11.78 4.84 13.28 0 1.82 -4.12 2.73 -7.51 1.67 z"/><path d="m 164.1 111.1 c -3.07 -1.45 -4.15 -1.61 -6.22 -0.88 -1.2 0.42 -1.46 0.41 -3.43 -0.15 -1.97 -0.55 -2.27 -0.56 -3.93 -0.17 -2.45 0.59 -3.65 0.55 -5.23 -0.18 -1.75 -0.8 -3 -0.76 -5.29 0.17 -1.02 0.42 -2.28 0.76 -2.8 0.76 -1.32 0 -2.83 -1.02 -3.7 -2.52 -1.34 -2.29 -0.86 -4.12 1.82 -7 2.84 -3.06 6.33 -4.28 9.18 -3.19 2.07 0.79 2.55 2.5 1.24 4.43 -0.92 1.36 -0.99 2.98 -0.15 3.82 0.75 0.75 0.93 0.74 1.89 -0.02 0.5 -0.4 0.99 -1.29 1.37 -2.52 1.33 -4.32 3.37 -6.53 5.33 -5.79 0.99 0.37 1.09 0.95 0.55 3.1 -0.27 1.06 -0.48 2.54 -0.48 3.29 0 1.76 0.6 2.04 1.84 0.86 1.58 -1.5 4.5 -8.25 3.95 -9.13 2.16 -1.33 3.3 -0.11 3.94 0.28 -0.33 1.03 -1.07 6.52 -1.07 7.93 0 2.76 1.88 3.64 7.76 3.64 3.14 0 3.92 -0.1 4.93 -0.6 1.34 -0.67 1.64 -1.42 0.89 -2.25 -0.28 -0.31 -1.88 -1.51 -3.56 -2.67 -4.53 -3.13 -5.28 -4.19 -4.07 -5.73 1.32 -1.68 10.46 -5.48 12.66 -5.27 0.84 0.08 0.97 0.21 1.05 1.09 0.08 0.85 -0.1 1.19 -1.22 2.26 -1.6 1.47 -3.99 2.2 -5.3 3.57 0 1.03 6.83 7.35 7.94 7.35 0.47 0 1 -1.8 1.02 -3.43 0.03 -3.8 2.98 -5.48 7.34 -4.19 2.85 0.85 4.43 3.08 4.24 6 -0.15 2.4 -1.33 4.39 -3.31 5.61 -1.39 0.86 -1.44 0.87 -6.56 0.93 -4.39 0.06 -5.88 0.21 -9.99 1 -3.06 0.6 -5.75 0.94 -7.32 0.94 -2.32 0 -2.67 -0.09 -5.32 -1.34 z m -24.1 -6.49 c 0.45 -0.95 0.47 -1.78 0.35 -2.77 l -1.27 1.23 c -0.87 0.85 -1.27 1.49 -1.27 2.04 0 0.7 0.11 0.79 0.82 0.71 0.84 -0.29 1 -0.72 1.36 -1.21 z m 51.4 0.6 c 0.26 -0.37 0.46 -1.17 0.46 -1.79 0 -0.97 -0.11 -1.15 -0.8 -1.32 -1.42 -0.36 -2.41 1.65 -1.58 3.19 0.88 0.48 1.4 0.6 1.91 -0.09 z"/><path d="m 139.3 95.2 c -1.49 -0.99 -1.45 -2.17 0.1 -3.18 2.61 2.78 5.3 -2.66 4.75 1.28 -0.1 0.69 -2.93 2.72 -3.36 2.69 -0.18 -0.01 -0.85 -0.37 -1.49 -0.8 z"/><path d="m 146.8 116.9 c -1.07 -1 -1.06 -2.37 0.03 -3.67 0.92 -1.09 2.39 -1.35 3.23 -0.56 0.82 0.77 0.61 3.35 -0.33 4.23 -0.46 0.43 -1.12 0.78 -1.46 0.78 -0.34 0 -1 -0.35 -1.46 -0.78 z"/><path d="m 141.3 146.3 c -1.57 -0.55 -3.48 -0.88 -4.64 -3.05 -2.16 -4.05 0.11 -8.81 5.45 -11.89 3.98 -2.3 3.87 -3 -0.77 -4.73 -0.79 -0.3 -1.64 -0.84 -1.88 -1.21 -0.4 -0.61 -0.38 -0.79 0.18 -1.89 1.17 -2.3 3.89 -3 5.67 -1.39 1.21 1.11 4.5 10 4.5 11.18 0 1.36 -1 1.86 -4.41 2.18 -4.63 0.44 -5.73 1.28 -5.73 4.36 0 1.72 0.4 2.71 2 4.91 0.57 0.78 0.99 1.53 0.93 1.68 -0.05 0.14 -0.63 0.07 -1.29 -0.16 z"/><path d="m 143.1 143.1 c -0.62 -0.26 -1.06 -0.78 -1.06 -1.23 0 -1.13 1.87 -3.12 2.94 -3.12 1.61 0 2.28 2.8 0.99 4.14 -0.79 0.82 -1.33 0.86 -2.87 0.22 z"/><path d="m 150.2 145.4 c -0.36 -0.36 -0.21 -0.63 1.49 -2.69 2.05 -2.48 2.91 -4.31 4.72 -10 1.88 -5.95 3.56 -8.14 5.09 -6.61 0.46 0.46 0.5 0.94 0.32 4.27 -0.16 3 -0.12 3.86 0.22 4.32 0.89 1.2 2.14 -0.28 3.22 -3.83 1.02 -3.37 3.47 -5.31 4.89 -3.88 0.63 0.63 0.59 1.88 -0.15 4.32 -0.69 2.27 -0.67 3.21 0.07 3.68 1.11 0.7 2.13 -1.11 4.73 -8.34 1.93 -5.37 3 -7.64 4.11 -8.49 0.86 -0.68 1.82 -0.41 2.44 0.69 0.55 0.96 0.34 1.86 -2.12 9.32 -1.94 5.88 -3 7.98 -4.98 9.72 -1.71 1.52 -2.59 1.67 -4.81 0.86 l -1.8 -0.66 l -1.81 0.68 c -1.43 0.53 -2.14 0.64 -3.42 0.49 -0.89 -0.1 -1.95 -0.06 -2.35 0.09 -0.41 0.15 -1.88 1.35 -3.27 2.66 -1.39 1.31 -3.08 2.66 -3.75 3 -1.21 0.62 -2.45 0.8 -2.84 0.42 z"/><path d="m 162.2 144.4 c -1.18 -1.26 -1.15 -1.8 0.15 -2.79 0.92 -0.69 1.2 -0.76 2.06 -0.46 1.18 0.41 1.69 1.5 1.25 2.64 -0.7 1.81 -2.1 2.05 -3.46 0.6 z"/><path d="m 183 139.3 c -0.79 -0.84 -0.73 -1.67 0.52 -7.53 1.56 -7.26 3.33 -11.73 4.75 -12 0.99 -0.19 2.09 0.24 2.3 0.89 0.41 1.28 -1.9 12.39 -3.41 16.34 -1.05 2.75 -2.81 3.73 -4.16 2.3 z"/><path d="m 160.6 93.3 c -1.49 -0.99 -1.45 -2.17 0.1 -3.18 2.61 2.78 5.3 -2.66 4.75 1.28 -0.1 0.69 -2.93 2.72 -3.36 2.69 -0.18 -0.01 -0.85 -0.37 -1.49 -0.8 z"/></g></svg>