<svg xmlns="http://www.w3.org/2000/svg" viewBox="0 0 256 256"><path d="m 124.4 254.6 c -26.3 -2.05 -56.6 -14.66 -77.3 -32.2 -25.2 -21.31 -42.86 -53.99 -46.4 -86.2 -4.14 -42.55 22.73 -88.3 51.67 -110 14.5 -10.57 33.47 -18.98 51.1 -22.66 c 45.75 -9.58 92.2 8.56 122.7 47.96 18.31 23.62 27.2 47.4 28.37 75.6 1.35 33.77 -13.71 69.98 -39.2 94.4 -28.82 22.99 -57.97 35.46 -90.8 33.1" style="fill:#4494d0"/><g transform="matrix(4.946 0 0 4.971 8.54 9.91)"><path d="m 13,13 v 6 l 5.5,7 2.5,-13 z m 9,0 -1.25,7 14.75,-7 z M 37,13.5 26,18.75 37,24 z M 13,21 v 10 h 8 z m 17.5,1 3.5,15 h 3 V 25 z M 31,28.5 24,37 h 9 z M 13,32 v 5 h 9.5 l 4,-5 z" style="opacity:0.1"/><path d="m 12,12 v 6 l 5.5,7 2.5,-13 z m 9,0 -1.25,7 14.75,-7 z M 36,12.5 25,17.75 36,23 z M 12,20 v 10 h 8 z m 17.5,1 3.5,15 h 3 V 24 z M 30,27.5 23,36 h 9 z M 12,31 v 5 h 9.5 l 4,-5 z" style="fill:#f9f9f9"/></g></svg>