<svg xmlns="http://www.w3.org/2000/svg" viewBox="0 0 256 256"><path d="m 5.49 156.4 c 15.71 102.8 155.3 130.3 216.9 56.91 54.3 -54.5 40.79 -158.9 -25.84 -194.7 -76.4 -47.86 -187.8 11.31 -193.8 106.7 c -0.62 10.44 0.26 20.99 2.74 31.1 z" style="fill:#2aa0e0;color:#000"/><g style="fill:#fff"><path d="m 120 202.1 c -33.2 -3.49 -60.2 -29.88 -63.98 -62.6 -2.61 -22.47 4.62 -43.73 20.23 -59.4 5.92 -5.95 11.4 -9.84 20 -14.17 21.2 -10.66 48 -9.24 68.6 3.64 c 6.72 4.22 15.76 12.53 19.81 18.2 3.72 5.22 9.93 17.63 11.68 23.35 2.96 9.66 2.98 27.3 0.05 38.46 -6.11 23.38 -27.41 44.51 -50.87 50.5 -8.34 1.97 -17.75 2.96 -25.5 2.14 z m 22.51 -16.54 c 15.78 -5 28.39 -15.43 35.1 -29 5.69 -14.64 8.36 -28.1 4.18 -41.78 -4.66 -15 -14.77 -27.4 -27.95 -34.3 -15.45 -7 -30.8 -8.71 -44.1 -4.13 -15.78 5.44 -27.3 15.64 -34.3 30.37 -6.46 16.3 -6.7 32.88 -0.27 47.2 4.3 9.45 12.33 18.95 20.67 24.45 5.38 3.55 13.46 6.96 19.4 8.2 6.63 1.38 21.52 0.86 27.2 -0.96 z"/><path d="m 119.2 168.1 c -4.78 -1.17 -8.4 -2.56 -11.64 -4.46 -3.14 -1.85 -6.86 -5.12 -6.86 -6 0 -0.97 6 -7.35 7.9 -8.34 1.54 -0.82 2.09 -0.68 7.56 1.93 7.21 3.56 14.39 3.65 20.39 0.73 9.33 -4.59 14.52 -13.43 13.7 -23.31 -0.73 -8.69 -5.39 -15.23 -13.59 -19.1 -7.37 -3.45 -14.47 -2.97 -22.5 1.51 -4.14 2.31 -4.56 2.17 -10 -3.41 l -3.74 -3.8 l 3.34 -3.09 c 11.9 -11 33.85 -10.98 47.3 0.1 6.22 5.14 11.6 13.62 13.46 21.23 0.99 4.06 1 12.53 0.03 16.62 -2.22 9.27 -9.77 19.87 -17.45 24.48 -8.86 3.87 -19.47 6.79 -27.82 4.92 z"/></g></svg>