<svg xmlns="http://www.w3.org/2000/svg" viewBox="0 0 256 256"><path d="m 8.29 92.8 c -47.8 133.4 124 198.3 188.5 144 64.5 -54.3 86.6 -147.4 13.49 -194.2 -73.1 -46.83 -154.2 -83.2 -202 50.3" style="fill:#10131b"/><g style="fill:#79a5f7"><path d="m 130.7 170.9 l 14.34 -5.83 c 25.81 -10.49 22.49 -9.73 23.84 -35.4 l 1.11 -21.2 l 10.99 -4.86 c 22.2 -9.82 21.37 -21.6 21.37 25.85 0 32 -1.41 51.91 -3.97 54 -13.73 8.57 -60.3 23.1 -67.3 25.86 -1.89 -12.81 -0.7 -23.72 -0.35 -38.47 z"/><path d="m 161.3 104 l -14.34 5.83 c -25.81 10.49 -22.49 9.73 -23.84 35.4 l -1.11 21.2 l -10.99 4.86 c -26.2 11.6 -21.37 21.6 -21.37 -25.85 0 -32 0.46 -51.3 3 -53.4 13.73 -8.57 61.2 -23.76 68.3 -26.49 1.89 12.81 0.7 23.72 0.35 38.47 z"/></g><path d="m 51.99 168.4 c 0 -30 0 -60.1 0 -90.1 10.48 4.18 22.87 9.28 33.3 13.48 0.72 31.97 -1.18 45.78 0.78 90.6 -12.1 -4.92 -21.25 -8.69 -34.1 -13.97 z" style="fill:#055bf9"/><path d="m 56 76 c 24.2 -10.58 51.3 -18.56 71.82 -26.35 c 4.04 1.65 28.82 9.76 29.46 12.44 -0.03 1.38 -57.3 22.1 -67.83 25.2 c -12.55 -1.26 -21.55 -6.25 -33.46 -11.29 z" style="fill:#37455f"/><g style="fill:#055bf9"><path d="m 111.6 198.7 c -24.94 -12.3 -23.41 -14 -3.92 -21.2 8.29 -3.6 16.72 -8.19 17.4 -8.19 1.79 0 1.36 26.74 1.89 36.4 0.26 4.76 1.59 -0.7 -15.36 -7 z"/><path d="m 144.3 142.1 c -7.36 -2.97 -13.72 -11.17 -15 -12.33 -1.08 -0.97 -3.59 -5 18.84 -14.72 l 16.24 -7 v 19.87 c 0 22.45 0.15 22.34 -20.1 14.19 z"/></g><path d="m 167.9 76.4 c 10.4 6.16 20.53 9.81 31.8 14.23 -9.82 3.62 -21.53 8.81 -31.35 12.43 -1.25 -7.37 -4.47 -29.78 -0.45 -26.66 z" style="fill:#37455f"/><path d="m 128.3 136.1 c 6.4 3.29 21.56 13.24 29.78 16.35 1.32 2.51 -23.45 14.52 -29.42 14.52 -2.97 -10.71 -1.7 -19.3 -0.36 -30.88 z" style="fill:#fff"/></svg>