<svg xmlns="http://www.w3.org/2000/svg" viewBox="0 0 256 256"><path d="m 5.13 154 c 19.65 130.3 215.3 134.2 244.8 7.54 c 30.44 -102.5 -79.7 -186.4 -162.2 -152.8 c -55.2 15.88 -99.8 80.9 -82.6 145.2" style="fill:#ffa300"/><g transform="matrix(5.177 0 0 4.907 2.63 13.45)" style="fill:#fff;stroke:#fff;stroke-width:1.14"><path d="m 36.52 22.69 c -1.24 1.42 -2.89 2.14 -4.52 2.14 c -4.17 0 -6.32 -3.41 -6.36 -7.35 c -0.02 -4 2.15 -7.5 6.36 -7.5 c 1.63 0 3.26 0.7 4.5 2.14 l 0.76 -0.77 c -1.44 -1.68 -3.36 -2.52 -5.26 -2.52 c -4.96 0 -7.47 4.21 -7.43 8.7 c 0.02 4.55 2.56 8.51 7.43 8.51 c 1.9 0 3.82 -0.84 5.26 -2.52 l -0.74 -0.82"/><path d="m 12.95 33.59 v 1.16 h 3.61 v 4.25 h 0.97 v -4.25 h 3.61 v -1.16 h -3.61 v -4.13 h -0.97 v 4.13 h -3.61"/><path d="m 27.3 33.59 v 1.16 h 3.61 v 4.25 h 0.97 v -4.25 h 3.61 v -1.16 h -3.61 v -4.13 h -0.97 v 4.13 h -3.61"/><path d="m 11.13 22.78 c 1.24 1.42 2.89 2.14 4.52 2.14 c 4.17 0 6.32 -3.41 6.36 -7.35 c 0.02 -4 -2.15 -7.5 -6.36 -7.5 c -1.63 0 -3.26 0.7 -4.5 2.14 l -0.76 -0.77 c 1.45 -1.68 3.36 -2.52 5.26 -2.52 c 4.95 0 7.47 4.21 7.43 8.7 c -0.02 4.54 -2.56 8.51 -7.43 8.51 c -1.9 0 -3.82 -0.84 -5.26 -2.52 l 0.74 -0.82"/><path d="m 13.27 10.3 h 0.23 c 0.24 0 0.43 0.02 0.43 0.05 v 15.2 c 0 0.02 -0.2 0.04 -0.43 0.04 h -0.23 c -0.24 0 -0.43 -0.02 -0.43 -0.04 v -15.2 c 0 -0.02 0.19 -0.05 0.43 -0.05"/></g></svg>