<svg xmlns="http://www.w3.org/2000/svg" viewBox="0 0 256 256"><path d="m 102.1 5.21 c -132 19.72 -137 216 -9.1 245.6 103.6 30.52 189.1 -80 155.5 -162.7 -15.78 -55.4 -81.2 -100.1 -146.5 -82.92" style="fill:#696969"/><g transform="matrix(0.887 0 0 0.901 16.93 18.32)"><path d="m 227.5 136.4 c 0 51.1 -38.3 92.5 -85.6 92.5 -47.3 0 -85.6 -41.4 -85.6 -92.5 0 -51.1 38.3 -92.5 85.6 -92.5 47.3 0 85.6 41.4 85.6 92.5 z" transform="matrix(1.31 0 0 1.18 -59.9 -35.6)" style="fill:#fed136"/><path d="m 185.1 118.5 a 52.67 34.38 0 1 1 -105.3 0 52.67 34.38 0 1 1 105.3 0 z" transform="matrix(1.127 0 0 1.346 -21.56 -62.1)" style="fill:#fff"/><path d="m 47.4 204.8 c -9.36 -10 -9.1 -8.7 -4.54 -20.64 5.2 -13.68 5.89 -18.1 7.11 -45.3 1.25 -27.99 2.07 -33.93 6.56 -47.3 c 4.88 -14.59 8.79 -21.43 17.39 -30.46 8.36 -8.78 16.8 -14.1 26.96 -16.88 c 10.15 -2.81 41.3 -2.63 50.75 0.3 10.47 3.23 15.17 6.1 23.41 14 12.77 12.4 17.44 20.97 21.42 39.3 3.25 14.96 4.33 24.81 5 46 0.66 19.64 1.67 24.65 8.19 40.4 2.7 6.52 3.26 8.89 2.5 10.54 -1.41 3.1 -11.18 13.55 -12.67 13.55 -0.72 0 -1.72 -2.25 -2.33 -5.25 -1.67 -8.22 -8.1 -22.5 -13.1 -29.1 -2.52 -3.32 -6.82 -7.63 -9.56 -9.58 -4.73 -3.38 -5.37 -3.55 -13 -3.5 -6.52 0.04 -9.81 0.69 -17.52 3.46 -8.36 3 -10.64 3.4 -19 3.35 -7.95 -0.04 -11.13 -0.59 -19.49 -3.34 -16.29 -5.35 -23.4 -4 -33.68 6.42 -7.23 7.32 -13.32 19.2 -15.47 30.1 -0.87 4.4 -1.98 8.43 -2.47 8.95 -0.55 0.58 -3.05 -1.35 -6.47 -5 z m 46.56 -97.7 c 5.91 -3 8.25 -6.5 8.8 -13.1 1.11 -13.4 -10.57 -22.25 -21.78 -16.49 -11.83 6.08 -11.85 23.6 -0.03 29.56 2.45 1.24 5.39 2.25 6.53 2.25 1.14 0 4.06 -1.01 6.48 -2.25 z m -10.6 -12.29 c -1.34 -2.05 -1.44 -3 -0.53 -5 1.36 -2.98 3.29 -3.86 6.64 -3 2.98 0.75 4.26 4.67 2.66 8.17 -1.56 3.42 -6.49 3.36 -8.77 -0.11 z m 90.3 10.94 c 4.5 -3.43 6.28 -7.32 6.28 -13.7 0 -8.5 -5.68 -15.33 -13.59 -16.35 -8.43 -1.08 -17.41 7.5 -17.41 16.65 0 9.25 9.1 17.83 17.47 16.52 2.18 -0.34 5.44 -1.74 7.25 -3.12 z m -12.87 -10.83 c -2.41 -5.28 2.48 -10.73 7.1 -7.87 1.98 1.24 2.65 6.93 1.04 8.86 -1.99 2.39 -6.82 1.8 -8.09 -0.99 z" style="fill:#464645"/><path d="m 115.3 146.1 c -9.86 -2.05 -16.21 -5.76 -20.3 -11.84 l -2.19 -3.25 h 33.2 h 33.2 l -4.24 4.51 c -7.58 8.1 -16.63 11.4 -30.1 11.14 -4.14 -0.08 -8.42 -0.33 -9.51 -0.56 z" style="fill:#ff8c00"/><path d="m 89.6 131.6 c -9.1 -0.46 -10.58 -0.88 -12.1 -3.39 -2.06 -3.38 -1.83 -5.88 0.76 -8.1 2.29 -1.92 3.78 -2.21 16.31 -3.09 7.43 -0.53 8.63 -1.25 14.19 -8.63 4.97 -6.59 7.61 -9.23 10.38 -10.4 3.15 -1.33 9.1 -1.34 11.66 -0.01 2.07 1.07 7.57 6.64 11.8 11.95 3.77 4.74 5.14 5.33 14.92 6.44 14.76 1.69 15.5 2 16.32 7 0.32 1.99 0.02 2.97 -1.46 4.72 -1.75 2.08 -2.34 2.27 -9.77 3.07 -7 0.76 -59.81 1.02 -73 0.36 z" transform="matrix(1.083 0 0 1.078 -9.88 -11.4)" style="fill:#ffd700"/></g></svg>