<svg xmlns="http://www.w3.org/2000/svg" viewBox="0 0 256 256"><path d="m 254.9 128.7 c 19.29 -168.9 -256.9 -166.5 -253.7 3 -9.13 157.7 268.6 171.9 253.7 -3" style="fill:#d1d3e6"/><g style="fill:#3c4698"><path d="m 39.97 154.3 c -13.37 -4.13 -18.59 -26.58 -8.75 -37.66 4.43 -4.99 8.54 -6.6 16.86 -6.63 9.85 -0.03 13.96 1.87 14.35 6.64 0.25 3.07 0.15 3.24 -1.71 2.72 -9.76 -2.75 -15.61 -2.52 -20 0.81 -3.52 2.64 -4.81 6.74 -4.4 13.91 0.47 8.23 4.27 12.84 11.49 13.94 4.73 0.72 7.36 -1.63 6.97 -6.24 -0.22 -2.6 -0.73 -3.32 -3.04 -4.32 -2.33 -1.01 -2.77 -1.66 -2.77 -4 v -2.8 c 4.84 0 9.67 0 14.51 0 v 10.46 v 10.46 c -3.62 5.12 -16.24 4.67 -23.47 2.71 z"/><path d="m 83.7 154.7 c -0.34 -0.33 -0.61 -3.86 -0.61 -7.85 0 -9.36 -0.48 -10.84 -7.65 -23.64 -3.3 -5.9 -6 -11.17 -6 -11.72 0 -0.61 1.42 -1 3.69 -1 4.21 0 5.38 0.99 10.2 8.56 1.67 2.62 3.43 5 3.93 5.31 0.5 0.3 2.32 -1.63 4.08 -4.34 5.33 -8.17 6.91 -9.53 11.1 -9.53 2.02 0 3.68 0.2 3.68 0.45 0 0.85 -4.5 9.27 -9.1 16.98 -4.51 7.59 -4.59 7.84 -4.68 14.77 -0.16 11.1 -0.53 12.1 -4.63 12.36 -1.89 0.14 -3.72 -0.02 -4.05 -0.35 z"/><path d="m 114.8 154.4 c -1.41 -0.88 -2.36 -30.36 -1.24 -38.49 0.34 -4.56 0.18 -5 4.54 -5.49 5.95 -0.65 17.28 0.47 20.29 2 3.53 1.8 5.31 5.32 5.31 10.49 0.13 5.22 -3.05 6.91 -4.92 11.1 0.13 0.27 2.3 4.57 4.81 9.56 2.51 4.99 4.34 9.64 4.07 10.34 -2.71 1.92 -5.16 1.23 -8.65 1.2 l -3.38 -7.22 c -3.53 -7.53 -6.4 -10.68 -9.36 -10.26 -2 0.28 -2.92 3.9 -3 11.76 -0.04 3.53 -0.4 4.89 -1.4 5.27 -2.23 0.26 -5.16 0.84 -7.1 -0.24 z m 16 -24.95 c 6.27 -3.2 3.82 -11.84 -3.19 -11.26 -3 0.25 -3.19 0.44 -3.87 4.06 -1.37 7.22 1.43 10.1 7.1 7.2 z"/><path d="m 166 153.8 c -7.1 -3.46 -8.85 -9.54 -8.5 -29.48 l 0.24 -13.4 l 4 -0.26 c 4.95 -0.31 4.66 -1.29 5.38 18.4 0.49 13.41 0.71 14.94 2.33 16.67 2.98 3.17 8.82 2.27 11 -1.71 0.67 -1.19 1.22 -7.57 1.51 -17.49 l 0.47 -15.61 c 3.5 -0.1 7.5 -0.13 8.32 2.53 0.42 1.39 0.55 8.94 0.28 16.76 -0.56 16.73 -1.59 19.66 -8.1 23.1 -4.59 2.39 -12.67 2.65 -17 0.54 z"/><path d="m 207.4 154.3 c -3.51 -1.04 -5.67 -3.27 -5.67 -5.87 0 -1.24 0.21 -2.47 0.47 -2.73 0.26 -0.26 3.36 0.27 6.89 1.16 4.82 1.66 12.96 1.52 13.1 -4.44 0 -2.93 -2 -4.38 -9.35 -6.79 -3.45 -1.13 -6.65 -2.88 -8.36 -4.57 -2.51 -2.47 -2.77 -3.21 -2.77 -7.76 0 -6.1 2.24 -9.97 7.1 -12.3 4.2 -2.04 12.45 -2.02 16.69 0.02 2.69 1.3 3.18 1.98 3.41 4.71 0.41 5 -5.8 1.99 -10.27 1.93 -4.76 -0.05 -6 0.24 -7.56 1.74 -3.65 3.6 -1.07 6.07 9.46 9.1 2.59 0.73 6 2.44 7.68 3.8 5.81 5.83 2.97 18.1 -3.48 21.42 -3.16 1.59 -12.84 1.94 -17.31 0.61 z"/></g></svg>