<svg xmlns="http://www.w3.org/2000/svg" viewBox="0 0 256 256"><path d="m 244 175.8 c 95.5 -310.4 -417.3 -155.2 -177.6 57.5 48 42.61 151.8 26.2 177.6 -57.5" style="fill:#d84b75"/><path d="m 156.5 231.8 c -11.94 -1.81 -20.97 -6.1 -30.51 -14.38 -15 -13.1 -21.76 -26.49 -22.9 -45.4 -1.66 -27.76 15.1 -53.1 42.2 -63.8 7.51 -2.97 22.85 -4 52.8 -3.69 25.2 0.3 26.1 0.45 28.95 4.83 1.38 2.11 1.51 5.43 1.51 37.1 v 34.74 l -2.39 6.49 c -6.78 18.4 -18.34 31.5 -34.42 39 -10.44 4.88 -23.97 6.86 -35.2 5.15 z" transform="matrix(1.063 0 0 1.042 -48.4 -43.8)" style="fill:#b7c1c8"/><path d="m 164.2 135.1 a 44.3 38.78 0 1 1 -88.5 0 44.3 38.78 0 1 1 88.5 0 z" transform="matrix(1.091 0 0 1.248 -2.79 -35.69)" style="fill:#826ac8"/><path d="m 86.3 158.3 c -3.71 -4.86 -6.14 -12.95 -6.66 -22.1 -0.85 -15.18 3.69 -27.2 14.3 -37.94 15.72 -15.85 39.85 -18.67 58.4 -6.82 5.79 3.69 5.2 4 -2.37 1.32 -7.69 -2.74 -21.97 -3.38 -29.2 -1.3 -17.1 4.93 -30.2 18.31 -34.63 35.2 -2.04 7.83 -1.46 21.1 1.26 28.68 1.06 2.98 1.78 5.57 1.58 5.76 -0.19 0.19 -1.42 -1.05 -2.73 -2.76 z" style="fill:#7560b4"/><path d="m 181.6 80.8 a 7.3 8.21 0 1 1 -14.6 0 7.3 8.21 0 1 1 14.6 0 z" transform="matrix(1.029 0 0 0.897 -0.13 7.49)" style="fill:#81888d"/></svg>