<svg xmlns="http://www.w3.org/2000/svg" viewBox="0 0 256 256"><path d="m 49.2 228.2 c 151.4 118.3 308.5 -176.2 121.2 -219.3 -118 -44.2 -233.3 131.7 -121.2 219.3" style="fill:#edd6e1"/><g style="fill:#f55ca1"><path d="m -95.5 298.9 l -2.42 -2.58 v -27.34 v -27.34 l 2.42 -2.58 c 3.34 -3.55 8.81 -3.56 12.15 0 2.37 2.52 2.44 3.04 2.92 23.75 l 0.5 21.2 l 53.84 0.5 l 53.84 0.5 l 1.91 2.36 c 2.73 3.37 2.48 8.66 -0.54 11.68 l -2.45 2.45 h -59.87 h -59.87 l -2.42 -2.58 z m 32.53 -31.87 l -2.45 -2.45 l 0.03 -43.8 c 0.02 -32.85 0.34 -44.2 1.25 -45.4 2.9 -3.77 4.63 -3.91 47.73 -3.91 h 42.1 l 2.92 2.92 l 2.92 2.92 v 43.62 v 43.62 l -2.45 2.45 l -2.45 2.45 h -43.59 h -43.59 l -2.45 -2.45 z m 77.3 -46.3 l 0.26 -31.2 l -2.26 -0.55 c -1.25 -0.3 -15.31 -0.43 -31.3 -0.27 l -29 0.28 l -0.27 30.49 c -0.15 16.77 -0.04 31.1 0.22 31.76 0.38 1 7.1 1.22 31.3 1 l 30.78 -0.26 l 0.26 -31.2 z m -50.3 19.27 c -3.34 -3.34 -3.34 -8.75 0 -12.1 5.21 -5.21 13.75 -1.45 13.75 6 0 7.5 -8.54 11.25 -13.75 6 z m 27 0.17 c -5.7 -4.9 -1.93 -14.72 5.65 -14.72 4.25 0 7.9 3.93 7.9 8.5 0 7.37 -7.95 11 -13.54 6.22 z m -27 -27.2 c -5.17 -5.17 -1.6 -14.55 5.55 -14.55 7.31 0 11.1 10.45 5.37 14.93 -3.57 2.81 -7.87 2.65 -10.91 -0.38 z m 26.72 0.14 c -3.25 -3.45 -3 -9.88 0.46 -12.61 5.71 -4.49 13.37 -0.81 13.37 6.43 0 7.42 -8.92 11.41 -13.83 6.19 z m -83.7 7.16 c -3.23 -1.77 -4.5 -3.99 -4.5 -7.86 0 -7.21 8.24 -10.93 13.41 -6.1 2.97 2.79 3.48 4.67 2.39 8.82 -0.54 2.07 -1.91 3.78 -3.78 4.75 -3.43 1.78 -4.81 1.84 -7.52 0.36 z m -2.33 -34.2 c -2.31 -2.46 -2.89 -7.49 -1.21 -10.61 1.63 -3.05 6.52 -4.53 10.1 -3.06 3.64 1.51 4.96 3.7 4.96 8.24 0 6.98 -9 10.53 -13.83 5.43 z" transform="matrix(0.944 0 0 0.917 155 -84.9)"/></g></svg>