<svg xmlns="http://www.w3.org/2000/svg" viewBox="0 0 256 256"><g transform="translate(0 -796.4)"><path d="m 58.5 1027.4 c 199.6 128 295.3 -280.1 49.5 -226.1 -101.5 23 -155.8 167.4 -49.5 226.1 z" style="fill:#f5f5f5;color:#000"/><g transform="matrix(1.581 0 0 1.667 55.5 844.3)"><path d="m 6 6 v 84 h 84 v -84 h -84 z m 1.38 2.34 h 7.97 v 8.84 h -7.97 v -8.84 z m 73.6 0 h 7.97 v 8.84 h -7.97 v -8.84 z m -73.6 23.5 h 7.97 v 8.84 h -7.97 v -8.84 z m 73.6 0 h 7.97 v 8.84 h -7.97 v -8.84 z m -73.6 23.47 h 7.97 v 8.84 h -7.97 v -8.84 z m 73.6 0 h 7.97 v 8.84 h -7.97 v -8.84 z m -73.6 23.5 h 7.97 v 8.84 h -7.97 v -8.84 z m 73.6 0 h 7.97 v 8.84 h -7.97 v -8.84 z"/><g transform="matrix(0.632 0 0 0.591 -35.1 -27)" style="fill:#fff;stroke:#fff;stroke-width:0.77"><path d="m 89.7 101.5 v -20.31 l 2.18 0.13 l 2.18 0.13 l 2.88 13.7 c 1.58 7.53 2.97 13.78 3.08 13.89 0.24 0.24 0.12 0.77 3.19 -13.85 1.39 -6.63 2.63 -12.47 2.75 -13 0.19 -0.83 0.49 -0.95 2.33 -0.95 h 2.11 v 20.29 v 20.29 h -1.27 h -1.27 l -0.03 -18.1 c -0.02 -11.5 -0.17 -17.76 -0.42 -17.22 -0.3 0.63 -5.89 26.4 -5.89 27.1 -0.97 0.21 -1.75 0.14 -2.82 0.14 l -2.88 -13.63 c -1.58 -7.5 -3.04 -13.81 -3.24 -14 -0.2 -0.22 -0.36 7.53 -0.36 17.65 v 18 h -1.27 h -1.27 v -20.31 z" style="opacity:0.9"/><path d="m 114.3 121.1 c 0.11 -0.41 2.08 -9.54 4.38 -20.29 l 4.19 -19.55 c 1.05 -0.07 2.25 0.03 3.18 0.21 0 0.12 1.9 9.1 4.23 19.93 2.32 10.84 4.23 19.88 4.23 20.1 0 0.2 -0.57 0.36 -1.26 0.36 -0.96 0 -1.31 -0.23 -1.48 -0.95 -0.3 -1.28 -1.91 -9.24 -1.91 -9.45 -3.81 -0.26 -6.73 -0.17 -10.84 -0.17 -0.67 3.52 -1.33 7 -2 10.56 -1.34 0.2 -2.3 -0.22 -2.71 -0.74 z m 12.93 -21.98 c -2.64 -12.62 -2.74 -13 -3 -12.36 -0.3 0.76 -4.09 19.1 -4.09 19.8 3 0.79 5.18 0.48 8.76 0.48 -0.56 -2.63 -1.09 -5.3 -1.67 -7.92 z" style="opacity:0.9"/><path d="m 138.3 101.5 v -20.29 h 1.47 h 1.47 l 0.11 8.7 l 0.11 8.7 l 5.19 -8.7 l 5.19 -8.7 h 1.71 h 1.71 l -0.84 1.37 c -4.98 8.13 -10.22 17.1 -10.22 17.55 0 0.44 6.29 11.97 10.84 19.86 l 1.03 1.8 l -1.81 -0.01 l -1.81 -0.01 l -5.5 -9.89 l -5.5 -9.89 l -0.11 9.9 l -0.11 9.9 h -1.47 h -1.47 v -20.29 z" style="opacity:0.9"/><path d="m 159 101.5 v -20.29 h 6.97 h 6.97 v 2.11 v 2.11 h -5.71 h -5.71 v 6.34 v 6.34 h 5.5 h 5.5 v 2.11 v 2.11 h -5.5 h -5.5 v 7.61 v 7.61 h 5.92 h 5.92 v 2.11 v 2.11 h -7.19 h -7.19 v -20.29 z" style="opacity:0.9"/><path d="m 133.4 173.1 c -0.1 -0.3 -2.06 -9.44 -4.34 -20.32 l -4.16 -19.78 l 1.23 -0.13 c 0.68 -0.07 1.3 -0.06 1.39 0.03 0.09 0.09 1.7 7.6 3.57 16.7 3.51 17 3.78 18.21 4 17.96 0.07 -0.08 1.68 -7.59 3.57 -16.7 1.89 -9.11 3.54 -16.9 3.66 -17.3 0.24 -0.81 2.7 -1.11 2.7 -0.32 0 0.47 -7.94 38.45 -8.29 39.68 -0.26 0.9 -3 1.07 -3.33 0.21 z" style="opacity:0.9;stroke-width:0.78"/><path d="m 100.1 172.1 c 0.11 -0.41 2.08 -9.54 4.38 -20.29 l 4.19 -19.55 c 1.05 -0.07 2.25 0.03 3.18 0.21 0 0.12 1.9 9.1 4.23 19.93 2.32 10.84 4.23 19.88 4.23 20.1 0 0.2 -0.57 0.36 -1.26 0.36 -0.96 0 -1.31 -0.23 -1.48 -0.95 -0.3 -1.28 -1.91 -9.24 -1.91 -9.45 -3.81 -0.26 -6.73 -0.17 -10.84 -0.17 -0.67 3.52 -1.33 7 -2 10.56 -1.34 0.2 -2.3 -0.22 -2.71 -0.74 z m 12.93 -21.98 c -2.64 -12.62 -2.74 -13 -3 -12.36 -0.3 0.76 -4.09 19.1 -4.09 19.8 3 0.79 5.18 0.48 8.76 0.48 -0.56 -2.63 -1.09 -5.3 -1.67 -7.92 z" style="opacity:0.9"/><g style="fill:#fff;stroke:none"><path d="m 155.7 139.1 h 3.72 v 34.48 h -3.72 z"/><path d="m 155.7 131.7 h 3.72 v 5 h -3.72 z"/></g></g></g></g></svg>