<svg xmlns="http://www.w3.org/2000/svg" xmlns:xlink="http://www.w3.org/1999/xlink" viewBox="0 0 256 256"><defs><path id="0" d="m 71.822 104.19 a 6.389 6.389 0 1 1 0 -0.001"/></defs><path d="M 2.6341538,157.47072 C 14.623817,260.5271 153.42278,288.10852 217.80449,214.53813 274.12816,159.89382 264.41284,55.291847 199.07664,19.42404 124.26597,-28.559248 10.577818,30.76074 1.0129738,126.27959 0.00543489,136.74378 0.50494565,147.31964 2.6252295,157.47072 z" style="fill:#4682b4;color:#000"/><rect width="61.1" height="59.73" x="140.4" y="67.81" ry="15.18" rx="14.38" style="fill:#00bfff"/><rect width="92.8" height="89.99" x="60.6" y="98.9" ry="15.18" rx="14.38" style="fill:#b0c4de"/><use transform="matrix(0.892 0 0 0.904 16.85 18.1)" xlink:href="#0" width="256" height="256" style="fill:#fff"/><use transform="matrix(0.892 0 0 0.904 33.2 18.48)" xlink:href="#0" width="256" height="256" style="fill:#fffafa"/><use transform="matrix(0.892 0 0 0.904 48.66 18.48)" xlink:href="#0" width="256" height="256" style="fill:#ffe4e1"/><g transform="matrix(1.02 0 0 0.997 10.12 10.84)" style="fill:#f0f8ff"><use transform="matrix(0.718 0 0 0.75 94.3 -8.5)" xlink:href="#0" width="256" height="256"/><use transform="matrix(0.718 0 0 0.75 107.8 -8.5)" xlink:href="#0" width="256" height="256"/></g></svg>