<svg xmlns="http://www.w3.org/2000/svg" viewBox="0 0 256 256"><path d="m 103.4 250.5 c -23.38 -9.97 -55.85 -24.64 -58.74 -26.54 c -1.77 -1.16 -4.74 -4.13 -6.61 -6.59 c -5.34 -7 -34.1 -57.2 -35.3 -61.7 c -1.16 -4.14 -0.64 -19.29 1.13 -32.97 c 4 -40.4 1.98 -39.49 7.29 -48.2 c 1.13 -2.35 12.59 -15.72 25.45 -29.72 c 24.74 -26.91 27.38 -29.1 37.82 -31.1 c 28.1 -4.84 45.87 -10.83 71.1 -12.31 c 22.45 9.59 46.66 19.61 67.88 31.61 c 3.31 2.84 8.23 10.28 19.29 29.1 c 22.63 38.61 20.81 34.4 20.67 47.9 c -2.27 21 -2.13 56.1 -9.42 71 c -2.52 4.7 -35.5 41.94 -45.93 51.85 c -5.18 4.93 -10.38 7.17 -22.44 9.67 c -12.21 4.54 -40.86 9.26 -50.68 11.1 c -5.66 1.32 -12.29 0.85 -21.48 -3.07" style="fill:#566d9f"/><g transform="translate(-1.1 1.1)"><path d="m 109.4 224.5 c -14.43 -9.4 -16.98 -10.43 -35.69 -14.37 -18.82 -3.96 -22.2 -7.37 -26.1 -26.1 -3.75 -18.2 -4.43 -19.93 -12.4 -32 -9.62 -14.6 -10.98 -17.35 -11.1 -22.25 c -0.08 -5.58 2.24 -10.64 10.68 -23.37 8.32 -12.54 9.31 -14.99 12.65 -31.49 2.81 -13.87 5.69 -19.97 10.84 -22.97 1.98 -1.15 9.55 -3.28 16.83 -4.73 15.96 -3.18 18.66 -4.25 31.45 -12.53 20.9 -13.53 25.39 -13.5 45.83 0.28 9.57 6.45 15.86 9 27.53 11.37 10.28 2.04 18.6 4.63 21.99 6.83 3.85 2.5 6.66 8.99 9.55 22.1 3.55 16.1 5.87 21.7 13.19 32.1 7.53 10.68 9.51 15.2 9.48 21.39 -0.03 5.75 -2.78 12.1 -9.4 21.52 -7.81 11.17 -10.44 17.32 -12.84 29.98 -2.49 13.1 -4.32 18.25 -7.89 22.1 -3.76 4 -6.88 5.23 -21.76 8.43 -14.78 3.18 -20.2 5.5 -32.95 14.1 -10.32 6.96 -14.29 8.59 -20.99 8.59 -4.89 0 -6.7 -0.84 -18.97 -8.84 z" style="fill:#002471"/><g transform="translate(1.1 -1.1)" style="fill:#fff"><path d="m 66.7 168.9 c -3.56 -1.08 -6.07 -2.57 -8.62 -5.15 -5.89 -5.95 -7.58 -15 -4.87 -25.95 0.72 -2.91 1.29 -3.43 2.49 -2.31 1.49 1.4 2 3.74 2.4 10.63 0.2 3.53 0.59 7.3 0.88 8.37 1.36 5.1 4.79 7.59 11.9 8.66 4.07 0.61 5.18 1.04 6.74 2.6 2.24 2.24 0.5 3.52 -5.06 3.69 -2.75 0.09 -4.21 -0.05 -5.86 -0.55 z"/><path d="m 100 195.5 c -4 -0.21 -5.82 -0.49 -8.24 -1.26 -9.3 -2.94 -19.25 -10.1 -23.98 -17.2 -3.2 -4.82 -3.36 -6.08 -0.73 -6.08 2.16 0 3.15 0.69 7.83 5.44 6.68 6.78 12.24 10.24 19.88 12.36 3 0.84 4.43 0.98 12.39 1.25 8.92 0.3 10.64 0.54 13.24 1.86 2.32 1.18 2.13 2.11 -0.6 2.88 -1.28 0.36 -11.94 1.17 -13.92 1.06 -0.4 -0.02 -3.04 -0.17 -5.86 -0.32 z"/><path d="m 99.7 179.9 c -7.24 -3.99 -22.8 -17 -26.3 -22 -0.95 -1.37 -1.09 -1.83 -0.93 -3.25 0.18 -1.57 0.67 -2.28 1.59 -2.29 0.82 -0.01 3.52 2.14 8.82 7 6.58 6.1 10.16 9.1 14.56 12.19 5.1 3.59 5.72 4.29 5.72 6 0 1.79 -0.55 3.34 -1.18 3.34 -0.26 0 -1.29 -0.46 -2.3 -1.02 z"/><path d="m 86.2 159.9 c -0.53 -0.49 -0.97 -1.23 -0.97 -1.63 0 -0.4 0.73 -2.51 1.62 -4.69 2.65 -6.48 3.7 -11.44 4.65 -22 l 0.44 -4.85 h 2.13 c 2.59 0 2.73 0.19 3.07 4.22 0.43 5.06 -1.34 15.62 -3.65 21.71 -1.18 3.11 -3.34 6.9 -4.32 7.59 -1.12 0.79 -1.85 0.71 -2.97 -0.34 z"/><path d="m 65.5 160.2 c -1.85 -1.3 -2.41 -4.16 -1.38 -7.1 2 -5.69 10.53 -13.15 17.8 -15.57 4.52 -1.51 5.3 -1.56 6.39 -0.47 2.08 2.08 0.59 3.97 -4.93 6.21 -6 2.44 -9.57 5.29 -12.1 9.67 -0.66 1.17 -1.89 3.35 -2.73 4.85 -0.84 1.5 -1.69 2.78 -1.9 2.84 -0.21 0.06 -0.74 -0.14 -1.19 -0.46 z"/><path d="m 63.5 144.5 c -5.17 -5.32 -12 -25.2 -11.54 -33.55 0.29 -5.35 3.64 -13.59 6.39 -15.75 0.94 -0.74 1.02 -0.75 1.46 -0.14 0.7 0.95 0.58 5.2 -0.22 7.88 -1.12 3.77 -1.19 4.26 -1.18 9.27 0.01 7.27 0.85 10.34 6 21.82 3.3 7.37 3.71 8.66 3.17 9.97 -0.86 2.08 -2.37 2.26 -4.08 0.5 z"/><path d="m 61.73 123.2 c -1.19 -2.69 -1.25 -3.68 -0.35 -5.43 2.18 -4.21 8.27 -12.81 11.68 -16.48 1.71 -1.84 2.14 -2.12 3.31 -2.12 0.74 0 1.71 0.26 2.16 0.57 1.59 1.11 1.12 2.25 -3.49 8.5 -2.37 3.21 -6 8.25 -8.1 11.21 -2.07 2.95 -3.93 5.37 -4.14 5.37 -0.21 0 -0.7 -0.73 -1.1 -1.62 z"/><path d="m 64.2 106.4 c -0.97 -1.52 -1.69 -4.77 -1.69 -7.62 0 -7.29 3.83 -15.23 10.6 -21.99 6.98 -6.97 17.29 -11.86 27.38 -12.99 2.91 -0.33 3.79 0.11 3.79 1.86 0 2.49 -0.97 3.17 -6.58 4.56 -4.68 1.16 -7.17 2.08 -11 4.07 -4.4 2.28 -7.57 4.65 -10.87 8.12 -4.59 4.83 -6.23 8.54 -7.25 16.37 -0.64 4.87 -0.73 5.24 -1.73 6.69 -1.11 1.6 -1.99 1.91 -2.62 0.92 z"/><path d="m 91.4 115.8 c -1.15 -1.23 -1.8 -2.47 -3.07 -5.84 c -2.46 -6.52 -6.45 -10.61 -12.82 -13.1 c -3.86 -1.52 -4.95 -2.09 -4.95 -2.58 0 -0.25 0.66 -1.37 1.46 -2.49 l 1.46 -2.04 l 2.85 0.89 c 5.09 1.59 7.79 3.15 10.58 6.1 3.63 3.85 6.71 9.39 8 14.41 0.97 3.72 0.61 5.07 -1.46 5.47 -0.89 0.17 -1.28 0.02 -2.07 -0.82 z"/><path d="m 86.4 93.5 c -0.45 -0.31 -1.05 -1.03 -1.34 -1.58 -0.48 -0.92 -0.45 -1.09 0.28 -1.95 1.06 -1.25 4.68 -3.99 9.41 -7.13 11.69 -7.76 18.33 -10.7 23.2 -10.27 1.95 0.17 4.68 1.38 4.68 2.07 0 0.16 -1.61 0.99 -3.57 1.85 -8.84 3.88 -15.66 7.6 -23.71 12.92 -5.46 3.61 -7.22 4.67 -7.8 4.67 -0.17 0 -0.67 -0.26 -1.12 -0.57 z"/><path d="m 150.5 122.6 c -19.5 -5.1 -35.55 -17.44 -42.3 -32.49 -1.88 -4.22 -1.87 -4.93 0.09 -6.35 0.85 -0.61 1.77 -1.07 2.06 -1 0.53 0.11 1.75 2.05 4.98 7.92 4.89 8.88 13 16.18 23.73 21.3 6 2.88 10 4.33 14.23 5.19 5.23 1.06 6.26 2.15 4.78 5.06 -0.69 1.35 -0.89 1.49 -2.13 1.48 -0.75 -0.01 -3.22 -0.5 -5.48 -1.09 z"/><path d="m 140.7 77.4 c -0.81 -0.26 -3.33 -1.16 -5.62 -1.99 -4.61 -1.68 -7.57 -2.48 -14.35 -3.9 -5.56 -1.16 -6.23 -1.53 -6.23 -3.41 0 -3.67 2.82 -3.82 14.66 -0.76 8.5 2.2 13.66 4.26 14.81 5.9 0.66 0.94 0.76 2.94 0.2 3.98 -0.44 0.81 -1.38 0.86 -3.47 0.18 z"/><path d="m 106.3 72.7 c -0.98 -0.72 -0.56 -4.51 0.85 -7.61 5.22 -11.49 16.39 -17.25 27.56 -14.23 2.39 0.65 4.56 1.84 7.98 4.39 4.88 3.65 6.1 5.99 3.51 6.73 -1.89 0.54 -3.54 -0.02 -7.1 -2.38 -4.08 -2.7 -6.67 -3.68 -9.87 -3.69 -3.9 -0.02 -7 1.16 -10.63 3.97 -2.48 1.95 -3.35 3.04 -5.95 7.47 -2.18 3.71 -3.18 4.86 -4.73 5.45 -0.71 0.27 -1.14 0.24 -1.61 -0.1 z"/><path d="m 188.3 88.2 c -0.81 -0.39 -3.38 -2.65 -5.76 -5.08 -5.83 -5.94 -11.63 -9.74 -18.42 -12.1 -2.2 -0.75 -3.71 -0.93 -10.63 -1.25 -11.91 -0.55 -17.38 -1.59 -17.71 -3.36 -0.28 -1.52 5.94 -2.47 16.21 -2.46 11.19 0 17.43 1.76 25.86 7.26 5.89 3.85 14.94 14.16 14.59 16.62 -0.16 1.14 -2.14 1.3 -4.15 0.33 z"/><path d="m 132.9 106.5 c -0.84 -0.61 -1.52 -1.27 -1.52 -1.48 0 -0.21 1.48 -2.05 3.3 -4.09 7.48 -8.43 10.47 -14.4 11.35 -22.7 0.49 -4.54 0.61 -5 1.56 -6.1 1.89 -2.07 4.24 -1.14 5 1.98 0.85 3.38 -1.15 11.29 -4.61 18.2 -3.57 7.1 -10.56 15.29 -13.1 15.29 -0.28 0 -1.2 -0.5 -2.03 -1.1 z"/><path d="m 92.7 124.3 c -0.6 -0.08 -2.41 -0.33 -4 -0.55 -5.74 -0.78 -12.99 -3.67 -15.34 -6.12 -1.24 -1.29 -1.35 -2.13 -0.46 -3.47 1.06 -1.61 1.93 -1.58 5.92 0.21 6.44 2.89 9.48 3.55 16.46 3.58 6.95 0.02 12.1 -1.1 20.78 -4.55 5.16 -2.05 6.72 -2.17 8.42 -0.65 1.15 1.03 1.17 1.07 0.56 2 -2.72 4.15 -24.61 10.62 -32.3 9.55 z"/><path d="m 145.7 175.7 c -0.59 -0.86 -1.69 -2.79 -2.44 -4.31 -3.86 -7.72 -9.57 -14.17 -16.83 -19 -6.67 -4.45 -11.88 -6.8 -21.62 -9.77 -6.14 -1.87 -7.69 -3.61 -5.07 -5.68 1.18 -0.93 3 -0.93 6.67 0 13.26 3.39 26.1 10.72 33.61 19.26 4.84 5.47 9.8 13.83 10.27 17.28 0.18 1.36 0.08 1.66 -0.91 2.65 -1.54 1.54 -2.39 1.43 -3.67 -0.44 z"/><path d="m 133.2 147.2 c -1.03 -1.03 -1.06 -1.14 -0.56 -2.11 1.04 -2 7.09 -4.87 14.83 -7 8.44 -2.36 15.34 -3.04 20.94 -2.07 6 1.04 10.88 2.7 13.89 4.73 3.27 2.21 3.62 3.08 2 5 -1.18 1.4 -1.77 1.33 -6.53 -0.79 -5.61 -2.5 -7.95 -2.97 -14.85 -2.99 -8.19 -0.02 -12.9 0.96 -21.86 4.57 -5.26 2.12 -6.36 2.22 -7.87 0.71 z"/><path d="m 161.2 133.1 c -0.65 -0.48 -0.71 -0.99 -0.69 -6.32 0.01 -3.19 0.23 -7 0.48 -8.55 2.11 -12.53 7.64 -21.71 11 -18.32 1.07 1.07 0.92 2.05 -0.89 5.78 -2.93 6 -3.79 9.57 -4.78 19.79 -0.3 3.08 -0.65 6 -0.78 6.53 -0.37 1.49 -2.95 2.13 -4.37 1.09 z"/><path d="m 168.8 122.7 c -0.58 -1.08 -0.45 -2.78 0.26 -3.65 0.35 -0.43 2.47 -1.57 4.7 -2.55 2.23 -0.98 4.79 -2.28 5.68 -2.89 4.58 -3.16 7.85 -7.08 9.13 -10.92 0.99 -2.98 2.06 -3.88 3.49 -2.94 1.5 0.98 2.43 2.76 2.21 4.24 -0.28 1.91 -2.7 6.36 -4.9 9 -3.24 3.93 -8.82 7.47 -14.88 9.45 -3.5 1.14 -5.17 1.21 -5.7 0.23 z"/><path d="m 182.5 107.2 c -0.6 -0.45 -4.64 -4 -8.98 -7.91 -4.33 -3.9 -10.35 -8.95 -13.38 -11.21 -3 -2.26 -5.72 -4.38 -6 -4.71 -0.69 -0.83 -0.26 -2.85 0.82 -3.86 0.71 -0.67 1.02 -0.74 1.83 -0.43 2.23 0.85 11.32 7.53 16.72 12.29 4.16 3.67 11 10.59 11.6 11.65 0.49 0.94 0.46 1.19 -0.38 3 -0.5 1.1 -0.96 1.99 -1.03 1.99 -0.06 -0.01 -0.61 -0.38 -1.21 -0.82 z"/><path d="m 201.6 124.2 c -1.36 -1.54 -2.45 -6.85 -2.48 -12.19 -0.03 -5.4 -1.34 -9.32 -3.91 -11.79 -2 -1.91 -3.89 -2.77 -8 -3.67 -1.99 -0.43 -4.14 -1 -4.78 -1.26 -1.68 -0.7 -3.44 -2.3 -3.44 -3.12 0 -1 2.09 -1.8 5.29 -2.04 7.78 -0.56 16 4.56 19.47 12.1 1.91 4.17 1.96 16.93 0.08 20.68 -0.96 1.93 -1.4 2.17 -2.2 1.26 z"/><path d="m 196.9 164.2 c -0.57 -1.51 -0.42 -3.23 0.56 -6.28 2.17 -6.76 2.04 -15.63 -0.33 -22.43 -0.67 -1.93 -2.5 -6.48 -4.07 -10.1 -3.31 -7.68 -3.69 -9.78 -1.95 -10.78 0.92 -0.52 1.06 -0.51 2 0.19 3.72 2.75 8.71 13.3 11.15 23.56 1.05 4.41 1.3 11.48 0.54 15 -0.71 3.34 -2.53 7.24 -4.57 9.81 -1.72 2.16 -2.79 2.47 -3.35 0.98 z"/><path d="m 178.7 160 c -0.82 -0.5 -1.19 -1 -1.19 -1.61 0 -0.56 1.46 -2.82 3.97 -6.14 2.18 -2.89 5.8 -8 8 -11.36 2.24 -3.36 4.23 -6.2 4.41 -6.31 0.85 -0.52 2.63 2.56 2.63 4.54 0 3.96 -12.93 21.62 -15.83 21.61 -0.47 0 -1.38 -0.33 -2.04 -0.73 z"/><path d="m 179.9 168.9 c -5.28 -1.51 -8.99 -4.25 -12.16 -8.98 -3.1 -4.63 -5.94 -12.72 -5.37 -15.29 0.25 -1.16 1.38 -1.65 2.8 -1.22 1.3 0.39 2.87 2.04 2.87 3 0 1.24 1.97 5.7 3.84 8.71 3 4.82 5.42 6.65 10.49 7.92 1.69 0.42 3.28 0.94 3.53 1.14 0.55 0.45 0.6 2.62 0.08 3.6 -0.44 0.82 -2.22 1.82 -3.18 1.79 -0.36 -0.01 -1.67 -0.32 -2.91 -0.67 z"/><path d="m 153.4 195.3 c -0.71 -0.58 -0.82 -0.92 -0.62 -1.83 0.37 -1.7 1.62 -2.61 4.44 -3.26 8.18 -1.89 12.8 -3.7 17.74 -6.95 3.35 -2.21 6.96 -5.53 9 -8.29 2.9 -3.92 5.56 -12.24 5.06 -15.84 -0.39 -2.87 1.66 -6.71 3.41 -6.38 1.57 0.29 2.95 6.08 2.56 10.75 -1.09 12.92 -14.37 26.34 -30.83 31.1 -1.9 0.56 -4.69 1.05 -6.6 1.17 -2.9 0.18 -3.4 0.12 -4.17 -0.5 z"/><path d="m 137.5 186.6 c -0.97 -0.26 -1.93 -0.64 -2.13 -0.84 -0.24 -0.24 2.55 -1.86 8.17 -4.77 10.18 -5.25 13.5 -7.18 20.2 -11.71 2.77 -1.88 5.37 -3.42 5.78 -3.42 0.4 0 1.34 0.56 2.09 1.24 1.22 1.12 1.31 1.33 0.94 2.16 -1.21 2.65 -20.36 14.95 -26.66 17.1 -2.45 0.84 -5.72 0.93 -8.37 0.21 z"/><path d="m 126.5 209.8 c -5.35 -0.83 -11 -3.9 -14.51 -7.86 -1.83 -2.08 -2.05 -3.61 -0.61 -4.26 1.36 -0.62 3.33 0.11 7.2 2.65 5.6 3.68 9.47 4.4 14.5 2.72 5.36 -1.8 7.69 -3.83 10.91 -9.51 2.3 -4.05 4.22 -6.25 5.74 -6.56 1.5 -0.3 2.14 0.28 2.14 1.93 -0.01 4.65 -4.48 12.1 -9.57 15.97 -4.93 3.73 -11.1 5.65 -15.8 4.92 z"/><path d="m 136.6 194.6 c -6.18 -1.36 -20.2 -5.78 -21.95 -6.92 -1.69 -1.11 -2.6 -4.39 -1.47 -5.33 0.69 -0.57 1.33 -0.43 10.27 2.26 4 1.21 9.55 2.69 12.27 3.29 5.8 1.27 7.11 1.89 7.23 3.44 0.09 1.14 -0.56 2.13 -2.09 3.2 -1.04 0.73 -1.24 0.73 -4.27 0.06 z"/><path d="m 105.7 187.5 c -0.81 -0.66 -0.86 -0.92 -0.8 -4.31 0.11 -6.16 2.78 -13.38 7.71 -20.8 2.71 -4.08 7.9 -9.56 9.41 -9.94 1.17 -0.29 3.04 0.42 3.54 1.35 0.51 0.95 -0.21 2.21 -3.38 5.88 -4.16 4.82 -5.79 7.18 -7.65 11.1 -2.03 4.28 -2.33 5.43 -3.09 11.56 -0.47 3.8 -0.69 4.67 -1.34 5.21 -1.04 0.86 -3.32 0.83 -4.41 -0.06 z"/></g></g></svg>