<svg xmlns="http://www.w3.org/2000/svg" viewBox="0 0 256 256"><defs><clipPath><path d="m 30,94 2,2 3,10 1,-12 3,15 V 90 l 2,5 3,14 V 90 l 2,2 3,17 3,-23 6.615678,25.91971 L 59,96 l 2,-6 2,25 6,-25 2,21 5,-22 5,24 1,-18 3,-6 1,23 5,-22 3,10 1,-9 3,6 V 78 L 95,86 94,69 92,82 90,78 89,64 84,83 83,79 80,49 77,75 75,83 71,56 67,79 65,85 64,43.695313 58,90 52,48 49,84 47,80 45,56 44,80 41,87 39,63 37,82 34,77 V 91 L 30,76 Z"/></clipPath><clipPath><circle r="71.8" cy="74.2" cx="74.92"/></clipPath><clipPath><circle r="22.98" cy="84.6" cx="230.5"/></clipPath><clipPath><ellipse ry="5" rx="5" cy="114" cx="382" style="fill:#fff;opacity:0.5;color:#000"/><ellipse ry="5" rx="5" cy="114" cx="372" style="fill:#fff;opacity:0.5;color:#000"/><ellipse ry="5" rx="5" cy="114" cx="362" style="fill:#fff;opacity:0.5;color:#000"/><ellipse ry="5" rx="5" cy="114" cx="352" style="fill:#fff;color:#000"/><ellipse ry="5" rx="5" cy="114" cx="342" style="fill:#fff;color:#000"/><ellipse ry="5" rx="5" cy="114" cx="332" style="fill:#fff;opacity:0.5;color:#000"/><ellipse ry="5" rx="5" cy="114" cx="322" style="fill:#fff;opacity:0.5;color:#000"/><ellipse ry="5" rx="5" cy="104" cx="382" style="fill:#fff;opacity:0.5;color:#000"/><ellipse ry="5" rx="5" cy="104" cx="372" style="fill:#fff;opacity:0.5;color:#000"/><ellipse ry="5" rx="5" cy="104" cx="362" style="fill:#fff;opacity:0.5;color:#000"/><ellipse ry="5" rx="5" cy="104" cx="352" style="fill:#fff;color:#000"/><ellipse ry="5" rx="5" cy="104" cx="342" style="fill:#fff;opacity:0.5;color:#000"/><ellipse ry="5" rx="5" cy="104" cx="332" style="fill:#fff;opacity:0.5;color:#000"/><ellipse ry="5" rx="5" cy="104" cx="322" style="fill:#fff;opacity:0.5;color:#000"/><ellipse ry="5" rx="5" cy="94" cx="382" style="fill:#fff;opacity:0.5;color:#000"/><ellipse ry="5" rx="5" cy="94" cx="372" style="fill:#fff;opacity:0.5;color:#000"/><ellipse ry="5" rx="5" cy="94" cx="362" style="fill:#fff;opacity:0.5;color:#000"/><ellipse ry="5" rx="5" cy="94" cx="352" style="fill:#fff;color:#000"/><ellipse ry="5" rx="5" cy="94" cx="342" style="fill:#fff;opacity:0.5;color:#000"/><ellipse ry="5" rx="5" cy="94" cx="332" style="fill:#fff;opacity:0.5;color:#000"/><ellipse ry="5" rx="5" cy="94" cx="322" style="fill:#fff;opacity:0.5;color:#000"/><ellipse ry="5" rx="5" cy="84" cx="382" style="fill:#fff;opacity:0.5;color:#000"/><ellipse ry="5" rx="5" cy="84" cx="372" style="fill:#fff;opacity:0.5;color:#000"/><ellipse ry="5" rx="5" cy="84" cx="362" style="fill:#fff;opacity:0.5;color:#000"/><ellipse ry="5" rx="5" cy="84" cx="352" style="fill:#fff;color:#000"/><ellipse ry="5" rx="5" cy="84" cx="342" style="fill:#fff;opacity:0.5;color:#000"/><ellipse ry="5" rx="5" cy="84" cx="332" style="fill:#fff;opacity:0.5;color:#000"/><ellipse ry="5" rx="5" cy="84" cx="322" style="fill:#fff;opacity:0.5;color:#000"/><ellipse ry="5" rx="5" cy="74" cx="382" style="fill:#fff;opacity:0.5;color:#000"/><ellipse ry="5" rx="5" cy="74" cx="372" style="fill:#fff;opacity:0.5;color:#000"/><ellipse ry="5" rx="5" cy="74" cx="362" style="fill:#fff;color:#000"/><ellipse ry="5" rx="5" cy="74" cx="352" style="fill:#fff;color:#000"/><ellipse ry="5" rx="5" cy="74" cx="342" style="fill:#fff;color:#000"/><ellipse ry="5" rx="5" cy="74" cx="332" style="fill:#fff;opacity:0.5;color:#000"/><ellipse ry="5" rx="5" cy="74" cx="322" style="fill:#fff;opacity:0.5;color:#000"/><ellipse ry="5" rx="5" cy="64" cx="382" style="fill:#fff;opacity:0.5;color:#000"/><ellipse ry="5" rx="5" cy="64" cx="372" style="fill:#fff;color:#000"/><ellipse ry="5" rx="5" cy="64" cx="362" style="fill:#fff;opacity:0.5;color:#000"/><ellipse ry="5" rx="5" cy="64" cx="352" style="fill:#fff;opacity:0.5;color:#000"/><ellipse ry="5" rx="5" cy="64" cx="342" style="fill:#fff;opacity:0.5;color:#000"/><ellipse ry="5" rx="5" cy="64" cx="332" style="fill:#fff;color:#000"/><ellipse ry="5" rx="5" cy="64" cx="322" style="fill:#fff;opacity:0.5;color:#000"/><ellipse ry="5" rx="5" cy="54" cx="382" style="fill:#fff;opacity:0.5;color:#000"/><ellipse ry="5" rx="5" cy="54" cx="372" style="fill:#fff;opacity:0.5;color:#000"/><ellipse ry="5" rx="5" cy="54" cx="362" style="fill:#fff;color:#000"/><ellipse ry="5" rx="5" cy="54" cx="352" style="fill:#fff;color:#000"/><ellipse ry="5" rx="5" cy="54" cx="342" style="fill:#fff;color:#000"/><ellipse ry="5" rx="5" cy="54" cx="332" style="fill:#fff;opacity:0.5;color:#000"/><ellipse ry="5" rx="5" cy="54" cx="322" style="fill:#fff;opacity:0.5;color:#000"/></clipPath><clipPath><ellipse ry="5" rx="5" cy="114" cx="382" style="fill:#fff;opacity:0.5;color:#000"/><ellipse ry="5" rx="5" cy="114" cx="372" style="fill:#fff;opacity:0.5;color:#000"/><ellipse ry="5" rx="5" cy="114" cx="362" style="fill:#fff;opacity:0.5;color:#000"/><ellipse ry="5" rx="5" cy="114" cx="352" style="fill:#fff;color:#000"/><ellipse ry="5" rx="5" cy="114" cx="342" style="fill:#fff;color:#000"/><ellipse ry="5" rx="5" cy="114" cx="332" style="fill:#fff;opacity:0.5;color:#000"/><ellipse ry="5" rx="5" cy="114" cx="322" style="fill:#fff;opacity:0.5;color:#000"/><ellipse ry="5" rx="5" cy="104" cx="382" style="fill:#fff;opacity:0.5;color:#000"/><ellipse ry="5" rx="5" cy="104" cx="372" style="fill:#fff;opacity:0.5;color:#000"/><ellipse ry="5" rx="5" cy="104" cx="362" style="fill:#fff;opacity:0.5;color:#000"/><ellipse ry="5" rx="5" cy="104" cx="352" style="fill:#fff;color:#000"/><ellipse ry="5" rx="5" cy="104" cx="342" style="fill:#fff;opacity:0.5;color:#000"/><ellipse ry="5" rx="5" cy="104" cx="332" style="fill:#fff;opacity:0.5;color:#000"/><ellipse ry="5" rx="5" cy="104" cx="322" style="fill:#fff;opacity:0.5;color:#000"/><ellipse ry="5" rx="5" cy="94" cx="382" style="fill:#fff;opacity:0.5;color:#000"/><ellipse ry="5" rx="5" cy="94" cx="372" style="fill:#fff;opacity:0.5;color:#000"/><ellipse ry="5" rx="5" cy="94" cx="362" style="fill:#fff;opacity:0.5;color:#000"/><ellipse ry="5" rx="5" cy="94" cx="352" style="fill:#fff;color:#000"/><ellipse ry="5" rx="5" cy="94" cx="342" style="fill:#fff;opacity:0.5;color:#000"/><ellipse ry="5" rx="5" cy="94" cx="332" style="fill:#fff;opacity:0.5;color:#000"/><ellipse ry="5" rx="5" cy="94" cx="322" style="fill:#fff;opacity:0.5;color:#000"/><ellipse ry="5" rx="5" cy="84" cx="382" style="fill:#fff;opacity:0.5;color:#000"/><ellipse ry="5" rx="5" cy="84" cx="372" style="fill:#fff;opacity:0.5;color:#000"/><ellipse ry="5" rx="5" cy="84" cx="362" style="fill:#fff;opacity:0.5;color:#000"/><ellipse ry="5" rx="5" cy="84" cx="352" style="fill:#fff;color:#000"/><ellipse ry="5" rx="5" cy="84" cx="342" style="fill:#fff;opacity:0.5;color:#000"/><ellipse ry="5" rx="5" cy="84" cx="332" style="fill:#fff;opacity:0.5;color:#000"/><ellipse ry="5" rx="5" cy="84" cx="322" style="fill:#fff;opacity:0.5;color:#000"/><ellipse ry="5" rx="5" cy="74" cx="382" style="fill:#fff;opacity:0.5;color:#000"/><ellipse ry="5" rx="5" cy="74" cx="372" style="fill:#fff;opacity:0.5;color:#000"/><ellipse ry="5" rx="5" cy="74" cx="362" style="fill:#fff;color:#000"/><ellipse ry="5" rx="5" cy="74" cx="352" style="fill:#fff;color:#000"/><ellipse ry="5" rx="5" cy="74" cx="342" style="fill:#fff;color:#000"/><ellipse ry="5" rx="5" cy="74" cx="332" style="fill:#fff;opacity:0.5;color:#000"/><ellipse ry="5" rx="5" cy="74" cx="322" style="fill:#fff;opacity:0.5;color:#000"/><ellipse ry="5" rx="5" cy="64" cx="382" style="fill:#fff;opacity:0.5;color:#000"/><ellipse ry="5" rx="5" cy="64" cx="372" style="fill:#fff;color:#000"/><ellipse ry="5" rx="5" cy="64" cx="362" style="fill:#fff;opacity:0.5;color:#000"/><ellipse ry="5" rx="5" cy="64" cx="352" style="fill:#fff;opacity:0.5;color:#000"/><ellipse ry="5" rx="5" cy="64" cx="342" style="fill:#fff;opacity:0.5;color:#000"/><ellipse ry="5" rx="5" cy="64" cx="332" style="fill:#fff;color:#000"/><ellipse ry="5" rx="5" cy="64" cx="322" style="fill:#fff;opacity:0.5;color:#000"/><ellipse ry="5" rx="5" cy="54" cx="382" style="fill:#fff;opacity:0.5;color:#000"/><ellipse ry="5" rx="5" cy="54" cx="372" style="fill:#fff;opacity:0.5;color:#000"/><ellipse ry="5" rx="5" cy="54" cx="362" style="fill:#fff;color:#000"/><ellipse ry="5" rx="5" cy="54" cx="352" style="fill:#fff;color:#000"/><ellipse ry="5" rx="5" cy="54" cx="342" style="fill:#fff;color:#000"/><ellipse ry="5" rx="5" cy="54" cx="332" style="fill:#fff;opacity:0.5;color:#000"/><ellipse ry="5" rx="5" cy="54" cx="322" style="fill:#fff;opacity:0.5;color:#000"/></clipPath><linearGradient gradientUnits="userSpaceOnUse" y2="5.61" x2="36.4" y1="74.1" x1="35.63" id="0" gradientTransform="matrix(1.067 0 0 1.106 -5.54 -7)"><stop style="stop-color:#076bb4"/><stop offset="1" style="stop-color:#21cdf7"/></linearGradient><linearGradient gradientUnits="userSpaceOnUse" y2="-19.94" x2="74.5" y1="103.1" x1="77.1" id="1"><stop style="stop-color:#0d0d0d"/><stop offset="1" style="stop-color:#262626"/></linearGradient><linearGradient id="2" gradientUnits="userSpaceOnUse" x1="55.72" y1="61.2" x2="56.73" y2="30.51"><stop style="stop-color:#bd0000"/><stop offset="1" style="stop-color:#ff1616"/></linearGradient></defs><path d="m 27.44 54.2 c -91.8 106.9 86 266.8 189.8 172.6 116.3 -103.3 -61.2 -305.7 -177.7 -190.7 c -7.1 5.99 -8 12.1 -12 18.1" style="fill:#1a1a1a"/><g transform="matrix(1.51 0 0 1.681 12.96 59.78)" style="stroke:#000"><g transform="translate(-1 1.77)" style="stroke-width:1.55"><path d="m 38.1 -2.29 l -0.35 10.36 l 3.93 1.49 l -4 1.88 l 3.81 1.97 l -3.86 2.63 l 3.89 0.46 l -3.56 2.99 l 0.06 1.71 c -4.4 4.05 -5.95 9.12 -6.65 14.7 -2.09 17.39 15.29 35.3 38.83 39.92 23.58 4.68 44.3 -5.64 46.4 -23 0.1 -0.79 0.14 -1.57 0.16 -2.37 5 -6.36 10.17 -11.91 13.87 -19 -7.44 -0.88 -13.98 -0.8 -20.2 -0.46 3.5 -3.27 7.68 -7.54 11.18 -12.15 -4.88 2.55 -9.55 3.84 -12.49 4.89 3.2 -4.11 6.16 -7.85 7.97 -11.92 l -13.28 7.2 l 4.25 -9.54 c -6.61 4.42 -11.13 6.31 -15.8 8.36 -4.56 -2.21 -9.46 -3.89 -14.49 -4.91 -6.69 -1.33 -14.1 -1.47 -20.38 -0.42 -9.13 -9.43 -13.67 -11.39 -19.2 -14.74" style="fill:url(#0)"/><g transform="translate(0.5 -1.77)" style="fill:url(#1)"><path d="m 76.3 45.2 c 0 0 5.92 -11.1 20.1 -7.24 14.22 3.85 14 14.52 14 14.52 0 0 -5.54 10.73 -19.56 7.29 -14 -3.44 -14.62 -14.58 -14.62 -14.58"/><path d="m 35.91 37.4 c 0 0 5.92 -11.1 20.1 -7.24 14.22 3.85 14 14.52 14 14.52 0 0 -5.54 10.73 -19.56 7.29 -14 -3.44 -14.62 -14.58 -14.62 -14.58"/></g></g><g style="fill:none;stroke-linecap:round;stroke-width:2.12"><path d="M 62.2,56.91 52.6,54.56"/><path d="M 61,60.4 52.48,60.3"/><path d="m 75.3,59.97 12.54,2"/><path d="m 74.6,63.7 7.87,3.81"/><path d="M 71.2,67.1 C 70,64.81 68.83,62.96 67.38,54.85 l 3.92,1.37 c -2.4,4.06 -4.98,7.11 -7.64,9.6" style="stroke-linejoin:round"/><path d="M 73.2,33 70.55,27.61"/><path d="m 76.1,26.2 0.78,-5.19"/><path d="m 78.4,31.3 3.43,-4.7"/></g><g style="fill:url(#2);stroke-width:1.55"><path d="m 101.8 40 a 12.82 12.71 0 0 0 -8.4 11.92 12.82 12.71 0 0 0 3.25 8.44 c 9.81 -0.21 13.83 -7.94 13.83 -7.94 0 0 0.09 -7.75 -8.69 -12.43 z"/><path d="m 61.4 32.3 a 12.82 12.71 0 0 0 -8.4 11.92 12.82 12.71 0 0 0 3.25 8.44 c 9.81 -0.21 13.83 -7.94 13.83 -7.94 0 0 0.09 -7.75 -8.69 -12.43 z"/></g></g></svg>