<svg xmlns="http://www.w3.org/2000/svg" viewBox="0 0 256 256"><path d="m 4.57 154.4 c 19.75 130.2 216.5 134 246.2 7.55 30.61 -102.4 -80.2 -186.1 -163.1 -152.6 -55.5 15.89 -100.4 80.7 -83.1 145.1" style="fill:#ba55d3"/><path d="m 195.6 137.1 a 64.93 63.4 0 1 1 -129.9 0 64.93 63.4 0 1 1 129.9 0 z" transform="matrix(1.296 0 0 1.332 -40.2 -51.3)" style="fill:#8b008b"/><g style="fill:#fff"><path d="m 115.4 186 c -9.11 -3.24 -23.27 -12.52 -27.1 -19.55 -4.3 -7.99 -5.83 -13.19 -5.89 -20.1 -0.06 -6.3 0.87 -9.54 4.87 -16.94 1.68 -3.11 3.13 -5.73 3.23 -5.82 0.28 -0.28 5 4.36 5.68 5.56 0.68 1.25 0.62 1.68 -1.14 7.66 -2.17 7.4 -2.04 15.6 0.36 21.42 3.68 8.93 11.22 14.93 22.77 18.1 4.94 1.36 6 1.24 15.22 -1.74 4 -1.3 7.41 -2.36 7.57 -2.36 0.41 0 6.73 5.19 6.82 5.6 -8.56 8.65 -24 9.59 -32.39 8.11 z"/><path d="m 162.7 157.6 c -2.45 -3.78 -0.79 -8.56 0.06 -13.1 1.09 -5.72 0.65 -9.98 -1.61 -15.71 -1.18 -2.98 -5.1 -9.89 -6.09 -10.7 -0.49 -0.41 -1.44 -0.12 -5.19 1.56 -8.39 3.76 -14.61 4.63 -18.79 2.36 -2.26 -1.23 -8.35 -10 -7.97 -10.64 0.3 -0.49 4.96 1.58 11.93 1.08 6.57 -0.47 8.84 -1.09 13.37 -3.67 1.89 -1.08 3.95 -2.09 4.56 -2.23 2.92 -0.7 6.36 1.24 10.23 5.77 6.73 7.89 10.1 19 9.1 30 -0.53 5.73 -1.58 11.39 -2.31 12.52 -0.92 1.42 -1.39 11.79 -7.28 2.69 z"/><path d="m 134.8 100.6 c -2.7 -3.72 -1.5 -9.27 1.79 -10.7 2.49 -1.04 4.82 -0.68 6.33 1 4.22 6.12 -1.09 14.53 -8.12 9.7 z"/><path d="m 113.3 106.3 c -1.84 -1.16 -3.42 -4.14 -3.83 -7.21 -0.34 -4 3.11 -5.25 5.59 -5.25 5.37 0 7.45 1.7 7.4 6 -0.07 5.72 -4.91 9.13 -9.16 6.45 z"/><path d="m 120.3 89.6 c -1.72 -1.87 -2.36 -3.73 -2.36 -6.95 0 -4.39 1.65 -6.61 5.1 -6.89 5.4 0.05 8.65 6.61 6.24 10.53 -2.51 2.79 -6.74 5.49 -8.98 3.3 z"/><path d="m 133 68.7 c -0.46 -4.96 4.53 -7.63 8.29 -7.82 1.83 0 6.39 5.18 6.38 8.54 -0.02 6.42 -4.68 6.21 -7.76 7.26 -3.78 0.64 -6.59 -4.45 -6.91 -7.99 z"/></g><path transform="matrix(0.724 -0.69 0.718 0.696 0 0)" d="m -19.64 131.9 h 16.1 v 115.1 h -16.1 z" style="fill:#ff4500"/></svg>