<svg xmlns="http://www.w3.org/2000/svg" viewBox="0 0 256 256"><path d="m 243.7 188 c -50.1 119.8 -243.9 66.4 -242.6 -64.2 -1.94 -118.6 152.2 -163.6 219.7 -79.1 c 33.78 36.55 45.59 97.1 22.95 143.3" style="fill:#ef1970"/><g transform="matrix(0.927 0 0 0.936 192.7 -151.4)" style="fill:#fff"><path d="m 92.5 244.2 c -7.47 -1.17 -13.99 -4.46 -17.37 -8.77 -5.4 -6.87 -6.79 -17.99 -3.09 -24.69 2.65 -4.8 8 -7 21.31 -8.88 9.74 -1.34 12.63 -2.46 15.94 -6.13 3.21 -3.55 4.05 -5.54 4.07 -9.69 0.02 -3.32 -0.28 -4.3 -2.95 -9.8 -5.21 -10.71 -13.41 -25.5 -17.44 -30.34 -2.64 -4.16 -36.88 14.61 -41.86 17.73 -9.9 6.23 -18.56 10.93 -23.1 12.54 -23.9 1.89 -22.61 -23.44 -11.26 -36.87 3.35 -3.35 10.94 -7.73 30.1 -17.36 9 -4.52 20.1 -10.24 24.68 -12.71 9.84 -5.3 9.37 -4.12 6.28 -15.68 c -3.91 -14.62 -4.27 -16.71 -4.57 -26.51 -0.49 -15.88 1.52 -22.89 8.71 -30.52 13.21 -14 40.1 -20.9 54.77 -14 c 5.55 2.6 10 7.45 13.55 14.68 3.13 6.43 4.92 11.59 8.83 25.43 4 14.18 4.57 15.2 8.72 15.2 4.17 0 8 -2.25 10.97 -6.4 2.69 -3.8 3.95 -6.52 9.83 -21.25 2.17 -5.44 5.78 -13.47 8 -17.86 6.8 -16.34 34.5 19.4 31.92 23.63 -0.45 0.71 -1.87 4.21 -3.16 7.77 -6 16.69 -10.74 23.36 -33.94 48.1 -4.85 5.18 -9.25 10.31 -9.77 11.41 -1.61 3.4 -0.65 4.95 7.78 12.55 11.64 10.48 19.87 20 23.47 27.2 4.05 8.1 10.15 25.1 15.2 42.2 5.4 13.27 -16.51 27.1 -24.44 27.3 -8.74 -0.02 -11.85 -0.78 -15.36 -3.78 -3.76 -3.22 -5.32 -7.94 -6.33 -19.2 -1.46 -16.21 -7.38 -28.2 -16 -32.44 -2.98 -1.47 -4.09 -1.72 -6.89 -1.58 l -3.34 0.17 l -0.14 3.95 c -0.08 2.17 -0.53 8.45 -1 13.96 -2.47 28.53 -10.72 39.4 -35.54 46.96 -11.47 3.48 -20.2 4.7 -26.5 3.7 z m 30.52 -162.8 c 10.75 -3.11 20.35 -8.16 23.1 -12.14 1.6 -2.31 1.66 -2.64 1.6 -8.37 -0.06 -5.81 -0.13 -6.14 -2.76 -12.3 -4.68 -10.98 -9.34 -15.27 -17.2 -15.81 -5 -0.34 -10.4 0.99 -16.81 4.16 -8.18 4 -11.8 8.95 -12.53 17 -0.64 9.49 0.14 20.42 8.77 26.1 5.11 3.16 8.55 3.45 15.8 1.35 z" transform="translate(-195.6 169)"/><path d="m -58.84 237.1 c -1.4 -1.92 -3.09 -9.9 -2.47 -11.63 0.25 -0.69 1.3 -1.6 2.34 -2 2.24 -0.9 3.65 0.16 5.56 4.22 1.73 3.66 1.51 5.98 -0.8 8.67 -2.38 2.75 -3.09 2.87 -4.63 0.76 z"/><path d="m -64.95 216.8 c -2.19 -2.63 -2.5 -5.44 -0.79 -7.15 1.3 -1.3 3.8 -0.61 5.58 1.52 1.67 2 1.49 5.8 -0.34 6.98 -2.09 1.35 -2.23 1.3 -4.44 -1.35 z"/></g></svg>