<svg xmlns="http://www.w3.org/2000/svg" viewBox="0 0 256 256"><path d="m 193.8 21.48 c 225.3 191.1 -238 374.9 -190.4 79.3 c 10.44 -64.81 129.6 -130.8 190.4 -79.3" style="fill:#aea69b"/><g transform="matrix(0.783 0 0 0.781 30.6 28.94)"><path d="m 69.4 203.2 c -17.82 -1.63 -40.71 -7.88 -48.81 -13.32 -3.33 -2.24 -5.49 -4.79 -7.66 -9 -2.71 -5.31 -3 -6.88 -3 -15 0 -7.98 0.35 -9.79 2.92 -15.1 5.16 -10.6 24.87 -27.99 41.1 -36.3 l 4.06 -2.07 l 1.1 -10.58 c 1.3 -12.52 3.86 -18.7 13.1 -31.47 14.51 -20.2 27.7 -31.34 39.3 -33.3 7.1 -2.34 11.64 1.52 17.92 4.67 24.69 12.36 37.1 21.49 46.73 34.3 5.15 6.86 6.24 7.8 9.3 8 6.8 0.47 21.54 2.45 25.97 3.5 12.91 3.05 26.79 13.7 31.62 24.2 3.93 8.58 3.52 14.88 -1.63 25.3 -19.45 39.3 -105.3 72.3 -172 66.2 z" style="fill:#644a28"/><path d="m 88.9 164.2 c -9.72 -0.89 -14.39 -2.23 -21.2 -6.1 -7.77 -4.41 -9.92 -7.49 -10.77 -15.41 -0.57 -5.31 -0.41 -7 0.78 -8.19 1.33 -1.33 1.98 -0.99 5.84 2.99 4.58 4.73 14.5 9.32 17.84 8.26 1.83 -0.58 7.3 -8.23 10.77 -15.1 3.97 -7.81 5.36 -14.1 6.81 -30.66 1.45 -16.57 2.79 -23 9.87 -47.79 1.49 -5.23 2.91 -10.12 3.15 -10.87 0.32 -1.02 1.85 -1.26 5.96 -0.91 4.13 0.34 8.37 1.88 16.73 6.07 20.1 10.1 31.35 18.88 41.4 32.46 2.95 3.99 5.74 7.25 6.2 7.25 2.49 3.1 3.37 6.12 4.98 10 h 8.81 c 5.58 0 9.72 0.51 11.31 1.38 1.38 0.76 7.68 4.19 14 7.64 13.72 7.47 20.66 12.34 21.54 15.1 1.51 4.76 -7.48 10.1 -43 25.44 -33.63 14.53 -42.2 16.52 -79 18.45 -19.65 1.02 -20.31 1.02 -32 -0.05 z m -24.83 -69.6 c -3.2 -3.2 6.76 -20.46 19.58 -33.95 7 -7.39 13.31 -12.16 14.49 -10.98 0.67 0.67 -0.88 7.86 -3.4 15.85 -1.4 4.44 -1.72 4.75 -4.88 4.75 -4.59 0 -9.16 4.18 -14.48 13.26 -6.08 10.36 -9.1 13.3 -11.31 11.1 z" style="fill:#4a361c"/><path d="m 82.2 161.9 c -7.27 -1.68 -11.56 -3.47 -12.18 -5.08 -5.76 -5.2 -4.99 -3.75 -10 -16.82 -0.49 -1.88 -0.43 -1.87 1.68 0.11 1.2 1.13 4.89 3.3 8.19 4.81 5.83 2.68 6.49 2.76 24 2.77 25.3 0.03 39.84 -3.04 58.5 -12.35 17.48 -8.72 27 -17.1 31.61 -27.55 3.43 -7.87 5.17 -8.1 7.6 -1 2.45 7.18 2.3 13.96 -0.4 17.84 -8.69 12.49 -21.75 21.95 -38.75 28.1 -19.65 7.1 -57.8 12.1 -70.2 9.2 z m 29.84 -62.87 c -2.99 -2.19 -4.19 -12.37 -2.89 -24.53 1.94 -18.2 4.81 -26.35 9.91 -28.3 8.31 -3.16 39.93 14.94 45.88 26.3 2.97 5.66 -0.18 7.39 -15.21 8.37 -9.67 -0.46 -15.2 3 -20.91 8.95 -5.79 6 -11.77 10.48 -14 10.49 -0.58 0 -1.83 -0.56 -2.77 -1.25 z m -44.76 -10.51 c -0.57 -1.25 14.65 -23.74 19.49 -29.1 7.95 -8.84 10.99 -0.51 -0.78 9.22 -12.75 10.54 -16.96 23.75 -18.71 19.9 z" style="fill:#37230f"/></g></svg>