<svg xmlns="http://www.w3.org/2000/svg" viewBox="0 0 256 256"><path d="m 244.8 87.5 c 49.68 127.4 -89.6 192.8 -176.2 160.3 c -60.5 -22.67 -90.6 -113 -47.68 -186 c 54.2 -92.1 185.6 -72.5 223.9 25.73" style="fill:#fcdc00"/><g style="fill:#05263a"><path d="m 39.56 334 c -15.17 -2.17 -37.4 -11.52 -52.2 -21.95 -9.13 -6.44 -21.84 -18.97 -28.76 -28.36 -10.16 -13.76 -19.53 -34.88 -22.2 -50 -4.67 -17.5 -2.89 -37 -0.07 -52.5 6.46 -35.47 33.67 -70.83 67.5 -87.8 c 13.22 -6.6 30.96 -12.25 38.5 -12.25 c 20.25 -3.72 44.1 -0.77 62.2 5.65 43.4 15.58 75.6 53.78 83.2 98.7 1.97 11.57 1.95 33.83 -0.03 45.2 -8.97 51.5 -51.4 93.9 -102.8 102.8 -9.78 1.71 -34.77 1.92 -45.4 0.39 z m 58.83 -18.59 c 33.71 -11.5 59.76 -37.54 71.3 -71.3 8.3 -24.34 7.87 -50.97 -1.22 -76.1 -12.26 -33.86 -40.53 -59.87 -76.3 -70.2 -10.93 -3.15 -11.81 -3.24 -30.3 -3.24 -18.52 0 -19.29 0.08 -30.48 3.3 -53 15.26 -87.8 64.72 -82.99 117.8 2.45 26.86 10.75 47.1 27.3 66.4 18.2 21.32 43.4 34.71 72.2 38.42 18.46 2.45 34.2 0.28 50.5 -5.24 z m -85.6 -33.37 c -0.68 -0.56 -1.78 -4.48 -2.45 -8.7 -1.42 -12.27 -9.55 -15.19 -19.88 -17.27 -4.38 -0.94 -5.33 -1.59 -6.94 -4.76 -3.35 -6.57 -9.1 -21.49 -9.1 -23.66 0 -1.16 2.02 -4.99 4.5 -8.5 6.6 -8.39 4.2 -16.47 0 -22.77 -2.48 -3.69 -4.5 -7.45 -4.5 -8.36 0 -1.99 8.15 -21.92 10.31 -25.2 1.23 -1.88 3.07 -2.6 9.36 -3.63 9.93 -1.19 15 -7.54 16.32 -14.95 1.74 -10.3 2.06 -10.64 15.46 -16.2 6.57 -2.7 12.81 -4.91 13.87 -4.91 1.06 0 4.76 2.03 8.23 4.5 8.5 6.7 16.89 4.22 23.2 0 3.69 -2.47 7.31 -4.5 8 -4.5 2.77 0 26.3 10.31 27.1 11.87 0.45 0.9 1.38 4.93 2.08 8.97 1.84 10.69 4.69 13.64 14.82 15.34 4.91 0.83 8.44 2 9.84 3.31 1.2 1.11 4.33 7.53 6.96 14.27 l 4.78 12.25 l -4.68 6.84 c -5.44 7.51 -6 15.57 -1.62 22.2 6.77 10 6.71 8.65 0.93 22.84 -2.84 6.96 -5.86 13.2 -6.71 13.87 -0.85 0.66 -3.62 1.47 -6.16 1.79 -13.16 1.65 -16.44 4.46 -18.64 15.99 -0.83 4.32 -1.97 8.42 -2.55 9.11 -1.25 1.5 -24.35 11.4 -26.6 11.4 -0.86 0 -4.54 -2.14 -8.19 -4.75 -5.79 -4.15 -7.26 -4.75 -11.63 -4.75 -4.37 0 -5.84 0.6 -11.63 4.75 -3.64 2.61 -7.47 4.72 -8.5 4.68 -8.78 -3.84 -17.9 -5 -26 -11.1 z m 73.6 -8.66 c 5.38 -2.7 5.43 -2.76 7.11 -9.62 1.56 -6.39 2.2 -7.41 8.62 -13.66 6.14 -6.97 10.62 -6.71 18.49 -8.55 1.5 -0.41 5.87 -9.18 5.87 -11.78 0 -0.62 -1.58 -3.47 -3.5 -6.33 -3.43 -5.09 -3.5 -5.4 -3.5 -15.35 0 -10 0.04 -10.21 3.5 -14.92 4.1 -5.58 4.16 -6.14 1.41 -12.77 -1.51 -5.57 -3.42 -5.28 -8.75 -6.26 -6.35 -1.17 -6.99 -1.56 -13.73 -8.35 -6.73 -6.78 -7.13 -7.45 -8.38 -13.96 -1.29 -6.76 -1.36 -6.86 -5.76 -8.75 -6.1 -2.62 -7.58 -2.44 -13.57 1.59 -5 3.39 -5.49 3.5 -14.72 3.5 -9.23 0 -9.69 -0.11 -14.72 -3.5 -6 -4 -7.46 -4.21 -13.66 -1.55 -4.69 2 -4.79 2.18 -6.14 10.51 -0.51 3.16 -2.11 5.47 -7.87 11.36 -6.92 7.1 -7.5 7.44 -13.66 8.54 l -6.44 1.14 c -1.88 3.88 -3.76 7.76 -5.64 11.64 l 4.07 6.25 c 4 6.14 4.07 6.4 4.07 15.31 0 8.96 -0.05 9.14 -4.13 15.25 l -4.13 6.18 c 2.54 6.51 4.71 11.34 9.79 12.21 7.86 1.32 10.73 3 16.83 9.98 4.74 5.39 5.92 7.51 6.93 12.35 0.67 3.21 1.52 6.32 1.9 6.91 3.79 2.44 7.25 3.3 11.66 4.8 l 5.55 -3.68 c 5.47 -3.63 5.7 -3.68 15.32 -3.64 9.71 0.05 9.79 0.07 15.27 3.95 5 4.48 7 3.65 11.92 1.22 z m -39.52 -16.1 c -20.8 -5.96 -34.44 -23.76 -34.56 -45.1 -0.06 -10.75 2.08 -18.22 7.49 -26.2 6 -8.92 6.72 -9.13 12.15 -3.81 2.49 2.44 4.52 5 4.52 5.68 0 0.68 -1.31 3.18 -2.9 5.54 -4 5.98 -6.48 14.93 -5.76 21 1.08 9.13 7 19.27 13.54 23.1 l 3.09 1.8 l 6.97 -10.79 c 3.83 -5.94 6.65 -11.1 6.26 -11.43 -6.59 -3.66 -16.1 -1.19 -22.1 -6.36 -1.21 -1.2 -0.51 -3 4.94 -12.71 3.49 -6.22 9.75 -17.38 13.91 -24.81 5.39 -9.61 8.14 -13.57 9.56 -13.75 2.62 -0.33 11.49 5.31 11.49 7.31 0 0.85 -3.83 8.28 -8.5 16.5 -4.68 8.22 -8.61 15.48 -8.75 16.1 4.24 3.15 23.98 5.25 24.3 8.78 0 0.4 -4.55 7.88 -10.11 16.63 -5.56 8.74 -10.36 16.51 -10.65 17.26 -0.42 1.07 0.2 1.21 2.86 0.64 14.93 -3.17 25 -14.58 25.74 -29.2 0.46 -9 -1.49 -15.22 -6.85 -21.71 -2.2 -2.66 -3.99 -5.38 -3.99 -6 0 -0.67 1.61 -3.09 3.58 -5.39 4.91 -5.73 7.16 -5.54 12.47 1.07 8.76 10.9 12.24 23.57 10.24 37.41 -3.94 27.37 -32.5 46 -58.9 38.45 z" transform="matrix(0.817 0 0 0.829 77.97 -39.98)"/></g></svg>