<svg xmlns="http://www.w3.org/2000/svg" viewBox="0 0 256 256"><g transform="translate(0.99 -0.5)"><path transform="translate(1605.4 -1455.5)" d="m -1374.4 1658.7 c 128 -192.5 -280.1 -311 -226.1 -62.2 23 102.8 167.4 165.2 226.1 62.2 z" style="color:#000"/><g style="fill:#fff"><path d="m 49.1 114.6 c -2.42 -1.06 -4.36 -5.49 -3.74 -8.55 0.65 -3.21 6 -11 11.68 -16.95 4.66 -4.89 7.1 -8.83 6.27 -10.24 c -0.26 -0.46 -2.51 -2.33 -4.99 -4.17 -11.68 -8.63 -15.7 -18.73 -9.83 -24.73 c 1.53 -1.56 2.44 -1.83 4.84 -1.4 9.44 1.67 29.78 19.1 33.94 29 2.76 6.61 1.64 10.6 -4.75 16.85 -7.85 7.68 -27.77 21.2 -30.92 20.97 -0.43 -0.03 -1.55 -0.39 -2.5 -0.81 z"/><path d="m 95.3 139.5 c -2.88 -0.94 -5.06 -4.74 -5.06 -8.8 0 -5.22 7.21 -8.66 20.1 -9.58 9.1 -0.65 31.61 0.82 34.2 2.23 2.7 1.48 3.09 2.39 3.1 7.25 0.02 5.48 -1.21 7.21 -5.77 8.15 -5.68 1.18 -43.3 1.77 -46.51 0.74 z"/></g><g transform="matrix(-1.238 0 0 1.274 295.2 -30.85)" style="stroke:#fff;stroke-width:1.67"><path d="m 155.1 158.6 a 54.2 55.1 0 1 1 -108.4 0 54.2 55.1 0 1 1 108.4 0 z" transform="matrix(0.839 0 0 0.826 -3.14 45.3)" style="stroke-width:7.21"/><path d="m 74.93 206.2 c -2.58 -0.73 -3.95 -1.38 -3.95 -1.88 0 -0.19 0.68 -1.14 1.53 -2.13 1.96 -2.3 3.37 -2.67 10.14 -2.68 3.63 0.52 5.91 -0.25 9 -1.82 5.5 -2.81 10.25 -8.1 12.5 -13.91 1.11 -3.22 1.47 -16.2 -1.92 -15.65 -1.71 -0.2 -3.08 0.69 -8.43 5.47 l -4.88 4.35 c -2.23 -2.19 -6.91 -4.69 -7.62 -7.74 0 -0.27 1.91 -2.5 4.24 -4.93 5.57 -5.82 5.86 -6.25 5.21 -8.22 -0.33 -1.02 -1.1 -1.94 -2.26 -2.71 -6.61 -3.17 -18.23 -0.07 -23.88 6.08 -1.5 1.71 -3.53 4.59 -4.51 6.33 -2.34 3.07 -1.78 6.25 -1.78 9.94 0 6.66 -0.01 6.73 -1.18 8.27 -1.35 1.77 -2.65 2.35 -3.57 1.59 -1.24 -1.03 -2.53 -6.41 -2.48 -10.33 0.12 -9.7 5.25 -19.46 13 -24.83 3.94 -2.69 9.72 -4.89 14.47 -5.51 6.44 -0.84 14.1 1.2 20.53 5.52 5.48 3.67 9.1 7.97 11.44 16.46 1.62 5.79 1.84 11.58 0.21 16.29 -2.16 6.25 -4.09 9.62 -8.27 13.84 -3.71 3.74 -8.19 6.4 -13.1 7.75 -3.52 0.97 -11.72 1.2 -14.5 0.41 z" style="fill:#fff;stroke-width:1.55"/></g></g></svg>