<svg xmlns="http://www.w3.org/2000/svg" viewBox="0 0 256 256"><path d="m 244.8 87.5 c 49.68 127.4 -89.6 192.8 -176.2 160.3 c -60.5 -22.67 -90.6 -113 -47.68 -186 c 54.2 -92.1 185.6 -72.5 223.9 25.73" style="fill:#8c9aab"/><g transform="matrix(9.401 0 0 9.09 56.1 54.79)"><path d="M 1.15,1 C 0.51,1 0,1.53 0,2.2 V 8.5 H 7.5 V 16 h 6.35 C 14.49,16 15,15.47 15,14.8 V 2.2 C 15,1.53 14.49,1 13.85,1" style="fill:#e4e4e4"/><path d="M 7,1 V 8 H 0 v 1 h 7 v 7 H 8 V 9 h 7 V 8 H 8 V 1 z" style="fill:#534b5e"/><g style="fill:#8d8a87"><path d="m 10,3 v 4 h 0.75 V 4.37 L 12.1,7 H 13 V 3 H 12.25 V 5.61 L 10.92,3"/><path d="M 3.87,3 C 2.73,3 2,3.83 2,5.04 2,6.21 2.68,7 3.69,7 4.2,7 4.64,6.81 5,6.44 V 5 H 3.5 V 5.8 H 4.25 V 6.04 C 4.14,6.11 3.97,6.16 3.79,6.16 3.21,6.16 2.85,5.71 2.85,4.97 c 0,-0.72 0.35,-1.11 1,-1.11 0.27,0 0.59,0.06 0.81,0.15 L 4.88,3.25 C 4.61,3.09 4.24,3 3.88,3"/></g><g transform="matrix(1.051 0 0 1.07 -0.38 -0.31)" style="fill:#b5b5b5"><path d="m 10.41 9.21 c -0.19 0 -0.36 0.07 -0.5 0.21 l 0.09 0.31 c 0.13 -0.1 0.24 -0.14 0.34 -0.14 0.14 0 0.24 0.09 0.24 0.22 0 0.21 -0.24 0.46 -0.63 0.82 v 0.29 h 1.03 v -0.36 h -0.5 c 0.31 -0.27 0.47 -0.55 0.47 -0.82 0 -0.31 -0.22 -0.51 -0.55 -0.51 z m -1.19 0.02 l -0.69 1.16 v 0.22 h 0.67 v 0.31 h 0.36 v -0.31 h 0.27 v -0.36 h -0.27 v -1.03 m -0.36 0.46 v 0.55 h -0.31 z"/><path d="m 2.32 2 c -0.28 0 -0.46 0.26 -0.46 0.66 0 0.39 0.19 0.66 0.45 0.66 c 0.28 0 0.46 -0.26 0.46 -0.67 0 -0.39 -0.19 -0.64 -0.45 -0.64 m -0.99 0.01 l -0.51 0.88 v 0.17 h 0.5 v 0.24 h 0.27 v -0.24 h 0.19 v -0.26 h -0.19 v -0.78 m 0.72 0.25 c 0.1 0 0.19 0.16 0.19 0.39 0 0.22 -0.07 0.38 -0.17 0.38 -0.12 0 -0.19 -0.16 -0.19 -0.39 0 -0.22 0.07 -0.38 0.17 -0.38 z m -0.99 0.11 v 0.42 h -0.23"/></g><path d="m 0,8.5 v 6.3 C 0,15.46 0.54,16 1.2,16 H 6.6 7.88 V 14.8 8.5" style="fill:#534b5e"/></g></svg>