<svg xmlns="http://www.w3.org/2000/svg" viewBox="0 0 256 256"><path d="m 234.1 67.7 c 68.88 92 -41.3 204.2 -130.1 184.8 -87.4 -11.43 -140.2 -144.4 -72.6 -211.9 c 49.4 -48.59 133.8 -64.86 202.7 27.1" style="fill:#e96b22"/><path d="m 207.6 242.4 c -5.71 -4.12 -32.37 -18.1 -33 -22.68 0 -1.66 21 -32.51 25.42 -37.3 4.13 -4.48 14.18 -9.12 22.39 -10.36 3.68 -0.55 7.32 -1.32 8.09 -1.7 0.77 -0.38 8.79 -14.4 17.82 -31.1 9 -16.75 17.1 -31.2 18 -32.2 10.1 -7.94 20.67 0.2 20.7 9.1 -0.06 5.39 -0.87 7.16 -16.73 36.3 l -16.67 30.64 l 3.12 6 c 4.13 8 6.17 19.54 4.7 26.53 -6.17 13.84 -8.85 28.72 -17.24 41.56 -12.9 -2.7 -25.28 -8.94 -36.58 -14.82 z m -146.5 2.4 c -5.11 -1.81 -12 -9.1 -13.41 -14.1 -1.53 -5.51 -1.51 -158.4 0.02 -163.9 1.47 -5.31 9.1 -12.91 14.38 -14.38 c 5.28 -1.46 12.8 -1.42 14.3 0.08 0.74 0.74 1.2 4.4 1.2 9.6 0 9.84 1.58 14 6.81 18 5.99 3.83 14.39 3.75 19.37 0 5.23 -3.99 6.81 -8.17 6.81 -18 0 -5.2 0.46 -8.86 1.2 -9.6 1.72 -1.72 78.88 -1.72 80.6 0 0.74 0.74 1.2 4.4 1.2 9.6 0 9.84 1.58 14 6.81 18 5.99 3.83 14.39 3.75 19.37 0 5.23 -3.99 6.81 -8.17 6.81 -18 0 -5.2 0.46 -8.86 1.2 -9.6 1.5 -1.5 9 -1.54 14.3 -0.08 5.31 1.47 12.91 9.1 14.38 14.38 1.54 15.26 1.11 26.8 1.12 42.75 -2.67 4.19 -10.74 22.97 -13.63 20.64 -1 -0.84 -1.37 -4.12 -1.37 -12.56 0 -12.61 -1.06 -16.1 -5.47 -18.1 -1.97 -0.9 -23.29 -1.19 -85.1 -1.19 -89.6 0 -86.6 -0.18 -89.2 5.47 -0.88 1.94 -1.19 17.9 -1.19 61.1 0 63.5 -0.07 62.69 5.47 65.2 1.93 0.88 17.1 1.19 57.6 1.19 h 54.96 c 4.41 2.61 23.1 10.9 20.93 13.57 -1.76 2.12 -133.4 2.06 -139.4 -0.07 z m 7.94 -21.79 c -0.57 -7.52 -0.17 -13.31 0.06 -21.2 11.33 0 22.67 0 34 0 0 7.33 0 14.67 0 22 -10.24 -1.45 -21.6 -1.16 -34.1 -0.8 z m 0 -32 c -0.57 -7.52 -0.17 -13.31 0.06 -21.2 11.33 0 22.67 0 34 0 0 7.33 0 14.67 0 22 -14.41 0.26 -23.39 -0.6 -34.1 -0.8 z m 44 0 c -0.57 -7.52 -0.17 -13.31 0.06 -21.2 11.33 0 22.67 0 34 0 0 7.33 0 14.67 0 22 -10.83 -0.88 -22.2 1.11 -34.1 -0.8 z m 43.99 -0.02 c -0.55 -7.51 -0.16 -13.29 0.07 -21.2 11.33 0 22.67 0 34 0 l 0.29 5.5 c -0.32 8.35 -3.24 10.29 -8.17 17 h -12.84 c -9.72 0 -12.96 -0.32 -13.35 -1.32 z m -87.99 -31.98 c -0.57 -7.52 -0.17 -13.31 0.06 -21.2 11.33 0 22.67 0 34 0 0 7.33 0 14.67 0 22 l -16.77 0.27 c -13.32 0.22 -16.88 0 -17.29 -1.07 z m 44 0 c -0.57 -7.52 -0.17 -13.31 0.06 -21.2 11.33 0 22.67 0 34 0 0 7.33 0 14.67 0 22 -13.22 0.83 -27.56 0.54 -34.1 -0.8 z m 44 0 c -0.57 -7.52 -0.17 -13.31 0.06 -21.2 11.33 0 22.67 0 34 0 0 7.33 0 14.67 0 22 l -16.77 0.27 c -13.32 0.22 -16.88 0 -17.29 -1.07 z m 44 0 c -0.57 -7.52 -0.17 -13.31 0.06 -21.2 11.33 0 22.67 0 34 0 l 0.26 5 c -0.25 7.47 -2.83 10.52 -6.46 17 -8.23 -1.11 -22.78 -0.48 -27.86 -0.79 z m -44 -32 c -0.57 -7.52 -0.17 -13.31 0.06 -21.2 11.33 0 22.67 0 34 0 0 7.33 0 14.67 0 22 l -16.77 0.27 c -13.32 0.22 -16.88 0 -17.29 -1.07 z m 44 0 c -0.57 -7.52 -0.17 -13.31 0.06 -21.2 11.33 0 22.67 0 34 0 0 7.33 0 14.67 0 22 l -16.77 0.27 c -13.32 0.22 -16.88 0 -17.29 -1.07 z m -111.7 -51.3 c -4.99 -2.71 -5.76 -5.79 -5.76 -22.93 0 -17.3 0.78 -20.3 5.97 -22.98 3.68 -1.91 5.38 -1.91 9.1 0 5.19 2.68 5.97 5.69 5.97 22.98 0 17.3 -0.78 20.3 -5.97 22.98 -3.62 1.87 -5.75 1.86 -9.27 -0.05 z m 116 0 c -4.99 -2.71 -5.76 -5.79 -5.76 -22.93 0 -17.3 0.78 -20.3 5.97 -22.98 3.68 -1.91 5.38 -1.91 9.1 0 5.19 2.68 5.97 5.69 5.97 22.98 0 17.3 -0.78 20.3 -5.97 22.98 -3.62 1.87 -5.75 1.86 -9.27 -0.05 z" transform="matrix(0.629 0 0 0.656 30.85 34.94)" style="fill:#fff"/><path d="m 156.5 159.5 c -0.04 -1.91 1.6 -3.04 3.36 -4.55 1.02 -0.98 1.42 -0.51 2.6 0.05 2.04 0.97 24.54 13.43 28.2 15.63 1.5 0.9 2.85 1.8 3 2 0.58 0.82 -0.54 6.59 -1.28 6.58 -11.68 -6.61 -24.84 -11.68 -35.88 -19.73 z" style="fill:#e96b22"/></svg>