<svg xmlns="http://www.w3.org/2000/svg" viewBox="0 0 256 256"><g transform="matrix(0.987 0 0 0.992 2.17 1.09)" style="fill:#d3d3d3;color:#000"><path d="m 231.5 60.1 c 139.3 254.5 -369.5 266.5 -194.4 4.15 46.3 -67.5 156.9 -100.4 194.4 -4.15 z" style="fill:#ffd700"/><g transform="matrix(8.702 0 0 9.594 -1191.7 -2010.4)" style="fill:#000"><path d="m 146.1 221 c -1.28 0 -2.31 2.03 -2.31 4.5 0 2.47 1.03 4.38 2.31 4.38 0.03 0 0.06 -0.03 0.09 -0.03 v 0.03 l 8.81 -0.88 c -1.81 0 -3.06 -1.1 -3.06 -3.5 0 -2.39 1.04 -3.5 3.06 -3.5 l -1.59 -1 c -3.23 -0.01 -7.32 0 -7.32 0 z m 0.02 0.99 h 4.98 c 0.17 0 0.32 0.19 0.19 0.38 -0.84 1.52 -0.9 3.78 -0.36 5.57 0 0.17 -0.14 0.31 -0.31 0.31 l -5.1 0.01 c -0.17 0 -0.25 -0.2 -0.25 -0.38 -0.09 -1.76 -0.92 -4.16 0.59 -5.84 0 0 0.05 -0.06 0.22 -0.06 z" style="color:#000"/><path d="m 150 217 c -0.4 0 -0.71 0.17 -0.89 0.46 l -2.28 3.69 l -0.14 0.28 h 0.3 h 1.1 h 0.12 l 0.05 -0.1 l 1.45 -2.17 c 0.04 -0.06 0.16 -0.15 0.28 -0.15 h 7.4 c 0.08 0 0.08 0.11 0.08 0.11 l -2.87 5.72 l -0.09 0.16 l 0.16 0.09 l 0.07 0.7 l 0.69 0.37 l 0.09 -0.16 l 3.47 -7 c 0.14 -0.23 0 -1.39 -0.11 -1.59 -0.13 -0.23 -0.38 -0.41 -0.71 -0.41 h -8.17 z" style="fill-rule:evenodd"/><g style="color:#000"><path d="m 35.56 31.95 a 1.78 3.05 0 1 1 -3.56 0 1.78 3.05 0 1 1 3.56 0 z" transform="matrix(0.496 0 0 0.492 138.1 209.8)"/><path d="m 150.1 227 c 0 0 -2.92 -0.02 -3.1 -0.02 -0.19 0 -0.27 0.03 -0.37 -0.15 -0.31 -0.43 -0.52 -1.1 -0.58 -1.72 -0.01 -0.12 -0.21 -0.13 -0.3 -0.13 h -2.56 c -0.13 0 -0.16 0.24 -0.16 0.24 -0.05 1.9 0.72 4.76 2.89 4.75 h 7.89 c -2.68 -0.16 -2.63 -1.35 -2.84 -2.47 -0.18 -0.35 -0.26 -0.52 -0.57 -0.52 z" style="fill-rule:evenodd"/><path d="m 151.9 221 a 0.5 0.5 0 1 0 0.09 1 h 2.5 c 3.11 0 3.59 7 0 7 h -2.94 a 0.5 0.5 0 1 0 0 1 h 2.94 c 4.85 0 4.51 -9 0 -9 H 152 a 0.5 0.5 0 0 0 -0.09 0 z"/></g></g><g transform="matrix(0.923 0 0 0.763 3.74 57.9)" style="fill:#000;stroke:#000;stroke-width:1.33"><path d="M 76.5,246 C 54.59,237.38 33.76,220.71 22.2,202.6 l -2.5,-3.94 h 17.46 l 4.11,4.62 c 5.38,6 24.62,26.47 34.55,36.68 4.31,4.43 7.7,8.19 7.54,8.35 -0.16,0.16 -3.27,-0.87 -6.89,-2.3"/><path d="m 119.8,254.9 c 0,-1.11 -11.6,-13.69 -32.44,-35.2 L 66.91,198.6 h 33.41 l 2.72,3.25 c 1.5,1.78 9.97,10.91 18.82,20.28 8.86,9.36 19.1,20.23 22.83,24.2 7.67,8.12 7.89,7.38 -2.61,8.53 -7.74,0.85 -22.28,0.9 -22.28,0.07"/><path d="M 153.2,222.5 130,198.57 h 27.2 l 6.99,7.71 c 3.85,4.24 12.1,13.1 18.34,19.7 6.24,6.6 11.34,12.18 11.34,12.41 0,0.45 -13.91,7.1 -16.1,7.66 -1.1,0.3 -5.97,-4.37 -24.56,-23.56"/><path d="m 186.8 198.6 h 33.4 l 3.09 3.56 c 6.14 7.1 6.08 5.75 0.48 12 -3.44 3.96 -7.22 7.53 -11.15 10.98"/></g></g></svg>