<svg xmlns="http://www.w3.org/2000/svg" viewBox="0 0 256 256"><path d="m 250.5 152.2 c -9.97 23.38 -24.64 55.85 -26.54 58.74 -1.16 1.77 -4.13 4.74 -6.59 6.61 -7 5.34 -57.2 34.1 -61.7 35.3 -4.14 1.16 -19.29 0.64 -32.97 -1.13 -40.4 -4 -39.49 -1.98 -48.2 -7.29 -2.35 -1.13 -15.72 -12.59 -29.72 -25.45 -26.91 -24.74 -29.1 -27.38 -31.1 -37.82 -4.84 -28.1 -10.83 -45.87 -12.31 -71.1 9.59 -22.45 19.61 -46.66 31.61 -67.88 2.84 -3.31 10.28 -8.23 29.1 -19.29 38.61 -22.63 34.4 -20.81 47.9 -20.67 21 2.27 56.1 2.13 71 9.42 4.7 2.52 41.94 35.5 51.85 45.93 4.93 5.18 7.17 10.38 9.67 22.44 4.54 12.21 9.26 40.86 11.1 50.68 1.32 5.66 0.85 12.29 -3.07 21.48" style="fill:#00707d"/><path d="m 56.1 171.8 c 0 -1.29 29.52 -18.66 31.72 -18.66 8.6 6.51 30.96 14.3 37 21.46 1.62 2.21 1.52 35.39 -0.11 36.4 -21.56 -5.55 -52.3 -21.9 -68.6 -39.2 z" style="fill:#4d3f33"/><path d="m 53 163.4 c -1.29 -7.8 -1.31 -63.73 -0.03 -70.1 0.55 -2.73 1.8 -4.94 2.78 -4.9 11.2 5.08 19.2 10.15 30.4 16.65 1.81 9.95 -1 35.4 2.9 43.3 0.76 1.19 0.49 1.99 -0.68 1.99 -12.72 5.31 -21.1 12.71 -33.94 19.1 -0.25 0 -0.9 -2.68 -1.45 -5.96 z" style="fill:#7a573b"/><path d="m 55.3 84.9 c -0.22 -3.46 55.2 -36.3 67.9 -40.2 l 3.58 -1.11 c -0.02 13.58 -0.04 27.2 -0.05 40.75 c -13.62 5.3 -26.93 13.83 -37.3 20.67 -10.31 -7.63 -24.93 -11.15 -34.1 -20.1 z" style="fill:#99cd61"/><path d="m 128.3 83.5 c 0 -13.21 0 -26.42 0 -39.63 l 4.37 1.65 c 10.28 3.89 27.36 13.56 45 25.51 10.42 7 18.95 13 18.95 13.34 0 0.54 -23.58 14.88 -29.42 17.88 -12.53 -2.36 -26.78 -12.65 -38.94 -18.76 z" style="fill:#df6277"/><path d="m 164.5 106.3 c 4.85 -2.63 33.1 -21 35.93 -19.52 2.63 13.85 2.38 24.77 3 39.67 -10.91 0.96 -22.7 2.31 -33.42 1 -5.65 0.95 -4.54 -15.38 -5.5 -21.2 z" style="fill:#f3db6c"/><path d="m 165.6 150.3 c 2.08 -9 0.25 -12.45 1.49 -20.68 11.97 0 23.94 0 35.91 0 v 12.5 c 0 13.82 -1.49 27.3 -3 27.2 -9.69 -3.33 -25.7 -17.73 -34.4 -18.98 z" style="fill:#7ab392"/><path d="m 128.5 171.5 c 13.89 -7 24.35 -12.73 37.2 -20.1 5.61 4.27 28.1 14.25 30.64 19.21 1.21 3.63 -59.5 40 -66.77 40 -3.09 -15.1 -1.47 -22.2 -1.05 -39.2 z" style="fill:#6495ed"/><path d="m 131 127.8 l 15.8 -8.81 c 18.33 -10.22 17.66 -10.57 17.9 9.27 0.21 16.72 -1.44 21.2 -9.97 26.77 -7.13 4.7 -22.1 12.74 -23.73 12.74 -1 -14 -0.32 -24.82 -0.01 -39.98 z" style="fill:#dcdcdc"/><path d="m 91.8 144.9 c -1.73 -4.96 -2.18 -26.57 -0.67 -32.2 7.66 -3.07 23.58 9.1 36.41 16.1 -0.52 5.13 2.9 38.47 -1.18 38.91 -9.91 -4.19 -31.75 -15 -34.56 -22.86 z" style="fill:#d3d3d3"/><path d="m 91.9 107.9 c -0.26 -3.49 29.82 -21.2 36 -21.2 3.76 0 27.1 13.31 32.2 18.34 3.43 3.41 3.56 3.92 1.04 3.92 -3.06 0 -28.3 13.21 -31.65 16.57 -8.86 -2.16 -26.76 -11.91 -37.57 -17.61 z" style="fill:#fff"/></svg>