<svg xmlns="http://www.w3.org/2000/svg" viewBox="0 0 256 256"><path d="m 193.8 21.48 c 225.3 191.1 -238 374.9 -190.4 79.3 c 10.44 -64.81 129.6 -130.8 190.4 -79.3" style="fill:#ffd700"/><g transform="matrix(1.189 0 0 1.178 49.3 49.3)"><path d="m 43.62,31.93 c -0.73,0 -1.33,0.59 -1.33,1.33 v 11.13 h 2.15 v -8.9 c 0,-0.59 0.53,-1.06 1.19,-1.06 h 36.2 c 0.66,0 1.2,0.47 1.2,1.06 v 8.9 h 2.14 V 33.26 c 0,-0.73 -0.59,-1.33 -1.33,-1.33 z" style="fill:#3d3846"/><path d="m 7.48,102.6 h 112.5 v 13.41 H 7.48 z" style="fill:#a51d2d;fill-rule:evenodd"/><path d="m 15.1,44.4 c -4.23,0 -7.64,3.51 -7.64,7.88 v 4.86 8.16 h 112.5 v -13 c 0,-4.36 -3.41,-7.88 -7.64,-7.88 z" style="fill:#ed333b"/><path d="m 7.48,65.3 h 112.5 v 37.3 H 7.48 z" style="fill:#c01c28;fill-rule:evenodd"/><path d="m 47.3,77.3 h 32.82 c 1.24,0 2.25,1 2.25,2.25 v 8.71 c 0,1.24 -1,2.25 -2.25,2.25 H 47.3 c -1.24,0 -2.25,-1 -2.25,-2.25 v -8.71 c 0,-1.24 1,-2.25 2.25,-2.25 z" style="fill:#c0bfbc"/><path d="m 50.61 81.7 h 26.3 c 0.62 0 1.13 0.5 1.13 1.13 v 2.3 c 0 0.62 -0.5 1.13 -1.13 1.13 h -26.3 c -0.62 0 -1.13 -0.5 -1.13 -1.13 v -2.3 c 0 -0.62 0.5 -1.13 1.13 -1.13 z" style="fill:#77767b"/><path d="m 96.7,1.36 c -0.89,-0.5 -2,-0.2 -2.51,0.69 l -2.12,3.74 -9.92,17.48 -5.82,10.25 c -1.68,2.96 -0.65,6.7 2.31,8.37 l 4.4,2.5 -6.69,11.77 c -3.16,-0.27 -6.18,1.32 -7.75,4.08 -2.21,3.9 -0.85,8.86 3.05,11.1 3.9,2.21 8.86,0.85 11.1,-3.05 1.57,-2.76 1.38,-6.18 -0.47,-8.75 l 6.68,-11.77 4.83,2.75 c 2.96,1.68 6.69,0.65 8.37,-2.31 l 5.82,-10.25 9.92,-17.48 2.13,-3.74 c 0.5,-0.89 0.2,-2 -0.7,-2.51 l -3.56,-2 -16.71,29.44 c -1,1.77 -3.25,2.39 -5,1.39 l -9.1,-5.16 c -1.78,-1 -2.39,-3.25 -1.39,-5 L 100.28,3.45 z" style="fill:#f5f5f5"/></g><g transform="matrix(0.837 0 0 0.765 8.55 52.2)" style="stroke:#000;stroke-width:1.33"><path d="M 76.5,246 C 54.59,237.38 33.76,220.71 22.2,202.6 l -2.5,-3.94 h 17.46 l 4.11,4.62 c 5.38,6 24.62,26.47 34.55,36.68 4.31,4.43 7.7,8.19 7.54,8.35 -0.16,0.16 -3.27,-0.87 -6.89,-2.3"/><path d="m 119.8,254.9 c 0,-1.11 -11.6,-13.69 -32.44,-35.2 L 66.91,198.6 h 33.41 l 2.72,3.25 c 1.5,1.78 9.97,10.91 18.82,20.28 8.86,9.36 19.1,20.23 22.83,24.2 7.67,8.12 7.89,7.38 -2.61,8.53 -7.74,0.85 -22.28,0.9 -22.28,0.07"/><path d="M 153.2,222.5 130,198.57 h 27.2 l 6.99,7.71 c 3.85,4.24 12.1,13.1 18.34,19.7 6.24,6.6 11.34,12.18 11.34,12.41 0,0.45 -13.91,7.1 -16.1,7.66 -1.1,0.3 -5.97,-4.37 -24.56,-23.56"/><path d="m 186.8 198.6 h 33.4 l 3.09 3.56 c 6.34 7.21 11.79 10.74 2.23 14.85 c -5.63 4.43 -8.97 4.68 -12.9 8.13"/></g></svg>