<svg xmlns="http://www.w3.org/2000/svg" viewBox="0 0 256 256"><path d="m 52.71 39.84 c -189.6 224 188.1 310.7 202.8 80.2 6 -94 -130.3 -166 -202.8 -80.2" style="fill:#4682b4"/><path d="m 92.1 185.9 c -7.73 -4 -11.38 -10.2 -11.38 -19.2 c 0 -5.64 0.46 -7.41 3 -11.58 c 3.74 -6.12 11.37 -10.42 18.5 -10.42 c 14.88 0 25.82 15.72 20.54 29.53 -4.8 12.58 -18.77 17.89 -30.66 11.68 z m 15.98 -9.63 c 3.15 -1.63 5.15 -5.34 5.15 -9.57 0 -8.59 -8.34 -13.54 -16.53 -9.81 -7 3.2 -7.26 15.59 -0.36 19.41 3.16 1.75 8.33 1.74 11.74 -0.03 z m 20.63 11.4 c -0.55 -0.88 45.1 -130.5 47.65 -135.2 0.83 -1.55 2.67 -1.75 15.93 -1.75 11.67 0 15.1 0.3 15.51 1.35 0.53 1.37 -46 133.1 -47.83 135.4 -1.25 1.58 -30.3 1.79 -31.3 0.23 z m 44.2 -66.98 c 11.12 -31.1 20.24 -57.1 20.25 -57.8 0.02 -0.93 -1.31 -1.22 -4.63 -1 l -4.65 0.3 l -20.35 56.98 c -11.19 31.3 -20.35 57.4 -20.35 57.8 0 0.45 2.14 0.68 4.75 0.52 l 4.75 -0.3 l 20.23 -56.5 z m -1.33 66.6 c -0.55 -1.43 45.97 -133 47.83 -135.3 c 1.22 -1.51 30.3 -1.8 31.2 -0.32 0.46 0.75 -42.1 121.9 -47 133.8 l -1.34 3.25 h -15.1 c -12 0 -15.19 -0.28 -15.62 -1.41 z m 44.2 -67.1 c 11.21 -31.35 20.39 -57.3 20.4 -57.75 0.01 -0.41 -2.11 -0.75 -4.72 -0.74 h -4.75 l -17 47.69 c -9.35 26.2 -18.67 52.3 -20.71 58 l -3.71 10.35 l 5.06 -0.3 l 5.06 -0.3 l 20.38 -57 z m -123.3 6.44 c -16.1 -8.16 -16.1 -31.2 -0.02 -39.55 13.81 -7.14 31.69 3.94 31.77 19.68 0.03 6.46 -4.29 14.59 -9.77 18.39 -5.86 4.06 -15.6 4.71 -21.98 1.47 z m 16 -10.1 c 2.52 -1.29 4.76 -6.17 4.76 -10.38 0 -5.44 -5.27 -10.45 -11 -10.45 -3.44 0 -4.81 0.61 -7.6 3.4 -2.79 2.79 -3.4 4.16 -3.4 7.6 0 9.23 8.72 14.2 17.24 9.84 z" transform="matrix(0.801 0 -0.028 0.776 -0.9 42.3)" style="fill:#f5f5f5"/></svg>