<svg xmlns="http://www.w3.org/2000/svg" viewBox="0 0 256 256"><path d="m 253 100.5 c -15.87 -103.3 -156.9 -131 -219.1 -57.2 c -54.8 54.8 -41.2 159.7 26.1 195.7 77.2 48.1 189.7 -11.37 195.8 -107.2 0.63 -10.49 -0.26 -21.1 -2.77 -31.3 z" style="fill:#424242;color:#000"/><g transform="matrix(11.94 0 0 11.825 51.2 57.73)"><g style="stroke-width:0.26"><rect rx="0.91" y="1.06" x="1.06" height="10.32" width="10.58" ry="0.97" style="fill:#cdcdcd"/><path d="m 1.98,1.06 c -0.51,0 -0.93,0.41 -0.93,0.93 v 8.47 c 0,0.51 0.41,0.93 0.93,0.93 h 8.73 c 0.51,0 0.93,-0.41 0.93,-0.93 V 1.99 c 0,-0.51 -0.41,-0.93 -0.93,-0.93 z m 0.13,0.26 h 8.47 c 0.44,0 0.79,0.35 0.79,0.79 v 7.67 c 0,0.44 -0.35,0.79 -0.79,0.79 H 2.11 C 1.67,10.57 1.32,10.22 1.32,9.78 V 2.11 c 0,-0.44 0.35,-0.79 0.79,-0.79 z" style="opacity:0.5"/></g><rect rx="0.17" y="2.12" x="2.12" height="7.67" width="8.47" style="fill:#424242"/><g style="stroke-linejoin:round"><path d="M 2.91,2.91 V 3.17 H 9.79 V 2.91 M 2.91,3.7 V 3.96 H 7.14 V 3.7" style="fill:#94a6ff;stroke-width:1.22"/><g style="stroke-width:1.06"><path d="M 2.91,6.09 V 6.35 H 4.5 V 6.09 M 2.91,6.88 V 7.14 H 4.5 V 6.88 M 2.91,7.67 V 7.93 H 4.5 V 7.67" style="fill:#cf3b00"/><path d="M 2.91,4.5 V 4.76 H 4.5 V 4.5 M 2.91,5.29 V 5.55 H 4.5 V 5.29" style="fill:#7851c2"/><path d="M 5,6.09 V 6.35 H 9.76 V 6.09 M 5,6.88 V 7.14 H 7.65 V 6.88" style="fill:#73c48f"/><path d="M 5,7.67 V 7.93 H 9.76 V 7.67 M 2.88,8.46 V 8.72 H 7.11 V 8.46" style="fill:#fff"/><path d="M 5,4.5 V 4.76 H 9.76 V 4.5 M 5,5.29 V 5.55 H 7.65 V 5.29" style="fill:#b84acb"/></g></g></g></svg>