<svg xmlns="http://www.w3.org/2000/svg" viewBox="0 0 256 256" xmlns:xlink="http://www.w3.org/1999/xlink"><defs><path id="0" d="m 121.7 97.1 a 7 10.8 0 1 1 -14.1 0 7 10.8 0 1 1 14.1 0 z"/></defs><path d="m 2.47 99.5 c 50.1 -239.9 395.1 17.64 187.9 139.6 -80.4 52.3 -213.7 -16.2 -187.9 -139.6" style="fill:#ffeddb"/><g transform="matrix(0.77 0 0 0.765 24.2 24.2)"><g style="fill:#d3dae3"><path d="m 68 144.3 c -24.3 -79.7 7.8 -122.2 66.2 -82.8 c 1.74 -1.1 6.58 19.51 9.79 29.95 5.4 17.56 3.8 30.72 -8.9 73.2 -9.39 31.4 19.32 52.4 -22.94 53.5 -98.3 -22.92 -42.2 -64.77 -44.2 -73.8 z"/><path d="m 157.8 129.8 c 12.89 -14.97 14.1 -40.2 45.4 -26 1.03 -0.4 5.72 4.72 7.63 8.48 3.21 6.32 2.26 11.1 -5.29 26.32 -5.58 11.3 -7.71 15.2 -13.62 19.24 -12.45 -0.88 -21.84 -18.28 -34.1 -28.1 z" transform="matrix(1.243 0 0 1.271 -21.35 -21.43)"/></g><use transform="matrix(1.111 0 0 1.19 -52.3 -16.64)" xlink:href="#0" style="fill:#d9465e"/><path d="m 110.3 235.5 c -26.91 -3.48 -39.4 -17.53 -46.1 -41.68 c -1.89 -6.8 -1.86 -7 0.65 -4.73 3.06 2.82 13.26 8.35 21.1 11.44 8.87 3.5 19 8.54 31.84 9.3 8.98 0.54 14.27 -1.43 16.31 0.43 11.12 5.74 37.61 7.32 40.1 13.41 1.68 0 3.45 0.65 3.05 0.8 -21.39 8 -14.1 18.62 -20.62 18.64 -8.92 -0.1 -22.57 -6.89 -30.3 -4.46 -2.3 0.74 -14.79 -2.98 -16.1 -3.15 z" style="fill:#8facdc"/><path d="m 126.1 254.8 c -2.25 -1.77 -3.1 -1.95 -4.62 -1 -4.7 2.93 -8.22 -0.9 -7.86 -8.55 0.33 -7 0.34 -7 -4.5 -7.72 -5.87 -0.88 -7.76 0.27 -11.83 7.21 -3.15 5.36 -3.59 5.72 -6.78 5.47 -1.88 -0.15 -4.85 -0.26 -6.6 -0.26 -7.36 0.02 -9.84 -10.2 -4.32 -17.82 1.65 -2.28 3 -4.51 3 -4.96 0 -1.38 -6.08 -5.44 -14.48 -9.67 -6.18 -3.11 -8.83 -5.15 -11.75 -9 -3.15 -4.18 -4.29 -5 -6.98 -5 -4.83 0 -6 -3.04 -5.28 -13.31 1.24 -16.99 6.51 -30.67 15.69 -40.72 2.61 -2.85 5.22 -6.45 5.81 -8 1.76 -4.62 -2.48 -12.84 -4.77 -17.34 -2.72 -5.33 -4.92 -28.38 -2.28 -33.63 1.14 -2.27 1.61 14.97 2.54 20 1.67 9.13 3.72 13.91 6.84 15.95 2.47 1.62 2.49 1.73 1.09 6.33 -1.87 6.16 -1.83 18.52 0.08 24.96 2.62 8.83 4.53 8.36 14.22 -3.53 3.92 -4.81 9.59 -11.37 12.59 -14.59 5 -5.35 5.64 -5.74 7.71 -4.64 3.03 1.62 15.1 0.42 20.79 -2.08 6.25 -2.75 11.81 -7.48 14.81 -12.6 2.26 -3.85 2.6 -5.54 2.51 -12.34 -0.29 -22.2 -8.28 -37.46 -24.2 -46 -6.38 -3.43 -6.72 -3.5 -18.1 -3.47 l -20.74 5.15 l 10.64 -7.45 c 1.59 -1.12 1.21 -2.65 0.47 -3.39 -1.3 -1.3 -6.28 1.4 -8.16 4.41 -1.53 1.48 9.68 0.04 -0.34 5.12 -10.5 5.19 -16.92 12.49 -20.36 23.1 l -1.52 23.1 l -1.47 -1.74 c -5.76 -6.83 1.41 -32.52 0.74 -38.83 -1.96 -18.56 0.09 -31.3 5.22 -32.59 1.85 -0.47 3.06 -2.03 4.73 -6.15 5.4 -13.3 13.61 -16.76 18.97 -7.98 1.53 2.51 1.94 5 1.95 11.94 0 9.94 0.13 10.1 8.13 7.18 3.21 -1.15 7.17 -1.49 14.85 -1.25 l 10.47 0.32 l 2.63 -4.97 c 1.45 -2.73 3.82 -5.86 5.27 -6.94 2.52 -1.88 2.8 -1.89 6.15 -0.3 l 3.51 1.67 l 2.44 -3.86 c 6.54 -10.36 15.57 -10.93 20.46 -1.29 3.57 7 4.31 13.69 3.84 34.68 -0.25 11 -1.07 24.95 -1.83 31 -2 15.94 -1.76 26.38 0.89 37.5 2.27 9.54 5.06 14 8.76 14 0.83 0 3.81 -4.75 7.1 -11.25 7.1 -14.2 9.36 -17.19 15.27 -20.2 2.81 -1.43 5.91 -4.09 7.61 -6.54 4.48 -6.47 7.33 -8 14.67 -8 4.56 0 7.26 0.56 9.6 1.99 2.84 1.73 3.25 2.51 3.26 6.25 0.01 3.42 0.9 5.53 4.46 10.63 2.45 3.5 5.19 8.6 6.09 11.32 1.63 4.91 1.62 5 -1.54 14.63 -1.75 5.32 -6 15.53 -9.55 22.68 -6.18 12.61 -6.34 13.1 -5.25 17.1 1.45 5.33 -0.37 10.32 -7.1 19.42 -7.95 10.76 -16.43 16.32 -35.2 23.1 -2.12 0.77 -14.2 7.51 -20.89 11.66 -1.26 0.79 -1.07 1.39 1.25 3.85 2.2 2.33 2.75 3.86 2.75 7.64 0 3.28 -0.46 4.9 -1.5 5.3 -2.46 0.94 -6.24 -0.47 -9.92 -3.71 -1.9 -1.67 -5 -3.29 -6.9 -3.6 -3.18 -0.52 -3.99 -0.03 -10.92 6.55 -4.12 3.91 -7.94 7.11 -8.49 7.11 -0.55 0 -2.24 -0.97 -3.75 -2.17 z m 33.85 -14 c 0.84 -1.33 0.58 -2.23 -1.2 -4.12 l -2.26 -2.41 l 7.79 -3.7 c 7.4 -3.52 11.3 -6.11 11.3 -7.51 0 -0.35 -3.92 -1.24 -8.71 -1.97 -8.97 -1.38 -15.44 -3.29 -23.29 -6.9 -2.47 -1.14 -5.73 -2.33 -7.23 -2.64 -3.95 -0.82 -9.28 -6.63 -13.17 -14.33 -2.27 -4.5 -5.64 -8.87 -10.24 -13.29 -7.95 -7.63 -13.98 -11.39 -21.82 -13.63 -6.34 -1.8 -10.9 -0.92 -17.61 3.42 -8.1 5.23 -9.74 13.72 -5.43 27.86 5.31 17.42 17.1 27.72 37.83 33 8.44 2.16 9.1 2.19 13.82 0.65 4.06 -1.31 5.6 -1.39 8.24 -0.44 1.79 0.65 4.84 1.18 6.78 1.18 4.54 0 9.51 1.74 10.22 3.57 0.3 0.79 1.8 1.44 3.33 1.45 1.53 0.01 3.46 0.46 4.28 1 2.15 1.43 6.12 0.76 7.37 -1.23 z m 60.5 -64.91 c 2.89 -1 4.06 -2.86 11.55 -18.25 12.1 -24.92 12.75 -29.1 5.98 -39.87 -3.42 -5.46 -6.76 -7.87 -8.48 -6.11 -1.48 1.53 -12.97 27.58 -12.97 29.42 0 0.99 0.9 2.08 2 2.43 2.67 0.85 3.53 4.8 1.91 8.77 -0.73 1.78 -3.7 7.37 -6.61 12.43 -2.91 5.06 -5.29 9.9 -5.29 10.75 0 1.9 6.98 2.15 11.91 0.43 z m -35.67 -35.1 c 3.52 -3.68 6.61 -8.63 10.39 -16.58 2.96 -6.23 5.13 -11.74 4.82 -12.25 -2.41 -3.9 -8.64 3.41 -16.1 18.86 -5.66 11.78 -6.73 15.22 -4.71 15.22 0.31 0 2.81 -2.36 5.57 -5.25 z m -66.2 -83.4 c 0 -1.23 -5.33 -6.3 -6.63 -6.3 -0.69 0 -1.97 1.01 -2.83 2.25 -1.44 2.06 -1.43 2.35 0.13 3.5 1.79 1.31 9.33 1.76 9.33 0.56 z m -4.75 58.74 c -3.82 -2.37 -4.31 -4.35 -0.87 -3.49 4.9 1.23 13.21 -5.18 11.1 -8.57 -0.35 -0.57 -0.11 -2.62 0.53 -4.57 1.68 -5.09 -0.15 -9.1 -4.73 -10.35 -2.13 -0.59 -4.4 -0.6 -5.89 -0.04 -3.07 1.17 -3.04 0.47 0.23 -4.25 3.74 -5.4 6.64 -5.87 10.88 -1.76 5.97 5.79 7.56 13.69 5.1 25.34 -1.34 6.37 -2.95 7.88 -9.65 9.1 -2.55 0.46 -4.34 0.08 -6.73 -1.4 z m -44.1 -1.73 c -2.15 -0.86 -3.39 -5.33 -3.79 -13.7 -0.3 -6.28 0.03 -8.8 1.61 -12.38 1.09 -2.47 1.99 -5.11 1.99 -5.87 0 -3.55 5.08 -1.04 6.45 3.45 0.54 1.77 0.29 2 -1.18 2 -3.34 0 -4.27 3.28 -4.27 10.93 0 8.18 1.1 11.23 4 11.23 2.25 0 2.37 0.38 0.93 3.07 -1 1.88 -3.09 2.33 -5.78 1.25 z" style="fill:#555169"/><g transform="matrix(1.243 0 0 1.271 -21.35 -21.43)" style="fill:#2f2e47"><path d="m 90.6 61.4 c 1.37 -3.45 2.34 -10.96 6.13 -12.1 4.16 -1.13 9.68 -1.66 11.69 -1.12 0.67 0.18 0.82 0.48 0.82 1.57 0 1.11 -0.31 1.67 -1.74 3.17 -2.27 2.66 -3.6 5.38 -5.21 8.46 -3.72 0.03 -7.2 0.08 -11.71 0.02 z"/><path d="m 75.6 189 c -6.42 -2.69 -9.99 -5.23 -13.33 -9.51 -2.58 -3.31 -3 -3.55 -6 -3.4 -0.97 0.05 -1.4 -0.16 -2 -0.97 -1.54 -5.1 -0.84 -11.1 0.28 -16.53 2.38 -11.41 5.47 -17.43 12.89 -25.1 l 2.97 -3.09 c 0.23 3.47 0.76 7.08 1.43 10.24 1.41 5.1 -0.77 9.93 -1.16 14.2 -1.18 5.87 -1.65 12.24 -0.55 16.52 1.87 7.17 3.62 11.46 6.29 15.4 1.58 2.33 2 3.22 1.53 3.19 -0.17 -0.01 -1.22 -0.39 -2.33 -0.86 z"/></g><use transform="matrix(1.576 0 0 1.412 -62.7 -36.3)" xlink:href="#0" style="fill:#d9465e"/><g style="fill:#2f2e47"><g transform="matrix(1.243 0 0 1.271 -21.35 -21.43)"><path d="m 158.8 191.8 c -5 -2.27 -11.52 -2.45 -17.53 -4.11 -0.8 -0.23 -3.47 -1.21 -5.93 -2.19 -4.59 -1.75 -10.13 -3.17 -13.19 -6.24 -5.7 -7.34 -11 -14.93 -10.57 -23.1 0.7 -10.77 6.08 -24.61 12.2 -31.38 2.62 -2.9 6.73 -4.95 11.63 -5.79 2.86 -0.42 8.98 -1.22 4.52 -3.34 -1.03 -0.48 -2.68 -1.63 -3.66 -2.55 -2.1 -1.98 -2.25 -2.93 -0.86 -5.71 1.47 -2.96 2.21 -3.44 5.54 -3.68 1.58 -0.11 3.08 -0.37 3.33 -0.57 0.76 -1.63 0.49 -3.43 -0.48 -4.31 -0.52 -0.2 -1.87 -0.36 -3 -0.36 -3.97 0 -6.29 -2.12 -6.29 -5.74 0 -3.85 1.31 -5.43 6.59 -7.97 1.91 -0.92 3.76 -1.89 4.11 -2.16 1.37 -1.06 2.19 -4.39 3.75 -15.24 0.51 -3.52 1.06 -6.98 1.23 -7.68 l 0.31 -1.28 l 1.39 3.27 c 1.2 2.84 -1.45 17.9 -2.94 30.2 -0.95 7.84 -1.07 12.97 -0.37 16.69 1.2 6.37 3.52 14.98 4.42 16.35 1.03 1.58 3.55 3.4 5.32 3.86 1.09 0.28 1.28 0.51 1.55 1.86 2.59 4.38 5.4 -1.34 7.76 -3.74 7.69 -9.55 8.4 -20.29 14.67 -27.92 2.31 -2.91 4.55 -5 6.29 -5.93 1.57 -0.82 4.81 -1.12 7.69 -0.72 5.67 0.79 7.38 2.55 7.38 7.58 0 2.56 -0.04 2.67 -1.47 4.18 -2.18 2.31 -9.2 16.5 -11.15 22.52 -0.79 2.43 -0.54 3.46 1.07 4.4 2.98 1.76 2.33 4.7 -3.09 14.1 -5.25 9.14 -5.65 10.61 -3.11 11.47 2 0.67 6.76 0.35 9.33 -0.63 1.11 -0.42 2.14 -0.77 2.31 -0.77 0.64 0 1.35 2.67 1.35 5 0 5.23 -2.94 10.54 -9.5 17.2 -4.18 4.22 -7.2 6.39 -12.63 9.1 -3.84 1.89 -15.65 6.44 -16.6 6.39 -0.13 -0.01 -0.74 -0.47 -1.36 -1.04 z m -2.92 -6.5 c 2.96 -0.6 9.37 -2.44 12.16 -3.48 2.05 -0.77 3.05 -1.78 3.05 -3.11 0 -1.35 1.59 -2.18 8.34 -4.35 3.56 -1.14 7.58 -2.66 8.93 -3.36 3 -1.56 5.37 -4 6.95 -7.23 3.81 -6.39 -10.51 -0.36 -13.53 0.69 -2.07 0.72 -7.36 6.37 -8.1 3.69 -0.48 -1.85 3.68 -4.16 8.27 -6.54 7.59 -3.16 -2.36 -2.79 -4.05 -2.79 -6.1 -2.06 -9.5 5 -14.4 5.16 -2.56 -0.03 -4.29 -0.57 -7 -2.18 -3.19 -1.89 -4.07 -1.87 -4.72 0.11 -2.48 2.67 -5.33 4.26 -5.96 7.23 -1.23 4.15 -4.44 7.87 -8.91 7.98 -1.22 0 -2.8 1.09 -3.06 2.11 1.36 8.79 15.33 7.26 21.99 6.07 z"/><path d="m 118.7 216.6 c -1.73 -1.54 -2.71 -1.49 -4.49 -0.71 -3.52 1.56 -4.42 0.09 -4.42 -7.14 v -5.11 l 2.74 -0.64 c 3.34 -0.78 6.42 -0.82 9.33 -0.11 1.21 0.29 2.95 0.53 3.88 0.54 2.1 0.01 4.69 0.77 6.16 1.82 1.94 1.38 1.6 2.3 -2.26 6.1 -3.58 3.48 -7.71 6.77 -8.51 6.77 -0.26 0 -1.35 -0.66 -2.42 -1.46 z m 4.18 -1.47 c 0.52 -0.41 1.61 -1.74 2.43 -2.97 1.88 -2.82 2 -4.42 0.41 -5.25 -1.78 -0.92 -3.23 -0.72 -4.6 0.65 -2 2 -2.49 5.31 -1.08 7.46 0.68 1.04 1.61 1.07 2.84 0.1 z m -8.83 -1.89 c 1.73 -1.85 2.26 -3.19 2.29 -5.79 0.03 -2.29 -0.01 -2.38 -0.91 -2.49 -3.51 0.96 -5.51 5.35 -4.38 8.5 0.49 1.29 1.66 1.2 3 -0.22 z"/><path d="m 147 213.1 c -0.89 -0.51 -2.43 -1.52 -3.42 -2.25 l -1.8 -1.32 l 1.86 -0.88 c 1.9 -0.91 3.33 -2.33 3.33 -3.32 0 -0.31 -0.42 -1.28 -0.94 -2.17 -0.75 -1.28 -0.85 -1.71 -0.5 -2.14 0.64 -0.78 1.34 -0.64 1.57 0.3 0.11 0.46 0.94 1.69 1.84 2.74 1.85 2.17 2.5 3.79 2.54 6.35 0.02 1.39 -0.16 1.98 -0.84 2.7 -1.08 1.15 -1.61 1.15 -3.63 -0.01 z"/><path d="m 89.3 213.5 c -0.6 -0.27 -2.17 -0.61 -3.48 -0.75 -4.85 -0.52 -5.98 -1.73 -5.98 -6.41 -0.01 -2.97 -0.04 -2.87 3.25 -8.3 0.91 -1.5 1.62 -2.29 2.07 -2.29 0.38 0 2.2 0.77 4.06 1.71 1.86 0.94 5.18 2.39 7.37 3.21 2.2 0.82 4.06 1.69 4.14 1.93 0.08 0.24 -0.38 0.7 -1.02 1.03 -1.51 0.78 -2.45 1.85 -4.99 5.66 -1.77 2.35 -2.62 5.3 -5.42 4.2 z m 2.28 -3.22 c 1.45 -1.8 3.81 -7.51 0.39 -7.57 -0.78 0 -1.28 0.36 -2.12 1.52 -1.97 2.72 -2.24 5.58 -0.63 6.71 0.81 0.56 1.1 0.48 2.36 -0.66 z m -7.44 -0.58 c 0.35 -0.38 0.87 -1.48 1.15 -2.44 0.65 -2.17 0.71 -6.38 0.08 -6.38 -0.84 0 -3.92 3.68 -4.17 4.98 -0.63 3.34 1.2 5.74 2.93 3.83 z"/></g><path d="m 78.4 159.8 c 2 -2.11 4.96 -5.4 6.54 -7.32 4.69 -5.71 13.51 -15.48 15.26 -16.9 1.95 -1.63 3.59 -0.84 5.66 -0.3 3.7 0.96 13.27 -0.68 20.59 -3.54 2.25 -0.88 4.18 -1.51 4.29 -1.4 -5.25 4.97 -13.55 7.14 -18.73 8.7 -10.6 3.18 -11.76 4.08 -19.69 15.26 -2.3 2.94 -5.27 8.9 -8.4 7 -4.14 -1.24 -5.33 0.71 -8.8 2.31 -0.22 0 1.26 -1.73 3.28 -3.84 z"/><path d="m 118.3 117.4 c -2.54 -1.44 -2.29 -2.39 0.84 -3.13 3.24 -0.76 8.13 -3.52 8.82 -4.98 0.04 -5.9 2.29 -13.29 -0.23 -18.74 -1.08 -2.23 -2.44 -3.17 -5.14 -3.51 -4.56 -0.59 -5.2 -0.78 -5.2 -1.6 0 -2 4.58 -6.9 6.46 -6.9 1.49 0 5.7 5 7.36 8.82 2.88 6.53 3.2 13.66 1 22.2 -1.33 5.13 -2.59 6.74 -6.25 7.98 -3.11 1.05 -5.7 1.01 -7.67 -0.1 z"/><path d="m 64.3 102.4 c -0.64 -5.65 1.77 -15.1 4.64 -19.84 1.39 -2.28 5.13 -1.89 7.48 1.45 1.61 2.3 -1.92 2.89 -4.72 3.41 -0.9 0.17 -1.89 0.7 -2.2 1.18 -1.61 4.45 0.75 20.89 0 23 -0.1 0 -3.67 -2.61 -4.06 -4.3 z"/><path d="m 73.7 106.1 c -1.28 -0.74 -2.12 -3.84 -1.37 -5 1.54 0.08 2.46 1.62 4.06 2.71 1.3 0.67 1.39 1.39 0.28 2.17 -0.94 0.66 -2 0.71 -2.97 0.16 z" transform="matrix(1.243 0 0 1.271 -21.35 -21.43)"/></g><g style="fill:#ffb6c1"><use transform="matrix(0.694 0 0 0.635 33.86 40.2)" xlink:href="#0"/><use transform="matrix(0.528 0 0 0.617 12.13 39)" xlink:href="#0"/></g></g></svg>