<svg xmlns="http://www.w3.org/2000/svg" viewBox="0 0 256 256" xmlns:xlink="http://www.w3.org/1999/xlink"><defs><path id="0" d="m 219.9 181.2 a 2.16 3.39 0 1 1 -4.31 0 2.16 3.39 0 1 1 4.31 0 z" style="fill:#fff0f5"/></defs><g style="fill:#ef6708"><path d="m 45.74 1015.4 c -201 -265.2 352.1 -302.9 174.6 -32.2 -40.46 61.73 -121.4 102.4 -174.6 32.2 z" transform="matrix(-0.992 0 0 -1 256.1 1053.4)" style="fill:#7192a7;color:#fff"/></g><path d="m 101.3 219.5 c -43.4 -3.93 -74.2 -16.54 -76.4 -31.3 c -1 -6.71 4.64 -23.29 16.24 -20 96 27 116.4 -20.53 160.2 -3.3 12.1 4.74 20.92 11.38 23.1 17.36 5.85 15.82 -21.1 30.5 -66.6 36.3 -10.12 1.29 -46.2 1.9 -56.67 0.95 z" style="fill:#88d85b"/><path d="m 37.45 173.5 c 0.86 -6.2 0.44 -12 1.57 -18.2 -2.6 0.82 3.97 -1.71 6.31 -2.44 6.78 -2.13 7.8 -3.18 8.45 -8.69 0.31 -2.66 -0.94 -5.39 -0.3 -6.07 1.06 -1.12 12.99 -3.99 15.79 -3.99 0.88 0 -0.76 -0.92 -0.43 -6.59 0.28 -4.76 1.41 -8.38 2.09 -8.82 0.58 -0.38 4.74 -1.42 7.45 -1.92 2.72 -0.51 5.43 -1.44 6 -2.07 1.78 -5.26 -1.5 -11.12 2.12 -17.51 l 7.41 -1.91 c 7.88 -0.75 7.69 -5.64 8.13 -16.8 l 3.41 -1.35 c 1.88 -0.74 4.89 -1.87 6.7 -2.51 3.77 -1.34 5.31 -3.84 5.33 -8.66 0.01 -2.29 -0.85 -5.77 0.48 -7.18 2.24 -2.38 11.66 -4.23 12.99 -2.82 26.73 0.88 39.2 -0.16 61.3 1.9 0.55 45.86 -1.92 97.5 -2.45 132.9 -50.1 1.2 -153.8 10.53 -152.4 -17.23 z m 50.72 -2.31 c 0 -3 -1.13 -6.54 -3.13 -6.98 -4.78 -1.04 -40.6 -6.61 -41.84 -6.61 -2.05 2.22 -2.18 7.31 -0.27 10 9.51 1.46 44.81 8.72 45.2 3.56 z m 3.86 -12.73 c -9 -2.81 -35.64 -7.14 -38.71 -6.3 -4.85 1.33 -3.45 2.49 4.79 3.96 8.8 1.57 25 3.93 30.2 4.38 3.44 -1.16 2.95 -0.25 3.7 -2.04 z m 8.68 -12.73 c -2.76 -2.3 -22.1 -3.39 -38.91 -5.14 l -5.93 -0.62 v 3.53 c 0 4.15 -0.69 3.82 12.74 6.24 12.49 2.25 24.34 3.72 26.45 3.29 4 0.12 7.99 -5.25 5.66 -7.3 z m 6.68 -4.32 c 1.75 -1.17 -6.84 -0.96 -18.66 -2.83 -16.2 -2.56 -22.2 -3.11 -22.2 -2.03 0 0.5 0.65 1.11 1.44 1.36 1.39 0.43 13.84 2.4 24.86 3.93 2.94 0.41 5.53 0.78 5.75 0.84 0.23 0.05 7 0.68 8.78 -1.27 z m 8.99 -5.83 c 1.47 -2.22 3.5 -7.35 1.2 -8.94 -0.99 -0.69 -15.1 -1.05 -23.5 -2.07 -17.19 -2.07 -20.68 -2.19 -21.2 -0.7 -0.52 1.53 0.3 7 1.19 8 1.04 1.2 20.1 3.69 29.2 3.82 6.77 0.09 12 1.45 13.1 -0.15 z m 8.53 -14.19 c 0.26 -1.77 -12.31 -1.77 -22.61 -2.96 -9.67 -1.11 -25.1 -1.12 -25.1 -0.01 0 1.22 2.39 1.66 13.56 2.5 0.53 1.64 37 2.6 34.1 0.47 z m 11.9 -5.35 c 1.32 -1.4 1.53 -8.31 1.53 -8.98 0 -0.67 -2.07 0.43 -4.25 -0.58 -18.39 -1.17 -27.1 -1.87 -46.3 -2.79 0.38 3.42 -0.63 6.36 0.64 9.49 14.57 3.5 39.92 4.63 48.4 2.87 z m 11.1 -15.78 c 0.21 -0.36 -1.41 -1 -3.14 -1.29 -7 -1.19 -36.3 -3.31 -41.4 -3 -5.27 0.31 -8.24 1.64 -6.88 3.08 1.17 1.24 49.1 5.19 51.5 1.21 z m 6.95 -6.34 c 2.76 -1.33 3.12 -7.4 0.45 -10.23 -1.61 -1.7 -3.38 0.01 -9.13 -0.44 -11.37 -0.91 -41.4 -2.09 -42 -1.66 -0.89 3.68 -0.62 6.66 -0.62 10.66 l 2.79 0.55 c 2.94 0.58 26 1.77 38.88 2 4.28 0.08 8.47 -0.3 9.66 -0.88 z m 5.38 -15.43 c 0 -1.51 -2.8 -1.85 -22.88 -2.78 -14.99 -0.7 -20.89 -0.69 -22.66 0.03 -4.39 1.8 -1.08 2.61 11.86 2.88 29.98 0.63 33.68 0.61 33.68 -0.13 z m 8.95 -5.86 c 2.96 -0.63 4.09 -3.48 2.86 -7.19 -0.74 -2.24 -0.89 -2.28 -13.1 -3.28 -6.77 -0.56 -18.28 -1.05 -25.58 -1.09 -14.58 -0.08 -14.28 -0.2 -14.25 5.43 0.02 5.06 0.56 5.31 12.49 5.87 16.18 0.75 34.61 0.88 37.54 0.26 z" style="fill:#405b84"/><g transform="matrix(0.811 0 0 0.752 -102.5 237.1)"><rect width="13.15" height="67.7" x="250" y="-311.5" rx="6.57" ry="8.62" transform="matrix(0.862 0.506 -0.45 0.893 0 0)" style="fill:#ffa500"/><rect width="96.4" height="55.71" x="272.5" y="-110.4" rx="6.64" ry="6.35" style="fill:#ea673b"/><path d="m 135.5 201.5 c 0 6.97 -5.65 12.63 -12.63 12.63 -6.97 0 -12.63 -5.65 -12.63 -12.63 0 -6.97 5.65 -12.63 12.63 -12.63 6.97 0 12.63 5.65 12.63 12.63 z" transform="matrix(1.593 0 0 1.649 83.97 -393.9)" style="fill:#5687e8"/><path transform="matrix(0.432 0.234 -0.284 0.634 276.6 -223.5)" d="m 135.5 201.5 c 0 6.97 -5.65 12.63 -12.63 12.63 -6.97 0 -12.63 -5.65 -12.63 -12.63 0 -6.97 5.65 -12.63 12.63 -12.63 6.97 0 12.63 5.65 12.63 12.63 z" style="fill:#87ceeb"/><rect ry="7.12" rx="9.71" y="-295" x="-298.7" height="47.2" width="26" transform="matrix(-0.404 0.915 -0.876 -0.482 0 0)" style="fill:#942b39"/><path d="m 303.3 -121.5 c -1.83 0.04 -3.75 -0.49 -5.31 -0.99 -6.1 -1.98 -12.3 -7.72 -14.44 -12.84 -1.8 -4.48 -2.65 -5.79 -4.17 -9.76 9.43 -5.52 18.86 -11 28.3 -16.55 2.89 4.23 5.18 9.38 5.99 13.35 1.75 8.86 1.61 14.24 -0.5 18.77 l -1.24 2.66 c 5.33 10.61 10.66 21.2 16 31.84 -2.91 1.7 -5.83 3.41 -8.74 5.11 -5.63 -11.21 -11.26 -22.42 -15.87 -31.59 z m 1.83 -11.3 c 4.95 -4.34 1.87 -11.54 0.53 -17.68 -5.69 3.33 -11.38 6.66 -17.1 9.99 2.97 3.44 6.26 8.17 9.64 9.73 2.53 1.14 4.65 0.52 6.9 -2.03 z" style="fill:#c54560"/></g><g style="fill:#ee8be7"><path d="m 94.4 200.5 c -0.4 -0.11 -1.74 -0.85 -2.99 -1.64 -2.7 -1.72 -3.64 -1.77 -7.39 -0.38 -2.75 1.02 -5.49 1.34 -6.78 0.8 -1.38 -4.44 3.26 -8.37 0.37 -12 -1.75 -2.14 -3.13 -5.76 -2.68 -7 3.71 -2 6.24 -0.06 10.63 -0.4 2.96 -1.73 8.44 -8.23 10.92 -5.72 0.61 0.66 0.78 1.41 0.78 3.41 -0.34 5.92 7.38 3.57 7.4 7.51 0 1.32 -0.29 1.9 -1.67 3.38 -1.67 2.09 -4.6 1.68 -5.73 3.82 0 0.19 0.44 1.52 0.97 2.95 1.17 3.14 1.23 4.55 0.22 5.14 -0.76 0.44 -2.73 0.51 -4.06 0.14 z"/><path d="m 41.7 190.6 c -0.08 0.43 -0.07 2.04 0.01 3.58 0.18 3.35 -0.16 4.26 -2.66 7.21 -1.84 2.16 -3.16 4.62 -3.28 6.1 -0.6 4.18 7.36 0.46 8.88 5 0.86 2.62 2.94 5.57 4 5.71 0.88 0.12 1.58 -1.23 2.82 -5.37 0.7 -3.68 2.38 -5.29 5.23 -6.75 4.31 -2.19 5.54 -3.58 4.98 -5.64 -1.76 -2.75 -6.55 -1.25 -4.28 -6.8 0.31 -1.08 0.61 -2.69 0.66 -3.57 0.08 -1.44 -0.03 -1.68 -1.07 -2.32 -3.64 -1.74 -5.64 3.1 -8.19 3.8 -0.14 -0.09 -0.93 -1.1 -1.76 -2.26 -1.82 -2.53 -2.82 -3.23 -3.66 -2.53 -3.14 1.18 -1.47 2.52 -1.72 3.8 z"/><path d="m 206.6 159 c 0.47 4 0.19 6.95 -2.5 8.52 -2.16 1.24 -3.64 2.92 -3.67 4.17 -0.03 0.95 -1.17 3.25 5.88 3.3 3.2 0.61 4.55 1.87 5.79 4.34 1.3 2.62 1 7.11 5.58 6.48 1.12 0.42 1.91 -0.51 3.14 -3.7 1.05 -3.62 3.06 -3.82 6.09 -4 5.29 -0.36 6.74 -1.14 5.87 -3.15 -0.37 -0.86 -1.02 -1.47 -2.94 -2.79 -4.19 -2.71 -2.79 -3.89 -2.49 -7.64 -0.01 -1.23 -0.17 -1.48 -1.54 -2.43 -2.29 -1.23 -4.93 -1.69 -6.91 -0.22 -0.5 0.81 -2.35 1.16 -3.16 0.6 -0.18 -0.13 -1.27 -1.31 -2.42 -2.62 -2.07 -2.74 -5.79 -5.35 -6.71 -0.82 z"/></g><use transform="matrix(-1.452 0 0 1.364 533.6 -75.98)" xlink:href="#0"/><use transform="matrix(-1.655 0 0 1.106 449.8 -13.7)" xlink:href="#0"/><use transform="matrix(-1.351 0 0 1.235 342 -22.52)" xlink:href="#0"/><g style="fill:#ff0"><path d="m 187.7 205.4 a 6.11 3.49 0 1 1 -12.22 0 6.11 3.49 0 1 1 12.22 0 z" transform="matrix(0.953 0 0 1 22.78 -5.45)"/><path transform="translate(2.5 0.54)" d="m 187.7 205.4 a 6.11 3.49 0 1 1 -12.22 0 6.11 3.49 0 1 1 12.22 0 z"/></g><path d="m 175.6 200.3 c -2.18 0.13 -3.5 -0.25 -7.46 -2.14 -4 -1.91 -6.95 -4.38 -9.79 -8.22 -1.84 -2.5 -6 -8.99 -5.92 -9.25 0.03 -0.1 1.76 -1.17 3.85 -2.38 l 3.79 -2.2 l -2.44 -4.68 l -2.44 -4.68 l 0.43 -1.37 c 0.4 -1.28 0.54 -1.43 2.05 -2.22 1.27 -0.66 1.83 -0.8 2.61 -0.66 1.71 0.32 2.37 1.11 4.71 5.6 l 2.13 4.1 l 4.33 -2.26 l 4.33 -2.26 l 1.04 2.3 c 6.32 14 7.54 18.98 5.84 23.63 -0.77 2.1 -3.25 5.64 -4.33 6.2 -0.38 0.19 -1.61 0.41 -2.74 0.48 z" style="fill:#6e58a3"/><path d="m 163.7 191.3 c 0.07 0.38 -0.08 1.95 -0.32 3.48 -0.53 3.32 -0.15 4.07 3 5.92 2.32 1.36 3.91 3.22 3.95 4.6 0.03 1.05 -2.15 2.31 -6.32 3.64 -3.48 0.69 -6.63 2.38 -7.95 5.08 -0.25 6.1 -2.77 6.29 -4.28 6.87 -1.21 0.46 -2.05 -0.56 -3.38 -4.09 -1.11 -3.95 -3.23 -4.21 -6.55 -4.46 -5.69 -0.4 -7.25 -1.26 -6.31 -3.47 0.4 -0.94 1.1 -1.62 3.16 -3.08 4.52 -2.99 3 -4.33 2.68 -8.43 0.01 -1.36 -0.11 -4.23 1.37 -5.27 2.46 -1.36 5.61 0.75 7.73 2.35 0.54 0.89 2.53 1.28 3.4 0.66 2.09 -1.64 5.11 -7.52 7.8 -6.8 0.81 0.26 1.78 1.71 2 3 z" style="fill:#ee8be7"/><use transform="matrix(-1.452 0 0 1.364 468.9 -42.2)" xlink:href="#0"/></svg>