<svg xmlns="http://www.w3.org/2000/svg" viewBox="0 0 256 256"><path d="m 223.9 40.4 c 144.5 223.4 -250.2 309.9 -218.7 79.99 12.82 -93.8 163.4 -165.5 218.7 -79.99" style="fill:#d4aee8"/><g transform="matrix(4.744 0 0 4.805 17.69 24.84)"><path d="M 24,9 C 15.72,9 9,15.72 9,24 c 0,8.28 6.72,15 15,15 3.97,-0.0151 8.2,-1.18 11,-4 V 34 L 24,24 26,22 h 3 v -3 h 3 v -3 h 3 V 13 C 35,13 24.4,9 24,9 z" style="opacity:0.1"/><path d="m 29,12 -3,9 h 3 v -3 h 3 v -3 h 3 v -3 z m -3,13 3,9 h 6 v -3 h -3 v -3 h -3 v -3 z" style="fill:#f9f9f9"/><path d="M 24,8 C 15.72,8 9,14.72 9,23 c 0,8.28 6.72,15 15,15 3.97,-0.0151 8.2,-1.18 11,-4 L 24,23 35,12 C 32.19,9.19 27.98,8 24,8 z" style="fill:#545454"/></g></svg>