<svg xmlns="http://www.w3.org/2000/svg" viewBox="0 0 256 256"><path d="m 194.2 19.47 c 224 192.7 -236.7 378.1 -189.3 79.98 10.38 -65.4 128.9 -131.9 189.3 -79.98" style="fill:#b0e0e6"/><g style="fill:#29588b"><path d="m 78.3 198.4 c -5.13 -2.13 -8 -4 -12.92 -8.43 -4.51 -4.07 -8.67 -8.58 -7.91 -8.58 0.21 0 2.71 1.62 5.55 3.61 6.3 4.4 12.59 6.93 18.41 7.42 3.57 0.3 5.43 0.02 10 -1.5 7.96 -2.64 16.59 -6.82 23.34 -11.3 25.33 -16.83 30.55 -19.7 42.2 -23.27 8.46 -2.58 19.57 -2.5 30.86 0.23 13.1 3.15 11 4.54 -9.91 6.82 -19.64 2.14 -27.69 4.9 -46.76 16 -6.72 3.92 -14.47 8.38 -17.22 9.91 -15.99 8.89 -28.5 12.1 -35.7 9.1 z"/><path d="m 73.4 179.5 c -0.83 -0.91 -0.97 -5.4 -0.99 -32.94 -0.02 -17.53 0.17 -32.1 0.42 -32.37 0.25 -0.27 5.41 -0.59 11.48 -0.71 3.17 0.9 11.27 -1.3 11.41 1.41 0.58 2.52 0.69 61.98 0.12 64.91 -0.43 2.22 -0.83 2.69 -2.86 3.31 -6.59 2.48 -14.58 1.46 -19.59 -3.61 z"/></g><path d="m 113.9 174.4 c -0.7 -1.16 0.25 -62.7 0.19 -72.5 l -0.06 -9.87 c 3.82 0.49 20.89 -1.26 22.47 1.05 0.37 0.62 0.62 14.68 0.63 34.49 0.01 30.97 0.49 31.37 -0.56 32.39 -7.46 3.89 -15.34 10.25 -22.66 14.43 z" style="fill:#2d5f92"/><path d="m 153 150.3 c -0.6 -1.15 -0.71 -10.25 -0.47 -38 0.17 -20.1 0.53 -37 0.8 -37.69 0.43 -1.04 1.55 -1.17 10 -1.16 5.24 0.01 10.18 0.19 10.98 0.41 l 1.46 0.4 v 37.72 c 0 20.75 -0.22 37.74 -0.49 37.77 -6.31 -1.65 -18.1 -0.47 -22.29 0.58 z" style="fill:#4b80b4"/></svg>