<svg xmlns="http://www.w3.org/2000/svg" viewBox="0 0 256 256" xmlns:xlink="http://www.w3.org/1999/xlink"><defs><path id="0" d="m 59.97 141.7 a 6.59 4.94 0 1 1 -13.18 0 6.59 4.94 0 1 1 13.18 0 z"/></defs><path d="m 62.5 26.54 c 131.4 -89.3 260.3 81.7 152.6 187.6 -101.4 99.8 -254.8 3.22 -204.3 -122.2 10.54 -26.2 27.51 -49 51.64 -65.4" style="fill:#5d5b63"/><g transform="matrix(0.811 0.03 -0.03 0.81 -9.95 -14.64)"><path d="m 226 142.3 c 0 48.95 -37.77 88.6 -84.4 88.6 -46.59 0 -84.4 -39.68 -84.4 -88.6 0 -48.95 37.77 -88.6 84.4 -88.6 46.59 0 84.4 39.68 84.4 88.6 z" transform="matrix(1.175 0.11 -0.103 1.096 18.83 6.15)" style="fill:#242326"/><path d="m 207.1 216.9 c -11.18 -9.24 -10.73 -24.1 -12.32 -34.51 -6.7 -0.4 -11.7 0.37 -16.23 3.54 -3.2 2.28 -5.25 2.97 -11.1 3.75 -11.1 3.24 -7.8 -15.29 -5.61 -19.8 1.83 -3.38 2.49 -4.15 0.02 -10.32 -2.08 -5.18 -2.86 -5.59 -8.14 -3 -4.2 2.04 -8.76 2.16 -16.34 0.42 -6.07 -1.39 -11.43 -4.16 -12.72 -6.58 -1.58 -5.66 6.54 -12.76 11.47 -14.87 1.31 -0.52 6.68 -1.44 11.94 -2.05 13.42 -1.55 14.28 -1.75 17.4 -4 4.15 -3.06 35.1 -39.5 35.39 -42.2 1.4 -3.97 3.82 -5.19 9.41 -3.24 18.71 4.3 32.3 17.56 43.74 34.2 2.6 2.61 -1.11 8.24 -3.62 12.33 -6.13 6.16 -28.1 36.3 -30.48 40.66 -1.28 2.38 -1.23 3.37 0.71 13.98 1.67 9.15 1.79 16.69 0.32 20.57 -0.54 1.43 -2.22 4.08 -3.73 5.89 -4.11 4.93 -7.44 6.66 -10.15 5.28 z" style="fill:#fff"/><path d="m 250.3 123 c -10.16 -7.76 -48.8 -33.2 -45.88 -40.63 0.34 -0.67 3.87 -3.57 7.85 -6.45 10.5 -7.6 22.52 -11.81 31.47 -11 13.49 1.81 21.75 15.1 21.81 25.6 -0.07 11.46 -5.89 30.74 -9.97 33.1 -2.79 0.84 -3.55 0.37 -5.27 -0.56 z" style="fill:#ed333b"/><path d="m 156 214.2 c -1.11 -1.21 -4.8 -4.26 -8.21 -6.78 -8.1 -5.99 -8.87 -6.75 -9.89 -9.86 -1.42 -4.31 -0.7 -8.1 3.12 -16.62 3.95 -8.81 6.39 -12.62 10.49 -16.42 3.69 -3.42 6.58 0.01 3.15 3.62 -6.25 18.24 0.83 30.52 18.58 27.38 6.08 -2.48 10.1 -8.75 14.67 -7.64 -0.51 2.26 -1.04 4.57 -2 6.66 -3.8 6.24 -19.57 19.2 -25.89 21.2 -1.9 0.62 -2.09 0.54 -4 -1.55 z" style="fill:#ffa500"/><path d="m 134.7 223.4 c -2.24 -3.21 -1.14 -14.1 0.73 -21 l 0.67 -2.5 c 6.68 6.64 12.27 11.24 19.44 16.67 l -2.25 1.85 c -4 2.16 -15.41 9.45 -18.58 5 z" style="fill:#ff4500"/></g><path d="m 174.6 78.7 a 11.2 9.89 0 1 1 -22.41 0 11.2 9.89 0 1 1 22.41 0 z" transform="matrix(1.046 0.138 -0.153 1.159 -0.23 -21.77)" style="fill:#5d5b63"/><g style="fill:#f5f5f5"><use transform="matrix(0.764 0.101 -0.131 0.991 43 -13.42)" xlink:href="#0"/><use transform="matrix(0.791 0.104 -0.134 1.015 156 -2.41)" xlink:href="#0"/></g><g style="fill:#dcdcdc"><use transform="matrix(0.684 0.09 -0.114 0.866 80.5 -50.3)" xlink:href="#0"/><use transform="matrix(0.656 0.086 -0.107 0.812 91.6 74.5)" xlink:href="#0"/><use transform="matrix(0.442 0.058 -0.071 0.541 55.6 93.3)" xlink:href="#0"/><use transform="matrix(0.476 0.063 -0.078 0.595 109.2 -11.86)" xlink:href="#0"/></g></svg>