<svg xmlns="http://www.w3.org/2000/svg" viewBox="0 0 256 256"><path d="m 80.4 12.1 c 311.2 -96.2 155.6 420.5 -57.66 178.9 -42.72 -48.4 -26.3 -153 57.66 -178.9" style="fill:#30b566"/><g transform="translate(6.25 4.17)" style="fill:#f3d23a"><path d="m 62.1 186.5 c -1.13 -1.36 -1.49 -8.51 -1.73 -33.96 -0.26 -28.1 -0.09 -32.56 1.36 -34.78 l 1.66 -2.54 l 59.66 0.32 c 48.69 0.26 59.98 0.58 61.4 1.74 1.53 1.27 1.72 4.99 1.71 34.4 -0.01 18.92 -0.44 33.6 -1 34.5 -0.78 1.23 -3.97 1.64 -15.1 1.92 l -14.1 0.36 l -0.02 -9.21 c -0.04 -19.57 -2.72 -28.43 -10.62 -35.2 -7 -5.99 -12.64 -8.15 -21.64 -8.27 -9.46 -0.13 -16.89 2.9 -23.58 9.63 -6.62 6.66 -7.92 10.34 -8.89 25.1 -1.28 19.6 0.31 17.7 -14.81 17.7 -10.7 0 -13.1 -0.29 -14.3 -1.72 z" style="fill:#ffd700"/><path d="m 131.4 112.2 c -0.75 -1.22 10.53 -29.9 18.45 -46.92 l 5.38 -11.55 l 2 3.9 c 4.79 9.33 22.6 52.73 22.6 55.1 0 1.09 -47.76 0.6 -48.4 -0.49 z" style="fill:#4d8ad6"/><path d="m 122.9 93 c 0 10.64 -10.26 19.26 -22.91 19.26 -12.65 0 -22.91 -8.63 -22.91 -19.26 0 -10.64 10.26 -19.26 22.91 -19.26 12.65 0 22.91 8.63 22.91 19.26 z" transform="matrix(1.045 0 0 1.243 -5.59 -27.31)" style="fill:#ea4d4e"/></g></svg>