<svg xmlns="http://www.w3.org/2000/svg" xmlns:xlink="http://www.w3.org/1999/xlink" viewBox="0 0 256 256"><path d="m 209.6 30.3 c -153.6 -117.9 -312.9 175.7 -122.9 218.7 119.7 44.1 236.6 -131.3 122.9 -218.7" style="fill:#55498e"/><g transform="matrix(4.469 0 0 4.412 18.51 29.3)"><path d="m 16 13 c -3.31 0 -6 2.69 -6 6 0 1.72 0.74 3.36 2.04 4.5 -1.29 1.14 -2.03 2.78 -2.04 4.5 0 3.31 2.69 6 6 6 0.7 -0.01 1.39 -0.13 2.04 -0.38 0.32 3.05 2.89 5.37 5.96 5.38 3.07 -0.01 5.64 -2.32 5.96 -5.38 0.66 0.24 1.35 0.37 2.04 0.38 3.31 0 6 -2.69 6 -6 0 -1.72 -0.74 -3.36 -2.04 -4.5 1.29 -1.14 2.03 -2.78 2.04 -4.5 0 -3.31 -2.69 -6 -6 -6 0 0 -15.9 0.16 -16 0 z" style="opacity:0.1"/><circle r="6" cy="14" cx="24" style="fill:#6765cd"/><circle r="6" cy="18" cx="16" id="0" style="fill:#f1920e"/><circle r="6" cy="32" cx="24" style="fill:#dd8913"/><use xlink:href="#1" transform="translate(16)" width="1" height="1"/><circle r="6" cy="27" cx="16" id="1" style="fill:#7674d8"/><use xlink:href="#0" transform="translate(16)" width="1" height="1"/><circle r="6" cy="23" cx="24" style="fill:#ee9f30"/></g></svg>