<svg xmlns="http://www.w3.org/2000/svg" viewBox="0 0 256 256"><path d="m 66.6 30.3 c 59.1 -58.5 113.7 -15.66 158.5 30.84 c 36.52 37.86 38.2 72.98 13.98 110.2 c -63.2 97.2 -145.2 133.2 -231.2 -17.52 c -21.2 -49.71 23.52 -96 58.64 -123.5" style="fill:#56416b"/><path d="m 124.9 200.6 c -11.57 -5.14 -64.6 -34.49 -66.6 -36.84 -0.53 -0.64 -0.72 -12.91 -0.59 -37.84 l 0.19 -36.9 l 6.52 -3.95 c 8 -4.85 40.95 -22.85 53.91 -29.46 l 9.54 -4.86 l 9.92 5.1 c 24.68 12.57 58.6 31.61 59.4 33.4 0.8 1.64 1.21 66 0.45 71.1 l -0.6 4.09 c -23.2 13.83 -48.2 26.98 -68.83 37.66 z m 9.93 -15.23 c 3.8 -1.89 16.75 -8.71 28.79 -15.2 l 21.88 -11.72 v -31.87 v -31.87 l -16.65 -9 c -24.76 -13.44 -39.81 -21.1 -41.3 -21.1 c -1.33 0 -11.93 5.51 -42.1 21.88 l -15.2 8.22 c 0.04 13.8 -0.23 28.2 -0.48 40.2 l -0.48 22.82 l 17.88 9.87 c 17.2 9.5 39.44 21.2 40.3 21.2 2.89 -1.25 5 -2.29 7.33 -3.43 z" style="fill:#9d8cf2"/><path d="m 83.97 152.3 c -0.88 -0.17 -2.23 -1 -2.99 -1.85 -1.29 -1.42 -1.39 -3.19 -1.39 -24.62 0 -26.2 -0.25 -25.2 6.12 -26.2 5.1 -0.84 78.2 -0.8 84 0.05 3.16 0.46 5.21 1.17 5.87 2.04 0.83 1.09 0.96 5.61 0.69 24.2 -0.22 14.67 -0.64 23.41 -1.17 24.4 -0.52 0.97 -1.89 1.73 -3.66 2 -3.09 0.51 -84.9 0.48 -87.5 -0.03 z m 16 -28.38 l 0.21 -12.1 c -2.21 -0.28 -4.79 -1.02 -6.92 -0.29 -1.5 0.56 -1.56 1.03 -1.4 12.1 0.09 6.33 0.34 11.79 0.55 12.14 0.22 0.35 1.96 0.53 3.88 0.41 l 3.49 -0.23 z m 15.88 0.09 v -12.35 c -2.42 0 -4.85 0 -7.27 0 l -0.47 3.93 c -0.74 6.15 -0.57 17.72 0.29 19.32 -0.87 2.8 4.32 1.45 7.46 1.45 z m 15.71 0 v -12.35 c -2.49 0 -4.99 0 -7.48 0 v 11.85 c 0 6.52 0.22 12.1 0.5 12.35 2.42 0.69 4.38 0.5 6.98 0.5 z m 16.68 2.81 c 0.55 -11.74 0.08 -14.49 -2.58 -15.2 -2.06 -0.48 -3.86 -0.16 -5.86 0.23 v 11.76 c 0 6.47 0.22 11.98 0.5 12.26 2.6 0.69 4.71 0.5 7.5 0.5 0.15 -3.18 0.3 -6.36 0.45 -9.54 z" style="fill:#c4bee4"/><rect width="96.7" height="11.71" x="79.6" y="141.5" rx="0.51" ry="5.24" style="fill:#76c"/></svg>