<svg xmlns="http://www.w3.org/2000/svg" viewBox="0 0 256 256"><path d="m 222.2 217 c 145.1 -222.7 -251.2 -308.9 -219.6 -79.7 12.87 93.5 164.1 165 219.6 79.7" style="fill:#9d7140"/><path transform="matrix(0.962 0 0 1.053 7.2 -14.42)" d="m 197 184.8 a 41.93 38.48 0 1 1 -83.9 0 41.93 38.48 0 1 1 83.9 0 z" style="fill:#fff"/><path d="m 197 184.8 a 41.93 38.48 0 1 1 -83.9 0 41.93 38.48 0 1 1 83.9 0 z" transform="matrix(0.767 0 0 0.856 37.92 22.31)" style="fill:#ff0b04"/><g style="fill:#fff"><path d="m 151.9 203.3 c -5.33 -0.48 -10.25 -2.33 -13 -6.94 -1.83 -7.46 -1.61 -14.43 -1.47 -23.75 0.16 -9.24 -1.61 -12.77 3.58 -12.76 5.2 -0.31 4.35 4.13 4.06 16.4 0.53 14.52 0.14 16.54 0.8 17.24 6.12 0.83 17.4 4.13 21.39 -0.2 0.91 -1.03 2.24 -1.53 2.07 -7.1 -0.39 -12.36 -2.61 -14.19 4 -14.19 2.76 0 2.62 -0.63 2.62 11.21 0 6.08 -0.18 11.38 -0.41 12.26 -0.61 2.33 -2 3.81 -5.39 5.67 -4.45 2.45 -9 2.99 -18.21 2.16 z"/><rect width="71" height="83.1" x="54.6" y="57.77" rx="12.1" ry="13.24"/></g><g style="fill:#825023"><path d="m 65.97 93.5 c -4.76 -7.77 -6.53 -5.64 0.12 -14.43 3.72 -4.92 6.58 -9.16 8.56 -8.49 1.75 0.59 13.1 13.66 13.25 16.44 0.05 1.18 -4.11 4 -4.58 6.56 -1.4 12.72 -0.89 23.1 -1.34 36.2 -5.06 0.65 -10.58 -0.37 -15 -0.36 -0.31 -9.78 1.1 -32 -0.98 -35.94 z"/><path d="m 97.4 93.5 c -4.76 -7.77 -6.53 -5.64 0.12 -14.43 3.72 -4.92 6.58 -9.16 8.56 -8.49 1.75 0.59 13.1 13.66 13.25 16.44 0.05 1.18 -4.11 4 -4.58 6.56 -1.4 12.72 -0.89 23.1 -1.34 36.2 -5.06 0.65 -10.58 -0.37 -15 -0.36 -0.31 -9.78 1.1 -32 -0.98 -35.94 z"/></g></svg>