<svg xmlns="http://www.w3.org/2000/svg" viewBox="0 0 256 256"><path d="m 24.46 195.9 c -139.3 -254.4 369.5 -266.4 194.4 -4.15 -46.2 67.5 -156.9 100.4 -194.4 4.15" style="fill:#ff8c00"/><g transform="matrix(9.868 0 0 9.901 48.1 42.2)" style="fill:#fff"><path d="m 7 1.47 c -0.59 0 -1.06 0.47 -1.06 1.06 v 5.29 c 0 0.59 0.49 1.06 1.06 1.06 h 1.59 v 2.12 l 2.12 -2.12 h 4.23 c 0.59 0 1.06 -0.47 1.06 -1.06 v -5.29 c 0 -0.59 -0.47 -1.06 -1.06 -1.06" style="fill:#fff;stroke-width:1.06"/><path d="m 116.7 123.1 a 23.96 21.91 0 1 1 -47.92 0 23.96 21.91 0 1 1 47.92 0 z" transform="matrix(0.112 0 0 0.124 -5.31 -7.23)" style="fill:#ff8c00"/><g transform="matrix(1.14 0 0 1.085 -0.91 -0.82)" style="fill:#fff;stroke-linecap:round;stroke-linejoin:round"><circle r="2.12" cy="8.47" cx="4.76" style="stroke-dasharray:9.90328 0.825264;stroke-width:0.83"/><path d="M 4.76,11.1 C 3,11.1 1.58,12.52 1.58,14.28 v 0.53 c 0,0.29 0.24,0.53 0.53,0.53 H 7.4 c 0.29,0 0.53,-0.24 0.53,-0.53 v -0.53 c 0,-1.76 -1.42,-3.17 -3.17,-3.17 z" style="stroke-width:1.27"/></g></g></svg>