<svg xmlns="http://www.w3.org/2000/svg" viewBox="0 0 256 256"><path d="m 131.6 254.6 c -26.4 -2.05 -57.3 -14.66 -78.8 -32.2 -26.2 -21.31 -45.4 -53.99 -50.5 -86.2 -6.14 -42.55 18.58 -88.3 46.5 -110 14 -10.57 32.58 -18.98 49.99 -22.66 45.3 -9.58 92.6 8.56 125 47.96 19.42 23.62 29.47 47.4 31.93 75.6 2.94 33.77 -10.42 69.98 -34.8 94.4 -27.74 22.99 -56.3 35.46 -89.2 33.1" style="fill:#008b00"/><g style="fill:#fff"><path d="m 67.4 108 c -6.49 -8.76 -10.13 -18.1 -3.49 -29.2 c 3.72 -6.31 6.36 -8.29 13.16 -9.87 4.62 -1.07 4.9 -1.29 7.1 -5.53 3.44 -6.74 4.95 -8.42 10.55 -11.77 10.62 -5.2 23 -4.56 32.37 -0.86 3.9 1.55 17.71 11.75 26.62 20 11.61 -10.84 15.27 -0.83 6 8.9 -4.67 4.9 -18.1 -10.1 -28.2 -16.1 -8.6 -4.9 -19.93 -6.61 -26.39 -5 -9.95 2.44 -10.84 3.11 -13.77 10.39 -3.97 9.85 -3.79 9.68 -11.19 10.46 -3.58 0.38 -7 1.22 -7.61 1.86 -3.95 4.2 -4 13.81 -0.16 18.95 2.52 3.34 13.1 11.45 11.45 13.66 -3.72 4.93 -13.16 -2.91 -16.38 -5.89 z" transform="matrix(1 0 0 1.095 3.64 -1.53)"/><path d="m 80.3 193.8 c -7.95 -0.21 -8.09 -0.32 -6.26 -4.53 0.48 -1.1 1.31 -3.47 1.86 -5.27 1.3 -4.26 8.78 -19.3 12 -24.2 l 2.53 -3.79 h 40.75 h 40.75 l 6.11 12.1 c 6.1 12.1 9.75 20.79 9.93 23.63 0.08 1.21 -0.26 1.58 -1.73 1.9 -1.79 0.39 -92 0.46 -105.9 0.09 z m 64.72 -5.32 c 4.39 -1.13 6.61 -2.63 6.85 -4.65 0.35 -2.9 -1.12 -3.26 -7.45 -1.8 -6.34 1.46 -15.38 1.75 -19.2 0.62 -5.13 -1.54 -9.1 -6.63 -7.79 -10 0.85 -2.24 3.32 -4.8 6.4 -6.61 3.44 -2.03 10.69 -2.56 15.38 -1.12 1.83 0.56 4.43 1.06 5.76 1.1 2.03 0.07 2.43 -0.11 2.43 -1.1 0 -1.43 -3.16 -3.68 -6.61 -4.7 -8.55 -2.54 -23.27 1.03 -28.6 6.93 -3.95 4.38 -4.75 7.94 -2.76 12.34 2.11 4.64 8.35 8.59 15.83 10 3.81 0.72 15.35 0.16 19.71 -0.95 z"/><path d="m 129.7 96.5 h 12.73 v 42.4 h -12.73 z"/><path d="m 154.6 104.4 h 12.1 v 42.4 h -12.1 z"/><path d="m 103.7 80.2 h 12.73 v 52.75 h -12.73 z"/><path d="m 177 76.5 h 12.1 v 28.5 h -12.1 z"/></g></svg>