<svg xmlns="http://www.w3.org/2000/svg" viewBox="0 0 256 256"><path d="m 52.77 231.1 c 192.5 127.7 311 -279.6 62.2 -225.7 -102.8 22.98 -165.2 167.1 -62.2 225.7" style="fill:#66cdaa"/><g transform="matrix(0.836 0 0 0.794 -10.71 12.1)"><path d="m 108.2 138.3 c 0 -5.59 10.35 -97.9 11.23 -100.5 0.95 -2.79 1.36 -2.99 5.19 -2.47 37.7 2.31 67.4 5.21 103.5 11.59 -2.28 26.73 -4 41.68 -7.23 88.4 l -0.54 2.49 c -13.26 0.78 -104.2 1.17 -112.2 0.51 z" style="fill:#fff"/><path d="m 148.4 133.2 c -4.8 -0.92 -6.45 -4.63 -7.68 -7.16 -3.06 -6.32 -6.14 -14.61 9.26 -17.49 2.61 -0.49 2.29 -1.53 2.66 -4.7 0.75 -6.38 0.78 -6.47 3.2 -9.16 5.1 -5.62 12.1 -6.39 17.64 -1.93 2.56 2.05 3.94 5.1 4.25 9.31 0.4 3.36 -0.48 4.82 -1.74 7.46 0 0.1 1.91 1.66 4.25 3.47 19.1 3.33 3.92 34.9 -10.89 18.55 l 2.03 18.26 c 0.65 5.81 -18.68 3.27 -15.62 -2.82 5.99 -11.92 1.47 -15.94 0.63 -16.26 z"/><path d="m 193 81.3 c -1.45 -0.48 -3.78 -2.42 -4.49 -3.74 -1.79 -3.3 -3.59 -7.64 5.42 -9.14 1.53 -0.25 1.34 -0.8 1.56 -2.46 0.44 -3.34 0.46 -3.38 1.87 -4.79 2.96 -2.94 7.1 -3.34 10.32 -1 1.5 1.07 2.31 2.66 2.48 4.87 0.23 1.76 -0.28 2.52 -1.02 3.9 0 0.05 1.12 0.87 2.49 1.81 11.15 1.74 2.29 18.24 -6.37 9.7 l 1.19 9.54 c 0.38 3.04 -10.93 1.71 -9.14 -1.47 3.5 -6.23 0.86 -8.33 0.37 -8.5 z"/><path d="m 160.5 277.7 c -4.49 -1.7 -12.96 -5.5 -29.59 -13.28 -8.14 -3.81 -18.82 -8.74 -23.73 -10.96 -4.91 -2.22 -10 -4.8 -11.39 -5.74 l -2.46 -1.69 v -53.3 v -53.3 l 1.76 -0.81 c 1.6 -0.73 7.85 -0.81 68.94 -0.84 55.79 -0.03 67.6 0.08 69.4 0.65 l 2.23 0.68 v 38.2 c 0 21 -0.14 45.2 -0.31 53.79 l -0.31 15.62 l -6.38 3.21 c -6.63 3.34 -44.85 21.24 -52.66 24.66 -5.54 2.43 -10.73 4.35 -11.71 4.32 -0.41 -0.01 -2.11 -0.54 -3.79 -1.17 z" style="fill:#6a8f5d"/></g><path d="m 107.3 77.2 c -0.52 -0.21 -1.49 -1.38 -2.15 -2.59 -2.16 -3.91 -5 -4.33 -6.87 -1 -0.94 1.68 -2.84 2.72 -4.52 2.47 -0.99 -0.15 -1.1 -0.42 -1.08 -2.55 0.02 -1.9 0.66 -3.72 3.16 -9 1.72 -3.64 3.77 -7.43 4.56 -8.43 1.54 -1.95 3.78 -2.77 5.26 -1.93 1.05 0.59 3.39 7.94 4.74 14.91 1.29 6.63 1.24 7.36 -0.58 8 -0.82 0.3 -1.51 0.53 -1.54 0.51 -0.03 -0.02 -0.47 -0.21 -0.99 -0.42 z m -3.27 -10.29 c 0.74 -3.13 -1.02 -6 -2.43 -4 -0.89 1.26 -0.87 3.28 0.04 4.65 0.86 1.3 2 1 2.39 -0.61 z"/><g style="fill:none;stroke:#fff"><path d="m 77.2 133.9 l 98.9 -0.56" style="stroke-dasharray:5.82237 5.82237;stroke-width:5.82"/><g style="stroke-dasharray:5.5818 5.5818;stroke-width:5.58"><path d="m 173.2 142 l 0.81 63.75"/><path d="m 79.8 143.1 l 0.81 63.75"/></g></g></svg>