<svg xmlns="http://www.w3.org/2000/svg" xmlns:xlink="http://www.w3.org/1999/xlink" viewBox="0 0 256 256"><defs><path d="m 67.4 45.74 a 20.2 20.2 0 1 1 -40.4 0 20.2 20.2 0 1 1 40.4 0 z" id="C"/><clipPath id="B"><path transform="matrix(1.415 -0.817 0.817 1.415 -56.2 21.86)" d="m 67.4 45.74 a 20.2 20.2 0 1 1 -40.4 0 20.2 20.2 0 1 1 40.4 0 z"/></clipPath><clipPath><rect y="6" x="6" rx="6" height="84" width="84" style="fill:#fff"/></clipPath><filter id="A" height="1.22" width="1.17" y="-0.11" x="-0.09" style="color-interpolation-filters:sRGB"><feGaussianBlur stdDeviation="2.356"/></filter><linearGradient gradientUnits="userSpaceOnUse" id="8" y2="65.95" x2="0" y1="37.2"><stop style="stop-color:#fff"/><stop offset="1" style="stop-color:#989898"/></linearGradient><linearGradient gradientUnits="userSpaceOnUse" xlink:href="#1" id="9" x2="57.4" x1="38.59"/><linearGradient gradientUnits="userSpaceOnUse" id="7" y2="60.93" x2="0" y1="36.63"><stop style="stop-color:#ccc"/><stop offset="1" style="stop-color:#969696"/></linearGradient><linearGradient gradientUnits="userSpaceOnUse" id="6" y2="57.4" x2="0" y1="38.61"><stop style="stop-color:#fff"/><stop offset="1" style="stop-color:#3a3a3a"/></linearGradient><linearGradient id="1"><stop style="stop-color:#fff"/><stop offset="1" style="stop-color:#fff;stop-opacity:0"/></linearGradient><linearGradient gradientUnits="userSpaceOnUse" xlink:href="#1" id="3" x2="94.4" x1="27"/><linearGradient gradientUnits="userSpaceOnUse" xlink:href="#1" id="2" y2="57.3" x2="52.3" y1="38.67" x1="43.1"/><linearGradient gradientUnits="userSpaceOnUse" id="4" x2="67.4" x1="27"><stop style="stop-color:#1a1a1a"/><stop offset="1" style="stop-color:#3a3a3a"/></linearGradient><linearGradient gradientUnits="userSpaceOnUse" id="5" x2="59.1" x1="35.1"><stop style="stop-color:#b4b4b4"/><stop offset="0.5" style="stop-color:#787878"/><stop offset="1" style="stop-color:#b4b4b4"/></linearGradient><radialGradient gradientUnits="userSpaceOnUse" id="0" r="20.2" cy="45.74" cx="47.2"><stop style="stop-opacity:0"/><stop offset="0.83"/><stop offset="1" style="stop-opacity:0"/></radialGradient></defs><path d="m 3.74 155.2 c 19.83 131.1 217.2 135 247 7.59 c 30.7 -103.2 -80.5 -187.4 -163.6 -153.6 -55.68 16 -100.7 81.3 -83.4 146.1" style="fill:#808080"/><g transform="matrix(-2.638 0 0 -2.647 256.2 256.5)"><use xlink:href="#C" transform="matrix(1.364 -0.787 0.787 1.364 -52.4 22.8)" width="1" height="1" style="fill:url(#5)"/><g transform="matrix(0.97 0 0 0.97 1.44 1.44)" style="clip-path:url(#B);filter:url(#A)"><path transform="matrix(0 -1.633 1.633 0 -26.77 125.2)" d="M 67.3 47.74 A 20.2 20.2 0 0 1 49.4 65.83 l -2.15 -20.1 z" style="fill:#fff;opacity:0.2"/><path id="E" transform="matrix(0.817 -1.415 1.415 0.817 -55.3 77.5)" d="M 67.4 45.74 A 20.2 20.2 0 0 1 61.5 60 L 47.2 45.74 z" style="fill:#fff"/><path transform="matrix(1.633 0 0 1.633 -29.1 -26.71)" d="m 66.79 50.8 a 20.2 20.2 0 0 1 -3.14 6.71 L 47.2 45.74 z" style="fill:#fff;opacity:0.2"/><use xlink:href="#E" transform="matrix(-0.866 -0.5 0.5 -0.866 65.5 113.7)" width="1" height="1"/></g><use xlink:href="#C" transform="matrix(0 -1.237 1.237 0 -8.61 106.4)" width="1" height="1" style="fill:url(#3);opacity:0.6"/><use xlink:href="#C" transform="matrix(0 -1.188 1.188 0 -6.34 104.1)" width="1" height="1" style="fill:url(#4)"/><path d="m 48,30.89 -3.5,4.67 c -5.44,1.53 -9.43,6.51 -9.43,12.44 0,7.14 5.79,12.93 12.93,12.93 7.14,0 12.93,-5.79 12.93,-12.93 0,-5.93 -3.99,-10.92 -9.43,-12.44 L 48,30.89 z" style="fill:url(#7)"/><use xlink:href="#C" transform="matrix(0.528 0 0 0.528 23 24.2)" width="1" height="1" style="fill:url(#0)"/><use xlink:href="#C" transform="matrix(0.466 0 0 0.466 26 26.7)" width="1" height="1" style="fill:url(#8)"/><path d="m 35.88,28.44 1.24,-0.72 2.87,4.98 -1.24,0.72 -2.87,-4.98 z m -10.28,14.3 0.37,-1.39 5.55,1.49 -0.37,1.39 -5.55,-1.49 z m 2.84,17.38 -0.72,-1.24 4.98,-2.87 0.72,1.24 -4.98,2.87 z m 14.3,10.28 -1.39,-0.37 1.49,-5.55 1.39,0.37 -1.49,5.55 z m 17.38,-2.84 -1.24,0.72 -2.87,-4.98 1.24,-0.72 2.87,4.98 z m 10.28,-14.3 -0.37,1.39 -5.55,-1.49 0.37,-1.39 5.55,1.49 z m -2.84,-17.38 0.72,1.24 -4.98,2.87 -0.72,-1.24 4.98,-2.87 z m -14.3,-10.28 1.39,0.37 -1.49,5.55 -1.39,-0.37 1.49,-5.55 z" style="fill:#fff;opacity:0.7"/><path d="m 48,38.59 c -0.41,0 -0.82,0.02 -1.22,0.07 L 48,41.72 49.22,38.66 C 48.82,38.61 48.41,38.59 48,38.59 z m 1.22,0.07 0.39,3.28 1.98,-2.65 C 51.21,39.13 50.81,39 50.41,38.9 c -0.4,-0.11 -0.8,-0.19 -1.2,-0.24 z m 2.38,0.64 -0.47,3.26 2.6,-2.03 C 53.41,40.28 53.06,40.05 52.7,39.84 52.34,39.63 51.97,39.46 51.6,39.3 z m 2.13,1.22 -1.3,3.04 3.04,-1.3 c -0.25,-0.32 -0.52,-0.64 -0.81,-0.93 h -0.02 c -0.29,-0.29 -0.58,-0.56 -0.91,-0.81 z m 1.74,1.74 -2.06,2.6 h 0.02 l 3.26,-0.47 c -0.16,-0.38 -0.33,-0.75 -0.54,-1.1 h -0.02 c -0.21,-0.36 -0.41,-0.71 -0.66,-1.03 z m 1.22,2.13 -2.65,1.98 3.04,-0.83 c -0.11,-0.4 -0.24,-0.77 -0.39,-1.15 z m -2.65,1.98 3.28,0.39 c -0.05,-0.4 -0.14,-0.8 -0.24,-1.2 l -3.04,0.81 z m 3.28,0.39 -3.06,1.22 3.06,1.22 c 0.05,-0.4 0.07,-0.81 0.07,-1.22 0,-0.41 -0.02,-0.82 -0.07,-1.22 z m 0,2.45 -3.28,0.39 2.65,1.98 c 0.16,-0.38 0.29,-0.78 0.39,-1.18 0.11,-0.4 0.19,-0.8 0.24,-1.2 z m -0.64,2.38 -3.26,-0.47 2.03,2.6 c 0.25,-0.32 0.48,-0.67 0.69,-1.03 0.21,-0.36 0.38,-0.73 0.54,-1.1 z m -1.22,2.13 -3.04,-1.3 1.3,3.04 c 0.32,-0.25 0.64,-0.52 0.93,-0.81 v -0.02 c 0.29,-0.29 0.56,-0.58 0.81,-0.91 z m -1.74,1.74 -2.6,-2.06 v 0.02 l 0.47,3.26 c 0.38,-0.16 0.75,-0.33 1.1,-0.54 v -0.02 c 0.36,-0.21 0.71,-0.41 1.03,-0.66 z m -2.13,1.22 -1.98,-2.65 0.83,3.04 c 0.4,-0.11 0.77,-0.24 1.15,-0.39 z m -1.98,-2.65 -0.39,3.28 c 0.4,-0.05 0.8,-0.14 1.2,-0.24 L 49.61,54.03 z M 49.22,57.31 48,54.25 46.78,57.31 c 0.4,0.05 0.81,0.07 1.22,0.07 0.41,0 0.82,-0.02 1.22,-0.07 z m -2.45,0 -0.39,-3.28 -1.98,2.65 c 0.38,0.16 0.78,0.29 1.18,0.39 0.4,0.11 0.8,0.19 1.2,0.24 z m -2.38,-0.64 0.47,-3.26 -2.6,2.03 c 0.32,0.25 0.67,0.48 1.03,0.69 0.36,0.21 0.73,0.38 1.1,0.54 z m -2.13,-1.22 1.3,-3.04 -3.04,1.3 c 0.25,0.32 0.52,0.64 0.81,0.93 h 0.02 c 0.29,0.29 0.58,0.56 0.91,0.81 z m -1.74,-1.74 2.06,-2.6 h -0.02 l -3.26,0.47 c 0.16,0.38 0.33,0.75 0.54,1.1 h 0.02 c 0.21,0.36 0.41,0.71 0.66,1.03 z m -1.22,-2.13 2.65,-1.98 -3.04,0.83 c 0.11,0.4 0.24,0.77 0.39,1.15 z m 2.65,-1.98 -3.28,-0.39 c 0.05,0.4 0.14,0.8 0.24,1.2 l 3.04,-0.81 z m -3.28,-0.39 3.06,-1.22 -3.06,-1.22 c -0.05,0.4 -0.07,0.81 -0.07,1.22 0,0.41 0.02,0.82 0.07,1.22 z m 0,-2.45 3.28,-0.39 -2.65,-1.98 c -0.16,0.38 -0.29,0.78 -0.39,1.18 -0.11,0.4 -0.19,0.8 -0.24,1.2 z m 0.64,-2.38 3.26,0.47 -2.03,-2.6 c -0.25,0.32 -0.48,0.67 -0.69,1.03 -0.21,0.36 -0.38,0.73 -0.54,1.1 z m 1.22,-2.13 3.04,1.3 -1.3,-3.04 c -0.32,0.25 -0.64,0.52 -0.93,0.81 v 0.02 c -0.29,0.29 -0.56,0.58 -0.81,0.91 z m 1.74,-1.74 2.6,2.06 V 42.55 L 44.4,39.29 c -0.38,0.16 -0.75,0.33 -1.1,0.54 v 0.02 c -0.36,0.21 -0.71,0.41 -1.03,0.66 z m 2.13,-1.22 1.98,2.65 -0.83,-3.04 c -0.4,0.11 -0.77,0.24 -1.15,0.39 z m 1.98,2.65 0.39,-3.28 c -0.4,0.05 -0.8,0.14 -1.2,0.24 l 0.81,3.04 z" style="fill:url(#9);opacity:0.2"/><path d="m 57.4 48 c 0 -5.19 -4.19 -9.39 -9.39 -9.39 -5.19 0 -9.39 4.19 -9.39 9.39 0 5.19 4.19 9.39 9.39 9.39 5.19 0 9.39 -4.19 9.39 -9.39 z m -3.05 0 c 0 3.49 -2.84 6.33 -6.33 6.33 -3.49 0 -6.33 -2.84 -6.33 -6.33 0 -3.49 2.84 -6.33 6.33 -6.33 3.49 0 6.33 2.84 6.33 6.33 z" style="fill:url(#6)"/><path d="m 46.78,38.67 -0.39,3.28 c 0.54,-0.14 1.08,-0.22 1.62,-0.22 L 46.79,38.67 z M 48,41.73 c 0.56,0 1.1,0.08 1.62,0.22 l -0.39,-3.28 -1.22,3.06 z m 1.62,0.22 c 0.54,0.14 1.06,0.35 1.52,0.61 l 0.47,-3.26 -1.98,2.65 z m 1.52,0.61 c 0.48,0.28 0.92,0.63 1.3,1 l 1.3,-3.04 -2.6,2.03 z m 1.3,1 c 0.4,0.4 0.71,0.84 0.98,1.3 l 2.06,-2.6 -3.04,1.3 z m -6,-1.62 -1.98,-2.65 0.47,3.26 c 0.48,-0.28 1,-0.47 1.52,-0.61 z m -4.11,-1.42 1.3,3.04 c 0.4,-0.4 0.84,-0.71 1.3,-0.98 l -2.6,-2.06 z m 1.3,3.04 -3.04,-1.3 2.03,2.6 c 0.28,-0.48 0.63,-0.92 1,-1.3 z m -1,1.3 -3.26,-0.47 2.65,1.98 c 0.14,-0.54 0.35,-1.06 0.61,-1.52 z m -0.61,1.52 -3.28,0.39 3.06,1.22 c 0,-0.56 0.08,-1.1 0.22,-1.62 z M 41.8,48 l -3.06,1.22 3.28,0.39 C 41.88,49.07 41.8,48.53 41.8,47.99 z m 0.22,1.62 -2.65,1.98 3.26,-0.47 c -0.28,-0.48 -0.47,-1 -0.61,-1.52 z m 14.75,-5.22 -3.26,0.47 c 0.28,0.48 0.47,1 0.61,1.52 l 2.65,-1.98 z m -2.65,1.98 c 0.14,0.54 0.22,1.08 0.22,1.62 L 57.4,46.78 54.12,46.39 z M 54.34,48 c 0,0.56 -0.08,1.1 -0.22,1.62 l 3.28,-0.39 -3.06,-1.22 z m -0.22,1.62 c -0.14,0.54 -0.35,1.06 -0.61,1.52 l 3.26,0.47 -2.65,-1.98 z m -0.61,1.52 c -0.28,0.48 -0.63,0.92 -1,1.3 l 3.04,1.3 -2.03,-2.6 z m -1,1.3 c -0.4,0.4 -0.84,0.71 -1.3,0.98 l 2.6,2.06 -1.3,-3.04 z m -9.85,-1.3 -2.06,2.6 3.04,-1.3 c -0.4,-0.4 -0.71,-0.84 -0.98,-1.3 z m 0.98,1.3 -1.3,3.04 2.6,-2.03 c -0.48,-0.28 -0.92,-0.63 -1.3,-1 z m 1.3,1 -0.47,3.26 1.98,-2.65 C 45.91,53.91 45.39,53.7 44.93,53.44 z m 1.52,0.61 0.39,3.28 1.22,-3.06 c -0.56,0 -1.1,-0.08 -1.62,-0.22 z m 1.62,0.22 1.22,3.06 0.39,-3.28 c -0.54,0.14 -1.08,0.22 -1.62,0.22 z m 1.62,-0.22 1.98,2.65 -0.47,-3.26 c -0.48,0.28 -1,0.47 -1.52,0.61 z" style="fill:url(#2);opacity:0.7"/><path d="M 46.78,38.67 48,41.73 49.22,38.67 48,40.16 46.78,38.67 z m 0,0 -0.81,1.74 v 0.02 l -1.57,-1.13 1.98,2.65 0.39,-3.28 z m -2.38,0.64 -0.32,1.91 -1.81,-0.69 2.6,2.06 V 42.57 L 44.4,39.31 z m -2.13,1.22 0.2,1.93 -1.93,-0.2 3.04,1.3 -1.3,-3.04 z m -1.74,1.74 0.69,1.81 -1.91,0.32 3.26,0.47 -2.03,-2.6 z m -1.22,2.13 1.13,1.57 -1.76,0.81 3.28,-0.39 -2.65,-1.98 z M 38.67,46.78 40.16,48 38.67,49.22 41.73,48 38.67,46.78 z m 0,2.45 1.74,0.81 h 0.02 l -1.13,1.57 2.65,-1.98 -3.28,-0.39 z m 0.64,2.38 1.91,0.32 -0.69,1.81 2.06,-2.6 h -0.02 l -3.26,0.47 z m 1.22,2.13 1.93,-0.2 -0.2,1.93 1.3,-3.04 -3.04,1.3 z m 1.74,1.74 1.81,-0.69 0.32,1.91 0.47,-3.26 -2.6,2.03 z m 2.13,1.22 1.57,-1.13 0.81,1.76 -0.39,-3.28 -1.98,2.65 z m 2.38,0.64 1.22,-1.49 1.22,1.49 -1.22,-3.06 -1.22,3.06 z m 2.45,0 0.81,-1.74 v -0.02 l 1.57,1.13 -1.98,-2.65 -0.39,3.28 z m 2.38,-0.64 0.32,-1.91 1.81,0.69 -2.6,-2.06 v 0.02 l 0.47,3.26 z m 2.13,-1.22 -0.2,-1.93 1.93,0.2 -3.04,-1.3 1.3,3.04 z m 1.74,-1.74 -0.69,-1.81 1.91,-0.32 -3.26,-0.47 2.03,2.6 z m 1.22,-2.13 -1.13,-1.57 1.76,-0.81 -3.28,0.39 2.65,1.98 z m 0.64,-2.38 -1.49,-1.22 1.49,-1.22 -3.06,1.22 3.06,1.22 z m 0,-2.45 -1.74,-0.81 h -0.02 l 1.13,-1.57 -2.65,1.98 3.28,0.39 z m -0.64,-2.38 -1.91,-0.32 0.69,-1.81 -2.06,2.6 h 0.02 L 56.7,44.4 z m -1.22,-2.13 -1.93,0.2 0.2,-1.93 -1.3,3.04 3.04,-1.3 z m -1.74,-1.74 -1.81,0.69 -0.32,-1.91 -0.47,3.26 2.6,-2.03 z m -2.13,-1.22 -1.57,1.13 -0.81,-1.76 0.39,3.28 1.98,-2.65 z" style="opacity:0.3"/><path d="m 48,30.88 -3.5,4.69 c -5.44,1.53 -9.44,6.51 -9.44,12.44 0,0.18 0.02,0.35 0.03,0.53 0.21,-5.72 4.11,-10.48 9.41,-11.97 l 3.5,-4.69 3.5,4.69 c 5.3,1.48 9.2,6.25 9.41,11.97 0.01,-0.18 0.03,-0.35 0.03,-0.53 0,-5.93 -3.99,-10.91 -9.44,-12.44 L 48,30.88 z" style="fill:#fff;opacity:0.8"/><path id="D" d="m 42.75,25.59 -1.41,0.38 0.78,2.91 c 0.46,-0.14 0.93,-0.24 1.41,-0.34 L 42.75,25.6 z m 16.1,2.13 -1.5,2.63 c 0.42,0.23 0.84,0.46 1.25,0.72 l 1.5,-2.63 -1.25,-0.72 z m -30.44,8.16 -0.72,1.25 2.63,1.5 c 0.23,-0.42 0.46,-0.84 0.72,-1.25 l -2.63,-1.5 z M 70,41.35 67.09,42.13 c 0.14,0.46 0.24,0.93 0.34,1.41 l 2.94,-0.78 -0.38,-1.41 z m -41.5,11.13 -2.94,0.78 0.38,1.41 2.91,-0.78 c -0.14,-0.46 -0.24,-0.93 -0.34,-1.41 z m 37.1,4.91 c -0.23,0.42 -0.46,0.84 -0.72,1.25 l 2.63,1.5 0.72,-1.25 -2.63,-1.5 z m -28.3,7.56 -1.5,2.63 1.25,0.72 1.5,-2.63 C 38.13,65.44 37.71,65.21 37.3,64.95 z m 16.5,2.19 c -0.46,0.14 -0.93,0.24 -1.41,0.34 l 0.78,2.94 1.41,-0.38 -0.78,-2.91 z" style="fill:#fff;opacity:0.3"/><use xlink:href="#D" transform="matrix(0.966 0.259 -0.259 0.966 14.1 -10.79)" width="1" height="1"/></g></svg>