<svg xmlns="http://www.w3.org/2000/svg" viewBox="0 0 256 256"><defs><linearGradient x2="39.86" x1="4.43" gradientUnits="userSpaceOnUse" id="5"><stop style="stop-color:#e2e2e2"/><stop offset="1" style="stop-color:#9f9f9f"/></linearGradient><linearGradient id="4" gradientUnits="userSpaceOnUse" x1="77.7" y1="12.5" x2="80.3" y2="31.86"><stop style="stop-color:#f5a200;stop-opacity:0.89"/><stop offset="1" style="stop-color:#f55f00"/></linearGradient><linearGradient id="6" gradientUnits="userSpaceOnUse" x1="22.8" y1="8.67" x2="24.45" y2="21.82"><stop style="stop-color:#fff"/><stop offset="1" style="stop-color:#fff;stop-opacity:0.17"/></linearGradient><linearGradient id="3" gradientUnits="userSpaceOnUse" spreadMethod="reflect" x1="19.5" x2="32.86"><stop style="stop-color:#be6108"/><stop offset="1" style="stop-color:#f59e11"/></linearGradient><linearGradient id="1" gradientUnits="userSpaceOnUse" gradientTransform="matrix(0.407 0 0 0.517 67.79 11.72)" x1="24.53" y1="9.34" x2="22.55" y2="32"><stop style="stop-color:#ff4d19"/><stop offset="1" style="stop-color:#ff4d19;stop-opacity:0.17"/></linearGradient><linearGradient y2="23.46" x2="37.2" y1="10.26" x1="10" gradientUnits="userSpaceOnUse" id="0"><stop style="stop-color:#e7ebeb"/><stop offset="0.5" style="stop-color:#e6ebeb"/><stop offset="1" style="stop-color:#fff"/></linearGradient><linearGradient id="2" gradientUnits="userSpaceOnUse" x1="76.7" y1="19.45" x2="76.6" y2="25.64"><stop style="stop-color:#fce94f;stop-opacity:0.83"/><stop offset="1" style="stop-color:#fec446"/></linearGradient></defs><path d="m 253.9 182.6 c 25.43 -365.6 -465.6 -91.6 -142.3 63.76 46.3 22.57 124.1 5.76 142.3 -63.76" style="fill:#d41919"/><g transform="matrix(3.162 0 0 3.534 64.94 55.87)"><g style="fill-rule:evenodd"><path d="m 2.5,32.49 c -0.21,1 0.61,2.04 1.96,2 h 36.2 c 1.29,-0.04 1.71,-1.21 1.43,-2.18 L 34.23,3.49 h -26 l -5.71,29 z" style="fill:#a7a7a7;stroke:#656565"/><g style="stroke:#696969"><g transform="matrix(0.999 0 0 1.084 0.03 -1.81)" style="color:#000"><path d="m 7.29,23.99 h 29.3 c 0.83,0 1.5,0.65 1.5,1.46 l 1.29,4.65 c 0,0.81 -0.67,1.46 -1.5,1.46 H 6.45 c -0.83,0 -1.5,-0.65 -1.5,-1.46 l 0.86,-4.65 c 0,-0.81 0.67,-1.46 1.5,-1.46 z" style="fill:#c5c5c5"/><path d="m 7.29,21.85 h 29.3 c 0.83,0 1.5,0.65 1.5,1.46 l 1.29,4.65 c 0,0.81 -0.67,1.46 -1.5,1.46 H 6.45 c -0.83,0 -1.5,-0.65 -1.5,-1.46 l 0.86,-4.65 c 0,-0.81 0.67,-1.46 1.5,-1.46 z" style="fill:url(#5)"/></g><path d="M 7.69,6.76 3.62,27.23 c 0,0 24.78,0 24.78,0 11.86,0 14.35,-3.77 14.35,-3.77 0,0 -3.16,-1.11 -4.51,-5.79 0,0 -2.89,-10.91 -2.89,-10.91 H 7.69 z" style="fill:url(#0)"/></g><path d="M 8.55,7.68 4.79,26.31 c 0,0 16.2,0 23,0 10.58,0 13.3,-2.69 13.3,-2.69 0,0 -2.82,-1.76 -4.05,-6 0,0 -2.58,-9.86 -2.58,-9.86 L 8.53,7.69 z" style="fill:none;stroke:#fff"/><path d="m 8.96,1.49 h 25.2 c 0.87,0 1.58,0.67 1.58,1.5 l 0.36,2.14 c 0,0.83 -0.7,1.5 -1.58,1.5 H 8.63 C 7.76,6.63 7.05,5.96 7.05,5.13 L 7.41,2.99 c 0,-0.83 0.7,-1.5 1.58,-1.5 z" style="fill:#3465a4;stroke:#696969;color:#000"/></g><path d="m 26.39,22.96 -4.33,-0.22 -0.35,-10.66 -5.47,0.63 -0.07,-2 9.78,-0.98 0.43,13.23"/><path d="m 10.69 2.66 h 23.33" style="fill:none;opacity:0.3;stroke:#fff;fill-rule:evenodd;stroke-linecap:round"/><g transform="matrix(0.94 0 0 0.928 8.49 5.32)"><g transform="translate(-8.64 -5.35)" style="stroke-linecap:round;stroke-linejoin:round"><path d="m 48.3 41.1 a 15.65 7.64 0 1 1 -31.3 0 15.65 7.64 0 1 1 31.3 0 z" transform="translate(0 -0.71)" style="fill:#9bbae0;stroke:#3366a4"/><path d="m 48.3 41.1 a 15.65 7.64 0 1 1 -31.3 0 15.65 7.64 0 1 1 31.3 0 z" transform="matrix(0.943 0 0 0.857 2 5.21)" style="fill:none;stroke:#fff"/><g style="stroke:#be6108"><path d="m 32.84,24.2 c -7.1,0 -12.84,2.51 -12.84,5.63 0,0.33 0.06,0.68 0.19,1 H 20 v 8.59 c 0,0.02 0,0.04 0,0.06 0,3.11 5.75,5.66 12.84,5.66 7.1,0 12.87,-2.54 12.88,-5.66 0,-0.02 0,-0.04 0,-0.06 V 30.83 H 45.5 c 0.13,-0.32 0.22,-0.66 0.22,-1 0,-3.11 -5.78,-5.62 -12.88,-5.63 z" style="fill:url(#3)"/><path d="m 32.84 24.1 c -7.1 0 -12.84 2.54 -12.84 5.66 0 0.1 0.02 0.19 0.03 0.28 -0.01 0 -0.02 0 -0.03 0 0.03 0.08 0.05 0.14 0.06 0.22 0 0.01 0 0.02 0 0.03 0 0.01 0 0.02 0 0.03 0.03 0.57 0.24 1.9 0.08 2.54 -0.19 0.76 0.27 1.35 0.76 1.85 0.48 0.48 0.41 1.21 0.8 1.6 0.48 0.48 0.07 0.4 0.85 0.01 0.66 -0.33 1.06 -0.9 1.44 -1.28 0.36 -0.36 1.06 -0.5 1.72 -0.59 0.81 0.24 1.7 0.41 2.63 0.56 0.28 0.62 0.38 1.17 0.81 1.59 0.74 0.74 1.41 0.85 2 1.44 0.03 0.03 0.08 0 0.13 0 0.54 0 0.63 1.03 1.16 1.16 1.06 0.27 1.07 -1.94 1.84 -2.72 0.37 -0.37 1.71 -0.65 2.16 -0.88 0.52 -0.26 0.95 -0.48 1.41 -0.66 0.01 0 0.02 0 0.03 0 0.02 0 0.04 -0.03 0.06 -0.03 0.6 -0.11 1.14 -0.23 1.69 -0.38 0.04 -0.01 0.09 0.01 0.13 0 0.39 0.02 0.74 0.15 1.09 0.5 0.6 0.6 0.93 1.18 1.44 1.56 0.57 0.43 1.21 0.38 1.72 -0.13 0.42 -0.42 0.49 -1.49 1 -2 0.51 -0.51 -0.16 -2.12 0.44 -2.72 0.57 -0.57 0.35 -1.16 0.22 -1.44 0.04 -0.19 0.06 -0.37 0.06 -0.56 0 -3.11 -5.78 -5.66 -12.88 -5.66 z" style="fill:#ffe7c2"/></g><path d="m 32.68 25 c -6.51 0 -11.78 2.03 -11.78 4.52 0 0.08 0.02 0.15 0.03 0.22 -0.01 0 -0.02 0 -0.03 0 0.03 0.06 0.05 0.12 0.06 0.17 0 0.01 0 0.02 0 0.02 0 0.01 0 0.02 0 0.02 0.03 0.46 0.22 1.52 0.08 2.03 -0.17 0.61 0.24 1.08 0.7 1.48 0.44 0.38 0.38 1.56 0.73 1.87 0.44 0.39 0.06 -0.27 0.78 -0.58 0.61 -0.26 0.97 -0.72 1.32 -1.02 0.33 -0.29 0.97 -0.4 1.58 -0.47 0.74 0.19 1.56 0.33 2.41 0.45 0.26 0.5 0.35 0.93 0.75 1.27 0.68 0.59 0.71 1.15 1.24 1.62 0.03 0.03 0.19 -0.24 0.23 -0.24 0.49 0 0.93 1.64 1.41 1.75 0.98 0.21 1.45 -2.14 2.16 -2.76 0.34 -0.3 1.33 -0.4 1.74 -0.58 0.48 -0.21 0.76 -0.97 1.17 -1.11 0.01 0 0.02 0 0.03 0 0.02 0 0.39 0.45 0.41 0.45 0.55 -0.09 0.69 -0.65 1.19 -0.77 0.04 -0.01 0.08 0.01 0.11 0 0.36 0.01 0.68 0.12 1 0.4 0.55 0.48 0.85 0.94 1.32 1.25 0.53 0.34 1.59 1.36 2.05 0.96 0.39 -0.34 0.21 -1.54 0.68 -1.95 0.47 -0.41 0.2 -2.05 0.76 -2.53 0.52 -0.45 -0.26 -1.28 -0.39 -1.5 0.04 -0.15 0.06 -0.29 0.06 -0.45 0 -2.49 -5.3 -4.52 -11.81 -4.52 z" style="fill:none;stroke:#fff;stroke-width:0.86"/></g><g><g style="stroke-linecap:round;stroke-linejoin:round"><g style="fill:#ff8263;stroke:#ff3e0f"><path d="m 21.95,11.65 v 11.19 0.25 h 0.09 c 0.27,0.33 1.05,0.56 1.97,0.56 0.9,0 1.66,-0.24 1.94,-0.56 0.07,-0.08 0.13,-0.16 0.13,-0.25 0,-0.1 -0.04,-0.22 -0.13,-0.31 V 11.66 h -4 z" style="stroke-width:0.5"/><path d="m 34.79 29.6 a 2.36 0.83 0 1 1 -4.69 0 2.36 0.83 0 1 1 4.69 0 z" transform="matrix(0.875 0 0 1 -4.37 -17.78)" style="fill-opacity:0.94;stroke-width:0.53"/></g><path d="m 22.47,12.75 -0.05,9.96 0.15,0.22 -0.12,-0.17 c 0.21,0.3 0.98,0.53 1.69,0.53 0.69,0 1.2,-0.17 1.42,-0.46 0.06,-0.08 0.07,-0.12 0.07,-0.2 0,-0.09 0.09,-0.13 0.03,-0.21 V 12.77 L 24.92,13 24.11,13.11 23.08,13 22.47,12.75 z" style="fill:none;stroke:#ffa18a;stroke-width:0.42"/></g><g transform="matrix(0.315 0 0 0.352 -0.09 1)" style="fill-rule:evenodd"><path d="m 76.8 5.93 c -0.06 4.43 -1.85 7.2 -3.2 10.26 -2.44 5.54 -3.33 11.29 2.13 14.68 5.26 -1.28 14.54 -13.48 1.07 -24.94 z" style="fill:url(#2);opacity:0.9;stroke:url(#4);stroke-linecap:round;stroke-linejoin:round"/><path transform="matrix(0.99 0 0 1.01 0.85 -0.15)" d="m 77.6 8.13 c -0.52 3.46 -1.98 6 -3.06 8.47 -1.19 2.69 -1.96 5.39 -1.81 7.69 0.14 2.17 1.07 3.97 3.25 5.47 1 -0.35 2.22 -1.14 3.38 -2.38 1.3 -1.4 2.46 -3.25 3.06 -5.41 1.09 -3.93 0.25 -8.81 -4.81 -13.84 z" style="fill:none;opacity:0.9;stroke:url(#6)"/><path d="m 78.6 14.43 c -0.42 4.47 -6 7.99 -1.67 12 1.99 -0.48 5.42 -3.95 1.67 -12 z" style="fill:url(#1);opacity:0.95"/></g></g></g></g></svg>