<svg xmlns="http://www.w3.org/2000/svg" viewBox="0 0 256 256"><path d="m 209.6 228 c -153.6 119.1 -312.9 -177.5 -122.9 -220.9 c 119.7 -44.5 236.6 132.6 122.9 220.9" style="fill:#3f4653"/><path d="m 184.9 151.8 c -15.58 -9.18 -62.74 -37.9 -90.1 -54.87 -35.2 -21.85 -35.2 -21.81 -35.2 -22.53 c 0 -0.35 1.88 -0.9 4.18 -1.22 5.51 -0.76 121.2 -0.59 127 0.18 l 4.51 0.6 l 0.23 41.69 c 0.13 22.93 -0.1 41.69 -0.5 41.69 -0.4 0 -4.97 -2.5 -10.15 -5.55 z" style="fill:#3daee9"/><rect width="75.7" height="43.3" x="58.6" y="137.9" rx="15.54" ry="11" style="fill:#1cdc9a"/></svg>