<svg xmlns="http://www.w3.org/2000/svg" viewBox="0 0 256 256"><path d="m 20.77 202.5 c -83.3 -119.1 104.3 -268.2 202.3 -171.3 c 92.4 91.4 -27.1 261.9 -142 217.6 c -24 -9.27 -45.1 -24.54 -60.3 -46.3" style="fill:#b0c2de"/><g style="fill-rule:evenodd"><g style="stroke:#fff"><path d="m 64.2 77.6 h 128.8 v 91.6 h -128.8" style="fill:#86cefa;stroke-width:5.24"/><path d="m 98.7 177.5 h 56.94 v 15.77 h -56.94" style="fill:#b0c2de;stroke-width:4.73"/></g><g style="fill:#fff"><path d="m 60.5 74.6 h 4.98 v 97.4 h -4.98"/><path d="m 97.1 176.7 h 4.98 v 19.2 h -4.98"/></g></g><path d="m 167.2 175.1 c 0.69 -1.17 1.02 -2.38 0.71 -2.71 c -0.29 -0.31 -14.98 -0.83 -32.62 -1.14 c -17.65 -0.32 -33.1 -0.63 -34.38 -0.71 c -1.25 -0.06 -3.65 0.19 -5.31 0.58 c -2.73 0.64 -3.06 0.98 -3.06 3.19 v 2.46 l 36.71 0.21 l 36.69 0.23 m -11.13 -11.34 c 0.29 -0.29 0.52 -0.92 0.52 -1.38 c 0 -0.46 -6.16 -7.58 -13.71 -15.86 c -7.52 -8.27 -13.69 -15.56 -13.69 -16.23 c 0 -0.64 2.4 -3.77 5.31 -6.94 l 5.34 -5.73 l 13.68 14.85 c 7.52 8.16 12.79 13.98 13.21 14.1 c 0.44 0.17 2.09 -1.89 2.09 -2.94 c 0 -1.38 -3.11 -3.75 -13.19 -14.77 c -7.81 -8.52 -15.19 -16.23 -15.19 -17.1 c -5.25 -4.27 -8.29 -8.52 -12.88 -13.42 c -8.83 -9.42 -13.44 -16.31 -14.29 -15.96 c -0.67 0.29 -3.94 3.23 1.5 7.52 c 6.6 5.21 2.85 2.77 9.5 9.91 c 7.08 7.61 12.1 13.36 12.35 14.61 c 0.39 1.67 1.61 -0.9 0.25 0.25 c -0.98 0.81 0.39 -0.12 -0.34 -0.11 c -0.83 0 -10.9 12 -10.9 13 c 0 0.94 0.29 3.79 0.25 -0.02 c 0 -1.61 -0.23 -0.14 -0.23 0.29 c 0 1.31 -12.29 11.84 -13.52 11.84 c -0.63 0 -0.56 0.64 -0.81 -0.21 c -0.54 -1.84 -9.1 -10.86 -10.27 -10.86 c -1.79 0 -2.04 0.77 0.13 4.3 c 1.81 2.89 6.54 6.96 9.17 9.64 c 0.25 0.27 -3.15 2.39 -4.32 4.07 c -1.73 2.54 -3.08 4.73 -2.77 5 c 0.61 0.52 2.77 0.21 4.83 -1.36 c 2.35 -1.77 4.56 -4.88 4.88 -4.88 c 1.06 0 -1.1 -1.77 -0.21 -0.04 c 2.09 3.98 10.12 11.1 11.68 11.1 c 1.25 0 1.63 -0.07 1.19 -1.63 c -0.27 -0.98 -5.88 -7 -6.73 -8.14 c -1.04 -1.33 -1.89 -2.89 -1.89 -3.45 c 0 -1.52 7.33 -9.1 8.25 -8.46 c 0.42 0.29 6.19 6.52 12.81 13.84 c 11.71 12.96 16.35 16.85 18 15.1 m -37.81 -2.94 c 0 -1.1 -8.69 -10.64 -12.77 -14.52 c -1.19 -1.13 -1.15 -1.02 -1.44 -1.02 c -0.44 0 -2.81 -2.32 -5.27 -5.17 c -3.89 -4.48 -4.56 -4.96 -5.06 -3.61 c -0.44 1.23 -1.39 1.98 2.9 6.52 c 2.98 3.17 6.18 5.64 6.18 6.16 c 0 1.25 -5.39 7.48 -7 8.19 c -1.27 0.52 0.11 3.65 1.27 3.61 c 0.32 -0.02 2.09 -1.88 3.96 -4.14 c 1.88 -2.25 3.94 -4.11 4.61 -4.11 c 0.64 0 5.14 4.58 7.21 6.86 c 3.71 4.11 5.46 3.68 5.46 1.23 m -5.23 -21.49 l 14.35 -9.25 l -4.83 -5.68 c -10.79 -12.63 -27.1 -29 -28.75 -29.1 c -1.04 -0.09 2 -0.16 -1.5 1.86 c -0.67 0.38 7.54 9.48 16.39 19.1 c 8.1 8.71 12.42 14.21 12.48 14.21 c 0.06 0 -8.1 10.39 -8.14 8.94" style="fill:#454a4b"/></svg>