<svg xmlns="http://www.w3.org/2000/svg" viewBox="0 0 256 256"><path d="m 10.66 152.9 c 25.5 168.6 287.7 111 238.1 -52.1 -33.3 -155 -301.6 -113.1 -238.1 52.1" style="fill:#db2b2b"/><g style="fill:#fff"><path d="m 66.2 182 c 0 -0.96 12.88 -23.31 23.79 -41.3 3.81 -6.28 7.43 -11.43 8 -11.43 0.61 0 5.94 4.32 11.83 9.59 5.89 5.28 12.41 10.26 14.47 11.1 4.49 1.77 7.59 0.01 21.79 -12.39 5.38 -4.7 10.48 -8.11 11.34 -7.58 0.85 0.53 6.63 9.63 12.85 20.23 6.21 10.6 12.94 21.84 14.96 24.99 l 3.67 5.72 l -5.81 0.96 c -7.25 1.2 -116.9 1.31 -116.9 0.12 z"/><path d="m 59.91 133.2 c 0 -19.5 0.42 -35.46 0.93 -35.46 1.48 0 24.93 20.45 26.35 22.97 0.86 1.54 -1 6.07 -5.65 13.7 -3.82 6.27 -9.92 16.54 -13.56 22.83 -3.64 6.28 -6.95 11.43 -7.34 11.43 -0.39 0 -0.72 -15.96 -0.72 -35.46 z"/><path d="m 107.6 124.1 c -9.44 -8 -21.98 -18.48 -27.86 -23.2 -9.88 -8 -10.41 -8.74 -7 -9.69 4.71 -1.32 101.5 -1.31 107.6 0.02 4.44 0.96 3.83 1.63 -18.91 20.75 -28.86 24.3 -32.1 26.74 -34.61 26.74 -1.11 0 -9.74 -6.56 -19.2 -14.58 z"/><path d="m 189.3 162.1 c -2.09 -3.77 -7.93 -13.75 -12.99 -22.2 -5.06 -8.42 -9.19 -16.3 -9.19 -17.51 0 -1.21 5.74 -7.37 12.75 -13.71 9.96 -8.99 13.1 -11 14.16 -9.29 1.6 2.53 1.69 60.2 0.1 65.82 -0.97 3.47 -1.28 3.27 -4.84 -3.15 z"/></g></svg>