<svg xmlns="http://www.w3.org/2000/svg" viewBox="0 0 256 256"><path d="m 226.4 46.5 c 62.3 95.2 16.31 190.1 -58.5 202.6 -100.6 24.33 -223.7 -45.1 -138.8 -195 33.74 -59.6 152.9 -75.4 197.3 -7.55" style="fill:#003793"/><g transform="matrix(1.125 0 0 1.089 -16.74 -14.1)" style="fill:#fff"><path d="m 114.8 146.9 c -0.93 -1 -2.64 -4.61 -3.81 -8 -1.17 -3.42 -2.62 -6.22 -3.22 -6.22 -1.9 0 -2.99 3.32 -2.78 8.44 0.22 5.29 -1.1 7.96 -3 6.1 -1.08 -1.08 -1.21 -17.66 -0.2 -24.87 0.38 -2.72 0.03 -4.62 -1.36 -7.33 -1.14 -2.23 -1.87 -5.36 -1.87 -8 0 -3.67 -0.42 -4.73 -2.74 -6.96 -1.51 -1.44 -3.92 -4.4 -5.36 -6.57 -2.28 -3.44 -2.62 -4.77 -2.62 -10.34 0 -5.66 -0.25 -6.63 -2.23 -8.49 -2.07 -1.95 -2.23 -2.7 -2.23 -10.43 0 -10.31 1.32 -10.94 5.29 -2.52 1.51 3.19 3.08 5.81 3.5 5.81 1.29 0 3.41 -2.94 5.37 -7.44 1.37 -3.15 2.3 -4.23 3.46 -4 1.35 0.26 1.62 1.48 1.84 8.27 0.25 7.54 0.14 8.1 -2 10.1 -4.89 4.54 -4.18 8.67 3.13 18.1 5.24 6.77 5.31 6.93 5.31 12.7 0 6.77 1.12 8.29 5.57 7.6 2.65 -0.41 3.4 0.06 8.28 5.26 2.96 3.14 5.86 5.71 6.45 5.71 0.59 0 2.74 -2.2 4.77 -4.9 3.58 -4.74 6.99 -6.69 11.74 -6.71 2.06 -0.01 3.55 -3 2.86 -5.8 -1 -4 0.51 -8.37 4.88 -14.1 5.91 -7.72 6.62 -9.26 5.94 -12.89 -0.4 -2.16 -1.38 -3.56 -3.2 -4.59 -2.56 -1.45 -2.62 -1.66 -2.63 -8.69 -0.01 -8.14 1.38 -11.39 4.13 -9.71 0.86 0.53 1.94 2.13 2.4 3.57 2.17 6.77 6.44 7.51 8.66 1.51 1.69 -4.59 2.99 -6 4.84 -5.29 1.13 0.43 1.4 2.1 1.4 8.52 0 7.8 -0.06 8 -2.71 10.27 -2.54 2.14 -2.7 2.63 -2.52 7.89 0.21 6.21 -0.54 8 -6.39 15.42 -2.28 2.88 -3.71 5.77 -4.08 8.19 -0.34 2.25 -1.41 4.54 -2.7 5.75 -1.5 1.41 -2.14 2.99 -2.14 5.25 0 4.35 -1.3 5.38 -6.77 5.38 -5.46 0 -5.7 0.43 -5.72 10.42 -0.02 8.81 0.22 9.23 5.38 9.23 5.33 0 8.37 2.23 5.7 4.18 -2.19 1.6 -12.92 1.55 -15.1 -0.07 -1.48 -1.08 -1.67 -2.2 -1.44 -8.39 0.17 -4.36 -0.1 -7.37 -0.68 -7.72 -1.51 -0.93 -4.49 1.13 -5.09 3.54 -0.3 1.21 -0.8 2.21 -1.09 2.21 -0.3 0 -2.25 -1.68 -4.33 -3.72 l -3.79 -3.72 l -0.88 2.32 c -0.49 1.28 -0.65 5.08 -0.37 8.46 0.49 5.88 0.42 6.2 -1.8 7.65 -2.21 1.45 -2.39 1.43 -4 -0.3 z m -3.24 -20 c 2.4 -1.78 0.7 -4.52 -2.82 -4.52 -3.1 0 -4.09 2.83 -1.63 4.63 2 1.47 2.32 1.47 4.44 -0.11 z"/><path d="m 123.3 108 c -1.73 -0.5 -5.51 -5.98 -4.74 -9.69 0.27 -1.3 0.81 1.3 2.66 3.04 2.45 2.3 7.32 3.65 10.81 2.98 3.7 -0.71 6.38 -4.2 3.11 -11 -2.59 -5.4 -2.54 -8.31 2.51 -9.56 1.2 -0.3 2.4 0.54 3.43 2.11 1.51 2.3 3.23 4.3 -0.39 6.08 -3.32 1.63 -1.96 5.28 -1.95 8.21 0 6.25 -1.09 7.32 -8 7.86 -3.19 0.25 -6.51 0.25 -7.38 0 z"/><path d="m 116 91.3 c -1.2 -3.68 -0.07 -7.28 2.4 -7.67 2.86 -0.45 5.12 1.53 5.12 4.48 0 6.13 -5.76 8.57 -7.52 3.18 z"/><path d="m 161.7 157.1 c -0.23 -0.37 -0.55 -3.27 -0.72 -6.46 -0.28 -5.21 -0.46 -5.99 -1.81 -7.75 -1.15 -1.51 -1.35 -2.11 -0.85 -2.61 1.76 -1.76 5.12 1 6 4.93 0.65 2.86 0.04 11.57 -0.84 12.15 -0.88 0.58 -1.32 0.52 -1.79 -0.25 z"/><path d="m 169.6 152 c -1.04 -1.04 -1.03 -0.89 -0.32 -4.74 0.42 -2.28 0.39 -3.53 -0.14 -5 -0.78 -2.18 -4.33 -5.29 -7.98 -6.98 -2.43 -1.12 -2.91 -2.16 -1.53 -3.3 1.86 -1.54 5.73 0.56 8.52 4.62 0.9 1.31 2.43 2.68 3.43 3.09 1 0.41 2.13 1.12 2.51 1.59 1.78 2.17 1.77 2.56 -0.17 5.56 -1.05 1.62 -1.9 3.36 -1.9 3.86 0 1.57 -1.4 2.32 -2.42 1.3 z"/><path d="m 172.3 135.3 c -0.16 -0.82 -1.54 -2.85 -3.07 -4.52 -2.73 -2.98 -2.82 -3.03 -6.58 -3.4 -4.29 -0.42 -5.59 -1.3 -4.1 -2.79 0.76 -0.76 1.72 -0.9 4.95 -0.74 3.82 0.19 4.12 0.31 6.26 2.39 3.13 3.05 6.14 7.72 5.93 9.21 -0.13 0.9 -0.56 1.24 -1.63 1.28 -1.23 -0.29 -1.57 -0.55 -1.76 -1.44 z"/><path d="m 179.1 142.1 c -0.61 -0.74 -0.59 -2.95 0.09 -8.44 0.39 -3.15 -0.22 -4.47 -4.2 -9 l -4.11 -4.69 l -5 -0.4 c -6.32 -0.5 -7.75 -0.86 -7.16 -1.82 0.67 -1.08 4.15 -1.72 9.42 -1.73 5.7 -0.02 6.32 0.35 9.71 5.68 1.37 2.16 3.12 4.6 3.89 5.42 1.33 1.41 1.4 1.82 1.42 7.79 0.02 6.56 -0.42 8 -2.39 8 -0.53 0 -1.28 -0.38 -1.66 -0.83 z"/><path d="m 91.6 156.8 c -1.17 -1.33 -1.67 -6.4 -1 -10 0.46 -2.51 0.95 -3.38 2.86 -5.11 1.27 -1.15 2.69 -2 3.16 -1.92 1.43 0.28 1.31 1.99 -0.23 3.32 -1.35 1.16 -1.48 1.68 -1.86 7.31 -0.49 7.45 -1.02 8.61 -2.94 6.43 z"/><path d="m 87.1 139.1 c -0.81 -1.32 3.61 -6.64 6.15 -7.41 1.42 -0.43 3.46 0.5 3.46 1.57 0 0.41 -0.78 1.06 -1.73 1.46 -0.95 0.39 -2.82 1.66 -4.16 2.82 -2.53 2.19 -3.17 2.46 -3.72 1.56 z"/><path d="m 81.93 147.8 c -2.35 -2.69 -2.82 -3.55 -2.47 -4.51 0.24 -0.65 0.36 -3.06 0.27 -5.36 l -0.16 -4.17 l 2.91 -3.75 c 4.06 -5.24 5.31 -6 9.21 -6 5.8 0.03 6.44 2.56 0.82 3.26 -3.47 0.43 -5.35 1.77 -7.91 5.63 -2 3 -2.28 5.95 -0.63 6.48 0.81 0.26 1.13 1 1.36 3.2 0.69 6.7 0.71 8.63 0.11 8.61 -0.33 -0.01 -1.91 -1.52 -3.51 -3.35 z"/><path d="m 73.1 142.3 c -0.44 -0.44 -0.66 -2.83 -0.66 -7.11 0 -5.89 0.11 -6.58 1.25 -8 0.69 -0.85 1.95 -2.64 2.81 -3.96 0.85 -1.33 2.55 -3.49 3.76 -4.81 l 2.21 -2.4 l 5.84 0.05 c 6.96 0.07 8.59 0.42 8.59 1.89 0 0.95 -0.53 1.12 -4.67 1.46 -7.63 0.63 -8.24 0.94 -12.61 6.39 -3.81 4.74 -4.2 5.98 -3.34 10.55 0.64 3.38 0.61 3.93 -0.21 5.19 -1 1.53 -1.96 1.77 -2.98 0.74 z"/></g><g style="fill:#9aaccf"><path d="m 43.2 201.9 c -1.43 -1.72 -0.88 -40.2 0.58 -41.1 1.65 -1.02 9.79 -1.69 13.6 -1.12 2.71 0.41 4.08 1.16 6.49 3.57 5.15 5.15 5.11 9.47 -0.15 15.63 -3.95 4.63 -3.92 4.75 3.73 17.86 1.58 2.71 1.63 3.07 0.6 4.53 -1.47 2.1 -4.68 2.08 -6.66 -0.04 -0.84 -0.9 -2.85 -4.31 -4.47 -7.59 -3.05 -6.18 -5.48 -8.6 -6.35 -6.32 -0.26 0.66 -0.06 3.83 0.43 7 1.04 6.78 0.61 7.66 -4 8.28 -1.32 0.02 -3 0.15 -3.76 -0.71 z m 12.78 -23.4 c 1.94 -1.36 3.78 -4.72 3.78 -6.91 0 -2.04 -2.61 -6.26 -4.5 -7.27 -2.25 -1.2 -3.45 0.56 -4.3 6.31 -1.16 7.84 0.76 10.85 5 7.87 z"/><path d="m 79.3 203.1 c -1.47 -0.16 -3 -0.73 -3.48 -1.27 -1.06 -1.28 -1.22 -32.85 -0.17 -33.91 0.4 -0.4 3.46 -0.89 6.79 -1.09 4.74 -0.28 6.37 -0.11 7.51 0.76 2.24 1.72 0.62 3.6 -3.7 4.31 -4 0.66 -5.36 1.97 -5.36 5.23 0 2.88 1.14 4 4.09 4 3.81 0 6.2 1.21 5.94 3 -0.28 1.91 -1.37 2.49 -6 3.28 -3.5 0.59 -3.63 0.7 -3.84 3.19 -0.25 2.96 0.86 6.39 2.2 6.81 0.5 0.16 2.14 0.49 3.63 0.74 3.23 0.54 4.95 2.84 2.92 3.89 -3.43 0.88 -7.14 1.38 -10.47 1.06 z"/><path d="m 115 201.5 c -0.78 -0.78 -1.63 -2.58 -1.9 -4 -0.59 -3.17 -3.31 -5.47 -6.46 -5.47 -2.63 0 -4.2 1.47 -7.19 6.71 -2.17 3.81 -3.7 4.34 -4.91 1.7 -0.63 -1.38 -0.53 -2.25 0.47 -4.17 2.61 -5.56 4.66 -11.37 6.87 -16.93 1.66 -2.69 2.58 -11.91 5.85 -11.97 1.93 0 3.04 1.99 6.52 11.61 1.66 4.59 3.96 10.97 5.13 14.18 2.49 6.88 2.58 8 0.71 9 -2.07 1.11 -3.5 0.92 -5.09 -0.66 z m -6.16 -15.56 c 1.28 -5.11 -1.81 -7.55 -3.73 -2.95 -1.37 3.28 -0.93 4.69 1.47 4.69 1.32 0 1.94 -0.48 2.26 -1.74 z"/><path d="m 128.9 201.8 c -1.61 -1.13 -1.63 -1.38 -1.63 -17.32 0 -16.1 0.01 -16.2 1.63 -16.91 0.9 -0.41 2.32 -0.49 3.16 -0.18 1.46 0.54 1.56 1.23 2.06 14.52 0.29 7.68 0.68 14.35 0.87 14.84 0.19 0.48 2 1.08 4.05 1.32 4.37 0.52 5.6 1.41 4.46 3.22 -1.13 1.79 -12.23 2.17 -14.6 0.5 z"/><path d="m 152.2 202.3 c -0.5 -0.34 -0.97 -5.7 -1.28 -14.61 -0.28 -8.18 -0.8 -14.47 -1.25 -15 -0.43 -0.51 -1.97 -1.03 -3.44 -1.16 -2.3 -0.19 -2.67 -0.47 -2.67 -2.03 0 -1.42 0.47 -1.91 2.18 -2.27 2.94 -0.63 13.1 -0.73 16.54 -0.17 2.44 0.4 2.73 0.67 2.54 2.32 -0.17 1.47 -0.74 1.97 -2.67 2.37 -1.35 0.27 -2.73 0.94 -3.07 1.48 -0.34 0.54 -0.63 6.7 -0.63 13.69 -0.01 10.32 -0.22 13 -1.14 14.33 -1.11 1.59 -3.56 2.1 -5.11 1.06 z"/><path d="m 172.1 202.4 c -0.81 -0.21 -1.39 -1.38 -1.69 -3.39 -0.74 -4.95 -0.08 -30 0.81 -30.93 0.43 -0.43 3.6 -0.99 7 -1.23 5.28 -0.37 6.56 -0.24 8.23 0.86 2.1 1.26 1.9 2.69 0.06 4.18 -1.04 0.84 -2.57 -0.19 -4.5 -0.19 -4 0 -5 1.22 -4.53 5.54 0.45 3.97 1.31 4.67 5.49 4.48 3.37 -0.15 4.63 0.84 4.3 3.4 -0.15 1.19 -0.99 1.57 -4.72 2.1 l -4.53 0.65 c 0 3.32 0 6.64 0 9.95 l 3.81 0.01 c 4.09 0.01 5.12 0.41 5.8 2.26 0.8 2.18 -0.98 2.81 -7.76 2.72 -3.61 -0.05 -7.12 -0.23 -7.8 -0.41 z"/><path d="m 193.3 201.5 c -0.45 -0.84 -0.75 -7.62 -0.75 -16.94 0 -14.69 0.08 -15.61 1.47 -16.87 1.17 -1.05 1.88 -1.19 3.45 -0.64 1.88 0.66 1.99 0.97 2.36 6.63 0.21 3.26 0.6 6.15 0.86 6.4 3.69 -2.93 5.96 -7 9.38 -10.83 2.29 -2.54 2.8 -2.81 3.81 -1.97 1.74 1.44 1.49 2.17 -2.5 7.31 -2 2.59 -3.84 5.44 -4.06 6.35 -0.74 2.95 0.41 6.26 4.1 11.8 1.99 2.99 3.63 6.11 3.63 6.93 0 3.37 -3.81 4.33 -6.32 1.6 -0.82 -0.9 -2.68 -3.99 -4.11 -6.87 -3.5 -7 -4.8 -6.66 -4.8 1.3 0 4.89 -0.2 5.81 -1.4 6.45 -2.17 1.16 -4.27 0.89 -5.1 -0.65 z"/></g></svg>