<svg xmlns="http://www.w3.org/2000/svg" viewBox="0 0 256 256"><path d="m 34 55.3 c -159.6 277.3 367.2 255.6 183.2 -11.19 -36.86 -53.4 -140.2 -63.7 -183.2 11.19" style="fill:#2f4f4f"/><g transform="matrix(0.846 0 0 0.863 21.39 -4.55)"><path d="m 144.3 115.2 c -3.92 -0.71 -8.51 -1.52 -10.21 -1.79 l -3.09 -0.5 l 0.05 -11.83 c 0.06 -13.28 1.21 -30.59 2.09 -31.45 0.96 -0.94 18 1.21 27.3 3.44 10.25 2.46 10 0.35 2.21 20.38 -2.89 7.42 -5.96 15.69 -6.82 18.38 -1 3.17 -2.05 4.85 -2.98 4.78 -0.78 -0.06 -4.63 -0.69 -8.55 -1.4 z" style="fill:#ff0"/><g transform="matrix(1.182 0 0 1.158 -26.62 5.93)"><path d="m 31 161.9 c -1.6 -0.33 -1.69 -0.7 -1.69 -6.98 0 -13.53 5.68 -33.51 13.33 -46.94 9.9 -17.37 27.42 -33.82 45 -42.3 4.35 -2.09 5.88 -2.52 6.67 -1.86 2.32 1.92 14.4 30.9 13.67 32.79 -0.2 0.51 -3.09 2.55 -6.43 4.54 -8.68 5.16 -14.23 9.9 -19.97 17 -8 10 -12.27 20.2 -15 36.3 -0.64 3.69 -1.35 6.91 -1.59 7.15 -0.52 0.52 -31.55 0.79 -33.97 0.3 z" style="fill:#d35446"/><path d="m 111.7 93 c -2.6 -3.97 -12.43 -28.42 -12.43 -30.91 c 0 -1.54 2.31 -2.43 10.91 -4.23 5.31 -1.11 18 -2.93 20.76 -2.97 0.25 0 0.34 2.45 0.19 5.45 -0.14 3 -0.46 11.42 -0.72 18.71 l -0.46 13.25 l -5.59 1.23 c -8 1.77 -11.26 1.63 -12.67 -0.52 z" style="fill:#ff8c00"/><path d="m 198.3 160 c -0.22 -1.76 -0.59 -4.89 -0.84 -6.96 -0.78 -6.56 -3.34 -14.76 -7.56 -24.1 -3.38 -7.53 -4.09 -9.84 -4.09 -13.32 v -4.21 l -2.82 -0.43 c -5 -0.77 -7.67 -1.93 -17.9 -7.85 l -10.1 -5.81 l 2.5 -7.09 c 3.11 -8.83 8.28 -21.72 10.28 -25.65 1.8 -3.53 1.86 -3.52 11.42 1.47 13.88 7.25 29.3 20.79 38 33.48 10.38 15 17.21 35.72 18.6 56.4 l 0.49 7.33 h -18.83 h -18.83 l -0.39 -3.2 z" style="fill:#6f9230"/></g><g style="fill:#fff"><path d="m 101.7 193.8 c -1.58 -2.8 0.95 -12.26 7.99 -29.89 1.65 -4.12 2.99 -7.68 2.99 -7.9 0 -0.22 -2.54 -0.54 -5.65 -0.7 -3.97 -0.21 -6.5 -0.71 -8.51 -1.7 -3.15 -1.54 -4.33 -3.65 -2.85 -5.07 1.38 -1.31 7.43 -2.22 14.53 -2.19 7.84 0.04 11.82 0.75 13.61 2.46 l 1.41 1.34 l -1.47 4.25 c -2.13 6.16 -11.95 27.73 -15.74 34.56 -3.37 6.08 -4.94 7.28 -6.31 4.84 z"/><path d="m 136.1 194.2 c -6.43 -1.46 -5.65 -4.15 5.52 -18.91 7.61 -10.1 8.68 -11.61 10.26 -14.89 1.26 -2.61 1.28 -2.86 0.34 -4.36 -1.32 -2.13 -4.74 -3.59 -7.15 -3.05 -1.05 0.23 -3.29 1.25 -4.99 2.27 -5.33 3.18 -8.49 2.07 -6.53 -2.29 1.76 -3.91 8.83 -7.99 13.87 -7.99 4.26 0 9.71 3.18 11.91 6.95 3.04 5.2 0.81 12.7 -6.87 23.1 -6.1 8.22 -6.89 9.6 -5.91 10.24 0.43 0.28 2.43 0.71 4.44 0.96 4.42 0.54 6.25 1.22 8 3 1.85 1.83 1.73 3.56 -0.3 4.37 -2.07 0.83 -19.6 1.34 -22.63 0.66 z"/></g></g></svg>