<svg xmlns="http://www.w3.org/2000/svg" viewBox="0 0 256 256"><path d="m 60.1 231.5 c 254.4 139.3 266.4 -369.5 4.15 -194.4 -67.5 46.2 -100.4 156.9 -4.15 194.4" style="fill:#e4e4e4"/><g transform="matrix(12.866 0 0 14.99 20.65 19.78)"><path d="m 15.7 3.9 c 0 0 -1.72 0.57 -5.38 2.64 c -0.77 0.44 -1.46 0.88 -2.09 1.29 -1.65 1.02 -2.93 1.97 -2.93 1.97 c 0 0 0.29 0.17 0.53 0.27 1.87 0.72 4.56 1.07 5.06 0.87 1.37 -0.55 2.77 -3.71 3.18 -5.15 0 0 -1.44 0.69 -2.89 1.5 c -1.78 0.99 -3.64 2.14 -3.64 2.14 l 4.5 -1.92 c 0 0 -0.79 2.28 -1.99 2.6 -1.2 0.32 -3.41 -0.44 -3.41 -0.44 0 0 2.29 -1.72 7.69 -4.37 0.08 -0.04 0.17 -0.17 0.25 -0.31 0.24 -0.1 0.48 -0.22 0.73 -0.31 0.17 -0.08 0.38 -0.51 0.38 -0.75 c 0 -0.01 0 -0.01 0 -0.01 z" style="fill:#e53935"/><path d="m 13.1 4 c -0.79 0 -2.05 0.1 -3.58 0.6 c -0.94 0.31 -2.33 2.24 -4.86 4.34 -0.3 0.25 -1.28 -0.65 -2.12 -0.82 c 0 0 0.15 0.11 0.23 0.28 0.29 0.58 0.77 1.48 1.19 2.06 0.64 0.9 1.8 1.42 1.8 1.42 0 0 -0.88 -0.96 -1.14 -1.48 -0.14 -0.27 0.03 -0.63 1.16 -1.5 1.02 -0.78 4.7 -3.98 8.22 -4.84 0 0 -0.33 -0.05 -0.9 -0.05 z m -12.29 2.96 c 0 0 0.24 1.16 0.57 1.76 c 0.33 0.6 2 1.25 2 1.25 -0.86 -0.83 -2.56 -3 -2.56 -3 z" style="fill:#3f3f3f"/></g></svg>