<svg xmlns="http://www.w3.org/2000/svg" viewBox="0 0 256 256"><path d="m 178.4 254.3 c -361.7 25 -87.9 -461.6 65.79 -143.4 c 21.2 49 18.52 130.6 -44.4 140.3" style="fill:#d41919"/><g transform="matrix(1.318 0 0 1.289 -62.3 -55.99)" style="fill:#fff"><path d="m 99.8 143.9 v -6.51 l -2.88 -0.43 c -4.69 -0.7 -5.61 -1.36 -5.61 -4 0 -3.04 1 -3.9 5.11 -4.38 l 3.38 -0.4 v -6.72 v -6.72 l -3.49 -0.49 c -4.22 -0.59 -5 -1.24 -5 -4.15 0 -2.91 0.78 -3.56 5 -4.15 4 -0.57 3.97 -0.41 4.22 -9.1 l 0.16 -5.67 l -4.55 -0.2 l -4.55 -0.2 l -0.19 -2.68 c -0.11 -1.47 0.11 -3 0.48 -3.45 0.37 -0.42 2.37 -0.93 4.44 -1.12 l 3.76 -0.34 l 0.18 -5 l 0.18 -5 h -6.39 h -6.39 v 2.73 c 0 3.39 -1.07 4.16 -5.72 4.16 h -3.37 v 7.56 v 7.56 l 4.4 0.2 l 4.4 0.2 l 0.19 2.68 c 0.11 1.47 -0.11 3 -0.48 3.44 -0.37 0.42 -2.23 0.92 -4.13 1.12 l -3.46 0.35 v 6.9 v 6.9 l 3.33 0.35 c 1.83 0.19 3.68 0.6 4.09 0.9 0.92 0.67 1 5.73 0.11 6.36 -0.36 0.25 -2.27 0.62 -4.24 0.83 l -3.6 0.37 v 6.76 v 6.76 l 2.88 0.43 c 5.39 0.8 6.21 1.91 6.21 8.36 v 2.33 h 5.76 h 5.76 v -6.51 z"/><path d="m 85.3 201.6 c -0.69 -0.76 -0.95 -2.47 -0.99 -6.45 -0.07 -7.56 -0.78 -13.21 -1.71 -13.55 -0.43 -0.16 -1.28 -0.84 -1.9 -1.53 -0.98 -1.09 -1.12 -2.31 -1.11 -10 0 -4.82 0.17 -9.88 0.38 -11.24 l 0.37 -2.48 h 10 c 9.87 0 10 0.02 10.36 1.49 0.2 0.82 0.36 5.88 0.37 11.24 0.01 8.66 -0.12 9.89 -1.11 10.99 -0.62 0.68 -1.45 1.36 -1.85 1.51 -1.09 0.4 -1.75 5.33 -1.78 13.2 l -0.03 7 l -1.87 0.41 c -3.53 0.78 -8.15 0.47 -9.14 -0.63 z m 7.1 -29.77 c 0.66 -0.28 0.94 -1.27 0.94 -3.29 0 -2.53 -0.19 -2.94 -1.49 -3.31 -0.82 -0.23 -2.16 -0.23 -2.98 0 -1.26 0.35 -1.49 0.8 -1.49 2.91 0 1.37 0.32 2.86 0.72 3.29 0.77 0.86 2.79 1.04 4.31 0.39 z"/><path d="m 119.7 196.1 c -0.61 -0.49 -0.74 -0.92 -0.83 -2.85 -0.14 -2.7 0.48 -6.96 1.55 -8.24 1.39 -1.66 4.71 -1.12 4.51 1.99 -0.23 3.55 0.41 6.07 -0.66 8.94 -0.52 1.4 -3.48 1.05 -4.57 0.17 z"/><path d="m 126.4 175.2 c -2.77 -0.83 -2.14 -4.43 1.68 -9.68 1.76 -2.42 8.93 -9.51 11.13 -11 0.98 -0.67 2.12 -1.19 2.59 -1.19 1.06 0 3.19 2.17 3.19 3.25 0 1.07 -1.34 2.74 -4.95 6.18 -3.86 3.68 -6.13 6.22 -7.57 8.48 -1.44 2.26 -2.5 3.37 -3.69 3.88 -1.11 0.48 -1.12 0.48 -2.39 0.1 z"/><path d="m 202.9 196.8 c -0.7 -11.83 -1.82 -16.73 -5.29 -23.1 -4.27 -7.79 -12.59 -14.9 -20.1 -17.19 -5.54 -1.69 -14.1 -3.09 -18.9 -3.1 -3.87 0 -4.16 -0.18 -4.22 -2.55 -0.05 -2.18 0.39 -2.7 2.61 -3 4.66 -0.66 16.43 -0.09 20 0.97 10.73 3.19 22.26 13.1 27.58 23.61 2.9 5.75 4.99 14.36 5 20.79 0.04 4.51 -0.49 9.45 -2.39 8.16 -3.75 0.12 -4.13 -1.47 -4.33 -4.62 z"/><path d="m 109.4 208 c -3.42 -12.35 -1.04 -28.2 3.67 -37.99 6.43 -13.31 14.87 -21.95 27.67 -28.31 11.96 -5.12 22.69 -7.32 36.1 -4.54 2.98 0.69 7.31 2.16 10.19 3.47 17.55 7.97 29 22.2 33.3 41.1 2.3 10.24 0.26 24.73 -3.43 26.8 -2 0.27 -3.26 -0.54 -4.45 -2.12 1.06 -3.62 2.09 -18.34 1.19 -22.72 -1.96 -9.61 -7.15 -19.2 -14.18 -26.2 -6.35 -6.31 -13.72 -10.5 -22.92 -13 -10.55 -2.91 -20.35 -2 -31.89 2.98 -12.41 5.35 -22 15.9 -26.93 29.47 -4.67 9.52 -1.71 33.2 -2.86 32.74 -1.62 0.95 -4.56 -0.05 -5.49 -1.62 z"/><path d="m 206.8 214 c -3.73 -1.06 -6.73 -2.08 -17.49 -5.95 -9.71 -3.49 -13.22 -4.63 -15.45 -5 -1.45 -0.24 -1.83 -0.17 -3.92 0.77 -2.94 1.31 -5 1.69 -7.68 1.38 -3.91 -0.46 -6.84 -2.58 -8.3 -6 -1.08 -2.55 -0.95 -5.99 0.33 -8.32 1.26 -2.29 2.17 -3.1 4.92 -4.34 3.12 -1.2 6.09 -1.62 9 -0.2 2.05 1.02 3.86 2.95 5.16 5.51 1.31 2.58 2.51 3.61 6.19 5.31 5.19 2.4 29 11.24 30.41 11.29 2.98 2.07 2.2 4.97 0.23 6.45 -1.3 -0.31 -2.35 -0.6 -3.41 -0.9 z m -41.57 -15.56 c 1.39 -0.81 1.74 -4.18 0.6 -5.7 -0.7 -0.93 -3.63 -1.29 -4.77 -0.59 -1.65 1 -1.82 3.29 -0.39 5.12 1.39 1.77 2.88 2.15 4.57 1.17 z"/></g></svg>