<svg xmlns="http://www.w3.org/2000/svg" viewBox="0 0 256 256"><g transform="translate(0 -796.4)" style="fill:#ed881a"><path d="m 3.25 953.7 c 49.98 239.9 393.9 -17.64 187.3 -139.6 -80.2 -52.3 -213 16.2 -187.3 139.6 z" style="color:#000"/><path d="m 74.6 871 v 21.36 h 21.36 c 35.5 0 64.1 28.58 64.1 64.1 v 21.36 h 21.36 v -21.36 c 0 -47.3 -38.1 -85.4 -85.4 -85.4 h -21.36 z m 0 42.72 v 21.36 h 21.36 c 11.83 0 21.36 9.53 21.36 21.36 v 21.36 h 21.36 v -21.36 c 0 -23.67 -19 -42.72 -42.72 -42.72 h -21.36 z m 12.46 39.2 c -6.9 0 -12.46 5.56 -12.46 12.46 0 6.9 5.56 12.46 12.46 12.46 6.9 0 12.46 -5.56 12.46 -12.46 0 -6.9 -5.56 -12.46 -12.46 -12.46 z" style="fill:#474747"/></g></svg>