<svg xmlns="http://www.w3.org/2000/svg" viewBox="0 0 256 256"><path d="m 243.9 80.4 c 96.2 311.2 -420.5 155.6 -178.9 -57.66 48.4 -42.72 153 -26.3 178.9 57.66" style="fill:#661425"/><path d="m 137.6 146.4 c -1.11 -1.03 -8.84 -13.22 -17.19 -27.1 -8.35 -13.86 -16.1 -26 -17.2 -27.1 -2.41 -2.24 -4.64 -2.38 -7.14 -0.46 -2.18 1.68 -2.4 4.27 -0.71 8.58 0.73 1.87 0.97 3.73 0.67 5.28 -0.61 3.17 -3.97 6.37 -7.24 6.89 -4.65 0.74 -5.59 1.52 -13.67 11.44 -4.86 5.96 -8.62 9.97 -9.6 10.22 -2.04 0.52 -4.63 -1.08 -5.18 -3.21 -0.49 -1.92 -0.72 -1.48 15.36 -30.39 6.77 -12.18 12.49 -22.83 12.71 -23.68 0.62 -2.41 -1.46 -4.93 -4.08 -4.93 -1.75 0 -3.13 0.88 -6.83 4.37 -5.78 5.45 -7.84 6.07 -19.2 5.75 -6.85 -0.19 -8.83 -0.49 -10.77 -1.6 -3.93 -2.26 -5.31 -4.65 -5.31 -9.2 0 -4.31 1.14 -6.48 4.8 -9.15 1.86 -1.36 2.9 -1.41 30.66 -1.62 15.8 -0.12 30 -0.02 31.65 0.2 3.6 0.51 8.1 3.38 10.32 6.59 2.15 3.09 26.89 72.5 26.89 75.4 0 2.7 -2.67 5.55 -5.19 5.55 -0.97 0 -2.67 -0.84 -3.78 -1.87 z" transform="matrix(1.486 0 0 1.522 -8.84 -15.29)" style="fill:#fff"/></svg>