<svg xmlns="http://www.w3.org/2000/svg" viewBox="0 0 256 256" xmlns:xlink="http://www.w3.org/1999/xlink"><defs><path id="0" d="m 128.9 49.94 l -0.79 -7.38 l -6.87 -2.82 l 7.38 -0.79 l 2.82 -6.87 l 0.79 7.38 l 6.87 2.82 l -7.38 0.79 z" style="fill:#fff"/></defs><path d="m 53.5 225.9 c 161.3 123.5 301.4 -168.7 108.6 -217.4 -122.6 -47.89 -228 125.9 -108.6 217.4" style="fill:#121b1b"/><g transform="matrix(3.75 0 0 3.759 35.2 39.66)"><path d="m 17.74 8.84 l -4 6.93 l -0.87 -0.5 l -0.5 0.87 l -0.87 -0.5 l -1 1.73 l 0.87 0.5 l -0.5 0.87 l 0.87 0.5 l -4 6.93 l 3.46 2 l 4 -6.93 l 1.37 -0.37 l 1 -1.73 l -0.37 -1.37 l 4 -6.93 z m 12.52 0 l -3.46 2 l 4 6.93 l -0.37 1.37 l 1 1.73 l 1.37 0.37 l 4 6.93 l 3.46 -2 l -4 -6.93 l 0.87 -0.5 l -0.5 -0.87 l 0.87 -0.5 l -1 -1.73 l -0.87 0.5 l -0.5 -0.87 l -0.87 0.5 z" style="opacity:0.1"/><circle r="4" cy="23" cx="24" style="fill:#5d68ae"/><path d="m 14,32 h 20 v 4 H 14 z" style="fill:#327582"/><path d="m 23,31 -1,1 v 5 h 1 v 1 h 2 v -1 h 1 v -5 l -1,-1 z" style="fill:#d8c584"/><path d="m 17 32 v 4 h 1 v -4 z m 4 0 v 4 h 1 v -4 z m 5 0 v 4 h 1 v -4 z m 4 0 v 4 h 1 v -4 z" style="opacity:0.15"/><path d="m -2.08 -23.29 h 20 v 4 h -20 z" transform="matrix(-0.5 0.866 -0.866 -0.5 0 0)" style="fill:#327582"/><path d="m 17.57 18.1 l -0.37 -1.37 l -4.33 -2.5 l -0.5 0.87 l -0.87 -0.5 l -1 1.73 l 0.87 0.5 l -0.5 0.87 l 4.33 2.5 l 1.37 -0.37 z" style="fill:#d8c584"/><path d="m 19.71 12.44 l -3.46 -2 l -0.5 0.87 l 3.46 2 z m -2 3.46 l -3.46 -2 l -0.5 0.87 l 3.46 2 z m -2.5 4.33 l -3.46 -2 l -0.5 0.87 l 3.46 2 z m -2 3.46 l -3.46 -2 l -0.5 0.87 l 3.46 2 z" style="opacity:0.15"/><path d="m -41.92 18.29 h 20 v 4 h -20 z" transform="matrix(-0.5 -0.866 0.866 -0.5 0 0)" style="fill:#327582"/><path d="m 31.43 19.87 l 1.37 0.37 l 4.33 -2.5 l -0.5 -0.87 l 0.87 -0.5 l -1 -1.73 l -0.87 0.5 l -0.5 -0.87 l -4.33 2.5 l -0.37 1.37 z" style="fill:#d8c584"/><path d="m 35.3 24.56 l 3.46 -2 l -0.5 -0.87 l -3.46 2 z m -2 -3.46 l 3.46 -2 l -0.5 -0.87 l -3.46 2 z m -2.5 -4.33 l 3.46 -2 l -0.5 -0.87 l -3.46 2 z m -2 -3.46 l 3.46 -2 l -0.5 -0.87 l -3.46 2 z" style="opacity:0.15"/><path d="m 24 14 a 9 9 0 0 0 -3.24 0.62 l -0.89 1.54 A 8 8 0 0 1 24 15 8 8 0 0 1 28.1 16.2 L 27.2 14.6 A 9 9 0 0 0 24 14 z m -7.99 8.84 l -0.89 1.54 A 9 9 0 0 0 18.35 30 h 1.78 A 8 8 0 0 1 16 23 8 8 0 0 1 16 22.84 z M 32 22.85 a 8 8 0 0 1 0.01 0.15 8 8 0 0 1 -4.15 7 h 1.79 a 9 9 0 0 0 3.24 -5.61 z" style="fill:#f9f9f9;opacity:0.9;stroke-width:0.6"/></g><use transform="matrix(1.338 -0.237 0.203 1.565 -58.1 4.37)" xlink:href="#0"/><use transform="matrix(1.286 -0.226 0.195 1.495 26.83 142.5)" xlink:href="#0"/><use transform="matrix(1.356 -0.234 0.205 1.548 -131.8 142.5)" xlink:href="#0"/></svg>