<svg xmlns="http://www.w3.org/2000/svg" viewBox="0 0 256 256" xmlns:xlink="http://www.w3.org/1999/xlink"><defs><path id="0" d="m 164.5 88.8 a 37.57 35.42 0 1 1 -75.1 0 37.57 35.42 0 1 1 75.1 0 z" style="fill:#f2a60d;opacity:0.8"/></defs><path d="m 102.7 249 c -23.36 -9.94 -55.81 -24.55 -58.7 -26.45 -1.77 -1.16 -4.74 -4.12 -6.61 -6.57 -5.34 -6.98 -34.1 -57 -35.3 -61.5 -1.16 -4.13 -0.64 -19.22 1.13 -32.85 4 -40.3 1.98 -39.4 7.28 -48 1.13 -2.34 12.58 -15.67 25.43 -29.62 24.72 -26.82 27.36 -29 37.79 -30.99 28.1 -4.82 45.84 -10.79 71 -12.27 22.43 9.56 46.63 19.54 67.83 31.5 c 3.31 2.83 8.22 10.24 19.28 29 22.61 38.47 20.8 34.3 20.66 47.73 -2.27 20.93 -2.13 55.9 -9.41 70.8 -2.52 4.68 -35.47 41.79 -45.9 51.67 -5.18 4.91 -10.37 7.14 -22.42 9.64 -12.2 4.52 -40.83 9.23 -50.64 11.1 -5.66 1.32 -12.28 0.85 -21.46 -3.06" style="fill:#f0e1c3"/><use transform="matrix(1.12 0 0 1.174 -14.35 -19.87)" xlink:href="#0"/><use transform="matrix(1.12 0 0 1.174 -14.77 62.7)" xlink:href="#0"/><use transform="matrix(1.12 0 0 1.174 -49.93 39.2)" xlink:href="#0"/><use transform="matrix(1.12 0 0 1.174 19.91 4.87)" xlink:href="#0"/><use transform="matrix(1.12 0 0 1.174 19.23 41.56)" xlink:href="#0"/><use transform="matrix(1.12 0 0 1.174 -47.93 2.84)" xlink:href="#0"/><g style="fill:#e97b0c"><path d="m 152.7 185.5 c -5.96 -1.34 -10.26 -3.11 -14.85 -6.12 -4.34 -2.85 -13.26 -11.99 -12.62 -13 4.2 -0.53 4.61 -1.92 6.08 -5.28 2.34 -5.36 3.43 -10.65 3.43 -16.61 v -4.36 l 3.97 -0.86 c 7.1 -1.53 17.65 0.49 23.84 7.79 l 2.62 3.09 l 1.35 4.05 c 2.8 8.38 2.37 18.88 -1.14 27.77 l -1.68 4.26 l -3.3 0.14 c -1.81 0.08 -5.28 -0.3 -7.7 -0.84 z"/><path d="m 80.89 146 c -9.32 -3 -18.72 -10.65 -23.1 -18.72 -1.96 -3.62 -1.98 -3.77 -0.77 -6.13 1.92 -3.75 9.74 -11 14.6 -13.56 4.81 -2.53 10.1 -4.34 14.7 -5.1 l 2.99 -0.46 l 2.71 4.41 c 5.25 8.55 16 16.21 26.1 18.52 l 3.96 0.91 l -5.19 1.32 c -2.86 0.73 -6.29 1.89 -7.63 2.58 -6.37 3.28 -12.82 8.96 -16.85 14.84 -2.57 3.75 -3.67 3.88 -11.51 1.33 z"/><path d="m 89.2 181.1 c -2.12 -5.32 -2.99 -13.77 -2.04 -19.88 0.46 -2.97 1.35 -6.64 1.98 -8.16 1.07 -2.57 1.36 -2.76 4.25 -2.77 7.38 -0.03 18.1 -3.53 23.51 -7.67 1.35 -1.04 2.68 -1.89 2.94 -1.89 0.26 0 0.49 1.91 0.49 4.23 0.02 5.6 1.7 13.34 3.98 18.36 2.19 4.81 2 5.31 -3.44 10.16 -7 6.22 -18.47 10.7 -27.37 10.7 -2.94 0 -3.14 -0.15 -4.31 -3.08 z"/><path d="m 161 144.4 c -5.38 -8.5 -14.31 -14.92 -24.27 -17.46 l -5.29 -1.35 l 3.96 -0.92 c 9.31 -2.16 19.92 -9.27 25.2 -16.88 2.36 -3.42 3.12 -3.57 9.61 -1.9 10 2.57 19.71 9.48 25.1 17.88 l 2.49 3.9 l -1.84 3.15 c -4.33 7.43 -15.17 15.23 -24.68 17.78 -6.29 1.68 -6.58 1.56 -10.23 -4.21 z"/><path d="m 136.3 105.5 c -0.42 -6.73 -1.8 -11.77 -5 -18.35 l -1.74 -3.57 l 4.6 -4.34 c 7.08 -6.69 15.35 -10.32 25.88 -11.37 6.09 -0.61 6.76 -0.01 8.42 7.52 1.51 6.83 1.09 15.52 -1.05 21.71 -2.38 6.87 -2.7 7.25 -6.18 7.26 -5.43 0.02 -13.19 2.07 -18.94 4.99 l -5.58 2.84 l -0.42 -6.68 z"/><path d="m 115.7 108.8 c -5.41 -3.66 -14.59 -6.61 -21.2 -6.81 l -5 -0.16 l -1.62 -5.15 c -2.33 -7.4 -2.2 -18.7 0.28 -25.41 l 1.77 -4.79 l 4.98 -0.22 c 6 -0.26 12.43 1.25 18.65 4.38 4.88 2.46 12.4 8.81 14 11.82 0.87 1.64 0.75 2.17 -1.26 5.36 -3 4.78 -5.16 11.54 -5.79 18.28 l -0.52 5.58 l -4.27 -2.88 z"/></g><g style="fill:#e44211"><path d="m 120.3 127 c -12.48 2.33 -22.92 9.44 -30 20.44 -1.05 1.62 -1.91 3.06 -1.92 3.21 -0.03 0.58 1.76 0.68 5.67 0.32 8.81 -0.8 17.2 -4.13 23.73 -9.48 l 2.13 -1.73 l -0.04 5.52 c -0.03 4.23 0.14 6.42 0.76 9.37 0.87 4.13 3.32 10.38 5.26 13.39 l 1.19 1.85 l 1.17 -1.85 c 4.67 -7.39 7.48 -17.55 7.1 -25.59 -0.1 -1.85 -0.12 -3.36 -0.05 -3.36 0.07 0 1.1 0.71 2.3 1.58 6.22 4.53 13.62 7.11 21.57 7.53 2.39 0.13 4.36 0.1 4.36 -0.05 0.05 -1.08 -5.16 -8.17 -7.84 -10.66 -5.56 -5.17 -12.38 -8.81 -19 -10.12 -1.72 -0.34 -3.52 -0.71 -4 -0.81 -0.62 -0.14 -0.82 -0.05 -0.69 0.31 1.67 4.45 3.09 9.79 3.04 11.38 -0.03 0.71 -3.05 -2.21 -5.27 -5.09 l -1.88 -2.44 l -2.27 2.94 c -1.25 1.62 -3 3.63 -3.92 4.48 l -1.65 1.54 l 0.33 -1.73 c 0.5 -2.59 1.94 -7.39 2.88 -9.59 0.59 -1.37 0.7 -1.93 0.37 -1.9 -0.25 0.02 -1.72 0.28 -3.26 0.57 z"/><path d="m 120.5 125.2 c -12.22 -2.24 -22.2 -9 -28.71 -19.58 -0.96 -1.55 -1.74 -2.93 -1.74 -3.07 0 -0.55 1.77 -0.65 5.61 -0.31 8.67 0.76 16.76 3.96 22.99 9.1 l 2 1.66 l 0.22 -5.29 c 0.17 -4.05 0.45 -6.15 1.2 -8.98 1.05 -3.95 3.78 -9.95 5.84 -12.83 l 1.27 -1.77 l 1.07 1.77 c 4.27 7.08 6.55 16.82 5.74 24.52 -0.18 1.77 -0.28 3.22 -0.21 3.22 0.07 0 1.13 -0.68 2.34 -1.51 6.36 -4.34 13.8 -6.81 21.68 -7.22 2.37 -0.12 4.31 -0.1 4.31 0.05 0 1.03 -5.49 7.83 -8.25 10.21 -5.74 4.96 -12.66 8.44 -19.25 9.7 -1.71 0.33 -3.51 0.68 -3.99 0.78 -0.62 0.13 -0.81 0.05 -0.66 -0.29 1.86 -4.27 3.53 -9.38 3.54 -10.91 0.01 -0.68 -3.12 2.12 -5.45 4.88 l -1.98 2.34 l -2.1 -2.82 c -1.16 -1.55 -2.8 -3.48 -3.65 -4.29 l -1.55 -1.47 l 0.25 1.66 c 0.37 2.48 1.56 7.08 2.39 9.19 0.51 1.31 0.6 1.85 0.28 1.82 -0.25 -0.02 -1.69 -0.27 -3.19 -0.54 z"/></g></svg>