<svg xmlns="http://www.w3.org/2000/svg" viewBox="0 0 256 256"><path d="m 3.25 157.3 c 49.98 239.9 393.9 -17.64 187.3 -139.6 c -80.2 -52.3 -213 16.2 -187.3 139.6" style="fill:#5a74ae"/><path d="m 232.7 148.3 c -70.5 -15 -110.4 -94.5 -81.1 -162 12.1 -27.81 38 -50.4 67.2 -60.3 23.28 -7.89 53.5 -7.51 76.1 0.98 30 11.3 53.5 36.49 65.6 66.8 9.48 29.6 9.28 61.6 -0.96 86.9 -14.59 35.64 -45.4 60.85 -83.3 68.1 -11 2.12 -32.47 1.88 -43.55 -0.48 z m 40.55 -5.89 c 26.9 -4.12 55 -22.54 70.6 -46.3 22.88 -34.8 23.8 -84 2.23 -119 -33.78 -54.78 -105.6 -68.2 -156.2 -29.2 -29.1 22.45 -44.1 57.82 -41.1 97.1 3.57 46.2 35.2 84.1 79.93 95.6 14.1 3.64 28.51 4.2 44.54 1.75 z m -28.35 -28.1 c -5.27 -0.73 -8.46 -2.34 -13 -6.61 -3.89 -3.63 -7.35 -10.99 -7.35 -15.66 0 -3.53 0.67 -4.67 6.24 -10.67 3.43 -3.7 6.31 -7.5 6.39 -8.46 0.08 -0.96 0.19 -4.58 0.24 -8 0.2 -14.33 8.66 -21.2 31.3 -25.32 11.61 -2.13 19.2 1.73 28.62 14.54 2.81 3.82 5.77 5.38 13.1 6.9 7.21 1.5 10.4 3.75 12.37 8.74 3.62 9.15 1.01 20.49 -6 26.1 -12.41 9.94 -54.82 20.84 -71.91 18.48 z m -51.89 -41.3 c -5.69 -2.87 -9.82 -7.46 -13 -14.48 -3.3 -7.2 -7.47 -23.27 -7.13 -27.43 0.27 -3.31 0.58 -3.67 3.36 -3.94 2.61 -0.26 3.3 0.16 4.63 2.76 1.29 2.53 1.93 2.93 3.65 2.32 1.15 -0.41 4 -0.78 6.41 -0.82 3.82 -0.06 5.69 0.82 16.23 7.69 17.51 11.41 19.48 13.94 17.31 22.1 -1.4 5.26 -7.75 11.77 -12.9 13.21 -6.56 1.84 -13 1.34 -18.53 -1.43 z m 116.1 -27.2 c -2.83 -0.75 -6.38 -2.26 -7.9 -3.35 -7.57 -5.45 -7.55 -9.92 0.09 -26.58 6.27 -13.67 8.39 -16.63 12.6 -17.56 1.52 -0.34 2.81 -1.12 2.88 -1.75 0.06 -0.63 0.17 -2.83 0.24 -4.9 0.28 -8.54 6.28 -6.14 10.29 4.11 1.18 3 3.59 8.15 5.36 11.41 6.66 12.29 6.41 23.62 -0.71 31.79 -5.8 6.66 -14.1 9.15 -22.84 6.84 z m -89.7 -20.1 c -13.71 -5.17 -18.47 -18.2 -12.73 -34.79 c 1.47 -4.26 2.4 -9.1 2.4 -12.46 0 -6.94 1.54 -11.63 3.82 -11.63 2.24 0 3.49 1.67 4.34 5.83 1 4.87 2 5.77 5.8 5.15 3.98 -0.65 8.77 1.19 10.21 3.92 0.58 1.1 1.63 4.18 2.32 6.83 0.69 2.65 3.26 7.75 5.7 11.33 5.74 8.41 6.5 13 3.04 18.29 -4.48 6.84 -16.83 10.58 -24.91 7.53 z m 40.1 -10.47 c -7.18 -2.66 -10.78 -9.67 -9.71 -18.92 0.47 -4.05 0.13 -6 -1.82 -10.47 -3.25 -7.42 -3.12 -10.46 0.56 -13.59 1.62 -1.38 3.54 -2.51 4.26 -2.51 2.48 0 2.61 -2.15 0.43 -6.86 -1.8 -3.89 -1.97 -4.98 -0.96 -6.21 0.67 -0.82 1.71 -1.49 2.29 -1.49 0.59 0 4.82 3.82 9.4 8.5 4.58 4.67 10.69 10.69 13.57 13.38 6.73 6.27 9.59 11.87 9.72 19.1 0.08 4.64 -0.35 6.15 -2.81 9.68 -4.37 6.3 -9.44 9.41 -16.3 10 -3.17 0.27 -7.1 0.02 -8.64 -0.57 z" transform="matrix(0.765 0 0 0.756 -72.1 99.5)" style="fill:#fff"/></svg>