<svg xmlns="http://www.w3.org/2000/svg" xmlns:xlink="http://www.w3.org/1999/xlink" viewBox="0 0 256 256"><path d="m 80.4 243.9 c 311.2 96.2 155.6 -420.5 -57.66 -178.9 -42.72 48.4 -26.3 153 57.66 178.9" style="fill:#3e4f80"/><g transform="matrix(0.13 0 0 0.137 30.1 194.2)" style="fill:#fff"><g transform="matrix(10.249 0 0 9.866 -709.9 -1942.5)"><path id="0" d="m 170 102.7 c -18.97 0.25 -42.1 9.11 -53.8 8.74 -10.79 -0.33 -32.1 -2.74 -40.3 4.44 -3.53 3.07 17.93 2.07 41.79 15.36 25.2 14 26.72 26.88 26.72 26.88 0 0 -13 10.74 -17.1 20.1 6.27 0 7.59 0.07 7.59 0.07 0.9 -1.38 2.27 -2.86 3.5 -4.37 1.23 -1.51 2.63 -3.05 4.21 -4.53 1.58 -1.48 3.34 -2.9 5.29 -4.18 0.98 -0.64 2 -1.25 3.06 -1.81 1.07 -0.56 2.18 -1.08 3.35 -1.54 1.16 -0.46 2.38 -0.87 3.64 -1.21 1.26 -0.34 2.58 -0.62 3.94 -0.82 1.37 -0.2 2.71 -0.26 4 -0.19 1.33 0.07 2.63 0.26 3.9 0.56 1.28 0.3 2.53 0.71 3.75 1.2 1.22 0.5 2.41 1.08 3.58 1.74 1.16 0.66 2.29 1.4 3.39 2.19 1.1 0.79 2.16 1.64 3.18 2.53 2.06 1.78 3.96 3.71 5.7 5.67 1.73 1.96 1.63 2.81 3 4.68 h 25.47 c 0 0 -2.58 -57.65 -30.88 -72.2 -4.83 -2.49 -10.7 -3.36 -17 -3.27 z m -5.9 16.1 c 2.42 0 4.84 0.98 4.54 3.15 -0.27 2 -2.28 2.57 -4.38 2.63 -2.43 0.07 -4.33 -0.86 -4.5 -2.89 -0.16 -1.95 1.31 -2.89 4.33 -2.89 z m -59.8 0.17 c 17.9 -0.07 26.53 3 31 5.64 5.97 3.49 3.64 7.4 -2.36 6.28 -9.33 -1.75 -8.51 -5.33 -28.69 -11.91 z" style="fill:#fff;fill-rule:evenodd"/><use xlink:href="#0" width="1" height="1"/></g><path d="M 75.1,41.2 V 5.28 h 74.6 c 11.48,0 20.94,-2.65 28.41,-7.93 7.47,-5.28 11.21,-12.15 11.21,-20.6 0,-4.23 -1,-8.1 -3,-11.62 -2,-3.52 -4.73,-6.51 -8.2,-8.99 -3.46,-2.64 -7.64,-4.67 -12.56,-6.07 -4.92,-1.41 -10.19,-2.11 -15.84,-2.11 h -16.94 c -8.74,0 -16.85,-1.32 -24.32,-3.97 -7.47,-2.82 -13.93,-6.68 -19.4,-11.62 -5.46,-5.1 -9.74,-11 -12.84,-17.69 -3.1,-6.87 -4.65,-14.44 -4.65,-22.72 0,-8.1 1.55,-15.58 4.65,-22.45 3.28,-6.87 7.83,-12.86 13.66,-17.97 5.83,-5.1 12.84,-9.1 21,-11.89 8.19,-2.99 17.21,-4.48 27,-4.48 h 70.8 v 35.92 h -72.7 c -7.83,0 -14,2.11 -18.58,6.34 -4.54,4.05 -6.82,8.98 -6.82,14.78 0,6.34 2.28,11.62 6.82,15.86 4.74,4.22 10.94,6.34 18.58,6.34 h 21 c 9.47,0 18.21,1.59 26.2,4.75 8,3 14.94,7.31 20.76,12.95 5.83,5.64 10.38,12.33 13.66,20.1 3.28,7.74 4.92,16.2 4.92,25.36 0,9.33 -1.74,17.87 -5.19,25.62 -3.46,7.76 -8.47,14.44 -15,20.1 -6.37,5.64 -14,10 -22.94,13.21 -8.92,3.17 -18.85,4.75 -29.78,4.75 z"/><path d="m 241.2,41.2 z m 0,0 v -206 h 36.88 V 5.3 h 57.91 v 35.92"/><path d="m 350.9 41.2 z m 0 0 v -206 h 37.2 v 206"/><path d="m 400.6 41.2 z m 133 -196.8 c 2.55 -3.88 5.75 -6.61 9.57 -8.19 3.82 -1.75 7.74 -2.63 11.75 -2.63 4.73 0 8.55 1.66 11.47 5 2.91 3.16 4.38 7.48 4.38 12.93 v 125.5 l 91.2 -132.6 c 2.55 -3.88 5.65 -6.61 9.28 -8.19 3.84 -1.75 7.83 -2.63 12 -2.63 4.74 0 8.57 1.66 11.48 5 2.91 3.16 4.38 7.48 4.38 12.93 v 189.7 h -37.2 v -139.2 l -83.1 126.8 c -3.09 4.76 -6.47 8 -10.1 9.78 -3.65 1.76 -7.38 2.63 -11.21 2.63 -3.28 0 -6.37 -0.52 -9.28 -1.59 -2.91 -1.23 -5.46 -2.91 -7.66 -5 -2.18 -2.11 -3.92 -4.58 -5.19 -7.39 -1.27 -2.82 -1.91 -5.99 -1.91 -9.51 v -115.7 l -91.2 139.2 h -44.3 z"/><path d="m 722.8,40.89 z m 37.1,-170.4 V 4.99 h 32.51 c 12.74,0 23.1,-2.03 31.1,-6.08 8.19,-4.05 12.3,-10.39 12.3,-19 0,-8.63 -2.74,-15.1 -8.2,-19.29 -5.46,-4.22 -12.29,-6.34 -20.49,-6.34 h -25.68 v -35.66 h 25.68 c 8.2,0 14.49,-1.94 18.85,-5.81 4.55,-3.88 6.83,-10 6.83,-18.49 0,-8.45 -3.09,-14.53 -9.29,-18.23 -6,-3.69 -16.4,-5.54 -31.1,-5.54 z m 81.4,62.1 c 5.64,2.46 10.38,5.54 14.2,9.24 4,3.52 7.2,7.39 9.57,11.62 2.36,4.22 4,8.62 4.91,13.21 1.1,4.57 1.64,8.98 1.64,13.21 0,8.45 -1.72,16.37 -5.19,23.77 -3.28,7.39 -8.47,13.9 -15.57,19.54 -6.91,5.46 -15.75,9.78 -26.5,12.95 -10.56,3.17 -23.1,4.76 -37.7,4.76 h -63.92 v -206 h 71.85 c 23.85,0 42.1,4.4 54.63,13.21 12.58,8.81 18.85,22.2 18.85,40.2 0,4.05 -0.45,8.28 -1.37,12.69 -0.91,4.22 -2.36,8.36 -4.36,12.41 -2,3.88 -4.73,7.48 -8.2,10.83 -3.46,3.36 -7.74,6.17 -12.84,8.47 z"/><path d="m 883.1 39.98 z m 98.6 0 c -14.38 0 -27.68 -2.63 -39.89 -7.89 -12 -5.44 -22.4 -12.9 -31.1 -22.37 -8.69 -9.47 -15.47 -20.52 -20.31 -33.1 -4.85 -12.81 -7.28 -26.58 -7.28 -41.3 0 -14.73 2.35 -28.2 7 -40.52 4.85 -12.27 11.54 -22.88 20.1 -31.84 8.7 -8.94 19.1 -15.87 31.1 -20.78 12.21 -4.9 25.67 -7.37 40.4 -7.37 h 5.77 c 14.89 0 28.35 2.54 40.4 7.63 12.21 4.92 22.58 11.84 31.1 20.78 8.69 8.96 15.38 19.57 20.1 31.84 4.68 12.29 7 25.7 7 40.3 0 14.74 -2.43 28.51 -7.28 41.3 -4.85 12.63 -11.7 23.68 -20.58 33.1 -8.7 9.47 -19.1 16.93 -31.1 22.37 -12 5.26 -25.2 7.89 -39.64 7.89 z m 0 -169.4 c -9.35 0 -17.98 1.66 -25.83 5 -7.86 3.34 -14.71 7.98 -20.58 13.95 -5.69 5.97 -10.19 13.1 -13.54 21.31 -3.17 8.25 -4.77 17.37 -4.77 27.36 0 9.65 1.59 18.5 4.77 26.58 3.17 8.1 7.61 15.1 13.29 21 5.69 5.79 12.46 10.35 20.33 13.69 8 3.15 16.8 4.73 26.33 4.73 h 5.77 c 9.71 0 18.49 -1.66 26.34 -5 8 -3.33 14.89 -7.89 20.58 -13.68 5.68 -5.97 10 -12.98 13 -21 3.17 -8.1 4.77 -16.84 4.77 -26.32 0 -9.82 -1.59 -18.86 -4.77 -27.1 -3.19 -8.24 -7.69 -15.34 -13.55 -21.31 -5.69 -6.14 -12.54 -10.87 -20.56 -14.21 -7.87 -3.33 -16.48 -5 -25.85 -5 z"/><path d="m 1102.8 41.2 z m 98.6 0 c -14.38 0 -27.68 -2.63 -39.89 -7.93 -12 -5.45 -22.42 -12.94 -31.1 -22.45 -8.69 -9.51 -15.47 -20.6 -20.33 -33.3 -4.85 -12.86 -7.27 -26.68 -7.27 -41.47 0 -14.79 2.33 -28.36 7 -40.69 4.85 -12.32 11.54 -22.97 20.1 -31.96 8.71 -8.98 19.1 -15.94 31.1 -20.86 12.21 -4.93 25.67 -7.39 40.4 -7.39 h 5.77 c 14.89 0 28.35 2.54 40.4 7.65 12.2 4.93 22.57 11.89 31.1 20.86 8.7 8.99 15.39 19.64 20.1 31.96 4.68 12.33 7 25.8 7 40.4 0 14.78 -2.43 28.61 -7.28 41.47 -4.85 12.68 -11.7 23.77 -20.56 33.3 -8.71 9.51 -19.1 17 -31.1 22.45 -12 5.29 -25.3 7.93 -39.64 7.93 z m 0 -170.1 c -9.37 0 -17.98 1.68 -25.84 5 -7.87 3.34 -14.72 8 -20.58 14 -5.68 5.99 -10.2 13.1 -13.54 21.4 -3.19 8.28 -4.77 17.43 -4.77 27.47 0 9.68 1.58 18.58 4.77 26.68 3.17 8.1 7.61 15.1 13.29 21.1 5.69 5.81 12.46 10.39 20.32 13.73 8 3.17 16.81 4.76 26.34 4.76 h 5.77 c 9.7 0 18.47 -1.68 26.34 -5 8 -3.36 14.88 -7.93 20.56 -13.73 5.69 -5.99 10 -13 13 -21.1 3.19 -8.1 4.77 -16.9 4.77 -26.42 0 -9.86 -1.58 -18.93 -4.77 -27.2 -3.17 -8.28 -7.69 -15.41 -13.54 -21.4 -5.69 -6.16 -12.54 -10.92 -20.58 -14.26 -7.86 -3.34 -16.47 -5 -25.83 -5 z"/><path d="m 1322.1,40.56 z m 86.9,-83.2 -49.73,73.96 c -2.55,4.05 -5.73,6.87 -9.56,8.45 -3.65,1.4 -7.56,2.11 -11.75,2.11 -4.73,0 -8.56,-1.59 -11.48,-4.75 -2.91,-3.17 -4.37,-7.48 -4.37,-12.94 v -189.7 h 37.2 v 139.2 l 91.3,-139.2 h 44.3 l -63.6,90.9 86.9,115.2 h -50.3 z"/></g></svg>