<svg xmlns="http://www.w3.org/2000/svg" viewBox="0 0 256 256"><path d="m 219.3 48 c 159.7 227 -255.7 299.3 -214.5 58 c 21.84 -95.9 150.5 -149 214.5 -58" style="fill:#617476"/><path d="m 102.7 252.5 c -26.33 -4.18 -50.2 -16.1 -66.98 -33.4 30.68 -2.54 145.3 0.29 185.7 -3.92 -31.49 29.92 -69.95 40.1 -118.7 37.3 z"/><g style="fill:#fff"><path d="m 50.2 104.8 c -0.76 -0.2 -1.31 -1.04 -1.29 -1.98 0.01 -0.9 -0.16 -10.48 -0.39 -21.3 l -0.42 -19.66 l 8.54 -0.53 c 10.53 -0.66 15.28 -0.05 16.7 2.14 1.02 4.98 3.88 14.22 0.48 17.69 -1.48 1.48 -2.12 1.57 -8 1.11 -9.29 -0.71 -9.4 -0.57 -9.4 12.18 0 9.69 -0.05 9.97 -1.69 10.41 -1.54 0.25 -3.19 0.29 -4.51 -0.04 z m 16.55 -31.2 c 1.91 -2.95 -0.4 -4.92 -2.45 -5.36 -4.38 -0.91 -7.15 0.33 -7.15 3.2 0 1.32 0.54 2.57 1.32 3.04 1.51 0.92 6.77 0.36 8.28 -0.89 z"/><path d="m 99 105.3 c -0.6 -0.44 -0.81 -1.78 -1.17 -7.45 -0.44 -7.1 -1.22 -11.28 -2.43 -13.1 -2.13 -1.69 -5.59 -1.02 -7.77 0.6 -3.07 1.98 -1.37 6.79 -1.25 10 0.26 7.22 0.21 8.91 -0.27 9.21 -0.9 0.57 -5.73 0.45 -6.49 -0.16 -0.61 -0.49 -0.62 -2 -0.11 -15.83 0.31 -8.41 0.69 -15.99 0.83 -16.84 0.36 -3.11 -1.86 -6.27 -0.81 -9.29 0.23 -0.6 1.68 -0.68 11.81 -0.68 11.98 0 14 0.25 14.4 1.75 0.12 0.46 0.03 3.09 -0.21 5.84 -0.23 2.76 -0.36 11.97 -0.28 20.48 l 0.14 15.47 l -1.51 0.25 c -2.41 0.4 -4.1 0.3 -4.89 -0.28 z m -4.61 -29.58 c 2.56 -1.28 4.09 -5.99 2.27 -6.96 -11.95 -4.15 -10.61 10.87 -2.27 6.96 z"/><path d="m 122 104.5 c -0.36 -0.67 -0.41 -5.12 -0.18 -16.52 0.33 -16.66 0.17 -18.64 -1.62 -19.9 -1.31 -0.91 -3.75 -0.83 -6.42 0.22 -2.93 1.15 -3.5 0.66 -3.75 -3.2 l -0.18 -2.75 l 1.41 -0.49 c 0.93 -0.32 5.78 -0.49 14.26 -0.49 h 12.86 c 0.09 2.12 0.19 4.25 0.28 6.37 -2.68 0.15 -5.51 0.2 -8.1 0.87 -0.37 0.37 -1.13 21.33 -1.21 33 l -0.02 2.89 c -2.05 0.52 -6.3 1.72 -7.37 -0.02 z"/><path d="m 145.7 105.1 l -1.62 -0.17 v -3.32 c 0 -4.79 -0.79 -30.2 -1.09 -35.4 l -0.26 -4.43 c 2.86 0 5.72 0 8.58 0 0.58 4.57 -0.47 9.73 0.92 14.1 3.05 1.73 4.79 0.97 9 0.97 0.21 -5.22 0.42 -10.44 0.63 -15.67 2.63 0.2 5.4 0.31 7.89 1.02 0.57 0.58 0.44 22 -0.19 29.1 -0.41 4.73 -0.38 5.43 0.41 7.99 0.47 1.54 0.86 3.54 0.87 4.43 -0.15 2.82 -3.48 1.36 -5.39 1.02 -3.44 -0.23 -3.06 -1 -3.33 -4.18 -0.17 -2 -0.47 -6.1 -0.68 -9 -0.36 -5.08 -0.44 -5.41 -1.56 -6.37 -2.59 -1.43 -4 -1.02 -7.1 -1.02 -0.58 4.35 -0.71 8.93 -0.78 12.74 -0.07 4 -0.15 7.58 -0.16 7.88 -0.03 0.54 -2.39 0.62 -6.18 0.23 z"/><path d="m 181.6 105 c -1.36 -0.17 -3 -0.55 -3.71 -0.83 -1.59 -0.66 -2.67 -2.93 -2.67 -5.62 0.68 -3.7 2.4 -4.99 5.6 -7.37 0.79 -0.42 0.88 -0.34 0.88 0.83 0 1.33 1.51 5.87 2.27 6.83 0.53 0.67 3.5 0.66 5.5 -0.02 1.77 -0.6 2.22 -1.68 3.32 -7.89 1.76 -6.27 -3.47 -7.53 -7.49 -7.96 -7.32 -0.76 -9.36 -1.76 -10.1 -4.96 -0.87 -3.75 -0.19 -11.33 1.24 -13.82 1.16 -2.03 3.38 -2.87 7.74 -2.95 3.78 -0.19 7.39 0.77 11.1 1.25 3.76 0.48 6.27 3.94 6.28 8.67 0 1.09 -0.26 2 -0.67 2.34 -0.57 0.48 -0.96 0.26 -2.66 -1.51 -2.45 -2.56 -5.83 -4.16 -9.38 -4.44 -3.95 -0.52 -6.73 3 -5.6 5.9 0.87 2.17 1.64 2.62 5.33 3.08 3.17 0.4 6.09 1.51 9.21 3.5 1.75 1.12 2.14 1.64 2.68 3.53 1.05 3.71 1.31 9.1 0.56 11.19 -0.36 1 -0.88 2.93 -1.16 4.27 -0.64 3.1 -2.56 5.22 -5.37 5.92 -2.13 0.54 -8.95 0.57 -12.9 0.06 z"/><path d="m 194.8 197.5 c -0.26 -0.42 -1.21 -43.69 -0.96 -43.92 0.04 -0.04 3.77 -0.31 8.29 -0.6 8.77 -0.56 13.64 -0.2 15.69 1.15 1.39 0.91 2.55 3.74 3.13 7.61 0.71 4.74 -0.15 7.43 -3.3 10.44 l -2.34 2.23 c 2.15 1.66 4.31 3.32 6.46 4.98 l -0.02 4.19 c -0.01 2.3 -0.19 6.22 -0.39 8.7 -0.46 5.52 -0.57 5.64 -5.39 5.64 h -3.48 c -0.77 -5.06 1.54 -12.59 -0.87 -16.81 -1.14 -1.93 -4.17 -3.52 -6.47 -3.38 -3.73 0.2 -2.31 8.33 -2.34 11.1 -0.05 6.69 -0.23 8 -1.11 8.36 -1.45 0.56 -6.6 0.79 -6.89 0.31 z m 16.78 -29.98 c 1.26 -0.83 2.15 -3.49 1.54 -4.62 -3.06 -2.15 -5.56 -2.35 -9.1 -2.87 0.05 2.76 -0.45 8.18 2.16 8.59 1.6 0.22 4.14 -0.3 5.36 -1.1 z"/><path d="m 166.5 197.5 c -1.11 -0.07 -2.24 -0.4 -2.52 -0.74 -0.36 -0.43 -0.63 -6.77 -0.94 -21.6 -0.24 -11.54 -0.37 -21 -0.28 -21.1 0.08 -0.07 5.73 -0.27 12.56 -0.43 l 12.4 -0.3 l 1.09 1.09 c 0.9 0.9 1.09 1.5 1.09 3.43 0 3.48 -0.18 3.55 -8.1 3.39 -7.36 -0.15 -9.23 0.2 -10 1.9 -0.61 1.33 -0.64 3.42 -0.07 4.48 4.37 3.33 9.47 -0.54 9.51 5.42 0 3.53 -0.62 4.26 -3.29 3.86 -2.56 -0.38 -4.81 0.09 -5.37 1.14 -0.66 1.24 -1.2 8.15 -0.76 9.78 0.21 0.76 0.61 1.53 0.9 1.71 1.09 0.67 5.84 0.92 9.38 0.49 4.3 -0.53 6 -0.49 6.75 0.13 0.68 0.56 1.21 3.89 0.85 5.31 -0.58 2.29 -0.76 2.33 -11.37 2.26 -5.41 -0.04 -10.74 -0.12 -11.85 -0.2 z"/><path d="m 151.7 201 c -3.22 -3.59 -2.89 -3.49 -11.2 -3.06 -6.4 0.33 -7.41 0.29 -8.35 -0.32 -2.28 -1.49 -2.33 -2.1 -2.2 -22.87 0.12 -18.67 0.15 -19.2 1.03 -20.38 1.26 -1.7 3.35 -2.33 6 -1.8 2.74 0.54 10.75 0.67 14.7 0.23 2.7 -0.3 3.18 -0.24 4.1 0.5 0.92 0.74 1.04 1.19 1.04 3.8 -0.01 6.49 -1.4 9.36 -5.43 11.17 -1.75 0.79 -1.8 0.79 -2.39 -0.01 -0.33 -0.45 -0.6 -1.22 -0.6 -1.71 0 -1.75 -0.95 -4.26 -2 -5.31 -0.92 -0.92 -1.32 -1.03 -2.85 -0.79 -3.12 0.5 -4.58 1.45 -5.08 3.31 -0.6 2.22 -1.7 15.95 -1.71 21.23 -0.01 5.6 0.3 5.94 5.37 5.94 3.22 0 3.79 -0.12 4.84 -1.03 1.06 -0.91 1.2 -1.33 1.21 -3.64 0.02 -3.19 -0.88 -4.61 -3.8 -6 -1.11 -0.53 -2 -1.15 -2 -1.37 0 -0.76 2.15 -2.1 6.27 -3.9 2.26 -0.99 4.55 -1.74 5.08 -1.67 1.64 0.23 2.09 2.68 2.35 12.88 0.22 8.7 0.18 9.52 -0.74 12.96 -0.54 2 -1.1 3.79 -1.24 3.95 -0.15 0.15 -1.22 -0.79 -2.39 -2.09 z"/><path d="m 99.6 197.8 c -1.74 -0.64 -1.86 -1.71 -2.22 -18.92 -0.19 -9.14 -0.4 -18.72 -0.47 -21.28 l -0.12 -4.66 c 2.72 0.08 5.44 0.16 8.16 0.25 l 2.29 6.26 c 3.71 10.18 5.73 13.58 7.18 12.1 0.31 -0.31 0.56 -3.79 0.71 -9.72 0.13 -5.08 0.38 -9.39 0.56 -9.57 0.3 -0.3 6.13 0.47 7.51 1 0.68 0.26 0.71 4.82 0.19 28.3 -0.23 10.62 -0.48 15.2 -0.85 15.61 -0.66 0.79 -3.37 1.14 -4.89 0.62 -1.44 -0.49 -2.09 -1.47 -4.2 -6.35 -1.99 -4.6 -4.95 -9.24 -6.37 -10 -1.86 -1 -2.07 -0.2 -2.22 8.44 l -0.13 7.93 l -2.16 0.15 c -1.19 0.08 -2.52 0.01 -2.97 -0.15 z"/><path d="m 84.2 197.8 l -0.3 -4.41 c -0.45 -6.65 -1.48 -13.27 -2.48 -15.92 -0.55 -1.44 -1.47 -1.68 -4.73 -1.22 -5.17 0.73 -5.44 1.48 -4.79 13 0.23 4.12 0.3 7.63 0.15 7.8 -0.43 0.47 -7.11 0.87 -7.7 0.46 -0.4 -0.28 -0.38 -0.79 0.12 -2.23 0.54 -1.57 0.61 -4.54 0.45 -18.55 -0.1 -9.18 -0.32 -17.68 -0.48 -18.9 -0.31 -2.34 0.53 -4.89 1.63 -4.93 4.77 -0.14 19.74 0.14 21.66 0.4 3.35 0.46 4.14 1.38 4.14 4.83 -1.8 5.11 0.05 10.94 -0.49 15.51 -0.6 4.22 -0.69 15.25 -0.17 21.27 l 0.29 3.35 c -2.51 -0.17 -5.19 -0.34 -7.28 -0.47 z m -3.95 -30.2 c 2.47 -2.46 2.32 -4.5 2.66 -7.74 -3.04 0 -6.07 0 -9.11 0 -0.09 2.45 -0.75 6.98 1.33 8.13 1.04 0.53 3.81 0.32 5.13 -0.39 z"/><path d="m 32.56 184.8 c -0.24 -14.54 -1.1 -24.2 -2.52 -28.53 -0.45 -1.36 -0.82 -2.64 -0.82 -2.85 0 -0.59 9.9 -0.9 16.63 -0.53 8.35 0.47 9.99 1.27 12.17 5.93 1 2.14 1.05 2.64 1.03 10.8 -0.02 10.81 -0.42 20.26 -0.93 21.95 -0.22 0.72 -1.51 2.51 -2.88 3.98 l -2.48 2.67 l -4.1 -0.46 c -3.82 -0.43 -12.14 -0.25 -14.73 0.32 l -1.13 0.25 z m 16.4 5.15 c 0.76 -0.27 1.53 -0.8 1.7 -1.17 0.56 -1.22 0.72 -23.71 0.18 -25 -0.75 -1.82 -2.55 -2.65 -5.73 -2.65 -4.7 0 -4.44 -0.81 -4.43 13.89 0.01 6.97 0.16 13.21 0.34 13.87 1.77 2.49 5.49 1.88 7.95 1.07 z"/><path d="m 117.9 147.6 c -4.46 -0.78 -5 -3.89 -6.08 -6.9 -1.03 -2.88 -0.08 -6.46 2.57 -9.72 3.06 -3.75 3.06 -4.51 0.09 -9 -3.54 -5.4 -3.48 -6.57 0.57 -9.75 3.19 -2.5 3.23 -2.51 6.48 -2.21 4.28 0.4 7 1.7 8.49 3.98 1.14 1.81 1.13 3.83 -0.17 6.15 -1.49 2.58 -3.21 2.84 -5 5.16 l 2.13 2.97 c 3.15 4.38 3.82 10.19 7.39 8.18 l 4.8 -2.7 l 2.26 1.77 c -10.6 7.51 1.15 9.1 -2.1 11.62 -0.97 0.77 -7.1 -2.16 -8.11 -1.84 -9.48 2.58 -6.95 4.2 -13.27 2.32 z m 10.15 -4.12 c 2.76 -1.13 1.85 -4.13 -2.55 -8.39 -2.61 -2.52 -5 -2.75 -6.44 -0.6 -1.59 2.38 -1.29 7.65 1.4 8.89 1.15 0.53 5.61 0.91 7.59 0.1 z m -3.49 -24.2 c 1.31 -4 -0.56 -6.25 -4.18 -4.14 -1.96 1.14 -2.58 3.09 -1.48 4.69 0.99 1.45 2.61 8.88 5.66 -0.55 z"/></g><path d="m 212.4 144.3 c -1.7 -0.41 -1.93 -0.83 -2.51 -4.39 -0.72 -4.5 -1.4 -5.07 -5.84 -4.86 -3.18 0.14 -3.76 0 -4.94 -1.19 -2.51 -2.54 -2.48 -8.89 0.05 -12.63 0.58 -0.86 1.49 -3.16 2 -5.12 0.92 -3.43 3.87 -9.91 5.53 -12.16 0.77 -1.04 0.88 -0.98 2.48 1.26 2.97 4.76 4.42 9.75 6.9 14.85 1.93 3.94 2.5 4.14 13.82 4.91 4.44 0.3 9 0.89 10.23 1.31 l 2.16 0.76 c 0.19 5.93 -12.48 9.3 -17.68 13.34 -4.7 3.76 -8.22 4.89 -12.24 3.91 z"/><path d="m 59.3 145.6 c -0.3 -0.36 -0.71 -1.65 -0.92 -2.86 -0.21 -1.22 -0.57 -2.33 -0.81 -2.47 -0.24 -0.14 -1.56 0.33 -2.95 1.04 -3.87 1.99 -5.48 1.76 -8.09 -1.15 -1.21 -1.34 -3.59 -3.88 -5.3 -5.65 -1.71 -1.76 -3.1 -3.58 -3.1 -4 0 -1.32 2.55 -2.9 5.3 -3.3 1.57 -0.23 5.1 -0.01 9.34 0.57 3.75 0.51 7.44 0.78 8.2 0.6 1.86 -0.45 2.5 -2.85 2.51 -9.45 0.02 -11.61 3.43 -15.94 7.9 -10.1 1.14 1.49 3.34 3.91 4.9 5.37 3.21 3 3.5 4.24 1.76 7.55 -1.76 3.34 -1.24 6.25 1.13 6.25 1.42 0 1.65 1.4 0.74 4.43 -1.05 3.5 -1.88 4.15 -5.31 4.16 -3.35 0.01 -5.16 1.16 -6.74 4.29 -1.88 3.72 -7 6.55 -8.57 4.7 z"/><path d="m 111.8 30 c 0.18 -0.64 0.59 -1.16 0.9 -1.16 1.21 0 4.41 -3.31 4.41 -4.57 0 -0.73 -0.98 -2.35 -2.18 -3.59 -1.2 -1.24 -10.6 0.55 -8.26 -5.69 0.3 -0.8 7.77 -1.08 10.22 -3.42 4.07 -3.89 4.12 -3.99 3.2 -6.07 -1.85 -4.21 1.68 -4.6 11.74 -4.6 7.18 -1.22 7.8 2.52 14.1 4.08 2.13 0.52 3.91 1.64 5.99 3.79 5.3 5.49 3.42 8.68 -4.62 7.84 -4.18 -0.44 -7.59 0.25 -8.62 1.74 -1.83 2.64 2.3 8 7.52 9.76 5.4 1.82 8.29 7.41 6.57 12.68 -2.69 6.07 -6.4 2.65 -9.13 -0.7 -3.94 -4.89 -4.71 -4.49 -4.78 2.47 -0.09 8.98 -2.26 13.54 -5.57 11.68 -2 -1.14 -4.5 -5.75 -4.98 -9.27 -0.54 -3.91 -1.99 -6.21 -3.91 -6.21 -0.78 0 -3.57 0.97 -6.21 2.15 -4.67 2.1 -8.55 3.6 -9.56 2.35 -0.99 -1.23 -5.08 -6.98 3.21 -13.26 z"/></svg>