<svg xmlns="http://www.w3.org/2000/svg" viewBox="0 0 256 256"><path d="m 219.3 48 c 159.7 227 -255.7 299.3 -214.5 58 c 21.84 -95.9 150.5 -149 214.5 -58" style="fill:#020000"/><path d="m 100.6 178.7 c -0.88 -1.08 -1.16 -3.34 -0.75 -6 0.9 -5.83 6.42 -10.53 25.49 -21.71 18.93 -11.1 24.9 -16.31 24.9 -21.76 0 -3.15 -0.69 -4.32 -3.67 -6.16 -2 -1.25 -5 -2.28 -6.69 -2.28 -3.28 0 -6.57 -2.63 -6.57 -5.25 0 -1.26 1.77 -1.64 7.66 -1.64 16.32 0 26.94 11.47 21.2 22.84 -0.9 1.77 -6.56 7.81 -12.57 13.42 l -10.93 10.2 l 4.95 0.78 c 7.25 1.13 39.79 1.04 48.82 -0.15 4.28 -0.56 8.15 -1.64 8.62 -2.41 1.5 -2.46 -3.71 -12.24 -27.9 -52.4 -14.34 -23.81 -18.24 -28.64 -21.62 -26.79 -1.03 0.56 -6.15 7.51 -11.38 15.44 -11.1 16.82 -9.52 16.82 -20.38 0.06 -3.84 -5.92 -7.92 -11.1 -9.1 -11.44 -4.78 -1.54 -3.34 -3.65 -39.79 57.97 -11.39 19.25 -21 37.67 -21.97 37.86 -5.43 1.09 -10.94 -35.4 -6.78 -53.2 7.52 -32.2 34.1 -57.6 64.91 -66.3 11.92 -3.38 35 -3.59 45.66 -0.43 28.6 8.5 48.4 29 59.1 57.66 3.42 12.94 6.21 35.3 -1.33 61.7 -1.52 1.55 -8.48 1.77 -55.1 1.77 -46.2 0 -53.5 -0.23 -54.77 -1.73 z" style="fill:#fff"/></svg>