<svg xmlns="http://www.w3.org/2000/svg" viewBox="0 0 256 256"><path d="m 2 128.7 c -19.22 -168.9 255.9 -166.5 252.7 3 9.1 157.7 -267.6 171.9 -252.7 -3" style="fill:#b5f1f7"/><g transform="matrix(0.902 0 0 0.935 10.64 3.62)"><path d="m 65.4 182 c -35.54 -7.72 -49.2 -52.6 -24.2 -79.8 12.48 -13.65 34.53 -18.83 53.4 -12.54 c 9.89 3.3 9.89 3.14 0.01 14.97 l -8.69 10.41 l -6.62 0.05 c -11.33 0.08 -18.84 5.75 -21.2 16 -3 13.1 6.42 24.44 20.2 24.44 11.63 0 17.9 -4.63 36.6 -27 29.3 -35.1 45.3 -44.55 69.1 -41 22.33 3.32 37.99 18.61 41.2 40.2 4.77 32.1 -19.2 57.4 -52.5 55.5 -8.56 -0.49 -19.66 -3.52 -21 -5.73 5 -8.39 10.27 -13.9 16.99 -21.96 5.46 -0.02 11.92 0.29 16.45 -1.96 16.95 -8.65 13.49 -33.91 -5.21 -38.1 -5.08 -1.13 -6.47 -1.08 -11.29 0.44 -7.85 2.47 -14.2 8.14 -28.1 25.1 -19.24 23.43 -27.71 31.37 -39.9 37.4 -10.5 5.17 -22.38 6.4 -35.1 3.62 z" style="fill:#494949"/><g style="fill:#20a5c7"><path d="m 86.1 114.3 c 4.59 -7.18 13.45 -12.83 16.72 -20.73 11.34 3 18.5 10.55 26.29 18.38 -5.61 5.4 -14.1 19.48 -20.1 21.85 -7 -6.94 -15 -14.21 -22.9 -19.5 z"/><path d="m 126.6 157.8 c 6.33 -7.66 12.67 -15.32 19 -22.98 6.49 8.1 15.59 14.72 22.93 19.7 -4.3 4 -12.37 20.1 -17.59 21.3 -9.75 -3.47 -17.88 -12.28 -24.35 -18 z"/></g></g></svg>