<svg xmlns="http://www.w3.org/2000/svg" viewBox="0 0 256 256"><defs><clipPath><path d="m 30,94 2,2 3,10 1,-12 3,15 V 90 l 2,5 3,14 V 90 l 2,2 3,17 3,-23 6.615678,25.91971 L 59,96 l 2,-6 2,25 6,-25 2,21 5,-22 5,24 1,-18 3,-6 1,23 5,-22 3,10 1,-9 3,6 V 78 L 95,86 94,69 92,82 90,78 89,64 84,83 83,79 80,49 77,75 75,83 71,56 67,79 65,85 64,43.695313 58,90 52,48 49,84 47,80 45,56 44,80 41,87 39,63 37,82 34,77 V 91 L 30,76 Z"/></clipPath><linearGradient id="0" gradientUnits="userSpaceOnUse" y1="87.4" x2="0" y2="-147.6"><stop style="stop-color:#053496"/><stop offset="1" style="stop-color:#45e0f4"/></linearGradient></defs><path d="m 169.7 12.36 c -127.4 -49.68 -192.8 89.6 -160.3 176.2 c 22.67 60.5 113 90.6 186 47.68 92.1 -54.2 72.5 -185.6 -25.73 -223.9" style="fill:#f8f8ff"/><g transform="matrix(1 0 0 0.988 122.4 120.5)"><circle r="30" cy="32" cx="32" style="fill-opacity:0;stroke-width:1.57"/><path d="m -218.6 -107.6 c -44.2 0 -80 35.82 -80 80 0 44.2 35.82 80 80 80 44.2 0 80 -35.82 80 -80 0 -44.2 -35.82 -80 -80 -80 z m 0 16 c 35.3 0 64 28.65 64 64 0 35.3 -28.65 64 -64 64 -35.3 0 -64 -28.65 -64 -64 0 -35.3 28.65 -64 64 -64 z m -19 22 v 12.81 h 10.91 c 1.05 3.69 2.96 6.49 3.78 10.41 -9.35 15.95 -20.1 33.3 -29.38 48.78 -1.2 2 -2.99 4.41 -2.84 6.66 h 16.1 c 8.2 -11.7 15.29 -24.54 23.72 -36 4.68 13.32 10.27 25.73 14.69 39.3 8.97 -2.24 18 -4.4 25.56 -8.1 -2.13 -3.55 -2.45 -8.89 -4.72 -12.31 -3.57 1.48 -7.28 2.83 -11.38 3.78 -7.66 -22.35 -16.97 -43 -24.63 -65.4 z" transform="matrix(0.981 0 0 1 218 38)" style="fill:url(#0)"/></g></svg>