<svg xmlns="http://www.w3.org/2000/svg" viewBox="0 0 256 256"><path d="m 48.87 38.2 c 225.9 -159.7 297.9 255.7 57.72 214.5 -95.4 -21.84 -148.3 -150.5 -57.72 -214.5" style="fill:#00a185"/><g style="fill:#fff"><path d="m 89.1 197.7 l -11.87 -0.12 l -0.29 -3.58 c -0.16 -1.97 -0.22 -23.51 -0.15 -47.86 0.11 -35.41 0.25 -44.4 0.7 -44.84 0.42 -0.42 4.07 -0.64 14.64 -0.87 17.42 -0.38 22.61 -0.6 23.58 -1 1.29 -0.54 1.64 -3.06 2.31 -16.77 0.66 -13.51 1.2 -19.85 1.74 -20.38 0.42 -0.42 19.95 -0.37 23.46 0.06 l 2.91 0.36 l 0.15 19.67 c 0.12 15.34 0.28 19.89 0.73 20.69 1.2 2.1 2.76 2.34 17.99 2.77 7.81 0.22 14.82 0.49 15.58 0.6 1.13 0.16 1.43 0.45 1.67 1.6 0.16 0.77 0.4 21.34 0.53 45.7 l 0.23 44.3 l -41 -0.1 c -22.56 -0.06 -46.4 -0.16 -52.89 -0.22 z m 15.1 -11.84 c 1.88 -0.92 6.96 -6.7 9.62 -10.94 2.83 -4.51 4.09 -5.84 6.5 -6.87 2.47 -1.06 17 -5.42 20.6 -6.16 l 2.4 -0.5 l 3.65 2.2 c 4.05 2.44 7.76 3.97 9.63 3.97 3.21 0 7.67 -2.86 9.19 -5.9 1.18 -2.34 0.92 -3.51 -1.23 -5.59 -2.05 -2 -4.39 -2.43 -13 -2.44 h -6.21 l -3.33 -4 c -1.83 -2.21 -4.92 -6.36 -6.86 -9.21 l -3.53 -5.18 l 0.5 -5.95 c 1.23 -14.62 0.39 -17.43 -5.31 -17.78 -2.29 -0.14 -2.96 -0.01 -4.25 0.85 -0.84 0.56 -1.99 1.9 -2.55 2.98 -1.4 2.7 -1.07 5.83 1.48 13.88 l 2 6.36 l -3.33 9.11 c -6.37 17.44 -6.93 18.34 -13.65 22.28 -9.27 5.42 -12.41 8.7 -12.47 13 -0.04 2.38 1.36 4.66 3.7 6 2 1.19 3.83 1.14 6.46 -0.15 z"/><path d="m 79.9 93.7 c -1.1 -0.44 -0.66 -1.09 3.77 -5.56 6.33 -6.39 18.23 -17.62 23.2 -21.89 l 3.8 -3.26 l 0.41 5.45 c 0.22 3 0.44 10 0.47 15.66 l 0.06 10.2 l -15.23 -0.05 c -8.38 -0.03 -15.79 -0.27 -16.48 -0.55 z"/><path d="m 122 161.2 c 0 -0.96 2.97 -8.84 4.98 -13.21 l 1.61 -3.51 l 2.32 2.56 c 2.78 3.06 6.9 8.78 6.9 9.59 0 0.73 -3.94 2.21 -10.46 3.93 -2.81 0.74 -5.17 1.35 -5.23 1.35 -0.06 0 -0.12 -0.32 -0.12 -0.71 z"/><path d="m 158.2 100.8 c -2.07 -0.22 -3.66 -0.62 -3.88 -0.98 -1.32 -2.23 -2.36 -33.99 -1.33 -40.56 1 -6.41 5.47 -12.19 11.99 -15.54 2.84 -1.46 3.82 -1.72 7.18 -1.89 5.19 -0.26 8.3 0.48 11.68 2.75 2.86 1.92 7.34 6.08 8.1 7.46 0.58 1.13 -1.43 3.56 -2.56 3.56 -4.28 -1.5 -5 -4.52 -9.34 -6.63 -9.95 -3.8 -17.59 0.22 -20.24 8.79 -1.18 3.96 -0.3 6.94 1.13 7.92 6.7 0.27 33.45 -2.24 33.71 1.2 0.48 0.74 0.2 29.5 -0.32 31.72 -0.16 0.71 -0.73 1.54 -1.25 1.85 -11.55 0.25 -24.39 0.07 -34.83 0.36 z m 22.1 -6.87 c 0.44 -0.46 0.34 -1.5 -0.51 -5.11 -0.78 -3.35 -3.13 -4.35 -1.82 -7.72 0.85 -2.18 0.72 -5.9 0.47 -6.57 -0.61 -1.67 -3.17 -2.73 -5.64 -2.34 -3.54 0.55 -4.97 3.69 -3.69 8.14 0.42 1.46 0.86 3.12 -0.7 6.53 -2.88 6.32 -1.22 6.76 0.33 7.44 1.47 0.64 10.87 0.35 11.55 -0.36 z"/></g></svg>