<svg xmlns="http://www.w3.org/2000/svg" viewBox="0 0 256 256"><path d="m 223.5 214.2 c 146.4 -230.3 -253.5 -304.1 -221.6 -73.3 c 12.99 94.2 165.6 161.5 221.6 73.3" style="fill:#b0e0e6"/><g transform="matrix(3.034 0 0 2.992 29.2 26.1)"><path transform="matrix(2.333 0 0 2.115 4.05 9.67)" d="M 20,5 H 4 C 2.9,5 2.01,5.9 2.01,7 L 2,17 c 0,1.1 0.9,2 2,2 h 16 c 1.1,0 2,-0.9 2,-2 V 7 C 22,5.9 21.1,5 20,5 z m -9,3 h 2 v 2 h -2 z m 0,3 h 2 v 2 H 11 z M 8,8 h 2 v 2 H 8 z m 0,3 h 2 v 2 H 8 z M 7,13 H 5 V 11 H 7 z M 7,10 H 5 V 8 h 2 z m 9,7 H 8 v -2 h 8 z m 0,-4 h -2 v -2 h 2 z m 0,-3 H 14 V 8 h 2 z m 3,3 h -2 v -2 h 2 z m 0,-3 H 17 V 8 h 2 z"/><path d="m 29.95 53.5 c -0.09 -0.71 -0.16 -4.59 -0.16 -8.59 v -7.34 h -2.5 h -2.5 v -11.27 v -11.27 h 8 c 4.4 0 8 0.1 8 0.21 0 0.12 -1.34 3.62 -2.99 7.77 -1.64 4.15 -3 7.77 -3.06 8 -0.07 0.43 0.25 0.52 2.96 0.75 l 3 0.27 l -5.31 11.39 l -5.31 11.39 z" style="fill:#00adef"/></g></svg>