<svg xmlns="http://www.w3.org/2000/svg" viewBox="0 0 256 256"><path d="m 219.3 48 c 159.7 227 -255.7 299.3 -214.5 58 21.84 -95.9 150.5 -149 214.5 -58" style="fill:#1b6981"/><path d="m 118.3 217.7 c -22.82 -2.58 -44.66 -14.91 -58.4 -32.97 -16.63 -21.85 -20.86 -48.2 -12.19 -76 l 3.14 -10.1 c -1.88 -1.9 -3.76 -3.8 -5.64 -5.71 l 4.26 -6.25 c 8.44 -12.38 22.55 -24.92 34.67 -30.82 26.1 -11.61 55.4 -10.4 77.5 -0.23 c 23.2 10.78 40.1 29.46 47.3 52.4 4.06 12.82 4.79 35 1.56 47.1 -7.87 29.33 -29.55 51.2 -58.93 59.5 -11.87 3.04 -22.61 4.28 -33.3 3.07 z m 80.8 -75.1 c 3.52 -31.2 -12.74 -60.4 -41.3 -74.2 -11.75 -5.68 -20.2 -7.53 -34.1 -7.51 -13.9 0.03 -21.49 1.52 -31.3 6.16 -9.53 4.5 -17.39 10.27 -23.2 17 -7.48 8.72 -5.98 9.1 8.51 2.1 18.22 -7.98 36.4 -10.85 52.72 -5.44 26.67 8.92 43.3 30.3 43.3 55.78 0 14.36 -5.14 26.9 -14.99 36.61 -8.71 8.58 -18.98 12.74 -31.43 12.74 -17.1 0 -30.8 -8.6 -36.3 -22.82 -4.06 -10.49 -3.04 -20.93 3.26 -33.1 3.7 -7.17 3.26 -9.35 -1.27 -6.2 -3.32 2.3 -9.36 9.28 -11.39 13.1 -6.21 11.83 -5.07 30.4 2.67 43.3 6.79 11.29 21.42 21 35.2 23.43 39.97 5.64 75.5 -30.58 79.7 -61 z m -58.2 26.97 c 2.38 -1.77 5.87 -5.08 5.08 -6.53 -0.53 -0.97 -2.9 -2.43 -6.72 -5.78 -1.35 -2.68 6.37 -6.46 3.94 -18.1 -2.58 -8.48 -12.87 -14.6 -21.38 -12.72 -7.35 1.63 -14.38 6.91 -17.67 13.26 -6.3 12.17 1.61 29 15.51 31.97 7.7 1.63 15.95 1.84 21.23 -2.09 z m -78.1 -10 c 0.11 -4.36 3.05 -19.66 4.51 -23.47 7.26 -18.91 24.74 -31 45 -31.1 14.1 -0.08 25.84 4.67 38.2 15.39 3.9 3.39 7.42 6.17 7.82 6.17 2.06 0 1.63 -2.57 -1.48 -8.72 -4.72 -9.34 -12.38 -16.62 -22.41 -21.3 -9.1 -4.22 -14.72 -5.46 -24.62 -5.39 -9.38 0.06 -17.54 2.13 -25.42 6.44 -14.42 7.89 -24.65 22.36 -26.94 38.1 -1.3 8.98 1.26 24.54 4 24.54 0.73 0 1.34 -0.3 1.35 -0.66 z" style="fill:#fff"/></svg>