<svg xmlns="http://www.w3.org/2000/svg" viewBox="0 0 256 256"><path d="m 252.8 157.3 c -49.98 239.9 -393.9 -17.64 -187.3 -139.6 80.2 -52.3 213 16.2 187.3 139.6" style="fill:#b0c4de"/><g transform="matrix(0.647 0 0 0.616 22.1 26.2)"><path d="m 141.9 276.1 c -55.4 -9.55 -86.6 -49.93 -86.5 -112 c 0.1 -57.1 26.95 -94.5 78 -108.8 27 -4.1 54.4 -6.35 78.87 0.8 50.1 14.85 75.5 51.61 75.4 109.2 -0.03 23.99 -2.9 39 -10.83 56.64 l -5.38 11.98 c 1.79 14.59 7.55 29.1 8.33 43.72 -14.99 -3.76 -26.2 -7.54 -42.1 -12.47 l -13.59 4.54 c -7.47 2.5 -18.32 5.4 -24.1 6.45 -19.26 0.78 -39.1 3 -58.2 0.03 z" style="fill:#4d6298"/><g style="fill:#dcdcdc"><path d="m 86.3 162.5 c 2.13 -2.24 7.49 -1.23 20 -1.25 5 -0.01 8.76 -0.37 9.89 -0.98 2.51 -1.33 8.83 -10.48 13.77 -21.38 l 5.2 -11.47 c -1.74 10.58 1.13 29.68 -0.09 35.3 -4.69 4.99 -6.17 6.36 -8.37 9.14 -4.18 5.19 -13.57 2.39 -19.63 2.39 h -17.72 c -5.42 -2.05 -5.49 -9.14 -3.08 -11.76 z"/><path d="m 230 165.1 l 9.64 0.2 c 5.69 0.12 10.16 0.89 11.2 1.11 6.55 1.38 5.57 10.25 1.43 11.95 -1.71 0.71 -21.1 1.22 -26.29 1.22 1 -2.24 4 -10.2 4 -14.49 z"/></g></g><path d="m 123.5 155 c -5.42 -0.91 -9.54 -4.19 -12.1 -9.63 -1.31 -2.77 -1.35 -3.08 -1.88 -15.54 -0.59 -13.73 -0.39 -26.52 0.44 -28.6 1.17 -2.93 5.75 -4.13 7.82 -2.06 1.49 1.49 1.56 2.21 2.05 23.1 0.5 21 0.46 20.78 4.5 22.63 2.8 1.28 3.86 1.22 7 -0.37 2.78 -1.39 3.21 -2.96 3.62 -13.1 0.4 -9.91 0.83 -11.39 4.5 -15.46 3.62 -4 10.38 -6.68 15.19 -5.95 5.44 0.82 10.74 4.06 13 7.99 1.58 2.7 2.95 7.19 3.34 10.96 0.65 6.29 -2.75 9.96 -7.54 8.14 -2.03 -0.77 -2.75 -2.5 -3.19 -7.69 -0.23 -2.64 -0.61 -5.28 -0.87 -5.87 -0.25 -0.59 -1.45 -1.7 -2.67 -2.47 -3.27 -2.07 -6 -1.84 -9.3 0.79 -2.68 1.64 -1.76 5.1 -1.89 7.89 -0.48 10.16 -1 13.68 -2.42 16.28 -2.6 4.78 -6.93 7.9 -12.41 8.94 -2.81 0.53 -3.97 0.53 -7.25 -0.02 z" style="fill:#fff"/></svg>