<svg xmlns="http://www.w3.org/2000/svg" viewBox="0 0 256 256"><path d="m 130.4 1.31 c -26.4 2.05 -57.3 14.66 -78.8 32.2 -26.2 21.31 -45.4 53.99 -50.5 86.2 -6.14 42.55 18.58 88.3 46.5 110 14 10.57 32.58 18.98 49.99 22.66 45.3 9.58 92.6 -8.56 125 -47.96 19.42 -23.62 29.47 -47.4 31.93 -75.6 2.94 -33.77 -10.42 -69.98 -34.8 -94.4 -27.74 -22.99 -56.3 -35.46 -89.2 -33.1" style="fill:#505050"/><g style="fill:#fff"><path d="m 103.7 181.8 c -5.3 -1.18 -17.69 -5.39 -21.32 -7.24 -4.59 -2.34 -13.28 -9 -13.8 -10.64 -0.19 -0.59 0.4 -0.97 1.54 -0.97 1.02 0 2.53 -0.49 3.36 -1.1 1.4 -1.02 1.52 -2.34 1.76 -19.2 0.14 -9.95 0.02 -20.63 -0.26 -23.75 -0.46 -4.98 -0.75 -5.77 -2.39 -6.52 -5.16 -2.35 -14.1 4.7 -24.49 19.28 -3.45 4.84 -6.62 8.8 -7.1 8.8 -1.28 0 0.08 -8.97 2.22 -14.65 4 -10.66 9.55 -18.57 21.2 -30.3 7.55 -7.59 15.98 -14.1 22.9 -17.61 5.27 -2.69 11.93 -4.91 12.4 -4.14 0.22 0.35 -0.95 2.16 -2.59 4 -4.26 4.85 -5.74 8.12 -5.64 12.48 0.11 4.7 1.16 6.7 4.05 7.71 l 2.27 0.79 v 28.1 v 28.1 l 2.61 1.61 c 3.39 2.09 6.93 2.03 11.74 -0.21 6.56 -3.06 6.23 -1.45 6 -29.3 l -0.18 -24.67 l -2.34 -3.23 c -1.29 -1.77 -2.34 -3.52 -2.34 -3.88 0 -0.91 3.95 -0.82 6.76 0.15 2.18 0.76 2.77 0.48 9.1 -4.27 3.71 -2.79 10.1 -6.69 14.19 -8.65 7.11 -3.41 13.45 -5.15 13.4 -3.69 -0.01 0.38 -3.13 5 -6.93 10.29 -6.88 9.57 -6.91 9.63 -7.47 15.5 -0.31 3.24 -0.6 15.17 -0.64 26.51 -0.08 22.84 -0.01 23.2 4.7 23.2 3.42 0 6.78 -1.43 11.8 -5 2.23 -1.6 4.25 -2.7 4.5 -2.46 0.76 0.76 -3.58 7.45 -8.85 13.63 -5.72 6.7 -11.67 12.44 -15.94 15.35 -3.43 2.34 -4.34 2.1 -10.94 -2.88 -2.26 -1.71 -4.65 -3.1 -5.31 -3.1 -0.66 0 -4.2 2.79 -7.88 6.2 -3.68 3.41 -7.12 6.16 -7.66 6.11 -0.54 -0.05 -1.67 -0.25 -2.52 -0.44 z"/><g transform="matrix(5.197 -1.171 0.132 5.17 100.7 78.8)"><path d="m 11.1 22.76 v 2.99 h 2.94 l 7.42 -7.56 l -2.94 -2.99 z m 12.96 -7.21 c 0.31 -0.32 0.31 -0.82 0 -1.13 l -1.84 -1.87 c -0.31 -0.32 -0.8 -0.32 -1.11 0 l -1.54 1.57 l 2.94 2.99 z" style="fill:#fff;stroke-width:0.14"/><path d="m 11.1 25.76 v -2.99 l 2.94 2.99 z" style="fill:#808080"/><path d="m 11.1,25.76 -0.02,-1.24 1.2,1.24 z" style="fill:#fff"/></g></g></svg>