<svg xmlns="http://www.w3.org/2000/svg" viewBox="0 0 256 256"><defs><filter height="1.06" width="1.05" y="-0.03" x="-0.03" id="0" style="color-interpolation-filters:sRGB"><feGaussianBlur stdDeviation="0.326"/></filter></defs><path d="m 245.3 103.9 c -25.5 -170.7 -287.7 -112.4 -238.1 52.8 33.3 157 301.6 114.5 238.1 -52.8" style="fill:#2d84c5"/><g transform="matrix(4.731 0 0 4.761 353.2 191.4)" style="fill-rule:evenodd;stroke-width:1.06"><path d="m -47.3 -28.1 c -0.1 -0.01 -0.2 0 -0.3 0.01 -0.43 0.06 -0.82 0.27 -1.08 0.61 -0.03 0.03 -0.04 0.07 -0.07 0.11 -0.04 0.06 -0.08 0.11 -0.11 0.17 l -13.54 27.1 c 7.54 -2.78 12.54 -4.17 15 -4.17 2.46 0 7.46 1.39 15 4.17 l -5.25 -10.49 l -4.89 -9.79 l -3.4 -6.79 c -0.04 -0.08 -0.09 -0.16 -0.14 -0.23 -0.05 -0.07 -0.11 -0.14 -0.17 -0.2 -0.12 -0.12 -0.27 -0.23 -0.42 -0.31 -0.1 -0.05 -0.21 -0.09 -0.31 -0.12 -0.11 -0.03 -0.21 -0.05 -0.32 -0.05 z" style="opacity:0.3;filter:url(#0)"/><g transform="matrix(3 0 0 3 124.8 56.2)" style="fill:#fff;stroke-width:0.35"><path d="m -57.1 -28 c 0.11 0.05 0.19 0.14 0.24 0.24 l 4.51 9 c -2.51 -0.93 -4.18 -1.39 -5 -1.39 -0.82 0 -2.49 0.46 -5 1.39 l 4.51 -9 c 0.13 -0.27 0.46 -0.38 0.73 -0.24 z" style="opacity:0.61"/><path d="m -57.1,-28 c 0.11,0.05 0.19,0.14 0.24,0.24 l 1.13,2.27 -6.62,6.76 4.51,-9 c 0.13,-0.27 0.46,-0.38 0.73,-0.24 z"/><path d="m -62.4,-18.75 8.25,-3.5 -1.63,-3.26 z" style="opacity:0.47"/></g></g></svg>