<svg xmlns="http://www.w3.org/2000/svg" viewBox="0 0 256 256"><path d="m 124.8 254.6 c -26.3 -2.05 -56.4 -14.66 -76.91 -32.2 -24.95 -21.31 -42.2 -53.99 -45.4 -86.2 -3.64 -42.55 23.77 -88.3 52.97 -110 14.62 -10.57 33.7 -18.98 51.3 -22.66 c 45.86 -9.58 92.1 8.56 122.2 47.96 18 23.62 26.68 47.4 27.49 75.6 0.95 33.77 -14.53 69.98 -40.3 94.4 -29.1 22.99 -58.4 35.46 -91.1 33.1" style="fill:#dbe4ed"/><rect width="137.6" height="138.6" x="61" y="60.5" rx="19.46" ry="16.35" style="fill:#8bbae7"/><path d="m 104 204.4 c -0.21 -7.1 1.19 -14.41 0.98 -21.48 -7.73 0 -15.46 0 -23.2 0 l -0.32 10.65 c -0.31 10.55 1 10.65 -2.81 10.65 -6.54 0 -11.56 -1.18 -16.26 -7.91 -2.67 -3.82 -3.6 -12.76 -2.6 -14.36 0.32 -0.51 5.27 0.42 11 0.42 h 10.43 c 0 -7.62 0 -15.24 0 -22.86 -7.18 -0.21 -10.86 0.12 -22.1 0.45 0 -7.65 0.54 -17.2 0.54 -24.83 7.18 -0.21 14.36 0.39 21.54 0.18 0 -7.59 0 -15.19 0 -22.78 -7.18 -0.21 -14.36 -0.15 -21.54 -0.36 0 -7.28 -0.27 -16.18 -0.27 -23.46 7.18 -0.21 14.63 0.93 21.81 0.72 0.78 -4.92 -0.63 -22.88 1.33 -22.63 1.38 -1.37 16.1 -0.8 21.5 -0.92 1.53 -0.03 1.48 3.97 1.48 12.87 v 10.86 c 4.97 -0.22 9.94 -0.43 14.91 -0.65 0.87 -4.66 -1.07 -19.2 1.97 -22.2 0.86 -0.7 11.58 -0.81 30.1 -0.31 26.5 0.71 31.57 -0.29 35.84 1.91 5.81 2.99 7.33 9.36 8.81 15.68 1.59 6.83 1.57 98.5 -0.03 104.3 -1.61 5.84 -4.81 11.1 -9.64 13.78 -6 3.4 -8.79 1.81 -35.53 2.23 -17.1 0.03 -32.1 0.74 -47.93 0.01 z m 16.45 -44.4 l -7.46 -0.32 l -7.46 -0.32 v 11.52 v 11.52 h 7.77 h 7.77 c -0.21 -7.46 -0.42 -14.93 -0.63 -22.39 z m -15.71 -10.38 c -0.4 -15.18 4.41 -13.98 -8.15 -13.83 l -14.8 0.18 l -0.32 10.3 c -0.18 5.66 -0.06 10.96 0.26 11.78 0.45 1.15 3.15 1.42 11.92 1.17 l 11.34 -0.31 z m 15.5 -37.1 c 0 -0.26 -6.14 -0.07 -9.18 -0.07 h -5.52 c 0 4.05 0 8.11 0 12.16 3.59 -3.93 11.51 -7.87 14.7 -12.1 z m -14.62 -23.1 c -7.94 0.21 -15.88 0.41 -23.83 0.62 l -0.32 9.75 c -0.18 5.36 -0.33 11.76 -0.01 12.58 6.25 0.78 13.55 -0.2 23.53 -0.48 0.21 -7.49 0.42 -14.98 0.63 -22.47 z" transform="translate(1.87 -5.61)" style="fill:#5b9dda"/><g style="fill:#364763"><path d="m 122.6 60.4 h 14.94 v 138.4 h -14.94 z"/><path d="m 153.1 136.8 a 20.85 20.85 0 1 1 -41.7 0 20.85 20.85 0 1 1 41.7 0 z" transform="matrix(1.209 0 0 1.209 -30.1 -33.58)"/></g><g style="fill:#fff"><path d="m 137.5 118.5 c 1.62 0 13.1 12.18 13.1 13.89 0 1.77 -11.32 12.42 -13.1 12.42 0.19 -7.96 -0.02 -17.9 -0.06 -26.31 z"/><path d="m 122.9 118.1 c -1.62 0 -13.1 12.18 -13.1 13.89 0 1.77 11.32 12.42 13.1 12.42 -0.19 -7.96 0.02 -17.9 0.06 -26.31 z"/></g></svg>