<svg xmlns="http://www.w3.org/2000/svg" viewBox="0 0 256 256"><g style="fill:#e7ecf0;color:#000"><path d="m 219.3 843.5 c 159.7 228 -255.7 300.5 -214.5 58.3 21.84 -96.3 150.5 -149.6 214.5 -58.3" transform="matrix(-1 0 0 0.996 257.9 -791.9)"/></g><path d="m 55.84 200.7 c -1.08 -0.99 -0.96 -2.57 0.49 -6.86 2.09 -6.15 3.35 -15.93 3.37 -26.2 0.02 -10.24 -0.44 -13.18 -5 -31.78 -1.22 -4.99 -2.22 -9.65 -2.22 -10.36 0 -0.85 2 -3.1 5.74 -6.48 6.21 -5.6 8.74 -9.52 10.89 -16.91 1.61 -5.52 1.58 -19.24 -0.07 -27 -1.12 -5.3 -1.14 -5.95 -0.23 -6.79 1.11 -1.03 30.45 -10.35 32.62 -10.36 1.66 -0.01 2.75 1.11 5.19 5.32 2.65 4.58 9.87 11.47 15.69 14.98 2.73 1.64 5.62 3.41 6.42 3.92 l 1.46 0.93 v 58.4 c 0 44.66 -0.18 58.6 -0.78 59.2 -1.12 1.04 -72.4 1.04 -73.6 0 z m 37.43 -6.42 c 0 -3.25 1.06 -4.82 3.24 -4.82 2.18 0 3.24 1.57 3.24 4.82 v 1.75 h 12.3 h 12.3 v -12.56 v -12.56 h -1.9 c -3.52 0 -5.22 -0.98 -5.22 -2.99 0 -2 1.7 -2.99 5.22 -2.99 h 1.9 v -39.4 v -39.4 l -4.69 -2.85 c -7.31 -4.44 -14.34 -11.3 -18.97 -18.49 -0.63 -0.97 -1.61 -0.77 -12.95 2.7 -6.75 2.06 -12.49 3.94 -12.76 4.16 -0.27 0.22 -0.05 3.08 0.48 6.35 3.17 19.39 -1.58 35.39 -13.48 45.5 l -3.54 3 l 1.54 6.25 c 5.56 22.56 6.45 29.43 5.46 42.3 -0.37 4.83 -1.25 11.34 -1.95 14.46 -0.7 3.12 -1.28 5.88 -1.28 6.13 0 0.25 6.99 0.45 15.53 0.45 h 15.54 v -1.75 z m 0.65 -11.1 c -0.36 -0.86 -0.65 -2.34 -0.65 -3.29 0 -0.94 0.29 -2.42 0.65 -3.29 0.54 -1.32 0.99 -1.54 2.75 -1.38 1.83 0.16 2.18 0.48 2.7 2.43 0.37 1.38 0.37 3.11 0 4.48 -0.52 1.95 -0.87 2.27 -2.7 2.43 -1.77 0.16 -2.21 -0.07 -2.75 -1.38 z m -21.9 -12.89 c -1.21 -0.45 -1.46 -0.93 -1.3 -2.5 0.18 -1.7 0.51 -2 2.63 -2.5 1.49 -0.34 3.37 -0.34 4.86 0 2.12 0.48 2.45 0.8 2.63 2.5 0.17 1.63 -0.07 2.04 -1.5 2.54 -2.08 0.73 -5.31 0.71 -7.33 -0.03 z m 15.54 0 c -1.21 -0.45 -1.46 -0.93 -1.3 -2.5 0.18 -1.7 0.51 -2 2.63 -2.5 1.49 -0.34 3.37 -0.34 4.86 0 2.12 0.48 2.45 0.8 2.63 2.5 0.17 1.63 -0.07 2.04 -1.5 2.54 -2.08 0.73 -5.31 0.71 -7.33 -0.03 z m 15.54 0 c -1.21 -0.45 -1.46 -0.93 -1.3 -2.5 0.18 -1.7 0.51 -2 2.63 -2.5 1.49 -0.34 3.37 -0.34 4.86 0 2.12 0.48 2.45 0.8 2.63 2.5 0.17 1.63 -0.07 2.04 -1.5 2.54 -2.08 0.73 -5.31 0.71 -7.33 -0.03 z m -9.19 -11 c -0.36 -0.86 -0.65 -2.34 -0.65 -3.29 0 -0.94 0.29 -2.42 0.65 -3.29 0.54 -1.32 0.99 -1.54 2.75 -1.38 1.83 0.16 2.18 0.48 2.7 2.43 0.37 1.38 0.37 3.11 0 4.48 -0.52 1.95 -0.87 2.27 -2.7 2.43 -1.77 0.16 -2.21 -0.07 -2.75 -1.38 z m 0 -14.35 c -0.36 -0.86 -0.65 -2.34 -0.65 -3.29 0 -0.94 0.29 -2.42 0.65 -3.29 0.54 -1.32 0.99 -1.54 2.75 -1.38 1.83 0.16 2.18 0.48 2.7 2.43 0.37 1.38 0.37 3.11 0 4.48 -0.52 1.95 -0.87 2.27 -2.7 2.43 -1.77 0.16 -2.21 -0.07 -2.75 -1.38 z m -29.67 -12.89 c -1.21 -0.45 -1.46 -0.93 -1.3 -2.5 0.18 -1.7 0.51 -2 2.63 -2.5 1.49 -0.34 3.37 -0.34 4.86 0 2.12 0.48 2.45 0.8 2.63 2.5 0.17 1.63 -0.07 2.04 -1.5 2.54 -2.08 0.73 -5.31 0.71 -7.33 -0.03 z m 15.54 0 c -1.21 -0.45 -1.46 -0.93 -1.3 -2.5 0.18 -1.7 0.51 -2 2.63 -2.5 1.49 -0.34 3.37 -0.34 4.86 0 2.12 0.48 2.45 0.8 2.63 2.5 0.17 1.63 -0.07 2.04 -1.5 2.54 -2.08 0.73 -5.31 0.71 -7.33 -0.03 z m 15.54 0 c -1.21 -0.45 -1.46 -0.93 -1.3 -2.5 0.18 -1.7 0.51 -2 2.63 -2.5 1.49 -0.34 3.37 -0.34 4.86 0 2.12 0.48 2.45 0.8 2.63 2.5 0.17 1.63 -0.07 2.04 -1.5 2.54 -2.08 0.73 -5.31 0.71 -7.33 -0.03 z m 15.54 0 c -1.21 -0.45 -1.46 -0.93 -1.3 -2.5 0.18 -1.7 0.51 -2 2.63 -2.5 1.49 -0.34 3.37 -0.34 4.86 0 2.12 0.48 2.45 0.8 2.63 2.5 0.17 1.63 -0.07 2.04 -1.5 2.54 -2.08 0.73 -5.31 0.71 -7.33 -0.03 z m -16.96 -11 c -0.36 -0.86 -0.65 -2.34 -0.65 -3.29 0 -0.94 0.29 -2.42 0.65 -3.29 0.54 -1.32 0.99 -1.54 2.75 -1.38 1.83 0.16 2.18 0.48 2.7 2.43 0.37 1.38 0.37 3.11 0 4.48 -0.52 1.95 -0.87 2.27 -2.7 2.43 -1.77 0.16 -2.21 -0.07 -2.75 -1.38 z m 0 -14.35 c -0.36 -0.86 -0.65 -2.34 -0.65 -3.29 0 -0.94 0.29 -2.42 0.65 -3.29 0.54 -1.32 0.99 -1.54 2.75 -1.38 1.83 0.16 2.18 0.48 2.7 2.43 0.37 1.38 0.37 3.11 0 4.48 -0.52 1.95 -0.87 2.27 -2.7 2.43 -1.77 0.16 -2.21 -0.07 -2.75 -1.38 z m 0 -14.35 c -0.36 -0.86 -0.65 -2.34 -0.65 -3.29 0 -0.94 0.29 -2.42 0.65 -3.29 0.54 -1.32 0.99 -1.54 2.75 -1.38 1.83 0.16 2.18 0.48 2.7 2.43 0.37 1.38 0.37 3.11 0 4.48 -0.52 1.95 -0.87 2.27 -2.7 2.43 -1.77 0.16 -2.21 -0.07 -2.75 -1.38 z m 0 -14.35 c -0.36 -0.86 -0.65 -2.34 -0.65 -3.29 0 -0.94 0.29 -2.42 0.65 -3.29 0.54 -1.32 0.99 -1.54 2.75 -1.38 1.83 0.16 2.18 0.48 2.7 2.43 0.37 1.38 0.37 3.11 0 4.48 -0.52 1.95 -0.87 2.27 -2.7 2.43 -1.77 0.16 -2.21 -0.07 -2.75 -1.38 z m 47.4 120.4 c -1.11 -1.02 -1.11 -31 0 -32 1.12 -1.03 64.7 -1.03 65.79 0 1.11 1.02 1.11 31 0 32 -1.12 1.03 -64.7 1.03 -65.79 0 z m 29.66 -6.42 c 0 -3.25 1.06 -4.82 3.24 -4.82 2.18 0 3.24 1.57 3.24 4.82 v 1.75 h 12.3 h 12.3 v -4.19 v -4.19 h -3.2 c -4.8 0 -6.52 -0.79 -6.52 -2.99 0 -2.2 1.72 -2.99 6.52 -2.99 h 3.2 v -4.19 v -4.19 h -12.21 h -12.21 l -0.6 1.94 c -0.53 1.71 -0.87 1.94 -2.82 1.94 -1.95 0 -2.29 -0.24 -2.82 -1.94 l -0.6 -1.94 h -12.21 h -12.21 v 4.19 v 4.19 h 3.2 c 4.8 0 6.52 0.79 6.52 2.99 0 2.2 -1.72 2.99 -6.52 2.99 h -3.2 v 4.19 v 4.19 h 12.3 h 12.3 v -1.75 z m -8.3 -7.25 c -1.21 -0.45 -1.46 -0.93 -1.3 -2.5 0.18 -1.7 0.51 -2 2.63 -2.5 1.49 -0.34 3.37 -0.34 4.86 0 2.12 0.48 2.45 0.8 2.63 2.5 0.17 1.63 -0.07 2.04 -1.5 2.54 -2.08 0.73 -5.31 0.71 -7.33 -0.03 z m 15.54 0 c -1.21 -0.45 -1.46 -0.93 -1.3 -2.5 0.18 -1.7 0.51 -2 2.63 -2.5 1.49 -0.34 3.37 -0.34 4.86 0 2.12 0.48 2.45 0.8 2.63 2.5 0.17 1.63 -0.07 2.04 -1.5 2.54 -2.08 0.73 -5.31 0.71 -7.33 -0.03 z m -32.1 -32.4 c -1.12 -1.69 -11.14 -69.1 -10.56 -71.1 0.23 -0.79 2.08 -2.54 4.14 -3.91 2.05 -1.37 6.49 -4.81 9.86 -7.65 3.78 -3.18 7.76 -5.9 10.35 -7.1 4 -1.82 4.59 -1.91 11.69 -1.91 7.1 0 7.68 0.1 11.69 1.91 2.59 1.18 6.57 3.9 10.35 7.1 3.37 2.84 7.81 6.28 9.86 7.65 2.06 1.37 3.91 3.13 4.14 3.91 0.58 1.98 -9.44 69.4 -10.56 71.1 l -0.89 1.35 h -24.58 h -24.58 l -0.89 -1.35 z m 46.5 -5.98 c 0.2 -1.07 2.4 -15.66 4.9 -32.43 l 4.54 -30.49 l -2.41 -1.79 c -1.32 -0.99 -4.7 -3.68 -7.51 -5.98 -10.42 -8.55 -13.15 -9.86 -20.56 -9.86 -7.41 0 -10.14 1.31 -20.56 9.86 -2.8 2.3 -6.18 4.99 -7.51 5.98 l -2.41 1.79 l 4.55 30.49 c 2.5 16.77 4.71 31.37 4.91 32.43 l 0.36 1.94 h 20.66 h 20.66 l 0.36 -1.94 z m -23.61 -3.74 c -0.36 -0.86 -0.65 -2.34 -0.65 -3.29 0 -0.94 0.29 -2.42 0.65 -3.29 0.54 -1.32 0.99 -1.54 2.75 -1.38 1.83 0.16 2.18 0.48 2.7 2.43 0.37 1.38 0.37 3.11 0 4.48 -0.52 1.95 -0.87 2.27 -2.7 2.43 -1.77 0.16 -2.21 -0.07 -2.75 -1.38 z m 0 -14.35 c -0.36 -0.86 -0.65 -2.34 -0.65 -3.29 0 -0.94 0.29 -2.42 0.65 -3.29 0.54 -1.32 0.99 -1.54 2.75 -1.38 1.83 0.16 2.18 0.48 2.7 2.43 0.37 1.38 0.37 3.11 0 4.48 -0.52 1.95 -0.87 2.27 -2.7 2.43 -1.77 0.16 -2.21 -0.07 -2.75 -1.38 z m 0 -14.35 c -0.36 -0.86 -0.65 -2.34 -0.65 -3.29 0 -0.94 0.29 -2.42 0.65 -3.29 0.54 -1.32 0.99 -1.54 2.75 -1.38 1.83 0.16 2.18 0.48 2.7 2.43 0.37 1.38 0.37 3.11 0 4.48 -0.52 1.95 -0.87 2.27 -2.7 2.43 -1.77 0.16 -2.21 -0.07 -2.75 -1.38 z m 0 -14.35 c -0.36 -0.86 -0.65 -2.34 -0.65 -3.29 0 -0.94 0.29 -2.42 0.65 -3.29 0.54 -1.32 0.99 -1.54 2.75 -1.38 1.83 0.16 2.18 0.48 2.7 2.43 0.37 1.38 0.37 3.11 0 4.48 -0.52 1.95 -0.87 2.27 -2.7 2.43 -1.77 0.16 -2.21 -0.07 -2.75 -1.38 z m -21.86 -12.87 c -1.07 -0.4 -1.46 -1.03 -1.46 -2.37 0 -2.24 2.44 -3.38 5.5 -2.57 1.57 0.41 1.98 0.88 2.15 2.43 0.17 1.61 -0.07 2.02 -1.5 2.52 -2 0.71 -2.75 0.7 -4.69 -0.02 z m 12.91 -0.01 c -1.21 -0.45 -1.46 -0.93 -1.3 -2.5 0.18 -1.7 0.51 -2 2.63 -2.5 1.49 -0.34 3.37 -0.34 4.86 0 2.12 0.48 2.45 0.8 2.63 2.5 0.17 1.63 -0.07 2.04 -1.5 2.54 -2.08 0.73 -5.31 0.71 -7.33 -0.03 z m 15.54 0 c -1.21 -0.45 -1.46 -0.93 -1.3 -2.5 0.18 -1.7 0.51 -2 2.63 -2.5 1.49 -0.34 3.37 -0.34 4.86 0 2.12 0.48 2.45 0.8 2.63 2.5 0.17 1.63 -0.07 2.04 -1.5 2.54 -2.08 0.73 -5.31 0.71 -7.33 -0.03 z m 15.58 0.01 c -1.07 -0.4 -1.46 -1.03 -1.46 -2.37 0 -2.24 2.44 -3.38 5.5 -2.57 1.57 0.41 1.98 0.88 2.15 2.43 0.17 1.61 -0.07 2.02 -1.5 2.52 -2 0.71 -2.75 0.7 -4.69 -0.02 z m -22.2 -8.65 c -0.36 -0.86 -0.65 -2.34 -0.65 -3.29 0 -0.94 0.29 -2.42 0.65 -3.29 0.54 -1.32 0.99 -1.54 2.75 -1.38 1.83 0.16 2.18 0.48 2.7 2.43 0.37 1.38 0.37 3.11 0 4.48 -0.52 1.95 -0.87 2.27 -2.7 2.43 -1.77 0.16 -2.21 -0.07 -2.75 -1.38 z" transform="matrix(0.972 0 0 1.015 1.46 -0.88)"/></svg>