<svg xmlns="http://www.w3.org/2000/svg" viewBox="0 0 256 256"><path d="m 130.4 254.6 c -26.4 -2.05 -57.3 -14.66 -78.8 -32.2 c -26.2 -21.31 -45.4 -53.99 -50.5 -86.2 c -6.14 -42.55 18.58 -88.3 46.5 -110 c 14 -10.57 32.58 -18.98 49.99 -22.66 c 45.3 -9.58 92.6 8.56 125 47.96 c 19.42 23.62 29.47 47.4 31.93 75.6 c 2.94 33.77 -10.42 69.98 -34.8 94.4 c -27.74 22.99 -56.3 35.46 -89.2 33.1" style="fill:#ff8c00"/><g style="fill:#fff"><path d="m -3.4 172.7 c -28.39 -3.48 -50.1 -13.56 -69.3 -32.2 -29.1 -28.3 -40.4 -67.94 -30.72 -107.4 c 15.33 -62.4 79.6 -99.2 141.8 -81.1 28.31 8.2 53.82 28.91 67.2 54.6 9.37 17.92 13.28 33.63 13.27 53.3 -0.01 31.3 -11.62 58.83 -34.1 80.6 -16.67 16.21 -35.55 26.2 -57.5 30.34 -8.44 1.6 -24.86 2.61 -30.73 1.89 z m 6.74 -43.63 c 0.54 -0.69 1.29 -2.6 1.66 -4.25 0.37 -1.65 1.36 -5.41 2.2 -8.35 l 1.52 -5.35 l 8.82 0.7 c 17.51 1.39 26.86 -2.93 33.3 -15.4 3.28 -6.34 3.75 -8.11 3.75 -14.22 0 -7.88 -1.18 -10.79 -6.36 -15.78 l -3.53 -3.39 l 4.93 -4.43 c 5.13 -4.61 7.97 -10.93 7.96 -17.71 -0.02 -9.49 -6.12 -17.54 -17.6 -23.2 -5.12 -2.53 -7.31 -4.13 -6.94 -5.09 1 -2.59 3.55 -14.38 3.55 -16.38 0 -2.41 -5.3 -4.89 -10.45 -4.89 -3 0 -3.6 0.39 -4.14 2.75 -0.34 1.51 -1.4 5.45 -2.35 8.75 -1.67 5.81 -1.83 6 -4.97 5.84 -1.78 -0.09 -3.45 -0.37 -3.71 -0.62 -0.26 -0.26 0.5 -4.35 1.69 -9.1 1.68 -6.68 1.9 -8.94 0.99 -10 -1.74 -2.1 -10.79 -4.07 -12.43 -2.71 -0.72 0.6 -2.15 4.74 -3.17 9.21 -1.02 4.47 -2.46 8.35 -3.2 8.64 -0.74 0.28 -6.17 -0.64 -12.1 -2.04 -6.84 -1.63 -11.1 -2.21 -11.69 -1.6 -1.23 1.22 -3.5 8.72 -3.52 11.64 -0.01 1.84 0.94 2.5 5.48 3.82 5.56 1.62 8.5 3.62 8.5 5.79 0 0.65 -1.52 6.81 -3.38 13.68 -1.86 6.87 -5 19.55 -7.1 28.2 -2.02 8.62 -4.27 16.2 -4.98 16.76 -0.94 0.78 -2.75 0.75 -6.47 -0.11 -6.2 -1.43 -6.73 -1.03 -10.1 7.48 -1.55 3.92 -1.96 6.14 -1.28 6.82 0.56 0.56 5.78 2.24 11.6 3.74 5.83 1.5 10.85 2.98 11.17 3.3 0.32 0.32 -0.34 4 -1.46 8.19 -1.12 4.19 -2.04 8.54 -2.04 9.68 0 4.06 11.96 6.84 13.84 3.22 0.5 -0.96 1.74 -5 2.76 -9 1.68 -6.61 2.07 -7.25 4.37 -7.23 4.96 0.03 5.23 0.91 2.99 9.91 -1.14 4.56 -1.92 9 -1.75 9.9 0.56 2.89 11.67 5.29 13.53 2.92 z m -3.74 -39.55 c -8.79 -2 -8.59 -1.28 -4.3 -15.2 2.13 -6.92 3.32 -9.39 4.36 -9.1 0.79 0.22 4.77 1.26 8.85 2.31 13.2 3.39 18.1 7 18.1 13.49 0 2.18 -0.95 4.33 -2.88 6.49 -2.66 2.98 -3.41 3.25 -9.75 3.47 -3.82 0.14 -10.19 -0.52 -14.37 -1.47 z m 9.69 -40.72 c -3.2 -0.7 -6 -1.47 -6.26 -1.72 -0.52 -0.52 3.12 -19.63 3.89 -20.4 0.28 -0.28 3.37 0.27 6.85 1.22 15 4.11 19.55 9.27 15.34 17.42 -2.47 4.78 -8.76 5.88 -19.81 3.47 z" transform="matrix(0.716 0 0 0.713 123.4 86.3)" style="fill:#fff"/></g></svg>