<svg xmlns="http://www.w3.org/2000/svg" viewBox="0 0 256 256"><path d="m 218.5 48 c 159.7 227 -255.7 299.3 -214.5 58 21.84 -95.9 150.5 -149 214.5 -58" style="fill:#f00"/><g transform="matrix(0.953 0 0 0.966 5.63 0.03)"><path d="m 107.8 233 c -0.74 -1.02 -2.3 -4.49 -3.45 -7.72 -1.39 -8.69 -3.49 -6.24 -9.33 -7.79 -8.14 -2.16 -9.32 -3.09 -10 -7.87 -0.78 -5.21 -1.78 -5.73 -10.83 -5.73 -5.14 0 -8.1 -0.28 -8.61 -0.83 -0.45 -0.45 -0.83 -2.59 -0.83 -4.75 0 -5.95 1.36 -17.9 2.21 -19.5 0.42 -0.78 9.93 -10.73 21.1 -22.1 19.2 -19.49 24.96 -25.98 23.95 -26.98 -0.73 -0.73 -5.15 3 -17.69 14.98 -18.92 18 -22.88 21 -38.3 28.74 -13.1 6.55 -22.71 10.61 -24.57 10.34 -1.97 -0.28 -2.98 -2.47 -5 -10.91 -2.12 -8.74 4.66 -10.45 -6.76 -15.43 -2.61 -1.14 -3.19 -4.52 -3.19 -5.06 0 -0.54 1.71 -3.31 3.79 -6.17 4.25 -5.82 4.61 -7.74 2.76 -14.66 -1.78 -6.63 -1.48 -8.11 2.43 -12.1 2.94 -2.59 3.64 -3 2.41 -6.48 -0.58 -1.64 -1.05 -4.81 -1.05 -7.1 0 -4.8 0.87 -5.86 8.51 -10.4 2.6 -1.54 8.15 -1.47 8.47 -2.26 0.32 -0.79 -2.24 -5.62 -1.81 -8.32 0.97 -6.15 2 -7.21 11.6 -11.67 6.98 -3.25 7.2 -3.42 10.33 -8.18 3.7 -5.62 4.42 -5.87 12.1 -4.25 l 4.79 1 l 4.36 -4.08 c 5.08 -4.75 6.1 -4.94 12.63 -2.28 3.81 1.55 3.42 5.69 8.56 1.31 6.11 -5.2 8.09 -0.92 8.73 1.36 1.99 7.1 3.52 17.67 5 34.76 1.7 19.2 2.49 24.37 3.83 25.2 2.54 1.57 8.28 -5.13 10.25 -11.96 0.73 -2.52 2.13 -8.34 3.11 -12.92 3.08 -14.42 6.81 -22.2 16.2 -33.85 5 -6.22 5.57 -6.46 10.26 -4.33 l 2.95 1.34 c 3.12 -1.62 6.36 -5 9.91 -5.32 2.75 1.43 3.93 4.24 5.56 6.84 1.6 2.56 2.07 2.83 7.58 4.23 5.19 1.32 13.43 4.35 14.35 5.27 0.38 0.38 1.2 2.79 1.83 5.35 1.08 4.41 1.26 4.69 3.5 5.24 8.45 2.06 8.1 1.67 8.63 8.35 0.7 8.12 0.77 8.32 3.47 9.29 4.94 1.78 11.4 5.09 11.76 6 0.2 0.51 -0.76 3.6 -2.12 6.87 -3.42 6.19 -1.76 8.96 2 13.37 2.45 2.84 4.45 5.56 4.46 6 0 0.48 -1.23 3.34 -2.75 6.36 -3.16 5 -2.74 7.43 0.25 11.47 4.93 6.61 4.91 6.51 2.52 11.23 -1.74 3.44 -2.08 4.94 -2.08 9 0 4.91 -0.01 4.93 -3.27 8.5 -10.3 1.84 -3.73 4.9 -6.26 12.15 -3.15 9.1 -5.29 13 -7 13 -0.58 0 -3.74 -1.81 -7 -4 -4.33 -2.93 -7.27 -4.36 -10.66 -5.21 -5.47 -1.36 -5.21 -1.17 -25.1 -18.41 -16.99 -14.74 -18.72 -16.54 -27.1 -28.2 -7.84 -10.93 -15.48 -20.59 -16.29 -20.59 -1.13 0 -0.66 2.74 1.05 6.1 0.92 1.82 4.55 7 8.1 11.52 8.89 11.44 12.77 17.88 23.52 39.1 1.47 5.78 11.8 15.46 7.82 20.32 -3.65 4.47 -4.63 6.56 -5.86 12.58 -1.74 8.49 -1.92 8.63 -9.19 7.55 -8.53 -1.27 -11.41 -0.64 -15.94 3.5 l -3.72 3.4 h -6.48 l -8.46 -4.36 l -4.88 8.15 c -2.21 3.7 -7.48 3.78 -8.24 3.77 -0.76 -0.01 -1.98 -0.85 -2.73 -1.87 z" style="fill:#008080"/><g style="fill:#fff"><path d="m 154.6 212.6 c -0.56 -0.39 -2.63 -2.17 -4.6 -3.94 -3.59 -3.22 -5.5 -4.28 -5.84 -3.23 -0.26 0.79 -2.91 3.7 -3.82 4.2 -0.59 0.33 -0.94 0.28 -1.39 -0.18 -0.85 -0.87 -0.39 -2.57 1.62 -5.94 1.52 -2.56 1.7 -3.14 1.84 -6 0.09 -1.77 0.04 -3.85 -0.1 -4.63 -0.27 -1.46 -0.49 -1.6 -3.16 -2.06 -2.11 -0.36 -2.58 -1.41 -1.53 -3.41 1.58 -3 0.76 -9.9 -1.56 -13.1 -0.69 -0.94 -2.47 -3.84 -3.95 -6.43 -2.84 -4.95 -7.8 -10.79 -9.17 -10.79 -0.45 0 -0.96 0.57 -1.34 1.51 -1 2.45 -3.48 15.5 -3.24 17 0.12 0.76 1.03 2.81 2.03 4.55 2.16 3.79 2.65 5.83 1.65 6.85 -0.91 0.93 -1.41 0.71 -2.58 -1.12 -0.99 -1.54 -1.78 -1.91 -2.29 -1.06 -0.15 0.25 -0.44 2.91 -0.64 5.89 -0.2 2.99 -0.55 6.14 -0.78 7 -0.43 1.63 -1.52 2.4 -2.88 2.04 -0.65 -0.18 -0.72 -0.79 -0.72 -6.52 0 -3.48 -0.11 -6.62 -0.25 -6.98 -0.79 -2.09 -3.59 0.32 -8.24 7.1 -1.44 2.09 -8.68 10.85 -8.79 10.68 -2.5 -4 5.51 -11.73 6.14 -13.27 0.33 -0.8 2.98 -3.97 5.9 -7.1 2.92 -3.08 5.55 -6.19 5.85 -6.92 0.3 -0.73 0.67 -2.53 0.82 -4 0.31 -3.06 1.42 -8.42 2.58 -12.51 0.65 -2.28 0.69 -2.85 0.26 -3 -0.91 -0.36 -3.85 0.66 -5.54 1.91 -1.94 1.43 -17.1 14.22 -18.6 13.97 -4.41 -0.71 12.9 -15.75 18.84 -19.2 4.07 -2.33 6.4 -4.46 7.29 -6.63 0.83 -2.04 2.04 -8.34 2.84 -14.85 0.97 -7.89 0.94 -10.66 3.29 -10.66 1.11 0 1.77 3.6 1.77 3.81 0 0.68 -2 17.1 -2.46 20.1 -0.31 2.04 -0.31 3.23 -0.01 4 0.23 0.62 2.12 3 4.18 5.34 8 8.99 12 14.6 12 16.8 0 1.92 2.14 6.39 3.69 7.73 1.41 1.21 2.05 1.14 4.49 -0.51 1.86 -1.26 2.4 -0.93 3.34 1.97 0.71 2.17 1.57 2.95 4.16 3.75 0.92 0.28 2.05 0.87 2.5 1.3 1.09 1.04 1.06 2.66 -0.06 3.27 -1.37 0.75 -5.41 0.13 -8.36 -1.28 -4.56 -2.18 -5.11 -1.74 -4.46 3.56 0.5 4.09 1.52 6 5.81 11.12 1.92 2.27 4 5.07 4.69 6.2 1.86 3.22 1.14 5.33 -1.25 3.65 z"/><path d="m 39 174.7 c -1.26 -3.29 2.51 -13.29 6.77 -17.94 3.82 -4.17 17.81 -15.73 20.53 -16.97 0.93 -0.43 1.47 -1.73 1.11 -2.68 -0.13 -0.34 -0.69 -0.55 -1.44 -0.55 -1.5 0 -16.96 3 -19.91 3.86 -2.45 0.72 -5.66 3 -8.34 5.93 -3.07 3.35 -2.93 5.2 0.47 6.27 2.22 0.7 3.67 1.96 3.47 3 -0.19 1 -2.26 1.07 -4.38 0.15 -1.54 -0.72 -3.24 -0.69 -4.8 -1.14 -0.91 -0.49 -1.82 -2.25 -1.82 -3.53 0 -1.83 2.46 -5.53 5.8 -8.73 6.45 -6.17 6.68 -6.43 6.95 -7.9 0.59 -3.29 -3.06 -8.37 4.36 -0.85 3.31 2.65 13.14 0.54 18.29 -0.5 5.18 -0.88 10.96 -2.23 14.77 -4.12 8.18 -4.1 20.1 -8.32 26 -9.21 1.92 -0.29 3.65 -0.62 3.85 -0.75 0.53 -0.33 -0.45 -1.99 -2.1 -3.55 -2.23 -2.11 -5.21 -3.97 -7.36 -4.59 -2.08 -0.6 -18.77 -0.55 -19.1 -2.42 -0.59 -2.96 13.1 -3.6 19.82 -2.04 0.51 0.12 2.35 1.39 4.1 2.8 3.35 2.7 7.44 5.19 8.52 5.19 0.53 0 0.59 -0.21 0.38 -1.2 -1.03 -4.76 -6.22 -19.5 -8.48 -24.1 -2.12 -4.29 -5.15 -7 -6.98 -6.34 -1.66 2 -1.68 7.24 -4 7.25 -2.7 0 -3.16 -2.43 -1.29 -6.94 1.38 -3.34 3.69 -5.97 5.25 -5.97 2.35 0 5.79 2.9 8.55 7.21 3.95 6.18 9.75 20.65 9.75 24.34 0 2.18 0.88 6.59 1.8 9 0.42 1.1 0.7 2.07 0.63 2.14 -6.86 8.4 -6.88 1.36 -9.28 2.86 -4.65 1.87 -9.95 2.49 -13.76 3.87 -2.16 0.79 -4.58 1.61 -5.4 1.81 -3 0.76 -14.5 8 -23.42 14.75 -10.3 7.79 -21.2 17.65 -23 20.84 -0.48 0.83 -0.99 2.26 -1.14 3.18 -0.5 3.12 -3.21 8.12 -4.39 8.12 -0.27 0 -0.6 -0.26 -0.72 -0.58 z"/><path d="m 217.1 186.3 c -3.4 -4.65 -3.74 -5.7 -4.93 -9.96 0.45 -4.37 0.22 -6 -0.9 -6.44 -0.81 -0.31 -2.7 1.2 -3.53 2.83 -1.48 2.91 -0.64 6.11 2.59 9.89 2.3 2.33 0.34 1.82 -1.52 1.57 -3 -0.42 -3.19 -0.56 -5.14 -4.2 -1.7 -3.16 -1.53 -5.47 0.6 -8.26 1.9 -2.49 4.21 -7.39 4.2 -8.92 -0.02 -3.59 -2.43 -6.12 -10.17 -10.73 -6.7 -3.99 -10.21 -6.46 -14.9 -10.5 -5.84 -5.48 -13.83 -8.65 -20.29 -11.22 -4.63 -1.83 -15.38 -4.28 -22.27 -5.08 -5.31 -3.73 -10.86 -3.51 -9.45 -6.3 1.02 -2 7.22 -1.51 7.77 -4.71 0.42 -2.47 0.54 -2.67 3 -5.21 3.11 -3.21 4.36 -4.92 7.76 -10.66 3.55 -5.98 5.73 -11.1 6.59 -15.29 0.41 -2 1.32 -4.83 2.17 -6.66 1.33 -2.89 1.5 -3.61 1.87 -7.95 0.45 -5.24 1.01 -7.17 2.11 -7.17 1.41 0 2.11 1.36 2 3.91 -0.12 3.05 0.33 3.07 3.38 0.14 2 -2.73 6.24 -5.33 6.45 -1.38 l -2.81 3.31 c -6.07 7.15 -10.98 14.25 -10.31 14.91 0.51 0.51 3.99 -1.65 8.54 -5.28 2.43 -1.94 5.73 -4.33 7.33 -5.31 2.46 -1.51 3 -1.72 3.6 -1.35 0.38 0.24 0.7 0.53 0.7 0.64 0 0.25 -8.19 7.94 -11.44 10.73 -1.32 1.14 -3.81 3.06 -5.54 4.28 -4.33 3.06 -5.72 4.7 -8.64 10.24 -2.23 4.22 -4.13 7.28 -8.65 13.92 -1.33 1.95 -1.25 2.49 0.37 2.49 1.57 0 6.67 -2.78 14.1 -7.69 9.12 -8.93 12.95 -17.2 21.69 -25.1 2.39 -2.13 5.45 -1.58 10.82 -2.98 4.32 -1.13 6.09 -0.89 6.1 0.82 0 0.45 0.32 1.34 0.71 1.98 1.38 2.08 -1.31 1.6 -2.53 1.6 -4 0 -12.88 1.69 -14.95 2.84 -5.06 4.09 -7.59 9.98 -11.14 15.2 -0.88 1.28 -1.61 2.42 -1.61 2.54 0 0.24 6.47 -0.12 11.79 -0.65 4.27 -0.43 6.12 -1.26 8.14 -3.67 3.12 -3.72 8.84 -7.18 12.62 -7.63 8.34 -3.7 9.97 -2 5.79 4.69 h -3.8 c -3.48 0 -3.99 0.09 -5.98 1.09 -2.83 1.42 -6.23 4.79 -5.89 5.85 0.46 1.46 10.54 4.86 14.41 4.86 1.01 0 3.33 -0.26 5.14 -0.58 3.49 -0.61 6.3 -0.46 7.46 0.4 0.94 0.69 0.42 1.07 -2.67 1.98 -4.12 1.21 -5.33 3.24 -3.15 5.29 1.34 1.27 1.77 2.78 1 3.54 -0.72 0.72 -1.57 0.35 -4.3 -1.91 -3.74 -3.09 -14.99 -7.72 -21.74 -8.94 -4.93 -0.89 -14.93 -0.5 -20.1 0.79 -2.7 0.67 -6.34 2.37 -12.17 5.67 -2.43 1.38 -6.34 3.36 -8.67 4.41 -5.46 2.45 -5.45 2.44 -4.94 3.26 0.92 1.48 2.75 2.11 6.56 2.26 4.58 0.18 6.86 -0.31 9.94 -2.17 2.58 -1.56 3.58 -1.77 4.28 -0.93 0.55 0.67 0.15 1.48 -1.63 3.26 -2.21 2.21 -1.62 3.46 2 4.2 1.15 0.23 4.99 1.72 8.52 3.31 5.23 2.34 6.77 2.88 8.27 2.88 2.12 0 9.89 -2.17 14.57 -4.09 4.29 -1.76 5.67 -1.85 10.33 -0.71 4.47 1.1 8.1 1.21 15.98 0.51 5.44 -0.48 6.24 -0.34 6.45 1.11 0.12 0.83 -0.71 1.52 -4.91 4 -4.29 2.55 -3.77 2.47 -7.62 1.25 -5.46 -1.72 -7.5 -2.04 -13.22 -2.03 -5.83 0 -10.1 0.78 -13.92 2.54 -1.79 0.82 -1.94 0.98 -1.94 2.16 0 1.08 0.34 1.59 2.31 3.43 3.32 3.1 7.09 5.69 9.66 6.63 1.23 0.45 3.31 1.33 4.63 1.95 2.97 1.41 3.73 1.42 7.3 0.05 5.28 -2.03 8.47 -2.24 9.46 -0.62 0.56 0.92 -0.71 1.88 -3.67 2.8 -2.92 0.9 -5.32 2.11 -5.37 2.7 -0.13 1.55 0.38 3.38 2.62 9.31 1.5 3.97 2.68 7.75 2.93 9.41 3.44 11.85 0.9 22.67 -0.22 12.85 z"/><path d="m 38.73 108.9 c -0.39 -1.31 0.12 -2.41 1.57 -3.36 0.73 -0.48 2.47 -1.84 3.86 -3 3.87 -3.28 4.28 -3.43 10.27 -3.77 4.54 -0.25 5.43 -0.42 5.88 -1.08 0.68 -0.98 0.32 -3 -0.75 -4.23 -3.47 -2.05 -6.19 -2.35 -9.88 -2.8 -3.85 -2.43 -2.77 -5.32 1.47 -4.63 2.29 0.07 6.63 2.74 7.83 0.89 0.63 -3.21 -0.67 -6.97 1.14 -9.1 0 -0.2 3.15 2.17 3.7 2.39 0.76 0.31 1.79 0.14 4.28 -0.69 4.99 -1.67 6.27 -2.46 6.27 -3.91 0 -1.52 -1.02 -4.63 -1.83 -5.58 -2.92 -6.53 2.34 -3.77 3.18 -2.33 1.15 1.99 2.64 6 2.64 7.18 0 1.73 1.35 2.92 6 5.33 3.55 1.83 4.54 2.53 4.64 3.27 0.09 0.69 -0.17 1.09 -0.94 1.46 -0.9 0.43 -1.45 0.36 -3.6 -0.45 -4.66 -1.77 -13.85 -1.93 -16.84 -0.29 -2.75 1.51 -5.25 4.59 -6 7.4 -0.31 1.15 -0.16 1.51 1.42 3.48 1.81 2.24 3.28 6 2.83 7.24 -0.44 1.21 -2.32 1.29 -7.69 0.32 -6.25 -1.13 -6.39 -1.09 -11.4 3.04 -5 4.15 -7.49 5.14 -8.1 3.24 z"/><path d="m 42.85 125 c -0.8 -0.49 -5.68 -1.64 -3.56 -2.94 1.11 -0.68 9.39 -2.27 11.85 -2.26 3.5 0.01 3.59 1.01 0.34 3.48 -2.3 1.74 -7.99 2.11 -8.63 1.72 z"/><path d="m 57.4 119.7 c -0.82 -0.9 1.13 -1.87 1.92 -3 0.71 -1 2.72 -1.18 3.84 -0.33 0.93 0.71 0.88 1.15 -0.33 2.59 -1.17 1.38 -4.45 1.82 -5.42 0.74 z"/><path d="m 66.93 116.7 c -1.41 -1.41 2.19 -4.89 5.07 -4.89 0.85 0 4.43 -3 4.43 0.19 0 1.31 -5 3.73 -7.34 4.51 -1.56 0.52 -1.8 0.54 -2.15 0.19 z"/><path d="m 164.4 143.9 c 0.29 -1.06 -0.08 -6.87 2.11 -4.98 1.15 0.99 3.08 7.21 6.59 12.39 2.28 3.36 0.08 4.34 -3.82 1.58 -2.75 -1.95 -5.11 -8.15 -4.88 -8.99 z"/></g></g></svg>