<svg xmlns="http://www.w3.org/2000/svg" viewBox="0 0 256 256"><path d="m 29.89 173.4 c -12.22 -15.41 -24.51 -44.53 -26.2 -61.95 -2.42 -25.1 6 -54.1 20.86 -71.4 19.8 -23.2 60 -38.68 100.3 -38.43 c 28.91 0.14 67.7 8.74 87.5 19.39 16.88 9.1 28.99 22.4 35.7 39.3 9.1 22.91 9.68 45.3 1.73 67.6 -12.89 47.61 -42.61 79.8 -69.3 105.4 c -67.7 57.4 -113.4 -11.98 -150.7 -59.9" style="fill:#0027b7"/><g style="fill:#fff"><path d="m 65.4 90.2 c -5.16 -8.35 -6.09 -10.51 -4.85 -11.32 1.41 -0.93 132.5 -0.63 133.4 0.3 0.67 0.68 -3.54 9.48 -6.13 12.81 l -1.53 1.97 h -59.3 h -59.3 l -2.32 -3.76 z"/><path d="m 116.6 179.7 c -23.45 -40.3 -39.63 -69.1 -39.1 -69.6 c 0.78 -0.79 99.9 -1.07 100.6 -0.28 0.7 0.71 -10.27 20.88 -33.2 61 -13.74 24.1 -15.95 27.68 -16.86 27.66 -0.29 -0.01 -5.44 -8.46 -11.44 -18.78 z m 20.46 -27.86 c 10.37 -17.97 13.69 -24.37 13.1 -25.28 -0.32 -0.52 -8.24 -0.81 -22.34 -0.81 -19.66 0 -21.85 0.13 -21.85 1.29 0 1.83 15.3 29.33 20.55 36.93 1.97 2.85 1.67 3.19 10.51 -12.1 z"/></g></svg>