<svg xmlns="http://www.w3.org/2000/svg" viewBox="0 0 256 256"><path d="M 219.3,48 C 379,275 -36.4,347.3 4.8,106 26.64,10.1 155.3,-43 219.3,48" style="fill:#f5f5f5"/><path d="m 28.5 243.6 c -0.78 -1.27 5.3 -20.38 6.79 -21.36 1.81 -1.18 5.65 -0.88 6.17 0.48 0.26 0.69 -0.99 5.75 -2.78 11.25 -3.15 9.69 -3.36 10 -6.41 10.31 -1.74 0.17 -3.43 -0.14 -3.77 -0.68 z m 128.9 -0.22 c -0.37 -0.6 2.41 -5.66 6.19 -11.25 l 6.87 -10.16 l 7.21 -0.15 c 4.41 -0.09 7.56 0.3 8.1 1 0.76 0.99 3.19 15.76 3.19 19.4 0 2 -6.72 1.57 -7.89 -0.5 -0.91 -1.62 -1.38 -3.32 -3.09 0.5 -1.05 2.35 -3.06 2.25 -11 2.25 -5.36 0 -9.17 -0.43 -9.58 -1.09 z m 22.87 -7.28 c 0.52 -1.36 -0.07 -8.83 -0.91 -11.49 -0.34 -1.07 -0.74 -1.11 -1.87 -0.17 -2.46 2.04 -6.73 10.1 -6.15 11.59 0.73 1.9 8.2 1.95 8.93 0.06 z m -176.7 5.13 c -0.52 -2.52 -2.58 -23.28 -2.57 -26 0 -1.27 0.81 -1.75 2.94 -1.75 1.62 0 3.17 0.37 3.45 0.82 0.28 0.45 1 4.84 1.62 9.75 0.61 4.91 1.5 9.32 1.98 9.81 0.5 0.5 2.29 -1.17 4.19 -3.91 1.83 -2.63 5.22 -7.39 7.53 -10.58 l 4.21 -5.79 h 8.54 c 1.05 0 -0.61 1.66 2.35 -0.15 2.17 -1.33 5.98 0.16 6.19 1.9 0.42 3.6 -7.26 6 -7.72 2.11 -0.4 -3.39 -1.03 -1.88 -1.63 -1.68 -0.6 0.2 -5.3 6.52 -10.44 14 l -9.35 13.68 h -5.41 c -4.81 0 -5.46 -0.25 -5.88 -2.25 z m 38.1 1.5 c -0.24 -0.41 -0.06 -1.76 0.41 -3 0.77 -2.05 1.51 -2.25 8.13 -2.27 7.92 -0.02 10.41 -0.91 9.46 -3.38 -0.4 -1.04 -1.83 -1.6 -4.1 -1.6 -6.48 0 -11.3 -3.99 -10.42 -8.62 0.51 -2.71 5 -2.97 7.3 -0.43 1.33 1.47 3.09 2.05 6.24 2.05 8.89 0 12.5 8.65 6.22 14.92 -3 3 -3.26 3.08 -12.94 3.08 -5.43 0 -10.1 -0.34 -10.31 -0.75 z m 27.41 -2 c 0.05 -1.51 1.28 -6.35 2.75 -10.75 2.44 -7.32 2.91 -8 5.54 -8.33 1.58 -0.18 3.28 0.08 3.78 0.58 0.83 0.83 -3 17.6 -4.63 20.2 -0.35 0.57 -2.19 1.04 -4.08 1.04 -3.11 0 -3.43 -0.27 -3.36 -2.75 z m 11.94 1 c 0.04 -3.3 7.9 -27.59 9.19 -28.4 1.8 -1.14 18.1 -1.05 21.2 0.12 5.18 1.97 4.34 11.23 -1.88 20.66 -4.7 7.12 -9.59 9.37 -20.34 9.37 -7.14 0 -8.18 -0.22 -8.16 -1.75 z m 18 -7.65 c 3.79 -2.57 7.57 -9.49 6.59 -12 -0.74 -1.93 -9.14 -2.17 -10.34 -0.3 -1.01 1.58 -4.28 11.83 -4.3 13.5 -0.02 2.04 4.26 1.43 8.1 -1.15 z m 7.93 8.6 c 0 -1.22 12.86 -19.54 14.27 -20.32 1.32 -0.73 14.36 -0.59 15.1 0.17 0.55 0.56 2.62 15.18 2.62 18.53 0 2 -0.5 2.43 -2.88 2.43 -1.86 0 -3.4 -0.78 -4.35 -2.22 l -1.47 -2.22 l -1.19 2.22 c -1.11 2.07 -1.87 2.22 -11.65 2.22 -5.76 0 -10.46 -0.36 -10.46 -0.81 z m 23.64 -6.71 c 0.83 -2.16 -0.6 -12.48 -1.73 -12.48 -1.53 0 -8.12 11 -7.53 12.57 0.77 2 8.48 1.93 9.25 -0.09 z m 14.18 7 c -0.74 -0.74 4 -18.52 5.41 -20.25 1.13 -1.4 6.37 -1.71 7.16 -0.42 0.28 0.46 -0.71 5.29 -2.22 10.75 l -2.73 9.92 l -3.51 0.3 c -1.93 0.16 -3.78 0.03 -4.11 -0.3 z m -97.3 -24.41 c -0.31 -0.51 0.62 -1.86 2.08 -3 2.25 -1.77 4 -2.08 12 -2.08 8.35 0 9.37 0.19 9.37 1.8 0 3.51 -2.08 4.2 -12.64 4.2 -5.63 0 -10.5 -0.41 -10.81 -0.92 z m 28.1 0.09 c -1.91 -3.08 3.07 -7.28 6.89 -5.81 1.8 0.69 1.97 3.77 0.3 5.44 -1.36 1.36 -6.42 1.63 -7.19 0.37 z m 48.4 -0.37 c 0.08 -3.21 2.73 -4.93 7.12 -4.61 3.88 0.28 4.34 0.58 4.34 2.81 0 2.34 -0.36 2.52 -5.75 2.8 -4.22 0.22 -5.74 -0.05 -5.72 -1 z m 18.64 0.45 c -0.24 -0.41 -0.06 -1.76 0.41 -3 0.81 -2.15 1.34 -2.25 12.38 -2.25 10.44 0 11.53 0.17 11.53 1.8 0 3.54 -2.06 4.2 -13.1 4.2 -5.91 0 -10.94 -0.34 -11.18 -0.75 z m 31.3 -0.32 c 0 -3.26 2.18 -4.93 6.42 -4.93 3.62 0 4.44 0.36 4.92 2.17 0.31 1.2 0.34 2.55 0.06 3 -0.77 1.24 -11.39 1.02 -11.39 -0.24 z" transform="matrix(1.076 0 0 1.375 27.66 -178.7)"/></svg>