<svg xmlns="http://www.w3.org/2000/svg" viewBox="0 0 256 256"><path d="m 58.5 31.3 c 98.8 -88.5 242 28.2 183.1 143.6 -59.6 116.6 -256.7 105 -239.9 -33 6.36 -50.2 33.99 -85.4 56.76 -110.5" style="fill:#4192d9"/><g style="fill:#fff"><path d="m -26.61 384.8 c -13.87 -2.6 -27.88 -7.91 -39.47 -14.95 -2.06 -1.35 -50.1 31.2 -60.1 24.1 -6.17 -8.14 20.8 -61.3 19.54 -64.7 -8.85 -19.6 -16.48 -38.1 -16.48 -61.1 0 -14.88 1.8 -26.29 6.07 -38.5 14.1 -40.3 49.5 -70.7 90.7 -77.9 10.9 -1.9 31.58 -1.9 42.48 0 47.5 8.28 87 47.8 95.3 95.3 1.9 10.9 1.9 31.58 0 42.48 -8.28 47.5 -47.8 87 -95.3 95.3 -10.37 1.81 -32.99 1.78 -42.74 -0.05 z m 32.3 -64.84 c 1.31 -1.31 1.81 -4.14 2.2 -12.31 0.41 -8.68 0.82 -10.81 2.25 -11.71 3 -1.89 9.94 2.83 22.1 15.1 l 11.31 11.34 c 6.45 1.2 17.34 1.44 25.2 -0.93 2.49 -1.57 1.61 -6.71 -2.1 -12.28 -1.94 -2.91 -7.52 -9.71 -12.42 -15.1 -13.51 -14.93 -13.16 -12.27 -3.55 -27.1 15.1 -23.2 18.76 -32.1 14.21 -34.57 -2.4 -1.28 -20.1 -1.37 -23.36 -0.11 -1.73 0.66 -3.75 3.62 -6.98 10.25 -7.41 15.18 -17.1 29.1 -22.2 31.79 -2.03 1.08 -2.79 1.1 -4 0.06 -1.28 -1.07 -1.53 -4.5 -1.53 -21.1 0 -18.77 -0.11 -19.9 -1.98 -20.9 -1.22 -0.65 -7.67 -0.95 -16.64 -0.79 -17.71 0.33 -18.53 0.84 -14.1 8.68 2.72 4.84 2.75 5.1 2.75 23 0 16.1 -0.19 18.21 -1.69 18.78 -4.37 1.68 -18.41 -19.88 -26.2 -40.3 -3.79 -9.89 -4.69 -10.4 -18.1 -10.4 -8.64 0 -10.22 0.26 -11.97 2 -1.46 1.46 -1.85 2.77 -1.41 4.75 4.07 18.43 20.1 48.1 34.2 63.4 9.1 9.82 20.91 16.72 34.69 20.2 1.1 0.28 5.51 0.38 9.8 0.23 5.73 -0.21 8.25 -0.73 9.5 -1.98 z" transform="matrix(0.654 0 0 0.647 132.8 -46.68)" style="fill:#fff"/></g></svg>