<svg xmlns="http://www.w3.org/2000/svg" viewBox="0 0 256 256"><path d="m 230.2 194.7 c 80.4 -96.7 -55.3 -209.4 -177.1 -191.3 -90.8 12.8 -54.3 268.1 77.6 251 c 39.2 -5.1 73.3 -28.1 99.5 -59.67" style="fill:#bbc4ce"/><path d="m 163.4 192.8 c -7.6 -7.27 -21.44 -15.46 -28.33 -16.77 -11.4 -3.26 -23.6 -3.92 -34.83 -3.87 -7.17 0.07 -7.86 -3.71 -8.65 -5.12 -0.73 -1.3 -3.41 1.77 -8.3 1.67 -6.35 -0.13 -6.11 -2.24 -6.1 -5.7 0.01 -5.76 -2.41 -1.09 -6.14 -0.49 -4.85 0.78 -6.66 -0.61 -6.66 -5.13 0 -2.81 -0.32 -3.35 -1.75 -2.93 -5.55 1.65 -6.96 1.67 -8.22 0.15 -1.02 -1.22 -1.06 -2.16 -0.21 -4 1.92 -4.22 10.72 -4.91 10.99 -0.85 0.28 4.2 0.86 2.14 7 2 6.54 -0.15 7.31 -0.09 7 2.5 -0.65 5.47 1.35 5.33 6.23 2.11 4.88 -3.22 5.15 6.56 6.13 7.37 8.43 -8.89 8.76 -22.76 13.83 -33.3 3.73 -7.52 2.48 -4.55 -2.48 -3.18 -5.48 1.07 -10.1 1.6 -9.77 -3.51 l 0.24 -3.88 l -4.46 0.61 c -5.85 0.8 -7.51 0.06 -7.51 -3.36 0 -7 11.89 -10.83 14.8 -4.73 1.25 2.62 -1.62 4.95 6.54 2.14 3.92 -1.35 6.61 -0.65 6.57 1 -0.19 7.17 3.09 2.06 3.09 -0.04 1.22 -5.94 14.1 -29.57 14.23 -34.72 0 -2.08 -2.52 4.21 -8 4.85 -6.97 0.81 -8.78 -0.51 -7.66 -5.59 0.63 -2.86 0.51 -3.1 -1.16 -2.35 -1.02 0.46 -3.66 0.87 -5.86 0.9 -4.2 0.33 -4 0.21 -3.88 -3.76 0.14 -4.54 1.03 -5.6 5.51 -6.56 5 -1.08 6.88 -0.33 7.55 3 0.59 2.96 0.61 2.97 5.97 2.3 3.76 -0.47 5.84 -0.29 6.91 0.61 1.14 0.95 6.11 1.23 19.24 1.1 10.52 -0.9 20.9 0.72 30.5 3.38 8.3 2.3 22.48 10.73 30.3 18 7.38 6.89 7.33 6.66 3.64 15.96 -3.76 9.46 -9.26 23 -10.17 25 -7.1 17.49 -15.19 35.85 -21.45 52 -2.48 6.47 -4.75 9.49 -7.09 9.45 -0.55 -0.01 -3.93 -2.82 -7.5 -6.24 z m -117.1 -49.3 c -1.89 -2.28 0.08 -4.92 3.68 -4.92 4.06 0 6.31 6.27 2.49 7.73 -3.3 1.26 -4.61 -0.94 -6.17 -2.81 z m -8.64 -6.49 c -1.93 -0.78 -2.43 -6 -0.21 -6.7 2.34 -0.74 5.92 1.35 5.92 3.22 2.35 6.78 -2.08 5.98 -5.71 3.48 z m 34.1 -25.29 c -0.85 -2.23 1.33 -5.53 4.11 -6.23 4 -1 5.64 0.17 5.29 3.84 -0.29 3.06 -0.57 3.28 -4.57 3.56 -3.05 0.22 -4.42 -0.11 -4.83 -1.17 z m -7.28 -7.73 c -1.02 -1.65 -0.18 -6.75 1.91 -7.42 2.5 -0.79 3.35 0.22 3.96 2.54 1.59 6.07 -4.48 7.13 -5.87 4.88 z m -8.71 -9.63 c -2.32 -1.69 -3.71 -4.46 -2.46 -6.18 3.7 -5.08 10.15 2.96 9.86 3.73 -2.55 6.64 -4.21 4.77 -7.4 2.45 z m 33.58 -23.77 c -2.13 -2.56 1.24 -6.5 5.55 -6.5 4.5 0 5.48 2.27 2.4 5.55 -2.6 2.76 -6.1 3.18 -7.95 0.95 z m -7.76 -8.75 c -1.75 -1.75 0.36 -6.76 3.29 -6.76 1.71 0 3.42 3.1 3.42 4.35 0 3.48 -4.43 4.69 -6.71 2.41 z m -8.2 -7.54 c -1.71 -1.05 -4.44 -6.86 0.43 -7.49 1.39 -0.18 5.79 4.36 5.57 5.49 -0.36 1.84 -2.7 4 -6 2 z" transform="matrix(1.014 0 0 1.01 -1.16 3.43)" style="fill:#222"/><path d="m 113.2 163.1 c -1.49 -0.3 -2.71 -1.36 -2.71 -2.36 0 -3.27 9.73 -26 11.82 -27.63 2.16 -1.67 10.97 -1.17 19.94 1.14 4.26 1.1 4.6 1.47 3.98 4.53 -3.16 9.1 -5.78 17.96 -10.1 26.77 -7.24 -0.36 -14.81 -3.09 -22.94 -2.45 z" style="fill:#02a5ff"/><path d="m 125.5 123.5 c 3.96 -12.75 7.97 -20.58 12.62 -31.64 5.73 0.53 24.97 1.31 25.1 5.67 -3.36 9.99 -7.49 17.39 -12.44 27.37 -13.86 -3.88 -15.37 -1.42 -25.29 -1.39 z" style="fill:#f30"/><path d="m 182.6 140.2 c -0.68 -0.62 -6.28 -4 -10.1 -5.98 -6.1 -3.12 -8.52 -4.66 -8.38 -7.68 0.2 -4.15 11.41 -25.1 13.63 -26.43 3.79 -2.23 19.74 7.62 18.99 11.73 -0.23 1.23 -2.79 7.93 -5.69 14.89 -5.1 12.1 -5.5 16.2 -8.45 13.47 z" style="fill:#66cd33"/><path d="m 148.5 166.5 c -0.74 -2.89 7.9 -24.3 10.74 -26.6 1.85 -1.51 8.11 0.76 15 5.45 3.92 2.65 5.7 5.73 5.2 8.77 -0.61 3.67 -9.4 25.68 -11 27.2 -5.19 -6 -18.44 -9.84 -19.97 -14.85 z" style="fill:#ffd700"/></svg>