<svg xmlns="http://www.w3.org/2000/svg" viewBox="0 0 256 256"><path d="m 5.54 156.9 c 15.63 102.2 154.5 129.7 215.7 56.6 53.96 -54.2 40.57 -158.1 -25.7 -193.7 -76 -47.61 -186.8 11.25 -192.8 106.1 -0.62 10.38 0.26 20.88 2.73 30.98 z" style="fill:#d3d3d3;color:#000"/><path d="m 223.5 128.8 a 96.3 95.2 0 1 1 -192.6 0 96.3 95.2 0 1 1 192.6 0 z" transform="matrix(0.937 0 0 0.957 9.51 6.62)" style="fill:#ecebef"/><g transform="matrix(0.761 0 0 0.76 -18 7)"><g transform="matrix(1.104 0 0 1.106 47.2 21.1)"><path d="m 66.2 182.3 c -2.88 -2.37 -6.67 -6.58 -8.42 -9.34 -2.95 -4.68 -3.14 -5.36 -2.61 -9.59 0.57 -4.52 0.55 -4.57 -2.75 -6.99 -1.82 -1.34 -5.26 -4.05 -7.63 -6 -2.37 -1.96 -6.28 -0.73 -7.7 -1.19 -3.85 -0.97 -3.97 -0.34 -7.51 -10.41 -0.86 0 -2.25 -1.05 -3.09 -2.34 -2.1 -3.21 -2 -21.71 0.14 -32.1 2.19 -10.56 11.23 -29.4 12.51 -31 6.68 -8.53 12.87 -20.8 16.5 -20.31 2.18 0.3 3.44 8.93 7.38 5.98 5.51 -4.13 10.13 10.1 10.85 11.19 0.63 1.48 -0.24 5.93 -4.41 7.92 -4.33 2.07 -12.1 1.66 -16.69 1.24 -8 -0.73 -8.99 8.68 -5.4 5.49 2.36 -1.63 -0.02 3.23 3.77 6.83 1.83 4.52 5.18 13.78 5.27 7.84 0 -2.38 7.83 -7.89 4.54 -14.47 -0.85 -1.71 7.81 -0.06 13.6 7.09 4.37 5.4 7.82 15.88 6.57 16.54 -12.2 6.44 -25.57 1.64 -25.57 8.69 0 3.28 -0.36 5.96 -0.79 5.96 -1.35 0 -4.38 5.68 -4.38 8.21 0 2.32 2.76 7.98 1.15 6.52 -2.09 -1.89 -10.6 -6.8 -12.81 -4.36 -1.82 2 -1.15 6.79 1.26 8.97 1.47 1.33 1.83 1.35 3.65 0.18 4.48 -1.15 11.92 -6.62 11.92 -1.42 -0.24 3.05 -2.18 2.16 -3.94 0.76 -0.7 -1.13 -1.8 -0.92 -3.36 0.64 -1.28 1.28 -1.28 1.52 -0.01 2.92 0.76 0.84 1.68 2.64 2.04 3.99 0.36 1.35 1.66 3 2.88 3.71 4.39 1.91 7.49 -2.07 11.71 -0.88 10.66 -2.35 3.07 -1.03 11.31 3.64 1.42 0.77 4.25 4.54 7 6.57 2.75 2.03 7.52 4.83 10.6 6.23 6.57 2.98 11.41 4.14 8.93 8.99 -1.34 3.73 -2.86 8.52 -5.21 11.1 -1.89 2.06 -7.71 4.15 -8 5.64 -0.4 2 -1.54 1.68 -2.37 2.75 -5 6.46 -2 28.1 -3.08 26.6 l -6.84 -2.27 l -7.19 -25.1 c -3 -8.98 -1.41 -12.36 -3.82 -14.36 z m -11.78 -68.7 c -0.24 -0.59 -0.43 -0.11 -0.43 1.08 0.28 2.65 0.64 0.17 0.43 -1.08 z m -3.16 -1.94 c -1.35 -8.34 -6.87 -5.78 -7.27 -4.62 0.42 1.87 3.64 7.63 7.27 4.62 z" style="fill:#248fcc"/><g style="fill:#f00"><path d="m 55.76 143.3 c -0.15 -0.4 -0.2 -8 -0.11 -16.91 0.2 -18.64 -0.11 -17.59 5 -17.59 3.83 0 4.31 0.53 9.98 10.97 4.65 8.56 7 12.35 7.71 12.35 0.82 0 1 -1.61 1.33 -12.15 l 0.34 -10.66 h 2.46 h 2.46 l -0.21 16 c -0.15 11.25 -0.39 16.32 -0.81 17.1 -0.8 1.45 -3.8 2.04 -5.52 1.07 -1.47 -0.82 -4.53 -5.67 -10.45 -16.56 -2.32 -4.27 -4.5 -8 -4.86 -8.29 -1.61 -1.33 -1.84 0.39 -1.77 13 l 0.07 12.37 c -1.92 0.09 -4.23 0.05 -5.66 -0.73 z"/><path d="m 94.3 143.5 v -10.82 c 0 -5.95 0.15 -13.53 0.32 -16.85 l 0.32 -6 h 9.12 c 7.82 0 9.16 0.11 9.41 0.78 0.57 1.48 0.82 2.75 -4.74 3 -6.59 0.3 -8.49 -0.27 -8.49 4.65 0 4.73 0.36 5.06 6.26 5.68 4.16 0.44 4.91 -0.75 5.07 1.45 0.1 1.41 1.04 2.38 -2.97 2.39 -3.49 0.01 -7.2 -0.08 -7.97 1.09 -0.2 0.3 -0.37 2.5 -0.37 4.89 -0.01 5.35 0.66 6.32 4.33 6.33 1.3 0 3.88 0.15 5.75 0.32 3.82 0.36 4.71 1.21 2.84 2.73 0.36 1.76 -6.46 0.8 -18.88 0.38 z"/><path d="m 129.8 143.5 c -0.45 -0.34 -1.19 -1.62 -1.63 -2.85 -1.98 -5.54 -6.9 -22.79 -8.37 -29.39 l -0.3 -1.36 c 2.07 0 4.15 0.01 6.22 0.02 l 2.42 10 c 2.73 11.33 4 15.25 5 15.25 0.75 0 0.01 -2.04 3.19 -14.35 2.69 -10.41 4.38 -10.75 6.45 -11 2.28 -0.33 3.93 0.08 4.5 1.15 0.27 0.51 1.05 3.07 1.74 5.71 1.72 3.97 4.36 16.25 5.73 17.27 2.78 -5.45 4.26 -12.57 5.15 -18.82 0.17 -1.36 0.76 -3.5 1.32 -4.76 0.78 -3.4 4.22 -2 6.4 -0.91 0.89 1.44 -7.49 32.2 -9.25 33.92 -0.52 0.52 -1.72 0.76 -3.71 0.76 -2.74 0 -3 -0.1 -3.85 -1.48 -0.49 -0.81 -2.09 -5.73 -3.54 -10.93 -1.45 -5.2 -2.87 -9.59 -3.14 -9.76 -1.14 -0.7 -1.78 0.97 -5.84 15.1 -0.88 3.09 -1.92 5.94 -2.31 6.32 -0.88 0.88 -5.1 0.93 -6.23 0.08 z"/></g></g><path d="m 283 234.9 c -0.81 -0.5 -3.31 -1.38 -5.56 -1.96 -3.76 -0.96 -4.37 -1.61 -7.49 -7.9 -4.44 -8.95 -6 -17.28 -4 -21.24 0.8 -1.58 1.45 -3.59 1.45 -4.46 0 -2.79 -5.78 -13.45 -7.93 -14.63 -18.62 -7.3 -30.78 -21.1 -22.67 -35.96 0.44 -0.33 2.21 -2.73 3.93 -5.33 l 3.12 -4.72 l -2.06 -3.86 c -3.07 -5.75 -1.95 -8.97 3.65 -10.51 3.57 -0.98 4.38 -1.63 4.38 -3.5 0 -1.27 -0.73 -1.84 -0.88 -2.3 -1.46 -4.57 3.56 -5.57 3 -7.19 -0.59 -1.73 -7.23 0.6 -9.14 -0.4 -1.79 -0.93 -3.41 -1.85 -3.61 -2.03 -0.2 -0.18 0.57 -1.96 1.71 -3.94 1.14 -1.99 2.07 -4.64 2.07 -5.9 0 -2.21 4.42 -5.44 5.67 -4.15 0.29 0.3 0.25 5 1.91 8.44 3.43 7.16 1.51 7.35 8.42 3.15 4.64 -2.83 8.9 -4.48 6.18 -5 -2.75 -0.54 -8.5 -7.8 -8.5 -10.74 0 -1.57 5.8 -9.9 10.5 -15.1 l 3.18 -3.5 l 3.66 3.24 c 6.19 5.48 16.69 18.2 20.84 25.2 8.23 13.96 13.73 31.1 15.67 48.77 0.74 6.74 -23.64 8.31 -7.87 18.87 4.06 2.72 0.26 39.44 -9.18 54.83 -6.3 10.27 -8.63 12.91 -10.43 11.79 z m -3.78 -92.4 c 2.08 -0.64 3.78 -1.49 3.78 -1.89 0 -0.4 -1.54 -1.94 -3.43 -3.41 -3.2 -2.51 -3.66 -2.6 -6.93 -1.39 -5.63 2.09 -13.54 2 -8.66 3.86 2.33 0.88 11.21 4.07 15.24 2.83 z m 16.38 18.49 c 4.63 -7.36 -9.6 -20.76 -10.48 -19 -0.26 1.42 0.17 1.76 1.93 1.51 1.26 -0.18 11.55 24.1 8.54 17.5 z m -32.3 -23.35 c 1.15 -1.62 1.13 -4.77 -0.34 -7.79 -1.97 -4.05 -3.77 -4.13 -5.34 -0.23 -0.74 1.83 -1.93 3 -3.05 3 -1 0 -6.85 3.96 -6.85 4.78 0 1.92 9.91 8.18 15.58 0.23 z m 7.75 -5.77 c 0.53 -1.65 -2.53 -2.82 -3.84 -1.48 -0.56 0.58 -0.71 1.57 -0.33 2.2 0.86 1.43 3.63 0.96 4.17 -0.72 z m 4.11 -31.3 c 1.34 -3.34 1.05 -7.29 -0.58 -7.84 -1.25 -0.42 -3.29 4.79 -3.29 8.4 0 3.31 2.45 2.96 3.87 -0.56 z" style="fill:#248fcc"/><path d="m 172.7 143.2 c -3.06 -1.67 -1.36 -3 -0.37 -5.37 -0.29 -0.76 -0.07 -0.82 2.11 -0.5 3.74 0.96 6.49 2.14 10.31 1.29 1.79 -0.68 2.97 -2.69 2.56 -4.35 -3.33 -6.32 -10.35 -6.4 -12.83 -13.2 -1.4 -4.4 -0.78 -9.7 3.68 -11.92 3.16 -1.57 6.47 -1.72 11.64 -0.51 l 3.5 0.82 c -0.18 1.36 -0.16 4.13 -0.34 5.49 l -4.98 -0.4 c -6.1 -0.49 -7.87 -0.28 -7.87 2.48 0 1.89 -0.05 1.85 7.45 6.62 4.27 2.72 4.98 5.57 5.71 8.2 1.89 6.79 -1.29 12.15 -8.76 13.2 -5.66 0.98 -3.25 0.79 -11.79 -1.86 z" transform="matrix(1.104 0 0 1.106 47.2 21.1)" style="fill:#f00"/><g style="fill:#248fcc"><path d="m 215.1 78.5 c -5 -1.7 -5.76 -6.9 -0.97 -6.9 2.99 0 7.38 3.48 7.38 5.84 0 1.35 -0.3 1.6 -2.06 1.71 -1.13 0.07 -3.09 -0.22 -4.35 -0.65 z"/><path d="m 140.4 92.1 c -8.28 -1.52 -5.38 -14.1 -8.1 -15.37 -7.23 -3.4 -6.63 -5.5 3.11 -10.8 3.48 -1.89 7.36 -8.56 7.18 -11.99 -0.07 -1.38 15.71 -4.35 19.1 -2.11 12.62 -8.36 22.25 1.66 10.59 18.63 -4.26 2.17 -1.04 8.66 -8.69 10.56 -9.28 2.31 -19.2 11.82 -23.3 11.1 z"/><path d="m 166.1 278.5 c -5.41 -2.26 15.8 -4.85 14.41 -5.83 -1.84 -5.79 5.96 1.29 12.99 -0.88 8.2 2.81 27.57 1.02 29 2.49 13.16 -0.15 10.84 1.99 -5.59 5.23 -4.14 -0.17 -25.67 2.17 -32.2 1.2 -7.9 -1.18 -16 -1.09 -18.67 -2.21 z"/></g></g></svg>