<svg xmlns="http://www.w3.org/2000/svg" viewBox="0 0 256 256"><path d="m 48.98 49.4 c -208.9 277.9 364.9 274 158.2 1.13 -37.4 -47.89 -115 -71.5 -158.2 -1.13" style="fill:#d7c5b8;color:#000"/><path d="m 109.4 223 c -7.19 -2.29 -12.86 -5.56 -18.2 -10.36 8.1 0.44 16.58 -1.2 22.34 -2.83 l 9.89 -2.83 l 8.59 2.56 c 5.69 1.69 10.98 2.68 15.69 2.93 3.91 0.2 7.11 0.65 7.11 0.99 0 2 -11.34 7.85 -19.2 9.89 -5.95 1.55 -20.45 1.36 -26.29 -0.36 z m -15.79 -18.58 c -8.97 -5.68 -16.1 -14.87 -19.1 -24.51 -1.69 -5.46 -1.74 -5.38 3 -4.93 3.97 0.39 4.95 1 15.36 9.88 6.11 5.21 13.8 11.14 17.1 13.18 3.28 2.04 5.96 4.12 5.96 4.62 0 1.01 -8.37 4.06 -13.33 4.84 -2.87 0.46 -3.91 0.1 -8.94 -3.09 z m 46.78 2.27 c -4.71 -1.09 -10.3 -3.2 -10.3 -3.89 0 -0.19 3.2 -2.36 7.11 -4.83 3.91 -2.47 11.8 -8.57 17.54 -13.55 9.59 -8.32 10.76 -9.1 14.44 -9.45 4.81 -0.47 4.97 0.12 2.19 7.88 -3.16 8.81 -13.51 20.1 -21.8 23.79 -5.24 1.49 -5.46 0.92 -9.18 0.06 z m -25.69 -11.37 c -7.77 -5 -23.1 -18.37 -23.1 -20.1 0 -0.63 2.59 -1.57 6.65 -2.42 8.26 -1.67 15.68 -4.29 23.78 -6.47 9 1.22 16.79 4.44 26.2 6.43 3.66 0.76 6.87 1.68 7.13 2.04 0.66 0.92 -9.22 10.63 -15.71 15.43 -6.64 4.91 -14.82 9.77 -16.46 9.77 -0.67 0 -4.48 -2.12 -8.47 -4.7 z m -32.86 -28.2 c -7.25 -6.79 -11.43 -14.17 -13.1 -23.2 -0.67 -3.16 -0.61 -6.09 0.1 -9.17 l 6.15 1.25 c 5.82 1.18 6.57 1.61 13.94 7.95 6.86 5.9 20.44 14.73 24.93 16.22 4 1.32 -0.64 3.6 -14 6.9 -9.94 2.63 -13.67 4 -17.99 0 z m 73.5 2.03 c -6.63 -1.31 -21.27 -5.47 -22.96 -6.54 -1.55 -0.98 -1.49 -1.13 1.02 -2.44 9.87 -5.15 16.56 -9.56 23.77 -15.64 7.31 -6.17 8.86 -7.1 13.55 -8.16 6.92 -1.56 8 -1.14 7.98 3.07 -0.04 8.9 -5.26 19.8 -12.81 26.71 -4.45 4.08 -4.71 4.15 -10.56 3 z m -39.48 -13.15 c -5.23 -2.36 -25.44 -16.29 -24.77 -19 0.28 -0.39 3.3 -1.13 6.71 -1.63 9.15 -1.65 16.85 -3.95 25.78 -6.5 8.1 2.36 16.26 4.75 24.49 6.24 4.25 0.75 7.73 1.7 7.73 2.1 0 1.44 -6.51 7.52 -12.14 11.34 -7.51 5.1 -17.97 10.46 -20.35 10.42 -1.04 -0.02 -4.39 -1.35 -7.44 -2.96 z m -33.51 -26.29 c -3.91 -3.6 -5.76 -9.88 -5.61 -19.1 0.17 -10.22 0.32 -10.41 6.63 -8.18 3.66 1.29 6.83 3.38 11.63 7.65 3.63 3.23 9.7 7.64 13.5 9.81 3.79 2.17 6.91 4.38 6.93 4.9 0.03 1.12 -12.21 4.48 -22.42 6.16 -3.88 0.64 -7.27 1.16 -7.53 1.16 -0.26 0 -1.67 -1.1 -3.13 -2.45 z m 69.3 0.96 c -8.61 -1.61 -19.48 -4.64 -20.2 -5.63 6.36 -5.25 14.26 -9.51 20.79 -15 6.29 -5.37 8.82 -6.99 12.18 -7.8 2.33 -0.56 4.54 -0.76 4.9 -0.45 0.36 0.31 0.63 4.89 0.59 10.17 -0.08 10.23 -1.55 14.93 -5.83 18.62 -2.23 1.92 -2.86 1.93 -12.44 0.13 z m -37.63 -13.1 c -7.13 -4.12 -16.93 -12.1 -16.93 -13.78 0 -0.45 0.93 -0.99 2.06 -1.19 6.83 -1.23 14.97 -3.06 19.41 -4.37 5.06 -1.5 5.17 -1.5 10.39 0.05 6.16 3.46 16.68 0.98 20.4 5.84 0 3.17 -21.43 17.78 -26 17.73 -1.07 -0.01 -5.26 -1.94 -9.31 -4.28 z m -23.44 -20.64 c -2.64 -2.74 -1.84 -17.46 1.12 -20.52 1.4 -1.45 5.68 0.81 10.38 5.48 2.26 2.25 6.17 5.34 8.69 6.85 2.52 1.52 4.6 3.16 4.62 3.65 0.05 1.1 -2.96 2.15 -12.1 4.21 -8.57 1.94 -11.1 2 -12.72 0.32 z m 55.6 0.34 c -7 -1.48 -15.1 -3.93 -15.1 -4.58 0 -0.36 2.06 -1.96 4.57 -3.55 6.14 -3.29 10 -9.66 16.32 -12.56 3.11 -1.64 3 -1.31 4.44 1.62 2.19 4.52 2.7 13.48 0.96 17 -1.27 2.6 -1.8 2.95 -4.47 2.88 -1.66 -0.04 -4.68 -0.43 -6.69 -0.85 z m -39.1 -18.29 c -1.22 -1.92 -0.31 -2.56 8.93 -6.33 l 7.39 -3 l 8.89 3.67 c 7.56 3.12 8.76 3.87 8 5 -2.1 3.3 -14.46 12 -16.94 11.97 -5.57 -2.56 -12.69 -5.95 -16.31 -11.31 z m -6.07 -7.76 c -1.78 -1.53 -1.25 -7 1.11 -11.38 1.2 -2.22 2.63 -4.28 3.17 -4.57 5.32 -0.12 7.14 3.78 9.92 6.6 3.28 3.29 3.33 3.43 1.6 4.57 -2.23 1.47 -12.45 5.73 -13.74 5.73 -0.53 0 -1.46 -0.43 -2.06 -0.95 z m 36.1 -1.49 c -6.32 -2.77 -7.82 -3.72 -7.8 -4.96 0.02 -1.49 9.69 -9.96 11.36 -9.96 2.62 0 6.2 7.8 5.87 12.78 -0.35 5.22 -1.7 5.52 -9.42 2.14 z m -20.65 -17.71 c 0 -2.98 2.51 -7.15 5.22 -8.68 2.22 -1.25 2.41 -1.22 4.98 0.91 3.68 3 5.11 7.33 3.52 10.62 -1.29 2.67 -5.19 7 -6.3 7 -3.47 -1.97 -7.35 -6.18 -7.43 -9.89 z" transform="matrix(0.961 0 0 0.976 9.19 3.19)" style="fill:#9c7654"/></svg>