<svg xmlns="http://www.w3.org/2000/svg" viewBox="0 0 256 256" xmlns:xlink="http://www.w3.org/1999/xlink"><path d="m 237.4 62.88 c -192 -224.5 -376.7 237.2 -79.7 189.7 65.1 -10.4 131.5 -129.1 79.7 -189.7" style="fill:#3d5021"/><g transform="matrix(0.936 0 0 0.925 7.34 5.97)"><path d="m 49.79 209.9 c 9.63 -10.75 58.1 -66.5 58.1 -66.82 0 -0.23 -11.54 -17.73 -25.65 -38.88 c -14.1 -21.2 -25.65 -38.63 -25.65 -38.83 c 0 -0.2 5.42 -0.37 12 -0.37 h 12 l 21.48 30.9 c 11.82 16.99 21.81 30.99 22.2 31.1 0.4 0.12 10.46 -13.78 22.35 -30.89 l 21.62 -31.1 l 12.32 -0.01 l 12.32 -0.01 l -1.41 2 c -3.64 5.21 -49.89 72.6 -51 74.3 l -1.29 1.99 l 27.3 32.45 c 15 17.85 27.95 33.2 28.77 34.1 l 1.49 1.65 h -18.73 h -18.73 l -18.2 -26.38 c -10 -14.51 -18.36 -26.37 -18.59 -26.35 -0.22 0.02 -8.62 11.89 -18.67 26.38 l -18.26 26.35 h -18.68 h -18.68 l 1.48 -1.65 z"/><path d="m 166.1 189.9 c -6.32 -8.37 -10.91 -26.8 -22.8 -21.83 -5.23 2.19 -20.63 12.37 -23.31 9.41 -22.82 0.38 -18.41 1.32 -34.89 -5.33 -7.25 -1.19 -13.56 -9.55 -14.65 -12.66 -0.58 -1.64 -2.42 -4.51 -4.09 -6.37 -1.93 -2.16 -3.46 -7.55 -4.21 -14.84 -1.07 -10.42 -0.83 -11.81 2.63 -15.49 2.22 -2.36 6.71 -4.52 10.8 -5.18 29.46 -3.16 36.3 -16 36.56 -20.2 0 -2.42 -1.16 -6.17 -2.57 -8.33 -4.06 -6.2 -1.65 -9.47 6.98 -9.47 5.47 0 7.42 0.67 7.42 2.53 0 1.39 -1.26 7.66 2.12 7.66 0.82 0 1.79 -6.27 2.94 -7.66 3.07 -3.7 6.3 -3.11 9.49 1.75 l 1.53 6.53 l 3.2 -6.09 c 3.09 -5.88 3.05 -1.79 9.23 0.49 4.56 1.68 7.1 10.24 8.69 11.48 4.62 3.51 11.23 -0.93 15.22 -4.93 3.82 -3.82 5.6 -2.86 9.81 5.32 1.9 3.7 1.9 5 0 8.1 -1.67 2.69 -15.79 6.59 -14.36 12.15 0.31 1.2 16.36 -13.96 16.86 7 0.29 11.99 0.62 13.28 -2.65 15.58 -3.25 2.28 -15.62 1.81 -12.41 3.43 10.13 5.15 14.32 10.17 13.44 14.63 -0.54 2.72 0.66 2.44 -0.6 7.36 -0.98 3.83 -12.14 -4.94 -10.88 3.18 0.56 3.58 14.49 7.9 9.36 9.81 -1.39 0.52 -2.34 3.85 -5.38 5.79 -6 1.53 -11.1 -8.24 -10 -6.23 4.78 8.9 0.62 9.81 -3.44 12.38 z" style="fill:#fdc54e"/><path d="m 69.91 157.1 c -2.17 -2.43 -1.64 -4.26 0.84 -2.89 3.99 3.08 9.96 2.72 13.83 5.22 6.34 3.09 24.29 -0.41 28.2 -5.5 0.07 -1.27 7.27 -7.83 8.1 -7.34 0.41 0.26 0.75 1.32 0.75 2.37 0 1.4 -1.38 3.23 -5.2 6.92 -6.77 8.24 -16.99 8.68 -22.32 8.68 -5.73 1.21 -20.84 -3.83 -24.1 -7.46 z"/><path d="m 147.8 120.9 c 0 6.64 -4.74 12 -10.58 12 -5.84 0 -10.58 -5.38 -10.58 -12 0 -6.64 4.74 -12 10.58 -12 5.84 0 10.58 5.38 10.58 12 z" transform="matrix(1.089 0 -0.174 1 4.95 -2.56)" id="1" style="fill:#fff"/><use transform="matrix(0.699 0 0 0.707 22.51 24.76)" xlink:href="#1"/></g><path d="m 71.6 139 c -1.15 -4.54 1.28 -9.64 5.23 -10.94 6.9 -2.27 10.54 5.51 4.08 8.72 -2.79 1.38 -5.54 2.47 -8.37 3.74 -0.27 0.14 -0.69 -0.55 -0.94 -1.53 z"/><path d="m 137.2 122.6 a 2.56 2.89 0 1 1 -5.13 0 2.56 2.89 0 1 1 5.13 0 z" transform="matrix(1.152 0.424 -0.436 1.156 14.8 -90.1)" id="0"/><use transform="matrix(1.308 -0.842 0.576 0.873 -81.6 123.5)" xlink:href="#0"/></svg>