<svg xmlns="http://www.w3.org/2000/svg" viewBox="0 0 256 256"><g transform="translate(0 -796.4)"><path d="m 13.23 977.7 c 69.93 141.9 277.4 62.83 237.8 -81.1 -37.3 -135.6 -226.9 -131.7 -249 -0.27 -4.61 27.42 -1.65 55.3 11.18 81.3 z" style="fill:#6495ed;color:#000"/><g transform="translate(0 796.4)" style="fill:#fff"><path d="m 121.6 233.7 c -1.19 -4.41 1.26 -8.98 10.1 -18.82 4.99 -5.57 6.19 -7.23 6.1 -8.38 -0.29 -2.47 -2.66 -2.14 -17.35 2.42 -7.46 2.32 -14.62 4.38 -15.93 4.58 -4.85 0.75 -6.59 -2.63 -3.98 -7.76 4.99 -10.9 13.34 -12.74 18.67 -23.8 1.87 -4.33 0.43 -9.69 -3.27 -12.21 -0.98 -0.67 -7.32 -3.85 -14.1 -7.1 c -25.1 -11.97 -37.4 -19.25 -45.92 -27.36 -7.4 -7 -9.24 -10.93 -7.79 -16.6 4.57 -17.82 25.5 -28.58 69.6 -35.8 c 6 -0.98 11.21 -2.03 11.6 -2.34 0.48 -0.39 0.7 -2.48 0.7 -6.81 0 -11.84 2.21 -23.46 5.42 -28.54 5.29 -8.37 16.59 -7.66 20.75 1.3 1.3 2.81 1.47 3.82 1.41 8.77 -0.07 6.42 -1.31 14.1 -3.3 20.4 -1.77 5.62 -1.3 6.97 2.19 6.3 8.41 -10.1 8.44 -20.65 18.43 -28.89 5.75 -4.62 14.1 0.41 16.1 9.66 0.81 3.83 0.08 11 -1.95 19.35 -1.48 6.08 -1.4 7.72 0.62 12.91 4.95 12.34 13 14.91 22.8 14.95 17.34 0.63 22.29 -4.78 39 -4.49 13.89 52.5 -10.1 94.5 -35.8 117.5 -13.5 -0.35 -27.66 -3.39 -38.86 -3.66 -1.4 0 -5.11 1.37 -11.29 4.17 -19.98 9.1 -33.54 14.24 -38.4 14.69 -3.64 0.47 -4.69 -1.33 -5.57 -4.46 z"/><path d="m 63.1 91.5 c -5.14 -5.1 -21.2 -36.2 -20.1 -38.95 c 1.12 -2.92 5.72 1.06 11.8 10.22 9.92 14.95 14.46 26.1 11.73 28.83 -1.14 1.14 -2.16 1.11 -3.38 -0.1 z"/><path d="m 74.83 86.2 c -2.46 -2.65 -5.17 -17.38 -5.58 -30.34 c -0.28 -9.1 -0.25 -9.55 0.84 -10.53 1.11 -1 1.16 -0.99 2.04 0.34 2.16 3.3 6.47 26.36 6.45 34.54 -0.01 6.09 -1.48 8.43 -3.75 5.98 z"/></g></g></svg>