<svg xmlns="http://www.w3.org/2000/svg" viewBox="0 0 256 256"><path d="m 254.6 128.8 c 18.69 170.5 -258.5 168.1 -254.6 -3 -8.54 -159.2 270.3 -173.6 254.6 3" style="fill:#5da19c"/><g style="fill:#157e72"><path d="m -95.3 249.9 l -2.12 -1.96 v -43.2 c 0 -39.8 0.13 -43.4 1.65 -45.2 3.17 -3.73 31.2 -11.24 52.59 -14.1 20.58 -2.76 58.5 -2.75 77.4 0.01 18.28 2.67 42.7 8.52 48.65 11.66 6.15 3.25 5.88 1.09 5.88 46.84 0 36.2 -0.19 41.82 -1.48 43.8 -2.94 4.5 -22.87 10.63 -49.3 15.2 -41.1 -0.76 -87.98 3.25 -133.3 -13 z" transform="matrix(1 0 0 1.011 137.6 -77.4)"/></g><path d="m 107.1 190.4 c -18.1 -1.44 -53.4 -9.2 -62 -13.65 -4.85 -2.49 -5.38 -3.48 -5.38 -10.24 0 -5.46 0.17 -6.28 1.49 -7.22 0.82 -0.58 8.88 -9.43 17.9 -19.67 18.35 -20.82 22.72 -25.2 27.3 -27.61 4.46 -2.33 10.42 -2.24 15.18 0.23 4 2.08 11.28 10.15 39.82 44.2 9.1 10.83 19.1 22.59 22.2 26.1 l 5.67 6.45 l -3.5 0.52 c -3.9 0.58 -53 1.28 -58.6 0.84 z" style="fill:#88bc00"/><path d="m 155.7 171.6 c -16.94 -20.65 -18.54 -22.67 -18.53 -23.46 c 0.01 -0.96 7.26 -10 12.1 -15.2 5.56 -5.87 7.49 -6.85 12.74 -6.46 3.91 0.29 4.37 0.53 8.1 4.2 5 4.97 24.76 27.33 34.1 38.7 l 7.23 8.75 l -1.76 0.94 c -3.82 2.03 -26.62 7.09 -37.73 8.37 l -2.97 0.34 c -4.43 -5.41 -8.87 -10.81 -13.3 -16.22 z" style="fill:#0c6244"/></svg>