<svg xmlns="http://www.w3.org/2000/svg" viewBox="0 0 256 256"><defs><clipPath><path d="m -24 13 c 0 1.11 -0.67 2 -1.5 2 -0.83 0 -1.5 -0.89 -1.5 -2 0 -1.11 0.67 -2 1.5 -2 0.83 0 1.5 0.89 1.5 2 z" transform="matrix(15.333 0 0 11.5 415 -125.5)"/></clipPath></defs><g style="fill:#f5f5f5;color:#000"><path d="m 225.6 1004.7 c 62.3 -95.2 12 -182 -58.5 -202.6 -94.9 -27.68 -223.7 45.1 -138.8 195 c 33.74 59.6 152.9 75.4 197.3 7.54 z" transform="matrix(1 0 -0.049 1 46.1 -794.2)"/></g><rect width="141.4" height="31.85" x="58.3" y="167.1" rx="0.26" ry="0.6" style="fill:#ff8086"/><rect width="31.2" height="61.6" x="42.56" y="90.3" rx="0.22" ry="0.56" style="fill:#f37141"/><rect width="30.4" height="63.1" x="187" y="89.6" rx="0.25" ry="0.56" style="fill:#8f93c8"/><rect width="28.1" height="60" x="154.3" y="90.3" rx="0.25" ry="0.59" style="fill:#adff2f"/><rect width="31.92" height="45.6" x="121.6" y="106.3" rx="0.25" ry="0.63" style="fill:#ffd700"/><g style="fill:#000"><path d="m 22.88 16.2 c -0.78 -1.45 -1.29 -13.21 -1.29 -29.46 0 -16.25 0.52 -28 1.29 -29.46 1.27 -2.37 4 -2.42 130 -2.42 h 128.7 l 1.22 3.21 c 1.59 4.17 1.59 53.2 0 57.3 l -1.22 3.21 h -60.4 c -45.3 0 -60.78 -0.37 -61.91 -1.5 -2.1 -2.1 -1.87 -5.59 0.43 -6.47 1.54 -0.59 1.86 -2.55 1.56 -9.82 l -0.37 -9.1 l -7.29 -0.38 c -4.3 -0.22 -8 0.22 -9.1 1.09 -2.39 1.98 -2.34 13.68 0.07 16.86 2.43 3.22 2.4 7.6 -0.06 8.54 -1.09 0.42 -28.63 0.76 -61.2 0.76 -57.3 0 -59.3 -0.08 -60.5 -2.42 z m 25.58 -15.71 v -8.75 h -8.75 h -8.75 l -0.38 7.36 c -0.56 10.78 -0.41 10.94 9.43 10.51 l 8.45 -0.37 v -8.75 z m 29.1 1.14 c 0.46 -9.57 -0.78 -10.77 -10.57 -10.26 l -7.29 0.38 l -0.37 9.12 l -0.37 9.12 l 9.12 -0.37 l 9.12 -0.37 l 0.37 -7.61 z m 27.5 -0.82 l -0.37 -9.1 l -7.29 -0.38 c -4.3 -0.22 -8 0.22 -9.1 1.09 -1.82 1.51 -2.58 14.94 -0.94 16.58 0.46 0.46 4.7 0.83 9.43 0.83 h 8.6 l -0.37 -9.1 z m 28.75 0.04 c 0.35 -7.93 0.2 -8.44 -2.58 -9.14 -1.62 -0.41 -5.73 -0.57 -9.12 -0.35 l -6.17 0.39 l -0.38 7.36 c -0.56 10.78 -0.41 10.94 9.43 10.51 l 8.45 -0.37 l 0.37 -8.4 z m 55.88 -0.35 v -8.75 h -8.75 h -8.75 l -0.38 7.36 c -0.56 10.78 -0.41 10.94 9.43 10.51 l 8.45 -0.37 v -8.75 z m 28.62 7.4 c 1.32 -3.44 0.82 -13.71 -0.74 -15.27 -0.82 -0.82 -4.74 -1.5 -8.71 -1.5 -8.1 0 -9.81 1.57 -9.78 8.98 0.04 9.18 0.64 9.77 9.99 9.77 6.57 0 8.64 -0.44 9.23 -1.98 z m 27.63 -7.4 v -8.75 h -8.75 h -8.75 l -0.38 7.36 c -0.56 10.78 -0.41 10.94 9.43 10.51 l 8.45 -0.37 v -8.75 z m 29.1 1.14 c 0.46 -9.57 -0.78 -10.77 -10.57 -10.26 l -7.29 0.38 l -0.37 9.12 l -0.37 9.12 l 9.12 -0.37 l 9.12 -0.37 l 0.37 -7.61 z m -228 -20 c 1.54 -0.59 1.98 -2.68 1.98 -9.43 v -8.67 l -9.1 0.37 l -9.1 0.37 l -0.38 7.29 c -0.22 4.3 0.22 8 1.09 9.1 1.5 1.81 11.63 2.47 15.44 1 z m 29.39 -1 c 0.87 -1.04 1.31 -4.76 1.09 -9.1 l -0.38 -7.29 l -9.1 -0.37 l -9.1 -0.37 v 8.6 c 0 4.73 0.38 8.97 0.83 9.43 1.64 1.64 15.1 0.89 16.58 -0.94 z m 28.58 -7.97 l 0.37 -9.12 l -9.12 0.37 l -9.12 0.37 l -0.38 7.29 c -0.51 9.8 0.69 11 10.26 10.57 l 7.61 -0.37 l 0.37 -9.12 z m 27.67 7.97 c 0.87 -1.04 1.31 -4.76 1.09 -9.1 l -0.38 -7.29 l -9.1 -0.37 l -9.1 -0.37 v 8.7 c 0 5.79 0.52 8.91 1.56 9.33 3.54 1.43 14.42 0.78 15.85 -0.94 z m 28.58 -7.92 l 0.37 -9.1 h -8.67 c -9.68 0 -10.19 0.44 -10.19 8.93 0 8.62 1.48 9.99 10.39 9.56 l 7.74 -0.37 l 0.37 -9.1 z m 27.51 8.62 c 1.13 -0.72 1.51 -3.48 1.25 -9 l -0.38 -8 h -8.75 h -8.75 l -0.38 8 c -0.44 9.37 0.2 10.1 9.13 10.1 3.44 0 6.98 -0.46 7.88 -1.03 z m 28.91 -0.7 c 0.87 -1.04 1.31 -4.76 1.09 -9.1 l -0.38 -7.29 l -8.9 -0.36 c -9.88 -0.4 -10.42 0.09 -10.45 9.51 -0.03 7.44 1.67 8.98 9.87 8.98 4.77 0 7.81 -0.61 8.77 -1.77 z m 26.86 1 c 1.54 -0.59 1.98 -2.68 1.98 -9.43 v -8.67 l -9.1 0.37 l -9.1 0.37 l -0.38 8 c -0.26 5.56 0.12 8.33 1.25 9 1.9 1.2 12.39 1.42 15.28 0.31 z m 29.39 -1 c 0.87 -1.04 1.31 -4.76 1.09 -9.1 l -0.38 -7.29 l -9.1 -0.37 l -9.1 -0.37 v 8.6 c 0 4.73 0.38 8.97 0.83 9.43 1.64 1.64 15.1 0.89 16.58 -0.94 z m -280.4 -48.96 c -1.15 -3 -0.87 -142.2 0.3 -144 0.76 -1.2 5.21 -1.51 17.79 -1.25 l 16.78 0.35 l 0.31 10.63 c 0.51 17.33 -0.4 16.25 13.84 16.25 7.84 0 12.76 0.54 13.73 1.5 0.96 0.96 1.5 5.86 1.5 13.62 0 9.9 0.36 12.26 1.98 12.88 1.09 0.42 30.51 0.76 65.4 0.76 47.64 0 63.77 -0.37 64.9 -1.5 0.95 -0.95 1.5 -5.69 1.5 -12.88 0 -7.18 0.55 -11.93 1.5 -12.88 1.1 -1.1 11.97 -1.5 41.1 -1.5 31 0 39.89 -0.35 40.95 -1.63 0.74 -0.9 1.52 -6.94 1.72 -13.44 l 0.36 -11.81 l 15.32 -0.35 c 9.16 -0.21 16.32 0.18 17.81 0.98 2.39 1.28 2.49 2.64 2.47 32.85 -0.01 17.34 -0.43 32.1 -0.94 32.77 -1.79 2.44 -6.34 2.08 -7.79 -0.61 -1.25 -2.34 -2.34 -2.58 -10.39 -2.25 l -8.99 0.37 l -0.37 8.64 c -0.26 6.1 0.11 8.94 1.25 9.67 2.77 1.76 15.32 1.22 17.95 -0.77 3.22 -2.43 7.6 -2.4 8.54 0.06 0.42 1.09 0.76 15.69 0.76 32.46 0 28.85 -0.13 30.55 -2.42 31.77 -1.63 0.87 -53.5 1.29 -159.2 1.29 -141.8 0 -156.9 -0.19 -157.6 -1.98 z m 83.6 -15.52 v -9.38 l -7.92 -0.37 c -4.76 -0.23 -8.63 0.21 -9.69 1.09 -2.24 1.86 -2.4 15 -0.22 17.21 1 1 4.43 1.42 9.69 1.19 l 8.14 -0.36 v -9.38 z m 27.88 8.5 c 1.69 -1.69 2 -14.5 0.43 -17 -0.72 -1.14 -3.6 -1.51 -9.67 -1.25 l -8.64 0.37 l -0.38 7.99 c -0.21 4.4 -0.08 8.76 0.27 9.69 0.84 2.18 15.83 2.35 17.98 0.19 z m 28.38 -8.5 v -9.38 l -8.09 -0.38 c -6.55 -0.31 -8.4 0.04 -9.69 1.8 -1.9 2.6 -2.08 10.25 -0.35 14.8 1.19 3.13 1.59 3.25 9.69 2.89 l 8.45 -0.37 v -9.38 z m 27.88 8.5 c 1.69 -1.69 2 -14.5 0.43 -17 -0.72 -1.14 -3.6 -1.51 -9.67 -1.25 l -8.64 0.37 l -0.38 7.99 c -0.21 4.4 -0.08 8.76 0.27 9.69 0.84 2.18 15.83 2.35 17.98 0.19 z m 28.96 -0.92 c 1.42 -2.66 1.69 -10.36 0.51 -14.77 -0.69 -2.57 -1.49 -2.81 -9.31 -2.81 -9.82 0 -11.15 1.2 -11.15 10 0 8.69 1.39 10 10.63 10 6.67 0 8.26 -0.41 9.33 -2.42 z m 28.2 -7.58 v -9.38 h -9.38 h -9.38 l -0.38 7.99 c -0.54 11.56 -0.55 11.55 10 11.12 l 9.1 -0.37 v -9.38 z m 27.88 8.5 c 1.69 -1.69 2 -14.5 0.43 -17 -0.72 -1.14 -3.6 -1.51 -9.67 -1.25 l -8.64 0.37 l -0.38 7.99 c -0.21 4.4 -0.08 8.76 0.27 9.69 0.84 2.18 15.83 2.35 17.98 0.19 z m 29.46 -1.31 c 1.09 -4.08 0.92 -13.79 -0.28 -15.68 -0.73 -1.15 -3.73 -1.51 -10.29 -1.25 l -9.26 0.37 l -0.38 7.99 c -0.21 4.4 -0.08 8.76 0.27 9.69 0.47 1.21 3.27 1.69 9.92 1.69 8.56 0 9.33 -0.22 10 -2.81 z m 26.79 1.31 c 1.69 -1.69 2 -14.5 0.43 -17 -0.72 -1.14 -3.6 -1.51 -9.67 -1.25 l -8.64 0.37 l -0.38 7.99 c -0.21 4.4 -0.08 8.76 0.27 9.69 0.84 2.18 15.83 2.35 17.98 0.19 z m -282.2 -8.5 v -8.75 h -8.75 h -8.75 v 7.92 c 0 4.35 0.38 8.29 0.83 8.75 0.46 0.46 4.4 0.83 8.75 0.83 h 7.92 v -8.75 z m 28.1 0 v -8.13 h -8.75 h -8.75 l -0.38 6.73 c -0.57 10.1 -0.34 10.32 9.43 9.89 l 8.45 -0.37 v -8.13 z m 226.2 -19.46 c 2.27 -2.27 2.7 -13.1 0.67 -16.87 -1.05 -1.97 -2.66 -2.42 -8.65 -2.42 -11.1 0 -11.31 0.2 -11.31 9.88 0 4.84 0.63 9 1.5 9.87 2.26 2.26 15.4 1.92 17.79 -0.46 z m -254.9 -8.66 v -8.75 h -8.13 h -8.13 l -0.38 7.36 c -0.55 10.69 -0.34 10.95 8.8 10.51 l 7.83 -0.37 v -8.75 z m 28.75 0 v -8.75 l -8 -0.38 c -9.38 -0.44 -10.1 0.19 -10.1 9.19 -0.03 8.3 1.38 9.5 10.6 9.1 l 7.51 -0.36 v -8.75 z m 29.1 -0.15 c 0.34 -8.37 0.19 -8.95 -2.5 -9.67 -4.26 -1.14 -10.41 -0.96 -14 0.42 -2.98 1.13 -3.21 1.79 -3.21 9.17 0 4.37 0.4 8.34 0.88 8.83 0.49 0.49 4.84 0.72 9.69 0.52 l 8.8 -0.36 l 0.36 -8.9 z m 28.77 0.81 c 0.45 -9.57 -0.98 -11.28 -9.45 -11.28 -8.98 0 -10.3 1.34 -10.3 10.46 0 4.33 0.4 8.27 0.88 8.76 0.49 0.49 4.84 0.72 9.69 0.52 l 8.8 -0.36 l 0.38 -8.09 z m 27.48 -0.81 c 0.34 -8.37 0.19 -8.95 -2.5 -9.67 -4.09 -1.09 -12.58 -0.94 -14.47 0.26 -2.12 1.35 -3.28 8.93 -2.23 14.55 l 0.84 4.5 l 9 -0.37 l 9 -0.37 l 0.36 -8.9 z m 28.77 0.81 c 0.45 -9.57 -0.98 -11.28 -9.45 -11.28 -8.98 0 -10.3 1.34 -10.3 10.46 0 4.33 0.4 8.27 0.88 8.76 0.49 0.49 4.84 0.72 9.69 0.52 l 8.8 -0.36 l 0.38 -8.09 z m 28.2 6.74 c 1.21 -3.16 0.88 -12.97 -0.54 -15.6 -1.05 -1.97 -2.66 -2.42 -8.66 -2.42 -9.29 0 -11.3 1.77 -11.3 9.99 0 9.75 0.28 10 10.63 10 7.15 0 9.27 -0.42 9.87 -1.98 z m 28 -7.29 c 0.26 -6.1 -0.11 -8.94 -1.25 -9.67 -2.5 -1.58 -15.31 -1.26 -17 0.43 -1.6 1.6 -2.11 16.22 -0.62 17.72 0.49 0.49 4.84 0.72 9.69 0.52 l 8.8 -0.36 l 0.37 -8.64 z m 28.76 0.55 c 0.45 -9.67 -0.96 -11.28 -9.89 -11.28 -9.61 0 -9.86 0.28 -9.86 10.81 v 9.29 l 9.69 -0.37 l 9.69 -0.37 l 0.38 -8.09 z m 55.87 -0.66 v -8.75 h -9.38 h -9.38 l -0.38 7.36 c -0.56 10.85 -0.48 10.93 10 10.51 l 9.1 -0.37 v -8.75 z m -227.1 -19.2 c 1.14 -0.72 1.51 -3.6 1.25 -9.67 l -0.37 -8.64 l -7.92 -0.37 c -4.76 -0.23 -8.63 0.21 -9.69 1.09 -2.21 1.83 -2.41 15 -0.27 17.2 1.69 1.69 14.5 2 17 0.43 z m 28.75 -0.43 c 2.14 -2.14 1.94 -15.33 -0.27 -17.2 -1.06 -0.88 -4.92 -1.32 -9.69 -1.09 l -7.92 0.37 l -0.37 8.64 c -0.26 6.1 0.11 8.94 1.25 9.67 2.5 1.58 15.31 1.26 17 -0.43 z m 27.5 0.43 c 1.14 -0.72 1.51 -3.6 1.25 -9.67 l -0.37 -8.64 l -8.09 -0.38 c -9.57 -0.45 -11.28 0.98 -11.28 9.45 0 8.81 1.42 10.31 9.73 10.28 3.93 -0.01 7.87 -0.48 8.77 -1.05 z m 28.75 -0.43 c 2.14 -2.14 1.94 -15.33 -0.27 -17.2 -1.06 -0.88 -4.92 -1.32 -9.69 -1.09 l -7.92 0.37 l -0.37 7.92 c -0.23 4.76 0.21 8.63 1.09 9.69 1.83 2.21 15 2.41 17.2 0.27 z m 28.96 -0.92 c 1.67 -3.12 1.67 -12 0 -15.2 -1.07 -2 -2.66 -2.42 -9.33 -2.42 -9.24 0 -10.63 1.31 -10.63 10 0 8.69 1.39 10 10.63 10 6.67 0 8.26 -0.41 9.33 -2.42 z m 28.2 -7.58 v -9.38 h -9.38 h -9.38 l -0.37 8.64 c -0.26 6.1 0.11 8.95 1.25 9.7 0.89 0.58 5.28 0.91 9.75 0.74 l 8.13 -0.32 v -9.38 z m 27.88 8.5 c 1.69 -1.69 2 -14.5 0.43 -17 -0.72 -1.14 -3.6 -1.51 -9.67 -1.25 l -8.64 0.37 l -0.38 7.99 c -0.21 4.4 -0.08 8.76 0.27 9.69 0.84 2.18 15.83 2.35 17.98 0.19 z m 28.96 -0.92 c 1.54 -2.87 1.69 -13.77 0.23 -16.1 -0.73 -1.15 -3.73 -1.51 -10.29 -1.25 l -9.26 0.37 l -0.38 7.99 c -0.21 4.4 -0.08 8.76 0.27 9.69 0.46 1.2 3.19 1.69 9.4 1.69 7.37 0 8.95 -0.38 10 -2.42 z m -255.2 -7.89 l 0.37 -8.44 h -8.81 h -8.81 v 7.92 c 0 4.35 0.4 8.32 0.89 8.8 0.49 0.49 4.28 0.72 8.44 0.52 l 7.55 -0.37 l 0.37 -8.44 z m 28.38 0.31 v -8.13 h -8.75 h -8.75 l -0.38 6.73 c -0.57 10.1 -0.34 10.32 9.43 9.89 l 8.45 -0.37 v -8.13 z m 226.2 -19.46 c 2.42 -2.42 2.67 -14.1 0.37 -17.24 -1.3 -1.78 -3.18 -2.11 -10.31 -1.8 l -8.72 0.38 l -0.38 8.72 c -0.31 7.13 0.02 9 1.8 10.31 3.15 2.3 14.81 2.05 17.24 -0.37 z m -227 -0.36 c 1.13 -0.72 1.51 -3.48 1.25 -9 l -0.38 -8 h -8.75 h -8.75 l -0.38 7.29 c -0.22 4.3 0.22 8 1.09 9.1 1.61 1.94 13.15 2.45 15.91 0.7 z m 171.2 -8.19 c 0.44 -10.1 -0.09 -10.69 -9.33 -10.72 -10.1 -0.03 -10.41 0.28 -10.41 9.91 0 4.62 0.4 8.81 0.88 9.29 0.49 0.49 4.84 0.72 9.69 0.52 l 8.8 -0.36 l 0.37 -8.64 z m 28.75 0.72 c 0.47 -10 -0.66 -11.45 -9.18 -11.45 -10.4 0 -10.57 0.18 -10.57 10.81 v 9.29 l 9.69 -0.37 l 9.69 -0.37 l 0.37 -7.92 z m 55.74 6.57 c 0.42 -1.09 0.76 -5 0.76 -8.71 0 -7.8 -1.63 -9.32 -10 -9.32 -8.66 0 -10 1.4 -10 10.46 0 4.33 0.38 8.25 0.83 8.71 0.46 0.46 4.62 0.83 9.24 0.83 6.51 0 8.58 -0.45 9.17 -1.98 z m -283.2 -7.71 l -0.37 -8.44 h -8.13 h -8.13 l -0.37 8.44 l -0.37 8.44 h 8.86 h 8.86 l -0.37 -8.44 z m 282.5 -19.31 c 2.14 -2.14 1.94 -15.33 -0.27 -17.2 -1.06 -0.88 -4.92 -1.32 -9.69 -1.09 l -7.92 0.37 l -0.37 7.92 c -0.23 4.76 0.21 8.63 1.09 9.69 1.83 2.21 15 2.41 17.2 0.27 z m -282.5 -8.81 l 0.37 -8.44 h -8.81 h -8.81 v 7.92 c 0 4.35 0.4 8.32 0.89 8.8 0.49 0.49 4.28 0.72 8.44 0.52 l 7.55 -0.37 l 0.37 -8.44 z" transform="matrix(0.558 0 0 0.551 43.99 190.7)" style="fill:#000"/></g></svg>