<svg xmlns="http://www.w3.org/2000/svg" viewBox="0 0 256 256"><defs><clipPath><path d="m -24 13 c 0 1.11 -0.67 2 -1.5 2 -0.83 0 -1.5 -0.89 -1.5 -2 0 -1.11 0.67 -2 1.5 -2 0.83 0 1.5 0.89 1.5 2 z" transform="matrix(15.333 0 0 11.5 415 -125.5)"/></clipPath></defs><path d="m 65.1 27.35 c 135.3 -91.7 259.9 77.6 147.9 185.6 -105.4 101.7 -257.1 7.42 -202.1 -119.2 11.46 -26.41 29.3 -49.59 54.2 -66.4" style="fill:#00f"/><g transform="matrix(0.893 0 0 1.062 2.78 -835.2)" style="fill:#fff;color:#000"><path d="m 115.4 952.8 v 13.66 h -15.28 c -2.77 0 -5 2.23 -5 5 0 2.77 2.23 5 5 5 h 55.81 c 2.77 0 5 -2.23 5 -5 0 -2.77 -2.23 -5 -5 -5 h -15.28 v -13.66 h -25.2 z"/><path d="m 63.2 872.6 c -2.35 0 -4.25 1.9 -4.25 4.25 v 76.88 c 0 2.35 1.9 4.22 4.25 4.22 h 129.6 c 2.35 0 4.25 -1.87 4.25 -4.22 v -76.88 c 0 -2.35 -1.9 -4.25 -4.25 -4.25 z m 8.29 11.22 h 113 v 62.91 h -113 z"/></g><rect width="16.4" height="13.32" x="74.8" y="111.5" rx="0.79" ry="0.75" style="fill:#fff"/><g transform="matrix(9.22 0 0 6.985 453.7 -2729.2)" style="fill:#f00"><path d="m -36 410.3 l 3.62 -5.37 l -3.73 -5.91 h 2.4 l 2.97 4.64 l -4.44 6.63 h -0.82 z"/><path d="m -28.61 410.4 l -2.95 -4.65 l 4.48 -6.64 h 0.8 l -3.64 5.4 l 3.71 5.89 h -2.4 z"/></g></svg>