<svg xmlns="http://www.w3.org/2000/svg" viewBox="0 0 256 256"><path d="m 3.52 156.4 c 17.85 103.3 159.4 131 220.2 57.2 53.75 -54.8 38.1 -159.7 -29.86 -195.7 -78.1 -48.1 -189.5 11.37 -193.7 107.2 -0.43 10.49 0.67 21.1 3.37 31.3 z" style="fill:#ffc0cb;color:#000"/><g transform="matrix(0.98 0 0 0.984 0.67 6.32)"><g style="fill:#eb6aa9"><path d="m 38.74 154.3 c -2.42 -7.3 -4.43 -17 -4.11 -19.86 3.36 -5.99 10.59 -3.77 16.26 -5.38 0.77 7.71 5.15 19.41 10.16 22.9 2.15 1.93 3.74 2.52 4.47 4.15 2.71 5.23 5.53 9.22 8.83 14.1 -5.68 4.6 -10.81 10.23 -17.1 14 -8.23 -3.38 -15.88 -22.1 -18.55 -29.95 z"/><path d="m 44.68 119 c -9.32 -0.87 -10.18 -1.33 -10.18 -5.47 0 -3.64 2.82 -15.1 5.26 -21.44 4.08 -10.54 13.3 -25.9 16.23 -27 1.13 -0.43 11.74 7.44 15.76 11.69 3.21 2.59 1.34 3.7 -0.6 6.84 -4 6.55 -10.25 19.74 -10.26 21.8 -5.94 6.34 -6 8.26 -9 14.33 -0.23 -0.06 -3.47 -0.39 -7.2 -0.74 z"/><path d="m 69.87 51.4 l 1.73 -1.67 c 7.13 -6.86 25.67 -15.56 38.68 -18.1 12.93 -2.57 33.57 -2.19 45.1 0.84 12.22 3.21 26.63 10.2 33.49 16.23 l 3.57 3.14 c -4.99 5 -8.56 13.1 -14.65 16.68 -0.32 0.12 -3 -1.35 -6 -3.28 -6.74 -4.36 -13.31 -7.37 -20.92 -9.57 -14.1 -2.15 -27.32 -3.55 -40.4 0.43 -7 2.14 -14.89 5.83 -21.47 10 -2.19 1.4 -4.22 2.51 -4.52 2.48 c -5.47 -5.26 -10.82 -11.26 -14.57 -17.2 z"/><path d="m 200.6 104.1 c -3.05 -9.98 -7.27 -16.62 -12.51 -25.1 l 2.92 -3 c 4.43 -4.58 12.51 -10.42 14.42 -10.42 3.68 -0.02 13.71 17.1 18.1 30.91 2.41 7.53 4.21 17.98 3.45 19.96 -0.57 1.49 -2.09 1.85 -10.55 2.52 l -6.87 0.55 c -1.73 -5.46 -8.59 -11.89 -8.99 -15.44 z"/><path d="m 203.7 183.7 c -2.35 -1.3 -15.35 -12.5 -15.35 -13.23 1.61 -5.4 7.44 -10.78 11.1 -17.26 5.4 -4.49 11.18 -12.77 11.57 -22.8 0.02 -1.76 0.24 -2.3 0.67 -1.62 4.75 2.72 10.1 0.64 15 3.46 2.16 2.11 -1.98 20 -7.27 31.49 -3.31 7.17 -8.83 15.85 -11.97 18.83 -1.82 1.73 -2.36 1.89 -3.74 1.13 z"/><path d="m 120.6 219.4 c -12.53 -1.28 -28.56 -6.5 -39.3 -12.8 -5.21 -3.06 -11.32 -7.96 -11.32 -9.1 0 -1.01 11.27 -14.23 13.22 -15.51 1.59 -1.04 2.06 -0.91 6.87 2.05 7.42 4.56 14.82 7.78 22.55 9.82 13.15 2.18 24.97 3.31 37.3 -0.04 7.73 -2.14 16.1 -5.85 22.4 -9.97 4.19 -2.73 4.83 -2.94 6.16 -2 2.2 1.54 11.38 11.94 12.57 14.24 0.95 1.83 0.87 2.13 -1.01 3.9 -5.06 4.74 -19 12.15 -28.7 15.19 -14.1 2.18 -28.2 5.21 -40.72 4.2 z"/></g><path d="m 71.81 154.4 c -6 -2.6 -10.74 -6.88 -13.63 -12.32 -7.21 -13.56 -3.31 -28 9.87 -36.51 7.79 -5 20.31 -4.25 26.93 -1.06 5.57 2.71 10.26 7.37 12.7 12.62 2.73 5.88 3.15 15.47 0.94 21.29 -2.04 5.37 -5.09 9.45 -9.39 12.56 -8.96 5.53 -19.7 6.74 -27.42 3.42 z m 19.29 -12.1 c 4.4 -3.07 6.49 -7.36 6.47 -13.32 -0.04 -10.68 -6.89 -16.97 -17.2 -15.76 -11.64 1.36 -16.66 15.29 -9.38 25.99 4.11 6 13.76 7.52 20.1 3.09 z m 82.5 13.44 c -4.66 -0.78 -11.78 -4.66 -14.98 -8.17 -1.45 -1.59 -3.5 -4.72 -4.57 -6.97 -2.73 -7.85 -3.2 -16.69 0.13 -23.48 2.63 -5.31 7.43 -10.1 12.78 -12.65 8.61 -2.89 18.84 -3.81 25.82 0.39 5.61 3.39 7.76 5.55 10.96 10.99 8 13.69 1.52 32.2 -13.53 38.42 -5.64 2.32 -9.49 2.67 -16.61 1.48 z m 13.9 -13.22 c 4.33 -2.84 6.38 -7.49 6.38 -14.46 0 -5 -0.22 -5.87 -2.21 -8.67 -5.71 -6.73 -14.91 -8.1 -20.92 -3.91 -3.82 2.67 -5.97 6.62 -6.4 11.74 -0.46 5.5 1.04 10.11 4.36 13.4 5.83 4.62 13 5.6 18.79 1.9 z m -71.6 -21.63 c 0 -0.82 9.29 -15 11.24 -17.2 0.94 -1.04 2.31 -1.63 3.78 -1.63 1.47 0 2.85 0.59 3.78 1.63 1.92 2.13 11.24 16.37 11.24 17.2 0 0.93 -1.97 1.5 -5.12 1.5 -2.94 0 -4.89 -1.63 -7.83 -6.55 -1.62 -2.71 -2.52 -2.71 -4.13 0 -3.04 5.11 -4.85 6.56 -8.1 6.5 -1.88 -0.06 -3.83 0.07 -4.88 -1.43 z" style="fill:#080808"/></g></svg>