<svg xmlns="http://www.w3.org/2000/svg" viewBox="0 0 256 256"><path d="m 2.97 157.2 c 15.87 103.3 156.9 131 219.1 57.2 54.8 -54.8 41.2 -159.7 -26.1 -195.7 -77.2 -48.1 -189.7 11.37 -195.8 107.2 -0.63 10.49 0.26 21.1 2.77 31.3 z" style="fill:#2196f3;color:#000"/><g style="fill:#fff"><path d="m 126.7 185.5 c -13.1 -2.03 -23.41 -7.32 -33.1 -16.92 -15.48 -15.39 -20.84 -39.1 -13.56 -59.98 14.1 -40.56 66 -52.3 96.2 -21.7 11.47 11.63 16.9 25.1 16.83 41.61 -0.14 34.7 -32.3 62.3 -66.4 56.99 z m 10.67 -24.5 c 1.38 -3.61 -1.39 -4.49 -14.15 -4.49 -18.1 0 -16.92 1.96 -17.29 -27.94 l -0.3 -24.1 c 2 -3.7 2.61 -3.75 6 -6 l 24.1 0.3 c 29.9 0.37 27.94 -0.84 27.94 17.29 0 12.83 0.88 15.54 4.56 14.1 1.37 -0.53 1.54 -2.59 1.26 -15 -0.31 -13.78 -0.44 -14.55 -2.82 -17.1 -4.66 -5 -7 -5.45 -31.72 -5.43 -20.42 0.02 -23.2 0.22 -27.1 1.97 -3.38 1.53 -4.72 2.92 -6.32 6.52 -1.88 4.24 -2 6.27 -1.71 28.33 0.35 26.3 0.56 27.2 7.12 31.2 2.74 1.67 5.08 1.95 16.48 1.95 10.94 0 13.38 -0.26 13.86 -1.51 z m 26.3 -4.9 c 4.3 -4.34 6.16 -6.93 5.75 -8 -0.84 -2.19 -4 -1.98 -6.17 0.42 -1 1.1 -2.19 2 -2.65 2 -0.46 0 -0.85 -3.74 -0.85 -8.31 0 -8.91 -1.38 -12.53 -4.36 -11.38 -1.36 0.52 -1.64 2.2 -1.64 9.6 0 9.84 -0.88 11.49 -4.39 8.2 -2.7 -2.54 -5.17 -2.71 -6 -0.42 -0.46 1.2 1.15 3.5 5.61 8 3.44 3.47 6.74 6.32 7.32 6.32 0.58 0 3.92 -2.89 7.42 -6.42 z m -25.2 -17.6 c 10.38 -5.76 12.57 -9.84 8.22 -15.36 -2.34 -2.97 -15.44 -10.59 -18.25 -10.61 -1 -0.01 -3.14 1.3 -4.75 2.91 -2.83 2.83 -2.92 3.24 -2.92 12.55 0 8.88 0.19 9.81 2.45 12.1 3.44 3.44 6.86 3.09 15.24 -1.56 z m -11 -2.65 c -0.37 -0.37 -0.67 -4.14 -0.67 -8.39 0 -5.55 0.38 -7.87 1.35 -8.24 1.37 -0.53 13.1 5.56 14.2 7.38 0.92 1.5 -1.17 3.55 -7 6.91 -5.42 3.1 -6.7 3.48 -7.84 2.34 z" transform="matrix(1.398 0 0 1.399 -59.5 -46.4)" style="fill:#fff"/></g></svg>