<svg xmlns="http://www.w3.org/2000/svg" viewBox="0 0 256 256"><path d="m 230.1 203.7 c 127.2 -188.7 -278.6 -311.6 -224.9 -64.7 22.88 102.1 166.5 165.8 224.9 64.7" style="fill:#f5f5f5"/><g style="fill:#3071a9"><path d="m 151 173.8 c -7.1 0.28 -13.16 -5.41 -16.49 -6.75 -4.5 -1.13 -20.57 -7.75 -25.3 -10.42 -1.19 -0.67 -5.83 -4.07 -10.32 -7.57 -4.49 -3.49 -8.44 -6.07 -8.77 -5.74 -1 1 5.66 7.25 10.38 9.76 5.22 2.77 5.52 3.82 1.08 3.82 -4.58 0.54 -6.1 2.31 -8.22 5.36 l -11.23 -5.44 c -13.46 -6.52 -24.95 -20.44 -31.1 -36.68 -2.94 -7.82 -3.57 -20.25 -1.35 -26.57 3 -8.62 17.1 -18.63 31.2 -22.27 13.25 -3.41 37.4 -0.19 52.4 6.99 11.91 5.69 42.2 29.96 56.4 45.1 13.35 14.31 15.65 29.52 6 39.96 -8.63 9.36 -23.68 12.86 -44.79 10.41 z m 23.32 -11.82 c -0.52 -0.52 -10.18 -4.36 -21.45 -8.54 -11.28 -4.18 -26.81 -10.73 -34.53 -14.56 -7.72 -3.83 -14.42 -6.96 -14.9 -6.96 -3.66 0 13.23 11.65 24 16.56 18.36 8.37 51.3 17.84 46.88 13.5 z m 15.51 -14.61 c -5.76 -6.93 -65.4 -32.55 -75.4 -32.4 l -3 0.04 l 3.5 1.84 c 1.92 1 11.6 5.12 21.5 9.12 9.9 4 25.88 10.8 35.5 15.1 9.63 4.29 17.89 7.82 18.37 7.83 0.48 0.02 0.29 -0.67 -0.42 -1.53 z m -3.07 -19.5 c -10 -9.33 -31.95 -23.33 -49.1 -29.1 -9.9 -3.32 -27.77 -5.27 -27.77 -3.04 0 1.19 0.59 1.36 11 3.15 3.58 0.62 9.43 2.05 13 3.18 9 2.86 31.39 15.74 43.91 23.57 11.49 7.18 13.96 6.85 8.97 2.21 z m -87.1 44.4 c -2.4 -0.64 -4.7 -6.07 -3.57 -7.83 2.51 -3.94 6.91 -1.34 7.82 -1 -0.15 4.42 -4.14 2.18 -1.72 4.76 1.9 1.27 6.36 0.93 8.63 0.53 1.31 -2.12 0.51 -1.41 -1.48 -2.47 l -1.1 -3.53 c -1.15 -3.69 11.6 2.48 16.77 4.51 3.48 1.37 7.34 2.8 8.58 3.17 1.24 0.37 1.79 1.38 2.25 1.61 5.34 2.63 -21 5.21 -36.2 0.26 z m 109.9 -7.17 c -2.63 -0.72 -6.08 -0.59 -6.88 -0.9 -2.06 -0.79 0.92 -5.25 3.36 -5.25 1.87 0 12.76 5.61 12.76 6.57 0 0.73 -4.27 0.95 -9.25 -0.42 z m -112.5 -2.37 c 4.24 -4.53 8 -2.22 10.2 -1.79 3.97 0.77 14.64 6.33 -5.56 5.14 -3.55 0.05 -5.61 -2.79 -4.64 -3.34 z" transform="matrix(1 0.02 -0.02 1 3.43 1.91)"/><path d="m 179.6 110.8 c 0.8 -1.4 4.7 -4.5 6.62 -5.27 3.59 -1.44 4.87 0.2 4.5 5.75 -0.05 2.35 -0.57 4.54 -1.17 6.76 -0.3 1.21 -1.21 2 -2.32 2 -4.07 -4.46 -9.53 -6.08 -7.63 -9.24 z"/></g></svg>