<svg xmlns="http://www.w3.org/2000/svg" viewBox="0 0 16 16"><path d="m 13.22 2.41 c 12.51 16.58 -21.91 18.93 -10.87 2 c 2.52 -3.86 7.55 -6.4 10.87 -2" style="fill:#ff8c00"/><g style="fill:#fff"><path d="m 4.17 13 c -0.05 -0.04 -0.07 -0.08 -0.04 -0.18 c 0.05 -0.25 0.34 -0.62 1.23 -1.63 c 0.49 -0.55 0.77 -0.91 0.87 -1.09 c 0.04 -0.07 0.08 -0.31 0.1 -0.57 c 0.02 -0.24 0.05 -0.5 0.07 -0.58 c 0.03 -0.16 0.11 -0.27 0.2 -0.27 c 0.17 0 0.29 0.23 0.45 0.82 c 0.05 0.2 0.11 0.38 0.13 0.39 c 0.02 0.02 0.18 0.07 0.38 0.12 c 0.19 0.05 0.43 0.14 0.54 0.21 c 0.17 0.1 0.2 0.14 0.2 0.23 c 0 0.09 -0.03 0.13 -0.14 0.18 c -0.07 0.04 -0.22 0.07 -0.33 0.07 c -0.3 0.01 -0.71 0.07 -0.85 0.14 c -0.17 0.09 -0.38 0.26 -1.29 1.1 c -0.74 0.67 -1.18 1.02 -1.37 1.07 c -0.04 0.01 -0.11 0 -0.15 -0.03"/><path d="m 12.44 12.91 c -0.24 -0.14 -0.69 -0.51 -1.36 -1.13 c -0.93 -0.84 -1.07 -0.91 -1.84 -0.97 c -0.35 -0.03 -0.54 -0.11 -0.54 -0.23 c 0 -0.14 0.33 -0.32 0.78 -0.43 c 0.31 -0.08 0.43 -0.14 0.43 -0.25 c 0 -0.04 0.05 -0.25 0.12 -0.45 c 0.13 -0.39 0.24 -0.56 0.38 -0.56 c 0.15 0 0.2 0.16 0.25 0.71 c 0.04 0.52 0.04 0.52 0.2 0.77 c 0.09 0.14 0.37 0.47 0.61 0.73 c 1.14 1.25 1.33 1.49 1.34 1.73 c 0 0.14 -0.01 0.16 -0.09 0.17 c -0.05 0 -0.18 -0.04 -0.27 -0.1"/><path d="m 10.17 8.39 c -0.1 -0.11 -0.19 -0.34 -0.3 -0.77 l -0.1 -0.39 l -0.41 -0.12 c -0.45 -0.14 -0.61 -0.21 -0.72 -0.33 c -0.06 -0.07 -0.07 -0.1 -0.03 -0.18 c 0.06 -0.13 0.16 -0.16 0.71 -0.21 c 0.33 -0.03 0.52 -0.07 0.62 -0.12 c 0.21 -0.11 0.51 -0.37 1.27 -1.09 c 0.98 -0.95 1.36 -1.2 1.53 -1.04 c 0.05 0.06 0.06 0.09 0.02 0.19 c -0.1 0.26 -0.32 0.56 -0.98 1.32 c -0.77 0.9 -1 1.19 -1.1 1.42 c -0.05 0.11 -0.09 0.33 -0.12 0.66 c -0.03 0.37 -0.06 0.52 -0.11 0.6 c -0.09 0.12 -0.2 0.14 -0.29 0.05"/><path d="m 6.51 8.42 c -0.09 -0.05 -0.14 -0.23 -0.16 -0.62 c -0.05 -0.73 -0.11 -0.84 -0.98 -1.85 c -0.74 -0.86 -1.03 -1.23 -1.16 -1.48 c -0.1 -0.2 -0.11 -0.25 -0.07 -0.3 c 0.16 -0.2 0.48 0.02 1.61 1.07 c 1.14 1.08 1.18 1.1 1.83 1.16 c 0.22 0.02 0.43 0.04 0.47 0.04 c 0.04 0 0.13 0.05 0.19 0.12 c 0.1 0.1 0.11 0.13 0.07 0.2 c -0.07 0.13 -0.61 0.36 -1.04 0.45 c -0.09 0.02 -0.13 0.05 -0.15 0.13 c -0.07 0.31 -0.26 0.86 -0.34 0.98 c -0.1 0.14 -0.16 0.18 -0.27 0.11"/><path d="m 8.18 9.33 c -0.54 -0.28 -0.65 -0.95 -0.24 -1.36 c 0.29 -0.29 0.69 -0.33 1 -0.09 c 0.25 0.18 0.35 0.41 0.33 0.73 c -0.02 0.26 -0.09 0.42 -0.28 0.59 c -0.2 0.18 -0.59 0.24 -0.82 0.12"/></g></svg>