<svg xmlns="http://www.w3.org/2000/svg" viewBox="0 0 16 16"><path d="m 2.73 13.26 c -8.12 -6.55 3.77 -18.38 10.95 -10.82 c 7.2 6.51 -4 19.1 -10.95 10.82" style="fill:#707f8f"/><path d="m 4.1 11.5 c -0.15 -0.04 -0.28 -0.13 -0.37 -0.28 c -0.07 -0.11 -0.07 -0.27 -0.07 -3.25 v -3.14 l 0.1 -0.13 c 0.21 -0.26 -0.05 -0.25 4.2 -0.25 c 3.71 0 3.88 0 4 0.08 c 0.07 0.04 0.17 0.14 0.21 0.21 c 0.07 0.13 0.08 0.21 0.08 3.23 c 0 3.45 0.02 3.24 -0.28 3.44 l -0.14 0.09 h -3.81 c -2.09 0 -3.86 -0.01 -3.93 -0.02 m 6.95 -2.36 c -2.06 0 -4.13 0 -6.19 0 c 0 0.41 0 0.81 0 1.22 c 2.07 0 4.13 0 6.19 0 c 0 -0.41 0 -0.81 0 -1.22" style="fill:#fff"/></svg>