<svg xmlns="http://www.w3.org/2000/svg" viewBox="0 0 16 16"><path d="m 2.73 2.74 c -8.12 6.55 3.77 18.38 10.95 10.82 c 7.2 -6.51 -4 -19.1 -10.95 -10.82" style="fill:#ff8c00"/><path d="m 3.39 12.81 c -0.02 -0.02 0.36 -0.43 0.83 -0.93 l 0.87 -0.89 h 3.84 c 3.1 0 3.84 0.01 3.84 0.06 c 0 0.03 -0.38 0.45 -0.84 0.93 l -0.85 0.87 h -3.83 c -2.11 0 -3.85 -0.02 -3.86 -0.03 m 5.91 -2.71 c -0.1 -0.1 -0.09 -0.15 0.11 -0.59 c 0.16 -0.34 0.19 -0.45 0.2 -0.77 c 0.02 -0.3 0 -0.44 -0.08 -0.71 c -0.19 -0.64 -0.06 -1.21 0.37 -1.62 c 0.31 -0.3 0.54 -0.39 0.98 -0.39 c 0.34 0 0.41 0.02 0.67 0.15 c 0.61 0.31 0.93 0.98 0.78 1.64 c -0.12 0.5 -0.73 1.23 -1.34 1.59 c -0.38 0.23 -1.48 0.77 -1.58 0.77 c -0.03 0 -0.09 -0.03 -0.13 -0.07 m -5.2 -0.45 c -0.62 -0.2 -0.98 -1.03 -0.71 -1.65 c 0.11 -0.24 0.35 -0.5 0.58 -0.62 c 0.22 -0.12 0.8 -0.12 1.02 0 c 0.41 0.21 0.67 0.64 0.66 1.09 c 0 0.85 -0.76 1.43 -1.55 1.18 m 0.66 -0.65 c 0.2 -0.11 0.32 -0.34 0.29 -0.56 c -0.04 -0.34 -0.25 -0.54 -0.58 -0.54 c -0.32 0 -0.54 0.2 -0.57 0.54 c -0.04 0.32 0.25 0.65 0.57 0.65 c 0.07 0 0.2 -0.04 0.29 -0.09 m 2.32 0.63 c -0.17 -0.06 -0.3 -0.16 -0.45 -0.31 c -0.72 -0.78 -0.2 -2.05 0.84 -2.05 c 0.68 0 1.18 0.52 1.18 1.23 c 0 0.84 -0.8 1.42 -1.57 1.13 m -1.44 -2.47 c -1.04 -0.34 -1.14 -1.79 -0.16 -2.27 c 0.64 -0.32 1.43 0.05 1.63 0.75 c 0.13 0.48 0.01 0.91 -0.35 1.26 c -0.31 0.29 -0.72 0.39 -1.12 0.26 m 0.69 -0.66 c 0.13 -0.09 0.26 -0.34 0.26 -0.49 c 0 -0.31 -0.25 -0.6 -0.55 -0.63 c -0.68 -0.06 -0.93 0.85 -0.32 1.18 c 0.18 0.1 0.43 0.07 0.61 -0.06 m 5 -1 c -0.39 -0.07 -0.75 -0.14 -0.78 -0.15 c -0.05 -0.02 -0.06 -0.25 -0.06 -1.23 v -1.2 l 0.1 -0.02 c 0.16 -0.04 0.79 0.09 1.02 0.22 c 0.14 0.07 0.34 0.25 0.58 0.52 c 0.24 0.27 0.4 0.42 0.49 0.44 c 0.27 0.06 0.27 0.1 -0.19 1.12 c -0.23 0.52 -0.12 0.49 -1.16 0.3" style="fill:#fff"/></svg>