<svg xmlns="http://www.w3.org/2000/svg" viewBox="0 0 16 16"><path d="m 14.1 13.16 c 3.89 -5.95 0.75 -11.38 -3.66 -12.66 c -5.93 -1.73 -13.98 2.82 -8.67 12.19 c 2.11 3.73 9.55 4.71 12.33 0.47" style="fill:#fb8600"/><path d="m 4.49 13.1 c -0.23 -0.09 -0.52 -0.38 -0.57 -0.59 c -0.06 -0.22 -0.06 -8.28 0 -8.5 c 0.06 -0.22 0.35 -0.51 0.6 -0.59 c 0.17 -0.06 0.42 -0.07 1.55 -0.06 l 1.34 0.01 l 0.01 1.9 c 0.01 1.04 0 1.93 -0.01 1.96 c -0.02 0.05 -0.14 -0.05 -0.4 -0.32 c -0.21 -0.21 -0.42 -0.41 -0.47 -0.43 c -0.05 -0.03 -0.27 -0.05 -0.49 -0.05 h -0.39 v 0.39 c 0 0.3 0.02 0.42 0.08 0.53 c 0.13 0.23 2.52 2.7 2.61 2.7 c 0.04 0 0.63 -0.59 1.36 -1.36 c 1.4 -1.48 1.35 -1.4 1.32 -1.95 l -0.02 -0.29 l -0.34 -0.01 c -0.19 -0.01 -0.39 0 -0.45 0.01 c -0.06 0.02 -0.29 0.21 -0.5 0.43 c -0.21 0.22 -0.41 0.4 -0.43 0.4 c -0.02 0 -0.02 -0.88 -0.02 -1.95 l 0.01 -1.95 h 2 l 0.22 0.12 c 0.29 0.16 0.56 0.48 0.64 0.77 c 0.09 0.32 0.1 5.89 0 6.21 c -0.09 0.3 -0.32 0.57 -0.64 0.74 l -0.27 0.14 h -3.13 c -3.49 0 -3.32 -0.02 -3.53 0.31 c -0.13 0.19 -0.13 0.4 0 0.59 c 0.21 0.32 0.04 0.31 3.54 0.3 l 3.14 -0.01 l 0.22 -0.12 c 0.23 -0.13 0.44 -0.33 0.56 -0.56 c 0.09 -0.17 0.15 -0.15 0.15 0.05 c 0 0.44 -0.3 0.91 -0.71 1.13 l -0.22 0.12 h -3.3 c -2.84 0.01 -3.32 0 -3.48 -0.06" style="fill:#fff"/></svg>