<svg xmlns="http://www.w3.org/2000/svg" viewBox="0 0 16 16"><path d="m 8.67 15.89 c -9.5 0.91 -12.1 -14.42 -2.3 -15.61 c 8.97 -1.48 13.59 12.42 4.68 15.2 c -0.75 0.3 -1.58 0.3 -2.38 0.41" style="fill:#ff8c00"/><path d="m 4.54 13.1 c -0.23 -0.09 -0.49 -0.37 -0.55 -0.59 c -0.07 -0.25 -0.07 -8.32 0 -8.57 c 0.03 -0.1 0.12 -0.26 0.21 -0.35 c 0.31 -0.33 0.18 -0.32 3.76 -0.3 l 3.19 0.01 l 0.21 0.12 c 0.12 0.07 0.3 0.22 0.39 0.34 c 0.31 0.38 0.3 0.29 0.29 3.67 c -0.01 2.87 -0.02 3 -0.1 3.17 c -0.11 0.25 -0.37 0.51 -0.63 0.63 l -0.22 0.11 h -3.04 c -3.39 0 -3.23 -0.02 -3.43 0.31 c -0.12 0.19 -0.12 0.4 0 0.59 c 0.21 0.33 0.04 0.31 3.45 0.3 l 3.07 -0.01 l 0.19 -0.1 c 0.23 -0.13 0.45 -0.34 0.56 -0.56 c 0.1 -0.19 0.16 -0.18 0.16 0.03 c 0 0.44 -0.29 0.91 -0.69 1.14 l -0.21 0.12 h -3.21 c -2.76 0.01 -3.23 0 -3.39 -0.06 m 3.28 -4.36 c 0.69 -0.73 1.26 -1.33 1.28 -1.33 c 0.02 0 0.04 0.59 0.04 1.32 l 0.01 1.32 l 1.16 0.02 l -0.02 -5.56 l -0.52 -0.01 c -0.35 -0.01 -0.54 0 -0.58 0.04 c -0.05 0.04 -0.06 0.3 -0.06 1.35 c 0 0.71 -0.02 1.3 -0.03 1.3 c -0.02 0 -0.61 -0.61 -1.3 -1.36 c -1.15 -1.22 -1.29 -1.35 -1.39 -1.34 l -0.13 0.02 v 2.78 l -0.01 2.78 h 0.16 c 0.15 0 0.21 -0.05 1.4 -1.33" style="fill:#fff"/></svg>