<svg xmlns="http://www.w3.org/2000/svg" viewBox="0 0 16 16"><path d="m 13.27 2.74 c 8.12 6.55 -3.77 18.38 -10.95 10.82 c -7.2 -6.51 4 -19.1 10.95 -10.82" style="fill:#ff8c00"/><path d="m 3.42 12.36 c 0 -0.02 0.91 -0.93 2 -2.04 c 1.11 -1.11 2 -2.04 2 -2.07 c 0 -0.03 -0.91 -0.96 -2 -2.07 c -1.11 -1.1 -2 -2 -2 -2.04 c 0 -0.02 1.86 -0.03 4.13 -0.03 h 4.13 v 8.27 h -4.13 c -2.27 0 -4.13 -0.01 -4.13 -0.03" style="fill:#fff"/><path d="m 9.53 10.31 c -1.1 -1.1 -2 -2.02 -2 -2.06 c 0 -0.07 3.98 -4.05 4.06 -4.05 c 0.04 0 0.05 0.84 0.05 4.05 c 0 3.22 -0.01 4.05 -0.05 4.05 c -0.03 0 -0.95 -0.9 -2.05 -2" style="fill:#ffdeac"/></svg>