<svg xmlns="http://www.w3.org/2000/svg" viewBox="0 0 16 16"><path d="m 14.4 3.72 c 8.71 15.9 -23.1 16.65 -12.15 0.26 c 2.89 -4.22 9.8 -6.27 12.15 -0.26" style="fill:#ff8c00"/><path d="m 6.66 14.41 c -0.05 -0.05 -0.1 -0.14 -0.1 -0.2 c 0 -0.05 0.21 -0.31 0.48 -0.57 c 0.68 -0.68 0.95 -1.23 0.95 -1.91 c 0 -1.25 1.22 -2.28 2.45 -2.05 c 1.72 0.31 2.33 2.45 1.03 3.63 c -0.61 0.55 -1.63 0.89 -3.17 1.05 c -1.56 0.17 -1.52 0.17 -1.64 0.05 m -0.6 -3.53 c -0.07 -0.07 -0.11 -0.2 -0.13 -0.36 l -0.02 -0.25 l -0.34 -0.08 c -1.16 -0.29 -2.05 -1.18 -2.31 -2.3 c -0.04 -0.17 -0.1 -0.33 -0.14 -0.36 c -0.04 -0.02 -0.16 -0.04 -0.28 -0.04 c -0.17 0 -0.23 -0.03 -0.32 -0.13 c -0.13 -0.17 -0.13 -0.23 -0.01 -0.38 c 0.07 -0.09 0.16 -0.13 0.37 -0.14 l 0.27 -0.03 l 0.09 -0.36 c 0.29 -1.15 1.21 -2.09 2.28 -2.32 c 0.37 -0.08 0.41 -0.12 0.41 -0.36 c 0 -0.14 0.04 -0.23 0.13 -0.32 c 0.15 -0.15 0.23 -0.16 0.4 -0.02 c 0.11 0.08 0.13 0.15 0.13 0.32 c 0 0.26 0.04 0.3 0.42 0.38 c 1.05 0.23 1.99 1.18 2.28 2.31 l 0.09 0.37 l 0.25 0.02 c 0.6 0.04 0.65 0.67 0.05 0.67 c -0.12 0 -0.24 0.02 -0.27 0.04 c -0.03 0.02 -0.08 0.16 -0.12 0.32 c -0.25 1.1 -1.15 2.03 -2.25 2.32 c -0.18 0.05 -0.36 0.11 -0.39 0.14 c -0.04 0.03 -0.07 0.15 -0.07 0.27 c 0 0.38 -0.31 0.56 -0.55 0.31 m -0.11 -1.94 c 0.05 -0.33 0.3 -0.46 0.52 -0.29 c 0.09 0.07 0.14 0.16 0.15 0.29 c 0.02 0.18 0.02 0.19 0.18 0.18 c 0.56 -0.03 1.43 -0.9 1.46 -1.46 c 0 -0.15 -0.01 -0.16 -0.18 -0.18 c -0.19 -0.02 -0.4 -0.19 -0.4 -0.34 c 0 -0.13 0.19 -0.29 0.39 -0.32 c 0.2 -0.04 0.2 -0.04 0.19 -0.23 c -0.02 -0.39 -0.5 -1.04 -0.95 -1.26 c -0.55 -0.28 -0.7 -0.27 -0.7 0.04 c 0 0.11 -0.04 0.2 -0.11 0.27 c -0.23 0.22 -0.5 0.07 -0.55 -0.32 c -0.03 -0.19 -0.04 -0.21 -0.15 -0.2 c -0.23 0.03 -0.66 0.26 -0.91 0.49 c -0.29 0.27 -0.56 0.74 -0.58 1 c -0.01 0.17 0 0.18 0.18 0.19 c 0.13 0.01 0.22 0.05 0.29 0.15 c 0.2 0.25 0.08 0.47 -0.27 0.52 c -0.2 0.03 -0.21 0.04 -0.21 0.17 c 0.03 0.46 0.55 1.1 1.1 1.36 c 0.41 0.2 0.51 0.18 0.55 -0.07 m -0.04 -1.15 c -0.61 -0.38 -0.41 -1.29 0.3 -1.36 c 0.58 -0.06 1 0.6 0.7 1.09 c -0.21 0.35 -0.67 0.47 -1 0.27 m 5.23 1.45 c -0.86 -0.29 -0.95 -0.33 -0.96 -0.44 c -0.02 -0.19 0.64 -5.41 0.7 -5.46 c 0.03 -0.03 0.16 -0.03 0.35 0 c 0.77 0.14 1.35 0.51 1.77 1.13 c 0.32 0.47 0.51 1.02 0.59 1.72 l 0.07 0.53 l -0.71 1.42 c -0.47 0.95 -0.73 1.42 -0.79 1.42 c -0.04 0 -0.5 -0.15 -1.02 -0.32" style="fill:#fff"/></svg>