<svg xmlns="http://www.w3.org/2000/svg" viewBox="0 0 16 16"><path d="m 7.36 15.89 c 9.5 0.91 12.1 -14.42 2.3 -15.61 c -8.98 -1.48 -13.59 12.42 -4.68 15.2 c 0.75 0.3 1.58 0.3 2.38 0.41" style="fill:#ff8c00"/><path d="m 5 12.92 c -0.11 -0.03 -0.23 -0.08 -0.28 -0.12 c -0.23 -0.18 -0.38 -0.36 -0.47 -0.55 l -0.1 -0.22 v -7.23 l 0.1 -0.22 c 0.16 -0.37 0.54 -0.66 0.87 -0.69 c 0.2 -0.02 0.2 -0.02 0.2 0.52 c 0 0.33 0.02 0.56 0.06 0.66 c 0.07 0.17 0.33 0.41 0.53 0.5 c 0.19 0.08 0.54 0.08 0.74 -0.01 c 0.15 -0.06 0.18 -0.06 0.36 0.02 c 0.25 0.11 0.51 0.11 0.78 0 c 0.21 -0.09 0.22 -0.09 0.35 -0.02 c 0.21 0.13 0.58 0.14 0.84 0.03 c 0.21 -0.09 0.23 -0.09 0.35 -0.03 c 0.2 0.1 0.55 0.09 0.8 -0.04 c 0.43 -0.21 0.54 -0.44 0.54 -1.13 c 0 -0.34 0.02 -0.49 0.05 -0.5 c 0.03 -0.01 0.14 0 0.25 0.03 c 0.35 0.09 0.66 0.4 0.79 0.78 c 0.1 0.29 0.1 7.16 0 7.46 c -0.09 0.27 -0.32 0.55 -0.6 0.69 l -0.22 0.12 h -2.87 c -2.22 0.01 -2.91 0 -3.07 -0.05 m 0.98 -7.97 c -0.05 -0.08 -0.07 -0.24 -0.07 -0.8 c 0 -0.69 0 -0.7 0.11 -0.81 c 0.12 -0.12 0.23 -0.11 0.38 0.02 c 0.07 0.06 0.08 0.16 0.08 0.81 c 0 0.66 -0.01 0.75 -0.08 0.81 c -0.11 0.11 -0.33 0.1 -0.41 -0.02 m 1.2 0 c -0.07 -0.08 -0.09 -0.18 -0.1 -0.73 c -0.02 -0.7 0.02 -0.88 0.2 -0.95 c 0.13 -0.05 0.29 0.02 0.35 0.17 c 0.03 0.06 0.05 0.37 0.05 0.73 c 0 0.75 -0.05 0.88 -0.31 0.88 c -0.06 0 -0.15 -0.04 -0.19 -0.09 m 1.17 0 c -0.05 -0.08 -0.07 -0.24 -0.07 -0.8 c 0 -0.69 0 -0.7 0.11 -0.81 c 0.12 -0.12 0.23 -0.11 0.38 0.02 c 0.07 0.06 0.08 0.16 0.08 0.81 c 0 0.66 -0.01 0.75 -0.08 0.81 c -0.11 0.11 -0.33 0.1 -0.41 -0.02 m 1.2 0 c -0.07 -0.08 -0.09 -0.18 -0.1 -0.73 c -0.02 -0.7 0.02 -0.88 0.19 -0.95 c 0.13 -0.05 0.29 0.02 0.36 0.17 c 0.03 0.06 0.05 0.37 0.05 0.73 c 0 0.75 -0.05 0.88 -0.31 0.88 c -0.06 0 -0.15 -0.04 -0.19 -0.09" style="fill:#fff"/></svg>