<svg xmlns="http://www.w3.org/2000/svg" viewBox="0 0 16 16"><path d="m 14.1 2.91 c 3.89 5.95 0.75 11.38 -3.66 12.66 c -5.93 1.73 -13.98 -2.82 -8.67 -12.19 c 2.11 -3.72 9.55 -4.71 12.33 -0.47" style="fill:#fb8600"/><path d="m 3.26 13.32 c -0.02 -0.02 0.39 -0.47 0.89 -1 l 0.93 -0.97 h 1.33 l 0.72 0.62 c 0.9 0.78 0.88 0.77 1.16 0.77 c 0.28 0 0.26 0.01 1.16 -0.77 l 0.71 -0.62 h 1.26 c 0.69 0 1.26 0.02 1.26 0.04 c 0 0.02 -0.42 0.47 -0.93 1 l -0.93 0.97 h -3.77 c -2.07 0 -3.79 -0.02 -3.8 -0.04 m 4.07 -2.16 c -0.77 -0.68 -0.94 -0.85 -0.95 -0.96 c -0.01 -0.08 0.01 -0.16 0.05 -0.18 c 0.04 -0.02 0.32 -0.04 0.64 -0.04 h 0.57 l -0.01 -0.99 l -0.02 -0.99 h -1.87 l -0.05 1.27 h -0.16 c -0.16 0 -0.2 -0.05 -0.93 -0.95 c -0.42 -0.52 -0.76 -0.98 -0.76 -1.02 c 0 -0.04 0.35 -0.51 0.78 -1.05 c 0.73 -0.92 0.79 -0.98 0.93 -0.96 l 0.14 0.02 l 0.01 0.64 c 0.02 0.63 0.02 0.65 0.12 0.68 c 0.06 0.02 0.48 0.02 0.95 0.02 l 0.84 -0.02 v -2 l -0.61 -0.02 l -0.61 -0.03 l -0.02 -0.15 c -0.01 -0.14 0.05 -0.2 0.93 -0.96 c 0.52 -0.45 0.96 -0.82 0.98 -0.82 c 0.03 0 0.47 0.37 0.99 0.82 c 0.88 0.76 0.93 0.83 0.92 0.96 l -0.01 0.15 l -0.61 0.03 l -0.61 0.02 v 2 l 0.84 0.02 c 0.46 0.01 0.89 0 0.95 -0.02 c 0.1 -0.02 0.11 -0.05 0.12 -0.68 l 0.01 -0.64 l 0.15 -0.02 c 0.14 -0.02 0.19 0.04 0.92 0.96 c 0.43 0.54 0.78 1 0.78 1.04 c 0 0.04 -0.35 0.5 -0.77 1.04 c -0.73 0.92 -0.78 0.97 -0.93 0.96 l -0.15 -0.02 l -0.05 -1.27 h -1.87 l -0.01 0.99 l -0.02 0.99 h 0.57 c 0.32 0 0.61 0.02 0.64 0.04 c 0.04 0.02 0.06 0.1 0.05 0.18 c -0.01 0.12 -0.18 0.29 -0.95 0.96 c -0.52 0.45 -0.95 0.82 -0.96 0.82 c -0.01 0 -0.45 -0.37 -0.96 -0.82" style="fill:#fff"/></svg>