<svg xmlns="http://www.w3.org/2000/svg" viewBox="0 0 16 16"><path d="m 5.39 0.77 c 7.96 -3.11 12.1 5.6 10 11 c -1.42 3.78 -7.1 5.66 -11.63 2.98 c -5.76 -3.39 -4.53 -11.6 1.61 -14" style="fill:#ff8c00"/><path d="m 8 14.47 c -0.18 -0.03 -0.3 -0.2 -0.32 -0.49 c -0.03 -0.29 -0.12 -0.37 -0.41 -0.37 c -0.21 0 -1.04 -0.26 -1.45 -0.45 c -1.06 -0.5 -2.02 -1.43 -2.56 -2.49 c -0.2 -0.39 -0.42 -1.09 -0.47 -1.46 c -0.06 -0.49 -0.09 -0.52 -0.39 -0.52 c -0.46 0 -0.68 -0.35 -0.41 -0.67 c 0.1 -0.12 0.18 -0.15 0.43 -0.17 c 0.16 -0.02 0.3 -0.03 0.3 -0.04 c 0 -0.01 0.04 -0.21 0.08 -0.46 c 0.43 -2.23 2.09 -3.89 4.36 -4.33 l 0.48 -0.09 l 0.03 -0.32 c 0.03 -0.25 0.07 -0.34 0.18 -0.43 c 0.16 -0.14 0.23 -0.15 0.43 -0.06 c 0.16 0.07 0.2 0.15 0.24 0.52 l 0.03 0.29 l 0.48 0.09 c 1.68 0.31 3.05 1.3 3.85 2.8 c 0.25 0.46 0.4 0.91 0.53 1.54 l 0.09 0.45 l 0.27 0.02 c 0.48 0.03 0.69 0.37 0.43 0.68 c -0.1 0.12 -0.19 0.15 -0.41 0.18 l -0.28 0.03 l -0.07 0.39 c -0.14 0.82 -0.4 1.49 -0.86 2.18 c -0.84 1.27 -2.09 2.05 -3.79 2.38 l -0.24 0.05 l -0.03 0.27 c -0.04 0.38 -0.21 0.55 -0.51 0.5 m -0.35 -3.09 c 0.02 -0.67 0.04 -0.76 0.18 -0.9 c 0.16 -0.14 0.39 -0.14 0.55 0.02 c 0.13 0.13 0.13 0.16 0.13 0.77 c 0 0.5 0.02 0.65 0.08 0.67 c 0.13 0.05 0.73 -0.13 1.19 -0.36 c 1 -0.49 1.84 -1.61 1.96 -2.62 l 0.04 -0.29 h -0.64 c -0.61 0 -0.65 -0.01 -0.8 -0.14 c -0.2 -0.16 -0.22 -0.37 -0.06 -0.56 c 0.09 -0.11 0.14 -0.13 0.78 -0.15 c 0.81 -0.03 0.79 -0.01 0.59 -0.66 c -0.36 -1.13 -1.27 -2.04 -2.41 -2.4 c -0.23 -0.07 -0.47 -0.13 -0.55 -0.11 c -0.14 0.02 -0.14 0.02 -0.16 0.65 c -0.02 0.35 -0.05 0.68 -0.07 0.73 c -0.02 0.05 -0.12 0.12 -0.2 0.15 c -0.14 0.06 -0.19 0.05 -0.3 -0.01 c -0.22 -0.13 -0.27 -0.29 -0.27 -0.94 c 0 -0.68 0.03 -0.66 -0.55 -0.51 c -0.37 0.09 -0.82 0.31 -1.17 0.54 c -0.37 0.25 -0.9 0.86 -1.11 1.26 c -0.21 0.41 -0.45 1.18 -0.38 1.25 c 0.02 0.02 0.32 0.05 0.66 0.06 c 0.57 0.02 0.63 0.03 0.76 0.14 c 0.17 0.16 0.18 0.42 0.03 0.57 c -0.09 0.09 -0.22 0.11 -0.79 0.13 l -0.67 0.02 v 0.22 c 0.01 0.29 0.23 0.9 0.45 1.28 c 0.25 0.43 0.9 1.06 1.35 1.31 c 0.38 0.21 1.09 0.45 1.27 0.43 c 0.1 -0.01 0.11 -0.05 0.12 -0.57 m 0.08 -1.92 c -0.25 -0.08 -0.65 -0.45 -0.76 -0.7 c -0.27 -0.59 0.04 -1.34 0.67 -1.63 c 0.66 -0.3 1.51 0.16 1.67 0.89 c 0.19 0.89 -0.71 1.71 -1.58 1.43" style="fill:#fff"/></svg>