<svg xmlns="http://www.w3.org/2000/svg" viewBox="0 0 16 16"><path d="m 14.47 3.76 c 8.71 15.9 -23.1 16.65 -12.15 0.26 c 2.89 -4.22 9.8 -6.27 12.15 -0.26" style="fill:#ff8c00"/><path d="m 4.93 13.42 c -0.04 -0.02 -0.14 -0.09 -0.22 -0.16 c -0.24 -0.21 -0.34 -0.58 -0.37 -1.34 c -0.02 -0.73 -0.01 -0.82 0.48 -2.7 c 0.44 -1.68 0.51 -2.08 0.51 -2.83 c 0 -0.54 -0.01 -0.68 -0.1 -0.95 c -0.13 -0.38 -0.33 -0.64 -0.66 -0.84 c -0.14 -0.09 -0.24 -0.18 -0.24 -0.23 c 0 -0.07 0.04 -0.08 0.35 -0.08 c 0.68 0 1.36 0.15 1.71 0.38 c 0.1 0.06 0.24 0.21 0.31 0.34 c 0.12 0.2 0.14 0.26 0.14 0.59 c 0 0.53 -0.06 0.73 -0.76 2.45 c -0.57 1.4 -0.73 2.03 -0.73 2.85 c 0 1 0.3 1.61 0.73 1.51 c 0.07 -0.02 0.27 -0.16 0.45 -0.33 c 0.17 -0.16 0.32 -0.3 0.34 -0.3 c 0.01 0 0.02 0.11 0.02 0.25 v 0.25 l -0.46 0.41 c -0.27 0.25 -0.57 0.47 -0.74 0.56 c -0.28 0.14 -0.62 0.21 -0.76 0.16 m 3.06 -0.32 c -0.18 -0.1 -0.18 -0.23 0.01 -0.59 c 0.29 -0.54 0.35 -0.77 0.36 -1.23 c 0 -0.32 -0.02 -0.48 -0.11 -0.7 c -0.14 -0.39 -0.17 -0.68 -0.11 -0.98 c 0.17 -0.76 0.78 -1.33 1.57 -1.46 c 0.79 -0.13 1.66 0.3 2.02 1 c 0.12 0.24 0.15 0.36 0.17 0.66 c 0.02 0.45 -0.06 0.75 -0.32 1.12 c -0.27 0.39 -0.86 0.95 -1.29 1.21 c -0.35 0.22 -2.07 1.02 -2.19 1.02 c -0.02 0 -0.08 -0.02 -0.13 -0.04 m 3.18 -5.34 c -0.58 -0.16 -1.06 -0.31 -1.08 -0.34 c -0.05 -0.07 -0.05 -3.13 0 -3.21 c 0.03 -0.04 0.12 -0.05 0.38 -0.03 c 0.77 0.07 1.19 0.26 1.61 0.71 c 0.54 0.58 0.7 0.71 0.91 0.74 c 0.11 0.02 0.2 0.05 0.21 0.08 c 0.03 0.07 -0.88 2.3 -0.94 2.32 c -0.03 0 -0.52 -0.12 -1.09 -0.27" style="fill:#fff"/></svg>