<svg xmlns="http://www.w3.org/2000/svg" viewBox="0 0 16 16"><path d="m 7.81 15.89 c -9.61 0.91 -10.48 -14.42 -0.59 -15.61 c 9.14 -1.48 12.23 12.42 3 15.2 c -0.79 0.3 -1.61 0.3 -2.42 0.41" style="fill:#ff8c00"/><path d="m 3.26 12.51 c -0.04 -0.02 -0.05 -0.32 -0.05 -1.29 c 0 -1.41 0.01 -1.48 0.3 -1.68 c 0.25 -0.18 0.61 -0.09 0.77 0.19 c 0.07 0.13 0.09 0.22 0.09 0.78 c 0 0.35 0.01 0.66 0.03 0.7 c 0.02 0.06 0.14 0.07 0.88 0.07 c 0.47 0 0.93 0.02 1.02 0.05 c 0.09 0.02 0.21 0.11 0.29 0.2 c 0.11 0.13 0.13 0.2 0.13 0.38 c 0 0.19 -0.02 0.25 -0.14 0.39 c -0.09 0.1 -0.2 0.17 -0.31 0.2 c -0.18 0.04 -2.9 0.05 -3 0.01 m 6.26 -0.02 c -0.09 -0.02 -0.21 -0.11 -0.29 -0.2 c -0.12 -0.14 -0.14 -0.2 -0.14 -0.39 c 0 -0.18 0.02 -0.25 0.13 -0.38 c 0.07 -0.09 0.2 -0.18 0.29 -0.2 c 0.09 -0.03 0.54 -0.05 1.02 -0.05 c 0.75 0 0.86 -0.01 0.89 -0.07 c 0.01 -0.04 0.02 -0.36 0.02 -0.7 c 0 -0.55 0.01 -0.65 0.09 -0.78 c 0.17 -0.28 0.52 -0.37 0.77 -0.19 c 0.28 0.2 0.29 0.27 0.29 1.68 c 0 1.11 -0.01 1.27 -0.07 1.29 c -0.1 0.04 -2.83 0.02 -3 -0.02 m -5.96 -5.56 c -0.08 -0.04 -0.18 -0.14 -0.23 -0.21 c -0.09 -0.14 -0.09 -0.17 -0.09 -1.46 v -1.33 l 1.49 -0.01 c 1.41 -0.01 1.5 -0.01 1.66 0.08 c 0.43 0.22 0.44 0.83 0.02 1.06 c -0.1 0.05 -0.31 0.07 -1.04 0.07 c -0.65 0 -0.93 0.02 -0.96 0.05 c -0.04 0.04 -0.05 0.27 -0.05 0.74 c 0 0.68 0 0.69 -0.11 0.83 c -0.12 0.15 -0.33 0.27 -0.47 0.27 c -0.04 0 -0.14 -0.03 -0.21 -0.07 m 8.24 0.01 c -0.07 -0.04 -0.18 -0.13 -0.25 -0.21 c -0.11 -0.14 -0.12 -0.15 -0.12 -0.83 c 0 -0.47 -0.02 -0.7 -0.05 -0.74 c -0.04 -0.04 -0.31 -0.05 -0.96 -0.05 c -0.98 0 -1.07 -0.02 -1.24 -0.25 c -0.11 -0.15 -0.12 -0.46 -0.02 -0.65 c 0.04 -0.07 0.15 -0.17 0.25 -0.22 c 0.16 -0.09 0.25 -0.09 1.66 -0.08 l 1.49 0.01 l 0.01 1.27 c 0.01 1.11 0 1.29 -0.06 1.43 c -0.14 0.3 -0.46 0.44 -0.72 0.32" style="fill:#fff"/></svg>