<svg xmlns="http://www.w3.org/2000/svg" viewBox="0 0 16 16"><path d="m 1.53 3.76 c -8.7 15.9 23.1 16.65 12.15 0.26 c -2.89 -4.22 -9.81 -6.27 -12.15 -0.26" style="fill:#ff8c00"/><path d="m 10.63 13.59 c -1.28 -1.1 -1.73 -1.01 -3.96 -3.71 l -2.41 -2.9 l -0.95 -1.4 c -1.11 -1.65 -0.7 -1.05 -0.63 -1.05 c 0.03 0 0.34 0 1.11 0.6 l 1.41 1.09 l 2.55 2.77 l 2.55 2.77 l 0.88 1.45 c 0.11 0.58 0.65 1.45 0.41 1.13 c -0.02 0 -0.23 -0.11 -0.97 -0.74 m 2.21 -0.7 c -1.02 -2.77 -1.37 -3.49 -2.47 -5.12 c -1.07 -1.61 -1.95 -2.32 -4.66 -3.84 c -0.47 -0.26 -0.63 -0.4 -0.47 -0.4 c 0.12 0 0.92 0.18 1.39 0.32 c 1.7 0.49 3.23 1.27 4.05 2.08 c 0.57 0.56 1.34 1.84 1.64 2.72 c 0.28 0.82 0.54 2.43 0.64 3.9 c 0.02 0.32 0.02 0.59 0 0.59 c -0.02 0 -0.07 -0.11 -0.12 -0.24" style="fill:#fff"/></svg>