<svg xmlns="http://www.w3.org/2000/svg" viewBox="0 0 16 16"><path d="m 2.86 2.45 c -12.5 16.45 21.91 18.79 10.86 1.99 c -2.52 -3.83 -7.55 -6.35 -10.86 -1.99" style="fill:#ff8c00"/><path d="m 7.6 4.13 c -1.07 0 -1.93 0.91 -1.93 2.04 c 0 0.12 0.01 0.29 0.02 0.45 c -0.18 0.09 -0.2 0.49 -0.04 0.9 c 0.06 0.16 0.14 0.29 0.23 0.39 c 0.02 0.12 0.02 0.17 0.04 0.3 c 0.07 0.25 0.35 0.72 0.61 1.11 c 0.03 0.3 0.05 0.61 0 0.95 c -0.75 0.7 -2.69 1 -2.69 1.74 l -0.04 0.28 h 7.58 l -0.04 -0.28 c 0 -0.63 -1.94 -1 -2.68 -1.74 c -0.03 -0.28 -0.04 -0.56 -0.02 -0.84 c 0.23 -0.41 0.55 -0.96 0.63 -1.23 c 0.03 -0.14 0.04 -0.23 0.06 -0.35 c 0.07 -0.1 0.13 -0.21 0.18 -0.35 c 0.15 -0.39 0.14 -0.77 -0.02 -0.88 c 0.01 -0.16 0.02 -0.33 0.02 -0.47 c 0 -1.13 -0.86 -2.04 -1.93 -2.04" style="fill:#fff;fill-rule:evenodd"/><path d="m -551.8 780.8 h 7.22 c 2.37 -0.02 4.35 1.81 4.36 4.07 v 73.7 c 0.01 2.25 -2 4.06 -4.37 4.09 h -7.22 c -2.43 -0.04 -4.35 -1.88 -4.36 -4.13 v -73.7 c -0.01 -2.25 1.94 -4.06 4.37 -4.09" transform="matrix(0 -0.068 0.059 0 -36.3 -26.82)" style="fill:#ff4500;stroke:#ff4500;stroke-linecap:round;stroke-width:1.48"/></svg>