<svg xmlns="http://www.w3.org/2000/svg" viewBox="0 0 16 16"><path d="m 13.17 2.45 c 12.5 16.45 -21.91 18.79 -10.86 1.99 c 2.52 -3.83 7.55 -6.35 10.86 -1.99" style="fill:#ff8c00"/><path d="m 8.27 4.36 c 1.07 0 1.93 0.91 1.93 2.04 c 0 0.12 -0.01 0.29 -0.02 0.44 c 0.18 0.09 0.2 0.49 0.04 0.91 c -0.06 0.16 -0.14 0.29 -0.23 0.39 c -0.02 0.12 -0.02 0.17 -0.04 0.3 c -0.07 0.24 -0.36 0.72 -0.62 1.11 c -0.02 0.3 -0.05 0.61 0 0.95 c 0.75 0.71 2.69 1 2.69 1.74 l 0.04 0.28 h -7.58 l 0.04 -0.28 c 0 -0.63 1.94 -1 2.68 -1.74 c 0.03 -0.28 0.04 -0.56 0.02 -0.83 c -0.23 -0.42 -0.55 -0.96 -0.63 -1.23 c -0.03 -0.14 -0.04 -0.23 -0.06 -0.35 c -0.07 -0.1 -0.13 -0.21 -0.18 -0.35 c -0.15 -0.39 -0.14 -0.77 0.02 -0.88 c -0.01 -0.16 -0.02 -0.33 -0.02 -0.46 c 0 -1.13 0.86 -2.04 1.93 -2.04" style="fill:#fff;fill-rule:evenodd"/><path d="m 2.86 10.72 c -0.69 -0.38 -1.25 -0.71 -1.25 -0.74 c 0 -0.06 2.41 -1.36 2.66 -1.43 c 0.16 -0.04 0.2 0.04 0.2 0.41 v 0.46 h 3.27 c 0 0.37 0 0.74 0 1.11 h -3.27 v 0.45 c 0 0.3 -0.06 0.45 -0.17 0.45 c -0.09 0 -0.74 -0.32 -1.43 -0.71" style="fill:#ff4500"/></svg>