<svg xmlns="http://www.w3.org/2000/svg" viewBox="0 0 16 16"><path d="m 8.15 15.91 c -1.65 -0.13 -3.58 -0.92 -4.92 -2 c -1.64 -1.33 -2.84 -3.37 -3.16 -5.39 c -0.39 -2.66 1.16 -5.52 2.91 -6.87 c 0.88 -0.66 2.04 -1.18 3.12 -1.41 c 2.83 -0.6 5.79 0.54 7.81 3 c 1.21 1.48 1.84 2.96 2 4.73 c 0.18 2.11 -0.65 4.37 -2.17 5.9 c -1.73 1.44 -3.52 2.21 -5.58 2.07" style="fill:#ff8c00"/><path d="m 7.37 12.7 c -1.02 -0.15 -1.94 -0.62 -2.67 -1.34 c -1.84 -1.85 -1.84 -4.8 0 -6.64 c 0.72 -0.72 1.56 -1.15 2.59 -1.33 c 1.12 -0.2 1.84 0.07 2.23 0.83 c 0.11 0.22 0.13 0.32 0.13 0.67 c 0 0.38 -0.01 0.45 -0.16 0.73 c -0.3 0.55 -0.7 0.78 -1.46 0.85 c -0.74 0.06 -1.2 0.35 -1.46 0.93 c -0.15 0.32 -0.15 0.97 0 1.29 c 0.15 0.32 0.43 0.61 0.75 0.77 c 0.24 0.12 0.34 0.14 0.7 0.14 c 0.36 0 0.46 -0.02 0.69 -0.14 c 0.26 -0.13 0.66 -0.49 0.84 -0.77 c 0.47 1.74 1.82 1.07 2.78 0.03 c 0.37 0.34 -0.39 1.89 -0.65 2.25 c -0.89 1.24 -2.7 1.98 -4.31 1.74" style="fill:#fff"/></svg>