<svg xmlns="http://www.w3.org/2000/svg" viewBox="0 0 16 16"><path d="m 8.15 15.91 c -1.65 -0.13 -3.58 -0.92 -4.92 -2 c -1.64 -1.33 -2.84 -3.37 -3.16 -5.39 c -0.39 -2.66 1.16 -5.52 2.91 -6.87 c 0.88 -0.66 2.04 -1.18 3.12 -1.41 c 2.83 -0.6 5.79 0.54 7.81 3 c 1.21 1.48 1.84 2.96 2 4.73 c 0.18 2.11 -0.65 4.37 -2.17 5.9 c -1.73 1.44 -3.52 2.21 -5.58 2.07" style="fill:#ff8c00"/><path d="m 8.51 3.38 c 1.02 0.13 1.95 0.58 2.69 1.29 c 1.88 1.81 1.93 4.76 0.12 6.64 c -0.71 0.73 -1.54 1.18 -2.57 1.37 c -1.12 0.21 -1.84 -0.04 -2.25 -0.79 c -0.12 -0.21 -0.14 -0.31 -0.15 -0.67 c -0.01 -0.38 0 -0.44 0.15 -0.73 c 0.29 -0.55 0.68 -0.79 1.44 -0.87 c 0.74 -0.08 1.19 -0.38 1.45 -0.95 c 0.14 -0.32 0.13 -0.97 -0.02 -1.29 c -0.16 -0.32 -0.44 -0.6 -0.76 -0.75 c -0.24 -0.11 -0.34 -0.13 -0.7 -0.13 c -0.36 0.01 -0.46 0.03 -0.69 0.15 c -0.25 0.13 -0.64 0.51 -0.82 0.79 c -0.5 -1.73 -1.84 -1.03 -2.78 0.02 c -0.37 -0.33 0.36 -1.9 0.61 -2.26 c 0.87 -1.26 2.67 -2.02 4.28 -1.82" style="fill:#fff"/></svg>