<svg xmlns="http://www.w3.org/2000/svg" viewBox="0 0 16 16"><path d="m 8.15 15.91 c -1.65 -0.13 -3.58 -0.92 -4.92 -2 c -1.64 -1.33 -2.84 -3.37 -3.16 -5.39 c -0.39 -2.66 1.16 -5.52 2.91 -6.87 c 0.88 -0.66 2.04 -1.18 3.12 -1.41 c 2.83 -0.6 5.79 0.54 7.81 3 c 1.21 1.48 1.84 2.96 2 4.73 c 0.18 2.11 -0.65 4.37 -2.17 5.9 c -1.73 1.44 -3.52 2.21 -5.58 2.07" style="fill:#ff8c00"/><path d="m 4.9 11.56 c -0.77 -0.69 -1.28 -1.58 -1.48 -2.59 c -0.52 -2.56 1.11 -5 3.67 -5.54 c 1 -0.2 1.93 -0.09 2.89 0.33 c 1.04 0.46 1.49 1.08 1.4 1.93 c -0.03 0.25 -0.06 0.34 -0.26 0.64 c -0.21 0.32 -0.25 0.36 -0.54 0.51 c -0.55 0.29 -1.01 0.27 -1.68 -0.1 c -0.65 -0.36 -1.19 -0.37 -1.73 -0.03 c -0.3 0.18 -0.66 0.72 -0.71 1.07 c -0.06 0.35 0.02 0.74 0.2 1.05 c 0.14 0.23 0.21 0.3 0.5 0.5 c 0.3 0.2 0.39 0.24 0.65 0.27 c 0.29 0.04 0.82 -0.05 1.13 -0.18 c -0.57 1.71 0.93 1.89 2.3 1.56 c 0.12 0.48 -1.38 1.36 -1.79 1.52 c -1.42 0.55 -3.34 0.16 -4.55 -0.93" style="fill:#fff"/></svg>