<svg xmlns="http://www.w3.org/2000/svg" viewBox="0 0 16 16"><path d="m 8.15 15.91 c -1.65 -0.13 -3.58 -0.92 -4.92 -2 c -1.64 -1.33 -2.84 -3.37 -3.16 -5.39 c -0.39 -2.66 1.16 -5.52 2.91 -6.87 c 0.88 -0.66 2.04 -1.18 3.12 -1.41 c 2.83 -0.6 5.79 0.54 7.81 3 c 1.21 1.48 1.84 2.96 2 4.73 c 0.18 2.11 -0.65 4.37 -2.17 5.9 c -1.73 1.44 -3.52 2.21 -5.58 2.07" style="fill:#ff8c00"/><path d="m 11.15 4.53 c 0.75 0.7 1.25 1.61 1.44 2.63 c 0.47 2.57 -1.21 4.99 -3.77 5.46 c -1 0.18 -1.93 0.06 -2.89 -0.38 c -1.03 -0.48 -1.47 -1.11 -1.37 -1.95 c 0.03 -0.24 0.07 -0.34 0.27 -0.63 c 0.21 -0.32 0.26 -0.36 0.55 -0.5 c 0.55 -0.28 1.02 -0.25 1.68 0.13 c 0.65 0.37 1.19 0.39 1.73 0.07 c 0.3 -0.18 0.67 -0.71 0.73 -1.06 c 0.06 -0.35 0 -0.74 -0.18 -1.05 c -0.13 -0.23 -0.2 -0.3 -0.49 -0.51 c -0.29 -0.2 -0.39 -0.24 -0.65 -0.28 c -0.29 -0.04 -0.82 0.04 -1.12 0.16 c 0.6 -1.7 -0.89 -1.91 -2.27 -1.61 c -0.11 -0.48 1.4 -1.34 1.81 -1.48 c 1.43 -0.52 3.35 -0.09 4.54 1.02" style="fill:#fff"/></svg>