<svg xmlns="http://www.w3.org/2000/svg" viewBox="0 0 16 16"><path d="m 2.03 11.91 c -5.66 -6.39 2.72 -13.16 7.63 -11.5 c 4.91 1.66 8.2 6.36 5 10.47 c -3.21 4.12 -6.36 8.1 -12 1.7" style="fill:#ff8c00"/><g transform="matrix(0.057 0 0 -0.059 0.71 16.21)" style="fill:#fff;stroke:#fff"><path d="m 101 233.5 c -5 -2.24 -7.36 -5.53 -6.33 -8.75 c 0.41 -1.18 5.5 -7.31 11.35 -13.56 c 15.54 -16.72 18.91 -24.35 10.66 -24.42 c -5.98 0 -8.25 -1.12 -9.49 -4.61 c -0.69 -2.04 -1.1 -15.53 -1.1 -35.41 c 0 -27.38 0.21 -32.51 1.65 -34.55 c 1.65 -2.3 2.34 -2.44 19.39 -2.44 h 17.67 l 1.24 2.76 c 0.83 1.91 1.24 13.29 1.24 36.85 v 34.1 l -2.41 1.32 c -1.38 0.72 -4.4 1.65 -6.74 1.97 c -4.54 0.59 -4.61 0.66 -9.21 10.86 c -1.17 2.7 -6.33 9.61 -11.41 15.33 c -5.09 5.79 -9.28 11.1 -9.28 11.71 c 0 1.45 2.96 1.45 16.3 0.07 c 9.21 -0.99 10.45 -0.92 11.62 0.72 c 1.99 2.7 1.72 6.65 -0.48 7.31 c -10.66 3.22 -28.33 3.62 -34.66 0.72" style="stroke-width:2.28"/><g style="stroke-width:1.51"><path d="m 117.4 49.62 c -0.83 -2.11 0.14 -8.88 1.51 -10.4 c 1.1 -1.25 2.2 -1.45 7.98 -1.45 c 6.33 0 6.67 0.13 8.11 1.91 c 1.65 2.17 2.06 8.69 0.62 10.13 c -0.55 0.59 -3.71 0.86 -9.35 0.86 c -6.95 0 -8.53 -0.2 -8.87 -1.05"/><path d="m 120.3 71.7 c -0.83 -0.2 -1.86 -0.72 -2.34 -1.12 c -1.03 -0.86 -1.24 -9 -0.21 -10.6 c 0.83 -1.32 13.68 -1.97 16.71 -0.79 c 1.86 0.72 1.93 0.99 1.93 5.73 c 0 3.62 -0.28 5.2 -1.1 5.86 c -1.17 0.99 -12.31 1.65 -14.99 0.92"/><path d="m 121.8 92.5 c -1.58 -0.2 -3.3 -0.86 -3.78 -1.51 c -1.17 -1.45 -1.17 -9.61 -0.07 -10.79 c 0.62 -0.53 3.64 -0.86 8.94 -0.86 c 7.29 0 8.18 0.13 8.87 1.38 c 1.03 1.97 0.89 8.88 -0.21 10.27 c -0.96 1.25 -8.46 2.04 -13.75 1.51"/><path d="m 119.4 102.3 c -0.89 -0.39 -1.65 -0.99 -1.65 -1.32 c 0 -1.18 2.13 -1.58 9.28 -1.58 c 5.36 0 7.29 0.26 7.91 1.05 c 0.76 0.92 0.62 1.25 -1.03 1.84 c -2.34 0.86 -12.31 0.86 -14.51 0"/></g></g></svg>