<svg xmlns="http://www.w3.org/2000/svg" viewBox="0 0 16 16"><g style="fill:#ff8c00"><path d="m 14.32 12.63 c 7.89 -11.83 -17.26 -19.1 -13.93 -3.82 c 1.42 6.32 10.32 10.15 13.93 3.82"/><path d="m 7.83 3.46 c -0.01 0 -0.02 0 -0.02 0 c -0.09 0 -0.18 0.05 -0.22 0.11 l -2.57 3.52 c -0.05 0.06 -0.05 0.15 0 0.21 c 0.05 0.07 0.14 0.11 0.23 0.11 h 1.43 v 4 c 0 0.27 0.22 0.48 0.49 0.48 h 1.31 c 0.27 0 0.48 -0.21 0.48 -0.48 v -4 h 1.44 c 0.09 0 0.18 -0.04 0.23 -0.11 c 0.05 -0.06 0.05 -0.15 0 -0.21 l -1.29 -1.76 l -1.29 -1.76 c -0.05 -0.06 -0.13 -0.1 -0.22 -0.11"/><path d="m 7.83 3.46 c -0.01 0 -0.02 0 -0.02 0 c -0.09 0 -0.18 0.04 -0.22 0.11 l -1.29 1.76 l -1.29 1.76 c -0.05 0.07 -0.05 0.15 0 0.21 c 0.05 0.06 0.14 0.11 0.23 0.11 h 1.43 v 4 c 0 0.27 0.22 0.48 0.49 0.48 h 0.67 v -8.44 c 0 0 0 0 0 0"/></g><g style="fill:#fff"><path d="m 4.06 4.15 l 0.31 0.61 c 0.27 0.18 0.55 0.39 0.77 0.64 l 5.67 6.49 l 0.49 -0.45 l -5.67 -6.49 c -0.22 -0.25 -0.42 -0.56 -0.53 -0.86 l -0.56 -0.39 l -0.49 0.45"/><path d="m 8.13 9.48 l 0.35 0.4 c 0.21 0.04 0.42 0.15 0.59 0.34 c 0.17 0.19 0.26 0.42 0.28 0.64 l 1.66 1.9 c 0.38 0.44 1.52 -0.59 1.13 -1.04 l -1.66 -1.91 c -0.21 -0.04 -0.43 -0.16 -0.59 -0.35 c -0.17 -0.19 -0.25 -0.41 -0.27 -0.63 l -0.35 -0.4 l -1.14 1.04"/></g><path d="m 8.14 9.48 l 1.13 -1.04 l 0.05 0.06 l -1.14 1.04" style="fill:#ff4500;fill-opacity:0.49"/></svg>