<svg xmlns="http://www.w3.org/2000/svg" viewBox="0 0 16 16"><path d="m 14.68 12 c 4.29 -5.61 -2.57 -12.85 -8.09 -11.83 c -5.44 0.53 -8.72 8.73 -4.52 13.1 c 3.07 3.14 8.32 4.34 12.61 -1.26" style="fill:#ff8c00"/><g style="fill:#fff"><path d="m 4.93 5.2 h 5.68 c 0.46 0 0.83 0.27 0.83 0.61 c 0 0.34 -0.37 0.61 -0.83 0.61 h -5.68 c -0.46 0 -0.83 -0.27 -0.83 -0.61 c 0 -0.34 0.38 -0.61 0.83 -0.61"/><path d="m 4.95 7.45 h 3.13 c 0.46 0 0.83 0.27 0.83 0.61 c 0 0.34 -0.38 0.61 -0.83 0.61 h -3.13 c -0.46 0 -0.83 -0.27 -0.83 -0.61 c 0 -0.34 0.37 -0.61 0.83 -0.61"/><path d="m 4.89 9.79 h 5.68 c 0.46 0 0.83 0.27 0.83 0.61 c 0 0.34 -0.38 0.61 -0.83 0.61 h -5.68 c -0.46 0 -0.83 -0.27 -0.83 -0.61 c 0 -0.34 0.37 -0.61 0.83 -0.61"/></g></svg>