<svg xmlns="http://www.w3.org/2000/svg" viewBox="0 0 16 16"><path d="m 4.21 15.27 c -7.56 -3.15 -4.19 -15.34 4.05 -15.27 c 7.48 -0.12 10.32 9.57 4.99 13.82 c -2.3 2.13 -6.13 2.87 -9 1.44" style="fill:#ff8c00"/><path d="m 12.75 10.82 c -0.4 -0.33 -1.1 -0.63 -1.16 -0.81 c 0 -0.41 0.02 -0.42 0.06 -0.6 c 0.21 0.01 0.33 0.02 0.89 0.15 c 0.59 0.17 0.64 -0.11 0.55 0.78 c -0.13 0.44 0 0.7 -0.34 0.48" style="fill:#fff"/><path d="m 9.1 6.08 c 0 0.5 -0.73 0.89 -1.64 0.89 c -0.91 0 -1.64 -0.4 -1.64 -0.89 c 0 -0.49 0.73 -0.89 1.64 -0.89 c 0.91 0 1.64 0.4 1.64 0.89" style="fill:#ffe4c3"/><g style="fill:#fff"><path d="m 6.83 11 c -0.75 -0.18 -1.1 -0.3 -1.41 -0.5 c -0.55 -0.35 -0.82 -0.66 -1 -1.15 l -0.15 -0.42 l 0.14 -0.75 c 0.08 -0.41 0.23 -1.16 0.34 -1.66 c 0.09 -0.56 0.13 -0.84 0.48 -1.22 c 0.46 -0.5 1.15 -0.8 1.98 -0.88 c 0.66 -0.01 1.14 0.14 1.76 0.45 c 0.29 0.15 0.45 0.19 0.81 0.21 c 0.36 0.02 0.57 -0.04 0.57 0.04 c 0.02 1.04 0 2.41 0.12 3 c 0.08 0.38 0.13 0.75 0.11 0.82 c -0.09 0.35 -0.37 0.89 -0.58 1.12 c -0.6 0.68 -2.21 1.14 -3.18 0.91 m 1.75 -4.06 c 0.38 -0.16 0.71 -0.46 0.79 -0.74 c 0.12 -0.39 -0.21 -0.85 -0.79 -1.09 c -0.4 -0.16 -1.32 -0.22 -1.82 -0.12 c -1.58 0.34 -1.66 1.63 -0.13 2.05 c 0.65 0.07 1.38 0.14 1.95 -0.1"/><path d="m 3.22 9.84 c -0.1 -0.06 -0.16 -0.28 -0.24 -0.82 c -0.04 -1.79 0.48 -2.11 1.75 -2.85 c -0.13 0.32 -0.18 0.64 -0.23 0.98 c -1 0.57 -1.13 0.83 -1.14 1.79 c -0.01 0.72 -0.04 0.97 -0.14 0.9"/><path d="m 11.66 9.2 c -0.18 -1.11 -0.28 -1.48 -1.11 -1.91 c 0.05 -0.42 0 -0.66 -0.04 -1.27 c 1.15 0.26 2.34 1.27 2.5 2.85 c 0.01 0.2 0.18 0.56 0 0.6 c -0.64 -0.13 -0.79 -0.2 -1.35 -0.28"/></g></svg>