<svg xmlns="http://www.w3.org/2000/svg" viewBox="0 0 16 16"><path d="m 6.07 0.35 c -8.12 1.23 -7.95 13.48 0.04 15.32 c 6.48 1.9 11.5 -5 9.22 -10.15 c -1.11 -3.46 -5.27 -6.25 -9.27 -5.18" style="fill:#ff8c00"/><g style="fill:#fff"><path d="m 6.84 12.54 c -0.57 -0.11 -0.61 -0.02 -0.66 -1.12 c -0.04 -0.8 -0.02 -0.9 0.09 -1.04 c 0.21 -0.26 0.52 -0.2 1.93 -0.17 c 1 0.02 1.53 0.05 1.93 -0.14 c 0.3 -0.13 0.08 -0.84 -0.03 -0.94 c -0.9 -0.33 -3.16 0 -3.69 -0.15 c -0.3 -0.42 -0.21 -0.73 -0.21 -1.02 c 0 -1.02 0.05 -1.29 0.66 -1.34 c 1.52 -0.01 2.87 -0.05 4.39 0.05 c 0.49 0.12 0.73 0.18 0.91 0.57 c 0.17 0.37 0.2 0.65 0.23 1.89 c 0.02 1.09 -0.02 1.91 -0.1 2.28 c -0.06 0.27 -0.21 0.51 -0.46 0.75 c -0.34 0.35 -3.86 0.43 -4.98 0.37 m 0.61 -0.49 c 0.1 -0.08 0.11 -0.58 0.11 -0.95 c 0 -0.46 -0.09 -0.45 -0.38 -0.49 c -0.17 -0.02 -0.44 -0.03 -0.51 0.19 c -0.07 0.23 -0.07 1.08 0 1.22 c -0.05 0.22 0.84 0.38 0.79 0.03 m -0.09 -3.39 c 0.18 -0.17 0.3 -1.1 0.2 -1.44 c -0.07 -0.23 -0.55 -0.12 -0.79 -0.11 c -0.24 0.05 -0.19 1.43 -0.05 1.53 c 0.16 0.11 0.54 0.11 0.64 0.02"/><path d="m 4.85 4.47 c 0 0.31 -0.26 0.56 -0.59 0.56 c -0.33 0 -0.59 -0.25 -0.59 -0.56 c 0 -0.31 0.26 -0.56 0.59 -0.56 c 0.33 0 0.59 0.25 0.59 0.56"/><path d="m 4.76 6.54 c 0 0.31 -0.27 0.56 -0.59 0.56 c -0.32 0 -0.59 -0.25 -0.59 -0.56 c 0 -0.31 0.27 -0.56 0.59 -0.56 c 0.33 0 0.59 0.25 0.59 0.56"/><path d="m 4.76 8.73 c 0 0.31 -0.27 0.56 -0.59 0.56 c -0.32 0 -0.59 -0.25 -0.59 -0.56 c 0 -0.31 0.27 -0.56 0.59 -0.56 c 0.33 0 0.59 0.25 0.59 0.56"/><path d="m 4.7 10.82 c 0 0.31 -0.27 0.56 -0.59 0.56 c -0.32 0 -0.59 -0.25 -0.59 -0.56 c 0 -0.31 0.27 -0.56 0.59 -0.56 c 0.33 0 0.59 0.25 0.59 0.56"/><path d="m 6.98 4.47 c 0 0.31 -0.27 0.56 -0.59 0.56 c -0.32 0 -0.59 -0.25 -0.59 -0.56 c 0 -0.31 0.27 -0.56 0.59 -0.56 c 0.33 0 0.59 0.25 0.59 0.56"/><path d="m 9.14 4.47 c 0 0.31 -0.27 0.56 -0.59 0.56 c -0.33 0 -0.59 -0.25 -0.59 -0.56 c 0 -0.31 0.27 -0.56 0.59 -0.56 c 0.32 0 0.59 0.25 0.59 0.56"/><path d="m 11.38 4.5 c 0 0.31 -0.26 0.56 -0.59 0.56 c -0.33 0 -0.59 -0.25 -0.59 -0.56 c 0 -0.31 0.26 -0.56 0.59 -0.56 c 0.33 0 0.59 0.25 0.59 0.56"/></g></svg>