<svg xmlns="http://www.w3.org/2000/svg" xmlns:xlink="http://www.w3.org/1999/xlink" viewBox="0 0 16 16"><defs><g id="3" style="clip-path:url(#2)"><path d="m 4.38 4.67 c 2.29 -0.04 4.84 0.11 7.35 0.1 c 0.76 1.04 0.79 5.27 -0.14 6.68 c -1.67 0.45 -5.62 0 -7.4 0.01 c -0.82 -1.71 -0.94 -5.61 0.19 -6.79" style="fill:#fff"/></g><clipPath id="2"><path d="M 0,0 H16 V16 H0 z"/></clipPath><filter id="0" filterUnits="objectBoundingBox" x="0" y="0" width="16" height="16"><feColorMatrix type="matrix" in="SourceGraphic" values="0 0 0 0 1 0 0 0 0 1 0 0 0 0 1 0 0 0 1 0"/></filter><mask id="1"><g style="filter:url(#0)"><path d="M 0,0 H16 V16 H0 z" style="fill-opacity:0.5"/></g></mask></defs><path d="m 3.45 1.7 c 7.9 -5.71 16.71 4.84 10.37 11.57 c -5.97 6.34 -16 0.46 -13.36 -7.43 c 0.55 -1.64 1.53 -3.09 2.98 -4.14" style="fill:#ff8c00"/><path d="m 4.46 12.23 c -0.45 -0.11 -1.13 -1 -1.23 -1.51 c -0.03 -0.15 -0.05 -1.23 -0.05 -2.64 c 0 -2.91 -0.02 -2.77 0.53 -3.45 c 0.64 -0.79 0.3 -0.73 3.97 -0.75 c 3.57 -0.02 3.66 -0.01 4 0.34 c 0.42 0.42 0.75 0.87 0.83 1.15 c 0.05 0.16 0.06 0.82 0.06 2.71 c 0 1.38 -0.02 2.59 -0.04 2.71 c -0.21 0.44 -0.69 1.16 -1.08 1.41 c -0.15 0.08 -6.61 0.11 -7 0.03 m 6.68 -0.99 c 0.21 -0.27 0.46 -0.47 0.61 -0.8 c 0.07 -0.17 0.07 -4.51 0 -4.74 c -0.27 -0.29 -0.46 -0.57 -0.71 -0.86 h -3.17 c -2.08 0 -3.2 0.02 -3.26 0.06 c -0.15 0.3 -0.58 0.7 -0.63 0.88 c -0.05 0.25 -0.06 4.11 0 4.47 c 0.16 0.48 0.41 0.71 0.66 1.06 h 3.2 c 0.97 -0.04 3.18 -0.01 3.3 -0.07" style="fill:#fff"/><use xlink:href="#3" style="mask:url(#1)"/></svg>