<svg xmlns="http://www.w3.org/2000/svg" viewBox="0 0 16 16"><path d="m 7.61 15.91 c 1.64 -0.01 3.59 -0.66 4.95 -1.66 c 1.67 -1.21 2.93 -3.17 3.3 -5.15 c 0.46 -2.62 -0.98 -5.59 -2.68 -7.1 c -0.85 -0.72 -1.98 -1.33 -3.06 -1.63 c -2.79 -0.8 -5.76 0.12 -7.85 2.43 c -1.25 1.39 -1.92 2.82 -2.13 4.57 c -0.25 2.09 0.51 4.41 1.98 6 c 1.68 1.56 3.43 2.46 5.47 2.46" style="fill:#ff8c00"/><path d="m 4.63 4.28 h 7.17 v 7 h -7.17" style="fill:#fff"/><path d="m 4.66 11 l 0.86 -0.41 c 1.16 -0.55 1.37 -0.67 1.95 -1.07 c 1.09 -0.77 1.89 -1.59 2.72 -2.79 c 0.49 -0.71 0.82 -1.28 1.23 -2.12 l 0.14 -0.31 c 0.08 0 0.16 0 0.23 0 c 0 0.15 0 0.3 0 0.45 l -0.32 0.63 c -0.34 0.66 -0.49 0.93 -0.79 1.38 c -0.89 1.35 -1.73 2.25 -2.84 3.06 c -0.59 0.43 -0.95 0.64 -2.14 1.2 l -0.54 0.26 c -0.18 0 -0.35 0 -0.52 0 c 0 -0.1 0.01 -0.18 0.01 -0.28" style="fill:#ff8c00"/><g style="fill:#fff"><path d="m 3.51 6.18 h 0.51 v 5.11 h -0.51"/><path d="m 10.65 11.8 v 0.51 h -6.09 v -0.51"/></g></svg>