<svg xmlns="http://www.w3.org/2000/svg" viewBox="0 0 16 16"><path d="m 15.22 5.09 c 5.96 19.29 -26.1 9.64 -11.1 -3.57 c 3 -2.65 9.48 -1.63 11.1 3.57" style="fill:#ff8c00"/><g style="fill:#fff"><path d="m 5.29 3.77 h 3.77 c 0.46 0 0.84 0.38 0.84 0.84 v 3.73 c 0 0.46 -0.38 0.84 -0.84 0.84 h -3.77 c -0.46 0 -0.84 -0.38 -0.84 -0.84 v -3.73 c 0 -0.46 0.38 -0.84 0.84 -0.84"/><path d="m 13.48 10.72 c 0 1.52 -1.19 2.75 -2.67 2.75 c -1.47 0 -2.66 -1.23 -2.66 -2.75 c 0 -1.52 1.19 -2.75 2.66 -2.75 c 1.48 0 2.67 1.23 2.67 2.75"/></g><g style="fill:#ff8c00"><path d="m 12.4 10.73 c 0 0.89 -0.73 1.62 -1.62 1.62 c -0.89 0 -1.61 -0.72 -1.61 -1.62 c 0 -0.89 0.72 -1.61 1.61 -1.61 c 0.89 0 1.62 0.72 1.62 1.61"/><path d="m 6.56 8.54 c -0.55 -0.75 -1.72 -1.3 -1.44 -1.59 c 0.04 -0.19 0.46 -0.48 0.56 -0.56 c 0.33 -0.35 0.68 0.73 0.93 0.57 c 0.59 -0.69 1.09 -1.79 1.45 -2.54 c 0.79 0.18 1.22 0.75 1.14 1.13 c -0.68 1.04 -1.4 1.79 -2.2 2.71 c -0.11 0.13 -0.24 0.25 -0.29 0.27 c -0.06 0.04 -0.1 0.03 -0.16 0.02"/></g><path d="m 6.23 12.94 c -0.11 -0.09 -0.11 -0.1 -0.14 -0.43 c -0.03 -0.38 -0.08 -0.48 -0.26 -0.56 c -0.1 -0.05 -0.16 -0.05 -0.68 -0.02 c -0.55 0.07 -0.56 0.04 -0.91 -0.29 v -0.63 c 0.01 -1 0.05 -1.2 0.27 -1.29 c 0.14 -0.04 0.33 0 0.41 0.14 c 0.13 0.36 -0.08 0.82 0.12 1.16 c 0.15 0.23 0.51 0.34 0.75 0.21 c 0.15 -0.08 0.3 -0.29 0.36 -0.51 c 0.13 -0.42 0.39 -0.41 0.9 0.03 c 0.13 0.11 0.34 0.28 0.47 0.37 c 0.37 0.26 0.5 0.5 0.39 0.71 c -0.09 0.16 -0.98 0.95 -1.25 1.12 c -0.18 0.08 -0.32 0.07 -0.43 -0.02" style="fill:#fff"/></svg>