<svg xmlns="http://www.w3.org/2000/svg" viewBox="0 0 16 16"><path d="m 7.36 15.89 c 9.5 0.91 12.1 -14.42 2.3 -15.61 c -8.98 -1.48 -13.59 12.42 -4.68 15.2 c 0.75 0.3 1.58 0.3 2.38 0.41" style="fill:#ff8c00"/><g style="fill:#fff"><path d="m 5.51 4.23 c -0.19 0.08 -0.32 0.22 -0.54 0.57 c -0.29 0.35 -0.18 0.8 -0.18 1.23 c 0 0.52 0.02 1 0.05 1.07 c 0.08 0.2 0.5 0.68 0.68 0.76 c 0.22 0.11 0.72 0.1 0.95 -0.02 c 0.2 -0.1 0.43 -0.35 0.53 -0.6 c 0.11 -0.25 0.1 -2.14 0 -2.39 c -0.12 -0.28 -0.36 -0.54 -0.57 -0.62 c -0.23 -0.09 -0.71 -0.09 -0.91 0 m 0.75 0.81 c 0.09 0.06 0.1 0.14 0.11 0.98 c 0.01 0.6 0 0.95 -0.04 1 c -0.05 0.08 -0.11 0.1 -0.32 0.1 c -0.36 0 -0.41 -0.07 -0.45 -0.67 c -0.05 -0.64 0.02 -1.27 0.14 -1.39 c 0.11 -0.11 0.43 -0.12 0.57 -0.02 m 1.88 -0.79 c -0.22 0.1 -0.42 0.32 -0.54 0.6 c -0.06 0.14 -0.08 0.38 -0.08 1.19 c 0 1.15 0.02 1.21 0.41 1.63 c 0.22 0.23 0.23 0.24 0.57 0.26 c 0.46 0.02 0.66 -0.05 0.9 -0.31 c 0.32 -0.35 0.36 -0.57 0.34 -1.68 c -0.02 -0.86 -0.03 -0.96 -0.13 -1.14 c -0.16 -0.29 -0.36 -0.5 -0.54 -0.57 c -0.23 -0.09 -0.7 -0.08 -0.93 0.03 m 0.77 0.81 c 0.07 0.07 0.1 0.2 0.13 0.51 c 0.04 0.48 -0.01 1.41 -0.09 1.49 c -1.03 0.4 -1.02 -1.71 -0.61 -2.02 c 0.14 -0.1 0.46 -0.09 0.57 0.02 m 1.94 -0.85 c -0.18 0.07 -0.44 0.32 -0.56 0.54 c -0.1 0.18 -0.11 0.27 -0.12 1.2 c -0.02 1.13 0 1.23 0.34 1.64 c 0.22 0.26 0.38 0.33 0.73 0.33 c 0.38 0 0.53 -0.05 0.79 -0.3 c 0.38 -0.35 0.4 -0.44 0.4 -1.59 c 0 -0.88 -0.01 -1.03 -0.09 -1.19 c -0.11 -0.23 -0.46 -0.57 -0.66 -0.64 c -0.17 -0.06 -0.66 -0.06 -0.83 0 m 0.72 0.86 c 0.09 0.09 0.1 0.19 0.11 0.94 c 0.02 1.03 0 1.07 -0.36 1.1 c -0.21 0.01 -0.27 -0.01 -0.35 -0.09 c -0.09 -0.09 -0.1 -0.18 -0.1 -0.98 c 0 -0.79 0.01 -0.88 0.1 -0.97 c 0.13 -0.14 0.47 -0.14 0.6 0 m -7.09 3.74 c -0.2 0.09 -0.55 0.44 -0.64 0.66 c -0.06 0.14 -0.08 0.38 -0.08 1.16 c 0 1.1 0 1.1 0.37 1.52 c 0.27 0.3 0.41 0.37 0.77 0.37 c 0.38 0 0.52 -0.05 0.79 -0.3 c 0.38 -0.35 0.4 -0.44 0.4 -1.58 c 0 -0.88 -0.01 -1.03 -0.09 -1.2 c -0.11 -0.23 -0.47 -0.57 -0.67 -0.64 c -0.19 -0.07 -0.67 -0.06 -0.85 0.02 m 0.75 0.84 c 0.08 0.09 0.09 0.2 0.11 0.95 c 0.02 1.02 0 1.07 -0.37 1.09 c -0.2 0.01 -0.27 0 -0.34 -0.09 c -0.13 -0.32 -0.19 -1.74 0 -1.95 c 0.13 -0.14 0.47 -0.14 0.61 0"/><path d="m 3.98 7.91 c -0.11 -0.04 -0.2 -0.2 -0.2 -0.34 c 0 -0.17 0.14 -0.29 0.34 -0.29 c 0.18 0 0.26 0.04 0.31 0.18 c 0.05 0.12 0.01 0.31 -0.09 0.4 c -0.08 0.07 -0.25 0.1 -0.35 0.06"/><path d="m 11.16 9.75 c 0 0 -0.01 0.95 0 0.98 c -0.04 0.26 -0.38 0.13 -1.07 0.2 c -0.38 -0.02 -1.34 -0.02 -1.78 -0.02 c -1.13 0.45 -0.57 0.56 1.32 0.61 h 1.93 l 0.09 -0.05 c 0.12 -0.07 0.14 -0.12 0.16 -0.4 c 0.01 -0.24 0 -1.11 0.01 -1.44 c -0.33 -0.21 -0.47 -0.24 -0.65 0.12"/><path d="m 8 12.3 c -0.15 -0.07 -0.33 -0.22 -0.82 -0.7 c -0.32 -0.31 -0.34 -0.34 -0.34 -0.48 c 0 -0.14 0.02 -0.19 0.11 -0.29 c 0.16 -0.17 0.81 -0.7 1.02 -0.82 c 0.23 -0.13 0.3 0.17 0.34 0.3 c 0.05 0.15 0.05 0.15 0.05 0.93 c 0 0.7 0 0.79 -0.03 0.86 c -0.06 0.18 -0.2 0.26 -0.34 0.2"/></g></svg>