<svg xmlns="http://www.w3.org/2000/svg" viewBox="0 0 16 16"><path d="m 0.19 9.82 c 0.99 6.46 9.8 8.19 13.69 3.57 c 3.43 -3.42 2.57 -9.98 -1.63 -12.23 c -4.83 -3 -11.86 0.71 -12.24 6.7 c -0.04 0.66 0.02 1.32 0.17 1.96" style="fill:#ff8c00"/><path d="m 12.76 8.17 c 0 2.67 -2.12 4.83 -4.74 4.83 c -2.62 0 -4.74 -2.16 -4.74 -4.83 c 0 -2.66 2.12 -4.83 4.74 -4.83 c 2.62 0 4.74 2.16 4.74 4.83" style="fill:#fff"/><path d="m 11.56 8.19 c 0 1.98 -1.61 3.59 -3.58 3.59 c -1.98 0 -3.59 -1.61 -3.59 -3.59 c 0 -1.99 1.61 -3.6 3.59 -3.6 c 1.98 0 3.58 1.61 3.58 3.6" style="fill:#ff8c00"/><path d="m 10.72 8.2 c 0 1.53 -1.22 2.77 -2.73 2.77 c -1.51 0 -2.73 -1.24 -2.73 -2.77 c 0 -1.53 1.22 -2.77 2.73 -2.77 c 1.51 0 2.73 1.24 2.73 2.77" style="fill:#fff"/></svg>