<svg xmlns="http://www.w3.org/2000/svg" viewBox="0 0 16 16"><path d="m 0.37 9.69 c 1.5 8.21 13.71 8.45 15.29 0.48 c 1.68 -6.46 -5.37 -11.73 -10.44 -9.62 c -3.41 1 -6.1 5.09 -4.85 9.15" style="fill:#ff8c00"/><path d="m 6.9 6.26 c 0 1.09 -0.91 1.98 -2.04 1.98 c -1.13 0 -2.04 -0.89 -2.04 -1.98 c 0 -1.09 0.91 -1.98 2.04 -1.98 c 1.13 0 2.04 0.89 2.04 1.98" style="fill:#fff"/><path d="m 6.24 6.27 c 0 0.75 -0.62 1.36 -1.39 1.36 c -0.77 0 -1.39 -0.61 -1.39 -1.36 c 0 -0.75 0.62 -1.36 1.39 -1.36 c 0.77 0 1.39 0.61 1.39 1.36" style="fill:#ff8c00"/><g style="fill:#fff"><path d="m 6.41 10.68 c 0 0.86 -0.7 1.55 -1.57 1.55 c -0.87 0 -1.57 -0.69 -1.57 -1.55 c 0 -0.85 0.7 -1.54 1.57 -1.54 c 0.86 0 1.57 0.69 1.57 1.54"/><path d="m 8.31 5.76 h 4.4 c 0.24 0 0.44 0.2 0.44 0.44 v 0.12 c 0 0.24 -0.2 0.44 -0.44 0.44 h -4.4 c -0.24 0 -0.44 -0.2 -0.44 -0.44 v -0.12 c 0 -0.24 0.2 -0.44 0.44 -0.44"/><path d="m 8.31 10.19 h 4.4 c 0.24 0 0.44 0.2 0.44 0.44 v 0.12 c 0 0.24 -0.2 0.44 -0.44 0.44 h -4.4 c -0.24 0 -0.44 -0.2 -0.44 -0.44 v -0.12 c 0 -0.24 0.2 -0.44 0.44 -0.44"/></g></svg>