<svg xmlns="http://www.w3.org/2000/svg" viewBox="0 0 16 16"><path d="m 3.76 1.64 c 8.18 -5.75 16.48 4.87 9.81 11.65 c -6.28 6.39 -16 0.46 -13 -7.48 c 0.64 -1.66 1.68 -3.11 3.18 -4.17" style="fill:#acd7e5"/><path d="m 4.14 11.25 c -0.21 -0.27 -0.26 -0.63 -0.09 -0.95 c 0.38 -0.82 2.52 -1.5 2.49 -2.38 c -0.01 -0.06 -0.38 -0.71 -0.81 -1.45 c -1.07 -1.8 -1.09 -1.84 -0.87 -2.29 c 0.21 -0.43 0.24 -0.43 3.38 0.2 c 1.82 0.36 2.92 0.61 3 0.69 c 0.2 0.16 0.23 0.38 0.19 1.17 c -0.07 1.33 0.03 1.46 -0.36 1.56 c -0.86 -0.97 -1.52 -1.37 -2.67 -1.25 c -0.07 0.35 0 0.78 0.14 1 c 0.61 1 0.66 0.82 -0.22 1.59 c -0.16 0.14 -0.5 0.67 -0.5 0.7 c 0.42 0.16 1 0.39 1.47 0.48 c 1.12 -0.89 1.7 -0.65 1.55 0.52 c -0.15 1.14 -0.21 1.35 -0.4 1.54 c -1.71 -0.36 -4.84 -0.89 -6.32 -1.15" style="fill:#63c8f6"/><path d="m 7 12 c -1.64 -0.31 -3.05 -0.59 -3.14 -0.64 c -0.21 -0.1 -0.37 -0.54 -0.29 -0.78 c 0.08 -0.25 0.33 -0.48 1.7 -1.57 c 0.65 -0.52 1.2 -0.99 1.21 -1.04 c 0.02 -0.05 -0.41 -0.79 -0.96 -1.65 c -0.55 -0.86 -1.01 -1.64 -1.04 -1.74 c -0.09 -0.41 0.21 -0.8 0.61 -0.8 c 0.45 0 6.28 1.14 6.44 1.26 c 0.3 0.22 0.32 0.39 0.16 1.51 c -0.16 1.18 -0.25 1.43 -0.55 1.55 c -0.31 0.12 -0.57 -0.05 -0.95 -0.63 l -0.31 -0.48 c -0.48 -0.01 -1.06 -0.33 -1.54 -0.22 c -0.02 0.03 0.11 0.3 0.3 0.61 c 0.19 0.31 0.38 0.65 0.41 0.76 c 0.11 0.34 -0.05 0.64 -0.63 1.1 c -0.49 0.39 -0.57 0.49 -0.46 0.56 c 0.52 0.13 0.91 0.2 1.47 0.3 l 0.45 -0.36 c 0.54 -0.44 0.85 -0.48 1.1 -0.16 c 0.19 0.25 0.19 0.47 0.02 1.66 c -0.12 0.83 -0.16 0.94 -0.34 1.13 c -0.14 0.16 -0.26 0.21 -0.45 0.2 c -0.14 0 -1.59 -0.26 -3.23 -0.57 m 3.26 -0.2 c 0.07 -0.12 0.28 -1.52 0.24 -1.59 c -0.02 -0.04 -0.22 0.1 -0.46 0.29 l -0.43 0.35 l -1.49 -0.27 c -1.76 -0.32 -1.79 -0.33 -1.79 -0.42 c 0 -0.04 0.46 -0.45 1.04 -0.91 c 0.57 -0.46 1.05 -0.87 1.07 -0.9 c 0.02 -0.04 -0.3 -0.59 -0.7 -1.22 c -0.65 -1.04 -0.82 -1.37 -0.7 -1.37 c 0.05 0 2.83 0.52 3.06 0.58 c 0.13 0.03 0.27 0.18 0.46 0.49 c 0.16 0.25 0.31 0.44 0.35 0.43 c 0.11 -0.04 0.31 -1.52 0.22 -1.62 c -0.04 -0.05 -0.41 -0.14 -0.81 -0.21 c -0.41 -0.07 -1.66 -0.3 -2.78 -0.5 c -2.45 -0.45 -2.32 -0.43 -2.3 -0.32 c 0.01 0.05 0.48 0.83 1.05 1.73 c 0.57 0.91 1.04 1.71 1.04 1.77 c 0 0.07 -0.41 0.45 -0.98 0.92 c -1.69 1.36 -2.05 1.68 -2 1.72 c 0.03 0.03 4.8 0.98 5.82 1.15 c 0.03 0 0.07 -0.04 0.1 -0.09" style="fill:#4c6072"/></svg>