<svg xmlns="http://www.w3.org/2000/svg" viewBox="0 0 16 16"><path d="m 7.54 15.91 c 1.66 -0.13 3.61 -0.92 4.99 -2 c 1.68 -1.33 2.95 -3.37 3.32 -5.39 c 0.47 -2.66 -0.99 -5.52 -2.69 -6.87 c -0.86 -0.66 -2 -1.18 -3.08 -1.41 c -2.81 -0.6 -5.8 0.54 -7.91 3 c -1.26 1.48 -1.93 2.96 -2.14 4.73 c -0.25 2.11 0.52 4.37 1.99 5.9 c 1.69 1.44 3.45 2.21 5.51 2.07" style="fill:#ff8c00"/><path d="m 4.21 9.24 v -2.66 c 2.48 -0.02 4.51 -0.66 7.27 -2.37 c 0.02 -0.01 0.03 0.54 0.03 2.66 v 2.67 c -2.48 1.86 -4.63 2.24 -7.25 2.36 l -0.05 0.01" style="fill:#fff"/></svg>