<svg xmlns="http://www.w3.org/2000/svg" viewBox="0 0 16 16"><path d="m 6.21 15.77 c -14.94 -3.12 1.1 -24.57 8.69 -11.68 c 3.26 5 -1 13.29 -8.69 11.68" style="fill:#ff8c00"/><g style="fill:#fff"><path d="m 6.08 11.93 c -0.25 -0.57 -0.34 -0.46 -1.3 -0.51 c -1.68 -0.26 -2.41 -1.48 -1.96 -3.05 c 0.34 -1.14 0.86 -1.71 2.06 -2.34 c 0.81 -0.42 1.25 -0.45 1.44 -0.27 c 0.18 0.18 0.12 0.32 -0.32 0.69 c -1.22 0.84 -2.09 0.79 -2.28 2.32 c -0.04 1.13 0.1 1.72 1.33 1.72 c 0.91 0 1.02 -0.04 1.12 -0.47 c 0.16 -0.64 0.37 -0.59 1.29 0.27 l 0.79 0.73 l -0.84 0.77 c -0.46 0.42 -0.89 0.77 -0.95 0.77 c -0.06 0 -0.23 -0.27 -0.38 -0.61"/><path d="m 7.66 7.27 c -0.08 -0.12 0.24 -0.75 0.71 -1.4 c 0.88 -1.22 0.88 -1.46 0 -1.58 c -0.28 -0.04 -0.74 0.29 -0.77 -0.2 c -0.04 -0.64 0.57 -0.47 1.52 -0.52 c 1.11 -0.05 1.26 -0.01 1.38 0.35 c 0.09 0.29 -0.08 0.69 -0.6 1.39 c -0.4 0.54 -0.68 1.06 -0.63 1.15 c 0.06 0.09 0.39 0.22 0.73 0.29 c 0.38 0.07 0.55 0.21 0.54 0.37 c -0.04 0.62 -2.68 0.45 -2.88 0.14"/><path d="m 11.88 12.25 c -0.91 -1.11 -1.04 -1.19 -1.55 -0.43 c -0.52 0.77 -1.11 0.7 -1.11 0.39 c 0 -0.23 -0.21 -0.62 1.07 -3.12 c 0.15 -0.3 0.39 -0.55 0.53 -0.55 c 0.34 0 0.99 0.52 1.15 1.13 c 0.07 0.27 0.27 0.89 0.43 1.3 c 0.22 0.54 0.32 1.11 0.06 1.33 c -0.32 0.18 -0.42 0.14 -0.58 -0.06 m -0.41 -1.67 c 0 -0.27 -0.5 -0.96 -0.5 -0.96 c -0.45 0.64 -0.44 0.58 -0.49 0.96 c -0.04 0.31 0.99 0.2 0.99 0"/></g></svg>