<svg xmlns="http://www.w3.org/2000/svg" viewBox="0 0 16 16"><path d="m 0.17 8 c -1.2 -10.55 15.95 -10.41 15.75 0.19 c 0.57 9.86 -16.68 10.74 -15.75 -0.19" style="fill:#ff8c00"/><path d="m 2.63 6.1 h 10.84 v 4.75 h -10.84" style="fill:#fff"/><g style="fill:#ff8c00"><path d="m 8.82 10.23 c -0.19 -0.03 -0.28 -0.06 -0.47 -0.16 c -0.16 -0.08 -0.48 -0.37 -0.46 -0.41 c 0 -0.01 0.11 -0.14 0.23 -0.3 l 0.22 -0.27 l 0.13 0.12 c 0.18 0.17 0.34 0.25 0.54 0.25 c 0.25 0 0.38 -0.12 0.38 -0.36 c 0 -0.26 -0.14 -0.35 -0.53 -0.36 l -0.25 -0.01 l -0.05 -0.21 c -0.02 -0.12 -0.05 -0.23 -0.05 -0.24 c 0 -0.02 0.14 -0.18 0.32 -0.37 l 0.32 -0.34 h -0.54 h -0.55 v -0.74 h 2 v 0.65 l -0.33 0.34 c -0.18 0.18 -0.33 0.35 -0.33 0.36 c 0 0.01 0.05 0.04 0.12 0.06 c 0.38 0.13 0.59 0.46 0.59 0.9 c 0 0.35 -0.11 0.62 -0.33 0.84 c -0.17 0.16 -0.33 0.24 -0.55 0.27 c -0.17 0.03 -0.21 0.03 -0.41 0"/><path d="m 4.28 8.92 c 0 -1 -0.01 -1.27 -0.03 -1.27 c -0.02 0 -0.12 0.03 -0.23 0.06 c -0.13 0.04 -0.21 0.05 -0.21 0.03 c -0.02 -0.03 -0.15 -0.66 -0.14 -0.67 c 0 0 0.18 -0.07 0.39 -0.14 c 0.39 -0.13 0.39 -0.13 0.67 -0.13 h 0.28 v 3.39 h -0.73"/><path d="m 5.44 9.84 v -0.35 l 0.58 -0.54 c 0.73 -0.67 0.82 -0.78 0.82 -1.05 c 0 -0.21 -0.12 -0.35 -0.32 -0.35 c -0.16 0 -0.3 0.1 -0.51 0.36 l -0.05 0.06 l -0.5 -0.5 l 0.09 -0.13 c 0.05 -0.07 0.14 -0.19 0.22 -0.27 c 0.5 -0.5 1.37 -0.41 1.69 0.18 c 0.19 0.35 0.18 0.88 -0.03 1.23 c -0.09 0.16 -0.37 0.43 -0.72 0.73 l -0.23 0.2 h 0.57 h 0.57 v 0.76 h -2.18"/></g></svg>