<svg xmlns="http://www.w3.org/2000/svg" viewBox="0 0 16 16"><path d="m 10 0.35 c 8.1 1.22 7.66 13.38 -0.32 15.21 c -6.49 1.89 -11.35 -4.96 -8.99 -10.1 c 1.17 -3.43 5.36 -6.2 9.32 -5.14" style="fill:#ff8c00"/><path d="m 3.99 6.53 h 6.12 v 6.3 h -6.12" style="fill:#ffdeac"/><g style="fill:#ff8c00"><path d="m 4.52 6.32 h 0.61 v 6.56 h -0.61"/><path d="m 8.94 6.32 h 0.61 v 6.56 h -0.61"/><path d="m 10.41 11.49 v 0.61 h -6.56 v -0.61"/><path d="m 10.48 7.22 v 0.61 h -6.56 v -0.61"/></g><path d="m 8 9.63 c -0.55 -0.11 -0.59 -0.02 -0.64 -1.12 c -0.04 -0.8 -0.02 -0.91 0.08 -1.04 c 0.2 -0.26 0.51 -0.2 1.87 -0.17 c 0.97 0.02 1.48 0.04 1.87 -0.14 c 0.29 -0.13 0.08 -0.84 -0.03 -0.94 c -0.86 -0.33 -3.05 0 -3.56 -0.15 c -0.29 -0.42 -0.21 -0.73 -0.21 -1.02 c 0 -1.02 0.05 -1.29 0.64 -1.34 c 1.47 -0.02 2.77 -0.05 4.23 0.05 c 0.47 0.12 0.7 0.18 0.88 0.57 c 0.16 0.37 0.2 0.65 0.22 1.89 c 0.02 1.09 -0.02 1.9 -0.09 2.28 c -0.05 0.26 -0.2 0.51 -0.45 0.75 c -0.33 0.34 -3.73 0.43 -4.81 0.37 m 0.59 -0.49 c 0.1 -0.08 0.11 -0.58 0.11 -0.95 c 0 -0.46 -0.09 -0.45 -0.37 -0.49 c -0.16 -0.02 -0.42 -0.03 -0.49 0.19 c -0.07 0.23 -0.07 1.08 0 1.22 c -0.05 0.22 0.8 0.38 0.75 0.03 m -0.08 -3.39 c 0.17 -0.17 0.29 -1.1 0.2 -1.44 c -0.06 -0.23 -0.54 -0.12 -0.76 -0.11 c -0.23 0.05 -0.18 1.43 -0.05 1.53 c 0.15 0.11 0.53 0.11 0.62 0.02" style="fill:#fff"/></svg>