<svg xmlns="http://www.w3.org/2000/svg" xmlns:xlink="http://www.w3.org/1999/xlink" viewBox="0 0 16 16"><defs><g id="3" style="clip-path:url(#2)"><path d="m 7.2 12.74 c -2.65 -0.82 -4.27 -3.36 -3.55 -5.86 c 0.61 -1.76 2.2 -3.22 4.05 -3.25 c 1.38 -0.29 4.5 3.61 5 5.09 c -0.14 1.38 -1.1 2.7 -2.06 3.34 c -1.03 0.64 -2.24 0.89 -3.46 0.68" style="fill:#fff"/></g><clipPath id="2"><path d="M 0,0 H16 V16 H0 z"/></clipPath><filter id="0" filterUnits="objectBoundingBox" x="0" y="0" width="16" height="16"><feColorMatrix type="matrix" in="SourceGraphic" values="0 0 0 0 1 0 0 0 0 1 0 0 0 0 1 0 0 0 1 0"/></filter><mask id="1"><g style="filter:url(#0)"><path d="M 0,0 H16 V16 H0 z" style="fill-opacity:0.5"/></g></mask></defs><path d="m 3.76 1.71 c 8.18 -5.73 16.48 4.85 9.81 11.6 c -6.28 6.36 -16 0.46 -13 -7.45 c 0.64 -1.65 1.68 -3.1 3.18 -4.15" style="fill:#ff8c00"/><use xlink:href="#3" style="mask:url(#1)"/><path d="m 5.48 12.88 c -1.03 -0.65 -1.93 -1.7 -2.41 -2.8 c -0.42 -0.98 -0.34 -3.18 0.16 -4.15 c 0.93 -1.81 2.95 -3.19 4.66 -3.19 c 0.78 0 1.02 0.19 3.25 2.52 c 2.19 2.29 2.41 2.6 2.42 3.38 c 0.01 1.05 -0.46 2.02 -1.54 3.15 c -1.23 1.3 -2.22 1.72 -4 1.72 c -1.3 0 -1.69 -0.1 -2.53 -0.64 m 4.68 -0.69 c 0.46 -0.24 1.05 -0.67 1.32 -0.96 c 0.54 -0.57 1.19 -1.98 1.19 -2.55 c 0 -0.52 -3.84 -4.8 -4.45 -4.96 c -0.72 -0.19 -2.12 0.27 -2.95 0.96 c -3.13 2.64 -1.3 7.88 2.76 7.92 c 0.86 0.01 1.59 -0.14 2.13 -0.41" style="fill:#fff"/></svg>