<svg xmlns="http://www.w3.org/2000/svg" viewBox="0 0 16 16"><path d="m 8.15 15.91 c -1.65 -0.13 -3.58 -0.92 -4.92 -2 c -1.64 -1.33 -2.84 -3.37 -3.16 -5.39 c -0.39 -2.66 1.16 -5.52 2.91 -6.87 c 0.88 -0.66 2.04 -1.18 3.12 -1.41 c 2.83 -0.6 5.79 0.54 7.81 3 c 1.21 1.48 1.84 2.96 2 4.73 c 0.18 2.11 -0.65 4.37 -2.17 5.9 c -1.73 1.44 -3.52 2.21 -5.58 2.07" style="fill:#218b21"/><path d="m 3.36 4.86 h 9.1 v 5.62 h -9.1" style="fill:#fff"/><path d="m 3.51 10.42 c 2.2 -1.1 8.47 -4.24 8.64 -4.33 l 0.24 -0.12 v 4.5 h -4.49 h -4.5" style="fill:#31cd31"/><path d="m 9.81 11.1 l -0.83 1.25 l -0.8 1.26 l 1.6 0.04 h 1.6 l -0.77 -1.28" style="fill:#fff"/></svg>