<svg xmlns="http://www.w3.org/2000/svg" viewBox="0 0 16 16"><path d="m 9.19 15.8 c 15.2 -3.11 1.04 -24.46 -7.65 -11.63 c -3.68 4.98 -0.15 13.23 7.65 11.63" style="fill:#ff8c00"/><g style="fill:#fff"><path d="m 3.45 11.76 c -0.07 -0.11 0.33 -1.61 0.89 -3.34 c 0.97 -3 1.04 -3.14 1.65 -3.07 c 0.57 0.07 0.74 0.37 1.71 3.14 c 0.67 1.91 0.99 3.15 0.84 3.3 c -0.34 0.34 -0.73 0.01 -1.13 -0.95 c -0.33 -0.78 -0.44 -0.84 -1.45 -0.84 c -1.04 0 -1.11 0.04 -1.48 0.98 c -0.37 0.94 -0.75 1.23 -1.02 0.79 m 3.32 -3 c -0.19 -0.77 -0.47 -1.34 -0.8 -2.09 l -0.33 0.74 c -0.55 1.22 -0.46 1.6 0.39 1.6 c 0.41 0 0.74 -0.11 0.74 -0.25"/><path d="m 9.94 11.72 c -0.63 -0.73 -0.63 -0.73 -0.05 -1 c 0.52 -0.23 0.59 -0.52 0.59 -2.34 c 0 -1.81 -0.07 -2.12 -0.6 -2.43 c -0.6 -0.35 -0.6 -0.36 0.14 -1.06 l 0.75 -0.71 c 0.5 0.47 1 0.95 1.49 1.42 l -0.6 0.47 c -0.48 0.38 -0.6 0.77 -0.59 2 c 0 1.87 0.23 2.64 0.76 2.64 c 0.22 0 0.41 0.07 0.41 0.15 c 0 0.25 -1.2 1.58 -1.43 1.58 c -0.12 0 -0.5 -0.33 -0.86 -0.73"/></g></svg>