<svg xmlns="http://www.w3.org/2000/svg" viewBox="0 0 16 16"><path d="m 3.76 1.71 c 8.18 -5.73 16.48 4.85 9.81 11.6 c -6.28 6.36 -16 0.46 -13 -7.45 c 0.64 -1.65 1.68 -3.1 3.18 -4.15" style="fill:#ff8c00"/><path d="m 5.57 12.8 c -0.98 -0.56 -1.79 -1.41 -2.3 -2.42 c -0.52 -1.36 -0.51 -3.28 0.11 -4.36 c 0.66 -1.11 1.5 -1.92 2.53 -2.4 c 1.03 -0.48 2.45 -0.56 2.61 -0.14 c 0.14 0.36 0.03 0.43 -0.82 0.54 c -4.21 0.54 -5.41 5.84 -1.79 7.91 c 1.3 0.67 3 0.71 4.15 0.06 c 1.08 -0.63 1.9 -1.7 2.13 -2.78 c 0.15 -0.68 0.26 -0.88 0.48 -0.84 c 0.43 0.08 0.46 1.33 0.05 2.13 c -0.4 0.77 -1.55 1.9 -2.47 2.42 c -1.41 0.58 -3.52 0.52 -4.66 -0.13" style="fill:#fff"/></svg>