<svg xmlns="http://www.w3.org/2000/svg" viewBox="0 0 16 16"><path d="m 15.1 10.99 c 5.94 -19.29 -25.98 -9.64 -11.1 3.57 c 2.99 2.65 9.45 1.63 11.1 -3.57" style="fill:#ff8c00"/><path d="m 6.86 4.08 h 5.7 v 8.3 h -5.7" style="fill:#fff"/><path d="m 9.32 11.46 c 0.25 -0.1 0.29 -0.25 0.31 -1.1 l -0.02 -1.21 c -0.51 0 -1.15 0.14 -1.36 -0.14 c -0.22 -0.37 -0.07 -0.59 0.32 -0.71 c 0.43 -0.04 0.64 0 1.1 0 l -0.04 -0.98 c 0 -1.19 -0.04 -1.22 -1.23 -1.22 h -0.76 v -0.44 c -0.95 -3.86 -4.75 5.09 -1.5 5.85 c 0.52 0.03 0.82 0.04 3.18 -0.05" style="fill:#ff8c00"/><path d="m 8.75 11.1 c 0.22 -0.09 0.26 -0.21 0.28 -0.96 l 0.02 -0.7 h -0.42 c -0.5 0 -0.68 -0.07 -0.83 -0.32 c -0.2 -0.32 -0.08 -0.75 0.26 -0.93 c 0.14 -0.07 0.25 -0.09 0.58 -0.09 h 0.41 v -0.63 c 0 -1.04 -0.03 -1.07 -1.11 -1.07 h -0.68 v -0.39 c 0 -0.32 -0.02 -0.42 -0.1 -0.57 c -0.25 -0.44 -0.86 -0.44 -1.1 0 c -0.08 0.15 -0.1 0.25 -0.1 0.57 v 0.39 h -0.71 c -1.07 0 -1.09 0.02 -1.09 1.11 v 0.63 h -0.41 c -0.34 0 -0.45 0.02 -0.56 0.08 c -0.43 0.24 -0.43 0.84 0 1.08 c 0.12 0.07 0.23 0.09 0.56 0.09 h 0.41 l 0.02 0.72 c 0.02 0.78 0.05 0.9 0.29 0.98 c 0.06 0.02 0.42 0.04 0.79 0.04 h 0.67 v -0.39 c 0 -0.32 0.02 -0.42 0.1 -0.57 c 0.25 -0.45 0.93 -0.45 1.19 0 c 0.09 0.15 0.11 0.24 0.11 0.57 v 0.39 h 0.68 c 0.37 0 0.73 -0.02 0.79 -0.04" style="fill:#fff"/></svg>