<svg xmlns="http://www.w3.org/2000/svg" viewBox="0 0 16 16"><path d="m 7.82 15.91 c 1.63 -0.13 3.54 -0.91 4.87 -2 c 1.62 -1.33 2.8 -3.36 3.12 -5.37 c 0.38 -2.65 -1.15 -5.5 -2.88 -6.85 c -0.86 -0.66 -2 -1.18 -3.09 -1.41 c -2.8 -0.59 -5.72 0.54 -7.72 2.99 c -1.2 1.47 -1.82 2.95 -1.97 4.71 c -0.18 2.1 0.64 4.36 2.15 5.88 c 1.71 1.43 3.48 2.21 5.51 2.06" style="fill:#ff8c00"/><path d="m 4.07 6.32 l 7.68 -2.52 v 5.65 l -7.68 2.52" style="fill:#fff"/><path d="m 11.98 10.1 c 0 1.42 -1.15 2.56 -2.57 2.56 c -1.41 0 -2.56 -1.14 -2.56 -2.56 c 0 -1.41 1.15 -2.56 2.56 -2.56 c 1.42 0 2.57 1.15 2.57 2.56" style="fill:#ff8c00"/><path d="m 11.61 10.12 c 0 1.21 -0.97 2.2 -2.17 2.2 c -1.2 0 -2.17 -0.98 -2.17 -2.2 c 0 -1.21 0.97 -2.2 2.17 -2.2 c 1.2 0 2.17 0.98 2.17 2.2" style="fill:#fff"/></svg>