<svg xmlns="http://www.w3.org/2000/svg" viewBox="0 0 16 16"><g style="fill:#ff8c00"><path d="M 0.1875 9.824219 C 1.175781 16.28125 9.992188 18.011719 13.878906 13.398438 C 17.304688 9.976562 16.453125 3.417969 12.25 1.167969 C 7.421875 -1.835938 0.390625 1.878906 0.0117188 7.867188 C -0.0273438 8.523438 0.0273438 9.1875 0.183594 9.824219 Z M 0.1875 9.824219 "/><path d="M 59.350339 64.229 L 191.412839 64.229 L 191.412839 191.604 L 59.350339 191.604 Z M 59.350339 64.229 " transform="matrix(0.063 0 0 0.063 0.16 0.12)" style="stroke:#fff;stroke-linecap:round;stroke-width:8.3"/></g><g style="fill:#fff"><path d="M 3.828125 4.425781 L 4.121094 4.09375 L 12.039062 11.667969 L 11.75 11.996094 Z M 3.828125 4.425781 "/><path d="M 12.039062 4.425781 L 11.75 4.09375 L 3.828125 11.667969 L 4.121094 11.996094 Z M 12.039062 4.425781 "/></g></svg>