<svg xmlns="http://www.w3.org/2000/svg" xmlns:xlink="http://www.w3.org/1999/xlink" viewBox="0 0 16 16"><defs><g id="3" style="clip-path:url(#2)"><path d="m 7.77 12.1 c -0.66 -0.02 -1.05 -0.08 -1.05 -0.15 c 0 -0.07 0.18 -0.31 0.39 -0.54 c 0.97 -1.07 1.14 -2.3 0.59 -4.17 c -0.44 -1.21 -0.87 -1.52 -1.2 -2.09 c 0 -0.13 0.41 -0.15 2.71 -0.13 l 2.71 0.03 l 0.07 3.38 c 0.04 2.02 0.03 3.45 -0.03 3.56 c -0.1 0.2 -0.95 0.22 -4.19 0.11" style="fill:#fff"/></g><clipPath id="2"><path d="M 0,0 H16 V16 H0 z"/></clipPath><filter id="0" filterUnits="objectBoundingBox" x="0" y="0" width="16" height="16"><feColorMatrix type="matrix" in="SourceGraphic" values="0 0 0 0 1 0 0 0 0 1 0 0 0 0 1 0 0 0 1 0"/></filter><mask id="1"><g style="filter:url(#0)"><path d="M 0,0 H16 V16 H0 z" style="fill-opacity:0.5"/></g></mask></defs><path d="m 9.28 15.9 c -2.17 -0.06 -5 -1.23 -6.75 -2.79 c -1.38 -1.23 -2.08 -2.38 -2.34 -3.83 c -0.36 -2.03 0.4 -3.8 2.42 -5.59 c 2.36 -2 5.77 -4.06 8.31 -3.47 c 1 0.24 1.69 0.58 2.39 1.2 c 1.43 1.25 2.32 3.23 2.55 5.61 c 0.13 1.35 0.04 2.44 -0.31 3.76 c -0.59 2.24 -1.85 3.84 -3.66 4.65 c -0.57 0.26 -1.82 0.47 -2.61 0.45" style="fill:#fd8b01"/><use xlink:href="#3" style="mask:url(#1)"/><g style="fill:#fff"><path d="m 6 12.61 c -0.05 -0.09 -0.12 -0.24 -0.14 -0.34 c -0.04 -0.2 0.02 -0.3 0.73 -1.23 c 0.67 -0.88 0.75 -1.13 0.76 -2.22 v -0.87 l -0.23 -0.46 c -0.13 -0.25 -0.41 -0.77 -0.64 -1.14 c -0.67 -1.1 -0.79 -1.52 -0.53 -1.84 l 0.12 -0.14 h 3.06 c 1.68 0 3.13 0.02 3.23 0.05 c 0.15 0.04 0.17 0.08 0.21 0.53 c 0.03 0.26 0.05 2.07 0.05 4 c 0 2.77 -0.02 3.57 -0.08 3.68 l -0.08 0.14 h -6.37 m 5.83 -0.73 c 0.07 -0.07 0.08 -0.77 0.06 -3.53 c -0.01 -1.9 -0.03 -3.46 -0.04 -3.47 c -0.01 -0.01 -1.22 -0.03 -2.69 -0.04 c -1.91 -0.01 -2.69 0.01 -2.74 0.06 c -0.05 0.05 0.04 0.23 0.37 0.71 c 0.74 1.09 1.06 2.08 1.06 3.29 c 0 0.91 -0.2 1.48 -0.8 2.23 c -0.41 0.52 -0.46 0.62 -0.38 0.71 c 0.11 0.11 1.02 0.14 3.15 0.14 c 1.5 0 1.95 -0.02 2 -0.09"/><path d="m 3.91 10.27 c -0.09 -0.15 -0.16 -2.71 -0.09 -2.99 c 0.03 -0.1 0.13 -0.2 0.25 -0.26 l 0.21 -0.1 l 0.45 0.3 c 0.57 0.38 1.14 0.8 1.4 1.05 c 0.39 0.36 0.2 0.8 -0.59 1.39 c -1 0.75 -1.47 0.92 -1.64 0.62"/></g></svg>