<svg xmlns="http://www.w3.org/2000/svg" viewBox="0 0 16 16"><path d="m 9.86 15.65 c 15 -4.06 -1.1 -24.55 -8.72 -11.16 c -3.27 5.22 1.01 13.25 8.72 11.16" style="fill:#ff8c00"/><g style="fill:#fff"><path d="m 7.98 11.7 c -1.04 -0.72 -1.18 -0.66 -2.73 -0.75 c -2.36 -0.13 -2.09 -0.79 0.36 -0.8 c 0.82 0 1.26 0.04 2.05 -0.45 c 0.5 -0.31 1.03 -0.66 1.17 -0.79 c 0.34 -0.3 0.72 -0.13 0.71 0.34 c -0.03 1.13 0.23 0.6 1.03 0.01 c 0.41 -0.31 0.82 -0.51 0.9 -0.46 c 0.34 0.21 0.32 0.63 -0.23 1.09 l -0.89 0.74 l 0.67 0.56 c 0.58 0.49 0.61 0.51 0.61 0.81 c 0 0.55 -0.25 0.54 -1.02 -0.04 c -0.77 -0.57 -1.14 -1.26 -1.09 -0.04 c 0.01 0.23 -0.15 0.44 -0.27 0.46 c -0.13 0.02 -0.69 -0.29 -1.27 -0.69"/><path d="m 5 7.44 c -0.76 -0.49 -1.38 -0.96 -1.38 -1.04 c 0 -0.09 0.62 -0.56 1.37 -1.05 c 1.37 -0.89 1.83 -0.97 1.66 -0.31 c -0.04 0.15 0 0.46 0.09 0.69 c 0.12 0.42 1.64 0.38 2.4 0.35 c 3 -0.1 3.04 0.91 0.06 0.79 c -1.36 -0.05 -2.29 0.02 -2.41 0.13 c -0.13 0.11 -0.17 0.17 -0.11 0.49 c 0.17 0.94 -0.17 0.93 -1.69 -0.04"/></g></svg>