<svg xmlns="http://www.w3.org/2000/svg" viewBox="0 0 16 16"><path d="m 1.43 11.76 c -4.28 -5.77 2.57 -12.8 8.09 -11.58 c 5.43 0.72 8.71 9.1 4.51 13.28 c -3.07 3.04 -8.32 4.06 -12.6 -1.7" style="fill:#ff8c00"/><g style="fill:#fff"><path d="m 4.3 4.21 h 2.76 v 2.74 h -2.76"/><path d="m 7.4 4.79 h 2.09 v 2.11 h -2.09"/><path d="m 9.97 4.79 h 2.09 v 2.11 h -2.09"/><path d="m 9.99 7.26 h 2.09 v 2.11 h -2.09"/></g><path d="m 7.41 7.29 h 2.09 v 2.11 h -2.09" style="fill:#ffdeac"/><g style="fill:#fff"><path d="m 4.88 7.3 h 2.09 v 2.12 h -2.09"/><path d="m 4.85 9.93 h 2.09 v 2.11 h -2.09"/><path d="m 7.4 9.9 h 2.09 v 2.12 h -2.09"/><path d="m 9.97 9.89 h 2.09 v 2.11 h -2.09"/></g></svg>