<svg xmlns="http://www.w3.org/2000/svg" viewBox="0 0 16 16"><path d="m 8 0.2 c 10.56 -1.2 10.41 15.99 -0.19 15.79 c -9.86 0.57 -10.74 -16.72 0.19 -15.79" style="fill:#ff8c00"/><path d="m 7.91 4.32 c 1.5 0 2.71 0.56 2.71 1.25 v 5.87 c 0 0.7 -1.21 1.26 -2.71 1.26 c -1.5 0 -2.71 -0.56 -2.71 -1.26 v -5.87 c 0 -0.69 1.21 -1.25 2.71 -1.25" style="fill:#fff"/><path d="m 10.57 4.91 c 0 0.71 -1.17 1.28 -2.61 1.28 c -1.44 0 -2.61 -0.57 -2.61 -1.28 c 0 -0.71 1.17 -1.29 2.61 -1.29 c 1.45 0 2.61 0.57 2.61 1.29" style="fill:#ffdeac"/></svg>