<svg xmlns="http://www.w3.org/2000/svg" viewBox="0 0 16 16"><path d="m 0.09 9.29 c 0.17 -2.17 1.48 -5 3.13 -6.75 c 1.3 -1.38 2.48 -2.08 3.95 -2.34 c 2.05 -0.36 3.78 0.4 5.46 2.42 c 1.89 2.36 3.77 5.77 3.05 8.31 c -0.29 1 -0.67 1.69 -1.32 2.39 c -1.33 1.43 -3.35 2.32 -5.74 2.55 c -1.36 0.13 -2.44 0.04 -3.75 -0.31 c -2.21 -0.59 -3.74 -1.85 -4.46 -3.66 c -0.23 -0.57 -0.38 -1.82 -0.32 -2.61" style="fill:#fd8b01"/><g style="fill:#fff"><path d="m 3.96 12.82 c 0.03 -0.12 0.12 -0.53 0.2 -0.92 c 0.18 -0.91 0.68 -1.96 0.99 -2.05 c 0.17 -0.05 0.31 0.02 0.49 0.23 c 0.3 0.35 1.06 2.64 0.95 2.83 c -0.13 0.21 -0.52 0.14 -0.66 -0.11 c -0.18 -0.34 -0.64 -0.62 -0.88 -0.52 c -0.34 0.21 -0.47 0.76 -0.85 0.76 c -0.23 0 -0.29 -0.05 -0.24 -0.21 m 1.61 -1.46 c 0.17 -0.32 0.02 -0.63 -0.28 -0.58 c -0.51 0.3 -0.07 1.22 0.28 0.58"/><path d="m 7.36 12.65 c -0.07 -0.21 -0.13 -0.82 -0.13 -1.38 c 0 -0.84 0.04 -1.04 0.23 -1.24 c 0.34 -0.34 0.9 -0.3 1.39 0.08 c 0.38 0.29 0.61 0.42 0.35 0.84 c -0.21 0.35 -0.01 0.55 0.05 0.59 c 0.06 0.04 0.11 0.25 0.11 0.47 c 0 0.57 -0.59 1.01 -1.33 1.01 c -0.5 0 -0.55 -0.03 -0.67 -0.38 m 1.23 -0.64 c 0 -0.27 -0.37 -0.39 -0.56 -0.2 c -0.2 0.2 -0.18 0.55 0.11 0.51 c 0.18 -0.02 0.45 -0.15 0.45 -0.3 m -0.11 -1.06 c 0.03 -0.17 -0.11 -0.44 -0.23 -0.44 c -0.2 0 -0.31 0.22 -0.22 0.45 c 0.09 0.23 0.41 0.29 0.45 -0.02"/><path d="m 10.57 12.67 c -0.48 -0.32 -0.75 -0.85 -0.72 -1.47 c 0.02 -0.57 0.27 -0.91 0.88 -1.21 c 0.61 -0.3 0.95 -0.32 1.16 -0.07 c 0.2 0.25 -0.05 0.54 -0.46 0.54 c -0.51 0 -0.89 0.38 -0.89 0.88 c 0 0.55 0.24 0.79 0.87 0.88 c 0.45 0.06 0.49 0.09 0.46 0.38 c -0.03 0.26 -0.1 0.32 -0.45 0.34 c -0.32 -0.02 -0.62 -0.11 -0.84 -0.26"/><path d="m 6.78 5.51 c -0.12 -0.08 -0.07 -0.34 0.21 -1.21 c 0.45 -1.42 0.62 -1.68 1.08 -1.68 c 0.31 0 0.39 0.07 0.6 0.57 c 0.51 1.19 0.79 2.16 0.66 2.29 c -0.2 0.2 -0.4 0.15 -0.83 -0.23 c -0.22 -0.2 -0.45 -0.36 -0.52 -0.36 c -0.06 0 -0.26 0.16 -0.43 0.36 c -0.33 0.37 -0.5 0.43 -0.77 0.26 m 1.45 -1.29 c 0.23 -0.23 0.23 -0.34 0 -0.58 c -0.15 -0.15 -0.23 -0.16 -0.36 -0.05 c -0.2 0.17 -0.21 0.49 -0.02 0.68 c 0.18 0.18 0.16 0.18 0.38 -0.05"/><path d="m 9.8 7.95 c -0.39 -0.7 -0.46 -1.44 -0.14 -1.48 c 0.16 -0.02 0.26 0.1 0.52 0.66 c 0.55 1.21 0.23 1.91 -0.38 0.82"/><path d="m 7.82 8.38 c -0.26 -0.37 -0.17 -1.87 0.12 -1.98 c 0.09 -0.03 0.22 0.01 0.3 0.09 c 0.2 0.2 0.21 1.7 0.02 1.95 c -0.18 0.21 -0.26 0.2 -0.44 -0.06"/><path d="m 5.45 8.31 c -0.12 -0.22 -0.04 -0.54 0.34 -1.31 c 0.22 -0.44 0.32 -0.56 0.48 -0.54 c 0.32 0.05 0.3 0.5 -0.09 1.3 c -0.35 0.74 -0.55 0.89 -0.73 0.54"/></g></svg>