<svg xmlns="http://www.w3.org/2000/svg" viewBox="0 0 16 16"><path d="m 1.65 12.25 c -5.75 -8.15 4.87 -16.4 11.65 -9.77 c 6.39 6.26 0.46 15.98 -7.48 12.94 c -1.66 -0.63 -3.11 -1.68 -4.17 -3.17" style="fill:#ff8c00"/><g style="fill:#fff"><path d="m 10.89 3.16 c 0 0 0.52 0 0.52 0.67 v 3.36 h -1.04 v -0.67 h -0.42 l -0.88 -1.15 l -0.37 -0.48 l -1.25 1.63 h -2.27 v 4.71 h 2.77 l 0.75 0.98 l 0.76 -0.98 h 0.91 v -1.34 h 1.04 v 2 c 0 0 0 0.67 -0.52 0.67 h -6.23 c -0.52 0 -0.52 -0.67 -0.52 -0.67 v -8.1 c 0 0 0 -0.67 0.52 -0.67 m 4 2.66 l 0.72 0.93 l -0.85 1.1 l 3.35 -0.02 v 1.35 l -3.35 0.01 l 0.85 1.1 l -0.72 0.93 l -2.07 -2.72" style="fill-opacity:0.5"/><path d="m 11.18 12.38 c 0.16 -0.16 0.16 -0.19 0.16 -1.32 v -1.16 h -0.95 v 1.36 h -0.93 l -0.35 0.47 c -0.2 0.26 -0.38 0.48 -0.41 0.48 c -0.03 0 -0.21 -0.21 -0.41 -0.48 l -0.36 -0.47 h -2.75 v -4.75 h 2.23 l 0.62 -0.81 c 0.34 -0.45 0.64 -0.82 0.67 -0.82 c 0.02 0 0.33 0.37 0.67 0.82 c 0.55 0.71 0.66 0.81 0.83 0.81 c 0.19 0 0.2 0.01 0.2 0.3 v 0.3 h 0.95 v -3.6 l -0.34 -0.34 h -3.23 c -1.98 0 -3.28 0.03 -3.35 0.07 c -0.07 0.04 -0.16 0.16 -0.2 0.28 c -0.09 0.27 -0.11 8.38 -0.01 8.62 c 0.15 0.41 -0.02 0.39 3.54 0.39 h 3.25"/><path d="m 9.1 10.71 l 0.32 -0.42 l -0.4 -0.52 c -0.22 -0.29 -0.4 -0.54 -0.4 -0.57 c 0 -0.03 0.75 -0.05 1.66 -0.05 h 1.66 v -1.29 h -1.66 c -0.91 0 -1.66 -0.02 -1.66 -0.05 c 0 -0.03 0.18 -0.28 0.4 -0.56 l 0.4 -0.5 l -0.18 -0.25 c -0.33 -0.44 -0.49 -0.63 -0.51 -0.6 c -0.01 0.02 -0.47 0.61 -1.02 1.31 l -0.99 1.28 l 0.18 0.24 c 0.82 1.09 1.8 2.35 1.84 2.36 c 0.02 0.01 0.19 -0.17 0.36 -0.4"/></g></svg>