<svg xmlns="http://www.w3.org/2000/svg" viewBox="0 0 16 16"><path d="m 2.15 13.67 c -9 -14 15.66 -19.41 13.69 -5 c -0.8 5.87 -10.23 10.37 -13.69 5" style="fill:#ff8c00"/><g style="fill-rule:evenodd"><g transform="matrix(0.164 0 0 0.16 3.98 1.69)" style="stroke:#ff8c00;stroke-width:0.74"><g style="fill:#fff;stroke-linecap:round;stroke-linejoin:round"><path d="m 35.41 36.81 c 11.57 20.1 19.75 24.31 22.25 21.82 c 2.6 -2.56 -1.77 -10.54 -20.73 -23.38"/><path d="m 44.59 23.59 c 0 11.57 -9.37 20.96 -20.92 20.96 c -11.54 0 -20.92 -9.4 -20.92 -20.96 c 0 -11.54 9.37 -20.94 20.92 -20.94 c 11.54 0 20.92 9.4 20.92 20.94"/></g><path d="m 18.2 39.59 c -9.73 -3.83 -13.74 -14.28 -9.11 -23.7 c 2.03 -4.1 7.25 -7.86 12.1 -8.69 c 4.46 -0.76 9.64 0.93 13.26 4.34 c 3.55 3.34 5.27 7.27 5.3 12.1 c 0.05 6.76 -3.55 12.4 -9.78 15.42 c -2.1 1.02 -2.65 1.12 -6 1.22 c -3.22 0.07 -4 -0.02 -5.75 -0.73" style="fill:#ff8c00"/></g><path d="m 7.43 5.63 c -1.13 0 -2.28 0.69 -2.28 1.74 v 1.91 h -0.84 v 4.26 h 6.32 v -4.26 c -0.04 0.01 -0.07 0.01 -0.11 0.01 h -2.95 c -0.04 0 -0.07 0 -0.11 -0.01 h -1.28 v -1.71 c 0 -0.64 0.7 -0.98 1.23 -0.99 c 0.61 0 1.28 0.39 1.28 0.98 v 0.54 h 1.07 v -0.79 c 0 -0.79 -0.89 -1.69 -2.33 -1.69 m 0.02 4.58 c 0.35 0 0.63 0.26 0.63 0.58 c 0 0.19 -0.1 0.36 -0.25 0.46 l 0.25 1.29 h -1.24 l 0.25 -1.28 c -0.16 -0.11 -0.27 -0.28 -0.27 -0.47 c 0 -0.32 0.29 -0.58 0.64 -0.58" style="fill:#fff"/></g></svg>