<svg xmlns="http://www.w3.org/2000/svg" viewBox="0 0 22 22"><path d="m 3.75 18.24 c -11.16 -9 5.18 -25.28 15.1 -14.89 c 9.9 8.95 -5.55 26.3 -15.1 14.89" style="fill:#707f8f"/><path d="m 5.64 15.8 c -0.21 -0.05 -0.38 -0.18 -0.51 -0.38 c -0.09 -0.15 -0.1 -0.37 -0.1 -4.46 v -4.31 l 0.14 -0.18 c 0.29 -0.36 -0.08 -0.34 5.78 -0.34 c 5.1 0 5.34 0 5.52 0.1 c 0.1 0.06 0.23 0.19 0.29 0.3 c 0.1 0.18 0.11 0.29 0.11 4.43 c 0 4.75 0.02 4.46 -0.38 4.73 l -0.2 0.13 l -5.24 0.01 c -2.88 0 -5.31 -0.01 -5.4 -0.04 m 9.55 -3.24 c -2.84 0 -5.67 0 -8.51 0 c 0 0.56 0 1.12 0 1.68 c 2.84 0 5.67 0 8.51 0 c 0 -0.56 0 -1.12 0 -1.68" style="fill:#fff"/></svg>