<svg xmlns="http://www.w3.org/2000/svg" viewBox="0 0 22 22"><path d="m 10.74 21.84 c -13.21 1.25 -14.41 -19.82 -0.81 -21.46 c 12.56 -2.03 16.82 17.1 4.14 20.89 c -1.09 0.42 -2.22 0.41 -3.33 0.57" style="fill:#ff8c00"/><path d="m 4.48 17.21 c -0.06 -0.02 -0.07 -0.44 -0.07 -1.77 c 0 -1.95 0.02 -2.04 0.4 -2.31 c 0.35 -0.25 0.84 -0.13 1.06 0.26 c 0.1 0.18 0.12 0.31 0.12 1.07 c 0 0.48 0.02 0.91 0.04 0.97 c 0.03 0.09 0.2 0.1 1.22 0.1 c 0.65 0 1.28 0.03 1.39 0.06 c 0.12 0.04 0.3 0.16 0.4 0.28 c 0.15 0.18 0.18 0.27 0.18 0.52 c 0 0.26 -0.03 0.34 -0.19 0.53 c -0.12 0.14 -0.28 0.24 -0.43 0.28 c -0.24 0.06 -3.98 0.07 -4.12 0.02 m 8.61 -0.02 c -0.12 -0.03 -0.29 -0.14 -0.4 -0.27 c -0.16 -0.19 -0.19 -0.27 -0.19 -0.53 c 0 -0.25 0.03 -0.34 0.18 -0.52 c 0.1 -0.12 0.27 -0.25 0.39 -0.28 c 0.12 -0.04 0.75 -0.06 1.4 -0.06 c 1.02 0 1.18 -0.01 1.21 -0.1 c 0.02 -0.05 0.04 -0.49 0.04 -0.97 c 0 -0.76 0.02 -0.89 0.12 -1.07 c 0.23 -0.39 0.71 -0.51 1.06 -0.26 c 0.39 0.27 0.4 0.37 0.4 2.31 c 0 1.53 -0.01 1.75 -0.09 1.78 c -0.14 0.05 -3.89 0.03 -4.13 -0.03 m -8.2 -7.65 c -0.11 -0.05 -0.25 -0.18 -0.32 -0.29 c -0.13 -0.19 -0.13 -0.23 -0.13 -2 v -1.82 l 2.05 -0.02 c 1.94 -0.02 2.06 -0.01 2.29 0.11 c 0.59 0.3 0.61 1.14 0.03 1.46 c -0.13 0.07 -0.43 0.09 -1.42 0.09 c -0.9 0 -1.27 0.02 -1.32 0.07 c -0.05 0.05 -0.07 0.36 -0.07 1.02 c 0 0.93 0 0.94 -0.16 1.14 c -0.16 0.2 -0.46 0.37 -0.65 0.36 c -0.05 0 -0.19 -0.04 -0.3 -0.1 m 11.33 0.02 c -0.1 -0.05 -0.25 -0.17 -0.34 -0.28 c -0.16 -0.2 -0.16 -0.21 -0.16 -1.14 c 0 -0.65 -0.02 -0.96 -0.07 -1.02 c -0.05 -0.05 -0.43 -0.07 -1.32 -0.07 c -1.36 0 -1.47 -0.02 -1.71 -0.35 c -0.15 -0.21 -0.16 -0.64 -0.02 -0.9 c 0.06 -0.1 0.21 -0.23 0.34 -0.3 c 0.23 -0.12 0.35 -0.12 2.29 -0.11 l 2.05 0.02 l 0.02 1.75 c 0.01 1.52 0 1.78 -0.08 1.97 c -0.18 0.41 -0.64 0.61 -0.99 0.43" style="fill:#fff"/></svg>