<svg xmlns="http://www.w3.org/2000/svg" viewBox="0 0 22 22"><path d="m 2.1 5.16 c -11.97 21.86 31.75 22.89 16.71 0.36 c -3.97 -5.8 -13.48 -8.63 -16.71 -0.36" style="fill:#ff8c00"/><path d="m 8.4 18.66 c 0 -0.05 0.41 -0.49 0.91 -0.97 l 0.91 -0.88 h 3.98 c 2.19 0 3.98 0.02 3.98 0.05 c 0 0.04 -0.43 0.47 -0.95 0.97 l -0.95 0.92 h -3.95 c -3.19 0 -3.95 -0.02 -3.95 -0.09 m 0.52 -3.91 c 0 -0.02 0.13 -0.17 0.29 -0.32 c 0.2 -0.19 0.32 -0.38 0.38 -0.61 c 0.06 -0.24 0.13 -0.35 0.24 -0.38 c 0.09 -0.02 0.41 -0.16 0.71 -0.31 l 0.56 -0.28 h 3.54 c 1.95 0 3.54 0.03 3.54 0.06 c 0 0.03 -0.43 0.47 -0.95 0.97 l -0.95 0.91 h -3.69 c -2.03 0 -3.69 -0.02 -3.69 -0.04 m -1.01 -1.13 c -0.11 -0.11 -0.16 -0.28 -0.18 -0.52 l -0.02 -0.36 l -0.55 -0.15 c -0.8 -0.22 -1.43 -0.57 -2.03 -1.15 c -0.61 -0.58 -1 -1.24 -1.19 -1.95 c -0.07 -0.27 -0.16 -0.54 -0.19 -0.59 c -0.04 -0.05 -0.21 -0.09 -0.42 -0.09 c -0.3 0 -0.38 -0.03 -0.51 -0.19 c -0.19 -0.23 -0.19 -0.32 -0.02 -0.54 c 0.1 -0.13 0.24 -0.18 0.53 -0.21 c 0.43 -0.04 0.45 -0.07 0.58 -0.61 c 0.11 -0.48 0.53 -1.3 0.86 -1.7 c 0.64 -0.75 1.48 -1.28 2.39 -1.5 l 0.54 -0.13 l 0.04 -0.38 c 0.03 -0.29 0.09 -0.42 0.21 -0.52 c 0.22 -0.17 0.31 -0.17 0.55 0.02 c 0.16 0.12 0.19 0.21 0.19 0.46 c 0 0.17 0.04 0.34 0.09 0.37 c 0.05 0.03 0.32 0.13 0.61 0.2 c 1.11 0.32 2.09 1.07 2.67 2.03 c 0.26 0.43 0.36 0.68 0.6 1.54 c 0.04 0.16 0.1 0.18 0.41 0.2 c 0.87 0.05 0.95 0.95 0.09 0.95 c -0.17 0 -0.35 0.02 -0.4 0.05 c -0.05 0.03 -0.14 0.27 -0.21 0.52 c -0.41 1.57 -1.8 2.89 -3.4 3.25 c -0.41 0.09 -0.46 0.15 -0.46 0.55 c 0 0.53 -0.46 0.78 -0.79 0.43 m -0.16 -2.74 c 0.05 -0.33 0.21 -0.5 0.47 -0.5 c 0.27 0 0.47 0.21 0.5 0.52 c 0.02 0.24 0.04 0.26 0.24 0.25 c 0.64 -0.02 1.52 -0.71 1.92 -1.5 c 0.32 -0.64 0.31 -0.79 -0.06 -0.82 c -0.27 -0.02 -0.57 -0.28 -0.57 -0.48 c 0 -0.19 0.27 -0.41 0.55 -0.46 c 0.36 -0.05 0.38 -0.15 0.18 -0.68 c -0.21 -0.56 -0.83 -1.2 -1.43 -1.49 c -0.62 -0.3 -0.8 -0.27 -0.85 0.13 c -0.07 0.5 -0.44 0.67 -0.77 0.35 c -0.13 -0.12 -0.18 -0.26 -0.18 -0.43 c 0 -0.23 -0.02 -0.25 -0.21 -0.25 c -0.34 0 -1.07 0.4 -1.44 0.8 c -0.36 0.38 -0.7 1 -0.73 1.34 c -0.01 0.18 0.02 0.2 0.28 0.25 c 0.3 0.05 0.55 0.28 0.55 0.49 c 0 0.19 -0.28 0.44 -0.5 0.44 c -0.37 0 -0.42 0.08 -0.29 0.47 c 0.27 0.77 0.82 1.37 1.59 1.72 c 0.54 0.25 0.68 0.22 0.74 -0.13 m 0.01 -1.61 c -0.54 -0.26 -0.76 -0.94 -0.45 -1.39 c 0.1 -0.14 0.29 -0.33 0.43 -0.42 c 0.46 -0.31 1.16 -0.09 1.42 0.45 c 0.43 0.9 -0.5 1.8 -1.41 1.37 m 5.34 1.52 c -0.02 -0.02 0.05 -0.25 0.16 -0.52 c 0.18 -0.45 0.22 -0.48 0.51 -0.57 c 0.42 -0.12 0.63 -0.27 0.82 -0.57 l 0.16 -0.25 h 1.72 c 0.95 0 1.72 0.02 1.72 0.05 c 0 0.04 -0.43 0.47 -0.95 0.97 l -0.95 0.92 h -1.58 c -0.87 0 -1.6 -0.02 -1.62 -0.04" style="fill:#fff"/></svg>