<svg xmlns="http://www.w3.org/2000/svg" viewBox="0 0 22 22"><path d="m 2.46 6.96 c -1.1 1.3 -2.23 3.77 -2.41 5.27 c -0.27 2.16 0.41 4.66 1.66 6.18 c 1.67 2.04 5.14 3.45 8.64 3.52 c 2.52 0.05 5.91 -0.61 7.65 -1.48 c 1.49 -0.74 2.57 -1.86 3.19 -3.3 c 0.84 -1.95 0.94 -3.87 0.3 -5.8 c -1.02 -4.12 -3.54 -6.95 -5.8 -9.21 c -5.77 -5.08 -9.89 0.79 -13.23 4.82" style="fill:#ff8c00"/><path d="m 4.34 18.1 c -0.02 -0.05 -0.03 -0.24 -0.02 -0.43 l 0.02 -0.33 l 1.17 -0.02 c 1.33 -0.02 1.45 0 1.6 0.22 c 0.14 0.2 0.03 0.46 -0.23 0.57 c -0.27 0.12 -2.5 0.1 -2.55 -0.02 m 7.09 0.01 c -0.24 -0.11 -0.34 -0.38 -0.2 -0.57 c 0.06 -0.09 0.18 -0.18 0.27 -0.2 c 0.09 -0.02 1.56 -0.03 3.28 -0.02 l 3.13 0.02 v 0.82 l -3.16 0.01 c -2.07 0.01 -3.21 -0.01 -3.31 -0.06 m -5.13 -1.84 c -0.05 -0.07 -0.07 -0.98 -0.06 -3.24 l 0.02 -3.15 l 0.32 -0.02 c 0.68 -0.04 0.62 0.08 0.66 -1.36 c 0.04 -1.41 0.1 -1.69 0.53 -2.48 c 1.11 -2.03 4.41 -2.43 6.16 -0.76 c 0.83 0.8 1.1 1.64 1.1 3.43 c 0 1.22 -0.05 1.13 0.64 1.17 l 0.32 0.02 l 0.02 3.15 c 0.01 2.27 0 3.17 -0.06 3.24 c -0.07 0.07 -0.9 0.09 -4.82 0.09 c -3.92 0 -4.75 -0.02 -4.82 -0.09 m 6.74 -6.53 c 0.06 -0.07 0.08 -0.38 0.06 -1.14 c -0.03 -0.9 -0.05 -1.09 -0.19 -1.38 c -0.71 -1.51 -2.86 -1.51 -3.57 0 c -0.14 0.29 -0.16 0.48 -0.19 1.38 c -0.02 0.75 -0.01 1.06 0.06 1.14 c 0.13 0.15 3.7 0.15 3.83 0" style="fill:#fff"/></svg>