<svg xmlns="http://www.w3.org/2000/svg" viewBox="0 0 22 22"><path d="m 19.46 18.1 c 5.35 -8.18 1.03 -15.64 -5 -17.41 c -8.16 -2.38 -19.23 3.87 -11.93 16.76 c 2.9 5.12 13.1 6.48 16.96 0.65" style="fill:#fb8600"/><path d="m 6.17 18 c -0.32 -0.12 -0.71 -0.52 -0.79 -0.81 c -0.08 -0.3 -0.08 -11.38 0 -11.69 c 0.08 -0.3 0.48 -0.7 0.82 -0.82 c 0.24 -0.08 0.58 -0.09 2.13 -0.08 l 1.85 0.02 l 0.02 2.61 c 0.01 1.43 0 2.65 -0.02 2.7 c -0.02 0.06 -0.19 -0.07 -0.55 -0.44 c -0.29 -0.29 -0.58 -0.55 -0.65 -0.59 c -0.07 -0.04 -0.38 -0.07 -0.67 -0.07 h -0.54 v 0.54 c 0 0.42 0.02 0.58 0.11 0.73 c 0.18 0.31 3.47 3.71 3.59 3.71 c 0.06 0 0.87 -0.81 1.87 -1.86 c 1.93 -2.04 1.85 -1.93 1.82 -2.68 l -0.02 -0.4 l -0.48 -0.02 c -0.27 -0.01 -0.54 0 -0.63 0.02 c -0.08 0.02 -0.39 0.29 -0.69 0.59 c -0.3 0.3 -0.56 0.55 -0.58 0.55 c -0.02 0 -0.04 -1.21 -0.03 -2.68 l 0.02 -2.69 h 2.74 l 0.3 0.16 c 0.4 0.22 0.78 0.66 0.89 1.05 c 0.13 0.45 0.13 8.1 0 8.54 c -0.13 0.42 -0.45 0.79 -0.88 1.02 l -0.37 0.19 h -4.3 c -4.79 0 -4.56 -0.02 -4.85 0.43 c -0.17 0.27 -0.17 0.54 0 0.81 c 0.29 0.45 0.05 0.43 4.87 0.41 l 4.32 -0.02 l 0.3 -0.16 c 0.32 -0.18 0.61 -0.46 0.78 -0.77 c 0.13 -0.23 0.2 -0.21 0.2 0.07 c 0 0.6 -0.4 1.25 -0.98 1.56 l -0.3 0.17 l -4.53 0.01 c -3.9 0.01 -4.57 0 -4.78 -0.08" style="fill:#fff"/></svg>