<svg xmlns="http://www.w3.org/2000/svg" viewBox="0 0 22 22"><path d="m 19.89 5.16 c 11.97 21.86 -31.75 22.89 -16.7 0.36 c 3.97 -5.8 13.48 -8.63 16.7 -0.36" style="fill:#ff8c00"/><path d="m 6.77 18.45 c -0.05 -0.02 -0.19 -0.12 -0.3 -0.22 c -0.34 -0.3 -0.48 -0.8 -0.51 -1.84 c -0.04 -1 -0.01 -1.14 0.66 -3.72 c 0.6 -2.32 0.7 -2.86 0.7 -3.89 c 0 -0.74 -0.02 -0.93 -0.14 -1.3 c -0.18 -0.52 -0.45 -0.88 -0.9 -1.16 c -0.2 -0.12 -0.33 -0.25 -0.33 -0.31 c 0 -0.1 0.06 -0.11 0.48 -0.11 c 0.94 0 1.87 0.21 2.36 0.52 c 0.14 0.09 0.33 0.3 0.43 0.46 c 0.16 0.27 0.18 0.36 0.18 0.82 c 0 0.72 -0.09 1 -1.05 3.37 c -0.78 1.93 -1 2.79 -1 3.93 c 0 1.38 0.4 2.22 1 2.08 c 0.1 -0.02 0.38 -0.22 0.61 -0.45 c 0.24 -0.23 0.45 -0.41 0.46 -0.41 c 0.02 0 0.03 0.15 0.03 0.34 v 0.34 l -0.63 0.57 c -0.38 0.34 -0.79 0.64 -1.02 0.77 c -0.38 0.19 -0.86 0.29 -1.05 0.21 m 4.21 -0.45 c -0.25 -0.14 -0.25 -0.32 0.01 -0.81 c 0.39 -0.75 0.48 -1.06 0.48 -1.7 c 0 -0.44 -0.03 -0.66 -0.14 -0.96 c -0.2 -0.54 -0.24 -0.93 -0.14 -1.36 c 0.23 -1.05 1.07 -1.83 2.16 -2 c 1.09 -0.18 2.29 0.41 2.78 1.38 c 0.17 0.32 0.21 0.49 0.23 0.91 c 0.04 0.62 -0.08 1.03 -0.43 1.54 c -0.37 0.53 -1.18 1.3 -1.77 1.66 c -0.48 0.3 -2.85 1.4 -3 1.4 c -0.04 0 -0.12 -0.03 -0.18 -0.07 m 4.38 -7.34 c -0.79 -0.21 -1.46 -0.42 -1.49 -0.46 c -0.07 -0.1 -0.06 -4.31 0.01 -4.41 c 0.04 -0.06 0.16 -0.07 0.53 -0.04 c 1.06 0.1 1.64 0.35 2.21 0.97 c 0.74 0.79 0.96 0.97 1.24 1.02 c 0.14 0.02 0.27 0.07 0.29 0.11 c 0.04 0.09 -1.2 3.17 -1.29 3.19 c -0.04 0.01 -0.71 -0.16 -1.5 -0.38" style="fill:#fff"/></svg>