<svg xmlns="http://www.w3.org/2000/svg" viewBox="0 0 22 22"><path d="m 2.1 5.16 c -11.97 21.86 31.75 22.89 16.71 0.36 c -3.97 -5.8 -13.48 -8.63 -16.71 -0.36" style="fill:#ff8c00"/><path d="m 14.62 18.68 c -1.76 -1.52 -2.38 -1.39 -5.45 -5.11 l -3.31 -3.98 l -1.3 -1.93 c -1.53 -2.27 -0.96 -1.44 -0.86 -1.44 c 0.04 0 0.46 0 1.53 0.82 l 1.93 1.5 l 3.51 3.81 l 3.52 3.8 l 1.21 2 c 0.15 0.8 0.89 1.99 0.57 1.55 c -0.03 0 -0.31 -0.14 -1.33 -1.02 m 3.04 -0.96 c -1.4 -3.8 -1.88 -4.8 -3.39 -7.1 c -1.47 -2.2 -2.68 -3.19 -6.41 -5.28 c -0.64 -0.36 -0.87 -0.55 -0.65 -0.55 c 0.17 0 1.27 0.25 1.92 0.44 c 2.34 0.67 4.43 1.74 5.56 2.86 c 0.78 0.77 1.84 2.53 2.26 3.74 c 0.39 1.12 0.75 3.34 0.87 5.37 c 0.03 0.44 0.03 0.8 0.01 0.8 c -0.03 0 -0.1 -0.15 -0.17 -0.33" style="fill:#fff"/></svg>