<svg xmlns="http://www.w3.org/2000/svg" viewBox="0 0 22 22"><path d="m 6.24 21.6 c 30.71 3.82 8.2 -40.1 -5.21 -12 c -2.1 4.93 -0.99 10.49 5.21 12" style="fill:#ff8c00"/><path d="m 4.64 18.4 c 0 -0.05 0.62 -0.73 1.37 -1.5 l 1.37 -1.41 h 5.3 c 2.91 0 5.3 0.03 5.3 0.05 c 0 0.03 -0.63 0.71 -1.4 1.5 l -1.4 1.45 h -5.27 c -4.19 0 -5.27 -0.02 -5.27 -0.09 m 6.29 -3.76 c -0.03 -0.03 -0.05 -0.18 -0.05 -0.35 c 0 -1.12 -0.32 -1.9 -1.11 -2.73 c -0.7 -0.73 -0.89 -1.16 -0.89 -2 c 0 -0.44 0.04 -0.64 0.18 -0.96 c 0.24 -0.54 0.66 -1 1.17 -1.26 c 0.37 -0.2 0.48 -0.21 1.08 -0.21 c 0.61 0 0.72 0.02 1.09 0.21 c 0.5 0.26 0.93 0.72 1.17 1.27 c 0.58 1.3 -0.25 4.12 -1.6 5.47 c -0.45 0.45 -0.91 0.7 -1.03 0.58 m -1.23 -8.54 c -0.11 -0.18 -0.43 -2.32 -0.35 -2.39 c 0.1 -0.11 3.82 -0.11 3.92 0 c 0.07 0.08 -0.24 2.21 -0.35 2.39 c -0.04 0.07 -0.45 0.09 -1.61 0.09 c -1.16 0 -1.57 -0.02 -1.61 -0.09" style="fill:#fff"/></svg>