<svg xmlns="http://www.w3.org/2000/svg" viewBox="0 0 22 22"><path d="m 19.8 5.12 c 11.97 21.86 -31.75 22.89 -16.71 0.36 c 3.97 -5.8 13.48 -8.63 16.71 -0.36" style="fill:#ff8c00"/><path d="m 9.16 19.82 c -0.08 -0.08 -0.14 -0.2 -0.14 -0.27 c 0 -0.07 0.29 -0.43 0.65 -0.79 c 0.94 -0.94 1.31 -1.69 1.31 -2.63 c 0 -1.73 1.68 -3.13 3.37 -2.83 c 2.37 0.43 3.2 3.38 1.41 4.98 c -0.83 0.75 -2.24 1.22 -4.36 1.45 c -2.14 0.23 -2.09 0.23 -2.25 0.07 m -0.82 -4.85 c -0.1 -0.11 -0.16 -0.27 -0.17 -0.5 l -0.02 -0.35 l -0.46 -0.12 c -1.59 -0.4 -2.82 -1.62 -3.18 -3.16 c -0.05 -0.23 -0.14 -0.46 -0.19 -0.49 c -0.05 -0.03 -0.22 -0.06 -0.38 -0.06 c -0.23 0 -0.32 -0.04 -0.44 -0.18 c -0.18 -0.23 -0.18 -0.32 -0.02 -0.52 c 0.1 -0.12 0.23 -0.17 0.51 -0.2 l 0.38 -0.04 l 0.13 -0.49 c 0.4 -1.58 1.67 -2.87 3.14 -3.2 c 0.5 -0.11 0.56 -0.16 0.56 -0.49 c 0 -0.2 0.05 -0.32 0.17 -0.45 c 0.21 -0.21 0.31 -0.21 0.55 -0.03 c 0.15 0.12 0.18 0.2 0.18 0.45 c 0 0.36 0.05 0.41 0.58 0.52 c 1.44 0.31 2.74 1.63 3.13 3.17 l 0.13 0.51 l 0.34 0.02 c 0.83 0.05 0.9 0.92 0.08 0.93 c -0.16 0 -0.33 0.02 -0.38 0.05 c -0.04 0.03 -0.12 0.22 -0.16 0.43 c -0.34 1.52 -1.58 2.79 -3.09 3.2 c -0.25 0.07 -0.49 0.15 -0.54 0.19 c -0.05 0.04 -0.09 0.21 -0.09 0.38 c 0 0.52 -0.43 0.77 -0.75 0.43 m -0.15 -2.67 c 0.07 -0.45 0.41 -0.64 0.71 -0.4 c 0.13 0.1 0.19 0.22 0.2 0.41 c 0.02 0.24 0.04 0.26 0.25 0.25 c 0.77 -0.04 1.97 -1.23 2 -2 c 0.01 -0.21 -0.01 -0.23 -0.25 -0.25 c -0.26 -0.02 -0.54 -0.27 -0.54 -0.47 c 0 -0.18 0.26 -0.4 0.53 -0.45 c 0.27 -0.04 0.28 -0.05 0.26 -0.31 c -0.03 -0.55 -0.69 -1.42 -1.3 -1.73 c -0.76 -0.39 -0.96 -0.38 -0.96 0.06 c 0 0.14 -0.05 0.28 -0.15 0.37 c -0.32 0.3 -0.68 0.09 -0.76 -0.44 c -0.04 -0.27 -0.06 -0.29 -0.21 -0.28 c -0.32 0.04 -0.91 0.36 -1.25 0.68 c -0.39 0.36 -0.77 1.02 -0.8 1.38 c -0.02 0.23 -0.01 0.24 0.24 0.26 c 0.18 0.02 0.3 0.08 0.41 0.2 c 0.27 0.34 0.11 0.65 -0.37 0.72 c -0.27 0.04 -0.3 0.06 -0.29 0.23 c 0.04 0.63 0.76 1.52 1.51 1.88 c 0.56 0.27 0.7 0.25 0.76 -0.1 m -0.05 -1.59 c -0.84 -0.51 -0.55 -1.77 0.43 -1.87 c 0.8 -0.08 1.37 0.82 0.96 1.5 c -0.29 0.48 -0.93 0.65 -1.38 0.37 m 7.2 2 c -1.18 -0.4 -1.3 -0.45 -1.32 -0.61 c -0.03 -0.27 0.88 -7.44 0.96 -7.51 c 0.04 -0.04 0.22 -0.04 0.48 0.01 c 1.05 0.19 1.86 0.7 2.44 1.55 c 0.44 0.64 0.7 1.39 0.81 2.37 l 0.09 0.73 l -0.97 1.95 c -0.65 1.3 -1.01 1.95 -1.08 1.95 c -0.06 0 -0.69 -0.2 -1.4 -0.45" style="fill:#fff"/></svg>