<svg xmlns="http://www.w3.org/2000/svg" viewBox="0 0 22 22"><path d="m 19.46 4 c 5.35 8.18 1.03 15.64 -5 17.41 c -8.16 2.38 -19.23 -3.88 -11.93 -16.76 c 2.9 -5.12 13.1 -6.48 16.96 -0.65" style="fill:#fb8600"/><path d="m 4.49 18.31 c -0.03 -0.02 0.53 -0.64 1.23 -1.38 l 1.27 -1.33 h 1.82 l 0.99 0.85 c 1.24 1.07 1.21 1.05 1.6 1.05 c 0.39 0 0.36 0.02 1.6 -1.05 l 0.98 -0.85 h 1.73 c 0.95 0 1.73 0.02 1.73 0.05 c 0 0.03 -0.57 0.65 -1.27 1.38 l -1.27 1.33 h -5.19 c -2.85 0 -5.21 -0.02 -5.23 -0.05 m 5.59 -2.96 c -1.06 -0.93 -1.29 -1.16 -1.31 -1.32 c -0.01 -0.11 0.02 -0.22 0.07 -0.25 c 0.05 -0.03 0.44 -0.06 0.88 -0.06 h 0.79 l -0.02 -1.36 l -0.02 -1.36 h -2.57 l -0.03 0.88 l -0.04 0.88 h -0.22 c -0.21 0 -0.28 -0.07 -1.27 -1.31 c -0.57 -0.72 -1.04 -1.35 -1.04 -1.4 c 0 -0.05 0.48 -0.7 1.07 -1.44 c 1 -1.26 1.09 -1.35 1.27 -1.33 l 0.2 0.02 l 0.02 0.89 c 0.02 0.86 0.02 0.89 0.16 0.93 c 0.08 0.02 0.66 0.03 1.3 0.02 l 1.16 -0.02 v -2.76 l -0.84 -0.03 l -0.84 -0.04 l -0.02 -0.2 c -0.02 -0.19 0.06 -0.28 1.27 -1.33 c 0.71 -0.62 1.32 -1.13 1.36 -1.13 c 0.04 0 0.65 0.51 1.36 1.13 c 1.21 1.05 1.29 1.14 1.27 1.33 l -0.02 0.2 l -0.84 0.04 l -0.84 0.03 v 2.76 l 1.16 0.02 c 0.64 0.01 1.23 0 1.3 -0.02 c 0.14 -0.04 0.14 -0.07 0.16 -0.93 l 0.02 -0.89 l 0.2 -0.02 c 0.19 -0.02 0.26 0.05 1.27 1.32 c 0.59 0.74 1.07 1.39 1.07 1.44 c 0 0.05 -0.48 0.69 -1.07 1.42 c -1.01 1.27 -1.07 1.33 -1.27 1.31 l -0.21 -0.02 l -0.06 -1.75 h -2.57 l -0.02 1.36 l -0.02 1.36 h 0.79 c 0.43 0 0.83 0.03 0.88 0.06 c 0.05 0.03 0.08 0.14 0.07 0.25 c -0.02 0.16 -0.25 0.39 -1.31 1.32 c -0.71 0.62 -1.3 1.13 -1.32 1.13 c -0.02 0 -0.61 -0.5 -1.32 -1.13" style="fill:#fff"/></svg>