<svg xmlns="http://www.w3.org/2000/svg" viewBox="0 0 22 22"><path d="m 18.25 18.24 c 11.16 -9 -5.18 -25.28 -15.1 -14.89 c -9.9 8.95 5.55 26.3 15.1 14.89" style="fill:#ff8c00"/><path d="m 6.17 17.61 l -1.14 -0.02 c 0.81 -0.78 1.62 -1.56 2.43 -2.35 h 2.04 c 2 0 2.05 0 2.18 0.15 c 0.07 0.09 0.56 0.54 1.09 1 l 0.95 0.86 c 0.74 -0.66 1.56 -1.38 2.18 -2 c 0.38 0 0.77 0 1.15 0.01 l -1.25 1.21 l -1.25 1.21 l -3.61 -0.02 c -1.59 -0.02 -3.17 -0.01 -4.76 -0.04" style="fill:#ffdeac"/><path d="m 12.41 14.75 c -1.43 -1.34 -1.41 -1.23 -0.26 -1.26 l 0.68 -0.02 l 0.02 -1.99 c 0.01 -1.42 0 -2 -0.05 -2.07 c -0.11 -0.12 -3.36 -0.12 -3.47 0 c -0.09 0.25 -0.05 0.46 -0.04 0.73 l 0.74 0.02 c 0.41 0.01 0.79 0.03 0.84 0.05 c 0.06 0.02 -0.31 0.41 -1.16 1.21 c -0.69 0.65 -1.28 1.18 -1.32 1.18 c -0.04 0 -0.62 -0.52 -1.29 -1.15 c -0.8 -0.75 -1.2 -1.17 -1.16 -1.21 c 0.04 -0.03 0.39 -0.07 0.8 -0.07 l 0.74 -0.02 l 0.04 -0.57 c 0.06 -0.84 0.35 -1.31 1.04 -1.67 l 0.34 -0.18 h 4.32 l 0.34 0.18 c 0.38 0.2 0.65 0.46 0.87 0.84 c 0.14 0.25 0.14 0.3 0.16 2.51 l 0.02 2.25 h 0.77 c 0.49 0 0.78 0.02 0.81 0.07 c 0.04 0.07 -2.34 2.36 -2.45 2.36 c -0.04 0 -0.63 -0.53 -1.32 -1.18 m -7.41 -7.95 c 0 -0.02 0.57 -0.58 1.27 -1.24 l 1.27 -1.2 h 4.74 c 2.61 0 4.76 0.02 4.79 0.04 c -0.83 0.91 -1.54 1.53 -2.5 2.44 h -4.78 c -2.63 0 -4.79 -0.02 -4.79 -0.05" style="fill:#fff"/><g style="fill:#ffdeac"><path d="m 5.13 14.23 c 0 -0.07 1.15 -1.21 1.52 -1.49 l 0.19 -0.15 c 0.51 0.4 0.95 0.91 1.5 1.27 c 0.5 -0.27 0.81 -0.59 1.27 -0.99 c 0.42 0.75 0.47 0.92 0.75 1.39 c 0 0.03 -1.18 0.05 -2.61 0.05 c -1.77 0 -2.61 -0.02 -2.61 -0.07"/><path d="m 9.93 12.6 c 0.21 -0.29 0.42 -0.47 0.69 -0.73 c 0.43 0.04 0.88 -0.04 1.3 0 v 0.52 c 0 0.38 -0.09 0.27 -1.11 0.27 c -0.48 0 -0.88 -0.03 -0.88 -0.06"/><path d="m 15.41 12.49 c -0.04 -0.56 0.04 -0.62 0.57 -0.62 c 0.36 0 0.7 0.04 1.05 0.11 l -0.39 0.34 c -0.34 0.3 -0.43 0.34 -0.72 0.34 c -0.32 0 -0.5 0.02 -0.52 -0.17"/></g></svg>