<svg xmlns="http://www.w3.org/2000/svg" viewBox="0 0 22 22"><path d="m 18.25 3.76 c 11.16 9 -5.18 25.28 -15.1 14.89 c -9.9 -8.95 5.55 -26.3 15.1 -14.89" style="fill:#ff8c00"/><path d="m 4.7 16.99 c 0 -0.02 1.25 -1.29 2.77 -2.8 c 1.52 -1.52 2.77 -2.8 2.77 -2.84 c 0 -0.04 -1.25 -1.32 -2.77 -2.84 c -1.52 -1.52 -2.77 -2.78 -2.77 -2.8 c 0 -0.02 2.55 -0.04 5.68 -0.04 h 5.68 v 11.36 h -5.68 c -3.12 0 -5.68 -0.02 -5.68 -0.04" style="fill:#fff"/><path d="m 13.1 14.17 c -1.52 -1.51 -2.76 -2.78 -2.76 -2.83 c 0 -0.1 5.48 -5.57 5.58 -5.57 c 0.05 0 0.07 1.16 0.07 5.57 c 0 4.43 -0.01 5.57 -0.07 5.57 c -0.04 0 -1.31 -1.23 -2.82 -2.75" style="fill:#ffdeac"/></svg>