<svg xmlns="http://www.w3.org/2000/svg" viewBox="0 0 22 22"><path d="m 2.46 6.96 c -1.1 1.3 -2.23 3.77 -2.41 5.27 c -0.27 2.16 0.41 4.66 1.66 6.18 c 1.67 2.04 5.14 3.45 8.64 3.52 c 2.52 0.05 5.91 -0.61 7.65 -1.48 c 1.49 -0.74 2.57 -1.86 3.19 -3.3 c 0.84 -1.95 0.94 -3.87 0.3 -5.8 c -1.02 -4.12 -3.54 -6.95 -5.8 -9.21 c -5.77 -5.08 -9.89 0.79 -13.23 4.82" style="fill:#ff8c00"/><path d="m 4.76 18.22 c -0.02 -0.05 -0.03 -0.25 -0.02 -0.43 l 0.02 -0.34 h 12.82 v 0.84 l -6.39 0.02 c -5.39 0.02 -6.4 0 -6.43 -0.08 m 5.98 -1.94 c -0.02 -0.05 -0.05 -0.33 -0.07 -0.62 c -0.09 -1.25 -0.37 -1.88 -1.17 -2.7 c -0.68 -0.7 -0.91 -1.09 -1.03 -1.81 c -0.26 -1.56 0.74 -3 2.28 -3.28 c 1.35 -0.24 2.73 0.71 3.08 2.11 c 0.29 1.16 -0.22 3.25 -1.17 4.78 c -0.61 0.99 -1.8 1.93 -1.93 1.52 m -1.41 -9.53 c -0.08 -0.25 -0.44 -2.64 -0.41 -2.7 c 0.07 -0.11 4.46 -0.09 4.5 0.02 c 0.02 0.05 -0.07 0.68 -0.19 1.41 l -0.22 1.32 l -1.83 0.02 c -1.43 0.02 -1.84 0 -1.86 -0.07" style="fill:#fff"/></svg>