<svg xmlns="http://www.w3.org/2000/svg" viewBox="0 0 22 22"><path d="m 2.1 5.16 c -11.97 21.86 31.75 22.89 16.71 0.36 c -3.97 -5.8 -13.48 -8.63 -16.71 -0.36" style="fill:#ff8c00"/><path d="m 13.72 19.36 c -1.96 -0.2 -3 -0.75 -3.43 -1.84 c -0.16 -0.4 -0.19 -1.05 -0.08 -1.62 c 0.23 -1.13 0.76 -1.88 2.16 -3 c 1.59 -1.29 2.27 -2.02 2.76 -2.97 c 0.48 -0.93 0.57 -1.78 0.27 -2.47 c -0.41 -0.95 -1.7 -1.7 -3.31 -1.93 c -0.25 -0.04 -0.5 -0.08 -0.55 -0.1 c -0.13 -0.04 -0.47 -0.76 -0.41 -0.86 c 0.08 -0.14 1.9 0.05 2.84 0.3 c 2.09 0.54 3.11 1.77 3.25 3.92 c 0.09 1.44 -0.41 2.34 -2.92 5.26 c -1.2 1.39 -1.6 2.09 -1.61 2.76 c 0 0.63 0.44 1.13 1.27 1.41 c 0.45 0.16 1.11 0.27 1.52 0.27 c 0.36 0 0.39 0.11 0.16 0.56 l -0.18 0.36 h -0.58 c -0.32 0.01 -0.84 -0.02 -1.16 -0.05 m -6.11 -4.76 c -0.09 -0.1 -0.14 -0.26 -0.16 -0.48 l -0.02 -0.34 l -0.43 -0.11 c -1.47 -0.39 -2.61 -1.57 -2.94 -3.06 c -0.05 -0.23 -0.13 -0.44 -0.18 -0.47 c -0.05 -0.03 -0.21 -0.05 -0.36 -0.05 c -0.21 0 -0.3 -0.04 -0.41 -0.18 c -0.16 -0.22 -0.17 -0.31 -0.01 -0.51 c 0.09 -0.12 0.21 -0.17 0.47 -0.2 l 0.35 -0.04 l 0.11 -0.48 c 0.38 -1.53 1.54 -2.78 2.9 -3.09 c 0.46 -0.11 0.52 -0.16 0.52 -0.48 c 0 -0.2 0.04 -0.31 0.16 -0.43 c 0.19 -0.2 0.29 -0.21 0.51 -0.03 c 0.14 0.11 0.17 0.2 0.17 0.43 c 0 0.35 0.05 0.4 0.54 0.51 c 1.33 0.3 2.53 1.57 2.89 3.07 l 0.12 0.5 l 0.32 0.02 c 0.76 0.05 0.83 0.89 0.07 0.9 c -0.15 0 -0.31 0.02 -0.35 0.05 c -0.04 0.03 -0.11 0.21 -0.15 0.42 c -0.32 1.46 -1.46 2.7 -2.86 3.09 c -0.23 0.06 -0.45 0.15 -0.5 0.18 c -0.04 0.04 -0.08 0.2 -0.08 0.36 c 0 0.51 -0.4 0.75 -0.7 0.41 m -0.14 -2.58 c 0.07 -0.44 0.38 -0.62 0.66 -0.38 c 0.12 0.09 0.18 0.21 0.19 0.39 c 0.02 0.24 0.03 0.25 0.23 0.24 c 0.72 -0.03 1.82 -1.2 1.86 -1.95 c 0.01 -0.2 -0.01 -0.21 -0.23 -0.23 c -0.24 -0.02 -0.5 -0.26 -0.5 -0.46 c 0 -0.18 0.24 -0.39 0.49 -0.43 c 0.25 -0.04 0.25 -0.05 0.24 -0.3 c -0.03 -0.53 -0.64 -1.38 -1.2 -1.68 c -0.7 -0.38 -0.89 -0.36 -0.89 0.05 c 0 0.14 -0.05 0.27 -0.14 0.36 c -0.3 0.29 -0.63 0.09 -0.7 -0.42 c -0.03 -0.25 -0.05 -0.29 -0.2 -0.27 c -0.29 0.03 -0.84 0.34 -1.16 0.65 c -0.36 0.35 -0.71 0.99 -0.73 1.34 c -0.02 0.22 -0.01 0.23 0.22 0.25 c 0.16 0.02 0.28 0.07 0.37 0.2 c 0.25 0.33 0.1 0.63 -0.34 0.7 c -0.25 0.04 -0.28 0.06 -0.27 0.23 c 0.04 0.61 0.7 1.46 1.39 1.81 c 0.52 0.26 0.65 0.25 0.7 -0.09 m -0.05 -1.54 c -0.78 -0.5 -0.51 -1.71 0.39 -1.81 c 0.74 -0.08 1.27 0.79 0.89 1.45 c -0.27 0.46 -0.86 0.63 -1.28 0.36" style="fill:#fff"/></svg>