<svg xmlns="http://www.w3.org/2000/svg" viewBox="0 0 22 22"><path d="m 3.75 3.76 c -11.16 9 5.18 25.28 15.1 14.89 c 9.9 -8.95 -5.55 -26.3 -15.1 -14.89" style="fill:#ff8c00"/><path d="m 4.66 17.62 c -0.02 -0.02 0.49 -0.6 1.15 -1.28 l 1.19 -1.23 h 5.29 c 4.26 0 5.29 0.02 5.29 0.08 c 0 0.04 -0.52 0.62 -1.16 1.28 l -1.16 1.2 h -5.27 c -2.9 0 -5.29 -0.02 -5.31 -0.04 m 8.13 -3.73 c -0.14 -0.14 -0.12 -0.2 0.16 -0.8 c 0.22 -0.47 0.26 -0.61 0.28 -1.06 c 0.02 -0.41 0 -0.61 -0.11 -0.97 c -0.26 -0.88 -0.08 -1.66 0.51 -2.22 c 0.43 -0.41 0.75 -0.54 1.36 -0.54 c 0.46 0 0.55 0.02 0.92 0.2 c 0.84 0.43 1.28 1.36 1.07 2.25 c -0.16 0.69 -1 1.69 -1.84 2.2 c -0.52 0.31 -2.04 1.05 -2.17 1.05 c -0.04 0 -0.13 -0.04 -0.18 -0.1 m -7.14 -0.62 c -0.86 -0.27 -1.35 -1.42 -0.98 -2.27 c 0.14 -0.33 0.48 -0.69 0.79 -0.85 c 0.3 -0.16 1.1 -0.16 1.41 0 c 0.55 0.29 0.91 0.88 0.91 1.5 c 0 1.17 -1.05 1.96 -2.13 1.62 m 0.9 -0.89 c 0.27 -0.15 0.44 -0.47 0.41 -0.78 c -0.06 -0.46 -0.35 -0.74 -0.79 -0.74 c -0.44 0 -0.73 0.27 -0.79 0.74 c -0.05 0.45 0.34 0.89 0.79 0.89 c 0.1 0 0.27 -0.05 0.39 -0.11 m 3.2 0.87 c -0.23 -0.09 -0.42 -0.21 -0.61 -0.43 c -0.99 -1.07 -0.28 -2.82 1.15 -2.82 c 0.94 0 1.63 0.71 1.63 1.68 c 0 1.16 -1.1 1.96 -2.16 1.56 m -1.98 -3.4 c -1.43 -0.46 -1.57 -2.46 -0.22 -3.12 c 0.88 -0.43 1.96 0.07 2.24 1.03 c 0.18 0.66 0.02 1.26 -0.48 1.73 c -0.43 0.41 -0.99 0.54 -1.54 0.36 m 0.96 -0.9 c 0.18 -0.13 0.36 -0.47 0.36 -0.68 c 0 -0.43 -0.35 -0.82 -0.77 -0.86 c -0.94 -0.09 -1.28 1.17 -0.44 1.62 c 0.25 0.13 0.59 0.1 0.84 -0.08 m 6.87 -1.38 c -0.54 -0.1 -1.02 -0.19 -1.07 -0.21 c -0.07 -0.03 -0.08 -0.35 -0.08 -1.68 v -1.65 l 0.14 -0.04 c 0.22 -0.05 1.08 0.13 1.41 0.3 c 0.2 0.1 0.48 0.35 0.8 0.72 c 0.33 0.38 0.55 0.57 0.67 0.6 c 0.38 0.09 0.37 0.13 -0.26 1.54 c -0.32 0.72 -0.16 0.68 -1.6 0.42" style="fill:#fff"/></svg>