<svg xmlns="http://www.w3.org/2000/svg" viewBox="0 0 22 22"><path d="m 21.6 13.51 c -4.24 20.37 -33.42 -1.5 -15.89 -11.86 c 6.81 -4.44 18.1 1.37 15.89 11.86" style="fill:#ffa400"/><path d="m 10.39 4.57 c -1.8 0 -3.25 1.22 -3.25 2.74 v 1.96 h -0.74 v 6.21 h 8.38 v -6.21 h -0.69 v -1.96 c 0 -1.52 -1.45 -2.74 -3.25 -2.74 m -0.33 1.2 h 0.27 c 1.09 0 1.97 0.91 1.98 2.05 v 1.45 h -4.22 v -1.45 c 0 -1.14 0.88 -2.05 1.98 -2.05 m 0.18 5.11 c 0.52 0.02 0.92 0.38 0.92 0.81 c 0 0.29 -0.18 0.55 -0.48 0.7 l 0.2 1.92 c -0.48 0.13 -0.9 0.11 -1.36 -0.04 l 0.19 -1.89 c -0.29 -0.15 -0.46 -0.41 -0.47 -0.69 c 0 -0.43 0.39 -0.78 0.9 -0.81 h 0.1" style="fill:#fff;fill-rule:evenodd"/><path d="m 40 142.3 l -5.48 5.44 c -1.85 1.88 -2.07 4.64 -0.48 6.2 l 51.9 51.4 c 1.62 1.59 4.39 1.36 6.21 -0.49 l 5.52 -5.48 c 1.82 -1.85 2.04 -4.61 0.44 -6.17 l -51.9 -51.4 c -1.59 -1.56 -4.39 -1.36 -6.21 0.49" transform="matrix(0.06 -0.061 0.061 0.06 0.49 8.96)" style="fill:#ff4500;stroke:#ff4500;stroke-linecap:round;stroke-width:1.53"/></svg>