<svg xmlns="http://www.w3.org/2000/svg" viewBox="0 0 22 22"><path d="m 21.6 13.51 c -4.24 20.37 -33.42 -1.5 -15.89 -11.86 c 6.81 -4.44 18.1 1.37 15.89 11.86" style="fill:#ff8c00"/><path d="m 10.39 4.57 c -1.8 0 -3.25 1.22 -3.25 2.74 v 1.96 h -0.74 v 6.21 h 8.38 v -6.21 h -0.69 v -1.96 c 0 -1.52 -1.45 -2.74 -3.25 -2.74 m -0.33 1.2 h 0.27 c 1.09 0 1.97 0.91 1.98 2.05 v 1.45 h -4.22 v -1.45 c 0 -1.14 0.88 -2.05 1.98 -2.05 m 0.18 5.11 c 0.52 0.02 0.92 0.38 0.92 0.81 c 0 0.29 -0.18 0.55 -0.48 0.7 l 0.2 1.92 c -0.48 0.13 -0.9 0.11 -1.36 -0.04 l 0.19 -1.89 c -0.29 -0.15 -0.46 -0.41 -0.47 -0.69 c 0 -0.43 0.39 -0.78 0.9 -0.81 h 0.1" style="fill:#fff;fill-rule:evenodd"/><g style="fill:#ff4500;stroke:#ff4500;stroke-linecap:round;stroke-width:1.48"><path d="m -551.8 780.8 h 7.19 c 2.43 0.01 4.37 1.83 4.39 4.08 l 0.01 73.7 c -0.02 2.25 -1.98 4.07 -4.41 4.06 h -7.15 c -2.43 0.03 -4.42 -1.83 -4.39 -4.08 l -0.01 -73.7 c 0.02 -2.25 1.98 -4.07 4.36 -4.06" transform="matrix(-0.085 0.001 0 0.085 -32.3 -53.91)"/><path d="m 818.1 507.3 l 7.17 0.02 c 2.39 -0.02 4.39 1.79 4.38 4 v 73.7 c -0.02 2.25 -1.97 4.1 -4.36 4.07 l -7.22 0.02 c -2.39 -0.02 -4.35 -1.84 -4.33 -4.08 l -0.05 -73.7 c 0.02 -2.25 1.97 -4.05 4.41 -4.07" transform="matrix(0 0.085 0.085 -0.001 -32.3 -53.91)"/></g></svg>