<svg xmlns="http://www.w3.org/2000/svg" viewBox="0 0 22 22"><path d="m 11.21 21.88 c -2.27 -0.18 -4.93 -1.26 -6.77 -2.77 c -2.25 -1.83 -3.9 -4.64 -4.34 -7.41 c -0.53 -3.66 1.6 -7.59 4 -9.45 c 1.2 -0.91 2.8 -1.63 4.3 -1.95 c 3.89 -0.82 7.96 0.73 10.74 4.12 c 1.67 2.03 2.53 4.07 2.74 6.5 c 0.25 2.9 -0.89 6 -2.99 8.11 c -2.38 1.98 -4.84 3.05 -7.67 2.84" style="fill:#ff8c00"/><path d="m 4.68 12.4 c -0.28 -1.39 -0.11 -2.8 0.5 -4.08 c 1.53 -3.24 5.35 -4.61 8.59 -3.09 c 1.26 0.6 2.21 1.48 2.92 2.74 c 0.77 1.36 0.76 2.41 -0.04 3.27 c -0.23 0.25 -0.35 0.32 -0.81 0.49 c -0.5 0.18 -0.58 0.19 -1.02 0.13 c -0.84 -0.13 -1.33 -0.54 -1.77 -1.5 c -0.43 -0.93 -1.01 -1.38 -1.88 -1.46 c -0.48 -0.04 -1.32 0.26 -1.67 0.6 c -0.35 0.34 -0.59 0.83 -0.64 1.32 c -0.04 0.36 -0.02 0.5 0.14 0.96 c 0.17 0.46 0.24 0.58 0.5 0.84 c 0.29 0.27 0.94 0.62 1.39 0.72 c -2.03 1.42 -0.54 2.85 1.25 3.62 c -0.27 0.63 -2.64 0.37 -3.21 0.21 c -2 -0.57 -3.82 -2.58 -4.26 -4.77" style="fill:#fff"/></svg>