<svg xmlns="http://www.w3.org/2000/svg" viewBox="0 0 22 22"><path d="m 11.21 21.88 c -2.27 -0.18 -4.93 -1.26 -6.77 -2.77 c -2.25 -1.83 -3.9 -4.64 -4.34 -7.41 c -0.53 -3.66 1.6 -7.59 4 -9.45 c 1.2 -0.91 2.8 -1.63 4.3 -1.95 c 3.89 -0.82 7.96 0.73 10.74 4.12 c 1.67 2.03 2.53 4.07 2.74 6.5 c 0.25 2.9 -0.89 6 -2.99 8.11 c -2.38 1.98 -4.84 3.05 -7.67 2.84" style="fill:#ff8c00"/><path d="m 10.13 17.46 c -1.4 -0.2 -2.67 -0.84 -3.67 -1.84 c -2.54 -2.54 -2.54 -6.59 0 -9.13 c 0.99 -0.99 2.14 -1.58 3.57 -1.83 c 1.54 -0.27 2.53 0.1 3.07 1.14 c 0.16 0.3 0.18 0.44 0.18 0.93 c 0 0.52 -0.02 0.61 -0.23 1 c -0.41 0.75 -0.96 1.07 -2 1.16 c -1.02 0.09 -1.64 0.48 -2 1.27 c -0.2 0.44 -0.2 1.33 0 1.77 c 0.21 0.45 0.59 0.84 1.02 1.05 c 0.33 0.16 0.47 0.19 0.96 0.19 c 0.49 0 0.63 -0.03 0.95 -0.19 c 0.36 -0.17 0.9 -0.68 1.15 -1.06 c 0.65 2.39 2.5 1.46 3.83 0.04 c 0.5 0.46 -0.55 2.61 -0.89 3.1 c -1.22 1.71 -3.72 2.71 -5.93 2.39" style="fill:#fff"/></svg>