<svg xmlns="http://www.w3.org/2000/svg" viewBox="0 0 22 22"><path d="m 11.21 21.88 c -2.27 -0.18 -4.93 -1.26 -6.77 -2.77 c -2.25 -1.83 -3.9 -4.64 -4.34 -7.41 c -0.53 -3.66 1.6 -7.59 4 -9.45 c 1.2 -0.91 2.8 -1.63 4.3 -1.95 c 3.89 -0.82 7.96 0.73 10.74 4.12 c 1.67 2.03 2.53 4.07 2.74 6.5 c 0.25 2.9 -0.89 6 -2.99 8.11 c -2.38 1.98 -4.84 3.05 -7.67 2.84" style="fill:#ff8c00"/><path d="m 15.33 6.23 c 1.04 0.96 1.71 2.21 1.97 3.61 c 0.64 3.53 -1.66 6.87 -5.18 7.51 c -1.38 0.25 -2.66 0.09 -3.98 -0.52 c -1.42 -0.65 -2.02 -1.52 -1.88 -2.68 c 0.04 -0.34 0.1 -0.46 0.38 -0.87 c 0.3 -0.43 0.36 -0.49 0.76 -0.7 c 0.76 -0.39 1.4 -0.34 2.31 0.18 c 0.89 0.5 1.63 0.54 2.38 0.09 c 0.42 -0.25 0.93 -0.98 1 -1.46 c 0.09 -0.49 0 -1.02 -0.25 -1.45 c -0.18 -0.32 -0.28 -0.42 -0.68 -0.7 c -0.4 -0.28 -0.54 -0.34 -0.89 -0.39 c -0.39 -0.06 -1.13 0.05 -1.55 0.22 c 0.82 -2.34 -1.23 -2.63 -3.12 -2.21 c -0.15 -0.66 1.93 -1.84 2.49 -2.04 c 1.97 -0.71 4.61 -0.13 6.24 1.39" style="fill:#fff"/></svg>