<svg xmlns="http://www.w3.org/2000/svg" viewBox="0 0 22 22"><path d="m 11.21 21.88 c -2.27 -0.18 -4.93 -1.26 -6.77 -2.77 c -2.25 -1.83 -3.9 -4.64 -4.34 -7.41 c -0.53 -3.66 1.6 -7.59 4 -9.45 c 1.2 -0.91 2.8 -1.63 4.3 -1.95 c 3.89 -0.82 7.96 0.73 10.74 4.12 c 1.67 2.03 2.53 4.07 2.74 6.5 c 0.25 2.9 -0.89 6 -2.99 8.11 c -2.38 1.98 -4.84 3.05 -7.67 2.84" style="fill:#ff8c00"/><path d="m 17.32 9.63 c 0.27 1.39 0.09 2.8 -0.52 4.08 c -1.54 3.24 -5.36 4.59 -8.6 3.05 c -1.27 -0.6 -2.2 -1.49 -2.91 -2.75 c -0.77 -1.36 -0.75 -2.42 0.05 -3.27 c 0.23 -0.25 0.35 -0.32 0.81 -0.48 c 0.49 -0.18 0.58 -0.19 1.02 -0.12 c 0.84 0.13 1.33 0.55 1.77 1.5 c 0.42 0.93 1 1.39 1.87 1.46 c 0.48 0.05 1.32 -0.25 1.67 -0.59 c 0.36 -0.34 0.59 -0.83 0.65 -1.32 c 0.04 -0.36 0.02 -0.5 -0.14 -0.96 c -0.16 -0.46 -0.23 -0.58 -0.49 -0.84 c -0.29 -0.28 -0.94 -0.62 -1.39 -0.73 c 2.04 -1.41 0.55 -2.85 -1.24 -3.62 c 0.27 -0.63 2.64 -0.36 3.22 -0.19 c 2 0.58 3.8 2.6 4.23 4.79" style="fill:#fff"/></svg>