<svg xmlns="http://www.w3.org/2000/svg" viewBox="0 0 22 22"><path d="m 11.21 21.88 c -2.27 -0.18 -4.93 -1.26 -6.77 -2.77 c -2.25 -1.83 -3.9 -4.64 -4.34 -7.41 c -0.53 -3.66 1.6 -7.59 4 -9.45 c 1.2 -0.91 2.8 -1.63 4.3 -1.95 c 3.89 -0.82 7.96 0.73 10.74 4.12 c 1.67 2.03 2.53 4.07 2.74 6.5 c 0.25 2.9 -0.89 6 -2.99 8.11 c -2.38 1.98 -4.84 3.05 -7.67 2.84" style="fill:#ff8c00"/><path d="m 11.7 4.64 c 1.4 0.18 2.68 0.8 3.71 1.78 c 2.58 2.49 2.65 6.55 0.16 9.13 c -0.97 1 -2.11 1.62 -3.54 1.89 c -1.54 0.3 -2.53 -0.05 -3.09 -1.09 c -0.16 -0.3 -0.19 -0.43 -0.2 -0.92 c -0.01 -0.53 0.01 -0.61 0.21 -1 c 0.39 -0.76 0.94 -1.09 1.98 -1.2 c 1.02 -0.11 1.64 -0.51 1.98 -1.31 c 0.2 -0.45 0.18 -1.34 -0.03 -1.77 c -0.21 -0.44 -0.6 -0.82 -1.05 -1.04 c -0.33 -0.15 -0.47 -0.18 -0.96 -0.17 c -0.49 0.01 -0.63 0.04 -0.95 0.2 c -0.36 0.18 -0.89 0.7 -1.13 1.08 c -0.7 -2.38 -2.53 -1.42 -3.83 0.02 c -0.51 -0.45 0.5 -2.62 0.84 -3.11 c 1.19 -1.73 3.67 -2.79 5.88 -2.5" style="fill:#fff"/></svg>