<svg xmlns="http://www.w3.org/2000/svg" viewBox="0 0 22 22"><path d="m 2.79 16.38 c -7.78 -8.79 3.73 -18.1 10.48 -15.81 c 6.75 2.29 11.28 8.74 6.87 14.4 c -4.41 5.66 -8.73 11.1 -16.52 2.33" style="fill:#ff8c00"/><g transform="matrix(0.078 0 0 -0.082 0.98 22.29)" style="fill:#fff;stroke:#fff"><path d="m 101 233.5 c -5 -2.25 -7.35 -5.5 -6.3 -8.81 c 0.4 -1.15 5.45 -7.28 11.3 -13.55 c 15.55 -16.66 18.9 -24.31 10.7 -24.36 c -6.1 -0.05 -8.25 -1.1 -9.5 -4.59 c -0.7 -2.06 -1.15 -15.56 -1.15 -35.47 c 0 -27.33 0.3 -32.5 1.7 -34.56 c 1.65 -2.3 2.35 -2.39 19.35 -2.39 h 17.65 l 1.3 2.78 c 0.85 1.91 1.25 13.31 1.25 36.85 v 34.1 l -2.45 1.34 c -1.35 0.72 -4.4 1.58 -6.75 1.91 c -4.5 0.62 -4.6 0.72 -9.15 10.91 c -1.2 2.68 -6.35 9.57 -11.45 15.36 c -5.1 5.74 -9.25 10.96 -9.25 11.63 c 0 1.48 2.95 1.48 16.25 0.1 c 9.25 -1 10.45 -0.91 11.65 0.77 c 2 2.68 1.7 6.61 -0.5 7.28 c -10.65 3.21 -28.36 3.59 -34.66 0.72" style="stroke-width:2.28"/><g style="stroke-width:1.51"><path d="m 117.4 49.61 c -0.8 -2.11 0.2 -8.9 1.5 -10.39 c 1.15 -1.24 2.2 -1.44 7.95 -1.44 c 6.35 0 6.75 0.1 8.15 1.87 c 1.7 2.15 2.1 8.71 0.65 10.19 c -0.6 0.57 -3.7 0.86 -9.35 0.86 c -7 0 -8.55 -0.19 -8.9 -1.1"/><path d="m 120.3 71.7 c -0.75 -0.19 -1.8 -0.72 -2.3 -1.1 c -1.1 -0.86 -1.25 -9 -0.2 -10.63 c 0.85 -1.34 13.65 -1.91 16.65 -0.77 c 1.9 0.72 2 0.96 2 5.7 c 0 3.64 -0.3 5.22 -1.15 5.89 c -1.15 1 -12.25 1.68 -15 0.91"/><path d="m 121.8 92.5 c -1.6 -0.19 -3.3 -0.86 -3.75 -1.48 c -1.15 -1.53 -1.2 -9.67 -0.05 -10.82 c 0.55 -0.57 3.6 -0.86 8.95 -0.86 c 7.25 0 8.15 0.14 8.8 1.39 c 1.05 1.91 0.95 8.85 -0.15 10.24 c -0.95 1.24 -8.5 2.06 -13.8 1.53"/><path d="m 119.4 102.3 c -0.85 -0.38 -1.6 -0.96 -1.6 -1.34 c 0 -1.15 2.15 -1.53 9.3 -1.53 c 5.35 0 7.25 0.29 7.9 1.1 c 0.75 0.86 0.55 1.15 -1.05 1.77 c -2.35 0.91 -12.3 0.91 -14.55 0"/></g></g></svg>