<svg xmlns="http://www.w3.org/2000/svg" viewBox="0 0 22 22"><path d="m 5.8 20.99 c -10.39 -4.33 -5.76 -21.1 5.56 -20.99 c 10.29 -0.17 14.19 13.16 6.86 19 c -3.17 2.92 -8.42 3.95 -12.43 1.98" style="fill:#ff8c00"/><path d="m 17.53 14.88 c -0.55 -0.45 -1.52 -0.87 -1.59 -1.11 c -0.01 -0.57 0.02 -0.58 0.08 -0.83 c 0.29 0.01 0.46 0.02 1.22 0.21 c 0.82 0.23 0.88 -0.15 0.75 1.07 c -0.18 0.61 0 0.96 -0.47 0.66" style="fill:#fff"/><path d="m 12.49 8.37 c 0 0.68 -1.01 1.23 -2.26 1.23 c -1.25 0 -2.26 -0.55 -2.26 -1.23 c 0 -0.68 1.01 -1.23 2.26 -1.23 c 1.25 0 2.26 0.55 2.26 1.23" style="fill:#ffe4c3"/><g style="fill:#fff"><path d="m 9.39 15.2 c -1.04 -0.24 -1.51 -0.41 -1.94 -0.68 c -0.76 -0.48 -1.13 -0.91 -1.37 -1.58 l -0.21 -0.58 l 0.2 -1.03 c 0.11 -0.56 0.32 -1.59 0.47 -2.28 c 0.12 -0.78 0.18 -1.16 0.66 -1.68 c 0.64 -0.68 1.58 -1.1 2.73 -1.21 c 0.91 -0.01 1.57 0.19 2.42 0.62 c 0.39 0.21 0.62 0.27 1.11 0.3 c 0.5 0.04 0.79 -0.06 0.79 0.05 c 0.02 1.43 0 3.32 0.16 4.14 c 0.11 0.53 0.17 1.04 0.14 1.14 c -0.13 0.48 -0.51 1.22 -0.79 1.54 c -0.82 0.93 -3.04 1.57 -4.38 1.25 m 2.41 -5.58 c 0.52 -0.22 0.98 -0.64 1.09 -1.02 c 0.17 -0.55 -0.28 -1.17 -1.09 -1.5 c -0.54 -0.23 -1.81 -0.31 -2.5 -0.16 c -2.17 0.46 -2.27 2.23 -0.17 2.81 c 0.89 0.11 1.89 0.2 2.68 -0.13"/><path d="m 4.43 13.52 c -0.13 -0.09 -0.21 -0.38 -0.32 -1.13 c -0.05 -2.46 0.66 -2.89 2.4 -3.92 c -0.17 0.44 -0.25 0.89 -0.31 1.35 c -1.37 0.79 -1.55 1.14 -1.57 2.47 c -0.01 0.99 -0.06 1.33 -0.19 1.24"/><path d="m 16 12.65 c -0.25 -1.52 -0.39 -2.04 -1.53 -2.62 c 0.07 -0.57 0 -0.91 -0.05 -1.74 c 1.58 0.36 3.21 1.75 3.44 3.91 c 0.02 0.27 0.25 0.77 0 0.83 c -0.88 -0.18 -1.08 -0.27 -1.86 -0.39"/></g></svg>