<svg xmlns="http://www.w3.org/2000/svg" viewBox="0 0 22 22"><path d="m 21 7.46 c 4.26 10.95 -7.68 16.57 -15.1 13.78 c -5.19 -1.95 -7.77 -9.71 -4.09 -15.98 c 4.64 -7.91 15.91 -6.23 19.2 2.21" style="fill:#ff8c00"/><path d="m 13.34 8.11 v 1.13 h -5.62 v -1.13" style="fill:#dc133c"/><path d="m 16.73 17.69 c -0.18 -0.07 -1.11 -0.71 -1.26 -0.88 c -0.36 -0.39 -0.86 -0.74 -0.86 -0.94 c 0 -0.17 0.37 -0.2 0.88 -0.71 c 0.62 -0.61 1.24 -1.09 1.38 -1.06 c 0.13 0.03 0.29 0.36 0.29 0.63 c 0 0.47 0.32 0.75 0.56 0.48 c 0.09 -0.1 0.09 -0.19 0.03 -1.35 c -0.06 -1.56 -0.06 -2.98 -0.06 -4.54 c -0.6 -0.16 -1.2 -0.1 -1.67 -0.09 l -1.38 0.02 c 0 -0.38 0 -0.75 0 -1.13 c 0.84 0.02 1.7 0.04 2.5 0.06 c 0.95 0.03 0.98 0.04 1.21 0.18 c 0.18 0.11 0.26 0.21 0.3 0.36 c 0.05 0.15 0.07 1.11 0.09 3.63 c 0.02 3.21 0.02 3.43 -0.07 3.61 c -0.15 0.28 -0.31 0.37 -0.76 0.41 c -0.55 0.05 -0.64 0.14 -0.64 0.66 c 0.03 0.32 -0.19 0.78 -0.54 0.66" style="fill:#fff"/><path d="m 11.2 15.98 v 1.13 h -5.99 v -1.13" style="fill:#dc133c"/><g style="fill:#fff"><path d="m 13.37 10.1 v 1.12 h -8.1 v -1.12"/><path d="m 13.35 12 v 1.12 h -8.1 v -1.12"/><path d="m 13.36 6.13 v 1.13 h -8.1 v -1.13"/><path d="m 13.34 13.95 v 1.12 h -8.1 v -1.12"/></g></svg>