<svg xmlns="http://www.w3.org/2000/svg" viewBox="0 0 22 22"><path d="m 8.34 0.48 c -11.16 1.7 -10.93 18.53 0.06 21.1 c 8.91 2.62 15.8 -6.87 12.68 -13.95 c -1.53 -4.75 -7.24 -8.59 -12.74 -7.12" style="fill:#ff8c00"/><g style="fill:#fff"><path d="m 9.4 17.25 c -0.79 -0.14 -0.83 -0.02 -0.91 -1.54 c -0.05 -1.11 -0.03 -1.24 0.12 -1.42 c 0.29 -0.36 0.72 -0.27 2.66 -0.24 c 1.38 0.03 2.11 0.06 2.66 -0.19 c 0.41 -0.18 0.11 -1.15 -0.04 -1.29 c -1.23 -0.45 -4.35 0 -5.07 -0.21 c -0.42 -0.58 -0.3 -1.01 -0.3 -1.41 c 0 -1.41 0.07 -1.77 0.91 -1.84 c 2.09 -0.02 3.95 -0.07 6 0.07 c 0.67 0.16 0.99 0.25 1.25 0.79 c 0.23 0.5 0.28 0.9 0.31 2.6 c 0.03 1.5 -0.02 2.62 -0.13 3.13 c -0.08 0.36 -0.29 0.7 -0.64 1.04 c -0.47 0.47 -5.31 0.6 -6.85 0.51 m 0.84 -0.68 c 0.14 -0.11 0.16 -0.8 0.15 -1.3 c 0 -0.64 -0.12 -0.63 -0.53 -0.67 c -0.23 -0.03 -0.6 -0.04 -0.7 0.26 c -0.11 0.31 -0.11 1.48 0 1.67 c -0.07 0.3 1.15 0.52 1.08 0.04 m -0.11 -4.66 c 0.24 -0.23 0.41 -1.51 0.28 -1.98 c -0.09 -0.32 -0.76 -0.16 -1.08 -0.14 c -0.33 0.06 -0.26 1.97 -0.08 2.1 c 0.21 0.15 0.75 0.15 0.88 0.02"/><path d="m 6.67 6.14 c 0 0.43 -0.36 0.77 -0.81 0.77 c -0.45 0 -0.81 -0.34 -0.81 -0.77 c 0 -0.43 0.36 -0.77 0.81 -0.77 c 0.45 0 0.81 0.34 0.81 0.77"/><path d="m 6.55 8.99 c 0 0.43 -0.36 0.77 -0.81 0.77 c -0.45 0 -0.82 -0.35 -0.82 -0.77 c 0 -0.43 0.37 -0.77 0.82 -0.77 c 0.45 0 0.81 0.35 0.81 0.77"/><path d="m 6.55 12 c 0 0.43 -0.36 0.77 -0.81 0.77 c -0.45 0 -0.82 -0.34 -0.82 -0.77 c 0 -0.43 0.37 -0.77 0.82 -0.77 c 0.45 0 0.81 0.34 0.81 0.77"/><path d="m 6.46 14.88 c 0 0.43 -0.36 0.77 -0.81 0.77 c -0.45 0 -0.81 -0.34 -0.81 -0.77 c 0 -0.43 0.36 -0.77 0.81 -0.77 c 0.45 0 0.81 0.34 0.81 0.77"/><path d="m 9.59 6.14 c 0 0.43 -0.36 0.77 -0.81 0.77 c -0.45 0 -0.81 -0.34 -0.81 -0.77 c 0 -0.43 0.36 -0.77 0.81 -0.77 c 0.45 0 0.81 0.34 0.81 0.77"/><path d="m 12.56 6.14 c 0 0.43 -0.36 0.77 -0.81 0.77 c -0.45 0 -0.81 -0.34 -0.81 -0.77 c 0 -0.43 0.36 -0.77 0.81 -0.77 c 0.45 0 0.81 0.34 0.81 0.77"/><path d="m 15.65 6.18 c 0 0.43 -0.36 0.77 -0.81 0.77 c -0.45 0 -0.81 -0.35 -0.81 -0.77 c 0 -0.43 0.36 -0.77 0.81 -0.77 c 0.45 0 0.81 0.35 0.81 0.77"/></g></svg>