<svg xmlns="http://www.w3.org/2000/svg" viewBox="0 0 22 22"><path d="m 20.79 15.1 c 8.17 -26.52 -35.71 -13.26 -15.2 4.91 c 4.11 3.64 13 2.24 15.2 -4.91" style="fill:#ff8c00"/><path d="m 9.43 5.61 h 7.84 v 11.41 h -7.84" style="fill:#fff"/><path d="m 12.82 15.76 c 0.34 -0.13 0.4 -0.34 0.42 -1.51 l -0.02 -1.66 c -0.7 0 -1.58 0.2 -1.88 -0.19 c -0.31 -0.51 -0.1 -0.8 0.44 -0.97 c 0.59 -0.06 0.88 -0.01 1.52 -0.01 l -0.05 -1.34 c 0 -1.64 -0.05 -1.68 -1.7 -1.68 h -1.05 v -0.61 c -1.3 -5.3 -6.54 7 -2.06 8 c 0.71 0.04 1.13 0.06 4.38 -0.07" style="fill:#ff8c00"/><path d="m 12 15.2 c 0.31 -0.11 0.36 -0.29 0.38 -1.32 l 0.02 -0.96 h -0.58 c -0.69 0 -0.94 -0.09 -1.15 -0.43 c -0.28 -0.45 -0.11 -1.03 0.36 -1.27 c 0.19 -0.1 0.34 -0.12 0.8 -0.12 h 0.56 v -0.87 c 0 -1.43 -0.05 -1.47 -1.52 -1.47 h -0.95 v -0.53 c 0 -0.44 -0.02 -0.57 -0.14 -0.78 c -0.34 -0.61 -1.18 -0.61 -1.52 0 c -0.11 0.21 -0.14 0.34 -0.14 0.78 v 0.53 h -0.97 c -1.47 0 -1.5 0.03 -1.5 1.53 v 0.87 h -0.57 c -0.46 0 -0.61 0.02 -0.77 0.11 c -0.6 0.34 -0.6 1.15 0 1.48 c 0.16 0.09 0.31 0.11 0.77 0.12 h 0.57 l 0.02 0.99 c 0.02 1.07 0.07 1.24 0.4 1.36 c 0.09 0.03 0.57 0.05 1.08 0.05 h 0.92 v -0.54 c 0 -0.45 0.02 -0.57 0.14 -0.78 c 0.35 -0.61 1.29 -0.61 1.63 0 c 0.12 0.2 0.14 0.33 0.14 0.78 v 0.54 h 0.95 c 0.52 0 1 -0.03 1.07 -0.05" style="fill:#fff"/></svg>