<svg xmlns="http://www.w3.org/2000/svg" viewBox="0 0 22 22"><path d="m 0.13 12.77 c 0.23 -2.98 2.04 -6.88 4.31 -9.28 c 1.79 -1.9 3.41 -2.86 5.43 -3.22 c 2.82 -0.5 5.2 0.55 7.51 3.33 c 2.59 3.25 5.18 7.93 4.19 11.43 c -0.4 1.39 -0.92 2.32 -1.81 3.28 c -1.83 1.96 -4.6 3.2 -7.89 3.5 c -1.87 0.18 -3.36 0.05 -5.15 -0.43 c -3.04 -0.82 -5.15 -2.55 -6.14 -5 c -0.31 -0.78 -0.52 -2.5 -0.43 -3.59" style="fill:#fd8b01"/><g style="fill:#fff"><path d="m 5.44 17.62 c 0.04 -0.16 0.17 -0.73 0.27 -1.27 c 0.25 -1.25 0.94 -2.69 1.36 -2.82 c 0.23 -0.07 0.43 0.02 0.68 0.31 c 0.4 0.47 1.46 3.63 1.3 3.89 c -0.18 0.29 -0.72 0.19 -0.9 -0.16 c -0.25 -0.47 -0.88 -0.85 -1.21 -0.73 c -0.46 0.29 -0.64 1.04 -1.17 1.05 c -0.32 0 -0.39 -0.07 -0.33 -0.29 m 2.21 -2 c 0.23 -0.45 0.04 -0.86 -0.38 -0.8 c -0.7 0.42 -0.1 1.68 0.38 0.8"/><path d="m 10.13 17.39 c -0.1 -0.29 -0.18 -1.13 -0.18 -1.89 c 0 -1.15 0.05 -1.43 0.32 -1.7 c 0.46 -0.46 1.24 -0.42 1.92 0.1 c 0.52 0.41 0.83 0.58 0.48 1.16 c -0.29 0.48 -0.02 0.76 0.06 0.81 c 0.08 0.05 0.14 0.34 0.14 0.64 c 0 0.79 -0.8 1.4 -1.83 1.4 c -0.69 0 -0.76 -0.04 -0.92 -0.52 m 1.7 -0.88 c 0 -0.36 -0.51 -0.54 -0.77 -0.28 c -0.27 0.28 -0.25 0.75 0.16 0.7 c 0.24 -0.03 0.61 -0.21 0.61 -0.42 m -0.15 -1.45 c 0.04 -0.23 -0.16 -0.61 -0.31 -0.61 c -0.27 0 -0.42 0.3 -0.31 0.63 c 0.12 0.31 0.56 0.39 0.62 -0.02"/><path d="m 14.54 17.43 c -0.67 -0.45 -1.02 -1.17 -0.99 -2 c 0.03 -0.79 0.37 -1.26 1.21 -1.67 c 0.84 -0.41 1.31 -0.44 1.59 -0.1 c 0.28 0.34 -0.06 0.74 -0.63 0.75 c -0.7 0 -1.23 0.53 -1.23 1.21 c 0 0.75 0.33 1.08 1.19 1.2 c 0.62 0.09 0.68 0.13 0.63 0.52 c -0.04 0.36 -0.14 0.43 -0.62 0.46 c -0.45 -0.02 -0.86 -0.16 -1.16 -0.36"/><path d="m 9.32 7.58 c -0.16 -0.11 -0.11 -0.46 0.28 -1.67 c 0.63 -1.95 0.86 -2.3 1.49 -2.3 c 0.43 0 0.53 0.1 0.82 0.78 c 0.7 1.64 1.09 2.97 0.91 3.15 c -0.28 0.29 -0.55 0.21 -1.14 -0.32 c -0.31 -0.27 -0.63 -0.49 -0.71 -0.49 c -0.09 0 -0.35 0.22 -0.59 0.49 c -0.45 0.51 -0.68 0.59 -1.05 0.36 m 1.99 -1.77 c 0.32 -0.32 0.32 -0.47 0 -0.8 c -0.2 -0.2 -0.32 -0.22 -0.49 -0.07 c -0.28 0.23 -0.29 0.68 -0.03 0.94 c 0.25 0.25 0.22 0.25 0.53 -0.06"/><path d="m 13.48 10.93 c -0.54 -0.96 -0.64 -1.98 -0.2 -2.04 c 0.23 -0.04 0.36 0.13 0.71 0.9 c 0.76 1.66 0.32 2.63 -0.52 1.14"/><path d="m 10.75 11.52 c -0.36 -0.51 -0.23 -2.57 0.17 -2.73 c 0.11 -0.04 0.3 0.02 0.41 0.13 c 0.28 0.28 0.3 2.34 0.03 2.67 c -0.24 0.3 -0.36 0.28 -0.61 -0.07"/><path d="m 7.48 11.43 c -0.16 -0.3 -0.04 -0.75 0.47 -1.8 c 0.3 -0.61 0.44 -0.77 0.65 -0.74 c 0.45 0.07 0.41 0.69 -0.11 1.8 c -0.48 1.02 -0.75 1.22 -1 0.75"/></g></svg>