<svg xmlns="http://www.w3.org/2000/svg" viewBox="0 0 22 22"><path d="m 13.56 21.52 c 20.62 -5.58 -1.52 -33.75 -12 -15.35 c -4.5 7.18 1.39 18.22 12 15.35" style="fill:#ff8c00"/><g style="fill:#fff"><path d="m 10.98 16.1 c -1.43 -0.99 -1.63 -0.91 -3.75 -1.03 c -3.25 -0.17 -2.87 -1.09 0.5 -1.09 c 1.13 0 1.73 0.05 2.82 -0.62 c 0.69 -0.43 1.41 -0.92 1.6 -1.09 c 0.47 -0.42 1 -0.18 0.98 0.46 c -0.04 1.55 0.31 0.83 1.41 0.01 c 0.56 -0.42 1.12 -0.7 1.23 -0.63 c 0.46 0.29 0.44 0.87 -0.32 1.5 l -1.23 1.02 l 0.92 0.77 c 0.8 0.67 0.84 0.7 0.84 1.11 c 0 0.75 -0.34 0.74 -1.4 -0.05 c -1.05 -0.79 -1.57 -1.73 -1.5 -0.05 c 0.02 0.32 -0.2 0.6 -0.37 0.63 c -0.17 0.03 -0.95 -0.4 -1.73 -0.95"/><path d="m 6.92 10.23 c -1.04 -0.67 -1.89 -1.32 -1.89 -1.44 c 0 -0.12 0.85 -0.77 1.89 -1.44 c 1.88 -1.22 2.51 -1.34 2.28 -0.43 c -0.05 0.21 0 0.64 0.12 0.95 c 0.17 0.57 2.25 0.51 3.3 0.48 c 4.13 -0.14 4.18 1.25 0.09 1.08 c -1.86 -0.07 -3.14 0.03 -3.31 0.18 c -0.18 0.16 -0.23 0.23 -0.15 0.68 c 0.23 1.29 -0.23 1.28 -2.32 -0.06"/></g></svg>