<svg xmlns="http://www.w3.org/2000/svg" viewBox="0 0 22 22"><path d="m 8.54 21.68 c -20.54 -4.29 1.51 -33.79 11.95 -16.1 c 4.48 6.88 -1.39 18.27 -11.95 16.1" style="fill:#ff8c00"/><g style="fill:#fff"><path d="m 8.36 16.41 c -0.34 -0.78 -0.46 -0.63 -1.78 -0.7 c -2.31 -0.36 -3.32 -2.04 -2.7 -4.2 c 0.46 -1.56 1.18 -2.35 2.84 -3.22 c 1.11 -0.58 1.72 -0.62 1.97 -0.37 c 0.25 0.25 0.16 0.45 -0.45 0.95 c -1.68 1.14 -2.86 1.09 -3.12 3.18 c -0.05 1.55 0.14 2.36 1.82 2.36 c 1.26 0 1.39 -0.05 1.54 -0.64 c 0.22 -0.88 0.5 -0.82 1.77 0.36 l 1.08 1 l -1.15 1.05 c -0.64 0.58 -1.22 1.06 -1.3 1.06 c -0.08 0 -0.31 -0.38 -0.52 -0.84"/><path d="m 10.54 10 c -0.1 -0.16 0.34 -1.03 0.98 -1.93 c 1.21 -1.67 1.21 -2 0 -2.17 c -0.39 -0.05 -1.02 0.4 -1.06 -0.27 c -0.06 -0.89 0.78 -0.65 2.08 -0.71 c 1.52 -0.07 1.73 -0.02 1.89 0.48 c 0.13 0.4 -0.11 0.95 -0.82 1.92 c -0.55 0.75 -0.94 1.46 -0.86 1.58 c 0.08 0.12 0.53 0.3 1 0.39 c 0.52 0.1 0.76 0.29 0.75 0.51 c -0.06 0.85 -3.69 0.62 -3.96 0.2"/><path d="m 16.33 16.84 c -1.25 -1.53 -1.43 -1.63 -2.13 -0.58 c -0.7 1.05 -1.53 0.96 -1.53 0.54 c 0 -0.32 -0.29 -0.84 1.47 -4.28 c 0.21 -0.42 0.54 -0.77 0.73 -0.77 c 0.46 0 1.36 0.71 1.58 1.55 c 0.1 0.38 0.37 1.23 0.6 1.79 c 0.3 0.73 0.43 1.53 0.08 1.82 c -0.45 0.25 -0.58 0.19 -0.8 -0.08 m -0.57 -2.29 c 0 -0.37 -0.68 -1.32 -0.68 -1.32 c -0.62 0.88 -0.6 0.8 -0.68 1.32 c -0.06 0.43 1.36 0.27 1.36 0"/></g></svg>