<svg xmlns="http://www.w3.org/2000/svg" viewBox="0 0 22 22"><path d="m 5.17 2.35 c 11.25 -7.88 22.66 6.67 13.48 15.95 c -8.64 8.74 -22.1 0.64 -17.87 -10.25 c 0.88 -2.27 2.31 -4.26 4.38 -5.7" style="fill:#ff8c00"/><path d="m 7.53 17.71 c -1.41 -0.89 -2.65 -2.34 -3.31 -3.85 c -0.59 -1.34 -0.47 -4.38 0.21 -5.7 c 1.29 -2.49 4.05 -4.38 6.41 -4.38 c 1.07 0 1.4 0.26 4.47 3.47 c 3 3.15 3.32 3.58 3.33 4.64 c 0.01 1.44 -0.64 2.78 -2.11 4.33 c -1.69 1.78 -3.05 2.36 -5.52 2.36 c -1.79 0 -2.32 -0.13 -3.48 -0.87 m 6.43 -0.95 c 0.63 -0.32 1.45 -0.91 1.82 -1.32 c 0.74 -0.79 1.64 -2.71 1.64 -3.5 c 0 -0.72 -5.27 -6.59 -6.12 -6.82 c -1 -0.27 -2.92 0.36 -4.06 1.32 c -4.31 3.62 -1.8 10.84 3.79 10.89 c 1.18 0.01 2.18 -0.18 2.93 -0.57" style="fill:#fff"/></svg>