<svg xmlns="http://www.w3.org/2000/svg" xmlns:xlink="http://www.w3.org/1999/xlink" viewBox="0 0 22 22"><defs><g id="3" style="clip-path:url(#2)"><path d="m 10.68 16.61 c -0.91 -0.03 -1.43 -0.11 -1.43 -0.21 c 0 -0.09 0.24 -0.43 0.53 -0.75 c 1.33 -1.47 1.57 -3.16 0.82 -5.73 c -0.6 -1.66 -1.2 -2.1 -1.64 -2.87 c 0 -0.18 0.56 -0.21 3.72 -0.18 l 3.72 0.04 l 0.09 4.64 c 0.06 2.78 0.04 4.75 -0.04 4.9 c -0.14 0.27 -1.3 0.3 -5.76 0.15" style="fill:#fff"/></g><clipPath id="2"><path d="M 0,0 H22 V22 H0 z"/></clipPath><filter id="0" filterUnits="objectBoundingBox" x="0" y="0" width="22" height="22"><feColorMatrix type="matrix" in="SourceGraphic" values="0 0 0 0 1 0 0 0 0 1 0 0 0 0 1 0 0 0 1 0"/></filter><mask id="1"><g style="filter:url(#0)"><path d="M 0,0 H22 V22 H0 z" style="fill-opacity:0.5"/></g></mask></defs><path d="m 12.76 21.86 c -2.98 -0.08 -6.87 -1.69 -9.28 -3.83 c -1.91 -1.7 -2.86 -3.27 -3.22 -5.26 c -0.5 -2.8 0.55 -5.23 3.33 -7.68 c 3.25 -2.76 7.93 -5.59 11.42 -4.77 c 1.39 0.32 2.32 0.8 3.29 1.64 c 1.96 1.73 3.2 4.43 3.5 7.71 c 0.17 1.86 0.05 3.35 -0.43 5.17 c -0.82 3.08 -2.54 5.28 -5 6.39 c -0.79 0.35 -2.5 0.65 -3.59 0.62" style="fill:#fd8b01"/><use xlink:href="#3" style="mask:url(#1)"/><g style="fill:#fff"><path d="m 8.25 17.34 c -0.08 -0.12 -0.16 -0.32 -0.19 -0.46 c -0.06 -0.28 0.02 -0.42 1 -1.7 c 0.92 -1.2 1.04 -1.55 1.05 -3.05 v -1.2 l -0.31 -0.64 c -0.18 -0.35 -0.57 -1.06 -0.89 -1.57 c -0.92 -1.52 -1.09 -2.09 -0.73 -2.53 l 0.16 -0.2 h 4.21 c 2.32 0 4.31 0.03 4.43 0.07 c 0.21 0.06 0.23 0.11 0.3 0.72 c 0.04 0.36 0.07 2.85 0.07 5.52 c 0 3.81 -0.02 4.9 -0.11 5.1 l -0.11 0.19 h -8.76 m 8 -1 c 0.09 -0.09 0.11 -1.05 0.09 -4.86 c -0.01 -2.61 -0.04 -4.76 -0.05 -4.77 c -0.02 -0.02 -1.68 -0.04 -3.7 -0.04 c -2.63 -0.02 -3.7 0.01 -3.77 0.07 c -0.07 0.07 0.06 0.32 0.5 0.98 c 1.02 1.5 1.46 2.86 1.46 4.52 c 0 1.25 -0.28 2.04 -1.11 3.07 c -0.57 0.71 -0.64 0.84 -0.52 0.96 c 0.14 0.15 1.4 0.2 4.33 0.2 c 2.07 -0.01 2.68 -0.04 2.77 -0.12"/><path d="m 5.37 14.1 c -0.12 -0.21 -0.22 -3.72 -0.12 -4.12 c 0.04 -0.13 0.17 -0.27 0.35 -0.36 l 0.29 -0.14 l 0.62 0.41 c 0.78 0.52 1.56 1.1 1.92 1.44 c 0.54 0.5 0.28 1.11 -0.8 1.91 c -1.38 1.03 -2.03 1.27 -2.26 0.85"/></g></svg>