<svg xmlns="http://www.w3.org/2000/svg" viewBox="0 0 22 22"><path d="m 5.17 2.35 c 11.25 -7.88 22.66 6.67 13.48 15.95 c -8.64 8.74 -22.1 0.64 -17.87 -10.25 c 0.88 -2.27 2.31 -4.26 4.38 -5.7" style="fill:#ff8c00"/><path d="m 5.41 16.59 c -0.73 -0.15 -1.82 -1.3 -1.99 -1.94 c -0.05 -0.2 -0.08 -1.58 -0.08 -3.39 c 0 -3.73 -0.04 -3.56 0.85 -4.43 c 1.02 -1.01 0.48 -0.93 6.41 -0.96 c 5.77 -0.03 5.9 -0.02 6.47 0.44 c 0.68 0.54 1.21 1.12 1.34 1.48 c 0.07 0.21 0.1 1.05 0.1 3.48 c 0 1.77 -0.03 3.33 -0.06 3.48 c -0.34 0.57 -1.12 1.5 -1.75 1.81 c -0.24 0.11 -10.66 0.14 -11.29 0.04 m 10.77 -1.27 c 0.35 -0.34 0.74 -0.6 0.97 -1.02 c 0.12 -0.21 0.12 -5.79 0.01 -6.09 c -0.43 -0.37 -0.75 -0.74 -1.14 -1.1 h -5.11 c -3.35 0 -5.16 0.02 -5.26 0.07 c -0.25 0.39 -0.93 0.89 -1.01 1.13 c -0.09 0.32 -0.1 5.27 -0.01 5.73 c 0.26 0.62 0.67 0.91 1.07 1.36 h 5.16 c 1.57 -0.05 5.13 -0.01 5.32 -0.09" style="fill:#fff"/></svg>