<svg xmlns="http://www.w3.org/2000/svg" viewBox="0 0 22 22"><path d="m 21.74 8.58 c -3.47 -20.46 -33.52 1.51 -16.37 11.91 c 6.64 4.46 18.1 -1.38 16.37 -11.91" style="fill:#ff8c00"/><g style="fill:#fff"><path d="m 5 14.79 c 0 -0.47 2.63 -5.54 3.54 -6.81 c 0.5 -0.71 1.07 -1.28 1.27 -1.28 c 0.41 0 1.33 4.81 1.33 6.94 c 0 1.55 -0.67 1.86 -1.1 0.51 c -0.53 -1.68 -1.72 -1.84 -3.09 -0.42 c -1.15 1.2 -1.96 1.64 -1.96 1.05 m 4.39 -4.36 c 0 -0.33 -0.2 -0.73 -0.44 -0.88 c -0.25 -0.15 -0.54 0.57 -0.54 1.22 c 0 0.65 0.25 0.52 0.54 0.54 c 0.71 0.05 0.44 -0.55 0.44 -0.88"/><path d="m 12.37 14.59 c -0.19 -1.06 0.39 -4.58 0.79 -5.07 c 0.19 -0.23 1.08 -0.41 2.09 -0.41 c 2.23 0 2.55 0.53 2.17 3.59 c -0.23 1.83 -0.36 2.13 -0.98 2.21 c -0.69 0.1 -0.71 0.04 -0.52 -2.2 c 0.18 -2.18 0.16 -2.3 -0.49 -2.3 c -0.84 0 -1.44 0.25 -1.71 2.75 c -0.22 2.05 -1.2 2.28 -1.35 1.43"/></g></svg>