<svg xmlns="http://www.w3.org/2000/svg" xmlns:xlink="http://www.w3.org/1999/xlink" viewBox="0 0 22 22"><defs><g id="3" style="clip-path:url(#2)"><path d="m 6 6.41 c 3.14 -0.05 6.65 0.16 10.1 0.14 c 1.05 1.43 1.09 7.25 -0.18 9.19 c -2.3 0.61 -7.73 -0.01 -10.18 0.01 c -1.13 -2.35 -1.29 -7.71 0.26 -9.34" style="fill:#fff"/></g><clipPath id="2"><path d="M 0,0 H22 V22 H0 z"/></clipPath><filter id="0" filterUnits="objectBoundingBox" x="0" y="0" width="22" height="22"><feColorMatrix type="matrix" in="SourceGraphic" values="0 0 0 0 1 0 0 0 0 1 0 0 0 0 1 0 0 0 1 0"/></filter><mask id="1"><g style="filter:url(#0)"><path d="M 0,0 H22 V22 H0 z" style="fill-opacity:0.5"/></g></mask></defs><path d="m 4.75 2.34 c 10.86 -7.86 22.98 6.65 14.26 15.9 c -8.21 8.71 -22 0.63 -18.37 -10.21 c 0.77 -2.26 2.11 -4.25 4.1 -5.69" style="fill:#ff8c00"/><path d="m 6.14 16.82 c -0.62 -0.16 -1.55 -1.39 -1.7 -2.07 c -0.04 -0.21 -0.07 -1.7 -0.07 -3.64 c 0 -4 -0.03 -3.81 0.73 -4.75 c 0.88 -1.09 0.41 -1 5.46 -1.03 c 4.92 -0.03 5 -0.02 5.52 0.47 c 0.58 0.57 1.03 1.2 1.14 1.59 c 0.06 0.22 0.08 1.12 0.08 3.73 c 0 1.89 -0.02 3.57 -0.05 3.73 c -0.29 0.61 -0.95 1.61 -1.49 1.94 c -0.21 0.11 -9.1 0.15 -9.62 0.04 m 9.18 -1.36 c 0.3 -0.37 0.63 -0.64 0.83 -1.09 c 0.1 -0.23 0.11 -6.2 0.01 -6.52 c -0.37 -0.39 -0.64 -0.8 -0.97 -1.18 h -4.36 c -2.86 0 -4.4 0.03 -4.48 0.08 c -0.21 0.41 -0.8 0.96 -0.86 1.2 c -0.08 0.35 -0.09 5.65 -0.01 6.14 c 0.22 0.66 0.57 0.98 0.91 1.46 h 4.39 c 1.34 -0.05 4.38 -0.01 4.54 -0.09" style="fill:#fff"/><use xlink:href="#3" style="mask:url(#1)"/></svg>