<svg xmlns="http://www.w3.org/2000/svg" viewBox="0 0 22 22"><path d="m 10.75 21.88 c 2.24 -0.18 4.87 -1.25 6.7 -2.76 c 2.22 -1.82 3.86 -4.63 4.29 -7.38 c 0.52 -3.64 -1.58 -7.56 -3.95 -9.42 c -1.19 -0.91 -2.77 -1.63 -4.25 -1.94 c -3.85 -0.82 -7.87 0.73 -10.62 4.11 c -1.65 2.02 -2.5 4.06 -2.71 6.48 c -0.25 2.89 0.89 5.99 2.96 8.1 c 2.36 1.97 4.79 3.04 7.58 2.84" style="fill:#ff8c00"/><path d="m 5.6 8.69 l 10.56 -3.46 v 7.77 l -10.56 3.46" style="fill:#fff"/><path d="m 16.46 13.88 c 0 1.95 -1.58 3.52 -3.52 3.52 c -1.95 0 -3.52 -1.58 -3.52 -3.52 c 0 -1.95 1.58 -3.52 3.52 -3.52 c 1.95 0 3.52 1.58 3.52 3.52" style="fill:#ff8c00"/><path d="m 15.97 13.91 c 0 1.67 -1.34 3 -2.98 3 c -1.65 0 -2.98 -1.35 -2.98 -3 c 0 -1.67 1.33 -3 2.98 -3 c 1.64 0 2.98 1.35 2.98 3" style="fill:#fff"/></svg>