<svg xmlns="http://www.w3.org/2000/svg" viewBox="0 0 22 22"><path d="m 19.74 16.19 c 6.5 -7.91 -2.26 -17.55 -10 -15.88 c -7.58 0.98 -12.96 12.41 -7.58 18.21 c 3.94 4.18 11.1 5.57 17.59 -2.33" style="fill:#ff8c00"/><g style="fill:#fff"><path d="m 16.91 6.4 c 0.13 0.18 0.2 0.43 0.18 0.65 l -0.02 0.21 l -1.82 2.55 c -1.8 2.54 -1.82 2.56 -1.97 2.64 c -0.28 0.16 -0.64 0.18 -0.93 0.04 l -0.14 -0.07 l -0.15 0.21 c -0.09 0.13 -0.19 0.23 -0.25 0.26 c -0.15 0.08 -0.38 0.07 -0.6 -0.01 l -0.2 -0.08 l -0.67 0.65 c -1.24 1.2 -2.54 2.73 -2.78 2.66 c -0.23 -0.27 0.38 -0.92 1.48 -3.23 c 0.28 -0.58 0.5 -1.06 0.5 -1.07 c 0 0 -0.07 -0.08 -0.15 -0.16 c -0.3 -0.29 -0.31 -0.5 -0.07 -0.84 l 0.16 -0.22 l -0.13 -0.12 c -0.18 -0.15 -0.27 -0.32 -0.32 -0.55 c -0.07 -0.37 -0.16 -0.22 1.84 -3 c 2 -2.82 1.88 -2.67 2.3 -2.74 c 0.4 -0.07 0.36 -0.09 2.14 1.1 c 1.12 0.75 1.58 1.07 1.63 1.14"/><path d="m 4.41 16.89 h 7.68 c 0.39 0 0.7 0.16 0.7 0.37 v 0.3 c 0 0.2 -0.32 0.37 -0.7 0.37 h -7.68 c -0.39 0 -0.7 -0.17 -0.7 -0.37 v -0.3 c 0 -0.2 0.32 -0.37 0.7 -0.37"/><path d="m 10.21 15.32 h 6.91 c 0.39 0 0.7 0.16 0.7 0.37 v 0.3 c 0 0.2 -0.32 0.37 -0.7 0.37 h -6.91 c -0.39 0 -0.7 -0.16 -0.7 -0.37 v -0.3 c 0 -0.2 0.32 -0.37 0.7 -0.37"/></g></svg>