<svg xmlns="http://www.w3.org/2000/svg" xmlns:xlink="http://www.w3.org/1999/xlink" viewBox="0 0 22 22"><defs><g id="3" style="clip-path:url(#2)"><path d="m 6.11 16.76 c -0.13 -2.97 0.17 -7.4 -0.11 -10.1 c -0.11 -1.09 4.06 -1.13 5.25 -0.61 c 0.7 1.51 0.23 3.38 0.76 4.75 c 2.34 0.46 3.63 -0.05 4.89 0.52 c -0.01 2.17 0.59 4.11 0.01 5.38 c -2.91 0.2 -8 1.55 -10.8 0.03" style="fill:#fff"/></g><clipPath id="2"><path d="M 0,0 H22 V22 H0 z"/></clipPath><filter id="0" filterUnits="objectBoundingBox" x="0" y="0" width="22" height="22"><feColorMatrix type="matrix" in="SourceGraphic" values="0 0 0 0 1 0 0 0 0 1 0 0 0 0 1 0 0 0 1 0"/></filter><mask id="1"><g style="filter:url(#0)"><path d="M 0,0 H22 V22 H0 z" style="fill-opacity:0.5"/></g></mask></defs><path d="m 15.71 21.91 c -31.64 2.19 -7.93 -40 5.52 -12.23 c 1.85 4.28 0.5 10.66 -5.52 12.23" style="fill:#ff8c00"/><use xlink:href="#3" style="mask:url(#1)"/><path d="m 6.23 17.43 c -0.54 -0.05 -0.66 -0.23 -0.98 -0.59 v -10.91 c 0.12 -0.4 0.21 -0.47 0.57 -0.6 h 2.85 c 3.95 0 3.67 -0.21 3.7 2.75 c 0.03 1.99 0.03 2.04 0.21 2.21 c 0.18 0.16 0.28 0.17 2.21 0.19 c 1.76 0.02 2.07 0.04 2.3 0.16 c 0.57 0.3 0.56 0.26 0.56 3.43 v 2.85 c -0.4 0.51 -0.63 0.46 -0.93 0.5 c -0.48 0.05 -9.59 0.07 -10.5 0.01 m 10.58 -1.32 l -0.04 -2.18 c -0.04 -2.07 -0.05 -2.2 -0.21 -2.35 c -0.16 -0.16 -0.26 -0.17 -2.28 -0.16 c -2.25 0.01 -2.36 -0.01 -2.66 -0.39 c -0.14 -0.18 -0.16 -0.41 -0.18 -2.33 c -0.02 -2 -0.04 -2.14 -0.19 -2.29 c -0.16 -0.15 -0.28 -0.16 -2.43 -0.17 c -2.15 0 -2.27 0 -2.43 0.15 c -0.16 0.16 -0.16 0.3 -0.16 4.96 v 4.8 c 0.12 0.21 0.16 0.25 0.37 0.37 h 9.79 c 0.24 -0.09 0.35 -0.19 0.42 -0.41" style="fill:#fff"/></svg>