<svg xmlns="http://www.w3.org/2000/svg" xmlns:xlink="http://www.w3.org/1999/xlink" viewBox="0 0 22 22"><defs><g id="3" style="clip-path:url(#2)"><path d="m 14.52 5.73 c 1.59 0 2.89 0.77 2.89 1.73 v 5.97 c 0 0.96 -1.29 1.73 -2.89 1.73 c -1.59 0 -2.88 -0.77 -2.88 -1.73 v -5.97 c 0 -0.96 1.29 -1.73 2.88 -1.73" style="fill:#fff"/><path d="m 17.2 7.34 c 0 0.74 -1.18 1.33 -2.63 1.33 c -1.45 0 -2.63 -0.59 -2.63 -1.33 c 0 -0.73 1.18 -1.33 2.63 -1.33 c 1.45 0 2.63 0.6 2.63 1.33" style="fill:#ffdeac"/><path d="m 3.77 14.96 c 0 -0.13 3.23 -8.85 3.27 -8.85 c 0.03 0 1.77 4.32 2.71 6.73 l 0.77 1.97 l -0.88 0.04 c -2.25 0.09 -5.87 0.16 -5.87 0.11" style="fill:#fff"/><path d="m 6.7 16.45 c -1.89 -0.1 -3.24 -0.87 -2.88 -1.65 c 1.19 -1.75 5.51 -2.68 6.75 0.12 c 0.07 0.34 -0.13 0.65 -0.59 0.93 c -0.74 0.45 -1.96 0.68 -3.28 0.61" style="fill:#fff"/></g><g id="6" style="clip-path:url(#5)"><path d="m 184.8 165.6 c 0.05 20.98 -16.73 38 -37.43 38 c -20.75 0 -37.53 -17 -37.48 -38 c -0.05 -20.98 16.73 -37.97 37.48 -37.97 c 20.7 0 37.48 16.99 37.43 37.97" transform="matrix(0.082 0 0 0.08 -0.39 1.05)" style="fill:#fff;stroke:#fff;stroke-linecap:round;stroke-width:6"/></g><clipPath id="2"><path d="M 0,0 H22 V22 H0 z"/></clipPath><clipPath id="5"><path d="M 0,0 H22 V22 H0 z"/></clipPath><filter id="0" filterUnits="objectBoundingBox" x="0" y="0" width="22" height="22"><feColorMatrix type="matrix" in="SourceGraphic" values="0 0 0 0 1 0 0 0 0 1 0 0 0 0 1 0 0 0 1 0"/></filter><mask id="4"><g style="filter:url(#0)"><path d="M 0,0 H22 V22 H0 z" style="fill-opacity:0.5"/></g></mask><mask id="1"><g style="filter:url(#0)"><path d="M 0,0 H22 V22 H0 z" style="fill-opacity:0.5"/></g></mask></defs><path d="m 21.86 12.82 c -0.09 -2.98 -1.69 -6.87 -3.83 -9.28 c -1.7 -1.9 -3.27 -2.86 -5.26 -3.22 c -2.79 -0.5 -5.23 0.55 -7.68 3.33 c -2.76 3.25 -5.59 7.93 -4.77 11.43 c 0.33 1.39 0.8 2.32 1.64 3.28 c 1.73 1.96 4.44 3.2 7.71 3.5 c 1.86 0.18 3.36 0.05 5.17 -0.43 c 3.09 -0.82 5.28 -2.55 6.39 -5 c 0.36 -0.78 0.65 -2.5 0.62 -3.59" style="fill:#fd8b01"/><use xlink:href="#3" style="mask:url(#1)"/><use xlink:href="#6" style="mask:url(#4)"/><path d="m 127.2 204.7 c -14.27 -3.18 -25.64 -14.36 -29.3 -28.95 c -0.91 -3.55 -1.27 -9.64 -0.86 -13.91 c 1.91 -19 16.77 -33.73 35.59 -35.2 c 10.59 -0.82 21.59 3.5 29.36 11.5 c 5.09 5.23 8.36 11.14 10.36 18.77 c 1.18 4.41 1.09 14.27 -0.18 19.1 c -3.55 13.5 -13.68 24.1 -26.73 28 c -5.32 1.59 -12.91 1.86 -18.23 0.68 m 14.1 -5.32 c 5.86 -0.91 13.27 -5.09 17.68 -9.95 c 6.55 -7.18 9.55 -16.59 8.68 -27 c -1.14 -13.36 -10.45 -24.95 -23.36 -29 c -7.68 -1.95 -16.18 -1.05 -22.2 1.36 c -7.32 3 -14.77 10.86 -17.64 18.64 c -3.45 9.68 -2.59 20.1 1.23 28.1 c 5 10.27 14.86 17.32 25.82 18.41 c 3.73 0.27 7 0 9.77 -0.45" transform="scale(0.086)" style="fill:#fff;stroke:#fff;stroke-linecap:round;stroke-width:2.58"/></svg>