<svg xmlns="http://www.w3.org/2000/svg" xmlns:xlink="http://www.w3.org/1999/xlink" viewBox="0 0 22 22"><defs><g id="3" style="clip-path:url(#2)"><path d="m 10.55 17.53 c -0.05 -0.01 -0.5 0.19 -0.65 0.16 c -2.48 -0.36 -4.5 -2.63 -5.11 -5 c -0.61 -2.41 0.38 -5.21 2.56 -6.76 c 0.57 -0.43 3.09 -1.31 3.73 -0.88 c 0.75 2.25 0.45 4.32 0.4 6.58 c 2.34 0.19 3.84 -0.19 5.81 0 l 0.08 0.63 c 0.22 1.82 -1.84 3.88 -3.51 4.89 c -1.07 0.5 -2.12 0.57 -3.32 0.41" style="fill:#fff"/></g><clipPath id="2"><path d="M 0,0 H22 V22 H0 z"/></clipPath><filter id="0" filterUnits="objectBoundingBox" x="0" y="0" width="22" height="22"><feColorMatrix type="matrix" in="SourceGraphic" values="0 0 0 0 1 0 0 0 0 1 0 0 0 0 1 0 0 0 1 0"/></filter><mask id="1"><g style="filter:url(#0)"><path d="M 0,0 H22 V22 H0 z" style="fill-opacity:0.5"/></g></mask></defs><path d="m 5.17 2.35 c 11.25 -7.88 22.66 6.67 13.48 15.95 c -8.64 8.74 -22.1 0.64 -17.87 -10.25 c 0.88 -2.27 2.31 -4.26 4.38 -5.7" style="fill:#ff8c00"/><use xlink:href="#3" style="mask:url(#1)"/><path d="m 10 18.61 c -2.44 -0.31 -4.29 -1.65 -5.51 -3.98 c -0.89 -2.14 -1.06 -4.79 -0.12 -6.5 c 1.22 -2.21 3.44 -3.66 5.92 -3.89 c 1.09 -0.1 1.73 -0.12 1.82 0.14 c 0.07 0.19 0.07 1.58 0.14 3.22 l 0.12 3.17 c 1.91 0.16 3.67 0.04 5.69 -0.01 l 0.08 1.38 c -1.14 3.9 -2.89 6.4 -8.14 6.48 m 3.37 -1.46 c 1.81 -0.82 3.6 -3.16 3.84 -5.31 c -1.41 -0.24 -3.35 0.01 -6 0.02 c 0.08 -1.91 0.21 -6.85 -0.59 -6.85 c -0.86 -0.21 -2.72 0.56 -3.9 1.62 c -2.08 1.88 -2.71 4.72 -1.57 7.13 c 1.59 3.11 5.08 4.63 8.25 3.39" style="fill:#fff"/></svg>