<svg xmlns="http://www.w3.org/2000/svg" viewBox="0 0 22 22"><path d="m 13.8 0.48 c 11.1 1.68 10.54 18.4 -0.44 20.93 c -8.92 2.6 -15.61 -6.82 -12.36 -13.86 c 1.61 -4.72 7.37 -8.53 12.81 -7.1" style="fill:#ff8c00"/><path d="m 6 8.43 h 8.72 v 8.66 h -8.72" style="fill:#fff"/><path d="m 6.77 9.2 h 7.27 v 7.17 h -7.27" style="fill:#ff8c00"/><g style="fill:#fff"><path d="m 11.59 12.69 c -0.76 -0.14 -0.8 -0.02 -0.88 -1.54 c -0.05 -1.11 -0.03 -1.24 0.11 -1.42 c 0.28 -0.35 0.34 -0.22 2.57 -0.23 c 1.33 -0.01 2.03 0.06 2.56 -0.19 c 0.4 -0.18 0.11 -1.15 -0.03 -1.29 c -1.19 -0.45 -4.2 0 -4.89 -0.21 c -0.41 -0.58 -0.29 -1 -0.29 -1.41 c 0 -1.41 0.07 -1.77 0.88 -1.84 c 2 -0.02 3.81 -0.07 5.82 0.07 c 0.65 0.16 0.96 0.25 1.2 0.79 c 0.23 0.5 0.27 0.9 0.3 2.6 c 0.03 1.5 -0.02 2.62 -0.13 3.13 c -0.07 0.36 -0.22 0.8 -0.56 1.14 c -0.5 0.73 -5.18 0.5 -6.66 0.41 m 0.81 -0.68 c 0.14 -0.1 0.15 -0.8 0.14 -1.3 c 0 -0.64 -0.11 -0.63 -0.51 -0.67 c -0.22 -0.03 -0.58 -0.04 -0.68 0.26 c -0.1 0.31 -0.1 1.48 0 1.67 c -0.07 0.3 1.11 0.52 1.04 0.04 m -0.11 -4.65 c 0.23 -0.23 0.39 -1.51 0.27 -1.98 c -0.09 -0.32 -0.73 -0.16 -1.05 -0.15 c -0.32 0.07 -0.25 1.97 -0.07 2.1 c 0.21 0.15 0.72 0.15 0.85 0.02"/><path d="m 5.07 7.4 h 2.41 v 2.51 h -2.41"/><path d="m 13.2 15.58 h 2.41 v 2.51 h -2.41"/><path d="m 5.07 15.58 h 2.41 v 2.51 h -2.41"/></g></svg>