<svg xmlns="http://www.w3.org/2000/svg" viewBox="0 0 22 22"><path d="m 11.21 21.88 c -2.27 -0.18 -4.93 -1.26 -6.77 -2.77 c -2.25 -1.83 -3.9 -4.64 -4.34 -7.41 c -0.53 -3.66 1.6 -7.59 4 -9.45 c 1.2 -0.91 2.8 -1.63 4.3 -1.95 c 3.89 -0.82 7.96 0.73 10.74 4.12 c 1.67 2.03 2.53 4.07 2.74 6.5 c 0.25 2.9 -0.89 6 -2.99 8.11 c -2.38 1.98 -4.84 3.05 -7.67 2.84" style="fill:#ff8c00"/><g style="fill:#fff"><path d="m 4.34 8.63 h 2.25 v 6.46 h -2.25"/><path d="m 7.28 5.42 h 2.26 v 9.68 h -2.26"/><path d="m 10.16 10 h 2.25 v 5.09 h -2.25"/><path d="m 14.63 10.89 h 4.68 v 0.58 h -4.68"/><path d="m 14.67 12.22 h 4.72 v 0.58 h -4.72"/><path d="m 14.67 13.49 h 4.65 v 0.58 h -4.65"/></g></svg>