<svg xmlns="http://www.w3.org/2000/svg" viewBox="0 0 22 22"><path d="m 20.93 6.99 c 8.2 26.52 -35.84 13.26 -15.25 -4.91 c 4.13 -3.64 13 -2.24 15.25 4.91" style="fill:#ff8c00"/><g style="fill:#fff"><path d="m 7.28 5.18 h 5.18 c 0.64 0 1.15 0.52 1.15 1.15 v 5.12 c 0 0.64 -0.52 1.15 -1.15 1.15 h -5.18 c -0.64 0 -1.15 -0.52 -1.15 -1.15 v -5.12 c 0 -0.63 0.52 -1.15 1.15 -1.15"/><path d="m 18.54 14.74 c 0 2.09 -1.64 3.78 -3.67 3.78 c -2.03 0 -3.67 -1.69 -3.67 -3.78 c 0 -2.09 1.64 -3.77 3.67 -3.77 c 2.02 0 3.67 1.69 3.67 3.77"/></g><g style="fill:#ff8c00"><path d="m 17 14.76 c 0 1.23 -1 2.22 -2.22 2.22 c -1.23 0 -2.22 -0.99 -2.22 -2.22 c 0 -1.23 0.99 -2.22 2.22 -2.22 c 1.23 0 2.22 0.99 2.22 2.22"/><path d="m 9 11.74 c -0.77 -1.04 -2.37 -1.8 -1.98 -2.19 c 0.06 -0.27 0.64 -0.66 0.77 -0.77 c 0.46 -0.48 0.93 1.02 1.29 0.79 c 0.82 -0.95 1.5 -2.47 1.99 -3.49 c 1.09 0.24 1.68 1.04 1.58 1.55 c -0.93 1.43 -1.92 2.45 -3 3.72 c -0.16 0.18 -0.34 0.35 -0.4 0.38 c -0.08 0.05 -0.14 0.05 -0.21 0.03"/></g><path d="m 8.57 17.79 c -0.15 -0.13 -0.15 -0.13 -0.19 -0.59 c -0.05 -0.52 -0.11 -0.67 -0.36 -0.78 c -0.14 -0.06 -0.22 -0.06 -0.94 -0.02 c -0.76 0.1 -0.77 0.06 -1.25 -0.39 v -0.87 c 0.01 -1.38 0.07 -1.64 0.36 -1.78 c 0.19 -0.05 0.45 0 0.56 0.2 c 0.18 0.5 -0.11 1.13 0.16 1.59 c 0.2 0.32 0.7 0.46 1.02 0.29 c 0.21 -0.11 0.41 -0.39 0.5 -0.7 c 0.18 -0.58 0.53 -0.57 1.24 0.04 c 0.18 0.16 0.47 0.39 0.65 0.51 c 0.5 0.36 0.69 0.69 0.53 0.97 c -0.12 0.21 -1.34 1.31 -1.72 1.54 c -0.25 0.12 -0.44 0.1 -0.58 -0.02" style="fill:#fff"/></svg>