<svg xmlns="http://www.w3.org/2000/svg" viewBox="0 0 22 22"><path d="m 9.28 21.7 c 2.97 -0.49 6.85 -2.62 9.24 -5.09 c 1.89 -1.95 2.85 -3.65 3.21 -5.7 c 0.5 -2.86 -0.55 -5.15 -3.32 -7.23 c -3.23 -2.32 -7.89 -4.51 -11.37 -3.23 c -1.38 0.52 -2.31 1.11 -3.27 2.09 c -1.96 1.99 -3.18 4.87 -3.49 8.19 c -0.18 1.88 -0.05 3.36 0.43 5.11 c 0.81 2.97 2.53 4.93 5 5.71 c 0.78 0.25 2.49 0.31 3.57 0.13" style="fill:#fd8b01"/><g style="stroke:#fff"><g transform="matrix(0.026 0.229 -0.27 0.022 147.7 -87.4)" style="fill:#fff;fill-rule:evenodd"><path d="m 358.4 518.1 l 4.92 -3.93 l 45.93 41.2 l -5.07 3.12" style="stroke-miterlimit:2"/><path d="m 402.5 554.5 c -8.1 -7 5.37 -2.67 12.91 10.49 c -14.33 -8.32 -11.21 -8.99 -12.91 -10.49"/></g><path d="m 6.57 44.5 c 0 0 -8.63 -21.29 -0.61 -30.59 c 6.64 -7.72 11.5 11.26 16.22 2.2 c 1.77 -3.41 0.1 -11.22 -11.33 -15.22" transform="matrix(0.306 0 0 0.316 3.73 5.74)" style="fill:#ffdeac"/></g></svg>