<svg xmlns="http://www.w3.org/2000/svg" viewBox="0 0 22 22"><path d="m 10.13 21.84 c 13.1 1.25 16.59 -19.82 3.17 -21.46 c -12.34 -2.03 -18.69 17.1 -6.43 20.89 c 1.04 0.42 2.17 0.41 3.27 0.57" style="fill:#ff8c00"/><path d="m 5.29 17.1 c -0.29 -0.28 -0.09 -0.85 0.3 -0.85 c 0.26 0 0.38 0.07 0.49 0.28 c 0.12 0.21 0.09 0.45 -0.08 0.61 c -0.15 0.14 -0.54 0.13 -0.71 -0.03 m 2.29 0.04 c -0.26 -0.11 -0.44 -0.3 -0.75 -0.79 c -0.39 -0.48 -0.24 -1.1 -0.24 -1.69 c 0 -0.72 0.03 -1.37 0.07 -1.47 c 0.11 -0.27 0.69 -0.93 0.93 -1.04 c 0.3 -0.14 0.99 -0.13 1.3 0.03 c 0.29 0.14 0.59 0.48 0.73 0.82 c 0.15 0.34 0.14 2.94 -0.01 3.29 c -0.16 0.38 -0.49 0.73 -0.79 0.85 c -0.32 0.13 -0.97 0.13 -1.25 0.01 m 1.03 -1.12 c 0.12 -0.08 0.13 -0.19 0.15 -1.34 c 0.01 -0.82 0 -1.3 -0.05 -1.39 c -0.06 -0.11 -0.14 -0.13 -0.45 -0.13 c -0.49 0 -0.56 0.1 -0.62 0.92 c -0.07 0.89 0.02 1.75 0.18 1.91 c 0.16 0.15 0.59 0.17 0.78 0.03 m 2.59 1.09 c -0.3 -0.14 -0.58 -0.45 -0.75 -0.82 c -0.09 -0.2 -0.11 -0.52 -0.11 -1.64 c 0 -1.58 0.02 -1.67 0.56 -2.24 c 0.3 -0.32 0.31 -0.32 0.79 -0.35 c 0.63 -0.04 0.91 0.06 1.25 0.43 c 0.43 0.48 0.49 0.78 0.46 2.3 c -0.02 1.18 -0.04 1.32 -0.18 1.56 c -0.22 0.39 -0.49 0.69 -0.75 0.79 c -0.32 0.13 -0.96 0.11 -1.28 -0.04 m 1.05 -1.12 c 0.1 -0.09 0.14 -0.27 0.18 -0.7 c 0.06 -0.67 -0.02 -1.93 -0.12 -2.05 c -1.41 -0.55 -1.41 2.36 -0.84 2.78 c 0.2 0.14 0.63 0.12 0.78 -0.03 m 2.67 1.17 c -0.24 -0.09 -0.6 -0.44 -0.77 -0.75 c -0.14 -0.24 -0.15 -0.38 -0.17 -1.66 c -0.02 -1.55 0.01 -1.69 0.48 -2.26 c 0.3 -0.36 0.51 -0.45 1 -0.45 c 0.52 0 0.72 0.08 1.09 0.41 c 0.52 0.48 0.55 0.61 0.55 2.18 c 0 1.21 -0.02 1.41 -0.13 1.64 c -0.15 0.31 -0.64 0.79 -0.91 0.88 c -0.24 0.09 -0.91 0.09 -1.14 0 m 0.99 -1.18 c 0.12 -0.13 0.13 -0.27 0.15 -1.3 c 0.02 -1.41 0 -1.48 -0.5 -1.51 c -0.28 -0.02 -0.37 0.01 -0.48 0.12 c -0.12 0.13 -0.13 0.25 -0.13 1.34 c 0 1.09 0.01 1.21 0.13 1.34 c 0.18 0.19 0.65 0.19 0.83 0 m -9.75 -5.14 c -0.28 -0.12 -0.76 -0.61 -0.88 -0.9 c -0.09 -0.2 -0.11 -0.53 -0.11 -1.6 c 0 -1.51 0 -1.52 0.5 -2.09 c 0.36 -0.41 0.56 -0.5 1.05 -0.5 c 0.52 0 0.72 0.07 1.09 0.41 c 0.52 0.48 0.55 0.6 0.55 2.18 c 0 1.2 -0.02 1.41 -0.13 1.64 c -0.15 0.31 -0.64 0.78 -0.91 0.88 c -0.27 0.09 -0.92 0.08 -1.17 -0.03 m 1.03 -1.16 c 0.11 -0.12 0.13 -0.27 0.15 -1.3 c 0.02 -1.41 0 -1.48 -0.5 -1.5 c -0.28 -0.02 -0.37 0 -0.48 0.12 c -0.18 0.45 -0.26 2.4 0 2.68 c 0.18 0.19 0.65 0.19 0.83 0 m 7.61 0.95 c -0.32 -0.49 -1.15 -1.25 -1.18 -1.59 c 0 -0.16 0.25 -0.34 0.48 -0.34 c 0.22 0 0.54 -0.23 0.54 -0.39 c 0 -0.06 -0.06 -0.17 -0.14 -0.23 c -0.12 -0.11 -0.2 -0.11 -0.95 -0.04 c -0.45 0.04 -1.42 0.07 -2.17 0.07 c -1.15 0 -1.39 -0.02 -1.59 -0.12 c -0.45 -0.33 -0.28 -0.48 -0.02 -0.77 l 2.56 -0.04 c 1.41 -0.02 2.66 -0.01 2.78 0.01 c 0.35 0.07 0.49 0.29 0.45 0.7 c -0.04 0.3 -0.02 0.38 0.12 0.52 c 0.32 0.32 0.75 0.04 1.09 0.29 c 0.29 0.22 0.25 0.47 -0.16 0.91 c -1.18 1.26 -1.09 1.19 -1.38 1.19 c -0.2 0 -0.3 -0.04 -0.44 -0.18" style="fill:#fff"/></svg>