<svg xmlns="http://www.w3.org/2000/svg" viewBox="0 0 22 22"><path d="m 2.96 18.79 c -12.43 -19.24 21.52 -26.69 18.82 -6.89 c -1.11 8.1 -14.1 14.25 -18.82 6.89" style="fill:#ff8c00"/><g style="fill-rule:evenodd"><g transform="matrix(0.225 0 0 0.22 5.48 2.32)" style="stroke:#ff8c00;stroke-width:0.74"><g style="fill:#fff;stroke-linecap:round;stroke-linejoin:round"><path d="m 35.41 36.81 c 11.59 20.1 19.76 24.3 22.26 21.83 c 2.6 -2.59 -1.77 -10.56 -20.73 -23.39"/><path d="m 44.58 23.59 c 0 11.57 -9.37 20.96 -20.9 20.96 c -11.55 0 -20.92 -9.39 -20.92 -20.96 c 0 -11.55 9.37 -20.94 20.92 -20.94 c 11.54 0 20.9 9.39 20.9 20.94"/></g><path d="m 18.2 39.6 c -9.73 -3.85 -13.72 -14.29 -9.11 -23.71 c 2.03 -4.1 7.27 -7.84 12.1 -8.68 c 4.48 -0.76 9.65 0.92 13.27 4.33 c 3.56 3.35 5.27 7.29 5.31 12.14 c 0.03 6.74 -3.56 12.41 -9.8 15.42 c -2.08 1.01 -2.64 1.12 -6 1.21 c -3.23 0.09 -4 -0.02 -5.76 -0.71" style="fill:#ff8c00"/></g><path d="m 10.22 7.74 c -1.56 0 -3.14 0.95 -3.14 2.39 v 2.62 h -1.16 v 5.86 h 8.7 v -5.86 c -0.05 0.01 -0.1 0.02 -0.15 0.02 h -4.06 c -0.05 0 -0.1 -0.01 -0.15 -0.02 h -1.75 v -2.34 c 0 -0.89 0.96 -1.35 1.69 -1.36 c 0.84 0 1.76 0.53 1.76 1.34 v 0.74 h 1.47 v -1.08 c 0 -1.08 -1.23 -2.32 -3.21 -2.32 m 0.02 6.3 c 0.48 0 0.87 0.36 0.87 0.79 c 0 0.26 -0.14 0.5 -0.35 0.64 l 0.34 1.77 h -1.71 l 0.34 -1.76 c -0.22 -0.14 -0.36 -0.38 -0.36 -0.64 c 0 -0.44 0.39 -0.8 0.87 -0.8" style="fill:#fff"/></g></svg>