<svg xmlns="http://www.w3.org/2000/svg" viewBox="0 0 22 22"><path d="m 17.48 3.19 c 19.29 22.89 -28.2 26.1 -14.83 2.78 c 3.04 -5.33 9.73 -8.84 14.83 -2.78" style="fill:#ff8c00"/><path d="m 8.79 18.21 c -0.17 -0.12 -0.3 -0.3 -0.3 -0.41 c 0 -0.11 0.34 -0.6 0.75 -1.08 l 0.75 -0.88 v -1.68 c 0 -0.98 -0.05 -1.68 -0.13 -1.68 c -0.16 0 -4.29 0.65 -4.82 0.75 c -0.33 0.07 -0.38 0.04 -0.38 -0.27 c 0 -0.3 0.35 -0.58 2.64 -2.09 l 2.64 -1.75 l 0.07 -1.73 c 0.07 -1.84 0.35 -2.91 0.83 -3.21 c 0.56 -0.34 1.05 1.08 1.15 3.37 l 0.07 1.63 l 2.57 1.68 c 1.88 1.23 2.59 1.76 2.65 2 c 0.04 0.18 0.05 0.36 0.02 0.39 c -0.03 0.03 -1.16 -0.13 -2.52 -0.36 c -1.36 -0.23 -2.53 -0.41 -2.61 -0.41 c -0.1 0 -0.15 0.56 -0.15 1.71 v 1.71 l 0.75 0.87 c 0.41 0.48 0.75 0.93 0.75 1 c 0 0.07 -0.12 0.25 -0.27 0.39 c -0.25 0.24 -0.45 0.27 -2.22 0.27 c -1.54 0 -2 -0.04 -2.25 -0.21" style="fill:#fff"/></svg>