<svg xmlns="http://www.w3.org/2000/svg" viewBox="0 0 256 256"><path d="m 38.6 211.5 c 265.3 200.1 302.9 -350.6 32.2 -173.9 c -61.73 40.3 -102.4 120.9 -32.2 173.9" style="fill:#ff8c00"/><g style="stroke:#fff;stroke-linecap:round;stroke-linejoin:round;stroke-width:5"><g transform="matrix(0 3.093 2.827 0 61.97 37.97)" style="fill-rule:evenodd"><path d="m 5.63 21.32 c 0 -0.38 0.3 -0.69 0.69 -0.69 h 16.1 c 0.38 0 0.68 0.3 0.68 0.69 v 16 c 0 0.38 -0.3 0.69 -0.68 0.69 h -16.1 c -0.38 0 -0.69 -0.3 -0.69 -0.69" style="fill:#ffe4c2"/><path d="m 32.63 13.67 c 0 -0.56 0.45 -1 1 -1 h 19.74 c 0.56 0 1 0.45 1 1 v 23.46 c 0 0.55 -0.45 0.99 -1 0.99 h -19.74 c -0.56 0 -1 -0.44 -1 -0.99" style="fill:#fff"/></g><path d="m 4.5 48.9 h 48.75" transform="matrix(0 3.093 2.827 0 58.67 41.4)" style="fill:none"/></g></svg>