<svg xmlns="http://www.w3.org/2000/svg" viewBox="0 0 256 256"><path d="m 252.2 135.6 c -152.1 347 -425.6 -162.1 -86.6 -133.2 c 51 6.75 104.6 60.2 86.6 133.3" style="fill:#ff8c00"/><g style="fill:#fff"><path d="m 100.6 192.2 c -14.4 -3.04 -23.63 -15.2 -24.82 -32.54 c -1.02 -14.73 4.61 -27.71 14.77 -34.1 c 8.52 -5.34 13.6 -6.36 34.71 -6.88 l 19.94 -0.52 l -0.58 -6.38 c -0.67 -7.41 -4.5 -14.79 -9.54 -18.39 c -10.31 -7.33 -29.46 -7.08 -46.3 0.61 l -5.69 2.6 v -15.85 l 5.98 -2.29 c 28.2 -10.77 54.5 -5.21 64.84 13.71 c 5.83 10.71 6.44 15.81 6.98 58.5 l 0.5 39.3 h -16.48 l -0.04 -8.94 c -0.06 -8.69 -0.13 -8.88 -1.86 -6.25 c -3.96 6 -12.83 13.61 -18.2 15.48 c -6.65 2.33 -17.88 3.21 -24.2 1.88 m 21.79 -15.23 c 13 -3.6 22.52 -20 22.52 -38.75 v -5.89 l -18.2 0.39 c -16.85 0.38 -18.6 0.61 -24.2 3.23 c -4.98 2.33 -6.48 3.71 -8.39 7.64 c -4.52 9.34 -2.61 23.5 3.98 29.46 c 4.98 4.5 15.88 6.25 24.29 3.91" style="stroke:#ff4500;stroke-width:0.43"/><path d="m 170.6 94.3 c -3.57 -1.05 -4.48 -2.04 -4.48 -4.89 c 0 -2.86 0.49 -3.38 2.4 -2.66 c 16.54 6.5 31.56 2 27.86 -8.28 c -1.23 -3.42 -5.16 -5.55 -15.63 -8.41 c -9.83 -2.69 -14.63 -7.13 -14.63 -13.47 c 0.06 -10.61 7.55 -16.52 20.59 -16.29 c 11.39 0.23 14.37 1.41 14.89 5.95 c 0.39 3.35 0.13 3.71 -2.04 2.56 c -4.48 -2.33 -14.73 -2.99 -19.69 -1.25 c -3.14 1.09 -5.22 2.93 -6.07 5.45 c -1.95 5.59 1.66 8.74 13.36 11.63 c 11.68 2.89 17.42 7.69 17.42 14.49 c 0 6.34 -3.34 11.86 -8.73 14.46 c -5.19 2.5 -17.97 2.86 -25.3 0.72" style="stroke:#fff;stroke-width:0.55"/></g></svg>