<svg xmlns="http://www.w3.org/2000/svg" viewBox="0 0 256 256"><path d="m 6.75 122.7 c 152.1 -347 425.6 162.1 86.6 133.2 c -51 -6.75 -104.6 -60.2 -86.6 -133.2" style="fill:#ff8c00"/><g style="fill:#fff"><path d="m 100.6 192.2 c -14.4 -3.04 -23.63 -15.2 -24.82 -32.54 c -1.02 -14.73 4.61 -27.71 14.77 -34.1 c 8.52 -5.34 13.6 -6.36 34.71 -6.88 l 19.94 -0.52 l -0.58 -6.38 c -0.67 -7.41 -4.5 -14.79 -9.54 -18.39 c -10.31 -7.33 -29.46 -7.08 -46.3 0.61 l -5.69 2.6 v -15.85 l 5.98 -2.29 c 28.2 -10.77 54.5 -5.21 64.84 13.71 c 5.83 10.71 6.44 15.81 6.98 58.5 l 0.5 39.3 h -16.48 l -0.04 -8.94 c -0.06 -8.69 -0.13 -8.88 -1.86 -6.25 c -3.96 6 -12.83 13.61 -18.2 15.48 c -6.65 2.33 -17.88 3.21 -24.2 1.88 m 21.79 -15.23 c 13 -3.6 22.52 -20 22.52 -38.75 v -5.89 l -18.2 0.39 c -16.85 0.38 -18.6 0.61 -24.2 3.23 c -4.98 2.33 -6.48 3.71 -8.39 7.64 c -4.52 9.34 -2.61 23.5 3.98 29.46 c 4.98 4.5 15.88 6.25 24.29 3.91" style="stroke:#ff4500;stroke-width:0.43"/><path d="m 181.4 215.9 c -5.7 -1.41 -6.6 -2.09 -6.96 -5.45 c -0.46 -4.42 -0.1 -4.53 6.96 -1.8 c 14.16 5.45 27.4 0.18 25 -9.91 c -0.89 -3.79 -5.11 -6.19 -16.91 -9.66 c -10.15 -2.93 -13.96 -7.08 -13.96 -15 c 0 -11.39 6.4 -16.45 20.82 -16.45 c 11.91 0 15.89 1.59 15.89 6.41 c 0 2.97 -0.46 3.5 -2.29 2.65 c -9.19 -4.07 -22.89 -3.22 -26.2 1.63 c -4.54 6.62 -0.96 10.9 12.64 15.1 c 13.83 4.24 17.81 8 17.81 16.8 c 0 13.8 -13.73 20.38 -32.77 15.67" style="stroke:#fff;stroke-width:0.54"/></g></svg>