<svg xmlns="http://www.w3.org/2000/svg" viewBox="0 0 256 256"><path d="m 203.5 27.3 c 210 184.1 -295.2 370.3 -188.1 70.3 c 26.65 -74.7 117.1 -132.6 188.1 -70.3" style="fill:#dc143c"/><path d="m -2.6 302.7 c -5.11 -2.1 -5.11 -5.09 0.04 -15.88 1.44 -3 2.89 -7.46 3.22 -9.85 0.82 -5.98 1.88 -7.57 6.12 -9.22 5.68 -2.21 9.82 -5.59 12.76 -10.42 3.85 -6.31 9.53 -13.19 22.75 -27.52 17.7 -19.2 25.47 -30.1 40.4 -56.64 10.92 -19.4 16.66 -28.2 26.47 -40.4 8.76 -10.93 25.81 -27.33 31.2 -30 3.29 -1.64 4.09 -1.71 6.96 -0.6 6.75 2.6 18.52 4.81 28.79 5.4 l 10.64 0.62 l 0.47 3.85 c 1.38 11 1.66 21.53 4.94 32.45 2.14 6.93 2.29 8.39 1.23 11.29 -2.85 7.81 -18.1 24.1 -33.4 35.57 -11.78 8.86 -21 14.56 -39.3 24.3 -25.1 13.27 -34.3 20 -51.1 37.47 -10.64 11 -16.1 15.75 -24.33 20.91 -10.37 6.52 -13.89 10.74 -15.8 18.93 -0.52 2.23 -1.14 2.52 -6.75 3.12 -7.21 0.77 -11.74 2.39 -15.87 5.67 -3.35 2.66 -4.96 2.84 -9.38 1.02 z" transform="matrix(0.72 0.023 0.015 0.76 50.1 -18.22)" style="fill:#fff;stroke:#fff;stroke-linecap:round;stroke-width:1.93"/><g style="fill:#dc143c"><rect width="8.85" height="51.3" x="178.5" y="-49.93" ry="4.8" rx="4.42" transform="matrix(0.737 0.676 -0.719 0.695 0 0)"/><rect transform="matrix(0.803 0.596 -0.654 0.757 0 0)" rx="3.72" ry="4.8" y="-26.93" x="165.5" height="43.1" width="7.45"/><rect width="7.45" height="43.1" x="193.5" y="-51.5" ry="4.8" rx="3.72" transform="matrix(0.708 0.706 -0.757 0.654 0 0)"/></g></svg>