<svg xmlns="http://www.w3.org/2000/svg" viewBox="0 0 256 256"><path d="m 234 53.6 c -48.55 -88.1 -200.6 -53.94 -226.3 18.62 c -30.67 86.5 49.1 250.6 184.3 154.5 c 45.52 -33.59 90.6 -84.94 42.1 -173.1" style="fill:#ff8c00"/><path d="m 109.9 198.2 c -10.99 -2.68 -20.32 -8.1 -27.38 -14.99 c -26.34 -22.51 -35.3 -65.7 -15.23 -95.5 c 20.77 -25.2 51.1 -40.87 78.2 -31.2 c 22.5 8.85 44 23.1 48.2 44.88 c 7.43 20.55 6.76 47.52 -5.27 65.6 c -3.18 4.38 -17.26 18.52 -22.7 22.81 c -11.55 9.12 -46.55 14.39 -55.81 8.41 m 7.75 -37.3 c 3.32 -3.54 7.74 -6.44 9.8 -6.44 c 2.07 0 6.45 2.9 9.72 6.44 c 7.71 8.32 16.2 8.17 23.5 -0.4 c 7.64 -8.9 7.45 -17 -0.56 -23 c -3.54 -2.66 -6.44 -7.18 -6.44 -10 c 0 -2.87 2.89 -7.39 6.44 -10.1 c 8 -6 8.21 -14.1 0.56 -23 c -7.36 -8.57 -15.8 -8.71 -23.5 -0.4 c -3.28 3.54 -7.77 6.44 -9.99 6.44 c -2.21 0 -6.3 -2.89 -9.1 -6.44 c -6.38 -8.11 -15.43 -8.2 -22.98 -0.23 c -7.59 8 -7.34 17.19 0.64 24.69 c 8.14 7.65 8.14 12.94 0 19.1 c -8.1 6.1 -8.33 15.55 -0.64 23.65 c 7.48 7.89 14.96 7.81 22.52 -0.23" style="fill:#f00"/></svg>