<svg xmlns="http://www.w3.org/2000/svg" viewBox="0 0 256 256"><path d="m 234 203.5 c -48.55 88.1 -200.6 53.92 -226.3 -18.64 c -30.67 -86.5 49.1 -250.6 184.3 -154.5 c 45.52 33.58 90.6 84.96 42.1 173.1" style="fill:#ff8c00"/><g style="fill:#99cc2f"><path d="m 93.2 191 c -15.1 -7 -21.73 -15.23 -28.3 -28.3 c -11.36 -22.63 -11.1 -39.44 1.04 -62.5 c 7.62 -14.5 11.89 -18.68 19.1 -18.68 c 12.95 0 15.5 9.94 6.25 24.38 c -11.28 17.59 -10.36 39.87 2.25 54.3 c 8.96 10.28 12.44 11.57 31 11.57 c 24.31 0 34.48 -7.61 40.9 -30.61 c 3.27 -11.72 2.53 -16.75 -4.55 -30.79 c -9.68 -19.22 -7.68 -29.97 5.25 -28.2 c 14.77 2.05 27 27.39 25.41 52.6 c -1.78 27.86 -14.38 50.1 -39.54 58.98 c -18.87 6.69 -38.49 6.71 -58.88 -2.78"/><path d="m 115.4 138.5 c -4.64 -12.21 -4.64 -53.71 0 -65.9 c 4 -10.61 16.38 -12.84 19.98 -3.63 c 5.17 13.23 2.91 65.6 0 73.1 c -3.54 9.24 -15.95 6.99 -19.98 -3.63"/></g></svg>