<svg xmlns="http://www.w3.org/2000/svg" viewBox="0 0 256 256"><defs><clipPath><path transform="matrix(15.333 0 0 11.5 415 -125.5)" d="m -24 13 c 0 1.11 -0.67 2 -1.5 2 -0.83 0 -1.5 -0.89 -1.5 -2 0 -1.11 0.67 -2 1.5 -2 0.83 0 1.5 0.89 1.5 2 z"/></clipPath></defs><path d="m 291.8 921.2 c 200.1 265.3 -350.6 302.9 -173.9 32.2 40.3 -61.73 120.9 -102.4 173.9 -32.2 z" transform="translate(-80.3 -882.6)" style="fill:#ff8c00;color:#000"/><g style="fill:#fff"><path d="m 66.7 208 c -0.87 -0.64 -1.03 -1.28 -0.7 -2.78 0.88 -3.99 5.38 -9.96 19.64 -26 7.91 -8.9 12.38 -14.53 13.92 -17.53 0.58 -1.12 1.29 -4.98 1.66 -9 0.36 -3.89 0.82 -8.1 1.03 -9.25 0.43 -2.51 1.84 -4.37 3.27 -4.34 2.69 0.05 4.67 3.65 7.19 13.1 0.86 3.2 1.77 6 2.04 6.25 0.27 0.24 2.96 1.08 5.99 1.87 3 0.79 6.95 2.3 8.72 3.35 2.72 1.63 3.22 2.21 3.22 3.78 0 1.5 -0.41 2.06 -2.18 2.92 -1.2 0.59 -3.58 1.09 -5.3 1.11 -4.86 0.07 -11.4 1.17 -13.59 2.29 -2.69 1.38 -5.99 4.18 -20.63 17.53 -11.77 10.73 -18.95 16.38 -21.88 17.22 -0.7 0.2 -1.79 -0.01 -2.41 -0.46 z"/><path d="m 199 206.6 c -3.83 -2.28 -11.1 -8.24 -21.81 -18 -14.83 -13.46 -17.1 -14.65 -29.45 -15.59 -5.57 -0.42 -8.56 -1.72 -8.56 -3.71 0 -2.28 5.2 -5.18 12.39 -6.93 4.96 -1.2 6.92 -2.33 6.92 -3.96 0 -0.67 0.87 -3.93 1.93 -7.23 1.99 -6.21 3.87 -8.96 6.13 -8.96 2.32 0 3.19 2.51 3.9 11.31 0.66 8.26 0.69 8.34 3.3 12.36 1.45 2.23 5.83 7.52 9.73 11.77 18.33 19.92 21.31 23.78 21.38 27.71 0.04 2.3 -0.12 2.59 -1.51 2.74 -0.86 0.09 -2.82 -0.59 -4.36 -1.51 z"/><path d="m 162.7 134.3 c -1.57 -1.74 -3 -5.46 -4.79 -12.27 l -1.6 -6.19 l -6.54 -1.95 c -7.23 -2.16 -9.69 -3.28 -11.46 -5.24 -0.99 -1.1 -1.07 -1.57 -0.47 -2.88 0.98 -2.15 2.59 -2.63 11.32 -3.39 5.25 -0.46 8.28 -1.03 9.96 -1.89 3.41 -1.74 8.16 -5.82 20.29 -17.42 15.79 -15.1 21.85 -19.23 24.43 -16.64 0.88 0.88 0.93 1.35 0.3 3 -1.58 4.19 -5.16 9.1 -15.61 21.2 -12.35 14.38 -15.96 19 -17.63 22.68 -0.78 1.71 -1.4 5.26 -1.83 10.59 -0.49 5.93 -0.95 8.42 -1.78 9.57 -1.4 1.95 -3.24 2.27 -4.59 0.78 z"/><path d="m 104.2 134.7 c -1.44 -0.85 -2.21 -3.74 -2.67 -9.95 c -0.86 -11.77 -1.72 -13.4 -15.69 -29.62 -11.81 -13.71 -16.39 -19.61 -18.46 -23.76 c -1.61 -3.24 -1.79 -4 -1.11 -4.83 2.62 -3.15 7.67 0.24 25.69 17.21 18.26 17.21 18.93 17.63 29.3 18.57 3.52 0.32 6.91 0.59 7.53 0.6 0.63 0.01 1.97 0.85 2.99 1.87 1.55 1.55 1.74 2.06 1.18 3.12 -1.1 2.06 -9.83 5.82 -16.67 7.19 -1.54 0.31 -2.11 0.81 -2.39 2.07 -1.09 4.96 -4.14 13.85 -5.4 15.71 -1.56 2.32 -2.68 2.79 -4.31 1.82 z"/><path d="m 130.8 149.3 c -8.53 -4.43 -10.42 -15.1 -3.83 -21.71 4.7 -4.7 11 -5.25 16.2 -1.39 3.96 2.99 5.58 6.59 5.24 11.7 -0.27 4.21 -1.49 6.77 -4.48 9.44 -3.27 2.92 -9.46 3.84 -13.1 1.95 z"/></g></svg>