<svg xmlns="http://www.w3.org/2000/svg" viewBox="0 0 256 256"><path d="m 24.46 60.1 c -139.3 254.4 369.5 266.4 194.4 4.15 c -46.2 -67.5 -156.9 -100.4 -194.4 -4.15" style="fill:#ff8c00"/><path d="m 97.7 217.2 c 0 -0.6 4.75 -5.69 10.56 -11.32 l 10.56 -10.23 h 46.3 c 25.49 0 46.3 0.3 46.3 0.67 0 0.37 -4.94 5.46 -10.98 11.32 l -10.98 10.65 h -45.92 c -37.1 0 -45.92 -0.21 -45.92 -1.09 z m 5.99 -45.54 c 0 -0.28 1.53 -1.97 3.41 -3.76 2.32 -2.21 3.72 -4.48 4.41 -7.14 0.71 -2.78 1.52 -4 2.79 -4.36 0.99 -0.25 4.73 -1.9 8.32 -3.66 l 6.53 -3.2 h 41.2 c 22.65 0 41.2 0.3 41.2 0.67 0 0.37 -4.94 5.46 -10.98 11.32 l -10.98 10.65 h -42.92 c -23.61 0 -42.92 -0.23 -42.92 -0.52 z m -11.78 -13.1 c -1.22 -1.28 -1.89 -3.24 -2.07 -6.1 l -0.27 -4.17 l -6.42 -1.75 c -9.38 -2.55 -16.68 -6.69 -23.61 -13.4 -7 -6.79 -11.69 -14.46 -13.85 -22.74 -0.83 -3.17 -1.81 -6.24 -2.18 -6.82 -0.39 -0.6 -2.44 -1.05 -4.84 -1.05 -3.48 0 -4.46 -0.36 -5.94 -2.21 -2.19 -2.73 -2.22 -3.78 -0.16 -6.26 1.19 -1.44 2.79 -2.06 6.11 -2.4 4.97 -0.5 5.26 -0.81 6.74 -7.16 1.3 -5.61 6.12 -15.1 10 -19.7 7.41 -8.77 17.22 -14.92 27.84 -17.48 l 6.25 -1.5 l 0.46 -4.44 c 0.34 -3.29 0.98 -4.85 2.45 -6 2.53 -2 3.61 -1.98 6.39 0.16 1.82 1.4 2.25 2.44 2.25 5.4 0 2 0.48 3.96 1.07 4.33 0.59 0.37 3.77 1.44 7.1 2.38 12.85 3.67 24.37 12.41 31.1 23.57 3 5 4.15 7.96 6.98 17.92 0.52 1.82 1.15 2.13 4.81 2.36 10.12 0.63 11.1 11 1 11.1 -2 0.01 -4.08 0.29 -4.63 0.63 -0.55 0.34 -1.64 3.07 -2.43 6.1 -4.82 18.31 -20.92 33.68 -39.57 37.77 -4.75 1.04 -5.32 1.73 -5.34 6.45 -0.02 6.19 -5.33 9.1 -9.22 5 z m -1.84 -31.92 c 0.64 -3.89 2.44 -5.81 5.44 -5.81 3.16 0 5.47 2.38 5.78 5.96 0.24 2.81 0.47 3.05 2.83 2.95 7.51 -0.3 17.66 -8.25 22.31 -17.47 3.77 -7.48 3.65 -9.16 -0.69 -9.51 -3.16 -0.26 -6.65 -3.21 -6.65 -5.63 0 -2.19 3.18 -4.82 6.46 -5.34 4.15 -0.66 4.43 -1.75 2.06 -7.96 -2.49 -6.53 -9.62 -13.96 -16.63 -17.34 -7.2 -3.47 -9.28 -3.15 -9.91 1.53 -0.8 5.86 -5.11 7.79 -8.96 4 -1.44 -1.41 -2.1 -2.99 -2.1 -5 0 -2.71 -0.22 -2.97 -2.43 -2.97 -3.91 0 -12.42 4.7 -16.78 9.26 -4.21 4.41 -8.15 11.71 -8.43 15.61 -0.15 2.06 0.18 2.36 3.2 2.86 3.5 0.58 6.47 3.21 6.47 5.74 0 2.23 -3.25 5.09 -5.81 5.11 -4.28 0.02 -4.86 0.98 -3.3 5.47 3.13 8.99 9.52 15.91 18.55 20.1 6.24 2.87 7.93 2.58 8.6 -1.49 z m 0.11 -18.73 c -6.3 -3.04 -8.81 -10.93 -5.16 -16.19 1.11 -1.6 3.36 -3.81 5 -4.9 5.43 -3.61 13.52 -1.08 16.56 5.19 5.1 10.43 -5.84 20.99 -16.39 15.89 z m 62.1 17.71 c -0.25 -0.25 0.57 -2.95 1.83 -6 2.14 -5.18 2.54 -5.62 5.9 -6.59 4.89 -1.42 7.3 -3.09 9.52 -6.61 l 1.88 -2.98 h 20 c 11 0 20 0.3 20 0.67 0 0.37 -4.94 5.46 -10.98 11.32 l -10.98 10.65 h -18.39 c -10.12 0 -18.6 -0.2 -18.85 -0.45 z" style="fill:#fff"/></svg>