<svg xmlns="http://www.w3.org/2000/svg" viewBox="0 0 256 256"><path d="m 28.59 81.1 c -12.75 15.1 -25.92 43.9 -28 61.3 c -3.08 25.1 4.75 54.2 19.32 71.93 19.46 23.7 59.77 40.2 100.5 40.93 29.3 0.59 68.7 -7 89.1 -17.19 17.31 -8.64 29.9 -21.66 37.1 -38.4 9.78 -22.67 10.93 -45 3.45 -67.5 c -11.85 -47.91 -41.1 -80.8 -67.4 -107.1 -67.1 -59.1 -115.1 9.14 -154 56.1" style="fill:#ff8c00"/><path d="m 55.4 212 c -0.23 -0.62 -0.31 -2.89 -0.17 -5.06 l 0.24 -3.94 h 74.6 h 74.6 v 4.85 v 4.85 l -74.4 0.21 c -62.74 0.17 -74.5 0.03 -74.83 -0.91 z m 69.6 -22.56 c -0.17 -0.56 -0.52 -3.81 -0.78 -7.22 -1.13 -14.55 -4.31 -21.87 -13.63 -31.38 -7.96 -8.12 -10.57 -12.72 -11.95 -21 -3 -18.1 8.66 -34.91 26.51 -38.2 15.67 -2.85 31.78 8.19 35.84 24.55 3.35 13.51 -2.57 37.75 -13.57 55.6 -7.14 11.57 -20.98 22.47 -22.42 17.65 z m -16.42 -110.8 c -0.93 -2.88 -5.09 -30.72 -4.69 -31.39 0.75 -1.26 51.88 -1.04 52.3 0.23 0.2 0.56 -0.78 7.93 -2.19 16.39 l -2.55 15.37 l -21.29 0.22 c -16.63 0.17 -21.36 -0.01 -21.62 -0.81 z" style="fill:#fff"/></svg>