<svg xmlns="http://www.w3.org/2000/svg" viewBox="0 0 256 256"><path d="m 117.8 254.2 c 152.1 14.54 193 -230.7 36.86 -249.7 c -143.6 -23.6 -217.5 198.7 -74.86 243.1 c 12.1 4.87 25.3 4.78 38 6.59" style="fill:#ff8c00"/><path d="m 80.6 206.8 c -1.78 -0.5 -3.8 -1.34 -4.48 -1.88 -3.68 -2.86 -6.07 -5.67 -7.53 -8.85 l -1.63 -3.55 v -57.81 v -57.81 l 1.61 -3.55 c 2.66 -5.86 8.59 -10.57 13.89 -11 3.11 -0.28 3.1 -0.29 3.1 8.22 0 5.27 0.33 9 0.93 10.47 1.1 2.7 5.27 6.66 8.48 8 3 1.29 8.54 1.24 11.83 -0.11 2.46 -1.01 2.85 -0.99 5.7 0.34 3.98 1.86 8.17 1.83 12.48 -0.08 3.35 -1.48 3.53 -1.49 5.53 -0.28 3.4 2.07 9.33 2.26 13.46 0.43 3.3 -1.46 3.66 -1.49 5.63 -0.44 3.13 1.66 8.78 1.42 12.86 -0.57 6.87 -3.33 8.62 -7 8.62 -18.1 0 -5.55 0.24 -7.85 0.86 -8.1 0.47 -0.18 2.31 0.05 4.09 0.51 5.55 1.46 10.55 6.37 12.62 12.4 1.6 4.65 1.57 114.5 -0.02 119.4 -1.44 4.34 -5.21 8.71 -9.52 11.1 l -3.54 1.92 l -45.86 0.14 c -35.49 0.11 -46.6 -0.06 -49.1 -0.77 z m 15.69 -127.6 c -0.86 -1.27 -1.07 -3.79 -1.07 -12.8 0 -11 0.03 -11.25 1.74 -13 1.86 -1.92 3.69 -1.83 6 0.27 1.06 0.96 1.21 2.54 1.21 12.93 0 10.57 -0.14 11.96 -1.26 13 -1.85 1.72 -5.33 1.51 -6.63 -0.4 z m 19.2 0.09 c -1.14 -1.29 -1.34 -2.86 -1.54 -11.78 -0.25 -11.24 0.33 -14.1 3.09 -15.1 2.1 -0.82 4.67 0.37 5.68 2.64 0.44 1 0.77 5.9 0.77 11.67 0 11.99 -0.72 14.1 -4.89 14.1 -0.98 0.01 -2.38 -0.66 -3.1 -1.48 z m 18.73 -0.09 c -0.86 -1.27 -1.07 -3.79 -1.07 -12.8 0 -11 0.03 -11.25 1.74 -13 1.86 -1.92 3.69 -1.83 6 0.27 1.06 0.96 1.21 2.54 1.21 12.93 0 10.57 -0.14 11.96 -1.26 13 -1.85 1.72 -5.33 1.51 -6.63 -0.4 z m 19.2 0.09 c -1.14 -1.29 -1.34 -2.86 -1.54 -11.78 -0.25 -11.24 0.33 -14.1 3.09 -15.1 2.1 -0.82 4.67 0.37 5.68 2.64 0.44 1 0.77 5.9 0.77 11.67 0 11.99 -0.72 14.1 -4.89 14.1 -0.98 0.01 -2.38 -0.66 -3.1 -1.48 z" style="fill:#fff"/></svg>