<svg xmlns="http://www.w3.org/2000/svg" viewBox="0 0 256 256"><path d="m 81.5 251.3 c 360.6 44.5 61.71 -466.7 -70.7 -139.7 c -20.31 57.4 -2.68 122.1 70.7 139.7" style="fill:#ff8c00"/><g style="fill:#fff"><path d="m -3.58 247.4 c -0.29 -0.76 -0.39 -3.79 -0.22 -6.75 l 0.31 -5.38 h 110.5 h 110.5 v 6.5 v 6.5 l -110.3 0.25 c -92.8 0.21 -110.4 0.04 -110.8 -1.12 z m 93.9 -49.5 c -22.1 -6.5 -38.1 -22.95 -43.86 -45.1 -1.27 -4.88 -1.58 -9.12 -1.23 -17 0.75 -16.75 6.74 -30.45 21.87 -50 8.46 -10.95 37.69 -41 39.88 -41 2.19 0 31.41 30.1 39.88 41 9 11.69 14.47 20.93 18.44 31.39 2.87 7.54 3.1 9.1 3.14 21.1 0.04 11.6 -0.24 13.77 -2.58 20.2 -6.65 18.2 -20.69 32.1 -38.88 38.42 -8.99 3.14 -27.71 3.68 -36.65 1.05 z" transform="matrix(0.701 0 0 0.773 53.4 13.63)" style="fill:#fff"/></g></svg>