<svg xmlns="http://www.w3.org/2000/svg" viewBox="0 0 256 256"><path d="m 138.8 254.2 c -152.1 14.54 -193 -230.7 -36.86 -249.7 c 143.6 -23.6 217.5 198.7 74.86 243.1 -12.1 4.87 -25.3 4.78 -38 6.59" style="fill:#ff8c00"/><path d="m 72.6 208.9 c -3.66 -1.4 -7.86 -5.89 -8.88 -9.49 -1.14 -4 -1.14 -133.1 0 -137.1 0.44 -1.55 1.98 -4.08 3.42 -5.62 4.96 -5.28 2.92 -5.11 60.1 -4.89 l 50.98 0.2 l 3.46 1.95 c 1.91 1.07 4.73 3.47 6.27 5.34 4.97 6 4.87 4.75 4.66 58.69 -0.18 45.89 -0.24 47.94 -1.52 50.68 -1.86 4 -5.94 8.12 -10.1 10.16 l -3.49 1.73 h -48.68 c -54.3 0.01 -51.66 -0.23 -54.93 4.97 -1.95 3.11 -1.95 6.4 0 9.51 3.29 5.25 0.54 5 55.3 4.8 l 49 -0.19 l 3.04 -1.68 c 3.75 -2.08 7.08 -5.39 8.95 -8.91 1.63 -3.08 2.55 -2.93 2.55 0.42 0 7.1 -4.6 14.67 -11.1 18.31 l -3.46 1.95 l -51.4 0.13 c -44.2 0.12 -51.78 -0.02 -54.2 -0.95 z m 52.5 -69.77 c 10.97 -11.69 20.2 -21.25 20.44 -21.25 0.28 0 0.58 9.48 0.68 21.1 l 0.18 21.1 l 9.3 0.2 l 9.3 0.2 l -0.17 -44.5 l -0.17 -44.5 l -8.36 -0.2 c -5.58 -0.14 -8.67 0.07 -9.3 0.63 -0.76 0.67 -0.94 4.75 -0.94 21.63 0 11.44 -0.22 20.8 -0.49 20.8 -0.27 0 -9.66 -9.75 -20.87 -21.67 c -18.35 -19.51 -20.57 -21.64 -22.33 -21.43 l -1.95 0.24 l -0.17 44.5 l -0.17 44.5 h 2.55 c 2.43 0 3.41 -0.92 22.48 -21.25 z" style="fill:#fff"/></svg>