<svg xmlns="http://www.w3.org/2000/svg" viewBox="0 0 256 256"><path d="m 24.46 60.1 c -139.3 254.4 369.5 266.4 194.4 4.15 c -46.2 -67.5 -156.9 -100.4 -194.4 -4.15" style="fill:#ff8c00"/><path d="m 170.1 217.3 c -20.45 -17.63 -27.64 -16.19 -63.5 -59.4 l -38.48 -46.4 l -15.17 -22.46 c -17.83 -26.39 -11.13 -16.81 -10 -16.81 c 0.49 0 5.38 -0.03 17.74 9.59 l 22.49 17.48 l 40.87 44.3 l 40.87 44.3 l 14.1 23.2 c 1.76 9.28 10.39 23.1 6.6 18 -0.38 -0.01 -3.63 -1.64 -15.51 -11.88 z m 35.4 -11.21 c -16.35 -44.3 -21.9 -55.82 -39.46 -82 -17.2 -25.65 -31.2 -37.2 -74.6 -61.4 -7.51 -4.19 -10.1 -6.36 -7.57 -6.36 c 1.97 0 14.76 2.9 22.35 5.07 27.2 7.78 51.59 20.31 64.71 33.3 9.1 8.97 21.45 29.42 26.3 43.5 4.48 13 8.67 38.82 10.14 62.4 0.32 5.15 0.35 9.37 0.06 9.37 -0.28 0 -1.15 -1.72 -1.93 -3.82 z" style="fill:#fff"/></svg>