<svg xmlns="http://www.w3.org/2000/svg" viewBox="0 0 256 256"><path d="m 231.5 60.1 c 139.3 254.4 -369.5 266.4 -194.4 4.15 46.2 -67.5 156.9 -100.4 194.4 -4.15" style="fill:#ff8c00"/><path d="m 78.8 214.7 c -0.62 -0.23 -2.22 -1.39 -3.56 -2.58 -3.89 -3.44 -5.51 -9.29 -5.92 -21.38 -0.4 -11.65 -0.13 -13.19 7.63 -43.3 6.95 -26.96 8.1 -33.3 8.15 -45.3 c 0.04 -8.64 -0.2 -10.85 -1.64 -15.1 -2.05 -6.09 -5.27 -10.25 -10.45 -13.44 -2.3 -1.42 -3.9 -2.92 -3.9 -3.66 c 0 -1.1 0.71 -1.25 5.64 -1.25 10.94 0 21.72 2.4 27.42 6.09 1.58 1.03 3.85 3.45 5 5.39 1.92 3.12 2.16 4.19 2.17 9.47 0.01 8.42 -1 11.7 -12.18 39.2 -9.1 22.42 -11.67 32.45 -11.67 45.64 0 16.1 4.7 25.82 11.71 24.2 1.15 -0.26 4.35 -2.63 7.12 -5.25 2.77 -2.63 5.2 -4.78 5.41 -4.78 0.2 0 0.37 1.81 0.37 4 v 4 l -7.3 6.63 c -4.42 4 -9.1 7.52 -11.86 8.9 -4.45 2.22 -9.92 3.34 -12.17 2.51 z m 48.98 -5.21 c -2.92 -1.59 -2.88 -3.71 0.17 -9.49 4.56 -8.65 5.6 -12.29 5.63 -19.73 0.02 -5.1 -0.37 -7.7 -1.63 -11.16 -2.28 -6.26 -2.77 -10.87 -1.7 -15.75 2.7 -12.21 12.48 -21.3 25.2 -23.4 12.68 -2.09 26.61 4.82 32.39 16.1 1.93 3.77 2.41 5.66 2.67 10.63 0.38 7.23 -0.97 11.99 -5.08 17.92 -4.3 6.2 -13.76 15.1 -20.55 19.33 -5.59 3.48 -33.2 16.33 -35 16.31 -0.41 0 -1.35 -0.34 -2.09 -0.74 z m 50.94 -85.5 c -9.22 -2.5 -17 -4.91 -17.32 -5.36 -0.78 -1.15 -0.7 -50.1 0.09 -51.3 0.5 -0.74 1.85 -0.84 6.11 -0.44 12.39 1.16 19.1 4.09 25.78 11.27 8.62 9.24 11.18 11.34 14.47 11.83 1.68 0.25 3.21 0.82 3.39 1.27 0.44 1.07 -14 36.86 -15 37.1 -0.41 0.1 -8.29 -1.87 -17.51 -4.36 z" style="fill:#fff"/></svg>