<svg xmlns="http://www.w3.org/2000/svg" viewBox="0 0 256 256"><path d="m 226.4 46.5 c 62.3 95.2 12 182 -58.5 202.6 -94.9 27.68 -223.7 -45.1 -138.8 -195 33.74 -59.6 152.9 -75.4 197.3 -7.55" style="fill:#fc8600"/><path d="m 52.2 213.1 c -0.29 -0.3 6.14 -7.53 14.29 -16.1 l 14.81 -15.51 h 10.63 h 10.63 l 11.48 9.89 c 14.42 12.43 14.1 12.22 18.59 12.22 4.49 0 4.18 0.2 18.59 -12.22 l 11.48 -9.89 h 20.2 c 11.1 0 20.2 0.27 20.2 0.59 0 0.33 -6.66 7.56 -14.8 16.1 l -14.8 15.47 h -60.3 c -33.2 0 -60.6 -0.25 -60.88 -0.55 z m 65.1 -34.52 c -12.34 -10.81 -15 -13.52 -15.23 -15.38 -0.14 -1.29 0.18 -2.55 0.75 -2.93 0.55 -0.36 5.13 -0.67 10.19 -0.67 l 9.19 -0.01 l -0.2 -15.87 l -0.2 -15.87 h -14.98 h -14.98 l -0.37 10.19 l -0.37 10.19 h -2.62 c -2.48 0 -3.24 -0.78 -14.79 -15.22 -6.7 -8.37 -12.17 -15.69 -12.17 -16.27 0 -0.58 5.63 -8.11 12.51 -16.74 c 11.69 -14.67 12.66 -15.68 14.79 -15.46 l 2.28 0.23 l 0.21 10.37 c 0.2 9.98 0.27 10.39 1.87 10.8 0.91 0.24 7.73 0.33 15.1 0.21 l 13.48 -0.22 v -16.1 v -16.1 l -9.74 -0.39 l -9.74 -0.39 l -0.22 -2.39 c -0.21 -2.23 0.76 -3.24 14.78 -15.47 8.25 -7.2 15.35 -13.1 15.78 -13.1 0.43 0 7.53 5.89 15.78 13.1 14 12.23 14.99 13.24 14.78 15.47 l -0.22 2.39 l -9.74 0.39 l -9.74 0.39 v 16.1 v 16.1 l 13.48 0.22 c 7.41 0.12 14.23 0.03 15.1 -0.21 1.6 -0.41 1.67 -0.82 1.87 -10.8 l 0.21 -10.37 l 2.34 -0.24 c 2.21 -0.22 3.04 0.65 14.79 15.4 6.85 8.6 12.45 16.1 12.44 16.69 0 0.58 -5.59 8 -12.41 16.58 -11.77 14.74 -12.52 15.51 -14.78 15.28 l -2.38 -0.24 l -0.37 -10.19 l -0.37 -10.19 h -14.98 h -14.98 l -0.2 15.87 l -0.2 15.87 l 9.19 0.01 c 5.1 0.01 9.64 0.31 10.19 0.67 0.57 0.38 0.89 1.64 0.75 2.93 -0.2 1.87 -2.88 4.57 -15.23 15.38 -8.24 7.21 -15.1 13.1 -15.35 13.1 -0.21 0 -7.12 -5.9 -15.35 -13.1 z" style="fill:#fff"/></svg>