<svg xmlns="http://www.w3.org/2000/svg" viewBox="0 0 256 256"><path d="m 210.7 39.1 c 200 263.3 -350.5 300.6 -173.8 31.91 c 40.3 -61.3 120.8 -101.6 173.8 -31.91" style="fill:#ff8c00"/><path d="m 132.3 69.84 c 17.1 0 30.83 14.59 30.83 32.65 -0.04 1.94 -0.16 4.71 -0.33 7.1 2.92 1.39 3.14 7.85 0.67 14.48 -1 2.63 -2.25 4.63 -3.63 6.29 -0.34 1.88 -0.23 2.71 -0.65 4.83 -1.14 3.9 -5.66 11.52 -9.83 17.81 -0.42 4.84 -0.83 9.71 0 15.21 12 11.29 43 16.1 42.96 27.83 l 0.65 4.46 h -121.3 l 0.65 -4.46 c 0.04 -10 31.1 -16.1 42.96 -27.83 0.48 -4.46 0.58 -8.94 0.33 -13.36 -3.79 -6.64 -8.89 -15.33 -10.16 -19.67 -0.46 -2.19 -0.63 -3.69 -0.98 -5.56 -1.14 -1.56 -2.13 -3.33 -2.96 -5.56 -2.36 -6.29 -2.21 -12.31 0.33 -14.1 -0.14 -2.54 -0.27 -5.25 -0.33 -7.44 0 -18.1 13.73 -32.65 30.83 -32.65" style="fill:#fff;fill-rule:evenodd"/><path d="m 45.82 171.6 c -11.1 -6.14 -20.1 -11.48 -20.1 -11.86 0 -0.98 38.67 -21.81 42.5 -22.91 2.59 -0.71 3.23 0.6 3.23 6.52 v 7.42 h 52.3 c 0 5.89 0 11.79 0 17.71 h -52.3 v 7.25 c 0 4.75 -0.92 7.21 -2.71 7.14 -1.5 -0.04 -11.79 -5.1 -22.88 -11.27" style="fill:#ff4500"/></svg>