<svg xmlns="http://www.w3.org/2000/svg" viewBox="0 0 256 256"><path d="m 45.81 39.1 c -200 263.3 350.5 300.6 173.8 31.91 -40.3 -61.3 -120.8 -101.6 -173.8 -31.91" style="fill:#ff8c00"/><path d="m 121.5 66.1 c -17.1 0 -30.83 14.59 -30.83 32.65 0.04 1.94 0.16 4.71 0.33 7.1 -2.92 1.39 -3.14 7.85 -0.67 14.48 1 2.63 2.25 4.63 3.63 6.29 0.34 1.88 0.23 2.71 0.65 4.83 1.14 3.9 5.66 11.52 9.83 17.81 0.42 4.84 0.83 9.71 0 15.21 -12 11.29 -43 16.1 -42.96 27.83 l -0.65 4.46 h 121.3 l -0.65 -4.46 c -0.04 -10 -31.1 -16.1 -42.96 -27.83 -0.48 -4.46 -0.58 -8.94 -0.33 -13.36 3.79 -6.64 8.89 -15.33 10.16 -19.67 0.46 -2.19 0.63 -3.69 0.98 -5.56 1.14 -1.56 2.13 -3.33 2.96 -5.56 2.36 -6.29 2.21 -12.31 -0.33 -14.1 0.14 -2.54 0.27 -5.25 0.33 -7.44 0 -18.1 -13.73 -32.65 -30.83 -32.65" style="fill:#fff;fill-rule:evenodd"/><g transform="matrix(-0.712 0.703 0.703 0.712 113.8 0.08)" style="fill:#ff4500;stroke:#ff4500;stroke-linecap:round;stroke-width:1.48"><path d="m -551.8 780.8 h 7.19 c 2.41 -0.01 4.38 1.83 4.37 4.08 v 73.7 c 0 2.26 -1.96 4.09 -4.38 4.08 h -7.18 c -2.43 0 -4.38 -1.83 -4.38 -4.09 v -73.7 c 0.01 -2.25 1.97 -4.07 4.38 -4.08" transform="matrix(-0.704 -0.699 -0.699 0.699 255.1 -784.5)"/><path d="m 818.1 507.3 h 7.19 c 2.41 0 4.38 1.81 4.37 4.07 l 0.02 73.7 c -0.02 2.26 -1.98 4.08 -4.39 4.08 h -7.19 c -2.41 0 -4.37 -1.83 -4.36 -4.07 v -73.7 c 0.01 -2.25 1.95 -4.08 4.37 -4.07" transform="matrix(-0.699 0.699 0.704 0.699 255.1 -784.5)"/></g></svg>