<svg xmlns="http://www.w3.org/2000/svg" viewBox="0 0 256 256"><path d="m 251.3 99.3 c -49.3 -237 -388.9 17.43 -184.9 137.9 79.2 51.64 210.3 -16 184.9 -137.9" style="fill:#ffa500"/><path d="m 117 58.73 c -20.97 0 -37.86 14.45 -37.86 32.4 v 23.2 h -8.65 v 73.4 h 97.5 v -73.4 h -8 v -23.2 c 0 -17.95 -16.88 -32.4 -37.86 -32.4 m -3.78 14.19 h 3.12 c 12.74 0 22.97 10.83 22.99 24.29 l 0.03 17.1 h -49.1 l -0.03 -17.1 c -0.03 -13.46 10.26 -24.29 22.99 -24.29 m 2.13 60.4 c 5.99 0.19 10.72 4.4 10.73 9.52 0 3.41 -2.13 6.55 -5.58 8.26 l 3.05 22.72 c -5.61 1.59 -11.23 1.33 -16.57 -0.39 l 2.22 -22.41 c -3.36 -1.72 -5.42 -4.83 -5.43 -8.18 0 -5 4.57 -9.21 10.44 -9.52 h 1.13" style="fill:#fff;fill-rule:evenodd"/><path d="m 133.2 216.2 c -0.84 -0.38 -0.81 -2.67 0.15 -10.37 l 1.23 -9.88 l 27.96 -35.51 c 44.1 -56 45.8 -58.1 47.3 -57.5 2.7 0.97 12.17 7.57 13.98 9.75 l 1.89 2.27 l -12.27 16.1 c -12.23 16 -49.3 62.92 -57.5 72.7 l -4.31 5.15 l -8.71 3.92 c -5.78 2.6 -9.1 3.75 -9.78 3.43 z" style="fill:#ff4500"/><path transform="matrix(0.566 -0.824 0.753 0.658 0 0)" d="m 39.7 231.4 h 3.54 v 19 h -3.54 z" style="fill:#fff;stroke:#fff;stroke-linecap:round;stroke-width:3.2"/></svg>