<svg xmlns="http://www.w3.org/2000/svg" viewBox="0 0 256 256"><path d="m 130.4 254.6 c -26.4 -2.05 -57.3 -14.66 -78.8 -32.2 c -26.2 -21.31 -45.4 -53.99 -50.5 -86.2 c -6.14 -42.55 18.58 -88.3 46.5 -110 c 14 -10.57 32.58 -18.98 49.99 -22.66 c 45.3 -9.58 92.6 8.56 125 47.96 c 19.42 23.62 29.47 47.4 31.93 75.6 c 2.94 33.77 -10.42 69.98 -34.8 94.4 c -27.74 22.99 -56.3 35.46 -89.2 33.1" style="fill:#ff8c00"/><path d="m 198 157.5 c -6.76 15 -17.97 27.2 -32.4 35.2 -36.48 20.29 -81.9 7.34 -102.1 -29.1 -7.91 -14.23 -10.83 -28.98 -9 -45.76 1.92 -18.1 9.21 -27.98 22.56 -30.71 3.87 -0.79 5.46 -0.66 10.96 0.89 5.89 1.66 6.77 2.15 10.46 5.74 7.11 6.93 8.94 14.17 6.61 26.1 -2.28 11.68 0.17 19.95 7.85 26.54 4.29 3.68 14.25 6.52 19.84 5.66 5.67 -0.88 11.24 -3.88 15.1 -8.12 2.84 -3.15 3.59 -4.61 5.15 -10.1 1.56 -5.48 1.7 -7.13 0.96 -11.26 -0.82 -4.54 -4.73 -12.26 -8.21 -16.24 28.83 0.36 24.4 -23.31 12.68 -42.68 6.78 -4.13 27.45 14.42 31.79 19.87 15.22 19.1 18.54 50.3 7.87 73.94 z" style="fill:#fff"/></svg>