<svg xmlns="http://www.w3.org/2000/svg" viewBox="0 0 256 256"><path d="m 130.4 254.6 c -26.4 -2.05 -57.3 -14.66 -78.8 -32.2 c -26.2 -21.31 -45.4 -53.99 -50.5 -86.2 c -6.14 -42.55 18.58 -88.3 46.5 -110 c 14 -10.57 32.58 -18.98 49.99 -22.66 c 45.3 -9.58 92.6 8.56 125 47.96 c 19.42 23.62 29.47 47.4 31.93 75.6 c 2.94 33.77 -10.42 69.98 -34.8 94.4 c -27.74 22.99 -56.3 35.46 -89.2 33.1" style="fill:#ff8c00"/><path d="m 58.5 99.8 c 6.59 -15.1 17.66 -27.39 31.98 -35.58 36.2 -20.71 81.8 -8.29 102.5 27.95 c 8.1 14.1 11.16 28.86 9.57 45.65 -1.71 18.1 -8.88 28.1 -22.2 30.97 -3.86 0.83 -5.45 0.72 -10.97 -0.77 -5.91 -1.59 -6.79 -2.07 -10.52 -5.62 -7.19 -6.85 -9.1 -14.1 -6.91 -26.1 2.14 -11.71 -0.4 -19.95 -8.16 -26.45 -4.33 -3.63 -14.33 -6.36 -19.9 -5.43 -5.65 0.94 -11.19 4 -14.97 8.29 -2.8 3.18 -3.53 4.65 -5 10.16 -1.5 5.5 -1.62 7.15 -0.83 11.27 0.87 4.53 4.87 12.21 8.4 16.1 c -28.83 -0.03 -24.1 23.59 -12.19 42.82 -6.73 4.21 -27.61 -14.1 -32 -19.5 -15.44 -18.9 -19.1 -50.1 -8.73 -73.85 z" style="fill:#fff"/></svg>