<svg xmlns="http://www.w3.org/2000/svg" viewBox="0 0 256 256"><path d="m 130.4 254.6 c -26.4 -2.05 -57.3 -14.66 -78.8 -32.2 c -26.2 -21.31 -45.4 -53.99 -50.5 -86.2 c -6.14 -42.55 18.58 -88.3 46.5 -110 c 14 -10.57 32.58 -18.98 49.99 -22.66 c 45.3 -9.58 92.6 8.56 125 47.96 c 19.42 23.62 29.47 47.4 31.93 75.6 c 2.94 33.77 -10.42 69.98 -34.8 94.4 c -27.74 22.99 -56.3 35.46 -89.2 33.1" style="fill:#ff8c00"/><path d="m 178.4 72.4 c 12 11.22 19.99 25.74 22.97 41.97 7.53 41.1 -19.27 79.89 -60.3 87.4 -16 2.94 -30.92 0.97 -46.2 -6.1 -16.5 -7.61 -23.56 -17.69 -21.86 -31.2 0.49 -3.92 1.13 -5.38 4.36 -10.1 3.46 -5 4.2 -5.72 8.79 -8.1 8.84 -4.52 16.28 -3.93 26.88 2.12 10.34 5.9 18.96 6.23 27.66 1.07 4.86 -2.88 10.75 -11.41 11.72 -16.98 0.99 -5.65 -0.07 -11.89 -2.86 -16.87 -2.07 -3.7 -3.22 -4.87 -7.92 -8.12 -4.69 -3.24 -6.21 -3.9 -10.36 -4.52 -4.56 -0.68 -13.1 0.55 -18 2.58 c 9.58 -27.2 -14.26 -30.58 -36.4 -25.69 -1.74 -7.74 22.46 -21.38 29 -23.75 c 22.95 -8.3 53.6 -1.45 72.6 16.24 z" style="fill:#fff"/></svg>