<svg xmlns="http://www.w3.org/2000/svg" viewBox="0 0 256 256"><path d="m 130.4 254.6 c -26.4 -2.05 -57.3 -14.66 -78.8 -32.2 c -26.2 -21.31 -45.4 -53.99 -50.5 -86.2 c -6.14 -42.55 18.58 -88.3 46.5 -110 c 14 -10.57 32.58 -18.98 49.99 -22.66 c 45.3 -9.58 92.6 8.56 125 47.96 c 19.42 23.62 29.47 47.4 31.93 75.6 c 2.94 33.77 -10.42 69.98 -34.8 94.4 c -27.74 22.99 -56.3 35.46 -89.2 33.1" style="fill:#ff8c00"/><path d="m 78.4 185 c -12.25 -10.99 -20.47 -25.36 -23.75 -41.53 -8.29 -40.91 17.78 -80.2 58.69 -88.5 15.95 -3.23 30.9 -1.55 46.3 5.23 16.64 7.3 23.88 17.25 22.44 30.8 -0.42 3.93 -1.02 5.4 -4.17 10.17 -3.37 5.11 -4.1 5.8 -8.64 8.23 -8.76 4.68 -16.21 4.23 -26.91 -1.62 -10.44 -5.71 -19.1 -5.88 -27.67 -0.56 -4.8 2.97 -10.53 11.61 -11.4 17.19 -0.88 5.66 0.29 11.88 3.18 16.81 2.14 3.66 3.31 4.81 8.1 7.97 4.75 3.15 6.28 3.78 10.44 4.32 4.57 0.59 13.1 -0.79 17.96 -2.91 -9.1 27.37 14.83 30.3 36.84 25 1.89 7.71 -22.1 21.79 -28.56 24.28 -22.79 8.72 -53.5 2.44 -72.86 -14.89 z" style="fill:#fff"/></svg>