<svg xmlns="http://www.w3.org/2000/svg" viewBox="0 0 256 256"><path d="m 130.4 254.6 c -26.4 -2.05 -57.3 -14.66 -78.8 -32.2 c -26.2 -21.31 -45.4 -53.99 -50.5 -86.2 c -6.14 -42.55 18.58 -88.3 46.5 -110 c 14 -10.57 32.58 -18.98 49.99 -22.66 c 45.3 -9.58 92.6 8.56 125 47.96 c 19.42 23.62 29.47 47.4 31.93 75.6 c 2.94 33.77 -10.42 69.98 -34.8 94.4 c -27.74 22.99 -56.3 35.46 -89.2 33.1" style="fill:#ff8c00"/><path d="m 91.3 62.71 c 14.51 -7.77 30.82 -10.59 47.1 -8.16 41.3 6.16 69.4 44.1 63.2 85.4 -2.4 16.1 -9.1 29.58 -20.72 41.78 -12.54 13.15 -24.36 16.57 -36.61 10.59 -3.55 -1.73 -4.73 -2.81 -8.14 -7.39 -3.65 -4.91 -4.06 -5.83 -4.79 -10.93 -1.41 -9.83 1.55 -16.68 10.7 -24.75 8.93 -7.87 12 -15.92 9.96 -25.83 -1.16 -5.53 -7.32 -13.86 -12.27 -16.58 -5 -2.76 -11.27 -3.77 -16.89 -2.75 -4.17 0.76 -5.65 1.47 -10.24 4.87 -4.58 3.39 -5.7 4.62 -7.62 8.34 -2.12 4.1 -3.73 12.6 -3.39 17.88 c -22.63 -17.86 -33.55 3.6 -36.1 26.1 -7.89 -0.86 -12.97 -28.2 -13.1 -35.1 -0.43 -24.4 15.96 -51.2 38.84 -63.4 z" style="fill:#fff"/></svg>