<svg xmlns="http://www.w3.org/2000/svg" viewBox="0 0 256 256"><g style="fill:#fff"><g style="color:#000"><path d="m 67.5 11.76 c -120.9 50.4 -66.99 245.5 64.75 244.2 119.7 1.95 165.1 -153.2 79.8 -221.2 -36.88 -34 -98 -45.89 -144.6 -23.1 z" transform="matrix(1 0 0 -1 0 256)" style="fill:#ff8c00"/></g><g transform="matrix(0.707 0 0 0.707 30.57 30.38)"><path d="m 245.3 201.9 c -9.12 -7.48 -24.9 -14.31 -26.1 -18.25 -0.12 -9.39 0.43 -9.57 1.35 -13.64 4.72 0.18 7.53 0.37 20.1 3.38 13.43 3.76 14.54 -2.51 12.4 17.67 -3 9.94 0.1 15.71 -7.71 10.84 z" style="fill:#fff"/><path d="m 155.1 105.6 c 0 8.75 -13.62 15.85 -30.42 15.85 -16.8 0 -30.42 -7.1 -30.42 -15.85 0 -8.75 13.62 -15.85 30.42 -15.85 16.8 0 30.42 7.1 30.42 15.85 z" transform="matrix(1.225 0 0 1.276 -27.62 -40.1)" style="fill:#ffe4c4"/><g style="fill:#fff"><path d="m 111.4 206.5 c -17.1 -3.99 -24.86 -6.73 -31.95 -11.25 -12.51 -7.98 -18.61 -15 -22.57 -25.99 l -3.42 -9.5 l 3.25 -16.88 c 1.79 -9.28 5.29 -26.2 7.77 -37.57 1.98 -12.75 2.94 -18.98 10.96 -27.58 10.47 -11.22 26 -18.1 44.94 -19.86 14.93 -0.2 25.89 3.03 39.89 10.2 6.47 3.37 10.22 4.38 18.26 4.89 8.25 0.53 12.91 -0.97 12.94 0.8 0.38 23.58 -0.01 54.61 2.68 68.1 1.74 8.71 2.81 17.1 2.39 18.68 -2.15 7.94 -8.42 20.1 -13.1 25.32 -13.59 15.32 -50.1 25.78 -72.1 20.65 z m 39.7 -91.8 c 8.62 -3.63 16.1 -10.56 17.92 -16.7 2.73 -9 -4.68 -19.21 -17.98 -24.76 -8.96 -3.74 -29.82 -5.09 -41.2 -2.67 -35.71 7.62 -37.47 36.71 -2.8 46.3 14.69 1.68 31.1 3.18 44 -2.17 z"/><path d="m 50.64 153.4 c -1.49 -0.94 -2.46 -4 -3.73 -11.94 -0.58 -25.88 7.64 -30.44 27.58 -41.2 -1.95 4.59 -2.81 9.3 -3.57 14.18 -15.78 8.25 -17.9 12 -18.1 25.96 -0.12 10.41 -0.72 13.95 -2.21 13 z" transform="matrix(1.431 0 0 1.565 -42.8 -60.4)"/><path d="m 220.8 165.2 c -4.11 -25.1 -6.33 -33.57 -25.2 -43.1 1.2 -9.46 0.04 -14.96 -0.88 -28.6 26 5.87 52.91 28.68 56.63 64.4 0.26 4.51 4.07 12.76 -0.05 13.67 -14.4 -2.95 -17.71 -4.46 -30.56 -6.32 z"/></g></g></g></svg>