<svg xmlns="http://www.w3.org/2000/svg" viewBox="0 0 256 256"><path d="m 60.2 27.35 c 130.9 -91.7 263.6 77.6 156.9 185.6 c -100.5 101.7 -256.7 7.42 -207.9 -119.2 c 10.19 -26.41 26.91 -49.59 50.95 -66.4" style="fill:#ff8c00"/><g style="fill:#fff"><path d="m 122.8 204 c -0.58 -0.08 -5.81 2.15 -7.53 1.91 c -28.89 -4.14 -52.3 -30.64 -59.4 -58.7 -7.1 -28 4.37 -60.68 29.8 -78.6 6.71 -4.95 35.93 -15.23 43.4 -10.17 c 8.69 26.1 5.21 50.2 4.66 76.6 27.2 2.16 44.69 -2.23 67.6 -0.03 l 0.89 7.36 c 2.55 21.1 -21.39 45.2 -40.79 56.88 -12.51 5.75 -24.67 6.58 -38.61 4.82 z" style="opacity:0.5"/><path d="m 116.9 216.5 c -28.43 -3.62 -49.92 -19.2 -64.1 -46.4 -10.31 -24.84 -12.37 -55.67 -1.4 -75.7 14.21 -25.66 40 -42.65 68.85 -45.3 c 12.75 -1.16 20.1 -1.39 21.2 1.66 0.8 2.21 0.87 18.38 1.59 37.52 l 1.39 36.85 c 22.2 1.93 42.74 0.51 66.2 -0.06 l 0.96 15.96 c -13.26 45.4 -33.64 74.5 -94.7 75.4 z m 39.2 -17 c 21.1 -9.57 41.85 -36.84 44.62 -61.77 -16.36 -2.77 -38.96 0.12 -70.2 0.23 0.9 -22.31 2.51 -79.7 -6.81 -79.7 -9.97 -2.5 -31.65 6.52 -45.4 18.88 -24.3 21.86 -31.52 54.87 -18.25 82.9 18.5 36.3 59.1 53.94 96 39.48 z"/></g></svg>