<svg xmlns="http://www.w3.org/2000/svg" viewBox="0 0 256 256"><g style="fill:#ff8c00"><path d="m 212.19923,212.31347 c -104.9,129.9 -294.100004,-60.3 -173.200004,-175.200005 104.100004,-115.2 306.000004,64.600005 173.200004,175.200005"/><path d="M 59.3807,64.2245 H191.391 V191.619 H59.3807 z" style="stroke-dasharray:8.199 16.398;stroke-miterlimit:1.3;stroke:#fff;stroke-linecap:round;stroke-width:8.2"/></g><g style="fill:#fff"><path d="m 162.3187,127.42189 c -2.65915,-0.75439 -5.0165,-2.29695 -7.3316,-4.79754 -7.79019,-8.41433 -9.41708,-24.080931 -3.7234,-35.855506 1.94266,-4.017417 5.48777,-7.754071 8.96677,-9.451244 2.08212,-1.015726 2.68371,-1.125779 6.15391,-1.125779 3.43643,0 4.08047,0.115048 6.04528,1.07989 1.2095,0.593939 2.95766,1.817135 3.8848,2.718214 1.73794,1.689087 4.50058,5.507524 4.48343,6.196856 -0.005,0.214364 -1.51977,2.008331 -3.36542,3.986593 l -3.35571,3.596835 -1.25325,-1.67374 c -1.78817,-2.388146 -3.60114,-3.505526 -6.01218,-3.705468 -3.59883,-0.298442 -6.23668,1.802093 -8.10599,6.454838 -0.91795,2.28482 -1.25153,8.921321 -0.59649,11.867251 1.57095,7.06512 6.5848,10.50554 11.5604,7.93256 1.03527,-0.53536 3.41724,-2.98577 4.14706,-4.26622 0.37395,-0.65607 0.74792,-0.39415 3.89478,2.7278 1.91462,1.89945 3.48112,3.59121 3.48112,3.75946 0,0.76556 -3.26742,5.3647 -4.84329,6.81728 -3.70253,3.41288 -9.61941,4.98925 -14.03022,3.73792 l 0,0 z"/><path d="m 68.507088,126.48076 c 0.0045,-0.15866 3.33972,-11.45203 7.411523,-25.09639 l 7.403279,-24.80793 4.58467,0 4.584671,0 7.210842,24.231 c 3.965967,13.32705 7.312707,24.62548 7.437217,25.10762 l 0.22636,0.87663 -5.06881,-0.10739 -5.068815,-0.10739 -1.20391,-4.23081 -1.203909,-4.23081 -7.080434,0 -7.080433,0 -1.165836,4.32697 -1.165837,4.32696 -4.914412,0 c -2.702927,0 -4.910701,-0.12981 -4.906166,-0.28846 z m 23.453513,-19.14823 c 0,-0.11315 -0.865393,-3.32602 -1.923095,-7.13971 -1.057702,-3.813691 -1.923095,-7.044211 -1.923095,-7.178951 0,-0.13473 -0.157798,-0.0805 -0.350661,0.12042 -0.192864,0.20096 -1.164603,3.30191 -2.15942,6.891001 -0.994818,3.58909 -1.894009,6.74777 -1.998203,7.0193 -0.14719,0.38357 0.763393,0.49368 4.082515,0.49368 2.349577,0 4.271959,-0.0926 4.271959,-0.20574 z"/><path d="m 112.34541,101.37404 0,-25.053299 10.67317,0.136625 c 9.15411,0.117179 10.8892,0.232867 12.19095,0.812833 2.40021,1.069356 3.98241,2.468288 5.19708,4.595092 3.10971,5.444886 2.12869,13.450439 -2.0962,17.105979 l -1.5417,1.33393 0.96155,0.61579 c 2.15016,1.37697 4.52671,4.22782 5.23347,6.27794 1.05354,3.056 0.94708,8.63297 -0.22238,11.64977 -1.04684,2.70049 -3.4832,5.30469 -6.08942,6.50895 -1.70144,0.78619 -2.45945,0.84146 -13.05642,0.95216 l -11.2501,0.11752 0,-25.05329 z m 20.63985,13.00825 c 0.83649,-0.83738 1.07167,-1.48436 1.20386,-3.31194 0.15161,-2.09602 0.0745,-2.37185 -0.99941,-3.57476 l -1.16371,-1.30349 -5.22487,-0.12595 -5.22487,-0.12596 0,4.86734 0,4.86734 5.18472,-0.12596 c 5.04659,-0.1226 5.2124,-0.15367 6.22428,-1.16662 l 0,0 z m -3.72782,-17.97861 c 2.47105,-0.47674 3.47277,-1.77289 3.47277,-4.493514 0,-1.834248 -0.15316,-2.276704 -1.12427,-3.247814 -1.11313,-1.113131 -1.16839,-1.12427 -5.57697,-1.12427 l -4.45271,0 0,4.359015 c 0,2.397463 0.11539,4.474403 0.25642,4.615423 0.36152,0.36153 5.36704,0.28815 7.42476,-0.10884 l 0,0 z"/><path d="M 71.1538,144.846 H110 V156 H71.1538 z"/></g></svg>