<svg xmlns="http://www.w3.org/2000/svg" viewBox="0 0 256 256" xmlns:xlink="http://www.w3.org/1999/xlink"><defs><path id="0" d="m 178.5 129.8 a 42.89 42.89 0 1 1 -85.8 0 42.89 42.89 0 1 1 85.8 0 z"/></defs><path d="m 2.97 157.2 c 15.87 103.3 156.9 131 219.1 57.2 54.8 -54.8 41.2 -159.7 -26.1 -195.7 -77.2 -48.1 -189.7 11.37 -195.8 107.2 -0.63 10.49 0.26 21.1 2.77 31.3 z" style="fill:#ff8c00;color:#000"/><use transform="matrix(1.768 0 0 1.801 -111.4 -102.9)" xlink:href="#0" style="fill:#fff"/><use transform="matrix(1.336 0 0 1.341 -53.6 -43.1)" xlink:href="#0" style="fill:#ff8c00"/><use transform="matrix(1.019 0 0 1.033 -10.3 -2.88)" xlink:href="#0" style="fill:#fff"/></svg>