<svg xmlns="http://www.w3.org/2000/svg" viewBox="0 0 256 256"><path d="m 130.4 254.6 c -26.4 -2.05 -57.3 -14.66 -78.8 -32.2 c -26.2 -21.31 -45.4 -53.99 -50.5 -86.2 c -6.14 -42.55 18.58 -88.3 46.5 -110 c 14 -10.57 32.58 -18.98 49.99 -22.66 c 45.3 -9.58 92.6 8.56 125 47.96 c 19.42 23.62 29.47 47.4 31.93 75.6 c 2.94 33.77 -10.42 69.98 -34.8 94.4 c -27.74 22.99 -56.3 35.46 -89.2 33.1" style="fill:#228b22"/><path d="m 53.71 77.8 h 144.8 v 89.9 h -144.8 z" style="fill:#fff"/><path d="m 56.1 166.7 c 35.2 -17.61 135.5 -67.8 138.3 -69.2 l 3.85 -1.98 v 36 v 36 l -71.91 -0.02 l -71.91 -0.02 l 1.67 -0.83 z" style="fill:#32cd32"/><path d="m 133.3 223.4 l -12.39 -20.29 l -11.98 -20.54 l 23.77 -0.58 l 23.78 -0.11 l -11.38 20.88 z" transform="matrix(1.075 0 0 -0.981 13.68 396.2)" style="fill:#fff"/></svg>