<svg xmlns="http://www.w3.org/2000/svg" viewBox="0 0 256 256"><path d="m 120.7 254.6 c 26.46 -2.05 57.76 -14.66 79.8 -32.2 26.87 -21.31 47.1 -53.99 53.2 -86.2 c 7.47 -42.55 -15.81 -88.3 -43.1 -110 -13.67 -10.57 -31.99 -18.98 -49.3 -22.66 -45 -9.58 -92.9 8.56 -126.5 47.96 -20.2 23.62 -30.96 47.4 -34.3 75.6 -4 33.77 8.23 69.98 31.84 94.4 c 27 22.99 55.2 35.46 88.2 33.1" style="fill:#ff8c00"/><path d="m 67.4 147.9 v -42.61 c 39.76 -0.27 72.1 -10.5 116.3 -37.88 0.34 -0.12 0.43 8.53 0.43 42.51 v 42.66 c -39.74 29.76 -74.1 35.87 -116 37.73 l -0.77 0.2 v -42.61 z" style="fill:#fff"/></svg>