<svg xmlns="http://www.w3.org/2000/svg" viewBox="0 0 256 256"><path d="m 195.8 25.8 c -130.9 -88.7 -263.6 83.6 -156.9 189.2 100.5 99.4 256.7 1.55 207.9 -124 c -10.19 -26.2 -26.91 -48.97 -50.95 -65.2" style="fill:#ff8c00"/><g style="fill:#fff"><path d="m 120.7 204.1 c -0.62 -0.08 -6.3 2.06 -8.17 1.82 -31.3 -3.96 -56.76 -29.3 -64.4 -56.1 -7.67 -26.78 4.74 -57.95 32.3 -75.1 7.28 -4.73 38.96 -14.54 47 -9.72 9.43 24.96 5.65 47.98 5.1 73.1 29.46 2.06 48.5 -2.13 73.3 -0.03 l 0.96 7 c 2.77 20.2 -23.2 43.1 -44.2 54.3 -13.57 5.49 -26.75 6.29 -41.88 4.61 z" style="opacity:0.5"/><path d="m 117.8 209 c -30.1 -3.17 -52.79 -16.78 -67.79 -40.6 -10.9 -21.75 -13.1 -48.74 -1.48 -66.2 15 -22.47 42.3 -37.3 72.81 -39.63 c 13.48 -1.01 21.24 -1.22 22.41 1.45 0.85 1.93 0.92 16.1 1.68 32.85 l 1.47 32.3 c 23.48 1.69 45.2 0.45 70 -0.06 l 1.02 13.97 c -14 39.73 -35.58 65.2 -100.1 65.99 z m 41.4 -14.91 c 22.29 -8.38 44.3 -32.3 47.2 -54.1 -17.3 -2.42 -41.2 0.1 -74.2 0.2 0.95 -19.53 2.65 -69.81 -7.2 -69.78 c -10.54 -2.19 -33.47 5.71 -47.97 16.53 -25.65 19.1 -33.3 48 -19.3 72.6 19.57 31.74 62.5 47.2 101.5 34.57 z"/></g></svg>