<svg xmlns="http://www.w3.org/2000/svg" viewBox="0 0 256 256"><path d="m 160.6 5.54 c 128.9 19.55 122.6 214.1 -5.14 243.5 -103.8 30.3 -181.6 -79.4 -143.9 -161.3 18.71 -54.89 85.7 -99.3 149.1 -82.2" style="fill:#ff8c00"/><rect width="101.4" height="100.7" x="63.9" y="104.5" rx="20.76" ry="20.1" style="fill:#fff"/><rect ry="13.6" rx="14.77" y="112.3" x="72.4" height="85.7" width="84.5" style="fill:#ff8c00"/><path d="m 128.4 154.1 c -8.81 -1.68 -9.35 -0.28 -10.22 -17.88 -0.64 -12.88 -0.33 -14.45 1.3 -16.55 3.22 -4.13 8.1 -3.16 29.87 -2.74 15.51 0.3 23.66 0.71 29.85 -2.18 4.63 -2.16 1.29 -13.41 -0.41 -15.1 -13.86 -5.26 -48.86 -0.01 -56.95 -2.47 -4.71 -6.75 -3.34 -11.74 -3.32 -16.38 0.07 -16.36 0.85 -20.61 10.2 -21.38 23.51 -0.23 44.3 -0.82 67.77 0.84 7.54 1.89 11.18 2.86 14 9.14 2.63 5.87 3.16 10.43 3.5 30.2 0.3 17.43 -0.24 30.49 -1.5 36.45 -0.89 4.22 -3.21 8.14 -7.13 12.1 -5.27 5.52 -59.66 6.95 -76.98 5.93 z m 9.4 -7.88 c 1.61 -1.22 1.73 -9.28 1.72 -15.1 -0.02 -7.42 -1.35 -7.25 -5.92 -7.8 -2.58 -0.31 -6.74 -0.49 -7.88 3 -1.16 3.59 -1.17 17.2 -0.02 19.47 -0.83 3.48 12.89 6 12.1 0.42 z m -1.3 -54.1 c 2.7 -2.72 4.58 -17.59 3.12 -23 -0.99 -3.68 -8.54 -1.9 -12.16 -1.71 -3.74 0.75 -2.92 22.91 -0.86 24.43 2.4 1.77 8.39 1.76 9.9 0.3 z" style="fill:#fff"/></svg>