<svg xmlns="http://www.w3.org/2000/svg" viewBox="0 0 256 256"><path d="m 108 252.5 c 34.52 -5.67 79.6 -30.49 107.5 -59.2 22 -22.73 33.1 -42.5 37.3 -66.3 5.8 -33.3 -6.41 -59.97 -38.56 -84.1 c -37.65 -27 -91.9 -52.5 -132.3 -37.55 -16 6 -26.9 12.94 -38 24.27 -22.74 23.2 -37 56.66 -40.58 95.3 c -2 21.88 -0.6 39.1 4.96 59.5 9.46 34.6 29.47 57.4 58.2 66.5 9.1 2.87 28.97 3.6 41.59 1.54 z" style="fill:#fe8b01"/><g transform="matrix(3.565 0 0 3.682 -1256.3 -1773.3)" style="fill:#fff;stroke:#fff"><g transform="matrix(0.084 0.722 -0.882 0.069 834.6 205.3)" style="fill:#fff;fill-rule:evenodd"><path d="m 358.4 518.1 l 4.93 -3.92 l 45.93 41.2 l -5.07 3.12 z" style="stroke-miterlimit:2"/><path d="m 402.5 554.5 c -8.1 -7 5.37 -2.66 12.92 10.49 -14.33 -8.32 -11.2 -9 -12.92 -10.49 z"/></g><path d="m 6.56 44.5 c 0 0 -8.62 -21.29 -0.61 -30.59 6.65 -7.72 11.5 11.26 16.22 2.2 c 1.77 -3.4 0.11 -11.23 -11.33 -15.23" transform="translate(364.6 499.8)" style="fill:#ffdead"/></g></svg>