<svg xmlns="http://www.w3.org/2000/svg" viewBox="0 0 256 256"><path d="m 97.1 252.2 c -129.8 -19.68 -127.1 -215.6 0.66 -245.2 103.7 -30.47 183.9 79.9 147.5 162.4 c -17.78 55.3 -84.3 100 -148.2 82.8" style="fill:#ff8c00"/><g style="fill:#fff"><path d="m 108.9 162.4 c -9.12 -1.68 -9.69 -0.28 -10.59 -17.89 -0.66 -12.88 -0.35 -14.45 1.35 -16.55 3.33 -4.13 8.38 -3.16 30.93 -2.74 16.1 0.3 24.5 0.71 30.92 -2.18 4.79 -2.16 1.34 -13.41 -0.42 -15.1 -14.35 -5.26 -50.61 -0.01 -58.99 -2.47 -4.87 -6.75 -3.46 -11.74 -3.44 -16.39 0.07 -16.36 0.88 -20.62 10.56 -21.39 24.35 -0.23 45.89 -0.82 70.2 0.84 7.81 1.89 11.58 2.86 14.52 9.14 2.73 5.87 3.28 10.44 3.62 30.2 0.31 17.43 -0.25 30.5 -1.55 36.46 -0.92 4.22 -3.32 8.15 -7.38 12.1 -5.46 5.52 -61.79 6.95 -79.7 5.93 z m 9.74 -7.89 c 1.67 -1.22 1.8 -9.28 1.78 -15.1 -0.02 -7.42 -1.39 -7.25 -6.13 -7.8 -2.68 -0.31 -6.98 -0.49 -8.16 3.03 -1.2 3.59 -1.21 17.2 -0.02 19.48 -0.86 3.49 13.35 6 12.54 0.42 z m -1.34 -54.2 c 2.8 -2.72 4.75 -17.6 3.23 -23 -1.03 -3.68 -8.84 -1.9 -12.59 -1.71 -3.87 0.75 -3 22.92 -0.89 24.44 2.49 1.77 8.69 1.76 10.25 0.3 z"/><g style="stroke-dasharray:8.79759 26.3928;stroke:#fff;stroke-linecap:round;stroke-width:8.8"><rect width="0.11" height="171.9" x="73" y="51.3" rx="0.05" ry="7"/><rect ry="7" rx="0.05" y="-205.9" x="187.3" height="171.9" width="0.11" transform="matrix(0 1 -1 0 0 0)"/></g></g></svg>