<svg xmlns="http://www.w3.org/2000/svg" viewBox="0 0 256 256"><path d="m 22.97 188.2 c -68.5 -92.2 41.1 -204.8 129.4 -185.3 86.9 11.46 139.4 144.8 72.2 212.5 -49.1 48.72 -133.1 65 -201.6 -27.2" style="fill:#ff8c00"/><g style="fill:#fff"><path d="m 68.75 67.4 h 44.1 v 43.83 h -44.1 z"/><path d="m 118.3 76.6 h 33.46 v 33.83 h -33.46 z"/><path d="m 159.6 76.6 h 33.46 v 33.83 h -33.46 z"/><path d="m 159.9 116.2 h 33.46 v 33.83 h -33.46 z"/></g><path d="m 118.5 116.6 h 33.46 v 33.84 h -33.46 z" style="fill:#ffdead"/><g style="fill:#fff"><path d="m 78.1 116.9 h 33.46 v 33.84 h -33.46 z"/><path d="m 77.6 158.9 h 33.46 v 33.83 h -33.46 z"/><path d="m 118.4 158.5 h 33.46 v 33.84 h -33.46 z"/><path d="m 159.6 158.3 h 33.46 v 33.84 h -33.46 z"/></g></svg>