<svg xmlns="http://www.w3.org/2000/svg" viewBox="0 0 256 256"><path d="m 99.3 252.3 c -239 -49.88 17.57 -393.1 139.1 -186.9 52.1 80 -16.1 212.6 -139.1 186.9" style="fill:#ff8c00"/><g style="fill:#fff"><path d="m 97.3 191 c -3.99 -9.1 -5.41 -7.33 -20.73 -8.2 -26.87 -4.12 -38.57 -23.77 -31.4 -48.83 5.38 -18.1 13.76 -27.38 33 -37.48 12.94 -6.78 20 -7.28 22.98 -4.33 2.94 2.95 1.87 5.22 -5.22 11 -19.51 13.34 -33.3 12.65 -36.4 37 -0.62 18.1 1.6 27.52 21.25 27.52 14.62 0 16.21 -0.67 17.93 -7.5 2.55 -10.18 5.86 -9.49 20.54 4.22 l 12.55 11.73 l -13.41 12.28 c -7.38 6.76 -14.18 12.28 -15.1 12.28 -0.94 0 -3.64 -4.39 -5.99 -9.76 z"/><path d="m 122.6 116.4 c -1.22 -1.92 3.92 -12 11.42 -22.41 14 -19.46 14 -23.4 -0.07 -25.2 -4.54 -0.59 -11.83 4.71 -12.36 -3.16 -0.7 -10.35 9.1 -7.55 24.2 -8.26 17.76 -0.83 20.2 -0.22 22 5.59 1.51 4.64 -1.23 11.1 -9.53 22.31 -6.41 8.69 -10.91 16.96 -10 18.39 0.91 1.43 6.16 3.48 11.68 4.55 6 1.18 8.87 3.41 8.69 5.91 -0.68 9.86 -42.97 7.24 -46.1 2.32 z"/><path d="m 190.1 195.9 c -14.5 -17.78 -16.66 -18.96 -24.82 -6.76 -8.21 12.27 -17.76 11.13 -17.76 6.26 0 -3.72 -3.4 -9.84 17.1 -49.83 2.49 -4.85 6.23 -8.9 8.45 -8.9 5.4 0 15.87 8.32 18.42 18.1 1.14 4.37 4.26 14.3 6.94 20.86 3.48 8.53 5 17.79 0.95 21.24 -5.18 2.94 -6.73 2.15 -9.29 -0.97 z m -6.65 -26.68 c 0.01 -4.34 -7.95 -15.37 -7.95 -15.37 -7.17 10.28 -6.99 9.3 -7.88 15.41 -0.72 4.95 15.82 3.1 15.83 -0.04 z"/></g></svg>