<svg xmlns="http://www.w3.org/2000/svg" viewBox="0 0 256 256"><path d="m 157.8 250.4 c 239.9 -64.96 -17.64 -392.8 -139.6 -178.6 -52.3 83.5 16.2 212 139.6 178.6" style="fill:#ff8c00"/><g style="fill:#fff"><path d="m 127.7 187.2 c -16.62 -11.56 -18.91 -10.64 -43.65 -11.94 c -37.8 -1.99 -33.45 -12.65 5.73 -12.72 13.16 -0.02 20.2 0.66 32.86 -7.18 8 -4.96 16.4 -10.65 18.64 -12.63 5.49 -4.87 11.56 -2.07 11.38 5.4 -0.45 18 3.66 9.66 16.47 0.11 6.56 -4.89 13 -8.19 14.37 -7.33 5.37 3.44 5.14 10.12 -3.77 17.51 l -14.31 11.86 l 10.71 8.94 c 9.34 7.8 9.81 8.15 9.81 12.92 0 8.79 -3.94 8.64 -16.26 -0.62 -12.26 -9.22 -18.28 -20.1 -17.45 -0.64 0.16 3.74 -2.36 7 -4.32 7.33 -1.96 0.31 -11.1 -4.64 -20.2 -11 z"/><path d="m 80.5 119 c -12.1 -7.81 -22.1 -15.32 -22.1 -16.7 c 0 -1.38 9.89 -8.92 21.98 -16.77 21.89 -14.2 29.2 -15.57 26.55 -4.99 -0.6 2.4 0.01 7.4 1.36 11.1 1.95 6.64 26.2 5.95 38.46 5.54 48.1 -1.61 48.67 14.49 0.99 12.57 -21.7 -0.87 -36.56 0.37 -38.51 2.05 -2.09 1.81 -2.71 2.71 -1.78 7.89 2.7 15.1 -2.71 14.91 -26.99 -0.72 z"/></g></svg>