<svg xmlns="http://www.w3.org/2000/svg" viewBox="0 0 256 256"><path d="m 60.2 27.35 c 130.9 -91.7 263.6 77.6 156.9 185.6 c -100.5 101.7 -256.7 7.42 -207.9 -119.2 c 10.19 -26.41 26.91 -49.59 50.95 -66.4" style="fill:#ff8c00"/><path d="m 89.2 204.8 c -15.74 -9 -28.57 -22.53 -36.87 -38.78 -8.37 -21.69 -8.19 -52.4 1.79 -69.6 10.47 -17.86 24 -30.71 40.48 -38.4 c 16.53 -7.7 39.2 -8.96 41.73 -2.33 2.22 5.8 0.48 6.95 -13.19 8.7 -67.3 8.63 -86.5 93.4 -28.7 126.6 20.83 10.64 48.4 11.4 66.3 1.01 17.3 -10.14 30.42 -27.2 34.1 -44.49 2.35 -10.94 4.14 -14.1 7.6 -13.46 6.96 1.32 7.43 21.31 0.8 34.1 -6.34 12.28 -24.8 30.37 -39.5 38.71 -22.54 9.26 -56.3 8.26 -74.6 -2.11 z" style="fill:#fff"/></svg>