<svg xmlns="http://www.w3.org/2000/svg" viewBox="0 0 256 256"><path d="m 2.75 128.7 c -19.2 -168.9 255.1 -166.5 251.9 3 9.1 157.7 -266.8 171.9 -251.9 -3" style="fill:#ff8c00"/><path d="m 37.54 97.6 h 177.9 v 75.98 h -177.9 z" style="fill:#fff"/><text x="60" y="137.1" line-height="125%" style="letter-spacing:0;word-spacing:0;font-size:64;font-family:Px IBM CGA"><tspan/></text><g style="fill:#ff8c00"><path d="m 119 137.4 v -27.2 h 17.85 h 17.85 v 6.44 v 6.44 h -11.78 h -11.78 v 4.83 v 4.83 h 10.64 h 10.64 v 6 v 6 h -10.64 h -10.64 v 9.86 v 9.86 h -6.08 h -6.08 v -27.2 z"/><path d="m 67.5 139.8 c -3.22 -1.3 -5.62 -4 -7.1 -8.11 -1.16 -3.17 -1.14 -9 0.04 -12.26 1.87 -5.13 5.16 -8.1 9.39 -8.35 1.34 -0.09 3.22 0.07 4.17 0.35 2.48 0.74 5.44 3.77 6.83 6.98 1.02 2.35 1.1 2.93 1.1 7.23 0 4.19 -0.1 4.91 -0.99 6.93 -2.14 4.89 -5.26 7.35 -9.59 7.56 -1.49 0.07 -3.23 -0.07 -3.85 -0.33 z m 5.44 -8.57 c 1.75 -1.55 2.37 -6.94 1.09 -9.52 -1.19 -2.41 -3.36 -3.25 -5.08 -1.96 -2.07 1.55 -2.68 7.85 -1 10.27 1.41 2.03 3.5 2.54 5 1.21 z"/><path d="m 65.3 163.4 c 0.39 -0.62 8.1 -12.84 17.1 -27.2 l 16.45 -26 h 4 c 2.2 0 3.95 0.16 3.88 0.34 -0.07 0.19 -7.73 12.4 -17 27.1 l -16.9 26.8 l -4.12 0.02 l -4.12 0.02 l 0.7 -1.12 z"/><path d="m 97.4 163.4 c -8.1 -3 -10.55 -17.5 -4.27 -25.2 4.07 -5 11.88 -4.89 15.78 0.27 2.52 3.33 3.05 5.19 3.05 10.74 0 4.5 -0.09 5.15 -1.02 7.3 -1.44 3.33 -4.25 6.26 -6.79 7.1 -2.59 0.83 -4.24 0.8 -6.75 -0.14 z m 5.98 -8.94 c 2.35 -3.23 1.76 -9.87 -1 -11.23 -1.44 -0.71 -2.73 -0.52 -3.7 0.53 -2.23 2.41 -2.23 8.39 0 10.8 1.3 1.41 3.64 1.36 4.71 -0.11 z"/></g></svg>