<svg xmlns="http://www.w3.org/2000/svg" viewBox="0 0 256 256"><path d="m 254.3 149.2 c -0.97 -34.68 -19.65 -80 -44.57 -108 -19.73 -22.1 -37.99 -33.3 -61.2 -37.46 -32.51 -5.83 -60.84 6.44 -89.3 38.74 -32.1 37.82 -65 92.3 -55.6 132.9 c 3.82 16.1 9.28 27 19.1 38.2 20.1 22.85 51.62 37.2 89.8 40.76 21.61 2.03 39 0.6 60.2 -4.98 35.89 -9.5 61.4 -29.61 74.4 -58.5 4.1 -9.11 7.54 -29.1 7.2 -41.78 z" style="fill:#fe8b01"/><g transform="matrix(0.775 0 0 0.802 70.86 11.24)" style="opacity:0.5"><rect ry="25.1" rx="43.3" y="69.1" x="83.2" height="136.9" width="86.6" style="fill:#fff"/><path transform="matrix(1.023 0 0 0.943 -4.23 15.2)" d="m 167.1 82 c 0 11.33 -17.26 20.51 -38.56 20.51 -21.3 0 -38.56 -9.18 -38.56 -20.51 0 -11.33 17.26 -20.51 38.56 -20.51 21.3 0 38.56 9.18 38.56 20.51 z" style="fill:#ffdead"/><g transform="matrix(0.815 0 0 0.984 -88.9 24.71)" style="fill:#fff"><path d="m 66.2 181.4 c 0 -1.97 59.4 -130.6 60.3 -130.6 0.58 0.03 32.55 63.78 49.8 99.3 l 14.1 29.1 l -16.1 0.52 c -41.4 1.35 -108.1 2.38 -108.1 1.68 z"/><path d="m 120.2 203.3 c -34.84 -1.47 -59.66 -12.84 -53.1 -24.32 21.84 -25.83 101.5 -39.51 124.3 1.72 1.28 4.97 -2.36 9.59 -10.79 13.68 -13.61 6.6 -36.2 9.94 -60.4 8.92 z"/></g></g><g style="fill:#fff;stroke:#fff;stroke-linecap:round"><path d="m 184.8 165.6 a 37.48 37.99 0 1 1 -74.96 0 37.48 37.99 0 1 1 74.96 0 z" transform="matrix(0.951 0 0 0.934 -4.58 12.27)" style="opacity:0.5;stroke-width:6"/><path d="m 127.2 204.7 c -14.27 -3.18 -25.62 -14.38 -29.33 -28.96 -0.9 -3.53 -1.27 -9.64 -0.84 -13.9 1.92 -19.1 16.74 -33.74 35.6 -35.2 10.57 -0.83 21.58 3.48 29.34 11.46 5.1 5.25 8.36 11.15 10.38 18.79 1.17 4.41 1.06 14.28 -0.2 19.1 -3.53 13.47 -13.68 24.1 -26.74 28 -5.28 1.58 -12.89 1.87 -18.21 0.69 z m 14.2 -5.31 c 5.85 -0.94 13.25 -5.11 17.67 -9.97 6.54 -7.19 9.55 -16.58 8.67 -27 -1.12 -13.37 -10.44 -24.95 -23.35 -29 -7.7 -1.97 -16.19 -1.05 -22.2 1.36 -7.34 2.98 -14.8 10.83 -17.66 18.6 -3.44 9.7 -2.6 20.1 1.24 28.1 4.99 10.29 14.85 17.33 25.79 18.4 3.77 0.27 7.09 0 9.81 -0.43 z" style="stroke-width:2.58"/></g></svg>