<svg xmlns="http://www.w3.org/2000/svg" viewBox="0 0 256 256"><path d="m 60.2 27.35 c 130.9 -91.7 263.6 77.6 156.9 185.6 c -100.5 101.7 -256.7 7.42 -207.9 -119.2 c 10.19 -26.41 26.91 -49.59 50.95 -66.4" style="fill:#ff8c00"/><g style="fill:#fff"><path d="m 115.2 203.9 c -42.4 -13.18 -68.2 -53.82 -56.76 -93.7 9.74 -28.2 35.3 -51.5 64.78 -51.95 c 22.1 -4.55 71.96 57.79 80.3 81.5 -2.2 21.95 -17.62 43.2 -32.88 53.3 -16.46 10.3 -35.87 14.24 -55.4 10.87 z" style="opacity:0.5"/><path d="m 87.6 206.2 c -16.45 -10.44 -30.88 -27.2 -38.52 -44.78 -6.8 -15.65 -5.47 -50.93 2.51 -66.4 14.93 -28.93 47.2 -51 74.5 -51 c 12.42 0 16.31 3 52 40.4 35.1 36.66 38.63 41.64 38.74 54 0.15 16.81 -7.42 32.39 -24.5 50.4 -19.69 20.75 -35.51 27.52 -64.3 27.52 -20.79 0 -27 -1.56 -40.53 -10.13 z m 74.82 -11.1 c 7.33 -3.76 16.88 -10.64 21.2 -15.31 8.58 -9.2 19 -31.6 19 -40.81 0 -8.38 -61.3 -76.7 -71.2 -79.3 c -11.58 -3.08 -33.93 4.21 -47.2 15.41 -50.1 42.2 -20.92 126.1 44.1 126.7 c 13.68 0.12 25.33 -2.15 34.1 -6.64 z"/></g></svg>