<svg xmlns="http://www.w3.org/2000/svg" viewBox="0 0 256 256"><path d="m 229.7 188.4 c 75.6 -92 -26.3 -204.2 -116.5 -184.8 -88.2 11.43 -150.8 144.4 -88.2 211.9 45.82 48.59 129 64.86 204.7 -27.1" style="fill:#ff8c00"/><g style="fill:#fff"><path d="m 196.7 74.5 c 1.51 2.08 2.31 5 2.05 7.55 l -0.26 2.47 l -21.2 29.76 c -21 29.48 -21.24 29.77 -22.99 30.77 -3.28 1.87 -7.44 2.03 -10.77 0.4 l -1.67 -0.82 l -1.74 2.44 c -1.09 1.52 -2.18 2.67 -2.93 3.05 -1.79 0.92 -4.37 0.88 -6.96 -0.13 l -2.33 -0.9 l -7.82 7.6 c -14.39 13.99 -29.6 31.7 -32.36 30.94 -2.74 -3.17 4.39 -10.65 17.19 -37.64 3.21 -6.76 5.81 -12.36 5.78 -12.43 -0.03 -0.07 -0.84 -0.91 -1.79 -1.86 -3.44 -3.43 -3.65 -5.85 -0.85 -9.78 l 1.87 -2.62 l -1.56 -1.33 c -2.07 -1.76 -3.18 -3.71 -3.71 -6.47 -0.82 -4.31 -1.86 -2.61 21.39 -35.2 23.43 -32.85 21.92 -31.1 26.75 -31.91 4.66 -0.83 4.18 -1.07 24.94 12.84 13 8.72 18.41 12.5 18.99 13.29 z"/><rect width="105.6" height="12" x="43.1" y="196.6" rx="8.16" ry="4.27"/><rect ry="4.27" rx="8.16" y="178.3" x="110.7" height="12" width="96.7"/></g></svg>