<svg xmlns="http://www.w3.org/2000/svg" viewBox="0 0 256 256"><path d="m 27.85 85.6 c -12.1 15.57 -24.1 44.89 -25.65 62.4 c -2.21 25.2 6.5 54.2 21.49 71.4 20 23.1 60.4 38.2 100.7 37.62 28.92 -0.4 67.6 -9.39 87.4 -20.25 16.81 -9.25 28.81 -22.73 35.39 -39.74 8.91 -23.1 9.3 -45.52 1.16 -67.8 c -13.31 -47.63 -43.3 -79.6 -70.2 -105.1 -68.3 -56.94 -113.4 13.1 -150.2 61.5" style="fill:#ff8c00"/><g style="fill:#fff"><path d="m 66.2 181.4 c 0 -1.97 59.4 -130.6 60.3 -130.6 0.58 0.03 32.55 63.78 49.8 99.3 l 14.1 29.1 l -16.1 0.52 c -41.4 1.35 -108.1 2.38 -108.1 1.68 z"/><path d="m 120.2 203.3 c -34.84 -1.47 -59.66 -12.84 -53.1 -24.32 21.84 -25.83 101.5 -39.51 124.3 1.72 1.28 4.97 -2.36 9.59 -10.79 13.68 -13.61 6.6 -36.2 9.94 -60.4 8.92 z"/></g></svg>