<svg xmlns="http://www.w3.org/2000/svg" viewBox="0 0 256 256"><path d="m 148.5 254.4 c -34.68 -0.97 -80 -19.65 -108 -44.57 -22.1 -19.73 -33.3 -37.99 -37.46 -61.2 -5.83 -32.51 6.44 -60.84 38.74 -89.3 37.82 -32.1 92.3 -65 132.9 -55.6 c 16.1 3.82 27 9.28 38.2 19.1 22.85 20.1 37.2 51.62 40.76 89.8 2.03 21.61 0.6 39 -4.98 60.2 -9.5 35.89 -29.61 61.4 -58.5 74.4 -9.11 4.1 -29.1 7.54 -41.78 7.2 z" style="fill:#fe8b01"/><g style="fill:#fff"><path d="m 124.3 193.2 c -10.6 -0.36 -16.72 -1.25 -16.72 -2.43 0 -1.03 2.78 -4.95 6.17 -8.7 15.49 -17.1 18.29 -36.79 9.49 -66.7 -6.97 -19.34 -13.92 -24.41 -19.1 -33.38 0 -2.11 6.48 -2.41 43.3 -2 l 43.3 0.46 l 1.11 54 c 0.66 32.3 0.47 55.2 -0.49 57 -1.66 3.12 -15.1 3.46 -67.1 1.72 z" style="opacity:0.5"/><path d="m 96 201.7 c -0.9 -1.37 -1.88 -3.76 -2.2 -5.33 -0.65 -3.27 0.3 -4.88 11.67 -19.77 10.71 -14 12.1 -18.1 12.19 -35.48 l 0.07 -13.94 l -3.66 -7.4 c -2 -4.07 -6.65 -12.31 -10.3 -18.31 c -10.72 -17.62 -12.63 -24.3 -8.45 -29.41 l 1.9 -2.34 h 48.96 c 26.93 0 50.2 0.33 51.61 0.74 2.47 0.69 2.7 1.24 3.45 8.44 0.44 4.23 0.82 33.1 0.83 64.3 0.02 44.3 -0.25 57.1 -1.25 58.8 l -1.28 2.23 h -50.96 h -50.96 l -1.63 -2.49 z m 94.9 -9.23 c 1.03 -1.04 1.23 -12.26 1 -56.5 -0.16 -30.38 -0.43 -55.4 -0.61 -55.5 -0.18 -0.18 -19.56 -0.42 -43.1 -0.54 -30.63 -0.15 -43.1 0.1 -43.87 0.9 -0.83 0.83 0.67 3.76 5.85 11.41 11.84 17.48 16.96 33.3 16.98 52.5 0.02 14.53 -3.28 23.66 -12.88 35.66 -6.61 8.26 -7.45 9.83 -6 11.26 1.71 1.71 16.33 2.36 50.4 2.25 24.1 -0.08 31.3 -0.4 32.3 -1.4 z"/><path d="m 62.5 164.3 c -1.35 -2.43 -2.54 -43.3 -1.39 -47.9 0.39 -1.55 1.94 -3.14 4.05 -4.14 l 3.41 -1.63 l 7.23 4.79 c 9.1 6 18.2 12.82 22.36 16.74 6.23 5.82 3.24 12.89 -9.39 22.26 -16.1 11.93 -23.57 14.75 -26.3 9.89 z"/></g></svg>