<svg xmlns="http://www.w3.org/2000/svg" viewBox="0 0 256 256"><path d="M 4.0586614,157.2 C 23.892223,260.5 165.98506,288.2 225.35339,214.4 278.05075,159.6 260.4258,54.7 191.7445,18.7 112.69893,-29.4 2.4807561,30.07 0.05769833,125.9 -0.16980637,136.39 1.1272933,147 4.0286614,157.2 z" style="fill:#ff8c00;color:#000"/><g transform="translate(2.52 1.96)"><path d="M 59.3807,64.2245 H191.391 V191.619 H59.3807 z" style="fill:#ff8c00;stroke:#fff;stroke-linecap:round;stroke-width:8.3"/><g style="fill:#fff"><path transform="matrix(0.662 -0.75 0.723 0.691 0 0)" d="M -9.18447,89.6524 H-2.13038 V264.976 H-9.18447 z"/><path transform="matrix(-0.662 -0.75 -0.723 0.691 0 0)" d="M -181.278,-97.0207 H-174.224 V78.3026 H-181.278 z"/></g></g><g style="fill:#fff"><path d="m 139.45733,142.76715 a 22.971834,25.00474 0 1 1 -45.943668,0 22.971834,25.00474 0 1 1 45.943668,0 z" transform="matrix(1.133 0 0 1.057 -32.3 1.02)"/><path d="M 131.732,77.5109 H176.863 V123.048 H131.732 z"/><path d="m 133.35862,169.80481 10.95584,-21.60629 11.38866,-21.38132 13.23368,20.29118 12.82243,20.55353 -24.18952,1.31511 z" transform="matrix(1.125 0.062 -0.057 1.219 -12.59 -35.78)"/></g></svg>