<svg xmlns="http://www.w3.org/2000/svg" viewBox="0 0 256 256"><path d="m 121.8 254.6 c 26.3 -0.17 57.4 -10.56 79.3 -26.53 26.68 -19.4 46.77 -50.65 52.84 -82.4 c 7.42 -42 -15.7 -89.4 -42.76 -113.1 -13.57 -11.54 -31.76 -21.25 -48.94 -26.2 -44.69 -12.77 -92.2 1.97 -125.6 38.98 -20 22.2 -30.74 45.2 -34.1 73.2 c -3.97 33.49 8.17 70.6 31.62 96.7 26.83 24.91 54.81 39.4 87.6 39.4" style="fill:#ff8c00"/><path d="m 74.1 68.5 h 114.7 v 112.2 h -114.7 z" style="fill:#fff"/><path d="m 74.6 176 l 13.79 -6.53 c 18.62 -8.82 21.96 -10.67 31.2 -17.19 17.33 -12.29 30.2 -25.52 43.55 -44.67 7.87 -11.31 13.15 -20.46 19.6 -33.96 l 2.34 -4.9 c 1.24 0 2.48 0 3.73 0 0 2.38 0 4.77 0 7.15 l -5.13 10.1 c -5.42 10.67 -7.85 14.94 -12.63 22.2 -14.25 21.53 -27.69 36 -45.4 49 -9.45 6.92 -15.23 10.17 -34.2 19.26 l -8.59 4.11 c -2.8 0 -5.6 0 -8.4 0 0.08 -1.58 0.14 -2.91 0.22 -4.53 z" style="fill:#ff8c00"/><g style="fill:#fff"><path d="m 56.1 98.9 h 8.09 v 81.8 h -8.09 z"/><path transform="matrix(0 1 -1 0 0 0)" d="m 188.8 -170.5 h 8.14 v 97.4 h -8.14 z"/></g></svg>