<svg xmlns="http://www.w3.org/2000/svg" viewBox="0 0 256 256"><path d="m 147.1 252.9 c 242.7 -49.65 16.65 -391.3 -122.4 -186.1 -58.91 79.7 -2.39 211.6 122.4 186.1" style="fill:#ff8c00"/><g style="fill:#fff"><path d="m 55.2 188.1 c -1.1 -1.77 5.29 -25.84 14.22 -53.5 15.52 -48.1 16.66 -50.2 26.37 -49.1 9.16 1.08 11.81 5.93 27.36 50.2 10.73 30.55 15.81 50.4 13.49 52.72 -5.44 5.41 -11.71 0.16 -18.2 -15.21 -5.26 -12.51 -7 -13.54 -23.2 -13.54 -16.7 0 -17.75 0.7 -23.71 15.78 -5.93 15 -11.96 19.63 -16.36 12.56 z m 53.2 -48.2 c -2.99 -12.4 -7.57 -21.38 -12.83 -33.41 l -5.32 11.84 c -8.78 19.52 -7.29 25.65 6.23 25.65 6.55 0 11.92 -1.83 11.92 -4.07 z"/><path d="m 159.1 187.6 c -10.17 -11.61 -10.18 -11.72 -0.88 -15.92 8.22 -3.72 9.36 -8.25 9.36 -37.4 0 -28.99 -1.21 -33.89 -9.6 -38.85 -9.58 -5.67 -9.58 -5.69 2.34 -16.99 l 11.93 -11.32 c 7.97 7.56 15.93 15.1 23.9 22.67 l -9.61 7.56 c -7.73 6.08 -9.6 12.37 -9.55 32.1 0.08 29.89 3.64 42.3 12.16 42.3 3.56 0 6.46 1.06 6.46 2.35 0 4.05 -19.1 25.3 -22.8 25.3 -1.91 0 -8.1 -5.26 -13.71 -11.69 z"/></g></svg>