<svg xmlns="http://www.w3.org/2000/svg" viewBox="0 0 256 256"><path d="m 125 254.6 c 26.1 -2.04 56.65 -14.61 77.9 -32.1 25.9 -21.24 44.88 -53.81 49.93 -85.9 c 6.07 -42.4 -18.37 -88 -45.97 -109.6 -13.84 -10.53 -32.2 -18.92 -49.4 -22.58 -44.78 -9.55 -91.5 8.53 -123.6 47.8 -19.2 23.54 -29.1 47.2 -31.57 75.3 c -2.91 33.65 10.3 69.7 34.4 94.1 27.42 22.91 55.66 35.3 88.2 32.99" style="fill:#ff8c00"/><path transform="matrix(0.95 -0.311 0 1 0 0)" d="m 68.5 122.5 h 129.3 v 90.4 h -129.3 z" style="fill:#fff"/><path d="m 207.7 153.6 a 32.42 34.41 0 1 1 -64.85 0 32.42 34.41 0 1 1 64.85 0 z" transform="matrix(1.265 0 0 1.191 -71.1 -21.41)" style="fill:#ff8c00"/><path transform="matrix(1.07 0 0 1.021 -36.3 5.08)" d="m 207.7 153.6 a 32.42 34.41 0 1 1 -64.85 0 32.42 34.41 0 1 1 64.85 0 z" style="fill:#fff"/></svg>