<svg xmlns="http://www.w3.org/2000/svg" viewBox="0 0 256 256"><path d="m 252.9 99.9 c -40.4 -238.1 -390.1 17.51 -190.4 138.5 77.3 51.9 211.2 -16.1 190.4 -138.5" style="fill:#ff8c00"/><g style="fill:#fff"><path d="m 58.6 172.1 c 0 -5.48 30.62 -64.5 41.1 -79.2 5.84 -8.2 12.52 -14.91 14.85 -14.91 4.76 0 15.49 55.98 15.49 80.8 0 18.1 -7.77 21.68 -12.76 5.96 -6.21 -19.56 -20.1 -21.44 -35.93 -4.88 -13.41 14 -22.76 19 -22.76 12.25 z m 51 -50.75 c 0 -3.88 -2.3 -8.47 -5.1 -10.21 -2.91 -1.8 -6.29 6.55 -6.29 14.16 0 7.61 2.88 5.99 6.29 6.25 8.34 0.64 5.1 -6.33 5.1 -10.21 z"/><path d="m 144 169.7 c -2.2 -12.35 4.5 -53.3 9.12 -58.95 2.23 -2.73 12.57 -4.74 24.34 -4.74 25.87 0 29.6 6.17 25.2 41.71 -2.63 21.33 -4.14 24.76 -11.36 25.79 -8.1 1.15 -8.26 0.38 -6.08 -25.58 2.12 -25.32 1.82 -26.76 -5.66 -26.76 -9.83 0 -16.75 2.87 -19.89 31.96 -2.56 23.81 -13.93 26.47 -15.69 16.57 z"/></g></svg>