<svg xmlns="http://www.w3.org/2000/svg" viewBox="0 0 256 256"><path d="m 130.4 254.6 c -26.4 -2.05 -57.3 -14.66 -78.8 -32.2 c -26.2 -21.31 -45.4 -53.99 -50.5 -86.2 c -6.14 -42.55 18.58 -88.3 46.5 -110 c 14 -10.57 32.58 -18.98 49.99 -22.66 c 45.3 -9.58 92.6 8.56 125 47.96 c 19.42 23.62 29.47 47.4 31.93 75.6 c 2.94 33.77 -10.42 69.98 -34.8 94.4 c -27.74 22.99 -56.3 35.46 -89.2 33.1" style="fill:#ff8c00"/><g style="fill:#fff"><path d="m 50.5 100.4 h 26.3 v 75.2 h -26.3 z"/><path d="m 84.7 63 h 26.3 v 112.6 h -26.3 z"/><path d="m 118.2 116.4 h 26.3 v 59.3 h -26.3 z"/><path d="m 170.3 126.7 h 54.5 v 6.76 h -54.5 z"/><path d="m 170.7 142.2 h 54.9 v 6.76 h -54.9 z"/><path d="m 170.7 156.9 h 54.1 v 6.76 h -54.1 z"/></g></svg>