<svg xmlns="http://www.w3.org/2000/svg" viewBox="0 0 256 256"><defs><clipPath><path d="m 27.71 56.82 h 82.3 v 139.7 h -82.3"/></clipPath><clipPath><path d="m 148 97 h 77.6 v 24 h -77.6"/></clipPath><clipPath><path d="m 74 56.82 h 129 v 139.7 h -129"/></clipPath><clipPath><rect rx="6" height="80" width="84" y="6" x="6" style="fill:#ff4500"/></clipPath><clipPath><path d="m 171 132 h 54.63 v 24 h -54.63"/></clipPath><clipPath><rect rx="6" height="80" width="84" y="6" x="6" style="fill:#ff4500"/></clipPath></defs><path d="m 241.9 175.8 c 95.1 -308.6 -415.6 -154.3 -176.8 57.2 47.83 42.4 151.2 26.1 176.8 -57.2" style="fill:#ff8c00"/><path d="m 109.7 65.2 h 91.2 v 132.8 h -91.2 z" style="fill:#fff"/><g transform="matrix(-0.68 0 0 0.639 138.2 -464.8)" style="fill:#ffd700;color:#000"><path d="m -16.1 1014.9 c -5.82 -2.37 -6.81 -6.12 -7.23 -27.57 l 0.36 -30.3 c 12.1 0.02 27 3.57 32.1 -3.49 5.28 -9.3 1.75 -14.63 -7.5 -17.77 -10.12 -1.04 -15 -0.14 -25.89 -0.14 l 0.82 -24.46 c 0.11 -29.78 0.89 -30.6 29.1 -30.6 h 17.95 v -11 c 22.2 -96.6 111.9 127.5 35.3 146.5 -12.21 0.74 -19.29 1.06 -74.95 -1.19 z" style="fill:#ff8c00"/><path d="m -2.59 1004.7 c -5.23 -2.07 -6.12 -5.36 -6.5 -24.1 l -0.35 -17.48 h 9.89 c 11.74 0 16 -1.72 19.61 -7.91 4.75 -8.14 1.97 -18.74 -6.07 -23.2 -3.25 -1.8 -5.77 -2.2 -13.62 -2.2 h -9.64 l 0.06 -15.87 c 0.1 -26.1 0.8 -26.79 26.1 -26.79 h 16.1 v -9.67 c 0 -7.98 0.42 -10.46 2.38 -14.23 5.75 -11 20.2 -11 25.91 0 1.96 3.77 2.38 6.25 2.38 14.23 v 9.67 h 16.65 c 25.1 0.01 25.63 0.58 25.64 27.83 v 15.87 h 9.78 c 7.89 0 10.45 0.4 13.23 2.07 10.21 6.13 10.21 20.94 0 27.1 -2.78 1.67 -5.33 2.07 -13.1 2.07 h -9.69 l -0.35 18 c -0.38 19.6 -1.21 22.61 -6.82 24.71 -1.46 0.55 -9.77 0.99 -18.45 0.99 h -15.79 v -9.72 c 0 -8.11 -0.4 -10.47 -2.41 -14.2 -6 -11.18 -21.96 -11.18 -27.97 0 -2 3.73 -2.41 6.09 -2.41 14.2 v 9.72 l -16.1 -0.07 c -8.87 -0.04 -17.2 -0.48 -18.44 -0.98 z" style="fill:#fff"/></g></svg>