<svg xmlns="http://www.w3.org/2000/svg" viewBox="0 0 256 256"><path d="m 117.8 254.2 c 152.1 14.54 193 -230.7 36.86 -249.7 c -143.6 -23.6 -217.5 198.7 -74.86 243.1 c 12.1 4.87 25.3 4.78 38 6.59" style="fill:#ff8c00"/><g style="fill:#fff"><path d="m 6.59 244.2 c -4.28 -4.28 -1.32 -13 4.42 -13 3.81 0 5.54 1.02 7.2 4.23 1.69 3.28 1.24 6.77 -1.19 9.2 -2.23 2.23 -8 2 -10.43 -0.43 z m 33.5 0.59 c -3.83 -1.7 -6.47 -4.61 -10.93 -12 -5.74 -7.39 -3.57 -16.73 -3.57 -25.68 0 -11 0.45 -20.93 1.02 -22.43 1.59 -4.2 10.14 -14.2 13.63 -15.88 4.51 -2.23 14.5 -2.04 19.1 0.37 4.14 2.15 8.59 7.34 10.77 12.56 2.17 5.2 2.06 44.77 -0.14 50 -2.42 5.8 -7.24 11.18 -11.56 12.9 -4.73 1.89 -14.26 1.97 -18.36 0.15 z m 15.1 -17 c 1.78 -1.3 1.97 -2.96 2.25 -20.45 0.2 -12.46 -0.07 -19.74 -0.79 -21.1 -0.9 -1.68 -2.08 -2.05 -6.54 -2.05 -7.19 0 -8.21 1.58 -9.1 14.1 -0.95 13.5 0.27 26.59 2.7 29 2.28 2.28 8.63 2.55 11.46 0.48 z m 37.94 16.51 c -4.41 -2.06 -8.5 -6.77 -10.92 -12.56 -1.27 -3.03 -1.57 -7.89 -1.55 -24.9 0.03 -24.1 0.36 -25.47 8.18 -34.1 4.47 -4.93 4.55 -4.96 11.56 -5.36 9.24 -0.52 13.29 0.93 18.24 6.55 6.36 7.22 7.25 11.81 6.83 35.1 -0.32 17.93 -0.55 20.1 -2.54 23.8 -3.2 6 -7.25 10.47 -10.95 12 -4.69 1.96 -14 1.69 -18.83 -0.55 z m 15.4 -16.99 c 1.43 -1.43 2.08 -4.06 2.63 -10.62 0.85 -10.15 -0.23 -29.41 -1.74 -31.2 -20.73 -8.34 -20.68 35.9 -12.35 42.3 2.83 2.07 9.18 1.8 11.46 -0.48 z m 39.1 17.78 c -3.54 -1.4 -8.8 -6.69 -11.34 -11.38 -1.99 -3.68 -2.19 -5.71 -2.48 -25.2 -0.36 -23.65 0.07 -25.75 7 -34.38 4.38 -5.46 7.5 -6.92 14.7 -6.92 7.68 0 10.62 1.16 15.98 6.31 7.64 7.33 8.09 9.19 8.09 33.2 0 18.38 -0.23 21.5 -1.86 25 -2.19 4.7 -9.4 11.94 -13.41 13.44 -3.48 1.31 -13.32 1.27 -16.68 -0.06 z m 14.6 -17.99 c 1.7 -1.87 1.94 -4 2.19 -19.75 0.35 -21.48 0.02 -22.51 -7.36 -22.94 -4.11 -0.24 -5.39 0.1 -6.98 1.85 -1.78 1.97 -1.95 3.72 -1.95 20.44 0 16.58 0.18 18.49 1.9 20.4 2.64 2.92 9.55 2.92 12.19 0 z m -143.1 -78.3 c -4.09 -1.84 -11.1 -9.27 -12.95 -13.79 -1.23 -2.95 -1.55 -7.99 -1.55 -24.3 0 -22.98 0.03 -23.1 7.4 -31.78 5.32 -6.27 8.2 -7.7 15.49 -7.7 7.68 0 10.62 1.16 15.98 6.31 7.64 7.33 8.09 9.19 8.09 33.2 0 18.38 -0.23 21.5 -1.86 25 -2.19 4.7 -9.4 11.94 -13.41 13.44 -3.89 1.46 -13.57 1.26 -17.2 -0.37 z m 15.1 -17.68 c 1.7 -1.87 1.94 -4 2.19 -19.75 0.35 -21.48 0.02 -22.51 -7.36 -22.94 -4.11 -0.24 -5.39 0.1 -6.98 1.85 -2.64 6.77 -3.77 36.53 -0.04 40.84 2.64 2.92 9.55 2.92 12.19 0 z m 111.7 14.35 c -4.78 -7.48 -16.93 -18.98 -17.33 -24.1 0 -2.5 3.61 -5.11 7.09 -5.11 3.23 0 7.91 -3.5 7.91 -5.92 0 -0.97 -0.89 -2.58 -1.98 -3.56 -1.82 -1.65 -2.91 -1.7 -13.91 -0.65 -6.56 0.62 -20.86 1.13 -31.77 1.13 -16.92 0 -20.35 -0.26 -23.26 -1.75 -6.59 -5 -4.08 -7.3 -0.26 -11.75 l 37.56 -0.5 c 20.66 -0.28 39 -0.2 40.81 0.17 5.15 1.06 7.14 4.31 6.49 10.61 -0.46 4.5 -0.21 5.66 1.72 7.91 4.77 4.87 10.96 0.56 15.93 4.37 4.28 3.36 3.62 7.21 -2.36 13.86 -17.28 19.24 -16 18.1 -20.2 18.1 -2.96 0 -4.52 -0.66 -6.47 -2.75 z" transform="matrix(0.793 0 0 0.764 56.4 12.28)" style="fill:#fff"/></g></svg>