<svg xmlns="http://www.w3.org/2000/svg" viewBox="0 0 256 256"><defs><clipPath><rect x="6" y="6" width="84" height="80" rx="6" style="fill:#ff4500"/></clipPath><clipPath><path d="m 171 132 h 54.63 v 24 h -54.63"/></clipPath><clipPath><rect x="6" y="6" width="84" height="80" rx="6" style="fill:#ff4500"/></clipPath><clipPath><path d="m 27.71 56.82 h 82.3 v 139.7 h -82.3"/></clipPath><clipPath><path d="m 148 97 h 77.6 v 24 h -77.6"/></clipPath><clipPath><path d="m 74 56.82 h 129 v 139.7 h -129"/></clipPath></defs><g transform="translate(0 -796.4)" style="color:#000"><path d="m 26.37 992.5 c -92 -130.4 77.95 -262.5 186.4 -156.2 102.2 100.1 7.45 255.6 -119.7 207 -26.53 -10.14 -49.8 -26.8 -66.7 -50.73 z" style="fill:#ff8c00"/><g transform="matrix(-1 0 0 1 256 0)" style="fill:#fff"><path d="m 571 64 c 0 0 -1 0 -1 1 v 4.99 h 2 v -1 h 0.8 l 1.71 -1.71 l 0.71 -0.71 l 2.41 2.41 h 4.38 v 7 h -5.34 l -1.44 1.46 l -1.46 -1.46 h -1.76 v -1.99 h -2 v 3 c 0 0 0 1 1 1 h 12 c 1 0 1 -1 1 -1 v -12 c 0 0 0 -1 -1 -1 h -12 z m 4.21 3.96 l -1.38 1.39 l 1.63 1.64 l -6.46 -0.02 v 2 l 6.46 0.02 l -1.63 1.64 l 1.38 1.39 l 4 -4 l -4 -4 z" transform="matrix(8.304 0 0 10.763 -4659.8 158)" style="opacity:0.5"/><g transform="translate(0 796.4)"><path d="m 77.1 198.1 c -2.62 -2.62 -2.66 -2.97 -2.66 -21.2 v -18.49 h 7.59 h 7.59 v 10.85 v 10.85 h 7.49 h 7.49 l 5.63 7.59 c 3.1 4.18 6 7.59 6.47 7.59 0.47 0 3.44 -3.42 6.62 -7.59 l 5.77 -7.59 h 22 h 22 v -37.97 v -37.97 h -17.84 h -17.84 l -9.97 -13 c -5.48 -7.16 -10.28 -13 -10.66 -13 -0.38 0 -5.22 5.86 -10.77 13 -8.82 11.39 -10.48 13 -13.27 13 -3.05 0 -3.19 0.2 -3.19 4.88 v 4.88 h -7.59 h -7.59 v -28.79 v -28.8 l 2.66 -2.66 l 2.66 -2.66 h 51.65 c 31.61 0 52.4 0.41 53.63 1.06 1.09 0.58 2.52 2.61 3.18 4.5 1.5 4.3 1.69 134 0.21 137.9 -2.47 6.5 0.22 6.21 -56.62 6.21 h -52 l -2.66 -2.66 z"/><path d="m 111.1 171.4 l -5.08 -6.65 l 6.44 -8.31 c 3.54 -4.57 6.44 -8.66 6.44 -9.1 0 -0.42 -11.96 -0.77 -26.58 -0.77 h -26.58 v -10.31 v -10.31 h 26.58 c 14.62 0 26.56 -0.37 26.53 -0.81 -0.03 -0.45 -2.92 -4.46 -6.43 -8.91 l -6.39 -8.1 l 2.91 -3.9 c 5.28 -7.1 7.81 -10.1 8.2 -9.63 0.21 0.24 7.52 9.67 16.25 20.96 l 15.86 20.52 l -2.93 3.88 c -13.1 17.38 -28.8 37.56 -29.41 37.79 -0.41 0.15 -3 -2.72 -5.82 -6.38 z"/></g></g></g></svg>