<svg xmlns="http://www.w3.org/2000/svg" viewBox="0 0 256 256"><g style="color:#000"><path d="m 4.29 155.1 c 19.79 131.3 216.7 135.2 246.5 7.6 30.64 -103.3 -80.3 -187.8 -163.3 -154 -55.6 16 -100.5 81.5 -83.2 146.3 z" style="fill:#ff8c00"/></g><g style="fill:#fff"><path d="m 122.1 178.9 c -5.29 -0.26 -9.44 -0.92 -15.44 -2.43 -19.39 -4.88 -37.88 -17.85 -51.73 -36.3 -4.08 -5.43 -6.16 -8.93 -5.91 -9.93 0.3 -1.18 5.08 -8.24 8.41 -12.39 3.66 -4.57 11.55 -12.49 15.94 -15.99 13.42 -10.7 29.1 -17.44 44.6 -19.1 4.2 -0.46 13.45 -0.46 17.52 -0.01 16.19 1.79 31.6 8.32 45.2 19.2 3.8 3 12.92 12.19 16 16.1 2.71 3.41 6.29 8.53 7.76 11.1 l 0.91 1.58 l -0.92 1.58 c -3.71 6.38 -8.86 12.85 -15.6 19.58 -6 6 -9 8.52 -15.35 12.76 -7.43 4.99 -13.39 7.89 -21.79 10.61 -9.42 3.05 -18.82 4.21 -29.66 3.67 z m 11.35 -7.64 c 2.94 -0.44 8.68 -2.39 11.32 -3.85 9.2 -5.11 16.1 -13.32 19.3 -23 2.24 -6.77 2.8 -15.64 1.39 -22.27 -1.87 -8.79 -5.76 -15.86 -12 -21.84 -11.26 -10.76 -27.44 -13.67 -41.58 -7.48 -11.91 5.22 -20.39 15.88 -23.2 29.2 -0.84 3.93 -0.85 12.99 -0.01 16.98 2.43 11.56 9.19 21.45 18.51 27.1 8.21 4.96 16.58 6.6 26.33 5.15 z m -39.68 -7.89 c -5.64 -5.98 -10.18 -15.22 -11.79 -24 -0.88 -4.8 -0.81 -13.1 0.15 -17.89 1.74 -8.77 4.71 -15 10.67 -22.36 l 2.8 -3.47 l -3.79 1.99 c -2.09 1.1 -5.14 2.84 -6.79 3.86 -9.53 5.95 -20.2 16.36 -26.58 25.95 -1.03 1.55 -1.88 3.04 -1.88 3.3 0 0.27 0.91 1.82 2.03 3.46 6.46 9.48 16 18.91 25.43 25.1 3.09 2.03 10.96 6.33 11.61 6.35 0.16 0 -0.68 -1.01 -1.86 -2.27 z m 71.87 -1.4 c 11.52 -6.61 22.81 -17.2 30.2 -28.35 l 1.92 -2.9 l -0.77 -1.27 c -1.44 -2.36 -5.1 -7.25 -7.47 -10.1 -3 -3.53 -9.54 -9.89 -13 -12.66 -4.73 -3.77 -12.91 -8.83 -16.94 -10.49 l -1.33 -0.55 l 1.36 1.44 c 6.18 6.59 10.14 14.16 12.19 23.29 0.67 3 0.77 4.35 0.77 10.28 0 7.49 -0.34 9.88 -2.2 15.47 -2.11 6.34 -5.79 12.71 -9.95 17.25 l -2.08 2.26 l 1.86 -0.82 c 1.02 -0.45 3.47 -1.75 5.45 -2.88 z"/><path d="m 124.1 153.8 c -10.21 -2.19 -17.67 -11.66 -17.67 -22.42 0 -3.97 0.73 -7.17 2.38 -10.46 3.04 -6.1 8.17 -10.25 14.54 -11.87 10.41 -2.66 21.27 3.19 25.35 13.66 1.27 3.25 1.54 4.75 1.56 8.66 0.02 4.24 -0.62 6.97 -2.55 10.81 -4.39 8.73 -14.33 13.63 -23.61 11.63 z"/></g></svg>