<svg xmlns="http://www.w3.org/2000/svg" viewBox="0 0 256 256"><defs><clipPath><path transform="matrix(15.333 0 0 11.5 415 -125.5)" d="m -24 13 c 0 1.11 -0.67 2 -1.5 2 -0.83 0 -1.5 -0.89 -1.5 -2 0 -1.11 0.67 -2 1.5 -2 0.83 0 1.5 0.89 1.5 2 z"/></clipPath></defs><path d="m 34.46 218.7 c -144.7 -223.9 250.5 -310.6 219 -80.2 -12.84 94 -163.7 165.9 -219 80.2 z" style="fill:#ff8c00;color:#000"/><g transform="matrix(2.62 0 0 2.561 63.73 27)" style="fill:#fff;stroke:#ff8c00;fill-rule:evenodd;stroke-width:0.74"><g style="fill:#fff;stroke-linecap:round;stroke-linejoin:round"><path d="m 35.41 36.82 c 11.57 20.1 19.74 24.29 22.26 21.82 2.6 -2.58 -1.78 -10.56 -20.74 -23.39 l -1.52 1.58 z"/><path d="m 44.59 23.6 c 0 11.56 -9.37 20.95 -20.91 20.95 -11.54 0 -20.91 -9.38 -20.91 -20.95 0 -11.56 9.37 -20.95 20.91 -20.95 11.54 0 20.91 9.39 20.91 20.95 z"/></g><path d="m 18.2 39.6 c -9.72 -3.84 -13.73 -14.29 -9.1 -23.7 c 2 -4.1 7.25 -7.86 12.1 -8.69 4.48 -0.76 9.65 0.92 13.28 4.33 3.56 3.34 5.28 7.28 5.3 12.1 0.03 6.76 -3.55 12.41 -9.79 15.43 -2.09 1.01 -2.64 1.12 -6 1.21 -3.22 0.08 -4 -0.02 -5.76 -0.71 z" style="fill:#ff8c00"/></g><path d="m 119 90.1 c -18.2 0 -36.53 11.1 -36.53 27.83 v 30.54 h -13.46 v 68.2 h 101.2 v -68.2 c -0.55 0.13 -1.13 0.21 -1.72 0.21 h -47.2 c -0.6 0 -1.17 -0.08 -1.72 -0.21 h -20.43 l 0.01 -0.01 v -27.3 c 0 -10.29 11.24 -15.74 19.64 -15.78 9.78 -0.05 20.43 6.17 20.43 15.67 v 8.64 h 17.1 v -12.6 c 0 -12.61 -14.29 -26.99 -37.3 -26.99 z m 0.2 73.3 c 5.59 0 10.12 4.14 10.12 9.24 0 3.04 -1.61 5.74 -4.1 7.42 l 4 20.56 h -19.89 l 3.99 -20.46 c -2.57 -1.68 -4.26 -4.42 -4.26 -7.52 0 -5.1 4.54 -9.24 10.13 -9.24 z" style="fill:#fff;color:#000;fill-rule:evenodd"/></svg>