<svg xmlns="http://www.w3.org/2000/svg" viewBox="0 0 32 32"><path d="m 26.42 4.75 c 25.1 33.1 -44 37.86 -21.82 4 c 5.06 -7.71 15.18 -12.8 21.82 -4" style="fill:#fd6605"/><path d="m 21.96 24.6 h -0.53 v -12.51 c 0.64 -0.21 1.06 -0.83 1.06 -1.45 c 0 -0.83 -0.74 -1.55 -1.59 -1.55 c -0.74 0 -1.27 0.41 -1.48 1.04 h -4.22 c -0.11 -0.11 -0.32 -0.21 -0.43 -0.31 c -0.63 -0.41 -1.48 -0.82 -2.21 -0.62 c -0.11 0 -0.21 0.1 -0.21 0.1 c 0 0 -0.11 0.11 -0.11 0.21 l -5.28 6.93 c -0.74 1.04 -0.63 2.48 0.21 3.41 l 0.42 0.41 c 0.53 0.52 1.16 0.73 1.9 0.73 c 0.53 0 1.05 -0.21 1.58 -0.52 l 7.18 -5.17 c 0.53 -0.52 0.32 -1.14 0 -1.86 l 1.27 -1.96 c 0.21 0.31 0.42 0.52 0.84 0.62 v 12.51 h -0.53 c -0.32 0 -0.53 0.21 -0.53 0.52 c 0 0.31 0.21 0.52 0.53 0.52 h 2.11 c 0.32 0 0.53 -0.21 0.53 -0.52 c 0 -0.31 -0.21 -0.52 -0.53 -0.52 m -6.34 -12.62 c 1.9 1.86 1.9 2.48 1.9 2.59 c -0.11 0 -0.74 0 -2.64 -1.86 c -1.58 -1.66 -1.79 -2.38 -1.79 -2.59 c 0.11 0 0.42 0.1 1.05 0.52 c 0.42 0.31 0.84 0.73 1.48 1.34 m -3.38 6.41 c -0.53 -0.31 -1.27 -0.93 -1.8 -1.45 c -0.53 -0.31 -1.05 -1.04 -1.37 -1.65 l 1.37 -1.76 c 0.32 0.62 0.74 1.45 1.48 2.07 c 0.63 0.62 1.48 1.14 2.11 1.45 m 0.74 -0.83 c -0.63 -0.31 -1.37 -0.83 -2.11 -1.45 c -0.63 -0.52 -1.06 -1.24 -1.38 -2.07 c 0 -0.11 -0.11 -0.11 -0.11 -0.11 l 1.16 -1.55 c 0.32 0.62 0.95 1.34 1.9 2.28 c 0.63 0.72 1.48 1.55 2.32 1.96 l -1.59 1.14 c -0.11 -0.11 -0.11 -0.11 -0.21 -0.21 m -4.33 3.41 c -0.63 0.41 -1.48 0.41 -2 -0.2 l -0.42 -0.41 c -0.53 -0.52 -0.63 -1.45 -0.21 -2.07 l 0.63 -0.83 c 0.32 0.73 0.85 1.35 1.27 1.66 c 0.42 0.41 1.05 0.93 1.58 1.24 m 6.65 -6.1 c -0.42 -0.62 -1.05 -1.24 -1.58 -1.76 c -0.21 -0.21 -0.42 -0.31 -0.53 -0.52 h 3.48 c 0 0.11 0 0.11 0 0.21" style="fill:#fff"/></svg>