<svg xmlns="http://www.w3.org/2000/svg" viewBox="0 0 32 32"><path d="m 26.4 27.35 c 25.2 -33.3 -44.2 -38 -21.92 -4 c 5.08 7.75 15.23 12.86 21.92 4" style="fill:#0b7879"/><g style="fill:#fff"><path d="m 17.1 24.45 h -2.51 c -0.25 0 -0.42 0.27 -0.42 0.68 c 0 0.41 0.17 0.68 0.42 0.68 h 2.51 c 0.25 0 0.42 -0.27 0.42 -0.68 c 0 -0.41 -0.17 -0.68 -0.42 -0.68"/><path d="m 19.64 21.75 h -5 c -0.25 0 -0.42 0.27 -0.42 0.68 c 0 0.4 0.17 0.67 0.42 0.67 h 5 c 0.25 0 0.42 -0.27 0.42 -0.67 c 0 -0.41 -0.17 -0.68 -0.42 -0.68"/><path d="m 21.32 19 h -6.7 c -0.25 0 -0.42 0.27 -0.42 0.68 c 0 0.41 0.17 0.68 0.42 0.68 h 6.7 c 0.25 0 0.42 -0.27 0.42 -0.68 c 0 -0.41 -0.17 -0.68 -0.42 -0.68"/><path d="m 22.2 16.34 h -10 c -0.25 0 -0.42 0.27 -0.42 0.68 c 0 0.4 0.17 0.67 0.42 0.67 h 10 c 0.25 0 0.42 -0.27 0.42 -0.67 c 0 -0.41 -0.17 -0.68 -0.42 -0.68"/><path d="m 20.9 14.32 c 0 -0.41 -0.17 -0.68 -0.42 -0.68 h -10 c -0.25 0 -0.42 0.27 -0.42 0.68 c 0 0.41 0.17 0.68 0.42 0.68 h 10 c 0.25 0 0.42 -0.27 0.42 -0.68"/><path d="m 21.32 10.94 h -9.21 c -0.25 0 -0.42 0.27 -0.42 0.68 c 0 0.4 0.17 0.68 0.42 0.68 h 9.21 c 0.25 0 0.42 -0.27 0.42 -0.68 c 0 -0.41 -0.17 -0.68 -0.42 -0.68"/><path d="m 21.74 8.91 c 0 -0.4 -0.17 -0.68 -0.42 -0.68 h -11.72 c -0.25 0 -0.42 0.27 -0.42 0.68 c 0 0.41 0.17 0.68 0.42 0.68 h 11.72 c 0.25 0 0.42 -0.27 0.42 -0.68"/></g></svg>