<svg xmlns="http://www.w3.org/2000/svg" viewBox="0 0 32 32"><path d="m 7.47 28.66 c 11.9 10.56 30.2 -6.1 22.81 -20 c -7.49 -14.1 -32.3 -10.34 -30.2 6.97 c 0.63 5.15 3.46 9.62 7.35 13.1" style="fill:#689586"/><g style="fill:#fff"><path d="m 10.48 17.1 c 0.59 0 1.3 -0.12 1.89 -0.47 c 1.07 1.06 2.49 1.65 4 1.65 c 1.3 0 2.61 -0.47 3.67 -1.41 c 0.24 0.12 0.71 0.23 1.07 0.23 c 2.37 0 4.15 -1.77 4.15 -4.12 c 0 -2.36 -1.78 -4.12 -4.15 -4.12 h -0.12 c -1.07 -1.53 -2.84 -2.35 -4.62 -2.35 c -1.89 0 -3.67 0.94 -4.86 2.47 c -0.36 0 -0.71 -0.12 -1.07 -0.12 c -2.37 0 -4.15 1.77 -4.15 4.12 c 0 2.35 1.78 4.12 4.15 4.12 m 0 -7.1 c 0.36 0 0.71 0.12 1.07 0.23 c 0 0 0.12 0 0.12 0 c 0.12 0 0.24 0 0.24 -0.12 c 0.23 0 0.36 -0.12 0.36 -0.12 c 0.95 -1.41 2.37 -2.36 4.14 -2.36 c 1.42 0 2.73 0.59 3.55 1.65 c 0 0 0 0.12 0 0.12 c 0 0.35 0.24 0.59 0.59 0.59 h 0.59 c 1.66 0 2.96 1.29 2.96 2.94 c 0 1.65 -1.3 2.94 -2.96 2.94 c -0.23 0 -0.59 -0.12 -0.95 -0.23 c 0 0 0 0 -0.12 0 c 0 0 -0.12 0 -0.12 0 c 0 0 -0.12 0 -0.12 0 c 0 0 -0.12 0 -0.12 0 c 0 0 -0.12 0 -0.12 0 c 0 0 0 0 -0.12 0 c -0.83 0.94 -2 1.41 -3.08 1.41 c -1.3 0 -2.61 -0.59 -3.43 -1.53 c 0 0 -0.12 0 -0.12 -0.12 c 0 0 -0.12 0 -0.12 0 c 0 0 -0.12 0 -0.12 0 c 0 0 -0.12 0 -0.12 0 c 0 0 -0.12 0 -0.12 0 c 0 0 -0.12 0 -0.12 0 c -0.59 0.24 -1.19 0.47 -1.78 0.47 c -1.66 0 -2.96 -1.29 -2.96 -2.94 c 0 -1.65 1.3 -2.94 2.96 -2.94"/><path d="m 9.88 24.1 c 0 1.65 2.37 1.65 2.37 0 c 0 -0.71 -1.19 -2.36 -1.19 -2.36 c 0 0 -1.18 1.65 -1.18 2.36"/><path d="m 8.7 18.23 c 0 0 -1.19 1.64 -1.19 2.35 c 0 1.65 2.37 1.65 2.37 0 c 0 -0.71 -1.18 -2.35 -1.18 -2.35"/><path d="m 18.2 18.23 c 0 0 -1.18 1.64 -1.18 2.35 c 0 1.65 2.37 1.65 2.37 0 c 0 -0.71 -1.18 -2.35 -1.18 -2.35"/><path d="m 21.73 20.59 c 0 1.65 2.37 1.65 2.37 0 c 0 -0.71 -1.19 -2.35 -1.19 -2.35 c 0 0 -1.18 1.64 -1.18 2.35"/><path d="m 14.62 24.1 c 0 1.65 2.37 1.65 2.37 0 c 0 -0.71 -1.18 -2.36 -1.18 -2.36 c 0 0 -1.19 1.65 -1.19 2.36"/><path d="m 19.36 24.1 c 0 1.65 2.37 1.65 2.37 0 c 0 -0.71 -1.18 -2.36 -1.18 -2.36 c 0 0 -1.19 1.65 -1.19 2.36"/><path d="m 13.44 18.23 c 0 0 -1.18 1.64 -1.18 2.35 c 0 1.65 2.37 1.65 2.37 0 c 0 -0.71 -1.18 -2.35 -1.18 -2.35"/></g></svg>