<svg xmlns="http://www.w3.org/2000/svg" viewBox="0 0 32 32"><path d="m 7.47 3.33 c 11.9 -10.56 30.2 6.1 22.81 20 c -7.49 14.1 -32.3 10.34 -30.2 -6.97 c 0.63 -5.15 3.46 -9.62 7.35 -13.1" style="fill:#20b2aa"/><g style="fill:#fff"><path d="m 14.67 23.2 c 0 2.83 3.91 2.83 3.91 0 c 0 -1.23 -1.96 -4.05 -1.96 -4.05 c 0 0 -1.96 2.83 -1.96 4.05"/><path d="m 23.41 12.4 c -0.52 -2.46 -2.74 -4.3 -5.48 -4.3 c -2.22 0 -4.18 1.23 -5.09 3.07 c -0.65 -0.25 -1.43 -0.61 -2.22 -0.61 c -2.87 0 -5.09 2.34 -5.09 5.16 c 0 2.82 2.22 5.16 5.09 5.16 c 0.39 0 0.65 -0.25 0.65 -0.62 c 0 -0.37 -0.26 -0.61 -0.65 -0.61 c -2.09 0 -3.78 -1.72 -3.78 -3.93 c 0 -2.21 1.7 -3.93 3.78 -3.93 c 0.79 0 1.7 0.49 2.09 0.86 c 0.26 0.25 0.65 0.12 0.91 -0.13 c 0.13 -0.12 0.13 -0.25 0.13 -0.37 c 0.65 -1.72 2.35 -2.82 4.18 -2.82 c 2.21 0 3.91 1.59 4.3 3.68 c 0 0 0 0.12 0 0.12 c 0 0 0 0 0 0.13 c 0 0.12 0.13 0.12 0.13 0.12 c 0 0 0.13 0.13 0.13 0.13 c 1.7 0.37 2.61 1.6 2.61 3.07 c 0 1.84 -1.57 3.44 -3.26 3.44 c -0.39 0 -0.65 0.24 -0.65 0.61 c 0 0.37 0.26 0.61 0.65 0.61 c 2.48 0 4.57 -2.09 4.57 -4.67 c 0 -1.96 -1.18 -3.44 -3 -4.18"/></g></svg>