<svg xmlns="http://www.w3.org/2000/svg" viewBox="0 0 32 32"><path d="m 24.52 28.66 c -11.9 10.56 -30.2 -6.1 -22.81 -20 c 7.49 -14.1 32.3 -10.34 30.2 6.97 c -0.63 5.15 -3.46 9.62 -7.35 13.1" style="fill:#70706e"/><g style="fill:#fff"><path d="m 15.62 13.46 c 0 0 -1.82 2.54 -1.82 3.64 c 0 2.54 3.64 2.54 3.64 0 c 0 -1.11 -1.82 -3.64 -1.82 -3.64"/><path d="m 7.25 20.75 c 0 1.99 3.04 1.99 3.04 0 c 0 -0.77 -1.46 -2.88 -1.46 -2.88 c 0 0 -1.58 1.99 -1.58 2.88"/><path d="m 12.1 22.96 c 0 1.99 3 1.99 3 0 c 0 -0.77 -1.45 -2.87 -1.45 -2.87 c 0 0 -1.58 1.99 -1.58 2.87"/><path d="m 16.95 22.96 c 0 1.99 3 1.99 3 0 c 0 -0.77 -1.46 -2.87 -1.46 -2.87 c 0 0 -1.57 1.99 -1.57 2.87"/><path d="m 21.56 20.75 c 0 1.99 3 1.99 3 0 c 0.12 -0.77 -1.45 -2.88 -1.45 -2.88 c 0 0 -1.58 1.99 -1.58 2.88"/><path d="m 25.56 14 c 0 -1.55 -1.09 -2.87 -2.79 -3.54 c -0.48 -2.1 -2.55 -3.64 -5.09 -3.64 c -2.06 0 -3.76 0.99 -4.73 2.54 c -0.61 -0.33 -1.33 -0.44 -2.06 -0.44 c -2.55 0 -4.73 1.99 -4.73 4.31 c 0 2.32 2.18 4.31 4.73 4.31 c 0.36 0 0.61 -0.22 0.61 -0.55 c 0 -0.33 -0.24 -0.55 -0.61 -0.55 c -1.94 0 -3.52 -1.44 -3.52 -3.21 c 0 -1.77 1.57 -3.2 3.52 -3.2 c 0.73 0 1.45 0.22 1.94 0.55 c 0.18 0 0.32 0 0.49 0 c 0.32 0 0.48 -0.25 0.48 -0.44 c 0.61 -1.32 2.06 -2.21 3.88 -2.21 c 2.06 0 3.64 1.22 4 3.1 c -0.02 0.23 0.24 0.33 0.37 0.44 c 1.45 0.33 2.3 1.32 2.3 2.54 c 0 1.55 -1.33 2.88 -3 2.88 c -0.36 0 -0.61 0.22 -0.61 0.55 c 0 0.33 0.24 0.55 0.61 0.55 c 2.3 0 4.25 -1.77 4.25 -3.98"/></g></svg>