<svg xmlns="http://www.w3.org/2000/svg" viewBox="0 0 32 32"><path d="m 26.54 5.63 c 16.23 13 -7.54 36.54 -21.9 21.52 c -14.4 -12.93 8.1 -38 21.9 -21.52" style="fill:#70929f"/><g style="fill:#fff"><path d="m 11.1 21.1 c 0 0.66 -0.52 1.2 -1.15 1.2 c -0.63 0 -1.15 -0.54 -1.15 -1.2 c 0 -0.66 0.52 -1.19 1.15 -1.19 c 0.64 0 1.15 0.54 1.15 1.19"/><path d="m 22.6 21.1 c 0 0.66 -0.52 1.2 -1.15 1.2 c -0.64 0 -1.15 -0.54 -1.15 -1.2 c 0 -0.66 0.52 -1.19 1.15 -1.19 c 0.63 0 1.15 0.54 1.15 1.19"/><path d="m 20.3 24.71 c 0 0.66 -0.51 1.2 -1.15 1.2 c -0.64 0 -1.15 -0.54 -1.15 -1.2 c 0 -0.66 0.51 -1.19 1.15 -1.19 c 0.64 0 1.15 0.54 1.15 1.19"/><path d="m 13.4 24.71 c 0 0.66 -0.52 1.2 -1.15 1.2 c -0.64 0 -1.15 -0.54 -1.15 -1.2 c 0 -0.66 0.51 -1.19 1.15 -1.19 c 0.63 0 1.15 0.54 1.15 1.19"/><path d="m 16.85 22.32 c 0 0.66 -0.51 1.2 -1.15 1.2 c -0.64 0 -1.15 -0.54 -1.15 -1.2 c 0 -0.66 0.51 -1.2 1.15 -1.2 c 0.64 0 1.15 0.54 1.15 1.2"/><path d="m 20.88 10.38 c -1.15 -1.55 -2.76 -2.39 -4.6 -2.39 c -1.84 0 -3.56 0.96 -4.71 2.51 c -0.34 0 -0.69 -0.12 -1.04 -0.12 c -2.3 0 -4 1.79 -4 4.18 c 0 2.39 1.73 4.18 4 4.18 c 0.58 0 1.27 -0.12 1.84 -0.48 c 1.04 1.07 2.41 1.67 3.91 1.67 c 1.27 0 2.53 -0.48 3.57 -1.43 c 0.34 0.12 0.69 0.24 1.04 0.24 c 2.3 0 4 -1.79 4 -4.18 c 0 -2.39 -1.73 -4.18 -4 -4.18 m 0 7.16 c -0.23 0 -0.58 -0.12 -0.92 -0.24 c 0 0 0 0 -0.11 0 c 0 0 -0.12 0 -0.12 0 c 0 0 -0.11 0 -0.11 0 c 0 0 -0.12 0 -0.12 0 c 0 0 -0.11 0 -0.11 0.12 c -0.92 0.84 -2.07 1.31 -3.11 1.31 c -1.27 0 -2.53 -0.6 -3.34 -1.55 c 0 0 -0.11 0 -0.11 -0.12 c 0 0 -0.11 0 -0.11 0 c 0 0 -0.12 0 -0.12 0 c 0 0 -0.11 0 -0.11 0 c 0 0 -0.12 0 -0.12 0 c 0 0 -0.11 0 -0.11 0 c 0 0 0 0 -0.12 0 c -0.46 0.24 -1.03 0.48 -1.61 0.48 c -1.61 0 -2.88 -1.31 -2.88 -2.98 c 0 -1.67 1.27 -2.98 2.88 -2.98 c 0.35 0 0.69 0.12 1.04 0.24 c 0 0 0.12 0 0.12 0 c 0.11 0 0.23 0 0.23 -0.12 c 0.23 0 0.34 -0.12 0.34 -0.12 c 0.92 -1.43 2.3 -2.39 4 -2.39 c 1.5 0 2.88 0.71 3.79 2.15 c 0 0 0 0.12 0.12 0.12 c 0 0 0 0 0.11 0 c 0 0 0.12 0 0.12 0 c 0 0 0.11 0 0.11 0 c 0 0 0 0 0.12 0 h 0.34 c 1.5 0.12 2.76 1.43 2.76 3.1 c 0 1.67 -1.26 2.98 -2.87 2.98"/></g></svg>