<svg xmlns="http://www.w3.org/2000/svg" viewBox="0 0 32 32"><path d="m 17.35 31.77 c -19 1.82 -24.1 -28.84 -4.61 -31.2 c 17.95 -2.95 27.2 24.84 9.36 30.39 c -1.51 0.61 -3.16 0.6 -4.75 0.82" style="fill:#00ced0"/><g style="fill:#fff"><path d="m 21.34 10.48 c -1.19 -1.66 -2.86 -2.56 -4.77 -2.56 c -1.91 0 -3.7 1.02 -4.89 2.68 c -0.36 0 -0.71 -0.13 -1.07 -0.13 c -2.39 0 -4.18 1.92 -4.18 4.48 c 0 2.55 1.79 4.48 4.18 4.48 c 0.6 0 1.31 -0.13 1.91 -0.51 c 1.07 1.15 2.51 1.79 4.06 1.79 c 1.31 0 2.63 -0.51 3.7 -1.54 c 0.36 0.13 0.72 0.26 1.07 0.26 c 2.39 0 4.18 -1.92 4.18 -4.48 c 0 -2.56 -1.79 -4.48 -4.18 -4.48 m 0 7.67 c -0.24 0 -0.59 -0.13 -0.95 -0.25 c -0.19 0 -0.3 0 -0.48 0 c 0 0 -0.12 0 -0.12 0.13 c -0.95 0.9 -2.15 1.41 -3.22 1.41 c -1.31 0 -2.63 -0.64 -3.46 -1.66 c 0 0 -0.12 0 -0.12 -0.13 c -0.24 0 -0.47 0 -0.71 0 c -0.48 0.26 -1.07 0.51 -1.67 0.51 c -1.67 0 -2.98 -1.41 -2.98 -3.2 c 0 -1.79 1.31 -3.2 2.98 -3.2 c 0.36 0 0.71 0.13 1.07 0.25 c 0.25 -0.05 0.52 -0.12 0.71 -0.25 c 1.21 -1.61 2.71 -2.53 4.18 -2.56 c 1.43 0 2.75 0.64 3.58 1.79 v 0.13 c 0 0.38 0.24 0.64 0.6 0.64 h 0.59 c 1.67 0 2.98 1.41 2.98 3.2 c 0 1.79 -1.31 3.2 -2.98 3.2"/><path d="m 14.78 25.32 c 0 2.3 2.98 2.3 2.98 0 c -0.12 -0.89 -1.55 -3.32 -1.55 -3.32 c 0 0 -1.43 2.3 -1.43 3.32"/><path d="m 20.45 23.49 c 0 2.3 2.98 2.3 2.98 0 c -0.12 -0.9 -1.55 -3.33 -1.55 -3.33 c 0 0 -1.43 2.3 -1.43 3.33"/><path d="m 8.64 23.55 c 0 2.3 2.98 2.3 2.98 0 c -0.12 -0.9 -1.55 -3.33 -1.55 -3.33 c 0 0 -1.43 2.3 -1.43 3.33"/></g></svg>