<svg xmlns="http://www.w3.org/2000/svg" viewBox="0 0 32 32"><path d="m 24.2 29.61 c 27.94 -24 -29.52 -47.1 -23.62 -9.97 c 1.3 8.15 16.1 16.45 23.62 9.97" style="fill:#695acd"/><g style="fill:#fff"><path d="m 21.2 10.91 c -1.27 -1.79 -3.04 -2.76 -5.1 -2.76 c -2.02 0 -3.92 1.1 -5.18 2.89 c -0.38 0 -0.76 -0.14 -1.14 -0.14 c -2.53 0 -4.42 2.07 -4.42 4.82 c 0 2.75 1.89 4.82 4.42 4.82 c 0.63 0 1.39 -0.14 2.02 -0.55 c 1.14 1.24 2.65 1.93 4.3 1.93 c 1.39 0 2.78 -0.55 3.92 -1.65 c 0.38 0.14 0.76 0.27 1.14 0.27 c 2.53 0 4.42 -2.07 4.42 -4.82 c 0 -2.75 -1.89 -4.82 -4.42 -4.82 m 0 8.27 c -0.25 0 -0.63 -0.14 -1.01 -0.28 c -0.21 0.01 -0.63 -0.07 -0.63 0.14 c -1.01 0.96 -2.27 1.52 -3.41 1.52 c -1.39 0 -2.78 -0.69 -3.66 -1.79 c -0.2 -0.2 -0.55 -0.14 -0.89 -0.14 c -0.5 0.27 -1.14 0.55 -1.77 0.55 c -1.77 0 -3.16 -1.52 -3.16 -3.45 c 0 -1.93 1.39 -3.45 3.16 -3.45 c 0.38 0 0.76 0.14 1.14 0.28 h 0.13 c 0.25 -0.09 0.47 -0.16 0.63 -0.28 c 1 -1.65 2.53 -2.75 4.42 -2.75 c 1.52 0 2.91 0.69 3.79 1.93 v 0.14 c 0 0.41 0.25 0.69 0.63 0.69 h 0.63 c 1.77 0 3.16 1.52 3.16 3.45 c 0 1.93 -1.39 3.45 -3.16 3.45"/><path d="m 11.68 22.61 c 0 0.38 -0.29 0.69 -0.63 0.69 c -0.35 0 -0.63 -0.31 -0.63 -0.69 c 0 -0.38 0.29 -0.69 0.63 -0.69 c 0.35 0 0.63 0.31 0.63 0.69"/><path d="m 14.2 23.99 c 0 0.38 -0.29 0.69 -0.63 0.69 c -0.35 0 -0.63 -0.31 -0.63 -0.69 c 0 -0.38 0.29 -0.69 0.63 -0.69 c 0.35 0 0.63 0.31 0.63 0.69"/><path d="m 16.73 25.37 c 0 0.38 -0.29 0.69 -0.63 0.69 c -0.35 0 -0.63 -0.31 -0.63 -0.69 c 0 -0.38 0.29 -0.69 0.63 -0.69 c 0.35 0 0.63 0.31 0.63 0.69"/><path d="m 19.26 23.99 c 0 0.38 -0.29 0.69 -0.63 0.69 c -0.35 0 -0.63 -0.31 -0.63 -0.69 c 0 -0.38 0.28 -0.69 0.63 -0.69 c 0.35 0 0.63 0.31 0.63 0.69"/><path d="m 21.79 22.61 c 0 0.38 -0.29 0.69 -0.63 0.69 c -0.35 0 -0.63 -0.31 -0.63 -0.69 c 0 -0.38 0.28 -0.69 0.63 -0.69 c 0.35 0 0.63 0.31 0.63 0.69"/></g></svg>