<svg xmlns="http://www.w3.org/2000/svg" viewBox="0 0 32 32"><path d="m 27.41 26.1 c 19.96 -28.38 -31.96 -37.41 -26.81 -7.25 c 2.73 11.99 18.81 18.63 26.81 7.25" style="fill:#4c5262"/><g style="fill:#fff"><path d="m 10.54 18.81 c -2.42 0 -4.23 -1.89 -4.23 -4.42 c 0 -2.53 1.81 -4.43 4.23 -4.43 c 0.48 0 0.97 0.13 1.57 0.25 c 0.24 0.13 0.48 0.51 0.36 0.89 c -0.12 0.25 -0.48 0.5 -0.85 0.38 c -0.36 -0.13 -0.72 -0.25 -1.09 -0.25 c -1.69 0 -3 1.39 -3 3.16 c 0 1.77 1.33 3.16 3 3.16 c 0.61 0 1.21 -0.25 1.69 -0.51 c 0.24 -0.13 0.61 -0.13 0.85 0.25 c 0.24 0.38 0.12 0.63 -0.24 0.89 c -0.73 0.38 -1.57 0.63 -2.3 0.63"/><path d="m 21.43 18.81 c -0.48 0 -1.21 -0.25 -1.45 -0.25 c -0.36 -0.13 -0.48 -0.51 -0.36 -0.76 c 0.12 -0.38 0.48 -0.51 0.73 -0.38 c 0.48 0 0.85 0.13 1.09 0.13 c 1.69 0 3 -1.39 3 -3.16 c 0 -1.77 -1.33 -3.16 -3 -3.16 h -0.61 c -0.36 0 -0.61 -0.25 -0.61 -0.63 c 0 -0.38 0.24 -0.63 0.61 -0.63 h 0.61 c 2.42 0 4.23 1.89 4.23 4.43 c 0 2.53 -1.81 4.42 -4.23 4.42"/><path d="m 16.59 20.1 c -1.7 0 -3.27 -0.76 -4.48 -2.15 c -0.24 -0.25 -0.24 -0.63 0 -0.89 c 0.24 -0.25 0.61 -0.25 0.85 0 c 0.97 1.14 2.3 1.77 3.63 1.77 c 1.09 0 2.3 -0.5 3.26 -1.39 c 0.24 -0.25 0.61 -0.25 0.85 0 c 0.24 0.25 0.24 0.63 0 0.89 c -1.21 1.14 -2.66 1.77 -4.11 1.77"/><path d="m 11.87 11.48 c -0.12 0 -0.24 0 -0.36 -0.13 c -0.24 -0.13 -0.36 -0.51 -0.12 -0.89 c 1.09 -1.89 3 -3.04 5.2 -3.04 c 2.05 0 3.87 1.01 4.96 2.78 c 0.24 0.25 0.12 0.63 -0.12 0.89 c -0.24 0.25 -0.61 0.13 -0.85 -0.13 c -0.97 -1.52 -2.42 -2.28 -3.99 -2.28 c -1.7 0 -3.27 0.89 -4.23 2.53 c -0.12 0.13 -0.24 0.25 -0.48 0.25"/><path d="m 8.73 18.95 l -1.21 1.89 l 1.21 1.9 l 1.21 -1.9"/><path d="m 23.2 18.95 l -1.21 1.89 l 1.21 1.9 l 1.21 -1.9"/><path d="m 19.61 20.71 l -1.21 1.9 l 1.21 1.89 l 1.21 -1.89"/><path d="m 12.36 20.84 l -1.21 1.9 l 1.21 1.89 l 1.21 -1.89"/><path d="m 15.98 22.83 l -1.21 1.89 l 1.21 1.9 l 1.21 -1.9"/></g></svg>