<svg xmlns="http://www.w3.org/2000/svg" viewBox="0 0 32 32"><path d="m 5.89 26.52 c 13.5 16.1 36.3 -7.49 20.88 -21.76 c -13.36 -14.31 -37.79 8 -20.88 21.76" style="fill:#4581b3"/><path d="m 11.14 20.54 c 0.37 0 0.61 -0.26 0.61 -0.64 c 0 -0.39 -0.25 -0.64 -0.61 -0.64 c -1.96 0 -3.55 -1.67 -3.55 -3.73 c 0 -2.06 1.59 -3.73 3.55 -3.73 c 0.73 0 1.47 0.26 1.96 0.64 c 0.18 0 0.52 0 0.73 0 c 0.09 -0.08 0.24 -0.16 0.25 -0.26 c 0 -0.09 0 -0.18 0 -0.26 c 0.61 -1.54 2.08 -2.57 3.92 -2.57 c 1.96 0 3.43 1.29 3.92 3.09 c 0 0.13 0 0.39 0.12 0.51 c 0.13 0.26 0.37 0.52 0.61 0.52 c 0.08 0 0.16 0 0.25 0 c 1.1 0.52 1.84 1.67 1.84 2.96 c 0 1.8 -1.35 3.34 -3.06 3.34 c -0.37 0 -0.61 0.25 -0.61 0.64 c 0 0.39 0.25 0.64 0.61 0.64 c 2.33 0 4.29 -2.06 4.29 -4.63 c 0 -1.93 -1.1 -3.6 -2.82 -4.25 c -0.61 -2.45 -2.69 -4.12 -5.14 -4.12 c -2.08 0 -3.8 1.16 -4.78 2.96 c -0.61 -0.39 -1.35 -0.52 -2.08 -0.52 c -2.57 0 -4.78 2.32 -4.78 5 c 0 2.7 2.2 5 4.78 5" style="fill:#fff"/><path d="m 16.77 16.1 c 0.45 0.15 0.44 0.02 0.08 2.27 c -0.13 0.8 -0.22 1.47 -0.2 1.49 c 0.02 0.02 0.08 -0.02 0.15 -0.07 c 2.07 -1.73 2.6 -2.05 3 -1.85 c 0.2 0.1 0.24 0.18 0.24 0.42 c 0 0.52 -0.23 0.68 -1.84 1.29 c -1.67 0.64 -1.57 0.59 -1.45 0.65 c 0.05 0.03 0.53 0.21 1.05 0.39 c 2.18 0.77 2.48 1 2.11 1.59 c -0.31 0.48 -0.71 0.41 -1.44 -0.26 c -0.68 -0.62 -1.72 -1.47 -1.79 -1.47 c -0.08 0 -0.09 -0.08 0.17 1.46 c 0.25 1.45 0.28 1.88 0.15 2.04 c -0.25 0.3 -0.73 0.41 -0.94 0.21 c -0.31 -0.29 -0.37 -0.65 -0.21 -1.27 c 0.16 -0.62 0.46 -2.44 0.42 -2.48 c -0.04 -0.04 -0.44 0.28 -1.52 1.22 c -0.5 0.44 -0.89 0.73 -1.07 0.79 c -0.26 0.1 -0.29 0.09 -0.53 -0.02 c -0.24 -0.12 -0.25 -0.14 -0.27 -0.5 c -0.02 -0.31 0 -0.39 0.11 -0.49 c 0.08 -0.06 0.78 -0.36 1.57 -0.66 c 0.79 -0.3 1.44 -0.57 1.45 -0.6 c 0.01 -0.03 -0.54 -0.26 -1.22 -0.52 c -1.94 -0.73 -1.93 -0.72 -1.93 -1.19 c 0 -0.34 0.05 -0.43 0.34 -0.57 c 0.27 -0.18 0.37 -0.07 0.64 0.07 c 0.21 0.11 0.83 0.57 1.39 1.04 c 0.55 0.46 1.02 0.83 1.04 0.82 c 0.04 -0.04 -0.14 -1.07 -0.35 -2.07 c -0.2 -0.91 -0.21 -1.25 -0.05 -1.53 c 0.28 -0.32 0.65 -0.3 0.92 -0.22" style="fill:#f4f4f4"/></svg>