<svg xmlns="http://www.w3.org/2000/svg" viewBox="0 0 32 32"><path d="m 5.89 5.57 c 13.5 -16.1 36.3 7.49 20.88 21.76 c -13.36 14.31 -37.79 -8 -20.88 -21.76" style="fill:#0c363f"/><path d="m 21.1 18.53 c -0.36 0 -0.59 -0.24 -0.59 -0.61 c 0 -0.37 0.23 -0.61 0.59 -0.61 c 1.88 0 3.41 -1.57 3.41 -3.52 c 0 -1.94 -1.53 -3.52 -3.41 -3.52 c -0.71 0 -1.41 0.24 -1.88 0.61 c -0.18 0 -0.5 0 -0.71 0 c -0.09 -0.07 -0.23 -0.16 -0.23 -0.24 c 0 -0.09 0 -0.17 0 -0.24 c -0.59 -1.46 -2 -2.43 -3.77 -2.43 c -1.88 0 -3.3 1.21 -3.77 2.91 c 0 0.12 0 0.36 -0.12 0.48 c -0.12 0.24 -0.35 0.48 -0.59 0.48 c -0.08 0 -0.16 0 -0.23 0 c -1.06 0.48 -1.77 1.58 -1.77 2.79 c 0 1.7 1.3 3.15 2.94 3.15 c 0.36 0 0.59 0.25 0.59 0.61 c 0 0.36 -0.23 0.61 -0.59 0.61 c -2.23 0 -4.12 -1.94 -4.12 -4.37 c 0 -1.82 1.06 -3.39 2.71 -4 c 0.59 -2.3 2.59 -3.88 4.94 -3.88 c 2 0 3.65 1.09 4.59 2.79 c 0.59 -0.36 1.29 -0.48 2 -0.48 c 2.47 0 4.59 2.18 4.59 4.73 c 0 2.55 -2.12 4.73 -4.59 4.73" style="fill:#fff"/><g style="fill:#f4f4f4"><path d="m 19.1 18.22 c -0.11 -0.35 -0.02 -0.34 -1.69 -0.06 c -0.6 0.1 -1.1 0.17 -1.11 0.16 c -0.02 -0.01 0.01 -0.07 0.05 -0.11 c 1.29 -1.62 1.53 -2.03 1.38 -2.35 c -0.07 -0.16 -0.13 -0.19 -0.31 -0.19 c -0.38 0 -0.5 0.18 -0.96 1.44 c -0.47 1.3 -0.44 1.22 -0.48 1.13 c -0.02 -0.04 -0.15 -0.41 -0.29 -0.82 c -0.57 -1.7 -0.75 -1.94 -1.18 -1.64 c -0.36 0.25 -0.31 0.55 0.19 1.13 c 0.46 0.54 1.09 1.34 1.09 1.4 c 0 0.06 0.06 0.07 -1.09 -0.13 c -1.08 -0.19 -1.4 -0.22 -1.52 -0.12 c -0.22 0.2 -0.3 0.57 -0.16 0.73 c 0.22 0.24 0.48 0.29 0.95 0.17 c 0.46 -0.12 1.81 -0.36 1.84 -0.32 c 0.03 0.04 -0.2 0.34 -0.91 1.19 c -0.32 0.39 -0.54 0.7 -0.59 0.83 c -0.07 0.21 -0.07 0.23 0.02 0.41 c 0.09 0.19 0.1 0.2 0.37 0.21 c 0.23 0.01 0.29 0 0.36 -0.09 c 0.05 -0.05 0.27 -0.61 0.49 -1.22 c 0.23 -0.61 0.43 -1.13 0.45 -1.13 c 0.02 -0.01 0.2 0.42 0.38 0.95 c 0.54 1.51 0.54 1.5 0.89 1.5 c 0.25 0 0.32 -0.04 0.42 -0.27 c 0.13 -0.21 0.05 -0.29 -0.05 -0.5 c -0.08 -0.16 -0.43 -0.65 -0.77 -1.09 c -0.35 -0.43 -0.62 -0.8 -0.61 -0.81 c 0.03 -0.03 0.8 0.11 1.54 0.27 c 0.67 0.15 0.93 0.16 1.14 0.04 c 0.24 -0.22 0.23 -0.51 0.16 -0.71"/><path d="m 7.09 23.1 c 0.1 0.29 0.01 0.29 1.52 0.05 c 0.54 -0.09 0.99 -0.15 1 -0.14 c 0.01 0.01 -0.01 0.06 -0.04 0.1 c -1.16 1.38 -1.38 1.73 -1.24 2 c 0.07 0.13 0.12 0.16 0.28 0.16 c 0.34 0 0.45 -0.15 0.87 -1.23 c 0.43 -1.11 0.39 -1.04 0.43 -0.96 c 0.02 0.04 0.14 0.35 0.27 0.7 c 0.52 1.45 0.67 1.65 1.06 1.4 c 0.32 -0.21 0.27 -0.47 -0.17 -0.96 c -0.41 -0.46 -0.98 -1.14 -0.98 -1.19 c 0 -0.05 -0.05 -0.06 0.98 0.11 c 0.97 0.16 1.26 0.18 1.36 0.1 c 0.2 -0.16 0.27 -0.48 0.14 -0.62 c -0.2 -0.21 -0.43 -0.25 -0.85 -0.14 c -0.41 0.1 -1.63 0.3 -1.66 0.28 c -0.03 -0.03 0.18 -0.29 0.82 -1.02 c 0.29 -0.33 0.49 -0.59 0.53 -0.71 c 0.07 -0.18 0.06 -0.2 -0.01 -0.35 c -0.08 -0.16 -0.09 -0.17 -0.33 -0.18 c -0.21 -0.01 -0.26 0 -0.33 0.08 c -0.04 0.05 -0.24 0.52 -0.44 1.04 c -0.2 0.52 -0.38 0.96 -0.4 0.96 c -0.02 0.01 -0.18 -0.36 -0.35 -0.81 c -0.48 -1.29 -0.48 -1.28 -0.8 -1.28 c -0.23 0 -0.29 0.03 -0.38 0.23 c -0.12 0.18 -0.05 0.25 0.05 0.42 c 0.07 0.14 0.38 0.56 0.69 0.93 c 0.31 0.37 0.56 0.68 0.55 0.69 c -0.02 0.03 -0.72 -0.09 -1.39 -0.23 c -0.6 -0.13 -0.83 -0.14 -1.02 -0.04 c -0.22 0.19 -0.21 0.44 -0.15 0.61"/><path d="m 19.42 22.91 c 0.1 0.3 0.01 0.3 1.51 0.05 c 0.53 -0.09 0.98 -0.15 0.99 -0.14 c 0.01 0.01 -0.01 0.05 -0.04 0.1 c -1.15 1.41 -1.36 1.77 -1.23 2.04 c 0.07 0.14 0.12 0.17 0.28 0.17 c 0.34 0 0.45 -0.16 0.86 -1.25 c 0.42 -1.13 0.39 -1.07 0.43 -0.99 c 0.02 0.04 0.14 0.36 0.26 0.72 c 0.52 1.48 0.67 1.69 1.05 1.43 c 0.32 -0.21 0.27 -0.48 -0.17 -0.98 c -0.41 -0.46 -0.98 -1.17 -0.98 -1.22 c 0 -0.05 -0.05 -0.06 0.97 0.12 c 0.96 0.17 1.25 0.19 1.35 0.1 c 0.2 -0.17 0.27 -0.49 0.14 -0.63 c -0.19 -0.21 -0.43 -0.25 -0.84 -0.15 c -0.41 0.11 -1.61 0.32 -1.64 0.29 c -0.03 -0.03 0.18 -0.3 0.81 -1.04 c 0.29 -0.34 0.48 -0.61 0.52 -0.73 c 0.06 -0.18 0.06 -0.2 -0.02 -0.36 c -0.08 -0.16 -0.09 -0.17 -0.32 -0.18 c -0.21 -0.01 -0.26 0 -0.32 0.08 c -0.04 0.05 -0.24 0.53 -0.44 1.07 c -0.2 0.54 -0.38 0.98 -0.39 0.98 c -0.02 0.01 -0.17 -0.37 -0.34 -0.83 c -0.48 -1.32 -0.48 -1.31 -0.79 -1.31 c -0.23 0 -0.28 0.04 -0.38 0.23 c -0.12 0.18 -0.04 0.25 0.05 0.43 c 0.07 0.14 0.38 0.57 0.69 0.95 c 0.31 0.38 0.55 0.7 0.54 0.71 c -0.03 0.03 -0.71 -0.09 -1.38 -0.24 c -0.6 -0.13 -0.82 -0.14 -1.02 -0.04 c -0.21 0.19 -0.2 0.44 -0.14 0.62"/></g></svg>