<svg xmlns="http://www.w3.org/2000/svg" xmlns:xlink="http://www.w3.org/1999/xlink" viewBox="0 0 32 32"><defs><g id="3" style="clip-path:url(#2)"><path d="m 8.51 23.97 c 0 2.16 2.95 2.16 2.95 0 c 0 -0.84 -1.42 -3.13 -1.42 -3.13 c 0 0 -1.54 2.16 -1.54 3.13" style="fill:#fff"/><path d="m 21.1 23.92 c 0 2.16 2.96 2.16 2.96 0 c 0 -0.84 -1.42 -3.13 -1.42 -3.13 c 0 0 -1.54 2.16 -1.54 3.13" style="fill:#fff"/></g><clipPath id="2"><path d="M 0,0 H32 V32 H0 z"/></clipPath><filter id="0" filterUnits="objectBoundingBox" x="0" y="0" width="32" height="32"><feColorMatrix type="matrix" in="SourceGraphic" values="0 0 0 0 1 0 0 0 0 1 0 0 0 0 1 0 0 0 1 0"/></filter><mask id="1"><g style="filter:url(#0)"><path d="M 0,0 H32 V32 H0 z" style="fill-opacity:0.75"/></g></mask></defs><path d="m 5.46 5.63 c -16.24 13 7.54 36.54 21.9 21.52 c 14.4 -12.93 -8.1 -38 -21.9 -21.52" style="fill:#213352"/><path d="m 11.21 19 c 0.35 0 0.59 -0.24 0.59 -0.61 c 0 -0.36 -0.23 -0.61 -0.59 -0.61 c -1.88 0 -3.41 -1.57 -3.41 -3.52 c 0 -1.94 1.53 -3.52 3.41 -3.52 c 0.7 0 1.41 0.24 1.88 0.61 c 0.17 0 0.5 0 0.7 0 c 0.09 -0.07 0.23 -0.16 0.24 -0.24 c 0 -0.09 0 -0.17 0 -0.24 c 0.59 -1.46 2 -2.43 3.77 -2.43 c 1.88 0 3.29 1.21 3.76 2.91 c 0 0.12 0 0.36 0.12 0.48 c 0.12 0.24 0.35 0.48 0.59 0.48 c 0.08 0 0.16 0 0.23 0 c 1.06 0.49 1.77 1.58 1.77 2.79 c 0 1.7 -1.29 3.16 -2.94 3.16 c -0.35 0 -0.59 0.24 -0.59 0.61 c 0 0.36 0.23 0.61 0.59 0.61 c 2.23 0 4.12 -1.94 4.12 -4.37 c 0 -1.82 -1.06 -3.39 -2.7 -4 c -0.59 -2.3 -2.59 -3.88 -4.94 -3.88 c -2 0 -3.65 1.09 -4.59 2.79 c -0.59 -0.36 -1.3 -0.48 -2 -0.48 c -2.47 0 -4.59 2.18 -4.59 4.73 c 0 2.55 2.12 4.73 4.59 4.73" style="fill:#fff"/><path d="m 16.1 23.2 c -0.43 -0.15 -0.43 -0.02 -0.07 -2.33 c 0.13 -0.82 0.21 -1.51 0.2 -1.53 c -0.02 -0.02 -0.08 0.02 -0.14 0.07 c -2 1.77 -2.51 2.1 -2.91 1.89 c -0.2 -0.1 -0.24 -0.18 -0.24 -0.43 c 0 -0.53 0.22 -0.69 1.79 -1.32 c 1.61 -0.65 1.51 -0.61 1.4 -0.66 c -0.05 -0.03 -0.51 -0.21 -1.02 -0.4 c -2.11 -0.79 -2.4 -1.03 -2.04 -1.62 c 0.3 -0.5 0.69 -0.42 1.4 0.26 c 0.66 0.64 1.66 1.51 1.73 1.51 c 0.08 0 0.09 0.09 -0.16 -1.5 c -0.24 -1.49 -0.27 -1.93 -0.14 -2.08 c 0.24 -0.3 0.71 -0.42 0.91 -0.21 c 0.3 0.3 0.36 0.66 0.21 1.3 c -0.15 0.63 -0.45 2.5 -0.4 2.54 c 0.04 0.04 0.43 -0.28 1.48 -1.25 c 0.48 -0.45 0.87 -0.75 1.04 -0.81 c 0.25 -0.1 0.28 -0.1 0.51 0.02 c 0.23 0.13 0.24 0.14 0.26 0.51 c 0.02 0.32 0 0.4 -0.11 0.5 c -0.07 0.07 -0.76 0.37 -1.52 0.68 c -0.76 0.31 -1.39 0.58 -1.4 0.61 c -0.01 0.03 0.52 0.27 1.18 0.53 c 1.88 0.74 1.87 0.74 1.87 1.22 c 0 0.35 -0.05 0.44 -0.33 0.58 c -0.26 0.18 -0.36 0.07 -0.62 -0.07 c -0.2 -0.11 -0.8 -0.59 -1.34 -1.06 c -0.54 -0.48 -0.99 -0.85 -1 -0.84 c -0.04 0.04 0.13 1.1 0.34 2.12 c 0.19 0.93 0.2 1.27 0.05 1.56 c -0.27 0.33 -0.63 0.31 -0.89 0.23" style="fill:#f4f4f4"/><use xlink:href="#3" style="mask:url(#1)"/></svg>