<svg xmlns="http://www.w3.org/2000/svg" viewBox="0 0 32 32"><path d="m 12.93 31.3 c -2.92 -1.25 -6.98 -3.08 -7.34 -3.32 c -0.22 -0.14 -0.59 -0.52 -0.82 -0.82 c -0.67 -0.88 -4.27 -7.15 -4.41 -7.71 c -0.14 -0.52 -0.08 -2.41 0.14 -4.12 c 0.5 -5 0.25 -4.93 0.91 -6 c 0.14 -0.29 1.57 -1.96 3.18 -3.71 c 3.09 -3.36 3.42 -3.64 4.73 -3.89 c 3.51 -0.61 5.73 -1.36 8.89 -1.54 c 2.81 1.2 5.83 2.45 8.48 3.95 c 0.41 0.36 1.03 1.29 2.41 3.64 c 2.83 4.82 2.6 4.3 2.58 5.98 c -0.28 2.63 -0.27 7 -1.18 8.88 c -0.32 0.59 -4.44 5.24 -5.74 6.48 c -0.65 0.61 -1.3 0.89 -2.8 1.21 c -1.53 0.57 -5.11 1.16 -6.34 1.39 c -0.71 0.16 -1.54 0.11 -2.68 -0.38" style="fill:#4069e0"/><path d="m 20.96 13.96 l 3.16 1.48 c 0.13 0 0.13 0 0.25 0 c 0.25 0 0.5 -0.12 0.63 -0.37 c 0.13 -0.25 0 -0.62 -0.25 -0.86 l -2.27 -1.11 l 2 -1.11 c 0.25 -0.12 0.38 -0.49 0.25 -0.86 c -0.13 -0.37 -0.63 -0.37 -0.88 -0.13 l -2.14 1.11 l 0.25 -2.47 c 0 -0.37 -0.25 -0.62 -0.51 -0.62 c -0.38 0 -0.63 0.25 -0.63 0.5 l -0.5 3.34 l -3.79 2.1 v -4.2 l 2.77 -1.98 c 0.25 -0.25 0.38 -0.62 0.13 -0.86 c -0.25 -0.25 -0.63 -0.37 -0.89 -0.13 l -2 1.36 v -2.35 c 0 -0.37 -0.25 -0.62 -0.63 -0.62 c -0.38 0 -0.63 0.25 -0.63 0.62 v 2.35 l -2 -1.36 c -0.25 -0.25 -0.63 -0.13 -0.88 0.13 c -0.25 0.25 -0.13 0.62 0.13 0.86 l 2.78 1.98 v 4.32 l -3.66 -2.35 l -0.38 -3.34 c 0 -0.37 -0.38 -0.62 -0.63 -0.49 c -0.38 0 -0.63 0.37 -0.63 0.74 l 0.25 2.35 l -2 -1.23 c -0.38 -0.25 -0.76 -0.12 -0.88 0.13 c -0.25 0.37 -0.13 0.74 0.13 0.86 l 2.14 1.24 l -2.27 0.99 c -0.38 0.25 -0.5 0.62 -0.38 0.86 c 0.13 0.25 0.38 0.37 0.63 0.37 c 0.13 0 0.13 0 0.25 0 l 3 -1.36 l 3.79 2.22 l -3.79 2.1 l -3.15 -1.48 c -0.25 -0.12 -0.63 0 -0.88 0.25 c -0.13 0.37 0 0.74 0.38 0.99 l 2.27 1.11 l -2.14 1.11 c -0.25 0.13 -0.38 0.5 -0.25 0.87 c 0.13 0.25 0.38 0.37 0.5 0.37 c 0.13 0 0.25 0 0.25 -0.12 l 2.14 -1.11 l -0.25 2.47 c 0 0.37 0.25 0.62 0.5 0.62 c 0 0 0 0 0.13 0 c 0.38 0 0.63 -0.25 0.63 -0.5 l 0.5 -3.46 l 3.79 -2.1 v 4.32 l -2.78 1.98 c -0.25 0.25 -0.38 0.62 -0.13 0.87 c 0.13 0.12 0.38 0.25 0.5 0.25 c 0.13 0 0.25 0 0.38 -0.13 l 2 -1.48 v 2.35 c 0 0.37 0.25 0.62 0.63 0.62 c 0.38 0 0.63 -0.25 0.63 -0.62 v -2.35 l 2 1.36 c 0.25 0.25 0.63 0.12 0.89 -0.13 c 0.25 -0.25 0.13 -0.62 -0.13 -0.86 l -2.77 -1.98 v -4.2 l 3.66 2.22 l 0.38 3.34 c 0 0.37 0.25 0.5 0.63 0.5 c 0 0 0 0 0.13 0 c 0.38 0 0.63 -0.37 0.5 -0.62 l -0.25 -2.47 l 2 1.23 c 0.13 0 0.25 0.13 0.38 0.13 c 0.25 0 0.38 -0.13 0.5 -0.25 c 0.13 -0.25 0.13 -0.62 -0.25 -0.87 l -2.14 -1.23 l 2.27 -0.99 c 0.38 -0.13 0.5 -0.49 0.38 -0.86 c -0.13 -0.37 -0.5 -0.5 -0.88 -0.37 l -3 1.36 l -3.66 -2.23" style="fill:#fff"/></svg>