<svg xmlns="http://www.w3.org/2000/svg" viewBox="0 0 32 32"><path d="m 27.41 6 c 19.96 28.38 -31.96 37.41 -26.81 7.25 c 2.73 -11.99 18.81 -18.63 26.81 -7.25" style="fill:#6395ec"/><path d="m 21 12.32 c -2.46 0 -4.53 1.5 -5 3.49 c -0.52 -2 -2.59 -3.49 -5.17 -3.49 c -2.98 0 -5.3 2 -5.3 4.37 c 0 2.37 2.33 4.37 5.3 4.37 c 2.59 0 4.66 -1.5 5.17 -3.5 c 0.52 2 2.59 3.5 5 3.5 c 2.84 0 5.18 -2 5.18 -4.37 c 0 -2.37 -2.33 -4.37 -5.18 -4.37 m -10.22 7.48 c -2.2 0 -4 -1.37 -4 -3.12 c 0 -1.75 1.81 -3.12 4 -3.12 c 2.2 0 4 1.38 4 3.12 c 0 1.75 -1.81 3.12 -4 3.12 m 10.22 0 c -2.2 0 -3.88 -1.37 -3.88 -3.12 c 0 -1.75 1.68 -3.12 3.88 -3.12 c 2.2 0 3.88 1.38 3.88 3.12 c 0 1.75 -1.68 3.12 -3.88 3.12" style="fill:#fff"/></svg>