<svg xmlns="http://www.w3.org/2000/svg" viewBox="0 0 32 32"><path d="m 5.6 27.35 c -25.2 -33.3 44.2 -38 21.93 -4 c -5.08 7.75 -15.24 12.86 -21.93 4" style="fill:#297296"/><g style="fill:#fff"><path d="m 24.1 11.75 c 0 -2.54 -2.6 -4.68 -6.32 -5.62 c 1.81 1.07 2.94 2.68 2.94 4.28 c 0 3.34 -4.52 6 -10.16 6 c -1.36 0 -2.59 -0.13 -3.84 -0.4 c 1.8 1.07 4.4 1.74 7.22 1.74 c 2.37 0 4.63 -0.54 6.32 -1.34 c -0.34 2.41 -3.72 4.28 -7.9 4.28 c -1.02 0 -2.04 -0.13 -2.94 -0.4 c 1.47 0.8 3.39 1.34 5.64 1.34 c 1.36 0 2.6 -0.27 3.73 -0.54 c 0.11 0.27 0.22 0.54 0.22 0.8 c 0 1.74 -2.37 3.08 -5.3 3.08 c -0.68 0 -1.35 -0.14 -2.03 -0.27 c 0.9 0.67 2.26 1.07 3.73 1.07 c 2.93 0 5.3 -1.34 5.3 -3.08 c 0 -0.67 -0.45 -1.34 -1.13 -2 c 2.03 -0.8 3.39 -2.27 3.39 -3.75 c 0 -0.67 -0.23 -1.34 -0.68 -1.87 c 1.13 -0.94 1.81 -2.14 1.81 -3.34"/><path d="m 10.52 9.1 c 0 0.37 -0.25 0.67 -0.56 0.67 c -0.31 0 -0.57 -0.3 -0.57 -0.67 c 0 -0.37 0.25 -0.67 0.57 -0.67 c 0.31 0 0.56 0.3 0.56 0.67"/><path d="m 16.2 9.1 c 0 0.37 -0.25 0.67 -0.57 0.67 c -0.31 0 -0.56 -0.3 -0.56 -0.67 c 0 -0.37 0.25 -0.67 0.56 -0.67 c 0.31 0 0.57 0.3 0.57 0.67"/><path d="m 13.91 11.75 c 0 0.37 -0.25 0.67 -0.56 0.67 c -0.31 0 -0.57 -0.3 -0.57 -0.67 c 0 -0.37 0.25 -0.67 0.57 -0.67 c 0.31 0 0.56 0.3 0.56 0.67"/><path d="m 8.27 13.1 c 0 0.37 -0.25 0.67 -0.56 0.67 c -0.31 0 -0.57 -0.3 -0.57 -0.67 c 0 -0.37 0.25 -0.67 0.57 -0.67 c 0.31 0 0.56 0.3 0.56 0.67"/><path d="m 11.65 14.43 c 0 0.37 -0.25 0.67 -0.56 0.67 c -0.31 0 -0.57 -0.3 -0.57 -0.67 c 0 -0.37 0.25 -0.67 0.57 -0.67 c 0.31 0 0.56 0.3 0.56 0.67"/><path d="m 17.3 13.1 c 0 0.37 -0.25 0.67 -0.57 0.67 c -0.31 0 -0.56 -0.3 -0.56 -0.67 c 0 -0.37 0.25 -0.67 0.56 -0.67 c 0.31 0 0.57 0.3 0.57 0.67"/><path d="m 11.65 19.78 c 0 0.37 -0.25 0.67 -0.56 0.67 c -0.31 0 -0.57 -0.3 -0.57 -0.67 c 0 -0.37 0.25 -0.67 0.57 -0.67 c 0.31 0 0.56 0.3 0.56 0.67"/><path d="m 15 19.78 c 0 0.37 -0.25 0.67 -0.56 0.67 c -0.31 0 -0.57 -0.3 -0.57 -0.67 c 0 -0.37 0.25 -0.67 0.57 -0.67 c 0.31 0 0.56 0.3 0.56 0.67"/><path d="m 12.78 23.79 c 0 0.37 -0.25 0.67 -0.56 0.67 c -0.31 0 -0.57 -0.3 -0.57 -0.67 c 0 -0.37 0.25 -0.67 0.57 -0.67 c 0.31 0 0.56 0.3 0.56 0.67"/></g></svg>