<svg xmlns="http://www.w3.org/2000/svg" viewBox="0 0 32 32"><path d="m 4.64 6.19 c 33.3 -26.65 38 42.57 4 21.75 c -7.75 -4.75 -12.86 -14.69 -4 -21.75" style="fill:#4c7896"/><g style="fill:#fff"><path d="m 23.62 12.18 c -1.22 0 -2.23 1.09 -2.23 2.41 c 0 0.48 0.11 0.85 0.34 1.21 h -13.15 c -0.34 0 -0.56 0.24 -0.56 0.6 c 0 0.36 0.22 0.61 0.56 0.61 h 15 c 1.23 0 2.23 -1.09 2.23 -2.42 c 0 -1.33 -1 -2.41 -2.23 -2.41"/><path d="m 20.28 19.43 h -11.7 c -0.34 0 -0.56 0.24 -0.56 0.6 c 0 0.36 0.22 0.61 0.56 0.61 h 9.8 c -0.22 0.36 -0.34 0.73 -0.34 1.21 c 0 1.33 1 2.42 2.23 2.42 c 1.22 0 2.23 -1.09 2.23 -2.42 c 0 -1.33 -1 -2.41 -2.23 -2.41"/><path d="m 8.58 13.39 h 8.36 c 1.23 0 2.23 -1.09 2.23 -2.42 c 0 -1.33 -1 -2.42 -2.23 -2.42 c -1.23 0 -2.23 1.09 -2.23 2.42 c 0 0.48 0.11 0.85 0.33 1.21 h -6.46 c -0.34 0 -0.56 0.24 -0.56 0.6 c 0 0.36 0.22 0.61 0.56 0.61"/></g></svg>