<svg xmlns="http://www.w3.org/2000/svg" viewBox="0 0 32 32"><path d="m 26.4 27.35 c 25.2 -33.3 -44.2 -38 -21.92 -4 c 5.08 7.75 15.23 12.86 21.92 4" style="fill:#3e4a79"/><g style="fill:#fff"><path d="m 20.96 18 c -0.02 -0.34 -0.22 -0.69 -0.51 -1.03 c 0.77 -0.46 1.27 -1.14 1.23 -1.83 c -0.02 -0.34 -0.13 -0.57 -0.32 -0.91 c 0.69 -0.46 1.09 -1.15 1.04 -1.95 c -0.12 -1.95 -2.97 -3.43 -6.45 -3.43 c -3.47 0 -6.14 1.49 -6 3.43 c 0.05 0.8 0.54 1.49 1.28 1.95 c -0.16 0.34 -0.23 0.57 -0.21 0.91 c 0.04 0.69 0.62 1.37 1.45 1.83 c -0.25 0.34 -0.41 0.69 -0.38 1.03 c 0.04 0.57 0.42 1.03 1.06 1.38 c -0.08 0.11 -0.07 0.23 -0.07 0.34 c 0.04 0.57 0.6 1.03 1.51 1.38 c -0.34 0.23 -0.5 0.57 -0.48 0.92 c 0.03 0.46 0.5 0.91 1.14 1.26 c -0.08 0.11 -0.16 0.34 -0.15 0.46 c 0.04 0.57 0.78 1.03 1.85 1.15 c 0.04 0.69 0.69 1.14 1.41 1.14 c 0.71 0 1.31 -0.46 1.27 -1.14 c -0.01 -0.23 -0.12 -0.46 -0.31 -0.69 c 0.16 -0.23 0.25 -0.34 0.23 -0.57 c -0.01 -0.11 -0.11 -0.23 -0.11 -0.34 c 0.6 -0.34 0.93 -0.8 0.9 -1.26 c -0.03 -0.46 -0.41 -0.92 -0.96 -1.15 c 0.52 -0.34 0.85 -0.69 0.82 -1.14 c -0.01 -0.11 -0.02 -0.23 -0.11 -0.34 c 0.6 -0.34 0.93 -0.8 0.89 -1.38 m -10.59 -5.73 c -0.08 -1.38 2.23 -2.86 5.62 -2.86 c 3.39 0 5.88 1.49 5.96 2.86 c 0.04 0.57 -0.29 1.14 -0.88 1.61 c -0.95 -0.92 -2.86 -1.61 -4.91 -1.61 c -2.05 0 -3.88 0.69 -4.71 1.61 c -0.65 -0.46 -1.04 -1.03 -1.08 -1.61 m 10.18 1.83 c -0.95 0.57 -2.43 1.03 -4.21 1.03 c -1.78 0 -3.32 -0.46 -4.34 -1.03 c 0.76 -0.69 2.33 -1.26 4.2 -1.26 c 1.87 0 3.51 0.57 4.35 1.26 m -9.11 1.03 c -0.01 -0.23 0.07 -0.34 0.14 -0.57 c 1.2 0.69 2.92 1.14 4.79 1.14 c 1.87 0 3.54 -0.46 4.65 -1.14 c 0.11 0.23 0.2 0.34 0.21 0.57 c 0.03 0.46 -0.47 1.03 -1.25 1.49 c -0.84 -0.57 -2.11 -0.91 -3.62 -0.91 c -1.52 0 -2.74 0.34 -3.51 0.91 c -0.83 -0.46 -1.4 -1.03 -1.43 -1.49 m 7.95 1.72 c -0.78 0.34 -1.75 0.57 -2.91 0.57 c -1.16 0 -2.15 -0.23 -2.97 -0.57 c 0.69 -0.34 1.66 -0.57 2.9 -0.57 c 1.25 0 2.24 0.23 2.98 0.57 m -0.23 8 c 0.02 0.23 -0.32 0.57 -0.86 0.57 c -0.54 0 -0.91 -0.34 -0.93 -0.57 c 0.63 0 1.15 -0.12 1.5 -0.34 c 0.18 0.11 0.28 0.23 0.29 0.34 m -1.36 -0.46 c 0.09 0 0.26 -0.11 0.44 -0.11 c -0.09 0 -0.26 0.11 -0.44 0.11 m 1.3 -0.69 c 0 0.12 0 0.12 -0.08 0.23 c -0.18 -0.11 -0.46 -0.23 -0.82 -0.23 c -0.53 0 -0.96 0.23 -1.2 0.69 c -0.99 -0.11 -1.45 -0.46 -1.47 -0.69 c 0 -0.11 0.08 -0.11 0.16 -0.23 c 0.45 0.11 1 0.23 1.62 0.23 c 0.63 0 1.15 -0.11 1.59 -0.23 c 0.1 0.11 0.19 0.11 0.2 0.23 m -2.53 -0.57 c 0.18 0 0.44 -0.12 0.71 -0.12 c 0.27 0 0.54 0 0.72 0.12 c -0.18 0 -0.45 0 -0.71 0 c -0.27 0 -0.45 0 -0.71 0 m 3.32 -1.14 c 0.02 0.23 -0.32 0.57 -0.93 0.8 c -0.46 -0.23 -1 -0.34 -1.71 -0.34 c -0.63 0 -1.24 0.11 -1.66 0.46 c -0.64 -0.23 -1.02 -0.57 -1.04 -0.91 c -0.02 -0.23 0.23 -0.57 0.66 -0.8 c 0.45 0.12 0.99 0.23 1.53 0.23 c 0.8 0 1.42 -0.11 2.03 -0.34 c 0.73 0.23 1.11 0.69 1.13 0.92 m -0.14 -2.29 c 0.01 0.23 -0.32 0.57 -1.02 0.8 c -0.45 -0.11 -0.99 -0.23 -1.62 -0.23 c -0.71 0 -1.42 0.11 -1.93 0.46 c -1.08 -0.23 -1.64 -0.69 -1.67 -1.03 c 0 0 0 0 0 -0.11 c 0.83 0.46 1.91 0.69 3.16 0.69 c 1.25 0 2.3 -0.23 3.09 -0.57 m -5.82 -0.46 c 0.52 -0.34 1.39 -0.69 2.63 -0.69 c 1.25 0 2.25 0.34 2.71 0.69 c -0.7 0.34 -1.58 0.46 -2.65 0.46 c -1.07 0 -1.97 -0.23 -2.7 -0.46 m 5.86 -0.34 c -0.65 -0.46 -1.84 -0.92 -3.26 -0.92 c -1.43 0 -2.55 0.46 -3.15 0.92 c -0.55 -0.23 -0.84 -0.57 -0.86 -0.92 c -0.02 -0.23 0.15 -0.46 0.4 -0.69 c 1 0.46 2.27 0.69 3.61 0.69 c 1.34 0 2.57 -0.23 3.52 -0.69 c 0.28 0.23 0.48 0.46 0.49 0.69 c 0.02 0.34 -0.23 0.69 -0.75 0.92"/><path d="m 9.19 15 c -0.32 0.02 -0.57 -0.22 -0.57 -0.54 c 0 -0.32 0.25 -0.59 0.57 -0.61 c 0.31 -0.02 0.57 0.22 0.57 0.54 c 0 0.32 -0.25 0.59 -0.57 0.61"/><path d="m 9.44 18.1 c -0.31 0.02 -0.57 -0.21 -0.57 -0.52 c 0 -0.3 0.25 -0.56 0.57 -0.58 c 0.32 -0.02 0.57 0.21 0.57 0.52 c 0 0.3 -0.25 0.56 -0.57 0.58"/><path d="m 11.77 21.47 c -0.31 0.02 -0.57 -0.21 -0.57 -0.51 c 0 -0.31 0.25 -0.57 0.57 -0.6 c 0.32 -0.02 0.57 0.2 0.57 0.51 c 0 0.3 -0.25 0.57 -0.57 0.6"/><path d="m 6.61 8.77 c 0.02 0.34 -0.24 0.63 -0.58 0.63 c -0.34 0 -0.64 -0.28 -0.66 -0.63 c -0.02 -0.34 0.24 -0.62 0.58 -0.62 c 0.34 0 0.64 0.28 0.66 0.62"/><path d="m 13.79 24.1 c 0.02 0.27 -0.16 0.49 -0.41 0.49 c -0.25 0 -0.46 -0.22 -0.48 -0.49 c -0.02 -0.27 0.16 -0.5 0.41 -0.5 c 0.25 0 0.46 0.22 0.48 0.5"/><path d="m 21.63 21.4 c -0.32 0.02 -0.57 -0.19 -0.57 -0.46 c 0 -0.27 0.25 -0.51 0.57 -0.53 c 0.32 -0.02 0.57 0.19 0.57 0.46 c 0 0.27 -0.26 0.51 -0.57 0.53"/><path d="m 22.29 17.94 c -0.32 0.02 -0.57 -0.18 -0.57 -0.43 c 0 -0.26 0.26 -0.49 0.57 -0.51 c 0.32 -0.02 0.57 0.18 0.57 0.44 c 0 0.26 -0.25 0.48 -0.57 0.5"/><path d="m 21.56 8.31 c 0.02 0.32 -0.23 0.57 -0.56 0.57 c -0.33 0 -0.61 -0.26 -0.63 -0.57 c -0.02 -0.32 0.23 -0.57 0.56 -0.57 c 0.33 0 0.61 0.26 0.63 0.57"/><path d="m 10.58 8.41 c 0.02 0.37 -0.28 0.67 -0.68 0.67 c -0.39 0 -0.73 -0.3 -0.76 -0.67 c -0.02 -0.38 0.28 -0.68 0.68 -0.68 c 0.4 0 0.74 0.3 0.76 0.68"/><path d="m 16.1 11.1 c 0.02 0.4 -0.27 0.72 -0.65 0.72 c -0.38 0 -0.71 -0.32 -0.74 -0.72 c -0.02 -0.4 0.27 -0.72 0.65 -0.72 c 0.38 0 0.71 0.32 0.74 0.72"/><path d="m 18 14 c 0.02 0.32 -0.23 0.57 -0.56 0.57 c -0.33 0 -0.61 -0.26 -0.63 -0.57 c -0.02 -0.32 0.23 -0.57 0.56 -0.57 c 0.33 0 0.61 0.26 0.63 0.57"/><path d="m 7.81 12.16 c -0.42 0.02 -0.77 -0.28 -0.77 -0.68 c 0 -0.4 0.34 -0.75 0.77 -0.77 c 0.42 -0.03 0.77 0.28 0.77 0.68 c 0 0.4 -0.34 0.75 -0.77 0.77"/></g></svg>