<svg xmlns="http://www.w3.org/2000/svg" viewBox="0 0 32 32"><path d="m 2.33 7.93 c 24.2 -27.99 47.4 29.57 10 23.65 c -8.2 -1.3 -16.55 -16.1 -10 -23.65" style="fill:#5f9d9f"/><g style="fill:#fff"><path d="m 20.31 13 c -2.2 0 -4 1.2 -4.5 2.77 c -0.46 -1.56 -2.31 -2.77 -4.62 -2.77 c -2.66 0 -4.74 1.56 -4.74 3.61 c 0 2.05 2.08 3.61 4.74 3.61 c 2.31 0 4.16 -1.2 4.62 -2.77 c 0.46 1.56 2.31 2.77 4.5 2.77 c 2.54 0 4.63 -1.56 4.63 -3.61 c 0 -2.05 -2.08 -3.61 -4.63 -3.61 m -9.13 6 c -1.96 0 -3.58 -1.08 -3.58 -2.41 c 0 -1.32 1.62 -2.41 3.58 -2.41 c 1.96 0 3.58 1.08 3.58 2.41 c 0 1.32 -1.62 2.41 -3.58 2.41 m 9.13 0 c -1.85 0 -3.46 -1.08 -3.46 -2.41 c 0 -1.32 1.62 -2.41 3.46 -2.41 c 1.85 0 3.47 1.08 3.47 2.41 c 0 1.32 -1.62 2.41 -3.47 2.41"/><path d="m 9.91 9.39 c 0 0.66 -0.52 1.2 -1.16 1.2 c -0.64 0 -1.15 -0.54 -1.15 -1.2 c 0 -0.66 0.52 -1.2 1.15 -1.2 c 0.64 0 1.16 0.54 1.16 1.2"/><path d="m 23.78 9.39 c 0 0.66 -0.52 1.2 -1.16 1.2 c -0.64 0 -1.16 -0.54 -1.16 -1.2 c 0 -0.66 0.52 -1.2 1.16 -1.2 c 0.64 0 1.16 0.54 1.16 1.2"/><path d="m 9.91 23.82 c 0 0.66 -0.52 1.2 -1.16 1.2 c -0.64 0 -1.15 -0.54 -1.15 -1.2 c 0 -0.66 0.52 -1.2 1.15 -1.2 c 0.64 0 1.16 0.54 1.16 1.2"/><path d="m 23.78 23.82 c 0 0.66 -0.52 1.2 -1.16 1.2 c -0.64 0 -1.16 -0.54 -1.16 -1.2 c 0 -0.66 0.52 -1.2 1.16 -1.2 c 0.64 0 1.16 0.54 1.16 1.2"/><path d="m 16.85 22.62 c 0 0.66 -0.52 1.2 -1.16 1.2 c -0.64 0 -1.16 -0.54 -1.16 -1.2 c 0 -0.66 0.52 -1.2 1.16 -1.2 c 0.64 0 1.16 0.54 1.16 1.2"/><path d="m 16.85 10.59 c 0 0.66 -0.52 1.2 -1.16 1.2 c -0.64 0 -1.16 -0.54 -1.16 -1.2 c 0 -0.66 0.52 -1.2 1.16 -1.2 c 0.64 0 1.16 0.54 1.16 1.2"/></g></svg>