<svg xmlns="http://www.w3.org/2000/svg" viewBox="0 0 32 32"><path d="m 29.66 7.93 c -24.2 -27.99 -47.4 29.57 -10 23.65 c 8.2 -1.3 16.55 -16.1 10 -23.65" style="fill:#707f8f"/><g style="fill:#fff"><path d="m 20.31 13.1 c -2.2 0 -4 1.18 -4.5 2.73 c -0.46 -1.54 -2.31 -2.73 -4.62 -2.73 c -2.66 0 -4.74 1.54 -4.74 3.55 c 0 2 2.08 3.56 4.74 3.56 c 2.31 0 4.16 -1.19 4.62 -2.73 c 0.46 1.54 2.31 2.73 4.5 2.73 c 2.54 0 4.63 -1.54 4.63 -3.56 c 0 -2 -2.08 -3.55 -4.63 -3.55 m -9.13 5.93 c -1.96 0 -3.58 -1.07 -3.58 -2.37 c 0 -1.3 1.62 -2.37 3.58 -2.37 c 1.96 0 3.58 1.07 3.58 2.37 c 0 1.3 -1.62 2.37 -3.58 2.37 m 9.13 0 c -1.85 0 -3.46 -1.07 -3.46 -2.37 c 0 -1.3 1.62 -2.37 3.46 -2.37 c 1.85 0 3.47 1.07 3.47 2.37 c 0 1.3 -1.62 2.37 -3.47 2.37"/><path d="m 9.91 9.52 c 0 0.66 -0.52 1.19 -1.16 1.19 c -0.64 0 -1.15 -0.53 -1.15 -1.19 c 0 -0.65 0.52 -1.18 1.15 -1.18 c 0.64 0 1.16 0.53 1.16 1.18"/><path d="m 23.78 9.52 c 0 0.66 -0.52 1.19 -1.16 1.19 c -0.64 0 -1.16 -0.53 -1.16 -1.19 c 0 -0.65 0.52 -1.18 1.16 -1.18 c 0.64 0 1.16 0.53 1.16 1.18"/><path d="m 9.91 23.74 c 0 0.66 -0.52 1.19 -1.16 1.19 c -0.64 0 -1.15 -0.53 -1.15 -1.19 c 0 -0.65 0.52 -1.18 1.15 -1.18 c 0.64 0 1.16 0.53 1.16 1.18"/><path d="m 23.78 23.74 c 0 0.66 -0.52 1.19 -1.16 1.19 c -0.64 0 -1.16 -0.53 -1.16 -1.19 c 0 -0.65 0.52 -1.18 1.16 -1.18 c 0.64 0 1.16 0.53 1.16 1.18"/><path d="m 14.54 22.56 c 0 0.66 -0.52 1.18 -1.15 1.18 c -0.64 0 -1.16 -0.53 -1.16 -1.18 c 0 -0.66 0.52 -1.19 1.16 -1.19 c 0.64 0 1.15 0.53 1.15 1.19"/><path d="m 19.2 22.56 c 0 0.66 -0.52 1.18 -1.16 1.18 c -0.64 0 -1.16 -0.53 -1.16 -1.18 c 0 -0.66 0.52 -1.19 1.16 -1.19 c 0.64 0 1.16 0.53 1.16 1.19"/><path d="m 14.54 10.7 c 0 0.65 -0.52 1.18 -1.15 1.18 c -0.64 0 -1.16 -0.53 -1.16 -1.18 c 0 -0.66 0.52 -1.19 1.16 -1.19 c 0.64 0 1.15 0.53 1.15 1.19"/><path d="m 19.2 10.7 c 0 0.65 -0.52 1.18 -1.16 1.18 c -0.64 0 -1.16 -0.53 -1.16 -1.18 c 0 -0.66 0.52 -1.19 1.16 -1.19 c 0.64 0 1.16 0.53 1.16 1.19"/></g></svg>