<svg xmlns="http://www.w3.org/2000/svg" viewBox="0 0 32 32"><path d="m 26.52 26.57 c -13.1 16.2 -36.76 -7.5 -21.65 -21.79 c 13 -14.32 38.3 8 21.65 21.79" style="fill:#ee6708"/><path d="m 15.83 4.57 c -6.46 0 -11.69 5.2 -11.69 11.61 c 0 6.41 5.23 11.6 11.69 11.6 c 6.45 0 11.69 -5.2 11.69 -11.6 c 0 -6.41 -5.23 -11.61 -11.69 -11.61 m 0 0.87 c 5.97 0 10.81 4.81 10.81 10.74 c 0 5.93 -4.84 10.73 -10.81 10.73 c -5.97 0 -10.82 -4.8 -10.82 -10.73 c 0 -5.93 4.84 -10.74 10.82 -10.74 m 0 2.08 c -0.07 0 -0.16 0 -0.23 0 c -1.41 0.04 -2.73 0.41 -3.89 1.04 c -0.13 0.07 -0.27 0.14 -0.39 0.22 c -2.42 1.47 -4.05 4.09 -4.13 7.09 c -0.01 0.07 -0.01 0.14 -0.01 0.21 c 0 0.07 0 0.15 0.01 0.23 c 0.03 1.4 0.41 2.73 1.05 3.88 c 0.07 0.13 0.14 0.25 0.22 0.38 c 0.34 0.55 0.75 1.06 1.2 1.52 l 1.96 -1.95 c -1.04 -1.05 -1.67 -2.48 -1.67 -4.07 c 0 -3.21 2.62 -5.81 5.86 -5.81 c 1.28 0 2.48 0.41 3.44 1.11 c 0.07 0.06 0.15 0.11 0.23 0.18 l 1.97 -1.96 c -0.35 -0.3 -0.74 -0.59 -1.14 -0.83 c -0.13 -0.07 -0.26 -0.14 -0.39 -0.21 c -1.16 -0.63 -2.48 -1 -3.89 -1.04 c -0.07 0 -0.15 0 -0.22 0 m 6.59 3.04 l -1.98 1.96 c 0.03 0.03 0.05 0.06 0.08 0.09 c 0.32 0.43 0.58 0.9 0.78 1.41 l 2.68 -0.72 c -0.16 -0.46 -0.36 -0.9 -0.59 -1.33 c -0.07 -0.13 -0.15 -0.25 -0.23 -0.38 c -0.23 -0.37 -0.48 -0.71 -0.75 -1.04 m 1.9 4.05 l -2.69 0.71 c 0.03 0.25 0.05 0.5 0.05 0.75 c 0 0.33 -0.03 0.64 -0.08 0.95 l 2.69 0.71 c 0.09 -0.48 0.15 -0.97 0.16 -1.47 c 0 -0.06 0 -0.13 0 -0.2 c 0 -0.08 0 -0.16 0 -0.25 c -0.02 -0.42 -0.06 -0.82 -0.13 -1.22 m -8.53 0.33 c -0.77 0 -1.35 0.69 -1.21 1.43 c 0.1 0.59 0.62 1.02 1.21 1.02 c 0.21 0 0.4 -0.05 0.57 -0.13 l 3.61 2.56 c 0.08 0.06 0.19 0.04 0.25 -0.03 c 0.07 -0.08 0.06 -0.19 -0.01 -0.25 l -3.21 -3.04 c 0.05 -0.18 0.07 -0.36 0.03 -0.56 c -0.11 -0.58 -0.63 -1.01 -1.23 -1 m 0.02 0.78 c 0.1 0 0.2 0.04 0.28 0.1 c 0.09 0.07 0.14 0.18 0.16 0.3 c 0.02 0.25 -0.16 0.46 -0.41 0.49 c -0.12 0 -0.23 -0.03 -0.32 -0.1 c -0.09 -0.07 -0.15 -0.18 -0.16 -0.3 c -0.02 -0.25 0.16 -0.46 0.4 -0.48 c 0.02 0 0.04 0 0.05 0 m 5.42 2.6 c -0.29 0.68 -0.71 1.3 -1.22 1.82 l 1.96 1.95 c 0.46 -0.48 0.88 -1 1.22 -1.57 c 0.08 -0.13 0.16 -0.25 0.23 -0.38 c 0.19 -0.35 0.36 -0.72 0.5 -1.11" style="fill:#fff"/></svg>