<svg xmlns="http://www.w3.org/2000/svg" viewBox="0 0 32 32"><path d="m 26.48 5.6 c 16.2 13 -7.5 36.48 -21.79 21.48 c -14.32 -12.91 8 -37.95 21.79 -21.48" style="fill:#084670"/><path d="m 15.86 4.58 c -6.43 0 -11.65 5.19 -11.65 11.6 c 0 6.41 5.21 11.61 11.65 11.61 c 6.43 0 11.64 -5.2 11.64 -11.61 c 0 -6.41 -5.21 -11.6 -11.64 -11.6 m 0 0.87 c 5.95 0 10.77 4.8 10.77 10.73 c 0 5.93 -4.82 10.73 -10.77 10.73 c -5.95 0 -10.78 -4.8 -10.78 -10.73 c 0 -5.93 4.82 -10.73 10.78 -10.73 m 0 2.07 c -0.07 0 -0.15 0 -0.22 0 c -1.4 0.04 -2.72 0.41 -3.88 1.04 c -0.13 0.07 -0.26 0.14 -0.38 0.22 c -2.41 1.47 -4 4.09 -4.11 7.09 c 0 0.07 0 0.14 0 0.22 c 0 0.07 0 0.15 0 0.22 c 0.04 1.41 0.41 2.73 1.05 3.89 c 0.07 0.13 0.14 0.26 0.22 0.38 c 0.34 0.55 0.74 1.06 1.2 1.52 l 1.95 -1.94 c -1.03 -1.05 -1.66 -2.48 -1.66 -4.07 c 0 -3.21 2.61 -5.82 5.84 -5.82 c 1.28 0 2.46 0.41 3.43 1.11 c 0.07 0.06 0.15 0.12 0.22 0.18 l 1.97 -1.96 c -0.36 -0.3 -0.73 -0.59 -1.14 -0.83 c -0.13 -0.07 -0.25 -0.15 -0.38 -0.22 c -1.16 -0.63 -2.48 -1 -3.88 -1.04 c -0.07 0 -0.15 0 -0.22 0 m -0.02 2.84 c -0.1 0 -0.18 0.08 -0.18 0.17 l -0.29 4.4 c -0.16 0.07 -0.32 0.19 -0.45 0.34 c -0.38 0.45 -0.38 1.13 0 1.58 c 0.49 0.59 1.39 0.59 1.89 0.01 c 0.38 -0.45 0.39 -1.12 0.01 -1.58 c -0.13 -0.16 -0.29 -0.27 -0.46 -0.35 l -0.34 -4.39 c 0 -0.1 -0.09 -0.17 -0.18 -0.17 m 6.59 0.22 l -1.96 1.96 c 0.02 0.03 0.05 0.05 0.07 0.09 c 0.32 0.43 0.58 0.9 0.78 1.41 l 2.68 -0.71 c -0.16 -0.46 -0.36 -0.91 -0.59 -1.33 c -0.07 -0.13 -0.14 -0.26 -0.22 -0.38 c -0.23 -0.36 -0.48 -0.7 -0.75 -1.03 m 1.9 4 l -2.68 0.71 c 0.04 0.25 0.05 0.5 0.05 0.76 c 0 0.32 -0.03 0.64 -0.08 0.95 l 2.68 0.71 c 0.09 -0.48 0.15 -0.97 0.16 -1.47 c 0 -0.07 0 -0.13 0 -0.19 c 0 -0.09 0 -0.17 0 -0.25 c -0.01 -0.41 -0.06 -0.82 -0.13 -1.22 m -8.46 0.98 c 0.11 0 0.23 0.05 0.31 0.13 c 0.09 0.09 0.13 0.2 0.13 0.31 c 0 0.12 -0.04 0.23 -0.13 0.32 c -0.18 0.18 -0.46 0.17 -0.63 0 c -0.09 -0.09 -0.13 -0.2 -0.13 -0.31 c 0 -0.11 0.04 -0.23 0.13 -0.32 c 0.09 -0.09 0.2 -0.13 0.32 -0.13 m 5.39 2.73 c -0.29 0.68 -0.7 1.3 -1.21 1.82 l 1.95 1.95 c 0.46 -0.47 0.88 -1 1.22 -1.57 c 0.08 -0.13 0.15 -0.25 0.22 -0.38 c 0.19 -0.35 0.36 -0.72 0.5 -1.1 l -2.68 -0.71" style="fill:#fff;fill-opacity:0.5"/></svg>