<svg xmlns="http://www.w3.org/2000/svg" viewBox="0 0 32 32"><path d="m 16.1 0.39 c 21.1 -2.4 20.81 31.99 -0.38 31.59 c -19.71 1.14 -21.49 -33.45 0.38 -31.59" style="fill:#7a68ed"/><path d="m 15.93 7 c -1.91 0.01 -3.45 1.7 -3.46 3.79 v 5.64 h 6.93 v -5.64 c -0.01 -2.09 -1.55 -3.78 -3.46 -3.79 m 5.54 1.3 c -0.18 0 -0.31 0.15 -0.31 0.34 v 7.49 c 0 0.19 0.14 0.34 0.31 0.34 h 0.02 c 0.17 0 0.31 -0.15 0.31 -0.34 v -7.49 c 0 -0.19 -0.14 -0.34 -0.31 -0.34 m -6.37 0.57 c 0.27 0 0.49 0.24 0.49 0.54 c 0 0.3 -0.21 0.54 -0.49 0.54 c -0.27 0 -0.49 -0.24 -0.49 -0.54 c 0 -0.29 0.21 -0.54 0.49 -0.54 m 1.62 0 c 0.27 0 0.5 0.24 0.5 0.54 c 0 0.3 -0.22 0.54 -0.5 0.54 c -0.27 0 -0.49 -0.24 -0.49 -0.54 c 0 -0.29 0.22 -0.54 0.49 -0.54 m 5.76 0.86 c -0.18 0 -0.31 0.15 -0.31 0.34 v 4.74 c 0 0.19 0.14 0.35 0.31 0.35 h 0.02 c 0.17 0 0.32 -0.16 0.32 -0.35 v -4.74 c 0 -0.19 -0.14 -0.34 -0.32 -0.34 m -12.36 0.13 c -0.01 0 -0.02 0 -0.02 0 c -0.11 -0.01 -0.23 0.06 -0.27 0.21 l -0.95 4.29 l -0.57 -2.86 c -0.03 -0.14 -0.12 -0.21 -0.23 -0.21 c -0.1 -0.04 -0.22 0.01 -0.29 0.14 l -0.84 1.79 l -0.29 -0.73 c -0.06 -0.14 -0.17 -0.18 -0.27 -0.15 h -0.75 c -0.36 0 -0.36 0.61 0 0.61 h 0.6 l 0.45 1.14 c 0.05 0.13 0.15 0.18 0.25 0.15 c 0.09 0.01 0.18 -0.04 0.23 -0.15 l 0.76 -1.61 l 0.67 3.33 c 0.03 0.16 0.14 0.22 0.25 0.21 c 0.12 0.02 0.24 -0.05 0.27 -0.21 l 0.94 -4.26 l 0.22 1.18 c 0.03 0.13 0.11 0.2 0.2 0.21 c 0.02 0.01 0.04 0.01 0.07 0.01 h 0.97 c 0.36 0 0.36 -0.61 0 -0.61 h -0.75 l -0.42 -2.27 c -0.03 -0.15 -0.14 -0.22 -0.25 -0.22 m 3.36 0.66 c 0.27 0 0.49 0.24 0.49 0.54 c 0 0.29 -0.22 0.54 -0.49 0.54 c -0.27 0 -0.5 -0.24 -0.5 -0.54 c 0 -0.3 0.22 -0.54 0.5 -0.54 m 1.62 0 c 0.27 0 0.49 0.24 0.49 0.54 c 0 0.29 -0.21 0.54 -0.49 0.54 c -0.27 0 -0.49 -0.24 -0.49 -0.54 c 0 -0.3 0.21 -0.54 0.49 -0.54 m 1.62 0 c 0.27 0 0.5 0.24 0.5 0.54 c 0 0.29 -0.22 0.54 -0.5 0.54 c -0.27 0 -0.49 -0.24 -0.49 -0.54 c 0 -0.3 0.22 -0.54 0.49 -0.54 m 1.62 0 c 0.27 0 0.49 0.24 0.49 0.54 c 0 0.29 -0.22 0.54 -0.49 0.54 c -0.27 0 -0.5 -0.24 -0.5 -0.54 c 0 -0.3 0.22 -0.54 0.5 -0.54 m 2.07 0.34 c -0.17 0 -0.31 0.15 -0.31 0.34 v 2.35 c 0 0.19 0.14 0.34 0.31 0.34 h 0.02 c 0.17 0 0.32 -0.15 0.32 -0.34 v -2.35 c 0 -0.19 -0.15 -0.34 -0.32 -0.34 m 4.09 0.03 c -0.18 0 -0.31 0.15 -0.31 0.34 v 2.36 c 0 0.19 0.14 0.34 0.31 0.34 h 0.02 c 0.18 0 0.32 -0.15 0.32 -0.34 v -2.36 c 0 -0.19 -0.14 -0.34 -0.32 -0.34 m -1.04 0.47 c -0.18 0 -0.32 0.15 -0.32 0.34 v 1.49 c 0 0.19 0.14 0.35 0.32 0.35 h 0.02 c 0.18 0 0.31 -0.16 0.31 -0.35 v -1.49 c 0 -0.19 -0.14 -0.34 -0.31 -0.34 m 2 0.55 c -0.17 0.01 -0.3 0.16 -0.3 0.34 v 0.26 c 0 0.19 0.14 0.35 0.31 0.35 h 0.02 c 0.18 0 0.31 -0.16 0.31 -0.35 v -0.26 c 0 -0.19 -0.14 -0.34 -0.31 -0.34 h -0.02 c -0.01 0 -0.02 0 -0.02 0 m -12.1 0.35 c 0.27 0 0.49 0.24 0.49 0.54 c 0 0.29 -0.22 0.54 -0.49 0.54 c -0.27 0 -0.5 -0.24 -0.5 -0.54 c 0 -0.29 0.22 -0.54 0.5 -0.54 m 1.62 0 c 0.27 0 0.49 0.24 0.49 0.54 c 0 0.29 -0.21 0.54 -0.49 0.54 c -0.27 0 -0.49 -0.24 -0.49 -0.54 c 0 -0.29 0.21 -0.54 0.49 -0.54 m 1.62 0 c 0.27 0 0.5 0.24 0.5 0.54 c 0 0.29 -0.22 0.54 -0.5 0.54 c -0.27 0 -0.49 -0.24 -0.49 -0.54 c 0 -0.29 0.22 -0.54 0.49 -0.54 m 1.62 0 c 0.27 0 0.49 0.24 0.49 0.54 c 0 0.29 -0.22 0.54 -0.49 0.54 c -0.27 0 -0.5 -0.24 -0.5 -0.54 c 0 -0.29 0.22 -0.54 0.5 -0.54 m -4.86 1.8 c 0.27 0 0.49 0.24 0.49 0.54 c 0 0.29 -0.22 0.54 -0.49 0.54 c -0.27 0 -0.5 -0.24 -0.5 -0.54 c 0 -0.29 0.22 -0.54 0.5 -0.54 m 1.62 0 c 0.27 0 0.49 0.24 0.49 0.54 c 0 0.29 -0.21 0.54 -0.49 0.54 c -0.27 0 -0.49 -0.24 -0.49 -0.54 c 0 -0.29 0.21 -0.54 0.49 -0.54 m 1.62 0 c 0.27 0 0.5 0.24 0.5 0.54 c 0 0.29 -0.22 0.54 -0.5 0.54 c -0.27 0 -0.49 -0.24 -0.49 -0.54 c 0 -0.29 0.22 -0.54 0.49 -0.54 m 1.62 0 c 0.27 0 0.49 0.24 0.49 0.54 c 0 0.29 -0.22 0.54 -0.49 0.54 c -0.27 0 -0.5 -0.24 -0.5 -0.54 c 0 -0.29 0.22 -0.54 0.5 -0.54 m -7.2 2.88 v 1.3 c 0.01 2.47 1.72 4.5 4.08 4.77 v 2.21 c -1.81 0.11 -3.19 0.64 -3.19 1.29 h 7.61 c 0 -0.65 -1.38 -1.18 -3.18 -1.29 v -2.24 c 2.3 -0.34 4.07 -2.35 4.08 -4.76 v -1.3 m -8.64 0.02 h 7.89 v 1.05 c -0.01 2.42 -1.84 4.23 -4 4.24 c -2.18 -0.01 -3.87 -1.81 -3.88 -4.24 m 0.57 -0.91 v 0.91 c 0.01 2.09 1.55 3.78 3.46 3.79 c 1.91 -0.01 3.45 -1.7 3.46 -3.79 v -0.91" style="fill:#fff"/></svg>