<svg xmlns="http://www.w3.org/2000/svg" viewBox="0 0 32 32"><path d="m 0.25 16.19 c -2.4 21.1 31.99 20.81 31.59 -0.38 c 1.14 -19.71 -33.45 -21.49 -31.59 0.38" style="fill:#105331"/><g style="fill:#fff"><path d="m 3.21 3.86 c -1.06 0 -1.91 0.85 -1.91 1.91 v 8.58 c 0 1.06 0.85 1.91 1.91 1.91 h 5.99 v 2 h -2.71 c -0.27 0 -0.49 0.02 -0.49 0.3 c 0 0.28 0.22 0.29 0.49 0.3 h 9 c 0.27 0 0.49 -0.02 0.49 -0.3 c 0 -0.28 -0.22 -0.31 -0.49 -0.3 h -2.71 v -2 h 5.99 c 1.06 0 1.91 -0.85 1.91 -1.91 v -8.58 c 0 -1.06 -0.85 -1.91 -1.91 -1.91 m -15.56 0.5 h 15.54 c 0.79 0 1.43 0.64 1.43 1.43 v 8.54 c 0 0.79 -0.64 1.43 -1.43 1.43 h -15.54 c -0.79 0 -1.43 -0.64 -1.43 -1.43 v -8.54 c 0 -0.79 0.64 -1.43 1.43 -1.43 m 6.57 11.92 h 2.4 v 2 h -2.4" transform="matrix(0.962 0 0 0.989 5.32 5.9)" style="stroke:#fff"/><path d="m 12.64 15.68 c 0.38 0 0.76 0 1.14 0 v -0.93 c 0 -1.04 -0.03 -1.14 -0.4 -1.3 c -0.26 -0.11 -0.6 -0.08 -0.85 0.04 c -0.36 0.17 -0.39 0.02 -0.41 1.58 l -0.02 1.66 c -0.72 0 -1.27 -0.03 -1.99 -0.03 l 0.02 -1.65 c -0.01 -0.75 -0.08 -1.44 0.25 -2.12 c 0.69 -1.34 1.81 -1.69 2.97 -1.6 c 0.87 0.1 1.52 0.44 2 1.05 c 0.5 0.61 0.63 1.13 0.64 2.48 v 0.8 c 1.6 0 3.2 0 4.8 0 c 0 1.39 0 2.79 0 4.19 c -2.72 0 -5.44 0 -8.16 0 c 0 -1.46 0 -2.7 0 -4.19"/></g></svg>