<svg xmlns="http://www.w3.org/2000/svg" viewBox="0 0 32 32"><path d="m 31.74 16.19 c 2.41 21.1 -31.98 20.81 -31.59 -0.38 c -1.14 -19.71 33.45 -21.49 31.59 0.38" style="fill:#d11353"/><g style="fill:#fff"><path d="m 11.61 25 c -0.21 -0.07 -0.44 -0.32 -0.48 -0.53 c -0.05 -0.28 0.05 -0.59 0.26 -0.75 c 0.17 -0.14 0.18 -0.14 1.48 -0.15 l 1.31 -0.02 c 0 -0.34 0 -0.69 0 -1.03 l -2.85 -0.02 c -2.51 -0.02 -2.88 -0.03 -3.13 -0.12 c -0.83 -0.4 -1.28 -0.95 -1.59 -1.71 l -0.02 -4.56 c -0.01 -2.97 0 -4.67 0.04 -4.88 c 0.17 -0.95 0.92 -1.7 1.87 -1.88 c 0.4 -0.08 15.35 -0.08 15.76 0 c 0.65 0.12 1.23 0.53 1.55 1.09 c 0.36 0.61 0.34 0.34 0.36 5.18 c 0.01 2.66 0 4.57 -0.04 4.81 c -0.14 1.06 -0.96 1.88 -2 2.03 c -0.19 0.03 -1.52 0.05 -2.95 0.05 h -2.6 c 0 0.35 0 0.7 0 1.04 l 1.32 0.02 l 1.32 0.02 l 0.17 0.16 c 0.33 0.32 0.33 0.79 0 1.11 l -0.17 0.16 l -4.75 0.01 c -2.61 0 -4.8 -0.01 -4.86 -0.03 m 5.43 -2.49 c -0.46 0 -0.91 0 -1.38 0 c 0 0.35 0 0.7 0 1.05 c 0.46 0 0.92 0 1.38 0 c 0 -0.35 0 -0.7 0 -1.05 m 7.71 -2.16 v -4.46 c 0 -4.33 0 -4.46 -0.11 -4.66 c -0.11 -0.21 -0.28 -0.34 -0.47 -0.47 l -7.65 -0.02 c -4.21 -0.01 -7.73 0 -7.83 0.02 c -0.21 0.04 -0.48 0.25 -0.61 0.49 c -0.09 0.16 -0.1 0.53 -0.11 4.43 c -0.01 2.78 0.01 4.36 0.04 4.57 c 0.07 0.39 0.19 0.55 0.5 0.71 l 0.24 0.12 h 15.27 c 0.38 -0.18 0.55 -0.39 0.73 -0.73"/><path d="m 12.37 15.76 c 0.38 0 0.76 0 1.14 0 l 0.03 -1.06 c 0.02 -0.91 0.05 -1.11 0.14 -1.36 c 0.44 -1.09 1.48 -1.77 2.7 -1.77 c 1.22 0 2.33 0.74 2.71 1.8 c 0.09 0.26 0.12 0.5 0.14 1.35 l 0.03 1.03 c 0.38 0 0.76 0 1.14 0 c 0 1.36 0 2.71 0 4.07 c -2.68 0 -5.36 0 -8 0 c 0 -1.36 0 -2.71 0 -4.07 m 4.74 -0.91 v -0.91 c -0.23 -0.27 -0.5 -0.38 -0.72 -0.38 c -0.39 0.01 -0.47 0.13 -0.71 0.38 v 1.83 c 0.48 0 0.95 0 1.43 0"/></g></svg>