<svg xmlns="http://www.w3.org/2000/svg" viewBox="0 0 32 32"><path d="m 29.3 8.46 c 8.61 11.5 -5.16 25.53 -16.26 23.1 c -10.93 -1.43 -17.52 -18.1 -9.1 -26.49 c 6.18 -6.07 16.72 -8.11 25.34 3.39" style="fill:#ff8c00"/><path d="m 15.49 5.78 c -5.5 0 -9.96 4.43 -9.96 9.88 c 0 5.46 4.46 9.88 9.96 9.88 c 5.5 0 9.96 -4.43 9.96 -9.88 c 0 -5.46 -4.46 -9.88 -9.96 -9.88 m -3.9 6.18 c 0.23 0 0.57 0.02 1.15 0.05 c 2.28 0.12 2.75 0.13 4.06 0.04 c 1.63 -0.11 3.18 -0.11 3.63 0 c 0.92 0.21 1.75 0.92 2.22 1.89 c 0.25 0.53 0.33 0.95 0.3 1.59 c -0.03 0.54 -0.13 1.04 -0.3 1.43 c -0.26 0.63 -0.88 1.35 -1.41 1.62 c -0.59 0.3 -1.59 0.56 -2.82 0.71 c -0.66 0.08 -4.14 0.12 -5.14 0.06 c -1 -0.06 -2.27 -0.27 -2.88 -0.46 c -0.91 -0.29 -1.5 -0.8 -1.95 -1.69 c -0.29 -0.57 -0.38 -0.95 -0.41 -1.69 c -0.02 -0.53 -0.01 -0.65 0.07 -0.96 c 0.16 -0.63 0.46 -1.14 0.97 -1.66 c 0.5 -0.5 1.04 -0.75 1.93 -0.88 c 0.21 -0.03 0.35 -0.05 0.59 -0.04 m 0.79 1.23 c -1.03 0 -1.87 1.11 -1.87 2.47 c 0 1.37 0.84 2.47 1.87 2.47 c 1.03 0 1.87 -1.11 1.87 -2.47 c 0 -1.36 -0.84 -2.47 -1.87 -2.47 m 6.23 0 c -1.03 0 -1.87 1.11 -1.87 2.47 c 0 1.37 0.84 2.47 1.87 2.47 c 1.03 0 1.87 -1.11 1.87 -2.47 c 0 -1.36 -0.84 -2.47 -1.87 -2.47" style="fill:#fff"/></svg>