<svg xmlns="http://www.w3.org/2000/svg" viewBox="0 0 32 32"><path d="m 6.6 28.2 c 24.1 17.84 38.88 -32 7.77 -27.66 c -12.85 1.89 -20.65 19.33 -7.77 27.66" style="fill:#ff8c00"/><path d="m 11.67 7.31 l -3.75 4.61 h 7.51 v -4.61 m 1.5 0 v 4.61 h 7.51 l -3.76 -4.61 m -12.77 6.14 v 10.75 h 9.52 c 2.17 -0.11 4.66 -0.02 6.93 -0.05 c 0 0 0.02 -3.55 0.07 -6.34 v -4.36 h -16.52" style="fill:#fff"/><path d="m 16.1 23.57 l -1.6 -2.98 l -3 -1.59 l 3 -1.57 l 1.61 -2.98 l 1.59 2.98 l 3 1.58 l -3 1.58" style="fill:#ff8c00"/></svg>