<svg xmlns="http://www.w3.org/2000/svg" viewBox="0 0 32 32"><path d="m 30.52 23.51 c -6.3 15 -30.69 8.32 -30.52 -8 c -0.24 -14.86 19.1 -20.52 27.65 -9.91 c 4.25 4.58 5.74 12.18 2.89 17.96"/><path d="m 26.32 15.95 c 0 5.52 -4.6 10 -10.28 10 c -5.68 0 -10.28 -4.48 -10.28 -10 c 0 -5.53 4.6 -10 10.28 -10 c 5.68 0 10.28 4.48 10.28 10" style="fill:#a9a9a9"/><path d="m 15.81 25.52 c -3 -1.85 -4.9 -4.99 -5.3 -8.76 c -0.14 -1.32 -0.02 -2.91 0.33 -4.27 c 0.57 -2.28 1.96 -4.49 3.73 -5.96 l 0.61 -0.51 l -0.55 0.07 c -4.59 0.59 -8.2 4.12 -8.84 8.64 c -0.45 3.23 0.97 6.72 3.62 8.85 c 1.66 1.34 3.85 2.17 6 2.3 l 1.03 0.06 l -0.64 -0.4" style="fill:#696969"/><g style="fill:#fff"><path d="m 4.21 13.23 l -0.46 -2.43 l -1.69 -0.89 l 1.7 -0.66 l 0.62 -2.42 l 0.46 2.43 l 1.69 0.89 l -1.7 0.66"/><path d="m 28.73 15.84 l -0.51 -1.22 l -1.01 -0.68 l 1.05 -0.59 l 0.59 -1.18 l 0.51 1.22 l 1.01 0.68 l -1.05 0.59"/><path d="m 21.1 30.2 l -0.32 -1.23 l -0.96 -0.59 l 0.93 -0.42 l 0.45 -1.27 l 0.32 1.22 l 0.96 0.59 l -0.93 0.42"/></g></svg>