<svg xmlns="http://www.w3.org/2000/svg" viewBox="0 0 32 32"><path d="m 30.52 23.6 c -6.27 15 -30.57 8.34 -30.41 -8.1 c -0.24 -14.91 19.1 -20.56 27.55 -9.94 c 4.23 4.59 5.71 12.2 2.88 18"/><path d="m 15.83 4.32 c -4.27 0 -7.73 3.48 -7.73 7.79 c 0 4.3 3.46 7.79 7.73 7.79 c 4.27 0 7.73 -3.49 7.73 -7.79 c 0 -4.3 -3.46 -7.79 -7.73 -7.79 m 0.07 2.79 c 0.02 0 0.05 0 0.08 0 c 0.11 0 0.26 0 0.33 0.09 c 0.07 0.4 0.23 0.79 0.46 1.14 c 0.38 0.66 1.05 1.14 1.6 1.7 c 1.07 1.18 0.93 2.87 -0.08 4 c 0.22 -0.52 0.4 -1.05 0.41 -1.61 c 0.08 -0.89 -1 -2 -1.4 -2.24 c -0.4 -0.23 -0.56 -0.38 -0.98 -0.38 c -0.04 1.73 0.02 3.48 0.01 5.22 c -0.04 1.29 -0.67 1.73 -1.81 2.02 c -1.47 0.12 -1.98 -0.38 -1.98 -1.25 c 0.06 -0.98 1.23 -1.7 2.38 -1.75 c 0.25 0 0.41 0.02 0.68 -0.01 c 0.01 -2.11 0 -4.23 0.01 -6.34 c 0.01 -0.23 -0.08 -0.62 0.28 -0.64" style="fill:#fff;fill-opacity:0.92"/></svg>