<svg xmlns="http://www.w3.org/2000/svg" viewBox="0 0 32 32"><path d="m 0.41 19.66 c 6.25 29.98 49.2 -2.21 23.41 -17.45 c -10 -6.54 -26.63 2.03 -23.41 17.45" style="fill:#171717"/><g style="fill:#fff"><path d="m 3.43 17.8 c 0.32 -2.04 0.57 -2.73 1.11 -4.86 h 1.29 c 1.4 0 1.74 0.1 1.99 0.57 c 0.37 0.69 0.22 1.32 -0.47 2 c -0.5 0.5 -1 0.72 -1.82 0.8 l -0.65 0.06 c -0.24 0.72 -0.33 1.44 -0.96 1.52 c -0.32 0.04 -0.44 0.02 -0.48 -0.09 m 3.08 -2.81 c 0.29 -0.21 0.36 -0.66 0.14 -0.88 c -0.19 -0.19 -0.54 -0.28 -0.82 -0.2 c -0.41 0.1 -0.68 0.95 -0.39 1.24 c 0.36 0.1 0.8 0.04 1.07 -0.15"/><path d="m 8.36 17.46 c -0.73 -0.77 -0.52 -1.73 0.61 -2.76 c 0.43 -0.52 0.73 -0.47 1.36 -0.46 c 0.46 0 1.03 0.04 1.26 0.07 c 0.43 0.04 0.41 0.05 0.39 0.45 c -0.02 0.44 -0.53 2.61 -0.68 2.88 c -0.09 0.16 -0.24 0.42 -1.35 0.18 c -0.7 0.03 -1.13 0.13 -1.6 -0.36 m 1.66 -0.61 c 0.8 -0.41 0.86 -1.42 0.1 -1.66 c -0.38 -0.12 -1.11 0.54 -1.11 1.01 c 0.16 0.54 0.56 0.88 1 0.65"/><path d="m 12.5 17.78 c -0.08 -0.1 -0.1 -0.3 -0.05 -0.67 c 0.09 -0.84 0.59 -2.63 0.77 -2.76 c 0.21 -0.16 0.68 -0.14 0.93 0.03 c 0.19 0.13 0.24 0.13 0.59 0 c 0.46 -0.18 0.68 -0.07 0.58 0.31 c -0.09 0.33 -0.22 0.47 -0.64 0.66 c -0.57 0.25 -0.76 0.49 -1.01 1.29 c -0.26 0.81 -0.39 1.11 -0.55 1.21 c -0.17 0.11 -0.49 0.08 -0.61 -0.07"/><path d="m 15.91 17.81 c -0.52 -0.21 -0.72 -0.63 -0.39 -0.81 c 0.09 -0.05 0.43 -0.06 0.75 -0.04 c 0.53 0.05 0.58 0.04 0.55 -0.12 c -0.02 -0.1 -0.18 -0.27 -0.35 -0.38 c -0.7 -0.45 -0.83 -0.59 -0.83 -0.89 c 0 -0.37 0.54 -1.04 0.98 -1.22 c 0.6 -0.25 1.36 -0.07 1.6 0.38 c 0.19 0.36 -0.02 0.54 -0.55 0.47 c -0.87 -0.11 -0.88 -0.11 -0.88 0.09 c 0 0.13 0.15 0.26 0.49 0.44 c 0.86 0.46 0.95 0.86 0.32 1.54 c -0.55 0.61 -1.08 0.77 -1.68 0.54"/><path d="m 18.77 17.82 c -0.09 -0.05 -0.13 -0.2 -0.11 -0.43 c 0.04 -0.53 0.68 -3 0.79 -3.09 c 0.2 -0.13 0.79 -0.07 0.85 0.08 c 0.12 0.31 -0.59 3.07 -0.87 3.38 c -0.16 0.18 -0.45 0.21 -0.66 0.07"/><path d="m 19.71 13.77 c -0.3 -0.13 -0.23 -0.72 0.11 -0.95 c 0.17 -0.11 0.86 -0.07 0.96 0.05 c 0.12 0.14 0.04 0.66 -0.12 0.79 c -0.16 0.14 -0.73 0.2 -0.95 0.11"/><path d="m 20.91 17.77 c -0.03 -0.08 0.06 -0.63 0.2 -1.22 c 0.3 -1.3 0.3 -1.3 0.04 -1.57 c -0.18 -0.19 -0.2 -0.25 -0.09 -0.5 c 0.07 -0.16 0.24 -0.33 0.38 -0.39 c 0.14 -0.06 0.49 -0.09 0.66 -0.32 c 0.18 -0.23 0.41 -0.72 0.62 -0.83 c 0.46 -0.23 1.15 -0.26 1.23 -0.05 c 0.09 0.23 -0.22 0.59 -0.59 0.72 c -0.45 0.12 -0.3 0.23 -0.05 0.45 c 0.16 0.13 0.29 0.32 0.29 0.42 c 0 0.18 -0.37 0.52 -0.67 0.62 c -0.21 0.07 -0.41 0.5 -0.75 1.69 c -0.21 0.75 -0.31 0.95 -0.5 1.03 c -0.33 0.14 -0.7 0.13 -0.77 -0.04"/><path d="m 23.44 18.99 c -0.08 -0.21 0.2 -0.73 0.42 -0.8 c 0.11 -0.03 0.3 -0.05 0.44 -0.05 c 0.27 0 0.6 -0.28 0.6 -0.5 c -0.11 -0.22 -0.3 -0.27 -0.51 -0.36 c -0.02 -0.01 -0.22 -1.53 -0.33 -2.46 c -0.07 -0.57 0.05 -0.69 0.59 -0.65 c 0.43 0.03 0.42 0.02 0.61 1.22 c 0.05 0.36 0.15 0.72 0.21 0.8 c 0.1 0.14 0.16 0.09 0.51 -0.47 c 0.22 -0.34 0.49 -0.78 0.6 -0.96 c 0.27 -0.45 0.51 -0.61 0.92 -0.61 c 0.29 0 0.34 0.03 0.34 0.2 c 0 0.24 -1.04 2.23 -1.7 3.25 c -0.67 1.04 -1.4 1.53 -2.25 1.53 c -0.26 0 -0.39 -0.04 -0.43 -0.14"/></g></svg>