<svg xmlns="http://www.w3.org/2000/svg" viewBox="0 0 32 32"><defs><linearGradient id="0" gradientUnits="userSpaceOnUse" x1="27.2" y1="13.24" x2="48.73" y2="36" gradientTransform="matrix(0.35 0 0 0.342 3.43 9.84)"><stop style="stop-color:#f3d769"/><stop offset="1" style="stop-color:#3d9ade"/></linearGradient></defs><path d="m 30.6 10.94 c 6.21 15.93 -11.2 24.1 -22 20 c -7.56 -2.84 -11.32 -14.1 -5.96 -23.2 c 6.78 -11.52 23.2 -9.1 27.99 3.21" style="fill:#d53d3d"/><path d="m 9.55 7.89 h 12.75 c 0.7 0 1.27 0.55 1.27 1.22 v 14.66 c 0 0.68 -0.57 1.22 -1.27 1.22 h -12.75 c -0.7 0 -1.27 -0.55 -1.27 -1.22 v -14.66 c 0 -0.68 0.57 -1.22 1.27 -1.22" style="fill:#fff"/><g style="fill:#7f7f7f"><path d="m 13.6 13.1 c 0 0.15 0.13 0.28 0.29 0.28 h 6.98 c 0.16 0 0.29 -0.13 0.29 -0.28 c 0 -0.16 -0.13 -0.28 -0.29 -0.28 h -6.98 c -0.16 0 -0.29 0.13 -0.29 0.28"/><path d="m 10.95 15.1 h 5.82 c 0.16 0 0.29 -0.13 0.29 -0.28 c 0 -0.16 -0.13 -0.28 -0.29 -0.28 h -5.82 c -0.16 0 -0.29 0.13 -0.29 0.28 c 0 0.16 0.13 0.28 0.29 0.28"/><path d="m 20.87 16.19 h -5.24 c -0.16 0 -0.29 0.13 -0.29 0.28 c 0 0.16 0.13 0.28 0.29 0.28 h 5.24 c 0.16 0 0.29 -0.13 0.29 -0.28 c 0 -0.16 -0.13 -0.28 -0.29 -0.28"/><path d="m 10.95 18.4 h 6.98 c 0.16 0 0.29 -0.13 0.29 -0.28 c 0 -0.15 -0.13 -0.28 -0.29 -0.28 h -6.98 c -0.16 0 -0.29 0.13 -0.29 0.28 c 0 0.16 0.13 0.28 0.29 0.28"/><path d="m 10.95 13.37 h 1.75 c 0.16 0 0.29 -0.13 0.29 -0.28 c 0 -0.16 -0.13 -0.28 -0.29 -0.28 h -1.75 c -0.16 0 -0.29 0.13 -0.29 0.28 c 0 0.15 0.13 0.28 0.29 0.28"/><path d="m 20.87 14.49 h -2.91 c -0.16 0 -0.29 0.13 -0.29 0.28 c 0 0.16 0.13 0.28 0.29 0.28 h 2.91 c 0.16 0 0.29 -0.13 0.29 -0.28 c 0 -0.16 -0.13 -0.28 -0.29 -0.28"/><path d="m 10.95 16.73 h 3.5 c 0.16 0 0.29 -0.13 0.29 -0.28 c 0 -0.15 -0.13 -0.28 -0.29 -0.28 h -3.5 c -0.16 0 -0.29 0.13 -0.29 0.28 c 0 0.16 0.13 0.28 0.29 0.28"/><path d="m 20.87 17.86 h -1.75 c -0.16 0 -0.29 0.13 -0.29 0.28 c 0 0.15 0.13 0.28 0.29 0.28 h 1.75 c 0.16 0 0.29 -0.13 0.29 -0.28 c 0 -0.16 -0.13 -0.28 -0.29 -0.28"/><path d="m 18.54 21.2 h -2.91 c -0.16 0 -0.29 0.13 -0.29 0.28 c 0 0.16 0.13 0.28 0.29 0.28 h 2.91 c 0.16 0 0.29 -0.13 0.29 -0.28 c 0 -0.16 -0.13 -0.28 -0.29 -0.28"/><path d="m 10.95 21.75 h 3.5 c 0.16 0 0.29 -0.13 0.29 -0.28 c 0 -0.16 -0.13 -0.28 -0.29 -0.28 h -3.5 c -0.16 0 -0.29 0.13 -0.29 0.28 c 0 0.16 0.13 0.28 0.29 0.28"/><path d="m 10.95 20.1 h 2.33 c 0.16 0 0.29 -0.13 0.29 -0.28 c 0 -0.16 -0.13 -0.28 -0.29 -0.28 h -2.33 c -0.16 0 -0.29 0.13 -0.29 0.28 c 0 0.15 0.13 0.28 0.29 0.28"/><path d="m 10.95 11.73 h 3.5 c 0.16 0 0.29 -0.13 0.29 -0.28 c 0 -0.15 -0.13 -0.28 -0.29 -0.28 h -3.5 c -0.16 0 -0.29 0.13 -0.29 0.28 c 0 0.16 0.13 0.28 0.29 0.28"/><path d="m 17.67 19.8 c 0 -0.16 -0.13 -0.28 -0.29 -0.28 h -2.91 c -0.16 0 -0.29 0.13 -0.29 0.28 c 0 0.15 0.13 0.28 0.29 0.28 h 2.91 c 0.16 0 0.29 -0.13 0.29 -0.28"/><path d="m 20.87 19.52 h -2.33 c -0.16 0 -0.29 0.13 -0.29 0.28 c 0 0.15 0.13 0.28 0.29 0.28 h 2.33 c 0.16 0 0.29 -0.13 0.29 -0.28 c 0 -0.16 -0.13 -0.28 -0.29 -0.28"/><path d="m 20.87 21.2 h -1.17 c -0.16 0 -0.29 0.13 -0.29 0.28 c 0 0.16 0.13 0.28 0.29 0.28 h 1.17 c 0.16 0 0.29 -0.13 0.29 -0.28 c 0 -0.16 -0.13 -0.28 -0.29 -0.28"/></g><path d="m 12.8 20.58 v 1.82 h 1.88 l 4.73 -4.62 l -1.88 -1.83 m 3.53 0.21 c 0.2 -0.2 0.2 -0.5 0 -0.69 l -1.17 -1.14 c -0.2 -0.2 -0.51 -0.2 -0.71 0 l -0.98 0.96 l 1.87 1.83" style="fill:url(#0)"/><path d="m 12.8 22.41 v -1.83 l 1.88 1.83" style="fill:#f6ecc1"/><path d="m 12.8 22.41 l -0.01 -0.76 l 0.77 0.76" style="fill:#3b3b3b"/><path d="m 18.2 15.29 l 1.88 1.83 l -0.68 0.65 l -1.87 -1.83" style="fill:#efefef"/><path d="m 21 16.2 c 0.2 -0.2 0.2 -0.5 0 -0.69 l -1.17 -1.14 c -0.2 -0.2 -0.51 -0.2 -0.71 0 l -0.98 0.96 l 1.88 1.82" style="fill:#a00"/></svg>