<svg xmlns="http://www.w3.org/2000/svg" viewBox="0 0 32 32"><path d="m 16.46 0.27 c -3.27 0.25 -7.09 1.82 -9.75 4 c -3.24 2.64 -5.62 6.7 -6.25 10.7 c -0.76 5.29 2.3 10.96 5.75 13.66 c 1.73 1.31 4 2.36 6.19 2.81 c 5.61 1.19 11.46 -1.06 15.46 -5.96 c 2.41 -2.93 3.65 -5.88 3.95 -9.38 c 0.36 -4.2 -1.29 -8.69 -4.31 -11.72 c -3.43 -2.85 -6.96 -4.4 -11 -4.11" style="fill:#2f4e4e"/><path d="m 19.87 15.71 c -1.96 1.11 -2.88 1.91 -4.6 2.46 c 0.38 -1.11 0.75 -2.23 1.18 -3.31 c 0.57 -1.41 0.41 -2.15 -0.87 -4.07 c -0.54 -0.82 -0.99 -1.51 -0.99 -1.53 c 1.27 -0.02 2.52 0.02 3.89 0.07 c 1.14 -1.05 1.72 -1.93 2.89 -2.92 c 0.36 1.29 0.47 2.32 0.7 3.74 c 1.13 0.35 2.25 0.7 3.38 1.04 c 0.39 0.12 0.7 0.26 0.7 0.32 c -1.16 0.99 -2.13 1.63 -3.45 2.57 c 0.23 0.71 1.92 4.56 1.53 4.79 c -1.32 -0.97 -3.12 -2.25 -4.36 -3.15" style="fill:#f9de28"/><g style="fill:#ff8c00"><path d="m 10.64 18 c -0.04 -0.1 -0.01 -0.65 -0.13 -1.3 c -0.11 -0.65 -0.2 -1.41 -0.23 -1.51 c -0.18 -0.46 -0.91 -0.3 -1.26 -0.36 l 0.02 -0.19 c 0.02 -0.31 1.14 -3.43 1.54 -4.29 c 0.13 -0.27 0.2 -0.36 0.29 -0.37 c 0.26 -0.03 2.04 0.55 2.41 0.78 c 0.11 0.07 0.12 0.12 0.1 0.65 c -0.03 1.09 -0.46 5.06 -0.7 6.31 c -0.04 0.34 -0.07 0.7 -0.46 0.7 c -0.45 -0.08 -1.43 -0.02 -1.57 -0.41"/><path d="m 9.32 25.1 c -0.21 -0.11 -0.55 -0.47 -0.65 -0.67 c -0.09 -0.2 -0.11 -0.43 -0.04 -0.57 c 0.07 -0.12 0.23 -0.11 0.54 0.03 c 0.19 0.11 0.24 0.13 0.41 0.02 c 0.27 -0.17 0.36 -0.42 0.24 -0.65 c -0.03 -0.05 -0.16 -0.23 -0.3 -0.39 c -0.57 -0.66 -0.76 -1.05 -0.67 -1.39 c 0.07 -0.25 0.22 -0.42 0.5 -0.56 c 0.45 -0.22 0.73 -0.2 1.03 0.08 c 0.14 0.13 0.14 0.25 0.01 0.41 c -0.1 0.12 -0.13 0.13 -0.37 0.11 c -0.45 -0.02 -0.69 0.23 -0.54 0.55 c 0.04 0.08 0.24 0.34 0.45 0.57 c 0.41 0.46 0.5 0.64 0.54 1.13 c 0.05 0.55 -0.18 1.13 -0.52 1.32 c -0.22 0.06 -0.46 0.1 -0.64 0.01"/><path d="m 11.61 25.94 c -0.2 -0.13 -0.41 -0.34 -0.55 -0.55 c -0.1 -0.15 -0.09 -0.38 0.02 -0.62 c 0.12 -0.25 0.26 -0.32 0.41 -0.22 c 0.3 0.2 0.72 0.12 0.86 -0.17 c 0.06 -0.14 0.07 -0.19 0.02 -0.36 c -0.07 -0.27 -0.2 -0.46 -0.65 -0.96 c -0.3 -0.34 -0.39 -0.46 -0.43 -0.64 c -0.17 -0.73 0.47 -1.53 1.2 -1.47 c 0.21 0.02 0.26 0.04 0.37 0.17 c 0.17 0.22 0.13 0.38 0.02 0.62 c -0.04 0.04 -0.2 0.08 -0.38 0.11 c -0.35 0.04 -0.41 0.07 -0.52 0.29 c -0.1 0.21 -0.05 0.33 0.21 0.64 c 0.59 0.68 0.71 0.88 0.79 1.36 c 0.06 0.38 0 1.05 -0.12 1.29 c -0.04 0.09 -0.16 0.24 -0.27 0.34 c -0.37 0.34 -0.67 0.4 -0.99 0.19"/><path d="m 13.66 26.3 c -0.05 -0.04 -0.06 -0.32 -0.04 -1.86 c 0.04 -2.28 0.09 -3.09 0.2 -3.2 c 0.13 -0.12 0.32 -0.13 0.43 -0.02 c 0.06 0.06 0.07 0.23 0.07 1.12 c 0 1 -0.1 3.3 -0.16 3.68 c -0.04 0.26 -0.3 0.4 -0.5 0.27"/><path d="m 15.49 26.58 c -0.28 -0.15 -0.6 -0.54 -0.6 -0.74 c 0 -0.14 0.19 -0.61 0.29 -0.72 c 0.34 -0.14 0.86 0.02 1.05 -0.36 c 0.1 -0.19 0.1 -0.5 0.01 -0.68 c -0.04 -0.07 -0.23 -0.27 -0.43 -0.44 c -0.51 -0.43 -0.67 -0.74 -0.67 -1.25 c 0 -0.43 0.1 -0.69 0.38 -1 c 0.39 -0.44 0.81 -0.5 1.16 -0.17 c 0.21 0.2 0.2 0.48 -0.02 0.69 c -0.27 0.16 -0.66 0.06 -0.78 0.34 c -0.13 0.32 -0.04 0.57 0.34 0.9 c 0.57 0.51 0.8 1 0.8 1.69 c 0 0.53 -0.17 0.96 -0.53 1.36 c -0.36 0.39 -0.7 0.52 -1 0.36"/><path d="m 18.64 26.2 c -0.43 -0.17 -0.5 -0.48 -0.54 -2.43 c -0.02 -0.8 -0.05 -1.3 -0.08 -1.35 c -0.03 -0.04 -0.25 -0.05 -0.32 -0.07 c -0.18 -0.06 -0.27 -0.14 -0.34 -0.44 c -0.05 -0.23 0.09 -0.36 0.17 -0.47 c 0.05 -0.06 0.2 -0.17 0.34 -0.23 c 0.3 -0.14 1.03 -0.38 1.28 -0.41 c 0.16 -0.02 0.31 -0.14 0.35 -0.04 c 0.06 0.14 0.33 0.51 0 0.86 c -0.16 0.21 -0.36 0.4 -0.44 0.63 c -0.02 0.09 -0.06 0.96 -0.07 1.93 c -0.02 1.11 -0.05 1.8 -0.08 1.87 c -0.05 0.13 -0.17 0.2 -0.26 0.16"/><path d="m 20 25.93 c -0.26 -0.19 -0.26 -0.38 0.01 -2.25 c 0.27 -1.87 0.42 -2.63 0.55 -2.77 c 0.09 -0.09 0.21 -0.03 0.3 0.15 c 0.15 0.3 1.22 3.61 1.22 3.78 c 0 0.06 -0.22 0.36 -0.38 0.52 c -0.12 0.12 -0.18 0.08 -0.37 -0.23 c -0.1 -0.16 -0.21 -0.29 -0.24 -0.29 c -0.5 0.03 -0.48 0.42 -0.66 0.81 c -0.17 0.4 -0.23 0.43 -0.45 0.27 m 1.02 -1.74 l 0.16 -0.07 l -0.03 -0.37 c -0.05 -0.8 -0.29 -1.48 -0.46 -1.31 c -0.08 0.08 -0.19 0.88 -0.19 1.39 v 0.44 c 0.18 0 0.37 -0.02 0.52 -0.07"/><path d="m 22.69 25 c -0.03 -0.09 -0.08 -0.44 -0.11 -0.78 c -0.07 -0.77 -0.13 -3.06 -0.08 -3.18 c 0.04 -0.11 0.13 -0.06 0.72 0.44 c 0.7 0.59 0.82 0.57 0.69 -0.14 c -0.14 -0.76 -0.15 -0.86 -0.02 -0.89 c 0.17 -0.04 0.4 0.06 0.48 0.21 c 0.04 0.07 0.1 0.29 0.13 0.48 c 0.07 0.38 0.32 2.53 0.26 2.59 c -0.06 0.06 -0.42 -0.16 -0.66 -0.46 c -0.51 -0.63 -0.67 -0.79 -0.78 -0.77 c -0.1 0.02 -0.11 0.04 -0.1 0.34 c 0.03 0.61 0.26 1.11 0.3 1.71 c -0.04 0.14 -0.56 0.61 -0.68 0.61 c -0.06 0 -0.11 -0.05 -0.14 -0.16"/><path d="m 25.75 23.2 c -0.04 -0.07 -0.09 -0.39 -0.12 -0.88 c -0.03 -0.42 -0.09 -0.87 -0.13 -0.99 c -0.08 -0.25 0.05 -0.29 -0.27 -0.24 c -0.25 0.04 -0.27 0.05 -0.3 0 c -0.04 -0.08 -0.25 -0.16 0.23 -0.51 c 0.29 -0.21 1.54 -0.92 1.76 -0.83 c 0.09 0.04 -0.21 0.45 -0.29 0.5 c -0.16 0.11 -0.26 0.55 -0.38 1.8 c -0.07 0.75 -0.13 1.02 -0.25 1.15 c -0.13 0.14 -0.16 0.14 -0.25 0"/><path d="m 7.83 23.8 c -0.22 -0.36 -0.26 -0.72 -0.43 -1.11 c -0.07 -0.12 -0.1 -0.16 -0.02 -0.35 c 0.09 -0.2 0.09 -0.24 0 -0.6 c -0.13 -0.53 -0.27 -0.8 -0.4 -0.8 c -0.19 0 -0.29 0.21 -0.29 0.63 c 0 0.32 0.02 0.42 0.14 0.63 l 0.8 0.05 l 0.02 0.63 c 0 0.12 -0.94 -0.05 -0.94 -0.02 c 0 0.1 -0.18 0.22 -0.32 0.22 c -0.07 0 -0.19 -0.05 -0.27 -0.1 c -0.12 -0.08 -0.13 -0.13 -0.13 -0.4 c 0.01 -0.32 0.26 -1.41 0.45 -1.93 c 0.12 -0.33 0.21 -0.4 0.5 -0.4 c 0.29 0 0.43 0.14 0.56 0.55 c 0.26 0.82 0.7 2.96 0.63 3.07 c -0.06 0.08 -0.18 0.05 -0.29 -0.09"/><path d="m 5.12 17.1 c 0 -0.03 -0.01 -0.21 0 -0.41 c -0.02 -0.56 -0.11 -0.47 -0.53 -0.41 c -0.14 -1.13 -0.5 -0.89 0.54 -1.19 c 0 -0.26 0 -0.47 0 -0.75 c -0.22 0 -0.39 0.04 -0.63 0.08 c -0.06 -0.35 -0.11 -0.7 -0.17 -1.05 c 0.27 -0.05 0.54 -0.1 0.82 -0.15 c 0 -0.3 0 -0.61 0 -0.91 c 0.31 -0.05 0.63 -0.11 0.95 -0.15 c 0 0.31 -0.02 0.55 -0.01 0.88 c 0.32 0.01 0.5 -0.05 0.88 -0.12 c 0 -0.3 0 -0.61 0 -0.91 c 0.31 -0.05 0.63 -0.11 0.95 -0.16 c -0.01 0.3 -0.02 0.61 -0.01 0.91 c 0.18 0 0.32 -0.03 0.51 -0.07 c 0.05 0.35 0.11 0.7 0.17 1.05 c -0.23 0.05 -0.46 0.09 -0.69 0.13 c 0 0.26 -0.01 0.55 -0.01 0.79 c 0.21 -0.03 0.41 -0.07 0.62 -0.1 c 0.05 0.35 0.11 0.7 0.17 1.05 c -0.26 0.05 -0.52 0.1 -0.79 0.14 v 0.09 c -0.01 0.3 -0.01 0.54 -0.02 0.85 c -0.31 0.05 -0.63 0.1 -0.94 0.15 c 0 -0.31 0.02 -0.63 0 -0.93 c -0.02 -0.03 -0.84 0.11 -0.86 0.14 c -0.01 0.02 -0.03 0.88 -0.02 0.92 c -0.31 0.06 -0.66 0.14 -0.93 0.11 m 1.84 -2.59 c 0 -0.18 0 -0.35 0 -0.53 c -0.3 0.05 -0.61 0.1 -0.92 0.15 c -0.01 0.28 0 0.58 -0.01 0.81 c 0.31 0.05 0.5 -0.04 0.93 -0.12 c 0 -0.11 0 -0.22 0 -0.32"/></g></svg>