<svg xmlns="http://www.w3.org/2000/svg" viewBox="0 0 32 32"><path d="m 2.87 24.39 c -10.41 -16.27 11.59 -32.76 24.2 -19.5 c 11.88 12.49 -0.99 31.91 -16.34 25.84 c -3.2 -1.27 -5.96 -3.34 -7.86 -6.33" style="fill:#ececec"/><path d="m 5.73 20.41 c 0 -2.68 0 -5.37 0 -8.1 c 2.12 -2.04 4.23 -4.07 6.35 -6.1 c 2.77 0 5.55 0 8.32 0 c 2.06 2.04 4.11 4.07 6.17 6.11 c 0 2.73 0 5.46 0 8.19 c -2.36 2.06 -4.09 4.08 -6.28 5.8 c -2.77 0 -5.53 0 -8.3 0 c -2.09 -1.98 -4.18 -3.96 -6.27 -5.95" style="fill:#636363"/><path d="m 14.1 21.2 c -0.44 -0.04 -0.7 -0.18 -1.12 -0.61 c -0.71 -0.72 -0.99 -1.58 -0.77 -2.38 c 0.19 -0.67 0.61 -1.2 1.4 -1.76 c 0.28 -0.2 0.75 -0.57 1.03 -0.84 c 0.61 -0.55 0.77 -0.64 1.24 -0.61 c 0.39 0.03 0.64 0.15 0.96 0.47 c 0.29 0.3 0.36 0.48 0.33 1.01 c -0.04 0.64 -0.26 1 -0.75 1.23 c -0.19 0.09 -0.31 0.11 -0.66 0.11 c -0.5 0 -0.52 -0.01 -1.16 -0.5 c -0.22 -0.18 -0.4 -0.28 -0.44 -0.27 c -0.25 0.09 -0.82 0.48 -0.93 0.63 c -0.63 1 -0.3 2.39 0.88 2.81 c 0.23 0.07 0.5 0.09 2.75 0.1 c 2.89 0.02 4.11 -0.03 4.44 -0.17 c 0.25 -0.11 0.56 -0.4 0.72 -0.67 c 0.27 -0.46 0.34 -1.13 0.16 -1.61 c -0.11 -0.29 -0.41 -0.64 -0.8 -0.94 c -0.42 -0.28 -0.43 -0.77 -0.48 -1.16 c -0.05 -0.4 -0.11 -0.78 -0.13 -0.86 c -0.21 -0.7 -0.8 -1.23 -1.58 -1.4 c -1.17 -0.25 -1.44 0.09 -2 -0.76 c -0.76 -1.13 -1.34 -1.47 -2.57 -1.52 c -0.97 -0.04 -1.33 0.06 -1.89 0.51 c -0.55 0.44 -0.98 1.04 -1.2 1.67 c -0.13 0.36 -0.3 0.55 -0.93 1.07 c -0.67 0.54 -0.96 1.06 -0.39 1.48 c 0.73 0.53 0.96 0.85 0.96 1.35 c 0 0.36 -0.1 0.64 -0.32 0.89 c -0.23 0.25 -0.43 0.38 -0.74 0.46 c -0.68 0.18 -1.21 0.06 -1.61 -0.62 c -0.24 -0.4 -0.26 -0.92 0.05 -1.52 c 0.09 -0.18 0.51 -0.62 0.5 -0.95 c -0.04 -1.02 0.09 -1.19 0.67 -1.64 c 0.75 -0.59 1 -1.03 1.36 -1.63 c 0.62 -1.03 1.02 -1.44 1.86 -1.85 c 0.48 -0.24 1.02 -0.24 1.7 -0.24 c 0.71 0 1.06 0.08 1.61 0.36 c 0.54 0.27 0.93 0.59 1.46 1.2 c 0.45 0.51 0.36 0.47 1.39 0.63 c 0.93 0.15 1.29 0.31 1.82 0.82 c 0.59 0.57 0.9 1.09 0.94 2.06 c 0.03 0.82 0.11 0.79 0.68 1.3 c 0.21 0.18 0.35 0.55 0.44 0.72 c 0.55 1.09 0.34 2.13 -0.65 3.05 c -0.45 0.41 -0.65 0.5 -1.25 0.54 c -2.3 -0.05 -4.63 0.15 -6.92 0 m -4.07 -2.95 c 0.08 -0.06 0.2 -0.18 0.26 -0.26 c 0.2 -0.29 0.07 -0.67 -0.3 -0.96 c -0.21 -0.16 -0.46 -0.16 -0.68 0.02 c -0.46 0.36 -0.41 0.62 -0.18 0.9 c 0.33 0.4 0.61 0.49 0.9 0.3 m 6.35 -2.1 c -0.13 -0.25 -0.44 -0.36 -0.64 -0.32 c -0.32 0.06 -0.63 0.36 -0.63 0.61 c 0 0.16 0.18 0.44 0.34 0.55 c 0.51 0.49 1.4 -0.23 0.93 -0.84" style="fill:#fff"/></svg>