<svg xmlns="http://www.w3.org/2000/svg" viewBox="0 0 32 32"><path d="m 16.4 31.93 c -3.28 -0.26 -7.12 -1.84 -9.79 -4 c -3.25 -2.67 -5.64 -6.77 -6.27 -10.81 c -0.76 -5.34 2.31 -11.1 5.78 -13.79 c 1.74 -1.32 4.05 -2.38 6.21 -2.84 c 5.63 -1.2 11.5 1.07 15.53 6 c 2.41 2.96 3.66 5.95 3.97 9.48 c 0.36 4.23 -1.3 8.77 -4.32 11.84 c -3.45 2.88 -6.99 4.45 -11.1 4.15" style="fill:#d9e4e5"/><path d="m 16.55 29.93 c -2.86 -0.22 -6.21 -1.6 -8.55 -3.52 c -2.84 -2.32 -4.93 -5.89 -5.48 -9.41 c -0.67 -4.64 2 -9.64 5 -12 c 1.52 -1.16 3.54 -2.07 5.42 -2.47 c 4.91 -1.05 10 0.93 13.56 5.23 c 2.11 2.58 3.2 5.17 3.46 8.25 c 0.32 3.69 -1.13 7.64 -3.77 10.3 c -3 2.51 -6.11 3.87 -9.68 3.61" style="fill:#8ccef3"/><path d="m 16.18 29.85 c -2.38 -0.3 -4.82 -1.21 -6.98 -2.61 c -2.62 -1.7 -5 -4.86 -6 -7.92 l -0.23 -0.7 l 13.45 -0.02 c 7.39 -0.01 13.46 0 13.49 0.02 c 0.08 0.08 -0.25 1.57 -0.55 2.48 c -0.8 2.43 -2.2 4.5 -3.95 5.83 c -1.96 1.49 -3.89 2.41 -5.9 2.79 c -0.91 0.18 -2.45 0.24 -3.28 0.13" style="fill:#006a9a"/><path d="m 14.38 19.56 c -0.19 -0.15 -0.32 -0.45 -0.28 -0.65 c 0.07 -0.35 0.27 -0.38 2.7 -0.43 c 2.93 -0.06 2.97 -0.07 3.82 -1.57 c 0.46 -0.81 0.48 -0.93 0.37 -3 c -0.12 -2.26 -0.32 -3.34 -0.61 -3.34 c -0.2 0 -0.37 1.13 -0.7 4.57 l -0.23 2.44 l -2.3 0.05 c -1.29 0.03 -2.3 -0.02 -2.3 -0.12 c 0 -0.3 5.46 -7.71 5.72 -7.78 c 0.38 -0.09 2.56 2.44 3.06 3.55 c 0.24 0.54 0.45 1.3 0.45 1.68 c 0 1.03 -0.54 2.49 -1.05 2.84 c -0.61 0.41 -0.57 0.65 0.11 0.65 c 0.66 0 0.74 0.36 0.2 0.87 c -0.32 0.3 -0.89 0.36 -4.47 0.44 c -3.36 0.08 -4.17 0.04 -4.45 -0.18" style="fill:#061720"/><path d="m 11.76 10.57 c 0 1.34 -1.08 2.43 -2.41 2.43 c -1.33 0 -2.41 -1.09 -2.41 -2.43 c 0 -1.34 1.08 -2.43 2.41 -2.43 c 1.33 0 2.41 1.09 2.41 2.43" style="fill:#ff1200"/></svg>