<svg xmlns="http://www.w3.org/2000/svg" viewBox="0 0 32 32"><path d="m 28.7 24.36 c 10.1 -12.18 -6.91 -26.37 -22.1 -24.1 c -11.35 1.61 -6.79 33.76 9.7 31.61 c 4.9 -0.64 9.16 -3.54 12.44 -7.52" style="fill:#8fd1ec"/><path d="m 12 23.89 c -1.14 -0.62 -2.25 -1.82 -2.9 -3.13 c -0.66 -1.32 -2.94 -9.66 -2.94 -10.77 c 0.01 -1.31 1.65 -1.96 2.54 -1.41 c 0.76 1 1.39 2.41 1.72 3.61 l 0.54 -0.73 c 1.14 -0.76 2.29 -0.61 3.7 -0.95 c 1.24 -0.08 4.37 0.18 5.38 0.67 c 0.98 1.35 0.18 3 0.34 4.55 c 1.46 -0.04 4.42 -0.53 5.52 0 c 1.09 0.59 1.13 2.17 0.39 2.86 c -1.38 1.45 -4.23 0.78 -5.38 1.92 c -2.49 2.86 -3.92 3.59 -8.9 3.36" style="fill:#fff"/><path d="m 12.91 24.61 c -1.32 -0.23 -2.79 -1.42 -3.66 -2.97 c -0.64 -1.14 -1.28 -2.98 -1.55 -4.53 c -0.21 -1.21 -0.54 -2.52 -1.46 -5.86 c -0.46 -1.66 -0.49 -2.18 -0.14 -2.69 c 0.55 -0.81 1.48 -1.09 2.33 -0.69 c 0.88 0.68 1.21 1.88 1.8 3.42 l 0.11 0.26 l 0.26 -0.38 c 0.14 -0.21 0.43 -0.47 0.64 -0.57 c 0.43 -0.2 1.71 -0.24 2.05 -0.06 c 0.18 0.09 0.28 0.06 0.59 -0.21 c 0.44 -0.39 0.89 -0.49 1.86 -0.43 c 0.59 0.04 0.77 0.1 1.13 0.39 c 0.4 0.32 0.46 0.34 0.86 0.23 c 0.62 -0.17 1.85 -0.06 2.21 0.2 c 0.59 0.43 0.67 0.77 0.67 2.91 v 1.95 l 0.41 -0.07 c 0.23 -0.04 1.13 -0.14 2 -0.25 c 1.24 -0.14 1.68 -0.15 2.03 -0.05 c 0.65 0.18 1.14 0.54 1.56 1.16 c 0.35 0.52 0.36 0.59 0.32 1.35 c -0.06 1.17 -0.12 1.21 -3.34 2.25 l -2.62 0.85 l -0.3 0.65 c -1.02 2.52 -5 3.53 -7.75 3.14 m 2.52 -0.88 c 2.41 -0.33 4.05 -1.38 4.6 -2.95 c 0.23 -0.67 0.1 -0.61 3.28 -1.63 c 1.34 -0.43 2.51 -0.84 2.61 -0.91 c 0.23 -0.17 0.23 -1.08 -0.01 -1.43 c -0.22 -0.34 -0.77 -0.68 -1.23 -0.77 c -0.35 -0.07 -3.87 0.32 -4.08 0.45 c -0.05 0.04 -0.11 0.17 -0.11 0.29 c 0 0.36 -0.41 0.92 -0.81 1.11 c -0.5 0.23 -1.82 0.23 -2.32 0 c -0.35 -0.17 -0.4 -0.17 -0.73 0.01 c -0.8 0.21 -2.03 0.4 -2.64 -0.16 c -0.28 -0.26 -0.34 -0.27 -1.36 -0.23 c -1.83 0.06 -2.19 -0.3 -2.19 -2.2 c 0 -1.14 -0.02 -1.23 -0.48 -2.4 c -0.27 -0.67 -0.71 -1.8 -1 -2.53 c -0.28 -0.72 -0.61 -1.42 -0.74 -1.55 c -0.48 -0.52 -1.5 -0.13 -1.5 0.58 c 0 0.16 0.34 1.53 0.77 3.04 c 0.42 1.51 0.86 3.29 0.98 3.95 c 0.32 1.75 0.7 3 1.33 4.3 c 0.68 1.29 1.59 2.53 2.83 2.93 c 0.8 0.25 1.57 0.29 2.8 0.12 m 0.91 -6.64 c 0.21 -0.21 0.22 -0.36 0.22 -2.95 c 0 -3.39 0.01 -3.37 -1.17 -3.37 c -0.6 0 -0.7 0.03 -0.9 0.29 c -0.22 0.27 -0.23 0.42 -0.23 3 v 2.72 l 0.27 0.27 c 0.48 0.34 1.37 0.47 1.81 0.05 m 3.39 -0.32 v -2.52 c 0 -3 0.02 -2.95 -1.15 -2.95 c -0.65 -0.02 -0.86 0.14 -1.25 0.54 v 4.93 l 0.27 0.27 c 0.23 0.23 0.37 0.27 0.93 0.27 c 0.62 0.01 0.82 -0.16 1.2 -0.54 m -6.47 -0.18 c 0.23 -0.17 0.24 -0.22 0.24 -2.46 c 0 -2.29 0 -2.29 -0.27 -2.56 c -0.36 -0.36 -1.42 -0.39 -1.79 -0.04 c -0.23 0.21 -0.24 0.3 -0.24 2.51 c 0 2.14 0.02 2.3 0.22 2.5 c 0.28 0.28 1.46 0.31 1.84 0.05" style="fill:#565c5f"/></svg>