<svg xmlns="http://www.w3.org/2000/svg" viewBox="0 0 32 32"><path d="m 31.86 16.85 c -0.49 -11.38 -8.2 -19.95 -18.89 -15.21 c -7.34 3.25 -14.31 6.81 -12.56 15.21 c 1.75 8.4 10.21 15.21 18.89 15.21 c 8.69 0 12.93 -6.91 12.56 -15.21" style="fill:#ffd600"/><path d="m 15.94 27.2 c -0.4 -0.16 -8.14 -4.48 -8.42 -4.7 c -0.33 -0.28 -0.5 -0.61 -0.7 -0.97 v -4.93 v -4.94 c 0.21 -0.36 0.41 -0.77 0.73 -1.02 c 0.45 -0.33 8.34 -4.67 8.48 -4.67 c 1.06 -0.19 0.79 -0.28 1.59 0 c 0.14 0 7.27 3.91 8.23 4.51 c 0.31 0.2 0.55 0.43 0.72 0.72 c 0.46 0.45 0.26 3.82 0.26 5.38 v 4.95 c -0.24 0.41 -0.52 0.86 -0.89 1.11 c -0.2 0.13 -2.14 1.22 -4.3 2.41 l -3.93 2.18 c -0.55 -0.06 -1.22 0.16 -1.75 -0.04" style="fill:#04af4a"/><path d="m 10.43 20.46 c -0.09 -0.12 -0.11 -0.9 -0.11 -3.56 c 0 -3.13 0.01 -3.43 0.15 -3.58 c 0.14 -0.15 6.32 -3.62 6.45 -3.62 c 0.06 0 5.67 3.09 6.18 3.41 l 0.32 0.2 v 3.54 c 0 1.95 -0.03 3.58 -0.07 3.63 c -0.12 0.18 -6.32 3.55 -6.51 3.55 c -2.13 -1.14 -4.51 -2.44 -6.41 -3.56 m 8.51 -0.73 c 0.52 -0.27 0.59 -0.53 0.59 -1.99 c 0 -1.46 -0.05 -1.61 -0.67 -1.98 c -0.31 -0.19 -0.34 -0.23 -0.34 -0.6 c 0 -1.11 -0.61 -1.78 -1.61 -1.78 c -1 0 -1.62 0.65 -1.63 1.7 c 0 0.47 -0.01 0.49 -0.35 0.69 c -0.62 0.38 -0.66 0.5 -0.66 1.97 c 0 2.11 0.1 2.19 2.75 2.16 c 1.36 -0.02 1.66 -0.04 1.9 -0.16 m -2.38 -2.7 c 0.23 0 0.46 0 0.7 0 l 0.02 0.66 c 0.04 0.9 0.11 1.24 -0.44 1.27 c -0.55 0.03 -0.31 -1.37 -0.29 -1.93 m -0.42 -1.44 c -0.1 -0.09 -0.07 -0.86 0.04 -1.06 c 0.35 -0.5 1.02 -0.49 1.34 -0.13 c 0.3 0.44 0.21 0.69 0.18 1.21 c -0.51 -0.01 -1.06 0.09 -1.55 -0.01" style="fill:#0a0c0b"/><path d="m 13.4 25.76 c -2.66 -1.47 -6.32 -3.12 -6.5 -4.16 c 0 -3.32 0 -6.63 0 -9.95 c 1.13 0.59 2.26 1.18 3.39 1.78 c 0.06 2.13 -0.04 4 0.02 6.41 l 0.07 0.66 l 1.5 0.87 c 1.54 0.89 3.46 1.8 5 2.64 c 0 1.08 -0.09 2.09 -0.09 3.17 c -1.18 0.2 -2.44 -0.89 -3.4 -1.42" style="fill:#039542"/></svg>