<svg xmlns="http://www.w3.org/2000/svg" viewBox="0 0 32 32"><path d="m 28.45 24.93 c 19 -30.43 -44.68 -34.3 -24.34 -1.43 c 5.38 8.47 19.1 13 24.34 1.43" style="fill:#333"/><g style="fill:#f00"><path d="m 7.11 20.79 c -0.57 -0.02 -0.64 -0.07 -0.64 -0.38 c 0 -0.22 0.31 -1.8 0.45 -2.23 c 0.11 -0.38 0.23 -0.55 0.42 -0.58 c 0.09 -0.02 0.66 -0.02 1.27 -0.02 l 1.11 0.02 l 0.02 0.11 c 0.01 0.09 -0.11 0.5 -0.15 0.52 c 0 0 -0.41 0.02 -0.89 0.03 c -0.81 0.03 -0.89 0.04 -0.98 0.13 c -0.13 0.39 -0.6 1.33 -0.3 1.62 c 0.06 0.05 0.18 0.07 0.52 0.07 c 0.24 0 0.63 0.01 0.87 0.03 l 0.43 0.03 v 0.13 c 0 0.14 -0.11 0.43 -0.17 0.47 c -0.06 0.04 -1.39 0.07 -1.93 0.05"/><path d="m 10.45 20.77 c -0.17 -0.02 -0.35 -0.05 -0.39 -0.09 c -0.12 -0.1 -0.1 -0.43 0.11 -1.44 c 0.3 -1.46 0.35 -1.57 0.71 -1.64 c 0.12 -0.02 0.77 -0.04 1.45 -0.04 h 1.24 l 0.09 0.13 c 0.08 0.12 0.08 0.15 0 0.62 c -0.12 0.71 -0.34 1.72 -0.44 2 c -0.13 0.36 -0.24 0.43 -0.83 0.47 c -0.55 0.04 -1.47 0.04 -1.93 0 m 1.98 -0.77 c 0.06 -0.04 0.13 -0.14 0.15 -0.22 c 0.07 -0.22 0.24 -1.13 0.24 -1.29 c 0 -0.2 -0.15 -0.24 -0.88 -0.22 c -0.77 0.02 -0.78 0.02 -0.91 0.61 c -0.21 0.95 -0.22 1.12 -0.06 1.16 c 0.45 -0.05 1.07 0.21 1.46 -0.04"/><path d="m 14.1 20.77 c -0.06 -0.02 -0.11 -0.05 -0.11 -0.07 c 0 -0.09 0.53 -2.62 0.59 -2.83 c 0.09 -0.3 0.17 -0.34 0.54 -0.28 c 0.56 0.05 1.16 0.01 1.63 0 c 1.32 -0.01 1.25 -0.1 1 1.2 c -0.06 0.33 -0.19 0.91 -0.29 1.29 l -0.17 0.68 l -0.18 0.03 c -0.1 0.02 -0.25 0.02 -0.33 0 c -0.15 -0.03 -0.15 -0.03 -0.13 -0.27 c 0.02 -0.13 0.1 -0.64 0.2 -1.14 c 0.1 -0.5 0.16 -0.94 0.15 -0.98 c -0.54 -0.2 -0.98 -0.27 -1.64 -0.08 c -0.09 0.07 -0.11 0.14 -0.39 1.38 c -0.12 0.52 -0.24 0.98 -0.27 1 c -0.08 0.08 -0.46 0.12 -0.59 0.06"/><path d="m 18.35 20.78 c -0.15 -0.01 -0.18 -0.04 -0.18 -0.12 c 0 -0.14 0.69 -3.52 0.79 -3.84 c 0.11 -0.36 0.23 -0.54 0.41 -0.6 c 0.23 -0.07 0.8 -0.11 1.05 -0.08 l 0.36 0.02 l -0.04 0.24 c -0.05 0.27 -0.25 0.31 -0.59 0.34 c -0.34 0.02 -0.44 0.11 -0.49 0.44 c -0.04 0.26 0.02 0.31 0.36 0.36 c 0.29 0.04 0.35 0.1 0.29 0.32 c -0.06 0.22 -0.11 0.25 -0.49 0.3 l -0.33 0.04 l -0.06 0.21 c -0.04 0.12 -0.14 0.57 -0.23 1 c -0.21 0.98 -0.3 1.33 -0.37 1.35 c -0.13 0.04 -0.3 0.05 -0.46 0.04"/><path d="m 22.1 22.1 l -0.16 -0.02 l 0.02 -0.24 c 0.04 -0.4 0.05 -0.41 1.27 -0.41 h 1.04 l 0.1 -0.22 c 0.1 -0.21 0.6 -2.56 0.6 -2.81 c 0 -0.18 -0.13 -0.22 -0.83 -0.22 c -0.82 0 -0.83 0 -1.04 1.18 c -0.12 0.65 -0.11 0.66 0.48 0.7 c 0.26 0.02 0.5 0.05 0.53 0.07 c 0.09 0.05 0.03 0.37 -0.08 0.48 c -0.17 0.17 -1.59 0.15 -1.8 -0.02 c -0.1 -0.08 -0.06 -0.45 0.15 -1.51 c 0.21 -1.04 0.28 -1.28 0.43 -1.46 l 0.12 -0.14 c 0.98 0 1.96 0 2.95 0 l -0.03 0.29 c -0.03 0.35 -0.5 2.65 -0.7 3.48 c -0.19 0.76 -0.22 0.79 -0.82 0.84 c -0.47 0.04 -1.99 0.04 -2.25 0"/><path d="m 6.54 13.91 c -0.33 -0.14 -0.51 -0.51 -0.51 -1.05 c 0 -0.4 0.09 -0.7 0.28 -0.93 c 0.19 -0.22 0.41 -0.31 0.85 -0.35 c 0.67 -0.06 0.73 -0.1 0.73 -0.44 c 0 -0.27 -0.16 -0.61 -0.33 -0.69 c -0.26 -0.13 -0.59 -0.07 -1.21 0.2 c -0.08 0.04 -0.18 -0.25 -0.11 -0.33 c 0.13 -0.15 0.48 -0.23 1.02 -0.23 c 0.61 0 0.76 0.05 0.93 0.29 c 0.11 0.16 0.12 0.22 0.15 0.99 c 0.02 0.45 0.04 1.2 0.04 1.68 v 0.86 l -0.15 0.02 c -0.2 0.02 -0.28 -0.05 -0.32 -0.28 c -0.02 -0.1 -0.04 -0.19 -0.06 -0.2 c -0.02 -0.01 -0.16 0.09 -0.31 0.21 c -0.15 0.13 -0.33 0.25 -0.39 0.27 c -0.16 0.06 -0.44 0.05 -0.61 -0.02 m 0.73 -0.42 c 0.17 -0.09 0.4 -0.34 0.5 -0.53 c 0.1 -0.19 0.15 -0.77 0.08 -0.94 c -0.06 -0.15 -0.31 -0.2 -0.67 -0.14 c -0.48 0.09 -0.68 0.36 -0.68 0.91 c 0 0.37 0.08 0.54 0.32 0.68 c 0.18 0.08 0.31 0.08 0.44 0.02"/><path d="m 9.26 13.9 c -0.08 -0.02 -0.09 -0.14 -0.09 -1.69 c 0 -1.33 -0.01 -1.71 -0.07 -1.83 l -0.07 -0.16 c 0.19 -0.06 0.39 -0.12 0.59 -0.14 c 0.05 0.18 0.06 0.37 0.15 0.54 c 0.04 0.01 0.18 -0.09 0.34 -0.23 c 0.27 -0.26 0.46 -0.35 0.6 -0.29 c 0.05 0.02 0.07 0.06 0.04 0.16 c -0.05 0.18 -0.09 0.22 -0.3 0.28 c -0.21 0.07 -0.54 0.39 -0.65 0.65 c -0.06 0.13 -0.09 0.47 -0.11 1.45 c -0.02 0.7 -0.04 1.29 -0.04 1.29 c 0 0.02 -0.3 0 -0.39 -0.02"/><path d="m 11.22 13.39 c 0.05 -0.81 -0.01 -2.83 -0.09 -3 c -0.04 -0.09 -0.07 -0.16 -0.07 -0.17 c 0 -0.02 0.18 -0.07 0.48 -0.14 c 0.12 -0.03 0.13 -0.02 0.16 0.13 c 0.05 0.26 0.12 0.29 0.35 0.12 c 0.55 -0.39 1.03 -0.35 1.32 0.12 c 0.12 0.18 0.11 0.19 0.46 -0.1 c 0.37 -0.3 0.78 -0.38 1.08 -0.2 c 0.29 0.18 0.3 0.29 0.34 2.14 l 0.03 1.67 c -0.18 0 -0.37 0 -0.55 0 l 0.03 -1.55 c -0.09 -0.55 0.15 -1.41 -0.15 -1.72 c -0.25 -0.24 -0.46 -0.27 -0.71 -0.11 c -0.32 0.21 -0.34 0.27 -0.38 1.11 c -0.02 0.41 -0.04 1.08 -0.04 1.48 v 0.73 c -0.16 0 -0.31 0 -0.46 0 l -0.02 -1.48 c -0.02 -1.23 -0.03 -1.5 -0.09 -1.64 c -0.15 -0.33 -0.54 -0.4 -0.84 -0.15 c -0.3 0.25 -0.3 0.27 -0.34 1.85 c -0.02 0.79 -0.03 1.45 -0.04 1.45 c -0.18 0.02 -0.32 0.01 -0.5 0.01"/><path d="m 16.57 13.98 c -0.16 -0.02 -0.49 -0.07 -0.54 -0.08 c -0.08 -0.02 0.07 -0.15 0.04 -2.41 c -0.02 -1.32 -0.05 -2.45 -0.07 -2.5 c -0.04 -0.1 -0.02 -0.12 0.24 -0.23 c 0.16 -0.07 0.29 -0.12 0.3 -0.12 c 0.01 0 0.02 0.14 0.02 0.32 c 0 0.55 0.06 1.49 0.1 1.55 c 0.03 0.04 0.1 0 0.25 -0.14 c 0.26 -0.23 0.39 -0.29 0.68 -0.29 c 0.66 0 0.99 0.64 0.94 1.84 c -0.02 0.59 -0.16 1.12 -0.38 1.46 c -0.3 0.48 -0.86 0.69 -1.59 0.6 m 0.78 -0.34 c 0.51 -0.25 0.68 -0.69 0.68 -1.74 c 0 -0.61 -0.01 -0.7 -0.11 -0.91 c -0.12 -0.25 -0.3 -0.42 -0.49 -0.46 c -0.23 -0.06 -0.56 0.18 -0.7 0.51 c -0.09 0.2 -0.18 1.45 -0.16 2.1 c 0.02 0.41 0.02 0.41 0.18 0.52 c 0.21 0.14 0.31 0.14 0.61 -0.01"/><path d="m 19.2 13.46 c 0.04 -0.44 0.02 -2.92 -0.02 -3.12 c 0.1 -0.19 0.41 -0.23 0.58 -0.18 c 0.02 0.04 0.04 0.73 0.04 1.54 c 0 0.81 0.02 1.64 0.04 1.86 l 0.04 0.38 c -0.24 0 -0.48 0 -0.72 0"/><path d="m 19.2 9.54 c -0.18 -0.16 -0.19 -0.43 -0.01 -0.62 c 0.27 -0.29 0.59 -0.1 0.59 0.34 c 0 0.38 -0.31 0.54 -0.59 0.29"/><path d="m 21.1 13.95 c -0.06 -0.01 -0.18 -0.09 -0.27 -0.18 c -0.42 -0.41 -0.41 -1.45 0.02 -1.87 c 0.21 -0.2 0.41 -0.27 0.97 -0.33 c 0.23 -0.02 0.44 -0.07 0.48 -0.1 c 0.05 -0.04 0.07 -0.14 0.07 -0.33 c 0 -0.67 -0.42 -0.89 -1.21 -0.62 c -0.18 0.06 -0.34 0.11 -0.36 0.11 c -0.03 0 -0.14 -0.29 -0.12 -0.3 c 0.18 -0.14 0.69 -0.25 1.16 -0.25 c 0.49 0 0.66 0.07 0.84 0.32 l 0.14 0.2 l 0.03 1.64 c 0.02 0.9 0.02 1.65 0 1.67 c -0.02 0.02 -0.11 0.03 -0.2 0.02 c -0.14 -0.01 -0.16 -0.03 -0.22 -0.25 c -0.04 -0.13 -0.07 -0.24 -0.08 -0.25 c -0.01 -0.01 -0.14 0.09 -0.29 0.23 c -0.15 0.13 -0.32 0.26 -0.38 0.28 c -0.2 0.04 -0.39 0.04 -0.57 0.01 m 1.26 -1.55 c 0.03 -0.49 0 -0.53 -0.45 -0.53 c -0.64 0.01 -0.94 0.35 -0.9 1.03 c 0.02 0.29 0.03 0.31 0.22 0.48 c 0.68 0.55 1.11 -0.57 1.13 -0.98"/><path d="m 23.73 13.88 c -0.02 -0.03 -0.05 -0.83 -0.07 -1.78 c -0.01 -0.95 -0.04 -1.76 -0.06 -1.8 c -0.04 -0.09 0.04 -0.13 0.33 -0.2 c 0.13 -0.03 0.15 -0.02 0.19 0.12 c 0.06 0.2 0.18 0.22 0.39 0.05 c 0.48 -0.38 1.2 -0.31 1.43 0.14 c 0.11 0.19 0.11 0.25 0.13 1.84 l 0.02 1.64 h -0.12 c -0.07 0 -0.18 0.02 -0.26 0.03 l -0.14 0.03 v -1.55 c 0 -1.73 0 -1.77 -0.31 -1.93 c -0.26 -0.13 -0.53 -0.07 -0.78 0.18 c -0.14 0.13 -0.23 0.27 -0.25 0.39 c -0.02 0.1 -0.04 0.8 -0.04 1.54 v 1.36 c -0.16 0.01 -0.32 0 -0.46 -0.06"/><path d="m 19.1 26.77 c -0.11 -0.05 -0.26 -0.15 -0.33 -0.23 c -0.27 -0.28 -0.29 -0.61 -0.11 -1.64 c 0.28 -1.54 0.48 -2.21 0.79 -2.66 l 0.18 -0.25 l -0.08 -0.28 c -0.1 -0.35 -0.1 -0.55 0 -0.63 c 0.04 -0.04 0.27 0 0.51 -0.09 l 0.16 -0.05 c 0.22 -0.84 0.48 -1.56 0.68 -2.41 c 0.14 -0.63 0.36 -0.8 0.23 -1.04 c -0.17 -0.33 -0.08 -0.81 0.15 -1.45 c 0.09 -0.22 0.06 -0.3 0.54 -0.18 c 0.55 0.14 0.45 0.14 0.29 0.74 c -0.13 0.48 -0.12 0.66 -0.38 0.96 c -0.2 0.22 -0.19 0.78 -0.36 1.45 c -0.18 0.73 -0.39 2 -0.39 2.12 c 0 0.05 -0.11 -0.07 0.1 0.02 c 0.39 0.18 0.53 0.29 0.53 0.42 c 0 0.05 -0.1 0.27 -0.22 0.46 c -0.24 0.39 -0.26 0.5 -0.14 0.73 c 0.11 0.2 0.07 0.45 -0.25 1.84 c -0.4 1.74 -0.5 1.98 -0.89 2.17 c -0.26 0.13 -0.75 0.13 -1.02 0"/></g></svg>