<svg xmlns="http://www.w3.org/2000/svg" viewBox="0 0 32 32"><path d="m 13 30.83 c -21.34 -2.1 -14.1 -35.2 6.6 -30.1 c 19.63 3.16 14.31 36.97 -6.6 30.1" style="fill:#7f7f7f"/><g style="fill:#221f20"><path d="m 10.29 9.66 h 11.57 c 0.84 0 1.51 0.74 1.51 1.65 v 10.1 c 0 0.91 -0.68 1.65 -1.51 1.65 h -11.57 c -0.84 0 -1.52 -0.74 -1.52 -1.65 v -10.1 c 0 -0.91 0.68 -1.65 1.52 -1.65"/><path d="m 10.98 8.19 h 0.88 v 16.29 h -0.88"/><path d="m 13.1 8.15 h 0.88 v 16.29 h -0.88"/><path d="m 17.87 8.2 h 0.88 v 16.29 h -0.88"/><path d="m 20.1 8.18 h 0.88 v 16.29 h -0.88"/><path d="m 15.63 8.18 h 0.88 v 16.29 h -0.88"/><path d="m 24.88 11.67 v 0.88 h -17.7 v -0.88"/><path d="m 24.88 13.91 v 0.89 h -17.7 v -0.89"/><path d="m 24.88 16.1 v 0.88 h -17.7 v -0.88"/><path d="m 24.92 17.97 v 0.88 h -17.7 v -0.88"/><path d="m 24.88 19.99 v 0.89 h -17.7 v -0.89"/></g><g style="fill:#f00"><path d="m 10.24 17.29 c -0.2 -0.11 -0.31 -0.4 -0.31 -0.83 c 0 -0.32 0.05 -0.55 0.17 -0.73 c 0.12 -0.18 0.25 -0.25 0.52 -0.28 c 0.41 -0.05 0.45 -0.08 0.45 -0.35 c 0 -0.21 -0.1 -0.48 -0.2 -0.55 c -0.16 -0.1 -0.36 -0.05 -0.74 0.16 c -0.05 0.03 -0.11 -0.2 -0.07 -0.26 c 0.08 -0.12 0.29 -0.19 0.62 -0.19 c 0.37 0 0.46 0.04 0.56 0.23 c 0.07 0.13 0.07 0.18 0.09 0.79 c 0.01 0.36 0.02 0.96 0.03 1.33 v 0.68 l -0.09 0.01 c -0.12 0.02 -0.17 -0.04 -0.2 -0.22 c -0.01 -0.08 -0.02 -0.15 -0.04 -0.16 c -0.01 -0.01 -0.1 0.07 -0.19 0.17 c -0.09 0.1 -0.2 0.2 -0.24 0.22 c -0.1 0.05 -0.27 0.04 -0.37 -0.02 m 0.44 -0.33 c 0.1 -0.07 0.25 -0.27 0.31 -0.42 c 0.06 -0.15 0.09 -0.61 0.05 -0.75 c -0.04 -0.12 -0.19 -0.16 -0.41 -0.11 c -0.29 0.07 -0.41 0.28 -0.41 0.72 c 0 0.29 0.05 0.42 0.2 0.54 c 0.11 0.06 0.19 0.07 0.27 0.02"/><path d="m 11.89 17.29 c -0.05 -0.02 -0.05 -0.11 -0.05 -1.34 c 0 -1.05 -0.01 -1.35 -0.04 -1.45 l -0.04 -0.13 c 0.11 -0.05 0.24 -0.1 0.36 -0.11 c 0.03 0.15 0.04 0.29 0.09 0.43 c 0.02 0.01 0.11 -0.07 0.21 -0.19 c 0.17 -0.2 0.28 -0.27 0.36 -0.23 c 0.04 0.02 0.04 0.05 0.03 0.13 c -0.03 0.14 -0.05 0.18 -0.18 0.22 c -0.13 0.05 -0.33 0.31 -0.4 0.52 c -0.04 0.11 -0.05 0.37 -0.07 1.15 c -0.01 0.55 -0.02 1.02 -0.02 1.02 c 0 0.01 -0.18 0 -0.24 -0.02"/><path d="m 13.1 16.88 c 0.03 -0.64 0 -2.25 -0.05 -2.4 c -0.02 -0.07 -0.04 -0.13 -0.04 -0.14 c 0 -0.01 0.11 -0.05 0.3 -0.11 c 0.07 -0.02 0.08 -0.01 0.09 0.11 c 0.03 0.2 0.07 0.22 0.21 0.09 c 0.34 -0.31 0.63 -0.28 0.81 0.1 c 0.07 0.14 0.07 0.14 0.28 -0.08 c 0.22 -0.24 0.48 -0.3 0.66 -0.16 c 0.18 0.14 0.19 0.22 0.21 1.7 l 0.02 1.32 c -0.11 0 -0.23 0 -0.34 0 l 0.02 -1.23 c -0.05 -0.44 0.09 -1.12 -0.09 -1.37 c -0.15 -0.19 -0.29 -0.21 -0.44 -0.08 c -0.2 0.16 -0.21 0.21 -0.23 0.88 c -0.01 0.33 -0.02 0.86 -0.02 1.18 v 0.58 c -0.09 0 -0.19 0 -0.28 0 l -0.01 -1.17 c -0.01 -0.98 -0.02 -1.2 -0.06 -1.31 c -0.09 -0.26 -0.33 -0.32 -0.52 -0.12 c -0.18 0.2 -0.18 0.22 -0.2 1.47 c -0.01 0.63 -0.02 1.14 -0.02 1.15 c -0.11 0.01 -0.19 0.01 -0.3 0.01"/><path d="m 16.36 17.34 c -0.1 -0.02 -0.3 -0.05 -0.33 -0.06 c -0.05 -0.02 0.04 -0.12 0.02 -1.91 c -0.01 -1.05 -0.03 -1.94 -0.05 -1.99 c -0.02 -0.08 -0.01 -0.09 0.15 -0.18 c 0.1 -0.05 0.18 -0.1 0.19 -0.1 c 0.01 0 0.01 0.11 0.01 0.25 c 0 0.43 0.04 1.18 0.06 1.23 c 0.02 0.04 0.06 0 0.16 -0.11 c 0.16 -0.18 0.23 -0.23 0.41 -0.23 c 0.41 0 0.61 0.51 0.58 1.46 c -0.02 0.47 -0.1 0.89 -0.23 1.16 c -0.18 0.38 -0.52 0.55 -0.96 0.47 m 0.47 -0.27 c 0.31 -0.2 0.41 -0.55 0.41 -1.38 c 0 -0.49 -0.01 -0.55 -0.07 -0.72 c -0.07 -0.2 -0.18 -0.34 -0.3 -0.37 c -0.14 -0.05 -0.34 0.14 -0.43 0.4 c -0.05 0.16 -0.11 1.15 -0.1 1.66 c 0.01 0.33 0.01 0.33 0.11 0.42 c 0.13 0.11 0.19 0.11 0.37 -0.01"/><path d="m 17.94 16.93 c 0.03 -0.35 0.02 -2.32 -0.01 -2.48 c 0.06 -0.15 0.25 -0.18 0.36 -0.14 c 0.01 0.03 0.02 0.58 0.02 1.22 c 0 0.64 0.01 1.3 0.02 1.47 l 0.02 0.3 c -0.14 0 -0.29 0 -0.44 0"/><path d="m 17.96 13.82 c -0.11 -0.13 -0.11 -0.34 0 -0.49 c 0.16 -0.23 0.36 -0.09 0.36 0.26 c 0 0.3 -0.19 0.43 -0.36 0.23"/><path d="m 19.1 17.32 c -0.04 -0.01 -0.11 -0.07 -0.16 -0.14 c -0.26 -0.33 -0.25 -1.15 0.01 -1.48 c 0.13 -0.16 0.25 -0.21 0.59 -0.26 c 0.14 -0.02 0.27 -0.05 0.29 -0.08 c 0.03 -0.03 0.04 -0.12 0.04 -0.27 c 0 -0.54 -0.26 -0.71 -0.73 -0.49 c -0.11 0.05 -0.21 0.09 -0.22 0.09 c -0.02 0 -0.09 -0.23 -0.07 -0.24 c 0.11 -0.11 0.42 -0.2 0.71 -0.2 c 0.3 0 0.4 0.05 0.51 0.25 l 0.09 0.16 l 0.02 1.3 c 0.01 0.71 0.01 1.31 0 1.33 c -0.01 0.02 -0.06 0.02 -0.12 0.02 c -0.09 -0.01 -0.1 -0.02 -0.14 -0.2 c -0.02 -0.1 -0.05 -0.19 -0.05 -0.2 c 0 -0.01 -0.09 0.07 -0.18 0.18 c -0.09 0.11 -0.2 0.21 -0.23 0.23 c -0.12 0.03 -0.24 0.03 -0.35 0.01 m 0.77 -1.23 c 0.02 -0.39 0 -0.42 -0.28 -0.42 c -0.39 0 -0.57 0.27 -0.55 0.82 c 0.01 0.23 0.02 0.25 0.13 0.38 c 0.41 0.44 0.68 -0.45 0.69 -0.78"/><path d="m 20.72 17.26 c -0.01 -0.02 -0.03 -0.66 -0.04 -1.41 c -0.01 -0.75 -0.03 -1.39 -0.04 -1.43 c -0.02 -0.07 0.02 -0.11 0.2 -0.15 c 0.08 -0.02 0.09 -0.02 0.12 0.09 c 0.04 0.16 0.11 0.17 0.23 0.04 c 0.3 -0.3 0.73 -0.25 0.88 0.11 c 0.06 0.15 0.07 0.2 0.08 1.46 l 0.01 1.3 h -0.07 c -0.04 0 -0.11 0.01 -0.16 0.02 l -0.09 0.02 v -1.23 c 0 -1.37 0 -1.41 -0.19 -1.53 c -0.16 -0.11 -0.32 -0.05 -0.48 0.14 c -0.08 0.11 -0.14 0.21 -0.15 0.31 c -0.02 0.08 -0.03 0.63 -0.03 1.22 v 1.08 c -0.1 0.01 -0.2 0 -0.28 -0.05"/><path d="m 20.71 19.38 c -0.03 0.07 -0.1 0.19 -0.15 0.25 c -0.2 0.21 -0.48 0.27 -1.36 0.31 c -1.32 0.05 -1.9 0.02 -2.31 -0.12 l -0.23 -0.07 l -0.22 0.09 c -0.28 0.11 -0.45 0.14 -0.53 0.09 c -0.04 -0.03 -0.04 -0.17 -0.13 -0.32 l -0.06 -0.1 c -0.73 -0.02 -1.36 -0.08 -2.09 -0.08 c -0.54 0 -0.71 -0.11 -0.89 0 c -0.25 0.16 -0.66 0.17 -1.22 0.11 c -0.2 -0.02 -0.26 0 -0.22 -0.32 c 0.05 -0.37 0.07 -0.3 0.58 -0.29 c 0.42 0.01 0.57 -0.02 0.84 0.1 c 0.21 0.09 0.67 0.01 1.25 0.02 c 0.63 0.01 1.73 -0.05 1.81 -0.06 c 0.05 -0.01 -0.05 0.08 0.01 -0.07 c 0.11 -0.28 0.18 -0.38 0.29 -0.4 c 0.05 -0.01 0.23 0.03 0.41 0.07 c 0.35 0.09 0.45 0.09 0.62 -0.02 c 0.16 -0.1 0.36 -0.11 1.56 -0.11 c 1.5 0 1.71 0.03 1.91 0.25 c 0.14 0.15 0.2 0.46 0.13 0.66"/></g></svg>