<svg xmlns="http://www.w3.org/2000/svg" viewBox="0 0 32 32"><path d="m 28.1 23.76 c 11.31 -12.88 -5.44 -26.5 -15.25 -23.2 c -9.81 3.35 -16.41 12.8 -10 21.1 c 6.41 8.29 12.71 16.29 24 3.41" style="fill:#2a5f85"/><path d="m 15.6 24.95 c -0.71 -0.38 -1.96 -1.17 -2.51 -1.6 c -0.76 -0.6 -2 -1.88 -2.38 -2.43 c -0.54 -0.83 -0.87 -1.8 -0.99 -2.96 c -0.16 -1.51 -0.28 -7.9 -0.16 -8.33 c 0.02 -0.09 0.11 -0.19 0.2 -0.23 c 0.12 -0.05 1.58 -0.07 5.74 -0.09 c 5.74 -0.02 7.16 0.02 7.26 0.16 c 0.07 0.1 0.02 6.95 -0.06 8.09 c -0.1 1.39 -0.24 2 -0.62 2.75 c -0.68 1.34 -2.38 2.91 -4.57 4.24 c -0.61 0.38 -1.17 0.65 -1.31 0.65 c -0.05 0 -0.32 -0.12 -0.59 -0.26 m 1.08 -0.65 c 2.37 -1.21 4.42 -3.15 4.95 -4.66 c 0.32 -0.93 0.39 -1.67 0.43 -4.6 c 0.02 -1.64 0.01 -2.55 -0.02 -2.58 c -0.07 -0.07 -1.32 1.33 -5.74 6.44 c -2.16 2.5 -3.07 3.58 -3.07 3.65 c 0 0.1 0.5 0.52 1.07 0.89 c 0.47 0.31 1.84 1.1 1.91 1.1 c 0.02 0 0.23 -0.11 0.48 -0.23 m -4.57 -6 c 2.06 -2.15 6 -6.4 7 -7.49 c 0.43 -0.48 0.47 -0.55 0.38 -0.59 c -0.13 -0.05 -9 -0.17 -9.1 -0.13 c -0.02 0.02 -0.03 1.52 -0.03 3.34 c 0 3.35 0.04 4.11 0.23 5 c 0.08 0.39 0.21 0.74 0.31 0.87 c 0.09 0.1 0.22 -0.02 1.2 -1.05" style="fill:#fff"/></svg>