<svg xmlns="http://www.w3.org/2000/svg" viewBox="0 0 32 32"><path d="m 27.94 27.2 c 18.3 -28.2 -31.69 -39.1 -27.7 -10.1 c 1.62 11.82 20.7 20.88 27.7 10.1" style="fill:#403c6c"/><path d="m 17.8 27.1 c -0.56 -0.21 -0.64 -0.41 -0.64 -1.66 c 0 -1.04 -0.03 -1.23 -0.22 -1.33 c -0.12 -0.06 -0.77 -0.15 -1.43 -0.19 c -2.54 -0.16 -4.48 -1.05 -6.2 -2.85 c -0.92 -0.95 -1.55 -2 -2 -3.32 c -0.45 -1.66 -0.5 -3.3 0 -4.79 c 0.91 -2.65 3.13 -4.86 5.72 -5.7 c 1.76 -0.57 3.39 -0.57 5.35 -0.01 c 2.4 0.69 4.74 2.93 5.73 5.48 c 0.45 1.79 0.6 3.76 -0.05 5.34 c -0.69 1.68 -1.89 3.2 -3.34 4.27 c -0.4 0.29 -0.77 0.62 -0.82 0.74 c -0.05 0.11 -0.11 0.91 -0.14 1.76 c -0.06 1.85 -0.1 2.07 -0.39 2.15 c -0.42 0.12 -1.37 0.19 -1.56 0.12 m -0.85 -6.59 c 0.51 -0.85 -0.09 -2.07 0.33 -2.98 c 0.18 -0.33 1.34 -0.77 1.89 -0.73 c 0.64 -0.04 0.49 0.32 0.53 0.87 c 0.04 0.45 0.11 0.87 0.16 0.92 c 0.18 0.17 0.73 -0.48 1 -1.18 c 0.37 -0.92 0.41 -2.99 0.07 -3.91 c -0.56 -1.57 -2.08 -2.93 -3.77 -3.35 c -3.88 -0.98 -7.41 2.05 -6.9 5.93 c 0.28 2.11 1.61 3.68 3.77 4.42 c 0.88 0.3 2.54 0.31 2.9 0.02" style="fill:#fff;fill-opacity:0.97"/></svg>