<svg xmlns="http://www.w3.org/2000/svg" viewBox="0 0 32 32"><path d="m 16.3 31.82 c -3.3 -0.25 -7.16 -1.83 -9.85 -4 c -3.27 -2.66 -5.68 -6.75 -6.31 -10.78 c -0.77 -5.32 2.32 -11 5.81 -13.75 c 1.75 -1.32 4.07 -2.37 6.25 -2.83 c 5.66 -1.2 11.57 1.07 15.63 6 c 2.43 2.95 3.68 5.93 3.99 9.45 c 0.37 4.22 -1.3 8.75 -4.35 11.8 c -3.47 2.88 -7 4.43 -11.15 4.14" style="fill:#caa5de"/><path d="m 10 24.2 c -0.69 -0.45 -1.88 -1.56 -2.43 -2.27 c -0.89 -1.16 -1.59 -2.68 -1.88 -4.1 c -0.21 -1 -0.17 -3.24 0.08 -4.19 c 0.66 -2.55 2.22 -4.73 4.38 -6.12 l 0.54 -0.35 c 0.08 0.53 -0.07 1.19 0.16 1.68 c 0.15 0.17 10.35 0.17 10.5 0 c 0.16 -0.59 0.14 -1.07 0.16 -1.7 l 0.65 0.45 c 2.09 1.43 3.56 3.48 4.21 5.86 c 0.34 1.75 0.44 3.32 0 4.9 c -0.65 2.32 -2.25 4.55 -4.21 5.85 l -0.52 0.34 l -2.61 -2.51 l -2.6 -2.51 l 1.3 -1.27 c 0.95 -0.92 1.29 -1.31 1.25 -1.42 c -0.05 -0.13 -0.35 -0.15 -2.89 -0.15 c -2.51 0 -2.84 0.02 -2.89 0.14 c -0.04 0.1 0.33 0.52 1.26 1.42 l 1.32 1.27 l -2.59 2.49 c -1.42 1.37 -2.61 2.49 -2.63 2.49 c -0.03 0 -0.27 -0.14 -0.55 -0.32 m -0.32 -6.92 c 0.34 -0.15 0.69 -0.68 0.69 -1.02 c 0 -0.64 -0.59 -1.17 -1.29 -1.17 c -0.35 0 -0.46 0.05 -0.77 0.35 c -0.61 0.57 -0.34 1.47 0.23 1.81 c 0.36 0.21 0.72 0.22 1.14 0.03 m 13.53 0.02 c 0.83 -0.41 0.95 -1.34 0.25 -1.93 c -0.76 -0.64 -2 -0.08 -2 0.91 c 0 0.79 1.03 1.38 1.75 1.02" style="fill:#8f3db9"/><g style="fill:#ff0300"><path d="m 13.63 23.58 c -0.08 -0.05 -0.07 -0.1 0.04 -0.26 c 0.2 -0.28 2.37 -2.35 2.46 -2.35 c 0.09 0 2.58 2.41 2.58 2.5 c 0 0.11 -0.43 0.28 -1.05 0.44 c -1.29 0.2 -2.84 0.34 -4 -0.34"/><path d="m 15 26.57 c -0.91 -0.14 -2.23 -0.7 -2.75 -1.17 c -0.22 -0.5 0.07 -0.58 0.41 -0.96 l 0.87 0.42 c 1.11 0.54 1.56 0.65 2.54 0.65 c 0.99 0 1.62 -0.17 2.59 -0.68 l 0.73 -0.39 c 0.28 0.25 0.45 0.48 0.64 0.78 l -0.16 0.17 c -0.21 0.22 -1.13 0.74 -1.57 0.88 c -0.91 0.3 -2.41 0.44 -3.3 0.3"/></g></svg>