<svg xmlns="http://www.w3.org/2000/svg" viewBox="0 0 32 32"><path d="m 26 28.38 c -18.98 14.75 -38.66 -21.98 -15.19 -27.36 c 14.79 -5.51 29.2 16.42 15.19 27.36" style="fill:#707f8f"/><path d="m 11.1 7.64 l 4.59 4.7 l -2.83 4.48 l -4.59 -4.7" style="fill:#dcdcdc"/><path d="m 16.49 19.92 l -6.25 -1.87 l 0.37 -5.31 l 6.24 1.87" style="fill:#218b21"/><path d="m 17.78 6.85 l -3.57 5.54 l 3.65 3.81 l 3.57 -5.54" style="fill:#dc133c"/><path d="m 23.91 17.1 l -5.44 -3.63 l -3.75 3.72 l 5.44 3.64" style="fill:#7a68ed"/><path d="m 23 15.61 l -3.57 5.54 l 3.66 3.81 l 3.57 -5.54" style="fill:#ffa400"/><path d="m 14.19 16.97 l 4.59 4.69 l -2.83 4.48 l -4.59 -4.69" style="fill:#f4f4f4"/><path d="m 23.2 21.28 l 3.57 -5.54 l -3.65 -3.81 l -3.57 5.54" style="fill:#473d8b"/><path d="m 5.55 21.1 l 1.84 -6.35 l 5.22 0.37 l -1.84 6.36" style="fill:#c71485"/></svg>