<svg xmlns="http://www.w3.org/2000/svg" viewBox="0 0 32 32"><path d="m 31.74 16.19 c 2.4 21.1 -31.99 20.82 -31.58 -0.38 c -1.13 -19.71 33.46 -21.49 31.58 0.38" style="fill:#c6d7f3"/><g style="fill:#ec4936"><path d="m 10.93 20.1 c -1.3 -0.05 -1.47 -0.2 -1.47 -0.48 c 0 -0.05 -0.06 -0.27 -0.13 -0.5 c -0.15 -0.51 -0.62 -1.05 -1.16 -1.32 c -0.48 -0.25 -0.69 -0.45 -0.69 -0.7 c 0 -0.26 0.25 -0.41 0.79 -0.48 c 0.77 -0.1 1 -0.31 0.93 -0.87 c -0.04 -0.28 -0.29 -0.42 -0.8 -0.42 c -0.71 0 -1.08 0.34 -1.47 1.36 c -0.62 1.6 -0.75 1.9 -0.95 2.11 c -0.21 0.22 -0.23 0.23 -1 0.23 c -0.86 0 -1.04 -0.04 -1.04 -0.21 c 0 -0.35 0.94 -2.92 1.51 -4.14 l 0.32 -0.69 l 0.44 -0.06 c 0.25 -0.04 1.27 -0.06 2.29 -0.06 c 2.06 0 2.59 0.08 2.81 0.41 c 0.2 0.3 0.1 1.17 -0.25 2.11 c -0.5 1.37 -0.5 1.25 -0.13 1.97 c 0.18 0.35 0.38 0.68 0.46 0.75 c 0.11 0.1 1.27 0.13 7.48 0.18 l 7.34 0.07 c 0.02 0.24 0 0.58 -0.18 0.66 c -0.71 0.14 -12.84 0.16 -15.1 0.07"/><path d="m 11.87 18.61 c -0.21 -0.21 0.09 -0.97 0.82 -2.04 c 0.27 -0.38 0.73 -1.08 1.04 -1.55 c 0.6 -1.05 0.97 -0.94 1.98 -0.91 c 1.09 0.04 1.49 0.14 1.85 0.48 c 0.19 0.18 1.77 3.31 1.86 3.69 l 0.05 0.2 l -0.61 0.04 c -0.83 0.05 -0.81 0.25 -1.5 -0.43 l -0.35 -0.34 l -1.27 -0.02 c -1.46 -0.03 -1.69 0.02 -2.24 0.45 c -0.21 0.17 -0.46 0.34 -0.55 0.39 c -0.18 0.1 -0.98 0.13 -1.07 0.04 m 4.2 -1.97 c 0.25 -0.05 0.25 -0.06 0.21 -0.39 c -0.04 -0.38 -0.24 -0.66 -0.46 -0.66 c -0.26 0 -0.55 0.18 -0.71 0.45 c -0.22 0.36 -0.14 0.56 0.23 0.6 c 0.24 0.04 0.5 0.05 0.72 0"/><path d="m 25 18.34 c -0.16 -0.06 -0.31 -0.28 -0.62 -0.87 c -0.49 -0.93 -0.67 -1.17 -0.85 -1.17 c -0.21 0 -0.51 0.36 -0.91 1.1 c -0.47 0.87 -0.57 0.94 -1.19 0.94 c -0.49 0 -0.5 0 -0.81 -0.36 c -0.19 -0.21 -0.42 -0.62 -0.57 -1 c -0.14 -0.36 -0.41 -0.96 -0.6 -1.33 c -0.77 -1.52 -0.54 -1.64 0.27 -1.63 c 0.45 0 0.71 0.34 1.01 0.71 c 0.68 0.85 0.98 1.02 1.23 0.73 c 0.07 -0.07 0.27 -0.39 0.44 -0.69 c 0.46 -0.81 0.66 -0.98 1.12 -0.98 c 0.47 0 0.7 0.18 1.03 0.78 c 0.28 0.52 0.64 0.95 0.81 0.95 c 0.21 0 0.58 -0.38 0.75 -0.79 c 0.24 -0.56 0.98 -1.39 0.61 -1.41 l -0.93 -0.05 l -9.87 -0.04 c -6.93 -0.03 -9.89 -0.07 -9.95 -0.13 c -0.12 -0.13 0.21 -0.57 0.43 -0.62 c 0.1 -0.03 4.91 -0.04 10.61 -0.02 c 11.73 0.03 10.29 0.18 10.77 0.93 c 0.46 0.73 0.44 0.84 -0.84 3.51 c -0.47 0.98 -0.62 1.23 -0.84 1.36 c -0.28 0.17 -0.75 0.2 -1.1 0.07"/></g><g style="fill:#0869cd"><path d="m 3.7 9.91 c 2.32 -2.78 6.12 -4.73 10.34 -5.3 c 1.17 -0.16 3.48 -0.16 4.66 0 c 3.38 0.46 6.25 1.79 8.36 3.86 c 0.66 0.65 1.36 1.48 1.56 1.83 c -9 0.18 -14.1 0.1 -25.31 0.1"/><path d="m 5.84 24.3 c -0.66 -0.54 -1.69 -1.62 -2.07 -2.16 l -0.15 -0.21 c 8.5 0 17 0 25.52 0 l -0.3 0.44 c -2.13 3.12 -5.81 5.14 -10.2 5.62 c -4.43 0.42 -9.89 -1.37 -12.79 -3.7"/></g></svg>