<svg xmlns="http://www.w3.org/2000/svg" viewBox="0 0 32 32"><path d="m 24.2 29.66 c 28.2 -24.2 -29.75 -47.4 -23.8 -10 c 1.3 8.2 16.21 16.55 23.8 10" style="fill:#c0c0c0"/><g style="stroke:#000"><path d="m 199.8 154.5 c 0.89 21.1 -10.1 41 -28.55 51.85 c -18.48 10.83 -41.5 10.83 -59.98 0 c -18.48 -10.8 -29.44 -30.73 -28.55 -51.85 c -0.89 -21.1 10.1 -41 28.55 -51.85 c 18.48 -10.83 41.5 -10.83 59.98 0 c 18.48 10.8 29.44 30.73 28.55 51.85" transform="matrix(0.127 0 0 0.128 -2.91 -3.87)" style="fill:#696969"/><path d="m 90.1 192.7 c -1.07 -1.26 -2.66 -3.62 -3.49 -5.27 c -1.27 -2.52 -1.15 -3 0.63 -3 c 1.86 0 2.02 -1.11 1.23 -8.93 c -1.23 -11.56 -2.06 -12.93 -8.88 -14.69 c -3.97 -1.03 -7.18 -3.13 -10.43 -6.79 c -5.87 -6.64 -8.61 -6.94 -8.61 -0.92 c 0 4.69 7.1 14.61 11.42 15.99 c 1.27 0.42 2.97 2.59 3.81 4.85 l 12.93 15.64 l -15.9 -7.82 c -2.26 -1.11 -8.41 -6.75 -13.25 -8.39 c -6.98 -2.4 -9.1 -3.74 -10.51 -6.91 c -0.99 -2.14 -5.27 -8.28 -9.56 -13.58 c -4.24 -5.34 -10.63 -14.84 -14.2 -21.2 c -3.53 -6.33 -8.61 -13.89 -11.26 -16.79 c -9.52 -10.38 -15.43 -18.7 -21.38 -29.95 c -6.82 -12.9 -13.8 -32.74 -13.68 -38.8 c 0.08 -3.59 0.2 -3.74 1.19 -1.26 c 0.75 1.91 2.7 3.05 6.11 3.59 c 5.27 0.88 47.1 21.83 51.4 25.76 c 1.39 1.26 4.88 5.84 7.73 10.23 c 2.89 4.35 8.13 11.1 11.54 15 c 5.35 6.07 15.66 28.31 12.25 29.1 c -1.07 0.23 -9.87 -18.85 -13.88 -21.1 c -4.64 -2.67 -9 -9.81 -9 -14.77 c 0 -0.95 -2.74 -4.73 -6.15 -8.43 c -4.4 -4.81 -8.29 -7.52 -13.64 -9.54 c -17.81 -6.68 -24.59 -4.16 -9.36 3.51 c 14.63 7.36 19.2 10.76 17.45 12.93 c -2.34 2.86 -0.67 5.46 4.68 7.25 c 4.36 1.53 5.75 0.92 1.74 4 c -2.89 2.21 -2.93 2.52 -0.95 4.77 c 1.15 1.34 2.5 4.58 2.97 7.25 c 0.63 3.28 2.86 6.75 7.14 11.1 c 6.9 6.94 11.42 7.97 15.23 3.66 c 3.81 -4.27 15.27 -6.94 30.85 -7.1 c 15.98 -0.15 24.1 1.79 30.5 7.25 c 4 3.47 12.89 4.92 12.89 2.1 c 0 -0.72 2.46 -4.04 5.43 -7.36 c 4.2 -4.66 5 -6.3 3.69 -7.17 c -1.47 -0.92 -1.39 -1.68 0.4 -4.5 c 2.46 -3.85 6.31 -6.11 16.1 -9.31 c 7.97 -2.67 8.37 -3.17 7.3 -8.51 c -0.63 -3.28 -1.86 -4.5 -6.46 -6.26 c -3.13 -1.22 -5.67 -2.71 -5.67 -3.28 c 0 -1.34 7.77 -6.22 16.97 -10.68 c 18.2 -8.78 3.49 -8.59 -15.63 0.19 c -6.58 3 -30.69 57.81 -36.41 54.83 c -5.43 -2.82 27.72 -55.86 33.75 -61.85 c 10.27 -10.19 27.3 -22.1 31.45 -22.1 c 0.99 0 3.33 -1.18 5.16 -2.67 c 2.38 -1.91 5.23 -2.63 10.55 -2.63 c 5.99 0 7.26 -0.42 7.3 -2.33 c 0.08 -1.79 0.36 -1.6 1.27 0.65 c 1.47 3.74 -0.56 15.34 -4.52 26.2 c -6.46 17.51 -14.67 31.2 -28.39 47.3 c -4.56 5.3 -12.21 15.91 -17 23.54 c -4.84 7.67 -11.1 16.48 -13.88 19.61 c -2.82 3.17 -5.95 7.75 -6.98 10.23 c -2.34 5.72 -5.51 7.82 -15.98 10.57 c -10.91 2.86 -14.28 4.69 -22.8 12.63 c -7.57 6.98 -11.78 8.17 -15.1 4.24 m 18.8 -14.31 c 2.26 -2.56 7.14 -7.78 10.87 -11.6 c 6.9 -7.1 9.4 -11.71 8.49 -15.87 c -0.75 -3.36 -2.06 -2.9 -7.73 2.9 c -3.45 3.55 -7.1 5.76 -11.26 6.83 c -7.1 1.79 -8.57 4.31 -8.57 14.31 c 0 9.65 1.98 10.49 8.21 3.43" transform="matrix(0.099 0 0 0.102 5.59 5.39)" style="stroke-width:1.21"/><path d="m 135 180.9 c 0 1.28 -1.57 2.32 -3.51 2.33 c -1.91 0 -3.47 -1.06 -3.48 -2.34 c 0 -1.28 1.57 -2.32 3.48 -2.32 c 1.93 0.01 3.51 1.05 3.51 2.33" transform="matrix(0.139 -0.067 0.064 0.147 -13.36 4.87)"/><path d="m 135 180.9 c 0 1.28 -1.57 2.32 -3.49 2.34 c -1.93 -0.01 -3.5 -1.07 -3.5 -2.35 c 0 -1.28 1.57 -2.32 3.5 -2.31 c 1.91 0 3.48 1.04 3.49 2.32" transform="matrix(-0.139 -0.067 -0.064 0.147 43.2 4.87)"/></g><g transform="scale(0.125)" style="fill:#fff;stroke:#fff"><g style="stroke-width:0.29"><path d="m 107.5 189.5 c -2 -2.38 -3.91 -4.84 -4.25 -5.47 c -0.69 -1.38 -1.78 -2.41 -3.56 -3.41 c -2.72 -1.53 -6.69 -6.63 -7.91 -10.1 c -0.63 -1.75 -0.59 -3.78 0.03 -4.53 c 0.59 -0.75 1.56 -0.13 4.66 2.88 c 4.22 4.09 5.81 5.16 9.84 6.47 c 3.75 1.25 4.97 2.09 5.72 4.09 c 0.91 2.41 2.03 13.44 1.41 13.84 c -0.13 0.06 -0.69 0.22 -1.28 0.31 l -1.03 0.19 l -3.66 -4.31 m 2.56 -5.41 c 2.88 -1.22 2.13 -5.25 -1.34 -6.97 c -1.72 -0.84 -3.28 -0.97 -4.75 -0.34 c -1.19 0.47 -1.63 1.19 -1.63 2.63 c 0 1.38 0.63 2.56 1.84 3.47 c 2.06 1.59 4 2 5.88 1.22"/><path d="m 125.4 191 c -0.5 -1.91 -0.41 -8.44 0.13 -10.47 c 0.75 -2.91 1.72 -3.75 5.94 -5.16 c 4.94 -1.63 6.53 -2.63 11.44 -7.19 c 1.44 -1.31 2.78 -2.38 3 -2.38 c 0.53 0 1 1.16 1 2.41 c -0.03 1.22 -1.06 3.78 -2.28 5.56 c -1.13 1.59 -6 6.88 -12.75 13.78 c -3.66 3.75 -4.75 4.72 -5.38 4.72 c -0.66 0 -0.81 -0.16 -1.09 -1.28 m 7.88 -7.28 c 2.34 -1.09 3.81 -3.53 3.22 -5.28 c -0.13 -0.47 -0.69 -1.13 -1.22 -1.5 c -1.78 -1.19 -4.5 -0.69 -6.66 1.25 c -1.16 1.06 -1.31 1.34 -1.44 2.69 c -0.16 1.69 0.06 2.13 1.53 3.06 c 1.03 0.66 2.94 0.56 4.56 -0.19"/></g><g style="stroke-width:1.43"><path d="m 86.2 145.9 c -5.06 -5.06 -9.88 -16.31 -7.84 -18.34 c 2.31 -2.31 1.94 -3.22 -2 -5 c -1.97 -0.91 -3.59 -2.84 -3.59 -4.31 c 0 -3.19 -2.69 -5.69 -11.88 -10.97 c -3.78 -2.19 -6.63 -4.22 -6.28 -4.56 c 0.31 -0.31 4.19 0.78 8.59 2.41 c 8.59 3.25 14 8.47 17.59 17 c 1.19 2.88 3.66 6.81 5.5 8.78 c 1.84 1.97 5.09 6.44 7.25 9.88 c 3.09 5 3.5 6.53 1.97 7.5 c -3.19 2.03 -5.47 1.47 -9.28 -2.34"/><path d="m 148.8 149.6 c -1.66 -1.03 -1.5 -1.97 0.84 -5.34 c 1.56 -2.25 6.56 -10.88 11.1 -19.1 c 9.66 -17.63 11.25 -19.63 17.88 -22.38 c 7.25 -3 8.94 -1.53 2.25 2.03 c -3.13 1.69 -7 4.06 -8.59 5.31 c -2.88 2.28 -2.88 2.28 0 4.38 c 5.69 4.13 7.88 6.34 7.88 7.84 c 0 0.81 -3.38 3 -7.53 4.84 c -8.22 3.66 -13.19 8.19 -12.16 11.1 c 0.63 1.84 -6.84 12.66 -8.75 12.63 c -0.53 -0.03 -1.84 -0.59 -2.94 -1.28"/></g></g></svg>