<svg xmlns="http://www.w3.org/2000/svg" viewBox="0 0 32 32"><path d="m 8.13 28.89 c 25.96 15.96 34.72 -34.95 4.42 -28.2 c -12.51 2.87 -18.2 20.89 -4.42 28.2" style="fill:#020100"/><g style="fill:#d8ab53"><path d="m 9.74 23.83 c -0.25 -0.11 -0.18 -0.26 0.29 -0.55 c 0.73 -0.56 0.89 -0.96 1.26 -1.7 v -11.13 c -0.45 -0.83 -1.06 -1.45 -1.74 -2.05 c 0.61 -0.13 1.25 -0.11 1.76 -0.1 c 1.5 0.03 1.44 -0.01 1.51 1.03 c 0.06 1 0.01 14.1 -0.06 14.24 c -0.52 0.39 -2.45 0.43 -3 0.26"/><path d="m 13.79 23.52 c -0.08 -0.26 -0.15 -11.55 -0.08 -13.47 c 0.04 -1.04 0.07 -1.52 0.14 -1.6 c 1.44 -0.2 2.93 -0.53 4.26 0.13 c 0.6 0.3 1.12 0.78 1.55 1.44 c 0.48 0.73 0.56 1.05 0.56 2.11 c 0 1.5 -0.18 2 -1 2.86 c -0.28 0.29 -0.5 0.54 -0.48 0.55 c 0.02 0.02 0.31 0.17 0.65 0.34 c 1.05 0.52 1.6 1.16 1.91 2.2 c 0.16 0.51 0.18 2.11 0.04 2.69 c -0.17 0.69 -0.59 1.47 -1.05 1.93 c -0.74 0.74 -1.54 1.1 -2.72 1.2 c -0.71 0.07 -3.6 0.07 -3.75 -0.38 m 4.72 -1.22 c 1.03 -0.52 1.5 -1.59 1.42 -3.18 c -0.08 -1.38 -0.76 -2.22 -2 -2.48 c -0.94 -0.11 -2.3 -0.15 -2.83 0.05 l 0.04 1.91 c 0.04 2.38 -0.16 3.12 0.16 3.67 c 0.76 0.71 2.36 0.46 3.22 0.03 m -2.31 -7.2 c 1.2 -0.14 1.89 -0.51 2.2 -1.18 c 0.65 -1.38 0.29 -3.28 -0.75 -3.94 c -0.43 -0.27 -0.7 -0.34 -1.36 -0.34 c -0.7 0 -0.88 0.06 -0.97 0.35 c -0.04 0.95 -0.36 5.09 0.05 5.17 c 0.14 0 0.52 -0.03 0.83 -0.07"/><path d="m 20.56 14.91 c 0 -0.07 0.1 -0.39 0.22 -0.7 l 0.22 -0.57 c 0.25 -1.96 -0.02 -3.04 -0.74 -4.08 c -0.42 -0.61 -0.54 -0.86 -0.39 -0.86 c 0.15 0 0.79 0.29 1.2 0.55 c 0.88 0.56 1.41 1.33 1.54 2.27 c 0.19 1.34 -0.41 2.64 -1.55 3.34 c -0.34 0.21 -0.49 0.23 -0.49 0.05"/><path d="m 21.24 23.2 c 0 -0.04 0.17 -0.42 0.38 -0.84 c 0.54 -1.1 0.61 -1.45 0.61 -2.68 c 0 -1.21 -0.07 -1.52 -0.61 -2.73 c -0.3 -0.68 -0.35 -0.83 -0.28 -0.91 c 0.07 -0.07 0.14 -0.06 0.39 0.06 c 0.75 0.38 1.54 1.2 1.87 1.94 c 0.33 0.73 0.39 2.04 0.13 2.81 c -0.32 0.93 -1.53 2.19 -2.29 2.38 c -0.11 0.03 -0.19 0.02 -0.19 -0.02"/></g></svg>