<svg xmlns="http://www.w3.org/2000/svg" viewBox="0 0 32 32"><path d="m 15.49 0.39 c 21.2 -2.4 22.1 31.99 0.75 31.59 c -19.85 1.14 -22.88 -33.45 -0.75 -31.59" style="fill:#00707d"/><path d="m 11 24.52 c -1.01 -0.41 -0.96 -0.03 -0.96 -8.19 c 0 -6.89 0.02 -7.27 0.25 -7.7 c 0.43 -0.78 0.46 -0.79 5.43 -0.79 c 5.19 0.04 6.63 0.13 4 4.17 c -0.6 1.11 -3.05 3.11 -3.12 4.32 c 0 0.35 0.32 0.94 0.88 1.64 c 0.18 0.22 0.29 0.45 0.24 0.51 c 0.95 1.3 2.33 2.75 3.28 4.2 c 0.29 0.45 0.21 1.21 -0.14 1.54 c -0.53 0.49 -0.85 0.52 -5.2 0.52 c -3.89 0 -4.14 -0.01 -4.66 -0.22" style="fill:#fbc60b"/><path d="m 10.14 23.82 c -0.18 -0.41 -0.11 -14.8 0.02 -15.1 c 0.46 -0.66 0.71 -0.63 1.22 -0.88 h 4.13 c 4.47 0 4.57 0.01 5.13 0.61 c 0.18 0.2 0.27 0.45 0.27 0.78 c 0 0.43 -0.14 0.68 -1.18 2.07 c -1.55 2.07 -2.76 3.75 -3.06 4.25 c -0.42 0.69 -0.28 1.2 0.66 2.44 c 0.18 0.24 0.07 0.34 -3.27 3.17 c -1.9 1.61 -3.53 2.93 -3.62 2.93 c -0.09 0 -0.22 -0.13 -0.29 -0.28" style="fill:#1e53f4"/><path d="m 14.16 11.19 l -3.51 -2.96 l 0.44 -0.23 c 0.42 -0.21 0.61 -0.22 4.57 -0.22 c 4.48 0 4.58 0.01 5.14 0.61 c 0.18 0.2 0.27 0.45 0.27 0.79 c 0 0.45 -0.15 0.7 -1.61 2.66 c -0.89 1.19 -1.65 2.2 -1.7 2.25 c -0.05 0.04 -1.66 -1.26 -3.59 -2.89" style="fill:#27285a"/><path d="m 19.1 20.7 c -2.69 -3.86 -2.73 -3.93 -2.73 -4.38 c 0 -0.51 0.41 -1.18 2.68 -4.32 c 1 -1.4 1.91 -2.66 2 -2.82 c 0.16 -0.25 0.17 0.36 0.18 7.1 c 0 4.05 -0.01 7.37 -0.03 7.37 c -0.02 0 -0.96 -1.32 -2.09 -2.94" style="fill:#fff"/></svg>