<svg xmlns="http://www.w3.org/2000/svg" viewBox="0 0 32 32"><path d="m 27.36 5.6 c -33.3 -25.2 -38 44.2 -4 21.92 c 7.75 -5.08 12.86 -15.23 4 -21.92" style="fill:#eaf81c"/><path d="m 19 5 l -7.99 8" transform="matrix(0.558 0 0 0.541 7.15 7.51)" style="fill:none;stroke:#caba2e;stroke-width:6"/><path d="m 14.4 13.46 h -4.46 v 9.2 h 4.46" style="fill:#caba2e"/><path d="m 14.4 21.57 c 0.56 0 0.56 0.54 0.56 0.54 v 1.08 h -5.58 v -1.08 c 0 -0.54 0.55 -0.54 0.55 -0.54" style="fill:#d6c84a"/><path d="m 15.52 22.1 c 0.56 0 0.56 0.54 0.56 0.54 v 1.08 h -7.81 v -1.08 c 0 -0.54 0.56 -0.54 0.56 -0.54"/><path d="m 19 5 l 4 4" transform="matrix(0.558 0 0 0.541 7.15 7.51)" style="fill:#ff0;stroke:#caba2e;stroke-linecap:square;stroke-width:4"/><g style="fill-opacity:0.2"><path d="m 19.48 8.59 h -3.46 c -0.28 0 -0.5 0.22 -0.5 0.5 v 3.33 c 0 0.27 0.22 0.5 0.5 0.5 h 3.46 c 0.27 0 0.5 -0.23 0.5 -0.5 v -3.33 c 0 -0.28 -0.23 -0.5 -0.5 -0.5"/><path d="m 14.77 12.92 h -5.2 c -0.41 0 -0.75 0.34 -0.75 0.75 v 4.99 c 0 0.41 0.34 0.75 0.75 0.75 h 5.2 c 0.41 0 0.75 -0.34 0.75 -0.75 v -4.99 c 0 -0.41 -0.34 -0.75 -0.75 -0.75"/></g><path d="m 14.77 12.38 h -5.2 c -0.41 0 -0.75 0.34 -0.75 0.75 v 4.99 c 0 0.41 0.34 0.75 0.75 0.75 h 5.2 c 0.41 0 0.75 -0.34 0.75 -0.75 v -4.99 c 0 -0.41 -0.34 -0.75 -0.75 -0.75" style="fill:#d6c84a"/><path d="m 13.9 13.46 h -3.46 c -0.27 0 -0.5 0.23 -0.5 0.5 v 3.33 c 0 0.28 0.23 0.5 0.5 0.5 h 3.46 c 0.28 0 0.5 -0.22 0.5 -0.5 v -3.33 c 0 -0.27 -0.22 -0.5 -0.5 -0.5"/><path d="m 13.47 14 h -2.6 c -0.21 0 -0.38 0.17 -0.38 0.38 v 2.49 c 0 0.21 0.17 0.38 0.38 0.38 h 2.6 c 0.21 0 0.38 -0.17 0.38 -0.38 v -2.49 c 0 -0.21 -0.17 -0.38 -0.38 -0.38" style="fill:#fff;fill-opacity:0.2"/><path d="m 19.48 8.1 h -3.46 c -0.28 0 -0.5 0.22 -0.5 0.5 v 3.32 c 0 0.28 0.22 0.5 0.5 0.5 h 3.46 c 0.27 0 0.5 -0.22 0.5 -0.5 v -3.32 c 0 -0.28 -0.23 -0.5 -0.5 -0.5" style="fill:#d6c84a"/><path d="m 25 16 l -2 -1 v -4 l 2 -2 h 4 l 0.99 2" transform="matrix(0.558 0 0 0.541 7.15 7.51)" style="fill:none;stroke:#000;stroke-linecap:round;stroke-width:2"/><path d="m 18.62 9.13 h -1.73 c -0.14 0 -0.25 0.11 -0.25 0.25 v 1.66 c 0 0.14 0.11 0.25 0.25 0.25 h 1.73 c 0.14 0 0.25 -0.11 0.25 -0.25 v -1.66 c 0 -0.14 -0.11 -0.25 -0.25 -0.25"/><path d="m 8.82 22.1 c 0 0 -0.56 0 -0.56 0.54 v 0.54 c 0 -0.54 0.56 -0.54 0.56 -0.54 h 6.7 c 0.56 0 0.56 0.54 0.56 0.54 v -0.54 c 0 0 0 -0.54 -0.56 -0.54" style="fill:#fff;fill-opacity:0.2"/></svg>