<svg xmlns="http://www.w3.org/2000/svg" viewBox="0 0 32 32" xmlns:xlink="http://www.w3.org/1999/xlink"><defs><linearGradient id="8" gradientUnits="userSpaceOnUse" x1="25.86" y1="65.4" x2="21.1" y2="80.98" gradientTransform="matrix(0.148 0 0 0.162 6.09 6)" xlink:href="#1"/><linearGradient id="D" gradientUnits="userSpaceOnUse" x1="32.85" y1="31.3" x2="36.85" y2="29" gradientTransform="matrix(0.148 0 0 0.162 6.09 6)" xlink:href="#0"/><linearGradient id="9" gradientUnits="userSpaceOnUse" x1="58.99" y1="101.3" x2="63.3" y2="93.9" gradientTransform="matrix(0.148 0 0 0.162 6.09 6)" xlink:href="#1"/><linearGradient id="B" gradientUnits="userSpaceOnUse" x1="93.9" y1="45.71" x2="93.1" y2="57.5" gradientTransform="matrix(0.148 0 0 0.162 6.1 5.54)" xlink:href="#A"/><linearGradient id="C" gradientUnits="userSpaceOnUse" x1="103.5" y1="21.85" x2="103.1" y2="27.93" gradientTransform="matrix(0.148 0 0 0.162 6.09 6)" xlink:href="#A"/><linearGradient id="A" gradientUnits="userSpaceOnUse" x1="119" y1="63.1" x2="117.9" y2="78.7" gradientTransform="matrix(0.148 0 0 0.162 5.4 5.9)"><stop style="stop-color:#007f66;stop-opacity:0"/><stop offset="1" style="stop-color:#0fc"/></linearGradient><linearGradient id="7" gradientUnits="userSpaceOnUse" x1="17.85" y1="71.2" x2="16.2" y2="67.93" gradientTransform="matrix(0.148 0 0 0.162 6.09 6)" xlink:href="#1"/><linearGradient id="0" gradientUnits="userSpaceOnUse" x1="14.93" y1="60.86" x2="14.9" y2="63.3" gradientTransform="matrix(0.148 0 0 0.162 6.09 6)"><stop style="stop-color:#001212"/><stop offset="1" style="stop-color:#001212;stop-opacity:0"/></linearGradient><linearGradient id="1" gradientUnits="userSpaceOnUse" x1="51.3" y1="16.58" x2="44.2" y2="30" gradientTransform="matrix(0.148 0 0 0.162 6.09 6)"><stop style="stop-color:#020202"/><stop offset="1" style="stop-color:#020202;stop-opacity:0"/></linearGradient><linearGradient id="6" gradientUnits="userSpaceOnUse" x1="38.4" y1="102.1" x2="33.72" y2="99.8" gradientTransform="matrix(0.148 0 0 0.162 6.09 6)" xlink:href="#0"/><linearGradient id="2" gradientUnits="userSpaceOnUse" x1="1022.5" y1="1582.4" x2="1018.6" y2="1575.6" gradientTransform="matrix(0.087 0 0 0.09 -73.5 -131.4)" xlink:href="#1"/><linearGradient id="4" gradientUnits="userSpaceOnUse" x1="34.6" y1="38.42" x2="26.62" y2="38.4" gradientTransform="matrix(0.148 0 0 0.162 6.09 6)" xlink:href="#1"/><linearGradient id="5" gradientUnits="userSpaceOnUse" x1="23.51" y1="86.8" x2="32.2" y2="86.7" gradientTransform="matrix(0.148 0 0 0.162 6.09 6)" xlink:href="#1"/><linearGradient id="3" gradientUnits="userSpaceOnUse" x1="20.2" y1="61.91" x2="14.56" y2="51.61" gradientTransform="matrix(0.148 0 0 0.162 6.09 6)" xlink:href="#1"/></defs><path d="m 1.51 21.95 c -12 -38.9 52.6 -19.45 22.36 7.21 c -6.1 5.34 -19.1 3.29 -22.36 -7.21" style="fill:#3d4e7f"/><g style="fill:#fff"><path d="m 10.62 8.49 h 8.41 l -2.13 4 h -4.56 l -1.9 3.59 l 1.93 3.64 h 8.9 l -2.18 4.13 h -8.64 l -4.16 -7.88 l 3.99 -7.55"/><path d="m 10.27 8.45 l 6.64 4.06 l 2.13 -4"/><path d="m 12.37 19.76 l -1.93 4.13 h 8.64 l 2.18 -4.13"/></g><path d="m 10.27 8.45 l 6.64 4.06 h -4.56 l -1.9 3.59 l 1.93 3.64 l -1.93 4.13 l -4.16 -7.89 l 3.99 -7.55" style="fill:#0cf"/><path d="m 6.27 16 l 4.16 0.11 l 0.12 0.22 l -4.15 -0.09" style="fill:url(#0)"/><path d="m 16.9 12.52 l -6.64 -4.06 l -0.5 1 l 5 3.05" style="fill:url(#1)"/><path d="m 12.31 12.48 l 6.76 -4.17 l -2.18 3.91" style="fill:url(#2)"/><g style="fill:#fff"><path d="m 12.34 12.52 l 6.7 -4 l -2.13 4"/><path d="m 6.27 16 l 6.07 -3.48 l -1.9 3.59"/></g><path d="m 6.27 16 l 6.07 -3.48 l -0.41 -0.7 l -5.23 3.31" style="fill:url(#3)"/><path d="m 12.34 12.52 l -2.07 -4.06 l 0.18 7.67" style="fill:#fff"/><path d="m 12.37 19.76 l 6.71 4.13 l 2.18 -4.13" style="fill:#0cf"/><path d="m 10.27 8.45 l -0.51 1 l 0.05 6.63 l 0.63 0.03" style="fill:url(#4)"/><path d="m 10.44 16.1 l -3.18 1.74 l 3.18 6" style="fill:#fff"/><path d="m 10.44 16.1 v 7.78 l 0.78 -1.66 l 0.06 -4.56" style="fill:url(#5)"/><path d="m 10.44 23.88 l -0.3 -0.59 l 1.94 -4.07 l 0.3 0.54" style="fill:url(#6)"/><path d="m 7.26 17.85 l 3.18 -1.74 l -0.64 -0.04 l -2.76 1.44" style="fill:url(#7)"/><path d="m 7.26 17.85 l 5.11 1.9 l -1.93 -3.64" style="fill:#fff"/><path d="m 12.37 19.76 l -5.11 -1.9 l 0.55 1.05 l 4.2 1.66" style="fill:url(#8)"/><path d="m 12.37 19.76 l 6.71 4.13 l 0.8 -1.56 l -4.33 -2.61" style="fill:url(#9)"/><path d="m 24.32 18.1 c 0 0.86 -0.64 1.57 -1.43 1.57 c -0.79 0 -1.44 -0.7 -1.44 -1.57 c 0 -0.87 0.64 -1.57 1.44 -1.57 c 0.79 0 1.43 0.7 1.43 1.57" style="fill:#0cf"/><path d="m 24.33 18.1 c 0 0.86 -0.64 1.57 -1.43 1.57 c -0.79 0 -1.44 -0.7 -1.44 -1.57 c 0 -0.87 0.64 -1.57 1.44 -1.57 c 0.79 0 1.43 0.7 1.43 1.57" style="fill:url(#A)"/><path d="m 20.94 14.44 c 0 0.66 -0.49 1.19 -1.09 1.19 c -0.6 0 -1.09 -0.53 -1.09 -1.19 c 0 -0.66 0.49 -1.19 1.09 -1.19 c 0.6 0 1.09 0.53 1.09 1.19" style="fill:#0cf"/><path d="m 20.95 14.43 c 0 0.66 -0.49 1.19 -1.09 1.19 c -0.6 0 -1.09 -0.53 -1.09 -1.19 c 0 -0.66 0.49 -1.19 1.09 -1.19 c 0.6 0 1.09 0.53 1.09 1.19" style="fill:url(#B)"/><path d="m 21.92 10.32 c 0 0.34 -0.25 0.61 -0.56 0.61 c -0.31 0 -0.56 -0.27 -0.56 -0.61 c 0 -0.34 0.25 -0.61 0.56 -0.61 c 0.31 0 0.56 0.27 0.56 0.61" style="fill:#0cf"/><path d="m 21.92 10.32 c 0 0.34 -0.25 0.61 -0.56 0.61 c -0.31 0 -0.56 -0.27 -0.56 -0.61 c 0 -0.34 0.25 -0.61 0.56 -0.61 c 0.31 0 0.56 0.28 0.56 0.61" style="fill:url(#C)"/><path d="m 12.34 12.52 l -2.07 -4.06 h 0.53 l 1.95 3.8" style="fill:url(#D)"/></svg>