<svg xmlns="http://www.w3.org/2000/svg" viewBox="0 0 32 32"><path d="m 30.59 12.99 c -3.19 -21.34 -35.96 -14.1 -29.76 6.6 c 4.16 19.63 37.7 14.31 29.76 -6.6" style="fill:#d1b38c"/><path d="m 13.46 8.15 h 5 v 16.32 h -5" style="fill:#e2c3a9"/><path d="m 18.71 24.57 l -1.31 -0.05 l -0.02 -0.64 c -0.03 -0.92 -0.06 -0.94 -1.59 -0.94 c -1.56 0 -1.59 0.02 -1.59 0.9 v 0.64 c -1.82 0 -3.64 0 -5.46 0 c -0.54 -0.17 -0.57 -0.5 -0.77 -0.8 c -0.16 -0.27 -0.17 -0.44 -0.19 -7.1 c -0.02 -7.2 -0.01 -7.43 0.38 -7.84 c 0.1 -0.11 0.32 -0.28 0.48 -0.39 c 0.29 -0.18 0.4 -0.19 2.96 -0.21 l 2.66 -0.03 c 0.09 0.3 0.11 0.64 0.11 0.92 c 0 0.75 0.02 0.76 1.56 0.76 c 1.54 0 1.52 0.01 1.52 -1 v -0.66 c 1.82 0 3.63 0 5.45 0 c 0.51 0.31 0.88 0.6 1.14 1.25 v 4.55 c 0 4.3 -0.01 4.55 -0.15 4.49 c -3.39 2.27 -2.79 6.13 -5.16 6.12" style="fill:#ca9a6a"/><path d="m 27.3 22.79 c 0 2.55 -2.07 4.62 -4.63 4.62 c -2.55 0 -4.63 -2.07 -4.63 -4.62 c 0 -2.55 2.07 -4.61 4.63 -4.61 c 2.55 0 4.63 2.07 4.63 4.61" style="fill:#5cab5c"/><path d="m 14.82 20.51 c -0.78 -0.21 -1.41 -0.59 -2 -1.19 c -0.67 -0.66 -1 -1.28 -1.21 -2.27 c -0.43 -1.96 0.77 -4.13 2.7 -4.9 c 0.86 -0.29 2.19 -0.4 3.21 0 c 1.93 0.77 3.1 2.9 2.7 4.88 c -0.2 0.99 -0.54 1.62 -1.21 2.29 c -1.11 1.11 -2.75 1.58 -4.18 1.18 m 2.43 -1.04 c 0.71 -0.32 1.5 -1.11 1.85 -1.82 c 0.4 -0.95 0.43 -1.97 0.02 -2.79 c -0.37 -0.74 -1.1 -1.45 -1.85 -1.82 c -0.98 -0.47 -2.05 -0.34 -2.8 0.03 c -0.8 0.4 -1.38 0.99 -1.78 1.83 c -0.37 0.91 -0.41 1.86 -0.04 2.67 c 0.41 0.87 0.98 1.53 2.26 2.07 c 0.52 0.22 1.72 0.11 2.33 -0.17 m -3.71 -3.53 c 0.45 -0.19 0.82 -0.16 1.34 -0.2 c 0.09 -0.57 -0.09 -1.25 0.15 -1.79 c 0.13 -0.16 1.6 -0.16 1.73 0 c 0.15 0.62 0.13 1.12 0.15 1.79 c 0.26 0.04 1.32 -0.01 1.31 0.24 c -0.02 0.21 -2.15 2.52 -2.34 2.53 c -0.69 -0.68 -1.65 -1.67 -2.35 -2.57" style="fill:#2d2116"/><g style="fill:#fff"><path d="m 21.72 19.89 h 1.71 v 5.89 h -1.71"/><path d="m 25.52 21.98 v 1.71 h -5.9 v -1.71"/></g></svg>