<svg xmlns="http://www.w3.org/2000/svg" viewBox="0 0 32 32" xmlns:xlink="http://www.w3.org/1999/xlink"><defs><linearGradient id="7" gradientUnits="userSpaceOnUse" x1="2.45" y1="10.13" x2="2.2" y2="9.64" gradientTransform="matrix(1.085 0 0 1.181 5.61 5.76)" xlink:href="#1"/><linearGradient id="C" gradientUnits="userSpaceOnUse" x1="4.66" y1="4.27" x2="5.25" y2="3.93" gradientTransform="matrix(1.085 0 0 1.181 5.61 5.76)" xlink:href="#0"/><linearGradient id="8" gradientUnits="userSpaceOnUse" x1="3.63" y1="9.27" x2="2.93" y2="11.56" gradientTransform="matrix(1.085 0 0 1.181 5.61 5.76)" xlink:href="#1"/><linearGradient id="A" gradientUnits="userSpaceOnUse" x1="118.9" y1="63.1" x2="117.9" y2="78.7" gradientTransform="matrix(0.159 0 0 0.165 3.88 -3)"><stop style="stop-color:#007f66;stop-opacity:0"/><stop offset="1" style="stop-color:#0fc"/></linearGradient><linearGradient id="B" gradientUnits="userSpaceOnUse" x1="103.5" y1="21.85" x2="103.1" y2="27.94" gradientTransform="matrix(0.197 0 0 0.205 3.1 15.85)" xlink:href="#A"/><linearGradient id="9" gradientUnits="userSpaceOnUse" x1="8.5" y1="14.54" x2="9.13" y2="13.46" gradientTransform="matrix(1.085 0 0 1.181 5.61 5.76)" xlink:href="#1"/><linearGradient id="6" gradientUnits="userSpaceOnUse" x1="5.47" y1="14.66" x2="4.79" y2="14.31" gradientTransform="matrix(1.085 0 0 1.181 5.61 5.76)" xlink:href="#0"/><linearGradient id="0" gradientUnits="userSpaceOnUse" y1="8.6" x2="0" y2="8.96" gradientTransform="matrix(1.085 0 0 1.181 5.61 5.76)"><stop style="stop-color:#001212"/><stop offset="1" style="stop-color:#001212;stop-opacity:0"/></linearGradient><linearGradient id="5" gradientUnits="userSpaceOnUse" x1="3.29" y1="12.41" x2="4.56" y2="12.4" gradientTransform="matrix(1.085 0 0 1.181 5.61 5.76)" xlink:href="#1"/><linearGradient id="1" gradientUnits="userSpaceOnUse" x1="7.37" y1="2.11" x2="6.32" y2="4.08" gradientTransform="matrix(1.085 0 0 1.181 5.61 5.76)"><stop style="stop-color:#020202"/><stop offset="1" style="stop-color:#020202;stop-opacity:0"/></linearGradient><linearGradient id="3" gradientUnits="userSpaceOnUse" x1="2.8" y1="8.76" x2="1.97" y2="7.25" gradientTransform="matrix(1.085 0 0 1.181 5.61 5.76)" xlink:href="#1"/><linearGradient id="4" gradientUnits="userSpaceOnUse" x1="4.92" y1="5.31" x2="3.74" y2="5.3" gradientTransform="matrix(1.085 0 0 1.181 5.61 5.76)" xlink:href="#1"/><linearGradient id="2" gradientUnits="userSpaceOnUse" x1="1022.5" y1="1582.4" x2="1018.6" y2="1575.6" gradientTransform="matrix(0.093 0 0 0.097 -80.3 -141.8)" xlink:href="#1"/></defs><path d="m 1.51 21.95 c -12 -38.9 52.6 -19.45 22.36 7.21 c -6.1 5.34 -19.1 3.29 -22.36 -7.21" style="fill:#2f4e4e"/><path d="m 10.31 8 h 9.1 l -2.29 4.31 h -4.91 l -2.05 3.85 l 2.07 3.91 h 9.58 l -2.36 4.43 h -9.3 l -4.49 -8.44 l 4.3 -8.09" style="fill:#fff"/><g style="fill:#00aa87"><path d="m 9.92 7.99 l 7.15 4.36 l 2.29 -4.31"/><path d="m 12.23 20.1 l -2.07 4.43 h 9.3 l 2.36 -4.43"/></g><path d="m 9.92 7.99 l 7.15 4.36 h -4.91 l -2.05 3.85 l 2.07 3.91 l -2.07 4.43 l -4.49 -8.44 l 4.3 -8.09" style="fill:#0cf"/><path d="m 5.62 16.1 l 4.49 0.12 l 0.13 0.23 l -4.47 -0.09" style="fill:url(#0)"/><path d="m 17.1 12.35 l -7.15 -4.36 l -0.54 1.06 l 5.41 3.26" style="fill:url(#1)"/><path d="m 12.1 12.3 l 7.28 -4.46 l -2.35 4.2" style="fill:url(#2)"/><g style="fill:#00aa87"><path d="m 12.1 12.35 l 7.2 -4.31 l -2.29 4.31"/><path d="m 5.62 16.1 l 6.51 -3.73 l -2.05 3.85"/></g><path d="m 5.62 16.1 l 6.51 -3.73 l -0.45 -0.76 l -5.63 3.54" style="fill:url(#3)"/><path d="m 12.1 12.35 l -2.24 -4.36 l 0.2 8.21" style="fill:#00aa87"/><path d="m 12.23 20.1 l 7.23 4.43 l 2.36 -4.43" style="fill:#0cf"/><path d="m 9.92 7.99 l -0.54 1.06 l 0.05 7.09 l 0.68 0.04" style="fill:url(#4)"/><path d="m 10.11 16.2 l -3.43 1.87 l 3.43 6.46" style="fill:#00aa87"/><path d="m 10.11 16.2 v 8.38 l 0.84 -1.78 l 0.06 -4.88" style="fill:url(#5)"/><path d="m 10.11 24.52 l -0.33 -0.64 l 2.09 -4.37 l 0.31 0.58" style="fill:url(#6)"/><path d="m 6.68 18.1 l 3.43 -1.87 l -0.68 -0.04 l -2.97 1.55" style="fill:url(#7)"/><path d="m 6.68 18.1 l 5.5 2.03 l -2.07 -3.91" style="fill:#00aa87"/><path d="m 12.23 20.1 l -5.5 -2.03 l 0.6 1.12 l 4.52 1.78" style="fill:url(#8)"/><path d="m 12.23 20.1 l 7.23 4.43 l 0.87 -1.68 l -4.65 -2.79" style="fill:url(#9)"/><path d="m 24.2 9.43 c 0 0.88 -0.69 1.6 -1.54 1.6 c -0.86 0 -1.55 -0.72 -1.55 -1.6 c 0 -0.89 0.69 -1.6 1.55 -1.6 c 0.85 0 1.54 0.71 1.54 1.6" style="fill:#0cf"/><path d="m 24.3 9.41 c 0 0.88 -0.69 1.6 -1.54 1.6 c -0.86 0 -1.55 -0.72 -1.55 -1.6 c 0 -0.89 0.69 -1.6 1.55 -1.6 c 0.85 0 1.54 0.71 1.54 1.6" style="fill:url(#A)"/><path d="m 24.1 21.32 c 0 0.43 -0.33 0.78 -0.75 0.78 c -0.41 0 -0.75 -0.35 -0.75 -0.78 c 0 -0.43 0.34 -0.78 0.75 -0.78 c 0.41 0 0.75 0.35 0.75 0.78" style="fill:#0cf"/><path d="m 24.1 21.31 c 0 0.43 -0.33 0.78 -0.75 0.78 c -0.41 0 -0.75 -0.35 -0.75 -0.78 c 0 -0.43 0.34 -0.78 0.75 -0.78 c 0.41 0 0.75 0.35 0.75 0.78" style="fill:url(#B)"/><path d="m 12.1 12.35 l -2.24 -4.36 h 0.58 l 2.1 4.07" style="fill:url(#C)"/><path d="m 20.5 11.38 c -0.18 0 -0.32 0.14 -0.32 0.33 v 0.78 c -0.27 0.07 -0.53 0.18 -0.77 0.32 l -0.54 -0.55 c -0.13 -0.13 -0.33 -0.13 -0.46 0 l -0.54 0.54 c -0.13 0.13 -0.13 0.34 0 0.47 l 0.54 0.55 c -0.14 0.24 -0.25 0.5 -0.32 0.78 h -0.77 c -0.18 0 -0.32 0.14 -0.32 0.33 v 0.77 c 0 0.18 0.14 0.33 0.32 0.33 h 0.77 c 0.07 0.28 0.18 0.54 0.32 0.78 l -0.54 0.55 c -0.13 0.13 -0.13 0.34 0 0.47 l 0.54 0.54 c 0.13 0.13 0.33 0.13 0.46 0 l 0.54 -0.55 c 0.24 0.14 0.5 0.25 0.77 0.32 v 0.78 c 0 0.18 0.14 0.33 0.32 0.33 h 0.75 c 0.18 0 0.32 -0.14 0.32 -0.33 v -0.78 c 0.27 -0.07 0.53 -0.18 0.77 -0.32 l 0.54 0.55 c 0.13 0.13 0.33 0.13 0.46 0 l 0.54 -0.54 c 0.13 -0.13 0.13 -0.34 0 -0.47 l -0.54 -0.55 c 0.14 -0.24 0.25 -0.5 0.32 -0.78 h 0.77 c 0.18 0 0.32 -0.14 0.32 -0.33 v -0.77 c 0 -0.18 -0.14 -0.33 -0.32 -0.33 h -0.77 c -0.07 -0.28 -0.18 -0.54 -0.32 -0.78 l 0.54 -0.55 c 0.13 -0.13 0.13 -0.34 0 -0.47 l -0.54 -0.54 c -0.13 -0.13 -0.33 -0.13 -0.46 0 l -0.54 0.55 c -0.24 -0.14 -0.5 -0.25 -0.77 -0.32 v -0.78 c 0 -0.18 -0.14 -0.33 -0.32 -0.33 m -0.38 2.59 c 0.73 0 1.32 0.6 1.32 1.35 c 0 0.74 -0.59 1.34 -1.32 1.34 c -0.73 0 -1.32 -0.6 -1.32 -1.34 c 0 -0.75 0.59 -1.35 1.32 -1.35" style="fill:#0cf"/><path d="m 20.54 17.29 c -0.89 -0.17 -1.52 -0.77 -1.68 -1.61 c -0.05 -0.25 -0.04 -0.64 0.03 -0.88 c 0.28 -1 1.24 -1.68 2.21 -1.56 c 0.82 0.1 1.45 0.57 1.74 1.29 c 0.18 0.45 0.18 1.01 0.01 1.47 c -0.24 0.62 -0.79 1.11 -1.43 1.27 c -0.19 0.05 -0.68 0.06 -0.87 0.02 m 0.64 -0.9 c 0.42 -0.09 0.8 -0.45 0.9 -0.84 c 0.02 -0.05 0.03 -0.18 0.03 -0.27 c 0 -0.31 -0.1 -0.55 -0.33 -0.79 c -0.38 -0.38 -0.95 -0.47 -1.43 -0.22 c -0.73 0.36 -0.86 1.3 -0.26 1.84 c 0.29 0.26 0.71 0.37 1.1 0.29" style="fill:#00aa87"/></svg>