<svg xmlns="http://www.w3.org/2000/svg" viewBox="0 0 32 32"><defs><linearGradient id="0" gradientUnits="userSpaceOnUse" x1="4.25" y1="5.12" x2="12.21" y2="13.39" gradientTransform="matrix(1.129 0 0 1.107 6.68 6.56)"><stop style="stop-color:#868e96"/><stop offset="1" style="stop-color:#5d6268"/></linearGradient><linearGradient id="1" gradientUnits="userSpaceOnUse" x1="5.61" y1="7.19" x2="10.1" y2="11.15" gradientTransform="matrix(1.129 0 0 1.107 6.68 6.56)"><stop style="stop-color:#d078e5"/><stop offset="1" style="stop-color:#26c7ff"/></linearGradient></defs><path d="m 30.6 10.94 c 6.21 15.93 -11.2 24.1 -22 20 c -7.56 -2.84 -11.32 -14.1 -5.96 -23.2 c 6.78 -11.52 23.2 -9.1 27.99 3.21" style="fill:#02c8ef"/><path d="m 7.81 9.88 h 2.26 v 4.43 h -2.26" style="fill:#22bcfa"/><path d="m 14.44 8.77 c -0.56 0 -1.09 0.28 -1.41 0.74 l -1.24 1.38 c -0.02 0.03 -0.01 0.05 -0.02 0.09 h -3.95 c -0.62 0 -1.13 0.5 -1.13 1.11 v 9.96 c 0 0.61 0.51 1.11 1.13 1.11 h 15.8 c 0.62 0 1.13 -0.5 1.13 -1.11 v -9.96 c 0 -0.61 -0.51 -1.11 -1.13 -1.11 h -3.95 c -0.02 -0.04 -0.01 -0.07 -0.04 -0.09 l -1.24 -1.38 c -0.31 -0.46 -0.84 -0.74 -1.41 -0.74" style="fill:url(#0)"/><path d="m 23.61 12.65 c 0 0.3 -0.25 0.55 -0.56 0.55 c -0.31 0 -0.57 -0.25 -0.57 -0.55 c 0 -0.31 0.25 -0.55 0.57 -0.55 c 0.31 0 0.56 0.25 0.56 0.55" style="fill:#b8c1cc"/><path d="m 20.23 16.52 c 0 2.45 -2 4.43 -4.51 4.43 c -2.5 0 -4.52 -1.98 -4.52 -4.43 c 0 -2.45 2 -4.43 4.52 -4.43 c 2.49 0 4.51 1.98 4.51 4.43" style="fill:#fff"/><path d="m 19.1 16.52 c 0 1.83 -1.52 3.32 -3.39 3.32 c -1.87 0 -3.39 -1.49 -3.39 -3.32 c 0 -1.84 1.52 -3.32 3.39 -3.32 c 1.87 0 3.39 1.49 3.39 3.32" style="fill:url(#1)"/><path d="m 24.74 22.1 c 0 0.61 -0.51 1.11 -1.13 1.11 h -15.8 c -0.62 0 -1.13 -0.5 -1.13 -1.11" style="fill:#3e454a"/></svg>