<svg xmlns="http://www.w3.org/2000/svg" viewBox="0 0 32 32"><path d="m 28.7 24.5 c 11.51 -16.32 -9.74 -32.87 -23.3 -19.56 c -12.77 12.53 -0.93 32 14.96 25.92 c 3.32 -1.27 6.22 -3.36 8.34 -6.35" style="fill:#473d8b"/><path d="m 15.83 21.49 c 0 -2.46 -0.02 -4.49 -0.05 -4.52 c -0.03 -0.02 -1.48 1.38 -3.23 3.13 l -3.18 3.18 l 0.3 0.27 c 1.46 1.33 3.48 2.18 5.64 2.36 l 0.52 0.05" style="fill:#9400d2"/><path d="m 23.51 22.35 c 1.1 -1.31 1.8 -2.81 2.03 -4.34 c 0.19 -0.69 0.2 -0.71 0.24 -1.45 h -4.46 c -2.76 0 -4.45 0.03 -4.44 0.07 c 0.04 0.1 6.12 6.19 6.18 6.19 c 0.03 0 0.23 -0.21 0.45 -0.46" style="fill:#ffa400"/><path d="m 12.22 19.65 l 3.11 -3.11 l -4.53 -0.04 c -2.49 -0.02 -4.53 -0.04 -4.54 -0.04 c -0.01 0 0.02 0.27 0.05 0.61 c 0.16 1.63 0.79 3.34 1.69 4.57 c 0.44 0.6 0.9 1.11 1.02 1.11 c 0.05 0 1.5 -1.4 3.21 -3.11" style="fill:#1e8fff"/><g transform="matrix(-0.072 0 0 0.071 25.1 7.22)" style="stroke-width:0.11"><path d="m 129.9 119.2 c -0.11 -0.22 -0.05 -11.38 0.22 -24.85 c 0.22 -13.47 0.43 -41.84 0.43 -63.1 l 0.05 -38.54 h 2 c 6.88 0 23.72 3.19 33.36 6.27 c 11 3.57 24.48 10.23 34.39 16.93 c 5.2 3.52 14.19 10.72 16.57 13.3 l 1.57 1.65 l -1.57 1.21 c -6 4.67 -75.8 75.1 -82.9 83.6 c -3.2 3.79 -3.74 4.23 -4.17 3.46" style="fill:#eaf81c;stroke:#ffd9b9"/><path d="m 51.71 123.6 c -47.2 -0.16 -59.5 -0.33 -59.5 -0.82 c 0 -2.09 1.68 -15.45 2.55 -20.1 c 4.71 -25.73 15.65 -48.65 31.1 -65.4 l 3.79 -4.07 l 42.3 44.59 c 23.2 24.52 42.3 44.86 42.3 45.2 c 0 0.38 -0.7 0.66 -1.57 0.66 c -0.81 0 -28.3 -0.05 -60.99 -0.16" style="fill:#ffd600;stroke:#fff"/><path d="m 114.5 262.8 c -20.31 -1.43 -41.1 -7.97 -57.4 -18 c -6.61 -4.07 -15.44 -10.61 -19.66 -14.57 l -4 -3.68 l 28.98 -29.41 c 15.92 -16.22 35.8 -36.2 44.1 -44.3 l 15.17 -14.84 l 0.32 15.56 c 0.16 8.58 0.38 36.83 0.38 62.78 c 0.05 37.44 -0.05 47.2 -0.6 47.1 c -0.32 -0.05 -3.63 -0.33 -7.31 -0.55" style="fill:#f00;stroke:#f00"/><path d="m 98.1 95.2 c -23.83 -23.8 -61.2 -62.2 -62.6 -64.3 c 1.08 -6.65 14.24 -14.24 21.5 -18.64 c 7.96 -4.73 22.53 -11 31.3 -13.47 c 9.86 -2.75 25.94 -5.55 31.85 -5.55 h 2.11 l -0.32 60.86 c -0.16 33.48 -0.49 61.5 -0.7 62.1 c -0.16 0.66 -0.49 1.21 -0.65 1.15 c -0.22 0 -10.35 -9.95 -22.53 -22.2" style="fill:#ff0;stroke:#ff7f4f"/><path d="m 184.1 123.4 c -22.91 -0.22 -42.73 -0.55 -43.98 -0.71 l -2.33 -0.33 l 4.44 -4.95 c 6.66 -7.42 53.73 -55.3 68.2 -69.4 l 12.73 -12.37 l 3.68 4 c 4.77 5.17 12.24 15.23 15.38 20.67 c 6.5 11.27 12.35 26.77 15.27 40.57 c 0.65 6.82 5.09 15.45 2.87 22.27 c -0.32 0.99 -3.47 0.99 -76.3 0.22" style="fill:#9acd31;stroke:#ff9f79"/></g></svg>