<svg xmlns="http://www.w3.org/2000/svg" viewBox="0 0 32 32"><path d="m 0.37 19.65 c 1.98 12.91 19.61 16.38 27.39 7.15 c 6.85 -6.85 5.15 -19.96 -3.26 -24.46 c -9.65 -6 -23.71 1.42 -24.48 13.4 c -0.08 1.31 0.04 2.64 0.35 3.91" style="fill:#fc561f"/><path d="m 9.76 8.41 h 12.97 c 0.82 0 1.49 0.69 1.49 1.54 v 12.67 c 0 0.85 -0.67 1.54 -1.49 1.54 h -12.97 c -0.82 0 -1.49 -0.69 -1.49 -1.54 v -12.67 c 0 -0.85 0.67 -1.54 1.49 -1.54" style="fill:#fff"/><path d="m 10 10.3 h 5.84 v 5.78 h -5.84" style="fill:#613582"/><path d="m 16.37 10.32 h 5.85 v 5.78 h -5.85" style="fill:#c061ca"/><g style="fill:#613582"><path d="m 16.36 16.66 h 5.85 v 5.78 h -5.85"/><path d="m 9.94 16.71 h 5.85 v 5.78 h -5.85"/></g></svg>