<svg xmlns="http://www.w3.org/2000/svg" viewBox="0 0 32 32"><path d="m 28.37 5.62 c 7.83 12 1.51 22.99 -7.35 25.59 c -11.93 3.5 -28.1 -5.7 -17.45 -24.63 c 4.24 -7.53 19.21 -9.53 24.8 -0.96" style="fill:#4069e0"/><g style="fill:#554570"><path d="m 9.25 22.29 c -0.05 -0.04 -0.14 -0.18 -0.19 -0.31 c -0.07 -0.22 -0.08 -0.45 -0.08 -2.19 c 0 -1.92 0 -1.95 -0.11 -2.27 c -0.14 -0.41 -0.18 -1.14 -0.1 -1.56 c 0.08 -0.39 0.29 -0.83 0.51 -1.09 c 0.1 -0.12 0.25 -0.04 0.27 -0.08 c 0.33 0.52 0.66 1.09 0.87 1.69 c 0 0.18 -0.09 0.34 -0.12 0.51 c -0.05 0.38 -0.23 0.72 -0.62 1.11 l -0.34 0.36 c 0.09 0.53 0.13 1.61 0.19 2.21 c 0.34 0.04 0.37 0.01 0.68 0.22 c 0.17 0.06 -0.4 1.03 -0.52 1.36 c -0.08 0.13 -0.28 0.14 -0.43 0.04"/><path d="m 23.1 22.2 c 0.06 -0.04 0.14 -0.18 0.19 -0.31 c 0.07 -0.21 0.08 -0.45 0.08 -2.18 c 0 -1.92 0 -1.95 0.11 -2.27 c 0.14 -0.41 0.19 -1.14 0.1 -1.56 c -0.08 -0.39 -0.31 -0.81 -0.51 -1.09 c -0.24 -0.35 -0.66 -0.1 -0.67 -0.14 c -0.33 0.53 -0.28 0.86 -0.49 1.46 c -0.01 0.18 0.12 0.64 0.14 0.8 c 0.05 0.38 0.23 0.72 0.62 1.12 l 0.34 0.36 c -0.09 0.53 -0.13 1.61 -0.19 2.21 c -0.45 -0.03 -0.16 -0.11 -0.68 0.22 c -0.17 0.06 0.4 1.03 0.52 1.36 c 0.08 0.13 0.28 0.14 0.43 0.04"/></g><path d="m 15.1 25.99 c -1.74 -0.67 -3 -2.91 -3.57 -6.48 c -0.2 -1.23 -0.23 -4.13 -0.07 -5.42 c 0.34 -2.68 1.09 -4.84 2.18 -6.21 c 2 -2.52 4.5 -1.72 6.07 1.94 c 0.63 1.48 1.05 3.42 1.16 5.46 c 0.28 4.96 -1.2 9.35 -3.49 10.67 c -0.81 0.27 -1.63 0.26 -2.27 0.04" style="fill:#fff"/><path d="m 14.72 11.42 c -0.14 -0.57 0.45 -0.74 0.77 -1.25 c 0 -0.07 0.18 -0.25 0.61 -0.25 c 0.49 0 0.61 0.18 0.65 0.32 c 0.14 0.15 1.19 1.09 0.78 1.14 c -0.19 0.1 -0.26 0.4 -0.41 0.55 c -0.32 -0.2 -0.66 -0.4 -0.98 -0.6 c -0.28 0.17 -0.48 0.3 -0.76 0.48 c -0.27 0.08 -0.44 -0.27 -0.66 -0.39" style="fill:#ff8c00"/><g style="fill:#00ba00"><path d="m 13 21.41 c -0.14 -0.21 -0.23 -0.49 -0.45 -0.59 c -0.6 0.01 -0.81 0.29 -1.23 0.66 c -0.61 -0.36 -1.14 -0.57 -1.64 -0.96 l 0.2 -0.88 c 0.3 -1.34 0.5 -2.07 0.59 -2.07 c 0.04 0 0.41 0.18 0.83 0.39 c 0.88 0.46 0.93 0.46 1.77 -0.04 l 0.58 -0.34 l 0.14 0.21 c 0.37 0.53 1.39 2.48 1.39 2.64 c -0.68 0.59 -1.22 0.88 -1.97 1.3 c -0.07 -0.11 -0.13 -0.21 -0.2 -0.32"/><path d="m 16.31 20.1 c -0.79 -0.81 -1.22 -2 -1.75 -3 l 0.27 -0.23 c 0.37 -0.32 1.21 -0.82 1.28 -0.75 c 0.08 0.09 0.6 3.52 0.6 3.97 c 0 0.23 -0.04 0.23 -0.39 0.02"/><path d="m 17.91 16 c -0.82 -0.49 -1.54 -0.92 -1.6 -0.96 c -0.09 -0.05 -0.42 0.1 -1.17 0.51 c -0.58 0.32 -1.09 0.56 -1.14 0.54 c -0.05 -0.02 -0.13 -0.16 -0.18 -0.32 c -0.11 -0.37 -0.11 -0.36 0.85 -1.05 c 0.42 -0.3 0.84 -0.61 0.94 -0.7 c 0.2 -0.18 0.23 -0.59 0.05 -0.78 c -0.11 -0.11 -0.16 -0.1 -0.52 0.1 c -0.21 0.12 -0.66 0.38 -0.98 0.59 c -0.66 0.41 -0.77 0.4 -0.73 -0.09 c 0.02 -0.28 0.07 -0.32 0.89 -0.91 c 0.71 -0.51 0.88 -0.66 0.94 -0.87 c 0.18 -0.38 0.42 -0.48 0.77 -0.7 l 0.5 0.27 c 0.28 0.15 1.05 0.61 1.72 1.03 l 1.22 0.76 l 0.02 1.63 c 0.01 0.89 -0.01 1.67 -0.04 1.73 c -0.05 0.09 -0.35 -0.06 -1.54 -0.78"/><path d="m 20.25 16.55 c -0.02 -0.06 -0.01 -0.71 0.04 -1.45 c 0.08 -1.33 0.08 -1.34 0.31 -1.52 c 0.35 -0.28 1.57 -0.88 1.64 -0.81 c 0.11 0.11 0.07 2.36 -0.05 2.64 c -0.57 0.62 -1.04 0.85 -1.85 1.25 c -0.03 0 -0.07 -0.05 -0.09 -0.11"/><path d="m 18.55 21.5 c -0.83 -0.46 -0.82 -0.45 -0.93 -1.29 c -0.13 -1.06 -0.12 -1.38 0.04 -1.47 c 0.07 -0.04 0.46 -0.14 0.86 -0.24 c 0.88 -0.21 1.43 -0.46 2.4 -1.11 c 0.41 -0.28 0.81 -0.5 0.88 -0.5 c 0.07 0 0.15 0.11 0.21 0.3 c 0.2 0.49 0.63 0.86 0.94 1.29 c -0.13 0.47 0.04 1.78 -0.36 2.04 c -0.61 0.35 -1.09 0.61 -1.72 0.96 l -0.39 -0.33 c -1 -0.65 -1.02 -0.09 -1.51 0.56 c -0.16 -0.08 -0.28 -0.14 -0.41 -0.22"/><path d="m 17.36 17.84 c -0.03 -0.07 -0.07 -0.34 -0.1 -0.59 c -0.05 -0.43 -0.04 -0.46 0.1 -0.41 c 0.18 0.07 0.84 0.47 1.09 0.66 l 0.19 0.14 l -0.27 0.11 c -0.15 0.06 -0.43 0.14 -0.62 0.16 c -0.29 0.05 -0.36 0.03 -0.4 -0.08"/><path d="m 11.27 16.86 l -0.91 -0.47 l -0.2 -0.64 c -0.15 -0.47 -0.27 -0.71 -0.48 -0.93 c -0.37 -0.28 -0.28 -0.58 -0.28 -1.01 c 0 -1.11 0.08 -1.76 0.2 -1.76 c 0.08 0 2.57 1.25 2.66 1.33 c 0 0 0.18 0.75 0.39 1.66 c 0.38 1.64 0.38 1.65 0.24 1.81 c -0.22 0.21 -0.46 0.33 -0.72 0.48 c -0.3 -0.16 -0.61 -0.32 -0.91 -0.47"/></g><path d="m 17.2 20.56 c -0.18 -0.13 -0.34 -0.3 -0.36 -0.4 c -0.02 -0.09 -0.15 -1.05 -0.3 -2.12 c -0.25 -1.82 -0.31 -2.07 -0.52 -2.08 c -0.11 0 -1.44 0.93 -1.48 1.03 c -0.02 0.06 0.29 0.75 0.69 1.54 l 0.73 1.42 c -0.18 0.12 -0.38 0.24 -0.58 0.31 c -0.05 0 -0.39 -0.55 -0.76 -1.23 c -0.37 -0.68 -0.73 -1.3 -0.8 -1.39 l -0.13 -0.17 c -0.5 0.23 -0.96 0.66 -1.49 0.8 c -0.65 -0.17 -1.08 -0.6 -1.75 -0.77 c -0.1 0 -0.35 0.83 -0.63 2.11 c -0.24 1.08 -0.32 1.05 -0.39 -0.17 l -0.05 -0.85 l 0.32 -0.62 c 0.24 -0.45 0.69 -0.84 0.69 -1.15 c 0 -0.07 0.02 -0.16 0.05 -0.18 c 0.03 -0.03 0.42 0.14 0.88 0.37 c 0.8 0.41 0.84 0.41 1.07 0.31 c 0.3 -0.14 0.52 -0.34 0.76 -0.55 l -0.35 -1.52 c -0.2 -0.83 -0.35 -1.57 -0.35 -1.65 c 0 -0.09 0.12 -0.2 0.32 -0.3 c 0.18 -0.09 0.86 -0.34 1.35 -0.78 c 0.84 -0.74 0.98 -0.86 1 -0.77 c 0.04 0.18 -0.03 0.55 -0.93 1.19 l -0.83 0.57 c 0 0.25 -0.02 0.55 0.11 0.76 c 0.13 0.11 0.16 0.1 1.19 -0.54 c 0.4 -0.25 0.79 -0.45 0.86 -0.45 c 0.15 0 0.25 0.36 0.15 0.53 c -0.07 0.12 -0.49 0.45 -1.51 1.18 c -0.46 0.33 -0.5 0.39 -0.46 0.57 c 0.09 0.4 0.21 0.63 0.33 0.63 c 0.06 0 0.56 -0.24 1.1 -0.54 c 0.54 -0.3 1.03 -0.54 1.08 -0.54 c 0.05 0 0.71 0.37 1.46 0.82 c 1.45 0.88 1.77 1.05 1.84 0.97 c 0.03 -0.02 0.07 -0.76 0.1 -1.63 c 0.03 -0.87 0.05 -1.64 0.06 -1.71 c 0.01 -0.19 2.98 -1.64 3.06 -1.5 c 0.04 0.05 0.06 0.64 0.06 1.29 v 1.2 c -0.14 0.07 -0.28 0.13 -0.42 0.18 c -0.02 0 -0.04 -0.27 -0.04 -0.6 c 0 -0.86 -0.07 -1.32 -0.21 -1.32 c -0.13 0 -1.35 0.63 -1.61 0.84 c -0.18 0.14 -0.19 0.2 -0.24 1.36 c -0.06 1.27 -0.04 1.64 0.11 1.64 c 0.05 0 0.38 -0.17 0.73 -0.38 c 0.36 -0.21 0.67 -0.38 0.7 -0.39 c 0.07 0 0.19 0.6 0.09 0.79 c -0.08 0.16 -1.52 0.99 -2.15 1.31 c -0.22 0.12 -0.8 0.31 -1.29 0.44 c -0.49 0.13 -0.92 0.26 -0.96 0.3 c -0.09 0.09 -0.07 0.57 0.03 1.29 c 0 0.79 0.14 0.9 -0.36 0.55 m 0.93 -2.64 c 0.62 -0.16 0.66 -0.23 0.34 -0.5 c -0.41 -0.35 -1.05 -0.7 -1.19 -0.65 c -0.1 0.04 -0.11 0.13 -0.07 0.51 c 0.05 0.54 0.16 0.76 0.34 0.76 c 0.21 -0.03 0.41 -0.07 0.59 -0.12" style="fill:#ff0"/><g style="fill:#ff8c00"><path d="m 20.35 25.96 c -0.23 -0.04 -0.59 -0.4 -0.89 -0.9 c -0.32 -0.54 -0.4 -0.97 -0.4 -2.18 c -0.07 -0.64 -0.14 -1.24 0.16 -1.78 c 0.37 -0.67 0.68 -0.52 1.41 0.18 c 0.3 0.37 0.43 0.02 0.81 -0.19 c 0.59 -0.33 0.76 -0.17 0.92 0.08 c 0.09 0.15 0.27 0.89 0.27 1.17 c 0 0.04 0.24 0.05 0.53 0.04 c 0.45 -0.02 0.56 0.01 0.71 0.14 c 0.39 0.36 -0.07 1.34 -1.15 2.46 c -0.75 0.78 -1.57 1.11 -2.36 0.98"/><path d="m 11.1 25.95 c -0.77 -0.2 -1.64 -0.95 -2.34 -2 c -0.43 -0.66 -0.54 -1.03 -0.36 -1.3 c 0.13 -0.2 0.64 -0.4 0.71 -0.28 c 0.05 0.09 0.47 0.09 0.53 0 c 0.02 -0.04 0.08 -0.28 0.13 -0.53 c 0.12 -0.64 0.25 -0.83 0.57 -0.78 c 0.14 0.02 0.43 0.15 0.64 0.29 c 0.41 0.32 0.5 0.03 0.86 -0.29 c 0.41 -0.37 0.61 -0.31 0.8 -0.23 c 0.06 0.02 0.22 0.25 0.35 0.51 c 0.22 0.45 0.23 0.51 0.25 1.64 c 0.02 0.65 0 1.18 -0.04 1.18 c -0.04 0 -0.06 0.06 -0.06 0.14 c 0 0.23 -0.44 1.06 -0.73 1.37 c -0.39 0.35 -0.8 0.43 -1.32 0.3"/></g><g style="fill:#554570"><path d="m 14.18 26.34 c -0.45 -0.06 -1.76 -0.39 -1.94 -0.5 c -0.02 -0.01 0.08 -0.15 0.22 -0.31 c 0.27 -0.3 0.56 -0.84 0.62 -1.13 c 0.05 -0.31 0.08 -0.32 0.39 -0.15 c 0.47 0.27 0.82 0.43 1.14 0.51 c 0.64 0.16 2.38 0.16 3 0 c 0.61 -0.14 0.91 -0.49 1.43 -0.64 c 0.02 0.02 0.06 0.16 0.1 0.31 c 0.1 0.37 0.34 0.8 0.63 1.13 c 0.13 0.14 0.22 0.27 0.2 0.28 c -1.71 0.59 -4.19 0.66 -5.79 0.51"/><path d="m 17.1 11.84 c 0.21 -0.19 0.63 -0.53 0.73 -0.53 c 0.21 0 0.59 -0.21 0.81 -0.46 c 0.33 -0.37 0.46 -0.93 0.38 -1.5 c -0.16 -1.04 -0.9 -1.64 -1.59 -1.31 c -0.44 0.21 -0.7 0.71 -0.77 1.46 c -0.05 0.59 -0.06 0.61 -0.18 0.5 c -0.13 -0.12 -0.62 -0.12 -0.74 0 c -0.05 0.05 -0.1 0.06 -0.12 0.04 c -0.02 -0.02 -0.05 -0.25 -0.07 -0.51 c -0.07 -0.72 -0.26 -1.14 -0.66 -1.42 c -0.24 -0.17 -0.66 -0.22 -0.88 -0.11 c -0.72 0.38 -1.06 1.62 -0.68 2.49 c 0.2 0.46 0.47 0.69 0.95 0.8 c 0.16 0.04 0.3 0.08 0.32 0.1 c 0.15 0.12 0.3 0.2 0.43 0.34 c -0.81 0.48 -1.71 1.51 -2.64 1.77 c -0.14 0 -0.6 -0.3 -0.8 -0.46 c -0.24 -0.55 0.01 -1.51 0.07 -2.13 c 0.17 -1.63 0.3 -2.17 0.72 -2.98 c 0.45 -0.73 1.02 -1.36 1.7 -1.7 c 0.77 -0.38 1.7 -0.55 2.43 -0.46 c 1.18 0.14 1.95 0.52 2.67 1.29 c 0.58 0.62 0.94 1.34 1.15 2.31 c 0.23 1.03 0.15 1.97 0.42 3 c 0.11 0.41 0.11 0.41 -0.61 0.78 l -0.55 0.28 c -0.73 -0.64 -1.89 -1.05 -2.49 -1.6"/></g><g style="fill:#382951"><path d="m 17.1 9.74 c 0 -0.72 0.45 -1.23 0.89 -1 c 0.4 0.21 0.59 0.91 0.36 1.36 c -0.12 0.23 -0.47 0.47 -0.69 0.47 c -0.36 -0.13 -0.55 -0.54 -0.55 -0.82"/><path d="m 14.48 10.55 c -0.27 -0.09 -0.55 -0.32 -0.64 -0.55 c -0.25 -0.59 0.17 -1.43 0.66 -1.31 c 0.34 0.09 0.56 0.4 0.61 0.89 c 0.06 0.39 -0.23 1.09 -0.62 0.96"/></g></svg>