<svg xmlns="http://www.w3.org/2000/svg" viewBox="0 0 32 32"><path d="m 26.1 28.36 c -19 14.72 -38.74 -21.94 -15.22 -27.3 c 14.82 -5.5 29.3 16.39 15.22 27.3" style="fill:#6c453b"/><path d="m 15.3 24.29 c 0 -0.1 -0.08 -0.24 -0.18 -0.3 c -0.26 -0.17 -1.24 -0.32 -1.64 -0.26 l -0.33 0.05 l 0.17 -0.22 c 0.23 -0.3 0.57 -1.42 0.63 -2.14 c 0.03 -0.32 0.08 -0.63 0.12 -0.69 c 0.05 -0.08 0.33 -0.01 1.16 0.28 c 1.9 0.67 3.13 1.17 3.2 1.29 c 0.04 0.07 0.19 0.42 0.34 0.78 l 0.27 0.66 h -0.74 c -0.57 0 -0.82 0.04 -1.07 0.17 l -0.33 0.16 l -0.14 -0.78 c -0.15 -0.84 -0.32 -1.32 -0.46 -1.32 c -0.13 0 -0.23 0.23 -0.63 1.42 c -0.2 0.6 -0.37 1 -0.37 0.91" style="fill:#29b9ee"/><g style="fill:#f8e8b9"><path d="m 12 24.95 c -0.14 -0.37 0.55 -0.98 1.25 -1.11 c 0.57 -0.11 1.6 0.03 1.8 0.23 c 0.14 0.14 0.16 0.78 0.02 0.91 c -0.07 0.07 -0.54 0.1 -1.57 0.1 c -1.29 0 -1.47 -0.02 -1.52 -0.14"/><path d="m 8.9 15.63 c -0.11 -0.03 -0.27 -0.16 -0.37 -0.29 c -0.16 -0.21 -0.17 -0.34 -0.17 -1.73 c 0 -0.82 0.03 -1.6 0.07 -1.72 c 0.09 -0.34 0.39 -0.3 0.83 0.1 c 0.53 0.49 0.86 1.5 0.99 3.07 l 0.05 0.64 h -0.6 c -0.33 0 -0.69 -0.03 -0.8 -0.06"/><path d="m 17 24.71 c -0.14 -0.51 0 -0.73 0.57 -0.86 c 0.98 -0.21 1.75 -0.06 2.27 0.45 c 0.4 0.38 0.46 0.66 0.18 0.73 c -0.1 0.03 -0.8 0.05 -1.55 0.05 h -1.37"/><path d="m 21 17.71 c -0.04 -0.07 -0.03 -0.69 0 -1.38 c 0.09 -1.82 0.29 -2.46 0.75 -2.5 c 0.52 -0.05 0.78 0.49 0.78 1.64 c 0 1.17 -0.32 1.84 -1.04 2.22 c -0.37 0.2 -0.42 0.2 -0.5 0.03"/></g><path d="m 19.6 12.59 c 0 2.52 -1.45 4.57 -3.24 4.57 c -1.79 0 -3.25 -2.05 -3.25 -4.57 c 0 -2.52 1.45 -4.57 3.25 -4.57 c 1.79 0 3.24 2.05 3.24 4.57" style="fill:#f1e0b1"/><g style="fill:#baba25"><path d="m 17.79 16.32 c -0.28 -0.03 -0.59 -0.1 -0.7 -0.16 c -0.1 -0.06 -0.25 -0.08 -0.34 -0.05 c -0.19 0.07 -0.11 -0.02 0.34 -0.35 c 0.44 -0.33 0.92 -1.08 0.92 -1.43 c 0 -0.15 -0.09 -0.45 -0.21 -0.66 c -0.4 -0.72 -0.26 -1.82 0.4 -3.05 c 0.19 -0.36 0.32 -0.66 0.29 -0.7 c -0.02 -0.03 -0.36 0.04 -0.73 0.15 l -0.68 0.2 l -0.39 -0.36 c -0.21 -0.2 -0.44 -0.37 -0.51 -0.37 c -0.07 0 -0.28 0.16 -0.46 0.35 c -0.24 0.25 -0.41 0.35 -0.59 0.35 c -0.14 0 -0.37 0.04 -0.51 0.09 c -0.23 0.08 -0.29 0.17 -0.48 0.81 c -0.12 0.39 -0.26 0.93 -0.32 1.2 c -0.13 0.57 -0.15 1.92 -0.05 2.41 c 0.06 0.3 0.05 0.33 -0.06 0.23 c -0.07 -0.06 -0.4 -0.13 -0.73 -0.16 l -0.61 -0.05 v -0.64 c 0 -0.38 0.11 -1.13 0.25 -1.85 c 0.14 -0.67 0.31 -1.8 0.39 -2.51 c 0.13 -1.34 0.23 -1.69 0.58 -2.12 c 0.22 -0.27 0.66 -0.38 1.6 -0.4 c 0.36 0 0.6 -0.08 1.06 -0.32 c 0.72 -0.38 1.35 -0.48 1.79 -0.26 c 0.18 0.09 0.55 0.46 0.92 0.94 c 0.34 0.44 0.72 0.86 0.83 0.93 c 0.34 0.23 0.39 0.41 0.19 0.68 l -0.18 0.23 l 0.24 0.68 c 0.23 0.68 0.23 0.68 0.27 3.47 l 0.03 2.79 l -1.01 -0.01 c -0.55 -0.01 -1.24 -0.04 -1.52 -0.07"/><path d="m 12 19.22 c 0 -0.07 0.12 -0.45 0.27 -0.84 l 0.27 -0.73 l -0.59 -0.4 l 0.29 -0.47 c 0.16 -0.26 0.39 -0.52 0.51 -0.57 c 0.32 -0.14 1.2 -0.13 1.26 0.01 c 0.05 0.12 -0.05 0.7 -0.36 1.96 l -0.2 0.83 l -0.57 0.16 c -0.67 0.2 -0.9 0.21 -0.9 0.04"/><path d="m 19.62 19.23 c -0.3 -0.28 -0.6 -0.52 -0.66 -0.52 c -0.06 0 -0.32 0.17 -0.59 0.38 c -0.26 0.2 -0.52 0.37 -0.59 0.37 c -0.15 0 -0.5 -0.74 -0.78 -1.64 c -0.12 -0.39 -0.22 -0.73 -0.22 -0.75 c 0 -0.1 0.79 0 1.53 0.19 c 1.04 0.28 1.83 0.67 1.98 0.98 c 0.13 0.28 0.11 1.41 -0.03 1.46 c -0.05 0.02 -0.34 -0.2 -0.64 -0.48"/></g><path d="m 16.26 21.24 c -2.56 -0.98 -3.28 -1.34 -2.99 -1.53 c 0.11 -0.07 0.31 -0.76 0.44 -1.53 c 0.29 -1.66 0.14 -1.96 -0.79 -1.61 c -0.36 0.13 -0.65 0.15 -0.72 0.04 c -0.06 -0.1 -0.46 -0.18 -0.89 -0.18 c -0.44 0 -0.88 -0.13 -1.02 -0.3 c -0.16 -0.2 -0.18 -0.3 -0.04 -0.3 c 0.14 0 0.18 -0.36 0.09 -1.04 c -0.12 -1.03 -0.12 -1.04 0.36 -0.88 c 0.27 0.09 1.07 0.27 1.79 0.41 c 1.06 0.2 1.4 0.37 1.83 0.89 c 0.29 0.35 0.71 0.64 0.93 0.64 c 0.88 -0.01 5.48 -0.03 5.63 -0.02 c 0.08 0 0.15 0.46 0.15 1.02 c 0 0.61 0.09 1.02 0.23 1.02 c 0.16 0 0.15 0.09 -0.02 0.3 c -0.32 0.38 -0.7 0.39 -1 0.01 c -0.26 -0.32 -2.12 -0.92 -2.82 -0.92 c -0.57 0 -0.54 0.34 0.16 1.86 c 0.64 1.39 1.24 2.81 1.24 2.93 c 0 0.14 -0.3 0.05 -2.54 -0.8" style="fill:#ef6442"/><g style="fill:#5f5c58"><path d="m 14.99 11.84 c 0.21 0 0.38 0.29 0.38 0.65 v 1.05 c 0 0.36 -0.17 0.66 -0.38 0.66 c -0.2 0 -0.37 -0.29 -0.37 -0.66 v -1.05 c 0 -0.36 0.17 -0.65 0.37 -0.65"/><path d="m 16.29 11.84 c 0.2 0 0.37 0.29 0.37 0.65 v 1.05 c 0 0.36 -0.17 0.66 -0.37 0.66 c -0.21 0 -0.38 -0.29 -0.38 -0.66 v -1.05 c 0 -0.36 0.17 -0.65 0.38 -0.65"/></g></svg>