<svg xmlns="http://www.w3.org/2000/svg" viewBox="0 0 32 32"><path d="m 31.75 16.64 c -1.02 5.32 -5 10.47 -10.25 13.19 c -4.39 2.27 -8.66 2.63 -12.42 1.02 c -2.83 -1.2 -5.47 -3.93 -7.09 -7.32 c -1.72 -3.62 -2.11 -6.98 -1.22 -10.46 c 2.19 -8.59 13.69 -14.88 22.5 -12.31 c 4.3 1.25 7.22 4.56 8.3 9.44 c 0.17 2.12 0.54 4.36 0.18 6.45" style="fill:#c90a00"/><g style="fill:#033654"><path d="m 17.86 27 c -3.96 0.41 -7.6 -2.55 -8.14 -6.61 c -0.54 -4.06 2.24 -7.68 6.2 -8.09 c 3.96 -0.41 7.6 2.55 8.14 6.61 c 0.54 4.06 -2.24 7.68 -6.2 8.1"/><path d="m 20.59 11.64 l -1.21 1.58 c -0.26 0.34 0.13 1.09 0.86 1.68 c 0.73 0.59 1.53 0.8 1.79 0.47 l 1.21 -1.58"/><path d="m 23.2 13.79 c -0.25 0.33 -1.05 0.12 -1.79 -0.47 c -0.73 -0.59 -1.12 -1.34 -0.86 -1.68 c 0.25 -0.33 1.05 -0.12 1.79 0.47 c 0.73 0.59 1.12 1.34 0.86 1.68"/><path d="m 23 13.59 c -0.21 0.27 -0.86 0.1 -1.46 -0.38 c -0.59 -0.48 -0.91 -1.1 -0.7 -1.37 c 0.21 -0.27 0.86 -0.1 1.46 0.38 c 0.6 0.48 0.91 1.1 0.7 1.37"/><path d="m 21.2 15.2 l 0.72 0.19 l 0.91 -1.32 l -0.38 -0.05 l -0.33 -0.17"/><path d="m 23.43 9.77 c -0.08 0.15 -0.26 0.2 -0.41 0.12 c -0.29 -0.16 -0.52 -0.21 -0.63 -0.12 c -0.14 0.11 -0.17 0.47 -0.11 0.72 c 0.06 0.17 0.15 0.34 0.24 0.5 c 0.26 0.46 0.59 1.03 -0.32 1.72 c -0.13 0.1 -0.32 0.07 -0.43 -0.07 c -0.11 -0.14 -0.08 -0.33 0.05 -0.43 c 0.49 -0.37 0.42 -0.49 0.17 -0.93 c -0.1 -0.18 -0.22 -0.38 -0.3 -0.63 c -0.13 -0.46 -0.08 -1.08 0.3 -1.38 c 0.22 -0.17 0.62 -0.3 1.29 0.08 c 0.15 0.08 0.21 0.27 0.13 0.42" style="fill-rule:evenodd"/></g><path d="m 178.2 76.99 l -9.45 18.63 l -4.43 -16.79 l -21.8 -8.62 l 19.33 -3.43 l 9.43 -18.66 l 4.47 16.8 l 21.8 8.62" transform="matrix(-0.066 -0.106 -0.106 0.066 42.55 20.79)" style="fill:#ff7f4f;stroke:#ff7f4f;fill-rule:evenodd;stroke-width:0.4"/><path d="m 9.27 22.96 c 0.12 -0.7 0.43 -1.03 1.59 -1.72 c 1.6 -0.95 1.64 -0.99 1.64 -1.86 c 0 -1.32 -0.99 -6.49 -1.32 -6.88 c -2.29 -0.44 -6.49 1.8 -6.77 1.16 c -0.28 -0.37 -0.29 -0.9 -0.01 -1.55 c 0.24 -0.57 0.75 -1.14 3.18 -2 c 1.99 -0.72 3.09 -1.06 5.68 -1.2 c 1.96 -0.16 5 0.2 4.65 2.61 c -0.82 5.62 -4.08 11 -7.46 12.34 c -0.64 0.33 -1.3 -0.11 -1.18 -0.88 m 5.84 -7.75 c 0.34 -0.97 0.67 -3.19 0.51 -3.42 c -0.09 -0.13 -2.42 -0.06 -2.51 0.07 c 0.86 1.44 0.73 3.49 1.13 5 c 0.11 0.27 0.54 -0.72 0.88 -1.67" style="fill:#ffd600"/><path d="m 15.4 25.98 c 0.07 -0.39 0.26 -1.73 0.43 -2.95 c 0.17 -1.23 0.4 -2.59 0.52 -3 c 0.44 -1.7 1.8 -2.64 4.17 -2.87 c 1.52 -0.14 2.12 0.24 2.31 1.46 c 0.19 1.22 -0.06 1.83 -1.3 3.17 l -1.14 1.24 l 0.75 0.91 c 1.5 1.82 1.8 2.16 -0.05 2.08 c -0.58 -0.03 -1.11 -0.54 -1.71 -0.95 c -0.96 -0.66 -1.18 -1.94 -1.71 0.31 c -0.19 0.8 -0.52 1.08 -1.55 1.23 c -0.96 0.13 -0.88 0.32 -0.72 -0.61 m 4.61 -5.22 c 0.48 -0.63 0.58 -1.36 0.17 -1.41 c -1.57 -0.19 -1.69 0.89 -1.39 1.7 c 0.18 0.48 0.74 0.36 1.23 -0.28" style="fill:#269ec1"/></svg>