<svg xmlns="http://www.w3.org/2000/svg" viewBox="0 0 32 32"><path d="m 16.3 31.82 c -3.3 -0.25 -7.16 -1.83 -9.85 -4 c -3.27 -2.66 -5.68 -6.75 -6.31 -10.78 c -0.77 -5.32 2.32 -11 5.81 -13.75 c 1.75 -1.32 4.07 -2.37 6.25 -2.83 c 5.66 -1.2 11.57 1.07 15.63 6 c 2.43 2.95 3.68 5.93 3.99 9.45 c 0.37 4.22 -1.3 8.75 -4.35 11.8 c -3.47 2.88 -7 4.43 -11.15 4.14" style="fill:#624f95"/><g style="fill:#fffafa"><path d="m 13.84 24.36 c -1.71 -0.92 -5.29 -2.7 -6.37 -3.61 c -0.08 -0.21 -0.08 -8.9 0 -9.11 c 0.09 -0.23 4.61 -2.75 7.52 -4.2 l 0.99 -0.49 l 1.6 0.82 c 1.62 0.82 5.61 3.04 6.45 3.58 c 0.61 0.39 0.55 -0.32 0.61 5.31 c 0.04 3.61 -0.02 3.95 -0.2 4.11 c -0.67 0.58 -8.15 4.64 -8.54 4.63 c -0.06 0 -1 -0.47 -2.08 -1.04 m 5.91 -2.2 l 3.6 -1.97 l 0.04 -2.43 c 0.02 -1.33 0 -3.15 -0.04 -4 l -0.07 -1.61 l -2.38 -1.27 c -1.31 -0.7 -2.95 -1.57 -3.65 -1.94 l -1.27 -0.68 c -2.3 1.32 -4.8 2.32 -7 3.79 l -0.31 0.21 l 0.03 4 l 0.03 4 l 3.55 1.91 c 1.95 1.05 3.63 1.92 3.72 1.92 c 0.09 0 1.79 -0.89 3.77 -1.98"/><path d="m 10.29 19.1 c -0.33 -0.13 -0.19 -0.69 -0.19 -3.47 c 0 -1.99 0.03 -2.34 0.18 -2.5 c 0.16 -0.16 0.75 -0.18 5.56 -0.18 c 2.95 0 5.51 0.04 5.68 0.09 c 0.26 0.07 0.32 0.17 0.38 0.63 c 0.05 0.29 0.04 1.6 -0.02 2.91 c -0.09 2.13 0.09 2.35 -0.11 2.5 c -0.18 0.13 -1.36 0.19 -5.73 0.18 c -2.91 0 -5.62 -0.08 -5.75 -0.14 m 2.34 -1.66 c 0.13 -0.19 0.04 -0.67 0.05 -1.57 c 0.03 -1.73 0.09 -1.69 -0.62 -1.68 h -0.65 c 0.05 1.06 -0.16 2.16 -0.01 3.2 c 0.04 0.09 0.24 0.15 0.5 0.15 c 0.76 0 0.58 0.09 0.71 -0.1 m 1.9 -0.09 c 0.21 -0.27 0.21 -2.77 0 -3 c -0.2 -0.24 -0.84 -0.25 -1.08 -0.01 c -0.26 0.26 -0.26 2.79 0 3.05 c 0.23 0.23 0.88 0.23 1.08 -0.01 m 2.07 -1.52 v -1.65 l -0.46 -0.03 c -0.85 -0.06 -0.93 0.15 -0.89 0.96 c 0.05 1.27 0.01 2.05 0.19 2.27 c 0.16 0.15 0.71 0.13 1.17 0.09 m 1.97 -0.11 c 0.09 -0.11 0.14 -0.62 0.15 -1.52 c 0.01 -1.62 -0.05 -1.74 -0.82 -1.69 l -0.52 0.03 l -0.03 1.58 c -0.02 1.19 0 1.61 0.11 1.67 c 0.24 0.16 0.95 0.11 1.1 -0.07"/></g></svg>