<svg xmlns="http://www.w3.org/2000/svg" viewBox="0 0 32 32"><path d="m 1.51 10.21 c -12 38.62 52.6 19.31 22.36 -7.16 c -6.1 -5.3 -19.1 -3.26 -22.36 7.16" style="fill:#5237f2"/><path d="m 6.13 24.27 c -0.03 -0.04 0.06 -0.52 0.19 -1.06 c 0.13 -0.54 0.22 -1.02 0.2 -1.05 c -0.02 -0.04 -0.29 -0.07 -0.59 -0.07 c -0.55 0 -0.81 -0.05 -0.81 -0.16 c 0 -0.03 0.45 -0.52 1 -1.1 l 1 -1.04 l 0.25 -1.1 c 0.14 -0.61 0.25 -1.12 0.25 -1.15 c 0 -0.03 -0.23 -0.05 -0.52 -0.05 c -0.3 0 -0.55 -0.04 -0.58 -0.09 c -0.03 -0.05 0.39 -0.55 1 -1.19 l 1.06 -1.1 l 3.38 -0.02 c 3.79 -0.02 3.65 -0.05 3.49 0.54 c -0.04 0.18 -0.14 0.57 -0.2 0.86 c -0.06 0.3 -0.21 0.94 -0.32 1.42 c -0.18 0.79 -0.36 1.61 -0.87 3.93 c -0.26 1.18 -0.14 1.09 -1.34 1.09 c -0.64 0 -1.07 -0.04 -1.13 -0.09 c -0.05 -0.05 -0.07 -0.23 -0.04 -0.41 l 0.04 -0.33 h -1.26 c -1.47 0 -1.3 -0.12 -1.59 1.17 c -0.26 1.18 -0.14 1.09 -1.44 1.09 c -0.62 0 -1.14 -0.03 -1.17 -0.07 m 6.22 -5.38 c 0.1 -0.4 0.2 -0.88 0.23 -1.07 l 0.05 -0.33 l -1.28 0.02 l -1.27 0.02 l -0.23 0.92 c -0.12 0.5 -0.22 0.98 -0.23 1.07 c 0 0.14 0.1 0.14 1.27 0.13 l 1.27 -0.02 m 3.32 4.65 c -0.02 -0.04 0.1 -0.67 0.27 -1.4 c 0.34 -1.46 1.13 -4.9 1.19 -5.2 c 0.04 -0.18 0.02 -0.19 -0.53 -0.19 c -0.42 0 -0.57 -0.03 -0.57 -0.11 c 0 -0.06 0.48 -0.61 1.07 -1.21 l 1.08 -1.1 h 3.36 c 2.77 0 3.37 0.02 3.45 0.11 c 0.07 0.09 0.05 0.32 -0.11 0.98 c -0.11 0.47 -0.32 1.39 -0.46 2.04 c -0.57 2.58 -0.69 3.09 -0.76 3.22 c -0.05 0.07 -0.51 0.49 -1.04 0.94 l -0.96 0.81 h -1.53 c -1.2 0 -1.53 -0.02 -1.53 -0.11 c 0 -0.06 0.47 -0.59 1.04 -1.17 c 0.98 -1 1.05 -1.06 1.36 -1.06 c 0.18 0 0.36 -0.05 0.41 -0.11 c 0.05 -0.06 0.16 -0.44 0.25 -0.86 c 0.09 -0.41 0.24 -1.07 0.32 -1.46 c 0.09 -0.39 0.16 -0.76 0.16 -0.82 c 0 -0.08 -0.28 -0.1 -1.27 -0.08 l -1.27 0.02 l -0.26 1.09 c -0.14 0.6 -0.48 2.07 -0.76 3.26 c -0.28 1.2 -0.54 2.24 -0.58 2.32 c -0.06 0.13 -0.21 0.14 -1.2 0.14 c -0.62 0 -1.14 -0.03 -1.16 -0.07 m -2.25 -10.19 c -0.96 -0.02 -1.27 -0.05 -1.27 -0.13 c 0 -0.06 0.48 -0.61 1.08 -1.21 l 1.08 -1.1 h 2.96 c 2.64 0 2.97 0.02 3 0.13 c 0.04 0.09 -0.24 0.43 -0.91 1.13 c -0.53 0.55 -1.06 1.05 -1.18 1.12 c -0.22 0.12 -1.05 0.13 -4.77 0.05 m -6.73 -0.11 c -0.03 -0.05 0.4 -0.56 0.99 -1.17 l 1.04 -1.08 h 0.42 c 0.49 0 0.45 0.04 3.09 -2.5 l 1.57 -1.51 h 3.85 h 3.86 l 0.19 0.27 c 0.11 0.15 0.63 0.99 1.15 1.86 c 0.53 0.88 1 1.64 1.05 1.7 c 0.07 0.08 0.31 0.11 0.9 0.1 c 0.88 -0.01 1.06 0.05 0.93 0.29 c -0.04 0.09 -0.52 0.6 -1.05 1.14 l -0.97 0.98 h -1.05 l -1.19 -1.96 l -1.18 -1.96 h -5.61 l -1.2 1.14 c -0.66 0.63 -1.59 1.51 -2.07 1.96 l -0.87 0.82 h -1.89 c -1.29 0 -1.91 -0.03 -1.95 -0.09" style="fill:#f47a8e"/></svg>