<svg xmlns="http://www.w3.org/2000/svg" viewBox="0 0 32 32"><path d="m 7.54 3.5 c 15.91 -11.36 32.53 9.61 19.62 22.98 c -12.16 12.59 -31.53 0.92 -25.77 -14.76 c 1.21 -3.27 3.22 -6.14 6.14 -8.22" style="fill:#008b8b"/><path d="m 10 7.79 h 11.73 c 0.76 0 1.37 0.54 1.37 1.21 v 14.77 c 0 0.67 -0.61 1.21 -1.37 1.21 h -11.73 c -0.76 0 -1.38 -0.54 -1.38 -1.21 v -14.77 c 0 -0.67 0.62 -1.21 1.38 -1.21" style="fill:#fff"/><g style="fill:#d4d4d0"><path d="m 7.88 19.23 h 2.34 v 0.79 h -2.34"/><path d="m 10.91 19.88 c -0.27 -0.08 -0.43 -0.28 -0.43 -0.5 c 0 -0.41 0.02 -0.44 0.7 -1.08 c 1.09 -1.03 1.36 -1.2 1.71 -1.09 c 0.26 0.08 0.41 0.27 0.43 0.53 c 0.04 0.4 -0.05 0.52 -0.98 1.34 c -0.45 0.4 -0.86 0.74 -0.9 0.77 c -0.16 0.08 -0.37 0.1 -0.54 0.04"/></g><path d="m 22.1 14.16 c 0 3.14 -2.5 5.69 -5.58 5.69 c -3.08 0 -5.58 -2.55 -5.58 -5.69 c 0 -3.14 2.5 -5.69 5.58 -5.69 c 3.08 0 5.58 2.55 5.58 5.69" style="fill:#37a675"/><path d="m 21.43 14.16 c 0 2.64 -2.18 4.77 -4.87 4.77 c -2.69 0 -4.87 -2.14 -4.87 -4.77 c 0 -2.64 2.18 -4.77 4.87 -4.77 c 2.69 0 4.87 2.14 4.87 4.77" style="fill:#fff"/><g style="fill:#403e46"><path d="m 13.66 15.61 c -0.33 -0.14 -0.51 -0.34 -0.59 -0.63 c -0.09 -0.35 -0.09 -2 0.01 -2.12 c 0.04 -0.05 0.19 -0.09 0.33 -0.09 c 0.32 0 0.38 0.13 0.39 0.9 c 0.01 0.82 0.07 1.15 0.21 1.18 c 0.07 0.01 0.14 -0.01 0.17 -0.06 c 0.03 -0.04 0.07 -0.48 0.09 -0.97 c 0.03 -0.49 0.08 -0.93 0.11 -0.97 c 0.04 -0.05 0.18 -0.08 0.32 -0.08 c 0.34 0 0.38 0.12 0.38 1.2 c 0 1.06 -0.11 1.36 -0.58 1.59 c -0.34 0.17 -0.53 0.18 -0.84 0.04"/><path d="m 15.8 15.67 c -0.05 -0.02 -0.12 -0.07 -0.14 -0.11 c -0.03 -0.04 -0.05 -0.65 -0.05 -1.36 c 0 -1.05 0.02 -1.3 0.09 -1.36 c 0.07 -0.05 0.29 -0.07 0.71 -0.05 c 0.71 0.02 0.89 0.12 1.13 0.58 c 0.12 0.23 0.15 0.39 0.15 0.88 c 0 0.7 -0.16 1.09 -0.51 1.3 c -0.22 0.13 -1.17 0.21 -1.37 0.13 m 0.94 -0.85 c 0.09 -0.08 0.24 -0.14 0.19 -0.69 c -0.05 -0.55 -0.12 -0.55 -0.29 -0.57 c -0.16 -0.02 -0.18 0 -0.22 0.35 c -0.04 0.33 0 0.84 0.07 0.96 c 0.05 0.08 0.13 0.05 0.25 -0.06"/><path d="m 18.31 15.61 c -0.09 -0.09 -0.1 -0.31 -0.1 -1.39 c 0 -0.91 0.02 -1.31 0.08 -1.37 c 0.11 -0.11 1.1 -0.1 1.38 0.01 c 0.3 0.13 0.57 0.5 0.61 0.84 c 0.02 0.21 0 0.32 -0.13 0.5 c -0.19 0.29 -0.52 0.51 -0.82 0.56 c -0.29 0.05 -0.33 0.11 -0.34 0.46 c 0 0.32 -0.13 0.48 -0.39 0.48 c -0.1 0 -0.23 -0.05 -0.29 -0.1 m 1.18 -1.74 c 0.11 -0.14 -0.01 -0.41 -0.35 -0.43 c -0.52 -0.04 -0.33 0.3 -0.35 0.62 c 0.29 -0.02 0.41 0.09 0.7 -0.19"/><path d="m 7.13 24 c -0.54 -0.18 -0.87 -0.59 -0.87 -1.07 c 0 -0.87 0.04 -0.93 1.43 -2.29 c 2.24 -2.19 2.8 -2.55 3.52 -2.32 c 0.53 0.17 0.84 0.57 0.88 1.13 c 0.07 0.85 -0.11 1.11 -2 2.84 c -0.93 0.85 -1.75 1.58 -1.84 1.63 c -0.32 0.18 -0.75 0.21 -1.11 0.09"/></g><g style="fill:#d4d4d0"><path d="m 7.9 11.74 h 2.34 v 0.79 h -2.34"/><path d="m 7.95 13.21 h 2.34 v 0.79 h -2.34"/><path d="m 7.88 14.61 h 2.34 v 0.79 h -2.34"/><path d="m 7.92 16.2 h 2.34 v 0.79 h -2.34"/><path d="m 7.88 17.72 h 2.34 v 0.79 h -2.34"/><path d="m 7.9 10.1 h 2.34 v 0.78 h -2.34"/></g></svg>