<svg xmlns="http://www.w3.org/2000/svg" viewBox="0 0 32 32"><path d="m 7.76 2.68 c -28.2 23.89 29.75 46.86 23.8 9.91 c -1.3 -8.1 -16.2 -16.35 -23.8 -9.91" style="fill:#b0dfe5"/><path d="m 15.94 27.52 c -2.54 -0.58 -5.86 -1.69 -7.72 -2.59 c -0.56 -0.27 -0.73 -0.42 -1.79 -1.58 c -0.64 -0.7 -1.19 -1.28 -1.23 -1.28 c -0.04 0 -0.06 -2.58 -0.05 -5.74 l 0.01 -5.74 c 0.99 -0.89 2 -1.85 2.86 -2.66 l 1.54 -1.47 l 6.74 -3.21 l 7.08 2.11 c 1.21 1.34 2.43 2.31 3.79 3.45 l 2.05 8.32 l -2.18 8 c -3.93 2.38 -7.98 3.06 -11.1 2.38" style="fill:#9dd5d6"/><path d="m 15.1 23.84 c -0.73 -0.47 -1.57 -0.98 -1.85 -1.14 c -0.69 -0.38 -2.48 -1.54 -2.59 -1.68 c -0.1 -0.12 -1.58 -5.89 -1.58 -6.14 c 0 -0.2 2.91 -5.08 3.16 -5.3 c 0.09 -0.08 0.84 -0.35 1.66 -0.59 c 0.82 -0.24 2.14 -1.47 2.66 -1.9 c 0.17 -0.07 2.54 0.51 3.55 0.21 c 0.98 -0.29 1.86 -0.52 1.94 -0.52 c 0.22 0 2.73 2.57 3.61 3.69 c 1.13 1.45 1.15 1.48 1.2 2.91 c 0.07 1.98 -0.2 4.68 -0.54 5.36 c -0.36 0.71 -3.49 3.66 -4.52 4.25 c -0.21 0.12 -0.62 0.39 -0.9 0.59 c -0.28 0.2 -0.67 0.42 -0.86 0.49 c -0.25 0.09 -3.41 0.65 -3.61 0.64 c -0.01 0 -0.61 -0.39 -1.35 -0.86" style="fill:#b1f4a2"/><path d="m 13.98 21.37 c -0.17 -0.19 -1.7 -2.89 -1.93 -3.39 c -0.66 -1.04 -0.83 -1.83 -1.29 -2.39 c 0 -0.38 0.14 -0.63 1.11 -1.87 c 0.66 -0.85 1.86 -2.1 2.16 -2.26 c 0.56 -0.29 3.99 -0.79 4.71 -0.68 c 1.49 0.74 3.91 1.96 4.7 3.2 c 0.28 0.45 1.09 2.41 1.09 2.64 c -0.61 1.41 -1.19 3.06 -1.88 4.38 c -0.65 0.41 -1.35 0.66 -2.07 0.99 c -1.38 0.63 -2 0.88 -2.28 0.87 c -1 -0.33 -3.74 -1.17 -4.32 -1.48" style="fill:#c8f45b"/><path d="m 14.57 19.88 l -0.54 -0.93 c -1.04 -1.79 -1.41 -2.49 -1.41 -2.7 c 0 -0.11 0.09 -0.53 0.21 -0.93 c 0.35 -0.84 0.32 -1.83 0.79 -2.61 c 0.14 -0.21 3.05 -2 3.27 -2 c 0.66 -0.12 1.79 -1.29 2.36 -1.16 c 0.32 0.1 1.95 1.12 2.77 1.73 c 0.93 0.7 0.95 0.73 1.31 2.16 c 0.34 1.36 0.48 2.34 0.39 2.68 c -0.21 0.78 -1.4 2.59 -2.28 3.5 c -0.5 0.52 -0.7 0.65 -1.57 1.05 c -0.55 0.25 -1.05 0.45 -1.13 0.45 c -1.39 -0.39 -2.97 -0.85 -4.16 -1.25" style="fill:#d9d929"/><path d="m 15.1 18.62 c -0.14 -0.05 -0.55 -1.07 -0.91 -2.07 c -0.6 -1.65 -0.53 -0.8 0.21 -2.32 c 0.91 -1.87 0.37 -1.5 2.37 -2.27 c 1.11 -0.43 0.86 -0.61 2.66 -0.29 l 0.86 0.16 c 0.41 0.7 1.93 2.14 1.82 2.69 c -0.17 0.9 -0.12 1.68 -0.33 2.6 c -0.71 0.72 -1.34 1.2 -2.16 1.88 c -1.52 -0.14 -2.93 -0.2 -4.52 -0.38" style="fill:#f68e02"/><path d="m 19.1 29.43 c -2.62 -1.08 -4.32 -2.25 -6.98 -3.05 c -1.79 -0.54 -3.13 -1.04 -3.99 -1.46 c -0.43 -0.21 -0.68 -0.43 -1.75 -1.52 c -0.68 -0.7 -1.27 -1.33 -1.3 -1.41 c -0.04 -0.1 -2.18 -7.36 -1.91 -7.67 c 0.41 -0.48 1.88 -3.33 1.91 -3.44 c 0.02 -0.1 0.19 -0.32 0.37 -0.48 c 1.34 -1.29 2.75 -2.5 4 -3.83 c 0.95 -0.55 3.89 -2.05 4.55 -2.2 c -0.02 0.04 -1.75 3.04 -1.97 3.32 c -0.17 0.21 -4.41 2.62 -4.5 2.8 c -0.13 0.28 -0.54 1.74 -0.8 2.95 c -0.34 1.59 -0.88 2.66 -1.07 5.06 c 1.33 1.7 3.59 4.26 6 6.78 c 0.23 -0.02 1.02 0.09 1.97 -0.06 c 0.95 -0.15 4.71 1.23 5.28 1.09 c 0.25 -0.07 4.48 -2.41 4.74 -2.55 c 0.21 -0.11 0.73 -0.71 2 -2.3 l 1.2 -1.49 c 0.07 1.79 0.09 3.73 0.11 5.3 l -1.14 0.6 c -1.87 0.99 -4.22 2.14 -4.68 2.3 c -0.3 0.17 -1.68 1.2 -2.08 1.26" style="fill:#8dabf2"/></svg>