<svg xmlns="http://www.w3.org/2000/svg" viewBox="0 0 32 32"><path d="m 0.37 19.65 c 1.98 12.91 19.61 16.38 27.39 7.15 c 6.85 -6.85 5.15 -19.96 -3.26 -24.46 c -9.65 -6 -23.71 1.42 -24.48 13.4 c -0.08 1.31 0.04 2.64 0.35 3.91" style="fill:#3197dc"/><path d="m 10.45 25.33 c -0.83 -0.22 -1.27 -0.42 -1.83 -0.84 c -1.3 -0.92 -1.58 -1.88 -1.84 -3.17 c -0.04 0 -0.07 -1.92 -0.07 -4.86 c 0.05 -1.76 -0.13 -3.65 0.22 -5.28 c 0.42 -1.96 1.71 -3.22 3.71 -3.64 c 2 -0.38 3.8 -0.21 5.38 -0.21 c 1.79 0.05 3.73 -0.13 5.39 0.21 c 1.1 0.22 2.13 0.79 2.82 1.65 c 0.43 0.56 0.63 0.98 0.86 1.85 c 0.41 1.75 0.18 3.62 0.18 5.41 c -0.13 1.79 0.28 3.65 -0.18 5.41 c -0.31 1.35 -1.35 2.6 -2.46 3.12 c -1.82 0.66 -4.36 0.52 -6.66 0.52 c -1.93 0.08 -3.81 0.27 -5.52 -0.18 m 9.84 -1.15 c 0.77 -0.29 1.32 -0.92 1.54 -1.73 c 0.16 -0.59 0.13 -0.63 -0.49 -0.61 l -0.52 0.02 c -0.17 0.55 -0.44 1.17 -0.86 1.38 c -0.44 0.21 -1.26 0.21 -1.7 0 c -0.34 -0.16 -0.68 -0.58 -0.87 -1.07 c -0.18 -0.47 -0.22 -2.3 -0.07 -2.9 c 0.16 -0.63 0.45 -1.05 0.87 -1.31 c 0.31 -0.19 0.42 -0.21 0.9 -0.21 c 0.9 0 1.26 0.25 1.56 1.11 c 0.12 0.49 0.21 0.45 0.68 0.47 c 0.6 0.02 0.64 -0.02 0.53 -0.53 c -0.25 -1.11 -1.13 -1.88 -2.29 -2 c -1.66 -0.2 -3 0.74 -3.39 2.36 c -0.14 0.59 -0.14 2.28 0 2.88 c 0.27 1.13 0.98 1.93 2.03 2.27 c 0.44 0.14 1.57 0.08 2.08 -0.11 m -8.64 0 c 0.11 -1.09 0.07 -1.88 0.07 -3.06 h 1.45 c 1.63 0 1.67 -0.02 1.67 -0.49 c 0 -0.5 -0.01 -0.5 -1.63 -0.52 l -1.45 -0.02 c -0.01 -0.74 -0.03 -1.49 -0.04 -2.23 l 1.75 -0.02 c 1.93 -0.02 1.88 -0.01 1.88 -0.49 c 0 -0.52 0.09 -0.5 -2.46 -0.48 l -2.29 0.02 l -0.02 3.65 c -0.01 2.88 0 3.66 0.07 3.71 c 0.27 0.04 0.85 0.17 1 -0.08 m 1.7 -8.22 c 0.21 -0.96 0.11 -1.49 0.11 -2.74 l 1.23 -2.19 c 0.68 -1.21 1.23 -2.26 1.23 -2.34 c -0.29 -0.25 -0.66 -0.2 -1.13 -0.09 c -0.65 0.78 -1.27 2.84 -1.94 3.36 c -0.04 -0.04 -0.46 -0.81 -0.95 -1.72 l -0.88 -1.66 c -0.37 0.02 -0.92 -0.07 -1.18 0.11 c -0.01 0.06 0.54 1.1 1.21 2.31 l 1.23 2.2 c 0.16 0.82 -0.09 2.1 0.09 2.73 c 0.09 0.09 0.76 0.12 0.96 0.04 m 3.4 -0.05 c 0.34 -0.56 0.39 -1.14 0.73 -1.73 c 1.08 -0.14 1.71 -0.07 2.99 -0.05 c 0.29 0.56 0.36 1.32 0.77 1.82 c 0.15 0.09 0.82 0.08 0.96 -0.02 c 0.11 -0.08 -0.02 -0.43 -1.27 -3.64 c -0.76 -1.95 -1.41 -3.59 -1.46 -3.64 c -0.1 -0.13 -0.88 -0.12 -0.99 0.01 c -0.04 0.05 -0.7 1.69 -1.46 3.63 c -1.07 2.75 -1.36 3.55 -1.3 3.63 c 0.11 0.14 0.89 0.13 1.03 0 m 1.14 -2.87 c 0 -0.17 1.05 -2.85 1.1 -2.8 c 0.05 0.05 0.88 2.21 1.04 2.7 l 0.05 0.16 c -0.71 -0.04 -1.49 0.07 -2.18 -0.05" style="fill:#040505"/></svg>