<svg xmlns="http://www.w3.org/2000/svg" viewBox="0 0 32 32"><path d="m 3.79 8.32 c -7.31 7.39 -1.96 14.21 3.86 19.81 c 4.73 4.56 9.13 4.77 13.78 1.75 c 12.15 -7.9 16.65 -18.2 -2.19 -28.9 c -6.21 -2.65 -12 2.94 -15.44 7.33" style="fill:#ef4f33"/><path d="m 15.35 6.89 c -0.34 0.25 -8.75 8.53 -9.1 8.95 c -0.21 0.26 -0.23 0.66 -0.04 0.9 c 0.07 0.09 1.5 1.52 3.16 3.17 l 3 3 c 0.69 -0.68 1.39 -1.36 2.08 -2.04 v -0.5 c -0.01 -0.6 0.13 -0.9 0.61 -1.34 l 0.34 -0.32 v -2.51 v -2.51 l -0.39 -0.36 c -1.34 -1.21 0.13 -3.3 1.63 -2.61 c 0.57 0.34 0.95 0.83 0.95 1.45 c 0 0.48 -0.13 0.77 -0.52 1.13 l -0.28 0.26 v 2.45 c 0 1.35 0.03 2.45 0.06 2.45 c 0.64 -0.55 1.09 -1.02 1.74 -1.65 c -0.01 -0.52 0.02 -1.14 0.25 -1.46 c 0.3 -0.41 0.8 -0.68 1.29 -0.68 c 0.5 0 0.82 0.14 1.16 0.52 c 0.52 0.57 0.58 1.31 0.14 1.91 c -0.31 0.42 -0.77 0.64 -1.38 0.65 h -0.49 c -0.66 0.66 -1.32 1.31 -1.98 1.97 v 0.46 c 0.01 0.58 -0.22 1.03 -0.69 1.35 c -0.27 0.18 -0.43 0.23 -0.92 0.27 l -0.59 0.05 c -0.67 0.68 -1.34 1.35 -2 2.02 c 0.75 0.66 1.39 1.43 2.17 2.05 c 0.25 0.19 0.66 0.17 0.92 -0.04 c 0.46 -0.36 8.93 -8.69 9.15 -8.99 c 0.26 -0.37 0.3 -0.79 0.1 -1.09 c -0.18 -0.27 -8.73 -8.7 -9.1 -8.96 c -0.43 -0.31 -0.82 -0.3 -1.28 0.04" style="fill:#fff"/></svg>