<svg xmlns="http://www.w3.org/2000/svg" viewBox="0 0 32 32"><path d="m 24.2 2.68 c 28.2 23.89 -29.75 46.86 -23.8 9.91 c 1.3 -8.1 16.2 -16.35 23.8 -9.91" style="fill:#4581b3"/><g style="fill:#fff"><g transform="matrix(-1.343 -0.804 -0.66 1.14 32.6 13.91)" style="stroke:#fff;stroke-width:0.11"><path d="m 8.16 11.28 c -0.04 0.04 -0.06 0.09 -0.06 0.15 v 1.33 c 0 0.12 0.1 0.21 0.21 0.21 c 0.12 0 0.21 -0.09 0.21 -0.21 v -1.12"/><path d="m 12.27 11.15 h -3.83 c -0.06 0 -0.11 0.02 -0.15 0.06 l 0.36 0.36 h 3.83 c 0.06 0 0.11 -0.02 0.15 -0.06"/><path d="m 12.35 9.64 v 1.41 l 0.36 0.37 c 0.04 -0.04 0.06 -0.09 0.06 -0.15 v -1.84"/></g><path d="m 10.6 15.21 c 0.39 0.28 -0.06 0.95 -0.45 0.67 l -0.96 -0.56 l -0.02 -0.99"/><path d="m 18.1 18.1 l -2.43 -1.46 l -1.54 2.65 l 2.43 1.46 m -0.89 -4.11 l -2.43 -1.45 l -1.54 2.65 l 2.43 1.45 m -4.08 -2.44 l 2.09 1.25 c 0.43 0.26 0.96 0.15 1.19 -0.24 l 0.71 -1.23 c 0.23 -0.39 0.07 -0.92 -0.37 -1.18 l -2.09 -1.25 c -0.43 -0.26 -0.96 -0.15 -1.19 0.24 l -0.71 1.23 c -0.23 0.39 -0.06 0.92 0.37 1.18 m 9.7 2.23 l -2.08 -1.25 c -0.43 -0.26 -0.96 -0.15 -1.19 0.25 l -0.71 1.23 c -0.23 0.39 -0.06 0.92 0.37 1.18 l 2.08 1.25 c 0.43 0.26 0.96 0.15 1.19 -0.24 l 0.71 -1.23 c 0.23 -0.39 0.06 -0.92 -0.37 -1.18"/></g><path d="m 14.17 22.59 l -2.51 -1.5 l -3.41 5.9 l 2.51 1.5" style="fill:#ffd600"/><g style="fill-opacity:0.7"><path d="m 25.31 11.37 l -2.43 -1.46 l -5.54 9.56 l 2.43 1.45" style="fill:#629fea"/><path d="m 22.88 9.91 l -2.43 -1.45 l -5.54 9.55 l 2.43 1.46" style="fill:#56e388"/><path d="m 20.45 8.46 l -2.43 -1.46 l -5.54 9.55 l 2.43 1.46" style="fill:#f8e45b"/><path d="m 10.1 15.1 l 2.43 1.46 l 5.54 -9.55 l -2.43 -1.46" style="fill:#ec333b"/></g><path d="m 19.76 19.1 l -2.08 -1.25 c -0.43 -0.26 -0.96 -0.15 -1.19 0.25 l -0.71 1.23 c -0.23 0.39 -0.06 0.92 0.37 1.18 l 2.09 1.25 c 0.43 0.26 0.96 0.15 1.19 -0.24 l 0.71 -1.23 c 0.23 -0.39 0.06 -0.92 -0.37 -1.18" style="fill:#629fea"/><path d="m 18.1 18.1 l -2.43 -1.46 l -1.54 2.65 l 2.43 1.46" style="fill:#56e388"/><path d="m 10.1 16.9 l 2.09 1.25 c 0.43 0.26 0.96 0.15 1.19 -0.24 l 0.71 -1.23 c 0.23 -0.39 0.06 -0.92 -0.37 -1.18 l -2.09 -1.25 c -0.43 -0.26 -0.96 -0.15 -1.19 0.24 l -0.71 1.23 c -0.23 0.39 -0.06 0.92 0.37 1.18" style="fill:#ec333b"/><path d="m 15.68 16.69 l -2.43 -1.45 l -1.54 2.65 l 2.43 1.45" style="fill:#f8e45b"/></svg>