<svg xmlns="http://www.w3.org/2000/svg" viewBox="0 0 32 32"><path d="m 4.05 8.39 c -11.31 12.79 5.44 26.31 15.25 22.99 c 9.81 -3.33 16.41 -12.71 10 -20.95 c -6.41 -8.23 -12.71 -16.2 -24 -3.39" style="fill:#b0dfe5"/><path d="m 10.25 25 c -1.26 -0.36 -3.62 -1.32 -3.76 -1.52 c 3.2 -6.91 6.27 -12.1 9.72 -19.39 c 0.23 -0.46 1.29 2 2.05 3.61 c 2.77 6.31 4.55 9.41 7.68 15.6 c 0.05 0.21 -2.07 1.16 -3.73 1.66 c -4.07 1.4 -8.82 0.95 -11.96 0.05" style="fill:#284993"/><path d="m 12 25.32 c -0.12 -0.11 4.18 -8.36 4.36 -8.36 c 1.43 3.04 2.55 4.82 3.96 8.34 c -1.69 0.34 -6.91 0.92 -8.32 0.02" style="fill:#212327"/><path d="m 6.69 23.38 c 3.33 -6.83 6.27 -12.51 9.68 -19.3 c -0.04 4.24 -0.08 8.48 -0.12 12.72 c -1.45 3.04 -2.47 4.78 -4.46 8.55 c -1.73 -0.58 -4.58 -1.46 -5.11 -1.97" style="fill:#3f78fa"/></svg>