<svg xmlns="http://www.w3.org/2000/svg" viewBox="0 0 32 32"><path d="m 0.37 19.65 c 1.98 12.91 19.61 16.38 27.39 7.15 c 6.85 -6.85 5.15 -19.96 -3.26 -24.46 c -9.65 -6 -23.71 1.42 -24.48 13.4 c -0.08 1.31 0.04 2.64 0.35 3.91" style="fill:#393939"/><path d="m 9.54 7.14 l 4.09 5.78 l -3.27 -5.78 m 3.27 0 l 1.64 4.95 l -0.82 -4.95 m 3.27 0 l -0.82 4.95 l 1.64 -4.95 m 3.27 0 l -3.27 5.78 l 4.09 -5.78 m -16.37 3.3 v 0.83 l 5.73 3.3 m 13.91 -4.13 l -5.73 4.13 l 5.73 -3.3 m -11.46 2.48 c -1.64 0 -1.64 1.65 -1.64 2.48 v 1.65 h 1.64 c 0 -1.65 0.82 -2.07 0.82 -2.89 c 0 -0.41 0 -1.24 -0.82 -1.24 m 3.27 0 c -0.82 0 -0.82 0.83 -0.82 1.24 c 0 0.83 0.82 1.24 0.82 2.89 h 1.64 v -1.65 c 0 -0.83 0 -2.48 -1.64 -2.48 m -11.46 0.83 v 0.82 l 4.91 0.83 m 14.73 -1.65 l -4.91 1.65 l 4.91 -0.83 m -14.73 2.48 l -4.91 0.82 v 0.82 m 14.73 -1.65 l 4.91 1.65 v -0.82 m -13.1 0 v 0.82 c 0 0.46 0.37 0.83 0.82 0.83 c 0.45 0 0.82 -0.37 0.82 -0.83 v -0.82 m 3.27 0 v 0.82 c 0 0.46 0.37 0.83 0.82 0.83 c 0.45 0 0.82 -0.37 0.82 -0.83 v -0.82 m -7.37 0.82 l -5.73 3.3 v 0.83 m 13.92 -4.13 l 5.73 4.13 v -0.83 m -12.28 -1.65 l -4.09 5.79 h 0.82 m 8.19 -5.79 l 3.27 5.79 h 0.82 m -7.37 -4.96 l -1.64 4.96 h 0.82 m 2.45 -4.96 l 0.82 4.96 h 0.82" style="fill-opacity:0.1"/><path d="m 9.54 6.31 l 4.09 5.78 l -3.27 -5.78 m 3.27 0 l 1.64 4.96 l -0.82 -4.96 m 3.27 0 l -0.82 4.96 l 1.64 -4.96 m 3.27 0 l -3.27 5.78 l 4.09 -5.78 m -16.37 3.3 v 0.82 l 5.73 3.3 m 13.91 -4.13 l -5.73 4.13 l 5.73 -3.3 m -11.46 2.48 c -1.64 0 -1.64 1.65 -1.64 2.48 v 1.65 h 1.64 c 0 -1.65 0.82 -2.07 0.82 -2.89 c 0 -0.41 0 -1.24 -0.82 -1.24 m 3.27 0 c -0.82 0 -0.82 0.82 -0.82 1.24 c 0 0.82 0.82 1.24 0.82 2.89 h 1.64 v -1.65 c 0 -0.82 0 -2.48 -1.64 -2.48 m -11.46 0.82 v 0.83 l 4.91 0.82 m 14.73 -1.65 l -4.91 1.65 l 4.91 -0.82 m -14.73 2.48 l -4.91 0.83 v 0.82 m 14.73 -1.65 l 4.91 1.65 v -0.82 m -13.1 0 v 0.82 c 0 0.46 0.37 0.82 0.82 0.82 c 0.45 0 0.82 -0.37 0.82 -0.82 v -0.82 m 3.27 0 v 0.82 c 0 0.46 0.37 0.82 0.82 0.82 c 0.45 0 0.82 -0.37 0.82 -0.82 v -0.82 m -7.37 0.82 l -5.73 3.3 v 0.82 m 13.92 -4.13 l 5.73 4.13 v -0.82 m -12.28 -1.65 l -4.09 5.78 h 0.82 m 8.19 -5.78 l 3.27 5.78 h 0.82 m -7.37 -4.96 l -1.64 4.96 h 0.82 m 2.45 -4.96 l 0.82 4.96 h 0.82" style="fill:#ededed"/></svg>