<svg xmlns="http://www.w3.org/2000/svg" viewBox="0 0 32 32"><path d="m 16.3 31.82 c -3.3 -0.25 -7.16 -1.83 -9.85 -4 c -3.27 -2.66 -5.68 -6.75 -6.31 -10.78 c -0.77 -5.32 2.32 -11 5.81 -13.75 c 1.75 -1.32 4.07 -2.37 6.25 -2.83 c 5.66 -1.2 11.57 1.07 15.63 6 c 2.43 2.95 3.68 5.93 3.99 9.45 c 0.37 4.22 -1.3 8.75 -4.35 11.8 c -3.47 2.88 -7 4.43 -11.15 4.14" style="fill:#9ddedb"/><path d="m 15.44 25.2 c -0.55 -0.21 -0.96 -0.65 -1.1 -1.19 c -0.16 -0.62 0.09 -1.4 0.59 -1.78 c 0.85 -0.65 2.05 -0.41 2.56 0.52 c 0.25 0.55 0.25 1.17 0 1.64 c -0.52 0.68 -1.25 1.11 -2.05 0.82 m -3.85 -0.93 c -0.29 -0.14 -0.45 -0.34 -0.54 -0.69 c -0.17 -0.63 0.33 -1.28 0.99 -1.28 c 1.12 0 1.45 1.52 0.45 1.98 c -0.33 0.11 -0.66 0.1 -0.9 -0.01 m 7.88 0.02 c -1 -0.47 -0.67 -1.98 0.45 -1.98 c 0.76 0 1.25 0.81 0.91 1.52 c -0.22 0.47 -0.88 0.69 -1.36 0.46 m -10.14 -2.63 c -0.6 -0.2 -1 -0.59 -1.17 -1.14 c -0.28 -0.89 0.25 -1.91 1.12 -2.16 c 0.39 -0.11 1.02 -0.04 1.33 0.14 c 0.59 0.35 0.9 0.93 0.85 1.63 c -0.06 0.86 -0.68 1.5 -1.54 1.57 c -0.2 0 -0.41 0.01 -0.59 -0.05 m 12.46 0.02 c -0.32 -0.08 -0.54 -0.21 -0.78 -0.46 c -0.82 -0.93 -0.44 -2.29 0.48 -2.77 c 0.66 -0.3 1.49 -0.09 1.94 0.36 c 0.63 0.63 0.65 1.65 0.05 2.32 c -0.5 0.4 -1.18 0.66 -1.69 0.55 m -8.49 -0.45 c -0.92 -0.46 -1 -1.78 -0.14 -2.33 c 0.51 -0.33 1.14 -0.28 1.6 0.11 c 0.32 0.27 0.46 0.6 0.46 1.02 c 0 1.02 -1.02 1.66 -1.93 1.21 m 4.32 0.07 c -0.5 -0.19 -0.86 -0.71 -0.86 -1.28 c 0 -0.42 0.15 -0.75 0.46 -1.02 c 0.45 -0.39 1.09 -0.44 1.6 -0.11 c 0.82 0.52 0.8 1.79 -0.04 2.28 c -0.37 0.15 -0.84 0.24 -1.16 0.12 m -1.92 -3.58 c -0.35 -0.07 -0.75 -0.34 -0.93 -0.64 c -0.87 -1.38 0.63 -2.95 2 -2.13 c 0.45 0.27 0.7 0.71 0.7 1.28 c 0 0.79 -0.54 1.39 -1.34 1.5 c -0.15 0 -0.31 0.02 -0.45 -0.02 m -4.24 -0.2 c -0.84 -0.3 -1.16 -1.29 -0.66 -2.05 c 0.45 -0.68 1.47 -0.77 2 -0.18 c 0.3 0.32 0.4 0.55 0.4 0.96 c 0.05 0.97 -1.05 1.51 -1.76 1.28 m 8.14 -0.01 c -0.28 -0.11 -0.59 -0.39 -0.73 -0.69 c -0.14 -0.28 -0.15 -0.86 -0.02 -1.13 c 0.37 -0.74 1.24 -1.02 1.94 -0.61 c 0.85 0.5 0.84 1.8 -0.01 2.31 c -0.38 0.15 -0.84 0.23 -1.18 0.11 m -11.63 -0.29 c -0.63 -0.22 -0.88 -1.06 -0.47 -1.6 c 0.47 -0.63 1.48 -0.52 1.77 0.19 c 0.23 0.55 0 1.14 -0.54 1.39 c -0.28 0.13 -0.45 0.13 -0.77 0.02 m 15.34 0 c -0.56 -0.21 -0.83 -0.82 -0.62 -1.38 c 0.13 -0.35 0.59 -0.66 0.96 -0.66 c 0.27 0 0.64 0.2 0.83 0.45 c 0.23 0.39 0.25 0.9 0 1.23 c -0.25 0.53 -0.82 0.49 -1.18 0.37 m -14.1 -3.13 c -0.34 -0.11 -0.74 -0.47 -0.92 -0.83 c -0.6 -1.18 0.21 -2.49 1.52 -2.49 c 0.91 0 1.59 0.65 1.65 1.57 c 0.04 0.5 -0.09 0.9 -0.4 1.25 c -0.56 0.53 -1.18 0.68 -1.86 0.5 m 11.39 -1.05 c -0.13 -0.4 -0.1 -1 0.07 -1.34 c 0.3 -0.6 0.85 -0.94 1.51 -0.94 c 1.32 0 2.12 1.32 1.51 2.5 c -0.18 0.36 -0.59 0.71 -0.95 0.82 c -0.89 0.22 -1.85 -0.22 -2.14 -1.05 m -7.14 0.68 c -0.48 -0.17 -0.76 -0.5 -0.87 -1 c -0.28 -1.26 1.23 -2.16 2.18 -1.29 c 0.31 0.28 0.45 0.61 0.45 1.02 c 0 0.42 -0.15 0.74 -0.46 1.02 c -0.37 0.32 -0.87 0.42 -1.3 0.26 m 3.4 -0.71 c -0.14 -0.31 -0.14 -0.82 0 -1.13 c 0.14 -0.32 0.53 -0.66 0.84 -0.74 c 0.98 -0.27 1.9 0.59 1.69 1.56 c -0.08 0.4 -0.29 0.71 -0.6 0.89 c -0.75 0.3 -1.57 0.17 -1.93 -0.59 m -1.47 -2.51 c -0.4 -0.16 -0.7 -0.43 -0.9 -0.79 c -0.25 -0.54 -0.25 -1.17 0 -1.63 c 0.43 -0.75 1.45 -1.12 2.25 -0.74 c 0.37 0.2 0.57 0.39 0.76 0.74 c 0.25 0.54 0.25 1.17 0 1.63 c -0.68 0.91 -1.41 1.04 -2.11 0.79 m -3.58 -0.36 c -0.86 -0.27 -1.06 -1.39 -0.34 -1.88 c 0.96 -0.64 2.08 0.49 1.44 1.46 c -0.29 0.29 -0.76 0.51 -1.1 0.41 m 7.74 -0.04 c -0.53 -0.17 -0.81 -0.81 -0.61 -1.36 c 0.41 -1.07 1.99 -0.77 1.99 0.39 c -0.1 1 -0.83 1.13 -1.39 0.97" style="fill:#00b7b7"/></svg>