<svg xmlns="http://www.w3.org/2000/svg" viewBox="0 0 32 32"><path d="m 0.37 19.65 c 1.98 12.91 19.61 16.38 27.39 7.15 c 6.85 -6.85 5.15 -19.96 -3.26 -24.46 c -9.65 -6 -23.71 1.42 -24.48 13.4 c -0.08 1.31 0.04 2.64 0.35 3.91" style="fill:#007f7f"/><path d="m 8.44 23.75 c -0.21 -5.14 -0.12 -8.14 -0.12 -14.27 c 5.09 0 10.19 0 15.28 0 v 7.08 c 0 5.38 -0.03 7.11 -0.12 7.2 c -0.18 0.16 -14.87 0.16 -15 0 m 8.47 -1.74 c 0.14 -0.13 0.16 -0.57 0.13 -3.76 l -0.03 -3.61 c -0.7 0 -1.41 0 -2.11 0 l -0.03 3.61 c -0.02 3.19 -0.01 3.63 0.13 3.76 c 0.52 0.14 1.43 0.41 1.9 0 m 0 -8.52 c 0.2 -0.19 0.23 -1.83 0.04 -2 c -0.16 -0.16 -1.81 -0.16 -1.97 0 c -0.08 0.07 -0.12 0.43 -0.12 0.98 c 0 1.13 0.05 1.17 1.11 1.17 c 0.59 0 0.83 -0.04 0.95 -0.15" style="fill:#3fdfcf"/></svg>