<svg xmlns="http://www.w3.org/2000/svg" viewBox="0 0 32 32"><path d="m 25.41 3.48 c -24.1 -15.8 -38.88 34.58 -7.78 27.91 c 12.85 -2.84 20.65 -20.67 7.78 -27.91" style="fill:#c1e4f4"/><path d="m 9.68 24.7 c -0.81 -0.25 -1.65 -1.11 -1.9 -1.94 c -0.23 -0.79 -0.23 -1.32 0 -2.13 c 0.18 -0.61 0.41 -0.86 5.13 -5.6 c 2.72 -2.73 4.95 -5 4.95 -5.12 c 0 -0.08 -0.11 -0.29 -0.23 -0.45 c -0.34 -0.44 -0.31 -1.02 0.07 -1.32 c 0.64 -0.5 0.7 -0.46 3.91 2.74 c 3.2 3.2 3.24 3.26 2.74 3.91 c -0.3 0.38 -0.89 0.42 -1.32 0.07 c -0.16 -0.13 -0.37 -0.23 -0.45 -0.23 c -0.09 0 -2.39 2.23 -5.12 4.95 c -4.74 4.73 -4.99 4.95 -5.6 5.13 c -0.79 0.23 -1.42 0.23 -2.18 0 m 9.86 -9.81 c 0.89 -0.89 1.63 -1.67 1.63 -1.74 c 0 -0.16 -1.67 -1.83 -1.83 -1.83 c -0.22 0 -5 4.93 -4.96 5.06 c 0.05 0.09 0.7 0.13 1.81 0.13 h 1.73" style="fill:#6a5de7"/></svg>