<svg xmlns="http://www.w3.org/2000/svg" viewBox="0 0 32 32"><path d="m 15.77 31.95 c -3.29 -0.13 -7.1 -1.57 -9.66 -3.66 c -3.15 -2.54 -5.37 -6.55 -5.82 -10.56 c -0.53 -5.3 2.82 -11.15 6.43 -14 c 1.81 -1.39 4.18 -2.53 6.38 -3.07 c 5.71 -1.41 11.52 0.63 15.35 5.42 c 2.29 2.87 3.41 5.8 3.56 9.32 c 0.18 4.21 -1.7 8.82 -4.89 11.99 c -3.6 3 -7.23 4.71 -11.33 4.57" style="fill:#096051"/><g style="fill:#fff"><path d="m 20.31 10.1 c -0.17 -0.09 -0.02 -0.25 0.09 -0.36 c 0.23 -0.19 0.58 -0.57 0.32 -0.75 c -0.22 -0.14 -0.27 -0.24 -0.19 -0.39 c 0.08 -0.16 0.22 -0.13 0.64 0.11 c 0.15 0.09 0.16 0.24 0.46 0.04 c 0.27 -0.18 0.4 -0.36 0.52 -0.29 c 0.12 0.07 0.21 0.17 0.21 0.21 c -0.11 0.19 -0.26 0.34 -0.33 0.55 c 0 0.07 0.09 0.2 0.24 0.38 c 0.17 0.19 0.22 0.27 0.1 0.46 c -0.29 0.33 -0.53 -0.21 -0.72 -0.36 c -0.19 -0.1 -0.44 0 -0.73 0.29 c -0.28 0.25 -0.31 0.27 -0.63 0.11"/><path d="m 20.59 8 c -0.07 -0.02 -0.12 -0.06 -0.16 -0.15 c -0.05 -0.12 0 -0.22 0.18 -0.38 c 0.35 -0.3 0.16 -0.58 -0.03 -0.78 c -0.1 -0.11 -0.19 -0.21 -0.19 -0.24 c 0 -0.02 0.04 -0.08 0.08 -0.12 c 0.11 -0.11 0.18 -0.09 0.61 0.13 c 0.31 0.2 0.34 0.19 0.59 -0.04 c 0.24 -0.22 0.32 -0.29 0.39 -0.29 c 0.05 0 0.28 0.22 0.3 0.28 c 0.02 0.06 -0.01 0.12 -0.14 0.27 c -0.24 0.27 -0.23 0.35 0.05 0.69 c 0.14 0.16 0.2 0.27 0.2 0.31 c 0 0.08 -0.23 0.32 -0.3 0.32 c -0.26 -0.13 -0.49 -0.43 -0.76 -0.43 c -0.14 0 -0.29 0.08 -0.43 0.23 c -0.14 0.16 -0.29 0.23 -0.41 0.21"/><path d="m 25.3 11.95 c -0.25 -0.36 -0.21 -0.56 -0.23 -0.99 h -0.93 c -1.8 0 -6.49 0.05 -6.5 0.07 c -0.01 0.01 -0.03 0.17 -0.05 0.36 c -0.04 0.46 -0.07 0.52 -0.32 0.52 c -0.41 -0.02 -0.28 -0.61 -0.29 -0.86 l -0.02 -0.67 c 0.27 -0.02 0.53 -0.04 0.8 -0.07 v -0.24 c 0 -0.14 -0.02 -0.95 -0.04 -1.81 c -0.02 -0.86 -0.04 -1.57 -0.03 -1.57 c 0.01 0 0.73 -0.21 1.27 -0.36 c 0.59 -0.11 0.64 -0.15 0.85 0.19 c 0.09 0.2 -0.02 0.29 -0.53 0.39 c -0.52 0.11 -0.73 0.2 -0.81 0.38 c -0.08 0.16 0.01 0.36 0.22 0.47 c 0.41 0.11 0.79 -0.04 1.2 0.11 c 0.09 0.08 0.09 0.21 0.01 0.29 c -0.4 0.3 -1.04 -0.1 -1.39 0.26 c -0.08 0.09 -0.09 0.26 -0.03 0.36 c 0.11 0.17 0.35 0.23 0.89 0.23 c 0.54 0 0.63 0.04 0.59 0.22 c -0.05 0.2 -0.14 0.23 -0.79 0.26 c -0.53 0.02 -0.61 0.05 -0.67 0.21 c -0.06 0.14 -0.07 0.34 -0.04 0.42 c 0.05 0.1 0.23 0.18 0.49 0.2 c 0.25 0.03 3.53 0.02 4.67 -0.01 l 0.67 -0.02 v -0.3 c 0 -0.44 0.01 -0.44 -0.71 -0.5 c -0.53 -0.04 -0.65 -0.08 -0.66 -0.2 c -0.02 -0.23 0.03 -0.25 0.75 -0.31 c 0.47 -0.04 0.56 -0.06 0.62 -0.18 c 0.05 -0.12 0.06 -0.4 0.02 -0.45 c -0.04 -0.06 -0.34 -0.09 -0.88 -0.09 c -0.25 0 -0.34 -0.01 -0.41 -0.05 c -0.08 -0.04 -0.09 -0.05 -0.09 -0.17 c 0.05 -0.31 0.56 -0.25 0.73 -0.26 c 0.61 -0.04 0.64 -0.05 0.71 -0.12 c 0.04 -0.04 0.05 -0.09 0.05 -0.29 c 0 -0.36 -0.01 -0.37 -0.73 -0.43 c -0.57 -0.05 -0.71 -0.08 -0.78 -0.15 c -0.07 -0.07 -0.08 -0.18 -0.02 -0.26 c 0.02 -0.21 0.63 -0.25 2.34 -0.18 l -0.01 0.06 c -0.04 0.35 -0.06 0.73 -0.08 1.05 c -0.05 0.94 -0.11 1.88 -0.11 2.83 l 0.26 0.03 c 0.34 0.04 0.52 0.13 0.58 0.27 c 0.02 0.38 0.15 1.13 -0.18 1.35 c -0.16 0.06 -0.27 0.07 -0.37 -0.02"/><path d="m 12.92 15.53 c -0.11 -0.02 -0.19 -0.07 -0.2 -0.11 c -0.04 -0.11 -0.06 -1.07 -0.07 -2.12 v -1.16 c -0.38 0.02 -0.76 0.05 -1.14 0.07 l -0.1 0.39 c -0.27 1.11 -0.46 1.52 -0.98 2.03 c -0.23 0.23 -0.7 0.63 -0.82 0.69 c -0.37 0 -0.48 -0.16 -0.71 -0.39 c 0.16 -0.16 0.34 -0.3 0.49 -0.41 c 0.55 -0.44 1.05 -0.89 1.24 -1.59 c 0.04 -0.15 0.11 -0.61 0.11 -0.71 c -0.5 -0.14 -0.81 -0.08 -1.52 -0.13 c -0.02 -0.02 -0.06 -1.13 -0.05 -1.47 c 0.02 -0.38 0.09 -1.05 0.12 -1.08 c 0.53 -0.04 0.96 -0.04 1.52 -0.08 l 0.08 -0.01 c 0 -0.41 0 -0.82 0 -1.22 h -0.06 c -0.43 -0.13 -0.99 0.14 -1.39 0 c -0.08 -0.04 -0.08 -0.18 -0.08 -0.31 c 0 -0.25 0.07 -0.27 0.95 -0.34 l 0.58 -0.05 l 0.01 -0.1 c 0.1 -0.4 -0.04 -0.95 0.2 -1.3 c 0.03 -0.04 0.06 -0.04 0.19 -0.03 c 0.2 0.02 0.38 -0.11 0.42 0.02 c 0.01 0.34 -0.06 0.79 -0.05 1.47 c 0.33 0 0.61 -0.04 0.93 -0.06 c 0.09 -0.34 -0.05 -1.29 0.25 -1.44 c 0.07 -0.03 0.6 -0.09 0.62 -0.07 c 0 0.48 -0.03 0.88 -0.04 1.39 v 0.13 c 0.55 0.02 1.1 0.04 1.65 0.06 h 0.08 v 0.72 c 0 0.98 -0.05 1.46 -0.17 1.57 c -0.07 0.07 -0.29 0.1 -0.71 0.1 c -0.64 0 -0.88 0.12 -0.88 0.12 c -0.02 0.13 -0.02 1.04 0.02 1.3 l 0.02 0.11 c 0.68 0 1.36 0 2.03 0 v 0.18 c 0 0.29 -0.05 1.16 -0.08 1.41 c -0.04 0.3 -0.11 0.65 -0.19 0.81 c -0.18 0.34 -0.46 0.52 -0.83 0.52 c -0.14 0 -0.28 -0.14 -0.34 -0.34 c -0.07 -0.22 -0.04 -0.29 0.13 -0.37 c 0.27 -0.13 0.48 -0.41 0.54 -0.71 c 0.04 -0.21 0.04 -0.66 -0.01 -0.74 c -0.06 -0.12 -0.1 -0.13 -0.88 -0.09 l -0.37 0.02 l -0.02 0.41 c -0.01 0.23 -0.02 0.94 -0.03 1.58 c -0.01 0.65 -0.03 1.2 -0.04 1.22 c -0.1 0.12 -0.27 0.1 -0.41 0.1 m -2 -4.33 c 0.04 -0.36 0.11 -1 -0.25 -1.16 c -0.23 -0.1 -0.57 -0.04 -0.68 0.12 c -0.09 0.13 -0.13 0.39 -0.13 0.8 c 0 0.57 0.04 0.62 0.47 0.61 c 0.3 0 0.51 -0.14 0.57 -0.36 m 1.68 0.32 l 0.02 -0.35 c 0.02 -0.52 0.02 -0.91 -0.01 -0.98 c -0.04 -0.08 -0.16 -0.13 -0.37 -0.17 c -0.39 -0.07 -0.58 0.11 -0.65 0.57 c -0.04 0.22 -0.02 0.78 0.02 0.86 c 0.3 0.21 0.67 0.11 0.99 0.08 m -0.04 -2.16 c 0.05 -0.39 0.05 -0.7 0.06 -1.12 c -0.2 -0.02 -0.63 -0.04 -0.83 -0.04 c -0.14 0.01 -0.36 0.62 -0.18 1.04 c 0.18 0.33 0.76 0.3 0.95 0.12 m 1.9 -0.23 c 0.06 -0.27 0.08 -0.66 0.04 -0.76 c -0.06 -0.15 -0.24 -0.19 -0.63 -0.16 c -0.45 0.04 -0.48 0.07 -0.48 0.69 c 0 0.47 -0.01 0.38 0.14 0.42 c 0.41 0.07 0.84 0.15 0.93 -0.19"/><path d="m 7.45 13.35 c 0 -3.2 -0.04 -3.54 -0.36 -3.04 c -0.11 0.18 -0.21 0.27 -0.3 0.27 c -0.15 0 -0.44 -0.25 -0.44 -0.39 c 0 -0.09 0.09 -0.25 0.35 -0.64 c 0.5 -0.75 0.8 -1.33 1.26 -2.43 c 0.38 -0.91 0.41 -0.99 0.5 -1.01 c 0.1 -0.03 0.63 0.16 0.7 0.25 c 0.05 0.06 -0.16 0.53 -0.67 1.54 l -0.32 0.64 v 6.88 c -0.24 0 -0.48 0 -0.71 0"/><path d="m 20.58 15.5 c -0.18 -0.06 -0.23 -0.11 -0.33 -0.32 c -0.17 -0.34 0.02 -0.33 0.28 -0.36 c 0.37 -0.04 0.44 -0.07 0.48 -0.17 c 0.04 -0.3 0.03 -0.54 0.03 -0.86 h -0.16 c -0.87 -0.01 -4 -0.07 -4 -0.07 c -0.01 -0.02 0.06 -0.59 0.07 -0.61 c 0 0 0.64 0 1.42 0.02 c 0.82 0.02 1.64 0.03 2.47 0.04 c 0.41 -0.31 0.91 -0.61 1.22 -0.99 c 0 -0.02 -0.02 -0.04 -0.04 -0.05 c -0.13 -0.04 -0.71 -0.07 -1.78 -0.09 c -1.22 -0.03 -1.48 -0.05 -1.55 -0.13 c -0.06 -0.06 -0.08 -0.21 -0.04 -0.26 c 0.1 -0.14 0.71 -0.18 2.37 -0.16 c 1.35 0.02 2.32 0.05 2.56 0.09 c 0.59 -0.07 0.26 0.48 -0.21 0.55 c -0.41 0.25 -1.05 0.5 -1.19 0.93 c 0.07 0.07 0.4 0.08 2 0.09 c 1.89 0 1.83 0 1.82 0.18 c -0.01 0.14 -0.05 0.23 -0.12 0.26 c -0.14 0.08 -0.63 0.11 -2.35 0.16 c -0.56 0.02 -1.13 0.04 -1.69 0.06 l -0.03 0.43 c -0.07 0.92 -0.14 1.07 -0.61 1.23 c -0.21 0.05 -0.45 0.11 -0.64 0.05"/><path d="m 16.88 23.1 c 0 -0.42 0.01 -0.43 0.74 -0.47 l 0.28 -0.02 v -0.26 c 0.01 -0.97 0.07 -4.12 0.07 -4.13 c 0.66 -0.05 1.2 -0.04 1.9 -0.08 l 0.08 -0.01 l 0.05 -0.55 c 0.06 -0.62 0.09 -0.7 0.23 -0.76 c 0.13 -0.05 0.36 -0.06 0.41 -0.01 c 0.12 0.45 0.09 0.72 0.13 1.2 l 0.02 0.12 c 0.41 0 0.81 0 1.21 0 c 0.04 -0.49 0.03 -0.92 0.11 -1.39 c 0.14 -0.12 0.27 -0.08 0.46 -0.04 c 0.11 0.06 0.14 0.2 0.2 0.83 c 0.03 0.32 0.06 0.6 0.07 0.6 c 0.67 0.07 1.2 0.07 1.9 0.14 c 0 0.01 0.02 0.87 0.04 1.92 c 0.01 1.05 0.03 2.04 0.04 2.19 l 0.02 0.28 c 0.34 0.05 0.84 -0.02 1.1 0.17 c 0.04 0.05 0.09 0.36 0.09 0.49 v 0.06 h -9.15 c 0 -0.09 0 -0.18 0 -0.28 m 2.92 -0.38 c 0.11 -0.04 0.16 -0.14 0.2 -0.39 c 0.03 -0.24 0.01 -0.93 -0.03 -1.07 c -0.07 -0.23 -0.21 -0.3 -0.63 -0.3 c -0.47 0 -0.59 0.08 -0.65 0.41 c -0.04 0.25 -0.02 1 0.04 1.19 c 0.19 0.32 0.73 0.22 1.07 0.16 m 2.19 -0.23 c 0.06 -0.18 0.09 -0.8 0.04 -1.05 c -0.04 -0.2 -0.12 -0.35 -0.24 -0.42 c -0.11 -0.06 -0.52 -0.09 -0.72 -0.04 c -0.3 0.07 -0.35 0.2 -0.35 0.86 c 0 0.44 0.04 0.72 0.1 0.82 c 0.39 0.12 1.04 0.22 1.17 -0.17 m 1.87 0.22 c 0.14 -0.06 0.17 -0.13 0.23 -0.43 c 0.05 -0.32 0.04 -0.79 -0.04 -1 c -0.09 -0.25 -0.23 -0.32 -0.61 -0.32 c -0.6 0 -0.69 0.14 -0.66 1.03 c 0.02 0.6 0.05 0.69 0.25 0.75 c 0.14 0.04 0.71 0.02 0.84 -0.04 m -4.13 -2.26 c 0.11 -0.04 0.2 -0.14 0.23 -0.27 c 0.05 -0.54 0.02 -0.82 0 -1.34 c -0.41 0 -0.82 0 -1.23 0 c 0.03 0.46 -0.16 1.03 0.02 1.46 c 0.25 0.21 0.64 0.24 0.98 0.14 m 2.24 -0.2 c 0.11 -0.6 0.07 -0.88 0.04 -1.41 c -0.41 0 -0.81 0 -1.21 0 l -0.02 0.14 c 0 0.44 -0.07 0.86 0.02 1.29 c 0.27 0.25 1.01 0.34 1.18 -0.02 m 2.08 0.02 c 0.08 -0.55 0.04 -0.86 0.02 -1.43 c -0.41 0 -0.82 0 -1.24 0 l -0.02 0.39 c -0.02 0.5 -0.01 0.98 0.04 1.07 c 0.29 0.13 1.1 0.2 1.2 -0.04"/><path d="m 24.99 25.86 c -0.6 -0.56 -2.18 -1.26 -2.29 -1.65 c 0.02 -0.13 0.12 -0.24 0.25 -0.28 c 0.08 -0.02 0.12 -0.02 0.29 0.04 c 0.6 0.21 1.61 0.75 2.06 1.11 c 0.53 0.1 -0.01 0.95 -0.32 0.78"/><path d="m 17.71 25.97 c -0.18 -0.12 -0.39 -0.25 -0.46 -0.44 c 0.7 -0.38 1.52 -0.81 2.09 -1.19 c 0.5 -0.33 0.7 -0.44 0.8 -0.44 c 0.13 0 0.56 0.3 0.65 0.45 c 0.01 0.25 -1.51 0.94 -1.96 1.17 c -0.55 0.27 -1 0.49 -1 0.49 c -0.04 -0.02 -0.07 -0.03 -0.11 -0.05"/><path d="m 13.25 26.1 c -0.12 -0.13 -0.17 -0.7 -0.17 -1.87 v -0.66 c -0.2 -0.04 -0.4 -0.05 -0.57 -0.06 c -0.72 -0.07 -0.76 -0.09 -0.75 -0.38 c 0 -0.24 0 -0.24 0.52 -0.24 c 0.42 0 0.45 0 0.57 -0.06 c 0.33 -0.22 0.37 -0.73 0.21 -1.08 c -0.12 -0.25 -0.26 -0.29 -1.05 -0.3 c -0.59 -0.01 -0.55 -0.02 -0.59 0.2 c -0.04 0.21 -0.08 0.87 -0.13 2.35 c -0.06 1.75 -0.06 1.75 -0.15 1.8 c -0.3 0.09 -0.66 0.23 -0.92 0.15 c -0.08 -0.07 -0.11 -0.23 -0.07 -0.37 c 0.15 -0.3 0.48 -0.46 0.52 -0.75 c 0.03 -1.34 0.11 -2.25 0.11 -3.66 l -0.82 -0.08 c -0.76 -0.07 -0.88 0.02 -1.03 0.18 c -0.11 0.12 -0.25 0.39 -0.25 0.5 c 0.16 0.38 0.66 0.01 0.81 -0.16 c 0.08 -0.1 0.16 -0.18 0.16 -0.17 c 0.03 0.01 0.33 0.36 0.42 0.49 c 0.15 0.21 0.16 0.51 -0.15 0.49 c -0.11 -0.01 -0.55 -0.03 -0.98 -0.04 c -1.02 -0.04 -1.15 -0.06 -1.18 -0.22 c -0.02 -0.12 0 -0.16 0.11 -0.22 c 0.23 -0.17 0.36 -0.47 0.39 -0.74 c -0.02 -0.07 -0.19 -0.09 -0.55 -0.09 h -0.35 l -0.02 0.5 c -0.04 1.32 -0.02 2.48 -0.06 3.84 l -0.02 0.53 c -0.19 0 -0.39 0 -0.58 0 v -5.4 h 0.63 c 0.67 -0.01 0.79 -0.03 0.85 -0.14 c 0.03 -0.05 0.02 -0.05 -0.13 -0.33 c -0.05 -0.1 -0.04 -0.17 0.06 -0.24 c 0.42 -0.02 0.56 0.2 0.97 0.4 c 0.1 0.02 0.23 -0.05 0.41 -0.23 c 0.18 -0.18 0.22 -0.27 0.15 -0.35 c -0.11 -0.11 -0.38 -0.14 -1.96 -0.2 c -0.86 -0.04 -1.02 -0.07 -1 -0.26 c 0.02 -0.13 0.08 -0.13 1.66 -0.14 l 1.45 -0.01 l 0.21 -0.41 c 0.32 -0.66 0.4 -0.73 0.65 -0.67 c 0.07 0.02 0.14 0.04 0.16 0.05 c 0.07 0.28 -0.44 0.83 -0.15 0.99 c 0.04 0.02 0.11 0.04 0.16 0.04 c 0.05 0 0.1 0.01 0.12 0.03 c 0.06 0.04 -0.03 0.17 -0.29 0.46 c -0.58 0.61 -0.68 0.74 -0.68 0.88 c 0 0.06 0.02 0.1 0.07 0.13 c 0.36 0.06 0.75 0 1.16 0 l 0.11 0.12 c 0.14 0.15 0.18 0.17 0.45 0.21 c 0.27 0.05 1.19 0.08 1.49 0.05 c 0.27 -0.1 0.47 -0.66 0.56 -0.94 c 0.26 -0.86 0.44 -1.03 0.69 -0.95 c 0.31 0.1 0.32 0.22 0.05 0.89 c -0.19 0.47 -0.26 0.69 -0.26 0.82 c 0.22 0.3 0.89 0.12 1.2 0.27 c 0.03 0.05 0.02 0.34 -0.01 0.38 c -0.05 0.07 -0.21 0.09 -0.88 0.09 h -0.64 c 0 0.45 0 0.89 0 1.34 h 0.63 c 0.73 0.01 0.77 0.02 0.8 0.19 c 0.01 0.05 0.01 0.15 0 0.2 c -0.43 0.36 -0.9 0.21 -1.5 0.27 l -0.01 1.14 c -0.01 1.3 -0.02 1.34 -0.18 1.42 c -0.15 0.07 -0.32 0.09 -0.38 0.02"/><path d="m 12.42 20.32 c -0.25 -0.24 -0.43 -0.59 -0.43 -0.93 c 0.03 -0.25 0.18 -0.3 0.37 -0.27 c 0.2 0.13 0.54 0.94 0.46 1.08 c -0.04 0.07 -0.19 0.16 -0.26 0.16 c -0.04 0 -0.1 -0.02 -0.13 -0.04"/><path d="m 11.45 18.26 v -0.29 l 0.76 0.02 c 1.64 0.03 2.65 0.07 2.77 0.09 c 0.22 0.04 0.26 0.09 0.3 0.39 l 0.01 0.1 h -3.84"/><path d="m 13.2 17.63 c -0.32 -0.15 -0.53 -0.58 -0.37 -0.75 c 0.1 -0.11 0.21 -0.14 0.42 -0.14 h 0.2 l 0.09 0.1 c 0.18 0.2 0.26 0.61 0.15 0.73 c -0.13 0.14 -0.28 0.16 -0.48 0.07"/><path d="m 6.78 17.82 c -0.25 -0.05 -0.43 -0.21 -0.39 -0.37 c 0.03 -0.12 0.21 -0.14 1.87 -0.27 c 0.88 -0.06 1.14 -0.09 1.77 -0.17 c 0.55 -0.07 0.93 -0.07 1.07 -0.01 c 0.17 0.12 0.21 0.25 0.12 0.37 c -1.43 0.3 -2.09 0.2 -3.65 0.41 c -0.26 0.01 -0.54 0.07 -0.8 0.04"/><path d="m 8.78 18.58 c -0.15 -0.18 -0.22 -0.34 -0.11 -0.52 c 0.18 -0.18 0.55 -0.02 0.66 0.27 c 0.04 0.1 0.01 0.16 -0.14 0.24 c -0.18 0.11 -0.31 0.11 -0.42 0"/><path d="m 7.4 18.66 c -0.11 -0.04 -0.23 -0.1 -0.25 -0.15 c -0.02 -0.03 -0.03 -0.09 -0.03 -0.14 c 0.06 -0.34 0.13 -0.44 0.37 -0.3 c 0.43 0.23 0.39 0.71 -0.09 0.59"/><path d="m 8.23 25.28 c -0.08 -0.03 -0.24 -0.23 -0.24 -0.29 c 0 -0.07 0.19 -0.25 0.36 -0.32 c 0.19 -0.09 0.19 -0.09 0.2 -0.16 c 0.01 -0.12 -0.09 -0.26 -0.3 -0.44 c -0.3 -0.25 -0.32 -0.34 -0.07 -0.36 c 0.1 -0.01 0.22 0.01 0.44 0.07 c 0.39 0.1 0.48 0.09 0.64 -0.06 c 0.06 -0.06 0.11 -0.13 0.11 -0.16 c 0 -0.14 -0.19 -0.22 -0.64 -0.28 c -0.7 -0.09 -0.85 -0.13 -0.83 -0.25 c 0.02 -0.14 0.47 -0.21 1.43 -0.19 c 0.73 0.01 0.71 0 0.65 0.28 c -0.02 0.1 -0.13 0.38 -0.22 0.61 c -0.1 0.23 -0.18 0.43 -0.17 0.44 c 0 0.01 0.08 0.07 0.17 0.13 c 0.22 0.14 0.31 0.28 0.33 0.46 c 0.01 0.13 0 0.14 -0.05 0.2 c -0.08 0.09 -0.12 0.08 -0.47 -0.09 c -0.29 -0.13 -0.41 -0.15 -0.51 -0.08 c -0.04 0.03 -0.18 0.14 -0.32 0.25 c -0.21 0.17 -0.39 0.28 -0.43 0.27 c 0 0 -0.03 -0.01 -0.06 -0.02"/></g></svg>