<svg xmlns="http://www.w3.org/2000/svg" viewBox="0 0 32 32"><path d="m 30.86 12.4 c -10.83 -29.77 -48.4 2.19 -20.49 17.32 c 10.94 6.49 26.1 -2 20.49 -17.32" style="fill:#ff8c00"/><path d="m 18.2 12.3 c 0 3.74 -2.94 6.77 -6.56 6.77 c -3.62 0 -6.55 -3 -6.55 -6.77 c 0 -3.73 2.94 -6.77 6.55 -6.77 c 3.62 0 6.56 3 6.56 6.77" style="fill:#fff"/><path d="m 9.98 10.25 h 10.23 c 0.14 0 0.26 0.12 0.26 0.26 v 10 c 0 0.14 -0.12 0.26 -0.26 0.26 h -10.23 c -0.14 0 -0.26 -0.12 -0.26 -0.26 v -10 c 0 -0.14 0.12 -0.26 0.26 -0.26" style="fill:#ff8c00"/><path d="m 10.92 11.29 h 10.23 c 0.14 0 0.26 0.12 0.26 0.26 v 9.99 c 0 0.14 -0.12 0.26 -0.26 0.26 h -10.23 c -0.14 0 -0.26 -0.12 -0.26 -0.26 v -9.99 c 0 -0.14 0.12 -0.26 0.26 -0.26" style="fill:#fff"/><path d="m 14.8 23.58 l 3.32 -5.35 l 3.29 -5.59 l 3.16 5.4 l 3.4 5.5 l -6.48 -0.05" style="fill:#ff8c00"/><path d="m 15.65 24.47 l 3.32 -5.41 l 3.29 -5.66 l 3 5.56 l 3.23 5.66 l -6.32 -0.15" style="fill:#fff"/></svg>