<svg xmlns="http://www.w3.org/2000/svg" viewBox="0 0 32 32"><path d="m 25 3.42 c -15.89 -11.46 -33.3 9.7 -20.56 23.2 c 12 12.71 32 0.93 26.59 -14.9 c -1.14 -3.3 -3.11 -6.2 -6 -8.3" style="fill:#006789"/><path d="m 7.36 16.1 v -8.35 h 17.25 v 16.7 h -17.25 m 16.57 -8.35 v -7.7 h -15.9 v 15.4 h 15.9 m -15 -0.86 c -0.12 -0.11 -0.12 -13.56 0 -13.68 c 0.12 -0.11 14 -0.11 14.1 0 c 0.12 0.11 0.12 13.56 0 13.68 c -0.12 0.11 -3.77 0.11 -3.88 0 c -0.06 -0.06 -0.08 -1.25 -0.08 -4.96 v -4.88 h -1.08 v 4.88 c 0 3.71 -0.02 4.9 -0.08 4.96 c -0.11 0.11 -3.77 0.11 -3.88 0 c -0.06 -0.06 -0.08 -1.25 -0.08 -4.96 v -4.88 h -1.08 v 4.88 c 0 3.71 -0.02 4.9 -0.08 4.96 c -0.11 0.11 -3.76 0.11 -3.88 0" style="fill:#701b90"/><g style="fill:#0ff"><path d="m 7.41 19.84 c 0.19 -0.09 0.39 -0.17 0.58 -0.25 c 0.02 1.55 0.02 2.73 0.02 4.4 c 5.31 0 10.62 0 15.93 0 c 0 -1.09 0 -2.19 0 -3.28 c 0.22 0.18 0.44 0.35 0.66 0.53 c 0 1.13 0 2.27 0 3.4 c -5.73 0 -11.47 0 -17.21 0 c 0.01 -1.6 0.02 -3.2 0.02 -4.8"/><path d="m 8.92 18.87 c 0.63 -0.75 1.16 -1.82 1.96 -2.3 c 0.77 -0.36 1.09 0.66 1.78 0.91 c 0.23 0.07 0.25 0.14 0.18 0.68 c -0.09 1.68 -0.07 3 -0.07 4.74 c -1.28 0 -2.56 0 -3.84 0 c 0 -1.4 0 -2.59 0 -4"/><path d="m 14 18.27 c 0.69 -0.09 1.18 -0.62 1.51 -0.97 c 0.64 -0.69 1.93 -1.62 2.26 -1.62 c 0.12 2.54 0.07 4.48 0.07 7.23 c -1.28 0 -2.56 0 -3.84 0 c 0 -1.55 0 -3.09 0 -4.63"/><path d="m 19.2 16.1 l 0.7 0.49 c 0.65 0.45 0.71 0.54 0.93 1.26 c 0.29 0.95 0.33 1 1.37 1.69 l 0.84 0.55 c 0 0.93 0 1.85 0 2.78 c -1.28 0 -2.56 0 -3.84 0 c 0 -2.26 0 -4.52 0 -6.77"/></g></svg>