<svg xmlns="http://www.w3.org/2000/svg" viewBox="0 0 32 32"><path d="m 7 3.42 c 15.89 -11.46 33.3 9.7 20.56 23.2 c -12 12.71 -32.1 0.93 -26.6 -14.9 c 1.14 -3.3 3.11 -6.2 6 -8.3" style="fill:#105331"/><path d="m 7.36 16.1 v -8.35 h 17.25 v 16.7 h -17.25 m 16.57 -8.35 v -7.7 h -15.9 v 15.4 h 15.9 m -15 -0.86 c -0.12 -0.11 -0.12 -13.56 0 -13.68 c 0.12 -0.11 14 -0.11 14.1 0 c 0.12 0.11 0.12 13.56 0 13.68 c -0.12 0.11 -3.77 0.11 -3.88 0 c -0.06 -0.06 -0.08 -1.25 -0.08 -4.96 v -4.88 h -1.08 v 4.88 c 0 3.71 -0.02 4.9 -0.08 4.96 c -0.11 0.11 -3.77 0.11 -3.88 0 c -0.06 -0.06 -0.08 -1.25 -0.08 -4.96 v -4.88 h -1.08 v 4.88 c 0 3.71 -0.02 4.9 -0.08 4.96 c -0.11 0.11 -3.76 0.11 -3.88 0" style="fill:#e8f6ec"/></svg>