<svg xmlns="http://www.w3.org/2000/svg" viewBox="0 0 32 32"><path d="m 4.05 8.39 c -11.31 12.79 5.44 26.31 15.25 22.99 c 9.81 -3.33 16.41 -12.71 10 -20.95 c -6.41 -8.23 -12.71 -16.2 -24 -3.39" style="fill:#ff7f44"/><path d="m 9.1 25.33 c -1.13 0.11 0.1 -5.67 0.09 -6.77 c 0 -1.42 0.39 -5.96 0.57 -7.25 c 0.12 -0.81 2.64 1.83 4.45 1.24 c 1.24 -0.41 2.85 -0.7 3.99 -0.28 c 1.75 0.65 3.91 -1.28 4.29 -0.87 c 1.12 1.2 0.62 4.82 0.73 6.72 c 0.07 1.36 1.32 5.91 0.7 7.2 c -0.36 0.74 -2.45 -1.59 -3.18 -0.87 c -4.43 2.19 -6.45 -1.11 -11.66 0.88" style="fill:#889ed5"/><path d="m 9.94 30.1 c 0.03 -0.14 0.34 -0.79 0.66 -1.36 c 0.3 -0.56 0.55 -1.23 0.64 -1.73 c 0.08 -0.45 0.21 -1.11 0.28 -1.47 c 0.07 -0.36 0.11 -0.69 0.07 -0.72 c -0.04 -0.04 -0.48 0.13 -1 0.38 c -1.11 0.53 -2.04 0.6 -2.41 0.19 c -0.2 -0.22 -0.22 -0.42 -0.16 -1.84 c 0.08 -1.75 0.4 -3.9 0.67 -4.43 c 0.09 -0.19 0.17 -0.44 0.17 -0.56 c 0 -0.13 0.09 -0.39 0.19 -0.59 c 0.33 -0.63 0.26 -0.83 -0.31 -0.83 c -0.42 0 -0.58 0.08 -1.02 0.53 c -0.64 0.66 -1.23 1.68 -1.23 2.11 c 0 1.05 -0.41 0.95 -0.96 -0.22 c -0.52 -1.12 -0.5 -1.36 0.16 -2.44 c 0.25 -0.42 0.42 -0.82 0.38 -0.93 c -0.13 -0.33 -0.84 0.19 -1.22 0.9 c -0.49 0.91 -0.61 1.02 -0.81 0.73 c -0.18 -1.16 -0.5 -2.14 0.29 -2.89 c 0.53 -0.5 2.64 -1.54 3.31 -1.63 c 0.28 -0.04 0.71 0.03 1.09 0.16 c 0.35 0.13 0.66 0.2 0.71 0.15 c 0.04 -0.04 0.01 -0.5 -0.06 -1.04 c -0.14 -1.03 -0.04 -1.46 0.39 -1.73 c 0.29 -0.18 1.12 0.11 1.77 0.6 c 0.28 0.21 0.57 0.43 0.66 0.49 c 0.63 0 0.79 -0.54 1.19 -0.05 c 0.29 0.36 0.34 0.38 0.49 0.19 c 0.21 -0.26 -0.01 -0.75 -0.74 -1.57 c -0.97 -1.1 -1.46 -3.74 -0.88 -4.69 c 0.32 -0.52 1.23 -0.9 1.73 -0.73 c 0.51 0.18 0.65 0.82 0.71 3.17 c 0.04 1.98 0.27 3.44 0.55 3.62 c 0.25 0.15 2.15 0.05 2.31 -0.13 c 0.2 -0.22 0.47 -1.63 0.45 -2.3 c -0.04 -0.86 0.15 -3.6 0.27 -3.9 c 0.18 -0.48 0.64 -0.61 1.31 -0.35 c 0.8 0.31 1.05 0.76 1.05 1.89 c 0 1.51 -0.7 3.25 -1.68 4.15 c -0.18 0.16 -0.32 0.37 -0.32 0.46 c 0 0.53 0.42 0.77 0.56 0.32 c 0.16 -0.48 0.42 -0.57 0.82 -0.28 l 0.37 0.27 l 0.54 -0.41 c 0.82 -0.62 1.54 -0.91 1.94 -0.77 c 0.43 0.16 0.52 0.53 0.39 1.73 c -0.06 0.54 -0.08 1.02 -0.04 1.05 c 0.04 0.04 0.33 -0.03 0.66 -0.14 c 1.07 -0.39 1.73 -0.22 3.82 0.96 c 1.12 0.63 1.28 0.98 1.13 2.39 c -0.09 0.87 -0.14 1 -0.35 1 c -0.16 0 -0.38 -0.23 -0.66 -0.71 c -0.43 -0.75 -0.8 -1.04 -1.12 -0.92 c -0.16 0.06 -0.15 0.14 0.09 0.54 c 0.62 1.03 0.87 1.52 0.87 1.68 c 0 0.3 -1.01 2.1 -1.18 2.1 c -0.21 0 -0.32 -0.27 -0.32 -0.77 c 0 -0.53 -0.4 -1.24 -1.11 -1.97 c -0.51 -0.53 -0.7 -0.64 -1.06 -0.64 c -0.24 0 -0.46 0.05 -0.5 0.1 c -0.04 0.05 0.08 0.49 0.26 0.97 c 0.79 2.13 1.23 6.36 0.74 7.11 c -0.18 0.27 -0.3 0.32 -0.88 0.32 c -1.07 0.04 -1.55 -0.71 -2.54 -0.83 c -0.03 0.45 0.21 0.86 0.21 1.34 c 0 0.59 0.27 1.41 0.8 2.47 c 0.25 0.49 0.63 1.07 0.63 1.14 c 0 0.24 -0.43 0.55 -0.69 -0.27 c -0.08 -0.16 -0.27 -0.42 -0.43 -0.59 c -0.57 -0.92 -0.86 -2.21 -0.99 -3.04 c -0.05 -0.34 -0.27 -0.68 -0.75 -1.21 c -0.63 -0.68 -0.67 -0.77 -0.6 -1.21 c 0.1 -0.44 0.25 -0.89 0.2 -1.31 c -0.07 -0.51 -0.03 -0.55 0.35 -0.35 c 0.29 0.16 0.32 0.7 0.05 1.05 c -0.4 0.53 -0.06 1.32 0.57 1.32 c 0.2 0 0.39 -0.05 0.44 -0.13 c 0.12 -0.19 0.51 -0.15 0.7 0.07 c 0.27 0.32 1.57 0.93 1.99 0.93 c 0.59 0 0.68 -0.39 0.52 -2.06 c -0.08 -0.76 -0.2 -1.74 -0.28 -2.19 c -0.19 -1.13 -1.07 -3.94 -1.3 -4.13 c -0.27 -0.23 -0.23 -0.31 0.23 -0.47 c 0.35 -0.13 0.57 -0.11 1.34 0.08 c 0.87 0.22 0.96 0.28 1.52 0.95 c 0.18 0.17 0.85 1.39 1.19 1.14 c 0.09 -0.09 -0.64 -1.57 -0.93 -1.89 c -0.13 -0.14 -0.56 -0.47 -0.96 -0.74 c -0.45 -0.39 -1 -0.28 -0.44 -0.73 c 0.19 -0.15 0.41 -0.21 0.61 -0.18 c 0.71 0.14 1.84 0.45 2.29 0.64 c 0.41 0.17 0.47 0.17 0.47 0.01 c 0 -0.19 -0.86 -0.69 -1.88 -1.09 c -1.12 -0.82 -2.98 0.75 -3.44 0.55 c -0.3 -0.14 -0.45 -0.65 -0.19 -0.65 c 0.16 0 0.34 -0.73 0.45 -1.78 c 0.07 -0.71 0.05 -0.86 -0.12 -0.92 c -0.33 -0.13 -0.93 0.2 -1.58 0.85 c -0.33 0.33 -0.64 0.6 -0.7 0.6 c -0.5 -0.31 -0.74 -0.27 -1.12 -0.1 c -0.55 0.31 -0.77 0.37 -1.17 -0.02 c -0.39 -0.38 -0.41 -0.38 -1.69 -0.38 c -1.22 0 -1.32 0.02 -1.69 0.33 l -0.39 0.33 l -0.71 -0.26 c -0.71 -0.3 -0.69 -0.12 -1.2 0.11 c -0.05 0 -0.36 -0.27 -0.69 -0.6 c -0.94 -0.94 -1.76 -1.16 -1.76 -0.48 c 0 0.55 0.37 2.27 0.5 2.31 c 0.25 0.08 0.12 0.53 -0.19 0.67 c -0.27 0.12 -0.36 0.1 -0.59 -0.11 c -0.46 -0.41 -1.1 -0.66 -1.7 -0.66 c -0.55 0 -1.52 0.28 -1.89 0.55 c -0.1 0.07 -0.39 0.24 -0.65 0.37 c -1.81 1.21 1.08 0.02 1.58 -0.11 c 0.73 -0.18 0.83 -0.18 1.18 0 c 0.21 0.11 0.38 0.25 0.38 0.32 c 0 0.07 -0.23 0.25 -0.52 0.4 c -0.84 0.38 -1.92 1.53 -1.98 2.38 c 0 0.19 0.05 0.34 0.12 0.34 c 0.07 0 0.46 -0.45 0.89 -1 c 0.54 -0.7 0.86 -1 1.04 -1 c 0.15 0 0.57 -0.08 0.93 -0.17 c 0.51 -0.13 0.77 -0.14 1.14 -0.03 c 0.42 0.14 0.57 0.07 0.18 0.36 c -0.7 0.52 -1.72 5 -1.65 7.23 l 0.04 1.17 l 0.36 0.04 c 0.49 0.05 1.38 -0.3 1.91 -0.76 c 0.42 -0.37 0.45 -0.38 0.93 -0.21 c 0.59 0.19 0.86 0.08 1.04 -0.44 c 0.22 -0.58 -0.57 -1.23 -0.16 -1.67 c 0.32 -0.32 0.43 -0.13 0.55 0.95 l 0.12 1.09 l -0.59 0.63 c -0.64 0.68 -0.86 1.11 -0.86 1.7 c -0.23 0.95 -0.42 1.94 -0.98 2.7 c -0.25 0.35 -0.66 1.32 -0.74 1.45 c -0.13 0.21 -0.44 0.14 -0.33 -0.32 m 4 -20.6 c 0.25 -1.16 0.08 -3.23 -0.29 -3.59 c -0.15 -0.15 -0.23 -0.14 -0.57 0.03 c -0.64 0.33 -0.73 0.7 -0.33 1.38 c 0.26 0.45 0.36 0.8 0.41 1.54 c 0.04 0.53 0.13 1.03 0.19 1.12 c 0.25 0.31 0.45 0.15 0.59 -0.47 m 5.25 0.39 c 0.07 -0.13 0.13 -0.46 0.13 -0.72 c 0 -0.53 0.25 -1.43 0.55 -2.02 c 0.28 -0.54 0.14 -0.93 -0.39 -1.19 c -0.37 -0.18 -0.48 -0.18 -0.61 -0.05 c -0.33 0.33 -0.42 3.6 -0.12 4.09 c 0.13 0.21 0.29 0.16 0.44 -0.11" style="fill:#4f2c2f"/><path d="m 15.7 24 c -1.6 -0.04 -2.07 -0.1 -2.2 -0.26 c -0.1 -0.59 -0.28 -1.19 -0.29 -1.82 c 0.01 -0.02 0.2 0.03 0.4 0.11 c 1.16 0.18 3.69 0.46 4.82 0.02 c 0.28 -0.12 0.59 -0.24 0.7 -0.26 c 0.44 -0.25 0.09 1.64 -0.13 1.77 c -1.44 0.59 -2.34 0.47 -3.31 0.45" style="fill:#2896d4"/><path d="m 20.36 17.6 c 0 0.72 -0.63 1.3 -1.42 1.3 c -0.79 0 -1.42 -0.58 -1.42 -1.3 c 0 -0.72 0.64 -1.3 1.42 -1.3 c 0.79 0 1.42 0.58 1.42 1.3" style="fill:#fff"/><path d="m 17.88 18.59 c -0.52 -0.29 -0.5 -1.55 0.04 -1.95 c 0.4 -0.3 0.53 -0.07 0.56 0.97 c 0.04 1.05 -0.09 1.26 -0.61 0.98" style="fill:#3445b8"/><path d="m 14.29 17.56 c 0 0.7 -0.64 1.26 -1.42 1.26 c -0.79 0 -1.42 -0.57 -1.42 -1.26 c 0 -0.7 0.64 -1.26 1.42 -1.26 c 0.79 0 1.42 0.56 1.42 1.26" style="fill:#fff"/><path d="m 13.94 18.6 c 0.52 -0.23 0.5 -1.5 -0.04 -1.94 c -0.4 -0.33 -0.53 -0.12 -0.57 0.91 c -0.04 1.04 0.09 1.25 0.6 1.03" style="fill:#3445b8"/><path d="m 5.8 18.33 c -0.06 -0.29 0.47 -1.04 0.97 -1.7 c 0.3 -0.4 0.4 -0.48 0.98 -0.81 c 0.62 -0.34 0.79 -0.49 0.71 -0.63 c -0.07 -0.14 -1.01 -0.29 -1.23 -0.29 c -0.24 0 -0.7 0.51 -1.6 0.82 c -0.42 0.14 -1.02 0.16 -1.04 0.14 c -0.07 -0.07 0.16 -0.67 0.81 -1.04 c 0.73 -0.42 1.63 -0.74 2.23 -0.84 c 0.42 -0.13 0.45 0.18 0.85 0.19 c 0.25 0 0.58 0.3 1.03 0.63 c 0.17 0.12 1.13 -0.18 1.19 -0.18 c 4.76 -1.32 6.71 -1.22 11.69 0.04 c 0.07 -0.02 0.61 0.2 0.78 0.07 c 0.47 -0.36 0.6 -1.07 1.59 -0.73 c 0.84 -0.09 1.21 0.36 1.84 0.45 c 1.1 0.15 1.61 0.93 1.24 1.54 c -0.16 0.27 -0.54 -0.55 -0.8 -0.65 c -0.59 -0.21 -1.64 -0.2 -1.88 -0.2 c -0.31 0.69 0.29 0.68 0.68 1.04 c 0.21 0.24 1.08 1.62 0.82 2.44 c -0.23 0.73 -0.58 -0.12 -0.82 -0.51 c -1 -1.45 -1.15 -1.86 -2.72 -1.88 c -5.29 -0.46 -10 -0.59 -14.36 0.21 c -1.59 0.02 -1.34 0.98 -2.41 2.08 c -0.32 -0.08 -0.79 0.42 -0.57 -0.2" style="fill:#d8373e"/><g style="fill:#475b95"><path d="m 15.2 18.87 c 0.05 -0.07 0.41 0.12 0.8 0.41 l 0.15 0.11 c 0.39 0.29 0.67 0.58 0.62 0.64 c -0.05 0.07 -0.4 -0.12 -0.8 -0.41 l -0.15 -0.11 c -0.39 -0.29 -0.67 -0.58 -0.63 -0.64"/><path d="m 16.7 18.78 c -0.04 -0.07 -0.36 0.13 -0.71 0.45 l -0.14 0.13 c -0.35 0.32 -0.6 0.64 -0.56 0.72 c 0.04 0.07 0.36 -0.13 0.72 -0.46 l 0.14 -0.13 c 0.35 -0.32 0.6 -0.64 0.56 -0.71"/></g><g style="fill:#f4f5f5"><path d="m 13.46 9.98 c -0.07 -0.08 -0.13 -0.3 -0.18 -0.8 c 0.25 -0.93 -1 -2.07 -0.62 -2.79 c 0.13 -0.22 0.6 -0.53 0.82 -0.53 c 0.33 0 0.52 0.7 0.55 2.09 c 0.04 1.56 -0.21 2.44 -0.57 2.04"/><path d="m 18.86 10 c -0.18 -0.21 -0.27 -1.43 -0.18 -2.56 c 0.09 -1.25 0.2 -1.6 0.48 -1.6 c 0.19 0 0.7 0.33 0.79 0.51 c 0.13 0.93 -0.5 1.81 -0.6 2.75 c -0.07 0.75 -0.29 1.14 -0.49 0.9"/></g><path d="m 10.37 30.5 c 0 -0.12 0.55 -1.26 0.89 -1.82 c 0.59 -1.47 0.88 -3.17 1.76 -4.2 c -0.29 -1.32 2.84 0.33 6.1 -0.88 l 0.08 0.24 c 0.04 0.13 0.34 0.56 0.67 0.96 c 0.47 0.57 0.62 0.86 0.72 1.35 c 0.22 1.1 0.58 2.13 0.96 2.73 c 0.2 0.32 0.45 0.72 0.55 0.89 l 0.18 0.31 c -3.2 1.91 -7.88 2.39 -11.87 0.41" style="fill:#2853d7"/><path d="m 16.83 15.32 c -0.19 -0.16 -0.36 -0.18 -0.57 -0.06 c -0.43 0.21 -0.86 -0.12 -1.2 0.06 c -0.17 0.09 -0.21 0.09 -0.4 0.02 c -0.27 -0.1 -0.45 -0.39 -0.39 -0.63 c 0.04 -0.13 0.13 -0.2 0.57 -0.41 c 0.83 -0.39 1.34 -0.45 1.7 -0.19 c 0.34 0.21 0.95 0.35 0.95 0.73 c 0 0.24 -0.23 0.62 -0.39 0.62 c -0.06 0 -0.18 -0.06 -0.27 -0.14" style="fill:#fff"/><path d="m 16.98 21 c -0.2 0.13 -0.5 -0.35 -0.72 -0.45 c -0.45 -0.17 -0.67 0.56 -1.03 0.41 c -0.36 0.13 -0.7 -0.5 -0.9 -0.44 c -0.28 0.08 -0.03 0.39 0.04 0.58 c 0.04 0.11 0.28 0.69 0.75 0.53 c 1.3 -0.44 1.21 -0.29 1.65 -0.04 c 1.07 -0.02 1.58 -1.51 0.92 -0.97 c -0.21 0.17 -0.61 0.31 -0.7 0.38" style="fill:#475b95"/></svg>