<svg xmlns="http://www.w3.org/2000/svg" viewBox="0 0 32 32"><path d="m 31.83 22.75 c 3.18 -45.53 -58.2 -11.41 -17.79 7.94 c 6.23 2.67 15.51 0.72 17.79 -7.94" style="fill:#69552f"/><g style="fill:#fff"><path d="m 9.42 22.32 l 0.09 -6.95 c 0.08 -6.46 0.1 -6.95 0.27 -7.13 c 0.17 -0.17 0.62 -0.19 6.88 -0.21 l 6.69 -0.03 c 0.16 0.15 0.33 0.3 0.49 0.46 v 3 c 0 1.66 -0.04 3.2 -0.08 3.43 l -0.07 0.41 l -0.55 -0.31 c -0.67 -0.38 -0.45 -0.8 -0.48 -0.93 c -0.05 -0.22 -0.13 -0.23 -1.31 -0.3 c -0.69 -0.04 -3.34 -0.07 -5.89 -0.07 h -4.64 c 0 1.11 0 2.21 0 3.31 c 2.54 0.14 3.65 -0.29 3.65 0.59 c 0 0.94 -0.2 0.6 -2 0.64 l -1.64 0.04 c -0.17 1.29 -0.02 1.89 -0.13 3.29 c 1.62 0.02 3.1 -0.1 4.67 0.03 c 0.25 0.46 0.55 0.67 1.32 1.21 c -1.82 0 -4.94 0 -6.76 0 c -0.16 -0.18 -0.3 -0.32 -0.47 -0.5 m 13.17 -9.86 c 0 -1.07 0 -2.14 0 -3.21 h -4.49 c -2.44 0 -4.88 0.11 -7.31 -0.01 c 0 1.16 0 2.03 0 3.19 c 4.12 -0.07 7.68 0.02 11.8 0.02"/><path d="m 24.1 23.93 l -2.09 -2.07 l -0.71 0.3 c -1.2 0.43 -2.49 0.44 -3.46 -0.02 c -0.77 -0.37 -1.48 -1.04 -1.92 -1.84 c -0.39 -1.12 -0.57 -2.36 -0.04 -3.42 c 0.65 -1.27 2 -2.2 3.35 -2.31 c 1.18 -0.09 2.5 0.46 3.34 1.41 c 1.08 1.33 1.11 3.21 0.61 4.26 c -0.14 0.28 -0.26 0.57 -0.26 0.64 c 0 0.07 0.91 1.04 2.02 2.15 c 2.22 2.22 2.5 2.56 2.33 2.89 c -0.09 0.18 -0.41 0.42 -0.54 0.42 c -1.02 -0.7 -1.91 -1.69 -2.64 -2.41 m -3.34 -2.88 c 0.93 -0.4 1.56 -1.35 1.63 -2.45 c 0.04 -0.57 0 -0.73 -0.29 -1.32 c -0.57 -1.16 -1.48 -1.67 -2.83 -1.57 c -0.84 0.06 -1.49 0.41 -2 1.09 c -0.43 0.56 -0.59 1.15 -0.52 1.94 c 0.16 2 2.12 3.13 4 2.31"/><path d="m 13.1 19.98 c 0 0.36 -0.31 0.65 -0.69 0.65 c -0.38 0 -0.68 -0.29 -0.68 -0.65 c 0 -0.36 0.31 -0.65 0.68 -0.65 c 0.38 0 0.69 0.29 0.69 0.65"/><path d="m 13.31 15.42 c 0 0.36 -0.31 0.65 -0.68 0.65 c -0.38 0 -0.69 -0.29 -0.69 -0.65 c 0 -0.36 0.31 -0.66 0.69 -0.66 c 0.38 0 0.68 0.29 0.68 0.66"/><path d="m 13.28 10.89 c 0 0.36 -0.31 0.65 -0.69 0.65 c -0.38 0 -0.68 -0.29 -0.68 -0.65 c 0 -0.36 0.31 -0.65 0.68 -0.65 c 0.38 0 0.69 0.29 0.69 0.65"/></g></svg>