<svg xmlns="http://www.w3.org/2000/svg" viewBox="0 0 32 32"><path d="m 0.12 16.23 c -2.42 21.25 32.3 20.95 31.85 -0.38 c 1.14 -19.84 -33.74 -21.64 -31.85 0.38" style="fill:#cf76be"/><path d="m 6.71 19.45 v 1.19 c 0 0.99 0.91 1.78 2.03 1.78 h 0.68 v 0.59 l 0.68 1.78 h 1.35 l 0.68 -1.78 v -0.59 h 2.03 v 0.59 l 0.68 1.78 h 1.35 l 0.68 -1.78 v -0.59 h 2.03 v 0.59 l 0.68 1.78 h 1.35 l 0.68 -1.78 v -0.59 h 0.68 c 1.13 0 2.03 -0.79 2.03 -1.78 v -1.19" style="fill-opacity:0.1"/><path d="m 10.1 8.77 l -0.68 1.78 v 11.87 l 0.68 1.78 h 1.35 l 0.68 -1.78 v -11.87 l -0.68 -1.78 m 3.38 0 l -0.68 1.78 v 11.87 l 0.68 1.78 h 1.35 l 0.68 -1.78 v -11.87 l -0.68 -1.78 m 3.38 0 l -0.68 1.78 v 11.87 l 0.68 1.78 h 1.35 l 0.68 -1.78 v -11.87 l -0.68 -1.78" style="fill:#e5e5e5"/><path d="m 7.08 11.14 h 16.83 c 0.21 0 0.38 0.17 0.38 0.38 v 9.93 c 0 0.21 -0.17 0.38 -0.38 0.38 h -16.83 c -0.21 0 -0.38 -0.17 -0.38 -0.38 v -9.93 c 0 -0.21 0.17 -0.38 0.38 -0.38" style="fill:#616161"/><g style="fill-opacity:0.1"><path d="m 9.41 21.82 v 0.59 h 2.7 v -0.59 m 2.03 0 v 0.59 h 2.7 v -0.59 m 2.03 0 v 0.59 h 2.71 v -0.59"/><path d="m 6.71 20.28 c 0.14 0.87 0.97 1.54 2 1.54 h 13.52 c 1.03 0 1.87 -0.67 2 -1.54 c -0.13 0.54 -0.67 0.95 -1.33 0.95 h -14.88 c -0.65 0 -1.2 -0.4 -1.32 -0.95"/></g><path d="m 10.1 13.52 l -0.68 0.59 v 4.75 l 0.68 0.59 h 2.7 l 0.68 -0.59 l -0.68 -0.59 h -2.03 v -1.19 h 1.35 l 0.68 -0.59 l -0.68 -0.59 h -1.35 v -1.19 h 2.03 l 0.68 -0.59 l -0.68 -0.59 m 2.03 0 l -0.68 0.59 v 4.75 l 0.68 0.59 l 0.68 -0.59 v -1.78 h 1.35 l 0.68 -0.59 l -0.68 -0.59 h -1.35 v -1.19 h 2.03 l 0.68 -0.59 l -0.68 -0.59 m 2.03 0 l -0.68 0.59 l 0.68 0.59 v 3.56 l -0.68 0.59 l 0.68 0.59 h 1.35 l 0.68 -0.59 l -0.68 -0.59 v -3.56 l 0.68 -0.59 l -0.68 -0.59" style="fill:#e5e5e5"/></svg>