<svg xmlns="http://www.w3.org/2000/svg" viewBox="0 0 32 32"><path d="m 6 5.57 c -16.81 12.95 5.84 36.3 20.71 21.39 c 14.91 -12.85 -6.4 -37.79 -20.71 -21.39" style="fill:#2c2c2c"/><path d="m 15.25 24.59 c -1.65 -0.35 -2.93 -1.03 -4.16 -2.2 c -1.76 -1.69 -2.61 -3.71 -2.6 -6.18 c 0.01 -1.87 0.48 -3.34 1.56 -4.88 c 0.71 -1 2.14 -2.27 2.57 -2.27 c 0.09 0 0.77 0.61 1.51 1.36 c 1.16 1.18 1.34 1.41 1.29 1.63 c -0.1 0.41 0.13 1.03 0.52 1.42 l 0.36 0.36 v 4.79 l -0.41 0.45 c -0.69 0.76 -0.67 1.62 0.06 2.27 c 0.63 0.56 1.7 0.39 2.14 -0.34 c 0.38 -0.62 0.2 -1.7 -0.32 -1.98 c -0.2 -0.11 -0.21 -0.23 -0.21 -2.55 c 0 -1.34 0.04 -2.43 0.08 -2.43 c 0.04 0 0.45 0.37 0.89 0.82 c 0.79 0.81 0.81 0.84 0.81 1.35 c 0 0.65 0.26 1.12 0.77 1.36 c 1 0.48 2.07 -0.18 2.07 -1.29 c 0 -0.89 -0.61 -1.5 -1.48 -1.5 c -0.45 0 -0.5 -0.04 -1.43 -0.98 c -0.92 -0.93 -0.97 -1 -0.97 -1.44 c 0 -0.89 -0.61 -1.5 -1.48 -1.5 c -0.45 0 -0.5 -0.04 -1.66 -1.21 c -0.66 -0.66 -1.16 -1.26 -1.13 -1.32 c 0.09 -0.14 1.28 -0.41 2.23 -0.5 c 0.87 -0.08 2.28 0.08 3.22 0.38 c 0.36 0.11 1.05 0.43 1.52 0.71 c 3.5 2.04 5.06 6.08 3.85 9.96 c -0.41 1.31 -1.08 2.38 -2.14 3.43 c -1.03 1.02 -2.23 1.73 -3.58 2.12 c -1.02 0.29 -2.93 0.38 -3.89 0.17" style="fill:#645b88"/><path d="m 12.8 24.81 c -3.31 -0.88 -5.7 -3.44 -6.42 -6.86 c -0.19 -0.89 -0.19 -2.5 0 -3.4 c 0.68 -3.25 3.04 -5.8 6.23 -6.73 c 1.16 -0.34 1.2 -0.26 0.14 0.27 c -1.18 0.59 -1.73 1 -2.8 2.13 c -1.16 1.23 -1.82 2.41 -2.18 3.98 c -0.57 2.45 -0.04 5.25 1.37 7.18 c 0.95 1.3 2 2.2 3.56 3 c 1.16 0.61 1.18 0.71 0.1 0.42" style="fill:#f6941e"/></svg>