<svg xmlns="http://www.w3.org/2000/svg" viewBox="0 0 32 32"><path d="m 0.37 19.65 c 1.98 12.91 19.61 16.38 27.39 7.15 c 6.85 -6.85 5.15 -19.96 -3.26 -24.46 c -9.65 -6 -23.71 1.42 -24.48 13.4 c -0.08 1.31 0.04 2.64 0.35 3.91" style="fill:#deb0b4"/><path d="m 7.88 10.22 v 2.75 h 0.68 v 8.25 h -0.68 v 2.75 c 0 0.76 0.6 1.37 1.35 1.37 h 2.7 v -0.69 h 8.1 v 0.69 h 2.7 c 0.75 0 1.35 -0.61 1.35 -1.37 v -2.75 h -0.67 v -8.25 h 0.67 v -2.75" style="fill-opacity:0.1"/><path d="m 8.55 8.84 h 14.83 v 15.1 h -14.83" style="fill:#ececec"/><path d="m 9.22 8.84 c -0.25 0 -0.47 0.07 -0.67 0.18 v 3.94 h 0.67 v -2.75 h 2.7 v -1.38 m 8.1 0 v 1.38 h 2.7 v 2.75 h 0.68 v -3.94 c -0.2 -0.12 -0.43 -0.18 -0.68 -0.18" style="fill-opacity:0.1"/><path d="m 9.22 8.16 c -0.75 0 -1.35 0.61 -1.35 1.38 v 2.75 h 1.35 v -2.75 h 2.7 v -1.38 m 8.1 0 v 1.38 h 2.7 v 2.75 h 1.35 v -2.75 c 0 -0.76 -0.6 -1.38 -1.35 -1.38 m -14.83 12.37 v 2.75 c 0 0.76 0.6 1.37 1.35 1.37 h 2.7 v -1.37 h -2.7 v -2.75 m 8.09 0 v 1.38 h 1.35 v -1.38 m 1.35 0 v 1.38 h 1.35 v -1.38 m 1.35 0 v 2.75 h -2.7 v 1.37 h 2.7 c 0.75 0 1.35 -0.61 1.35 -1.37 v -2.75" style="fill:#ed444c"/><path d="m 10.57 10.91 v 1.38 h 1.35 v 3.43 h -1.35 v 1.38 h 5.39 v -2.75 h -1.35 v 1.38 h -1.35 v -3.43 h 1.35 v -1.38 m 2.7 0 v 1.38 h 1.35 v -1.38 m 1.35 0 v 1.38 h 1.35 v -1.38" style="fill:#3584e4"/><path d="m 17.31 13.65 v 0.69 h 4 v -0.69 m -4 1.38 v 0.69 h 4 v -0.69 m -4 1.38 v 0.69 h 4 v -0.69 m -10.79 2.06 v 0.69 h 10.79 v -0.69 m -10.79 1.38 v 0.69 h 5.39 v -0.69 m -5.39 1.38 v 0.69 h 5.39 v -0.69" style="fill:#b2b2b2"/></svg>