<svg xmlns="http://www.w3.org/2000/svg" viewBox="0 0 32 32"><path d="m 24.2 2.4 c 27.85 23.89 -29.41 46.86 -23.53 9.91 c 1.29 -8.1 16 -16.35 23.53 -9.91" style="fill:#182340"/><g style="fill:#fff"><path d="m 13.56 10.33 c 0 1.67 -1.39 3 -3.1 3 c -1.71 0 -3.1 -1.35 -3.09 -3 c 0 -1.67 1.38 -3 3.09 -3 c 1.71 0 3.1 1.36 3.1 3"/><path d="m 18.47 16.3 c 0 1.55 -1.27 2.81 -2.84 2.81 c -1.57 0 -2.84 -1.26 -2.84 -2.81 c 0 -1.55 1.27 -2.81 2.84 -2.81 c 1.57 0 2.84 1.26 2.84 2.81"/><path d="m 21.1 22.86 c 0 1.61 -1.3 2.91 -2.92 2.91 c -1.61 0 -2.91 -1.3 -2.91 -2.91 c 0 -1.61 1.3 -2.91 2.91 -2.91 c 1.61 0 2.92 1.3 2.92 2.91"/><path d="m 23.69 9.16 c 0 1.67 -1.39 3 -3.1 3 c -1.71 0 -3.09 -1.36 -3.09 -3 c 0 -1.67 1.39 -3 3.09 -3 c 1.71 0 3.1 1.36 3.1 3"/><path d="m 12.46 22.1 c 0 2.07 -1.69 3.75 -3.78 3.75 c -2.09 0 -3.79 -1.68 -3.79 -3.75 c 0 -2.07 1.7 -3.75 3.79 -3.75 c 2.09 0 3.79 1.68 3.78 3.75"/><path d="m 26.1 16.98 c 0 1.5 -1.19 2.71 -2.66 2.71 c -1.47 0 -2.66 -1.21 -2.66 -2.71 c 0 -1.5 1.19 -2.71 2.66 -2.71 c 1.47 0 2.66 1.21 2.66 2.71"/></g><g style="fill:#211a14"><path d="m 9.44 24.2 c -0.43 -0.15 -0.72 -0.43 -0.72 -0.67 c 0 -0.27 0.34 -0.29 0.69 -0.04 c 0.23 0.17 0.32 0.18 0.52 0.07 c 0.29 -0.29 0.31 -0.72 0.07 -0.96 c -0.11 -0.11 -0.21 -0.16 -0.3 -0.16 c -0.39 0 -0.64 -0.26 -0.47 -0.51 c 0.04 -0.07 0.12 -0.14 0.16 -0.15 c 0.23 -0.08 0.49 -0.23 0.65 -0.37 c 0.23 -0.22 0.23 -0.52 0.04 -0.71 c -0.44 -0.27 -0.62 0.05 -1.03 0.17 c -0.27 0.04 -0.34 -0.2 -0.26 -0.36 c 0.15 -0.3 0.67 -0.58 1.07 -0.59 c 0.36 0 0.64 0.16 0.79 0.45 c 0.16 0.4 0.49 0.69 0.05 1.2 c -0.22 0.3 -0.62 0.65 -0.3 0.82 c 0.73 0.38 0.34 1.27 0.15 1.53 c -0.21 0.29 -0.71 0.41 -1.11 0.27"/><path d="m 6.36 24.2 c -0.09 -0.43 0.6 -0.39 0.77 -0.77 c 0.08 -0.18 0.1 -2.59 0.02 -2.65 c -0.31 -0.04 -0.58 0.09 -0.88 0.04 c -0.04 -0.03 -0.07 -0.09 -0.07 -0.12 c 0 -0.11 0.26 -0.3 0.65 -0.5 c 0.5 -0.25 0.76 -0.32 0.89 -0.25 c 0.1 0.05 0.1 0.06 0.06 1.24 c -0.02 0.65 -0.04 1.44 -0.03 1.74 c -0.09 0.5 0.26 0.8 0.25 1.21 c -0.03 0.05 -0.08 0.1 -0.11 0.1 c -0.54 -0.02 -1.03 0.09 -1.56 -0.04"/><path d="m 15.21 18.1 c -0.6 -0.27 -1.09 -1.04 -1.13 -1.54 c -0.09 -1.52 0.34 -1.38 0.76 -1.76 c 0.49 -0.39 1.23 -0.43 1.64 -0.03 c 0.38 0.38 0.8 0.57 0.68 1.8 c -0.07 0.74 -0.52 1 -0.84 1.28 c -0.27 0.24 -0.7 0.34 -1.11 0.25 m 0.76 -0.75 c 0.26 -0.16 0.32 -0.29 0.39 -0.84 c 0.07 -0.57 0.05 -0.79 -0.08 -1 c -0.14 -0.23 -0.27 -0.29 -0.59 -0.3 c -0.34 0 -0.51 0.07 -0.67 0.29 c -0.14 0.51 -0.3 1.1 -0.01 1.64 c 0.25 0.3 0.64 0.4 0.96 0.21"/><path d="m 9.77 12.27 c -0.19 -0.06 -0.25 -0.13 -0.22 -0.27 c 0.03 -0.18 0.19 -0.46 0.47 -0.88 c 0.46 -0.67 0.8 -1.39 0.86 -1.82 c 0.02 -0.13 0.01 -0.17 -0.05 -0.23 c -0.09 -0.08 -0.18 -0.09 -0.54 -0.02 c -0.38 0.08 -0.55 0.05 -0.69 -0.11 c -0.13 -0.14 -0.13 -0.27 -0.03 -0.43 c 0.14 -0.21 0.22 -0.23 1.02 -0.23 c 0.84 0.01 0.85 0.01 0.94 0.35 c 0.1 0.35 0.06 0.65 -0.15 1.25 c -0.1 0.27 -0.23 0.74 -0.31 1.05 c -0.2 0.81 -0.37 1.16 -0.63 1.28 c -0.18 0.08 -0.5 0.11 -0.66 0.06"/><path d="m 20.57 11.63 c -0.11 -0.07 -0.22 -0.25 -0.22 -0.36 c 0 -0.04 0.06 -0.26 0.14 -0.49 c 0.18 -0.55 0.16 -0.74 -0.08 -0.91 c -0.39 -0.09 -0.59 -0.05 -1.06 -0.05 l -0.08 -0.1 c -0.1 -0.12 -0.17 -0.52 -0.08 -0.73 c 0.24 -0.54 0.34 -0.79 0.64 -1.32 c 0.31 -0.52 1.07 -0.98 1.27 -0.79 c 0.11 0.11 0.13 0.44 0.11 1.41 c -0.03 1.1 -0.04 1.06 0.27 0.99 c 0.19 -0.04 0.2 -0.04 0.29 0.05 c 0.13 0.13 0.13 0.35 0.01 0.48 c -0.23 0.16 -0.52 0.05 -0.64 0.26 c -0.1 0.16 -0.09 0.27 0.05 0.73 c 0.09 0.29 0.12 0.43 0.1 0.51 c -0.15 0.31 -0.51 0.46 -0.72 0.33 m -0.13 -2.61 c 0.23 -0.12 0.28 -0.23 0.28 -0.46 c 0 -0.15 0.07 -0.59 -0.04 -0.64 c -0.21 -0.11 -0.54 0.09 -0.73 0.46 c -0.11 0.21 -0.09 0.44 0.06 0.58 c 0.13 0.13 0.27 0.15 0.42 0.07"/><path d="m 22.95 18.89 c -0.37 -0.11 -0.53 -0.38 -0.32 -0.54 c 0.12 -0.1 0.23 -0.09 0.54 0.03 c 0.3 0.12 0.45 0.13 0.63 0.04 c 0.36 -0.55 0.57 -0.56 0.36 -1.13 c -0.46 -0.58 -0.85 -0.07 -1.38 0.05 c -0.09 -0.02 -0.32 -0.76 -0.34 -1.07 c -0.02 -0.29 0.06 -0.62 0.2 -0.92 c 0.07 -0.17 0.17 -0.06 0.3 -0.11 c 0.25 -0.11 0.46 -0.25 1.11 -0.16 c 0.32 0.04 0.65 0.22 0.68 0.24 c 0.37 0.25 0.11 0.34 -0.01 0.4 c -0.15 0.07 -0.46 0.17 -0.89 0.07 c -0.6 -0.14 -0.79 -0.34 -0.86 -0.06 c -0.08 0.32 -0.03 0.59 0.15 0.73 c 0.11 0.09 0.23 0.09 0.62 0.02 c 0.34 -0.06 0.43 -0.05 0.63 0.11 c 0.32 0.23 0.57 0.66 0.46 1.13 c -0.08 0.36 -0.3 0.69 -0.5 0.89 c -0.33 0.32 -1.03 0.39 -1.37 0.29"/><path d="m 17.32 24.76 c -0.09 -0.39 0.6 -0.36 0.77 -0.7 c 0.08 -0.17 0.1 -2.34 0.02 -2.39 c -0.31 -0.04 -0.58 0.09 -0.88 0.04 c -0.04 -0.03 -0.07 -0.08 -0.07 -0.11 c 0 -0.09 0.26 -0.27 0.65 -0.45 c 0.5 -0.23 0.76 -0.29 0.89 -0.22 c 0.1 0.05 0.11 0.05 0.06 1.13 c -0.02 0.59 -0.04 1.3 -0.03 1.57 c -0.09 0.45 0.26 0.73 0.25 1.09 c -0.03 0.05 -0.08 0.09 -0.11 0.09 c -0.54 -0.02 -1.03 0.08 -1.56 -0.04"/></g></svg>