<svg xmlns="http://www.w3.org/2000/svg" viewBox="0 0 32 32"><path d="m 30.61 10.93 c 6.21 15.93 -11.2 24.1 -22 20 c -7.56 -2.83 -11.33 -14.1 -5.96 -23.25 c 6.78 -11.52 23.2 -9.1 27.99 3.22" style="fill:#251017"/><path d="m 26.77 16.53 c 0 -6.1 -4.96 -10.96 -11.1 -10.96 c -6.12 0 -11.1 4.91 -11.1 10.96 c 0 6.1 4.96 10.96 11.1 10.96 c 6.12 0 11.1 -4.91 11.1 -10.96" style="fill:#d9a420"/><g style="fill:#251017"><path d="m 21.91 6.66 h 0.75 v 19.91 h -0.75"/><path d="m 8.2 6.82 h 0.75 v 19.91 h -0.75"/><path d="m 12.46 4.82 h 0.75 v 23.1 h -0.75"/><path d="m 17.4 4.82 h 0.75 v 23.67 h -0.75"/></g><path d="m 117.5 -142.8 c 3.47 -7.1 21.55 -37.72 24.1 -37.72 c 2.2 0 16.32 22.93 24.92 40.53 c 8.12 16.58 12.82 34.1 11.29 42.1 c -0.75 3.92 -1.66 10.96 -12.95 15.56 c -69.95 4.72 -65.5 -18.37 -47.4 -60.5" transform="matrix(0.129 0 0 0.127 -2.64 32.52)" style="fill:#fd1f31;stroke:#251017;stroke-width:4.56"/></svg>