<svg xmlns="http://www.w3.org/2000/svg" viewBox="0 0 32 32"><path d="m 25.45 3.16 c -23.59 -15.9 -38.95 34.82 -8.1 28.1 c 12.76 -2.86 20.72 -20.81 8.1 -28.1" style="fill:#4e9595"/><path d="m 18.47 13.93 c -1.58 -1.58 -2.91 -2.97 -2.95 -3.09 c -0.12 -0.31 0.24 -0.81 0.59 -0.81 c 0.56 0.17 0.89 0.52 1.34 0.9 l 0.91 -0.87 c 1.13 -1.09 3.46 -3.28 4.35 -3.28 c 1.52 0 2.63 1.11 2.63 2.61 c 0 0.98 -2.12 3.41 -3.15 4.47 l -0.9 0.93 l 0.32 0.34 c 0.5 0.53 0.62 0.84 0.48 1.21 c -0.11 0.32 -0.28 0.31 -0.54 0.39 c -0.12 0.05 -1.16 -0.91 -3.05 -2.8" style="fill:#536a6a"/><path d="m 6.78 24.88 c -0.34 -0.38 -0.22 -0.76 0.55 -1.75 c 0.34 -0.43 0.48 -0.83 0.54 -1.43 c 0.07 -0.75 0.17 -0.95 1.05 -1.94 c 1.54 -1.73 7.25 -7.32 7.47 -7.32 c 0.11 0 0.86 0.65 1.66 1.44 l 1.46 1.45 l -0.95 1.09 c -0.53 0.6 -2.41 2.48 -4.2 4.19 c -3.29 3.15 -3.53 3.32 -4.71 3.32 c -0.23 0 -0.76 0.29 -1.21 0.65 c -0.91 0.73 -1.24 0.79 -1.66 0.32" style="fill:#f4f4f4"/><path d="m 7.31 24.3 c -0.06 -0.05 0.22 -0.48 0.62 -0.95 c 0.66 -0.77 0.72 -0.92 0.72 -1.69 c 0 -0.79 0.05 -0.9 0.78 -1.66 l 0.77 -0.81 l 0.63 0.76 c 0.34 0.42 0.9 0.96 1.24 1.2 c 0.7 0.52 0.48 0.56 -0.25 1.2 c -0.75 0.64 -1 0.76 -1.81 0.86 c -0.74 0.09 -1.08 0.22 -1.58 0.65 c -0.63 0.53 -0.8 0.82 -1.11 0.44" style="fill:#788cde"/><path d="m 10.39 19.2 c 0.83 -0.84 1.67 -1.67 2.5 -2.5 c 0.75 0.75 1.51 1.5 2.27 2.25 c -0.94 0.95 -1.45 1.51 -2.45 2.52 c -0.8 -0.68 -1.55 -1.5 -2.31 -2.27" style="fill:#b2db6b"/><path d="m 13.2 16.5 c 1.03 -1.13 1.55 -1.62 2.52 -2.46 c 0.89 0.71 1.36 1.33 2.25 2.17 c -0.96 1.02 -1.56 1.53 -2.61 2.5 c -0.82 -0.71 -1.37 -1.36 -2.16 -2.21" style="fill:#f47575"/></svg>