<svg xmlns="http://www.w3.org/2000/svg" viewBox="0 0 32 32"><path d="m 28.36 8.25 c 7.28 7.39 1.95 14.21 -3.84 19.81 c -4.71 4.57 -9.1 4.78 -13.71 1.75 c -12.1 -7.9 -16.58 -18.2 2.18 -28.9 c 6.19 -2.65 11.95 2.94 15.37 7.33" style="fill:#3e3e3e"/><g style="fill:#2fc5e7"><path d="m 15.64 9 h 0.94 c 0.25 0 0.45 0.15 0.45 0.33 v 13.84 c 0 0.18 -0.2 0.33 -0.45 0.33 h -0.94 c -0.25 0 -0.45 -0.15 -0.45 -0.33 v -13.84 c 0 -0.18 0.2 -0.33 0.45 -0.33"/><path d="m 18.2 11.62 h 0.94 c 0.25 0 0.45 0.15 0.45 0.33 v 8.32 c 0 0.18 -0.2 0.34 -0.45 0.34 h -0.94 c -0.25 0 -0.45 -0.15 -0.45 -0.34 v -8.32 c 0 -0.18 0.2 -0.33 0.45 -0.33"/></g><path d="m 13.1 11.57 h 0.94 c 0.25 0 0.45 0.15 0.45 0.33 v 8.32 c 0 0.18 -0.2 0.33 -0.45 0.33 h -0.94 c -0.25 0 -0.45 -0.15 -0.45 -0.33 v -8.32 c 0 -0.18 0.2 -0.33 0.45 -0.33" style="fill:#20d7ec"/><g style="fill:#3ce6be"><path d="m 8.21 14 h 0.66 c 0.25 0 0.45 0.15 0.45 0.33 v 4.14 c 0 0.18 -0.2 0.33 -0.45 0.33 h -0.66 c -0.25 0 -0.45 -0.15 -0.45 -0.33 v -4.14 c 0 -0.18 0.2 -0.33 0.45 -0.33"/><path d="m 10.66 14.7 h 0.66 c 0.25 0 0.45 0.15 0.45 0.33 v 2.58 c 0 0.18 -0.2 0.33 -0.45 0.33 h -0.66 c -0.25 0 -0.45 -0.15 -0.45 -0.33 v -2.58 c 0 -0.18 0.2 -0.33 0.45 -0.33"/><path d="m 23.41 14.7 h 0.66 c 0.25 0 0.45 0.15 0.45 0.33 v 2.58 c 0 0.18 -0.2 0.33 -0.45 0.33 h -0.66 c -0.25 0 -0.45 -0.15 -0.45 -0.33 v -2.58 c 0 -0.18 0.2 -0.33 0.45 -0.33"/><path d="m 25.86 15.53 h 0.66 c 0.25 0 0.45 0.15 0.45 0.33 v 0.97 c 0 0.18 -0.2 0.33 -0.45 0.33 h -0.66 c -0.25 0 -0.45 -0.15 -0.45 -0.33 v -0.97 c 0 -0.18 0.2 -0.33 0.45 -0.33"/><path d="m 5.71 15.53 h 0.66 c 0.25 0 0.45 0.15 0.45 0.33 v 0.97 c 0 0.18 -0.2 0.33 -0.45 0.33 h -0.66 c -0.25 0 -0.45 -0.15 -0.45 -0.33 v -0.97 c 0 -0.18 0.2 -0.33 0.45 -0.33"/></g><path d="m 20.77 13.78 h 0.7 c 0.25 0 0.45 0.15 0.45 0.33 v 4.37 c 0 0.18 -0.2 0.33 -0.45 0.33 h -0.7 c -0.25 0 -0.45 -0.15 -0.45 -0.33 v -4.37 c 0 -0.18 0.2 -0.33 0.45 -0.33" style="fill:#2fc5e7"/></svg>