<svg xmlns="http://www.w3.org/2000/svg" xmlns:xlink="http://www.w3.org/1999/xlink" viewBox="0 0 32 32"><defs><g id="6" style="clip-path:url(#5)"><path d="m 9.4 14.39 h 2.84 c 0.79 0 0.8 -0.03 1.63 -0.52 c 0.85 -0.51 0.84 -0.52 1.96 -0.5 l 6.74 -0.04 c 0.67 -0.01 1.21 0.42 1.21 0.94 v 6.5 c 0 0.52 -0.54 0.95 -1.21 0.95 h -13.16 c -0.67 0 -1.21 -0.43 -1.21 -0.95 v -5.43 c 0.01 -0.56 0.43 -0.94 1.21 -0.95" style="fill:url(#4)"/></g><g id="C" style="clip-path:url(#B)"><path d="m 9.4 14.39 h 2.84 c 0.79 0 0.8 -0.03 1.63 -0.52 c 0.85 -0.51 0.84 -0.52 1.96 -0.5 l 6.74 -0.04 c 0.67 -0.01 1.21 0.42 1.21 0.94 v 6.5 c 0 0.52 -0.54 0.95 -1.21 0.95 h -13.16 c -0.67 0 -1.21 -0.43 -1.21 -0.95 v -5.43 c 0.01 -0.56 0.43 -0.94 1.21 -0.95" style="fill:url(#A)"/></g><clipPath id="5"><path d="M 0,0 H32 V32 H0 z"/></clipPath><clipPath id="B"><path d="M 0,0 H32 V32 H0 z"/></clipPath><filter id="2" filterUnits="objectBoundingBox" x="0" y="0" width="32" height="32"><feColorMatrix type="matrix" in="SourceGraphic" values="0 0 0 0 1 0 0 0 0 1 0 0 0 0 1 0 0 0 1 0"/></filter><linearGradient id="8" gradientUnits="userSpaceOnUse" y1="180.8" x2="0" y2="179.6" gradientTransform="matrix(0.978 0 0 0.764 -195.9 -116.4)"><stop style="stop-color:#5c268e;stop-opacity:0.25"/><stop offset="0.76" style="stop-color:#5c268e;stop-opacity:0.15"/><stop offset="1" style="stop-color:#fff;stop-opacity:0.15"/></linearGradient><linearGradient id="A" gradientUnits="userSpaceOnUse" x1="-16.1" y1="9.81" x2="10.1" y2="9.76" gradientTransform="matrix(0.59 0 0 0.461 17.76 13)"><stop style="stop-color:#000"/><stop offset="0.1" style="stop-color:#000;stop-opacity:0"/><stop offset="0.9" style="stop-color:#000;stop-opacity:0"/><stop offset="1" style="stop-color:#000"/></linearGradient><linearGradient id="1" gradientUnits="userSpaceOnUse" y1="18.88" x2="0" y2="15.27" gradientTransform="matrix(0.59 0 0 0.569 17.76 10.86)"><stop style="stop-color:#0c0413"/><stop offset="1" style="stop-color:#421a64"/></linearGradient><linearGradient id="7" gradientUnits="userSpaceOnUse" y1="179.3" x2="0" y2="178.8" gradientTransform="matrix(0.978 0 0 0.764 -195.9 -116.4)"><stop style="stop-color:#5c268e;stop-opacity:0.25"/><stop offset="1" style="stop-color:#fff;stop-opacity:0.15"/></linearGradient><linearGradient id="0" gradientUnits="userSpaceOnUse" x1="-16.18" y1="15.1" x2="-16.3" y2="-2.71" gradientTransform="matrix(0.59 0 0 0.569 17.76 10.86)"><stop style="stop-color:#5c268e"/><stop offset="1" style="stop-color:#772fb4"/></linearGradient><linearGradient id="4" gradientUnits="userSpaceOnUse" x1="-4.78" y1="17.2" x2="-4.92" y2="1.59" gradientTransform="matrix(0.59 0 0 0.461 17.76 13)"><stop style="stop-color:#5c268e"/><stop offset="1" style="stop-color:#9c5bd6"/></linearGradient><mask id="3"><g style="filter:url(#2)"><path d="M 0,0 H32 V32 H0 z" style="fill-opacity:0.7"/></g></mask><mask id="9"><g style="filter:url(#2)"><path d="M 0,0 H32 V32 H0 z" style="fill-opacity:0.3"/></g></mask></defs><path d="m 26.2 28.5 c -19.2 14.89 -39.1 -22.2 -15.36 -27.61 c 14.96 -5.56 29.58 16.57 15.36 27.61" style="fill:#9370db"/><path d="m 9.4 9.28 c -0.67 0 -1.21 0.52 -1.21 1.16 v 9.11 h 15.59 c 0.02 -0.03 0 -7.7 0 -7.93 c 0 -0.65 -0.54 -1.17 -1.21 -1.17 l -6.75 0.05 c -0.96 0 -1.14 -0.02 -1.96 -0.61 c -0.8 -0.61 -0.83 -0.64 -1.62 -0.64" style="fill:url(#0)"/><path d="m 23.77 19.58 h -15.59 v 0.85 c 0 0.65 0.54 1.17 1.21 1.17 h 13.16 c 0.67 0 1.21 -0.52 1.21 -1.17" style="fill:url(#1)"/><path d="m 21.95 11.73 v 7.44 c 0 0.14 -0.13 0.25 -0.29 0.25 h -11.49 c -0.16 0 -0.29 -0.11 -0.29 -0.25 v -7.44 c 0 -0.14 0.13 -0.25 0.29 -0.25 h 11.49 c 0.16 0 0.29 0.11 0.29 0.25" style="fill:#ff331f"/><path d="m 22.1 11.97 v 7.62 c 0 0.14 -0.13 0.25 -0.29 0.25 h -11.76 c -0.16 0 -0.29 -0.11 -0.29 -0.25 v -7.62 c 0 -0.14 0.13 -0.25 0.29 -0.25 h 11.76 c 0.16 0 0.29 0.11 0.29 0.25" style="fill:#ececec"/><path d="m 22.2 12.2 v 7.8 c 0 0.14 -0.13 0.25 -0.29 0.25 h -12 c -0.16 0 -0.29 -0.11 -0.29 -0.25 v -7.8 c 0 -0.14 0.13 -0.25 0.29 -0.25 h 12 c 0.16 0 0.29 0.11 0.29 0.25" style="fill:#70d6ff"/><path d="m 22.34 12.44 v 7.98 c 0 0.14 -0.13 0.25 -0.29 0.25 h -12.31 c -0.16 0 -0.29 -0.11 -0.29 -0.25 v -7.98 c 0 -0.14 0.13 -0.25 0.29 -0.25 h 12.31 c 0.16 0 0.29 0.11 0.29 0.25" style="fill:#ececec"/><use xlink:href="#6" style="mask:url(#3)"/><path d="m 8.12 20 h 15.58 v 0.44 h -15.58" style="fill:url(#7)"/><path d="m 8.12 20.8 c 0.04 0.5 0.57 0.88 1.2 0.87 h 13.16 c 0.64 0 1.16 -0.38 1.2 -0.87" style="fill:url(#8)"/><use xlink:href="#C" style="mask:url(#9)"/></svg>