<svg xmlns="http://www.w3.org/2000/svg" viewBox="0 0 32 32"><path d="m 16.3 31.82 c -3.3 -0.25 -7.16 -1.83 -9.85 -4 c -3.27 -2.66 -5.68 -6.75 -6.31 -10.78 c -0.77 -5.32 2.32 -11 5.81 -13.75 c 1.75 -1.32 4.07 -2.37 6.25 -2.83 c 5.66 -1.2 11.57 1.07 15.63 6 c 2.43 2.95 3.68 5.93 3.99 9.45 c 0.37 4.22 -1.3 8.75 -4.35 11.8 c -3.47 2.88 -7 4.43 -11.15 4.14" style="fill:#f4f4f4"/><path d="m 13.58 25.5 c -1.84 -0.46 -4 -1.98 -5.31 -3.72 c -0.75 -1 -1.49 -3.64 -1.49 -5.43 c 0.3 -2.79 0.91 -4.57 2.64 -6.57 c 0.53 -0.61 2.25 -1.71 3.25 -2.06 c 2.69 -0.95 5.98 -0.58 8.15 0.92 c 1.81 1.25 3.16 3 3.85 5 c 0.47 1.38 0.43 4.34 -0.08 5.79 c -0.46 1.32 -1.63 3 -2.75 4 c -1.02 0.9 -2.93 1.88 -4.14 2.11 c -1.19 0.23 -3 0.19 -4.12 -0.09 m 3.35 -1 c 0.38 -0.14 0.39 -6.36 0.02 -6.68 c -0.57 -0.48 -0.09 -1.66 0.68 -1.66 c 0.42 0 1.04 0.53 1.04 0.89 c 0 0.13 -0.11 0.5 -0.25 0.82 c -0.19 0.45 -0.24 1.22 -0.23 3.13 c 0.01 1.39 0.06 2.68 0.12 2.87 c 0.11 0.34 0.11 0.34 0.8 0.04 l 0.7 -0.31 v -7.1 h 4.12 l -0.11 -0.79 c -0.21 -1.62 -0.73 -3.1 -1.36 -3.88 c -0.73 -0.91 -1.4 -1.62 -1.53 -1.62 c -0.08 0 -0.14 0.89 -0.14 1.98 v 1.98 h -8.56 l 0.04 1.2 c 0.02 0.66 0.02 1.29 0.01 1.4 c -0.02 0.3 -0.64 0.57 -1 0.46 c -0.54 -0.17 -0.93 -0.74 -0.39 -1.49 c 0.13 -0.18 0.24 -1.19 0.24 -1.68 v -0.88 h 8.7 c 0 -1.3 0 -2.61 0 -3.91 l -1.11 -0.4 c -0.93 -0.34 -1.36 -0.66 -2.87 -0.65 c -1.81 0.01 -2.51 0.4 -3.95 1.09 c -0.33 0.16 -0.61 0.39 -0.61 0.51 c 0 0.33 4.71 0.3 5.16 -0.04 c 0.44 -0.34 0.75 -0.3 1.19 0.12 c 0.47 0.45 0.48 0.85 0.02 1.29 c -0.43 0.4 -0.88 0.43 -1.22 0.09 c -0.2 -0.2 -0.83 -0.25 -3.51 -0.25 h -3.27 l -0.25 0.49 c -0.21 0.4 -0.25 1.28 -0.25 5 v 4.53 c 0.57 0.88 1.19 1.63 1.99 2.04 c 0.08 0 0.14 -1.11 0.14 -2.47 v -2.47 l 1.43 -0.07 c 0.79 -0.04 1.46 0.04 1.98 -0.2 c 0.88 -0.41 1.55 0.73 0.91 1.44 c -0.3 0.33 -1.04 0.4 -1.31 0.13 c -0.09 -0.1 -0.59 -0.22 -1.1 -0.27 l -0.93 -0.09 v 4.69 l 0.57 0.24 c 1.02 0.43 3.47 0.71 4.09 0.47 m 4.98 -2.75 c 0.93 -1.18 1.28 -1.81 1.61 -2.91 c 0.36 -1.21 0.4 -1.18 -1.24 -1.18 h -1.48 v 2.57 c 0 1.44 0.07 2.56 0.15 2.56 c 0.08 0 0.52 -0.46 0.96 -1.04 m -13.75 -5.38 c 0 -1.32 0.11 -2.73 0.01 -2.55 c -0.77 1.36 -0.59 4.75 -0.06 5.14 c 0.02 0.02 0.05 -1.52 0.05 -2.59"/></svg>