<svg xmlns="http://www.w3.org/2000/svg" viewBox="0 0 32 32"><path d="m 2.33 7.77 c 24.2 -28.2 47.4 29.75 10 23.8 c -8.2 -1.3 -16.55 -16.21 -10 -23.8" style="fill:#c9c8c8"/><path d="m 9.22 21.96 h 16.65 v 1.49 h -16.65" style="fill:#536fff"/><path d="m 9.11 24.33 c -0.34 -0.08 -0.46 -0.17 -0.61 -0.44 c -0.17 -0.32 -0.18 -0.72 -0.13 -5.8 c 0.11 -9.78 0.09 -9.42 0.28 -9.6 c 0.23 -0.22 0.79 -0.21 0.96 0.02 c 0.13 0.17 0.19 4.34 0.19 13.16 v 1.38 l 7.93 0.02 c 5.65 0.02 7.97 0.06 8.1 0.14 c 0.07 0.06 0.14 0.61 0.14 0.82 c 0 0.72 0.48 0.35 -8.45 0.37 c -5 0.02 -8.12 -0.01 -8.39 -0.07 m 9.44 -3.11 c -0.18 -0.17 -0.02 -1.34 -0.02 -1.34 c 1.59 0.16 3.05 -0.09 5.96 0.05 c 0.19 0.18 0.21 1.04 0.05 1.32 c -1.6 -0.1 -3.49 0.11 -6 -0.04 m -4.3 -0.61 c -0.08 -0.49 -0.08 -0.88 -0.11 -1.39 l -0.46 -0.07 c -0.71 -0.11 -1.47 -0.43 -1.7 -0.71 c -0.16 -0.21 -0.18 -0.32 -0.1 -0.63 c 0.11 -0.44 0.17 -0.44 1.28 -0.08 c 0.42 0.14 0.83 0.23 0.9 0.21 c 0.18 -0.07 0.19 -1.95 0 -2.1 c -0.07 -0.05 -0.29 -0.13 -0.49 -0.17 c -0.52 -0.11 -1.1 -0.48 -1.41 -0.93 c -0.37 -0.67 -0.34 -1.54 0.1 -2.1 c 0.32 -0.39 0.96 -0.75 1.51 -0.84 c 0.34 -0.05 0.36 -0.09 0.39 -0.45 c 0.05 -0.77 0.1 -0.85 0.46 -0.82 c 0.32 0.03 0.33 0.05 0.36 0.52 c 0.02 0.27 0.08 0.54 0.13 0.6 c 0.5 0.23 1.03 0.12 1.56 0.32 c 0.37 0.25 0.44 0.8 0.15 1.13 c -0.07 0.03 -0.45 -0.02 -0.82 -0.1 c -0.93 -0.2 -1 -0.16 -1 0.57 c 0 0.77 0.11 0.95 0.61 1.03 c 0.65 0.11 1.56 0.72 1.83 1.25 c 0.3 0.59 0.32 1.5 0.03 2.04 c -0.32 0.59 -1.14 1.12 -1.95 1.24 l -0.42 0.07 c -0.05 0.43 0.11 1.05 -0.13 1.43 c -0.2 0.07 -0.66 0.18 -0.75 -0.01 m 1.62 -3.09 c 0.29 -0.24 0.31 -0.48 0.09 -0.88 c -0.22 -0.41 -0.68 -0.71 -0.84 -0.56 c -0.1 0.61 -0.02 1.09 0.03 1.73 c 0.25 -0.05 0.52 -0.12 0.71 -0.28 m -1.69 -3.86 c 0.04 -0.62 -0.03 -0.71 -0.38 -0.52 c -0.61 0.32 -0.65 0.46 -0.12 0.89 c 0.36 0.29 0.45 0.22 0.49 -0.37"/></svg>