<svg xmlns="http://www.w3.org/2000/svg" viewBox="0 0 32 32"><path d="m 3.98 7.82 c 26.34 -28.34 42.94 30.1 7.97 23.7 c -9.23 -3.18 -16.42 -14.6 -7.97 -23.7" style="fill:#edd1eb"/><path d="m 18 26.34 c -1.09 -0.26 -2.38 -1.02 -2.65 -1.56 c -0.13 -0.26 -0.16 -0.51 -0.19 -1.76 c -0.04 -1.12 -0.07 -1.47 -0.14 -1.5 c -0.05 -0.02 -0.23 0.07 -0.39 0.2 c -1.21 1.04 -2.17 1.62 -2.8 1.68 c -0.31 0.03 -0.44 -0.01 -0.94 -0.28 c -0.76 -0.61 -3.44 -0.76 -3.44 -1.7 c 0.26 -0.88 0.78 -1.87 1.32 -2.65 c 0.24 -0.34 0.73 -0.93 1.1 -1.32 c 0.37 -0.39 1.33 -0.56 1.33 -0.62 c 0 -0.06 -0.82 -0.43 -1.02 -0.58 c -0.49 -0.36 -1.1 -1.04 -1.28 -1.4 c -0.18 -0.36 -0.35 -1.13 -0.29 -1.32 c 0.1 -0.32 0.27 -1.79 0.27 -2.25 c 0 -0.41 0.03 -0.56 0.16 -0.72 c 0.15 -0.2 0.17 -0.2 1.07 -0.2 c 0.87 0.01 1.8 -0.15 2.62 -0.16 c 0.99 -0.01 1.25 0.11 1.97 0.87 c 0.28 0.3 0.77 0.91 0.82 0.89 c 0.04 -0.03 -0.16 -0.56 -0.16 -0.7 c 0 -0.14 0.07 -0.59 0.16 -1.01 c 0.34 -1.64 0.63 -1.86 3.65 -2.77 c 0.39 -0.09 0.64 -0.38 0.94 -0.57 c 0.11 0 0.92 0.9 1.27 1.41 c 0.73 1.07 1.29 2.47 1.18 3 c -0.07 0.32 -0.5 1.27 -0.79 1.77 c -0.31 0.51 -0.25 0.56 0.52 0.44 c 0.77 -0.13 1.21 -0.04 2.16 0.43 c 0.55 0.27 0.77 0.44 1.14 0.84 c 0.52 0.56 1.15 1.65 1.15 1.96 c 0 0.34 -0.32 0.92 -1.09 1.98 c -1.04 1.44 -1.14 1.55 -1.64 1.72 c -0.79 0.26 -1.98 0.27 -3.1 0.03 c -0.29 -0.06 -0.27 0.11 0.05 0.57 c 0.38 0.53 0.72 1.32 0.72 1.64 c 0 0.19 -0.09 0.42 -0.3 0.75 c -0.65 0.92 -0.78 2.18 -1.63 2.92 c -0.24 0.2 -0.36 0.25 -0.63 0.24 c -0.39 0 -0.79 -0.14 -1.13 -0.22" style="fill:#ec8db8"/></svg>