<svg xmlns="http://www.w3.org/2000/svg" viewBox="0 0 32 32"><path d="m 31.86 15.52 c -0.49 11.38 -8.2 19.95 -18.89 15.21 c -7.34 -3.24 -14.31 -6.81 -12.56 -15.21 c 1.75 -8.4 10.21 -15.21 18.89 -15.21 c 8.69 0 12.93 6.91 12.56 15.21" style="fill:#8b276f"/><path d="m 12.66 24.1 c -0.59 -0.34 -3.79 -3.91 -5.13 -5.71 c -0.42 -0.57 -0.46 -0.66 -0.46 -1 c 0 -0.23 0.05 -0.47 0.13 -0.6 c 0.07 -0.12 1.77 -2 3.78 -4.2 c 2.52 -2.75 3.73 -4 3.93 -4.11 c 0.25 -0.11 0.66 -0.12 3.27 -0.07 c 1.64 0.04 3.07 0.09 3.18 0.14 c 0.11 0.04 1.13 1.1 2.28 2.35 c 1.71 1.86 2.11 2.33 2.17 2.6 c 0.13 0.48 0.11 2.76 -0.02 3.09 c -0.22 0.57 -0.84 0.8 -1.34 0.48 c -0.22 -0.14 -0.45 -0.55 -0.45 -0.79 c 0 -0.3 -0.22 -0.32 -3.66 -0.26 c -1.84 0.04 -3.54 0.04 -3.79 0 c -0.86 -0.12 -1.21 -0.89 -0.75 -1.64 c 0.37 -0.59 1.79 -2.24 2 -2.34 c 0.48 -0.22 1.02 -0.02 1.22 0.45 c 0.17 0.39 0.16 0.59 -0.07 1.02 c -0.16 0.3 -0.18 0.38 -0.09 0.44 c 0.12 0.08 4.37 0.1 4.55 0.02 c 0.07 -0.03 0.12 -0.09 0.12 -0.15 c 0 -0.05 -0.67 -0.82 -1.5 -1.71 l -1.5 -1.62 h -4.98 l -3.12 3.38 c -2.07 2.25 -3.12 3.43 -3.12 3.54 c 0 0.23 1.25 1.72 2.82 3.38 l 1.27 1.33 h 4.55 l 0.86 -0.92 c 0.47 -0.5 0.86 -0.96 0.86 -1.02 c 0 -0.08 -0.67 -0.11 -3.21 -0.13 l -3.22 -0.02 l -0.27 -0.32 c -0.25 -0.29 -0.26 -0.35 -0.23 -0.72 c 0.04 -0.48 0.26 -0.77 0.66 -0.89 c 0.18 -0.05 1.82 -0.08 4.75 -0.06 l 4.48 0.03 l 0.26 0.3 c 0.32 0.38 0.36 0.86 0.09 1.27 c -0.22 0.34 -3.98 4.3 -4.22 4.44 c -0.14 0.08 -0.86 0.12 -3 0.14 c -2.66 0.03 -2.85 0.02 -3.1 -0.12" style="fill:#fff"/></svg>