<svg xmlns="http://www.w3.org/2000/svg" viewBox="0 0 32 32"><path d="m 14.93 31.82 c -3.28 -0.25 -7 -1.83 -9.5 -4 c -3.05 -2.66 -5.09 -6.75 -5.38 -10.78 c -0.3 -5.32 3.28 -11 7 -13.75 c 1.86 -1.32 4.28 -2.37 6.49 -2.83 c 5.77 -1.2 11.48 1.07 15.1 6 c 2.17 2.95 3.17 5.93 3.18 9.45 c 0 4.22 -2.06 8.75 -5.37 11.8 c -3.71 2.88 -7.42 4.43 -11.51 4.14" style="fill:#546a2f"/><path d="m 15.27 25.76 c -3.56 -0.62 -6.09 -2.46 -7.48 -5.44 c -2 -4.32 -0.41 -9.45 3.68 -11.84 l 0.99 -0.58 c 0.99 -0.21 2.48 0.52 1.29 1 c -1.09 0.35 -2.18 1.04 -3.13 1.98 c -0.8 0.8 -1.03 1.11 -1.45 1.98 c -0.6 1.25 -0.85 2.3 -0.84 3.59 c 0 1.33 0.23 2.33 0.81 3.5 c 0.8 1.61 1.88 2.71 3.48 3.54 c 1.14 0.59 2.17 0.83 3.57 0.82 c 3.6 -0.02 6.64 -2.36 7.55 -5.82 c 0.29 -1.1 0.31 -2.85 0.05 -3.93 c -0.6 -2.5 -2.77 -4.92 -5 -5.57 c -1.25 -0.96 0.67 -1.31 1.71 -0.74 c 4.7 2.61 6.34 8.28 3.7 12.79 c -0.61 1.05 -2 2.54 -3 3.2 c -1.71 0.82 -4.18 1.78 -5.95 1.52" style="fill:#ede7aa"/><path d="m 15.1 24.78 c -0.43 -0.16 -1.34 -1.11 -1.71 -1.77 c -0.39 -0.44 -0.7 -2.16 -1.27 -2.18 c -0.3 0 -0.84 0.27 -1.54 0.75 c -0.61 0.43 -0.92 0.46 -1.15 0.11 c -0.16 -0.23 -0.16 -0.27 0 -0.5 c 0.09 -0.14 0.64 -0.5 1.23 -0.81 c 1.52 -0.81 1.41 -0.63 1.3 -1.93 c -0.05 -0.61 -0.13 -1.16 -0.19 -1.22 c -0.06 -0.06 -0.93 -0.13 -2.08 -0.16 c -2.06 -0.05 -2.17 -0.08 -2.17 -0.52 c 0 -0.49 0 -0.49 2.19 -0.49 h 2.06 c 0.04 -0.78 0.37 -1.71 0.13 -2.46 c -0.43 -0.67 -2.55 -1.25 -2.61 -1.93 c 0 -0.2 0.34 -0.48 0.59 -0.48 c 0.11 0 0.59 0.25 1.06 0.56 c 0.9 0.59 1.19 0.67 1.34 0.38 c 0.33 -1.02 0.2 -2.11 0.7 -3.1 c 0.4 -0.76 0.33 -0.99 -0.33 -1.13 c -0.64 -0.13 -0.92 -0.75 -0.55 -1.2 c 0.16 -0.2 0.31 -0.27 0.55 -0.27 c 0.46 0 0.57 0.09 0.79 0.67 c 0.11 0.27 0.26 0.51 0.35 0.53 c 0.09 0.02 0.41 -0.09 0.71 -0.25 c 0.45 -0.23 0.72 -0.29 1.49 -0.32 c 0.89 -0.04 0.96 -0.03 1.54 0.28 c 0.76 0.4 1.01 0.38 1.13 -0.1 c 0.21 -0.8 0.98 -1.09 1.43 -0.54 c 0.38 0.47 0.11 1.02 -0.6 1.23 c -0.21 0.06 -0.48 0.18 -0.58 0.26 c -0.19 0.14 -0.18 0.16 0.12 0.63 c 0.37 0.57 0.49 0.98 0.63 2.19 c 0.11 0.94 0.24 1.29 0.46 1.29 c 0.45 -0.07 2.65 -1.94 2.77 -0.58 c 0 0.21 -0.66 0.66 -1.66 1.14 l -1.07 0.51 c 0.15 0.8 -0.07 1.78 0.25 2.54 c 0.85 0.23 3.79 -0.08 4.12 0.32 c 0.12 0.16 0.09 0.6 -0.05 0.74 c -1.46 0.11 -2.57 0.11 -4.13 0.15 c -0.02 0.8 -0.33 1.63 -0.23 2.43 c 0.03 0.07 0.6 0.43 1.27 0.78 c 1.31 0.7 1.59 0.95 1.4 1.3 c -0.2 0.37 -0.54 0.36 -1.16 -0.02 c -0.77 -0.48 -1.4 -0.78 -1.62 -0.78 c -0.13 0 -0.37 0.38 -0.87 1.39 c -1.02 2.06 -1.72 2.66 -3.1 2.65 c -0.37 0 -0.79 -0.05 -0.93 -0.11 m 0.36 -4.61 c -0.53 -0.01 -1.74 -0.13 -1.99 0.32 c -0.23 0.59 1.38 3.41 1.86 3.26 c 0.39 -1.13 0.2 -2.52 0.14 -3.58 m 1.78 3.36 c 0.33 -0.46 1.96 -2.71 1.34 -3.16 c -0.1 -0.07 -0.53 -0.16 -0.96 -0.2 c -1.1 -0.1 -1.08 -0.13 -1.08 1.82 c 0 0.88 0.03 1.64 0.07 1.69 c 0.1 0.16 0.33 0.11 0.64 -0.14 m 1.68 -4.21 c 0.32 -0.2 0.46 -2.07 0.16 -2.18 c -0.21 -0.08 -2 -0.08 -2.3 0 c -0.13 0.49 -0.11 1.7 0.04 1.97 c 0.23 0.08 1.24 0.24 1.8 0.29 c 0.09 0.01 0.22 -0.03 0.3 -0.08 m -3.5 -0.33 c 0.12 -0.67 0.09 -1.2 0.09 -1.91 h -2.63 l 0.06 0.94 c 0.08 1.31 0.07 1.29 0.89 1.29 c 0.56 -0.07 1.14 0.04 1.59 -0.32 m -0.03 -2.97 c 0.05 -0.06 0.13 -0.45 0.17 -0.88 c 0.09 -0.97 -0.04 -1.14 -0.95 -1.24 c -0.41 0.02 -1.19 -0.32 -1.52 -0.02 c -0.19 0.18 -0.32 1.2 -0.23 1.77 c 0.05 0.34 0.11 0.42 0.34 0.46 c 0.49 0.08 2.08 0.02 2.18 -0.09 m 3.78 -0.04 c 0.19 -0.19 0.13 -1.68 -0.08 -2 c -0.19 -0.28 -0.12 -0.28 -1.74 -0.02 c -0.8 0.13 -0.82 0.16 -0.82 1.1 c 0 0.78 0.07 0.98 0.36 1.04 c 0.43 0.09 2.16 0 2.29 -0.13 m -3.83 -3 c 0.14 -0.05 0.16 -0.27 0.16 -1.33 v -1.27 l -0.34 0.06 c -0.53 0.1 -1.14 0.58 -1.51 1.18 c -0.35 0.57 -0.43 1.05 -0.21 1.18 c 0.24 0.15 1.62 0.28 1.89 0.18 m 3.21 -0.15 c 0.35 -0.16 0.35 -0.41 0.01 -1.09 c -0.3 -0.58 -0.84 -1.07 -1.38 -1.25 c -0.57 -0.18 -0.65 -0.02 -0.65 1.26 c 0 0.6 0.03 1.14 0.07 1.2 c 0.09 0.14 1.55 0.04 1.95 -0.13 m -3.57 -3.19 c 0.71 -0.19 1.34 -0.19 2.13 0 c 1.21 0.29 1.35 0.15 0.75 -0.72 c -0.41 -0.59 -0.82 -0.84 -1.51 -0.92 c -1.05 -0.12 -1.71 0.21 -2.27 1.15 c -0.3 0.51 -0.27 0.8 0.09 0.7 c 0.28 -0.08 0.55 -0.15 0.8 -0.21" style="fill:#ff4500"/></svg>