<svg xmlns="http://www.w3.org/2000/svg" viewBox="0 0 32 32"><path d="m 16.1 0.13 c 21.56 -2.42 21.26 32.3 -0.38 31.85 c -20.1 1.14 -21.95 -33.74 0.38 -31.85" style="fill:#6f6063"/><path d="m 7.24 8.59 h 2.48 c 0.04 0 0.07 0.04 0.07 0.08 v 14.46 c 0 0.04 -0.03 0.08 -0.07 0.08 h -2.48 c -0.04 0 -0.07 -0.04 -0.07 -0.08 v -14.46 c 0 -0.04 0.03 -0.08 0.07 -0.08" style="fill:#8eb7f1"/><path d="m 10 8.49 h 2.48 c 0.04 0 0.07 0.04 0.07 0.08 v 14.58 c 0 0.04 -0.03 0.08 -0.07 0.08 h -2.48 c -0.04 0 -0.07 -0.04 -0.07 -0.08 v -14.58 c 0 -0.04 0.03 -0.08 0.07 -0.08" style="fill:#7fe0b0"/><path d="m 12.81 8.4 h 2.48 c 0.04 0 0.07 0.04 0.07 0.08 v 14.66 c 0 0.04 -0.03 0.08 -0.07 0.08 h -2.48 c -0.04 0 -0.07 -0.04 -0.07 -0.08 v -14.66 c 0 -0.04 0.03 -0.08 0.07 -0.08" style="fill:#f4ec88"/><path d="m 15.59 8.25 h 2.48 c 0.04 0 0.07 0.04 0.07 0.08 v 14.78 c 0 0.04 -0.03 0.08 -0.07 0.08 h -2.48 c -0.04 0 -0.07 -0.04 -0.07 -0.08 v -14.78 c 0 -0.04 0.03 -0.08 0.07 -0.08" style="fill:#f49ea2"/><path d="m 18.34 8.36 h 6.27 c 0.04 0 0.07 0.04 0.07 0.08 v 14.7 c 0 0.05 -0.03 0.08 -0.07 0.08 h -6.27 c -0.04 0 -0.07 -0.04 -0.07 -0.08 v -14.7 c 0 -0.04 0.03 -0.08 0.07 -0.08" style="fill:#fff"/><path d="m 24.62 8.3 v 2.77 c 0 0.04 -0.04 0.07 -0.08 0.07 h -17.29 c -0.04 0 -0.08 -0.03 -0.08 -0.07 v -2.77 c 0 -0.04 0.04 -0.07 0.08 -0.07 h 17.29 c 0.04 0 0.08 0.03 0.08 0.07" style="fill:#d0d0d0"/><path d="m 23.77 9.75 c 0 0.5 -0.42 0.91 -0.93 0.91 c -0.52 0 -0.93 -0.41 -0.93 -0.91 c 0 -0.51 0.42 -0.92 0.93 -0.92 c 0.52 0 0.93 0.41 0.93 0.92" style="fill:#929292"/></svg>