<svg xmlns="http://www.w3.org/2000/svg" viewBox="0 0 32 32"><path d="m 28.39 5.9 c 7.81 11.86 1.5 22.67 -7.34 25.2 c -11.9 3.45 -28.1 -5.62 -17.41 -24.29 c 4.23 -7.43 19.2 -9.39 24.75 -0.94" style="fill:#d0ede4"/><path d="m 10.67 13.52 c -0.17 -1.33 -0.11 -2.34 -0.11 -3.75 l 0.5 -0.68 c 0.6 -0.81 1.13 -1.3 1.73 -1.62 c 0.41 -0.21 0.66 -0.23 3.27 -0.23 c 2.52 0 2.88 0.02 3.29 0.21 c 0.63 0.29 1.34 0.96 1.82 1.72 l 0.4 0.63 c 0 1.29 0 2.59 0 3.88 c -0.39 0.23 -1.46 0.27 -1.91 -0.07 c -0.11 -0.1 -0.16 -0.41 -0.16 -1.07 c 0 -1.38 -0.23 -2.05 -0.96 -2.77 l -0.61 -0.6 c -1.23 0 -2.47 0 -3.7 0 l -0.57 0.54 c -0.74 0.7 -0.88 1.08 -0.99 2.56 c -0.05 0.68 -0.12 1.28 -0.16 1.34 c -0.41 0.14 -1.65 0.2 -1.84 -0.1" style="fill:#ed6b2f"/><path d="m 11.1 25.1 c -1.44 0.11 -1.28 -0.34 -1.89 -0.88 v -4.33 v -4.34 c 0.18 -0.51 0.36 -0.7 0.88 -0.88 h 12.43 c 0.31 0.12 0.65 0.25 0.81 0.95 c 0.13 0.32 0.12 1.34 -0.01 1.46 c -0.6 0.21 -1.15 0.02 -1.8 0.18 c -0.46 0.13 -0.59 0.48 -0.29 0.93 c 0.12 0.17 0.48 0.16 1.37 0.21 c 1 0.06 0.77 0.31 0.82 0.97 c 0.06 0.73 -0.16 0.49 -1.17 0.54 c -1.15 0.05 -1.25 -0.09 -1.25 0.6 c -0.06 0.76 0.48 0.49 1.34 0.54 c 0.95 -0.09 0.95 0.18 0.98 0.64 c 0.01 0.16 0.08 0.7 -0.32 0.74 c -0.25 0.03 -0.79 -0.05 -1.05 -0.05 c -0.85 0 -1.1 -0.1 -0.95 0.7 c 0.11 0.58 0.33 0.4 1.44 0.46 c 0.97 0.06 0.82 -0.05 0.9 0.53 c 0.02 0.15 -0.13 0.34 -0.43 0.6 c -0.46 0.57 -1.1 0.42 -1.8 0.45 c -1.32 0.05 -8.1 0.05 -10 -0.01 m 5.73 -2.39 c 0.32 -0.16 0.38 -0.59 0.38 -0.95 c 0 -0.2 -0.02 -0.77 0.2 -1.19 c 0.31 -0.6 0.72 -0.54 0.72 -1.11 c 0 -0.67 -0.05 -0.8 -0.55 -1.32 c -0.39 -0.4 -0.66 -0.52 -1.27 -0.52 c -0.61 0 -0.78 0.07 -1.24 0.49 c -0.49 0.45 -0.6 0.71 -0.61 1.44 c 0 0.59 0.55 0.68 0.84 1.14 c 0.21 0.32 0.11 0.87 0.15 1.16 c 0.07 0.5 0.02 0.71 0.34 0.87 c 0.27 0.13 0.76 0.13 1.04 0" style="fill:#53c1f1"/></svg>