<svg xmlns="http://www.w3.org/2000/svg" viewBox="0 0 32 32"><g style="fill:#2f4e4e"><path d="M 4.148438 25.351562 C -8.414062 11.960938 12.210938 -8.0625 26.125 3.738281 C 41.710938 16.675781 21.554688 42.023438 5.835938 27.625 C 4.921875 26.335938 4.714844 26.113281 4.15625 25.363281 "/><path d="M 114.997709 427.399227 C 114.997709 430.160185 108.279252 432.400686 100.002034 432.400686 C 91.724815 432.400686 84.996492 430.160185 84.996492 427.399227 L 84.996492 447.398719 C 84.996492 450.159677 91.724815 452.400179 100.002034 452.400179 C 108.279252 452.400179 114.997709 450.159677 114.997709 447.398719 Z M 114.997709 427.399227 " transform="matrix(0.396 0 0 0.615 -23.65 -254.2)" style="stroke:#fff;stroke-linejoin:round;stroke-width:2"/></g><path d="M 14.574219 10.492188 C 13.152344 10.296875 12.09375 9.882812 11.714844 9.371094 C 11.5625 9.167969 11.523438 9.011719 11.558594 8.792969 C 11.636719 8.347656 12.269531 7.910156 13.296875 7.609375 C 15.097656 7.074219 17.941406 7.183594 19.417969 7.84375 C 20.054688 8.125 20.355469 8.382812 20.46875 8.734375 C 20.535156 8.945312 20.535156 8.957031 20.445312 9.171875 C 20.296875 9.535156 19.988281 9.769531 19.289062 10.050781 C 18.382812 10.414062 17.351562 10.574219 15.953125 10.566406 C 15.441406 10.566406 14.824219 10.535156 14.574219 10.496094 Z M 14.574219 10.492188 " style="fill:#fff"/><g transform="matrix(0.332 0 0 0.354 -23.2 -75.7)" style="fill:none;stroke:#fff"><g style="stroke-linecap:round;stroke-width:1.51"><path d="M 110.102384 253.894787 L 125.690213 253.894787 L 125.690213 270.853379 L 110.102384 270.853379 Z M 110.102384 253.894787 "/><path d="M 114.005219 257.301942 L 121.458223 257.301942 L 121.458223 266.927983 L 114.005219 266.927983 Z M 114.005219 257.301942 "/><path d="M 105.905661 251.502059 L 130.004492 251.502059 L 130.004492 274.602353 L 105.905661 274.602353 Z M 105.905661 251.502059 "/></g><path d="M 101.802982 278.395432 L 114.005219 266.872851 "/></g></svg>