<svg xmlns="http://www.w3.org/2000/svg" viewBox="0 0 32 32"><path d="m 27.94 27.2 c 18.3 -28.2 -31.69 -39.1 -27.7 -10.1 c 1.62 11.82 20.7 20.88 27.7 10.1" style="fill:#edc8d7"/><g style="fill:#d5004c;fill-opacity:0.97"><path d="m 15.68 28.88 c -2.97 -0.38 -6.29 -3.34 -7.68 -6.85 c -0.59 -1.48 -0.7 -2.27 -0.71 -4.93 c -0.4 -1.62 -1.07 -1.47 0.38 -3.39 c 0.35 -0.46 0.57 -1.24 0.79 -1.57 c 0.65 -0.96 0.65 -0.95 -0.42 -2.13 c -0.71 -0.78 -1.06 -1.29 -1.43 -2.04 c -0.39 -0.81 -0.61 -1.5 -0.46 -1.5 c 0.02 0 0.52 0.48 1.12 1.06 c 1 0.96 1.18 1.09 2 1.42 c 0.51 0.2 0.99 0.36 1.07 0.36 c 0.08 0 0.6 -0.28 1.14 -0.61 c 0.55 -0.34 1.3 -1.29 1.75 -1.51 c 0.81 -0.4 0.89 0.1 2.13 0.12 c 1.72 0.03 2.75 0.18 3.62 0.51 c 1.03 0.25 1.99 -0.27 2.87 1.15 c 0.35 0.24 0.74 0.44 0.86 0.44 c 0.4 0 1.63 -0.49 2.18 -0.87 c 0.3 -0.2 0.9 -0.66 1.34 -1.02 c 0.44 -0.36 0.82 -0.62 0.86 -0.58 c 0.1 0.1 -0.63 1.43 -1.14 2.09 c -0.59 0.82 -1.48 1.26 -2.1 2.02 c 0 0.05 0.07 0.28 0.16 0.5 c 0.22 0.66 0.78 1.24 0.46 2.61 c 0.03 0.15 -0.42 -0.34 -0.42 -1.03 c 0 -0.42 -0.42 -0.68 -0.49 -0.68 c -0.18 0 -0.18 0.06 0.04 0.4 c 0.12 0.18 0.22 0.67 0.28 1.33 c 0.14 1.53 0.13 1.77 -0.13 2.33 c -0.3 0.69 -0.48 1.48 -0.96 2.07 c -0.61 0.91 -1.55 1.65 -2.48 2.11 c -0.48 0.23 -1.1 0.42 -1.69 0.51 c -1.81 0.17 -2.38 0.18 -3.96 -0.8 c -0.53 -0.33 -1.48 -1.27 -1.48 -1.43 c 0 -0.13 0.61 0.2 0.67 0.32 c 0.02 0.05 0.25 0.22 0.5 0.38 c 0.58 0.38 0.65 0.13 0.09 -0.3 c -0.33 -0.25 -0.4 -0.4 -0.61 -1.29 c -0.29 -1.21 -0.23 -1.82 0.23 -2.8 c 0.71 -1.51 1.56 -2.17 2.88 -2.25 c 0.71 -0.05 0.88 -0.02 1.39 0.23 c 0.32 0.16 0.68 0.39 0.79 0.52 c 0.21 0.23 0.21 0.23 -0.06 0.15 c -0.15 -0.04 -0.56 -0.15 -0.92 -0.23 c -1.1 -0.25 -2.17 0.08 -2.91 0.9 c -0.58 0.64 -0.78 1.28 -0.72 2.25 c 0.14 2.27 2.18 3.91 4.29 3.46 c 0.99 -0.21 2.88 -1.46 2.88 -1.91 c 0 -0.07 0.13 -0.32 0.3 -0.56 c 0.3 -0.43 0.3 -0.45 0.3 -2.29 c 0 -1.68 -0.02 -1.91 -0.25 -2.5 c -0.57 -1.48 -1.69 -2.73 -2.9 -3.27 c -1.55 -0.69 -4.09 -0.64 -5.14 0.09 c -0.23 0.16 -0.48 1.05 -0.8 1.15 c -1.45 -0.27 -0.3 -0.53 -1.6 0.27 c -1.02 0.62 -1.92 1.62 -2.32 2.57 c -0.46 1.1 -0.62 1.73 -0.72 2.88 c -0.1 1.13 -0.02 2.16 0.24 3.32 c 0.16 0.71 0.63 0.5 1.03 0.88 c 0.51 0.48 0.38 1.25 0.27 1.41 c -0.11 0.18 0.48 1.58 0.96 2.31 c 0.82 1.07 1.88 2.3 3 2.87 c 0.97 0.72 1.61 0.79 2.61 1.15 c 0.35 0.15 0.06 0.25 -0.16 0.29 c -0.06 0 -0.45 -0.05 -0.85 -0.11"/><path d="m 17.2 18.75 c -0.28 -0.1 -0.32 -0.32 -0.07 -0.41 c 0.25 -0.08 1.32 -0.07 1.38 0.02 c 0.03 0.04 -0.02 0.17 -0.11 0.28 c -0.18 0.22 -0.74 0.27 -1.2 0.11"/><path d="m 18.98 18.1 c -0.23 -0.34 0.5 -1.13 0.79 -0.84 c 0.13 0.13 -0.01 0.72 -0.2 0.9 c -0.16 0.16 -0.47 0.13 -0.59 -0.06"/><path d="m 19.8 16.39 c -0.09 -0.35 0.08 -0.98 0.29 -0.98 c 0.18 0 0.25 0.82 0.15 1.08 c -0.1 0.27 -0.36 0.21 -0.44 -0.1"/></g></svg>