<svg xmlns="http://www.w3.org/2000/svg" viewBox="0 0 32 32"><path d="m 26.58 26 c -13.1 16.9 -36.61 -5.87 -21.56 -20.82 c 12.95 -14.99 38.1 6.43 21.56 20.82" style="fill:#2c2c2c"/><path d="m 9 23.34 c -0.02 -0.04 0.02 -0.15 0.08 -0.26 c 1.46 -1.94 3.68 -5.27 4.55 -7.1 c -0.03 -0.13 -0.36 -0.84 -0.73 -1.59 c -2.09 -4.21 -2.11 -4.23 -2.05 -4.43 c 0.03 -0.1 0.07 -0.12 0.25 -0.14 c 0.31 -0.04 1.82 -0.04 2.91 0.02 c 0.8 0.04 0.95 0.05 1.02 0.12 c 0.3 0.43 1.05 2.32 1.31 2.33 c 0.08 0 0.36 -0.35 0.92 -1.14 c 0.65 -0.91 0.84 -1.41 0.97 -1.46 c 0.52 -0.02 1.21 -0.06 1.77 0.03 c -0.16 0.93 -0.4 2.52 -0.58 3.71 c -0.04 0.08 -0.44 0.63 -0.89 1.23 c -0.45 0.6 -0.84 1.15 -0.88 1.23 c 0.49 1.35 1.47 2.7 2 4 c -2.22 0.68 -2.38 1.43 -2.47 3 c -0.04 -0.05 -0.34 -0.62 -0.68 -1.27 c -0.34 -0.65 -0.66 -1.22 -0.71 -1.27 c -0.07 -0.07 -0.12 -0.07 -0.18 -0.04 c -0.04 0.03 -0.29 0.43 -0.56 0.9 c -0.64 1.13 -1.1 1.87 -1.23 2 c -0.95 0.12 -4.27 0.38 -4.83 0.09" style="fill:#a9a9a9"/><path d="m 20.64 23.1 c -0.52 0.86 -1.55 1.18 -2.29 0.73 c -0.74 -0.46 -0.92 -1.53 -0.39 -2.39 c 0.52 -0.86 1.55 -1.18 2.29 -0.73 c 0.74 0.46 0.92 1.53 0.39 2.39" style="fill:#fff"/><path d="m 19.63 19.75 c -0.53 0.05 -1.7 0.24 -2.13 0.35 c -1.51 0.16 -3.7 0.19 -4.83 -0.27 c -1.47 -0.49 -4.37 -2.09 -4.21 -2.14 c 0.07 -0.02 1.98 0.45 2.8 0.87 c 1.39 0.44 2.16 0.7 3.44 0.46 c 2.07 -0.38 3.46 -0.79 3.56 -1.08 c -0.09 -0.53 -0.38 -0.82 -0.7 -1.29 l 0.31 -0.04 c 0.38 -0.04 5 0.29 5.11 0.36 c 0.12 0.12 -2 3.91 -2.19 3.91 c -0.45 -0.24 -0.65 -1.16 -1.16 -1.13" style="fill:#4069e0"/><path d="m 20.2 16 c -0.32 -0.05 -0.36 -0.09 -0.3 -0.38 c 0.04 -0.18 0.22 -1.55 0.41 -3.06 c 0.19 -1.5 0.38 -2.9 0.43 -3.1 l 0.09 -0.37 l 1.63 -0.03 c 0.98 -0.02 1.62 0.01 1.62 0.08 c 0 0.07 -0.55 1.29 -1.23 2.71 c -0.68 1.42 -1.39 2.95 -1.59 3.38 c -0.36 0.81 -0.43 0.86 -1.06 0.77" style="fill:#ff8c00"/><path d="m 10.54 13.47 c 0.25 0.35 0.37 0.43 0.59 0.45 c 0.53 0.05 1.7 0.09 2.14 0.08 c 1.51 0.13 3.3 0.29 4.45 0.79 c 2.79 0.85 1.8 1.47 1.57 1.12 c -1.33 -0.49 -2.07 -0.76 -3.36 -0.8 c -2.09 -0.05 -3.5 0.02 -3.63 0.18 c -0.05 0.07 0.04 0.27 0.24 0.52 c 0.2 0.31 0.51 0.43 0.02 0.39 c -0.38 -0.03 -4.95 -0.91 -5 -0.97 c -0.11 -0.09 2.37 -2.25 2.56 -2.23 c 0.07 0.01 0.27 0.21 0.44 0.45" style="fill:#4069e0"/></svg>