<svg xmlns="http://www.w3.org/2000/svg" viewBox="0 0 32 32"><path d="m 19.95 31.2 c 11.35 -0.41 12.19 -9.84 11.76 -18.64 c -0.35 -7.17 -3.69 -10.62 -9.66 -11.69 c -15.59 -2.8 -26.84 1.98 -19.89 24.62 c 2.96 6.75 11.75 6.64 17.77 5.71" style="fill:#b0dfe5"/><path d="m 11.6 16.42 c 0.02 -0.09 -1.2 -1.93 -3.14 -4.41 c -1.73 -2.2 -3.14 -4 -3.14 -4.05 c 0 -0.03 2 -0.05 4.47 -0.05 c 3.45 0 4.5 0.02 4.6 0.11 c 0.07 0.07 0.48 0.57 0.9 1.11 c 0.43 0.56 0.83 1 0.91 1 c 0.09 0 0.48 -0.43 0.91 -0.97 c 0.42 -0.54 0.82 -1.04 0.89 -1.11 c 0.11 -0.12 0.75 -0.14 4.61 -0.14 c 2.46 0 4.48 0.02 4.48 0.05 c 0 0.02 -1.41 1.85 -3.13 4.05 c -1.73 2.2 -3.1 4.34 -3.1 4.4 c 1.41 7.15 1.65 6.38 -4.65 5.82 c -7.24 0.63 -5.45 0.44 -4.61 -5.81" style="fill:#028ee6"/><path d="m 5.32 24.31 c 0 -0.05 1.11 -1.46 2.46 -3.13 c 3.51 -4.33 3.75 -4.62 3.83 -4.59 c 0.08 0.03 4.52 5.49 4.52 5.57 c 0 0.07 -1.66 2.11 -1.77 2.19 c -0.16 0.11 -9 0.08 -9 -0.03 m 12.75 0.03 c -0.12 -0.08 -1.77 -2.12 -1.77 -2.19 c 0 -0.07 4.43 -5.54 4.52 -5.57 c 0.07 -0.02 0.97 1.07 5.43 6.58 c 0.47 0.58 0.85 1.09 0.85 1.15 c 0 0.11 -8.86 0.14 -9 0.03 m -3.42 -6.28 c -0.36 -0.2 -1.06 -0.85 -1.05 -0.99 c 0.35 -0.39 0.71 -0.58 1.16 -0.89 l 0.83 0.1 c 0.7 0.09 0.91 0.08 1.35 -0.04 c 0.58 -0.16 1.55 -0.66 1.6 -0.83 c 0.05 -0.16 -0.35 -0.14 -0.89 0.02 c -0.61 0.19 -1.36 0.17 -1.36 -0.04 c 0 -0.04 0.16 -0.14 0.35 -0.23 c 0.23 -0.11 0.34 -0.21 0.32 -0.3 c -0.04 -0.19 -0.91 -0.23 -2 -0.11 c -0.64 0.07 -0.89 0.15 -1.34 0.41 c -0.31 0.18 -0.61 0.29 -0.66 0.26 c -0.17 -0.11 -0.02 -1.18 0.26 -1.8 c 0.36 -0.8 0.79 -1.25 1.57 -1.64 c 1.64 -0.83 3.69 0.18 4.39 1.58 c 0.26 0.56 0.29 0.66 0.29 1.5 c 0 0.82 -0.03 0.95 -0.26 1.44 c -0.33 0.69 -0.91 1.3 -1.57 1.63 c -0.97 0.42 -2.11 0.38 -2.99 -0.08" style="fill:#0a0a0a"/></svg>