<svg xmlns="http://www.w3.org/2000/svg" viewBox="0 0 32 32"><path d="m 30.82 20.4 c 5.92 -16.55 -15.34 -24.6 -23.33 -17.86 c -7.99 6.74 -10.71 18.29 -1.67 24.1 c 9 5.81 19.1 10.32 25 -6.24" style="fill:#dc133c"/><g style="fill:#ffeff4"><path d="m 18.76 7.49 l 0.86 0.79 v 1.57 h 5.13 v 11.79 c 0 0.44 -0.38 0.79 -0.86 0.79 h -15.38 c -0.47 0 -0.86 -0.35 -0.86 -0.79 v -11.79 h 5.13 v -1.57 l 0.86 -0.79 m 5.13 0.79 h -5.13 v 1.57 h 5.13"/><g style="fill-opacity:0.2"><path d="m 18.76 8.28 v 0.39 h -5.13 v -0.39 m 11.1 13.36 v 0.39 c 0 0.43 -0.38 0.79 -0.86 0.79 h -15.38 c -0.47 0 -0.86 -0.35 -0.86 -0.79 v -0.39 c 0 0.44 0.38 0.79 0.86 0.79 h 15.38 c 0.47 0 0.86 -0.35 0.86 -0.79"/><path d="m 18.76 7.49 l 0.86 0.79 v 0.39 l -0.86 -0.79 h -5.13 l -0.86 0.79 v -0.39 l 0.86 -0.79 m 11.1 2.36 v 0.39 h -5.13 v -0.39 m -0.86 0 v 0.39 h -5.13 v -0.39 m -0.86 0 v 0.39 h -5.13 v -0.39"/></g></g><g style="fill:#dc133c"><path d="m 20.35 19.82 c -0.29 -0.08 -0.3 -0.09 -0.3 -0.47 v -0.38 l 0.23 0.12 c 0.13 0.07 0.41 0.12 0.62 0.12 c 0.56 0 0.79 -0.21 0.84 -0.8 c 0.03 -0.25 0.03 -0.45 0 -0.45 c -0.02 0 -0.16 0.13 -0.32 0.27 c -0.53 0.53 -1.18 0.31 -1.54 -0.52 c -0.15 -0.34 -0.17 -0.51 -0.14 -1.08 c 0.04 -0.71 0.14 -1 0.49 -1.35 c 0.38 -0.38 0.85 -0.35 1.27 0.07 l 0.27 0.28 v -0.57 h 0.79 l -0.02 1.9 c -0.03 2.15 -0.07 2.33 -0.62 2.7 c -0.34 0.23 -1.09 0.31 -1.57 0.17 m 1.15 -2.21 c 0.32 -0.32 0.37 -1.22 0.09 -1.65 c -0.15 -0.23 -0.59 -0.27 -0.78 -0.07 c -0.25 0.25 -0.34 0.88 -0.2 1.38 c 0.14 0.51 0.56 0.68 0.89 0.34"/><path d="m 9.83 16.25 v -2.31 h 0.91 v 3.71 h 1.59 v 0.91 h -2.5"/><path d="m 13 17.45 v -2.39 h 0.78 v 0.59 l 0.2 -0.25 c 0.22 -0.28 0.63 -0.45 0.93 -0.37 c 0.11 0.03 0.32 0.18 0.47 0.34 c 0.33 0.37 0.47 0.92 0.43 1.68 c -0.09 1.33 -0.93 1.95 -1.71 1.25 l -0.31 -0.29 v 1.82 h -0.78 m 1.75 -2.14 c 0.34 -0.34 0.34 -1.41 0 -1.78 c -0.21 -0.23 -0.63 -0.2 -0.79 0.05 c -0.15 0.23 -0.23 0.91 -0.15 1.3 c 0.11 0.56 0.59 0.78 0.94 0.42"/><path d="m 16.61 16.1 v -2.39 h 0.78 l 0.02 1.33 l 0.02 1.34 l 0.51 -0.67 l 0.51 -0.66 h 0.92 l -0.38 0.45 c -0.21 0.25 -0.5 0.59 -0.64 0.76 c -0.14 0.17 -0.26 0.34 -0.26 0.38 c 0 0.04 0.3 0.48 0.67 0.96 l 0.67 0.89 h -0.93 l -1.07 -1.45 l -0.05 1.45 h -0.78"/></g></svg>