<svg xmlns="http://www.w3.org/2000/svg" viewBox="0 0 32 32"><path d="m 27.3 5.94 c 19.8 28.35 -31.71 37.4 -26.61 7.25 c 2.71 -11.98 18.66 -18.61 26.61 -7.25" style="fill:#e52869"/><g style="fill:#fff"><path d="m 7.3 19.93 c -0.24 -0.02 -0.28 -0.04 -0.33 -0.22 c -0.08 -0.39 0.03 -0.68 0.31 -0.72 c 0.35 -0.04 0.67 -0.04 1.02 -0.05 v -4.75 c -0.41 -0.03 -0.88 0.06 -1.27 -0.07 c -0.08 -0.24 -0.16 -0.73 0.06 -0.84 c 0.09 -0.05 0.71 -0.07 1.88 -0.08 c 2 -0.01 1.96 -0.02 1.97 0.51 c 0 0.43 -0.09 0.48 -0.84 0.48 h -0.59 v 4.73 c 0.43 0.05 0.9 0.02 1.32 0.14 c 0.13 0.1 0.16 0.35 0.09 0.6 c -0.05 0.19 -0.1 0.24 -0.27 0.27 c -0.21 0.04 -2.88 0.03 -3.36 -0.01"/><path d="m 12.8 20 c -0.89 -0.2 -1.11 -0.34 -1.13 -0.68 c -0.02 -0.35 0.02 -0.77 0.07 -0.82 c 0.02 -0.02 0.14 0.01 0.27 0.08 c 0.8 0.46 1.71 0.61 2.3 0.16 c 0.09 -0.07 0.11 -0.34 0.15 -2.31 l 0.05 -2.22 c -0.41 -0.1 -1.39 0.16 -1.65 -0.16 c -0.13 -0.16 -0.11 -0.54 0.03 -0.7 c 0.88 -0.21 1.43 -0.27 2.61 -0.1 c 0.21 0.06 0.23 0.51 0.2 3.14 l -0.04 2.28 l -0.17 0.32 c -0.4 0.76 -0.84 1 -1.89 1.02 c -0.28 0 -0.56 0.01 -0.8 -0.01"/><path d="m 17.1 19.86 c -0.18 -0.03 -0.23 -0.07 -0.28 -0.24 c -0.03 -0.11 -0.04 -1.42 -0.04 -2.91 l 0.02 -2.71 l 0.16 -0.12 c 0.41 -0.13 1.02 -0.28 1.4 0.04 c 0.29 0.25 0.06 0.58 -0.41 0.58 h -0.29 v 4.74 c 0.23 0.01 0.59 -0.04 0.72 0.13 c 0.14 0.2 0.03 0.46 -0.23 0.5 c -0.36 0.02 -0.73 0.04 -1.07 -0.02"/><path d="m 19.31 19.1 c -0.26 -0.03 -0.49 -0.15 -0.67 -0.3 c -0.84 -0.72 -0.42 -2 0.68 -2.13 c 0.43 -0.05 0.72 0.05 1.03 0.37 c 0.41 0.43 0.49 0.86 0.23 1.35 c -0.24 0.46 -0.84 0.79 -1.27 0.71"/><path d="m 20.46 16.73 c -0.3 -0.13 -0.6 -0.39 -0.75 -0.66 c -0.2 -0.36 -0.14 -0.87 0.12 -1.18 c 0.53 -0.63 1.41 -0.7 1.95 -0.16 c 0.43 0.45 0.5 1.05 0.16 1.54 c -0.31 0.45 -1 0.67 -1.48 0.47"/><path d="m 21.2 18.46 c -0.26 -0.49 -0.16 -1 0.29 -1.41 c 0.47 -0.43 0.96 -0.46 1.61 -0.07 c 0.29 0.17 0.5 0.57 0.5 0.95 c 0 0.64 -0.59 1.21 -1.23 1.2 c -0.48 0.01 -0.93 -0.26 -1.16 -0.66"/><path d="m 23.5 19.78 c -0.1 -0.09 -0.1 -0.38 0 -0.46 c 0.22 -0.09 0.41 -0.09 0.66 -0.1 v -4.68 l -0.26 -0.02 c -0.33 -0.03 -0.49 -0.16 -0.46 -0.4 c 0.01 -0.13 0.07 -0.21 0.18 -0.26 c 0.17 -0.08 1.07 -0.11 1.19 -0.03 c 0.19 0.12 0.21 0.43 0.21 3.21 v 2.82 c -0.54 -0.08 -1.08 0.06 -1.52 -0.07"/></g></svg>