<svg xmlns="http://www.w3.org/2000/svg" viewBox="0 0 32 32"><path d="m 31.92 16.74 c -0.49 -11.38 -8.2 -19.95 -18.89 -15.21 c -7.34 3.24 -14.31 6.81 -12.56 15.21 c 1.75 8.4 10.21 15.21 18.89 15.21 c 8.69 0 12.93 -6.91 12.56 -15.21" style="fill:#8b008b"/><path d="m 19.23 23.81 c 2.89 -1.41 4.58 -4.27 5.39 -6.89 c 1.26 0.91 1.32 5.71 0.54 6.99 c -0.55 1.05 -7.83 0.8 -5.93 -0.11" style="fill:#ff8c00"/><path d="m 13.1 24.66 c -0.87 -0.23 -1.45 -0.51 -2.23 -1.07 c -1.13 -0.89 -2 -1.87 -2.45 -3.29 c -0.28 -0.66 -0.27 -1.42 -0.02 -1.98 c 0.38 -0.8 1.08 -1.34 1.77 -1.34 c 0.33 0 1.17 0.29 1.6 0.56 c 0.74 0.46 1.24 1.05 2.4 2.85 c 0.97 1.5 1.63 2.91 1.63 3.5 c 0 0.28 -0.2 0.57 -0.48 0.72 c -0.72 0.14 -1.53 0.2 -2.22 0.04" style="fill:#fb006c"/><path d="m 9.32 15.79 c -0.25 -0.05 -0.43 -0.26 -0.6 -0.72 c -0.22 -0.57 -0.21 -0.89 0.06 -1.83 c 0.66 -2.29 1.97 -3.87 3.9 -4.68 c 1.44 -0.61 2.59 -0.42 3.32 0.54 c 0.53 0.68 0.29 1.8 0.05 2.31 c -0.41 0.86 -1.23 1.62 -2.98 2.77 c -1.88 1.23 -3.05 1.74 -3.74 1.61" style="fill:#9327ff"/><path d="m 20.86 14.33 c -0.7 -0.76 -2.1 -2.88 -2.69 -4.08 c -0.32 -0.64 -0.45 -1.11 -0.45 -1.57 c 0.01 -0.95 1.24 -0.89 1.68 -0.88 c 0.94 0.04 1.41 0.16 2.35 0.64 c 1.42 0.72 2.32 1.63 3 3.07 c 0.35 0.71 0.45 1.14 0.45 1.91 c -0.15 1.4 -0.76 2.1 -1.87 2.14 c -0.98 0.04 -1.9 -0.59 -2.5 -1.23" style="fill:#00c8ff"/><path d="m 18.51 24.2 c -0.66 -0.24 -1.24 -0.91 -1.34 -1.55 c -0.03 -1.13 0.56 -2.13 1.21 -2.75 c 0.55 -0.51 2.44 -1.79 3.64 -2.46 c 0.85 -0.48 1.4 -0.67 1.92 -0.68 c 0.46 -0.01 0.65 0.12 0.82 0.58 c 0.14 0.38 0.09 1.47 -0.1 2.17 c -0.58 2.16 -2.15 3.89 -4.17 4.62 c -0.55 0.2 -1.54 0.23 -1.98 0.07" style="fill:#ffce00"/></svg>