<svg xmlns="http://www.w3.org/2000/svg" viewBox="0 0 32 32"><path d="m 0.77 12.57 c 9.82 -29.74 48.98 2.18 21.32 17.3 c -10.81 6.48 -26.39 -2 -21.32 -17.3" style="fill:#f4f4f4"/><path d="m 25.46 16.78 c 0 5.44 -4.57 9.85 -10.2 9.85 c -5.64 0 -10.2 -4.41 -10.2 -9.85 c 0 -5.44 4.57 -9.85 10.2 -9.85 c 5.63 0 10.2 4.41 10.2 9.85" style="fill:#cccdcd"/><path d="m 16.63 26.2 c -0.09 -0.1 -0.35 -0.45 -0.57 -0.77 c -0.34 -0.5 -0.45 -0.6 -0.74 -0.68 c -0.19 -0.05 -0.49 -0.16 -0.68 -0.24 c -0.19 -0.08 -0.38 -0.15 -0.44 -0.15 c -0.16 0 -1.3 -0.39 -1.9 -0.65 l -0.57 -0.25 l -0.55 0.17 c -0.3 0.1 -0.68 0.25 -0.84 0.34 c -0.39 0.21 -0.98 0.38 -1.35 0.39 c -0.27 0 -0.38 -0.08 -0.95 -0.63 c -0.81 -0.78 -1.29 -1.42 -1.74 -2.34 c -0.34 -0.68 -0.35 -0.75 -0.35 -1.42 c 0.01 -0.64 0.04 -0.77 0.33 -1.38 c 0.2 -0.41 0.32 -0.78 0.32 -0.95 c 0 -0.16 -0.03 -1.1 -0.06 -2.09 l -0.05 -1.81 l -0.25 -0.2 c -0.33 -0.27 -0.32 -0.47 0.05 -1.18 c 0.93 -1.79 2.31 -3.23 3.98 -4.15 c 0.8 -0.44 1.04 -0.5 1.11 -0.28 c 0.03 0.09 0 0.27 -0.07 0.39 c -0.14 0.27 -0.43 1.82 -0.37 1.97 c 0.02 0.06 0.23 0.16 0.45 0.23 c 0.22 0.06 0.84 0.29 1.37 0.5 c 0.53 0.21 1 0.39 1.05 0.39 c 0.12 0 3.63 -1.11 3.79 -1.2 c 0.12 -0.07 0.5 -1.21 0.5 -1.52 c 0 -0.25 -0.57 -0.7 -1.38 -1.07 c -0.71 -0.33 -0.88 -0.46 -0.7 -0.57 c 0.2 -0.12 1.67 0.13 2.68 0.45 c 0.7 0.23 2 0.88 2.22 1.09 c 0.07 0.08 0.11 0.18 0.07 0.23 c -0.06 0.09 -0.11 0.09 -1.43 -0.05 c -0.6 -0.06 -0.57 -0.1 -0.86 0.92 c -0.16 0.54 -0.18 0.71 -0.1 0.85 c 0.05 0.1 0.63 0.81 1.29 1.59 c 1.08 1.27 1.23 1.42 1.53 1.48 c 0.18 0.04 0.72 0.18 1.2 0.31 c 0.48 0.13 0.89 0.21 0.93 0.17 c 0.1 -0.1 0.33 -0.92 0.33 -1.17 c 0 -0.32 0.17 -0.65 0.33 -0.62 c 0.16 0.03 0.36 0.41 0.62 1.23 c 0.28 0.88 0.36 1.28 0.48 2.48 c 0.09 0.89 0.09 1.16 -0.04 2.1 c -0.17 1.34 -0.26 1.65 -0.51 1.79 c -0.11 0.05 -0.39 0.37 -0.62 0.71 c -0.23 0.33 -0.57 0.77 -0.75 0.97 c -0.44 0.49 -0.49 0.6 -0.57 1.21 c -0.08 0.69 -0.16 0.87 -0.52 1.24 c -0.93 0.93 -2.63 1.79 -4.25 2.16 c -0.93 0.21 -1.21 0.2 -1.43 -0.02 m -0.16 -2.91 c 0.38 -0.32 1.07 -0.9 1.54 -1.27 l 0.86 -0.69 l -0.05 -0.63 c -0.06 -0.73 -0.41 -2.29 -0.56 -2.51 c -0.07 -0.11 -0.71 -0.36 -1.99 -0.79 c -1.03 -0.34 -1.94 -0.65 -2 -0.68 c -0.11 -0.04 -0.52 0.28 -1.61 1.21 c -0.81 0.7 -1.47 1.31 -1.47 1.36 c 0 0.45 0.68 3 0.88 3.33 c 0.14 0.22 1.33 0.71 2.38 0.97 c 0.44 0.11 0.81 0.22 0.83 0.24 c 0.02 0.02 0.14 0.04 0.28 0.04 c 0.19 0 0.41 -0.14 0.93 -0.59 m 6.22 -2.4 c 0.48 -0.56 0.82 -1.03 1.12 -1.55 c 0.18 -0.32 0.22 -0.52 0.27 -1.34 c 0.06 -1 0.03 -1.25 -0.3 -2.38 c -0.17 -0.57 -0.18 -0.58 -0.91 -0.79 c -0.37 -0.11 -1.57 -0.41 -1.62 -0.41 c -0.02 0 -0.31 0.43 -0.64 0.95 c -0.34 0.52 -0.83 1.27 -1.1 1.67 c -0.35 0.51 -0.48 0.77 -0.45 0.89 c 0.02 0.1 0.13 0.48 0.22 0.85 c 0.1 0.37 0.24 1.05 0.32 1.5 l 0.14 0.82 l 0.71 0.13 c 0.39 0.07 0.96 0.14 1.27 0.14 h 0.56 m -10.2 -4 c 0.73 -0.64 1.36 -1.21 1.4 -1.27 c 0.07 -0.11 0.04 -3.65 -0.03 -3.83 c -0.07 -0.18 -2.59 -1.16 -2.98 -1.16 c -0.32 0 -2.38 1.68 -2.91 2.38 l -0.24 0.32 v 1.38 c 0 0.76 0.03 1.55 0.06 1.75 c 0.05 0.34 0.09 0.38 0.52 0.6 c 0.57 0.3 2.4 1 2.65 1 c 0.12 0 0.61 -0.37 1.52 -1.16" style="fill:#464c4e"/></svg>