<svg xmlns="http://www.w3.org/2000/svg" viewBox="0 0 32 32"><path d="m 26.36 25.89 c -12.95 16.81 -36.3 -5.84 -21.39 -20.71 c 12.85 -14.91 37.79 6.4 21.39 20.71" style="fill:#2c2c2c"/><path d="m 12.71 23.86 c -0.99 -0.04 -1.97 0.14 -2.87 -0.3 c -1.15 -0.56 -2.05 -1.57 -2.46 -2.77 l -0.21 -0.62 l 0.02 -4.67 l 0.03 -4.67 l 0.37 -0.77 c 0.68 -1.39 1.99 -2.41 3.41 -2.63 c 0.34 -0.05 2.33 -0.08 4.94 -0.06 c 4.35 0.03 4.36 0.03 4.9 0.24 c 1.14 0.45 2 1.23 2.58 2.3 c 0.26 0.48 0.3 0.66 0.36 1.59 c 0.09 1.31 0.09 6.93 0 8.27 c -0.06 0.88 -0.1 1.08 -0.37 1.63 c -0.39 0.81 -1.29 1.71 -2.11 2.11 c -0.49 0.24 -0.72 0.3 -1.34 0.33 c -1.48 0.07 -4.94 0.08 -7.25 0.04 m 7.91 -1.69 c 0.9 -0.53 1.32 -1.13 1.74 -1.96 v -9 l -0.3 -0.6 c -0.53 -0.89 -1.09 -1.27 -1.91 -1.69 h -9.32 l -0.49 0.28 c -0.84 0.52 -1.2 1.06 -1.65 1.84 v 9.3 c 0.4 0.73 0.97 1.47 1.55 1.79 c 0.65 0.36 1.21 0.39 5.76 0.38 l 4 -0.02" style="fill:#1780c8"/><path d="m 18.35 19.98 c -0.06 -0.13 -0.63 -1.41 -1.26 -2.84 c -1.33 -3 -1.5 -3.37 -1.6 -3.27 c -0.04 0.04 -0.65 1.18 -1.35 2.54 l -1.29 2.46 l -0.4 -0.42 c -0.22 -0.23 -0.71 -0.76 -1.11 -1.18 l -0.71 -0.77 l -0.36 0.57 c -0.2 0.32 -0.41 0.57 -0.45 0.57 c -0.16 0 -0.68 -0.35 -0.68 -0.46 c 0 -0.09 0.87 -1.65 1.19 -2.15 c 0.12 -0.18 0.02 -0.27 1.61 1.4 c 0.32 0.34 0.62 0.61 0.65 0.61 c 0.04 0 0.71 -1.23 1.5 -2.74 c 0.79 -1.51 1.47 -2.75 1.52 -2.75 c 0.09 -0.01 0.23 0.29 1.79 3.82 c 0.56 1.27 1.05 2.31 1.1 2.33 c 0.05 0.02 0.45 -0.75 0.88 -1.7 c 0.44 -0.95 0.83 -1.78 0.87 -1.84 c 0.07 -0.11 0.59 0.6 1.26 1.75 l 0.31 0.54 c -0.23 0.15 -0.47 0.3 -0.71 0.46 l -0.32 -0.38 c -0.39 -0.45 -0.25 -0.62 -1.2 1.5 c -0.84 1.86 -0.98 2.16 -1.06 2.16 c -0.03 0 -0.11 -0.11 -0.17 -0.23" style="fill:#0dc322"/></svg>