<svg xmlns="http://www.w3.org/2000/svg" viewBox="0 0 32 32"><path d="m 28.66 24.56 c 10.56 -11.84 -6.09 -30.1 -20 -22.71 c -14.1 7.45 -10.34 32.1 6.97 30 c 5.15 -0.62 9.62 -3.45 13.1 -7.31"/><path d="m 15.79 24.86 v -0.8 l 2.54 -2.35 c 1.39 -1.29 2.57 -2.35 2.62 -2.35 c 0.11 0 1.61 1.41 1.63 1.54 c 0.02 0.11 -0.23 0.36 -3.6 3.49 l -1.36 1.26 h -1.83 m -5.32 -0.78 c -0.39 -0.09 -0.72 -0.28 -0.98 -0.57 c -0.32 -0.35 -0.38 -0.51 -0.43 -1.16 l -0.04 -0.55 l -0.83 -0.02 l -0.84 -0.02 v -1.6 l 0.84 -0.02 l 0.83 -0.02 l 0.02 -1.53 l 0.02 -1.52 h -1.7 v -1.6 l 0.84 -0.02 l 0.83 -0.02 l 0.02 -1.53 l 0.02 -1.52 h -1.7 v -1.6 l 0.84 -0.02 l 0.83 -0.02 l 0.04 -0.58 c 0.03 -0.42 0.08 -0.65 0.18 -0.84 c 0.17 -0.32 0.63 -0.73 0.88 -0.77 c 0.1 -0.02 0.18 -0.06 0.18 -0.09 c 0 -0.03 2.38 -0.05 5.45 -0.05 h 5.46 l 0.4 0.2 c 0.22 0.11 0.49 0.3 0.59 0.43 c 0.38 0.45 0.39 0.57 0.39 3.22 v 2.42 l -0.72 0.7 c -0.78 0.75 -0.89 0.84 -0.98 0.76 c -0.04 -0.04 -0.07 -1.41 -0.08 -3.07 l -0.02 -3 l -0.71 -0.02 c -0.47 -0.01 -0.74 0.01 -0.8 0.06 c -0.07 0.06 -0.09 0.47 -0.09 2.28 c 0 1.73 -0.02 2.21 -0.08 2.21 c -0.05 0 -0.41 -0.3 -0.81 -0.68 c -0.4 -0.37 -0.75 -0.67 -0.79 -0.67 c -0.03 0 -0.4 0.32 -0.82 0.71 c -0.43 0.39 -0.8 0.69 -0.84 0.67 c -0.04 -0.02 -0.06 -0.91 -0.06 -2.28 c 0 -1.98 -0.01 -2.24 -0.1 -2.27 c -0.06 -0.02 -0.78 -0.04 -1.6 -0.04 c -1.41 0 -1.5 0.01 -1.57 0.13 c -0.07 0.13 -0.1 12 -0.03 12.23 c 0.04 0.08 0.16 0.1 0.75 0.1 c 0.39 0 0.75 0.02 0.81 0.04 c 0.15 0.06 0.15 1.53 0 1.59 c -0.16 0.06 -3.3 0.04 -3.58 -0.03 m 0.25 -3.11 v -0.7 l -1.6 -0.04 v 1.49 l 1.6 -0.04 m 0 -5.39 v -0.7 l -1.6 -0.04 v 1.49 l 1.6 -0.04 m 0 -5.39 v -0.7 l -1.6 -0.04 v 1.49 l 1.6 -0.04 m 11.56 6.6 c -0.44 -0.41 -0.8 -0.79 -0.8 -0.82 c 0 -0.04 0.21 -0.26 0.45 -0.5 c 0.61 -0.57 0.7 -0.57 1.34 0 c 0.76 0.69 0.83 0.77 0.83 1.02 c 0 0.19 -0.06 0.28 -0.44 0.64 c -0.24 0.23 -0.47 0.41 -0.5 0.41 c -0.04 0 -0.43 -0.34 -0.87 -0.75" style="fill:#fff"/></svg>