<svg xmlns="http://www.w3.org/2000/svg" viewBox="0 0 32 32"><path d="m 0.28 19.43 c 1.54 16.35 26.2 16.83 30.82 0.95 c 4.58 -12.86 -8.72 -23.37 -19.35 -19.2 c -7.1 2 -13.17 10.14 -11.47 18.22" style="fill:#5b6ee0"/><path d="m -0.06 18.54 c -0.46 -2.09 1.91 -4.55 6.12 -3.95 c 3 0.43 3.11 1.28 6.16 -1.34 c 4.16 -3.57 3.09 -4 -1.76 -8.38 l -2.34 -2.09 c 9.15 -4.9 26.43 14.87 23.1 16.34 c -2.24 0 -3.96 -0.34 -5.08 1.68 c -0.75 1.34 -0.7 3.49 -0.79 4.25 c -0.27 2.17 -1.74 2 -3.29 2.82 c -1.54 0.82 -1.35 2.1 -1.55 3.22 c -7.13 1.63 -18.99 -6.13 -20.6 -12.55" style="fill:#f9ef20"/><path d="m 0.13 19.6 c 0 -2.48 3.71 -4.41 7.39 -3.83 c 2.63 0.41 3.14 0.21 5.8 -2.28 c 3.63 -3.41 3.38 -5.18 -1.25 -8.76 l -3.18 -2.51 l 2.32 -0.98 c 8.4 -3.54 21.2 2.94 20.93 14.78 c 0 2.15 -0.18 2.33 -2.38 2.33 c -1.96 0 -3.51 -0.04 -4.48 1.87 c -0.65 1.28 -0.61 3.33 -0.69 4.06 c -0.23 2.07 -1.52 1.91 -2.86 2.69 c -1.35 0.78 -1.79 2.93 -1.96 4 c -0.12 0.74 -2.66 0.98 -4.52 0.94 c -9.87 0.15 -14.71 -6.94 -15.1 -12.31" style="fill:#99e44e"/><path d="m 10.46 31.3 c -1.45 -0.33 -6.19 -2.05 -8.16 -5.78 l 2.43 -1.54 c 1.23 -0.78 4.05 -2.46 6.3 -3.66 c 3.16 -1.68 4.53 -2.64 5.99 -4.22 c 3.36 -3.63 1.98 -5.54 0.17 -8.1 c -1.39 -1.94 -0.63 -4.96 -3.49 -6.6 l -1.18 -0.67 c 9.31 -2.42 15.63 3.35 18 8.23 l -0.73 1.57 c -0.48 1.03 0.73 1.64 -0.7 2.13 c -0.45 0.16 -2.52 0.41 -3.52 1.08 c -0.99 0.67 -2.09 1.22 -2.43 1.22 c -1.49 0 -4.98 4.26 -5.93 7.24 c -0.25 0.77 -0.8 1.97 -1.23 2.65 c -0.43 0.68 -1.45 2.39 -2.25 3.8 c -1.45 2.54 -1.28 3.44 -3.32 2.6" style="fill:#495b28"/><g style="fill:#99e44e"><path d="m 25.77 5.49 c 0 0.79 -0.66 1.43 -1.48 1.43 c -0.81 0 -1.47 -0.64 -1.47 -1.43 c 0 -0.79 0.66 -1.43 1.47 -1.43 c 0.82 0 1.48 0.64 1.48 1.43"/><path d="m 26.3 9.71 c 0 0.79 -0.66 1.43 -1.48 1.43 c -0.81 0 -1.47 -0.64 -1.47 -1.43 c 0 -0.79 0.66 -1.43 1.47 -1.43 c 0.82 0 1.48 0.64 1.48 1.43"/><path d="m 22.39 7.57 c 0 0.79 -0.66 1.43 -1.48 1.43 c -0.82 0 -1.48 -0.64 -1.48 -1.43 c 0 -0.79 0.66 -1.43 1.48 -1.43 c 0.82 0 1.48 0.64 1.48 1.43"/></g><g style="fill:#4e3621"><path d="m 20.24 6.93 h 1.21 v 1.21 h -1.21"/><path d="m 23.67 4.88 h 1.21 v 1.21 h -1.21"/><path d="m 24.2 9.1 h 1.21 v 1.21 h -1.21"/></g><path d="m 7.43 30.1 c -2.08 -1.06 -2.16 -1.18 -1.52 -2.17 c 0.7 -1.08 1.41 -1.64 1.88 -1.48 c 0.2 0.07 0.72 -0.15 1.16 -0.5 c 1 -0.79 1.47 -0.45 2 1.45 c 0.38 1.37 0.38 1.39 -0.63 2.44 c -0.56 0.58 -1.1 1.05 -1.19 1.05 c -0.09 0 -0.86 -0.36 -1.7 -0.79" style="fill:#b5b2b8"/></svg>