<svg xmlns="http://www.w3.org/2000/svg" viewBox="0 0 32 32"><path d="m 5.57 6 c 12.95 -16.81 36.3 5.84 21.39 20.71 c -12.85 14.91 -37.79 -6.4 -21.39 -20.71" style="fill:#d7bfd7"/><path d="m 13.97 23.34 c -1.28 -0.23 -2.49 -0.62 -2.74 -0.87 l -0.23 -0.23 h -4.6 v -0.66 l 1.41 -0.05 v -9.92 l -1.41 -0.05 v -0.66 h 2.91 h 2.91 l 0.43 -0.29 c 0.24 -0.16 0.71 -0.39 1.04 -0.51 c 1.77 -0.33 3.35 -0.38 5.17 0 c 1.44 0.31 1.64 0.38 1.82 0.59 c 0.16 0.18 0.28 0.19 2.85 0.19 h 2.68 v 0.66 l -1.41 0.05 v 9.92 l 1.41 0.05 v 0.66 h -2.93 c -2.74 -0.01 -2.95 0 -3.13 0.17 c -0.34 0.31 -0.67 0.49 -1.4 0.75 c -1.68 0.33 -2.98 0.48 -4.78 0.18 m -2.87 -1.88 c 0.04 -0.06 0.06 -0.51 0.05 -0.99 c -0.02 -1 0.07 -1.19 0.57 -1.19 c 0.39 0 0.57 0.16 0.69 0.62 c 0.13 0.52 0.6 1.35 0.87 1.53 c 0.16 0.11 0.4 0.14 0.93 0.12 l 0.72 -0.03 l 0.02 -1.74 c 0.03 -1.98 0.07 -1.89 -0.84 -2.12 c -0.71 -0.18 -1.73 -0.71 -2.18 -1.14 c -0.61 -0.59 -0.82 -1.18 -0.87 -2.4 c -0.04 -0.89 -0.01 -1.08 0.2 -1.72 c 0.13 -0.39 0.24 -0.75 0.24 -0.79 c 0 -0.04 -0.21 -0.06 -0.48 -0.04 l -0.48 0.03 l -0.03 4.86 c -0.01 2.68 0 4.92 0.02 4.98 c 0.05 0.15 0.47 0.16 0.56 0.01 m 7.16 0.02 c 0.39 -0.22 0.51 -1.53 0.19 -2.07 c -0.21 -0.36 -0.59 -0.65 -0.73 -0.56 c -0.11 0.07 -0.14 2.55 -0.04 2.66 c 0.09 0.09 0.38 0.07 0.57 -0.03 m 3.79 -4.91 v -4.96 l -0.58 -0.03 c -0.32 -0.02 -0.63 0.02 -0.68 0.07 c -0.05 0.06 -0.09 0.45 -0.07 0.9 c 0.02 0.92 -0.07 1.11 -0.59 1.11 c -0.34 0 -0.68 -0.27 -0.68 -0.55 c 0 -0.28 -0.52 -1.14 -0.82 -1.36 c -0.34 -0.21 -0.58 -0.18 -0.96 -0.14 l -0.02 1.78 l -0.03 1.78 c 0.28 0.11 0.56 0.25 0.86 0.31 c 0.2 0 1.44 0.66 1.74 0.92 c 0.81 0.71 1.16 1.64 1.15 3.07 c 0 0.62 -0.06 1.09 -0.17 1.45 c -0.09 0.29 -0.14 0.56 -0.12 0.6 c 0.34 0.09 0.62 0.04 0.98 0.02 m -7.12 -8.54 v -1.38 l -0.42 -0.03 c -0.83 -0.04 -0.91 0.82 -0.89 1.26 c 0.04 0.76 0.2 1.06 0.72 1.38 c 0.57 0.36 0.59 0.32 0.59 -1.23" style="fill:#e03737"/><path d="m 14.27 22.84 c -1 -0.18 -2.38 -0.56 -2.55 -0.71 c -0.13 -0.12 -0.15 -0.32 -0.15 -1.44 c 0 -1.45 0.04 -1.57 0.55 -1.57 c 0.38 0 0.55 0.15 0.66 0.57 c 0.3 1.17 1.19 1.88 2.68 2.13 c 0.78 0.13 0.89 0.13 1.55 0 c 1.22 -0.25 1.73 -0.77 1.73 -1.75 c 0 -1.07 -0.34 -1.32 -2.62 -1.93 c -1.93 -0.52 -2.15 -0.58 -2.79 -0.88 c -0.78 -0.36 -1.35 -0.88 -1.62 -1.46 c -0.18 -0.4 -0.21 -0.59 -0.21 -1.55 c 0 -1 0.02 -1.14 0.24 -1.66 c 0.13 -0.31 0.33 -0.66 0.44 -0.78 c 0.32 -0.35 1.18 -0.86 1.8 -1.08 c 0.54 -0.18 0.73 -0.2 2.3 -0.2 c 1.52 0 1.84 0.03 2.89 0.25 c 0.65 0.13 1.27 0.3 1.38 0.37 c 0.18 0.12 0.2 0.18 0.2 1.35 c 0 1.35 -0.05 1.49 -0.53 1.49 c -0.39 0 -0.59 -0.14 -0.69 -0.52 c -0.27 -1.01 -1.12 -1.64 -2.48 -1.84 c -1.27 -0.19 -2.38 0.09 -2.91 0.71 c -0.22 0.26 -0.23 0.33 -0.21 0.9 c 0.04 0.72 0.2 1 0.73 1.27 c 0.35 0.17 1.51 0.51 2.41 0.71 c 0.71 0.16 1.95 0.57 2.48 0.84 c 1.28 0.64 1.82 1.6 1.82 3.22 c 0 1.86 -0.69 2.8 -2.52 3.43 c -0.63 0.22 -0.8 0.24 -2.3 0.26 c -1.06 0.02 -1.85 -0.02 -2.28 -0.09" style="fill:#040303"/></svg>