<svg xmlns="http://www.w3.org/2000/svg" viewBox="0 0 32 32"><path d="m 1.34 18.95 c 3.19 21.34 35.96 14.1 29.76 -6.6 c -4.16 -19.63 -37.7 -14.31 -29.76 6.6" style="fill:#211e1f"/><g style="fill:#fff"><path d="m 9.57 8.29 h 2.7 v 2.71 h -2.7"/><path d="m 12.72 8.34 h 2.7 v 2.7 h -2.7"/><path d="m 16 8.27 h 2.7 v 2.71 h -2.7"/><path d="m 19.2 8.31 h 2.7 v 2.7 h -2.7"/><path d="m 19.24 11.62 h 2.71 v 2.71 h -2.71"/><path d="m 19.24 14.9 h 2.71 v 2.71 h -2.71"/><path d="m 19.29 18 h 2.7 v 2.71 h -2.7"/><path d="m 19.24 21.42 h 2.71 v 2.7 h -2.71"/><path d="m 9.57 21.38 h 2.7 v 2.7 h -2.7"/></g><path d="m 9.53 18.1 h 2.7 v 2.7 h -2.7" style="fill:#e54203"/><g style="fill:#fff"><path d="m 9.48 14.81 h 2.71 v 2.7 h -2.71"/><path d="m 9.48 11.57 h 2.71 v 2.7 h -2.71"/></g><path d="m 12.76 18.1 h 2.7 v 2.71 h -2.7" style="fill:#23e03e"/><path d="m 16.1 18 h 2.71 v 2.71 h -2.71" style="fill:#2f2de6"/><path d="m 11.39 18.1 h 0.84 v 2.7 h -0.84" style="fill:#ffd600"/><path d="m 17.93 18.1 h 0.84 v 2.71 h -0.84" style="fill:#9370db"/><path d="m 14.55 18.1 h 0.87 v 2.71 h -0.87" style="fill:#00ced0"/></svg>