<svg xmlns="http://www.w3.org/2000/svg" viewBox="0 0 32 32"><path d="m 24.98 4.73 c 28.47 33.1 -40.49 37.8 -21.53 4 c 4.32 -7.71 13.98 -12.79 21.53 -4" style="fill:#ff8c00"/><path d="m 14.39 25.47 c -0.03 -0.04 -0.05 -2.77 -0.05 -6.07 c 0 -3.3 -0.03 -6.15 -0.06 -6.34 c -0.05 -0.32 -0.07 -0.27 -0.16 0.54 c -0.05 0.49 -0.13 1.33 -0.18 1.86 c -0.2 2.4 -0.63 4.07 -1.48 5.69 c -0.53 1.03 -1.18 1.91 -2.02 2.74 c -0.71 0.7 -1.88 1.58 -2.09 1.58 c -0.1 0 -0.36 -0.37 -0.86 -1.23 c -0.39 -0.68 -0.72 -1.27 -0.72 -1.31 c 0 -0.05 0.23 -0.26 0.51 -0.48 c 2.79 -2.18 4.4 -6.32 4.68 -12.1 l 0.06 -1.16 h 7.81 l 0.06 1.16 c 0.27 5.71 1.89 9.89 4.68 12.1 c 0.28 0.22 0.51 0.43 0.51 0.48 c 0 0.04 -0.32 0.63 -0.72 1.31 c -0.5 0.86 -0.76 1.23 -0.86 1.23 c -0.21 0 -1.38 -0.88 -2.09 -1.58 c -0.84 -0.83 -1.49 -1.71 -2.03 -2.74 c -0.92 -1.78 -1.32 -3.45 -1.56 -6.57 c -0.04 -0.59 -0.11 -1.23 -0.14 -1.43 l -0.05 -0.37 l -0.06 0.35 c -0.03 0.19 -0.05 3 -0.05 6.3 c 0 3.27 -0.02 5.99 -0.05 6 c -0.07 0.11 -3 0.11 -3.08 0" style="fill:#f9cd9c"/><g style="fill:#f9731e"><path d="m 8.18 24.41 c -0.53 -0.84 -0.78 -1.29 -0.73 -1.33 c 0.02 -0.02 0.23 -0.19 0.46 -0.38 c 0.66 -0.53 1.18 -1.13 1.73 -1.98 l 0.25 -0.4 h 2.21 l -0.14 0.4 c -0.41 1.14 -0.98 2.05 -1.81 2.88 c -0.45 0.45 -1.42 1.21 -1.63 1.28 c -0.02 0.01 -0.18 -0.2 -0.35 -0.47"/><path d="m 14.9 24.99 c -0.08 -0.02 -0.09 -0.73 -0.03 -2.53 l 0.04 -1.14 h 1.98 l 0.04 1.04 c 0.02 0.57 0.04 1.39 0.04 1.82 c 0 0.68 -0.01 0.79 -0.08 0.82 c -0.1 0.03 -1.88 0.03 -1.97 0"/><path d="m 22.98 24.54 c -1.2 -0.77 -2.19 -1.79 -2.77 -2.88 c -0.22 -0.4 -0.54 -1.15 -0.54 -1.26 c 0 -0.06 0.2 -0.08 1.14 -0.07 h 1.14 l 0.36 0.52 c 0.59 0.86 1.02 1.29 2.08 2.07 c 0.14 0.1 0.14 0.11 0.04 0.29 c -0.18 0.33 -1.01 1.55 -1.05 1.55 c -0.02 0 -0.2 -0.1 -0.38 -0.22"/></g></svg>