<svg xmlns="http://www.w3.org/2000/svg" xmlns:xlink="http://www.w3.org/1999/xlink" viewBox="0 0 32 32"><defs><g id="3" style="clip-path:url(#2)"><path d="m 14.1 29.1 c -1.25 -0.05 -0.95 3.4 -4.09 2.13 l -1.4 -0.56 l 0.32 -0.62 c 1.66 -5.06 -1.54 -10.52 -4.47 -12.89 c -2.37 -2.16 0.02 -1.54 2.09 -1.66 c 2.08 -1.03 4.37 -3.15 4 -5.43 c -0.14 -0.88 -2.88 -1.66 -3.38 -2.19 c -0.85 -0.27 -1.02 -0.86 -0.04 -1.57 c 0.91 -1.14 2.12 -2.29 1.21 -3.25 c -0.33 -0.33 0.06 -0.78 0.43 -1.05 c 0.62 -0.44 2.45 -1.48 3 -1.14 c 6.25 3.8 7.43 -1.43 11.7 2.46 c 1.09 1 3.05 2.7 4.26 4.28 c 3.36 4.41 -1.67 4.44 -0.02 8.46 c 0.41 0.99 4.46 3.18 4.19 4.21 c -1.59 6 -5.28 1.38 -4.61 5.23 c 0.38 2.15 -2.84 4.07 -5.88 5.13 c -2.24 0.78 -4.51 -2.49 -7.34 -1.55" style="fill:#62c288"/></g><g id="6" style="clip-path:url(#5)"><path d="m 20.1 27.1 c -2.37 -0.25 -3.25 -0.46 -4.56 -1.11 c -1.75 -0.73 -1.95 -2.56 -2.84 -3.59 c -0.16 0.04 -0.08 -0.12 0.21 -0.37 c 3.78 -3.79 8.17 -4.63 11.29 -4.48 c 0.18 -0.11 0.19 -0.11 0.19 0.06 c 0 0.1 0.11 0.48 0.23 0.85 c 0.65 1.86 0.84 3 0.97 5.92 c 0.89 4.43 -2.44 3 -5.49 2.71" style="fill:#479060"/></g><g id="9" style="clip-path:url(#8)"><path d="m 6.87 22.73 c -0.21 -0.2 -0.16 -0.43 0.18 -0.88 c 0.37 -0.47 1.44 -1.48 1.57 -1.48 c 0.23 0.13 0.33 0.36 0.5 0.57 c 0.25 0.4 -0.42 0.82 -0.69 1.09 c -0.82 0.79 -1.27 0.99 -1.56 0.7" style="fill:#479567"/></g><g id="C" style="clip-path:url(#B)"><path d="m 20.6 23.42 c -0.25 -0.16 -1.32 -1 -1.54 -1.21 c 0.37 -0.49 0.26 -1.13 0.75 -1.48 c 0 -0.23 0 -0.23 0.1 -0.09 c 0.33 0.64 3.07 3.07 2.67 3.82 c -0.23 0.43 -1.56 -0.75 -1.99 -1.04" style="fill:#9fc83d"/></g><clipPath id="8"><path d="M 0,0 H32 V32 H0 z"/></clipPath><clipPath id="2"><path d="M 0,0 H32 V32 H0 z"/></clipPath><clipPath id="5"><path d="M 0,0 H32 V32 H0 z"/></clipPath><clipPath id="B"><path d="M 0,0 H32 V32 H0 z"/></clipPath><filter id="0" filterUnits="objectBoundingBox" x="0" y="0" width="32" height="32"><feColorMatrix type="matrix" in="SourceGraphic" values="0 0 0 0 1 0 0 0 0 1 0 0 0 0 1 0 0 0 1 0"/></filter><mask id="A"><g style="filter:url(#0)"><path d="M 0,0 H32 V32 H0 z" style="fill-opacity:0.93"/></g></mask><mask id="4"><g style="filter:url(#0)"><path d="M 0,0 H32 V32 H0 z" style="fill-opacity:0.93"/></g></mask><mask id="7"><g style="filter:url(#0)"><path d="M 0,0 H32 V32 H0 z" style="fill-opacity:0.93"/></g></mask><mask id="1"><g style="filter:url(#0)"><path d="M 0,0 H32 V32 H0 z" style="fill-opacity:0.93"/></g></mask></defs><path d="m 24.2 3.97 c 28.34 26.34 -30.2 42.94 -23.7 7.97 c 3.18 -9.23 14.6 -16.43 23.7 -7.97" style="fill:#199a8e"/><use xlink:href="#3" style="mask:url(#1)"/><path d="m 12.71 17.29 c -1.27 -1.52 -1.54 -3.39 -0.84 -4.84 c 0.85 -1.75 2.54 -2.69 4.58 -2.54 c 2.76 0.21 4.66 2.83 3.96 5.46 c -0.21 0.78 -0.46 1.26 -1.03 1.91 c -2.17 1.99 -4.87 1.85 -6.67 0.02" style="fill:#a25838"/><path d="m 4.06 24.93 c -0.04 -2 0.11 -5 1.39 -6.68 c 0.34 -0.44 1.28 -1.07 1.91 -1.3 c 3.77 0.32 6 4.12 5.36 5.77 c -0.4 0.71 -0.92 1.31 -1.35 1.55 c -0.84 0.47 -2.39 0.84 -4.53 1.1 c -0.91 -0.04 -2.31 0.55 -2.77 -0.46" style="fill:#9fc83d"/><use xlink:href="#6" style="mask:url(#4)"/><path d="m 14.79 22.1 c -0.21 -0.46 -0.41 -0.88 -0.45 -0.91 c -1.54 0.52 -2.26 -0.71 -2.51 -0.67 c -0.12 0.05 -0.71 0.22 -1.32 0.39 c -0.82 0.21 -0.92 0.53 -1.45 -0.08 c -0.44 -0.49 -0.43 -0.82 0.02 -1.91 c 0.2 -0.48 0.34 -0.94 0.29 -1.01 c -0.76 -0.95 -1.09 -0.9 -0.95 -2.13 c 0 -0.13 -0.41 -0.38 -1.05 -0.64 c -0.91 -0.37 -1.07 -0.49 -1.19 -0.89 c -0.18 -0.61 0.07 -0.87 1.45 -1.45 c 0.6 -0.25 1.09 -0.51 1.09 -0.56 c -0.86 -1.89 -0.91 -1.6 0.76 -2.08 c 0.06 -0.03 -0.03 -0.39 -0.2 -0.8 c -0.55 -1.34 -0.61 -1.64 -0.35 -2.02 c 0.3 -0.44 0.63 -0.43 2 0.04 c 2.29 1.04 1.93 0.72 2.84 -0.26 c 0.63 0.48 0.56 -0.2 1.23 -1.57 c 0.53 -1.09 0.76 -1.26 1.47 -1.1 c 0.55 0.12 0.7 0.85 0.95 1.46 c 0.22 0.53 0.47 0.96 0.57 0.96 c 1.41 0.82 1.23 1.18 3.4 0.48 c 1.98 -0.64 2.35 -0.3 1.72 1.54 c -0.21 0.61 -0.35 1.18 -0.32 1.27 c 0.75 0.96 0.07 1.81 1.9 2.67 c 0.86 0.3 1.41 0.52 1.43 1.36 c 0 0.36 -0.57 0.74 -1.79 1.18 c -0.46 0.17 -0.84 0.33 -0.84 0.37 c 0.11 1.3 0.56 1.35 -0.66 2.19 c -0.05 0.08 0.09 0.65 0.32 1.27 c 0.46 1.25 0.41 1.52 -0.31 1.77 c -0.31 0.11 -0.6 0.06 -1.3 -0.2 c -1.54 -0.56 -1.56 -0.56 -1.56 0.1 c -0.48 2.07 -0.82 0.91 -2 0.45 c -0.07 0 -0.29 0.34 -0.48 0.75 c -0.56 1.19 -0.84 1.52 -1.3 1.52 c -0.79 -0.15 -1.12 -0.87 -1.4 -1.48 m 3.38 -4.16 c 0.33 -0.17 0.9 -0.63 1.27 -1.02 c 2.07 -3.77 -0.01 -6.53 -3.34 -7.15 c -1.91 0.01 -3.35 0.86 -4.11 2.4 c -0.87 2.44 0.07 5 2.47 5.94 c 0.9 0.32 2.91 0.23 3.71 -0.17" style="fill:#ffdf45"/><path d="m 14.89 18.1 c -1.24 -0.32 -2.28 -1.15 -2.86 -2.29 c -0.45 -1.18 -0.46 -2.5 0.04 -3.5 c 0.37 -0.75 1.02 -1.48 1.48 -1.66 c 0.28 -0.11 0.34 -0.1 0.53 0.09 c 0.21 0.2 0.21 0.25 0.1 1.07 c -0.18 1.38 0.1 2.48 0.87 3.45 c 0.68 0.85 2.2 1.61 3.23 1.61 c 0.45 0 0.62 0.19 0.39 0.45 c -1.07 0.83 -2.66 1.05 -3.79 0.77" style="fill:#763926"/><use xlink:href="#9" style="mask:url(#7)"/><use xlink:href="#C" style="mask:url(#A)"/><path d="m 12.21 22.1 c -0.23 -0.49 -0.21 -0.98 -0.43 -1.46 c -0.05 -0.02 -0.05 -0.06 -0.01 -0.11 c 0.26 -0.78 0.38 -1.55 0.68 -2.36 c 0.14 -0.38 0.27 -0.75 0.27 -0.81 c 0 -0.23 -0.24 -0.22 -1 0.05 c -0.99 0.48 -1.47 0.24 -2.39 0.58 c -0.48 -0.08 -1.89 -0.18 -1.91 -0.63 c 0.07 -1.11 0.69 -0.86 0.83 -1.42 c 0.45 -0.59 1.57 -1.03 2.17 -1.3 c 0.89 -0.39 0.9 -0.39 0.9 -0.58 c 0 -0.11 -0.13 -0.2 -0.53 -0.38 c -0.71 -0.3 -1.21 -0.57 -1.72 -0.91 c -1.25 -1.02 -1.51 -2.25 -0.45 -2.41 c 0.34 -0.04 0.66 -0.11 0.71 -0.14 c 0.12 -0.09 1.68 0.24 2.45 0.52 c 1.09 0.4 1.17 0.33 0.77 -0.69 c -0.15 -0.38 -0.33 -0.98 -0.41 -1.34 c 0.12 -0.55 -0.19 -2.7 0.53 -2.71 c 1.9 -0.08 2.43 2.59 3.4 3.66 c 0.16 0 0.22 -0.08 0.45 -0.63 c 0.14 -0.34 0.45 -0.93 0.68 -1.29 c 0.12 -0.51 1.65 -1.66 2.02 -1.67 c 0.42 0 0.54 0.18 0.63 0.91 c 0.3 1.06 0.32 0.59 0.07 1.63 c -0.13 0.61 -0.37 1.36 -0.54 1.7 c -0.14 0.28 -0.2 0.63 -0.13 0.74 c 0.05 0.07 0.24 0.04 0.84 -0.18 c 1.16 -0.41 2.16 -0.59 2.64 -0.5 c 0.44 0.15 1.48 0.07 1.63 0.48 c 0.11 0.64 -0.54 0.89 -0.73 1.39 c 0 0.19 -1.19 0.96 -2.21 1.41 c -1.02 0.46 -1.01 0.54 0.07 1.06 c 1.49 0.57 2.06 1.23 2.83 2.51 c 0.19 0.88 -1.92 0.8 -2.31 0.74 c -0.68 -0.09 -1.14 -0.21 -1.92 -0.51 c -0.69 -0.27 -0.78 -0.29 -0.89 -0.18 c -0.11 0.1 -0.1 0.18 0.12 0.7 c 0.29 0.7 0.56 1.64 0.56 1.91 c 0.38 2.97 -0.9 2.58 -1.96 1.57 c -0.04 0 -0.1 -0.02 -0.14 -0.02 c -0.12 -0.02 -0.84 -1.14 -1.29 -2 c -0.41 -0.8 -0.58 -0.99 -0.73 -0.81 c -0.04 0.05 -0.25 0.45 -0.46 0.88 c -0.16 0.66 -0.91 1.16 -1.04 1.8 c -0.68 0.61 -1.51 0.87 -1.79 0.99 c -0.12 -0.04 -0.2 -0.11 -0.27 -0.18 m 4.84 -3.78 c 0.86 -0.18 1.45 -0.5 2.11 -1.18 c 0.96 -1 1.33 -1.95 1.26 -3.27 c -0.22 -2.79 -4.11 -4.3 -5.85 -3.85 c -1.62 0.48 -2.95 1.98 -3.06 3.44 c -0.07 0.92 0.07 1.98 0.36 2.54 c 0.36 0.72 1.39 1.67 2.25 2.1 c 0.64 0.32 1.99 0.42 2.93 0.23" style="fill:#fbb44c"/></svg>