<svg xmlns="http://www.w3.org/2000/svg" viewBox="0 0 32 32"><path d="m 1.84 10.17 c -11.89 38.69 51.99 19.35 22.1 -7.17 c -5.98 -5.31 -18.92 -3.27 -22.1 7.17" style="fill:#e7e7fd"/><path d="m 10.3 23.67 c -1.03 -0.48 -1.6 -1.12 -1.85 -2.09 c -0.44 -1.71 0.94 -3.64 3.87 -5.41 l 0.56 -0.34 c 0.07 -0.75 0.05 -1.52 0.16 -2.26 c 0.06 -0.38 -0.13 -0.5 -0.89 -0.63 c -1.29 -0.21 -1.87 -0.66 -1.73 -1.37 c 0.11 -0.59 0.7 -0.84 1.37 -0.56 c 0.43 0.18 1.13 0.27 1.29 0.16 c 0.09 -0.06 0.16 -0.41 0.21 -1.09 c 0.1 -1.19 0.2 -1.48 0.55 -1.67 c 0.41 -0.21 0.72 -0.16 1.04 0.15 c 0.45 0.33 0.25 0.8 0.23 1.3 c -0.07 1.21 -0.09 1.19 0.91 0.97 c 0.74 -0.16 1.02 -0.12 1.29 0.19 c 0.23 0.27 0.27 0.59 0.13 0.94 c -0.76 0.88 -1.43 0.49 -2.44 0.97 c -0.14 0.11 -0.27 1.74 -0.15 1.86 c 0.05 0.05 0.46 -0.04 1.11 -0.27 c 1.34 -0.38 2.63 -0.64 3.8 -0.11 c 1.03 0.48 1.83 1.45 2.19 2.63 c 0.22 0.76 0.23 2.3 0 3.12 c -0.28 1.02 -0.78 1.9 -1.53 2.7 c -0.78 0.82 -1.16 1.02 -1.63 0.83 c -0.37 -0.15 -0.55 -0.43 -0.55 -0.83 c 0 -0.28 0.1 -0.43 0.66 -1 c 1.09 -1.11 1.59 -2.48 1.4 -3.81 c -0.2 -1.4 -0.96 -2.16 -2.18 -2.16 c -0.61 0 -1.88 0.38 -2.87 0.86 c -0.69 0.34 -0.62 0.16 -0.89 2.24 c -0.44 3.37 -1.37 4.89 -3 4.89 c -0.38 -0.02 -0.76 -0.1 -1.04 -0.23 m 1.37 -1.78 c 0.29 -0.37 0.55 -1.14 0.77 -2.32 c 0.29 -1.54 0.14 -1.61 -1.07 -0.51 c -1.37 1.25 -1.54 2.25 -0.5 2.89 c 0.39 0.23 0.57 0.22 0.79 -0.07 m 9.41 -8.43 c -0.17 -0.15 -0.26 -0.34 -0.3 -0.63 c -0.08 -0.62 -0.31 -0.86 -1.25 -1.35 c -0.7 -0.36 -0.88 -0.49 -0.98 -0.75 c -0.16 -0.38 -0.1 -0.69 0.18 -0.96 c 0.39 -0.36 0.68 -0.34 1.61 0.12 c 1.55 0.77 2.19 1.56 2.19 2.73 c 0 0.5 -0.03 0.62 -0.23 0.81 c -0.31 0.3 -0.88 0.31 -1.22 0.02" style="fill:#6462ff"/></svg>