<svg xmlns="http://www.w3.org/2000/svg" viewBox="0 0 32 32"><path d="m 27.41 6 c 19.96 28.38 -31.96 37.41 -26.81 7.25 c 2.73 -11.99 18.81 -18.63 26.81 -7.25" style="fill:#262626"/><path d="m 26.63 16.6 c 0 5.81 -4.68 10.52 -10.45 10.52 c -5.77 0 -10.45 -4.71 -10.45 -10.52 c 0 -5.81 4.68 -10.52 10.45 -10.52 c 5.77 0 10.45 4.71 10.45 10.52" style="fill:#fbca00;fill-rule:evenodd"/><g style="fill:#262626"><path d="m 11.1 8.8 v 15.84 l 1.61 -1.4 v -13.14"/><path d="m 9.51 12.33 v 8.99 l -1.63 -1.48 v -6.13"/><path d="m 14.24 7.46 v 8.27 h 5.41 l 4.5 -3.64 l -0.96 -1.27 l -4 3.19 h -3.32 v -6.56"/><path d="m 17.34 7.67 v 5.1 h 1.41 l 3.35 -2.86 l -1.32 -1 l -1.85 1.46 v -2.28"/><path d="m 24.42 13.85 l -3.22 2.75 l 3.22 2.73 l 1.01 -1.27 l -1.72 -1.46 l 1.69 -1.5"/><path d="m 14.24 17.55 v 8.18 h 1.59 v -6.54 h 3.39 l 3.88 3.13 l 1.04 -1.25 l -4.44 -3.57"/><path d="m 17.39 20.74 v 4.97 l 1.59 -0.43 v -2.22 l 1.77 1.47 l 1.33 -1.02 l -3.39 -2.77"/></g></svg>