<svg xmlns="http://www.w3.org/2000/svg" viewBox="0 0 32 32"><path d="m 16 0.29 c 21.31 -2.4 21 31.99 -0.38 31.59 c -19.9 1.14 -21.69 -33.45 0.38 -31.59" style="fill:#ee6708"/><path d="m 7 9.52 h 18.32 c 0.75 0 1.37 0.61 1.37 1.37 v 9.26 c 0 0.76 -0.61 1.37 -1.37 1.37 h -18.32 c -0.75 0 -1.37 -0.61 -1.37 -1.37 v -9.26 c 0 -0.76 0.61 -1.37 1.37 -1.37" style="fill:#ff8c00"/><g style="fill:#fff"><path d="m 10 23.73 c -0.05 -0.07 -0.12 -1.07 -0.16 -2.38 l -0.07 -2.26 l -0.5 -0.47 c -0.86 -0.81 -1.08 -1.58 -0.68 -2.38 c 0.43 -0.85 1.01 -1.23 1.89 -1.23 c 1.14 0 2.04 0.84 2.04 1.91 c 0 0.77 -0.15 1.08 -0.87 1.77 c -0.71 0.69 -0.85 0.97 -0.7 1.4 c 0.06 0.18 0.2 0.47 0 0.68 c -0.33 0.35 -0.24 0.64 0.02 0.93 c 0.39 0.43 0.1 0.57 0.02 0.81 c -0.06 0.16 -0.11 0.45 -0.11 0.63 c 0 0.28 -0.05 0.36 -0.3 0.52 c -0.35 0.21 -0.47 0.22 -0.6 0.07 m 0.94 -6.68 c 0.26 -0.26 0.27 -0.58 0.11 -0.8 c -0.61 -0.66 -1.54 0.28 -0.95 0.77 c 0.35 0.2 0.65 0.21 0.84 0.03"/><path d="m 8.49 12.74 h 4 v 1.37 h -4"/><path d="m 14.23 12.84 h 4 v 1.37 h -4"/><path d="m 19.88 12.84 h 4 v 1.37 h -4"/><path d="m 15.72 23.6 c -0.05 -0.07 -0.12 -1.07 -0.16 -2.38 l -0.07 -2.26 l -0.5 -0.47 c -0.86 -0.81 -1.08 -1.58 -0.68 -2.38 c 0.43 -0.85 1.01 -1.23 1.89 -1.23 c 1.14 0 2.04 0.84 2.04 1.91 c 0 0.77 -0.15 1.08 -0.86 1.77 c -0.71 0.69 -0.85 0.97 -0.7 1.4 c 0.06 0.18 0.2 0.47 0 0.68 c -0.33 0.35 -0.24 0.64 0.03 0.93 c 0.38 0.43 0.1 0.57 0.01 0.81 c -0.06 0.16 -0.11 0.45 -0.11 0.63 c 0 0.28 -0.05 0.36 -0.3 0.52 c -0.34 0.21 -0.46 0.22 -0.59 0.07 m 0.94 -6.68 c 0.26 -0.26 0.27 -0.58 0.1 -0.8 c -0.61 -0.66 -1.54 0.28 -0.95 0.77 c 0.35 0.2 0.65 0.21 0.84 0.03"/><path d="m 21.3 23.79 c -0.05 -0.07 -0.13 -1.07 -0.16 -2.38 l -0.07 -2.26 l -0.5 -0.47 c -0.86 -0.81 -1.08 -1.58 -0.68 -2.39 c 0.43 -0.85 1 -1.23 1.89 -1.23 c 1.14 0 2.04 0.84 2.04 1.91 c 0 0.77 -0.15 1.08 -0.87 1.78 c -0.71 0.69 -0.85 0.97 -0.7 1.4 c 0.06 0.18 0.2 0.47 0 0.68 c -0.33 0.35 -0.24 0.63 0.02 0.93 c 0.39 0.43 0.1 0.57 0.02 0.8 c -0.06 0.16 -0.11 0.45 -0.11 0.63 c 0 0.28 -0.05 0.37 -0.3 0.52 c -0.34 0.21 -0.47 0.22 -0.59 0.07 m 0.94 -6.69 c 0.26 -0.26 0.27 -0.57 0.11 -0.8 c -0.61 -0.66 -1.54 0.28 -0.95 0.77 c 0.35 0.2 0.66 0.21 0.84 0.03"/></g><g style="fill:#6b5946"><path d="m 8.19 11.43 c 0 0.44 -0.35 0.8 -0.78 0.8 c -0.43 0 -0.78 -0.36 -0.78 -0.8 c 0 -0.44 0.35 -0.8 0.78 -0.8 c 0.43 0 0.78 0.36 0.78 0.8"/><path d="m 25.75 11.38 c 0 0.44 -0.35 0.8 -0.78 0.8 c -0.43 0 -0.78 -0.36 -0.78 -0.8 c 0 -0.44 0.35 -0.8 0.78 -0.8 c 0.43 0 0.78 0.36 0.78 0.8"/></g></svg>