<svg xmlns="http://www.w3.org/2000/svg" viewBox="0 0 32 32"><path d="m 4.09 24.48 c -20.1 -31.8 43.3 -33.3 24.3 -0.52 c -5.1 8.44 -16.91 12.55 -24.3 0.52" style="fill:#707f8f"/><path d="m 14.78 25.3 v -0.64 l -0.61 -0.04 l -0.61 -0.04 l -0.04 -0.58 l -0.04 -0.58 l -1.21 -0.08 l -0.04 -0.58 l -0.04 -0.58 l -1.21 -0.08 l -0.04 -0.58 l -0.04 -0.58 l -1.21 -0.08 l -0.04 -0.58 l -0.04 -0.58 l -1.21 -0.08 l -0.04 -1.2 l -0.04 -1.2 l -1.21 -0.08 v -5.97 l 1.21 -0.08 l 0.04 -0.58 l 0.04 -0.58 l 0.61 -0.04 l 0.61 -0.04 l 0.04 -0.58 l 0.04 -0.58 l 1.21 -0.08 l 0.04 -0.58 l 0.04 -0.58 h 10.1 l 0.08 1.16 l 0.61 0.04 l 0.61 0.04 l 0.04 0.58 l 0.04 0.58 l 0.61 0.04 l 0.61 0.04 l 0.04 0.58 l 0.04 0.58 l 1.21 0.08 v 5.97 l -1.21 0.08 l -0.04 1.2 l -0.04 1.2 l -1.21 0.08 l -0.04 0.58 l -0.04 0.58 l -0.61 0.04 l -0.61 0.04 l -0.04 0.58 l -0.04 0.58 l -0.61 0.04 l -0.61 0.04 l -0.08 1.16 l -0.61 0.04 l -0.61 0.04 l -0.08 1.16 l -0.61 0.04 l -0.61 0.04 v 1.28 h -2.5 m -0.06 -11.19 l 0.02 -1.22 h 1.29 l 0.02 0.6 l 0.02 0.6 l 0.62 0.02 l 0.63 0.02 l 0.05 1.2 h 1.21 v -1.16 l -0.62 -0.02 l -0.63 -0.02 l -0.02 -0.6 l -0.02 -0.6 l -0.63 -0.02 l -0.63 -0.02 v -1.23 l 0.63 -0.02 l 0.63 -0.02 l 0.05 -1.2 l 0.63 -0.02 l 0.62 -0.02 v -1.16 h -1.21 l -0.05 1.2 l -0.63 0.02 l -0.62 0.02 l -0.05 1.2 h -1.29 l -0.02 -1.22 l -0.02 -1.22 h -1.21 l -0.02 2.98 c -0.01 1.64 0 3 0.02 3.09 c 0.03 0.07 0.2 0.09 0.63 0.08 l 0.59 -0.02" style="fill:#0029c8"/></svg>