<svg xmlns="http://www.w3.org/2000/svg" viewBox="0 0 32 32"><path d="m 25.82 3.59 c -19.66 -14.84 -38.43 22.1 -14.52 27.53 c 15.1 5.55 29.1 -16.52 14.52 -27.53" style="fill:#a42929"/><path d="m 9.1 9.93 v 6.26 h 6.4 v -6.26 m 1.28 0 v 6.26 h 6.4 v -6.26 m -12.8 1.25 h 3.84 v 3.76 h -3.84 m 7.68 -3.76 h 3.84 v 3.76 h -3.84 m -8.96 2.5 v 6.26 h 6.4 v -6.26 m 1.28 0 v 1.25 h 1.28 v -1.25 m 0 1.25 v 1.25 h 1.28 v -1.25 m 0 0 h 1.28 v -1.25 h -1.28 m 1.28 1.25 v 1.25 h 1.28 v -1.25 m 0 0 h 1.28 v -1.25 h -1.28 m 0 2.5 v 1.25 h 1.28 v -1.25 m -1.28 1.25 h -1.28 v 1.25 h 1.28 m 0 0 v 1.25 h 1.28 v -1.25 m -2.56 0 h -1.28 v 1.25 h 1.28 m -1.28 -1.25 v -1.25 h -1.28 v 1.25 m 0 0 h -1.28 v 1.25 h 1.28 m 0 -2.5 v -1.25 h -1.28 v 1.25 m 2.56 0 h 1.28 v -1.25 h -1.28 m -8.96 -1.25 h 3.84 v 3.75 h -3.84" style="fill-opacity:0.1"/><path d="m 9.1 9.31 v 6.26 h 6.4 v -6.26 m 1.28 0 v 6.26 h 6.4 v -6.26 m -12.8 1.25 h 3.84 v 3.76 h -3.84 m 7.68 -3.76 h 3.84 v 3.76 h -3.84 m -8.96 2.51 v 6.26 h 6.4 v -6.26 m 1.28 0 v 1.25 h 1.28 v -1.25 m 0 1.25 v 1.25 h 1.28 v -1.25 m 0 0 h 1.28 v -1.25 h -1.28 m 1.28 1.25 v 1.25 h 1.28 v -1.25 m 0 0 h 1.28 v -1.25 h -1.28 m 0 2.5 v 1.25 h 1.28 v -1.25 m -1.28 1.25 h -1.28 v 1.25 h 1.28 m 0 0 v 1.25 h 1.28 v -1.25 m -2.56 0 h -1.28 v 1.25 h 1.28 m -1.28 -1.25 v -1.25 h -1.28 v 1.25 m 0 0 h -1.28 v 1.25 h 1.28 m 0 -2.51 v -1.25 h -1.28 v 1.25 m 2.56 0 h 1.28 v -1.25 h -1.28 m -8.96 -1.25 h 3.84 v 3.76 h -3.84" style="fill:#f9f9f9"/></svg>