<svg xmlns="http://www.w3.org/2000/svg" viewBox="0 0 32 32"><path d="m 31.86 15.92 c 2.41 -21.2 -32.1 -20.89 -31.7 0.38 c -1.14 19.78 33.57 21.56 31.7 -0.38" style="fill:#00c00f"/><path d="m 9.22 10.73 h 14.93 c 1.12 0 2 0.9 2 2 v 8.61 c 0 1.11 -0.9 2 -2 2 h -14.93 c -1.12 0 -2 -0.91 -2 -2 v -8.61 c 0 -1.12 0.9 -2 2 -2" style="fill:#814b14"/><g style="fill:#def606"><path d="m 15.1 16.34 c -0.42 -0.41 -0.38 -0.85 0.11 -1.13 c 0.3 -0.18 0.6 -0.21 2.55 -0.27 c 1.21 -0.04 2.41 -0.07 2.67 -0.08 c 0.61 -0.01 0.61 -0.13 0.05 -0.82 c -0.68 -0.84 -0.77 -0.99 -0.77 -1.38 c 0 -0.68 0.7 -0.87 1.41 -0.37 c 0.16 0.11 0.73 0.7 1.27 1.31 c 1.72 1.95 1.77 2.05 1.28 2.69 l -0.27 0.35 h -7.99"/><path d="m 23.3 17.84 c 0.41 0.41 0.37 0.85 -0.11 1.13 c -0.31 0.18 -0.6 0.21 -2.55 0.27 c -1.21 0.04 -2.41 0.07 -2.68 0.08 c -0.6 0.01 -0.61 0.13 -0.05 0.82 c 0.68 0.84 0.77 0.99 0.77 1.38 c 0 0.68 -0.7 0.86 -1.41 0.37 c -0.16 -0.11 -0.73 -0.7 -1.27 -1.31 c -1.72 -1.95 -1.77 -2.05 -1.28 -2.68 l 0.27 -0.35 h 7.99"/></g><path d="m 7.72 14.1 h 2.95 c 1.11 0 2 0.9 2 2 v 1.79 c 0 1.12 -0.91 2 -2 2 h -2.95 c -1.11 0 -2 -0.9 -2 -2 v -1.79 c 0 -1.12 0.91 -2 2 -2" style="fill:#ab825a;fill-opacity:0.98"/><path d="m 11.69 17.1 c 0 0.71 -0.6 1.29 -1.35 1.29 c -0.74 0 -1.35 -0.57 -1.35 -1.29 c 0 -0.71 0.61 -1.29 1.35 -1.29 c 0.75 0 1.35 0.57 1.35 1.29" style="fill:#def606"/></svg>