<svg xmlns="http://www.w3.org/2000/svg" viewBox="0 0 32 32"><path d="m 21.2 30.75 c -15.93 6.21 -24.1 -11.2 -20 -22 c 2.83 -7.56 14.1 -11.32 23.3 -5.96 c 11.51 6.78 9.1 23.2 -3.22 27.99" style="fill:#70706e"/><path d="m 26.66 16.34 c 0 5.81 -4.81 10.53 -10.75 10.53 c -5.93 0 -10.74 -4.71 -10.74 -10.53 c 0 -5.81 4.81 -10.53 10.74 -10.53 c 5.93 0 10.75 4.71 10.75 10.53" style="fill:#4e4e4e"/><g style="fill:#fff"><path d="m 19.83 23.25 c 2.47 -1.34 4.15 -3.94 4.15 -6.91 c 0 -4.36 -3.61 -7.89 -8.1 -7.89 c -4.45 0 -8.1 3.54 -8.1 7.89 c 0 2.97 1.68 5.55 4.15 6.91 c -1.97 -1.25 -3.28 -3.44 -3.28 -5.9 c 0 -3.88 3.21 -7 7.18 -7 c 3.96 0 7.19 3.14 7.19 7 c 0 2.48 -1.3 4.65 -3.28 5.9"/><path d="m 21.43 19.88 c 0.38 -0.76 0.58 -1.63 0.58 -2.54 c 0 -3.28 -2.69 -5.92 -6 -5.92 c -3.34 0 -6 2.63 -6 5.92 c 0 0.91 0.21 1.76 0.58 2.54 c -0.1 -0.41 -0.15 -0.83 -0.15 -1.28 c 0 -3.04 2.51 -5.5 5.61 -5.5 c 3.1 0 5.61 2.46 5.61 5.5 c 0 0.44 -0.05 0.87 -0.15 1.28"/><path d="m 15.92 22.3 c 2.18 0 3.95 -1.72 3.95 -3.87 c 0 -0.75 -0.21 -1.46 -0.61 -2.05 c 0.85 0.83 1.36 1.97 1.36 3.24 c 0 2.54 -2.11 4.61 -4.7 4.61 c -2.59 0 -4.7 -2.07 -4.7 -4.61 c 0 -1.27 0.52 -2.41 1.36 -3.24 c -0.38 0.59 -0.6 1.3 -0.6 2.05 c 0 2.13 1.76 3.87 3.95 3.87"/><path d="m 18.61 17.66 c 0 1.45 -1.21 2.63 -2.69 2.63 c -1.48 0 -2.68 -1.19 -2.68 -2.63 c 0 -1.45 1.21 -2.63 2.68 -2.63 c 1.48 0 2.69 1.18 2.69 2.63"/></g></svg>