<svg xmlns="http://www.w3.org/2000/svg" viewBox="0 0 32 32"><path d="m 6.12 5.86 c -26.1 35.2 45.61 34.66 19.77 0.14 c -4.67 -6.1 -14.37 -9 -19.77 -0.14" style="fill:#49545f"/><path d="m 14.79 25.38 l 1.19 -0.34 l 1.03 0.3 c 6.14 1.88 -6.81 1 -2.22 0.04 m -2.4 -0.64 c -1.07 -0.68 -1.94 -1.77 -2.29 -2.92 c -0.2 -0.65 -0.21 -0.64 0.36 -0.59 c 0.48 0.05 0.59 0.12 1.84 1.18 c 0.73 0.62 1.66 1.33 2.05 1.57 c 0.39 0.24 0.71 0.49 0.71 0.55 c 0 0.12 -1 0.48 -1.6 0.57 c -0.34 0.05 -0.47 0.01 -1.07 -0.37 m 5.62 0.27 c -0.57 -0.13 -1.24 -0.38 -1.24 -0.46 c 0.99 -0.67 2.05 -1.41 2.96 -2.19 c 1.15 -0.99 1.29 -1.08 1.73 -1.13 c 0.58 -0.05 0.6 0.02 0.26 0.94 c -0.38 1.05 -1.62 2.39 -2.62 2.83 c -0.41 0.18 -0.36 0.18 -1.1 0 m -5.86 -3.74 c 1.11 -0.45 2.55 -0.76 3.66 -1.06 c 1.45 0.45 2.72 0.44 4 1 c 0.08 0.11 -1.11 1.27 -1.89 1.84 c -0.8 0.59 -1.78 1.16 -1.98 1.16 c -0.84 -0.35 -3.64 -2.38 -3.79 -2.95 m -1.17 -0.96 c -0.87 -0.81 -1.38 -1.69 -1.58 -2.76 c -0.06 -0.32 -0.08 -0.69 -0.05 -0.83 c 0.03 -0.45 0.46 -0.18 0.8 -0.11 c 0.7 0.14 0.79 0.19 1.67 0.95 c 0.82 0.7 2.46 1.75 3 1.93 c 0.48 0.16 -0.08 0.43 -1.68 0.82 c -1.68 0.41 -1.72 0.41 -2.16 0 m 8.82 0.24 c -0.8 -0.16 -2.55 -0.65 -2.76 -0.78 c -0.18 -0.12 -0.18 -0.14 0.13 -0.29 c 1.18 -0.61 1.99 -1.14 2.86 -1.86 c 0.88 -0.73 1.06 -0.84 1.63 -0.97 c 0.83 -0.19 0.96 -0.14 0.96 0.36 c 0 1.06 -0.63 2.36 -1.54 3.18 c -0.54 0.49 -0.57 0.5 -1.27 0.36 m -5.95 -2.26 c -0.7 -0.44 -1.84 -1.46 -1.76 -1.57 c 0.04 -0.05 0.4 -0.14 0.8 -0.2 c 1.1 -0.2 2.02 -0.47 3.1 -0.77 c 0.97 0.28 1.95 0.57 2.94 0.74 c 0.51 0.09 0.93 0.2 0.93 0.25 c 0 0.17 -0.78 0.89 -1.46 1.35 c -0.9 0.61 -2.16 1.24 -2.45 1.24 c -0.76 -0.22 -1.41 -0.61 -2.11 -1.04 m -2.81 -2.44 c -0.47 -0.43 -0.69 -1.18 -0.67 -2.27 c 0.02 -1.21 0.04 -1.24 0.8 -0.97 c 0.44 0.15 0.82 0.4 1.39 0.91 c 0.67 0.76 1.79 1.05 2.45 1.75 c 0 0.13 -1.46 0.53 -2.69 0.73 c -0.58 0.14 -0.9 0.19 -1.28 -0.15 m 8.32 0.11 c -1.03 -0.19 -2.34 -0.55 -2.42 -0.67 c -0.04 -0.04 0.3 -0.29 0.74 -0.53 c 1.18 -0.52 2.04 -1.89 3.22 -2.18 c 0.28 -0.07 0.55 -0.09 0.59 -0.05 c 0.04 0.04 0.07 0.58 0.07 1.21 c -0.01 1.21 -0.19 1.78 -0.7 2.21 c -0.27 0.23 -0.34 0.23 -1.5 0.02 m -6.55 -3.2 c 0 -0.05 0.11 -0.12 0.25 -0.14 c 0.82 -0.15 1.8 -0.36 2.33 -0.52 c 0.61 -0.18 0.62 -0.18 1.25 0 c 0.74 0.41 1.17 0.35 2.45 0.7 c 0 0.38 -2.57 2.12 -3.12 2.11 c -0.77 -0.25 -3.05 -1.61 -3.15 -2.15 m -0.78 -0.82 c -0.32 -0.33 -0.22 -2.08 0.13 -2.45 c 0.49 0 2.46 1.43 2.85 1.91 c 0 0.13 -0.36 0.25 -1.45 0.5 c -1.03 0.23 -1.33 0.24 -1.53 0.04 m 6.67 0.04 c -0.84 -0.18 -1.82 -0.46 -1.82 -0.54 c 0 -0.04 0.25 -0.23 0.55 -0.42 c 0.74 -0.39 1.2 -1.15 1.96 -1.5 c 0.38 -0.2 0.36 -0.16 0.54 0.19 c 0.26 0.54 0.32 1.61 0.11 2.03 c -0.29 0.52 -0.81 0.35 -1.34 0.24 m -4.7 -2.18 c 0.39 -0.76 0.98 -0.72 1.96 -1.11 c 0.34 0.16 2.17 0.8 2.04 1.04 c -0.25 0.39 -1.74 1.43 -2.04 1.43 c -0.67 -0.3 -1.52 -0.71 -1.96 -1.35 m -0.73 -0.92 c -0.28 -0.67 0.04 -1.41 0.51 -1.9 c 0.5 -0.01 1.77 1.07 1.39 1.33 c -0.27 0.18 -1.5 0.68 -1.65 0.68 c -0.06 0 -0.18 -0.05 -0.25 -0.11 m 4.33 -0.18 c -0.76 -0.33 -0.94 -0.44 -0.94 -0.59 c 0 -0.18 1.16 -1.18 1.37 -1.18 c 0.31 0 0.74 0.93 0.7 1.52 c -0.04 0.62 -0.2 0.66 -1.13 0.25 m -2.48 -2.11 c 0 -0.36 0.3 -0.85 0.63 -1.04 c 0.27 -0.15 0.29 -0.14 0.6 0.11 c 0.44 0.36 0.61 0.87 0.42 1.27 c -0.16 0.32 -0.63 0.84 -0.76 0.84 c -0.41 -0.23 -0.88 -0.73 -0.89 -1.18" style="fill:#75283d"/><path d="m 9.1 19.71 c -0.94 0.29 -1.67 1.35 -2.2 2.02 c -0.48 0.67 0.99 -0.74 2.48 -0.75 c 0.92 0 1.56 -0.27 1.56 -0.27 c -0.57 -0.55 -1.15 -1.21 -1.84 -1" style="fill:#ede7aa"/><g style="fill:#6a9d47"><path d="m 10.49 25.38 c -0.95 0.67 -1.68 1.63 -1.96 2.57 c -0.09 0.3 -0.07 0.32 0.23 0.32 c 1.97 -0.94 1.9 -2.31 4.39 -2.27 l -0.71 -0.79 c -0.58 -0.65 -1.3 -0.28 -1.94 0.17"/><path d="m 21.1 25.43 c 0.99 0.66 1.75 1.59 2.04 2.52 c 0.09 0.29 0.07 0.32 -0.24 0.32 c -2.05 -0.92 -1.98 -2.27 -4.57 -2.23 l 0.74 -0.78 c 0.6 -0.63 1.36 -0.27 2.02 0.17"/><path d="m 19.6 26.1 c 0.98 0.74 1.28 1.91 1.57 2.95 c 0.09 0.33 0.07 0.36 -0.24 0.36 c -2 -1.04 -1.95 -2.54 -4.5 -2.5 l 0.73 -0.87 c 0.6 -0.71 1.79 -0.43 2.44 0.06"/><path d="m 12 25.94 c -0.91 0.75 -1.04 2 -1.3 3.08 c -0.09 0.34 -0.07 0.37 0.22 0.37 c 1.89 -1.06 1.82 -2.6 4.2 -2.56 l -0.68 -0.89 c -0.55 -0.73 -1.83 -0.5 -2.44 0.01"/><path d="m 15.65 26.71 c -0.04 1.13 -0.47 2.25 -1.17 3 c -0.82 0.9 -1.52 -3.38 -0.77 -3.79 c 0.85 -0.46 1.96 -0.18 1.93 0.79"/><path d="m 15.29 26.54 c 0.04 0.51 1.35 4.16 1.93 3.15 c 0.7 -2.21 1.11 -1.78 0.55 -3.64 c -0.9 -0.43 -2.61 -0.58 -2.48 0.49"/></g><g style="fill:#fff8dc"><path d="m 10.53 11.79 c 0.44 0.45 1.04 0.76 1.61 0.82 c 0.85 0.05 -1.79 -2 -1.79 -2 c -0.19 0.56 -0.14 0.86 0.18 1.2"/><path d="m 21.76 11.78 c -0.49 0.45 -1.13 0.73 -1.71 0.75 c -0.86 -0.02 1.98 -2.04 1.98 -2.04 c 0.15 0.63 0.08 0.95 -0.27 1.29"/><path d="m 11.93 8.72 c 0.37 0.47 0.91 0.82 1.45 0.93 c 0.8 0.13 -1.48 -2.07 -1.48 -2.07 c -0.24 0.5 -0.23 0.79 0.04 1.13"/><path d="m 20.3 8.57 c -0.36 0.43 -0.88 0.74 -1.4 0.85 c -0.77 0.12 1.43 -1.89 1.43 -1.89 c 0.23 0.46 0.23 0.72 -0.03 1.04"/><path d="m 18.2 5.75 c -0.2 0.59 -0.57 1.1 -0.98 1.36 c -0.63 0.34 0.75 -2.58 0.75 -2.58 c 0.31 0.48 0.37 0.79 0.23 1.23"/><path d="m 13.69 5.75 c 0.22 0.57 0.63 1.05 1.08 1.29 c 0.69 0.32 -0.83 -2.46 -0.83 -2.46 c -0.35 0.46 -0.41 0.75 -0.25 1.17"/></g><path d="m 22.9 19.58 c 0.96 0.31 1.7 1.41 2.25 2.11 c 0.5 0.7 -1.01 -0.77 -2.53 -0.78 c -0.94 0 -1.6 -0.28 -1.6 -0.28 c 0.58 -0.58 1.18 -1.26 1.88 -1.05" style="fill:#ede7aa"/><g style="fill:#fffacd"><path d="m 9.7 15 c -0.69 0.09 -1.57 0.26 -1.83 1.3 c -0.44 0.47 0.79 -0.45 1.81 -0.22 c 0.63 0.14 1.11 0.02 1.11 0.02 c -0.3 -0.54 -0.59 -1.17 -1.09 -1.11"/><path d="m 22.2 15.18 c 0.69 0.09 1.4 0.4 1.83 1.28 c 0.44 0.46 -0.79 -0.44 -1.81 -0.21 c -0.63 0.14 -1.11 0.02 -1.11 0.02 c 0.3 -0.53 0.59 -1.14 1.09 -1.09"/></g></svg>