<svg xmlns="http://www.w3.org/2000/svg" viewBox="0 0 32 32"><path d="m 15.55 31.82 c -3.29 -0.25 -7.1 -1.83 -9.66 -4 c -3.15 -2.66 -5.36 -6.75 -5.8 -10.78 c -0.52 -5.32 2.84 -11 6.46 -13.75 c 1.81 -1.32 4.18 -2.37 6.38 -2.83 c 5.72 -1.2 11.52 1.07 15.34 6 c 2.29 2.95 3.41 5.93 3.55 9.45 c 0.17 4.22 -1.71 8.75 -4.91 11.8 c -3.6 2.88 -7.25 4.43 -11.34 4.14" style="fill:#4494cf"/><path d="m 9.11 9.32 v 3.73 l 3.4 4.35 l 1.55 -8.1 m 0.62 0 l -0.77 4.35 l 9.12 -4.35 m 0.93 0.31 l -6.8 3.26 l 6.8 3.26 m -14.84 -1.86 v 6.21 h 4.95 m 5.88 -5.59 l 2.16 9.32 h 1.86 v -7.46 m -3.71 2.18 l -4.33 5.28 h 5.56 m -12.36 -3.11 v 3.11 h 5.88 l 2.47 -3.11" style="fill-opacity:0.1"/><path d="m 8.49 8.7 v 3.73 l 3.4 4.35 l 1.55 -8.1 m 0.62 0 l -0.77 4.35 l 9.12 -4.35 m 0.93 0.31 l -6.8 3.26 l 6.8 3.26 m -14.84 -1.86 v 6.21 h 4.95 m 5.87 -5.59 l 2.16 9.32 h 1.86 v -7.46 m -3.71 2.18 l -4.33 5.28 h 5.56 m -12.36 -3.11 v 3.11 h 5.87 l 2.47 -3.11" style="fill:#f9f9f9"/></svg>