<svg xmlns="http://www.w3.org/2000/svg" viewBox="0 0 32 32"><path d="m 12.76 0.65 c -16.5 2.46 -17.1 26.99 -1.13 30.7 c 12.95 3.81 23.63 -10 19.44 -20.34 c -1.97 -6.92 -10.15 -12.52 -18.31 -10.36" style="fill:#696969"/><path d="m 28.53 16.41 c 0 6.79 -5.57 12.3 -12.44 12.3 c -6.87 0 -12.44 -5.5 -12.44 -12.3 c 0 -6.79 5.57 -12.3 12.44 -12.3 c 6.87 0 12.44 5.51 12.44 12.3" style="fill:#fdd036"/><path d="m 22.86 13.25 c 0 2.88 -2.95 5.21 -6.58 5.21 c -3.64 0 -6.59 -2.33 -6.59 -5.21 c 0 -2.88 2.95 -5.21 6.59 -5.21 c 3.64 0 6.58 2.33 6.58 5.21" style="fill:#fff"/><path d="m 7.38 25.36 c -1.04 -1.13 -1 -0.98 -0.5 -2.32 c 0.58 -1.54 0.65 -2.04 0.79 -5.1 c 0.14 -3.15 0.23 -3.82 0.73 -5.33 c 0.54 -1.64 0.97 -2.41 1.93 -3.43 c 0.93 -0.99 1.86 -1.59 2.99 -1.9 c 1.13 -0.32 4.57 -0.3 5.63 0.04 c 1.16 0.36 1.68 0.68 2.59 1.58 c 1.42 1.39 1.94 2.36 2.38 4.43 c 0.36 1.68 0.48 2.79 0.56 5.18 c 0.07 2.21 0.18 2.78 0.91 4.55 c 0.3 0.73 0.36 1 0.28 1.19 c -0.16 0.35 -1.24 1.52 -1.4 1.52 c -0.08 0 -0.19 -0.25 -0.26 -0.59 c -0.19 -0.93 -0.9 -2.54 -1.46 -3.28 c -0.28 -0.38 -0.76 -0.86 -1.06 -1.08 c -0.52 -0.38 -0.59 -0.4 -1.44 -0.39 c -0.72 0.01 -1.09 0.08 -1.94 0.39 c -0.93 0.34 -1.18 0.38 -2.11 0.38 c -0.88 0 -1.23 -0.07 -2.16 -0.38 c -1.81 -0.6 -2.59 -0.45 -3.73 0.72 c -0.8 0.82 -1.48 2.16 -1.72 3.38 c -0.09 0.5 -0.22 0.95 -0.27 1 c -0.06 0.07 -0.34 -0.15 -0.71 -0.56 m 5.16 -11 c 0.66 -0.34 0.91 -0.73 0.97 -1.47 c 0.13 -1.51 -1.17 -2.51 -2.41 -1.86 c -1.31 0.68 -1.31 2.66 0 3.33 c 0.27 0.14 0.6 0.25 0.73 0.25 c 0.13 0 0.45 -0.11 0.72 -0.25 m -1.18 -1.38 c -0.15 -0.23 -0.16 -0.34 -0.06 -0.57 c 0.15 -0.34 0.36 -0.43 0.73 -0.34 c 0.33 0.08 0.47 0.52 0.3 0.92 c -0.18 0.39 -0.72 0.38 -0.97 -0.01 m 10 1.23 c 0.5 -0.38 0.7 -0.82 0.7 -1.54 c 0 -0.96 -0.63 -1.73 -1.51 -1.84 c -0.93 -0.12 -1.93 0.84 -1.93 1.88 c 0 1.04 1 2 1.94 1.86 c 0.24 -0.04 0.6 -0.2 0.8 -0.35 m -1.43 -1.22 c -0.27 -0.59 0.28 -1.21 0.78 -0.89 c 0.22 0.14 0.3 0.78 0.12 1 c -0.22 0.27 -0.76 0.2 -0.9 -0.11" style="fill:#454545"/><path d="m 14.91 18.74 c -1.09 -0.23 -1.8 -0.65 -2.25 -1.33 l -0.24 -0.37 h 7.36 l -0.47 0.51 c -0.84 0.91 -1.84 1.29 -3.34 1.25 c -0.46 -0.01 -0.93 -0.04 -1.05 -0.06" style="fill:#ff8c00"/><path d="m 11.79 16.98 c -1.09 -0.05 -1.27 -0.11 -1.46 -0.41 c -0.25 -0.41 -0.22 -0.71 0.09 -0.98 c 0.27 -0.23 0.45 -0.27 1.96 -0.38 c 0.89 -0.06 1.04 -0.15 1.7 -1.05 c 0.6 -0.8 0.91 -1.12 1.25 -1.26 c 0.38 -0.16 1.09 -0.16 1.4 0 c 0.25 0.13 0.91 0.81 1.42 1.45 c 0.45 0.57 0.62 0.64 1.79 0.78 c 1.77 0.2 1.86 0.24 1.96 0.86 c 0.04 0.24 0 0.36 -0.18 0.57 c -0.21 0.25 -0.28 0.27 -1.17 0.37 c -0.85 0.09 -7.19 0.13 -8.77 0.04" style="fill:#ffd600"/></svg>