<svg xmlns="http://www.w3.org/2000/svg" viewBox="0 0 32 32"><path d="m 7.74 29.6 c -28.1 -24.1 29.68 -47.2 23.74 -9.99 c -1.3 8.16 -16.2 16.47 -23.74 9.99" style="fill:#218b21"/><g style="fill:#ff1414"><path d="m 10 15.83 c -0.11 -0.08 -0.09 -0.11 0.32 -0.57 c 0.58 -0.66 0.96 -1.26 0.96 -1.54 c 0 -0.26 -0.66 -1.65 -1.09 -2.27 c -0.16 -0.23 -0.29 -0.46 -0.29 -0.5 c 0 -0.16 0.32 -0.21 1.18 -0.21 h 0.86 l 0.04 0.43 c 0.05 0.49 0.2 0.74 0.43 0.74 c 0.17 0 0.18 -0.05 0.24 -0.64 c 0.04 -0.45 0.13 -0.52 0.57 -0.52 c 0.68 0 0.74 0.21 0.21 0.72 c -0.35 0.34 -0.59 0.71 -0.7 1.08 c -0.09 0.31 0.05 0.7 0.7 1.99 c 0.36 0.73 0.61 1.27 0.58 1.32 c -0.04 0.06 -0.3 0.07 -1.07 0.04 c -0.56 -0.02 -1.04 -0.05 -1.05 -0.06 c -0.02 -0.02 0.02 -0.13 0.07 -0.25 c 0.13 -0.3 0.13 -0.37 -0.04 -0.69 c -0.19 -0.38 -0.34 -0.45 -0.52 -0.24 c -0.18 0.2 -0.24 0.55 -0.16 0.85 c 0.05 0.19 0.05 0.25 -0.03 0.31 c -0.14 0.12 -1.07 0.14 -1.21 0.03"/><path d="m 15.33 15.85 l -0.43 -0.04 l 0.01 -0.25 c 0.01 -0.14 0.04 -0.69 0.07 -1.23 c 0.05 -0.9 0 -2.62 -0.09 -3.25 c -0.04 -0.21 -0.02 -0.23 0.13 -0.29 c 0.09 -0.04 0.38 -0.06 0.64 -0.06 c 0.41 0 0.51 0.02 0.8 0.18 c 0.18 0.1 0.36 0.18 0.41 0.18 c 0.04 0 0.23 -0.1 0.42 -0.23 c 0.44 -0.3 0.84 -0.32 1.09 -0.07 c 0.24 0.24 0.28 0.74 0.07 1.04 c -0.12 0.18 -0.19 0.22 -0.4 0.23 c -0.17 0.01 -0.34 -0.02 -0.52 -0.11 c -0.32 -0.16 -0.52 -0.12 -0.65 0.13 c -0.15 0.29 -0.23 1.14 -0.21 2.2 c 0.02 0.86 0.04 0.99 0.16 1.2 c 0.13 0.21 0.13 0.23 0.03 0.29 c -0.15 0.07 -1.01 0.12 -1.53 0.07"/><path d="m 20.3 15.94 c -0.13 -0.04 -0.33 -0.16 -0.46 -0.27 c -0.47 -0.38 -0.44 -0.23 -0.46 -2.14 l -0.02 -1.73 l -0.18 -0.34 l -0.18 -0.34 l 0.53 -0.65 c 0.29 -0.36 0.59 -0.77 0.66 -0.9 c 0.07 -0.14 0.2 -0.29 0.29 -0.35 c 0.26 -0.17 0.36 -0.02 0.39 0.67 c 0.01 0.32 0.05 0.62 0.08 0.67 c 0.03 0.05 0.23 0.16 0.46 0.25 c 0.22 0.08 0.44 0.18 0.47 0.22 c 0.11 0.13 -0.16 0.37 -0.55 0.48 c -0.26 0.07 -0.35 0.13 -0.4 0.26 c -0.08 0.21 -0.15 2.21 -0.09 2.67 c 0.06 0.46 0.14 0.56 0.51 0.6 c 0.37 0.04 0.42 0.16 0.18 0.47 c -0.29 0.38 -0.83 0.57 -1.22 0.43"/></g><g style="fill:#fff"><path d="m 14.47 25.48 c -0.31 -0.11 -0.49 -0.28 -0.82 -0.79 c -0.15 -0.23 -0.36 -0.46 -0.47 -0.52 c -0.11 -0.05 -0.36 -0.21 -0.56 -0.35 c -0.42 -0.28 -0.75 -0.76 -0.99 -1.44 c -0.13 -0.37 -0.14 -0.5 -0.13 -1.48 c 0.02 -1.66 0.23 -2.46 0.82 -3.06 c 0.32 -0.32 0.59 -0.45 1.11 -0.52 c 0.64 -0.09 1.2 -0.02 1.68 0.23 c 1.01 0.52 1.35 1.23 1.41 2.91 c 0.03 0.68 0.01 1.02 -0.07 1.43 c -0.2 1.06 -0.34 1.29 -1.14 1.93 c -0.32 0.25 -0.57 0.5 -0.57 0.54 c 0 0.11 0.29 0.36 0.63 0.55 c 0.45 0.26 0.45 0.47 0 0.6 c -0.3 0.08 -0.61 0.07 -0.9 -0.03 m 0.19 -2.14 c 0.38 -0.22 0.52 -0.61 0.64 -1.72 c 0.09 -0.82 0.08 -1.27 -0.04 -2.12 c -0.11 -0.8 -0.22 -1.08 -0.55 -1.3 c -0.66 -0.45 -1.38 -0.17 -1.62 0.64 c -0.2 0.67 -0.16 3 0.07 3.76 c 0.12 0.41 0.48 0.82 0.77 0.88 c 0.27 0.06 0.46 0.02 0.73 -0.13"/><path d="m 17.85 23.5 l -0.32 -0.22 v -3.68 l -0.25 -0.16 c -0.14 -0.09 -0.25 -0.21 -0.25 -0.27 c 0 -0.06 0.12 -0.21 0.27 -0.32 c 0.2 -0.15 0.34 -0.32 0.5 -0.65 c 0.17 -0.34 0.26 -0.45 0.38 -0.48 c 0.34 -0.09 0.52 0.18 0.52 0.79 c 0 0.25 0.02 0.41 0.07 0.41 c 0.14 0 0.68 0.27 0.68 0.34 c 0 0.07 -0.53 0.34 -0.67 0.34 c -0.09 0 -0.15 1.02 -0.13 2.24 c 0.03 1.22 0.04 1.27 0.46 1.27 c 0.18 0 0.39 0.13 0.39 0.24 c 0 0.18 -0.52 0.38 -1.02 0.38 c -0.26 0 -0.37 -0.04 -0.64 -0.23"/></g></svg>