<svg xmlns="http://www.w3.org/2000/svg" viewBox="0 0 32 32"><path d="m 31.87 16.1 c 2.41 -21.1 -32.1 -20.81 -31.71 0.38 c -1.14 19.71 33.58 21.49 31.71 -0.38" style="fill:#d0d2e5"/><g style="fill:#3c4597"><path d="m 5 19.29 c -1.67 -0.52 -2.32 -3.32 -1.09 -4.71 c 0.55 -0.62 1.07 -0.82 2.11 -0.83 c 1.23 0 1.75 0.23 1.8 0.83 c 0.03 0.38 0.02 0.4 -0.21 0.34 c -1.22 -0.34 -1.95 -0.32 -2.5 0.1 c -0.44 0.33 -0.6 0.84 -0.55 1.74 c 0.06 1.03 0.53 1.61 1.44 1.74 c 0.59 0.09 0.92 -0.2 0.87 -0.78 c -0.03 -0.32 -0.09 -0.41 -0.38 -0.54 c -0.29 -0.13 -0.35 -0.21 -0.35 -0.5 v -0.35 c 0.61 0 1.21 0 1.81 0 v 2.62 c -0.45 0.64 -2.03 0.58 -2.93 0.34"/><path d="m 10.46 19.33 c -0.04 -0.04 -0.08 -0.48 -0.08 -0.98 c 0 -1.17 -0.06 -1.36 -0.96 -2.96 c -0.41 -0.74 -0.75 -1.39 -0.75 -1.46 c 0 -0.07 0.18 -0.13 0.46 -0.13 c 0.53 0 0.68 0.13 1.28 1.07 c 0.21 0.33 0.43 0.63 0.49 0.66 c 0.06 0.04 0.29 -0.2 0.51 -0.54 c 0.67 -1.02 0.86 -1.19 1.39 -1.19 c 0.25 0 0.46 0.03 0.46 0.06 c 0 0.11 -0.56 1.16 -1.14 2.12 c -0.56 0.95 -0.57 0.98 -0.59 1.85 c -0.02 1.38 -0.07 1.51 -0.58 1.54 c -0.23 0.02 -0.46 0 -0.5 -0.04"/><path d="m 14.34 19.3 c -0.18 -0.11 -0.29 -3.79 -0.15 -4.81 c 0.04 -0.57 0.02 -0.63 0.57 -0.69 c 0.74 -0.08 2.16 0.06 2.54 0.25 c 0.44 0.22 0.66 0.66 0.66 1.31 c 0.02 0.65 -0.38 0.87 -0.61 1.38 c 0.02 0.04 0.29 0.57 0.6 1.2 c 0.31 0.63 0.54 1.21 0.51 1.29 c -0.34 0.24 -0.64 0.15 -1.08 0.15 l -0.42 -0.9 c -0.44 -0.94 -0.8 -1.33 -1.17 -1.28 c -0.25 0.04 -0.36 0.49 -0.38 1.47 c 0 0.44 -0.05 0.61 -0.17 0.66 c -0.28 0.04 -0.64 0.11 -0.89 -0.03 m 2 -3.12 c 0.78 -0.4 0.48 -1.48 -0.4 -1.41 c -0.38 0.03 -0.4 0.05 -0.48 0.5 c -0.17 0.9 0.18 1.26 0.88 0.9"/><path d="m 20.75 19.22 c -0.89 -0.43 -1.11 -1.19 -1.06 -3.68 l 0.03 -1.68 l 0.5 -0.03 c 0.62 -0.04 0.58 -0.16 0.67 2.3 c 0.06 1.68 0.09 1.87 0.29 2.09 c 0.37 0.39 1.1 0.28 1.38 -0.21 c 0.08 -0.15 0.15 -0.95 0.19 -2.19 l 0.06 -1.95 c 0.44 -0.01 0.94 -0.02 1.04 0.32 c 0.05 0.17 0.07 1.12 0.04 2.09 c -0.07 2.09 -0.2 2.46 -1.01 2.88 c -0.57 0.3 -1.58 0.33 -2.13 0.07"/><path d="m 25.92 19.29 c -0.44 -0.13 -0.71 -0.41 -0.71 -0.73 c 0 -0.16 0.02 -0.31 0.06 -0.34 c 0.03 -0.04 0.42 0.03 0.86 0.14 c 0.6 0.21 1.62 0.19 1.64 -0.55 c 0 -0.37 -0.25 -0.55 -1.17 -0.85 c -0.43 -0.14 -0.83 -0.36 -1.05 -0.57 c -0.31 -0.31 -0.34 -0.4 -0.34 -0.97 c 0 -0.76 0.28 -1.25 0.88 -1.54 c 0.53 -0.25 1.56 -0.25 2.09 0 c 0.34 0.16 0.4 0.25 0.43 0.59 c 0.05 0.63 -0.72 0.25 -1.28 0.24 c -0.6 -0.01 -0.75 0.03 -0.95 0.21 c -0.46 0.45 -0.13 0.76 1.18 1.13 c 0.32 0.09 0.75 0.3 0.96 0.48 c 0.73 0.73 0.37 2.26 -0.43 2.68 c -0.39 0.2 -1.61 0.24 -2.16 0.08"/></g></svg>