<svg xmlns="http://www.w3.org/2000/svg" viewBox="0 0 32 32"><path d="m 6.15 28.52 c 18.93 14.79 38.56 -22 15.1 -27.42 c -14.75 -5.52 -29.2 16.46 -15.1 27.42" style="fill:#ecd6e0"/><path d="m 8.1 23.64 l -0.29 -0.3 v -6.27 l 0.29 -0.29 c 0.39 -0.41 1.04 -0.41 1.43 0 c 0.28 0.29 0.29 0.35 0.34 2.72 l 0.06 2.43 l 12.71 0.12 l 0.23 0.27 c 0.32 0.39 0.29 0.99 -0.07 1.34 l -0.29 0.28 h -14.1 m 3.55 -3.95 l -0.29 -0.28 v -5 c 0 -3.76 0.04 -5.06 0.15 -5.2 c 0.34 -0.43 0.55 -0.45 5.63 -0.45 h 4.98 l 0.34 0.34 l 0.35 0.34 v 10 l -0.29 0.28 l -0.29 0.28 h -10.29 m 8.84 -5.58 l 0.03 -3.58 l -0.27 -0.06 c -0.14 -0.04 -1.8 -0.05 -3.69 -0.03 l -3.43 0.03 l -0.03 3.5 c -0.02 1.92 0 3.56 0.03 3.64 c 0.05 0.11 0.83 0.14 3.69 0.11 l 3.63 -0.03 m -5.91 -1.37 c -0.39 -0.38 -0.39 -1 0 -1.39 c 0.62 -0.59 1.63 -0.16 1.63 0.7 c 0 0.86 -1 1.29 -1.63 0.69 m 3.19 0.02 c -0.67 -0.56 -0.23 -1.69 0.67 -1.69 c 0.5 0 0.93 0.45 0.93 0.98 c 0 0.84 -0.94 1.26 -1.6 0.71 m -3.19 -3.11 c -0.61 -0.59 -0.19 -1.67 0.66 -1.67 c 0.86 0 1.3 1.2 0.63 1.71 c -0.42 0.32 -0.93 0.3 -1.29 -0.04 m 3.16 0.02 c -0.38 -0.39 -0.36 -1.13 0.05 -1.45 c 0.67 -0.52 1.58 -0.09 1.58 0.74 c 0 0.85 -1.05 1.3 -1.63 0.71 m -9.88 0.82 c -0.38 -0.2 -0.53 -0.46 -0.53 -0.9 c 0 -0.82 0.97 -1.25 1.59 -0.69 c 0.35 0.32 0.41 0.54 0.28 1 c -0.07 0.24 -0.23 0.43 -0.45 0.55 c -0.41 0.2 -0.57 0.21 -0.89 0.04 m -0.27 -3.91 c -0.27 -0.28 -0.34 -0.86 -0.14 -1.21 c 0.19 -0.35 0.77 -0.52 1.19 -0.35 c 0.43 0.17 0.59 0.42 0.59 0.95 c 0 0.8 -1.07 1.21 -1.63 0.62" style="fill:#f45ba1"/></svg>