<svg xmlns="http://www.w3.org/2000/svg" xmlns:xlink="http://www.w3.org/1999/xlink" viewBox="0 0 32 32"><defs><g id="3" style="clip-path:url(#2)"><path d="m 89.7 101.5 v -20.3 l 4.38 0.25 l 2.88 13.7 c 1.56 7.55 2.97 13.8 3.06 13.89 c 0.25 0.25 0.13 0.76 3.19 -13.83 c 1.41 -6.66 2.63 -12.5 2.75 -13 c 0.19 -0.86 0.5 -0.95 2.35 -0.95 h 2.1 v 40.57 h -2.53 l -0.03 -18.1 c -0.03 -11.48 -0.16 -17.73 -0.41 -17.19 c -0.31 0.6 -5.91 26.39 -5.91 27.1 c -0.97 0.19 -1.75 0.13 -2.81 0.13 l -2.88 -13.61 c -1.6 -7.52 -3.03 -13.83 -3.25 -14 c -0.19 -0.22 -0.34 7.55 -0.34 17.67 v 17.98 h -2.53 v -20.3" transform="matrix(0.125 0 0 0.123 0 0.36)" style="fill:#fff;stroke:#fff;stroke-width:0.77"/></g><g id="6" style="clip-path:url(#5)"><path d="m 114.3 121.1 c 0.09 -0.41 2.06 -9.52 4.38 -20.27 l 4.19 -19.57 c 1.03 -0.06 2.25 0.03 3.19 0.22 c 0 0.13 1.88 9.1 4.22 19.92 c 2.31 10.85 4.22 19.89 4.22 20.1 c 0 0.19 -0.56 0.35 -1.25 0.35 c -0.97 0 -1.31 -0.22 -1.5 -0.95 c -0.28 -1.27 -1.91 -9.23 -1.91 -9.45 c -3.78 -0.25 -6.72 -0.16 -10.82 -0.16 c -0.69 3.52 -1.34 7 -2 10.56 c -1.34 0.19 -2.31 -0.22 -2.72 -0.73 m 12.92 -22 c -2.63 -12.59 -2.72 -12.97 -3 -12.34 c -0.28 0.76 -4.07 19.1 -4.07 19.79 c 3.03 0.79 5.16 0.48 8.76 0.48 c -0.56 -2.63 -1.09 -5.3 -1.69 -7.93" transform="matrix(0.125 0 0 0.123 0 0.36)" style="fill:#fff;stroke:#fff;stroke-width:0.77"/></g><g id="9" style="clip-path:url(#8)"><path d="m 138.3 101.5 v -20.27 h 2.94 l 0.13 8.69 l 0.09 8.69 l 10.38 -17.38 h 3.44 l -0.84 1.36 c -5 8.12 -10.23 17.1 -10.23 17.54 c 0 0.44 6.29 11.99 10.82 19.86 l 1.03 1.81 h -1.78 l -1.81 -0.03 l -5.5 -9.86 l -5.5 -9.9 l -0.13 9.9 l -0.09 9.9 h -2.94" transform="matrix(0.125 0 0 0.123 0 0.36)" style="fill:#fff;stroke:#fff;stroke-width:0.77"/></g><g id="C" style="clip-path:url(#B)"><path d="m 159 101.5 v -20.27 h 13.95 v 4.22 h -11.42 v 12.69 h 10.98 v 4.22 h -10.98 v 15.19 h 11.82 v 4.22 h -14.39 v -20.27" transform="matrix(0.125 0 0 0.123 0 0.36)" style="fill:#fff;stroke:#fff;stroke-width:0.77"/></g><g id="F" style="clip-path:url(#E)"><path d="m 133.4 173.1 c -0.09 -0.32 -2.06 -9.45 -4.35 -20.33 l -4.16 -19.79 l 1.22 -0.13 c 0.69 -0.06 1.31 -0.06 1.41 0.03 c 0.09 0.1 1.69 7.61 3.57 16.68 c 3.5 17 3.78 18.21 4 17.98 c 0.06 -0.1 1.69 -7.61 3.57 -16.72 c 1.88 -9.1 3.53 -16.91 3.66 -17.29 c 0.25 -0.82 2.69 -1.11 2.69 -0.32 c 0 0.48 -7.94 38.44 -8.29 39.68 c -0.25 0.89 -3 1.05 -3.32 0.22" transform="matrix(0.125 0 0 0.123 0 0.36)" style="fill:#fff;stroke:#fff;stroke-width:0.78"/></g><g id="I" style="clip-path:url(#H)"><path d="m 100.1 172.1 c 0.09 -0.41 2.06 -9.52 4.38 -20.27 l 4.19 -19.57 c 1.03 -0.06 2.25 0.03 3.19 0.22 c 0 0.13 1.88 9.1 4.22 19.92 c 2.31 10.85 4.22 19.89 4.22 20.1 c 0 0.19 -0.56 0.35 -1.25 0.35 c -0.97 0 -1.31 -0.22 -1.5 -0.95 c -0.28 -1.27 -1.91 -9.23 -1.91 -9.45 c -3.78 -0.25 -6.72 -0.16 -10.82 -0.16 c -0.69 3.52 -1.34 7 -2 10.56 c -1.34 0.19 -2.31 -0.22 -2.72 -0.73 m 12.92 -22 c -2.63 -12.59 -2.72 -12.97 -3 -12.34 c -0.28 0.76 -4.07 19.1 -4.07 19.79 c 3.03 0.79 5.16 0.48 8.76 0.48 c -0.56 -2.63 -1.09 -5.3 -1.69 -7.93" transform="matrix(0.125 0 0 0.123 0 0.36)" style="fill:#fff;stroke:#fff;stroke-width:0.77"/></g><clipPath id="E"><path d="M 0,0 H32 V32 H0 z"/></clipPath><clipPath id="B"><path d="M 0,0 H32 V32 H0 z"/></clipPath><clipPath id="5"><path d="M 0,0 H32 V32 H0 z"/></clipPath><clipPath id="8"><path d="M 0,0 H32 V32 H0 z"/></clipPath><clipPath id="2"><path d="M 0,0 H32 V32 H0 z"/></clipPath><clipPath id="H"><path d="M 0,0 H32 V32 H0 z"/></clipPath><filter id="0" filterUnits="objectBoundingBox" x="0" y="0" width="32" height="32"><feColorMatrix type="matrix" in="SourceGraphic" values="0 0 0 0 1 0 0 0 0 1 0 0 0 0 1 0 0 0 1 0"/></filter><mask id="G"><g style="filter:url(#0)"><path d="M 0,0 H32 V32 H0 z" style="fill-opacity:0.9"/></g></mask><mask id="D"><g style="filter:url(#0)"><path d="M 0,0 H32 V32 H0 z" style="fill-opacity:0.9"/></g></mask><mask id="1"><g style="filter:url(#0)"><path d="M 0,0 H32 V32 H0 z" style="fill-opacity:0.9"/></g></mask><mask id="A"><g style="filter:url(#0)"><path d="M 0,0 H32 V32 H0 z" style="fill-opacity:0.9"/></g></mask><mask id="7"><g style="filter:url(#0)"><path d="M 0,0 H32 V32 H0 z" style="fill-opacity:0.9"/></g></mask><mask id="4"><g style="filter:url(#0)"><path d="M 0,0 H32 V32 H0 z" style="fill-opacity:0.9"/></g></mask></defs><path d="m 7.31 28.88 c 24.95 16 36.91 -35 6.19 -28.3 c -12.69 2.88 -19.48 20.93 -6.19 28.3" style="fill:#f4f4f4"/><path d="m 8.13 7.24 v 17.5 h 16.6 v -17.5 m -16.33 0.49 h 1.58 v 1.84 h -1.58 m 14.55 -1.84 h 1.57 v 1.84 h -1.57 m -14.55 3.05 h 1.58 v 1.84 h -1.58 m 14.55 -1.84 h 1.57 v 1.84 h -1.57 m -14.55 3.05 h 1.58 v 1.84 h -1.58 m 14.55 -1.84 h 1.57 v 1.84 h -1.57 m -14.55 3.05 h 1.58 v 1.84 h -1.58 m 14.55 -1.84 h 1.57 v 1.84 h -1.57"/><use xlink:href="#3" style="mask:url(#1)"/><use xlink:href="#6" style="mask:url(#4)"/><use xlink:href="#9" style="mask:url(#7)"/><use xlink:href="#C" style="mask:url(#A)"/><use xlink:href="#F" style="mask:url(#D)"/><use xlink:href="#I" style="mask:url(#G)"/><g style="fill:#fff"><path d="m 19.44 17.49 h 0.46 v 4.25 h -0.46"/><path d="m 19.44 16.59 h 0.46 v 0.62 h -0.46"/></g></svg>