<svg xmlns="http://www.w3.org/2000/svg" viewBox="0 0 32 32"><path d="m 31.57 15.93 c 2.39 -21.29 -31.81 -20.99 -31.41 0.38 c -1.13 19.88 33.3 21.67 31.41 -0.38" style="fill:#ffe4c3"/><g style="fill:#f9a62a"><path d="m 8.48 14.42 h 11.63 c 0.48 0 0.88 0.35 0.88 0.79 v 1.17 c 0 0.44 -0.39 0.79 -0.88 0.79 h -11.63 c -0.48 0 -0.88 -0.35 -0.88 -0.79 v -1.17 c 0 -0.44 0.39 -0.79 0.88 -0.79"/><path d="m 8.48 18.64 h 11.63 c 0.48 0 0.88 0.36 0.88 0.79 v 1.17 c 0 0.44 -0.39 0.79 -0.88 0.79 h -11.63 c -0.48 0 -0.88 -0.36 -0.88 -0.79 v -1.17 c 0 -0.44 0.39 -0.79 0.88 -0.79"/><path d="m 18.64 22.87 h 4.79 c 0.48 0 0.88 0.36 0.88 0.79 v 1.17 c 0 0.44 -0.39 0.79 -0.88 0.79 h -4.79 c -0.48 0 -0.88 -0.36 -0.88 -0.79 v -1.17 c 0 -0.44 0.39 -0.79 0.88 -0.79"/><path d="m 7.52 9.67 h 17.47 c 0.48 0 0.88 0.35 0.88 0.79 v 1.17 c 0 0.43 -0.39 0.79 -0.88 0.79 h -17.47 c -0.48 0 -0.88 -0.36 -0.88 -0.79 v -1.17 c 0 -0.44 0.39 -0.79 0.88 -0.79"/></g><g style="fill:#fff"><path d="m 10 19.98 c 0 0.48 -0.4 0.87 -0.89 0.87 c -0.49 0 -0.89 -0.39 -0.89 -0.87 c 0 -0.48 0.4 -0.86 0.89 -0.86 c 0.49 0 0.89 0.39 0.89 0.86"/><path d="m 12.16 20.1 c 0 0.48 -0.4 0.86 -0.89 0.86 c -0.49 0 -0.89 -0.39 -0.89 -0.86 c 0 -0.48 0.4 -0.86 0.89 -0.86 c 0.5 0 0.89 0.39 0.89 0.86"/><path d="m 14.41 20.1 c 0 0.48 -0.4 0.86 -0.89 0.86 c -0.49 0 -0.89 -0.39 -0.89 -0.86 c 0 -0.48 0.4 -0.86 0.89 -0.86 c 0.49 0 0.89 0.39 0.89 0.86"/><path d="m 16.61 20.1 c 0 0.48 -0.4 0.86 -0.89 0.86 c -0.5 0 -0.89 -0.39 -0.89 -0.86 c 0 -0.48 0.4 -0.86 0.89 -0.86 c 0.49 0 0.89 0.39 0.89 0.86"/><path d="m 9.44 15.1 h 4.35 c 0.48 0 0.88 0.33 0.88 0.74 c 0 0.41 -0.39 0.74 -0.88 0.74 h -4.35 c -0.48 0 -0.87 -0.33 -0.87 -0.74 c 0 -0.41 0.39 -0.74 0.87 -0.74"/><path d="m 19.46 23.55 h 3 c 0.48 0 0.88 0.33 0.88 0.74 c 0 0.41 -0.39 0.74 -0.88 0.74 h -3 c -0.48 0 -0.87 -0.33 -0.87 -0.74 c 0 -0.41 0.39 -0.74 0.87 -0.74"/></g><path d="m 23.87 10.24 h 0.09 c 0.48 0 0.88 0.36 0.88 0.79 v 0.21 c 0 0.44 -0.39 0.79 -0.88 0.79 h -0.09 c -0.48 0 -0.88 -0.36 -0.88 -0.79 v -0.21 c 0 -0.44 0.39 -0.79 0.88 -0.79" style="fill:#ff4500"/></svg>