<svg xmlns="http://www.w3.org/2000/svg" viewBox="0 0 32 32"><path d="m 27.4 26.55 c 22.31 -34.78 -46.2 -34.51 -21.81 -2.44 c 5.55 7.31 15.9 11.64 21.81 2.44" style="fill:#8b4512"/><g style="fill:#fff"><path d="m 9.99 9.29 c -0.06 -0.05 -0.07 -0.09 -0.07 -0.27 c 0.02 -0.68 0.52 -1.73 1.19 -2.47 c 0.69 -0.75 1.63 -0.96 2.45 -0.82 c 1.01 0.18 1.98 0.61 2.48 1.07 c 0.27 0.25 0.31 0.34 0.24 0.53 c -0.07 0.18 -0.53 0.74 -0.9 1.09 c -0.32 0.31 -0.32 0.31 -0.82 0.06 c -0.48 -0.23 -0.71 -0.3 -1.03 -0.27 c -0.54 0.02 -0.96 0.46 -1.2 0.82 c -0.21 0.32 -0.35 0.45 -0.44 0.44 c -0.55 -0.11 -1.31 -0.04 -1.9 -0.19"/><path d="m 13.54 18.66 c -0.46 -0.46 -0.48 -0.54 -0.23 -0.86 c 0.28 -0.34 1.19 -1.17 1.3 -1.18 c 0.09 -0.01 0.87 0.7 0.83 0.75 c -0.58 0.68 -1.38 1.82 -1.9 1.28"/><path d="m 12.3 17.24 c -0.23 -0.24 -0.59 -0.79 -0.59 -0.93 c 0.36 -0.54 1.16 -0.8 1.77 -1.07 l 0.28 0.25 c 0.37 0.33 0.45 0.57 0.25 0.8 c -0.23 0.28 -1.28 1.04 -1.45 1.05 c -0.08 0.01 -0.2 -0.04 -0.26 -0.1"/><path d="m 10.71 14.23 c 0.08 -0.1 1.04 -0.41 1.52 -0.5 c 0.37 -0.1 0.41 -0.1 0.6 0.21 c 0.3 0.5 0.33 0.66 0.18 0.83 c -0.55 0.39 -1.16 0.66 -1.81 0.78 c -0.11 -0.33 -0.65 -1.04 -0.48 -1.32"/><path d="m 10.41 13.42 c -0.17 -0.15 -0.26 -0.47 -0.27 -0.9 c 0 -0.43 0.13 -0.5 1.11 -0.57 c 0.93 -0.07 1 -0.04 1.11 0.57 c 0.07 0.38 0.06 0.39 -0.14 0.54 c -0.2 0.14 -0.6 0.27 -1.34 0.43 c -0.18 0.03 -0.36 0.02 -0.46 -0.07"/><path d="m 9.99 10.1 c 0.2 -0.2 1.68 -0.16 1.95 0.05 c 0.18 0.14 0.22 0.71 0.07 0.93 c -0.68 0.34 -1.04 0.27 -1.94 0.38 c -0.05 -0.38 -0.32 -1.08 -0.08 -1.36"/><path d="m 12.67 11.95 c -0.02 -0.24 0.73 -1.56 0.89 -1.58 c 0.11 -0.01 0.37 0.37 0.45 0.64 c 0.06 0.23 -0.03 0.5 -0.3 0.96 c -0.24 0.4 -0.58 0.82 -0.68 0.82 c -0.22 -0.23 -0.3 -0.52 -0.36 -0.85"/><path d="m 15.27 11.17 c -0.65 -0.12 -0.73 -0.16 -0.86 -0.35 c -0.14 -0.24 -0.18 -0.48 -0.21 -0.75 l 0.41 -0.02 c 0.53 -0.03 0.88 0.07 1.22 0.34 c 0.42 0.34 0.59 0.9 0.29 0.91 c -0.07 0 -0.45 -0.06 -0.84 -0.13"/><path d="m 16.46 12.98 c -0.23 -0.05 -0.62 -0.18 -0.87 -0.27 c -0.39 -0.15 -0.48 -0.23 -0.6 -0.46 c -0.23 -0.43 -0.16 -0.52 0.34 -0.51 c 0.52 0.02 1.21 0.15 1.42 0.26 c 0.17 0.09 0.4 0.75 0.34 0.95 c -0.3 0.18 -0.34 0.09 -0.63 0.03"/><path d="m 13.57 14.3 c -0.27 -0.29 -0.27 -0.55 0.03 -1.08 c 0.36 -0.64 0.67 -1.08 0.78 -1.09 c 0.1 -0.01 0.39 0.5 0.41 0.71 c 0.02 0.25 -0.79 1.64 -0.97 1.65 c -0.03 0 -0.14 -0.09 -0.25 -0.2"/><path d="m 14.61 15.8 c -0.17 -0.05 -0.41 -0.48 -0.38 -0.68 c 0.04 -0.23 0.43 -0.95 0.66 -1.2 c 0.21 -0.24 0.37 -0.17 0.52 0.24 c 0.1 0.27 0.09 0.33 -0.01 0.62 c -0.15 0.38 -0.66 1.05 -0.79 1.01"/><path d="m 16.55 14.59 c -0.62 -0.2 -0.73 -0.29 -0.87 -0.66 c -0.1 -0.25 -0.09 -0.3 0.01 -0.39 c 0.14 -0.13 0.21 -0.13 0.8 -0.04 c 0.7 0.1 0.86 0.17 1.03 0.46 c 0.19 0.32 0.2 0.49 0.05 0.65 c -0.16 0.18 -0.44 0.18 -1.02 -0.02"/><path d="m 18.39 16.67 c -0.09 -0.13 -0.15 -0.34 -0.17 -0.59 c -0.04 -0.57 0.03 -0.63 0.91 -0.69 c 0.39 -0.03 0.83 -0.02 0.98 0.02 c 0.32 0.07 0.38 0.18 0.43 0.86 c -0.06 0.51 -2 0.59 -2.15 0.41"/><path d="m 18.27 14.73 c -0.16 -0.04 -0.31 -0.38 -0.34 -0.72 c -0.02 -0.2 0.02 -0.25 0.21 -0.36 c 0.33 -0.18 1.29 -0.48 1.57 -0.5 c 0.22 -0.02 0.26 0.01 0.34 0.2 c 0.11 0.27 0.15 0.79 0.08 0.97 c -0.03 0.07 -0.15 0.16 -0.26 0.2 c -0.52 0.03 -1.1 0.31 -1.61 0.21"/><path d="m 17.67 13 c -0.23 -0.49 -0.29 -0.78 0.14 -1.07 c 0.39 -0.26 1.14 -0.63 1.3 -0.64 c 0.08 0 0.19 0.12 0.31 0.35 c 0.24 0.45 0.27 0.7 0.08 0.86 c -0.18 0.15 -0.88 0.44 -1.36 0.55 c -0.3 0.07 -0.37 0.07 -0.48 -0.04"/><path d="m 16.93 11.28 c -0.24 -0.43 -0.24 -0.62 0.01 -0.89 c 0.27 -0.3 1.24 -0.89 1.38 -0.84 c 0.14 0.04 0.6 0.88 0.56 1.02 c -0.04 0.13 -1.45 0.99 -1.64 1 c -0.1 0.01 -0.19 -0.08 -0.31 -0.3"/><path d="m 15.97 9.75 c -0.5 -0.55 -0.5 -0.54 -0.05 -1.05 c 0.29 -0.34 0.62 -0.61 0.97 -0.86 l 0.32 0.31 c 0.39 0.39 0.47 0.59 0.31 0.81 c -0.21 0.29 -1.05 1.05 -1.17 1.06 c -0.07 0 -0.23 -0.12 -0.38 -0.27"/><path d="m 19.42 21.68 c -0.06 -0.08 -0.14 -0.37 -0.19 -0.64 c -0.11 -0.47 -0.12 -0.48 0.31 -0.6 c 0.21 -0.06 0.63 -0.15 0.93 -0.2 c 0.73 -0.11 0.79 -0.07 0.88 0.66 c 0.09 0.66 0.16 0.59 -0.84 0.78 c -0.87 0.16 -0.96 0.16 -1.09 -0.01"/><path d="m 19.82 23.1 c -0.32 -0.15 -0.42 -0.66 -0.16 -0.79 c 0.24 -0.12 1.79 -0.3 1.91 -0.22 c 0.05 0.03 0.12 0.2 0.15 0.37 c 0.09 0.46 -0.07 0.57 -0.97 0.67 c -0.57 0.07 -0.73 0.06 -0.93 -0.03"/><path d="m 20.72 24.46 c -0.41 -0.1 -0.79 -0.21 -0.85 -0.26 c -0.13 -0.18 -0.13 -0.35 -0.14 -0.56 l 0.99 -0.05 c 0.89 -0.04 1 -0.04 1.1 0.08 c 0.23 0.28 0.07 0.95 -0.23 0.96 c -0.32 -0.05 -0.59 -0.11 -0.86 -0.17"/><path d="m 18.1 27.42 c -0.7 -0.02 -1.84 -0.48 -2.1 -0.84 c -0.13 -0.18 0.03 -0.36 0.74 -0.88 c 0.65 -0.47 0.84 -0.54 1.13 -0.41 c 0.83 0.15 1.39 -0.18 1.91 -0.67 c 0.55 0.13 1.09 0.27 1.64 0.38 c 0.07 -0.01 0.26 0.21 0.27 0.29 c 0.01 0.16 -0.54 0.99 -0.84 1.27 c -0.54 0.5 -1.79 0.89 -2.75 0.86"/><path d="m 15.48 25.77 c -0.13 -0.15 -0.28 -0.59 -0.24 -0.74 c 0.04 -0.19 0.29 -0.34 0.94 -0.57 c 0.7 -0.24 0.95 -0.24 1.06 0.02 c 0.11 0.26 -0.06 0.45 -0.87 0.96 c -0.69 0.43 -0.77 0.46 -0.88 0.33"/><path d="m 14.98 24.2 c -0.03 -0.04 -0.08 -0.21 -0.11 -0.37 c -0.1 -0.5 0.11 -0.62 1.49 -0.83 c 0.36 -0.05 0.5 -0.2 0.56 0.18 c 0.09 0.5 0.07 0.51 -0.71 0.8 c -0.52 0.19 -1.16 0.3 -1.22 0.21"/><path d="m 14.8 22.77 c -0.21 -0.19 -0.17 -1.16 0.05 -1.4 c 0.43 -0.22 0.84 -0.17 1.31 -0.32 c 0.1 -0.04 0.16 0 0.27 0.17 c 0.2 0.31 0.29 0.89 0.17 1.04 c -0.08 0.09 -0.72 0.32 -1.55 0.57 c -0.08 0.02 -0.2 0 -0.26 -0.06"/><path d="m 17.5 22.53 c -0.41 -0.19 -0.57 -0.48 -0.43 -0.8 c 0.09 -0.21 0.24 -0.19 0.52 0.06 c 0.18 0.16 0.25 0.29 0.27 0.44 c 0.02 0.26 -0.15 0.4 -0.36 0.3"/><path d="m 18.37 22.2 c -0.11 -0.14 -0.15 -0.47 -0.07 -0.67 c 0.03 -0.08 0.13 -0.19 0.23 -0.25 c 0.16 -0.1 0.19 -0.11 0.32 -0.03 c 0.29 0.16 0.31 0.64 0.04 0.9 c -0.2 0.19 -0.39 0.21 -0.52 0.05"/><path d="m 15.2 16.35 c -0.14 -0.17 -0.12 -0.23 0.2 -0.61 c 0.37 -0.44 0.5 -0.47 0.66 -0.14 c 0.16 0.32 0.11 0.77 -0.13 1.05 c -0.29 0.18 -0.52 -0.03 -0.74 -0.29"/><path d="m 17.44 16 c 0.06 -0.12 0.12 -0.3 0.13 -0.41 c 0.03 -0.22 -0.02 -0.25 -0.48 -0.41 c -0.54 -0.17 -0.67 -0.12 -0.64 0.24 c 0.03 0.36 0.31 0.71 0.65 0.82 c 0.17 0.05 0.22 0.02 0.34 -0.25"/><path d="m 14.77 19.8 c -0.36 -0.37 -0.38 -0.43 -0.18 -0.68 c 0.22 -0.28 1.08 -1 1.17 -1 c 0.07 -0.01 0.57 0.62 0.53 0.66 c -0.46 0.54 -1.11 1.45 -1.52 1.02"/><path d="m 20.28 17.88 c -0.01 -0.53 -0.04 -0.59 -0.35 -0.61 c -0.35 -0.03 -1.48 0.01 -1.55 0.07 c -0.06 0.05 0.07 0.95 0.13 0.95 c 0.7 0.03 1.78 0.19 1.77 -0.42"/></g></svg>