<svg xmlns="http://www.w3.org/2000/svg" viewBox="0 0 32 32"><path d="m 1.33 12.99 c 3.19 -21.34 35.96 -14.1 29.76 6.6 c -4.16 19.63 -37.7 14.31 -29.76 -6.6" style="fill:#dcdcdc"/><path d="m 11.37 26.55 c -0.57 -0.34 -1.39 -2 -1.35 -2.11 c 1.44 -0.16 2.03 -0.59 2.73 -0.71 c 0.23 0.11 0.47 0.2 0.54 0.2 c 0.18 0 0.74 -0.46 0.74 -0.61 c 0 -0.07 0.27 -0.38 0.61 -0.7 c 0.68 -0.64 1.44 -1.01 1.2 -1.35 c -0.08 -0.11 -0.14 -0.21 -0.17 -0.4 c -0.05 -0.3 -0.75 -0.41 -1 -0.43 c -0.41 -0.04 -0.59 0.26 -0.57 0.91 c 0.01 0.28 0.36 1.05 0.31 1.07 c -0.23 0.13 -0.99 -0.98 -1.34 -2 c -0.15 -0.45 -0.16 -0.55 -0.06 -0.82 c 0.15 -0.41 0.01 -0.7 -0.34 -0.7 c -0.33 0 -0.47 0.17 -0.48 0.58 c -0.01 0.25 -0.05 0.34 -0.16 0.36 c -0.11 0.02 -0.17 -0.04 -0.21 -0.23 c -0.03 -0.16 -0.2 -0.39 -0.43 -0.59 c -0.64 -0.57 -0.47 -0.84 0.55 -0.84 c 0.8 0 0.98 -0.12 0.98 -0.63 c 0 -0.48 -0.14 -0.61 -0.53 -0.49 c -0.6 0.19 -0.97 0.07 -1.1 -0.36 c 0.14 -0.98 0.19 -1.7 0.16 -2.38 c -0.03 -0.83 -0.02 -2.05 0.02 -2.7 c -0.2 -0.99 0.46 -1.61 0.76 -2.34 c 0 -0.21 1.15 -1.2 1.84 -1.57 l 0.71 -0.39 c 1.93 -0.02 3.87 -0.03 5.8 -0.05 c 1.2 0.57 2.08 1.7 2.87 2.43 c 0.81 0.58 0.55 1.46 0.42 2.29 c -0.08 0.55 0.18 1.15 0.04 1.63 c -0.09 0.32 -0.09 0.37 0.09 0.6 c 0.19 0.24 0.2 0.32 0.18 1.33 c 0.05 0.77 -0.16 1.44 -0.44 2.09 c -0.11 0.24 -0.21 0.5 -0.23 0.57 c -0.05 0.16 -0.24 0.24 -0.41 0.18 c -0.18 -0.06 -0.25 -0.79 -0.14 -1.58 c 0.08 -0.58 0.07 -0.73 -0.02 -0.82 c -0.1 -0.09 -0.16 -0.09 -0.35 -0.01 c -0.31 0.13 -0.23 -0.35 -0.42 -0.7 c -0.34 -0.53 -1.07 0.04 -1.61 -0.07 c -0.3 -0.06 -0.62 0 -0.62 0.12 c 0 0.04 0.18 0.16 0.41 0.25 c 0.4 0.18 0.41 0.19 0.41 0.54 c 0 0.3 -0.04 0.37 -0.21 0.45 c -0.61 0.34 -1.02 -0.18 -1.38 -0.24 c -0.09 0.02 -0.3 0 -0.47 -0.05 c -0.43 -0.13 -0.42 -0.4 0.04 -0.78 c 0.19 -0.16 0.48 -0.48 0.65 -0.71 c 0.38 -0.53 0.64 -0.61 1.63 -0.5 c 0.61 0.06 0.73 0.1 0.89 0.29 c 0.51 0.43 0.29 -0.84 0.41 -1.28 c 0.18 -0.61 0.18 -1.55 0.01 -1.76 c -0.07 -0.09 -0.13 -0.25 -0.13 -0.36 c 0 -0.43 -0.16 -0.5 -0.99 -0.45 c -0.85 -0.16 -1.16 0.59 -1.91 0.62 c -0.59 0.05 -1.03 0.4 -1.61 0.48 c -0.99 -0.48 -1.95 -0.61 -2.95 -0.79 c -0.57 -0.11 -0.75 -0.04 -0.69 0.27 c -0.07 0.46 -0.36 0.86 -0.38 1.27 c -0.03 1.17 -0.15 2.03 -0.36 2.6 c -0.17 0.47 -0.21 0.69 -0.16 0.97 c 0.07 0.48 0.23 0.6 0.6 0.46 c 0.54 -0.27 0.44 0.28 0.43 0.6 c -0.01 0.63 -0.04 0.77 -0.24 1.05 c -0.12 0.18 -0.22 0.43 -0.22 0.57 c 0 0.28 0.2 0.75 0.34 0.83 c 0.21 0.12 2.19 0.96 2.25 0.04 c 0.02 -0.3 -0.48 -0.9 -0.18 -1.07 c 0.53 -0.29 0.56 -0.3 0.67 -0.16 c 0.14 0.28 0.13 0.61 0.34 0.81 c 0.21 0.19 0.26 0.2 0.75 0.15 l 0.52 -0.05 l -0.05 0.34 c -0.05 0.27 -0.14 0.41 -0.42 0.65 c -0.3 0.25 -0.41 0.3 -0.66 0.27 c -0.29 -0.03 -0.86 0.21 -0.87 0.37 c 0 0.04 0.74 0.12 0.92 0.18 c 0.57 0.21 -0.07 0.16 0.02 0.35 c 0.45 0.82 -2.08 2.27 -1.9 2.4 c 0.07 0.03 0.78 0.52 1.21 0.61 c 0.68 0.02 2.81 0.44 3.18 -0.34 c 0.11 -0.25 1 -1.29 1.25 -1.29 c 0.26 0 -0.63 1.29 -1.09 1.77 c -0.52 0.72 -1.21 0.51 -2.03 0.51 c -0.74 0.05 -1.38 0.09 -2.05 -0.22 c -0.28 -0.13 -0.55 -0.32 -0.62 -0.44 c -0.24 -0.41 -0.54 -0.35 -0.86 0.17 c -0.28 0.47 -0.89 1.21 -1.11 1.35 c -0.12 0.08 -0.38 0.26 -0.57 0.4 c -0.42 0.31 -0.81 0.34 -1.34 0.09 m -2 -2.88 c -0.23 -0.22 1.11 -0.38 1.44 -0.51 c 0.55 -0.47 0.25 -1.49 -0.27 -1.77 c -0.63 -0.31 0.11 -0.51 0.26 -0.84 c 0.16 -0.34 0.43 -0.52 0.8 -0.52 c 0.25 0 0.28 0.02 0.28 0.23 c 0 0.27 -0.2 0.46 -0.56 0.54 c -0.66 0.16 -0.48 0.6 -0.09 0.75 c 0.25 0.1 0.39 0.2 0.39 0.29 c -0.01 0.43 0.21 1.1 -0.09 1.37 c -0.29 0.17 -0.56 0.22 -0.68 0.48 c -0.15 0.36 -1.23 0.22 -1.49 -0.02 m -0.93 -1.02 c -0.56 -0.41 -1.05 -0.77 -1.6 -1.08 c -0.31 -0.16 -0.57 -0.96 -0.57 -1.11 c -0.1 -3.06 0.23 0.05 0.87 0.53 c 0.29 0.24 0.77 0.38 0.94 0.73 c 0.18 0.38 1.5 1.08 1.31 2 c 0 0.2 -0.7 -1 -0.95 -1.08 m 12.73 -0.16 c -0.04 -0.05 -0.04 -0.34 0 -0.65 c 0.05 -0.46 0.11 -0.62 0.32 -0.86 c 0.62 -0.79 -1.02 -1.07 -0.14 -1.43 c 0.21 -0.09 0.51 -0.28 0.66 -0.43 c 0.35 -0.37 0.55 -0.31 0.48 0.14 c -0.03 0.18 -0.07 0.6 -0.11 0.93 c -0.03 0.33 -0.14 0.82 -0.26 1.09 c -0.12 0.27 -0.21 0.58 -0.21 0.68 c 0 0.39 -0.56 0.79 -0.74 0.53 m -3.43 -0.43 c -0.43 -0.12 0.02 -0.39 0.43 -0.42 c 0.43 -0.04 0.7 0.04 0.7 0.21 c -0.16 0.35 -0.88 0.28 -1.14 0.21 m 1.2 -1.84 c 0.13 -0.03 0.42 -0.12 0.64 -0.2 c 0.54 -0.2 1.08 -0.2 1.15 0 c 0.06 0.18 -0.02 0.56 -0.16 0.71 c -0.11 0.13 -0.79 0.41 -1 0.41 c -0.36 -0.16 -1.15 -0.81 -0.64 -0.92 m -13 -1.01 c -0.23 -0.44 -0.5 -0.34 -0.96 -0.34 c -0.84 -0.01 -1.76 -0.55 -1.81 -0.93 c -0.04 -0.27 -0.3 -2.71 0.52 -0.38 c 0.38 0.17 0.29 0.45 0.64 0.71 c 0.27 0.1 1 0.07 1.38 -0.05 c 0.19 -0.06 0.45 -0.12 0.57 -0.12 c 0.53 0 0.87 0.8 0.51 1.21 c -0.28 0.32 -0.54 0.29 -0.84 -0.12 m 10.57 -1.43 c -0.15 -0.27 -0.18 -0.9 -0.08 -1.47 c 0.05 -0.28 0.04 -0.34 -0.1 -0.41 c -0.21 -0.11 -0.37 -0.01 -0.54 0.32 c -0.11 0.22 -0.19 0.27 -0.45 0.29 c -0.37 0.03 -0.85 -0.17 -0.85 -0.35 c 0 -0.24 0.18 -0.43 0.52 -0.52 c 0.45 -0.12 1.78 -0.23 0.02 -0.31 c -0.56 -0.03 -1 -0.18 -1.09 -0.41 c -0.12 -0.32 -0.01 -0.45 0.52 -0.59 c 0.77 -0.21 1.14 -0.12 1.63 0.39 c 0.57 0.6 0.98 1.26 1.05 1.7 c 0.16 1.11 0.16 1.18 -0.04 1.4 c -0.25 0.29 -0.4 0.27 -0.57 -0.04 m -12 -0.27 c -0.19 -0.09 -0.66 -0.63 -0.63 -0.78 c 0.02 -0.18 0.5 0.23 0.91 0.14 c 0.49 0.03 0.7 -0.58 1.1 -0.59 c 0.3 0 0.29 0.33 -0.02 0.55 c -0.5 0.46 -0.77 0.95 -1.35 0.67 m -1.08 -0.59 c -0.27 -0.1 -0.26 -0.45 0.02 -0.57 c 0.28 -0.12 0.65 0.09 0.65 0.36 c 0 0.27 -0.27 0.35 -0.67 0.2 m 4 -0.76 c -0.23 -0.46 0.27 -0.89 0.57 -0.5 c 0.27 0.35 0.13 0.7 -0.27 0.7 c -0.13 0 -0.23 -0.07 -0.3 -0.2 m 2.21 -0.43 c -2.53 -0.45 -0.31 -1.72 -0.25 -2.59 l -0.54 -0.03 c -0.91 -0.09 -1.12 0.91 -1.9 1.32 c -0.11 0.05 -0.21 0.2 -0.24 0.37 c -0.03 0.15 -0.13 0.36 -0.23 0.46 c -0.17 0.18 -0.52 1.47 -0.65 1.32 c -0.22 -0.26 0.18 -1.88 0.48 -2.04 c 0.14 -0.08 0.52 -0.42 0.84 -0.76 c 0.31 -0.34 0.66 -0.63 0.78 -0.66 c 0.13 -0.03 0.25 -0.15 0.33 -0.32 c 0.72 -0.87 1.03 -0.16 1.38 -0.07 c 0.68 0.17 0.59 0.97 0.04 1.1 c -0.17 0.04 -0.24 0.12 -0.28 0.3 c -0.11 0.49 -0.07 0.62 0.22 0.76 c 0.39 0.18 1.2 0.83 1.28 1.02 c 0.09 0.23 0.16 0.54 -0.09 0.54 c -0.43 -0.1 -0.77 -0.74 -1.17 -0.74"/></svg>