<svg xmlns="http://www.w3.org/2000/svg" viewBox="0 0 32 32"><path d="m 31.8 16.1 c 2.4 21.1 -31.98 20.81 -31.59 -0.38 c -1.14 -19.71 33.45 -21.49 31.59 0.38" style="fill:#f4f4f4"/><path d="m 6.53 11.57 h 19.41 v 10.4 h -19.41" style="fill:#090605"/><g style="fill:#fff"><path d="m 9.41 18.57 c -0.1 -0.07 -0.14 -0.25 -0.2 -0.82 c -0.09 -0.91 0.02 -2.74 0.17 -2.89 c 0.08 -0.07 0.59 -0.1 2.39 -0.12 c 2.23 -0.02 2.3 -0.02 2.49 0.13 c 0.46 0.34 0.64 1.28 0.56 2.86 l -0.05 0.95 c -0.77 -0.07 -1.05 0.33 -1.05 -0.48 c 0 -0.74 -0.13 -2.15 -0.21 -2.3 c -0.09 -0.16 -0.3 -0.24 -0.5 -0.18 c -0.28 0.09 -0.37 0.48 -0.41 1.76 l -0.04 1.2 c -0.3 -0.03 -1.11 0.14 -1.02 -0.21 c -0.05 -0.09 -0.11 -0.73 -0.14 -1.45 c -0.14 -0.72 0.37 -1.3 -0.45 -1.26 c -0.7 -0.07 -0.43 0.78 -0.44 1.3 c -0.03 0.77 -0.08 1.35 -0.13 1.44 c -0.27 0.25 -0.63 0.2 -0.96 0.06"/><path d="m 16.82 18.75 c -0.67 -0.18 -1.16 -0.55 -1.35 -1.02 c -0.19 -0.48 -0.17 -1.55 0.04 -2.03 c 0.28 -0.65 0.88 -1.01 1.68 -1.01 c 1 0 1.52 0.36 1.8 1.27 c 0.26 0.8 0.13 1.54 -0.38 2.18 c -0.37 0.46 -1.24 0.77 -1.79 0.62 m 0.84 -1.23 c 0.25 -0.3 0.34 -0.9 0.17 -1.29 c -0.26 -0.62 -0.93 -0.68 -1.23 -0.11 c -0.14 0.28 -0.1 1.03 0.07 1.28 c 0.25 0.36 0.73 0.42 0.99 0.12"/><path d="m 22.34 18.68 c -0.16 -0.02 -0.64 -0.03 -1.07 -0.01 c -0.91 0.04 -1.19 -0.05 -1.51 -0.47 c -0.26 -0.34 -0.3 -0.94 -0.1 -1.39 c 0.18 -0.42 0.62 -0.74 1.07 -0.8 c 0.6 -0.08 0.75 0.13 0.72 -0.22 c -0.02 -0.19 -0.34 -0.25 -0.8 -0.16 c -0.41 0.09 -0.43 0.08 -0.56 -0.08 c -0.25 -0.32 -0.14 -0.73 0.23 -0.86 c 0.28 -0.1 1.29 -0.1 1.63 -0.01 c 0.32 0.09 0.6 0.38 0.75 0.79 c 0.06 0.18 0.16 0.77 0.21 1.32 c 0.05 0.55 0.12 1.14 0.14 1.32 c 0.04 0.26 0.02 0.34 -0.09 0.44 c -0.26 0.15 -0.43 0.16 -0.63 0.13 m -0.84 -1.15 c 0.37 -0.35 0.09 -0.66 -0.43 -0.49 c -0.3 0.1 -0.39 0.31 -0.22 0.51 c 0.17 0.18 0.45 0.17 0.65 -0.02"/></g></svg>