<svg xmlns="http://www.w3.org/2000/svg" viewBox="0 0 32 32"><path d="m 0.11 16.35 c 0.25 -3.3 1.83 -7.16 4 -9.85 c 2.66 -3.27 6.75 -5.67 10.77 -6.31 c 5.32 -0.77 11 2.32 13.75 5.81 c 1.32 1.75 2.38 4.07 2.83 6.25 c 1.2 5.66 -1.07 11.57 -5.99 15.63 c -2.95 2.43 -5.93 3.68 -9.45 3.99 c -4.22 0.37 -8.75 -1.3 -11.8 -4.35 c -2.88 -3.46 -4.43 -7 -4.14 -11.15" style="fill:#b0dfe5"/><path d="m 15.24 25.93 c -3 -0.38 -5.63 -2.07 -7.23 -4.69 c -1.92 -3.14 -1.92 -7.17 0 -10.3 c 2.3 -3.77 6.65 -5.54 10.87 -4.42 c 3.54 0.94 6.31 3.89 7.08 7.55 c 0.34 1.64 0.21 3.76 -0.34 5.3 c -1.01 2.85 -3.31 5.15 -6.09 6.09 c -1.32 0.45 -3 0.63 -4.3 0.47 m 3.87 -4.69 c 3.13 -0.84 5.17 -4 4.66 -7.23 c -0.36 -2.27 -1.92 -4.22 -3.98 -5 c -1.2 -0.46 -2.29 -0.57 -3.43 -0.35 c -3.23 0.63 -5.47 3.47 -5.27 6.69 c 0.06 1 0.24 1.67 0.67 2.55 c 0.87 1.77 2.48 3 4.43 3.43 c 0.7 0.15 2.19 0.11 2.91 -0.09" style="fill:#5485d0"/><path d="m 14 26.2 c -1.4 -0.22 -2.79 -0.77 -3.96 -1.56 c -0.73 -0.5 -1.96 -1.73 -2.48 -2.49 c -2.66 -3.88 -2.19 -9.14 1.1 -12.46 c 3.25 -3.29 8.4 -3.79 12.22 -1.2 c 1.24 0.84 2.55 2.35 3.23 3.73 c 0.69 1.4 0.97 2.65 0.97 4.36 c 0 1.7 -0.28 2.96 -0.97 4.35 c -0.68 1.38 -1.99 2.89 -3.22 3.73 c -2 1.36 -4.52 1.92 -6.89 1.55 m 5.57 -4.89 c 1.03 -0.52 2.23 -1.73 2.77 -2.77 c 1.13 -2.2 0.95 -4.84 -0.46 -6.83 c -0.96 -1.36 -2.39 -2.3 -3.98 -2.64 c -3.25 -0.68 -6.41 1.17 -7.52 4.39 c -0.35 1.43 -0.41 2.86 0.03 4.11 c 0.35 0.98 0.72 1.6 1.41 2.37 c 1.27 1.4 2.82 2.08 4.71 2.09 c 1.1 0.02 2.07 -0.23 3.04 -0.71" style="fill:#86c0c1"/></svg>