<svg xmlns="http://www.w3.org/2000/svg" viewBox="0 0 32 32"><path d="m 4.05 8.25 c -11.31 12.9 5.44 26.54 15.25 23.2 c 9.81 -3.36 16.41 -12.82 10 -21.1 c -6.41 -8.3 -12.71 -16.32 -24 -3.41" style="fill:#37445f"/><path d="m 12.87 25.93 c -2.16 -1.29 -3.35 -3.28 -3.51 -5.88 c -0.05 -0.45 -0.13 -0.73 0.17 -1.05 c 0.35 -0.37 1.18 -1.08 1.3 -1.08 c 0.13 0 0.13 0.08 0.02 0.64 c -0.13 0.62 0.8 1.16 1.22 1.45 c 0.11 0.07 0.34 0.41 0.53 0.75 c 0.67 1.23 1.69 2.25 2.82 2.78 c 0.56 0.37 1.14 0.27 1.79 0.27 c 1.41 0 1.86 -0.09 2.84 -0.58 c 1.11 -0.55 1.84 -1.42 2.41 -2.89 c 0.14 -0.34 0.29 -0.96 0.31 -1.06 c 0.52 -2.59 -2.57 -5.55 -2.48 -5.46 c 0.03 0.02 3.22 0.63 3.77 5.49 c 0.13 1.13 -0.72 3.96 -1.7 5.16 c -0.77 0.95 -2.81 1.86 -4.12 2.18 c -1.87 0.38 -3.75 0.22 -5.37 -0.73" style="fill:#c2e7ed"/><path d="m 11.89 19.73 c -0.29 -0.27 -0.55 -0.49 -0.58 -0.49 c -0.82 -0.84 0.2 -2.21 0.4 -2.46 c 0.28 -0.41 0.68 -1.06 0.88 -1.43 c 0.2 -0.37 0.51 -0.83 0.68 -1.03 c 0.34 -0.38 0.85 -0.66 1.05 -0.58 c 0.16 0.06 0.49 0.82 0.56 1.27 c 0.07 0.45 -0.14 0.79 -0.87 1.5 c -1.19 1.16 -1.15 1.34 -0.47 1.56 c 0.32 0.11 0.58 0.12 1.46 0.09 c 1.18 -0.04 1.71 -0.15 1.92 -0.37 c 0.08 -0.09 0.21 -0.54 0.34 -1.16 c 0.3 -1.46 0.54 -1.73 0.89 -1 c 0.11 0.23 0.22 0.64 0.28 1.11 c 0.11 0.85 0.19 1.04 0.48 1.15 c 0.3 0.12 1.35 0.11 1.49 -0.01 c 0.17 -0.14 0.16 -0.19 -0.14 -0.52 c -0.54 -0.6 -1.52 -3.04 -1.22 -3.04 c 0.16 0 0.5 0.31 0.82 0.77 c 0.67 0.94 1.77 1.99 2.43 2.27 c 0.2 0.16 0.54 0.55 0.76 1.06 c -0.27 0.41 -1.7 0.42 -2.32 0.46 c -0.96 0.07 -2.68 0.16 -3.82 0.21 c -1.57 -0.06 -4.33 0.6 -5 0.64" style="fill:#ffdeac"/><path d="m 16 23.6 c -0.43 -0.13 -0.75 -0.31 -1.51 -0.88 c -0.69 -0.52 -1 -0.83 -0.82 -0.83 c 0.07 0 0.18 -0.16 0.29 -0.43 c 0.21 -0.54 0.37 -0.77 0.89 -1.33 c 0.81 -0.87 0.1 -0.95 0.4 -0.88 c 0.48 0 3.37 -0.13 4.11 -0.19 c -0.02 -0.02 -0.22 0.03 -0.23 0.6 c 0 0.18 -0.05 0.66 -0.11 1.07 c -0.22 1.46 -0.12 1.9 0.54 2.3 c 0.33 0.21 0.31 0.23 -0.58 0.46 c -0.81 0.21 -2.44 0.27 -2.98 0.12" style="fill:#8dc896"/><path d="m 16.36 14.32 c -0.18 -0.09 -0.36 -0.23 -0.41 -0.32 c -0.13 -0.23 -0.02 -0.64 0.27 -1.07 c 0.61 -0.92 0.89 -1.71 0.89 -2.57 c 0 -0.59 0.05 -0.7 0.52 -1.21 c 0.2 -0.21 0.45 -0.5 0.55 -0.64 c 0.52 -0.66 1 0.4 0.92 2.3 c -0.05 1.15 -0.25 1.32 -0.69 1.32 c -0.57 0 -0.77 0.32 -0.81 1.38 c -0.03 0.57 -0.05 0.65 -0.23 0.8 c -0.25 0.21 -0.59 0.22 -1.01 0.01" style="fill:#ffdeac"/><path d="m 15.1 17.83 c 0 -0.32 -0.31 -1.16 -0.52 -1.39 l -0.15 -0.17 l 0.18 -0.25 c 0.4 -0.53 0.42 -1.11 0.08 -1.82 c -0.18 -0.38 -0.18 -0.38 -0.02 -0.38 c 0.4 -0.04 0.71 -0.12 1.12 -0.2 v 0.21 c 0 0.57 1.13 0.98 1.63 0.59 c 0.11 -0.09 0.2 -0.22 0.2 -0.3 c 0 -0.14 0.01 -0.14 0.23 -0.03 c 0.13 0.07 0.41 0.14 0.62 0.16 c 0.21 0.03 0.39 0.08 0.41 0.13 c 0.01 0.05 0.06 0.3 0.11 0.57 c 0.56 1.14 0.78 1.91 0.57 2.74 c -0.05 0.26 -0.13 0.28 -0.56 0.11 c -0.26 -0.1 -0.31 -0.16 -0.36 -0.4 c -0.36 -2.03 -0.6 -2.49 -1.06 -2.05 c -0.14 0.13 -0.24 0.41 -0.42 1.19 c -0.16 0.68 -0.3 1.08 -0.41 1.2 c -0.18 0.2 -0.72 0.34 -1.32 0.34 c -0.33 0 -0.33 0 -0.33 -0.25" style="fill:#8dc896"/><g style="fill:#78a6be"><path d="m 14.81 11.36 c -0.09 -0.04 -0.4 -0.13 -0.7 -0.2 c -0.8 -0.18 -1.01 -0.38 -1.01 -0.93 c 0 -0.37 0.06 -0.54 0.35 -0.95 c 0.19 -0.27 0.35 -0.55 0.35 -0.61 c 0 -0.22 0.21 -0.11 0.4 0.21 c 0.13 0.22 0.21 0.58 0.25 1.08 c 0.05 0.68 0.08 0.79 0.36 1.08 c 0.16 0.18 0.3 0.34 0.3 0.36 c 0 0.06 -0.14 0.04 -0.3 -0.04"/><path d="m 15.96 7.63 c 0.05 -0.05 0.12 -0.07 0.14 -0.05 c 0.02 0.02 0.54 0.11 1.15 0.2 c 0.61 0.09 1.14 0.2 1.18 0.23 c 0.08 0.07 -1.12 1.2 -1.28 1.2 c -0.36 -0.14 -1.11 -1.15 -1.19 -1.58"/></g><path d="m 9.23 19.1 c 0 -0.12 0.14 -0.91 0.2 -1.17 c 0.3 -1.14 0.96 -2.23 1.88 -3.08 c 0.74 -0.69 1.21 -1 2.77 -1.85 c 0.38 -0.21 0.79 -0.46 0.9 -0.56 c 0.26 -0.23 0.38 -0.51 0.34 -0.83 c -0.03 -0.28 -0.11 -0.44 -0.41 -0.84 c -0.38 -0.52 -0.39 -0.55 -0.4 -1.26 c -0.01 -0.75 -0.07 -0.99 -0.37 -1.39 c -0.38 -0.52 -0.69 -0.69 -1.35 -0.77 c -3.19 0.48 -3.48 3.5 -0.95 4.34 c 0.29 0.16 -2.8 0.52 -2.41 -2.86 c 0.1 -0.82 0.65 -1.69 1.39 -2.05 c 0.61 -0.29 1.41 -0.52 2.12 -0.52 c 0.68 0 1.19 0.11 1.77 0.39 c 0.88 0.41 1.13 1.23 1.65 1.99 c 0.16 0.23 0.34 0.47 0.41 0.54 c 0.59 0.3 0.34 0.02 0.23 1.07 c -0.05 0.92 -0.16 1.25 -0.75 2.34 c -0.21 0.4 -0.41 0.79 -0.43 0.87 c -0.03 0.16 0.02 0.14 -0.76 0.27 c -0.22 0.04 -0.41 0.08 -0.42 0.09 c -0.02 0.02 -0.1 -0.04 -0.19 -0.11 c -0.09 -0.08 -0.18 -0.14 -0.2 -0.14 c -0.15 0 -0.59 0.22 -0.8 0.4 c -0.34 0.29 -0.48 0.48 -1.07 1.45 c -0.58 0.97 -0.96 1.55 -1.16 1.77 c -0.08 0.09 -0.39 0.5 -0.64 0.67 c -0.5 0.33 -1.06 0.72 -1.25 1.07 c -0.06 0.11 -0.11 0.19 -0.11 0.16" style="fill:#8ebfd0"/><path d="m 16.5 9.8 c 0 0.54 -0.38 0.98 -0.85 0.98 c -0.46 0 -0.84 -0.44 -0.84 -0.98 c 0 -0.54 0.38 -0.98 0.84 -0.98 c 0.47 0 0.85 0.44 0.85 0.98" style="fill:#a8d6e0"/><path d="m 15.98 9.8 c 0 0.23 -0.17 0.42 -0.38 0.42 c -0.21 0 -0.38 -0.19 -0.38 -0.42 c 0 -0.23 0.17 -0.42 0.38 -0.42 c 0.21 0 0.38 0.19 0.38 0.42" style="fill:#dfffff"/></svg>