<svg xmlns="http://www.w3.org/2000/svg" viewBox="0 0 32 32"><path d="m 0.49 19.36 c 1.24 16.44 25.67 16.93 30.54 0.95 c 4.76 -12.94 -8.24 -23.51 -18.85 -19.27 c -7.1 2 -13.23 10.2 -11.69 18.32" style="fill:#2e2f31"/><path d="m 6.07 23.94 c -0.09 -0.06 -0.11 -1.29 -0.09 -5.88 l 0.02 -5.81 l 7.84 -0.02 c 6.21 -0.02 7.86 0 7.91 0.09 c 0.04 0.06 0.07 2.67 0.07 5.8 c 0 4.3 -0.02 5.71 -0.11 5.79 c -0.08 0.09 -1.94 0.11 -7.82 0.11 c -4.24 0 -7.77 -0.04 -7.83 -0.07 m 14.1 -1.82 l -0.03 -0.25 l -6.3 -0.02 c -5.55 -0.02 -6.31 -0.01 -6.36 0.11 c -0.03 0.08 -0.03 0.2 0 0.28 c 0.05 0.12 0.84 0.14 6.38 0.14 h 6.33 m -7.14 -6.14 v -2.43 h -5.56 l -0.02 2.34 c -0.01 1.28 0 2.38 0.02 2.45 c 0.04 0.09 0.63 0.11 2.8 0.09 l 2.76 -0.03 m 7.11 -2.4 l -0.02 -2.45 h -2.6 l -0.05 4.9 h 2.7 m 2.22 -1.67 l -0.02 -5.42 l -14.98 -0.09 v -1.46 h 16.41 l 0.05 12.41 h -1.43 m 2.33 -7.65 c 0 -3.46 -0.03 -5.33 -0.09 -5.45 c -0.09 -0.17 -0.27 -0.18 -7.54 -0.18 h -7.44 v -1.19 h 16.1 v 12.1 h -1.08" style="fill:#fff"/></svg>