<svg xmlns="http://www.w3.org/2000/svg" viewBox="0 0 32 32"><path d="m 0.5 15.93 c -2.19 -21 33.1 -20.86 31.2 0.54 c 1.55 20.1 -33.84 20.98 -31.2 -0.54" style="fill:#778799"/><path d="m 8.7 10.1 h 14.89 c 1.52 0 2.75 0.96 2.75 2.14 v 8.22 c 0 1.18 -1.23 2.14 -2.75 2.14 h -14.89 c -1.52 0 -2.75 -0.96 -2.75 -2.14 v -8.22 c 0 -1.19 1.23 -2.14 2.75 -2.14" style="fill:#3d3745"/><g style="fill:#a3a2a5"><path d="m 13.79 19.28 h 4.34 c 0.61 0 1.11 0.43 1.11 0.96 c 0 0.54 -0.5 0.97 -1.11 0.97 h -4.34 c -0.61 0 -1.11 -0.43 -1.11 -0.97 c 0 -0.53 0.49 -0.96 1.11 -0.96"/><path d="m 24.31 15.18 c 0 1.86 -1.51 3.36 -3.37 3.36 c -1.86 0 -3.37 -1.5 -3.37 -3.36 c 0 -1.85 1.5 -3.36 3.37 -3.36 c 1.86 0 3.37 1.5 3.37 3.36"/><path d="m 14.99 15.1 c 0 1.85 -1.51 3.36 -3.37 3.36 c -1.86 0 -3.37 -1.5 -3.37 -3.36 c 0 -1.86 1.51 -3.36 3.37 -3.36 c 1.86 0 3.37 1.5 3.37 3.36"/></g><g style="fill:#e36396"><path d="m 13.97 15.1 c 0 1.32 -1.05 2.39 -2.35 2.39 c -1.3 0 -2.35 -1.07 -2.35 -2.39 c 0 -1.32 1.05 -2.39 2.35 -2.39 c 1.3 0 2.36 1.07 2.35 2.39"/><path d="m 23.2 15.1 c 0 1.32 -1.05 2.39 -2.35 2.39 c -1.3 0 -2.35 -1.07 -2.35 -2.39 c 0 -1.32 1.05 -2.39 2.35 -2.39 c 1.3 0 2.35 1.07 2.35 2.39"/></g><path d="m 8.71 11.96 c 0 0.54 -0.43 0.97 -0.97 0.97 c -0.54 0 -0.97 -0.43 -0.97 -0.97 c 0 -0.53 0.43 -0.96 0.97 -0.96 c 0.54 0 0.97 0.43 0.97 0.96" style="fill:#3ccd80"/></svg>