<svg xmlns="http://www.w3.org/2000/svg" viewBox="0 0 32 32"><path d="m 0.37 19.65 c 1.98 12.91 19.61 16.38 27.39 7.15 c 6.85 -6.85 5.15 -19.96 -3.26 -24.46 c -9.65 -6 -23.71 1.42 -24.48 13.4 c -0.08 1.31 0.04 2.64 0.35 3.91" style="fill:#fc561f"/><path d="m 14.65 18.1 h -2.25 l 3.75 5.45 l 3.75 -5.45 h -2.25 v -3.48 h 2.25 l -3.75 -5.45 l -3.75 5.45 h 2.25 v 3.48 m 5.46 5.4 c 0.4 -0.24 0.91 -0.09 1.14 0.32 c 0.23 0.41 0.09 0.95 -0.31 1.18 c -1.56 0.93 -3.33 1.39 -5.12 1.33 c -1.63 -0.06 -3.2 -0.55 -4.61 -1.41 c -0.4 -0.25 -0.52 -0.78 -0.29 -1.19 c 0.24 -0.41 0.75 -0.55 1.14 -0.3 c 1.16 0.72 2.46 1.11 3.8 1.16 c 1.48 0.05 2.95 -0.32 4.23 -1.1 m 3.15 -10.81 c -0.21 -0.43 -0.04 -0.95 0.37 -1.16 c 0.41 -0.22 0.91 -0.04 1.12 0.39 c 0.72 1.48 1.06 3.14 1 4.79 c -0.04 1.27 -0.31 2.5 -0.8 3.67 c -0.18 0.44 -0.68 0.64 -1.1 0.45 c -0.42 -0.19 -0.61 -0.71 -0.43 -1.14 c 0.41 -0.95 0.63 -1.98 0.66 -3 c 0.04 -1.38 -0.24 -2.73 -0.83 -3.96 m -10.55 -3.74 c -0.41 0.21 -0.92 0.02 -1.12 -0.41 c -0.2 -0.43 -0.02 -0.95 0.39 -1.16 c 1.39 -0.7 2.94 -1.04 4.49 -0.98 c 1.49 0.05 2.96 0.46 4.28 1.21 c 0.4 0.23 0.55 0.76 0.33 1.18 c -0.22 0.42 -0.73 0.57 -1.14 0.35 c -1.09 -0.62 -2.3 -0.96 -3.53 -1 c -1.28 -0.05 -2.55 0.23 -3.71 0.81 m -4.09 10.1 c 0.15 0.45 -0.09 0.95 -0.53 1.1 c -0.44 0.16 -0.91 -0.09 -1.06 -0.55 c -0.36 -1.13 -0.52 -2.32 -0.49 -3.51 c 0.05 -1.57 0.46 -3.11 1.2 -4.49 c 0.22 -0.41 0.73 -0.57 1.13 -0.34 c 0.4 0.23 0.55 0.76 0.33 1.18 c -0.61 1.14 -0.94 2.41 -0.98 3.7 c -0.03 0.99 0.11 1.96 0.4 2.9 m 14.73 -8.92 c -0.02 0.48 -0.4 0.85 -0.86 0.83 c -0.46 -0.02 -0.82 -0.41 -0.8 -0.89 c 0.02 -0.48 0.4 -0.86 0.86 -0.83 c 0.46 0.02 0.82 0.41 0.8 0.9 m -13.1 12 c -0.02 0.48 -0.4 0.85 -0.87 0.83 c -0.46 -0.02 -0.82 -0.42 -0.8 -0.9 c 0.02 -0.48 0.4 -0.86 0.87 -0.83 c 0.46 0.02 0.82 0.41 0.8 0.9 m 13.38 0.47 c 0.02 -0.48 -0.34 -0.88 -0.8 -0.9 c -0.46 -0.02 -0.85 0.36 -0.86 0.83 c -0.02 0.48 0.34 0.88 0.8 0.9 c 0.46 0.02 0.85 -0.36 0.86 -0.83 m -12.78 -12.93 c 0.02 -0.48 -0.34 -0.88 -0.8 -0.9 c -0.46 -0.02 -0.85 0.36 -0.87 0.83 c -0.02 0.48 0.34 0.88 0.8 0.9 c 0.46 0.02 0.85 -0.36 0.87 -0.83" style="fill:#fff;fill-rule:evenodd"/></svg>