<svg xmlns="http://www.w3.org/2000/svg" viewBox="0 0 32 32"><path d="m 31.73 12.34 c -5.14 -29.99 -49.3 2.2 -24.1 17.45 c 9.79 6.54 26.7 -2.02 24.1 -17.45" style="fill:#007f7f"/><path d="m 11 21.52 c 0 -0.05 0.13 -0.61 0.29 -1.22 c 1.14 -4.41 3.14 -7.68 6 -9.83 c 0.97 -0.71 1.45 -1.02 3.09 -1.92 c 1.17 -0.64 3.45 -1.39 5.11 -1.69 c 0.62 -0.38 1.23 0.24 0.9 0.44 c -0.09 0.05 -1.95 1.88 -4.12 4.07 l -3.95 3.98 c -0.58 -0.11 -0.57 -0.15 -1.15 -0.11 l -1.79 1.8 c -0.98 0.99 -2.38 2.43 -3.11 3.19 c -0.72 0.76 -1.32 1.34 -1.32 1.29" style="fill:#ff5d81"/><path d="m 14.75 20.54 c 2.86 -2.95 3.5 -3.63 3.68 -3.9 c 0.22 -0.33 0.18 -0.73 -0.11 -1.02 c -0.23 -0.23 -0.23 -0.25 -0.06 -0.25 c 0.24 0 0.77 -0.51 4.1 -3.9 c 3.21 -3.27 4.26 -4.28 4.37 -4.21 c 0.21 0.13 0.04 1 -0.77 3.82 c -0.41 1.45 -0.8 2.34 -1.69 3.84 c -0.25 0.43 -0.26 0.43 -0.85 0.54 c -0.86 0.15 -1.4 0.32 -1.4 0.45 c 0 0.06 0.11 0.26 0.25 0.44 c 0.48 0.64 0.31 1.11 -0.8 2.13 c -2 1.85 -4.54 3.19 -7.71 4.09 c -0.57 0.16 -1.1 0.32 -1.2 0.35 c -0.09 0.03 0.89 -1.04 2.19 -2.38" style="fill:#b7457d"/><path d="m 8.37 25.68 c -0.45 -0.45 -0.41 -0.72 0.21 -1.42 c 1.14 -1.29 8.1 -8.32 8.58 -8.66 c 0.22 -0.16 0.29 -0.16 0.59 -0.07 c 0.4 0.12 0.6 0.38 0.6 0.76 c 0 0.21 -0.1 0.39 -0.4 0.73 c -0.61 0.69 -6 6.24 -7.5 7.69 c -1.47 1.44 -1.57 1.49 -2.08 0.98" style="fill:#4b438c"/><path d="m 7.1 22.38 c -0.71 -0.71 -1.02 -1.86 -1.16 -4.23 c -0.18 -3.19 0.7 -5.58 2.92 -7.98 c 1.42 -1.54 3.55 -2.7 5.73 -3.12 c 1.59 -0.32 4 -0.04 5.57 0.63 l 0.98 0.43 l -1.31 0.7 c -0.72 0.38 -1.83 1.09 -2.47 1.57 c -0.75 0.57 -0.77 0.88 -1.81 0.88 c -1.05 0 -2.46 0.66 -3.48 1.63 c -1.72 1.63 -2.37 3.59 -2 6.09 c 0.25 1.73 -0.02 2.86 -0.81 3.48 c -0.76 0.6 -1.52 0.57 -2.16 -0.07" style="fill:#51d1fb"/><path d="m 13.7 28.2 c -0.92 -0.21 -2.25 -0.86 -3.49 -1.68 l -0.81 -0.54 c 0.64 -0.59 1.28 -1.18 1.92 -1.77 l 0.57 0.45 c 1.68 1.32 5.28 1.61 7.5 0.61 c 1.7 -0.78 3.41 -2.48 4.19 -4.18 c 0.53 -1.16 0.62 -1.63 0.63 -3.43 c 0.01 -1.57 -0.12 -2.36 0.18 -2.92 c 0.54 -0.73 0.88 -1.39 1.18 -2.23 l 0.48 1.42 c 1.36 3.99 0.56 8.1 -2.16 11 c -2.15 2.36 -4.66 3.48 -7.67 3.44 c -0.93 -0.02 -2.06 -0.11 -2.51 -0.22" style="fill:#0d9cbf"/></svg>