<svg xmlns="http://www.w3.org/2000/svg" viewBox="0 0 32 32"><path d="m 30.46 23.5 c -6.26 14.98 -30.48 8.3 -30.3 -8 c -0.24 -14.83 19 -20.45 27.47 -9.89 c 4.22 4.57 5.7 12.14 2.87 17.92" style="fill:#ee1970"/><g style="fill:#fff"><path d="m 12.13 29.43 c -0.87 -0.14 -1.62 -0.52 -2 -1.03 c -0.63 -0.8 -0.79 -2.11 -0.36 -2.89 c 0.31 -0.56 0.93 -0.82 2.47 -1.04 c 1.13 -0.16 1.46 -0.29 1.85 -0.71 c 0.38 -0.42 0.47 -0.65 0.47 -1.13 c 0 -0.39 -0.03 -0.5 -0.34 -1.15 c -0.6 -1.25 -1.55 -2.98 -2 -3.55 c -0.3 -0.48 -4.27 1.71 -4.85 2.07 c -1.15 0.73 -2.15 1.28 -2.68 1.47 c -2.77 0.22 -2.62 -2.74 -1.31 -4.31 c 0.39 -0.39 1.27 -0.91 3.49 -2.04 c 1.04 -0.53 2.33 -1.2 2.86 -1.48 c 1.14 -0.62 1.09 -0.48 0.73 -1.84 c -0.45 -1.71 -0.49 -1.96 -0.53 -3.1 c -0.06 -1.86 0.18 -2.68 1 -3.57 c 1.53 -1.64 4.65 -2.45 6.35 -1.64 c 0.64 0.3 1.16 0.87 1.57 1.72 c 0.36 0.75 0.57 1.36 1.03 2.98 c 0.46 1.66 0.53 1.77 1 1.77 c 0.48 0 0.93 -0.26 1.27 -0.75 c 0.31 -0.45 0.46 -0.76 1.14 -2.48 c 0.25 -0.64 0.67 -1.58 0.93 -2.09 c 0.79 -1.91 4 2.27 3.7 2.77 c -0.05 0.08 -0.22 0.49 -0.37 0.91 c -0.7 1.95 -1.25 2.73 -3.93 5.63 c -0.56 0.61 -1.07 1.21 -1.13 1.34 c -0.19 0.4 -0.08 0.58 0.9 1.47 c 1.35 1.23 2.3 2.34 2.72 3.18 c 0.47 0.95 1.18 2.93 1.76 4.94 c 0.63 1.55 -1.91 3.16 -2.83 3.19 c -1.02 0 -1.38 -0.09 -1.78 -0.44 c -0.43 -0.38 -0.62 -0.93 -0.73 -2.25 c -0.17 -1.89 -0.86 -3.3 -1.86 -3.79 c -0.34 -0.17 -0.47 -0.2 -0.8 -0.19 l -0.39 0.02 l -0.02 0.46 c -0.01 0.25 -0.06 0.99 -0.12 1.63 c -0.29 3.34 -1.24 4.61 -4.12 5.5 c -1.33 0.41 -2.34 0.55 -3.07 0.43 m 3.54 -19.1 c 1.24 -0.36 2.36 -0.95 2.68 -1.42 c 0.19 -0.27 0.2 -0.31 0.19 -0.98 c -0.01 -0.68 -0.02 -0.72 -0.32 -1.44 c -0.54 -1.29 -1.08 -1.79 -1.99 -1.85 c -0.58 -0.04 -1.2 0.11 -1.95 0.48 c -0.95 0.47 -1.37 1.05 -1.45 2 c -0.07 1.11 0.02 2.39 1.02 3.05 c 0.59 0.37 0.99 0.41 1.83 0.16"/><path d="m 17.26 8.82 c -0.16 -0.22 -0.36 -1.16 -0.29 -1.36 c 0.03 -0.08 0.15 -0.19 0.27 -0.23 c 0.26 -0.11 0.42 0.02 0.64 0.49 c 0.2 0.43 0.18 0.7 -0.09 1.02 c -0.27 0.32 -0.36 0.34 -0.54 0.09"/><path d="m 16.55 6.44 c -0.25 -0.31 -0.29 -0.64 -0.09 -0.84 c 0.15 -0.15 0.44 -0.07 0.65 0.18 c 0.19 0.23 0.17 0.68 -0.04 0.82 c -0.24 0.16 -0.26 0.15 -0.52 -0.16"/></g></svg>