<svg xmlns="http://www.w3.org/2000/svg" viewBox="0 0 32 32"><path d="m 31.3 19 c -1.25 2.92 -3.08 6.98 -3.32 7.34 c -0.14 0.22 -0.52 0.59 -0.82 0.82 c -0.88 0.67 -7.15 4.26 -7.71 4.41 c -0.52 0.14 -2.41 0.08 -4.12 -0.14 c -5.1 -0.5 -4.94 -0.25 -6 -0.91 c -0.29 -0.14 -1.96 -1.57 -3.71 -3.18 c -3.36 -3.09 -3.64 -3.42 -3.89 -4.73 c -0.61 -3.52 -1.35 -5.73 -1.54 -8.89 c 1.2 -2.8 2.45 -5.83 3.95 -8.48 c 0.36 -0.41 1.29 -1.03 3.64 -2.41 c 4.83 -2.83 4.3 -2.6 5.99 -2.58 c 2.63 0.28 7 0.27 8.88 1.18 c 0.59 0.32 5.24 4.44 6.48 5.74 c 0.62 0.65 0.89 1.3 1.21 2.8 c 0.57 1.53 1.16 5.11 1.39 6.34 c 0.16 0.71 0.11 1.54 -0.39 2.68" style="fill:#00707d"/><path d="m 7 21.47 c 0 -0.16 3.69 -2.33 3.96 -2.33 c 1.07 0.82 3.87 1.79 4.63 2.68 c 0.2 0.28 0.19 4.43 -0.02 4.55 c -2.7 -0.7 -6.53 -2.74 -8.58 -4.9" style="fill:#4c3e33"/><path d="m 6.63 20.42 c -0.16 -0.98 -0.16 -7.97 0 -8.77 c 0.07 -0.34 0.23 -0.62 0.35 -0.61 c 1.4 0.64 2.4 1.27 3.8 2.08 c 0.23 1.25 -0.13 4.42 0.36 5.41 c 0.09 0.15 0.06 0.25 -0.09 0.25 c -1.59 0.66 -2.64 1.59 -4.24 2.39 c -0.03 0 -0.11 -0.34 -0.18 -0.75" style="fill:#79563b"/><path d="m 6.91 10.61 c -0.03 -0.43 6.9 -4.54 8.49 -5 l 0.45 -0.14 c 0 1.7 0 3.39 0 5.09 c -1.7 0.66 -3.37 1.73 -4.66 2.58 c -1.29 -0.95 -3.12 -1.39 -4.27 -2.51" style="fill:#99cd61"/><path d="m 16 10.43 c 0 -1.65 0 -3.3 0 -4.96 l 0.55 0.21 c 1.29 0.49 3.42 1.7 5.63 3.19 c 1.3 0.88 2.37 1.63 2.37 1.67 c 0 0.07 -2.95 1.86 -3.68 2.24 c -1.57 -0.3 -3.35 -1.58 -4.87 -2.34" style="fill:#de6277"/><path d="m 20.57 13.28 c 0.61 -0.33 4.13 -2.63 4.49 -2.44 c 0.33 1.73 0.3 3.09 0.38 4.96 c -1.36 0.12 -2.84 0.29 -4.18 0.13 c -0.71 0.12 -0.57 -1.92 -0.69 -2.64" style="fill:#f3db6b"/><path d="m 20.7 18.79 c 0.26 -1.13 0.03 -1.56 0.19 -2.59 c 1.5 0 2.99 0 4.49 0 v 1.56 c 0 1.73 -0.18 3.41 -0.38 3.39 c -1.21 -0.41 -3.21 -2.21 -4.3 -2.37" style="fill:#79b292"/><path d="m 16.1 21.44 c 1.73 -0.88 3.04 -1.59 4.65 -2.52 c 0.7 0.54 3.51 1.78 3.83 2.4 c 0.15 0.45 -7.43 5 -8.35 5 c -0.39 -1.89 -0.18 -2.78 -0.13 -4.89" style="fill:#6395ec"/><path d="m 16.38 15.97 l 1.98 -1.1 c 2.29 -1.28 2.21 -1.32 2.24 1.16 c 0.03 2.09 -0.18 2.64 -1.25 3.34 c -0.89 0.59 -2.77 1.59 -2.96 1.59 c -0.13 -1.75 -0.04 -3.1 0 -5" style="fill:#dcdcdc"/><path d="m 11.47 18.1 c -0.21 -0.62 -0.27 -3.32 -0.08 -4 c 0.96 -0.38 2.95 1.14 4.55 2 c -0.07 0.64 0.36 4.8 -0.15 4.86 c -1.24 -0.52 -3.97 -1.88 -4.32 -2.86" style="fill:#d2d2d2"/><path d="m 11.49 13.48 c -0.04 -0.44 3.73 -2.65 4.5 -2.65 c 0.47 0 3.39 1.66 4 2.29 c 0.43 0.43 0.45 0.49 0.13 0.49 c -0.38 0 -3.54 1.65 -3.96 2.07 c -1.11 -0.27 -3.35 -1.49 -4.7 -2.2" style="fill:#fff"/></svg>