<svg xmlns="http://www.w3.org/2000/svg" viewBox="0 0 32 32"><path d="m 0.31 12.43 c 6.27 -29.99 49.4 2.2 23.48 17.45 c -10.1 6.54 -26.71 -2.02 -23.48 -17.45" style="fill:#ffecdb"/><g style="fill:#d2d9e3"><path d="m 9.57 16.84 c -2.34 -7.63 0.75 -11.7 6.38 -7.93 c 0.17 -0.11 0.63 1.87 0.95 2.87 c 0.52 1.68 0.36 2.94 -0.86 7 c -0.9 3 1.86 5 -2.21 5.12 c -9.47 -2.19 -4.07 -6.2 -4.26 -7.1"/><path d="m 19.86 16.76 c 1.54 -1.82 1.68 -4.88 5.43 -3.16 c 0.13 -0.05 0.68 0.57 0.91 1.03 c 0.38 0.77 0.27 1.34 -0.63 3.2 c -0.67 1.38 -0.92 1.84 -1.63 2.34 c -1.49 -0.11 -2.62 -2.22 -4.08 -3.41"/></g><path d="m 11 12.5 c 0 0.68 -0.34 1.23 -0.75 1.23 c -0.42 0 -0.75 -0.55 -0.75 -1.23 c 0 -0.68 0.34 -1.23 0.75 -1.23 c 0.41 0 0.75 0.55 0.75 1.23" style="fill:#d8455d"/><path d="m 13.65 25.56 c -2.59 -0.33 -3.79 -1.68 -4.44 -3.99 c -0.18 -0.65 -0.18 -0.67 0.06 -0.45 c 0.3 0.27 1.28 0.8 2.03 1.1 c 0.86 0.33 1.83 0.82 3.07 0.89 c 0.86 0.05 1.38 -0.14 1.57 0.04 c 1.07 0.55 3.62 0.7 3.86 1.28 c 0.16 0 0.33 0.06 0.3 0.08 c -2.06 0.77 -1.36 1.78 -1.99 1.78 c -0.86 -0.01 -2.17 -0.66 -2.91 -0.43 c -0.22 0.07 -1.43 -0.29 -1.55 -0.3" style="fill:#8eabdc"/><path d="m 15.2 27.41 c -0.21 -0.17 -0.3 -0.18 -0.45 -0.09 c -0.45 0.28 -0.79 -0.09 -0.76 -0.82 c 0.04 -0.67 0.04 -0.67 -0.43 -0.74 c -0.57 -0.08 -0.75 0.03 -1.14 0.69 c -0.3 0.51 -0.34 0.55 -0.65 0.52 c -0.18 -0.02 -0.47 -0.03 -0.64 -0.02 c -0.71 0 -0.95 -0.98 -0.41 -1.71 c 0.16 -0.22 0.29 -0.43 0.29 -0.47 c 0 -0.13 -0.58 -0.52 -1.39 -0.93 c -0.6 -0.3 -0.85 -0.5 -1.13 -0.86 c -0.3 -0.4 -0.41 -0.48 -0.67 -0.48 c -0.46 0 -0.58 -0.29 -0.51 -1.27 c 0.12 -1.63 0.63 -2.93 1.51 -3.89 c 0.25 -0.27 0.5 -0.62 0.56 -0.77 c 0.17 -0.44 -0.24 -1.23 -0.46 -1.66 c -0.26 -0.51 -0.47 -2.71 -0.22 -3.22 c 0.11 -0.21 0.16 1.43 0.25 1.92 c 0.16 0.88 0.36 1.33 0.66 1.53 c 0.24 0.16 0.24 0.16 0.11 0.61 c -0.18 0.59 -0.18 1.77 0.01 2.39 c 0.25 0.84 0.44 0.8 1.37 -0.34 c 0.38 -0.46 0.92 -1.09 1.21 -1.4 c 0.48 -0.51 0.54 -0.55 0.74 -0.44 c 0.29 0.16 1.46 0.04 2 -0.2 c 0.6 -0.26 1.14 -0.71 1.43 -1.21 c 0.21 -0.37 0.25 -0.53 0.24 -1.18 c -0.03 -2.13 -0.8 -3.58 -2.33 -4.4 c -0.61 -0.33 -0.64 -0.33 -1.75 -0.33 l -2 0.5 l 1.02 -0.71 c 0.16 -0.11 0.12 -0.25 0.05 -0.32 c -0.13 -0.13 -0.61 0.13 -0.79 0.42 c -0.15 0.14 0.93 0 -0.04 0.49 c -1 0.5 -1.63 1.2 -1.96 2.21 l -0.14 2.21 l -0.14 -0.17 c -0.55 -0.65 0.13 -3.11 0.07 -3.71 c -0.19 -1.77 0.01 -2.99 0.5 -3.12 c 0.18 -0.04 0.29 -0.2 0.45 -0.59 c 0.52 -1.27 1.31 -1.6 1.83 -0.76 c 0.15 0.24 0.19 0.48 0.19 1.14 c 0 0.95 0.01 0.96 0.78 0.69 c 0.31 -0.11 0.69 -0.14 1.43 -0.12 l 1.01 0.03 l 0.25 -0.47 c 0.14 -0.26 0.37 -0.56 0.51 -0.66 c 0.24 -0.18 0.27 -0.18 0.59 -0.03 l 0.34 0.16 l 0.23 -0.37 c 0.63 -0.99 1.5 -1.05 1.97 -0.13 c 0.34 0.68 0.41 1.31 0.37 3.32 c -0.02 1.05 -0.1 2.39 -0.18 2.96 c -0.19 1.52 -0.17 2.52 0.09 3.59 c 0.22 0.91 0.48 1.34 0.84 1.34 c 0.08 0 0.37 -0.45 0.68 -1.07 c 0.68 -1.36 0.9 -1.64 1.47 -1.93 c 0.27 -0.14 0.57 -0.39 0.73 -0.63 c 0.43 -0.62 0.7 -0.77 1.41 -0.77 c 0.44 0 0.7 0.05 0.93 0.19 c 0.27 0.17 0.31 0.24 0.31 0.6 c 0 0.33 0.09 0.53 0.43 1.02 c 0.23 0.34 0.5 0.82 0.59 1.08 c 0.16 0.47 0.16 0.48 -0.15 1.4 c -0.17 0.51 -0.58 1.49 -0.92 2.17 c -0.59 1.21 -0.61 1.25 -0.5 1.64 c 0.14 0.51 -0.04 0.98 -0.68 1.86 c -0.77 1.03 -1.58 1.56 -3.39 2.21 c -0.2 0.07 -1.37 0.72 -2 1.11 c -0.12 0.08 -0.1 0.13 0.12 0.37 c 0.21 0.22 0.27 0.37 0.27 0.73 c 0 0.31 -0.05 0.47 -0.14 0.51 c -0.24 0.09 -0.6 -0.05 -0.96 -0.36 c -0.18 -0.16 -0.48 -0.32 -0.66 -0.34 c -0.3 -0.05 -0.38 0 -1.05 0.63 c -0.4 0.38 -0.77 0.68 -0.82 0.68 c -0.05 0 -0.22 -0.09 -0.36 -0.21 m 3.26 -1.34 c 0.08 -0.13 0.05 -0.21 -0.12 -0.39 l -0.22 -0.23 l 0.75 -0.36 c 0.71 -0.34 1.09 -0.59 1.09 -0.72 c 0 -0.03 -0.38 -0.12 -0.84 -0.19 c -0.86 -0.13 -1.48 -0.32 -2.24 -0.66 c -0.24 -0.11 -0.55 -0.22 -0.7 -0.25 c -0.38 -0.08 -0.89 -0.63 -1.27 -1.37 c -0.22 -0.43 -0.54 -0.85 -0.98 -1.27 c -0.77 -0.73 -1.35 -1.09 -2.1 -1.3 c -0.61 -0.17 -1.05 -0.09 -1.7 0.33 c -0.78 0.5 -0.94 1.31 -0.52 2.66 c 0.51 1.67 1.65 2.65 3.64 3.16 c 0.81 0.21 0.87 0.21 1.33 0.06 c 0.39 -0.13 0.54 -0.13 0.79 -0.04 c 0.17 0.06 0.47 0.11 0.66 0.11 c 0.43 0 0.91 0.17 0.98 0.34 c 0.03 0.07 0.18 0.14 0.32 0.14 c 0.15 0 0.34 0.04 0.41 0.1 c 0.21 0.14 0.59 0.07 0.71 -0.12 m 5.83 -6.21 c 0.28 -0.1 0.39 -0.27 1.11 -1.75 c 1.17 -2.39 1.23 -2.78 0.57 -3.82 c -0.33 -0.52 -0.65 -0.75 -0.82 -0.59 c -0.14 0.15 -1.25 2.64 -1.25 2.82 c 0 0.09 0.09 0.2 0.19 0.23 c 0.26 0.08 0.34 0.46 0.18 0.84 c -0.07 0.17 -0.36 0.71 -0.64 1.19 c -0.28 0.48 -0.51 0.95 -0.51 1.03 c 0 0.18 0.67 0.21 1.15 0.04 m -3.43 -3.36 c 0.34 -0.35 0.64 -0.82 1 -1.59 c 0.29 -0.6 0.49 -1.13 0.46 -1.17 c -0.23 -0.38 -0.83 0.33 -1.55 1.8 c -0.55 1.13 -0.65 1.46 -0.46 1.46 c 0.03 0 0.27 -0.23 0.54 -0.5 m -6.38 -7.98 c 0 -0.12 -0.52 -0.6 -0.64 -0.6 c -0.07 0 -0.19 0.1 -0.27 0.21 c -0.14 0.2 -0.14 0.23 0.01 0.34 c 0.17 0.13 0.9 0.17 0.9 0.05 m -0.46 5.62 c -0.37 -0.23 -0.41 -0.41 -0.09 -0.33 c 0.47 0.12 1.27 -0.5 1.07 -0.82 c -0.03 -0.05 -0.01 -0.25 0.05 -0.44 c 0.16 -0.49 -0.01 -0.87 -0.45 -0.99 c -0.21 -0.05 -0.43 -0.05 -0.57 0 c -0.3 0.11 -0.29 0.05 0.02 -0.41 c 0.36 -0.52 0.64 -0.56 1.05 -0.17 c 0.57 0.55 0.73 1.31 0.49 2.43 c -0.13 0.61 -0.29 0.75 -0.93 0.87 c -0.25 0.05 -0.42 0.01 -0.65 -0.13 m -4.24 -0.16 c -0.21 -0.08 -0.33 -0.51 -0.37 -1.31 c -0.03 -0.6 0 -0.84 0.16 -1.18 c 0.11 -0.24 0.19 -0.49 0.19 -0.56 c 0 -0.34 0.49 -0.1 0.62 0.33 c 0.05 0.17 0.03 0.19 -0.11 0.19 c -0.32 0 -0.41 0.32 -0.41 1.05 c 0 0.78 0.11 1.07 0.39 1.07 c 0.22 0 0.23 0.04 0.09 0.29 c -0.1 0.18 -0.3 0.22 -0.55 0.12" style="fill:#545169"/><g style="fill:#2f2e46"><path d="m 11.81 8.44 c 0.16 -0.42 0.28 -1.33 0.73 -1.47 c 0.5 -0.14 1.16 -0.2 1.4 -0.14 c 0.08 0.02 0.1 0.06 0.1 0.19 c 0 0.13 -0.04 0.2 -0.21 0.38 c -0.27 0.32 -0.43 0.66 -0.63 1.03 c -0.45 0 -0.86 0.01 -1.4 0"/><path d="m 10 23.96 c -0.77 -0.32 -1.2 -0.64 -1.59 -1.16 c -0.31 -0.4 -0.36 -0.43 -0.72 -0.41 c -0.12 0.01 -0.17 -0.02 -0.24 -0.12 c -0.18 -0.62 -0.1 -1.35 0.04 -2 c 0.29 -1.39 0.65 -2.12 1.54 -3.06 l 0.36 -0.38 c 0.03 0.42 0.09 0.86 0.17 1.25 c 0.17 0.62 -0.09 1.21 -0.14 1.72 c -0.14 0.71 -0.2 1.49 -0.07 2 c 0.22 0.87 0.43 1.39 0.75 1.87 c 0.19 0.29 0.24 0.39 0.18 0.39 c -0.02 0 -0.15 -0.05 -0.28 -0.11"/></g><path d="m 15.46 12.68 c 0 0.8 -0.48 1.46 -1.07 1.46 c -0.59 0 -1.07 -0.65 -1.07 -1.46 c 0 -0.8 0.48 -1.46 1.07 -1.46 c 0.59 0 1.07 0.66 1.07 1.46" style="fill:#d8455d"/><g style="fill:#2f2e46"><path d="m 19.98 24.29 c -0.61 -0.28 -1.38 -0.3 -2.1 -0.5 c -0.1 -0.03 -0.42 -0.15 -0.71 -0.27 c -0.55 -0.21 -1.21 -0.39 -1.58 -0.76 c -0.68 -0.89 -1.32 -1.81 -1.27 -2.81 c 0.09 -1.31 0.73 -2.99 1.46 -3.82 c 0.31 -0.35 0.8 -0.6 1.39 -0.7 c 0.34 -0.05 1.07 -0.15 0.54 -0.41 c -0.13 -0.06 -0.32 -0.2 -0.44 -0.31 c -0.25 -0.24 -0.27 -0.36 -0.11 -0.7 c 0.18 -0.36 0.27 -0.42 0.66 -0.45 c 0.19 -0.02 0.37 -0.05 0.4 -0.07 c 0.09 -0.2 0.06 -0.42 -0.06 -0.52 c -0.06 -0.02 -0.22 -0.04 -0.36 -0.04 c -0.48 0 -0.75 -0.26 -0.75 -0.7 c 0 -0.46 0.16 -0.66 0.79 -0.97 c 0.23 -0.11 0.45 -0.23 0.49 -0.26 c 0.16 -0.13 0.26 -0.53 0.45 -1.85 c 0.06 -0.43 0.13 -0.85 0.15 -0.93 l 0.04 -0.16 l 0.17 0.4 c 0.14 0.34 -0.18 2.18 -0.35 3.67 c -0.12 0.95 -0.13 1.57 -0.05 2.03 c 0.14 0.77 0.42 1.82 0.53 1.99 c 0.12 0.19 0.42 0.41 0.64 0.47 c 0.13 0.04 0.15 0.06 0.18 0.23 c 0.31 0.53 0.65 -0.16 0.93 -0.46 c 0.92 -1.16 1 -2.46 1.75 -3.39 c 0.28 -0.35 0.55 -0.61 0.75 -0.72 c 0.19 -0.1 0.57 -0.14 0.92 -0.09 c 0.68 0.1 0.88 0.31 0.88 0.92 c 0 0.31 0 0.32 -0.18 0.51 c -0.26 0.28 -1.1 2 -1.34 2.74 c -0.09 0.3 -0.06 0.42 0.13 0.54 c 0.36 0.21 0.28 0.57 -0.37 1.72 c -0.63 1.11 -0.68 1.29 -0.38 1.39 c 0.24 0.08 0.81 0.04 1.12 -0.07 c 0.13 -0.05 0.26 -0.09 0.28 -0.09 c 0.07 0 0.16 0.32 0.16 0.61 c 0 0.63 -0.35 1.28 -1.14 2.09 c -0.5 0.52 -0.86 0.78 -1.51 1.1 c -0.46 0.23 -1.88 0.78 -1.99 0.78 c -0.01 0 -0.09 -0.06 -0.16 -0.13 m -0.35 -0.79 c 0.36 -0.07 1.13 -0.29 1.46 -0.42 c 0.25 -0.09 0.36 -0.21 0.36 -0.38 c 0 -0.16 0.19 -0.27 1 -0.53 c 0.43 -0.14 0.91 -0.32 1.07 -0.41 c 0.36 -0.19 0.64 -0.49 0.84 -0.88 c 0.45 -0.78 -1.26 -0.05 -1.62 0.08 c -0.25 0.09 -0.88 0.77 -0.96 0.45 c -0.05 -0.23 0.44 -0.51 0.99 -0.8 c 0.91 -0.38 -0.29 -0.34 -0.48 -0.34 c -0.73 -0.25 -1.14 0.61 -1.72 0.63 c -0.31 0 -0.52 -0.07 -0.84 -0.27 c -0.38 -0.23 -0.48 -0.23 -0.56 0.02 c -0.3 0.32 -0.64 0.52 -0.71 0.88 c -0.14 0.51 -0.53 0.96 -1.07 0.97 c -0.14 0 -0.33 0.13 -0.36 0.25 c 0.16 1.07 1.83 0.88 2.63 0.74"/><path d="m 15.18 27.31 c -0.21 -0.19 -0.32 -0.18 -0.54 -0.09 c -0.42 0.19 -0.53 0.01 -0.53 -0.87 v -0.62 l 0.33 -0.08 c 0.4 -0.09 0.77 -0.1 1.12 -0.01 c 0.14 0.04 0.35 0.06 0.46 0.06 c 0.25 0 0.56 0.09 0.74 0.22 c 0.23 0.17 0.19 0.28 -0.27 0.73 c -0.43 0.43 -0.92 0.82 -1.02 0.82 c -0.03 0 -0.16 -0.08 -0.29 -0.18 m 0.5 -0.18 c 0.06 -0.05 0.19 -0.21 0.29 -0.36 c 0.23 -0.34 0.24 -0.54 0.05 -0.64 c -0.21 -0.11 -0.39 -0.09 -0.55 0.08 c -0.24 0.25 -0.3 0.65 -0.13 0.91 c 0.08 0.13 0.19 0.13 0.34 0.01 m -1.06 -0.23 c 0.21 -0.22 0.27 -0.39 0.28 -0.7 c 0 -0.28 0 -0.29 -0.11 -0.3 c -0.42 0.12 -0.66 0.65 -0.52 1.04 c 0.06 0.16 0.2 0.14 0.36 -0.03"/><path d="m 18.56 26.89 c -0.11 -0.06 -0.29 -0.18 -0.41 -0.27 l -0.22 -0.16 l 0.22 -0.11 c 0.23 -0.11 0.4 -0.28 0.4 -0.4 c 0 -0.04 -0.05 -0.16 -0.11 -0.27 c -0.09 -0.15 -0.11 -0.21 -0.06 -0.26 c 0.08 -0.09 0.16 -0.08 0.19 0.04 c 0.02 0.05 0.11 0.21 0.22 0.34 c 0.22 0.26 0.3 0.46 0.3 0.77 c 0 0.17 -0.02 0.24 -0.1 0.33 c -0.13 0.14 -0.2 0.14 -0.44 0"/><path d="m 11.66 26.93 c -0.07 -0.04 -0.26 -0.07 -0.42 -0.09 c -0.58 -0.06 -0.71 -0.21 -0.71 -0.78 c 0 -0.36 0 -0.35 0.39 -1 c 0.11 -0.18 0.2 -0.28 0.25 -0.28 c 0.04 0 0.26 0.09 0.48 0.21 c 0.22 0.11 0.62 0.29 0.88 0.39 c 0.27 0.1 0.49 0.2 0.5 0.23 c 0.01 0.03 -0.05 0.08 -0.12 0.13 c -0.18 0.09 -0.3 0.22 -0.6 0.69 c -0.21 0.29 -0.31 0.64 -0.65 0.51 m 0.27 -0.39 c 0.17 -0.22 0.46 -0.91 0.05 -0.92 c -0.09 0 -0.16 0.04 -0.25 0.18 c -0.24 0.33 -0.27 0.68 -0.08 0.82 c 0.1 0.07 0.13 0.06 0.29 -0.08 m -0.89 -0.07 c 0.04 -0.05 0.11 -0.18 0.14 -0.3 c 0.08 -0.26 0.09 -0.77 0.01 -0.77 c -0.1 0 -0.47 0.45 -0.5 0.61 c -0.07 0.41 0.14 0.7 0.35 0.46"/><path d="m 10.57 18.32 c 0.2 -0.2 0.48 -0.52 0.63 -0.7 c 0.45 -0.55 1.3 -1.48 1.47 -1.62 c 0.19 -0.16 0.35 -0.08 0.55 -0.03 c 0.36 0.09 1.28 -0.07 1.98 -0.34 c 0.22 -0.08 0.41 -0.14 0.41 -0.13 c -0.5 0.48 -1.3 0.68 -1.8 0.83 c -1.02 0.3 -1.13 0.39 -1.9 1.46 c -0.22 0.28 -0.51 0.85 -0.81 0.67 c -0.4 -0.12 -0.51 0.07 -0.85 0.22 c -0.02 0 0.12 -0.17 0.32 -0.37"/><path d="m 14.42 14.26 c -0.24 -0.14 -0.22 -0.23 0.08 -0.3 c 0.31 -0.07 0.78 -0.34 0.85 -0.48 c 0.01 -0.57 0.22 -1.27 -0.02 -1.79 c -0.11 -0.21 -0.23 -0.3 -0.5 -0.34 c -0.44 -0.05 -0.5 -0.07 -0.5 -0.15 c 0 -0.19 0.44 -0.66 0.62 -0.66 c 0.14 0 0.55 0.48 0.71 0.84 c 0.28 0.63 0.3 1.31 0.09 2.12 c -0.13 0.49 -0.25 0.64 -0.6 0.76 c -0.3 0.1 -0.55 0.1 -0.74 -0.01"/><path d="m 9.21 12.82 c -0.06 -0.54 0.17 -1.45 0.45 -1.9 c 0.13 -0.22 0.5 -0.18 0.72 0.14 c 0.16 0.22 -0.18 0.28 -0.45 0.32 c -0.09 0.02 -0.18 0.07 -0.21 0.11 c -0.16 0.43 0.07 2 0 2.2 c -0.01 0 -0.36 -0.25 -0.39 -0.41"/><path d="m 9.79 13.87 c -0.16 -0.09 -0.25 -0.46 -0.16 -0.61 c 0.18 0.01 0.29 0.2 0.48 0.33 c 0.16 0.08 0.17 0.17 0.04 0.27 c -0.11 0.08 -0.24 0.09 -0.36 0.02"/></g><g style="fill:#ffb5c1"><path d="m 14.41 12.77 c 0 0.36 -0.21 0.65 -0.47 0.65 c -0.26 0 -0.47 -0.29 -0.47 -0.65 c 0 -0.36 0.21 -0.66 0.47 -0.66 c 0.26 0 0.47 0.29 0.47 0.66"/><path d="m 10.38 12.49 c 0 0.35 -0.16 0.64 -0.36 0.64 c -0.2 0 -0.36 -0.29 -0.36 -0.64 c 0 -0.35 0.16 -0.64 0.36 -0.64 c 0.2 0 0.36 0.29 0.36 0.64"/></g></svg>