<svg xmlns="http://www.w3.org/2000/svg" viewBox="0 0 32 32"><path d="m 31.63 12.56 c -1.98 -12.91 -19.61 -16.38 -27.39 -7.15 c -6.85 6.85 -5.15 19.96 3.26 24.46 c 9.65 6 23.71 -1.42 24.48 -13.4 c 0.08 -1.31 -0.03 -2.64 -0.35 -3.91" style="fill:#424242"/><path d="m 9.35 8.78 h 13.1 c 0.75 0 1.36 0.64 1.36 1.44 v 12.38 c 0 0.79 -0.61 1.43 -1.36 1.43 h -13.1 c -0.75 0 -1.36 -0.64 -1.36 -1.43 v -12.38 c 0 -0.79 0.61 -1.44 1.36 -1.44" style="fill:#cdcdcd"/><path d="m 9.36 8.78 c -0.76 0 -1.39 0.61 -1.39 1.38 v 12.52 c 0 0.75 0.61 1.38 1.39 1.38 h 13 c 0.76 0 1.39 -0.61 1.39 -1.38 v -12.52 c 0 -0.75 -0.61 -1.38 -1.39 -1.38 m -12.84 0.39 h 12.64 c 0.66 0 1.18 0.52 1.18 1.17 v 11.34 c 0 0.65 -0.52 1.17 -1.18 1.17 h -12.64 c -0.66 0 -1.18 -0.52 -1.18 -1.17 v -11.34 c 0 -0.65 0.52 -1.17 1.18 -1.17" style="fill-opacity:0.5"/><path d="m 9.82 10.35 h 12.14 c 0.14 0 0.25 0.11 0.25 0.25 v 10.84 c 0 0.14 -0.11 0.25 -0.25 0.25 h -12.14 c -0.14 0 -0.25 -0.11 -0.25 -0.25 v -10.84 c 0 -0.14 0.11 -0.25 0.25 -0.25" style="fill:#424242"/><path d="m 10.75 11.52 v 0.39 h 10.27 v -0.39 m -10.27 1.17 v 0.39 h 6.31 v -0.39" style="fill:#94a5ff"/><path d="m 10.75 16.22 v 0.38 h 2.37 v -0.38 m -2.37 1.17 v 0.38 h 2.37 v -0.38 m -2.37 1.17 v 0.38 h 2.37 v -0.38" style="fill:#cf3b00"/><path d="m 10.75 13.87 v 0.39 h 2.37 v -0.39 m -2.37 1.17 v 0.38 h 2.37 v -0.38" style="fill:#7851c1"/><path d="m 13.86 16.22 v 0.38 h 7.11 v -0.38 m -7.11 1.17 v 0.38 h 3.96 v -0.38" style="fill:#72c38e"/><path d="m 13.86 18.55 v 0.38 h 7.11 v -0.38 m -10.27 1.17 v 0.38 h 6.32 v -0.38" style="fill:#fff"/><path d="m 13.86 13.87 v 0.39 h 7.11 v -0.39 m -7.11 1.17 v 0.38 h 3.96 v -0.38" style="fill:#b84aca"/></svg>