<svg xmlns="http://www.w3.org/2000/svg" viewBox="0 0 32 32"><path d="m 15 31.77 c -21.46 1.23 -18.58 -33.56 2.6 -31.59 c 19.9 0.12 19.1 35.3 -2.6 31.59" style="fill:#d2d2d2"/><path d="m 8.44 7 h 2.95 c 0.04 0 0.08 0.04 0.08 0.08 v 2.95 c 0 0.04 -0.04 0.07 -0.08 0.07 h -2.95 c -0.04 0 -0.08 -0.03 -0.08 -0.07 v -2.95 c 0 -0.04 0.04 -0.08 0.08 -0.08"/><path d="m 8.52 11 h 2.95 c 0.04 0 0.07 0.04 0.07 0.08 v 2.95 c 0 0.04 -0.04 0.08 -0.07 0.08 h -2.95 c -0.04 0 -0.07 -0.04 -0.07 -0.08 v -2.95 c 0 -0.04 0.03 -0.08 0.07 -0.08"/><path d="m 8.52 14.97 h 2.95 c 0.04 0 0.07 0.04 0.07 0.08 v 2.95 c 0 0.04 -0.04 0.08 -0.07 0.08 h -2.95 c -0.04 0 -0.07 -0.04 -0.07 -0.08 v -2.95 c 0 -0.04 0.03 -0.08 0.07 -0.08"/><path d="m 8.52 19.1 h 2.95 c 0.04 0 0.07 0.04 0.07 0.08 v 2.95 c 0 0.04 -0.04 0.07 -0.07 0.07 h -2.95 c -0.04 0 -0.07 -0.03 -0.07 -0.07 v -2.95 c 0 -0.04 0.03 -0.08 0.07 -0.08"/><path d="m 12.66 11.1 h 2.95 c 0.04 0 0.07 0.04 0.07 0.07 v 2.96 c 0 0.04 -0.04 0.07 -0.07 0.07 h -2.95 c -0.04 0 -0.07 -0.04 -0.07 -0.07 v -2.96 c 0 -0.04 0.03 -0.07 0.07 -0.07"/><path d="m 12.57 7.08 h 2.95 c 0.04 0 0.08 0.04 0.08 0.08 v 2.95 c 0 0.04 -0.04 0.08 -0.08 0.08 h -2.95 c -0.04 0 -0.08 -0.04 -0.08 -0.08 v -2.95 c 0 -0.04 0.04 -0.08 0.08 -0.08"/><path d="m 16.61 7 h 2.95 c 0.04 0 0.07 0.04 0.07 0.08 v 2.95 c 0 0.04 -0.04 0.08 -0.07 0.08 h -2.95 c -0.04 0 -0.07 -0.04 -0.07 -0.08 v -2.95 c 0 -0.04 0.03 -0.08 0.07 -0.08"/><path d="m 20.58 6.98 h 2.95 c 0.04 0 0.07 0.04 0.07 0.08 v 2.95 c 0 0.04 -0.03 0.08 -0.07 0.08 h -2.95 c -0.04 0 -0.07 -0.04 -0.07 -0.08 v -2.95 c 0 -0.04 0.04 -0.08 0.07 -0.08"/><path d="m 20.71 19.1 h 2.95 c 0.04 0 0.08 0.04 0.08 0.08 v 2.95 c 0 0.04 -0.04 0.07 -0.08 0.07 h -2.95 c -0.04 0 -0.08 -0.03 -0.08 -0.07 v -2.95 c 0 -0.04 0.04 -0.08 0.08 -0.08"/><g style="fill:#858481"><path d="m 16.59 19.1 h 2.95 c 0.04 0 0.07 0.03 0.07 0.07 v 2.95 c 0 0.04 -0.04 0.08 -0.07 0.08 h -2.95 c -0.04 0 -0.07 -0.04 -0.07 -0.08 v -2.95 c 0 -0.04 0.03 -0.07 0.07 -0.07"/><path d="m 12.68 19.1 h 2.95 c 0.04 0 0.07 0.03 0.07 0.07 v 2.96 c 0 0.04 -0.04 0.07 -0.07 0.07 h -2.95 c -0.04 0 -0.07 -0.04 -0.07 -0.07 v -2.96 c 0 -0.04 0.03 -0.07 0.07 -0.07"/><path d="m 16.62 15.1 h 2.95 c 0.04 0 0.08 0.04 0.08 0.07 v 2.96 c 0 0.04 -0.04 0.07 -0.08 0.07 h -2.95 c -0.04 0 -0.08 -0.03 -0.08 -0.07 v -2.96 c 0 -0.04 0.04 -0.07 0.08 -0.07"/><path d="m 20.63 11 h 2.95 c 0.04 0 0.08 0.04 0.08 0.08 v 2.95 c 0 0.04 -0.04 0.08 -0.08 0.08 h -2.95 c -0.04 0 -0.08 -0.04 -0.08 -0.08 v -2.95 c 0 -0.04 0.04 -0.08 0.08 -0.08"/><path d="m 20.63 23.1 h 2.95 c 0.04 0 0.07 0.04 0.07 0.08 v 2.95 c 0 0.04 -0.03 0.08 -0.07 0.08 h -2.95 c -0.04 0 -0.07 -0.04 -0.07 -0.08 v -2.95 c 0 -0.04 0.03 -0.08 0.07 -0.08"/></g><g style="fill:#fff"><path d="m 12.53 23.2 h 2.95 c 0.04 0 0.07 0.04 0.07 0.08 v 2.95 c 0 0.04 -0.03 0.08 -0.07 0.08 h -2.95 c -0.04 0 -0.07 -0.04 -0.07 -0.08 v -2.95 c 0 -0.04 0.04 -0.08 0.07 -0.08"/><path d="m 12.57 15.1 h 2.95 c 0.04 0 0.08 0.04 0.08 0.07 v 2.96 c 0 0.04 -0.04 0.07 -0.08 0.07 h -2.95 c -0.04 0 -0.08 -0.03 -0.08 -0.07 v -2.96 c 0 -0.04 0.04 -0.07 0.08 -0.07"/></g><g style="fill:#ff8f00"><path d="m 16.57 11.14 h 2.95 c 0.04 0 0.08 0.04 0.08 0.08 v 2.95 c 0 0.04 -0.04 0.08 -0.08 0.08 h -2.95 c -0.04 0 -0.07 -0.04 -0.07 -0.08 v -2.95 c 0 -0.04 0.04 -0.08 0.07 -0.08"/><path d="m 20.7 15.1 h 2.95 c 0.04 0 0.08 0.04 0.08 0.07 v 2.96 c 0 0.04 -0.04 0.07 -0.08 0.07 h -2.95 c -0.04 0 -0.08 -0.03 -0.08 -0.07 v -2.96 c 0 -0.04 0.04 -0.07 0.08 -0.07"/></g><path d="m 16.62 23.1 h 2.95 c 0.04 0 0.08 0.04 0.08 0.07 v 2.96 c 0 0.04 -0.04 0.07 -0.08 0.07 h -2.95 c -0.04 0 -0.08 -0.04 -0.08 -0.07 v -2.96 c 0 -0.04 0.04 -0.07 0.08 -0.07" style="fill:#00fd00"/><path d="m 8.55 23.1 h 2.95 c 0.04 0 0.07 0.04 0.07 0.08 v 2.95 c 0 0.04 -0.04 0.08 -0.07 0.08 h -2.95 c -0.04 0 -0.08 -0.04 -0.08 -0.08 v -2.95 c 0 -0.04 0.04 -0.08 0.08 -0.08"/></svg>