<svg xmlns="http://www.w3.org/2000/svg" viewBox="0 0 32 32"><path d="m 1.51 21.95 c -12 -38.9 52.6 -19.45 22.36 7.21 c -6.1 5.34 -19.1 3.29 -22.36 -7.21" style="fill:#3d005f"/><path d="m 8.95 20 c 0 -0.46 -0.09 -0.86 -0.54 -0.86 c -0.2 0 -0.48 0.17 -0.45 -0.22 c 0 -0.07 0.02 -0.34 -0.02 -0.44 c -0.05 -0.14 0.05 -0.22 0.34 -0.28 c 0.56 -0.11 0.48 -0.29 0.48 -0.73 c 0 -0.31 0.32 -0.41 0.56 -0.41 c 0.41 0 0.6 -0.24 0.6 -0.73 c 0 -0.38 -0.05 -0.43 -0.43 -0.5 c -0.61 -0.12 -0.85 0.01 -0.85 0.46 c 0 0.33 -0.05 0.38 -0.36 0.38 c -0.45 0 -0.66 0.21 -0.66 0.68 c 0.17 0.79 0.04 0.75 -0.8 0.68 l -0.02 -1.52 c -0.02 -1.72 -0.15 -1.79 -0.63 -1.84 c -0.4 -0.04 -0.4 -0.05 -0.44 -0.86 c -0.05 -1.01 0.11 -1.35 0.62 -1.35 c 0.38 0 0.38 -0.01 0.38 -0.76 c 0 -1.13 0.08 -1.33 0.59 -1.43 c 0.42 -0.08 0.43 -0.1 0.43 -0.71 c 0 -0.98 -0.12 -1.45 0.39 -1.45 c 0.41 0 0.61 0.02 0.56 -0.7 c -0.03 -0.51 0.29 -0.42 0.87 -0.38 c 0.17 0.01 0.22 0.13 0.22 0.46 c 0 0.49 0.59 0.24 1.13 0.37 c 0.23 0.05 0.08 0.66 0.06 0.81 c -0.05 0.48 0.02 0.55 0.42 0.55 c 0.6 0 0.59 -0.23 0.54 -0.75 c -0.04 -0.41 -0.08 -0.45 -0.52 -0.49 l -0.48 -0.04 v -1.93 c 1.07 -0.19 1.98 -0.16 3.05 -0.17 l 0.04 1.02 l 0.04 1.02 c 0.37 0.03 0.74 0.05 1.11 0.08 l -0.09 -0.79 c -0.14 -1.26 -0.05 -1.34 1.46 -1.34 c 0.69 0 1.35 0.04 1.46 0.08 c 0.13 0.05 0.2 0.25 0.2 0.59 c 0 0.5 0.01 0.5 0.54 0.54 c 0.82 -0.05 0.2 1 0.77 1 c 0.8 -0.08 0.87 0 0.85 0.61 c -0.03 0.85 0.15 0.41 0.52 0.47 c 0.36 0.05 0.45 0.13 0.48 0.39 c 0.09 0.81 0.15 0.92 0.52 0.92 c 0.34 0 0.37 0.04 0.45 0.69 c 0.11 0.93 0.1 2.11 -0.02 2.29 c -0.05 0.08 -0.46 0.09 -0.63 0.12 c -0.27 0.04 -0.11 0.2 -0.14 0.62 c -0.04 0.47 -0.02 0.49 0.34 0.49 c 0.23 0 0.41 0.08 0.46 0.21 c 0.12 0.32 -0.63 1.53 -1.12 1.32 c -0.42 -0.18 -0.63 -1.58 -1.65 -1.74 c -0.41 -0.07 -0.68 -0.25 -0.68 -0.56 c 0 -0.34 -0.5 -0.42 -0.68 -0.18 c -0.17 0.23 0.36 0.62 -0.61 0.46 c -1.11 -0.18 -2.11 0.02 -3.17 0.01 c -0.61 0 -0.59 0.18 -0.59 -0.14 c 0 -0.18 -0.04 -0.23 -0.13 -0.24 c -0.63 -0.06 -0.39 0.2 -0.39 0.37 c 0 0.37 -0.07 0.55 -0.78 0.5 c -0.46 -0.03 -0.48 -0.02 -0.56 0.5 c -0.08 0.52 -0.1 0.54 -0.58 0.54 h -0.49 v 0.59 c 0 0.86 0.87 0.1 0.87 0.84 c 0 0.86 0.42 1.24 -0.94 1.21 c -0.07 0.91 0.07 1.57 -0.17 1.6 c -0.25 0 -1.75 0.31 -1.75 0.01 m -0.21 -5.85 c 0.04 -0.47 0.03 -0.48 -0.48 -0.53 l -0.52 -0.05 c 0 0.38 0 0.76 0 1.14 l 0.48 -0.04 c 0.47 -0.04 0.5 0.23 0.52 -0.52 m 2 0.47 c 0.13 -0.05 0.2 -0.24 0.2 -0.53 c 0 -0.44 -0.01 -0.45 -0.57 -0.45 h -0.58 v 0.53 c 0 0.5 0.02 0.53 0.38 0.53 c 0.2 0 0.46 -0.04 0.57 -0.08 m 9.66 -1.57 c 0 -0.47 -0.46 -0.52 -1.07 -0.52 c -0.33 0 -0.07 -0.13 -0.11 -0.57 c -0.03 -0.41 -0.09 -0.5 -0.34 -0.54 c -0.36 -0.05 -0.52 0.16 -0.52 0.67 c 0 0.33 0.04 0.36 0.45 0.36 c 0.43 0 0.45 0.02 0.45 0.5 c 0 0.28 0.03 0.53 0.06 0.56 c 0.03 0.04 0.29 0.04 0.57 0.01 c 0.49 -0.05 0.52 -0.07 0.52 -0.48 m -5.41 -0.19 c -0.03 -0.37 -0.73 -0.3 -0.78 -0.02 c -0.02 0.09 -0.11 0.52 0 0.51 c 0.55 -0.05 0.85 0.33 0.79 -0.49 m 1.84 0.05 c -0.08 -0.48 -0.41 -0.1 -0.63 -0.1 c -0.29 0 -0.17 0.59 -0.02 0.68 c 0.11 0.07 0.36 -0.13 0.57 -0.13 c 0.29 0 0.1 -0.28 0.07 -0.46 m -7.93 -1.52 c -0.38 0 -0.77 0 -1.15 0 c 0 0.35 0 0.7 0 1.05 c 0.38 0 0.77 0 1.15 0 c 0 -0.35 0 -0.7 0 -1.05 m 4.09 0.53 c 0 -0.53 0 -0.53 -0.51 -0.53 c -0.51 0 -0.51 0 -0.51 0.53 c 0 0.53 0 0.53 0.51 0.53 c 0.51 0 0.51 0 0.51 -0.53 m 2.11 -2.7 h -1.02 c -0.97 0 -1.02 0.02 -1.06 0.31 c -0.09 0.61 -0.24 0.77 0.86 0.73 l 1.3 -0.05 c 0.32 -0.01 -0.05 -0.66 -0.08 -0.99 m 2.11 0.47 c 0 -0.4 -0.06 -0.54 -0.26 -0.6 c -0.5 -0.17 -0.77 0.04 -0.77 0.6 c 0 0.52 0 0.52 0.51 0.52 c 0.51 0 0.51 0 0.51 -0.52 m 1.02 -1.58 c 0 -1.08 -0.21 -0.79 -0.78 -0.79 c -0.23 0 -0.24 0.25 -0.24 1.24 c 0 0.53 0.07 0.6 0.59 0.6 h 0.43" style="fill:#ee79ed"/><path d="m 13.1 26.73 c -0.14 -0.09 -0.16 -0.43 -0.16 -5.15 v -5.1 h 0.4 c 0.62 0 0.68 -0.05 0.68 -0.57 c 0 -0.39 0.01 -0.64 0.18 -0.71 c 1.43 0.05 1.8 0.01 3.31 -0.04 c -0.05 1.23 0.74 0.57 0.78 0.95 c 0.38 0.04 0.82 0.26 1.2 0.3 l 0.06 0.54 l 0.09 0.89 h 1.43 c -0.06 2.12 1.72 0.4 1.86 1.54 c 0 0.46 0.11 0.57 0.57 0.56 c -0.06 1.21 1.16 0.36 1.34 1.41 c -0.03 0.67 -0.92 1.49 -0.92 1.64 c 0 0.25 -0.02 0.27 -0.38 0.27 c -0.59 0 -1.54 0.18 -1.62 0.3 c -0.04 0.06 -0.07 0.27 -0.07 0.46 c 0 0.28 -0.04 0.69 -0.17 0.69 c -0.54 0 -2.04 -0.13 -2.09 -0.05 c -0.03 0.05 -0.04 0.25 -0.01 0.45 l 0.04 0.35 c -0.75 0.11 -1.57 0.1 -2.23 0.07 l -0.05 -0.37 c -0.07 -0.55 -0.13 -0.61 -0.68 -0.61 h -0.49 v 1.02 c 0 0.91 -0.02 1.03 -0.17 1.11 c -0.23 0.13 -2.7 0.12 -2.91 0 m 4.8 -7.99 c -0.3 -0.03 -0.71 -0.02 -0.64 -0.22 c -0.06 -0.3 0.06 -0.93 -0.01 -0.98 c -0.07 -0.05 -0.32 -0.08 -0.55 -0.08 c -0.68 0.1 -0.5 0.11 -0.5 -0.93 c -0.39 0 -0.77 0 -1.16 0 c -0.02 0.31 0.07 0.82 -0.03 1.06 c -0.51 0.03 -0.55 0.02 -1.08 0.02 l 0.04 1.75 c 0.98 -0.07 0.8 -0.01 0.85 0.99 c 3.34 -0.21 3.2 0.5 3.07 -1.61 m 3.68 4.69 c 0.26 -0.05 0.28 -0.08 0.28 -0.45 c 0 -0.62 -0.06 -0.69 -0.5 -0.69 c -0.47 0 -0.67 0.18 -0.67 0.6 c 0 0.61 0.15 0.7 0.89 0.54" style="fill:#d156d5"/></svg>