<svg xmlns="http://www.w3.org/2000/svg" viewBox="0 0 32 32"><path d="m 27.39 4.82 c 19.68 28.2 -29.78 39.1 -27.2 10.1 c 1.05 -11.82 19.68 -20.88 27.2 -10.1" style="fill:#1096ec"/><path d="m 27.54 16.49 c 0 6.28 -5.09 11.38 -11.38 11.38 c -6.29 0 -11.38 -5.09 -11.38 -11.38 c 0 -6.29 5.09 -11.38 11.38 -11.38 c 6.29 0 11.38 5.09 11.38 11.38" style="fill:#ffdeac"/><path d="m 14.5 26.69 c -3.07 -0.57 -5.52 -2.43 -6.87 -5.2 c -0.61 -1.25 -0.89 -2.36 -0.95 -3.63 c -0.03 -0.72 -0.02 -0.77 0.09 -0.91 c 0.36 -0.47 1.79 -0.94 3.71 -1.22 c 0.89 -0.13 2.44 -0.29 2.89 -0.29 c 0.3 0 0.32 0.01 0.41 0.18 c 0.44 0.88 1.31 1.71 2.21 2.13 c 0.7 0.32 1.14 0.41 1.99 0.41 c 0.68 0 0.84 -0.02 1.27 -0.16 c 1.08 -0.33 2 -1 2.63 -1.95 c 0.07 -0.11 0.15 -0.21 0.18 -0.23 c 0.13 -0.09 1.9 0.35 2.56 0.63 c 0.25 0.11 0.52 0.27 0.65 0.39 l 0.22 0.22 l -0.03 0.77 c -0.05 1.29 -0.34 2.38 -0.95 3.64 c -1.29 2.65 -3.64 4.5 -6.55 5.15 c -0.78 0.17 -2.68 0.2 -3.47 0.05" style="fill:#845117"/><path d="m 15.27 26.71 c -0.79 -0.11 -1.06 -0.16 -1.53 -0.28 c -1.63 -0.41 -2.98 -1.2 -4.26 -2.5 c -1.3 -1.31 -2.04 -2.65 -2.48 -4.44 c -0.16 -0.66 -0.31 -1.77 -0.25 -1.86 c 0.01 -0.02 0.15 0.04 0.3 0.14 c 0.86 0.59 2.84 1.02 5.89 1.28 c 1.1 0.09 5.16 0.09 6.25 0 c 3.05 -0.26 5 -0.69 5.89 -1.28 c 0.15 -0.1 0.29 -0.16 0.3 -0.14 c 0.04 0.07 -0.07 0.98 -0.17 1.49 c -0.4 1.95 -1.26 3.54 -2.69 4.95 c -1.13 1.11 -2.45 1.89 -3.95 2.3 c -0.28 0.08 -0.72 0.18 -0.98 0.23 c -0.45 0.08 -2 0.15 -2.34 0.11" style="fill:#6b4004"/><path d="m 6.94 13.41 c -0.23 -0.24 -0.19 -0.48 0.25 -1.34 c 1.04 -2.03 2.73 -3.75 4.74 -4.82 c 0.45 -0.24 0.9 -0.43 0.99 -0.43 c 0.43 0 0.66 0.7 0.32 1 c -0.09 0.08 -0.55 0.39 -1.03 0.69 c -1.56 0.98 -2.74 2.16 -3.68 3.68 c -0.8 1.3 -0.86 1.37 -1.16 1.37 c -0.16 0 -0.35 -0.07 -0.43 -0.15" style="fill:#fff"/><path d="m 22.64 13.46 c 0 2.61 -2.09 4.73 -4.66 4.73 c -2.57 0 -4.66 -2.12 -4.66 -4.73 c 0 -2.62 2.09 -4.74 4.66 -4.74 c 2.57 0 4.66 2.12 4.66 4.74" style="fill:#f55d42"/></svg>