<svg xmlns="http://www.w3.org/2000/svg" viewBox="0 0 32 32"><path d="m 26.34 4.75 c 24.93 33.1 -43.67 37.86 -21.66 4 c 5 -7.71 15.1 -12.8 21.66 -4" style="fill:#7092a6"/><path d="m 12.67 27.44 c -5.42 -0.49 -9.27 -2.07 -9.55 -3.91 c -0.13 -0.84 0.58 -2.91 2.03 -2.5 c 11.99 3.38 14.54 -2.57 20 -0.41 c 1.51 0.59 2.61 1.42 2.89 2.17 c 0.73 1.98 -2.63 3.81 -8.32 4.54 c -1.27 0.16 -5.78 0.23 -7.08 0.12" style="fill:#87d75b"/><path d="m 4.68 21.69 c 0.11 -0.78 0.05 -1.51 0.2 -2.28 c -0.32 0.1 0.5 -0.21 0.79 -0.3 c 0.85 -0.27 0.97 -0.4 1.05 -1.09 c 0.04 -0.33 -0.12 -0.68 -0.04 -0.76 c 0.13 -0.14 1.62 -0.5 1.98 -0.5 c 0.11 0 -0.1 -0.12 -0.05 -0.82 c 0.04 -0.59 0.18 -1.05 0.26 -1.1 c 0.07 -0.05 0.59 -0.18 0.93 -0.24 c 0.34 -0.06 0.68 -0.18 0.75 -0.26 c 0.22 -0.66 -0.19 -1.39 0.27 -2.19 l 0.93 -0.24 c 0.98 -0.09 0.96 -0.7 1.02 -2.1 l 0.43 -0.17 c 0.23 -0.09 0.61 -0.23 0.84 -0.31 c 0.47 -0.17 0.66 -0.48 0.67 -1.08 c 0 -0.29 -0.11 -0.72 0.06 -0.9 c 0.28 -0.3 1.46 -0.53 1.63 -0.35 c 3.34 0.11 4.9 -0.02 7.67 0.23 c 0.07 5.73 -0.24 12.19 -0.31 16.61 c -6.26 0.15 -19.23 1.32 -19 -2.15 m 6.34 -0.29 c 0 -0.38 -0.14 -0.82 -0.39 -0.88 c -0.6 -0.13 -5.07 -0.82 -5.23 -0.82 c -0.26 0.28 -0.27 0.91 -0.04 1.25 c 1.19 0.18 5.6 1.09 5.66 0.45 m 0.48 -1.59 c -1.13 -0.35 -4.45 -0.89 -4.84 -0.79 c -0.61 0.16 -0.43 0.31 0.6 0.49 c 1.1 0.2 3.13 0.49 3.78 0.55 c 0.43 -0.15 0.37 -0.03 0.46 -0.26 m 1.09 -1.59 c -0.34 -0.29 -2.77 -0.42 -4.86 -0.64 l -0.74 -0.08 v 0.44 c 0 0.52 -0.09 0.48 1.59 0.78 c 1.56 0.28 3.04 0.46 3.3 0.41 c 0.5 0.02 1 -0.66 0.71 -0.91 m 0.84 -0.54 c 0.22 -0.15 -0.86 -0.12 -2.34 -0.36 c -2 -0.32 -2.77 -0.39 -2.77 -0.25 c 0 0.06 0.08 0.14 0.18 0.17 c 0.17 0.05 1.73 0.3 3.11 0.49 c 0.37 0.05 0.69 0.1 0.72 0.11 c 0.03 0 0.88 0.08 1.1 -0.16 m 1.12 -0.73 c 0.18 -0.28 0.44 -0.92 0.15 -1.12 c -0.13 -0.09 -1.88 -0.13 -2.94 -0.26 c -2.15 -0.26 -2.59 -0.27 -2.65 -0.09 c -0.07 0.19 0.04 0.88 0.15 1 c 0.13 0.15 2.51 0.46 3.65 0.48 c 0.85 0.01 1.5 0.18 1.64 -0.02 m 1.07 -1.77 c 0.04 -0.22 -1.54 -0.22 -2.82 -0.37 c -1.21 -0.14 -3.13 -0.14 -3.13 0 c 0 0.15 0.3 0.21 1.7 0.31 c 0.06 0.21 4.63 0.32 4.26 0.06 m 1.49 -0.67 c 0.16 -0.17 0.19 -1.04 0.19 -1.12 c 0 -0.08 -0.26 0.05 -0.53 -0.07 c -2.3 -0.14 -3.39 -0.23 -5.79 -0.35 c 0.05 0.43 -0.08 0.8 0.08 1.19 c 1.82 0.44 4.99 0.58 6.1 0.36 m 1.39 -1.97 c 0.03 -0.05 -0.18 -0.13 -0.39 -0.16 c -0.88 -0.15 -4.53 -0.41 -5.18 -0.38 c -0.66 0.04 -1.03 0.2 -0.86 0.39 c 0.14 0.15 6.14 0.65 6.43 0.15 m 0.87 -0.79 c 0.34 -0.17 0.39 -0.93 0.05 -1.28 c -0.2 -0.21 -0.42 0 -1.14 -0.05 c -1.42 -0.11 -5.17 -0.26 -5.25 -0.21 c -0.11 0.46 -0.08 0.83 -0.08 1.33 l 0.35 0.07 c 0.36 0.07 3.25 0.22 4.86 0.25 c 0.54 0.01 1.06 -0.04 1.21 -0.11 m 0.67 -1.93 c 0 -0.19 -0.35 -0.23 -2.86 -0.35 c -1.88 -0.09 -2.61 -0.09 -2.83 0 c -0.55 0.22 -0.14 0.32 1.48 0.36 c 3.75 0.08 4.21 0.07 4.21 -0.02 m 1.12 -0.73 c 0.37 -0.08 0.51 -0.43 0.36 -0.9 c -0.09 -0.28 -0.11 -0.29 -1.63 -0.41 c -0.85 -0.07 -2.29 -0.13 -3.2 -0.14 c -1.82 -0.01 -1.78 -0.02 -1.78 0.68 c 0 0.63 0.07 0.66 1.56 0.73 c 2.02 0.09 4.32 0.11 4.69 0.03" style="fill:#3f5b84"/><path d="m 23.85 15.7 c 0.32 0.17 0.4 0.63 0.18 1.04 l -2.3 4.23 c -0.22 0.4 -0.65 0.58 -0.97 0.41 c -0.32 -0.17 -0.4 -0.64 -0.18 -1.04 l 2.3 -4.23 c 0.22 -0.4 0.65 -0.59 0.97 -0.41" style="fill:#ffa400"/><path d="m 15.5 19.27 h 8.43 c 0.37 0 0.67 0.27 0.67 0.6 v 4 c 0 0.33 -0.3 0.6 -0.67 0.6 h -8.43 c -0.37 0 -0.67 -0.27 -0.67 -0.6 v -4 c 0 -0.33 0.3 -0.6 0.67 -0.6" style="fill:#ea673b"/><path d="m 17.6 23.85 c 0 1.08 -0.91 1.96 -2.04 1.96 c -1.13 0 -2.04 -0.88 -2.04 -1.96 c 0 -1.08 0.91 -1.96 2.04 -1.96 c 1.13 0 2.04 0.88 2.04 1.96" style="fill:#5586e7"/><path d="m 15.38 23.62 c -0.2 0.42 -0.61 0.63 -0.91 0.48 c -0.31 -0.16 -0.39 -0.62 -0.19 -1.03 c 0.2 -0.41 0.61 -0.63 0.92 -0.47 c 0.3 0.15 0.39 0.61 0.19 1.03" style="fill:#86ceeb"/><path d="m 25.2 18.2 l -0.27 0.57 c -0.22 0.46 -0.68 0.69 -1.03 0.51 l -2.93 -1.49 c -0.35 -0.18 -0.46 -0.7 -0.24 -1.16 l 0.27 -0.57 c 0.22 -0.46 0.68 -0.69 1.03 -0.51 l 2.93 1.49 c 0.35 0.18 0.45 0.7 0.23 1.16" style="fill:#942a38"/><path d="m 17.95 18.22 c -0.19 0 -0.38 -0.05 -0.54 -0.09 c -0.61 -0.18 -1.25 -0.72 -1.46 -1.21 c -0.18 -0.42 -0.27 -0.54 -0.42 -0.91 c 0.96 -0.52 1.91 -1.04 2.87 -1.56 c 0.29 0.4 0.53 0.88 0.61 1.25 c 0.18 0.84 0.16 1.34 -0.05 1.77 l -0.13 0.25 c 0.54 1 1.08 2 1.63 2.99 c -0.3 0.16 -0.59 0.32 -0.89 0.48 c -0.57 -1.05 -1.14 -2.11 -1.61 -2.97 m 0.18 -1.06 c 0.5 -0.41 0.19 -1.08 0.05 -1.66 c -0.58 0.31 -1.15 0.63 -1.73 0.94 c 0.3 0.32 0.63 0.77 0.98 0.91 c 0.26 0.11 0.47 0.05 0.7 -0.19" style="fill:#c54560"/><g style="fill:#ed8be6"><path d="m 11.8 25.1 c -0.05 -0.01 -0.22 -0.11 -0.38 -0.21 c -0.34 -0.21 -0.45 -0.22 -0.92 -0.05 c -0.34 0.13 -0.69 0.17 -0.85 0.1 c -0.17 -0.55 0.41 -1.05 0.05 -1.5 c -0.22 -0.27 -0.39 -0.72 -0.34 -0.88 c 0.46 -0.25 0.78 -0.01 1.33 -0.05 c 0.37 -0.21 1.05 -1.03 1.37 -0.71 c 0.07 0.08 0.09 0.18 0.09 0.43 c -0.04 0.74 0.93 0.45 0.93 0.94 c 0 0.16 -0.04 0.24 -0.21 0.42 c -0.21 0.26 -0.57 0.21 -0.72 0.48 c 0 0.03 0.06 0.19 0.13 0.37 c 0.14 0.39 0.15 0.57 0.03 0.64 c -0.1 0.05 -0.34 0.06 -0.51 0.02"/><path d="m 5.21 23.83 c -0.01 0.05 -0.01 0.25 0 0.45 c 0.02 0.42 -0.02 0.54 -0.33 0.9 c -0.23 0.27 -0.4 0.58 -0.41 0.76 c -0.07 0.52 0.92 0.06 1.11 0.63 c 0.11 0.33 0.37 0.7 0.5 0.71 c 0.11 0.02 0.2 -0.15 0.35 -0.67 c 0.09 -0.46 0.3 -0.66 0.65 -0.84 c 0.54 -0.27 0.7 -0.45 0.63 -0.7 c -0.22 -0.34 -0.82 -0.16 -0.54 -0.85 c 0.04 -0.14 0.07 -0.34 0.08 -0.45 c 0.01 -0.18 0 -0.21 -0.13 -0.29 c -0.46 -0.21 -0.71 0.39 -1.02 0.48 c -0.02 -0.01 -0.12 -0.14 -0.22 -0.28 c -0.23 -0.32 -0.35 -0.4 -0.46 -0.32 c -0.39 0.15 -0.18 0.32 -0.21 0.48"/><path d="m 25.82 19.88 c 0.06 0.5 0.02 0.87 -0.31 1.06 c -0.27 0.16 -0.45 0.36 -0.46 0.52 c 0 0.12 -0.14 0.41 0.74 0.41 c 0.4 0.08 0.57 0.23 0.72 0.54 c 0.16 0.33 0.13 0.89 0.7 0.81 c 0.14 0.05 0.24 -0.06 0.39 -0.46 c 0.13 -0.45 0.38 -0.48 0.76 -0.5 c 0.66 -0.05 0.84 -0.14 0.73 -0.39 c -0.05 -0.11 -0.13 -0.18 -0.37 -0.35 c -0.52 -0.34 -0.35 -0.49 -0.31 -0.96 c 0 -0.15 -0.02 -0.18 -0.2 -0.3 c -0.29 -0.16 -0.61 -0.21 -0.86 -0.03 c -0.06 0.1 -0.29 0.14 -0.39 0.07 c -0.02 -0.02 -0.16 -0.16 -0.3 -0.33 c -0.26 -0.34 -0.72 -0.67 -0.84 -0.1"/></g><g style="fill:#ffeff4"><path d="m 26.79 21.38 c 0 0.21 0.07 0.4 0.2 0.5 c 0.12 0.11 0.27 0.11 0.39 0 c 0.12 -0.1 0.2 -0.29 0.2 -0.5 c 0 -0.21 -0.07 -0.4 -0.2 -0.5 c -0.12 -0.11 -0.27 -0.11 -0.39 0 c -0.12 0.1 -0.2 0.29 -0.2 0.5"/><path d="m 10.75 23.33 c 0 0.17 0.08 0.32 0.22 0.41 c 0.14 0.08 0.31 0.08 0.45 0 c 0.14 -0.09 0.22 -0.24 0.22 -0.41 c 0 -0.17 -0.09 -0.32 -0.22 -0.41 c -0.14 -0.09 -0.31 -0.09 -0.45 0 c -0.14 0.08 -0.22 0.24 -0.22 0.41"/><path d="m 5.62 25.1 c 0 0.19 0.07 0.36 0.18 0.45 c 0.11 0.09 0.25 0.09 0.36 0 c 0.11 -0.09 0.18 -0.27 0.18 -0.45 c 0 -0.19 -0.07 -0.36 -0.18 -0.45 c -0.11 -0.09 -0.25 -0.09 -0.36 0 c -0.11 0.09 -0.18 0.27 -0.18 0.45"/></g><g style="fill:#ff0"><path d="m 25.2 24.99 c 0 0.24 -0.33 0.44 -0.73 0.44 c -0.4 0 -0.73 -0.2 -0.73 -0.44 c 0 -0.24 0.33 -0.43 0.73 -0.43 c 0.4 0 0.73 0.2 0.73 0.43"/><path d="m 23.77 25.74 c 0 0.24 -0.34 0.44 -0.76 0.44 c -0.42 0 -0.77 -0.2 -0.77 -0.44 c 0 -0.24 0.34 -0.44 0.77 -0.44 c 0.42 0 0.76 0.2 0.76 0.44"/></g><path d="m 21.95 25 c -0.27 0.02 -0.44 -0.03 -0.93 -0.27 c -0.5 -0.24 -0.87 -0.55 -1.22 -1.03 c -0.23 -0.31 -0.75 -1.13 -0.74 -1.16 c 0 -0.01 0.22 -0.14 0.48 -0.3 l 0.47 -0.27 l -0.61 -1.17 l 0.05 -0.17 c 0.05 -0.16 0.07 -0.18 0.26 -0.28 c 0.16 -0.08 0.23 -0.1 0.32 -0.08 c 0.21 0.04 0.3 0.14 0.59 0.7 l 0.27 0.51 l 0.54 -0.29 l 0.54 -0.28 l 0.13 0.29 c 0.79 1.75 0.94 2.37 0.73 2.95 c -0.1 0.26 -0.41 0.71 -0.54 0.77 c -0.05 0.02 -0.2 0.05 -0.34 0.06" style="fill:#6e58a3"/><path d="m 20.46 23.92 c 0.01 0.05 -0.01 0.24 -0.04 0.43 c -0.07 0.41 -0.02 0.51 0.38 0.74 c 0.29 0.17 0.49 0.4 0.49 0.58 c 0 0.13 -0.27 0.29 -0.79 0.45 c -0.43 0.09 -0.83 0.3 -0.99 0.64 c -0.03 0.76 -0.35 0.79 -0.54 0.86 c -0.15 0.05 -0.26 -0.07 -0.42 -0.51 c -0.14 -0.5 -0.41 -0.53 -0.82 -0.56 c -0.71 -0.05 -0.91 -0.16 -0.79 -0.43 c 0.05 -0.12 0.14 -0.2 0.39 -0.38 c 0.57 -0.38 0.38 -0.54 0.34 -1.05 c 0 -0.17 -0.01 -0.53 0.17 -0.66 c 0.3 -0.17 0.7 0.09 0.96 0.29 c 0.07 0.11 0.32 0.16 0.43 0.08 c 0.26 -0.2 0.64 -0.94 0.98 -0.85 c 0.1 0.03 0.22 0.21 0.25 0.38" style="fill:#ed8be6"/><path d="m 18.7 25.6 c 0 0.21 0.07 0.4 0.2 0.5 c 0.12 0.11 0.27 0.11 0.39 0 c 0.12 -0.1 0.2 -0.29 0.2 -0.5 c 0 -0.21 -0.07 -0.4 -0.2 -0.5 c -0.12 -0.1 -0.27 -0.1 -0.39 0 c -0.12 0.1 -0.2 0.29 -0.2 0.5" style="fill:#ffeff4"/></svg>