<svg xmlns="http://www.w3.org/2000/svg" viewBox="0 0 32 32"><path d="m 28.85 7.58 c 17.19 31.54 -45.61 33 -23.99 0.52 c 5.71 -8.36 19.36 -12.45 23.99 -0.52" style="fill:#ffd600"/><path d="m 10.1 13.77 c -1.37 0 -2.48 2.41 -2.48 5.35 c 0 2.95 1.11 5.2 2.48 5.2 c 0.04 0 0.07 -0.04 0.1 -0.04 v 0.04 l 9.46 -1.04 c -1.95 0 -3.29 -1.31 -3.29 -4.16 c 0 -2.84 1.11 -4.16 3.29 -4.16 l -1.7 -1.18 c -3.47 -0.01 -7.86 0 -7.86 0 m 0.03 1.18 h 5.34 c 0.18 0 0.34 0.23 0.2 0.45 c -0.9 1.8 -0.96 4.5 -0.38 6.62 c 0 0.21 -0.15 0.38 -0.34 0.38 l -5.42 0.02 c -0.18 0 -0.27 -0.24 -0.27 -0.45 c -0.09 -2.09 -0.99 -4.95 0.63 -6.95 c 0 0 0.05 -0.07 0.23 -0.07"/><path d="m 14.3 9 c -0.43 0 -0.76 0.2 -0.96 0.55 l -2.45 4.39 l -0.15 0.33 h 1.64 l 0.05 -0.12 l 1.56 -2.58 c 0.04 -0.07 0.17 -0.18 0.3 -0.18 h 7.94 c 0.09 0 0.09 0.13 0.09 0.13 l -3.09 6.8 l -0.1 0.2 l 0.18 0.11 l 0.07 0.83 l 0.75 0.44 l 0.1 -0.19 l 3.73 -8.32 c 0.15 -0.28 0 -1.65 -0.12 -1.9 c -0.13 -0.27 -0.41 -0.49 -0.77 -0.48" style="fill-rule:evenodd"/><path d="m 20.48 19.1 c 0 0.98 -0.43 1.78 -0.95 1.78 c -0.52 0 -0.95 -0.8 -0.95 -1.78 c 0 -0.99 0.43 -1.79 0.95 -1.79 c 0.52 0 0.95 0.8 0.95 1.79"/><path d="m 14.38 20.91 c 0 0 -3.13 -0.03 -3.33 -0.03 c -0.2 0 -0.29 0.04 -0.4 -0.17 c -0.33 -0.51 -0.56 -1.31 -0.62 -2.04 c -0.01 -0.14 -0.22 -0.15 -0.32 -0.15 h -2.75 c -0.14 0 -0.17 0.29 -0.17 0.29 c -0.05 2.26 0.77 5.66 3.11 5.64 l 8.47 0.01 c -2.88 -0.19 -2.83 -1.61 -3.05 -2.94 c -0.19 -0.42 -0.28 -0.62 -0.61 -0.62" style="fill-rule:evenodd"/><path d="m 16.34 13.77 c -0.3 0.03 -0.52 0.32 -0.49 0.64 c 0.03 0.33 0.29 0.57 0.59 0.54 h 2.68 c 3.34 0 3.85 8.32 0 8.32 h -3.15 c -0.3 0 -0.54 0.27 -0.54 0.59 c 0 0.33 0.24 0.59 0.54 0.59 h 3.15 c 5.21 0 4.84 -10.7 0 -10.7 h -2.68 c -0.04 0 -0.07 0 -0.1 0"/><g transform="matrix(0.114 0 0 0.095 0.73 7.31)" style="stroke:#000;stroke-width:1.33"><path d="m 76.5 246 c -21.89 -8.59 -42.72 -25.28 -54.3 -43.4 l -2.5 -3.96 h 17.46 l 4.12 4.63 c 5.35 5.99 24.6 26.47 34.55 36.67 c 4.29 4.42 7.69 8.18 7.51 8.34 c -0.14 0.17 -3.26 -0.87 -6.9 -2.27"/><path d="m 119.8 254.9 c 0 -1.12 -11.6 -13.71 -32.42 -35.2 l -20.45 -21.1 h 33.42 l 2.71 3.22 c 1.51 1.82 9.95 10.94 18.8 20.28 c 8.89 9.38 19.1 20.24 22.85 24.2 c 7.65 8.14 7.89 7.39 -2.61 8.55 c -7.75 0.87 -22.3 0.91 -22.3 0.08"/><path d="m 153.2 222.5 l -23.2 -23.91 h 27.2 l 7 7.72 c 3.84 4.21 12.1 13.1 18.36 19.7 c 6.24 6.57 11.32 12.18 11.32 12.39 c 0 0.45 -13.9 7.1 -16.1 7.68 c -1.1 0.29 -5.97 -4.38 -24.57 -23.58"/><path d="m 186.8 198.6 h 33.42 l 3.09 3.55 c 6.14 7.1 6.07 5.74 0.48 11.98 c -3.47 3.96 -7.24 7.56 -11.15 10.99"/></g></svg>