<svg xmlns="http://www.w3.org/2000/svg" viewBox="0 0 32 32"><path d="m 6.59 4.98 c -23.7 28 23.51 38.84 25.36 10 c 0.75 -11.75 -16.29 -20.75 -25.36 -10" style="fill:#4581b3"/><path d="m 8.46 23.32 c -0.76 -0.39 -1.1 -0.99 -1.07 -1.86 c 0.02 -0.55 0.07 -0.72 0.34 -1.13 c 0.39 -0.59 1.18 -1 1.89 -1 c 1.49 0 2.53 1.52 1.95 2.86 c -0.52 1.22 -1.94 1.73 -3.11 1.13 m 1.64 -0.93 c 0.32 -0.16 0.53 -0.52 0.55 -0.93 c 0.03 -0.83 -0.79 -1.31 -1.62 -0.95 c -0.71 0.31 -0.78 1.51 -0.11 1.88 c 0.31 0.17 0.83 0.17 1.18 0 m 2.02 1.11 c -0.05 -0.09 4.98 -12.66 5.25 -13.1 c 0.09 -0.15 0.27 -0.17 1.6 -0.17 c 1.17 0 1.51 0.03 1.55 0.13 c 0.05 0.13 -5.07 12.91 -5.26 13.1 c -0.13 0.15 -3.04 0.18 -3.13 0.02 m 4.66 -6.5 c 1.22 -3 2.23 -5.54 2.23 -5.61 c 0 -0.09 -0.13 -0.12 -0.46 -0.1 l -0.46 0.03 l -2.24 5.52 c -1.23 3.04 -2.24 5.56 -2.24 5.61 c 0 0.05 0.21 0.07 0.47 0.05 l 0.48 -0.03 m 1.86 0.98 c -0.05 -0.14 5.07 -12.9 5.26 -13.1 c 0.13 -0.14 3.04 -0.17 3.13 -0.03 c 0.04 0.07 -4.64 11.82 -5.18 12.97 l -0.14 0.32 h -1.51 c -1.2 0 -1.52 -0.03 -1.56 -0.14 m 4.66 -6.5 c 1.23 -3.04 2.24 -5.56 2.25 -5.6 c 0 -0.04 -0.21 -0.07 -0.47 -0.07 h -0.47 l -1.87 4.63 c -1.03 2.54 -2.05 5.07 -2.27 5.63 l -0.41 1 l 0.51 -0.03 l 0.51 -0.03 m -10.14 -4.91 c -1.58 -0.79 -1.5 -3 0.14 -3.83 c 1.41 -0.7 3.16 0.38 3.11 1.91 c -0.02 0.63 -0.48 1.41 -1.04 1.79 c -0.6 0.39 -1.58 0.46 -2.21 0.14 m 1.64 -0.98 c 0.25 -0.13 0.5 -0.6 0.51 -1 c 0.02 -0.53 -0.49 -1.02 -1.07 -1.02 c -0.34 0 -0.48 0.06 -0.77 0.33 c -0.29 0.27 -0.36 0.4 -0.37 0.73 c -0.03 0.89 0.82 1.38 1.7 0.96" style="fill:#f4f4f4"/></svg>