<svg xmlns="http://www.w3.org/2000/svg" viewBox="0 0 32 32"><path d="m 29.3 8.46 c 8.61 11.5 -5.16 25.53 -16.26 23.1 c -10.93 -1.43 -17.52 -18.1 -9.1 -26.49 c 6.18 -6.07 16.72 -8.11 25.34 3.39" style="fill:#e86a21"/><path d="m 20.2 24.2 c -0.45 -0.34 -2.55 -1.48 -2.6 -1.86 c 0 -0.14 1.65 -2.66 2 -3.05 c 0.32 -0.36 1.12 -0.75 1.76 -0.85 c 0.29 -0.05 0.58 -0.11 0.64 -0.14 c 0.06 -0.03 0.69 -1.18 1.4 -2.55 c 0.71 -1.38 1.35 -2.56 1.42 -2.64 c 0.79 -0.65 1.63 0.02 1.63 0.75 c -0.01 0.44 -0.07 0.59 -1.32 2.98 l -1.31 2.51 l 0.25 0.49 c 0.32 0.66 0.48 1.61 0.37 2.18 c -0.48 1.14 -0.7 2.36 -1.36 3.41 c -1.02 -0.22 -1.99 -0.73 -2.88 -1.21 m -11.53 0.2 c -0.4 -0.15 -0.94 -0.74 -1.05 -1.16 c -0.12 -0.45 -0.12 -12.98 0 -13.44 c 0.11 -0.43 0.71 -1.06 1.13 -1.18 c 0.42 -0.12 1 -0.11 1.13 0.01 c 0.06 0.06 0.1 0.36 0.1 0.79 c 0 0.8 0.12 1.15 0.54 1.48 c 0.47 0.31 1.13 0.3 1.52 0 c 0.41 -0.33 0.54 -0.67 0.54 -1.48 c 0 -0.43 0.04 -0.73 0.09 -0.79 c 0.14 -0.14 6.2 -0.14 6.34 0 c 0.06 0.06 0.09 0.36 0.09 0.79 c 0 0.8 0.13 1.15 0.54 1.48 c 0.47 0.31 1.13 0.3 1.52 0 c 0.41 -0.33 0.54 -0.67 0.54 -1.48 c 0 -0.43 0.04 -0.73 0.09 -0.79 c 0.12 -0.12 0.71 -0.13 1.13 -0.01 c 0.42 0.12 1.02 0.75 1.13 1.18 c 0.12 1.25 0.09 2.2 0.09 3.5 c -0.21 0.34 -0.84 1.88 -1.07 1.7 c -0.08 -0.07 -0.11 -0.34 -0.11 -1.03 c 0 -1.04 -0.09 -1.32 -0.43 -1.49 c -0.16 -0.07 -1.83 -0.1 -6.7 -0.1 c -7 0 -6.82 -0.01 -7 0.45 c -0.07 0.16 -0.09 1.47 -0.09 5 c 0 5.2 0 5.14 0.43 5.34 c 0.15 0.07 1.34 0.1 4.53 0.1 h 4.32 c 0.34 0.21 1.81 0.89 1.64 1.11 c -0.14 0.18 -10.5 0.17 -10.97 0 m 0.63 -1.79 c -0.04 -0.61 -0.01 -1.09 0 -1.74 c 0.89 0 1.79 0 2.68 0 c 0 0.6 0 1.2 0 1.8 c -0.8 -0.12 -1.7 -0.09 -2.68 -0.07 m 0 -2.62 c -0.04 -0.62 -0.01 -1.09 0 -1.74 c 0.89 0 1.79 0 2.68 0 c 0 0.6 0 1.2 0 1.8 c -1.13 0.02 -1.84 -0.05 -2.68 -0.07 m 3.46 0 c -0.04 -0.62 -0.01 -1.09 0 -1.74 c 0.89 0 1.79 0 2.68 0 c 0 0.6 0 1.2 0 1.8 c -0.85 -0.07 -1.75 0.09 -2.68 -0.07 m 3.46 0 c -0.04 -0.61 -0.01 -1.09 0 -1.73 c 0.89 0 1.79 0 2.68 0 l 0.02 0.45 c -0.03 0.69 -0.26 0.84 -0.64 1.39 h -1 c -0.77 0 -1.02 -0.03 -1.05 -0.11 m -6.92 -2.62 c -0.04 -0.62 -0.01 -1.09 0 -1.74 c 0.89 0 1.79 0 2.68 0 c 0 0.6 0 1.2 0 1.8 l -1.32 0.02 c -1.05 0.02 -1.33 0 -1.36 -0.09 m 3.46 0 c -0.04 -0.62 -0.01 -1.09 0 -1.74 c 0.89 0 1.79 0 2.68 0 c 0 0.6 0 1.2 0 1.8 c -1.04 0.07 -2.17 0.04 -2.68 -0.07 m 3.46 0 c -0.04 -0.62 -0.01 -1.09 0 -1.74 c 0.89 0 1.79 0 2.68 0 c 0 0.6 0 1.2 0 1.8 l -1.32 0.02 c -1.05 0.02 -1.33 0 -1.36 -0.09 m 3.46 0 c -0.04 -0.61 -0.01 -1.09 0 -1.74 c 0.89 0 1.79 0 2.68 0 l 0.02 0.41 c -0.02 0.61 -0.22 0.86 -0.51 1.39 c -0.65 -0.09 -1.79 -0.04 -2.19 -0.07 m -3.46 -2.62 c -0.04 -0.62 -0.01 -1.09 0 -1.74 c 0.89 0 1.79 0 2.68 0 c 0 0.6 0 1.2 0 1.8 l -1.32 0.02 c -1.05 0.02 -1.33 0 -1.36 -0.09 m 3.46 0 c -0.04 -0.62 -0.01 -1.09 0 -1.74 c 0.89 0 1.79 0 2.68 0 c 0 0.6 0 1.2 0 1.8 l -1.32 0.02 c -1.05 0.02 -1.33 0 -1.36 -0.09 m -8.79 -4.2 c -0.39 -0.22 -0.45 -0.48 -0.45 -1.88 c 0 -1.42 0.06 -1.66 0.47 -1.88 c 0.29 -0.16 0.43 -0.16 0.71 0 c 0.41 0.22 0.47 0.46 0.47 1.88 c 0 1.42 -0.06 1.66 -0.47 1.89 c -0.29 0.15 -0.45 0.15 -0.73 0 m 9.13 0 c -0.39 -0.22 -0.45 -0.48 -0.45 -1.88 c 0 -1.42 0.06 -1.66 0.47 -1.88 c 0.29 -0.16 0.42 -0.16 0.71 0 c 0.41 0.22 0.47 0.46 0.47 1.88 c 0 1.42 -0.06 1.66 -0.47 1.89 c -0.29 0.15 -0.45 0.15 -0.73 0" style="fill:#fff"/><path d="m 19.57 19.94 c 0 -0.24 0.2 -0.38 0.42 -0.57 c 0.13 -0.12 0.18 -0.06 0.32 0.01 c 0.26 0.12 3.07 1.68 3.53 1.95 c 0.19 0.11 0.36 0.22 0.38 0.25 c 0.07 0.1 -0.07 0.82 -0.16 0.82 c -1.46 -0.83 -3.11 -1.46 -4.49 -2.47" style="fill:#e86a21"/></svg>