<svg xmlns="http://www.w3.org/2000/svg" viewBox="0 0 32 32"><path d="m 29 25.34 c 16 -24.1 -35 -38.88 -28.3 -7.77 c 2.88 12.85 20.93 20.65 28.3 7.77"/><g style="fill:#fff"><path d="m 6.27 14.27 c -0.3 -0.13 -0.55 -0.69 -0.47 -1.07 c 0.08 -0.4 0.75 -1.38 1.46 -2.12 c 0.58 -0.61 0.88 -1.11 0.78 -1.28 c -0.03 -0.06 -0.31 -0.29 -0.62 -0.52 c -1.46 -1.08 -1.96 -2.34 -1.23 -3.09 c 0.19 -0.2 0.3 -0.23 0.61 -0.18 c 1.18 0.21 3.72 2.38 4.24 3.63 c 0.35 0.83 0.21 1.32 -0.59 2.11 c -0.98 0.96 -3.47 2.65 -3.86 2.62 c -0.05 0 -0.2 -0.05 -0.31 -0.1"/><path d="m 12 17.38 c -0.36 -0.11 -0.63 -0.59 -0.63 -1.1 c 0 -0.65 0.9 -1.08 2.51 -1.2 c 1.14 -0.08 3.95 0.11 4.27 0.28 c 0.34 0.18 0.39 0.3 0.39 0.91 c 0 0.68 -0.15 0.9 -0.72 1.02 c -0.71 0.14 -5.42 0.22 -5.82 0.09"/></g><g style="stroke:#fff"><path d="m 155.1 158.6 c 0 30.44 -24.27 55.1 -54.2 55.1 c -29.92 0 -54.2 -24.65 -54.2 -55.1 c 0 -30.44 24.27 -55.1 54.2 -55.1 c 29.95 0 54.2 24.65 54.2 55.1" transform="matrix(-0.13 0 0 0.132 37.51 3.29)" style="stroke-width:7.21"/><path d="m 74.92 206.2 c -2.57 -0.74 -3.94 -1.37 -3.94 -1.89 c 0 -0.17 0.68 -1.13 1.51 -2.11 c 1.97 -2.31 3.38 -2.67 10.14 -2.7 c 3.63 0.54 5.9 -0.25 9 -1.82 c 5.5 -2.8 10.27 -8.09 12.52 -13.91 c 1.11 -3.21 1.46 -16.2 -1.92 -15.65 c -1.72 -0.2 -3.08 0.69 -8.45 5.47 l -4.87 4.34 c -2.25 -2.18 -6.91 -4.69 -7.62 -7.73 c 0 -0.27 1.92 -2.5 4.24 -4.93 c 5.58 -5.84 5.85 -6.26 5.22 -8.24 c -0.35 -1 -1.11 -1.94 -2.27 -2.7 c -6.61 -3.16 -18.22 -0.07 -23.87 6.08 c -1.51 1.72 -3.53 4.59 -4.52 6.33 c -2.35 3.07 -1.77 6.26 -1.77 9.93 c 0 6.67 -0.03 6.75 -1.19 8.29 c -1.34 1.77 -2.65 2.35 -3.56 1.57 c -1.24 -1 -2.55 -6.4 -2.5 -10.33 c 0.13 -9.69 5.27 -19.45 13 -24.82 c 3.94 -2.67 9.74 -4.88 14.48 -5.49 c 6.43 -0.86 14.1 1.2 20.51 5.52 c 5.48 3.65 9.1 7.97 11.46 16.43 c 1.61 5.79 1.82 11.6 0.2 16.31 c -2.17 6.26 -4.09 9.62 -8.28 13.83 c -3.71 3.75 -8.2 6.4 -13.1 7.75 c -3.53 0.96 -11.71 1.2 -14.51 0.39" transform="matrix(-0.155 0 0 0.159 37 -3.92)" style="fill:#fff;stroke-width:1.55"/></g></svg>