<svg xmlns="http://www.w3.org/2000/svg" viewBox="0 0 32 32"><path d="m 29.3 23.55 c 8.61 -11.5 -5.16 -25.53 -16.26 -23.1 c -10.93 1.43 -17.52 18.1 -9.1 26.49 c 6.18 6.07 16.72 8.11 25.34 -3.39" style="fill:#ffc0ca"/><path d="m 13.54 25.55 c -3.47 -0.96 -5.65 -3.79 -6.23 -8.09 c -0.16 -2 -0.5 -5.87 0.3 -7.63 c 0.11 -0.2 0.41 -0.49 0.63 -0.61 c 0.45 -0.23 1.8 0.07 3.66 0.8 c 1.56 0.61 2.8 1.38 3.77 2.32 c 1.31 1.29 2.03 2.93 2.34 5.41 c 0.11 0.81 0.14 2.38 0.05 2.43 c -0.88 0.02 -1.55 -0.02 -2.48 -0.05 l -0.05 -0.96 c -0.16 -3.27 -0.95 -4.82 -3.1 -6.07 c -0.85 -0.5 -2.41 -1.11 -2.52 -1 c -0.31 1.95 -0.27 4 0.1 5.88 c 0.48 2.36 1.55 3.93 3.2 4.72 c 2.7 1.2 6.41 0.26 7.66 -2.13 c 0.62 -1.23 0.81 -2.59 0.81 -5.75 c 0 -2.23 -0.03 -2.71 -0.18 -2.77 c -0.05 -0.02 -0.42 0.04 -0.82 0.14 c -1.09 0.26 -1.94 0.59 -2.43 0.96 c -0.12 0.09 -0.25 0.14 -0.28 0.12 c -0.08 -0.05 -1.35 -1.8 -1.4 -1.93 c -0.05 -0.13 0.48 -0.52 1.11 -0.82 c 1.24 -0.58 2.66 -0.95 4.47 -1.16 c 0.83 -0.1 1.11 -0.06 1.47 0.2 c 0.44 0.32 0.51 0.54 0.57 1.87 c 0.17 3.87 0.15 5.25 -0.09 7 c -0.37 2.81 -1.35 4.59 -3.27 5.89 c -2.23 1.35 -5.27 1.74 -7.3 1.21" style="fill:#d65549"/></svg>