<svg xmlns="http://www.w3.org/2000/svg" viewBox="0 0 32 32"><path d="m 5.7 27.39 c -25.1 -33.1 44 -37.75 21.84 -4 c -5.06 7.69 -15.18 12.77 -21.84 4" style="fill:#e7cfec"/><path d="m 11.67 25.31 c -0.31 -0.39 -0.49 -0.7 -0.51 -1.03 c -0.03 -0.43 -0.01 -0.53 0.11 -0.74 c 0.28 -0.48 0.32 -0.49 2.41 -0.49 c 1.84 0 1.86 0 2.07 0.14 c 0.32 0.22 0.41 0.44 0.41 1 c 0.02 0.62 -0.25 0.68 -0.52 1.14 c 0 0.04 -0.79 0.06 -1.98 0.06 c -1.65 0 -1.98 -0.02 -1.98 -0.09 m 0.1 -3.04 c -0.46 -0.25 -0.59 -0.68 -0.61 -1 c -0.03 -0.43 -0.01 -0.53 0.11 -0.75 c 0.28 -0.48 0.32 -0.48 2.38 -0.48 c 1.63 0 1.84 0.01 2.04 0.11 c 0.36 0.19 0.47 0.43 0.47 1.03 c 0.1 0.55 -0.26 0.79 -0.58 1.11 l -1.84 0.01 c -0.65 -0.04 -1.33 0.05 -1.97 -0.04 m 0 -3.07 c -0.24 -0.14 -0.39 -0.31 -0.59 -0.51 c 0 -2.88 0 -5.75 0 -8.63 c 0.19 -0.16 0.38 -0.36 0.49 -0.57 c 0 -0.11 0.14 -0.12 4.59 -0.12 c 4.45 0 4.59 0 4.59 0.12 c 0.11 0.25 0.29 0.38 0.49 0.57 c 0 2.88 0 5.75 0 8.63 c -0.18 0.18 -0.37 0.36 -0.55 0.54 l -4.44 0.01 c -2.45 0.01 -4.5 -0.01 -4.57 -0.04 m 7.3 -1.79 c 0.1 -0.07 0.25 -0.22 0.33 -0.34 c 0.14 -0.21 0.14 -0.22 0.14 -2.64 c 0 -2.64 -0.01 -2.72 -0.36 -2.98 c -0.38 -0.29 -0.72 -0.33 -2.91 -0.32 c -2.55 0 -2.9 0.07 -3.2 0.63 c -0.1 0.2 -0.11 0.46 -0.11 2.9 c 0 2.43 0.01 2.7 0.11 2.8 c 0.11 0.11 0.25 0.12 2.96 0.1 c 2.77 -0.02 2.85 -0.02 3 -0.15 m -4.39 -1.45 c -0.13 -1 -0.06 -1.57 -0.04 -2.77 c 0.14 -0.13 0.28 -0.25 0.42 -0.37 c 0.8 0 1.61 0 2.41 0 c 0.14 0.12 0.28 0.24 0.42 0.37 c 0.02 0.77 0.03 1.55 0.04 2.32 c -0.15 0.16 -0.3 0.32 -0.45 0.47 c -0.91 -0.07 -1.89 0.16 -2.8 -0.02" style="fill:#ab4aba"/></svg>