<svg xmlns="http://www.w3.org/2000/svg" viewBox="0 0 32 32"><path d="m 24.2 2.64 c 28.2 23.93 -29.75 46.94 -23.8 9.94 c 1.3 -8.12 16.2 -16.38 23.8 -9.94" style="fill:#ff8c00"/><path d="m 25.33 16.72 c 0 -5.45 -4.29 -9.87 -9.59 -9.87 c -5.3 0 -9.59 4.42 -9.59 9.87 c 0 5.45 4.29 9.87 9.59 9.87 c 5.29 0 9.59 -4.42 9.59 -9.87" style="fill:#0ba15d"/><path d="m 25.32 16.4 c -0.06 5.4 -4.33 9.75 -9.57 9.75 c -5.21 -0.01 -9.46 -4.29 -9.57 -9.65 c 0 0.07 -0.01 0.14 -0.02 0.22 c 0 5.45 4.29 9.87 9.59 9.87 c 5.3 0 9.59 -4.42 9.59 -9.87 c 0 -0.11 0 -0.22 -0.01 -0.33" style="fill-opacity:0.3"/><path d="m 11.36 17.82 c 0 -0.63 -0.46 -1.14 -1.04 -1.14 c -0.57 0 -1.04 0.51 -1.04 1.14 c 0 0.63 0.46 1.14 1.04 1.14 c 0.57 0 1.04 -0.52 1.04 -1.14"/><path d="m 7.66 11.77 c -0.24 0.39 -0.45 0.79 -0.64 1.21 c -0.19 0.43 -0.35 0.87 -0.48 1.32 c -0.13 0.45 -0.23 0.91 -0.29 1.38 c -0.06 0.46 -0.1 0.94 -0.1 1.41 c 0.01 0.37 0.03 0.74 0.08 1.11 c 2.35 -4.45 16.22 -4.17 19.1 -1.93 c 0 -0.06 -0.01 -0.12 -0.01 -0.17 c -0.02 -0.17 -0.04 -0.33 -0.06 -0.5 c -0.02 -0.16 -0.05 -0.33 -0.09 -0.49 c -0.03 -0.16 -0.07 -0.33 -0.11 -0.49 c -0.04 -0.16 -0.09 -0.32 -0.13 -0.48 c -0.05 -0.16 -0.1 -0.32 -0.16 -0.47 c -0.06 -0.16 -0.12 -0.31 -0.18 -0.46 c -0.07 -0.15 -0.13 -0.3 -0.2 -0.45 c -0.07 -0.15 -0.15 -0.3 -0.23 -0.45 c -0.08 -0.14 -0.16 -0.29 -0.25 -0.43 c -0.09 -0.14 -0.18 -0.28 -0.27 -0.42 c -0.09 -0.14 -0.19 -0.27 -0.29 -0.4 c -0.1 -0.13 -0.2 -0.26 -0.31 -0.39 c -0.1 -0.13 -0.21 -0.25 -0.32 -0.37 c -0.02 -0.02 -0.03 -0.04 -0.05 -0.05 c -1.95 -0.98 -4.11 -1.49 -6.31 -1.5 c -3.16 0.02 -6.22 1.09 -8.67 3.04" style="fill-opacity:0.3"/><path d="m 20.97 17.71 c 0 -0.64 -0.43 -1.16 -0.96 -1.16 c -0.53 0 -0.96 0.52 -0.96 1.16 c 0 0.64 0.43 1.16 0.96 1.16 c 0.53 0 0.96 -0.52 0.96 -1.16"/><path d="m 13.73 19.1 c 0.32 1.63 1 2.68 1.77 2.69 c 0.76 0 1.45 -1.05 1.76 -2.69" style="fill-opacity:0.74"/><path d="m 7.66 11.41 c -0.24 0.39 -0.45 0.79 -0.64 1.21 c -0.56 1.39 -0.86 2.72 -0.87 4.1 c 0.01 0.37 0.03 0.74 0.08 1.11 c 2.35 -4.45 16.22 -4.17 19.1 -1.93 c -0.03 -0.4 -0.09 -0.8 -0.16 -1.16 c -0.39 -1.7 -1.08 -3.18 -2.12 -4.44 c -0.1 -0.13 -0.21 -0.25 -0.32 -0.37 c -0.02 -0.02 -0.03 -0.03 -0.05 -0.05 c -1.95 -0.98 -4.11 -1.49 -6.31 -1.49 c -3.16 0.02 -6.22 1.09 -8.67 3.04" style="fill:#fc7d00"/><path d="m 17.1 11.48 c 0 1.15 -0.96 2.08 -2.14 2.08 c -1.18 0 -2.14 -0.93 -2.14 -2.08 c 0 -1.15 0.96 -2.08 2.14 -2.08 c 1.19 0 2.14 0.93 2.14 2.08" style="fill:#b22525"/><path d="m 7.66 11.42 c -0.5 0.81 -0.87 1.68 -1.11 2.53 c -0.26 0.93 -0.39 1.88 -0.39 2.78 c 0 0.03 0 0.05 0 0.08 c 0.05 -1.85 0.61 -3.64 1.5 -5.12 c 4.7 -3.27 10.21 -3.88 14.98 -1.54 c 0.24 0.26 0.49 0.55 0.68 0.81 c 1.04 1.63 1.75 3.2 1.94 4.93 c 0.01 0.01 0.02 0.01 0.03 0.02 c 0 -0.06 -0.01 -0.11 -0.01 -0.17 c -0.24 -2.12 -1.3 -4.37 -2.59 -5.8 c -0.02 -0.02 -0.03 -0.03 -0.05 -0.05 c -5.32 -2.18 -10.76 -1.73 -14.98 1.54" style="fill:#fff;fill-opacity:0.2"/><path d="m 16.38 11.48 c 0 0.74 -0.62 1.34 -1.39 1.34 c -0.76 0 -1.38 -0.6 -1.38 -1.34 c 0 -0.74 0.62 -1.34 1.38 -1.34 c 0.77 0 1.39 0.6 1.39 1.34" style="fill:#b22525"/><path d="m 8.1 23.92 c 2.24 1.73 4.95 2.66 7.75 2.68 c 2.55 0 5 -0.78 7.18 -2.23 c -2.13 0.31 -4.29 0.47 -6.44 0.47 c -2.85 -0.03 -5.69 -0.34 -8.48 -0.92" style="fill:#087042"/><path d="m 15.79 7 c -3.34 0 -6.51 1.52 -8.66 4.15 c 2.93 -1.16 6 -1.77 9.18 -1.79 c 2.58 0 5.15 0.39 7.61 1.16 c -2.14 -2.26 -5.07 -3.53 -8.13 -3.53" style="fill-opacity:0.3"/><path d="m 8.1 23.92 c 2.24 1.73 4.95 2.66 7.75 2.68 c 2.55 0 5 -0.78 7.18 -2.23 c -2.13 0.31 -4.29 0.47 -6.44 0.47 c -2.85 -0.03 -5.69 -0.34 -8.48 -0.92" style="fill-opacity:0.2"/><path d="m 15.79 6.86 c -3.34 0 -6.51 1.52 -8.66 4.15 c 2.93 -1.16 6 -1.76 9.18 -1.79 c 2.58 0 5.15 0.39 7.61 1.16 c -2.14 -2.26 -5.07 -3.53 -8.13 -3.53" style="fill:#087042"/><g style="fill-opacity:0.3"><path d="m 8.1 23.92 c 0.27 0.21 0.55 0.41 0.85 0.59 c 2.52 0.47 5.07 0.73 7.63 0.77 c 1.86 -0.01 3.71 -0.13 5.56 -0.37 c 0.3 -0.17 0.59 -0.35 0.88 -0.55 c -2.14 0.31 -4.29 0.47 -6.44 0.48 c -2.85 -0.04 -5.69 -0.34 -8.48 -0.92"/><path d="m 16.3 8.78 c -2.93 0.03 -5.84 0.56 -8.59 1.58 c -0.2 0.21 -0.4 0.43 -0.59 0.65 c 2.93 -1.16 6 -1.76 9.18 -1.79 c 2.58 0 5.15 0.39 7.61 1.16 c -0.21 -0.21 -0.42 -0.42 -0.65 -0.62 c -2.27 -0.65 -4.61 -0.98 -6.96 -0.98"/></g><path d="m 15.79 6.86 c -3.34 0 -6.51 1.52 -8.66 4.15 c 0.2 -0.07 0.39 -0.14 0.59 -0.21 c 2.13 -2.23 5 -3.5 8.1 -3.5 c 2.75 0 5.41 1.04 7.48 2.91 c 0.22 0.05 0.43 0.12 0.65 0.18 c -2.14 -2.26 -5.07 -3.53 -8.13 -3.53" style="fill:#fff;fill-opacity:0.1"/></svg>