<svg xmlns="http://www.w3.org/2000/svg" viewBox="0 0 32 32"><path d="m 24.27 2.43 c 28 24.1 -29.58 47.3 -23.66 10 c 1.3 -8.17 16.1 -16.49 23.66 -10" style="fill:#b0dfe5"/><g style="fill:#28588b"><path d="m 9.79 24.8 c -0.64 -0.27 -1 -0.51 -1.62 -1.05 c -0.56 -0.51 -1.08 -1.07 -0.99 -1.07 c 0.03 0 0.34 0.2 0.7 0.45 c 0.79 0.55 1.57 0.87 2.3 0.93 c 0.45 0.04 0.68 0 1.25 -0.19 c 1 -0.33 2.07 -0.85 2.92 -1.41 c 3.17 -2.11 3.82 -2.46 5.28 -2.91 c 1.06 -0.32 2.45 -0.31 3.86 0.03 c 1.63 0.39 1.38 0.57 -1.24 0.85 c -2.46 0.27 -3.46 0.61 -5.85 2 c -0.84 0.49 -1.81 1.05 -2.15 1.24 c -2 1.11 -3.56 1.51 -4.46 1.14"/><path d="m 9.17 22.44 c -0.11 -0.11 -0.12 -0.68 -0.13 -4.12 c 0 -2.19 0.02 -4 0.05 -4.05 c 0.03 -0.03 0.68 -0.07 1.43 -0.09 c 0.39 0.11 1.41 -0.16 1.43 0.18 c 0.07 0.31 0.09 7.75 0.02 8.11 c -0.05 0.28 -0.11 0.34 -0.36 0.41 c -0.82 0.31 -1.82 0.18 -2.45 -0.45"/></g><path d="m 14.24 21.8 c -0.09 -0.15 0.03 -7.84 0.02 -9.1 v -1.23 c 0.48 0.06 2.61 -0.16 2.81 0.13 c 0.05 0.08 0.08 1.84 0.08 4.31 c 0 3.87 0.06 3.92 -0.07 4.05 c -0.93 0.49 -1.91 1.28 -2.83 1.8" style="fill:#2d5f92"/><path d="m 19.1 18.79 c -0.08 -0.14 -0.09 -1.28 -0.06 -4.75 c 0.02 -2.51 0.07 -4.63 0.1 -4.71 c 0.05 -0.13 0.2 -0.15 1.25 -0.14 c 0.66 0 1.27 0.02 1.38 0.05 l 0.18 0.05 v 4.71 c 0 2.59 -0.03 4.72 -0.06 4.72 c -0.79 -0.21 -2.26 -0.06 -2.79 0.07" style="fill:#4b7fb3"/></svg>