<svg xmlns="http://www.w3.org/2000/svg" viewBox="0 0 32 32"><path d="m 7.82 3.32 c 16.42 -11.16 32.54 10.21 19.1 23.45 c -12.67 12.47 -31.85 0.4 -25.54 -15.28 c 1.32 -3.27 3.44 -6.13 6.46 -8.17" style="fill:#5c5b62"/><path d="m 25.37 18.1 c -0.71 5.41 -5.77 9.21 -11.29 8.48 c -5.52 -0.73 -9.43 -5.71 -8.71 -11.12 c 0.71 -5.41 5.77 -9.21 11.29 -8.48 c 5.52 0.73 9.42 5.71 8.71 11.12" style="fill:#232226"/><path d="m 18.92 20.93 c -1.1 -0.98 -1 -2.49 -1.12 -3.54 c -0.68 -0.07 -1.19 -0.01 -1.66 0.3 c -0.33 0.22 -0.54 0.28 -1.13 0.34 c -1.14 0.29 -0.73 -1.58 -0.5 -2.03 c 0.2 -0.34 0.27 -0.41 0.04 -1.04 c -0.19 -0.54 -0.27 -0.58 -0.81 -0.34 c -0.43 0.19 -0.9 0.19 -1.66 -0.02 c -0.61 -0.16 -1.14 -0.46 -1.26 -0.71 c -0.14 -0.58 0.71 -1.27 1.22 -1.46 c 0.13 -0.05 0.68 -0.12 1.21 -0.16 c 1.37 -0.11 1.46 -0.13 1.78 -0.34 c 0.43 -0.29 3.71 -3.87 3.75 -4.14 c 0.16 -0.39 0.41 -0.51 0.96 -0.29 c 1.88 0.5 3.2 1.9 4.3 3.63 c 0.25 0.27 -0.14 0.83 -0.41 1.24 c -0.64 0.6 -2.98 3.57 -3.24 4 c -0.14 0.23 -0.14 0.34 0.02 1.42 c 0.14 0.93 0.12 1.7 -0.05 2.09 c -0.06 0.14 -0.24 0.4 -0.4 0.58 c -0.43 0.48 -0.78 0.64 -1.05 0.5" style="fill:#fff"/><path d="m 23.65 11.58 c -1 -0.82 -4.82 -3.55 -4.5 -4.29 c 0.04 -0.07 0.41 -0.35 0.82 -0.62 c 1.09 -0.73 2.32 -1.11 3.23 -1 c 1.36 0.23 2.14 1.61 2.11 2.68 c -0.05 1.16 -0.71 3.09 -1.14 3.31 c -0.29 0.07 -0.36 0.02 -0.53 -0.08" style="fill:#ec333b"/><path d="m 13.75 20.46 c -0.11 -0.13 -0.47 -0.45 -0.81 -0.71 c -0.8 -0.64 -0.87 -0.72 -0.96 -1.04 c -0.13 -0.44 -0.04 -0.82 0.38 -1.67 c 0.43 -0.88 0.7 -1.25 1.13 -1.62 c 0.39 -0.33 0.67 0.02 0.31 0.38 c -0.7 1.82 -0.03 3.1 1.78 2.85 c 0.63 -0.23 1.05 -0.85 1.52 -0.72 c -0.06 0.23 -0.13 0.46 -0.23 0.67 c -0.41 0.62 -2.05 1.86 -2.7 2.05 c -0.2 0.05 -0.21 0.05 -0.4 -0.18" style="fill:#ffa400"/><path d="m 11.55 21.32 c -0.21 -0.34 -0.06 -1.43 0.15 -2.13 l 0.08 -0.25 c 0.65 0.7 1.2 1.18 1.91 1.76 l -0.23 0.18 c -0.41 0.2 -1.6 0.9 -1.9 0.44" style="fill:#ff4500"/><path d="m 21.3 11.69 c -0.11 0.79 -0.84 1.34 -1.65 1.24 c -0.81 -0.11 -1.38 -0.83 -1.28 -1.63 c 0.1 -0.79 0.84 -1.35 1.65 -1.24 c 0.81 0.11 1.38 0.83 1.28 1.63" style="fill:#5c5b62"/><g style="fill:#f4f4f4"><path d="m 8.79 16.63 c -0.04 0.34 -0.36 0.57 -0.71 0.53 c -0.35 -0.05 -0.59 -0.36 -0.55 -0.7 c 0.04 -0.34 0.36 -0.58 0.71 -0.53 c 0.35 0.05 0.59 0.36 0.55 0.7"/><path d="m 23.1 18.45 c -0.05 0.34 -0.38 0.59 -0.73 0.54 c -0.36 -0.05 -0.61 -0.37 -0.57 -0.71 c 0.05 -0.35 0.38 -0.59 0.73 -0.54 c 0.36 0.05 0.62 0.37 0.57 0.71"/></g><g style="fill:#dcdcdc"><path d="m 13.16 9.72 c -0.04 0.29 -0.32 0.5 -0.63 0.46 c -0.31 -0.04 -0.53 -0.31 -0.49 -0.61 c 0.04 -0.3 0.32 -0.5 0.63 -0.46 c 0.31 0.04 0.53 0.31 0.49 0.61"/><path d="m 14.48 24.34 c -0.04 0.28 -0.31 0.47 -0.61 0.43 c -0.3 -0.04 -0.51 -0.3 -0.47 -0.57 c 0.04 -0.28 0.31 -0.47 0.61 -0.43 c 0.3 0.04 0.51 0.3 0.48 0.57"/><path d="m 9 21.68 c -0.02 0.18 -0.21 0.31 -0.41 0.29 c -0.2 -0.03 -0.34 -0.2 -0.32 -0.38 c 0.03 -0.18 0.21 -0.31 0.41 -0.29 c 0.2 0.03 0.34 0.2 0.32 0.38"/><path d="m 15.82 9.53 c -0.03 0.2 -0.22 0.34 -0.44 0.32 c -0.21 -0.03 -0.37 -0.22 -0.34 -0.42 c 0.03 -0.2 0.23 -0.34 0.44 -0.32 c 0.21 0.03 0.37 0.22 0.34 0.42"/></g></svg>