<svg xmlns="http://www.w3.org/2000/svg" viewBox="0 0 32 32"><path d="m 8.32 3.79 c 7.39 -7.31 14.21 -1.96 19.81 3.85 c 4.57 4.73 4.78 9.13 1.75 13.78 c -7.9 12.15 -18.2 16.65 -28.9 -2.19 c -2.65 -6.21 2.94 -12 7.33 -15.44" style="fill:#55406a"/><path d="m 15.61 25.1 c -1.45 -0.64 -8.1 -4.31 -8.32 -4.61 c -0.07 -0.08 -0.09 -1.61 -0.07 -4.73 l 0.02 -4.61 l 0.82 -0.49 c 1 -0.61 5.12 -2.86 6.74 -3.68 l 1.19 -0.61 l 1.24 0.63 c 3.09 1.57 7.32 3.95 7.43 4.18 c 0.1 0.2 0.15 8.25 0.06 8.89 l -0.07 0.51 c -2.9 1.73 -6 3.37 -8.61 4.71 m 0.82 -2.09 c 0.48 -0.23 2.09 -1.09 3.6 -1.89 l 2.74 -1.46 v -7.97 l -2.08 -1.13 c -3.09 -1.68 -4.98 -2.64 -5.17 -2.64 c -0.16 0 -1.49 0.69 -5.26 2.73 l -1.89 1.03 c 0.01 1.72 -0.03 3.52 -0.06 5 l -0.06 2.86 l 2.23 1.23 c 2.15 1.19 4.93 2.65 5 2.65 c 0.36 -0.16 0.63 -0.29 0.91 -0.43" style="fill:#9c8cf2"/><path d="m 10.5 19 c -0.11 -0.02 -0.28 -0.13 -0.38 -0.23 c -0.16 -0.18 -0.17 -0.4 -0.17 -3.08 c 0 -3.27 -0.03 -3.14 0.77 -3.27 c 0.64 -0.11 9.77 -0.1 10.5 0 c 0.39 0.06 0.65 0.15 0.73 0.26 c 0.1 0.14 0.12 0.7 0.09 3 c -0.03 1.83 -0.08 2.93 -0.15 3.05 c -0.06 0.12 -0.23 0.21 -0.46 0.25 c -0.39 0.07 -10.61 0.06 -10.94 0 m 2 -3.55 l 0.02 -1.51 c -0.27 -0.03 -0.6 -0.13 -0.86 -0.04 c -0.19 0.07 -0.2 0.13 -0.18 1.51 c 0.01 0.79 0.04 1.47 0.07 1.52 c 0.03 0.04 0.24 0.07 0.48 0.05 l 0.43 -0.03 m 2 -1.5 v -1.54 c -0.3 0 -0.61 0 -0.91 0 l -0.06 0.49 c -0.09 0.77 -0.07 2.21 0.04 2.41 c -0.11 0.35 0.54 0.18 0.93 0.18 m 1.96 -1.54 v -1.54 c -0.31 0 -0.63 0 -0.94 0 v 1.48 c 0 0.82 0.03 1.51 0.06 1.54 c 0.3 0.09 0.55 0.06 0.88 0.06 m 2.09 -1.19 c 0.07 -1.47 0.01 -1.81 -0.32 -1.9 c -0.26 -0.06 -0.48 -0.02 -0.73 0.03 v 1.47 c 0 0.81 0.03 1.5 0.06 1.53 c 0.33 0.09 0.59 0.06 0.94 0.06 c 0.02 -0.4 0.04 -0.79 0.06 -1.19" style="fill:#c3bee4"/><path d="m 10 17.69 h 11.96 c 0.04 0 0.07 0.29 0.07 0.65 v 0.15 c 0 0.36 -0.03 0.66 -0.07 0.66 h -11.96 c -0.04 0 -0.06 -0.29 -0.06 -0.66 v -0.15 c 0 -0.36 0.03 -0.65 0.06 -0.65" style="fill:#76c"/></svg>