<svg xmlns="http://www.w3.org/2000/svg" viewBox="0 0 32 32"><path d="m 3.06 24.48 c -17.41 -31.8 46.2 -33.3 24.3 -0.52 c -5.78 8.44 -19.61 12.55 -24.3 0.52" style="fill:#ff8c00"/><path d="m 14.65 7.09 c -0.73 0 -1.31 0.58 -1.31 1.31 v 6.55 c 0 0.73 0.61 1.31 1.31 1.31 h 1.96 v 2.63 l 2.62 -2.63 h 5.22 c 0.73 0 1.3 -0.58 1.3 -1.31 v -6.55 c 0 -0.73 -0.58 -1.31 -1.3 -1.31" style="fill:#fff"/><path d="m 15.56 15.23 c 0 1.86 -1.48 3.37 -3.3 3.37 c -1.82 0 -3.3 -1.51 -3.3 -3.37 c 0 -1.86 1.48 -3.37 3.3 -3.37 c 1.83 0 3.31 1.51 3.3 3.37" style="fill:#ff8c00"/><g style="fill:#fff"><path d="m 14.57 15.63 c 0 1.57 -1.33 2.85 -2.98 2.85 c -1.64 0 -2.98 -1.27 -2.98 -2.85 c 0 -1.57 1.33 -2.84 2.98 -2.84 c 1.65 0 2.98 1.27 2.98 2.84"/><path d="m 11.59 19.2 c -2.47 0 -4.47 1.91 -4.47 4.27 v 0.71 c 0 0.39 0.34 0.71 0.75 0.71 h 7.44 c 0.41 0 0.74 -0.32 0.74 -0.71 v -0.71 c 0 -2.36 -2 -4.26 -4.46 -4.26"/></g></svg>