<svg xmlns="http://www.w3.org/2000/svg" viewBox="0 0 32 32"><path d="m 16.45 31.82 c -3.3 -0.25 -7.16 -1.83 -9.85 -4 c -3.27 -2.66 -5.68 -6.75 -6.31 -10.78 c -0.77 -5.32 2.32 -11 5.81 -13.75 c 1.75 -1.32 4.07 -2.37 6.25 -2.83 c 5.66 -1.2 11.57 1.07 15.63 6 c 2.43 2.95 3.68 5.93 3.99 9.45 c 0.37 4.22 -1.3 8.75 -4.35 11.8 c -3.47 2.88 -7 4.43 -11.15 4.14" style="fill:#008b00"/><g style="fill:#fff"><path d="m 8.88 14.59 c -0.81 -1.2 -1.27 -2.47 -0.44 -3.99 c 0.46 -0.86 0.79 -1.14 1.64 -1.35 c 0.58 -0.15 0.61 -0.18 0.88 -0.76 c 0.43 -0.92 0.62 -1.15 1.32 -1.61 c 1.33 -0.71 2.88 -0.63 4.05 -0.12 c 0.49 0.21 2.21 1.61 3.33 2.74 c 1.45 -1.48 1.91 -0.11 0.75 1.22 c -0.59 0.67 -2.27 -1.38 -3.53 -2.21 c -1.07 -0.67 -2.49 -0.91 -3.3 -0.69 c -1.25 0.33 -1.36 0.43 -1.72 1.42 c -0.5 1.35 -0.47 1.32 -1.4 1.43 c -0.45 0.05 -0.88 0.17 -0.95 0.25 c -0.5 0.57 -0.5 1.89 -0.02 2.59 c 0.32 0.46 1.64 1.57 1.43 1.87 c -0.46 0.68 -1.64 -0.39 -2.05 -0.8"/><path d="m 10 24.2 c -0.99 -0.03 -1.01 -0.04 -0.78 -0.57 c 0.06 -0.14 0.16 -0.43 0.23 -0.66 c 0.16 -0.53 1.1 -2.41 1.5 -3 l 0.32 -0.47 h 10.19 l 0.76 1.52 c 0.76 1.51 1.22 2.6 1.24 2.95 c 0.01 0.15 -0.04 0.2 -0.22 0.24 c -0.22 0.05 -11.5 0.06 -13.24 0.01 m 8.09 -0.67 c 0.55 -0.14 0.83 -0.33 0.86 -0.58 c 0.05 -0.36 -0.14 -0.41 -0.93 -0.23 c -0.79 0.18 -1.92 0.22 -2.39 0.08 c -0.64 -0.19 -1.13 -0.83 -0.97 -1.26 c 0.11 -0.28 0.41 -0.6 0.8 -0.82 c 0.43 -0.25 1.34 -0.32 1.92 -0.14 c 0.23 0.07 0.55 0.13 0.72 0.14 c 0.25 0.01 0.3 -0.01 0.3 -0.14 c 0 -0.18 -0.39 -0.46 -0.83 -0.59 c -1.07 -0.32 -2.91 0.13 -3.57 0.87 c -0.49 0.55 -0.59 0.99 -0.34 1.54 c 0.26 0.58 1.04 1.07 1.98 1.25 c 0.48 0.09 1.92 0.02 2.46 -0.12"/><path d="m 16.22 12.1 h 1.59 v 5.31 h -1.59"/><path d="m 19.32 13.1 h 1.52 v 5.3 h -1.52"/><path d="m 12.96 10 h 1.59 v 6.59 h -1.59"/><path d="m 22.1 9.57 h 1.52 v 3.56 h -1.52"/></g></svg>