<svg xmlns="http://www.w3.org/2000/svg" viewBox="0 0 32 32"><path d="m 6.6 28.89 c 24.1 15.96 38.88 -34.95 7.77 -28.2 c -12.85 2.87 -20.65 20.89 -7.77 28.2" style="fill:#66cdaa"/><path d="m 9.97 15.25 c 0 -0.56 1.08 -9.72 1.18 -9.98 c 0.1 -0.28 0.14 -0.3 0.54 -0.25 c 3.94 0.23 7 0.52 10.82 1.15 c -0.24 2.65 -0.42 4.14 -0.75 8.77 l -0.05 0.25 c -1.39 0.07 -10.89 0.11 -11.73 0.05" style="fill:#fff"/><path d="m 14.17 14.73 c -0.5 -0.09 -0.68 -0.46 -0.8 -0.71 c -0.32 -0.63 -0.64 -1.45 0.97 -1.73 c 0.27 -0.05 0.24 -0.15 0.28 -0.47 c 0.08 -0.63 0.08 -0.64 0.34 -0.91 c 0.53 -0.56 1.26 -0.63 1.84 -0.19 c 0.27 0.2 0.41 0.51 0.44 0.93 c 0.04 0.33 -0.05 0.48 -0.18 0.74 c 0 0.01 0.2 0.17 0.45 0.34 c 1.99 0.33 0.41 3.47 -1.14 1.84 l 0.21 1.81 c 0.07 0.58 -1.95 0.32 -1.63 -0.28 c 0.63 -1.18 0.15 -1.58 0.06 -1.61"/><path d="m 18.83 9.59 c -0.15 -0.05 -0.39 -0.24 -0.47 -0.37 c -0.19 -0.33 -0.38 -0.76 0.57 -0.91 c 0.16 -0.02 0.14 -0.08 0.16 -0.24 c 0.05 -0.33 0.05 -0.34 0.2 -0.48 c 0.31 -0.29 0.74 -0.33 1.08 -0.1 c 0.16 0.11 0.24 0.26 0.26 0.48 c 0.02 0.18 -0.03 0.25 -0.11 0.39 c 0 0.01 0.12 0.09 0.26 0.18 c 1.17 0.18 0.24 1.81 -0.66 0.96 l 0.13 0.95 c 0.04 0.3 -1.14 0.17 -0.96 -0.14 c 0.37 -0.62 0.09 -0.83 0.04 -0.84"/><path d="m 15.43 29.1 c -0.47 -0.17 -1.35 -0.55 -3.09 -1.32 c -0.85 -0.38 -1.96 -0.87 -2.48 -1.09 c -0.52 -0.22 -1.05 -0.48 -1.19 -0.57 l -0.26 -0.17 v -10.59 l 0.18 -0.08 c 0.17 -0.07 0.82 -0.08 7.2 -0.08 c 5.83 0 7.1 0.01 7.25 0.06 l 0.23 0.07 v 3.79 c 0 2.09 -0.02 4.49 -0.03 5.34 l -0.04 1.55 l -0.67 0.32 c -0.69 0.33 -4.68 2.11 -5.5 2.45 c -0.58 0.24 -1.12 0.43 -1.22 0.43 c -0.04 0 -0.22 -0.05 -0.4 -0.11" style="fill:#698e5c"/><path d="m 13.41 9.65 c -0.06 -0.02 -0.18 -0.17 -0.27 -0.32 c -0.27 -0.49 -0.63 -0.54 -0.86 -0.13 c -0.12 0.21 -0.36 0.34 -0.57 0.31 c -0.13 -0.02 -0.14 -0.05 -0.13 -0.32 c 0 -0.24 0.08 -0.46 0.39 -1.13 c 0.21 -0.46 0.47 -0.93 0.57 -1.05 c 0.19 -0.24 0.47 -0.34 0.66 -0.24 c 0.13 0.07 0.42 1 0.59 1.87 c 0.16 0.83 0.15 0.92 -0.07 1 c -0.1 0.04 -0.19 0.07 -0.19 0.06 c 0 0 -0.06 -0.03 -0.13 -0.05 m -0.41 -1.29 c 0.09 -0.39 -0.13 -0.75 -0.3 -0.5 c -0.11 0.16 -0.11 0.41 0 0.58 c 0.11 0.16 0.25 0.13 0.3 -0.08"/><g transform="scale(0.125)" style="fill:none;stroke:#fff"><path d="m 77.2 133.9 l 98.9 -0.56" style="stroke-dasharray:5.82237 5.82237;stroke-width:5.82"/><g style="stroke-dasharray:5.5818 5.5818;stroke-width:5.58"><path d="m 173.3 142 l 0.81 63.75"/><path d="m 79.8 143.1 l 0.81 63.75"/></g></g></svg>