<svg xmlns="http://www.w3.org/2000/svg" viewBox="0 0 32 32"><defs><clipPath id="0"><path d="m 8 10 h 11 v 10 h -11"/></clipPath><clipPath id="1"><path d="m 4.22 4.86 h 18.59 c 1.08 0 1.96 0.81 1.96 1.8 v 17.2 c 0 1 -0.88 1.8 -1.96 1.8 h -18.59 c -1.08 0 -1.96 -0.81 -1.96 -1.8 v -17.2 c 0 -1 0.88 -1.8 1.96 -1.8"/></clipPath></defs><path d="m 16.3 31.82 c -3.3 -0.25 -7.16 -1.83 -9.85 -4 c -3.27 -2.66 -5.68 -6.75 -6.31 -10.78 c -0.77 -5.32 2.32 -11 5.81 -13.75 c 1.75 -1.32 4.07 -2.37 6.25 -2.83 c 5.66 -1.2 11.57 1.07 15.63 6 c 2.43 2.95 3.68 5.93 3.99 9.45 c 0.37 4.22 -1.3 8.75 -4.35 11.8 c -3.47 2.88 -7 4.43 -11.15 4.14" style="fill:#ababb1"/><g style="clip-path:url(#0)"><g style="clip-path:url(#1)"><path d="m 18.4 10.28 c 0 3.18 0 6.27 0 9 c -3.43 0 -6.81 0 -9.78 0 c 0 -3.18 0 -6.27 0 -9 c 3.39 0 6.87 0 9.78 0 m -0.98 0.9 h -4.4 v 1.8 h 4.4 m -5.38 -1.8 h -2.45 v 1.8 h 2.45 m 5.38 0.9 h -4.4 v 1.8 h 4.4 m -5.38 -1.8 h -2.45 v 1.8 h 2.45 m 5.38 0.9 h -4.4 v 1.81 h 4.4 m -5.38 -1.81 h -2.45 v 1.81 h 2.45" style="fill:#fff"/></g></g><path d="m 16.58 23.57 c -0.08 -0.05 -0.07 -0.97 -0.05 -3.92 c 0.02 -3.17 0.04 -3.71 0.13 -3.78 c 0.19 -0.14 4.33 -0.2 4.72 -0.05 c 0.78 0.3 1.21 1.08 1.21 1.99 c 0 0.97 -0.38 1.55 -1.32 2 c -0.32 0.19 -0.12 0.28 0.09 0.6 c 0.39 0.26 0.45 0.36 1.09 1.6 c 0.54 1.05 0.66 1.34 0.57 1.4 c -0.71 0.11 -1.25 0.07 -2 0.07 l -0.65 -1.3 c -0.88 -1.76 -0.86 -1.75 -1.41 -1.75 h -0.45 l -0.02 1.47 l -0.02 1.59 c -0.64 0.13 -1.28 0.08 -1.9 0.08 m 3.71 -4.86 c 0.38 -0.23 0.38 -0.85 0.09 -1.23 c -0.54 -0.41 -1.85 -0.29 -1.85 -0.14 l -0.02 1 c -0.01 0.63 0.02 0.69 0.93 0.64 c 0.39 -0.02 0.63 -0.14 0.86 -0.27" style="fill:#1f64b7"/></svg>