<svg xmlns="http://www.w3.org/2000/svg" viewBox="0 0 32 32"><path d="m 1.33 19.1 c 3.19 21.1 35.96 13.88 29.76 -6.52 c -4.16 -19.38 -37.7 -14.1 -29.76 6.52" style="fill:#db2a2a"/><g style="fill:#fff"><path d="m 8.28 22.75 c 0 -0.12 1.61 -2.91 2.97 -5.16 c 0.48 -0.79 0.93 -1.43 1 -1.43 c 0.07 0 0.74 0.54 1.48 1.2 c 0.74 0.66 1.55 1.29 1.81 1.39 c 0.56 0.22 0.95 0 2.72 -1.55 c 0.68 -0.59 1.31 -1.01 1.42 -0.95 c 0.11 0.07 0.83 1.21 1.61 2.53 c 0.78 1.32 1.62 2.73 1.87 3.13 l 0.46 0.71 l -0.73 0.12 c -0.91 0.15 -14.61 0.16 -14.61 0.02"/><path d="m 7.49 16.65 c 0 -2.44 0.05 -4.43 0.12 -4.43 c 0.18 0 3.12 2.55 3.29 2.87 c 0.11 0.19 -0.13 0.76 -0.71 1.71 c -0.48 0.79 -1.24 2.07 -1.7 2.86 c -0.46 0.79 -0.87 1.43 -0.92 1.43 c -0.05 0 -0.09 -1.99 -0.09 -4.43"/><path d="m 13.46 15.52 c -1.18 -1 -2.75 -2.31 -3.48 -2.9 c -1.23 -1 -1.3 -1.09 -0.88 -1.21 c 0.59 -0.17 12.68 -0.16 13.45 0 c 0.55 0.12 0.48 0.2 -2.36 2.59 c -3.61 3.04 -4 3.34 -4.33 3.34 c -0.14 0 -1.21 -0.82 -2.39 -1.82"/><path d="m 23.66 20.27 c -0.26 -0.47 -0.99 -1.72 -1.63 -2.77 c -0.63 -1.05 -1.15 -2.04 -1.15 -2.19 c 0 -0.15 0.71 -0.92 1.59 -1.71 c 1.25 -1.13 1.63 -1.38 1.77 -1.16 c 0.2 0.32 0.21 7.52 0.01 8.23 c -0.12 0.43 -0.16 0.41 -0.6 -0.39"/></g></svg>