<svg xmlns="http://www.w3.org/2000/svg" viewBox="0 0 32 32"><path d="m 24.57 27.31 c 29.2 -33.1 -39.2 -37.79 -21.29 -4 c 4.09 7.7 13.55 12.79 21.29 4" style="fill:#eaf3ff"/><path d="m 15.27 27.91 c -0.38 -0.18 -0.5 -0.57 -0.68 -2.13 c -0.54 -4.76 -3.07 -8.59 -7.32 -11.1 c -1.06 -0.62 -1.23 -0.89 -2.16 -3.46 c -0.87 -2.39 -1.1 -3.14 -1.22 -3.99 c -0.29 -1.19 1.19 -0.17 1.52 -0.09 c 0.69 0.11 2.97 0.89 4.46 1.52 c 1.25 0.53 1.54 0.55 2.43 0.2 c 1.97 -0.78 4.9 -0.83 7.11 -0.12 l 1.31 0.42 l 1.3 -0.54 c 1.36 -0.57 3.47 -1.31 4.41 -1.55 c 0.88 -0.28 1.51 -0.77 1.47 0.16 c -0.07 1.44 -2.05 6.34 -2.74 7.08 c -0.14 0.15 -0.56 0.41 -0.92 0.56 c -1.02 0.44 -2.09 1.27 -3.34 2.59 c -2.26 2.39 -3.39 4.94 -3.82 8.59 c -0.15 1.29 -0.22 1.57 -0.46 1.76 c -0.3 0.25 -0.93 0.28 -1.36 0.07" style="fill:#5d9ad7"/><g style="fill:#635462"><path d="m 11.21 22.2 c -0.32 -0.3 -0.82 -0.7 -1.09 -0.89 c -0.91 -0.62 -1.08 -0.88 -0.72 -1.08 c 0.53 -0.28 1.38 0.09 2.29 1.02 c 0.91 0.93 1.06 1.51 0.38 1.5 c -0.2 0 -0.39 -0.13 -0.85 -0.55"/><path d="m 19.21 22.38 c 0.08 -0.31 0.57 -0.95 1.06 -1.4 c 1.05 -0.94 2.4 -1.14 2.14 -0.3 c -0.03 0.09 -0.29 0.3 -0.57 0.48 c -0.29 0.17 -0.82 0.59 -1.2 0.92 c -0.58 0.51 -0.96 0.8 -1.07 0.8 c -0.22 -0.11 -0.41 -0.29 -0.36 -0.49"/><path d="m 15.43 28.1 c -0.69 -0.45 -0.89 -1.07 -0.66 -1.81 c 0.05 -0.03 0.52 -0.06 1.06 -0.07 c 1.2 -0.02 1.28 0.02 1.21 0.66 c -0.11 1.11 -0.79 1.61 -1.61 1.22"/><path d="m 6.62 12.4 c -0.42 -0.89 -1.27 -2.95 -1.3 -3.77 c 0 -0.31 -0.1 -0.19 0.27 -0.13 c 0.61 0.16 3.55 0.82 3.59 1.25 c -0.6 0.86 -1.21 1.53 -1.91 2.39 c -0.36 0.45 -0.44 0.48 -0.64 0.26"/><path d="m 24.46 12.49 c -0.12 -0.39 -1.8 -2.27 -2.03 -2.27 c -0.21 -0.77 2 -1.07 2.77 -1.52 c 0.45 -0.08 1.21 -0.51 1.13 0.21 c -0.32 1.06 -0.68 2.77 -1.24 3.48 c -0.26 0.3 -0.55 0.36 -0.63 0.11"/></g></svg>