<svg xmlns="http://www.w3.org/2000/svg" viewBox="0 0 32 32"><path d="m 4.25 6.91 c -19.95 34.67 45.9 31.95 22.9 -1.4 c -4.61 -6.68 -17.53 -7.96 -22.9 1.4" style="fill:#2f4e4e"/><path d="m 17.93 11.86 c -0.41 -0.07 -0.9 -0.16 -1.08 -0.19 l -0.33 -0.05 v -1.27 c 0 -1.43 0.13 -3.3 0.22 -3.39 c 0.1 -0.1 1.91 0.13 2.89 0.37 c 1.09 0.27 1.06 0.04 0.23 2.2 c -0.31 0.8 -0.63 1.69 -0.72 1.98 c -0.11 0.34 -0.21 0.52 -0.31 0.52 c -0.09 0 -0.49 -0.07 -0.91 -0.15" style="fill:#ff0"/><path d="m 3.73 20.31 c -0.2 -0.04 -0.21 -0.09 -0.21 -0.87 c 0 -1.69 0.71 -4.19 1.67 -5.87 c 1.24 -2.17 3.43 -4.23 5.63 -5.29 c 0.54 -0.26 0.73 -0.32 0.83 -0.23 c 0.29 0.24 1.8 3.86 1.71 4.1 c -0.02 0.07 -0.39 0.32 -0.8 0.57 c -1.09 0.64 -1.78 1.23 -2.5 2.13 c -1 1.25 -1.54 2.52 -1.88 4.53 c -0.08 0.46 -0.17 0.86 -0.2 0.89 c -0.07 0.06 -3.95 0.1 -4.25 0.04" style="fill:#d25345"/><path d="m 13.82 11.7 c -0.32 -0.5 -1.55 -3.55 -1.55 -3.86 c 0 -0.19 0.29 -0.3 1.36 -0.53 c 0.66 -0.14 2.25 -0.37 2.59 -0.37 c 0.03 0 0.04 0.3 0.03 0.68 c -0.02 0.38 -0.06 1.43 -0.09 2.34 l -0.06 1.66 l -0.7 0.15 c -1 0.22 -1.41 0.2 -1.58 -0.07" style="fill:#ff8c00"/><path d="m 24.64 20.1 c -0.03 -0.22 -0.07 -0.61 -0.11 -0.87 c -0.1 -0.82 -0.42 -1.85 -0.95 -3 c -0.42 -0.94 -0.51 -1.23 -0.51 -1.66 v -0.53 l -0.35 -0.05 c -0.63 -0.09 -0.96 -0.24 -2.24 -0.98 l -1.25 -0.73 l 0.31 -0.89 c 0.39 -1.1 1.03 -2.71 1.29 -3.21 c 0.22 -0.44 0.23 -0.44 1.43 0.19 c 1.73 0.9 3.66 2.6 4.75 4.18 c 1.3 1.88 2.15 4.46 2.32 7 l 0.06 0.92 h -4.71" style="fill:#6f922f"/><g style="fill:#fff"><path d="m 13.43 20.34 c -0.17 -0.3 0.1 -1.32 0.84 -3.22 c 0.18 -0.45 0.32 -0.83 0.32 -0.86 c 0 -0.02 -0.27 -0.06 -0.59 -0.07 c -0.42 -0.02 -0.69 -0.08 -0.9 -0.18 c -0.33 -0.17 -0.46 -0.39 -0.3 -0.55 c 0.15 -0.14 0.79 -0.24 1.54 -0.24 c 0.83 0 1.25 0.08 1.44 0.27 l 0.15 0.14 l -0.16 0.46 c -0.22 0.66 -1.26 2.99 -1.66 3.73 c -0.36 0.65 -0.52 0.79 -0.67 0.52"/><path d="m 17.1 20.39 c -0.68 -0.16 -0.6 -0.45 0.58 -2.04 c 0.8 -1.09 0.92 -1.25 1.09 -1.61 c 0.13 -0.28 0.13 -0.3 0.04 -0.47 c -0.14 -0.23 -0.5 -0.39 -0.75 -0.33 c -0.11 0.02 -0.35 0.13 -0.53 0.24 c -0.56 0.34 -0.9 0.22 -0.69 -0.25 c 0.19 -0.42 0.94 -0.86 1.47 -0.86 c 0.45 0 1.03 0.34 1.26 0.75 c 0.32 0.56 0.09 1.37 -0.73 2.49 c -0.64 0.89 -0.73 1.04 -0.63 1.11 c 0.05 0.03 0.26 0.08 0.47 0.1 c 0.46 0.06 0.66 0.13 0.85 0.32 c 0.2 0.2 0.18 0.38 -0.03 0.47 c -0.22 0.09 -2.07 0.14 -2.39 0.07"/></g></svg>