<svg xmlns="http://www.w3.org/2000/svg" viewBox="0 0 32 32"><path d="m 15.95 31.89 c -21.1 2.4 -20.81 -31.99 0.38 -31.59 c 19.71 -1.14 21.48 33.45 -0.38 31.59" style="fill:#f27f1c"/><path d="m 12.46 24.7 c -0.71 -0.07 -0.73 -0.2 -0.11 -0.83 l 0.56 -0.57 h 6.24 l 0.56 0.57 c 0.31 0.31 0.54 0.63 0.52 0.71 c -0.04 0.12 -0.82 0.15 -3.68 0.16 c -2 0 -3.83 -0.01 -4.08 -0.04 m 7.72 -1.32 l -0.62 -0.63 v -5 l 0.59 -0.55 l 0.59 -0.55 l -0.59 -0.63 l -0.59 -0.63 v -4.96 l 0.58 -0.58 c 0.94 -0.95 0.9 -1.28 0.9 6.92 c 0 4.84 -0.04 7.09 -0.12 7.14 c -0.07 0.04 -0.4 -0.21 -0.74 -0.55 m -9.1 0.31 c -0.09 -0.23 -0.09 -13.84 0 -14.1 c 0.11 -0.29 0.3 -0.2 0.87 0.38 l 0.54 0.55 v 5.06 l -0.59 0.52 l -0.6 0.52 l 0.6 0.61 l 0.59 0.61 v 5.06 l -0.54 0.47 c -0.58 0.5 -0.76 0.56 -0.86 0.29 m 1.38 -6.54 c -0.5 -0.36 -0.53 -0.59 -0.15 -0.95 c 0.27 -0.26 0.29 -0.26 3.66 -0.25 l 3.39 0.02 l 0.32 0.3 c 0.4 0.38 0.39 0.51 -0.04 0.88 l -0.35 0.29 h -6.41 m 0 -7.53 c -0.44 -0.27 -1.1 -1.03 -1.02 -1.17 c 0.09 -0.15 8.2 -0.14 8.3 0.01 c 0.04 0.06 -0.2 0.4 -0.52 0.74 l -0.59 0.63 h -2.91 c -2.62 0 -2.95 -0.02 -3.25 -0.21" style="fill:#3d3d3d"/></svg>