<svg xmlns="http://www.w3.org/2000/svg" viewBox="0 0 32 32"><path d="m 31.86 16.85 c -0.49 -11.38 -8.2 -19.95 -18.89 -15.21 c -7.34 3.25 -14.31 6.81 -12.56 15.21 c 1.75 8.4 10.21 15.21 18.89 15.21 c 8.69 0 12.93 -6.91 12.56 -15.21" style="fill:#b8b0a5"/><path d="m 7.17 16.93 c -0.26 -0.2 -0.83 -0.5 -1.45 -0.74 c -1 -0.39 -1.42 -0.66 -1.42 -0.93 c 0 -0.25 0.41 -0.96 0.73 -1.23 c 0.47 -0.42 1.02 -0.65 2.2 -0.96 c 0.79 -0.2 1.81 -0.3 2.04 -0.26 c 2.03 0.65 0.87 0.98 1.17 1.59 c -0.13 0.96 -1.71 3.13 -3.27 2.53" style="fill:#ab380a"/><path d="m 28.51 24.1 c -1 -0.84 -3.73 -2.2 -5.19 -2.58 c -0.86 -0.23 -1.22 -0.41 -1.22 -0.62 c 0 -0.16 -0.2 -0.71 -0.43 -1.23 c -0.46 -1.01 -1.21 -1.6 -2.28 -1.79 c -0.71 -0.13 -3 0.53 -5.62 1.6 c -2.48 1.02 -2.25 1.05 -3.88 -0.47 c -0.79 -0.73 -1.65 -1.5 -1.9 -1.7 c -0.82 -0.66 -0.79 -0.75 0.73 -1.66 c 1.44 -0.86 1.59 -1.04 1.28 -1.52 c -0.16 -0.25 -0.88 -0.04 -2.47 0.27 c -0.48 0.09 -0.31 -0.4 -0.01 -0.61 c 1.54 -1.08 1.7 -0.98 2.33 -2.29 c 0.36 -0.75 0.85 -1.49 1.07 -1.64 c 0.7 -0.46 1.48 -1.27 1.96 -1.15 c 0.29 0.07 0.52 0.57 1.3 -0.13 c 0.31 -0.28 0.91 -0.71 1.29 -0.56 c 0.67 0.26 1.47 1.01 2.63 0.71 c 1.1 -0.29 1.39 -0.23 1.55 0.29 c -0.54 2.11 -0.27 2.08 2.16 2.32 l 1.1 1.19 c 1.4 1.51 2.03 2.73 2.96 5.73 c 0.7 2.27 0.79 2.45 1.54 3.07 c 1.76 1.46 2.09 1.86 2.09 2.54 c 0 0.35 -0.07 0.68 -0.14 0.73 c -0.07 0.05 -0.46 -0.18 -0.86 -0.51" style="fill:#161711"/><g style="fill:#ffd600"><path d="m 11.96 12.89 c -0.09 -0.09 0.36 -0.44 0.77 -0.59 c 0.2 -0.07 0.85 -0.32 1.44 -0.54 c 0.82 -0.3 1.23 -0.41 1.74 -0.44 c 0.56 -0.04 0.67 -0.02 0.71 0.1 c 0.11 0.28 -0.22 0.56 -1.3 1.1 c -0.64 0.44 -1.17 0.54 -1.91 0.55 c -0.49 -0.01 -1.01 0.04 -1.46 -0.18"/><path d="m 17.64 10.32 c -0.14 -0.03 0.16 -0.58 0.51 -0.94 c 0.18 -0.18 0.73 -0.74 1.23 -1.26 c 0.7 -0.71 1.07 -1.03 1.57 -1.34 c 0.56 -0.34 0.68 -0.38 0.78 -0.3 c 0.25 0.19 0.04 0.62 -0.82 1.68 c -0.77 1.03 -2.08 2.05 -3.28 2.16"/><path d="m 18.24 11.1 c -0.17 -0.06 0.34 -0.67 0.86 -1.04 c 0.26 -0.18 1.08 -0.77 1.83 -1.31 c 1.04 -0.75 1.58 -1.06 2.28 -1.35 c 0.78 -0.32 0.94 -0.36 1.05 -0.25 c 0.27 0.26 -0.09 0.73 -1.41 1.86 c -0.73 0.8 -1.45 1.18 -2.48 1.56 c -0.7 0.23 -1.41 0.55 -2.13 0.52"/><path d="m 18.52 11.53 c -0.13 -0.09 0.49 -0.44 1.05 -0.59 c 0.27 -0.07 1.16 -0.32 1.96 -0.54 c 1.11 -0.3 1.67 -0.41 2.36 -0.44 c 0.76 -0.04 0.91 -0.02 0.97 0.1 c 0.15 0.28 -0.3 0.56 -1.77 1.1 c -0.87 0.44 -1.59 0.54 -2.59 0.55 c -0.67 -0.01 -1.38 0.04 -1.98 -0.18"/></g><path d="m 16.37 31.77 c -0.49 -0.09 -1.47 -0.34 -2.17 -0.55 c -0.97 -0.3 -1.3 -0.49 -1.4 -0.81 c -0.07 -0.23 -0.31 -0.63 -0.54 -0.89 c -1.12 -1.26 -1.77 -5.54 -1.13 -7.38 c 0.31 -0.89 0.57 -1.08 2.77 -2.06 c 2.86 -1.28 5.06 -2 5.61 -1.87 c 0.75 0.19 1.49 1.11 1.74 2.15 c 0.12 0.51 0.32 1 0.43 1.1 c 0.12 0.1 0.8 0.35 1.53 0.57 c 2.64 0.79 5.15 2.41 6 3.88 l 0.34 0.59 l -0.81 1.04 c -1.42 1.82 -3.37 3.14 -5.74 3.9 c -1.28 0.41 -5.19 0.61 -6.66 0.34" style="fill:#fff"/><path d="m 16.79 13.64 c 0.09 0.37 -0.28 0.78 -0.83 0.91 c -0.55 0.14 -1.07 -0.05 -1.17 -0.41 c -0.09 -0.37 0.28 -0.78 0.84 -0.92 c 0.55 -0.14 1.07 0.05 1.16 0.42" style="fill:#f00"/></svg>