<svg xmlns="http://www.w3.org/2000/svg" viewBox="0 0 32 32"><path d="m 7.51 28.94 c 31.8 17.41 33.3 -46.2 0.52 -24.3 c -8.44 5.77 -12.55 19.61 -0.52 24.3" style="fill:#e4e4e4"/><path d="m 27.83 9.77 c 0 0 -2.77 1.07 -8.66 4.96 c -1.24 0.82 -2.36 1.64 -3.36 2.41 c -2.65 1.91 -4.71 3.69 -4.71 3.69 c 0 0 0.46 0.32 0.86 0.5 c 3 1.35 7.33 2 8.14 1.63 c 2.21 -1.03 4.45 -6.95 5.11 -9.65 c 0 0 -2.31 1.29 -4.64 2.8 c -2.86 1.86 -5.85 4 -5.85 4 l 7.24 -3.61 c 0 0 -1.27 4.27 -3.19 4.87 c -1.93 0.6 -5.49 -0.83 -5.49 -0.83 c 0 0 3.68 -3.22 12.37 -8.19 c 0.13 -0.07 0.28 -0.31 0.4 -0.58 c 0.39 -0.19 0.78 -0.41 1.17 -0.58 c 0.27 -0.16 0.61 -0.95 0.61 -1.41 v -0.02 c 0 0 0 -0.01 0 -0.02" style="fill:#e53835"/><path d="m 23.64 10 c -1.27 0 -3.3 0.2 -5.76 1.13 c -1.51 0.57 -3.74 4.19 -7.81 8.13 c -0.49 0.47 -2.06 -1.21 -3.4 -1.54 c 0 0 0.24 0.21 0.38 0.52 c 0.47 1.09 1.24 2.77 1.91 3.86 c 1.03 1.68 2.89 2.66 2.89 2.66 c 0 0 -1.41 -1.79 -1.84 -2.78 c -0.22 -0.51 0.05 -1.19 1.87 -2.81 c 1.64 -1.46 7.56 -7.46 13.22 -9.1 c 0 0 -0.52 -0.11 -1.45 -0.11 m -19.77 5.56 c 0 0 0.38 2.18 0.91 3.3 c 0.53 1.12 3.21 2.34 3.21 2.34 c -1.39 -1.56 -4.12 -5.64 -4.12 -5.64" style="fill:#3e3e3e"/></svg>