<svg xmlns="http://www.w3.org/2000/svg" viewBox="0 0 32 32"><path d="m 22.3 31.79 c -45.2 3.13 -10.99 -57.7 8.22 -17.92 c 2.65 6.13 2.32 16.32 -5.55 17.54" style="fill:#d41919"/><g style="fill:#fff"><path d="m 8.66 16.19 v -1.05 l -0.48 -0.07 c -0.77 -0.11 -0.93 -0.22 -0.93 -0.64 c 0 -0.49 0.17 -0.63 0.84 -0.71 l 0.56 -0.07 v -2.16 l -0.58 -0.08 c -0.7 -0.09 -0.82 -0.2 -0.82 -0.67 c 0 -0.47 0.13 -0.57 0.82 -0.67 c 0.67 -0.09 0.66 -0.07 0.7 -1.47 l 0.03 -0.91 l -1.5 -0.06 l -0.03 -0.43 c -0.02 -0.23 0.02 -0.48 0.08 -0.55 c 0.06 -0.07 0.39 -0.15 0.73 -0.18 l 0.62 -0.05 l 0.03 -0.8 l 0.03 -0.81 h -2.11 v 0.44 c 0 0.55 -0.18 0.67 -0.95 0.67 h -0.55 v 2.44 l 0.73 0.03 l 0.72 0.04 l 0.03 0.43 c 0.02 0.24 -0.02 0.48 -0.08 0.55 c -0.06 0.07 -0.37 0.15 -0.68 0.18 l -0.57 0.06 v 2.22 l 0.55 0.05 c 0.3 0.03 0.61 0.1 0.68 0.14 c 0.15 0.11 0.17 0.93 0.02 1.03 c -0.06 0.04 -0.38 0.1 -0.7 0.13 l -0.59 0.06 v 2.18 l 0.47 0.07 c 0.89 0.13 1.02 0.31 1.02 1.35 v 0.38 h 1.9 v -1.05"/><path d="m 6.27 25.48 c -0.11 -0.12 -0.16 -0.4 -0.16 -1.04 c -0.01 -1.22 -0.13 -2.13 -0.28 -2.18 c -0.07 -0.03 -0.21 -0.14 -0.31 -0.25 c -0.16 -0.18 -0.18 -0.37 -0.18 -1.61 c 0 -0.77 0.03 -1.59 0.06 -1.81 l 0.06 -0.4 h 1.65 c 1.63 0 1.64 0 1.71 0.24 c 0.03 0.13 0.06 0.95 0.06 1.81 c 0 1.39 -0.02 1.59 -0.18 1.77 c -0.1 0.11 -0.24 0.22 -0.3 0.24 c -0.18 0.07 -0.29 0.86 -0.29 2.13 v 1.13 l -0.31 0.07 c -0.58 0.13 -1.34 0.08 -1.5 -0.1 m 1.17 -4.79 c 0.11 -0.05 0.16 -0.2 0.16 -0.53 c 0 -0.41 -0.03 -0.47 -0.25 -0.53 c -0.13 -0.04 -0.36 -0.04 -0.49 0 c -0.21 0.05 -0.25 0.13 -0.25 0.47 c 0 0.22 0.05 0.46 0.12 0.53 c 0.13 0.14 0.46 0.17 0.71 0.07"/><path d="m 11.93 24.6 c -0.1 -0.08 -0.12 -0.15 -0.14 -0.46 c -0.02 -0.43 0.08 -1.12 0.25 -1.32 c 0.23 -0.27 0.78 -0.18 0.74 0.32 c -0.04 0.57 0.07 0.98 -0.11 1.44 c -0.09 0.23 -0.57 0.17 -0.75 0.03"/><path d="m 13 21.2 c -0.45 -0.13 -0.35 -0.71 0.28 -1.56 c 0.29 -0.39 1.47 -1.54 1.84 -1.77 c 0.16 -0.11 0.35 -0.19 0.43 -0.19 c 0.18 0 0.52 0.35 0.52 0.52 c 0 0.17 -0.22 0.44 -0.81 1 c -0.64 0.59 -1.01 1 -1.25 1.37 c -0.23 0.36 -0.41 0.54 -0.61 0.63 c -0.18 0.07 -0.18 0.07 -0.39 0.02"/><path d="m 25.64 24.71 c -0.12 -1.91 -0.3 -2.7 -0.87 -3.72 c -0.7 -1.25 -2.07 -2.4 -3.31 -2.77 c -0.91 -0.27 -2.32 -0.5 -3.11 -0.5 c -0.64 0 -0.69 -0.03 -0.7 -0.41 c -0.01 -0.35 0.06 -0.43 0.43 -0.48 c 0.77 -0.11 2.71 -0.01 3.3 0.16 c 1.77 0.52 3.66 2.11 4.54 3.8 c 0.48 0.93 0.82 2.31 0.82 3.35 c 0 0.73 -0.08 1.52 -0.39 1.31 c -0.62 0.02 -0.68 -0.23 -0.71 -0.74"/><path d="m 10.23 26.52 c -0.56 -1.99 -0.17 -4.54 0.61 -6.12 c 1.06 -2.14 2.45 -3.54 4.56 -4.56 c 1.97 -0.82 3.74 -1.18 5.95 -0.73 c 0.49 0.11 1.2 0.35 1.68 0.56 c 2.89 1.29 4.78 3.58 5.48 6.62 c 0.38 1.65 0.04 3.98 -0.57 4.32 c -0.33 0.04 -0.54 -0.09 -0.73 -0.34 c 0.17 -0.58 0.34 -2.95 0.2 -3.66 c -0.32 -1.55 -1.18 -3.09 -2.34 -4.22 c -1.05 -1.02 -2.26 -1.69 -3.78 -2.09 c -1.74 -0.47 -3.35 -0.32 -5.25 0.48 c -2.04 0.86 -3.63 2.56 -4.44 4.75 c -0.77 1.53 -0.28 5.35 -0.47 5.27 c -0.27 0.15 -0.75 -0.01 -0.91 -0.26"/><path d="m 26.3 27.48 c -0.61 -0.17 -1.11 -0.33 -2.88 -0.96 c -1.6 -0.56 -2.18 -0.75 -2.55 -0.8 c -0.24 -0.04 -0.3 -0.03 -0.64 0.12 c -0.48 0.21 -0.82 0.27 -1.27 0.22 c -0.64 -0.07 -1.13 -0.41 -1.37 -0.96 c -0.18 -0.41 -0.16 -0.96 0.05 -1.34 c 0.21 -0.37 0.36 -0.5 0.81 -0.7 c 0.52 -0.2 1 -0.26 1.48 -0.04 c 0.34 0.17 0.64 0.48 0.85 0.89 c 0.22 0.41 0.41 0.58 1.02 0.86 c 0.85 0.39 4.78 1.81 5 1.82 c 0.49 0.34 0.36 0.8 0.04 1.04 c -0.21 -0.05 -0.39 -0.1 -0.56 -0.15 m -6.85 -2.5 c 0.23 -0.13 0.29 -0.68 0.1 -0.92 c -0.11 -0.15 -0.6 -0.21 -0.79 -0.09 c -0.27 0.16 -0.3 0.53 -0.06 0.82 c 0.23 0.29 0.47 0.35 0.75 0.19"/></g></svg>