<svg xmlns="http://www.w3.org/2000/svg" viewBox="0 0 32 32"><path d="m 0.41 19.66 c 6.25 29.99 49.2 -2.21 23.41 -17.45 c -10 -6.54 -26.63 2.02 -23.41 17.45" style="fill:#ec8719"/><path d="m 9.32 9.33 v 2.67 h 2.67 c 4.44 0 8 3.57 8 8 v 2.67 h 2.67 v -2.67 c 0 -5.92 -4.76 -10.68 -10.68 -10.68 h -2.67 m 0 5.34 v 2.67 h 2.67 c 1.48 0 2.67 1.19 2.67 2.67 v 2.67 h 2.67 v -2.67 c 0 -2.96 -2.38 -5.34 -5.34 -5.34 m -1.11 4.9 c -0.86 0 -1.56 0.69 -1.56 1.55 c 0 0.86 0.7 1.56 1.56 1.56 c 0.86 0 1.56 -0.7 1.56 -1.56 c 0 -0.86 -0.7 -1.55 -1.56 -1.55" style="fill:#464646"/></svg>