<svg xmlns="http://www.w3.org/2000/svg" viewBox="0 0 32 32"><path d="m 6.68 28.2 c 20.2 15.43 37.68 -21.1 13.57 -27.2 c -15.32 -5.99 -28.5 15.74 -13.57 27.2" style="fill:#121a1a"/><path d="m 12.71 9.11 l -1.88 3.26 l -0.41 -0.23 l -0.23 0.41 l -0.41 -0.23 l -0.47 0.81 l 0.41 0.23 l -0.23 0.41 l 0.41 0.23 l -1.88 3.26 l 1.63 0.94 l 1.88 -3.25 l 0.64 -0.17 l 0.47 -0.81 l -0.17 -0.64 l 1.88 -3.25 m 4.25 -0.94 l -1.63 0.94 l 1.88 3.25 l -0.17 0.64 l 0.47 0.81 l 0.64 0.17 l 1.88 3.25 l 1.63 -0.94 l -1.88 -3.26 l 0.41 -0.23 l -0.23 -0.41 l 0.4 -0.23 l -0.47 -0.81 l -0.4 0.23 l -0.23 -0.41 l -0.41 0.23" style="fill-opacity:0.1"/><path d="m 17.53 15.77 c 0 1.04 -0.84 1.88 -1.88 1.88 c -1.04 0 -1.88 -0.84 -1.88 -1.88 c 0 -1.04 0.84 -1.88 1.88 -1.88 c 1.04 0 1.88 0.84 1.88 1.88" style="fill:#5c68ad"/><path d="m 10.96 19.99 h 9.38 v 1.88 h -9.38" style="fill:#317581"/><path d="m 15.18 19.52 l -0.47 0.47 v 2.35 h 0.47 v 0.47 h 0.94 v -0.47 h 0.47 v -2.35 l -0.47 -0.47" style="fill:#d7c584"/><path d="m 12.37 19.99 v 1.88 h 0.47 v -1.88 m 1.41 0 v 1.88 h 0.47 v -1.88 m 1.88 0 v 1.88 h 0.47 v -1.88 m 1.41 0 v 1.88 h 0.47 v -1.88" style="fill-opacity:0.15"/><path d="m 14.34 9.58 l -4.69 8.14 l -1.62 -0.94 l 4.69 -8.14" style="fill:#317581"/><path d="m 12.64 13.48 l -0.17 -0.64 l -2.03 -1.18 l -0.23 0.41 l -0.4 -0.24 l -0.47 0.82 l 0.4 0.23 l -0.23 0.41 l 2.03 1.18 l 0.64 -0.17" style="fill:#d7c584"/><path d="m 13.64 10.8 l -1.63 -0.94 l -0.23 0.41 l 1.63 0.94 m -0.7 1.22 l -1.63 -0.94 l -0.23 0.41 l 1.63 0.94 m -0.94 1.63 l -1.63 -0.94 l -0.23 0.41 l 1.63 0.94 m -0.7 1.22 l -1.63 -0.94 l -0.23 0.41 l 1.63 0.94" style="fill-opacity:0.15"/><path d="m 21.65 17.72 l -4.69 -8.14 l 1.63 -0.94 l 4.69 8.14" style="fill:#317581"/><path d="m 19.1 14.29 l 0.64 0.17 l 2.03 -1.18 l -0.23 -0.41 l 0.41 -0.23 l -0.47 -0.82 l -0.41 0.24 l -0.23 -0.41 l -2.03 1.18 l -0.17 0.64" style="fill:#d7c584"/><path d="m 20.95 16.5 l 1.63 -0.94 l -0.23 -0.41 l -1.63 0.94 m -0.7 -1.22 l 1.63 -0.94 l -0.23 -0.41 l -1.63 0.94 m -0.94 -1.63 l 1.63 -0.94 l -0.23 -0.41 l -1.63 0.94 m -0.7 -1.22 l 1.63 -0.94 l -0.23 -0.41 l -1.63 0.94" style="fill-opacity:0.15"/><path d="m 15.65 11.54 c -0.52 0 -1.03 0.1 -1.52 0.29 l -0.42 0.72 c 0.58 -0.36 1.25 -0.54 1.93 -0.55 c 0.69 0 1.36 0.19 1.94 0.55 l -0.42 -0.73 c -0.48 -0.19 -1 -0.28 -1.52 -0.28 m -3.74 4.15 l -0.42 0.73 c 0.16 1.04 0.7 1.98 1.51 2.64 h 0.84 c -1.2 -0.66 -1.94 -1.92 -1.94 -3.29 c 0 -0.03 0 -0.05 0.01 -0.08 m 7.5 0.01 c 0 0.02 0 0.05 0 0.07 c 0 1.37 -0.75 2.63 -1.95 3.29 h 0.84 c 0.81 -0.66 1.36 -1.6 1.52 -2.64" style="fill:#f9f9f9;fill-opacity:0.9"/><g style="fill:#fff"><path d="m 15.56 6.5 l -0.32 -1.42 l -1.22 -0.35 l 1.21 -0.37 l 0.3 -1.43 l 0.32 1.42 l 1.22 0.35 l -1.21 0.37"/><path d="m 25.28 23.5 l -0.31 -1.36 l -1.17 -0.33 l 1.17 -0.36 l 0.29 -1.36 l 0.3 1.36 l 1.17 0.34 l -1.17 0.36"/><path d="m 6.64 23.7 l -0.32 -1.41 l -1.24 -0.34 l 1.23 -0.37 l 0.3 -1.41 l 0.32 1.41 l 1.24 0.34 l -1.23 0.37"/></g></svg>