<svg xmlns="http://www.w3.org/2000/svg" viewBox="0 0 32 32"><path d="m 16 0.18 c -21.42 -2.42 -21.26 32.2 0.25 31.8 c 20 1.14 21.96 -33.69 -0.25 -31.8" style="fill:#2a2afb"/><path d="m 14.99 23.67 l -0.63 -0.07 c -0.35 -0.04 -1.82 -0.13 -3.27 -0.21 c -3.14 -0.17 -4 -0.3 -3.74 -0.59 c 0.09 -0.09 2.61 -0.26 5.63 -0.38 l 2 -0.07 v -3.06 c 0 -1.65 -0.12 -3.45 0.01 -5.1 l -3.13 -0.09 c -3.86 -0.11 -5.19 -0.08 -4.91 -0.38 c 0.11 -0.11 4.94 -0.45 6.48 -0.45 c 0.85 0 1.55 -0.05 1.55 -0.11 c 0 -0.06 0.15 -1.28 0.25 -2.8 c 0.21 -3.25 0.29 -4.61 0.55 -5.55 c 0.11 -0.38 0.29 -1.09 0.3 -1.18 c 0.01 -0.42 0.09 0.26 0.27 1.02 c 0.39 1.75 0.27 3.96 0.61 7.38 l 0.13 1.3 l 3.36 0.08 c 3.27 0.07 4.44 0.16 4.56 0.36 c 0.13 0.23 -0.68 0.29 -4.2 0.35 c -2.64 0.04 -3.75 0.1 -3.81 0.2 c 0.06 3.08 0.07 5.18 0.21 7.98 l 2.16 0.09 c 3.9 0.16 6.1 0.3 6.15 0.4 c -0.4 0.38 -4.17 0.61 -4.8 0.64 c -1.84 0.1 -3.49 0.21 -3.55 0.26 c -0.1 1.62 0.2 6.59 0.2 8.15 c -0.92 0.41 -1.79 0.07 -2.51 0.07 c 0 -1.38 0.14 -6.89 0.14 -8.27" style="fill:#c8c1df"/><g style="fill:#f46670"><path d="m 3.86 14.75 h 24.2 c 0.05 0 0.1 0.04 0.1 0.09 v 0.99 c 0 0.05 -0.05 0.09 -0.1 0.09 h -24.2 c -0.05 0 -0.1 -0.04 -0.1 -0.09 v -0.99 c 0 -0.05 0.05 -0.09 0.1 -0.09"/><path d="m 3.88 11.6 h 24.2 c 0.06 0 0.1 0.04 0.1 0.09 v 0.99 c 0 0.05 -0.04 0.09 -0.1 0.09 h -24.2 c -0.06 0 -0.11 -0.04 -0.11 -0.09 v -0.99 c 0 -0.05 0.05 -0.09 0.11 -0.09"/><path d="m 4.88 11.85 v 3.76 c 0 0.06 -0.04 0.11 -0.09 0.11 h -0.94 c -0.05 0 -0.09 -0.05 -0.09 -0.11 v -3.76 c 0 -0.06 0.04 -0.11 0.09 -0.11 h 0.94 c 0.05 0 0.09 0.05 0.09 0.11"/><path d="m 28.1 11.89 v 3.69 c 0 0.06 -0.04 0.11 -0.09 0.11 h -0.94 c -0.05 0 -0.09 -0.05 -0.09 -0.11 v -3.69 c 0 -0.06 0.04 -0.11 0.09 -0.11 h 0.94 c 0.05 0 0.09 0.05 0.09 0.11"/></g></svg>