<svg xmlns="http://www.w3.org/2000/svg" viewBox="0 0 32 32"><path d="m 16.48 0.39 c -21 -2.4 -21.91 31.99 -0.7 31.58 c 19.67 1.13 22.63 -33.45 0.7 -31.58" style="fill:#801297"/><g style="fill:#f4f4f4"><path d="m 12.24 7.27 c -1.47 0 -2.69 1.29 -2.69 2.84 v 12.47 c 0 1.55 1.22 2.83 2.69 2.83 h 7.52 c 1.47 0 2.69 -1.29 2.69 -2.83 v -12.47 c 0 -1.55 -1.22 -2.84 -2.69 -2.84 m -7.52 2.27 h 7.52 c 0.32 0 0.54 0.23 0.54 0.57 v 11.34 c 0 0.33 -0.22 0.57 -0.54 0.57 h -7.52 c -0.32 0 -0.54 -0.23 -0.54 -0.57 v -11.34 c 0 -0.33 0.22 -0.57 0.54 -0.57"/><path d="m 11.17 10.67 c -0.3 0 -0.54 0.25 -0.54 0.57 v 6.8 c 0 0.32 0.24 0.57 0.54 0.57 h 1.07 c 0.3 0 0.54 -0.25 0.54 -0.57 v -6.8 c 0 -0.31 -0.24 -0.57 -0.54 -0.57 m 2.15 0 c -0.3 0 -0.54 0.25 -0.54 0.57 v 6.8 c 0 0.32 0.24 0.57 0.54 0.57 h 3.22 c 0.3 0 0.54 -0.25 0.54 -0.57 v -6.8 c 0 -0.31 -0.24 -0.57 -0.54 -0.57 m 2.15 0 c -0.3 0 -0.54 0.25 -0.54 0.57 v 6.8 c 0 0.32 0.24 0.57 0.54 0.57 h 1.07 c 0.3 0 0.54 -0.25 0.54 -0.57 v -6.8 c 0 -0.31 -0.24 -0.57 -0.54 -0.57 m -7.52 9.1 c -0.3 0 -0.54 0.25 -0.54 0.57 c 0 0.32 0.24 0.57 0.54 0.57 h 5.37 c 0.3 0 0.54 -0.25 0.54 -0.57 c 0 -0.31 -0.24 -0.57 -0.54 -0.57" style="fill-opacity:0.35"/></g></svg>