<svg xmlns="http://www.w3.org/2000/svg" viewBox="0 0 32 32"><path d="m 23.54 30.59 c 15.1 -6.3 8.34 -30.69 -8.1 -30.52 c -14.9 -0.25 -20.55 19.1 -9.94 27.65 c 4.59 4.25 12.2 5.74 18 2.89" style="fill:#86cefa"/><path d="m 9.72 25.39 c -2.26 -1.53 -4.06 -4.37 -4.6 -7.26 c -0.17 -0.89 -0.15 -2.98 0.04 -3.91 c 0.66 -3.38 2.77 -6.17 5.83 -7.71 c 1.62 -0.82 3.11 -1.16 4.99 -1.17 c 4.15 -0.01 7.83 2.21 9.9 5.95 c 0.88 1.59 1.23 2.98 1.23 4.91 c 0 2.49 -0.69 4.61 -2.16 6.61 c -0.92 1.25 -2.96 3 -3.33 2.86 c -0.18 -0.07 -1 -1.49 -1 -1.73 c 0.82 -0.93 1.97 -1.68 2.7 -2.73 c 1.09 -1.6 1.56 -3.14 1.56 -5 c 0 -1.43 -0.24 -2.49 -0.82 -3.68 c -1.07 -2.2 -3.48 -4.14 -5.94 -4.77 c -1.22 -0.32 -3.13 -0.31 -4.32 0.01 c -1.14 0.3 -2.36 0.93 -3.3 1.68 c -3.32 2.66 -4.23 7 -2.29 10.95 c 0.17 0.36 0.45 0.84 0.63 1.09 c 0.38 0.55 1.6 1.73 2.12 2.05 c 0.39 0.24 0.43 0.31 0.39 0.69 c -0.03 0.27 -0.74 1.5 -0.9 1.56 c -0.07 0.03 -0.4 -0.14 -0.73 -0.36 m 2.23 -3.84 c -1.52 -1.21 -2.58 -3.44 -2.58 -5.39 c 0 -1.5 0.82 -3.39 1.96 -4.53 c 2.59 -2.58 6.72 -2.56 9.34 0.05 c 0.77 0.77 1.39 1.77 1.76 2.85 c 0.5 1.68 0.18 3.64 -0.66 5.06 c -0.63 1.05 -1.86 2.24 -2.32 2.24 c -0.56 -0.49 -0.79 -1 -1.14 -1.73 c 0 -0.02 0.32 -0.36 0.71 -0.75 c 0.79 -0.78 1.08 -1.27 1.33 -2.24 c 0.37 -1.45 -0.18 -3 -1.45 -4.09 c -0.95 -0.8 -1.74 -1.11 -2.93 -1.11 c -1.54 0 -2.75 0.64 -3.59 1.9 c -0.5 0.74 -0.73 1.52 -0.73 2.39 c 0 1.31 0.44 2.33 1.37 3.23 c 0.34 0.32 0.61 0.67 0.61 0.77 c 0 0.19 -0.55 1.23 -0.81 1.54 c -0.22 0.26 -0.32 0.23 -0.87 -0.21 m 3.3 -3.18 c -0.93 -0.47 -1.44 -1.45 -1.38 -2.29 c 0.15 -2.1 2.86 -2.71 4 -0.9 c 0.38 0.61 0.45 1.45 0.15 2.04 c -0.51 1 -1.74 1.52 -2.77 1.16" style="fill:#4c90f3"/></svg>