<svg xmlns="http://www.w3.org/2000/svg" viewBox="0 0 32 32"><path d="m 16.3 31.82 c -3.3 -0.25 -7.16 -1.83 -9.85 -4 c -3.27 -2.66 -5.68 -6.75 -6.31 -10.78 c -0.77 -5.32 2.32 -11 5.81 -13.75 c 1.75 -1.32 4.07 -2.37 6.25 -2.83 c 5.66 -1.2 11.57 1.07 15.63 6 c 2.43 2.95 3.68 5.93 3.99 9.45 c 0.37 4.22 -1.3 8.75 -4.35 11.8 c -3.47 2.88 -7 4.43 -11.15 4.14" style="fill:#eff8ff"/><path d="m 16.26 24.71 c -0.13 -0.32 -0.32 -0.83 -0.41 -1.13 c -0.13 -0.4 -0.43 -0.66 -1.18 -1.02 c -1.26 -0.61 -1.39 -0.61 -2.13 -0.06 c -0.33 0.25 -0.72 0.45 -0.86 0.45 c -0.32 0 -2.71 -2.38 -2.71 -2.7 c 0.39 -0.79 0.56 -1.16 0.95 -1.8 l -0.52 -1.16 c -0.5 -1.11 -0.55 -1.17 -1.43 -1.42 c -0.5 -0.14 -0.98 -0.36 -1.06 -0.49 c -0.08 -0.12 -0.15 -0.8 -0.15 -1.52 c 0 -1.45 0.17 -1.66 1.36 -1.66 c 0.59 0 0.68 -0.07 1.03 -0.83 c 0.46 -1.02 0.46 -1.04 -0.02 -1.68 c -0.48 -0.64 -0.4 -0.87 0.54 -1.5 c 0.79 -0.53 0.95 -0.51 2.09 0.28 c 0.22 0.15 0.56 0.16 1.18 0.04 c 0.75 -0.14 0.9 -0.25 1.05 -0.71 c 0.1 -0.29 0.2 -0.56 0.23 -0.6 c 0.03 -0.03 0.52 0.04 1.09 0.17 c 0.84 0.18 1.09 0.32 1.31 0.73 c 0.36 0.68 0.21 0.86 -0.72 0.87 c -1.61 0.01 -3.39 1.36 -3.82 2.89 c -0.52 1.89 0.37 5.45 1.34 5.31 c 0.39 -0.05 0.42 -0.15 0.47 -1.52 c 0.05 -1.46 0.06 -1.47 0.89 -2.38 c 0.81 -0.88 0.87 -0.91 1.83 -0.91 c 0.55 0 1 0.05 1 0.12 c 0 0.06 -0.29 0.46 -0.64 0.88 c -0.75 0.89 -0.77 1.04 -0.29 1.82 c 0.26 0.42 0.55 0.61 1.05 0.7 c 0.65 0.12 0.73 0.08 1.38 -0.63 c 0.38 -0.42 0.78 -0.71 0.88 -0.64 c 0.11 0.07 0.19 0.52 0.19 1 c 0 0.81 -0.07 0.97 -0.84 1.77 c -0.81 0.84 -0.89 0.88 -2.13 1 c -0.96 0.09 -1.38 0.22 -1.65 0.5 c -0.2 0.21 -0.34 0.46 -0.3 0.56 c 0.03 0.1 0.62 0.46 1.3 0.8 c 2.17 1.06 4.2 0.94 5.69 -0.34 l 0.77 -0.67 l 0.61 0.82 c 0.33 0.46 0.6 0.97 0.6 1.15 c 0 0.43 -0.9 1.91 -1.15 1.91 c -0.58 -0.23 -0.95 -0.56 -1.46 -0.94 l -0.91 0.41 c -0.95 0.43 -1.04 0.58 -1.13 1.87 l -0.05 0.72 c -1.02 0.04 -2.04 0.07 -3.05 0.11 c -0.08 -0.2 -0.16 -0.39 -0.23 -0.59" style="fill:#2195e0"/><path d="m 20.77 19.45 c 0.67 -0.67 0.89 -1.05 1.08 -1.86 c 0.43 -1.85 -0.75 -4.37 -2.61 -5.64 c -1.21 -0.81 -2.71 -1.16 -3.88 -0.89 c -0.72 0.16 -1.11 0.43 -1.7 1.18 c -0.52 0.65 -0.64 0.65 -0.52 0 c 0.17 -0.95 0.95 -1.93 1.92 -2.41 c 1.33 -0.58 3.28 -0.26 4.37 0.28 c 1.12 0.56 2.37 1.77 3.1 3 c 1 1.68 1.18 3.65 0.47 5.1 c -0.48 0.94 -1.61 1.81 -2.45 1.88 l -0.38 0.03" style="fill:#60a66a"/></svg>