<svg xmlns="http://www.w3.org/2000/svg" viewBox="0 0 32 32"><path d="m 7.82 28.38 c 11.64 10.39 29.58 -6 22.33 -19.72 c -7.33 -13.86 -31.59 -10.17 -29.52 6.86 c 0.61 5.07 3.39 9.46 7.19 12.85" style="fill:#0a0504"/><g style="fill:#fff"><path d="m 15.91 26.88 c -0.03 -0.13 -0.09 -0.62 -0.16 -1.09 c -0.18 -1.43 -0.54 -1.48 -0.74 -0.11 c -0.06 0.42 -0.14 0.8 -0.19 0.85 c -0.18 0.2 -0.42 -0.46 -0.51 -1.34 c -0.13 -1.37 -0.22 -1.48 -0.73 -0.99 c -0.16 0.15 -0.3 0.25 -0.33 0.23 c -0.02 -0.02 -0.18 -0.55 -0.36 -1.18 c -0.37 -1.29 -0.7 -1.85 -1.31 -2.19 c -0.86 -0.48 -2.2 -0.5 -2.71 -0.04 c -0.17 0.15 -0.21 0.15 -0.46 0 c -0.15 -0.09 -0.5 -0.45 -0.76 -0.8 c -0.76 -0.99 -0.66 -1.54 0.3 -1.54 c 0.58 0 1.07 -0.31 1.35 -0.86 c 0.15 -0.3 0.39 -1.22 0.64 -2.5 c 0.59 -3 0.57 -3 1.86 -3.2 c 1.22 -0.19 1.75 -0.85 1.93 -2.42 c 0.17 -1.46 0.18 -1.5 0.46 -1.69 c 0.23 -0.15 0.52 -0.18 1.86 -0.18 c 1.42 0 1.63 0.02 1.95 0.21 l 0.36 0.21 l 0.02 0.95 c 0.02 0.82 0.05 1.03 0.31 1.54 c 0.37 0.74 0.95 1.19 1.74 1.36 c 0.89 0.2 1.11 0.34 1.4 0.94 c 0.19 0.4 0.29 0.82 0.36 1.62 c 0.12 1.23 0.43 2.54 0.76 3.14 c 0.25 0.47 0.93 0.87 1.48 0.87 c 0.46 0 0.74 0.17 0.74 0.45 c 0 0.39 -0.88 1.57 -1.45 1.95 c -0.29 0.19 -0.29 0.19 -0.59 -0.06 c -0.37 -0.32 -1.23 -0.45 -1.85 -0.28 c -0.83 0.23 -1.94 1.59 -1.94 2.39 c 0 0.45 -0.21 1.21 -0.34 1.21 c -0.06 0 -0.26 -0.14 -0.44 -0.32 c -0.3 -0.3 -0.34 -0.3 -0.43 -0.13 c -0.05 0.11 -0.18 0.69 -0.29 1.3 c -0.1 0.61 -0.22 1.16 -0.27 1.23 c -0.15 0.23 -0.36 -0.21 -0.43 -0.88 c -0.09 -0.82 -0.14 -1 -0.3 -1 c -0.17 0 -0.23 0.24 -0.31 1.29 c -0.09 1.15 -0.13 1.29 -0.36 1.29 c -0.13 0 -0.22 -0.09 -0.25 -0.23 m 0.94 -6.43 c 0.16 -0.09 0.22 -0.22 0.22 -0.46 c 0 -0.4 -0.55 -1.56 -0.79 -1.65 c -0.24 -0.09 -0.53 0.21 -0.86 0.92 c -0.31 0.65 -0.38 1.23 -0.16 1.32 c 0.2 0.09 1.35 0 1.59 -0.13 m -5.11 -2 c 0.38 -0.32 0.96 -0.34 1.88 -0.05 c 0.84 0.26 0.99 0.26 1.06 -0.03 c 0.09 -0.35 -0.07 -0.67 -0.71 -1.47 c -0.32 -0.39 -0.74 -1.06 -0.94 -1.48 c -0.2 -0.43 -0.42 -0.8 -0.48 -0.84 c -0.19 -0.12 -0.84 0.32 -1.13 0.77 c -0.35 0.54 -0.67 1.57 -0.75 2.39 c -0.05 0.57 -0.04 0.64 0.18 0.8 c 0.33 0.23 0.54 0.21 0.89 -0.09 m 6.76 0 c 0.7 -0.3 1.13 -0.32 1.75 -0.1 c 0.75 0.27 1.19 0.34 1.31 0.22 c 0.54 -0.54 -1.11 -4.3 -1.77 -4 c -0.08 0.03 -0.36 0.47 -0.62 0.97 c -0.45 0.88 -0.73 1.25 -1.52 1.96 c -0.43 0.38 -0.46 0.6 -0.16 0.98 c 0.26 0.33 0.26 0.33 1.01 0.01"/><path d="m 20.2 10.95 c -0.57 -0.35 -0.82 -0.75 -0.87 -1.41 c -0.05 -0.69 0.14 -1.07 0.75 -1.46 c 0.65 -0.41 1.11 -0.74 2.56 -0.64 c 0.95 0.07 1.43 0.19 2.22 -0.71 c 0.39 -0.44 0.68 -0.34 0.83 0.21 c 0.29 1.05 -0.89 2.92 -2.07 3.28 c -0.31 0.09 -0.81 0.33 -1.12 0.53 c -0.74 0.48 -1.71 0.57 -2.31 0.2"/><path d="m 12.28 10.95 c 0.57 -0.35 0.82 -0.75 0.87 -1.41 c 0.05 -0.69 -0.14 -1.07 -0.75 -1.46 c -0.65 -0.41 -1.1 -0.74 -2.56 -0.64 c -0.95 0.07 -1.43 0.19 -2.23 -0.71 c -0.39 -0.44 -0.68 -0.34 -0.83 0.21 c -0.29 1.05 0.88 2.92 2.07 3.28 c 0.3 0.09 0.81 0.33 1.12 0.53 c 0.74 0.48 1.71 0.57 2.31 0.2"/></g></svg>