<svg xmlns="http://www.w3.org/2000/svg" viewBox="0 0 32 32"><path d="m 30.6 21.36 c 6.21 -15.93 -11.2 -24.1 -22 -20 c -7.56 2.83 -11.32 14.1 -5.96 23.3 c 6.78 11.51 23.2 9.1 27.99 -3.22" style="fill:#203428"/><path d="m 15.36 27.49 l -0.41 -0.75 v -9.25 l 0.65 -0.61 c 0.64 -0.61 0.66 -0.61 0.81 -0.61 h 0.16 v 10.5 l -0.39 0.71 c -0.21 0.39 -0.39 0.72 -0.41 0.73 c -0.01 0.01 -0.2 -0.31 -0.43 -0.72 m -1.74 -1.81 c -0.8 -0.23 -1.54 -0.54 -2.17 -0.94 c -0.69 -0.43 -0.84 -0.59 -0.98 -1.11 l -0.07 -0.25 l -0.06 0.13 c -0.03 0.07 -0.07 0.17 -0.08 0.22 l -0.02 0.1 l -0.11 -0.1 c -0.63 -0.56 -1.38 -1.66 -1.73 -2.54 c -0.16 -0.39 -0.36 -1.06 -0.4 -1.34 c -0.02 -0.09 -0.04 -0.19 -0.04 -0.22 c -0.01 -0.05 0.02 -0.04 0.2 0.04 c 0.12 0.06 0.32 0.13 0.44 0.16 c 0.23 0.06 0.96 0.14 1 0.11 c 0.01 -0.01 -0.07 -0.04 -0.19 -0.07 c -0.57 -0.18 -1.11 -0.57 -1.4 -1.04 c -0.16 -0.26 -0.16 -0.29 -0.1 -0.92 c 0.21 -2.28 1.52 -4.31 3.55 -5.58 c 0.46 -0.29 1.3 -0.67 1.83 -0.83 c 0.62 -0.19 0.7 -0.2 0.8 -0.12 c 0.08 0.07 0.09 0.09 0.09 0.76 v 0.69 l -0.18 0.04 c -0.1 0.03 -0.34 0.11 -0.55 0.19 c -2.04 0.78 -3.46 2.43 -3.86 4.45 c -0.09 0.49 -0.11 1.29 -0.04 1.8 c 0.19 1.31 0.8 2.48 1.79 3.41 c 0.68 0.64 1.57 1.16 2.47 1.44 l 0.38 0.12 v 0.7 c 0 0.63 0 0.71 -0.07 0.76 c -0.09 0.07 -0.11 0.07 -0.48 -0.03 m 3.83 -0.01 c -0.08 -0.08 -0.08 -0.11 -0.08 -0.76 v -0.68 l 0.39 -0.12 c 0.51 -0.16 1.25 -0.51 1.69 -0.8 c 0.46 -0.31 1.12 -0.93 1.45 -1.36 c 0.48 -0.64 0.87 -1.46 1.06 -2.28 c 0.07 -0.31 0.09 -0.46 0.09 -1.16 c 0 -0.69 -0.01 -0.84 -0.09 -1.16 c -0.36 -1.54 -1.23 -2.78 -2.56 -3.68 c -0.43 -0.29 -1.13 -0.62 -1.63 -0.77 l -0.39 -0.12 v -0.67 c 0 -0.68 0 -0.68 0.09 -0.76 l 0.09 -0.08 l 0.3 0.08 c 0.64 0.16 1.68 0.58 1.89 0.76 c 0.14 0.13 0.34 0.39 0.46 0.63 c 0.13 0.25 0.17 0.23 0.22 -0.06 l 0.03 -0.16 l 0.3 0.23 c 0.96 0.72 1.81 1.78 2.31 2.88 c 0.23 0.49 0.23 0.61 0.04 0.98 c -0.17 0.32 -0.45 0.59 -0.75 0.7 l -0.2 0.08 l 0.16 -0.02 c 0.27 -0.03 0.73 -0.19 0.97 -0.32 c 0.14 -0.08 0.23 -0.11 0.23 -0.08 c 0.07 0.17 0.14 0.77 0.16 1.27 c 0.06 1.46 -0.31 2.84 -1.09 4.05 c -1.03 1.63 -2.7 2.84 -4.61 3.36 c -0.22 0.06 -0.41 0.11 -0.42 0.11 c -0.02 0 -0.06 -0.04 -0.11 -0.08 m -2.48 -9.43 c -0.01 -0.01 -0.03 -1.27 -0.03 -2.79 v -2.77 l -0.09 -0.08 c -0.09 -0.07 -0.11 -0.07 -1.17 -0.07 h -1.08 l -0.19 0.18 c -0.32 0.31 -0.32 0.32 -0.32 -0.81 c 0 -1.14 0 -1.13 0.32 -0.81 l 0.19 0.18 h 1.16 c 1.07 0 1.16 -0.01 1.22 -0.06 c 0.05 -0.05 0.06 -0.23 0.06 -1.75 c 0 -1.42 0.01 -1.69 0.05 -1.75 c 0.09 -0.11 0.07 -0.2 -0.07 -0.34 l -0.13 -0.12 v -0.45 c 0 -0.59 -0.05 -0.56 0.86 -0.56 c 0.91 0 0.88 -0.02 0.88 0.58 v 0.43 l -0.15 0.14 c -0.16 0.15 -0.19 0.23 -0.09 0.3 c 0.05 0.04 0.05 0.24 0.05 1.48 c 0 1.33 -0.01 1.45 -0.07 1.58 c -0.08 0.16 -0.3 0.37 -0.47 0.46 c -0.11 0.05 0 0.05 1.44 0.05 h 1.55 l 0.19 -0.18 c 0.33 -0.31 0.32 -0.32 0.32 0.81 c 0 1.14 0.01 1.13 -0.32 0.81 l -0.19 -0.18 h -2.16 l -0.08 0.08 l -0.08 0.08 v 4.32 l -0.66 0.63 c -0.59 0.56 -0.68 0.62 -0.79 0.62 c -0.07 0 -0.13 -0.01 -0.14 -0.02" style="fill:#fff"/></svg>