<svg xmlns="http://www.w3.org/2000/svg" viewBox="0 0 32 32"><path d="m 27.41 6 c 19.96 28.38 -31.96 37.41 -26.81 7.25 c 2.73 -11.99 18.81 -18.63 26.81 -7.25" style="fill:#020000"/><path d="m 12.58 22.34 c -0.11 -0.14 -0.15 -0.42 -0.09 -0.75 c 0.11 -0.73 0.8 -1.32 3.18 -2.71 c 2.37 -1.39 3.11 -2.04 3.11 -2.72 c 0 -0.39 -0.09 -0.54 -0.46 -0.77 c -0.25 -0.16 -0.63 -0.29 -0.84 -0.29 c -0.41 0 -0.82 -0.33 -0.82 -0.66 c 0 -0.16 0.22 -0.2 0.96 -0.2 c 2.04 0 3.37 1.43 2.64 2.86 c -0.11 0.22 -0.82 0.98 -1.57 1.68 l -1.36 1.28 l 0.62 0.09 c 0.91 0.14 4.97 0.13 6.1 -0.02 c 0.54 -0.07 1.02 -0.21 1.08 -0.3 c 0.19 -0.31 -0.46 -1.53 -3.49 -6.55 c -1.79 -2.98 -2.28 -3.58 -2.7 -3.35 c -0.13 0.07 -0.77 0.94 -1.43 1.93 c -1.39 2.1 -1.19 2.1 -2.55 0.01 c -0.48 -0.74 -0.99 -1.38 -1.13 -1.43 c -0.6 -0.2 -0.42 -0.46 -4.97 7.25 c -1.43 2.41 -2.63 4.71 -2.75 4.73 c -0.68 0.14 -1.37 -4.42 -0.85 -6.65 c 0.94 -4 4.27 -7.19 8.11 -8.29 c 1.49 -0.42 4.38 -0.45 5.71 -0.05 c 3.57 1.06 6 3.63 7.39 7.21 c 0.43 1.62 0.77 4.42 -0.17 7.71 c -0.19 0.2 -1.06 0.22 -6.89 0.22 c -5.77 0 -6.69 -0.03 -6.84 -0.21" style="fill:#fff"/></svg>