<svg xmlns="http://www.w3.org/2000/svg" viewBox="0 0 32 32"><path d="m 27.41 26.1 c 19.96 -28.38 -31.96 -37.41 -26.81 -7.25 c 2.73 11.99 18.81 18.63 26.81 7.25" style="fill:#00a1ad"/><g style="fill:#fff"><path d="m 13.88 26.1 c -0.47 -0.21 -0.75 -0.91 -0.98 -2.26 c -0.12 -0.68 -0.23 -1.05 -0.49 -1.62 c -0.19 -0.41 -0.4 -0.96 -0.47 -1.23 c -0.29 -1.11 -0.5 -1.61 -1.66 -3.82 c -0.37 -0.69 -0.77 -1.57 -0.89 -1.95 c -1.02 -3.05 0.3 -6.17 3.25 -7.7 c 1.84 -0.84 3.73 -0.85 5.5 -0.17 c 1.35 0.54 2.68 1.75 3.34 3.05 c 0.64 1.27 0.73 3.19 0.23 4.77 c -0.11 0.36 -0.59 1.42 -1.06 2.37 c -0.99 1.98 -1.03 2.07 -1.68 4 c -0.34 1.02 -0.52 1.68 -0.57 2.14 c -0.04 0.36 -0.11 0.79 -0.14 0.93 c -0.12 0.45 -0.55 1.24 -0.84 1.36 c -0.59 0.24 -3.07 0.28 -3.53 0.08 m 1.2 -4.44 c 0.01 -0.01 0.04 -0.8 0.07 -1.75 l 0.05 -1.73 l -0.48 -0.33 c -1.08 -0.73 -1.52 -1.23 -1.81 -2.08 c -0.14 -0.41 -0.77 -3.41 -0.77 -3.67 c 0 -0.18 0.11 -0.15 0.71 0.16 c 1.35 0.69 2.31 1.54 2.87 2.52 c 0.48 0.84 0.38 1.64 0.81 0.4 c 0.25 -0.7 1.13 -1.04 1.99 -1.04 c 1.13 -0.01 0.86 0.24 0.57 0.81 c -0.2 0.38 -0.92 1.31 -1.28 1.64 c -0.34 0.31 -0.53 0.4 -1.05 0.47 c -0.24 0.03 -0.42 0.11 -0.52 0.21 c -0.08 0.09 -0.28 0.32 -0.43 0.5 l -0.28 0.34 c 0.13 1 0.15 2.42 0.25 3.55 c 0.68 -0.1 1.89 0.09 2.14 -0.14 c 0.09 -0.14 0.2 -0.43 0.25 -0.64 c 0.14 -0.6 0.44 -1.3 1.39 -3.29 c 1.06 -2.21 1.3 -2.81 1.47 -3.63 c 0.15 -0.72 0.12 -1.27 -0.13 -2.14 c -0.27 -0.98 -0.65 -1.64 -1.33 -2.33 c -0.7 -0.7 -1.31 -1.06 -2.37 -1.38 c -1.44 -0.39 -3.04 -0.24 -4.2 0.33 c -1.1 0.55 -1.87 1.32 -2.41 2.42 c -0.36 0.74 -0.53 1.46 -0.53 2.33 c 0 1.19 0.29 2.02 1.49 4.28 c 0.89 1.69 1.1 2.17 1.37 3.25 c 0.27 1.04 0.3 1.06 1.33 1 c 0.44 -0.03 0.8 -0.05 0.81 -0.07"/><path d="m 16.37 16.84 h 0.32 v 5.11 h -0.32"/></g><g style="fill:#00a1ad"><path d="m 14.1 22.86 l 2.95 -0.12 c 0.14 -0.01 0.25 0.1 0.26 0.24 v 0.25 c 0.01 0.14 -0.1 0.25 -0.24 0.26 l -2.95 0.12 c -0.14 0 -0.25 -0.1 -0.26 -0.24 v -0.25 c -0.01 -0.14 0.1 -0.25 0.23 -0.26"/><path d="m 14.55 24.1 l 2.27 -0.05 c 0.14 0 0.25 0.11 0.25 0.25 v 0.25 c 0 0.14 -0.11 0.25 -0.25 0.25 l -2.27 0.05 c -0.14 0 -0.25 -0.11 -0.25 -0.24 v -0.25 c 0 -0.14 0.11 -0.25 0.25 -0.25"/></g></svg>