<svg xmlns="http://www.w3.org/2000/svg" viewBox="0 0 32 32"><path d="m 0.25 16.1 c -2.4 -21.1 31.99 -20.81 31.59 0.38 c 1.14 19.71 -33.45 21.49 -31.59 -0.38" style="fill:#b4f1f6"/><path d="m 8.7 21.71 c -4 -0.9 -5.54 -6.14 -2.73 -9.33 c 1.41 -1.59 3.89 -2.2 6 -1.46 c 1.12 0.39 1.12 0.37 0 1.75 l -0.98 1.21 h -0.75 c -1.28 0.01 -2.13 0.67 -2.39 1.87 c -0.34 1.52 0.72 2.85 2.28 2.85 c 1.31 0 2 -0.54 4.13 -3.15 c 3.3 -4.09 5.11 -5.2 7.79 -4.79 c 2.52 0.39 4.29 2.17 4.65 4.7 c 0.54 3.75 -2.17 6.71 -5.92 6.48 c -0.96 -0.06 -2.21 -0.41 -2.37 -0.67 c 0.57 -0.98 1.16 -1.62 1.92 -2.57 c 0.61 0 1.34 0.04 1.85 -0.23 c 1.91 -1.01 1.52 -3.96 -0.59 -4.45 c -0.57 -0.13 -0.73 -0.13 -1.27 0.05 c -0.88 0.29 -1.6 0.95 -3.17 2.93 c -2.17 2.73 -3.12 3.66 -4.5 4.36 c -1.18 0.61 -2.52 0.75 -3.96 0.43" style="fill:#494949"/><g style="fill:#20a4c7"><path d="m 11 13.81 c 0.52 -0.84 1.52 -1.5 1.89 -2.42 c 1.28 0.36 2.08 1.23 2.96 2.15 c -0.63 0.63 -1.59 2.28 -2.27 2.55 c -0.79 -0.81 -1.7 -1.66 -2.58 -2.28"/><path d="m 15.6 18.89 c 0.71 -0.89 1.43 -1.79 2.14 -2.68 c 0.73 0.94 1.76 1.72 2.59 2.3 c -0.48 0.47 -1.39 2.35 -1.98 2.49 c -1.1 -0.41 -2 -1.43 -2.74 -2.11"/></g></svg>