<svg xmlns="http://www.w3.org/2000/svg" viewBox="0 0 32 32"><defs><linearGradient id="0" gradientUnits="userSpaceOnUse" y1="128.9" x2="0" y2="-106.1" gradientTransform="matrix(0.123 0 0 0.124 13.99 14.62)"><stop style="stop-color:#043495"/><stop offset="1" style="stop-color:#45dff4"/></linearGradient></defs><path d="m 21.2 1.55 c -15.93 -6.21 -24.1 11.2 -20 22 c 2.83 7.56 14.1 11.32 23.3 5.96 c 11.51 -6.78 9.1 -23.2 -3.22 -27.99" style="fill:#f8f8ff"/><path d="m 15.74 6.45 c -5.42 0 -9.81 4.43 -9.81 9.9 c 0 5.47 4.39 9.89 9.81 9.89 c 5.42 0 9.81 -4.43 9.81 -9.89 c 0 -5.47 -4.39 -9.9 -9.81 -9.9 m 0 1.98 c 4.33 0 7.85 3.54 7.85 7.92 c 0 4.37 -3.51 7.92 -7.85 7.92 c -4.33 0 -7.85 -3.55 -7.85 -7.92 c 0 -4.37 3.51 -7.92 7.85 -7.92 m -2.33 2.72 v 1.58 h 1.34 c 0.13 0.46 0.36 0.8 0.46 1.29 c -1.15 1.97 -2.46 4.12 -3.61 6 c -0.14 0.25 -0.36 0.55 -0.35 0.82 h 1.98 c 1 -1.45 1.88 -3.04 2.91 -4.45 c 0.57 1.65 1.26 3.18 1.8 4.86 c 1.1 -0.28 2.21 -0.54 3.13 -1 c -0.26 -0.44 -0.3 -1.1 -0.58 -1.52 c -0.44 0.18 -0.89 0.35 -1.4 0.47 c -0.94 -2.77 -2.08 -5.32 -3 -8.09" style="fill:url(#0)"/></svg>