<svg xmlns="http://www.w3.org/2000/svg" xmlns:xlink="http://www.w3.org/1999/xlink" viewBox="0 0 32 32"><defs><g id="3" style="clip-path:url(#2)"><path d="m 8.19 12.55 v -2.64 c 0 -0.23 0.2 -0.41 0.45 -0.41 h 14.69 c 0.25 0 0.45 0.18 0.45 0.41 v 2.64 c 0 0.23 -0.2 0.42 -0.45 0.42 h -14.69 c -0.25 0 -0.45 -0.19 -0.45 -0.42" style="fill:#222628"/><path d="m 17.67 12.95 v 10.99 c 0 0.25 -0.18 0.46 -0.41 0.46 h -2.56 c -0.22 0 -0.41 -0.21 -0.41 -0.46 v -10.98 c 1.02 0 3.37 -0.01 3.37 -0.01" style="fill:#222628"/></g><clipPath id="2"><path d="M 0,0 H32 V32 H0 z"/></clipPath><filter id="0" filterUnits="objectBoundingBox" x="0" y="0" width="32" height="32"><feColorMatrix type="matrix" in="SourceGraphic" values="0 0 0 0 1 0 0 0 0 1 0 0 0 0 1 0 0 0 1 0"/></filter><linearGradient id="5" gradientUnits="userSpaceOnUse" x1="16.22" y1="-25.28" x2="12.53" y2="-31.51" gradientTransform="matrix(-0.529 0 0 -0.545 18.46 5.7)" xlink:href="#4"/><linearGradient id="4" gradientUnits="userSpaceOnUse" x1="-344.5" y1="-510.8" x2="-340.3" y2="-522.2"><stop style="stop-color:#026cdc"/><stop offset="1" style="stop-color:#28b0fc"/></linearGradient><linearGradient id="6" gradientUnits="userSpaceOnUse" x1="-3" y1="-11.5" x2="-4.07" y2="-18.2" gradientTransform="matrix(-0.529 0 0 -0.545 18.46 4.93)" xlink:href="#4"/><mask id="1"><g style="filter:url(#0)"><path d="M 0,0 H32 V32 H0 z" style="fill-opacity:0.64"/></g></mask></defs><path d="m 28.7 24.48 c 11.51 -16.36 -9.74 -32.95 -23.3 -19.61 c -12.77 12.56 -0.93 32.1 14.96 25.99 c 3.32 -1.27 6.22 -3.37 8.34 -6.37" style="fill:#4c555b"/><use xlink:href="#3" style="mask:url(#1)"/><path d="m 14.47 -31.84 h -13.71 c 0 0 -3.91 0.68 -3.91 5.58 c 0 4.9 3.91 4.9 3.91 4.9 h 7.83 c 0 0 3.91 0 3.91 4.9 c 0 4.89 -3.91 5.51 -3.91 5.51 l -13.71 -0.07" transform="matrix(-0.529 0 0 -0.545 18.46 5.31)" style="fill:none;stroke:url(#4);stroke-width:2.93"/><path d="m 9.98 22.67 c 0 -1.06 0.84 -1.92 1.87 -1.92 c 1.03 0 1.86 0.86 1.86 1.92 c 0 1.06 -0.84 1.92 -1.86 1.92 c -1.03 0 -1.87 -0.86 -1.87 -1.92" style="fill:url(#5)"/><path d="m 18.27 11.23 c 0 -1.06 0.84 -1.92 1.86 -1.92 c 1.03 0 1.87 0.86 1.87 1.92 c 0 1.06 -0.84 1.92 -1.87 1.92 c -1.03 0 -1.86 -0.86 -1.86 -1.92" style="fill:url(#6)"/></svg>