<svg xmlns="http://www.w3.org/2000/svg" viewBox="0 0 32 32"><path d="m 27.94 26.78 c 18.3 -28.79 -31.69 -38 -27.7 -9.16 c 1.62 11.77 20.7 20.2 27.7 9.16" style="fill:#b0dfe5"/><path d="m 22.88 10.83 h -14.16 c -0.97 0 -1.76 0.71 -1.76 1.58 v 7.91 c 0 0.87 0.8 1.58 1.77 1.58 h 14.16 c 0.97 0 1.77 -0.71 1.77 -1.58 v -7.91 c 0 -0.87 -0.8 -1.58 -1.77 -1.58 m -7.96 2.37 h 1.77 v 1.58 h -1.77 m 0 0.79 h 1.77 v 1.58 h -1.77 m -2.65 -3.96 h 1.77 v 1.58 h -1.77 m 0 0.79 h 1.77 v 1.58 h -1.77 m -0.89 0 h -1.77 v -1.58 h 1.77 m 0 -0.79 h -1.77 v -1.58 h 1.77 m 7.96 7.12 h -7.08 v -1.58 h 7.08 m 0 -1.58 h -1.77 v -1.58 h 1.77 m 0 -0.79 h -1.77 v -1.58 h 1.77 m 2.65 3.96 h -1.77 v -1.58 h 1.77 m 0 -0.79 h -1.77 v -1.58 h 1.77"/><path d="m 15 23.26 c -0.03 -0.26 -0.06 -1.72 -0.06 -3.21 v -2.75 h -1.9 v -8.43 h 3.04 c 1.67 0 3.04 0.04 3.04 0.08 c 0 0.04 -0.51 1.36 -1.14 2.91 c -0.62 1.55 -1.14 2.91 -1.16 3 c -0.02 0.16 0.1 0.2 1.13 0.28 l 1.15 0.1 l -2 4.26 l -2 4.26" style="fill:#00acee"/></svg>