<svg xmlns="http://www.w3.org/2000/svg" viewBox="0 0 32 32"><path d="m 30.52 23.61 c -6.3 15 -30.69 8.32 -30.52 -8 c -0.24 -14.87 19.1 -20.51 27.65 -9.91 c 4.25 4.58 5.74 12.18 2.89 17.96" style="fill:#eff8ff"/><path d="m 14.1 27.64 c -4.39 -0.83 -7.92 -4.13 -9.13 -8.54 c -0.39 -1.39 -0.38 -4.29 0.01 -5.71 c 0.34 -1.23 1.1 -2.86 1.82 -3.87 c 0.6 -0.84 1.98 -2.2 2.84 -2.79 c 3.18 -2.18 7.48 -2.64 11 -1.16 c 3.37 1.41 5.89 4.33 6.86 7.98 c 0.34 1.27 0.36 3.92 0.05 5.21 c -1.03 4.22 -4.07 7.41 -8.26 8.63 c -1.73 0.29 -3.58 0.53 -5.21 0.25 m 4.4 -0.75 c 3.35 -0.7 6.16 -2.95 7.61 -6.08 c 0.63 -1.37 0.89 -2.39 0.97 -3.95 c 0.28 -4.94 -2.75 -9.38 -7.46 -10.93 c -2.65 -0.78 -5.88 -0.52 -8.21 0.59 c -2.7 1.31 -4.7 3.64 -5.63 6.54 c -0.33 1.04 -0.52 3.57 -0.36 4.7 c 0.08 0.52 0.32 0.71 0.32 0.24 c 0 -0.1 0.17 -0.61 0.38 -1.13 c 1.34 -3.36 4.96 -6.47 8.62 -7.42 c 0.48 -0.13 0.58 -0.12 0.71 0.07 c 0.14 0.19 0.22 0.16 0.92 -0.31 c 1.22 -0.83 2.89 -1.47 3.26 -1.25 c 0.19 0.12 0.21 0.63 0.09 1.68 l -0.09 0.75 l 0.31 -0.59 c 0.17 -0.33 0.47 -0.68 0.67 -0.78 c 0.49 -0.25 1.75 -0.44 2.37 -0.36 c 0.79 0.11 0.88 0.3 0.48 1.11 c -0.37 0.75 -1.27 1.8 -1.54 1.8 c -0.25 0 -0.22 0.07 0.36 0.78 c 1.15 1.41 1.71 2.83 1.46 3.73 c -0.2 0.77 -0.75 0.99 -0.75 0.31 c 0 -0.16 -0.1 -0.41 -0.22 -0.56 c -0.29 -0.36 -0.6 -0.23 -0.91 0.38 c -0.2 0.4 -0.31 0.48 -0.62 0.48 c -0.22 0 -0.37 0.07 -0.37 0.16 c 0 0.45 -0.84 1.24 -1.81 1.72 c -1.44 0.7 -2.35 0.91 -3.87 0.84 c -1.55 -0.06 -2.14 -0.3 -3 -1.21 c -0.76 -0.8 -1.14 -1.01 -1.82 -1.01 c -0.73 0 -1.39 0.66 -1.68 1.68 c -0.29 1 -0.2 2.98 0.18 3.93 c 0.85 2.11 2.63 3.54 5.07 4.08 c 1.04 0.23 3.47 0.23 4.57 0 m -0.89 -4.23 c 0.29 -0.32 0.36 -0.33 1.63 -0.33 c 1.48 0 1.83 -0.12 0.93 -0.31 c -1 -0.21 -0.81 -0.41 0.37 -0.39 c 0.89 0.01 1.11 -0.02 1.41 -0.25 c 0.19 -0.14 0.38 -0.43 0.42 -0.63 c 0.05 -0.26 0.13 -0.35 0.29 -0.32 c 0.36 0.06 0.56 -0.2 0.65 -0.83 c 0.17 -1.24 0.37 -1.38 0.5 -0.35 c 0.11 0.91 -0.01 1.74 -1.05 2.12 c -0.45 0.16 -0.8 0.65 -0.93 0.8 c -0.41 0.51 -0.71 0.59 -2.27 0.6 c -0.82 0.01 -1.67 0.06 -1.88 0.11 l -0.38 0.11" style="fill:#5678d7"/></svg>