<svg xmlns="http://www.w3.org/2000/svg" viewBox="0 0 32 32"><path d="m 10.19 31.41 c 45.1 5.56 7.71 -58.3 -8.84 -17.46 c -2.54 7.18 -0.34 15.26 8.84 17.46" style="fill:#3e4a79"/><path d="m 11.37 23.96 c -0.13 -0.1 -0.12 -0.13 0.14 -0.6 c 0.25 -0.47 0.54 -0.9 0.81 -1.35 c 0.95 0.16 1.57 0.38 2.18 0.39 c -0.02 0.65 0.16 1.71 0.06 2.35 c -1.08 0.18 -1.76 -0.1 -3.18 -0.79 m 5.12 0.58 c -0.08 -0.05 -0.09 -0.26 -0.05 -1.1 c 0.03 -0.57 0.08 -1.06 0.11 -1.1 c 0.03 -0.03 0.35 -0.13 0.7 -0.2 c 0.6 -0.1 1.13 -0.39 1.7 -0.55 c 0.23 0.23 0.33 0.52 0.55 0.79 c 0.16 0.14 0.61 0.9 0.61 1.04 c 0 0.27 -1.68 0.86 -3.27 1.15 c -0.14 0.02 -0.3 0.01 -0.36 -0.02 m -7.6 -2.36 c -0.57 -0.65 -0.95 -1.32 -0.84 -1.47 c 0.58 -0.23 1.18 -0.76 1.79 -0.83 c 0.37 0.37 0.63 0.68 1 1.09 c -0.18 0.28 -1.25 1.77 -1.33 1.78 c -0.07 0 -0.35 -0.25 -0.63 -0.57 m 11.58 -1.61 c 0 -0.07 0.11 -0.21 0.25 -0.3 c 0.5 -0.43 0.83 -0.84 1.27 -1.34 c 0.38 0.31 1.91 0.45 1.96 0.94 c 0 0.39 -1.77 2.49 -2.11 2.49 c -0.54 -0.41 -1.15 -1.18 -1.38 -1.79 m -6 -0.04 c -0.74 -0.14 -1.11 -0.3 -1.65 -0.67 c -0.78 -0.54 -0.74 -0.33 -0.74 -4.37 c 0 -3.21 0.01 -3.49 0.14 -3.79 c 0.16 -0.39 0.59 -0.77 1.03 -0.93 c 0.19 -0.07 0.38 -0.17 0.43 -0.23 c 0.12 -0.14 0.19 -1.04 0.09 -1.04 c -0.33 -0.14 -0.52 -0.46 -0.52 -0.73 c 0 -0.4 0.17 -0.59 0.69 -0.77 c 1.34 -0.46 3.97 -0.28 4.55 0.31 c 0.34 0.35 0.26 0.81 -0.2 1.1 c -0.26 0.16 -0.26 0.17 -0.21 0.53 c 0.08 0.58 0.09 0.59 0.66 0.86 c 0.61 0.28 0.93 0.61 1.05 1.07 c 0.05 0.18 0.08 1.54 0.08 3.61 c 0 3.16 -0.01 3.34 -0.14 3.64 c -0.28 0.63 -1.18 1.16 -2.32 1.39 c -0.73 0.15 -2.15 0.15 -2.91 0 m 2.23 -7.75 c 0.34 -0.24 0 -0.49 -0.68 -0.49 c -0.55 0 -0.9 0.12 -0.9 0.31 c 0 0.08 0.04 0.17 0.08 0.2 c 0.31 0.21 1.2 0.2 1.5 -0.02 m 0.18 -3.98 c 0.48 -0.16 -0.11 -0.31 -0.96 -0.32 c -0.46 0 -0.5 -0.06 -0.9 0.19 c -0.24 0.15 0.75 0.51 1.86 0.13 m -9.42 10.1 c -0.12 -0.33 0.24 -1.83 0.47 -1.96 c 0.61 -0.02 0.73 0.05 1.32 0.17 c -0.05 0.31 0.23 1.38 -0.14 1.5 c -0.53 0.14 -1 0.38 -1.57 0.42 c -0.02 0 -0.05 -0.05 -0.07 -0.12 m 15.18 -1.55 c -0.03 -0.59 0.01 -1.2 -0.05 -1.8 c -0.02 -0.16 0.04 -0.21 0.52 -0.4 c 0.3 -0.12 0.65 -0.22 0.77 -0.23 c 0.52 0.21 0.63 0.82 0.78 1.45 c 0.14 0.57 0.15 1.54 0.02 1.59 c -0.7 -0.08 -1.44 -0.39 -2.05 -0.61 m -13.82 -1.91 c 0 -0.05 0.19 -0.28 0.41 -0.52 c 0.63 -0.64 0.63 -0.64 0.89 -0.5 c 0.12 0.07 0.22 0.18 0.22 0.25 c 0 0.17 -0.74 1.03 -0.88 1.02 c -0.23 -0.04 -0.5 -0.09 -0.64 -0.25 m 12.19 -2.26 c 0.11 -0.22 0.26 -0.34 0.43 -0.52 c 0.33 0.24 1.23 0.46 1.31 0.85 c -0.1 0.19 -0.27 0.47 -0.61 0.47 c -0.41 -0.08 -0.93 -0.44 -1.13 -0.8" style="fill:#fff"/></svg>