<svg xmlns="http://www.w3.org/2000/svg" viewBox="0 0 32 32"><path d="m 27.41 26.1 c 19.96 -28.38 -31.96 -37.41 -26.81 -7.25 c 2.73 11.99 18.81 18.63 26.81 7.25" style="fill:#a9a9a9"/><path d="m 6.99 9.48 h 18.36 v 12.87 h -18.36" style="fill:#c00"/><path d="m 7.7 10.22 h 16.95 v 11.35 h -16.95" style="fill:#fff"/><g style="fill:#949494"><path d="m 16.2 10.22 h 0.7 v 12.87 h -0.7"/><path d="m 15.47 10.22 h 0.71 v 13.63 h -0.71"/></g><path d="m 8.41 10.96 h 0.71 v 2.27 h -0.71"/><path d="m 9.82 10.96 h 4.95 v 0.75 h -4.95"/><path d="m 9.82 12.51 h 4.95 v 0.76 h -4.95"/><path d="m 8.41 14 h 6.36 v 0.75 h -6.36"/><path d="m 8.41 15.48 h 6.36 v 0.75 h -6.36"/><path d="m 8.41 17 h 6.36 v 0.76 h -6.36"/><path d="m 8.41 18.52 h 6.36 v 0.76 h -6.36"/><path d="m 8.41 20.1 h 6.36 v 0.75 h -6.36"/><path d="m 17.59 10.96 h 6.36 v 0.75 h -6.36"/><path d="m 17.59 12.51 h 6.36 v 0.76 h -6.36"/><path d="m 17.59 14 h 6.36 v 0.75 h -6.36"/><path d="m 17.59 15.48 h 6.36 v 0.75 h -6.36"/><path d="m 17.59 17 h 6.36 v 0.76 h -6.36"/><path d="m 17.59 18.52 h 6.36 v 0.76 h -6.36"/><path d="m 17.59 20.1 h 6.36 v 0.75 h -6.36"/></svg>