<svg xmlns="http://www.w3.org/2000/svg" viewBox="0 0 32 32"><path d="m 15.34 0.47 c 11.38 -1.88 19.95 4.05 15.21 15.72 c -3.24 8 -6.81 15.73 -15.21 15.73 c -8.4 0 -15.21 -7.1 -15.21 -15.73 c 0 -8.69 6.91 -14.36 15.21 -15.72" style="fill:#ffd600"/><path d="m 14.4 20.45 c 1.44 -0.9 3.4 -2.03 5.08 -3.77 c 3.61 -3.75 6.53 -9 5.81 -9.8 c -0.73 -0.75 -5.83 2.28 -9.45 6 c -1.68 1.74 -2.76 3.77 -3.63 5.27" style="fill:#3b87c2"/><path d="m 7.14 24.2 c 0 0 3.63 0.75 6.17 -1.88 c 1.09 -1.13 1.09 -2.64 1.09 -2.64 l -1.45 -1.5 c 0 0 -1.82 0.38 -2.54 1.13 c -0.73 0.75 -1.29 2.25 -1.48 2.98 c -0.34 1.33 -1.78 1.91 -1.78 1.91" style="fill:#c1694e"/><path d="m 16.1 19.2 l -2.65 -2.76 c -0.2 -0.21 -0.49 -0.17 -0.65 0.08 l -0.58 0.91 c -0.16 0.25 -0.14 0.61 0.04 0.8 l 2.12 2.2 c 0.18 0.19 0.53 0.21 0.77 0.04 l 0.88 -0.6 c 0.24 -0.16 0.27 -0.47 0.07 -0.68" style="fill:#ccd6dd"/><path d="m 12.68 22.89 c -0.61 0.41 -0.94 0.07 -0.82 -0.32 c 0.11 -0.4 -0.06 -0.88 -0.64 -0.75 c -0.57 0.13 -0.95 -0.19 -0.77 -0.94 c 0.18 -0.74 -0.56 -0.99 -0.9 -0.23 c -0.3 0.62 -0.52 1.26 -0.63 1.66 c -0.35 1.33 -1.79 1.91 -1.79 1.91 c 0 0 3.07 0.63 5.55 -1.32" style="fill:#9f031e"/></svg>