<svg xmlns="http://www.w3.org/2000/svg" viewBox="0 0 32 32"><path d="m 30.66 12.99 c -3.19 -21.34 -35.96 -14.1 -29.77 6.6 c 4.16 19.63 37.7 14.31 29.77 -6.6" style="fill:#2d84c5"/><g style="fill:#fff;fill-rule:evenodd"><path d="m 16.66 7.39 c 0.2 0.09 0.34 0.25 0.43 0.43 l 8 16.1 c -4.45 -1.66 -7.41 -2.48 -8.87 -2.48 c -1.46 0 -4.42 0.82 -8.87 2.48 l 8 -16.1 c 0.23 -0.48 0.82 -0.68 1.3 -0.43" style="fill-opacity:0.61"/><path d="m 16.66 7.39 c 0.2 0.09 0.34 0.25 0.43 0.43 l 2 4.05 l -11.74 12.1 l 8 -16.1 c 0.23 -0.48 0.82 -0.68 1.3 -0.43"/><path d="m 7.25 23.9 l 14.64 -6.25 l -2.89 -5.82" style="fill-opacity:0.47"/></g></svg>