<svg xmlns="http://www.w3.org/2000/svg" viewBox="0 0 32 32"><path d="m 4.83 6 c -19.96 28.38 31.96 37.41 26.81 7.26 c -2.73 -11.99 -18.81 -18.63 -26.81 -7.26" style="fill:#e6ecef"/><path d="m 6.97 25.36 c -0.13 -0.13 -0.12 -0.33 0.06 -0.87 c 0.25 -0.78 0.41 -2.02 0.41 -3.32 c 0 -1.3 -0.05 -1.67 -0.61 -4 c -0.15 -0.63 -0.27 -1.22 -0.27 -1.31 c 0 -0.11 0.24 -0.39 0.7 -0.82 c 0.75 -0.71 1.06 -1.21 1.32 -2.14 c 0.2 -0.7 0.19 -2.44 -0.01 -3.43 c -0.14 -0.67 -0.14 -0.75 -0.03 -0.86 c 0.14 -0.13 3.7 -1.31 3.96 -1.32 c 0.2 0 0.33 0.14 0.63 0.68 c 0.32 0.58 1.2 1.46 1.91 1.9 c 0.33 0.21 0.68 0.43 0.78 0.5 l 0.18 0.12 v 7.42 c 0 5.67 -0.02 7.44 -0.09 7.51 c -0.14 0.13 -8.8 0.13 -8.94 0 m 4.55 -0.82 c 0 -0.41 0.13 -0.61 0.39 -0.61 c 0.27 0 0.39 0.2 0.39 0.61 v 0.22 h 2.99 v -3.18 h -0.23 c -0.43 0 -0.63 -0.13 -0.63 -0.38 c 0 -0.25 0.21 -0.38 0.63 -0.38 h 0.23 v -10 l -0.57 -0.36 c -0.89 -0.56 -1.74 -1.43 -2.3 -2.34 c -0.07 -0.13 -0.2 -0.1 -1.57 0.34 c -0.82 0.26 -1.52 0.5 -1.55 0.53 c -0.03 0.03 -0.01 0.39 0.06 0.81 c 0.39 2.46 -0.19 4.49 -1.64 5.77 l -0.43 0.38 l 0.18 0.8 c 0.68 2.86 0.79 3.73 0.66 5.37 c -0.04 0.61 -0.15 1.44 -0.23 1.84 c -0.09 0.39 -0.16 0.75 -0.16 0.78 c 0 0.03 0.85 0.05 1.89 0.05 h 1.89 m 0.08 -1.63 c -0.04 -0.11 -0.08 -0.3 -0.08 -0.42 c 0 -0.12 0.04 -0.31 0.08 -0.42 c 0.07 -0.17 0.12 -0.2 0.34 -0.18 c 0.22 0.02 0.27 0.06 0.33 0.31 c 0.05 0.18 0.05 0.39 0 0.57 c -0.06 0.25 -0.11 0.29 -0.33 0.31 c -0.21 0.02 -0.27 -0.01 -0.34 -0.18 m -2.66 -1.64 c -0.14 -0.05 -0.18 -0.12 -0.16 -0.32 c 0.02 -0.21 0.06 -0.26 0.32 -0.32 c 0.18 -0.05 0.41 -0.05 0.59 0 c 0.26 0.06 0.3 0.1 0.32 0.32 c 0.02 0.21 -0.01 0.26 -0.18 0.32 c -0.25 0.09 -0.64 0.09 -0.89 0 m 1.89 0 c -0.15 -0.05 -0.18 -0.12 -0.16 -0.32 c 0.02 -0.21 0.06 -0.26 0.32 -0.32 c 0.18 -0.05 0.41 -0.05 0.59 0 c 0.26 0.06 0.3 0.1 0.32 0.32 c 0.02 0.21 -0.01 0.26 -0.18 0.32 c -0.25 0.09 -0.65 0.09 -0.89 0 m 1.89 0 c -0.14 -0.05 -0.18 -0.12 -0.16 -0.32 c 0.02 -0.21 0.06 -0.26 0.32 -0.32 c 0.18 -0.05 0.41 -0.05 0.59 0 c 0.26 0.06 0.3 0.1 0.32 0.32 c 0.02 0.21 -0.01 0.26 -0.18 0.32 c -0.25 0.09 -0.64 0.09 -0.89 0 m -1.12 -1.4 c -0.04 -0.11 -0.08 -0.3 -0.08 -0.42 c 0 -0.12 0.04 -0.31 0.08 -0.42 c 0.07 -0.17 0.12 -0.2 0.34 -0.18 c 0.22 0.02 0.27 0.06 0.33 0.31 c 0.05 0.18 0.05 0.39 0 0.57 c -0.06 0.25 -0.11 0.29 -0.33 0.31 c -0.21 0.02 -0.27 -0.01 -0.34 -0.18 m 0 -1.82 c -0.04 -0.11 -0.08 -0.3 -0.08 -0.42 c 0 -0.12 0.04 -0.31 0.08 -0.42 c 0.07 -0.17 0.12 -0.2 0.34 -0.18 c 0.22 0.02 0.27 0.06 0.33 0.31 c 0.05 0.18 0.05 0.39 0 0.57 c -0.06 0.25 -0.11 0.29 -0.33 0.31 c -0.21 0.02 -0.27 -0.01 -0.34 -0.18 m -3.6 -1.64 c -0.15 -0.05 -0.18 -0.12 -0.16 -0.32 c 0.02 -0.21 0.06 -0.26 0.32 -0.32 c 0.18 -0.05 0.41 -0.05 0.59 0 c 0.26 0.06 0.3 0.1 0.32 0.32 c 0.02 0.21 -0.01 0.26 -0.18 0.32 c -0.25 0.09 -0.64 0.09 -0.89 0 m 1.89 0 c -0.15 -0.05 -0.18 -0.12 -0.16 -0.32 c 0.02 -0.21 0.06 -0.26 0.32 -0.32 c 0.18 -0.05 0.41 -0.05 0.59 0 c 0.25 0.06 0.3 0.1 0.32 0.32 c 0.02 0.21 -0.01 0.26 -0.18 0.32 c -0.25 0.09 -0.64 0.09 -0.89 0 m 1.89 0 c -0.14 -0.05 -0.18 -0.12 -0.16 -0.32 c 0.02 -0.21 0.06 -0.26 0.32 -0.32 c 0.18 -0.05 0.41 -0.05 0.59 0 c 0.26 0.06 0.3 0.1 0.32 0.32 c 0.02 0.21 -0.01 0.26 -0.18 0.32 c -0.25 0.09 -0.64 0.09 -0.89 0 m 1.89 0 c -0.15 -0.05 -0.18 -0.12 -0.16 -0.32 c 0.02 -0.21 0.06 -0.26 0.32 -0.32 c 0.18 -0.05 0.41 -0.05 0.59 0 c 0.25 0.06 0.3 0.1 0.32 0.32 c 0.02 0.21 -0.01 0.26 -0.18 0.32 c -0.25 0.09 -0.64 0.09 -0.89 0 m -2.06 -1.4 c -0.04 -0.11 -0.08 -0.3 -0.08 -0.42 c 0 -0.12 0.04 -0.31 0.08 -0.42 c 0.07 -0.17 0.12 -0.2 0.34 -0.18 c 0.22 0.02 0.27 0.06 0.33 0.31 c 0.05 0.18 0.05 0.39 0 0.57 c -0.06 0.25 -0.11 0.29 -0.33 0.31 c -0.21 0.02 -0.27 -0.01 -0.34 -0.18 m 0 -1.82 c -0.04 -0.11 -0.08 -0.3 -0.08 -0.42 c 0 -0.12 0.04 -0.31 0.08 -0.42 c 0.07 -0.17 0.12 -0.2 0.34 -0.18 c 0.22 0.02 0.27 0.06 0.33 0.31 c 0.05 0.18 0.05 0.39 0 0.57 c -0.06 0.25 -0.11 0.29 -0.33 0.31 c -0.21 0.02 -0.27 -0.01 -0.34 -0.18 m 0 -1.82 c -0.04 -0.11 -0.08 -0.3 -0.08 -0.42 c 0 -0.12 0.04 -0.31 0.08 -0.42 c 0.07 -0.17 0.12 -0.2 0.34 -0.18 c 0.22 0.02 0.27 0.06 0.33 0.31 c 0.05 0.18 0.05 0.39 0 0.57 c -0.06 0.25 -0.11 0.29 -0.33 0.31 c -0.21 0.02 -0.27 -0.01 -0.34 -0.18 m 0 -1.82 c -0.04 -0.11 -0.08 -0.3 -0.08 -0.42 c 0 -0.12 0.04 -0.31 0.08 -0.42 c 0.07 -0.17 0.12 -0.2 0.34 -0.18 c 0.22 0.02 0.27 0.06 0.33 0.31 c 0.05 0.18 0.05 0.39 0 0.57 c -0.06 0.25 -0.11 0.29 -0.33 0.3 c -0.21 0.02 -0.27 -0.01 -0.34 -0.17 m 5.76 15.27 c -0.13 -0.13 -0.13 -3.94 0 -4.07 c 0.14 -0.13 7.86 -0.13 8 0 c 0.13 0.13 0.13 3.94 0 4.07 c -0.14 0.13 -7.86 0.13 -8 0 m 3.61 -0.81 c 0 -0.41 0.13 -0.61 0.39 -0.61 c 0.27 0 0.39 0.2 0.39 0.61 v 0.22 h 2.99 v -1.06 h -0.39 c -0.58 0 -0.79 -0.1 -0.79 -0.38 c 0 -0.28 0.21 -0.38 0.79 -0.38 h 0.39 v -1.06 h -2.96 l -0.07 0.25 c -0.06 0.21 -0.11 0.25 -0.34 0.25 c -0.23 0 -0.28 -0.03 -0.34 -0.25 l -0.07 -0.25 h -2.97 v 1.06 h 0.39 c 0.59 0 0.79 0.1 0.79 0.38 c 0 0.28 -0.21 0.38 -0.79 0.38 h -0.39 v 1.06 h 2.99 m -1.01 -1.14 c -0.14 -0.05 -0.18 -0.12 -0.16 -0.32 c 0.02 -0.21 0.06 -0.26 0.32 -0.32 c 0.18 -0.04 0.41 -0.04 0.59 0 c 0.26 0.06 0.3 0.1 0.32 0.32 c 0.02 0.21 -0.01 0.26 -0.18 0.32 c -0.25 0.09 -0.64 0.09 -0.89 0 m 1.89 0 c -0.15 -0.05 -0.18 -0.12 -0.16 -0.32 c 0.02 -0.21 0.06 -0.26 0.32 -0.32 c 0.18 -0.04 0.41 -0.04 0.59 0 c 0.25 0.06 0.3 0.1 0.32 0.32 c 0.02 0.21 -0.01 0.26 -0.18 0.32 c -0.25 0.09 -0.64 0.09 -0.89 0 m -3.9 -4.11 c -0.14 -0.21 -1.35 -8.77 -1.28 -9 c 0.03 -0.1 0.25 -0.32 0.5 -0.5 c 0.25 -0.17 0.79 -0.61 1.2 -0.97 c 0.46 -0.4 0.95 -0.75 1.26 -0.89 c 0.49 -0.23 0.56 -0.25 1.42 -0.25 c 0.86 0 0.93 0.01 1.42 0.25 c 0.32 0.15 0.8 0.49 1.26 0.89 c 0.41 0.36 0.95 0.8 1.2 0.97 c 0.25 0.18 0.47 0.4 0.5 0.5 c 0.07 0.25 -1.15 8.8 -1.29 9 l -0.11 0.17 h -5.97 m 5.54 -0.93 c 0.02 -0.13 0.29 -1.98 0.59 -4.11 l 0.55 -3.87 l -0.29 -0.23 c -0.16 -0.13 -0.57 -0.46 -0.91 -0.76 c -1.27 -1.09 -1.6 -1.25 -2.5 -1.25 c -0.9 0 -1.23 0.17 -2.5 1.25 c -0.34 0.29 -0.75 0.63 -0.91 0.76 l -0.29 0.23 l 0.55 3.87 c 0.3 2.13 0.57 3.98 0.6 4.11 l 0.04 0.25 h 5 m -2.82 -0.72 c -0.04 -0.11 -0.08 -0.3 -0.08 -0.42 c 0 -0.12 0.04 -0.3 0.08 -0.42 c 0.07 -0.16 0.12 -0.2 0.34 -0.18 c 0.22 0.02 0.27 0.06 0.33 0.31 c 0.04 0.18 0.04 0.39 0 0.57 c -0.06 0.25 -0.11 0.29 -0.33 0.31 c -0.21 0.02 -0.27 -0.01 -0.34 -0.18 m 0 -1.82 c -0.04 -0.11 -0.08 -0.3 -0.08 -0.42 c 0 -0.12 0.04 -0.31 0.08 -0.42 c 0.07 -0.16 0.12 -0.2 0.34 -0.18 c 0.22 0.02 0.27 0.06 0.33 0.31 c 0.04 0.18 0.04 0.39 0 0.57 c -0.06 0.25 -0.11 0.29 -0.33 0.31 c -0.21 0.02 -0.27 -0.01 -0.34 -0.18 m 0 -1.82 c -0.04 -0.11 -0.08 -0.3 -0.08 -0.42 c 0 -0.12 0.04 -0.31 0.08 -0.42 c 0.07 -0.17 0.12 -0.2 0.34 -0.18 c 0.22 0.02 0.27 0.06 0.33 0.31 c 0.04 0.18 0.04 0.39 0 0.57 c -0.06 0.25 -0.11 0.29 -0.33 0.31 c -0.21 0.02 -0.27 -0.01 -0.34 -0.18 m 0 -1.82 c -0.04 -0.11 -0.08 -0.3 -0.08 -0.42 c 0 -0.12 0.04 -0.31 0.08 -0.42 c 0.07 -0.17 0.12 -0.2 0.34 -0.18 c 0.22 0.02 0.27 0.06 0.33 0.31 c 0.04 0.18 0.04 0.39 0 0.57 c -0.06 0.25 -0.11 0.29 -0.33 0.31 c -0.21 0.02 -0.27 -0.01 -0.34 -0.18 m -2.66 -1.63 c -0.13 -0.05 -0.18 -0.13 -0.18 -0.3 c 0 -0.29 0.3 -0.43 0.67 -0.33 c 0.19 0.05 0.24 0.11 0.26 0.31 c 0.02 0.21 -0.01 0.26 -0.18 0.32 c -0.24 0.09 -0.33 0.09 -0.57 0 m 1.57 0 c -0.15 -0.05 -0.18 -0.12 -0.16 -0.32 c 0.02 -0.21 0.06 -0.26 0.32 -0.32 c 0.18 -0.05 0.41 -0.05 0.59 0 c 0.25 0.06 0.3 0.1 0.32 0.32 c 0.02 0.21 -0.01 0.26 -0.18 0.32 c -0.25 0.09 -0.64 0.09 -0.89 0 m 1.89 0 c -0.14 -0.05 -0.18 -0.12 -0.16 -0.32 c 0.02 -0.21 0.06 -0.26 0.32 -0.32 c 0.18 -0.05 0.41 -0.05 0.59 0 c 0.26 0.06 0.3 0.1 0.32 0.32 c 0.02 0.21 -0.01 0.26 -0.18 0.32 c -0.25 0.09 -0.64 0.09 -0.89 0 m 1.89 0 c -0.13 -0.05 -0.18 -0.13 -0.18 -0.3 c 0 -0.29 0.29 -0.43 0.67 -0.33 c 0.19 0.05 0.24 0.11 0.26 0.31 c 0.02 0.21 -0.01 0.26 -0.18 0.32 c -0.25 0.09 -0.33 0.09 -0.57 0 m -2.7 -1.1 c -0.04 -0.11 -0.08 -0.3 -0.08 -0.42 c 0 -0.12 0.04 -0.31 0.08 -0.42 c 0.07 -0.17 0.12 -0.2 0.34 -0.18 c 0.22 0.02 0.27 0.06 0.33 0.31 c 0.04 0.18 0.04 0.39 0 0.57 c -0.06 0.25 -0.11 0.29 -0.33 0.3 c -0.21 0.02 -0.27 -0.01 -0.34 -0.17"/></svg>