<svg xmlns="http://www.w3.org/2000/svg" viewBox="0 0 32 32"><path d="m 16.3 31.82 c -3.3 -0.25 -7.16 -1.83 -9.85 -4 c -3.27 -2.66 -5.68 -6.75 -6.31 -10.78 c -0.77 -5.32 2.32 -11 5.81 -13.75 c 1.75 -1.32 4.07 -2.37 6.25 -2.83 c 5.66 -1.2 11.57 1.07 15.63 6 c 2.43 2.95 3.68 5.93 3.99 9.45 c 0.37 4.22 -1.3 8.75 -4.35 11.8 c -3.47 2.88 -7 4.43 -11.15 4.14" style="fill:#ff8c00"/><path d="m 15.1 26.2 c -2.54 -0.31 -4.48 -1.21 -6.2 -2.88 c -2.61 -2.52 -3.62 -6.1 -2.75 -9.57 c 1.37 -5.56 7.13 -8.84 12.68 -7.23 c 2.54 0.73 4.82 2.58 6 4.87 c 0.84 1.6 1.19 3 1.19 4.75 c 0 2.79 -1.04 5.24 -3.05 7.19 c -1.49 1.45 -3.18 2.33 -5.15 2.71 c -0.75 0.14 -2.22 0.23 -2.75 0.17 m 0.61 -3.89 c 0.05 -0.06 0.11 -0.23 0.15 -0.38 c 0.03 -0.14 0.12 -0.48 0.2 -0.74 l 0.14 -0.48 l 0.79 0.06 c 1.57 0.13 2.4 -0.26 2.98 -1.37 c 0.29 -0.57 0.34 -0.72 0.34 -1.27 c 0 -0.7 -0.11 -0.96 -0.57 -1.41 l -0.32 -0.3 l 0.44 -0.39 c 0.46 -0.41 0.71 -0.97 0.71 -1.58 c 0 -0.85 -0.55 -1.56 -1.57 -2.07 c -0.46 -0.23 -0.65 -0.37 -0.62 -0.45 c 0.09 -0.23 0.32 -1.28 0.32 -1.46 c 0 -0.21 -0.47 -0.43 -0.93 -0.43 c -0.27 0 -0.32 0.04 -0.37 0.25 c -0.03 0.13 -0.13 0.48 -0.21 0.78 c -0.15 0.52 -0.16 0.54 -0.45 0.52 c -0.16 -0.01 -0.31 -0.04 -0.33 -0.05 c -0.02 -0.02 0.04 -0.39 0.15 -0.81 c 0.15 -0.6 0.17 -0.8 0.09 -0.89 c -0.16 -0.19 -0.96 -0.36 -1.11 -0.24 c -0.07 0.05 -0.2 0.42 -0.29 0.82 c -0.09 0.4 -0.22 0.75 -0.29 0.77 c -0.07 0.03 -0.55 -0.05 -1.08 -0.18 c -0.61 -0.15 -0.99 -0.2 -1.04 -0.14 c -0.11 0.11 -0.31 0.78 -0.32 1.04 c 0 0.16 0.09 0.22 0.49 0.34 c 0.5 0.14 0.76 0.32 0.76 0.52 c 0 0.06 -0.13 0.61 -0.3 1.22 c -0.17 0.61 -0.45 1.74 -0.63 2.51 c -0.18 0.77 -0.38 1.44 -0.45 1.49 c -0.09 0.07 -0.25 0.07 -0.58 -0.01 c -0.55 -0.13 -0.61 -0.09 -0.9 0.67 c -0.14 0.35 -0.18 0.55 -0.12 0.61 c 0.05 0.05 0.52 0.2 1.04 0.33 c 0.52 0.14 0.97 0.27 1 0.3 c 0.03 0.03 -0.03 0.36 -0.13 0.73 c -0.1 0.37 -0.18 0.76 -0.18 0.86 c 0 0.36 1.07 0.61 1.24 0.29 c 0.04 -0.09 0.16 -0.45 0.25 -0.8 c 0.15 -0.59 0.18 -0.64 0.39 -0.64 c 0.45 0 0.47 0.08 0.27 0.88 c -0.1 0.41 -0.17 0.8 -0.16 0.88 c 0.05 0.26 1.05 0.47 1.21 0.26 m -0.34 -3.52 c -0.79 -0.18 -0.77 -0.12 -0.39 -1.36 c 0.19 -0.62 0.3 -0.84 0.39 -0.81 c 0.07 0.02 0.43 0.11 0.79 0.21 c 1.18 0.3 1.62 0.63 1.62 1.2 c 0 0.2 -0.08 0.39 -0.26 0.58 c -0.24 0.27 -0.3 0.29 -0.87 0.31 c -0.34 0.01 -0.91 -0.05 -1.29 -0.13 m 0.87 -3.63 c -0.29 -0.06 -0.54 -0.13 -0.56 -0.15 c -0.05 -0.05 0.28 -1.75 0.35 -1.82 c 0.03 -0.03 0.3 0.02 0.61 0.11 c 1.34 0.36 1.75 0.82 1.38 1.55 c -0.22 0.43 -0.79 0.52 -1.77 0.31" style="fill:#fff"/></svg>