<svg xmlns="http://www.w3.org/2000/svg" viewBox="0 0 32 32"><path d="m 3.74 21.67 c -1.53 -1.93 -3.07 -5.57 -3.27 -7.74 c -0.3 -3.14 0.75 -6.76 2.61 -8.93 c 2.47 -2.9 7.5 -4.84 12.54 -4.8 c 3.61 0.02 8.46 1.09 10.94 2.42 c 2.11 1.13 3.62 2.8 4.46 4.91 c 1.14 2.86 1.21 5.66 0.22 8.45 c -1.61 5.95 -5.33 9.97 -8.66 13.18 c -8.46 7.17 -14.18 -1.5 -18.83 -7.49" style="fill:#0027b7"/><g style="fill:#fff"><path d="m 8.18 11.28 c -0.64 -1.05 -0.76 -1.32 -0.61 -1.42 c 0.18 -0.11 16.56 -0.08 16.68 0.04 c 0.08 0.09 -0.45 1.18 -0.77 1.6 l -0.19 0.25 h -14.82"/><path d="m 14.57 22.46 c -2.93 -5 -4.95 -8.64 -4.89 -8.7 c 0.1 -0.1 12.48 -0.14 12.58 -0.04 c 0.09 0.09 -1.29 2.61 -4.15 7.63 c -1.72 3 -1.99 3.46 -2.11 3.46 c -0.04 0 -0.68 -1.06 -1.43 -2.35 m 2.55 -3.48 c 1.3 -2.25 1.71 -3.04 1.64 -3.16 c -0.04 -0.06 -1.03 -0.1 -2.79 -0.1 c -2.46 0 -2.73 0.02 -2.73 0.16 c 0 0.23 1.91 3.66 2.57 4.61 c 0.25 0.36 0.21 0.4 1.31 -1.52"/></g></svg>