<svg xmlns="http://www.w3.org/2000/svg" viewBox="0 0 32 32"><path d="m 27.41 6 c 19.96 28.38 -31.96 37.41 -26.81 7.25 c 2.73 -11.99 18.81 -18.63 26.81 -7.25" style="fill:#f4f4f4"/><path d="m 7.29 19.54 c -0.11 -0.22 0.71 -3.5 0.91 -3.67 c 0.24 -0.2 0.76 -0.15 0.83 0.09 c 0.04 0.12 -0.13 0.99 -0.37 1.93 c -0.43 1.66 -0.45 1.72 -0.86 1.77 c -0.23 0.03 -0.46 -0.02 -0.51 -0.12 m 17.33 -0.04 c -0.05 -0.11 0.32 -0.97 0.83 -1.93 l 0.93 -1.75 l 0.97 -0.03 c 0.59 -0.02 1.02 0.05 1.09 0.17 c 0.1 0.17 0.43 2.71 0.43 3.34 c 0 0.34 -0.91 0.27 -1.06 -0.09 c -0.12 -0.28 -0.18 -0.57 -0.41 0.09 c -0.14 0.4 -0.41 0.39 -1.48 0.39 c -0.72 0 -1.23 -0.07 -1.29 -0.19 m 3.08 -1.25 c 0.07 -0.23 -0.01 -1.52 -0.13 -1.97 c -0.04 -0.18 -0.1 -0.19 -0.25 -0.03 c -0.33 0.35 -0.91 1.73 -0.83 1.99 c 0.1 0.33 1.11 0.34 1.2 0.01 m -23.77 0.88 c -0.07 -0.43 -0.34 -4 -0.34 -4.47 c 0 -0.22 0.11 -0.3 0.39 -0.3 c 0.22 0 0.43 0.06 0.46 0.14 c 0.04 0.08 0.14 0.83 0.22 1.68 c 0.08 0.84 0.2 1.6 0.27 1.69 c 0.07 0.09 0.31 -0.2 0.56 -0.67 c 0.25 -0.45 0.7 -1.27 1.01 -1.82 l 0.57 -1 h 1.15 c 0.14 0 -0.08 0.29 0.32 -0.03 c 0.29 -0.23 0.8 0.03 0.83 0.33 c 0.06 0.62 -0.98 1.04 -1.04 0.36 c -0.05 -0.58 -0.14 -0.32 -0.22 -0.29 c -0.08 0.04 -0.71 1.12 -1.4 2.41 l -1.26 2.35 h -0.73 c -0.65 0 -0.73 -0.04 -0.79 -0.39 m 5.13 0.26 c -0.03 -0.07 -0.01 -0.3 0.05 -0.52 c 0.11 -0.35 0.2 -0.39 1.09 -0.39 c 1.07 0 1.4 -0.16 1.27 -0.58 c -0.05 -0.18 -0.25 -0.27 -0.55 -0.27 c -0.87 0 -1.52 -0.69 -1.4 -1.48 c 0.07 -0.47 0.67 -0.51 0.98 -0.07 c 0.18 0.25 0.42 0.35 0.84 0.35 c 1.2 0 1.68 1.48 0.84 2.57 c -0.41 0.52 -0.44 0.53 -1.74 0.53 c -0.73 0 -1.35 -0.06 -1.39 -0.13 m 3.69 -0.34 c 0 -0.26 0.17 -1.09 0.37 -1.85 c 0.33 -1.26 0.39 -1.38 0.75 -1.43 c 0.21 -0.03 0.44 0.02 0.51 0.1 c 0.11 0.14 -0.41 3 -0.62 3.47 c -0.05 0.1 -0.3 0.18 -0.55 0.18 c -0.42 0 -0.46 -0.05 -0.45 -0.47 m 1.61 0.17 c 0 -0.57 1.06 -4.74 1.23 -4.88 c 0.24 -0.2 2.44 -0.18 2.85 0.02 c 0.7 0.34 0.58 1.93 -0.25 3.55 c -0.63 1.23 -1.29 1.61 -2.73 1.61 c -0.96 0 -1.1 -0.04 -1.1 -0.3 m 2.43 -1.32 c 0.51 -0.44 1.02 -1.63 0.89 -2.07 c -0.1 -0.33 -1.23 -0.38 -1.39 -0.05 c -0.14 0.27 -0.58 2.04 -0.58 2.32 c 0 0.35 0.57 0.25 1.08 -0.2 m 1.07 1.48 c 0 -0.21 1.73 -3.36 1.92 -3.49 c 0.18 -0.13 1.93 -0.1 2.03 0.03 c 0.07 0.09 0.35 2.61 0.35 3.18 c 0 0.34 -0.07 0.42 -0.39 0.42 c -0.25 0 -0.46 -0.13 -0.58 -0.38 l -0.2 -0.38 l -0.16 0.38 c -0.15 0.36 -0.25 0.38 -1.57 0.38 c -0.77 0 -1.41 -0.06 -1.41 -0.14 m 3.18 -1.15 c 0.11 -0.37 -0.08 -2.14 -0.23 -2.14 c -0.2 0 -1.09 1.89 -1.01 2.16 c 0.11 0.35 1.14 0.33 1.25 -0.02 m 1.91 1.21 c -0.1 -0.13 0.54 -3.18 0.73 -3.48 c 0.15 -0.24 0.86 -0.29 0.96 -0.07 c 0.04 0.08 -0.1 0.91 -0.3 1.85 l -0.37 1.71 l -0.47 0.05 c -0.26 0.03 -0.51 0 -0.55 -0.05 m -13.1 -4.2 c -0.04 -0.09 0.09 -0.32 0.28 -0.52 c 0.3 -0.3 0.54 -0.36 1.61 -0.36 c 1.13 0 1.26 0.03 1.26 0.31 c 0 0.6 -0.28 0.72 -1.7 0.72 c -0.75 0 -1.41 -0.07 -1.45 -0.16 m 3.77 0.02 c -0.25 -0.53 0.41 -1.25 0.93 -1 c 0.24 0.12 0.27 0.64 0.04 0.93 c -0.18 0.23 -0.86 0.28 -0.97 0.06 m 6.51 -0.06 c 0.01 -0.55 0.37 -0.85 0.96 -0.79 c 0.52 0.05 0.59 0.1 0.59 0.48 c 0 0.4 -0.05 0.43 -0.77 0.48 c -0.57 0.04 -0.77 -0.01 -0.77 -0.17 m 2.51 0.08 c -0.03 -0.07 -0.01 -0.3 0.05 -0.52 c 0.11 -0.37 0.18 -0.39 1.66 -0.39 c 1.41 0 1.55 0.03 1.55 0.31 c 0 0.61 -0.28 0.72 -1.77 0.72 c -0.79 0 -1.47 -0.06 -1.5 -0.13 m 4.21 -0.05 c 0 -0.56 0.29 -0.85 0.86 -0.85 c 0.49 0 0.6 0.06 0.66 0.37 c 0.04 0.21 0.05 0.44 0.01 0.52 c -0.1 0.21 -1.53 0.18 -1.53 -0.04"/></svg>