<svg xmlns="http://www.w3.org/2000/svg" viewBox="0 0 32 32"><path d="m 16 0.34 c 21.41 -2.39 21.1 31.84 -0.38 31.43 c -19.98 1.13 -21.79 -33.3 0.38 -31.43" style="fill:#46cfcc"/><path d="m 13.46 5.14 h 5.27 c 1.14 0 2.07 0.7 2.07 1.55 v 18.73 c 0 0.86 -0.93 1.55 -2.07 1.55 h -5.27 c -1.14 0 -2.07 -0.7 -2.07 -1.55 v -18.73 c 0 -0.86 0.93 -1.55 2.07 -1.55" style="fill:#77767a"/><path d="m 11.46 9 h 8.98 c 1.14 0 2.07 0.7 2.07 1.55 v 10.82 c 0 0.86 -0.93 1.55 -2.07 1.55 h -8.98 c -1.14 0 -2.07 -0.7 -2.07 -1.55 v -10.82 c 0 -0.86 0.93 -1.55 2.07 -1.55" style="fill:#344fa3"/><path d="m 10.34 24 c -0.25 -0.09 -0.57 -0.24 -0.7 -0.32 c -0.28 -0.19 -1.09 -1.18 -1.31 -1.6 c -0.29 -0.56 -0.4 -5.1 -0.23 -9.57 l 0.08 -2.12 c 0.44 -1.05 1.21 -1.99 2.12 -2.36 l 0.57 -0.22 h 5.09 c 5.06 0 5.1 0 5.64 0.21 c 1.18 0.64 1.62 1.27 2.11 2.38 v 5.74 c 0 4.6 -0.02 5.78 -0.12 5.96 c -0.54 0.78 -1.27 1.63 -1.98 1.88 c -0.62 0.21 -0.68 0.21 -5.71 0.21 c -4.63 0 -5.13 -0.02 -5.56 -0.17 m 11.31 -2.12 c 0.11 -0.07 0.29 -0.24 0.39 -0.39 c 0.17 -0.27 0.17 -0.49 0.17 -5.59 c 0 -5.75 0.01 -5.58 -0.5 -5.93 c -0.25 -0.17 -0.48 -0.18 -5.77 -0.18 c -5.36 0 -5.51 0 -5.8 0.19 c -0.57 0.37 -0.57 0.29 -0.54 6.11 l 0.03 5.25 l 0.23 0.25 c 0.13 0.14 0.31 0.29 0.41 0.33 c 0.1 0.04 2.66 0.08 5.68 0.08 c 4.31 0 5.55 -0.02 5.71 -0.12" style="fill:#221e2f"/><g style="fill:#fff"><path d="m 10.55 16.1 c -0.17 -0.34 0.35 -0.59 0.97 -0.46 c 0.26 0.04 0.49 0.27 0.37 0.49 c -0.35 0.22 -1.05 0.29 -1.34 -0.03"/><path d="m 11.31 18.85 c -0.04 -0.03 -0.09 -0.09 -0.12 -0.15 c -0.04 -0.09 -0.04 -0.11 0.03 -0.21 c 0.21 -0.22 0.42 -0.38 0.64 -0.16 c 0.07 0.1 0.08 0.13 0.03 0.24 c -0.11 0.25 -0.42 0.41 -0.58 0.28"/><path d="m 13.25 20.81 c -0.21 -0.1 -0.23 -0.36 -0.03 -0.54 c 0.17 -0.17 0.28 -0.18 0.4 -0.06 c 0.15 0.16 0.13 0.33 -0.07 0.56 c -0.09 0.1 -0.17 0.11 -0.3 0.04"/><path d="m 15.74 21.43 c -0.13 -0.14 -0.17 -0.41 -0.11 -0.8 c 0.07 -0.45 0.16 -0.55 0.43 -0.52 c 0.24 0.21 0.24 0.96 0.11 1.29 c -0.07 0.15 -0.29 0.16 -0.42 0.03"/><path d="m 15.82 11.73 c -0.14 -0.07 -0.2 -0.27 -0.2 -0.64 c 0 -0.55 0.14 -0.79 0.42 -0.76 c 0.25 0.2 0.18 0.65 0.15 1.04 l -0.04 0.39 c -0.12 0.02 -0.23 0 -0.34 -0.03"/><path d="m 13.37 11.73 c -0.11 -0.04 -0.25 -0.23 -0.29 -0.39 c -0.04 -0.15 0.15 -0.33 0.33 -0.32 c 0.2 0.08 0.37 0.35 0.28 0.52 c -0.09 0.15 -0.21 0.22 -0.32 0.18"/><path d="m 11.45 13.59 c -0.14 -0.06 -0.26 -0.21 -0.26 -0.32 c 0 -0.11 0.2 -0.33 0.3 -0.33 c 0.14 0 0.41 0.3 0.41 0.45 c 0 0.21 -0.21 0.3 -0.44 0.2"/><path d="m 18.28 11.64 c -0.1 -0.08 -0.12 -0.12 -0.09 -0.21 c 0.07 -0.27 0.39 -0.44 0.54 -0.29 c 0.09 0.09 0.08 0.21 -0.03 0.41 c -0.11 0.2 -0.25 0.23 -0.42 0.09"/><path d="m 20.1 13.56 c -0.21 -0.16 -0.08 -0.45 0.25 -0.58 c 0.41 -0.03 0.34 0.45 0.13 0.59 c -0.17 0.11 -0.24 0.11 -0.38 0"/><path d="m 20.2 18.78 c -0.16 -0.15 -0.2 -0.32 -0.12 -0.46 c 0.1 -0.17 0.27 -0.16 0.48 0.02 c 0.2 0.18 0.22 0.29 0.07 0.45 c -0.13 0.14 -0.29 0.14 -0.44 -0.01"/><path d="m 18.48 20.78 c -0.13 -0.05 -0.31 -0.29 -0.31 -0.39 c 0 -0.1 0.23 -0.28 0.34 -0.28 c 0.09 0 0.24 0.26 0.27 0.46 c 0.02 0.15 0.01 0.17 -0.09 0.21 c -0.06 0.02 -0.12 0.04 -0.12 0.04 c -0.04 -0.01 -0.06 -0.02 -0.09 -0.04"/><path d="m 20.91 16.21 c 0.14 -0.02 0.24 -0.09 0.33 -0.18 c 0.17 -0.34 -0.35 -0.59 -0.97 -0.46 c -0.26 0.05 -0.49 0.27 -0.37 0.49 c 0.23 0.25 0.7 0.19 1.01 0.15"/><path d="m 14 17.94 l -0.21 -0.21 c -0.2 0.3 -0.49 0.62 -0.75 0.5 c -0.23 -0.11 -0.27 -0.31 -0.27 -1.21 c 0 -1.2 -0.01 -1.19 1.23 -1.19 c 1.03 0 1.13 0.04 1.13 0.41 c -0.02 0.32 -0.25 0.51 -0.55 0.56 c -0.15 0.02 -0.21 0.06 -0.21 0.12 c 0 0.14 0.51 0.58 0.87 0.75 c 0.68 0.33 1.29 0.17 2.06 -0.53 c 0.46 -0.42 0.57 -0.48 0.72 -0.44 c 0.44 0.14 0.38 0.61 -0.14 1.13 c -0.32 0.33 -0.88 0.66 -1.28 0.77 c -0.91 0.18 -1.91 -0.02 -2.59 -0.66"/></g><path d="m 16.85 15.84 c -0.39 -0.18 -0.23 -0.7 0.25 -0.78 c 0.39 -0.06 0.43 -0.18 0.18 -0.46 c -0.35 -0.4 -0.8 -0.59 -1.39 -0.59 c -0.56 0.02 -0.94 0.21 -1.36 0.6 c -0.57 0.54 -0.73 0.6 -0.92 0.36 c -0.19 -0.24 -0.12 -0.48 0.29 -0.97 c 0.34 -0.41 1.14 -0.86 1.69 -0.95 c 0.69 -0.11 1.51 0.16 2.18 0.73 l 0.32 0.28 l 0.12 -0.25 c 0.14 -0.29 0.28 -0.39 0.51 -0.34 c 0.41 0.38 0.49 1.77 0.23 2.32 c -0.53 0.1 -1.48 0.32 -2.11 0.05" style="fill:#ff8c00"/></svg>