<svg xmlns="http://www.w3.org/2000/svg" viewBox="0 0 32 32"><path d="m 28.78 24.34 c 10.1 -12.1 -6.91 -26.2 -22.1 -23.91 c -11.35 1.6 -6.79 33.51 9.7 31.38 c 4.9 -0.64 9.16 -3.51 12.44 -7.46" style="fill:#bac3ce"/><path d="m 20.58 24.74 c -0.96 -0.92 -2.72 -1.95 -3.59 -2.12 c -1.45 -0.41 -2.99 -0.49 -4.41 -0.48 c -0.91 0.01 -1 -0.47 -1.1 -0.65 c -0.09 -0.16 -0.43 0.23 -1.05 0.21 c -0.8 -0.02 -0.77 -0.28 -0.77 -0.71 c 0 -0.73 -0.3 -0.14 -0.78 -0.06 c -0.62 0.1 -0.84 -0.08 -0.84 -0.65 c 0 -0.35 -0.04 -0.42 -0.22 -0.37 c -0.7 0.21 -0.88 0.21 -1.04 0.02 c -0.13 -0.16 -0.13 -0.27 -0.03 -0.51 c 0.25 -0.53 1.36 -0.62 1.39 -0.11 c 0.04 0.53 0.11 0.27 0.89 0.25 c 0.83 -0.02 0.93 -0.01 0.89 0.31 c -0.09 0.69 0.17 0.67 0.79 0.27 c 0.62 -0.41 0.65 0.83 0.78 0.93 c 1.07 -1.12 1.11 -2.87 1.75 -4.2 c 0.47 -0.95 0.31 -0.57 -0.32 -0.4 c -0.7 0.14 -1.28 0.2 -1.24 -0.44 l 0.03 -0.49 l -0.56 0.07 c -0.74 0.1 -0.95 0.01 -0.95 -0.42 c 0 -0.89 1.51 -1.36 1.88 -0.6 c 0.16 0.33 -0.21 0.63 0.83 0.27 c 0.5 -0.17 0.84 -0.08 0.83 0.13 c -0.02 0.9 0.39 0.26 0.39 -0.01 c 0.16 -0.75 1.79 -3.73 1.8 -4.38 c 0 -0.26 -0.32 0.53 -1.02 0.61 c -0.88 0.1 -1.11 -0.06 -0.97 -0.7 c 0.08 -0.36 0.07 -0.39 -0.14 -0.3 c -0.13 0.06 -0.46 0.11 -0.75 0.11 c -0.53 0.04 -0.51 0.03 -0.49 -0.47 c 0.02 -0.57 0.13 -0.71 0.7 -0.83 c 0.64 -0.13 0.87 -0.04 0.96 0.38 c 0.07 0.37 0.08 0.37 0.76 0.29 c 0.48 -0.06 0.74 -0.04 0.88 0.08 c 0.14 0.12 0.78 0.15 2.44 0.14 c 1.34 -0.11 2.65 0.09 3.87 0.43 c 1.05 0.29 2.85 1.35 3.84 2.27 c 0.94 0.87 0.93 0.84 0.46 2 c -0.48 1.2 -1.18 2.9 -1.29 3.15 c -0.9 2.21 -1.93 4.52 -2.72 6.55 c -0.31 0.82 -0.6 1.2 -0.9 1.19 c -0.07 0 -0.5 -0.36 -0.95 -0.79 m -14.85 -6.21 c -0.24 -0.29 0.01 -0.62 0.47 -0.62 c 0.52 0 0.8 0.79 0.31 0.98 c -0.42 0.16 -0.58 -0.12 -0.78 -0.36 m -1.09 -0.82 c -0.25 -0.1 -0.31 -0.76 -0.03 -0.85 c 0.3 -0.09 0.75 0.17 0.75 0.41 c 0.3 0.86 -0.26 0.75 -0.72 0.44 m 4.33 -3.19 c -0.11 -0.28 0.17 -0.7 0.52 -0.79 c 0.51 -0.13 0.71 0.02 0.67 0.48 c -0.04 0.39 -0.07 0.41 -0.58 0.45 c -0.39 0.03 -0.56 -0.01 -0.61 -0.15 m -0.93 -0.97 c -0.13 -0.21 -0.02 -0.85 0.24 -0.93 c 0.32 -0.1 0.43 0.03 0.5 0.32 c 0.2 0.77 -0.57 0.9 -0.75 0.62 m -1.11 -1.21 c -0.29 -0.21 -0.47 -0.56 -0.31 -0.78 c 0.47 -0.64 1.29 0.37 1.25 0.47 c -0.32 0.84 -0.54 0.6 -0.94 0.31 m 4.26 -3 c -0.27 -0.32 0.16 -0.82 0.7 -0.82 c 0.57 0 0.7 0.29 0.3 0.7 c -0.33 0.35 -0.77 0.4 -1 0.12 m -0.98 -1.1 c -0.22 -0.22 0.04 -0.85 0.42 -0.85 c 0.21 0 0.43 0.39 0.43 0.55 c 0 0.44 -0.56 0.59 -0.85 0.3 m -1.04 -0.95 c -0.22 -0.13 -0.56 -0.87 0.05 -0.95 c 0.18 -0.02 0.73 0.55 0.71 0.69 c -0.05 0.23 -0.34 0.51 -0.76 0.25" style="fill:#212121"/><path d="m 14.16 20.39 c -0.19 -0.04 -0.34 -0.17 -0.34 -0.3 c 0 -0.41 1.21 -3.25 1.48 -3.45 c 0.27 -0.21 1.37 -0.14 2.49 0.14 c 0.54 0.14 0.57 0.18 0.5 0.57 c -0.39 1.13 -0.72 2.25 -1.26 3.35 c -0.91 -0.05 -1.85 -0.39 -2.87 -0.31" style="fill:#02a4ff"/><path d="m 15.69 15.43 c 0.5 -1.59 1 -2.57 1.58 -3.95 c 0.71 0.07 3.12 0.16 3.14 0.71 c -0.42 1.25 -0.93 2.18 -1.55 3.42 c -1.73 -0.48 -1.92 -0.18 -3.16 -0.18" style="fill:#f30"/><path d="m 22.83 17.53 c -0.09 -0.08 -0.79 -0.5 -1.26 -0.75 c -0.76 -0.39 -1.07 -0.58 -1.05 -0.96 c 0.02 -0.52 1.43 -3.14 1.7 -3.3 c 0.47 -0.28 2.47 0.95 2.38 1.46 c -0.03 0.16 -0.35 0.99 -0.71 1.86 c -0.63 1.51 -0.69 2 -1.06 1.68" style="fill:#66cd33"/><path d="m 18.56 20.81 c -0.09 -0.36 0.98 -3.04 1.34 -3.33 c 0.23 -0.19 1.02 0.1 1.88 0.68 c 0.49 0.33 0.71 0.71 0.65 1.09 c -0.07 0.46 -1.18 3.21 -1.38 3.41 c -0.65 -0.75 -2.3 -1.23 -2.5 -1.86" style="fill:#ffd600"/></svg>