<svg xmlns="http://www.w3.org/2000/svg" viewBox="0 0 32 32"><path d="m 6.12 6.17 c -26.1 34.73 45.61 34.2 19.77 0.14 c -4.67 -5.99 -14.37 -8.93 -19.77 -0.14" style="fill:#d6c5b8"/><path d="m 14.29 27.61 c -0.86 -0.28 -1.55 -0.68 -2.18 -1.27 c 0.96 0.05 1.99 -0.14 2.68 -0.34 l 1.19 -0.34 l 1.03 0.31 c 0.68 0.2 1.32 0.32 1.89 0.36 c 0.47 0.02 0.85 0.08 0.85 0.12 c 0 0.24 -1.36 0.96 -2.3 1.21 c -0.71 0.19 -2.46 0.16 -3.16 -0.04 m -1.9 -2.27 c -1.07 -0.69 -1.94 -1.81 -2.29 -2.99 c -0.2 -0.67 -0.21 -0.66 0.36 -0.6 c 0.48 0.05 0.59 0.13 1.84 1.21 c 0.73 0.63 1.66 1.36 2.05 1.61 c 0.39 0.25 0.71 0.5 0.71 0.57 c 0 0.12 -1 0.49 -1.6 0.59 c -0.34 0.05 -0.47 0.01 -1.07 -0.38 m 5.62 0.28 c -0.57 -0.13 -1.24 -0.39 -1.24 -0.47 c 0 -0.02 0.38 -0.29 0.85 -0.59 c 0.47 -0.3 1.42 -1.05 2.11 -1.66 c 1.15 -1.02 1.29 -1.11 1.73 -1.15 c 0.58 -0.05 0.6 0.02 0.26 0.96 c -0.38 1.07 -1.62 2.45 -2.62 2.9 c -0.63 0.18 -0.66 0.11 -1.1 0.01 m -3.09 -1.39 c -0.93 -0.61 -2.78 -2.24 -2.78 -2.45 c 0 -0.08 0.31 -0.19 0.8 -0.3 c 0.99 -0.2 1.88 -0.52 2.86 -0.79 c 1.08 0.15 2 0.54 3.14 0.79 c 0.44 0.09 0.82 0.21 0.86 0.25 c 0.08 0.11 -1.11 1.3 -1.89 1.88 c -0.8 0.6 -1.78 1.19 -1.98 1.19 c -0.08 0 -0.54 -0.26 -1.02 -0.57 m -3.95 -3.44 c -0.87 -0.83 -1.38 -1.73 -1.58 -2.83 c -0.08 -0.38 -0.07 -0.74 0.02 -1.12 l 0.74 0.15 c 0.7 0.14 0.79 0.2 1.67 0.97 c 0.82 0.72 2.46 1.8 3 1.98 c 0.48 0.16 -0.08 0.44 -1.68 0.84 c -1.2 0.32 -1.64 0.49 -2.16 0 m 8.82 0.25 c -0.8 -0.16 -2.55 -0.67 -2.76 -0.8 c -0.18 -0.12 -0.18 -0.14 0.13 -0.3 c 1.18 -0.63 1.99 -1.17 2.86 -1.91 c 0.88 -0.75 1.06 -0.87 1.63 -1 c 0.83 -0.19 0.96 -0.14 0.96 0.38 c 0 1.09 -0.63 2.42 -1.54 3.26 c -0.54 0.5 -0.57 0.51 -1.27 0.37 m -4.74 -1.61 c -0.63 -0.29 -3.06 -1.98 -2.98 -2.32 c 0.04 -0.05 0.4 -0.14 0.8 -0.2 c 1.1 -0.2 2.02 -0.48 3.1 -0.79 c 0.97 0.29 1.95 0.58 2.94 0.76 c 0.51 0.09 0.93 0.21 0.93 0.25 c 0 0.18 -0.78 0.92 -1.46 1.38 c -0.9 0.63 -2.16 1.28 -2.45 1.27 c -0.13 0 -0.53 -0.16 -0.89 -0.36 m -4 -3.21 c -0.47 -0.44 -0.69 -1.2 -0.67 -2.32 c 0.02 -1.25 0.04 -1.27 0.8 -1 c 0.44 0.16 0.82 0.41 1.39 0.93 c 0.44 0.39 1.17 0.93 1.62 1.2 c 0.46 0.27 0.83 0.54 0.83 0.6 c 0 0.14 -1.46 0.55 -2.69 0.75 c -0.46 0.08 -0.87 0.14 -0.9 0.14 c -0.03 0 -0.2 -0.14 -0.38 -0.3 m 8.32 0.12 c -1.03 -0.2 -2.34 -0.57 -2.42 -0.69 c 0.76 -0.64 1.71 -1.16 2.5 -1.83 c 0.75 -0.66 1.06 -0.86 1.46 -0.95 c 0.28 -0.07 0.55 -0.09 0.59 -0.05 c 0.04 0.04 0.07 0.6 0.07 1.24 c -0.01 1.25 -0.19 1.82 -0.7 2.27 c -0.27 0.23 -0.34 0.23 -1.5 0.02 m -4.52 -1.59 c -0.86 -0.5 -2.04 -1.48 -2.04 -1.68 c 0 -0.05 0.11 -0.12 0.25 -0.14 c 0.82 -0.15 1.8 -0.38 2.33 -0.54 c 0.61 -0.18 0.62 -0.18 1.25 0.01 c 0.74 0.42 2 0.12 2.45 0.71 c 0 0.39 -2.57 2.17 -3.12 2.16 c -0.13 0 -0.63 -0.23 -1.12 -0.52 m -2.82 -2.52 c -0.32 -0.33 -0.22 -2.13 0.13 -2.5 c 0.17 -0.18 0.68 0.1 1.25 0.67 c 0.27 0.27 0.74 0.65 1.05 0.84 c 0.3 0.18 0.55 0.39 0.55 0.45 c 0 0.13 -0.36 0.26 -1.45 0.51 c -1.03 0.24 -1.33 0.25 -1.53 0.04 m 6.67 0.04 c -0.84 -0.18 -1.82 -0.48 -1.82 -0.56 c 0 -0.04 0.25 -0.24 0.55 -0.43 c 0.74 -0.4 1.2 -1.18 1.96 -1.53 c 0.38 -0.2 0.36 -0.16 0.54 0.2 c 0.26 0.55 0.32 1.64 0.11 2.08 c -0.15 0.32 -0.21 0.36 -0.54 0.35 c -0.2 -0.01 -0.56 -0.05 -0.8 -0.11 m -4.7 -2.23 c -0.14 -0.23 -0.04 -0.31 1.07 -0.77 l 0.89 -0.37 l 1.07 0.45 c 0.91 0.38 1.05 0.47 0.97 0.61 c -0.25 0.41 -1.74 1.47 -2.04 1.46 c -0.67 -0.31 -1.52 -0.73 -1.96 -1.38 m -0.73 -0.95 c -0.21 -0.19 -0.15 -0.86 0.13 -1.39 c 0.14 -0.27 0.32 -0.52 0.38 -0.55 c 0.64 -0.02 0.86 0.46 1.19 0.8 c 0.39 0.4 0.4 0.42 0.2 0.55 c -0.27 0.18 -1.5 0.7 -1.65 0.7 c -0.06 0 -0.18 -0.05 -0.25 -0.11 m 4.33 -0.18 c -0.76 -0.34 -0.94 -0.45 -0.94 -0.61 c 0 -0.18 1.16 -1.21 1.37 -1.21 c 0.31 0 0.74 0.95 0.7 1.56 c -0.04 0.64 -0.2 0.67 -1.13 0.26 m -2.48 -2.16 c 0 -0.36 0.3 -0.87 0.63 -1.06 c 0.27 -0.15 0.29 -0.15 0.6 0.11 c 0.44 0.37 0.61 0.89 0.42 1.29 c -0.16 0.33 -0.63 0.86 -0.76 0.86 c -0.41 -0.24 -0.88 -0.75 -0.89 -1.21" style="fill:#9c7653"/></svg>