<svg xmlns="http://www.w3.org/2000/svg" viewBox="0 0 32 32"><path d="m 29.68 7.86 c -24 -28.1 -47.1 29.64 -9.97 23.72 c 8.14 -1.3 16.43 -16.1 9.97 -23.72" style="fill:#3d4f20"/><path d="m 6.75 25 c 1.13 -1.24 6.8 -7.69 6.8 -7.73 c 0 -0.03 -1.35 -2.05 -3 -4.5 c -1.65 -2.45 -3 -4.46 -3 -4.49 c 0 -0.02 0.63 -0.04 1.41 -0.04 h 1.41 l 2.52 3.57 c 1.38 1.96 2.55 3.58 2.6 3.6 c 0.05 0.01 1.23 -1.59 2.62 -3.57 l 2.53 -3.6 h 2.88 l -0.16 0.23 c -0.43 0.61 -5.84 8.4 -5.97 8.6 l -0.15 0.23 l 3.2 3.75 c 1.76 2.06 3.27 3.84 3.37 3.94 l 0.18 0.19 h -4.39 l -2.13 -3.05 c -1.17 -1.68 -2.15 -3.05 -2.18 -3.05 c -0.02 0 -1 1.38 -2.18 3.05 l -2.14 3.05 h -4.37"/><path d="m 20.36 22.71 c -0.74 -0.97 -1.28 -3.1 -2.67 -2.52 c -0.61 0.25 -2.41 1.43 -2.73 1.09 c -2.67 0.05 -2.15 0.16 -4.08 -0.61 c -0.85 -0.14 -1.59 -1.11 -1.71 -1.46 c -0.07 -0.19 -0.29 -0.52 -0.48 -0.74 c -0.23 -0.25 -0.41 -0.88 -0.49 -1.71 c -0.13 -1.21 -0.1 -1.37 0.31 -1.79 c 0.26 -0.27 0.79 -0.52 1.26 -0.6 c 3.45 -0.36 4.25 -1.85 4.28 -2.33 c 0 -0.28 -0.14 -0.71 -0.3 -0.96 c -0.48 -0.72 -0.2 -1.09 0.82 -1.09 c 0.64 0 0.87 0.07 0.87 0.29 c 0 0.16 -0.14 0.88 0.25 0.88 c 0.09 0 0.21 -0.72 0.34 -0.88 c 0.36 -0.43 0.74 -0.36 1.11 0.2 l 0.18 0.76 l 0.38 -0.71 c 0.36 -0.68 0.36 -0.21 1.08 0.06 c 0.53 0.2 0.82 1.18 1.02 1.33 c 0.54 0.41 1.32 -0.11 1.78 -0.57 c 0.45 -0.44 0.66 -0.33 1.15 0.61 c 0.22 0.43 0.22 0.58 0 0.93 c -0.2 0.31 -1.85 0.76 -1.68 1.41 c 0.04 0.14 1.91 -1.61 1.97 0.81 c 0.04 1.39 0.07 1.54 -0.31 1.8 c -0.38 0.27 -1.83 0.21 -1.45 0.4 c 1.18 0.59 1.68 1.18 1.57 1.69 c -0.06 0.32 0.08 0.28 -0.07 0.85 c -0.11 0.45 -1.42 -0.57 -1.27 0.37 c 0.07 0.41 1.7 0.91 1.1 1.14 c -0.16 0.06 -0.27 0.45 -0.63 0.67 c -0.71 0.18 -1.3 -0.95 -1.18 -0.72 c 0.56 1.03 0.07 1.13 -0.4 1.43" style="fill:#fcc54d"/><path d="m 9.1 18.91 c -0.25 -0.28 -0.19 -0.49 0.1 -0.33 c 0.46 0.36 1.16 0.31 1.62 0.61 c 0.74 0.36 2.84 -0.05 3.3 -0.64 c 0.01 -0.15 0.85 -0.91 0.94 -0.85 c 0.05 0.03 0.09 0.15 0.09 0.27 c 0 0.16 -0.16 0.37 -0.61 0.8 c -0.79 0.95 -1.99 1 -2.61 1 c -0.67 0.14 -2.44 -0.44 -2.82 -0.86"/><g style="fill:#fff"><path d="m 17.88 14.43 c -0.14 0.77 -0.85 1.39 -1.59 1.39 c -0.75 0 -1.24 -0.63 -1.11 -1.39 c 0.14 -0.77 0.85 -1.39 1.6 -1.39 c 0.74 0 1.24 0.62 1.1 1.39"/><path d="m 15.41 13.28 c -0.1 0.54 -0.59 0.98 -1.12 0.98 c -0.52 0 -0.86 -0.44 -0.77 -0.98 c 0.09 -0.54 0.59 -0.98 1.11 -0.98 c 0.52 0 0.87 0.44 0.77 0.98"/></g><path d="m 8.95 17.38 c -0.14 -0.57 0.16 -1.21 0.66 -1.37 c 0.86 -0.29 1.32 0.69 0.51 1.09 c -0.35 0.17 -0.69 0.31 -1.04 0.46 c -0.04 0.02 -0.09 -0.07 -0.12 -0.19"/><path d="m 14.93 13.73 c -0.09 0.23 -0.32 0.36 -0.53 0.28 c -0.2 -0.07 -0.3 -0.32 -0.21 -0.55 c 0.09 -0.23 0.32 -0.36 0.53 -0.28 c 0.2 0.08 0.3 0.32 0.21 0.55"/><path d="m 17.23 14.86 c 0.02 0.27 -0.22 0.58 -0.53 0.69 c -0.31 0.11 -0.58 -0.03 -0.6 -0.3 c -0.02 -0.27 0.22 -0.58 0.53 -0.69 c 0.31 -0.11 0.58 0.03 0.6 0.3"/></svg>