<svg xmlns="http://www.w3.org/2000/svg" viewBox="0 0 32 32"><path d="m 31.83 16.1 c 2.34 21.32 -32.3 21 -31.83 -0.38 c -1.07 -19.9 33.79 -21.7 31.83 0.38" style="fill:#5ca19c"/><path d="m 5.29 21.91 l -0.26 -0.25 v -5.46 c 0 -5 0.02 -5.48 0.2 -5.71 c 0.4 -0.47 3.9 -1.42 6.57 -1.79 c 2.57 -0.35 7.31 -0.35 9.68 0 c 2.29 0.34 5.34 1.07 6.08 1.47 c 0.77 0.41 0.73 0.14 0.73 5.92 c 0 4.58 -0.02 5.29 -0.18 5.54 c -0.37 0.57 -2.86 1.34 -6.16 1.92 c -5.13 -0.1 -11 0.41 -16.66 -1.65" style="fill:#147e71"/><path d="m 13.39 23.8 c -2.26 -0.18 -6.67 -1.15 -7.76 -1.7 c -0.61 -0.31 -0.67 -0.44 -0.67 -1.28 c 0 -0.68 0.02 -0.79 0.19 -0.9 c 0.1 -0.07 1.11 -1.18 2.24 -2.46 c 2.29 -2.61 2.84 -3.16 3.41 -3.45 c 0.56 -0.29 1.3 -0.28 1.9 0.03 c 0.5 0.26 1.41 1.27 4.98 5.53 c 1.13 1.36 2.38 2.82 2.77 3.27 l 0.71 0.8 l -0.44 0.06 c -0.49 0.07 -6.62 0.16 -7.32 0.11" style="fill:#87bb00"/><path d="m 19.46 21.46 c -2.12 -2.58 -2.32 -2.84 -2.32 -2.93 c 0 -0.12 0.91 -1.25 1.51 -1.89 c 0.7 -0.73 0.94 -0.86 1.59 -0.81 c 0.49 0.04 0.55 0.07 1 0.53 c 0.63 0.62 3.1 3.41 4.27 4.84 l 0.9 1.09 l -0.22 0.12 c -0.48 0.25 -3.33 0.89 -4.72 1.05 l -0.37 0.04 c -0.55 -0.68 -1.11 -1.35 -1.66 -2.03" style="fill:#0b6244"/></svg>