<svg xmlns="http://www.w3.org/2000/svg" viewBox="0 0 32 32"><path d="m 1.51 22 c -12 -38.67 52.6 -19.34 22.36 7.17 c -6.1 5.31 -19.1 3.27 -22.36 -7.17" style="fill:#b3dec8"/><path d="m 13.71 25 c -2.98 -0.41 -5.84 -2.88 -6.92 -5.97 c -0.41 -1.17 -0.54 -3 -0.32 -4.65 c 0.41 -3.11 2.81 -5.98 5.93 -7.08 c 1.61 -0.57 4.4 -0.57 6 0 c 3.12 1.1 5.52 3.97 5.93 7.08 c 0.13 1 0.13 2.21 0 3.22 c -0.48 3.65 -3.73 6.92 -7.34 7.4 c -0.94 0.13 -2.37 0.12 -3.29 0 m 5.7 -3.57 c 0.65 -0.31 0.7 -1.36 0.08 -1.76 c -0.09 -0.06 -1.2 -0.38 -2.46 -0.72 c -1.26 -0.34 -2.35 -0.63 -2.42 -0.65 c -0.33 -0.1 -0.45 -0.54 -0.21 -0.76 c 0.07 -0.07 1.26 -0.61 2.63 -1.21 c 1.38 -0.6 2.6 -1.14 2.71 -1.21 c 0.88 -0.46 1.03 -1.86 0.25 -2.38 c -0.27 -0.18 -7.73 -2.24 -8.11 -2.24 c -0.11 0 -0.31 0.06 -0.45 0.13 c -0.71 0.38 -0.68 1.45 0.04 1.79 c 0.16 0.07 1.08 0.35 2.05 0.61 c 2.09 0.55 2.14 0.57 2.2 0.8 c 0.11 0.43 0.11 0.43 -2.57 1.73 c -1.39 0.68 -2.61 1.29 -2.71 1.37 c -0.51 0.36 -0.69 1.41 -0.33 1.96 c 0.1 0.16 0.29 0.34 0.42 0.4 c 0.36 0.18 8 2.25 8.35 2.26 c 0.15 0 0.38 -0.05 0.52 -0.11" style="fill:#139c53"/></svg>