<svg xmlns="http://www.w3.org/2000/svg" viewBox="0 0 16 16"><path d="m 0.13 10.75 c -1.59 -22.86 29.1 -2.7 8.89 4.87 c -3.11 1 -7.75 -0.44 -8.89 -4.87" style="fill:#7f7f7f"/><path d="m 11.38 7.54 c -0.27 -1.09 -1.19 -1.85 -2.38 -1.85 c -0.13 0 -0.2 0 -0.33 0.07 c -0.07 -1.16 -0.99 -2.12 -2.11 -2.12 c -0.99 0 -1.91 0.82 -2.17 1.85 c -1.05 -0.41 -2.18 0.41 -2.18 1.57 c 0 0.89 0.59 1.44 1.19 1.71 c 0.06 0 0.06 0 0.13 0 c 0.07 0 0.07 0 0.13 -0.07 c -0.07 0.27 -0.13 0.48 -0.13 0.75 c 0 1.37 0.99 2.39 2.24 2.39 c 1.75 0 3.49 0 5 0 c 1.12 0 2.04 -1.02 2.04 -2.25 c -0.07 -0.89 -0.66 -1.71 -1.45 -2.05 m -7.58 0.75 c 0 -0.07 -0.07 -0.14 -0.13 -0.2 c -0.39 -0.14 -0.79 -0.48 -0.79 -1.03 c 0 -0.75 0.79 -1.37 1.58 -0.82 c 0.11 -0.04 0.29 -0.01 0.4 -0.07 c 0 -0.05 0 -0.09 0 -0.14 c 0.13 -0.89 0.92 -1.71 1.71 -1.71 c 0.79 0 1.45 0.68 1.45 1.5 c 0 0.07 0 0.07 0 0.14 c -0.53 0.27 -0.99 0.75 -1.25 1.3 c -1.1 -0.6 -2.51 0.2 -2.96 1.02 m 6.92 2.87 c -1.71 0 -3.46 0 -5 0 c -0.79 0 -1.52 -0.75 -1.52 -1.71 c 0 -0.96 0.73 -1.71 1.65 -1.71 c 0.26 -0.07 0.59 0.07 0.86 0.27 c 0.44 -0.09 0.53 -0.02 0.53 -0.27 c 0.26 -0.61 0.92 -1.37 1.78 -1.37 c 0.93 0 1.65 0.62 1.78 1.5 c -0.05 0.16 0.13 0.23 0.13 0.27 c 0.59 0.21 1.05 0.82 1.05 1.44 c 0.13 0.82 -0.53 1.57 -1.25 1.57" style="fill:#fff"/></svg>