<svg xmlns="http://www.w3.org/2000/svg" viewBox="0 0 16 16"><path d="m 15.87 10.75 c 1.59 -22.86 -29.1 -2.7 -8.89 4.87 c 3.12 1 7.76 -0.44 8.89 -4.87" style="fill:#778799"/><path d="m 11.96 6.61 c -0.27 -1.27 -1.39 -2.18 -2.78 -2.18 c -1.19 0 -2.11 0.91 -2.58 1.9 c -0.32 -0.18 -0.74 -0.2 -1.19 -0.29 c -1.39 0 -2.51 1.2 -2.51 2.68 c 0 1.55 1.13 2.75 2.51 2.75 h 0.07 c 1.95 0 3.93 0 5.68 0 c 1.25 0 2.31 -1.2 2.31 -2.61 c 0 -1.06 -0.59 -1.9 -1.52 -2.25 m -0.79 4.16 c -1.94 0 -3.94 0 -5.68 0 h -0.07 c -0.99 0 -1.85 -0.92 -1.85 -2.04 c 0 -1.13 0.79 -1.97 1.92 -1.97 c 0.33 -0.07 0.73 0.07 1.05 0.35 c 0 0 0 0 0.07 0 c 0.35 -0.07 0.39 -0.05 0.46 -0.28 c 0.33 -0.78 1.12 -1.69 2.11 -1.69 c 0.93 0 1.98 0.56 2.18 1.83 c 0.04 0.08 0.11 0.13 0.2 0.14 h 0.07 c 0.66 0.14 1.19 0.84 1.19 1.62 c 0 1.13 -0.79 2.04 -1.65 2.04" style="fill:#fff"/></svg>