<svg xmlns="http://www.w3.org/2000/svg" viewBox="0 0 16 16"><path d="m 0.13 4.62 c -1.59 22.9 29.1 5.74 8.89 -3.99 c -3.11 -1.34 -7.75 -0.36 -8.89 3.99" style="fill:#ff8c00"/><g style="fill:#fff"><path d="m 4.21 6 c 0.06 0.06 0.19 0.06 0.25 0.06 c 0.06 0 0.19 0 0.25 -0.06 c 0.13 -0.13 0.13 -0.31 0 -0.43 l -0.82 -0.87 c -0.13 -0.06 -0.38 -0.06 -0.5 0 c -0.13 0.06 -0.13 0.31 0 0.43"/><path d="m 9.19 6.08 c 0.06 0 0.19 0 0.25 -0.06 l 0.82 -0.8 c 0.13 -0.13 0.13 -0.31 0 -0.43 c -0.13 -0.13 -0.32 -0.13 -0.44 0 l -0.82 0.8 c -0.13 0.13 -0.13 0.31 0 0.43 c 0 0.06 0.13 0.06 0.19 0.06"/><path d="m 6.61 4.71 c 0.19 0 0.32 -0.13 0.32 -0.31 v -0.99 c 0 -0.19 -0.13 -0.31 -0.32 -0.31 c -0.19 0 -0.31 0.13 -0.31 0.31 v 0.99 c 0 0.18 0.13 0.31 0.31 0.31"/><path d="m 11.2 8.31 c -0.31 -0.93 -1.13 -1.61 -2.14 -1.73 c -0.44 -0.81 -1.26 -1.24 -2.2 -1.24 c -1.39 0 -2.46 1.05 -2.46 2.42 c 0 0.13 0 0.19 0 0.31 c -0.06 0.06 -0.19 0.06 -0.25 0.13 c 0 0 0 -0.06 0 -0.06 c 0 -0.18 -0.13 -0.31 -0.32 -0.31 h -1 c -0.19 0 -0.31 0.13 -0.31 0.31 c 0 0.19 0.13 0.31 0.31 0.31 h 1 c -0.44 0.38 -0.69 0.93 -0.69 1.55 c 0 1.18 1.07 2.17 2.33 2.17 h 4.91 c 0 0 0.06 0 0.06 0 c 0 0 0.06 0 0.06 0 c 1.13 0 2.08 -0.87 2.08 -1.98 c 0 -0.81 -0.57 -1.55 -1.39 -1.86 m -6.17 -0.56 c 0 -0.99 0.82 -1.8 1.83 -1.8 c 0.57 0 1.07 0.25 1.38 0.68 c -0.82 0.12 -1.51 0.74 -1.89 1.36 c -0.19 -0.12 -0.5 -0.18 -0.88 -0.18 c -0.13 0 -0.31 0 -0.44 0.06 c 0 -0.06 0 -0.06 0 -0.13 m 5.48 3.78 c 0 0 -0.06 0 -0.06 0 c 0 0 -0.06 0 -0.06 0 h -4.91 c -0.95 0 -1.7 -0.68 -1.7 -1.55 c 0 -0.68 0.38 -1.18 1 -1.43 c 0 0 0.06 0 0.06 0 c 0 0 0 0 0.06 0 c 0.19 -0.06 0.38 -0.13 0.57 -0.13 c 0.38 0 0.63 0.06 0.88 0.19 c 0 0 0 0 0.06 0 c 0 0 0.06 0 0.06 0 c 0 0 0.06 0 0.06 0 c 0 0 0.06 0 0.06 0 c 0 0 0.06 0 0.06 0 c 0 0 0 0 0.06 0 c 0 0 0.07 -0.06 0.07 -0.06 c 0.31 -0.68 1 -1.36 1.89 -1.36 c 0.95 0 1.76 0.56 1.95 1.43 c 0 0.06 0.07 0.13 0.13 0.13 c 0.06 0 0.06 0.06 0.13 0.06 c 0.63 0.12 1.07 0.74 1.07 1.3 c 0 0.8 -0.69 1.43 -1.45 1.43"/></g></svg>