<svg xmlns="http://www.w3.org/2000/svg" viewBox="0 0 16 16"><path d="m 13.21 13.46 c 12.56 -17.1 -22 -17.95 -10.91 -1.53 c 2.53 3.75 7.59 6.1 10.91 1.53" style="fill:#d60329"/><path d="m 11 12.28 h -0.27 v -6.26 c 0.32 -0.11 0.54 -0.41 0.54 -0.72 c 0 -0.41 -0.38 -0.78 -0.82 -0.78 c -0.43 0 -0.81 0.36 -0.81 0.78 c 0 0.36 0.22 0.62 0.54 0.72 v 1.45 l -1.09 -0.62 c 0 -0.11 0 -0.21 -0.05 -0.31 c -0.05 -0.21 -0.22 -0.88 -0.65 -0.98 c 0 0 -0.05 0 -0.05 0 c 0 0 0 0 -0.05 0 l -4.55 0.62 c -0.65 0.15 -1.14 0.67 -1.14 1.29 v 0.31 c 0 0.62 0.49 1.14 1.14 1.29 l 4.5 0.62 c 0 0 0 0 0.05 0 c 0.05 0 0.05 0 0.11 0 c 0.43 -0.11 0.6 -0.62 0.65 -1.24 l 1.14 -0.67 v 4.5 h -0.27 c -0.16 0 -0.27 0.1 -0.27 0.26 c 0 0.15 0.11 0.26 0.27 0.26 h 1.08 c 0.16 0 0.27 -0.11 0.27 -0.26 c 0 -0.16 -0.11 -0.26 -0.27 -0.26 m -6.12 -3.57 c -0.05 -0.31 -0.11 -0.77 -0.11 -1.09 c 0 -0.31 0.05 -0.77 0.11 -1.09 l 1.19 -0.15 c -0.11 0.36 -0.21 0.82 -0.21 1.24 c 0 0.41 0.11 0.88 0.21 1.24 m 0.6 0 c -0.16 -0.31 -0.27 -0.83 -0.27 -1.24 c 0 -0.41 0.11 -0.93 0.27 -1.24 c 0 -0.05 0 -0.05 0 -0.11 l 0.98 -0.16 c -0.11 0.47 -0.16 1.04 -0.16 1.5 c 0 0.46 0.05 1.04 0.16 1.45 l -0.98 -0.11 c 0 -0.05 0 -0.05 0 -0.1 m -3.52 -1.09 v -0.31 c 0 -0.36 0.27 -0.73 0.7 -0.78 l 0.49 -0.05 c -0.11 0.31 -0.11 0.72 -0.11 0.98 c 0 0.26 0 0.67 0.11 0.98 l -0.49 -0.05 c -0.43 -0.05 -0.7 -0.41 -0.7 -0.78 m 5.15 1.39 c -0.05 -0.05 -0.27 -0.26 -0.27 -1.55 c 0 -1.29 0.21 -1.5 0.27 -1.55 c 0 0 0.11 0.11 0.22 0.57 c 0.05 0.21 0.05 0.57 0.05 0.98 c 0 1.34 -0.22 1.55 -0.27 1.55 m 0.81 -1.09 c 0 -0.15 0 -0.31 0 -0.46 c 0 -0.15 0 -0.31 0 -0.46 l 0.82 0.46" style="fill:#fff"/></svg>