<svg xmlns="http://www.w3.org/2000/svg" viewBox="0 0 16 16"><path d="m 13.2 13.68 c 12.61 -16.65 -22.1 -19 -10.96 -2 c 2.54 3.88 7.62 6.43 10.96 2" style="fill:#0b7879"/><g style="fill:#fff"><path d="m 8.57 12.22 h -1.25 c -0.13 0 -0.21 0.14 -0.21 0.34 c 0 0.2 0.09 0.34 0.21 0.34 h 1.25 c 0.13 0 0.21 -0.14 0.21 -0.34 c 0 -0.2 -0.09 -0.34 -0.21 -0.34"/><path d="m 9.82 10.87 h -2.51 c -0.13 0 -0.21 0.14 -0.21 0.34 c 0 0.2 0.09 0.34 0.21 0.34 h 2.51 c 0.13 0 0.21 -0.13 0.21 -0.34 c 0 -0.2 -0.08 -0.34 -0.21 -0.34"/><path d="m 10.66 9.52 h -3.35 c -0.13 0 -0.21 0.13 -0.21 0.34 c 0 0.2 0.09 0.34 0.21 0.34 h 3.35 c 0.13 0 0.21 -0.13 0.21 -0.34 c 0 -0.2 -0.09 -0.34 -0.21 -0.34"/><path d="m 11.1 8.17 h -5 c -0.13 0 -0.21 0.13 -0.21 0.34 c 0 0.2 0.08 0.34 0.21 0.34 h 5 c 0.13 0 0.21 -0.14 0.21 -0.34 c 0 -0.2 -0.09 -0.34 -0.21 -0.34"/><path d="m 10.45 7.16 c 0 -0.2 -0.08 -0.34 -0.21 -0.34 h -5 c -0.13 0 -0.21 0.14 -0.21 0.34 c 0 0.2 0.09 0.34 0.21 0.34 h 5 c 0.13 0 0.21 -0.14 0.21 -0.34"/><path d="m 10.66 5.47 h -4.61 c -0.13 0 -0.21 0.14 -0.21 0.34 c 0 0.2 0.08 0.34 0.21 0.34 h 4.61 c 0.13 0 0.21 -0.13 0.21 -0.34 c 0 -0.2 -0.09 -0.34 -0.21 -0.34"/><path d="m 10.87 4.46 c 0 -0.2 -0.09 -0.34 -0.21 -0.34 h -5.86 c -0.13 0 -0.21 0.13 -0.21 0.34 c 0 0.2 0.09 0.34 0.21 0.34 h 5.86 c 0.13 0 0.21 -0.14 0.21 -0.34"/></g></svg>