<svg xmlns="http://www.w3.org/2000/svg" viewBox="0 0 16 16"><path d="m 12.26 14.33 c -5.95 5.28 -15.1 -3.05 -11.41 -10 c 3.74 -7 16.1 -5.17 15.1 3.48 c -0.31 2.58 -1.73 4.81 -3.67 6.53" style="fill:#70706e"/><g style="fill:#fff"><path d="m 7.81 6.73 c 0 0 -0.91 1.27 -0.91 1.82 c 0 1.27 1.82 1.27 1.82 0 c 0 -0.55 -0.91 -1.82 -0.91 -1.82"/><path d="m 3.63 10.38 c 0 0.99 1.52 0.99 1.52 0 c 0 -0.39 -0.73 -1.44 -0.73 -1.44 c 0 0 -0.79 1 -0.79 1.44"/><path d="m 6.1 11.48 c 0 0.99 1.52 0.99 1.52 0 c 0 -0.39 -0.73 -1.44 -0.73 -1.44 c 0 0 -0.79 1 -0.79 1.44"/><path d="m 8.48 11.48 c 0 0.99 1.52 0.99 1.52 0 c 0 -0.39 -0.73 -1.44 -0.73 -1.44 c 0 0 -0.79 1 -0.79 1.44"/><path d="m 10.78 10.38 c 0 0.99 1.52 0.99 1.52 0 c 0.06 -0.39 -0.73 -1.44 -0.73 -1.44 c 0 0 -0.79 1 -0.79 1.44"/><path d="m 12.78 7 c 0 -0.77 -0.55 -1.44 -1.39 -1.77 c -0.24 -1.05 -1.27 -1.82 -2.55 -1.82 c -1.03 0 -1.88 0.5 -2.36 1.27 c -0.3 -0.16 -0.67 -0.22 -1.03 -0.22 c -1.27 0 -2.36 0.99 -2.36 2.15 c 0 1.16 1.09 2.16 2.36 2.16 c 0.18 0 0.3 -0.11 0.3 -0.28 c 0 -0.16 -0.12 -0.28 -0.3 -0.28 c -0.97 0 -1.76 -0.72 -1.76 -1.6 c 0 -0.88 0.79 -1.6 1.76 -1.6 c 0.36 0 0.73 0.11 0.97 0.28 c 0.09 0 0.16 0 0.24 0 c 0.16 0 0.24 -0.13 0.24 -0.22 c 0.3 -0.66 1.03 -1.11 1.94 -1.11 c 1.03 0 1.82 0.61 2 1.55 c -0.01 0.12 0.12 0.17 0.18 0.22 c 0.73 0.16 1.15 0.66 1.15 1.27 c 0 0.77 -0.67 1.44 -1.52 1.44 c -0.18 0 -0.3 0.11 -0.3 0.28 c 0 0.16 0.12 0.27 0.3 0.27 c 1.15 0 2.12 -0.88 2.12 -1.99"/></g></svg>