<svg xmlns="http://www.w3.org/2000/svg" viewBox="0 0 16 16"><path d="m 3.36 1.7 c 5.59 -5.28 15.2 3.05 11.89 10 c -3.3 7 -15.7 5.17 -15.1 -3.49 c 0.16 -2.57 1.44 -4.81 3.26 -6.53" style="fill:#213352"/><g style="fill:#fff"><path d="m 11 11.16 c 0 0.83 1.23 0.83 1.23 0 c 0 -0.36 -0.61 -1.19 -0.61 -1.19 c 0 0 -0.62 0.83 -0.62 1.19"/><path d="m 3.62 11 c 0 0.83 1.23 0.83 1.23 0 c 0 -0.36 -0.62 -1.19 -0.62 -1.19 c 0 0 -0.61 0.84 -0.61 1.19"/><path d="m 9.16 12.23 c 0 0.84 1.23 0.84 1.23 0 c 0 -0.36 -0.61 -1.19 -0.61 -1.19 c 0 0 -0.62 0.83 -0.62 1.19"/><path d="m 5.47 12.23 c 0 0.84 1.23 0.84 1.23 0 c 0 -0.36 -0.62 -1.19 -0.62 -1.19 c 0 0 -0.61 0.83 -0.61 1.19"/><path d="m 12.86 7.77 c 0 -0.83 -0.55 -1.54 -1.42 -1.9 c -0.25 -1.13 -1.29 -1.96 -2.59 -1.96 c -1.05 0 -1.91 0.54 -2.4 1.37 c -0.31 -0.18 -0.68 -0.24 -1.05 -0.24 c -1.29 0 -2.4 1.07 -2.4 2.32 c 0 1.25 1.11 2.32 2.4 2.32 c 0.18 0 0.31 -0.12 0.31 -0.3 c 0 -0.18 -0.13 -0.3 -0.31 -0.3 c -0.98 0 -1.79 -0.77 -1.79 -1.72 c 0 -0.95 0.8 -1.73 1.79 -1.73 c 0.37 0 0.74 0.12 0.98 0.3 c 0.07 0 0.21 0 0.31 0 c 0.16 -0.01 0.18 -0.17 0.18 -0.18 c 0 0 0 0 0 -0.06 c 0.31 -0.71 1.05 -1.19 1.97 -1.19 c 1.05 0 1.85 0.66 2.03 1.66 v 0.06 c 0.04 0.08 0.13 0.12 0.19 0.18 c 0.74 0.18 1.17 0.71 1.17 1.37 c 0 0.84 -0.68 1.49 -1.54 1.49 c -0.18 0 -0.31 0.12 -0.31 0.3 c 0 0.18 0.13 0.3 0.31 0.3 c 1.17 0 2.16 -0.95 2.16 -2.08"/><path d="m 10.1 7.47 h -1.54 l -0.13 1.79 h -1.41 l 0.61 3.27 l 0.49 -2.08 h 1.36"/></g></svg>