<svg xmlns="http://www.w3.org/2000/svg" viewBox="0 0 16 16"><path d="m 13.27 2.82 c 8.12 6.52 -3.77 18.27 -10.95 10.76 c -7.2 -6.47 4 -19 10.95 -10.76" style="fill:#70929f"/><g style="fill:#fff"><path d="m 5.55 10.56 c 0 0.33 -0.26 0.6 -0.57 0.6 c -0.32 0 -0.58 -0.27 -0.58 -0.6 c 0 -0.33 0.26 -0.6 0.58 -0.6 c 0.32 0 0.57 0.27 0.57 0.6"/><path d="m 11.3 10.56 c 0 0.33 -0.26 0.6 -0.58 0.6 c -0.32 0 -0.57 -0.27 -0.57 -0.6 c 0 -0.33 0.26 -0.6 0.57 -0.6 c 0.32 0 0.58 0.27 0.58 0.6"/><path d="m 10.15 12.36 c 0 0.33 -0.26 0.6 -0.57 0.6 c -0.32 0 -0.57 -0.27 -0.57 -0.6 c 0 -0.33 0.26 -0.6 0.57 -0.6 c 0.32 0 0.57 0.27 0.57 0.6"/><path d="m 6.7 12.36 c 0 0.33 -0.26 0.6 -0.57 0.6 c -0.32 0 -0.57 -0.27 -0.57 -0.6 c 0 -0.33 0.26 -0.6 0.57 -0.6 c 0.32 0 0.57 0.27 0.57 0.6"/><path d="m 8.43 11.16 c 0 0.33 -0.26 0.6 -0.58 0.6 c -0.32 0 -0.57 -0.27 -0.57 -0.6 c 0 -0.33 0.26 -0.6 0.57 -0.6 c 0.32 0 0.58 0.27 0.58 0.6"/><path d="m 10.44 5.19 c -0.57 -0.78 -1.38 -1.2 -2.3 -1.2 c -0.92 0 -1.78 0.48 -2.36 1.25 c -0.18 0 -0.35 -0.06 -0.52 -0.06 c -1.15 0 -2 0.89 -2 2.09 c 0 1.19 0.86 2.09 2 2.09 c 0.29 0 0.63 -0.06 0.92 -0.24 c 0.52 0.54 1.21 0.84 1.95 0.84 c 0.63 0 1.27 -0.24 1.78 -0.71 c 0.17 0.06 0.35 0.12 0.52 0.12 c 1.15 0 2 -0.9 2 -2.09 c 0 -1.2 -0.86 -2.09 -2 -2.09 m 0 3.58 c -0.12 0 -0.29 -0.06 -0.46 -0.12 c 0 0 0 0 -0.06 0 c 0 0 -0.05 0 -0.05 0 c 0 0 -0.06 0 -0.06 0 c 0 0 -0.06 0 -0.06 0 c 0 0 -0.06 0 -0.06 0.06 c -0.46 0.42 -1.03 0.66 -1.55 0.66 c -0.63 0 -1.27 -0.3 -1.67 -0.78 c 0 0 -0.05 0 -0.05 -0.06 c 0 0 -0.06 0 -0.06 0 c 0 0 -0.06 0 -0.06 0 c 0 0 -0.06 0 -0.06 0 c 0 0 -0.05 0 -0.05 0 c 0 0 -0.06 0 -0.06 0 c 0 0 0 0 -0.06 0 c -0.23 0.12 -0.52 0.24 -0.8 0.24 c -0.8 0 -1.44 -0.66 -1.44 -1.49 c 0 -0.84 0.63 -1.49 1.44 -1.49 c 0.17 0 0.34 0.06 0.52 0.12 c 0 0 0.05 0 0.05 0 c 0.06 0 0.12 0 0.12 -0.06 c 0.11 0 0.17 -0.06 0.17 -0.06 c 0.46 -0.72 1.15 -1.2 2 -1.2 c 0.75 0 1.44 0.36 1.9 1.07 c 0 0 0 0.06 0.05 0.06 c 0 0 0 0 0.06 0 c 0 0 0.06 0 0.06 0 c 0 0 0.06 0 0.06 0 c 0 0 0 0 0.05 0 h 0.17 c 0.75 0.06 1.38 0.72 1.38 1.55 c 0 0.84 -0.63 1.49 -1.44 1.49"/></g></svg>