<svg xmlns="http://www.w3.org/2000/svg" viewBox="0 0 16 16"><path d="m 2.41 13.1 c -9.98 -14.19 15.98 -18.71 13.41 -3.63 c -1.36 5.99 -9.41 9.31 -13.41 3.63" style="fill:#7d75af"/><g style="fill:#fff"><path d="m 5.26 9.35 c 0.3 0 0.67 -0.06 0.98 -0.25 c 0.55 0.56 1.28 0.87 2.08 0.87 c 0.67 0 1.34 -0.25 1.89 -0.74 c 0.18 0.06 0.37 0.12 0.55 0.12 c 1.22 0 2.14 -0.93 2.14 -2.17 c 0 -1.24 -0.92 -2.17 -2.14 -2.17 h -0.06 c -0.55 -0.8 -1.46 -1.24 -2.38 -1.24 c -0.98 0 -1.89 0.5 -2.5 1.3 c -0.18 0 -0.37 -0.06 -0.55 -0.06 c -1.22 0 -2.14 0.93 -2.14 2.17 c 0 1.24 0.92 2.17 2.14 2.17 m 0 -3.71 c 0.18 0 0.37 0.06 0.55 0.13 c 0 0 0.06 0 0.06 0 c 0.06 0 0.13 0 0.13 -0.06 c 0.12 0 0.18 -0.06 0.18 -0.06 c 0.49 -0.75 1.22 -1.24 2.14 -1.24 c 0.73 0 1.4 0.31 1.83 0.87 c 0 0 0 0.06 0 0.06 c 0 0.19 0.13 0.31 0.3 0.31 h 0.31 c 0.85 0 1.52 0.68 1.52 1.55 c 0 0.87 -0.67 1.55 -1.52 1.55 c -0.13 0 -0.31 -0.06 -0.49 -0.13 c 0 0 0 0 -0.06 0 c 0 0 -0.06 0 -0.06 0 c 0 0 -0.06 0 -0.06 0 c 0 0 -0.06 0 -0.06 0 c 0 0 -0.06 0 -0.06 0.06 c -0.49 0.43 -1.1 0.68 -1.64 0.68 c -0.67 0 -1.34 -0.31 -1.77 -0.8 c 0 0 -0.06 0 -0.06 -0.06 c 0 0 -0.06 0 -0.06 0 c 0 0 -0.06 0 -0.06 0 c 0 0 -0.06 0 -0.06 0 c 0 0 -0.06 0 -0.06 0 c 0 0 -0.06 0 -0.06 0 c 0 0 0 0 -0.06 0 c -0.25 0.13 -0.55 0.25 -0.86 0.25 c -0.86 0 -1.53 -0.68 -1.53 -1.55 c 0 -0.87 0.67 -1.55 1.53 -1.55"/><path d="m 8.31 11.21 c -0.18 0 -0.31 0.13 -0.31 0.31 v 1.24 c 0 0.18 0.13 0.31 0.31 0.31 c 0.18 0 0.3 -0.13 0.3 -0.31 v -1.24 c 0 -0.18 -0.13 -0.31 -0.3 -0.31"/><path d="m 6.48 10.59 c -0.18 0 -0.3 0.13 -0.3 0.31 v 1.24 c 0 0.19 0.12 0.31 0.3 0.31 c 0.18 0 0.3 -0.12 0.3 -0.31 v -1.24 c 0 -0.19 -0.12 -0.31 -0.3 -0.31"/><path d="m 9.53 10.59 c -0.18 0 -0.3 0.13 -0.3 0.31 v 1.24 c 0 0.19 0.12 0.31 0.3 0.31 c 0.18 0 0.3 -0.12 0.3 -0.31 v -1.24 c 0 -0.19 -0.12 -0.31 -0.3 -0.31"/><path d="m 5.26 9.97 c -0.18 0 -0.3 0.13 -0.3 0.31 v 1.24 c 0 0.19 0.12 0.31 0.3 0.31 c 0.18 0 0.3 -0.13 0.3 -0.31 v -1.24 c 0 -0.18 -0.12 -0.31 -0.3 -0.31"/><path d="m 10.75 9.97 c -0.18 0 -0.31 0.13 -0.31 0.31 v 1.24 c 0 0.19 0.13 0.31 0.31 0.31 c 0.18 0 0.3 -0.13 0.3 -0.31 v -1.24 c 0 -0.18 -0.12 -0.31 -0.3 -0.31"/><path d="m 4 9.35 c -0.18 0 -0.31 0.13 -0.31 0.31 v 1.24 c 0 0.18 0.13 0.31 0.31 0.31 c 0.18 0 0.3 -0.13 0.3 -0.31 v -1.24 c 0 -0.19 -0.13 -0.31 -0.3 -0.31"/><path d="m 11.97 9.35 c -0.18 0 -0.3 0.13 -0.3 0.31 v 1.24 c 0 0.18 0.12 0.31 0.3 0.31 c 0.18 0 0.3 -0.13 0.3 -0.31 v -1.24 c 0 -0.19 -0.12 -0.31 -0.3 -0.31"/></g></svg>