<svg xmlns="http://www.w3.org/2000/svg" viewBox="0 0 16 16"><path d="m 7.36 15.89 c 9.5 0.91 12.1 -14.42 2.3 -15.61 c -8.98 -1.48 -13.59 12.42 -4.68 15.2 c 0.75 0.3 1.58 0.3 2.38 0.41" style="fill:#9370db"/><g style="fill:#fff"><path d="m 5.53 9.12 c 0.28 0 0.63 -0.05 0.91 -0.23 c 0.51 0.52 1.2 0.81 1.93 0.81 c 0.62 0 1.25 -0.23 1.76 -0.69 c 0.17 0.06 0.34 0.11 0.51 0.11 c 1.14 0 1.99 -0.86 1.99 -2 c 0 -1.15 -0.85 -2 -1.99 -2 h -0.05 c -0.51 -0.75 -1.36 -1.15 -2.21 -1.15 c -0.91 0 -1.76 0.46 -2.33 1.21 c -0.17 0 -0.34 -0.06 -0.51 -0.06 c -1.14 0 -1.99 0.86 -1.99 2 c 0 1.15 0.85 2 1.99 2 m 0 -3.46 c 0.17 0 0.34 0.06 0.51 0.12 c 0.11 -0.01 0.25 -0.06 0.34 -0.12 c 0.45 -0.69 1.14 -1.15 1.99 -1.15 c 0.68 0 1.3 0.29 1.7 0.81 v 0.06 c 0 0.17 0.11 0.29 0.28 0.29 h 0.29 c 0.8 0 1.42 0.64 1.42 1.44 c 0 0.81 -0.62 1.44 -1.42 1.44 c -0.11 0 -0.29 -0.06 -0.45 -0.12 c -0.13 -0.01 -0.23 0 -0.29 0.06 c -0.48 0.38 -1.02 0.63 -1.53 0.63 c -0.62 0 -1.25 -0.29 -1.65 -0.75 c 0 0 -0.06 0 -0.06 -0.06 c -0.12 0 -0.21 0 -0.34 0 c -0.23 0.11 -0.51 0.23 -0.79 0.23 c -0.8 0 -1.42 -0.63 -1.42 -1.44 c 0 -0.8 0.63 -1.44 1.42 -1.44"/><path d="m 4.81 11.76 c 0 0.8 1.14 0.8 1.14 0 c 0 -0.35 -0.57 -1.15 -0.57 -1.15 c 0 0 -0.57 0.8 -0.57 1.15"/><path d="m 7.61 12.75 c 0 0.9 1.14 0.9 1.14 0 c 0 -0.39 -0.57 -1.29 -0.57 -1.29 c 0 0 -0.57 0.9 -0.57 1.29"/><path d="m 10.34 11.73 c 0 0.81 1.13 0.81 1.13 0 c 0 -0.34 -0.57 -1.15 -0.57 -1.15 c 0 0 -0.57 0.81 -0.57 1.15"/><path d="m 6.84 10.25 c -0.17 0 -0.29 0.11 -0.29 0.26 v 1.05 c 0 0.16 0.11 0.26 0.29 0.26 c 0.17 0 0.29 -0.1 0.29 -0.26 v -1.05 c 0 -0.16 -0.11 -0.26 -0.29 -0.26"/><path d="m 9.46 10.38 c -0.17 0 -0.29 0.11 -0.29 0.29 v 1.15 c 0 0.17 0.11 0.29 0.29 0.29 c 0.17 0 0.29 -0.11 0.29 -0.29 v -1.15 c 0 -0.18 -0.11 -0.29 -0.29 -0.29"/><path d="m 4.61 9.48 c 0 -0.16 -0.11 -0.27 -0.29 -0.27 c -0.17 0 -0.29 0.11 -0.29 0.27 v 1.08 c 0 0.16 0.11 0.27 0.29 0.27 c 0.17 0 0.29 -0.11 0.29 -0.27"/><path d="m 11.84 9.21 c -0.17 0 -0.29 0.11 -0.29 0.27 v 1.06 c 0 0.16 0.11 0.27 0.29 0.27 c 0.17 0 0.29 -0.11 0.29 -0.27 v -1.06 c 0 -0.16 -0.12 -0.27 -0.29 -0.27"/></g></svg>