<svg xmlns="http://www.w3.org/2000/svg" viewBox="0 0 16 16"><path d="m 13.26 13.25 c 8.1 -6.52 -3.75 -18.27 -10.88 -10.76 c -7.16 6.46 4 19 10.88 10.76" style="fill:#4b4d6f"/><g style="fill:#fff"><path d="m 8.5 11.78 c 0 0.17 0.13 0.3 0.29 0.3 c 0.16 0 0.3 -0.13 0.3 -0.3 c 0 -0.17 -0.13 -0.3 -0.3 -0.3 c -0.16 0 -0.29 0.14 -0.29 0.3"/><path d="m 6.79 11.75 c 0 0.17 0.13 0.3 0.3 0.3 c 0.16 0 0.29 -0.14 0.29 -0.3 c 0 -0.17 -0.13 -0.3 -0.29 -0.3 c -0.16 0 -0.3 0.14 -0.3 0.3"/><path d="m 7.6 12.96 c 0 0.16 0.13 0.3 0.29 0.3 c 0.16 0 0.3 -0.14 0.3 -0.3 c 0 -0.17 -0.13 -0.3 -0.3 -0.3 c -0.16 0 -0.29 0.14 -0.29 0.3"/><path d="m 10.4 9.21 c -0.18 0 -0.3 -0.12 -0.3 -0.3 c 0 -0.18 0.12 -0.3 0.3 -0.3 c 0.94 0 1.7 -0.79 1.7 -1.76 c 0 -0.97 -0.76 -1.76 -1.7 -1.76 c -0.36 0 -0.71 0.12 -0.94 0.3 c -0.09 0 -0.25 0 -0.36 0 c -0.04 -0.04 -0.11 -0.08 -0.12 -0.12 c 0 -0.04 0 -0.09 0 -0.12 c -0.29 -0.73 -1 -1.21 -1.88 -1.21 c -0.94 0 -1.64 0.61 -1.88 1.46 c 0 0.06 0 0.18 -0.06 0.24 c -0.06 0.12 -0.18 0.24 -0.29 0.24 c -0.04 0 -0.08 0 -0.12 0 c -0.53 0.24 -0.88 0.79 -0.88 1.39 c 0 0.85 0.65 1.57 1.47 1.57 c 0.18 0 0.29 0.13 0.29 0.3 c 0 0.18 -0.12 0.3 -0.29 0.3 c -1.12 0 -2.06 -0.97 -2.06 -2.18 c 0 -0.91 0.53 -1.7 1.36 -2 c 0.29 -1.15 1.29 -1.94 2.47 -1.94 c 1 0 1.82 0.55 2.3 1.39 c 0.29 -0.18 0.64 -0.24 1 -0.24 c 1.23 0 2.29 1.09 2.29 2.36 c 0 1.27 -1.06 2.37 -2.29 2.37"/></g><g style="fill:#f4f4f4"><path d="m 9.45 9.1 c -0.06 -0.17 -0.01 -0.17 -0.85 -0.03 c -0.3 0.05 -0.55 0.09 -0.55 0.08 c 0 -0.01 0 -0.04 0.03 -0.06 c 0.64 -0.81 0.76 -1.02 0.69 -1.17 c -0.04 -0.08 -0.07 -0.1 -0.16 -0.1 c -0.19 0 -0.25 0.09 -0.48 0.72 c -0.24 0.65 -0.22 0.61 -0.24 0.57 c -0.01 -0.02 -0.08 -0.21 -0.15 -0.41 c -0.29 -0.85 -0.37 -0.97 -0.59 -0.82 c -0.18 0.13 -0.16 0.28 0.09 0.56 c 0.23 0.27 0.55 0.67 0.55 0.7 c 0 0.03 0.03 0.04 -0.54 -0.07 c -0.54 -0.09 -0.7 -0.11 -0.76 -0.06 c -0.11 0.1 -0.15 0.29 -0.08 0.37 c 0.11 0.12 0.24 0.14 0.47 0.08 c 0.23 -0.06 0.91 -0.18 0.92 -0.16 c 0.02 0.02 -0.1 0.17 -0.45 0.59 c -0.16 0.2 -0.27 0.35 -0.3 0.42 c -0.04 0.1 -0.04 0.11 0.01 0.21 c 0.04 0.09 0.05 0.1 0.18 0.11 c 0.12 0 0.14 0 0.18 -0.05 c 0.02 -0.03 0.13 -0.3 0.25 -0.61 c 0.11 -0.3 0.21 -0.56 0.22 -0.57 c 0.01 0 0.09 0.21 0.19 0.48 c 0.27 0.76 0.27 0.75 0.44 0.75 c 0.13 0 0.16 -0.02 0.21 -0.13 c 0.07 -0.11 0.02 -0.14 -0.02 -0.25 c -0.04 -0.08 -0.21 -0.32 -0.39 -0.54 c -0.18 -0.21 -0.31 -0.4 -0.3 -0.4 c 0.01 -0.02 0.4 0.05 0.77 0.14 c 0.34 0.07 0.46 0.08 0.57 0.02 c 0.12 -0.11 0.11 -0.25 0.08 -0.36"/><path d="m 4.89 12.76 c 0.15 -0.05 0.15 0 0.03 -0.76 c -0.04 -0.27 -0.07 -0.49 -0.07 -0.5 c 0.01 -0.01 0.03 0 0.05 0.02 c 0.69 0.58 0.86 0.69 1 0.62 c 0.07 -0.04 0.08 -0.06 0.08 -0.14 c 0 -0.17 -0.08 -0.23 -0.61 -0.43 c -0.55 -0.21 -0.52 -0.2 -0.48 -0.21 c 0.02 -0.01 0.18 -0.07 0.35 -0.13 c 0.72 -0.26 0.82 -0.34 0.7 -0.53 c -0.11 -0.16 -0.23 -0.14 -0.48 0.09 c -0.23 0.21 -0.57 0.49 -0.59 0.49 c -0.03 0 -0.03 0.03 0.05 -0.49 c 0.08 -0.49 0.09 -0.63 0.05 -0.68 c -0.08 -0.1 -0.24 -0.14 -0.31 -0.07 c -0.1 0.1 -0.12 0.21 -0.07 0.43 c 0.05 0.2 0.15 0.81 0.14 0.83 c -0.01 0.01 -0.14 -0.09 -0.51 -0.41 c -0.16 -0.14 -0.3 -0.25 -0.36 -0.27 c -0.09 -0.03 -0.09 -0.03 -0.18 0.01 c -0.08 0.04 -0.08 0.04 -0.09 0.16 c 0 0.11 0 0.13 0.04 0.16 c 0.03 0.02 0.26 0.12 0.52 0.22 c 0.26 0.1 0.48 0.19 0.48 0.2 c 0 0.01 -0.18 0.09 -0.4 0.17 c -0.64 0.24 -0.64 0.24 -0.64 0.4 c 0 0.11 0.02 0.14 0.11 0.19 c 0.09 0.06 0.13 0.02 0.21 -0.02 c 0.07 -0.04 0.28 -0.19 0.46 -0.35 c 0.18 -0.16 0.34 -0.28 0.34 -0.27 c 0.02 0.01 -0.04 0.36 -0.12 0.69 c -0.06 0.3 -0.07 0.42 -0.02 0.51 c 0.09 0.11 0.22 0.11 0.3 0.07"/><path d="m 11.1 12.66 c 0.15 -0.05 0.15 -0.01 0.02 -0.75 c -0.04 -0.27 -0.07 -0.49 -0.07 -0.5 c 0 0 0.03 0 0.05 0.02 c 0.7 0.57 0.88 0.68 1.02 0.61 c 0.07 -0.04 0.08 -0.06 0.08 -0.14 c 0 -0.17 -0.08 -0.22 -0.63 -0.43 c -0.57 -0.21 -0.53 -0.2 -0.5 -0.22 c 0.02 -0.01 0.18 -0.07 0.36 -0.13 c 0.74 -0.26 0.84 -0.33 0.71 -0.52 c -0.11 -0.16 -0.24 -0.14 -0.49 0.08 c -0.23 0.21 -0.59 0.49 -0.61 0.49 c -0.03 0 -0.03 0.03 0.06 -0.48 c 0.08 -0.48 0.09 -0.62 0.05 -0.68 c -0.09 -0.1 -0.25 -0.13 -0.32 -0.07 c -0.11 0.09 -0.13 0.21 -0.07 0.42 c 0.05 0.2 0.16 0.8 0.14 0.82 c -0.02 0.01 -0.15 -0.09 -0.52 -0.41 c -0.17 -0.14 -0.3 -0.24 -0.36 -0.26 c -0.09 -0.03 -0.1 -0.03 -0.18 0.01 c -0.08 0.04 -0.09 0.04 -0.09 0.16 c -0.01 0.11 0 0.13 0.04 0.16 c 0.02 0.02 0.27 0.12 0.53 0.22 c 0.27 0.1 0.49 0.19 0.49 0.2 c 0 0.01 -0.18 0.09 -0.41 0.17 c -0.66 0.24 -0.66 0.24 -0.66 0.39 c 0 0.11 0.02 0.14 0.12 0.19 c 0.09 0.06 0.13 0.02 0.22 -0.02 c 0.07 -0.04 0.28 -0.19 0.47 -0.34 c 0.19 -0.16 0.35 -0.28 0.36 -0.27 c 0.01 0.02 -0.05 0.36 -0.12 0.69 c -0.07 0.3 -0.07 0.41 -0.02 0.51 c 0.09 0.11 0.22 0.1 0.31 0.07"/></g><g style="fill:#fff"><path d="m 9.43 13.41 c 0 0.17 0.13 0.3 0.3 0.3 c 0.16 0 0.29 -0.13 0.29 -0.3 c 0 -0.17 -0.13 -0.3 -0.29 -0.3 c -0.16 0 -0.3 0.14 -0.3 0.3"/><path d="m 5.94 13.48 c 0 0.17 0.13 0.3 0.3 0.3 c 0.16 0 0.29 -0.13 0.29 -0.3 c 0 -0.17 -0.13 -0.3 -0.29 -0.3 c -0.16 0 -0.3 0.14 -0.3 0.3"/></g></svg>