<svg xmlns="http://www.w3.org/2000/svg" xmlns:xlink="http://www.w3.org/1999/xlink" viewBox="0 0 16 16"><defs><g id="3" style="clip-path:url(#2)"><path d="m 4.25 11.98 c 0 1.08 1.48 1.08 1.48 0 c 0 -0.42 -0.71 -1.56 -0.71 -1.56 c 0 0 -0.77 1.08 -0.77 1.56" style="fill:#fff"/><path d="m 10.54 11.96 c 0 1.08 1.48 1.08 1.48 0 c 0 -0.42 -0.71 -1.56 -0.71 -1.56 c 0 0 -0.77 1.08 -0.77 1.56" style="fill:#fff"/></g><clipPath id="2"><path d="M 0,0 H16 V16 H0 z"/></clipPath><filter id="0" filterUnits="objectBoundingBox" x="0" y="0" width="16" height="16"><feColorMatrix type="matrix" in="SourceGraphic" values="0 0 0 0 1 0 0 0 0 1 0 0 0 0 1 0 0 0 1 0"/></filter><mask id="1"><g style="filter:url(#0)"><path d="M 0,0 H16 V16 H0 z" style="fill-opacity:0.75"/></g></mask></defs><path d="m 2.73 2.82 c -8.12 6.52 3.77 18.27 10.95 10.76 c 7.2 -6.47 -4 -19 -10.95 -10.76" style="fill:#213352"/><path d="m 5.6 9.5 c 0.18 0 0.3 -0.12 0.3 -0.3 c 0 -0.18 -0.12 -0.3 -0.3 -0.3 c -0.94 0 -1.7 -0.79 -1.7 -1.76 c 0 -0.97 0.76 -1.76 1.7 -1.76 c 0.36 0 0.71 0.12 0.94 0.3 c 0.09 0 0.25 0 0.36 0 c 0.04 -0.04 0.11 -0.07 0.12 -0.12 c 0 -0.04 0 -0.09 0 -0.12 c 0.29 -0.73 1 -1.21 1.88 -1.21 c 0.94 0 1.64 0.61 1.88 1.45 c 0 0.06 0 0.18 0.06 0.25 c 0.06 0.12 0.18 0.24 0.29 0.24 c 0.04 0 0.08 0 0.12 0 c 0.53 0.24 0.88 0.79 0.88 1.39 c 0 0.85 -0.65 1.57 -1.47 1.57 c -0.18 0 -0.3 0.12 -0.3 0.3 c 0 0.18 0.12 0.3 0.3 0.3 c 1.12 0 2.06 -0.97 2.06 -2.18 c 0 -0.91 -0.53 -1.7 -1.36 -2 c -0.29 -1.15 -1.29 -1.94 -2.47 -1.94 c -1 0 -1.82 0.54 -2.3 1.39 c -0.29 -0.18 -0.64 -0.24 -1 -0.24 c -1.23 0 -2.29 1.09 -2.29 2.36 c 0 1.27 1.06 2.36 2.29 2.36" style="fill:#fff"/><path d="m 8.1 11.61 c -0.21 -0.07 -0.21 -0.01 -0.04 -1.16 c 0.06 -0.41 0.11 -0.76 0.1 -0.77 c -0.01 -0.01 -0.04 0.01 -0.07 0.04 c -1 0.88 -1.26 1.05 -1.46 0.95 c -0.09 -0.05 -0.12 -0.09 -0.12 -0.21 c 0 -0.27 0.11 -0.35 0.89 -0.66 c 0.8 -0.32 0.75 -0.3 0.7 -0.33 c -0.03 -0.02 -0.26 -0.11 -0.51 -0.2 c -1.05 -0.39 -1.2 -0.51 -1.02 -0.81 c 0.15 -0.25 0.34 -0.21 0.7 0.13 c 0.33 0.32 0.83 0.75 0.87 0.75 c 0.04 0 0.04 0.04 -0.09 -0.75 c -0.12 -0.74 -0.13 -0.96 -0.07 -1.04 c 0.12 -0.15 0.35 -0.21 0.45 -0.11 c 0.15 0.15 0.18 0.34 0.11 0.65 c -0.07 0.32 -0.22 1.25 -0.2 1.27 c 0.02 0.02 0.21 -0.14 0.74 -0.63 c 0.24 -0.22 0.43 -0.37 0.52 -0.41 c 0.13 -0.05 0.14 -0.05 0.26 0.01 c 0.12 0.06 0.12 0.07 0.13 0.25 c 0.01 0.16 0 0.2 -0.05 0.25 c -0.04 0.03 -0.38 0.18 -0.76 0.34 c -0.38 0.15 -0.7 0.29 -0.7 0.3 c 0 0.02 0.26 0.13 0.59 0.26 c 0.94 0.38 0.93 0.37 0.93 0.61 c 0 0.18 -0.02 0.22 -0.16 0.29 c -0.13 0.09 -0.18 0.04 -0.31 -0.04 c -0.1 -0.05 -0.41 -0.29 -0.67 -0.53 c -0.27 -0.24 -0.5 -0.43 -0.5 -0.42 c -0.02 0.02 0.07 0.55 0.17 1.06 c 0.09 0.46 0.1 0.64 0.02 0.79 c -0.14 0.16 -0.32 0.16 -0.45 0.11" style="fill:#f4f4f4"/><use xlink:href="#3" style="mask:url(#1)"/></svg>