<svg xmlns="http://www.w3.org/2000/svg" viewBox="0 0 16 16"><path d="m 13.71 3 c 9.98 14.19 -15.98 18.71 -13.41 3.63 c 1.36 -5.99 9.41 -9.31 13.41 -3.63" style="fill:#ffa400"/><path d="m 13.33 7.58 h -1.12 c -0.35 -1.98 -2.03 -3.54 -4.13 -3.54 c -1.54 0 -2.87 0.85 -3.64 2.13 h -1.61 c -0.21 0 -0.35 0.14 -0.35 0.36 c 0 0.21 0.14 0.36 0.35 0.36 h 1.33 c -0.14 0.21 -0.21 0.5 -0.21 0.71 h -0.07 c -0.21 0 -0.35 0.14 -0.35 0.36 c 0 0.21 0.14 0.36 0.35 0.36 c 0 0.5 0.07 0.99 0.28 1.42 h -1.33 c -0.21 0 -0.35 0.14 -0.35 0.35 c 0 0.21 0.14 0.36 0.35 0.36 h 1.61 c 0.7 1.28 2.1 2.13 3.64 2.13 c 1.54 0 2.87 -0.85 3.64 -2.13 h 0.56 c 0.21 0 0.35 -0.14 0.35 -0.36 c 0 -0.21 -0.14 -0.35 -0.35 -0.35 h -0.28 c 0.21 -0.43 0.28 -0.92 0.28 -1.42 h 1.05 c 0.21 0 0.35 -0.14 0.35 -0.36 c 0 -0.21 -0.14 -0.36 -0.35 -0.36 m -8.46 -0.71 h 3.22 c 0.21 0 0.35 -0.14 0.35 -0.36 c 0 -0.21 -0.14 -0.36 -0.35 -0.36 h -2.8 c 0.63 -0.85 1.61 -1.42 2.8 -1.42 c 1.75 0 3.08 1.21 3.43 2.84 h -6.86 c 0.07 -0.21 0.14 -0.5 0.21 -0.71 m 3.22 4.96 c -1.19 0 -2.17 -0.57 -2.8 -1.42 h 5.6 c -0.63 0.85 -1.61 1.42 -2.8 1.42 m 3.22 -2.13 h -6.44 c -0.21 -0.43 -0.28 -0.92 -0.28 -1.42 h 7 c 0 0.5 -0.07 0.99 -0.28 1.42" style="fill:#fff"/></svg>