<svg xmlns="http://www.w3.org/2000/svg" viewBox="0 0 16 16"><path d="m 6.81 0.29 c -8.26 1.23 -9.24 13.42 -1.4 15.26 c 6.33 1.9 12 -4.97 10.21 -10.1 c -0.79 -3.44 -4.7 -6.22 -8.81 -5.15" style="fill:#7c5999"/><g transform="matrix(0.53 0 0 0.65 3.65 1.93)" style="fill:none;stroke-miterlimit:10;stroke:#fff;stroke-linecap:round"><path d="m 0.5 12.5 c 1.1 0.6 2.3 1 3.5 1 c 1.4 0 2.8 -0.4 3.99 -1 c 1.3 -0.6 2.6 -0.9 4 -1 c 1.4 0 1.7 0.4 3.5 1"/><path d="m 0.5 9.5 c 1.1 0.6 2.3 1 3.5 1 c 1.4 0 2.8 -0.4 3.99 -1 c 1.3 -0.6 2.6 -0.9 4 -1 c 1.4 0 1.7 0.4 3.5 1"/><path d="m 0.5 6.5 c 1.1 0.6 2.3 1 3.5 1 c 1.4 0 2.8 -0.4 3.99 -1 c 1.2 -0.6 2.6 -1 4 -1 c 1.4 0 1.7 0.4 3.5 1"/></g></svg>