<svg xmlns="http://www.w3.org/2000/svg" viewBox="0 0 16 16"><path d="m 2.8 13.68 c -12.61 -16.65 22.1 -19 10.96 -2 c -2.54 3.88 -7.62 6.43 -10.96 2" style="fill:#297296"/><g style="fill:#fff"><path d="m 12 5.88 c 0 -1.27 -1.3 -2.34 -3.16 -2.81 c 0.9 0.54 1.46 1.34 1.46 2.14 c 0 1.67 -2.26 3 -5.08 3 c -0.68 0 -1.3 -0.07 -1.92 -0.2 c 0.9 0.54 2.2 0.87 3.61 0.87 c 1.18 0 2.31 -0.27 3.16 -0.67 c -0.17 1.2 -1.86 2.14 -3.95 2.14 c -0.51 0 -1.02 -0.07 -1.46 -0.2 c 0.73 0.4 1.69 0.67 2.82 0.67 c 0.68 0 1.3 -0.13 1.86 -0.27 c 0.05 0.13 0.11 0.27 0.11 0.4 c 0 0.87 -1.19 1.54 -2.65 1.54 c -0.34 0 -0.68 -0.07 -1.02 -0.13 c 0.45 0.34 1.13 0.54 1.86 0.54 c 1.47 0 2.65 -0.67 2.65 -1.54 c 0 -0.34 -0.22 -0.67 -0.56 -1 c 1.02 -0.4 1.69 -1.14 1.69 -1.87 c 0 -0.34 -0.11 -0.67 -0.34 -0.94 c 0.56 -0.47 0.9 -1.07 0.9 -1.67"/><path d="m 5.26 4.54 c 0 0.19 -0.13 0.34 -0.28 0.34 c -0.16 0 -0.28 -0.15 -0.28 -0.34 c 0 -0.18 0.13 -0.33 0.28 -0.33 c 0.16 0 0.28 0.15 0.28 0.33"/><path d="m 8.1 4.54 c 0 0.19 -0.13 0.34 -0.28 0.34 c -0.16 0 -0.28 -0.15 -0.28 -0.34 c 0 -0.18 0.13 -0.33 0.28 -0.33 c 0.16 0 0.28 0.15 0.28 0.33"/><path d="m 6.96 5.88 c 0 0.18 -0.13 0.33 -0.29 0.33 c -0.16 0 -0.28 -0.15 -0.28 -0.33 c 0 -0.19 0.13 -0.34 0.28 -0.34 c 0.16 0 0.29 0.15 0.29 0.34"/><path d="m 4.13 6.54 c 0 0.18 -0.13 0.34 -0.28 0.34 c -0.16 0 -0.28 -0.15 -0.28 -0.34 c 0 -0.18 0.13 -0.34 0.28 -0.34 c 0.16 0 0.28 0.15 0.28 0.34"/><path d="m 5.83 7.21 c 0 0.19 -0.13 0.34 -0.29 0.34 c -0.16 0 -0.28 -0.15 -0.28 -0.34 c 0 -0.18 0.13 -0.33 0.28 -0.33 c 0.16 0 0.29 0.15 0.29 0.33"/><path d="m 8.65 6.54 c 0 0.18 -0.13 0.34 -0.28 0.34 c -0.16 0 -0.29 -0.15 -0.29 -0.34 c 0 -0.18 0.13 -0.34 0.29 -0.34 c 0.16 0 0.28 0.15 0.28 0.34"/><path d="m 5.83 9.89 c 0 0.19 -0.13 0.34 -0.29 0.34 c -0.16 0 -0.28 -0.15 -0.28 -0.34 c 0 -0.18 0.13 -0.33 0.28 -0.33 c 0.16 0 0.29 0.15 0.29 0.33"/><path d="m 7.52 9.89 c 0 0.19 -0.13 0.34 -0.28 0.34 c -0.16 0 -0.28 -0.15 -0.28 -0.34 c 0 -0.18 0.13 -0.33 0.28 -0.33 c 0.16 0 0.28 0.15 0.28 0.33"/><path d="m 6.39 11.89 c 0 0.18 -0.13 0.34 -0.28 0.34 c -0.16 0 -0.28 -0.15 -0.28 -0.34 c 0 -0.18 0.13 -0.34 0.28 -0.34 c 0.16 0 0.28 0.15 0.28 0.34"/></g></svg>