<svg xmlns="http://www.w3.org/2000/svg" viewBox="0 0 16 16"><path d="m 13.27 2.74 c 8.12 6.55 -3.77 18.38 -10.95 10.82 c -7.2 -6.51 4 -19.1 10.95 -10.82" style="fill:#473d8b"/><g style="fill:#fff"><path d="m 5.57 5.59 c 0 0.32 -0.26 0.59 -0.58 0.59 c -0.32 0 -0.57 -0.27 -0.57 -0.59 c 0 -0.32 0.26 -0.59 0.57 -0.59 c 0.32 0 0.58 0.27 0.58 0.59"/><path d="m 11.33 5.59 c 0 0.32 -0.26 0.59 -0.58 0.59 c -0.32 0 -0.57 -0.27 -0.57 -0.59 c 0 -0.32 0.26 -0.59 0.57 -0.59 c 0.32 0 0.58 0.27 0.58 0.59"/><path d="m 8.45 6.77 c 0 0.32 -0.26 0.59 -0.58 0.59 c -0.32 0 -0.57 -0.26 -0.57 -0.59 c 0 -0.33 0.26 -0.59 0.57 -0.59 c 0.32 0 0.58 0.26 0.58 0.59"/><path d="m 8.45 9.71 c 0 0.33 -0.26 0.59 -0.58 0.59 c -0.32 0 -0.57 -0.26 -0.57 -0.59 c 0 -0.32 0.26 -0.59 0.57 -0.59 c 0.32 0 0.58 0.26 0.58 0.59"/><path d="m 5.57 8.54 c 0 0.32 -0.26 0.59 -0.58 0.59 c -0.32 0 -0.57 -0.27 -0.57 -0.59 c 0 -0.32 0.26 -0.59 0.57 -0.59 c 0.32 0 0.58 0.27 0.58 0.59"/><path d="m 11.33 8.54 c 0 0.32 -0.26 0.59 -0.58 0.59 c -0.32 0 -0.57 -0.27 -0.57 -0.59 c 0 -0.32 0.26 -0.59 0.57 -0.59 c 0.32 0 0.58 0.27 0.58 0.59"/></g><path d="m 0.5 13.5 h 15" transform="matrix(0.481 0 0 0.61 4 3.19)" style="fill:none;stroke-miterlimit:10;stroke:#fff;stroke-linecap:round"/></svg>