<svg xmlns="http://www.w3.org/2000/svg" viewBox="0 0 16 16"><path d="m 13.2 13.68 c 12.61 -16.65 -22.1 -19 -10.96 -2 c 2.54 3.88 7.62 6.43 10.96 2" style="fill:#3e4a79"/><g style="fill:#fff"><path d="m 10.48 9 c -0.01 -0.17 -0.11 -0.34 -0.25 -0.52 c 0.39 -0.23 0.63 -0.57 0.61 -0.92 c -0.01 -0.17 -0.06 -0.29 -0.16 -0.46 c 0.34 -0.23 0.55 -0.57 0.52 -0.97 c -0.06 -0.98 -1.48 -1.72 -3.22 -1.72 c -1.74 0 -3.07 0.74 -3 1.72 c 0.02 0.4 0.27 0.74 0.64 0.97 c -0.08 0.17 -0.11 0.29 -0.11 0.46 c 0.02 0.34 0.31 0.69 0.72 0.92 c -0.12 0.17 -0.2 0.34 -0.19 0.52 c 0.02 0.29 0.21 0.52 0.53 0.69 c -0.04 0.05 -0.04 0.11 -0.03 0.17 c 0.02 0.29 0.3 0.52 0.75 0.69 c -0.17 0.11 -0.25 0.29 -0.24 0.46 c 0.02 0.23 0.25 0.46 0.57 0.63 c -0.04 0.06 -0.08 0.17 -0.07 0.23 c 0.02 0.29 0.39 0.52 0.93 0.57 c 0.02 0.34 0.34 0.57 0.7 0.57 c 0.36 0 0.66 -0.23 0.64 -0.57 c -0.01 -0.11 -0.06 -0.23 -0.16 -0.34 c 0.08 -0.11 0.13 -0.17 0.12 -0.29 c 0 -0.06 -0.05 -0.11 -0.05 -0.17 c 0.3 -0.17 0.46 -0.4 0.45 -0.63 c -0.02 -0.23 -0.21 -0.46 -0.48 -0.57 c 0.25 -0.17 0.42 -0.34 0.41 -0.57 c 0 -0.06 -0.01 -0.12 -0.05 -0.17 c 0.3 -0.17 0.46 -0.4 0.45 -0.69 m -5.3 -2.86 c -0.04 -0.69 1.12 -1.43 2.81 -1.43 c 1.69 0 2.94 0.75 2.98 1.43 c 0.02 0.29 -0.14 0.57 -0.44 0.8 c -0.47 -0.46 -1.43 -0.8 -2.45 -0.8 c -1.02 0 -1.94 0.34 -2.36 0.8 c -0.32 -0.23 -0.52 -0.52 -0.54 -0.8 m 5.09 0.91 c -0.47 0.29 -1.22 0.52 -2.11 0.52 c -0.89 0 -1.66 -0.23 -2.17 -0.52 c 0.38 -0.34 1.16 -0.63 2.1 -0.63 c 0.93 0 1.75 0.29 2.18 0.63 m -4.56 0.52 c -0.01 -0.11 0.04 -0.17 0.07 -0.29 c 0.6 0.34 1.46 0.57 2.39 0.57 c 0.93 0 1.77 -0.23 2.32 -0.57 c 0.05 0.11 0.1 0.17 0.11 0.29 c 0.02 0.23 -0.23 0.52 -0.62 0.75 c -0.42 -0.29 -1.05 -0.46 -1.81 -0.46 c -0.76 0 -1.37 0.17 -1.75 0.46 c -0.41 -0.23 -0.7 -0.52 -0.71 -0.75 m 3.97 0.86 c -0.39 0.17 -0.88 0.29 -1.45 0.29 c -0.58 0 -1.07 -0.11 -1.49 -0.29 c 0.35 -0.17 0.83 -0.29 1.45 -0.29 c 0.63 0 1.12 0.11 1.49 0.29 m -0.11 4 c 0 0.12 -0.16 0.29 -0.43 0.29 c -0.27 0 -0.46 -0.17 -0.46 -0.29 c 0.31 0 0.57 -0.05 0.75 -0.17 c 0.09 0.06 0.14 0.12 0.14 0.17 m -0.68 -0.23 c 0.04 0 0.13 -0.06 0.22 -0.06 c -0.04 0 -0.13 0.06 -0.22 0.06 m 0.65 -0.34 c 0 0.05 0 0.05 -0.04 0.11 c -0.09 -0.06 -0.23 -0.11 -0.41 -0.11 c -0.27 0 -0.48 0.11 -0.61 0.34 c -0.49 -0.06 -0.73 -0.23 -0.73 -0.34 c 0 -0.06 0.04 -0.06 0.08 -0.12 c 0.23 0.06 0.5 0.12 0.81 0.12 c 0.31 0 0.57 -0.06 0.79 -0.12 c 0.05 0.06 0.09 0.06 0.1 0.12 m -1.27 -0.29 c 0.09 0 0.22 -0.05 0.35 -0.05 c 0.14 0 0.27 0 0.36 0.05 c -0.09 0 -0.22 0 -0.36 0 c -0.13 0 -0.22 0 -0.36 0 m 1.66 -0.57 c 0 0.11 -0.16 0.29 -0.47 0.4 c -0.23 -0.11 -0.5 -0.17 -0.86 -0.17 c -0.31 0 -0.62 0.06 -0.83 0.23 c -0.32 -0.11 -0.51 -0.29 -0.52 -0.46 c 0 -0.12 0.12 -0.29 0.33 -0.4 c 0.23 0.06 0.5 0.11 0.77 0.11 c 0.4 0 0.71 -0.05 1.02 -0.17 c 0.36 0.11 0.55 0.34 0.56 0.46 m -0.07 -1.14 c 0.01 0.11 -0.16 0.29 -0.51 0.4 c -0.23 -0.05 -0.5 -0.11 -0.81 -0.11 c -0.36 0 -0.71 0.06 -0.96 0.23 c -0.54 -0.12 -0.82 -0.34 -0.83 -0.52 c 0 0 0 0 0 -0.06 c 0.41 0.23 0.96 0.34 1.58 0.34 c 0.63 0 1.15 -0.11 1.54 -0.29 m -2.91 -0.23 c 0.26 -0.17 0.69 -0.34 1.32 -0.34 c 0.63 0 1.13 0.17 1.36 0.34 c -0.34 0.17 -0.79 0.23 -1.32 0.23 c -0.54 0 -0.99 -0.12 -1.35 -0.23 m 2.93 -0.17 c -0.32 -0.23 -0.92 -0.46 -1.63 -0.46 c -0.71 0 -1.28 0.23 -1.57 0.46 c -0.27 -0.11 -0.42 -0.29 -0.43 -0.46 c 0 -0.12 0.08 -0.23 0.2 -0.34 c 0.5 0.23 1.13 0.34 1.8 0.34 c 0.67 0 1.29 -0.12 1.76 -0.34 c 0.14 0.11 0.24 0.23 0.25 0.34 c 0.01 0.17 -0.11 0.34 -0.38 0.46"/><path d="m 4.59 7.5 c -0.16 0.01 -0.29 -0.11 -0.29 -0.27 c 0 -0.16 0.13 -0.29 0.29 -0.3 c 0.16 -0.01 0.28 0.11 0.28 0.27 c 0 0.16 -0.13 0.3 -0.28 0.3"/><path d="m 4.72 9 c -0.16 0.01 -0.29 -0.11 -0.29 -0.26 c 0 -0.15 0.13 -0.28 0.29 -0.29 c 0.16 -0.01 0.28 0.11 0.28 0.26 c 0 0.15 -0.13 0.29 -0.28 0.29"/><path d="m 5.89 10.73 c -0.16 0.01 -0.29 -0.1 -0.29 -0.26 c 0 -0.15 0.13 -0.29 0.29 -0.3 c 0.16 -0.01 0.28 0.1 0.28 0.25 c 0 0.16 -0.13 0.29 -0.28 0.3"/><path d="m 3.31 4.39 c 0.01 0.17 -0.12 0.31 -0.29 0.31 c -0.17 0 -0.32 -0.14 -0.33 -0.31 c -0.01 -0.17 0.12 -0.31 0.29 -0.31 c 0.17 0 0.32 0.14 0.33 0.31"/><path d="m 6.9 12 c 0.01 0.14 -0.09 0.25 -0.21 0.25 c -0.13 0 -0.23 -0.11 -0.24 -0.25 c -0.01 -0.14 0.08 -0.25 0.2 -0.25 c 0.13 0 0.23 0.11 0.24 0.25"/><path d="m 10.81 10.7 c -0.16 0.01 -0.29 -0.09 -0.29 -0.23 c 0 -0.14 0.13 -0.26 0.29 -0.27 c 0.16 -0.01 0.29 0.09 0.29 0.23 c 0 0.14 -0.13 0.25 -0.29 0.27"/><path d="m 11.14 8.97 c -0.16 0.01 -0.29 -0.09 -0.29 -0.22 c 0 -0.13 0.13 -0.24 0.29 -0.25 c 0.16 -0.01 0.29 0.09 0.29 0.22 c 0 0.13 -0.13 0.24 -0.29 0.25"/><path d="m 10.78 4.15 c 0.01 0.16 -0.12 0.29 -0.28 0.29 c -0.16 0 -0.3 -0.13 -0.32 -0.29 c -0.01 -0.16 0.12 -0.29 0.28 -0.29 c 0.16 0 0.3 0.13 0.32 0.29"/><path d="m 5.29 4.2 c 0.01 0.19 -0.14 0.34 -0.34 0.34 c -0.2 0 -0.37 -0.15 -0.38 -0.34 c -0.01 -0.18 0.14 -0.34 0.34 -0.34 c 0.2 0 0.37 0.15 0.38 0.34"/><path d="m 8 5.55 c 0.01 0.2 -0.13 0.36 -0.32 0.36 c -0.19 0 -0.36 -0.16 -0.37 -0.36 c -0.01 -0.2 0.13 -0.36 0.32 -0.36 c 0.19 0 0.36 0.16 0.37 0.36"/><path d="m 9 7 c 0.01 0.16 -0.12 0.29 -0.28 0.29 c -0.16 0 -0.3 -0.13 -0.32 -0.29 c -0.01 -0.16 0.12 -0.29 0.28 -0.29 c 0.16 0 0.3 0.13 0.32 0.29"/><path d="m 3.91 6.08 c -0.21 0.01 -0.38 -0.14 -0.38 -0.34 c 0 -0.2 0.17 -0.38 0.38 -0.39 c 0.21 -0.01 0.38 0.14 0.38 0.34 c 0 0.2 -0.17 0.37 -0.38 0.39"/></g></svg>