<svg xmlns="http://www.w3.org/2000/svg" viewBox="0 0 16 16"><path d="m 14.83 3.96 c -12.1 -13.99 -23.71 14.79 -5 11.83 c 4.1 -0.65 8.27 -8.1 5 -11.83" style="fill:#008b8b"/><g style="fill:#fff"><path d="m 10.16 6.22 c -1.13 0 -2.08 0.72 -2.32 1.68 c -0.24 -0.96 -1.19 -1.68 -2.38 -1.68 c -1.37 0 -2.44 0.96 -2.44 2.11 c 0 1.14 1.07 2.1 2.44 2.1 c 1.19 0 2.14 -0.72 2.38 -1.68 c 0.24 0.96 1.19 1.68 2.32 1.68 c 1.31 0 2.38 -0.96 2.38 -2.1 c 0 -1.14 -1.07 -2.11 -2.38 -2.11 m -4.7 3.61 c -1.01 0 -1.84 -0.66 -1.84 -1.5 c 0 -0.84 0.83 -1.5 1.84 -1.5 c 1.01 0 1.84 0.66 1.84 1.5 c 0 0.84 -0.83 1.5 -1.84 1.5 m 4.7 0 c -1.01 0 -1.79 -0.66 -1.79 -1.5 c 0 -0.84 0.77 -1.5 1.79 -1.5 c 1.01 0 1.79 0.66 1.79 1.5 c 0 0.84 -0.77 1.5 -1.79 1.5"/><path d="m 5.41 5 c 0 0.33 -0.27 0.6 -0.6 0.6 c -0.33 0 -0.59 -0.27 -0.59 -0.6 c 0 -0.33 0.27 -0.6 0.59 -0.6 c 0.33 0 0.6 0.27 0.6 0.6"/><path d="m 11.35 5 c 0 0.33 -0.27 0.6 -0.59 0.6 c -0.33 0 -0.59 -0.27 -0.59 -0.6 c 0 -0.33 0.27 -0.6 0.59 -0.6 c 0.33 0 0.59 0.27 0.59 0.6"/><path d="m 5.41 11.63 c 0 0.33 -0.27 0.6 -0.6 0.6 c -0.33 0 -0.59 -0.27 -0.59 -0.6 c 0 -0.33 0.27 -0.6 0.59 -0.6 c 0.33 0 0.6 0.27 0.6 0.6"/><path d="m 11.35 11.63 c 0 0.33 -0.27 0.6 -0.59 0.6 c -0.33 0 -0.59 -0.27 -0.59 -0.6 c 0 -0.33 0.27 -0.6 0.59 -0.6 c 0.33 0 0.59 0.27 0.59 0.6"/></g></svg>