<svg xmlns="http://www.w3.org/2000/svg" viewBox="0 0 16 16"><path d="m 14.83 3.96 c -12.1 -13.99 -23.71 14.79 -5 11.83 c 4.1 -0.65 8.27 -8.1 5 -11.83" style="fill:#707f8f"/><g style="fill:#fff"><path d="m 10.16 6.54 c -1.1 0 -2 0.59 -2.25 1.36 c -0.23 -0.77 -1.15 -1.36 -2.31 -1.36 c -1.33 0 -2.37 0.77 -2.37 1.78 c 0 1 1.04 1.78 2.37 1.78 c 1.16 0 2.08 -0.59 2.31 -1.36 c 0.23 0.77 1.16 1.36 2.25 1.36 c 1.27 0 2.31 -0.77 2.31 -1.78 c 0 -1 -1.04 -1.78 -2.31 -1.78 m -4.56 2.96 c -0.98 0 -1.79 -0.53 -1.79 -1.18 c 0 -0.65 0.81 -1.19 1.79 -1.19 c 0.98 0 1.79 0.54 1.79 1.19 c 0 0.65 -0.81 1.18 -1.79 1.18 m 4.56 0 c -0.92 0 -1.73 -0.53 -1.73 -1.18 c 0 -0.65 0.81 -1.19 1.73 -1.19 c 0.93 0 1.73 0.54 1.73 1.19 c 0 0.65 -0.81 1.18 -1.73 1.18"/><path d="m 4.96 4.76 c 0 0.33 -0.26 0.59 -0.58 0.59 c -0.32 0 -0.58 -0.27 -0.58 -0.59 c 0 -0.33 0.26 -0.59 0.58 -0.59 c 0.32 0 0.58 0.27 0.58 0.59"/><path d="m 11.89 4.76 c 0 0.33 -0.26 0.59 -0.58 0.59 c -0.32 0 -0.58 -0.27 -0.58 -0.59 c 0 -0.33 0.26 -0.59 0.58 -0.59 c 0.32 0 0.58 0.27 0.58 0.59"/><path d="m 4.96 11.87 c 0 0.33 -0.26 0.59 -0.58 0.59 c -0.32 0 -0.58 -0.27 -0.58 -0.59 c 0 -0.33 0.26 -0.59 0.58 -0.59 c 0.32 0 0.58 0.27 0.58 0.59"/><path d="m 11.89 11.87 c 0 0.33 -0.26 0.59 -0.58 0.59 c -0.32 0 -0.58 -0.27 -0.58 -0.59 c 0 -0.33 0.26 -0.59 0.58 -0.59 c 0.32 0 0.58 0.27 0.58 0.59"/><path d="m 7.27 11.28 c 0 0.33 -0.26 0.59 -0.58 0.59 c -0.32 0 -0.58 -0.27 -0.58 -0.59 c 0 -0.32 0.26 -0.59 0.58 -0.59 c 0.32 0 0.58 0.27 0.58 0.59"/><path d="m 9.58 11.28 c 0 0.33 -0.26 0.59 -0.58 0.59 c -0.32 0 -0.57 -0.27 -0.57 -0.59 c 0 -0.32 0.26 -0.59 0.57 -0.59 c 0.32 0 0.58 0.27 0.58 0.59"/><path d="m 7.27 5.35 c 0 0.33 -0.26 0.59 -0.58 0.59 c -0.32 0 -0.58 -0.27 -0.58 -0.59 c 0 -0.33 0.26 -0.59 0.58 -0.59 c 0.32 0 0.58 0.27 0.58 0.59"/><path d="m 9.58 5.35 c 0 0.33 -0.26 0.59 -0.58 0.59 c -0.32 0 -0.57 -0.27 -0.57 -0.59 c 0 -0.33 0.26 -0.59 0.57 -0.59 c 0.32 0 0.58 0.27 0.58 0.59"/></g></svg>