<svg xmlns="http://www.w3.org/2000/svg" viewBox="0 0 16 16"><path d="m 15.87 8.1 c 1.2 10.55 -15.99 10.41 -15.79 -0.19 c -0.57 -9.86 16.73 -10.75 15.79 0.19" style="fill:#d11353"/><g style="fill:#fff"><path d="m 5.81 12.51 c -0.11 -0.03 -0.22 -0.16 -0.24 -0.26 c -0.03 -0.14 0.03 -0.29 0.13 -0.38 c 0.09 -0.07 0.09 -0.07 0.74 -0.08 h 0.66 c 0 -0.17 0 -0.34 0 -0.52 l -1.43 -0.01 c -1.25 -0.01 -1.44 -0.02 -1.57 -0.06 c -0.41 -0.2 -0.64 -0.48 -0.79 -0.86 v -2.28 c -0.01 -1.48 0 -2.34 0.02 -2.44 c 0.09 -0.47 0.46 -0.85 0.93 -0.94 c 0.2 -0.04 7.68 -0.04 7.88 0 c 0.32 0.06 0.61 0.27 0.78 0.55 c 0.18 0.3 0.17 0.17 0.18 2.59 c 0 1.33 0 2.29 -0.02 2.4 c -0.07 0.53 -0.48 0.94 -1 1.02 c -0.09 0.02 -0.76 0.03 -1.47 0.03 h -1.3 c 0 0.17 0 0.35 0 0.52 h 0.66 h 0.66 l 0.09 0.08 c 0.16 0.16 0.16 0.39 0 0.55 l -0.09 0.08 h -2.37 c -1.31 0 -2.4 0 -2.43 -0.02 m 2.71 -1.24 c -0.23 0 -0.46 0 -0.69 0 c 0 0.18 0 0.35 0 0.52 c 0.23 0 0.46 0 0.69 0 c 0 -0.18 0 -0.35 0 -0.52 m 3.86 -1.08 v -2.23 c 0 -2.16 0 -2.23 -0.05 -2.34 c -0.06 -0.11 -0.14 -0.17 -0.23 -0.23 h -3.83 c -2.11 0 -3.87 0 -3.91 0.01 c -0.11 0.02 -0.24 0.13 -0.3 0.25 c -0.04 0.08 -0.05 0.27 -0.05 2.21 c -0.01 1.39 0 2.18 0.02 2.29 c 0.04 0.19 0.09 0.27 0.25 0.36 l 0.12 0.06 h 7.63 c 0.19 -0.09 0.28 -0.2 0.37 -0.37"/><path d="m 6.18 7.88 c 0.19 0 0.38 0 0.57 0 l 0.02 -0.53 c 0.01 -0.45 0.02 -0.55 0.07 -0.68 c 0.21 -0.54 0.74 -0.89 1.35 -0.89 c 0.61 0 1.16 0.37 1.35 0.91 c 0.05 0.13 0.06 0.25 0.07 0.67 l 0.02 0.52 c 0.19 0 0.38 0 0.57 0 c 0 0.68 0 1.36 0 2.04 c -1.34 0 -2.68 0 -4 0 c 0 -0.68 0 -1.36 0 -2.04 m 2.37 -0.46 v -0.46 c -0.11 -0.14 -0.25 -0.19 -0.36 -0.19 c -0.2 0 -0.23 0.06 -0.36 0.19 v 0.91 c 0.24 0 0.48 0 0.71 0"/></g></svg>