<svg xmlns="http://www.w3.org/2000/svg" viewBox="0 0 16 16"><path d="m 0.13 8.1 c -1.2 10.55 15.99 10.41 15.79 -0.19 c 0.57 -9.86 -16.72 -10.75 -15.79 0.19" style="fill:#105331"/><g style="fill:#fff"><path d="m 3.21 3.86 c -1.06 0 -1.91 0.85 -1.91 1.91 v 8.58 c 0 1.06 0.84 1.9 1.91 1.9 h 5.99 v 2 h -2.7 c -0.28 0 -0.5 0.02 -0.5 0.3 c 0 0.28 0.22 0.28 0.5 0.3 h 9 c 0.28 0 0.5 -0.02 0.5 -0.3 c 0 -0.28 -0.22 -0.32 -0.5 -0.3 h -2.7 v -2 h 5.99 c 1.06 0 1.91 -0.85 1.91 -1.9 v -8.58 c 0 -1.06 -0.84 -1.91 -1.91 -1.91 m -15.56 0.5 h 15.54 c 0.79 0 1.43 0.64 1.43 1.43 v 8.54 c 0 0.79 -0.64 1.43 -1.43 1.43 h -15.54 c -0.79 0 -1.43 -0.64 -1.43 -1.43 v -8.54 c 0 -0.79 0.64 -1.43 1.43 -1.43 m 6.57 11.92 h 2.4 v 2 h -2.4" transform="matrix(0.481 0 0 0.494 2.66 2.95)" style="stroke:#fff"/><path d="m 6.32 7.84 c 0.19 0 0.38 0 0.57 0 v -0.46 c 0 -0.52 -0.02 -0.57 -0.2 -0.65 c -0.13 -0.05 -0.3 -0.04 -0.43 0.02 c -0.18 0.09 -0.2 0.01 -0.21 0.79 l -0.01 0.83 c -0.36 0 -0.63 -0.01 -0.99 -0.01 v -0.83 c 0 -0.38 -0.04 -0.72 0.12 -1.06 c 0.35 -0.67 0.91 -0.84 1.49 -0.8 c 0.43 0.05 0.76 0.22 1 0.53 c 0.25 0.3 0.32 0.56 0.32 1.24 v 0.4 c 0.8 0 1.6 0 2.4 0 c 0 0.7 0 1.39 0 2.09 c -1.36 0 -2.72 0 -4.08 0 c 0 -0.73 0 -1.35 0 -2.09"/></g></svg>