<svg xmlns="http://www.w3.org/2000/svg" viewBox="0 0 16 16"><path d="m 12.1 1.28 c 14.1 11.94 -14.87 23.43 -11.9 4.95 c 0.65 -4.05 8.11 -8.17 11.9 -4.95" style="fill:#ff4500"/><path d="m 9.95 4.05 c -0.02 0 -0.05 0.01 -0.07 0.01 l -4.87 1.21 c 0 0 -0.01 0 -0.02 0 c -0.68 0.19 -1.13 0.69 -1.42 1.26 c -0.29 0.57 -0.45 1.22 -0.54 1.86 c -0.09 0.64 -0.11 1.25 -0.1 1.73 c 0 0.24 0.02 0.45 0.03 0.61 c 0.01 0.1 0.03 0.17 0.04 0.23 c 0 0.02 0 0.03 0 0.04 c 0.01 0.04 0 0.06 0.02 0.11 c 0.07 0.19 0.26 0.32 0.48 0.31 l 4.32 -0.18 c 0.04 0 0.07 -0.01 0.11 -0.02 l 4.68 -1.18 c 0.21 -0.05 0.35 -0.23 0.35 -0.43 c 0 0 -0.01 -1.32 -0.34 -2.66 c -0.16 -0.67 -0.41 -1.36 -0.8 -1.91 c -0.4 -0.56 -1.02 -1 -1.8 -1 c -0.02 0 -0.04 0 -0.05 0 m 0.08 0.89 c 0.41 0.01 0.7 0.2 0.98 0.59 c 0.29 0.41 0.52 1 0.67 1.62 c 0.26 1.06 0.27 1.87 0.27 2.14 l -4.09 1.03 c -0.07 -1.11 -0.38 -3.75 -1.81 -4.4 m -0.96 0.58 c 1.41 -0.07 1.69 3.9 1.69 3.9 l -2.87 0.14 c 0 0 -0.23 -3.97 1.18 -4.05 m 5.68 0.45 l -2.29 0.58 l -0.04 0.05 l 0.07 0.54 h 0.07 l 1.68 -0.44 l 0.06 0.45 h 0.05 l 0.57 -0.18 l 0.04 -0.03 l -0.16 -0.96 m -5.63 0.84 c -0.13 0.01 -0.25 0.06 -0.33 0.15 c -0.09 0.09 -0.13 0.2 -0.12 0.32 c 0.01 0.13 0.07 0.24 0.17 0.32 l -0.33 1.02 l 1.44 -0.08 l -0.45 -0.98 c 0.09 -0.09 0.13 -0.21 0.13 -0.32 c -0.02 -0.24 -0.24 -0.43 -0.5 -0.42" style="fill:#fff"/></svg>