<svg xmlns="http://www.w3.org/2000/svg" viewBox="0 0 16 16"><path d="m 0.2 9.83 c 3.13 14.99 24.62 -1.1 11.71 -8.73 c -5 -3.27 -13.31 1.01 -11.71 8.73" style="fill:#5ba4ff"/><path d="m 9.62 4.48 l 0.02 0.02 l 0.04 -0.02 m 0.48 0.5 l 2.97 2.77 v -2.77" style="fill-opacity:0.2"/><path d="m 9.62 1.71 l 3.52 3.27 h -2.97 c -0.26 0 -0.54 -0.26 -0.54 -0.5 v -2.77" style="fill:#fff;fill-opacity:0.39"/><path d="m 7.38 5.18 c -1.86 0 -3.37 1.52 -3.37 3.38 c 0 1.87 1.51 3.38 3.37 3.38 h 2.81 c 0.11 0 0.2 -0.06 0.25 -0.15 c 0.05 -0.09 0.04 -0.21 -0.02 -0.29 l -0.5 -0.71 c 0.54 -0.62 0.84 -1.41 0.84 -2.23 c 0 -1.87 -1.51 -3.38 -3.37 -3.38 m -1.69 2.82 c 0.31 0 0.56 0.25 0.56 0.57 c 0 0.31 -0.25 0.56 -0.56 0.56 c -0.31 0 -0.56 -0.25 -0.56 -0.56 c 0 -0.31 0.25 -0.57 0.56 -0.57 m 1.69 0 c 0.31 0 0.56 0.25 0.56 0.57 c 0 0.31 -0.25 0.56 -0.56 0.56 c -0.31 0 -0.56 -0.25 -0.56 -0.56 c 0 -0.31 0.25 -0.57 0.56 -0.57 m 1.68 0 c 0.31 0 0.56 0.25 0.56 0.57 c 0 0.31 -0.25 0.56 -0.56 0.56 c -0.31 0 -0.56 -0.25 -0.56 -0.56 c 0 -0.31 0.25 -0.57 0.56 -0.57" style="fill:#e3f6ff"/></svg>