<svg xmlns="http://www.w3.org/2000/svg" viewBox="0 0 16 16"><path d="m 1.95 4.15 c -5.66 6.39 2.95 13.2 7.86 11.54 c 4.91 -1.66 7.98 -6.4 4.77 -10.52 c -3.21 -4.12 -6.36 -8.1 -12 -1.7" style="fill:#d60329"/><path d="m 7.23 4.89 c -0.42 0.73 -1.44 2.33 -1.85 2.91 c -0.63 1.12 -2.16 2.93 -1.81 3 c 0.01 0.04 0.1 0.12 0.21 0.18 c 0.52 0.25 1.08 -0.01 1.58 -0.75 c 0.46 -0.68 1.32 -2.07 1.53 -2.48 c 0.21 -0.4 0.75 -1.32 0.93 -1.58 c 0.12 -0.16 0.25 -0.15 0.42 0.02 c 0.18 0.19 0.33 0.44 0.91 1.57 c 0.46 0.91 1.14 2.09 1.48 2.63 c 0.28 0.43 0.76 0.68 1.22 0.63 c 0.26 -0.03 0.34 -0.09 0.34 -0.25 c 0 -0.29 -0.59 -1.37 -1.5 -2.77 c -0.13 -0.2 -0.4 -0.66 -0.6 -1.02 c -1.46 -2.6 -1.49 -2.64 -1.72 -2.79 c -0.56 -0.25 -0.92 0.29 -1.14 0.66" style="fill:#fff"/></svg>