<svg xmlns="http://www.w3.org/2000/svg" viewBox="0 0 16 16"><path d="m 2.03 11.91 c -5.66 -6.39 2.72 -13.16 7.63 -11.5 c 4.91 1.66 8.21 6.36 5 10.48 c -3.21 4.11 -6.36 8.1 -12 1.69" style="fill:#ee6708"/><g style="fill:#fff"><path d="m 7.49 12.86 c -0.52 -0.48 -0.55 -0.94 -0.1 -1.4 c 0.58 -0.61 1.27 -0.51 1.65 0.23 c 0.29 0.57 -0.25 1.46 -0.88 1.46 c -0.2 0 -0.49 -0.13 -0.67 -0.29"/><path d="m 7.38 9.76 c -0.05 -0.07 -0.13 -0.22 -0.16 -0.33 c -0.09 -0.34 -0.48 -4.99 -0.45 -5.4 l 0.03 -0.39 l 0.57 -0.09 c 0.31 -0.05 0.85 -0.05 1.2 0 l 0.64 0.09 l -0.02 1.02 c -0.03 1.38 -0.41 4.93 -0.54 5.09 c -0.14 0.18 -1.13 0.18 -1.27 0.01"/></g></svg>