<svg xmlns="http://www.w3.org/2000/svg" viewBox="0 0 16 16"><path d="m 15.26 11.76 c -3.15 7.5 -15.34 4.16 -15.26 -4 c -0.12 -7.43 9.57 -10.26 13.82 -4.96 c 2.13 2.29 2.87 6.09 1.45 8.98"/><path d="m 13.16 7.97 c 0 2.76 -2.3 5 -5.14 5 c -2.84 0 -5.14 -2.24 -5.14 -5 c 0 -2.76 2.3 -5 5.14 -5 c 2.84 0 5.14 2.24 5.14 5" style="fill:#696969"/><path d="m 8.1 12.76 c 1.5 -0.93 2.45 -2.5 2.65 -4.38 c 0.07 -0.66 0.01 -1.46 -0.16 -2.14 c -0.29 -1.14 -0.98 -2.24 -1.86 -2.98 l -0.31 -0.26 l 0.27 0.04 c 2.3 0.29 4.1 2.05 4.42 4.32 c 0.23 1.62 -0.49 3.36 -1.81 4.43 c -0.83 0.67 -1.93 1.09 -3 1.15 l -0.52 0.03 l 0.32 -0.2" style="fill:#a9a9a9"/><g style="fill:#fff"><path d="m 2.11 6.61 l -0.23 -1.21 l -0.84 -0.45 l 0.85 -0.33 l 0.31 -1.21 l 0.23 1.21 l 0.84 0.45 l -0.85 0.33"/><path d="m 14.37 7.92 l -0.25 -0.61 l -0.51 -0.34 l 0.53 -0.3 l 0.29 -0.59 l 0.25 0.61 l 0.51 0.34 l -0.53 0.3"/><path d="m 10.57 15.1 l -0.16 -0.61 l -0.48 -0.3 l 0.46 -0.21 l 0.23 -0.64 l 0.16 0.61 l 0.48 0.3 l -0.46 0.21"/></g></svg>