<svg xmlns="http://www.w3.org/2000/svg" viewBox="0 0 16 16"><path d="m 15.26 11.76 c -3.15 7.5 -15.34 4.16 -15.26 -4 c -0.12 -7.43 9.57 -10.26 13.82 -4.96 c 2.13 2.29 2.87 6.09 1.45 8.98"/><path d="m 13.16 7.97 c 0 2.76 -2.3 5 -5.14 5 c -2.84 0 -5.14 -2.24 -5.14 -5 c 0 -2.76 2.3 -5 5.14 -5 c 2.84 0 5.14 2.24 5.14 5" style="fill:#696969"/><g style="fill:#fff"><path d="m 2.11 6.61 l -0.23 -1.21 l -0.84 -0.45 l 0.85 -0.33 l 0.31 -1.21 l 0.23 1.21 l 0.84 0.45 l -0.85 0.33"/><path d="m 14.37 7.92 l -0.25 -0.61 l -0.51 -0.34 l 0.53 -0.3 l 0.29 -0.59 l 0.25 0.61 l 0.51 0.34 l -0.53 0.3"/><path d="m 10.57 15.1 l -0.16 -0.61 l -0.48 -0.3 l 0.46 -0.21 l 0.23 -0.64 l 0.16 0.61 l 0.48 0.3 l -0.46 0.21"/></g><path d="m 8.12 7.97 v -4.97 l 0.25 0.02 c 1.98 0.15 3.77 1.46 4.46 3.25 c 0.42 1.09 0.42 2.3 0.01 3.39 c -0.59 1.55 -1.97 2.74 -3.67 3.15 c -0.26 0.06 -0.71 0.13 -0.88 0.13 h -0.16 v -4.97" style="fill:#a9a9a9"/><path d="m 99.6 203.2 c -14.81 1.13 -23.94 -15 -19.75 -31.38 c 4.13 -10.88 8.13 -14.44 20 -19.2 c -2.94 -12.31 0.81 -22.75 9.94 -26.69 c 7.31 -3.56 17 -3.56 23.44 -0.06 c 2.88 1.56 3.44 4.19 6.13 3.19 c 3.44 -8.88 10.5 -20.88 32.2 -20.81 c 12.19 -0.88 25.3 11.1 28.2 20.81 c 3 9.44 5.44 -0.31 15.88 2.63 c 27.94 3.88 29.1 41.69 5.94 48.88 c -0.94 13.81 -5.63 19.1 -14.1 21.75 c -32.69 8 -36.94 -12.1 -52.63 -8.81 c -6.13 2.75 -16.56 14.38 -38.56 3.25" transform="scale(0.063)" style="fill:#fff;stroke:#696969;stroke-width:2.13"/></svg>