<svg xmlns="http://www.w3.org/2000/svg" viewBox="0 0 24 24"><path d="m 0.3 14.75 c 4.69 22.49 36.93 -1.65 17.56 -13.1 c -7.52 -4.9 -19.97 1.52 -17.56 13.1" style="fill:#dcdcdc"/><path d="m 15.31 6.29 l 0.03 0.02 l 0.06 -0.02 m 0.72 0.76 l 4.46 4.16 v -4.16" style="fill-opacity:0.2"/><path d="m 15.35 2.14 l 5.27 4.91 h -4.46 c -0.39 0 -0.81 -0.39 -0.81 -0.76 v -4.15" style="fill:#fff;fill-opacity:0.39"/><path d="m 8.44 18.7 c -0.03 -0.11 -0.05 -0.51 -0.07 -0.7 l -0.02 -0.36 l -0.68 -0.05 c -1.09 -0.08 -1 0.34 -0.98 -4.88 c 0.02 -4.25 0.03 -4.41 0.19 -4.54 c 0.25 -0.19 7.75 -0.19 8 0 c 0.16 0.12 0.17 0.28 0.19 3.61 c 0.02 2.97 0 3.53 -0.11 3.81 c -0.16 0.41 -0.16 0.82 0 1.23 c 0.12 0.29 0.11 0.33 -0.04 0.52 c -0.16 0.2 -0.19 0.21 -2.21 0.25 l -2.05 0.05 l -0.02 0.65 c -0.02 0.67 -0.23 0.61 -0.71 0.16 c -0.19 -0.18 -0.38 -0.32 -0.43 -0.32 c -0.05 0 -0.24 0.14 -0.42 0.31 c -0.39 0.36 -0.59 0.54 -0.65 0.26 m -0.05 -2.35 l 0.05 -0.22 c 0.71 0 1.42 0 2.13 0 c 0.04 0.15 0.07 0.3 0.1 0.45 l 1.61 0.02 l 1.61 0.02 c 0 -0.3 0 -0.6 0 -0.9 l -6.23 0.05 l -0.03 0.3 c -0.04 0.46 0.03 0.56 0.39 0.53 c 0.26 -0.02 0.33 -0.07 0.37 -0.25 m 5.59 -1.61 c 0.16 -0.09 0.17 -0.21 0.17 -2.84 c 0 -2 -0.03 -2.77 -0.11 -2.85 c -0.14 -0.15 -5.4 -0.15 -5.55 0 c -0.07 0.08 -0.1 0.83 -0.1 2.8 c 0 2.33 0.02 2.71 0.13 2.84 c 0.12 0.12 0.48 0.14 2.71 0.14 c 1.61 0 2.64 -0.04 2.74 -0.09 m -4.88 -0.55 c -0.14 -0.15 -0.14 -0.74 0.02 -0.88 c 0.07 -0.05 0.29 -0.09 0.49 -0.07 l 0.37 0.03 c 0.07 0.35 0.07 0.8 0 0.98 c -0.25 -0.01 -0.69 0.12 -0.88 -0.06 m 0.04 -1.78 c -0.18 -0.11 -0.21 -0.79 -0.05 -0.96 c 0.06 -0.06 0.24 -0.11 0.41 -0.11 c 0.4 0 0.51 0.13 0.51 0.59 c 0 0.29 -0.04 0.4 -0.16 0.47 c -0.24 0.08 -0.53 0.1 -0.71 0 m -0.01 -1.89 c -0.11 -0.09 -0.14 -0.21 -0.12 -0.51 c 0.02 -0.34 0.06 -0.41 0.26 -0.48 c 0.15 -0.05 0.32 -0.05 0.47 0 c 0.2 0.07 0.24 0.14 0.26 0.47 c 0.02 0.21 -0.02 0.44 -0.07 0.51 c -0.13 0.16 -0.6 0.17 -0.8 0.01" style="fill:#7f7f7f"/></svg>