<svg xmlns="http://www.w3.org/2000/svg" viewBox="0 0 24 24"><path d="m 0.3 14.75 c 4.69 22.49 36.93 -1.65 17.56 -13.1 c -7.52 -4.9 -19.97 1.52 -17.56 13.1" style="fill:#e6ecef"/><path d="m 14.43 6.71 l 0.03 0.02 l 0.06 -0.02 m 0.72 0.76 l 4.46 4.15 v -4.15" style="fill-opacity:0.2"/><path d="m 14.43 2.56 l 5.27 4.91 h -4.46 c -0.39 0 -0.81 -0.39 -0.81 -0.76 v -4.15" style="fill:#fff;fill-opacity:0.39"/><path d="m 17.67 14.76 c 0.04 -0.09 0 -0.18 -0.21 -0.41 c -0.29 -0.32 -0.62 -0.88 -0.88 -1.51 c -0.27 -0.63 -0.31 -0.82 -0.5 -2.08 c -0.05 -0.34 -0.11 -0.65 -0.13 -0.69 c -0.02 -0.05 -0.21 -0.14 -0.53 -0.24 c -0.54 -0.17 -0.79 -0.34 -1.12 -0.73 c -0.24 -0.29 -0.59 -1.13 -0.69 -1.65 c -0.07 -0.36 -0.08 -0.39 -0.16 -0.42 c -0.1 -0.03 -2.18 0.21 -2.32 0.27 c -0.11 0.04 -0.14 0.14 -0.19 0.47 c -0.05 0.35 -0.33 0.97 -0.61 1.34 c -0.13 0.18 -0.27 0.36 -0.3 0.42 l -0.07 0.1 l 1.5 3.57 c 1.14 2.73 1.52 3.57 1.57 3.59 c 0.1 0.03 4.58 -1.93 4.63 -2.02 m -2.52 0.64 c -0.09 -0.2 -0.19 -0.27 -0.33 -0.21 c -0.14 0.06 -0.16 0.19 -0.08 0.38 l 0.05 0.11 l -0.77 0.34 l -0.77 0.34 l -0.32 -0.77 l -0.32 -0.77 l 0.12 -0.05 c 0.22 -0.1 0.3 -0.2 0.25 -0.32 c -0.05 -0.13 -0.18 -0.14 -0.41 -0.04 l -0.12 0.05 l -1.02 -2.41 l -1.01 -2.41 l 0.22 -0.3 c 0.35 -0.47 0.61 -1.08 0.72 -1.65 c 0.02 -0.08 0.08 -0.09 0.88 -0.19 c 0.48 -0.06 0.89 -0.11 0.91 -0.1 c 0.02 0 0.08 0.19 0.13 0.4 c 0.3 1.27 1 2.12 2 2.41 l 0.3 0.08 l 0.07 0.43 c 0.23 1.53 0.35 1.98 0.74 2.73 c 0.15 0.29 0.37 0.66 0.49 0.83 c 0.13 0.17 0.23 0.32 0.24 0.34 c 0.01 0.02 -0.43 0.22 -0.96 0.46 l -0.98 0.43 m -0.37 -0.77 c 0 -0.06 -0.02 -0.16 -0.04 -0.22 c -0.02 -0.06 -0.08 -0.14 -0.13 -0.18 c -0.07 -0.07 -0.1 -0.07 -0.21 -0.01 c -0.11 0.06 -0.13 0.09 -0.11 0.22 c 0.01 0.09 0.06 0.2 0.12 0.27 c 0.08 0.11 0.11 0.11 0.23 0.07 c 0.12 -0.04 0.14 -0.07 0.14 -0.16 m 1.05 -1.39 c 0.06 -0.06 0.07 -0.1 0.02 -0.19 c -0.05 -0.1 -0.08 -0.11 -0.23 -0.08 c -0.11 0.02 -0.22 0.07 -0.31 0.13 c -0.12 0.09 -0.13 0.12 -0.1 0.23 c 0.03 0.11 0.06 0.12 0.16 0.11 c 0.15 -0.01 0.35 -0.1 0.46 -0.2 m -0.98 0.43 c 0.06 -0.06 0.07 -0.1 0.02 -0.19 c -0.05 -0.1 -0.08 -0.11 -0.23 -0.08 c -0.1 0.02 -0.22 0.07 -0.3 0.13 c -0.12 0.09 -0.13 0.12 -0.1 0.22 c 0.03 0.11 0.06 0.13 0.16 0.12 c 0.15 -0.02 0.35 -0.11 0.46 -0.2 m -0.98 0.43 c 0.06 -0.06 0.07 -0.1 0.02 -0.19 c -0.05 -0.1 -0.08 -0.11 -0.23 -0.08 c -0.1 0.02 -0.22 0.07 -0.3 0.13 c -0.12 0.09 -0.13 0.12 -0.1 0.23 c 0.03 0.11 0.06 0.12 0.16 0.11 c 0.15 -0.01 0.35 -0.1 0.46 -0.2 m 0.29 -0.93 c 0 -0.06 -0.02 -0.16 -0.04 -0.22 c -0.02 -0.06 -0.08 -0.14 -0.13 -0.18 c -0.07 -0.07 -0.1 -0.07 -0.21 -0.01 c -0.11 0.06 -0.13 0.09 -0.11 0.22 c 0.01 0.09 0.05 0.2 0.11 0.27 c 0.09 0.11 0.11 0.11 0.23 0.07 c 0.11 -0.04 0.14 -0.07 0.14 -0.16 m -0.37 -0.88 c 0 -0.06 -0.02 -0.16 -0.05 -0.22 c -0.02 -0.05 -0.08 -0.14 -0.13 -0.18 c -0.07 -0.07 -0.1 -0.07 -0.21 -0.01 c -0.11 0.06 -0.13 0.09 -0.11 0.22 c 0.01 0.09 0.05 0.2 0.11 0.27 c 0.08 0.11 0.11 0.12 0.23 0.07 c 0.12 -0.04 0.14 -0.06 0.14 -0.16 m 1.53 -1.6 c 0.07 -0.06 0.07 -0.1 0.02 -0.19 c -0.05 -0.1 -0.09 -0.11 -0.23 -0.08 c -0.1 0.02 -0.22 0.07 -0.3 0.13 c -0.12 0.09 -0.13 0.12 -0.1 0.23 c 0.03 0.1 0.05 0.12 0.16 0.11 c 0.15 -0.01 0.35 -0.1 0.46 -0.2 m -0.98 0.43 c 0.07 -0.06 0.07 -0.1 0.02 -0.19 c -0.05 -0.1 -0.09 -0.11 -0.23 -0.08 c -0.1 0.02 -0.22 0.07 -0.3 0.14 c -0.12 0.09 -0.14 0.12 -0.1 0.22 c 0.03 0.11 0.05 0.13 0.16 0.11 c 0.15 -0.01 0.35 -0.1 0.46 -0.2 m -0.98 0.43 c 0.07 -0.06 0.07 -0.1 0.02 -0.19 c -0.05 -0.1 -0.09 -0.11 -0.23 -0.08 c -0.1 0.02 -0.22 0.07 -0.3 0.13 c -0.12 0.09 -0.14 0.12 -0.1 0.23 c 0.03 0.1 0.05 0.12 0.16 0.11 c 0.15 -0.01 0.35 -0.1 0.46 -0.2 m -0.98 0.43 c 0.07 -0.06 0.07 -0.1 0.02 -0.19 c -0.05 -0.1 -0.08 -0.11 -0.23 -0.08 c -0.11 0.02 -0.22 0.07 -0.31 0.14 c -0.12 0.09 -0.13 0.11 -0.1 0.22 c 0.03 0.11 0.05 0.13 0.16 0.11 c 0.15 -0.01 0.35 -0.1 0.46 -0.2 m 0.78 -1.14 c 0 -0.06 -0.02 -0.16 -0.04 -0.22 c -0.02 -0.05 -0.08 -0.14 -0.13 -0.18 c -0.07 -0.07 -0.1 -0.07 -0.21 -0.01 c -0.11 0.06 -0.13 0.09 -0.11 0.22 c 0.01 0.09 0.06 0.2 0.12 0.27 c 0.08 0.11 0.11 0.12 0.23 0.07 c 0.12 -0.04 0.14 -0.06 0.14 -0.16 m -0.37 -0.88 c 0 -0.06 -0.02 -0.16 -0.04 -0.22 c -0.02 -0.06 -0.08 -0.14 -0.13 -0.18 c -0.07 -0.07 -0.1 -0.07 -0.21 -0.01 c -0.11 0.06 -0.13 0.09 -0.11 0.22 c 0.01 0.09 0.05 0.2 0.11 0.27 c 0.09 0.11 0.11 0.11 0.23 0.07 c 0.11 -0.04 0.14 -0.07 0.14 -0.16 m -0.37 -0.88 c 0 -0.06 -0.02 -0.16 -0.04 -0.21 c -0.03 -0.06 -0.08 -0.14 -0.13 -0.18 c -0.07 -0.07 -0.1 -0.07 -0.21 -0.01 c -0.11 0.06 -0.13 0.09 -0.11 0.22 c 0.01 0.1 0.05 0.2 0.11 0.28 c 0.08 0.1 0.11 0.11 0.23 0.07 c 0.11 -0.04 0.14 -0.07 0.14 -0.16 m -0.37 -0.88 c 0 -0.06 -0.02 -0.16 -0.04 -0.22 c -0.02 -0.06 -0.08 -0.14 -0.13 -0.18 c -0.07 -0.07 -0.1 -0.07 -0.21 -0.01 c -0.11 0.06 -0.13 0.09 -0.11 0.22 c 0.01 0.09 0.06 0.2 0.12 0.27 c 0.08 0.11 0.11 0.11 0.23 0.07 c 0.12 -0.04 0.14 -0.06 0.14 -0.16 m 0.11 8.66 c 0.04 -0.09 -0.73 -1.93 -0.82 -1.96 c -0.1 -0.03 -4.09 1.72 -4.14 1.81 c -0.04 0.09 0.73 1.93 0.82 1.96 c 0.1 0.03 4.09 -1.72 4.14 -1.81 m -2.03 0.43 c -0.08 -0.2 -0.19 -0.27 -0.32 -0.21 c -0.14 0.06 -0.16 0.19 -0.08 0.38 l 0.05 0.11 l -0.77 0.34 l -0.77 0.34 l -0.11 -0.25 l -0.11 -0.26 l 0.2 -0.09 c 0.3 -0.13 0.39 -0.23 0.33 -0.36 c -0.05 -0.13 -0.18 -0.13 -0.48 0 l -0.2 0.09 l -0.11 -0.26 l -0.11 -0.25 l 0.77 -0.34 l 0.77 -0.34 l 0.09 0.1 c 0.07 0.09 0.11 0.09 0.23 0.04 c 0.12 -0.05 0.14 -0.08 0.13 -0.2 l -0.01 -0.13 l 0.77 -0.34 l 0.77 -0.34 l 0.11 0.25 l 0.11 0.26 l -0.2 0.09 c -0.3 0.13 -0.39 0.23 -0.33 0.36 c 0.05 0.13 0.18 0.13 0.48 0 l 0.2 -0.09 l 0.11 0.26 l 0.11 0.25 l -0.77 0.34 l -0.77 0.34 m 0.29 -0.78 c 0.07 -0.06 0.07 -0.1 0.02 -0.19 c -0.05 -0.1 -0.09 -0.11 -0.23 -0.08 c -0.1 0.02 -0.22 0.07 -0.3 0.13 c -0.12 0.09 -0.14 0.12 -0.1 0.23 c 0.03 0.11 0.05 0.12 0.16 0.11 c 0.15 -0.01 0.35 -0.1 0.46 -0.2 m -0.98 0.43 c 0.07 -0.06 0.07 -0.1 0.02 -0.19 c -0.05 -0.1 -0.08 -0.11 -0.23 -0.08 c -0.11 0.02 -0.22 0.07 -0.3 0.13 c -0.12 0.09 -0.14 0.12 -0.1 0.23 c 0.03 0.1 0.05 0.12 0.16 0.11 c 0.15 -0.02 0.36 -0.11 0.46 -0.2 m 1.18 -2.86 c 0.03 -0.13 -1.07 -4.53 -1.16 -4.63 c -0.04 -0.04 -0.2 -0.1 -0.36 -0.13 c -0.16 -0.03 -0.53 -0.12 -0.82 -0.2 c -0.32 -0.09 -0.64 -0.15 -0.83 -0.15 c -0.3 0 -0.34 0.01 -0.79 0.2 c -0.45 0.2 -0.48 0.22 -0.69 0.44 c -0.13 0.14 -0.31 0.42 -0.47 0.71 c -0.14 0.27 -0.33 0.6 -0.42 0.74 c -0.09 0.14 -0.16 0.3 -0.16 0.36 c 0.02 0.14 2.38 3.98 2.49 4.05 l 0.09 0.05 l 1.54 -0.68 l 1.55 -0.68 m -3.05 0.81 c -0.04 -0.06 -0.55 -0.89 -1.14 -1.85 l -1.07 -1.74 l 0.11 -0.18 c 0.06 -0.09 0.2 -0.35 0.32 -0.57 c 0.44 -0.81 0.57 -0.96 1.04 -1.17 c 0.46 -0.2 0.67 -0.2 1.55 0.04 c 0.23 0.07 0.52 0.14 0.63 0.16 l 0.2 0.04 l 0.5 1.99 c 0.27 1.09 0.51 2.05 0.52 2.12 l 0.03 0.13 l -1.3 0.57 l -1.3 0.57 m 1.32 -0.99 c 0 -0.06 -0.02 -0.16 -0.04 -0.22 c -0.02 -0.06 -0.08 -0.14 -0.13 -0.18 c -0.07 -0.07 -0.1 -0.07 -0.21 -0.01 c -0.11 0.06 -0.13 0.09 -0.11 0.22 c 0.01 0.09 0.05 0.2 0.11 0.27 c 0.09 0.11 0.11 0.12 0.23 0.07 c 0.11 -0.04 0.14 -0.06 0.14 -0.16 m -0.37 -0.88 c 0 -0.06 -0.02 -0.16 -0.04 -0.22 c -0.03 -0.06 -0.08 -0.14 -0.13 -0.18 c -0.07 -0.07 -0.1 -0.07 -0.21 -0.01 c -0.11 0.06 -0.13 0.09 -0.11 0.22 c 0.01 0.09 0.05 0.2 0.11 0.27 c 0.08 0.11 0.11 0.11 0.23 0.07 c 0.11 -0.04 0.14 -0.07 0.14 -0.16 m -0.37 -0.88 c 0 -0.06 -0.02 -0.16 -0.04 -0.22 c -0.02 -0.05 -0.08 -0.14 -0.13 -0.18 c -0.07 -0.06 -0.1 -0.07 -0.21 -0.01 c -0.11 0.06 -0.13 0.09 -0.11 0.22 c 0.01 0.09 0.06 0.2 0.12 0.27 c 0.08 0.11 0.11 0.12 0.23 0.07 c 0.12 -0.04 0.14 -0.06 0.14 -0.16 m -0.37 -0.88 c 0 -0.06 -0.02 -0.16 -0.04 -0.22 c -0.02 -0.06 -0.08 -0.14 -0.13 -0.18 c -0.07 -0.07 -0.1 -0.07 -0.21 -0.01 c -0.11 0.06 -0.13 0.09 -0.11 0.22 c 0.01 0.09 0.05 0.2 0.11 0.27 c 0.09 0.11 0.11 0.11 0.23 0.07 c 0.11 -0.04 0.14 -0.07 0.14 -0.16 m 1.04 -1.39 c 0.06 -0.05 0.07 -0.11 0.03 -0.19 c -0.06 -0.14 -0.24 -0.14 -0.41 0 c -0.09 0.07 -0.11 0.11 -0.07 0.21 c 0.03 0.1 0.06 0.12 0.16 0.11 c 0.14 -0.01 0.19 -0.03 0.29 -0.13 m -0.81 0.35 c 0.07 -0.06 0.07 -0.1 0.02 -0.19 c -0.05 -0.1 -0.09 -0.11 -0.23 -0.08 c -0.1 0.02 -0.22 0.07 -0.3 0.14 c -0.12 0.09 -0.14 0.11 -0.1 0.22 c 0.03 0.11 0.05 0.13 0.16 0.11 c 0.15 -0.01 0.35 -0.1 0.46 -0.2 m -0.98 0.43 c 0.07 -0.06 0.07 -0.1 0.02 -0.19 c -0.05 -0.1 -0.09 -0.11 -0.23 -0.08 c -0.1 0.02 -0.22 0.07 -0.3 0.13 c -0.12 0.09 -0.14 0.12 -0.1 0.23 c 0.03 0.1 0.05 0.12 0.16 0.11 c 0.15 -0.01 0.36 -0.1 0.46 -0.2 m -0.98 0.43 c 0.06 -0.05 0.07 -0.11 0.03 -0.19 c -0.05 -0.14 -0.24 -0.14 -0.41 0 c -0.09 0.07 -0.1 0.11 -0.07 0.21 c 0.03 0.11 0.06 0.12 0.16 0.11 c 0.14 -0.01 0.19 -0.03 0.29 -0.13 m 1.18 -1.14 c 0 -0.06 -0.02 -0.16 -0.05 -0.22 c -0.02 -0.06 -0.08 -0.14 -0.13 -0.18 c -0.07 -0.06 -0.1 -0.07 -0.21 -0.01 c -0.11 0.06 -0.13 0.09 -0.11 0.22 c 0.01 0.09 0.06 0.2 0.12 0.27 c 0.08 0.11 0.11 0.12 0.23 0.07 c 0.12 -0.04 0.14 -0.06 0.14 -0.16"/></svg>