<svg xmlns="http://www.w3.org/2000/svg" viewBox="0 0 24 24"><path d="m 0.3 14.75 c 4.69 22.49 36.93 -1.65 17.56 -13.1 c -7.52 -4.9 -19.97 1.52 -17.56 13.1" style="fill:#eaeaea"/><path d="m 14.43 6.71 l 0.02 0.02 l 0.06 -0.02 m 0.72 0.76 l 4.46 4.15 v -4.15" style="fill-opacity:0.2"/><path d="m 14.43 2.56 l 5.27 4.91 h -4.46 c -0.39 0 -0.81 -0.39 -0.81 -0.76 v -4.15" style="fill:#fff;fill-opacity:0.39"/><path d="m 15.58 9.68 c -0.68 -0.09 -2.45 1.18 -4.2 3 c -0.78 0.82 -1.45 1.63 -1.97 2.39 c 0.61 0.2 1.1 0.71 1.29 1.35 c 0.73 -0.54 1.5 -1.25 2.28 -2.07 c 1.98 -2.08 3.23 -4.14 2.79 -4.61 c -0.05 -0.05 -0.11 -0.08 -0.19 -0.09 m -6.49 6.31 c -2.26 0.64 -0.57 2.14 -2.26 3.16 c 2.25 0 3.38 -1.19 3.38 -1.98 c 0 -0.39 0.04 -1.12 -1.13 -1.18" style="fill:#a37fdc"/></svg>