<svg xmlns="http://www.w3.org/2000/svg" viewBox="0 0 24 24"><path d="m 0.3 14.75 c 4.69 22.49 36.93 -1.65 17.56 -13.1 c -7.52 -4.9 -19.97 1.52 -17.56 13.1" style="fill:#dcdcdc"/><path d="m 14.43 6.71 l 0.02 0.02 l 0.06 -0.02 m 0.72 0.76 l 4.46 4.15 v -4.15" style="fill-opacity:0.2"/><path d="m 14.43 2.56 l 5.27 4.91 h -4.46 c -0.39 0 -0.81 -0.39 -0.81 -0.76 v -4.15" style="fill:#fff;fill-opacity:0.39"/><path d="m 10.36 12.41 v -1.23 c 0 -0.14 0.11 -0.25 0.26 -0.25 h 0.89 c 0.14 0 0.26 0.11 0.26 0.25 v 2.25 c 0 0.04 -0.02 0.06 -0.04 0.09 l -0.22 0.21 c -0.05 0.05 -0.05 0.13 0 0.18 l 0.22 0.21 c 0.03 0.03 0.04 0.05 0.04 0.09 v 1.23 c 0 0.14 -0.11 0.25 -0.26 0.25 h -0.89 c -0.14 0 -0.26 -0.11 -0.26 -0.25 v -2.25 c 0 -0.04 0.02 -0.06 0.04 -0.09 l 0.22 -0.21 c 0.05 -0.05 0.05 -0.13 0 -0.18 l -0.22 -0.21 c -0.03 -0.02 -0.04 -0.05 -0.04 -0.09 m 4 0.9 c 0 -1.78 -1.49 -3.22 -3.32 -3.22 c -1.84 0 -3.33 1.45 -3.33 3.22 c 0 1.78 1.49 3.22 3.33 3.22 c 1.84 0 3.32 -1.44 3.32 -3.22 m 1.05 0 c 0 2.34 -1.96 4.23 -4.37 4.23 c -2.42 0 -4.37 -1.9 -4.37 -4.23 c 0 -2.34 1.96 -4.23 4.37 -4.23 c 2.41 0 4.37 1.89 4.37 4.23 m -9.63 0 c 0 2.81 2.34 5.08 5.25 5.08 c 2.9 0 5.24 -2.27 5.24 -5.08 c 0 -2.81 -2.34 -5.08 -5.24 -5.08 c -2.9 0 -5.25 2.27 -5.25 5.08 m -0.36 0 c 0 -3 2.5 -5.43 5.6 -5.43 c 3.09 0 5.6 2.43 5.6 5.43 c 0 3 -2.51 5.43 -5.6 5.43 c -3.1 0 -5.6 -2.43 -5.6 -5.43" style="fill:#777"/></svg>