<svg xmlns="http://www.w3.org/2000/svg" viewBox="0 0 24 24"><path d="m 23.77 14.81 c -4.69 22.49 -36.93 -1.65 -17.56 -13.1 c 7.52 -4.9 19.97 1.52 17.56 13.1" style="fill:#8fd244"/><path d="m 14.7 6.45 l 0.03 0.02 l 0.06 -0.02 m 0.72 0.76 l 4.46 4.15 v -4.15" style="fill-opacity:0.2"/><path d="m 14.63 2.29 l 5.27 4.91 h -4.46 c -0.39 0 -0.81 -0.39 -0.81 -0.76 v -4.16" style="fill:#fff;fill-opacity:0.39"/><g style="fill:#4069e0"><path d="m 8.29 15.1 l 0.38 -0.44 l 2.91 2.46 l -0.37 0.44"/><path d="m 8.26 13.18 l 0.38 0.44 l 2.9 -2.47 l -0.37 -0.44"/><path d="m 9.1 13.75 v 0.57 l 2.27 -0.02 v -0.57"/></g><path d="m 9.43 14 c 0 0.9 -0.71 1.64 -1.6 1.64 c -0.89 0 -1.6 -0.73 -1.6 -1.64 c 0 -0.9 0.71 -1.64 1.6 -1.64 c 0.88 0 1.6 0.73 1.6 1.64" style="fill:#6395ec"/><g style="fill:#fff"><path d="m 11.25 13.46 h 4.16 c 0.25 0 0.45 0.27 0.45 0.61 c 0 0.34 -0.2 0.61 -0.45 0.61 h -4.16 c -0.25 0 -0.45 -0.27 -0.45 -0.61 c 0 -0.34 0.2 -0.61 0.45 -0.61"/><path d="m 11.43 9.9 h 3.8 c 0.35 0 0.63 0.36 0.63 0.79 c 0 0.44 -0.29 0.79 -0.63 0.79 h -3.8 c -0.35 0 -0.63 -0.36 -0.63 -0.79 c 0 -0.43 0.29 -0.79 0.63 -0.79"/><path d="m 11.61 16.7 h 3.73 c 0.37 0 0.67 0.39 0.67 0.86 c 0 0.48 -0.3 0.86 -0.67 0.86 h -3.73 c -0.37 0 -0.67 -0.39 -0.67 -0.86 c 0 -0.48 0.3 -0.86 0.67 -0.86"/></g></svg>