<svg xmlns="http://www.w3.org/2000/svg" viewBox="0 0 24 24"><path d="m 0.3 14.75 c 4.69 22.49 36.93 -1.65 17.56 -13.1 c -7.52 -4.9 -19.97 1.52 -17.56 13.1" style="fill:#c2b8af"/><path d="m 14.68 6 l 0.03 0.02 l 0.06 -0.02 m 0.72 0.76 l 4.46 4.15 v -4.15" style="fill-opacity:0.2"/><path d="m 14.73 1.87 l 5.27 4.91 h -4.46 c -0.39 0 -0.81 -0.39 -0.81 -0.76 v -4.16" style="fill:#fff;fill-opacity:0.39"/><path d="m 11.43 8.42 c -0.29 0 -0.51 0.04 -0.63 0.16 c -0.05 0.06 -0.09 0.15 -0.16 0.3 c -0.05 0.15 -0.13 0.35 -0.2 0.6 c -0.15 0.49 -0.33 1.16 -0.53 1.99 c -0.29 1.2 -0.09 1.9 0.12 2.29 c 0.13 0.24 0.23 0.42 0.26 0.65 c 0.03 0.23 -0.02 0.52 -0.21 0.99 c -0.14 0.34 -0.29 0.53 -0.41 0.64 c -0.13 0.11 -0.25 0.14 -0.37 0.16 c -0.33 -0.07 -0.61 -0.11 -0.83 -0.11 c -0.11 0 -0.21 0.01 -0.29 0.04 c -0.08 0.02 -0.14 0.06 -0.17 0.13 c -0.04 0.09 0.01 0.19 0.09 0.28 c 0.08 0.09 0.2 0.18 0.36 0.28 c 0.31 0.19 0.76 0.39 1.27 0.56 c 0.51 0.18 0.98 0.29 1.36 0.33 c 0.18 0.02 0.35 0.02 0.47 0 c 0.12 -0.02 0.22 -0.06 0.26 -0.16 c 0.03 -0.07 0.01 -0.14 -0.04 -0.21 c -0.04 -0.07 -0.11 -0.14 -0.2 -0.2 c -0.17 -0.13 -0.42 -0.28 -0.72 -0.42 c -0.13 -0.13 -0.24 -0.23 -0.3 -0.38 c -0.06 -0.16 -0.07 -0.39 0.03 -0.79 c 0.2 -0.77 0.45 -1 0.74 -1.18 c 0.29 -0.18 0.66 -0.3 1.04 -0.8 c 0.64 -0.84 0.81 -1.48 1.18 -2.45 c 0.19 -0.51 0.33 -0.89 0.42 -1.15 c 0.04 -0.13 0.07 -0.23 0.09 -0.31 c 0.02 -0.07 0.03 -0.13 0 -0.19 c -0.19 -0.34 -0.64 -0.6 -1.14 -0.78 c -0.5 -0.18 -1.07 -0.29 -1.49 -0.29 m 0.05 0.35 c 0.3 0 0.68 0.07 0.99 0.18 c 0.34 0.11 0.66 0.25 0.89 0.38 c 0.11 0.06 0.21 0.12 0.26 0.17 c 0.05 0.05 0.07 0.09 0.07 0.11 c -0.08 0.42 -0.23 0.75 -0.3 0.93 c -0.17 -0.1 -0.36 -0.11 -0.53 -0.05 c -0.21 0.06 -0.42 0.19 -0.65 0.28 c -0.23 0.09 -0.46 0.15 -0.73 0.11 c -0.25 -0.05 -0.55 -0.2 -0.87 -0.54 c 0.02 -0.05 0.26 -0.93 0.44 -1.45 c 0 -0.02 0.04 -0.05 0.12 -0.07 c 0.08 -0.02 0.19 -0.03 0.32 -0.03" style="fill:#a00"/></svg>