<svg xmlns="http://www.w3.org/2000/svg" viewBox="0 0 24 24"><path d="m 0.3 14.75 c 4.69 22.49 36.93 -1.65 17.56 -13.1 c -7.52 -4.9 -19.97 1.52 -17.56 13.1" style="fill:#a16884"/><path d="m 14.43 6.71 l 0.02 0.02 l 0.06 -0.02 m 0.72 0.76 l 4.46 4.15 v -4.15" style="fill-opacity:0.2"/><g style="fill:#fff"><path d="m 14.43 2.56 l 5.27 4.91 h -4.46 c -0.39 0 -0.81 -0.39 -0.81 -0.76 v -4.15" style="fill-opacity:0.39"/><path d="m 9.38 18.5 c -1.28 -0.45 -3 -1.11 -3.09 -1.19 c -0.17 -0.14 -0.3 -0.68 -0.31 -1.29 c 0 -0.33 -0.01 -0.63 -0.02 -0.65 c 0 -0.03 -0.12 -0.14 -0.26 -0.24 c -0.59 -0.42 -0.73 -0.74 -0.7 -1.51 c 0.02 -0.37 0.06 -0.58 0.14 -0.74 c 0.14 -0.28 0.22 -0.35 0.69 -0.61 c 0.21 -0.12 0.41 -0.26 0.45 -0.32 c 0.04 -0.06 0.1 -0.37 0.15 -0.68 c 0.11 -0.8 0.16 -0.89 0.53 -1.07 c 0.45 -0.22 1.51 -0.63 2.67 -1.04 c 1.23 -0.43 1.35 -0.44 2.25 -0.14 c 0.64 0.21 3.3 1.18 3.31 1.22 c -0.08 0.77 -0.39 1.19 0.02 2.37 c -0.02 0.05 -0.27 0.21 -0.57 0.36 c -0.29 0.15 -0.62 0.32 -0.71 0.39 c -0.47 0.3 -0.2 1.03 0.51 1.41 c 0.41 0.21 0.6 0.39 0.34 0.8 c -0.24 0.39 -0.32 0.85 0 1.09 c 0.42 0.33 0.11 0.59 -0.18 0.75 c -0.5 0.27 -3.51 1.39 -3.92 1.46 c -0.15 0.02 -0.43 -0.05 -1.29 -0.36 m 2.67 -0.57 c 1.61 -0.57 2.15 -0.82 2.29 -1.04 c -0.17 -0.53 0.03 -0.86 -0.08 -1.36 c -0.04 -0.16 0.08 -0.12 -0.17 -0.09 c -0.31 0.04 -1.83 0.55 -2.79 0.94 c -0.69 0.28 -0.86 0.41 -1.03 0.76 c -0.12 0.25 -0.39 0.07 -0.53 -0.07 c -0.21 -0.21 -2.87 -1.28 -3.22 -1.32 c -0.16 -0.02 -0.16 -0.02 -0.18 0.31 c -0.01 0.23 0.13 0.71 0.18 0.8 c 0.11 0.17 0.91 0.43 2.05 0.99 c 2.31 1.14 1 -0.65 1.36 -1.02 c 0.17 -0.18 0.21 1.09 0.41 1.34 c 0.12 0.15 0.23 0.28 0.25 0.28 c 0.02 0 0.67 -0.23 1.45 -0.51 m -1.72 -2.1 c 0.54 -0.16 2.88 -0.89 3.14 -1.02 c 0.33 -0.18 0 -0.3 -0.01 -0.7 c -0.01 -0.4 0.06 -0.62 -0.09 -0.62 c -0.06 0 -0.63 0.16 -1.09 0.33 c -0.58 0.29 -1.11 0.29 -1.73 0.29 c -0.52 0.16 -0.71 0.15 -1.11 0.22 l -0.3 0.88 l -0.18 -0.81 c -0.53 -0.3 -2.8 -1.16 -3.26 -1.24 c -0.19 -0.03 -0.24 -0.02 -0.34 0.09 c -0.11 0.11 -0.12 0.16 -0.09 0.51 c 0.04 0.5 0.13 0.63 0.64 0.9 c 0.44 0.23 2.31 0.95 2.92 1.11 c 0.38 0.1 -0.24 -1.84 0.32 -1.13 c 0.14 0.5 -0.08 1 0.36 1.33 c 0.13 0.07 0.17 0.07 0.82 -0.13 m 1.7 -2.41 c 0.84 -0.29 2 -0.73 2.39 -0.91 c 0.34 -0.16 0.17 -0.13 0.2 -0.82 c 0.04 -0.82 0.24 -1.07 -0.67 -0.8 c -0.5 0.15 -2.15 0.79 -2.63 1.02 c -0.32 0.15 -0.4 0.22 -0.49 0.4 c -0.22 0.45 -0.21 1.04 0.02 1.28 c 0.15 0.16 0.13 0.16 1.18 -0.19 m -1.69 -0.15 c 0.03 -0.04 0.07 -0.23 0.09 -0.42 c 0.03 -0.27 0.02 -0.36 -0.04 -0.4 c -0.09 -0.06 -2.31 -0.83 -2.96 -1.02 c -0.65 -0.2 -0.68 -0.19 -0.68 0.07 c 0 0.45 0.23 0.64 1.2 1.03 c 0.57 0.22 2.21 0.82 2.28 0.83 c 0.02 0 0.06 -0.03 0.09 -0.07 m -2.61 -0.2 c 0 -0.1 -1.36 -0.66 -1.5 -0.69 c -0.13 -0.04 -0.42 0.1 -0.46 0.21 c -0.04 0.11 0.23 0.07 0.57 0.19 c 0.37 0.13 1.39 0.4 1.39 0.3"/></g></svg>