<svg xmlns="http://www.w3.org/2000/svg" viewBox="0 0 24 24"><path d="m 0.3 14.75 c 4.69 22.49 36.93 -1.65 17.56 -13.1 c -7.52 -4.9 -19.97 1.52 -17.56 13.1" style="fill:#b0c3de"/><path d="m 14.43 6.71 l 0.02 0.02 l 0.06 -0.02 m 0.72 0.76 l 4.46 4.15 v -4.15" style="fill-opacity:0.2"/><path d="m 14.43 2.56 l 5.27 4.91 h -4.46 c -0.39 0 -0.81 -0.39 -0.81 -0.76 v -4.15" style="fill:#fff;fill-opacity:0.39"/><g style="fill:#4069e0"><path d="m 11.3 10.69 c 0 1.02 0.79 1.86 1.77 1.86 c 0.97 0 1.77 -0.84 1.77 -1.86 c 0 -1.03 -0.79 -1.86 -1.77 -1.86 c -0.98 0 -1.77 0.83 -1.77 1.86"/><path d="m 13.1 12.21 c 1.3 0 2.34 1.23 2.34 2.75 c 0 0.52 -0.02 0.49 -0.13 1.41 h -4.53 c -0.07 -0.79 -0.03 -0.9 -0.03 -1.41 c 0 -1.52 1.06 -2.75 2.35 -2.75"/><path d="m 7.3 10.28 c 0 1.23 0.96 2.24 2.15 2.24 c 1.19 0 2.15 -1 2.15 -2.24 c 0 -1.23 -0.96 -2.23 -2.15 -2.23 c -1.18 0 -2.15 1 -2.15 2.23"/><path d="m 9.45 12.1 c 1.57 0 2.84 1.48 2.84 3.31 c 0 0.62 -0.03 0.59 -0.16 1.7 h -5.5 c -0.09 -0.94 -0.04 -1.08 -0.04 -1.7 c 0 -1.83 1.29 -3.31 2.86 -3.31"/></g><path d="m 7.28 14.98 c 0 0 -0.61 -1.7 0.27 -1.78 c 1 -0.09 3.55 2.3 6 2.07 c 2.46 -0.23 3.27 -0.59 2.91 -0.58 c -1.16 0.03 -2.85 0.44 -4.18 0 c -1.29 -0.42 -3.37 -2 -4.32 -2.13 c -1 -0.12 -1.5 0.58 -1.5 0.93 c 0 0.35 0.82 1.49 0.82 1.49" style="fill:#ffdeac"/></svg>