<svg xmlns="http://www.w3.org/2000/svg" viewBox="0 0 24 24"><path d="m 0.3 14.75 c 4.69 22.49 36.93 -1.65 17.56 -13.1 c -7.52 -4.9 -19.97 1.52 -17.56 13.1" style="fill:#9370db"/><path d="m 14.43 6.71 l 0.02 0.02 l 0.06 -0.02 m 0.72 0.76 l 4.46 4.15 v -4.15" style="fill-opacity:0.2"/><g style="fill:#fff"><path d="m 14.43 2.56 l 5.27 4.91 h -4.46 c -0.39 0 -0.81 -0.39 -0.81 -0.76 v -4.15" style="fill-opacity:0.39"/><path d="m 7.54 16.54 c -0.04 -0.02 -0.06 -0.39 -0.07 -1.54 l -0.01 -1.51 l -0.73 -0.01 c -0.44 -0.01 -0.75 -0.03 -0.78 -0.05 c -0.08 -0.06 -0.08 -0.7 0 -0.77 c 0.04 -0.03 0.34 -0.05 0.78 -0.05 l 0.73 -0.01 v -1.71 h -0.88 c -1.02 -0.02 -0.99 0 -0.99 -0.41 c 0 -0.45 -0.12 -0.42 1.5 -0.42 c 1.36 0 1.41 0 1.45 0.08 c 0.04 0.05 0.04 1.08 0.04 3.22 c -0.01 2.75 -0.02 3.15 -0.08 3.18 c -0.08 0.05 -0.88 0.05 -0.96 0.01 m 1.87 -0.01 c -0.07 -0.04 -0.08 -0.23 -0.08 -3.2 c 0 -1.73 0.01 -3.18 0.03 -3.22 c 0.04 -0.1 1 -0.1 1.05 0 c 0.01 0.04 0.02 1.31 0.02 2.84 v 2.77 h 0.9 c 0.64 0 0.91 0.02 0.95 0.05 c 0.03 0.03 0.05 0.18 0.05 0.39 c 0 0.29 -0.01 0.34 -0.09 0.38 c -0.11 0.05 -2.73 0.05 -2.84 0 m 3.76 0 c -0.06 -0.03 -0.07 -0.44 -0.08 -3.18 c -0.01 -2.14 0 -3.17 0.04 -3.22 c 0.04 -0.08 0.1 -0.08 1.45 -0.08 c 1.62 0 1.5 -0.04 1.5 0.42 c 0 0.41 0.03 0.39 -0.99 0.41 h -0.88 v 1.71 l 0.73 0.01 c 0.44 0.01 0.75 0.03 0.78 0.05 c 0.08 0.06 0.08 0.7 0 0.77 c -0.04 0.03 -0.34 0.05 -0.78 0.05 l -0.73 0.01 l -0.01 1.51 c -0.01 1.14 -0.02 1.52 -0.07 1.54 c -0.07 0.05 -0.88 0.04 -0.96 -0.01 m -1.91 -1.61 c -0.04 -0.09 -0.04 -4.73 0 -4.81 c 0.04 -0.1 1 -0.1 1.05 0 c 0.04 0.08 0.04 4.72 0 4.81 c -0.02 0.05 -0.11 0.06 -0.52 0.06 c -0.41 0 -0.5 -0.01 -0.52 -0.06 m 0.02 -5.66 c -0.04 -0.03 -0.05 -0.21 -0.05 -0.53 c 0 -0.57 -0.01 -0.56 0.55 -0.56 c 0.56 0 0.55 -0.01 0.55 0.56 c 0 0.32 -0.02 0.5 -0.05 0.53 c -0.07 0.07 -0.93 0.07 -1 0"/></g></svg>