<svg xmlns="http://www.w3.org/2000/svg" xmlns:xlink="http://www.w3.org/1999/xlink" viewBox="0 0 24 24"><defs><g id="3" style="clip-path:url(#2)"><path d="m 156 127.1 c -2.59 -4.59 -4.72 -8.47 -4.72 -8.61 c 0 -0.14 2.18 -3.98 4.82 -8.52 l 4.82 -8.29 h 19.36 l 4.58 8.1 c 2.55 4.45 4.68 8.24 4.82 8.38 c 0.14 0.28 -1.07 2.53 -4.49 8.52 c -2.55 4.49 -4.72 8.29 -4.91 8.47 c -0.19 0.28 -1.53 0.33 -9.91 0.33 h -9.63" transform="matrix(0.084 0 0 0.083 -3.26 3.5)" style="fill:#fff;stroke:#0c0606;stroke-width:0.67"/></g><clipPath id="2"><path d="M 0,0 H24 V24 H0 z"/></clipPath><filter id="0" filterUnits="objectBoundingBox" x="0" y="0" width="24" height="24"><feColorMatrix type="matrix" in="SourceGraphic" values="0 0 0 0 1 0 0 0 0 1 0 0 0 0 1 0 0 0 1 0"/></filter><mask id="1"><g style="filter:url(#0)"><path d="M 0,0 H24 V24 H0 z" style="fill-opacity:0.98"/></g></mask></defs><path d="m 0.3 14.75 c 4.69 22.49 36.93 -1.65 17.56 -13.1 c -7.52 -4.9 -19.97 1.52 -17.56 13.1" style="fill:#31cd31"/><path d="m 14.43 6.71 l 0.02 0.02 l 0.06 -0.02 m 0.72 0.76 l 4.46 4.15 v -4.15" style="fill-opacity:0.2"/><path d="m 14.43 2.56 l 5.27 4.91 h -4.46 c -0.39 0 -0.81 -0.39 -0.81 -0.76 v -4.15" style="fill:#fff;fill-opacity:0.39"/><g transform="matrix(0.084 0 0 0.083 -3.26 3.5)"><g style="stroke:#000;stroke-width:1.18"><path d="m 115.8 101.6 c -1.62 5.29 -2.45 11.1 -2.45 16.95 c 0 14.47 5.28 27.62 14.1 37.78 l 31.58 -54.63 h -43.2" style="fill:#c0f"/><path d="m 128.5 157.5 c 10.47 11.28 25.38 18.35 42 18.35 c 3.75 0 7.41 -0.33 10.93 -1.08 l -31.2 -54.68" style="fill:#4c3dff"/><path d="m 212.2 79.3 c -10.47 -11.14 -25.2 -18 -41.68 -18 c -3.75 0 -7.5 0.33 -11.16 1.08 l 31.3 54.6" style="fill:#ff8433"/><path d="m 157.8 62.7 c -19.5 4.35 -35.2 18.82 -41.4 37.4 h 62.98" style="fill:#f00"/></g><path d="m 225.2 135.4 c 1.67 -5.29 2.5 -11.1 2.5 -16.95 c 0 -14.61 -5.51 -27.9 -14.45 -38.1 l -31.2 54.96 h 43.2" style="fill:#04d503;stroke:#0c0606;stroke-width:1.88"/><path d="m 182.9 174.5 c 19.59 -4.35 35.3 -18.82 41.68 -37.54 h -63.2" style="fill:#fff200;stroke:#000;stroke-width:1.95"/></g><g style="fill:#fff"><path d="m 11.98 11.85 v 0.13 h -0.03 l 0.81 1.4 l 0.07 -0.13 l -2.64 -4.55 c -0.05 0.01 -0.09 0.02 -0.13 0.03 l 1.82 3.13"/><path d="m 10.21 11.89 l 0.11 0.06 l -0.02 0.03 h 1.64 l -0.08 -0.13 h -5.31 c -0.02 0.04 -0.03 0.09 -0.04 0.13 h 3.64"/><path d="m 11.88 11.86 l 0.07 0.13 h 0.04 v -0.13"/><path d="m 7.36 16.76 l 0.11 0.06 l 0.11 -0.19 c -0.03 -0.03 -0.06 -0.07 -0.09 -0.1"/><path d="m 9.35 13.42 l 0.11 -0.06 l 0.02 0.03 l 0.82 -1.41 h -0.15 l -2.66 4.56 c 0.03 0.03 0.06 0.07 0.09 0.1 l 1.82 -3.13"/><path d="m 10.16 11.98 h 0.15 l 0.02 -0.03 l -0.11 -0.06"/><path d="m 10.26 14.92 v -0.13 h 0.03 l -0.81 -1.41 l -0.08 0.13 l 2.63 4.57 c 0.05 -0.01 0.09 -0.02 0.13 -0.03 l -1.8 -3.13 h -0.1"/><path d="m 9.41 13.53 l 0.07 -0.13 l -0.02 -0.03 l -0.11 0.06"/><path d="m 15.68 14.92 h 0.25 v -0.13 h -0.21 c -0.02 0.05 -0.03 0.09 -0.05 0.13"/><path d="m 12.1 14.8 l -0.06 0.1 l -0.11 -0.06 l 0.02 -0.03 h -1.64 l 0.07 0.13 h 5.31 c 0.02 -0.04 0.03 -0.09 0.04 -0.13 h -3.63"/><path d="m 10.38 14.93 l -0.08 -0.13 h -0.03 v 0.13"/><path d="m 14.84 10 l -0.11 -0.06 l -0.1 0.18 c 0.03 0.03 0.06 0.07 0.09 0.1"/><path d="m 12.89 13.36 l -0.11 0.06 l -0.02 -0.04 l -0.81 1.41 h 0.15 l 2.63 -4.58 c -0.03 -0.03 -0.06 -0.07 -0.09 -0.1 l -1.8 3.14"/><path d="m 12.84 13.26 l -0.08 0.13 l 0.03 0.04 l 0.11 -0.06"/><path d="m 12 14.9 l 0.06 -0.1 h -0.15 l -0.02 0.04"/></g><use xlink:href="#3" style="mask:url(#1)"/><path d="m 231.2 118.4 c 0 33.3 -27 60.4 -60.4 60.4 c -33.39 0 -60.4 -27.1 -60.4 -60.4 c 0 -33.38 27 -60.4 60.4 -60.4 c 33.3 0 60.4 27 60.4 60.4" transform="matrix(0.084 0 0 0.083 -3.26 3.5)" style="fill:none;stroke-miterlimit:10;stroke:#0c0606;stroke-width:6.6"/></svg>