<svg xmlns="http://www.w3.org/2000/svg" viewBox="0 0 24 24"><path d="m 0.3 14.75 c 4.69 22.49 36.93 -1.65 17.56 -13.1 c -7.52 -4.9 -19.97 1.52 -17.56 13.1" style="fill:#b0c3de"/><path d="m 14.43 6.71 l 0.02 0.02 l 0.06 -0.02 m 0.72 0.76 l 4.46 4.15 v -4.15" style="fill-opacity:0.2"/><path d="m 14.43 2.56 l 5.27 4.91 h -4.46 c -0.39 0 -0.81 -0.39 -0.81 -0.76 v -4.15" style="fill:#fff;fill-opacity:0.39"/><path d="m 6.84 10.91 c -0.38 0 -0.68 0.28 -0.68 0.63 c 0 0.34 0.3 0.62 0.68 0.62 c 0.21 0 0.39 -0.09 0.52 -0.22 l 6.32 3.18 c -0.02 0.05 -0.02 0.09 -0.02 0.14 c 0 0.34 0.3 0.62 0.68 0.62 c 0.38 0 0.68 -0.28 0.68 -0.62 c 0 -0.34 -0.31 -0.63 -0.68 -0.63 c -0.2 0 -0.38 0.08 -0.5 0.2 l -6.33 -3.18 c 0.01 -0.04 0.02 -0.09 0.02 -0.13 c 0 -0.34 -0.31 -0.63 -0.68 -0.63 m 0 0.31 c 0.19 0 0.34 0.14 0.34 0.31 c 0 0.17 -0.15 0.31 -0.34 0.31 c -0.19 0 -0.34 -0.14 -0.34 -0.31 c 0 -0.18 0.15 -0.31 0.34 -0.31 m 7.5 3.73 c 0.19 0 0.34 0.14 0.34 0.31 c 0 0.17 -0.15 0.31 -0.34 0.31 c -0.19 0 -0.34 -0.14 -0.34 -0.31 c 0 -0.18 0.15 -0.31 0.34 -0.31" style="fill:#f34e17"/><g style="fill-rule:evenodd"><path d="m 7.86 17.75 c 4.43 1.87 6.48 -2.48 2.73 -4.35 c -3.75 -1.86 -1.7 -6.22 2.73 -4.35" style="fill:#8e76e4;fill-opacity:0.25"/><path d="m 11.1 8.45 c -1.12 0.05 -1.95 0.58 -2.35 1.31 c -0.64 1.17 -0.16 2.82 1.77 3.78 c 1.82 0.9 2.19 2.36 1.64 3.37 c -0.55 1 -2.05 1.61 -4.21 0.7 l -0.14 0.28 c 2.27 0.96 4 0.32 4.66 -0.85 c 0.64 -1.17 0.16 -2.82 -1.78 -3.78 c -1.81 -0.9 -2.19 -2.36 -1.63 -3.37 c 0.55 -1.01 2.05 -1.62 4.21 -0.71 l 0.14 -0.28 c -0.85 -0.36 -1.63 -0.49 -2.3 -0.46" style="fill:#8c59d8"/></g><path d="m 12.8 8.59 v 0.93 h 1.02 v -0.93 m -3.75 4.35 v 0.93 h 1.02 v -0.93 m -3.75 4.35 v 0.93 h 1.02 v -0.93" style="fill:#fff"/><path d="m 12.64 8.43 v 1.24 h 1.36 v -1.24 m -1.02 0.31 h 0.68 v 0.62 h -0.68 m -3.07 3.42 v 1.24 h 1.36 v -1.24 m -1.02 0.31 h 0.68 v 0.63 h -0.68 m -3.07 3.42 v 1.24 h 1.36 v -1.24 m -1.02 0.31 h 0.68 v 0.62 h -0.68" style="fill:#8e76e4"/></svg>