<svg xmlns="http://www.w3.org/2000/svg" viewBox="0 0 24 24"><path d="m 0.3 14.75 c 4.69 22.49 36.93 -1.65 17.56 -13.1 c -7.52 -4.9 -19.97 1.52 -17.56 13.1"/><path d="m 15.1 6.62 l 0.03 0.02 l 0.06 -0.02 m 0.72 0.76 l 4.46 4.15 v -4.15" style="fill:#dcdcdc;fill-opacity:0.2"/><path d="m 15.1 2.46 l 5.27 4.91 h -4.46 c -0.39 0 -0.81 -0.39 -0.81 -0.76 v -4.15" style="fill:#fff;fill-opacity:0.39"/><path d="m 6.98 10.88 c 0.02 -0.02 0.61 -0.49 1.3 -1.05 c 0.98 -0.78 1.27 -1.03 1.32 -1.13 c 0.05 -0.09 0.13 -0.23 0.13 -0.58 c -0.01 -0.64 -0.09 -0.97 0.25 -0.99 c 0.4 -0.02 0.32 0.08 0.41 0.18 c 0.1 0.11 0.06 0.35 0.12 0.75 c 0.02 0.17 0.05 0.31 0.05 0.31 c 0 0 1.11 0.03 2.46 0.05 c 1.35 0.03 2.46 0.05 2.46 0.05 c 0 0 -0.12 0.1 -0.27 0.21 c -0.28 0.2 -1.04 0.79 -2.18 1.69 l -0.59 0.47 l -2.52 0.02 c -1.38 0.01 -2.62 0.03 -2.74 0.04 c -0.19 0.02 -0.22 0.01 -0.19 -0.02" style="fill:#f4f4f4"/><path d="m 5.66 17.83 c -0.12 -0.15 -0.01 -0.34 0.63 -1 l 0.39 -0.41 l 0.02 -2.5 c 0.01 -2.33 0.02 -2.51 0.1 -2.59 c 0.08 -0.07 0.27 -0.08 2.8 -0.09 l 2.71 -0.02 v 5.64 l -0.36 0.03 c -0.2 0.02 -1.39 0.03 -2.64 0.03 h -2.06 l -0.45 0.46 c -0.53 0.55 -0.89 0.75 -1.14 0.45" style="fill:#999"/><path d="m 12.59 14 v -2.78 l 1.47 -1.16 c 0.81 -0.64 1.5 -1.16 1.53 -1.16 c 0.03 0 0.05 1.16 0.05 2.58 c 0 2.9 -0.03 2.67 0.74 2.67 c 0.29 0 0.45 0.15 0.47 0.29 c 0.06 0.43 -0.34 0.33 -0.89 0.37 c -0.8 0.06 -0.64 -0.16 -2.04 0.95 c -0.6 0.47 -1.14 0.89 -1.21 0.93 c -0.1 0.06 -0.13 -0.5 -0.13 -2.7 m -4.94 1.2 c -0.16 -0.04 -0.32 -0.32 -0.23 -0.41 c 0.03 -0.03 0.26 -0.05 0.52 -0.06 c 0.4 -0.01 0.48 -0.04 0.5 -0.22 c 0.02 -0.16 -0.04 -0.23 -0.3 -0.3 c -0.36 -0.11 -0.43 -0.37 -0.11 -0.42 c 0.27 -0.04 0.49 -0.29 0.37 -0.41 c -0.05 -0.05 -0.27 -0.1 -0.48 -0.12 c -0.52 -0.04 -0.54 -0.3 -0.03 -0.42 c 0.75 -0.19 1.36 0.25 1.15 0.82 c -0.06 0.17 -0.06 0.34 0.02 0.53 c 0.06 0.15 0.09 0.39 0.05 0.54 c -0.1 0.4 -0.83 0.64 -1.45 0.47 m 2.03 -0.16 c -0.03 -0.07 -0.04 -0.57 -0.02 -1.12 l 0.03 -0.99 l 0.63 -0.03 c 0.35 -0.02 0.76 0.02 0.91 0.09 c 0.79 0.33 0.83 1.64 0.07 2.04 c -0.35 0.18 -1.55 0.19 -1.61 0.01 m 1.34 -0.56 c 0.11 -0.11 0.2 -0.31 0.2 -0.45 c 0 -0.14 -0.09 -0.34 -0.2 -0.45 c -0.11 -0.11 -0.31 -0.2 -0.45 -0.2 c -0.23 0 -0.25 0.02 -0.25 0.64 c 0 0.63 0.01 0.65 0.25 0.65 c 0.14 0 0.34 -0.09 0.45 -0.2" style="fill:#686868"/></svg>