<svg xmlns="http://www.w3.org/2000/svg" viewBox="0 0 24 24"><path d="m 0.3 14.75 c 4.69 22.49 36.93 -1.65 17.56 -13.1 c -7.52 -4.9 -19.97 1.52 -17.56 13.1" style="fill:#93a525"/><path d="m 14.43 6.71 l 0.02 0.02 l 0.06 -0.02 m 0.72 0.76 l 4.46 4.15 v -4.15" style="fill-opacity:0.2"/><g style="fill:#fff"><path d="m 14.43 2.56 l 5.27 4.91 h -4.46 c -0.39 0 -0.81 -0.39 -0.81 -0.76 v -4.15" style="fill-opacity:0.39"/><path d="m 14.69 12.61 v -1.89 h 0.71 v 2.87 c 0.43 0 0.86 0 1.29 0 c 0 0.3 0 0.61 0 0.91 c -0.66 0 -1.33 0 -2 0"/><path d="m 5.26 10.71 c 0.23 0 0.47 0 0.71 0 c 0 0.47 0 0.94 0 1.41 c 0.33 0 0.66 0 1 0 c 0 -0.47 0 -0.94 0 -1.41 c 0.25 0 0.5 0 0.75 0 c 0 1.26 0 2.52 0 3.78 c -0.25 0 -0.5 0 -0.75 0 c 0 -0.48 0 -0.97 0 -1.45 c -0.33 0 -0.66 0 -1 0 c 0 0.48 0 0.97 0 1.45 c -0.24 0 -0.47 0 -0.71 0 c 0 -1.26 0 -2.52 0 -3.78"/><path d="m 8 14.4 c 0.02 -0.05 0.28 -0.91 0.58 -1.9 l 0.54 -1.81 c 0.23 0 0.47 0 0.7 0 l 0.57 1.89 c 0.31 1.04 0.57 1.89 0.57 1.9 c -0.27 0.01 -0.47 0 -0.77 -0.01 c -0.07 -0.23 -0.13 -0.46 -0.2 -0.69 c -0.35 0.02 -0.77 -0.04 -1.09 0.05 c -0.07 0.23 -0.12 0.41 -0.19 0.65 c -0.16 -0.01 -0.77 0.05 -0.72 -0.09 m 1.77 -1.38 c 0.03 -0.03 -0.27 -1.1 -0.3 -1.1 c -0.02 0 -0.32 1.03 -0.32 1.1 c 0 0.03 0.6 0.03 0.63 0"/><path d="m 11.29 12.61 v -1.89 c 0.26 0 0.52 0 0.78 0 l 0.32 0.73 c 0.18 0.4 0.33 0.73 0.35 0.73 c 0.02 0 0.17 -0.32 0.34 -0.73 l 0.31 -0.72 c 0.26 0 0.51 0 0.77 0 v 3.78 c -0.23 0 -0.47 0 -0.71 0 v -1.11 c 0 -0.61 -0.02 -1.09 -0.04 -1.07 c -0.02 0.02 -0.17 0.34 -0.34 0.71 c -0.17 0.36 -0.32 0.68 -0.33 0.7 c -0.02 0.02 -0.18 -0.29 -0.36 -0.68 c -0.18 -0.39 -0.34 -0.71 -0.36 -0.71 c -0.02 0 -0.03 0.49 -0.03 1.08 v 1.08 c -0.23 0 -0.47 0 -0.71 0"/></g></svg>