<svg xmlns="http://www.w3.org/2000/svg" viewBox="0 0 24 24"><path d="m 0.3 14.75 c 4.69 22.49 36.93 -1.65 17.56 -13.1 c -7.52 -4.9 -19.97 1.52 -17.56 13.1" style="fill:#6a8e22"/><path d="m 14.43 6.71 l 0.02 0.02 l 0.06 -0.02 m 0.72 0.76 l 4.46 4.15 v -4.15" style="fill-opacity:0.2"/><g style="fill:#fff"><path d="m 14.43 2.56 l 5.27 4.91 h -4.46 c -0.39 0 -0.81 -0.39 -0.81 -0.76 v -4.15" style="fill-opacity:0.39"/><path d="m 13.86 10.66 c 0.33 0 0.66 0 0.99 0 c 0 1.12 0 2.24 0 3.36 c 0.61 0 1.23 0 1.84 0 c 0 0.35 0 0.7 0 1.05 c -0.94 0 -1.89 0 -2.83 0 c 0 -1.47 0 -2.94 0 -4.41"/><path d="m 7 15.1 c -0.55 -0.12 -1 -0.49 -1.29 -1.07 c -0.2 -0.4 -0.25 -0.65 -0.25 -1.14 c 0 -0.5 0.06 -0.8 0.26 -1.21 c 0.22 -0.4 0.52 -0.72 0.88 -0.9 c 0.86 -0.42 1.75 -0.18 2.3 0.63 l 0.06 0.09 c -0.25 0.23 -0.49 0.45 -0.74 0.68 l -0.09 -0.12 c -0.18 -0.24 -0.45 -0.37 -0.74 -0.37 c -0.53 0 -0.9 0.49 -0.9 1.19 c 0 0.7 0.37 1.18 0.91 1.18 c 0.11 0 0.23 -0.01 0.29 -0.03 c 0.25 -0.1 0.39 -0.3 0.56 -0.46 c 0.28 0.2 0.47 0.38 0.75 0.62 l -0.05 0.09 c -0.21 0.27 -0.48 0.56 -0.77 0.7 c -0.4 0.15 -0.84 0.22 -1.18 0.15"/><path d="m 12.63 14.96 l -0.2 -0.21 l -0.18 0.11 c -0.44 0.28 -1 0.36 -1.48 0.21 c -0.3 -0.09 -0.55 -0.24 -0.82 -0.5 c -0.21 -0.22 -0.27 -0.3 -0.4 -0.56 c -0.3 -0.63 -0.35 -1.33 -0.12 -2 c 0.22 -0.65 0.67 -1.12 1.28 -1.33 c 0.38 -0.1 0.68 -0.15 1.07 -0.04 c 0.59 0.18 1.09 0.64 1.33 1.26 c 0.14 0.36 0.19 0.64 0.17 1.08 c -0.02 0.42 -0.06 0.62 -0.21 0.95 l -0.1 0.22 c 0.13 0.13 0.25 0.25 0.38 0.38 c -0.16 0.21 -0.32 0.43 -0.49 0.63 c -0.09 -0.07 -0.15 -0.13 -0.21 -0.2 m -1.05 -0.92 c 0.05 -0.02 0.09 -0.04 0.09 -0.05 c -0.16 -0.2 -0.31 -0.33 -0.5 -0.52 c 0.16 -0.21 0.32 -0.44 0.5 -0.64 c 0.19 0.15 0.31 0.32 0.5 0.49 c 0.09 0 0.11 -0.55 0.04 -0.83 c -0.2 -0.77 -0.97 -1.08 -1.5 -0.61 c -0.64 0.58 -0.48 1.87 0.27 2.16 c 0.19 0.02 0.41 0.06 0.6 0.01"/></g></svg>