<svg xmlns="http://www.w3.org/2000/svg" viewBox="0 0 24 24"><path d="m 0.3 14.75 c 4.69 22.49 36.93 -1.65 17.56 -13.1 c -7.52 -4.9 -19.97 1.52 -17.56 13.1" style="fill:#ffd733"/><path d="m 14.43 6.71 l 0.02 0.02 l 0.06 -0.02 m 0.72 0.76 l 4.46 4.15 v -4.15" style="fill-opacity:0.2"/><path d="m 14.43 2.56 l 5.27 4.91 h -4.46 c -0.39 0 -0.81 -0.39 -0.81 -0.76 v -4.15" style="fill:#fff;fill-opacity:0.39"/><path d="m 8.5 8.44 h 4.7 c 1.3 0 2.35 1 2.35 2.24 v 4.49 c 0 1.24 -1.05 2.24 -2.35 2.24 h -4.7 c -1.3 0 -2.35 -1 -2.35 -2.24 v -4.49 c 0 -1.24 1.05 -2.24 2.35 -2.24" style="fill:#fbb100"/><path d="m 10.82 12.64 h 2.04 v 2.55 c -0.27 0.09 -0.55 0.16 -0.85 0.2 c -0.29 0.05 -0.62 0.08 -0.98 0.08 c -0.77 0 -1.36 -0.22 -1.78 -0.65 c -0.41 -0.43 -0.62 -1.06 -0.62 -1.89 c 0 -0.52 0.1 -0.96 0.3 -1.33 c 0.21 -0.38 0.52 -0.67 0.92 -0.88 c 0.4 -0.21 0.88 -0.32 1.46 -0.32 c 0.27 0 0.54 0.03 0.81 0.08 c 0.27 0.05 0.51 0.13 0.72 0.23 l -0.36 0.83 c -0.16 -0.07 -0.34 -0.14 -0.54 -0.19 c -0.2 -0.05 -0.41 -0.08 -0.63 -0.08 c -0.31 0 -0.59 0.07 -0.84 0.2 c -0.23 0.14 -0.41 0.33 -0.54 0.58 c -0.13 0.25 -0.19 0.54 -0.19 0.88 c 0 0.32 0.05 0.61 0.14 0.86 c 0.09 0.25 0.24 0.44 0.43 0.58 c 0.2 0.14 0.45 0.2 0.78 0.2 c 0.16 0 0.29 -0.01 0.39 -0.02 c 0.11 -0.02 0.21 -0.03 0.3 -0.04 v -1.02 h -0.97" style="fill:#fff"/></svg>