<svg xmlns="http://www.w3.org/2000/svg" viewBox="0 0 32 32"><path d="m 25.44 3.41 c 26.3 23 -36.9 46.3 -23.51 8.79 c 3.33 -9.34 14.64 -16.57 23.51 -8.79" style="fill:#dc133c"/><path d="m -2.6 302.7 c -5.12 -2.11 -5.1 -5.11 0.02 -15.9 c 1.45 -3 2.93 -7.44 3.23 -9.84 c 0.81 -5.98 1.89 -7.58 6.13 -9.22 c 5.68 -2.22 9.83 -5.59 12.75 -10.41 c 3.86 -6.32 9.55 -13.19 22.77 -27.55 c 17.7 -19.2 25.46 -30.1 40.4 -56.63 c 10.93 -19.39 16.66 -28.2 26.5 -40.4 c 8.72 -10.9 25.8 -27.31 31.1 -29.98 c 3.29 -1.66 4.11 -1.72 6.95 -0.62 c 6.76 2.59 18.51 4.79 28.78 5.39 l 10.66 0.63 l 0.44 3.85 c 1.38 11 1.69 21.52 4.94 32.44 c 2.16 6.96 2.3 8.4 1.25 11.3 c -2.85 7.81 -18.1 24.1 -33.38 35.55 c -11.81 8.9 -21 14.6 -39.4 24.3 c -25.1 13.28 -34.2 20 -51.1 37.47 c -10.68 11 -16.2 15.77 -24.32 20.9 c -10.37 6.51 -13.93 10.77 -15.82 18.92 c -0.52 2.23 -1.14 2.54 -6.74 3.12 c -7.22 0.79 -11.76 2.4 -15.86 5.69 c -3.35 2.65 -4.96 2.82 -9.39 1.02" transform="matrix(0.09 0.003 0.002 0.095 6.26 -2.28)" style="fill:#fff;stroke:#fff;stroke-linecap:round;stroke-width:1.93"/><g style="fill:#dc133c"><path d="m 21.34 11.12 c 0.22 0.21 0.21 0.56 -0.02 0.79 l -3.75 3.63 c -0.23 0.23 -0.61 0.25 -0.84 0.04 c -0.23 -0.21 -0.21 -0.56 0.02 -0.79 l 3.75 -3.63 c 0.24 -0.23 0.61 -0.25 0.84 -0.04"/><path d="m 19.2 10.1 c 0.21 0.15 0.2 0.48 -0.02 0.73 l -2.74 3.17 c -0.21 0.25 -0.56 0.33 -0.77 0.18 c -0.2 -0.15 -0.2 -0.48 0.02 -0.73 l 2.74 -3.17 c 0.21 -0.25 0.56 -0.33 0.77 -0.18"/><path d="m 22.34 13.2 c 0.18 0.18 0.13 0.5 -0.13 0.72 l -3.17 2.74 c -0.25 0.21 -0.6 0.25 -0.78 0.06 c -0.18 -0.18 -0.13 -0.5 0.12 -0.72 l 3.18 -2.74 c 0.25 -0.21 0.6 -0.25 0.78 -0.06"/></g></svg>