<svg xmlns="http://www.w3.org/2000/svg" viewBox="0 0 32 32"><path d="m 26.44 4.82 c 25 33.2 -43.82 37.86 -21.74 4 c 5 -7.72 15.1 -12.8 21.74 -4" style="fill:#ff8c00"/><g style="fill:#fff"><path d="m 8.34 26 c -0.11 -0.08 -0.13 -0.16 -0.09 -0.34 c 0.11 -0.5 0.68 -1.25 2.46 -3.25 c 0.99 -1.11 1.55 -1.82 1.74 -2.19 c 0.07 -0.14 0.16 -0.63 0.21 -1.13 c 0.04 -0.49 0.1 -1 0.13 -1.16 c 0.05 -0.31 0.23 -0.54 0.41 -0.54 c 0.34 0.01 0.59 0.46 0.9 1.64 c 0.11 0.4 0.22 0.75 0.25 0.78 c 0.03 0.03 0.37 0.14 0.75 0.23 c 0.38 0.1 0.87 0.29 1.09 0.42 c 0.34 0.2 0.4 0.28 0.4 0.47 c 0 0.19 -0.05 0.26 -0.27 0.37 c -0.15 0.07 -0.45 0.13 -0.66 0.14 c -0.61 0.01 -1.42 0.14 -1.7 0.29 c -0.34 0.17 -0.75 0.52 -2.58 2.19 c -1.47 1.34 -2.37 2.05 -2.73 2.15 c -0.09 0.03 -0.22 0 -0.3 -0.06"/><path d="m 24.88 25.82 c -0.48 -0.29 -1.38 -1.03 -2.73 -2.25 c -1.86 -1.68 -2.13 -1.83 -3.68 -1.95 c -0.7 -0.05 -1.07 -0.21 -1.07 -0.46 c 0 -0.29 0.65 -0.65 1.55 -0.87 c 0.62 -0.15 0.87 -0.29 0.87 -0.49 c 0 -0.09 0.11 -0.49 0.24 -0.91 c 0.25 -0.78 0.48 -1.12 0.77 -1.12 c 0.29 0 0.4 0.31 0.48 1.41 c 0.09 1.03 0.09 1.04 0.41 1.54 c 0.18 0.28 0.73 0.94 1.21 1.47 c 2.29 2.49 2.66 2.97 2.68 3.46 c 0 0.29 -0.02 0.32 -0.19 0.34 c -0.11 0.01 -0.35 -0.07 -0.54 -0.19"/><path d="m 20.34 16.79 c -0.2 -0.22 -0.38 -0.68 -0.6 -1.54 l -0.2 -0.77 l -0.82 -0.24 c -0.91 -0.27 -1.21 -0.41 -1.43 -0.66 c -0.13 -0.14 -0.14 -0.2 -0.06 -0.36 c 0.12 -0.27 0.32 -0.33 1.41 -0.43 c 0.66 -0.05 1.04 -0.13 1.24 -0.23 c 0.43 -0.22 1.02 -0.73 2.54 -2.18 c 1.97 -1.89 2.73 -2.41 3.05 -2.08 c 0.11 0.11 0.12 0.17 0.04 0.38 c -0.2 0.52 -0.64 1.13 -1.95 2.65 c -1.55 1.8 -2 2.38 -2.2 2.84 c -0.1 0.21 -0.18 0.66 -0.23 1.32 c -0.06 0.74 -0.12 1.05 -0.22 1.2 c -0.18 0.25 -0.41 0.29 -0.57 0.1"/><path d="m 13 16.84 c -0.18 -0.11 -0.28 -0.47 -0.33 -1.25 c -0.11 -1.47 -0.21 -1.68 -1.96 -3.7 c -1.47 -1.71 -2.05 -2.45 -2.3 -2.97 c -0.2 -0.4 -0.23 -0.5 -0.14 -0.6 c 0.33 -0.39 0.96 0.03 3.21 2.15 c 2.29 2.15 2.37 2.2 3.66 2.32 c 0.44 0.04 0.86 0.07 0.94 0.07 c 0.08 0 0.25 0.11 0.38 0.23 c 0.2 0.19 0.22 0.26 0.15 0.39 c -0.14 0.25 -1.23 0.73 -2.09 0.9 c -0.19 0.04 -0.26 0.1 -0.3 0.26 c -0.14 0.62 -0.52 1.73 -0.68 1.96 c -0.2 0.29 -0.34 0.35 -0.54 0.23"/><path d="m 16.35 18.66 c -1.07 -0.55 -1.3 -1.89 -0.48 -2.71 c 0.59 -0.59 1.38 -0.66 2 -0.18 c 0.5 0.38 0.7 0.82 0.66 1.46 c -0.04 0.53 -0.18 0.85 -0.56 1.18 c -0.41 0.36 -1.18 0.48 -1.64 0.24"/></g></svg>