<svg xmlns="http://www.w3.org/2000/svg" viewBox="0 0 32 32"><path d="m 5.46 26.53 c -16.24 -13.1 7.54 -36.76 21.9 -21.65 c 14.4 13 -8.1 38.3 -21.9 21.65" style="fill:#707f8f"/><path d="m 8.2 22.99 c -0.31 -0.08 -0.56 -0.26 -0.74 -0.55 c -0.14 -0.22 -0.14 -0.54 -0.14 -6.5 v -6.27 l 0.2 -0.25 c 0.42 -0.52 -0.11 -0.49 8.4 -0.49 c 7.42 0 7.77 0.01 8 0.15 c 0.15 0.08 0.34 0.27 0.43 0.43 c 0.15 0.27 0.15 0.42 0.15 6.45 c 0 6.91 0.04 6.49 -0.56 6.88 l -0.29 0.19 l -7.62 0.02 c -4.19 0 -7.73 -0.02 -7.86 -0.05 m 13.89 -4.71 c -4.13 0 -8.25 0 -12.38 0 c 0 0.81 0 1.63 0 2.44 c 4.13 0 8.25 0 12.38 0 c 0 -0.81 0 -1.63 0 -2.44" style="fill:#fff"/></svg>