<svg xmlns="http://www.w3.org/2000/svg" viewBox="0 0 32 32"><path d="m 28.94 24.48 c 17.41 -31.8 -46.2 -33.3 -24.3 -0.52 c 5.77 8.44 19.61 12.55 24.3 0.52" style="fill:#ff8c00"/><path d="m 10 22.2 c -0.58 -1.88 -1.35 -5.44 -1.2 -5.52 c 0.03 -0.02 0.38 -0.03 0.77 -0.03 c 1.14 0.16 1.88 -0.7 2.64 -0.86 c 0.2 0.19 1.36 5 1.6 6.65 c 0.17 1.14 0.21 1.73 0.16 2.48 c -3 0.71 -3.21 -0.28 -3.97 -2.73 m 5.18 4.56 c -0.38 -3.82 -0.62 -6.69 -0.61 -11.69 c 0.06 -0.1 0.53 0.05 0.98 0.18 c 1.2 0.38 2 -0.25 2.92 -0.32 c 0.12 0.18 0.26 3.81 0.21 5.55 c -0.05 1.8 0.07 5.27 -0.08 5.88 c 0.06 3 -3.04 3.34 -3.43 0.41 m 4.66 -3.39 c 0.19 -1.92 0.83 -5.43 1.03 -5.62 c 0.06 -0.05 0.3 0 0.66 0.16 c 0.73 0.31 1.66 0.39 2.31 0.2 c 0.26 -0.07 0.5 -0.11 0.54 -0.07 c -0.37 2.97 -0.65 6.58 -1.86 6.86 c -2.66 0.91 -2.95 1.21 -2.69 -1.52 m 2.52 -6.39 c -0.88 -0.21 -1.72 -0.89 -1.94 -1.59 c -0.38 -1.31 0.36 -2.29 1 -3.2 c 1.14 -1.59 1.37 -2.42 0.95 -3.47 c -0.23 -0.59 -0.19 -0.7 0.2 -0.57 c 1.02 0.34 2.59 2.52 3.2 4.44 c 0.27 0.84 0.24 2.07 -0.07 2.71 c -0.57 1.21 -2.1 1.98 -3.35 1.68 m -14 -1.71 c -1.52 -0.55 -2.27 -2.31 -1.74 -4.11 c 0.43 -1.46 1.45 -3.15 2.46 -4 c 0.51 -0.45 0.99 -0.69 1.12 -0.57 c 0.03 0.03 -0.05 0.33 -0.17 0.68 c -0.39 1.14 -0.2 1.73 1.12 3.61 c 0.94 1.33 1.11 1.79 0.96 2.53 c -0.05 0.23 -0.13 0.54 -0.18 0.66 c -0.17 0.42 -0.7 0.9 -1.29 1.16 c -0.7 0.31 -1.54 0.34 -2.29 0.06 m 6.2 -1.74 c -0.62 -0.55 -0.88 -1.15 -0.82 -1.86 c 0.05 -0.61 0.26 -1.04 1.17 -2.43 c 0.83 -1.27 1.07 -1.75 1.21 -2.39 c 0.16 -0.75 0.3 -0.75 1.08 0 c 0.75 0.73 1.14 1.37 1.54 2.48 c 0.25 0.72 0.29 0.95 0.3 1.89 c 0.02 1 -0.13 1.68 -0.89 2.31 c -1.34 0.66 -2.49 0.95 -3.58 0" style="fill:#fff"/></svg>