<svg xmlns="http://www.w3.org/2000/svg" viewBox="0 0 32 32"><path d="m 5.46 5.47 c -16.24 13.1 7.54 36.76 21.9 21.65 c 14.4 -13 -8.1 -38.2 -21.9 -21.65" style="fill:#ff8c00"/><path d="m 6.77 25.63 c -0.04 -0.04 0.72 -0.87 1.67 -1.86 l 1.73 -1.8 h 7.69 c 6.2 0 7.69 0.02 7.69 0.12 c 0 0.07 -0.76 0.9 -1.69 1.86 l -1.69 1.74 h -7.67 c -4.22 0 -7.7 -0.03 -7.73 -0.06 m 11.82 -5.43 c -0.2 -0.2 -0.18 -0.29 0.23 -1.17 c 0.32 -0.69 0.37 -0.89 0.41 -1.54 c 0.03 -0.6 0 -0.88 -0.16 -1.41 c -0.38 -1.29 -0.12 -2.41 0.75 -3.23 c 0.63 -0.6 1.09 -0.78 1.97 -0.78 c 0.67 0 0.81 0.03 1.33 0.3 c 1.22 0.62 1.86 1.97 1.56 3.27 c -0.23 1 -1.45 2.46 -2.68 3.2 c -0.76 0.46 -2.97 1.53 -3.16 1.53 c -0.06 0 -0.18 -0.07 -0.25 -0.14 m -10.39 -0.9 c -1.25 -0.4 -1.96 -2.06 -1.42 -3.3 c 0.21 -0.48 0.7 -1 1.16 -1.24 c 0.44 -0.23 1.6 -0.23 2.04 0 c 0.81 0.42 1.33 1.28 1.33 2.19 c 0 1.7 -1.53 2.86 -3.11 2.35 m 1.32 -1.29 c 0.4 -0.22 0.64 -0.69 0.59 -1.13 c -0.08 -0.68 -0.51 -1.08 -1.15 -1.08 c -0.64 0 -1.07 0.4 -1.15 1.08 c -0.08 0.65 0.5 1.29 1.15 1.29 c 0.14 0 0.4 -0.07 0.56 -0.16 m 4.65 1.26 c -0.34 -0.12 -0.61 -0.31 -0.89 -0.63 c -1.44 -1.56 -0.4 -4.1 1.67 -4.09 c 1.37 0 2.36 1.03 2.37 2.45 c 0.01 1.69 -1.59 2.84 -3.15 2.27 m -2.88 -4.95 c -2.08 -0.67 -2.29 -3.58 -0.32 -4.54 c 1.28 -0.63 2.86 0.1 3.25 1.5 c 0.27 0.96 0.03 1.83 -0.7 2.52 c -0.62 0.59 -1.43 0.78 -2.23 0.52 m 1.39 -1.32 c 0.26 -0.2 0.52 -0.69 0.52 -0.99 c 0 -0.63 -0.51 -1.2 -1.12 -1.25 c -1.36 -0.12 -1.85 1.71 -0.63 2.36 c 0.36 0.2 0.87 0.15 1.23 -0.12 m 9.99 -2 c -0.79 -0.14 -1.49 -0.28 -1.55 -0.3 c -0.1 -0.04 -0.12 -0.51 -0.12 -2.45 v -2.4 l 0.2 -0.05 c 0.32 -0.08 1.57 0.19 2.05 0.44 c 0.29 0.15 0.69 0.52 1.16 1.05 c 0.48 0.54 0.8 0.84 0.97 0.87 c 0.55 0.13 0.54 0.2 -0.38 2.24 c -0.46 1.04 -0.24 0.98 -2.32 0.61" style="fill:#fff"/></svg>