<svg xmlns="http://www.w3.org/2000/svg" viewBox="0 0 32 32"><path d="m 28.94 7.51 c 17.41 31.8 -46.2 33.3 -24.3 0.52 c 5.77 -8.44 19.61 -12.55 24.3 -0.52" style="fill:#ff8c00"/><path d="m 9.85 26.84 c -0.08 -0.03 -0.28 -0.18 -0.45 -0.32 c -0.48 -0.43 -0.69 -1.16 -0.74 -2.67 c -0.05 -1.46 -0.02 -1.65 0.95 -5.41 c 0.87 -3.37 1.01 -4.16 1.02 -5.66 c 0.01 -1.08 -0.02 -1.36 -0.2 -1.89 c -0.26 -0.76 -0.66 -1.28 -1.3 -1.68 c -0.29 -0.18 -0.49 -0.37 -0.49 -0.46 c 0 -0.14 0.09 -0.16 0.7 -0.16 c 1.37 0 2.71 0.3 3.43 0.76 c 0.2 0.13 0.48 0.43 0.63 0.68 c 0.24 0.39 0.27 0.52 0.27 1.18 c 0 1.05 -0.13 1.46 -1.52 4.9 c -1.14 2.8 -1.46 4.06 -1.46 5.71 c 0 2 0.59 3.23 1.46 3 c 0.14 -0.04 0.55 -0.33 0.89 -0.66 c 0.35 -0.33 0.65 -0.6 0.68 -0.6 c 0.03 0 0.05 0.23 0.05 0.5 v 0.5 l -0.91 0.83 c -0.55 0.5 -1.14 0.94 -1.48 1.11 c -0.55 0.28 -1.24 0.42 -1.52 0.32 m 6.13 -0.65 c -0.37 -0.2 -0.36 -0.46 0.02 -1.19 c 0.57 -1.08 0.7 -1.54 0.7 -2.46 c 0 -0.63 -0.05 -0.96 -0.2 -1.39 c -0.29 -0.78 -0.35 -1.36 -0.21 -1.97 c 0.34 -1.53 1.56 -2.66 3.14 -2.93 c 1.59 -0.26 3.33 0.61 4.05 2 c 0.24 0.47 0.3 0.71 0.33 1.33 c 0.05 0.9 -0.12 1.5 -0.63 2.24 c -0.54 0.78 -1.72 1.89 -2.57 2.42 c -0.7 0.43 -4.14 2.04 -4.38 2.04 c -0.05 0 -0.17 -0.04 -0.26 -0.09 m 6.37 -10.68 c -1.16 -0.31 -2.13 -0.61 -2.17 -0.67 c -0.1 -0.14 -0.09 -6.27 0.01 -6.41 c 0.06 -0.09 0.23 -0.11 0.77 -0.05 c 1.55 0.14 2.38 0.51 3.22 1.41 c 1.08 1.15 1.4 1.41 1.81 1.48 c 0.21 0.03 0.4 0.1 0.43 0.16 c 0.05 0.13 -1.75 4.61 -1.88 4.63 c -0.05 0.01 -1.04 -0.23 -2.19 -0.54" style="fill:#fff"/></svg>