<svg xmlns="http://www.w3.org/2000/svg" viewBox="0 0 32 32"><path d="m 3.57 10.13 c -1.59 1.89 -3.24 5.49 -3.51 7.66 c -0.38 3.13 0.59 6.77 2.42 8.99 c 2.43 2.96 7.47 5 12.57 5.12 c 3.66 0.07 8.59 -0.88 11.13 -2.15 c 2.16 -1.08 3.74 -2.71 4.64 -4.8 c 1.22 -2.83 1.37 -5.63 0.43 -8.44 c -1.48 -5.99 -5.14 -10.1 -8.43 -13.39 c -8.39 -7.38 -14.39 1.14 -19.25 7" style="fill:#ff8c00"/><path d="m 6.32 26.29 c -0.03 -0.07 -0.04 -0.35 -0.02 -0.62 l 0.03 -0.48 l 1.7 -0.03 c 1.93 -0.03 2.11 -0.01 2.32 0.32 c 0.2 0.29 0.05 0.67 -0.33 0.84 c -0.39 0.17 -3.64 0.14 -3.71 -0.03 m 10.32 0.02 c -0.35 -0.16 -0.49 -0.55 -0.3 -0.83 c 0.09 -0.13 0.27 -0.26 0.39 -0.29 c 0.13 -0.03 2.28 -0.04 4.78 -0.02 l 4.54 0.03 v 1.18 l -4.6 0.02 c -3 0.01 -4.67 -0.02 -4.81 -0.09 m -7.46 -2.69 c -0.09 -0.09 -0.11 -1.41 -0.09 -4.71 l 0.02 -4.58 l 0.46 -0.03 c 0.98 -0.05 0.9 0.12 0.96 -1.97 c 0.06 -2.05 0.14 -2.46 0.77 -3.61 c 1.61 -2.95 6.41 -3.55 8.96 -1.11 c 1.21 1.16 1.6 2.38 1.6 4.99 c 0 1.78 -0.07 1.64 0.93 1.7 l 0.46 0.03 l 0.03 4.58 c 0.02 3.3 -0.01 4.62 -0.09 4.71 c -0.1 0.11 -1.31 0.14 -7 0.14 c -5.7 0 -6.91 -0.02 -7 -0.14 m 9.8 -9.49 c 0.09 -0.11 0.11 -0.55 0.09 -1.66 c -0.04 -1.3 -0.07 -1.57 -0.28 -2 c -1.04 -2.2 -4.15 -2.2 -5.2 0 c -0.2 0.43 -0.24 0.7 -0.27 2 c -0.03 1.1 -0.01 1.55 0.09 1.66 c 0.19 0.22 5.38 0.22 5.57 0" style="fill:#fff"/></svg>