<svg xmlns="http://www.w3.org/2000/svg" viewBox="0 0 32 32"><path d="m 28.8 7.44 c 17.41 31.8 -46.2 33.3 -24.3 0.52 c 5.77 -8.44 19.61 -12.55 24.3 -0.52" style="fill:#ff8c00"/><path d="m 13.32 28.83 c -0.11 -0.11 -0.2 -0.29 -0.2 -0.39 c 0 -0.11 0.42 -0.62 0.95 -1.14 c 1.36 -1.37 1.91 -2.46 1.91 -3.82 c 0 -2.51 2.44 -4.56 4.9 -4.11 c 3.44 0.63 4.66 4.91 2.06 7.25 c -1.21 1.09 -3.26 1.77 -6.34 2.11 c -3.12 0.34 -3.04 0.34 -3.27 0.11 m -1.2 -7.1 c -0.14 -0.16 -0.23 -0.39 -0.25 -0.73 l -0.04 -0.5 l -0.67 -0.17 c -2.32 -0.58 -4.11 -2.36 -4.63 -4.6 c -0.08 -0.34 -0.21 -0.66 -0.28 -0.71 c -0.07 -0.05 -0.32 -0.08 -0.56 -0.09 c -0.34 0 -0.47 -0.05 -0.64 -0.27 c -0.26 -0.33 -0.27 -0.46 -0.02 -0.76 c 0.14 -0.18 0.33 -0.25 0.73 -0.29 l 0.55 -0.05 l 0.18 -0.71 c 0.59 -2.3 2.43 -4.18 4.57 -4.65 c 0.73 -0.16 0.81 -0.24 0.81 -0.71 c 0 -0.29 0.07 -0.47 0.25 -0.65 c 0.31 -0.3 0.46 -0.31 0.81 -0.04 c 0.21 0.17 0.27 0.3 0.27 0.65 c 0 0.52 0.08 0.59 0.84 0.76 c 2.09 0.45 3.98 2.37 4.55 4.62 l 0.19 0.74 l 0.5 0.03 c 1.2 0.08 1.31 1.34 0.11 1.34 c -0.24 0 -0.48 0.04 -0.54 0.08 c -0.06 0.04 -0.17 0.33 -0.24 0.63 c -0.5 2.2 -2.29 4.05 -4.49 4.65 c -0.36 0.1 -0.72 0.22 -0.79 0.27 c -0.07 0.05 -0.13 0.3 -0.13 0.54 c 0 0.77 -0.63 1.12 -1.1 0.63 m -0.22 -3.88 c 0.11 -0.66 0.59 -0.93 1.04 -0.58 c 0.18 0.14 0.27 0.32 0.3 0.59 c 0.03 0.36 0.05 0.38 0.36 0.37 c 1.13 -0.05 2.87 -1.8 2.92 -2.92 c 0.02 -0.3 -0.01 -0.33 -0.36 -0.36 c -0.38 -0.03 -0.79 -0.39 -0.79 -0.68 c 0 -0.27 0.38 -0.59 0.77 -0.65 c 0.39 -0.07 0.4 -0.08 0.38 -0.45 c -0.05 -0.8 -1 -2.07 -1.89 -2.52 c -1.11 -0.56 -1.4 -0.55 -1.4 0.08 c 0 0.21 -0.08 0.41 -0.22 0.54 c -0.47 0.43 -0.99 0.13 -1.1 -0.64 c -0.05 -0.38 -0.09 -0.43 -0.31 -0.4 c -0.46 0.05 -1.32 0.52 -1.82 0.99 c -0.57 0.53 -1.12 1.48 -1.16 2 c -0.03 0.33 -0.01 0.35 0.35 0.38 c 0.27 0.02 0.45 0.11 0.59 0.29 c 0.39 0.5 0.16 0.95 -0.53 1.05 c -0.4 0.05 -0.43 0.08 -0.41 0.34 c 0.07 0.92 1.1 2.2 2.2 2.73 c 0.82 0.39 1.02 0.37 1.11 -0.14 m -0.08 -2.3 c -1.22 -0.75 -0.81 -2.58 0.62 -2.73 c 1.16 -0.12 2 1.19 1.39 2.19 c -0.42 0.7 -1.34 0.94 -2 0.54 m 10.47 2.91 c -1.71 -0.58 -1.89 -0.66 -1.92 -0.88 c -0.04 -0.38 1.29 -10.82 1.39 -10.92 c 0.06 -0.06 0.32 -0.06 0.69 0.01 c 1.54 0.27 2.71 1.02 3.55 2.26 c 0.64 0.94 1.01 2.03 1.18 3.45 l 0.13 1.06 l -1.41 2.84 c -0.95 1.9 -1.47 2.84 -1.57 2.83 c -0.09 0 -1 -0.29 -2.04 -0.64" style="fill:#fff"/></svg>