<svg xmlns="http://www.w3.org/2000/svg" viewBox="0 0 32 32"><path d="m 9.1 31.41 c 44.67 5.56 11.93 -58.3 -7.58 -17.46 c -3.05 7.18 -1.44 15.26 7.58 17.46" style="fill:#ff8c00"/><path d="m 6.76 26.77 c 0 -0.07 0.89 -1.05 1.99 -2.18 l 1.98 -2.05 h 7.71 c 4.24 0 7.71 0.04 7.71 0.08 c 0 0.04 -0.92 1.03 -2.04 2.18 l -2.04 2.1 h -7.66 c -6.09 0 -7.66 -0.03 -7.66 -0.14 m 9.15 -5.47 c -0.04 -0.04 -0.07 -0.27 -0.07 -0.5 c 0 -1.63 -0.47 -2.77 -1.62 -3.97 c -1.02 -1.06 -1.29 -1.68 -1.29 -2.92 c 0 -0.64 0.05 -0.93 0.26 -1.4 c 0.35 -0.79 0.96 -1.46 1.7 -1.84 c 0.54 -0.28 0.7 -0.31 1.58 -0.31 c 0.88 0 1.04 0.03 1.58 0.31 c 0.73 0.38 1.34 1.05 1.7 1.85 c 0.84 1.89 -0.36 5.99 -2.33 7.95 c -0.66 0.65 -1.32 1.02 -1.5 0.84 m -1.79 -12.41 c -0.16 -0.27 -0.62 -3.37 -0.51 -3.48 c 0.14 -0.15 5.55 -0.15 5.7 0 c 0.11 0.12 -0.34 3.22 -0.51 3.48 c -0.06 0.1 -0.65 0.13 -2.34 0.13 c -1.7 0 -2.28 -0.03 -2.34 -0.13" style="fill:#fff"/></svg>