<svg xmlns="http://www.w3.org/2000/svg" viewBox="0 0 32 32"><path d="m 26.54 26.53 c 16.23 -13.1 -7.54 -36.76 -21.9 -21.65 c -14.4 13 8.1 38.3 21.9 21.65" style="fill:#ff8c00"/><path d="m 8.98 25.62 l -1.66 -0.04 c 1.18 -1.14 2.36 -2.28 3.54 -3.42 h 2.98 c 2.91 0 2.98 0 3.18 0.22 c 0.11 0.12 0.82 0.78 1.58 1.46 l 1.38 1.24 c 1.08 -0.96 2.27 -2 3.16 -2.93 c 0.56 0 1.12 0.01 1.68 0.01 l -1.82 1.76 l -1.82 1.76 l -5.26 -0.02 c -2.3 -0.02 -4.61 -0.01 -6.92 -0.05" style="fill:#ffdeac"/><path d="m 18.1 21.45 c -2.08 -1.95 -2.05 -1.79 -0.38 -1.83 l 0.98 -0.02 l 0.02 -2.89 c 0.02 -2.06 0 -2.93 -0.08 -3 c -0.16 -0.18 -4.88 -0.18 -5 0 c -0.13 0.37 -0.07 0.67 -0.05 1.07 l 1.08 0.02 c 0.59 0.01 1.14 0.04 1.21 0.07 c 0.09 0.03 -0.46 0.61 -1.68 1.76 c -1 0.94 -1.87 1.71 -1.92 1.71 c -0.05 0 -0.89 -0.75 -1.87 -1.67 c -1.17 -1.09 -1.75 -1.7 -1.69 -1.75 c 0.05 -0.05 0.58 -0.1 1.17 -0.11 l 1.08 -0.02 l 0.06 -0.84 c 0.09 -1.23 0.5 -1.9 1.5 -2.42 l 0.5 -0.26 h 6.28 l 0.5 0.26 c 0.55 0.29 0.94 0.66 1.26 1.21 c 0.21 0.36 0.21 0.44 0.24 3.65 l 0.03 3.28 h 1.11 c 0.72 0 1.14 0.04 1.18 0.1 c 0.07 0.1 -3.39 3.42 -3.57 3.42 c -0.05 0 -0.91 -0.77 -1.91 -1.71 m -10.79 -11.55 c 0 -0.04 0.84 -0.85 1.85 -1.8 l 1.85 -1.74 h 6.89 c 3.79 0 6.93 0.03 6.96 0.06 c -1.2 1.32 -2.23 2.22 -3.64 3.55 h -6.96 c -3.83 0 -6.96 -0.03 -6.96 -0.07" style="fill:#fff"/><g style="fill:#ffdeac"><path d="m 7.47 20.7 c 0 -0.11 1.67 -1.75 2.2 -2.17 l 0.28 -0.22 c 0.75 0.58 1.39 1.32 2.18 1.84 c 0.73 -0.39 1.18 -0.86 1.85 -1.44 c 0.61 1.1 0.68 1.34 1.09 2.02 c 0 0.04 -1.71 0.08 -3.8 0.08 c -2.57 0 -3.8 -0.04 -3.8 -0.11"/><path d="m 14.44 18.33 c 0.31 -0.42 0.61 -0.69 1 -1.07 c 0.62 0.06 1.28 -0.05 1.89 0.01 v 0.75 c 0 0.56 -0.13 0.39 -1.62 0.39 c -0.7 0 -1.28 -0.04 -1.28 -0.08"/><path d="m 22.42 18.2 c -0.07 -0.81 0.06 -0.9 0.84 -0.89 c 0.52 0 1.02 0.06 1.52 0.15 l -0.57 0.5 c -0.5 0.43 -0.62 0.49 -1.05 0.49 c -0.46 0 -0.72 0.02 -0.75 -0.25"/></g></svg>