<svg xmlns="http://www.w3.org/2000/svg" viewBox="0 0 32 32"><path d="m 3.06 7.51 c -17.41 31.8 46.2 33.3 24.3 0.52 c -5.78 -8.44 -19.61 -12.55 -24.3 -0.52" style="fill:#ff8c00"/><path d="m 19.96 28.2 c -2.85 -0.29 -4.36 -1.09 -4.98 -2.67 c -0.23 -0.59 -0.28 -1.53 -0.11 -2.36 c 0.33 -1.65 1.11 -2.73 3.14 -4.38 c 2.31 -1.87 3.3 -2.94 4 -4.32 c 0.7 -1.36 0.84 -2.58 0.4 -3.59 c -0.6 -1.38 -2.47 -2.47 -4.81 -2.81 c -0.36 -0.05 -0.73 -0.12 -0.8 -0.14 c -0.18 -0.06 -0.68 -1.11 -0.6 -1.25 c 0.12 -0.2 2.77 0.08 4.13 0.43 c 3.04 0.79 4.52 2.57 4.73 5.71 c 0.14 2.09 -0.59 3.4 -4.25 7.64 c -1.74 2 -2.33 3.04 -2.33 4 c 0 0.92 0.64 1.64 1.84 2.05 c 0.66 0.23 1.62 0.4 2.21 0.4 c 0.53 0 0.58 0.16 0.24 0.81 l -0.27 0.52 l -0.85 0.01 c -0.47 0.01 -1.23 -0.02 -1.7 -0.07 m -8.88 -6.92 c -0.13 -0.15 -0.21 -0.38 -0.23 -0.71 l -0.03 -0.49 l -0.62 -0.16 c -2.14 -0.57 -3.79 -2.29 -4.28 -4.45 c -0.07 -0.34 -0.19 -0.64 -0.26 -0.69 c -0.07 -0.04 -0.3 -0.08 -0.52 -0.08 c -0.31 0 -0.43 -0.05 -0.59 -0.26 c -0.24 -0.32 -0.24 -0.45 -0.02 -0.73 c 0.13 -0.17 0.3 -0.25 0.68 -0.29 l 0.5 -0.05 l 0.17 -0.69 c 0.54 -2.23 2.25 -4.05 4.21 -4.5 c 0.68 -0.16 0.75 -0.23 0.75 -0.69 c 0 -0.28 0.07 -0.46 0.23 -0.63 c 0.28 -0.29 0.42 -0.3 0.74 -0.04 c 0.2 0.16 0.25 0.29 0.25 0.63 c 0 0.51 0.07 0.58 0.78 0.73 c 1.93 0.44 3.68 2.3 4.21 4.47 l 0.17 0.72 l 0.46 0.03 c 1.11 0.07 1.21 1.3 0.11 1.3 c -0.22 0 -0.45 0.04 -0.5 0.07 c -0.06 0.04 -0.16 0.32 -0.22 0.62 c -0.46 2.13 -2.12 3.93 -4.15 4.5 c -0.34 0.09 -0.66 0.21 -0.73 0.27 c -0.07 0.05 -0.12 0.29 -0.12 0.52 c 0 0.74 -0.58 1.09 -1.02 0.61 m -0.2 -3.76 c 0.1 -0.64 0.54 -0.9 0.96 -0.56 c 0.17 0.14 0.25 0.31 0.27 0.57 c 0.03 0.34 0.05 0.36 0.33 0.35 c 1.04 -0.05 2.66 -1.74 2.7 -2.83 c 0.01 -0.29 -0.01 -0.31 -0.34 -0.34 c -0.35 -0.03 -0.73 -0.38 -0.73 -0.66 c 0 -0.26 0.35 -0.57 0.71 -0.63 c 0.36 -0.06 0.37 -0.07 0.35 -0.44 c -0.04 -0.77 -0.93 -2 -1.75 -2.45 c -1.02 -0.54 -1.29 -0.53 -1.29 0.08 c 0 0.2 -0.07 0.39 -0.21 0.52 c -0.43 0.42 -0.91 0.13 -1.02 -0.61 c -0.05 -0.37 -0.08 -0.41 -0.29 -0.39 c -0.43 0.05 -1.21 0.5 -1.68 0.95 c -0.52 0.51 -1.04 1.44 -1.07 1.94 c -0.02 0.32 -0.01 0.34 0.32 0.37 c 0.24 0.02 0.41 0.11 0.54 0.28 c 0.36 0.48 0.14 0.92 -0.49 1.02 c -0.37 0.05 -0.4 0.08 -0.38 0.33 c 0.06 0.89 1.02 2.14 2.03 2.64 c 0.76 0.38 0.95 0.36 1.02 -0.14 m -0.07 -2.23 c -1.13 -0.72 -0.75 -2.5 0.57 -2.64 c 1.08 -0.11 1.85 1.16 1.29 2.12 c -0.39 0.68 -1.24 0.91 -1.86 0.52" style="fill:#fff"/></svg>