<svg xmlns="http://www.w3.org/2000/svg" viewBox="0 0 32 32"><path d="m 17.35 31.77 c -19 1.82 -24.1 -28.84 -4.61 -31.2 c 17.95 -2.95 27.2 24.84 9.36 30.39 c -1.51 0.61 -3.16 0.6 -4.75 0.82" style="fill:#ff8c00"/><path d="m 9.1 26.1 c -0.46 -0.18 -0.98 -0.74 -1.11 -1.19 c -0.14 -0.5 -0.14 -16.64 0 -17.1 c 0.05 -0.2 0.25 -0.51 0.43 -0.7 c 0.62 -0.66 0.36 -0.64 7.51 -0.61 l 6.37 0.03 l 0.43 0.24 c 0.24 0.13 0.59 0.43 0.79 0.67 c 0.62 0.75 0.61 0.59 0.58 7.34 c -0.02 5.74 -0.03 5.99 -0.19 6.34 c -0.23 0.5 -0.74 1.02 -1.26 1.27 l -0.44 0.22 h -6.08 c -6.79 0 -6.46 -0.03 -6.87 0.62 c -0.25 0.39 -0.25 0.8 0 1.19 c 0.41 0.66 0.07 0.63 6.91 0.6 l 6.13 -0.02 l 0.38 -0.21 c 0.47 -0.26 0.89 -0.67 1.12 -1.11 c 0.2 -0.39 0.32 -0.37 0.32 0.05 c 0 0.89 -0.57 1.84 -1.38 2.29 l -0.43 0.25 l -6.42 0.02 c -5.53 0.02 -6.47 0 -6.78 -0.12 m 6.57 -8.72 c 1.37 -1.46 2.52 -2.66 2.55 -2.66 c 0.03 0 0.07 1.18 0.08 2.63 l 0.02 2.63 l 1.16 0.03 l 1.16 0.02 l -0.02 -5.56 l -0.02 -5.56 l -1.04 -0.02 c -0.7 -0.02 -1.09 0.01 -1.16 0.08 c -0.09 0.08 -0.12 0.59 -0.12 2.7 c 0 1.43 -0.03 2.6 -0.06 2.6 c -0.04 0 -1.21 -1.22 -2.61 -2.71 c -2.29 -2.44 -2.57 -2.7 -2.79 -2.68 l -0.24 0.03 l -0.02 5.56 l -0.02 5.56 h 0.32 c 0.3 0 0.43 -0.12 2.81 -2.66" style="fill:#fff"/></svg>