<svg xmlns="http://www.w3.org/2000/svg" viewBox="0 0 32 32"><path d="m 15.63 31.77 c -19.21 1.82 -20.96 -28.84 -1.19 -31.2 c 18.27 -2.95 24.46 24.84 6 30.39 c -1.58 0.61 -3.23 0.6 -4.84 0.82" style="fill:#ff8c00"/><path d="m 6.52 25 c -0.08 -0.04 -0.11 -0.64 -0.11 -2.58 c 0 -2.83 0.02 -2.97 0.59 -3.37 c 0.51 -0.36 1.21 -0.19 1.54 0.38 c 0.15 0.26 0.17 0.45 0.17 1.56 c 0 0.7 0.02 1.33 0.05 1.41 c 0.05 0.12 0.29 0.14 1.77 0.14 c 0.95 0 1.86 0.04 2.03 0.09 c 0.18 0.05 0.43 0.23 0.58 0.41 c 0.22 0.27 0.26 0.39 0.26 0.77 c 0 0.38 -0.04 0.5 -0.28 0.77 c -0.18 0.2 -0.4 0.35 -0.62 0.4 c -0.35 0.09 -5.8 0.11 -5.99 0.03 m 12.52 -0.03 c -0.17 -0.04 -0.41 -0.21 -0.57 -0.39 c -0.23 -0.27 -0.28 -0.39 -0.28 -0.77 c 0 -0.37 0.04 -0.5 0.26 -0.77 c 0.15 -0.18 0.4 -0.36 0.57 -0.41 c 0.18 -0.05 1.09 -0.09 2.03 -0.09 c 1.49 0 1.73 -0.02 1.77 -0.14 c 0.03 -0.08 0.05 -0.71 0.05 -1.41 c 0 -1.11 0.02 -1.3 0.17 -1.56 c 0.33 -0.57 1.03 -0.74 1.54 -0.38 c 0.56 0.4 0.59 0.54 0.59 3.36 c 0 2.23 -0.02 2.54 -0.13 2.59 c -0.2 0.08 -5.66 0.05 -6 -0.04 m -11.92 -11.13 c -0.15 -0.08 -0.37 -0.27 -0.47 -0.43 c -0.19 -0.27 -0.19 -0.34 -0.19 -2.93 v -2.65 l 2.98 -0.02 c 2.82 -0.02 2.99 -0.02 3.33 0.16 c 0.86 0.44 0.88 1.66 0.04 2.12 c -0.19 0.11 -0.62 0.13 -2.06 0.13 c -1.3 0 -1.85 0.03 -1.93 0.11 c -0.07 0.07 -0.1 0.53 -0.1 1.48 c 0 1.36 0 1.37 -0.23 1.66 c -0.23 0.29 -0.66 0.54 -0.94 0.53 c -0.09 0 -0.28 -0.07 -0.43 -0.15 m 16.48 0.03 c -0.14 -0.07 -0.36 -0.25 -0.49 -0.41 c -0.23 -0.29 -0.23 -0.3 -0.23 -1.66 c 0 -0.95 -0.03 -1.4 -0.1 -1.48 c -0.07 -0.08 -0.62 -0.11 -1.93 -0.11 c -1.97 0 -2.14 -0.03 -2.49 -0.5 c -0.22 -0.3 -0.24 -0.93 -0.03 -1.3 c 0.08 -0.14 0.31 -0.34 0.5 -0.44 c 0.33 -0.17 0.5 -0.18 3.33 -0.16 l 2.98 0.02 l 0.02 2.55 c 0.02 2.21 0 2.59 -0.12 2.86 c -0.27 0.59 -0.93 0.88 -1.45 0.63" style="fill:#fff"/></svg>