<svg xmlns="http://www.w3.org/2000/svg" viewBox="0 0 32 32"><path d="m 28.3 26.31 c 7.79 -11.9 1.5 -22.75 -7.31 -25.32 c -11.86 -3.46 -27.96 5.64 -17.35 24.38 c 4.22 7.45 19.1 9.43 24.66 0.94" style="fill:#fb8600"/><path d="m 8.98 26.2 c -0.46 -0.17 -1.04 -0.76 -1.15 -1.18 c -0.12 -0.45 -0.12 -16.55 0 -17 c 0.12 -0.45 0.7 -1.02 1.2 -1.19 c 0.35 -0.12 0.84 -0.14 3.1 -0.12 l 2.68 0.02 l 0.02 3.8 c 0.01 2.09 0 3.86 -0.03 3.93 c -0.03 0.09 -0.27 -0.1 -0.8 -0.64 c -0.42 -0.42 -0.84 -0.81 -0.95 -0.86 c -0.11 -0.05 -0.54 -0.1 -0.98 -0.1 h -0.79 v 0.79 c 0 0.6 0.04 0.84 0.16 1.05 c 0.27 0.45 5.1 5.4 5.21 5.4 c 0.09 0 1.27 -1.18 2.71 -2.71 c 2.81 -2.97 2.7 -2.81 2.65 -3.9 l -0.03 -0.58 l -0.7 -0.03 c -0.38 -0.02 -0.79 0 -0.91 0.03 c -0.12 0.03 -0.57 0.41 -1 0.86 c -0.43 0.44 -0.82 0.8 -0.85 0.8 c -0.04 0 -0.05 -1.76 -0.04 -3.91 l 0.02 -3.91 h 3.99 l 0.45 0.24 c 0.58 0.32 1.13 0.96 1.29 1.53 c 0.19 0.65 0.2 11.79 0.01 12.42 c -0.18 0.61 -0.65 1.16 -1.28 1.48 l -0.54 0.27 h -6.25 c -6.97 0 -6.63 -0.03 -7.1 0.62 c -0.25 0.39 -0.25 0.79 0 1.18 c 0.42 0.65 0.07 0.62 7.09 0.59 l 6.29 -0.02 l 0.43 -0.24 c 0.47 -0.25 0.88 -0.66 1.13 -1.12 c 0.19 -0.34 0.3 -0.3 0.3 0.09 c 0 0.88 -0.59 1.82 -1.42 2.27 l -0.45 0.24 l -6.59 0.02 c -5.68 0.01 -6.64 0 -6.96 -0.12" style="fill:#fff"/></svg>