<svg xmlns="http://www.w3.org/2000/svg" viewBox="0 0 32 32"><path d="m 31.42 19.64 c -6.17 29.63 -48.61 -2.18 -23.1 -17.24 c 9.9 -6.46 26.29 2 23.1 17.24" style="fill:#ffa400"/><path d="m 15.1 6.66 c -2.62 0 -4.73 1.78 -4.73 3.98 v 2.86 h -1.08 v 9 h 12.19 v -9 h -1 v -2.86 c 0 -2.21 -2.11 -3.98 -4.73 -3.98 m -0.47 1.75 h 0.39 c 1.59 0 2.87 1.33 2.88 2.99 v 2.11 h -6.14 v -2.11 c 0 -1.66 1.29 -2.99 2.88 -2.99 m 0.27 7.43 c 0.75 0.02 1.34 0.54 1.34 1.17 c 0 0.42 -0.27 0.81 -0.7 1.02 l 0.28 2.8 c -0.7 0.2 -1.3 0.16 -1.97 -0.05 l 0.28 -2.76 c -0.42 -0.21 -0.68 -0.59 -0.68 -1 c 0 -0.62 0.57 -1.13 1.3 -1.17 h 0.14" style="fill:#fff;fill-rule:evenodd"/><path d="m 40.1 142.3 l -5.49 5.47 c -1.85 1.82 -2.08 4.58 -0.48 6.16 l 51.9 51.4 c 1.6 1.54 4.38 1.35 6.21 -0.49 l 5.49 -5.47 c 1.83 -1.84 2.03 -4.62 0.46 -6.18 l -51.9 -51.4 c -1.6 -1.58 -4.36 -1.37 -6.19 0.47" transform="matrix(0.088 -0.089 0.089 0.088 0.71 13)" style="fill:#ff4500;stroke:#ff4500;stroke-linecap:round;stroke-width:1.53"/></svg>