<svg xmlns="http://www.w3.org/2000/svg" viewBox="0 0 32 32"><path d="m 5.73 4.89 c -25 32.91 43.81 37.57 21.72 3.99 c -5 -7.66 -15.1 -12.7 -21.72 -3.99" style="fill:#ff8c00"/><path d="m 15.2 8.26 c -2.14 0 -3.86 1.82 -3.86 4.08 c 0 0.24 0.02 0.59 0.04 0.89 c -0.37 0.18 -0.39 0.98 -0.09 1.81 c 0.13 0.33 0.28 0.58 0.45 0.79 c 0.04 0.23 0.03 0.34 0.08 0.6 c 0.14 0.49 0.71 1.44 1.23 2.23 c 0.05 0.61 0.1 1.21 0 1.9 c -1.5 1.41 -5.38 2 -5.37 3.48 l -0.08 0.55 h 15.2 l -0.08 -0.55 c 0 -1.25 -3.89 -2 -5.37 -3.48 c -0.06 -0.56 -0.07 -1.12 -0.04 -1.67 c 0.47 -0.83 1.11 -1.92 1.27 -2.46 c 0.05 -0.27 0.08 -0.46 0.12 -0.7 c 0.14 -0.2 0.27 -0.41 0.37 -0.7 c 0.29 -0.79 0.28 -1.54 -0.04 -1.76 c 0.02 -0.32 0.04 -0.66 0.04 -0.93 c 0 -2.26 -1.72 -4.08 -3.86 -4.08" style="fill:#fff;fill-rule:evenodd"/><g style="fill:#ff4500;stroke:#ff4500;stroke-linecap:round;stroke-width:1.48"><path d="m -551.8 780.8 h 7.18 c 2.43 0.01 4.39 1.82 4.37 4.1 l 0.02 73.7 c -0.02 2.24 -1.96 4.1 -4.38 4.09 l -7.18 -0.02 c -2.43 0.02 -4.39 -1.82 -4.37 -4.07 l -0.02 -73.7 c 0.02 -2.24 1.96 -4.07 4.38 -4.06" transform="matrix(0.001 -0.124 0.124 0 -77.4 -47.4)"/><path d="m 818.1 507.3 l 7.21 -0.01 c 2.4 0.02 4.38 1.83 4.37 4.07 v 73.7 c -0.01 2.27 -1.98 4.08 -4.39 4.09 l -7.18 -0.02 c -2.43 0.02 -4.38 -1.83 -4.37 -4.07 v -73.7 c 0.01 -2.27 1.95 -4.08 4.35 -4.09" transform="matrix(0.124 0 -0.001 0.124 -77.4 -47.4)"/></g></svg>