<svg xmlns="http://www.w3.org/2000/svg" viewBox="0 0 32 32"><path d="m 16.3 31.82 c -3.3 -0.25 -7.16 -1.83 -9.85 -4 c -3.27 -2.66 -5.68 -6.75 -6.31 -10.78 c -0.77 -5.32 2.32 -11 5.81 -13.75 c 1.75 -1.32 4.07 -2.37 6.25 -2.83 c 5.66 -1.2 11.57 1.07 15.63 6 c 2.43 2.95 3.68 5.93 3.99 9.45 c 0.37 4.22 -1.3 8.75 -4.35 11.8 c -3.47 2.88 -7 4.43 -11.15 4.14" style="fill:#ff8c00"/><path d="m 17 6.76 c 2.04 0.26 3.91 1.16 5.39 2.59 c 3.75 3.62 3.86 9.52 0.24 13.27 c -1.41 1.46 -3.07 2.35 -5.14 2.75 c -2.23 0.43 -3.68 -0.08 -4.5 -1.58 c -0.23 -0.43 -0.28 -0.63 -0.29 -1.34 c -0.02 -0.77 0.01 -0.89 0.3 -1.46 c 0.57 -1.1 1.37 -1.59 2.89 -1.74 c 1.48 -0.15 2.38 -0.75 2.89 -1.91 c 0.29 -0.64 0.26 -1.94 -0.05 -2.58 c -0.31 -0.64 -0.87 -1.2 -1.52 -1.5 c -0.48 -0.23 -0.68 -0.26 -1.39 -0.25 c -0.71 0.02 -0.91 0.06 -1.38 0.3 c -0.52 0.26 -1.3 1.01 -1.64 1.57 c -1 -3.46 -3.68 -2.07 -5.57 0.04 c -0.74 -0.66 0.73 -3.81 1.22 -4.53 c 1.73 -2.51 5.34 -4.05 8.55 -3.63" style="fill:#fff"/></svg>