<svg xmlns="http://www.w3.org/2000/svg" viewBox="0 0 32 32"><path d="m 16.3 31.82 c -3.3 -0.25 -7.16 -1.83 -9.85 -4 c -3.27 -2.66 -5.68 -6.75 -6.31 -10.78 c -0.77 -5.32 2.32 -11 5.81 -13.75 c 1.75 -1.32 4.07 -2.37 6.25 -2.83 c 5.66 -1.2 11.57 1.07 15.63 6 c 2.43 2.95 3.68 5.93 3.99 9.45 c 0.37 4.22 -1.3 8.75 -4.35 11.8 c -3.47 2.88 -7 4.43 -11.15 4.14" style="fill:#ff8c00"/><path d="m 14.73 25.39 c -2.04 -0.3 -3.88 -1.23 -5.34 -2.69 c -3.69 -3.69 -3.69 -9.59 0 -13.28 c 1.44 -1.44 3.11 -2.29 5.19 -2.66 c 2.24 -0.39 3.68 0.15 4.46 1.66 c 0.23 0.44 0.27 0.63 0.27 1.35 c 0 0.77 -0.03 0.89 -0.33 1.45 c -0.59 1.09 -1.4 1.56 -2.92 1.69 c -1.48 0.13 -2.39 0.71 -2.92 1.86 c -0.3 0.64 -0.3 1.94 0 2.58 c 0.3 0.65 0.85 1.21 1.49 1.53 c 0.47 0.23 0.68 0.27 1.39 0.27 c 0.71 0 0.91 -0.04 1.39 -0.27 c 0.52 -0.25 1.31 -0.99 1.67 -1.55 c 0.95 3.48 3.64 2.14 5.57 0.06 c 0.73 0.67 -0.79 3.79 -1.3 4.5 c -1.77 2.48 -5.41 3.95 -8.62 3.48" style="fill:#fff"/></svg>