<svg xmlns="http://www.w3.org/2000/svg" viewBox="0 0 32 32"><path d="m 4.05 23.83 c -11.32 -12.79 5.43 -26.32 15.25 -22.99 c 9.82 3.33 16.41 12.71 10 20.95 c -6.41 8.23 -12.71 16.2 -24 3.38" style="fill:#ff8c00"/><g transform="matrix(0.114 0 0 -0.119 1.42 32.43)" style="fill:#fff;stroke:#fff"><path d="m 101 233.5 c -5 -2.3 -7.36 -5.56 -6.29 -8.82 c 0.34 -1.18 5.47 -7.27 11.31 -13.56 c 15.51 -16.65 18.88 -24.32 10.66 -24.38 c -6 0 -8.25 -1.09 -9.45 -4.57 c -0.72 -2.04 -1.17 -15.56 -1.17 -35.44 c 0 -27.34 0.28 -32.51 1.68 -34.55 c 1.65 -2.34 2.34 -2.44 19.36 -2.44 h 17.67 l 1.27 2.76 c 0.86 1.91 1.24 13.29 1.24 36.85 v 34.1 l -2.44 1.32 c -1.34 0.76 -4.37 1.61 -6.74 1.94 c -4.5 0.63 -4.57 0.72 -9.15 10.92 c -1.2 2.67 -6.36 9.58 -11.45 15.33 c -5.09 5.76 -9.28 10.99 -9.28 11.65 c 0 1.48 2.99 1.48 16.3 0.1 c 9.21 -0.99 10.45 -0.92 11.66 0.76 c 1.96 2.7 1.68 6.61 -0.55 7.27 c -10.62 3.22 -28.33 3.59 -34.62 0.72" style="stroke-width:2.28"/><g style="stroke-width:1.51"><path d="m 117.3 49.58 c -0.83 -2.11 0.21 -8.88 1.55 -10.37 c 1.13 -1.25 2.2 -1.45 7.94 -1.45 c 6.33 0 6.74 0.1 8.15 1.91 c 1.68 2.14 2.1 8.69 0.62 10.17 c -0.58 0.56 -3.71 0.86 -9.35 0.86 c -6.98 0 -8.56 -0.2 -8.9 -1.12"/><path d="m 120.3 71.7 c -0.79 -0.23 -1.86 -0.72 -2.34 -1.12 c -1.07 -0.86 -1.2 -8.98 -0.21 -10.6 c 0.86 -1.35 13.68 -1.94 16.71 -0.79 c 1.89 0.72 1.96 0.95 1.96 5.69 c 0 3.65 -0.31 5.2 -1.13 5.92 c -1.17 0.95 -12.27 1.65 -14.99 0.89"/><path d="m 121.8 92.5 c -1.58 -0.16 -3.27 -0.82 -3.75 -1.48 c -1.17 -1.51 -1.17 -9.67 -0.03 -10.79 c 0.55 -0.56 3.61 -0.86 8.94 -0.86 c 7.25 0 8.15 0.13 8.8 1.38 c 1.03 1.94 0.93 8.85 -0.14 10.23 c -0.96 1.25 -8.53 2.07 -13.82 1.51"/><path d="m 119.4 102.3 c -0.89 -0.36 -1.62 -0.95 -1.62 -1.32 c 0 -1.18 2.13 -1.51 9.28 -1.51 c 5.33 0 7.22 0.23 7.91 1.05 c 0.72 0.89 0.55 1.18 -1.03 1.78 c -2.34 0.89 -12.34 0.89 -14.58 0"/></g></g></svg>