<svg xmlns="http://www.w3.org/2000/svg" viewBox="0 0 32 32"><path d="m 29.35 24 c 8.57 -11.21 -5.14 -25.7 -16.18 -23.65 c -10.87 1.06 -17.44 17.45 -9 26.2 c 6.15 6.28 16.64 8.68 25.2 -2.53" style="fill:#ff8c00"/><g style="fill:#fff"><path d="m 9.87 10.39 h 11.36 c 0.91 0 1.66 0.55 1.66 1.22 c 0 0.68 -0.74 1.22 -1.66 1.22 h -11.36 c -0.92 0 -1.66 -0.54 -1.66 -1.22 c 0 -0.67 0.74 -1.22 1.66 -1.22"/><path d="m 9.89 14.9 h 6.27 c 0.92 0 1.66 0.55 1.66 1.22 c 0 0.67 -0.74 1.22 -1.66 1.22 h -6.27 c -0.91 0 -1.66 -0.55 -1.66 -1.22 c 0 -0.67 0.75 -1.22 1.66 -1.22"/><path d="m 9.78 19.57 h 11.35 c 0.92 0 1.66 0.54 1.66 1.22 c 0 0.67 -0.74 1.22 -1.66 1.22 h -11.35 c -0.92 0 -1.66 -0.55 -1.66 -1.22 c 0 -0.68 0.74 -1.22 1.66 -1.22"/></g></svg>