<svg xmlns="http://www.w3.org/2000/svg" viewBox="0 0 32 32"><path d="m 16.1 0.39 c 21.1 -2.4 20.81 31.99 -0.38 31.59 c -19.71 1.14 -21.49 -33.45 0.38 -31.59" style="fill:#ff8c00"/><path d="m 15.81 8.64 c 2.99 0 5.41 1.13 5.41 2.52 v 11.73 c 0 1.39 -2.43 2.52 -5.41 2.52 c -2.99 0 -5.41 -1.13 -5.41 -2.52 v -11.73 c 0 -1.39 2.43 -2.52 5.41 -2.52" style="fill:#fff"/><path d="m 21.1 9.82 c 0 1.42 -2.34 2.57 -5.23 2.57 c -2.88 0 -5.22 -1.15 -5.22 -2.57 c 0 -1.42 2.34 -2.57 5.22 -2.57 c 2.89 0 5.23 1.15 5.23 2.57" style="fill:#ffdeac"/></svg>