<svg xmlns="http://www.w3.org/2000/svg" viewBox="0 0 32 32"><path d="m 20.1 0.69 c 16.1 2.45 15.32 26.77 -0.64 30.44 c -12.97 3.78 -22.7 -9.92 -17.98 -20.2 c 2.34 -6.86 10.72 -12.41 18.63 -10.28" style="fill:#ff8c00"/><path d="m 8.79 12.25 h 12.68 v 12.59 h -12.68" style="fill:#fff"/><path d="m 9.85 13.38 h 10.57 v 10.43 h -10.57" style="fill:#ff8c00"/><g style="fill:#fff"><path d="m 16.86 18.45 c -1.1 -0.21 -1.17 -0.04 -1.28 -2.23 c -0.08 -1.61 -0.04 -1.81 0.16 -2.07 c 0.4 -0.52 0.5 -0.32 3.73 -0.34 c 1.94 -0.01 2.96 0.09 3.73 -0.27 c 0.58 -0.27 0.16 -1.68 -0.05 -1.88 c -1.73 -0.66 -6.11 0 -7.12 -0.31 c -0.59 -0.84 -0.42 -1.47 -0.42 -2.05 c 0.01 -2.05 0.11 -2.58 1.28 -2.67 c 2.94 -0.03 5.54 -0.11 8.47 0.11 c 0.95 0.23 1.4 0.36 1.75 1.14 c 0.33 0.73 0.39 1.3 0.44 3.78 c 0.04 2.18 -0.03 3.81 -0.19 4.55 c -0.11 0.53 -0.33 1.16 -0.82 1.66 c -0.73 1.05 -7.53 0.72 -9.7 0.59 m 1.17 -0.98 c 0.2 -0.15 0.22 -1.16 0.21 -1.89 c 0 -0.93 -0.17 -0.91 -0.74 -0.98 c -0.32 -0.04 -0.84 -0.06 -0.98 0.38 c -0.15 0.45 -0.15 2.15 0 2.43 c -0.1 0.44 1.61 0.75 1.51 0.05 m -0.16 -6.77 c 0.34 -0.34 0.57 -2.2 0.39 -2.88 c -0.13 -0.46 -1.07 -0.24 -1.52 -0.21 c -0.47 0.09 -0.37 2.86 -0.11 3.05 c 0.3 0.22 1.05 0.22 1.24 0.04"/><path d="m 7.37 10.76 h 3.5 v 3.65 h -3.5"/><path d="m 19.2 22.66 h 3.5 v 3.65 h -3.5"/><path d="m 7.37 22.66 h 3.5 v 3.65 h -3.5"/></g></svg>