<svg xmlns="http://www.w3.org/2000/svg" viewBox="0 0 32 32"><path d="m 28.71 23.55 c 9.46 -11.5 -3.29 -25.53 -14.56 -23.1 c -11 1.43 -18.85 18.1 -11 26.49 c 5.73 6.07 16.1 8.11 25.59 -3.39" style="fill:#ff8c00"/><g style="fill:#fff"><path d="m 24.59 9.31 c 0.19 0.26 0.29 0.63 0.26 0.95 l -0.04 0.31 l -2.65 3.72 c -2.63 3.68 -2.65 3.72 -2.87 3.84 c -0.41 0.23 -0.93 0.25 -1.35 0.05 l -0.21 -0.1 l -0.22 0.3 c -0.14 0.19 -0.27 0.33 -0.37 0.38 c -0.22 0.12 -0.55 0.11 -0.87 -0.02 l -0.29 -0.11 l -0.98 0.95 c -1.8 1.75 -3.7 3.96 -4.05 3.87 c -0.34 -0.4 0.55 -1.33 2.15 -4.71 c 0.4 -0.84 0.73 -1.54 0.72 -1.55 c 0 -0.01 -0.11 -0.11 -0.22 -0.23 c -0.43 -0.43 -0.46 -0.73 -0.11 -1.22 l 0.23 -0.33 l -0.2 -0.16 c -0.26 -0.22 -0.4 -0.46 -0.46 -0.81 c -0.1 -0.54 -0.23 -0.33 2.67 -4.4 c 2.93 -4.11 2.74 -3.88 3.34 -3.99 c 0.58 -0.1 0.52 -0.13 3.12 1.61 c 1.63 1.09 2.3 1.56 2.38 1.66"/><path d="m 6.41 24.57 h 11.16 c 0.56 0 1.02 0.24 1.02 0.54 v 0.44 c 0 0.3 -0.46 0.54 -1.02 0.54 h -11.16 c -0.57 0 -1.02 -0.24 -1.02 -0.54 v -0.44 c 0 -0.29 0.45 -0.54 1.02 -0.54"/><path d="m 14.86 22.29 h 10.1 c 0.56 0 1.02 0.24 1.02 0.54 v 0.44 c 0 0.29 -0.46 0.54 -1.02 0.54 h -10.1 c -0.56 0 -1.02 -0.24 -1.02 -0.54 v -0.44 c 0 -0.29 0.46 -0.54 1.02 -0.54"/></g></svg>