<svg xmlns="http://www.w3.org/2000/svg" viewBox="0 0 32 32"><path d="m 0.74 19.38 c 3 16.41 27.43 16.9 30.58 0.95 c 3.37 -12.91 -10.73 -23.46 -20.87 -19.23 c -6.82 2 -12.1 10.18 -9.71 18.29" style="fill:#ff8c00"/><path d="m 13.79 12.52 c 0 2.19 -1.83 3.96 -4.08 3.96 c -2.26 0 -4.09 -1.77 -4.09 -3.96 c 0 -2.19 1.83 -3.96 4.09 -3.96 c 2.25 0 4.08 1.77 4.08 3.96" style="fill:#fff"/><path d="m 12.48 12.55 c 0 1.5 -1.24 2.72 -2.77 2.72 c -1.53 0 -2.77 -1.22 -2.77 -2.72 c 0 -1.5 1.24 -2.72 2.77 -2.72 c 1.53 0 2.77 1.22 2.77 2.72" style="fill:#ff8c00"/><g style="fill:#fff"><path d="m 12.82 21.37 c 0 1.7 -1.4 3.09 -3.13 3.09 c -1.73 0 -3.14 -1.38 -3.14 -3.09 c 0 -1.71 1.4 -3.09 3.14 -3.09 c 1.73 0 3.13 1.38 3.13 3.09"/><path d="m 16.61 11.52 h 8.8 c 0.48 0 0.88 0.39 0.88 0.88 v 0.25 c 0 0.48 -0.39 0.88 -0.88 0.88 h -8.8 c -0.48 0 -0.88 -0.39 -0.88 -0.88 v -0.25 c 0 -0.48 0.39 -0.88 0.88 -0.88"/><path d="m 16.61 20.38 h 8.8 c 0.48 0 0.88 0.39 0.88 0.88 v 0.24 c 0 0.48 -0.39 0.88 -0.88 0.88 h -8.8 c -0.48 0 -0.88 -0.39 -0.88 -0.88 v -0.24 c 0 -0.48 0.39 -0.88 0.88 -0.88"/></g></svg>