<svg xmlns="http://www.w3.org/2000/svg" viewBox="0 0 32 32"><path d="m 3.48 10.7 c -1.51 1.95 -3 5.61 -3.21 7.8 c -0.27 3.15 0.81 6.77 2.69 8.93 c 2.5 2.89 7.55 4.78 12.59 4.7 c 3.61 -0.05 8.45 -1.18 10.92 -2.53 c 2.1 -1.16 3.61 -2.84 4.43 -4.97 c 1.11 -2.88 1.16 -5.69 0.14 -8.48 c -1.66 -5.95 -5.41 -9.95 -8.78 -13.1 c -8.53 -7.12 -14.17 1.63 -18.78 7.68" style="fill:#ff8c00"/><g style="fill:#fff"><path d="m 8.28 22.68 c 0 -0.25 7.43 -16.33 7.54 -16.32 c 0.07 0 4.07 7.97 6.23 12.41 l 1.77 3.63 l -2 0.07 c -5.18 0.17 -13.51 0.3 -13.51 0.21"/><path d="m 15 25.41 c -4.36 -0.18 -7.46 -1.61 -6.64 -3.04 c 2.73 -3.23 12.69 -4.94 15.53 0.21 c 0.16 0.62 -0.29 1.2 -1.35 1.71 c -1.7 0.82 -4.53 1.24 -7.55 1.12"/></g></svg>