<svg xmlns="http://www.w3.org/2000/svg" viewBox="0 0 32 32"><path d="m 16.3 31.82 c -3.3 -0.25 -7.16 -1.83 -9.85 -4 c -3.27 -2.66 -5.68 -6.75 -6.31 -10.78 c -0.77 -5.32 2.32 -11 5.81 -13.75 c 1.75 -1.32 4.07 -2.37 6.25 -2.83 c 5.66 -1.2 11.57 1.07 15.63 6 c 2.43 2.95 3.68 5.93 3.99 9.45 c 0.37 4.22 -1.3 8.75 -4.35 11.8 c -3.47 2.88 -7 4.43 -11.15 4.14" style="fill:#218b21"/><path d="m 6.71 9.72 h 18.1 v 11.24 h -18.1" style="fill:#fff"/><path d="m 7 20.84 c 4.41 -2.2 16.94 -8.48 17.29 -8.65 l 0.48 -0.25 v 9 h -8.99 h -8.99" style="fill:#31cd31"/><path d="m 19.63 22.1 l -1.67 2.49 l -1.61 2.52 l 3.2 0.07 l 3.2 0.01 l -1.53 -2.56" style="fill:#fff"/></svg>