<svg xmlns="http://www.w3.org/2000/svg" viewBox="0 0 32 32"><g style="fill:#ff8c00"><path d="M 26.523438 26.539062 C 13.414062 42.777344 -10.238281 19 4.875 4.640625 C 17.886719 -9.761719 43.125 12.714844 26.523438 26.539062 "/><path d="M 59.375 64.21875 L 191.40625 64.21875 L 191.40625 191.625 L 59.375 191.625 Z M 59.375 64.21875 " transform="scale(0.125)" style="stroke-dasharray:8.199 16.398;stroke-miterlimit:1.3;stroke:#fff;stroke-linecap:round;stroke-width:8.2"/></g><g style="fill:#fff"><path d="M 20.289062 15.929688 C 19.957031 15.832031 19.664062 15.640625 19.375 15.328125 C 18.398438 14.277344 18.195312 12.316406 18.90625 10.847656 C 19.152344 10.34375 19.59375 9.875 20.027344 9.664062 C 20.289062 9.539062 20.363281 9.523438 20.796875 9.523438 C 21.226562 9.523438 21.308594 9.539062 21.554688 9.660156 C 21.703125 9.734375 21.921875 9.886719 22.039062 10 C 22.257812 10.210938 22.601562 10.6875 22.601562 10.773438 C 22.597656 10.800781 22.410156 11.023438 22.179688 11.273438 L 21.757812 11.722656 L 21.601562 11.511719 C 21.378906 11.214844 21.152344 11.074219 20.851562 11.050781 C 20.402344 11.011719 20.070312 11.273438 19.839844 11.855469 C 19.722656 12.140625 19.683594 12.972656 19.761719 13.339844 C 19.960938 14.222656 20.585938 14.652344 21.207031 14.332031 C 21.339844 14.265625 21.636719 13.957031 21.726562 13.796875 C 21.773438 13.714844 21.820312 13.75 22.214844 14.136719 C 22.453125 14.375 22.648438 14.585938 22.648438 14.609375 C 22.648438 14.703125 22.242188 15.277344 22.042969 15.460938 C 21.582031 15.886719 20.839844 16.085938 20.289062 15.929688 Z M 20.289062 15.929688 "/><path d="M 8.5625 15.808594 C 8.5625 15.789062 8.980469 14.378906 9.488281 12.671875 L 10.414062 9.570312 L 11.5625 9.570312 L 12.460938 12.601562 C 12.957031 14.265625 13.375 15.679688 13.390625 15.738281 L 13.421875 15.847656 L 12.785156 15.835938 L 12.152344 15.820312 L 12.003906 15.292969 L 11.851562 14.765625 L 10.082031 14.765625 L 9.9375 15.304688 L 9.789062 15.847656 L 9.175781 15.847656 C 8.839844 15.847656 8.5625 15.828125 8.5625 15.808594 Z M 11.496094 13.417969 C 11.496094 13.402344 11.386719 13 11.253906 12.523438 C 11.121094 12.046875 11.015625 11.644531 11.015625 11.625 C 11.015625 11.609375 10.996094 11.617188 10.96875 11.640625 C 10.945312 11.667969 10.824219 12.054688 10.699219 12.503906 C 10.578125 12.953125 10.464844 13.347656 10.449219 13.378906 C 10.433594 13.429688 10.546875 13.441406 10.960938 13.441406 C 11.253906 13.441406 11.496094 13.429688 11.496094 13.417969 Z M 11.496094 13.417969 "/><path d="M 14.042969 12.671875 L 14.042969 9.539062 L 15.378906 9.558594 C 16.523438 9.570312 16.738281 9.585938 16.902344 9.660156 C 17.203125 9.792969 17.398438 9.96875 17.550781 10.234375 C 17.941406 10.914062 17.816406 11.914062 17.289062 12.371094 L 17.097656 12.539062 L 17.214844 12.613281 C 17.484375 12.789062 17.78125 13.144531 17.871094 13.398438 C 18.003906 13.78125 17.988281 14.480469 17.84375 14.855469 C 17.710938 15.195312 17.40625 15.519531 17.082031 15.667969 C 16.867188 15.769531 16.773438 15.773438 15.449219 15.789062 L 14.042969 15.804688 Z M 16.625 14.296875 C 16.726562 14.191406 16.757812 14.113281 16.773438 13.882812 C 16.792969 13.621094 16.78125 13.585938 16.648438 13.4375 L 16.503906 13.273438 L 15.851562 13.257812 L 15.195312 13.242188 L 15.195312 14.460938 L 15.84375 14.445312 C 16.476562 14.429688 16.496094 14.425781 16.625 14.296875 Z M 16.15625 12.050781 C 16.464844 11.992188 16.589844 11.828125 16.589844 11.488281 C 16.589844 11.257812 16.570312 11.203125 16.449219 11.082031 C 16.3125 10.945312 16.304688 10.941406 15.753906 10.941406 L 15.195312 10.941406 L 15.195312 11.488281 C 15.195312 11.785156 15.210938 12.046875 15.230469 12.0625 C 15.273438 12.109375 15.898438 12.101562 16.15625 12.050781 Z M 16.15625 12.050781 "/><path d="M 8.894531 18.105469 L 13.75 18.105469 L 13.75 19.5 L 8.894531 19.5 Z M 8.894531 18.105469 "/><path d="M 13.84375 22.9375 C 13.429688 22.199219 13.496094 21.523438 14.136719 20.664062 C 14.914062 20.445312 15.808594 21.832031 16.019531 22.097656 C 16.460938 22.65625 16.621094 22.808594 16.859375 22.886719 C 17.21875 22.90625 17.0625 21.480469 17.332031 20.039062 C 17.296875 19.074219 16.464844 16.398438 18.328125 16.238281 C 19.644531 15.445312 19.921875 19.710938 19.878906 20.476562 C 20.128906 21.085938 19.851562 21.625 20.921875 20.898438 C 21.632812 20.414062 22.109375 20.484375 22.59375 20.90625 C 22.742188 21.035156 23.082031 21.445312 23.71875 21.230469 C 24.890625 20.84375 25.226562 21.480469 25.164062 22.367188 C 25.113281 23.089844 24.667969 25.980469 24.429688 26.4375 C 24.246094 26.785156 23.6875 28.425781 21.574219 28.660156 C 20.214844 28.8125 20.820312 29.335938 18.554688 29.21875 C 17.035156 28.316406 16.71875 27.765625 15.957031 25.8125 C 15.082031 25.007812 14.332031 23.769531 13.84375 22.9375 Z M 13.84375 22.9375 "/></g></svg>