<svg xmlns="http://www.w3.org/2000/svg" viewBox="0 0 32 32"><path d="m 22.85 31.88 c -46 3.18 -11.53 -58.2 8 -17.79 c 2.7 6.23 0.73 15.51 -8 17.79" style="fill:#ff8c00"/><path d="m 9.1 25.35 c -0.79 -0.07 -0.96 -0.34 -1.43 -0.86 v -15.87 c 0.18 -0.59 0.3 -0.68 0.83 -0.88 h 4.14 c 5.74 0 5.34 -0.3 5.39 4 c 0.04 2.9 0.04 2.96 0.31 3.21 c 0.26 0.24 0.4 0.25 3.22 0.28 c 2.56 0.03 3 0.06 3.34 0.24 c 0.83 0.44 0.82 0.38 0.82 4.98 v 4.15 c -0.58 0.74 -0.92 0.67 -1.35 0.72 c -0.69 0.09 -13.95 0.1 -15.28 0.02 m 15.38 -1.92 l -0.05 -3.18 c -0.05 -3 -0.07 -3.19 -0.3 -3.42 c -0.24 -0.23 -0.37 -0.24 -3.31 -0.23 c -3.27 0.02 -3.44 -0.01 -3.87 -0.57 c -0.2 -0.27 -0.23 -0.59 -0.27 -3.39 c -0.04 -2.9 -0.05 -3.11 -0.28 -3.32 c -0.23 -0.22 -0.41 -0.24 -3.54 -0.25 c -3.13 -0.01 -3.31 0 -3.53 0.22 c -0.23 0.23 -0.24 0.43 -0.25 7.21 v 6.98 c 0.18 0.3 0.23 0.36 0.54 0.54 h 14.24 c 0.36 -0.13 0.51 -0.27 0.61 -0.6" style="fill:#fff"/></svg>