<svg xmlns="http://www.w3.org/2000/svg" viewBox="0 0 32 32"><path d="m 24.48 3.42 c -16.36 -11.46 -32.95 9.7 -19.61 23.2 c 12.56 12.71 32.1 0.93 25.99 -14.9 c -1.27 -3.3 -3.36 -6.2 -6.37 -8.3" style="fill:#ff8c00"/><path d="m 12.27 24.87 c -2.09 -1.02 -3.88 -2.55 -5.14 -4.39 c -1.34 -2.46 -1.73 -5.93 -0.72 -7.88 c 1.07 -2 2.59 -3.47 4.54 -4.34 c 1.96 -0.87 4.77 -1.02 5.18 -0.27 c 0.36 0.66 0.15 0.79 -1.53 0.98 c -8.3 0.98 -9.55 10.57 -1.87 14.32 c 2.75 1.21 6.2 1.29 8.3 0.12 c 2.02 -1.15 3.43 -3.08 3.66 -5 c 0.14 -1.24 0.32 -1.6 0.77 -1.52 c 0.89 0.15 1.22 2.41 0.56 3.86 c -0.63 1.39 -2.69 3.43 -4.41 4.38 c -2.69 1.05 -6.93 0.93 -9.35 -0.24" style="fill:#fff"/></svg>