<svg xmlns="http://www.w3.org/2000/svg" viewBox="0 0 32 32"><path d="m 15.8 0.39 c 20.99 -2.4 21.35 31.99 0.23 31.59 c -19.62 1.14 -22.1 -33.45 -0.23 -31.59" style="fill:#ff8c00"/><g style="fill:#fff"><path d="m 7 13.78 c -0.32 -0.14 -0.36 -0.28 -0.38 -1.18 c -0.02 -1 0.05 -1.32 0.54 -2.45 c 0.45 -1.04 0.54 -1.29 0.66 -1.98 c 0.07 -0.73 0.53 -1.34 1.19 -1.65 c 0.41 -0.11 0.99 -0.29 1.34 0.01 c 0.48 0.63 0.66 1.36 0.99 2.04 c 0.58 1.14 0.57 2.34 1.11 3.36 c 0.3 0.5 0.4 1.32 -0.13 1.68 c -0.32 0.2 -1.09 0 -1.54 -0.39 c -0.36 -0.36 -0.36 -0.87 -0.71 -1.12 c -0.29 -0.21 -0.71 -0.3 -1 -0.21 c -0.39 0.12 -0.58 0.37 -0.7 0.99 c -0.06 0.29 -0.27 0.66 -0.47 0.81 c -0.28 0.13 -0.64 0.21 -0.89 0.11 m 2.82 -3.43 c 0.21 -0.11 0.37 -0.42 0.37 -0.75 c 0 -0.64 -0.53 -1.02 -1.05 -0.75 c -0.48 0.24 -0.48 1.2 -0.01 1.49 c 0.23 0.07 0.5 0.1 0.7 0.01"/><path d="m 9.58 25.1 c -0.69 -0.98 -1.98 -1.92 -2.2 -3.16 c -0.06 -0.41 0.05 -0.48 0.82 -0.61 c 0.45 -0.07 0.68 -0.02 0.98 -0.27 v -2.06 c 0 -2.75 0.08 -3.39 0.46 -3.68 c 0.11 -0.08 0.2 -0.11 0.26 -0.09 c 0.15 0.05 0.43 0.39 0.48 0.6 c 0.09 0.3 0.14 1.17 0.17 2.81 c 0.04 2.07 0.09 2.42 0.34 2.54 c 0.06 0.03 0.31 0.05 0.56 0.05 c 0.56 0 0.76 0.05 0.95 0.27 c 0.34 0.4 0.3 0.59 -0.25 1.3 c -0.58 0.63 -1.48 2.37 -2.22 2.39 c -0.13 -0.01 -0.26 -0.05 -0.35 -0.11"/><path d="m 14.98 23.8 c -1.16 -1.54 -1.34 -1.91 -1.05 -2.25 c 0.48 -0.35 1.09 -0.19 1.49 -0.56 c 0.41 -0.35 0.21 -1.03 0.21 -1.53 c 0 -2.82 0.2 -6.89 0.39 -8.16 c 0.09 -0.58 0.28 -0.82 0.42 -0.53 c 0.24 0.52 0.44 3.11 0.54 6.92 c 0.07 3 0.09 3.2 0.29 3.41 c 0.48 0.24 1.22 -0.04 1.6 0.39 c 0.32 0.38 0.27 0.6 -0.28 1.29 c -0.59 0.64 -1.47 2.36 -2.23 2.39 c -0.62 -0.2 -1 -0.88 -1.38 -1.37"/><path d="m 22.45 25 c -0.67 -0.91 -2 -2 -2.19 -3.11 c -0.03 -0.19 -0.01 -0.24 0.09 -0.37 c 0.62 -0.34 1.16 -0.02 1.68 -0.49 l 0.04 -2.47 c 0.06 -4.14 0.27 -7.3 0.51 -7.78 c 0.12 -0.25 0.2 -0.25 0.3 0 c 0.25 0.57 0.43 3.1 0.53 7.13 c 0.05 2.34 0.09 2.89 0.22 3.09 c 0.09 0.14 0.14 0.16 0.77 0.19 c 0.84 0.05 1.18 0.25 1.17 0.71 c -0.3 0.77 -1.75 2.61 -2.37 3.11 c -0.25 0.18 -0.53 0.19 -0.75 0"/></g></svg>