<svg xmlns="http://www.w3.org/2000/svg" viewBox="0 0 32 32"><path d="m 0.19 18.58 c 0.34 -4.34 2.97 -10 6.27 -13.5 c 2.61 -2.77 4.96 -4.16 7.89 -4.68 c 4.1 -0.73 7.56 0.8 10.92 4.84 c 3.77 4.73 7.53 11.54 6.09 16.62 c -0.58 2 -1.33 3.38 -2.63 4.78 c -2.66 2.86 -6.69 4.65 -11.48 5.09 c -2.71 0.25 -4.88 0.07 -7.49 -0.62 c -4.43 -1.19 -7.49 -3.7 -8.93 -7.31 c -0.45 -1.14 -0.75 -3.64 -0.63 -5.22" style="fill:#fd8b01"/><g style="fill:#fff"><path d="m 7.91 25.63 c 0.07 -0.23 0.25 -1.06 0.4 -1.84 c 0.36 -1.81 1.37 -3.91 1.98 -4.11 c 0.33 -0.11 0.63 0.03 0.98 0.45 c 0.59 0.69 2.12 5.29 1.89 5.66 c -0.25 0.42 -1.04 0.28 -1.31 -0.23 c -0.36 -0.68 -1.28 -1.23 -1.75 -1.05 c -0.68 0.42 -0.94 1.52 -1.71 1.53 c -0.46 0 -0.57 -0.1 -0.48 -0.42 m 3.22 -2.91 c 0.34 -0.64 0.05 -1.25 -0.55 -1.16 c -1.01 0.61 -0.14 2.45 0.55 1.16"/><path d="m 14.73 25.3 c -0.14 -0.41 -0.26 -1.65 -0.26 -2.75 c 0 -1.68 0.08 -2.07 0.48 -2.48 c 0.66 -0.67 1.8 -0.61 2.79 0.15 c 0.76 0.59 1.21 0.84 0.7 1.68 c -0.42 0.7 -0.02 1.11 0.09 1.18 c 0.12 0.07 0.21 0.5 0.21 0.94 c 0 1.14 -1.17 2.03 -2.67 2.03 c -1 0 -1.1 -0.06 -1.34 -0.75 m 2.46 -1.28 c 0 -0.53 -0.74 -0.79 -1.12 -0.4 c -0.4 0.4 -0.36 1.1 0.23 1.01 c 0.35 -0.05 0.89 -0.3 0.89 -0.61 m -0.22 -2.11 c 0.05 -0.33 -0.23 -0.88 -0.46 -0.88 c -0.39 0 -0.61 0.45 -0.45 0.91 c 0.17 0.46 0.82 0.57 0.9 -0.03"/><path d="m 21.1 25.34 c -0.97 -0.65 -1.49 -1.7 -1.45 -2.93 c 0.04 -1.15 0.54 -1.83 1.77 -2.43 c 1.22 -0.6 1.9 -0.64 2.31 -0.15 c 0.41 0.49 -0.09 1.07 -0.92 1.08 c -1.02 0.01 -1.79 0.77 -1.79 1.77 c 0 1.09 0.48 1.57 1.73 1.74 c 0.91 0.13 0.99 0.19 0.92 0.76 c -0.06 0.53 -0.2 0.63 -0.9 0.68 c -0.64 -0.03 -1.25 -0.23 -1.68 -0.52"/><path d="m 13.56 11 c -0.24 -0.15 -0.15 -0.67 0.41 -2.42 c 0.91 -2.84 1.25 -3.35 2.16 -3.35 c 0.63 0 0.77 0.14 1.2 1.13 c 1.02 2.38 1.58 4.32 1.32 4.59 c -0.41 0.41 -0.8 0.3 -1.66 -0.46 c -0.45 -0.39 -0.91 -0.71 -1.04 -0.71 c -0.13 0 -0.51 0.32 -0.86 0.71 c -0.65 0.74 -1 0.86 -1.53 0.52 m 2.9 -2.56 c 0.47 -0.48 0.47 -0.69 -0.01 -1.17 c -0.29 -0.3 -0.46 -0.32 -0.71 -0.11 c -0.41 0.34 -0.43 0.98 -0.05 1.36 c 0.36 0.36 0.32 0.36 0.77 -0.09"/><path d="m 19.61 15.89 c -0.79 -1.4 -0.92 -2.88 -0.28 -2.97 c 0.33 -0.05 0.52 0.19 1.03 1.31 c 1.11 2.42 0.46 3.83 -0.75 1.66"/><path d="m 15.64 16.75 c -0.52 -0.74 -0.33 -3.74 0.24 -3.96 c 0.16 -0.07 0.44 0.02 0.6 0.19 c 0.41 0.41 0.44 3.41 0.04 3.88 c -0.35 0.43 -0.52 0.41 -0.89 -0.11"/><path d="m 10.89 16.63 c -0.24 -0.44 -0.07 -1.09 0.68 -2.63 c 0.43 -0.88 0.64 -1.12 0.95 -1.07 c 0.65 0.09 0.59 1 -0.16 2.62 c -0.7 1.48 -1.1 1.77 -1.46 1.08"/></g></svg>