<svg xmlns="http://www.w3.org/2000/svg" viewBox="0 0 32 32"><path d="m 2.87 23.52 c -8.56 -11.53 5.13 -25.59 16.2 -23.2 c 10.87 1.43 17.43 18.1 9 26.56 c -6.14 6.09 -16.64 8.13 -25.2 -3.4" style="fill:#ff8c00"/><g style="fill:#fff"><path d="m 8.59 8.43 h 5.51 v 5.48 h -5.51"/><path d="m 14.79 9.58 h 4.18 v 4.23 h -4.18"/><path d="m 19.95 9.58 h 4.18 v 4.23 h -4.18"/><path d="m 19.98 14.52 h 4.18 v 4.23 h -4.18"/></g><path d="m 14.81 14.58 h 4.18 v 4.23 h -4.18" style="fill:#ffdeac"/><g style="fill:#fff"><path d="m 9.76 14.61 h 4.18 v 4.23 h -4.18"/><path d="m 9.7 19.86 h 4.18 v 4.23 h -4.18"/><path d="m 14.8 19.81 h 4.18 v 4.23 h -4.18"/><path d="m 19.95 19.79 h 4.18 v 4.23 h -4.18"/></g></svg>