<svg xmlns="http://www.w3.org/2000/svg" viewBox="0 0 32 32"><path d="m 28.52 10.5 c 1.51 1.95 3 5.61 3.21 7.79 c 0.28 3.16 -0.81 6.77 -2.68 8.93 c -2.5 2.89 -7.55 4.78 -12.59 4.7 c -3.61 -0.05 -8.46 -1.18 -10.93 -2.54 c -2.1 -1.15 -3.6 -2.84 -4.42 -4.96 c -1.11 -2.88 -1.16 -5.69 -0.14 -8.48 c 1.66 -5.95 5.41 -9.95 8.77 -13.1 c 8.54 -7.12 14.18 1.63 18.78 7.68" style="fill:#ff8c00"/><path d="m 23.72 22.48 c 0 -0.25 -7.43 -16.33 -7.54 -16.32 c -0.07 0 -4.07 7.97 -6.23 12.41 l -1.77 3.63 l 3.82 3.71 c 0.24 0.24 11.71 -3.35 11.71 -3.44" style="fill:#fff"/></svg>