<svg xmlns="http://www.w3.org/2000/svg" viewBox="0 0 32 32"><path d="m 30.43 10.17 c 11.93 38.57 -52.1 19.29 -22.2 -7.15 c 6 -5.29 18.96 -3.26 22.2 7.15" style="fill:#ff8c00"/><g style="fill:#fff"><path d="m 10.58 7.53 h 7.53 c 0.93 0 1.68 0.75 1.68 1.68 v 7.45 c 0 0.93 -0.75 1.68 -1.68 1.68 h -7.53 c -0.92 0 -1.67 -0.75 -1.67 -1.68 v -7.45 c 0 -0.93 0.75 -1.68 1.67 -1.68"/><path d="m 26.96 21.44 c 0 3.04 -2.39 5.49 -5.34 5.49 c -2.95 0 -5.34 -2.46 -5.34 -5.49 c 0 -3 2.39 -5.49 5.34 -5.49 c 2.95 0 5.34 2.46 5.34 5.49"/></g><g style="fill:#ff8c00"><path d="m 24.79 21.46 c 0 1.78 -1.45 3.23 -3.23 3.23 c -1.79 0 -3.23 -1.45 -3.23 -3.23 c 0 -1.78 1.45 -3.23 3.23 -3.23 c 1.79 0 3.23 1.45 3.23 3.23"/><path d="m 13.1 17.1 c -1.11 -1.5 -3.45 -2.61 -2.88 -3.18 c 0.08 -0.38 0.93 -0.96 1.11 -1.12 c 0.66 -0.69 1.35 1.47 1.87 1.14 c 1.19 -1.38 2.18 -3.59 2.89 -5.08 c 1.58 0.35 2.44 1.51 2.29 2.25 c -1.36 2.08 -2.8 3.56 -4.4 5.41 c -0.22 0.26 -0.49 0.51 -0.58 0.55 c -0.12 0.07 -0.2 0.07 -0.32 0.04"/></g><path d="m 12.47 25.88 c -0.22 -0.2 -0.22 -0.2 -0.28 -0.86 c -0.07 -0.76 -0.16 -0.97 -0.52 -1.13 c -0.2 -0.09 -0.32 -0.09 -1.36 -0.03 c -1.11 0.14 -1.13 0.09 -1.82 -0.57 v -1.26 c 0.02 -2 0.09 -2.39 0.53 -2.59 c 0.28 -0.07 0.66 0 0.82 0.29 c 0.26 0.73 -0.17 1.64 0.23 2.31 c 0.3 0.47 1.02 0.68 1.49 0.42 c 0.3 -0.16 0.6 -0.57 0.73 -1.02 c 0.25 -0.84 0.77 -0.83 1.8 0.06 c 0.26 0.22 0.69 0.56 0.95 0.74 c 0.73 0.52 1 1 0.77 1.41 c -0.17 0.31 -1.95 1.91 -2.51 2.24 c -0.36 0.17 -0.64 0.15 -0.84 -0.02" style="fill:#fff"/></svg>