<svg xmlns="http://www.w3.org/2000/svg" viewBox="0 0 32 32"><path d="m 7.52 3.29 c 16.36 -11.5 32.95 9.74 19.61 23.3 c -12.56 12.78 -32.1 0.93 -25.99 -14.96 c 1.27 -3.32 3.37 -6.23 6.37 -8.34" style="fill:#acd7e5"/><path d="m 8.29 22.5 c -0.43 -0.55 -0.53 -1.27 -0.18 -1.91 c 0.75 -1.64 5 -2.99 4.99 -4.75 c -0.03 -0.13 -0.76 -1.43 -1.63 -2.89 c -2.14 -3.6 -2.17 -3.69 -1.73 -4.57 c 0.43 -0.86 0.47 -0.85 6.77 0.4 c 3.63 0.73 5.84 1.23 6 1.38 c 0.39 0.31 0.46 0.75 0.38 2.34 c -0.15 2.66 0.05 2.92 -0.73 3.13 c -1.71 -1.94 -3 -2.74 -5.34 -2.51 c -0.15 0.71 -0.01 1.55 0.27 2 c 1.21 2 1.33 1.65 -0.44 3.18 c -0.31 0.27 -1 1.35 -1 1.4 c 0.83 0.32 2 0.78 2.95 0.96 c 2.23 -1.79 3.41 -1.31 3.11 1.03 c -0.3 2.27 -0.41 2.7 -0.8 3.07 c -3.43 -0.73 -9.67 -1.79 -12.63 -2.29" style="fill:#63c8f6"/><path d="m 14.1 24 c -3.28 -0.62 -6.11 -1.19 -6.28 -1.28 c -0.41 -0.2 -0.73 -1.08 -0.57 -1.56 c 0.16 -0.49 0.66 -0.95 3.4 -3.14 c 1.3 -1.05 2.39 -1.98 2.43 -2.07 c 0.04 -0.1 -0.83 -1.58 -1.93 -3.3 c -1.09 -1.72 -2.02 -3.29 -2.07 -3.49 c -0.18 -0.81 0.42 -1.6 1.22 -1.6 c 0.89 0 12.55 2.27 12.87 2.51 c 0.6 0.45 0.64 0.79 0.33 3 c -0.33 2.35 -0.51 2.86 -1.11 3.09 c -0.61 0.24 -1.13 -0.11 -1.89 -1.25 l -0.63 -0.96 c -0.96 -0.02 -2.12 -0.65 -3.07 -0.44 c -0.05 0.05 0.23 0.6 0.61 1.21 c 0.38 0.62 0.75 1.3 0.82 1.52 c 0.23 0.68 -0.11 1.28 -1.25 2.19 c -0.99 0.79 -1.14 0.98 -0.93 1.13 c 1.03 0.27 1.83 0.4 2.94 0.61 l 0.9 -0.73 c 1.09 -0.88 1.7 -0.96 2.2 -0.32 c 0.38 0.5 0.39 0.95 0.04 3.33 c -0.25 1.66 -0.31 1.88 -0.67 2.25 c -0.3 0.31 -0.53 0.41 -0.9 0.41 c -0.27 -0.01 -3.18 -0.52 -6.46 -1.14 m 6.52 -0.4 c 0.14 -0.24 0.56 -3 0.48 -3.19 c -0.04 -0.06 -0.45 0.2 -0.93 0.58 l -0.86 0.7 l -2.98 -0.54 c -3.53 -0.64 -3.59 -0.66 -3.59 -0.84 c 0 -0.08 0.93 -0.9 2.07 -1.82 c 1.14 -0.93 2.1 -1.74 2.14 -1.8 c 0.04 -0.07 -0.59 -1.17 -1.4 -2.44 c -1.31 -2.07 -1.64 -2.73 -1.39 -2.73 c 0.11 0 5.66 1.04 6.12 1.15 c 0.25 0.06 0.54 0.36 0.93 0.99 c 0.31 0.5 0.63 0.88 0.7 0.85 c 0.22 -0.09 0.62 -3 0.43 -3.23 c -0.09 -0.09 -0.82 -0.29 -1.63 -0.43 c -0.82 -0.14 -3.31 -0.6 -5.56 -1.01 c -4.9 -0.9 -4.63 -0.86 -4.6 -0.64 c 0.02 0.1 0.97 1.66 2.11 3.48 c 1.14 1.81 2.08 3.41 2.08 3.54 c 0 0.14 -0.83 0.91 -1.97 1.84 c -3.38 2.73 -4.1 3.36 -4 3.45 c 0.06 0.06 9.6 1.95 11.64 2.31 c 0.05 0.01 0.14 -0.07 0.2 -0.18" style="fill:#4c6072"/></svg>