<svg xmlns="http://www.w3.org/2000/svg" viewBox="0 0 32 32"><path d="m 2.79 23.55 c -8.61 -11.5 5.16 -25.53 16.26 -23.1 c 10.93 1.43 17.52 18.1 9.1 26.49 c -6.18 6.07 -16.73 8.11 -25.34 -3.39" style="fill:#ff8c00"/><path d="m 7.71 23.85 c -0.73 -0.34 -0.71 -0.08 -0.71 -7 c 0 -6.77 -0.02 -6.61 0.59 -6.98 c 0.36 -0.22 1.2 -0.23 1.56 -0.01 c 0.39 0.24 0.37 0.64 -0.05 0.98 c -0.18 0.14 -0.39 0.32 -0.46 0.41 c -0.21 0.22 -0.21 11.1 0 11.25 c 0.21 0.2 15.26 0.2 15.47 0 c 0.12 -0.11 0.14 -1.08 0.14 -5.62 c 0 -5.4 0 -5.49 -0.21 -5.68 c -0.2 -0.18 -0.3 -0.19 -2.33 -0.16 c -1.82 0.02 -2.16 0.01 -2.37 -0.12 c -0.42 -0.25 -0.3 -0.91 0.21 -1.14 c 0.13 -0.05 1.2 -0.07 2.86 -0.04 l 2.66 0.05 l 0.29 0.3 l 0.3 0.3 v 6.39 c 0 7.1 0.02 6.78 -0.64 7.1 c -0.31 0.14 -1.18 0.15 -8.65 0.15 c -7.7 0 -8.33 -0.01 -8.66 -0.16 m 2.76 -10.97 c -0.24 -0.19 -0.28 -0.29 -0.28 -0.74 c -0.01 -0.51 0.01 -0.54 0.47 -0.95 c 0.78 -0.69 0.78 -1.46 0 -1.94 c -0.31 -0.2 -0.44 -0.34 -0.49 -0.58 c -0.2 -1 0.82 -1.63 1.62 -0.65 c 0.58 0.72 0.31 0.95 0.96 0.07 c 0.18 -0.24 0.53 -0.26 1.14 -0.37 c 1.63 -0.29 1.86 -0.16 2.15 0.37 c 0.3 0.55 0.47 0.57 1.09 0.07 c 0.65 -0.52 1.32 -0.6 1.8 -0.21 c 0.25 0.2 0.22 0.46 -0.11 0.85 c -0.16 0.19 -0.51 0.65 -0.78 1.04 c -0.48 0.68 -0.49 0.72 -0.55 1.59 c -0.06 1.01 -0.18 1.27 -0.66 1.45 c -0.78 0.3 -1.29 -0.14 -1.24 -1.63 c 0.04 -1.45 -0.53 -1.41 -0.81 -1.95 c -1.02 -1.95 0.04 -1.28 -0.96 0.41 c -0.21 0.37 -0.1 0.52 0.11 1.09 c 0.13 0.35 0.38 0.83 0.54 1.07 c 0.36 0.5 0.38 0.7 0.1 0.95 c -0.3 0.29 -0.7 0.23 -1.27 -0.17 c -0.28 -0.2 -0.63 -0.64 -0.8 -0.7 c -0.38 -0.15 -0.57 0.16 -0.86 0.69 c -0.17 0.31 -0.42 0.46 -0.77 0.46 c -0.07 0 -0.25 -0.1 -0.4 -0.22" style="fill:#fff"/></svg>