<svg xmlns="http://www.w3.org/2000/svg" viewBox="0 0 32 32"><path d="m 16.3 31.82 c -3.3 -0.25 -7.16 -1.83 -9.85 -4 c -3.27 -2.66 -5.68 -6.75 -6.31 -10.78 c -0.77 -5.32 2.32 -11 5.81 -13.75 c 1.75 -1.32 4.07 -2.37 6.25 -2.83 c 5.66 -1.2 11.57 1.07 15.63 6 c 2.43 2.95 3.68 5.93 3.99 9.45 c 0.37 4.22 -1.3 8.75 -4.35 11.8 c -3.47 2.88 -7 4.43 -11.15 4.14" style="fill:#ff8c00"/><g style="fill:#fff"><path d="m 6.32 12.55 h 3.28 v 9.4 h -3.28"/><path d="m 10.59 7.88 h 3.28 v 14.1 h -3.28"/><path d="m 14.77 14.54 h 3.28 v 7.41 h -3.28"/><path d="m 21.29 15.84 h 6.81 v 0.85 h -6.81"/><path d="m 21.34 17.78 h 6.86 v 0.84 h -6.86"/><path d="m 21.34 19.62 h 6.76 v 0.84 h -6.76"/></g></svg>