<svg xmlns="http://www.w3.org/2000/svg" xmlns:xlink="http://www.w3.org/1999/xlink" viewBox="0 0 32 32"><defs><g id="3" style="clip-path:url(#2)"><path d="m 8.76 9.33 c 4.58 -0.09 9.67 0.22 14.69 0.21 c 1.52 2.08 1.59 10.54 -0.27 13.37 c -3.34 0.89 -11.25 -0.01 -14.8 0.01 c -1.64 -3.41 -1.88 -11.22 0.38 -13.59" style="fill:#fff"/></g><clipPath id="2"><path d="M 0,0 H32 V32 H0 z"/></clipPath><filter id="0" filterUnits="objectBoundingBox" x="0" y="0" width="32" height="32"><feColorMatrix type="matrix" in="SourceGraphic" values="0 0 0 0 1 0 0 0 0 1 0 0 0 0 1 0 0 0 1 0"/></filter><mask id="1"><g style="filter:url(#0)"><path d="M 0,0 H32 V32 H0 z" style="fill-opacity:0.5"/></g></mask></defs><path d="m 6.91 3.41 c 15.8 -11.43 33.43 9.67 20.75 23.1 c -11.94 12.67 -32 0.92 -26.71 -14.86 c 1.11 -3.29 3.06 -6.18 5.96 -8.27" style="fill:#ff8c00"/><path d="m 8.93 24.47 c -0.9 -0.23 -2.26 -2 -2.47 -3 c -0.06 -0.3 -0.1 -2.47 -0.1 -5.29 c 0 -5.81 -0.05 -5.55 1.05 -6.91 c 1.27 -1.58 0.6 -1.45 7.95 -1.5 c 7.15 -0.04 7.32 -0.03 8 0.68 c 0.84 0.84 1.5 1.75 1.66 2.31 c 0.09 0.32 0.12 1.63 0.12 5.42 c 0 2.75 -0.03 5.19 -0.07 5.42 c -0.42 0.89 -1.38 2.34 -2.16 2.82 c -0.3 0.17 -13.22 0.22 -14 0.06 m 13.36 -1.98 c 0.43 -0.54 0.92 -0.93 1.2 -1.59 c 0.14 -0.34 0.15 -9 0.01 -9.48 c -0.54 -0.57 -0.92 -1.16 -1.41 -1.71 h -6.34 c -4.16 0 -6.4 0.04 -6.52 0.12 c -0.3 0.6 -1.16 1.39 -1.26 1.75 c -0.11 0.5 -0.12 8.22 -0.01 8.94 c 0.32 0.96 0.82 1.42 1.33 2.12 h 6.39 c 1.95 -0.07 6.36 -0.02 6.6 -0.14" style="fill:#fff"/><use xlink:href="#3" style="mask:url(#1)"/></svg>