<svg xmlns="http://www.w3.org/2000/svg" viewBox="0 0 32 32"><path d="m 0.37 19.65 c 1.98 12.91 19.61 16.38 27.39 7.15 c 6.85 -6.85 5.15 -19.96 -3.26 -24.46 c -9.65 -6 -23.71 1.42 -24.48 13.4 c -0.08 1.31 0.04 2.64 0.35 3.91" style="fill:#ff8c00"/><path d="m 25.51 16.35 c 0 5.33 -4.24 9.66 -9.48 9.66 c -5.24 0 -9.48 -4.32 -9.48 -9.66 c 0 -5.34 4.24 -9.66 9.48 -9.66 c 5.23 0 9.48 4.32 9.48 9.66" style="fill:#fff"/><path d="m 23.1 16.37 c 0 3.97 -3.21 7.2 -7.17 7.2 c -3.96 0 -7.16 -3.22 -7.16 -7.2 c 0 -3.97 3.21 -7.19 7.16 -7.19 c 3.96 0 7.17 3.22 7.17 7.19" style="fill:#ff8c00"/><path d="m 21.45 16.4 c 0 3.06 -2.45 5.54 -5.46 5.54 c -3 0 -5.46 -2.48 -5.46 -5.54 c 0 -3.06 2.45 -5.54 5.46 -5.54 c 3 0 5.46 2.48 5.46 5.54" style="fill:#fff"/></svg>