<svg xmlns="http://www.w3.org/2000/svg" viewBox="0 0 32 32"><path d="m 30.2 21.98 c 11.89 -38.57 -51.95 -19.29 -22.1 7.15 c 5.98 5.29 18.9 3.26 22.1 -7.15" style="fill:#ff8c00"/><path d="m 13.71 8.16 h 11.4 v 16.6 h -11.4" style="fill:#fff"/><path d="m 18.64 22.93 c 0.49 -0.19 0.58 -0.49 0.61 -2.2 l -0.03 -2.42 c -1.02 0 -2.3 0.29 -2.73 -0.28 c -0.45 -0.74 -0.15 -1.17 0.64 -1.42 c 0.86 -0.08 1.28 -0.01 2.2 -0.01 l -0.07 -1.95 c -0.01 -2.38 -0.07 -2.45 -2.47 -2.45 h -1.52 v -0.88 c -1.89 -7.71 -9.51 10.18 -3 11.7 c 1.04 0.06 1.64 0.08 6.37 -0.1" style="fill:#ff8c00"/><path d="m 17.5 22.1 c 0.45 -0.16 0.52 -0.43 0.55 -1.93 l 0.03 -1.39 h -0.84 c -1 0 -1.36 -0.14 -1.67 -0.63 c -0.4 -0.65 -0.17 -1.5 0.52 -1.85 c 0.28 -0.14 0.49 -0.18 1.16 -0.18 h 0.82 v -1.27 c -0.01 -2.08 -0.07 -2.14 -2.22 -2.14 h -1.37 v -0.77 c 0 -0.64 -0.04 -0.84 -0.2 -1.14 c -0.49 -0.88 -1.71 -0.88 -2.2 0 c -0.16 0.3 -0.2 0.5 -0.2 1.14 v 0.77 h -1.42 c -2.13 0 -2.18 0.05 -2.18 2.22 v 1.27 h -0.83 c -0.67 0 -0.89 0.03 -1.13 0.16 c -0.87 0.49 -0.87 1.67 0 2.16 c 0.23 0.13 0.45 0.16 1.12 0.16 h 0.82 l 0.03 1.44 c 0.04 1.57 0.11 1.8 0.58 1.97 c 0.13 0.04 0.83 0.08 1.57 0.08 h 1.34 v -0.78 c 0 -0.65 0.04 -0.84 0.2 -1.13 c 0.51 -0.89 1.87 -0.89 2.38 0 c 0.17 0.3 0.2 0.48 0.2 1.13 v 0.78 h 1.37 c 0.75 0 1.46 -0.04 1.57 -0.08" style="fill:#fff"/></svg>