<svg xmlns="http://www.w3.org/2000/svg" viewBox="0 0 32 32"><path d="m 0.34 16.1 c -2.39 -21.1 31.89 -20.81 31.49 0.38 c 1.14 19.71 -33.3 21.49 -31.49 -0.38" style="fill:#ff8c00"/><path d="m 5.26 12.2 h 21.67 v 9.5 h -21.67" style="fill:#fff"/><g style="fill:#ff8c00"><path d="m 17.65 20.47 c -0.37 -0.05 -0.55 -0.12 -0.94 -0.32 c -0.32 -0.16 -0.96 -0.73 -0.93 -0.82 c 0.01 -0.03 0.21 -0.29 0.46 -0.59 l 0.45 -0.55 l 0.25 0.23 c 0.36 0.34 0.69 0.5 1.07 0.5 c 0.49 0.01 0.75 -0.24 0.75 -0.71 c 0 -0.51 -0.27 -0.7 -1.05 -0.73 l -0.51 -0.02 l -0.1 -0.43 c -0.05 -0.23 -0.1 -0.45 -0.1 -0.48 c 0 -0.03 0.29 -0.36 0.64 -0.74 l 0.63 -0.69 l -1.09 -0.02 l -1.09 -0.01 v -1.47 h 4 v 1.3 l -0.66 0.68 c -0.37 0.37 -0.66 0.69 -0.66 0.71 c 0 0.02 0.1 0.08 0.23 0.13 c 0.75 0.27 1.19 0.93 1.19 1.8 c 0 0.7 -0.21 1.25 -0.66 1.67 c -0.33 0.31 -0.66 0.48 -1.09 0.55 c -0.35 0.06 -0.43 0.06 -0.83 0"/><path d="m 8.55 17.84 c 0 -2 -0.01 -2.54 -0.06 -2.54 c -0.04 0 -0.24 0.05 -0.46 0.12 c -0.27 0.08 -0.41 0.1 -0.43 0.07 c -0.04 -0.06 -0.29 -1.33 -0.27 -1.35 c 0.01 -0.01 0.36 -0.13 0.79 -0.28 c 0.77 -0.27 0.78 -0.27 1.34 -0.27 h 0.57 v 6.79 h -1.47"/><path d="m 10.88 19.68 v -0.7 l 1.16 -1.07 c 1.46 -1.35 1.63 -1.57 1.63 -2.11 c 0 -0.43 -0.25 -0.7 -0.63 -0.7 c -0.32 0 -0.62 0.21 -1.02 0.71 l -0.1 0.12 l -0.5 -0.5 l -0.5 -0.5 l 0.17 -0.25 c 0.09 -0.14 0.29 -0.38 0.45 -0.53 c 1 -1 2.74 -0.82 3.38 0.36 c 0.39 0.71 0.36 1.77 -0.06 2.46 c -0.18 0.3 -0.74 0.86 -1.44 1.46 l -0.47 0.4 l 2.3 0.02 v 1.52 h -4.37"/></g></svg>