<svg xmlns="http://www.w3.org/2000/svg" xmlns:xlink="http://www.w3.org/1999/xlink" viewBox="0 0 32 32"><defs><g id="3" style="clip-path:url(#2)"><path d="m 15.1 25.51 c -0.08 -0.01 -0.79 0.26 -1.02 0.23 c -3.92 -0.5 -7.1 -3.66 -8.1 -7 c -0.96 -3.35 0.59 -7.24 4 -9.39 c 0.91 -0.59 4.87 -1.82 5.88 -1.21 c 1.18 3.12 0.71 6 0.63 9.14 c 3.68 0.26 6.1 -0.27 9.17 0 l 0.12 0.88 c 0.34 2.52 -2.9 5.39 -5.53 6.79 c -1.7 0.69 -3.34 0.79 -5.23 0.58" style="fill:#fff"/></g><clipPath id="2"><path d="M 0,0 H32 V32 H0 z"/></clipPath><filter id="0" filterUnits="objectBoundingBox" x="0" y="0" width="32" height="32"><feColorMatrix type="matrix" in="SourceGraphic" values="0 0 0 0 1 0 0 0 0 1 0 0 0 0 1 0 0 0 1 0"/></filter><mask id="1"><g style="filter:url(#0)"><path d="M 0,0 H32 V32 H0 z" style="fill-opacity:0.5"/></g></mask></defs><path d="m 24.48 3.23 c -16.36 -11.1 -32.95 10.45 -19.61 23.65 c 12.56 12.42 32.1 0.19 25.99 -15.5 c -1.27 -3.27 -3.36 -6.12 -6.37 -8.15" style="fill:#ff8c00"/><use xlink:href="#3" style="mask:url(#1)"/><path d="m 14.72 26.1 c -3.76 -0.39 -6.6 -2.1 -8.47 -5.07 c -1.36 -2.72 -1.63 -6.09 -0.18 -8.28 c 1.88 -2.81 5.29 -4.67 9.1 -4.95 c 1.68 -0.13 2.65 -0.15 2.8 0.18 c 0.11 0.24 0.11 2 0.21 4.11 l 0.18 4 c 2.93 0.21 5.65 0.05 8.75 -0.01 l 0.13 1.75 c -1.75 4.97 -4.45 8.15 -12.52 8.25 m 5.18 -1.86 c 2.79 -1.05 5.53 -4 5.89 -6.76 c -2.16 -0.3 -5.15 0.02 -9.27 0.03 c 0.12 -2.44 0.33 -8.73 -0.9 -8.72 c -1.32 -0.27 -4.18 0.71 -6 2.07 c -3.21 2.39 -4.17 6 -2.41 9.1 c 2.45 3.97 7.82 5.9 12.69 4.32" style="fill:#fff"/></svg>