<svg xmlns="http://www.w3.org/2000/svg" viewBox="0 0 32 32"><path d="m 12.13 31.52 c -16.23 -2.46 -15.89 -26.95 0.08 -30.64 c 12.96 -3.81 22.99 9.99 18.44 20.3 c -2.22 6.91 -10.54 12.5 -18.53 10.35" style="fill:#ff8c00"/><g style="fill:#fff"><path d="m 13.61 20.3 c -1.14 -0.21 -1.21 -0.04 -1.32 -2.24 c -0.08 -1.61 -0.04 -1.8 0.17 -2.07 c 0.42 -0.52 1.05 -0.39 3.87 -0.34 c 2 0.04 3.06 0.09 3.86 -0.27 c 0.6 -0.27 0.17 -1.68 -0.05 -1.88 c -1.8 -0.66 -6.33 0 -7.38 -0.31 c -0.61 -0.84 -0.43 -1.47 -0.43 -2.05 c 0.01 -2.05 0.11 -2.58 1.32 -2.68 c 3.04 -0.03 5.74 -0.1 8.77 0.11 c 0.98 0.24 1.45 0.36 1.82 1.14 c 0.34 0.73 0.41 1.3 0.45 3.78 c 0.04 2.18 -0.03 3.81 -0.2 4.56 c -0.11 0.53 -0.41 1.02 -0.92 1.51 c -0.68 0.69 -7.72 0.87 -9.96 0.74 m 1.21 -0.99 c 0.21 -0.15 0.23 -1.16 0.22 -1.89 c 0 -0.93 -0.18 -0.91 -0.77 -0.97 c -0.34 -0.04 -0.88 -0.06 -1.02 0.38 c -0.15 0.45 -0.15 2.15 0 2.43 c -0.11 0.44 1.67 0.75 1.57 0.05 m -0.17 -6.77 c 0.35 -0.34 0.59 -2.2 0.41 -2.88 c -0.13 -0.46 -1.11 -0.24 -1.57 -0.21 c -0.48 0.09 -0.38 2.86 -0.11 3.05 c 0.31 0.22 1.09 0.22 1.28 0.04"/><g style="stroke-dasharray:8.79759 26.3928;stroke:#fff;stroke-linecap:round;stroke-width:8.8"><path d="m 73.1 51.3 c 0.03 0 0.06 3.16 0.06 7 v 157.8 c 0 3.88 -0.03 7 -0.06 7 c -0.03 0 -0.06 -3.13 -0.06 -7 v -157.8 c 0 -3.84 0.03 -7 0.06 -7" transform="scale(0.125)"/><path d="m 187.4 -205.9 c 0.03 0 0.03 3.16 0.03 7 v 157.9 c 0 3.84 0 7 -0.03 7 c -0.03 0 -0.06 -3.16 -0.06 -7 v -157.9 c 0 -3.84 0.03 -7 0.06 -7" transform="matrix(0 0.125 -0.125 0 0 0)"/></g></g></svg>