<svg xmlns="http://www.w3.org/2000/svg" viewBox="0 0 32 32"><g style="fill:#ff8c00"><path d="M 0.507812 19.648438 C 2.988281 32.5625 20.75 36.023438 28.167969 26.800781 C 34.757812 19.949219 32.554688 6.835938 23.96875 2.335938 C 14.085938 -3.675781 0.308594 3.757812 0.0078125 15.738281 C -0.0195312 17.046875 0.140625 18.375 0.503906 19.648438 Z M 0.507812 19.648438 "/><path d="M 59.381589 64.229 L 191.381589 64.229 L 191.381589 191.604 L 59.381589 191.604 Z M 59.381589 64.229 " transform="matrix(0.125 0 0 0.125 0.32 0.24)" style="stroke:#fff;stroke-linecap:round;stroke-width:8.3"/></g><g style="fill:#fff"><path d="M 7.65625 8.847656 L 8.238281 8.1875 L 24.082031 23.332031 L 23.496094 23.992188 Z M 7.65625 8.847656 "/><path d="M 24.082031 8.847656 L 23.496094 8.1875 L 7.65625 23.332031 L 8.238281 23.992188 Z M 24.082031 8.847656 "/><path d="M 15.703125 18.988281 C 15.703125 20.8125 14.246094 22.292969 12.453125 22.292969 C 10.65625 22.292969 9.199219 20.8125 9.199219 18.988281 C 9.199219 17.164062 10.65625 15.6875 12.453125 15.6875 C 14.246094 15.6875 15.703125 17.164062 15.703125 18.988281 Z M 15.703125 18.988281 "/><path d="M 16.464844 9.6875 L 22.109375 9.6875 L 22.109375 15.382812 L 16.464844 15.382812 Z M 16.464844 9.6875 "/><path d="M 15.960938 22.429688 L 17.65625 19.222656 L 19.410156 16.050781 L 21.125 19.246094 L 22.78125 22.476562 L 19.371094 22.488281 Z M 15.960938 22.429688 "/></g></svg>