<svg xmlns="http://www.w3.org/2000/svg" xmlns:xlink="http://www.w3.org/1999/xlink" viewBox="0 0 32 32"><defs><g id="3" style="clip-path:url(#2)"><path d="m 21.1 8.33 c 2.32 0 4.2 1.13 4.2 2.52 v 8.69 c 0 1.39 -1.88 2.52 -4.2 2.52 c -2.32 0 -4.2 -1.13 -4.2 -2.52 v -8.69 c 0 -1.39 1.88 -2.52 4.2 -2.52" style="fill:#fff"/><path d="m 25 10.67 c 0 1.07 -1.71 1.94 -3.82 1.94 c -2.11 0 -3.82 -0.87 -3.82 -1.94 c 0 -1.07 1.71 -1.94 3.82 -1.94 c 2.11 0 3.82 0.87 3.82 1.94" style="fill:#ffdeac"/><path d="m 5.48 21.77 c 0 -0.19 4.69 -12.88 4.76 -12.87 c 0.05 0 2.57 6.29 3.93 9.79 l 1.12 2.87 l -1.27 0.05 c -3.27 0.13 -8.54 0.23 -8.54 0.16" style="fill:#fff"/><path d="m 9.74 23.92 c -2.75 -0.15 -4.71 -1.27 -4.19 -2.4 c 1.72 -2.55 8 -3.89 9.81 0.17 c 0.1 0.49 -0.19 0.95 -0.85 1.35 c -1.07 0.65 -2.86 0.98 -4.77 0.88" style="fill:#fff"/></g><g id="6" style="clip-path:url(#5)"><path d="m 184.8 165.7 c 0 20.98 -16.76 37.99 -37.47 37.99 c -20.71 0 -37.5 -17 -37.5 -37.99 c 0 -20.98 16.8 -38 37.5 -38 c 20.71 0 37.47 17 37.47 38" transform="matrix(0.119 0 0 0.117 -0.57 1.53)" style="fill:#fff;stroke:#fff;stroke-linecap:round;stroke-width:6"/></g><clipPath id="2"><path d="M 0,0 H32 V32 H0 z"/></clipPath><clipPath id="5"><path d="M 0,0 H32 V32 H0 z"/></clipPath><filter id="0" filterUnits="objectBoundingBox" x="0" y="0" width="32" height="32"><feColorMatrix type="matrix" in="SourceGraphic" values="0 0 0 0 1 0 0 0 0 1 0 0 0 0 1 0 0 0 1 0"/></filter><mask id="4"><g style="filter:url(#0)"><path d="M 0,0 H32 V32 H0 z" style="fill-opacity:0.5"/></g></mask><mask id="1"><g style="filter:url(#0)"><path d="M 0,0 H32 V32 H0 z" style="fill-opacity:0.5"/></g></mask></defs><path d="m 31.79 18.65 c -0.13 -4.34 -2.46 -10 -5.57 -13.5 c -2.46 -2.77 -4.75 -4.16 -7.65 -4.68 c -4.06 -0.73 -7.61 0.8 -11.17 4.84 c -4 4.73 -8.13 11.54 -6.95 16.62 c 0.48 2 1.16 3.38 2.39 4.78 c 2.51 2.86 6.45 4.65 11.22 5.09 c 2.7 0.25 4.88 0.07 7.52 -0.62 c 4.49 -1.19 7.68 -3.7 9.3 -7.32 c 0.51 -1.14 0.95 -3.64 0.9 -5.22" style="fill:#fd8b01"/><use xlink:href="#3" style="mask:url(#1)"/><use xlink:href="#6" style="mask:url(#4)"/><path d="m 127.2 204.7 c -14.25 -3.19 -25.59 -14.38 -29.3 -28.97 c -0.91 -3.53 -1.28 -9.63 -0.84 -13.91 c 1.91 -19.1 16.75 -33.72 35.59 -35.2 c 10.56 -0.81 21.59 3.5 29.34 11.47 c 5.09 5.25 8.38 11.16 10.38 18.78 c 1.19 4.44 1.06 14.31 -0.19 19.1 c -3.53 13.47 -13.69 24.1 -26.75 28 c -5.28 1.59 -12.91 1.88 -18.22 0.69 m 14.16 -5.31 c 5.84 -0.94 13.25 -5.13 17.69 -9.97 c 6.53 -7.19 9.53 -16.59 8.66 -27.1 c -1.13 -13.34 -10.44 -24.94 -23.34 -29 c -7.72 -1.97 -16.19 -1.06 -22.2 1.34 c -7.34 3 -14.78 10.84 -17.66 18.63 c -3.44 9.69 -2.59 20.1 1.25 28.1 c 5 10.28 14.84 17.31 25.78 18.41 c 3.78 0.25 7.09 0 9.81 -0.44" transform="scale(0.125)" style="fill:#fff;stroke:#fff;stroke-linecap:round;stroke-width:2.58"/></svg>