<svg xmlns="http://www.w3.org/2000/svg" viewBox="0 0 32 32"><g style="fill:#ff8c00"><path d="M 0.371094 19.648438 C 2.355469 32.5625 19.984375 36.023438 27.757812 26.800781 C 34.609375 19.949219 32.910156 6.835938 24.496094 2.335938 C 14.847656 -3.675781 0.785156 3.757812 0.0195312 15.738281 C -0.0585938 17.046875 0.0546875 18.375 0.367188 19.648438 Z M 0.371094 19.648438 "/><path d="M 59.381589 64.229 L 191.381589 64.229 L 191.381589 191.604 L 59.381589 191.604 Z M 59.381589 64.229 " transform="matrix(0.125 0 0 0.125 0.32 0.24)" style="stroke:#fff;stroke-linecap:round;stroke-width:8.3"/></g><g style="fill:#fff"><path d="M 7.65625 8.847656 L 8.238281 8.1875 L 24.082031 23.332031 L 23.496094 23.992188 Z M 7.65625 8.847656 "/><path d="M 24.082031 8.847656 L 23.496094 8.1875 L 7.65625 23.332031 L 8.238281 23.992188 Z M 24.082031 8.847656 "/><path d="M 10.011719 19.597656 L 21.90625 19.597656 L 21.90625 22.292969 L 10.011719 22.292969 Z M 10.011719 19.597656 "/><path d="M 9.960938 15.839844 L 21.804688 15.839844 L 21.804688 17.414062 L 9.960938 17.414062 Z M 9.960938 15.839844 "/><path d="M 10.011719 11.621094 L 21.855469 11.621094 L 21.855469 12.535156 L 10.011719 12.535156 Z M 10.011719 11.621094 "/></g></svg>