<svg xmlns="http://www.w3.org/2000/svg" viewBox="0 0 32 32"><path d="m 0.54 19.39 c 2.48 16.41 27.1 16.9 30.81 0.95 c 3.83 -12.91 -10 -23.47 -20.41 -19.25 c -6.95 2 -12.56 10.19 -10.4 18.29" style="fill:#ff8c00"/><g style="fill:#fff"><path d="m 15.26 22.37 c -0.66 -0.03 -1.18 -0.11 -1.93 -0.3 c -2.42 -0.61 -4.73 -2.23 -6.46 -4.54 c -0.51 -0.68 -0.77 -1.11 -0.74 -1.24 c 0.04 -0.15 0.63 -1.03 1.05 -1.55 c 0.46 -0.57 1.44 -1.56 1.99 -2 c 1.68 -1.34 3.64 -2.18 5.57 -2.39 c 0.53 -0.06 1.68 -0.06 2.19 0 c 2.02 0.23 3.95 1.04 5.65 2.4 c 0.48 0.38 1.62 1.52 2 2 c 0.34 0.43 0.79 1.06 0.97 1.38 l 0.12 0.2 l -0.12 0.2 c -0.46 0.8 -1.11 1.61 -1.95 2.45 c -0.75 0.75 -1.13 1.06 -1.92 1.59 c -0.93 0.63 -1.67 0.98 -2.72 1.32 c -1.18 0.38 -2.36 0.53 -3.71 0.46 m 1.42 -0.96 c 0.37 -0.05 1.09 -0.3 1.41 -0.48 c 1.15 -0.64 2 -1.66 2.41 -2.88 c 0.28 -0.85 0.35 -1.96 0.17 -2.79 c -0.23 -1.1 -0.72 -1.98 -1.5 -2.73 c -1.41 -1.34 -3.43 -1.71 -5.2 -0.93 c -1.49 0.65 -2.55 1.98 -2.91 3.65 c -0.11 0.49 -0.11 1.63 0 2.13 c 0.3 1.45 1.15 2.68 2.31 3.39 c 1.03 0.62 2.07 0.82 3.29 0.64 m -4.96 -0.98 c -0.71 -0.75 -1.27 -1.9 -1.47 -3 c -0.11 -0.6 -0.1 -1.63 0.02 -2.23 c 0.22 -1.1 0.59 -1.88 1.34 -2.8 l 0.35 -0.43 l -0.47 0.25 c -0.26 0.14 -0.64 0.36 -0.85 0.48 c -1.19 0.74 -2.53 2.05 -3.32 3.24 c -0.13 0.2 -0.23 0.38 -0.23 0.41 c 0 0.04 0.11 0.23 0.25 0.43 c 0.81 1.18 2 2.36 3.18 3.13 c 0.39 0.25 1.37 0.79 1.45 0.8 c 0.02 0 -0.08 -0.13 -0.23 -0.29 m 8.98 -0.18 c 1.44 -0.82 2.85 -2.15 3.78 -3.54 l 0.24 -0.36 l -0.1 -0.16 c -0.18 -0.3 -0.63 -0.91 -0.93 -1.26 c -0.38 -0.44 -1.19 -1.23 -1.63 -1.58 c -0.59 -0.47 -1.61 -1.11 -2.12 -1.31 l -0.17 -0.07 l 0.17 0.18 c 0.77 0.82 1.27 1.77 1.52 2.91 c 0.08 0.38 0.09 0.55 0.09 1.29 c 0 0.94 -0.04 1.23 -0.27 1.93 c -0.27 0.79 -0.72 1.59 -1.25 2.16 l -0.26 0.29 l 0.23 -0.1 c 0.13 -0.06 0.43 -0.22 0.68 -0.36"/><path d="m 15.51 19.23 c -1.28 -0.27 -2.21 -1.46 -2.21 -2.8 c 0 -0.5 0.09 -0.89 0.3 -1.3 c 0.38 -0.76 1.02 -1.28 1.82 -1.48 c 1.3 -0.34 2.66 0.4 3.17 1.71 c 0.16 0.41 0.19 0.59 0.2 1.08 c 0 0.53 -0.08 0.87 -0.32 1.35 c -0.55 1.09 -1.79 1.71 -2.95 1.46"/></g></svg>