<svg xmlns="http://www.w3.org/2000/svg" viewBox="0 0 32 32"><path d="m 7.52 3.42 c 16.36 -11.46 32.95 9.7 19.61 23.2 c -12.56 12.71 -32.1 0.93 -25.99 -14.9 c 1.27 -3.3 3.37 -6.2 6.37 -8.3" style="fill:#f60"/><path d="m 5.54 24.64 c 1.63 3.39 5.76 4.84 9.23 3.23 c 3.47 -1.61 4.96 -5.66 3.34 -9.1 c -1.63 -3.39 -5.76 -4.84 -9.23 -3.23 c -3.47 1.61 -4.96 5.66 -3.34 9.1" style="fill:#fff"/><path d="m 16.96 19.1 c 1.75 1.52 1.52 4.55 -0.49 6.77 c -2 2.21 -5.07 2.78 -6.81 1.25 c -1.74 -1.52 -1.52 -4.55 0.5 -6.77 c 2 -2.21 5.07 -2.78 6.81 -1.25" style="fill:#f60;fill-opacity:0.6"/><g style="fill:#fff"><path d="m 16.36 14.7 l -0.65 1.77 c -0.14 0.38 -0.92 0.44 -1.75 0.15 c -0.83 -0.29 -1.39 -0.83 -1.25 -1.21 l 0.65 -1.77"/><path d="m 13.35 13.65 c -0.14 0.38 0.42 0.91 1.25 1.2 c 0.83 0.29 1.61 0.22 1.75 -0.15 c 0.14 -0.38 -0.42 -0.91 -1.25 -1.2 c -0.83 -0.29 -1.61 -0.22 -1.75 0.15"/><path d="m 13.63 13.75 c -0.11 0.3 0.34 0.74 1.02 0.98 c 0.68 0.24 1.32 0.18 1.43 -0.13 c 0.11 -0.3 -0.34 -0.74 -1.02 -0.98 c -0.68 -0.24 -1.31 -0.18 -1.43 0.13"/><path d="m 13.27 15.98 l -0.51 -0.48 l 0.59 -1.4 l 0.23 0.28 l 0.29 0.18"/><path d="m 16.44 11.47 c -0.08 0.14 -0.03 0.31 0.11 0.39 c 0.27 0.15 0.42 0.31 0.4 0.44 c -0.02 0.18 -0.29 0.38 -0.52 0.45 c -0.16 0.04 -0.34 0.05 -0.51 0.05 c -0.49 0.02 -1.1 0.05 -1.2 1.13 c -0.02 0.16 0.11 0.3 0.27 0.31 c 0.16 0.02 0.3 -0.1 0.31 -0.26 c 0.05 -0.58 0.18 -0.59 0.65 -0.61 c 0.19 -0.01 0.41 -0.02 0.65 -0.08 c 0.43 -0.13 0.89 -0.48 0.94 -0.93 c 0.03 -0.26 -0.07 -0.65 -0.7 -1 c -0.14 -0.08 -0.32 -0.03 -0.39 0.11" style="fill-rule:evenodd"/></g><path d="m 166.8 84.96 l -25.1 -3.32 l 17.45 -11.19 l 1.07 -27 l 11.71 19.84 l 25.1 3.36 l -17.45 11.15 l -1.07 27" transform="matrix(0.116 0 0 0.119 -1.7 1.61)" style="fill:#ffd600;stroke:#ff7f4f;fill-rule:evenodd;stroke-width:0.48"/></svg>