<svg xmlns="http://www.w3.org/2000/svg" viewBox="0 0 32 32"><defs><clipPath id="0"><path d="m 6 15 h 14 v 11 h -14"/></clipPath><clipPath id="1"><path d="m 0.5 8.83 h 25.48 c 1.48 0 2.68 0.95 2.68 2.13 v 20.23 c 0 1.18 -1.2 2.13 -2.68 2.13 h -25.48 c -1.48 0 -2.68 -0.95 -2.68 -2.13 v -20.23 c 0 -1.18 1.2 -2.13 2.68 -2.13"/></clipPath></defs><path d="m 7.52 3.42 c 16.36 -11.46 32.95 9.7 19.61 23.2 c -12.56 12.71 -32.1 0.93 -25.99 -14.9 c 1.27 -3.3 3.37 -6.2 6.37 -8.3" style="fill:#f60"/><g style="clip-path:url(#0)"><g style="clip-path:url(#1)"><path d="m 19.95 15.21 c 0 3.75 0 7.4 0 10.65 c -4.71 0 -9.34 0 -13.41 0 c 0 -3.75 0 -7.4 0 -10.65 c 4.65 0 9.42 0 13.41 0 m -1.34 1.07 h -6 v 2.13 h 6 m -7.38 -2.13 h -3.35 v 2.13 h 3.35 m 7.38 1.06 h -6 v 2.13 h 6 m -7.38 -2.13 h -3.35 v 2.13 h 3.35 m 7.38 1.06 h -6 v 2.13 h 6 m -7.38 -2.13 h -3.35 v 2.13 h 3.35" style="fill:#fff"/></g></g></svg>