<svg xmlns="http://www.w3.org/2000/svg" viewBox="0 0 32 32"><path d="m 7.52 3.42 c 16.37 -11.46 32.95 9.7 19.62 23.2 c -12.57 12.72 -32.1 0.93 -25.98 -14.89 c 1.27 -3.3 3.36 -6.2 6.37 -8.3" style="fill:#f60"/><path d="m 11.85 11.83 l -6.47 3.58 l 7.1 3.93 l 7 -3.93 l -6.4 -3.58 v 2.75 l 2.52 1.41 c 0.1 0.03 0.1 0.2 0 0.26 l -2.98 1.66 c -0.1 0.03 -0.2 0.03 -0.27 0 l -2.98 -1.66 c -0.1 -0.03 -0.1 -0.2 0 -0.26 l 2.52 -1.41 m 7.6 0.83 l -7 3.93 l -7.1 -3.93 v 7.13 l 2.45 -1.38 v -2.78 c 0 -0.09 0.13 -0.16 0.2 -0.13 l 2.99 1.66 c 0.1 0.03 0.13 0.13 0.13 0.25 v 3.33 c 0.07 0.09 -0.07 0.16 -0.16 0.13 l -2.52 -1.41 l -2.46 1.38 l 6.44 3.58 l 6.4 -3.58 l -2.45 -1.38 l -2.52 1.44 c -0.1 0.06 -0.2 -0.03 -0.2 -0.13 v -3.32 c 0 -0.1 0.06 -0.19 0.13 -0.26 l 2.99 -1.66 c 0.1 -0.06 0.2 0.03 0.2 0.13 v 2.78 l 2.46 1.38" style="fill:#fff"/></svg>