<svg xmlns="http://www.w3.org/2000/svg" viewBox="0 0 32 32"><path d="m 7.52 3.42 c 16.36 -11.46 32.95 9.7 19.61 23.2 c -12.56 12.71 -32.1 0.93 -25.99 -14.9 c 1.27 -3.3 3.37 -6.2 6.37 -8.3" style="fill:#f60"/><g style="fill:#fff"><path d="m 5.15 14.1 c -0.16 -0.18 -0.41 -0.54 -0.54 -0.79 c -0.24 -0.45 -0.24 -0.45 0 -0.63 c 0.13 -0.1 0.55 -0.3 0.94 -0.45 c 0.58 -0.21 0.75 -0.35 0.98 -0.77 c 0.21 -0.38 0.5 -0.63 1.19 -1.03 c 0.5 -0.29 1.19 -0.61 1.53 -0.71 c 0.83 -0.26 2.71 -0.36 3.45 -0.19 c 0.92 0.22 1.72 0.63 1.8 0.91 c 0.04 0.14 0.05 0.27 0.04 0.29 c -0.02 0.02 -0.39 -0.02 -0.82 -0.09 c -0.95 -0.16 -1.83 -0.06 -2.53 0.27 c -0.67 0.32 -0.79 0.73 -0.46 1.6 c 0.04 0.11 -0.14 0.3 -0.53 0.54 c -0.58 0.36 -0.61 0.37 -0.89 0.16 c -0.48 -0.34 -1.19 -0.52 -1.75 -0.43 c -0.44 0.07 -0.59 0.17 -0.97 0.68 c -0.25 0.34 -0.61 0.69 -0.8 0.79 c -0.33 0.17 -0.36 0.16 -0.64 -0.16"/><path d="m 22.25 16.29 c -0.71 -0.76 -0.71 -0.76 -1.38 -0.74 c -0.44 0.01 -0.83 0.11 -1.15 0.29 c -0.49 0.27 -0.49 0.27 -0.93 0.04 c -0.62 -0.33 -0.67 -0.42 -0.55 -0.96 c 0.15 -0.69 -0.01 -0.99 -0.7 -1.25 c -0.61 -0.23 -2.09 -0.3 -2.76 -0.13 c -0.39 0.1 -0.47 -0.14 -0.16 -0.45 c 0.74 -0.74 3.28 -0.99 4.89 -0.48 c 1.27 0.4 2.38 1.09 2.68 1.67 c 0.2 0.38 0.37 0.52 0.83 0.68 c 0.31 0.11 0.72 0.3 0.91 0.44 l 0.34 0.25 l -0.24 0.41 c -0.32 0.55 -0.71 0.98 -0.92 0.98 c -0.09 0 -0.49 -0.34 -0.88 -0.76"/><path d="m 11.23 25.99 c -0.4 -0.27 -0.78 -0.58 -0.84 -0.69 c -0.13 -0.23 0.05 -0.51 2.09 -3.23 l 1.33 -1.77 l -1.11 -1.77 c -0.61 -0.98 -1.11 -1.92 -1.13 -2.1 c -0.02 -0.25 -0.91 -1.64 -1.77 -2.74 c -0.06 -0.07 0.15 -0.29 0.5 -0.52 l 0.6 -0.39 l 0.95 1.34 c 0.66 0.93 1.03 1.34 1.2 1.35 c 0.16 0 0.62 0.46 1.34 1.35 c 0.7 0.86 1.16 1.32 1.27 1.28 c 0.09 -0.04 0.24 -0.06 0.33 -0.06 c 0.09 0 0.56 -0.55 1.05 -1.22 c 0.49 -0.68 0.93 -1.22 0.99 -1.22 c 0.05 0 0.32 0.14 0.59 0.32 c 0.57 0.38 0.62 0.21 -0.63 1.93 c -0.4 0.54 -0.69 1.06 -0.66 1.16 c 0.04 0.09 -0.05 0.36 -0.19 0.58 l -0.25 0.41 l 0.93 1.3 c 0.52 0.71 0.96 1.37 1 1.46 c 0.08 0.21 -0.35 0.61 -1.22 1.13 c -0.82 0.49 -0.91 0.46 -1.67 -0.58 c -0.3 -0.41 -0.57 -0.74 -0.61 -0.74 c -0.04 0 -0.68 0.87 -1.43 1.93 c -1.05 1.48 -1.42 1.93 -1.65 1.95 c -0.18 0.02 -0.57 -0.15 -1.02 -0.45"/></g></svg>