<svg xmlns="http://www.w3.org/2000/svg" viewBox="0 0 256 256"><path d="m 3.25 157.3 c 49.98 239.9 393.9 -17.64 187.3 -139.6 c -80.2 -52.3 -213 16.2 -187.3 139.6" style="fill:#dcdcdc"/><path d="m 153.9 71.6 l 0.27 0.25 l 0.68 -0.25 m 7.7 8.1 l 47.55 44.3 v -44.3" style="fill-opacity:0.2"/><path d="m 153.9 27.3 l 56.2 52.4 h -47.55 c -4.2 0 -8.64 -4.14 -8.64 -8.1 v -44.3" style="fill:#fff;fill-opacity:0.39"/><g transform="matrix(8.795 0 0 13.885 38.86 -0.62)" aria-label="wasm" style="fill:#808080"><path d="m 1.54 8.54 h 0.48 l 0.6 2.28 l 0.6 -2.28 h 0.57 l 0.6 2.28 l 0.6 -2.28 h 0.48 l -0.76 2.92 h -0.57 l -0.63 -2.39 l -0.63 2.39 h -0.57 z"/><path d="m 7.5 9.99 q -0.58 0 -0.8 0.13 -0.22 0.13 -0.22 0.45 0 0.26 0.17 0.41 0.17 0.15 0.46 0.15 0.4 0 0.64 -0.28 0.24 -0.28 0.24 -0.75 v -0.11 z m 0.96 -0.2 v 1.66 h -0.48 v -0.44 q -0.16 0.27 -0.41 0.39 -0.24 0.13 -0.6 0.13 -0.45 0 -0.71 -0.25 -0.26 -0.25 -0.26 -0.67 0 -0.49 0.33 -0.74 0.33 -0.25 0.98 -0.25 h 0.67 v -0.05 q 0 -0.33 -0.22 -0.51 -0.22 -0.18 -0.61 -0.18 -0.25 0 -0.49 0.06 -0.24 0.06 -0.46 0.18 v -0.44 q 0.26 -0.1 0.51 -0.15 0.25 -0.05 0.48 -0.05 q 0.63 0 0.95 0.33 0.31 0.33 0.31 0.99 z"/><path d="m 11.3 8.63 v 0.45 q -0.2 -0.1 -0.42 -0.16 -0.22 -0.05 -0.45 -0.05 -0.36 0 -0.54 0.11 -0.18 0.11 -0.18 0.33 0 0.17 0.13 0.26 0.13 0.09 0.51 0.18 l 0.16 0.04 q 0.51 0.11 0.72 0.31 0.22 0.2 0.22 0.55 0 0.41 -0.32 0.64 -0.32 0.24 -0.88 0.24 -0.23 0 -0.49 -0.05 -0.25 -0.04 -0.53 -0.14 v -0.49 q 0.27 0.14 0.52 0.21 0.26 0.07 0.51 0.07 0.34 0 0.52 -0.11 0.18 -0.12 0.18 -0.33 0 -0.2 -0.13 -0.3 -0.13 -0.1 -0.58 -0.2 l -0.17 -0.04 q -0.45 -0.09 -0.64 -0.29 -0.2 -0.2 -0.2 -0.53 q 0 -0.41 0.29 -0.64 0.29 -0.22 0.83 -0.22 0.27 0 0.5 0.04 0.23 0.04 0.43 0.12 z"/><path d="m 14.49 9.1 q 0.18 -0.32 0.43 -0.48 0.25 -0.15 0.59 -0.15 0.46 0 0.7 0.32 0.25 0.32 0.25 0.91 v 1.76 h -0.48 v -1.74 q 0 -0.42 -0.15 -0.62 -0.15 -0.2 -0.45 -0.2 -0.37 0 -0.59 0.25 -0.22 0.25 -0.22 0.67 v 1.65 h -0.48 v -1.74 q 0 -0.42 -0.15 -0.62 -0.15 -0.2 -0.46 -0.2 -0.37 0 -0.58 0.25 -0.22 0.25 -0.22 0.67 v 1.65 h -0.48 v -2.92 h 0.48 v 0.45 q 0.16 -0.27 0.39 -0.4 0.23 -0.13 0.54 -0.13 0.32 0 0.54 0.16 0.22 0.16 0.33 0.47 z"/></g></svg>