<svg xmlns="http://www.w3.org/2000/svg" viewBox="0 0 256 256"><defs><clipPath><rect rx="4" y="1" x="1" height="46" width="46" style="fill:#1890d0"/></clipPath><clipPath><rect rx="4" y="1" x="1" height="46" width="46" style="fill:#1890d0"/></clipPath><clipPath><rect rx="4" y="1" x="1" height="46" width="46" style="fill:#1890d0"/></clipPath><clipPath><rect rx="4" y="1" x="1" height="46" width="46" style="fill:#1890d0"/></clipPath><clipPath><rect rx="4" y="1" x="1" height="46" width="46" style="fill:#1890d0"/></clipPath><clipPath><rect rx="4" y="1" x="1" height="46" width="46" style="fill:#1890d0"/></clipPath><clipPath><rect rx="4" y="1" x="1" height="46" width="46" style="fill:#1890d0"/></clipPath><clipPath><rect rx="4" y="1" x="1" height="46" width="46" style="fill:#1890d0"/></clipPath><clipPath><rect rx="4" y="1" x="1" height="46" width="46" style="fill:#1890d0"/></clipPath><clipPath><rect rx="4" y="1" x="1" height="46" width="46" style="fill:#1890d0"/></clipPath><clipPath><path d="m 13 16 h 10 v 15 h -10"/></clipPath><clipPath><rect rx="4" y="1" x="1" height="46" width="46" style="fill:#1890d0"/></clipPath><clipPath><rect rx="4" y="1" x="1" height="46" width="46" style="fill:#1890d0"/></clipPath><clipPath><path d="m 13.73 20.1 c 0 2.06 1.51 3.32 3.87 4.16 c 1.82 0.66 2.55 1.29 2.55 2.38 c 0 1.17 -0.93 1.95 -2.61 1.95 c -1.34 0 -2.61 -0.43 -3.46 -0.91 l -0.57 2.17 c 0.79 0.46 2.36 0.91 3.87 0.91 c 3.7 0 5.44 -2 5.44 -4.31 c 0 -2.06 -1.21 -3.31 -3.7 -4.25 c -1.91 -0.75 -2.74 -1.25 -2.74 -2.36 c 0 -0.83 0.72 -1.72 2.38 -1.72 c 1.34 0 2.34 0.41 2.85 0.68 l 0.64 -2.1 c -0.74 -0.38 -1.89 -0.72 -3.44 -0.72 c -3.1 0 -5.1 1.79 -5.1 4.12"/></clipPath><clipPath><path d="m 16 16 h 11 v 15 h -11"/></clipPath><clipPath><path d="m 16 16.31 v 14.69 h 2.7 v -5.61 c 0.36 0.07 0.82 0.09 1.32 0.09 c 1.92 0 3.63 -0.51 4.71 -1.59 c 0.84 -0.79 1.28 -1.97 1.28 -3.38 c 0 -1.39 -0.57 -2.56 -1.46 -3.29 c -0.95 -0.8 -2.41 -1.22 -4.39 -1.22 c -1.83 0 -3.18 0.13 -4.15 0.31 m 2.7 6.94 v -5 c 0.29 -0.07 0.82 -0.13 1.57 -0.13 c 1.88 0 3 0.88 3 2.54 c 0 1.74 -1.24 2.74 -3.27 2.74 c -0.55 0 -1 -0.02 -1.33 -0.11"/></clipPath><clipPath><path d="m 24 19 h 11 v 16 h -11"/></clipPath><clipPath><rect rx="4" y="1" x="1" height="46" width="46" style="fill:#1890d0"/></clipPath><clipPath><path d="m 30.43 22.3 h -0.09 l -0.09 -2.05 h -2.36 c 0.07 0.97 0.09 2 0.09 3.47 v 7.29 h 2.72 v -5.57 c 0 -0.31 0.04 -0.59 0.09 -0.84 c 0.25 -1.21 1.13 -2.05 2.43 -2.05 c 0.33 0 0.58 0.05 0.8 0.09 v -2.56 c -0.22 -0.04 -0.38 -0.07 -0.64 -0.07 c -1.15 0 -2.41 0.77 -2.94 2.3"/></clipPath><clipPath><path d="m 27 20 h 8 v 11 h -8"/></clipPath><clipPath><path d="m 26 19 h 7 v 12 h -7"/></clipPath><clipPath><path d="m 17 16 h 10 v 15 h -10"/></clipPath><clipPath><rect rx="4" y="1" x="1" height="46" width="46" style="fill:#1890d0"/></clipPath><clipPath><path d="m 28.64 16 h 2.62 v 15 h -2.62"/></clipPath><clipPath><rect rx="4" y="1" x="1" height="46" width="46" style="fill:#1890d0"/></clipPath><clipPath><path d="m 17 16.95 v 14.1 h 2.58 v -5.36 c 0.34 0.06 0.78 0.08 1.27 0.08 c 1.84 0 3.47 -0.48 4.5 -1.52 c 0.8 -0.76 1.22 -1.88 1.22 -3.23 c 0 -1.33 -0.55 -2.45 -1.39 -3.15 c -0.91 -0.76 -2.3 -1.16 -4.2 -1.16 c -1.75 0 -3.04 0.13 -3.97 0.3 m 2.58 6.63 v -4.82 c 0.28 -0.06 0.78 -0.13 1.5 -0.13 c 1.8 0 2.89 0.85 2.89 2.43 c 0 1.67 -1.18 2.62 -3.13 2.62 c -0.53 0 -0.95 -0.02 -1.27 -0.11"/></clipPath><clipPath><path d="m 15.99 16.52 v 14.45 h 2.65 v -5.52 c 0.35 0.07 0.8 0.09 1.3 0.09 c 1.89 0 3.57 -0.5 4.63 -1.57 c 0.82 -0.78 1.26 -1.93 1.26 -3.32 c 0 -1.37 -0.56 -2.52 -1.43 -3.24 c -0.93 -0.79 -2.37 -1.2 -4.32 -1.2 c -1.8 0 -3.13 0.13 -4.09 0.3 m 2.65 6.82 v -4.95 c 0.29 -0.07 0.8 -0.13 1.54 -0.13 c 1.85 0 2.98 0.87 2.98 2.5 c 0 1.72 -1.22 2.7 -3.22 2.7 c -0.54 0 -0.98 -0.02 -1.3 -0.11"/></clipPath><clipPath><path d="m 15 16 h 11 v 15 h -11"/></clipPath><clipPath><rect rx="4" y="1" x="1" height="46" width="46" style="fill:#1890d0"/></clipPath><clipPath><path d="m 26 20 h 8 v 12 h -8"/></clipPath><clipPath><path d="m 26.42 23.48 c -0.02 1.24 0.85 2.37 2.91 3.09 c 1.3 0.45 1.74 0.82 1.74 1.54 c 0 0.7 -0.52 1.17 -1.7 1.17 c -0.96 0 -2.11 -0.39 -2.72 -0.76 l -0.52 1.93 c 0.78 0.43 1.93 0.76 3.22 0.76 c 2.81 0 4.31 -1.41 4.31 -3.33 c -0.02 -1.57 -0.91 -2.54 -2.83 -3.24 c -1.35 -0.48 -1.85 -0.8 -1.85 -1.48 c 0 -0.65 0.52 -1.11 1.48 -1.11 c 0.94 0 1.78 0.36 2.24 0.61 l 0.52 -1.89 c -0.61 -0.32 -1.63 -0.63 -2.81 -0.63 c -2.46 0 -4 1.46 -4 3.32"/></clipPath><clipPath><rect rx="4" y="1" x="1" height="46" width="46" style="fill:#1890d0"/></clipPath><clipPath><rect rx="4" y="1" x="1" height="46" width="46" style="fill:#1890d0"/></clipPath><clipPath><path d="m 29.33 22.2 h -0.09 l -0.09 -2.07 h -2.38 c 0.07 0.98 0.09 2.03 0.09 3.5 v 7.34 h 2.73 v -5.61 c 0 -0.31 0.05 -0.6 0.09 -0.84 c 0.25 -1.23 1.14 -2.07 2.45 -2.07 c 0.33 0 0.58 0.04 0.8 0.09 v -2.58 c -0.22 -0.04 -0.38 -0.07 -0.65 -0.07 c -1.16 0 -2.43 0.78 -2.96 2.31"/></clipPath><clipPath><rect rx="4" y="1" x="1" height="46" width="46" style="fill:#1890d0"/></clipPath><clipPath><rect rx="4" y="1" x="1" height="46" width="46" style="fill:#1890d0"/></clipPath><clipPath><path d="m 17.36 16.98 h 2.56 v 14 h -2.56"/></clipPath><clipPath><path d="m 16 16 h 2.73 v 12.71 h -2.73 m 0 0 h 8.9 v 2.29 h -8.9"/></clipPath><clipPath><path d="m 24.4 25.45 c 0 2.93 1.83 5.1 4.4 5.1 c 1.36 0 2.42 -0.62 3 -1.53 h 0.04 v 0.89 c 0 2.23 -1.27 3.13 -2.97 3.13 c -1.25 0 -2.36 -0.41 -3 -0.78 l -0.57 1.97 c 0.89 0.55 2.29 0.83 3.61 0.83 c 1.42 0 2.91 -0.3 3.99 -1.25 c 1.08 -0.98 1.53 -2.52 1.53 -4.69 v -5.86 c 0 -1.42 0.04 -2.27 0.09 -2.97 h -2.27 l -0.1 1.38 h -0.04 c -0.49 -0.85 -1.42 -1.62 -2.99 -1.62 c -2.48 0 -4.7 2.06 -4.7 5.46 m 2.66 -0.09 c 0 -2.1 1.08 -3.38 2.55 -3.38 c 1.11 0 1.85 0.72 2.13 1.68 c 0.06 0.21 0.09 0.47 0.09 0.7 v 1.68 c 0 0.3 -0.04 0.66 -0.11 0.93 c -0.3 0.93 -1.14 1.57 -2.12 1.57 c -1.64 0 -2.53 -1.42 -2.53 -3.18"/></clipPath><clipPath><path d="m 28.73 16.23 v 5.74 h -0.04 c -0.42 -0.75 -1.34 -1.33 -2.61 -1.33 c -2.23 0 -4.18 2 -4.16 5.41 c 0 3.12 1.75 5.18 3.97 5.18 c 1.36 0 2.48 -0.71 3.04 -1.83 h 0.04 l 0.09 1.6 h 2.1 c -0.04 -0.69 -0.08 -1.81 -0.08 -2.85 v -11.92 m -6.77 9.74 c 0 -1.89 0.84 -3.35 2.35 -3.35 c 1.07 0 1.81 0.81 2 1.81 c 0.04 0.21 0.06 0.46 0.06 0.66 v 1.52 c 0 0.27 -0.02 0.52 -0.08 0.75 c -0.23 1.1 -1.06 1.81 -2 1.81 c -1.49 0 -2.33 -1.35 -2.33 -3.2"/></clipPath><clipPath><path d="m 21 16 h 11 v 16 h -11"/></clipPath><clipPath><rect rx="4" y="1" x="1" height="46" width="46" style="fill:#1890d0"/></clipPath><clipPath><path d="m 15 16 h 13 v 15 h -13"/></clipPath><clipPath><path d="m 28.76 17.44 c 0 0.8 0.59 1.43 1.48 1.43 c 0.93 0 1.52 -0.63 1.52 -1.43 c -0.02 -0.83 -0.59 -1.46 -1.5 -1.46 c -0.89 0 -1.5 0.63 -1.5 1.46 m 0.15 13.54 h 2.7 v -10.59 h -2.7"/></clipPath><clipPath><path d="m 28 15 h 4 v 16 h -4"/></clipPath><clipPath><rect rx="4" y="1" x="1" height="46" width="46" style="fill:#1890d0"/></clipPath><clipPath><path d="m 19.7 16.33 l -4.7 14.65 h 2.76 l 1.26 -4.15 h 4.65 l 1.32 4.15 h 2.87 l -4.76 -14.65 m -2.52 4.87 c 0.26 -0.87 0.48 -1.89 0.7 -2.74 h 0.04 c 0.21 0.85 0.46 1.85 0.74 2.74 l 1.15 3.61 h -3.76 l 1.13 -3.61"/></clipPath><clipPath><path d="m 15.5 16.98 h 8.09 v 2.1 h -8.09 m 0 0 h 2.56 v 3.87 h -2.56 m 0 0 h 7.72 v 2.1 h -7.72 m 0 0 h 2.56 v 5.95 h -2.56"/></clipPath><clipPath><rect rx="4" y="1" x="1" height="46" width="46" style="fill:#1890d0"/></clipPath><clipPath><rect rx="4" y="1" x="1" height="46" width="46" style="fill:#1890d0"/></clipPath><clipPath><path d="m 25 16 h 10 v 16 h -10"/></clipPath><clipPath><path d="m 25.1 16.32 v 11.92 c 0 1.04 -0.04 2.16 -0.07 2.85 h 2.09 l 0.09 -1.6 h 0.04 c 0.55 1.12 1.68 1.83 3 1.83 c 2.21 0 3.96 -2.06 3.96 -5.18 c 0.02 -3.39 -1.93 -5.41 -4.15 -5.41 c -1.28 0 -2.19 0.59 -2.61 1.33 h -0.04 v -5.74 m 0.08 11.13 c -0.06 -0.23 -0.08 -0.48 -0.08 -0.75 v -1.52 c 0 -0.21 0.02 -0.46 0.06 -0.66 c 0.21 -1 0.95 -1.81 2 -1.81 c 1.5 0 2.34 1.46 2.34 3.35 c 0 1.85 -0.84 3.2 -2.32 3.2 c -0.95 0 -1.79 -0.71 -2 -1.81"/></clipPath><clipPath><rect rx="4" y="1" x="1" height="46" width="46" style="fill:#1890d0"/></clipPath><clipPath><rect rx="4" y="1" x="1" height="46" width="46" style="fill:#1890d0"/></clipPath><clipPath><path d="m 34.38 20.2 l -1.11 4.81 c -0.27 1.27 -0.49 2.45 -0.66 3.63 h -0.04 c -0.23 -1.18 -0.49 -2.36 -0.8 -3.63 l -1.25 -4.81 h -2.06 l -1.3 4.94 c -0.29 1.11 -0.62 2.31 -0.83 3.49 h -0.04 c -0.19 -1.18 -0.41 -2.36 -0.64 -3.52 l -1.05 -4.92 h -2.59 l 2.97 10.84 h 2.37 l 1.28 -4.41 c 0.29 -1.07 0.55 -2.14 0.76 -3.47 h 0.04 c 0.23 1.31 0.45 2.34 0.76 3.47 l 1.2 4.41 h 2.35 l 3.16 -10.84"/></clipPath><clipPath><rect rx="4" y="1" x="1" height="46" width="46" style="fill:#1890d0"/></clipPath><clipPath><rect rx="4" y="1" x="1" height="46" width="46" style="fill:#1890d0"/></clipPath><clipPath><path d="m 14 16 h 8.72 v 2.25 h -8.72 m 0 0 h 2.74 v 3.88 h -2.74 m 0 0 h 8.39 v 2.22 h -8.39 m 0 0 h 2.74 v 4.41 h -2.74 m 0 0 h 9.1 v 2.25 h -9.1"/></clipPath><clipPath><path d="m 13 16 h 8.66 v 2.25 h -8.66 m 0 0 h 2.74 v 4.14 h -2.74 m 0 0 h 8.26 v 2.25 h -8.26 m 0 0 h 2.74 v 6.36 h -2.74"/></clipPath><clipPath><rect rx="4" y="1" x="1" height="46" width="46" style="fill:#1890d0"/></clipPath><clipPath><path d="m 27.65 21.79 h -0.06 l -0.12 -1.63 h -2.21 c 0.06 0.93 0.08 1.98 0.08 3.23 v 7.61 h 2.53 v -6.37 c 0 -0.31 0.02 -0.64 0.1 -0.89 c 0.27 -0.82 0.96 -1.61 1.96 -1.61 c 1.37 0 1.9 1.18 1.9 2.74 v 6.12 h 2.51 v -6.43 c 0 -3.43 -1.8 -4.65 -3.53 -4.65 c -1.65 0 -2.74 1.02 -3.16 1.87"/></clipPath><clipPath><path d="m 25 19 h 10 v 12 h -10"/></clipPath><clipPath><path d="m 25 20 h 11 v 12 h -11"/></clipPath><clipPath><path d="m 12 16 h 12 v 16 h -12"/></clipPath><clipPath><path d="m 35.2 20.38 l -1.03 4.73 c -0.25 1.25 -0.46 2.4 -0.62 3.56 h -0.03 c -0.21 -1.16 -0.46 -2.32 -0.75 -3.56 l -1.17 -4.73 h -1.92 l -1.21 4.86 c -0.27 1.09 -0.57 2.27 -0.77 3.43 h -0.04 c -0.17 -1.16 -0.38 -2.32 -0.59 -3.45 l -0.98 -4.84 h -2.42 l 2.76 10.65 h 2.2 l 1.19 -4.33 c 0.27 -1.05 0.52 -2.1 0.71 -3.41 h 0.04 c 0.21 1.29 0.43 2.3 0.71 3.41 l 1.11 4.33 h 2.19 l 2.93 -10.65"/></clipPath><clipPath><path d="m 23 20 h 15 v 12 h -15"/></clipPath><clipPath><rect rx="4" y="1" x="1" height="46" width="46" style="fill:#1890d0"/></clipPath><clipPath><path d="m 12 16.49 v 14.5 c 0.79 0.11 1.86 0.2 3.29 0.2 c 2.59 0 4.71 -0.68 6 -2 c 1.27 -1.27 2.08 -3.23 2.08 -5.86 c 0 -2.52 -0.79 -4.26 -2.08 -5.42 c -1.23 -1.14 -2.95 -1.71 -5.44 -1.71 c -1.45 0 -2.81 0.11 -3.88 0.31 m 3.78 12.55 c -0.49 0 -1 0 -1.34 -0.06 v -10.54 c 0.34 -0.09 0.89 -0.15 1.66 -0.15 c 3.05 0 4.75 1.86 4.73 5.11 c 0 3.72 -1.86 5.65 -4.99 5.65 c -0.02 0 -0.04 0 -0.05 0"/></clipPath><clipPath><path d="m 15 16 h 11 v 16 h -11"/></clipPath><clipPath><rect rx="4" y="1" x="1" height="46" width="46" style="fill:#1890d0"/></clipPath><clipPath><rect rx="4" y="1" x="1" height="46" width="46" style="fill:#1890d0"/></clipPath><clipPath><path d="m 15 16.46 v 14.5 c 0.68 0.09 1.82 0.2 3.3 0.2 c 2.69 0 4.42 -0.46 5.47 -1.38 c 0.85 -0.7 1.42 -1.73 1.42 -3.04 c 0 -2.04 -1.42 -3.26 -2.98 -3.65 v -0.04 c 1.6 -0.59 2.45 -1.84 2.45 -3.2 c 0 -1.25 -0.61 -2.21 -1.53 -2.75 c -1 -0.7 -2.23 -0.94 -4.22 -0.94 c -1.51 0 -3.06 0.13 -3.91 0.31 m 2.67 1.79 c 0.28 -0.07 0.74 -0.11 1.53 -0.11 c 1.71 0 2.76 0.63 2.76 2 c 0 1.25 -1.05 2.12 -2.91 2.12 h -1.38 m 0 6.78 v -4.81 h 1.33 c 1.86 0 3.34 0.7 3.34 2.4 c 0 1.82 -1.53 2.47 -3.26 2.47 c -0.61 0 -1.07 0 -1.42 -0.07"/></clipPath><clipPath><path d="m 27 20 h 7 v 11 h -7"/></clipPath><clipPath><path d="m 29.91 22.38 h -0.09 l -0.09 -2.04 h -2.34 c 0.06 0.96 0.09 1.99 0.09 3.43 v 7.22 h 2.69 v -5.51 c 0 -0.3 0.04 -0.59 0.09 -0.83 c 0.24 -1.2 1.11 -2.04 2.41 -2.04 c 0.33 0 0.57 0.04 0.78 0.09 v -2.54 c -0.22 -0.04 -0.37 -0.07 -0.63 -0.07 c -1.14 0 -2.38 0.77 -2.91 2.27"/></clipPath><clipPath><rect rx="4" y="1" x="1" height="46" width="46" style="fill:#1890d0"/></clipPath><clipPath><path d="m 32.75 20.5 v 6.34 c 0 0.3 -0.07 0.58 -0.15 0.82 c -0.28 0.67 -0.97 1.42 -2.02 1.42 c -1.4 0 -1.96 -1.12 -1.96 -2.87 v -5.71 h -2.65 v 6.16 c 0 3.43 1.75 4.57 3.66 4.57 c 1.88 0 2.91 -1.08 3.36 -1.83 h 0.04 l 0.13 1.59 h 2.33 c -0.04 -0.86 -0.09 -1.9 -0.09 -3.15 v -7.35"/></clipPath><clipPath><rect rx="4" y="1" x="1" height="46" width="46" style="fill:#1890d0"/></clipPath><clipPath><rect rx="4" y="1" x="1" height="46" width="46" style="fill:#1890d0"/></clipPath><clipPath><path d="m 26 20 h 10 v 12 h -10"/></clipPath><clipPath><rect rx="4" y="1" x="1" height="46" width="46" style="fill:#1890d0"/></clipPath><clipPath><path d="m 22 20 h 15 v 11 h -15"/></clipPath><clipPath><rect rx="4" y="1" x="1" height="46" width="46" style="fill:#1890d0"/></clipPath><clipPath><path d="m 26.1 25.82 c 0 3.27 1.99 5.41 5.37 5.41 c 1.5 0 2.74 -0.31 3.64 -0.68 l -0.38 -1.86 c -0.79 0.3 -1.67 0.48 -2.89 0.48 c -1.67 0 -3.15 -0.83 -3.21 -2.76 h 6.98 c 0.04 -0.24 0.08 -0.64 0.08 -1.14 c 0 -2.34 -1.09 -5.19 -4.49 -5.19 c -3.34 0 -5.09 2.77 -5.09 5.73 m 4.94 -3.89 c 1.75 0 2.18 1.6 2.16 2.6 h -4.58 c 0.11 -1.1 0.79 -2.6 2.42 -2.6"/></clipPath></defs><path d="m 3.25 157.3 c 49.98 239.9 393.9 -17.64 187.3 -139.6 c -80.2 -52.3 -213 16.2 -187.3 139.6" style="fill:#ffa500"/><path d="m 153.9 71.6 l 0.27 0.25 l 0.68 -0.25 m 7.7 8.1 l 47.55 44.3 v -44.3" style="fill-opacity:0.2"/><g style="fill:#fff"><path d="m 153.9 27.3 l 56.2 52.4 h -47.55 c -4.2 0 -8.64 -4.14 -8.64 -8.1 v -44.3" style="fill-opacity:0.39"/><path d="m 113.4 195.7 c -6.15 -1.04 -11.73 -5.84 -15.71 -13.5 l -1.48 -2.85 l -2.95 0.24 c -1.62 0.13 -5 0.21 -7.53 0.19 -18.43 -0.2 -25.59 -7.71 -17.1 -17.94 2.75 -3.32 10 -8.66 15.3 -11.27 l 1.67 -0.82 l -2.61 -1.71 c -10.7 -7 -19.75 -16.1 -23.62 -23.73 -1.88 -3.7 -2.47 -6.1 -2.3 -9.1 0.29 -5.28 3.57 -8.4 9.7 -9.23 5.91 -0.8 14.85 1.32 24.3 5.76 l 4.42 2.08 v -1.53 c 0 -2.11 0.76 -4.82 2.11 -7.5 1.44 -2.87 5.18 -6.66 8.12 -8.23 12.17 -6.5 27.41 -0.08 30.55 12.88 0.25 1.02 0.45 2.42 0.45 3.12 v 1.27 l 3.64 -1.76 c 9.56 -4.61 18.98 -6.9 25 -6.08 6 0.81 9.35 3.99 9.7 9.19 0.58 8.8 -9.35 21.53 -25.29 32.42 l -3.2 2.18 l 1.57 0.78 c 4.23 2.09 10.47 6.48 13.72 9.65 8.76 8.55 6.14 16.19 -6.42 18.75 -3.69 0.75 -9.85 1.08 -14.37 0.75 -2.16 -0.15 -4.27 -0.28 -4.7 -0.29 -0.67 -0.01 -0.98 0.38 -2.28 2.88 -3.87 7.42 -9.12 12.1 -15 13.28 -2.28 0.47 -3.51 0.5 -5.66 0.14 z m 6.26 -6.1 c 1.05 -0.34 2.47 -1 3.17 -1.48 1.43 -0.96 4.83 -4.34 4.83 -4.8 0 -0.34 -3 -1.34 -5.74 -1.9 -2.37 -0.49 -9.35 -0.48 -11.78 0.01 -2.95 0.59 -5.74 1.56 -5.74 1.99 0 0.58 3.35 3.86 4.93 4.83 3.27 2 6.89 2.48 10.32 1.35 z m -24.59 -13.8 c -0.59 -1.51 -1.52 -5.68 -2 -9 -0.54 -3.71 -0.63 -13 -0.16 -16.1 0.16 -1.07 0.26 -1.99 0.2 -2.04 -0.19 -0.19 -3.18 1.26 -5.84 2.83 -10.1 5.97 -15.1 12.1 -13.9 17.19 1.12 4.87 7.94 7.87 18.1 7.96 l 3.95 0.03 l -0.33 -0.83 z m 51.3 0.38 c 3.37 -0.54 5.13 -1.05 7.23 -2.09 5.07 -2.5 6.39 -6.31 3.91 -11.27 -1.52 -3 -6.74 -7.79 -12 -10.92 -2.57 -1.53 -6.45 -3.45 -6.63 -3.28 -0.07 0.07 0.01 1.34 0.18 2.81 0.78 6.65 0.2 14.75 -1.54 21.46 -0.51 1.97 -0.93 3.62 -0.93 3.66 0 0.28 7.49 -0.01 9.77 -0.38 z m -43.2 -1.92 c 4.25 -2.11 7.21 -2.82 12.42 -3 3.39 -0.11 4.73 -0.03 6.51 0.38 2.48 0.58 5.4 1.79 7.75 3.2 0.85 0.51 1.66 0.81 1.8 0.68 0.25 -0.25 1.83 -5.69 1.83 -6.32 0 -0.18 -1.29 -0.96 -2.87 -1.72 -9.32 -4.5 -19.99 -4.49 -29.33 0.01 -2.86 1.38 -2.9 1.41 -2.74 2.36 0.18 1.07 1.48 5.87 1.59 5.87 0.04 0 1.4 -0.66 3 -1.47 z m -1 -16.87 c 2.31 -1.51 5.2 -2.81 7.71 -3.47 2.76 -0.72 8.53 -0.87 11.1 -0.28 4.12 0.96 7.89 2.88 11.37 5.81 0.97 0.81 1.86 1.48 1.98 1.48 0.23 0 -0.05 -5.92 -0.38 -7.94 -0.16 -0.98 -0.46 -1.34 -2.08 -2.45 -5.09 -3.49 -9.86 -5 -15.69 -5.07 -5 -0.03 -8.25 0.73 -12.78 2.99 -1.49 0.74 -3.27 1.85 -3.96 2.45 -1.18 1.03 -1.28 1.26 -1.55 3.37 -0.16 1.25 -0.3 3.26 -0.3 4.48 v 2.21 l 1.63 -1.33 c 0.9 -0.73 2.26 -1.75 3 -2.25 z m -10.47 -10.65 c 1.94 -0.86 2.02 -0.94 2.23 -2.19 0.31 -1.88 2.13 -7.1 3.42 -9.71 0.61 -1.25 1.82 -3.31 2.68 -4.56 l 1.57 -2.28 l -1.44 -1.58 c -0.79 -0.87 -2.07 -2.83 -2.83 -4.36 l -1.4 -2.77 l -2.85 -1.35 c -6.26 -2.96 -11.37 -4.27 -16.64 -4.26 -2.85 0.01 -3.92 0.14 -5.35 0.65 -4.68 1.68 -6.86 5.55 -5.67 10.1 1.31 4.97 6.16 10.79 13.97 16.75 3.81 2.91 9.22 6.5 9.79 6.5 0.28 0 1.42 -0.4 2.53 -0.89 z m 54.92 -1.42 c 9.75 -6.52 16.69 -13.31 19.1 -18.71 0.44 -0.97 0.73 -2.35 0.83 -3.98 0.14 -2.26 0.07 -2.64 -0.7 -4.18 -0.97 -1.92 -2.41 -3.09 -5.08 -4.1 -1.43 -0.54 -2.41 -0.67 -5.32 -0.68 -3.96 -0.02 -5.85 0.3 -10.34 1.71 -3.47 1.09 -9.21 3.76 -9.55 4.44 -0.12 0.25 -0.66 1.36 -1.2 2.47 -0.54 1.11 -1.72 2.89 -2.62 3.95 l -1.64 1.93 l 1.11 1.49 c 2.45 3.27 5.22 9.54 6.58 14.88 0.31 1.21 0.47 1.37 2.25 2.17 1.06 0.47 2.18 0.87 2.5 0.88 0.32 0.01 2.13 -1.02 4 -2.29 z m -43.4 -5.56 c 7.55 -4.96 18.1 -4.9 25.73 0.16 0.65 0.43 1.23 0.74 1.28 0.69 0.05 -0.05 -0.56 -1.17 -1.35 -2.49 -2 -3.31 -5.21 -6.43 -7.95 -7.74 -1.97 -0.94 -2.41 -1.03 -4.96 -1.03 -2.5 0 -3 0.1 -4.89 0.97 -2.39 1.11 -4.97 3.34 -6.9 5.98 -1.31 1.79 -2.78 4.38 -2.5 4.38 0.08 0 0.78 -0.41 1.55 -0.92 z m 1.2 -21.97 c 1.2 -1.22 1.78 -3.12 1.78 -5.89 0 -2.86 -0.41 -4.38 -1.54 -5.7 -2.2 -2.57 -5.08 -0.04 -5.49 4.82 -0.27 3.15 0.43 5.14 2.31 6.5 0.81 0.58 1.62 1.07 1.8 1.09 0.18 0.01 0.7 -0.35 1.15 -0.81 z m 25.85 -0.27 c 1.96 -1.32 2.38 -2.29 2.4 -5.54 0.02 -5.07 -2.53 -8.23 -5 -6.2 -2.56 2.1 -2.79 9.43 -0.37 11.96 0.47 0.49 0.96 0.89 1.1 0.89 0.13 0 0.98 -0.5 1.88 -1.1 z"/></g></svg>