<svg xmlns="http://www.w3.org/2000/svg" viewBox="0 0 256 256"><path d="m 3.25 157.3 c 49.98 239.9 393.9 -17.64 187.3 -139.6 c -80.2 -52.3 -213 16.2 -187.3 139.6" style="fill:#f9741e"/><path d="m 153.9 71.6 l 0.27 0.25 l 0.68 -0.25 m 7.7 8.1 l 47.55 44.3 v -44.3" style="fill-opacity:0.2"/><g style="fill:#fff"><path d="m 153.9 27.3 l 56.2 52.4 h -47.55 c -4.2 0 -8.64 -4.14 -8.64 -8.1 v -44.3" style="fill-opacity:0.39"/><path d="m 98.2 84.8 c -2.99 0 -5.76 1.08 -7.86 3.12 0 0 -26.1 25.1 -26.1 25.1 -1.99 2.05 -3.21 4.74 -3.21 7.65 0 0 -0.22 35.65 -0.22 35.65 0 2.91 1.11 5.6 3.21 7.65 0 0 25.8 25.42 25.8 25.42 2.1 1.94 4.87 3.12 7.86 3.12 0 0 36.65 0.22 36.65 0.22 2.99 0 5.76 -1.08 7.86 -3.12 0 0 26.1 -25.1 26.1 -25.1 1.99 -2.05 3.21 -4.74 3.21 -7.65 0 0 0.22 -35.65 0.22 -35.65 0 -2.91 -1.11 -5.6 -3.21 -7.65 0 0 -25.8 -25.42 -25.8 -25.42 -2.1 -1.94 -4.87 -3.12 -7.86 -3.12 0 0 -36.65 -0.22 -36.65 -0.22 m 36.3 40.5 c -3.54 0 -6.98 1.4 -9.52 3.88 -2.55 2.48 -3.99 5.82 -3.99 9.37 0 3.45 1.44 6.79 3.99 9.26 2.55 2.48 5.98 3.88 9.52 3.88 3.65 0 7.09 -1.4 9.63 -3.88 2.55 -2.48 3.99 -5.82 3.99 -9.26 0 -7.32 -6.09 -13.25 -13.62 -13.25 m -36.2 -12.28 c 5.76 0 11.29 1.83 15.83 5.28 0 0 -6.31 10.88 -6.31 10.88 -2.55 -2.48 -5.98 -3.88 -9.52 -3.88 -3.65 0 -7.09 1.4 -9.63 3.88 -2.55 2.48 -3.99 5.82 -3.99 9.37 0 3.45 1.44 6.79 3.99 9.26 2.55 2.48 5.98 3.88 9.63 3.88 3.43 0 6.75 -1.29 9.3 -3.55 0 0 6.42 10.66 6.42 10.66 -4.54 3.34 -10.1 5.17 -15.72 5.17 -6.98 0 -13.62 -2.69 -18.49 -7.43 -4.98 -4.85 -7.75 -11.31 -7.75 -17.99 0 -14.1 11.74 -25.53 26.2 -25.53 m 36.2 0 c 14.51 0 26.2 11.42 26.2 25.53 0 14 -11.74 25.42 -26.2 25.42 -6.87 0 -13.51 -2.69 -18.49 -7.43 -4.87 -4.85 -7.64 -11.31 -7.64 -17.99 0 -14.1 11.74 -25.53 26.1 -25.53" id="0" style="stroke-width:0.01"/></g></svg>