<svg xmlns="http://www.w3.org/2000/svg" viewBox="0 0 256 256"><path d="m 4.65 157 c 49.56 237.2 390.6 -17.44 185.7 -138 -79.5 -51.72 -211.2 16 -185.7 138" style="fill:#ff8c00"/><path d="m 162.9 75.5 l 0.25 0.25 l 0.63 -0.25 m 7.18 8 l 44.4 43.94 v -43.94" style="fill-opacity:0.2"/><g style="fill:#fff"><path d="m 162.6 29.73 l 53.1 53.4 h -44.96 c -3.97 0 -8.17 -4.22 -8.17 -8.26 v -45.1" style="fill-opacity:0.39"/><path d="m 139.2 161.7 v -12.95 h 3.79 h 3.79 v 6.63 v 6.63 h 8.21 h 8.21 v 6.32 v 6.32 h -11.99 h -11.99 v -12.95 z"/><path d="m 81.8 154.7 v -19.9 h -4.1 h -4.1 v -6.32 v -6.32 h 4.1 h 4.1 v -12.95 v -12.95 h 7.89 h 7.89 v 6.32 v 6.32 h -4.1 h -4.1 v 6.63 v 6.63 h 4.1 h 4.1 v 6.32 v 6.32 h -4.1 h -4.1 v 19.9 v 19.9 h -3.79 h -3.79 v -19.9 z"/><path d="m 106.4 135.5 v -39.2 h 3.79 h 3.79 v 12.95 v 12.95 h 4.1 h 4.1 v 6.32 v 6.32 h -4.1 h -4.1 v 13.58 v 13.58 h 4.1 h 4.1 v 6.32 v 6.32 h -7.89 h -7.89 v -39.2 z"/><path d="m 122.8 148.4 v -12.95 h 3.79 h 3.79 v 12.95 v 12.95 h -3.79 h -3.79 v -12.95 z"/><path d="m 139.2 115.6 v -6 h 7.89 h 7.89 v 6 v 6 h -7.89 h -7.89 v -6 z"/><path d="m 155.7 128.5 v -6.32 h 3.79 h 3.79 v 6.32 v 6.32 h -3.79 h -3.79 v -6.32 z"/><path d="m 147.4 141.8 v -6.32 h 3.79 h 3.79 v 6.32 v 6.32 h -3.79 h -3.79 v -6.32 z"/></g></svg>