<svg xmlns="http://www.w3.org/2000/svg" viewBox="0 0 256 256"><path d="m 3.25 157.3 c 49.98 239.9 393.9 -17.64 187.3 -139.6 c -80.2 -52.3 -213 16.2 -187.3 139.6" style="fill:#dcdcdc"/><path d="m 163.3 67.1 l 0.27 0.25 l 0.68 -0.25 m 7.7 8.1 l 47.55 44.3 v -44.3" style="fill-opacity:0.2"/><path d="m 163.7 22.79 l 56.2 52.4 h -47.55 c -4.2 0 -8.64 -4.14 -8.64 -8.1 v -44.3" style="fill:#fff;fill-opacity:0.39"/><g style="fill:#808080"><path d="m 45.4 217.2 c -0.28 -1.26 -0.62 -5.77 -0.77 -8 l -0.27 -4.07 l -7.89 -0.57 c -12.69 -0.91 -11.72 3.82 -11.39 -55.64 0.27 -48.5 0.35 -50.4 2.22 -51.76 2.88 -2.15 90.2 -2.15 93.1 0 1.86 1.38 1.95 3.2 2.22 41.2 0.24 33.86 0.06 40.3 -1.25 43.5 -1.93 4.71 -1.95 9.35 -0.06 13.96 1.36 3.31 1.33 3.79 -0.41 5.98 -1.86 2.34 -2.24 2.38 -25.73 2.88 l -23.84 0.51 l -0.22 7.47 c -0.23 7.64 -2.69 6.95 -8.32 1.77 -2.18 -2 -4.41 -3.64 -4.96 -3.64 -0.55 0 -2.74 1.6 -4.87 3.56 -4.48 4.12 -6.88 6.17 -7.6 2.92 z m -0.53 -26.84 l 0.58 -2.54 c 8.27 0 16.55 0 24.82 0 0.39 1.7 0.79 3.39 1.18 5.09 l 18.71 0.28 l 18.71 0.28 c 0 -3.42 0 -6.83 0 -10.25 l -36.2 0.27 l -36.2 0.27 l -0.32 3.4 c -0.5 5.34 0.31 6.43 4.52 6.07 3 -0.26 3.83 -0.79 4.3 -2.86 z m 65.1 -18.36 c 1.85 -1 1.93 -2.45 1.93 -32.37 0 -23 -0.32 -31.64 -1.2 -32.53 -1.72 -1.75 -62.88 -1.75 -64.6 0 -0.88 0.9 -1.2 9.42 -1.2 31.99 0 26.61 0.21 30.98 1.57 32.37 1.36 1.38 5.63 1.6 31.57 1.6 18.76 0 30.72 -0.39 31.93 -1.05 z m -56.82 -6.23 c -1.7 -1.73 -1.57 -8.47 0.18 -9.96 0.78 -0.66 3.37 -1.06 5.75 -0.89 l 4.32 0.32 c 0.83 4 0.83 9.11 0 11.2 -2.88 -0.12 -8 1.4 -10.26 -0.67 z m 0.51 -20.28 c -2.07 -1.23 -2.46 -8.97 -0.55 -10.91 0.66 -0.67 2.82 -1.22 4.8 -1.22 4.69 0 6 1.48 6 6.78 0 3.25 -0.49 4.61 -1.93 5.39 -2.75 0.94 -6.13 1.17 -8.32 -0.05 z m -0.13 -21.58 c -1.32 -0.98 -1.68 -2.43 -1.44 -5.83 0.27 -3.89 0.7 -4.66 3.07 -5.5 1.76 -0.63 3.74 -0.63 5.5 0 2.34 0.83 2.8 1.63 3.06 5.36 0.17 2.41 -0.22 5 -0.87 5.83 -1.47 1.81 -6.97 1.89 -9.32 0.14 z" transform="matrix(0.916 0 0 0.935 48.4 -3.64)"/></g></svg>