<svg xmlns="http://www.w3.org/2000/svg" viewBox="0 0 256 256"><defs><clipPath><path d="M 0,64 H64 V128 H0 z"/></clipPath></defs><g transform="translate(0 -796.4)" style="fill:#dcdcdc"><path d="m 3.25 953.7 c 49.98 239.9 393.9 -17.64 187.3 -139.6 -80.2 -52.3 -213 16.2 -187.3 139.6 z" style="fill:#f5f5f5;color:#000"/><g transform="matrix(4.239 0 0 4.04 30.55 823)" style="fill:#000"><path d="M 29,12 29.062,12.062 29.219,12 29,12 Z m 2,2 11,11 0,-11 -11,0 z" style="fill-opacity:0.2"/><path d="m 29 1 l 13 13 h -11 c -0.97 0 -2 -1.03 -2 -2 v -11" style="fill-opacity:0.39"/></g><path d="m 110.4 178.8 c -0.93 -7 -1.77 -8.3 -6.16 -9.26 -2.9 -0.64 -3.91 -0.12 -8.34 4.24 l -5 4.97 c -7.4 -5.52 -6.74 -4.06 -3.31 -12.13 2.95 -6.95 2.97 -7.15 1.06 -10.1 -1.89 -2.89 -2.16 -2.96 -9.22 -2.3 l -7.27 0.68 c -3 -8.2 -3.09 -8.25 4.13 -11.93 5.95 -3 6.51 -3.59 6.51 -6.82 0 -3.19 -0.62 -3.87 -6.44 -7.1 -5.64 -3.26 -7.11 -1.61 -5 -7.57 1.35 -3.86 1.59 -4 5.63 -3.55 9.42 1.07 11.29 0.74 13.1 -2.27 1.67 -2.73 1.61 -3.22 -1.09 -9.44 l -2.85 -6.56 c 7.44 -6.4 5.48 -6.97 11.73 0.01 5 5.61 5.07 5.63 8.94 4.35 3.69 -1.22 3.97 -1.66 5.44 -8.57 1.55 -7.28 1.55 -7.29 5.53 -7.62 4.4 -0.37 4.31 -0.53 5.96 10.1 0.8 5.14 1.06 5.48 4.92 6.44 3.93 0.97 4.27 0.82 9.25 -4.08 6.42 -6.88 5 -5.26 11.16 1.15 l -3 6.13 c -3 6.12 -3 6.15 -1.02 9.83 1.09 2.03 2.54 3.53 3.22 3.32 0.68 -0.2 4 -0.65 7.39 -1 6.64 -0.68 6 -1.13 8 5.83 0.49 1.73 -0.61 2.73 -5.97 5.44 -6 3 -6.57 3.62 -6.57 6.84 0 3.13 0.69 3.94 6.08 7.16 5.72 3.42 6 3.83 5.4 7 -0.37 1.85 -1.05 3.74 -1.51 4.2 -0.46 0.46 -3.94 0.29 -7.73 -0.38 -6.67 -1.17 -6.96 -1.13 -8.88 1.37 -2.58 3.35 -2.54 4.1 0.6 11.2 l 2.64 5.96 c -7.42 6.45 -5.49 6.79 -12.22 0.3 -5.2 -5 -5.73 -5.27 -9 -4.27 -3.14 0.96 -3.59 1.65 -4.67 7.16 -0.66 3.35 -1.4 6.7 -1.64 7.45 -8.2 4.38 -8.95 -0.43 -9.73 -6.24 z m 14 -34.8 c 6 -7.14 1.43 -17.27 -7.81 -17.27 -9.56 0 -13.88 11 -7 17.87 4.15 4.15 11.1 3.87 14.82 -0.6 z" transform="matrix(1.056 0 0 1.041 -5.69 798)" style="fill:#000;fill-opacity:0.96"/></g></svg>