<svg xmlns="http://www.w3.org/2000/svg" viewBox="0 0 256 256"><path d="m 253.5 158 c -49.98 239.9 -393.9 -17.64 -187.3 -139.6 80.2 -52.3 213 16.2 187.3 139.6" style="fill:#90d344"/><path d="m 156.8 68.7 l 0.27 0.25 l 0.68 -0.25 m 7.7 8.1 l 47.55 44.3 v -44.3" style="fill-opacity:0.2"/><path d="m 156 24.44 l 56.2 52.4 h -47.55 c -4.2 0 -8.64 -4.14 -8.64 -8.1 v -44.3" style="fill:#fff;fill-opacity:0.39"/><g style="fill:#4169e1"><path transform="matrix(0.647 -0.763 0.763 0.647 0 0)" d="m -65.4 171.5 h 6.14 v 40.66 h -6.14 z"/><path transform="matrix(0.649 0.761 0.761 -0.649 0 0)" d="m 164.2 -24.3 h 6.14 v 40.66 h -6.14 z"/><path transform="matrix(0.003 1 1 -0.007 0 0)" d="m 147.4 96.5 h 6.14 v 24.2 h -6.14 z"/></g><path d="m 90.9 156.7 a 15.53 15.73 0 1 1 -31.1 0 15.53 15.73 0 1 1 31.1 0 z" transform="matrix(1.099 0 0 1.11 0.71 -24.31)" style="fill:#6495ed"/><g style="fill:#fff"><rect width="54.1" height="13" x="115.2" y="143.6" rx="4.84" ry="6.52"/><rect ry="8.44" rx="6.76" y="105.6" x="115.2" height="16.88" width="54.1"/><rect width="54.1" height="18.41" x="116.7" y="178.1" rx="7.14" ry="9.21"/></g></svg>