<svg xmlns="http://www.w3.org/2000/svg" viewBox="0 0 256 256"><path d="m 3.25 157.3 c 49.98 239.9 393.9 -17.64 187.3 -139.6 c -80.2 -52.3 -213 16.2 -187.3 139.6" style="fill:#3771c8"/><path d="m 153.9 71.6 l 0.27 0.25 l 0.68 -0.25 m 7.7 8.1 l 47.55 44.3 v -44.3" style="fill-opacity:0.2"/><path d="m 153.9 27.3 l 56.2 52.4 h -47.55 c -4.2 0 -8.64 -4.14 -8.64 -8.1 v -44.3" style="fill:#fff;fill-opacity:0.39"/><g transform="matrix(7.246 0 0 8.135 -0.07 19.98)" style="fill:#87cdde"><path d="m 10.46 8.84 c -0.6 0 -0.92 0.7 -0.53 1.15 l 1.26 1.54 c -1.27 1.14 -2.29 2.73 -2.29 4.52 0 0.67 0.68 0.67 0.68 0.67 h 12.62 c 0 0 0.7 0 0.7 -0.71 0 -1.78 -1.03 -3.36 -2.29 -4.49 l 1.25 -1.53 c 0.39 -0.46 0.05 -1.17 -0.55 -1.15 -0.21 0.01 -0.4 0.1 -0.53 0.26 l -1.31 1.6 c -1.05 -0.62 -2.27 -0.98 -3.58 -0.98 -1.31 0 -2.53 0.36 -3.58 0.98 l -1.31 -1.6 c -0.13 -0.17 -0.33 -0.26 -0.55 -0.26 z m 1.93 4.38 c 0.48 0 0.88 0.39 0.88 0.88 0 0.48 -0.39 0.88 -0.88 0.88 -0.48 0 -0.88 -0.39 -0.88 -0.88 0 -0.48 0.39 -0.88 0.88 -0.88 z m 7 0 c 0.48 0 0.88 0.39 0.88 0.88 0 0.48 -0.39 0.88 -0.88 0.88 -0.48 0 -0.88 -0.39 -0.88 -0.88 0 -0.48 0.39 -0.88 0.88 -0.88 z" style="stroke-width:0.88"/><g aria-label=".aab"><path d="m 10.46 20.45 h 0.55 v 0.66 h -0.55 z"/><path d="m 13.41 19.65 q -0.58 0 -0.8 0.13 -0.22 0.13 -0.22 0.45 0 0.26 0.17 0.41 0.17 0.15 0.46 0.15 0.4 0 0.64 -0.28 0.24 -0.28 0.24 -0.75 v -0.11 z m 0.96 -0.2 v 1.66 h -0.48 v -0.44 q -0.16 0.27 -0.41 0.39 -0.24 0.13 -0.6 0.13 -0.45 0 -0.71 -0.25 -0.26 -0.25 -0.26 -0.67 0 -0.49 0.33 -0.74 0.33 -0.25 0.98 -0.25 h 0.67 v -0.05 q 0 -0.33 -0.22 -0.51 -0.22 -0.18 -0.61 -0.18 -0.25 0 -0.49 0.06 -0.24 0.06 -0.46 0.18 v -0.44 q 0.26 -0.1 0.51 -0.15 0.25 -0.05 0.48 -0.05 0.63 0 0.95 0.33 0.31 0.33 0.31 0.99 z"/><path d="m 16.68 19.65 q -0.58 0 -0.8 0.13 -0.22 0.13 -0.22 0.45 0 0.26 0.17 0.41 0.17 0.15 0.46 0.15 0.4 0 0.64 -0.28 0.24 -0.28 0.24 -0.75 v -0.11 z m 0.96 -0.2 v 1.66 h -0.48 v -0.44 q -0.16 0.27 -0.41 0.39 -0.24 0.13 -0.6 0.13 -0.45 0 -0.71 -0.25 -0.26 -0.25 -0.26 -0.67 0 -0.49 0.33 -0.74 0.33 -0.25 0.98 -0.25 h 0.67 v -0.05 q 0 -0.33 -0.22 -0.51 -0.22 -0.18 -0.61 -0.18 -0.25 0 -0.49 0.06 -0.24 0.06 -0.46 0.18 v -0.44 q 0.26 -0.1 0.51 -0.15 0.25 -0.05 0.48 -0.05 0.63 0 0.95 0.33 0.31 0.33 0.31 0.99 z"/><path d="m 20.72 19.66 q 0 -0.53 -0.22 -0.83 -0.22 -0.3 -0.6 -0.3 -0.38 0 -0.6 0.3 -0.22 0.3 -0.22 0.83 0 0.53 0.22 0.83 0.22 0.3 0.6 0.3 0.38 0 0.6 -0.3 0.22 -0.3 0.22 -0.83 z m -1.63 -1.02 q 0.15 -0.26 0.38 -0.39 0.23 -0.13 0.55 -0.13 0.53 0 0.86 0.42 0.33 0.42 0.33 1.11 0 0.69 -0.33 1.11 -0.33 0.42 -0.86 0.42 -0.32 0 -0.55 -0.13 -0.23 -0.13 -0.38 -0.39 v 0.44 h -0.48 v -4.05 h 0.48 z"/></g></g></svg>