<svg xmlns="http://www.w3.org/2000/svg" viewBox="0 0 256 256"><g transform="translate(0 -796.4)"><path d="m 3.25 953.7 c 49.98 239.9 393.9 -17.64 187.3 -139.6 -80.2 -52.3 -213 16.2 -187.3 139.6 z" style="fill:#e7ecf0;color:#000"/><g transform="matrix(4.323 0 0 4.03 28.57 819.6)"><path d="M 29,12 29.062,12.062 29.219,12 29,12 Z m 2,2 11,11 0,-11 -11,0 z" style="fill-opacity:0.2"/><path d="m 29 1 l 13 13 h -11 c -0.97 0 -2 -1.03 -2 -2 v -11" style="fill:#fff;fill-opacity:0.39"/></g></g><path d="m 188.5 157.4 c 0.45 -0.96 -0.06 -1.96 -2.21 -4.32 -3.09 -3.4 -6.61 -9.4 -9.44 -16.1 -2.82 -6.67 -3.31 -8.72 -5.35 -22.2 -0.55 -3.61 -1.15 -6.94 -1.35 -7.41 -0.23 -0.55 -2.19 -1.43 -5.63 -2.54 -5.7 -1.83 -8.47 -3.64 -11.94 -7.82 -2.59 -3.12 -6.33 -12.1 -7.35 -17.63 -0.7 -3.78 -0.86 -4.21 -1.7 -4.49 -1.03 -0.34 -23.25 2.2 -24.71 2.82 -1.11 0.48 -1.54 1.53 -2 4.99 -0.52 3.77 -3.47 10.37 -6.42 14.37 -1.38 1.87 -2.83 3.87 -3.23 4.44 l -0.72 1.04 l 16 38.1 c 12.23 29.1 16.18 38.1 16.73 38.3 1.04 0.35 48.86 -20.59 49.3 -21.59 z m -26.86 6.8 c -0.89 -2.12 -2.03 -2.83 -3.49 -2.19 -1.46 0.64 -1.74 1.98 -0.85 4.09 l 0.48 1.14 l -8.25 3.61 l -8.25 3.61 l -3.44 -8.18 l -3.44 -8.18 l 1.27 -0.56 c 2.36 -1.03 3.23 -2.17 2.68 -3.48 -0.55 -1.31 -1.96 -1.45 -4.32 -0.42 l -1.27 0.56 l -10.8 -25.68 l -10.8 -25.68 l 2.37 -3.24 c 3.69 -5 6.52 -11.57 7.66 -17.62 0.15 -0.82 0.87 -0.97 9.42 -2.04 5.09 -0.64 9.46 -1.1 9.7 -1.04 0.24 0.07 0.88 1.99 1.42 4.28 3.19 13.57 10.75 22.6 21.49 25.66 l 3.2 0.91 l 0.68 4.53 c 2.45 16.33 3.74 21.1 7.93 29.2 1.57 3.04 3.94 7 5.27 8.85 1.33 1.83 2.47 3.46 2.54 3.62 0.07 0.16 -4.56 2.34 -10.29 4.85 l -10.42 4.56 l -0.48 -1.14 z m -3.47 -7 c 0 -0.67 -0.21 -1.72 -0.47 -2.33 -0.26 -0.61 -0.86 -1.49 -1.33 -1.95 -0.73 -0.7 -1.08 -0.72 -2.22 -0.09 -1.19 0.64 -1.33 0.95 -1.15 2.38 0.13 1 0.6 2.13 1.23 2.92 0.89 1.12 1.2 1.22 2.48 0.79 1.23 -0.42 1.46 -0.69 1.47 -1.71 z m 11.15 -14.82 c 0.69 -0.65 0.72 -1.04 0.18 -2 -0.58 -1.06 -0.9 -1.16 -2.45 -0.86 -1.09 0.22 -2.35 0.77 -3.26 1.43 -1.29 0.94 -1.43 1.24 -1.08 2.4 0.33 1.11 0.61 1.31 1.7 1.22 1.59 -0.13 3.75 -1.09 4.9 -2.17 z m -10.42 4.56 c 0.69 -0.65 0.72 -1.04 0.18 -2 -0.58 -1.06 -0.9 -1.16 -2.45 -0.86 -1.09 0.22 -2.35 0.77 -3.26 1.43 -1.29 0.94 -1.43 1.24 -1.08 2.4 0.33 1.11 0.61 1.31 1.7 1.22 1.59 -0.13 3.75 -1.09 4.9 -2.17 z m -10.42 4.56 c 0.69 -0.65 0.72 -1.04 0.18 -2 -0.58 -1.06 -0.9 -1.16 -2.45 -0.86 -1.09 0.22 -2.35 0.77 -3.26 1.43 -1.29 0.94 -1.43 1.24 -1.08 2.4 0.33 1.11 0.61 1.31 1.7 1.22 1.59 -0.13 3.75 -1.09 4.9 -2.17 z m 3.14 -9.88 c 0 -0.67 -0.21 -1.72 -0.47 -2.33 -0.26 -0.61 -0.86 -1.49 -1.33 -1.95 -0.73 -0.7 -1.08 -0.72 -2.22 -0.09 -1.19 0.64 -1.33 0.95 -1.15 2.38 0.13 1 0.6 2.13 1.23 2.92 0.89 1.12 1.2 1.22 2.48 0.79 1.23 -0.42 1.46 -0.69 1.47 -1.71 z m -3.93 -9.35 c 0 -0.67 -0.21 -1.72 -0.47 -2.33 -0.26 -0.61 -0.86 -1.49 -1.33 -1.95 -0.73 -0.7 -1.08 -0.72 -2.22 -0.09 -1.19 0.64 -1.33 0.95 -1.15 2.38 0.13 1 0.6 2.13 1.23 2.92 0.89 1.12 1.2 1.22 2.48 0.79 1.23 -0.42 1.46 -0.69 1.47 -1.71 z m 16.36 -17.1 c 0.69 -0.65 0.72 -1.04 0.18 -2 -0.58 -1.06 -0.9 -1.16 -2.45 -0.86 -1.09 0.22 -2.35 0.77 -3.26 1.43 -1.29 0.94 -1.43 1.24 -1.08 2.4 0.33 1.11 0.61 1.31 1.7 1.22 1.59 -0.13 3.75 -1.09 4.9 -2.17 z m -10.42 4.56 c 0.69 -0.65 0.72 -1.04 0.18 -2 -0.58 -1.06 -0.9 -1.16 -2.45 -0.86 -1.09 0.22 -2.35 0.77 -3.26 1.43 -1.29 0.94 -1.43 1.24 -1.08 2.4 0.33 1.11 0.61 1.31 1.7 1.22 1.59 -0.13 3.75 -1.09 4.9 -2.17 z m -10.42 4.56 c 0.69 -0.65 0.72 -1.04 0.18 -2 -0.58 -1.06 -0.9 -1.16 -2.45 -0.86 -1.09 0.22 -2.35 0.77 -3.26 1.43 -1.29 0.94 -1.43 1.24 -1.08 2.4 0.33 1.11 0.61 1.31 1.7 1.22 1.59 -0.13 3.75 -1.09 4.9 -2.17 z m -10.42 4.56 c 0.69 -0.65 0.72 -1.04 0.18 -2 -0.58 -1.06 -0.9 -1.17 -2.45 -0.86 -1.09 0.22 -2.35 0.77 -3.26 1.43 -1.29 0.94 -1.43 1.24 -1.08 2.4 0.33 1.11 0.61 1.31 1.7 1.22 1.59 -0.13 3.75 -1.09 4.9 -2.17 z m 8.35 -12.16 c 0 -0.67 -0.21 -1.72 -0.47 -2.33 -0.26 -0.61 -0.86 -1.49 -1.33 -1.95 -0.73 -0.7 -1.08 -0.72 -2.22 -0.09 -1.19 0.64 -1.33 0.95 -1.15 2.38 0.13 1 0.6 2.13 1.23 2.92 0.89 1.12 1.2 1.22 2.48 0.79 1.23 -0.42 1.46 -0.69 1.47 -1.71 z m -3.93 -9.35 c 0 -0.67 -0.21 -1.72 -0.47 -2.33 -0.26 -0.61 -0.86 -1.49 -1.33 -1.95 -0.73 -0.7 -1.08 -0.72 -2.22 -0.09 -1.19 0.64 -1.33 0.95 -1.15 2.38 0.13 1 0.6 2.13 1.23 2.92 0.89 1.12 1.2 1.22 2.48 0.79 1.23 -0.42 1.46 -0.69 1.47 -1.71 z m -3.93 -9.35 c 0 -0.67 -0.21 -1.72 -0.47 -2.33 -0.26 -0.61 -0.86 -1.49 -1.33 -1.95 -0.73 -0.7 -1.08 -0.72 -2.22 -0.09 -1.19 0.64 -1.33 0.95 -1.15 2.38 0.13 1 0.6 2.13 1.23 2.92 0.89 1.12 1.2 1.22 2.48 0.79 1.23 -0.42 1.46 -0.69 1.47 -1.71 z m -3.93 -9.35 c 0 -0.67 -0.21 -1.72 -0.47 -2.33 -0.26 -0.61 -0.86 -1.49 -1.33 -1.95 -0.73 -0.7 -1.08 -0.72 -2.22 -0.09 -1.19 0.64 -1.33 0.95 -1.15 2.38 0.13 1 0.6 2.13 1.23 2.92 0.89 1.12 1.2 1.22 2.48 0.79 1.23 -0.42 1.46 -0.69 1.47 -1.71 z m 1.18 92.3 c 0.46 -0.99 -7.76 -20.54 -8.78 -20.88 -1.03 -0.35 -43.65 18.31 -44.1 19.31 -0.46 0.99 7.76 20.54 8.78 20.88 1.03 0.35 43.65 -18.31 44.1 -19.31 z m -21.65 4.52 c -0.89 -2.12 -2.03 -2.83 -3.49 -2.19 -1.46 0.64 -1.74 1.98 -0.85 4.09 l 0.48 1.14 l -8.25 3.61 l -8.25 3.61 l -1.15 -2.73 l -1.15 -2.73 l 2.14 -0.94 c 3.22 -1.41 4.15 -2.43 3.55 -3.86 -0.6 -1.43 -1.97 -1.44 -5.19 -0.04 l -2.14 0.94 l -1.15 -2.73 l -1.15 -2.73 l 8.19 -3.58 l 8.19 -3.58 l 0.94 1.09 c 0.82 0.96 1.12 1 2.42 0.44 1.31 -0.57 1.47 -0.83 1.36 -2.09 l -0.13 -1.44 l 8.19 -3.58 l 8.19 -3.58 l 1.15 2.73 l 1.15 2.73 l -2.14 0.94 c -3.22 1.41 -4.15 2.43 -3.55 3.86 0.6 1.43 1.97 1.44 5.19 0.04 l 2.14 -0.94 l 1.15 2.73 l 1.15 2.73 l -8.25 3.61 l -8.25 3.61 l -0.48 -1.14 z m 3.58 -7.16 c 0.69 -0.65 0.72 -1.04 0.18 -2 -0.58 -1.06 -0.9 -1.16 -2.45 -0.86 -1.09 0.22 -2.35 0.77 -3.26 1.43 -1.29 0.94 -1.43 1.24 -1.08 2.4 0.33 1.11 0.61 1.31 1.7 1.22 1.59 -0.13 3.75 -1.09 4.9 -2.17 z m -10.42 4.56 c 0.69 -0.65 0.72 -1.04 0.18 -2 -0.58 -1.06 -0.9 -1.16 -2.45 -0.86 -1.09 0.22 -2.35 0.77 -3.26 1.43 -1.29 0.94 -1.43 1.24 -1.08 2.4 0.33 1.11 0.61 1.31 1.7 1.22 1.59 -0.13 3.75 -1.09 4.9 -2.17 z m 12.63 -30.53 c 0.29 -1.43 -11.46 -48.3 -12.39 -49.4 -0.37 -0.45 -2.09 -1.04 -3.85 -1.34 -1.75 -0.29 -5.67 -1.23 -8.71 -2.09 -3.4 -0.96 -6.82 -1.57 -8.88 -1.57 -3.18 -0.01 -3.6 0.1 -8.36 2.18 -4.76 2.08 -5.13 2.32 -7.31 4.68 -1.42 1.53 -3.34 4.47 -5 7.65 -1.48 2.84 -3.52 6.39 -4.52 7.88 -1 1.5 -1.77 3.19 -1.7 3.77 0.16 1.46 25.34 42.4 26.55 43.2 l 0.97 0.61 l 16.48 -7.21 l 16.48 -7.21 l 0.23 -1.14 z m -32.82 9.75 c -0.43 -0.64 -5.9 -9.5 -12.17 -19.7 l -11.4 -18.54 l 1.12 -1.88 c 0.62 -1.03 2.15 -3.78 3.39 -6.1 4.64 -8.63 6.12 -10.29 11.1 -12.46 4.97 -2.17 7.16 -2.12 16.49 0.39 2.51 0.68 5.51 1.44 6.67 1.69 l 2.11 0.46 l 5.3 21.2 c 2.92 11.66 5.43 21.82 5.59 22.58 l 0.29 1.37 l -13.86 6.1 l -13.86 6.1 l -0.77 -1.16 z m 14.81 -9.37 c 0 -0.67 -0.21 -1.72 -0.47 -2.33 -0.26 -0.61 -0.86 -1.49 -1.33 -1.95 -0.73 -0.7 -1.08 -0.72 -2.22 -0.09 -1.19 0.65 -1.33 0.95 -1.15 2.38 0.13 1 0.6 2.13 1.23 2.92 0.89 1.12 1.2 1.22 2.48 0.79 1.23 -0.42 1.46 -0.69 1.47 -1.71 z m -3.93 -9.35 c 0 -0.67 -0.21 -1.72 -0.47 -2.33 -0.26 -0.61 -0.86 -1.49 -1.33 -1.95 -0.73 -0.7 -1.08 -0.72 -2.22 -0.09 -1.19 0.64 -1.33 0.95 -1.15 2.38 0.13 1 0.6 2.13 1.23 2.92 0.89 1.12 1.2 1.22 2.48 0.79 1.23 -0.42 1.46 -0.69 1.47 -1.71 z m -3.93 -9.35 c 0 -0.67 -0.21 -1.72 -0.47 -2.33 -0.26 -0.61 -0.86 -1.49 -1.33 -1.95 -0.73 -0.7 -1.08 -0.72 -2.22 -0.09 -1.19 0.64 -1.33 0.95 -1.15 2.38 0.13 1 0.6 2.13 1.23 2.92 0.89 1.12 1.2 1.22 2.48 0.79 1.23 -0.42 1.46 -0.69 1.47 -1.71 z m -3.93 -9.35 c 0 -0.67 -0.21 -1.72 -0.47 -2.33 -0.26 -0.61 -0.86 -1.49 -1.33 -1.95 -0.73 -0.7 -1.08 -0.72 -2.22 -0.09 -1.19 0.64 -1.33 0.95 -1.15 2.38 0.13 1 0.6 2.13 1.23 2.92 0.89 1.12 1.2 1.22 2.48 0.79 1.23 -0.42 1.46 -0.69 1.47 -1.71 z m 11.13 -14.8 c 0.61 -0.57 0.69 -1.1 0.33 -1.97 -0.61 -1.46 -2.56 -1.48 -4.39 -0.06 -0.94 0.73 -1.09 1.15 -0.77 2.22 0.33 1.1 0.6 1.3 1.7 1.2 1.54 -0.13 2.03 -0.35 3.14 -1.39 z m -8.66 3.78 c 0.69 -0.65 0.72 -1.04 0.18 -2 -0.58 -1.06 -0.9 -1.16 -2.45 -0.86 -1.09 0.22 -2.35 0.77 -3.26 1.43 -1.29 0.94 -1.43 1.24 -1.08 2.4 0.33 1.11 0.61 1.31 1.7 1.22 1.59 -0.13 3.75 -1.09 4.9 -2.17 z m -10.42 4.56 c 0.69 -0.65 0.72 -1.04 0.18 -2 -0.58 -1.06 -0.9 -1.16 -2.45 -0.86 -1.09 0.22 -2.35 0.77 -3.26 1.43 -1.29 0.94 -1.43 1.24 -1.08 2.4 0.33 1.11 0.61 1.31 1.7 1.22 1.59 -0.13 3.75 -1.09 4.9 -2.17 z m -10.45 4.58 c 0.61 -0.57 0.69 -1.1 0.33 -1.97 -0.61 -1.46 -2.56 -1.48 -4.39 -0.06 -0.94 0.73 -1.09 1.15 -0.77 2.22 0.33 1.1 0.6 1.3 1.7 1.2 1.54 -0.13 2.03 -0.35 3.14 -1.39 z m 12.5 -12.15 c 0 -0.67 -0.21 -1.72 -0.47 -2.33 -0.26 -0.61 -0.86 -1.49 -1.33 -1.95 -0.73 -0.7 -1.08 -0.72 -2.22 -0.09 -1.19 0.64 -1.33 0.95 -1.15 2.38 0.13 1 0.6 2.13 1.23 2.92 0.89 1.12 1.2 1.22 2.48 0.79 1.23 -0.42 1.46 -0.69 1.47 -1.71 z"/></svg>