<svg xmlns="http://www.w3.org/2000/svg" viewBox="0 0 256 256"><path d="m 3.25 157.3 c 49.98 239.9 393.9 -17.64 187.3 -139.6 c -80.2 -52.3 -213 16.2 -187.3 139.6" style="fill:#41ab93"/><path d="m 153.9 71.6 l 0.27 0.25 l 0.68 -0.25 m 7.7 8.1 l 47.55 44.3 v -44.3" style="fill-opacity:0.2"/><path d="m 153.9 27.3 l 56.2 52.4 h -47.55 c -4.2 0 -8.64 -4.14 -8.64 -8.1 v -44.3" style="fill:#fff;fill-opacity:0.39"/><g transform="matrix(11.217 0 0 9.839 19 36.45)"><g transform="matrix(1 0 0 1.23 0 -1.64)" style="fill:#e4e4e4"><path d="m 10.39 7.13 h 0.42 v 4.19 h -0.42 z"/><path d="m 8.29 7.13 h 0.42 v 4.19 h -0.42 z"/><path d="m 6.84 7.22 l 0.41 0.07 l -0.82 4.12 l -0.41 -0.07 z"/></g><circle r="1" cy="12" cx="6.5" transform="matrix(0.932 0 0 1 0.03 0.73)" style="fill:#3f3f3f"/><path d="m 4.43 7 c -0.24 0 -0.44 0.19 -0.43 0.43 v 7.3 h 1 v -6.63 h 7 v 6.63 h 1 v -7.3 c 0 -0.24 -0.19 -0.43 -0.43 -0.43" style="fill:#4f4f4f"/><g transform="matrix(1 0 0 1.019 0.03 0.56)" style="fill:#3f3f3f"><circle r="1" cy="12" cx="8.5" transform="matrix(0.932 0 0 1 0.51 0)"/><circle r="1" cy="12" cx="10.5" transform="matrix(0.949 0 0 1 0.58 0)"/></g></g></svg>