<svg xmlns="http://www.w3.org/2000/svg" viewBox="0 0 256 256"><path d="m 3.25 157.3 c 49.98 239.9 393.9 -17.64 187.3 -139.6 c -80.2 -52.3 -213 16.2 -187.3 139.6" style="fill:#dcdcdc"/><path d="m 153.9 71.6 l 0.27 0.25 l 0.68 -0.25 m 7.7 8.1 l 47.55 44.3 v -44.3" style="fill-opacity:0.2"/><path d="m 153.9 27.3 l 56.2 52.4 h -47.55 c -4.2 0 -8.64 -4.14 -8.64 -8.1 v -44.3" style="fill:#fff;fill-opacity:0.39"/><g style="fill:#878787"><path d="m 110.4 132.3 v -13.1 c 0 -1.48 1.23 -2.67 2.76 -2.67 h 9.52 c 1.52 0 2.76 1.2 2.76 2.67 v 23.96 c 0 0.37 -0.19 0.65 -0.38 0.92 l -2.38 2.3 c -0.57 0.55 -0.57 1.38 0 1.84 l 2.38 2.3 c 0.28 0.27 0.38 0.55 0.38 0.92 v 13.1 c 0 1.48 -1.23 2.67 -2.76 2.67 h -9.52 c -1.52 0 -2.76 -1.2 -2.76 -2.67 v -23.96 c 0 -0.37 0.19 -0.65 0.38 -0.92 l 2.38 -2.3 c 0.57 -0.55 0.57 -1.38 0 -1.84 l -2.38 -2.3 c -0.28 -0.27 -0.38 -0.55 -0.38 -0.92 z m 42.91 9.58 c 0 -18.98 -15.89 -34.4 -35.49 -34.4 -19.6 0 -35.49 15.39 -35.49 34.4 0 18.98 15.89 34.4 35.49 34.4 19.6 0 35.49 -15.39 35.49 -34.4 z m 11.23 0 c 0 24.97 -20.93 45.1 -46.62 45.1 -25.78 0 -46.62 -20.27 -46.62 -45.1 0 -24.97 20.93 -45.1 46.62 -45.1 25.69 0 46.62 20.2 46.62 45.1 z m -102.7 0 c 0 29.94 25 54.2 55.95 54.2 30.93 0 55.95 -24.2 55.95 -54.2 0 -29.94 -25 -54.2 -55.95 -54.2 -30.92 0 -55.95 24.2 -55.95 54.2 z m -3.8 0 c 0 -31.97 26.73 -57.86 59.75 -57.86 33 0 59.75 25.89 59.75 57.86 0 31.97 -26.73 57.86 -59.75 57.86 -33 0 -59.75 -25.89 -59.75 -57.86 z" style="fill:#777;stroke-width:0.67"/></g></svg>