<svg xmlns="http://www.w3.org/2000/svg" viewBox="0 0 256 256"><path d="m 3.25 157.3 c 49.98 239.9 393.9 -17.64 187.3 -139.6 c -80.2 -52.3 -213 16.2 -187.3 139.6" style="fill:#a16884"/><path d="m 153.9 71.6 l 0.27 0.25 l 0.68 -0.25 m 7.7 8.1 l 47.55 44.3 v -44.3" style="fill-opacity:0.2"/><g style="fill:#fff"><path d="m 153.9 27.3 l 56.2 52.4 h -47.55 c -4.2 0 -8.64 -4.14 -8.64 -8.1 v -44.3" style="fill-opacity:0.39"/><path d="m 89.2 189.6 c -10.49 -3.47 -24.55 -8.58 -25.32 -9.2 -1.4 -1.12 -2.47 -5.29 -2.56 -9.94 -0.05 -2.55 -0.11 -4.82 -0.14 -5 -0.03 -0.23 -0.99 -1.04 -2.14 -1.82 -4.82 -3.26 -6 -5.73 -5.72 -11.68 0.15 -2.84 0.47 -4.48 1.11 -5.71 1.13 -2.16 1.78 -2.72 5.63 -4.73 1.71 -0.89 3.35 -2 3.65 -2.48 0.3 -0.47 0.84 -2.81 1.2 -5.21 0.93 -6.12 1.31 -6.86 4.33 -8.26 3.67 -1.7 12.41 -4.9 21.93 -8 10.1 -3.3 11 -3.35 18.4 -1.1 5.29 1.62 27 9.12 27.2 9.38 -0.66 5.95 -3.22 9.17 0.12 18.26 -0.14 0.36 -2.24 1.61 -4.66 2.78 -2.42 1.16 -5.07 2.52 -5.88 3 -3.83 2.33 -1.66 7.94 4.19 10.84 3.39 1.68 4.95 2.98 2.84 6.18 -1.98 3 -2.62 6.57 -0.06 8.45 3.47 2.55 0.96 4.58 -1.43 5.76 -4.12 2.04 -28.77 10.67 -32.1 11.25 -1.2 0.2 -3.5 -0.39 -10.53 -2.72 z m 21.9 -4.42 c 13.17 -4.43 17.67 -6.36 18.79 -8 -1.43 -4.05 0.26 -6.63 -0.7 -10.49 -0.33 -1.2 0.69 -0.94 -1.37 -0.7 -2.51 0.29 -15 4.26 -22.85 7.25 -5.66 2.16 -7.09 3.14 -8.48 5.85 -0.97 1.9 -3.16 0.56 -4.33 -0.52 -1.77 -1.63 -23.56 -9.89 -26.44 -10.2 -1.32 -0.14 -1.32 -0.14 -1.45 2.38 -0.09 1.75 1.03 5.48 1.51 6.2 0.88 1.31 7.5 3.35 16.8 7.65 18.91 8.76 8.23 -5 11.16 -7.89 1.43 -1.4 1.77 8.42 3.36 10.3 1 1.18 1.94 2.14 2.08 2.14 0.14 0 5.5 -1.77 11.91 -3.92 z m -14.1 -16.19 c 4.4 -1.24 23.61 -6.85 25.76 -7.92 2.71 -1.35 0.01 -2.34 -0.06 -5.38 -0.08 -3.1 0.51 -4.79 -0.73 -4.79 -0.47 0 -5.17 1.28 -8.97 2.53 -4.73 2.28 -9.1 2.26 -14.23 2.26 -4.24 1.24 -5.79 1.19 -9.1 1.69 l -2.47 6.77 l -1.43 -6.22 c -4.34 -2.32 -22.95 -8.99 -26.7 -9.57 -1.53 -0.24 -1.99 -0.13 -2.8 0.67 -0.86 0.85 -0.94 1.27 -0.75 3.95 0.28 3.84 1.03 4.85 5.19 6.92 3.61 1.8 18.93 7.31 23.93 8.57 3.09 0.78 -1.98 -14.16 2.59 -8.7 1.14 3.85 -0.68 7.68 2.98 10.23 1.04 0.56 1.4 0.51 6.78 -1 z m 13.91 -18.59 c 6.9 -2.19 16.49 -5.6 19.63 -6.99 2.84 -1.25 1.38 -1.01 1.64 -6.28 0.31 -6.36 1.97 -8.25 -5.47 -6.16 -4.08 1.15 -17.62 6.1 -21.58 7.89 -2.59 1.17 -3.3 1.72 -4 3.1 -1.82 3.51 -1.74 8 0.18 9.9 1.24 1.22 1.05 1.25 9.63 -1.46 z m -13.87 -1.12 c 0.27 -0.32 0.62 -1.79 0.78 -3.28 0.22 -2.07 0.14 -2.78 -0.33 -3.08 -0.76 -0.48 -18.93 -6.41 -24.2 -7.92 -5.29 -1.5 -5.55 -1.48 -5.54 0.52 0.01 3.45 1.9 4.96 9.86 7.92 4.65 1.73 18.1 6.34 18.7 6.39 0.15 0.01 0.5 -0.24 0.77 -0.56 z m -21.35 -1.5 c 0 -0.81 -11.17 -5.06 -12.26 -5.34 -1.04 -0.27 -3.46 0.76 -3.79 1.6 -0.34 0.87 1.85 0.55 4.67 1.43 3.06 0.96 11.38 3.08 11.38 2.3 z" transform="matrix(1.301 0 0 1.383 -16 -64.93)" style="fill:#fff"/></g></svg>