<svg xmlns="http://www.w3.org/2000/svg" viewBox="0 0 256 256"><path d="m 3.25 157.3 c 49.98 239.9 393.9 -17.64 187.3 -139.6 c -80.2 -52.3 -213 16.2 -187.3 139.6" style="fill:#4682b4"/><path d="m 153.9 71.6 l 0.27 0.25 l 0.68 -0.25 m 7.7 8.1 l 47.55 44.3 v -44.3" style="fill-opacity:0.2"/><g style="fill:#fff"><path d="m 153.9 27.3 l 56.2 52.4 h -47.55 c -4.2 0 -8.64 -4.14 -8.64 -8.1 v -44.3" style="fill-opacity:0.39"/><path d="m 106.6 151.5 c -8.22 -3.96 -13.65 -10.41 -13.98 -22.4 -0.11 -4.09 0.52 -12.23 3.49 -14.59 17.2 -13.69 9.17 -38.89 19.42 -28 2.45 2.61 11.13 15.86 12.58 19.2 5.2 11.79 7.75 29.46 0.11 39 -2.71 3.39 -6.59 6.32 -9.83 7.41 -3.7 1.25 -8.46 1 -11.8 -0.6 z"/><path d="m 104.1 140.5 c 7.87 0 11.41 -0.33 19.28 -0.33 0 17.78 5.54 35.56 5.54 53.3 -7.87 0 -22.5 0.31 -30.37 0.31 0 -17.78 5.54 -35.53 5.54 -53.3 z"/></g><path d="m 100.6 154.2 h 27.2 v 5.52 h -27.2 z" style="fill:#4682b4"/></svg>