<svg xmlns="http://www.w3.org/2000/svg" viewBox="0 0 256 256"><path d="m 3.25 157.3 c 49.98 239.9 393.9 -17.64 187.3 -139.6 c -80.2 -52.3 -213 16.2 -187.3 139.6" style="fill:#32cd32"/><path d="m 153.9 71.6 l 0.27 0.25 l 0.68 -0.25 m 7.7 8.1 l 47.55 44.3 v -44.3" style="fill-opacity:0.2"/><path d="m 153.9 27.3 l 56.2 52.4 h -47.55 c -4.2 0 -8.64 -4.14 -8.64 -8.1 v -44.3" style="fill:#fff;fill-opacity:0.39"/><g transform="matrix(0.9 0 0 0.89 -34.81 37.3)"><g style="stroke:#000;stroke-width:1.18"><path d="m 115.8,101.6 c -1.64,5.29 -2.47,11.1 -2.47,16.94 0,14.47 5.28,27.65 14.1,37.77 L 159,101.71 h -43.2 z" style="fill:#c0f"/><path d="m 128.5 157.5 c 10.45 11.3 25.35 18.36 42 18.36 3.76 0 7.39 -0.35 10.92 -1.06 l -31.2 -54.71 z" style="fill:#4c3dff"/><path d="m 212.2 79.3 c -10.45 -11.1 -25.2 -18 -41.67 -18 -3.76 0 -7.51 0.35 -11.15 1.06 l 31.3 54.6 z" style="fill:#ff8433"/><path d="m 157.8 62.69 c -19.48 4.35 -35.2 18.83 -41.4 37.42 h 63 z" style="fill:#f00"/></g><path d="m 225.2 135.4 c 1.64 -5.29 2.47 -11.1 2.47 -16.94 0 -14.59 -5.52 -27.89 -14.44 -38.1 l -31.2 54.95 h 43.2 z" style="fill:#05d504;stroke:#0d0707;stroke-width:1.88"/><path d="m 182.9 174.5 c 19.6 -4.35 35.3 -18.83 41.67 -37.53 h -63.2 z" style="fill:#fff200;stroke:#000;stroke-width:1.95"/><g style="fill:#fff"><g style="stroke-width:1.18"><path d="m 180.7,100.1 v 1.53 h -0.35 l 9.63,16.83 0.82,-1.53 -31.3,-54.6 c -0.59,0.12 -1.06,0.24 -1.53,0.35 l 21.6,37.42 z"/><path d="m 159.7,100.6 1.29,0.71 -0.23,0.35 h 19.48 l -0.94,-1.53 h -63 c -0.23,0.47 -0.35,1.06 -0.47,1.53 h 43.2 z"/></g><path d="m 259.9,200.5 0.7,1.3 h 0.4 v -1.3" transform="matrix(1.174 0 0 1.177 -125.6 -135.8)"/><g style="stroke-width:1.18"><path d="m 125.9,158.9 1.29,0.71 1.29,-2.24 c -0.35,-0.35 -0.7,-0.82 -1.06,-1.18 z"/><path d="m 149.5,118.9 1.29,-0.71 0.23,0.35 9.74,-16.83 H 159 l -31.58,54.6 c 0.35,0.35 0.7,0.82 1.06,1.18 l 21.6,-37.42 z"/></g><path d="m 242.5,201.8 h 1.5 l 0.2,-0.3 -1.1,-0.6" transform="matrix(1.174 0 0 1.177 -125.6 -135.8)"/><path d="m 160.3,136.9 v -1.53 h 0.35 l -9.63,-16.94 -0.94,1.53 31.2,54.71 c 0.59,-0.12 1.06,-0.24 1.53,-0.35 l -21.36,-37.53 h -1.17 z" style="stroke-width:1.18"/><path d="m 235,217.5 0.7,-1.3 -0.2,-0.3 -1.1,0.6" transform="matrix(1.174 0 0 1.177 -125.6 -135.8)"/><g style="stroke-width:1.18"><path d="m 224.6 136.9 h 3.05 v -1.53 h -2.47 c -0.23 0.59 -0.35 1.06 -0.59 1.53 z"/><path d="m 182,135.4 -0.7,1.18 -1.29,-0.71 0.23,-0.35 h -19.48 l 0.82,1.53 h 63 c 0.23,-0.47 0.35,-1.06 0.47,-1.53 h -43.1 z"/></g><path d="m 244.7,231.8 -0.8,-1.3 h -0.3 v 1.3" transform="matrix(1.174 0 0 1.177 -125.6 -135.8)"/><g style="stroke-width:1.18"><path d="m 214.6,77.99 -1.29,-0.71 -1.17,2.12 c 0.35,0.35 0.7,0.82 1.06,1.18 z"/><path d="m 191.5,118.2 -1.29,0.71 -0.23,-0.47 -9.63,16.94 h 1.76 l 31.2,-54.95 c -0.35,-0.35 -0.7,-0.82 -1.06,-1.18 l -21.36,37.65 z"/></g><g transform="matrix(1.174 0 0 1.177 -125.6 -135.8)"><path d="m 269.6,214.8 -0.8,1.3 0.3,0.4 1.1,-0.6"/><path d="m 261.5,231.5 0.6,-1 h -1.5 l -0.2,0.4"/></g><path d="m 156 127.1 c -2.61 -4.59 -4.74 -8.46 -4.73 -8.59 0 -0.13 2.17 -3.96 4.81 -8.51 l 4.8 -8.28 h 19.36 l 4.6 8.1 c 2.53 4.43 4.69 8.21 4.8 8.38 0.14 0.24 -1.04 2.49 -4.45 8.49 -2.55 4.49 -4.76 8.31 -4.91 8.49 -0.23 0.28 -1.56 0.32 -9.91 0.32 h -9.65 z" style="opacity:0.98;stroke:#0d0707;stroke-width:0.67"/></g><circle r="60.4" cy="118.4" cx="170.8" style="fill:none;stroke-miterlimit:10;stroke:#0d0707;stroke-width:6.6"/></g></svg>