<svg xmlns="http://www.w3.org/2000/svg" viewBox="0 0 256 256"><path d="m 3.25 157.3 c 49.98 239.9 393.9 -17.64 187.3 -139.6 c -80.2 -52.3 -213 16.2 -187.3 139.6"/><path d="m 160.9 70.6 l 0.27 0.25 l 0.68 -0.25 m 7.7 8.1 l 47.55 44.3 v -44.3" style="fill:#dcdcdc;fill-opacity:0.2"/><path d="m 161.6 26.3 l 56.2 52.4 h -47.55 c -4.2 0 -8.64 -4.14 -8.64 -8.1 v -44.3" style="fill:#fff;fill-opacity:0.39"/><g transform="matrix(1.051 0 0 1.061 -9.74 -10.79)"><path d="m 80.1 119.5 c 0.21 -0.22 6.13 -4.95 13.15 -10.5 9.93 -7.85 12.92 -10.36 13.44 -11.31 0.5 -0.91 1.31 -2.36 1.27 -5.85 -0.08 -6.45 -0.95 -9.78 2.51 -9.99 4.09 -0.24 3.2 0.77 4.12 1.75 1.02 1.08 0.61 3.5 1.19 7.53 0.24 1.68 0.48 3.09 0.52 3.13 0.04 0.04 11.3 0.29 25 0.55 13.72 0.26 24.98 0.5 25 0.54 0.04 0.04 -1.22 0.99 -2.8 2.1 -2.84 2 -10.57 7.94 -22.2 17 l -6 4.69 l -25.53 0.2 c -14 0.11 -26.56 0.28 -27.82 0.38 -1.94 0.15 -2.23 0.12 -1.91 -0.22 z" style="fill:#f5f5f5"/><path d="m 66.75 189.4 c -1.23 -1.5 -0.07 -3.46 6.39 -10 l 4 -4.09 l 0.15 -25.1 c 0.14 -23.42 0.21 -25.2 1 -25.97 0.8 -0.76 2.73 -0.83 28.45 -0.97 l 27.59 -0.16 v 28.36 v 28.36 l -3.67 0.3 c -2 0.16 -14.1 0.3 -26.78 0.3 h -20.95 l -4.55 4.6 c -5.41 5.47 -9.11 7.58 -11.66 4.46 z" style="fill:#999"/><path d="m 137 151.3 v -27.92 l 14.94 -11.64 c 8.22 -6.4 15.19 -11.64 15.5 -11.64 0.31 0 0.56 11.68 0.56 25.96 0 29.1 -0.29 26.85 7.51 26.85 2.93 0 4.54 1.52 4.75 2.94 0.62 4.33 -3.44 3.31 -9.1 3.71 -8.09 0.58 -6.51 -1.56 -20.7 9.54 -6.1 4.73 -11.56 8.94 -12.25 9.36 -0.99 0.6 -1.25 -5.09 -1.25 -27.2 z m -50.2 12.1 c -1.69 -0.45 -3.29 -3.2 -2.39 -4.11 0.27 -0.27 2.64 -0.54 5.27 -0.61 4 -0.1 4.83 -0.44 5.08 -2.2 0.23 -1.62 -0.45 -2.31 -3 -3.04 -3.72 -1.07 -4.43 -3.71 -1.12 -4.18 2.7 -0.38 4.98 -2.94 3.73 -4.17 -0.5 -0.49 -2.71 -1.03 -4.91 -1.21 -5.24 -0.42 -5.43 -2.96 -0.31 -4.23 7.62 -1.88 13.86 2.52 11.68 8.25 -0.65 1.72 -0.59 3.43 0.2 5.33 0.64 1.54 0.87 3.96 0.51 5.38 -1 4 -8.46 6.44 -14.74 4.78 z m 20.6 -1.65 c -0.28 -0.73 -0.38 -5.79 -0.22 -11.25 l 0.29 -9.93 l 6.42 -0.3 c 3.53 -0.17 7.67 0.22 9.2 0.85 7.97 3.3 8.43 16.55 0.72 20.54 -3.58 1.85 -15.7 1.92 -16.4 0.09 z m 13.57 -5.68 c 1.1 -1.1 2 -3.13 2 -4.5 0 -1.38 -0.9 -3.4 -2 -4.5 -1.1 -1.1 -3.13 -2 -4.5 -2 -2.41 0 -2.5 0.23 -2.5 6.5 0 6.27 0.09 6.5 2.5 6.5 1.38 0 3.4 -0.9 4.5 -2 z" style="fill:#686868"/></g></svg>