<svg xmlns="http://www.w3.org/2000/svg" viewBox="0 0 256 256"><path d="m 3.25 157.3 c 49.98 239.9 393.9 -17.64 187.3 -139.6 c -80.2 -52.3 -213 16.2 -187.3 139.6" style="fill:#0f0"/><path d="m 153.9 71.6 l 0.27 0.25 l 0.68 -0.25 m 7.7 8.1 l 47.55 44.3 v -44.3" style="fill-opacity:0.2"/><path d="m 153.9 27.3 l 56.2 52.4 h -47.55 c -4.2 0 -8.64 -4.14 -8.64 -8.1 v -44.3" style="fill:#2f4f4f;fill-opacity:0.39"/><path d="m 167.6 123.3 c -7.24 -0.5 -12.8 -0.33 -20.62 -0.33 0 -3.95 0 -7.89 0 -11.84 11.33 0 22.65 0 33.98 0 0 3.68 0 7.36 0 11 l -9.82 21 l -9.82 21 c -4.39 0 -8.78 0 -13.17 0 6.28 -14.53 14.38 -29.1 19.44 -40.9 z"/><path d="m 66.84 111.1 c 11.84 0 23.67 0 35.51 0 0 4.07 0 8.14 0 12.22 -7.89 0 -15.78 0 -23.67 0 0 2.8 0 5.6 0 8.4 7.13 0 14.25 0 21.38 0 0 3.82 0 7.64 0 11.45 -7.13 0 -14.25 0 -21.38 0 0 2.93 0 5.85 0 8.78 8 0 16 0 24.1 0 0 4.07 0 8.14 0 12.22 -11.96 0 -23.93 0 -35.89 0 0 -17.69 0 -35.4 0 -53.1 z"/><path d="m 113.3 162.1 c -2.91 -1.75 -6.42 -4.8 -6.2 -5.38 0.17 -0.43 5.69 -8.31 6.38 -9.1 0.16 -0.19 1.12 0.4 2.13 1.29 5.53 4.92 12.5 5.26 14.93 0.73 1.62 -3 0.83 -6.44 -1.98 -8.54 -4.33 -1.48 -7.64 -0.42 -11.3 1.43 -2.31 -1.54 -4.77 -3.05 -6.76 -4.93 -0.21 -0.55 0.4 -16.64 0.88 -23.35 l 0.23 -3.15 c 9.77 0 19.54 0 29.3 0 0 3.95 0 7.89 0 11.84 -6.59 0 -13.17 0 -19.76 0 -0.6 2.83 -0.48 5.96 -0.48 8.33 l 2.58 -0.91 c 8.41 -2.97 16.73 1.59 19.21 10.53 1.29 8.18 -0.3 16.67 -7.17 21.35 -7.3 3.76 -15.66 3.62 -22 -0.16 z"/></svg>