<svg xmlns="http://www.w3.org/2000/svg" viewBox="0 0 256 256"><path d="m 3.25 157.3 c 49.98 239.9 393.9 -17.64 187.3 -139.6 c -80.2 -52.3 -213 16.2 -187.3 139.6" style="fill:#e83c58"/><path d="m 153.9 71.6 l 0.27 0.25 l 0.68 -0.25 m 7.7 8.1 l 47.55 44.3 v -44.3" style="fill-opacity:0.2"/><g style="fill:#fff"><path d="m 153.9 27.3 l 56.2 52.4 h -47.55 c -4.2 0 -8.64 -4.14 -8.64 -8.1 v -44.3" style="fill-opacity:0.39"/><path d="m 153.7 160.5 c -4.46 -1.02 -11.82 -5 -11.82 -6.4 0 -0.24 1.17 -2.04 2.6 -3.99 2.5 -3.42 2.64 -3.53 3.66 -2.77 4.51 3.33 10.87 4.96 14.1 3.61 1.63 -0.68 1.86 -0.99 1.86 -2.49 0 -2.6 -1.03 -3.26 -8.59 -5.44 -4.91 -1.42 -6.91 -2.48 -9.15 -4.85 -2.25 -2.38 -2.97 -4.45 -2.97 -8.45 0.01 -5.35 3.06 -10 7.97 -12.27 2.65 -1.2 11.1 -1.18 14.43 0.04 2.85 1.04 7.39 3.73 7.39 4.38 -1.41 2.93 -2.81 5 -4.61 7.92 l -3.5 -1.8 c -4.52 -2.32 -8.87 -2.8 -10.51 -1.16 -0.59 0.59 -1.07 1.47 -1.07 1.96 0 2.04 1.51 3.1 6.71 4.7 10.48 3.23 13.7 5.99 14.35 12.3 0.6 5.84 -2.7 11.62 -7.92 13.87 -3.24 1.39 -8.92 1.77 -12.94 0.85 z"/><path d="m 72.6 159.9 c -0.19 -0.49 -3.42 -9.52 -7.18 -20.1 -3.76 -10.56 -7.14 -20 -7.51 -21.1 l -0.68 -1.89 c 3.79 0 7.57 0 11.36 0 l 1.59 4.92 c 0.87 2.71 2.87 8.98 4.44 13.95 1.57 4.96 3.03 8.83 3.25 8.59 0.22 -0.24 2.3 -6.51 4.63 -13.94 l 4.23 -13.51 c 3.74 0 7.48 0 11.22 -0.01 l -6.24 17.55 c -3.43 9.65 -6.95 19.54 -7.82 21.97 l -1.58 4.42 c -3 -0.2 -7.54 0.62 -9.71 -0.88 z"/><path d="m 102.6 138.5 v -21.72 h 6.69 c 13.35 0.01 19.2 1.54 23.72 6.2 8.88 9.15 7.4 26.69 -2.83 33.57 -4.46 3 -7.8 3.67 -18.3 3.67 h -9.29 c 0 -7.24 0 -14.48 0 -21.72 z m 21.29 9.82 c 2.7 -1.91 4.13 -4.7 4.37 -8.55 0.52 -8.15 -3.43 -12.34 -11.65 -12.36 l -3.91 -0.01 c 0 7.62 0 15.23 0 22.85 3.81 -0.75 8.29 -0.04 11.19 -1.92 z"/></g></svg>