<svg xmlns="http://www.w3.org/2000/svg" viewBox="0 0 256 256"><path d="m 3.25 157.3 c 49.98 239.9 393.9 -17.64 187.3 -139.6 c -80.2 -52.3 -213 16.2 -187.3 139.6" style="fill:#6b8e23"/><path d="m 153.9 71.6 l 0.27 0.25 l 0.68 -0.25 m 7.7 8.1 l 47.55 44.3 v -44.3" style="fill-opacity:0.2"/><g style="fill:#fff"><path d="m 153.9 27.3 l 56.2 52.4 h -47.55 c -4.2 0 -8.64 -4.14 -8.64 -8.1 v -44.3" style="fill-opacity:0.39"/><path d="m 147.9 113.7 c 3.53 0 7.1 0 10.58 0 0 11.93 0 23.86 0 35.79 6.54 0 13.1 0 19.61 0 0 3.73 0 7.47 0 11.2 -10.1 0 -20.1 0 -30.2 0 0 -15.66 0 -31.3 0 -46.99 z"/><path d="m 74.91 161.1 c -5.93 -1.27 -10.72 -5.27 -13.75 -11.47 -2.09 -4.27 -2.69 -6.94 -2.72 -12.14 -0.03 -5.36 0.67 -8.55 2.82 -12.91 2.31 -4.27 5.51 -7.67 9.42 -9.61 9.1 -4.45 18.64 -1.86 24.5 6.66 l 0.65 0.94 c -2.62 2.4 -5.25 4.8 -7.87 7.2 l -0.98 -1.28 c -1.94 -2.54 -4.77 -3.96 -7.9 -3.96 -5.67 0 -9.64 5.22 -9.64 12.66 0 7.46 3.94 12.59 9.67 12.6 1.13 0 2.53 -0.16 3.11 -0.35 2.67 -1.05 4.09 -3.15 5.98 -4.93 2.95 2.17 5 4.05 8 6.58 l -0.55 0.98 c -2.3 2.93 -5.15 6 -8.17 7.47 -4.27 1.57 -8.88 2.32 -12.57 1.58 z"/><path d="m 134.7 159.6 l -2.11 -2.28 l -1.97 1.24 c -4.69 2.94 -10.63 3.79 -15.83 2.26 -3.23 -0.95 -5.85 -2.58 -8.68 -5.41 -2.32 -2.32 -2.92 -3.15 -4.3 -5.97 -3.28 -6.71 -3.72 -14.18 -1.28 -21.31 2.37 -6.9 7.2 -11.92 13.68 -14.2 4.05 -1.08 7.31 -1.58 11.4 -0.39 6.3 1.89 11.55 6.86 14.1 13.38 1.51 3.81 1.99 6.85 1.79 11.53 -0.19 4.51 -0.66 6.62 -2.28 10.13 l -1.07 2.32 c 1.34 1.34 2.68 2.68 4 4 -1.74 2.26 -3.46 4.54 -5.22 6.78 -1 -0.71 -1.62 -1.35 -2.3 -2.08 z m -11.16 -9.82 c 0.54 -0.19 0.98 -0.43 0.98 -0.54 -1.78 -2.08 -3.3 -3.51 -5.36 -5.58 1.75 -2.3 3.44 -4.69 5.34 -6.85 2.05 1.63 3.28 3.43 5.34 5.23 0.92 0 1.2 -5.9 0.43 -8.86 -2.14 -8.2 -10.37 -11.56 -15.98 -6.52 -6.86 6.17 -5.12 19.96 2.91 23.1 2.04 0.2 4.39 0.68 6.35 0.07 z"/></g></svg>