<svg xmlns="http://www.w3.org/2000/svg" viewBox="0 0 256 256"><path d="m 3.25 157.3 c 49.98 239.9 393.9 -17.64 187.3 -139.6 c -80.2 -52.3 -213 16.2 -187.3 139.6" style="fill:#dcdcdc"/><path d="m 153.9 71.6 l 0.27 0.25 l 0.68 -0.25 m 7.7 8.1 l 47.55 44.3 v -44.3" style="fill-opacity:0.2"/><path d="m 153.9 27.3 l 56.2 52.4 h -47.55 c -4.2 0 -8.64 -4.14 -8.64 -8.1 v -44.3" style="fill:#fff;fill-opacity:0.39"/><g transform="matrix(15.639 0 0 13.598 -11.93 25.86)" style="fill:#555"><path d="m 6.46 10.33 c 0 0.2 0.05 0.35 0.16 0.45 0.11 0.09 0.26 0.14 0.46 0.14 v 0.42 c -0.34 0 -0.61 -0.09 -0.8 -0.26 -0.19 -0.17 -0.29 -0.41 -0.29 -0.71 v -0.91 c 0 -0.21 -0.05 -0.35 -0.17 -0.44 -0.12 -0.09 -0.28 -0.13 -0.5 -0.13 v -0.42 c 0.24 0 0.41 -0.05 0.51 -0.14 0.1 -0.09 0.16 -0.23 0.16 -0.42 v -0.91 c 0 -0.31 0.1 -0.55 0.3 -0.72 0.2 -0.17 0.46 -0.26 0.79 -0.26 v 0.41 c -0.41 0.01 -0.63 0.21 -0.63 0.59 v 0.88 c 0 0.43 -0.2 0.68 -0.6 0.76 v 0.04 c 0.41 0.08 0.61 0.33 0.61 0.76 v 0.89"/><path d="m 10.14 8.65 c -0.4 -0.08 -0.61 -0.33 -0.61 -0.76 v -0.88 c 0 -0.38 -0.21 -0.58 -0.62 -0.59 v -0.41 c 0.34 0 0.6 0.09 0.79 0.26 0.19 0.17 0.29 0.41 0.29 0.71 v 0.91 c 0 0.19 0.05 0.34 0.16 0.43 0.11 0.09 0.28 0.14 0.52 0.14 v 0.42 c -0.22 0 -0.39 0.04 -0.5 0.13 -0.11 0.09 -0.17 0.23 -0.17 0.44 v 0.91 c 0 0.3 -0.09 0.54 -0.28 0.71 -0.18 0.17 -0.45 0.26 -0.79 0.26 v -0.42 c 0.2 0 0.35 -0.05 0.46 -0.14 0.1 -0.09 0.16 -0.24 0.16 -0.45 v -0.89 c 0 -0.23 0.05 -0.4 0.15 -0.52 0.1 -0.12 0.25 -0.2 0.46 -0.24 v -0.04"/></g></svg>