<svg xmlns="http://www.w3.org/2000/svg" viewBox="0 0 256 256"><path d="m 3.25 157.3 c 49.98 239.9 393.9 -17.64 187.3 -139.6 c -80.2 -52.3 -213 16.2 -187.3 139.6" style="fill:#ffd833"/><path d="m 153.9 71.6 l 0.27 0.25 l 0.68 -0.25 m 7.7 8.1 l 47.55 44.3 v -44.3" style="fill-opacity:0.2"/><path d="m 153.9 27.3 l 56.2 52.4 h -47.55 c -4.2 0 -8.64 -4.14 -8.64 -8.1 v -44.3" style="fill:#fff;fill-opacity:0.39"/><g transform="matrix(12.535 0 0 11.968 -9.62 18.22)"><path d="m 8,6 h 4 a 2,2 45 0 1 2,2 v 4 a 2,2 135 0 1 -2,2 H 8 A 2,2 45 0 1 6,12 V 8 A 2,2 135 0 1 8,6 z" width="8" height="8" x="6" y="6" style="fill:#fcb100"/><path transform="translate(26.2 -2.92)" d="m -16.23 12.66 h 1.74 v 2.27 q -0.34 0.12 -0.72 0.18 -0.37 0.07 -0.84 0.07 -0.98 0 -1.51 -0.58 -0.53 -0.58 -0.53 -1.68 0 -0.69 0.26 -1.19 0.27 -0.5 0.78 -0.78 0.51 -0.28 1.24 -0.28 0.35 0 0.69 0.07 0.34 0.07 0.61 0.2 l -0.31 0.74 q -0.2 -0.1 -0.46 -0.17 -0.26 -0.07 -0.54 -0.07 -0.4 0 -0.71 0.18 -0.29 0.18 -0.46 0.52 -0.16 0.33 -0.16 0.78 0 0.43 0.12 0.76 0.12 0.33 0.37 0.52 0.25 0.18 0.66 0.18 0.2 0 0.33 -0.02 0.14 -0.02 0.26 -0.04 v -0.91 h -0.83 z" aria-label="G" style="fill:#fff;stroke-width:0.25"/></g></svg>