<svg xmlns="http://www.w3.org/2000/svg" viewBox="0 0 22 22"><path d="m 0.28 13.52 c 4.29 20.61 33.85 -1.52 16.1 -12 c -6.89 -4.49 -18.3 1.39 -16.1 12" style="fill:#3670c8"/><path d="m 13.23 6.15 l 0.02 0.02 l 0.06 -0.02 m 0.66 0.7 l 4.09 3.81 v -3.81" style="fill-opacity:0.2"/><path d="m 13.23 2.35 l 4.83 4.5 h -4.09 c -0.36 0 -0.74 -0.36 -0.74 -0.7 v -3.8" style="fill:#fff;fill-opacity:0.39"/><g style="fill:#86cdde"><path d="m 6.5 7.9 c -0.37 0 -0.57 0.49 -0.33 0.81 l 0.78 1.07 c -0.79 0.8 -1.43 1.91 -1.43 3.16 c 0 0.47 0.42 0.47 0.42 0.47 h 7.86 c 0 0 0.44 0 0.44 -0.49 c 0 -1.24 -0.64 -2.35 -1.43 -3.14 l 0.78 -1.07 c 0.24 -0.32 0.03 -0.82 -0.35 -0.8 c -0.13 0 -0.25 0.07 -0.33 0.18 l -0.81 1.12 c -0.65 -0.43 -1.41 -0.68 -2.23 -0.68 c -0.82 0 -1.57 0.25 -2.23 0.68 l -0.82 -1.12 c -0.08 -0.12 -0.21 -0.19 -0.34 -0.19 m 1.2 3.07 c 0.3 0 0.54 0.27 0.54 0.61 c 0 0.34 -0.24 0.61 -0.54 0.61 c -0.3 0 -0.55 -0.27 -0.55 -0.61 c 0 -0.34 0.25 -0.61 0.55 -0.61 m 4.36 0 c 0.3 0 0.54 0.27 0.54 0.61 c 0 0.34 -0.24 0.61 -0.54 0.61 c -0.3 0 -0.55 -0.27 -0.55 -0.61 c 0 -0.34 0.25 -0.61 0.55 -0.61"/><path d="m 6.51 16 h 0.34 v 0.46 h -0.34"/><path d="m 8.35 15.45 c -0.24 0 -0.41 0.03 -0.5 0.09 c -0.09 0.06 -0.14 0.17 -0.14 0.32 c 0 0.12 0.04 0.21 0.1 0.29 c 0.07 0.07 0.17 0.11 0.29 0.11 c 0.17 0 0.3 -0.07 0.4 -0.2 c 0.1 -0.13 0.15 -0.3 0.15 -0.52 v -0.07 m 0.3 -0.14 v 1.16 h -0.3 v -0.31 c -0.07 0.12 -0.16 0.21 -0.26 0.27 c -0.1 0.06 -0.22 0.09 -0.37 0.09 c -0.19 0 -0.34 -0.05 -0.45 -0.17 c -0.11 -0.12 -0.16 -0.28 -0.16 -0.47 c 0 -0.23 0.07 -0.4 0.21 -0.52 c 0.14 -0.12 0.34 -0.18 0.61 -0.18 h 0.42 v -0.03 c 0 -0.15 -0.05 -0.27 -0.14 -0.36 c -0.09 -0.09 -0.22 -0.13 -0.38 -0.13 c -0.11 0 -0.21 0.02 -0.3 0.04 c -0.1 0.03 -0.19 0.07 -0.29 0.13 v -0.31 c 0.11 -0.05 0.21 -0.08 0.32 -0.11 c 0.1 -0.02 0.2 -0.04 0.3 -0.04 c 0.27 0 0.46 0.08 0.59 0.23 c 0.13 0.15 0.2 0.39 0.2 0.7"/><path d="m 10.38 15.45 c -0.24 0 -0.41 0.03 -0.5 0.09 c -0.09 0.06 -0.14 0.17 -0.14 0.32 c 0 0.12 0.04 0.21 0.1 0.29 c 0.07 0.07 0.17 0.11 0.29 0.11 c 0.17 0 0.3 -0.07 0.4 -0.2 c 0.1 -0.13 0.15 -0.3 0.15 -0.52 v -0.07 m 0.3 -0.14 v 1.16 h -0.3 v -0.31 c -0.07 0.12 -0.16 0.21 -0.26 0.27 c -0.1 0.06 -0.22 0.09 -0.37 0.09 c -0.19 0 -0.34 -0.05 -0.45 -0.17 c -0.11 -0.12 -0.16 -0.28 -0.16 -0.47 c 0 -0.23 0.07 -0.4 0.21 -0.52 c 0.14 -0.12 0.34 -0.18 0.61 -0.18 h 0.42 v -0.03 c 0 -0.15 -0.05 -0.27 -0.14 -0.36 c -0.09 -0.09 -0.22 -0.13 -0.38 -0.13 c -0.11 0 -0.21 0.02 -0.3 0.04 c -0.1 0.03 -0.19 0.07 -0.29 0.13 v -0.31 c 0.11 -0.05 0.21 -0.08 0.32 -0.11 c 0.1 -0.02 0.2 -0.04 0.3 -0.04 c 0.27 0 0.46 0.08 0.59 0.23 c 0.13 0.15 0.2 0.39 0.2 0.7"/><path d="m 12.89 15.46 c 0 -0.25 -0.05 -0.44 -0.14 -0.58 c -0.09 -0.14 -0.21 -0.21 -0.37 -0.21 c -0.16 0 -0.28 0.07 -0.37 0.21 c -0.09 0.14 -0.14 0.33 -0.14 0.58 c 0 0.25 0.05 0.44 0.14 0.58 c 0.09 0.14 0.21 0.21 0.37 0.21 c 0.16 0 0.28 -0.07 0.37 -0.21 c 0.09 -0.14 0.14 -0.33 0.14 -0.58 m -1.02 -0.71 c 0.06 -0.12 0.14 -0.21 0.24 -0.27 c 0.09 -0.06 0.21 -0.09 0.34 -0.09 c 0.22 0 0.4 0.1 0.54 0.3 c 0.14 0.2 0.21 0.45 0.21 0.77 c 0 0.32 -0.07 0.58 -0.21 0.78 c -0.14 0.2 -0.32 0.29 -0.54 0.29 c -0.13 0 -0.25 -0.03 -0.34 -0.09 c -0.1 -0.06 -0.18 -0.15 -0.24 -0.27 v 0.3 h -0.3 v -2.83 h 0.3"/></g></svg>