<svg xmlns="http://www.w3.org/2000/svg" viewBox="0 0 22 22"><path d="m 0.28 13.52 c 4.29 20.61 33.85 -1.52 16.1 -12 c -6.89 -4.49 -18.3 1.39 -16.1 12" style="fill:#dcdcdc"/><path d="m 14 5.77 l 0.02 0.02 l 0.06 -0.02 m 0.66 0.7 l 4.09 3.81 v -3.81" style="fill-opacity:0.2"/><path d="m 14.1 1.96 l 4.83 4.5 h -4.09 c -0.36 0 -0.74 -0.36 -0.74 -0.7 v -3.81" style="fill:#fff;fill-opacity:0.39"/><path d="m 7.73 17.1 c -0.02 -0.1 -0.05 -0.46 -0.06 -0.64 l -0.02 -0.33 l -0.62 -0.04 c -1 -0.07 -0.93 0.3 -0.9 -4.47 c 0.02 -3.89 0.03 -4.05 0.18 -4.16 c 0.23 -0.17 7.1 -0.17 7.33 0 c 0.14 0.11 0.15 0.26 0.17 3.31 c 0.02 2.72 0.01 3.24 -0.1 3.49 c -0.15 0.38 -0.15 0.75 0 1.13 c 0.11 0.27 0.11 0.3 -0.03 0.48 c -0.15 0.19 -0.18 0.19 -2.03 0.23 l -1.88 0.04 l -0.02 0.6 c -0.02 0.61 -0.21 0.56 -0.65 0.14 c -0.17 -0.16 -0.35 -0.29 -0.39 -0.29 c -0.04 0 -0.21 0.13 -0.38 0.29 c -0.36 0.33 -0.54 0.5 -0.6 0.23 m -0.04 -2.16 l 0.05 -0.21 c 0.65 0 1.3 0 1.95 0 c 0.03 0.14 0.06 0.27 0.09 0.41 l 2.95 0.05 c 0 -0.28 0 -0.55 0 -0.82 l -2.86 0.02 l -2.86 0.02 l -0.02 0.27 c -0.04 0.43 0.02 0.52 0.36 0.49 c 0.24 -0.02 0.3 -0.07 0.34 -0.23 m 5.12 -1.48 c 0.14 -0.08 0.15 -0.2 0.15 -2.6 c 0 -1.85 -0.02 -2.54 -0.09 -2.61 c -0.14 -0.14 -4.95 -0.14 -5.09 0 c -0.07 0.07 -0.09 0.76 -0.09 2.57 c 0 2.14 0.02 2.49 0.12 2.6 c 0.11 0.11 0.45 0.13 2.49 0.13 c 1.48 0 2.42 -0.03 2.51 -0.09 m -4.47 -0.5 c -0.13 -0.14 -0.13 -0.68 0.01 -0.8 c 0.06 -0.05 0.27 -0.09 0.45 -0.07 l 0.34 0.02 c 0.06 0.32 0.06 0.73 0 0.9 c -0.23 -0.01 -0.63 0.11 -0.81 -0.05 m 0.04 -1.63 c -0.16 -0.1 -0.2 -0.72 -0.04 -0.88 c 0.05 -0.05 0.22 -0.1 0.38 -0.1 c 0.37 0 0.47 0.12 0.47 0.55 c 0 0.26 -0.04 0.37 -0.15 0.43 c -0.22 0.07 -0.48 0.09 -0.66 0 m -0.01 -1.73 c -0.1 -0.08 -0.13 -0.2 -0.11 -0.47 c 0.02 -0.31 0.06 -0.38 0.24 -0.44 c 0.14 -0.05 0.3 -0.05 0.43 0 c 0.18 0.07 0.22 0.13 0.24 0.43 c 0.01 0.2 -0.02 0.41 -0.07 0.47 c -0.11 0.14 -0.55 0.15 -0.73 0.01" style="fill:#7f7f7f"/></svg>