<svg xmlns="http://www.w3.org/2000/svg" viewBox="0 0 22 22"><path d="m 0.28 13.52 c 4.29 20.61 33.85 -1.52 16.1 -12 c -6.89 -4.49 -18.3 1.39 -16.1 12" style="fill:#dcdcdc"/><path d="m 13.23 6.15 l 0.02 0.02 l 0.06 -0.02 m 0.66 0.7 l 4.09 3.81 v -3.81" style="fill-opacity:0.2"/><path d="m 13.23 2.35 l 4.83 4.5 h -4.09 c -0.36 0 -0.74 -0.36 -0.74 -0.7 v -3.8" style="fill:#fff;fill-opacity:0.39"/><path d="m 9.49 11.37 v -1.12 c 0 -0.13 0.11 -0.23 0.23 -0.23 h 0.82 c 0.13 0 0.23 0.1 0.23 0.23 v 2.06 c 0 0.03 -0.02 0.05 -0.03 0.08 l -0.2 0.2 c -0.05 0.05 -0.05 0.12 0 0.16 l 0.2 0.2 c 0.02 0.02 0.03 0.05 0.03 0.08 v 1.13 c 0 0.13 -0.11 0.23 -0.23 0.23 h -0.82 c -0.13 0 -0.23 -0.11 -0.23 -0.23 v -2.06 c 0 -0.03 0.02 -0.05 0.03 -0.08 l 0.2 -0.2 c 0.05 -0.05 0.05 -0.12 0 -0.16 l -0.2 -0.2 c -0.02 -0.02 -0.03 -0.05 -0.03 -0.08 m 3.69 0.82 c 0 -1.63 -1.37 -2.95 -3.05 -2.95 c -1.68 0 -3.05 1.32 -3.05 2.95 c 0 1.63 1.37 2.95 3.05 2.95 c 1.68 0 3.05 -1.32 3.05 -2.95 m 0.96 0 c 0 2.15 -1.8 3.88 -4 3.88 c -2.21 0 -4 -1.74 -4 -3.88 c 0 -2.14 1.8 -3.88 4 -3.88 c 2.21 0 4 1.73 4 3.88 m -8.82 0 c 0 2.57 2.15 4.66 4.81 4.66 c 2.66 0 4.81 -2.08 4.81 -4.66 c 0 -2.57 -2.15 -4.66 -4.81 -4.66 c -2.66 0 -4.81 2.08 -4.81 4.66 m -0.33 0 c 0 -2.75 2.3 -4.97 5.14 -4.97 c 2.84 0 5.13 2.23 5.13 4.97 c 0 2.75 -2.3 4.97 -5.13 4.97 c -2.84 0 -5.14 -2.22 -5.14 -4.97" style="fill:#777"/></svg>