<svg xmlns="http://www.w3.org/2000/svg" viewBox="0 0 22 22"><path d="m 0.28 13.52 c 4.29 20.61 33.85 -1.52 16.1 -12 c -6.89 -4.49 -18.3 1.39 -16.1 12" style="fill:#dcdcdc"/><path d="m 13.23 6.15 l 0.02 0.02 l 0.06 -0.02 m 0.66 0.7 l 4.09 3.81 v -3.81" style="fill-opacity:0.2"/><path d="m 13.23 2.35 l 4.83 4.5 h -4.09 c -0.36 0 -0.74 -0.36 -0.74 -0.7 v -3.8" style="fill:#fff;fill-opacity:0.39"/><g style="fill:#7f7f7f"><path d="m 4.5 10.14 h 0.36 l 0.45 2.71 l 0.45 -2.71 h 0.43 l 0.45 2.71 l 0.45 -2.71 h 0.36 l -0.58 3.48 h -0.43 l -0.48 -2.85 l -0.48 2.85 h -0.43"/><path d="m 9 11.87 c -0.29 0 -0.5 0.05 -0.61 0.16 c -0.11 0.11 -0.17 0.29 -0.17 0.54 c 0 0.2 0.04 0.36 0.13 0.48 c 0.09 0.12 0.2 0.18 0.35 0.18 c 0.2 0 0.36 -0.11 0.48 -0.34 c 0.12 -0.22 0.18 -0.52 0.18 -0.89 v -0.13 m 0.36 -0.24 v 1.99 h -0.36 v -0.53 c -0.08 0.21 -0.19 0.37 -0.31 0.47 c -0.13 0.1 -0.27 0.15 -0.45 0.15 c -0.23 0 -0.41 -0.1 -0.54 -0.3 c -0.13 -0.2 -0.2 -0.47 -0.2 -0.81 c 0 -0.39 0.08 -0.68 0.25 -0.88 c 0.17 -0.2 0.42 -0.3 0.75 -0.3 h 0.51 v -0.05 c 0 -0.26 -0.05 -0.46 -0.16 -0.61 c -0.11 -0.14 -0.27 -0.22 -0.46 -0.22 c -0.13 0 -0.25 0.03 -0.37 0.07 c -0.12 0.05 -0.23 0.12 -0.34 0.21 v -0.53 c 0.13 -0.08 0.26 -0.14 0.39 -0.18 c 0.13 -0.04 0.25 -0.06 0.36 -0.06 c 0.32 0 0.56 0.13 0.71 0.39 c 0.16 0.26 0.24 0.66 0.24 1.18"/><path d="m 11.88 10.24 v 0.54 c -0.1 -0.09 -0.21 -0.15 -0.32 -0.19 c -0.11 -0.04 -0.23 -0.06 -0.34 -0.06 c -0.18 0 -0.32 0.04 -0.41 0.13 c -0.09 0.09 -0.13 0.22 -0.13 0.39 c 0 0.13 0.03 0.23 0.1 0.31 c 0.06 0.07 0.19 0.14 0.39 0.21 l 0.13 0.04 c 0.26 0.09 0.44 0.21 0.55 0.37 c 0.11 0.16 0.16 0.38 0.16 0.66 c 0 0.32 -0.08 0.58 -0.25 0.77 c -0.16 0.19 -0.38 0.29 -0.67 0.29 c -0.12 0 -0.24 -0.02 -0.37 -0.05 c -0.13 -0.04 -0.26 -0.09 -0.41 -0.16 v -0.59 c 0.14 0.11 0.27 0.19 0.4 0.25 c 0.13 0.05 0.26 0.08 0.38 0.08 c 0.17 0 0.3 -0.04 0.39 -0.14 c 0.09 -0.09 0.14 -0.22 0.14 -0.39 c 0 -0.16 -0.03 -0.27 -0.1 -0.36 c -0.07 -0.09 -0.21 -0.16 -0.44 -0.24 l -0.13 -0.05 c -0.22 -0.07 -0.39 -0.19 -0.48 -0.34 c -0.1 -0.16 -0.15 -0.37 -0.15 -0.64 c 0 -0.33 0.07 -0.58 0.22 -0.76 c 0.14 -0.18 0.36 -0.27 0.63 -0.27 c 0.13 0 0.26 0.02 0.38 0.05 c 0.12 0.03 0.23 0.08 0.32 0.14"/><path d="m 14.3 10.8 c 0.09 -0.26 0.2 -0.45 0.32 -0.57 c 0.13 -0.12 0.27 -0.18 0.45 -0.18 c 0.23 0 0.41 0.13 0.53 0.38 c 0.13 0.25 0.19 0.61 0.19 1.08 v 2.1 h -0.37 v -2.08 c 0 -0.34 -0.04 -0.58 -0.11 -0.74 c -0.08 -0.16 -0.19 -0.24 -0.34 -0.24 c -0.19 0 -0.34 0.1 -0.45 0.29 c -0.11 0.2 -0.16 0.46 -0.16 0.8 v 1.97 h -0.36 v -2.08 c 0 -0.34 -0.04 -0.58 -0.11 -0.74 c -0.07 -0.16 -0.19 -0.24 -0.34 -0.24 c -0.19 0 -0.33 0.1 -0.44 0.3 c -0.11 0.2 -0.16 0.46 -0.16 0.8 v 1.97 h -0.36 v -3.48 h 0.36 v 0.54 c 0.08 -0.21 0.18 -0.37 0.3 -0.47 c 0.12 -0.1 0.25 -0.15 0.41 -0.15 c 0.16 0 0.3 0.07 0.41 0.2 c 0.11 0.13 0.2 0.31 0.25 0.56"/></g></svg>