<svg xmlns="http://www.w3.org/2000/svg" viewBox="0 0 22 22"><path d="m 0.4 13.49 c 4.26 20.39 33.57 -1.5 15.96 -11.86 c -6.83 -4.45 -18.1 1.38 -15.96 11.86" style="fill:#ff8c00"/><path d="m 14 6.48 l 0.02 0.02 l 0.05 -0.02 m 0.62 0.69 l 3.81 3.78 v -3.78" style="fill-opacity:0.2"/><g style="fill:#fff"><path d="m 13.98 2.55 l 4.57 4.59 h -3.86 c -0.34 0 -0.7 -0.36 -0.7 -0.71 v -3.88" style="fill-opacity:0.39"/><path d="m 11.96 13.89 v -1.11 h 0.65 v 1.14 h 1.41 v 1.09 h -2.06"/><path d="m 7 13.3 v -1.71 h -0.7 v -1.09 h 0.7 v -2.23 h 1.36 v 1.09 h -0.71 v 1.14 h 0.71 v 1.09 h -0.71 v 3.42 h -0.65"/><path d="m 9.14 11.64 v -3.37 h 0.65 v 2.23 h 0.7 v 1.09 h -0.7 v 2.34 h 0.7 v 1.09 h -1.36"/><path d="m 10.55 12.75 v -1.11 h 0.65 v 2.23 h -0.65"/><path d="m 11.96 9.93 v -0.52 h 1.36 v 1.03 h -1.36"/><path d="m 13.38 11 v -0.54 h 0.65 v 1.09 h -0.65"/><path d="m 12.67 12.18 v -0.54 h 0.65 v 1.09 h -0.65"/></g></svg>