<svg xmlns="http://www.w3.org/2000/svg" viewBox="0 0 22 22"><path d="m 0.28 13.52 c 4.29 20.61 33.85 -1.52 16.1 -12 c -6.89 -4.49 -18.3 1.39 -16.1 12" style="fill:#f9731e"/><path d="m 13.23 6.15 l 0.02 0.02 l 0.06 -0.02 m 0.66 0.7 l 4.09 3.81 v -3.81" style="fill-opacity:0.2"/><g style="fill:#fff"><path d="m 13.23 2.35 l 4.83 4.5 h -4.09 c -0.36 0 -0.74 -0.36 -0.74 -0.7 v -3.8" style="fill-opacity:0.39"/><path d="m 8.44 7.29 c -0.26 0 -0.5 0.09 -0.68 0.27 c 0 0 -2.25 2.16 -2.25 2.16 c -0.17 0.18 -0.28 0.41 -0.28 0.66 c 0 0 -0.02 3.06 -0.02 3.06 c 0 0.25 0.1 0.48 0.28 0.66 c 0 0 2.21 2.18 2.21 2.18 c 0.18 0.17 0.42 0.27 0.68 0.27 c 0 0 3.15 0.02 3.15 0.02 c 0.26 0 0.49 -0.09 0.68 -0.27 c 0 0 2.25 -2.16 2.25 -2.16 c 0.17 -0.18 0.27 -0.41 0.27 -0.66 c 0 0 0.02 -3.06 0.02 -3.06 c 0 -0.25 -0.09 -0.48 -0.28 -0.66 c 0 0 -2.21 -2.19 -2.21 -2.19 c -0.18 -0.16 -0.42 -0.27 -0.68 -0.27 c 0 0 -3.15 -0.02 -3.15 -0.02 m 3.12 3.48 c -0.3 0 -0.6 0.12 -0.82 0.33 c -0.22 0.21 -0.34 0.5 -0.34 0.8 c 0 0.3 0.13 0.59 0.34 0.8 c 0.22 0.21 0.52 0.34 0.82 0.34 c 0.31 0 0.61 -0.12 0.83 -0.34 c 0.22 -0.21 0.34 -0.5 0.34 -0.8 c 0 -0.63 -0.52 -1.14 -1.17 -1.14 m -3.11 -1.05 c 0.5 0 0.97 0.16 1.36 0.45 c 0 0 -0.54 0.93 -0.54 0.93 c -0.22 -0.21 -0.52 -0.33 -0.82 -0.33 c -0.31 0 -0.61 0.12 -0.83 0.33 c -0.22 0.21 -0.34 0.5 -0.34 0.8 c 0 0.3 0.13 0.59 0.34 0.8 c 0.22 0.21 0.52 0.34 0.83 0.34 c 0.3 0 0.58 -0.11 0.8 -0.31 c 0 0 0.55 0.92 0.55 0.92 c -0.39 0.29 -0.87 0.45 -1.35 0.45 c -0.6 0 -1.17 -0.23 -1.59 -0.64 c -0.43 -0.41 -0.66 -0.97 -0.66 -1.55 c 0 -1.21 1 -2.19 2.25 -2.19 m 3.11 0 c 1.25 0 2.25 0.98 2.25 2.19 c 0 1.21 -1 2.19 -2.25 2.19 c -0.59 0 -1.16 -0.23 -1.59 -0.64 c -0.42 -0.41 -0.66 -0.97 -0.66 -1.55 c 0 -1.21 1 -2.19 2.25 -2.19"/></g></svg>