<svg xmlns="http://www.w3.org/2000/svg" viewBox="0 0 22 22"><path d="m 0.28 13.52 c 4.29 20.61 33.85 -1.52 16.1 -12 c -6.89 -4.49 -18.3 1.39 -16.1 12" style="fill:#40ab93"/><path d="m 13.23 6.15 l 0.02 0.02 l 0.06 -0.02 m 0.66 0.7 l 4.09 3.81 v -3.81" style="fill-opacity:0.2"/><path d="m 13.23 2.35 l 4.83 4.5 h -4.09 c -0.36 0 -0.74 -0.36 -0.74 -0.7 v -3.8" style="fill:#fff;fill-opacity:0.39"/><g style="fill:#e4e4e4"><path d="m 11.65 9.16 h 0.41 v 4.36 h -0.41"/><path d="m 9.63 9.16 h 0.4 v 4.36 h -0.4"/><path d="m 8.23 9.26 l 0.39 0.07 l -0.79 4.29 l -0.4 -0.07"/></g><path d="m 8.41 13.9 c 0 0.47 -0.4 0.84 -0.9 0.84 c -0.5 0 -0.9 -0.38 -0.9 -0.84 c 0 -0.47 0.4 -0.84 0.9 -0.84 c 0.5 0 0.9 0.38 0.9 0.84" style="fill:#3e3e3e"/><path d="m 5.91 9.1 c -0.23 0 -0.42 0.16 -0.41 0.36 v 6.18 h 0.96 v -5.61 h 6.75 v 5.61 h 0.96 v -6.18 c 0 -0.2 -0.18 -0.36 -0.41 -0.36" style="fill:#4e4e4e"/><g style="fill:#3e3e3e"><path d="m 10.7 13.95 c 0 0.47 -0.4 0.86 -0.9 0.86 c -0.5 0 -0.9 -0.39 -0.9 -0.86 c 0 -0.48 0.4 -0.86 0.9 -0.86 c 0.5 0 0.9 0.39 0.9 0.86"/><path d="m 12.75 13.95 c 0 0.47 -0.41 0.86 -0.91 0.86 c -0.5 0 -0.91 -0.39 -0.91 -0.86 c 0 -0.48 0.41 -0.86 0.91 -0.86 c 0.5 0 0.91 0.39 0.91 0.86"/></g></svg>