<svg xmlns="http://www.w3.org/2000/svg" viewBox="0 0 22 22"><path d="m 0.28 13.52 c 4.29 20.62 33.84 -1.52 16.1 -12 c -6.9 -4.49 -18.3 1.39 -16.1 12" style="fill:#f4f4f4"/><path d="m 13.19 6.46 l 0.02 0.02 l 0.06 -0.02 m 0.65 0.7 l 4 3.82 v -3.82" style="fill-opacity:0.2"/><path d="m 13.19 2.64 l 4.74 4.52 h -4 c -0.36 0 -0.73 -0.36 -0.73 -0.7 v -3.82" style="fill-opacity:0.39"/><path d="m 9.54 16.1 c -0.09 -0.63 -0.16 -0.74 -0.56 -0.83 c -0.26 -0.06 -0.35 -0.01 -0.75 0.38 l -0.46 0.45 c -0.67 -0.5 -0.61 -0.36 -0.3 -1.09 c 0.27 -0.62 0.27 -0.64 0.1 -0.9 c -0.17 -0.26 -0.2 -0.26 -0.84 -0.2 l -0.66 0.06 c -0.27 -0.73 -0.28 -0.74 0.38 -1.07 c 0.54 -0.27 0.59 -0.32 0.59 -0.61 c 0 -0.29 -0.06 -0.35 -0.59 -0.63 c -0.51 -0.29 -0.64 -0.14 -0.46 -0.68 c 0.13 -0.34 0.14 -0.36 0.51 -0.32 c 0.86 0.09 1.02 0.07 1.19 -0.2 c 0.15 -0.25 0.15 -0.29 -0.1 -0.84 l -0.26 -0.59 c 0.68 -0.57 0.5 -0.62 1.07 0 c 0.45 0.5 0.46 0.5 0.81 0.39 c 0.34 -0.11 0.36 -0.15 0.49 -0.77 c 0.14 -0.65 0.14 -0.65 0.5 -0.68 c 0.4 -0.03 0.39 -0.05 0.54 0.91 c 0.07 0.46 0.09 0.49 0.45 0.57 c 0.36 0.09 0.39 0.07 0.84 -0.36 c 0.58 -0.62 0.45 -0.47 1.01 0.1 l -0.27 0.55 c -0.27 0.55 -0.27 0.55 -0.09 0.88 c 0.1 0.18 0.23 0.32 0.29 0.3 c 0.06 -0.02 0.36 -0.06 0.67 -0.09 c 0.6 -0.06 0.55 -0.1 0.73 0.52 c 0.04 0.16 -0.05 0.25 -0.54 0.49 c -0.54 0.27 -0.59 0.32 -0.59 0.61 c 0 0.28 0.06 0.35 0.55 0.64 c 0.52 0.3 0.55 0.34 0.49 0.63 c -0.03 0.16 -0.09 0.34 -0.14 0.38 c -0.04 0.04 -0.36 0.03 -0.7 -0.04 c -0.61 -0.1 -0.63 -0.1 -0.81 0.13 c -0.23 0.3 -0.23 0.37 0.05 1 l 0.24 0.54 c -0.68 0.58 -0.5 0.61 -1.11 0.03 c -0.47 -0.45 -0.52 -0.47 -0.82 -0.38 c -0.29 0.09 -0.32 0.15 -0.42 0.64 c -0.06 0.3 -0.13 0.6 -0.15 0.67 c -0.75 0.39 -0.81 -0.04 -0.88 -0.56 m 1.27 -3.11 c 0.55 -0.64 0.13 -1.55 -0.71 -1.55 c -0.87 0 -1.26 0.98 -0.64 1.6 c 0.38 0.37 1 0.34 1.34 -0.05" style="fill-opacity:0.96"/></svg>