<svg xmlns="http://www.w3.org/2000/svg" viewBox="0 0 22 22"><path d="m 0.28 13.52 c 4.29 20.61 33.85 -1.52 16.1 -12 c -6.89 -4.49 -18.3 1.39 -16.1 12" style="fill:#dcdcdc"/><path d="m 13.23 6.15 l 0.02 0.02 l 0.06 -0.02 m 0.66 0.7 l 4.09 3.81 v -3.81" style="fill-opacity:0.2"/><path d="m 13.23 2.35 l 4.83 4.5 h -4.09 c -0.36 0 -0.74 -0.36 -0.74 -0.7 v -3.8" style="fill:#fff;fill-opacity:0.39"/><g style="fill:#696969"><path d="m 4.88 14.1 v -4.32 h 0.37 v 3.81 h 1.39 v 0.51"/><path d="m 8.36 13.71 c -0.13 0.17 -0.25 0.29 -0.37 0.35 c -0.12 0.07 -0.25 0.11 -0.38 0.11 c -0.22 0 -0.39 -0.09 -0.52 -0.25 c -0.12 -0.17 -0.18 -0.39 -0.18 -0.65 c 0 -0.15 0.02 -0.29 0.07 -0.42 c 0.05 -0.13 0.11 -0.23 0.18 -0.3 c 0.07 -0.08 0.16 -0.14 0.25 -0.18 c 0.07 -0.03 0.17 -0.05 0.3 -0.08 c 0.28 -0.05 0.48 -0.11 0.62 -0.18 c 0 -0.07 0 -0.12 0 -0.14 c 0 -0.21 -0.03 -0.37 -0.1 -0.46 c -0.09 -0.12 -0.22 -0.18 -0.39 -0.18 c -0.16 0 -0.29 0.04 -0.36 0.13 c -0.07 0.09 -0.13 0.24 -0.17 0.46 l -0.34 -0.07 c 0.03 -0.22 0.08 -0.4 0.15 -0.54 c 0.07 -0.14 0.17 -0.24 0.3 -0.32 c 0.13 -0.07 0.29 -0.11 0.46 -0.11 c 0.18 0 0.32 0.03 0.43 0.09 c 0.11 0.06 0.19 0.14 0.24 0.24 c 0.05 0.09 0.09 0.21 0.11 0.36 c 0.01 0.09 0.02 0.25 0.02 0.49 v 0.71 c 0 0.49 0.01 0.8 0.02 0.94 c 0.02 0.13 0.04 0.25 0.09 0.38 h -0.36 c -0.04 -0.11 -0.06 -0.24 -0.07 -0.39 m -0.03 -1.19 c -0.13 0.08 -0.31 0.14 -0.56 0.2 c -0.14 0.03 -0.25 0.07 -0.3 0.11 c -0.06 0.04 -0.1 0.1 -0.14 0.17 c -0.03 0.07 -0.05 0.16 -0.05 0.25 c 0 0.14 0.04 0.26 0.11 0.36 c 0.07 0.09 0.17 0.14 0.3 0.14 c 0.13 0 0.25 -0.04 0.36 -0.13 c 0.11 -0.09 0.18 -0.21 0.23 -0.37 c 0.04 -0.12 0.05 -0.3 0.05 -0.53"/><path d="m 9.98 14.1 v -3.82 h -0.93 v -0.51 h 2.23 v 0.51 h -0.93 v 3.82"/><path d="m 12.58 13.1 l 0.36 0.07 c -0.05 0.32 -0.16 0.57 -0.31 0.75 c -0.15 0.18 -0.35 0.27 -0.58 0.27 c -0.3 0 -0.54 -0.14 -0.71 -0.42 c -0.18 -0.29 -0.26 -0.68 -0.26 -1.19 c 0 -0.53 0.09 -0.94 0.27 -1.23 c 0.18 -0.29 0.41 -0.43 0.69 -0.43 c 0.27 0 0.5 0.14 0.67 0.43 c 0.17 0.29 0.26 0.69 0.26 1.2 c 0 0.03 0 0.08 0 0.14 h -1.52 c 0.01 0.35 0.07 0.61 0.19 0.79 c 0.11 0.18 0.26 0.27 0.43 0.27 c 0.13 0 0.23 -0.05 0.32 -0.15 c 0.09 -0.1 0.16 -0.27 0.21 -0.49 m -1.14 -0.86 h 1.14 c -0.02 -0.27 -0.06 -0.46 -0.13 -0.59 c -0.11 -0.2 -0.25 -0.31 -0.43 -0.31 c -0.16 0 -0.29 0.08 -0.4 0.25 c -0.11 0.16 -0.17 0.38 -0.18 0.66"/><path d="m 13.1 14.1 l 1.09 -2.25 l -0.96 -2.07 h 0.45 l 0.51 1.11 c 0.11 0.23 0.18 0.41 0.23 0.53 c 0.06 -0.16 0.14 -0.32 0.22 -0.5 l 0.56 -1.14 h 0.41 l -0.99 2.04 l 1.07 2.29 h -0.46 l -0.71 -1.54 c -0.04 -0.09 -0.08 -0.19 -0.13 -0.29 c -0.06 0.16 -0.11 0.27 -0.13 0.32 l -0.71 1.51"/></g></svg>