<svg xmlns="http://www.w3.org/2000/svg" viewBox="0 0 22 22"><path d="m 21.79 13.58 c -4.3 20.62 -33.85 -1.52 -16.1 -12 c 6.89 -4.49 18.3 1.39 16.1 12" style="fill:#8fd244"/><path d="m 13.47 5.91 l 0.02 0.02 l 0.06 -0.02 m 0.66 0.7 l 4.09 3.81 v -3.81" style="fill-opacity:0.2"/><path d="m 13.41 2.1 l 4.83 4.5 h -4.09 c -0.36 0 -0.74 -0.36 -0.74 -0.7 v -3.8" style="fill:#fff;fill-opacity:0.39"/><g style="fill:#4069e0"><path d="m 7.6 13.82 l 0.34 -0.4 l 2.66 2.26 l -0.34 0.4"/><path d="m 7.57 12.1 l 0.34 0.4 l 2.66 -2.27 l -0.34 -0.4"/><path d="m 8.32 12.61 v 0.53 l 2.08 -0.02 v -0.53"/></g><path d="m 8.64 12.85 c 0 0.83 -0.66 1.5 -1.46 1.5 c -0.81 0 -1.47 -0.67 -1.47 -1.5 c 0 -0.83 0.66 -1.5 1.47 -1.5 c 0.81 0 1.46 0.67 1.46 1.5" style="fill:#6395ec"/><g style="fill:#fff"><path d="m 10.31 12.34 h 3.82 c 0.23 0 0.41 0.25 0.41 0.56 c 0 0.31 -0.18 0.56 -0.41 0.56 h -3.82 c -0.23 0 -0.41 -0.25 -0.41 -0.56 c 0 -0.31 0.18 -0.56 0.41 -0.56"/><path d="m 10.48 9.1 h 3.49 c 0.32 0 0.58 0.32 0.58 0.72 c 0 0.4 -0.26 0.73 -0.58 0.73 h -3.49 c -0.32 0 -0.58 -0.32 -0.58 -0.73 c 0 -0.4 0.26 -0.72 0.58 -0.72"/><path d="m 10.64 15.31 h 3.42 c 0.34 0 0.61 0.35 0.61 0.79 c 0 0.44 -0.27 0.79 -0.61 0.79 h -3.42 c -0.34 0 -0.61 -0.36 -0.61 -0.79 c 0 -0.44 0.28 -0.79 0.61 -0.79"/></g></svg>