<svg xmlns="http://www.w3.org/2000/svg" viewBox="0 0 22 22"><path d="m 0.28 13.52 c 4.29 20.61 33.85 -1.52 16.1 -12 c -6.89 -4.49 -18.3 1.39 -16.1 12" style="fill:#c2b8af"/><path d="m 13.46 5.5 l 0.02 0.02 l 0.06 -0.02 m 0.66 0.7 l 4.09 3.8 v -3.8" style="fill-opacity:0.2"/><path d="m 13.5 1.72 l 4.83 4.5 h -4.09 c -0.36 0 -0.74 -0.36 -0.74 -0.7 v -3.8" style="fill:#fff;fill-opacity:0.39"/><path d="m 10.48 7.72 c -0.26 0 -0.46 0.04 -0.57 0.15 c -0.05 0.05 -0.09 0.14 -0.14 0.28 c -0.05 0.14 -0.11 0.32 -0.18 0.55 c -0.14 0.45 -0.3 1.07 -0.48 1.83 c -0.27 1.1 -0.08 1.74 0.11 2.09 c 0.11 0.22 0.21 0.38 0.24 0.59 c 0.03 0.21 -0.02 0.48 -0.19 0.91 c -0.13 0.31 -0.26 0.49 -0.38 0.59 c -0.12 0.1 -0.23 0.14 -0.34 0.15 c -0.3 -0.07 -0.56 -0.1 -0.76 -0.1 c -0.1 0 -0.19 0.01 -0.26 0.03 c -0.07 0.02 -0.13 0.06 -0.15 0.12 c -0.04 0.09 0.01 0.17 0.09 0.26 c 0.07 0.08 0.19 0.16 0.33 0.25 c 0.29 0.18 0.7 0.36 1.17 0.52 c 0.46 0.16 0.9 0.26 1.25 0.3 c 0.17 0.02 0.32 0.02 0.43 0 c 0.12 -0.02 0.21 -0.06 0.24 -0.14 c 0.02 -0.07 0 -0.13 -0.04 -0.2 c -0.04 -0.06 -0.1 -0.12 -0.18 -0.18 c -0.15 -0.12 -0.38 -0.25 -0.66 -0.38 c -0.12 -0.12 -0.22 -0.21 -0.28 -0.35 c -0.06 -0.15 -0.07 -0.36 0.03 -0.72 c 0.19 -0.71 0.42 -0.92 0.68 -1.08 c 0.27 -0.16 0.6 -0.27 0.96 -0.73 c 0.59 -0.77 0.74 -1.36 1.08 -2.25 c 0.18 -0.47 0.3 -0.82 0.38 -1.05 c 0.04 -0.12 0.07 -0.21 0.08 -0.28 c 0.02 -0.07 0.03 -0.12 0 -0.17 c -0.17 -0.31 -0.59 -0.55 -1.05 -0.72 c -0.46 -0.16 -0.98 -0.26 -1.37 -0.26 m 0.05 0.32 c 0.27 0 0.63 0.07 0.91 0.16 c 0.31 0.1 0.61 0.23 0.82 0.35 c 0.1 0.06 0.19 0.11 0.24 0.16 c 0.05 0.05 0.06 0.09 0.06 0.09 c -0.07 0.39 -0.21 0.68 -0.28 0.85 c -0.16 -0.09 -0.32 -0.09 -0.48 -0.04 c -0.2 0.06 -0.39 0.17 -0.6 0.26 c -0.21 0.09 -0.43 0.14 -0.67 0.09 c -0.23 -0.04 -0.5 -0.18 -0.79 -0.5 c 0.01 -0.04 0.24 -0.84 0.4 -1.32 c 0 -0.02 0.03 -0.05 0.11 -0.07 c 0.07 -0.02 0.18 -0.02 0.3 -0.02" style="fill:#a00"/></svg>