<svg xmlns="http://www.w3.org/2000/svg" viewBox="0 0 22 22"><path d="m 0.28 13.52 c 4.29 20.61 33.85 -1.52 16.1 -12 c -6.89 -4.49 -18.3 1.39 -16.1 12" style="fill:#a16884"/><path d="m 13.23 6.15 l 0.02 0.02 l 0.06 -0.02 m 0.66 0.7 l 4.09 3.81 v -3.81" style="fill-opacity:0.2"/><g style="fill:#fff"><path d="m 13.23 2.35 l 4.83 4.5 h -4.09 c -0.36 0 -0.74 -0.36 -0.74 -0.7 v -3.8" style="fill-opacity:0.39"/><path d="m 8.6 16.96 c -1.17 -0.41 -2.75 -1.02 -2.83 -1.09 c -0.16 -0.13 -0.28 -0.63 -0.29 -1.18 c -0.01 -0.3 -0.01 -0.57 -0.02 -0.6 c 0 -0.03 -0.11 -0.13 -0.24 -0.21 c -0.54 -0.39 -0.67 -0.68 -0.64 -1.39 c 0.02 -0.34 0.05 -0.53 0.13 -0.68 c 0.13 -0.25 0.2 -0.32 0.63 -0.56 c 0.19 -0.11 0.38 -0.24 0.41 -0.29 c 0.04 -0.05 0.09 -0.34 0.14 -0.62 c 0.1 -0.73 0.14 -0.82 0.48 -0.98 c 0.41 -0.2 1.39 -0.58 2.45 -0.95 c 1.13 -0.39 1.23 -0.4 2.06 -0.13 c 0.59 0.19 3 1.08 3.04 1.11 c -0.07 0.71 -0.36 1.09 0.02 2.17 c -0.02 0.04 -0.25 0.19 -0.52 0.33 c -0.27 0.14 -0.57 0.3 -0.66 0.36 c -0.43 0.28 -0.18 0.95 0.47 1.29 c 0.38 0.2 0.55 0.36 0.32 0.73 c -0.22 0.36 -0.29 0.78 0 1 c 0.39 0.3 0.11 0.54 -0.16 0.68 c -0.46 0.25 -3.22 1.27 -3.59 1.34 c -0.13 0.03 -0.39 -0.04 -1.18 -0.32 m 2.45 -0.53 c 1.47 -0.52 1.97 -0.75 2.1 -0.95 c -0.16 -0.48 0.03 -0.79 -0.08 -1.25 c -0.04 -0.14 0.08 -0.11 -0.15 -0.09 c -0.28 0.04 -1.68 0.51 -2.55 0.86 c -0.63 0.26 -0.79 0.38 -0.95 0.7 c -0.11 0.23 -0.35 0.07 -0.48 -0.06 c -0.2 -0.2 -2.64 -1.18 -2.96 -1.21 c -0.15 -0.02 -0.15 -0.02 -0.16 0.28 c -0.01 0.21 0.11 0.65 0.17 0.74 c 0.1 0.16 0.84 0.4 1.88 0.91 c 2.11 1.04 0.92 -0.6 1.25 -0.94 c 0.16 -0.16 0.2 1 0.38 1.23 c 0.11 0.14 0.22 0.25 0.23 0.25 c 0.02 0 0.61 -0.21 1.33 -0.47 m -1.58 -1.92 c 0.49 -0.15 2.64 -0.82 2.88 -0.94 c 0.3 -0.16 0 -0.28 -0.01 -0.64 c -0.01 -0.37 0.06 -0.57 -0.08 -0.57 c -0.05 0 -0.58 0.15 -1 0.3 c -0.53 0.27 -1.02 0.27 -1.59 0.27 c -0.48 0.15 -0.65 0.14 -1.02 0.2 l -0.27 0.8 l -0.16 -0.74 c -0.49 -0.28 -2.57 -1.07 -2.99 -1.14 c -0.17 -0.03 -0.22 -0.02 -0.31 0.08 c -0.09 0.1 -0.11 0.15 -0.08 0.47 c 0.03 0.46 0.12 0.57 0.58 0.82 c 0.4 0.21 2.11 0.87 2.68 1.02 c 0.34 0.09 -0.22 -1.68 0.29 -1.04 c 0.13 0.46 -0.08 0.91 0.33 1.21 c 0.12 0.07 0.16 0.06 0.76 -0.12 m 1.55 -2.21 c 0.77 -0.26 1.84 -0.66 2.2 -0.83 c 0.32 -0.15 0.16 -0.12 0.18 -0.75 c 0.04 -0.76 0.22 -0.98 -0.61 -0.73 c -0.45 0.14 -1.97 0.73 -2.41 0.94 c -0.29 0.14 -0.37 0.21 -0.45 0.37 c -0.2 0.42 -0.2 0.95 0.02 1.18 c 0.14 0.14 0.12 0.15 1.07 -0.18 m -1.55 -0.13 c 0.03 -0.04 0.07 -0.21 0.09 -0.39 c 0.02 -0.25 0.02 -0.33 -0.04 -0.36 c -0.09 -0.06 -2.12 -0.76 -2.71 -0.94 c -0.59 -0.18 -0.62 -0.18 -0.62 0.06 c 0 0.41 0.21 0.59 1.1 0.94 c 0.52 0.2 2.03 0.75 2.09 0.76 c 0.02 0 0.06 -0.03 0.09 -0.07 m -2.39 -0.18 c 0 -0.09 -1.25 -0.6 -1.37 -0.63 c -0.11 -0.03 -0.39 0.09 -0.42 0.19 c -0.04 0.1 0.21 0.06 0.52 0.17 c 0.34 0.12 1.27 0.37 1.27 0.27"/></g></svg>