<svg xmlns="http://www.w3.org/2000/svg" xmlns:xlink="http://www.w3.org/1999/xlink" viewBox="0 0 22 22"><defs><g id="3" style="clip-path:url(#2)"><path d="m 156 127.1 c -2.63 -4.6 -4.75 -8.48 -4.75 -8.63 c 0 -0.1 2.17 -3.93 4.85 -8.48 l 4.8 -8.27 h 19.35 l 4.6 8.1 c 2.53 4.44 4.7 8.22 4.8 8.38 c 0.15 0.26 -1.06 2.5 -4.45 8.53 c -2.58 4.49 -4.75 8.27 -4.9 8.48 c -0.25 0.26 -1.57 0.31 -9.9 0.31 h -9.65" transform="matrix(0.077 0 0 0.076 -2.99 3.21)" style="fill:#fff;stroke:#0c0606;stroke-width:0.67"/></g><clipPath id="2"><path d="M 0,0 H22 V22 H0 z"/></clipPath><filter id="0" filterUnits="objectBoundingBox" x="0" y="0" width="22" height="22"><feColorMatrix type="matrix" in="SourceGraphic" values="0 0 0 0 1 0 0 0 0 1 0 0 0 0 1 0 0 0 1 0"/></filter><mask id="1"><g style="filter:url(#0)"><path d="M 0,0 H22 V22 H0 z" style="fill-opacity:0.98"/></g></mask></defs><path d="m 0.28 13.52 c 4.29 20.61 33.85 -1.52 16.1 -12 c -6.89 -4.49 -18.3 1.39 -16.1 12" style="fill:#31cd31"/><path d="m 13.23 6.15 l 0.02 0.02 l 0.06 -0.02 m 0.66 0.7 l 4.09 3.81 v -3.81" style="fill-opacity:0.2"/><path d="m 13.23 2.35 l 4.83 4.5 h -4.09 c -0.36 0 -0.74 -0.36 -0.74 -0.7 v -3.8" style="fill:#fff;fill-opacity:0.39"/><g transform="matrix(0.077 0 0 0.076 -2.99 3.21)"><g style="stroke:#000;stroke-width:1.18"><path d="m 115.8 101.6 c -1.62 5.31 -2.48 11.13 -2.48 16.96 c 0 14.45 5.3 27.63 14.1 37.79 l 31.52 -54.6 h -43.2" style="fill:#c0f"/><path d="m 128.5 157.5 c 10.46 11.29 25.36 18.33 41.98 18.33 c 3.79 0 7.38 -0.31 10.91 -1.02 l -31.2 -54.75" style="fill:#4c3dff"/><path d="m 212.2 79.3 c -10.46 -11.13 -25.2 -18 -41.68 -18 c -3.79 0 -7.53 0.36 -11.16 1.07 l 31.3 54.6" style="fill:#ff8433"/><path d="m 157.8 62.7 c -19.5 4.39 -35.2 18.84 -41.4 37.43 h 63" style="fill:#f00"/></g><path d="m 225.2 135.4 c 1.62 -5.26 2.48 -11.1 2.48 -16.9 c 0 -14.61 -5.56 -27.94 -14.45 -38.1 l -31.2 54.95 h 43.2" style="fill:#04d503;stroke:#0c0606;stroke-width:1.88"/><path d="m 182.9 174.5 c 19.6 -4.34 35.3 -18.84 41.63 -37.54 h -63.2" style="fill:#fff200;stroke:#000;stroke-width:1.95"/></g><g style="fill:#fff"><path d="m 10.98 10.86 v 0.12 h -0.03 l 0.75 1.29 l 0.06 -0.12 l -2.42 -4.18 c -0.04 0.01 -0.08 0.02 -0.12 0.03 l 1.67 2.86"/><path d="m 9.36 10.9 l 0.1 0.05 l -0.02 0.03 h 1.51 l -0.07 -0.12 h -4.87 c -0.02 0.04 -0.03 0.08 -0.04 0.12 h 3.34"/><path d="m 10.89 10.87 l 0.06 0.12 h 0.04 v -0.12"/><path d="m 6.74 15.36 l 0.1 0.05 l 0.1 -0.17 c -0.03 -0.02 -0.05 -0.06 -0.08 -0.09"/><path d="m 8.57 12.3 l 0.1 -0.05 l 0.02 0.03 l 0.75 -1.29 h -0.14 l -2.44 4.18 c 0.03 0.03 0.05 0.06 0.08 0.09 l 1.67 -2.86"/><path d="m 9.31 10.99 h 0.14 l 0.02 -0.03 l -0.1 -0.05"/><path d="m 9.4 13.68 v -0.12 h 0.03 l -0.75 -1.3 l -0.07 0.12 l 2.41 4.18 c 0.05 -0.01 0.08 -0.02 0.12 -0.03 l -1.65 -2.87 h -0.09"/><path d="m 8.63 12.4 l 0.06 -0.12 l -0.02 -0.03 l -0.1 0.05"/><path d="m 14.38 13.68 h 0.23 v -0.12 h -0.19 c -0.02 0.04 -0.02 0.08 -0.04 0.12"/><path d="m 11.1 13.56 l -0.05 0.09 l -0.1 -0.05 l 0.02 -0.02 h -1.51 l 0.07 0.12 h 4.87 c 0.02 -0.04 0.03 -0.08 0.04 -0.12 h -3.33"/><path d="m 9.51 13.69 l -0.07 -0.12 h -0.03 v 0.12"/><path d="m 13.6 9.17 l -0.1 -0.05 l -0.09 0.16 c 0.03 0.03 0.05 0.06 0.08 0.09"/><path d="m 11.82 12.25 l -0.1 0.05 l -0.02 -0.04 l -0.75 1.3 h 0.14 l 2.41 -4.2 c -0.02 -0.03 -0.05 -0.06 -0.08 -0.09 l -1.65 2.88"/><path d="m 11.77 12.16 l -0.07 0.12 l 0.02 0.04 l 0.1 -0.05"/><path d="m 11 13.66 l 0.05 -0.09 h -0.14 l -0.02 0.04"/></g><use xlink:href="#3" style="mask:url(#1)"/><path d="m 231.2 118.4 c 0 33.4 -27.1 60.4 -60.4 60.4 c -33.3 0 -60.4 -27 -60.4 -60.4 c 0 -33.3 27.1 -60.4 60.4 -60.4 c 33.3 0 60.4 27 60.4 60.4" transform="matrix(0.077 0 0 0.076 -2.99 3.21)" style="fill:none;stroke-miterlimit:10;stroke:#0c0606;stroke-width:6.6"/></svg>