<svg xmlns="http://www.w3.org/2000/svg" viewBox="0 0 22 22"><path d="m 0.28 13.52 c 4.29 20.61 33.85 -1.52 16.1 -12 c -6.89 -4.49 -18.3 1.39 -16.1 12"/><path d="m 13.83 6.07 l 0.02 0.02 l 0.06 -0.02 m 0.66 0.7 l 4.09 3.81 v -3.81" style="fill:#dcdcdc;fill-opacity:0.2"/><path d="m 13.88 2.26 l 4.83 4.5 h -4.09 c -0.36 0 -0.74 -0.36 -0.74 -0.7 v -3.8" style="fill:#fff;fill-opacity:0.39"/><path d="m 6.4 9.97 c 0.02 -0.02 0.55 -0.45 1.19 -0.96 c 0.9 -0.71 1.17 -0.94 1.21 -1.03 c 0.05 -0.09 0.12 -0.21 0.11 -0.54 c -0.01 -0.59 -0.09 -0.89 0.23 -0.91 c 0.37 -0.02 0.29 0.07 0.38 0.16 c 0.09 0.1 0.05 0.32 0.11 0.68 c 0.02 0.16 0.04 0.29 0.05 0.29 c 0 0 1.02 0.02 2.26 0.05 c 1.24 0.02 2.25 0.05 2.26 0.05 c 0 0 -0.11 0.09 -0.25 0.19 c -0.26 0.18 -0.96 0.72 -2 1.55 l -0.54 0.43 l -2.3 0.02 c -1.27 0.01 -2.4 0.02 -2.51 0.04 c -0.18 0.01 -0.2 0.01 -0.18 -0.02" style="fill:#f4f4f4"/><path d="m 5.19 16.34 c -0.11 -0.14 -0.01 -0.32 0.57 -0.92 l 0.36 -0.37 l 0.02 -2.29 c 0.01 -2.14 0.02 -2.3 0.09 -2.37 c 0.07 -0.07 0.25 -0.08 2.57 -0.09 l 2.49 -0.02 v 5.17 l -0.33 0.03 c -0.18 0.02 -1.27 0.03 -2.42 0.03 h -1.89 l -0.41 0.42 c -0.49 0.5 -0.82 0.69 -1.05 0.41" style="fill:#999"/><path d="m 11.54 12.87 v -2.55 l 1.35 -1.06 c 0.74 -0.59 1.37 -1.06 1.4 -1.06 c 0.03 0 0.05 1.07 0.05 2.37 c 0 2.66 -0.02 2.45 0.68 2.45 c 0.27 0 0.41 0.14 0.43 0.27 c 0.05 0.39 -0.31 0.3 -0.82 0.34 c -0.73 0.05 -0.59 -0.14 -1.87 0.87 c -0.55 0.43 -1.04 0.81 -1.11 0.85 c -0.09 0.05 -0.11 -0.46 -0.11 -2.48 m -4.53 1.11 c -0.15 -0.04 -0.3 -0.29 -0.21 -0.38 c 0.02 -0.02 0.24 -0.05 0.48 -0.05 c 0.36 -0.01 0.43 -0.04 0.46 -0.2 c 0.02 -0.15 -0.04 -0.21 -0.27 -0.28 c -0.34 -0.1 -0.4 -0.34 -0.1 -0.38 c 0.24 -0.04 0.45 -0.27 0.34 -0.38 c -0.04 -0.05 -0.24 -0.09 -0.44 -0.11 c -0.47 -0.04 -0.49 -0.27 -0.03 -0.39 c 0.69 -0.17 1.25 0.23 1.05 0.75 c -0.06 0.16 -0.05 0.32 0.02 0.49 c 0.06 0.14 0.08 0.36 0.05 0.49 c -0.09 0.37 -0.77 0.59 -1.33 0.43 m 1.86 -0.15 c -0.02 -0.07 -0.03 -0.53 -0.02 -1.03 l 0.03 -0.91 l 0.58 -0.03 c 0.32 -0.02 0.7 0.02 0.83 0.08 c 0.72 0.3 0.76 1.51 0.07 1.87 c -0.32 0.17 -1.42 0.18 -1.48 0.01 m 1.23 -0.52 c 0.1 -0.1 0.18 -0.29 0.18 -0.41 c 0 -0.13 -0.08 -0.31 -0.18 -0.41 c -0.1 -0.1 -0.28 -0.18 -0.41 -0.18 c -0.22 0 -0.23 0.02 -0.23 0.59 c 0 0.57 0.01 0.59 0.23 0.59 c 0.13 0 0.31 -0.08 0.41 -0.18" style="fill:#686868"/></svg>