<svg xmlns="http://www.w3.org/2000/svg" viewBox="0 0 22 22"><path d="m 0.28 13.52 c 4.29 20.61 33.85 -1.52 16.1 -12 c -6.89 -4.49 -18.3 1.39 -16.1 12" style="fill:#0f0"/><path d="m 13.23 6.15 l 0.02 0.02 l 0.06 -0.02 m 0.66 0.7 l 4.09 3.81 v -3.81" style="fill-opacity:0.2"/><path d="m 13.23 2.35 l 4.83 4.5 h -4.09 c -0.36 0 -0.74 -0.36 -0.74 -0.7 v -3.8" style="fill:#2f4e4e;fill-opacity:0.39"/><path d="m 14.41 10.59 c -0.62 -0.04 -1.1 -0.03 -1.77 -0.03 c 0 -0.34 0 -0.68 0 -1.02 c 0.97 0 1.95 0 2.92 0 c 0 0.32 0 0.63 0 0.95 l -1.69 3.61 c -0.38 0 -0.75 0 -1.13 0 c 0.54 -1.25 1.24 -2.5 1.67 -3.52"/><path d="m 5.74 9.55 c 1.02 0 2.04 0 3.05 0 c 0 0.35 0 0.7 0 1.05 c -0.68 0 -1.36 0 -2.04 0 c 0 0.24 0 0.48 0 0.72 c 0.61 0 1.22 0 1.84 0 c 0 0.33 0 0.66 0 0.98 c -0.61 0 -1.22 0 -1.84 0 c 0 0.25 0 0.5 0 0.75 c 0.69 0 1.38 0 2.07 0 c 0 0.35 0 0.7 0 1.05 c -1.03 0 -2.05 0 -3.09 0 c 0 -1.52 0 -3.04 0 -4.56"/><path d="m 9.73 13.93 c -0.25 -0.15 -0.55 -0.41 -0.53 -0.46 c 0.01 -0.04 0.49 -0.71 0.55 -0.78 c 0.02 -0.02 0.1 0.04 0.18 0.11 c 0.48 0.43 1.07 0.45 1.28 0.06 c 0.14 -0.26 0.07 -0.55 -0.17 -0.73 c -0.37 -0.13 -0.66 -0.04 -0.97 0.12 c -0.2 -0.13 -0.41 -0.26 -0.58 -0.42 c -0.02 -0.05 0.03 -1.43 0.07 -2 l 0.02 -0.27 c 0.84 0 1.68 0 2.52 0 c 0 0.34 0 0.68 0 1.02 c -0.57 0 -1.13 0 -1.7 0 c -0.05 0.24 -0.04 0.51 -0.04 0.71 l 0.22 -0.08 c 0.73 -0.25 1.44 0.14 1.65 0.91 c 0.11 0.7 -0.02 1.43 -0.62 1.84 c -0.63 0.32 -1.34 0.31 -1.89 -0.02"/></svg>