<svg xmlns="http://www.w3.org/2000/svg" viewBox="0 0 22 22"><path d="m 0.28 13.52 c 4.29 20.61 33.85 -1.52 16.1 -12 c -6.89 -4.49 -18.3 1.39 -16.1 12" style="fill:#6a8e22"/><path d="m 13.23 6.15 l 0.02 0.02 l 0.06 -0.02 m 0.66 0.7 l 4.09 3.81 v -3.81" style="fill-opacity:0.2"/><g style="fill:#fff"><path d="m 13.23 2.35 l 4.83 4.5 h -4.09 c -0.36 0 -0.74 -0.36 -0.74 -0.7 v -3.8" style="fill-opacity:0.39"/><path d="m 12.71 9.77 c 0.3 0 0.61 0 0.91 0 c 0 1.02 0 2.05 0 3.07 c 0.56 0 1.12 0 1.68 0 c 0 0.32 0 0.64 0 0.96 c -0.86 0 -1.73 0 -2.59 0 c 0 -1.35 0 -2.7 0 -4"/><path d="m 6.44 13.84 c -0.51 -0.11 -0.92 -0.45 -1.18 -0.98 c -0.18 -0.37 -0.23 -0.6 -0.23 -1.04 c 0 -0.46 0.05 -0.74 0.24 -1.11 c 0.2 -0.37 0.47 -0.66 0.81 -0.82 c 0.78 -0.38 1.6 -0.16 2.11 0.57 l 0.05 0.08 c -0.23 0.21 -0.45 0.41 -0.68 0.62 l -0.08 -0.11 c -0.17 -0.22 -0.41 -0.34 -0.68 -0.34 c -0.49 0 -0.83 0.45 -0.83 1.09 c 0 0.64 0.34 1.08 0.83 1.08 c 0.1 0 0.22 -0.02 0.27 -0.03 c 0.23 -0.09 0.35 -0.27 0.51 -0.42 c 0.25 0.19 0.43 0.35 0.69 0.56 l -0.05 0.09 c -0.2 0.25 -0.44 0.52 -0.7 0.64 c -0.37 0.14 -0.77 0.2 -1.08 0.14"/><path d="m 11.57 13.71 l -0.18 -0.2 l -0.17 0.11 c -0.4 0.25 -0.91 0.33 -1.36 0.2 c -0.28 -0.08 -0.5 -0.22 -0.75 -0.46 c -0.2 -0.2 -0.25 -0.27 -0.37 -0.52 c -0.28 -0.57 -0.32 -1.22 -0.11 -1.83 c 0.2 -0.59 0.62 -1.03 1.18 -1.22 c 0.35 -0.09 0.63 -0.14 0.98 -0.03 c 0.54 0.16 0.99 0.59 1.21 1.15 c 0.13 0.33 0.17 0.59 0.16 0.99 c -0.02 0.39 -0.06 0.57 -0.2 0.87 l -0.09 0.2 c 0.12 0.12 0.23 0.23 0.35 0.35 c -0.15 0.2 -0.3 0.39 -0.45 0.58 c -0.09 -0.06 -0.14 -0.11 -0.2 -0.18 m -0.96 -0.84 c 0.05 -0.02 0.08 -0.04 0.08 -0.05 c -0.15 -0.18 -0.28 -0.3 -0.46 -0.48 c 0.15 -0.2 0.3 -0.41 0.46 -0.59 c 0.18 0.14 0.28 0.29 0.46 0.45 c 0.08 0 0.11 -0.51 0.04 -0.76 c -0.18 -0.71 -0.89 -0.99 -1.38 -0.56 c -0.59 0.53 -0.44 1.72 0.25 1.98 c 0.18 0.02 0.38 0.06 0.55 0"/></g></svg>