<svg xmlns="http://www.w3.org/2000/svg" viewBox="0 0 22 22"><path d="m 0.28 13.52 c 4.29 20.61 33.85 -1.52 16.1 -12 c -6.89 -4.49 -18.3 1.39 -16.1 12" style="fill:#e84d31"/><path d="m 13.23 6.15 l 0.02 0.02 l 0.06 -0.02 m 0.66 0.7 l 4.09 3.81 v -3.81" style="fill-opacity:0.2"/><g style="fill:#fff"><path d="m 13.23 2.35 l 4.83 4.5 h -4.09 c -0.36 0 -0.74 -0.36 -0.74 -0.7 v -3.8" style="fill-opacity:0.39"/><path d="m 11.36 13.71 c -0.28 -0.06 -0.73 -0.28 -0.92 -0.44 l -0.13 -0.11 c 0.13 -0.27 0.27 -0.53 0.4 -0.8 l 0.13 0.08 c 0.62 0.4 1.3 0.46 1.3 0.12 c 0 -0.16 -0.09 -0.22 -0.56 -0.39 c -0.69 -0.25 -0.96 -0.5 -1.07 -0.94 c -0.07 -0.27 -0.03 -0.71 0.08 -0.95 c 0.11 -0.25 0.36 -0.5 0.62 -0.61 c 0.28 -0.13 0.85 -0.12 1.2 0 c 0.25 0.09 0.66 0.31 0.66 0.36 c 0 0.06 -0.36 0.83 -0.38 0.82 c -0.74 -0.38 -1.22 -0.43 -1.22 -0.12 c 0 0.15 0.08 0.22 0.41 0.34 c 0.79 0.3 1.04 0.49 1.19 0.88 c 0.18 0.46 0.05 1.12 -0.28 1.45 c -0.31 0.3 -0.88 0.42 -1.42 0.3"/><path d="m 7.64 13.61 c -0.12 -0.04 -0.25 -0.12 -0.36 -0.24 c -0.24 -0.24 -0.32 -0.48 -0.32 -0.95 c 0 -0.32 0.01 -0.39 0.11 -0.58 c 0.13 -0.26 0.35 -0.46 0.61 -0.55 c 0.24 -0.08 0.72 -0.08 0.99 0 c 0.11 0.03 0.2 0.06 0.22 0.06 c 0.06 0 -0.01 -0.39 -0.08 -0.49 c -0.28 -0.31 -0.83 -0.23 -1.16 -0.12 c -0.16 0.05 -0.23 0.07 -0.23 0.04 c -0.05 -0.31 -0.2 -0.61 -0.16 -0.91 c 0.02 -0.02 0.19 -0.08 0.37 -0.14 c 0.54 -0.13 1.09 -0.2 1.55 0 c 0.38 0.18 0.64 0.53 0.73 1 c 0.05 1.01 0.04 1.79 0.04 2.85 c -0.34 0 -0.68 0 -1.02 0 v -0.21 c 0 -0.11 -0.01 -0.21 -0.02 -0.21 c -0.01 0 -0.07 0.06 -0.13 0.13 c -0.33 0.26 -0.79 0.41 -1.12 0.31 m 1.02 -0.87 c 0.14 -0.09 0.24 -0.34 0.24 -0.58 c 0 -0.23 -0.04 -0.27 -0.33 -0.3 c -0.37 -0.05 -0.61 0.17 -0.62 0.53 c 0.02 0.27 0.23 0.45 0.44 0.43 c 0.09 -0.01 0.19 -0.04 0.27 -0.08"/></g></svg>