<svg xmlns="http://www.w3.org/2000/svg" viewBox="0 0 22 22"><path d="m 0.28 13.52 c 4.29 20.61 33.85 -1.52 16.1 -12 c -6.89 -4.49 -18.3 1.39 -16.1 12" style="fill:#93a525"/><path d="m 13.23 6.15 l 0.02 0.02 l 0.06 -0.02 m 0.66 0.7 l 4.09 3.81 v -3.81" style="fill-opacity:0.2"/><g style="fill:#fff"><path d="m 13.23 2.35 l 4.83 4.5 h -4.09 c -0.36 0 -0.74 -0.36 -0.74 -0.7 v -3.8" style="fill-opacity:0.39"/><path d="m 13.47 11.55 v -1.73 h 0.65 v 2.63 c 0.39 0 0.79 0 1.18 0 c 0 0.28 0 0.56 0 0.84 c -0.61 0 -1.22 0 -1.83 0"/><path d="m 4.82 9.82 c 0.21 0 0.43 0 0.64 0 c 0 0.43 0 0.86 0 1.29 c 0.3 0 0.61 0 0.91 0 c 0 -0.43 0 -0.86 0 -1.29 c 0.23 0 0.46 0 0.69 0 c 0 1.15 0 2.31 0 3.46 c -0.23 0 -0.46 0 -0.69 0 c 0 -0.45 0 -0.89 0 -1.33 c -0.3 0 -0.61 0 -0.91 0 c 0 0.44 0 0.89 0 1.33 c -0.21 0 -0.43 0 -0.64 0 c 0 -1.16 0 -2.31 0 -3.46"/><path d="m 7.36 13.2 c 0.02 -0.05 0.25 -0.83 0.53 -1.74 l 0.5 -1.66 c 0.21 0 0.43 0 0.64 0 l 0.53 1.73 c 0.29 0.95 0.52 1.74 0.52 1.75 c -0.25 0.01 -0.44 0 -0.7 -0.01 c -0.06 -0.21 -0.13 -0.42 -0.18 -0.63 c -0.32 0.02 -0.71 -0.04 -1 0.05 c -0.07 0.21 -0.11 0.38 -0.18 0.6 c -0.14 -0.01 -0.7 0.05 -0.66 -0.09 m 1.62 -1.27 c 0.02 -0.03 -0.25 -1.01 -0.28 -1.01 c -0.02 0 -0.3 0.94 -0.3 1 c 0 0.03 0.55 0.03 0.58 0"/><path d="m 10.34 11.55 v -1.73 c 0.24 0 0.48 0 0.71 0 l 0.3 0.66 c 0.16 0.37 0.3 0.67 0.32 0.67 c 0.02 0 0.15 -0.3 0.31 -0.67 l 0.29 -0.66 c 0.23 0 0.47 0 0.7 0 v 3.46 c -0.21 0 -0.43 0 -0.65 0 v -1.02 c 0 -0.56 -0.01 -1 -0.03 -0.98 c -0.02 0.02 -0.16 0.31 -0.31 0.64 c -0.15 0.34 -0.29 0.62 -0.3 0.64 c -0.01 0.02 -0.16 -0.27 -0.32 -0.62 c -0.17 -0.36 -0.32 -0.65 -0.33 -0.65 c -0.02 0 -0.03 0.45 -0.03 0.99 v 0.99 c -0.21 0 -0.43 0 -0.65 0"/></g></svg>