<svg xmlns="http://www.w3.org/2000/svg" viewBox="0 0 22 22"><path d="m 0.28 13.52 c 4.29 20.61 33.85 -1.52 16.1 -12 c -6.89 -4.49 -18.3 1.39 -16.1 12" style="fill:#ffd733"/><path d="m 13.23 6.15 l 0.02 0.02 l 0.06 -0.02 m 0.66 0.7 l 4.09 3.81 v -3.81" style="fill-opacity:0.2"/><path d="m 13.23 2.35 l 4.83 4.5 h -4.09 c -0.36 0 -0.74 -0.36 -0.74 -0.7 v -3.8" style="fill:#fff;fill-opacity:0.39"/><path d="m 7.79 7.74 h 4.31 c 1.19 0 2.15 0.92 2.15 2.05 v 4.11 c 0 1.14 -0.96 2.06 -2.15 2.06 h -4.31 c -1.19 0 -2.16 -0.92 -2.16 -2.06 v -4.11 c 0 -1.14 0.96 -2.05 2.16 -2.05" style="fill:#fbb100"/><path d="m 9.91 11.58 h 1.88 v 2.34 c -0.25 0.08 -0.5 0.14 -0.78 0.18 c -0.27 0.05 -0.57 0.07 -0.91 0.07 c -0.7 0 -1.25 -0.2 -1.63 -0.6 c -0.38 -0.4 -0.57 -0.97 -0.57 -1.73 c 0 -0.47 0.09 -0.88 0.28 -1.23 c 0.19 -0.34 0.47 -0.61 0.84 -0.8 c 0.36 -0.19 0.81 -0.29 1.34 -0.29 c 0.25 0 0.5 0.02 0.74 0.07 c 0.24 0.05 0.46 0.12 0.66 0.2 l -0.33 0.76 c -0.14 -0.07 -0.31 -0.13 -0.5 -0.18 c -0.19 -0.05 -0.38 -0.07 -0.58 -0.07 c -0.29 0 -0.54 0.06 -0.77 0.18 c -0.21 0.13 -0.38 0.3 -0.5 0.54 c -0.11 0.23 -0.17 0.5 -0.17 0.8 c 0 0.29 0.04 0.55 0.13 0.78 c 0.09 0.23 0.22 0.4 0.4 0.54 c 0.18 0.12 0.42 0.18 0.71 0.18 c 0.14 0 0.26 -0.01 0.36 -0.02 c 0.1 -0.02 0.2 -0.03 0.28 -0.04 v -0.93 h -0.89" style="fill:#fff"/></svg>