<svg xmlns="http://www.w3.org/2000/svg" viewBox="0 0 22 22"><path d="m 0.28 13.52 c 4.29 20.61 33.85 -1.52 16.1 -12 c -6.89 -4.49 -18.3 1.39 -16.1 12" style="fill:#171717"/><g style="fill:#fff"><path d="m 2.36 12.24 c 0.22 -1.4 0.39 -1.88 0.77 -3.34 h 0.88 c 0.96 0 1.2 0.07 1.37 0.39 c 0.25 0.47 0.15 0.91 -0.32 1.38 c -0.34 0.34 -0.69 0.49 -1.25 0.54 l -0.45 0.04 c -0.16 0.49 -0.22 0.99 -0.66 1.04 c -0.22 0.02 -0.3 0.01 -0.33 -0.06 m 2.12 -1.93 c 0.2 -0.15 0.25 -0.46 0.1 -0.61 c -0.13 -0.13 -0.37 -0.19 -0.57 -0.14 c -0.28 0.07 -0.46 0.65 -0.27 0.85 c 0.25 0.07 0.55 0.03 0.74 -0.11"/><path d="m 5.75 12 c -0.5 -0.53 -0.36 -1.19 0.41 -1.9 c 0.29 -0.36 0.5 -0.32 0.94 -0.32 c 0.32 0 0.71 0.02 0.86 0.05 c 0.29 0.02 0.29 0.03 0.27 0.31 c -0.01 0.3 -0.36 1.79 -0.46 1.98 c -0.06 0.11 -0.17 0.29 -0.93 0.13 c -0.48 0.02 -0.78 0.09 -1.1 -0.25 m 1.14 -0.42 c 0.55 -0.29 0.59 -0.97 0.07 -1.14 c -0.26 -0.08 -0.76 0.38 -0.76 0.7 c 0.11 0.37 0.39 0.61 0.7 0.45"/><path d="m 8.59 12.22 c -0.05 -0.07 -0.07 -0.21 -0.04 -0.46 c 0.07 -0.57 0.41 -1.8 0.53 -1.89 c 0.15 -0.11 0.47 -0.1 0.64 0.02 c 0.13 0.09 0.16 0.09 0.4 0 c 0.31 -0.13 0.46 -0.05 0.4 0.21 c -0.05 0.23 -0.15 0.32 -0.44 0.45 c -0.39 0.17 -0.52 0.34 -0.7 0.89 c -0.18 0.55 -0.27 0.76 -0.38 0.83 c -0.12 0.08 -0.33 0.05 -0.42 -0.05"/><path d="m 10.94 12.25 c -0.36 -0.14 -0.5 -0.43 -0.27 -0.55 c 0.06 -0.04 0.29 -0.05 0.51 -0.02 c 0.36 0.03 0.4 0.02 0.38 -0.08 c -0.01 -0.07 -0.12 -0.18 -0.24 -0.26 c -0.48 -0.3 -0.57 -0.4 -0.57 -0.61 c 0 -0.25 0.37 -0.71 0.68 -0.84 c 0.41 -0.17 0.93 -0.05 1.1 0.26 c 0.13 0.25 -0.01 0.37 -0.38 0.32 c -0.6 -0.07 -0.61 -0.07 -0.61 0.06 c 0 0.09 0.1 0.18 0.33 0.3 c 0.59 0.32 0.65 0.59 0.22 1.06 c -0.38 0.41 -0.74 0.53 -1.16 0.37"/><path d="m 12.9 12.25 c -0.06 -0.04 -0.09 -0.14 -0.07 -0.3 c 0.03 -0.37 0.46 -2.07 0.54 -2.13 c 0.14 -0.09 0.55 -0.05 0.59 0.05 c 0.08 0.21 -0.41 2.11 -0.59 2.32 c -0.11 0.12 -0.31 0.14 -0.46 0.05"/><path d="m 13.55 9.47 c -0.2 -0.09 -0.16 -0.49 0.07 -0.65 c 0.12 -0.08 0.59 -0.05 0.66 0.04 c 0.08 0.1 0.03 0.45 -0.08 0.54 c -0.11 0.09 -0.5 0.13 -0.66 0.07"/><path d="m 14.38 12.22 c -0.02 -0.05 0.04 -0.43 0.14 -0.84 c 0.21 -0.89 0.21 -0.89 0.03 -1.08 c -0.13 -0.13 -0.14 -0.17 -0.06 -0.34 c 0.04 -0.11 0.16 -0.23 0.26 -0.27 c 0.1 -0.04 0.34 -0.06 0.46 -0.22 c 0.12 -0.16 0.28 -0.5 0.42 -0.57 c 0.32 -0.16 0.79 -0.18 0.85 -0.04 c 0.06 0.16 -0.15 0.41 -0.41 0.49 c -0.31 0.08 -0.21 0.16 -0.04 0.31 c 0.11 0.09 0.2 0.22 0.2 0.29 c 0 0.13 -0.25 0.36 -0.46 0.42 c -0.15 0.05 -0.28 0.35 -0.52 1.17 c -0.14 0.51 -0.21 0.65 -0.34 0.71 c -0.22 0.1 -0.48 0.09 -0.53 -0.03"/><path d="m 16.1 13.1 c -0.05 -0.15 0.13 -0.51 0.29 -0.55 c 0.07 -0.02 0.21 -0.04 0.3 -0.04 c 0.18 0 0.41 -0.2 0.41 -0.35 c -0.07 -0.15 -0.2 -0.18 -0.35 -0.25 c -0.02 -0.01 -0.16 -1.05 -0.23 -1.69 c -0.05 -0.39 0.03 -0.48 0.4 -0.45 c 0.29 0.02 0.29 0.01 0.42 0.84 c 0.04 0.24 0.11 0.49 0.14 0.55 c 0.07 0.09 0.11 0.06 0.35 -0.32 c 0.15 -0.23 0.34 -0.54 0.41 -0.66 c 0.18 -0.31 0.35 -0.42 0.63 -0.42 c 0.2 0 0.23 0.02 0.23 0.14 c 0 0.16 -0.72 1.53 -1.17 2.23 c -0.46 0.71 -0.96 1.05 -1.55 1.05 c -0.18 0 -0.27 -0.03 -0.3 -0.1"/></g></svg>