<svg xmlns="http://www.w3.org/2000/svg" viewBox="0 0 22 22"><path d="m 11.32 0.19 c -2.25 0.17 -4.88 1.25 -6.7 2.75 c -2.23 1.82 -3.86 4.61 -4.3 7.36 c -0.52 3.63 1.58 7.54 3.95 9.39 c 1.19 0.9 2.77 1.62 4.25 1.93 c 3.86 0.82 7.88 -0.73 10.63 -4.09 c 1.65 -2 2.51 -4.05 2.72 -6.45 c 0.25 -2.88 -0.89 -5.98 -2.96 -8.1 c -2.36 -1.96 -4.79 -3 -7.59 -2.82" style="fill:#2f4e4e"/><path d="m 13.66 10.8 c -1.35 0.76 -1.98 1.31 -3.16 1.69 c 0.26 -0.76 0.52 -1.53 0.82 -2.28 c 0.39 -0.97 0.28 -1.48 -0.6 -2.8 c -0.38 -0.56 -0.68 -1.04 -0.68 -1.05 c 0.87 -0.02 1.73 0.02 2.67 0.04 c 0.79 -0.72 1.18 -1.33 1.98 -2 c 0.25 0.89 0.32 1.59 0.48 2.57 c 0.77 0.24 1.55 0.48 2.32 0.72 c 0.26 0.08 0.48 0.18 0.48 0.22 c -0.79 0.68 -1.46 1.12 -2.37 1.77 c 0.16 0.49 1.32 3.13 1.05 3.29 c -0.91 -0.67 -2.14 -1.55 -2.99 -2.16" style="fill:#f9de28"/><g style="fill:#ff8c00"><path d="m 7.32 12.4 c -0.02 -0.07 -0.01 -0.45 -0.09 -0.9 c -0.08 -0.45 -0.14 -0.97 -0.16 -1.04 c -0.13 -0.32 -0.63 -0.21 -0.87 -0.25 v -0.13 c 0.02 -0.21 0.79 -2.36 1.06 -2.95 c 0.08 -0.19 0.13 -0.25 0.2 -0.25 c 0.18 -0.02 1.4 0.37 1.66 0.53 c 0.07 0.05 0.08 0.09 0.07 0.45 c -0.02 0.75 -0.32 3.48 -0.48 4.34 c -0.03 0.23 -0.05 0.48 -0.31 0.48 c -0.3 -0.05 -0.98 -0.02 -1.08 -0.28"/><path d="m 6.41 17.25 c -0.14 -0.07 -0.38 -0.32 -0.45 -0.46 c -0.06 -0.14 -0.07 -0.3 -0.03 -0.39 c 0.05 -0.08 0.16 -0.07 0.37 0.02 c 0.13 0.07 0.16 0.09 0.29 0.01 c 0.18 -0.11 0.25 -0.29 0.17 -0.45 c -0.02 -0.04 -0.11 -0.16 -0.21 -0.27 c -0.39 -0.45 -0.52 -0.72 -0.46 -0.95 c 0.05 -0.17 0.15 -0.29 0.34 -0.39 c 0.31 -0.15 0.5 -0.14 0.71 0.06 c 0.1 0.09 0.1 0.17 0 0.28 c -0.07 0.08 -0.09 0.09 -0.25 0.08 c -0.31 -0.02 -0.48 0.16 -0.37 0.38 c 0.03 0.05 0.16 0.23 0.31 0.39 c 0.29 0.32 0.34 0.44 0.37 0.78 c 0.04 0.38 -0.12 0.77 -0.35 0.9 c -0.15 0.04 -0.32 0.07 -0.45 0"/><path d="m 7.98 17.83 c -0.14 -0.09 -0.29 -0.23 -0.38 -0.38 c -0.07 -0.1 -0.06 -0.26 0.02 -0.43 c 0.08 -0.17 0.18 -0.22 0.28 -0.15 c 0.21 0.14 0.5 0.08 0.59 -0.12 c 0.04 -0.09 0.05 -0.13 0.02 -0.25 c -0.05 -0.19 -0.14 -0.32 -0.45 -0.66 c -0.21 -0.23 -0.27 -0.32 -0.29 -0.44 c -0.12 -0.5 0.32 -1.05 0.82 -1.01 c 0.14 0.01 0.18 0.03 0.25 0.12 c 0.11 0.15 0.09 0.26 0.02 0.43 c -0.03 0.02 -0.14 0.05 -0.27 0.07 c -0.24 0.03 -0.28 0.05 -0.35 0.2 c -0.07 0.15 -0.04 0.23 0.15 0.44 c 0.41 0.46 0.49 0.61 0.54 0.93 c 0.04 0.26 0 0.72 -0.08 0.89 c -0.03 0.06 -0.11 0.16 -0.19 0.23 c -0.25 0.23 -0.46 0.27 -0.68 0.13"/><path d="m 9.39 18 c -0.04 -0.02 -0.04 -0.22 -0.02 -1.27 c 0.02 -1.57 0.06 -2.12 0.13 -2.2 c 0.08 -0.08 0.22 -0.09 0.3 -0.01 c 0.04 0.04 0.05 0.15 0.05 0.77 c 0 0.68 -0.07 2.27 -0.11 2.53 c -0.03 0.18 -0.2 0.27 -0.34 0.18"/><path d="m 10.65 18.28 c -0.2 -0.11 -0.41 -0.38 -0.41 -0.51 c 0 -0.1 0.13 -0.42 0.2 -0.5 c 0.23 -0.1 0.59 0.01 0.72 -0.24 c 0.06 -0.13 0.07 -0.34 0.01 -0.46 c -0.03 -0.05 -0.16 -0.18 -0.3 -0.3 c -0.35 -0.3 -0.46 -0.5 -0.46 -0.86 c 0 -0.3 0.07 -0.47 0.26 -0.68 c 0.27 -0.3 0.56 -0.34 0.79 -0.12 c 0.14 0.14 0.14 0.33 -0.01 0.47 c -0.18 0.11 -0.45 0.04 -0.54 0.24 c -0.09 0.21 -0.02 0.39 0.23 0.62 c 0.39 0.35 0.55 0.69 0.55 1.16 c 0 0.36 -0.12 0.66 -0.36 0.94 c -0.25 0.27 -0.48 0.36 -0.69 0.25"/><path d="m 12.82 17.99 c -0.3 -0.12 -0.34 -0.33 -0.38 -1.67 c -0.02 -0.55 -0.04 -0.89 -0.05 -0.93 c -0.02 -0.03 -0.17 -0.03 -0.22 -0.05 c -0.13 -0.04 -0.19 -0.09 -0.23 -0.3 c -0.03 -0.16 0.06 -0.25 0.12 -0.32 c 0.03 -0.04 0.14 -0.12 0.23 -0.16 c 0.2 -0.1 0.71 -0.26 0.88 -0.28 c 0.11 -0.01 0.21 -0.1 0.24 -0.03 c 0.04 0.1 0.23 0.35 0 0.59 c -0.11 0.14 -0.25 0.27 -0.3 0.43 c -0.02 0.07 -0.04 0.66 -0.05 1.33 c -0.02 0.76 -0.04 1.23 -0.05 1.28 c -0.04 0.09 -0.12 0.14 -0.18 0.11"/><path d="m 13.77 17.83 c -0.18 -0.13 -0.18 -0.26 0.01 -1.55 c 0.18 -1.29 0.29 -1.81 0.38 -1.9 c 0.06 -0.06 0.14 -0.02 0.21 0.11 c 0.11 0.2 0.84 2.48 0.84 2.6 c 0 0.04 -0.15 0.25 -0.26 0.36 c -0.08 0.08 -0.12 0.05 -0.25 -0.15 c -0.07 -0.11 -0.14 -0.2 -0.16 -0.2 c -0.34 0.02 -0.34 0.29 -0.45 0.56 c -0.12 0.28 -0.16 0.3 -0.31 0.18 m 0.7 -1.2 l 0.11 -0.05 l -0.02 -0.25 c -0.04 -0.55 -0.2 -1.02 -0.32 -0.9 c -0.06 0.06 -0.13 0.61 -0.13 0.96 v 0.3 c 0.13 0 0.26 -0.02 0.36 -0.05"/><path d="m 15.6 17.19 c -0.02 -0.06 -0.05 -0.3 -0.07 -0.53 c -0.04 -0.53 -0.09 -2.11 -0.05 -2.18 c 0.03 -0.08 0.09 -0.04 0.5 0.3 c 0.48 0.41 0.56 0.39 0.47 -0.1 c -0.1 -0.52 -0.1 -0.59 -0.02 -0.61 c 0.12 -0.03 0.27 0.04 0.33 0.14 c 0.03 0.05 0.07 0.2 0.09 0.32 c 0.05 0.27 0.22 1.74 0.18 1.79 c -0.04 0.04 -0.29 -0.11 -0.45 -0.32 c -0.36 -0.43 -0.46 -0.54 -0.54 -0.53 c -0.07 0.01 -0.07 0.03 -0.07 0.23 c 0.02 0.41 0.18 0.76 0.2 1.17 c -0.02 0.1 -0.39 0.42 -0.46 0.42 c -0.04 0 -0.08 -0.04 -0.1 -0.11"/><path d="m 17.7 15.94 c -0.03 -0.05 -0.06 -0.27 -0.09 -0.61 c -0.02 -0.29 -0.06 -0.59 -0.09 -0.68 c -0.06 -0.17 0.03 -0.2 -0.18 -0.16 c -0.17 0.03 -0.19 0.04 -0.21 0 c -0.03 -0.05 -0.17 -0.11 0.16 -0.36 c 0.2 -0.14 1.05 -0.63 1.21 -0.57 c 0.06 0.02 -0.15 0.3 -0.2 0.34 c -0.11 0.07 -0.18 0.38 -0.26 1.24 c -0.05 0.52 -0.09 0.7 -0.17 0.79 c -0.09 0.1 -0.11 0.1 -0.17 0"/><path d="m 5.38 16.36 c -0.15 -0.25 -0.18 -0.49 -0.3 -0.76 c -0.05 -0.08 -0.07 -0.11 -0.02 -0.24 c 0.06 -0.14 0.06 -0.16 0 -0.41 c -0.09 -0.36 -0.18 -0.55 -0.27 -0.55 c -0.13 0 -0.2 0.14 -0.2 0.43 c 0 0.23 0.01 0.29 0.1 0.44 l 0.55 0.04 l 0.01 0.43 c 0 0.08 -0.64 -0.03 -0.64 -0.01 c 0 0.07 -0.13 0.15 -0.23 0.15 c -0.05 0 -0.13 -0.03 -0.18 -0.07 c -0.09 -0.06 -0.09 -0.09 -0.09 -0.28 c 0.01 -0.22 0.18 -0.97 0.31 -1.33 c 0.08 -0.23 0.14 -0.28 0.34 -0.28 c 0.2 0 0.3 0.1 0.39 0.38 c 0.18 0.57 0.48 2.04 0.43 2.11 c -0.04 0.06 -0.12 0.04 -0.2 -0.06"/><path d="m 3.52 11.72 c 0 -0.02 -0.01 -0.14 0 -0.28 c -0.01 -0.39 -0.07 -0.33 -0.36 -0.28 c -0.1 -0.78 -0.34 -0.61 0.37 -0.82 c 0 -0.18 0 -0.33 0 -0.52 c -0.15 0 -0.27 0.03 -0.43 0.06 c -0.04 -0.24 -0.08 -0.48 -0.12 -0.72 c 0.19 -0.04 0.38 -0.07 0.56 -0.1 c 0 -0.21 0 -0.42 0 -0.63 c 0.22 -0.04 0.43 -0.07 0.65 -0.1 c 0 0.21 -0.01 0.38 -0.01 0.61 c 0.22 0.01 0.35 -0.04 0.61 -0.09 c 0 -0.21 0 -0.41 0 -0.62 c 0.22 -0.04 0.43 -0.07 0.65 -0.11 c -0.01 0.21 -0.01 0.41 0 0.62 c 0.12 0 0.21 -0.02 0.35 -0.04 c 0.04 0.24 0.08 0.48 0.12 0.72 c -0.16 0.03 -0.32 0.06 -0.48 0.09 c 0 0.18 0 0.38 -0.01 0.54 c 0.14 -0.02 0.29 -0.05 0.43 -0.07 c 0.04 0.24 0.08 0.48 0.12 0.72 c -0.18 0.04 -0.36 0.07 -0.54 0.1 v 0.06 c -0.01 0.21 -0.01 0.37 -0.01 0.59 c -0.21 0.04 -0.43 0.07 -0.64 0.11 c 0 -0.21 0.01 -0.43 0 -0.64 c -0.02 -0.02 -0.58 0.07 -0.59 0.1 c -0.01 0.02 -0.02 0.6 -0.02 0.64 c -0.21 0.04 -0.45 0.1 -0.64 0.07 m 1.27 -1.78 c 0 -0.12 0 -0.24 0 -0.36 c -0.21 0.04 -0.42 0.07 -0.63 0.11 c -0.01 0.19 0 0.39 -0.01 0.55 c 0.21 0.04 0.34 -0.02 0.64 -0.08 c 0 -0.07 0 -0.15 0 -0.22"/></g></svg>