<svg xmlns="http://www.w3.org/2000/svg" viewBox="0 0 22 22"><path d="m 1.97 16.77 c -7.16 -11.19 7.97 -22.52 16.64 -13.41 c 8.17 8.59 -0.68 21.93 -11.23 17.76 c -2.2 -0.87 -4.09 -2.3 -5.41 -4.35" style="fill:#ececec"/><path d="m 3.94 14 c 0 -1.85 0 -3.69 0 -5.54 c 1.46 -1.4 2.91 -2.8 4.37 -4.2 c 1.91 0 3.82 0 5.72 0 c 1.41 1.4 2.83 2.8 4.24 4.2 c 0 1.88 0 3.75 0 5.63 c -1.63 1.41 -2.81 2.81 -4.32 3.99 c -1.9 0 -3.8 0 -5.7 0 c -1.44 -1.36 -2.88 -2.73 -4.31 -4.09" style="fill:#636363"/><path d="m 9.66 14.58 c -0.3 -0.03 -0.48 -0.13 -0.77 -0.42 c -0.49 -0.49 -0.68 -1.08 -0.52 -1.64 c 0.13 -0.46 0.42 -0.83 0.96 -1.21 c 0.19 -0.14 0.51 -0.4 0.71 -0.57 c 0.41 -0.38 0.53 -0.44 0.85 -0.42 c 0.27 0.02 0.45 0.11 0.66 0.32 c 0.2 0.2 0.24 0.33 0.22 0.7 c -0.02 0.44 -0.18 0.7 -0.51 0.85 c -0.13 0.06 -0.21 0.07 -0.46 0.07 c -0.34 0 -0.36 -0.01 -0.8 -0.35 c -0.15 -0.12 -0.27 -0.19 -0.3 -0.18 c -0.17 0.07 -0.56 0.33 -0.64 0.43 c -0.43 0.68 -0.21 1.64 0.6 1.93 c 0.16 0.05 0.34 0.06 1.89 0.07 c 1.99 0.02 2.82 -0.02 3.05 -0.12 c 0.18 -0.07 0.39 -0.27 0.5 -0.46 c 0.19 -0.31 0.23 -0.77 0.11 -1.1 c -0.07 -0.2 -0.28 -0.44 -0.55 -0.64 c -0.29 -0.19 -0.29 -0.53 -0.33 -0.8 c -0.04 -0.27 -0.08 -0.54 -0.09 -0.59 c -0.14 -0.48 -0.54 -0.84 -1.09 -0.96 c -0.8 -0.18 -0.99 0.06 -1.38 -0.52 c -0.52 -0.78 -0.92 -1.01 -1.77 -1.04 c -0.67 -0.02 -0.91 0.05 -1.3 0.35 c -0.38 0.3 -0.68 0.71 -0.83 1.15 c -0.08 0.25 -0.2 0.38 -0.64 0.73 c -0.46 0.37 -0.66 0.73 -0.27 1.02 c 0.5 0.37 0.66 0.58 0.66 0.93 c 0 0.25 -0.07 0.45 -0.22 0.62 c -0.16 0.17 -0.3 0.26 -0.51 0.32 c -0.47 0.13 -0.83 0.04 -1.11 -0.43 c -0.16 -0.27 -0.18 -0.63 0.04 -1.04 c 0.06 -0.13 0.35 -0.42 0.34 -0.65 c -0.03 -0.7 0.06 -0.82 0.46 -1.13 c 0.52 -0.4 0.69 -0.71 0.93 -1.11 c 0.43 -0.71 0.7 -0.99 1.28 -1.28 c 0.33 -0.16 0.7 -0.16 1.17 -0.16 c 0.49 0 0.73 0.05 1.11 0.25 c 0.37 0.19 0.63 0.41 1 0.83 c 0.31 0.35 0.25 0.32 0.95 0.43 c 0.64 0.1 0.88 0.21 1.25 0.57 c 0.41 0.39 0.62 0.75 0.64 1.42 c 0.02 0.56 0.07 0.54 0.47 0.89 c 0.14 0.13 0.24 0.38 0.3 0.5 c 0.38 0.75 0.23 1.46 -0.45 2.09 c -0.3 0.28 -0.45 0.34 -0.86 0.38 c -1.58 -0.04 -3.18 0.1 -4.76 0 m -2.8 -2.03 c 0.06 -0.04 0.14 -0.12 0.18 -0.18 c 0.14 -0.2 0.05 -0.46 -0.21 -0.66 c -0.14 -0.11 -0.31 -0.11 -0.47 0.02 c -0.32 0.25 -0.29 0.43 -0.13 0.62 c 0.23 0.27 0.42 0.34 0.62 0.21 m 4.37 -1.44 c -0.09 -0.18 -0.3 -0.25 -0.44 -0.22 c -0.22 0.04 -0.44 0.25 -0.44 0.42 c 0 0.11 0.13 0.3 0.24 0.38 c 0.35 0.34 0.96 -0.16 0.64 -0.58" style="fill:#fff"/></svg>