<svg xmlns="http://www.w3.org/2000/svg" viewBox="0 0 22 22"><path d="m 2.79 16.32 c -7.78 -8.87 3.74 -18.25 10.48 -15.94 c 6.75 2.31 11.28 8.82 6.87 14.53 c -4.41 5.71 -8.74 11.21 -16.52 2.35" style="fill:#ffd600"/><g style="fill:#0ab1dd"><path d="m 6.28 7.62 c 0 -0.11 0.32 -0.64 0.63 -1.04 c 0.68 -0.88 1.69 -1.58 2.77 -1.93 c 1.03 -0.21 1.94 -0.34 2.85 -0.09 c 1.18 0.32 2.07 0.85 2.86 1.68 c 0.3 0.33 0.69 0.86 0.69 0.96 c -0.34 0.21 -0.55 0.19 -1 0.27 l -0.46 -0.45 c -0.75 -0.74 -1.2 -1.03 -1.99 -1.31 c -0.73 -0.25 -2.17 -0.18 -2.7 0 c -1.05 0.4 -1.7 1.04 -2.46 1.77 l -0.57 0.11 c -0.31 0.06 -0.59 0.11 -0.6 0.11 c -0.02 0 -0.03 -0.04 -0.03 -0.09"/><path d="m 8.9 16.41 c -0.77 -0.91 -1.96 -2.59 -2.26 -3.18 l -0.07 -0.15 c 0.29 -0.11 0.55 -0.15 0.86 -0.21 l 0.46 0.49 c 0.68 0.72 1.28 1.12 2.05 1.38 c 0.96 0.3 1.96 0.25 2.8 -0.03 c 0.66 -0.23 1.15 -0.54 1.73 -1.13 c 0.56 -0.57 0.84 -1.02 1.13 -1.78 c 0.07 -0.19 0.15 -0.36 0.18 -0.4 c 0.07 -0.07 0.72 -0.2 0.95 -0.18 c 0.07 0.01 0.05 0.12 -0.07 0.47 c -0.49 1.42 -1.79 3.38 -3.67 5.54 c -0.71 0.81 -1.61 1.74 -1.7 1.74 c -0.87 -0.74 -1.64 -1.66 -2.39 -2.56"/></g><path d="m 3.08 11.75 v -1.84 l 0.36 -0.06 c 0.2 -0.03 0.57 -0.11 0.84 -0.17 l 0.48 -0.11 l 0.08 -0.65 c 0.07 -0.55 0.11 -0.66 0.29 -0.7 c 1.26 -0.32 5.92 -1.08 6.12 -1 c 0.1 0.04 0.16 0.17 0.16 0.33 c 0 0.54 0.1 0.71 0.4 0.71 c 0.33 0 2.87 -0.43 5.42 -0.92 c 0.97 -0.19 1.8 -0.32 1.84 -0.29 c 0.12 0.07 0.1 3.61 -0.02 3.69 c -0.12 0.08 -15.45 2.87 -15.75 2.87 h -0.21" style="fill:#e33744"/><g style="fill:#fff"><path d="m 3.8 12.4 c -0.16 -0.45 0.43 -0.77 0.62 -0.89 c 0.36 -0.21 0.23 -0.34 -0.23 -0.25 c -0.25 0.05 -0.29 0.02 -0.29 -0.15 c 0 -0.07 0.03 -0.14 0.07 -0.17 c 0.13 -0.09 0.45 -0.16 0.75 -0.16 c 0.47 0 0.52 0.06 0.57 0.76 c 0.02 0.36 0.03 0.37 0.15 0.49 c 0.1 0.09 0.13 0.14 0.11 0.21 c -0.04 0.13 -0.27 0.22 -0.63 0.23 c -0.16 0.01 -0.35 0.04 -0.42 0.07 c -0.27 0.1 -0.58 0.11 -0.7 -0.13 m 0.8 -0.3 c 0.14 -0.16 0.05 -0.29 -0.16 -0.23 c -0.32 0.18 -0.03 0.42 0.16 0.23"/><path d="m 5.95 11.73 c -0.01 -0.32 -0.04 -0.6 -0.06 -0.65 c -0.08 -0.12 -0.27 -0.18 -0.24 -0.3 c 0.02 -0.05 0.05 -0.12 0.07 -0.15 c 0.03 -0.03 0.24 -0.08 0.48 -0.12 c 0.24 -0.04 0.52 -0.09 0.62 -0.13 c 0.32 -0.11 0.45 -0.08 0.58 0.14 c 0.06 0.09 0.07 0.2 0.09 0.64 c 0.02 0.58 0 0.76 -0.09 0.85 c -0.06 0.06 -0.36 0.08 -0.39 0.02 c -0.01 -0.02 -0.03 -0.21 -0.04 -0.42 c -0.04 -0.63 -0.05 -0.7 -0.14 -0.74 c -0.07 -0.03 -0.11 -0.03 -0.18 0.02 c -0.12 0.08 -0.16 0.25 -0.2 0.76 c -0.02 0.23 -0.04 0.45 -0.05 0.49 c -0.02 0.07 -0.2 0.14 -0.33 0.14 c -0.08 0 -0.08 -0.01 -0.1 -0.57"/><path d="m 8.13 11.81 c -0.18 -0.26 -0.16 -0.52 -0.17 -0.87 c 0 -0.22 -0.05 -0.34 -0.15 -0.34 c -0.02 0 -0.05 -0.04 -0.07 -0.09 c -0.04 -0.11 -0.12 -0.24 0.11 -0.35 c 0.05 -0.02 0.09 -0.14 0.11 -0.25 c 0.04 -0.2 0.14 -0.33 0.31 -0.38 c 0.12 -0.03 0.19 0.04 0.21 0.22 c 0.04 0.21 0.08 0.29 0.18 0.29 c 0.19 0 0.24 0.24 0.07 0.36 c -0.24 0.17 -0.24 0.18 -0.22 0.54 c 0.01 0.23 0.01 0.39 0.2 0.49 c 0.11 0.06 0.14 0.1 0.14 0.19 c -0.04 0.2 -0.25 0.23 -0.44 0.26 c -0.13 0.01 -0.22 -0.01 -0.29 -0.07"/><path d="m 9.49 11.61 c -0.03 -0.01 -0.1 -0.07 -0.16 -0.12 c -0.43 -0.4 -0.26 -1.3 0.29 -1.58 c 0.27 -0.14 0.5 -0.16 0.7 -0.05 c 0.21 0.11 0.29 0.27 0.29 0.59 c 0.03 0.29 -0.06 0.26 -0.32 0.31 c -0.38 0.08 -0.63 0.18 -0.63 0.25 c 0 0.03 0.04 0.08 0.07 0.12 c 0.06 0.06 0.11 0.06 0.3 0.04 c 0.41 -0.05 0.52 -0.05 0.53 0.04 c 0.02 0.13 -0.12 0.26 -0.35 0.33 c -0.24 0.07 -0.64 0.11 -0.73 0.07 m 0.55 -1.2 c 0.1 -0.07 0.09 -0.07 0 -0.15 c -0.09 -0.08 -0.2 -0.07 -0.31 0.04 c -0.16 0.16 -0.06 0.35 0.31 0.11"/><path d="m 11.13 11 c 0 -0.17 -0.02 -0.43 -0.03 -0.58 c -0.02 -0.25 -0.04 -0.28 -0.14 -0.37 c -0.13 -0.11 -0.15 -0.22 -0.06 -0.31 c 0.05 -0.05 0.24 -0.11 0.58 -0.16 c 0.25 -0.05 0.5 -0.16 0.73 -0.16 c 0.2 0 0.25 0.01 0.32 0.09 c 0.11 0.13 0.13 0.23 0.13 0.86 c 0 0.64 -0.04 0.75 -0.26 0.75 c -0.19 0 -0.22 -0.06 -0.26 -0.58 c -0.05 -0.59 -0.07 -0.66 -0.2 -0.64 c -0.16 0.02 -0.26 0.26 -0.32 0.79 c -0.03 0.24 -0.05 0.45 -0.05 0.47 c 0 0.07 -0.13 0.14 -0.27 0.14 c -0.23 0.03 -0.16 -0.11 -0.16 -0.3"/><path d="m 13.2 10.34 c 0 -0.64 0.01 -0.6 -0.22 -0.78 c -0.07 -0.05 -0.08 -0.08 -0.05 -0.14 c 0.07 -0.12 0.26 -0.2 0.61 -0.25 c 0.19 -0.03 0.41 -0.08 0.5 -0.11 c 0.25 -0.09 0.48 -0.08 0.59 0.04 c 0.09 0.09 0.09 0.11 0.1 0.84 l 0.01 0.74 l -0.1 0.04 c -0.16 0.07 -0.3 0.05 -0.35 -0.04 c -0.09 -0.28 -0.07 -1.28 -0.3 -1.13 c -0.18 0.12 -0.21 0.22 -0.24 0.71 c -0.02 0.26 -0.04 0.5 -0.05 0.54 c -0.16 0.13 -0.31 0.14 -0.49 0.14 c 0 -0.2 0 -0.39 0 -0.59"/><path d="m 15.3 10.41 c -0.19 -0.17 -0.24 -0.29 -0.24 -0.58 c 0 -0.35 0.08 -0.59 0.25 -0.8 c 0.17 -0.2 0.39 -0.31 0.65 -0.35 c 0.23 -0.02 0.38 0.08 0.52 0.27 c 0.1 0.15 0.14 0.48 0.06 0.57 c -0.03 0.04 -0.19 0.1 -0.39 0.15 c -0.45 0.12 -0.47 0.13 -0.47 0.23 c 0 0.14 0.11 0.17 0.42 0.13 c 0.41 -0.06 0.42 -0.05 0.42 0.07 c 0 0.23 -0.26 0.36 -0.8 0.4 c -0.27 0.02 -0.28 0.02 -0.41 -0.1 m 0.69 -1.09 c 0.15 -0.11 -0.09 -0.27 -0.27 -0.17 c -0.07 0.04 -0.18 0.23 -0.13 0.28 c 0.04 0.05 0.34 -0.06 0.41 -0.11"/><path d="m 17.86 9.98 c -0.03 -0.57 -0.02 -1.02 -0.02 -1.61 l -0.17 0.03 c -0.2 0.03 -0.23 0 -0.23 -0.21 c 0 -0.12 0.02 -0.15 0.14 -0.23 c 0.15 -0.1 0.6 -0.27 0.71 -0.27 c 0.06 0 0.06 0.07 0.06 1.14 c 0 0.63 -0.02 1.16 -0.03 1.19 c -0.03 0.05 -0.23 0.12 -0.36 0.12 c -0.08 -0.05 -0.09 -0.07 -0.1 -0.14"/></g></svg>