<svg xmlns="http://www.w3.org/2000/svg" viewBox="0 0 22 22"><path d="m 4.18 3.97 c -18.2 23.99 31.72 23.64 13.75 0.1 c -3.25 -4.13 -10 -6.16 -13.75 -0.1" style="fill:#c1676a"/><path d="m 10.1 14.1 h -1.28 c -0.1 0 -0.2 0 -0.3 0 c -0.04 0 -0.09 0 -0.11 -0.04 c -0.03 -0.07 0.09 -0.21 0.13 -0.27 c 0.14 -0.27 0.28 -0.52 0.42 -0.78 c 0.51 -0.95 1.05 -1.87 1.52 -2.82 c 0.13 -0.25 0.26 -0.48 0.39 -0.71 c 0.03 -0.06 0.09 -0.23 0.15 -0.24 c 0.04 -0.01 0.07 0.07 0.09 0.09 c 0.06 0.11 0.13 0.23 0.18 0.34 c 0.25 0.47 0.51 0.93 0.76 1.4 c 0.4 0.77 0.81 1.51 1.22 2.27 c 0.1 0.18 0.2 0.36 0.3 0.54 c 0.03 0.05 0.11 0.14 0.07 0.2 c -0.05 0.08 -0.34 0.03 -0.42 0.03 h -1.28 c 0.74 0.54 1.48 1.07 2.21 1.59 c 0.19 0.14 0.38 0.27 0.57 0.41 c 0.06 0.05 0.16 0.15 0.24 0.15 c 0.07 0 0.16 -0.11 0.21 -0.16 c 0.18 -0.15 0.35 -0.29 0.53 -0.45 c 0.21 -0.18 0.43 -0.36 0.64 -0.55 c 0.05 -0.05 0.2 -0.13 0.2 -0.21 c 0 -0.07 -0.08 -0.18 -0.11 -0.23 c -0.11 -0.18 -0.21 -0.37 -0.3 -0.56 c -0.37 -0.65 -0.73 -1.31 -1.09 -1.97 c -0.89 -1.57 -1.75 -3.14 -2.62 -4.72 c -0.28 -0.5 -0.55 -1 -0.83 -1.5 c -0.18 -0.32 -0.38 -0.63 -0.54 -0.97 l -0.14 0.19 l -0.22 0.41 l -0.85 1.54 l -3.09 5.55 l -0.93 1.68 l -0.24 0.44 l -0.07 0.16 l 0.21 0.2 l 1.16 0.98 l 0.23 0.17 l 0.2 -0.12 l 0.53 -0.38 l 1.5 -1.09 l 0.49 -0.35" style="fill:#fff"/></svg>