<svg xmlns="http://www.w3.org/2000/svg" viewBox="0 0 22 22"><path d="m 11.27 21.95 c -2.25 -0.18 -4.89 -1.27 -6.73 -2.78 c -2.24 -1.84 -3.88 -4.65 -4.31 -7.43 c -0.52 -3.67 1.59 -7.61 3.97 -9.48 c 1.2 -0.91 2.78 -1.64 4.27 -1.95 c 3.87 -0.82 7.91 0.74 10.67 4.13 c 1.66 2.04 2.52 4.09 2.73 6.52 c 0.25 2.91 -0.89 6 -2.97 8.14 c -2.37 1.98 -4.81 3.06 -7.62 2.86" style="fill:#d9e4e5"/><path d="m 11.38 20.58 c -1.97 -0.15 -4.27 -1.1 -5.88 -2.41 c -1.95 -1.6 -3.39 -4.05 -3.77 -6.47 c -0.46 -3.2 1.39 -6.63 3.47 -8.25 c 1.04 -0.8 2.43 -1.43 3.73 -1.7 c 3.38 -0.72 6.91 0.64 9.32 3.6 c 1.45 1.77 2.2 3.55 2.38 5.67 c 0.22 2.54 -0.78 5.25 -2.59 7.09 c -2.07 1.72 -4.2 2.66 -6.65 2.48" style="fill:#8ccef3"/><path d="m 11.13 20.52 c -1.64 -0.2 -3.32 -0.83 -4.8 -1.8 c -1.8 -1.17 -3.46 -3.34 -4.15 -5.45 l -0.16 -0.48 l 9.24 -0.02 c 5.09 -0.01 9.26 0 9.27 0.02 c 0.05 0.05 -0.18 1.07 -0.38 1.7 c -0.55 1.68 -1.51 3.09 -2.72 4 c -1.34 1.03 -2.68 1.66 -4.05 1.92 c -0.63 0.12 -1.68 0.16 -2.26 0.09" style="fill:#006a9a"/><path d="m 9.89 13.45 c -0.13 -0.11 -0.22 -0.31 -0.2 -0.45 c 0.05 -0.24 0.19 -0.26 1.86 -0.3 c 2 -0.04 2.04 -0.05 2.63 -1.08 c 0.32 -0.55 0.33 -0.64 0.25 -2.07 c -0.08 -1.55 -0.21 -2.3 -0.42 -2.3 c -0.14 0 -0.26 0.78 -0.48 3.14 l -0.16 1.68 l -1.58 0.04 c -0.89 0.02 -1.58 -0.02 -1.58 -0.09 c 0 -0.2 3.75 -5.3 3.93 -5.34 c 0.26 -0.06 1.76 1.68 2.1 2.44 c 0.17 0.38 0.31 0.89 0.31 1.16 c 0 0.71 -0.37 1.71 -0.73 1.95 c -0.42 0.29 -0.39 0.45 0.08 0.45 c 0.45 0 0.51 0.25 0.13 0.6 c -0.22 0.21 -0.61 0.24 -3.07 0.3 c -2.31 0.05 -2.87 0.03 -3.06 -0.13" style="fill:#061720"/><path d="m 8.1 7.27 c 0 0.92 -0.74 1.67 -1.66 1.67 c -0.91 0 -1.66 -0.75 -1.66 -1.67 c 0 -0.92 0.74 -1.67 1.66 -1.67 c 0.92 0 1.66 0.75 1.66 1.67" style="fill:#ff1200"/></svg>