<svg xmlns="http://www.w3.org/2000/svg" viewBox="0 0 22 22"><path d="m 19.2 18.68 c 12.58 -19.37 -21.79 -26.86 -19 -6.93 c 1.12 8.13 14.23 14.35 19 6.93" style="fill:#403c6c"/><path d="m 12.24 18.61 c -0.39 -0.15 -0.44 -0.28 -0.44 -1.14 c 0 -0.71 -0.02 -0.85 -0.15 -0.91 c -0.09 -0.04 -0.53 -0.1 -0.99 -0.13 c -1.75 -0.11 -3.08 -0.73 -4.27 -1.96 c -0.63 -0.66 -1.06 -1.38 -1.38 -2.29 c -0.3 -1.14 -0.35 -2.27 0 -3.29 c 0.62 -1.82 2.15 -3.34 3.93 -3.92 c 1.21 -0.39 2.34 -0.39 3.68 0 c 1.65 0.48 3.26 2 3.94 3.77 c 0.3 1.23 0.41 2.59 -0.03 3.68 c -0.48 1.15 -1.3 2.2 -2.3 2.93 c -0.27 0.2 -0.52 0.43 -0.56 0.51 c -0.04 0.08 -0.08 0.62 -0.1 1.21 c -0.04 1.27 -0.07 1.42 -0.27 1.48 c -0.29 0.08 -0.94 0.13 -1.07 0.08 m -0.58 -4.53 c 0.35 -0.59 -0.06 -1.43 0.23 -2.05 c 0.13 -0.23 0.92 -0.54 1.3 -0.5 c 0.44 -0.02 0.34 0.22 0.36 0.59 c 0.03 0.31 0.07 0.6 0.11 0.63 c 0.12 0.12 0.5 -0.32 0.7 -0.81 c 0.25 -0.63 0.28 -2.05 0.05 -2.69 c -0.39 -1.08 -1.43 -2 -2.59 -2.3 c -2.66 -0.68 -5.09 1.41 -4.74 4.07 c 0.19 1.45 1.11 2.53 2.59 3.04 c 0.61 0.21 1.75 0.21 2 0.02" style="fill:#fff;fill-opacity:0.97"/></svg>