<svg xmlns="http://www.w3.org/2000/svg" viewBox="0 0 22 22"><path d="m 4.73 20.32 c 8.86 6.2 21.43 -6.09 15.88 -15.24 c -4.09 -7.82 -15.94 -5.56 -19.2 1.64 c -2.55 4.44 -1.56 11 3.29 13.61" style="fill:#ffd600"/><path d="m 9.96 17.38 c -2.48 -0.42 -4.46 -2.21 -5.06 -4.57 c -0.66 -2.61 0.35 -5.26 2.58 -6.77 c 0.35 -0.24 1.27 -0.66 1.68 -0.78 c 3.73 -1.04 7.4 1.38 7.91 5.22 c 0.11 0.83 0 1.9 -0.28 2.74 c -0.45 1.29 -1.4 2.47 -2.45 3.2 c -1.34 0.8 -2.81 1.2 -4.38 0.96 m 2.44 -1.92 c 2.31 -0.57 3.87 -2.8 3.61 -5.15 c -0.41 -3.56 -4.37 -5.43 -7.36 -3.47 c -1.84 1.2 -2.61 3.54 -1.86 5.62 c 0.58 1.61 2.06 2.83 3.76 3.09 c 0.45 0.07 1.39 0.02 1.86 -0.09 m -2.34 -1.93 c -0.05 -0.05 -0.04 -5.59 0.01 -5.62 c 0.03 -0.02 4.76 2.68 4.85 2.77 c 0.05 0.05 -0.22 0.22 -2.39 1.48 c -2.66 1.54 -2.44 1.41 -2.48 1.38" style="fill:#2735eb"/></svg>