<svg xmlns="http://www.w3.org/2000/svg" viewBox="0 0 22 22"><defs><linearGradient id="1" gradientUnits="userSpaceOnUse" x1="53.66" y1="137.6" x2="53.72" y2="147.5" gradientTransform="matrix(1.044 0 0 1.023 7.1 -1.02)"><stop style="stop-color:#dcd7d7"/><stop offset="1" style="stop-color:#b0b0c0"/></linearGradient><linearGradient id="2" gradientUnits="userSpaceOnUse" x1="255.4" y1="250.1" x2="256.4" y2="257.1" gradientTransform="matrix(0.996 0 0 0.895 -29.46 2.91)"><stop style="stop-color:#4f4f58"/><stop offset="1" style="stop-color:#5b5b63"/></linearGradient><linearGradient id="3" gradientUnits="userSpaceOnUse" x1="255.7" y1="247.6" x2="256.2" y2="253.4" gradientTransform="matrix(1 0 0 0.902 -32.1 -0.31)"><stop style="stop-color:#606068"/><stop offset="1" style="stop-color:#7f7f87;stop-opacity:0.99"/></linearGradient><radialGradient id="0" gradientUnits="userSpaceOnUse" cx="67.9" cy="134.7" r="20.51" gradientTransform="matrix(1.167 -0.007 0.006 0.812 -18.1 27)"><stop style="stop-color:#fbf8f8"/><stop offset="1" style="stop-color:#e7e7ff"/></radialGradient></defs><path d="m 20.1 16.19 c 5.92 -7.91 -3.55 -17.55 -11.18 -15.88 c -7.51 0.98 -12 12.41 -6.24 18.21 c 4.25 4.18 11.5 5.57 17.42 -2.33" style="fill:#b9bfc9"/><g style="stroke-linecap:round;stroke-linejoin:round"><path d="m 44.67 124.6 h 34.4 c 0.45 0 0.81 0.33 0.81 0.73 v 21 c 0 0.41 -0.36 0.74 -0.81 0.74 h -34.4 c -0.45 0 -0.81 -0.34 -0.81 -0.74 v -21 c 0 -0.41 0.36 -0.73 0.81 -0.73" transform="matrix(0.313 0 0 0.347 -8.44 -36.1)" style="fill:url(#0);stroke:#7c8497;stroke-width:1.2"/><path d="m 56.3 140 h 14.1 c 0.45 0 0.81 0.28 0.81 0.63 v 8 c -0.01 0.35 -0.37 0.64 -0.82 0.64 h -14.1 c -0.45 0 -0.81 -0.29 -0.82 -0.64 v -8 c -0.01 -0.35 0.37 -0.63 0.82 -0.63" transform="matrix(0.313 0 -0.016 0.346 -8.44 -36.1)" style="fill:url(#1);stroke:#737884;stroke-width:1.1"/><path d="m 218.7 227.5 h 14.1 c 0.21 0 0.39 0.17 0.39 0.38 l 0.01 4.13 c -0.01 0.2 -0.19 0.36 -0.41 0.36 h -14.1 c -0.22 0 -0.39 -0.15 -0.38 -0.36 l -0.01 -4.13 c 0 -0.2 0.17 -0.38 0.39 -0.38" transform="matrix(0.313 0 -0.235 0.229 -8.44 -36.1)" style="fill:none;stroke:url(#2);stroke-width:1.85"/><path d="m 213.8 222.3 h 12 c 0.92 0 1.69 0.32 1.68 0.69 v 4.72 c 0.01 0.39 -0.75 0.69 -1.68 0.69 h -12 c -0.92 0 -1.67 -0.3 -1.68 -0.69 v -4.72 c 0 -0.37 0.75 -0.69 1.68 -0.69" transform="matrix(0.313 0 -0.231 0.233 -8.44 -36.1)" style="fill:url(#3);stroke:#606068;stroke-width:1.22"/></g></svg>