<svg xmlns="http://www.w3.org/2000/svg" viewBox="0 0 22 22"><path d="m 21.82 11.13 c 1.65 14.51 -21.99 14.31 -21.71 -0.26 c -0.78 -13.55 23 -14.77 21.71 0.26" style="fill:#c6d7f3"/><g style="fill:#ec4936"><path d="m 7.51 13.84 c -0.89 -0.04 -1 -0.14 -1.01 -0.34 c 0 -0.03 -0.04 -0.18 -0.09 -0.34 c -0.1 -0.35 -0.43 -0.72 -0.79 -0.91 c -0.33 -0.17 -0.47 -0.31 -0.47 -0.48 c 0 -0.18 0.17 -0.28 0.54 -0.33 c 0.53 -0.07 0.69 -0.21 0.64 -0.6 c -0.02 -0.2 -0.2 -0.29 -0.55 -0.29 c -0.49 0 -0.75 0.23 -1.01 0.93 c -0.43 1.1 -0.52 1.3 -0.65 1.45 c -0.14 0.16 -0.16 0.16 -0.69 0.16 c -0.59 0 -0.71 -0.02 -0.71 -0.14 c 0 -0.24 0.64 -2 1.04 -2.84 l 0.22 -0.47 l 0.3 -0.04 c 0.16 -0.02 0.88 -0.04 1.57 -0.04 c 1.42 0 1.78 0.05 1.93 0.28 c 0.14 0.21 0.07 0.8 -0.17 1.45 c -0.35 0.94 -0.34 0.86 -0.09 1.36 c 0.12 0.24 0.26 0.47 0.32 0.52 c 0.08 0.07 0.87 0.09 5.14 0.13 l 5.1 0.05 c 0.01 0.17 0 0.4 -0.12 0.45 c -0.49 0.1 -8.83 0.11 -10.39 0.05"/><path d="m 8.16 12.79 c -0.15 -0.15 0.06 -0.67 0.56 -1.4 c 0.18 -0.27 0.5 -0.75 0.71 -1.07 c 0.41 -0.72 0.67 -0.64 1.36 -0.62 c 0.75 0.03 1.02 0.1 1.27 0.33 c 0.13 0.12 1.22 2.28 1.28 2.54 l 0.04 0.14 l -0.42 0.03 c -0.57 0.04 -0.55 0.17 -1.03 -0.29 l -0.24 -0.23 l -0.88 -0.02 c -1 -0.02 -1.16 0.01 -1.54 0.31 c -0.14 0.11 -0.32 0.23 -0.38 0.27 c -0.13 0.07 -0.68 0.09 -0.74 0.03 m 2.89 -1.35 c 0.17 -0.04 0.17 -0.04 0.15 -0.27 c -0.03 -0.26 -0.16 -0.45 -0.32 -0.45 c -0.18 0 -0.38 0.13 -0.49 0.3 c -0.15 0.25 -0.1 0.39 0.16 0.41 c 0.17 0.03 0.35 0.03 0.5 0"/><path d="m 17.21 12.61 c -0.11 -0.04 -0.21 -0.19 -0.43 -0.59 c -0.34 -0.64 -0.46 -0.8 -0.59 -0.8 c -0.14 0 -0.35 0.25 -0.63 0.76 c -0.32 0.6 -0.39 0.65 -0.82 0.65 c -0.34 0 -0.34 0 -0.55 -0.25 c -0.13 -0.14 -0.29 -0.43 -0.39 -0.69 c -0.1 -0.25 -0.28 -0.66 -0.41 -0.92 c -0.53 -1.04 -0.37 -1.13 0.18 -1.13 c 0.3 0 0.49 0.23 0.7 0.49 c 0.46 0.58 0.67 0.7 0.85 0.5 c 0.04 -0.05 0.18 -0.27 0.3 -0.48 c 0.32 -0.55 0.46 -0.68 0.77 -0.68 c 0.32 0 0.48 0.12 0.7 0.54 c 0.19 0.36 0.45 0.66 0.56 0.66 c 0.15 0 0.4 -0.26 0.52 -0.54 c 0.16 -0.39 0.68 -0.95 0.42 -0.96 l -0.64 -0.04 l -6.78 -0.03 c -4.77 -0.02 -6.8 -0.04 -6.84 -0.09 c -0.09 -0.08 0.14 -0.39 0.29 -0.42 c 0.07 -0.02 3.38 -0.02 7.3 -0.02 c 8.1 0.02 7.1 0.13 7.4 0.64 c 0.32 0.5 0.3 0.57 -0.57 2.41 c -0.32 0.68 -0.43 0.84 -0.57 0.93 c -0.2 0.12 -0.52 0.14 -0.76 0.05"/></g><g style="fill:#0869cd"><path d="m 2.55 6.82 c 1.59 -1.91 4.21 -3.25 7.11 -3.64 c 0.8 -0.11 2.39 -0.11 3.2 0 c 2.32 0.31 4.3 1.23 5.75 2.65 c 0.45 0.45 0.94 1.01 1.07 1.25 c -6.19 0.12 -9.72 0.07 -17.4 0.07"/><path d="m 4 16.68 c -0.45 -0.38 -1.16 -1.11 -1.43 -1.49 l -0.1 -0.14 c 5.85 0 11.7 0 17.54 0 l -0.21 0.3 c -1.46 2.14 -3.99 3.54 -7 3.86 c -3.05 0.29 -6.8 -0.94 -8.8 -2.54"/></g></svg>