<svg xmlns="http://www.w3.org/2000/svg" viewBox="0 0 22 22"><path d="m 21.1 13 c -2.19 14.67 -24.73 9.66 -20.46 -4.54 c 2.86 -13.49 25.92 -9.84 20.46 4.54" style="fill:#dcdcdc"/><path d="m 5.63 15.79 c 0.33 -0.3 1.5 -1.47 2.6 -2.6 l 1.99 -2.05 l 0.62 0.87 c 0.89 1.23 1.27 1.63 1.58 1.63 c 0.26 0 0.41 -0.11 1.36 -1 c 0.63 -0.59 0.84 -0.67 1.13 -0.41 c 0.42 0.39 2.19 2.9 2.55 3.62 c 0.07 0.14 0.11 0.29 0.09 0.31 c -0.07 0.07 -4.53 0.16 -8.79 0.17 h -3.73" style="fill:#3489c1"/><path d="m 16.4 3.82 l 0.13 0.11 c 0.14 0.13 0.15 0.34 0.01 0.48 l -12.24 12.33 c -0.14 0.14 -0.36 0.15 -0.5 0.02 l -0.13 -0.11 c -0.14 -0.13 -0.15 -0.34 -0.01 -0.48 l 12.24 -12.33 c 0.14 -0.14 0.36 -0.14 0.5 -0.02" style="fill:#3c3c3c"/><g style="fill:#7f7f7f"><path d="m 11.57 7.46 c -0.32 -1.14 0.41 -2.32 1.56 -2.53 c 0.29 -0.05 1.13 0.13 1.13 0.25 c 0 0.03 -0.59 0.64 -1.3 1.35 l -1.3 1.29"/><path d="m 3.89 15.49 c 0.08 -0.23 0.23 -1.32 0.23 -1.49 c 0 -0.17 0.25 -0.55 0.54 -0.59 c 0.43 -0.06 0.8 0.17 0.9 -0.8 c 0.14 -1.36 0.33 -1.72 0.91 -1.72 c 0.33 0 0.44 -0.16 0.44 -0.63 c 0.01 -0.98 0.25 -1.66 0.59 -1.66 c 0.59 -0.14 0.67 -0.85 1.48 0.78 l 0.38 0.76 l -2.61 2.61 c -1.43 1.44 -2.93 2.98 -2.86 2.75"/></g><path d="m 13.38 8.94 c -0.25 -0.04 -0.72 -0.23 -0.71 -0.29 c 0 -0.01 0.57 -0.61 1.27 -1.33 l 1.27 -1.31 l 0.05 0.09 c 0.08 0.14 0.19 0.5 0.21 0.71 c 0.06 0.64 -0.15 1.21 -0.61 1.65 c -0.21 0.2 -0.53 0.38 -0.79 0.44 c -0.19 0.05 -0.49 0.06 -0.68 0.04" style="fill:#3489c1"/></svg>