<svg xmlns="http://www.w3.org/2000/svg" viewBox="0 0 22 22"><path d="m 10.65 0.27 c 14.59 -1.65 15.22 21.99 0.52 21.71 c -13.65 0.78 -15.73 -23 -0.52 -21.71" style="fill:#00707d"/><path d="m 7.57 16.86 c -0.7 -0.28 -0.66 -0.02 -0.66 -5.63 c 0 -4.73 0.01 -5 0.17 -5.29 c 0.3 -0.54 0.32 -0.54 3.73 -0.54 c 3.57 0.03 4.55 0.09 2.76 2.86 c -0.41 0.77 -2.09 2.14 -2.14 2.98 c 0 0.24 0.22 0.64 0.61 1.13 c 0.12 0.15 0.2 0.31 0.16 0.36 c 0.66 0.89 1.6 1.89 2.25 2.88 c 0.2 0.31 0.15 0.83 -0.1 1.05 c -0.36 0.34 -0.58 0.36 -3.58 0.36 c -2.67 0 -2.85 -0.01 -3.2 -0.15" style="fill:#fbc60b"/><path d="m 6.97 16.38 c -0.13 -0.28 -0.08 -10.18 0.01 -10.37 c 0.32 -0.45 0.49 -0.43 0.84 -0.61 h 2.83 c 3.07 0 3.14 0.01 3.52 0.42 c 0.13 0.13 0.18 0.3 0.18 0.54 c 0 0.3 -0.09 0.47 -0.81 1.43 c -1.07 1.43 -1.9 2.58 -2.11 2.92 c -0.29 0.48 -0.19 0.82 0.45 1.68 c 0.13 0.16 0.05 0.23 -2.25 2.18 c -1.31 1.11 -2.43 2 -2.49 2 c -0.06 0 -0.15 -0.09 -0.2 -0.19" style="fill:#1e53f4"/><path d="m 9.73 7.69 l -2.41 -2.04 l 0.3 -0.15 c 0.29 -0.15 0.42 -0.16 3.14 -0.16 c 3.08 0 3.15 0.01 3.53 0.42 c 0.13 0.14 0.18 0.3 0.18 0.54 c 0 0.31 -0.11 0.48 -1.11 1.84 c -0.61 0.82 -1.14 1.51 -1.17 1.54 c -0.03 0.03 -1.14 -0.86 -2.47 -1.99" style="fill:#27285a"/><path d="m 13.1 14.23 c -1.85 -2.65 -1.88 -2.7 -1.88 -3 c 0 -0.35 0.29 -0.81 1.84 -2.97 c 0.69 -0.96 1.31 -1.84 1.38 -1.94 c 0.11 -0.17 0.11 0.24 0.12 4.88 c 0 2.79 -0.01 5.06 -0.02 5.06 c -0.01 0 -0.66 -0.91 -1.43 -2.02" style="fill:#fff"/></svg>