<svg xmlns="http://www.w3.org/2000/svg" xmlns:xlink="http://www.w3.org/1999/xlink" viewBox="0 0 22 22"><defs><g id="3" style="clip-path:url(#2)"><path d="m 8.98 16.78 c -0.86 0.02 -1.18 -0.11 -1.66 -0.65 c -0.28 -0.33 -0.37 -0.36 -0.97 -0.4 c -0.75 -0.05 -1.16 -0.29 -1.61 -0.95 c -0.59 -0.74 -1.2 -0.08 -1.39 -1.18 c -1.05 -1.37 0.25 -2.14 0.01 -2.64 c -0.6 -1.23 -0.27 -2.65 -0.05 -2.93 c 0.18 -0.22 0.48 -0.5 0.68 -0.61 c 0.2 -0.12 0.53 -0.42 0.72 -0.68 c 0.54 -0.71 0.94 -0.95 1.63 -0.95 c 0.55 0 0.6 -0.02 1.08 -0.5 c 0.48 -0.57 0.59 -0.5 1.3 -0.5 c 0.44 0 1.07 0.44 1.4 0.37 c 0.49 -0.11 0.7 -0.61 1.14 -0.5 c 1.13 0.3 2.08 -0.43 2.84 0.89 c 0.12 0.19 0.27 0.23 0.88 0.27 c 0.84 -0.04 0.93 0.24 1.49 0.82 c 0.42 0.43 0.95 0.94 1.18 1.13 c 0.35 0.29 0.46 0.48 0.64 1.08 c 0.31 1.05 -0.05 1.57 -0.15 2.22 c -0.05 0.32 0.64 0.83 0.25 1.57 c 0.02 1.18 -1.3 1.07 -1.6 1.82 c -0.04 0.1 -0.29 0.42 -0.58 0.7 c -0.5 0.5 -0.54 0.52 -1.22 0.56 c -0.65 0.04 -0.72 0.07 -1 0.4 c -0.45 0.54 -0.8 0.68 -1.66 0.66 c -0.41 -0.01 -0.93 0.02 -1.16 0.08 c -1.28 -1.01 -0.3 -0.16 -2.21 -0.08 m 3.57 -3.8 c 0.96 -0.51 2.8 -2.15 2.8 -2.37 c 0 -0.27 -1.88 -1.66 -2.71 -2.07 c -1.12 -0.55 -2.36 -0.67 -3.13 -0.3 c -1.78 0.87 -3.27 1.79 -3.45 2.31 c 0 0.21 1.83 1.84 3 2.46 c 1.36 0.72 2.27 0.62 3.49 -0.03" style="fill:#fff"/></g><clipPath id="2"><path d="M 0,0 H22 V22 H0 z"/></clipPath><filter id="0" filterUnits="objectBoundingBox" x="0" y="0" width="22" height="22"><feColorMatrix type="matrix" in="SourceGraphic" values="0 0 0 0 1 0 0 0 0 1 0 0 0 0 1 0 0 0 1 0"/></filter><mask id="1"><g style="filter:url(#0)"><path d="M 0,0 H22 V22 H0 z" style="fill-opacity:0.5"/></g></mask></defs><path d="m 18.1 17.8 c -8.9 11.56 -24.96 -4 -14.7 -14.24 c 8.83 -10.25 25.98 4.4 14.7 14.24" style="fill:#2c2c2c"/><path d="m 13.1 10.7 c 0 1.37 -1.09 2.48 -2.45 2.48 c -1.35 0 -2.45 -1.11 -2.45 -2.48 c 0 -1.37 1.1 -2.48 2.45 -2.48 c 1.36 0 2.45 1.11 2.45 2.48" style="fill:#fff"/><use xlink:href="#3" style="mask:url(#1)"/><g style="fill:#2c2c2c"><path d="m 9.48 10.71 v -1.44 h 0.86 c 0.47 0 0.91 0.01 0.97 0.02 c 0.2 0.04 0.38 0.13 0.5 0.25 c 0.29 0.31 0.2 0.8 -0.18 1.02 l -0.11 0.07 l 0.15 0.07 c 0.3 0.14 0.44 0.34 0.44 0.64 c 0 0.37 -0.22 0.62 -0.64 0.73 c -0.17 0.05 -0.26 0.05 -1.08 0.06 l -0.9 0.01 m 1.68 -0.68 c 0.1 -0.05 0.14 -0.13 0.14 -0.23 c 0 -0.22 -0.12 -0.27 -0.65 -0.27 h -0.39 v 0.56 h 0.41 c 0.33 -0.01 0.43 -0.02 0.48 -0.05 m -0.07 -1.12 c 0.13 -0.09 0.13 -0.29 0 -0.39 c -0.06 -0.04 -0.1 -0.05 -0.45 -0.05 h -0.38 v 0.52 h 0.38 c 0.34 0 0.39 -0.01 0.45 -0.05"/><path d="m 9.86 8.71 h 0.51 v 0.92 h -0.51"/><path d="m 10.73 8.71 h 0.51 v 0.92 h -0.51"/><path d="m 9.83 11.66 h 0.51 v 0.98 h -0.51"/><path d="m 10.71 11.66 h 0.51 v 0.98 h -0.51"/></g></svg>