<svg xmlns="http://www.w3.org/2000/svg" viewBox="0 0 22 22"><path d="m 18.81 3.85 c -22.89 -17.34 -26.1 30.39 -2.78 15.1 c 5.33 -3.49 8.84 -10.48 2.78 -15.1" style="fill:#eaf81c"/><path d="m 19 5 l -7.99 8" transform="matrix(0.384 0 0 0.372 4.92 5.16)" style="fill:none;stroke:#caba2e;stroke-width:6"/><path d="m 9.9 9.25 h -3.07 v 6.32 h 3.07" style="fill:#caba2e"/><path d="m 9.9 14.83 c 0.38 0 0.38 0.37 0.38 0.37 v 0.74 h -3.84 v -0.74 c 0 -0.37 0.38 -0.37 0.38 -0.37" style="fill:#d6c84a"/><path d="m 10.67 15.2 c 0.39 0 0.39 0.37 0.39 0.37 v 0.74 h -5.37 v -0.74 c 0 -0.37 0.38 -0.37 0.38 -0.37"/><path d="m 19 5 l 4 4" transform="matrix(0.384 0 0 0.372 4.92 5.16)" style="fill:#ff0;stroke:#caba2e;stroke-linecap:square;stroke-width:4"/><g style="fill-opacity:0.2"><path d="m 13.39 5.91 h -2.38 c -0.19 0 -0.34 0.15 -0.34 0.34 v 2.29 c 0 0.19 0.16 0.34 0.34 0.34 h 2.38 c 0.19 0 0.34 -0.15 0.34 -0.34 v -2.29 c 0 -0.19 -0.15 -0.34 -0.34 -0.34"/><path d="m 10.15 8.88 h -3.57 c -0.29 0 -0.52 0.23 -0.52 0.52 v 3.43 c 0 0.29 0.23 0.52 0.52 0.52 h 3.57 c 0.29 0 0.52 -0.23 0.52 -0.52 v -3.43 c 0 -0.29 -0.23 -0.52 -0.52 -0.52"/></g><path d="m 10.15 8.51 h -3.57 c -0.29 0 -0.52 0.23 -0.52 0.52 v 3.43 c 0 0.28 0.23 0.52 0.52 0.52 h 3.57 c 0.29 0 0.52 -0.23 0.52 -0.52 v -3.43 c 0 -0.29 -0.23 -0.52 -0.52 -0.52" style="fill:#d6c84a"/><path d="m 9.56 9.25 h -2.38 c -0.19 0 -0.34 0.15 -0.34 0.34 v 2.29 c 0 0.19 0.16 0.34 0.34 0.34 h 2.38 c 0.19 0 0.34 -0.15 0.34 -0.34 v -2.29 c 0 -0.19 -0.15 -0.34 -0.34 -0.34"/><path d="m 9.26 9.63 h -1.79 c -0.14 0 -0.26 0.11 -0.26 0.26 v 1.71 c 0 0.14 0.11 0.26 0.26 0.26 h 1.79 c 0.14 0 0.26 -0.12 0.26 -0.26 v -1.71 c 0 -0.14 -0.12 -0.26 -0.26 -0.26" style="fill:#fff;fill-opacity:0.2"/><path d="m 13.39 5.54 h -2.38 c -0.19 0 -0.34 0.15 -0.34 0.34 v 2.29 c 0 0.19 0.16 0.34 0.34 0.34 h 2.38 c 0.19 0 0.34 -0.15 0.34 -0.34 v -2.29 c 0 -0.19 -0.15 -0.34 -0.34 -0.34" style="fill:#d6c84a"/><path d="m 25 16 l -2 -1 v -3.99 l 2 -2 h 4 l 1 2" transform="matrix(0.384 0 0 0.372 4.92 5.16)" style="fill:none;stroke:#000;stroke-linecap:round;stroke-width:2"/><path d="m 12.8 6.28 h -1.19 c -0.1 0 -0.17 0.08 -0.17 0.17 v 1.14 c 0 0.09 0.07 0.17 0.17 0.17 h 1.19 c 0.09 0 0.17 -0.08 0.17 -0.17 v -1.14 c 0 -0.09 -0.08 -0.17 -0.17 -0.17"/><path d="m 6.07 15.2 c 0 0 -0.38 0 -0.38 0.37 v 0.37 c 0 -0.37 0.38 -0.37 0.38 -0.37 h 4.6 c 0.39 0 0.39 0.37 0.39 0.37 v -0.37 c 0 0 0 -0.37 -0.39 -0.37" style="fill:#fff;fill-opacity:0.2"/></svg>