<svg xmlns="http://www.w3.org/2000/svg" viewBox="0 0 22 22" xmlns:xlink="http://www.w3.org/1999/xlink"><defs><linearGradient id="8" gradientUnits="userSpaceOnUse" x1="25.86" y1="65.4" x2="21.1" y2="80.98" gradientTransform="matrix(0.102 0 0 0.111 4.18 4.13)" xlink:href="#1"/><linearGradient id="D" gradientUnits="userSpaceOnUse" x1="32.85" y1="31.3" x2="36.85" y2="29" gradientTransform="matrix(0.102 0 0 0.111 4.18 4.13)" xlink:href="#0"/><linearGradient id="9" gradientUnits="userSpaceOnUse" x1="58.99" y1="101.3" x2="63.3" y2="93.9" gradientTransform="matrix(0.102 0 0 0.111 4.18 4.13)" xlink:href="#1"/><linearGradient id="B" gradientUnits="userSpaceOnUse" x1="93.9" y1="45.71" x2="93.1" y2="57.5" gradientTransform="matrix(0.102 0 0 0.111 4.16 3.81)" xlink:href="#A"/><linearGradient id="C" gradientUnits="userSpaceOnUse" x1="103.5" y1="21.85" x2="103.1" y2="27.93" gradientTransform="matrix(0.102 0 0 0.111 4.18 4.13)" xlink:href="#A"/><linearGradient id="A" gradientUnits="userSpaceOnUse" x1="119" y1="63.1" x2="117.9" y2="78.7" gradientTransform="matrix(0.102 0 0 0.111 3.72 4.06)"><stop style="stop-color:#007f66;stop-opacity:0"/><stop offset="1" style="stop-color:#0fc"/></linearGradient><linearGradient id="7" gradientUnits="userSpaceOnUse" x1="17.85" y1="71.2" x2="16.2" y2="67.93" gradientTransform="matrix(0.102 0 0 0.111 4.18 4.13)" xlink:href="#1"/><linearGradient id="0" gradientUnits="userSpaceOnUse" x1="14.93" y1="60.86" x2="14.9" y2="63.3" gradientTransform="matrix(0.102 0 0 0.111 4.18 4.13)"><stop style="stop-color:#001212"/><stop offset="1" style="stop-color:#001212;stop-opacity:0"/></linearGradient><linearGradient id="1" gradientUnits="userSpaceOnUse" x1="51.3" y1="16.58" x2="44.2" y2="30" gradientTransform="matrix(0.102 0 0 0.111 4.18 4.13)"><stop style="stop-color:#020202"/><stop offset="1" style="stop-color:#020202;stop-opacity:0"/></linearGradient><linearGradient id="6" gradientUnits="userSpaceOnUse" x1="38.4" y1="102.1" x2="33.72" y2="99.8" gradientTransform="matrix(0.102 0 0 0.111 4.18 4.13)" xlink:href="#0"/><linearGradient id="2" gradientUnits="userSpaceOnUse" x1="1022.5" y1="1582.4" x2="1018.6" y2="1575.6" gradientTransform="matrix(0.06 0 0 0.062 -50.56 -90.3)" xlink:href="#1"/><linearGradient id="4" gradientUnits="userSpaceOnUse" x1="34.6" y1="38.42" x2="26.62" y2="38.4" gradientTransform="matrix(0.102 0 0 0.111 4.18 4.13)" xlink:href="#1"/><linearGradient id="5" gradientUnits="userSpaceOnUse" x1="23.51" y1="86.8" x2="32.2" y2="86.7" gradientTransform="matrix(0.102 0 0 0.111 4.18 4.13)" xlink:href="#1"/><linearGradient id="3" gradientUnits="userSpaceOnUse" x1="20.2" y1="61.91" x2="14.56" y2="51.61" gradientTransform="matrix(0.102 0 0 0.111 4.18 4.13)" xlink:href="#1"/></defs><path d="m 1.04 15.1 c -8.27 -26.74 36.1 -13.37 15.38 4.96 c -4.16 3.67 -13.15 2.26 -15.38 -4.96" style="fill:#3d4e7f"/><g style="fill:#fff"><path d="m 7.3 5.84 h 5.79 l -1.46 2.77 h -3.14 l -1.3 2.47 l 1.32 2.5 h 6.12 l -1.5 2.84 h -5.94 l -2.86 -5.42 l 2.74 -5.19"/><path d="m 7.1 5.81 l 4.57 2.79 l 1.46 -2.77"/><path d="m 8.5 13.58 l -1.32 2.84 h 5.94 l 1.5 -2.84"/></g><path d="m 7.1 5.81 l 4.57 2.79 h -3.14 l -1.3 2.47 l 1.32 2.51 l -1.32 2.84 l -2.86 -5.42 l 2.75 -5.19" style="fill:#0cf"/><path d="m 4.31 11 l 2.86 0.08 l 0.08 0.15 l -2.85 -0.06" style="fill:url(#0)"/><path d="m 11.62 8.6 l -4.56 -2.79 l -0.35 0.68 l 3.46 2.09" style="fill:url(#1)"/><path d="m 8.46 8.58 l 4.65 -2.87 l -1.5 2.69" style="fill:url(#2)"/><g style="fill:#fff"><path d="m 8.48 8.6 l 4.61 -2.77 l -1.46 2.77"/><path d="m 4.31 11 l 4.17 -2.39 l -1.3 2.47"/></g><path d="m 4.31 11 l 4.17 -2.39 l -0.28 -0.48 l -3.59 2.28" style="fill:url(#3)"/><path d="m 8.48 8.6 l -1.43 -2.79 l 0.13 5.27" style="fill:#fff"/><path d="m 8.5 13.58 l 4.61 2.84 l 1.5 -2.84" style="fill:#0cf"/><path d="m 7.1 5.81 l -0.34 0.68 l 0.03 4.56 l 0.44 0.02" style="fill:url(#4)"/><path d="m 7.18 11.1 l -2.19 1.2 l 2.19 4.15" style="fill:#fff"/><path d="m 7.18 11.1 v 5.35 l 0.54 -1.14 l 0.04 -3.14" style="fill:url(#5)"/><path d="m 7.18 16.42 l -0.2 -0.41 l 1.33 -2.8 l 0.2 0.37" style="fill:url(#6)"/><path d="m 4.99 12.27 l 2.19 -1.2 l -0.43 -0.02 l -1.9 0.99" style="fill:url(#7)"/><path d="m 4.99 12.27 l 3.52 1.31 l -1.32 -2.51" style="fill:#fff"/><path d="m 8.5 13.58 l -3.52 -1.3 l 0.38 0.72 l 2.89 1.14" style="fill:url(#8)"/><path d="m 8.5 13.58 l 4.61 2.84 l 0.55 -1.07 l -2.97 -1.79" style="fill:url(#9)"/><path d="m 16.72 12.44 c 0 0.59 -0.44 1.08 -0.99 1.08 c -0.54 0 -0.98 -0.48 -0.98 -1.08 c 0 -0.59 0.44 -1.08 0.98 -1.08 c 0.55 0 0.99 0.48 0.99 1.08" style="fill:#0cf"/><path d="m 16.73 12.43 c 0 0.6 -0.45 1.08 -0.99 1.08 c -0.55 0 -0.99 -0.48 -0.99 -1.08 c 0 -0.59 0.44 -1.08 0.99 -1.08 c 0.54 0 0.99 0.48 0.99 1.08" style="fill:url(#A)"/><path d="m 14.39 9.93 c 0 0.45 -0.34 0.82 -0.75 0.82 c -0.41 0 -0.75 -0.37 -0.75 -0.82 c 0 -0.45 0.34 -0.82 0.75 -0.82 c 0.41 0 0.75 0.37 0.75 0.82" style="fill:#0cf"/><path d="m 14.41 9.93 c 0 0.45 -0.34 0.82 -0.75 0.82 c -0.41 0 -0.75 -0.37 -0.75 -0.82 c 0 -0.45 0.34 -0.82 0.75 -0.82 c 0.41 0 0.75 0.37 0.75 0.82" style="fill:url(#B)"/><path d="m 15.1 7.1 c 0 0.23 -0.17 0.42 -0.39 0.42 c -0.21 0 -0.39 -0.19 -0.39 -0.42 c 0 -0.23 0.17 -0.42 0.39 -0.42 c 0.21 0 0.39 0.19 0.39 0.42" style="fill:#0cf"/><path d="m 15.1 7.09 c 0 0.23 -0.17 0.42 -0.39 0.42 c -0.21 0 -0.39 -0.19 -0.39 -0.42 c 0 -0.23 0.17 -0.42 0.39 -0.42 c 0.21 0 0.39 0.19 0.39 0.42" style="fill:url(#C)"/><path d="m 8.48 8.6 l -1.43 -2.79 h 0.37 l 1.34 2.61" style="fill:url(#D)"/></svg>