<svg xmlns="http://www.w3.org/2000/svg" viewBox="0 0 22 22"><path d="m 21 8.93 c -2.19 -14.67 -24.72 -9.66 -20.46 4.54 c 2.86 13.49 25.92 9.84 20.46 -4.54" style="fill:#d1b38c"/><path d="m 9.25 5.6 h 3.44 v 11.22 h -3.44" style="fill:#e2c3a9"/><path d="m 12.87 16.89 l -0.9 -0.04 l -0.02 -0.44 c -0.02 -0.63 -0.04 -0.64 -1.09 -0.64 c -1.07 0 -1.09 0.01 -1.09 0.62 v 0.44 c -1.25 0 -2.5 0 -3.76 0 c -0.37 -0.11 -0.39 -0.34 -0.53 -0.55 c -0.11 -0.18 -0.12 -0.3 -0.13 -4.86 c -0.02 -4.95 -0.01 -5.11 0.26 -5.39 c 0.07 -0.07 0.22 -0.19 0.34 -0.26 c 0.2 -0.13 0.27 -0.13 2.04 -0.15 l 1.83 -0.02 c 0.06 0.21 0.07 0.44 0.07 0.63 c 0 0.52 0.02 0.52 1.07 0.52 c 1.06 0 1.05 0.01 1.05 -0.69 v -0.46 c 1.25 0 2.49 0 3.74 0 c 0.35 0.21 0.61 0.41 0.78 0.86 v 3.13 c 0 2.96 -0.01 3.13 -0.1 3.09 c -2.33 1.56 -1.91 4.21 -3.55 4.21" style="fill:#ca9a6a"/><path d="m 18.73 15.67 c 0 1.75 -1.43 3.17 -3.18 3.17 c -1.76 0 -3.18 -1.42 -3.18 -3.17 c 0 -1.75 1.43 -3.17 3.18 -3.17 c 1.75 0 3.18 1.42 3.18 3.17" style="fill:#5cab5c"/><path d="m 10.19 14.1 c -0.54 -0.15 -0.97 -0.41 -1.38 -0.82 c -0.46 -0.46 -0.68 -0.88 -0.83 -1.56 c -0.29 -1.35 0.53 -2.84 1.86 -3.37 c 0.59 -0.2 1.51 -0.28 2.21 0 c 1.32 0.53 2.13 2 1.85 3.36 c -0.14 0.68 -0.37 1.11 -0.83 1.58 c -0.77 0.77 -1.89 1.08 -2.88 0.81 m 1.67 -0.71 c 0.49 -0.22 1.03 -0.76 1.27 -1.25 c 0.27 -0.66 0.3 -1.36 0.02 -1.92 c -0.25 -0.51 -0.75 -1 -1.27 -1.25 c -0.68 -0.32 -1.41 -0.23 -1.93 0.02 c -0.55 0.27 -0.95 0.68 -1.22 1.26 c -0.25 0.63 -0.28 1.28 -0.02 1.84 c 0.28 0.6 0.67 1.05 1.55 1.42 c 0.36 0.15 1.18 0.08 1.6 -0.12 m -2.55 -2.43 c 0.31 -0.13 0.56 -0.11 0.93 -0.13 c 0.05 -0.39 -0.06 -0.86 0.1 -1.23 c 0.09 -0.11 1.11 -0.11 1.2 0 c 0.1 0.43 0.09 0.77 0.1 1.23 c 0.18 0.03 0.91 0 0.9 0.17 c -0.01 0.14 -1.48 1.73 -1.61 1.74 c -0.47 -0.46 -1.13 -1.15 -1.61 -1.77" style="fill:#2d2116"/><g style="fill:#fff"><path d="m 14.93 13.67 h 1.18 v 4.05 h -1.18"/><path d="m 17.55 15.1 v 1.18 h -4.05 v -1.18"/></g></svg>