<svg xmlns="http://www.w3.org/2000/svg" viewBox="0 0 22 22"><defs><linearGradient id="0" gradientUnits="userSpaceOnUse" x1="4.25" y1="5.12" x2="12.21" y2="13.39" gradientTransform="matrix(0.776 0 0 0.761 4.59 4.51)"><stop style="stop-color:#868e96"/><stop offset="1" style="stop-color:#5d6268"/></linearGradient><linearGradient id="1" gradientUnits="userSpaceOnUse" x1="5.61" y1="7.19" x2="10.1" y2="11.15" gradientTransform="matrix(0.776 0 0 0.761 4.59 4.51)"><stop style="stop-color:#d078e5"/><stop offset="1" style="stop-color:#26c7ff"/></linearGradient></defs><path d="m 21 7.52 c 4.27 10.95 -7.7 16.57 -15.1 13.78 c -5.2 -1.95 -7.79 -9.71 -4.1 -15.98 c 4.66 -7.92 15.95 -6.23 19.24 2.21" style="fill:#02c8ef"/><path d="m 5.37 6.79 h 1.55 v 3.04 h -1.55" style="fill:#22bcfa"/><path d="m 9.93 6 c -0.39 0 -0.75 0.19 -0.97 0.51 l -0.86 0.95 c -0.02 0.02 -0.01 0.04 -0.02 0.06 h -2.71 c -0.43 0 -0.78 0.34 -0.78 0.76 v 6.85 c 0 0.42 0.35 0.76 0.78 0.76 h 10.86 c 0.43 0 0.78 -0.34 0.78 -0.76 v -6.85 c 0 -0.42 -0.35 -0.76 -0.78 -0.76 h -2.71 c -0.02 -0.02 -0.01 -0.05 -0.02 -0.06 l -0.86 -0.95 c -0.21 -0.32 -0.58 -0.51 -0.97 -0.51" style="fill:url(#0)"/><path d="m 16.23 8.7 c 0 0.21 -0.17 0.38 -0.39 0.38 c -0.21 0 -0.39 -0.17 -0.39 -0.38 c 0 -0.21 0.17 -0.38 0.39 -0.38 c 0.21 0 0.39 0.17 0.39 0.38" style="fill:#b8c1cc"/><path d="m 13.91 11.36 c 0 1.68 -1.39 3.04 -3.1 3.04 c -1.71 0 -3.11 -1.36 -3.11 -3.04 c 0 -1.68 1.39 -3.04 3.11 -3.04 c 1.71 0 3.1 1.36 3.1 3.04" style="fill:#fff"/><path d="m 13.1 11.36 c 0 1.26 -1.04 2.28 -2.33 2.28 c -1.29 0 -2.33 -1.02 -2.33 -2.28 c 0 -1.26 1.04 -2.29 2.33 -2.29 c 1.29 0 2.33 1.02 2.33 2.29" style="fill:url(#1)"/><path d="m 17 15.2 c 0 0.42 -0.35 0.76 -0.78 0.76 h -10.86 c -0.43 0 -0.78 -0.34 -0.78 -0.76" style="fill:#3e454a"/></svg>