<svg xmlns="http://www.w3.org/2000/svg" viewBox="0 0 22 22"><path d="m 0.25 13.51 c 1.36 8.88 13.48 11.26 18.83 4.92 c 4.71 -4.71 3.54 -13.73 -2.25 -16.82 c -6.63 -4.13 -16.3 0.98 -16.82 9.21 c -0.05 0.9 0.02 1.81 0.24 2.69" style="fill:#871434"/><path d="m 15.1 11.1 c 0 2.22 -1.77 4 -3.96 4 c -2.19 0 -3.96 -1.8 -3.96 -4 c 0 -2.22 1.77 -4 3.96 -4 c 2.18 0 3.96 1.8 3.96 4" style="fill:#2f2f2f"/><path d="m 11.13 5.1 c -3.55 0 -6.43 2.93 -6.43 6.54 c 0 3.61 2.88 6.54 6.43 6.54 c 3.55 0 6.43 -2.93 6.43 -6.54 c 0 -3.61 -2.88 -6.54 -6.43 -6.54 m -0.35 3.57 c 0.09 0.34 0.22 0.71 0.35 0.97 c 0.13 -0.26 0.25 -0.63 0.35 -0.97 c 0.55 0.07 1.08 0.29 1.51 0.65 c -0.14 0.25 -0.28 0.53 -0.38 0.82 c 0.29 -0.1 0.57 -0.24 0.81 -0.39 c 0.36 0.44 0.58 0.97 0.65 1.53 c -0.34 0.1 -0.7 0.23 -0.96 0.36 c 0.27 0.13 0.63 0.26 0.96 0.36 c -0.07 0.56 -0.29 1.1 -0.65 1.54 c -0.24 -0.14 -0.52 -0.29 -0.81 -0.39 c 0.09 0.29 0.23 0.58 0.38 0.82 c -0.43 0.36 -0.96 0.58 -1.51 0.65 c -0.1 -0.34 -0.22 -0.7 -0.35 -0.96 c -0.13 0.26 -0.26 0.63 -0.35 0.96 c -0.55 -0.07 -1.08 -0.29 -1.52 -0.65 c 0.14 -0.25 0.29 -0.54 0.38 -0.82 c -0.29 0.09 -0.57 0.23 -0.81 0.39 c -0.36 -0.44 -0.58 -0.97 -0.65 -1.54 c 0.34 -0.09 0.7 -0.23 0.96 -0.36 c -0.26 -0.13 -0.63 -0.26 -0.96 -0.36 c 0.07 -0.56 0.29 -1.09 0.65 -1.53 c 0.24 0.14 0.52 0.29 0.81 0.39 c -0.1 -0.29 -0.23 -0.58 -0.38 -0.82 c 0.43 -0.36 0.96 -0.58 1.52 -0.65" style="fill-opacity:0.1"/><path d="m 11.13 4.55 c -3.55 0 -6.43 2.93 -6.43 6.54 c 0 3.61 2.88 6.54 6.43 6.54 c 3.55 0 6.43 -2.93 6.43 -6.54 c 0 -3.61 -2.88 -6.54 -6.43 -6.54 m 0 3.52 c 1.64 0 2.97 1.35 2.97 3 c 0 1.67 -1.33 3 -2.97 3 c -1.64 0 -2.97 -1.35 -2.97 -3 c 0 -1.66 1.33 -3 2.97 -3" style="fill:#63263f"/><path d="m 11.13 9.1 c 0.25 -0.5 0.49 -1.41 0.49 -1.71 c 0 -0.4 -0.99 -0.4 -0.99 0 c 0 0.3 0.25 1.21 0.5 1.71 m 0 4 c 0.25 0.5 0.49 1.41 0.49 1.71 c 0 0.4 -0.99 0.4 -0.99 0 c 0 -0.3 0.25 -1.21 0.5 -1.71 m -1.98 -2 c -0.5 0.25 -1.39 0.5 -1.68 0.5 c -0.39 0 -0.39 -1 0 -1 c 0.3 0 1.19 0.25 1.68 0.5 m 3.96 0 c 0.5 0.25 1.39 0.5 1.68 0.5 c 0.4 0 0.4 -1 0 -1 c -0.3 0 -1.19 0.25 -1.68 0.5 m -4.95 -2.51 c 0 -0.25 0.25 -0.5 0.5 -0.5 c 0.2 0 0.74 0.75 0.99 1.51 c -0.75 -0.25 -1.49 -0.8 -1.49 -1 m 0 5 c 0 0.25 0.25 0.5 0.5 0.5 c 0.2 0 0.74 -0.75 0.99 -1.51 c -0.75 0.25 -1.49 0.8 -1.49 1 m 5.94 -5 c 0 -0.25 -0.25 -0.5 -0.5 -0.5 c -0.2 0 -0.74 0.75 -0.99 1.51 c 0.74 -0.25 1.48 -0.8 1.48 -1 m 0 5 c 0 0.25 -0.25 0.5 -0.5 0.5 c -0.2 0 -0.74 -0.75 -0.99 -1.51 c 0.74 0.25 1.48 0.8 1.48 1" style="fill:#b19b80"/><path d="m 11.13 4.05 c -4.1 0 -7.43 3.38 -7.43 7.54 c 0 4.17 3.32 7.55 7.43 7.55 c 4.1 0 7.42 -3.38 7.42 -7.55 c 0 -4.16 -3.32 -7.54 -7.42 -7.54 m 0 1.51 c 0.63 0 1.25 0.11 1.85 0.31 c -0.2 0.55 -0.36 1.37 -0.36 2.21 c 0.63 -0.64 1.08 -1.29 1.36 -1.78 c 1 0.56 1.81 1.4 2.35 2.41 c -0.48 0.28 -1.11 0.73 -1.73 1.38 c 0.81 0 1.62 -0.17 2.16 -0.37 c 0.39 1.22 0.39 2.54 0 3.76 c -0.54 -0.2 -1.35 -0.37 -2.16 -0.37 c 0.63 0.64 1.25 1.09 1.73 1.37 c -0.54 1.02 -1.36 1.86 -2.35 2.41 c -0.27 -0.49 -0.73 -1.13 -1.36 -1.77 c 0 0.83 0.17 1.66 0.36 2.21 c -0.59 0.2 -1.22 0.3 -1.85 0.3 c -0.63 0 -1.25 -0.11 -1.85 -0.3 c 0.2 -0.55 0.37 -1.38 0.37 -2.21 c -0.64 0.64 -1.09 1.29 -1.36 1.77 c -1 -0.56 -1.81 -1.4 -2.35 -2.41 c 0.48 -0.28 1.11 -0.73 1.73 -1.37 c -0.81 0 -1.63 0.17 -2.16 0.37 c -0.39 -1.22 -0.39 -2.54 0 -3.76 c 0.54 0.2 1.35 0.37 2.16 0.37 c -0.63 -0.64 -1.25 -1.1 -1.73 -1.38 c 0.54 -1.02 1.36 -1.85 2.35 -2.41 c 0.27 0.49 0.73 1.13 1.36 1.78 c 0 -0.83 -0.17 -1.66 -0.37 -2.21 c 0.6 -0.2 1.22 -0.3 1.85 -0.31" style="fill-opacity:0.1"/><path d="m 9.14 5.1 c 0.25 0.5 0.5 1.51 0.5 2.52 c -0.75 -0.75 -1.24 -1.51 -1.49 -2 m -2.97 3.52 c 0.5 0.25 1.48 0.5 2.48 0.5 c -0.74 -0.75 -1.48 -1.26 -1.98 -1.51 m 3.46 9.1 c 0.25 -0.5 0.5 -1.51 0.5 -2.52 c -0.75 0.75 -1.24 1.51 -1.49 2 m -2.97 -3.52 c 0.5 -0.25 1.48 -0.5 2.48 -0.5 c -0.74 0.75 -1.48 1.26 -1.98 1.51 m 7.42 -9.1 c -0.25 0.5 -0.49 1.51 -0.49 2.52 c 0.74 -0.75 1.23 -1.51 1.48 -2 m 2.97 3.52 c -0.5 0.25 -1.48 0.5 -2.47 0.5 c 0.74 -0.75 1.48 -1.26 1.98 -1.51 m -3.46 9.1 c -0.25 -0.5 -0.49 -1.51 -0.49 -2.52 c 0.74 0.75 1.23 1.51 1.48 2 m 2.97 -3.52 c -0.5 -0.25 -1.48 -0.5 -2.47 -0.5 c 0.74 0.75 1.48 1.26 1.98 1.51" style="fill:#fddfb9"/><path d="m 11.13 3.54 c -4.1 0 -7.43 3.38 -7.43 7.54 c 0 4.17 3.32 7.55 7.43 7.55 c 4.1 0 7.42 -3.38 7.42 -7.55 c 0 -4.16 -3.32 -7.54 -7.42 -7.54 m 0 1.51 c 3.28 0 5.94 2.7 5.94 6 c 0 3.34 -2.66 6 -5.94 6 c -3.28 0 -5.94 -2.7 -5.94 -6 c 0 -3.33 2.66 -6 5.94 -6" style="fill:#c10a2d"/></svg>