<svg xmlns="http://www.w3.org/2000/svg" viewBox="0 0 22 22"><path d="m 20.39 5.41 c -16.62 -19.29 -32.61 20.38 -6.9 16.3 c 5.64 -0.89 11.38 -11.1 6.9 -16.3" style="fill:#b22121"/><path d="m 10.61 18.44 c -0.08 -0.05 -1.45 -0.84 -3.05 -1.75 c -1.6 -0.91 -2.95 -1.68 -3 -1.73 c -0.09 -0.08 -0.1 -0.32 -0.1 -3.55 c 0 -1.91 0.02 -3.51 0.04 -3.56 c 0.02 -0.05 0.21 -0.19 0.41 -0.31 c 2.32 -1.31 5.5 -3.14 5.66 -3.24 c 0.19 -0.13 0.2 -0.13 0.34 -0.04 c 0.08 0.05 1.46 0.84 3.08 1.76 c 1.61 0.92 2.95 1.69 2.96 1.72 c 0.02 0.05 -2.8 1.68 -3 1.73 c -0.07 0.02 -0.62 -0.26 -1.6 -0.82 c -0.82 -0.47 -1.52 -0.85 -1.57 -0.85 c -0.09 0 -2.95 1.58 -3.12 1.73 c -0.09 0.07 -0.1 0.23 -0.1 1.8 c 0 1.29 0.02 1.75 0.07 1.81 c 0.1 0.12 3.05 1.79 3.16 1.79 c 0.09 0 0.49 -0.23 4.09 -2.29 c 1.15 -0.66 2.12 -1.19 2.15 -1.17 c 0.09 1.21 0.05 2.07 0.05 3.39 l -0.21 0.14 c -2.06 1.28 -4 2.41 -5.98 3.44 c -0.11 0.07 -0.14 0.07 -0.26 -0.02" style="fill:#f84769"/><path d="m 14.1 13.18 c 0.96 -0.55 1.91 -1.11 2.89 -1.6 c 0.05 1.23 0.07 2.18 0.04 3.34 c -0.27 0.14 -0.52 0.32 -0.81 0.43 c -0.36 -0.32 -2.29 -1.97 -2.12 -2.16 m -3.29 -5.48 c -0.49 0.26 -0.95 0.59 -1.46 0.82 c -0.11 0.04 -2.29 -2.06 -2.23 -2.15 c 1.25 -0.57 2.32 -1.61 3.65 -2.04 c 0.1 0 6 3.35 6.1 3.42 c 0.02 0.04 -2.63 1.59 -2.85 1.66 c -1.09 -0.49 -2.15 -1.15 -3.17 -1.71" style="fill:#fb7d34"/><path d="m 7.59 9.45 c 1.03 -0.61 2.17 -1.23 3.1 -1.72 c 1.17 0.48 2 1 3.21 1.67 c -1.18 0.64 -2.13 1.15 -3.21 1.73 c -1.14 -0.61 -2.12 -1.18 -3.11 -1.68" style="fill:#fbb4b3"/></svg>