<svg xmlns="http://www.w3.org/2000/svg" viewBox="0 0 22 22"><path d="m 5.17 2.35 c 11.25 -7.88 22.66 6.67 13.48 15.95 c -8.64 8.74 -22.1 0.64 -17.87 -10.25 c 0.88 -2.27 2.31 -4.26 4.38 -5.7" style="fill:#392e78"/><path d="m 5.92 5.8 h 10.1 c 0.11 0 0.21 0.09 0.21 0.2 v 1.55 c 0 0.11 -0.09 0.2 -0.21 0.2 h -10.1 c -0.11 0 -0.21 -0.09 -0.21 -0.2 v -1.55 c 0 -0.11 0.09 -0.2 0.21 -0.2" style="fill:#8d8d8d"/><path d="m 5.92 8.73 h 10.1 c 0.11 0 0.21 0.09 0.21 0.21 v 1.55 c 0 0.11 -0.09 0.2 -0.21 0.2 h -10.1 c -0.11 0 -0.21 -0.09 -0.21 -0.2 v -1.55 c 0 -0.11 0.09 -0.21 0.21 -0.21" style="fill:#81d453"/><path d="m 5.92 11.68 h 10.12 c 0.11 0 0.2 0.09 0.2 0.21 v 1.55 c 0 0.12 -0.09 0.21 -0.2 0.21 h -10.12 c -0.11 0 -0.21 -0.09 -0.21 -0.21 v -1.55 c 0 -0.11 0.09 -0.21 0.21 -0.21" style="fill:#fccc53"/><path d="m 5.92 14.62 h 10.1 c 0.11 0 0.21 0.09 0.21 0.21 v 1.55 c 0 0.11 -0.09 0.21 -0.21 0.21 h -10.1 c -0.11 0 -0.21 -0.09 -0.21 -0.21 v -1.55 c 0 -0.11 0.09 -0.21 0.21 -0.21" style="fill:#4d8cd6"/></svg>