<svg xmlns="http://www.w3.org/2000/svg" viewBox="0 0 22 22"><path d="m 19.73 16.84 c 7.91 -11.22 -6.7 -22.59 -16 -13.45 c -8.78 8.61 -0.64 22 10.29 17.82 c 2.28 -0.87 4.28 -2.3 5.73 -4.37" style="fill:#473d8b"/><path d="m 10.88 14.77 c 0 -1.69 -0.02 -3.09 -0.04 -3.11 c -0.02 -0.02 -1.02 0.95 -2.22 2.15 l -2.19 2.18 l 0.21 0.19 c 1 0.91 2.39 1.5 3.88 1.63 l 0.36 0.03" style="fill:#9400d2"/><path d="m 16.2 15.37 c 0.76 -0.9 1.24 -1.93 1.39 -2.98 c 0.13 -0.48 0.14 -0.49 0.16 -1 h -3.06 c -1.9 0 -3.06 0.02 -3.05 0.05 c 0.02 0.07 4.21 4.25 4.25 4.25 c 0.02 0 0.16 -0.14 0.3 -0.32" style="fill:#ffa400"/><path d="m 8.4 13.51 l 2.14 -2.14 l -3.11 -0.02 c -1.71 -0.02 -3.12 -0.03 -3.12 -0.03 c 0 0 0.01 0.19 0.03 0.42 c 0.11 1.12 0.54 2.29 1.16 3.14 c 0.3 0.41 0.62 0.76 0.7 0.76 c 0.04 0 1.03 -0.96 2.21 -2.14" style="fill:#1e8fff"/><g transform="matrix(-0.05 0 0 0.049 17.27 4.97)" style="stroke-width:0.11"><path d="m 129.9 119.3 c -0.08 -0.24 0 -11.44 0.24 -24.87 c 0.24 -13.51 0.39 -41.82 0.47 -63.1 v -38.54 h 1.97 c 6.93 0 23.79 3.2 33.4 6.32 c 10.95 3.52 24.5 10.16 34.43 16.87 c 5.2 3.52 14.18 10.72 16.54 13.27 l 1.58 1.68 l -1.58 1.2 c -5.99 4.72 -75.8 75.1 -82.9 83.6 c -3.15 3.76 -3.7 4.24 -4.18 3.44" style="fill:#eaf81c;stroke:#ffd9b9"/><path d="m 51.74 123.5 c -47.3 -0.08 -59.5 -0.24 -59.5 -0.8 c 0 -2.08 1.65 -15.43 2.52 -20.1 c 4.73 -25.67 15.68 -48.62 31.1 -65.3 l 3.78 -4.08 l 42.3 44.62 c 23.2 24.47 42.2 44.86 42.2 45.2 c 0 0.32 -0.63 0.64 -1.5 0.64 c -0.87 0 -28.3 -0.08 -60.98 -0.16" style="fill:#ffd600;stroke:#fff"/><path d="m 114.5 262.8 c -20.33 -1.44 -41.1 -7.92 -57.4 -18.1 c -6.62 -4 -15.44 -10.56 -19.7 -14.47 l -3.94 -3.68 l 28.91 -29.51 c 15.91 -16.2 35.77 -36.1 44.1 -44.3 l 15.21 -14.79 l 0.32 15.59 c 0.16 8.56 0.32 36.78 0.39 62.69 c 0.08 37.5 -0.08 47.2 -0.63 47.1 c -0.32 0 -3.62 -0.24 -7.25 -0.48" style="fill:#f00;stroke:#f00"/><path d="m 98.1 95.1 c -23.79 -23.75 -61.1 -62.1 -62.6 -64.3 c 1.1 -6.64 14.26 -14.23 21.51 -18.63 c 7.96 -4.72 22.53 -10.96 31.36 -13.43 c 9.85 -2.8 25.92 -5.6 31.83 -5.6 h 2.05 l -0.32 60.85 c -0.16 33.51 -0.47 61.4 -0.63 62.1 c -0.24 0.64 -0.55 1.2 -0.71 1.2 c -0.16 0 -10.32 -10 -22.53 -22.2" style="fill:#ff0;stroke:#ff7f4f"/><path d="m 184.2 123.4 c -23 -0.24 -42.78 -0.56 -44 -0.8 l -2.28 -0.32 l 4.41 -4.88 c 6.62 -7.44 53.73 -55.3 68.2 -69.4 l 12.68 -12.39 l 3.7 4 c 4.73 5.2 12.21 15.27 15.36 20.71 c 6.54 11.28 12.37 26.79 15.28 40.54 c 0.71 6.88 5.12 15.43 2.91 22.31 c -0.39 0.96 -3.47 0.96 -76.3 0.24" style="fill:#9acd31;stroke:#ff9f79"/></g></svg>