<svg xmlns="http://www.w3.org/2000/svg" viewBox="0 0 22 22"><path d="m 14.58 21.1 c -10.95 4.54 -16.57 -7.29 -13.78 -14.8 c 1.95 -5.25 9.71 -8 15.98 -4.49 c 7.91 4.46 6.23 15.8 -2.21 19.3" style="fill:#e3f4cd"/><path d="m 7.34 7.76 h 6.9 v 7.32 h -6.9" style="fill:#c5d2d8"/><g style="fill:#ffd733"><path d="m 6.88 5.48 h 7.97 v 1.63 h -7.97"/><path d="m 6.77 15.66 h 7.97 v 1.63 h -7.97"/></g><path d="m 5.24 17.1 c -0.15 -0.09 -0.18 -0.26 -0.18 -1.12 v -1.02 h 0.59 c 0.75 0 1.05 -0.19 1.05 -0.67 c 0 -0.55 -0.29 -0.76 -1.02 -0.76 h -0.62 v -4.61 h 0.62 c 0.83 0 1.02 -0.11 1.02 -0.6 c 0 -0.53 -0.23 -0.71 -1 -0.79 l -0.63 -0.07 v -0.79 c 0 -1.02 0.1 -1.13 1.11 -1.13 h 0.73 c 0 0.3 0 0.6 0 0.9 l 1.92 0.04 c 1.05 0.02 2.83 0.02 3.94 0 l 2 -0.04 c 0 -0.3 0 -0.6 0 -0.9 h 0.86 c 1 0 0.98 -0.03 0.98 1.12 v 0.8 l -0.67 0.04 c -0.76 0.05 -1 0.22 -1 0.69 c 0 0.53 0.28 0.72 1.02 0.72 h 0.65 v 4.5 h -0.59 c -0.75 0 -1.05 0.19 -1.05 0.66 c 0 0.52 0.21 0.67 0.98 0.67 h 0.66 v 1.11 c 0 0.72 -0.04 1.14 -0.12 1.23 c -0.08 0.07 -0.44 0.12 -0.92 0.12 h -0.8 c 0 -0.36 0 -0.73 0 -1.09 l -1.68 -0.06 c -0.93 -0.03 -2.72 -0.03 -3.99 0 l -2.31 0.06 c 0 0.37 0 0.73 0 1.09 h -0.69 c -0.38 0 -0.77 -0.05 -0.87 -0.11 m 1.11 -0.86 c 0.08 -0.32 -0.12 -0.58 -0.41 -0.54 c -0.13 0.02 -0.22 0.12 -0.25 0.27 c -0.05 0.37 0.05 0.53 0.34 0.53 c 0.2 -0.04 0.29 -0.12 0.32 -0.26 m 9.61 0 c 0.09 -0.09 0.16 -0.2 0.16 -0.25 c 0 -0.13 -0.3 -0.41 -0.45 -0.41 c -0.2 0 -0.37 0.22 -0.37 0.47 c 0 0.35 0.39 0.46 0.66 0.19 m -2.03 -1.64 c 0.22 -0.06 0.22 -0.07 0.21 -3.32 v -3.27 h -6.72 v 3.26 c 0 1.79 0.03 3.29 0.07 3.32 c 0.08 0.08 6.13 0.09 6.44 0.01 m -7.65 -7.92 c 0.04 -0.32 -0.24 -0.55 -0.51 -0.41 c -0.19 0.1 -0.26 0.5 -0.12 0.64 c 0.04 0.04 0.19 0.06 0.33 0.04 c 0.18 -0.06 0.27 -0.14 0.3 -0.28 m 9.68 0.07 c 0.22 -0.16 0.19 -0.46 -0.07 -0.62 c -0.36 -0.22 -0.75 0.28 -0.48 0.61 c 0.15 0.18 0.31 0.19 0.55 0.02" style="fill:#00b79f"/><path d="m 7 13.95 c -0.01 -0.67 -0.02 -1.57 -0.02 -2 c 0 -0.7 -0.01 -0.82 -0.07 -1 c -0.04 -0.16 -0.07 -0.32 -0.18 -0.41 c -0.1 -0.05 -0.11 -0.07 -0.1 -0.21 c 0.03 -0.21 0.14 -0.16 0.29 -0.25 c 0.03 -0.03 0.04 -0.41 0.05 -1.33 l 0.01 -1.29 l 3.77 0.03 c 2.07 0.02 3.78 0.04 3.79 0.04 c 0.01 0.01 0.02 0.59 0.03 1.29 l 0.02 1.28 l 0.23 0.02 c 0.13 0.02 0.25 0.05 0.27 0.07 c 0.07 0.3 -0.19 0.36 -0.23 0.57 c -0.1 0.25 -0.22 0.29 -0.24 0.49 c -0.01 0.14 -0.02 0.93 -0.03 1.74 c 0 0.82 -0.02 1.64 -0.03 1.82 l -0.02 0.34 h -7.5 m 7 -0.62 c 0.04 -0.04 0.05 -0.34 0.06 -1.33 l 0.01 -1.28 l -0.58 0.18 c -0.63 0.16 -0.66 -0.04 -1.27 -0.16 c -0.44 0.07 -0.8 -0.72 -0.88 -0.66 c 0.25 0.26 -0.39 -0.89 -1.01 -0.14 c -0.07 0.17 -0.42 0.61 -0.44 0.62 c -0.48 0.19 -1.27 0.53 -1.7 0.19 c -0.49 0.06 -0.54 -0.62 -0.75 -0.62 c -0.07 0 -0.07 0.42 -0.03 2.18 l 0.02 1.05 l 0.16 0.02 c 0.09 0.01 1.55 0.01 3.25 0.01 c 2.49 0 3.1 -0.02 3.14 -0.05 m 0.02 -4.45 c 0.04 -0.04 0.04 -2.1 0.01 -2.13 c -0.02 -0.01 -1.5 -0.01 -3.31 0 l -3.29 0.03 v 2.11 l 0.67 0.01 c 1.39 0.02 5.89 0 5.92 -0.02"/><path d="m 10 9.89 c -0.49 -0.15 -0.36 -0.59 -0.36 -0.8 c -0.01 -0.28 -0.07 -0.46 0.15 -0.63 c 0.3 -0.23 0.7 -0.23 0.96 0 c 0.09 0.08 0.15 0.16 0.14 0.19 c -0.04 0.08 -0.17 0.07 -0.31 -0.03 c -0.14 -0.09 -0.29 -0.11 -0.48 -0.07 c -0.2 0.33 -0.1 0.55 -0.1 1.06 c 0.19 0 0.45 0.02 0.59 -0.07 c 0.03 -0.04 0.09 -0.07 0.16 -0.07 c 0.17 0 0.15 0.15 -0.05 0.29 c -0.26 0.12 -0.5 0.19 -0.7 0.14"/><path d="m 11.21 9.86 c -0.11 -0.5 -0.09 -1 -0.03 -1.51 l 0.22 -0.03 c 0.36 -0.04 0.55 0 0.74 0.16 c 0.15 0.13 0.16 0.15 0.16 0.34 c 0 0.17 -0.02 0.21 -0.12 0.32 c -0.15 0.14 -0.33 0.21 -0.56 0.21 h -0.18 v 0.2 c 0 0.29 -0.08 0.39 -0.23 0.31 m 0.73 -0.83 c 0.09 -0.15 0.05 -0.26 0.01 -0.43 c -0.15 -0.05 -0.32 -0.07 -0.45 0 c -0.09 0.08 -0.09 0.36 0 0.43 c 0.08 0.08 0.35 0.07 0.44 0"/><path d="m 13 9.89 c -0.48 -0.14 -0.47 -0.31 -0.46 -0.78 c 0.01 -0.66 0.03 -0.75 0.16 -0.75 c 0.28 -0.04 0.14 0.6 0.19 1.04 c 0.02 0.21 -0.01 0.25 0.2 0.25 c 0.31 0 0.32 -0.02 0.34 -0.72 c 0.05 -0.18 -0.13 -0.66 0.13 -0.6 c 0.06 0.01 0.12 0.04 0.14 0.05 c 0.02 0.02 0.05 0.3 0.06 0.62 c 0.04 0.37 0.09 0.54 -0.18 0.77 c -0.23 0.18 -0.29 0.2 -0.57 0.12"/><path d="m 7.84 12.86 c 0.03 -0.16 0.09 -0.17 0.28 -0.04 c 0.26 0.18 1.16 1.18 1.14 1.24 c -0.51 0.1 -0.76 -0.02 -1.39 -0.01 c -0.04 -0.38 -0.09 -0.81 -0.02 -1.2"/></svg>