<svg xmlns="http://www.w3.org/2000/svg" viewBox="0 0 22 22"><path d="m 2.89 5.27 c -7.87 8.37 2.91 18.1 13.67 16.56 c 8 -1.11 7.15 -23.2 -4.48 -21.73 c -3.45 0.44 -6.63 2.43 -9.19 5.16" style="fill:#d2d2d2"/><path d="m 6.13 17.82 c -0.21 -0.09 -0.45 -0.32 -0.52 -0.52 c -0.11 -0.27 -0.03 -0.29 0.86 -0.29 c 0.89 0 0.96 0.03 0.86 0.29 c -0.18 0.46 -0.75 0.71 -1.19 0.52 m 2.41 -0.03 c -0.48 -0.24 -0.83 -0.84 -0.75 -1.28 c 0.05 -0.27 0.14 -0.46 0.23 -0.46 c 0.04 0 0.32 0.29 0.63 0.64 c 0.3 0.36 0.57 0.66 0.6 0.68 c 0.03 0.02 0.21 0.04 0.4 0.04 c 0.36 0 0.46 0.06 0.34 0.2 c -0.24 0.27 -1.05 0.37 -1.45 0.17 m 3.11 0 c -0.23 -0.12 -0.35 -0.24 -0.3 -0.32 c 0.02 -0.03 0.36 -0.05 0.89 -0.05 c 0.87 0 1 0.03 0.85 0.2 c -0.24 0.27 -1.05 0.37 -1.44 0.18 m 3.11 0 c -0.23 -0.12 -0.35 -0.24 -0.3 -0.32 c 0.02 -0.03 0.3 -0.05 0.72 -0.05 c 0.64 0 0.69 -0.01 0.72 -0.11 c 0.05 -0.15 -0.06 -0.33 -0.66 -1.04 c -0.33 -0.39 -0.53 -0.67 -0.51 -0.71 c 0.04 -0.11 0.46 -0.2 0.77 -0.17 c 0.52 0.06 0.95 0.39 1.13 0.87 c 0.1 0.28 0.11 0.41 0.02 0.72 c -0.07 0.28 -0.42 0.67 -0.72 0.82 c -0.29 0.14 -0.89 0.14 -1.17 0 m 2.4 -0.38 c -0.1 -0.1 -0.09 -1.96 0.01 -2.04 c 0.3 -0.08 0.52 -0.04 0.84 -0.03 c 0.12 0.79 0.38 1.27 0.61 2.08 c -0.05 0.08 -1.38 0.07 -1.46 -0.01 m -7.71 -0.4 c -0.12 -0.07 -1.13 -1.3 -1.11 -1.36 c 0.05 -0.14 0.41 -0.26 0.79 -0.26 c 0.63 0 1.08 0.31 1.28 0.88 c 0.1 0.29 0.08 0.66 -0.04 0.73 c -0.09 0.05 -0.83 0.06 -0.91 0.01 m 1.54 -0.01 c -0.18 -0.11 -0.09 -0.88 0.13 -1.05 c 0.12 -0.09 0.2 -0.03 0.6 0.45 c 0.52 0.62 0.51 0.65 -0.14 0.65 c -0.29 0 -0.55 -0.02 -0.59 -0.05 m 1.76 -0.02 c -0.21 -0.16 -1.16 -1.36 -1.14 -1.43 c 0.04 -0.11 0.46 -0.2 0.77 -0.17 c 0.54 0.06 0.96 0.39 1.13 0.89 c 0.1 0.29 0.08 0.66 -0.04 0.73 c -0.11 0.07 -0.63 0.05 -0.72 -0.02 m 1.35 0.02 c -0.18 -0.11 -0.09 -0.88 0.13 -1.05 c 0.12 -0.09 0.2 -0.03 0.6 0.45 c 0.52 0.62 0.51 0.65 -0.14 0.65 c -0.28 0 -0.54 -0.02 -0.59 -0.05 m -7.89 -0.46 c 0 -0.07 0.95 -0.79 1.32 -0.98 c 0.15 -0.08 0.16 0.09 0.03 0.36 c -0.07 0.15 -0.15 0.35 -0.17 0.45 c -0.02 0.1 -0.06 0.2 -0.1 0.22 c -0.04 0.02 -0.29 0.04 -0.57 0.04 c -0.45 0 -0.52 -0.01 -0.51 -0.09 m -0.63 -0.26 c -0.07 -0.07 -0.04 -0.84 0.04 -0.91 c 0.11 -0.08 1.26 -0.05 1.29 0.04 c 0.02 0.06 -1.13 0.9 -1.24 0.91 c -0.03 0 -0.08 -0.02 -0.1 -0.03 m 0.03 -1.4 c -0.09 -0.09 -0.09 -2.36 0 -2.45 c 0.04 -0.04 0.13 -0.06 0.2 -0.06 c 0.25 -0.32 0.13 -0.61 0.13 -1.15 c -0.2 -0.01 -0.39 -0.02 -0.58 -0.03 c 0 -0.18 0 -0.35 0 -0.53 h 4.44 c 0 0.18 0 0.35 0 0.53 c -0.2 0.01 -0.39 0.02 -0.58 0.03 v 0.57 c 0 0.57 0 0.58 0.13 0.58 c 0.07 0 0.16 0.03 0.19 0.06 c 0.09 0.09 0.09 2.36 0 2.45 c -0.09 0.09 -3.82 0.09 -3.92 0 m 1.21 -3.67 h -0.28 c 0 0.38 0 0.77 0 1.16 h 0.28 c 0 -0.39 0 -0.77 0 -1.16 m 1.77 0 c -0.39 0 -0.78 0 -1.16 0 c 0 0.38 0 0.77 0 1.16 c 0.39 0 0.78 0 1.16 0 c 0 -0.39 0 -0.77 0 -1.16 m 1.46 3.67 c -0.09 -0.09 -0.09 -0.7 0.01 -0.77 c 0.05 -0.04 1.06 -0.06 3.43 -0.07 l 3.35 -0.01 v -0.32 l -3.35 -0.01 c -2.37 -0.01 -3.38 -0.03 -3.43 -0.07 c -0.09 -0.07 -0.1 -0.68 -0.01 -0.77 c 0.05 -0.05 1 -0.06 3.96 -0.06 c 3.69 0 3.9 0 4.08 0.1 c 0.63 0.32 0.63 1.64 0 1.96 c -0.18 0.09 -0.39 0.1 -4.08 0.1 c -2.95 0 -3.91 -0.02 -3.96 -0.07 m 3.11 -2.52 c -0.07 -0.07 -0.09 -0.45 -0.02 -0.55 c 0.06 -0.09 0.37 -0.17 0.65 -0.17 c 0.27 0 0.59 0.08 0.64 0.17 c 0.07 0.1 0.05 0.48 -0.02 0.55 c -0.42 0.07 -0.82 0.14 -1.25 0 m 2.66 0 c -0.09 -0.39 -0.08 -0.7 -0.09 -1.12 l -0.2 -0.02 c -0.19 -0.03 -0.19 -0.03 -0.19 -0.29 v -0.27 c 0.74 0 1.48 0 2.22 0 v 0.27 c 0 0.26 0 0.26 -0.2 0.29 l -0.19 0.02 c -0.03 0.37 0.01 0.77 -0.09 1.12 c -0.41 0.07 -0.65 0.03 -1.26 0 m -0.05 -2.23 c -0.13 -0.07 -0.44 -0.33 -0.53 -0.44 c -0.09 -0.11 -0.21 -0.2 -0.27 -0.2 c -0.46 0 -1.06 -0.4 -1.33 -0.87 c -0.12 -0.22 -0.17 -0.26 -0.29 -0.25 c -0.63 0.07 -1.63 0.07 -2 -0.01 c -0.73 -0.14 -1.44 -0.45 -1.96 -0.86 c -0.27 -0.21 -0.68 -0.73 -0.79 -1.01 c -0.1 -0.24 -0.12 -0.25 -0.43 -0.2 c -0.68 0.11 -1.65 0.37 -2.24 0.09 c -0.49 -0.23 -0.76 -1.13 -0.75 -1.41 c -0.68 -0.16 -0.94 -0.93 -0.68 -1.28 c 1.04 -3.05 4 -4.05 7.36 -3.5 c 2.7 1.36 4.48 2.39 4.36 5.2 c 0.06 0.21 0.03 0.77 -0.14 1.13 l -0.15 0.3 l 0.27 0.25 c 0.35 0.32 0.47 0.57 0.5 1 c 0.02 0.34 0.03 0.36 0.24 0.49 c 0.59 0.37 0.58 1 -0.02 1.38 c -0.32 0.2 -0.79 0.35 -1.14 0.18"/></svg>