<svg xmlns="http://www.w3.org/2000/svg" viewBox="0 0 22 22"><path d="m 0.14 13.51 c 0.95 8.88 12.96 11.26 18.6 4.92 c 4.93 -4.71 4.18 -13.73 -1.45 -16.82 c -6.44 -4.13 -16.35 0.98 -17.26 9.21 c -0.1 0.9 -0.06 1.81 0.11 2.69" style="fill:#105331"/><g style="fill:#fff"><path d="m 11.16 16.2 l -0.62 -0.03 c -0.34 -0.02 -1.67 -0.04 -2.96 -0.04 h -2.35 v -4.43 l -0.15 -0.15 c -0.24 -0.23 -0.6 -0.73 -0.77 -1.06 c -0.71 -1.43 -0.25 -3.21 1.06 -4.09 c 0.46 -0.31 0.78 -0.43 1.32 -0.5 c 0.98 -0.12 1.75 0.13 2.55 0.84 l 0.44 0.39 h 7.39 v 9.1 l -1.45 -0.03 c -0.8 -0.02 -1.85 -0.01 -2.34 0.01 l -0.88 0.04 c -0.08 0.37 -0.48 0.57 -0.68 0.69 c -0.2 -0.24 -0.36 -0.45 -0.55 -0.7 m -0.58 -0.61 c 0.04 -0.01 0.06 -0.07 0.06 -0.12 c 0 -0.14 -1.87 -2.96 -2.09 -3.16 c -0.21 -0.18 -0.23 -0.19 -0.69 -0.09 c -0.43 0.09 -1.16 0.09 -1.54 0 c -0.5 -0.12 -0.56 -0.11 -0.6 0.12 c -0.04 0.25 -0.04 2.67 0 3 l 0.04 0.27 l 1.09 0.01 c 1.24 0.02 3.64 -0.01 3.74 -0.04 m 5.82 -0.02 c 0.05 -0.04 0.08 -0.7 0.12 -3.21 c 0.06 -3.76 0.05 -4.66 -0.05 -4.72 c -0.09 -0.06 -3.85 -0.07 -5.4 -0.02 l -1.02 0.04 v 0.13 c 0.25 0.85 0.25 1.6 0.05 2.3 c -0.09 0.29 -0.45 0.92 -0.78 1.35 c -0.05 0.06 0.16 0.4 1.61 2.64 c 0.52 0.8 0.98 1.47 1.03 1.49 c 0.13 0.05 4.38 0.05 4.45 0 m -8.62 -3.87 c 0.45 -0.12 0.77 -0.32 1.16 -0.72 c 0.59 -0.61 0.79 -1.09 0.79 -1.99 c 0 -0.77 -0.24 -1.32 -0.8 -1.9 c -0.55 -0.56 -1.08 -0.75 -1.98 -0.73 c -0.57 0.02 -0.61 0.02 -0.99 0.21 c -0.8 0.4 -1.38 1.19 -1.5 2.03 c -0.06 0.43 -0.02 0.98 0.09 1.33 c 0.27 0.8 1.16 1.64 1.9 1.79 c 0.44 0.03 0.91 0.08 1.33 -0.02"/><path d="m 7.87 15.29 c -0.02 -0.02 -0.03 -0.07 -0.03 -0.11 c -0.07 -0.23 -0.27 -0.39 -0.35 -0.63 c -0.09 -0.25 -0.3 -0.14 -0.41 0 c -0.13 0.18 -0.2 0.18 -0.32 0.02 c -0.13 -0.29 -0.09 -0.45 -0.09 -0.76 l -0.22 -0.08 c -0.25 -0.09 -0.25 -0.11 -0.16 -0.26 c 0.08 -0.13 0.15 -0.16 0.37 -0.16 c 0.83 -0.11 0.41 -0.64 0.63 -0.76 c 0.09 -0.05 0.13 -0.05 0.25 -0.02 c 0.08 0.03 0.21 0.07 0.29 0.09 c 0.27 0.14 0.4 0.3 0.55 0.54 c -0.96 -0.33 -0.89 0.22 -0.55 0.75 c 0.16 0.23 0.2 0.25 0.66 0.2 c 0.55 -0.07 0.42 -0.29 0.71 0.04 c 0.14 0.17 0.32 0.4 0.4 0.51 c 0.12 0.18 0.13 0.21 0.05 0.18 c -0.2 -0.07 -0.5 -0.07 -0.75 -0.01 c -0.38 0.03 -0.52 0.48 -0.87 0.48 c -0.07 0 -0.14 -0.01 -0.16 -0.02"/><path d="m 11.75 12.73 c -0.27 -0.2 -0.4 -0.27 -0.7 -0.38 c -0.09 -0.03 -1.11 -0.91 -1 -1.07 c 0.2 -0.77 0.93 0.53 1.36 -0.05 c 0.13 -0.12 0.32 -0.23 0.42 -0.25 c 0.34 -0.13 0.23 -0.55 -0.06 -0.59 c -0.12 -0.02 -0.15 -0.04 -0.13 -0.11 c 0.07 -0.23 0.16 -0.63 0.18 -0.83 c 0.02 -0.12 -0.88 -0.5 -0.8 -0.59 c -0.53 -0.99 0.34 -0.65 4 -0.63 l 1.05 0.04 v 2.11 c -0.43 -1.36 -0.92 -0.5 -0.31 0.59 c -0.34 1.25 -1.25 -0.46 -1.35 0.46 c -0.07 0.71 -0.05 1.75 -0.34 1.75 c -0.21 0 -0.5 -1.08 -0.62 -1.37 c -0.11 -0.25 -0.31 -0.36 -0.48 -0.25 c -0.19 0.12 -0.73 0.84 -0.77 1.01 c -0.06 0.29 0.04 1.08 -0.01 1.09 c -0.82 0.04 -0.3 -0.8 -0.46 -0.93 m 2.47 -2.4 c 0.03 -1 -0.95 -0.84 -1.51 0.16 c -0.41 0.27 0.75 0.66 1.13 0.26"/><path d="m 9.45 9.46 c -0.02 0.02 -0.08 0.04 -0.14 0.04 c -0.29 0.08 -0.48 0.3 -0.78 0.39 c -0.26 0.73 0.31 0.91 -0.91 0.9 l -0.11 0.25 c -0.11 0.27 -0.63 0.39 -0.84 0.3 c -1.73 -0.72 0.32 -0.29 0.32 -0.54 c -0.13 -0.92 -0.79 -0.46 -0.94 -0.7 c -0.07 -0.11 -0.07 -0.15 -0.02 -0.28 c 2.36 0.32 1.2 -1 1.99 -1.51 c 0.45 -0.32 0.78 -0.31 0.86 0 c 0.03 0.42 0.59 0.59 0.6 0.96 c 0 0.08 -0.02 0.16 -0.03 0.18"/><path d="m 15.86 15.1 c -0.02 0 -0.08 -0.02 -0.13 -0.04 c -0.29 -0.09 -0.52 -0.05 -0.81 -0.14 c -0.45 0.3 0 0.66 -1.09 0.09 l -0.16 0.1 c -0.18 0.1 -1.1 0.19 -1.24 0.03 c -0.11 -0.12 0.77 -0.27 0.84 -0.41 c 0.17 -0.59 -0.56 -0.63 -0.62 -0.84 c -0.03 -0.09 -0.02 -0.12 0.07 -0.17 c 1.23 1.11 2 -0.95 2.1 0.19 c 0.5 0.03 1.28 -2.33 1.26 -2.11 c -0.1 0.26 -0.04 3 -0.14 3.23 c -0.02 0.04 -0.06 0.09 -0.08 0.09"/></g></svg>