<svg xmlns="http://www.w3.org/2000/svg" xmlns:xlink="http://www.w3.org/1999/xlink" viewBox="0 0 22 22"><defs><g id="1" style="clip-path:url(#0)"><path d="m 10.89 5 l -6.25 5.83 c -0.23 0.22 -0.27 0.55 -0.08 0.75 l 5.96 6 c 0.19 0.19 0.54 0.17 0.77 -0.05 l 6.25 -5.83 c 0.23 -0.22 0.27 -0.55 0.08 -0.74 l -5.97 -6 c -0.19 -0.19 -0.54 -0.17 -0.77 0.05" style="fill:#ee6708"/></g><clipPath id="0"><path d="M 0,0 H22 V22 H0 z"/></clipPath></defs><path d="m 16.42 19.54 c -5.08 5 -9.77 1.34 -13.62 -2.65 c -3.14 -3.25 -3.28 -6.27 -1.2 -9.47 c 5.43 -8.36 12.48 -11.45 19.87 1.5 c 1.82 4.27 -2.02 8.25 -5 10.61" style="fill:#ffd2bf"/><use xlink:href="#1"/><path d="m 16 12.84 c 0.61 -0.61 1.13 -1.16 1.16 -1.23 c 0.08 -0.16 0.09 -0.48 0 -0.64 c -0.06 -0.12 -4.66 -4.76 -4.72 -4.76 c -0.02 0 -0.05 0.04 -0.09 0.09 c -0.14 0.15 0.2 0.39 0.46 0.68 c -0.11 0.18 -0.24 0.62 -0.42 0.59 c -0.23 -0.03 -0.43 -0.03 -0.67 -0.04 c -0.07 0.23 -0.14 0.49 -0.18 0.71 c 0.23 0.11 0.47 0.21 0.7 0.32 c -0.02 0.22 -0.02 0.43 -0.05 0.65 c -0.24 0.13 -0.45 0.17 -0.72 0.25 c 0.02 0.23 -0.03 0.56 0.11 0.73 c 0.03 0.02 0.18 0.03 0.33 0.04 c 0.41 0 0.42 0 0.52 0.31 c 0.05 0.14 0.09 0.29 0.1 0.3 c -0.17 0.22 -0.35 0.35 -0.58 0.55 l 0.13 0.25 c 0.23 0.43 0.18 0.4 0.61 0.26 l 0.38 -0.12 c 0.14 0.16 0.3 0.31 0.41 0.49 c -0.1 0.26 -0.2 0.45 -0.33 0.71 c 0.18 0.14 0.37 0.3 0.57 0.42 c 0.21 -0.13 0.36 -0.27 0.55 -0.44 c 0.27 -0.02 0.38 0.09 0.65 0.23 c 0 0 -0.01 0.17 -0.02 0.38 c -0.02 0.21 -0.02 0.38 -0.02 0.38 c 0 0 0.5 -0.49 1.11 -1.1" style="fill:#ffd070"/><path d="m 10.15 16.74 c 0.14 -0.2 0.29 -0.31 0.48 -0.48 c 0.23 0.09 0.56 0.34 0.76 0.29 c 0.14 -0.18 0.26 -0.33 0.4 -0.53 c -0.14 -0.15 -0.29 -0.3 -0.43 -0.46 c -0.21 -0.19 0.09 -0.52 0.18 -0.71 c 0.28 0 0.5 0.04 0.79 0.04 c 0.01 -0.01 0.19 -0.65 0.19 -0.69 c -0.24 -0.14 -0.44 -0.22 -0.71 -0.35 c 0.03 -0.23 0.05 -0.48 0.05 -0.68 c 0.24 -0.09 0.56 -0.14 0.74 -0.29 c -0.01 -0.25 -0.04 -0.44 -0.08 -0.69 c -0.22 -0.01 -0.45 0.01 -0.67 -0.02 c -0.26 -0.15 -0.23 -0.31 -0.33 -0.63 c 0.2 -0.18 0.42 -0.38 0.59 -0.52 c -0.12 -0.2 -0.23 -0.41 -0.36 -0.61 c -0.27 0.03 -0.55 0.24 -0.81 0.18 c -0.14 -0.15 -0.25 -0.28 -0.4 -0.44 c 0.1 -0.23 0.31 -0.52 0.3 -0.74 c -0.08 -0.09 -0.47 -0.38 -0.52 -0.38 c -0.23 0.15 -0.38 0.3 -0.6 0.49 c -0.2 -0.09 -0.39 -0.19 -0.59 -0.29 c 0.01 -0.25 0.07 -0.63 -0.02 -0.81 c -0.22 -0.07 -0.62 -0.17 -0.63 -0.16 c -0.13 0.25 -0.22 0.44 -0.36 0.71 c -0.24 -0.05 -0.64 -0.02 -0.71 -0.19 l -0.05 -0.14 l -1.01 0.92 c -0.87 0.79 -1.37 1.18 -1.43 1.31 c -0.12 0.27 0.03 0.43 0.29 0.15 c 1.2 -1.25 3.08 -1.29 4.42 -0.18 c 0.43 0.36 0.83 1 0.99 1.61 c 0.1 0.36 0.12 1.1 0.04 1.45 c -0.16 0.73 -0.61 1.44 -1.15 1.84 c -0.13 0.09 -0.21 0.23 -0.21 0.24 c 0.3 0.29 0.55 0.56 0.84 0.76" style="fill:#f8f8ff"/></svg>