<svg xmlns="http://www.w3.org/2000/svg" viewBox="0 0 22 22"><path d="m 5.18 2.4 c 10.94 -7.8 22.37 6.61 13.49 15.8 c -8.36 8.66 -21.68 0.63 -17.71 -10.15 c 0.83 -2.25 2.21 -4.22 4.22 -5.65" style="fill:#008b8b"/><path d="m 6.9 5.35 h 8.1 c 0.52 0 0.95 0.37 0.95 0.83 v 10.16 c 0 0.46 -0.42 0.83 -0.95 0.83 h -8.1 c -0.52 0 -0.94 -0.38 -0.94 -0.83 v -10.16 c 0 -0.46 0.42 -0.83 0.94 -0.83" style="fill:#fff"/><g style="fill:#d4d4d0"><path d="m 5.42 13.22 h 1.61 v 0.54 h -1.61"/><path d="m 7.5 13.66 c -0.18 -0.06 -0.29 -0.19 -0.29 -0.35 c 0 -0.28 0.01 -0.3 0.48 -0.74 c 0.75 -0.71 0.94 -0.82 1.18 -0.75 c 0.18 0.05 0.28 0.18 0.3 0.37 c 0.02 0.27 -0.04 0.36 -0.67 0.92 c -0.31 0.27 -0.59 0.51 -0.62 0.52 c -0.11 0.06 -0.25 0.07 -0.38 0.03"/></g><path d="m 15.18 9.73 c 0 2.16 -1.72 3.91 -3.84 3.91 c -2.12 0 -3.84 -1.75 -3.84 -3.91 c 0 -2.16 1.72 -3.91 3.84 -3.91 c 2.12 0 3.84 1.75 3.84 3.91" style="fill:#37a675"/><path d="m 14.73 9.73 c 0 1.81 -1.5 3.28 -3.35 3.28 c -1.85 0 -3.35 -1.47 -3.35 -3.28 c 0 -1.81 1.5 -3.28 3.35 -3.28 c 1.85 0 3.35 1.47 3.35 3.28" style="fill:#fff"/><g style="fill:#403e46"><path d="m 9.39 10.73 c -0.23 -0.09 -0.35 -0.23 -0.41 -0.43 c -0.06 -0.24 -0.06 -1.38 0.01 -1.46 c 0.03 -0.04 0.13 -0.06 0.22 -0.06 c 0.22 0 0.26 0.09 0.27 0.62 c 0 0.57 0.05 0.79 0.15 0.81 c 0.05 0.01 0.1 -0.01 0.12 -0.04 c 0.02 -0.03 0.05 -0.33 0.07 -0.66 c 0.02 -0.34 0.05 -0.64 0.08 -0.67 c 0.02 -0.03 0.12 -0.06 0.22 -0.06 c 0.23 0 0.26 0.09 0.26 0.82 c 0 0.73 -0.07 0.93 -0.4 1.1 c -0.23 0.12 -0.36 0.13 -0.58 0.03"/><path d="m 10.87 10.77 c -0.04 -0.02 -0.08 -0.05 -0.1 -0.08 c -0.02 -0.03 -0.04 -0.45 -0.04 -0.93 c 0 -0.72 0.01 -0.89 0.07 -0.94 c 0.04 -0.04 0.2 -0.05 0.49 -0.04 c 0.49 0.02 0.61 0.08 0.77 0.4 c 0.08 0.16 0.1 0.27 0.1 0.61 c 0 0.48 -0.11 0.75 -0.35 0.89 c -0.15 0.09 -0.81 0.15 -0.95 0.09 m 0.64 -0.58 c 0.05 -0.05 0.16 -0.09 0.13 -0.47 c -0.04 -0.38 -0.08 -0.38 -0.2 -0.39 c -0.11 -0.01 -0.12 0 -0.15 0.24 c -0.03 0.23 0 0.57 0.05 0.66 c 0.03 0.05 0.09 0.04 0.17 -0.04"/><path d="m 12.59 10.73 c -0.06 -0.06 -0.07 -0.21 -0.07 -0.96 c 0 -0.63 0.02 -0.9 0.05 -0.94 c 0.07 -0.08 0.76 -0.07 0.95 0.01 c 0.21 0.09 0.39 0.34 0.42 0.58 c 0.02 0.15 0 0.23 -0.09 0.35 c -0.13 0.2 -0.36 0.35 -0.57 0.39 c -0.2 0.04 -0.23 0.08 -0.23 0.32 c 0 0.22 -0.09 0.33 -0.27 0.33 c -0.07 0 -0.16 -0.03 -0.2 -0.07 m 0.82 -1.2 c 0.08 -0.1 -0.01 -0.28 -0.24 -0.3 c -0.36 -0.03 -0.23 0.2 -0.24 0.43 c 0.2 -0.01 0.28 0.07 0.48 -0.13"/><path d="m 4.9 16.52 c -0.37 -0.13 -0.6 -0.4 -0.6 -0.74 c 0 -0.59 0.03 -0.64 0.98 -1.57 c 1.54 -1.5 1.92 -1.76 2.42 -1.6 c 0.36 0.12 0.57 0.39 0.61 0.78 c 0.05 0.58 -0.08 0.76 -1.38 1.95 c -0.64 0.58 -1.21 1.08 -1.27 1.11 c -0.22 0.13 -0.52 0.15 -0.76 0.07"/></g><g style="fill:#d4d4d0"><path d="m 5.43 8.1 h 1.61 v 0.54 h -1.61"/><path d="m 5.46 9.1 h 1.61 v 0.54 h -1.61"/><path d="m 5.42 10 h 1.61 v 0.54 h -1.61"/><path d="m 5.45 11.1 h 1.61 v 0.54 h -1.61"/><path d="m 5.42 12.18 h 1.61 v 0.54 h -1.61"/><path d="m 5.43 6.94 h 1.61 v 0.54 h -1.61"/></g></svg>