<svg xmlns="http://www.w3.org/2000/svg" viewBox="0 0 22 22"><path d="m 13.29 21.58 c 11.22 -1.69 11.55 -18.46 0.65 -21 c -8.83 -2.61 -16 6.84 -13.15 13.91 c 1.37 4.73 6.96 8.56 12.51 7.09" style="fill:#f8f8ff"/><path d="m 7.91 16.83 c -0.53 -0.05 -1.23 -0.16 -2.36 -0.38 c -0.68 -0.13 -1.3 -0.22 -1.41 -0.21 c -0.14 0.02 -0.2 -0.01 -0.26 -0.1 c -0.19 -0.3 -0.81 -1.34 -0.81 -1.38 c 0 -0.02 0.62 0.14 1.38 0.36 c 2.25 0.64 2.71 0.75 3.42 0.79 c 1.14 0.06 1.87 -0.18 2.45 -0.82 c 0.33 -0.36 0.94 -1.29 0.88 -1.35 c -0.02 -0.02 -0.28 0.17 -0.58 0.41 c -0.66 0.54 -1.17 0.84 -1.71 1.03 c -0.36 0.12 -0.51 0.14 -1.28 0.14 c -0.99 0 -1.25 -0.05 -2.77 -0.51 c -0.8 -0.24 -1.04 -0.3 -1.44 -0.3 h -0.48 l -0.12 -0.31 c -0.39 -1.04 -0.55 -2.07 -0.5 -3.27 c 0.03 -0.9 0.21 -1.98 0.4 -2.45 l 0.08 -0.2 c 0.24 0.34 0.63 0.62 0.79 1 c 0.18 0.6 0.16 1.23 0.44 1.8 c 0.2 0.39 0.77 0.97 1.2 1.23 c 1.2 0.72 3 0.7 3.86 -0.06 c 0.33 -0.22 0.27 -0.4 0.25 -0.77 c -0.02 -0.65 -0.14 -0.93 -0.73 -1.75 c -0.49 -0.68 -0.64 -0.98 -0.69 -1.36 c -0.09 -0.75 0.42 -1.44 1.31 -1.78 c 0.49 -0.19 1.46 -0.18 2.59 0.03 c 1.14 0.21 1.5 0.19 2.55 -0.16 c 1 -0.34 1.55 -0.45 2.71 -0.53 l 0.96 -0.07 l 0.23 0.29 c 0.45 0.57 1.17 1.95 1.3 2.51 l 0.04 0.17 l -0.27 -0.16 c -0.57 -0.33 -1.43 -0.74 -1.71 -0.8 c -0.23 -0.05 -0.41 -0.05 -0.77 0 c -1 0.14 -1.52 0.68 -1.52 1.55 c 0 0.42 0.07 0.64 0.28 0.86 c 0.17 0.18 0.43 0.25 1.27 0.34 c 0.88 0.09 1.2 0.15 2.2 0.39 l 0.91 0.22 v 0.17 c 0 0.17 -0.22 1.79 -0.25 1.82 c -0.01 0.01 -0.32 -0.18 -0.71 -0.42 c -0.83 -0.52 -1.04 -0.59 -1.84 -0.63 c -1.14 -0.06 -2.22 -0.32 -2.85 -0.68 c -0.17 -0.1 -0.55 -0.41 -0.84 -0.69 c -0.66 -0.64 -0.75 -0.69 -0.91 -0.52 c -0.15 0.15 -0.13 0.3 0.19 1.02 c 0.17 0.38 0.24 0.63 0.26 0.91 c 0.05 0.64 -0.11 0.94 -1.11 2.04 c -0.34 0.37 -0.74 0.89 -0.91 1.16 c -0.16 0.27 -0.41 0.6 -0.55 0.73 c -0.85 0.58 -1.81 0.75 -2.61 0.68" style="fill:#2679af"/><path d="m 9.8 20.39 c -0.39 -0.06 -1.42 -0.34 -1.89 -0.5 c -2.29 -0.81 -4.31 -2.6 -5.37 -4.77 c -0.62 -1.27 -0.88 -2.4 -0.88 -3.88 c 0 -1.55 0.27 -2.69 0.98 -4.07 c 0.73 -1.44 2.15 -2.93 3.59 -3.79 c 2.11 -1.27 4.65 -1.64 7.19 -1.07 c 2.56 0.58 5 2.57 6.29 5 c 0.58 1.16 0.88 2.48 0.88 3.9 c 0 1.48 -0.28 2.7 -0.91 3.95 c -0.48 0.98 -1.05 1.72 -1.98 2.62 c -1.29 1.25 -2.73 2 -4.62 2.45 c -1.31 0.09 -2.32 0.25 -3.29 0.13 m 2.09 -0.52 c 1.49 -0.09 3.06 -0.63 4.24 -1.44 c 1.57 -1.08 2.81 -2.61 3.39 -4.15 c 0.29 -0.76 0.56 -2.53 0.55 -3.54 c -0.01 -0.86 -0.43 -2.28 -0.99 -3.39 c -0.68 -1.32 -1.67 -2.42 -2.93 -3.27 c -0.93 -0.63 -1.75 -0.98 -3 -1.3 c -1.32 -0.19 -2.06 -0.32 -3.52 -0.09 c -1.09 0.18 -2.34 0.66 -3.29 1.27 c -1.39 0.89 -2.94 2.66 -3.39 3.88 c -0.47 1.26 -0.68 2.48 -0.63 3.68 c 0.06 1.62 0.51 3.04 1.36 4.33 c 0.77 1.23 1.93 2.32 3.16 3 c 1.26 0.68 3.06 1.15 4.19 1.09 c 0.31 -0.02 0.62 -0.04 0.9 -0.05" style="fill:#282526"/><g style="fill:#2f5269"><path d="m 10.8 12.62 c 0.26 -0.39 0.37 -0.68 0.37 -0.98 c 0 -0.59 -0.3 -1.12 -1.21 -2.18 c -0.29 -0.34 -0.57 -0.7 -0.63 -0.81 c -0.19 -0.4 0.05 -0.65 0.75 -0.77 c 0.54 -0.09 0.9 -0.04 1.56 0.21 c 0.46 0.18 0.64 0.22 1.13 0.24 c 0.77 0.04 0.93 -0.02 1.31 -0.46 c 0.31 -0.36 0.49 -0.43 0.63 -0.26 c 0.08 0.1 0.07 0.18 -0.2 0.86 c -0.25 0.5 -0.21 0.93 0.29 1.2 c 0.42 0.26 0.46 0.75 0.87 0.96 c 0.19 0.1 1.68 0.37 2.26 0.41 c 0.3 0.02 0.06 0.14 -0.66 0.18 c -1.01 0.05 -1.97 -0.06 -2.39 -0.29 c -0.16 -0.09 -0.63 -0.48 -1.04 -0.87 c -1.11 -1.05 -1.35 -1.18 -1.81 -0.99 c -0.53 0.23 -0.6 0.57 -0.34 1.69 c 0.21 0.91 0.23 1.32 0.08 1.46 c -0.12 0.11 -0.92 0.85 -0.99 0.86 c -0.03 0 -0.04 -0.36 0.02 -0.45"/><path d="m 6.37 14.67 c -0.63 -0.13 -1.15 -0.42 -1.89 -1.04 c -0.48 -0.46 -1.1 -0.75 -1.66 -1.03 c -0.37 -0.19 -0.41 -0.23 -0.46 -0.44 c -0.02 -1.14 -0.07 -2.34 0.3 -3.43 c 0.07 -0.07 0.46 0.3 0.58 0.56 c 0.28 0.64 0.24 1.3 0.54 1.95 c 0.19 0.4 0.98 1.16 1.48 1.42 c 1.07 0.56 1.92 0.63 3.09 0.26 c 0.25 -0.08 0.47 -0.13 0.48 -0.12 c -0.08 0.27 -0.44 0.48 -0.46 0.78 c 0 0.25 0.52 0.31 1.02 0.13 c 0.16 -0.06 0.66 -0.2 0.73 -0.22 c 0.27 -0.1 0.18 0.31 -1.36 0.94 c -0.67 0.27 -1.54 0.41 -2.4 0.23"/><path d="m 16.91 6.7 l -0.91 0.05 c 0.36 -0.39 1.47 -0.44 1.86 -0.38 c 0.41 0.06 0.51 0.06 0.53 0 c 0.26 0.15 0.48 0.59 0.58 0.89 c -1.06 -0.49 -1.11 -0.61 -2.05 -0.57"/></g></svg>