<svg xmlns="http://www.w3.org/2000/svg" viewBox="0 0 22 22"><path d="m 21.94 11.26 c -0.71 3.66 -3.48 7.25 -7.1 9.2 c -3 1.63 -6 1.93 -8.6 0.9 c -1.96 -0.78 -3.79 -2.61 -4.91 -4.91 c -1.19 -2.45 -1.46 -4.75 -0.85 -7.15 c 1.52 -5.92 9.47 -10.41 15.57 -8.79 c 2.98 0.79 5 3 5.75 6.34 c 0.12 1.45 0.38 2.98 0.13 4.41" style="fill:#9370db"/><g style="fill:#fff"><path d="m 3.71 10.98 c 0.05 -0.12 0.28 -0.25 0.5 -0.27 c 0.11 0.38 0.09 0.79 0.16 1.21 c 0.61 -0.21 1.13 -0.39 2.05 -0.77 c 0.08 1.21 0.19 2.43 0.21 3.64 c -0.93 0.38 -1.66 0.67 -2.55 1.04 c -0.15 -1.69 -0.27 -3.05 -0.37 -4.86 m 2.43 2.89 c -0.03 -0.48 -0.02 -0.96 -0.08 -1.44 c -0.02 -0.02 -1.6 0.62 -1.66 0.67 c -0.07 0.06 0.02 1.42 0.09 1.42 c 0.56 -0.19 1.15 -0.45 1.65 -0.66"/><path d="m 6.9 10.98 c 0.81 -0.32 1.45 -0.6 2.41 -1 c 0.07 1.2 0.13 2.41 0.18 3.61 c -0.9 0.38 -1.59 0.67 -2.45 1.03 c -0.03 -1.35 -0.14 -2.58 -0.14 -3.64 m 2.14 1.69 c -0.04 -0.46 -0.01 -0.94 -0.1 -1.39 c -0.59 0.16 -0.98 0.35 -1.58 0.6 c 0.03 0.29 0.07 1.34 0.06 1.46 c 0.54 -0.21 1.07 -0.45 1.62 -0.68"/><path d="m 9.75 9.77 c 0.14 -0.06 0.29 -0.12 0.44 -0.16 c 0.05 0.33 0 0.62 0.06 0.95 c 0.29 -0.44 0.47 -0.8 0.74 -1.3 l 0.66 -0.27 c 0.76 -0.32 0.71 -0.35 0.72 0.4 v 0.46 c -0.41 0.18 -0.82 0.35 -1.24 0.52 c -0.27 0.49 -0.46 0.85 -0.73 1.34 c 0.02 0.52 0.05 1.14 0.07 1.66 c -0.13 0.05 -0.42 0.13 -0.55 0.17 c -0.08 -1.38 -0.1 -2.63 -0.18 -3.76"/><path d="m 12.89 9.96 l 1.12 -0.46 c 0.6 -0.24 1.03 -0.26 1.03 -0.59 c 0.02 -0.29 -0.04 -0.25 -1.01 0.14 c -0.77 0.32 -1.11 0.43 -1.14 0.38 c -0.05 -0.38 -0.04 -0.56 -0.04 -0.95 c 0.94 -0.37 1.59 -0.64 2.51 -1.02 c 0.1 1.27 0.11 2.51 0.21 3.75 c -0.84 0.34 -1.75 0.68 -2.59 1.02 c -0.07 -0.8 -0.07 -1.49 -0.09 -2.27 m 2.17 0.48 c 0.07 -0.03 0.05 -0.48 -0.01 -0.47 c -0.34 0.17 -1.65 0.58 -1.66 0.81 c -0.04 0.35 -0.21 0.56 0.75 0.04 c 0.44 -0.15 0.68 -0.24 0.93 -0.38"/><path d="m 15.91 7.22 c 0.13 -0.08 2.52 -1.03 2.54 -1.01 c 0.02 0.02 0.2 3.06 0.21 3.58 c 0.05 0.12 -0.2 0.27 -0.4 0.28 c -0.08 -1.04 -0.16 -1.55 -0.17 -2.56 c -0.02 -0.02 -0.53 0.18 -0.59 0.24 c 0 0.93 0.05 1.76 0.11 2.65 c -0.14 0.06 -0.29 0.13 -0.43 0.16 c -0.1 -0.91 -0.08 -1.49 -0.15 -2.59 c -0.23 0.05 -0.4 0.13 -0.63 0.22 c 0.04 0.98 0.08 1.74 0.13 2.67 c -0.14 0.05 -0.27 0.11 -0.41 0.16 c -0.12 -1.39 -0.13 -2.46 -0.2 -3.79"/></g></svg>