<svg xmlns="http://www.w3.org/2000/svg" viewBox="0 0 22 22"><path d="m 2.61 5.72 c -5 5.08 -1.34 9.77 2.65 13.62 c 3.25 3.14 6.27 3.28 9.47 1.2 c 8.35 -5.43 11.45 -12.48 -1.5 -19.87 c -4.27 -1.82 -8.25 2 -10.61 5" style="fill:#ef4f33"/><path d="m 10.55 4.73 c -0.23 0.17 -6 5.86 -6.25 6.15 c -0.14 0.18 -0.16 0.46 -0.02 0.62 c 0.05 0.07 1.03 1.05 2.18 2.18 l 2.08 2.06 c 0.48 -0.46 0.95 -0.93 1.43 -1.4 v -0.34 c 0 -0.41 0.09 -0.62 0.42 -0.93 l 0.23 -0.21 v -3.45 l -0.26 -0.25 c -0.93 -0.83 0.08 -2.26 1.12 -1.79 c 0.39 0.23 0.65 0.57 0.66 0.99 c 0 0.33 -0.09 0.53 -0.36 0.78 l -0.19 0.18 v 1.69 c 0 0.93 0.02 1.68 0.04 1.68 c 0.44 -0.38 0.75 -0.7 1.2 -1.14 c -0.01 -0.36 0.01 -0.78 0.17 -1 c 0.21 -0.29 0.55 -0.46 0.89 -0.46 c 0.34 0 0.56 0.1 0.8 0.36 c 0.36 0.39 0.4 0.9 0.09 1.31 c -0.21 0.29 -0.52 0.44 -0.94 0.45 h -0.34 c -0.46 0.45 -0.91 0.9 -1.36 1.35 v 0.32 c 0 0.39 -0.16 0.7 -0.48 0.93 c -0.18 0.13 -0.3 0.16 -0.63 0.19 l -0.41 0.03 c -0.46 0.46 -0.92 0.93 -1.38 1.39 c 0.51 0.45 0.95 0.98 1.49 1.41 c 0.16 0.13 0.45 0.12 0.63 -0.02 c 0.32 -0.25 6.14 -5.97 6.29 -6.18 c 0.18 -0.25 0.21 -0.55 0.07 -0.75 c -0.13 -0.18 -6 -5.98 -6.25 -6.16 c -0.29 -0.21 -0.57 -0.21 -0.88 0.03" style="fill:#fff"/></svg>