<svg xmlns="http://www.w3.org/2000/svg" viewBox="0 0 22 22"><path d="m 19.5 3.86 c 5.38 8.27 1.04 15.81 -5.1 17.6 c -8.2 2.41 -19.32 -3.91 -11.99 -16.94 c 2.91 -5.18 13.21 -6.55 17 -0.65" style="fill:#4069e0"/><g style="fill:#554570"><path d="m 6.36 15.32 c -0.04 -0.03 -0.1 -0.12 -0.13 -0.21 c -0.05 -0.15 -0.06 -0.3 -0.06 -1.5 c 0 -1.32 0 -1.34 -0.07 -1.56 c -0.1 -0.28 -0.13 -0.79 -0.07 -1.07 c 0.05 -0.27 0.2 -0.57 0.35 -0.75 c 0.07 -0.08 0.18 -0.03 0.18 -0.05 c 0.23 0.36 0.45 0.75 0.6 1.16 c 0.01 0.12 -0.06 0.23 -0.08 0.35 c -0.03 0.26 -0.16 0.49 -0.43 0.77 l -0.24 0.24 c 0.06 0.37 0.09 1.11 0.13 1.52 c 0.23 0.02 0.25 0.01 0.46 0.15 c 0.11 0.04 -0.27 0.71 -0.36 0.94 c -0.05 0.08 -0.19 0.09 -0.29 0.02"/><path d="m 15.88 15.28 c 0.04 -0.03 0.1 -0.13 0.13 -0.21 c 0.05 -0.15 0.06 -0.31 0.06 -1.5 c 0 -1.32 0 -1.34 0.07 -1.56 c 0.1 -0.28 0.13 -0.79 0.07 -1.07 c -0.06 -0.27 -0.21 -0.55 -0.35 -0.75 c -0.17 -0.24 -0.45 -0.07 -0.46 -0.09 c -0.23 0.36 -0.2 0.59 -0.34 1 c 0 0.12 0.09 0.44 0.1 0.55 c 0.03 0.26 0.16 0.49 0.43 0.77 l 0.24 0.25 c -0.06 0.36 -0.09 1.1 -0.13 1.52 c -0.31 -0.02 -0.11 -0.08 -0.46 0.16 c -0.11 0.04 0.27 0.71 0.36 0.93 c 0.05 0.09 0.19 0.09 0.29 0.02"/></g><path d="m 10.36 17.87 c -1.2 -0.46 -2.07 -2 -2.46 -4.46 c -0.14 -0.85 -0.16 -2.84 -0.05 -3.72 c 0.23 -1.84 0.75 -3.33 1.5 -4.27 c 1.37 -1.73 3.09 -1.18 4.17 1.34 c 0.44 1.02 0.72 2.35 0.8 3.76 c 0.19 3.41 -0.82 6.43 -2.4 7.33 c -0.55 0.18 -1.13 0.18 -1.56 0.03" style="fill:#fff"/><path d="m 10.12 7.85 c -0.1 -0.39 0.3 -0.51 0.52 -0.86 c 0 -0.05 0.13 -0.17 0.42 -0.17 c 0.34 0 0.42 0.12 0.45 0.22 c 0.1 0.11 0.82 0.75 0.54 0.79 c -0.13 0.06 -0.18 0.27 -0.29 0.38 c -0.22 -0.14 -0.45 -0.28 -0.67 -0.41 c -0.19 0.12 -0.33 0.21 -0.52 0.33 c -0.18 0.06 -0.3 -0.19 -0.45 -0.27" style="fill:#ff8c00"/><g style="fill:#00ba00"><path d="m 8.95 14.72 c -0.09 -0.14 -0.16 -0.34 -0.31 -0.41 c -0.41 0 -0.55 0.2 -0.84 0.45 c -0.42 -0.25 -0.78 -0.39 -1.13 -0.66 l 0.14 -0.61 c 0.2 -0.92 0.35 -1.42 0.4 -1.42 c 0.03 0 0.28 0.12 0.57 0.27 c 0.61 0.32 0.64 0.32 1.21 -0.03 l 0.4 -0.24 l 0.1 0.14 c 0.25 0.37 0.95 1.7 0.95 1.82 c -0.47 0.41 -0.84 0.6 -1.35 0.89 c -0.05 -0.07 -0.09 -0.14 -0.14 -0.22"/><path d="m 11.21 13.81 c -0.54 -0.55 -0.84 -1.37 -1.2 -2.07 l 0.18 -0.16 c 0.25 -0.22 0.84 -0.56 0.88 -0.52 c 0.05 0.06 0.41 2.42 0.41 2.73 c 0 0.16 -0.02 0.16 -0.27 0.02"/><path d="m 12.32 11 c -0.56 -0.34 -1.05 -0.63 -1.1 -0.66 c -0.06 -0.04 -0.29 0.07 -0.8 0.35 c -0.39 0.22 -0.75 0.38 -0.78 0.37 c -0.04 -0.01 -0.09 -0.11 -0.12 -0.22 c -0.08 -0.25 -0.08 -0.25 0.59 -0.72 c 0.29 -0.2 0.58 -0.42 0.64 -0.48 c 0.14 -0.13 0.16 -0.41 0.04 -0.54 c -0.07 -0.08 -0.11 -0.07 -0.35 0.07 c -0.15 0.08 -0.45 0.26 -0.68 0.4 c -0.45 0.29 -0.53 0.28 -0.5 -0.05 c 0.02 -0.2 0.04 -0.22 0.61 -0.63 c 0.49 -0.35 0.61 -0.45 0.64 -0.6 c 0.12 -0.26 0.29 -0.33 0.53 -0.48 l 0.34 0.18 c 0.19 0.1 0.72 0.42 1.18 0.7 l 0.84 0.52 l 0.02 1.12 c 0.01 0.61 -0.01 1.15 -0.03 1.19 c -0.04 0.06 -0.24 -0.04 -1.06 -0.54"/><path d="m 13.92 11.38 c -0.02 -0.04 0 -0.49 0.02 -1 c 0.05 -0.91 0.05 -0.92 0.21 -1.05 c 0.24 -0.19 1.08 -0.6 1.13 -0.55 c 0.08 0.08 0.05 1.62 -0.03 1.81 c -0.39 0.43 -0.71 0.59 -1.27 0.86 c -0.02 0 -0.05 -0.04 -0.06 -0.07"/><path d="m 12.75 14.78 c -0.57 -0.32 -0.56 -0.31 -0.63 -0.89 c -0.09 -0.73 -0.09 -0.95 0.03 -1.01 c 0.05 -0.03 0.32 -0.1 0.59 -0.17 c 0.61 -0.14 0.98 -0.32 1.65 -0.76 c 0.29 -0.19 0.55 -0.34 0.6 -0.34 c 0.05 0 0.11 0.08 0.14 0.2 c 0.14 0.34 0.43 0.6 0.64 0.89 c -0.09 0.32 0.03 1.22 -0.25 1.41 c -0.42 0.24 -0.74 0.42 -1.18 0.66 l -0.27 -0.23 c -0.69 -0.45 -0.7 -0.07 -1.04 0.39 c -0.11 -0.05 -0.2 -0.1 -0.29 -0.15"/><path d="m 11.93 12.26 c -0.02 -0.05 -0.05 -0.23 -0.07 -0.41 c -0.03 -0.3 -0.03 -0.32 0.07 -0.28 c 0.13 0.05 0.58 0.32 0.75 0.46 l 0.13 0.1 l -0.18 0.08 c -0.1 0.04 -0.29 0.09 -0.43 0.11 c -0.2 0.03 -0.25 0.02 -0.27 -0.06"/><path d="m 7.75 11.59 l -0.63 -0.32 l -0.14 -0.44 c -0.1 -0.32 -0.19 -0.49 -0.33 -0.64 c -0.25 -0.19 -0.19 -0.4 -0.19 -0.7 c 0 -0.76 0.05 -1.21 0.14 -1.21 c 0.05 0 1.77 0.86 1.83 0.91 c 0 0 0.13 0.52 0.27 1.14 c 0.26 1.13 0.26 1.14 0.16 1.25 c -0.15 0.14 -0.31 0.23 -0.49 0.33 c -0.21 -0.11 -0.42 -0.21 -0.62 -0.32"/></g><path d="m 11.81 14.1 c -0.12 -0.09 -0.23 -0.21 -0.25 -0.27 c -0.01 -0.06 -0.11 -0.72 -0.21 -1.46 c -0.17 -1.25 -0.21 -1.42 -0.35 -1.43 c -0.07 0 -0.99 0.64 -1.02 0.71 c -0.02 0.04 0.2 0.52 0.48 1.05 l 0.5 0.98 c -0.13 0.08 -0.26 0.16 -0.4 0.21 c -0.03 0 -0.27 -0.38 -0.52 -0.84 c -0.26 -0.46 -0.5 -0.9 -0.55 -0.96 l -0.09 -0.11 c -0.34 0.16 -0.66 0.46 -1.03 0.55 c -0.44 -0.12 -0.74 -0.41 -1.2 -0.53 c -0.07 0 -0.24 0.57 -0.43 1.45 c -0.16 0.75 -0.22 0.72 -0.27 -0.12 l -0.04 -0.59 l 0.22 -0.42 c 0.17 -0.31 0.47 -0.58 0.47 -0.79 c 0 -0.05 0.02 -0.11 0.03 -0.13 c 0.02 -0.02 0.29 0.1 0.6 0.26 c 0.55 0.28 0.58 0.29 0.74 0.21 c 0.2 -0.1 0.35 -0.23 0.52 -0.38 l -0.24 -1.04 c -0.13 -0.57 -0.24 -1.08 -0.24 -1.13 c 0 -0.06 0.08 -0.14 0.22 -0.21 c 0.13 -0.06 0.59 -0.24 0.93 -0.54 c 0.57 -0.5 0.67 -0.59 0.68 -0.53 c 0.03 0.13 -0.02 0.38 -0.64 0.82 l -0.57 0.39 c 0 0.18 -0.01 0.38 0.07 0.52 c 0.09 0.07 0.11 0.07 0.82 -0.38 c 0.28 -0.17 0.54 -0.31 0.59 -0.31 c 0.1 0 0.17 0.25 0.1 0.36 c -0.05 0.08 -0.34 0.31 -1.04 0.81 c -0.32 0.23 -0.35 0.27 -0.32 0.39 c 0.06 0.27 0.14 0.43 0.22 0.43 c 0.05 0 0.39 -0.17 0.76 -0.37 c 0.37 -0.2 0.71 -0.37 0.74 -0.37 c 0.04 0 0.49 0.25 1 0.57 c 1 0.61 1.22 0.72 1.27 0.67 c 0.02 -0.02 0.05 -0.52 0.07 -1.13 c 0.02 -0.6 0.04 -1.13 0.04 -1.18 c 0.01 -0.13 2.05 -1.13 2.11 -1.03 c 0.02 0.04 0.04 0.44 0.04 0.89 v 0.82 c -0.09 0.05 -0.19 0.09 -0.29 0.12 c -0.01 0 -0.02 -0.18 -0.02 -0.41 c 0 -0.59 -0.05 -0.9 -0.14 -0.9 c -0.09 0 -0.93 0.43 -1.11 0.57 c -0.13 0.09 -0.13 0.13 -0.17 0.94 c -0.04 0.87 -0.02 1.13 0.08 1.13 c 0.03 0 0.26 -0.12 0.5 -0.26 c 0.24 -0.14 0.46 -0.26 0.48 -0.27 c 0.05 0 0.13 0.41 0.06 0.55 c -0.05 0.11 -1.05 0.68 -1.48 0.9 c -0.15 0.08 -0.55 0.21 -0.89 0.3 c -0.34 0.09 -0.63 0.18 -0.66 0.2 c -0.06 0.06 -0.05 0.4 0.02 0.89 c 0 0.54 0.1 0.62 -0.25 0.38 m 0.64 -1.82 c 0.43 -0.11 0.46 -0.16 0.23 -0.35 c -0.28 -0.24 -0.72 -0.48 -0.82 -0.45 c -0.07 0.03 -0.08 0.09 -0.05 0.35 c 0.04 0.37 0.11 0.52 0.23 0.52 c 0.15 -0.02 0.28 -0.05 0.4 -0.08" style="fill:#ff0"/><g style="fill:#ff8c00"><path d="m 13.99 17.85 c -0.16 -0.03 -0.41 -0.28 -0.61 -0.62 c -0.22 -0.37 -0.27 -0.67 -0.27 -1.5 c -0.05 -0.44 -0.1 -0.85 0.11 -1.22 c 0.25 -0.46 0.46 -0.36 0.96 0.13 c 0.21 0.25 0.3 0.02 0.56 -0.13 c 0.4 -0.23 0.52 -0.12 0.63 0.06 c 0.07 0.1 0.18 0.61 0.18 0.8 c 0 0.02 0.16 0.04 0.37 0.03 c 0.3 -0.01 0.39 0 0.48 0.09 c 0.27 0.25 -0.05 0.92 -0.79 1.69 c -0.52 0.54 -1.07 0.77 -1.63 0.67"/><path d="m 7.61 17.84 c -0.53 -0.14 -1.13 -0.66 -1.61 -1.38 c -0.3 -0.45 -0.37 -0.71 -0.25 -0.89 c 0.09 -0.13 0.45 -0.27 0.49 -0.2 c 0.04 0.07 0.33 0.06 0.37 0 c 0.02 -0.03 0.05 -0.19 0.09 -0.36 c 0.08 -0.44 0.17 -0.57 0.39 -0.54 c 0.09 0.02 0.3 0.1 0.45 0.2 c 0.28 0.22 0.35 0.02 0.59 -0.2 c 0.29 -0.25 0.42 -0.21 0.55 -0.16 c 0.04 0.02 0.15 0.18 0.24 0.35 c 0.15 0.31 0.16 0.35 0.18 1.13 c 0.01 0.45 0 0.81 -0.03 0.81 c -0.02 0 -0.04 0.04 -0.04 0.09 c 0 0.16 -0.3 0.73 -0.5 0.94 c -0.27 0.25 -0.55 0.3 -0.91 0.21"/></g><g style="fill:#554570"><path d="m 9.75 18.1 c -0.31 -0.04 -1.21 -0.27 -1.33 -0.34 c -0.02 -0.01 0.05 -0.11 0.15 -0.21 c 0.18 -0.21 0.39 -0.58 0.43 -0.78 c 0.04 -0.21 0.06 -0.22 0.27 -0.1 c 0.32 0.19 0.57 0.3 0.78 0.35 c 0.44 0.11 1.63 0.11 2.07 0 c 0.42 -0.1 0.62 -0.34 0.98 -0.44 c 0.01 0.01 0.04 0.11 0.07 0.21 c 0.07 0.25 0.23 0.55 0.44 0.77 c 0.09 0.1 0.15 0.18 0.14 0.19 c -1.18 0.41 -2.88 0.45 -3.98 0.35"/><path d="m 11.76 8.14 c 0.14 -0.13 0.43 -0.36 0.5 -0.36 c 0.15 0 0.4 -0.14 0.55 -0.32 c 0.23 -0.25 0.32 -0.64 0.26 -1.03 c -0.11 -0.71 -0.62 -1.13 -1.09 -0.9 c -0.3 0.15 -0.48 0.49 -0.54 1 c -0.04 0.4 -0.04 0.41 -0.13 0.34 c -0.09 -0.08 -0.42 -0.08 -0.51 0 c -0.04 0.03 -0.07 0.04 -0.08 0.02 c -0.01 -0.02 -0.04 -0.17 -0.05 -0.35 c -0.05 -0.5 -0.18 -0.78 -0.46 -0.97 c -0.16 -0.12 -0.45 -0.15 -0.6 -0.07 c -0.49 0.26 -0.73 1.11 -0.46 1.71 c 0.14 0.32 0.32 0.47 0.66 0.55 c 0.11 0.02 0.21 0.06 0.21 0.07 c 0.1 0.08 0.2 0.14 0.29 0.23 c -0.56 0.33 -1.18 1.04 -1.81 1.21 c -0.1 0 -0.41 -0.2 -0.55 -0.32 c -0.17 -0.38 0 -1.04 0.05 -1.46 c 0.12 -1.12 0.21 -1.49 0.5 -2.05 c 0.31 -0.5 0.7 -0.93 1.17 -1.16 c 0.52 -0.26 1.16 -0.38 1.67 -0.32 c 0.81 0.1 1.34 0.36 1.84 0.89 c 0.4 0.42 0.64 0.92 0.79 1.59 c 0.16 0.71 0.1 1.36 0.29 2.07 c 0.08 0.28 0.08 0.28 -0.42 0.54 l -0.38 0.19 c -0.5 -0.44 -1.3 -0.72 -1.71 -1.1"/></g><g style="fill:#382951"><path d="m 11.75 6.7 c 0 -0.5 0.31 -0.85 0.61 -0.7 c 0.28 0.15 0.4 0.63 0.25 0.93 c -0.08 0.16 -0.32 0.32 -0.48 0.32 c -0.25 -0.08 -0.38 -0.37 -0.38 -0.56"/><path d="m 9.96 7.25 c -0.19 -0.07 -0.38 -0.22 -0.45 -0.38 c -0.18 -0.4 0.12 -0.98 0.45 -0.9 c 0.24 0.06 0.39 0.28 0.42 0.61 c 0.04 0.27 -0.16 0.75 -0.43 0.66"/></g></svg>