<svg xmlns="http://www.w3.org/2000/svg" viewBox="0 0 22 22"><path d="m 0.25 13.51 c 1.36 8.88 13.48 11.26 18.83 4.92 c 4.71 -4.71 3.54 -13.73 -2.25 -16.82 c -6.63 -4.13 -16.3 0.98 -16.82 9.21 c -0.05 0.9 0.02 1.81 0.24 2.69" style="fill:#3197dc"/><path d="m 7.18 17.41 c -0.57 -0.15 -0.87 -0.29 -1.25 -0.57 c -0.9 -0.63 -1.09 -1.29 -1.27 -2.18 c -0.03 0 -0.05 -1.32 -0.05 -3.34 c 0.04 -1.21 -0.09 -2.51 0.15 -3.63 c 0.29 -1.35 1.18 -2.22 2.55 -2.5 c 1.37 -0.26 2.61 -0.15 3.7 -0.15 c 1.23 0.04 2.56 -0.09 3.7 0.15 c 0.75 0.15 1.46 0.54 1.94 1.14 c 0.3 0.39 0.43 0.68 0.59 1.27 c 0.29 1.2 0.13 2.49 0.13 3.72 c -0.09 1.23 0.19 2.51 -0.13 3.71 c -0.21 0.93 -0.93 1.79 -1.7 2.15 c -1.25 0.46 -2.99 0.36 -4.58 0.36 c -1.33 0.06 -2.62 0.18 -3.8 -0.13 m 6.77 -0.79 c 0.53 -0.2 0.91 -0.63 1.06 -1.2 c 0.11 -0.41 0.09 -0.43 -0.34 -0.41 l -0.36 0.02 c -0.12 0.38 -0.3 0.8 -0.59 0.95 c -0.3 0.14 -0.87 0.14 -1.17 0 c -0.23 -0.11 -0.46 -0.4 -0.6 -0.74 c -0.12 -0.32 -0.15 -1.58 -0.04 -1.99 c 0.11 -0.43 0.3 -0.72 0.6 -0.9 c 0.21 -0.13 0.29 -0.15 0.62 -0.15 c 0.62 0 0.87 0.17 1.07 0.76 c 0.08 0.34 0.14 0.31 0.46 0.32 c 0.41 0.02 0.44 -0.02 0.36 -0.36 c -0.17 -0.76 -0.77 -1.29 -1.57 -1.38 c -1.14 -0.14 -2.07 0.5 -2.34 1.62 c -0.1 0.41 -0.1 1.57 0 1.98 c 0.19 0.78 0.68 1.32 1.39 1.56 c 0.3 0.1 1.08 0.05 1.43 -0.07 m -5.94 0 c 0.07 -0.75 0.05 -1.3 0.05 -2.11 h 0.99 c 1.12 0 1.15 -0.01 1.15 -0.34 c 0 -0.34 -0.01 -0.34 -1.13 -0.36 l -1 -0.01 c -0.01 -0.51 -0.02 -1.02 -0.03 -1.53 l 1.2 -0.02 c 1.32 -0.02 1.29 -0.01 1.3 -0.34 c 0 -0.35 0.06 -0.34 -1.7 -0.33 l -1.57 0.02 l -0.01 2.51 c -0.01 1.98 0 2.52 0.05 2.55 c 0.19 0.03 0.59 0.12 0.69 -0.05 m 1.17 -5.65 c 0.14 -0.66 0.08 -1.03 0.08 -1.89 l 0.85 -1.51 c 0.46 -0.83 0.85 -1.55 0.85 -1.61 c -0.2 -0.17 -0.45 -0.14 -0.78 -0.06 c -0.45 0.54 -0.88 1.95 -1.34 2.31 c -0.02 -0.02 -0.32 -0.55 -0.65 -1.18 l -0.6 -1.14 c -0.25 0.02 -0.63 -0.05 -0.81 0.07 c -0.01 0.04 0.37 0.75 0.84 1.58 l 0.85 1.52 c 0.11 0.57 -0.06 1.44 0.06 1.87 c 0.06 0.06 0.52 0.08 0.66 0.03 m 2.34 -0.04 c 0.23 -0.39 0.27 -0.79 0.5 -1.19 c 0.74 -0.1 1.17 -0.05 2.05 -0.04 c 0.2 0.39 0.25 0.91 0.53 1.25 c 0.11 0.06 0.56 0.05 0.66 -0.02 c 0.07 -0.05 -0.01 -0.3 -0.87 -2.5 c -0.52 -1.34 -0.97 -2.47 -1 -2.5 c -0.07 -0.09 -0.61 -0.08 -0.68 0.01 c -0.03 0.04 -0.48 1.16 -1 2.5 c -0.74 1.89 -0.93 2.45 -0.89 2.5 c 0.08 0.09 0.61 0.09 0.71 0 m 0.79 -1.97 c 0 -0.12 0.72 -1.96 0.75 -1.93 c 0.04 0.03 0.61 1.52 0.71 1.86 l 0.04 0.11 c -0.49 -0.03 -1.02 0.05 -1.5 -0.04" style="fill:#040505"/></svg>