<svg xmlns="http://www.w3.org/2000/svg" viewBox="0 0 22 22"><path d="m 2.79 5.77 c -7.78 8.79 3.74 18.1 10.48 15.8 c 6.75 -2.29 11.28 -8.74 6.87 -14.4 c -4.41 -5.66 -8.74 -11.12 -16.52 -2.33" style="fill:#b0dfe5"/><path d="m 7.8 18.49 c -0.05 -0.12 -0.14 -0.53 -0.21 -0.91 c -0.3 -1.61 -0.69 -2.81 -1.5 -4.68 l -0.44 -1.02 l 0.33 -0.3 c 1.11 -1.02 2.17 -2.6 3.27 -4.88 c 0.47 -0.98 1.18 -2.69 1.31 -3.18 c 0.04 -0.16 0.33 -0.93 0.35 -0.93 c 0.02 0 0.02 0.79 0.13 1.3 c 0.22 0.99 0.08 1.45 -0.14 1.99 c -0.06 0.16 -0.22 0.45 -0.36 0.65 c -0.52 0.77 -0.54 1.05 -0.08 2.04 c 0.25 0.54 0.44 0.82 0.38 1.14 c -0.37 1.8 0.13 2.59 0.1 1.16 c -0.01 -0.29 0.22 -1.67 0.05 -2.11 c -0.3 -0.79 -0.4 -1.12 -0.36 -1.3 c 0.02 -0.09 0.18 -0.39 0.36 -0.66 c 0.43 -0.64 0.58 -1.07 0.58 -1.7 l -0.34 -2.54 l 0.95 3.09 c 0.84 2.72 2.3 4.68 3.43 5.75 c 0.26 0.24 0.47 0.47 0.47 0.5 c 0 0.03 -0.2 0.53 -0.45 1.1 c -0.77 1.78 -1.15 2.96 -1.45 4.58 c -0.07 0.38 -0.17 0.79 -0.21 0.91 l -0.08 0.21 h -6" style="fill:#4cabe5"/><path d="m 9.89 20.25 c -0.02 -0.09 -0.04 -1.63 -0.02 -3.41 l 0.02 -3.25 l 1.88 -0.04 v 6.87 h -0.92 c -0.89 0 -0.92 -0.01 -0.96 -0.17 m 0.04 -7.33 c 0 -0.12 0.89 -1.72 0.94 -1.69 c 0.06 0.04 0.91 1.61 0.91 1.69 c 0 0.02 -0.41 0.04 -0.92 0.04 c -0.51 0 -0.92 -0.02 -0.92 -0.04" style="fill:#303130"/></svg>