<svg xmlns="http://www.w3.org/2000/svg" viewBox="0 0 22 22"><path d="m 0.25 13.51 c 1.36 8.88 13.48 11.26 18.83 4.92 c 4.71 -4.71 3.54 -13.73 -2.25 -16.82 c -6.63 -4.13 -16.3 0.98 -16.82 9.21 c -0.05 0.9 0.02 1.81 0.24 2.69" style="fill:#fc561f"/><path d="m 6.71 5.78 h 8.92 c 0.57 0 1.02 0.47 1.02 1.06 v 8.71 c 0 0.59 -0.46 1.06 -1.02 1.06 h -8.92 c -0.57 0 -1.02 -0.47 -1.02 -1.06 v -8.71 c 0 -0.59 0.46 -1.06 1.02 -1.06" style="fill:#fff"/><path d="m 6.88 7.08 h 4 v 3.97 h -4" style="fill:#613582"/><path d="m 11.25 7.1 h 4 v 3.97 h -4" style="fill:#c061ca"/><g style="fill:#613582"><path d="m 11.25 11.45 h 4 v 3.97 h -4"/><path d="m 6.84 11.48 h 4 v 3.97 h -4"/></g></svg>