<svg xmlns="http://www.w3.org/2000/svg" viewBox="0 0 22 22"><path d="m 16.66 1.85 c 19.36 16.42 -20.45 32.2 -16.36 6.81 c 0.89 -5.57 11.14 -11.24 16.36 -6.81" style="fill:#4581b3"/><g style="fill:#fff"><g transform="matrix(-0.923 -0.553 -0.454 0.784 22.42 9.57)" style="stroke:#fff;stroke-width:0.11"><path d="m 8.17 11.28 c -0.04 0.04 -0.07 0.09 -0.06 0.15 v 1.34 c 0 0.12 0.09 0.21 0.21 0.21 c 0.12 0 0.21 -0.09 0.21 -0.21 v -1.12"/><path d="m 12.27 11.15 h -3.83 c -0.06 0 -0.11 0.02 -0.15 0.06 l 0.36 0.37 h 3.83 c 0.06 0 0.11 -0.02 0.15 -0.06"/><path d="m 12.35 9.64 v 1.41 l 0.36 0.37 c 0.04 -0.04 0.06 -0.09 0.06 -0.15 v -1.83"/></g><path d="m 7.29 10.46 c 0.27 0.19 -0.04 0.66 -0.31 0.46 l -0.66 -0.38 l -0.01 -0.68"/><path d="m 12.45 12.47 l -1.67 -1 l -1.05 1.82 l 1.67 1 m -0.62 -2.82 l -1.67 -1 l -1.06 1.82 l 1.67 1 m -2.8 -1.68 l 1.43 0.86 c 0.3 0.18 0.66 0.1 0.82 -0.17 l 0.49 -0.85 c 0.16 -0.27 0.04 -0.63 -0.25 -0.81 l -1.43 -0.86 c -0.3 -0.18 -0.66 -0.1 -0.82 0.17 l -0.49 0.85 c -0.16 0.27 -0.04 0.63 0.25 0.81 m 6.66 1.54 l -1.43 -0.86 c -0.3 -0.18 -0.66 -0.11 -0.82 0.16 l -0.49 0.85 c -0.16 0.27 -0.04 0.63 0.25 0.81 l 1.43 0.86 c 0.3 0.18 0.66 0.11 0.82 -0.16 l 0.49 -0.85 c 0.16 -0.27 0.04 -0.63 -0.25 -0.81"/></g><path d="m 9.74 15.54 l -1.72 -1.03 l -2.35 4.05 l 1.72 1.04" style="fill:#ffd600"/><g style="fill-opacity:0.7"><path d="m 17.4 7.82 l -1.67 -1 l -3.8 6.57 l 1.67 1" style="fill:#629fea"/><path d="m 15.73 6.82 l -1.67 -1 l -3.8 6.57 l 1.67 1" style="fill:#56e388"/><path d="m 14.1 5.82 l -1.67 -1 l -3.8 6.57 l 1.67 1" style="fill:#f8e45b"/><path d="m 6.91 10.38 l 1.67 1 l 3.8 -6.57 l -1.67 -1" style="fill:#ec333b"/></g><path d="m 13.59 13.15 l -1.43 -0.86 c -0.29 -0.18 -0.66 -0.11 -0.82 0.16 l -0.49 0.85 c -0.16 0.27 -0.04 0.63 0.25 0.81 l 1.43 0.86 c 0.3 0.18 0.66 0.11 0.82 -0.16 l 0.49 -0.85 c 0.16 -0.27 0.04 -0.63 -0.25 -0.81" style="fill:#629fea"/><path d="m 12.45 12.47 l -1.67 -1 l -1.05 1.82 l 1.67 1" style="fill:#56e388"/><path d="m 6.92 11.62 l 1.43 0.86 c 0.29 0.18 0.66 0.1 0.82 -0.17 l 0.49 -0.85 c 0.16 -0.27 0.04 -0.63 -0.25 -0.81 l -1.43 -0.86 c -0.3 -0.18 -0.66 -0.1 -0.82 0.17 l -0.49 0.85 c -0.16 0.27 -0.04 0.63 0.25 0.81" style="fill:#ec333b"/><path d="m 10.78 11.47 l -1.67 -1 l -1.05 1.82 l 1.67 1" style="fill:#f8e45b"/></svg>