<svg xmlns="http://www.w3.org/2000/svg" viewBox="0 0 22 22"><defs><radialGradient id="0" gradientUnits="userSpaceOnUse" cx="32" cy="32" r="18.1" gradientTransform="matrix(0.21 0 0 0.209 4.31 4.6)"><stop style="stop-color:#3d7e95"/><stop offset="1" style="stop-color:#2a5977"/></radialGradient></defs><path d="m 11.64 21.84 c -13.1 1.25 -16.1 -19.82 -2.61 -21.46 c 12.39 -2.03 18.25 17.1 5.89 20.89 c -1.05 0.42 -2.18 0.41 -3.28 0.57" style="fill:#2f627e"/><path d="m 6.56 5.54 h 8.99 c 0.71 0 1.29 0.57 1.29 1.29 v 8.89 c 0 0.71 -0.57 1.29 -1.29 1.29 h -8.99 c -0.71 0 -1.29 -0.57 -1.29 -1.29 v -8.89 c 0 -0.71 0.58 -1.29 1.29 -1.29" style="fill:#e2e5e6"/><path d="m 6.79 5.86 h 8.5 c 0.67 0 1.22 0.54 1.22 1.22 v 8.4 c 0 0.68 -0.55 1.22 -1.22 1.22 h -8.5 c -0.68 0 -1.22 -0.54 -1.22 -1.22 v -8.4 c 0 -0.68 0.54 -1.22 1.22 -1.22" style="fill:#444e60"/><path d="m 7.93 7.31 h 6.21 c 0.49 0 0.89 0.4 0.89 0.89 v 6.14 c 0 0.49 -0.4 0.89 -0.89 0.89 h -6.21 c -0.49 0 -0.89 -0.4 -0.89 -0.89 v -6.14 c 0 -0.49 0.4 -0.89 0.89 -0.89" style="fill:#f2f4fa"/><path d="m 8.1 7.5 h 5.92 c 0.47 0 0.85 0.38 0.85 0.85 v 5.85 c 0 0.46 -0.38 0.85 -0.85 0.85 h -5.92 c -0.47 0 -0.85 -0.38 -0.85 -0.85 v -5.85 c 0 -0.47 0.38 -0.85 0.85 -0.85" style="fill:url(#0)"/><path d="m 13.1 9.52 c -0.12 -0.02 -0.25 0.02 -0.32 0.11 l -2.33 2.62 l -1.13 -1.09 c -0.06 -0.06 -0.15 -0.1 -0.24 -0.1 c -0.09 0 -0.18 0.04 -0.24 0.11 c -0.06 0.06 -0.1 0.15 -0.1 0.24 c 0 0.09 0.04 0.18 0.11 0.24 l 1.39 1.34 c 0.07 0.07 0.16 0.1 0.25 0.1 c 0.09 0 0.18 -0.05 0.25 -0.12 l 2.57 -2.89 c 0.06 -0.07 0.09 -0.16 0.09 -0.25 c 0 -0.09 -0.05 -0.18 -0.12 -0.23 c -0.04 -0.04 -0.1 -0.07 -0.16 -0.08" style="fill:#f2f4fa"/></svg>