<svg xmlns="http://www.w3.org/2000/svg" viewBox="0 0 22 22"><path d="m 2.14 17.43 c -7.62 -9.21 8.1 -22.97 16.76 -14.86 c 9.73 8.89 -6.1 26.32 -15.77 16.42 c -0.6 -0.52 -0.66 -1.04 -0.98 -1.55" style="fill:#ecccfb"/><path d="m 7.21 17.53 c 0.01 -0.04 1.44 -1.47 3.18 -3.18 l 3.17 -3.11 l -0.9 -0.89 c -0.5 -0.49 -0.9 -0.93 -0.9 -0.98 c 0 -0.11 0.73 -0.86 0.88 -0.9 c 0.08 -0.03 0.36 0.23 1.49 1.33 c 0.76 0.75 1.39 1.39 1.39 1.44 c 0 0.04 -1.45 1.49 -3.21 3.22 l -3.21 3.14 h -0.95 c -0.83 0 -0.94 -0.01 -0.93 -0.08 m 0.45 -4.86 c -0.76 -0.75 -1.38 -1.39 -1.38 -1.43 c 0 -0.04 1.45 -1.49 3.21 -3.22 l 3.21 -3.14 h 0.95 c 0.8 0 0.95 0.01 0.91 0.07 c -0.02 0.04 -1.45 1.47 -3.18 3.19 l -3.14 3.11 l 0.89 0.88 c 0.49 0.49 0.89 0.92 0.89 0.96 c 0 0.08 -0.86 0.94 -0.94 0.94 c -0.03 0 -0.67 -0.61 -1.43 -1.36" style="fill:#a900ff"/></svg>