<svg xmlns="http://www.w3.org/2000/svg" viewBox="0 0 22 22"><path d="m 10.1 21.88 c -2.25 -0.18 -4.8 -1.26 -6.49 -2.77 c -2.07 -1.83 -3.43 -4.64 -3.59 -7.41 c -0.16 -3.66 2.36 -7.59 4.95 -9.45 c 1.29 -0.91 2.96 -1.63 4.49 -1.95 c 3.98 -0.82 7.88 0.73 10.32 4.12 c 1.46 2.03 2.13 4.07 2.09 6.5 c -0.04 2.9 -1.5 6 -3.81 8.11 c -2.58 1.98 -5.14 3.05 -7.95 2.84" style="fill:#5b59a9"/><path d="m 6.34 16.23 c -0.27 -0.09 -0.67 -0.41 -0.79 -0.63 c -0.08 -0.15 -0.09 -0.73 -0.08 -4.55 l 0.02 -4.37 c 0.29 -0.35 0.55 -0.53 0.93 -0.71 l 4.57 0.02 l 4.57 0.02 c 0.39 0.23 0.61 0.46 0.87 0.81 l 0.02 4.18 c 0.01 2.91 0 4.25 -0.05 4.41 c -0.09 0.28 -0.38 0.6 -0.71 0.76 c -0.26 0.13 -0.26 0.13 -4.7 0.14 c -3.38 0.01 -4.48 0 -4.64 -0.06 m 0.86 -0.97 v -0.53 h -1.25 v 0.16 c 0 0.09 0.05 0.27 0.12 0.4 c 0.14 0.28 0.52 0.49 0.89 0.49 h 0.23 m 1.7 -1.05 l -1.23 0.03 c 0 0.32 -0.05 0.64 0 0.95 c 0.03 0.06 0.16 0.07 0.61 0.06 l 0.58 -0.02 c 0.01 -0.34 0.03 -0.68 0.04 -1.03 m 1.79 0.51 l 0.02 -0.51 l -1.35 0.03 c 0 0.32 -0.05 0.64 0 0.95 c 0.03 0.06 0.18 0.07 0.68 0.06 l 0.64 -0.02 c 0.01 -0.17 0.01 -0.34 0.02 -0.52 m 1.79 -0.48 l -1.34 -0.03 c 0.02 0.33 -0.04 0.7 0.04 1.02 c 0.03 0.02 0.33 0.03 0.67 0.02 l 0.63 -0.02 c 0 -0.33 0 -0.66 0 -1 m 1.69 0.89 c 0.04 -0.31 0.01 -0.57 0 -0.89 l -1.22 -0.03 c 0 0.35 0 0.7 0 1.05 h 0.59 c 0.56 0 0.59 0 0.63 -0.13 m 1.31 -0.04 c 0.21 -0.13 0.41 -0.47 0.41 -0.73 c 0 -0.14 0 -0.14 -0.63 -0.14 h -0.63 c 0 0.36 0 0.71 0 1.07 l 0.32 -0.04 c 0.18 -0.02 0.41 -0.09 0.53 -0.15 m -8.31 -2.54 l -0.61 -0.02 l -0.61 -0.02 c 0 0.39 0 0.78 0 1.17 h 1.26 c -0.02 -0.38 -0.03 -0.76 -0.04 -1.14 m 1.69 0 h -1.19 c 0 0.35 -0.05 0.71 0 1.06 c 0.02 0.06 0.19 0.08 0.63 0.08 h 0.6 c -0.01 -0.38 -0.02 -0.76 -0.04 -1.14 m 1.81 0 h -1.31 c 0.02 0.35 -0.07 0.72 0 1.06 c 0.03 0.06 0.18 0.07 0.68 0.06 l 0.64 -0.02 c 0 -0.37 0 -0.74 0 -1.11 m 1.83 0.67 c 0.03 -0.73 0.05 -0.71 -0.69 -0.69 l -0.64 0.02 c 0.02 0.35 -0.07 0.72 0 1.06 c 0.03 0.06 0.18 0.07 0.68 0.06 l 0.64 -0.02 m 1.69 -1.11 h -1.19 c -0.01 0.38 -0.02 0.76 -0.04 1.14 l 0.61 -0.02 l 0.61 -0.02 c 0 -0.37 0 -0.74 0 -1.11 m 1.72 -0.04 l -0.61 0.02 l -0.61 0.02 c -0.01 0.38 -0.02 0.76 -0.04 1.14 h 1.25 c 0 -0.39 0 -0.78 0 -1.17 m -8.69 -1.07 v -0.56 h -1.25 v 1.11 h 1.25 m 1.69 -0.56 v -0.56 l -0.61 0.02 l -0.61 0.02 l -0.02 0.46 c -0.01 0.25 0 0.5 0.01 0.54 c 0.02 0.05 0.19 0.08 0.63 0.08 h 0.59 m 1.81 -0.56 v -0.56 l -0.67 0.02 l -0.67 0.02 l -0.02 0.46 c -0.01 0.25 0 0.5 0.01 0.54 c 0.02 0.06 0.2 0.08 0.69 0.08 h 0.66 m 1.78 -0.55 v -0.53 l -0.67 -0.02 l -0.67 -0.02 v 1.12 l 0.67 -0.02 l 0.67 -0.02 m 1.69 -0.52 v -0.53 l -0.61 -0.02 l -0.61 -0.02 v 1.12 l 0.61 -0.02 l 0.61 -0.02 m 1.72 -0.52 v -0.56 h -1.25 v 1.11 h 1.25 m -8.7 -2.23 l 0.02 -0.57 h -1.26 v 1.17 l 0.61 -0.02 l 0.61 -0.02 m 1.71 -0.57 l 0.02 -0.57 l -1.23 0.03 l -0.02 0.52 c -0.02 0.38 0 0.53 0.06 0.57 c 0.04 0.03 0.32 0.04 0.61 0.04 l 0.53 -0.02 m 1.81 -0.55 v -0.55 h -1.31 l -0.02 0.52 c -0.02 0.38 0 0.53 0.06 0.57 c 0.04 0.03 0.35 0.04 0.67 0.04 l 0.59 -0.02 m 1.77 -0.02 c 0.06 -0.04 0.07 -0.19 0.06 -0.57 l -0.02 -0.52 h -1.31 l -0.02 0.49 c -0.01 0.27 0 0.53 0.01 0.57 c 0.04 0.09 1.13 0.11 1.27 0.03 m 1.7 -0.03 c 0.05 -0.05 0.07 -0.26 0.05 -0.57 l -0.02 -0.49 l -1.22 -0.03 v 0.55 c 0 0.3 0.02 0.56 0.04 0.59 c 0.02 0.02 0.27 0.04 0.55 0.04 c 0.36 0 0.54 -0.02 0.59 -0.08 m 1.75 -0.5 v -0.58 h -1.25 v 0.54 c 0 0.3 0.02 0.56 0.04 0.59 c 0.02 0.02 0.3 0.04 0.63 0.04 h 0.58 m -8.69 -2.31 v -0.61 h -1.25 v 1.23 h 1.25 m 1.69 -0.62 v -0.61 l -1.22 0.03 l -0.02 0.52 c -0.01 0.29 0 0.55 0.01 0.6 c 0.02 0.06 0.19 0.08 0.63 0.08 h 0.59 m 1.81 -0.61 v -0.62 l -1.34 0.03 l -0.02 0.52 c -0.01 0.29 0 0.55 0.01 0.6 c 0.02 0.06 0.2 0.08 0.69 0.08 h 0.66 m 1.78 -0.61 v -0.59 l -1.34 -0.03 v 1.23 l 1.34 -0.03 m 1.69 -0.59 v -0.59 l -1.22 -0.03 v 1.23 l 1.22 -0.03 m 1.72 -0.59 v -0.61 h -1.25 v 1.23 h 1.25" style="fill:#fff"/></svg>