<svg xmlns="http://www.w3.org/2000/svg" viewBox="0 0 22 22"><path d="m 11.21 21.88 c -2.27 -0.18 -4.93 -1.26 -6.77 -2.77 c -2.25 -1.83 -3.9 -4.64 -4.34 -7.41 c -0.53 -3.66 1.6 -7.59 4 -9.45 c 1.2 -0.91 2.8 -1.63 4.3 -1.95 c 3.89 -0.82 7.96 0.73 10.74 4.12 c 1.67 2.03 2.53 4.07 2.74 6.5 c 0.25 2.9 -0.89 6 -2.99 8.11 c -2.38 1.98 -4.84 3.05 -7.67 2.84" style="fill:#14ab3e"/><path d="m 10.61 17.35 c -0.38 -0.14 -0.66 -0.45 -0.76 -0.82 c -0.11 -0.43 0.06 -0.96 0.41 -1.23 c 0.58 -0.45 1.41 -0.28 1.76 0.36 c 0.17 0.38 0.17 0.8 0 1.13 c -0.36 0.47 -0.86 0.76 -1.41 0.56 m -2.64 -0.63 c -0.2 -0.1 -0.31 -0.23 -0.37 -0.47 c -0.12 -0.44 0.23 -0.88 0.68 -0.88 c 0.77 0 1 1.05 0.3 1.36 c -0.23 0.07 -0.46 0.07 -0.62 -0.01 m 5.41 0.01 c -0.69 -0.33 -0.46 -1.36 0.31 -1.36 c 0.52 0 0.86 0.56 0.63 1.04 c -0.15 0.32 -0.6 0.48 -0.93 0.32 m -6.97 -1.81 c -0.41 -0.14 -0.69 -0.41 -0.81 -0.79 c -0.19 -0.61 0.18 -1.31 0.77 -1.48 c 0.27 -0.08 0.7 -0.03 0.92 0.1 c 0.41 0.24 0.61 0.64 0.58 1.12 c -0.04 0.6 -0.47 1.03 -1.06 1.08 c -0.14 0 -0.28 0 -0.4 -0.03 m 8.56 0.01 c -0.22 -0.05 -0.37 -0.14 -0.54 -0.31 c -0.57 -0.64 -0.3 -1.58 0.32 -1.91 c 0.45 -0.2 1.03 -0.06 1.34 0.25 c 0.43 0.43 0.45 1.14 0.04 1.59 c -0.34 0.28 -0.81 0.46 -1.16 0.38 m -5.84 -0.31 c -0.63 -0.32 -0.68 -1.23 -0.09 -1.61 c 0.35 -0.22 0.79 -0.19 1.1 0.08 c 0.21 0.18 0.32 0.41 0.32 0.7 c 0 0.7 -0.71 1.14 -1.33 0.83 m 2.97 0.05 c -0.35 -0.13 -0.59 -0.49 -0.59 -0.88 c 0 -0.29 0.11 -0.52 0.32 -0.7 c 0.31 -0.27 0.75 -0.3 1.1 -0.08 c 0.57 0.36 0.55 1.23 -0.03 1.57 c -0.25 0.1 -0.57 0.16 -0.8 0.09 m -1.32 -2.46 c -0.24 -0.05 -0.52 -0.24 -0.64 -0.44 c -0.6 -0.95 0.43 -2.03 1.39 -1.46 c 0.31 0.18 0.48 0.49 0.48 0.88 c 0 0.54 -0.37 0.95 -0.92 1.03 c -0.11 0 -0.21 0.01 -0.31 -0.01 m -2.91 -0.14 c -0.58 -0.21 -0.8 -0.89 -0.45 -1.41 c 0.3 -0.46 1 -0.53 1.39 -0.13 c 0.21 0.22 0.27 0.38 0.27 0.66 c 0.03 0.67 -0.72 1.04 -1.21 0.88 m 5.6 -0.01 c -0.2 -0.07 -0.41 -0.27 -0.5 -0.47 c -0.1 -0.19 -0.11 -0.59 -0.02 -0.78 c 0.26 -0.51 0.86 -0.7 1.33 -0.41 c 0.58 0.34 0.58 1.24 0 1.59 c -0.26 0.11 -0.57 0.16 -0.81 0.08 m -8 -0.2 c -0.44 -0.16 -0.61 -0.73 -0.32 -1.1 c 0.32 -0.43 1.02 -0.36 1.22 0.13 c 0.16 0.38 0 0.78 -0.37 0.95 c -0.19 0.09 -0.31 0.09 -0.52 0.02 m 10.54 0 c -0.38 -0.14 -0.57 -0.56 -0.43 -0.95 c 0.09 -0.24 0.41 -0.46 0.66 -0.46 c 0.19 0 0.44 0.14 0.57 0.3 c 0.16 0.27 0.17 0.62 0 0.85 c -0.17 0.36 -0.57 0.34 -0.81 0.25 m -9.7 -2.15 c -0.23 -0.08 -0.51 -0.32 -0.63 -0.57 c -0.41 -0.81 0.14 -1.71 1.05 -1.71 c 0.63 0 1.09 0.45 1.14 1.08 c 0.02 0.34 -0.06 0.62 -0.28 0.86 c -0.39 0.36 -0.82 0.46 -1.28 0.34 m 7.84 -0.72 c -0.09 -0.28 -0.07 -0.69 0.05 -0.92 c 0.21 -0.41 0.59 -0.64 1.04 -0.64 c 0.91 0 1.45 0.9 1.04 1.72 c -0.13 0.25 -0.41 0.49 -0.66 0.57 c -0.61 0.15 -1.27 -0.16 -1.47 -0.72 m -4.91 0.47 c -0.33 -0.12 -0.52 -0.34 -0.6 -0.69 c -0.19 -0.86 0.85 -1.48 1.5 -0.89 c 0.21 0.2 0.31 0.42 0.31 0.7 c 0 0.29 -0.11 0.51 -0.32 0.7 c -0.25 0.22 -0.59 0.29 -0.89 0.18 m 2.34 -0.49 c -0.1 -0.21 -0.1 -0.56 0 -0.77 c 0.1 -0.22 0.36 -0.45 0.58 -0.51 c 0.67 -0.18 1.3 0.4 1.16 1.07 c -0.06 0.28 -0.2 0.49 -0.42 0.61 c -0.51 0.2 -1.08 0.11 -1.32 -0.4 m -1.02 -1.73 c -0.27 -0.11 -0.48 -0.29 -0.62 -0.54 c -0.17 -0.38 -0.17 -0.8 0 -1.13 c 0.3 -0.52 1 -0.77 1.54 -0.5 c 0.25 0.14 0.39 0.27 0.52 0.5 c 0.17 0.38 0.18 0.8 0 1.13 c -0.46 0.63 -0.96 0.71 -1.45 0.54 m -2.46 -0.25 c -0.59 -0.18 -0.73 -0.96 -0.23 -1.29 c 0.66 -0.44 1.43 0.34 0.99 1 c -0.2 0.2 -0.52 0.35 -0.75 0.28 m 5.32 -0.02 c -0.36 -0.11 -0.56 -0.55 -0.41 -0.93 c 0.28 -0.74 1.37 -0.53 1.37 0.27 c -0.07 0.69 -0.57 0.77 -0.95 0.67" style="fill:#fff"/></svg>