<svg xmlns="http://www.w3.org/2000/svg" viewBox="0 0 22 22"><path d="m 19.2 18.66 c 12.52 -19.23 -21.68 -26.67 -18.95 -6.88 c 1.11 8.1 14.16 14.25 18.95 6.88" style="fill:#1096ec"/><g style="fill:#ffdeac"><path d="m 5.5 13 h 10.22 v 0.64 h -10.22"/><path d="m 5.54 15.1 h 10.22 v 0.64 h -10.22"/></g><g style="fill:#eb4600"><path d="m 13.82 17.2 c -0.66 -0.11 -1.42 -0.66 -1.74 -1.26 c -0.36 -0.66 -0.34 -1.55 0.04 -2.2 c 0.29 -0.49 0.67 -0.83 1.25 -1.11 c 0.51 -0.3 1.54 -0.25 2.02 -0.1 c 0.34 0.11 0.79 0.37 0.8 0.47 c -0.02 0.13 -0.08 0.21 -0.16 0.31 l -0.36 -0.16 c -0.43 -0.2 -0.9 -0.32 -1.19 -0.32 c -0.85 0 -1.65 0.5 -2 1.24 c -0.22 0.48 -0.21 1.21 0 1.61 c 0.14 0.26 0.55 0.68 0.82 0.84 c 0.55 0.32 1.3 0.31 1.86 -0.02 c 0.91 -0.54 1.09 -1.71 0.39 -2.43 c -0.27 -0.28 -0.52 -0.38 -1.06 -0.44 c -0.45 -0.04 -1.11 0.78 -1.15 0.67 c -0.03 -0.08 0.11 -0.73 0.66 -1.02 c 0.42 -0.15 1.02 -0.08 1.37 0.09 c 0.56 0.27 0.94 0.75 1.07 1.33 c 0.07 0.45 0.02 0.96 -0.14 1.29 c -0.21 0.43 -0.6 0.79 -1.08 1 c -0.45 0.21 -0.92 0.28 -1.36 0.2"/><path d="m 5.19 6 h 11.23 v 2.1 h -11.23"/></g><g style="fill:#ffdeac"><path d="m 5.6 9.18 h 10.22 v 0.64 h -10.22"/><path d="m 5.6 11.21 h 10.22 v 0.64 h -10.22"/></g></svg>