<svg xmlns="http://www.w3.org/2000/svg" viewBox="0 0 22 22"><defs><linearGradient id="4" gradientUnits="userSpaceOnUse" x1="6.63" y1="9.67" x2="8.83" y2="12.32" gradientTransform="matrix(1.211 0 0 1.551 1.62 -4.11)"><stop style="stop-color:#666a70"/><stop offset="1" style="stop-color:#2f3335"/></linearGradient><linearGradient id="5" gradientUnits="userSpaceOnUse" x1="7.08" y1="8.58" x2="8.56" y2="9.73" gradientTransform="matrix(0.653 0 0 0.747 5.74 6)"><stop style="stop-color:#f45b17"/><stop offset="1" style="stop-color:#ed3e00"/></linearGradient><linearGradient id="3" gradientUnits="userSpaceOnUse" x1="3" y1="5" x2="12" y2="13" gradientTransform="matrix(0.653 0 0 0.747 5.74 6)"><stop style="stop-color:#9ca5b0"/><stop offset="1" style="stop-color:#727d86"/></linearGradient><linearGradient id="1" gradientUnits="userSpaceOnUse" y1="14" x2="0" y2="15" gradientTransform="matrix(0.653 0 0 0.747 5.74 6)"><stop style="stop-color:#000;stop-opacity:0.2"/><stop offset="1" style="stop-color:#000;stop-opacity:0"/></linearGradient><linearGradient id="0" gradientUnits="userSpaceOnUse" y1="12" x2="0" y2="16" gradientTransform="matrix(0.653 0 0 0.747 5.74 6)"><stop style="stop-color:#9da8b2"/><stop offset="1" style="stop-color:#787f85"/></linearGradient><linearGradient id="2" gradientUnits="userSpaceOnUse" y1="-2" x2="0" y2="9" gradientTransform="matrix(0.653 0 0 0.747 5.74 6)"><stop style="stop-color:#9da5b0"/><stop offset="0.15" style="stop-color:#9da5b0"/><stop offset="0.85" style="stop-color:#868e96"/><stop offset="1" style="stop-color:#868e96"/></linearGradient></defs><path d="m 17.19 3.22 c 19.58 22.85 -27.84 26.1 -14.8 2.77 c 2.97 -5.32 9.61 -8.82 14.8 -2.77"/><path d="m 10.3 15.75 v 1.49 h -1.3 v 0.75 h 3.92 v -0.75 h -1.31 v -1.49" style="fill:url(#0)"/><path d="m 10.3 15.75 h 1.3 v 1.87 h -1.3" style="fill:url(#1)"/><path d="m 8.91 6 h 4.09 c 0.31 0 0.57 0.27 0.57 0.6 v 7 c 0 0.33 -0.25 0.6 -0.57 0.6 h -4.09 c -0.31 0 -0.56 -0.27 -0.56 -0.6 v -7 c 0 -0.33 0.25 -0.6 0.56 -0.6" style="fill:url(#2)"/><path d="m 7.7 9.77 c -0.36 0 -0.65 0.34 -0.65 0.75 v 4.48 c 0 0.83 0.58 1.5 1.3 1.5 h 5.22 c 0.72 0 1.3 -0.66 1.3 -1.5 v -4.48 c 0 -0.41 -0.29 -0.75 -0.65 -0.75 c -0.36 0 -0.65 0.34 -0.65 0.75 v 4.48 h -5.22 v -4.48 c 0 -0.41 -0.29 -0.75 -0.65 -0.75" style="fill:url(#3)"/><path d="m 13.57 11.27 v 2.24 c 0 0.41 -0.3 0.75 -0.65 0.75 h -3.92 c -0.36 0 -0.65 -0.34 -0.65 -0.75 v -2.24" style="fill:url(#4)"/><path d="m 11.61 12.77 c 0 0.41 -0.29 0.75 -0.65 0.75 c -0.36 0 -0.65 -0.34 -0.65 -0.75 c 0 -0.41 0.29 -0.75 0.65 -0.75 c 0.36 0 0.65 0.34 0.65 0.75" style="fill:url(#5)"/></svg>