<svg xmlns="http://www.w3.org/2000/svg" viewBox="0 0 22 22"><path d="m 17.46 2.39 c -16.54 -10.86 -26.73 23.77 -5.34 19.2 c 8.84 -1.95 14.2 -14.21 5.34 -19.2" style="fill:#c1e4f4"/><path d="m 6.65 16.98 c -0.55 -0.17 -1.13 -0.76 -1.3 -1.33 c -0.16 -0.55 -0.16 -0.91 0 -1.46 c 0.13 -0.42 0.28 -0.59 3.53 -3.85 c 1.87 -1.88 3.4 -3.46 3.4 -3.52 c 0 -0.06 -0.07 -0.2 -0.16 -0.31 c -0.24 -0.3 -0.21 -0.7 0.05 -0.91 c 0.44 -0.35 0.48 -0.32 2.68 1.88 c 2.2 2.2 2.23 2.24 1.88 2.68 c -0.21 0.27 -0.61 0.29 -0.91 0.05 c -0.11 -0.09 -0.25 -0.16 -0.31 -0.16 c -0.06 0 -1.64 1.53 -3.52 3.4 c -3.26 3.25 -3.43 3.41 -3.85 3.53 c -0.54 0.16 -0.97 0.16 -1.5 0 m 6.79 -6.74 c 0.61 -0.61 1.12 -1.15 1.12 -1.2 c 0 -0.11 -1.15 -1.26 -1.26 -1.26 c -0.15 0 -3.47 3.39 -3.41 3.48 c 0.04 0.05 0.48 0.09 1.25 0.09 h 1.19" style="fill:#6a5de7"/></svg>