<svg xmlns="http://www.w3.org/2000/svg" viewBox="0 0 22 22"><path d="m 20.39 5.34 c -16.62 -19.36 -32.61 20.45 -6.9 16.36 c 5.64 -0.89 11.38 -11.14 6.9 -16.36" style="fill:#ff8c00"/><g style="fill:#fff;stroke:#ff8c00;fill-rule:evenodd"><g style="stroke-linecap:round;stroke-linejoin:round"><path d="m 9.57 15.43 l -6 17 c -0.17 0.48 0.22 1 0.68 1 l 39.4 -0.04 c 0.7 0 1.18 -0.77 0.9 -1.44 l -6.7 -16.38 c -0.19 -0.47 -0.83 -0.87 -1.44 -0.87 l -25.55 -0.03 c -0.5 0 -1.05 0.11 -1.27 0.73" transform="matrix(0.268 0 0 0.284 4.05 6.12)"/><g transform="matrix(0.268 0 0 0.285 4.05 6.1)"><path d="m 4.05 28.35 c 0.09 -0.22 0.32 -0.37 0.64 -0.37 l 2 0.03 l 3.18 3.77 c 0 0 -0.53 1.3 -0.29 2.13 c 0.45 0.4 -0.01 0.67 -0.01 0.67 c 0 0 -6 0 -6.51 0 c -0.5 0 -1.12 -1.26 -0.8 -2 c 0.79 -1.92 0.92 -2.22 1.79 -4.21"/><path d="m 44.5 28.35 c -0.1 -0.22 -0.32 -0.37 -0.64 -0.37 l -2 0.03 l -3.19 3.77 c 0 0 0.53 1.3 0.31 2.13 c -0.45 0.4 0.01 0.67 0.01 0.67 c 0 0 6 0 6.49 0 c 0.51 0 1.12 -1.26 0.82 -2 c -0.8 -1.92 -0.92 -2.22 -1.79 -4.21"/><g style="stroke-width:0.81"><path d="m 8.89 17.41 l 5.43 -2.65 c 0.36 -0.18 -0.31 -0.97 -0.71 -0.97 h -4.33 l -1.23 3.18 c -0.18 0.45 0.32 1.87 0.5 1.41"/><path d="m 38.54 17.41 l -5.43 -2.65 c -0.36 -0.18 0.31 -0.97 0.7 -0.97 h 4.33 l 1.24 3.18 c 0.18 0.45 -0.34 1.87 -0.5 1.41"/></g></g></g><path d="m 5.98 4.88 l 5.61 -5.63 l 20.1 -9.74 c 3.26 -1.25 5.19 3.37 2.31 5 l -20 9.37" transform="matrix(0.251 -0.115 0.113 0.256 8.1 12.16)"/></g></svg>