<svg xmlns="http://www.w3.org/2000/svg" viewBox="0 0 22 22"><path d="m 20.96 7 c 8.27 26.56 -36.1 13.28 -15.38 -4.92 c 4.16 -3.65 13.15 -2.25 15.38 4.92" style="fill:#ffe74e"/><path d="m 13.82 16.74 c -0.02 -0.27 -0.04 -0.53 -0.06 -0.8 c -0.3 -0.02 -0.59 -0.04 -0.89 -0.06 l -0.03 -3.61 c 0.3 0 0.59 0 0.89 0 c 0.03 -0.25 -0.07 -0.65 0.08 -0.85 c 0.05 -0.05 0.45 -0.06 1.32 -0.05 l 1.24 0.02 c 0.02 0.27 0 0.56 0.09 0.81 c 0.27 0.11 0.47 -0.01 0.77 0.01 c -0.02 0.57 0.06 1.27 0.02 1.84 c -0.2 0.05 -0.81 0.02 -1.72 0.05 c -0.91 0.04 -1.4 0.04 -1.62 0.06 c -0.05 0.25 0 0.59 0.01 0.86 c 1.13 0.02 2.09 -0.06 3.28 -0.08 c 0.04 0.32 0.05 0.63 0.05 0.95 c -0.28 0.02 -0.59 0 -0.84 0.1 c -0.11 0.25 -0.05 0.48 -0.12 0.75 c -0.92 0.06 -1.63 0.07 -2.48 0.01 m 1.69 -3.6 c 0.13 -0.05 0.09 -0.76 0.04 -0.85 c -0.32 -0.11 -0.57 0 -0.95 0.01 c -0.01 0.27 -0.04 0.54 0 0.8 c 0.29 0.15 0.58 0.02 0.92 0.04 m -8.84 2.79 c -0.04 -0.11 -0.05 -1.42 -0.02 -4.61 l 0.04 -4.45 h 5.21 c 0.01 0.26 -0.03 0.55 0.07 0.79 c 0.29 0.12 0.58 0.02 0.87 0.14 c 0.09 0.27 0.07 0.49 0.07 0.79 c 0.25 0.01 0.52 -0.02 0.76 0.04 c 0.08 0.05 0.11 1.54 0.05 2.25 l -0.04 0.44 h -0.38 c -0.46 -0.02 -0.55 -0.16 -0.5 0.57 v 0.34 h -0.89 l -0.03 -1.73 c -0.24 -0.02 -0.48 -0.04 -0.72 -0.05 c -0.02 -0.29 0.06 -0.69 -0.05 -0.95 c -0.29 -0.09 -0.57 -0.01 -0.89 -0.02 c -0.01 -0.25 -0.02 -0.51 -0.03 -0.77 c -0.29 0 -0.59 0 -0.88 0 c -0.01 0.26 0.02 0.6 -0.05 0.85 c -0.33 -0.02 -0.47 0.02 -0.76 0.03 c 0.01 1.54 0.02 2.87 0.03 4.41 c 1.23 0.09 1.72 0.03 2.96 0.02 c 0.48 -0.05 0.46 -0.11 0.46 0.82 c 0 0.61 -0.01 1.29 -0.05 1.89 c -1.66 0.04 -3.17 0.02 -4.75 0.07 c 0.05 -0.9 0.02 -0.91 -0.46 -0.85 m 7.89 -8.14 c -0.26 -0.09 -0.48 -0.07 -0.77 -0.07 c 0 -0.3 0 -0.61 0 -0.91 c 0.25 -0.01 0.54 0.03 0.77 -0.07 c 0.09 -0.05 0.07 -0.5 0.07 -0.79 c 0.3 0.01 0.61 0.02 0.92 0.03 c 0.01 0.25 0.02 0.51 0.03 0.77 c 0.25 0.01 0.5 0.02 0.75 0.03 c 0 0.32 0 0.64 0 0.97 c -0.24 0.02 -0.48 0.04 -0.72 0.05 c -0.02 0.25 -0.04 0.49 -0.05 0.74 c -0.3 0.01 -0.61 0.02 -0.92 0.04 c -0.01 -0.26 0.03 -0.55 -0.07 -0.79" style="fill:#0d0902"/></svg>