<svg xmlns="http://www.w3.org/2000/svg" viewBox="0 0 22 22"><path d="m 0.5 8.48 c 6.1 -20.62 33.72 1.52 15.1 12 c -7.28 4.5 -18.2 -1.39 -15.1 -12" style="fill:#ff8c00"/><g style="fill:#fff"><path d="m 5.3 9 h 10.86 c 0.1 0 0.18 0.08 0.18 0.18 v 7.71 c 0 0.1 -0.08 0.18 -0.18 0.18 h -10.86 c -0.1 0 -0.18 -0.08 -0.18 -0.18 v -7.71 c 0 -0.1 0.08 -0.18 0.18 -0.18"/><path d="m 6.07 8.48 c 0 -0.01 0.02 -0.16 0.05 -0.32 c 0.31 -1.91 1.75 -3.43 3.65 -3.83 c 0.39 -0.08 1.39 -0.08 1.78 0 c 1.9 0.41 3.34 1.92 3.65 3.85 c 0.02 0.15 0.05 0.29 0.05 0.3 c 0 0.02 -2.07 0.03 -4.59 0.03 c -2.52 0 -4.59 -0.01 -4.59 -0.03"/></g></svg>