<svg xmlns="http://www.w3.org/2000/svg" viewBox="0 0 22 22"><path d="m 0.5 8.48 c 6.1 -20.62 33.72 1.52 15.1 12 c -7.28 4.5 -18.2 -1.39 -15.1 -12" style="fill:#ff8c00"/><g style="fill:#fff"><path d="m 5.3 9 h 10.86 c 0.1 0 0.18 0.08 0.18 0.18 v 7.71 c 0 0.1 -0.08 0.18 -0.18 0.18 h -10.86 c -0.1 0 -0.18 -0.08 -0.18 -0.18 v -7.71 c 0 -0.1 0.08 -0.18 0.18 -0.18"/><path d="m 6.21 4.39 h 8.85 c 0.1 0 0.18 0.08 0.18 0.18 v 3.82 c 0 0.1 -0.08 0.18 -0.18 0.18 h -8.85 c -0.1 0 -0.18 -0.08 -0.18 -0.18 v -3.82 c 0 -0.1 0.08 -0.18 0.18 -0.18"/></g></svg>