<svg xmlns="http://www.w3.org/2000/svg" viewBox="0 0 22 22"><path d="m 8.48 0.28 c -20.61 4.3 1.52 33.85 12 16.1 c 4.49 -6.89 -1.39 -18.3 -12 -16.1" style="fill:#ff8c00"/><g style="fill:#fff"><path d="m 17.73 13.98 c -0.39 -0.22 -0.92 -0.43 -1.31 -0.65 c 0.01 -0.09 0.03 -0.17 0.03 -0.25 c 0 -0.3 -0.04 -0.6 -0.11 -0.88 c 0.35 -0.27 0.82 -0.57 1.17 -0.85 c -0.09 -0.26 -0.2 -0.5 -0.34 -0.73 c -0.44 0.09 -0.98 0.25 -1.43 0.34 c -0.23 -0.31 -0.48 -0.57 -0.8 -0.79 c 0.09 -0.45 0.25 -0.98 0.34 -1.41 c -0.23 -0.13 -0.48 -0.24 -0.74 -0.34 c -0.28 0.35 -0.58 0.81 -0.86 1.16 c -0.28 -0.07 -0.58 -0.11 -0.89 -0.11 c -0.09 0 -0.17 0.02 -0.25 0.03 c -0.23 -0.39 -0.44 -0.9 -0.66 -1.3 c -0.25 0.04 -0.5 0.11 -0.74 0.2 c 0.01 0.44 0.09 1 0.09 1.44 c -0.36 0.17 -0.69 0.38 -0.97 0.65 c -0.43 -0.16 -0.92 -0.41 -1.34 -0.57 c -0.16 0.19 -0.3 0.41 -0.43 0.62 c 0.29 0.34 0.7 0.7 1 1.05 c -0.16 0.34 -0.24 0.71 -0.29 1.1 c -0.43 0.15 -0.99 0.28 -1.43 0.43 c 0 0.27 0.01 0.53 0.06 0.79 c 0.45 0.07 1.02 0.1 1.48 0.17 c 0.11 0.37 0.24 0.73 0.46 1.05 c -0.24 0.38 -0.57 0.81 -0.8 1.19 c 0.17 0.2 0.36 0.39 0.57 0.56 c 0.38 -0.22 0.81 -0.55 1.2 -0.79 c 0.31 0.21 0.68 0.34 1.05 0.45 c 0.07 0.46 0.1 1.02 0.17 1.47 c 0.26 0.04 0.52 0.05 0.8 0.06 c 0.15 -0.43 0.28 -0.98 0.43 -1.42 c 0.39 -0.04 0.77 -0.13 1.11 -0.28 c 0.35 0.29 0.72 0.7 1.05 0.99 c 0.22 -0.13 0.43 -0.27 0.63 -0.42 c -0.16 -0.42 -0.41 -0.91 -0.57 -1.33 c 0.27 -0.28 0.48 -0.61 0.66 -0.96 c 0.45 0 1 0.07 1.45 0.08 c 0.08 -0.23 0.15 -0.48 0.2 -0.73 m -3.11 -0.9 c 0 1 -0.82 1.81 -1.82 1.81 c -1 0 -1.82 -0.81 -1.82 -1.81 c 0 -1 0.82 -1.81 1.82 -1.81 c 1 0 1.82 0.81 1.82 1.81"/><path d="m 10.89 7 c -0.04 -0.2 -0.12 -0.4 -0.2 -0.59 c -0.57 -0.02 -1.32 0.08 -1.51 -0.14 c -0.19 -0.22 -0.03 -0.94 0.03 -1.5 c -0.21 -0.12 -0.44 -0.21 -0.68 -0.28 c -0.36 0.43 -0.77 1.03 -1.05 1.04 c -0.29 0.02 -0.73 -0.57 -1.14 -0.96 c -0.23 0.09 -0.45 0.23 -0.66 0.37 c 0.11 0.55 0.34 1.24 0.17 1.47 c -0.17 0.23 -0.92 0.24 -1.48 0.31 c -0.07 0.23 -0.1 0.46 -0.12 0.71 c 0.51 0.25 1.21 0.51 1.29 0.79 c 0.08 0.29 -0.42 0.88 -0.71 1.36 c 0.14 0.2 0.31 0.37 0.48 0.54 c 0.52 -0.23 1.18 -0.65 1.46 -0.54 c 0.27 0.11 0.43 0.88 0.63 1.41 c 0.07 0 0.13 0.03 0.2 0.03 c 0.18 0 0.35 -0.03 0.52 -0.06 c 0.15 -0.55 0.22 -1.33 0.48 -1.47 c 0.26 -0.14 0.96 0.22 1.51 0.39 c 0.16 -0.18 0.3 -0.38 0.43 -0.59 c -0.34 -0.45 -0.91 -0.98 -0.86 -1.27 c 0.05 -0.29 0.75 -0.6 1.23 -0.91 c -0.01 -0.04 0.01 -0.07 0 -0.11 m -1.71 0.57 c 0 0.84 -0.69 1.53 -1.54 1.53 c -0.85 0 -1.54 -0.68 -1.54 -1.53 c 0 -0.84 0.69 -1.53 1.54 -1.53 c 0.85 0 1.54 0.68 1.54 1.53"/></g></svg>