<svg xmlns="http://www.w3.org/2000/svg" viewBox="0 0 22 22"><path d="m 17.21 2.35 c -10.93 -7.88 -22.92 6.67 -14.1 15.95 c 8.28 8.74 22 0.64 18.29 -10.25 c -0.79 -2.27 -2.14 -4.26 -4.14 -5.7" style="fill:#006789"/><path d="m 5.06 11.1 v -5.74 h 11.86 v 11.48 h -11.86 m 11.39 -5.74 v -5.29 h -10.93 v 10.59 h 10.93 m -10.32 -0.59 c -0.08 -0.08 -0.08 -9.32 0 -9.4 c 0.08 -0.08 9.63 -0.08 9.71 0 c 0.08 0.08 0.08 9.32 0 9.4 c -0.08 0.08 -2.59 0.08 -2.67 0 c -0.04 -0.04 -0.05 -0.86 -0.05 -3.41 v -3.36 h -0.74 v 3.36 c 0 2.55 -0.01 3.37 -0.05 3.41 c -0.08 0.08 -2.59 0.08 -2.67 0 c -0.04 -0.04 -0.05 -0.86 -0.05 -3.41 v -3.36 h -0.74 v 3.36 c 0 2.55 -0.02 3.37 -0.05 3.41 c -0.08 0.08 -2.59 0.08 -2.67 0" style="fill:#701b90"/><g style="fill:#0ff"><path d="m 5.09 13.64 c 0.13 -0.06 0.27 -0.11 0.4 -0.17 c 0.02 1.07 0.01 1.88 0.01 3 c 3.65 0 7.3 0 10.95 0 c 0 -0.75 0 -1.5 0 -2.25 c 0.15 0.12 0.3 0.24 0.45 0.36 c 0 0.78 0 1.56 0 2.34 c -3.95 0 -7.89 0 -11.83 0 c 0 -1.1 0.01 -2.2 0.01 -3.3"/><path d="m 6.13 12.97 c 0.43 -0.52 0.8 -1.25 1.35 -1.58 c 0.53 -0.24 0.75 0.46 1.22 0.63 c 0.16 0.05 0.17 0.09 0.13 0.46 c -0.07 1.16 -0.05 2.07 -0.05 3.26 c -0.88 0 -1.76 0 -2.64 0 c 0 -0.96 0 -1.78 0 -2.77"/><path d="m 9.66 12.56 c 0.47 -0.06 0.81 -0.43 1.04 -0.67 c 0.44 -0.48 1.33 -1.11 1.55 -1.11 c 0.08 1.75 0.05 3.08 0.05 4.96 c -0.88 0 -1.76 0 -2.64 0 c 0 -1.06 0 -2.13 0 -3.18"/><path d="m 13.18 11.1 l 0.48 0.34 c 0.45 0.32 0.49 0.38 0.64 0.87 c 0.2 0.66 0.23 0.69 0.94 1.16 l 0.58 0.38 c 0 0.64 0 1.27 0 1.91 c -0.88 0 -1.76 0 -2.64 0 c 0 -1.55 0 -3.11 0 -4.66"/></g></svg>