<svg xmlns="http://www.w3.org/2000/svg" viewBox="0 0 22 22"><path d="m 0.4 13.48 c 1.35 8.91 13.39 11.3 18.7 4.93 c 4.68 -4.73 3.52 -13.77 -2.23 -16.88 c -6.59 -4.14 -16.2 0.98 -16.72 9.24 c -0.05 0.91 0.02 1.82 0.24 2.7" style="fill:#9931cc"/><g style="fill:#fff"><path d="m 3.23 11.1 c 0.27 -0.45 0.45 -0.84 0.86 -1.38 c 0.48 -0.11 0.87 0.01 1.48 -0.07 c 0.23 0.08 0.39 0.3 0.96 1.31 l 0.11 0.19 c -0.28 0.47 -0.55 0.95 -0.84 1.42 c -0.61 0 -1.27 0.03 -1.78 0.05 c -0.7 -1.25 -0.2 -0.49 -0.79 -1.52"/><path d="m 4.25 8.42 c 0 -0.24 0.51 -1.2 0.96 -1.81 c 0.42 -0.57 1.27 -1.41 1.63 -1.6 c 0.54 0.07 0.44 0.76 1.04 0.46 c 0.4 -0.2 0.44 -0.3 0.28 -0.68 c -0.15 -0.34 -0.16 -0.43 -0.08 -0.51 c 0.18 -0.16 1.3 -0.5 2.1 -0.64 c 0.51 -0.09 1.77 -0.07 2 0.02 c 0.13 0.05 0.14 0.07 0.12 0.18 c -0.05 0.27 -0.8 1.52 -0.96 1.63 c -0.05 0.03 -0.29 0.08 -0.53 0.11 c -1.18 0.13 -2.13 0.5 -3 1.2 c -0.72 0.36 -1.34 1.58 -1.65 1.78 c -0.31 0.01 -1.87 0.2 -1.88 -0.14"/><path d="m 13.4 7.11 c -0.41 -0.59 -0.41 -1.01 -0.8 -1.55 c 0.29 -0.47 0.53 -1 0.87 -1.44 c 0.63 -0.01 1.1 0.02 1.76 0.04 c 0.27 0.46 0.55 0.91 0.82 1.37 c -0.3 0.48 -0.48 0.99 -0.92 1.59 c -0.3 0.01 -1.08 -0.01 -1.74 -0.01"/><path d="m 16.82 15.8 c -0.16 -0.17 -0.52 -0.76 -0.73 -1.16 c -0.23 -0.46 -0.25 -0.35 0.13 -1.22 c 0.38 -0.88 0.54 -1.75 0.48 -2.57 c -0.05 -0.8 -0.18 -1.31 -0.55 -2.17 c -0.13 -0.29 -0.23 -0.57 -0.23 -0.62 c 0 -0.18 0.61 -1.25 0.88 -1.54 c 0.12 -0.13 0.14 -0.14 0.2 -0.09 c 0.19 0.16 0.69 0.93 0.96 1.48 c 0.31 0.63 0.75 2.3 0.68 2.55 c -0.27 0.25 -0.56 0.09 -0.82 0.3 c -0.05 0.09 -0.05 0.72 -0.01 0.79 c 0.27 0.2 0.5 0.12 0.81 0.25 c 0.08 0.1 -0.13 1.1 -0.41 1.91 c -0.22 0.64 -0.76 1.64 -1.12 2.05 c -0.14 0.16 -0.16 0.17 -0.27 0.04"/><path d="m 13.39 18.1 c -0.13 -0.17 -0.72 -1.19 -0.77 -1.31 c 0.24 -0.58 0.49 -0.96 0.83 -1.55 c 0.56 0.03 1.13 0 1.69 0.05 c 0.07 0.02 0.32 0.4 0.8 1.28 c 0.07 0.19 -0.63 1.2 -0.91 1.63 c -1.33 -0.05 -1.7 0 -1.66 -0.1"/><path d="m 10.76 18.7 c -1.09 -0.1 -2.24 -0.38 -2.61 -0.65 c -0.3 -0.5 0.4 -0.91 -0.26 -1.22 c -0.47 -0.21 -0.7 0.25 -0.85 0.45 c -0.09 0.13 -0.09 0.13 -0.2 0.05 c -0.39 -0.26 -1.52 -1.46 -1.85 -1.96 c -0.27 -0.41 -0.62 -1.07 -0.71 -1.33 c -0.11 -0.29 -0.09 -0.3 1.03 -0.3 h 0.95 c 0.54 0.77 1.17 1.54 1.92 2.07 c 0.73 0.5 1.87 0.89 2.77 0.93 l 0.45 0.02 c 0.24 0.59 0.89 1.17 0.95 1.79 c -0.05 0.14 -0.85 0.22 -1.58 0.15"/></g></svg>