<svg xmlns="http://www.w3.org/2000/svg" viewBox="0 0 22 22"><path d="m 4.82 2.35 c 10.93 -7.88 22.93 6.67 14.1 15.95 c -8.28 8.74 -22 0.64 -18.29 -10.25 c 0.79 -2.27 2.14 -4.26 4.14 -5.7" style="fill:#105331"/><path d="m 5.06 11.1 v -5.74 h 11.86 v 11.48 h -11.86 m 11.39 -5.74 v -5.29 h -10.93 v 10.59 h 10.93 m -10.32 -0.59 c -0.08 -0.08 -0.08 -9.32 0 -9.4 c 0.08 -0.08 9.63 -0.08 9.71 0 c 0.08 0.08 0.08 9.32 0 9.4 c -0.08 0.08 -2.59 0.08 -2.67 0 c -0.04 -0.04 -0.05 -0.86 -0.05 -3.41 v -3.36 h -0.74 v 3.36 c 0 2.55 -0.01 3.37 -0.05 3.41 c -0.08 0.08 -2.59 0.08 -2.67 0 c -0.04 -0.04 -0.05 -0.86 -0.05 -3.41 v -3.36 h -0.74 v 3.36 c 0 2.55 -0.02 3.37 -0.05 3.41 c -0.08 0.08 -2.59 0.08 -2.67 0" style="fill:#e8f6ec"/></svg>