<svg xmlns="http://www.w3.org/2000/svg" viewBox="0 0 22 22"><path d="m 2.79 5.77 c -7.78 8.79 3.74 18.1 10.48 15.8 c 6.75 -2.29 11.28 -8.74 6.87 -14.4 c -4.41 -5.66 -8.74 -11.12 -16.52 -2.33" style="fill:#ff7f44"/><path d="m 6.26 17.41 c -0.77 0.08 0.07 -3.9 0.07 -4.65 c 0 -0.98 0.26 -4.1 0.39 -4.99 c 0.08 -0.55 1.82 1.26 3.06 0.85 c 0.86 -0.28 1.96 -0.48 2.75 -0.19 c 1.2 0.45 2.69 -0.88 2.95 -0.6 c 0.77 0.82 0.43 3.32 0.5 4.62 c 0.05 0.93 0.91 4.07 0.48 4.95 c -0.25 0.51 -1.68 -1.09 -2.18 -0.59 c -3.04 1.5 -4.43 -0.77 -8 0.6" style="fill:#889ed5"/><path d="m 6.84 20.7 c 0.02 -0.09 0.23 -0.54 0.45 -0.94 c 0.21 -0.39 0.38 -0.84 0.44 -1.19 c 0.05 -0.31 0.14 -0.76 0.19 -1.01 c 0.05 -0.25 0.07 -0.47 0.05 -0.5 c -0.02 -0.03 -0.33 0.09 -0.69 0.26 c -0.77 0.36 -1.4 0.41 -1.66 0.13 c -0.14 -0.15 -0.15 -0.29 -0.11 -1.27 c 0.05 -1.21 0.28 -2.69 0.46 -3.05 c 0.07 -0.13 0.12 -0.3 0.12 -0.39 c 0 -0.08 0.06 -0.27 0.13 -0.4 c 0.23 -0.43 0.18 -0.57 -0.21 -0.57 c -0.29 0 -0.4 0.05 -0.7 0.36 c -0.44 0.45 -0.84 1.15 -0.85 1.46 c 0 0.72 -0.29 0.65 -0.66 -0.16 c -0.36 -0.77 -0.35 -0.93 0.11 -1.68 c 0.18 -0.29 0.29 -0.56 0.26 -0.64 c -0.09 -0.23 -0.58 0.13 -0.84 0.62 c -0.34 0.63 -0.42 0.7 -0.56 0.51 c -0.12 -0.8 -0.34 -1.48 0.2 -1.99 c 0.37 -0.35 1.81 -1.06 2.28 -1.12 c 0.19 -0.02 0.49 0.02 0.75 0.11 c 0.24 0.09 0.46 0.13 0.48 0.11 c 0.03 -0.03 0.01 -0.35 -0.04 -0.71 c -0.1 -0.71 -0.03 -1 0.27 -1.19 c 0.19 -0.12 0.77 0.07 1.21 0.41 c 0.19 0.14 0.39 0.3 0.45 0.34 c 0.43 0 0.54 -0.38 0.82 -0.04 c 0.2 0.25 0.23 0.26 0.34 0.13 c 0.15 -0.18 -0.01 -0.52 -0.51 -1.08 c -0.67 -0.75 -1 -2.57 -0.6 -3.23 c 0.22 -0.36 0.84 -0.62 1.18 -0.5 c 0.35 0.13 0.45 0.56 0.49 2.18 c 0.03 1.36 0.18 2.36 0.38 2.49 c 0.17 0.11 1.48 0.03 1.59 -0.09 c 0.14 -0.15 0.32 -1.13 0.3 -1.58 c -0.02 -0.59 0.11 -2.48 0.18 -2.68 c 0.13 -0.33 0.44 -0.42 0.9 -0.24 c 0.55 0.21 0.73 0.52 0.73 1.3 c 0 1.04 -0.48 2.23 -1.16 2.86 c -0.12 0.11 -0.22 0.25 -0.22 0.31 c 0 0.36 0.29 0.53 0.38 0.22 c 0.11 -0.33 0.29 -0.39 0.56 -0.19 l 0.25 0.18 l 0.37 -0.28 c 0.56 -0.43 1.06 -0.63 1.33 -0.54 c 0.3 0.11 0.36 0.36 0.27 1.19 c -0.04 0.37 -0.05 0.7 -0.03 0.72 c 0.03 0.03 0.23 -0.02 0.45 -0.1 c 0.74 -0.27 1.19 -0.15 2.63 0.66 c 0.77 0.43 0.88 0.67 0.77 1.64 c -0.06 0.6 -0.1 0.69 -0.24 0.69 c -0.11 0 -0.26 -0.16 -0.45 -0.49 c -0.3 -0.52 -0.55 -0.72 -0.77 -0.63 c -0.11 0.04 -0.1 0.1 0.06 0.37 c 0.42 0.71 0.6 1.05 0.6 1.16 c 0 0.21 -0.7 1.45 -0.81 1.45 c -0.14 0 -0.22 -0.19 -0.22 -0.53 c 0 -0.36 -0.27 -0.85 -0.77 -1.36 c -0.35 -0.36 -0.48 -0.44 -0.73 -0.44 c -0.17 0 -0.32 0.03 -0.34 0.07 c -0.02 0.04 0.05 0.34 0.18 0.66 c 0.54 1.46 0.85 4.38 0.51 4.89 c -0.12 0.19 -0.2 0.22 -0.6 0.22 c -0.73 0.03 -1.07 -0.49 -1.74 -0.57 c -0.02 0.31 0.14 0.59 0.14 0.92 c 0 0.41 0.18 0.97 0.55 1.7 c 0.17 0.34 0.43 0.74 0.43 0.79 c 0 0.16 -0.29 0.38 -0.48 -0.19 c -0.05 -0.11 -0.19 -0.29 -0.3 -0.41 c -0.39 -0.63 -0.59 -1.52 -0.68 -2.09 c -0.04 -0.24 -0.18 -0.47 -0.52 -0.83 c -0.43 -0.47 -0.46 -0.53 -0.41 -0.83 c 0.07 -0.3 0.17 -0.62 0.14 -0.9 c -0.05 -0.35 -0.02 -0.38 0.24 -0.24 c 0.2 0.11 0.22 0.48 0.04 0.72 c -0.27 0.36 -0.04 0.91 0.39 0.91 c 0.14 0 0.27 -0.04 0.3 -0.09 c 0.08 -0.13 0.35 -0.1 0.48 0.05 c 0.18 0.21 1.08 0.64 1.37 0.64 c 0.4 0 0.47 -0.27 0.35 -1.42 c -0.05 -0.52 -0.14 -1.2 -0.19 -1.5 c -0.13 -0.78 -0.74 -2.71 -0.89 -2.84 c -0.19 -0.16 -0.16 -0.21 0.16 -0.33 c 0.24 -0.09 0.39 -0.07 0.92 0.06 c 0.59 0.15 0.66 0.19 1.05 0.65 c 0.12 0.12 0.58 0.96 0.82 0.79 c 0.06 -0.06 -0.44 -1.08 -0.64 -1.3 c -0.09 -0.1 -0.38 -0.32 -0.66 -0.51 c -0.31 -0.27 -0.68 -0.2 -0.3 -0.5 c 0.13 -0.1 0.29 -0.15 0.42 -0.12 c 0.49 0.09 1.27 0.31 1.57 0.44 c 0.28 0.12 0.32 0.12 0.32 0 c 0 -0.13 -0.59 -0.47 -1.29 -0.75 c -0.77 -0.57 -2.05 0.52 -2.36 0.38 c -0.21 -0.09 -0.31 -0.45 -0.13 -0.45 c 0.11 0 0.23 -0.5 0.31 -1.22 c 0.05 -0.49 0.04 -0.59 -0.08 -0.63 c -0.23 -0.09 -0.64 0.14 -1.09 0.58 c -0.23 0.23 -0.44 0.41 -0.48 0.41 c -0.34 -0.21 -0.51 -0.19 -0.77 -0.07 c -0.38 0.21 -0.53 0.25 -0.8 -0.01 c -0.26 -0.26 -0.28 -0.26 -1.16 -0.26 c -0.84 0 -0.91 0.01 -1.16 0.23 l -0.27 0.22 l -0.49 -0.18 c -0.49 -0.21 -0.47 -0.08 -0.82 0.07 c -0.04 0 -0.25 -0.19 -0.48 -0.41 c -0.64 -0.65 -1.21 -0.8 -1.21 -0.33 c 0 0.38 0.25 1.56 0.34 1.59 c 0.17 0.06 0.08 0.36 -0.13 0.46 c -0.18 0.08 -0.25 0.07 -0.41 -0.07 c -0.32 -0.29 -0.75 -0.46 -1.17 -0.46 c -0.38 0 -1.04 0.19 -1.3 0.38 c -0.07 0.05 -0.27 0.17 -0.45 0.25 c -1.25 0.83 0.74 0.01 1.09 -0.08 c 0.5 -0.13 0.57 -0.13 0.81 0 c 0.15 0.07 0.27 0.17 0.27 0.22 c 0 0.04 -0.16 0.17 -0.36 0.28 c -0.57 0.26 -1.32 1.05 -1.36 1.63 c 0 0.13 0.04 0.24 0.08 0.24 c 0.04 0 0.32 -0.31 0.61 -0.69 c 0.38 -0.48 0.59 -0.69 0.72 -0.69 c 0.1 0 0.39 -0.05 0.64 -0.12 c 0.35 -0.09 0.53 -0.1 0.78 -0.02 c 0.29 0.09 0.39 0.05 0.13 0.25 c -0.48 0.36 -1.18 3.44 -1.13 4.97 l 0.02 0.81 l 0.25 0.03 c 0.34 0.04 0.95 -0.21 1.31 -0.52 c 0.29 -0.25 0.31 -0.26 0.64 -0.14 c 0.41 0.13 0.59 0.06 0.71 -0.3 c 0.15 -0.4 -0.39 -0.85 -0.11 -1.15 c 0.23 -0.22 0.3 -0.09 0.38 0.65 l 0.09 0.75 l -0.41 0.43 c -0.44 0.46 -0.59 0.76 -0.59 1.16 c -0.16 0.66 -0.29 1.33 -0.67 1.86 c -0.17 0.23 -0.45 0.91 -0.51 1 c -0.09 0.15 -0.3 0.09 -0.23 -0.22 m 2.77 -14.16 c 0.17 -0.79 0.06 -2.22 -0.2 -2.47 c -0.1 -0.11 -0.16 -0.1 -0.39 0.02 c -0.44 0.23 -0.5 0.48 -0.23 0.95 c 0.18 0.3 0.25 0.55 0.28 1.06 c 0.02 0.36 0.09 0.71 0.13 0.77 c 0.17 0.21 0.31 0.11 0.4 -0.32 m 3.61 0.27 c 0.05 -0.09 0.09 -0.31 0.09 -0.49 c 0 -0.37 0.17 -0.99 0.38 -1.39 c 0.19 -0.37 0.1 -0.64 -0.27 -0.82 c -0.25 -0.12 -0.33 -0.13 -0.42 -0.04 c -0.23 0.23 -0.29 2.48 -0.08 2.81 c 0.09 0.14 0.2 0.11 0.3 -0.07" style="fill:#4f2c2f"/><path d="m 10.79 16.5 c -1.09 -0.03 -1.42 -0.06 -1.51 -0.18 c -0.07 -0.4 -0.2 -0.82 -0.2 -1.25 c 0.01 -0.01 0.14 0.02 0.28 0.07 c 0.8 0.12 2.54 0.32 3.32 0.02 c 0.19 -0.08 0.41 -0.16 0.48 -0.18 c 0.3 -0.18 0.06 1.13 -0.09 1.21 c -0.99 0.4 -1.61 0.32 -2.28 0.3" style="fill:#2896d4"/><path d="m 14 12.1 c 0 0.5 -0.44 0.89 -0.98 0.89 c -0.54 0 -0.98 -0.4 -0.98 -0.89 c 0 -0.49 0.44 -0.89 0.98 -0.89 c 0.54 0 0.98 0.4 0.98 0.89" style="fill:#fff"/><path d="m 12.29 12.78 c -0.36 -0.2 -0.34 -1.07 0.03 -1.34 c 0.28 -0.2 0.37 -0.05 0.39 0.67 c 0.02 0.72 -0.07 0.86 -0.41 0.67" style="fill:#3445b8"/><path d="m 9.82 12.1 c 0 0.48 -0.44 0.87 -0.98 0.87 c -0.54 0 -0.98 -0.39 -0.98 -0.87 c 0 -0.48 0.44 -0.87 0.98 -0.87 c 0.54 0 0.98 0.39 0.98 0.87" style="fill:#fff"/><path d="m 9.59 12.79 c 0.36 -0.16 0.34 -1.03 -0.03 -1.33 c -0.27 -0.23 -0.36 -0.08 -0.39 0.63 c -0.02 0.71 0.06 0.86 0.41 0.71" style="fill:#3445b8"/><path d="m 3.99 12.6 c -0.04 -0.19 0.33 -0.71 0.67 -1.17 c 0.21 -0.27 0.28 -0.33 0.68 -0.55 c 0.43 -0.24 0.54 -0.34 0.49 -0.43 c -0.05 -0.1 -0.7 -0.2 -0.84 -0.2 c -0.17 0 -0.48 0.35 -1.11 0.56 c -0.29 0.1 -0.7 0.11 -0.71 0.1 c -0.05 -0.05 0.11 -0.46 0.55 -0.72 c 0.5 -0.29 1.12 -0.51 1.54 -0.58 c 0.29 -0.09 0.31 0.13 0.58 0.13 c 0.18 0 0.4 0.21 0.71 0.43 c 0.11 0.08 0.78 -0.12 0.82 -0.12 c 3.27 -0.9 4.62 -0.84 8 0.03 c 0.05 -0.02 0.42 0.13 0.53 0.05 c 0.33 -0.25 0.41 -0.73 1.1 -0.5 c 0.57 -0.06 0.83 0.25 1.27 0.31 c 0.75 0.11 1.11 0.64 0.85 1.06 c -0.11 0.18 -0.37 -0.38 -0.55 -0.45 c -0.4 -0.14 -1.13 -0.14 -1.29 -0.14 c -0.21 0.47 0.2 0.46 0.47 0.71 c 0.14 0.16 0.74 1.11 0.57 1.68 c -0.16 0.5 -0.4 -0.09 -0.57 -0.35 c -0.69 -1 -0.79 -1.27 -1.87 -1.29 c -3.63 -0.31 -6.89 -0.4 -9.87 0.14 c -1.09 0.01 -0.92 0.68 -1.66 1.43 c -0.22 -0.05 -0.54 0.29 -0.39 -0.14" style="fill:#d8373e"/><g style="fill:#475b95"><path d="m 10.45 12.97 c 0.03 -0.04 0.28 0.08 0.55 0.28 l 0.1 0.07 c 0.27 0.2 0.46 0.4 0.43 0.45 c -0.03 0.04 -0.28 -0.08 -0.55 -0.28 l -0.1 -0.07 c -0.27 -0.2 -0.46 -0.4 -0.43 -0.45"/><path d="m 11.48 12.91 c -0.03 -0.05 -0.25 0.09 -0.49 0.31 l -0.09 0.09 c -0.24 0.22 -0.41 0.45 -0.38 0.49 c 0.03 0.05 0.25 -0.09 0.49 -0.31 l 0.09 -0.09 c 0.24 -0.22 0.41 -0.45 0.38 -0.49"/></g><g style="fill:#f4f5f5"><path d="m 9.25 6.86 c -0.05 -0.06 -0.09 -0.21 -0.13 -0.55 c 0.17 -0.64 -0.69 -1.42 -0.43 -1.92 c 0.08 -0.15 0.41 -0.36 0.56 -0.36 c 0.23 0 0.36 0.48 0.38 1.44 c 0.03 1.07 -0.14 1.68 -0.39 1.4"/><path d="m 12.96 6.89 c -0.13 -0.14 -0.18 -0.98 -0.13 -1.76 c 0.06 -0.86 0.14 -1.1 0.33 -1.1 c 0.13 0 0.48 0.22 0.55 0.34 c 0.09 0.64 -0.34 1.25 -0.41 1.89 c -0.05 0.52 -0.2 0.79 -0.34 0.62"/></g><path d="m 7.13 20.96 c 0 -0.08 0.38 -0.86 0.61 -1.25 c 0.41 -1.01 0.6 -2.18 1.21 -2.89 c -0.2 -0.91 1.96 0.23 4.17 -0.61 l 0.05 0.16 c 0.03 0.09 0.23 0.39 0.46 0.66 c 0.32 0.39 0.43 0.59 0.5 0.93 c 0.15 0.75 0.4 1.46 0.66 1.88 c 0.14 0.22 0.31 0.5 0.38 0.62 l 0.13 0.21 c -2.2 1.31 -5.42 1.64 -8.16 0.28" style="fill:#2853d7"/><path d="m 11.57 10.53 c -0.13 -0.11 -0.25 -0.12 -0.39 -0.04 c -0.29 0.14 -0.59 -0.08 -0.82 0.04 c -0.12 0.06 -0.14 0.06 -0.28 0.01 c -0.18 -0.07 -0.31 -0.27 -0.27 -0.43 c 0.02 -0.09 0.09 -0.14 0.39 -0.28 c 0.57 -0.27 0.92 -0.31 1.17 -0.13 c 0.23 0.14 0.65 0.24 0.66 0.5 c 0 0.17 -0.16 0.43 -0.27 0.43 c -0.04 0 -0.12 -0.04 -0.18 -0.1" style="fill:#fff"/><path d="m 11.67 14.46 c -0.14 0.09 -0.34 -0.24 -0.5 -0.31 c -0.31 -0.11 -0.46 0.39 -0.71 0.29 c -0.25 0.08 -0.48 -0.35 -0.62 -0.3 c -0.19 0.05 -0.02 0.27 0.02 0.4 c 0.02 0.07 0.19 0.47 0.52 0.36 c 0.89 -0.3 0.83 -0.2 1.13 -0.03 c 0.74 -0.02 1.09 -1.04 0.63 -0.67 c -0.14 0.12 -0.41 0.21 -0.48 0.26" style="fill:#475b95"/></svg>