<svg xmlns="http://www.w3.org/2000/svg" viewBox="0 0 22 22"><path d="m 4.16 3.83 c -11.56 8.91 4 24.96 14.24 14.71 c 10.25 -8.84 -4.4 -25.98 -14.24 -14.71" style="fill:#2c2c2c"/><path d="m 10.49 16.91 c -1.14 -0.24 -2 -0.71 -2.86 -1.52 c -1.21 -1.16 -1.8 -2.55 -1.79 -4.25 c 0.01 -1.29 0.33 -2.3 1.08 -3.36 c 0.48 -0.69 1.47 -1.56 1.77 -1.56 c 0.06 0 0.53 0.42 1.04 0.94 c 0.8 0.81 0.92 0.96 0.89 1.12 c -0.07 0.28 0.09 0.71 0.35 0.98 l 0.25 0.25 v 3.29 l -0.29 0.31 c -0.48 0.52 -0.46 1.12 0.04 1.56 c 0.44 0.39 1.17 0.27 1.48 -0.23 c 0.26 -0.43 0.14 -1.17 -0.22 -1.36 c -0.14 -0.07 -0.14 -0.16 -0.14 -1.75 c 0 -0.92 0.02 -1.68 0.05 -1.68 c 0.03 0 0.3 0.26 0.61 0.57 c 0.55 0.55 0.56 0.57 0.56 0.93 c 0 0.45 0.18 0.77 0.52 0.93 c 0.69 0.33 1.43 -0.13 1.43 -0.88 c 0 -0.61 -0.41 -1.04 -1.02 -1.04 c -0.3 0 -0.35 -0.03 -0.98 -0.68 c -0.63 -0.64 -0.67 -0.69 -0.67 -0.99 c 0 -0.61 -0.42 -1.03 -1.02 -1.03 c -0.31 0 -0.34 -0.02 -1.14 -0.83 c -0.45 -0.46 -0.8 -0.86 -0.77 -0.9 c 0.06 -0.1 0.88 -0.29 1.53 -0.35 c 0.6 -0.05 1.57 0.06 2.21 0.26 c 0.25 0.07 0.72 0.3 1.05 0.49 c 2.4 1.4 3.48 4.18 2.64 6.84 c -0.28 0.9 -0.74 1.64 -1.46 2.36 c -0.71 0.7 -1.54 1.19 -2.46 1.46 c -0.7 0.2 -2 0.26 -2.67 0.12" style="fill:#645b88"/><path d="m 8.8 17.1 c -2.27 -0.61 -3.92 -2.37 -4.41 -4.71 c -0.13 -0.62 -0.13 -1.72 0 -2.34 c 0.46 -2.24 2.09 -3.99 4.29 -4.63 c 0.8 -0.23 0.82 -0.18 0.09 0.19 c -0.81 0.41 -1.19 0.7 -1.92 1.46 c -0.8 0.84 -1.25 1.66 -1.5 2.73 c -0.39 1.69 -0.03 3.61 0.94 4.94 c 0.65 0.89 1.39 1.52 2.45 2.07 c 0.8 0.42 0.81 0.49 0.07 0.29" style="fill:#f6941e"/></svg>