<svg xmlns="http://www.w3.org/2000/svg" viewBox="0 0 22 22"><path d="m 20.39 5.34 c -16.62 -19.36 -32.61 20.45 -6.9 16.36 c 5.64 -0.89 11.38 -11.14 6.9 -16.36" style="fill:#f4f4f4"/><path d="m 14 19.1 c -0.02 -0.07 -0.04 -0.48 -0.05 -0.91 c 0.13 -0.88 -0.64 -0.84 -0.82 -0.49 c -0.03 0.21 -0.42 0.8 -0.79 0.98 c -0.43 0.3 -0.5 0.3 -0.9 0.3 c -0.6 0 -0.75 -0.05 -0.78 -0.16 c -0.71 -0.53 -0.88 -1.23 -0.89 -1.74 c 0 -0.56 -0.01 -0.6 -0.13 -0.63 c -0.07 -0.02 -0.15 -0.09 -0.18 -0.17 l -0.05 -0.14 h -3.47 c -0.22 -0.29 -0.41 -0.46 -0.7 -0.69 l -0.03 -5.26 c -0.28 -0.01 -0.32 -0.35 -0.45 -0.41 c -0.18 -0.16 -0.5 -0.37 -0.5 -0.51 v -0.18 l 4.19 -0.03 c 3.67 -0.02 4.19 -0.04 4.19 -0.12 c -0.17 -0.16 -0.35 -0.13 -0.61 -0.15 v -0.33 c 0 -0.32 0 -0.33 0.2 -0.34 c 0.16 -0.02 0.21 0 0.26 0.13 c 0.06 0.16 0.25 0.16 0.3 0.3 c 0.13 0.22 0.47 0.19 0.55 0 c 0.07 -0.16 0.25 -0.16 0.3 -0.3 c 0.05 -0.12 0.09 -0.15 0.23 -0.13 c 0.16 0.02 0.17 0.03 0.17 0.34 v 0.33 c -0.19 0.02 -0.45 0.03 -0.55 0.15 c 1.18 0.04 1.65 0.09 3.04 0.09 c 0 -1.01 0 -2 0 -3 h -1.52 c -1.15 0 -1.52 0.02 -1.54 0.07 c 0.09 0.16 0.3 0.18 0.28 0.36 c -0.02 0.16 -0.03 0.16 -0.38 0.16 h -0.36 v -0.36 c 0 -0.33 0.01 -0.36 0.14 -0.38 c 0.08 -0.01 0.16 -0.08 0.2 -0.16 l 0.05 -0.15 l 1.78 0.02 l 1.78 0.02 l 0.06 4 l 0.3 0.02 c 0.51 0.02 0.58 0.05 0.58 0.25 c 0 0.2 -0.07 0.23 -0.58 0.25 l -0.3 0.02 l -0.02 2.63 l -0.02 2.63 c -0.13 0.01 -0.56 0.47 -0.62 0.59 c -0.04 0.12 -0.05 0.12 -2.59 0.12 h -2.56 l -0.05 0.14 c -0.62 0.47 0.24 2.13 0.54 1.5 c 0.34 -0.15 0.23 -0.77 0.48 -0.8 c 0.65 -0.64 0.74 -0.64 1.38 -0.64 c 1.29 0 1.49 0.54 1.49 1.69 c 0 0.55 -0.02 1.05 -0.04 1.1 c -0.05 0.12 -0.3 0.12 -0.35 0 c -0.02 -0.05 -0.04 -0.52 -0.04 -1.05 c 0 -0.91 -0.07 -1.05 -0.19 -1.09 c -0.52 -0.39 -0.3 -0.31 -0.88 -0.31 c -0.54 -0.03 -0.88 0.34 -1.07 0.74 c -0.01 0.25 -0.34 0.52 -0.5 0.61 c -0.24 0.2 -0.3 0.3 -0.55 0.3 c -0.37 0.06 -0.34 -0.2 -0.57 -0.31 c -0.38 -0.51 -0.43 -1.05 -0.43 -1.47 c 0 -0.77 0 -0.78 0.14 -0.83 c 0.09 -0.03 0.16 -0.11 0.17 -0.19 l 0.02 -0.14 l 5.08 -0.03 c 0.05 -0.21 0.23 -0.3 0.39 -0.32 v -5.23 c -3.4 0 -6.8 0 -10.21 0 l -0.02 2.61 c -0.02 2.6 -0.02 2.61 0.11 2.64 c 0.15 0.07 0.18 0.17 0.24 0.31 l 1.75 0.02 l 1.75 0.02 l 0.02 0.14 c 0.01 0.08 0.08 0.16 0.16 0.19 c 0.14 0.05 0.15 0.07 0.16 0.96 c -0.05 0.79 0.19 1.31 0.66 1.72 c 0.18 0.23 1.07 0.27 1.14 -0.01 c 0.49 -0.3 0.77 -0.93 0.99 -1.3 c 0.03 -0.11 0.08 -0.13 0.53 -0.13 c 0.46 0 0.5 0.01 0.55 0.14 c 0.25 0.19 0.34 0.51 0.36 1.02 c 0.02 1.03 0 1.1 -0.23 1.1 c -0.14 0 -0.19 -0.03 -0.21 -0.13 m -10.71 -0.86 c -0.05 -0.35 0.27 -0.25 0.36 -0.47 c 0.07 -0.19 0.36 -0.2 0.41 -0.02 c 0.02 0.07 0.1 0.15 0.18 0.18 c 0.37 0.33 -0.34 0.75 -0.54 0.76 c -0.38 0.03 -0.41 -0.14 -0.4 -0.44 m 0 -1.9 c -0.05 -0.35 0.27 -0.25 0.36 -0.47 c 0.37 -0.37 0.36 0.06 0.59 0.16 c 0.2 0.07 0.2 0.34 0 0.41 c -0.25 0.23 -0.27 0.33 -0.54 0.34 c -0.38 0.04 -0.41 -0.14 -0.4 -0.44 m 0.36 -2.08 c 0.42 -0.25 0.69 -0.26 0.71 0.23 c 0.07 0.39 -0.18 0.33 -0.31 0.57 c -0.7 0.19 -0.74 -0.25 -0.41 -0.8 m 2.94 0.86 c -0.03 -0.79 -0.01 -1.38 0 -2.21 h 1.64 c 0 0.12 0 0.24 0 0.36 c -0.41 0.02 -0.81 0.04 -1.21 0.06 c 0 0.16 0 0.32 0 0.47 c 0.3 0.02 0.61 0.04 0.91 0.06 c 0 0.12 0 0.23 0 0.36 c -0.3 0.02 -0.61 0.04 -0.91 0.06 c 0 0.16 0 0.32 0 0.48 c 0.41 0.02 0.81 0.04 1.21 0.06 c 0 0.12 0 0.24 0 0.36 c -0.5 -0.07 -1.22 0.17 -1.64 -0.04 m 1.95 0 c -0.04 -0.57 -0.01 -1.02 0 -1.62 h 0.51 c 0.49 0 0.52 0.01 0.55 0.14 c 0.02 0.08 0.06 0.14 0.09 0.14 c 0.04 0 0.08 -0.06 0.09 -0.14 c 0.03 -0.12 0.07 -0.14 0.39 -0.14 c 0.33 0 0.36 0.01 0.38 0.14 c 0.01 0.08 0.08 0.16 0.17 0.2 c 0.15 0.05 0.15 0.06 0.13 0.7 l -0.02 0.64 c -0.12 0 -0.25 0 -0.37 0 l -0.03 -0.59 l -0.03 -0.59 c -0.16 0 -0.32 0 -0.49 0 l -0.03 0.59 l -0.03 0.59 c -0.12 0 -0.24 0 -0.37 0 l -0.03 -0.59 l -0.03 -0.59 c -0.16 0 -0.32 0 -0.48 0 l -0.06 1.19 c -0.13 0.01 -0.27 0.02 -0.37 -0.04 m 2.89 -0.07 c -0.03 -0.08 -0.12 -0.15 -0.2 -0.16 c -0.13 -0.02 -0.14 -0.04 -0.14 -0.52 c 0 -0.49 0 -0.5 0.15 -0.54 c 0.27 -0.2 0.28 -0.33 0.55 -0.33 c 0.38 -0.1 0.31 0.27 0.55 0.33 c 0.14 0.03 0.15 0.06 0.17 0.46 c 0.02 0.4 0.03 0.43 0.17 0.49 c 0.12 0.04 0.15 0.09 0.13 0.22 c -0.02 0.13 -0.05 0.17 -0.18 0.18 c -0.13 0.02 -0.18 -0.01 -0.23 -0.13 c -0.08 -0.2 -0.17 -0.2 -0.25 0 c -0.05 0.13 -0.09 0.15 -0.36 0.15 c -0.27 0 -0.32 -0.02 -0.36 -0.14 m 0.57 -0.69 v -0.39 c -0.14 0 -0.28 0 -0.43 0 l -0.02 0.32 c -0.03 0.43 0 0.49 0.24 0.47 c 0.29 0.01 0.2 -0.17 0.2 -0.41 m 1.17 0.52 c -0.13 -0.02 -0.14 -0.04 -0.14 -0.52 c 0 -0.49 0 -0.5 0.15 -0.54 c 0.14 -0.18 0.28 -0.33 0.55 -0.33 c 0.3 0 0.33 0.02 0.37 0.15 c 0.09 0.2 0.33 0.2 0.33 0.39 c -0.37 0.22 -0.56 -0.09 -0.71 -0.08 l -0.2 0.02 c 0 0.26 0 0.52 0 0.77 c 0.18 0 0.42 0 0.46 -0.15 c 0.04 -0.17 0.45 -0.14 0.45 0.06 c 0.02 0.29 -0.25 0.19 -0.34 0.39 c -0.05 0.13 -0.09 0.14 -0.36 0.14 c -0.34 0.1 -0.32 -0.27 -0.56 -0.31 m 1.68 0.18 c -0.08 -0.21 0.13 -0.26 0.43 -0.29 c 0.21 -0.02 0.3 -0.05 0.3 -0.12 c 0 -0.07 -0.08 -0.09 -0.29 -0.11 c -0.24 -0.01 -0.3 -0.04 -0.34 -0.15 c -0.15 -0.18 -0.46 -0.44 -0.16 -0.57 c 0.11 -0.22 0.27 -0.33 0.55 -0.33 c 0.28 0 0.36 -0.07 0.36 0.21 c 0 0.2 0 0.21 -0.29 0.23 c -0.61 0.16 0.02 0.25 0.32 0.32 c 0.03 0.07 0.11 0.15 0.18 0.17 c 0.18 0.09 0.16 0.4 0 0.45 c -0.24 0.2 -0.33 0.31 -0.57 0.31 c -0.23 0 -0.47 -0.07 -0.49 -0.13 m -11.18 -1.39 c -0.17 -0.14 -0.02 -0.29 -0.02 -0.45 c -0.09 -0.34 0.27 -0.3 0.31 -0.54 c 0.48 -0.16 0.67 1.56 -0.29 0.99 m 0 -1.41 c -0.23 -0.75 -0.03 -1.08 0.68 -0.96 l 0.02 0.34 c 0.07 0.39 -0.18 0.33 -0.31 0.57 c -0.04 0.14 -0.33 0.18 -0.38 0.04 m 5.14 -0.06 c -0.03 -0.08 -0.11 -0.16 -0.18 -0.17 c -0.12 -0.03 -0.13 -0.07 -0.13 -0.84 c 0 -0.8 0 -0.81 0.14 -0.86 c 0.08 -0.03 0.16 -0.11 0.18 -0.18 c 0.43 -0.23 0.71 -0.11 1.35 -0.09 c 0 0.12 0 0.24 0 0.36 c -0.41 0.02 -0.81 0.04 -1.21 0.06 v 1.43 c 0.36 0 0.73 0 1.09 0 c 0.02 -0.34 -0.05 -0.48 -0.27 -0.51 c -0.25 -0.03 -0.27 -0.04 -0.27 -0.21 v -0.18 c 0.35 0 0.69 0 1.04 0 v 0.5 c 0 0.48 -0.01 0.5 -0.14 0.52 c -0.08 0.01 -0.16 0.08 -0.2 0.16 c -0.21 0.2 -1.3 0.24 -1.39 0 m 1.97 0.07 c -0.02 -0.04 -0.03 -0.43 -0.02 -0.85 l 0.02 -0.77 h 0.52 c 0.49 0 0.52 0.01 0.54 0.14 c 0.01 0.08 0.08 0.16 0.17 0.2 c 0.19 0.28 0.13 0.69 0.11 1.33 c -0.12 0 -0.24 0 -0.36 0 c -0.02 -0.39 -0.04 -0.79 -0.06 -1.19 c -0.16 0 -0.32 0 -0.48 0 c -0.02 0.39 -0.04 0.79 -0.06 1.19 c -0.14 0.03 -0.27 0.02 -0.36 -0.04 m 1.92 -0.07 c -0.03 -0.08 -0.11 -0.16 -0.18 -0.18 c -0.12 -0.03 -0.13 -0.06 -0.11 -0.7 l 0.02 -0.68 c 0.12 0 0.24 0 0.36 0 l 0.03 0.63 c 0.03 0.59 0.11 0.79 0.18 0.46 c 0.31 0 0.34 -0.34 0.36 -0.64 l 0.03 -0.45 c 0.12 0 0.24 0 0.36 0 v 1.66 l -0.17 0.02 c -0.13 0.02 -0.18 -0.01 -0.23 -0.13 c -0.07 -0.2 -0.17 -0.2 -0.24 0 c -0.08 0.2 -0.34 0.21 -0.42 0.01 m -9 -1.5 c -0.06 -0.22 -0.09 -0.6 0.1 -0.68 c 0.09 -0.03 0.16 -0.11 0.17 -0.19 c 0.32 -0.45 0.39 0.09 0.39 0.37 c 0.05 0.62 -0.12 0.6 -0.66 0.5 m 13.59 -1.29 c -0.02 -0.04 -0.04 -0.96 -0.04 -2.04 l -0.02 -1.96 l -2.02 -0.02 l -2 -0.02 l -0.05 0.14 c -0.03 0.08 -0.11 0.16 -0.18 0.17 c -0.22 0.27 -0.14 0.5 -0.16 0.91 h -0.36 c -0.36 0 -0.36 0 -0.36 -0.18 c 0 -0.14 0.03 -0.18 0.15 -0.21 c 0.14 -0.03 0.15 -0.06 0.17 -0.46 c -0.15 -0.41 0.29 -0.43 0.33 -0.68 c 0.02 -0.13 0.04 -0.14 0.81 -0.16 c 0.46 -0.02 0.79 -0.05 0.79 -0.09 c 0 -0.2 -0.32 -0.07 -0.79 -0.09 l -0.79 -0.03 c 0 -0.12 0 -0.23 0 -0.36 c 0.77 0 1.54 0 2.31 0 c 0.02 0.18 0.04 0.36 0.06 0.54 c 0.59 0 1.18 0 1.76 0 c 0.02 -0.18 0.04 -0.36 0.06 -0.54 c 0.24 0 0.48 0 0.73 0 l 0.02 2.33 c 0.02 2.25 0.02 2.34 0.14 2.41 c 0.14 0.09 0.16 0.32 0.02 0.36 c -0.17 0.07 -0.52 0.04 -0.54 -0.04 m -4.58 -1.67 c -0.2 -0.43 -0.19 -0.41 0.01 -0.76 c 0.11 -0.23 0.73 -0.21 0.77 0 c 0.25 0.49 0.18 0.34 0.01 0.76 c -0.16 0.21 -0.69 0.23 -0.78 0"/></svg>