<svg xmlns="http://www.w3.org/2000/svg" viewBox="0 0 22 22"><path d="m 8.89 21.67 c -2.03 -0.86 -4.85 -2.14 -5.11 -2.3 c -0.15 -0.1 -0.41 -0.36 -0.57 -0.57 c -0.46 -0.61 -2.96 -4.96 -3.07 -5.35 c -0.1 -0.36 -0.05 -1.67 0.1 -2.86 c 0.35 -3.5 0.17 -3.43 0.64 -4.18 c 0.1 -0.2 1.09 -1.36 2.21 -2.58 c 2.15 -2.33 2.38 -2.52 3.29 -2.7 c 2.44 -0.42 3.98 -0.94 6.18 -1.07 c 1.95 0.83 4.05 1.7 5.9 2.74 c 0.29 0.25 0.71 0.89 1.68 2.52 c 1.96 3.35 1.81 2.98 1.8 4.15 c -0.2 1.82 -0.19 4.86 -0.82 6.16 c -0.22 0.41 -3.08 3.64 -3.99 4.5 c -0.45 0.43 -0.9 0.62 -1.95 0.84 c -1.06 0.39 -3.55 0.8 -4.41 0.96 c -0.49 0.11 -1.07 0.07 -1.86 -0.27" style="fill:#0a0a0a"/><path d="m 10.57 18.43 c -1.55 -0.8 -5.72 -3.17 -6 -3.41 l -0.19 -0.16 l -0.02 -2.51 c -0.02 -1.38 0 -3.09 0.02 -3.8 l 0.05 -1.3 l 0.41 -0.24 c 1.61 -0.95 4.99 -2.86 5.61 -3.17 l 0.75 -0.38 l 0.5 0.27 c 0.61 0.33 1.11 0.67 1.11 0.74 c 0 0.08 -1.77 1.14 -4 2.43 c -1.11 0.63 -2.13 1.23 -2.26 1.34 l -0.23 0.19 l -0.03 1.04 c -0.01 0.57 0 1.81 0.03 2.76 l 0.05 1.73 l 2.32 1.31 c 1.27 0.72 2.37 1.31 2.43 1.31 c 0.2 0 0.59 -0.2 2.86 -1.48 c 3.17 -1.79 3.83 -2.14 3.89 -2.09 c 0.03 0.03 0.05 0.48 0.05 1 v 0.95 l -1.17 0.68 c -1.91 1.11 -5.45 3.11 -5.5 3.11 c -0.03 0 -0.31 -0.13 -0.63 -0.3" style="fill:#f1c95b"/><g style="fill:#fff"><path d="m 8.34 11.26 c -0.08 -0.21 -0.1 -1.27 -0.03 -1.54 c 0.03 -0.11 0.23 -0.29 0.53 -0.48 c 0.72 -0.45 3.6 -2.06 4.33 -2.42 l 0.64 -0.31 l 0.61 0.3 c 0.61 0.3 1.07 0.62 1 0.68 c -0.16 0.14 -6.6 3.8 -6.88 3.9 c -0.09 0.04 -0.14 0 -0.2 -0.14"/><path d="m 10.6 14.1 c -0.58 -0.29 -1.07 -0.68 -0.99 -0.8 c 0.07 -0.11 1.84 -1.15 4.1 -2.42 c 2.08 -1.17 2.77 -1.53 2.83 -1.46 c 0.06 0.06 0.12 1.51 0.07 1.71 c -0.05 0.18 -0.8 0.68 -2.68 1.74 c -0.99 0.56 -2.71 1.48 -2.79 1.48 c -0.02 0 -0.27 -0.11 -0.54 -0.25"/><path d="m 17 10.98 c -0.02 -0.03 -0.05 -0.49 -0.05 -1.04 v -0.99 l 0.32 -0.18 c 0.37 -0.21 0.53 -0.23 0.59 -0.07 c 0.02 0.06 0.04 0.5 0.04 0.97 v 0.86 l -0.27 0.17 c -0.43 0.27 -0.58 0.34 -0.63 0.29"/><path d="m 15.23 6.85 c -0.67 -0.38 -0.9 -0.54 -0.9 -0.65 c 0 -0.1 0.67 -0.49 0.84 -0.49 c 0.16 0 1.29 0.63 1.49 0.82 c 0.09 0.09 0.07 0.13 -0.13 0.31 c -0.44 0.41 -0.57 0.41 -1.3 0"/></g></svg>