<svg xmlns="http://www.w3.org/2000/svg" viewBox="0 0 22 22"><path d="m 16.63 1.65 c 19.1 16.43 -20.22 32.2 -16.18 6.82 c 0.89 -5.57 11 -11.24 16.18 -6.82" style="fill:#182340"/><g style="fill:#fff"><path d="m 9.32 7.1 c 0 1.15 -0.95 2.08 -2.13 2.08 c -1.18 0 -2.13 -0.93 -2.13 -2.08 c 0 -1.15 0.95 -2.08 2.13 -2.08 c 1.18 0 2.13 0.93 2.13 2.08"/><path d="m 12.7 11.21 c 0 1.07 -0.87 1.93 -1.95 1.93 c -1.08 0 -1.95 -0.87 -1.95 -1.93 c 0 -1.07 0.87 -1.93 1.95 -1.93 c 1.08 0 1.95 0.86 1.95 1.93"/><path d="m 14.54 15.72 c 0 1.11 -0.89 2 -2 2 c -1.11 0 -2 -0.9 -2 -2 c 0 -1.11 0.9 -2 2 -2 c 1.11 0 2 0.9 2 2"/><path d="m 16.29 6.3 c 0 1.15 -0.95 2.08 -2.13 2.08 c -1.18 0 -2.13 -0.93 -2.13 -2.08 c 0 -1.15 0.95 -2.08 2.13 -2.08 c 1.18 0 2.13 0.93 2.13 2.08"/><path d="m 8.57 15.22 c 0 1.43 -1.16 2.58 -2.6 2.58 c -1.44 0 -2.6 -1.16 -2.6 -2.58 c 0 -1.43 1.16 -2.58 2.6 -2.58 c 1.44 0 2.6 1.16 2.6 2.58"/><path d="m 17.97 11.67 c 0 1.03 -0.82 1.86 -1.83 1.86 c -1.01 0 -1.83 -0.83 -1.83 -1.86 c 0 -1.03 0.82 -1.86 1.83 -1.86 c 1.01 0 1.83 0.84 1.83 1.86"/></g><g style="fill:#211a14"><path d="m 6.49 16.64 c -0.29 -0.11 -0.49 -0.3 -0.49 -0.46 c 0 -0.19 0.23 -0.2 0.47 -0.02 c 0.16 0.12 0.23 0.13 0.36 0.04 c 0.2 -0.2 0.21 -0.49 0.05 -0.66 c -0.08 -0.08 -0.14 -0.11 -0.21 -0.11 c -0.27 0 -0.44 -0.18 -0.32 -0.35 c 0.03 -0.05 0.08 -0.09 0.11 -0.1 c 0.16 -0.05 0.34 -0.16 0.45 -0.26 c 0.16 -0.15 0.16 -0.36 0.03 -0.48 c -0.3 -0.19 -0.43 0.04 -0.7 0.12 c -0.19 0.02 -0.23 -0.14 -0.18 -0.24 c 0.11 -0.21 0.46 -0.4 0.73 -0.4 c 0.25 0 0.45 0.11 0.54 0.31 c 0.11 0.28 0.34 0.48 0.04 0.82 c -0.15 0.21 -0.43 0.45 -0.2 0.57 c 0.51 0.26 0.23 0.88 0.11 1.05 c -0.14 0.2 -0.49 0.28 -0.77 0.18"/><path d="m 4.37 16.63 c -0.06 -0.3 0.41 -0.27 0.53 -0.53 c 0.05 -0.13 0.07 -1.78 0.02 -1.82 c -0.21 -0.03 -0.4 0.07 -0.6 0.03 c -0.03 -0.02 -0.05 -0.06 -0.05 -0.08 c 0 -0.07 0.18 -0.21 0.45 -0.34 c 0.34 -0.17 0.52 -0.22 0.62 -0.17 c 0.07 0.04 0.07 0.04 0.04 0.86 c -0.02 0.45 -0.02 0.99 -0.02 1.2 c -0.06 0.34 0.18 0.55 0.17 0.83 c -0.02 0.04 -0.05 0.07 -0.07 0.07 c -0.37 -0.01 -0.71 0.06 -1.07 -0.03"/><path d="m 10.45 12.44 c -0.41 -0.18 -0.75 -0.71 -0.78 -1.05 c -0.06 -1.04 0.23 -0.95 0.52 -1.21 c 0.34 -0.27 0.85 -0.29 1.13 -0.02 c 0.26 0.26 0.55 0.39 0.46 1.23 c -0.05 0.51 -0.36 0.68 -0.57 0.88 c -0.19 0.17 -0.48 0.23 -0.77 0.17 m 0.52 -0.52 c 0.18 -0.11 0.22 -0.19 0.27 -0.57 c 0.05 -0.39 0.04 -0.54 -0.05 -0.69 c -0.1 -0.16 -0.19 -0.2 -0.41 -0.21 c -0.23 0 -0.35 0.05 -0.46 0.2 c -0.1 0.35 -0.21 0.75 -0.01 1.13 c 0.17 0.21 0.44 0.27 0.66 0.14"/><path d="m 6.72 8.43 c -0.13 -0.04 -0.17 -0.09 -0.15 -0.18 c 0.02 -0.12 0.13 -0.32 0.32 -0.61 c 0.31 -0.46 0.55 -0.96 0.59 -1.26 c 0.02 -0.09 0.01 -0.12 -0.03 -0.16 c -0.06 -0.06 -0.12 -0.06 -0.37 -0.01 c -0.26 0.05 -0.38 0.04 -0.47 -0.07 c -0.09 -0.1 -0.09 -0.18 -0.02 -0.29 c 0.1 -0.15 0.15 -0.16 0.7 -0.16 c 0.58 0.01 0.59 0.01 0.65 0.24 c 0.06 0.24 0.04 0.45 -0.11 0.86 c -0.07 0.19 -0.16 0.51 -0.21 0.72 c -0.13 0.56 -0.25 0.8 -0.43 0.88 c -0.12 0.05 -0.34 0.07 -0.46 0.04"/><path d="m 14.1 7.99 c -0.08 -0.05 -0.15 -0.17 -0.15 -0.25 c 0 -0.03 0.04 -0.18 0.1 -0.34 c 0.13 -0.38 0.11 -0.51 -0.05 -0.63 c -0.27 -0.07 -0.41 -0.04 -0.73 -0.04 l -0.05 -0.07 c -0.07 -0.08 -0.12 -0.36 -0.05 -0.5 c 0.17 -0.38 0.23 -0.55 0.45 -0.91 c 0.21 -0.35 0.73 -0.68 0.87 -0.54 c 0.07 0.07 0.09 0.3 0.07 0.97 c -0.02 0.76 -0.03 0.73 0.19 0.68 c 0.13 -0.03 0.13 -0.03 0.19 0.04 c 0.09 0.09 0.09 0.24 0.01 0.33 c -0.16 0.11 -0.36 0.04 -0.45 0.18 c -0.07 0.11 -0.06 0.19 0.04 0.5 c 0.06 0.2 0.08 0.29 0.07 0.35 c -0.1 0.21 -0.35 0.31 -0.5 0.23 m -0.09 -1.79 c 0.16 -0.08 0.19 -0.16 0.19 -0.32 c 0 -0.11 0.05 -0.41 -0.02 -0.45 c -0.14 -0.08 -0.37 0.06 -0.5 0.32 c -0.08 0.15 -0.06 0.3 0.04 0.4 c 0.09 0.09 0.18 0.11 0.29 0.05"/><path d="m 15.78 12.99 c -0.26 -0.08 -0.36 -0.26 -0.22 -0.38 c 0.08 -0.07 0.16 -0.06 0.37 0.02 c 0.2 0.08 0.31 0.09 0.43 0.03 c 0.25 -0.38 0.39 -0.39 0.24 -0.78 c -0.32 -0.4 -0.58 -0.05 -0.95 0.04 c -0.06 -0.01 -0.22 -0.52 -0.23 -0.73 c -0.02 -0.2 0.04 -0.43 0.13 -0.64 c 0.05 -0.11 0.12 -0.04 0.21 -0.08 c 0.18 -0.07 0.32 -0.17 0.76 -0.11 c 0.22 0.03 0.45 0.15 0.47 0.17 c 0.25 0.17 0.07 0.23 -0.01 0.27 c -0.1 0.05 -0.32 0.11 -0.61 0.05 c -0.41 -0.09 -0.54 -0.23 -0.59 -0.04 c -0.06 0.22 -0.02 0.41 0.1 0.5 c 0.08 0.06 0.16 0.06 0.43 0.02 c 0.23 -0.04 0.29 -0.03 0.43 0.07 c 0.22 0.16 0.39 0.45 0.32 0.78 c -0.05 0.25 -0.21 0.47 -0.34 0.61 c -0.22 0.22 -0.71 0.27 -0.94 0.2"/><path d="m 11.91 17 c -0.07 -0.27 0.41 -0.25 0.53 -0.48 c 0.05 -0.12 0.07 -1.61 0.02 -1.65 c -0.21 -0.02 -0.4 0.06 -0.6 0.03 c -0.03 -0.02 -0.05 -0.05 -0.05 -0.07 c 0 -0.07 0.18 -0.19 0.45 -0.31 c 0.34 -0.15 0.52 -0.2 0.61 -0.15 c 0.07 0.03 0.07 0.04 0.04 0.77 c -0.02 0.41 -0.02 0.89 -0.02 1.08 c -0.06 0.31 0.18 0.5 0.17 0.75 c -0.02 0.03 -0.05 0.06 -0.07 0.06 c -0.37 -0.01 -0.71 0.05 -1.07 -0.03"/></g></svg>