<svg xmlns="http://www.w3.org/2000/svg" xmlns:xlink="http://www.w3.org/1999/xlink" viewBox="0 0 22 22"><defs><g id="6" style="clip-path:url(#5)"><path d="m 6.46 9.89 h 1.95 c 0.54 0 0.55 -0.02 1.12 -0.36 c 0.58 -0.35 0.58 -0.35 1.34 -0.34 l 4.64 -0.03 c 0.46 0 0.83 0.29 0.83 0.65 v 4.46 c 0 0.36 -0.38 0.65 -0.83 0.65 h -9 c -0.46 0 -0.83 -0.29 -0.83 -0.65 v -3.73 c 0 -0.39 0.3 -0.65 0.83 -0.65" style="fill:url(#4)"/></g><g id="C" style="clip-path:url(#B)"><path d="m 6.46 9.89 h 1.95 c 0.54 0 0.55 -0.02 1.12 -0.36 c 0.58 -0.35 0.58 -0.35 1.34 -0.34 l 4.64 -0.03 c 0.46 0 0.83 0.29 0.83 0.65 v 4.46 c 0 0.36 -0.38 0.65 -0.83 0.65 h -9 c -0.46 0 -0.83 -0.29 -0.83 -0.65 v -3.73 c 0 -0.39 0.3 -0.65 0.83 -0.65" style="fill:url(#A)"/></g><clipPath id="5"><path d="M 0,0 H22 V22 H0 z"/></clipPath><clipPath id="B"><path d="M 0,0 H22 V22 H0 z"/></clipPath><filter id="2" filterUnits="objectBoundingBox" x="0" y="0" width="22" height="22"><feColorMatrix type="matrix" in="SourceGraphic" values="0 0 0 0 1 0 0 0 0 1 0 0 0 0 1 0 0 0 1 0"/></filter><linearGradient id="8" gradientUnits="userSpaceOnUse" y1="180.8" x2="0" y2="179.6" gradientTransform="matrix(0.672 0 0 0.525 -134.7 -80)"><stop style="stop-color:#5c268e;stop-opacity:0.25"/><stop offset="0.76" style="stop-color:#5c268e;stop-opacity:0.15"/><stop offset="1" style="stop-color:#fff;stop-opacity:0.15"/></linearGradient><linearGradient id="A" gradientUnits="userSpaceOnUse" x1="-16.1" y1="9.81" x2="10.1" y2="9.76" gradientTransform="matrix(0.406 0 0 0.317 12.21 8.95)"><stop style="stop-color:#000"/><stop offset="0.1" style="stop-color:#000;stop-opacity:0"/><stop offset="0.9" style="stop-color:#000;stop-opacity:0"/><stop offset="1" style="stop-color:#000"/></linearGradient><linearGradient id="1" gradientUnits="userSpaceOnUse" y1="18.88" x2="0" y2="15.27" gradientTransform="matrix(0.406 0 0 0.391 12.21 7.46)"><stop style="stop-color:#0c0413"/><stop offset="1" style="stop-color:#421a64"/></linearGradient><linearGradient id="7" gradientUnits="userSpaceOnUse" y1="179.3" x2="0" y2="178.8" gradientTransform="matrix(0.672 0 0 0.525 -134.7 -80)"><stop style="stop-color:#5c268e;stop-opacity:0.25"/><stop offset="1" style="stop-color:#fff;stop-opacity:0.15"/></linearGradient><linearGradient id="0" gradientUnits="userSpaceOnUse" x1="-16.18" y1="15.1" x2="-16.3" y2="-2.71" gradientTransform="matrix(0.406 0 0 0.391 12.21 7.46)"><stop style="stop-color:#5c268e"/><stop offset="1" style="stop-color:#772fb4"/></linearGradient><linearGradient id="4" gradientUnits="userSpaceOnUse" x1="-4.78" y1="17.2" x2="-4.92" y2="1.59" gradientTransform="matrix(0.406 0 0 0.317 12.21 8.95)"><stop style="stop-color:#5c268e"/><stop offset="1" style="stop-color:#9c5bd6"/></linearGradient><mask id="3"><g style="filter:url(#2)"><path d="M 0,0 H22 V22 H0 z" style="fill-opacity:0.7"/></g></mask><mask id="9"><g style="filter:url(#2)"><path d="M 0,0 H22 V22 H0 z" style="fill-opacity:0.3"/></g></mask></defs><path d="m 18 19.59 c -13.2 10.23 -26.89 -15.25 -10.56 -18.98 c 10.29 -3.82 20.34 11.39 10.56 18.98" style="fill:#9370db"/><path d="m 6.46 6.38 c -0.46 0 -0.83 0.36 -0.83 0.8 v 6.26 h 10.71 c 0.01 -0.02 0 -5.29 0 -5.45 c 0 -0.45 -0.38 -0.8 -0.83 -0.8 l -4.64 0.04 c -0.66 0 -0.78 -0.01 -1.34 -0.42 c -0.55 -0.42 -0.57 -0.44 -1.12 -0.44" style="fill:url(#0)"/><path d="m 16.34 13.46 h -10.71 v 0.59 c 0 0.45 0.37 0.8 0.83 0.8 h 9 c 0.46 0 0.83 -0.36 0.83 -0.8" style="fill:url(#1)"/><path d="m 15.1 8.1 v 5.12 c 0 0.09 -0.09 0.17 -0.2 0.17 h -7.9 c -0.11 0 -0.2 -0.08 -0.2 -0.17 v -5.12 c 0 -0.09 0.09 -0.17 0.2 -0.17 h 7.9 c 0.11 0 0.2 0.08 0.2 0.17" style="fill:#ff331f"/><path d="m 15.17 8.23 v 5.24 c 0 0.1 -0.09 0.17 -0.2 0.17 h -8.1 c -0.11 0 -0.2 -0.07 -0.2 -0.17 v -5.24 c 0 -0.09 0.09 -0.17 0.2 -0.17 h 8.1 c 0.11 0 0.2 0.08 0.2 0.17" style="fill:#ececec"/><path d="m 15.28 8.39 v 5.36 c 0 0.1 -0.09 0.17 -0.2 0.17 h -8.27 c -0.11 0 -0.2 -0.07 -0.2 -0.17 v -5.36 c 0 -0.09 0.09 -0.17 0.2 -0.17 h 8.27 c 0.11 0 0.2 0.08 0.2 0.17" style="fill:#70d6ff"/><path d="m 15.36 8.55 v 5.49 c 0 0.09 -0.09 0.17 -0.2 0.17 h -8.46 c -0.11 0 -0.2 -0.08 -0.2 -0.17 v -5.49 c 0 -0.09 0.09 -0.17 0.2 -0.17 h 8.46 c 0.11 0 0.2 0.08 0.2 0.17" style="fill:#ececec"/><use xlink:href="#6" style="mask:url(#3)"/><path d="m 5.58 13.77 h 10.71 v 0.3 h -10.71" style="fill:url(#7)"/><path d="m 5.58 14.3 c 0.03 0.34 0.39 0.61 0.83 0.6 h 9 c 0.45 0 0.8 -0.27 0.83 -0.6" style="fill:url(#8)"/><use xlink:href="#C" style="mask:url(#9)"/></svg>