<svg xmlns="http://www.w3.org/2000/svg" viewBox="0 0 22 22"><path d="m 1.61 5.34 c 16.62 -19.37 32.6 20.45 6.89 16.36 c -5.64 -0.9 -11.38 -11.14 -6.89 -16.36" style="fill:#c9c8c8"/><path d="m 6.34 15.1 h 11.45 v 1.03 h -11.45" style="fill:#536fff"/><path d="m 6.27 16.73 c -0.23 -0.05 -0.32 -0.12 -0.42 -0.3 c -0.11 -0.22 -0.12 -0.49 -0.08 -3.98 c 0.07 -6.72 0.06 -6.48 0.19 -6.6 c 0.16 -0.15 0.54 -0.14 0.66 0.02 c 0.09 0.12 0.13 2.98 0.13 9.1 v 0.95 l 5.45 0.02 c 3.88 0.01 5.48 0.04 5.54 0.09 c 0.05 0.04 0.1 0.42 0.1 0.56 c 0 0.5 0.33 0.24 -5.81 0.26 c -3.46 0.01 -5.58 -0.01 -5.77 -0.05 m 6.48 -2.14 c -0.12 -0.12 -0.01 -0.92 -0.01 -0.92 c 1.1 0.11 2.1 -0.06 4.1 0.04 c 0.13 0.12 0.14 0.71 0.04 0.91 c -1.1 -0.07 -2.4 0.07 -4.13 -0.03 m -2.95 -0.41 c -0.05 -0.34 -0.05 -0.61 -0.07 -0.96 l -0.32 -0.05 c -0.48 -0.07 -1.01 -0.29 -1.16 -0.49 c -0.11 -0.14 -0.13 -0.21 -0.07 -0.43 c 0.08 -0.3 0.12 -0.3 0.88 -0.05 c 0.29 0.09 0.57 0.16 0.62 0.14 c 0.13 -0.05 0.13 -1.34 0 -1.44 c -0.05 -0.04 -0.2 -0.09 -0.34 -0.12 c -0.36 -0.07 -0.75 -0.34 -0.96 -0.64 c -0.25 -0.46 -0.24 -1.06 0.07 -1.45 c 0.22 -0.27 0.66 -0.52 1.04 -0.58 c 0.23 -0.04 0.25 -0.06 0.27 -0.31 c 0.04 -0.53 0.07 -0.58 0.32 -0.56 c 0.22 0.02 0.23 0.03 0.25 0.36 c 0.01 0.18 0.05 0.37 0.09 0.41 c 0.34 0.16 0.7 0.08 1.07 0.22 c 0.25 0.17 0.3 0.55 0.1 0.77 c -0.05 0.02 -0.31 -0.01 -0.57 -0.07 c -0.64 -0.14 -0.69 -0.11 -0.69 0.39 c 0 0.53 0.07 0.65 0.42 0.71 c 0.45 0.07 1.07 0.5 1.26 0.86 c 0.21 0.4 0.22 1.03 0.02 1.41 c -0.21 0.41 -0.79 0.77 -1.34 0.85 l -0.29 0.04 c -0.04 0.3 0.08 0.73 -0.09 0.98 c -0.14 0.05 -0.45 0.13 -0.52 0 m 1.11 -2.13 c 0.2 -0.17 0.21 -0.33 0.07 -0.61 c -0.15 -0.28 -0.46 -0.49 -0.57 -0.38 c -0.07 0.41 -0.02 0.74 0.02 1.18 c 0.17 -0.04 0.36 -0.08 0.49 -0.19 m -1.16 -2.65 c 0.03 -0.43 -0.02 -0.48 -0.25 -0.36 c -0.42 0.22 -0.45 0.32 -0.08 0.62 c 0.24 0.2 0.31 0.15 0.34 -0.26"/></svg>