<svg xmlns="http://www.w3.org/2000/svg" viewBox="0 0 22 22"><path d="m 2.74 5.38 c 18.1 -19.48 29.52 20.73 5.48 16.29 c -6.34 -2.19 -11.29 -10 -5.48 -16.29" style="fill:#edd1eb"/><path d="m 12.39 18.1 c -0.75 -0.18 -1.64 -0.7 -1.82 -1.07 c -0.09 -0.18 -0.11 -0.35 -0.14 -1.21 c -0.02 -0.77 -0.04 -1.01 -0.1 -1.03 c -0.04 -0.02 -0.16 0.05 -0.27 0.14 c -0.83 0.71 -1.49 1.11 -1.92 1.15 c -0.21 0.02 -0.3 0 -0.65 -0.19 c -0.52 -0.42 -2.36 -0.52 -2.36 -1.17 c 0.18 -0.61 0.54 -1.29 0.91 -1.82 c 0.16 -0.23 0.5 -0.64 0.76 -0.91 c 0.25 -0.27 0.91 -0.38 0.91 -0.43 c 0 -0.04 -0.57 -0.3 -0.7 -0.4 c -0.34 -0.25 -0.75 -0.71 -0.88 -0.96 c -0.13 -0.25 -0.24 -0.78 -0.2 -0.91 c 0.07 -0.22 0.19 -1.23 0.19 -1.55 c 0 -0.28 0.02 -0.38 0.11 -0.49 c 0.11 -0.14 0.12 -0.14 0.74 -0.14 c 0.6 0.01 1.24 -0.1 1.8 -0.11 c 0.68 -0.01 0.86 0.07 1.36 0.6 c 0.19 0.2 0.53 0.63 0.56 0.61 c 0.03 -0.02 -0.11 -0.39 -0.11 -0.48 c 0 -0.09 0.05 -0.41 0.11 -0.7 c 0.23 -1.13 0.43 -1.27 2.51 -1.9 c 0.27 -0.06 0.44 -0.26 0.65 -0.39 c 0.07 0 0.63 0.62 0.87 0.97 c 0.5 0.73 0.89 1.7 0.81 2.06 c -0.04 0.22 -0.34 0.88 -0.54 1.21 c -0.21 0.35 -0.17 0.39 0.36 0.3 c 0.52 -0.09 0.83 -0.03 1.49 0.29 c 0.38 0.19 0.53 0.3 0.79 0.57 c 0.35 0.39 0.79 1.14 0.79 1.35 c 0 0.23 -0.22 0.63 -0.74 1.36 c -0.71 0.99 -0.79 1.07 -1.13 1.18 c -0.54 0.18 -1.36 0.19 -2.13 0.02 c -0.2 -0.04 -0.19 0.08 0.04 0.39 c 0.26 0.36 0.5 0.91 0.5 1.13 c 0 0.13 -0.06 0.29 -0.21 0.52 c -0.45 0.63 -0.54 1.5 -1.12 2 c -0.16 0.14 -0.25 0.17 -0.44 0.17 c -0.27 0 -0.54 -0.1 -0.78 -0.16" style="fill:#ec8db8"/></svg>