<svg xmlns="http://www.w3.org/2000/svg" viewBox="0 0 22 22"><path d="m 21.91 10.67 c -0.34 7.82 -5.64 13.72 -12.98 10.46 c -5 -2.23 -9.84 -4.68 -8.64 -10.46 c 1.2 -5.77 7 -10.46 12.98 -10.46 c 5.97 0 8.89 4.75 8.64 10.46" style="fill:#8b276f"/><path d="m 8.7 16.57 c -0.41 -0.24 -2.61 -2.69 -3.53 -3.93 c -0.29 -0.39 -0.32 -0.46 -0.32 -0.7 c 0 -0.16 0.04 -0.32 0.09 -0.41 c 0.05 -0.08 1.22 -1.38 2.6 -2.89 c 1.73 -1.89 2.57 -2.77 2.7 -2.82 c 0.17 -0.08 0.45 -0.08 2.25 -0.05 c 1.13 0.02 2.11 0.07 2.18 0.09 c 0.07 0.03 0.78 0.75 1.57 1.61 c 1.18 1.28 1.45 1.6 1.5 1.79 c 0.08 0.33 0.07 1.9 -0.02 2.13 c -0.15 0.39 -0.58 0.55 -0.92 0.33 c -0.15 -0.09 -0.3 -0.38 -0.3 -0.54 c 0 -0.21 -0.15 -0.22 -2.52 -0.18 c -1.27 0.02 -2.44 0.02 -2.6 0 c -0.59 -0.08 -0.84 -0.61 -0.52 -1.12 c 0.25 -0.41 1.23 -1.54 1.38 -1.61 c 0.34 -0.15 0.7 -0.02 0.84 0.3 c 0.12 0.27 0.11 0.41 -0.05 0.7 c -0.11 0.2 -0.13 0.26 -0.07 0.3 c 0.08 0.05 3 0.07 3.13 0.02 c 0.04 -0.02 0.08 -0.06 0.08 -0.1 c 0 -0.04 -0.46 -0.56 -1.03 -1.18 l -1.03 -1.11 h -3.42 l -2.14 2.32 c -1.43 1.55 -2.14 2.36 -2.14 2.44 c 0 0.15 0.86 1.18 1.95 2.32 l 0.87 0.91 h 3.13 l 0.59 -0.63 c 0.32 -0.35 0.59 -0.66 0.59 -0.7 c 0 -0.06 -0.46 -0.07 -2.21 -0.09 l -2.21 -0.02 l -0.18 -0.22 c -0.17 -0.2 -0.18 -0.24 -0.16 -0.5 c 0.03 -0.32 0.18 -0.53 0.45 -0.61 c 0.12 -0.04 1.25 -0.05 3.27 -0.04 l 3.08 0.02 l 0.18 0.21 c 0.22 0.26 0.24 0.59 0.06 0.87 c -0.15 0.24 -2.73 2.96 -2.9 3.05 c -0.1 0.06 -0.59 0.08 -2.07 0.1 c -1.83 0.02 -1.96 0.02 -2.13 -0.08" style="fill:#fff"/></svg>