<svg xmlns="http://www.w3.org/2000/svg" viewBox="0 0 22 22"><path d="m 10.27 21.88 c -2.25 -0.18 -4.82 -1.26 -6.53 -2.77 c -2.09 -1.83 -3.5 -4.64 -3.7 -7.41 c -0.21 -3.66 2.25 -7.59 4.81 -9.45 c 1.28 -0.91 2.94 -1.63 4.46 -1.95 c 3.96 -0.82 7.89 0.73 10.38 4.12 c 1.5 2.03 2.18 4.07 2.18 6.5 c 0 2.9 -1.41 6 -3.69 8.11 c -2.55 1.98 -5.1 3.05 -7.91 2.84" style="fill:#546a2f"/><path d="m 10.5 17.71 c -2.45 -0.43 -4.19 -1.69 -5.14 -3.74 c -1.38 -2.97 -0.28 -6.5 2.53 -8.14 l 0.68 -0.4 c 0.68 -0.14 1.71 0.36 0.89 0.68 c -0.75 0.24 -1.5 0.71 -2.15 1.36 c -0.55 0.55 -0.71 0.76 -1 1.36 c -0.41 0.86 -0.59 1.58 -0.58 2.47 c 0 0.91 0.16 1.61 0.56 2.41 c 0.55 1.11 1.3 1.87 2.39 2.43 c 0.79 0.41 1.49 0.57 2.46 0.57 c 2.48 -0.01 4.57 -1.62 5.2 -4 c 0.2 -0.75 0.21 -1.96 0.04 -2.7 c -0.41 -1.71 -1.9 -3.38 -3.43 -3.83 c -0.86 -0.66 0.46 -0.91 1.18 -0.51 c 3.23 1.8 4.36 5.69 2.55 8.79 c -0.42 0.72 -1.39 1.75 -2.07 2.2 c -1.18 0.56 -2.87 1.22 -4.09 1.04" style="fill:#ede7aa"/><path d="m 10.35 17 c -0.29 -0.11 -0.92 -0.77 -1.17 -1.21 c -0.27 -0.3 -0.48 -1.49 -0.88 -1.5 c -0.2 0 -0.58 0.18 -1.05 0.52 c -0.42 0.29 -0.63 0.31 -0.79 0.07 c -0.11 -0.16 -0.11 -0.19 0 -0.34 c 0.06 -0.09 0.44 -0.34 0.84 -0.56 c 1.05 -0.55 0.97 -0.43 0.9 -1.33 c -0.03 -0.42 -0.09 -0.8 -0.13 -0.84 c -0.04 -0.04 -0.64 -0.09 -1.43 -0.11 c -1.42 -0.04 -1.49 -0.05 -1.49 -0.36 c 0 -0.34 0 -0.34 1.5 -0.34 h 1.42 c 0.02 -0.54 0.25 -1.18 0.08 -1.69 c -0.29 -0.46 -1.75 -0.86 -1.79 -1.33 c 0 -0.14 0.23 -0.33 0.4 -0.33 c 0.08 0 0.41 0.17 0.73 0.38 c 0.62 0.41 0.82 0.46 0.93 0.26 c 0.23 -0.7 0.14 -1.45 0.48 -2.13 c 0.27 -0.52 0.23 -0.68 -0.23 -0.77 c -0.44 -0.09 -0.63 -0.51 -0.38 -0.83 c 0.11 -0.13 0.22 -0.19 0.38 -0.19 c 0.32 0 0.39 0.07 0.54 0.46 c 0.07 0.19 0.18 0.35 0.24 0.36 c 0.06 0.01 0.28 -0.07 0.49 -0.17 c 0.31 -0.16 0.5 -0.2 1.02 -0.22 c 0.61 -0.02 0.66 -0.02 1.06 0.19 c 0.52 0.27 0.7 0.26 0.78 -0.07 c 0.14 -0.55 0.67 -0.75 0.98 -0.37 c 0.26 0.32 0.08 0.7 -0.41 0.85 c -0.14 0.05 -0.32 0.13 -0.4 0.18 c -0.13 0.1 -0.13 0.11 0.08 0.43 c 0.25 0.39 0.34 0.67 0.44 1.5 c 0.08 0.64 0.16 0.89 0.32 0.89 c 0.3 -0.05 1.82 -1.33 1.9 -0.4 c 0 0.14 -0.45 0.45 -1.14 0.78 l -0.73 0.35 c 0.1 0.55 -0.05 1.23 0.17 1.74 c 0.59 0.16 2.61 -0.05 2.83 0.23 c 0.09 0.11 0.07 0.41 -0.03 0.51 c -1 0.07 -1.77 0.08 -2.84 0.11 c -0.02 0.54 -0.22 1.12 -0.16 1.66 c 0.02 0.05 0.41 0.3 0.88 0.54 c 0.9 0.48 1.09 0.66 0.96 0.89 c -0.14 0.25 -0.38 0.25 -0.79 -0.02 c -0.53 -0.33 -0.96 -0.54 -1.11 -0.54 c -0.09 0 -0.26 0.26 -0.6 0.96 c -0.7 1.41 -1.18 1.83 -2.13 1.82 c -0.25 0 -0.54 -0.04 -0.64 -0.07 m 0.25 -3.17 c -0.36 0 -1.2 -0.09 -1.37 0.22 c -0.16 0.4 0.95 2.34 1.28 2.24 c 0.27 -0.78 0.14 -1.73 0.09 -2.46 m 1.22 2.31 c 0.23 -0.32 1.35 -1.86 0.92 -2.18 c -0.07 -0.05 -0.36 -0.11 -0.66 -0.14 c -0.76 -0.07 -0.74 -0.09 -0.74 1.25 c 0 0.6 0.02 1.12 0.04 1.16 c 0.07 0.11 0.23 0.07 0.44 -0.1 m 1.16 -2.89 c 0.22 -0.13 0.31 -1.42 0.11 -1.5 c -0.15 -0.05 -1.38 -0.05 -1.58 0 c -0.09 0.34 -0.08 1.16 0.02 1.35 c 0.16 0.06 0.85 0.17 1.24 0.2 c 0.06 0 0.15 -0.02 0.2 -0.05 m -2.41 -0.23 c 0.09 -0.46 0.06 -0.82 0.06 -1.31 h -1.8 l 0.04 0.64 c 0.06 0.9 0.05 0.89 0.61 0.89 c 0.39 -0.05 0.78 0.03 1.09 -0.22 m -0.02 -2.05 c 0.04 -0.04 0.09 -0.31 0.12 -0.6 c 0.06 -0.67 -0.02 -0.79 -0.65 -0.86 c -0.28 0.02 -0.82 -0.22 -1.04 -0.02 c -0.13 0.13 -0.22 0.82 -0.16 1.21 c 0.04 0.24 0.07 0.29 0.23 0.32 c 0.33 0.06 1.43 0.02 1.5 -0.06 m 2.6 -0.03 c 0.13 -0.13 0.09 -1.16 -0.06 -1.38 c -0.13 -0.19 -0.08 -0.19 -1.2 -0.01 c -0.55 0.09 -0.57 0.11 -0.56 0.76 c 0 0.54 0.05 0.68 0.25 0.72 c 0.29 0.06 1.48 0 1.57 -0.09 m -2.63 -2.07 c 0.09 -0.04 0.11 -0.18 0.11 -0.92 v -0.87 l -0.23 0.04 c -0.36 0.07 -0.78 0.4 -1.03 0.81 c -0.24 0.39 -0.3 0.72 -0.14 0.81 c 0.16 0.1 1.11 0.19 1.3 0.12 m 2.21 -0.11 c 0.24 -0.11 0.24 -0.28 0 -0.75 c -0.2 -0.4 -0.57 -0.74 -0.95 -0.86 c -0.39 -0.13 -0.45 -0.01 -0.45 0.87 c 0 0.41 0.02 0.78 0.05 0.82 c 0.06 0.1 1.07 0.03 1.34 -0.09 m -2.45 -2.19 c 0.49 -0.13 0.92 -0.13 1.46 0 c 0.83 0.2 0.93 0.11 0.52 -0.49 c -0.28 -0.41 -0.56 -0.58 -1.04 -0.63 c -0.72 -0.08 -1.17 0.14 -1.55 0.79 c -0.21 0.35 -0.18 0.55 0.06 0.48 c 0.2 -0.05 0.38 -0.11 0.55 -0.15" style="fill:#ff4500"/></svg>