<svg xmlns="http://www.w3.org/2000/svg" viewBox="0 0 22 22"><path d="m 18.25 18.27 c 11.16 -8.93 -5.18 -25 -15.1 -14.75 c -9.9 8.86 5.55 26.1 15.1 14.75" style="fill:#214d72"/><path d="m 17.73 11.18 c 0 3.73 -3.05 6.75 -6.82 6.75 c -3.77 0 -6.82 -3 -6.82 -6.75 c 0 -3.73 3.05 -6.75 6.82 -6.75 c 3.77 0 6.82 3 6.82 6.75" style="fill:#445475"/><g style="fill:#a2aab9"><path d="m 4.24 11.61 c 0 0.46 0.38 0.84 0.86 0.84 c 0.31 0 0.59 -0.17 0.73 -0.42 h 0.82 v 0.28 h 2.27 v -0.28 h 0.43 l 1 0.98 v 4.9 c 0.18 0.02 0.38 0.02 0.57 0.02 c 0.1 0 0.19 0 0.29 0 v -5.2 l -1.56 -1.55 h -0.71 v -0.28 h -2.27 v 0.28 h -0.82 c -0.14 -0.25 -0.42 -0.42 -0.74 -0.42 c -0.47 0 -0.85 0.38 -0.85 0.84"/><path d="m 6.65 8.09 v 0.28 h -1.94 c -0.13 0.27 -0.23 0.55 -0.32 0.85 h 2.26 v 0.28 h 2.27 v -1.41 h -2.27"/><path d="m 8.92 6.68 h -2.27 v -0.77 c 0.47 -0.38 1 -0.69 1.56 -0.93 v 0.29 h 0.71 v 1.41"/><path d="m 5.66 13.43 l -0.29 0.28 h -0.78 c 0.8 1.96 2.51 3.47 4.62 4 v -3.59 l -0.43 -0.42 h -1.99 l -0.29 -0.28 h -0.85"/><path d="m 11.91 12 l -1.56 -1.55 v -2.2 c -0.34 -0.16 -0.57 -0.5 -0.57 -0.89 c 0 -0.39 0.23 -0.73 0.57 -0.89 v -2.04 c 0.18 -0.02 0.38 -0.02 0.57 -0.02 c 0.1 0 0.19 0 0.29 0 v 2.06 c 0.34 0.16 0.57 0.5 0.57 0.89 c 0 0.39 -0.23 0.73 -0.57 0.89 v 1.92 l 1 0.98 h 0.14 v -0.28 h 2.27 v 0.28 h 3.13 c 0 0.29 -0.02 0.57 -0.05 0.84 h -3.07 v 0.29 h -2.27 v -0.29 h -0.43"/><path d="m 12.34 6.68 v -1.41 h 1.88 c 0.13 0.07 0.26 0.15 0.39 0.23 c 0.03 0.02 0.05 0.03 0.08 0.05 c 0.38 0.25 0.72 0.53 1.04 0.84 h -1.12 v 0.28 h -2.27"/><path d="m 14.61 8.09 v 0.28 h 2.51 c 0.13 0.27 0.23 0.55 0.32 0.85 h -2.83 v 0.28 h -2.27 v -1.41 h 2.27"/><path d="m 12.76 13.15 l -0.43 0.42 v 4.21 c 2.52 -0.53 4.54 -2.45 5.18 -4.91 h -2.34 l -0.29 0.29 h -2.13"/></g></svg>