<svg xmlns="http://www.w3.org/2000/svg" viewBox="0 0 22 22" xmlns:xlink="http://www.w3.org/1999/xlink"><defs><linearGradient id="0" gradientUnits="userSpaceOnUse" y1="1046.2" x2="0" y2="963" gradientTransform="matrix(0.13 0 0 0.126 4.6 -115.4)"><stop style="stop-color:#dfe3dd"/><stop offset="1" style="stop-color:#dfe2de"/></linearGradient><linearGradient id="4" gradientUnits="userSpaceOnUse" y1="37.68" x2="0" y2="32.36" gradientTransform="matrix(0.047 0 0 0.042 0.88 9.44)"><stop style="stop-color:#f36262"/><stop offset="1" style="stop-color:#d55f5c;stop-opacity:0"/></linearGradient><radialGradient id="5" gradientUnits="userSpaceOnUse" cx="113.5" cy="-61.5" r="15" gradientTransform="matrix(0.094 0 0 0.101 4.38 13.75)" xlink:href="#1"/><radialGradient id="3" gradientUnits="userSpaceOnUse" cx="233" cy="-56" r="36.5" gradientTransform="matrix(0 -0.086 0.067 0 18.75 28.41)"><stop style="stop-color:#ff5454;stop-opacity:0"/><stop offset="0.94" style="stop-color:#f47676;stop-opacity:0"/><stop offset="0.97" style="stop-color:#f47777;stop-opacity:0.5"/><stop offset="1" style="stop-color:#f47979"/></radialGradient><radialGradient id="1" gradientUnits="userSpaceOnUse" cx="113.5" cy="-61.5" r="15" gradientTransform="matrix(0.125 0 0 0.13 0.84 15.56)"><stop style="stop-color:#fd3e3e"/><stop offset="1" style="stop-color:#d11111"/></radialGradient><radialGradient id="2" gradientUnits="userSpaceOnUse" cx="108.6" cy="-49.4" r="15" gradientTransform="matrix(0.164 0 0 0.247 -3.28 21.1)"><stop style="stop-color:#f46a6a"/><stop offset="1" style="stop-color:#ea1212"/></radialGradient></defs><path d="m 18 2.56 c -13.2 -10.16 -26.89 15.1 -10.56 18.84 c 10.29 3.8 20.34 -11.31 10.56 -18.84" style="fill:#707f8f"/><path d="m 6.24 5.98 h 9.19 c 0.48 0 0.86 0.38 0.86 0.86 v 8.87 c 0 0.48 -0.38 0.86 -0.86 0.86 h -9.19 c -0.47 0 -0.86 -0.38 -0.86 -0.86 v -8.87 c 0 -0.48 0.39 -0.86 0.86 -0.86" style="fill:url(#0)"/><g style="fill:#a8a8a8"><path d="m 11.72 10.53 h 1.88 v 1.76 h -1.88"/><path d="m 11.79 14.1 h 1.56 v 1.96 h -1.56"/></g><path d="m 10.84 13.32 h -0.97 v 3.16 h 0.97" style="fill:#f8cf25"/><g style="fill:#a8a8a8"><path d="m 8.15 6.36 h 3.12 v 5.93 h -3.12"/><path d="m 11.72 6.36 h 1.88 v 3.66 h -1.88"/></g><g style="fill:#f8cf25"><path d="m 13.73 13.65 v -0.95 h -8.31 v 0.95"/><path d="m 7.7 6.1 h -0.97 v 6.78 h 0.97"/></g><path d="m 17.1 7 c 0 1.89 -1.48 4.23 -2.08 4.23 c -0.59 0 -2.08 -2.34 -2.08 -4.23 c 0 -1.07 0.93 -1.95 2.08 -1.95 c 1.15 0 2.08 0.87 2.08 1.95" style="fill:url(#1)"/><path d="m 16.95 7.1 c 0 1.82 -1.39 4.06 -1.95 4.06 c -0.55 0 -1.95 -2.25 -1.95 -4.06 c 0 -1.03 0.87 -1.87 1.95 -1.87 c 1.08 0 1.95 0.84 1.95 1.87" style="fill:url(#2)"/><path d="m 15 5.18 c -1.07 0 -1.95 0.84 -1.95 1.87 c 0 1.82 1.39 4.06 1.95 4.06 c 0.56 0 1.95 -2.25 1.95 -4.06 c 0 -1.03 -0.87 -1.87 -1.95 -1.87 m 0 0.18 c 1.04 0 1.87 0.78 1.87 1.74 c 0 1.7 -1.34 3.8 -1.87 3.8 c -0.54 0 -1.87 -2.09 -1.87 -3.8 c 0 -0.96 0.84 -1.74 1.87 -1.74" style="fill:url(#3)"/><path d="m 13.75 9.59 c 0.39 0.85 0.95 1.52 1.24 1.52 c 0.29 0 0.84 -0.66 1.24 -1.52" style="fill:url(#4)"/><path d="m 16.56 7.09 c 0 0.84 -0.7 1.52 -1.56 1.52 c -0.86 0 -1.55 -0.68 -1.55 -1.52 c 0 -0.84 0.7 -1.51 1.55 -1.51 c 0.86 0 1.56 0.68 1.56 1.51" style="fill:url(#5)"/><path d="m 14.99 5.97 c 0.28 0 0.5 0.25 0.5 0.57 v 1.02 c 0 0.32 -0.23 0.57 -0.5 0.57 c -0.28 0 -0.51 -0.25 -0.51 -0.57 v -1.02 c 0 -0.31 0.23 -0.57 0.51 -0.57" style="fill:#fff"/></svg>