<svg xmlns="http://www.w3.org/2000/svg" viewBox="0 0 22 22"><path d="m 20.39 5.34 c -16.62 -19.36 -32.61 20.45 -6.9 16.36 c 5.64 -0.89 11.38 -11.14 6.9 -16.36" style="fill:#2d496e"/><g style="fill:#fff"><path d="m 4.49 13.59 c -0.05 -0.04 -0.19 -0.13 -0.31 -0.2 c -0.28 -0.17 -0.65 -0.55 -0.76 -0.79 c -0.07 -0.16 -0.09 -0.23 -0.08 -0.65 c 0.01 -0.48 0.07 -0.84 0.18 -1.02 c 0.38 -0.61 1.16 -0.96 1.77 -0.79 c 0.48 0.13 1.04 0.53 1.14 0.82 c 0.04 0.11 0.03 0.13 -0.04 0.18 c -0.12 0.08 -0.52 0.16 -0.59 0.11 c -0.03 -0.02 -0.17 -0.18 -0.31 -0.36 c -0.14 -0.18 -0.3 -0.35 -0.36 -0.38 c -0.25 -0.13 -0.55 0.09 -0.76 0.55 c -0.11 0.22 -0.13 0.31 -0.14 0.61 c -0.02 0.39 0.04 0.73 0.19 1.07 c 0.23 0.54 0.56 0.68 0.89 0.38 c 0.24 -0.22 0.45 -0.84 0.35 -1.04 c -0.04 -0.08 -0.06 -0.08 -0.42 -0.06 c -0.46 0.02 -0.57 0 -0.37 -0.1 c 0.3 -0.14 1.3 -0.35 1.57 -0.33 c 0.12 0.01 0.16 0.04 0.21 0.12 c 0.1 0.2 -0.07 0.8 -0.34 1.19 c -0.14 0.21 -0.44 0.48 -0.62 0.56 c -0.43 0.2 -1.04 0.27 -1.21 0.13"/><path d="m 6.56 13.28 c -0.07 -0.02 -0.13 -0.04 -0.14 -0.05 c -0.01 -0.01 0.04 -0.09 0.11 -0.17 c 0.28 -0.32 0.4 -0.75 0.41 -1.38 c 0.04 -0.4 -0.12 -0.7 -0.3 -0.99 c -0.12 -0.19 -0.22 -0.36 -0.22 -0.38 c 0 -0.2 2.37 -0.39 3.14 -0.25 c 0.44 0.08 0.69 0.32 0.69 0.67 c 0 0.5 -0.55 0.87 -1.68 1.11 c -0.58 0.12 -0.64 0.14 -0.64 0.26 c 0.05 0.41 0.27 0.79 0.25 1.19 c -0.06 0.04 -1.44 0.04 -1.6 0 m 1.96 -1.84 c 0.58 -0.29 0.79 -0.49 0.74 -0.72 c -0.02 -0.11 -0.25 -0.25 -0.55 -0.35 c -0.36 -0.11 -1.49 -0.07 -1.49 0.05 c 0 0.01 0.05 0.13 0.1 0.27 c 0.14 0.36 0.38 0.8 0.47 0.88 c 0.3 0.09 0.55 -0.04 0.74 -0.13"/><path d="m 13.76 11.68 l -0.16 -0.11 c -0.36 0.07 -1.52 0.03 -1.71 0.07 c -0.05 0.06 -0.07 0.16 -0.07 0.88 l -0.01 0.8 c -0.77 -0.1 -1.51 0.1 -2.16 -0.06 l 0.19 -0.32 c 0.56 -0.97 0.81 -1.82 1.02 -3.46 c 0.11 -0.89 0.14 -0.99 0.23 -1.01 c 0.16 -0.04 1.17 0.07 1.94 0.21 c 1.33 0.25 2.98 0.93 3.62 1.5 c 0.35 0.23 -0.1 0.52 -0.21 0.79 c -0.14 0.32 -0.11 0.31 -0.86 0.43 c -0.27 0.05 -0.51 0.1 -0.55 0.12 c -0.09 0.05 -0.04 0.11 0.3 0.32 c 0.16 0.1 0.44 0.29 0.63 0.42 c 0.45 0.31 0.65 0.7 0.9 1.09 c -0.57 0 -1.02 0.02 -1.73 -0.02 c -0.75 -0.48 -0.53 -1 -1.37 -1.65 m -1.2 -0.45 c 1.58 -0.24 2.7 -0.67 2.61 -1.01 c -0.07 -0.27 -0.77 -0.71 -1.59 -1 c -0.88 -0.32 -1.81 -0.47 -1.97 -0.34 c -0.08 0.07 -0.08 0.14 0.03 0.97 c 0.14 1.08 0.19 1.35 0.26 1.41 c 0.08 0.06 0.05 0.06 0.66 -0.03"/><path d="m 16.82 12.92 c -0.34 -0.75 -0.23 -0.98 -0.23 -1.82 c 0.32 -0.66 0.4 -0.62 0.85 -0.84 c 0.36 -0.18 0.61 -0.23 0.94 -0.21 c 0.71 0.05 1.2 0.48 1.48 1.28 c 0.09 0.26 0.09 0.3 0.06 0.54 c -0.04 0.3 -0.21 0.67 -0.4 0.91 c -0.07 0.09 -0.27 0.25 -0.44 0.35 c -0.36 0.23 -1.3 0.84 -2.25 -0.21 m 1.96 -0.29 c 0.4 -0.77 0.16 -2.04 -0.42 -2.21 c -0.45 -0.13 -0.89 0.49 -0.89 1.23 c 0 0.68 0.27 1.27 0.61 1.38 c 0.32 0.07 0.58 -0.18 0.7 -0.4"/></g><g style="fill:#fbfb00"><path d="m 19.47 10.32 c -0.39 -0.37 -0.46 -0.56 -0.34 -0.99 c 0.04 -0.16 0.19 -0.24 0.68 -0.37 c 0.91 -0.25 1.32 -0.29 1.32 -0.14 c 0 0.07 -0.16 0.2 -0.35 0.3 c -0.57 0.28 -0.81 0.59 -0.86 1.11 l -0.05 0.46"/><path d="m 1.51 13.5 c -0.6 -0.04 -0.67 -0.06 -0.71 -0.22 c -0.04 -0.17 0.08 -0.4 0.31 -0.6 c 0.46 -0.4 1.98 -1.32 2.05 -1.25 c 0.01 0.01 -0.11 0.48 -0.39 0.71 c -0.62 0.49 -1.15 0.62 -1.24 0.8 c -0.06 0.13 0.02 0.04 0.12 0.11 c 0.4 0.05 1.8 -0.1 1.88 -0.04 c 0.05 0.05 0.17 0.17 0.27 0.27 c 0.17 0.16 0.18 0.18 0.09 0.2 c -0.18 0.05 -1.85 0.07 -2.38 0.03"/><path d="m 8.38 9.81 v -0.39 c 0 -0.52 0.44 -1.04 1.05 -1.23 c 0.36 -0.11 0.71 -0.02 1.02 0.25 c 0.35 0.22 0.29 1.07 0.16 1.33 c -0.79 -0.03 -1.44 0.05 -2.24 0.04 m 1.76 -0.63 c 0.46 -0.38 -0.22 -0.77 -0.52 -0.77 c -0.37 0 -0.5 0.16 -0.28 0.33 c 0.09 0.07 0.09 0.08 0 0.19 c -0.21 0.24 -0.14 0.32 0.27 0.32 c 0.2 0 0.44 -0.03 0.52 -0.07"/></g><g style="fill:#fff"><path d="m 1.62 6.8 c 0 -0.04 0.2 -0.41 0.44 -0.82 c 1.39 -2.38 3.14 -4 5.29 -5.1 c 3.04 -1.42 6.11 -1.03 9.38 1.19 c 1.1 0.75 3.36 2.87 3.96 3.71 l 0.29 0.41 l -1.37 0.03 c -3.38 0.06 -3.61 0.02 -5.62 -1.14 c -1.68 -0.97 -1.7 -0.97 -2.58 -0.96 c -0.81 0.01 -1.07 0.09 -2.97 0.9 c -2.49 1.07 -3.94 1.54 -4.98 1.63 c -0.42 0.04 -1.01 0.09 -1.31 0.12 c -0.3 0.03 -0.54 0.02 -0.54 -0.02"/><path d="m 7.94 21.8 c -1.17 -0.16 -2.29 -0.5 -3.41 -1.04 c -0.86 -0.41 -1.27 -0.71 -2.05 -1.5 c -0.87 -0.88 -1.75 -2.21 -1.75 -2.66 c 0 -0.21 2.44 -0.02 3.09 0.24 c 0.28 0.11 1.16 0.6 1.96 1.09 c 1.41 0.86 1.48 0.89 2.27 0.89 c 0.74 0 1.08 -0.11 3.23 -0.98 c 3.39 -1.38 4.05 -1.53 6.46 -1.46 c 1.06 0.03 1.97 0.09 2 0.13 c 0.13 0.13 -1.04 1.71 -1.9 2.57 c -0.93 0.93 -2.11 1.75 -3.13 2.16 c -1.36 0.55 -4.76 0.83 -6.81 0.55"/></g><path d="m 2.1 18.82 l -0.09 -0.12 c 0.71 -0.06 1.38 -0.02 1.89 0.01 c 0.29 0.02 0.37 0.01 0.37 -0.02 c 0 -0.02 -0.27 -0.31 -0.59 -0.64 c -0.61 -0.63 -0.95 -1.05 -0.96 -1.2 c 0 -0.08 0 -0.09 0.1 -0.1 c 1.55 0.14 2.13 0.68 3.21 1.63 c 0.63 0.69 0.63 0.32 0.76 0.52 c -0.02 0.23 -0.42 0.38 -0.63 0.3 c -0.64 -0.27 -1.4 -0.45 -1.49 -0.36 c 0.2 0.7 1.14 1.05 1.2 1.77 c 0 0.07 0.14 0.34 0.04 0.36 c -0.44 0.03 -0.94 -0.23 -1.4 -0.23 c -0.93 -0.5 -1.84 -1.24 -2.4 -1.91"/><path d="m 8.1 21.8 c -0.59 -0.06 -1.99 -0.39 -2.04 -0.48 c -0.02 -0.02 -0.02 -0.09 -0.02 -0.14 c 0 -0.1 0 -0.1 0.1 -0.09 c 0.17 0.04 2.04 0.06 2.12 0.03 c 0.07 -0.03 0.05 -0.05 -0.28 -0.45 c -0.57 -0.7 -0.95 -1.29 -1.02 -1.59 c -0.02 -0.08 -0.01 -0.11 0.05 -0.18 l 0.07 -0.09 c 0.69 0.08 1.26 0.09 1.94 0.12 l 0.3 0.32 c 0.45 0.5 1.3 1.33 1.36 1.33 c 0.15 0 2.06 -0.81 2.06 -0.88 c 0 -0.02 -0.16 -0.2 -0.36 -0.41 c -0.75 -0.8 -1.05 -1.18 -1.05 -1.3 c 0 -0.09 0.11 -0.16 0.77 -0.42 c 1.2 -0.48 1.82 -0.69 2 -0.69 c 0.43 0.08 1.68 1.51 1.77 1.79 c 0 0.05 -0.16 0.13 -0.43 0.2 c -0.56 0.15 -2.3 0.81 -2.3 0.87 c 0.36 0.45 0.77 0.95 1.06 1.47 c 0.25 0.39 -2.5 0.67 -2.72 0.57 c -0.24 -0.27 -0.34 -0.63 -0.64 -0.84 c -0.6 -0.08 -1.94 -0.16 -2.42 0.16 c -0.09 0.23 -0.03 0.38 0.03 0.67 c -0.21 0.12 -0.02 0.07 -0.36 0.04"/><path d="m 16 18.66 c 0 -0.04 0.16 -0.09 0.48 -0.14 c 0.59 -0.1 1.96 -0.18 1.96 -0.12 c 0 0.09 -1.45 1.48 -1.54 1.48 c -0.27 -0.43 -0.67 -0.86 -0.91 -1.22"/><path d="m 17.28 16.48 c 0.45 -0.06 1.82 0.04 2.47 0.08 c -0.14 0.47 -0.8 1.25 -1.2 1.66 c -0.27 -0.47 -1.21 -1.14 -1.27 -1.74"/><path d="m 5.37 6 c -0.44 -0.5 -1.9 -1.46 -2.08 -1.9 c 0 -0.04 0.72 0.02 1.14 -0.12 c 0.52 -0.17 1.36 -0.5 1.73 -0.68 c 0.21 -0.1 0.29 -0.16 0.29 -0.2 c 0 -0.07 -0.08 -0.18 -0.33 -0.45 c -0.26 -0.28 -0.57 -0.69 -0.53 -0.71 c 0.64 -0.36 1.41 -1.07 2.14 -1.2 c 0.02 0 0.3 0.3 0.64 0.66 l 0.6 0.66 l 0.18 -0.04 c 0.58 -0.03 0.95 -0.12 1.48 -0.35 c 0.34 -0.14 0.63 -0.27 0.65 -0.28 c 0.02 -0.01 0.04 0.01 0.04 0.04 c 0 0.15 0.32 0.65 0.67 1.08 c 0.13 0.15 0.25 0.31 0.29 0.36 c 1.16 0.63 0.72 0.93 -0.38 1.18 c -0.5 -0.09 -0.79 -0.08 -1.15 -0.02 l -0.11 -0.14 c -0.29 -0.35 -0.88 -0.96 -1.17 -1.21 c -0.33 -0.29 -0.47 -0.39 -0.58 -0.39 c -0.13 0 -1.77 0.74 -1.87 0.84 c -0.05 0.05 0.07 0.21 0.48 0.64 c 0.46 0.49 0.84 0.95 0.87 1.07 c 0.02 0.06 0 0.1 -0.05 0.14 c -0.18 0.15 -0.86 0.45 -1.71 0.75 c -0.86 0.32 -1.03 0.35 -1.22 0.25"/><path d="m 11.38 1.39 c -0.22 -0.41 -0.58 -0.83 -0.63 -1.27 c 0.09 -0.04 1.08 0.03 1.48 0.09 c 0.67 0.11 0.6 0.05 0.88 0.71 c 0.28 0.65 0.61 1.04 0.58 1.07 c -0.72 0.14 -1.71 -0.44 -2.32 -0.61"/><path d="m 16.27 6.11 c -0.56 -0.13 -1.43 -0.51 -1.77 -0.74 c -0.44 -0.93 -0.38 -0.91 -1.41 -1.89 c 0.02 0 0.21 0.06 0.44 0.15 c 0.49 0.18 0.95 0.31 1.24 0.33 c 0.2 0.02 0.21 0.02 0.21 -0.04 c -0.15 -0.47 -1.2 -1.18 -1.25 -1.77 c 0 -0.03 0.03 -0.05 0.07 -0.06 c 0.87 -0.03 1.8 -0.05 2.62 -0.14 c 0.59 0.49 1.58 1.16 2.16 1.82 c -0.52 0.34 -1.56 0.29 -1.98 0.3 c -0.63 0.02 -1.14 0.04 -1.18 0.06 c -0.05 0.03 0.02 0.1 0.47 0.54 c 0.51 0.49 0.99 1.29 1.04 1.43 c 0.05 0.17 -0.19 0.14 -0.68 0.03"/><path d="m 19.39 5.98 c -0.25 -0.7 -0.65 -1.17 -0.67 -2.11 c 0.71 0.68 1.62 1.51 2.17 2.3 c -0.62 0 -1.07 0.09 -1.5 -0.2"/></svg>