<svg xmlns="http://www.w3.org/2000/svg" viewBox="0 0 22 22"><path d="m 5.6 2.52 c 5.08 -5 9.77 -1.35 13.62 2.65 c 3.14 3.25 3.28 6.27 1.2 9.47 c -5.43 8.35 -12.48 11.45 -19.87 -1.51 c -1.82 -4.27 2 -8.25 5 -10.61" style="fill:#f4f4f4"/><path d="m 9.23 18.33 c -1.31 -1.3 -1.5 -1.52 -1.41 -1.68 c 0.08 -0.15 -0.03 -0.3 -0.78 -1.04 c -0.75 -0.73 -0.87 -0.89 -0.82 -1.08 c 0.05 -0.19 -0.08 -0.36 -0.81 -1.09 c -0.47 -0.48 -0.81 -0.85 -0.75 -0.83 c 0.06 0.02 1.45 1.33 3.09 2.91 c 1.64 1.59 3.04 2.89 3.11 2.91 c 0.07 0.02 1.45 -1.29 3.06 -2.9 c 1.61 -1.61 3 -2.93 3.08 -2.93 c 0.09 0 -0.21 0.36 -0.71 0.85 c -0.62 0.62 -0.86 0.91 -0.86 1.08 c 0 0.16 -0.23 0.45 -0.84 1.05 c -0.73 0.73 -0.83 0.85 -0.78 1.07 c 0.05 0.22 -0.09 0.39 -1.4 1.71 c -0.8 0.81 -1.5 1.47 -1.56 1.47 c -0.06 0 -0.79 -0.68 -1.61 -1.5" style="fill:#222"/><path d="m 8.15 14.63 c 0 -0.05 -0.17 -0.51 -0.38 -1.03 c -0.4 -0.99 -0.46 -1.16 -0.4 -1.16 c 0.02 0 0.09 0.06 0.15 0.13 c 0.32 0.34 0.71 0.96 1.41 2.25 c 0.27 0.5 0.56 1.01 0.64 1.14 c 0.08 0.14 0.03 0.25 0.02 0.26 c -0.42 -0.51 -1.19 -0.99 -1.45 -1.59" style="fill:#008e00"/><path d="m 9.31 16.32 c -0.89 -0.86 -2.55 -2.5 -3.7 -3.64 l -2.08 -2.08 l 2.72 -2.73 c 1.5 -1.5 3.15 -3.13 3.67 -3.63 l 0.95 -0.89 l 0.19 0.13 c 0.1 0.07 1.73 1.66 3.61 3.54 c 3.24 3.22 3.42 3.41 3.36 3.54 c -0.16 0.34 -5.26 5.64 -6.59 6.86 l -0.5 0.45 m 0.71 -0.99 c 1.7 -1.81 4.21 -3.89 6.1 -6.19 l 0.13 -0.18 l -0.24 -0.31 c -1.86 -1.89 -3.61 -3.6 -5.19 -5.16 l -1.48 -1.46 l -0.64 0.59 c -0.35 0.33 -1.95 1.89 -3.55 3.48 l -2.91 2.89 l 0.25 0.28 c 0.28 0.32 2.11 2.09 3.17 3.06 c 0.38 0.35 1.11 1.09 1.72 1.7 c 0.61 0.66 1.34 1.34 2 1.86 c 0 0.11 0.41 -0.25 0.69 -0.56"/><path d="m 10.23 16.73 c -0.09 -0.36 -0.82 -2.44 -1.34 -3.65 c -0.34 -0.79 -0.65 -1.39 -0.96 -1.87 c -0.34 -0.53 -0.48 -0.77 -0.46 -0.82 c 0.02 -0.06 0.59 0.54 0.87 0.92 c 0.46 0.64 1.14 1.87 1.59 2.89 c 0.13 0.3 0.25 0.53 0.27 0.52 c 0.06 -0.03 0.02 -0.59 -0.05 -0.89 c -0.09 -0.36 -0.22 -0.59 -0.73 -1.4 c -0.58 -0.91 -0.82 -1.32 -1.28 -2.19 c -0.56 -1.05 -0.79 -1.69 -0.61 -1.65 c 0.11 0.02 0.39 0.39 1.32 1.71 c 0.48 0.69 0.91 1.3 0.96 1.35 l 0.08 0.09 l -0.02 -0.41 c -0.08 -1.4 -0.07 -2.09 0.04 -2.09 c 0.09 0 0.19 0.54 0.46 2.54 c 0.13 0.92 0.25 1.31 0.4 1.31 c 0.06 0 0.11 -0.25 0.21 -1.02 c 0.12 -0.9 0.16 -1.77 0.13 -2.68 c -0.04 -0.91 -0.09 -1.23 -0.27 -1.76 c -0.2 -0.59 -0.29 -1 -0.35 -1.55 c -0.05 -0.48 -0.02 -0.68 0.11 -0.8 c 0.2 -0.19 0.56 0.26 0.82 1.03 c 0.25 0.74 0.25 0.81 0.16 1.73 c -0.12 1.11 -0.11 1.07 -0.2 2.29 c -0.11 1.61 -0.13 2 -0.1 2.07 c 0.02 0.02 0.07 -0.02 0.16 -0.13 c 0.17 -0.22 1.18 -1.71 1.4 -2.05 c 0.14 -0.22 0.2 -0.29 0.33 -0.35 c 0.19 -0.09 0.25 -0.17 0.36 -0.54 c 0.08 -0.29 0.39 -1.91 0.39 -2.06 c 0 -0.09 0.02 -0.2 0.13 -0.08 c 0.1 0.12 0.09 0.24 0.08 0.7 l -0.04 0.64 l 0.13 -0.36 c 0.04 -0.11 0.11 -0.24 0.12 -0.31 c 0.04 -0.24 0.08 -0.32 0.23 -0.19 c 0.14 0.13 0.11 0.21 0.08 0.46 c -0.03 0.29 -0.16 0.66 -0.39 1.1 c -0.37 0.71 -0.5 1.15 -0.88 3 c -0.27 1.28 -0.38 1.95 -0.34 2 c 0.04 0.05 0.07 -0.03 0.32 -0.73 c 0.13 -0.36 0.29 -0.77 0.35 -0.91 c 0.11 -0.23 0.12 -0.25 0.15 -0.17 c 0.07 0.19 -0.2 0.89 -0.38 2.33 l -0.05 0.41 c -0.53 0.43 -0.92 1.09 -1.46 1.41 c -0.05 -0.18 -0.2 -0.33 -0.31 -0.54 c -0.31 -0.61 -0.41 -0.7 -0.52 -0.44 c -0.08 0.18 -0.11 0.9 -0.06 1.3 c 0.05 0.32 0 0.5 -0.14 0.58 c -0.23 -0.29 -0.63 -0.52 -0.68 -0.71 m 1.9 -1.48 c 0.07 -0.12 0.68 -2.95 0.64 -2.98 c -0.03 -0.03 -0.16 0.18 -0.48 0.76 c -0.45 0.83 -0.66 1.31 -0.66 1.5 c 0 0.22 0.31 0.79 0.43 0.79 c 0.02 0 0.05 -0.03 0.07 -0.07" style="fill:#008e00"/></svg>