<svg xmlns="http://www.w3.org/2000/svg" viewBox="0 0 22 22"><path d="m 19.73 16.83 c 7.91 -11.25 -6.7 -22.65 -16 -13.48 c -8.78 8.64 -0.64 22.1 10.29 17.86 c 2.28 -0.88 4.28 -2.31 5.73 -4.38" style="fill:#4b0081"/><g style="fill:#fff"><path d="m 10.43 4.15 v 2.14 h -2.21 v -1.8 c -0.11 0.03 -0.21 0.07 -0.31 0.1 v 1.7 h -2.21 v -0.44 c -0.11 0.09 -0.21 0.19 -0.31 0.29 v 0.15 h -0.16 c -0.1 0.1 -0.2 0.2 -0.29 0.3 h 0.45 v 2.13 h -1.75 c -0.04 0.1 -0.07 0.2 -0.11 0.3 h 1.86 v 2.14 h -2.21 c 0 0.1 0 0.2 0.01 0.3 h 2.2 v 2.13 h -1.75 c 0.04 0.11 0.08 0.2 0.13 0.3 h 1.63 v 2.14 h -0.16 c 0.15 0.15 0.31 0.3 0.47 0.44 v -0.13 h 2.21 v 1.39 c 0.1 0.04 0.21 0.07 0.31 0.11 v -1.5 h 2.21 v 1.83 c 0.11 0 0.21 0 0.31 -0.01 v -1.82 h 2.21 v 1.39 c 0.11 -0.04 0.21 -0.08 0.32 -0.12 v -1.27 h 2.05 c 0.16 -0.14 0.32 -0.3 0.47 -0.46 c 0.02 -2.47 -0.05 -8.09 0 -9.46 c -0.14 -0.16 -0.16 -0.15 -0.32 -0.29 v 0.15 h -2.21 v -1.57 c -0.11 -0.04 -0.21 -0.08 -0.31 -0.12 v 1.7 h -2.21 v -2.13 c -0.1 0 -0.21 -0.01 -0.31 -0.01 m -4.73 2.44 h 2.21 v 2.13 h -2.21 m 2.52 -2.13 h 2.21 v 2.13 h -2.21 m 2.52 -2.13 h 2.2 v 2.13 h -2.2 m 2.52 -2.13 h 2.2 v 2.13 h -2.2 m -7.56 0.3 h 2.21 v 2.14 h -2.21 m 2.52 -2.14 h 2.21 v 2.14 h -2.21 m 2.52 -2.14 h 2.2 v 2.14 h -2.2 m 2.52 -2.14 h 2.2 v 2.14 h -2.2 m -7.56 0.3 h 2.21 v 2.13 h -2.21 m 2.52 -2.13 h 2.21 v 2.13 h -2.21 m 2.52 -2.13 h 2.2 v 2.13 h -2.2 m 2.52 -2.13 h 2.2 v 2.13 h -2.2 m -7.56 0.3 h 2.21 v 2.14 h -2.21 m 2.52 -2.14 h 2.21 v 2.14 h -2.21 m 2.52 -2.14 h 2.2 v 2.14 h -2.2 m 2.52 -2.14 h 2.2 v 2.14 h -2.2"/><path d="m 14.52 8.73 l -1.9 2.37 c 0.01 0.02 0.01 0.05 0.01 0.07 c 0 0.17 -0.14 0.3 -0.31 0.3 c -0.18 0 -0.32 -0.14 -0.32 -0.3 c 0 -0.05 0.01 -0.09 0.03 -0.14 l -1.29 -2 l -1.58 1.52 c 0 0.17 -0.14 0.31 -0.31 0.31 c -0.18 0 -0.32 -0.14 -0.32 -0.31 l -0.31 -0.3 l -0.95 0.92 c 0 0.17 -0.14 0.3 -0.32 0.3 v 2.74 h 7.56" style="fill-opacity:0.08"/><path d="m 14.52 8.12 c -0.17 0 -0.31 0.14 -0.31 0.3 c 0 0.05 0.01 0.11 0.04 0.15 l -1.85 2.3 c -0.03 -0.01 -0.05 -0.01 -0.08 -0.01 c -0.01 0 -0.02 0 -0.02 0 l -1.28 -1.98 c 0.03 -0.05 0.04 -0.1 0.04 -0.15 c 0 -0.17 -0.14 -0.3 -0.31 -0.3 c -0.18 0 -0.32 0.14 -0.32 0.3 c 0 0.05 0.01 0.1 0.04 0.14 l -1.46 1.42 c -0.05 -0.02 -0.1 -0.04 -0.15 -0.04 c -0.05 0 -0.1 0.02 -0.15 0.04 l -0.2 -0.2 c 0.02 -0.04 0.04 -0.09 0.04 -0.14 c 0 -0.17 -0.14 -0.3 -0.32 -0.3 c -0.17 0 -0.31 0.14 -0.31 0.3 c 0 0.05 0.01 0.1 0.04 0.14 l -0.83 0.81 c -0.05 -0.02 -0.1 -0.04 -0.15 -0.04 c -0.18 0 -0.32 0.14 -0.32 0.3 c 0 0.17 0.14 0.3 0.32 0.3 c 0.17 0 0.32 -0.14 0.32 -0.3 l 0.94 -0.92 l 0.32 0.31 c 0 0.17 0.14 0.3 0.32 0.3 c 0.17 0 0.31 -0.14 0.31 -0.3 l 1.58 -1.53 l 1.29 2 c -0.02 0.04 -0.03 0.09 -0.03 0.13 c 0 0.17 0.14 0.3 0.32 0.3 c 0.17 0 0.31 -0.14 0.31 -0.3 c 0 -0.03 0 -0.05 -0.01 -0.07 l 1.9 -2.37 c 0.18 0 0.32 -0.14 0.32 -0.3 c 0 -0.17 -0.14 -0.3 -0.32 -0.3" style="fill-opacity:0.12"/><path d="m 6.65 11.17 l 1.26 -1.22 l 0.63 0.61 l 1.89 -1.83 l 1.57 2.44 l 2.21 -2.75 v 5.49 h -7.56" style="fill-opacity:0.54"/><path d="m 14.21 7.81 c -0.18 0 -0.32 0.14 -0.32 0.3 c 0 0.05 0.02 0.11 0.04 0.15 l -1.85 2.3 c -0.03 -0.01 -0.05 -0.01 -0.08 -0.01 c -0.01 0 -0.02 0 -0.02 0 l -1.28 -1.98 c 0.03 -0.05 0.04 -0.1 0.04 -0.15 c 0 -0.17 -0.14 -0.3 -0.32 -0.3 c -0.18 0 -0.32 0.14 -0.32 0.3 c 0 0.05 0.02 0.1 0.04 0.14 l -1.46 1.42 c -0.05 -0.02 -0.1 -0.04 -0.15 -0.04 c -0.05 0 -0.1 0.02 -0.15 0.04 l -0.2 -0.2 c 0.02 -0.04 0.04 -0.09 0.04 -0.14 c 0 -0.17 -0.14 -0.3 -0.31 -0.3 c -0.18 0 -0.32 0.14 -0.32 0.3 c 0 0.05 0.02 0.1 0.04 0.14 l -0.84 0.81 c -0.05 -0.02 -0.1 -0.04 -0.15 -0.04 c -0.17 0 -0.31 0.13 -0.31 0.3 c 0 0.17 0.14 0.3 0.31 0.3 c 0.18 0 0.32 -0.14 0.32 -0.3 l 0.95 -0.92 l 0.31 0.3 c 0 0.17 0.14 0.31 0.32 0.31 c 0.18 0 0.32 -0.14 0.32 -0.31 l 1.57 -1.52 l 1.29 2 c -0.02 0.04 -0.04 0.09 -0.04 0.14 c 0 0.17 0.14 0.3 0.32 0.3 c 0.18 0 0.32 -0.14 0.32 -0.3 c 0 -0.03 0 -0.05 -0.01 -0.07 l 1.9 -2.37 c 0.17 0 0.31 -0.14 0.31 -0.3 c 0 -0.17 -0.14 -0.3 -0.31 -0.3"/><path d="m 17 6.76 h 1.12 v 7.9 h -1.12"/><path d="m 17.64 16.88 l -0.32 -0.89 l -0.34 -0.88 l 0.63 -0.02 l 0.63 -0.05 l -0.3 0.92"/></g></svg>