<svg xmlns="http://www.w3.org/2000/svg" viewBox="0 0 22 22"><path d="m 19.52 4.05 c 5.37 8.15 1.04 15.59 -5 17.35 c -8.18 2.37 -19.29 -3.86 -11.97 -16.7 c 2.91 -5.1 13.18 -6.46 17 -0.64" style="fill:#d0ede4"/><path d="m 7.34 9.29 c -0.11 -0.91 -0.08 -1.61 -0.08 -2.58 l 0.35 -0.47 c 0.41 -0.55 0.77 -0.89 1.19 -1.11 c 0.28 -0.15 0.45 -0.16 2.25 -0.16 c 1.73 0 1.98 0.02 2.26 0.15 c 0.43 0.2 0.92 0.66 1.25 1.18 l 0.27 0.43 c 0 0.89 0 1.78 0 2.66 c -0.27 0.16 -1 0.19 -1.32 -0.04 c -0.07 -0.07 -0.11 -0.28 -0.11 -0.73 c 0 -0.95 -0.16 -1.41 -0.66 -1.91 l -0.41 -0.41 c -0.85 0 -1.7 0 -2.55 0 l -0.39 0.37 c -0.51 0.48 -0.61 0.74 -0.68 1.76 c -0.04 0.46 -0.08 0.88 -0.11 0.92 c -0.28 0.09 -1.14 0.13 -1.27 -0.07" style="fill:#ed6b2f"/><path d="m 7.64 17.24 c -0.98 0.07 -0.88 -0.23 -1.3 -0.61 v -2.98 v -2.98 c 0.12 -0.35 0.25 -0.48 0.6 -0.61 h 8.54 c 0.21 0.08 0.45 0.17 0.56 0.65 c 0.09 0.22 0.08 0.92 -0.01 1 c -0.41 0.15 -0.79 0.01 -1.24 0.12 c -0.31 0.09 -0.41 0.33 -0.2 0.64 c 0.08 0.12 0.33 0.11 0.94 0.14 c 0.69 0.04 0.53 0.21 0.57 0.67 c 0.04 0.5 -0.11 0.34 -0.8 0.37 c -0.79 0.04 -0.86 -0.06 -0.86 0.41 c -0.04 0.52 0.34 0.34 0.93 0.37 c 0.66 -0.06 0.66 0.13 0.67 0.44 c 0 0.11 0.05 0.48 -0.22 0.51 c -0.17 0.02 -0.54 -0.04 -0.72 -0.04 c -0.58 0 -0.76 -0.07 -0.65 0.48 c 0.07 0.39 0.22 0.27 0.99 0.32 c 0.67 0.04 0.57 -0.04 0.62 0.36 c 0.01 0.1 -0.09 0.23 -0.3 0.41 c -0.32 0.39 -0.76 0.29 -1.23 0.3 c -0.91 0.04 -5.57 0.03 -6.88 0 m 3.94 -1.65 c 0.22 -0.11 0.26 -0.4 0.26 -0.65 c 0 -0.14 -0.02 -0.54 0.14 -0.82 c 0.21 -0.41 0.5 -0.37 0.5 -0.77 c 0 -0.46 -0.04 -0.55 -0.38 -0.91 c -0.27 -0.28 -0.46 -0.36 -0.87 -0.36 c -0.42 0 -0.54 0.05 -0.85 0.34 c -0.34 0.31 -0.41 0.49 -0.42 0.99 c 0 0.4 0.38 0.46 0.58 0.78 c 0.14 0.22 0.07 0.6 0.1 0.8 c 0.04 0.34 0.01 0.48 0.23 0.59 c 0.19 0.09 0.52 0.09 0.71 0" style="fill:#53c1f1"/></svg>