<svg xmlns="http://www.w3.org/2000/svg" viewBox="0 0 22 22"><path d="m 19.2 18.68 c 12.58 -19.37 -21.79 -26.86 -19 -6.93 c 1.12 8.13 14.23 14.35 19 6.93" style="fill:#edc8d7"/><g style="fill:#d5004c;fill-opacity:0.97"><path d="m 10.78 19.86 c -2.04 -0.27 -4.32 -2.3 -5.28 -4.71 c -0.4 -1.02 -0.48 -1.56 -0.49 -3.39 c -0.28 -1.11 -0.73 -1 0.26 -2.33 c 0.24 -0.32 0.39 -0.86 0.54 -1.08 c 0.45 -0.66 0.45 -0.65 -0.29 -1.46 c -0.48 -0.54 -0.73 -0.89 -0.98 -1.4 c -0.27 -0.56 -0.42 -1.04 -0.31 -1.04 c 0.01 0 0.36 0.33 0.77 0.73 c 0.68 0.66 0.81 0.75 1.38 0.98 c 0.35 0.13 0.68 0.24 0.73 0.24 c 0.05 0 0.41 -0.19 0.79 -0.42 c 0.38 -0.23 0.89 -0.89 1.21 -1.04 c 0.55 -0.27 0.61 0.07 1.46 0.09 c 1.18 0.02 1.89 0.12 2.49 0.35 c 0.71 0.17 1.37 -0.19 1.97 0.79 c 0.24 0.16 0.51 0.3 0.59 0.3 c 0.27 0 1.12 -0.34 1.5 -0.6 c 0.2 -0.14 0.62 -0.45 0.92 -0.7 c 0.3 -0.24 0.57 -0.42 0.59 -0.4 c 0.07 0.07 -0.43 0.98 -0.78 1.43 c -0.41 0.56 -1.02 0.87 -1.45 1.39 c 0 0.04 0.05 0.19 0.11 0.35 c 0.15 0.45 0.53 0.85 0.32 1.79 c 0.02 0.11 -0.29 -0.23 -0.29 -0.71 c 0 -0.29 -0.29 -0.47 -0.34 -0.47 c -0.13 0 -0.12 0.04 0.03 0.27 c 0.08 0.13 0.15 0.46 0.2 0.91 c 0.09 1.05 0.09 1.22 -0.09 1.6 c -0.2 0.48 -0.33 1.02 -0.66 1.42 c -0.42 0.63 -1.06 1.13 -1.7 1.45 c -0.33 0.16 -0.76 0.29 -1.16 0.35 c -1.25 0.12 -1.64 0.12 -2.73 -0.55 c -0.36 -0.23 -1.02 -0.88 -1.02 -0.98 c 0 -0.09 0.42 0.13 0.46 0.22 c 0.01 0.03 0.17 0.15 0.34 0.26 c 0.4 0.26 0.45 0.09 0.06 -0.21 c -0.23 -0.18 -0.27 -0.28 -0.42 -0.88 c -0.2 -0.83 -0.16 -1.25 0.16 -1.93 c 0.49 -1.04 1.07 -1.49 1.98 -1.55 c 0.48 -0.03 0.6 -0.01 0.95 0.16 c 0.22 0.11 0.46 0.27 0.55 0.36 c 0.14 0.16 0.14 0.16 -0.05 0.11 c -0.1 -0.03 -0.39 -0.1 -0.63 -0.16 c -0.76 -0.17 -1.49 0.06 -2 0.62 c -0.4 0.44 -0.54 0.88 -0.5 1.55 c 0.1 1.56 1.5 2.69 2.95 2.38 c 0.68 -0.15 1.98 -1.01 1.98 -1.32 c 0 -0.05 0.09 -0.22 0.21 -0.38 c 0.2 -0.3 0.21 -0.3 0.21 -1.57 c 0 -1.15 -0.02 -1.31 -0.18 -1.72 c -0.39 -1.01 -1.16 -1.88 -2 -2.25 c -1.06 -0.47 -2.81 -0.44 -3.54 0.06 c -0.16 0.11 -0.34 0.73 -0.55 0.79 c -0.99 -0.19 -0.21 -0.36 -1.1 0.19 c -0.7 0.43 -1.32 1.12 -1.6 1.77 c -0.32 0.76 -0.43 1.19 -0.5 1.98 c -0.07 0.78 -0.02 1.48 0.17 2.29 c 0.11 0.48 0.43 0.34 0.7 0.6 c 0.35 0.33 0.26 0.86 0.19 0.97 c -0.08 0.12 0.33 1.09 0.66 1.59 c 0.56 0.73 1.29 1.58 2.07 1.97 c 0.67 0.5 1.11 0.55 1.79 0.79 c 0.24 0.11 0.04 0.17 -0.11 0.2 c -0.04 0 -0.3 -0.04 -0.59 -0.07"/><path d="m 11.82 12.89 c -0.19 -0.07 -0.22 -0.22 -0.05 -0.28 c 0.18 -0.06 0.9 -0.05 0.95 0.01 c 0.02 0.03 -0.01 0.12 -0.07 0.19 c -0.12 0.15 -0.51 0.18 -0.83 0.07"/><path d="m 13 12.43 c -0.15 -0.23 0.35 -0.78 0.55 -0.58 c 0.09 0.09 -0.01 0.5 -0.14 0.62 c -0.11 0.11 -0.32 0.09 -0.41 -0.04"/><path d="m 13.61 11.27 c -0.06 -0.24 0.05 -0.67 0.2 -0.67 c 0.12 0 0.17 0.56 0.1 0.74 c -0.07 0.19 -0.25 0.15 -0.3 -0.07"/></g></svg>