<svg xmlns="http://www.w3.org/2000/svg" viewBox="0 0 22 22"><path d="m 21.2 14 c 4.07 -11.38 -10.55 -16.91 -16 -12.28 c -5.49 4.63 -7.37 12.57 -1.15 16.57 c 6.22 4 13.1 7.09 17.19 -4.29" style="fill:#dc133c"/><g style="fill:#ffeff4"><path d="m 12.9 5.15 l 0.59 0.54 v 1.08 h 3.52 v 8.11 c 0 0.3 -0.26 0.54 -0.59 0.54 h -10.57 c -0.33 0 -0.59 -0.24 -0.59 -0.54 v -8.11 h 3.53 v -1.08 l 0.59 -0.54 m 3.52 0.54 h -3.52 v 1.08 h 3.52"/><g style="fill-opacity:0.2"><path d="m 12.9 5.69 v 0.27 h -3.52 v -0.27 m 7.64 9.19 v 0.27 c 0 0.3 -0.26 0.54 -0.59 0.54 h -10.57 c -0.33 0 -0.59 -0.24 -0.59 -0.54 v -0.27 c 0 0.3 0.26 0.54 0.59 0.54 h 10.57 c 0.32 0 0.59 -0.24 0.59 -0.54"/><path d="m 12.9 5.15 l 0.59 0.54 v 0.27 l -0.59 -0.54 h -3.52 l -0.59 0.54 v -0.27 l 0.59 -0.54 m 7.64 1.62 v 0.27 h -3.52 v -0.27 m -0.59 0 v 0.27 h -3.52 v -0.27 m -0.59 0 v 0.27 h -3.53 v -0.27"/></g></g><g style="fill:#dc133c"><path d="m 13.99 13.63 c -0.2 -0.05 -0.2 -0.06 -0.2 -0.32 v -0.27 l 0.16 0.08 c 0.09 0.04 0.28 0.08 0.43 0.08 c 0.39 0 0.54 -0.14 0.58 -0.55 c 0.02 -0.17 0.02 -0.31 0 -0.31 c -0.02 0 -0.11 0.09 -0.21 0.19 c -0.37 0.36 -0.81 0.21 -1.06 -0.36 c -0.11 -0.24 -0.12 -0.35 -0.1 -0.74 c 0.02 -0.49 0.09 -0.69 0.33 -0.93 c 0.26 -0.26 0.59 -0.24 0.87 0.05 l 0.18 0.19 v -0.39 h 0.54 l -0.02 1.3 c -0.02 1.48 -0.05 1.6 -0.43 1.86 c -0.24 0.15 -0.75 0.21 -1.08 0.11 m 0.79 -1.52 c 0.22 -0.22 0.25 -0.84 0.06 -1.14 c -0.11 -0.16 -0.4 -0.19 -0.54 -0.05 c -0.17 0.17 -0.23 0.61 -0.14 0.95 c 0.1 0.35 0.39 0.46 0.62 0.23"/><path d="m 6.76 11.17 v -1.59 h 0.63 v 2.55 h 1.09 v 0.63 h -1.71"/><path d="m 8.95 12 v -1.64 h 0.54 v 0.4 l 0.13 -0.17 c 0.16 -0.2 0.43 -0.31 0.64 -0.25 c 0.07 0.02 0.22 0.13 0.32 0.23 c 0.23 0.25 0.32 0.64 0.29 1.15 c -0.06 0.91 -0.64 1.34 -1.17 0.86 l -0.21 -0.2 v 1.25 h -0.54 m 1.21 -1.47 c 0.23 -0.23 0.23 -0.96 0 -1.22 c -0.14 -0.16 -0.43 -0.14 -0.54 0.04 c -0.1 0.16 -0.16 0.63 -0.11 0.9 c 0.07 0.39 0.4 0.54 0.65 0.29"/><path d="m 11.42 11.1 v -1.64 h 0.54 l 0.02 0.92 l 0.01 0.92 l 0.35 -0.46 l 0.35 -0.46 h 0.32 h 0.32 l -0.26 0.31 c -0.14 0.17 -0.34 0.4 -0.44 0.52 c -0.1 0.12 -0.18 0.24 -0.18 0.27 c 0 0.03 0.21 0.33 0.46 0.66 l 0.46 0.61 h -0.64 l -0.37 -0.5 l -0.37 -0.5 l -0.02 0.5 l -0.02 0.5 h -0.53"/></g></svg>