<svg xmlns="http://www.w3.org/2000/svg" viewBox="0 0 22 22"><path d="m 9.1 0.37 c -8.91 1.03 -11.86 12.96 -5.8 18.49 c 4.46 4.84 13.49 4 16.85 -1.61 c 4.43 -6.43 -0.19 -16.2 -8.36 -17 c -0.9 -0.09 -1.81 -0.04 -2.69 0.14" style="fill:#4595b3"/><g style="fill:#069"><path d="m 10.24 5.95 l 2.23 -1.26 l -2.23 -1.26"/><path d="m 12.66 4.35 l -2.23 -1.26 c -0.13 -0.07 -0.28 -0.07 -0.4 0 c -0.13 0.07 -0.2 0.2 -0.2 0.34 v 2.51 c 0 0.14 0.08 0.27 0.2 0.34 c 0.13 0.07 0.28 0.07 0.41 0 l 2.22 -1.26 c 0.45 -0.25 0.04 -0.94 -0.41 -0.68 l -2.22 1.26 l 0.61 0.34 v -2.51 l -0.61 0.34 l 2.22 1.25 c 0.45 0.26 0.86 -0.43 0.41 -0.68"/><path d="m 10.71 3.99 c -3.98 0.04 -7.18 3.21 -7.18 7.11 c 0 1.92 0.79 3.75 2.2 5.09 c 0.01 0.01 0.01 0.01 0.02 0.02 c 0.09 0.09 0.21 0.14 0.34 0.14 c 0.27 0 0.49 -0.21 0.49 -0.48 c 0 -0.13 -0.05 -0.25 -0.14 -0.34 c -1.23 -1.16 -1.93 -2.76 -1.93 -4.43 c 0 -3.37 2.77 -6.11 6.21 -6.16 m 4.81 0.92 c -0.27 0 -0.49 0.21 -0.49 0.48 c 0 0.13 0.06 0.26 0.16 0.35 c 1.21 1.16 1.89 2.75 1.89 4.4 c 0 1.27 -0.4 2.5 -1.15 3.54 c 0.31 0.12 0.58 0.31 0.79 0.57 c 0.87 -1.2 1.34 -2.63 1.34 -4.11 c 0 -1.9 -0.78 -3.71 -2.16 -5.1 c -0.09 -0.12 -0.23 -0.18 -0.38 -0.18 m -2.04 10.8 c -0.81 0.38 -1.7 0.58 -2.59 0.59 v 0.96 c 1.05 -0.02 2.08 -0.25 3 -0.7 c -0.22 -0.24 -0.37 -0.54 -0.44 -0.86"/><path d="m 9.64 19.1 v -2.52 l -2.22 1.26"/><path d="m 7.22 18.1 l 2.23 1.26 c 0.13 0.07 0.28 0.07 0.4 0 c 0.13 -0.07 0.2 -0.2 0.2 -0.34 v -2.51 c 0 -0.14 -0.08 -0.27 -0.2 -0.34 c -0.13 -0.07 -0.28 -0.07 -0.41 0 l -2.22 1.26 c -0.45 0.25 -0.04 0.94 0.4 0.68 l 2.23 -1.26 l -0.61 -0.34 v 2.51 l 0.61 -0.34 l -2.23 -1.25 c -0.45 -0.26 -0.86 0.43 -0.4 0.68"/></g><g style="fill:#35e297"><path d="m 13.1 8.4 c -0.15 0 -0.3 0.06 -0.41 0.16 c -1.12 1.24 -2.24 2.48 -3.36 3.73 l -1.27 -1.09 c -0.11 -0.11 -0.27 -0.18 -0.43 -0.18 c -0.32 0 -0.59 0.26 -0.59 0.58 c 0 0.13 0.04 0.25 0.12 0.34 l 1.68 2.06 c 0.15 0.17 0.37 0.27 0.59 0.27 c 0.23 0 0.45 -0.1 0.6 -0.28 l 3.54 -4.67 c 0.07 -0.1 0.11 -0.22 0.11 -0.34 c 0 -0.32 -0.27 -0.58 -0.59 -0.58"/><path d="m 15.73 16.44 c 0 0.71 -0.59 1.29 -1.32 1.29 c -0.73 0 -1.32 -0.58 -1.32 -1.29 c 0 -0.71 0.59 -1.29 1.32 -1.29 c 0.73 0 1.32 0.58 1.32 1.29"/></g></svg>