<svg xmlns="http://www.w3.org/2000/svg" viewBox="0 0 22 22"><path d="m 18.76 4.08 c 13.62 19.49 -21.8 25.7 -18.29 4.98 c 1.86 -8.23 12.83 -12.79 18.29 -4.98" style="fill:#e52869"/><g style="fill:#fff"><path d="m 5 13.7 c -0.16 -0.01 -0.19 -0.03 -0.22 -0.15 c -0.05 -0.27 0.02 -0.46 0.21 -0.49 c 0.24 -0.03 0.46 -0.03 0.7 -0.04 v -3.26 c -0.28 -0.02 -0.61 0.04 -0.87 -0.05 c -0.05 -0.16 -0.11 -0.5 0.04 -0.58 c 0.06 -0.03 0.49 -0.05 1.29 -0.05 c 1.38 -0.01 1.35 -0.02 1.35 0.35 c 0 0.3 -0.06 0.33 -0.57 0.33 h -0.41 v 3.25 c 0.3 0.03 0.62 0.02 0.91 0.1 c 0.08 0.07 0.11 0.24 0.06 0.41 c -0.04 0.13 -0.07 0.16 -0.18 0.18 c -0.14 0.03 -1.98 0.02 -2.31 0"/><path d="m 8.8 13.75 c -0.61 -0.14 -0.77 -0.23 -0.78 -0.47 c -0.01 -0.24 0.01 -0.53 0.05 -0.56 c 0.02 -0.02 0.1 0 0.18 0.05 c 0.55 0.32 1.18 0.43 1.59 0.11 c 0.06 -0.05 0.07 -0.23 0.1 -1.59 l 0.04 -1.53 c -0.29 -0.07 -0.96 0.11 -1.14 -0.11 c -0.09 -0.11 -0.08 -0.37 0.02 -0.48 c 0.61 -0.15 0.98 -0.18 1.79 -0.07 c 0.14 0.04 0.16 0.35 0.13 2.16 l -0.02 1.57 l -0.12 0.21 c -0.28 0.52 -0.57 0.68 -1.3 0.7 c -0.19 0 -0.38 0.01 -0.55 0"/><path d="m 11.72 13.66 c -0.13 -0.02 -0.16 -0.05 -0.19 -0.16 c -0.02 -0.07 -0.03 -0.98 -0.02 -2 l 0.01 -1.86 l 0.11 -0.08 c 0.28 -0.09 0.7 -0.19 0.96 0.02 c 0.2 0.18 0.04 0.4 -0.28 0.4 h -0.2 v 3.26 c 0.16 0 0.41 -0.03 0.5 0.09 c 0.1 0.13 0.02 0.31 -0.16 0.35 c -0.25 0.02 -0.5 0.03 -0.73 -0.01"/><path d="m 13.28 13.16 c -0.18 -0.02 -0.34 -0.1 -0.46 -0.21 c -0.57 -0.49 -0.29 -1.38 0.47 -1.46 c 0.3 -0.04 0.5 0.04 0.7 0.25 c 0.29 0.3 0.34 0.59 0.16 0.93 c -0.16 0.32 -0.57 0.55 -0.88 0.49"/><path d="m 14.1 11.5 c -0.2 -0.09 -0.41 -0.27 -0.51 -0.46 c -0.13 -0.25 -0.1 -0.6 0.08 -0.81 c 0.37 -0.43 0.97 -0.48 1.34 -0.11 c 0.3 0.3 0.34 0.72 0.11 1.05 c -0.21 0.31 -0.69 0.46 -1.02 0.32"/><path d="m 14.55 12.69 c -0.18 -0.34 -0.11 -0.68 0.2 -0.97 c 0.32 -0.3 0.66 -0.31 1.1 -0.05 c 0.2 0.12 0.35 0.4 0.35 0.65 c 0 0.44 -0.41 0.84 -0.85 0.83 c -0.33 0 -0.64 -0.18 -0.79 -0.46"/><path d="m 16.2 13.6 c -0.07 -0.07 -0.07 -0.26 0 -0.32 c 0.15 -0.06 0.28 -0.06 0.45 -0.07 v -3.22 l -0.18 -0.01 c -0.23 -0.02 -0.34 -0.11 -0.32 -0.28 c 0.01 -0.09 0.05 -0.14 0.12 -0.18 c 0.12 -0.06 0.73 -0.07 0.82 -0.02 c 0.13 0.08 0.14 0.29 0.14 2.21 v 1.94 c -0.37 -0.05 -0.74 0.04 -1.04 -0.05"/></g></svg>