<svg xmlns="http://www.w3.org/2000/svg" viewBox="0 0 22 22"><path d="m 0.53 8.64 c 6.75 -20.45 33.67 1.5 14.66 11.89 c -7.43 4.45 -18.1 -1.38 -14.66 -11.89" style="fill:#f4f4f4"/><path d="m 17.5 11.54 c 0 3.74 -3.14 6.77 -7 6.77 c -3.88 0 -7 -3 -7 -6.77 c 0 -3.74 3.14 -6.77 7 -6.77 c 3.87 0 7 3 7 6.77" style="fill:#cccdcd"/><path d="m 11.44 18 c -0.07 -0.07 -0.24 -0.3 -0.39 -0.53 c -0.23 -0.35 -0.3 -0.41 -0.51 -0.47 c -0.13 -0.03 -0.34 -0.11 -0.47 -0.16 c -0.13 -0.06 -0.27 -0.11 -0.3 -0.11 c -0.11 0 -0.89 -0.27 -1.3 -0.45 l -0.39 -0.17 l -0.38 0.12 c -0.21 0.07 -0.47 0.17 -0.58 0.23 c -0.27 0.15 -0.67 0.27 -0.93 0.27 c -0.18 0 -0.26 -0.05 -0.65 -0.43 c -0.55 -0.54 -0.88 -0.98 -1.2 -1.61 c -0.23 -0.47 -0.24 -0.52 -0.24 -0.98 c 0 -0.45 0.03 -0.53 0.23 -0.95 c 0.13 -0.28 0.22 -0.54 0.21 -0.66 c 0 -0.11 -0.02 -0.75 -0.04 -1.43 l -0.04 -1.24 l -0.17 -0.14 c -0.22 -0.18 -0.21 -0.32 0.04 -0.81 c 0.64 -1.23 1.59 -2.23 2.73 -2.86 c 0.55 -0.3 0.71 -0.34 0.76 -0.19 c 0.02 0.06 0 0.18 -0.04 0.27 c -0.1 0.18 -0.3 1.25 -0.26 1.36 c 0.02 0.04 0.16 0.11 0.31 0.16 c 0.15 0.04 0.58 0.2 0.94 0.35 c 0.36 0.15 0.69 0.27 0.72 0.27 c 0.08 0 2.5 -0.77 2.6 -0.82 c 0.09 -0.05 0.35 -0.84 0.35 -1.05 c 0 -0.18 -0.39 -0.48 -0.95 -0.74 c -0.49 -0.23 -0.61 -0.32 -0.48 -0.39 c 0.14 -0.08 1.15 0.09 1.84 0.32 c 0.48 0.16 1.39 0.6 1.53 0.75 c 0.05 0.05 0.07 0.13 0.05 0.16 c -0.04 0.07 -0.08 0.06 -0.98 -0.04 c -0.41 -0.04 -0.39 -0.07 -0.59 0.63 c -0.11 0.37 -0.12 0.48 -0.07 0.58 c 0.04 0.07 0.43 0.56 0.89 1.09 c 0.74 0.88 0.84 0.98 1.05 1.02 c 0.13 0.02 0.5 0.12 0.82 0.21 c 0.33 0.09 0.62 0.14 0.64 0.12 c 0.07 -0.07 0.23 -0.63 0.23 -0.8 c 0 -0.22 0.12 -0.45 0.22 -0.43 c 0.12 0.02 0.25 0.29 0.43 0.85 c 0.19 0.6 0.25 0.88 0.33 1.7 c 0.06 0.61 0.06 0.8 -0.02 1.45 c -0.12 0.93 -0.18 1.14 -0.35 1.23 c -0.07 0.04 -0.27 0.26 -0.43 0.49 c -0.16 0.23 -0.39 0.53 -0.51 0.67 c -0.3 0.33 -0.34 0.41 -0.39 0.83 c -0.06 0.47 -0.11 0.6 -0.36 0.85 c -0.64 0.64 -1.8 1.23 -2.92 1.48 c -0.64 0.14 -0.83 0.14 -0.98 -0.02 m -0.11 -2 c 0.26 -0.22 0.73 -0.62 1.06 -0.88 l 0.59 -0.47 l -0.04 -0.43 c -0.04 -0.5 -0.28 -1.57 -0.39 -1.73 c -0.05 -0.07 -0.49 -0.25 -1.36 -0.54 c -0.71 -0.24 -1.34 -0.45 -1.39 -0.47 c -0.07 -0.03 -0.36 0.19 -1.11 0.83 c -0.55 0.48 -1.01 0.9 -1.01 0.93 c 0 0.31 0.47 2.08 0.61 2.29 c 0.1 0.15 0.92 0.48 1.64 0.67 c 0.3 0.08 0.55 0.15 0.57 0.16 c 0.01 0.01 0.1 0.02 0.19 0.02 c 0.13 0 0.28 -0.1 0.64 -0.4 m 4.28 -1.65 c 0.33 -0.39 0.56 -0.71 0.77 -1.06 c 0.13 -0.22 0.15 -0.36 0.19 -0.93 c 0.04 -0.69 0.02 -0.86 -0.21 -1.63 c -0.11 -0.39 -0.13 -0.4 -0.63 -0.54 c -0.26 -0.07 -1.08 -0.29 -1.11 -0.29 c -0.01 0 -0.21 0.29 -0.44 0.65 c -0.23 0.36 -0.57 0.88 -0.76 1.15 c -0.24 0.35 -0.33 0.52 -0.31 0.61 c 0.02 0.07 0.09 0.33 0.15 0.58 c 0.07 0.25 0.16 0.72 0.22 1.03 l 0.1 0.57 l 0.49 0.09 c 0.27 0.05 0.66 0.09 0.87 0.1 h 0.39 m -7 -2.75 c 0.5 -0.45 0.94 -0.84 0.96 -0.88 c 0.05 -0.07 0.03 -2.51 -0.02 -2.63 c -0.05 -0.13 -1.78 -0.8 -2.05 -0.8 c -0.22 0 -1.63 1.16 -2 1.63 l -0.16 0.22 v 0.95 c 0 0.52 0.02 1.06 0.04 1.2 c 0.04 0.23 0.06 0.26 0.36 0.41 c 0.39 0.21 1.65 0.68 1.82 0.69 c 0.09 0 0.42 -0.25 1.05 -0.8" style="fill:#464c4e"/></svg>