<svg xmlns="http://www.w3.org/2000/svg" viewBox="0 0 22 22"><path d="m 0.19 13.36 c 1.06 11.23 18 11.57 21.2 0.65 c 3.15 -8.84 -5.99 -16.1 -13.3 -13.17 c -4.86 1.37 -9.1 6.97 -7.89 12.52" style="fill:#5b6ee0"/><path d="m -0.04 12.75 c -0.31 -1.43 1.32 -3.13 4.21 -2.71 c 2.07 0.3 2.14 0.88 4.23 -0.92 c 2.86 -2.46 2.12 -2.78 -1.21 -5.76 l -1.61 -1.44 c 6.29 -3.36 18.2 10.22 15.89 11.23 c -1.54 0 -2.72 -0.23 -3.49 1.15 c -0.51 0.93 -0.48 2.4 -0.54 2.93 c -0.18 1.49 -1.2 1.38 -2.26 1.94 c -1.06 0.56 -0.93 1.44 -1.07 2.21 c -4.9 1.12 -13.1 -4.21 -14.16 -8.63" style="fill:#f9ef20"/><path d="m 0.09 13.47 c 0 -1.71 2.55 -3 5.08 -2.63 c 1.8 0.29 2.16 0.15 3.99 -1.57 c 2.5 -2.34 2.32 -3.56 -0.86 -6 l -2.18 -1.73 l 1.59 -0.67 c 5.77 -2.43 14.57 2.02 14.39 10.16 c 0 1.48 -0.12 1.6 -1.63 1.6 c -1.35 0 -2.41 -0.03 -3.08 1.29 c -0.45 0.88 -0.42 2.29 -0.47 2.79 c -0.16 1.43 -1.04 1.31 -1.97 1.85 c -0.93 0.54 -1.23 2 -1.35 2.75 c -0.08 0.51 -1.83 0.68 -3.11 0.65 c -6.79 0.1 -10.1 -4.77 -10.39 -8.46" style="fill:#99e44e"/><path d="m 7.2 21.52 c -1 -0.23 -4.26 -1.41 -5.61 -3.97 l 1.67 -1.06 c 0.85 -0.54 2.79 -1.69 4.33 -2.51 c 2.18 -1.16 3.11 -1.82 4.12 -2.91 c 2.31 -2.5 1.36 -3.8 0.12 -5.54 c -0.96 -1.33 -0.44 -3.41 -2.4 -4.54 l -0.81 -0.46 c 6.4 -1.66 10.75 2.3 12.4 5.66 l -0.5 1.08 c -0.33 0.71 0.5 1.13 -0.48 1.46 c -0.31 0.11 -1.73 0.28 -2.42 0.74 c -0.68 0.46 -1.43 0.84 -1.67 0.84 c -1.03 0 -3.43 2.93 -4.07 4.98 c -0.17 0.54 -0.55 1.36 -0.85 1.82 c -0.3 0.46 -0.99 1.64 -1.55 2.61 c -1 1.75 -0.88 2.37 -2.28 1.79" style="fill:#495b28"/><g style="fill:#99e44e"><path d="m 17.72 3.77 c 0 0.54 -0.45 0.98 -1.02 0.98 c -0.56 0 -1.01 -0.44 -1.01 -0.98 c 0 -0.54 0.45 -0.98 1.01 -0.98 c 0.56 0 1.02 0.44 1.02 0.98"/><path d="m 18.1 6.68 c 0 0.54 -0.45 0.98 -1.02 0.98 c -0.56 0 -1.02 -0.44 -1.01 -0.98 c 0 -0.54 0.45 -0.98 1.01 -0.98 c 0.56 0 1.02 0.44 1.02 0.98"/><path d="m 15.39 5.21 c 0 0.54 -0.45 0.98 -1.01 0.98 c -0.56 0 -1.02 -0.44 -1.02 -0.98 c 0 -0.55 0.45 -0.98 1.02 -0.98 c 0.56 0 1.01 0.44 1.01 0.98"/></g><g style="fill:#4e3621"><path d="m 13.91 4.77 h 0.84 v 0.83 h -0.84"/><path d="m 16.27 3.35 h 0.84 v 0.84 h -0.84"/><path d="m 16.65 6.24 h 0.83 v 0.84 h -0.83"/></g><path d="m 5.11 20.7 c -1.43 -0.73 -1.49 -0.81 -1.04 -1.49 c 0.48 -0.74 0.97 -1.13 1.29 -1.02 c 0.14 0.05 0.5 -0.11 0.79 -0.34 c 0.69 -0.54 1.01 -0.31 1.38 0.99 c 0.26 0.94 0.26 0.96 -0.44 1.68 c -0.38 0.4 -0.75 0.72 -0.82 0.72 c -0.06 0 -0.59 -0.25 -1.17 -0.54" style="fill:#b5b2b8"/></svg>