<svg xmlns="http://www.w3.org/2000/svg" viewBox="0 0 22 22"><path d="m 21.72 8.48 c -4.3 -20.62 -33.85 1.52 -16.1 12 c 6.89 4.5 18.3 -1.39 16.1 -12" style="fill:#f4f4f4"/><path d="m 16.2 17.65 c -0.41 -0.08 0.06 -0.67 0.1 -0.85 c 0.14 -0.25 0.44 -0.05 1.04 -0.02 c 0 0.32 0 0.65 0 0.97 c -0.26 -0.02 -0.6 0.02 -1.14 -0.11 m -4.09 -1.13 c 0 -0.26 -0.08 -0.88 0.17 -0.97 c 0.22 -0.09 1.16 -0.29 1.19 -0.27 c 0.04 0.04 0.04 0.79 0 0.93 c -0.15 0.19 -1.25 0.45 -1.36 0.31 m -2.04 -0.63 c -0.05 -0.09 0.04 -0.91 0.11 -0.96 c 0.05 -0.04 0.72 -0.21 1.13 -0.28 l 0.15 -0.03 c -0.05 0.29 0.1 0.73 -0.07 0.99 c -0.23 0.14 -1.24 0.39 -1.31 0.27 m 5.74 -0.14 c 0 -0.14 0.08 -0.58 0.18 -0.94 c 0.06 -0.22 0.13 -0.25 0.87 -0.39 c 0.16 -0.03 0.33 -0.07 0.39 -0.09 c 0.08 -0.02 0.1 0 0.1 0.12 c -0.09 0.41 -0.19 0.86 -0.24 1.2 l -0.25 0.12 c -0.24 0.11 -1.04 0.25 -1.04 -0.02 m -7.59 -1.39 c 0.05 -0.05 0.62 -0.19 1.04 -0.26 c 0.2 -0.03 0.2 -0.03 0.24 0.19 c 0.05 0.29 0.05 0.66 0 0.74 c -0.04 0.06 -0.99 0.3 -1.18 0.3 c -0.12 -0.3 -0.18 -0.63 -0.09 -0.97 m 5.86 0.77 c -0.23 0.02 -0.42 0.01 -0.44 -0.02 c 0.04 -0.28 -0.08 -0.97 0.19 -1.13 c 0.05 -0.03 0.34 -0.11 0.65 -0.17 c 0.63 -0.14 0.66 -0.13 0.62 0.21 c 0 0.44 0.13 0.79 0.21 1.23 c -0.42 0.01 -0.85 -0.15 -1.23 -0.12 m -7.55 -0.2 c -0.01 -0.02 -0.11 -0.45 -0.12 -0.7 c -0.02 -0.51 -0.09 -0.45 0.7 -0.63 c 0.3 -0.07 0.46 -0.08 0.5 -0.04 c 0.06 0.06 0.1 0.89 0.05 0.95 c -0.37 0.04 -0.75 0.52 -1.13 0.43 m 5 -0.51 c 0.06 -0.28 -0.05 -0.96 0.21 -1.07 c 0.21 -0.09 1.06 -0.24 1.14 -0.21 c 0.05 0.02 0.09 0.19 0.11 0.5 c 0.02 0.26 0.05 0.59 0.07 0.74 c 0.16 0.45 -1.53 0.05 -1.54 0.04 m -6.78 -0.27 c -0.05 -0.33 -0.05 -0.59 -0.07 -0.95 c 0.36 -0.08 0.75 -0.12 1.1 -0.23 c 0.25 0.28 0.17 0.61 0.17 0.98 c -0.38 0.11 -0.71 0.13 -1.09 0.21 c -0.05 0.02 -0.11 0.01 -0.12 -0.02 m 4.83 -0.23 l 0.03 -0.53 c -0.04 -0.64 1.31 -1.28 1.32 -0.57 c 0 0.39 0.12 0.74 0.12 1.12 c -0.49 -0.03 -1.03 -0.05 -1.48 -0.02 m 5.63 -0.4 c -0.02 -0.36 0.13 -0.66 0.14 -1.03 c 0 -0.18 -0.04 -0.17 0.75 -0.31 c 0.27 -0.05 0.51 -0.08 0.53 -0.06 c 0.02 0.02 0 0.23 -0.04 0.47 c -0.11 0.77 -0.09 0.74 -0.39 0.83 c -0.36 0.11 -0.95 0.18 -1 0.1 m -6.43 -0.18 c -0.36 -0.05 -0.66 -0.02 -1.02 0.02 c 0.03 -0.25 -0.11 -1.06 0.13 -1.11 c 0.61 -0.13 1.07 -0.2 1.11 -0.18 c 0.1 0.39 0.1 0.73 0.14 1.16 c 0.01 0.16 -0.07 0.18 -0.36 0.11 m 5.43 -0.34 c -0.39 -0.09 -0.77 0.01 -1.15 -0.1 c -0.04 -0.06 0.1 -1.04 0.16 -1.13 c 0.2 -0.12 0.48 -0.11 0.68 -0.15 c 0.62 -0.13 0.59 -0.14 0.6 0.27 c -0.01 0.38 0.11 0.73 0.16 1.1 c 0 0.08 -0.23 0.09 -0.45 0.01 m -8.21 -0.22 c -0.05 -0.43 -0.04 -0.96 0.02 -1 c 0.07 -0.05 0.83 -0.2 1.09 -0.21 c 0.27 0.23 0.21 0.84 0.27 1.24 h -0.68 c -0.38 0 -0.68 -0.01 -0.69 -0.03 m 5 -0.36 c 0.07 -0.36 -0.04 -0.83 0.14 -1.15 c 0.09 -0.08 1.09 -0.27 1.21 -0.22 c 0.12 0.38 0.11 0.91 0.17 1.23 c 0.04 0.2 0.03 0.21 -0.1 0.21 c -0.52 -0.1 -0.92 -0.1 -1.42 -0.07 m -5.5 -0.08 c -0.42 -0.07 -0.74 -0.05 -1.19 -0.05 c 0 -0.34 0 -0.67 0 -1 c 0.37 -0.06 0.73 -0.16 1.11 -0.2 c 0.16 0.16 0.3 1.45 0.09 1.26 m 4.88 -1.8 c 0.02 0.02 0.05 0.23 0.07 0.47 c 0.16 0.77 -2.34 -0.14 -0.07 -0.47 m -2.52 0.83 l -0.57 -0.02 c 0.03 -0.24 -0.11 -1.05 0.12 -1.1 c 0.66 -0.13 1.07 -0.2 1.11 -0.18 c 0.11 0.37 0.09 0.71 0.15 1.12 c 0.03 0.2 0.02 0.21 -0.1 0.2 c -0.07 -0.01 -0.39 -0.02 -0.71 -0.03 m 6.74 -0.02 c 0.05 -0.4 -0.02 -0.96 0.25 -1.27 c 0.21 -0.05 1.09 -0.16 1.12 -0.13 c 0.05 0.05 -0.1 1.13 -0.16 1.2 c -0.1 0.13 -1.14 0.29 -1.21 0.19 m -8.44 -0.43 l -0.58 -0.02 c 0.01 -0.36 -0.02 -0.72 0.01 -1.07 c 0.17 -0.03 1.06 -0.16 1.13 -0.16 c 0.16 0.16 0.25 1.28 0.13 1.29 c -0.25 -0.02 -0.48 -0.02 -0.69 -0.03 m 7.51 -0.02 c -0.39 -0.1 -0.87 0.03 -1.19 -0.13 c 0.05 -0.41 0.09 -0.71 0.14 -1.14 l 0.2 -0.04 c 0.55 -0.08 1.07 -0.35 1.07 0.19 c -0.01 0.38 0.11 0.73 0.17 1.1 c 0 0.08 -0.18 0.09 -0.39 0.02 m -5 -1.02 c 0.02 -0.37 0.02 -0.74 0.05 -1.11 c 0.38 -0.09 0.72 -0.12 1.13 -0.22 c 0.14 -0.04 0.14 -0.02 0.14 0.18 c 0 0.19 0.03 0.41 0.15 1.08 c 0.02 0.1 0.01 0.18 -0.02 0.18 c -0.52 -0.11 -0.95 -0.11 -1.47 -0.11 m -0.55 -0.38 c -0.42 -0.06 -0.75 -0.04 -1.2 -0.05 c 0 -0.38 0 -0.75 0 -1.13 l 0.48 -0.07 c 0.78 -0.11 0.7 -0.16 0.79 0.47 c 0.04 0.3 0.08 0.6 0.08 0.66 c 0.01 0.11 -0.09 0.18 -0.15 0.11 m 5.9 -0.27 c 0 -0.06 0.17 -1.25 0.18 -1.26 c 0.03 -0.03 1.18 -0.15 1.2 -0.12 c 0.03 0.02 -0.05 0.79 -0.12 1.15 c -0.02 0.09 -0.09 0.14 -0.27 0.18 c -0.23 0.05 -0.99 0.09 -0.99 0.04 m -2 -0.43 c 0.01 -0.43 0.06 -0.75 0.11 -1.21 c 0.41 -0.05 0.86 -0.18 1.21 -0.18 c 0.03 0.25 0.23 1.51 0.07 1.5 c -0.45 -0.15 -0.99 -0.05 -1.39 -0.11 m -0.8 -0.28 c -0.38 -0.09 -0.75 0.01 -1.12 -0.1 c -0.01 -0.43 0.02 -0.77 0.05 -1.22 c 0.38 -0.04 0.79 -0.18 1.17 -0.15 c 0.04 0.53 0.45 1.61 -0.1 1.47 m -2.94 -0.54 c -0.01 -0.39 -0.01 -0.77 -0.02 -1.15 c 0.34 -0.05 0.68 -0.11 1.01 -0.16 l 0.21 -0.03 c 0.04 0.37 0.05 0.75 0.13 1.11 c 0.05 0.24 0.03 0.32 -0.07 0.3 c -0.45 -0.03 -0.79 -0.05 -1.25 -0.07 m 5.25 -0.79 c -0.02 -0.05 0 -0.35 0.04 -0.67 l 0.07 -0.58 c 0.46 -0.09 0.8 -0.14 1.23 -0.15 c -0.1 0.43 -0.07 0.93 -0.2 1.28 c -0.29 0.13 -0.58 0.12 -0.91 0.17 c -0.16 0.02 -0.22 0.01 -0.25 -0.05 m -2.04 -0.39 c -0.01 -0.35 0.07 -0.74 0.09 -1.07 c 0.29 -0.32 0.63 -0.25 1.17 -0.3 c 0.13 0.39 0.09 0.77 0.17 1.2 l 0.04 0.23 h -0.72 c -0.39 0 -0.73 -0.03 -0.75 -0.05 m -1.35 -0.32 c -0.48 -0.03 -0.51 -0.04 -0.51 -0.16 c 0.01 -0.38 0.02 -0.68 0.02 -1.06 c 0.39 -0.04 0.79 -0.14 1.18 -0.12 c 0.36 1.34 0.21 1.4 -0.7 1.34 m 2.84 -1.23 c 0.05 -0.41 0 -0.93 0.13 -1.29 c 0.43 -0.07 0.75 -0.07 1.2 -0.1 l -0.04 0.42 c -0.07 0.76 -0.09 0.85 -0.23 0.9 c -0.19 0.07 -1.03 0.13 -1.07 0.08 m -1.97 -0.31 c 0.04 -0.41 0.02 -0.84 0.11 -1.25 c 0.03 -0.03 0.92 -0.16 1.12 -0.16 c 0.14 0.46 0.14 0.99 0.21 1.47 l -0.19 -0.01 c -0.44 -0.02 -0.8 -0.04 -1.25 -0.05" style="fill:#272727"/><path d="m 11.1 12.22 c 0 0.73 -0.6 1.32 -1.34 1.32 c -0.74 0 -1.34 -0.59 -1.34 -1.32 c 0 -0.73 0.6 -1.32 1.34 -1.32 c 0.74 0 1.34 0.59 1.34 1.32" style="fill:#4581b3"/><path d="m 10.54 10.35 c 0.02 -0.37 0.04 -0.74 0.05 -1.11 c 0.37 -0.07 1.16 -0.42 1.23 -0.03 c 0.06 0.33 0.15 1.23 0.12 1.21 c -0.5 -0.04 -0.88 -0.05 -1.41 -0.07" style="fill:#bb423f"/><g style="fill:#b9b918"><path d="m 2.95 13.89 c -0.1 -0.42 -0.14 -0.77 -0.2 -1.21 l 0.63 -0.15 c 0.35 -0.08 0.7 -0.12 0.77 -0.09 c 0.18 0.07 0.31 1.02 0.17 1.21 c -0.36 0.26 -0.78 0.19 -1.19 0.35 c -0.07 0.03 -0.15 -0.02 -0.18 -0.11"/><path d="m 13.94 16.31 c 0.05 -0.06 1.4 -0.5 1.54 -0.5 c 0.18 0.28 0.23 1.22 -0.05 1.41 c -0.16 0.1 -1.43 0.48 -1.6 0.48 c -0.02 -0.48 0.01 -0.89 0.12 -1.4"/></g></svg>