<svg xmlns="http://www.w3.org/2000/svg" viewBox="0 0 22 22"><path d="m 19.7 16.88 c 7.26 -8.14 -4.19 -20.68 -13.77 -15.61 c -9.69 5.13 -7.11 22.1 4.79 20.64 c 3.54 -0.43 6.61 -2.37 8.98 -5"/><path d="m 10.86 17.1 v -0.55 l 1.74 -1.61 c 0.96 -0.89 1.77 -1.61 1.8 -1.61 c 0.08 0 1.11 0.97 1.12 1.06 c 0.02 0.07 -0.16 0.24 -2.47 2.4 l -0.93 0.87 h -1.26 m -3.66 -0.53 c -0.27 -0.06 -0.5 -0.2 -0.68 -0.39 c -0.22 -0.24 -0.26 -0.35 -0.29 -0.8 l -0.03 -0.38 l -0.57 -0.01 l -0.57 -0.01 v -1.1 l 0.57 -0.01 l 0.57 -0.01 l 0.01 -1.05 l 0.01 -1.05 h -1.17 v -1.1 l 0.57 -0.01 l 0.57 -0.01 l 0.01 -1.05 l 0.01 -1.05 h -1.17 v -1.1 l 0.57 -0.01 l 0.57 -0.01 l 0.02 -0.4 c 0.02 -0.29 0.05 -0.45 0.13 -0.58 c 0.12 -0.22 0.43 -0.5 0.61 -0.53 c 0.07 -0.01 0.13 -0.04 0.13 -0.06 c 0 -0.02 1.64 -0.04 3.75 -0.04 h 3.75 l 0.28 0.14 c 0.15 0.08 0.33 0.21 0.41 0.3 c 0.26 0.31 0.27 0.39 0.27 2.21 v 1.66 l -0.5 0.48 c -0.54 0.52 -0.62 0.58 -0.68 0.52 c -0.02 -0.02 -0.04 -0.97 -0.05 -2.11 l -0.01 -2.07 l -0.49 -0.01 c -0.32 -0.01 -0.51 0 -0.55 0.04 c -0.05 0.04 -0.06 0.32 -0.06 1.57 c 0 1.19 -0.01 1.52 -0.05 1.52 c -0.03 0 -0.29 -0.21 -0.56 -0.46 c -0.28 -0.25 -0.52 -0.46 -0.54 -0.46 c -0.02 0 -0.28 0.22 -0.57 0.48 c -0.29 0.27 -0.55 0.48 -0.57 0.46 c -0.03 -0.02 -0.04 -0.63 -0.04 -1.56 c 0 -1.36 -0.01 -1.54 -0.07 -1.57 c -0.04 -0.01 -0.53 -0.02 -1.1 -0.02 c -0.97 0 -1.03 0 -1.08 0.08 c -0.05 0.09 -0.07 8.29 -0.02 8.41 c 0.02 0.06 0.11 0.07 0.51 0.07 c 0.27 0 0.52 0.01 0.56 0.03 c 0.11 0.04 0.11 1.05 0 1.09 c -0.11 0.04 -2.27 0.02 -2.46 -0.02 m 0.17 -2.14 v -0.48 l -1.1 -0.02 v 1.02 l 1.1 -0.02 m 0 -3.71 v -0.48 l -1.1 -0.02 v 1.02 l 1.1 -0.02 m 0 -3.71 v -0.48 l -1.1 -0.02 v 1.02 l 1.1 -0.02 m 7.95 4.54 c -0.3 -0.29 -0.55 -0.54 -0.55 -0.57 c 0 -0.03 0.14 -0.18 0.31 -0.34 c 0.41 -0.39 0.48 -0.39 0.91 0 c 0.52 0.47 0.57 0.53 0.57 0.7 c 0 0.13 -0.04 0.19 -0.3 0.44 c -0.17 0.16 -0.32 0.29 -0.35 0.29 c -0.03 0 -0.3 -0.23 -0.6 -0.52" style="fill:#fff"/></svg>