<svg xmlns="http://www.w3.org/2000/svg" viewBox="0 0 22 22"><path d="m 0.91 8.93 c 2.19 -14.67 24.73 -9.66 20.46 4.54 c -2.86 13.49 -25.92 9.84 -20.46 -4.54" style="fill:#cd86de"/><path d="m 9.63 17.26 c -1.74 -0.31 -3.46 -1.56 -4.36 -3.15 c -0.83 -1.36 -0.95 -3.29 -0.63 -4.72 c 0.52 -2.18 2.32 -4 4.56 -4.63 c 1.36 -0.34 3.06 -0.16 4.18 0.28 c 1.43 0.59 2.69 1.81 3.35 3.22 c 0.78 1.88 0.7 3.95 -0.08 5.55 c -0.88 1.78 -2.64 3.12 -4.53 3.45 c -1.07 0.13 -1.76 0.11 -2.5 0 m 1.98 -3.69 c 0.46 -0.13 0.82 -0.33 1.19 -0.7 c 0.55 -0.55 0.77 -1.09 0.77 -1.9 c 0 -0.81 -0.22 -1.36 -0.77 -1.9 c -0.55 -0.55 -1.1 -0.77 -1.91 -0.77 c -0.75 0 -1.32 0.21 -1.84 0.69 c -0.58 0.53 -0.84 1.15 -0.84 1.95 c 0 0.84 0.21 1.38 0.77 1.93 c 0.71 0.7 1.74 0.9 2.63 0.7 m -1.1 -0.77 c -0.55 -0.12 -1.06 -0.52 -1.31 -1.05 c -0.23 -0.54 -0.21 -1.11 0 -1.55 c 0.19 -0.4 0.55 -0.75 0.95 -0.93 c 0.49 -0.18 1.02 -0.2 1.46 0 c 0.41 0.19 0.77 0.54 0.96 0.93 c 0.21 0.52 0.24 1.05 0.03 1.52 c -0.17 0.37 -0.6 0.8 -0.96 0.96 c -0.36 0.1 -0.77 0.2 -1.13 0.13 m 0.73 -1.05 c 0.24 -0.11 0.4 -0.29 0.48 -0.55 c 0.21 -0.68 -0.56 -1.33 -1.2 -1 c -0.44 0.22 -0.61 0.66 -0.43 1.09 c 0.21 0.48 0.75 0.64 1.16 0.46" style="fill:#fff"/></svg>