<svg xmlns="http://www.w3.org/2000/svg" viewBox="0 0 22 22"><path d="m 0.92 13 c 2.19 14.67 24.72 9.66 20.46 -4.54 c -2.86 -13.49 -25.92 -9.84 -20.46 4.54" style="fill:#211e1f"/><g style="fill:#fff"><path d="m 6.58 5.7 h 1.86 v 1.86 h -1.86"/><path d="m 8.75 5.73 h 1.86 v 1.86 h -1.86"/><path d="m 11 5.68 h 1.86 v 1.86 h -1.86"/><path d="m 13.19 5.71 h 1.86 v 1.86 h -1.86"/><path d="m 13.23 7.99 h 1.86 v 1.86 h -1.86"/><path d="m 13.23 10.24 h 1.86 v 1.86 h -1.86"/><path d="m 13.26 12.41 h 1.86 v 1.86 h -1.86"/><path d="m 13.23 14.72 h 1.86 v 1.86 h -1.86"/><path d="m 6.58 14.7 h 1.86 v 1.86 h -1.86"/></g><path d="m 6.55 12.44 h 1.86 v 1.86 h -1.86" style="fill:#e54203"/><g style="fill:#fff"><path d="m 6.52 10.18 h 1.86 v 1.86 h -1.86"/><path d="m 6.52 7.96 h 1.86 v 1.86 h -1.86"/></g><path d="m 8.77 12.41 h 1.86 v 1.86 h -1.86" style="fill:#23e03e"/><path d="m 11.1 12.41 h 1.86 v 1.86 h -1.86" style="fill:#2f2de6"/><path d="m 7.84 12.44 h 0.57 v 1.86 h -0.57" style="fill:#ffd600"/><path d="m 12.33 12.41 h 0.57 v 1.86 h -0.57" style="fill:#9370db"/><path d="m 10 12.41 h 0.6 v 1.86 h -0.6" style="fill:#00ced0"/></svg>