<svg xmlns="http://www.w3.org/2000/svg" viewBox="0 0 22 22"><path d="m 11 0.27 c 14.52 -1.65 14.31 21.99 -0.26 21.71 c -13.55 0.78 -14.77 -23 0.26 -21.71" style="fill:#db7093"/><g transform="matrix(0.123 0 0 0.136 4.91 4.43)" style="stroke:#aaa;stroke-width:3"><path d="m 31.99 10 h 46 c 3.88 0 7 2.82 7 6.34 v 67.3 c 0 3.51 -3.12 6.34 -7 6.34 h -46 c -3.85 0 -7 -2.82 -7 -6.34 v -67.3 c 0 -3.51 3.15 -6.34 7 -6.34" style="fill:#ffd"/><path d="m 22 10 h 46 c 3.85 0 7 2.82 7 6.34 v 67.3 c 0 3.51 -3.15 6.34 -7 6.34 h -46 c -3.88 0 -7 -2.82 -7 -6.34 v -67.3 c 0 -3.51 3.12 -6.34 7 -6.34" style="fill:#ffc0ca"/><path d="m 55 25 v -15 h 9.98 v 15 l -4.99 4.98" style="fill:#f00"/></g></svg>