<svg xmlns="http://www.w3.org/2000/svg" viewBox="0 0 22 22"><path d="m 0.58 13.59 c 6.75 20.44 33.67 -1.5 14.66 -11.89 c -7.43 -4.45 -18.1 1.38 -14.66 11.89" style="fill:#336790"/><path d="m 11.52 10.76 h 2.02 c 1.27 0 2.3 0.52 2.3 1.15 v 3.95 c 0 0.64 -1.03 1.15 -2.3 1.15 h -2.02 c -1.27 0 -2.3 -0.52 -2.3 -1.15 v -3.95 c 0 -0.64 1.03 -1.15 2.3 -1.15" style="fill:#92b9d7"/><path d="m 9.72 16.68 c -0.15 -0.06 -0.71 -0.27 -0.58 -0.49 c 0.04 -0.05 0.09 -0.04 0.25 0.08 c 0.79 0.59 3.16 0.82 4.97 0.49 c 0.61 -0.11 1.16 -0.3 1.43 -0.48 c 0.17 -0.12 0.21 -0.12 0.21 -0.03 c 0 0.21 -0.83 0.61 -1.55 0.74 c -0.27 0.05 -1.78 0.2 -1.92 0.19 c -0.93 -0.08 -2.03 -0.18 -2.79 -0.5 m -4.2 -0.73 c 0.03 -0.49 -0.07 -1.3 0.02 -1.68 c 0.31 0.02 0.91 0 1.68 0 c 1.19 0 1.4 0.01 1.47 0.08 c 0.11 0.54 0.17 0.92 0.05 1.55 c -0.03 0.07 -0.21 0.08 -1.52 0.08 c -0.82 0 -1.41 -0.02 -1.7 -0.04 m 6.17 -0.93 c -1.59 -0.15 -2.61 -0.53 -2.61 -0.98 c 0 -0.18 0.04 -0.18 0.31 0 c 0.31 0.2 0.93 0.39 1.59 0.51 c 0.69 0.12 2.46 0.12 3.14 0 c 0.64 -0.11 1.14 -0.26 1.47 -0.44 c 0.36 -0.19 0.41 -0.19 0.36 0.01 c -0.04 0.21 -0.11 0.28 -0.4 0.42 c -1.28 0.4 -2.69 0.58 -3.87 0.48 m -6.15 -1.1 c -0.03 -0.55 -0.01 -0.98 0 -1.57 l 1.64 0.02 c 1.16 0.01 1.51 0 1.54 0.05 c 0.05 0.07 0.06 1.4 0.01 1.52 c -0.03 0.07 -0.21 0.08 -1.53 0.08 c -1.18 0 -1.39 -0.07 -1.67 -0.1 m 6.23 -1.14 c -1.44 -0.11 -2.56 -0.49 -2.66 -0.9 c -0.21 -0.78 1.21 -1.33 3.41 -1.33 c 1.79 0 3.09 0.34 3.4 0.89 c 0.09 0.16 0.07 0.48 -0.04 0.62 c -0.2 0.24 -0.82 0.47 -1.72 0.62 c -0.41 0.07 -1.93 0.13 -2.39 0.1 m -6.19 -0.72 c -0.07 -0.65 -0.04 -1.64 -0.04 -1.64 l 1.61 -0.02 c 1.04 -0.01 1.49 0 1.54 0.04 c 0.1 0.08 0.11 1.5 0.01 1.6 c -0.07 0.07 -3 0.09 -3.13 0.02 m 0 -1.98 c 0.03 -0.5 -0.15 -1.1 0.05 -1.56 c 0.85 -0.01 2.32 0.03 3.08 -0.03 c 0.09 0.09 0.09 1.51 0 1.59 c -1.21 -0.01 -1.91 0.07 -3.13 0 m 0.04 -1.91 c -0.09 -0.09 -0.09 -1.66 0 -1.74 c 0.05 -0.04 0.48 -0.06 1.61 -0.06 c 1.47 0 1.54 0 1.59 0.1 c 0.07 0.13 0.07 1.54 0 1.66 c -0.05 0.09 -0.13 0.1 -1.59 0.1 c -1.13 0 -1.56 -0.02 -1.61 -0.06 m 3.48 -0.05 c -0.06 -0.33 -0.16 -1.54 0.04 -1.65 c 0.07 -0.04 1.18 -0.05 3.24 -0.05 c 3.07 0 3.14 0 3.24 0.1 c 0.11 0.37 -0.01 0.82 0.02 1.55 l -0.08 0.11 h -3.2 c -2.42 0 -3.21 -0.01 -3.26 -0.06" style="fill:#fff"/><path d="m 9.24 8.5 h 6.32 c 0.14 0 0.25 0.38 0.25 0.84 c 0 0.47 -0.11 0.84 -0.25 0.84 h -6.32 c -0.14 0 -0.25 -0.38 -0.25 -0.84 c 0 -0.46 0.11 -0.84 0.25 -0.84" style="fill:#92b9d7"/></svg>