<svg xmlns="http://www.w3.org/2000/svg" xmlns:xlink="http://www.w3.org/1999/xlink" viewBox="0 0 22 22"><defs><g id="7" style="clip-path:url(#6)"><path d="m 14.82 7.1 l -2.16 0.65 l 0.09 3.63 l 1.38 -0.03" style="fill:url(#0);fill-rule:evenodd"/><path d="m 13.38 14.2 l 1.63 0.43 l -0.1 -3.84" style="fill:url(#1);fill-rule:evenodd"/><path d="m 11.24 17.1 l 2.18 -1.42 l 1.49 -4.78 l 0.09 3.69 l 1.69 -1.06 l -0.14 -5.5 l -1.73 -1 l -1.51 3.9 l -0.13 -4.91 l -2.26 -1.33" style="fill:url(#2);fill-rule:evenodd"/><path d="m 7.15 7.22 l 2.19 0.56 l 0.09 3.63 l -1.39 0.03" style="fill:url(#3);fill-rule:evenodd"/><path d="m 8.95 14.3 l -1.6 0.5 l -0.1 -3.84" style="fill:url(#4);fill-rule:evenodd"/><path d="m 11.24 17.1 l -2.25 -1.32 l -1.73 -4.71 l 0.09 3.69 l -1.74 -0.99 l -0.14 -5.5 l 1.68 -1.08 l 1.71 3.83 l -0.13 -4.91 l 2.19 -1.43" style="fill:url(#5);fill-rule:evenodd"/></g><clipPath id="6"><path d="M 0,0 H22 V22 H0 z"/></clipPath><linearGradient id="5" gradientUnits="userSpaceOnUse" y1="107.1" x2="0" y2="-102.9" gradientTransform="matrix(0.055 -0.001 0.001 0.051 12 10.99)" xlink:href="#0"/><linearGradient id="4" gradientUnits="userSpaceOnUse" y1="72.1" x2="0" y2="2.13" gradientTransform="matrix(0.055 -0.001 0.001 0.051 12 10.99)" xlink:href="#2"/><linearGradient id="3" gradientUnits="userSpaceOnUse" x1="-69.96" y1="-2.77" x2="-69.2" y2="-71.8" gradientTransform="matrix(0.055 -0.001 0.001 0.051 12 10.99)" xlink:href="#1"/><linearGradient id="2" gradientUnits="userSpaceOnUse" y1="87.1" x2="0" y2="-92.9" gradientTransform="matrix(0.055 -0.001 0.001 0.051 12 10.99)"><stop style="stop-color:#014b79"/><stop offset="1" style="stop-color:#039dff"/></linearGradient><linearGradient id="1" gradientUnits="userSpaceOnUse" y1="67.1" x2="0" y2="-2.88" gradientTransform="matrix(0.055 -0.001 0.001 0.051 12 10.99)"><stop style="stop-color:#d73b37"/><stop offset="1" style="stop-color:#f37270"/></linearGradient><linearGradient id="0" gradientUnits="userSpaceOnUse" x1="28.38" y1="-10.24" x2="39.55" y2="-76.2" gradientTransform="matrix(0.055 -0.001 0.001 0.051 12 10.99)"><stop style="stop-color:#62973e"/><stop offset="1" style="stop-color:#a6ff69"/></linearGradient></defs><path d="m 5.72 2.61 c 5.08 -5 9.77 -1.35 13.62 2.65 c 3.14 3.25 3.29 6.27 1.2 9.47 c -5.43 8.36 -12.48 11.45 -19.87 -1.5 c -1.82 -4.27 2.02 -8.25 5 -10.61" style="fill:#e3ecee"/><use xlink:href="#7"/></svg>