<svg xmlns="http://www.w3.org/2000/svg" viewBox="0 0 22 22"><path d="m 5.26 19.72 c 8.1 7.22 20.46 -4.16 15.44 -13.69 c -5.07 -9.63 -21.84 -7.1 -20.41 4.76 c 0.42 3.52 2.34 6.57 4.97 8.93" style="fill:#172a45"/><path d="m 17.59 9.24 c 0 2.63 -2.89 4.76 -6.47 4.76 c -3.57 0 -6.47 -2.13 -6.46 -4.76 c 0 -2.63 2.89 -4.75 6.46 -4.75 c 3.57 0 6.47 2.13 6.47 4.75" style="fill:#01439b"/><path d="m 6.74 6.89 l 6.86 -0.13 l 1.65 -0.7 l 0.04 4.18 l -0.86 2 c -0.72 0 -1 -0.45 -1.68 -0.42 c -2.11 0.09 -4 0.03 -6.16 0.03 c 0 -1.73 0.16 -3.24 0.16 -4.97" style="fill:#d8ceb2"/><path d="m 8.79 18.24 c -0.02 -0.04 -0.04 -0.17 -0.04 -0.3 c -0.01 -0.46 0.11 -1.08 0.73 -1.33 c 0.53 -0.21 0.96 -0.23 0.96 -0.69 c 0 -0.2 -0.04 -0.33 -0.15 -0.52 c -0.19 -0.32 -0.33 -0.42 -1.15 -0.49 c -2.12 -0.19 -4.23 -2.31 -4.09 -2.36 c 0.7 -0.24 10.76 -0.33 11.74 -0.16 c 0.09 0.02 0 0.14 0.12 0.55 c -2.35 0.45 -3.78 1.12 -3.89 2.48 c -0.05 0.61 -0.15 0.56 -0.05 0.77 c 0.45 0.27 1.02 0.33 1.54 0.71 c 0.22 0.17 0.3 0.79 0.3 1.04 c 0 0.34 -0.01 0.34 -0.56 0.34 c -0.42 0.02 -0.48 0.07 -0.55 -0.32 c -0.08 -0.43 -0.2 -0.59 -0.51 -0.75 c -0.38 -0.19 -0.46 -0.09 -0.23 0.29 c 0.16 0.26 0.17 0.4 0.01 0.36 c -0.56 -0.14 -1.47 -0.15 -2.11 -0.02 c -0.4 0.11 -0.28 -0.11 -0.16 -0.34 c 0.22 -0.4 0.18 -0.47 -0.18 -0.3 c -0.34 0.16 -0.43 0.27 -0.54 0.66 c -0.05 0.18 -0.11 0.35 -0.13 0.36 c -0.06 0.06 -1.02 0.07 -1.06 0.01" style="fill:#fff"/><g style="fill:#2f2f2a"><path d="m 6.63 12.23 c -0.26 -0.26 -0.48 -0.49 -0.48 -0.51 c 0 -0.02 0.09 -0.14 0.19 -0.25 l 0.2 -0.21 c -0.14 -0.16 -0.29 -0.33 -0.39 -0.52 c 0 -0.04 0.07 -0.16 0.17 -0.27 c 0.09 -0.11 0.17 -0.24 0.17 -0.29 c -0.08 -0.21 -0.24 -0.34 -0.34 -0.55 c 0 -0.04 0.09 -0.17 0.2 -0.3 l 0.2 -0.23 c -0.09 -0.22 -0.23 -0.29 -0.39 -0.5 c 0.09 -0.21 0.25 -0.35 0.34 -0.56 c -0.08 -0.19 -0.25 -0.29 -0.34 -0.47 c 0 -0.2 0.73 -1.05 0.95 -1.11 c 0.08 -0.02 0.16 0.02 0.3 0.14 c 0.25 0.21 0.27 0.31 0.62 -0.01 l 0.2 -0.18 c 0.15 0.15 0.32 0.3 0.43 0.48 c 0 0.08 -0.37 0.41 -0.46 0.41 c -0.21 -0.11 -0.33 -0.24 -0.51 -0.41 l -0.45 0.45 c -0.61 0.61 -0.61 0.61 -0.42 0.94 c 0.08 0.14 0.15 0.29 0.15 0.33 c 0 0.03 -0.08 0.15 -0.17 0.27 c -0.09 0.11 -0.17 0.23 -0.17 0.25 c 0 0.02 0.08 0.12 0.17 0.21 c 0.21 0.21 0.21 0.34 0.02 0.63 c -0.08 0.12 -0.14 0.23 -0.14 0.25 c 0 0.02 0.06 0.13 0.14 0.23 c 0.08 0.11 0.14 0.24 0.14 0.29 c -0.08 0.22 -0.21 0.36 -0.35 0.55 l 0.14 0.14 c 0.07 0.08 0.25 0.28 0.33 0.32 c 0.13 0.07 0.1 -0.04 0.34 -0.16 l 0.26 -0.13 c 0.18 0.13 0.37 0.26 0.56 0.39 c 0.15 -0.14 0.31 -0.29 0.49 -0.38 c 0.19 0.15 0.56 0.28 0.37 0.49 c -0.2 0.23 -0.75 0.68 -0.86 0.71 c -0.46 -0.32 -0.43 -0.41 -0.63 -0.24 c -0.08 0.07 -0.39 0.26 -0.43 0.26 c -0.04 0 -0.3 -0.21 -0.56 -0.47"/><path d="m 14.1 12.36 c -0.21 0.09 -0.34 0.25 -0.55 0.34 c -0.04 0 -0.27 -0.19 -0.51 -0.42 c -0.36 -0.36 -0.42 -0.43 -0.37 -0.5 c 0.11 -0.14 0.9 -0.84 0.95 -0.84 c 0.18 0.12 0.28 0.24 0.44 0.4 l -0.2 0.21 c -0.18 0.19 -0.19 0.22 -0.14 0.34 c 0.03 0.07 0.13 0.17 0.21 0.22 c 0.14 0.09 0.17 0.09 0.3 0.02 c 0.13 -0.06 0.3 -0.27 0.3 -0.34 c 0 -0.02 -0.09 -0.12 -0.19 -0.24 l -0.2 -0.21 l 0.55 -0.55 l 0.55 -0.54 l 0.12 0.09 c 0.16 0.12 0.3 0.34 0.28 0.44 c -0.01 0.05 -0.16 0.27 -0.24 0.36 c -0.16 0.18 -0.23 0.09 0.01 0.37 c 0.18 0.21 0.23 0.25 -0.07 0.63 c -0.21 0.26 -0.57 0.75 -0.63 0.75 c -0.23 -0.17 -0.38 -0.38 -0.63 -0.54"/><path d="m 13.1 6.88 c 0.33 -0.3 0.66 -0.65 1.04 -1 c 0.21 0.08 0.3 0.27 0.48 0.41 c -0.35 0.34 -0.72 0.75 -1.07 1.01 c -0.16 -0.15 -0.29 -0.27 -0.45 -0.43"/><path d="m 14.73 6.34 c 0.27 -0.28 0.3 -0.34 0.5 -0.46 c 0.14 0 0.33 0.21 0.49 0.47 c 0.05 0.1 -0.31 0.56 -0.39 0.56 c -0.23 -0.18 -0.38 -0.35 -0.6 -0.57"/><path d="m 15.1 8.87 c -0.12 -0.15 -0.19 -0.3 -0.16 -0.4 c 0.03 -0.1 0.25 -0.34 0.31 -0.34 c 0.02 0 0.13 0.09 0.23 0.2 c 0.21 0.22 0.21 0.28 0.02 0.51 c -0.13 0.14 -0.25 0.23 -0.41 0.04"/><path d="m 9.39 11.88 c 0.07 -0.03 0.37 -0.39 0.47 -0.39 c 0.18 0.09 0.28 0.21 0.43 0.36 c -0.14 0.16 -0.29 0.31 -0.43 0.47 c -0.14 -0.11 -0.38 -0.28 -0.46 -0.44"/><path d="m 13.43 9.38 c -0.07 -0.08 -0.13 -0.18 -0.13 -0.2 c 0.08 -0.18 0.18 -0.3 0.3 -0.46 l 0.14 0.15 c 0.21 0.22 0.22 0.33 0.06 0.52 c -0.16 0.2 -0.21 0.2 -0.37 0"/><path d="m 15.1 7.82 c -0.11 -0.16 -0.19 -0.3 -0.16 -0.4 c 0.03 -0.1 0.26 -0.34 0.32 -0.34 c 0.02 0 0.13 0.09 0.23 0.2 c 0.21 0.22 0.22 0.28 0.02 0.51 c -0.13 0.14 -0.25 0.29 -0.41 0.04"/><path d="m 13.44 8.24 c -0.07 -0.07 -0.13 -0.16 -0.13 -0.18 c 0.08 -0.16 0.18 -0.27 0.3 -0.42 l 0.14 0.13 c 0.2 0.2 0.22 0.3 0.06 0.46 c -0.17 0.18 -0.21 0.18 -0.38 0"/><path d="m 13.43 10.44 c -0.07 -0.08 -0.13 -0.17 -0.13 -0.2 c 0.08 -0.18 0.18 -0.3 0.3 -0.46 l 0.14 0.14 c 0.21 0.22 0.22 0.33 0.06 0.51 c -0.16 0.19 -0.21 0.19 -0.37 0"/><path d="m 15.1 10 c -0.11 -0.16 -0.19 -0.3 -0.16 -0.4 c 0.03 -0.1 0.25 -0.34 0.31 -0.34 c 0.02 0 0.13 0.09 0.23 0.2 c 0.21 0.21 0.21 0.28 0.02 0.5 c -0.13 0.14 -0.23 0.3 -0.41 0.04"/><path d="m 10.46 11.86 c 0.07 -0.04 0.37 -0.4 0.46 -0.4 c 0.18 0.09 0.28 0.21 0.43 0.37 c -0.14 0.16 -0.29 0.32 -0.43 0.48 c -0.14 -0.12 -0.38 -0.29 -0.46 -0.45"/><path d="m 11.57 11.82 c 0.07 -0.04 0.38 -0.41 0.47 -0.41 c 0.18 0.09 0.28 0.23 0.43 0.38 c -0.14 0.16 -0.29 0.33 -0.43 0.49 c -0.14 -0.12 -0.38 -0.29 -0.46 -0.46"/><path d="m 8.89 6.86 c 0.07 -0.04 0.37 -0.41 0.47 -0.41 c 0.18 0.09 0.28 0.23 0.43 0.38 c -0.14 0.16 -0.29 0.33 -0.43 0.49 c -0.14 -0.12 -0.38 -0.29 -0.46 -0.46"/><path d="m 9.97 6.83 c 0.07 -0.03 0.37 -0.41 0.46 -0.41 c 0.18 0.09 0.28 0.22 0.43 0.38 c -0.14 0.16 -0.29 0.33 -0.43 0.49 c -0.14 -0.12 -0.38 -0.29 -0.46 -0.46"/><path d="m 11 6.77 c 0.07 -0.04 0.37 -0.41 0.47 -0.41 c 0.18 0.09 0.28 0.22 0.43 0.38 c -0.14 0.16 -0.29 0.33 -0.43 0.49 c -0.14 -0.12 -0.38 -0.29 -0.46 -0.46"/><path d="m 12 6.76 c 0.07 -0.04 0.37 -0.41 0.47 -0.41 c 0.18 0.09 0.28 0.22 0.43 0.38 c -0.14 0.16 -0.29 0.33 -0.43 0.49 c -0.14 -0.12 -0.38 -0.29 -0.46 -0.46"/></g></svg>