<svg xmlns="http://www.w3.org/2000/svg" viewBox="0 0 22 22"><path d="m 1.27 7 c -8.18 26.6 35.75 13.3 15.21 -4.93 c -4.12 -3.65 -13 -2.25 -15.21 4.93" style="fill:#e7e7fd"/><path d="m 7.08 16.27 c -0.71 -0.33 -1.1 -0.77 -1.27 -1.44 c -0.3 -1.18 0.64 -2.5 2.66 -3.72 l 0.39 -0.23 c 0.05 -0.52 0.03 -1.04 0.11 -1.56 c 0.04 -0.25 -0.09 -0.34 -0.61 -0.43 c -0.88 -0.14 -1.29 -0.46 -1.19 -0.94 c 0.07 -0.41 0.48 -0.57 0.94 -0.38 c 0.3 0.12 0.78 0.18 0.89 0.11 c 0.06 -0.04 0.11 -0.29 0.14 -0.75 c 0.07 -0.82 0.14 -1.02 0.38 -1.14 c 0.28 -0.14 0.5 -0.11 0.71 0.11 c 0.3 0.23 0.18 0.55 0.15 0.89 c -0.05 0.83 -0.06 0.82 0.63 0.67 c 0.51 -0.11 0.7 -0.09 0.89 0.13 c 0.16 0.18 0.19 0.4 0.09 0.64 c -0.52 0.61 -0.98 0.34 -1.68 0.67 c -0.09 0.07 -0.18 1.2 -0.1 1.28 c 0.04 0.04 0.31 -0.03 0.76 -0.18 c 0.93 -0.26 1.81 -0.44 2.61 -0.07 c 0.71 0.33 1.26 0.99 1.5 1.81 c 0.16 0.52 0.16 1.58 0 2.14 c -0.19 0.7 -0.53 1.31 -1.05 1.86 c -0.54 0.57 -0.8 0.7 -1.12 0.57 c -0.25 -0.11 -0.38 -0.3 -0.38 -0.57 c 0 -0.19 0.06 -0.29 0.45 -0.69 c 0.75 -0.77 1.09 -1.71 0.96 -2.62 c -0.14 -0.96 -0.66 -1.48 -1.5 -1.48 c -0.42 0 -1.29 0.26 -1.97 0.59 c -0.48 0.23 -0.43 0.11 -0.62 1.54 c -0.3 2.32 -0.94 3.36 -2.06 3.36 c -0.27 -0.02 -0.52 -0.07 -0.71 -0.16 m 0.94 -1.22 c 0.2 -0.25 0.38 -0.78 0.53 -1.59 c 0.2 -1.06 0.09 -1.11 -0.73 -0.35 c -0.94 0.86 -1.06 1.55 -0.34 1.98 c 0.27 0.16 0.39 0.15 0.55 -0.04 m 6.46 -5.8 c -0.12 -0.1 -0.18 -0.23 -0.2 -0.43 c -0.05 -0.43 -0.21 -0.59 -0.86 -0.93 c -0.48 -0.25 -0.6 -0.34 -0.68 -0.52 c -0.11 -0.26 -0.07 -0.48 0.13 -0.66 c 0.27 -0.25 0.47 -0.23 1.11 0.08 c 1.07 0.54 1.5 1.07 1.5 1.88 c 0 0.34 -0.02 0.43 -0.16 0.56 c -0.21 0.21 -0.6 0.21 -0.84 0.01" style="fill:#6462ff"/></svg>