<svg xmlns="http://www.w3.org/2000/svg" viewBox="0 0 22 22"><path d="m 18.1 3.24 c 17.34 22.83 -30.39 26.1 -15.1 2.77 c 3.49 -5.32 10.47 -8.82 15.1 -2.77" style="fill:#1693d0"/><path d="m 4.14 16.75 c 0 -0.03 0.17 -0.29 0.37 -0.57 c 1.43 -2.12 2.68 -4 3.96 -6.1 c 0.75 -1.21 1.05 -1.65 1.12 -1.65 c 0.02 0 0.19 0.1 0.38 0.23 c 0.7 0.45 1.04 0.6 1.05 0.45 c 0 -0.04 -0.28 -0.32 -0.62 -0.64 c -0.34 -0.32 -0.63 -0.59 -0.63 -0.6 c 0.08 -0.14 0.18 -0.23 0.26 -0.38 c 0.55 -0.98 0.98 -1.82 1.6 -2.98 c 0.09 -0.07 0.23 0.12 0.3 0.41 c 0.21 0.91 1.79 4.82 2.98 7.45 c 0.34 0.75 0.62 1.39 0.62 1.44 c -0.02 0.13 -0.18 0.11 -0.71 -0.13 c -0.46 -0.21 -0.67 -0.18 -0.68 -0.09 c -0.01 0.09 0.58 0.39 1.16 0.78 c 0.83 0.56 0.86 0.72 1.27 1.63 c 0.39 0.87 0.38 0.9 -0.21 0.55 c -0.89 -0.53 -1.94 -1 -3.28 -1.5 c -0.48 -0.18 -0.9 -0.34 -0.91 -0.36 c 0.25 -0.99 0.09 -2.08 -0.44 -2.72 c -0.45 -0.44 -1.02 -0.48 -1.44 -0.04 c -0.87 0.84 -0.97 1.55 -1.09 2.67 l -0.02 0.16 l -0.67 0.21 c -1.3 0.4 -3.12 1.16 -4 1.65 c -0.28 0.16 -0.41 0.19 -0.4 0.09 m 10.63 -2.22 c -0.8 -0.56 -1.31 -0.99 -1.3 -1.11 c 0.01 -0.11 0.12 -0.21 0.25 -0.24 c 0.08 -0.02 0.32 -0.04 0.52 -0.06 c 0.47 -0.03 0.49 -0.07 0.24 -0.53 c -0.18 -0.32 -2.16 -5.11 -2.62 -6.32 c -0.14 -0.37 -0.25 -0.61 -0.29 -0.61 c -0.5 0.79 -0.75 1.39 -1.21 2.08 l 0.1 0.13 c 0.05 0.07 0.27 0.33 0.47 0.57 c 0.69 0.82 0.76 0.98 0.47 1.11 c -0.11 0.05 -0.18 0.05 -0.39 0.01 c -0.26 -0.05 -0.86 -0.32 -1.08 -0.48 c -0.06 -0.05 -0.15 -0.07 -0.19 -0.06 c -0.04 0.01 -0.19 0.22 -0.34 0.46 c -0.69 1.11 -1.4 2.21 -2.09 3.27 c -0.41 0.65 -1 1.54 -1.29 1.96 c -0.3 0.43 -0.54 0.8 -0.54 0.83 c 0.93 -0.3 1.38 -0.5 2.3 -0.85 c 0.37 -0.14 0.68 -0.28 0.74 -0.34 c 0.08 -0.07 0.12 -0.18 0.17 -0.44 c 0.14 -0.72 0.73 -1.85 1.18 -2.27 c 0.55 -0.43 1.19 -0.6 1.68 -0.36 c 0.53 0.28 0.76 0.55 1.04 1.25 c 0.18 0.45 0.22 0.68 0.23 1.3 c 0.01 0.31 0.03 0.57 0.04 0.59 c 0.02 0.02 0.27 0.12 0.55 0.22 c 0.29 0.11 0.93 0.39 1.43 0.63 c 0.6 0.29 1.29 0.64 1.2 0.51 c -0.3 -0.77 -0.97 -1.03 -1.3 -1.25"/></svg>