<svg xmlns="http://www.w3.org/2000/svg" viewBox="0 0 22 22"><path d="m 18.85 4.13 c 13.72 19.51 -21.98 25.72 -18.43 4.98 c 1.88 -8.24 12.93 -12.8 18.43 -4.98" style="fill:#262626"/><path d="m 18.31 11.41 c 0 3.99 -3.21 7.23 -7.18 7.23 c -3.97 0 -7.18 -3.24 -7.18 -7.23 c 0 -4 3.21 -7.23 7.18 -7.23 c 3.96 0 7.18 3.24 7.18 7.23" style="fill:#fbca00;fill-rule:evenodd"/><g style="fill:#262626"><path d="m 7.62 6.1 v 10.89 l 1.11 -0.96 v -9"/><path d="m 6.54 8.48 v 6.18 l -1.12 -1.02 v -4.21"/><path d="m 9.79 5.13 v 5.69 h 3.71 l 3.09 -2.5 l -0.66 -0.87 l -2.76 2.19 h -2.28 v -4.51"/><path d="m 11.92 5.27 v 3.47 h 0.97 l 2.3 -1.96 l -0.91 -0.7 l -1.27 1 v -1.57"/><path d="m 16.79 9.52 l -2.21 1.89 l 2.21 1.88 l 0.7 -0.88 l -1.18 -1 l 1.16 -1.03"/><path d="m 9.79 12.1 v 5.62 h 1.1 v -4.49 h 2.33 l 2.66 2.15 l 0.72 -0.86 l -3.05 -2.46"/><path d="m 11.95 14.26 v 3.42 l 1.09 -0.29 v -1.53 l 1.21 1.01 l 0.91 -0.71 l -2.33 -1.91"/></g></svg>