<svg xmlns="http://www.w3.org/2000/svg" viewBox="0 0 22 22"><path d="m 11 0.2 c 14.65 -1.65 14.44 21.99 -0.26 21.71 c -13.68 0.78 -14.91 -23 0.26 -21.71" style="fill:#ee6708"/><path d="m 4.84 6.55 h 12.59 c 0.52 0 0.94 0.42 0.94 0.94 v 6.37 c 0 0.52 -0.42 0.94 -0.94 0.94 h -12.59 c -0.52 0 -0.94 -0.42 -0.94 -0.94 v -6.37 c 0 -0.52 0.42 -0.94 0.94 -0.94" style="fill:#ff8c00"/><g style="fill:#fff"><path d="m 6.91 16.31 c -0.04 -0.04 -0.09 -0.74 -0.11 -1.63 l -0.05 -1.55 l -0.34 -0.32 c -0.59 -0.56 -0.75 -1.09 -0.47 -1.64 c 0.3 -0.59 0.7 -0.84 1.3 -0.84 c 0.79 0 1.4 0.57 1.4 1.31 c 0 0.53 -0.1 0.74 -0.6 1.22 c -0.48 0.47 -0.58 0.67 -0.48 0.96 c 0.04 0.12 0.14 0.32 0 0.47 c -0.23 0.24 -0.16 0.44 0.02 0.64 c 0.27 0.3 0.07 0.39 0.01 0.55 c -0.04 0.11 -0.07 0.31 -0.07 0.43 c 0 0.2 -0.04 0.25 -0.2 0.36 c -0.24 0.14 -0.32 0.16 -0.41 0.05 m 0.64 -4.6 c 0.18 -0.18 0.19 -0.39 0.07 -0.55 c -0.42 -0.45 -1.05 0.2 -0.65 0.53 c 0.24 0.14 0.45 0.15 0.58 0.02"/><path d="m 5.84 8.76 h 2.76 v 0.94 h -2.76"/><path d="m 9.79 8.82 h 2.76 v 0.94 h -2.76"/><path d="m 13.67 8.82 h 2.76 v 0.94 h -2.76"/><path d="m 10.81 16.22 c -0.04 -0.04 -0.08 -0.74 -0.11 -1.63 l -0.05 -1.55 l -0.34 -0.32 c -0.59 -0.56 -0.75 -1.09 -0.46 -1.64 c 0.29 -0.59 0.7 -0.84 1.3 -0.84 c 0.79 0 1.4 0.57 1.4 1.32 c 0 0.53 -0.1 0.74 -0.59 1.22 c -0.49 0.47 -0.59 0.67 -0.48 0.96 c 0.04 0.12 0.13 0.32 0 0.47 c -0.23 0.24 -0.16 0.44 0.02 0.64 c 0.27 0.3 0.07 0.39 0.01 0.55 c -0.04 0.11 -0.07 0.31 -0.07 0.43 c 0 0.2 -0.04 0.25 -0.2 0.36 c -0.24 0.14 -0.32 0.16 -0.41 0.05 m 0.65 -4.59 c 0.18 -0.18 0.18 -0.4 0.07 -0.55 c -0.42 -0.45 -1.05 0.2 -0.65 0.53 c 0.24 0.14 0.45 0.15 0.58 0.02"/><path d="m 14.64 16.36 c -0.04 -0.04 -0.08 -0.74 -0.11 -1.63 l -0.05 -1.55 l -0.34 -0.32 c -0.59 -0.56 -0.74 -1.09 -0.46 -1.64 c 0.29 -0.59 0.7 -0.84 1.3 -0.84 c 0.79 0 1.4 0.57 1.4 1.32 c 0 0.53 -0.1 0.74 -0.59 1.22 c -0.48 0.47 -0.58 0.67 -0.48 0.96 c 0.04 0.12 0.13 0.32 0 0.47 c -0.23 0.24 -0.16 0.43 0.02 0.64 c 0.27 0.3 0.07 0.39 0.01 0.55 c -0.04 0.11 -0.07 0.31 -0.07 0.44 c 0 0.19 -0.03 0.25 -0.2 0.36 c -0.24 0.14 -0.32 0.15 -0.41 0.04 m 0.65 -4.59 c 0.18 -0.18 0.18 -0.4 0.07 -0.55 c -0.42 -0.45 -1.05 0.2 -0.65 0.54 c 0.24 0.14 0.45 0.14 0.58 0.02"/></g><g style="fill:#6b5946"><path d="m 5.63 7.86 c 0 0.3 -0.24 0.55 -0.54 0.55 c -0.29 0 -0.54 -0.25 -0.54 -0.55 c 0 -0.3 0.24 -0.55 0.54 -0.55 c 0.3 0 0.54 0.25 0.54 0.55"/><path d="m 17.71 7.82 c 0 0.3 -0.24 0.55 -0.54 0.55 c -0.3 0 -0.54 -0.25 -0.54 -0.55 c 0 -0.3 0.24 -0.55 0.54 -0.55 c 0.29 0 0.54 0.25 0.54 0.55"/></g></svg>