<svg xmlns="http://www.w3.org/2000/svg" viewBox="0 0 22 22"><defs><linearGradient id="0" gradientUnits="userSpaceOnUse" x1="410.6" y1="539.8" x2="428.6" y2="523.8" gradientTransform="matrix(0.164 0 0 0.167 -52.3 -71.88)"><stop style="stop-color:#f57300"/><stop offset="1" style="stop-color:#f57300;stop-opacity:0"/></linearGradient><linearGradient id="1" gradientUnits="userSpaceOnUse" y1="42" x2="0" y2="6" gradientTransform="matrix(0.164 0 0 0.167 10.91 11.42)"><stop style="stop-color:#f57300"/><stop offset="1" style="stop-color:#fcbb4b"/></linearGradient></defs><path d="m 6.91 20.96 c 26.75 8.27 13.38 -36.1 -4.95 -15.37 c -3.67 4.16 -2.26 13.15 4.95 15.37" style="fill:#86ceeb"/><path d="m 62.88 0.98 c -4.73 0.1 -9.43 0.71 -13.99 1.86 c -10.15 2.5 -19.62 7.54 -27.37 14.6 c -4.25 3.92 -8.09 8.48 -11.15 13.45 c -5.18 8.38 -8.37 18.1 -9.16 27.98 c -0.31 3.82 -0.27 7.84 0.14 11.73 c 0.99 9.36 4.12 18.52 9.1 26.56 c 6.1 9.77 14.92 17.91 25.31 23.1 c 11.83 5.98 25.69 8.11 38.82 5.85 c 9.88 -1.69 19.55 -5.81 27.57 -11.93 c 12.14 -9.19 20.72 -22.85 23.66 -37.78 c 1.47 -7.4 1.65 -15.1 0.45 -22.47 c -1.34 -8.31 -4.39 -16.49 -8.92 -23.56 c -7.24 -11.46 -18.21 -20.48 -30.9 -25.31 c -4.94 -1.89 -10.12 -3.14 -15.33 -3.68 c -2.74 -0.3 -5.42 -0.44 -8.16 -0.41 m -3.53 11.19 c 1.2 0 1.61 1.28 2.02 2.2 c 1.99 4.29 3.98 8.55 5.97 12.84 c 1.75 0.14 3.43 0.44 5.11 0.81 c 3.7 -3.82 7.34 -7.67 11.1 -11.46 c 0.99 -0.71 2.06 0.14 2.95 0.64 c 2.78 1.66 5.62 3.21 8.37 4.93 c 0.89 0.88 0.21 2.13 -0.07 3.14 c -1.3 4.46 -2.61 8.92 -3.91 13.38 c 1.2 1.25 2.3 2.6 3.29 4 c 5.28 -0.44 10.56 -0.95 15.84 -1.32 c 1.13 0.1 1.47 1.28 1.71 2.2 c 1.03 3.11 2.13 6.15 3.05 9.29 c 0.14 1.15 -1.1 1.82 -2.13 1.86 c -6.86 1.45 -13.72 2.91 -20.58 4.36 c -1.2 -6.59 -4.73 -12.77 -9.95 -17 c -5.8 -4.8 -13.48 -7.2 -20.96 -6.39 c -2.37 0.2 -4.7 0.78 -6.93 1.55 c -2.3 -7.1 -4.63 -14.1 -6.86 -21.2 c -0.17 -1.12 0.99 -1.89 2.02 -1.89 c 3.33 -0.64 6.62 -1.39 9.95 -1.96 m -29.5 13.15 c 1.23 0.2 1.78 1.52 2.64 2.26 c 4.36 4.87 8.71 9.73 13.1 14.57 c -3.81 3.24 -6.79 7.47 -8.51 12.17 c -1.89 5.24 -2.23 11.22 -0.82 16.7 c 1.41 5.61 4.97 11.1 9.33 14.9 c 0 0 -0.48 0.41 -1.13 1.15 c -3.53 4 -7.13 7.94 -10.7 11.9 c -1.1 1.15 -2.09 2.47 -3.29 3.55 c -0.99 0.57 -2.09 -0.2 -2.64 -1.05 c -2.16 -2.5 -4.39 -4.93 -6.52 -7.47 c -0.62 -1.05 0.31 -2.06 0.89 -2.87 l 8.09 -11.63 c -0.72 -1.55 -1.3 -3.18 -1.82 -4.83 c -5.14 -1.28 -10.32 -2.5 -15.47 -3.82 c -1.1 -0.54 -0.93 -1.89 -0.89 -2.87 c 0 -3.24 -0.03 -6.45 0.03 -9.7 c 0.24 -1.15 1.58 -1.32 2.57 -1.52 c 4.56 -1.15 9.16 -2.26 13.75 -3.38 c 0.51 -1.66 1.1 -3.28 1.82 -4.83 c -2.98 -4.36 -6.07 -8.69 -8.99 -13.1 c -0.48 -1.12 0.51 -1.99 1.2 -2.74 c 2.13 -2.37 4.18 -4.83 6.38 -7.13 c 0.31 -0.17 0.65 -0.27 1.03 -0.24 m 62.6 43.77 c 7.1 1.55 14.27 3 21.37 4.6 c 0.48 0.1 0.48 0.84 1.06 0.71 c 0.31 0.24 -0.31 1.08 -0.38 1.55 c -1.13 3.35 -2.19 6.69 -3.4 10 c -0.58 1.01 -1.92 0.74 -2.88 0.64 c -4.73 -0.37 -9.43 -0.81 -14.1 -1.18 c -0.99 1.39 -2.09 2.74 -3.29 3.99 c 1.47 5.1 2.98 10.21 4.39 15.31 c 0.1 1.25 -1.23 1.76 -2.09 2.26 c -2.81 1.59 -5.56 3.28 -8.44 4.77 c -1.2 0.34 -1.95 -0.91 -2.68 -1.62 c -3.22 -3.35 -6.45 -6.73 -9.67 -10.1 c -1.68 0.41 -3.4 0.68 -5.11 0.84 c -2.26 4.8 -4.49 9.6 -6.79 14.36 c -0.72 0.98 -2.02 0.57 -3 0.34 c -3.12 -0.68 -6.28 -1.18 -9.4 -1.99 c -0.99 -0.51 -0.93 -1.86 -0.48 -2.74 c 2.19 -6.66 4.36 -13.35 6.55 -19.97 c 6.1 2.2 13 2.3 19.1 0.14 c 7.37 -2.57 13.65 -8.25 16.74 -15.44 c 0.89 -2.1 1.54 -4.29 1.99 -6.56 c 0.17 0.07 0.34 0.07 0.48 0.14" transform="matrix(0.114 0 0 0.116 3.84 3.99)" style="fill:#0078c1;stroke:#7fcfff"/><path d="m 14.85 12.1 c 1.82 0 3.29 1.46 3.29 3.26 v 0.14 c 0 1.8 -1.47 3.27 -3.29 3.27 c -1.81 0 -3.29 -1.46 -3.29 -3.27 v -0.14 c 0 -1.8 1.47 -3.26 3.29 -3.26" style="fill:#fff"/><path d="m 14.85 13.59 l -1.48 1.5 h 0.82 v 1.83 h 1.31 v -1.83 h 0.82" style="fill:#fa7039"/><path d="m 14.85 18.42 c 1.64 0 2.96 -1.33 2.96 -3 c 0 -1.66 -1.31 -3 -2.96 -3 v 0.33 c 1.46 0 2.63 1.19 2.63 2.67 c 0 1.48 -1.17 2.67 -2.63 2.67" style="fill:#7f7f7f;fill-opacity:0.5"/><path d="m 14.85 12.42 c -1.64 0 -2.96 1.33 -2.96 3 c 0 1.66 1.32 3 2.96 3 c 1.64 0 2.96 -1.33 2.96 -3 c 0 -1.66 -1.31 -3 -2.96 -3 m 0 0.33 c 1.46 0 2.63 1.19 2.63 2.67 c 0 1.48 -1.17 2.67 -2.63 2.67 c -1.45 0 -2.63 -1.19 -2.63 -2.67 c 0 -1.48 1.17 -2.67 2.63 -2.67" style="fill:url(#0)"/><path d="m 14.85 18.42 v -0.33 c -1.45 0 -2.63 -1.19 -2.63 -2.67 c 0 -1.48 1.17 -2.67 2.63 -2.67 v -0.33 c -1.64 0 -2.96 1.33 -2.96 3 c 0 1.66 1.32 3 2.96 3" style="fill:url(#1)"/><path d="m 11.57 15.34 c 0 0.03 0 0.05 0 0.08 c 0 1.85 1.46 3.33 3.29 3.33 c 1.82 0 3.29 -1.48 3.29 -3.33 c 0 -0.03 0 -0.05 0 -0.08 c -0.04 1.8 -1.49 3.25 -3.28 3.25 c -1.79 0 -3.24 -1.45 -3.29 -3.25" style="fill:#99a1a6"/></svg>