<svg xmlns="http://www.w3.org/2000/svg" viewBox="0 0 22 22"><path d="m 2.81 16.83 c -13.85 -21.86 29.79 -22.89 16.68 -0.36 c -3.47 5.8 -11.62 8.63 -16.68 0.36" style="fill:#707f8f"/><path d="m 10.16 17.38 v -0.44 l -0.41 -0.03 l -0.42 -0.03 l -0.05 -0.8 l -0.84 -0.05 l -0.03 -0.4 l -0.03 -0.4 l -0.42 -0.03 l -0.41 -0.02 l -0.03 -0.4 l -0.03 -0.4 l -0.41 -0.03 l -0.42 -0.03 l -0.03 -0.4 l -0.03 -0.4 l -0.42 -0.02 l -0.42 -0.03 l -0.03 -0.83 l -0.03 -0.82 l -0.42 -0.03 l -0.41 -0.03 v -4.11 l 0.41 -0.03 l 0.42 -0.03 l 0.05 -0.8 l 0.84 -0.05 l 0.03 -0.4 l 0.03 -0.4 l 0.42 -0.03 l 0.41 -0.02 l 0.03 -0.4 l 0.03 -0.4 h 6.95 l 0.03 0.4 l 0.03 0.4 l 0.42 0.02 l 0.42 0.03 l 0.03 0.4 l 0.03 0.4 l 0.42 0.03 l 0.41 0.03 l 0.05 0.8 l 0.84 0.05 v 4.11 l -0.84 0.05 l -0.03 0.82 l -0.03 0.83 l -0.41 0.03 l -0.42 0.02 l -0.03 0.4 l -0.03 0.4 l -0.84 0.05 l -0.03 0.4 l -0.03 0.4 l -0.42 0.02 l -0.41 0.03 l -0.03 0.4 l -0.03 0.4 l -0.41 0.03 l -0.42 0.03 l -0.05 0.8 l -0.84 0.05 v 0.88 h -1.72 m -0.04 -7.69 l 0.02 -0.84 h 0.88 l 0.03 0.83 l 0.43 0.02 l 0.43 0.02 l 0.03 0.82 h 0.84 v -0.8 l -0.43 -0.02 l -0.43 -0.02 l -0.02 -0.41 l -0.02 -0.41 l -0.86 -0.03 v -0.84 l 0.86 -0.03 l 0.02 -0.41 l 0.02 -0.41 l 0.43 -0.02 l 0.43 -0.02 v -0.8 h -0.84 l -0.03 0.82 l -0.43 0.02 l -0.43 0.02 l -0.03 0.83 h -0.88 l -0.03 -1.68 h -0.83 l -0.02 2.05 c -0.01 1.13 0 2.08 0.01 2.12 c 0.02 0.05 0.14 0.06 0.43 0.05 l 0.4 -0.02" style="fill:#0029c8"/></svg>