<svg xmlns="http://www.w3.org/2000/svg" viewBox="0 0 22 22"><path d="m 14.58 21.1 c -10.95 4.27 -16.57 -7.7 -13.78 -15.1 c 1.95 -5.2 9.71 -7.79 15.98 -4.1 c 7.91 4.66 6.23 15.95 -2.21 19.24" style="fill:#70706e"/><path d="m 18.33 11.24 c 0 4 -3.31 7.23 -7.39 7.23 c -4.08 0 -7.39 -3.24 -7.39 -7.23 c 0 -4 3.31 -7.24 7.39 -7.24 c 4.08 0 7.39 3.24 7.39 7.24" style="fill:#4e4e4e"/><g style="fill:#fff"><path d="m 13.63 15.98 c 1.7 -0.92 2.85 -2.7 2.85 -4.75 c 0 -3 -2.48 -5.43 -5.54 -5.43 c -3.05 0 -5.54 2.43 -5.54 5.43 c 0 2.04 1.15 3.82 2.85 4.75 c -1.36 -0.86 -2.25 -2.36 -2.25 -4.05 c 0 -2.67 2.21 -4.84 4.94 -4.84 c 2.72 0 4.94 2.16 4.94 4.84 c 0 1.7 -0.89 3.19 -2.25 4.05"/><path d="m 14.73 13.67 c 0.26 -0.53 0.4 -1.13 0.4 -1.75 c 0 -2.25 -1.85 -4.07 -4.16 -4.07 c -2.3 0 -4.16 1.81 -4.16 4.07 c 0 0.62 0.15 1.21 0.4 1.75 c -0.07 -0.28 -0.1 -0.57 -0.1 -0.88 c 0 -2.09 1.73 -3.78 3.86 -3.78 c 2.13 0 3.86 1.69 3.86 3.78 c 0 0.3 -0.04 0.6 -0.1 0.88"/><path d="m 10.95 15.34 c 1.5 0 2.71 -1.19 2.71 -2.66 c 0 -0.52 -0.15 -1 -0.42 -1.41 c 0.58 0.57 0.93 1.36 0.93 2.23 c 0 1.75 -1.45 3.17 -3.23 3.17 c -1.78 0 -3.23 -1.42 -3.23 -3.17 c 0 -0.87 0.36 -1.66 0.93 -2.23 c -0.26 0.41 -0.41 0.9 -0.41 1.41 c 0 1.46 1.21 2.66 2.71 2.66"/><path d="m 12.79 12.14 c 0 1 -0.83 1.81 -1.85 1.81 c -1.02 0 -1.85 -0.81 -1.85 -1.81 c 0 -1 0.83 -1.81 1.85 -1.81 c 1.02 0 1.85 0.81 1.85 1.81"/></g></svg>