<svg xmlns="http://www.w3.org/2000/svg" viewBox="0 0 22 22"><path d="m 4.21 4 c -17.95 24.2 31.36 23.83 13.59 0.1 c -3.21 -4.16 -9.88 -6.21 -13.59 -0.1" style="fill:#49545f"/><path d="m 10.17 17.45 l 0.82 -0.23 l 0.71 0.21 c 4.22 1.29 -4.68 0.69 -1.53 0.02 m -1.65 -0.44 c -0.74 -0.46 -1.33 -1.22 -1.58 -2 c -0.14 -0.45 -0.14 -0.44 0.25 -0.4 c 0.33 0.03 0.41 0.08 1.27 0.81 c 0.5 0.43 1.14 0.91 1.41 1.08 c 0.27 0.17 0.49 0.34 0.49 0.38 c 0 0.08 -0.69 0.33 -1.1 0.39 c -0.24 0.04 -0.32 0.01 -0.74 -0.25 m 3.86 0.18 c -0.39 -0.09 -0.85 -0.26 -0.85 -0.32 c 0.68 -0.46 1.41 -0.97 2.04 -1.5 c 0.79 -0.68 0.89 -0.75 1.19 -0.77 c 0.4 -0.04 0.41 0.01 0.18 0.64 c -0.26 0.72 -1.12 1.64 -1.8 1.95 c -0.28 0.12 -0.25 0.12 -0.76 0 m -4 -2.57 c 0.76 -0.3 1.75 -0.52 2.51 -0.73 c 1 0.3 1.87 0.3 2.75 0.7 c 0.05 0.07 -0.76 0.87 -1.3 1.26 c -0.55 0.4 -1.23 0.8 -1.36 0.8 c -0.58 -0.25 -2.5 -1.64 -2.61 -2.03 m -0.8 -0.66 c -0.6 -0.55 -0.94 -1.16 -1.08 -1.89 c -0.04 -0.21 -0.05 -0.47 -0.03 -0.57 c 0.02 -0.31 0.32 -0.12 0.55 -0.08 c 0.48 0.1 0.54 0.13 1.15 0.65 c 0.57 0.48 1.69 1.21 2.06 1.33 c 0.33 0.11 -0.05 0.29 -1.16 0.56 c -1.16 0.29 -1.18 0.29 -1.49 0 m 6.07 0.17 c -0.55 -0.11 -1.75 -0.45 -1.89 -0.54 c -0.13 -0.08 -0.13 -0.09 0.08 -0.2 c 0.82 -0.42 1.37 -0.78 1.96 -1.28 c 0.6 -0.5 0.73 -0.58 1.12 -0.67 c 0.57 -0.13 0.66 -0.09 0.66 0.25 c 0 0.73 -0.43 1.62 -1.06 2.18 c -0.37 0.34 -0.39 0.34 -0.87 0.25 m -4.09 -1.55 c -0.48 -0.3 -1.27 -1 -1.21 -1.08 c 0.02 -0.03 0.27 -0.09 0.55 -0.13 c 0.75 -0.14 1.39 -0.32 2.13 -0.53 c 0.66 0.19 1.34 0.39 2 0.51 c 0.35 0.06 0.64 0.14 0.64 0.17 c 0 0.12 -0.54 0.62 -1 0.93 c -0.62 0.42 -1.48 0.86 -1.68 0.86 c -0.53 -0.15 -0.97 -0.42 -1.45 -0.72 m -1.93 -1.68 c -0.32 -0.3 -0.47 -0.81 -0.46 -1.56 c 0.01 -0.84 0.03 -0.86 0.55 -0.67 c 0.3 0.11 0.56 0.28 0.96 0.63 c 0.46 0.52 1.23 0.73 1.68 1.21 c 0 0.09 -1 0.37 -1.85 0.5 c -0.4 0.1 -0.62 0.13 -0.88 -0.11 m 5.73 0.08 c -0.71 -0.13 -1.61 -0.38 -1.67 -0.46 c -0.02 -0.03 0.21 -0.2 0.51 -0.37 c 0.81 -0.36 1.4 -1.3 2.21 -1.5 c 0.19 -0.04 0.37 -0.06 0.4 -0.04 c 0.03 0.03 0.05 0.4 0.05 0.83 c -0.01 0.84 -0.13 1.22 -0.48 1.52 c -0.18 0.16 -0.23 0.16 -1.02 0.01 m -4.51 -2.2 c 0 -0.04 0.08 -0.08 0.17 -0.1 c 0.57 -0.1 1.24 -0.25 1.6 -0.36 c 0.42 -0.13 0.43 -0.12 0.86 0 c 0.51 0.28 0.81 0.24 1.68 0.48 c 0 0.26 -1.77 1.46 -2.15 1.45 c -0.53 -0.17 -2.09 -1.11 -2.17 -1.48 m -0.54 -0.56 c -0.22 -0.23 -0.15 -1.43 0.09 -1.68 c 0.34 0 1.7 0.98 1.96 1.31 c 0 0.09 -0.24 0.18 -1 0.34 c -0.71 0.16 -0.92 0.16 -1.05 0.03 m 4.59 0.03 c -0.58 -0.12 -1.25 -0.32 -1.25 -0.38 c 0 -0.03 0.17 -0.16 0.38 -0.29 c 0.51 -0.27 0.83 -0.79 1.35 -1.03 c 0.26 -0.13 0.25 -0.11 0.37 0.13 c 0.18 0.37 0.22 1.11 0.08 1.39 c -0.2 0.36 -0.56 0.24 -0.92 0.17 m -3.23 -1.5 c 0.27 -0.52 0.68 -0.5 1.35 -0.77 c 0.23 0.11 1.49 0.55 1.4 0.71 c -0.17 0.27 -1.2 0.98 -1.4 0.98 c -0.46 -0.21 -1.05 -0.49 -1.35 -0.93 m -0.5 -0.64 c -0.19 -0.46 0.03 -0.97 0.35 -1.3 c 0.34 -0.01 1.21 0.74 0.95 0.91 c -0.18 0.12 -1.03 0.47 -1.14 0.47 c -0.04 0 -0.12 -0.04 -0.17 -0.08 m 2.98 -0.12 c -0.52 -0.23 -0.64 -0.3 -0.64 -0.41 c 0 -0.12 0.8 -0.82 0.94 -0.82 c 0.22 0 0.51 0.64 0.48 1.05 c -0.03 0.43 -0.14 0.45 -0.78 0.18 m -1.71 -1.45 c 0 -0.24 0.21 -0.59 0.43 -0.71 c 0.18 -0.1 0.2 -0.1 0.41 0.07 c 0.3 0.25 0.42 0.6 0.29 0.87 c -0.11 0.22 -0.43 0.57 -0.52 0.57 c -0.29 -0.16 -0.61 -0.5 -0.61 -0.81" style="fill:#75283d"/><path d="m 6.23 13.55 c -0.64 0.2 -1.14 0.93 -1.52 1.39 c -0.33 0.46 0.68 -0.51 1.71 -0.52 c 0.63 0 1.07 -0.19 1.07 -0.19 c -0.39 -0.38 -0.79 -0.83 -1.27 -0.69" style="fill:#ede7aa"/><g style="fill:#6a9d47"><path d="m 7.21 17.45 c -0.66 0.46 -1.16 1.12 -1.35 1.76 c -0.06 0.21 -0.05 0.22 0.16 0.22 c 1.36 -0.64 1.31 -1.59 3 -1.56 l -0.49 -0.54 c -0.4 -0.45 -0.9 -0.19 -1.34 0.12"/><path d="m 14.51 17.48 c 0.68 0.45 1.21 1.1 1.41 1.73 c 0.06 0.2 0.05 0.22 -0.17 0.22 c -1.41 -0.63 -1.36 -1.56 -3.14 -1.53 l 0.51 -0.54 c 0.42 -0.43 0.94 -0.19 1.39 0.12"/><path d="m 13.47 17.96 c 0.67 0.51 0.88 1.32 1.08 2.03 c 0.06 0.22 0.05 0.25 -0.16 0.25 c -1.39 -0.71 -1.34 -1.75 -3.09 -1.72 l 0.5 -0.6 c 0.41 -0.49 1.23 -0.3 1.68 0.04"/><path d="m 8.26 17.84 c -0.62 0.52 -0.71 1.39 -0.89 2.12 c -0.06 0.23 -0.05 0.25 0.15 0.25 c 1.3 -0.73 1.25 -1.79 2.89 -1.76 l -0.47 -0.61 c -0.38 -0.5 -1.25 -0.35 -1.68 0"/><path d="m 10.76 18.36 c -0.02 0.78 -0.32 1.55 -0.8 2.06 c -0.57 0.62 -1.05 -2.32 -0.53 -2.61 c 0.59 -0.32 1.35 -0.12 1.33 0.55"/><path d="m 10.51 18.24 c 0.03 0.35 0.93 2.86 1.32 2.17 c 0.48 -1.52 0.76 -1.22 0.38 -2.5 c -0.62 -0.29 -1.79 -0.39 -1.7 0.34"/></g><g style="fill:#fff8dc"><path d="m 7.24 8.1 c 0.3 0.31 0.72 0.52 1.11 0.56 c 0.58 0.04 -1.23 -1.39 -1.23 -1.39 c -0.13 0.39 -0.1 0.59 0.12 0.82"/><path d="m 14.96 8.1 c -0.34 0.31 -0.77 0.5 -1.18 0.52 c -0.59 -0.02 1.36 -1.4 1.36 -1.4 c 0.1 0.43 0.05 0.65 -0.19 0.88"/><path d="m 8.2 6 c 0.25 0.32 0.63 0.56 0.99 0.64 c 0.55 0.09 -1.02 -1.42 -1.02 -1.42 c -0.17 0.34 -0.16 0.54 0.02 0.78"/><path d="m 13.95 5.89 c -0.25 0.29 -0.61 0.51 -0.96 0.59 c -0.54 0.08 0.98 -1.3 0.98 -1.3 c 0.16 0.32 0.16 0.5 -0.02 0.71"/><path d="m 12.49 3.95 c -0.14 0.41 -0.39 0.76 -0.68 0.93 c -0.43 0.23 0.52 -1.78 0.52 -1.78 c 0.21 0.33 0.25 0.54 0.16 0.84"/><path d="m 9.41 3.95 c 0.15 0.39 0.43 0.72 0.74 0.89 c 0.48 0.22 -0.57 -1.69 -0.57 -1.69 c -0.23 0.32 -0.28 0.52 -0.17 0.8"/></g><path d="m 15.75 13.46 c 0.66 0.21 1.17 0.96 1.55 1.45 c 0.34 0.48 -0.7 -0.53 -1.74 -0.54 c -0.64 -0.01 -1.1 -0.2 -1.1 -0.2 c 0.4 -0.4 0.81 -0.87 1.29 -0.72" style="fill:#ede7aa"/><g style="fill:#fffacd"><path d="m 6.66 10.34 c -0.47 0.06 -1.08 0.18 -1.25 0.9 c -0.3 0.32 0.54 -0.31 1.24 -0.15 c 0.43 0.09 0.77 0.02 0.77 0.02 c -0.21 -0.37 -0.41 -0.8 -0.75 -0.76"/><path d="m 15.29 10.44 c 0.47 0.06 0.96 0.28 1.26 0.88 c 0.3 0.32 -0.55 -0.3 -1.25 -0.15 c -0.43 0.09 -0.76 0.02 -0.76 0.02 c 0.2 -0.37 0.41 -0.79 0.75 -0.75"/></g></svg>