<svg xmlns="http://www.w3.org/2000/svg" viewBox="0 0 22 22"><path d="m 19.2 18.1 c 5.59 -8.18 1.51 -15.64 -4.47 -17.41 c -8.1 -2.38 -19.27 3.87 -12.39 16.76 c 2.73 5.12 12.89 6.48 16.87 0.65"/><g style="fill:#d0c2a2"><path d="m 9.46 17.2 c 0 -0.03 -0.07 -0.14 -0.15 -0.24 l -0.15 -0.2 l -2.42 -0.03 c -1.8 -0.03 -2.46 -0.05 -2.57 -0.12 l -0.14 -0.09 l 0.02 -5.58 c 0.02 -5.99 0.01 -5.83 0.33 -5.79 c 0.12 0.02 0.14 0.08 0.18 0.6 c 0.02 0.32 0.04 2.75 0.05 5.39 v 4.8 h 12.63 l 0.04 -5.29 c 0.02 -2.91 0.06 -5.34 0.08 -5.4 c 0.06 -0.15 0.24 -0.14 0.4 0.04 l 0.14 0.15 v 11 l -0.17 0.11 c -0.16 0.11 -0.4 0.12 -2.61 0.14 l -2.43 0.02 l -0.11 0.21 l -0.11 0.21 l -0.96 0.04 c -1.27 0.05 -2.03 0.05 -2.03 -0.01"/><path d="m 5.1 15.72 c -0.03 -0.07 -0.05 -2.45 -0.05 -5.28 c 0 -4.34 0.02 -5.17 0.09 -5.22 c 0.05 -0.03 0.31 -0.08 0.57 -0.1 c 0.27 -0.02 0.82 -0.1 1.22 -0.17 c 0.46 -0.08 1.05 -0.13 1.57 -0.13 c 0.8 0 0.85 0.01 1.21 0.2 c 0.21 0.11 0.5 0.31 0.66 0.45 l 0.28 0.25 l -0.02 4.79 c -0.01 2.63 -0.04 4.8 -0.07 4.83 c -0.02 0.02 -0.27 -0.09 -0.54 -0.25 c -0.57 -0.34 -1.04 -0.46 -1.55 -0.4 c -0.71 0.09 -1.05 0.2 -3.25 1.11 c -0.04 0.02 -0.1 -0.02 -0.13 -0.09"/><path d="m 16.74 15.53 c 0.03 -0.07 0.05 -2.44 0.05 -5.28 c 0 -4.34 -0.02 -5.17 -0.09 -5.22 c -0.05 -0.03 -0.31 -0.07 -0.57 -0.1 c -0.27 -0.02 -0.82 -0.1 -1.22 -0.17 c -0.46 -0.07 -1.05 -0.12 -1.57 -0.12 c -0.8 0 -0.85 0 -1.21 0.2 c -0.21 0.11 -0.5 0.31 -0.66 0.45 l -0.28 0.25 l 0.02 4.79 c 0.01 2.63 0.04 4.8 0.07 4.83 c 0.02 0.02 0.27 -0.09 0.54 -0.25 c 0.57 -0.34 1.04 -0.46 1.55 -0.4 c 0.71 0.09 1.04 0.2 3.25 1.12 c 0.04 0.02 0.1 -0.02 0.13 -0.09"/></g><path d="m 9.75 13.6 c -0.12 -0.09 -0.24 -0.19 -0.26 -0.22 c -0.05 -0.1 -0.12 -0.07 -0.12 0.05 c 0 0.21 -0.09 0.11 -0.25 -0.29 c -0.22 -0.52 -0.4 -0.75 -0.75 -0.95 c -0.24 -0.14 -0.34 -0.16 -0.67 -0.16 c -0.33 0 -0.43 0.02 -0.63 0.15 c -0.32 0.19 -0.58 0.52 -0.75 0.96 c -0.15 0.37 -0.2 0.41 -0.28 0.25 c -0.04 -0.09 -0.07 -0.07 -0.24 0.12 l -0.2 0.22 v -0.26 c 0 -0.22 0.04 -0.31 0.27 -0.69 c 0.79 -1.26 1.28 -2.65 1.52 -4.35 c 0.09 -0.66 0.1 -0.92 0.23 -0.77 c 0.17 0.16 0.19 -0.2 0.29 0.11 c 0.03 0.06 0.1 0.42 0.15 0.8 c 0.29 1.95 0.79 3.31 1.68 4.5 c 0.22 0.29 0.27 0.39 0.26 0.53 l -0.02 0.17 m -1.85 -2.19 c -0.04 -0.2 -0.39 -1.14 -0.42 -1.15 c -0.06 -0.01 -0.38 1.07 -0.34 1.17 c 0.03 0.09 0.78 0.07 0.77 -0.02 m -0.26 -2.22 c 0 -0.23 -0.13 -1.23 -0.16 -1.27 c -0.06 -0.07 -0.07 0.04 -0.11 0.69 c -0.03 0.63 -0.03 0.67 0.06 0.7 c 0.18 0.05 0.21 0.04 0.21 -0.11"/><path d="m 7.48 7.3 c -0.14 -0.04 -0.18 -0.21 -0.09 -0.39 c 0.13 -0.29 0.15 -0.55 0.3 -0.83 c 0.04 -0.02 0.39 0.96 0.39 1.09 c 0 0.15 -0.34 0.23 -0.61 0.14"/><path d="m 13.97 9.62 c -0.25 -0.12 -0.34 -0.13 -0.5 -0.07 c -0.1 0.04 -0.12 0.04 -0.28 -0.01 c -0.16 -0.05 -0.19 -0.05 -0.32 -0.02 c -0.2 0.05 -0.29 0.05 -0.42 -0.01 c -0.14 -0.07 -0.25 -0.06 -0.43 0.01 c -0.08 0.04 -0.18 0.06 -0.23 0.06 c -0.11 0 -0.23 -0.08 -0.3 -0.21 c -0.11 -0.19 -0.07 -0.34 0.15 -0.57 c 0.23 -0.25 0.51 -0.35 0.74 -0.26 c 0.17 0.07 0.21 0.21 0.1 0.36 c -0.07 0.11 -0.08 0.25 -0.01 0.31 c 0.06 0.06 0.07 0.06 0.15 0 c 0.04 -0.03 0.08 -0.11 0.11 -0.21 c 0.11 -0.36 0.27 -0.54 0.43 -0.48 c 0.08 0.03 0.09 0.08 0.05 0.25 c -0.02 0.09 -0.04 0.21 -0.04 0.27 c 0 0.14 0.05 0.17 0.15 0.07 c 0.13 -0.13 0.36 -0.68 0.32 -0.75 c 0.18 -0.11 0.27 -0.01 0.32 0.02 c -0.03 0.08 -0.09 0.54 -0.09 0.65 c 0 0.23 0.15 0.3 0.63 0.3 c 0.25 0 0.32 -0.01 0.4 -0.05 c 0.11 -0.05 0.13 -0.12 0.07 -0.18 c -0.02 -0.02 -0.15 -0.13 -0.29 -0.22 c -0.37 -0.26 -0.43 -0.34 -0.33 -0.47 c 0.11 -0.14 0.85 -0.45 1.03 -0.43 c 0.07 0.01 0.08 0.02 0.08 0.09 c 0.01 0.07 -0.01 0.1 -0.1 0.18 c -0.13 0.12 -0.32 0.18 -0.43 0.29 c 0 0.09 0.55 0.61 0.64 0.61 c 0.04 0 0.08 -0.15 0.08 -0.28 c 0 -0.31 0.24 -0.45 0.59 -0.34 c 0.23 0.07 0.36 0.25 0.34 0.49 c -0.01 0.2 -0.11 0.36 -0.27 0.46 c -0.11 0.07 -0.12 0.07 -0.53 0.08 c -0.36 0 -0.48 0.02 -0.81 0.08 c -0.25 0.05 -0.46 0.08 -0.59 0.08 c -0.19 0 -0.21 -0.01 -0.43 -0.11 m -1.95 -0.54 c 0.04 -0.07 0.04 -0.14 0.03 -0.23 l -0.11 0.1 c -0.07 0.07 -0.1 0.12 -0.1 0.17 c 0 0.06 0.01 0.07 0.07 0.06 c 0.07 -0.02 0.08 -0.06 0.11 -0.1 m 4.16 0.05 c 0.02 -0.03 0.04 -0.1 0.04 -0.14 c 0 -0.08 -0.01 -0.1 -0.06 -0.11 c -0.11 -0.03 -0.2 0.13 -0.13 0.26 c 0.07 0.04 0.11 0.05 0.16 -0.01"/><path d="m 11.96 8.31 c -0.12 -0.08 -0.12 -0.18 0.01 -0.26 c 0.21 0.23 0.43 -0.22 0.39 0.1 c -0.01 0.06 -0.24 0.22 -0.27 0.22 c -0.02 0 -0.07 -0.03 -0.12 -0.07"/><path d="m 12.57 10.1 c -0.09 -0.08 -0.09 -0.19 0 -0.3 c 0.07 -0.09 0.19 -0.11 0.26 -0.05 c 0.07 0.06 0.05 0.28 -0.03 0.35 c -0.04 0.04 -0.09 0.07 -0.12 0.07 c -0.03 0 -0.08 -0.03 -0.12 -0.07"/><path d="m 12.1 12.51 c -0.13 -0.05 -0.28 -0.07 -0.38 -0.25 c -0.18 -0.33 0.01 -0.72 0.44 -0.97 c 0.32 -0.19 0.31 -0.25 -0.06 -0.39 c -0.07 -0.02 -0.13 -0.07 -0.15 -0.1 c -0.04 -0.05 -0.03 -0.06 0.01 -0.15 c 0.1 -0.19 0.32 -0.25 0.46 -0.11 c 0.1 0.09 0.36 0.82 0.36 0.91 c 0 0.11 -0.08 0.15 -0.36 0.18 c -0.38 0.04 -0.46 0.11 -0.46 0.36 c 0 0.14 0.03 0.22 0.16 0.4 c 0.05 0.06 0.08 0.13 0.07 0.14 c 0 0.01 -0.05 0 -0.1 -0.01"/><path d="m 12.27 12.24 c -0.05 -0.02 -0.09 -0.07 -0.09 -0.1 c 0 -0.09 0.15 -0.26 0.24 -0.26 c 0.13 0 0.18 0.23 0.08 0.34 c -0.07 0.07 -0.11 0.07 -0.23 0.02"/><path d="m 12.84 12.43 c -0.03 -0.03 -0.02 -0.05 0.12 -0.22 c 0.17 -0.21 0.24 -0.36 0.38 -0.82 c 0.15 -0.49 0.29 -0.67 0.41 -0.54 c 0.04 0.04 0.04 0.07 0.02 0.35 c -0.01 0.25 -0.01 0.32 0.02 0.36 c 0.07 0.1 0.17 -0.02 0.26 -0.32 c 0.09 -0.27 0.28 -0.43 0.4 -0.32 c 0.05 0.05 0.05 0.15 -0.01 0.36 c -0.06 0.18 -0.05 0.26 0 0.3 c 0.09 0.05 0.17 -0.09 0.38 -0.68 c 0.16 -0.44 0.25 -0.63 0.33 -0.7 c 0.07 -0.05 0.15 -0.03 0.2 0.06 c 0.04 0.08 0.03 0.15 -0.17 0.77 c -0.16 0.48 -0.25 0.65 -0.4 0.79 c -0.14 0.13 -0.21 0.14 -0.39 0.07 l -0.14 -0.05 l -0.15 0.05 c -0.11 0.04 -0.17 0.05 -0.28 0.04 c -0.07 -0.01 -0.16 0 -0.19 0.01 c -0.04 0.01 -0.15 0.11 -0.27 0.22 c -0.11 0.11 -0.25 0.22 -0.3 0.25 c -0.1 0.05 -0.2 0.07 -0.23 0.04"/><path d="m 13.82 12.34 c -0.1 -0.1 -0.09 -0.15 0.01 -0.23 c 0.07 -0.06 0.1 -0.06 0.17 -0.04 c 0.09 0.04 0.14 0.13 0.1 0.22 c -0.06 0.15 -0.17 0.17 -0.28 0.05"/><path d="m 15.5 11.93 c -0.06 -0.07 -0.06 -0.14 0.04 -0.62 c 0.13 -0.59 0.27 -0.96 0.39 -0.98 c 0.08 -0.02 0.17 0.02 0.18 0.07 c 0.04 0.11 -0.15 1.02 -0.27 1.34 c -0.09 0.23 -0.23 0.3 -0.34 0.19"/><path d="m 13.68 8.16 c -0.12 -0.08 -0.12 -0.18 0.01 -0.26 c 0.21 0.23 0.43 -0.22 0.38 0.11 c -0.01 0.06 -0.23 0.22 -0.27 0.22 c -0.02 0 -0.07 -0.03 -0.12 -0.07"/></svg>