<svg xmlns="http://www.w3.org/2000/svg" viewBox="0 0 22 22"><path d="m 10.7 21.88 c -2.26 -0.18 -4.87 -1.26 -6.64 -2.77 c -2.16 -1.83 -3.68 -4.64 -3.99 -7.41 c -0.36 -3.66 1.95 -7.59 4.44 -9.45 c 1.25 -0.91 2.88 -1.63 4.39 -1.95 c 3.93 -0.82 7.92 0.73 10.55 4.12 c 1.57 2.03 2.34 4.07 2.44 6.5 c 0.12 2.9 -1.18 6 -3.37 8.11 c -2.48 1.98 -4.98 3.05 -7.8 2.84" style="fill:#4494cf"/><path d="m 6.26 6.41 v 2.56 l 2.34 2.99 l 1.06 -5.55 m 0.43 0 l -0.53 2.99 l 6.27 -2.99 m 0.64 0.21 l -4.68 2.25 l 4.68 2.24 m -10.2 -1.28 v 4.27 h 3.4 m 4 -3.84 l 1.49 6.41 h 1.27 v -5.13 m -2.55 1.5 l -2.98 3.63 h 3.83 m -8.5 -2.14 v 2.14 h 4 l 1.7 -2.14" style="fill-opacity:0.1"/><path d="m 5.84 5.98 v 2.57 l 2.34 2.99 l 1.06 -5.55 m 0.43 0 l -0.53 2.99 l 6.27 -2.99 m 0.64 0.21 l -4.68 2.24 l 4.68 2.24 m -10.2 -1.28 v 4.27 h 3.4 m 4 -3.84 l 1.49 6.41 h 1.27 v -5.13 m -2.55 1.5 l -2.97 3.63 h 3.82 m -8.5 -2.14 v 2.14 h 4 l 1.7 -2.14" style="fill:#f9f9f9"/></svg>