<svg xmlns="http://www.w3.org/2000/svg" viewBox="0 0 22 22"><path d="m 0.71 7.98 c -4.11 11.46 10.66 17 16.2 12.38 c 5.54 -4.67 7.45 -12.67 1.16 -16.69 c -6.28 -4 -13.25 -7.15 -17.36 4.32" style="fill:#10121a"/><g style="fill:#78a4f6"><path d="m 11.23 14.69 l 1.23 -0.5 c 2.22 -0.9 1.93 -0.84 2.05 -3.04 l 0.1 -1.82 l 0.95 -0.42 c 1.91 -0.84 1.84 -1.86 1.84 2.22 c 0 2.75 -0.12 4.46 -0.34 4.64 c -1.18 0.74 -5.18 1.99 -5.79 2.22 c -0.16 -1.1 -0.06 -2.04 -0.03 -3.3"/><path d="m 13.86 8.93 l -1.23 0.5 c -2.22 0.9 -1.93 0.84 -2.05 3.04 l -0.1 1.82 l -0.95 0.42 c -2.25 1 -1.84 1.86 -1.84 -2.22 c 0 -2.75 0.04 -4.41 0.26 -4.59 c 1.18 -0.73 5.26 -2.04 5.87 -2.28 c 0.16 1.1 0.06 2.04 0.03 3.3"/></g><path d="m 4.47 14.47 c 0 -2.58 0 -5.16 0 -7.74 c 0.9 0.36 1.96 0.8 2.86 1.16 c 0.06 2.75 -0.1 3.93 0.07 7.78 c -1.04 -0.42 -1.83 -0.75 -2.93 -1.2" style="fill:#045bf9"/><path d="m 4.81 6.53 c 2.07 -0.91 4.41 -1.59 6.17 -2.27 c 0.35 0.14 2.48 0.84 2.53 1.07 c 0 0.12 -4.92 1.9 -5.83 2.16 c -1.08 -0.11 -1.85 -0.54 -2.88 -0.97" style="fill:#36455f"/><g style="fill:#045bf9"><path d="m 9.59 17.1 c -2.14 -1.06 -2 -1.2 -0.34 -1.82 c 0.71 -0.31 1.44 -0.7 1.5 -0.7 c 0.15 0 0.12 2.3 0.16 3.12 c 0.02 0.41 0.14 -0.06 -1.32 -0.6"/><path d="m 12.4 12.21 c -0.63 -0.26 -1.18 -0.96 -1.29 -1.06 c -0.09 -0.08 -0.31 -0.43 1.62 -1.27 l 1.4 -0.6 v 1.71 c 0 1.93 0.01 1.92 -1.73 1.22"/></g><path d="m 14.43 6.57 c 0.89 0.53 1.77 0.84 2.73 1.22 c -0.84 0.31 -1.85 0.76 -2.7 1.07 c -0.11 -0.63 -0.38 -2.56 -0.04 -2.29" style="fill:#36455f"/><path d="m 11 11.7 c 0.55 0.29 1.85 1.14 2.56 1.41 c 0.11 0.21 -2 1.25 -2.53 1.25 c -0.25 -0.92 -0.14 -1.66 -0.03 -2.65" style="fill:#fff"/></svg>