<svg xmlns="http://www.w3.org/2000/svg" xmlns:xlink="http://www.w3.org/1999/xlink" viewBox="0 0 22 22"><defs><g id="3" style="clip-path:url(#2)"><path d="m 89.7 101.5 v -20.35 l 4.37 0.28 l 2.87 13.7 c 1.59 7.52 2.96 13.8 3.09 13.89 c 0.23 0.23 0.09 0.78 3.18 -13.84 c 1.36 -6.64 2.64 -12.46 2.73 -13 c 0.23 -0.83 0.5 -0.97 2.37 -0.97 h 2.09 v 40.6 h -2.55 l -0.05 -18.1 c 0 -11.53 -0.14 -17.76 -0.41 -17.26 c -0.27 0.65 -5.87 26.44 -5.87 27.1 c -1 0.18 -1.77 0.14 -2.82 0.14 l -2.91 -13.66 c -1.55 -7.47 -3 -13.8 -3.23 -13.98 c -0.18 -0.23 -0.36 7.52 -0.36 17.67 v 17.99 h -2.5 v -20.35" transform="matrix(0.086 0 0 0.085 0 0.25)" style="fill:#fff;stroke:#fff;stroke-width:0.77"/></g><g id="6" style="clip-path:url(#5)"><path d="m 114.3 121.1 c 0.09 -0.42 2.05 -9.5 4.37 -20.25 l 4.19 -19.56 c 1.05 -0.09 2.27 0 3.18 0.18 c 0 0.14 1.91 9.14 4.23 19.93 c 2.32 10.84 4.23 19.89 4.23 20.1 c 0 0.18 -0.59 0.37 -1.27 0.37 c -0.96 0 -1.32 -0.23 -1.46 -0.97 c -0.32 -1.25 -1.91 -9.23 -1.91 -9.46 c -3.82 -0.23 -6.73 -0.14 -10.87 -0.14 c -0.64 3.51 -1.32 7 -1.96 10.57 c -1.36 0.18 -2.32 -0.23 -2.73 -0.74 m 12.92 -22 c -2.64 -12.64 -2.73 -13 -3 -12.36 c -0.32 0.78 -4.09 19.1 -4.09 19.79 c 3.05 0.78 5.19 0.51 8.78 0.51 c -0.59 -2.63 -1.09 -5.31 -1.68 -7.94" transform="matrix(0.086 0 0 0.085 0 0.25)" style="fill:#fff;stroke:#fff;stroke-width:0.77"/></g><g id="9" style="clip-path:url(#8)"><path d="m 138.3 101.5 v -20.3 h 2.96 l 0.09 8.67 l 0.14 8.72 l 5.19 -8.72 l 5.19 -8.67 h 3.41 l -0.82 1.34 c -5 8.17 -10.24 17.1 -10.24 17.58 c 0 0.42 6.28 11.95 10.83 19.84 l 1.05 1.8 h -3.64 l -5.5 -9.87 l -5.46 -9.92 l -0.14 9.92 l -0.09 9.87 h -2.96" transform="matrix(0.086 0 0 0.085 0 0.25)" style="fill:#fff;stroke:#fff;stroke-width:0.77"/></g><g id="C" style="clip-path:url(#B)"><path d="m 159 101.5 v -20.3 h 13.97 v 4.2 h -11.42 v 12.69 h 11 v 4.24 h -11 v 15.18 h 11.83 v 4.24 h -14.38 v -20.3" transform="matrix(0.086 0 0 0.085 0 0.25)" style="fill:#fff;stroke:#fff;stroke-width:0.77"/></g><g id="F" style="clip-path:url(#E)"><path d="m 133.4 173.1 c -0.09 -0.32 -2.05 -9.46 -4.32 -20.35 l -4.19 -19.79 l 1.23 -0.14 c 0.68 -0.05 1.32 -0.05 1.41 0.05 c 0.09 0.09 1.68 7.61 3.55 16.7 c 3.5 17 3.78 18.22 4 17.95 c 0.09 -0.05 1.68 -7.57 3.59 -16.7 c 1.87 -9.1 3.5 -16.89 3.64 -17.3 c 0.23 -0.78 2.68 -1.11 2.68 -0.28 c 0 0.46 -7.92 38.43 -8.28 39.68 c -0.23 0.88 -3 1.06 -3.32 0.18" transform="matrix(0.086 0 0 0.085 0 0.25)" style="fill:#fff;stroke:#fff;stroke-width:0.78"/></g><g id="I" style="clip-path:url(#H)"><path d="m 100.1 172.1 c 0.14 -0.42 2.09 -9.55 4.41 -20.3 l 4.19 -19.56 c 1.05 -0.05 2.23 0.05 3.18 0.23 c 0 0.14 1.87 9.1 4.23 19.93 c 2.32 10.84 4.23 19.89 4.23 20.1 c 0 0.18 -0.59 0.32 -1.27 0.32 c -0.96 0 -1.32 -0.23 -1.5 -0.92 c -0.27 -1.29 -1.91 -9.23 -1.91 -9.46 c -3.78 -0.28 -6.73 -0.18 -10.83 -0.18 c -0.68 3.55 -1.32 7.1 -2 10.57 c -1.32 0.23 -2.32 -0.23 -2.68 -0.74 m 12.92 -22 c -2.64 -12.6 -2.77 -12.96 -3 -12.32 c -0.32 0.74 -4.09 19.1 -4.09 19.79 c 3 0.78 5.19 0.46 8.73 0.46 c -0.55 -2.63 -1.09 -5.31 -1.64 -7.94" transform="matrix(0.086 0 0 0.085 0 0.25)" style="fill:#fff;stroke:#fff;stroke-width:0.77"/></g><clipPath id="E"><path d="M 0,0 H22 V22 H0 z"/></clipPath><clipPath id="B"><path d="M 0,0 H22 V22 H0 z"/></clipPath><clipPath id="5"><path d="M 0,0 H22 V22 H0 z"/></clipPath><clipPath id="8"><path d="M 0,0 H22 V22 H0 z"/></clipPath><clipPath id="2"><path d="M 0,0 H22 V22 H0 z"/></clipPath><clipPath id="H"><path d="M 0,0 H22 V22 H0 z"/></clipPath><filter id="0" filterUnits="objectBoundingBox" x="0" y="0" width="22" height="22"><feColorMatrix type="matrix" in="SourceGraphic" values="0 0 0 0 1 0 0 0 0 1 0 0 0 0 1 0 0 0 1 0"/></filter><mask id="G"><g style="filter:url(#0)"><path d="M 0,0 H22 V22 H0 z" style="fill-opacity:0.9"/></g></mask><mask id="D"><g style="filter:url(#0)"><path d="M 0,0 H22 V22 H0 z" style="fill-opacity:0.9"/></g></mask><mask id="1"><g style="filter:url(#0)"><path d="M 0,0 H22 V22 H0 z" style="fill-opacity:0.9"/></g></mask><mask id="A"><g style="filter:url(#0)"><path d="M 0,0 H22 V22 H0 z" style="fill-opacity:0.9"/></g></mask><mask id="7"><g style="filter:url(#0)"><path d="M 0,0 H22 V22 H0 z" style="fill-opacity:0.9"/></g></mask><mask id="4"><g style="filter:url(#0)"><path d="M 0,0 H22 V22 H0 z" style="fill-opacity:0.9"/></g></mask></defs><path d="m 5 19.85 c 17.2 11 25.38 -24.1 4.25 -19.43 c -8.72 1.98 -13.39 14.39 -4.25 19.43" style="fill:#f4f4f4"/><path d="m 5.59 4.98 v 12 h 11.41 v -12 m -11.22 0.34 h 1.08 v 1.27 h -1.08 m 10 -1.27 h 1.08 v 1.27 h -1.08 m -10 2.1 h 1.08 v 1.27 h -1.08 m 10 -1.27 h 1.08 v 1.27 h -1.08 m -10 2.09 h 1.08 v 1.27 h -1.08 m 10 -1.27 h 1.08 v 1.27 h -1.08 m -10 2.1 h 1.08 v 1.27 h -1.08 m 10 -1.27 h 1.08 v 1.27 h -1.08"/><use xlink:href="#3" style="mask:url(#1)"/><use xlink:href="#6" style="mask:url(#4)"/><use xlink:href="#9" style="mask:url(#7)"/><use xlink:href="#C" style="mask:url(#A)"/><use xlink:href="#F" style="mask:url(#D)"/><use xlink:href="#I" style="mask:url(#G)"/><g style="fill:#fff"><path d="m 13.37 12 h 0.32 v 2.92 h -0.32"/><path d="m 13.37 11.4 h 0.32 v 0.43 h -0.32"/></g></svg>