<svg xmlns="http://www.w3.org/2000/svg" viewBox="0 0 22 22"><path d="m 19.32 18.1 c 5.52 -8.18 1.34 -15.64 -4.68 -17.41 c -8.11 -2.38 -19.3 3.87 -12.27 16.76 c 2.8 5.12 13 6.48 16.95 0.65" style="fill:#522a20"/><path d="m 7.57 16.74 c -0.08 -0.04 -0.09 -0.34 0 -0.42 c 0.04 -0.04 0.32 -0.06 0.91 -0.06 c 1.02 0 1 0 1 -0.54 c 0 -0.29 -0.02 -0.38 -0.09 -0.41 c -0.05 -0.02 -0.82 -0.03 -1.72 -0.03 c -2.18 0 -2.47 -0.06 -2.7 -0.55 c -0.17 -0.38 -0.21 -1.42 -0.19 -4.71 c 0.02 -2.6 0.04 -3 0.11 -3.25 c 0.13 -0.41 0.29 -0.55 0.71 -0.66 c 0.34 -0.09 0.65 -0.09 5.39 -0.09 c 4.74 0 5 0 5.39 0.09 c 0.42 0.11 0.58 0.26 0.71 0.66 c 0.08 0.23 0.09 0.65 0.11 3.25 c 0.03 3.3 -0.02 4.34 -0.19 4.71 c -0.22 0.48 -0.52 0.54 -2.61 0.55 c -0.88 0 -1.59 0.02 -1.63 0.05 c -0.06 0.04 -0.08 0.14 -0.07 0.43 c 0.01 0.21 0.02 0.41 0.04 0.44 c 0.02 0.04 0.33 0.05 0.82 0.05 c 0.54 0 0.81 0.02 0.85 0.06 c 0.1 0.09 0.08 0.38 -0.02 0.42 c -0.1 0.04 -6.76 0.04 -6.86 0 m 8.84 -1.88 c 0.34 -0.16 0.4 -0.29 0.46 -0.95 c 0.08 -0.8 0.03 -6.66 -0.06 -7 c -0.09 -0.32 -0.28 -0.48 -0.68 -0.53 c -0.17 -0.02 -2.56 -0.04 -5.32 -0.03 c -4.73 0.01 -5 0.01 -5.21 0.1 c -0.38 0.18 -0.4 0.24 -0.45 1.48 c -0.05 1.39 -0.05 4.45 0 5.63 c 0.05 1.22 0.09 1.28 0.92 1.38 c 0.22 0.02 2.59 0.04 5.27 0.04 c 4.75 -0.01 4.87 -0.01 5.08 -0.11 m -7.42 -1.41 c -0.11 -0.06 -0.13 -0.35 -0.03 -0.45 c 0.09 -0.09 3.95 -0.09 4 0 c 0.11 0.1 0.08 0.39 -0.04 0.45 c -0.14 0.07 -3.85 0.07 -3.98 0 m -0.06 -1.1 c -0.05 -0.13 -0.04 -0.3 0.03 -0.37 c 0.05 -0.05 0.57 -0.06 2.02 -0.06 c 2.16 0 2.11 -0.01 2.07 0.32 l -0.02 0.17 l -2.04 0.02 c -1.82 0.01 -2.04 0 -2.07 -0.07 m -0.97 -1 c -0.02 -0.04 -0.02 -0.29 -0.01 -0.57 l 0.02 -0.51 l 2.99 -0.01 c 2.16 -0.01 3 0 3.06 0.04 c 0.09 0.07 0.1 0.87 0.02 1.02 c -0.05 0.1 -0.14 0.1 -3.05 0.1 c -2.43 0 -3 -0.01 -3 -0.07 m 5.42 -0.53 c 0.02 -0.27 -0.11 -0.15 -2.36 -0.16 c -2.46 -0.02 -2.4 -0.05 -2.38 0.18 c 0.02 0.25 -0.14 0.21 2.34 0.23 c 2.51 0.01 2.39 0.05 2.4 -0.24 m -4.41 -1.15 c -0.11 -0.1 -0.08 -0.39 0.04 -0.45 c 0.16 -0.09 3.86 -0.07 3.98 0.01 c 0.07 0.05 0.09 0.12 0.08 0.27 l -0.02 0.2 l -2 0.02 c -1.52 0.01 -2.02 0 -2.07 -0.05 m 0 -1.02 c -0.11 -0.1 -0.08 -0.39 0.04 -0.45 c 0.07 -0.03 0.79 -0.05 1.98 -0.05 c 1.2 0 1.92 0.02 1.98 0.05 c 0.12 0.06 0.14 0.35 0.04 0.45 c -0.09 0.09 -3.95 0.09 -4 0" style="fill:#fff"/></svg>