<svg xmlns="http://www.w3.org/2000/svg" viewBox="0 0 22 22"><path d="m 20.96 6.91 c 8.27 26.74 -36.1 13.37 -15.38 -4.96 c 4.16 -3.67 13.15 -2.26 15.38 4.96" style="fill:#007f00"/><g style="fill:#35bf5b"><path d="m 5.72 5.99 h 2.55 v 9.27 h -2.55"/><path d="m 12.54 6 h 2.55 v 9.27 h -2.55"/><path d="m 9.13 6 h 2.54 v 9.25 h -2.54"/><path d="m 5.73 8.56 v -2.59 l 9.35 0.02 v 2.6"/></g><g style="fill:#efffef"><path d="m 15.54 12.1 c -0.16 0 -0.3 0.13 -0.3 0.3 v 0.7 c -0.25 0.06 -0.49 0.16 -0.7 0.29 l -0.5 -0.5 c -0.11 -0.12 -0.3 -0.12 -0.42 0 l -0.49 0.49 c -0.11 0.12 -0.11 0.3 0 0.42 l 0.5 0.5 c -0.13 0.21 -0.23 0.45 -0.29 0.7 h -0.7 c -0.16 0 -0.29 0.13 -0.29 0.3 v 0.69 c 0 0.16 0.13 0.3 0.29 0.3 h 0.7 c 0.06 0.25 0.16 0.48 0.29 0.7 l -0.5 0.5 c -0.11 0.12 -0.11 0.3 0 0.42 l 0.49 0.49 c 0.12 0.12 0.3 0.12 0.42 0 l 0.5 -0.5 c 0.21 0.13 0.45 0.23 0.7 0.29 v 0.7 c 0 0.17 0.13 0.3 0.3 0.3 h 0.69 c 0.16 0 0.3 -0.13 0.3 -0.3 v -0.7 c 0.25 -0.06 0.48 -0.16 0.7 -0.29 l 0.5 0.5 c 0.12 0.12 0.3 0.12 0.42 0 l 0.48 -0.49 c 0.12 -0.12 0.12 -0.3 0 -0.42 l -0.5 -0.5 c 0.13 -0.21 0.23 -0.45 0.29 -0.7 h 0.7 c 0.16 0 0.3 -0.13 0.3 -0.3 v -0.69 c 0 -0.16 -0.13 -0.3 -0.3 -0.3 h -0.7 c -0.06 -0.25 -0.16 -0.49 -0.29 -0.7 l 0.5 -0.5 c 0.12 -0.12 0.12 -0.3 0 -0.42 l -0.48 -0.49 c -0.12 -0.12 -0.3 -0.12 -0.42 0 l -0.5 0.5 c -0.21 -0.13 -0.45 -0.23 -0.7 -0.29 v -0.7 c 0 -0.16 -0.13 -0.3 -0.3 -0.3 m -0.34 2.33 c 0.67 0 1.21 0.54 1.21 1.21 c 0 0.67 -0.54 1.21 -1.21 1.21 c -0.67 0 -1.21 -0.54 -1.21 -1.21 c 0 -0.67 0.54 -1.21 1.21 -1.21"/><path d="m 163.6 128 c 0 19.57 -15.93 35.55 -35.55 35.55 c -19.7 0 -35.55 -15.98 -35.55 -35.55 c 0 -19.66 15.85 -35.55 35.55 -35.55 c 19.62 0 35.55 15.9 35.55 35.55" transform="matrix(0.046 0 0 0.046 10.1 9.81)" style="stroke:#007f00;stroke-width:17.6"/></g></svg>