<svg xmlns="http://www.w3.org/2000/svg" viewBox="0 0 22 22"><path d="m 21.7 10.95 c 1.64 -14.64 -21.87 -14.43 -21.59 0.26 c -0.78 13.67 22.87 14.9 21.59 -0.26" style="fill:#ffe4c3"/><g style="fill:#f9a62a"><path d="m 5.83 9.91 h 8 c 0.33 0 0.6 0.25 0.6 0.55 v 0.8 c 0 0.3 -0.27 0.55 -0.6 0.55 h -8 c -0.33 0 -0.6 -0.25 -0.6 -0.55 v -0.8 c 0 -0.3 0.27 -0.55 0.6 -0.55"/><path d="m 5.83 12.82 h 8 c 0.33 0 0.6 0.25 0.6 0.55 v 0.8 c 0 0.3 -0.27 0.55 -0.6 0.55 h -8 c -0.33 0 -0.6 -0.25 -0.6 -0.55 v -0.8 c 0 -0.3 0.27 -0.55 0.6 -0.55"/><path d="m 12.82 15.72 h 3.29 c 0.33 0 0.6 0.25 0.6 0.55 v 0.8 c 0 0.3 -0.27 0.55 -0.6 0.55 h -3.29 c -0.33 0 -0.6 -0.25 -0.6 -0.55 v -0.8 c 0 -0.3 0.27 -0.55 0.6 -0.55"/><path d="m 5.17 6.65 h 12 c 0.33 0 0.6 0.24 0.6 0.54 v 0.8 c 0 0.3 -0.27 0.54 -0.6 0.54 h -12 c -0.33 0 -0.6 -0.24 -0.6 -0.54 v -0.8 c 0 -0.3 0.27 -0.54 0.6 -0.54"/></g><g style="fill:#fff"><path d="m 6.89 13.74 c 0 0.32 -0.27 0.59 -0.61 0.59 c -0.34 0 -0.61 -0.27 -0.61 -0.59 c 0 -0.33 0.27 -0.59 0.61 -0.59 c 0.34 0 0.61 0.27 0.61 0.59"/><path d="m 8.36 13.8 c 0 0.33 -0.27 0.59 -0.61 0.59 c -0.34 0 -0.61 -0.27 -0.61 -0.59 c 0 -0.33 0.28 -0.59 0.61 -0.59 c 0.34 0 0.61 0.27 0.61 0.59"/><path d="m 9.9 13.82 c 0 0.33 -0.27 0.59 -0.61 0.59 c -0.34 0 -0.61 -0.27 -0.61 -0.59 c 0 -0.33 0.27 -0.59 0.61 -0.59 c 0.34 0 0.61 0.27 0.61 0.59"/><path d="m 11.42 13.82 c 0 0.33 -0.27 0.59 -0.61 0.59 c -0.34 0 -0.61 -0.27 -0.61 -0.59 c 0 -0.33 0.27 -0.59 0.61 -0.59 c 0.34 0 0.61 0.27 0.61 0.59"/><path d="m 6.49 10.36 h 2.99 c 0.33 0 0.6 0.23 0.6 0.51 c 0 0.28 -0.27 0.51 -0.6 0.51 h -2.99 c -0.33 0 -0.6 -0.23 -0.6 -0.51 c 0 -0.28 0.27 -0.51 0.6 -0.51"/><path d="m 13.38 16.19 h 2.06 c 0.33 0 0.6 0.23 0.6 0.51 c 0 0.28 -0.27 0.51 -0.6 0.51 h -2.06 c -0.33 0 -0.6 -0.23 -0.6 -0.51 c 0 -0.28 0.27 -0.51 0.6 -0.51"/></g><path d="m 16.41 7 h 0.06 c 0.33 0 0.6 0.24 0.6 0.54 v 0.14 c 0 0.3 -0.27 0.55 -0.6 0.55 h -0.06 c -0.33 0 -0.6 -0.25 -0.6 -0.55 v -0.14 c 0 -0.3 0.27 -0.54 0.6 -0.54" style="fill:#ff4500"/></svg>