<svg xmlns="http://www.w3.org/2000/svg" viewBox="0 0 22 22"><path d="m 3.91 19.5 c 8.18 5.35 15.64 1.03 17.41 -5 c 2.38 -8.16 -3.88 -19.23 -16.76 -11.93 c -5.12 2.9 -6.48 13.1 -0.65 16.96" style="fill:#fb8600"/><g style="fill:#fff"><path d="m 8.16 15.75 v 0.99 h -1.05 c -0.19 0 -0.35 0.16 -0.35 0.36 c 0 0.2 0.16 0.36 0.35 0.36 h 3.86 c 0.19 0 0.34 -0.16 0.34 -0.36 c 0 -0.2 -0.15 -0.36 -0.34 -0.36 h -1.06 v -0.99"/><path d="m 4.56 9.93 c -0.16 0 -0.29 0.14 -0.29 0.31 v 5.58 c 0 0.17 0.13 0.3 0.29 0.3 h 8.96 c 0.16 0 0.29 -0.14 0.29 -0.3 v -5.58 c 0 -0.17 -0.13 -0.31 -0.29 -0.31 m -8.39 0.81 h 7.81 v 4.57 h -7.81"/><g style="stroke:#fff"><path d="m 134.5 101.9 c 0 0.4 0 0.79 0 1.19 l 2.68 -1.19" transform="matrix(0.07 0 0 0.069 4 0.74)"/><g transform="matrix(0.07 0 0 0.069 3.91 0.67)"><path d="m 79.3 172.8 c -2.34 -0.9 -5.19 -4.68 -8.71 -11.63 c -3.29 -6.43 -5.69 -13 -6.59 -18 c -1.4 -7.51 -1.62 -19.42 -0.45 -22.52 c 0.78 -2.03 1.17 -4.35 1.45 -7.9 c 0.28 -4.18 0.73 -6.32 2.06 -9.82 c 3.35 -8.86 10.44 -18.62 18.75 -25.91 c 7.42 -6.43 12.72 -9.14 15.68 -7.96 c 2 0.79 2.62 0.51 3.91 -1.98 c 1.12 -2.14 2.06 -3.44 2.46 -3.44 c 1.62 0.79 2.96 1.64 4.63 2.43 c 1.45 0.34 0.67 0.73 -0.06 1.64 c -1.84 2.2 -2.34 3.67 -1.62 4.97 c -1.73 14.84 1.62 5.19 -6.36 11.97 c -0.95 0.85 -3.46 -0.4 -4.91 -0.11 c -2.62 0.62 -9.77 4.29 -14.62 7.45 c -2.62 1.75 -4.97 3.67 -7.42 5.98 c -3.29 3.1 -3.57 3.33 -3.79 2.77 c -0.28 -0.73 -1.28 -1.19 -2.06 -0.96 c -2 0.51 -3.74 6.1 -3.85 12.19 l -0.06 3.39 l 9.65 4 c 5.3 2.2 9.93 4.12 10.27 4.35 c 1.9 2.65 4.07 5.31 6.14 6.77 c 2.23 1.52 3.13 2.82 2.9 4.18 c -0.11 0.51 -0.95 1.92 -1.9 3.05 c -0.89 1.19 -2.46 3.61 -3.4 5.36 c -2 3.78 -3.13 4.85 -6.08 5.98 c -4.97 1.92 -5.97 3.27 -7.09 9.59 c -0.67 2.09 -0.33 3.16 0.5 5.08 c 0.5 1.24 1.95 4.29 3.24 6.83 c 1.28 2.54 2.29 4.68 2.29 4.74 c -1.73 -0.34 -2.9 -1.47 -4.97 -2.48"/><path d="m 146 162.3 c -1.23 -0.51 -3.07 -3.05 -5 -7.11 c -3.52 -7.17 -4.69 -10.84 -5.92 -18.91 c -0.78 -4.97 -1.23 -6.72 -2.4 -10.33 c -0.89 -4.57 -5.52 -2.65 -9.26 -2.65 c -3.18 0 -6.75 1.02 -8.09 0.23 c -2.73 -3.67 -7.48 -5.81 -6.19 -12.59 c -0.56 -2.31 0.17 -2.77 4.41 -6.55 l 5.92 -5.36 c 6.59 -1.07 6.42 2.26 10.21 2.88 c 1.56 0.28 8.59 1.75 11.27 2.54 c 4.8 1.41 8.59 0.06 9.54 0.06 c 0.73 4.12 0.73 -0.17 0.95 -0.28 c -0.22 -4.35 -2.85 0.85 -8.76 -5.53 l -4.24 -4.57 l -3 4.68 c -1.17 1.81 -2.79 -4.68 -5.58 -4 c -1.84 0.45 -3.57 0.96 -3.85 1.07 c -0.33 0.11 -5.69 0.51 -6 -0.45 c -0.33 -1.13 -1.17 -2.6 -0.73 -3.5 c 0.67 -1.24 6.64 -2.09 6.08 -3.16 c -0.22 -0.4 -1.4 -1.64 -2.57 -2.77 c -2.4 -2.09 -2.79 -2.77 -2.23 -3.72 c 0.33 -0.68 2.96 -2.03 4 -2.03 c 0.78 0 0.84 -0.45 0 -0.85 c -0.84 -0.51 -3.68 0.79 -5.92 0.45 c -7.59 -0.62 -0.89 -2.26 -1.06 -4.91 c 0.95 -3.16 3.96 -4.97 4.3 -4.97 c 0.45 0 2.4 8.58 1.9 6.38 c -0.45 -1.92 1.17 -0.11 2.51 -1.13 c 2.23 -1.64 7.09 -4.12 12.17 -6.26 c 6.14 -2.54 8.54 -3.33 11.16 -3.5 c 2.9 -0.17 4.07 0.11 8.71 2.37 c 11.94 5.87 24 17.55 29.63 28.78 c 4.35 8.64 7.53 19.75 7.25 25.1 c -0.22 3.67 -1.56 3.95 -4 0.79 c -1.23 -1.52 -1.51 -1.81 -2.51 -1.86 c -0.78 -0.06 -1.34 0.11 -1.95 0.51 c -1.95 1.47 -2.96 2.09 -3.46 2.09 c -0.95 0 -1.62 -1.02 -1.84 -2.6 c -0.22 -1.86 -2.12 -0.51 -3 -2.37 c -4.91 -10.55 -9.77 -7.96 -9.99 -7.9 c -1.23 2.2 -1.73 3.39 6.64 6.1 c 1.67 0.56 3.63 7.96 3.68 8.75 v 1.07 h -2.06 c -1.84 0 -8.2 -0.68 -9.54 0.17 c -1.84 1.19 -13.23 -21.33 -13.62 -18.57 c -0.73 5.42 13.23 18.96 10.83 21.28 c -2.79 2.65 -6.64 16 -6.36 18.23 c 0.17 1.58 -0.17 2.37 -1.23 2.99 c -0.56 0.34 -1.34 1.52 -2.68 4.12 c -2.34 4.63 -3.52 6.43 -4.63 7.22 c -1 0.73 -2.51 1.02 -3.4 0.62 m 9.6 -65.1 c 2.06 -1.07 2.68 -4 1.12 -5.53 c -1.12 -1.13 -2.29 -1.13 -4.41 -0.11 c -1.51 0.68 -1.84 0.73 -4.46 0.62 c -2.29 -0.17 -2.85 -0.11 -3.18 0.23 c -0.28 0.4 -2.85 3.89 -0.89 5.87 c 1.84 1.81 5.47 -0.73 6.53 -0.51 c 1.62 0.34 3.91 0.11 5.3 -0.56"/><path d="m 187 162.1 c -2.06 -1.3 -3.74 -2.88 -5.92 -4.29 c -1.95 -1.3 -2.4 -1.98 -2.85 -4.74 c -0.56 -2.82 -0.56 -10.38 0 -11 c 0.5 -0.62 1.06 -0.62 2.18 0.17 c 1.9 0.96 3.35 0.62 5.52 0.9 c 0.56 0.23 1.62 0 3.85 -0.62 c 3.57 -1.07 4.69 -1.19 5.08 -0.34 c 1.12 2.03 -0.73 9.71 -4 16.65 c -1 1.75 -2.29 3.78 -3.85 3.27"/></g><path d="m -213.6 -11.45 c 9.82 -2.77 9.99 -4.18 9.99 -6.83 c 0 -1.81 -0.33 -2.09 -1.56 -1.3 c -1.95 1.24 -2.23 1.3 -2.9 0.96 c -0.39 -0.23 -3.24 1.86 -4.13 0.85 c -1.73 -2.09 0.33 -5.14 -2.46 -3.95 l -1.56 0.73 c 0 3.05 0.11 5.08 -1.73 6.55 c 1.4 0.17 2.9 3.39 4.35 2.99" transform="matrix(-0.07 0 0 0.069 2.54 11)"/><g transform="matrix(0.07 0 0 0.069 3.91 0.67)"><path d="m 121.2 196.7 c -4.13 -0.28 -5.69 -0.79 -8.98 -1.69 c -2.9 -0.79 -18.3 -6.38 -19 -7.22 c -1.28 -1.41 7.87 -3.27 9.65 -2.31 c 1.9 1.13 10.77 3.22 12.61 2.43 c 7.59 -3.16 7.7 -3.16 11.61 -2.77 c 6.14 0.62 10.66 2.14 12.44 4.29 c 0.78 1.02 15.51 2.88 15.24 3.27 c -0.39 0.68 -4.97 3.72 -24.39 4.91 c -1.95 -0.06 -7.25 -0.73 -9.15 -0.9"/><path d="m 117.7 202.1 c -8.98 -1.35 -20.82 -6.15 -29.52 -11.91 c -13.73 -9.2 -23.33 -22.1 -29 -39 c -2.23 -6.6 -3.24 -13.49 -3.24 -21.95 c 0 -21.45 6.59 -37.76 21.2 -52.4 c 12.67 -12.7 24.83 -18.96 41.58 -21.33 c 2.79 -0.4 5.64 -0.51 12.28 -0.51 c 9.6 0 11.78 0.28 18.47 2.31 c 23.2 7.1 40 23.37 49.1 47.58 c 2.23 6.1 3.13 10.55 3.68 18.68 c 0.5 8.3 -0.28 17.72 -2.06 23.99 c -3.57 12.64 -10.77 24.95 -19.98 34.1 c -9.99 9.99 -23.27 17.1 -36.2 19.42 c -7.81 1.35 -20.48 1.86 -26.3 1.02 m 21.43 -2.31 c 15.51 -2.43 29.1 -9.2 39.73 -19.75 c 3.46 -3.39 6 -6.6 9.21 -11.34 c 6.64 -10 10.21 -19.75 11.5 -31.3 c 0.5 -4.52 0.45 -14.9 -0.11 -19.1 c -2.18 -16.1 -8.87 -29.1 -21.49 -41.54 c -9.21 -9.14 -16.74 -13.43 -30.53 -17.44 c -7 -2.03 -8.98 -2.26 -18.81 -2.09 c -8.87 0.17 -12.1 0.51 -18.1 2.09 c -10.94 2.82 -21.32 8.8 -30.69 17.67 c -2.29 2.14 -7.09 7.51 -8.98 10.1 c -4.74 6.26 -8.43 14.67 -10.94 25 c -1.45 5.81 -1.73 10.27 -1.34 18.79 c 0.84 16.65 3.91 27 11.27 38.1 c 10.94 16.37 30.64 28.56 49.89 30.87 c 6.42 0.79 13.1 0.79 19.42 -0.11"/><path d="m 114.9 68.3 c -1.12 -0.96 0.95 -3.72 0.95 -4.46 c 0 -0.56 1.12 -1.02 3.96 -1.52 c 2.85 -0.45 5.86 -0.56 6.53 -0.17 c -0.17 2.65 -3.74 5.14 -6.19 5.47 c -1.28 0 -4.63 1.24 -5.25 0.68"/></g></g><path d="m 5.72 11.22 h 1.24 v 0.98 h -1.24"/></g></svg>