<svg xmlns="http://www.w3.org/2000/svg" viewBox="0 0 22 22"><path d="m 0.91 8.93 c 2.19 -14.67 24.73 -9.66 20.46 4.54 c -2.86 13.49 -25.92 9.84 -20.46 -4.54" style="fill:#dcdcdc"/><path d="m 7.82 18.25 c -0.39 -0.23 -0.95 -1.38 -0.93 -1.45 c 0.99 -0.11 1.39 -0.41 1.87 -0.49 c 0.15 0.07 0.32 0.14 0.37 0.14 c 0.13 0 0.51 -0.32 0.51 -0.42 c 0 -0.05 0.19 -0.26 0.42 -0.48 c 0.46 -0.44 0.99 -0.7 0.82 -0.93 c -0.05 -0.08 -0.09 -0.15 -0.12 -0.27 c -0.04 -0.21 -0.52 -0.28 -0.69 -0.29 c -0.28 -0.03 -0.41 0.18 -0.39 0.63 c 0 0.19 0.25 0.72 0.21 0.73 c -0.16 0.09 -0.68 -0.67 -0.92 -1.37 c -0.11 -0.3 -0.11 -0.38 -0.05 -0.56 c 0.11 -0.29 0.01 -0.48 -0.23 -0.48 c -0.23 0 -0.32 0.12 -0.33 0.4 c 0 0.17 -0.03 0.23 -0.11 0.25 c -0.08 0.02 -0.12 -0.03 -0.14 -0.16 c -0.02 -0.11 -0.14 -0.27 -0.3 -0.41 c -0.44 -0.39 -0.32 -0.57 0.38 -0.57 c 0.55 0 0.67 -0.08 0.67 -0.44 c 0 -0.33 -0.1 -0.42 -0.36 -0.34 c -0.41 0.13 -0.67 0.05 -0.76 -0.25 c 0.1 -0.68 0.13 -1.17 0.12 -1.64 c -0.02 -0.57 -0.02 -1.41 0.01 -1.86 c -0.14 -0.68 0.32 -1.11 0.52 -1.61 c 0 -0.15 0.79 -0.82 1.27 -1.08 l 0.49 -0.27 c 1.33 -0.01 2.66 -0.02 3.98 -0.03 c 0.82 0.39 1.43 1.17 1.97 1.67 c 0.56 0.4 0.38 1 0.29 1.57 c -0.05 0.38 0.13 0.79 0.03 1.12 c -0.07 0.22 -0.06 0.25 0.07 0.41 c 0.13 0.16 0.13 0.22 0.12 0.91 c 0.04 0.52 -0.11 0.99 -0.3 1.43 c -0.07 0.17 -0.14 0.34 -0.16 0.39 c -0.04 0.11 -0.16 0.16 -0.28 0.12 c -0.13 -0.04 -0.17 -0.54 -0.1 -1.09 c 0.05 -0.4 0.05 -0.5 -0.02 -0.56 c -0.07 -0.06 -0.11 -0.06 -0.24 -0.01 c -0.21 0.09 -0.16 -0.24 -0.29 -0.48 c -0.23 -0.36 -0.73 0.02 -1.11 -0.05 c -0.2 -0.04 -0.43 0 -0.43 0.09 c 0 0.03 0.13 0.11 0.28 0.17 c 0.28 0.12 0.29 0.13 0.29 0.37 c 0 0.2 -0.02 0.25 -0.15 0.31 c -0.42 0.23 -0.7 -0.13 -0.95 -0.16 c -0.06 0.02 -0.21 0 -0.32 -0.04 c -0.3 -0.09 -0.29 -0.27 0.03 -0.54 c 0.13 -0.11 0.33 -0.33 0.45 -0.48 c 0.26 -0.36 0.44 -0.42 1.12 -0.35 c 0.42 0.04 0.5 0.07 0.61 0.2 c 0.35 0.3 0.2 -0.57 0.29 -0.88 c 0.12 -0.42 0.13 -1.07 0 -1.21 c -0.05 -0.06 -0.09 -0.17 -0.09 -0.25 c 0 -0.3 -0.11 -0.34 -0.68 -0.31 c -0.59 -0.11 -0.8 0.41 -1.32 0.43 c -0.41 0.04 -0.71 0.27 -1.11 0.33 c -0.68 -0.33 -1.34 -0.42 -2.03 -0.55 c -0.39 -0.07 -0.52 -0.02 -0.47 0.19 c -0.05 0.32 -0.25 0.59 -0.26 0.88 c -0.02 0.8 -0.1 1.39 -0.25 1.79 c -0.12 0.32 -0.14 0.48 -0.11 0.66 c 0.05 0.33 0.16 0.41 0.41 0.32 c 0.37 -0.18 0.3 0.2 0.3 0.41 c -0.01 0.44 -0.03 0.53 -0.16 0.73 c -0.08 0.12 -0.15 0.3 -0.15 0.39 c 0 0.19 0.13 0.52 0.24 0.57 c 0.14 0.08 1.5 0.66 1.54 0.02 c 0.02 -0.2 -0.33 -0.61 -0.12 -0.73 c 0.36 -0.2 0.39 -0.21 0.46 -0.11 c 0.1 0.19 0.09 0.42 0.23 0.55 c 0.14 0.13 0.18 0.14 0.51 0.11 l 0.36 -0.04 l -0.04 0.24 c -0.03 0.18 -0.1 0.28 -0.29 0.44 c -0.21 0.18 -0.28 0.2 -0.46 0.18 c -0.2 -0.02 -0.59 0.14 -0.59 0.25 c 0 0.03 0.5 0.08 0.63 0.13 c 0.39 0.14 -0.05 0.11 0.02 0.24 c 0.31 0.56 -1.43 1.56 -1.3 1.65 c 0.05 0.02 0.54 0.36 0.83 0.42 c 0.47 0.01 1.93 0.3 2.18 -0.23 c 0.08 -0.17 0.69 -0.89 0.86 -0.89 c 0.18 0 -0.43 0.89 -0.75 1.22 c -0.35 0.5 -0.83 0.35 -1.39 0.36 c -0.51 0.03 -0.95 0.06 -1.41 -0.15 c -0.2 -0.09 -0.38 -0.22 -0.43 -0.3 c -0.16 -0.28 -0.37 -0.24 -0.59 0.12 c -0.2 0.32 -0.61 0.83 -0.76 0.93 c -0.09 0.05 -0.26 0.18 -0.39 0.28 c -0.29 0.21 -0.55 0.23 -0.92 0.06 m -1.38 -1.98 c -0.16 -0.15 0.76 -0.26 0.99 -0.35 c 0.38 -0.32 0.17 -1.02 -0.19 -1.22 c -0.43 -0.21 0.08 -0.36 0.18 -0.58 c 0.11 -0.23 0.29 -0.36 0.54 -0.36 c 0.18 0 0.2 0.02 0.2 0.16 c 0 0.18 -0.14 0.31 -0.39 0.37 c -0.45 0.11 -0.32 0.41 -0.06 0.52 c 0.17 0.07 0.27 0.14 0.27 0.2 c -0.01 0.3 0.14 0.75 -0.06 0.95 c -0.2 0.12 -0.38 0.15 -0.46 0.33 c -0.11 0.25 -0.84 0.15 -1.02 -0.02 m -0.64 -0.7 c -0.39 -0.29 -0.72 -0.54 -1.1 -0.74 c -0.21 -0.11 -0.39 -0.66 -0.39 -0.77 c -0.07 -2.11 0.16 0.04 0.6 0.36 c 0.2 0.17 0.53 0.26 0.64 0.5 c 0.12 0.27 1.03 0.74 0.9 1.38 c 0 0.14 -0.48 -0.68 -0.65 -0.74 m 8.75 -0.11 c -0.02 -0.03 -0.02 -0.23 0 -0.45 c 0.04 -0.32 0.07 -0.43 0.22 -0.59 c 0.43 -0.54 -0.7 -0.73 -0.1 -0.98 c 0.15 -0.06 0.35 -0.19 0.45 -0.3 c 0.24 -0.25 0.38 -0.21 0.33 0.1 c -0.02 0.13 -0.05 0.41 -0.07 0.64 c -0.02 0.23 -0.1 0.56 -0.18 0.75 c -0.08 0.18 -0.14 0.39 -0.14 0.47 c 0 0.27 -0.39 0.55 -0.51 0.36 m -2.36 -0.29 c -0.3 -0.09 0.02 -0.27 0.3 -0.29 c 0.3 -0.03 0.48 0.03 0.48 0.15 c -0.11 0.24 -0.61 0.19 -0.78 0.14 m 0.83 -1.27 c 0.09 -0.02 0.29 -0.08 0.44 -0.14 c 0.38 -0.14 0.74 -0.14 0.79 0 c 0.04 0.12 -0.02 0.38 -0.11 0.49 c -0.08 0.09 -0.54 0.28 -0.68 0.28 c -0.25 -0.11 -0.79 -0.55 -0.44 -0.63 m -8.96 -0.7 c -0.16 -0.3 -0.34 -0.23 -0.66 -0.23 c -0.58 -0.01 -1.21 -0.38 -1.25 -0.64 c -0.02 -0.18 -0.21 -1.87 0.36 -0.26 c 0.26 0.12 0.2 0.31 0.44 0.49 c 0.19 0.07 0.69 0.05 0.95 -0.04 c 0.13 -0.04 0.31 -0.08 0.39 -0.08 c 0.37 0 0.6 0.55 0.36 0.83 c -0.19 0.23 -0.38 0.2 -0.58 -0.08 m 7.27 -0.98 c -0.11 -0.18 -0.13 -0.62 -0.05 -1.01 c 0.04 -0.19 0.02 -0.24 -0.07 -0.29 c -0.15 -0.07 -0.25 -0.01 -0.37 0.22 c -0.08 0.15 -0.13 0.18 -0.31 0.2 c -0.25 0.02 -0.59 -0.12 -0.59 -0.24 c 0 -0.17 0.13 -0.29 0.36 -0.36 c 0.3 -0.08 1.22 -0.16 0.02 -0.21 c -0.39 -0.02 -0.69 -0.12 -0.75 -0.28 c -0.09 -0.22 -0.01 -0.31 0.35 -0.41 c 0.53 -0.14 0.79 -0.08 1.12 0.27 c 0.39 0.41 0.67 0.87 0.72 1.17 c 0.11 0.76 0.11 0.8 -0.03 0.96 c -0.16 0.2 -0.27 0.19 -0.39 -0.02 m -8.25 -0.19 c -0.13 -0.06 -0.45 -0.43 -0.44 -0.54 c 0.02 -0.13 0.35 0.16 0.63 0.1 c 0.34 0.02 0.48 -0.4 0.75 -0.41 c 0.2 0 0.2 0.23 -0.02 0.38 c -0.34 0.32 -0.53 0.66 -0.93 0.46 m -0.74 -0.41 c -0.19 -0.07 -0.18 -0.31 0.02 -0.39 c 0.19 -0.08 0.45 0.06 0.45 0.25 c 0 0.18 -0.18 0.24 -0.46 0.14 m 2.77 -0.52 c -0.16 -0.32 0.19 -0.62 0.39 -0.35 c 0.18 0.24 0.09 0.48 -0.19 0.48 c -0.09 0 -0.16 -0.05 -0.21 -0.14 m 1.53 -0.3 c -1.74 -0.31 -0.21 -1.18 -0.18 -1.78 l -0.37 -0.02 c -0.63 -0.06 -0.78 0.63 -1.3 0.91 c -0.08 0.04 -0.14 0.14 -0.17 0.25 c -0.02 0.11 -0.09 0.25 -0.15 0.32 c -0.12 0.13 -0.36 1.01 -0.45 0.91 c -0.15 -0.18 0.13 -1.29 0.33 -1.4 c 0.1 -0.05 0.36 -0.29 0.57 -0.52 c 0.21 -0.23 0.46 -0.43 0.54 -0.45 c 0.09 -0.02 0.18 -0.11 0.23 -0.22 c 0.49 -0.6 0.71 -0.11 0.95 -0.05 c 0.47 0.12 0.4 0.67 0.03 0.76 c -0.12 0.02 -0.17 0.08 -0.2 0.2 c -0.07 0.34 -0.05 0.43 0.16 0.52 c 0.27 0.13 0.82 0.57 0.88 0.7 c 0.06 0.16 0.11 0.38 -0.07 0.38 c -0.3 -0.07 -0.53 -0.51 -0.8 -0.51"/></svg>