<svg xmlns="http://www.w3.org/2000/svg" viewBox="0 0 22 22"><path d="m 2.79 5.77 c -7.78 8.79 3.73 18.1 10.48 15.8 c 6.75 -2.29 11.28 -8.74 6.87 -14.4 c -4.41 -5.66 -8.73 -11.1 -16.52 -2.33" style="fill:#ff4500"/><path d="m 6.23 16.7 v -0.92 l 0.2 -0.2 c 0.11 -0.11 0.43 -0.34 0.71 -0.5 c 0.85 -0.51 2.27 -1.47 2.43 -1.64 c 0.38 -0.39 0.44 -0.15 0.44 1.63 v 1.46 l -0.46 0.12 c -0.25 0.06 -0.56 0.16 -0.68 0.22 c -0.12 0.06 -0.37 0.14 -0.56 0.18 c -0.19 0.04 -0.41 0.11 -0.5 0.16 c -0.09 0.05 -0.29 0.12 -0.43 0.16 c -0.14 0.04 -0.3 0.11 -0.34 0.16 c -0.05 0.07 -0.2 0.09 -0.45 0.09 h -0.37 m 4.48 -0.2 c 0 -0.14 -0.06 -0.25 -0.21 -0.39 c -0.11 -0.11 -0.24 -0.26 -0.28 -0.33 c -0.07 -0.12 -0.05 -0.14 0.15 -0.21 c 0.12 -0.04 0.25 -0.13 0.29 -0.2 c 0.04 -0.07 0.06 -0.57 0.05 -1.3 c -0.01 -0.64 0.01 -1.22 0.03 -1.28 c 0.09 -0.21 0.42 -0.21 0.51 0 c 0.03 0.06 0.04 0.63 0.04 1.28 c -0.01 0.72 0.02 1.22 0.05 1.3 c 0.04 0.07 0.17 0.16 0.29 0.2 c 0.2 0.07 0.21 0.09 0.15 0.21 c -0.04 0.07 -0.17 0.22 -0.29 0.33 c -0.15 0.14 -0.21 0.25 -0.21 0.39 c 0 0.19 -0.01 0.2 -0.29 0.2 c -0.27 0 -0.28 0 -0.28 -0.2 m 4.23 0.1 c -0.04 -0.05 -0.2 -0.12 -0.34 -0.16 c -0.14 -0.04 -0.34 -0.11 -0.43 -0.16 c -0.09 -0.05 -0.32 -0.13 -0.5 -0.16 c -0.19 -0.04 -0.44 -0.12 -0.56 -0.18 c -0.13 -0.06 -0.43 -0.16 -0.68 -0.22 l -0.46 -0.12 v -1.46 c 0 -1.78 0.07 -2 0.44 -1.63 c 0.16 0.17 1.58 1.13 2.43 1.64 c 0.28 0.17 0.6 0.39 0.71 0.5 l 0.2 0.2 v 1.83 h -0.37 c -0.25 0 -0.39 -0.03 -0.45 -0.09 m -5.07 -4.84 c -0.02 -0.05 -0.04 -1.22 -0.04 -2.6 c 0 -2.7 0.03 -2.99 0.35 -3.55 c 0.08 -0.14 0.15 -0.35 0.15 -0.46 c 0 -0.12 0.07 -0.32 0.15 -0.46 c 0.14 -0.24 0.15 -0.37 0.22 -1.72 c 0.07 -1.43 0.11 -1.64 0.29 -1.64 c 0.19 0 0.23 0.21 0.3 1.64 c 0.07 1.35 0.08 1.48 0.22 1.72 c 0.08 0.14 0.15 0.35 0.15 0.46 c 0 0.11 0.07 0.32 0.15 0.46 c 0.32 0.55 0.35 0.84 0.35 3.55 c 0 1.38 -0.02 2.55 -0.04 2.6 c -0.03 0.09 -0.19 0.1 -1.13 0.1 c -0.93 0 -1.09 -0.02 -1.13 -0.1" style="fill:#fff"/></svg>