<svg xmlns="http://www.w3.org/2000/svg" viewBox="0 0 22 22"><path d="m 0.23 13.53 c 1.03 8.86 12.96 11.23 18.49 4.91 c 4.84 -4.7 4 -13.69 -1.61 -16.77 c -6.43 -4.12 -16.2 0.98 -17 9.18 c -0.09 0.9 -0.04 1.81 0.14 2.68" style="fill:#4581b3"/><path d="m 13.3 5.83 h 2.78 c 0.68 0 1.23 0.58 1.23 1.3 v 2.52 c 0 0.72 -0.55 1.3 -1.23 1.3 h -2.78 c -0.68 0 -1.24 -0.59 -1.24 -1.3 v -2.52 c 0 -0.72 0.55 -1.3 1.24 -1.3" style="fill:#00bfff"/><path d="m 6.45 8.5 h 5.51 c 0.68 0 1.23 0.59 1.23 1.3 v 5.13 c 0 0.72 -0.55 1.3 -1.23 1.3 h -5.51 c -0.68 0 -1.23 -0.58 -1.23 -1.3 v -5.13 c 0 -0.72 0.55 -1.3 1.23 -1.3" style="fill:#b0c3de"/><path d="m 6.95 9.64 c 0 0.27 -0.22 0.5 -0.49 0.5 c -0.27 0 -0.49 -0.22 -0.49 -0.5 c 0 -0.27 0.22 -0.5 0.49 -0.5 c 0.27 0 0.49 0.22 0.49 0.5" style="fill:#fff"/><path d="m 8.36 9.68 c 0 0.27 -0.22 0.5 -0.49 0.5 c -0.27 0 -0.49 -0.22 -0.49 -0.5 c 0 -0.27 0.22 -0.5 0.49 -0.5 c 0.27 0 0.49 0.22 0.49 0.5" style="fill:#fffafa"/><path d="m 9.69 9.68 c 0 0.27 -0.22 0.5 -0.49 0.5 c -0.27 0 -0.49 -0.22 -0.49 -0.5 c 0 -0.27 0.22 -0.5 0.49 -0.5 c 0.27 0 0.49 0.22 0.49 0.5" style="fill:#ffe4e0"/><g style="fill:#eff8ff"><path d="m 13.65 6.89 c 0 0.23 -0.18 0.41 -0.4 0.41 c -0.22 0 -0.4 -0.19 -0.4 -0.41 c 0 -0.23 0.18 -0.41 0.4 -0.41 c 0.22 0 0.4 0.18 0.4 0.41"/><path d="m 14.84 6.89 c 0 0.23 -0.18 0.41 -0.4 0.41 c -0.22 0 -0.4 -0.19 -0.4 -0.41 c 0 -0.23 0.18 -0.41 0.4 -0.41 c 0.22 0 0.4 0.18 0.4 0.41"/></g></svg>