<svg xmlns="http://www.w3.org/2000/svg" viewBox="0 0 22 22"><path d="m 21.87 11.1 c 1.65 14.52 -21.99 14.31 -21.72 -0.26 c -0.78 -13.55 23 -14.77 21.72 0.26" style="fill:#f4f4f4"/><path d="m 4.49 7.96 h 13.34 v 7.15 h -13.34" style="fill:#090605"/><g style="fill:#fff"><path d="m 6.47 12.77 c -0.07 -0.05 -0.1 -0.18 -0.14 -0.57 c -0.06 -0.63 0.01 -1.89 0.12 -1.98 c 0.05 -0.05 0.41 -0.07 1.64 -0.08 c 1.54 -0.02 1.58 -0.02 1.71 0.09 c 0.31 0.23 0.44 0.88 0.38 1.96 l -0.04 0.65 c -0.53 -0.05 -0.72 0.23 -0.73 -0.33 c 0 -0.5 -0.09 -1.47 -0.14 -1.58 c -0.06 -0.11 -0.21 -0.16 -0.35 -0.12 c -0.19 0.06 -0.25 0.33 -0.28 1.21 l -0.03 0.82 c -0.21 -0.02 -0.76 0.09 -0.7 -0.14 c -0.03 -0.06 -0.07 -0.5 -0.09 -0.99 c -0.1 -0.5 0.25 -0.89 -0.31 -0.86 c -0.48 -0.05 -0.29 0.54 -0.3 0.89 c -0.02 0.54 -0.05 0.93 -0.09 0.99 c -0.18 0.17 -0.43 0.14 -0.66 0.04"/><path d="m 11.56 12.89 c -0.46 -0.12 -0.8 -0.38 -0.93 -0.7 c -0.13 -0.33 -0.12 -1.07 0.02 -1.4 c 0.19 -0.45 0.61 -0.7 1.16 -0.7 c 0.68 0 1.04 0.25 1.24 0.87 c 0.18 0.55 0.09 1.06 -0.25 1.5 c -0.25 0.32 -0.86 0.53 -1.23 0.43 m 0.57 -0.84 c 0.18 -0.21 0.23 -0.62 0.12 -0.89 c -0.18 -0.42 -0.64 -0.46 -0.84 -0.07 c -0.1 0.19 -0.07 0.71 0.05 0.88 c 0.18 0.25 0.5 0.29 0.68 0.09"/><path d="m 15.36 12.84 c -0.11 -0.02 -0.44 -0.02 -0.74 0 c -0.63 0.02 -0.82 -0.04 -1.04 -0.32 c -0.18 -0.23 -0.21 -0.64 -0.07 -0.96 c 0.13 -0.29 0.43 -0.51 0.73 -0.55 c 0.42 -0.05 0.52 0.09 0.5 -0.15 c -0.01 -0.13 -0.23 -0.18 -0.55 -0.11 c -0.28 0.06 -0.3 0.06 -0.39 -0.05 c -0.17 -0.22 -0.1 -0.5 0.16 -0.59 c 0.19 -0.07 0.89 -0.07 1.12 0 c 0.23 0.06 0.41 0.26 0.51 0.54 c 0.04 0.12 0.11 0.53 0.15 0.91 c 0.04 0.38 0.09 0.78 0.1 0.9 c 0.02 0.18 0.01 0.24 -0.06 0.3 c -0.18 0.11 -0.3 0.11 -0.43 0.09 m -0.58 -0.79 c 0.25 -0.24 0.06 -0.46 -0.3 -0.34 c -0.21 0.07 -0.27 0.21 -0.15 0.35 c 0.11 0.13 0.31 0.12 0.45 -0.01"/></g><g style="fill:#ef0306"><path d="m 15.93 5.55 h 1.11 v 3.91 h -1.11"/><path d="m 18.44 6.96 v 1.11 h -3.91 v -1.11"/></g></svg>