<svg xmlns="http://www.w3.org/2000/svg" viewBox="0 0 22 22"><path d="m 2.79 5.67 c -7.78 8.87 3.74 18.25 10.48 15.95 c 6.75 -2.31 11.28 -8.82 6.87 -14.53 c -4.41 -5.71 -8.74 -11.22 -16.52 -2.35" style="fill:#37445f"/><path d="m 8.85 17.82 c -1.49 -0.89 -2.3 -2.25 -2.41 -4 c -0.04 -0.31 -0.09 -0.5 0.12 -0.72 c 0.24 -0.25 0.81 -0.74 0.89 -0.74 c 0.09 0 0.09 0.05 0.01 0.44 c -0.09 0.43 0.55 0.79 0.84 0.99 c 0.07 0.05 0.24 0.28 0.37 0.52 c 0.46 0.85 1.16 1.54 1.93 1.91 c 0.38 0.25 0.79 0.19 1.23 0.19 c 0.97 0 1.28 -0.06 1.95 -0.4 c 0.76 -0.38 1.26 -0.98 1.66 -1.98 c 0.09 -0.24 0.2 -0.66 0.21 -0.73 c 0.36 -1.78 -1.77 -3.81 -1.71 -3.75 c 0.02 0.02 2.21 0.43 2.59 3.78 c 0.09 0.78 -0.5 2.72 -1.17 3.55 c -0.53 0.65 -1.93 1.28 -2.83 1.49 c -1.29 0.26 -2.58 0.16 -3.7 -0.5" style="fill:#c2e7ed"/><path d="m 8.17 13.57 c -0.2 -0.19 -0.38 -0.34 -0.4 -0.34 c -0.57 -0.58 0.14 -1.52 0.28 -1.69 c 0.19 -0.29 0.46 -0.73 0.6 -0.98 c 0.14 -0.25 0.35 -0.57 0.47 -0.7 c 0.23 -0.26 0.59 -0.45 0.73 -0.4 c 0.11 0.04 0.34 0.57 0.38 0.87 c 0.05 0.31 -0.09 0.54 -0.6 1.04 c -0.82 0.8 -0.79 0.92 -0.32 1.07 c 0.22 0.07 0.4 0.08 1 0.06 c 0.81 -0.03 1.18 -0.1 1.32 -0.26 c 0.05 -0.06 0.15 -0.37 0.23 -0.79 c 0.2 -1 0.37 -1.19 0.62 -0.69 c 0.08 0.16 0.15 0.44 0.19 0.76 c 0.07 0.59 0.13 0.71 0.33 0.79 c 0.21 0.08 0.93 0.08 1.03 -0.01 c 0.11 -0.09 0.11 -0.13 -0.09 -0.35 c -0.38 -0.41 -1.05 -2.09 -0.84 -2.09 c 0.11 0 0.34 0.21 0.57 0.53 c 0.46 0.65 1.21 1.37 1.67 1.56 c 0.14 0.11 0.37 0.38 0.53 0.73 c -0.19 0.28 -1.17 0.29 -1.59 0.32 c -0.66 0.05 -1.84 0.11 -2.63 0.14 c -1.08 -0.04 -2.98 0.41 -3.47 0.44" style="fill:#ffdeac"/><path d="m 11 16.22 c -0.3 -0.09 -0.52 -0.21 -1.04 -0.61 c -0.48 -0.36 -0.68 -0.57 -0.57 -0.57 c 0.05 0 0.13 -0.11 0.2 -0.3 c 0.15 -0.37 0.25 -0.53 0.61 -0.92 c 0.55 -0.6 0.07 -0.65 0.27 -0.61 c 0.33 0 2.32 -0.09 2.83 -0.13 c -0.02 -0.01 -0.15 0.02 -0.16 0.41 c 0 0.12 -0.04 0.45 -0.08 0.73 c -0.15 1 -0.08 1.31 0.37 1.58 c 0.23 0.14 0.21 0.16 -0.39 0.31 c -0.56 0.14 -1.68 0.19 -2.05 0.08" style="fill:#8dc896"/><path d="m 11.25 9.84 c -0.13 -0.06 -0.25 -0.16 -0.28 -0.21 c -0.09 -0.16 -0.02 -0.44 0.18 -0.74 c 0.42 -0.63 0.61 -1.17 0.61 -1.77 c 0 -0.41 0.04 -0.48 0.36 -0.84 c 0.13 -0.14 0.3 -0.34 0.38 -0.44 c 0.35 -0.46 0.68 0.27 0.63 1.59 c -0.03 0.79 -0.17 0.91 -0.48 0.91 c -0.39 0 -0.52 0.22 -0.56 0.95 c -0.02 0.39 -0.04 0.45 -0.16 0.55 c -0.18 0.14 -0.41 0.15 -0.7 0" style="fill:#ffdeac"/><path d="m 10.41 12.26 c 0 -0.22 -0.21 -0.8 -0.36 -0.96 l -0.11 -0.12 l 0.13 -0.17 c 0.27 -0.37 0.29 -0.76 0.05 -1.25 c -0.13 -0.26 -0.13 -0.26 -0.01 -0.26 c 0.27 -0.03 0.49 -0.08 0.77 -0.14 v 0.15 c 0 0.39 0.78 0.68 1.12 0.41 c 0.08 -0.06 0.14 -0.16 0.14 -0.21 c 0 -0.1 0.01 -0.1 0.16 -0.02 c 0.09 0.04 0.28 0.1 0.43 0.11 c 0.14 0.02 0.27 0.05 0.28 0.09 c 0.01 0.03 0.04 0.21 0.08 0.39 c 0.39 0.79 0.54 1.31 0.39 1.89 c -0.04 0.18 -0.09 0.19 -0.39 0.07 c -0.18 -0.07 -0.21 -0.11 -0.24 -0.27 c -0.25 -1.4 -0.41 -1.71 -0.73 -1.42 c -0.09 0.09 -0.16 0.29 -0.29 0.82 c -0.11 0.47 -0.21 0.75 -0.28 0.83 c -0.12 0.14 -0.49 0.23 -0.91 0.23 c -0.23 0 -0.23 0 -0.23 -0.18" style="fill:#8dc896"/><g style="fill:#78a6be"><path d="m 10.18 7.81 c -0.06 -0.03 -0.27 -0.09 -0.48 -0.14 c -0.55 -0.13 -0.7 -0.26 -0.7 -0.64 c 0 -0.26 0.04 -0.38 0.24 -0.66 c 0.13 -0.19 0.24 -0.38 0.24 -0.42 c 0 -0.15 0.15 -0.07 0.28 0.15 c 0.09 0.15 0.14 0.4 0.17 0.74 c 0.03 0.47 0.05 0.54 0.24 0.74 c 0.11 0.12 0.21 0.23 0.21 0.25 c 0 0.04 -0.1 0.03 -0.21 -0.03"/><path d="m 10.98 5.25 c 0.04 -0.03 0.08 -0.05 0.09 -0.04 c 0.02 0.01 0.37 0.08 0.79 0.14 c 0.42 0.07 0.79 0.14 0.81 0.16 c 0.05 0.05 -0.77 0.82 -0.88 0.82 c -0.25 -0.1 -0.76 -0.79 -0.82 -1.09"/></g><path d="m 6.35 13.15 c 0 -0.08 0.09 -0.63 0.14 -0.8 c 0.21 -0.79 0.66 -1.53 1.29 -2.12 c 0.51 -0.48 0.83 -0.69 1.9 -1.27 c 0.27 -0.14 0.54 -0.32 0.62 -0.38 c 0.18 -0.16 0.26 -0.35 0.23 -0.57 c -0.02 -0.19 -0.08 -0.3 -0.28 -0.58 c -0.27 -0.36 -0.27 -0.38 -0.28 -0.87 c -0.01 -0.52 -0.05 -0.68 -0.25 -0.95 c -0.27 -0.36 -0.48 -0.48 -0.93 -0.53 c -2.2 0.33 -2.39 2.41 -0.66 2.98 c 0.19 0.11 -1.93 0.36 -1.66 -1.96 c 0.07 -0.57 0.45 -1.16 0.95 -1.41 c 0.41 -0.2 0.97 -0.36 1.45 -0.36 c 0.47 0 0.82 0.08 1.22 0.27 c 0.6 0.29 0.77 0.84 1.13 1.37 c 0.11 0.16 0.24 0.33 0.28 0.37 c 0.41 0.21 0.24 0.01 0.16 0.74 c -0.04 0.64 -0.11 0.86 -0.52 1.61 c -0.15 0.27 -0.28 0.54 -0.29 0.6 c -0.02 0.11 0.02 0.09 -0.52 0.18 c -0.15 0.03 -0.28 0.05 -0.29 0.06 c -0.01 0.01 -0.07 -0.02 -0.13 -0.08 c -0.06 -0.05 -0.13 -0.09 -0.14 -0.09 c -0.1 0 -0.4 0.15 -0.55 0.27 c -0.23 0.2 -0.34 0.34 -0.73 1 c -0.4 0.67 -0.66 1.07 -0.8 1.22 c -0.05 0.06 -0.27 0.35 -0.44 0.46 c -0.35 0.23 -0.73 0.49 -0.86 0.74 c -0.04 0.08 -0.07 0.13 -0.07 0.11" style="fill:#8ebfd0"/><path d="m 11.34 6.74 c 0 0.37 -0.26 0.67 -0.58 0.67 c -0.32 0 -0.58 -0.3 -0.58 -0.67 c 0 -0.37 0.26 -0.68 0.58 -0.68 c 0.32 0 0.58 0.3 0.58 0.68" style="fill:#a8d6e0"/><path d="m 10.99 6.74 c 0 0.16 -0.12 0.29 -0.26 0.29 c -0.14 0 -0.26 -0.13 -0.26 -0.29 c 0 -0.16 0.11 -0.29 0.26 -0.29 c 0.14 0 0.26 0.13 0.26 0.29" style="fill:#dfffff"/></svg>