<svg xmlns="http://www.w3.org/2000/svg" viewBox="0 0 22 22"><path d="m 11.21 21.88 c -2.27 -0.18 -4.93 -1.26 -6.77 -2.77 c -2.25 -1.83 -3.9 -4.64 -4.34 -7.41 c -0.53 -3.66 1.6 -7.59 4 -9.45 c 1.2 -0.91 2.8 -1.63 4.3 -1.95 c 3.89 -0.82 7.96 0.73 10.74 4.12 c 1.67 2.03 2.53 4.07 2.74 6.5 c 0.25 2.9 -0.89 6 -2.99 8.11 c -2.38 1.98 -4.84 3.05 -7.67 2.84" style="fill:#007c89"/><g style="fill:#fff"><path d="m 7.66 8.66 l 1.86 -1.33 v 7.58 l -1.86 -1.32 v -4.93"/><g style="fill-rule:evenodd"><path d="m 12.5 11.66 v -4.32 l 1.86 1.32 v 4.93 l -1.86 1.33 l -4.46 -6.51 l 1.5 -1.07 l 2.97 4.32"/><path d="m 13.79 16.1 c 0.28 -0.16 0.64 -0.06 0.81 0.22 c 0.16 0.29 0.06 0.65 -0.22 0.82 c -1.1 0.65 -2.35 0.96 -3.61 0.92 c -1.14 -0.04 -2.26 -0.38 -3.25 -0.98 c -0.28 -0.17 -0.37 -0.54 -0.2 -0.82 c 0.16 -0.29 0.53 -0.37 0.8 -0.21 c 0.81 0.5 1.73 0.77 2.68 0.81 c 1.04 0.04 2.07 -0.23 2.98 -0.76 m 2.22 -7.5 c -0.14 -0.3 -0.03 -0.66 0.26 -0.8 c 0.29 -0.15 0.64 -0.03 0.79 0.27 c 0.5 1.03 0.75 2.18 0.71 3.32 c -0.03 0.88 -0.22 1.73 -0.57 2.54 c -0.13 0.3 -0.48 0.45 -0.77 0.31 c -0.3 -0.13 -0.43 -0.49 -0.3 -0.79 c 0.29 -0.66 0.44 -1.38 0.47 -2.1 c 0.03 -0.95 -0.17 -1.89 -0.59 -2.74 m -7.43 -2.59 c -0.29 0.14 -0.64 0.02 -0.79 -0.29 c -0.14 -0.3 -0.02 -0.66 0.27 -0.8 c 0.98 -0.48 2.07 -0.72 3.16 -0.68 c 1.05 0.04 2.09 0.32 3 0.84 c 0.29 0.16 0.39 0.52 0.23 0.82 c -0.16 0.29 -0.52 0.4 -0.8 0.24 c -0.77 -0.43 -1.62 -0.66 -2.49 -0.7 c -0.9 -0.03 -1.8 0.16 -2.61 0.56 m -2.88 6.98 c 0.11 0.31 -0.06 0.65 -0.37 0.76 c -0.31 0.11 -0.64 -0.07 -0.75 -0.38 c -0.25 -0.78 -0.37 -1.61 -0.34 -2.43 c 0.04 -1.09 0.32 -2.16 0.84 -3.11 c 0.16 -0.29 0.52 -0.39 0.8 -0.23 c 0.28 0.16 0.39 0.53 0.23 0.82 c -0.43 0.79 -0.66 1.67 -0.7 2.57 c -0.02 0.68 0.07 1.36 0.28 2 m 10.38 -6.18 c -0.01 0.33 -0.29 0.59 -0.61 0.57 c -0.33 -0.01 -0.58 -0.29 -0.57 -0.62 c 0.01 -0.33 0.28 -0.59 0.61 -0.58 c 0.32 0.01 0.58 0.29 0.57 0.63 m -9.2 8.34 c -0.01 0.33 -0.29 0.59 -0.61 0.57 c -0.33 -0.01 -0.58 -0.29 -0.57 -0.62 c 0.01 -0.33 0.28 -0.59 0.61 -0.58 c 0.32 0.01 0.58 0.29 0.57 0.63 m 9.43 0.33 c 0.01 -0.33 -0.24 -0.61 -0.56 -0.63 c -0.32 -0.01 -0.6 0.25 -0.61 0.58 c -0.01 0.33 0.24 0.61 0.56 0.62 c 0.32 0.01 0.6 -0.25 0.61 -0.57 m -9 -8.96 c 0.01 -0.33 -0.24 -0.61 -0.57 -0.63 c -0.32 -0.01 -0.6 0.25 -0.61 0.58 c -0.01 0.33 0.25 0.61 0.57 0.62 c 0.32 0.01 0.6 -0.25 0.61 -0.57"/></g></g></svg>