<svg xmlns="http://www.w3.org/2000/svg" viewBox="0 0 22 22"><path d="m 0.34 10.95 c -1.5 -14.44 22.78 -14.34 21.45 0.38 c 1.07 13.84 -23.26 14.42 -21.45 -0.38" style="fill:#778799"/><path d="m 5.98 6.93 h 10.23 c 1.05 0 1.89 0.66 1.89 1.48 v 5.65 c 0 0.82 -0.84 1.48 -1.89 1.48 h -10.23 c -1.04 0 -1.89 -0.66 -1.89 -1.48 v -5.65 c 0 -0.82 0.85 -1.48 1.89 -1.48" style="fill:#3d3745"/><g style="fill:#a3a2a5"><path d="m 9.48 13.25 h 2.98 c 0.42 0 0.76 0.3 0.76 0.66 c 0 0.37 -0.34 0.66 -0.76 0.66 h -2.98 c -0.42 0 -0.76 -0.3 -0.76 -0.66 c 0 -0.37 0.34 -0.66 0.76 -0.66"/><path d="m 16.71 10.44 c 0 1.27 -1.04 2.3 -2.32 2.3 c -1.28 0 -2.31 -1.03 -2.31 -2.3 c 0 -1.28 1.04 -2.31 2.31 -2.31 c 1.28 0 2.32 1.03 2.32 2.31"/><path d="m 10.3 10.38 c 0 1.28 -1.04 2.31 -2.32 2.31 c -1.28 0 -2.31 -1.03 -2.31 -2.31 c 0 -1.27 1.04 -2.31 2.31 -2.31 c 1.28 0 2.32 1.04 2.32 2.31"/></g><g style="fill:#e36396"><path d="m 9.61 10.41 c 0 0.91 -0.73 1.64 -1.62 1.64 c -0.89 0 -1.62 -0.73 -1.62 -1.64 c 0 -0.91 0.73 -1.64 1.62 -1.64 c 0.89 0 1.62 0.74 1.62 1.64"/><path d="m 15.95 10.41 c 0 0.91 -0.72 1.64 -1.62 1.64 c -0.89 0 -1.62 -0.73 -1.62 -1.64 c 0 -0.91 0.72 -1.64 1.62 -1.64 c 0.89 0 1.62 0.74 1.62 1.64"/></g><path d="m 5.99 8.23 c 0 0.37 -0.3 0.66 -0.66 0.66 c -0.37 0 -0.67 -0.3 -0.67 -0.66 c 0 -0.37 0.3 -0.66 0.67 -0.66 c 0.37 0 0.66 0.3 0.66 0.66" style="fill:#3ccd80"/></svg>