<svg xmlns="http://www.w3.org/2000/svg" viewBox="0 0 22 22"><path d="m 0.25 13.51 c 1.36 8.88 13.48 11.26 18.83 4.92 c 4.71 -4.71 3.54 -13.73 -2.25 -16.82 c -6.63 -4.13 -16.3 0.98 -16.82 9.21 c -0.05 0.9 0.02 1.81 0.24 2.69" style="fill:#fc561f"/><path d="m 10.1 12.41 h -1.55 l 2.57 3.75 l 2.57 -3.75 h -1.54 v -2.39 h 1.54 l -2.57 -3.75 l -2.57 3.75 h 1.55 v 2.39 m 3.75 3.71 c 0.27 -0.16 0.63 -0.06 0.79 0.22 c 0.16 0.29 0.06 0.65 -0.21 0.82 c -1.07 0.64 -2.29 0.95 -3.52 0.91 c -1.12 -0.04 -2.2 -0.38 -3.17 -0.97 c -0.27 -0.17 -0.36 -0.54 -0.2 -0.82 c 0.16 -0.29 0.52 -0.38 0.79 -0.21 c 0.79 0.5 1.69 0.77 2.61 0.8 c 1.02 0.04 2.03 -0.22 2.91 -0.75 m 2.16 -7.43 c -0.14 -0.3 -0.03 -0.66 0.25 -0.8 c 0.29 -0.15 0.63 -0.03 0.77 0.27 c 0.49 1.02 0.73 2.16 0.69 3.3 c -0.03 0.87 -0.21 1.72 -0.55 2.52 c -0.13 0.3 -0.47 0.44 -0.76 0.31 c -0.29 -0.13 -0.43 -0.48 -0.3 -0.79 c 0.28 -0.66 0.43 -1.36 0.46 -2.08 c 0.03 -0.95 -0.17 -1.88 -0.57 -2.72 m -7.25 -2.57 c -0.29 0.14 -0.63 0.02 -0.77 -0.28 c -0.14 -0.3 -0.02 -0.66 0.27 -0.8 c 0.96 -0.48 2 -0.71 3.09 -0.67 c 1.03 0.04 2.04 0.32 2.94 0.83 c 0.27 0.16 0.38 0.52 0.23 0.81 c -0.15 0.29 -0.5 0.39 -0.78 0.24 c -0.75 -0.42 -1.58 -0.66 -2.43 -0.69 c -0.88 -0.03 -1.76 0.16 -2.55 0.55 m -2.81 6.92 c 0.1 0.31 -0.06 0.65 -0.36 0.75 c -0.3 0.11 -0.63 -0.07 -0.73 -0.38 c -0.25 -0.77 -0.36 -1.59 -0.34 -2.41 c 0.04 -1.08 0.31 -2.14 0.82 -3.09 c 0.15 -0.29 0.5 -0.39 0.78 -0.23 c 0.28 0.16 0.38 0.52 0.23 0.81 c -0.41 0.79 -0.65 1.66 -0.68 2.55 c -0.02 0.68 0.07 1.35 0.27 1.99 m 10.13 -6.13 c -0.01 0.33 -0.28 0.59 -0.59 0.57 c -0.32 -0.01 -0.57 -0.29 -0.55 -0.62 c 0.01 -0.33 0.27 -0.59 0.59 -0.57 c 0.32 0.01 0.56 0.29 0.55 0.62 m -8.98 8.27 c -0.01 0.33 -0.27 0.59 -0.59 0.57 c -0.32 -0.01 -0.57 -0.29 -0.55 -0.62 c 0.01 -0.33 0.27 -0.59 0.59 -0.57 c 0.32 0.01 0.57 0.29 0.55 0.62 m 9.2 0.33 c 0.01 -0.33 -0.24 -0.61 -0.55 -0.62 c -0.32 -0.01 -0.58 0.24 -0.59 0.57 c -0.01 0.33 0.23 0.61 0.55 0.62 c 0.32 0.01 0.58 -0.25 0.59 -0.57 m -8.79 -8.89 c 0.01 -0.33 -0.24 -0.61 -0.55 -0.62 c -0.32 -0.01 -0.59 0.25 -0.59 0.57 c -0.01 0.33 0.23 0.61 0.55 0.62 c 0.32 0.01 0.58 -0.25 0.59 -0.57" style="fill:#fff;fill-rule:evenodd"/></svg>