<svg xmlns="http://www.w3.org/2000/svg" viewBox="0 0 22 22"><path d="m 8.89 21.53 c -2 -0.86 -4.8 -2.12 -5 -2.28 c -0.15 -0.1 -0.41 -0.36 -0.57 -0.57 c -0.46 -0.6 -2.93 -4.91 -3 -5.3 c -0.1 -0.36 -0.06 -1.66 0.09 -2.84 c 0.34 -3.47 0.17 -3.39 0.63 -4.14 c 0.1 -0.2 1.08 -1.35 2.19 -2.55 c 2.12 -2.31 2.35 -2.5 3.25 -2.67 c 2.41 -0.42 3.94 -0.93 6.11 -1.06 c 1.93 0.82 4 1.69 5.83 2.72 c 0.29 0.24 0.71 0.88 1.66 2.5 c 1.94 3.32 1.79 2.96 1.77 4.12 c -0.2 1.8 -0.18 4.82 -0.81 6.1 c -0.21 0.4 -3.05 3.6 -3.95 4.45 c -0.45 0.43 -0.89 0.62 -1.93 0.83 c -1.05 0.39 -3.51 0.8 -4.36 0.95 c -0.48 0.11 -1.05 0.07 -1.85 -0.26" style="fill:#556c9e"/><path d="m 9.31 19.39 c -1.24 -0.81 -1.46 -0.89 -3.07 -1.23 c -1.62 -0.34 -1.91 -0.63 -2.24 -2.24 c -0.32 -1.57 -0.38 -1.71 -1.07 -2.75 c -0.82 -1.25 -0.94 -1.49 -0.95 -1.91 c -0.01 -0.48 0.2 -0.91 0.92 -2 c 0.71 -1.08 0.8 -1.29 1.09 -2.71 c 0.24 -1.19 0.49 -1.71 0.93 -1.97 c 0.17 -0.1 0.82 -0.28 1.45 -0.41 c 1.37 -0.27 1.61 -0.36 2.7 -1.08 c 1.8 -1.16 2.18 -1.16 3.94 0.03 c 0.82 0.55 1.36 0.77 2.37 0.98 c 0.88 0.18 1.6 0.4 1.89 0.59 c 0.33 0.21 0.57 0.77 0.82 1.9 c 0.3 1.38 0.5 1.87 1.13 2.76 c 0.65 0.92 0.82 1.31 0.82 1.84 c 0 0.49 -0.24 1.04 -0.81 1.85 c -0.67 0.96 -0.9 1.49 -1.11 2.58 c -0.21 1.12 -0.37 1.57 -0.68 1.9 c -0.32 0.34 -0.59 0.45 -1.87 0.73 c -1.27 0.27 -1.73 0.47 -2.83 1.21 c -0.89 0.6 -1.23 0.74 -1.8 0.74 c -0.42 0 -0.57 -0.07 -1.63 -0.76" style="fill:#002370"/><g style="fill:#fff"><path d="m 5.73 14.52 c -0.3 -0.09 -0.52 -0.22 -0.74 -0.45 c -0.51 -0.51 -0.65 -1.29 -0.42 -2.23 c 0.06 -0.25 0.11 -0.3 0.21 -0.2 c 0.13 0.12 0.17 0.32 0.21 0.91 c 0.02 0.3 0.05 0.63 0.08 0.72 c 0.11 0.44 0.41 0.65 1.02 0.74 c 0.35 0.05 0.45 0.09 0.58 0.22 c 0.19 0.2 0.04 0.3 -0.44 0.32 c -0.23 0.01 -0.36 0 -0.5 -0.05"/><path d="m 8.59 16.8 c -0.34 -0.02 -0.5 -0.04 -0.71 -0.11 c -0.8 -0.25 -1.66 -0.87 -2.06 -1.48 c -0.27 -0.41 -0.29 -0.52 -0.06 -0.52 c 0.19 0 0.27 0.06 0.67 0.47 c 0.57 0.58 1.05 0.88 1.71 1.06 c 0.26 0.07 0.38 0.08 1.06 0.11 c 0.77 0.03 0.91 0.05 1.14 0.16 c 0.2 0.1 0.18 0.18 -0.05 0.25 c -0.11 0.03 -1.02 0.1 -1.2 0.09 c -0.04 0 -0.26 -0.02 -0.5 -0.03"/><path d="m 8.57 15.46 c -0.62 -0.34 -1.96 -1.46 -2.26 -1.89 c -0.08 -0.12 -0.09 -0.16 -0.08 -0.28 c 0.02 -0.13 0.06 -0.2 0.14 -0.2 c 0.07 0 0.3 0.18 0.76 0.6 c 0.57 0.52 0.88 0.78 1.25 1.05 c 0.44 0.31 0.49 0.37 0.49 0.52 c 0 0.15 -0.05 0.29 -0.1 0.29 c -0.02 0 -0.11 -0.04 -0.2 -0.09"/><path d="m 7.41 13.74 c -0.04 -0.04 -0.08 -0.11 -0.08 -0.14 c 0 -0.04 0.06 -0.21 0.14 -0.4 c 0.23 -0.56 0.32 -0.98 0.4 -1.89 l 0.04 -0.42 h 0.18 c 0.22 0 0.23 0.02 0.26 0.36 c 0.04 0.43 -0.11 1.34 -0.31 1.87 c -0.1 0.27 -0.29 0.59 -0.37 0.65 c -0.1 0.07 -0.16 0.06 -0.26 -0.03"/><path d="m 5.63 13.77 c -0.16 -0.11 -0.21 -0.36 -0.12 -0.61 c 0.17 -0.49 0.9 -1.13 1.53 -1.34 c 0.39 -0.13 0.46 -0.14 0.55 -0.04 c 0.18 0.18 0.05 0.34 -0.43 0.54 c -0.52 0.21 -0.82 0.45 -1.04 0.83 c -0.05 0.1 -0.16 0.29 -0.23 0.41 c -0.07 0.13 -0.14 0.24 -0.16 0.25 c -0.02 0 -0.06 -0.01 -0.1 -0.04"/><path d="m 5.46 12.42 c -0.45 -0.46 -1.03 -2.16 -0.99 -2.88 c 0.03 -0.46 0.31 -1.17 0.55 -1.36 c 0.08 -0.06 0.09 -0.06 0.13 -0.01 c 0.06 0.08 0.05 0.45 -0.02 0.68 c -0.1 0.32 -0.1 0.36 -0.1 0.8 c 0 0.63 0.07 0.89 0.52 1.88 c 0.29 0.63 0.32 0.74 0.27 0.86 c -0.07 0.18 -0.2 0.2 -0.35 0.04"/><path d="m 5.3 10.59 c -0.1 -0.23 -0.11 -0.32 -0.03 -0.46 c 0.19 -0.36 0.71 -1.1 1 -1.42 c 0.15 -0.16 0.18 -0.18 0.29 -0.18 c 0.06 0 0.15 0.02 0.19 0.05 c 0.14 0.1 0.09 0.2 -0.3 0.73 c -0.2 0.28 -0.52 0.71 -0.7 0.96 c -0.18 0.25 -0.34 0.46 -0.36 0.46 c -0.02 0 -0.06 -0.06 -0.1 -0.14"/><path d="m 5.52 9.14 c -0.08 -0.13 -0.14 -0.41 -0.14 -0.66 c 0 -0.63 0.33 -1.31 0.91 -1.89 c 0.6 -0.6 1.49 -1.02 2.36 -1.11 c 0.25 -0.03 0.32 0.01 0.32 0.16 c 0 0.21 -0.08 0.27 -0.57 0.39 c -0.4 0.1 -0.61 0.18 -0.95 0.35 c -0.38 0.2 -0.65 0.4 -0.93 0.7 c -0.39 0.41 -0.54 0.73 -0.62 1.41 c -0.05 0.42 -0.06 0.45 -0.15 0.57 c -0.1 0.14 -0.17 0.16 -0.23 0.08"/><path d="m 7.86 9.95 c -0.1 -0.11 -0.16 -0.21 -0.27 -0.5 c -0.21 -0.56 -0.55 -0.91 -1.1 -1.13 c -0.33 -0.13 -0.43 -0.18 -0.43 -0.22 c 0 -0.02 0.06 -0.12 0.13 -0.21 l 0.13 -0.18 l 0.24 0.08 c 0.44 0.14 0.67 0.27 0.91 0.52 c 0.31 0.33 0.58 0.81 0.69 1.24 c 0.08 0.32 0.05 0.44 -0.13 0.47 c -0.08 0.01 -0.11 0 -0.18 -0.07"/><path d="m 7.43 8 c -0.04 -0.03 -0.09 -0.09 -0.12 -0.14 c -0.04 -0.08 -0.04 -0.09 0.02 -0.17 c 0.09 -0.11 0.4 -0.34 0.81 -0.61 c 1 -0.66 1.58 -0.92 2 -0.88 c 0.17 0.01 0.4 0.12 0.4 0.18 c 0 0.02 -0.14 0.09 -0.31 0.16 c -0.76 0.33 -1.34 0.65 -2.04 1.11 c -0.47 0.31 -0.62 0.4 -0.67 0.4 c -0.02 0 -0.06 -0.02 -0.1 -0.05"/><path d="m 12.93 10.54 c -1.68 -0.44 -3.05 -1.5 -3.64 -2.79 c -0.16 -0.36 -0.16 -0.42 0.01 -0.54 c 0.07 -0.05 0.15 -0.09 0.18 -0.09 c 0.04 0.01 0.15 0.18 0.43 0.68 c 0.42 0.76 1.12 1.39 2.04 1.83 c 0.52 0.25 0.86 0.37 1.22 0.45 c 0.45 0.09 0.54 0.18 0.41 0.43 c -0.06 0.12 -0.08 0.13 -0.18 0.13 c -0.07 0 -0.28 -0.04 -0.47 -0.09"/><path d="m 12.1 6.65 c -0.07 -0.02 -0.29 -0.1 -0.48 -0.17 c -0.4 -0.14 -0.65 -0.21 -1.23 -0.34 c -0.48 -0.1 -0.54 -0.13 -0.54 -0.29 c 0 -0.32 0.24 -0.33 1.26 -0.07 c 0.73 0.19 1.17 0.37 1.27 0.51 c 0.06 0.08 0.07 0.25 0.02 0.34 c -0.04 0.07 -0.12 0.07 -0.3 0.02"/><path d="m 9.14 6.25 c -0.09 -0.06 -0.05 -0.39 0.07 -0.65 c 0.45 -0.99 1.41 -1.48 2.37 -1.22 c 0.2 0.05 0.39 0.16 0.68 0.38 c 0.42 0.31 0.52 0.51 0.3 0.58 c -0.16 0.04 -0.3 0 -0.61 -0.21 c -0.35 -0.23 -0.57 -0.32 -0.85 -0.32 c -0.34 0 -0.6 0.1 -0.91 0.34 c -0.21 0.17 -0.29 0.26 -0.51 0.64 c -0.19 0.32 -0.27 0.42 -0.41 0.47 c -0.06 0.02 -0.1 0.02 -0.14 -0.01"/><path d="m 16.18 7.58 c -0.07 -0.03 -0.29 -0.23 -0.5 -0.43 c -0.5 -0.51 -1 -0.84 -1.58 -1.04 c -0.19 -0.06 -0.32 -0.08 -0.91 -0.11 c -1.02 -0.05 -1.5 -0.14 -1.52 -0.29 c -0.02 -0.13 0.51 -0.21 1.39 -0.21 c 0.96 0 1.5 0.15 2.22 0.63 c 0.5 0.33 1.28 1.21 1.25 1.43 c -0.02 0.1 -0.18 0.11 -0.36 0.03"/><path d="m 11.42 9.15 c -0.07 -0.05 -0.13 -0.11 -0.13 -0.13 c 0 -0.02 0.13 -0.18 0.29 -0.35 c 0.64 -0.72 0.9 -1.23 0.98 -1.95 c 0.04 -0.39 0.05 -0.43 0.13 -0.52 c 0.16 -0.18 0.36 -0.1 0.43 0.17 c 0.07 0.29 -0.1 0.97 -0.39 1.57 c -0.31 0.61 -0.91 1.31 -1.13 1.31 c -0.02 0 -0.1 -0.04 -0.17 -0.09"/><path d="m 7.96 10.68 c -0.05 -0.01 -0.21 -0.03 -0.34 -0.05 c -0.49 -0.07 -1.11 -0.31 -1.32 -0.52 c -0.11 -0.11 -0.12 -0.18 -0.04 -0.3 c 0.09 -0.14 0.16 -0.14 0.51 0.02 c 0.55 0.25 0.82 0.3 1.41 0.31 c 0.6 0 1.04 -0.09 1.79 -0.39 c 0.45 -0.18 0.58 -0.19 0.73 -0.06 c 0.1 0.09 0.1 0.09 0.05 0.17 c -0.23 0.36 -2.12 0.91 -2.78 0.82"/><path d="m 12.52 15.1 c -0.05 -0.07 -0.14 -0.24 -0.21 -0.37 c -0.33 -0.66 -0.82 -1.22 -1.45 -1.63 c -0.57 -0.38 -1.02 -0.59 -1.86 -0.84 c -0.53 -0.16 -0.66 -0.31 -0.44 -0.49 c 0.1 -0.08 0.26 -0.08 0.57 0 c 1.14 0.29 2.24 0.92 2.89 1.65 c 0.42 0.47 0.84 1.19 0.88 1.49 c 0.02 0.11 0.01 0.14 -0.08 0.23 c -0.13 0.13 -0.2 0.12 -0.31 -0.04"/><path d="m 11.45 12.65 c -0.09 -0.09 -0.09 -0.1 -0.05 -0.18 c 0.09 -0.17 0.61 -0.42 1.27 -0.6 c 0.73 -0.2 1.32 -0.26 1.8 -0.18 c 0.52 0.09 0.93 0.23 1.2 0.41 c 0.28 0.19 0.31 0.27 0.17 0.43 c -0.1 0.12 -0.15 0.12 -0.56 -0.07 c -0.48 -0.21 -0.68 -0.25 -1.28 -0.26 c -0.7 0 -1.11 0.08 -1.88 0.39 c -0.45 0.18 -0.55 0.19 -0.68 0.06"/><path d="m 13.85 11.44 c -0.05 -0.04 -0.06 -0.09 -0.06 -0.54 c 0 -0.27 0.02 -0.6 0.04 -0.73 c 0.18 -1.08 0.66 -1.87 0.95 -1.57 c 0.09 0.09 0.08 0.18 -0.08 0.5 c -0.25 0.52 -0.32 0.82 -0.41 1.7 c -0.03 0.26 -0.05 0.52 -0.07 0.56 c -0.03 0.13 -0.25 0.18 -0.38 0.09"/><path d="m 14.51 10.54 c -0.05 -0.09 -0.04 -0.24 0.02 -0.31 c 0.03 -0.04 0.21 -0.13 0.41 -0.22 c 0.19 -0.09 0.41 -0.2 0.49 -0.25 c 0.39 -0.27 0.67 -0.61 0.79 -0.94 c 0.08 -0.25 0.18 -0.33 0.3 -0.25 c 0.13 0.09 0.21 0.24 0.19 0.37 c -0.02 0.16 -0.23 0.55 -0.42 0.77 c -0.28 0.34 -0.76 0.64 -1.28 0.81 c -0.3 0.1 -0.45 0.1 -0.49 0.02"/><path d="m 15.68 9.21 c -0.05 -0.04 -0.4 -0.34 -0.77 -0.68 c -0.37 -0.33 -0.89 -0.77 -1.15 -0.96 c -0.26 -0.2 -0.49 -0.38 -0.52 -0.41 c -0.06 -0.07 -0.02 -0.25 0.07 -0.33 c 0.06 -0.06 0.09 -0.06 0.16 -0.04 c 0.19 0.07 0.97 0.64 1.44 1.05 c 0.36 0.32 0.95 0.91 1 1 c 0.04 0.08 0.04 0.11 -0.03 0.26 c -0.04 0.1 -0.08 0.17 -0.09 0.17 c 0 0 -0.05 -0.03 -0.1 -0.07"/><path d="m 17.32 10.67 c -0.12 -0.13 -0.21 -0.59 -0.21 -1.05 c 0 -0.46 -0.12 -0.8 -0.34 -1.01 c -0.17 -0.16 -0.34 -0.24 -0.69 -0.32 c -0.17 -0.04 -0.36 -0.09 -0.41 -0.11 c -0.14 -0.06 -0.29 -0.2 -0.29 -0.27 c 0 -0.09 0.18 -0.16 0.45 -0.18 c 0.67 -0.05 1.37 0.39 1.67 1.04 c 0.17 0.36 0.17 1.46 0.01 1.78 c -0.08 0.16 -0.12 0.19 -0.19 0.11"/><path d="m 16.92 14.1 c -0.05 -0.13 -0.04 -0.28 0.05 -0.54 c 0.19 -0.58 0.18 -1.34 -0.03 -1.93 c -0.06 -0.17 -0.21 -0.56 -0.35 -0.87 c -0.29 -0.66 -0.32 -0.84 -0.17 -0.93 c 0.08 -0.04 0.09 -0.04 0.17 0.02 c 0.32 0.23 0.75 1.14 0.96 2.02 c 0.09 0.38 0.11 0.98 0.05 1.29 c -0.06 0.29 -0.22 0.62 -0.39 0.84 c -0.15 0.18 -0.24 0.21 -0.29 0.08"/><path d="m 15.36 13.75 c -0.07 -0.04 -0.1 -0.09 -0.1 -0.14 c 0 -0.05 0.13 -0.24 0.34 -0.53 c 0.19 -0.25 0.5 -0.69 0.69 -0.98 c 0.19 -0.29 0.36 -0.54 0.38 -0.54 c 0.07 -0.05 0.22 0.22 0.22 0.39 c 0 0.34 -1.11 1.86 -1.36 1.86 c -0.04 0 -0.12 -0.03 -0.18 -0.06"/><path d="m 15.46 14.52 c -0.45 -0.13 -0.77 -0.37 -1.05 -0.77 c -0.27 -0.4 -0.51 -1.09 -0.46 -1.31 c 0.02 -0.1 0.12 -0.14 0.24 -0.11 c 0.11 0.04 0.25 0.18 0.25 0.26 c 0 0.11 0.17 0.49 0.33 0.75 c 0.26 0.41 0.47 0.57 0.9 0.68 c 0.14 0.04 0.28 0.08 0.3 0.1 c 0.05 0.04 0.05 0.23 0.01 0.31 c -0.04 0.07 -0.19 0.16 -0.27 0.16 c -0.03 0 -0.14 -0.03 -0.25 -0.06"/><path d="m 13.18 16.79 c -0.06 -0.05 -0.07 -0.08 -0.05 -0.16 c 0.03 -0.14 0.14 -0.22 0.38 -0.28 c 0.7 -0.16 1.1 -0.32 1.52 -0.6 c 0.29 -0.19 0.6 -0.48 0.77 -0.71 c 0.25 -0.34 0.48 -1.05 0.43 -1.36 c -0.03 -0.25 0.14 -0.58 0.29 -0.55 c 0.14 0.02 0.25 0.52 0.22 0.92 c -0.09 1.11 -1.23 2.26 -2.65 2.67 c -0.16 0.05 -0.41 0.09 -0.57 0.1 c -0.25 0.02 -0.29 0.01 -0.36 -0.04"/><path d="m 11.82 16 c -0.08 -0.02 -0.16 -0.05 -0.18 -0.07 c -0.02 -0.02 0.22 -0.16 0.7 -0.41 c 0.88 -0.45 1.16 -0.62 1.73 -1 c 0.24 -0.16 0.46 -0.29 0.5 -0.29 c 0.04 0 0.12 0.05 0.18 0.11 c 0.11 0.1 0.11 0.11 0.08 0.19 c -0.11 0.23 -1.75 1.29 -2.29 1.47 c -0.21 0.07 -0.49 0.08 -0.72 0.02"/><path d="m 10.87 18 c -0.46 -0.07 -0.95 -0.34 -1.25 -0.68 c -0.16 -0.18 -0.18 -0.31 -0.05 -0.37 c 0.12 -0.05 0.29 0.01 0.62 0.23 c 0.48 0.32 0.81 0.38 1.25 0.23 c 0.46 -0.15 0.66 -0.33 0.94 -0.82 c 0.2 -0.35 0.36 -0.54 0.49 -0.56 c 0.13 -0.03 0.18 0.02 0.18 0.16 c 0 0.4 -0.38 1.04 -0.82 1.37 c -0.43 0.32 -0.96 0.49 -1.36 0.43"/><path d="m 11.74 16.72 c -0.53 -0.12 -1.73 -0.5 -1.89 -0.59 c -0.14 -0.09 -0.22 -0.38 -0.13 -0.46 c 0.06 -0.05 0.11 -0.04 0.88 0.19 c 0.34 0.11 0.82 0.23 1.05 0.29 c 0.5 0.11 0.61 0.16 0.62 0.29 c 0.01 0.1 -0.05 0.18 -0.18 0.28 c -0.09 0.06 -0.11 0.06 -0.37 0"/><path d="m 9.1 16.1 c -0.07 -0.06 -0.07 -0.08 -0.07 -0.37 c 0.01 -0.53 0.24 -1.15 0.66 -1.79 c 0.23 -0.35 0.68 -0.82 0.81 -0.86 c 0.1 -0.02 0.26 0.04 0.3 0.12 c 0.05 0.08 -0.02 0.19 -0.29 0.5 c -0.36 0.41 -0.5 0.62 -0.66 0.95 c -0.18 0.37 -0.2 0.47 -0.27 0.99 c -0.04 0.33 -0.06 0.4 -0.12 0.45 c -0.09 0.07 -0.29 0.07 -0.38 0"/></g></svg>