<svg xmlns="http://www.w3.org/2000/svg" viewBox="0 0 22 22"><path d="m 21.82 8.48 c -3.54 -20.62 -33.91 1.52 -16.54 12 c 6.73 4.5 18.36 -1.39 16.54 -12" style="fill:#007f7f"/><path d="m 7.58 14.8 c 0 -0.04 0.09 -0.41 0.2 -0.84 c 0.78 -3 2.16 -5.28 4.16 -6.76 c 0.66 -0.49 1 -0.7 2.12 -1.32 c 0.8 -0.44 2.37 -0.96 3.52 -1.16 c 0.43 -0.26 0.85 0.16 0.62 0.3 c -0.07 0.03 -1.34 1.29 -2.84 2.8 l -2.71 2.74 c -0.4 -0.08 -0.39 -0.1 -0.79 -0.07 l -1.23 1.24 c -0.68 0.68 -1.64 1.67 -2.13 2.19 c -0.5 0.52 -0.91 0.92 -0.91 0.88" style="fill:#ff5d81"/><path d="m 10.14 14.1 c 1.96 -2.03 2.41 -2.49 2.53 -2.68 c 0.15 -0.23 0.13 -0.5 -0.07 -0.7 c -0.16 -0.16 -0.16 -0.17 -0.05 -0.17 c 0.16 0 0.53 -0.35 2.82 -2.68 c 2.21 -2.25 2.93 -2.94 3 -2.89 c 0.14 0.09 0.02 0.69 -0.53 2.63 c -0.29 0.99 -0.55 1.6 -1.16 2.64 c -0.18 0.29 -0.18 0.3 -0.59 0.37 c -0.59 0.11 -0.96 0.23 -0.96 0.31 c 0 0.04 0.07 0.18 0.17 0.3 c 0.33 0.44 0.21 0.76 -0.55 1.46 c -1.39 1.27 -3.12 2.19 -5.3 2.82 c -0.39 0.11 -0.76 0.21 -0.82 0.24 c -0.07 0.02 0.61 -0.72 1.5 -1.64" style="fill:#b7457d"/><path d="m 5.75 17.66 c -0.31 -0.3 -0.28 -0.5 0.14 -0.98 c 0.79 -0.89 5.57 -5.72 5.9 -5.96 c 0.15 -0.11 0.2 -0.11 0.4 -0.05 c 0.28 0.08 0.42 0.26 0.42 0.52 c 0 0.14 -0.07 0.27 -0.28 0.51 c -0.42 0.47 -4.14 4.29 -5.16 5.29 c -1.01 0.99 -1.08 1.02 -1.43 0.67" style="fill:#4b438c"/><path d="m 4.85 15.39 c -0.49 -0.49 -0.7 -1.28 -0.79 -2.91 c -0.13 -2.19 0.48 -3.84 2 -5.49 c 0.98 -1.05 2.44 -1.86 3.94 -2.15 c 1.1 -0.21 2.77 -0.03 3.83 0.43 l 0.68 0.29 l -0.9 0.48 c -0.5 0.27 -1.26 0.75 -1.7 1.08 c -0.51 0.39 -0.53 0.61 -1.24 0.61 c -0.72 0 -1.69 0.45 -2.39 1.12 c -1.18 1.12 -1.63 2.47 -1.38 4.19 c 0.17 1.19 -0.01 1.97 -0.55 2.4 c -0.52 0.41 -1.04 0.39 -1.48 -0.05" style="fill:#51d1fb"/><path d="m 9.42 19.36 c -0.63 -0.15 -1.55 -0.59 -2.4 -1.15 l -0.55 -0.37 c 0.44 -0.41 0.88 -0.81 1.32 -1.22 l 0.39 0.31 c 1.16 0.91 3.63 1.11 5.16 0.41 c 1.17 -0.54 2.34 -1.7 2.88 -2.87 c 0.36 -0.79 0.42 -1.12 0.43 -2.36 c 0.01 -1.07 -0.08 -1.62 0.12 -2 c 0.37 -0.5 0.61 -0.96 0.81 -1.54 l 0.33 0.98 c 0.93 2.74 0.38 5.55 -1.49 7.59 c -1.48 1.62 -3.2 2.39 -5.27 2.36 c -0.64 -0.01 -1.41 -0.07 -1.73 -0.15" style="fill:#0d9cbf"/></svg>