<svg xmlns="http://www.w3.org/2000/svg" viewBox="0 0 22 22"><path d="m 21 7.52 c 4.27 10.95 -7.7 16.57 -15.1 13.78 c -5.2 -1.95 -7.79 -9.71 -4.1 -15.98 c 4.66 -7.92 15.95 -6.23 19.24 2.21" style="fill:#8c9aab"/><path d="m 5.75 5.49 c -0.52 0 -0.93 0.41 -0.93 0.94 v 4.93 h 6.1 v 5.86 h 5.13 c 0.52 0 0.93 -0.41 0.93 -0.94 v -9.85 c 0 -0.52 -0.41 -0.94 -0.93 -0.94" style="fill:#e4e4e4"/><path d="m 10.48 5.49 v 5.47 h -5.66 v 0.78 h 5.66 v 5.47 h 0.8 v -5.47 h 5.66 v -0.78 h -5.66 v -5.47" style="fill:#534b5d"/><g style="fill:#8d8986"><path d="m 12.9 7.1 v 3.13 h 0.61 v -2.05 l 1.09 2.05 h 0.73 v -3.13 h -0.61 v 2.04 l -1.07 -2.04"/><path d="m 7.95 7.1 c -0.92 0 -1.51 0.65 -1.51 1.59 c 0 0.91 0.55 1.53 1.37 1.53 c 0.41 0 0.77 -0.15 1.06 -0.44 v -1.13 h -1.21 v 0.63 h 0.61 v 0.19 c -0.09 0.05 -0.23 0.09 -0.37 0.09 c -0.47 0 -0.76 -0.35 -0.76 -0.93 c 0 -0.56 0.29 -0.87 0.81 -0.87 c 0.22 0 0.48 0.05 0.66 0.12 l 0.18 -0.59 c -0.22 -0.13 -0.52 -0.2 -0.81 -0.2"/></g><g style="fill:#b4b4b4"><path d="m 13.35 12.17 c -0.16 0 -0.31 0.06 -0.43 0.17 l 0.08 0.26 c 0.11 -0.09 0.2 -0.11 0.29 -0.11 c 0.12 0 0.2 0.07 0.2 0.18 c 0 0.17 -0.2 0.39 -0.53 0.69 v 0.24 h 0.88 v -0.3 h -0.43 c 0.27 -0.23 0.4 -0.46 0.4 -0.68 c 0 -0.26 -0.19 -0.43 -0.46 -0.43 m -1.01 0 l -0.59 0.97 v 0.18 h 0.57 v 0.26 h 0.31 v -0.26 h 0.23 v -0.3 h -0.23 v -0.86 m -0.31 0.39 v 0.46 h -0.27"/><path d="m 6.48 6.14 c -0.24 0 -0.39 0.22 -0.39 0.55 c 0 0.33 0.16 0.55 0.38 0.55 c 0.24 0 0.39 -0.22 0.39 -0.56 c 0 -0.33 -0.16 -0.54 -0.38 -0.54 m -0.84 0.01 l -0.43 0.73 v 0.14 h 0.42 v 0.2 h 0.23 v -0.2 h 0.16 v -0.22 h -0.16 v -0.65 m 0.61 0.21 c 0.09 0 0.16 0.13 0.16 0.33 c 0 0.19 -0.06 0.32 -0.14 0.32 c -0.1 0 -0.16 -0.13 -0.16 -0.33 c 0 -0.19 0.06 -0.32 0.15 -0.32 m -0.84 0.09 v 0.35 h -0.2"/></g><path d="m 4.82 11.35 v 4.93 c 0 0.52 0.44 0.94 0.97 0.94 h 5.4 v -5.86" style="fill:#534b5d"/></svg>