<svg xmlns="http://www.w3.org/2000/svg" viewBox="0 0 22 22"><path d="m 10.34 21.84 c -14.75 0.85 -12.77 -23.1 1.79 -21.71 c 13.68 0.08 13.1 24.2 -1.79 21.71" style="fill:#d2d2d2"/><path d="m 5.8 4.84 h 2.03 c 0.03 0 0.05 0.02 0.05 0.05 v 2.03 c 0 0.03 -0.02 0.05 -0.05 0.05 h -2.03 c -0.03 0 -0.05 -0.02 -0.05 -0.05 v -2.03 c 0 -0.03 0.02 -0.05 0.05 -0.05"/><path d="m 5.86 7.58 h 2.03 c 0.03 0 0.05 0.02 0.05 0.05 v 2.03 c 0 0.03 -0.02 0.05 -0.05 0.05 h -2.03 c -0.03 0 -0.05 -0.02 -0.05 -0.05 v -2.03 c 0 -0.03 0.02 -0.05 0.05 -0.05"/><path d="m 5.86 10.29 h 2.03 c 0.03 0 0.05 0.02 0.05 0.05 v 2.03 c 0 0.03 -0.02 0.05 -0.05 0.05 h -2.03 c -0.03 0 -0.05 -0.02 -0.05 -0.05 v -2.03 c 0 -0.03 0.02 -0.05 0.05 -0.05"/><path d="m 5.86 13.16 h 2.03 c 0.03 0 0.05 0.02 0.05 0.05 v 2.03 c 0 0.03 -0.02 0.05 -0.05 0.05 h -2.03 c -0.03 0 -0.05 -0.02 -0.05 -0.05 v -2.03 c 0 -0.03 0.02 -0.05 0.05 -0.05"/><path d="m 8.71 7.63 h 2.03 c 0.03 0 0.05 0.02 0.05 0.05 v 2.03 c 0 0.03 -0.02 0.05 -0.05 0.05 h -2.03 c -0.03 0 -0.05 -0.02 -0.05 -0.05 v -2.03 c 0 -0.03 0.02 -0.05 0.05 -0.05"/><path d="m 8.64 4.87 h 2.03 c 0.03 0 0.05 0.02 0.05 0.05 v 2.03 c 0 0.03 -0.02 0.05 -0.05 0.05 h -2.03 c -0.03 0 -0.05 -0.02 -0.05 -0.05 v -2.03 c 0 -0.03 0.02 -0.05 0.05 -0.05"/><path d="m 11.42 4.82 h 2.03 c 0.03 0 0.05 0.02 0.05 0.05 v 2.03 c 0 0.03 -0.02 0.05 -0.05 0.05 h -2.03 c -0.03 0 -0.05 -0.02 -0.05 -0.05 v -2.03 c 0 -0.03 0.02 -0.05 0.05 -0.05"/><path d="m 14.2 4.8 h 2.03 c 0.03 0 0.05 0.02 0.05 0.05 v 2.03 c 0 0.03 -0.02 0.05 -0.05 0.05 h -2.03 c -0.03 0 -0.05 -0.02 -0.05 -0.05 v -2.03 c 0 -0.03 0.02 -0.05 0.05 -0.05"/><path d="m 14.24 13.1 h 2.03 c 0.03 0 0.05 0.02 0.05 0.05 v 2.03 c 0 0.03 -0.02 0.05 -0.05 0.05 h -2.03 c -0.03 0 -0.05 -0.02 -0.05 -0.05 v -2.03 c 0 -0.03 0.02 -0.05 0.05 -0.05"/><g style="fill:#858481"><path d="m 11.4 13.1 h 2.03 c 0.03 0 0.05 0.02 0.05 0.05 v 2.03 c 0 0.03 -0.02 0.05 -0.05 0.05 h -2.03 c -0.03 0 -0.05 -0.03 -0.05 -0.05 v -2.03 c 0 -0.03 0.02 -0.05 0.05 -0.05"/><path d="m 8.72 13.16 h 2.03 c 0.03 0 0.05 0.02 0.05 0.05 v 2.03 c 0 0.03 -0.03 0.05 -0.05 0.05 h -2.03 c -0.03 0 -0.05 -0.02 -0.05 -0.05 v -2.03 c 0 -0.03 0.02 -0.05 0.05 -0.05"/><path d="m 11.43 10.39 h 2.03 c 0.03 0 0.05 0.02 0.05 0.05 v 2.03 c 0 0.03 -0.02 0.05 -0.05 0.05 h -2.03 c -0.03 0 -0.05 -0.02 -0.05 -0.05 v -2.03 c 0 -0.03 0.02 -0.05 0.05 -0.05"/><path d="m 14.18 7.58 h 2.03 c 0.03 0 0.05 0.02 0.05 0.05 v 2.03 c 0 0.03 -0.02 0.05 -0.05 0.05 h -2.03 c -0.03 0 -0.05 -0.02 -0.05 -0.05 v -2.03 c 0 -0.03 0.02 -0.05 0.05 -0.05"/><path d="m 14.19 15.9 h 2.03 c 0.03 0 0.05 0.02 0.05 0.05 v 2.03 c 0 0.03 -0.02 0.05 -0.05 0.05 h -2.03 c -0.03 0 -0.05 -0.02 -0.05 -0.05 v -2.03 c 0 -0.03 0.02 -0.05 0.05 -0.05"/></g><g style="fill:#fff"><path d="m 8.61 15.92 h 2.03 c 0.03 0 0.05 0.02 0.05 0.05 v 2.03 c 0 0.03 -0.02 0.05 -0.05 0.05 h -2.03 c -0.03 0 -0.05 -0.02 -0.05 -0.05 v -2.03 c 0 -0.03 0.02 -0.05 0.05 -0.05"/><path d="m 8.64 10.39 h 2.03 c 0.03 0 0.05 0.02 0.05 0.05 v 2.03 c 0 0.03 -0.02 0.05 -0.05 0.05 h -2.03 c -0.03 0 -0.05 -0.02 -0.05 -0.05 v -2.03 c 0 -0.03 0.02 -0.05 0.05 -0.05"/></g><g style="fill:#ff8f00"><path d="m 11.39 7.66 h 2.03 c 0.03 0 0.05 0.02 0.05 0.05 v 2.03 c 0 0.03 -0.02 0.05 -0.05 0.05 h -2.03 c -0.03 0 -0.05 -0.02 -0.05 -0.05 v -2.03 c 0 -0.03 0.02 -0.05 0.05 -0.05"/><path d="m 14.23 10.39 h 2.03 c 0.03 0 0.05 0.02 0.05 0.05 v 2.03 c 0 0.03 -0.02 0.05 -0.05 0.05 h -2.03 c -0.03 0 -0.05 -0.02 -0.05 -0.05 v -2.03 c 0 -0.03 0.02 -0.05 0.05 -0.05"/></g><path d="m 11.43 15.9 h 2.03 c 0.03 0 0.05 0.02 0.05 0.05 v 2.03 c 0 0.03 -0.02 0.05 -0.05 0.05 h -2.03 c -0.03 0 -0.05 -0.02 -0.05 -0.05 v -2.03 c 0 -0.03 0.02 -0.05 0.05 -0.05" style="fill:#00fd00"/><path d="m 5.88 15.85 h 2.03 c 0.03 0 0.05 0.02 0.05 0.05 v 2.03 c 0 0.03 -0.02 0.05 -0.05 0.05 h -2.03 c -0.03 0 -0.05 -0.02 -0.05 -0.05 v -2.03 c 0 -0.03 0.02 -0.05 0.05 -0.05"/></svg>