<svg xmlns="http://www.w3.org/2000/svg" viewBox="0 0 22 22"><path d="m 21.74 8.63 c -1.36 -8.88 -13.48 -11.26 -18.83 -4.91 c -4.71 4.71 -3.54 13.72 2.24 16.82 c 6.64 4.13 16.3 -0.98 16.83 -9.21 c 0.05 -0.9 -0.02 -1.82 -0.24 -2.69" style="fill:#424242"/><path d="m 6.43 6 h 8.98 c 0.52 0 0.93 0.44 0.93 0.98 v 8.52 c 0 0.54 -0.42 0.99 -0.93 0.99 h -8.98 c -0.52 0 -0.94 -0.45 -0.94 -0.99 v -8.52 c 0 -0.54 0.42 -0.98 0.94 -0.98" style="fill:#cdcdcd"/><path d="m 6.43 6 c -0.52 0 -0.95 0.41 -0.95 0.95 v 8.61 c 0 0.52 0.42 0.95 0.95 0.95 h 8.96 c 0.52 0 0.95 -0.42 0.95 -0.95 v -8.61 c 0 -0.52 -0.42 -0.95 -0.95 -0.95 m -8.82 0.26 h 8.69 c 0.45 0 0.81 0.36 0.81 0.8 v 7.79 c 0 0.45 -0.36 0.8 -0.81 0.8 h -8.69 c -0.45 0 -0.81 -0.36 -0.81 -0.8 v -7.79 c 0 -0.45 0.36 -0.8 0.81 -0.8" style="fill-opacity:0.5"/><path d="m 6.75 7.12 h 8.35 c 0.09 0 0.17 0.07 0.17 0.17 v 7.45 c 0 0.09 -0.08 0.17 -0.17 0.17 h -8.35 c -0.1 0 -0.17 -0.08 -0.17 -0.17 v -7.45 c 0 -0.1 0.07 -0.17 0.17 -0.17" style="fill:#424242"/><path d="m 7.39 7.92 v 0.27 h 7.1 v -0.27 m -7.1 0.8 v 0.26 h 4.34 v -0.26" style="fill:#94a5ff"/><path d="m 7.39 11.15 v 0.27 h 1.63 v -0.27 m -1.63 0.8 v 0.26 h 1.63 v -0.26 m -1.63 0.8 v 0.27 h 1.63 v -0.27" style="fill:#cf3b00"/><path d="m 7.39 9.54 v 0.26 h 1.63 v -0.26 m -1.63 0.8 v 0.27 h 1.63 v -0.27" style="fill:#7851c1"/><path d="m 9.53 11.15 v 0.27 h 4.89 v -0.27 m -4.89 0.8 v 0.26 h 2.72 v -0.26" style="fill:#72c38e"/><path d="m 9.53 12.75 v 0.27 h 4.89 v -0.27 m -7.1 0.8 v 0.27 h 4.34 v -0.27" style="fill:#fff"/><path d="m 9.53 9.54 v 0.26 h 4.89 v -0.26 m -4.89 0.8 v 0.27 h 2.72 v -0.27" style="fill:#b84aca"/></svg>