<svg xmlns="http://www.w3.org/2000/svg" viewBox="0 0 22 22"><defs><linearGradient id="0" gradientUnits="userSpaceOnUse" x1="8.68" x2="13.21"><stop style="stop-color:#26a269"/><stop offset="0.09" style="stop-color:#84e3b7"/><stop offset="0.33" style="stop-color:#26a269"/><stop offset="0.69" style="stop-color:#26a269"/><stop offset="0.9" style="stop-color:#175d3c"/><stop offset="1" style="stop-color:#26a269"/></linearGradient><linearGradient id="1" gradientUnits="userSpaceOnUse" x1="5.55" x2="10.1"><stop style="stop-color:#803d9c"/><stop offset="0.11" style="stop-color:#b278c9"/><stop offset="0.24" style="stop-color:#803d9c"/><stop offset="0.73" style="stop-color:#803d9c"/><stop offset="0.87" style="stop-color:#4c255c"/><stop offset="1" style="stop-color:#803d9c"/></linearGradient><linearGradient id="2" gradientUnits="userSpaceOnUse" x1="11.81" x2="16.33"><stop style="stop-color:#e56100"/><stop offset="0.07" style="stop-color:#ff8f3d"/><stop offset="0.17" style="stop-color:#e56100"/><stop offset="0.89" style="stop-color:#e56100"/><stop offset="1" style="stop-color:#9c4200"/></linearGradient></defs><path d="m 2.54 6 c -12.83 23.2 30.61 19.68 16.6 -1.38 c -3.7 -5.41 -13 -7.26 -16.6 1.38" style="fill:#ffd600"/><path d="m 9.54 5.8 h 2.8 c 0.48 0 0.86 0.38 0.86 0.86 v 2.8 c 0 0.48 -0.39 0.86 -0.86 0.86 h -2.8 c -0.48 0 -0.86 -0.38 -0.86 -0.86 v -2.8 c 0 -0.48 0.39 -0.86 0.86 -0.86" style="fill:url(#0)"/><path d="m 9.54 5.16 h 2.8 c 0.48 0 0.86 0.38 0.86 0.86 v 2.8 c 0 0.48 -0.39 0.86 -0.86 0.86 h -2.8 c -0.48 0 -0.86 -0.39 -0.86 -0.86 v -2.8 c 0 -0.48 0.39 -0.86 0.86 -0.86" style="fill:#56e388"/><g transform="matrix(0.108 0 0 0.108 4 3.86)" style="fill:#f4f4f4;stroke:#f4f4f4"><path d="m 76.98 55.5 c 1.49 -0.87 3.37 -0.33 4.24 1.13 l 6.74 11.69 c 0.83 1.49 0.33 3.38 -1.12 4.25 c -1.49 0.83 -3.41 0.33 -4.24 -1.13 l -6.74 -11.69 c -0.87 -1.49 -0.36 -3.38 1.12 -4.25"/><path d="m 52.82 55.5 c -1.49 -0.87 -3.37 -0.33 -4.24 1.13 l -6.74 11.69 c -0.87 1.49 -0.36 3.38 1.12 4.25 c 1.49 0.83 3.37 0.33 4.24 -1.13 l 6.74 -11.69 c 0.87 -1.49 0.36 -3.38 -1.12 -4.25"/></g><path d="m 6.41 11.83 h 2.8 c 0.48 0 0.86 0.39 0.86 0.86 v 2.8 c 0 0.48 -0.39 0.86 -0.86 0.86 h -2.8 c -0.48 0 -0.86 -0.38 -0.86 -0.86 v -2.8 c 0 -0.47 0.38 -0.86 0.86 -0.86" style="fill:url(#1)"/><path d="m 6.41 11.18 h 2.8 c 0.48 0 0.86 0.38 0.86 0.86 v 2.8 c 0 0.48 -0.39 0.86 -0.86 0.86 h -2.8 c -0.48 0 -0.86 -0.39 -0.86 -0.86 v -2.8 c 0 -0.48 0.38 -0.86 0.86 -0.86" style="fill:#dc89dd"/><path d="m 12.67 11.83 h 2.8 c 0.48 0 0.86 0.39 0.86 0.86 v 2.8 c 0 0.48 -0.39 0.86 -0.86 0.86 h -2.8 c -0.48 0 -0.86 -0.38 -0.86 -0.86 v -2.8 c 0 -0.47 0.39 -0.86 0.86 -0.86" style="fill:url(#2)"/><path d="m 12.67 11.18 h 2.8 c 0.48 0 0.86 0.38 0.86 0.86 v 2.8 c 0 0.48 -0.39 0.86 -0.86 0.86 h -2.8 c -0.48 0 -0.86 -0.39 -0.86 -0.86 v -2.8 c 0 -0.48 0.39 -0.86 0.86 -0.86" style="fill:#ff8c00"/><g transform="matrix(0.069 0 0 0.068 1.87 3.72)" style="stroke:#000;stroke-width:1.33"><path d="m 76.5 246 c -21.94 -8.62 -42.76 -25.32 -54.3 -43.4 l -2.48 -3.93 h 17.44 l 4.11 4.63 c 5.4 6 24.64 26.48 34.54 36.66 c 4.33 4.45 7.71 8.21 7.54 8.38 c -0.11 0.17 -3.26 -0.87 -6.86 -2.31"/><path d="m 119.8 254.9 c 0 -1.1 -11.59 -13.7 -32.41 -35.2 l -20.48 -21.1 h 33.42 l 2.7 3.24 c 1.52 1.79 9.96 10.93 18.85 20.29 c 8.83 9.37 19.1 20.24 22.84 24.2 c 7.65 8.09 7.88 7.34 -2.64 8.5 c -7.71 0.87 -22.28 0.93 -22.28 0.06"/><path d="m 153.2 222.5 l -23.2 -23.88 h 27.2 l 6.98 7.69 c 3.88 4.22 12.1 13.1 18.34 19.72 c 6.25 6.59 11.36 12.14 11.36 12.37 c 0 0.46 -13.95 7.11 -16.1 7.69 c -1.07 0.29 -5.96 -4.39 -24.53 -23.59"/><path d="m 186.8 198.6 h 33.42 l 3.09 3.58 c 6.13 7.1 6.08 5.72 0.45 11.97 c -3.43 3.99 -7.2 7.52 -11.14 10.99"/></g></svg>