<svg xmlns="http://www.w3.org/2000/svg" viewBox="0 0 22 22"><path d="m 19.83 5.21 c 11.82 21.68 -31.36 22.7 -16.5 0.35 c 3.93 -5.75 13.32 -8.55 16.5 -0.35" style="fill:#ffd600"/><path d="m 6.94 9.46 c -0.94 0 -1.71 1.66 -1.71 3.68 c 0 2.02 0.76 3.58 1.71 3.58 c 0.02 0 0.05 -0.02 0.07 -0.03 v 0.03 l 6.5 -0.72 c -1.34 0 -2.26 -0.9 -2.26 -2.86 c 0 -1.95 0.77 -2.86 2.26 -2.86 l -1.17 -0.81 c -2.38 -0.01 -5.4 0 -5.4 0 m 0.02 0.81 h 3.68 c 0.13 0 0.24 0.16 0.14 0.31 c -0.63 1.24 -0.66 3.09 -0.27 4.55 c 0 0.14 -0.11 0.26 -0.23 0.26 l -3.73 0.01 c -0.13 0 -0.18 -0.16 -0.18 -0.31 c -0.06 -1.43 -0.68 -3.4 0.43 -4.77 c 0 0 0.04 -0.05 0.16 -0.05"/><path d="m 9.83 6.2 c -0.29 0 -0.52 0.14 -0.66 0.38 l -1.69 3 l -0.1 0.23 h 1.12 l 0.03 -0.09 l 1.07 -1.77 c 0.03 -0.05 0.12 -0.12 0.21 -0.12 h 5.46 c 0.06 0 0.06 0.09 0.06 0.09 l -2.12 4.68 l -0.07 0.13 l 0.12 0.07 l 0.05 0.57 l 0.51 0.3 l 0.07 -0.13 l 2.56 -5.72 c 0.11 -0.19 0 -1.14 -0.08 -1.3 c -0.09 -0.19 -0.29 -0.34 -0.53 -0.33" style="fill-rule:evenodd"/><path d="m 14.1 13.14 c 0 0.68 -0.29 1.23 -0.65 1.23 c -0.36 0 -0.65 -0.55 -0.65 -1.23 c 0 -0.68 0.29 -1.23 0.65 -1.23 c 0.36 0 0.65 0.55 0.65 1.23"/><path d="m 9.88 14.38 c 0 0 -2.16 -0.02 -2.29 -0.02 c -0.14 0 -0.2 0.03 -0.27 -0.12 c -0.23 -0.35 -0.39 -0.9 -0.43 -1.41 c -0.01 -0.1 -0.15 -0.1 -0.22 -0.1 h -1.89 c -0.1 0 -0.12 0.2 -0.12 0.2 c -0.04 1.55 0.53 3.89 2.13 3.88 h 5.82 c -1.98 -0.13 -1.94 -1.1 -2.1 -2.02 c -0.13 -0.29 -0.19 -0.43 -0.42 -0.43" style="fill-rule:evenodd"/><path d="m 11.23 9.46 c -0.2 0.02 -0.36 0.22 -0.34 0.45 c 0.02 0.23 0.2 0.39 0.4 0.37 h 1.85 c 2.29 0 2.64 5.72 0 5.72 h -2.17 c -0.2 0 -0.37 0.18 -0.37 0.41 c 0 0.23 0.16 0.41 0.37 0.41 h 2.17 c 3.58 0 3.33 -7.36 0 -7.36 h -1.85 c -0.02 0 -0.05 0 -0.07 0"/><g transform="matrix(0.078 0 0 0.065 0.5 5)" style="stroke:#000;stroke-width:1.33"><path d="m 76.5 246 c -21.91 -8.59 -42.72 -25.29 -54.3 -43.4 l -2.5 -3.96 h 17.47 l 4.09 4.63 c 5.39 6 24.6 26.49 34.53 36.64 c 4.34 4.45 7.74 8.23 7.54 8.35 c -0.15 0.18 -3.24 -0.84 -6.89 -2.28"/><path d="m 119.8 254.9 c 0 -1.08 -11.63 -13.7 -32.44 -35.2 l -20.46 -21.1 h 33.39 l 2.74 3.24 c 1.5 1.8 9.93 10.93 18.81 20.3 c 8.83 9.31 19.1 20.2 22.81 24.2 c 7.69 8.11 7.89 7.33 -2.6 8.53 c -7.74 0.84 -22.26 0.84 -22.26 0.06"/><path d="m 153.2 222.5 l -23.2 -23.97 h 27.2 l 6.99 7.75 c 3.84 4.21 12.1 13.1 18.37 19.7 c 6.24 6.61 11.33 12.19 11.33 12.38 c 0 0.48 -13.92 7.15 -16.1 7.69 c -1.1 0.3 -5.94 -4.39 -24.55 -23.55"/><path d="m 186.8 198.6 h 33.39 l 3.09 3.54 c 6.14 7.09 6.09 5.77 0.5 12 c -3.44 3.96 -7.24 7.51 -11.18 10.99"/></g></svg>