<svg xmlns="http://www.w3.org/2000/svg" viewBox="0 0 22 22"><path d="m 18.83 3.31 c 13.53 19.37 -20.47 26.87 -18.71 6.94 c 0.72 -8.13 13.53 -14.35 18.71 -6.94" style="fill:#1096ec"/><path d="m 18.93 11.34 c 0 4.32 -3.5 7.82 -7.82 7.82 c -4.32 0 -7.82 -3.5 -7.82 -7.82 c 0 -4.32 3.5 -7.82 7.82 -7.82 c 4.32 0 7.82 3.5 7.82 7.82" style="fill:#ffdeac"/><path d="m 9.97 18.35 c -2.11 -0.39 -3.8 -1.68 -4.72 -3.58 c -0.42 -0.86 -0.62 -1.62 -0.65 -2.49 c -0.02 -0.49 -0.02 -0.53 0.06 -0.63 c 0.25 -0.32 1.23 -0.64 2.55 -0.84 c 0.61 -0.09 1.68 -0.2 1.98 -0.2 c 0.21 0 0.22 0.01 0.29 0.13 c 0.3 0.6 0.9 1.18 1.52 1.46 c 0.48 0.22 0.78 0.28 1.37 0.28 c 0.46 0 0.57 -0.02 0.88 -0.11 c 0.74 -0.23 1.37 -0.69 1.8 -1.34 c 0.05 -0.07 0.11 -0.14 0.13 -0.16 c 0.09 -0.06 1.3 0.24 1.76 0.43 c 0.17 0.07 0.36 0.19 0.45 0.27 l 0.15 0.15 l -0.02 0.53 c -0.04 0.88 -0.23 1.64 -0.65 2.5 c -0.89 1.82 -2.5 3.1 -4.5 3.54 c -0.54 0.12 -1.85 0.14 -2.39 0.04" style="fill:#845117"/><path d="m 10.5 18.36 c -0.54 -0.08 -0.73 -0.11 -1.05 -0.19 c -1.12 -0.29 -2.05 -0.83 -2.93 -1.72 c -0.89 -0.9 -1.41 -1.82 -1.71 -3.05 c -0.11 -0.45 -0.21 -1.21 -0.17 -1.28 c 0.01 -0.02 0.1 0.03 0.21 0.1 c 0.59 0.4 1.95 0.7 4.05 0.88 c 0.76 0.07 3.55 0.07 4.3 0 c 2.1 -0.18 3.46 -0.47 4.05 -0.88 c 0.11 -0.07 0.2 -0.11 0.21 -0.1 c 0.03 0.04 -0.05 0.68 -0.12 1.02 c -0.27 1.34 -0.87 2.44 -1.85 3.41 c -0.77 0.77 -1.69 1.3 -2.72 1.58 c -0.19 0.05 -0.49 0.12 -0.67 0.16 c -0.31 0.05 -1.38 0.1 -1.61 0.07" style="fill:#6b4004"/><path d="m 4.77 9.22 c -0.16 -0.16 -0.13 -0.33 0.17 -0.92 c 0.71 -1.39 1.88 -2.57 3.26 -3.31 c 0.31 -0.16 0.62 -0.3 0.68 -0.3 c 0.29 0 0.45 0.48 0.22 0.69 c -0.06 0.05 -0.38 0.27 -0.71 0.48 c -1.07 0.67 -1.88 1.48 -2.53 2.53 c -0.55 0.89 -0.59 0.94 -0.8 0.94 c -0.11 0 -0.24 -0.05 -0.3 -0.11" style="fill:#fff"/><path d="m 15.57 9.25 c 0 1.8 -1.43 3.25 -3.2 3.25 c -1.77 0 -3.2 -1.46 -3.2 -3.25 c 0 -1.8 1.43 -3.26 3.2 -3.26 c 1.77 0 3.2 1.46 3.2 3.26" style="fill:#f55d42"/></svg>