<svg xmlns="http://www.w3.org/2000/svg" viewBox="0 0 22 22"><path d="m 18.1 3.27 c 17.1 22.79 -30 26 -14.89 2.77 c 3.45 -5.3 10.35 -8.8 14.89 -2.77" style="fill:#7092a6"/><path d="m 8.71 18.86 c -3.73 -0.34 -6.38 -1.42 -6.57 -2.69 c -0.09 -0.58 0.4 -2 1.4 -1.72 c 8.25 2.32 10 -1.77 13.77 -0.29 c 1.04 0.41 1.8 0.98 1.98 1.49 c 0.5 1.36 -1.81 2.62 -5.72 3.12 c -0.87 0.11 -3.97 0.16 -4.87 0.08" style="fill:#87d75b"/><path d="m 3.22 14.91 c 0.07 -0.53 0.04 -1.03 0.13 -1.56 c -0.22 0.07 0.34 -0.15 0.54 -0.21 c 0.58 -0.18 0.67 -0.27 0.73 -0.75 c 0.03 -0.23 -0.08 -0.46 -0.02 -0.52 c 0.09 -0.09 1.11 -0.34 1.36 -0.34 c 0.07 0 -0.07 -0.08 -0.04 -0.57 c 0.02 -0.41 0.12 -0.72 0.18 -0.76 c 0.05 -0.04 0.41 -0.12 0.64 -0.16 c 0.23 -0.05 0.47 -0.13 0.52 -0.18 c 0.15 -0.45 -0.13 -0.96 0.18 -1.5 l 0.64 -0.16 c 0.68 -0.07 0.66 -0.48 0.7 -1.45 l 0.29 -0.11 c 0.16 -0.07 0.42 -0.16 0.58 -0.22 c 0.32 -0.11 0.46 -0.33 0.46 -0.74 c 0 -0.2 -0.07 -0.5 0.04 -0.62 c 0.19 -0.2 1 -0.36 1.11 -0.24 c 2.3 0.07 3.37 -0.02 5.27 0.16 c 0.05 3.94 -0.17 8.38 -0.21 11.41 c -4.3 0.11 -13.22 0.91 -13.1 -1.48 m 4.36 -0.2 c 0 -0.26 -0.1 -0.56 -0.27 -0.6 c -0.41 -0.09 -3.49 -0.57 -3.6 -0.57 c -0.18 0.19 -0.19 0.63 -0.02 0.86 c 0.82 0.13 3.85 0.75 3.89 0.31 m 0.33 -1.09 c -0.78 -0.24 -3.06 -0.62 -3.33 -0.54 c -0.41 0.11 -0.3 0.21 0.41 0.34 c 0.75 0.14 2.15 0.34 2.59 0.38 c 0.3 -0.1 0.25 -0.02 0.32 -0.17 m 0.75 -1.09 c -0.24 -0.2 -1.9 -0.29 -3.34 -0.45 l -0.51 -0.05 v 0.3 c 0 0.36 -0.06 0.33 1.09 0.54 c 1.07 0.19 2.09 0.32 2.27 0.28 c 0.35 0.01 0.69 -0.45 0.49 -0.63 m 0.57 -0.37 c 0.15 -0.1 -0.59 -0.08 -1.61 -0.25 c -1.39 -0.22 -1.91 -0.27 -1.91 -0.17 c 0 0.04 0.06 0.09 0.13 0.12 c 0.12 0.04 1.19 0.21 2.14 0.34 c 0.25 0.04 0.47 0.07 0.49 0.07 c 0.02 0 0.61 0.05 0.76 -0.11 m 0.77 -0.5 c 0.13 -0.19 0.3 -0.63 0.1 -0.77 c -0.09 -0.06 -1.3 -0.09 -2 -0.18 c -1.48 -0.18 -1.78 -0.19 -1.82 -0.06 c -0.05 0.13 0.02 0.6 0.1 0.69 c 0.09 0.1 1.73 0.32 2.51 0.33 c 0.58 0.01 1.04 0.13 1.13 -0.02 m 0.73 -1.22 c 0.02 -0.15 -1.06 -0.15 -1.94 -0.25 c -0.83 -0.09 -2.16 -0.1 -2.16 0 c 0 0.11 0.21 0.14 1.17 0.21 c 0.04 0.14 3.18 0.22 2.93 0.04 m 1.02 -0.46 c 0.11 -0.12 0.13 -0.71 0.13 -0.77 c 0 -0.06 -0.18 0.04 -0.37 -0.05 c -1.58 -0.1 -2.33 -0.16 -3.98 -0.24 c 0.03 0.29 -0.05 0.55 0.05 0.82 c 1.25 0.3 3.43 0.39 4.16 0.25 m 0.95 -1.36 c 0.02 -0.03 -0.12 -0.09 -0.27 -0.11 c -0.6 -0.1 -3.12 -0.29 -3.56 -0.26 c -0.45 0.03 -0.71 0.14 -0.59 0.27 c 0.1 0.11 4.22 0.45 4.42 0.11 m 0.6 -0.55 c 0.24 -0.11 0.27 -0.64 0.04 -0.88 c -0.14 -0.15 -0.29 0 -0.79 -0.04 c -0.98 -0.08 -3.55 -0.18 -3.61 -0.14 c -0.07 0.32 -0.05 0.57 -0.05 0.91 l 0.24 0.05 c 0.25 0.05 2.24 0.15 3.34 0.17 c 0.37 0.01 0.73 -0.02 0.83 -0.07 m 0.46 -1.32 c 0 -0.13 -0.24 -0.16 -1.96 -0.24 c -1.29 -0.06 -1.79 -0.06 -1.95 0 c -0.38 0.16 -0.09 0.22 1.02 0.25 c 2.57 0.05 2.89 0.05 2.89 -0.01 m 0.77 -0.5 c 0.25 -0.05 0.35 -0.3 0.25 -0.62 c -0.06 -0.19 -0.07 -0.2 -1.12 -0.28 c -0.58 -0.05 -1.57 -0.09 -2.2 -0.09 c -1.25 -0.01 -1.23 -0.02 -1.22 0.47 c 0 0.43 0.05 0.46 1.07 0.5 c 1.39 0.06 2.98 0.07 3.23 0.02" style="fill:#3f5b84"/><path d="m 16.39 10.79 c 0.22 0.12 0.27 0.44 0.13 0.71 l -1.58 2.91 c -0.15 0.28 -0.45 0.4 -0.67 0.28 c -0.21 -0.12 -0.27 -0.44 -0.13 -0.71 l 1.59 -2.91 c 0.15 -0.28 0.45 -0.4 0.66 -0.29" style="fill:#ffa400"/><path d="m 10.66 13.25 h 5.8 c 0.25 0 0.46 0.18 0.46 0.41 v 2.78 c 0 0.23 -0.21 0.41 -0.46 0.41 h -5.8 c -0.26 0 -0.46 -0.18 -0.46 -0.41 v -2.78 c 0 -0.23 0.21 -0.41 0.46 -0.41" style="fill:#ea673b"/><path d="m 12.1 16.4 c 0 0.74 -0.63 1.35 -1.4 1.35 c -0.77 0 -1.4 -0.61 -1.4 -1.35 c 0 -0.74 0.63 -1.34 1.4 -1.34 c 0.77 0 1.4 0.6 1.4 1.34" style="fill:#5586e7"/><path d="m 10.57 16.24 c -0.14 0.29 -0.42 0.43 -0.63 0.32 c -0.21 -0.11 -0.27 -0.42 -0.13 -0.71 c 0.14 -0.29 0.42 -0.43 0.63 -0.32 c 0.21 0.11 0.27 0.42 0.13 0.71" style="fill:#86ceeb"/><path d="m 17.36 12.48 l -0.19 0.39 c -0.15 0.32 -0.47 0.47 -0.71 0.35 l -2 -1.03 c -0.24 -0.12 -0.31 -0.48 -0.16 -0.8 l 0.19 -0.39 c 0.15 -0.32 0.47 -0.47 0.71 -0.35 l 2 1.03 c 0.24 0.12 0.31 0.48 0.16 0.8" style="fill:#942a38"/><path d="m 12.34 12.53 c -0.13 0 -0.26 -0.04 -0.37 -0.07 c -0.42 -0.13 -0.86 -0.5 -1 -0.83 c -0.13 -0.29 -0.18 -0.38 -0.29 -0.63 c 0.66 -0.36 1.32 -0.71 1.97 -1.07 c 0.2 0.27 0.36 0.61 0.42 0.86 c 0.12 0.57 0.11 0.92 -0.04 1.21 l -0.09 0.17 c 0.37 0.68 0.74 1.37 1.11 2.05 c -0.2 0.11 -0.41 0.22 -0.61 0.33 c -0.39 -0.72 -0.79 -1.45 -1.11 -2.04 m 0.13 -0.73 c 0.34 -0.28 0.13 -0.75 0.04 -1.14 c -0.4 0.21 -0.79 0.43 -1.19 0.64 c 0.21 0.22 0.44 0.53 0.67 0.63 c 0.18 0.07 0.32 0.04 0.48 -0.13" style="fill:#c54560"/><g style="fill:#ed8be6"><path d="m 8.11 17.23 c -0.03 -0.01 -0.15 -0.07 -0.25 -0.14 c -0.23 -0.15 -0.31 -0.15 -0.64 -0.04 c -0.23 0.09 -0.47 0.12 -0.58 0.07 c -0.12 -0.38 0.28 -0.72 0.03 -1.03 c -0.15 -0.18 -0.27 -0.5 -0.23 -0.61 c 0.32 -0.17 0.54 0 0.91 -0.03 c 0.25 -0.15 0.73 -0.71 0.94 -0.49 c 0.05 0.05 0.07 0.12 0.07 0.29 c -0.03 0.51 0.63 0.31 0.63 0.64 c 0 0.11 -0.02 0.16 -0.14 0.29 c -0.14 0.18 -0.4 0.14 -0.49 0.33 c 0 0.02 0.04 0.13 0.08 0.25 c 0.1 0.27 0.11 0.39 0.02 0.44 c -0.07 0.04 -0.23 0.04 -0.35 0.01"/><path d="m 3.58 16.38 c 0 0.04 0 0.17 0 0.3 c 0.02 0.29 -0.02 0.37 -0.23 0.62 c -0.16 0.18 -0.27 0.4 -0.28 0.52 c -0.05 0.36 0.63 0.04 0.76 0.43 c 0.07 0.23 0.25 0.48 0.35 0.49 c 0.07 0.01 0.14 -0.11 0.24 -0.46 c 0.06 -0.32 0.2 -0.45 0.45 -0.58 c 0.37 -0.19 0.48 -0.31 0.43 -0.48 c -0.15 -0.24 -0.56 -0.11 -0.37 -0.59 c 0.03 -0.09 0.05 -0.23 0.06 -0.3 c 0.01 -0.13 0 -0.14 -0.09 -0.2 c -0.32 -0.15 -0.48 0.27 -0.71 0.33 c -0.01 -0.01 -0.08 -0.09 -0.15 -0.2 c -0.16 -0.21 -0.24 -0.28 -0.32 -0.21 c -0.27 0.1 -0.13 0.21 -0.15 0.33"/><path d="m 17.75 13.66 c 0.04 0.35 0.02 0.6 -0.21 0.73 c -0.18 0.11 -0.31 0.25 -0.32 0.36 c 0 0.08 -0.1 0.28 0.51 0.29 c 0.27 0.05 0.39 0.16 0.5 0.37 c 0.11 0.23 0.09 0.61 0.48 0.56 c 0.09 0.04 0.16 -0.04 0.27 -0.32 c 0.09 -0.31 0.26 -0.33 0.52 -0.35 c 0.45 -0.03 0.58 -0.1 0.5 -0.27 c -0.03 -0.07 -0.09 -0.13 -0.25 -0.24 c -0.36 -0.23 -0.24 -0.33 -0.21 -0.66 c 0 -0.11 -0.01 -0.13 -0.13 -0.21 c -0.2 -0.11 -0.42 -0.14 -0.59 -0.02 c -0.04 0.07 -0.2 0.1 -0.27 0.05 c -0.02 -0.01 -0.11 -0.11 -0.21 -0.23 c -0.18 -0.23 -0.5 -0.46 -0.58 -0.07"/></g><g style="fill:#ffeff4"><path d="m 18.42 14.7 c 0 0.14 0.05 0.27 0.13 0.34 c 0.08 0.07 0.19 0.07 0.27 0 c 0.08 -0.07 0.13 -0.2 0.13 -0.34 c 0 -0.14 -0.05 -0.27 -0.13 -0.34 c -0.08 -0.07 -0.19 -0.07 -0.27 0 c -0.08 0.07 -0.13 0.2 -0.13 0.34"/><path d="m 7.39 16 c 0 0.12 0.06 0.22 0.15 0.28 c 0.1 0.06 0.21 0.06 0.31 0 c 0.09 -0.06 0.15 -0.16 0.15 -0.28 c 0 -0.11 -0.06 -0.22 -0.15 -0.28 c -0.09 -0.06 -0.21 -0.06 -0.31 0 c -0.09 0.06 -0.15 0.16 -0.15 0.28"/><path d="m 3.86 17.29 c 0 0.13 0.05 0.25 0.13 0.31 c 0.08 0.06 0.17 0.06 0.25 0 c 0.08 -0.07 0.13 -0.18 0.13 -0.31 c 0 -0.13 -0.05 -0.25 -0.13 -0.31 c -0.08 -0.06 -0.17 -0.06 -0.25 0 c -0.08 0.07 -0.13 0.18 -0.13 0.31"/></g><g style="fill:#ff0"><path d="m 17.33 17.2 c 0 0.17 -0.23 0.3 -0.5 0.3 c -0.28 0 -0.5 -0.13 -0.5 -0.3 c 0 -0.16 0.23 -0.3 0.5 -0.3 c 0.27 0 0.5 0.14 0.5 0.3"/><path d="m 16.34 17.7 c 0 0.16 -0.23 0.3 -0.52 0.3 c -0.29 0 -0.53 -0.14 -0.53 -0.3 c 0 -0.16 0.24 -0.3 0.53 -0.3 c 0.29 0 0.52 0.14 0.52 0.3"/></g><path d="m 15.1 17.21 c -0.19 0.01 -0.3 -0.02 -0.64 -0.18 c -0.34 -0.16 -0.6 -0.38 -0.84 -0.71 c -0.16 -0.21 -0.52 -0.77 -0.51 -0.8 c 0 -0.01 0.15 -0.1 0.33 -0.2 l 0.33 -0.19 l -0.42 -0.8 l 0.04 -0.12 c 0.04 -0.11 0.05 -0.13 0.18 -0.19 c 0.11 -0.06 0.16 -0.07 0.22 -0.06 c 0.15 0.03 0.21 0.1 0.41 0.48 l 0.18 0.35 l 0.37 -0.2 l 0.38 -0.19 l 0.09 0.2 c 0.54 1.21 0.65 1.63 0.5 2.03 c -0.07 0.18 -0.28 0.48 -0.38 0.53 c -0.03 0.02 -0.14 0.04 -0.23 0.04" style="fill:#6e58a3"/><path d="m 14.1 16.44 c 0.01 0.04 -0.01 0.17 -0.03 0.3 c -0.05 0.29 -0.01 0.35 0.26 0.51 c 0.2 0.12 0.34 0.28 0.34 0.39 c 0 0.09 -0.18 0.2 -0.54 0.31 c -0.3 0.06 -0.57 0.21 -0.68 0.44 c -0.02 0.52 -0.24 0.54 -0.37 0.59 c -0.11 0.04 -0.18 -0.05 -0.29 -0.35 c -0.1 -0.34 -0.28 -0.36 -0.56 -0.38 c -0.49 -0.03 -0.63 -0.11 -0.54 -0.3 c 0.04 -0.08 0.09 -0.14 0.27 -0.27 c 0.39 -0.26 0.26 -0.37 0.23 -0.72 c 0 -0.12 -0.01 -0.36 0.12 -0.45 c 0.21 -0.12 0.48 0.06 0.66 0.2 c 0.05 0.08 0.22 0.11 0.29 0.06 c 0.18 -0.14 0.44 -0.64 0.67 -0.59 c 0.07 0.02 0.15 0.15 0.17 0.26" style="fill:#ed8be6"/><path d="m 12.86 17.6 c 0 0.14 0.05 0.27 0.13 0.34 c 0.09 0.07 0.19 0.07 0.27 0 c 0.09 -0.07 0.14 -0.2 0.14 -0.34 c 0 -0.14 -0.05 -0.27 -0.14 -0.34 c -0.08 -0.07 -0.18 -0.07 -0.27 0 c -0.08 0.07 -0.13 0.2 -0.13 0.34" style="fill:#ffeff4"/></svg>