<svg xmlns="http://www.w3.org/2000/svg" viewBox="0 0 22 22"><path d="m 21 7.52 c 4.27 10.95 -7.7 16.57 -15.1 13.78 c -5.2 -1.95 -7.79 -9.71 -4.1 -15.98 c 4.66 -7.92 15.95 -6.23 19.24 2.21" style="fill:#fbdc00"/><path d="m 9.48 20.36 c -1.07 -0.16 -2.63 -0.82 -3.66 -1.57 c -0.64 -0.46 -1.54 -1.35 -2 -2 c -0.71 -0.98 -1.38 -2.48 -1.56 -3.56 c -0.33 -1.25 -0.2 -2.64 0 -3.74 c 0.45 -2.53 2.36 -5 4.74 -6.25 c 0.93 -0.47 2.18 -0.88 2.71 -0.88 c 1.42 -0.27 3.1 -0.05 4.37 0.4 c 3.05 1.11 5.31 3.83 5.85 7 c 0.14 0.82 0.14 2.41 0 3.22 c -0.63 3.67 -3.61 6.69 -7.22 7.33 c -0.69 0.12 -2.44 0.14 -3.19 0.03 m 4.13 -1.32 c 2.37 -0.82 4.2 -2.68 5 -5.08 c 0.58 -1.73 0.55 -3.63 -0.09 -5.42 c -0.86 -2.41 -2.85 -4.26 -5.36 -5 c -0.77 -0.23 -0.83 -0.23 -2.13 -0.23 c -1.3 0 -1.36 0 -2.14 0.23 c -3.72 1.09 -6.17 4.61 -5.83 8.39 c 0.17 1.91 0.75 3.36 1.91 4.73 c 1.28 1.52 3.05 2.47 5.07 2.74 c 1.3 0.18 2.4 0.02 3.55 -0.37 m -6 -2.38 c -0.05 -0.04 -0.13 -0.32 -0.17 -0.62 c -0.1 -0.88 -0.67 -1.08 -1.4 -1.23 c -0.31 -0.07 -0.38 -0.11 -0.49 -0.34 c -0.23 -0.47 -0.64 -1.53 -0.64 -1.69 c 0 -0.08 0.14 -0.36 0.32 -0.61 c 0.46 -0.6 0.29 -1.17 0 -1.62 c -0.18 -0.26 -0.32 -0.53 -0.32 -0.6 c 0 -0.14 0.57 -1.56 0.72 -1.79 c 0.09 -0.14 0.21 -0.19 0.66 -0.26 c 0.7 -0.08 1.05 -0.54 1.14 -1.06 c 0.12 -0.73 0.14 -0.76 1.09 -1.15 c 0.46 -0.19 0.9 -0.35 0.98 -0.35 c 0.07 0 0.33 0.14 0.58 0.32 c 0.59 0.48 1.18 0.3 1.63 0 c 0.26 -0.18 0.52 -0.32 0.57 -0.32 c 0.2 0 1.84 0.73 1.9 0.85 c 0.03 0.06 0.1 0.35 0.15 0.64 c 0.13 0.76 0.33 0.97 1.04 1.09 c 0.34 0.06 0.59 0.14 0.69 0.23 c 0.09 0.08 0.3 0.54 0.49 1.02 l 0.34 0.87 l -0.33 0.49 c -0.38 0.54 -0.42 1.11 -0.11 1.58 c 0.48 0.71 0.47 0.62 0.07 1.63 c -0.2 0.5 -0.41 0.94 -0.47 0.98 c -0.06 0.05 -0.25 0.11 -0.43 0.13 c -0.92 0.12 -1.15 0.32 -1.31 1.14 c -0.06 0.3 -0.14 0.6 -0.18 0.65 c -0.09 0.11 -1.71 0.81 -1.87 0.81 c -0.06 0 -0.32 -0.15 -0.57 -0.34 c -0.41 -0.3 -0.51 -0.34 -0.82 -0.34 c -0.3 0 -0.41 0.04 -0.82 0.34 c -0.25 0.19 -0.52 0.34 -0.6 0.34 c -0.61 -0.27 -1.25 -0.36 -1.82 -0.79 m 5.16 -0.62 c 0.38 -0.19 0.38 -0.2 0.5 -0.68 c 0.11 -0.46 0.16 -0.53 0.61 -0.98 c 0.43 -0.5 0.75 -0.48 1.3 -0.61 c 0.11 -0.03 0.41 -0.65 0.41 -0.84 c 0 -0.05 -0.11 -0.25 -0.25 -0.45 c -0.24 -0.36 -0.25 -0.38 -0.25 -1.09 c 0 -0.71 0 -0.73 0.25 -1.06 c 0.29 -0.4 0.29 -0.44 0.1 -0.91 c -0.11 -0.39 -0.24 -0.38 -0.62 -0.45 c -0.45 -0.08 -0.49 -0.11 -0.96 -0.59 c -0.47 -0.48 -0.5 -0.53 -0.59 -1 c -0.09 -0.48 -0.1 -0.49 -0.41 -0.63 c -0.43 -0.18 -0.53 -0.17 -0.95 0.11 c -0.35 0.24 -0.39 0.25 -1.04 0.25 c -0.65 0 -0.68 -0.01 -1.03 -0.25 c -0.42 -0.29 -0.53 -0.3 -0.96 -0.11 c -0.33 0.14 -0.34 0.16 -0.43 0.75 c -0.04 0.23 -0.14 0.39 -0.55 0.81 c -0.48 0.5 -0.53 0.53 -0.96 0.61 l -0.45 0.08 c -0.13 0.27 -0.26 0.55 -0.39 0.83 l 0.29 0.45 c 0.28 0.44 0.29 0.46 0.29 1.09 c 0 0.64 0 0.65 -0.29 1.09 l -0.29 0.44 c 0.18 0.46 0.33 0.81 0.69 0.87 c 0.55 0.09 0.75 0.21 1.18 0.71 c 0.33 0.38 0.41 0.53 0.48 0.88 c 0.05 0.23 0.11 0.45 0.14 0.49 c 0.27 0.17 0.51 0.23 0.82 0.34 l 0.39 -0.26 c 0.39 -0.26 0.4 -0.26 1.08 -0.26 c 0.68 0 0.69 0 1.07 0.28 c 0.36 0.32 0.5 0.26 0.84 0.09 m -2.77 -1.15 c -1.46 -0.42 -2.42 -1.69 -2.43 -3.21 c 0 -0.77 0.15 -1.3 0.53 -1.87 c 0.43 -0.63 0.47 -0.65 0.85 -0.27 c 0.18 0.18 0.32 0.36 0.32 0.41 c 0 0.05 -0.09 0.23 -0.2 0.39 c -0.29 0.43 -0.46 1.06 -0.41 1.5 c 0.08 0.65 0.5 1.38 0.95 1.64 l 0.21 0.13 l 0.49 -0.77 c 0.27 -0.42 0.46 -0.79 0.44 -0.82 c -0.46 -0.26 -1.13 -0.08 -1.55 -0.45 c -0.08 -0.08 -0.04 -0.21 0.35 -0.9 c 0.25 -0.45 0.69 -1.24 0.98 -1.77 c 0.38 -0.68 0.57 -0.96 0.67 -0.98 c 0.19 -0.02 0.81 0.38 0.81 0.52 c 0 0.06 -0.27 0.59 -0.6 1.18 c -0.33 0.59 -0.61 1.1 -0.61 1.15 c 0.3 0.22 1.68 0.38 1.7 0.63 c 0 0.03 -0.32 0.56 -0.71 1.18 c -0.39 0.63 -0.73 1.18 -0.75 1.23 c -0.03 0.08 0.01 0.09 0.2 0.05 c 1.05 -0.23 1.76 -1.04 1.81 -2.08 c 0.03 -0.64 -0.11 -1.09 -0.48 -1.55 c -0.16 -0.19 -0.28 -0.38 -0.28 -0.43 c 0 -0.05 0.11 -0.22 0.25 -0.39 c 0.35 -0.41 0.5 -0.39 0.88 0.08 c 0.61 0.77 0.86 1.68 0.72 2.66 c -0.28 1.95 -2.28 3.28 -4.14 2.74" style="fill:#042639"/></svg>