<svg xmlns="http://www.w3.org/2000/svg" viewBox="0 0 22 22"><defs><linearGradient id="0" gradientUnits="userSpaceOnUse" x1="12" x2="36" gradientTransform="matrix(0.406 0 0 0.417 1.32 0.76)"><stop style="stop-color:#e2f4fb"/><stop offset="1" style="stop-color:#f9f9f9"/></linearGradient></defs><path d="m 17.52 17.8 c 16.87 -23.56 -20.85 -21.79 -17.1 -4.94 c 1.61 8.16 11.65 12.93 17.1 4.94" style="fill:#009c47"/><path d="m 11.88 14.1 v 0.02 c 0 0.19 0.16 0.34 0.34 0.34 h 3.27 c 0.19 0 0.34 -0.15 0.34 -0.34 v -0.02 c 0 0.19 -0.15 0.34 -0.34 0.34 h -3.27 c -0.19 0 -0.34 -0.16 -0.34 -0.34 m 0 0.04 v 0.04 c 0 0.19 0.16 0.34 0.34 0.34 h 3.27 c 0.19 0 0.34 -0.16 0.34 -0.34 v -0.04 c 0 0.19 -0.15 0.34 -0.34 0.34 h -3.27 c -0.19 0 -0.34 -0.16 -0.34 -0.34" style="fill-opacity:0.02"/><g style="fill-rule:evenodd"><path d="m 6.2 12 l 3.25 3.33 l 6.5 -7.08 l -1.22 -1.25 l -5.28 5.83 l -2.03 -2.08" style="fill-opacity:0.1"/><path d="m 6.2 11.59 l 3.25 3.33 l 6.5 -7.08 l -1.22 -1.25 l -5.28 5.83 l -2.03 -2.08" style="fill:url(#0)"/></g></svg>