<svg xmlns="http://www.w3.org/2000/svg" viewBox="0 0 22 22" xmlns:xlink="http://www.w3.org/1999/xlink"><defs><linearGradient id="8" gradientUnits="userSpaceOnUse" x1="3.63" y1="9.27" x2="2.93" y2="11.56" gradientTransform="matrix(0.746 0 0 0.812 4 3.88)" xlink:href="#1"/><linearGradient id="D" gradientUnits="userSpaceOnUse" x1="4.66" y1="4.27" x2="5.25" y2="3.93" gradientTransform="matrix(0.746 0 0 0.812 4 3.88)" xlink:href="#0"/><linearGradient id="9" gradientUnits="userSpaceOnUse" x1="8.5" y1="14.54" x2="9.13" y2="13.46" gradientTransform="matrix(0.746 0 0 0.812 4 3.88)" xlink:href="#1"/><linearGradient id="B" gradientUnits="userSpaceOnUse" x1="93.9" y1="45.7" x2="93.1" y2="57.5" gradientTransform="matrix(0.11 0 0 0.119 3.85 3.27)" xlink:href="#A"/><linearGradient id="C" gradientUnits="userSpaceOnUse" x1="103.5" y1="21.85" x2="103.1" y2="27.94" gradientTransform="matrix(0.11 0 0 0.119 3.87 3.61)" xlink:href="#A"/><linearGradient id="A" gradientUnits="userSpaceOnUse" x1="118.9" y1="63.1" x2="117.9" y2="78.7" gradientTransform="matrix(0.11 0 0 0.119 3.36 3.53)"><stop style="stop-color:#007f66;stop-opacity:0"/><stop offset="1" style="stop-color:#0fc"/></linearGradient><linearGradient id="7" gradientUnits="userSpaceOnUse" x1="2.45" y1="10.13" x2="2.2" y2="9.64" gradientTransform="matrix(0.746 0 0 0.812 4 3.88)" xlink:href="#1"/><linearGradient id="0" gradientUnits="userSpaceOnUse" y1="8.6" x2="0" y2="8.96" gradientTransform="matrix(0.746 0 0 0.812 4 3.88)"><stop style="stop-color:#001212"/><stop offset="1" style="stop-color:#001212;stop-opacity:0"/></linearGradient><linearGradient id="1" gradientUnits="userSpaceOnUse" x1="7.37" y1="2.11" x2="6.32" y2="4.08" gradientTransform="matrix(0.746 0 0 0.812 4 3.88)"><stop style="stop-color:#020202"/><stop offset="1" style="stop-color:#020202;stop-opacity:0"/></linearGradient><linearGradient id="6" gradientUnits="userSpaceOnUse" x1="5.47" y1="14.66" x2="4.79" y2="14.31" gradientTransform="matrix(0.746 0 0 0.812 4 3.88)" xlink:href="#0"/><linearGradient id="2" gradientUnits="userSpaceOnUse" x1="1022.5" y1="1582.4" x2="1018.6" y2="1575.6" gradientTransform="matrix(0.064 0 0 0.067 -55.1 -97.6)" xlink:href="#1"/><linearGradient id="4" gradientUnits="userSpaceOnUse" x1="4.92" y1="5.31" x2="3.74" y2="5.3" gradientTransform="matrix(0.746 0 0 0.812 4 3.88)" xlink:href="#1"/><linearGradient id="5" gradientUnits="userSpaceOnUse" x1="3.29" y1="12.41" x2="4.56" y2="12.4" gradientTransform="matrix(0.746 0 0 0.812 4 3.88)" xlink:href="#1"/><linearGradient id="3" gradientUnits="userSpaceOnUse" x1="2.8" y1="8.76" x2="1.97" y2="7.25" gradientTransform="matrix(0.746 0 0 0.812 4 3.88)" xlink:href="#1"/></defs><path d="m 1.04 15.1 c -8.27 -26.74 36.1 -13.37 15.38 4.96 c -4.16 3.67 -13.15 2.26 -15.38 -4.96" style="fill:#007f7f"/><path d="m 7.23 5.43 h 6.23 l -1.57 2.96 h -3.38 l -1.41 2.64 l 1.43 2.69 h 6.59 l -1.62 3.04 h -6.39 l -3.09 -5.8 l 2.95 -5.56" style="fill:#fff"/><g style="fill:#00aa87"><path d="m 6.96 5.41 l 4.91 3 l 1.57 -2.96"/><path d="m 8.55 13.73 l -1.43 3.04 h 6.39 l 1.62 -3.04"/></g><path d="m 6.96 5.41 l 4.91 3 h -3.38 l -1.41 2.64 l 1.43 2.69 l -1.43 3.04 l -3.09 -5.8 l 2.95 -5.56" style="fill:#0cf"/><path d="m 4 10.97 l 3.09 0.08 l 0.09 0.16 l -3.07 -0.07" style="fill:url(#0)"/><path d="m 11.87 8.41 l -4.91 -3 l -0.38 0.73 l 3.72 2.24" style="fill:url(#1)"/><path d="m 8.47 8.37 l 5 -3.07 l -1.62 2.89" style="fill:url(#2)"/><g style="fill:#00aa87"><path d="m 8.47 8.41 l 4.95 -2.96 l -1.57 2.96"/><path d="m 4 10.97 l 4.47 -2.56 l -1.41 2.64"/></g><path d="m 4 10.97 l 4.47 -2.56 l -0.3 -0.52 l -3.87 2.43" style="fill:url(#3)"/><path d="m 8.47 8.41 l -1.54 -3 l 0.13 5.64" style="fill:#00aa87"/><path d="m 8.55 13.73 l 4.96 3.04 l 1.62 -3.04" style="fill:#0cf"/><path d="m 6.96 5.41 l -0.38 0.73 l 0.04 4.87 l 0.47 0.02" style="fill:url(#4)"/><path d="m 7.09 11.1 l -2.36 1.28 l 2.36 4.44" style="fill:#00aa87"/><path d="m 7.09 11.1 v 5.76 l 0.57 -1.22 l 0.05 -3.36" style="fill:url(#5)"/><path d="m 7.09 16.77 l -0.22 -0.44 l 1.43 -3 l 0.21 0.4" style="fill:url(#6)"/><path d="m 4.73 12.33 l 2.36 -1.28 l -0.47 -0.02 l -2.04 1.06" style="fill:url(#7)"/><path d="m 4.73 12.33 l 3.78 1.4 l -1.43 -2.69" style="fill:#00aa87"/><path d="m 8.55 13.73 l -3.79 -1.4 l 0.41 0.77 l 3.11 1.23" style="fill:url(#8)"/><path d="m 8.55 13.73 l 4.96 3.04 l 0.6 -1.15 l -3.2 -1.91" style="fill:url(#9)"/><path d="m 17.36 12.52 c 0 0.64 -0.48 1.16 -1.06 1.16 c -0.59 0 -1.06 -0.52 -1.06 -1.16 c 0 -0.64 0.48 -1.16 1.06 -1.16 c 0.59 0 1.06 0.52 1.06 1.16" style="fill:#0cf"/><path d="m 17.38 12.51 c 0 0.64 -0.48 1.16 -1.06 1.16 c -0.59 0 -1.06 -0.52 -1.06 -1.16 c 0 -0.64 0.47 -1.16 1.06 -1.16 c 0.59 0 1.06 0.52 1.06 1.16" style="fill:url(#A)"/><path d="m 14.86 9.83 c 0 0.49 -0.36 0.88 -0.81 0.88 c -0.45 0 -0.81 -0.39 -0.81 -0.88 c 0 -0.48 0.36 -0.88 0.81 -0.88 c 0.45 0 0.81 0.39 0.81 0.88" style="fill:#0cf"/><path d="m 14.87 9.82 c 0 0.49 -0.36 0.88 -0.8 0.88 c -0.45 0 -0.81 -0.39 -0.81 -0.88 c 0 -0.48 0.36 -0.88 0.81 -0.88 c 0.45 0 0.8 0.39 0.8 0.88" style="fill:url(#B)"/><path d="m 15.59 6.79 c 0 0.25 -0.19 0.45 -0.42 0.45 c -0.23 0 -0.41 -0.2 -0.41 -0.45 c 0 -0.25 0.19 -0.45 0.41 -0.45 c 0.23 0 0.42 0.2 0.42 0.45" style="fill:#0cf"/><path d="m 15.59 6.79 c 0 0.25 -0.19 0.45 -0.42 0.45 c -0.23 0 -0.41 -0.2 -0.41 -0.45 c 0 -0.25 0.19 -0.45 0.41 -0.45 c 0.23 0 0.42 0.2 0.42 0.45" style="fill:url(#C)"/><path d="m 8.47 8.41 l -1.54 -3 h 0.39 l 1.45 2.8" style="fill:url(#D)"/></svg>