<svg xmlns="http://www.w3.org/2000/svg" viewBox="0 0 22 22"><path d="m 4.53 3.42 c -16.3 19.25 16.2 26.7 17.43 6.89 c 0.52 -8.1 -11.2 -14.27 -17.43 -6.89" style="fill:#4581b3"/><path d="m 5.82 16 c -0.52 -0.27 -0.76 -0.68 -0.73 -1.28 c 0.01 -0.38 0.05 -0.49 0.23 -0.77 c 0.27 -0.41 0.8 -0.69 1.3 -0.69 c 1.02 0 1.74 1.05 1.34 1.97 c -0.36 0.84 -1.34 1.19 -2.14 0.78 m 1.13 -0.64 c 0.22 -0.11 0.37 -0.36 0.38 -0.64 c 0.02 -0.57 -0.54 -0.9 -1.11 -0.65 c -0.49 0.21 -0.54 1.04 -0.07 1.29 c 0.21 0.12 0.57 0.12 0.81 0 m 1.39 0.76 c -0.04 -0.06 3.42 -8.7 3.6 -9 c 0.06 -0.1 0.19 -0.12 1.1 -0.12 c 0.8 0 1.04 0.02 1.07 0.09 c 0.03 0.09 -3.49 8.88 -3.62 9 c -0.09 0.11 -2.09 0.12 -2.15 0.02 m 3.2 -4.46 c 0.84 -2.07 1.53 -3.8 1.54 -3.85 c 0 -0.06 -0.09 -0.08 -0.32 -0.07 l -0.32 0.02 l -1.54 3.8 c -0.84 2.09 -1.54 3.82 -1.54 3.86 c 0 0.03 0.14 0.04 0.32 0.03 l 0.33 -0.02 m 1.28 0.68 c -0.04 -0.1 3.48 -8.87 3.62 -9 c 0.09 -0.1 2.09 -0.12 2.15 -0.02 c 0.03 0.05 -3.19 8.13 -3.56 8.92 l -0.1 0.22 h -1.04 c -0.83 0 -1.05 -0.02 -1.07 -0.09 m 3.2 -4.48 c 0.85 -2.09 1.54 -3.82 1.54 -3.85 c 0 -0.03 -0.14 -0.05 -0.32 -0.05 h -0.33 l -1.28 3.18 c -0.71 1.75 -1.41 3.49 -1.57 3.87 l -0.28 0.69 l 0.35 -0.02 l 0.35 -0.02 m -6.97 -3.37 c -1.09 -0.54 -1.03 -2.08 0.09 -2.64 c 0.96 -0.47 2.17 0.27 2.14 1.31 c -0.02 0.43 -0.33 0.97 -0.72 1.23 c -0.41 0.27 -1.09 0.32 -1.52 0.1 m 1.13 -0.67 c 0.18 -0.09 0.34 -0.41 0.36 -0.69 c 0.01 -0.36 -0.34 -0.7 -0.73 -0.7 c -0.24 0 -0.33 0.04 -0.53 0.23 c -0.2 0.19 -0.25 0.28 -0.25 0.51 c -0.02 0.62 0.57 0.95 1.16 0.66" style="fill:#f4f4f4"/></svg>