<svg xmlns="http://www.w3.org/2000/svg" viewBox="0 0 22 22"><path d="m 1.04 15.1 c -8.27 -26.74 36.1 -13.37 15.38 4.96 c -4.16 3.67 -13.15 2.26 -15.38 -4.96" style="fill:#3d005f"/><path d="m 6.16 13.78 c 0 -0.32 -0.06 -0.59 -0.38 -0.59 c -0.13 0 -0.33 0.12 -0.31 -0.15 c 0 -0.05 0.01 -0.23 -0.02 -0.3 c -0.03 -0.09 0.04 -0.15 0.23 -0.19 c 0.39 -0.08 0.33 -0.2 0.33 -0.5 c 0 -0.21 0.23 -0.28 0.39 -0.28 c 0.28 0 0.41 -0.16 0.41 -0.5 c 0 -0.26 -0.03 -0.3 -0.29 -0.35 c -0.42 -0.08 -0.59 0.01 -0.59 0.32 c 0 0.23 -0.03 0.26 -0.25 0.26 c -0.31 0 -0.46 0.15 -0.46 0.47 c 0.12 0.54 0.03 0.52 -0.55 0.46 v -1.05 c -0.02 -1.18 -0.11 -1.23 -0.43 -1.27 c -0.27 -0.03 -0.28 -0.03 -0.3 -0.59 c -0.04 -0.7 0.07 -0.93 0.42 -0.93 c 0.26 0 0.26 0 0.26 -0.52 c 0 -0.77 0.06 -0.91 0.41 -0.98 c 0.29 -0.05 0.3 -0.07 0.3 -0.49 c 0 -0.68 -0.08 -1 0.27 -1 c 0.29 0 0.42 0.02 0.39 -0.48 c -0.02 -0.35 0.2 -0.29 0.6 -0.26 c 0.12 0.01 0.16 0.09 0.16 0.32 c 0 0.34 0.41 0.16 0.77 0.26 c 0.16 0.04 0.05 0.46 0.04 0.56 c -0.04 0.32 0.01 0.38 0.29 0.38 c 0.41 0 0.41 -0.16 0.37 -0.51 c -0.03 -0.29 -0.05 -0.31 -0.36 -0.34 l -0.33 -0.03 v -1.32 c 0.74 -0.13 1.37 -0.11 2.1 -0.12 l 0.03 0.7 l 0.02 0.7 c 0.26 0.02 0.51 0.04 0.77 0.05 l -0.06 -0.54 c -0.1 -0.86 -0.04 -0.92 1 -0.92 c 0.48 0 0.93 0.03 1 0.05 c 0.09 0.04 0.14 0.17 0.14 0.4 c 0 0.35 0 0.35 0.38 0.38 c 0.56 -0.04 0.14 0.68 0.53 0.68 c 0.55 -0.05 0.6 0 0.59 0.42 c -0.02 0.58 0.11 0.29 0.36 0.32 c 0.25 0.04 0.31 0.09 0.33 0.27 c 0.06 0.55 0.11 0.63 0.36 0.63 c 0.23 0 0.25 0.03 0.3 0.48 c 0.07 0.64 0.07 1.45 -0.01 1.57 c -0.04 0.06 -0.32 0.07 -0.43 0.09 c -0.18 0.02 -0.07 0.14 -0.1 0.42 c -0.02 0.32 -0.01 0.34 0.23 0.34 c 0.16 0 0.28 0.06 0.31 0.15 c 0.08 0.21 -0.43 1.05 -0.77 0.91 c -0.29 -0.13 -0.43 -1.09 -1.14 -1.2 c -0.29 -0.05 -0.46 -0.17 -0.47 -0.39 c 0 -0.23 -0.34 -0.29 -0.46 -0.13 c -0.11 0.16 0.25 0.43 -0.41 0.32 c -0.77 -0.12 -1.45 0.01 -2.18 0.01 c -0.42 0 -0.41 0.13 -0.41 -0.1 c 0 -0.13 -0.03 -0.16 -0.09 -0.17 c -0.44 -0.04 -0.27 0.14 -0.27 0.25 c 0 0.25 -0.05 0.38 -0.54 0.34 c -0.32 -0.02 -0.33 -0.01 -0.38 0.35 c -0.05 0.36 -0.07 0.37 -0.4 0.37 h -0.34 v 0.41 c 0 0.59 0.6 0.07 0.6 0.58 c 0 0.59 0.29 0.85 -0.65 0.84 c -0.05 0.63 0.05 1.08 -0.12 1.1 c -0.17 0 -1.2 0.21 -1.2 0.01 m -0.14 -4 c 0.03 -0.32 0.02 -0.33 -0.33 -0.36 l -0.36 -0.04 c 0 0.26 0 0.52 0 0.79 l 0.33 -0.03 c 0.32 -0.03 0.35 0.16 0.36 -0.36 m 1.38 0.32 c 0.09 -0.04 0.14 -0.17 0.14 -0.36 c 0 -0.3 0 -0.31 -0.39 -0.31 h -0.39 v 0.36 c 0 0.34 0.02 0.36 0.25 0.36 c 0.14 0 0.32 -0.02 0.4 -0.05 m 6.64 -1.08 c 0 -0.32 -0.31 -0.36 -0.73 -0.36 c -0.23 0 -0.05 -0.09 -0.07 -0.39 c -0.02 -0.28 -0.07 -0.35 -0.24 -0.37 c -0.24 -0.04 -0.36 0.11 -0.36 0.46 c 0 0.22 0.03 0.25 0.3 0.25 c 0.3 0 0.31 0.01 0.31 0.35 c 0 0.19 0.02 0.36 0.04 0.39 c 0.02 0.02 0.2 0.02 0.39 0 c 0.34 -0.03 0.36 -0.05 0.36 -0.33 m -3.71 -0.13 c -0.02 -0.26 -0.51 -0.21 -0.54 -0.02 c -0.01 0.06 -0.08 0.36 0 0.36 c 0.38 -0.04 0.59 0.22 0.54 -0.34 m 1.26 0.04 c -0.06 -0.33 -0.29 -0.07 -0.43 -0.07 c -0.2 0 -0.12 0.4 -0.02 0.47 c 0.07 0.05 0.25 -0.09 0.39 -0.09 c 0.2 0 0.07 -0.19 0.05 -0.31 m -5.45 -1.04 c -0.26 0 -0.53 0 -0.79 0 c 0 0.24 0 0.48 0 0.73 c 0.26 0 0.53 0 0.79 0 c 0 -0.24 0 -0.48 0 -0.73 m 2.81 0.36 c 0 -0.36 0 -0.36 -0.35 -0.36 c -0.35 0 -0.35 0 -0.35 0.36 c 0 0.36 0 0.36 0.35 0.36 c 0.35 0 0.35 0 0.35 -0.36 m 1.45 -1.86 h -0.7 c -0.67 0 -0.7 0.01 -0.73 0.21 c -0.06 0.42 -0.16 0.53 0.59 0.5 l 0.89 -0.04 c 0.22 -0.01 -0.04 -0.45 -0.05 -0.68 m 1.45 0.32 c 0 -0.27 -0.04 -0.37 -0.18 -0.41 c -0.35 -0.12 -0.53 0.03 -0.53 0.41 c 0 0.36 0 0.36 0.35 0.36 c 0.35 0 0.35 0 0.35 -0.36 m 0.7 -1.08 c 0 -0.75 -0.14 -0.55 -0.54 -0.55 c -0.16 0 -0.17 0.18 -0.17 0.85 c 0 0.36 0.05 0.41 0.41 0.41 h 0.29" style="fill:#ee79ed"/><path d="m 8.98 18.38 c -0.1 -0.06 -0.11 -0.3 -0.11 -3.54 v -3.47 h 0.27 c 0.43 0 0.47 -0.04 0.47 -0.39 c 0 -0.27 0 -0.45 0.13 -0.49 c 0.98 0.04 1.23 0.01 2.27 -0.03 c -0.04 0.84 0.51 0.39 0.54 0.65 c 0.26 0.03 0.57 0.18 0.83 0.21 l 0.04 0.38 l 0.07 0.61 h 0.98 c -0.04 1.46 1.18 0.27 1.27 1.06 c 0 0.32 0.08 0.39 0.39 0.39 c -0.04 0.84 0.8 0.25 0.92 0.97 c -0.02 0.46 -0.64 1.02 -0.64 1.13 c 0 0.18 -0.01 0.18 -0.26 0.18 c -0.4 0 -1.06 0.13 -1.11 0.21 c -0.03 0.04 -0.05 0.18 -0.05 0.32 c 0 0.19 -0.02 0.48 -0.12 0.48 c -0.37 0 -1.4 -0.09 -1.44 -0.04 c -0.02 0.04 -0.02 0.18 -0.01 0.31 l 0.03 0.24 c -0.52 0.07 -1.08 0.07 -1.53 0.04 l -0.03 -0.25 c -0.05 -0.38 -0.09 -0.41 -0.47 -0.41 h -0.34 v 0.7 c 0 0.63 -0.01 0.71 -0.12 0.77 c -0.16 0.09 -1.86 0.08 -2 0 m 3.3 -5.49 c -0.21 -0.02 -0.49 -0.01 -0.44 -0.15 c -0.04 -0.2 0.04 -0.64 -0.01 -0.67 c -0.05 -0.03 -0.21 -0.05 -0.38 -0.05 c -0.47 0.07 -0.34 0.07 -0.34 -0.64 c -0.27 0 -0.53 0 -0.8 0 c -0.02 0.21 0.05 0.56 -0.02 0.73 c -0.35 0.02 -0.38 0.01 -0.74 0.01 l 0.03 1.21 c 0.67 -0.05 0.55 0 0.59 0.68 c 2.29 -0.14 2.2 0.34 2.11 -1.11 m 2.53 3.23 c 0.18 -0.04 0.19 -0.06 0.19 -0.32 c 0 -0.42 -0.04 -0.47 -0.34 -0.47 c -0.32 0 -0.46 0.12 -0.46 0.41 c 0 0.41 0.11 0.48 0.61 0.38" style="fill:#d156d5"/></svg>