<svg xmlns="http://www.w3.org/2000/svg" viewBox="0 0 22 22"><path d="m 20.1 5.82 c 5.92 7.91 -3.55 17.55 -11.18 15.88 c -7.51 -0.98 -12 -12.41 -6.24 -18.21 c 4.25 -4.18 11.5 -5.57 17.42 2.33" style="fill:#e86a21"/><path d="m 13.88 16.66 c -0.31 -0.23 -1.75 -1.02 -1.79 -1.28 c 0 -0.09 1.14 -1.83 1.37 -2.1 c 0.22 -0.25 0.77 -0.52 1.21 -0.59 c 0.2 -0.03 0.4 -0.07 0.44 -0.09 c 0.04 -0.02 0.48 -0.81 0.96 -1.76 c 0.49 -0.94 0.93 -1.76 0.97 -1.81 c 0.55 -0.45 1.12 0.01 1.12 0.51 c 0 0.3 -0.05 0.4 -0.91 2.05 l -0.9 1.73 l 0.17 0.34 c 0.22 0.45 0.33 1.1 0.25 1.5 c -0.34 0.78 -0.48 1.62 -0.93 2.34 c -0.7 -0.15 -1.37 -0.5 -1.98 -0.84 m -7.93 0.14 c -0.27 -0.1 -0.65 -0.51 -0.72 -0.79 c -0.08 -0.31 -0.08 -8.93 0 -9.24 c 0.08 -0.3 0.49 -0.73 0.78 -0.81 c 0.29 -0.08 0.69 -0.08 0.77 0.01 c 0.04 0.04 0.07 0.25 0.07 0.54 c 0 0.55 0.09 0.79 0.37 1.02 c 0.32 0.21 0.78 0.21 1.05 0 c 0.29 -0.23 0.37 -0.46 0.37 -1.02 c 0 -0.29 0.02 -0.5 0.06 -0.54 c 0.09 -0.1 4.27 -0.1 4.36 0 c 0.04 0.04 0.07 0.25 0.07 0.54 c 0 0.55 0.08 0.79 0.37 1.02 c 0.32 0.21 0.78 0.21 1.05 0 c 0.28 -0.23 0.37 -0.46 0.37 -1.02 c 0 -0.29 0.03 -0.5 0.07 -0.54 c 0.08 -0.09 0.49 -0.09 0.77 -0.01 c 0.29 0.09 0.7 0.51 0.78 0.81 c 0.08 0.86 0.06 1.51 0.06 2.41 c -0.14 0.23 -0.58 1.29 -0.73 1.16 c -0.05 -0.05 -0.07 -0.23 -0.07 -0.71 c 0 -0.71 -0.06 -0.91 -0.3 -1.02 c -0.11 -0.05 -1.26 -0.07 -4.6 -0.07 c -4.84 0 -4.69 -0.01 -4.82 0.31 c -0.05 0.11 -0.07 1.01 -0.07 3.45 c 0 3.58 0 3.54 0.3 3.68 c 0.11 0.05 0.93 0.07 3.11 0.07 h 2.97 c 0.24 0.15 1.25 0.62 1.13 0.77 c -0.1 0.12 -7.21 0.12 -7.54 0 m 0.43 -1.23 c -0.03 -0.43 -0.01 -0.75 0 -1.2 c 0.61 0 1.23 0 1.84 0 c 0 0.41 0 0.82 0 1.24 c -0.55 -0.08 -1.17 -0.07 -1.84 -0.04 m 0 -1.8 c -0.03 -0.42 -0.01 -0.75 0 -1.2 c 0.61 0 1.23 0 1.84 0 c 0 0.41 0 0.83 0 1.24 c -0.78 0.01 -1.27 -0.04 -1.84 -0.05 m 2.38 0 c -0.03 -0.42 -0.01 -0.75 0 -1.2 c 0.61 0 1.23 0 1.84 0 c 0 0.41 0 0.83 0 1.24 c -0.59 -0.05 -1.2 0.06 -1.84 -0.05 m 2.38 0 c -0.03 -0.43 -0.01 -0.75 0 -1.2 c 0.61 0 1.23 0 1.84 0 l 0.02 0.31 c -0.02 0.47 -0.18 0.58 -0.44 0.96 h -0.7 c -0.52 0 -0.7 -0.02 -0.72 -0.07 m -4.76 -1.8 c -0.03 -0.42 -0.01 -0.75 0 -1.2 c 0.61 0 1.23 0 1.84 0 c 0 0.41 0 0.83 0 1.24 l -0.91 0.02 c -0.72 0.01 -0.91 0 -0.94 -0.06 m 2.38 0 c -0.03 -0.42 -0.01 -0.75 0 -1.2 c 0.61 0 1.23 0 1.84 0 c 0 0.41 0 0.83 0 1.24 c -0.71 0.05 -1.49 0.03 -1.84 -0.05 m 2.38 0 c -0.03 -0.42 -0.01 -0.75 0 -1.2 c 0.61 0 1.23 0 1.84 0 c 0 0.41 0 0.83 0 1.24 l -0.91 0.02 c -0.72 0.01 -0.91 0 -0.94 -0.06 m 2.38 0 c -0.03 -0.42 -0.01 -0.75 0 -1.2 c 0.61 0 1.23 0 1.84 0 l 0.02 0.29 c -0.02 0.42 -0.16 0.59 -0.35 0.96 c -0.45 -0.06 -1.23 -0.03 -1.5 -0.05 m -2.38 -1.8 c -0.03 -0.43 -0.01 -0.75 0 -1.2 c 0.61 0 1.23 0 1.84 0 c 0 0.41 0 0.82 0 1.24 l -0.91 0.02 c -0.72 0.01 -0.91 0 -0.94 -0.06 m 2.38 0 c -0.03 -0.43 -0.01 -0.75 0 -1.2 c 0.61 0 1.23 0 1.84 0 c 0 0.41 0 0.82 0 1.24 l -0.91 0.02 c -0.72 0.01 -0.91 0 -0.93 -0.06 m -6 -2.89 c -0.27 -0.15 -0.31 -0.33 -0.31 -1.29 c 0 -0.98 0.04 -1.14 0.32 -1.3 c 0.2 -0.11 0.29 -0.11 0.49 0 c 0.28 0.15 0.32 0.32 0.32 1.3 c 0 0.98 -0.04 1.14 -0.32 1.3 c -0.2 0.11 -0.31 0.1 -0.5 0 m 6.27 0 c -0.27 -0.15 -0.31 -0.33 -0.31 -1.29 c 0 -0.98 0.04 -1.14 0.32 -1.3 c 0.2 -0.11 0.29 -0.11 0.49 0 c 0.28 0.15 0.32 0.32 0.32 1.3 c 0 0.98 -0.04 1.14 -0.32 1.3 c -0.2 0.11 -0.31 0.1 -0.5 0" style="fill:#fff"/><path d="m 13.45 13.71 c 0 -0.16 0.14 -0.26 0.29 -0.39 c 0.09 -0.09 0.12 -0.04 0.22 0 c 0.18 0.08 2.11 1.16 2.43 1.34 c 0.13 0.08 0.24 0.16 0.26 0.17 c 0.05 0.07 -0.05 0.57 -0.11 0.57 c -1 -0.57 -2.13 -1 -3.08 -1.7" style="fill:#e86a21"/></svg>