<svg xmlns="http://www.w3.org/2000/svg" viewBox="0 0 22 22"><path d="m 21.53 13.1 c -0.86 2 -2.12 4.8 -2.28 5 c -0.1 0.15 -0.36 0.41 -0.57 0.57 c -0.6 0.46 -4.92 2.93 -5.3 3.04 c -0.36 0.1 -1.66 0.05 -2.83 -0.1 c -3.47 -0.34 -3.39 -0.17 -4.14 -0.63 c -0.2 -0.1 -1.35 -1.08 -2.55 -2.19 c -2.31 -2.13 -2.5 -2.35 -2.67 -3.25 c -0.42 -2.41 -0.93 -3.94 -1.06 -6.11 c 0.82 -1.93 1.68 -4 2.71 -5.84 c 0.25 -0.29 0.88 -0.71 2.5 -1.66 c 3.32 -1.95 2.96 -1.79 4.12 -1.78 c 1.8 0.2 4.82 0.18 6.1 0.81 c 0.41 0.22 3.61 3.05 4.46 3.95 c 0.42 0.45 0.62 0.89 0.83 1.93 c 0.39 1.05 0.79 3.51 0.95 4.36 c 0.11 0.48 0.07 1.05 -0.27 1.84" style="fill:#00707d"/><path d="m 4.82 14.76 c 0 -0.11 2.54 -1.6 2.73 -1.6 c 0.74 0.56 2.66 1.23 3.18 1.84 c 0.14 0.19 0.13 3.04 -0.01 3.13 c -1.86 -0.48 -4.49 -1.88 -5.9 -3.37" style="fill:#4c3e33"/><path d="m 4.56 14 c -0.11 -0.67 -0.11 -5.48 0 -6 c 0.05 -0.23 0.16 -0.43 0.24 -0.42 c 0.96 0.44 1.65 0.87 2.61 1.43 c 0.16 0.86 -0.09 3.04 0.25 3.72 c 0.07 0.1 0.04 0.17 -0.06 0.17 c -1.09 0.45 -1.81 1.09 -2.92 1.64 c -0.02 0 -0.07 -0.23 -0.12 -0.51" style="fill:#79563b"/><path d="m 4.75 7.29 c -0.02 -0.3 4.74 -3.12 5.83 -3.46 l 0.31 -0.09 c 0 1.16 0 2.33 0 3.5 c -1.17 0.46 -2.32 1.19 -3.21 1.78 c -0.89 -0.66 -2.14 -0.96 -2.93 -1.73" style="fill:#99cd61"/><path d="m 11 7.17 c 0 -1.14 0 -2.27 0 -3.41 l 0.38 0.14 c 0.88 0.34 2.35 1.17 3.87 2.2 c 0.89 0.61 1.63 1.12 1.63 1.14 c 0 0.05 -2.03 1.28 -2.53 1.54 c -1.08 -0.2 -2.3 -1.09 -3.35 -1.61" style="fill:#de6277"/><path d="m 14.1 9.13 c 0.42 -0.23 2.84 -1.81 3.09 -1.68 c 0.22 1.19 0.2 2.13 0.25 3.41 c -0.94 0.08 -1.95 0.2 -2.87 0.09 c -0.48 0.08 -0.39 -1.32 -0.47 -1.82" style="fill:#f3db6b"/><path d="m 14.23 12.91 c 0.18 -0.77 0.02 -1.07 0.13 -1.78 c 1.03 0 2.05 0 3.09 0 v 1.07 c 0 1.19 -0.13 2.34 -0.26 2.34 c -0.83 -0.29 -2.21 -1.52 -2.96 -1.63" style="fill:#79b292"/><path d="m 11 14.74 c 1.19 -0.6 2.09 -1.09 3.2 -1.73 c 0.48 0.37 2.41 1.22 2.63 1.65 c 0.11 0.31 -5.11 3.44 -5.74 3.44 c -0.27 -1.3 -0.13 -1.91 -0.09 -3.37" style="fill:#6395ec"/><path d="m 11.26 10.98 l 1.36 -0.76 c 1.57 -0.88 1.52 -0.91 1.54 0.8 c 0.02 1.44 -0.13 1.82 -0.86 2.3 c -0.61 0.4 -1.9 1.09 -2.04 1.09 c -0.08 -1.2 -0.03 -2.13 0 -3.43" style="fill:#dcdcdc"/><path d="m 7.89 12.45 c -0.15 -0.43 -0.19 -2.28 -0.05 -2.77 c 0.66 -0.26 2.02 0.78 3.13 1.39 c -0.05 0.44 0.25 3.31 -0.1 3.34 c -0.86 -0.36 -2.73 -1.29 -2.97 -1.96" style="fill:#d2d2d2"/><path d="m 7.9 9.27 c -0.02 -0.3 2.56 -1.82 3.09 -1.82 c 0.32 0 2.33 1.14 2.77 1.57 c 0.29 0.29 0.3 0.34 0.09 0.34 c -0.27 0 -2.43 1.14 -2.72 1.43 c -0.76 -0.19 -2.3 -1.02 -3.23 -1.52" style="fill:#fff"/></svg>