<svg xmlns="http://www.w3.org/2000/svg" xmlns:xlink="http://www.w3.org/1999/xlink" viewBox="0 0 22 22"><defs><g id="3" style="clip-path:url(#2)"><path d="m 87.2 71.1 h 76.3 c 2.95 0 5.36 2.41 5.36 5.36 v 116.9 c 0 3 -2.41 5.36 -5.36 5.36 h -76.3 c -3 0 -5.36 -2.36 -5.36 -5.36 v -116.9 c 0 -2.95 2.36 -5.36 5.36 -5.36" transform="scale(0.086)" style="fill:#7f7d7f;stroke:#fff;stroke-linecap:round;stroke-width:1.03"/></g><g id="6" style="clip-path:url(#5)"><path d="m 87.2 52.59 h 76.7 c 2.95 0 5.36 2.41 5.36 5.36 v 116.9 c 0 3 -2.41 5.36 -5.36 5.36 h -76.7 c -3 0 -5.36 -2.36 -5.36 -5.36 v -116.9 c 0 -2.95 2.36 -5.36 5.36 -5.36" transform="scale(0.086)" style="fill:#3d3745;stroke:#fff;stroke-linecap:round;stroke-width:1.03"/></g><g id="9" style="clip-path:url(#8)"><path d="m 107.7 66 h 37.1 c 9.5 0 17.2 6.23 17.2 13.91 c 0 7.73 -7.68 13.95 -17.2 13.95 h -37.1 c -9.5 0 -17.23 -6.23 -17.23 -13.95 c 0 -7.68 7.73 -13.91 17.23 -13.91" transform="scale(0.086)" style="fill:#3584e4;stroke:#fff;stroke-linecap:round;stroke-width:1.19"/></g><g id="C" style="clip-path:url(#B)"><path d="m 105.5 103.6 h 37.1 c 9.5 0 17.23 6.23 17.23 13.91 c 0 7.68 -7.73 13.91 -17.23 13.91 h -37.1 c -9.5 0 -17.23 -6.23 -17.23 -13.91 c 0 -7.68 7.73 -13.91 17.23 -13.91" transform="scale(0.086)" style="fill:#c0bfbb;stroke:#fff;stroke-linecap:round;stroke-width:1.19"/></g><g id="F" style="clip-path:url(#E)"><path d="m 241.2 80.9 c 0 8.14 -6.2 14.71 -13.86 14.71 c -7.62 0 -13.82 -6.57 -13.82 -14.71 c 0 -8.14 6.2 -14.71 13.82 -14.71 c 7.66 0 13.86 6.57 13.86 14.71" transform="matrix(0.105 0 0 0.094 -14.74 2.49)" style="fill:#fff;stroke:#fff;stroke-linecap:round"/></g><g id="I" style="clip-path:url(#H)"><path d="m 106.4 142 h 37.1 c 9.5 0 17.23 6.23 17.23 13.95 c 0 7.68 -7.73 13.91 -17.23 13.91 h -37.1 c -9.5 0 -17.23 -6.23 -17.23 -13.91 c 0 -7.73 7.73 -13.95 17.23 -13.95" transform="scale(0.086)" style="fill:#3584e4;stroke:#fff;stroke-linecap:round;stroke-width:1.19"/></g><g id="L" style="clip-path:url(#K)"><path d="m 241.2 80.89 c 0 8.14 -6.2 14.75 -13.86 14.75 c -7.62 0 -13.82 -6.61 -13.82 -14.75 c 0 -8.1 6.2 -14.71 13.82 -14.71 c 7.66 0 13.86 6.61 13.86 14.71" transform="matrix(0.105 0 0 0.094 -11.29 -0.73)" style="fill:#fff;stroke:#fff;stroke-linecap:round"/></g><g id="O" style="clip-path:url(#N)"><path d="m 241.2 80.92 c 0 8.1 -6.2 14.71 -13.86 14.71 c -7.62 0 -13.82 -6.61 -13.82 -14.71 c 0 -8.14 6.2 -14.75 13.82 -14.75 c 7.66 0 13.86 6.61 13.86 14.75" transform="matrix(0.105 0 0 0.094 -11.29 5.79)" style="fill:#fff;stroke:#fff;stroke-linecap:round"/></g><g id="R" style="clip-path:url(#Q)"><path d="m 98 188.8 h 55.2 c 1.5 0 2.73 0.27 2.73 0.64 v 2.09 c 0 0.36 -1.23 0.68 -2.73 0.68 h -55.2 c -1.5 0 -2.68 -0.32 -2.68 -0.68 v -2.09 c 0 -0.36 1.18 -0.64 2.68 -0.64" transform="scale(0.086)" style="fill:#3e3947;stroke:#3e3947;stroke-linecap:round;stroke-width:2.25"/></g><clipPath id="B"><path d="M 0,0 H22 V22 H0 z"/></clipPath><clipPath id="H"><path d="M 0,0 H22 V22 H0 z"/></clipPath><clipPath id="E"><path d="M 0,0 H22 V22 H0 z"/></clipPath><clipPath id="8"><path d="M 0,0 H22 V22 H0 z"/></clipPath><clipPath id="5"><path d="M 0,0 H22 V22 H0 z"/></clipPath><clipPath id="K"><path d="M 0,0 H22 V22 H0 z"/></clipPath><clipPath id="Q"><path d="M 0,0 H22 V22 H0 z"/></clipPath><clipPath id="2"><path d="M 0,0 H22 V22 H0 z"/></clipPath><clipPath id="N"><path d="M 0,0 H22 V22 H0 z"/></clipPath><filter id="0" filterUnits="objectBoundingBox" x="0" y="0" width="22" height="22"><feColorMatrix type="matrix" in="SourceGraphic" values="0 0 0 0 1 0 0 0 0 1 0 0 0 0 1 0 0 0 1 0"/></filter><mask id="D"><g style="filter:url(#0)"><path d="M 0,0 H22 V22 H0 z" style="fill-opacity:0.97"/></g></mask><mask id="M"><g style="filter:url(#0)"><path d="M 0,0 H22 V22 H0 z" style="fill-opacity:0.97"/></g></mask><mask id="P"><g style="filter:url(#0)"><path d="M 0,0 H22 V22 H0 z" style="fill-opacity:0.97"/></g></mask><mask id="1"><g style="filter:url(#0)"><path d="M 0,0 H22 V22 H0 z" style="fill-opacity:0.97"/></g></mask><mask id="4"><g style="filter:url(#0)"><path d="M 0,0 H22 V22 H0 z" style="fill-opacity:0.97"/></g></mask><mask id="J"><g style="filter:url(#0)"><path d="M 0,0 H22 V22 H0 z" style="fill-opacity:0.97"/></g></mask><mask id="A"><g style="filter:url(#0)"><path d="M 0,0 H22 V22 H0 z" style="fill-opacity:0.97"/></g></mask><mask id="7"><g style="filter:url(#0)"><path d="M 0,0 H22 V22 H0 z" style="fill-opacity:0.97"/></g></mask><mask id="G"><g style="filter:url(#0)"><path d="M 0,0 H22 V22 H0 z" style="fill-opacity:0.97"/></g></mask></defs><path d="m 11.1 0.16 c 14.63 -1.66 14.43 22.1 -0.26 21.83 c -13.66 0.79 -14.89 -23.1 0.26 -21.83" style="fill:#56545d"/><use xlink:href="#3" style="mask:url(#1)"/><use xlink:href="#6" style="mask:url(#4)"/><use xlink:href="#9" style="mask:url(#7)"/><use xlink:href="#C" style="mask:url(#A)"/><use xlink:href="#F" style="mask:url(#D)"/><use xlink:href="#I" style="mask:url(#G)"/><use xlink:href="#L" style="mask:url(#J)"/><use xlink:href="#O" style="mask:url(#M)"/><use xlink:href="#R" style="mask:url(#P)"/></svg>