<svg xmlns="http://www.w3.org/2000/svg" viewBox="0 0 22 22"><path d="m 3.92 18.83 c -17.28 -22.73 30.3 -25.95 15 -2.76 c -3.48 5.29 -10.44 8.78 -15 2.76" style="fill:#e7cfec"/><path d="m 8 17.4 c -0.21 -0.27 -0.33 -0.48 -0.35 -0.71 c -0.02 -0.3 -0.01 -0.37 0.08 -0.51 c 0.19 -0.33 0.21 -0.34 1.66 -0.34 c 1.26 0 1.28 0 1.42 0.1 c 0.22 0.15 0.28 0.3 0.28 0.69 c 0.02 0.43 -0.17 0.46 -0.36 0.78 c 0 0.02 -0.55 0.04 -1.37 0.04 c -1.13 0 -1.36 -0.01 -1.36 -0.06 m 0.07 -2.09 c -0.31 -0.17 -0.4 -0.47 -0.41 -0.68 c -0.02 -0.3 -0.01 -0.37 0.08 -0.51 c 0.19 -0.33 0.22 -0.34 1.63 -0.34 c 1.12 0 1.27 0.01 1.4 0.08 c 0.24 0.13 0.32 0.3 0.32 0.71 c 0.07 0.38 -0.18 0.54 -0.39 0.76 h -1.27 c -0.45 -0.03 -0.91 0.04 -1.36 -0.03 m 0 -2.11 c -0.16 -0.1 -0.27 -0.21 -0.4 -0.35 c 0 -1.98 0 -3.95 0 -5.93 c 0.13 -0.11 0.27 -0.25 0.34 -0.39 c 0 -0.08 0.09 -0.08 3.15 -0.08 c 3.06 0 3.16 0 3.16 0.08 c 0.07 0.17 0.2 0.26 0.34 0.39 c 0 1.98 0 3.96 0 5.93 c -0.13 0.12 -0.26 0.25 -0.38 0.37 h -3.05 c -1.68 0 -3.09 -0.01 -3.14 -0.03 m 5 -1.23 c 0.07 -0.05 0.17 -0.16 0.23 -0.23 c 0.1 -0.14 0.1 -0.15 0.1 -1.82 c 0 -1.81 -0.01 -1.87 -0.25 -2.05 c -0.26 -0.2 -0.5 -0.23 -2 -0.23 c -1.75 0 -1.99 0.05 -2.2 0.43 c -0.07 0.14 -0.08 0.32 -0.08 2 c 0 1.67 0.01 1.86 0.07 1.93 c 0.07 0.08 0.17 0.08 2.04 0.07 c 1.9 -0.01 1.96 -0.02 2.08 -0.1 m -3 -1 c -0.09 -0.69 -0.04 -1.08 -0.03 -1.91 c 0.1 -0.08 0.2 -0.17 0.29 -0.25 c 0.55 0 1.1 0 1.65 0 c 0.1 0.08 0.2 0.17 0.29 0.25 c 0.01 0.53 0.02 1.06 0.03 1.59 c -0.11 0.11 -0.21 0.22 -0.31 0.33 c -0.63 -0.05 -1.3 0.11 -1.92 -0.01" style="fill:#ab4aba"/></svg>