<svg xmlns="http://www.w3.org/2000/svg" viewBox="0 0 22 22"><path d="m 16.66 1.82 c 19.36 16.45 -20.45 32.3 -16.36 6.83 c 0.9 -5.58 11.14 -11.26 16.36 -6.83" style="fill:#ff8c00"/><path d="m 17.41 11.5 c 0 -3.75 -2.95 -6.79 -6.59 -6.79 c -3.64 0 -6.59 3.04 -6.59 6.79 c 0 3.75 2.95 6.79 6.59 6.79 c 3.64 0 6.59 -3.04 6.59 -6.79" style="fill:#0ba15d"/><path d="m 17.41 11.27 c -0.04 3.71 -2.98 6.7 -6.59 6.71 c -3.58 0 -6.5 -2.95 -6.58 -6.63 c 0 0.05 -0.01 0.1 -0.01 0.15 c 0 3.75 2.95 6.79 6.59 6.79 c 3.64 0 6.59 -3.04 6.59 -6.79 c 0 -0.07 0 -0.15 0 -0.22" style="fill-opacity:0.3"/><path d="m 7.8 12.25 c 0 -0.43 -0.32 -0.79 -0.71 -0.79 c -0.39 0 -0.71 0.35 -0.71 0.79 c 0 0.44 0.32 0.79 0.71 0.79 c 0.39 0 0.71 -0.35 0.71 -0.79"/><path d="m 5.27 8.09 c -0.16 0.27 -0.31 0.54 -0.44 0.83 c -0.13 0.3 -0.24 0.6 -0.33 0.91 c -0.09 0.31 -0.16 0.63 -0.2 0.95 c -0.05 0.32 -0.07 0.64 -0.07 0.96 c 0 0.25 0.02 0.51 0.05 0.76 c 1.62 -3.06 11.15 -2.87 13.1 -1.33 c 0 -0.04 0 -0.08 -0.01 -0.12 c -0.01 -0.12 -0.02 -0.23 -0.04 -0.34 c -0.02 -0.11 -0.04 -0.23 -0.06 -0.34 c -0.02 -0.11 -0.05 -0.23 -0.07 -0.34 c -0.03 -0.11 -0.06 -0.22 -0.09 -0.33 c -0.03 -0.11 -0.07 -0.21 -0.11 -0.32 c -0.04 -0.11 -0.08 -0.21 -0.13 -0.32 c -0.04 -0.11 -0.09 -0.21 -0.14 -0.31 c -0.05 -0.1 -0.1 -0.2 -0.15 -0.3 c -0.05 -0.1 -0.11 -0.2 -0.17 -0.29 c -0.06 -0.1 -0.12 -0.2 -0.18 -0.29 c -0.06 -0.09 -0.13 -0.19 -0.2 -0.28 c -0.07 -0.09 -0.14 -0.18 -0.21 -0.27 c -0.07 -0.09 -0.15 -0.17 -0.23 -0.25 c -0.01 -0.01 -0.02 -0.02 -0.03 -0.04 c -1.34 -0.67 -2.83 -1.02 -4.34 -1.03 c -2.18 0.01 -4.28 0.75 -5.96 2.09" style="fill-opacity:0.3"/><path d="m 14.41 12.18 c 0 -0.44 -0.29 -0.8 -0.66 -0.8 c -0.36 0 -0.66 0.36 -0.66 0.8 c 0 0.44 0.3 0.8 0.66 0.8 c 0.37 0 0.66 -0.36 0.66 -0.8"/><path d="m 9.44 13.1 c 0.22 1.13 0.69 1.85 1.21 1.85 c 0.52 0 1 -0.73 1.21 -1.85" style="fill-opacity:0.74"/><path d="m 5.27 7.85 c -0.16 0.27 -0.31 0.54 -0.44 0.83 c -0.39 0.95 -0.59 1.87 -0.6 2.82 c 0 0.25 0.02 0.51 0.05 0.76 c 1.62 -3.05 11.15 -2.87 13.1 -1.33 c -0.02 -0.27 -0.06 -0.55 -0.11 -0.8 c -0.27 -1.17 -0.74 -2.19 -1.45 -3.05 c -0.07 -0.09 -0.15 -0.17 -0.23 -0.25 c -0.01 -0.01 -0.02 -0.02 -0.03 -0.04 c -1.34 -0.67 -2.83 -1.02 -4.34 -1.03 c -2.18 0.01 -4.28 0.75 -5.96 2.09" style="fill:#fc7d00"/><path d="m 11.78 7.9 c 0 0.79 -0.66 1.43 -1.47 1.43 c -0.81 0 -1.47 -0.64 -1.47 -1.43 c 0 -0.79 0.66 -1.43 1.47 -1.43 c 0.81 0 1.47 0.64 1.47 1.43" style="fill:#b22525"/><path d="m 5.27 7.85 c -0.34 0.55 -0.6 1.15 -0.77 1.73 c -0.18 0.64 -0.27 1.29 -0.27 1.91 c 0 0.02 0 0.04 0 0.05 c 0.04 -1.27 0.42 -2.51 1.03 -3.52 c 3.23 -2.25 7 -2.67 10.3 -1.06 c 0.17 0.18 0.34 0.38 0.47 0.55 c 0.71 1.12 1.2 2.2 1.34 3.39 c 0 0 0.01 0.01 0.02 0.01 c 0 -0.04 0 -0.08 -0.01 -0.12 c -0.16 -1.46 -0.89 -3 -1.78 -3.98 c -0.01 -0.01 -0.02 -0.02 -0.04 -0.04 c -3.66 -1.5 -7.39 -1.2 -10.3 1.06" style="fill:#fff;fill-opacity:0.2"/><path d="m 11.26 7.9 c 0 0.51 -0.43 0.92 -0.95 0.92 c -0.53 0 -0.95 -0.41 -0.95 -0.92 c 0 -0.51 0.43 -0.93 0.95 -0.93 c 0.53 0 0.95 0.41 0.95 0.93" style="fill:#b22525"/><path d="m 5.55 16.45 c 1.54 1.18 3.41 1.83 5.33 1.84 c 1.75 0 3.47 -0.54 4.93 -1.53 c -1.46 0.21 -2.95 0.32 -4.43 0.32 c -1.96 -0.02 -3.91 -0.23 -5.83 -0.63" style="fill:#087042"/><path d="m 10.85 4.83 c -2.3 0 -4.47 1.05 -5.95 2.86 c 2 -0.8 4.15 -1.21 6.31 -1.23 c 1.77 0 3.54 0.27 5.23 0.8 c -1.47 -1.55 -3.48 -2.43 -5.59 -2.43" style="fill-opacity:0.3"/><path d="m 5.55 16.45 c 1.54 1.18 3.41 1.83 5.33 1.84 c 1.75 0 3.47 -0.54 4.93 -1.53 c -1.46 0.21 -2.95 0.32 -4.43 0.32 c -1.96 -0.02 -3.91 -0.23 -5.83 -0.63" style="fill-opacity:0.2"/><path d="m 10.85 4.71 c -2.3 0 -4.47 1.05 -5.95 2.86 c 2 -0.79 4.15 -1.21 6.31 -1.23 c 1.77 0 3.54 0.27 5.23 0.8 c -1.47 -1.55 -3.48 -2.43 -5.59 -2.43" style="fill:#087042"/><g style="fill-opacity:0.3"><path d="m 5.55 16.45 c 0.19 0.14 0.38 0.28 0.58 0.41 c 1.73 0.33 3.49 0.5 5.25 0.53 c 1.28 0 2.55 -0.09 3.82 -0.25 c 0.21 -0.12 0.41 -0.24 0.61 -0.38 c -1.46 0.21 -2.95 0.32 -4.43 0.33 c -1.96 -0.03 -3.91 -0.24 -5.83 -0.63"/><path d="m 11.21 6 c -2 0.02 -4 0.38 -5.91 1.08 c -0.14 0.14 -0.27 0.29 -0.4 0.45 c 2 -0.79 4.15 -1.21 6.31 -1.23 c 1.78 0 3.54 0.27 5.23 0.8 c -0.14 -0.15 -0.29 -0.29 -0.45 -0.43 c -1.56 -0.45 -3.17 -0.67 -4.79 -0.68"/></g><path d="m 10.85 4.71 c -2.3 0 -4.47 1.05 -5.95 2.86 c 0.13 -0.05 0.27 -0.1 0.4 -0.14 c 1.46 -1.54 3.46 -2.4 5.55 -2.41 c 1.89 0 3.72 0.71 5.14 2 c 0.15 0.04 0.3 0.08 0.45 0.13 c -1.47 -1.55 -3.48 -2.43 -5.59 -2.43" style="fill:#fff;fill-opacity:0.1"/></svg>