<svg xmlns="http://www.w3.org/2000/svg" viewBox="0 0 22 22"><path d="m 16.68 1.67 c 19.25 16.57 -20.34 32.5 -16.27 6.88 c 0.89 -5.62 11.1 -11.34 16.27 -6.88" style="fill:#b0dfe5"/><g style="fill:#28588b"><path d="m 6.73 17.1 c -0.44 -0.18 -0.69 -0.35 -1.11 -0.73 c -0.39 -0.35 -0.75 -0.74 -0.68 -0.74 c 0.02 0 0.23 0.14 0.48 0.31 c 0.54 0.38 1.08 0.59 1.58 0.64 c 0.31 0.03 0.47 0 0.86 -0.13 c 0.68 -0.23 1.42 -0.59 2 -0.97 c 2.18 -1.45 2.63 -1.69 3.63 -2 c 0.73 -0.22 1.68 -0.21 2.65 0.02 c 1.13 0.27 0.95 0.39 -0.85 0.59 c -1.69 0.19 -2.38 0.42 -4 1.38 c -0.58 0.34 -1.25 0.72 -1.48 0.85 c -1.38 0.77 -2.45 1.04 -3.07 0.78"/><path d="m 6.3 15.43 c -0.07 -0.08 -0.08 -0.46 -0.09 -2.83 c 0 -1.51 0.02 -2.76 0.04 -2.79 c 0.02 -0.02 0.46 -0.05 0.98 -0.06 c 0.27 0.07 0.97 -0.11 0.98 0.12 c 0.05 0.21 0.06 5.32 0.01 5.58 c -0.04 0.19 -0.07 0.23 -0.25 0.29 c -0.57 0.21 -1.25 0.13 -1.68 -0.31"/></g><path d="m 9.79 14.99 c -0.06 -0.1 0.02 -5.38 0.02 -6.23 v -0.85 c 0.33 0.04 1.79 -0.11 1.93 0.09 c 0.03 0.05 0.05 1.26 0.05 2.96 c 0 2.66 0.04 2.7 -0.05 2.78 c -0.64 0.34 -1.32 0.88 -1.95 1.24" style="fill:#2d5f92"/><path d="m 13.15 12.92 c -0.05 -0.1 -0.06 -0.88 -0.04 -3.27 c 0.01 -1.73 0.04 -3.18 0.07 -3.24 c 0.04 -0.09 0.13 -0.1 0.86 -0.1 c 0.45 0 0.88 0.02 0.95 0.04 l 0.13 0.04 v 3.24 c 0 1.79 -0.02 3.25 -0.04 3.25 c -0.54 -0.14 -1.55 -0.04 -1.91 0.05" style="fill:#4b7fb3"/></svg>