<svg xmlns="http://www.w3.org/2000/svg" viewBox="0 0 22 22"><path d="m 5.38 2.28 c 11.29 -7.68 22.37 7 13.1 16.1 c -8.71 8.57 -21.9 0.28 -17.56 -10.5 c 0.91 -2.25 2.36 -4.21 4.44 -5.62" style="fill:#5c5b62"/><path d="m 17.44 12.47 c -0.49 3.72 -3.96 6.33 -7.76 5.83 c -3.8 -0.5 -6.48 -3.92 -5.99 -7.64 c 0.49 -3.72 3.97 -6.34 7.77 -5.83 c 3.8 0.5 6.48 3.92 5.99 7.64" style="fill:#232226"/><path d="m 13 14.39 c -0.75 -0.67 -0.68 -1.71 -0.77 -2.44 c -0.46 -0.04 -0.82 0 -1.14 0.2 c -0.23 0.15 -0.38 0.2 -0.78 0.23 c -0.78 0.2 -0.5 -1.09 -0.34 -1.39 c 0.14 -0.23 0.18 -0.28 0.03 -0.72 c -0.13 -0.37 -0.18 -0.4 -0.56 -0.23 c -0.3 0.13 -0.62 0.13 -1.14 -0.02 c -0.42 -0.11 -0.79 -0.32 -0.87 -0.49 c -0.09 -0.4 0.49 -0.87 0.84 -1 c 0.09 -0.04 0.47 -0.08 0.84 -0.11 c 0.94 -0.07 1 -0.08 1.22 -0.23 c 0.3 -0.2 2.55 -2.66 2.57 -2.85 c 0.11 -0.27 0.28 -0.35 0.66 -0.2 c 1.29 0.35 2.2 1.31 2.96 2.5 c 0.18 0.19 -0.1 0.57 -0.29 0.85 c -0.44 0.41 -2.05 2.45 -2.23 2.75 c -0.1 0.16 -0.1 0.23 0.01 0.98 c 0.09 0.64 0.08 1.17 -0.03 1.43 c -0.04 0.1 -0.16 0.28 -0.27 0.4 c -0.3 0.33 -0.54 0.44 -0.72 0.34" style="fill:#fff"/><path d="m 16.26 7.96 c -0.69 -0.57 -3.31 -2.44 -3.09 -2.95 c 0.02 -0.05 0.28 -0.24 0.56 -0.43 c 0.75 -0.5 1.6 -0.76 2.22 -0.68 c 0.93 0.16 1.47 1.11 1.45 1.84 c -0.03 0.8 -0.49 2.13 -0.78 2.28 c -0.2 0.05 -0.25 0.02 -0.37 -0.05" style="fill:#ec333b"/><path d="m 9.45 14.1 c -0.07 -0.09 -0.32 -0.31 -0.55 -0.5 c -0.55 -0.44 -0.6 -0.49 -0.66 -0.71 c -0.09 -0.3 -0.03 -0.57 0.26 -1.15 c 0.3 -0.61 0.48 -0.86 0.77 -1.12 c 0.27 -0.23 0.46 0.02 0.21 0.26 c -0.48 1.25 -0.02 2.13 1.22 1.96 c 0.43 -0.16 0.73 -0.58 1.04 -0.49 c -0.04 0.16 -0.09 0.31 -0.16 0.46 c -0.28 0.43 -1.41 1.29 -1.86 1.41 c -0.13 0.04 -0.15 0.03 -0.28 -0.12" style="fill:#ffa400"/><path d="m 7.95 14.66 c -0.15 -0.23 -0.04 -0.98 0.11 -1.46 l 0.05 -0.17 c 0.45 0.48 0.83 0.81 1.31 1.21 l -0.16 0.13 c -0.29 0.14 -1.1 0.62 -1.3 0.3" style="fill:#ff4500"/><path d="m 14.64 8 c -0.07 0.54 -0.58 0.93 -1.14 0.85 c -0.56 -0.07 -0.95 -0.57 -0.88 -1.12 c 0.07 -0.55 0.58 -0.93 1.14 -0.86 c 0.56 0.07 0.95 0.57 0.88 1.12" style="fill:#5c5b62"/><g style="fill:#f4f4f4"><path d="m 6 11.43 c -0.03 0.23 -0.25 0.39 -0.49 0.36 c -0.24 -0.03 -0.41 -0.25 -0.38 -0.48 c 0.03 -0.23 0.25 -0.39 0.49 -0.36 c 0.24 0.03 0.41 0.25 0.38 0.48"/><path d="m 15.86 12.68 c -0.03 0.24 -0.26 0.4 -0.51 0.37 c -0.25 -0.03 -0.42 -0.25 -0.39 -0.49 c 0.03 -0.24 0.26 -0.41 0.51 -0.38 c 0.25 0.04 0.42 0.25 0.39 0.49"/></g><g style="fill:#dcdcdc"><path d="m 9 6.68 c -0.02 0.2 -0.22 0.34 -0.43 0.32 c -0.21 -0.03 -0.37 -0.21 -0.34 -0.42 c 0.03 -0.2 0.22 -0.34 0.44 -0.32 c 0.21 0.03 0.36 0.21 0.34 0.42"/><path d="m 9.95 16.73 c -0.02 0.19 -0.21 0.32 -0.42 0.29 c -0.2 -0.02 -0.35 -0.2 -0.32 -0.39 c 0.02 -0.19 0.21 -0.32 0.42 -0.3 c 0.2 0.03 0.35 0.2 0.32 0.39"/><path d="m 6.19 14.9 c -0.02 0.13 -0.14 0.21 -0.28 0.2 c -0.14 -0.02 -0.24 -0.14 -0.22 -0.27 c 0.02 -0.13 0.14 -0.21 0.28 -0.2 c 0.14 0.02 0.23 0.14 0.22 0.26"/><path d="m 10.88 6.55 c -0.02 0.14 -0.15 0.24 -0.3 0.22 c -0.15 -0.02 -0.26 -0.15 -0.24 -0.29 c 0.02 -0.14 0.15 -0.23 0.3 -0.21 c 0.15 0.02 0.25 0.15 0.23 0.29"/></g></svg>