<svg xmlns="http://www.w3.org/2000/svg" viewBox="0 0 22 22"><path d="m 6.91 1.04 c 26.75 -8.27 13.38 36.1 -4.95 15.38 c -3.67 -4.16 -2.26 -13.15 4.95 -15.38" style="fill:#2fb466"/><path d="m 5.87 16.38 c -0.1 -0.12 -0.13 -0.73 -0.15 -2.92 c -0.02 -2.42 -0.01 -2.8 0.11 -2.99 l 0.14 -0.22 l 5.13 0.03 c 4.18 0.02 5.15 0.05 5.27 0.15 c 0.13 0.11 0.15 0.43 0.14 2.95 c 0 1.63 -0.04 2.89 -0.09 2.96 c -0.07 0.11 -0.34 0.14 -1.29 0.16 l -1.21 0.03 v -0.79 c 0 -1.68 -0.23 -2.45 -0.91 -3 c -0.6 -0.52 -1.09 -0.7 -1.86 -0.71 c -0.81 -0.01 -1.45 0.25 -2.02 0.83 c -0.57 0.57 -0.68 0.89 -0.77 2.16 c -0.11 1.69 0.03 1.52 -1.27 1.52 c -0.92 0 -1.13 -0.03 -1.23 -0.15" style="fill:#ffd600"/><path d="m 11.83 10 c -0.07 -0.11 0.91 -2.57 1.59 -4 l 0.46 -0.99 l 0.17 0.34 c 0.41 0.8 1.94 4.53 1.94 4.73 c 0 0.09 -4.1 0.05 -4.16 -0.04" style="fill:#4c89d6"/><path d="m 11.1 7.95 c 0 1.14 -0.92 2.06 -2.06 2.06 c -1.14 0 -2.06 -0.92 -2.06 -2.06 c 0 -1.14 0.92 -2.06 2.06 -2.06 c 1.14 0 2.06 0.92 2.06 2.06" style="fill:#ea4c4d"/></svg>