<svg xmlns="http://www.w3.org/2000/svg" viewBox="0 0 22 22"><path d="m 5.72 2.61 c 5.08 -5 9.77 -1.35 13.62 2.65 c 3.14 3.25 3.29 6.27 1.2 9.47 c -5.43 8.36 -12.48 11.45 -19.87 -1.5 c -1.82 -4.27 2.02 -8.25 5 -10.61" style="fill:#55406a"/><path d="m 10.73 17.23 c -1 -0.44 -5.55 -2.96 -5.72 -3.16 c -0.04 -0.05 -0.06 -1.11 -0.05 -3.25 l 0.02 -3.17 l 0.56 -0.34 c 0.69 -0.42 3.52 -1.96 4.63 -2.53 l 0.82 -0.42 l 0.85 0.43 c 2.12 1.08 5 2.71 5.11 2.87 c 0.07 0.14 0.11 5.67 0.04 6.12 l -0.05 0.35 c -1.99 1.19 -4.14 2.32 -5.91 3.23 m 0.56 -1.44 c 0.33 -0.16 1.44 -0.75 2.48 -1.3 l 1.88 -1 v -5.48 l -1.43 -0.78 c -2.13 -1.16 -3.42 -1.82 -3.55 -1.82 c -0.12 0 -1.03 0.47 -3.62 1.88 l -1.3 0.71 c 0 1.19 -0.02 2.42 -0.04 3.46 l -0.04 1.96 l 1.54 0.85 c 1.48 0.82 3.39 1.82 3.46 1.82 c 0.25 -0.11 0.43 -0.2 0.63 -0.3" style="fill:#9c8cf2"/><path d="m 7.21 13.1 c -0.07 -0.02 -0.19 -0.09 -0.26 -0.16 c -0.11 -0.12 -0.12 -0.27 -0.12 -2.11 c 0 -2.25 -0.02 -2.16 0.53 -2.25 c 0.44 -0.07 6.72 -0.07 7.22 0 c 0.27 0.04 0.45 0.1 0.5 0.18 c 0.07 0.09 0.09 0.48 0.06 2.08 c -0.02 1.26 -0.05 2 -0.1 2.09 c -0.05 0.09 -0.16 0.15 -0.32 0.18 c -0.27 0.04 -7.29 0.04 -7.52 0 m 1.38 -2.44 l 0.02 -1.04 c -0.19 -0.03 -0.41 -0.09 -0.59 -0.03 c -0.13 0.05 -0.13 0.09 -0.12 1.04 c 0.01 0.54 0.03 1.01 0.05 1.04 c 0.02 0.03 0.17 0.05 0.34 0.04 l 0.3 -0.02 m 1.38 -1.03 v -1.06 c -0.21 0 -0.41 0 -0.63 0 l -0.04 0.34 c -0.06 0.53 -0.05 1.52 0.02 1.66 c -0.07 0.24 0.37 0.12 0.64 0.12 m 1.35 -1.06 v -1.06 c -0.21 0 -0.43 0 -0.64 0 v 1.02 c 0 0.56 0.02 1.04 0.04 1.06 c 0.21 0.06 0.38 0.04 0.6 0.04 m 1.43 -0.82 c 0.05 -1 0.01 -1.24 -0.22 -1.3 c -0.18 -0.04 -0.33 -0.01 -0.5 0.02 v 1.01 c 0 0.55 0.02 1.03 0.04 1.05 c 0.22 0.06 0.41 0.04 0.64 0.04 c 0.01 -0.27 0.03 -0.55 0.04 -0.82" style="fill:#c3bee4"/><path d="m 6.88 12.16 h 8.22 c 0.03 0 0.05 0.2 0.05 0.45 v 0.11 c 0 0.25 -0.02 0.45 -0.05 0.45 h -8.22 c -0.02 0 -0.04 -0.2 -0.04 -0.45 v -0.11 c 0 -0.25 0.02 -0.45 0.04 -0.45" style="fill:#76c"/></svg>