<svg xmlns="http://www.w3.org/2000/svg" viewBox="0 0 22 22"><path d="m 19.79 5.23 c 11.97 21.86 -31.75 22.89 -16.71 0.36 c 3.97 -5.8 13.48 -8.63 16.71 -0.36" style="fill:#181818"/><g style="fill:#fff"><path d="m 10.12 17.78 c -0.38 -0.53 0.06 -0.82 1.34 -0.91 c 0.67 -0.04 1.36 -0.2 1.53 -0.36 c 0.56 -0.5 -0.36 -7.49 -1.07 -8.09 c -0.6 -0.51 -3.45 -0.11 -3.51 0.49 c -0.02 0.23 -1.28 4.34 -1.14 4.93 c 0.03 0.15 -0.1 1.11 -0.23 0.55 c -0.16 -0.68 0.46 -4.39 0.48 -5 c 0.01 -0.62 1.45 -3.63 2.46 -4.3 c 0.74 -0.49 1.1 -0.54 1.93 -0.26 c 0.55 0.19 1.5 0.34 2.09 0.34 c 0.59 0 1.08 0.15 1.08 0.33 c 0 0.18 -0.31 0.32 -0.68 0.32 c -0.38 0 -1.11 0.3 -1.63 0.66 l -0.95 0.66 l 1.29 2 c 0.71 1.11 1.43 2.16 1.6 2.34 c 0.52 0.55 1.87 3.79 1.73 4.15 c -0.07 0.18 -0.63 -0.43 -1.24 -1.37 l -1.12 -1.7 l -0.25 1.56 c -0.22 1.41 -0.16 1.63 0.68 2.22 c 0.51 0.36 0.93 0.76 0.93 0.89 c 0 0.37 -1.65 0.27 -2.09 -0.13 c -0.3 -0.26 -0.52 -0.18 -0.82 0.33 c -0.43 0.71 -2 0.94 -2.41 0.36 m -2.75 -0.3 c 0 -0.16 0.21 -0.36 0.46 -0.45 c 0.37 -0.12 0.36 -0.28 0 -0.83 c -1.03 -1.59 -0.19 -0.89 0.07 -0.49 c 0.11 0.16 1.22 1.09 1.5 1.09 c 0.3 0 0.43 0.2 0.3 0.48 c -0.23 0.52 -2.33 0.69 -2.33 0.19 m 0.11 -2.55 c 0.09 0.43 0.74 1.23 0.36 1.02 c -0.54 -0.29 -0.79 -1.41 -0.8 -1.55 c -0.04 -0.5 0.23 -1.22 0.15 -0.83 m -1.89 0.17 c -0.32 -0.73 0.14 -1.98 1.36 -3.66 l 1.28 -1.9 l -0.42 2 c -0.18 0.84 -1.38 4 -1.81 4 c -0.1 0 -0.29 -0.22 -0.4 -0.49"/><path d="m 8.94 8.91 c -0.11 0.01 -0.2 0.12 -0.2 0.25 v 0.7 c 0.02 0.18 0.14 0.25 0.29 0.23 l 0.86 -0.32 l 0.86 0.32 c 0.17 0.03 0.29 -0.09 0.29 -0.23 v -0.7 c -0.02 -0.18 -0.14 -0.25 -0.29 -0.24 l -0.86 0.32"/></g></svg>