<svg xmlns="http://www.w3.org/2000/svg" viewBox="0 0 22 22"><path d="m 19.1 18.65 c 12.46 -19.1 -21.59 -26.55 -18.87 -6.85 c 1.11 8 14.1 14.18 18.87 6.85" style="fill:#9c703f"/><path d="m 16.91 15.48 c 0 1.93 -1.55 3.48 -3.47 3.48 c -1.91 0 -3.46 -1.56 -3.46 -3.48 c 0 -1.92 1.55 -3.48 3.46 -3.48 c 1.92 0 3.47 1.56 3.47 3.48" style="fill:#fff"/><path d="m 16.24 15.5 c 0 1.56 -1.24 2.83 -2.76 2.83 c -1.53 0 -2.76 -1.27 -2.76 -2.83 c 0 -1.56 1.23 -2.83 2.76 -2.83 c 1.52 0 2.76 1.27 2.76 2.83" style="fill:#ff0a03"/><g style="fill:#fff"><path d="m 13.1 17.48 c -0.46 -0.04 -0.88 -0.2 -1.12 -0.6 c -0.16 -0.64 -0.14 -1.24 -0.13 -2.04 c 0.02 -0.79 -0.14 -1.1 0.31 -1.09 c 0.45 -0.03 0.38 0.36 0.35 1.41 c 0.05 1.25 0.01 1.42 0.07 1.48 c 0.52 0.07 1.5 0.36 1.84 -0.02 c 0.08 -0.09 0.2 -0.13 0.18 -0.61 c -0.04 -1.06 -0.23 -1.22 0.34 -1.22 c 0.24 0 0.23 -0.05 0.22 0.96 c 0 0.52 -0.01 0.98 -0.04 1.05 c -0.05 0.2 -0.17 0.33 -0.46 0.49 c -0.38 0.21 -0.78 0.26 -1.57 0.19"/><path d="m 5.73 4.96 h 4 c 0.57 0 1.04 0.51 1.04 1.14 v 4.86 c 0 0.63 -0.46 1.14 -1.04 1.14 h -4 c -0.57 0 -1.04 -0.51 -1.04 -1.14 v -4.86 c 0 -0.63 0.46 -1.14 1.04 -1.14"/></g><g style="fill:#814f22"><path d="m 5.67 8 c -0.41 -0.67 -0.56 -0.48 0.01 -1.24 c 0.32 -0.42 0.57 -0.79 0.73 -0.73 c 0.15 0.05 1.13 1.18 1.14 1.41 c 0 0.1 -0.35 0.34 -0.39 0.56 c -0.12 1.09 -0.07 1.98 -0.11 3.11 c -0.44 0.05 -0.91 -0.03 -1.29 -0.03 c -0.03 -0.84 0.09 -2.75 -0.09 -3.09"/><path d="m 8.37 8 c -0.41 -0.67 -0.56 -0.48 0.01 -1.24 c 0.32 -0.42 0.56 -0.79 0.73 -0.73 c 0.15 0.05 1.13 1.18 1.14 1.41 c 0 0.1 -0.36 0.34 -0.39 0.56 c -0.12 1.09 -0.08 1.98 -0.12 3.11 c -0.43 0.05 -0.91 -0.03 -1.29 -0.03 c -0.03 -0.84 0.09 -2.75 -0.09 -3.09"/></g></svg>