<svg xmlns="http://www.w3.org/2000/svg" viewBox="0 0 22 22"><path d="m 2.1 16.83 c -11.97 -21.86 31.75 -22.89 16.71 -0.36 c -3.97 5.8 -13.48 8.63 -16.71 0.36" style="fill:#ff8c00"/><path d="m 10.1 4.88 c -0.5 0 -0.9 0.4 -0.9 0.9 v 4.5 c 0 0.5 0.42 0.9 0.9 0.9 h 1.35 v 1.8 l 1.8 -1.8 h 3.59 c 0.5 0 0.9 -0.4 0.9 -0.9 v -4.5 c 0 -0.5 -0.4 -0.9 -0.9 -0.9" style="fill:#fff"/><path d="m 10.7 10.47 c 0 1.28 -1.02 2.31 -2.27 2.31 c -1.25 0 -2.27 -1.04 -2.27 -2.31 c 0 -1.28 1.02 -2.32 2.27 -2.32 c 1.25 0 2.27 1.04 2.27 2.32" style="fill:#ff8c00"/><g style="fill:#fff"><path d="m 10 10.75 c 0 1.08 -0.92 1.95 -2.05 1.95 c -1.13 0 -2.05 -0.88 -2.05 -1.95 c 0 -1.08 0.92 -1.96 2.05 -1.96 c 1.13 0 2.05 0.88 2.05 1.96"/><path d="m 7.96 13.18 c -1.7 0 -3.07 1.31 -3.07 2.93 v 0.49 c 0 0.27 0.23 0.49 0.51 0.49 h 5.11 c 0.28 0 0.51 -0.22 0.51 -0.49 v -0.49 c 0 -1.63 -1.38 -2.93 -3.07 -2.93"/></g></svg>