<svg xmlns="http://www.w3.org/2000/svg" viewBox="0 0 22 22"><path d="m 11.31 21.88 c -2.27 -0.18 -4.92 -1.26 -6.77 -2.77 c -2.25 -1.83 -3.9 -4.64 -4.34 -7.41 c -0.53 -3.66 1.6 -7.59 4 -9.45 c 1.2 -0.91 2.8 -1.63 4.3 -1.95 c 3.89 -0.82 7.96 0.73 10.74 4.12 c 1.67 2.03 2.53 4.07 2.74 6.5 c 0.25 2.9 -0.89 6 -2.99 8.11 c -2.39 1.98 -4.84 3.05 -7.67 2.84" style="fill:#008b00"/><g style="fill:#fff"><path d="m 6.1 10 c -0.55 -0.82 -0.87 -1.7 -0.3 -2.74 c 0.32 -0.59 0.54 -0.78 1.13 -0.93 c 0.4 -0.1 0.42 -0.12 0.61 -0.52 c 0.3 -0.64 0.43 -0.79 0.91 -1.11 c 0.91 -0.49 1.98 -0.43 2.78 -0.08 c 0.34 0.15 1.52 1.11 2.29 1.89 c 1 -1.02 1.31 -0.08 0.52 0.84 c -0.4 0.46 -1.56 -0.95 -2.43 -1.52 c -0.74 -0.46 -1.71 -0.62 -2.27 -0.47 c -0.86 0.23 -0.93 0.29 -1.18 0.98 c -0.34 0.93 -0.32 0.91 -0.96 0.98 c -0.31 0.04 -0.6 0.11 -0.66 0.18 c -0.34 0.39 -0.34 1.3 -0.01 1.78 c 0.21 0.31 1.13 1.08 0.98 1.29 c -0.32 0.46 -1.13 -0.27 -1.41 -0.55"/><path d="m 6.9 16.66 c -0.68 -0.02 -0.7 -0.03 -0.54 -0.39 c 0.04 -0.09 0.11 -0.3 0.16 -0.45 c 0.11 -0.37 0.75 -1.66 1.04 -2.07 l 0.21 -0.33 h 7 l 0.52 1.04 c 0.53 1.04 0.84 1.79 0.86 2.03 c 0 0.1 -0.02 0.14 -0.15 0.16 c -0.15 0.03 -7.91 0.04 -9.11 0.01 m 5.56 -0.46 c 0.38 -0.1 0.57 -0.23 0.59 -0.4 c 0.03 -0.25 -0.1 -0.28 -0.64 -0.15 c -0.55 0.13 -1.32 0.15 -1.65 0.05 c -0.44 -0.13 -0.78 -0.57 -0.67 -0.86 c 0.07 -0.19 0.29 -0.41 0.55 -0.57 c 0.29 -0.18 0.92 -0.22 1.32 -0.1 c 0.16 0.05 0.38 0.09 0.5 0.09 c 0.18 0.01 0.21 -0.01 0.21 -0.09 c 0 -0.12 -0.27 -0.32 -0.57 -0.4 c -0.73 -0.22 -2 0.09 -2.46 0.59 c -0.34 0.38 -0.41 0.68 -0.24 1.06 c 0.18 0.4 0.72 0.74 1.36 0.86 c 0.33 0.06 1.32 0.01 1.7 -0.08"/><path d="m 11.15 8.3 h 1.1 v 3.65 h -1.1"/><path d="m 13.29 8.97 h 1.04 v 3.65 h -1.04"/><path d="m 8.91 6.89 h 1.09 v 4.53 h -1.09"/><path d="m 15.21 6.58 h 1.04 v 2.45 h -1.04"/></g></svg>