<svg xmlns="http://www.w3.org/2000/svg" viewBox="0 0 22 22"><path d="m 4.54 19.86 c 16.54 10.98 26.73 -24 5.34 -19.39 c -8.83 1.97 -14.2 14.36 -5.34 19.39" style="fill:#66cdaa"/><path d="m 6.86 10.48 c 0 -0.38 0.74 -6.68 0.8 -6.86 c 0.07 -0.19 0.1 -0.2 0.38 -0.17 c 2.71 0.16 4.84 0.36 7.44 0.79 c -0.16 1.82 -0.29 2.84 -0.52 6 l -0.04 0.17 c -0.95 0.05 -7.49 0.08 -8.1 0.04" style="fill:#fff"/><path d="m 9.74 10.13 c -0.34 -0.07 -0.46 -0.32 -0.55 -0.49 c -0.22 -0.43 -0.44 -1 0.66 -1.19 c 0.19 -0.04 0.17 -0.11 0.19 -0.32 c 0.05 -0.44 0.06 -0.44 0.23 -0.63 c 0.36 -0.39 0.87 -0.44 1.27 -0.13 c 0.18 0.14 0.28 0.35 0.3 0.64 c 0.03 0.23 -0.04 0.33 -0.13 0.51 c 0 0.01 0.14 0.11 0.3 0.24 c 1.37 0.23 0.28 2.38 -0.78 1.27 l 0.14 1.25 c 0.05 0.39 -1.34 0.22 -1.12 -0.2 c 0.43 -0.81 0.11 -1.09 0.04 -1.11"/><path d="m 12.95 6.59 c -0.1 -0.03 -0.27 -0.16 -0.32 -0.25 c -0.13 -0.23 -0.26 -0.52 0.39 -0.63 c 0.11 -0.02 0.1 -0.05 0.11 -0.17 c 0.03 -0.23 0.04 -0.23 0.14 -0.33 c 0.21 -0.2 0.51 -0.23 0.74 -0.07 c 0.11 0.07 0.17 0.18 0.18 0.33 c 0.02 0.12 -0.02 0.17 -0.07 0.27 c 0 0 0.08 0.06 0.18 0.13 c 0.8 0.12 0.16 1.24 -0.46 0.66 l 0.09 0.65 c 0.03 0.21 -0.79 0.12 -0.66 -0.1 c 0.25 -0.43 0.06 -0.57 0.02 -0.58"/><path d="m 10.61 19.99 c -0.32 -0.11 -0.93 -0.38 -2.13 -0.91 c -0.58 -0.26 -1.35 -0.59 -1.7 -0.75 c -0.35 -0.15 -0.72 -0.33 -0.82 -0.39 l -0.18 -0.12 v -7.28 l 0.13 -0.05 c 0.11 -0.05 0.56 -0.05 4.95 -0.06 c 4 0 4.85 0.01 4.98 0.05 l 0.16 0.05 v 2.61 c 0 1.43 -0.01 3.08 -0.02 3.67 l -0.02 1.07 l -0.46 0.22 c -0.48 0.23 -3.22 1.45 -3.78 1.68 c -0.4 0.17 -0.77 0.3 -0.84 0.3 c -0.03 0 -0.15 -0.04 -0.27 -0.08" style="fill:#698e5c"/><path d="m 9.22 6.63 c -0.05 -0.02 -0.13 -0.12 -0.19 -0.22 c -0.18 -0.34 -0.43 -0.37 -0.59 -0.09 c -0.08 0.14 -0.24 0.23 -0.39 0.21 c -0.09 -0.02 -0.09 -0.04 -0.09 -0.22 c 0 -0.16 0.06 -0.32 0.27 -0.77 c 0.15 -0.31 0.32 -0.64 0.39 -0.73 c 0.13 -0.17 0.32 -0.24 0.45 -0.16 c 0.09 0.05 0.29 0.68 0.41 1.28 c 0.11 0.57 0.11 0.63 -0.05 0.69 c -0.07 0.03 -0.13 0.05 -0.13 0.05 c 0 0 -0.04 -0.02 -0.09 -0.04 m -0.28 -0.88 c 0.06 -0.27 -0.09 -0.52 -0.21 -0.35 c -0.07 0.11 -0.07 0.28 0 0.4 c 0.07 0.11 0.17 0.09 0.21 -0.05"/><g transform="scale(0.086)" style="fill:none;stroke:#fff"><path d="m 77.2 134 l 98.9 -0.59" style="stroke-dasharray:5.82237 5.82237;stroke-width:5.82"/><g style="stroke-dasharray:5.5818 5.5818;stroke-width:5.58"><path d="m 173.2 142 l 0.82 63.73"/><path d="m 79.9 143.1 l 0.77 63.73"/></g></g></svg>