<svg xmlns="http://www.w3.org/2000/svg" xmlns:xlink="http://www.w3.org/1999/xlink" viewBox="0 0 22 22"><defs><g id="8" style="clip-path:url(#7)"><path d="m 76.8 5.92 c -0.1 4.45 -1.84 7.2 -3.2 10.27 c -2.48 5.55 -3.35 11.29 2.14 14.67 c 5.24 -1.26 14.51 -13.45 1.07 -24.94" transform="matrix(0.08 0 0 0.099 7.87 6.7)" style="fill:url(#5);stroke:url(#6);fill-rule:evenodd;stroke-linecap:round;stroke-linejoin:round"/></g><clipPath id="7"><path d="M 0,0 H22 V22 H0 z"/></clipPath><filter id="3" filterUnits="objectBoundingBox" x="0" y="0" width="22" height="22"><feColorMatrix type="matrix" in="SourceGraphic" values="0 0 0 0 1 0 0 0 0 1 0 0 0 0 1 0 0 0 1 0"/></filter><linearGradient id="6" gradientUnits="userSpaceOnUse" x1="77.7" y1="12.5" x2="80.3" y2="31.86"><stop style="stop-color:#f4a200;stop-opacity:0.89"/><stop offset="1" style="stop-color:#f45f00"/></linearGradient><linearGradient id="9" gradientUnits="userSpaceOnUse" x1="22.8" y1="8.67" x2="24.45" y2="21.82"><stop style="stop-color:#fff;stop-opacity:0.9"/><stop offset="1" style="stop-color:#fff;stop-opacity:0.15"/></linearGradient><linearGradient id="A" gradientUnits="userSpaceOnUse" x1="24.53" y1="9.34" x2="22.55" y2="32" gradientTransform="matrix(0.033 0 0 0.051 13.32 7.86)"><stop style="stop-color:#ff4c19;stop-opacity:0.95"/><stop offset="1" style="stop-color:#ff4c19;stop-opacity:0.16"/></linearGradient><linearGradient id="5" gradientUnits="userSpaceOnUse" x1="76.7" y1="19.45" x2="76.6" y2="25.64"><stop style="stop-color:#fbe84e;stop-opacity:0.83"/><stop offset="1" style="stop-color:#fdc345"/></linearGradient><linearGradient id="1" gradientUnits="userSpaceOnUse" x1="10" y1="10.26" x2="37.2" y2="23.46"><stop style="stop-color:#e6ebeb"/><stop offset="0.5" style="stop-color:#e5ebeb"/><stop offset="1" style="stop-color:#fff"/></linearGradient><linearGradient id="0" gradientUnits="userSpaceOnUse" x1="4.43" x2="39.86"><stop style="stop-color:#e2e2e2"/><stop offset="1" style="stop-color:#9e9e9e"/></linearGradient><linearGradient id="2" gradientUnits="userSpaceOnUse" x1="19.5" x2="32.86" spreadMethod="reflect"><stop style="stop-color:#be6108"/><stop offset="1" style="stop-color:#f49d11"/></linearGradient><mask id="4"><g style="filter:url(#3)"><path d="M 0,0 H22 V22 H0 z" style="fill-opacity:0.9"/></g></mask></defs><path d="m 21.82 15.7 c 2.18 -31.42 -40 -7.87 -12.23 5.48 c 3.98 1.94 10.66 0.49 12.23 -5.48" style="fill:#d41919"/><g style="fill-rule:evenodd"><path d="m 2.5 32.49 c -0.22 1 0.6 2.05 1.95 2 h 36.2 c 1.28 -0.05 1.71 -1.22 1.42 -2.19 l -7.86 -28.83 h -26 l -5.71 29" transform="matrix(0.272 0 0 0.304 5.58 4.8)" style="fill:#a6a6a6;stroke:#646464"/><g style="stroke:#696969"><g transform="matrix(0.271 0 0 0.329 5.59 4.25)"><path d="m 7.29 23.99 h 29.3 c 0.83 0 1.5 0.64 1.5 1.46 l 1.3 4.64 c 0 0.82 -0.68 1.46 -1.5 1.46 h -31.43 c -0.83 0 -1.5 -0.64 -1.5 -1.46 l 0.85 -4.64 c 0 -0.82 0.68 -1.46 1.51 -1.46" style="fill:#c5c5c5"/><path d="m 7.29 21.85 h 29.3 c 0.83 0 1.5 0.65 1.5 1.46 l 1.3 4.65 c 0 0.81 -0.68 1.46 -1.5 1.46 h -31.43 c -0.83 0 -1.5 -0.65 -1.5 -1.46 l 0.85 -4.65 c 0 -0.81 0.68 -1.46 1.51 -1.46" style="fill:url(#0)"/></g><path d="m 7.69 6.76 l -4.07 20.46 c 0 0 24.78 0 24.78 0 c 11.86 0 14.34 -3.77 14.34 -3.77 c 0 0 -3.16 -1.11 -4.51 -5.79 c 0 0 -2.89 -10.91 -2.89 -10.91" transform="matrix(0.272 0 0 0.304 5.58 4.8)" style="fill:url(#1)"/></g></g><g transform="matrix(0.272 0 0 0.304 5.58 4.8)"><path d="m 8.56 7.68 l -3.77 18.64 c 0 0 16.2 0 23 0 c 10.58 0 13.3 -2.7 13.3 -2.7 c 0 0 -2.82 -1.75 -4 -5.99 c 0 0 -2.59 -9.87 -2.59 -9.87 l -25.93 -0.06" style="fill:none;stroke:#fff"/><path d="m 8.96 1.49 h 25.2 c 0.88 0 1.58 0.67 1.58 1.5 l 0.36 2.14 c 0 0.84 -0.69 1.5 -1.58 1.5 h -25.89 c -0.86 0 -1.58 -0.67 -1.58 -1.5 l 0.36 -2.14 c 0 -0.84 0.7 -1.5 1.58 -1.5" style="fill:#3464a3;stroke:#696969;fill-rule:evenodd"/></g><path d="m 12.75 11.77 l -1.18 -0.07 l -0.1 -3.24 l -1.48 0.19 l -0.02 -0.61 l 2.66 -0.3 l 0.12 4"/><g style="stroke-linecap:round"><path d="m 10.68 2.66 h 23.34" transform="matrix(0.272 0 0 0.304 5.58 4.8)" style="stroke-opacity:0.3;fill:none;stroke:#fff"/><g style="stroke-linejoin:round"><path d="m 48.3 41.1 c 0 4.21 -7 7.64 -15.64 7.64 c -8.65 0 -15.66 -3.42 -15.66 -7.64 c 0 -4.23 7 -7.65 15.66 -7.65 c 8.64 0 15.64 3.42 15.64 7.65" transform="matrix(0.255 0 0 0.282 5.68 4.71)" style="fill:#9bb9df;stroke:#3366a3"/><path d="m 48.3 41.1 c 0 4.22 -7 7.63 -15.65 7.63 c -8.64 0 -15.65 -3.41 -15.65 -7.63 c 0 -4.22 7 -7.65 15.65 -7.65 c 8.64 0 15.65 3.43 15.65 7.65" transform="matrix(0.241 0 0 0.242 6.19 6.38)" style="fill:none;stroke:#fff"/><g style="stroke:#be6108"><path d="m 32.84 24.2 c -7.1 0 -12.84 2.51 -12.84 5.63 c 0 0.33 0.06 0.68 0.2 1 h -0.2 v 8.59 c 0 0.01 0 0.04 0 0.06 c 0 3.1 5.75 5.66 12.84 5.66 c 7.1 0 12.88 -2.54 12.88 -5.66 c 0 -0.01 0 -0.04 0 -0.06 v -8.59 h -0.21 c 0.12 -0.32 0.21 -0.67 0.21 -1 c 0 -3.1 -5.78 -5.63 -12.88 -5.63" transform="matrix(0.255 0 0 0.282 5.68 4.91)" style="fill:url(#2)"/><path d="m 32.84 24.1 c -7.1 0 -12.84 2.55 -12.84 5.67 c 0 0.1 0.03 0.19 0.03 0.28 c 0 0 -0.02 0 -0.03 0 c 0.03 0.08 0.06 0.14 0.06 0.22 c 0 0.01 0 0.01 0 0.03 c 0 0.01 0 0.03 0 0.03 c 0.03 0.57 0.24 1.9 0.08 2.54 c -0.18 0.76 0.28 1.36 0.76 1.86 c 0.49 0.49 0.41 1.21 0.81 1.59 c 0.47 0.49 0.06 0.4 0.84 0.01 c 0.66 -0.33 1.06 -0.9 1.44 -1.28 c 0.37 -0.36 1.07 -0.5 1.73 -0.6 c 0.81 0.25 1.7 0.42 2.63 0.57 c 0.28 0.61 0.38 1.16 0.81 1.58 c 0.73 0.75 1.41 0.86 2 1.44 c 0.02 0.03 0.08 0 0.12 0 c 0.54 0 0.63 1.03 1.16 1.16 c 1.06 0.26 1.07 -1.94 1.83 -2.72 c 0.37 -0.37 1.71 -0.65 2.16 -0.89 c 0.52 -0.26 0.96 -0.47 1.42 -0.65 c 0 0 0.02 0 0.03 0 c 0.02 0 0.03 -0.04 0.06 -0.04 c 0.6 -0.11 1.13 -0.22 1.68 -0.37 c 0.05 -0.01 0.09 0.01 0.14 0 c 0.38 0.01 0.73 0.15 1.09 0.5 c 0.6 0.6 0.93 1.18 1.44 1.57 c 0.57 0.43 1.21 0.37 1.73 -0.14 c 0.41 -0.42 0.49 -1.48 0.99 -2 c 0.5 -0.51 -0.17 -2.12 0.44 -2.72 c 0.57 -0.57 0.35 -1.16 0.21 -1.44 c 0.05 -0.19 0.06 -0.37 0.06 -0.57 c 0 -3.1 -5.78 -5.66 -12.88 -5.66" transform="matrix(0.255 0 0 0.282 5.68 4.91)" style="fill:#ffe6c1"/></g><path d="m 32.69 24.99 c -6.51 0 -11.79 2.04 -11.79 4.53 c 0 0.07 0.03 0.14 0.03 0.21 c 0 0 -0.02 0 -0.03 0 c 0.03 0.07 0.05 0.12 0.06 0.18 c 0 0 0 0.01 0 0.01 c 0 0.01 0 0.03 0 0.03 c 0.03 0.46 0.23 1.51 0.08 2.02 c -0.17 0.61 0.24 1.08 0.7 1.48 c 0.44 0.37 0.38 1.55 0.73 1.87 c 0.44 0.39 0.06 -0.28 0.78 -0.58 c 0.61 -0.26 0.96 -0.72 1.32 -1.03 c 0.34 -0.29 0.98 -0.4 1.59 -0.47 c 0.73 0.19 1.56 0.33 2.4 0.46 c 0.26 0.5 0.35 0.93 0.75 1.26 c 0.69 0.6 0.72 1.15 1.24 1.62 c 0.03 0.03 0.2 -0.24 0.23 -0.24 c 0.49 0 0.93 1.64 1.42 1.75 c 0.98 0.21 1.44 -2.13 2.16 -2.76 c 0.34 -0.3 1.33 -0.4 1.74 -0.58 c 0.47 -0.21 0.75 -0.97 1.16 -1.11 c 0.02 0 0.02 0 0.03 0 c 0.02 0 0.4 0.46 0.41 0.46 c 0.55 -0.1 0.69 -0.65 1.19 -0.78 c 0.03 -0.01 0.08 0.01 0.11 0 c 0.35 0.01 0.67 0.12 0.99 0.4 c 0.55 0.49 0.86 0.94 1.33 1.25 c 0.52 0.35 1.59 1.36 2.05 0.96 c 0.38 -0.33 0.2 -1.54 0.67 -1.94 c 0.47 -0.42 0.2 -2.05 0.76 -2.54 c 0.52 -0.44 -0.26 -1.28 -0.4 -1.5 c 0.05 -0.15 0.06 -0.29 0.06 -0.44 c 0 -2.49 -5.29 -4.53 -11.8 -4.53" transform="matrix(0.255 0 0 0.282 5.68 4.91)" style="fill:none;stroke:#fff;stroke-width:0.86"/><g style="fill:#ff8162;stroke:#ff3d0f"><path d="m 21.95 11.65 v 11.45 h 0.09 c 0.26 0.32 1.04 0.55 1.97 0.55 c 0.89 0 1.65 -0.24 1.93 -0.55 c 0.08 -0.08 0.14 -0.17 0.14 -0.25 c 0 -0.11 -0.05 -0.22 -0.14 -0.32 v -10.87 h -3.99" transform="matrix(0.255 0 0 0.282 7.89 6.42)" style="stroke-width:0.5"/><path d="m 34.78 29.61 c 0.1 0.3 -0.31 0.62 -1.08 0.79 c -0.77 0.17 -1.75 0.17 -2.52 0 c -0.77 -0.17 -1.19 -0.49 -1.08 -0.79 c -0.1 -0.32 0.31 -0.64 1.08 -0.8 c 0.77 -0.17 1.75 -0.17 2.52 0 c 0.77 0.17 1.19 0.49 1.08 0.8" transform="matrix(0.224 0 0 0.282 6.77 1.41)" style="fill-opacity:0.94;stroke-width:0.53"/></g><path d="m 22.47 12.76 l -0.05 9.95 l 0.14 0.22 l -0.11 -0.17 c 0.2 0.29 0.98 0.53 1.68 0.53 c 0.69 0 1.21 -0.17 1.42 -0.46 c 0.06 -0.08 0.08 -0.12 0.08 -0.21 c 0 -0.08 0.08 -0.12 0.03 -0.21 v -9.65 l -0.75 0.24 l -0.81 0.11 l -1.02 -0.11" transform="matrix(0.255 0 0 0.282 7.89 6.42)" style="fill:none;stroke:#ffa189;stroke-width:0.42"/></g></g><use xlink:href="#8" style="mask:url(#4)"/><path d="m 77.6 8.15 c -0.54 3.43 -2 6 -3.09 8.45 c -1.18 2.69 -1.96 5.38 -1.81 7.67 c 0.15 2.18 1.08 3.97 3.29 5.49 c 0.98 -0.35 2.21 -1.13 3.38 -2.38 c 1.27 -1.4 2.45 -3.27 3.04 -5.41 c 1.08 -3.93 0.25 -8.8 -4.81 -13.83" transform="matrix(0.08 0 0 0.1 7.93 6.68)" style="fill:none;stroke:url(#9)"/><path d="m 14.19 8.13 c -0.04 0.45 -0.48 0.8 -0.14 1.19 c 0.16 -0.05 0.44 -0.39 0.14 -1.19" style="fill:url(#A);fill-rule:evenodd"/></svg>