<svg xmlns="http://www.w3.org/2000/svg" viewBox="0 0 22 22"><path d="m 18 19.59 c -13.2 10.23 -26.89 -15.25 -10.56 -18.98 c 10.29 -3.82 20.34 11.39 10.56 18.98" style="fill:#3e4553"/><path d="m 15.89 13.1 c -1.34 -0.79 -5.39 -3.26 -7.74 -4.72 c -3 -1.88 -3 -1.87 -3 -1.93 c 0 -0.03 0.16 -0.08 0.36 -0.11 c 0.47 -0.07 10.41 -0.05 10.91 0.02 l 0.39 0.05 l 0.02 3.58 c 0.01 1.97 -0.01 3.59 -0.04 3.59 c -0.04 0 -0.43 -0.21 -0.88 -0.48" style="fill:#3dade8"/><path d="m 6.37 11.85 h 3.84 c 0.74 0 1.34 0.42 1.34 0.95 v 1.83 c 0 0.52 -0.6 0.95 -1.34 0.95 h -3.84 c -0.74 0 -1.34 -0.43 -1.34 -0.95 v -1.83 c 0 -0.52 0.6 -0.95 1.34 -0.95" style="fill:#1bdc9a"/></svg>