<svg xmlns="http://www.w3.org/2000/svg" viewBox="0 0 22 22"><defs><clipPath id="0"><path d="m 5 7 h 8 v 7 h -8"/></clipPath><clipPath id="1"><path d="m 2.9 3.34 h 12.78 c 0.74 0 1.34 0.55 1.34 1.24 v 11.79 c 0 0.68 -0.6 1.24 -1.34 1.24 h -12.78 c -0.75 0 -1.35 -0.56 -1.35 -1.24 v -11.79 c 0 -0.69 0.6 -1.24 1.35 -1.24"/></clipPath></defs><path d="m 11.21 21.88 c -2.27 -0.18 -4.93 -1.26 -6.77 -2.77 c -2.25 -1.83 -3.9 -4.64 -4.34 -7.41 c -0.53 -3.66 1.6 -7.59 4 -9.45 c 1.2 -0.91 2.8 -1.63 4.3 -1.95 c 3.89 -0.82 7.96 0.73 10.74 4.12 c 1.67 2.03 2.53 4.07 2.74 6.5 c 0.25 2.9 -0.89 6 -2.99 8.11 c -2.38 1.98 -4.84 3.05 -7.67 2.84" style="fill:#ababb1"/><g style="clip-path:url(#0)"><g style="clip-path:url(#1)"><path d="m 12.65 7.1 c 0 2.19 0 4.31 0 6.21 c -2.36 0 -4.68 0 -6.72 0 c 0 -2.18 0 -4.31 0 -6.21 c 2.33 0 4.72 0 6.72 0 m -0.67 0.62 h -3 v 1.24 h 3 m -3.7 -1.24 h -1.68 v 1.24 h 1.68 m 3.7 0.62 h -3 v 1.24 h 3 m -3.7 -1.24 h -1.68 v 1.24 h 1.68 m 3.7 0.62 h -3 v 1.24 h 3 m -3.7 -1.24 h -1.68 v 1.24 h 1.68" style="fill:#fff"/></g></g><path d="m 11.4 16.2 c -0.05 -0.04 -0.05 -0.67 -0.04 -2.7 c 0.02 -2.18 0.03 -2.55 0.09 -2.6 c 0.13 -0.1 2.98 -0.14 3.25 -0.04 c 0.54 0.21 0.83 0.74 0.83 1.37 c 0 0.67 -0.26 1.06 -0.9 1.38 c -0.22 0.13 -0.09 0.19 0.06 0.41 c 0.27 0.18 0.31 0.25 0.75 1.1 c 0.37 0.72 0.45 0.92 0.39 0.96 c -0.48 0.07 -0.86 0.05 -1.38 0.05 l -0.45 -0.89 c -0.6 -1.21 -0.59 -1.2 -0.97 -1.2 h -0.31 l -0.01 1.01 l -0.02 1.09 c -0.44 0.09 -0.88 0.05 -1.31 0.05 m 2.55 -3.34 c 0.26 -0.16 0.26 -0.58 0.06 -0.85 c -0.37 -0.29 -1.27 -0.2 -1.27 -0.1 l -0.01 0.69 c -0.01 0.44 0.02 0.48 0.64 0.44 c 0.27 -0.02 0.44 -0.09 0.59 -0.18" style="fill:#1f64b7"/></svg>