<svg xmlns="http://www.w3.org/2000/svg" viewBox="0 0 22 22"><path d="m 19.46 4 c 5.35 8.18 1.4 16.34 -5 17.41 c -8.65 2.09 -19.23 -3.88 -11.93 -16.76 c 2.9 -5.12 13.1 -6.48 16.96 -0.65" style="fill:#003693"/><g style="fill:#fff"><path d="m 9.66 12.54 c -0.09 -0.09 -0.25 -0.43 -0.37 -0.75 c -0.11 -0.32 -0.25 -0.58 -0.31 -0.58 c -0.18 0 -0.29 0.31 -0.27 0.79 c 0.02 0.5 -0.11 0.75 -0.29 0.57 c -0.11 -0.1 -0.12 -1.65 -0.02 -2.33 c 0.04 -0.25 0 -0.43 -0.13 -0.68 c -0.11 -0.21 -0.18 -0.5 -0.18 -0.75 c 0 -0.34 -0.04 -0.44 -0.27 -0.65 c -0.14 -0.13 -0.38 -0.41 -0.52 -0.61 c -0.22 -0.32 -0.25 -0.45 -0.25 -0.97 c 0 -0.53 -0.03 -0.62 -0.22 -0.79 c -0.2 -0.18 -0.21 -0.25 -0.21 -0.98 c 0 -0.96 0.13 -1.02 0.51 -0.24 c 0.14 0.3 0.3 0.55 0.34 0.55 c 0.13 0 0.33 -0.28 0.52 -0.7 c 0.13 -0.29 0.22 -0.39 0.33 -0.38 c 0.13 0.02 0.16 0.14 0.18 0.77 c 0.02 0.71 0.01 0.76 -0.2 0.95 c -0.47 0.42 -0.4 0.81 0.3 1.7 c 0.51 0.63 0.51 0.65 0.51 1.19 c 0 0.63 0.11 0.78 0.54 0.71 c 0.26 -0.04 0.33 0.01 0.8 0.49 c 0.29 0.29 0.57 0.54 0.63 0.54 c 0.06 0 0.27 -0.21 0.46 -0.46 c 0.35 -0.44 0.68 -0.63 1.14 -0.63 c 0.2 0 0.34 -0.29 0.27 -0.54 c -0.09 -0.38 0.05 -0.79 0.47 -1.32 c 0.57 -0.72 0.64 -0.86 0.57 -1.21 c -0.04 -0.2 -0.13 -0.33 -0.31 -0.43 c -0.25 -0.13 -0.25 -0.15 -0.25 -0.81 c 0 -0.76 0.13 -1.07 0.4 -0.91 c 0.09 0.05 0.19 0.2 0.23 0.33 c 0.21 0.63 0.62 0.7 0.84 0.14 c 0.16 -0.43 0.29 -0.56 0.47 -0.49 c 0.11 0.04 0.14 0.2 0.14 0.8 c 0 0.73 -0.01 0.75 -0.26 0.96 c -0.25 0.2 -0.26 0.25 -0.25 0.74 c 0.02 0.58 -0.05 0.75 -0.62 1.45 c -0.22 0.27 -0.36 0.54 -0.39 0.77 c -0.03 0.21 -0.14 0.43 -0.26 0.54 c -0.14 0.13 -0.21 0.28 -0.21 0.49 c 0 0.41 -0.13 0.5 -0.66 0.5 c -0.53 0 -0.55 0.04 -0.55 0.98 c 0 0.82 0.02 0.86 0.52 0.86 c 0.52 0 0.81 0.21 0.55 0.39 c -0.21 0.15 -1.25 0.15 -1.46 0 c -0.14 -0.1 -0.16 -0.21 -0.14 -0.79 c 0.02 -0.41 -0.01 -0.69 -0.07 -0.72 c -0.14 -0.09 -0.43 0.11 -0.49 0.33 c -0.03 0.11 -0.08 0.2 -0.11 0.2 c -0.03 0 -0.22 -0.16 -0.42 -0.35 l -0.37 -0.35 l -0.09 0.22 c -0.05 0.12 -0.06 0.47 -0.04 0.79 c 0.05 0.55 0.04 0.58 -0.18 0.72 c -0.21 0.13 -0.23 0.13 -0.39 -0.03 m -0.31 -1.87 c 0.23 -0.17 0.07 -0.42 -0.27 -0.42 c -0.3 0 -0.39 0.26 -0.16 0.43 c 0.2 0.14 0.22 0.14 0.43 -0.01"/><path d="m 10.48 8.89 c -0.17 -0.05 -0.53 -0.56 -0.46 -0.91 c 0.03 -0.12 0.08 0.12 0.26 0.29 c 0.23 0.21 0.71 0.34 1.04 0.28 c 0.36 -0.07 0.62 -0.39 0.3 -1.03 c -0.25 -0.5 -0.25 -0.78 0.24 -0.89 c 0.12 -0.03 0.23 0.05 0.33 0.2 c 0.14 0.22 0.31 0.41 -0.04 0.57 c -0.32 0.15 -0.19 0.5 -0.19 0.77 c 0 0.59 -0.11 0.68 -0.78 0.73 c -0.31 0.02 -0.63 0.02 -0.71 0"/><path d="m 9.78 7.34 c -0.12 -0.34 -0.01 -0.68 0.23 -0.72 c 0.28 -0.04 0.5 0.14 0.5 0.42 c 0 0.57 -0.55 0.8 -0.73 0.3"/><path d="m 14.2 13.5 c -0.02 -0.04 -0.05 -0.31 -0.07 -0.61 c -0.03 -0.49 -0.04 -0.56 -0.18 -0.73 c -0.11 -0.14 -0.13 -0.2 -0.08 -0.25 c 0.17 -0.16 0.5 0.09 0.58 0.46 c 0.06 0.27 0 1.09 -0.08 1.14 c -0.08 0.05 -0.13 0.05 -0.17 -0.02"/><path d="m 14.96 13 c -0.1 -0.1 -0.1 -0.09 -0.03 -0.45 c 0.04 -0.21 0.04 -0.33 -0.02 -0.47 c -0.07 -0.2 -0.42 -0.5 -0.77 -0.65 c -0.23 -0.11 -0.28 -0.2 -0.15 -0.31 c 0.18 -0.14 0.55 0.05 0.82 0.43 c 0.09 0.13 0.23 0.25 0.33 0.29 c 0.09 0.04 0.2 0.11 0.24 0.15 c 0.17 0.2 0.17 0.24 -0.02 0.52 c -0.1 0.15 -0.18 0.31 -0.18 0.36 c 0 0.14 -0.14 0.21 -0.23 0.12"/><path d="m 15.23 11.45 c -0.02 -0.07 -0.15 -0.27 -0.29 -0.42 c -0.27 -0.28 -0.27 -0.29 -0.64 -0.32 c -0.42 -0.04 -0.54 -0.12 -0.4 -0.26 c 0.07 -0.07 0.16 -0.09 0.48 -0.07 c 0.37 0.02 0.4 0.03 0.61 0.22 c 0.3 0.29 0.59 0.72 0.57 0.86 c -0.01 0.09 -0.05 0.12 -0.16 0.12 c -0.12 -0.03 -0.15 -0.05 -0.17 -0.14"/><path d="m 15.88 12.1 c -0.06 -0.07 -0.05 -0.28 0.01 -0.79 c 0.04 -0.3 -0.02 -0.42 -0.41 -0.84 l -0.4 -0.44 l -0.48 -0.04 c -0.61 -0.05 -0.75 -0.08 -0.7 -0.17 c 0.07 -0.1 0.4 -0.16 0.91 -0.16 c 0.55 0 0.61 0.03 0.94 0.53 c 0.13 0.2 0.3 0.43 0.38 0.51 c 0.13 0.13 0.14 0.17 0.14 0.73 c 0 0.61 -0.04 0.75 -0.23 0.75 c -0.05 0 -0.12 -0.04 -0.16 -0.08"/><path d="m 7.42 13.47 c -0.11 -0.12 -0.16 -0.6 -0.1 -0.94 c 0.05 -0.23 0.09 -0.32 0.28 -0.48 c 0.13 -0.11 0.26 -0.19 0.31 -0.18 c 0.14 0.02 0.13 0.18 -0.02 0.31 c -0.13 0.11 -0.14 0.16 -0.18 0.68 c -0.05 0.7 -0.1 0.81 -0.29 0.6"/><path d="m 6.98 11.81 c -0.08 -0.13 0.35 -0.62 0.59 -0.69 c 0.14 -0.04 0.34 0.05 0.34 0.14 c 0 0.04 -0.07 0.1 -0.17 0.14 c -0.09 0.04 -0.27 0.16 -0.4 0.27 c -0.25 0.2 -0.3 0.23 -0.36 0.14"/><path d="m 6.48 12.63 c -0.23 -0.25 -0.27 -0.33 -0.24 -0.42 c 0.02 -0.06 0.04 -0.29 0.03 -0.5 l -0.02 -0.39 l 0.28 -0.35 c 0.39 -0.49 0.51 -0.57 0.89 -0.56 c 0.56 0 0.62 0.24 0.08 0.3 c -0.34 0.04 -0.52 0.16 -0.77 0.53 c -0.19 0.28 -0.22 0.55 -0.06 0.61 c 0.08 0.02 0.11 0.09 0.13 0.3 c 0.07 0.63 0.07 0.8 0.01 0.8 c -0.03 0 -0.18 -0.14 -0.34 -0.31"/><path d="m 5.63 12.1 c -0.04 -0.04 -0.06 -0.27 -0.06 -0.66 c 0 -0.55 0.01 -0.62 0.12 -0.75 c 0.07 -0.08 0.19 -0.25 0.27 -0.37 c 0.09 -0.13 0.25 -0.33 0.37 -0.45 l 0.21 -0.23 h 0.57 c 0.67 0 0.83 0.04 0.83 0.18 c 0 0.09 -0.05 0.11 -0.45 0.14 c -0.74 0.06 -0.8 0.09 -1.22 0.6 c -0.37 0.45 -0.41 0.56 -0.32 0.99 c 0.06 0.32 0.06 0.37 -0.02 0.48 c -0.1 0.14 -0.19 0.17 -0.29 0.07"/></g><g style="fill:#9aabcf"><path d="m 3.71 17.35 c -0.12 -0.15 -0.07 -3.45 0.05 -3.53 c 0.14 -0.09 0.84 -0.14 1.17 -0.1 c 0.23 0.04 0.35 0.1 0.56 0.31 c 0.44 0.44 0.44 0.81 -0.01 1.34 c -0.34 0.4 -0.34 0.41 0.32 1.54 c 0.14 0.23 0.14 0.27 0.05 0.39 c -0.13 0.18 -0.4 0.18 -0.57 0 c -0.07 -0.08 -0.24 -0.37 -0.38 -0.65 c -0.26 -0.53 -0.47 -0.74 -0.54 -0.54 c -0.02 0.06 -0.01 0.33 0.04 0.61 c 0.09 0.58 0.05 0.66 -0.35 0.71 c -0.11 0 -0.26 0.01 -0.32 -0.06 m 1.1 -2 c 0.17 -0.11 0.33 -0.4 0.33 -0.59 c 0 -0.17 -0.23 -0.54 -0.39 -0.63 c -0.2 -0.1 -0.3 0.05 -0.37 0.54 c -0.1 0.68 0.07 0.93 0.43 0.68"/><path d="m 6.81 17.45 c -0.13 -0.02 -0.26 -0.06 -0.3 -0.11 c -0.09 -0.11 -0.1 -2.82 -0.01 -2.91 c 0.04 -0.04 0.3 -0.08 0.58 -0.09 c 0.41 -0.02 0.55 -0.01 0.64 0.07 c 0.19 0.14 0.05 0.31 -0.32 0.37 c -0.35 0.06 -0.46 0.17 -0.46 0.45 c 0 0.25 0.1 0.34 0.35 0.34 c 0.32 0 0.53 0.11 0.51 0.26 c -0.02 0.16 -0.12 0.21 -0.52 0.28 c -0.3 0.05 -0.31 0.06 -0.33 0.27 c -0.02 0.25 0.07 0.55 0.19 0.59 c 0.04 0.01 0.18 0.04 0.31 0.06 c 0.28 0.05 0.43 0.24 0.25 0.33 c -0.29 0.08 -0.61 0.12 -0.9 0.09"/><path d="m 9.88 17.31 c -0.07 -0.07 -0.14 -0.22 -0.16 -0.34 c -0.05 -0.27 -0.29 -0.47 -0.55 -0.47 c -0.23 0 -0.36 0.13 -0.62 0.57 c -0.19 0.33 -0.32 0.38 -0.42 0.15 c -0.05 -0.12 -0.05 -0.2 0.04 -0.36 c 0.22 -0.48 0.4 -0.98 0.59 -1.46 c 0.14 -0.23 0.22 -1.02 0.5 -1.03 c 0.16 0 0.26 0.17 0.56 1 c 0.14 0.39 0.34 0.95 0.44 1.22 c 0.21 0.59 0.22 0.69 0.06 0.78 c -0.18 0.09 -0.3 0.08 -0.43 -0.06 m -0.53 -1.34 c 0.11 -0.44 -0.16 -0.65 -0.32 -0.25 c -0.12 0.28 -0.08 0.4 0.13 0.4 c 0.11 0 0.17 -0.04 0.2 -0.15"/><path d="m 11.1 17.34 c -0.14 -0.1 -0.14 -0.12 -0.14 -1.49 c 0 -1.38 0 -1.39 0.14 -1.45 c 0.08 -0.04 0.2 -0.04 0.27 -0.02 c 0.13 0.05 0.13 0.11 0.18 1.25 c 0.02 0.66 0.06 1.23 0.07 1.28 c 0.02 0.04 0.17 0.09 0.35 0.11 c 0.38 0.04 0.48 0.12 0.38 0.28 c -0.1 0.15 -1.05 0.18 -1.25 0.04"/><path d="m 13.1 17.39 c -0.04 -0.03 -0.08 -0.49 -0.11 -1.26 c -0.02 -0.7 -0.07 -1.24 -0.11 -1.29 c -0.04 -0.04 -0.17 -0.09 -0.29 -0.1 c -0.2 -0.02 -0.23 -0.04 -0.23 -0.18 c 0 -0.12 0.04 -0.16 0.19 -0.2 c 0.25 -0.05 1.13 -0.06 1.42 -0.02 c 0.21 0.04 0.23 0.06 0.22 0.2 c -0.02 0.13 -0.06 0.17 -0.23 0.2 c -0.12 0.02 -0.23 0.08 -0.27 0.13 c -0.03 0.05 -0.05 0.58 -0.05 1.18 c 0 0.89 -0.02 1.12 -0.1 1.23 c -0.09 0.14 -0.3 0.18 -0.44 0.09"/><path d="m 14.79 17.39 c -0.07 -0.02 -0.12 -0.12 -0.14 -0.29 c -0.06 -0.43 -0.01 -2.58 0.07 -2.66 c 0.04 -0.04 0.31 -0.09 0.61 -0.11 c 0.45 -0.03 0.56 -0.02 0.71 0.07 c 0.18 0.11 0.16 0.23 0 0.36 c -0.09 0.07 -0.22 -0.02 -0.39 -0.02 c -0.34 0 -0.43 0.11 -0.39 0.48 c 0.04 0.34 0.11 0.4 0.47 0.38 c 0.29 -0.01 0.4 0.07 0.37 0.29 c -0.02 0.1 -0.09 0.13 -0.41 0.18 l -0.39 0.05 c 0 0.29 0 0.57 0 0.86 h 0.33 c 0.35 0 0.44 0.04 0.5 0.19 c 0.07 0.19 -0.09 0.24 -0.67 0.23 c -0.31 0 -0.61 -0.02 -0.67 -0.04"/><path d="m 16.61 17.31 c -0.04 -0.07 -0.07 -0.65 -0.07 -1.45 c 0 -1.27 0.01 -1.34 0.13 -1.45 c 0.1 -0.09 0.16 -0.11 0.3 -0.06 c 0.16 0.06 0.17 0.09 0.2 0.57 c 0.02 0.28 0.05 0.53 0.07 0.55 c 0.32 -0.25 0.52 -0.6 0.81 -0.93 c 0.2 -0.22 0.24 -0.24 0.33 -0.17 c 0.15 0.12 0.13 0.18 -0.21 0.63 c -0.18 0.22 -0.33 0.47 -0.35 0.55 c -0.06 0.25 0.04 0.54 0.35 1.02 c 0.17 0.25 0.31 0.52 0.31 0.59 c 0 0.29 -0.33 0.37 -0.54 0.14 c -0.07 -0.08 -0.23 -0.34 -0.35 -0.59 c -0.3 -0.6 -0.41 -0.57 -0.41 0.11 c 0 0.42 -0.02 0.5 -0.12 0.55 c -0.19 0.1 -0.37 0.07 -0.44 -0.06"/></g></svg>