<svg xmlns="http://www.w3.org/2000/svg" viewBox="0 0 22 22"><path d="m 21.75 13.49 c -1.35 8.9 -13.36 11.29 -18.65 4.93 c -4.67 -4.72 -3.51 -13.76 2.22 -16.86 c 6.57 -4.14 16.1 0.98 16.67 9.23 c 0.05 0.9 -0.02 1.82 -0.23 2.7" style="fill:#dc312f"/><g style="fill:#fff"><path d="m 3.45 15.1 c -0.3 -0.12 -0.66 -0.5 -0.66 -0.72 c 0 -0.32 0.63 -1.19 1.3 -1.78 c 0.38 -0.34 0.41 -0.45 0.45 -1.48 c 0.02 -0.72 0.06 -1.06 0.17 -1.49 c 0.67 -2.63 2.41 -4.43 4.99 -5.15 c 0.84 -0.46 3.05 -0.21 2.87 0.11 c -0.04 0.04 -0.33 0.18 -0.63 0.29 c -0.7 0.27 -1.04 0.45 -1.43 0.74 c -1.02 0.75 -1.7 1.77 -1.96 2.96 c -0.11 0.5 -0.1 1.86 0.03 2.48 c 0.13 0.6 0.36 1.18 0.55 1.36 c 0.25 0.23 0.63 0.13 1.92 -0.52 c 0.88 -0.44 1.52 -0.83 1.55 -0.95 c 0.21 -0.78 0.26 -1.2 0.86 -1.46 c 0.72 -0.45 1.34 0.02 1.84 0.05 c 0.07 -0.02 0.63 -0.37 1.25 -0.78 c 0.62 -0.41 1.23 -0.8 1.37 -0.86 c 0.29 -0.15 0.46 0 0.53 0.29 c 0 0.22 -0.5 0.7 -1.43 1.38 c -1.11 0.81 -1.2 0.97 -1.42 1.55 c -0.36 0.94 -1.23 1.3 -2.07 1.05 c -0.65 -0.19 -0.81 -0.01 -2.34 0.69 c -2.37 1.09 -4.2 1.75 -5.86 2.13 c -0.73 0.17 -1.57 0.21 -1.87 0.09 m 1.28 -0.95 c 0.49 -0.08 0.33 -0.36 0.26 -0.52 c -0.18 -0.25 -0.52 -0.14 -0.67 0.04 c -0.52 0.38 -0.16 0.73 0.41 0.48"/><path d="m 9.86 17.77 c -0.82 -0.16 -1.84 -0.62 -2.61 -1.18 c -0.45 -0.33 -0.79 -0.67 -0.79 -0.81 c 0 -0.11 0.37 -0.28 1.14 -0.55 c 1.02 -0.37 1.88 -0.72 2.89 -1.12 l 0.56 0.27 c 1.26 0.48 2.29 0.66 3.52 0.43 c 0.69 -0.14 1.48 -0.55 2.27 -1.17 c 0.34 -0.28 0.64 -0.49 0.65 -0.48 c 0.01 0.01 -0.03 0.19 -0.09 0.39 c -0.2 0.67 -0.96 1.84 -1.58 2.47 c -1.81 1.65 -4 2 -5.96 1.75"/></g></svg>