<svg xmlns="http://www.w3.org/2000/svg" xmlns:xlink="http://www.w3.org/1999/xlink" viewBox="0 0 22 22"><defs><g id="3" style="clip-path:url(#2)"><path d="m 14.59 7.25 c 0 1.97 -1.62 3.57 -3.62 3.57 c -2 0 -3.61 -1.6 -3.61 -3.57 c 0 -1.97 1.62 -3.57 3.61 -3.57 c 2 0 3.62 1.6 3.62 3.57" style="fill:#f2a50c"/></g><g id="6" style="clip-path:url(#5)"><path d="m 14.56 14.34 c 0 1.97 -1.62 3.57 -3.62 3.57 c -2 0 -3.62 -1.6 -3.62 -3.57 c 0 -1.97 1.62 -3.57 3.62 -3.57 c 2 0 3.62 1.6 3.62 3.57" style="fill:#f2a50c"/></g><g id="9" style="clip-path:url(#8)"><path d="m 11.54 12.32 c 0 1.98 -1.62 3.57 -3.61 3.57 c -2 0 -3.62 -1.6 -3.62 -3.57 c 0 -1.97 1.62 -3.57 3.62 -3.57 c 2 0 3.61 1.6 3.61 3.57" style="fill:#f2a50c"/></g><g id="C" style="clip-path:url(#B)"><path d="m 17.54 9.37 c 0 1.98 -1.62 3.57 -3.62 3.57 c -2 0 -3.62 -1.6 -3.62 -3.57 c 0 -1.97 1.62 -3.57 3.62 -3.57 c 2 0 3.62 1.6 3.62 3.57" style="fill:#f2a50c"/></g><g id="F" style="clip-path:url(#E)"><path d="m 17.48 12.53 c 0 1.97 -1.62 3.57 -3.62 3.57 c -2 0 -3.62 -1.6 -3.62 -3.57 c 0 -1.98 1.62 -3.57 3.62 -3.57 c 2 0 3.62 1.6 3.62 3.57" style="fill:#f2a50c"/></g><g id="I" style="clip-path:url(#H)"><path d="m 11.71 9.2 c 0 1.97 -1.62 3.57 -3.61 3.57 c -2 0 -3.62 -1.6 -3.62 -3.57 c 0 -1.97 1.62 -3.57 3.62 -3.57 c 2 0 3.61 1.6 3.61 3.57" style="fill:#f2a50c"/></g><clipPath id="E"><path d="M 0,0 H22 V22 H0 z"/></clipPath><clipPath id="B"><path d="M 0,0 H22 V22 H0 z"/></clipPath><clipPath id="5"><path d="M 0,0 H22 V22 H0 z"/></clipPath><clipPath id="8"><path d="M 0,0 H22 V22 H0 z"/></clipPath><clipPath id="2"><path d="M 0,0 H22 V22 H0 z"/></clipPath><clipPath id="H"><path d="M 0,0 H22 V22 H0 z"/></clipPath><filter id="0" filterUnits="objectBoundingBox" x="0" y="0" width="22" height="22"><feColorMatrix type="matrix" in="SourceGraphic" values="0 0 0 0 1 0 0 0 0 1 0 0 0 0 1 0 0 0 1 0"/></filter><mask id="G"><g style="filter:url(#0)"><path d="M 0,0 H22 V22 H0 z" style="fill-opacity:0.8"/></g></mask><mask id="D"><g style="filter:url(#0)"><path d="M 0,0 H22 V22 H0 z" style="fill-opacity:0.8"/></g></mask><mask id="1"><g style="filter:url(#0)"><path d="M 0,0 H22 V22 H0 z" style="fill-opacity:0.8"/></g></mask><mask id="A"><g style="filter:url(#0)"><path d="M 0,0 H22 V22 H0 z" style="fill-opacity:0.8"/></g></mask><mask id="7"><g style="filter:url(#0)"><path d="M 0,0 H22 V22 H0 z" style="fill-opacity:0.8"/></g></mask><mask id="4"><g style="filter:url(#0)"><path d="M 0,0 H22 V22 H0 z" style="fill-opacity:0.8"/></g></mask></defs><path d="m 8.82 21.39 c -2 -0.85 -4.8 -2.11 -5 -2.27 c -0.15 -0.1 -0.41 -0.35 -0.57 -0.56 c -0.46 -0.6 -2.93 -4.9 -3 -5.29 c -0.1 -0.35 -0.05 -1.65 0.1 -2.82 c 0.34 -3.46 0.17 -3.38 0.63 -4.13 c 0.1 -0.2 1.08 -1.35 2.19 -2.55 c 2.12 -2.3 2.35 -2.49 3.25 -2.66 c 2.41 -0.41 3.94 -0.93 6.11 -1.05 c 1.93 0.82 4 1.68 5.83 2.71 c 0.29 0.24 0.71 0.88 1.66 2.49 c 1.95 3.3 1.79 2.95 1.78 4.1 c -0.2 1.8 -0.18 4.8 -0.81 6.08 c -0.22 0.4 -3.05 3.59 -3.95 4.44 c -0.45 0.42 -0.89 0.61 -1.93 0.83 c -1.05 0.39 -3.51 0.79 -4.35 0.95 c -0.49 0.11 -1.06 0.07 -1.85 -0.26" style="fill:#efe0c2"/><use xlink:href="#3" style="mask:url(#1)"/><use xlink:href="#6" style="mask:url(#4)"/><use xlink:href="#9" style="mask:url(#7)"/><use xlink:href="#C" style="mask:url(#A)"/><use xlink:href="#F" style="mask:url(#D)"/><use xlink:href="#I" style="mask:url(#G)"/><g style="fill:#e87a0b"><path d="m 13.1 15.94 c -0.52 -0.11 -0.88 -0.27 -1.28 -0.53 c -0.37 -0.24 -1.14 -1.03 -1.09 -1.12 c 0.36 -0.05 0.4 -0.16 0.52 -0.45 c 0.2 -0.46 0.3 -0.92 0.3 -1.43 v -0.38 l 0.34 -0.07 c 0.61 -0.13 1.52 0.04 2.05 0.67 l 0.23 0.27 l 0.12 0.35 c 0.24 0.72 0.2 1.62 -0.1 2.39 l -0.14 0.37 l -0.29 0.01 c -0.16 0 -0.45 -0.03 -0.66 -0.07"/><path d="m 6.95 12.55 c -0.8 -0.26 -1.61 -0.91 -1.98 -1.61 c -0.17 -0.31 -0.17 -0.32 -0.07 -0.52 c 0.16 -0.32 0.84 -0.95 1.25 -1.17 c 0.41 -0.21 0.87 -0.37 1.26 -0.43 l 0.26 -0.04 l 0.23 0.38 c 0.45 0.73 1.38 1.39 2.24 1.59 l 0.34 0.08 l -0.45 0.11 c -0.25 0.06 -0.54 0.16 -0.66 0.22 c -0.55 0.28 -1.1 0.77 -1.45 1.27 c -0.22 0.32 -0.32 0.33 -0.99 0.11"/><path d="m 7.66 15.56 c -0.18 -0.46 -0.25 -1.18 -0.18 -1.71 c 0.04 -0.25 0.12 -0.57 0.17 -0.7 c 0.09 -0.22 0.12 -0.24 0.37 -0.24 c 0.63 0 1.55 -0.3 2 -0.66 c 0.12 -0.09 0.23 -0.16 0.25 -0.16 c 0.02 0 0.04 0.16 0.04 0.36 c 0 0.48 0.15 1.15 0.34 1.58 c 0.19 0.41 0.18 0.46 -0.3 0.88 c -0.6 0.54 -1.59 0.92 -2.35 0.92 c -0.25 0 -0.27 -0.01 -0.37 -0.27"/><path d="m 13.84 12.41 c -0.46 -0.73 -1.23 -1.28 -2.09 -1.5 l -0.46 -0.12 l 0.34 -0.08 c 0.8 -0.18 1.71 -0.8 2.16 -1.45 c 0.2 -0.29 0.27 -0.31 0.83 -0.16 c 0.86 0.22 1.69 0.82 2.15 1.54 l 0.21 0.34 l -0.16 0.27 c -0.38 0.64 -1.3 1.31 -2.12 1.53 c -0.54 0.14 -0.57 0.13 -0.88 -0.36"/><path d="m 11.71 9.1 c -0.04 -0.58 -0.15 -1.01 -0.43 -1.58 l -0.15 -0.3 l 0.39 -0.38 c 0.61 -0.57 1.32 -0.89 2.23 -0.98 c 0.52 -0.05 0.58 0 0.72 0.64 c 0.13 0.59 0.09 1.34 -0.09 1.87 c -0.21 0.59 -0.23 0.62 -0.53 0.63 c -0.47 0 -1.13 0.18 -1.63 0.43 l -0.48 0.24"/><path d="m 9.95 9.35 c -0.46 -0.31 -1.25 -0.57 -1.82 -0.59 l -0.43 -0.01 l -0.14 -0.45 c -0.2 -0.63 -0.19 -1.61 0.02 -2.18 l 0.15 -0.41 l 0.43 -0.02 c 0.52 -0.02 1.07 0.11 1.6 0.38 c 0.42 0.21 1.07 0.76 1.2 1.02 c 0.07 0.14 0.06 0.19 -0.11 0.46 c -0.26 0.41 -0.44 0.99 -0.5 1.57 l -0.05 0.48"/></g><g style="fill:#e44211"><path d="m 10.34 10.91 c -1.07 0.2 -1.97 0.81 -2.58 1.76 c -0.09 0.14 -0.16 0.26 -0.16 0.28 c 0 0.05 0.15 0.05 0.49 0.03 c 0.76 -0.07 1.47 -0.36 2.04 -0.82 l 0.18 -0.15 v 0.48 c 0 0.36 0.01 0.55 0.06 0.8 c 0.08 0.35 0.29 0.89 0.45 1.15 l 0.1 0.16 l 0.1 -0.16 c 0.4 -0.63 0.64 -1.51 0.61 -2.2 c -0.01 -0.16 -0.01 -0.29 0 -0.29 c 0.01 0 0.1 0.06 0.2 0.14 c 0.54 0.39 1.17 0.61 1.85 0.65 c 0.21 0.01 0.38 0.01 0.38 -0.01 c 0.01 -0.09 -0.44 -0.7 -0.67 -0.91 c -0.48 -0.45 -1.06 -0.76 -1.63 -0.87 c -0.15 -0.03 -0.3 -0.06 -0.34 -0.07 c -0.05 -0.01 -0.07 0 -0.06 0.03 c 0.14 0.38 0.27 0.84 0.26 0.98 c 0 0.06 -0.26 -0.19 -0.45 -0.44 l -0.16 -0.21 l -0.2 0.25 c -0.11 0.14 -0.26 0.31 -0.34 0.39 l -0.14 0.13 l 0.03 -0.15 c 0.04 -0.22 0.17 -0.64 0.25 -0.82 c 0.05 -0.12 0.06 -0.17 0.03 -0.16 c -0.02 0 -0.15 0.02 -0.28 0.05"/><path d="m 10.35 10.75 c -1.05 -0.19 -1.91 -0.78 -2.47 -1.68 c -0.08 -0.14 -0.15 -0.25 -0.15 -0.27 c 0 -0.05 0.15 -0.05 0.48 -0.03 c 0.74 0.07 1.44 0.34 1.97 0.78 l 0.18 0.14 l 0.02 -0.46 c 0.01 -0.35 0.04 -0.53 0.1 -0.77 c 0.09 -0.34 0.32 -0.86 0.5 -1.11 l 0.11 -0.15 l 0.09 0.15 c 0.37 0.61 0.56 1.45 0.49 2.11 c -0.02 0.15 -0.02 0.28 -0.02 0.28 c 0 0 0.09 -0.06 0.2 -0.13 c 0.55 -0.38 1.19 -0.59 1.86 -0.62 c 0.2 -0.01 0.37 -0.01 0.37 0 c 0 0.09 -0.47 0.67 -0.71 0.88 c -0.49 0.43 -1.09 0.72 -1.65 0.83 c -0.15 0.03 -0.3 0.06 -0.34 0.07 c -0.05 0.01 -0.07 0 -0.06 -0.02 c 0.16 -0.37 0.3 -0.81 0.3 -0.94 c 0 -0.06 -0.27 0.18 -0.47 0.42 l -0.17 0.2 l -0.18 -0.24 c -0.1 -0.14 -0.24 -0.3 -0.32 -0.37 l -0.13 -0.13 l 0.02 0.14 c 0.03 0.21 0.13 0.61 0.2 0.79 c 0.04 0.11 0.05 0.16 0.02 0.16 c -0.02 0 -0.14 -0.02 -0.27 -0.05"/></g></svg>