<svg xmlns="http://www.w3.org/2000/svg" viewBox="0 0 22 22"><path d="m 21.1 13 c -2.19 14.67 -24.73 9.66 -20.46 -4.54 c 2.86 -13.49 25.92 -9.84 20.46 4.54" style="fill:#efe58c"/><g transform="matrix(0.05 0 0 0.051 5.8 -30.85)" style="stroke-width:0.8"><path d="m 35.5 853.8 c -2.64 0 -4.74 2.07 -4.74 4.67 v 11 c -4.12 0.99 -7.93 2.52 -11.43 4.51 l -8 -7.73 c -1.94 -1.84 -4.9 -1.84 -6.84 0 l -7.93 7.57 c -1.87 1.84 -1.87 4.74 0 6.58 l 8.1 7.8 c -2.1 3.37 -3.65 7.11 -4.74 11 h -11.35 c -2.72 0 -4.82 2.07 -4.82 4.67 v 10.79 c 0 2.6 2.1 4.67 4.82 4.67 h 11.35 c 1 3.9 2.64 7.65 4.74 11 l -8.1 7.8 c -1.87 1.76 -1.87 4.67 0 6.5 l 7.93 7.65 c 1.87 1.84 4.9 1.84 6.84 0 l 8 -7.73 c 3.5 1.99 7.31 3.52 11.43 4.51 v 11 c 0 2.6 2.1 4.67 4.74 4.67 h 11.28 c 2.64 0 4.74 -2.07 4.74 -4.67 v -11 c 4.12 -0.99 7.93 -2.52 11.43 -4.51 l 8 7.73 c 1.94 1.84 4.9 1.84 6.84 0 l 7.93 -7.65 c 1.87 -1.76 1.87 -4.67 0 -6.5 l -8.1 -7.8 c 2.1 -3.37 3.65 -7.11 4.74 -11 h 11.35 c 2.64 0 4.82 -2.07 4.82 -4.67 v -10.79 c 0 -2.6 -2.1 -4.67 -4.82 -4.67 h -11.35 c -1 -3.9 -2.64 -7.65 -4.74 -11 l 8.1 -7.8 c 1.87 -1.76 1.87 -4.67 0 -6.58 l -7.93 -7.57 c -1.87 -1.84 -4.9 -1.84 -6.84 0 l -8 7.73 c -3.5 -1.99 -7.31 -3.52 -11.43 -4.51 v -11 c 0 -2.6 -2.1 -4.67 -4.74 -4.67 m -5.68 36.49 c 10.89 0 19.67 8.49 19.67 19 c 0 10.48 -8.79 18.97 -19.67 18.97 c -10.81 0 -19.6 -8.49 -19.6 -18.97 c 0 -10.48 8.79 -19 19.6 -19" style="fill:#6a8e22;stroke:#6a8e22"/><path d="m 150 803.7 c -2.57 -0.54 -5.21 0.99 -5.75 3.52 l -2.57 10.79 c -4.2 0.08 -8.32 0.77 -12.21 1.99 l -5.99 -9.33 c -1.4 -2.14 -4.35 -2.83 -6.69 -1.45 l -9.49 5.81 c -2.26 1.38 -2.95 4.21 -1.48 6.35 l 5.99 9.33 c -2.8 2.83 -5.21 6.12 -7.15 9.72 l -11.1 -2.45 c -2.57 -0.54 -5.21 0.99 -5.75 3.52 l -2.57 10.56 c -0.62 2.52 1 4.97 3.58 5.58 l 11.1 2.37 c 0.08 4.05 0.78 8 2 11.78 l -9.64 5.81 c -2.26 1.38 -2.95 4.21 -1.56 6.43 l 5.91 9.18 c 1.48 2.14 4.35 2.83 6.69 1.45 l 9.64 -5.89 c 2.95 2.68 6.3 5 10 6.89 l -2.57 10.71 c -0.62 2.52 1 4.97 3.58 5.58 l 10.96 2.37 c 2.57 0.54 5.13 -0.99 5.75 -3.52 l 2.57 -10.71 c 4.2 -0.08 8.32 -0.77 12.1 -2.07 l 6.1 9.33 c 1.4 2.22 4.35 2.83 6.61 1.45 l 9.56 -5.74 c 2.26 -1.38 2.88 -4.21 1.48 -6.43 l -5.99 -9.33 c 2.8 -2.83 5.21 -6.12 7.15 -9.72 l 11.1 2.45 c 2.57 0.61 5.13 -0.99 5.75 -3.52 l 2.57 -10.56 c 0.54 -2.45 -1 -4.97 -3.65 -5.51 l -11.1 -2.45 c -0.08 -4.05 -0.78 -7.96 -2 -11.71 l 9.72 -5.89 c 2.26 -1.38 2.95 -4.21 1.56 -6.43 l -5.99 -9.1 c -1.4 -2.22 -4.28 -2.83 -6.61 -1.45 l -9.64 5.81 c -2.95 -2.68 -6.3 -4.97 -10 -6.81 l 2.57 -10.79 c 0.62 -2.45 -1 -4.97 -3.58 -5.51 m -14.1 34.4 c 10.58 2.37 17.2 12.47 14.7 22.72 c -2.41 10.25 -12.99 16.6 -23.56 14.31 c -10.58 -2.3 -17.1 -12.47 -14.7 -22.72 c 2.49 -10.17 12.99 -16.6 23.56 -14.31" style="fill:#473d8b;stroke:#626975"/><path d="m 97.5 720.5 c -2.41 -1.22 -5.29 -0.31 -6.53 1.99 l -5.37 9.72 c -4.12 -0.92 -8.24 -1.22 -12.29 -0.99 l -3.34 -10.48 c -0.78 -2.45 -3.5 -3.83 -6.1 -3.06 l -10.73 3.29 c -2.57 0.77 -3.97 3.29 -3.19 5.81 l 3.34 10.48 c -3.5 2.07 -6.69 4.59 -9.56 7.57 l -10 -5 c -2.41 -1.15 -5.29 -0.31 -6.53 1.99 l -5.29 9.56 c -1.24 2.3 -0.39 5 1.94 6.27 l 10.1 5 c -1 3.9 -1.4 7.96 -1.17 11.86 l -10.96 3.29 c -2.49 0.77 -3.97 3.37 -3.19 5.81 l 3.27 10.33 c 0.78 2.45 3.5 3.75 6.1 2.98 l 10.89 -3.29 c 2.1 3.37 4.74 6.43 7.85 9.1 l -5.37 9.72 c -1.24 2.3 -0.39 5.13 2 6.27 l 9.88 4.97 c 2.41 1.22 5.29 0.31 6.53 -1.99 l 5.37 -9.72 c 4.12 0.92 8.24 1.22 12.29 0.99 l 3.34 10.48 c 0.78 2.45 3.42 3.83 6.1 3.06 l 10.73 -3.29 c 2.49 -0.77 3.97 -3.29 3.19 -5.81 l -3.34 -10.48 c 3.5 -1.99 6.69 -4.59 9.49 -7.57 l 10.1 5 c 2.41 1.22 5.29 0.31 6.53 -1.99 l 5.29 -9.56 c 1.24 -2.3 0.39 -5 -2 -6.27 l -10 -5 c 1 -3.9 1.4 -7.88 1.17 -11.86 l 10.89 -3.29 c 2.57 -0.77 3.97 -3.37 3.27 -5.81 l -3.27 -10.25 c -0.78 -2.45 -3.5 -3.83 -6.1 -3.06 l -10.89 3.29 c -2.18 -3.37 -4.74 -6.43 -7.85 -9.1 l 5.37 -9.72 c 1.24 -2.3 0.39 -5 -2 -6.27 m -22.78 29.84 c 9.64 4.82 13.3 16.22 8.16 25.55 c -5.13 9.26 -17 12.85 -26.67 8 c -9.56 -4.82 -13.22 -16.22 -8.1 -25.55 c 5.13 -9.26 17 -12.85 26.59 -8" style="fill:#c71485;stroke:#c71485"/><path d="m 183.9 680.9 c -2.72 -0.15 -4.98 1.84 -5.13 4.36 l -0.78 11 c -4.12 0.77 -8 2.07 -11.66 3.83 l -7.47 -8.26 c -1.79 -1.91 -4.82 -2.07 -6.84 -0.38 l -8.4 7.19 c -2 1.68 -2.18 4.59 -0.47 6.5 l 7.54 8.26 c -2.33 3.29 -4.2 6.89 -5.44 10.71 l -11.43 -0.69 c -2.64 -0.15 -4.9 1.76 -5.1 4.36 l -0.78 10.79 c -0.16 2.6 1.79 4.82 4.51 4.97 l 11.35 0.69 c 0.78 3.9 2.1 7.73 3.97 11.25 l -8.55 7.27 c -2 1.68 -2.26 4.59 -0.47 6.58 l 7.39 8.11 c 1.71 1.91 4.74 2.07 6.77 0.38 l 8.55 -7.27 c 3.34 2.22 7.1 3.98 11 5.2 l -0.7 11 c -0.23 2.6 1.79 4.74 4.43 4.97 l 11.2 0.61 c 2.64 0.23 4.98 -1.76 5.13 -4.28 l 0.78 -11 c 4 -0.77 8 -2.07 11.66 -3.9 l 7.47 8.26 c 1.79 1.99 4.74 2.14 6.77 0.46 l 8.48 -7.19 c 1.94 -1.68 2.18 -4.59 0.39 -6.58 l -7.47 -8.26 c 2.33 -3.21 4.12 -6.81 5.44 -10.63 l 11.35 0.69 c 2.64 0.15 4.98 -1.76 5.13 -4.36 l 0.78 -10.79 c 0.16 -2.6 -1.87 -4.82 -4.51 -4.97 l -11.35 -0.69 c -0.78 -3.98 -2.1 -7.73 -3.97 -11.25 l 8.55 -7.27 c 2 -1.76 2.18 -4.59 0.47 -6.58 l -7.39 -8.11 c -1.79 -1.91 -4.74 -2.14 -6.77 -0.38 l -8.63 7.27 c -3.34 -2.22 -7 -3.98 -11 -5.28 l 0.78 -10.94 c 0.16 -2.6 -1.79 -4.82 -4.51 -4.97 m -8.1 36.1 c 10.89 0.69 19.1 9.72 18.35 20.1 c -0.7 10.48 -10.1 18.44 -20.92 17.83 c -10.81 -0.69 -18.97 -9.72 -18.27 -20.2 c 0.7 -10.4 10 -18.36 20.84 -17.75" style="fill:#f00;stroke:#f00"/></g></svg>