<svg xmlns="http://www.w3.org/2000/svg" viewBox="0 0 22 22"><path d="m 11 0.12 c -14.73 -1.66 -14.62 22.1 0.17 21.86 c 13.75 0.79 15.1 -23.2 -0.17 -21.86" style="fill:#2a2afb"/><path d="m 10.3 16.27 l -0.43 -0.04 c -0.24 -0.02 -1.25 -0.09 -2.25 -0.14 c -2.16 -0.11 -2.76 -0.21 -2.57 -0.4 c 0.06 -0.07 1.79 -0.18 3.87 -0.26 l 1.38 -0.05 v -2.11 c 0 -1.14 -0.08 -2.37 0.01 -3.51 l -2.15 -0.05 c -2.65 -0.07 -3.57 -0.06 -3.37 -0.26 c 0.07 -0.08 3.4 -0.31 4.45 -0.31 c 0.59 0 1.06 -0.03 1.06 -0.07 c 0 -0.04 0.11 -0.88 0.17 -1.93 c 0.15 -2.23 0.2 -3.17 0.38 -3.82 c 0.07 -0.26 0.2 -0.75 0.21 -0.81 c 0.01 -0.29 0.07 0.18 0.18 0.7 c 0.27 1.2 0.18 2.73 0.42 5.08 l 0.09 0.89 l 2.31 0.05 c 2.25 0.05 3.06 0.11 3.14 0.25 c 0.09 0.16 -0.46 0.2 -2.89 0.24 c -1.82 0.03 -2.57 0.07 -2.62 0.14 c 0.04 2.11 0.05 3.56 0.14 5.48 l 1.48 0.06 c 2.68 0.11 4.17 0.21 4.23 0.27 c -0.28 0.26 -2.87 0.42 -3.3 0.45 c -1.26 0.07 -2.4 0.15 -2.45 0.18 c -0.07 1.12 0.14 4.54 0.14 5.61 c -0.63 0.28 -1.23 0.05 -1.73 0.05 c 0 -0.95 0.09 -4.73 0.09 -5.69" style="fill:#c8c1df"/><g style="fill:#f46670"><path d="m 2.66 10.14 h 16.63 c 0.04 0 0.07 0.03 0.07 0.06 v 0.68 c 0 0.04 -0.03 0.06 -0.07 0.06 h -16.63 c -0.04 0 -0.07 -0.03 -0.07 -0.06 v -0.68 c 0 -0.03 0.03 -0.06 0.07 -0.06"/><path d="m 2.67 7.98 h 16.61 c 0.04 0 0.07 0.03 0.07 0.06 v 0.68 c 0 0.04 -0.03 0.06 -0.07 0.06 h -16.61 c -0.04 0 -0.07 -0.03 -0.07 -0.06 v -0.68 c 0 -0.04 0.03 -0.06 0.07 -0.06"/><path d="m 3.36 8.14 v 2.58 c 0 0.04 -0.03 0.07 -0.06 0.07 h -0.65 c -0.03 0 -0.06 -0.03 -0.06 -0.07 v -2.58 c 0 -0.04 0.03 -0.07 0.06 -0.07 h 0.65 c 0.04 0 0.06 0.04 0.06 0.07"/><path d="m 19.35 8.18 v 2.53 c 0 0.04 -0.03 0.07 -0.06 0.07 h -0.64 c -0.04 0 -0.06 -0.03 -0.06 -0.07 v -2.53 c 0 -0.04 0.03 -0.07 0.06 -0.07 h 0.64 c 0.04 0 0.06 0.03 0.06 0.07"/></g></svg>