<svg xmlns="http://www.w3.org/2000/svg" viewBox="0 0 22 22"><path d="m 16.18 21 c 10.35 -4.33 5.73 -21.1 -5.54 -20.98 c -10.25 -0.17 -14.1 13.16 -6.83 19 c 3.16 2.92 8.39 3.95 12.38 1.98" style="fill:#86cefa"/><path d="m 6.68 17.46 c -1.55 -1.05 -2.79 -3 -3.16 -4.99 c -0.11 -0.61 -0.1 -2.05 0.03 -2.69 c 0.45 -2.32 1.91 -4.24 4 -5.3 c 1.11 -0.56 2.14 -0.8 3.43 -0.8 c 2.86 0 5.39 1.52 6.8 4.09 c 0.61 1.09 0.84 2.05 0.85 3.38 c 0 1.71 -0.47 3.16 -1.49 4.54 c -0.64 0.86 -2.04 2.07 -2.29 1.97 c -0.13 -0.05 -0.69 -1.03 -0.69 -1.19 c 0.56 -0.64 1.36 -1.16 1.86 -1.88 c 0.75 -1.1 1.08 -2.16 1.07 -3.46 c 0 -0.98 -0.16 -1.71 -0.57 -2.53 c -0.74 -1.52 -2.39 -2.84 -4.08 -3.29 c -0.84 -0.21 -2.15 -0.21 -2.96 0.01 c -0.79 0.21 -1.62 0.64 -2.27 1.16 c -2.28 1.83 -2.91 4.83 -1.57 7.53 c 0.12 0.25 0.31 0.58 0.43 0.75 c 0.26 0.38 1.1 1.19 1.46 1.41 c 0.27 0.16 0.3 0.21 0.27 0.47 c -0.02 0.19 -0.51 1.03 -0.62 1.07 c -0.05 0.02 -0.27 -0.09 -0.5 -0.25 m 1.54 -2.64 c -1.04 -0.83 -1.78 -2.36 -1.78 -3.7 c 0 -1.03 0.57 -2.32 1.35 -3.11 c 1.78 -1.78 4.62 -1.76 6.42 0.03 c 0.54 0.53 0.96 1.21 1.21 1.96 c 0.34 1.16 0.13 2.5 -0.45 3.48 c -0.43 0.72 -1.28 1.54 -1.59 1.54 c -0.39 -0.34 -0.54 -0.7 -0.78 -1.19 c 0 -0.02 0.22 -0.25 0.49 -0.51 c 0.54 -0.54 0.74 -0.88 0.91 -1.54 c 0.26 -1 -0.13 -2.07 -1 -2.81 c -0.65 -0.55 -1.2 -0.76 -2 -0.76 c -1.06 0 -1.89 0.44 -2.47 1.3 c -0.34 0.51 -0.5 1.04 -0.5 1.64 c 0 0.9 0.3 1.61 0.94 2.23 c 0.23 0.22 0.42 0.46 0.42 0.53 c 0 0.13 -0.38 0.84 -0.56 1.05 c -0.15 0.18 -0.22 0.16 -0.6 -0.14 m 2.27 -2.18 c -0.64 -0.32 -0.99 -1 -0.95 -1.57 c 0.11 -1.44 1.96 -1.86 2.75 -0.62 c 0.27 0.42 0.31 1 0.11 1.39 c -0.35 0.69 -1.2 1.04 -1.91 0.8" style="fill:#4c90f3"/></svg>