<svg xmlns="http://www.w3.org/2000/svg" viewBox="0 0 22 22"><path d="m 5.38 19.51 c 8 7.15 20.34 -4.13 15.35 -13.55 c -5 -9.53 -21.72 -7 -20.3 4.71 c 0.42 3.48 2.33 6.51 4.94 8.84" style="fill:#0a0504"/><g style="fill:#fff"><path d="m 10.94 18.48 c -0.02 -0.09 -0.07 -0.43 -0.11 -0.75 c -0.13 -0.98 -0.38 -1.02 -0.51 -0.07 c -0.04 0.29 -0.1 0.55 -0.13 0.58 c -0.12 0.13 -0.29 -0.32 -0.35 -0.92 c -0.09 -0.94 -0.15 -1.02 -0.51 -0.68 c -0.11 0.11 -0.21 0.18 -0.22 0.16 c -0.02 -0.02 -0.13 -0.38 -0.25 -0.81 c -0.25 -0.89 -0.48 -1.27 -0.9 -1.5 c -0.59 -0.33 -1.52 -0.34 -1.86 -0.03 c -0.12 0.1 -0.14 0.1 -0.32 0 c -0.11 -0.06 -0.34 -0.31 -0.52 -0.55 c -0.52 -0.68 -0.45 -1.06 0.21 -1.06 c 0.4 0 0.73 -0.21 0.93 -0.59 c 0.11 -0.21 0.27 -0.84 0.44 -1.72 c 0.41 -2.08 0.39 -2.06 1.28 -2.2 c 0.84 -0.13 1.2 -0.59 1.33 -1.66 c 0.12 -1 0.12 -1.03 0.32 -1.16 c 0.16 -0.1 0.36 -0.12 1.28 -0.12 c 0.98 0 1.12 0.02 1.34 0.14 l 0.25 0.14 v 0.66 c 0.01 0.56 0.04 0.71 0.21 1.05 c 0.25 0.51 0.65 0.82 1.2 0.94 c 0.61 0.13 0.76 0.23 0.96 0.64 c 0.13 0.27 0.2 0.57 0.25 1.11 c 0.08 0.85 0.29 1.74 0.52 2.16 c 0.18 0.32 0.64 0.6 1.02 0.6 c 0.32 0 0.51 0.12 0.51 0.31 c 0 0.27 -0.61 1.08 -1 1.34 c -0.2 0.13 -0.2 0.13 -0.41 -0.04 c -0.25 -0.21 -0.85 -0.3 -1.27 -0.19 c -0.57 0.16 -1.34 1.1 -1.34 1.64 c 0 0.31 -0.14 0.83 -0.23 0.83 c -0.04 0 -0.18 -0.1 -0.3 -0.22 c -0.21 -0.21 -0.23 -0.21 -0.3 -0.09 c -0.04 0.07 -0.13 0.47 -0.2 0.89 c -0.07 0.42 -0.15 0.8 -0.18 0.85 c -0.11 0.16 -0.25 -0.14 -0.3 -0.61 c -0.06 -0.57 -0.09 -0.68 -0.21 -0.68 c -0.12 0 -0.16 0.17 -0.21 0.88 c -0.06 0.79 -0.09 0.88 -0.25 0.88 c -0.09 0 -0.15 -0.06 -0.17 -0.16 m 0.65 -4.43 c 0.11 -0.06 0.15 -0.14 0.15 -0.31 c 0 -0.28 -0.38 -1.07 -0.54 -1.14 c -0.17 -0.06 -0.37 0.15 -0.59 0.63 c -0.21 0.45 -0.26 0.84 -0.11 0.91 c 0.14 0.06 0.93 0 1.09 -0.09 m -3.52 -1.38 c 0.27 -0.22 0.66 -0.23 1.29 -0.04 c 0.57 0.18 0.68 0.18 0.73 -0.02 c 0.06 -0.24 -0.05 -0.46 -0.49 -1 c -0.22 -0.27 -0.51 -0.73 -0.65 -1.02 c -0.14 -0.29 -0.29 -0.55 -0.33 -0.58 c -0.13 -0.09 -0.57 0.22 -0.77 0.53 c -0.24 0.37 -0.46 1.08 -0.51 1.64 c -0.04 0.4 -0.03 0.44 0.13 0.55 c 0.23 0.16 0.37 0.14 0.61 -0.06 m 4.65 0 c 0.48 -0.2 0.77 -0.22 1.2 -0.07 c 0.52 0.18 0.82 0.23 0.9 0.15 c 0.37 -0.37 -0.76 -2.95 -1.21 -2.78 c -0.06 0.02 -0.25 0.32 -0.43 0.66 c -0.31 0.61 -0.51 0.86 -1.05 1.34 c -0.3 0.27 -0.32 0.41 -0.11 0.68 c 0.18 0.23 0.18 0.23 0.7 0.01"/><path d="m 13.9 7.53 c -0.39 -0.24 -0.56 -0.52 -0.6 -0.97 c -0.04 -0.48 0.1 -0.74 0.52 -1 c 0.45 -0.29 0.76 -0.51 1.76 -0.44 c 0.65 0.05 0.98 0.13 1.53 -0.49 c 0.27 -0.3 0.46 -0.23 0.57 0.15 c 0.2 0.72 -0.61 2 -1.42 2.25 c -0.21 0.06 -0.56 0.23 -0.77 0.37 c -0.51 0.33 -1.18 0.39 -1.59 0.14"/><path d="m 8.44 7.53 c 0.39 -0.24 0.56 -0.52 0.6 -0.97 c 0.04 -0.48 -0.1 -0.74 -0.52 -1 c -0.45 -0.29 -0.76 -0.51 -1.76 -0.44 c -0.66 0.05 -0.98 0.13 -1.53 -0.49 c -0.27 -0.3 -0.46 -0.23 -0.57 0.15 c -0.2 0.72 0.61 2 1.42 2.25 c 0.21 0.06 0.56 0.23 0.77 0.37 c 0.51 0.33 1.18 0.39 1.59 0.14"/></g></svg>