<svg xmlns="http://www.w3.org/2000/svg" viewBox="0 0 22 22"><path d="m 18.85 4.13 c 13.72 19.51 -21.98 25.72 -18.43 4.98 c 1.88 -8.24 12.93 -12.8 18.43 -4.98" style="fill:#020000"/><path d="m 8.65 15.36 c -0.07 -0.09 -0.1 -0.29 -0.06 -0.52 c 0.07 -0.5 0.55 -0.9 2.19 -1.86 c 1.63 -0.95 2.14 -1.4 2.14 -1.87 c 0 -0.27 -0.06 -0.37 -0.32 -0.53 c -0.17 -0.11 -0.43 -0.2 -0.57 -0.2 c -0.28 0 -0.56 -0.22 -0.56 -0.45 c 0 -0.11 0.15 -0.14 0.66 -0.14 c 1.4 0 2.32 0.98 1.82 1.96 c -0.08 0.15 -0.56 0.67 -1.08 1.15 l -0.94 0.88 l 0.43 0.07 c 0.62 0.1 3.42 0.09 4.2 -0.01 c 0.37 -0.05 0.7 -0.14 0.74 -0.21 c 0.13 -0.21 -0.32 -1.05 -2.4 -4.5 c -1.23 -2.04 -1.57 -2.46 -1.86 -2.3 c -0.09 0.05 -0.53 0.64 -0.98 1.33 c -0.95 1.45 -0.82 1.45 -1.75 0 c -0.33 -0.51 -0.68 -0.95 -0.78 -0.98 c -0.41 -0.13 -0.29 -0.31 -3.42 4.98 c -0.98 1.65 -1.8 3.24 -1.89 3.25 c -0.46 0.09 -0.94 -3.04 -0.58 -4.57 c 0.64 -2.77 2.93 -4.95 5.58 -5.7 c 1.02 -0.29 3 -0.31 3.92 -0.04 c 2.46 0.73 4.16 2.49 5.08 4.96 c 0.3 1.11 0.54 3.04 -0.11 5.3 c -0.13 0.13 -0.73 0.15 -4.73 0.15 c -3.97 0 -4.6 -0.02 -4.71 -0.15" style="fill:#fff"/></svg>