<svg xmlns="http://www.w3.org/2000/svg" viewBox="0 0 22 22"><path d="m 18.85 17.96 c 13.72 -19.51 -21.98 -25.72 -18.43 -4.98 c 1.88 8.24 12.93 12.8 18.43 4.98" style="fill:#00a1ad"/><g style="fill:#fff"><path d="m 9.54 17.92 c -0.33 -0.14 -0.51 -0.62 -0.67 -1.55 c -0.08 -0.46 -0.16 -0.72 -0.34 -1.11 c -0.13 -0.28 -0.27 -0.66 -0.32 -0.85 c -0.2 -0.77 -0.34 -1.11 -1.14 -2.63 c -0.25 -0.48 -0.53 -1.08 -0.61 -1.34 c -0.7 -2.1 0.2 -4.25 2.23 -5.29 c 1.27 -0.58 2.57 -0.58 3.78 -0.11 c 0.93 0.37 1.84 1.21 2.29 2.1 c 0.44 0.87 0.5 2.19 0.16 3.28 c -0.07 0.25 -0.41 0.98 -0.73 1.63 c -0.68 1.36 -0.71 1.42 -1.16 2.78 c -0.23 0.7 -0.36 1.16 -0.39 1.47 c -0.03 0.25 -0.07 0.54 -0.1 0.64 c -0.08 0.31 -0.38 0.85 -0.57 0.93 c -0.41 0.17 -2.11 0.2 -2.43 0.06 m 0.82 -3.05 c 0.01 -0.01 0.03 -0.55 0.05 -1.21 l 0.04 -1.19 l -0.33 -0.22 c -0.75 -0.5 -1.05 -0.85 -1.25 -1.43 c -0.1 -0.29 -0.53 -2.34 -0.53 -2.52 c 0 -0.12 0.07 -0.11 0.49 0.11 c 0.93 0.47 1.59 1.05 1.98 1.73 c 0.32 0.58 0.26 1.13 0.55 0.28 c 0.17 -0.48 0.78 -0.71 1.37 -0.71 c 0.77 -0.01 0.59 0.16 0.39 0.55 c -0.13 0.26 -0.63 0.9 -0.88 1.13 c -0.23 0.22 -0.36 0.28 -0.72 0.32 c -0.16 0.02 -0.29 0.07 -0.36 0.15 c -0.05 0.06 -0.19 0.22 -0.3 0.34 l -0.2 0.23 c 0.09 0.69 0.1 1.66 0.17 2.45 c 0.47 -0.07 1.3 0.06 1.48 -0.1 c 0.06 -0.09 0.13 -0.29 0.17 -0.44 c 0.1 -0.41 0.3 -0.89 0.96 -2.26 c 0.73 -1.52 0.9 -1.93 1.01 -2.5 c 0.1 -0.5 0.08 -0.87 -0.09 -1.47 c -0.19 -0.68 -0.45 -1.13 -0.91 -1.6 c -0.48 -0.48 -0.9 -0.73 -1.63 -0.95 c -0.99 -0.27 -2.09 -0.16 -2.89 0.23 c -0.76 0.38 -1.29 0.91 -1.66 1.66 c -0.25 0.51 -0.36 1 -0.36 1.61 c 0 0.82 0.2 1.39 1.02 2.94 c 0.62 1.16 0.75 1.49 0.95 2.23 c 0.18 0.71 0.2 0.73 0.91 0.69 c 0.3 -0.02 0.55 -0.04 0.56 -0.04"/><path d="m 11.25 11.57 h 0.22 v 3.52 h -0.22"/></g><g style="fill:#00a1ad"><path d="m 9.68 15.72 l 2.02 -0.08 c 0.09 0 0.18 0.07 0.18 0.16 v 0.17 c 0 0.09 -0.07 0.18 -0.16 0.18 l -2.02 0.08 c -0.09 0 -0.17 -0.07 -0.18 -0.16 v -0.17 c 0 -0.1 0.07 -0.18 0.16 -0.18"/><path d="m 10 16.57 l 1.56 -0.04 c 0.09 0 0.17 0.07 0.17 0.17 v 0.17 c 0 0.1 -0.07 0.18 -0.17 0.18 l -1.56 0.04 c -0.09 0 -0.17 -0.07 -0.17 -0.17 v -0.17 c 0 -0.09 0.07 -0.17 0.17 -0.17"/></g></svg>