<svg xmlns="http://www.w3.org/2000/svg" viewBox="0 0 22 22"><path d="m 19.2 3.31 c 12.58 19.37 -21.79 26.87 -19 6.94 c 1.12 -8.13 14.23 -14.35 19 -6.94" style="fill:#00abea"/><path d="m 9.83 5.77 c -0.66 0.02 -1.18 0.53 -1.18 1.17 c 0 0.14 0.03 0.29 0.09 0.42 h -0.47 c -0.68 0 -1.22 0.52 -1.22 1.17 c 0 0.65 0.54 1.17 1.22 1.17 h 2.41 v -2.93 h 3.2 v 2.07 h -2.13 v 0.85 h 1.53 c 0.01 0.64 0.55 1.15 1.22 1.15 c 0.01 0 0.01 0 0.02 0 h 3 v -2.43 c -0.18 -3.37 -3.61 -5.15 -6 -3.23 c -0.55 0.44 -0.61 0.46 -1.66 0.58" style="fill:#25d1ff"/><path d="m 3.83 12.6 v 1.88 c -0.15 5.54 9.49 5.41 11 2.05 h 1.41 c 0.3 0 0.56 -0.1 0.78 -0.27 c 0.2 -0.34 0.34 -0.71 0.41 -1.11 c -0.11 -0.54 -0.6 -0.95 -1.2 -0.95 h -3.32 c 0.05 -0.13 0.08 -0.27 0.08 -0.42 c 0 -0.65 -0.54 -1.17 -1.22 -1.17 h -0.05 v 1.45 c 0 1.15 -0.96 2.07 -2.13 2.07 c -1.18 0 -2.14 -0.93 -2.14 -2.07 c 0 -0.56 0.23 -1.07 0.6 -1.45" style="fill:#0073a8"/><path d="m 10.78 6.44 h 3.2 v 2.07 h -2.13 v 5.19 c 0 1.15 -0.96 2.07 -2.13 2.07 c -1.18 0 -2.13 -0.93 -2.13 -2.07 c 0 -0.56 0.22 -1.07 0.6 -1.45 c 0.38 -0.39 0.93 -0.63 1.54 -0.63 c 0.39 0 0.75 0.11 1.07 0.28 v -2.55" style="fill:#fbfcfb;fill-rule:evenodd"/></svg>