<svg xmlns="http://www.w3.org/2000/svg" viewBox="0 0 22 22"><path d="m 0.17 11.1 c -1.65 -14.52 21.99 -14.31 21.71 0.26 c 0.78 13.55 -23 14.77 -21.71 -0.26" style="fill:#b4f1f6"/><path d="m 5.98 14.93 c -2.75 -0.62 -3.81 -4.22 -1.88 -6.41 c 0.96 -1.1 2.68 -1.52 4.14 -1 c 0.77 0.26 0.77 0.25 0 1.2 l -0.67 0.84 h -0.51 c -0.88 0.01 -1.46 0.46 -1.64 1.29 c -0.23 1.05 0.5 1.96 1.57 1.96 c 0.9 0 1.39 -0.37 2.84 -2.17 c 2.27 -2.82 3.51 -3.58 5.36 -3.29 c 1.73 0.27 2.95 1.49 3.2 3.23 c 0.37 2.57 -1.49 4.61 -4.07 4.46 c -0.66 -0.04 -1.52 -0.29 -1.63 -0.46 c 0.39 -0.68 0.8 -1.12 1.32 -1.77 c 0.42 0 0.92 0.02 1.27 -0.16 c 1.31 -0.7 1.05 -2.72 -0.4 -3.06 c -0.39 -0.09 -0.5 -0.09 -0.88 0.04 c -0.61 0.2 -1.1 0.65 -2.18 2 c -1.49 1.88 -2.15 2.52 -3.09 3 c -0.81 0.42 -1.73 0.52 -2.72 0.29" style="fill:#494949"/><g style="fill:#20a4c7"><path d="m 7.59 9.5 c 0.36 -0.58 1.04 -1.03 1.29 -1.67 c 0.88 0.24 1.43 0.85 2.04 1.48 c -0.43 0.43 -1.1 1.57 -1.56 1.75 c -0.54 -0.55 -1.16 -1.14 -1.77 -1.56"/><path d="m 10.73 12.98 c 0.49 -0.61 0.98 -1.23 1.47 -1.84 c 0.5 0.65 1.21 1.18 1.78 1.58 c -0.34 0.32 -0.96 1.62 -1.36 1.71 c -0.76 -0.28 -1.39 -0.99 -1.89 -1.45"/></g></svg>