<svg xmlns="http://www.w3.org/2000/svg" viewBox="0 0 22 22"><defs><linearGradient id="0" gradientUnits="userSpaceOnUse" y1="21" x2="0" y2="1.03"><stop style="stop-color:#043495"/><stop offset="1" style="stop-color:#45dff4"/></linearGradient></defs><path d="m 14.58 1.06 c -10.95 -4.27 -16.57 7.7 -13.78 15.1 c 1.95 5.2 9.71 7.79 15.98 4.1 c 7.91 -4.66 6.23 -15.95 -2.21 -19.24" style="fill:#f8f8ff"/><path d="m 10.82 4.43 c -3.73 0 -6.75 3.04 -6.75 6.8 c 0 3.76 3 6.8 6.75 6.8 c 3.73 0 6.74 -3.05 6.74 -6.8 c 0 -3.76 -3 -6.8 -6.74 -6.8 m 0 1.36 c 2.98 0 5.39 2.44 5.39 5.44 c 0 3 -2.41 5.45 -5.39 5.45 c -2.98 0 -5.4 -2.44 -5.4 -5.45 c 0 -3 2.42 -5.44 5.4 -5.44 m -1.6 1.87 v 1.09 h 0.92 c 0.09 0.31 0.25 0.55 0.32 0.88 c -0.79 1.36 -1.7 2.84 -2.48 4.15 c -0.1 0.17 -0.25 0.38 -0.24 0.57 h 1.36 c 0.69 -1 1.29 -2.09 2 -3.06 c 0.39 1.13 0.86 2.19 1.24 3.34 c 0.75 -0.19 1.52 -0.37 2.15 -0.69 c -0.18 -0.3 -0.21 -0.75 -0.39 -1.05 c -0.3 0.13 -0.62 0.24 -0.96 0.32 c -0.64 -1.9 -1.43 -3.66 -2.08 -5.56" style="fill:url(#0)"/></svg>