<svg xmlns="http://www.w3.org/2000/svg" xmlns:xlink="http://www.w3.org/1999/xlink" viewBox="0 0 22 22"><defs><g id="3" style="clip-path:url(#2)"><path d="m 5.63 8.63 v -1.81 c 0 -0.16 0.14 -0.29 0.31 -0.29 h 10.1 c 0.17 0 0.31 0.13 0.31 0.29 v 1.81 c 0 0.16 -0.14 0.29 -0.31 0.29 h -10.1 c -0.17 0 -0.31 -0.13 -0.31 -0.29" style="fill:#222628"/><path d="m 12.15 8.9 v 7.55 c 0 0.18 -0.13 0.32 -0.28 0.32 h -1.76 c -0.15 0 -0.28 -0.14 -0.28 -0.32 v -7.55 c 0.7 0 2.32 0 2.32 0" style="fill:#222628"/></g><clipPath id="2"><path d="M 0,0 H22 V22 H0 z"/></clipPath><filter id="0" filterUnits="objectBoundingBox" x="0" y="0" width="22" height="22"><feColorMatrix type="matrix" in="SourceGraphic" values="0 0 0 0 1 0 0 0 0 1 0 0 0 0 1 0 0 0 1 0"/></filter><linearGradient id="5" gradientUnits="userSpaceOnUse" x1="16.22" y1="-25.28" x2="12.53" y2="-31.51" gradientTransform="matrix(-0.364 0 0 -0.375 12.69 3.92)" xlink:href="#4"/><linearGradient id="4" gradientUnits="userSpaceOnUse" x1="-344.5" y1="-510.8" x2="-340.3" y2="-522.2"><stop style="stop-color:#026cdc"/><stop offset="1" style="stop-color:#28b0fc"/></linearGradient><linearGradient id="6" gradientUnits="userSpaceOnUse" x1="-3" y1="-11.5" x2="-4.07" y2="-18.2" gradientTransform="matrix(-0.364 0 0 -0.375 12.69 3.39)" xlink:href="#4"/><mask id="1"><g style="filter:url(#0)"><path d="M 0,0 H22 V22 H0 z" style="fill-opacity:0.64"/></g></mask></defs><path d="m 19.73 16.83 c 7.91 -11.25 -6.7 -22.66 -16 -13.48 c -8.78 8.64 -0.64 22.1 10.29 17.87 c 2.28 -0.88 4.28 -2.31 5.73 -4.38" style="fill:#4c555b"/><use xlink:href="#3" style="mask:url(#1)"/><path d="m 14.47 -31.83 h -13.71 c 0 0 -3.92 0.68 -3.92 5.57 c 0 4.9 3.92 4.9 3.92 4.9 h 7.83 c 0 0 3.92 0 3.92 4.89 c 0 4.9 -3.92 5.52 -3.92 5.52 l -13.71 -0.07" transform="matrix(-0.364 0 0 -0.375 12.69 3.65)" style="fill:none;stroke:url(#4);stroke-width:2.93"/><path d="m 6.86 15.59 c 0 -0.73 0.57 -1.32 1.28 -1.32 c 0.71 0 1.28 0.59 1.28 1.32 c 0 0.73 -0.57 1.32 -1.28 1.32 c -0.71 0 -1.28 -0.59 -1.28 -1.32" style="fill:url(#5)"/><path d="m 12.56 7.72 c 0 -0.73 0.57 -1.32 1.28 -1.32 c 0.71 0 1.28 0.59 1.28 1.32 c 0 0.73 -0.57 1.32 -1.28 1.32 c -0.71 0 -1.28 -0.59 -1.28 -1.32" style="fill:url(#6)"/></svg>