<svg xmlns="http://www.w3.org/2000/svg" viewBox="0 0 22 22"><path d="m 0.11 10.66 c 0.34 7.82 5.64 13.72 12.98 10.46 c 5 -2.23 9.84 -4.68 8.64 -10.46 c -1.2 -5.77 -7 -10.46 -12.98 -10.46 c -5.97 0 -8.89 4.75 -8.64 10.46" style="fill:#282534"/><g style="fill:#fff"><path d="m 4.28 10.1 c -0.03 -0.02 -0.05 -0.3 -0.05 -0.61 v -0.56 l 0.93 -0.51 c 0.61 -0.34 0.92 -0.55 0.91 -0.63 c -0.01 -0.07 -0.43 -0.32 -0.93 -0.57 l -0.91 -0.46 l 0.02 -0.57 c 0.02 -0.57 0.02 -0.57 0.25 -0.55 c 0.2 0.02 1.35 0.59 2.64 1.33 l 0.49 0.28 v 1.08 l -1.43 0.83 c -1.46 0.85 -1.82 1.03 -1.91 0.94"/><path d="m 8.18 10.34 h 3.45 v 1.27 h -3.45"/></g><path d="m 21.93 16.52 c 0 2.99 -2.43 5.42 -5.42 5.42 c -2.99 0 -5.42 -2.43 -5.42 -5.42 c 0 -2.99 2.43 -5.42 5.42 -5.42 c 2.99 0 5.42 2.43 5.42 5.42" style="fill:#fa01d2"/><g style="fill:#fff"><path d="m 12.9 18.29 c -0.07 -0.42 -0.15 -3.41 0.04 -3.78 c 1.29 0.79 2.28 1.3 3.49 1.94 c 0 1.34 0 2.68 0 4 c -1.27 -0.66 -2.49 -1.4 -3.53 -2.18"/><path d="m 16.64 16.2 c -0.23 -0.05 -1.44 -0.68 -1.5 -0.78 c 1.36 -0.82 2.33 -1.42 3.47 -2 c 0.57 0.41 1.14 0.47 1.58 0.92 c -0.93 0.52 -3 1.58 -3.55 1.86"/><path d="m 13.1 14.31 c -0.01 0 0.01 -0.04 0.04 -0.07 c 0.88 -0.41 3.05 -1.72 3.54 -1.87 c 0.47 0.29 1.16 0.61 1.64 0.87 c -1.2 0.43 -2.49 1.32 -3.59 1.93 c -0.56 -0.21 -1.15 -0.57 -1.64 -0.85"/><path d="m 16.8 20.31 c -0.04 -1.35 0.02 -2.38 0.01 -3.81 c 0.96 -0.39 2.67 -1.41 3.5 -1.88 c 0.13 0.12 0.07 0.38 0.07 0.55 c -0.03 0.58 -0.1 3.05 -0.06 3.18 c -1.32 0.91 -2.64 1.64 -3.52 1.96"/></g></svg>