<svg xmlns="http://www.w3.org/2000/svg" viewBox="0 0 22 22"><path d="m 19.2 18.41 c 12.58 -19.79 -21.79 -26.1 -19 -6.3 c 1.12 8.09 14.23 13.88 19 6.3" style="fill:#b0dfe5"/><path d="m 15.73 7.45 h -9.73 c -0.67 0 -1.21 0.49 -1.21 1.09 v 5.44 c 0 0.6 0.55 1.09 1.21 1.09 h 9.73 c 0.67 0 1.21 -0.49 1.21 -1.09 v -5.44 c 0 -0.6 -0.55 -1.09 -1.21 -1.09 m -5.48 1.63 h 1.22 v 1.09 h -1.22 m 0 0.55 h 1.22 v 1.09 h -1.22 m -1.82 -2.72 h 1.21 v 1.09 h -1.21 m 0 0.55 h 1.21 v 1.09 h -1.21 m -0.61 0 h -1.21 v -1.09 h 1.21 m 0 -0.55 h -1.21 v -1.09 h 1.21 m 5.48 4.89 h -4.87 v -1.09 h 4.87 m 0 -1.09 h -1.22 v -1.09 h 1.22 m 0 -0.55 h -1.22 v -1.09 h 1.22 m 1.82 2.72 h -1.22 v -1.09 h 1.22 m 0 -0.55 h -1.22 v -1.09 h 1.22"/><path d="m 10.32 15.99 c -0.02 -0.18 -0.04 -1.18 -0.04 -2.21 v -1.89 h -1.3 v -5.8 h 2.08 c 1.15 0 2.09 0.02 2.09 0.05 c 0 0.03 -0.35 0.93 -0.78 2 c -0.43 1.07 -0.78 2 -0.8 2.07 c -0.02 0.11 0.06 0.13 0.77 0.19 l 0.79 0.07 l -1.38 2.93 l -1.38 2.93" style="fill:#00acee"/></svg>