<svg xmlns="http://www.w3.org/2000/svg" viewBox="0 0 22 22"><path d="m 20.98 16.23 c -4.33 10.33 -21.1 5.72 -20.98 -5.53 c -0.17 -10.23 13.16 -14.1 19 -6.82 c 2.92 3.15 3.95 8.37 1.99 12.35" style="fill:#eff8ff"/><path d="m 9.72 19 c -3 -0.57 -5.44 -2.84 -6.28 -5.87 c -0.27 -0.96 -0.26 -2.95 0 -3.93 c 0.23 -0.85 0.76 -1.96 1.25 -2.66 c 0.41 -0.58 1.37 -1.51 1.95 -1.91 c 2.19 -1.5 5.14 -1.81 7.57 -0.8 c 2.32 0.96 4.05 2.98 4.72 5.49 c 0.23 0.87 0.25 2.7 0.03 3.58 c -0.71 2.9 -2.8 5.09 -5.68 5.93 c -1.19 0.2 -2.46 0.37 -3.58 0.17 m 3 -0.52 c 2.3 -0.48 4.23 -2.03 5.23 -4.18 c 0.43 -0.94 0.61 -1.64 0.67 -2.71 c 0.2 -3.39 -1.89 -6.45 -5.13 -7.52 c -1.82 -0.54 -4.05 -0.36 -5.64 0.4 c -1.85 0.9 -3.23 2.5 -3.87 4.5 c -0.23 0.71 -0.36 2.45 -0.25 3.23 c 0.05 0.36 0.22 0.48 0.22 0.17 c 0 -0.07 0.12 -0.42 0.26 -0.77 c 0.92 -2.31 3.41 -4.45 5.93 -5.11 c 0.33 -0.09 0.39 -0.08 0.49 0.05 c 0.09 0.13 0.15 0.11 0.63 -0.21 c 0.84 -0.57 1.99 -1 2.24 -0.86 c 0.13 0.08 0.15 0.43 0.06 1.16 l -0.06 0.52 l 0.21 -0.41 c 0.12 -0.22 0.32 -0.46 0.46 -0.54 c 0.34 -0.17 1.2 -0.3 1.63 -0.24 c 0.54 0.07 0.6 0.21 0.33 0.76 c -0.25 0.52 -0.87 1.24 -1.06 1.24 c -0.18 0 -0.15 0.05 0.25 0.54 c 0.79 0.97 1.17 1.95 1 2.56 c -0.14 0.53 -0.51 0.68 -0.51 0.21 c 0 -0.11 -0.07 -0.29 -0.15 -0.39 c -0.2 -0.25 -0.41 -0.16 -0.63 0.27 c -0.14 0.27 -0.21 0.33 -0.43 0.33 c -0.15 0 -0.25 0.05 -0.25 0.11 c 0 0.3 -0.58 0.85 -1.25 1.18 c -0.99 0.49 -1.62 0.63 -2.66 0.58 c -1.06 -0.04 -1.47 -0.21 -2.07 -0.84 c -0.52 -0.55 -0.79 -0.7 -1.25 -0.7 c -0.5 0 -0.95 0.45 -1.16 1.16 c -0.2 0.69 -0.14 2.04 0.13 2.7 c 0.59 1.45 1.81 2.44 3.49 2.81 c 0.71 0.16 2.39 0.15 3.14 0 m -0.61 -2.91 c 0.2 -0.22 0.25 -0.23 1.13 -0.23 c 1.02 0 1.25 -0.08 0.64 -0.21 c -0.69 -0.14 -0.56 -0.28 0.25 -0.27 c 0.62 0.01 0.77 -0.02 0.97 -0.17 c 0.13 -0.1 0.26 -0.29 0.29 -0.43 c 0.03 -0.18 0.09 -0.24 0.2 -0.22 c 0.24 0.04 0.39 -0.14 0.45 -0.57 c 0.11 -0.85 0.25 -0.95 0.34 -0.24 c 0.08 0.63 0 1.2 -0.72 1.45 c -0.31 0.11 -0.55 0.45 -0.64 0.55 c -0.29 0.35 -0.49 0.4 -1.56 0.41 c -0.57 0 -1.15 0.04 -1.29 0.08 l -0.26 0.07" style="fill:#5678d7"/></svg>