<svg xmlns="http://www.w3.org/2000/svg" viewBox="0 0 22 22"><path d="m 16.87 18.79 c 20.1 -22.67 -27.1 -25.88 -14.69 -2.75 c 2.82 5.27 9.35 8.75 14.69 2.75" style="fill:#ffd000"/><path d="m 10.34 19.63 c -0.56 -0.39 -1.03 -1.11 -1.15 -1.79 c -0.06 -0.33 -0.14 -0.52 -0.27 -0.65 c -0.1 -0.1 -0.46 -0.56 -0.81 -1.03 c -0.65 -0.88 -0.73 -1.06 -0.96 -2.27 c -0.06 -0.32 -0.28 -0.63 -0.47 -0.67 c -0.33 -0.12 -0.07 -0.73 -0.37 -0.74 c -0.4 0 -0.74 -1.24 -0.4 -1.46 c 0.17 -0.11 0.17 -0.29 0.01 -0.68 c -0.15 -0.38 -0.11 -0.34 -0.48 -0.41 c -0.36 -0.06 -1.57 -0.76 -1.57 -0.9 c 0 -0.18 0.32 -0.44 0.86 -0.69 c 0.31 -0.14 0.61 -0.28 0.66 -0.29 c 0.08 -0.03 0.04 -0.09 -0.13 -0.26 c -0.13 -0.13 -0.33 -0.45 -0.46 -0.72 c -0.25 -0.38 -0.2 -0.58 -0.11 -1 c 0.16 -0.69 0.82 -1.7 1.32 -2 c 0.34 -0.2 0.36 -0.05 0.14 0.84 c -0.2 0.79 -0.21 1.21 -0.04 1.3 c 0.04 0.02 0.1 -0.04 0.14 -0.13 c 0.09 -0.22 0.2 -0.21 0.55 0.03 c 0.16 0.11 0.31 0.2 0.35 0.2 c 0.04 0 0.19 -0.11 0.34 -0.23 c 0.16 -0.13 0.56 -0.36 0.9 -0.52 c 0.41 -0.19 0.57 -0.16 0.57 -0.23 c 1.13 0.82 2.84 0.62 4.18 0.03 c 0.04 0.09 0.25 0.23 0.48 0.35 c 0.23 0.11 0.52 0.29 0.63 0.4 c 0.12 0.12 0.26 0.21 0.31 0.21 c 0.16 0 0.6 -0.34 0.6 -0.47 c 0 -0.19 0.08 -0.34 0.18 -0.34 c 0.16 0 0.25 0.23 0.2 0.5 c -0.06 0.31 0.08 0.32 0.19 0.02 c 0.07 -0.19 0.05 -0.35 -0.1 -0.97 c -0.1 -0.41 -0.18 -0.8 -0.18 -0.88 c 0 -0.39 0.66 0.12 1.19 0.93 c 0.28 0.43 0.47 0.99 0.47 1.39 c 0 0.27 -0.38 1.07 -0.63 1.31 c -0.1 0.1 -0.18 0.2 -0.16 0.21 c 0.02 0.02 0.28 0.14 0.58 0.27 c 0.32 0.14 0.65 0.34 0.79 0.48 c 0.22 0.23 0.22 0.25 0.11 0.37 c -0.23 0.24 -1.22 0.76 -1.51 0.8 c -0.29 0.04 -0.29 0.04 -0.27 0.31 c 0.01 0.15 -0.03 0.39 -0.09 0.54 c -0.18 0.4 -0.08 0.84 -0.24 1.23 c -0.07 0.33 0 0.65 -0.23 0.8 c -0.16 0.11 -0.23 0.2 -0.23 0.34 c 0 0.14 -0.05 0.22 -0.2 0.29 c -0.32 0.15 -0.38 0.25 -0.58 1.09 c -0.2 0.78 -0.21 0.81 -0.84 1.66 c -0.35 0.48 -0.71 0.93 -0.8 1 c -0.13 0.1 -0.19 0.26 -0.25 0.63 c -0.09 0.53 -0.47 1.23 -0.86 1.57 c -0.26 0.23 -0.74 0.52 -0.85 0.52 c -0.05 0 -0.28 -0.14 -0.52 -0.3 m 0.09 -1.16 c -0.08 -0.07 -0.09 -0.02 -0.2 0.07 c -0.21 0.14 0.36 0.84 0.38 0.72 c 0.02 -0.07 -0.16 -0.77 -0.18 -0.79 m 1.03 0.01 c -0.07 -0.07 -0.34 0.11 -0.34 0.23 c 0 0.11 -0.01 1.1 0.26 0.3 c 0.03 -0.09 0.11 -0.5 0.08 -0.53 m -1.1 -0.43 c 0.11 -0.16 -0.04 -0.39 -0.31 -0.48 c -0.15 -0.05 -0.29 -0.09 -0.32 -0.07 c -0.06 0.03 0.21 0.5 0.34 0.58 c 0.11 0.07 0.24 0.06 0.3 -0.02 m 0.67 -0.15 c 0.02 -0.15 0 -0.18 -0.16 -0.18 c -0.21 0 -0.21 0 -0.11 0.24 c 0.09 0.21 0.25 0.18 0.28 -0.06 m 0.84 -0.04 c 0.25 -0.36 0.23 -0.41 -0.05 -0.32 c -0.34 0.11 -0.42 0.18 -0.42 0.4 c 0 0.29 0.25 0.25 0.47 -0.07 m -0.7 -0.66 c 0.06 -0.13 0.05 -0.48 -0.13 -0.55 c -0.15 -0.06 -0.25 -0.06 -0.36 0 c -0.17 0.09 -0.22 0.33 -0.13 0.5 c 0.1 0.18 0.53 0.25 0.62 0.06 m -0.28 -0.89 c 0.06 0 0.19 0.02 0.29 0.04 c 0.22 0.05 1.03 -0.21 0.99 -0.32 c -0.05 -0.14 -1.18 -0.23 -1.9 -0.16 c -0.36 0.04 -0.68 0.09 -0.72 0.13 c -0.12 0.1 0.69 0.4 0.98 0.36 c 0.14 -0.02 0.3 -0.04 0.36 -0.04 m 2.61 -1.18 c 0 -0.19 -0.12 -0.27 -0.47 -0.3 c -0.28 -0.02 -0.29 -0.02 -0.31 0.2 c -0.02 0.16 0.04 0.3 0.16 0.48 c 0.1 0.14 0.19 0.31 0.19 0.38 c 0 0.16 0.42 -0.58 0.43 -0.76 m -4.78 0.7 c 0 -0.05 0.08 -0.2 0.18 -0.33 c 0.22 -0.3 0.23 -0.48 0.02 -0.62 c -0.23 -0.15 -0.37 -0.13 -0.56 0.06 l -0.17 0.17 l 0.21 0.4 c 0.2 0.38 0.33 0.5 0.33 0.32 m 1.14 -0.22 c 0.42 -0.04 0.25 -0.15 0 -0.25 c -0.27 -0.13 -0.3 -0.12 -0.51 0.06 c -0.26 0.23 -0.26 0.31 0 0.27 c 0.11 -0.02 0.34 -0.05 0.51 -0.08 m 2.69 -0.01 c -0.02 -0.06 -0.11 -0.17 -0.21 -0.24 c -0.17 -0.12 -0.2 -0.12 -0.45 -0.02 c -0.39 0.15 -0.39 0.22 0 0.27 c 0.19 0.02 0.39 0.05 0.45 0.06 c 0.14 0.01 0.23 0.03 0.21 -0.07 m -6.77 -6.07 c 0.06 -0.15 0.04 -0.21 -0.11 -0.36 c -0.17 -0.16 -0.21 -0.17 -0.65 -0.13 c -0.26 0.02 -0.5 0.07 -0.53 0.1 c -0.07 0.07 0.52 0.46 0.81 0.54 c 0.29 0.08 0.4 0.05 0.48 -0.15 m 11.17 -0.1 c 0.22 -0.13 0.38 -0.27 0.34 -0.3 c -0.08 -0.07 -0.98 -0.14 -1.07 -0.08 c -0.17 0.13 -0.47 0.51 -0.47 0.61 c 0 0.2 0.74 0.05 1.2 -0.23 m -10.91 -0.89 c -0.13 -0.15 -0.29 -0.27 -0.34 -0.27 c -0.14 0 -0.97 0.35 -0.93 0.39 c 0.02 0.02 0.21 -0.01 0.43 -0.05 c 0.38 -0.08 0.41 -0.07 0.71 0.09 c 0.17 0.09 0.33 0.16 0.34 0.14 c 0.02 -0.01 -0.08 -0.15 -0.21 -0.3 m 9.89 0.12 c 0.23 -0.13 0.29 -0.13 0.63 -0.06 c 0.2 0.05 0.39 0.06 0.41 0.04 c 0.05 -0.04 -0.72 -0.38 -0.86 -0.38 c -0.05 0 -0.2 0.1 -0.32 0.21 c -0.38 0.34 -0.3 0.43 0.15 0.18 m -0.29 -0.54 c -0.06 -0.09 -0.25 -0.07 -0.25 0.03 c 0 0.05 0.02 0.11 0.05 0.13 c 0.06 0.06 0.25 -0.09 0.2 -0.16 m -9.2 -0.44 c 0.27 -0.12 0.55 -0.44 0.46 -0.53 c -0.03 -0.02 -0.23 0.05 -0.46 0.16 c -0.23 0.11 -0.48 0.2 -0.55 0.2 c -0.27 0 -0.36 0.07 -0.28 0.22 c 0.09 0.16 0.38 0.14 0.83 -0.06 m 9.67 0.08 c 0.13 -0.14 0.03 -0.24 -0.26 -0.24 c -0.16 0 -0.27 0.04 -0.3 0.11 c -0.09 0.21 0.39 0.32 0.55 0.13 m -9.93 -0.63 c 0.34 -0.16 0.35 -0.23 0.05 -0.41 c -0.23 -0.13 -0.29 -0.14 -0.51 -0.07 c -0.14 0.04 -0.35 0.06 -0.47 0.04 c -0.26 -0.05 -0.28 0.04 -0.09 0.41 c 0.12 0.23 0.13 0.24 0.45 0.2 c 0.18 -0.02 0.44 -0.09 0.57 -0.16 m 10.45 -0.07 c 0.14 -0.28 0.12 -0.34 -0.13 -0.34 c -0.3 0 -0.69 -0.2 -0.89 -0.04 c -0.13 0.11 -0.14 0.14 -0.04 0.31 c 0.14 0.22 0.34 0.23 0.57 0.3 c 0.2 0.06 0.37 -0.02 0.48 -0.24 m -9 -0.39 c 0.03 -0.24 -0.09 -0.29 -0.2 -0.09 c -0.12 0.2 -0.09 0.35 0.05 0.33 c 0.08 -0.02 0.13 -0.1 0.15 -0.24 m -0.71 -0.11 c -0.17 -0.17 -0.36 -0.23 -0.36 -0.11 c 0 0.04 0.09 0.14 0.2 0.23 c 0.26 0.22 0.41 0.11 0.16 -0.13 m 7.39 0 c -0.11 -0.13 -0.45 -0.27 -0.43 -0.14 c 0.05 0.35 0.45 0.4 0.49 0.3 c 0.01 -0.04 -0.02 -0.11 -0.06 -0.16 m -8.59 -0.23 c 0.11 -0.16 -0.05 -0.32 -0.33 -0.37 c -0.16 -0.03 -0.3 -0.04 -0.32 -0.02 c -0.05 0.16 -0.07 0.29 -0.11 0.46 h 0.36 c 0.2 0 0.38 -0.03 0.4 -0.07 m 3 -0.42 c 0 -0.17 -0.53 0.08 -0.61 0.14 c -0.05 0.04 -0.09 0.14 -0.06 0.21 c 0.05 0.2 0.68 -0.13 0.68 -0.36 m 8 0.34 c 0 -0.27 -0.1 -0.34 -0.39 -0.29 c -0.5 0.09 -0.45 0.44 0.07 0.44 c 0.29 0 0.33 -0.02 0.32 -0.15 m -3.15 -0.23 c -0.07 -0.05 -0.39 -0.25 -0.46 -0.25 c -0.09 0.13 0.27 0.63 0.52 0.39 c 0.05 -0.03 0.02 -0.08 -0.06 -0.13 m -7.97 -0.42 c 0.02 -0.03 0.06 -0.18 0.09 -0.34 c 0.04 -0.22 0.02 -0.28 -0.06 -0.28 c -0.13 0 -0.45 0.51 -0.38 0.61 c 0.05 0.08 0.3 0.09 0.36 0.01 m 10.87 -0.01 c 0.05 -0.08 -0.29 -0.61 -0.39 -0.61 c -0.08 0 -0.09 0.29 -0.03 0.52 c 0.05 0.16 0.34 0.21 0.42 0.09" style="fill:#cc5122"/><path d="m 10.34 6.59 c -0.21 -0.08 -0.23 -0.14 -0.05 -0.2 c 0.18 -0.05 0.29 -0.36 0.25 -0.66 c -0.02 -0.14 -0.05 -0.27 -0.07 -0.28 c -0.02 -0.01 -0.13 -0.28 -0.27 -0.29 c -0.14 -0.02 -0.33 0.2 -0.4 0.18 c -0.08 -0.02 -0.18 0 -0.24 0.06 c -0.09 0.09 -0.43 -0.55 -0.27 -0.48 c 0.73 0.31 0.02 -0.78 0.3 -0.44 c 0.18 0.21 0.64 0.39 0.64 0.28 c 0 -0.39 -0.55 -0.95 -1 -1.03 c -0.23 -0.04 -0.27 -0.07 -0.32 -0.28 c -0.03 -0.13 -0.04 -0.25 -0.02 -0.27 c 0.03 -0.02 0.2 0.03 0.38 0.12 c 0.4 0.2 0.51 0.15 0.51 -0.21 c 0 -0.18 -0.03 -0.25 -0.11 -0.28 c -0.06 -0.02 -0.16 -0.05 -0.21 -0.06 c -0.16 -0.05 0.11 -0.29 0.28 -0.25 c 0.27 0.06 0.66 0.52 0.88 0.8 c 0.13 0.16 0.26 0.28 0.31 0.28 c 0.15 0 0.17 -0.29 0.04 -0.55 c -0.14 -0.26 -0.57 -1.52 0.04 -1.2 c 0.07 0.04 0.23 1.14 0.3 1.14 c 0.19 0 0.66 -0.28 0.82 -0.5 c 0.16 -0.22 0.28 -0.17 0.25 0.1 c -0.02 0.13 -0.14 0.27 -0.5 0.54 c -0.26 0.2 -0.47 0.4 -0.47 0.45 c 0 0.14 0.36 0.1 0.57 -0.07 c 0.2 -0.16 0.54 -0.32 0.66 -0.32 c 0.35 -0.01 -0.29 0.41 -0.4 0.52 c -0.18 0.18 0.26 0.42 0.32 0.52 c 0.05 0.07 -0.06 0.16 -0.44 -0.05 c -0.07 -0.04 -0.2 -0.16 -0.2 -0.3 c 0 -0.05 -0.03 -0.1 -0.07 -0.1 c -0.04 0 -0.07 0.04 -0.07 0.09 c -0.13 0.08 -0.25 0.16 -0.37 0.17 c -0.21 -0.07 -0.35 0.32 -0.24 0.71 c 0.05 0.18 0.35 0.14 0.36 -0.03 c 0.03 -0.46 -0.08 -0.43 0.12 -0.43 c 0.16 0 0.2 0.02 0.23 0.17 c 0.02 0.1 -0.15 0.6 0.2 0.4 c 0.57 -0.33 0.2 0.32 -0.04 0.36 c -0.12 0.02 -0.2 0.07 -0.2 0.14 c 0 0.08 -0.04 0.09 -0.17 0.06 c -0.49 -0.11 -0.49 0.36 -0.25 1.11 c 0.08 0.23 -0.66 0.24 -1.1 0.08 m 0.37 -2.21 c 0 -0.38 -0.34 -0.87 -0.51 -1.02 c -0.36 -0.31 -0.43 0.02 -0.43 0.12 c 0 0.1 0.26 0.32 0.44 0.38 c 0.09 0.02 0.16 0.11 0.18 0.21 c 0.09 0.44 0.17 0.63 0.24 0.61 c 0.05 -0.02 0.08 -0.14 0.07 -0.3" style="fill:#218b21"/><path d="m 14.65 10.62 c 0 2 -1.66 3.62 -3.71 3.62 c -2.05 0 -3.71 -1.62 -3.71 -3.62 c 0 -2 1.66 -3.62 3.71 -3.62 c 2.05 0 3.71 1.62 3.71 3.62" style="fill:#d6c3b7"/><path d="m 11.96 8.88 c 1.03 -0.01 0.15 -1.75 1.23 -0.69 c 0.48 -0.3 -0.39 0.76 -0.23 0.79 c 0.16 0.02 0.46 -0.29 0.55 -0.26 c 0.09 0.03 0.22 0 0.31 -0.09 c 0.14 -0.13 0.37 0.82 0.2 0.72 c 0.08 0.43 -0.97 -0.2 -1.21 0.25 c -0.12 0.58 0.29 0.59 0.82 0.72 c 0.36 0.11 0.52 0.84 0.33 1.46 c -0.04 0.04 -0.21 0.15 -0.41 0.01 c -0.43 -0.29 -0.58 -0.22 -0.69 0.32 c -0.05 0.26 -0.04 0.38 0.06 0.41 c 0.07 0.03 0.18 0.07 0.23 0.09 c 0.18 0.07 -0.57 0.77 -0.77 0.71 c -1.23 -1.35 -0.29 1.27 -1.41 0.66 c -0.08 -0.06 -0.3 -0.88 -0.39 -0.88 c -0.23 0 -0.54 -0.41 -0.8 -0.09 c -0.27 0.32 -0.39 0.25 -0.27 -0.15 c 0.23 -0.32 0.62 -0.43 0.61 -0.67 c -0.02 -0.72 0.04 -0.3 -0.75 -0.23 c -0.44 0.02 0.47 -0.61 0.65 -0.78 c 0.27 -0.26 -0.19 -0.63 -0.24 -0.79 c -0.04 -0.11 0.17 -0.5 0.57 -0.19 c 0.07 0.05 0.14 0.5 0.1 0.71 c -0.02 0.08 0.01 0.14 0.05 0.14 c 0.4 -0.28 1.27 2.12 1.32 0.7 c 0 -0.15 -0.45 -0.98 -0.16 -1.66 c 0.2 -0.48 -0.46 -0.57 -0.48 -0.46 c -0.11 1.13 -0.27 2.24 -0.51 0.39 c 0.14 -1.39 -1.48 -0.63 -0.33 -1.96 c 0.61 -0.61 1.64 -0.16 1.61 0.79 m 0.14 1.27 c -0.11 0.57 0.16 1.3 0.32 1.52 c 0.34 0.47 0.54 -0.02 0.57 -0.18 c 0.03 -0.15 -0.22 -0.48 -0.43 -0.56 c -0.1 -0.04 -0.16 -0.16 -0.16 -0.31 c 0.02 -0.66 -0.02 -0.95 -0.12 -0.91 c -0.06 0.02 -0.14 0.21 -0.18 0.45" style="fill:#7c8b88"/></svg>