<svg xmlns="http://www.w3.org/2000/svg" viewBox="0 0 22 22"><path d="m 7 21.6 c 30.99 3.82 5.3 -40.1 -6.07 -12 c -1.75 4.93 -0.23 10.49 6.07 12" style="fill:#3e4a79"/><path d="m 7.82 16.48 c -0.09 -0.07 -0.08 -0.09 0.1 -0.41 c 0.16 -0.32 0.37 -0.62 0.55 -0.93 c 0.65 0.11 1.07 0.26 1.49 0.27 c -0.01 0.44 0.11 1.18 0.05 1.62 c -0.74 0.12 -1.21 -0.07 -2.19 -0.55 m 3.52 0.39 c -0.06 -0.04 -0.06 -0.18 -0.04 -0.75 c 0.02 -0.39 0.05 -0.73 0.07 -0.75 c 0.02 -0.02 0.24 -0.09 0.48 -0.14 c 0.41 -0.07 0.78 -0.27 1.17 -0.38 c 0.16 0.16 0.22 0.36 0.38 0.54 c 0.12 0.1 0.42 0.62 0.42 0.71 c 0 0.18 -1.15 0.59 -2.25 0.79 c -0.09 0.02 -0.2 0.01 -0.24 -0.02 m -5.23 -1.62 c -0.39 -0.45 -0.65 -0.91 -0.57 -1.01 c 0.39 -0.16 0.81 -0.52 1.23 -0.57 c 0.26 0.26 0.44 0.47 0.69 0.75 c -0.12 0.19 -0.86 1.22 -0.91 1.23 c -0.05 0 -0.25 -0.18 -0.43 -0.39 m 7.96 -1.1 c 0 -0.05 0.08 -0.15 0.17 -0.21 c 0.35 -0.29 0.57 -0.57 0.87 -0.92 c 0.27 0.21 1.31 0.3 1.35 0.64 c 0 0.27 -1.22 1.71 -1.45 1.71 c -0.37 -0.29 -0.79 -0.81 -0.95 -1.23 m -4.14 -0.03 c -0.51 -0.1 -0.77 -0.2 -1.14 -0.46 c -0.54 -0.37 -0.51 -0.23 -0.51 -3 c 0 -2.2 0.01 -2.4 0.09 -2.6 c 0.11 -0.27 0.4 -0.53 0.71 -0.64 c 0.13 -0.05 0.26 -0.12 0.29 -0.16 c 0.08 -0.1 0.13 -0.72 0.06 -0.72 c -0.23 -0.09 -0.36 -0.31 -0.36 -0.5 c 0 -0.28 0.12 -0.41 0.47 -0.53 c 0.93 -0.32 2.73 -0.19 3.13 0.21 c 0.24 0.24 0.18 0.55 -0.14 0.76 c -0.18 0.11 -0.18 0.12 -0.15 0.36 c 0.05 0.4 0.06 0.41 0.45 0.59 c 0.42 0.2 0.64 0.42 0.72 0.73 c 0.04 0.13 0.05 1.05 0.05 2.48 c 0 2.17 0 2.3 -0.1 2.5 c -0.2 0.43 -0.81 0.8 -1.59 0.96 c -0.5 0.1 -1.48 0.1 -2 0 m 1.54 -5.32 c 0.24 -0.16 0 -0.34 -0.47 -0.34 c -0.38 0 -0.62 0.08 -0.62 0.21 c 0 0.05 0.03 0.11 0.06 0.14 c 0.21 0.14 0.82 0.13 1.03 -0.01 m 0.12 -2.74 c 0.33 -0.11 -0.08 -0.21 -0.66 -0.22 c -0.32 0 -0.34 -0.04 -0.62 0.13 c -0.16 0.1 0.52 0.35 1.28 0.09 m -6.48 6.95 c -0.08 -0.23 0.16 -1.26 0.32 -1.35 c 0.42 -0.02 0.5 0.03 0.91 0.11 c -0.04 0.21 0.15 0.95 -0.1 1.03 c -0.36 0.1 -0.69 0.26 -1.08 0.29 c -0.01 0 -0.03 -0.04 -0.05 -0.08 m 10.43 -1.07 c -0.02 -0.41 0.01 -0.82 -0.04 -1.23 c -0.02 -0.11 0.03 -0.14 0.36 -0.28 c 0.2 -0.08 0.45 -0.15 0.53 -0.15 c 0.36 0.14 0.43 0.56 0.54 1 c 0.1 0.39 0.11 1.05 0.02 1.09 c -0.48 -0.05 -0.99 -0.27 -1.41 -0.42 m -9.5 -1.32 c 0 -0.04 0.13 -0.2 0.29 -0.36 c 0.43 -0.45 0.43 -0.44 0.61 -0.34 c 0.08 0.05 0.15 0.13 0.15 0.18 c 0 0.12 -0.51 0.71 -0.6 0.7 c -0.16 -0.03 -0.34 -0.06 -0.45 -0.18 m 8.38 -1.55 c 0.08 -0.15 0.18 -0.23 0.3 -0.36 c 0.23 0.16 0.85 0.32 0.9 0.59 c -0.07 0.13 -0.19 0.32 -0.42 0.32 c -0.29 -0.05 -0.64 -0.3 -0.78 -0.55" style="fill:#fff"/></svg>