<svg xmlns="http://www.w3.org/2000/svg" viewBox="0 0 22 22"><path d="m 16.66 1.85 c 19.36 16.42 -20.45 32.2 -16.36 6.81 c 0.89 -5.57 11.14 -11.24 16.36 -6.81" style="fill:#778799"/><path d="m 8.69 7.47 c -0.08 0 -0.14 0.06 -0.14 0.14 v 1.13 h 0.22 v -0.9 c 0 -0.06 0.05 -0.11 0.12 -0.11 h 3.7 c 0.07 0 0.12 0.05 0.12 0.11 v 0.9 h 0.22 v -1.13 c 0 -0.07 -0.06 -0.14 -0.14 -0.14" style="fill:#3d3745"/><path d="m 5 14.63 h 11.5 v 1.36 h -11.5" style="fill:#a41c2d;fill-rule:evenodd"/><path d="m 5.78 8.74 c -0.43 0 -0.78 0.36 -0.78 0.8 v 1.32 h 11.49 v -1.32 c 0 -0.44 -0.35 -0.8 -0.78 -0.8" style="fill:#ec333b"/><path d="m 5 10.85 h 11.5 v 3.78 h -11.5" style="fill:#c01b28;fill-rule:evenodd"/><path d="m 9.1 12.1 h 3.35 c 0.13 0 0.23 0.1 0.23 0.23 v 0.88 c 0 0.13 -0.1 0.23 -0.23 0.23 h -3.35 c -0.13 0 -0.23 -0.1 -0.23 -0.23 v -0.88 c 0 -0.13 0.1 -0.23 0.23 -0.23" style="fill:#c0bfbb"/><path d="m 9.4 12.52 h 2.69 c 0.06 0 0.12 0.05 0.12 0.11 v 0.23 c 0 0.06 -0.05 0.11 -0.12 0.11 h -2.69 c -0.06 0 -0.11 -0.05 -0.11 -0.11 v -0.23 c 0 -0.06 0.05 -0.11 0.11 -0.11" style="fill:#77767a"/><path d="m 14.1 4.38 c -0.09 -0.05 -0.21 -0.02 -0.26 0.07 l -0.21 0.38 l -1.02 1.77 l -0.59 1.04 c -0.17 0.3 -0.07 0.68 0.23 0.85 l 0.45 0.25 l -0.68 1.2 c -0.32 -0.03 -0.63 0.13 -0.79 0.41 c -0.23 0.39 -0.09 0.9 0.31 1.13 c 0.4 0.22 0.9 0.09 1.13 -0.31 c 0.16 -0.28 0.14 -0.63 -0.05 -0.89 l 0.68 -1.19 l 0.5 0.28 c 0.3 0.17 0.68 0.07 0.86 -0.23 l 0.59 -1.04 l 1.01 -1.77 l 0.22 -0.38 c 0.05 -0.09 0.02 -0.2 -0.07 -0.25 l -0.36 -0.2 l -1.71 2.98 c -0.11 0.18 -0.33 0.24 -0.51 0.14 l -0.93 -0.52 c -0.18 -0.1 -0.25 -0.33 -0.14 -0.5 l 1.71 -2.98" style="fill:#dcdcdc"/></svg>