<svg xmlns="http://www.w3.org/2000/svg" viewBox="0 0 22 22"><path d="m 18.95 17.2 c 14.6 -22.1 -29.33 -23.1 -16.37 -0.44 c 3.23 5.63 11.43 7.91 16.37 0.44" style="fill:#01a3ba"/><path d="m 8.43 4.89 h 5.19 c 2.61 0 4.72 2.66 4.72 5.94 v 1.63 c 0 3.28 -2.11 5.94 -4.72 5.94 h -5.19 c -2.61 0 -4.72 -2.66 -4.72 -5.94 v -1.63 c 0 -3.28 2.11 -5.94 4.72 -5.94" style="fill:#fff"/><path d="m 10.18 17.62 c -1.55 -0.43 -3.19 -1.86 -4.77 -4.17 c -0.59 -0.87 -1.27 -2 -1.48 -2.49 l -0.18 -0.42 l 0.04 -1.37 c 0.04 -1.59 0.11 -1.95 0.48 -2.69 c 0.21 -0.43 0.36 -0.61 0.81 -1.05 c 0.62 -0.6 1.1 -0.91 1.83 -1.15 l 0.49 -0.16 h 3.68 c 4.13 0 3.94 -0.02 4.87 0.45 c 1.13 0.57 1.98 1.59 2.28 2.74 c 0.09 0.32 0.2 1.98 0.21 3.15 c 0 0.15 -0.13 0.44 -0.46 1.04 c -0.79 1.42 -1.84 2.91 -2.82 4 c -0.71 0.8 -2 1.7 -2.86 2 c -0.5 0.18 -1.61 0.23 -2.1 0.1 m -0.82 -2.9 c 0.54 -0.12 0.81 -0.14 1.76 -0.13 c 1 0 1.21 0.02 1.82 0.16 c 0.8 0.18 0.73 0.17 0.73 0.1 c 0 -0.07 -0.68 -0.33 -1.13 -0.43 c -0.23 -0.05 -0.77 -0.08 -1.49 -0.08 c -1.18 0 -1.67 0.07 -2.27 0.32 c -0.31 0.13 -0.46 0.28 -0.22 0.23 c 0.08 -0.02 0.43 -0.1 0.79 -0.17 m -0.67 -3.92 c 0.75 -0.21 1.4 -0.74 1.76 -1.43 c 0.24 -0.46 0.33 -0.91 0.3 -1.48 c -0.02 -0.4 -0.07 -0.55 -0.25 -0.92 c -0.5 -1 -1.46 -1.58 -2.59 -1.58 c -0.82 0 -1.42 0.25 -2 0.82 c -0.6 0.59 -0.84 1.16 -0.85 2 c 0 0.77 0.29 1.43 0.87 1.96 c 0.79 0.73 1.68 0.93 2.79 0.61 m 5.98 0.09 c 0.62 -0.12 1.07 -0.34 1.52 -0.75 c 0.65 -0.59 0.92 -1.3 0.88 -2.25 c -0.02 -0.44 -0.05 -0.59 -0.22 -0.91 c -0.89 -1.77 -3.35 -2.13 -4.71 -0.69 c -1.36 1.44 -0.84 3.7 1.03 4.48 c 0.57 0.24 0.84 0.26 1.51 0.14" style="fill:#99c84e"/><path d="m 7.54 18.35 c -1.84 -0.27 -3.31 -1.61 -3.74 -3.37 c -0.11 -0.47 -0.18 -3.44 -0.08 -3.44 c 0.04 0 0.17 0.18 0.29 0.41 c 0.17 0.34 0.21 0.49 0.21 0.88 c 0 0.71 0.08 0.83 0.38 0.55 l 0.16 -0.14 l 0.25 0.36 c 0.23 0.34 0.25 0.39 0.25 0.94 c 0 0.92 0.11 1.1 0.42 0.68 c 0.09 -0.11 0.19 -0.21 0.23 -0.21 c 0.04 0 0.18 0.13 0.3 0.28 c 0.22 0.27 0.23 0.29 0.26 1.16 c 0.04 1.03 0.11 1.13 0.46 0.7 c 0.48 -0.6 0.35 -0.6 1.09 0.02 c 0.67 0.56 1.18 0.89 1.64 1.05 c 0.14 0.05 0.26 0.11 0.26 0.14 c 0 0.07 -1.9 0.05 -2.37 -0.02 m 4.57 0.02 c 0 -0.04 0.12 -0.11 0.26 -0.15 c 0.46 -0.16 0.98 -0.49 1.64 -1.05 l 0.66 -0.55 l 0.21 0.26 c 0.12 0.15 0.26 0.32 0.32 0.4 c 0.06 0.08 0.16 0.12 0.21 0.1 c 0.08 -0.03 0.11 -0.22 0.14 -0.93 c 0.04 -0.88 0.04 -0.89 0.26 -1.16 c 0.13 -0.15 0.26 -0.28 0.3 -0.28 c 0.04 0 0.14 0.09 0.23 0.21 c 0.31 0.41 0.42 0.23 0.42 -0.68 c 0 -0.55 0.01 -0.6 0.25 -0.94 l 0.25 -0.36 l 0.16 0.14 c 0.3 0.28 0.38 0.16 0.38 -0.55 c 0 -0.39 0.04 -0.54 0.21 -0.88 c 0.11 -0.22 0.24 -0.41 0.29 -0.41 c 0.12 0 0.03 3.07 -0.1 3.53 c -0.46 1.58 -1.75 2.83 -3.3 3.21 c -0.74 0.18 -2.79 0.21 -2.79 0.1 m -3.92 -3.78 c 0.24 -0.22 0.64 -0.5 0.88 -0.61 c 1.11 -0.52 2.78 -0.53 3.89 0 c 0.38 0.18 1.34 0.94 1.27 1 c -0.02 0.02 -0.26 -0.08 -0.55 -0.21 c -0.84 -0.39 -1.58 -0.53 -2.66 -0.53 c -1.08 0 -1.82 0.14 -2.66 0.53 c -0.29 0.13 -0.54 0.24 -0.56 0.24 c -0.02 0 0.16 -0.19 0.4 -0.41 m -0.79 -0.95 c 0.25 -0.26 1.05 -0.86 1.48 -1.11 c 1.02 -0.58 2.34 -0.72 3.39 -0.37 c 0.3 0.1 0.68 0.27 0.86 0.37 c 0.43 0.24 1.23 0.84 1.48 1.11 c 0.2 0.21 0.2 0.21 -0.39 -0.1 c -1.09 -0.57 -2.3 -0.92 -3.21 -0.92 c -0.91 0 -2.13 0.35 -3.22 0.92 c -0.59 0.31 -0.59 0.31 -0.39 0.1" style="fill:#6f9b4b"/><path d="m 9.32 16.62 c -0.4 -0.18 -0.46 -0.72 -0.11 -1 c 0.25 -0.2 0.54 -0.17 0.78 0.07 c 0.33 0.32 0.25 0.75 -0.18 0.93 c -0.27 0.11 -0.22 0.11 -0.48 0 m 2.88 0 c -0.41 -0.18 -0.49 -0.61 -0.16 -0.93 c 0.24 -0.24 0.53 -0.26 0.78 -0.06 c 0.37 0.29 0.27 0.86 -0.16 1.01 c -0.2 0.1 -0.29 0.05 -0.45 -0.02 m -4.73 -6.91 c -1.28 -0.33 -1.7 -1.81 -0.79 -2.75 c 1.01 -1.04 2.71 -0.43 2.8 1 c 0.02 0.24 -0.01 0.54 -0.05 0.68 c -0.11 0.32 -0.5 0.75 -0.83 0.92 c -0.3 0.15 -0.84 0.22 -1.13 0.14 m 6.15 -0.07 c -0.63 -0.21 -1.1 -0.85 -1.1 -1.48 c 0 -0.61 0.39 -1.27 0.91 -1.51 c 0.48 -0.23 0.99 -0.26 1.41 -0.07 c 0.64 0.27 0.99 0.81 1 1.53 c 0.01 0.74 -0.5 1.39 -1.22 1.59 c -0.38 0.1 -0.55 0.09 -1 -0.06" style="fill:#116a36"/><g style="fill:#31cd31"><path d="m 6.17 8.1 c 0.11 -0.81 0.8 -1.53 1.54 -1.65 l 0.15 -0.02 c 0 0.59 0 1.17 0 1.75 c -0.57 0 -1.13 0 -1.7 0"/><path d="m 12.5 8.1 c 0.11 -0.81 0.79 -1.53 1.54 -1.65 l 0.15 -0.02 c 0 0.59 0 1.17 0 1.75 c -0.57 0 -1.13 0 -1.7 0"/></g><g style="fill:#ffd600"><path d="m 7.84 9.96 l 0.43 -0.13 c 0.74 -0.22 1.35 -0.92 1.35 -1.54 v -0.27 c 0.37 0 0.75 0 1.12 0 c -0.04 0.42 -0.19 0.85 -0.35 1.19 c -0.41 0.88 -1.23 1.52 -2.16 1.68 l -0.39 0.07 c 0 -0.36 0 -0.71 0 -1"/><path d="m 14.1 9.94 l 0.39 -0.09 c 0.73 -0.18 1.34 -0.77 1.48 -1.43 c 0.07 -0.33 0.13 -0.37 0.69 -0.37 h 0.46 l -0.05 0.37 c -0.17 1.23 -1.27 2.24 -2.71 2.49 l -0.25 0.05 c 0 -0.34 0 -0.68 0 -1.02"/></g></svg>