<svg xmlns="http://www.w3.org/2000/svg" viewBox="0 0 22 22"><path d="m 18.85 4.13 c 13.72 19.51 -21.98 25.72 -18.43 4.98 c 1.88 -8.24 12.93 -12.8 18.43 -4.98" style="fill:#1a6980"/><path d="m 10.16 18.71 c -1.96 -0.22 -3.84 -1.28 -5 -2.83 c -1.43 -1.88 -1.79 -4.14 -1.05 -6.54 l 0.27 -0.87 c -0.16 -0.16 -0.32 -0.33 -0.48 -0.49 l 0.37 -0.54 c 0.73 -1.06 1.94 -2.14 2.98 -2.65 c 2.25 -1 4.76 -0.89 6.66 -0.02 c 1.99 0.93 3.45 2.53 4.07 4.5 c 0.35 1.1 0.41 3 0.13 4.05 c -0.68 2.52 -2.54 4.4 -5.07 5.12 c -1.02 0.26 -1.94 0.37 -2.86 0.26 m 6.95 -6.45 c 0.3 -2.68 -1.09 -5.19 -3.55 -6.37 c -1 -0.49 -1.73 -0.65 -2.93 -0.64 c -1.2 0 -1.85 0.13 -2.69 0.53 c -0.82 0.39 -1.5 0.88 -1.99 1.46 c -0.64 0.75 -0.52 0.78 0.73 0.18 c 1.57 -0.68 3.13 -0.93 4.53 -0.46 c 2.29 0.77 3.71 2.6 3.71 4.79 c 0 1.23 -0.44 2.31 -1.29 3.14 c -0.75 0.74 -1.63 1.1 -2.7 1.1 c -1.47 0 -2.65 -0.74 -3.12 -1.96 c -0.35 -0.9 -0.26 -1.8 0.28 -2.85 c 0.32 -0.62 0.28 -0.8 -0.11 -0.54 c -0.29 0.2 -0.8 0.8 -0.98 1.13 c -0.53 1.02 -0.43 2.61 0.23 3.71 c 0.58 0.97 1.84 1.81 3 2 c 3.44 0.48 6.49 -2.63 6.85 -5.24 m -5 2.32 c 0.21 -0.15 0.51 -0.44 0.44 -0.56 c -0.04 -0.09 -0.25 -0.21 -0.58 -0.5 c -0.11 -0.23 0.55 -0.55 0.34 -1.55 c -0.22 -0.73 -1.11 -1.25 -1.84 -1.09 c -0.63 0.14 -1.24 0.59 -1.52 1.14 c -0.54 1.05 0.14 2.49 1.33 2.75 c 0.66 0.14 1.37 0.16 1.82 -0.18 m -6.71 -0.86 c 0.01 -0.38 0.26 -1.69 0.39 -2 c 0.63 -1.63 2.13 -2.66 3.87 -2.67 c 1.21 -0.01 2.22 0.4 3.28 1.32 c 0.34 0.29 0.64 0.53 0.67 0.53 c 0.18 0 0.14 -0.22 -0.13 -0.75 c -0.4 -0.8 -1.06 -1.43 -1.93 -1.83 c -0.78 -0.36 -1.27 -0.47 -2.11 -0.46 c -0.81 0.01 -1.51 0.18 -2.19 0.55 c -1.24 0.68 -2.12 1.92 -2.31 3.27 c -0.11 0.77 0.11 2.11 0.35 2.11 c 0.06 0 0.11 -0.02 0.11 -0.05" style="fill:#fff"/></svg>