<svg xmlns="http://www.w3.org/2000/svg" viewBox="0 0 22 22"><path d="m 10.73 21.88 c -2.26 -0.18 -4.85 -1.26 -6.61 -2.77 c -2.14 -1.83 -3.63 -4.64 -3.9 -7.41 c -0.31 -3.66 2.04 -7.59 4.55 -9.45 c 1.26 -0.91 2.89 -1.63 4.41 -1.95 c 3.94 -0.82 7.91 0.73 10.5 4.12 c 1.55 2.03 2.29 4.07 2.36 6.5 c 0.08 2.9 -1.25 6 -3.47 8.11 c -2.5 1.98 -5 3.05 -7.83 2.84" style="fill:#dbe4ec"/><path d="m 6.91 5.2 h 8.48 c 0.92 0 1.67 0.63 1.67 1.41 v 9.1 c 0 0.78 -0.75 1.41 -1.67 1.41 h -8.48 c -0.92 0 -1.67 -0.63 -1.67 -1.41 v -9.1 c 0 -0.78 0.75 -1.41 1.67 -1.41" style="fill:#8bb9e6"/><path d="m 9.1 17.1 c -0.02 -0.61 0.1 -1.24 0.08 -1.85 c -0.66 0 -1.33 0 -1.99 0 l -0.03 0.91 c -0.03 0.91 0.09 0.92 -0.24 0.92 c -0.56 0 -0.99 -0.1 -1.4 -0.68 c -0.23 -0.33 -0.31 -1.1 -0.22 -1.23 c 0.03 -0.04 0.45 0.04 0.95 0.04 h 0.9 c 0 -0.66 0 -1.31 0 -1.96 c -0.62 -0.02 -0.93 0.01 -1.9 0.04 c 0 -0.66 0.05 -1.48 0.05 -2.13 c 0.62 -0.02 1.23 0.04 1.85 0.02 c 0 -0.65 0 -1.3 0 -1.96 c -0.62 -0.02 -1.23 -0.01 -1.85 -0.03 c 0 -0.63 -0.02 -1.39 -0.02 -2 c 0.62 -0.02 1.26 0.08 1.88 0.06 c 0.07 -0.43 -0.05 -1.97 0.11 -1.95 c 0.12 -0.12 1.38 -0.07 1.85 -0.08 c 0.13 0 0.13 0.34 0.13 1.11 v 0.93 c 0.43 -0.02 0.86 -0.04 1.28 -0.06 c 0.08 -0.4 -0.09 -1.65 0.17 -1.91 c 0.07 -0.06 1 -0.07 2.58 -0.02 c 2.28 0.06 2.71 -0.03 3.08 0.16 c 0.5 0.25 0.63 0.8 0.75 1.35 c 0.14 0.59 0.14 8.46 0 8.96 c -0.14 0.5 -0.41 0.95 -0.83 1.18 c -0.52 0.29 -0.76 0.16 -3.05 0.19 c -1.47 0 -2.75 0.07 -4.12 0 m 1.41 -3.82 l -1.28 -0.05 v 1.98 h 1.34 c -0.02 -0.64 -0.04 -1.28 -0.05 -1.93 m -1.35 -0.89 c -0.04 -1.3 0.38 -1.2 -0.7 -1.19 l -1.27 0.02 l -0.03 0.88 c -0.02 0.49 0 0.94 0.02 1.01 c 0.04 0.1 0.27 0.13 1.02 0.1 l 0.97 -0.03 m 1.31 -3.98 c 0 -0.02 -0.53 -0.01 -0.79 -0.01 h -0.48 c 0 0.35 0 0.7 0 1.05 c 0.31 -0.34 0.99 -0.68 1.27 -1.04 m -1.26 -1.98 c -0.68 0.02 -1.36 0.04 -2.05 0.05 l -0.03 0.84 c -0.02 0.46 -0.03 1.01 0 1.08 c 0.54 0.07 1.16 -0.02 2 -0.04 c 0.02 -0.64 0.04 -1.29 0.05 -1.93" style="fill:#5b9cd9"/><g style="fill:#364662"><path d="m 10.54 5.19 h 1.28 v 11.89 h -1.28"/><path d="m 13.32 11.33 c 0 1.2 -0.97 2.17 -2.17 2.17 c -1.2 0 -2.17 -0.97 -2.16 -2.17 c 0 -1.2 0.97 -2.17 2.16 -2.17 c 1.2 0 2.17 0.97 2.17 2.17"/></g><g style="fill:#fff"><path d="m 11.82 10.19 c 0.14 0 1.13 1.05 1.13 1.2 c 0 0.15 -0.97 1.07 -1.13 1.07 c 0.02 -0.68 0 -1.54 0 -2.26"/><path d="m 10.56 10.15 c -0.14 0 -1.13 1.05 -1.13 1.2 c 0 0.15 0.97 1.07 1.12 1.07 c -0.02 -0.68 0 -1.54 0.01 -2.26"/></g></svg>