<svg xmlns="http://www.w3.org/2000/svg" viewBox="0 0 22 22"><path d="m 3.32 4.13 c -13.73 19.51 21.97 25.72 18.43 4.99 c -1.88 -8.25 -12.93 -12.8 -18.43 -4.99" style="fill:#e6ecef"/><path d="m 4.79 17.43 c -0.09 -0.09 -0.08 -0.22 0.04 -0.6 c 0.18 -0.54 0.28 -1.39 0.28 -2.29 c 0 -0.89 -0.04 -1.15 -0.42 -2.77 c -0.1 -0.43 -0.19 -0.84 -0.19 -0.9 c 0 -0.07 0.17 -0.27 0.48 -0.57 c 0.52 -0.49 0.73 -0.83 0.91 -1.48 c 0.14 -0.48 0.13 -1.68 0 -2.36 c -0.09 -0.46 -0.1 -0.52 -0.02 -0.59 c 0.09 -0.09 2.54 -0.91 2.72 -0.91 c 0.14 0 0.23 0.1 0.43 0.46 c 0.22 0.4 0.82 1 1.31 1.3 c 0.23 0.14 0.47 0.3 0.54 0.34 l 0.12 0.08 v 5.1 c 0 3.9 -0.02 5.11 -0.06 5.16 c -0.09 0.09 -6.1 0.09 -6.15 0 m 3.13 -0.56 c 0 -0.28 0.09 -0.42 0.27 -0.42 c 0.18 0 0.27 0.14 0.27 0.42 v 0.15 h 2.06 v -2.19 h -0.16 c -0.29 0 -0.44 -0.08 -0.44 -0.26 c 0 -0.18 0.14 -0.26 0.44 -0.26 h 0.16 v -6.88 l -0.39 -0.25 c -0.61 -0.39 -1.2 -0.98 -1.58 -1.61 c -0.05 -0.09 -0.14 -0.07 -1.08 0.23 c -0.57 0.18 -1.05 0.34 -1.07 0.36 c -0.02 0.02 0 0.27 0.04 0.55 c 0.27 1.69 -0.13 3.09 -1.13 3.96 l -0.3 0.26 l 0.13 0.55 c 0.46 1.96 0.54 2.57 0.46 3.69 c -0.03 0.42 -0.11 0.99 -0.16 1.26 c -0.06 0.27 -0.11 0.52 -0.11 0.54 c 0 0.02 0.59 0.04 1.3 0.04 h 1.3 m 0.05 -1.12 c -0.03 -0.07 -0.05 -0.2 -0.05 -0.29 c 0 -0.08 0.02 -0.21 0.05 -0.29 c 0.04 -0.11 0.08 -0.13 0.23 -0.12 c 0.15 0.02 0.18 0.04 0.22 0.21 c 0.03 0.12 0.03 0.27 0 0.39 c -0.04 0.17 -0.07 0.2 -0.22 0.21 c -0.15 0.02 -0.19 0 -0.23 -0.12 m -1.83 -1.13 c -0.1 -0.04 -0.12 -0.08 -0.11 -0.22 c 0.02 -0.14 0.04 -0.18 0.22 -0.21 c 0.13 -0.03 0.28 -0.03 0.41 0 c 0.18 0.04 0.2 0.07 0.22 0.21 c 0.02 0.14 0 0.18 -0.13 0.22 c -0.17 0.06 -0.44 0.06 -0.61 0 m 1.3 0 c -0.1 -0.04 -0.12 -0.08 -0.11 -0.22 c 0.02 -0.14 0.04 -0.18 0.22 -0.21 c 0.13 -0.03 0.28 -0.03 0.41 0 c 0.18 0.04 0.21 0.07 0.22 0.21 c 0.01 0.14 -0.01 0.18 -0.13 0.22 c -0.18 0.06 -0.45 0.06 -0.61 0 m 1.3 0 c -0.1 -0.04 -0.12 -0.08 -0.11 -0.22 c 0.01 -0.14 0.04 -0.18 0.22 -0.21 c 0.13 -0.03 0.28 -0.03 0.41 0 c 0.18 0.04 0.2 0.07 0.22 0.21 c 0.02 0.14 -0.01 0.18 -0.13 0.22 c -0.17 0.06 -0.45 0.06 -0.61 0 m -0.77 -0.96 c -0.03 -0.07 -0.05 -0.2 -0.05 -0.29 c 0 -0.08 0.02 -0.21 0.05 -0.29 c 0.04 -0.11 0.08 -0.13 0.23 -0.12 c 0.15 0.02 0.18 0.04 0.22 0.21 c 0.03 0.12 0.03 0.27 0 0.39 c -0.04 0.17 -0.07 0.2 -0.22 0.21 c -0.15 0.01 -0.19 0 -0.23 -0.12 m 0 -1.25 c -0.03 -0.08 -0.05 -0.21 -0.05 -0.29 c 0 -0.08 0.02 -0.21 0.05 -0.29 c 0.04 -0.12 0.08 -0.14 0.23 -0.12 c 0.15 0.02 0.18 0.04 0.22 0.21 c 0.03 0.12 0.03 0.27 0 0.39 c -0.04 0.17 -0.07 0.2 -0.22 0.21 c -0.15 0.01 -0.19 -0.01 -0.23 -0.12 m -2.48 -1.13 c -0.1 -0.04 -0.12 -0.08 -0.11 -0.22 c 0.01 -0.15 0.04 -0.18 0.22 -0.22 c 0.13 -0.03 0.28 -0.03 0.41 0 c 0.18 0.04 0.2 0.07 0.22 0.22 c 0.02 0.14 0 0.18 -0.13 0.22 c -0.17 0.06 -0.45 0.06 -0.61 0 m 1.3 0 c -0.1 -0.04 -0.13 -0.08 -0.11 -0.22 c 0.02 -0.15 0.04 -0.18 0.22 -0.22 c 0.13 -0.03 0.28 -0.03 0.41 0 c 0.18 0.04 0.21 0.07 0.22 0.22 c 0.02 0.14 0 0.18 -0.13 0.22 c -0.17 0.06 -0.44 0.06 -0.61 0 m 1.3 0 c -0.1 -0.04 -0.12 -0.08 -0.11 -0.22 c 0.02 -0.15 0.04 -0.18 0.22 -0.22 c 0.13 -0.03 0.28 -0.03 0.41 0 c 0.18 0.04 0.2 0.07 0.22 0.22 c 0.01 0.14 -0.01 0.18 -0.13 0.22 c -0.18 0.06 -0.45 0.06 -0.61 0 m 1.3 0 c -0.1 -0.04 -0.12 -0.08 -0.11 -0.22 c 0.02 -0.15 0.04 -0.18 0.22 -0.22 c 0.13 -0.03 0.28 -0.03 0.41 0 c 0.18 0.04 0.2 0.07 0.22 0.22 c 0.02 0.14 0 0.18 -0.13 0.22 c -0.17 0.06 -0.44 0.06 -0.61 0 m -1.41 -0.96 c -0.03 -0.08 -0.05 -0.21 -0.05 -0.29 c 0 -0.08 0.02 -0.21 0.05 -0.29 c 0.04 -0.12 0.08 -0.14 0.23 -0.12 c 0.15 0.01 0.18 0.04 0.22 0.21 c 0.03 0.12 0.03 0.27 0 0.39 c -0.04 0.17 -0.07 0.2 -0.22 0.21 c -0.15 0.02 -0.19 0 -0.23 -0.12 m 0 -1.25 c -0.03 -0.07 -0.05 -0.2 -0.05 -0.29 c 0 -0.08 0.02 -0.21 0.05 -0.29 c 0.04 -0.11 0.08 -0.13 0.23 -0.12 c 0.15 0.02 0.18 0.04 0.22 0.21 c 0.03 0.12 0.03 0.27 0 0.39 c -0.04 0.17 -0.07 0.2 -0.22 0.21 c -0.15 0.02 -0.19 0 -0.23 -0.12 m 0 -1.25 c -0.03 -0.08 -0.05 -0.21 -0.05 -0.29 c 0 -0.08 0.02 -0.21 0.05 -0.29 c 0.04 -0.12 0.08 -0.14 0.23 -0.12 c 0.15 0.02 0.18 0.04 0.22 0.21 c 0.03 0.12 0.03 0.27 0 0.39 c -0.04 0.17 -0.07 0.2 -0.22 0.21 c -0.15 0.01 -0.19 -0.01 -0.23 -0.12 m 0 -1.25 c -0.03 -0.07 -0.05 -0.2 -0.05 -0.29 c 0 -0.08 0.02 -0.21 0.05 -0.29 c 0.04 -0.11 0.08 -0.13 0.23 -0.12 c 0.15 0.02 0.18 0.04 0.22 0.21 c 0.03 0.12 0.03 0.27 0 0.39 c -0.04 0.17 -0.07 0.2 -0.22 0.21 c -0.15 0.02 -0.19 0 -0.23 -0.12 m 3.96 10.5 c -0.09 -0.09 -0.09 -2.71 0 -2.8 c 0.09 -0.09 5.4 -0.09 5.5 0 c 0.09 0.09 0.09 2.71 0 2.8 c -0.09 0.09 -5.41 0.09 -5.5 0 m 2.48 -0.56 c 0 -0.29 0.09 -0.42 0.27 -0.42 c 0.18 0 0.27 0.14 0.27 0.42 v 0.15 h 2.06 v -0.73 h -0.27 c -0.4 0 -0.54 -0.07 -0.54 -0.26 c 0 -0.19 0.14 -0.26 0.54 -0.26 h 0.27 v -0.73 h -2.04 l -0.05 0.17 c -0.04 0.15 -0.07 0.17 -0.23 0.17 c -0.16 0 -0.19 -0.02 -0.23 -0.17 l -0.05 -0.17 h -2.04 v 0.73 h 0.27 c 0.4 0 0.54 0.07 0.54 0.26 c 0 0.19 -0.14 0.26 -0.54 0.26 h -0.27 v 0.73 h 2.05 m -0.7 -0.79 c -0.1 -0.04 -0.12 -0.08 -0.11 -0.22 c 0.01 -0.15 0.04 -0.18 0.22 -0.22 c 0.13 -0.03 0.28 -0.03 0.41 0 c 0.18 0.04 0.2 0.07 0.22 0.22 c 0.02 0.14 0 0.18 -0.13 0.22 c -0.17 0.06 -0.44 0.06 -0.61 0 m 1.3 0 c -0.1 -0.04 -0.12 -0.08 -0.11 -0.22 c 0.02 -0.15 0.04 -0.18 0.22 -0.22 c 0.13 -0.03 0.28 -0.03 0.41 0 c 0.18 0.04 0.21 0.07 0.22 0.22 c 0.02 0.14 0 0.18 -0.13 0.22 c -0.17 0.06 -0.44 0.06 -0.61 0 m -2.68 -2.83 c -0.09 -0.15 -0.93 -6 -0.88 -6.2 c 0.02 -0.07 0.18 -0.22 0.35 -0.34 c 0.17 -0.12 0.54 -0.42 0.82 -0.67 c 0.32 -0.28 0.65 -0.52 0.87 -0.62 c 0.33 -0.16 0.38 -0.17 0.98 -0.17 c 0.59 0 0.64 0.01 0.98 0.17 c 0.21 0.1 0.55 0.34 0.86 0.62 c 0.28 0.25 0.65 0.55 0.82 0.67 c 0.17 0.12 0.32 0.27 0.34 0.34 c 0.05 0.17 -0.79 6.1 -0.88 6.2 l -0.07 0.12 h -4.11 m 3.81 -0.64 c 0.02 -0.09 0.2 -1.37 0.41 -2.83 l 0.38 -2.66 l -0.2 -0.16 c -0.11 -0.09 -0.39 -0.32 -0.63 -0.52 c -0.87 -0.75 -1.1 -0.86 -1.71 -0.86 c -0.62 0 -0.85 0.12 -1.72 0.86 c -0.23 0.2 -0.52 0.43 -0.63 0.52 l -0.2 0.16 l 0.38 2.66 c 0.21 1.46 0.39 2.74 0.41 2.83 l 0.03 0.17 h 3.45 m -1.95 -0.5 c -0.03 -0.07 -0.05 -0.2 -0.05 -0.29 c 0 -0.08 0.03 -0.21 0.05 -0.29 c 0.05 -0.11 0.08 -0.13 0.23 -0.12 c 0.15 0.02 0.18 0.04 0.23 0.21 c 0.03 0.12 0.03 0.27 0 0.39 c -0.04 0.17 -0.07 0.2 -0.23 0.21 c -0.15 0.02 -0.18 0 -0.23 -0.12 m 0 -1.25 c -0.03 -0.08 -0.05 -0.21 -0.05 -0.29 c 0 -0.08 0.03 -0.21 0.05 -0.29 c 0.05 -0.12 0.08 -0.13 0.23 -0.12 c 0.15 0.02 0.18 0.04 0.23 0.21 c 0.03 0.12 0.03 0.27 0 0.39 c -0.04 0.17 -0.07 0.2 -0.23 0.21 c -0.15 0.01 -0.18 -0.01 -0.23 -0.12 m 0 -1.25 c -0.03 -0.07 -0.05 -0.2 -0.05 -0.29 c 0 -0.08 0.03 -0.21 0.05 -0.29 c 0.05 -0.11 0.08 -0.13 0.23 -0.12 c 0.15 0.01 0.18 0.04 0.23 0.21 c 0.03 0.12 0.03 0.27 0 0.39 c -0.04 0.17 -0.07 0.2 -0.23 0.21 c -0.15 0.02 -0.18 0 -0.23 -0.12 m 0 -1.25 c -0.03 -0.07 -0.05 -0.2 -0.05 -0.29 c 0 -0.08 0.03 -0.21 0.05 -0.29 c 0.05 -0.11 0.08 -0.13 0.23 -0.12 c 0.15 0.02 0.18 0.04 0.23 0.21 c 0.03 0.12 0.03 0.27 0 0.39 c -0.04 0.17 -0.07 0.2 -0.23 0.21 c -0.15 0.01 -0.18 -0.01 -0.23 -0.12 m -1.82 -1.12 c -0.09 -0.03 -0.12 -0.09 -0.12 -0.21 c 0 -0.19 0.2 -0.29 0.46 -0.22 c 0.13 0.04 0.17 0.08 0.18 0.21 c 0.02 0.14 0 0.18 -0.13 0.22 c -0.17 0.06 -0.23 0.06 -0.39 0 m 1.08 0 c -0.1 -0.04 -0.12 -0.08 -0.11 -0.22 c 0.02 -0.15 0.04 -0.18 0.22 -0.22 c 0.12 -0.03 0.28 -0.03 0.4 0 c 0.18 0.04 0.21 0.07 0.22 0.22 c 0.01 0.14 -0.01 0.18 -0.13 0.22 c -0.18 0.06 -0.45 0.06 -0.61 0 m 1.3 0 c -0.1 -0.04 -0.12 -0.08 -0.11 -0.22 c 0.01 -0.15 0.04 -0.18 0.22 -0.22 c 0.13 -0.03 0.28 -0.03 0.41 0 c 0.18 0.04 0.2 0.07 0.22 0.22 c 0.02 0.14 0 0.18 -0.13 0.22 c -0.17 0.06 -0.45 0.06 -0.61 0 m 1.3 0 c -0.09 -0.03 -0.13 -0.09 -0.13 -0.21 c 0 -0.19 0.21 -0.29 0.46 -0.22 c 0.13 0.04 0.17 0.08 0.18 0.21 c 0.02 0.14 -0.01 0.18 -0.13 0.22 c -0.17 0.06 -0.23 0.06 -0.39 0 m -1.86 -0.75 c -0.03 -0.07 -0.05 -0.2 -0.05 -0.29 c 0 -0.08 0.03 -0.21 0.05 -0.29 c 0.05 -0.11 0.08 -0.13 0.23 -0.12 c 0.15 0.02 0.18 0.04 0.23 0.21 c 0.03 0.12 0.03 0.27 0 0.39 c -0.04 0.17 -0.07 0.2 -0.23 0.21 c -0.15 0.02 -0.18 0 -0.23 -0.12"/></svg>