<svg xmlns="http://www.w3.org/2000/svg" viewBox="0 0 22 22"><path d="m 18.78 4.13 c 13.73 19.51 -21.97 25.72 -18.43 4.98 c 1.88 -8.24 12.93 -12.8 18.43 -4.98" style="fill:#f00"/><path d="m 9.32 19.34 c -0.06 -0.08 -0.19 -0.37 -0.29 -0.64 c -0.11 -0.72 -0.29 -0.52 -0.77 -0.64 c -0.66 -0.18 -0.76 -0.26 -0.82 -0.65 c -0.06 -0.43 -0.14 -0.48 -0.89 -0.48 c -0.42 0 -0.66 -0.02 -0.71 -0.07 c -0.04 -0.04 -0.07 -0.21 -0.07 -0.39 c 0 -0.49 0.11 -1.48 0.18 -1.62 c 0.04 -0.07 0.82 -0.89 1.73 -1.84 c 1.57 -1.62 2.04 -2.16 1.96 -2.24 c -0.06 -0.06 -0.42 0.25 -1.45 1.24 c -1.55 1.5 -1.87 1.74 -3.14 2.39 c -1.07 0.54 -1.86 0.88 -2 0.86 c -0.16 -0.02 -0.25 -0.21 -0.41 -0.91 c -0.17 -0.73 0.38 -0.87 -0.55 -1.28 c -0.21 -0.1 -0.26 -0.38 -0.26 -0.42 c 0 -0.04 0.14 -0.27 0.31 -0.51 c 0.35 -0.48 0.38 -0.64 0.23 -1.21 c -0.15 -0.55 -0.12 -0.68 0.2 -1 c 0.24 -0.21 0.3 -0.25 0.2 -0.54 c -0.05 -0.13 -0.09 -0.4 -0.09 -0.59 c 0 -0.4 0.07 -0.48 0.7 -0.86 c 0.21 -0.13 0.67 -0.12 0.69 -0.19 c 0.03 -0.06 -0.18 -0.46 -0.15 -0.69 c 0.08 -0.51 0.17 -0.6 0.95 -0.97 c 0.57 -0.27 0.59 -0.29 0.84 -0.68 c 0.3 -0.47 0.36 -0.49 1 -0.36 l 0.39 0.09 l 0.36 -0.34 c 0.41 -0.39 0.5 -0.41 1.04 -0.19 c 0.31 0.13 0.28 0.47 0.7 0.11 c 0.5 -0.43 0.66 -0.08 0.71 0.11 c 0.16 0.59 0.29 1.46 0.41 2.88 c 0.14 1.59 0.2 2.02 0.31 2.09 c 0.21 0.13 0.68 -0.43 0.84 -0.99 c 0.06 -0.21 0.18 -0.69 0.25 -1.07 c 0.25 -1.2 0.56 -1.84 1.32 -2.81 c 0.41 -0.52 0.46 -0.54 0.84 -0.36 l 0.24 0.11 c 0.25 -0.14 0.52 -0.42 0.81 -0.44 c 0.23 0.12 0.32 0.35 0.45 0.57 c 0.13 0.21 0.17 0.23 0.62 0.35 c 0.43 0.11 1.1 0.36 1.18 0.44 c 0.03 0.03 0.1 0.23 0.15 0.45 c 0.09 0.37 0.1 0.39 0.29 0.43 c 0.69 0.17 0.66 0.14 0.71 0.7 c 0.06 0.67 0.06 0.69 0.29 0.77 c 0.4 0.15 0.93 0.42 0.96 0.5 c 0.02 0.04 -0.06 0.3 -0.17 0.57 c -0.28 0.51 -0.14 0.74 0.16 1.11 c 0.2 0.23 0.36 0.46 0.36 0.5 c 0 0.04 -0.1 0.28 -0.22 0.53 c -0.26 0.42 -0.23 0.62 0.02 0.95 c 0.4 0.55 0.4 0.54 0.21 0.93 c -0.14 0.29 -0.17 0.41 -0.17 0.75 c 0 0.41 0 0.41 -0.27 0.7 c -0.84 0.16 -0.3 0.41 -0.51 1.01 c -0.26 0.75 -0.43 1.08 -0.57 1.08 c -0.05 0 -0.3 -0.15 -0.57 -0.34 c -0.36 -0.24 -0.6 -0.36 -0.88 -0.43 c -0.45 -0.11 -0.43 -0.09 -2.05 -1.53 c -1.39 -1.22 -1.53 -1.37 -2.22 -2.34 c -0.64 -0.91 -1.27 -1.71 -1.34 -1.71 c -0.09 0 -0.05 0.23 0.09 0.51 c 0.07 0.15 0.37 0.58 0.66 0.95 c 0.73 0.95 1.05 1.48 1.93 3.24 c 0.12 0.48 0.96 1.29 0.64 1.69 c -0.3 0.37 -0.38 0.55 -0.48 1.04 c -0.14 0.71 -0.16 0.72 -0.75 0.63 c -0.7 -0.11 -0.93 -0.05 -1.3 0.29 l -0.3 0.28 h -0.53 l -0.69 -0.36 l -0.4 0.68 c -0.18 0.31 -0.61 0.31 -0.67 0.31 c -0.06 0 -0.16 -0.07 -0.22 -0.16" style="fill:#007f7f"/><g style="fill:#fff"><path d="m 13.15 17.65 c -0.04 -0.03 -0.21 -0.18 -0.38 -0.33 c -0.29 -0.27 -0.45 -0.36 -0.48 -0.27 c -0.02 0.07 -0.24 0.3 -0.31 0.35 c -0.05 0.03 -0.08 0.02 -0.11 -0.02 c -0.07 -0.07 -0.03 -0.21 0.13 -0.49 c 0.13 -0.21 0.14 -0.26 0.15 -0.5 c 0 -0.15 0 -0.32 -0.01 -0.39 c -0.02 -0.12 -0.04 -0.13 -0.26 -0.17 c -0.17 -0.03 -0.21 -0.12 -0.13 -0.28 c 0.13 -0.25 0.06 -0.82 -0.13 -1.09 c -0.05 -0.08 -0.2 -0.32 -0.32 -0.54 c -0.23 -0.41 -0.64 -0.89 -0.75 -0.89 c -0.04 0 -0.08 0.05 -0.11 0.13 c -0.08 0.2 -0.29 1.29 -0.27 1.41 c 0.01 0.06 0.09 0.23 0.17 0.38 c 0.18 0.32 0.21 0.48 0.13 0.57 c -0.07 0.08 -0.11 0.06 -0.21 -0.09 c -0.08 -0.13 -0.14 -0.16 -0.19 -0.09 c -0.01 0.02 -0.04 0.24 -0.05 0.49 c -0.02 0.25 -0.05 0.51 -0.07 0.58 c -0.03 0.13 -0.12 0.2 -0.23 0.17 c -0.05 -0.02 -0.06 -0.07 -0.06 -0.54 c 0 -0.29 -0.01 -0.55 -0.02 -0.58 c -0.07 -0.17 -0.3 0.03 -0.68 0.59 c -0.12 0.18 -0.71 0.9 -0.72 0.89 c -0.21 -0.33 0.45 -0.97 0.5 -1.1 c 0.03 -0.07 0.25 -0.33 0.48 -0.59 c 0.24 -0.25 0.45 -0.51 0.48 -0.57 c 0.02 -0.06 0.05 -0.21 0.07 -0.33 c 0.02 -0.25 0.12 -0.7 0.21 -1.04 c 0.05 -0.19 0.06 -0.23 0.02 -0.25 c -0.07 -0.03 -0.31 0.05 -0.45 0.16 c -0.16 0.12 -1.4 1.18 -1.52 1.16 c -0.36 -0.06 1.06 -1.31 1.54 -1.59 c 0.33 -0.19 0.52 -0.37 0.6 -0.55 c 0.07 -0.17 0.17 -0.69 0.23 -1.23 c 0.08 -0.66 0.07 -0.89 0.27 -0.89 c 0.09 0 0.14 0.3 0.14 0.32 c 0 0.06 -0.16 1.42 -0.2 1.67 c -0.02 0.17 -0.02 0.27 0 0.34 c 0.02 0.05 0.17 0.25 0.34 0.44 c 0.66 0.75 0.99 1.21 0.99 1.39 c 0 0.16 0.18 0.53 0.3 0.64 c 0.12 0.1 0.17 0.1 0.37 -0.04 c 0.15 -0.11 0.2 -0.08 0.27 0.16 c 0.06 0.18 0.13 0.25 0.34 0.31 c 0.07 0.02 0.17 0.07 0.2 0.11 c 0.09 0.09 0.09 0.22 0 0.27 c -0.11 0.06 -0.44 0.01 -0.68 -0.11 c -0.38 -0.18 -0.42 -0.14 -0.37 0.29 c 0.04 0.34 0.13 0.5 0.48 0.93 c 0.16 0.19 0.33 0.42 0.39 0.52 c 0.15 0.27 0.09 0.44 -0.11 0.3"/><path d="m 3.68 14.5 c -0.1 -0.27 0.21 -1.1 0.55 -1.49 c 0.32 -0.35 1.46 -1.31 1.68 -1.41 c 0.08 -0.04 0.12 -0.14 0.09 -0.22 c -0.01 -0.03 -0.05 -0.05 -0.12 -0.05 c -0.12 0 -1.39 0.25 -1.63 0.32 c -0.2 0.06 -0.46 0.25 -0.68 0.49 c -0.25 0.28 -0.24 0.43 0.04 0.52 c 0.18 0.06 0.3 0.16 0.28 0.25 c -0.02 0.08 -0.18 0.09 -0.36 0.01 c -0.13 -0.06 -0.27 -0.05 -0.39 -0.09 c -0.07 -0.04 -0.15 -0.19 -0.15 -0.29 c 0 -0.15 0.2 -0.46 0.47 -0.72 c 0.53 -0.51 0.55 -0.54 0.57 -0.66 c 0.05 -0.27 -0.25 -0.7 0.36 -0.07 c 0.27 0.22 1.07 0.04 1.5 -0.04 c 0.43 -0.07 0.9 -0.18 1.21 -0.34 c 0.67 -0.34 1.64 -0.69 2.13 -0.76 c 0.16 -0.02 0.3 -0.05 0.31 -0.06 c 0.05 -0.03 -0.04 -0.16 -0.17 -0.29 c -0.18 -0.18 -0.43 -0.33 -0.6 -0.38 c -0.17 -0.05 -1.54 -0.05 -1.57 -0.2 c -0.05 -0.25 1.07 -0.3 1.62 -0.17 c 0.04 0.01 0.2 0.12 0.34 0.23 c 0.27 0.22 0.61 0.43 0.7 0.43 c 0.04 0 0.05 -0.02 0.03 -0.1 c -0.09 -0.4 -0.51 -1.62 -0.7 -2 c -0.17 -0.36 -0.42 -0.58 -0.57 -0.52 c -0.14 0.16 -0.14 0.6 -0.33 0.6 c -0.22 0 -0.26 -0.2 -0.11 -0.58 c 0.11 -0.28 0.3 -0.5 0.43 -0.5 c 0.19 0 0.47 0.24 0.7 0.6 c 0.32 0.51 0.8 1.71 0.8 2 c 0 0.18 0.07 0.55 0.15 0.75 c 0.04 0.09 0.06 0.17 0.05 0.18 c -0.56 0.7 -0.56 0.11 -0.76 0.24 c -0.38 0.15 -0.82 0.2 -1.13 0.32 c -0.18 0.07 -0.38 0.13 -0.44 0.15 c -0.25 0.07 -1.19 0.66 -1.92 1.23 c -0.84 0.64 -1.74 1.46 -1.89 1.73 c -0.04 0.07 -0.08 0.19 -0.09 0.27 c -0.04 0.26 -0.27 0.67 -0.36 0.67 c -0.02 0 -0.05 -0.02 -0.06 -0.05"/><path d="m 18.27 15.46 c -0.28 -0.39 -0.31 -0.47 -0.4 -0.82 c 0.04 -0.36 0.02 -0.5 -0.07 -0.54 c -0.07 -0.03 -0.22 0.1 -0.29 0.23 c -0.13 0.24 -0.05 0.51 0.21 0.82 c 0.19 0.2 0.03 0.15 -0.13 0.13 c -0.25 -0.03 -0.26 -0.05 -0.42 -0.35 c -0.14 -0.26 -0.13 -0.45 0.05 -0.69 c 0.16 -0.21 0.34 -0.61 0.34 -0.74 c 0 -0.3 -0.2 -0.51 -0.83 -0.89 c -0.55 -0.33 -0.84 -0.54 -1.22 -0.87 c -0.48 -0.46 -1.13 -0.72 -1.66 -0.93 c -0.38 -0.15 -1.26 -0.36 -1.82 -0.42 c -0.44 -0.31 -0.89 -0.29 -0.77 -0.52 c 0.08 -0.16 0.59 -0.13 0.64 -0.39 c 0.03 -0.2 0.04 -0.22 0.25 -0.43 c 0.25 -0.27 0.36 -0.41 0.63 -0.89 c 0.29 -0.5 0.47 -0.92 0.54 -1.27 c 0.03 -0.17 0.11 -0.4 0.18 -0.55 c 0.11 -0.24 0.12 -0.3 0.15 -0.66 c 0.04 -0.44 0.08 -0.6 0.17 -0.6 c 0.12 0 0.18 0.11 0.17 0.33 c -0.01 0.25 0.03 0.25 0.28 0.01 c 0.16 -0.23 0.51 -0.45 0.53 -0.12 l -0.23 0.28 c -0.5 0.59 -0.9 1.18 -0.84 1.24 c 0.04 0.04 0.32 -0.14 0.7 -0.44 c 0.2 -0.16 0.47 -0.36 0.6 -0.44 c 0.2 -0.13 0.25 -0.14 0.3 -0.11 c 0.03 0.02 0.06 0.04 0.06 0.05 c 0 0.02 -0.67 0.66 -0.94 0.89 c -0.11 0.09 -0.31 0.25 -0.45 0.36 c -0.36 0.25 -0.47 0.39 -0.71 0.85 c -0.18 0.35 -0.34 0.61 -0.71 1.16 c -0.11 0.16 -0.1 0.21 0.03 0.21 c 0.13 0 0.54 -0.23 1.15 -0.64 c 0.75 -0.74 1.06 -1.43 1.78 -2.08 c 0.2 -0.18 0.45 -0.13 0.89 -0.25 c 0.36 -0.09 0.5 -0.07 0.5 0.07 c 0 0.04 0.03 0.11 0.06 0.16 c 0.11 0.17 -0.11 0.13 -0.21 0.13 c -0.33 0 -1.05 0.14 -1.23 0.23 c -0.41 0.34 -0.62 0.83 -0.91 1.26 c -0.07 0.11 -0.13 0.2 -0.13 0.21 c 0 0.02 0.53 -0.01 0.96 -0.05 c 0.35 -0.04 0.5 -0.11 0.67 -0.3 c 0.25 -0.31 0.72 -0.59 1.04 -0.63 c 0.68 -0.3 0.82 -0.16 0.47 0.39 h -0.31 c -0.29 0 -0.33 0.01 -0.49 0.09 c -0.23 0.12 -0.51 0.4 -0.48 0.48 c 0.04 0.12 0.86 0.41 1.18 0.41 c 0.08 0 0.27 -0.02 0.42 -0.05 c 0.29 -0.05 0.52 -0.04 0.61 0.04 c 0.08 0.06 0.04 0.09 -0.22 0.16 c -0.34 0.1 -0.44 0.27 -0.26 0.44 c 0.11 0.11 0.14 0.23 0.08 0.3 c -0.06 0.06 -0.13 0.03 -0.35 -0.16 c -0.31 -0.26 -1.23 -0.64 -1.78 -0.74 c -0.41 -0.07 -1.22 -0.04 -1.65 0.07 c -0.22 0.05 -0.52 0.2 -1 0.47 c -0.2 0.12 -0.52 0.28 -0.71 0.37 c -0.45 0.2 -0.45 0.2 -0.41 0.27 c 0.08 0.13 0.23 0.18 0.54 0.19 c 0.38 0.02 0.56 -0.02 0.81 -0.18 c 0.21 -0.13 0.3 -0.15 0.35 -0.08 c 0.05 0.06 0.01 0.13 -0.13 0.27 c -0.18 0.18 -0.13 0.29 0.16 0.35 c 0.09 0.02 0.41 0.14 0.7 0.27 c 0.43 0.2 0.55 0.24 0.68 0.24 c 0.18 0 0.81 -0.18 1.2 -0.34 c 0.35 -0.14 0.46 -0.15 0.85 -0.06 c 0.36 0.09 0.66 0.1 1.31 0.04 c 0.45 -0.04 0.51 -0.03 0.53 0.09 c 0.01 0.07 -0.06 0.13 -0.4 0.33 c -0.35 0.21 -0.31 0.21 -0.63 0.11 c -0.45 -0.14 -0.61 -0.17 -1.08 -0.17 c -0.48 0 -0.82 0.06 -1.14 0.21 c -0.15 0.07 -0.16 0.08 -0.16 0.18 c 0 0.09 0.03 0.13 0.19 0.29 c 0.27 0.26 0.58 0.47 0.79 0.55 c 0.1 0.04 0.27 0.11 0.38 0.16 c 0.25 0.12 0.31 0.12 0.6 0 c 0.43 -0.17 0.7 -0.19 0.78 -0.05 c 0.04 0.07 -0.06 0.16 -0.3 0.23 c -0.24 0.07 -0.44 0.18 -0.44 0.23 c -0.01 0.13 0.03 0.28 0.21 0.77 c 0.12 0.33 0.22 0.64 0.24 0.78 c 0.29 0.98 0.07 1.88 -0.02 1.07"/><path d="m 3.66 9 c -0.03 -0.11 0.01 -0.2 0.13 -0.28 c 0.06 -0.04 0.2 -0.15 0.32 -0.25 c 0.32 -0.27 0.35 -0.29 0.84 -0.32 c 0.38 -0.02 0.45 -0.03 0.48 -0.09 c 0.05 -0.08 0.02 -0.25 -0.06 -0.35 c -0.29 -0.17 -0.51 -0.2 -0.81 -0.23 c -0.32 -0.2 -0.23 -0.44 0.12 -0.38 c 0.19 0 0.54 0.23 0.64 0.07 c 0.05 -0.27 -0.05 -0.58 0.09 -0.75 c 0 -0.02 0.26 0.18 0.3 0.2 c 0.06 0.03 0.15 0.01 0.35 -0.05 c 0.41 -0.14 0.52 -0.21 0.52 -0.32 c 0 -0.13 -0.09 -0.39 -0.15 -0.46 c -0.24 -0.54 0.19 -0.31 0.26 -0.2 c 0.09 0.17 0.21 0.5 0.21 0.6 c 0 0.14 0.11 0.24 0.5 0.44 c 0.29 0.15 0.37 0.21 0.38 0.27 c 0.01 0.05 -0.02 0.09 -0.08 0.12 c -0.07 0.04 -0.12 0.03 -0.29 -0.04 c -0.38 -0.15 -1.14 -0.16 -1.38 -0.02 c -0.23 0.13 -0.43 0.38 -0.5 0.61 c -0.02 0.09 -0.01 0.13 0.12 0.29 c 0.15 0.19 0.27 0.5 0.23 0.6 c -0.04 0.1 -0.19 0.11 -0.63 0.03 c -0.51 -0.09 -0.52 -0.09 -0.93 0.25 c -0.41 0.34 -0.61 0.43 -0.66 0.27"/><path d="m 4 10.38 c -0.07 -0.04 -0.47 -0.14 -0.29 -0.24 c 0.09 -0.06 0.77 -0.19 0.97 -0.19 c 0.29 0 0.3 0.08 0.03 0.29 c -0.19 0.14 -0.65 0.18 -0.7 0.14"/><path d="m 5.19 9.94 c -0.07 -0.08 0.09 -0.16 0.16 -0.25 c 0.06 -0.09 0.22 -0.1 0.31 -0.03 c 0.08 0.06 0.07 0.09 -0.03 0.21 c -0.09 0.11 -0.36 0.15 -0.44 0.06"/><path d="m 5.97 9.69 c -0.12 -0.12 0.18 -0.41 0.41 -0.41 c 0.07 0 0.36 -0.25 0.36 0.02 c 0 0.11 -0.41 0.31 -0.6 0.38 c -0.13 0.04 -0.15 0.04 -0.18 0.02"/><path d="m 13.95 11.95 c 0.02 -0.09 -0.01 -0.57 0.17 -0.41 c 0.09 0.08 0.25 0.6 0.54 1.03 c 0.19 0.28 0.01 0.36 -0.31 0.13 c -0.23 -0.16 -0.42 -0.68 -0.4 -0.75"/></g></svg>