<svg xmlns="http://www.w3.org/2000/svg" viewBox="0 0 22 22"><path d="m 2.57 14.9 c -1.05 -1.32 -2.11 -3.83 -2.25 -5.32 c -0.21 -2.16 0.52 -4.64 1.79 -6.14 c 1.7 -2 5.16 -3.32 8.62 -3.3 c 2.48 0.01 5.82 0.75 7.52 1.67 c 1.45 0.78 2.49 1.93 3.07 3.38 c 0.78 1.97 0.83 3.89 0.15 5.81 c -1.11 4.09 -3.66 6.86 -5.95 9.1 c -5.82 4.93 -9.75 -1.03 -12.95 -5.15" style="fill:#0027b7"/><g style="fill:#fff"><path d="m 5.62 7.75 c -0.44 -0.71 -0.52 -0.9 -0.41 -0.97 c 0.12 -0.08 11.38 -0.05 11.46 0.03 c 0.05 0.06 -0.3 0.81 -0.53 1.1 l -0.13 0.17 h -10.19"/><path d="m 10 15.45 c -2 -3.47 -3.41 -5.94 -3.36 -5.98 c 0.07 -0.07 8.58 -0.09 8.65 -0.02 c 0.06 0.06 -0.88 1.79 -2.86 5.24 c -1.18 2.07 -1.37 2.38 -1.45 2.38 c -0.03 0 -0.47 -0.73 -0.98 -1.61 m 1.76 -2.39 c 0.89 -1.55 1.18 -2.09 1.13 -2.17 c -0.03 -0.05 -0.71 -0.07 -1.92 -0.07 c -1.69 0 -1.88 0.01 -1.88 0.11 c 0 0.16 1.31 2.52 1.77 3.18 c 0.17 0.24 0.14 0.27 0.9 -1.04"/></g></svg>