<svg xmlns="http://www.w3.org/2000/svg" viewBox="0 0 22 22"><path d="m 18.85 4.13 c 13.72 19.51 -21.98 25.72 -18.43 4.98 c 1.88 -8.24 12.93 -12.8 18.43 -4.98" style="fill:#f4f4f4"/><path d="m 5 13.43 c -0.07 -0.15 0.49 -2.41 0.63 -2.52 c 0.17 -0.14 0.52 -0.1 0.57 0.06 c 0.02 0.08 -0.09 0.68 -0.26 1.33 c -0.29 1.14 -0.31 1.18 -0.59 1.22 c -0.16 0.02 -0.32 -0.02 -0.35 -0.08 m 11.91 -0.02 c -0.04 -0.07 0.22 -0.67 0.57 -1.33 l 0.64 -1.2 l 0.67 -0.02 c 0.41 -0.01 0.7 0.04 0.75 0.12 c 0.07 0.12 0.3 1.86 0.3 2.29 c 0 0.23 -0.62 0.18 -0.73 -0.06 c -0.09 -0.19 -0.13 -0.39 -0.29 0.06 c -0.1 0.28 -0.29 0.27 -1.02 0.27 c -0.49 0 -0.85 -0.05 -0.88 -0.13 m 2.11 -0.86 c 0.05 -0.16 -0.01 -1.05 -0.08 -1.36 c -0.03 -0.13 -0.07 -0.13 -0.18 -0.02 c -0.23 0.24 -0.62 1.19 -0.57 1.37 c 0.07 0.22 0.76 0.23 0.82 0.01 m -16.34 0.61 c -0.05 -0.3 -0.24 -2.75 -0.24 -3.07 c 0 -0.15 0.07 -0.21 0.27 -0.21 c 0.15 0 0.29 0.04 0.32 0.1 c 0.02 0.05 0.09 0.57 0.15 1.15 c 0.05 0.58 0.14 1.1 0.18 1.16 c 0.05 0.06 0.21 -0.14 0.39 -0.46 c 0.17 -0.31 0.48 -0.87 0.7 -1.25 l 0.39 -0.68 h 0.79 c 0.1 0 -0.05 0.2 0.22 -0.02 c 0.2 -0.16 0.55 0.02 0.57 0.22 c 0.04 0.43 -0.67 0.71 -0.71 0.25 c -0.04 -0.4 -0.09 -0.22 -0.15 -0.2 c -0.05 0.02 -0.49 0.77 -0.96 1.66 l -0.87 1.62 h -0.5 c -0.44 0 -0.5 -0.03 -0.54 -0.27 m 3.52 0.18 c -0.02 -0.05 0 -0.21 0.04 -0.36 c 0.07 -0.24 0.14 -0.27 0.75 -0.27 c 0.73 0 0.96 -0.11 0.88 -0.4 c -0.04 -0.12 -0.17 -0.19 -0.38 -0.19 c -0.6 0 -1.04 -0.47 -0.96 -1.02 c 0.05 -0.32 0.46 -0.35 0.68 -0.05 c 0.13 0.18 0.29 0.24 0.58 0.24 c 0.82 0 1.16 1.02 0.57 1.77 c -0.28 0.36 -0.3 0.36 -1.2 0.36 c -0.5 0 -0.93 -0.04 -0.95 -0.09 m 2.54 -0.24 c 0 -0.18 0.12 -0.75 0.25 -1.27 c 0.22 -0.86 0.27 -0.95 0.51 -0.98 c 0.14 -0.02 0.3 0.01 0.35 0.07 c 0.08 0.1 -0.28 2.08 -0.43 2.39 c -0.04 0.07 -0.2 0.13 -0.38 0.13 c -0.29 0 -0.32 -0.03 -0.31 -0.33 m 1.1 0.12 c 0 -0.39 0.73 -3.26 0.85 -3.36 c 0.16 -0.13 1.68 -0.12 1.96 0.02 c 0.48 0.23 0.4 1.33 -0.17 2.44 c -0.43 0.84 -0.89 1.11 -1.88 1.11 c -0.66 0 -0.75 -0.03 -0.75 -0.21 m 1.67 -0.91 c 0.35 -0.3 0.7 -1.12 0.61 -1.42 c -0.07 -0.23 -0.84 -0.26 -0.96 -0.04 c -0.09 0.18 -0.39 1.4 -0.39 1.59 c 0 0.24 0.39 0.17 0.74 -0.14 m 0.73 1.02 c 0 -0.14 1.19 -2.31 1.32 -2.4 c 0.12 -0.09 1.32 -0.07 1.39 0.02 c 0.05 0.07 0.24 1.79 0.24 2.19 c 0 0.24 -0.04 0.29 -0.27 0.29 c -0.17 0 -0.31 -0.09 -0.4 -0.26 l -0.14 -0.26 l -0.11 0.26 c -0.1 0.24 -0.17 0.26 -1.07 0.26 c -0.54 0 -0.97 -0.04 -0.97 -0.1 m 2.19 -0.79 c 0.07 -0.25 -0.06 -1.47 -0.16 -1.47 c -0.14 0 -0.75 1.3 -0.7 1.48 c 0.07 0.24 0.78 0.23 0.86 -0.01 m 1.31 0.83 c -0.07 -0.09 0.37 -2.19 0.5 -2.39 c 0.11 -0.16 0.59 -0.2 0.66 -0.05 c 0.02 0.05 -0.07 0.63 -0.21 1.27 l -0.25 1.18 l -0.32 0.04 c -0.18 0.02 -0.35 0 -0.38 -0.04 m -8.99 -2.88 c -0.03 -0.06 0.06 -0.22 0.19 -0.36 c 0.21 -0.21 0.38 -0.25 1.11 -0.25 c 0.77 0 0.87 0.02 0.87 0.21 c 0 0.41 -0.19 0.5 -1.17 0.5 c -0.52 0 -0.97 -0.05 -1 -0.11 m 2.59 0.01 c -0.18 -0.37 0.29 -0.86 0.64 -0.69 c 0.17 0.08 0.18 0.45 0.03 0.64 c -0.13 0.16 -0.59 0.19 -0.66 0.05 m 4.48 -0.05 c 0.01 -0.38 0.25 -0.58 0.66 -0.54 c 0.36 0.03 0.4 0.07 0.4 0.33 c 0 0.28 -0.03 0.3 -0.53 0.33 c -0.39 0.02 -0.53 -0.01 -0.53 -0.12 m 1.72 0.05 c -0.02 -0.05 0 -0.21 0.04 -0.36 c 0.07 -0.25 0.13 -0.27 1.14 -0.27 c 0.96 0 1.07 0.02 1.07 0.21 c 0 0.42 -0.19 0.5 -1.21 0.5 c -0.55 0 -1.01 -0.04 -1.04 -0.09 m 2.9 -0.04 c 0 -0.38 0.2 -0.58 0.59 -0.58 c 0.33 0 0.41 0.04 0.45 0.26 c 0.03 0.14 0.03 0.3 0 0.36 c -0.07 0.14 -1.05 0.12 -1.05 -0.03"/></svg>