<svg xmlns="http://www.w3.org/2000/svg" viewBox="0 0 22 22"><path d="m 0.48 13.48 c 1.34 8.79 13.28 11.14 18.54 4.86 c 4.64 -4.66 3.49 -13.58 -2.21 -16.64 c -6.54 -4.09 -16.1 0.97 -16.57 9.12 c -0.05 0.89 0.02 1.8 0.23 2.66" style="fill:#d2d2d2"/><path d="m 18.82 11.17 c 0 4.33 -3.47 7.84 -7.76 7.84 c -4.29 0 -7.76 -3.51 -7.76 -7.84 c 0 -4.33 3.47 -7.84 7.76 -7.84 c 4.29 0 7.76 3.51 7.76 7.84" style="fill:#ecebee"/><path d="m 6.32 15.1 c -0.21 -0.17 -0.48 -0.48 -0.61 -0.68 c -0.21 -0.34 -0.23 -0.39 -0.19 -0.69 c 0.04 -0.33 0.04 -0.33 -0.2 -0.5 c -0.13 -0.1 -0.38 -0.29 -0.55 -0.43 c -0.17 -0.14 -0.45 -0.05 -0.56 -0.09 c -0.28 -0.07 -0.29 -0.03 -0.54 -0.75 c -0.06 0 -0.16 -0.07 -0.22 -0.17 c -0.15 -0.23 -0.15 -1.57 0.01 -2.32 c 0.16 -0.76 0.81 -2.12 0.9 -2.24 c 0.48 -0.62 0.93 -1.5 1.19 -1.47 c 0.16 0.02 0.25 0.64 0.54 0.43 c 0.4 -0.3 0.73 0.73 0.78 0.8 c 0.05 0.11 -0.02 0.43 -0.32 0.57 c -0.31 0.15 -0.87 0.12 -1.21 0.09 c -0.57 -0.05 -0.65 0.63 -0.39 0.39 c 0.17 -0.12 0 0.23 0.27 0.49 c 0.13 0.33 0.38 1 0.38 0.57 c 0 -0.17 0.57 -0.57 0.33 -1.04 c -0.06 -0.13 0.56 0 0.98 0.51 c 0.32 0.39 0.56 1.15 0.47 1.2 c -0.88 0.46 -1.84 0.12 -1.84 0.63 c 0 0.24 -0.03 0.43 -0.06 0.43 c -0.1 0 -0.32 0.41 -0.32 0.59 c 0 0.17 0.2 0.58 0.08 0.47 c -0.15 -0.14 -0.76 -0.49 -0.92 -0.32 c -0.13 0.14 -0.08 0.49 0.09 0.65 c 0.11 0.1 0.13 0.1 0.26 0.01 c 0.32 -0.08 0.86 -0.48 0.86 -0.1 c -0.02 0.22 -0.16 0.16 -0.29 0.05 c -0.05 -0.08 -0.13 -0.07 -0.24 0.05 c -0.09 0.09 -0.09 0.11 0 0.21 c 0.05 0.06 0.12 0.19 0.14 0.29 c 0.03 0.1 0.12 0.22 0.21 0.27 c 0.32 0.14 0.54 -0.15 0.84 -0.06 c 0.77 -0.17 0.22 -0.07 0.82 0.26 c 0.1 0.06 0.31 0.33 0.5 0.48 c 0.2 0.14 0.54 0.35 0.77 0.45 c 0.48 0.21 0.82 0.3 0.64 0.65 c -0.09 0.27 -0.2 0.62 -0.38 0.8 c -0.14 0.15 -0.55 0.3 -0.58 0.41 c -0.03 0.14 -0.11 0.13 -0.17 0.2 c -0.36 0.47 -0.14 2.03 -0.22 1.92 l -0.49 -0.16 l -0.52 -1.81 c -0.22 -0.65 -0.1 -0.89 -0.28 -1.04 m -0.85 -4.96 c -0.02 -0.04 -0.03 -0.01 -0.03 0.08 c 0.02 0.19 0.04 0.01 0.03 -0.08 m -0.23 -0.14 c -0.1 -0.6 -0.5 -0.41 -0.52 -0.33 c 0.03 0.14 0.26 0.55 0.52 0.33" style="fill:#238ecc"/><g style="fill:#f00"><path d="m 5.56 12.33 c -0.01 -0.03 -0.02 -0.58 -0.01 -1.22 c 0.02 -1.35 -0.01 -1.27 0.36 -1.27 c 0.27 0 0.31 0.04 0.72 0.79 c 0.34 0.62 0.51 0.89 0.56 0.89 c 0.06 0 0.07 -0.11 0.09 -0.88 l 0.03 -0.77 h 0.35 l -0.01 1.15 c -0.01 0.81 -0.03 1.18 -0.06 1.23 c -0.06 0.11 -0.27 0.15 -0.4 0.08 c -0.11 -0.06 -0.33 -0.41 -0.75 -1.2 c -0.17 -0.31 -0.33 -0.58 -0.35 -0.6 c -0.12 -0.1 -0.13 0.03 -0.13 0.94 v 0.89 c -0.14 0.01 -0.31 0 -0.41 -0.05"/><path d="m 8.34 12.35 v -0.78 c 0 -0.43 0.01 -0.98 0.02 -1.22 l 0.02 -0.43 h 0.66 c 0.56 0 0.66 0.01 0.68 0.05 c 0.04 0.11 0.06 0.2 -0.34 0.22 c -0.47 0.02 -0.61 -0.02 -0.61 0.34 c 0 0.34 0.03 0.36 0.45 0.41 c 0.3 0.03 0.36 -0.05 0.37 0.11 c 0.01 0.1 0.07 0.17 -0.21 0.17 c -0.25 0 -0.52 -0.01 -0.57 0.08 c -0.02 0.02 -0.03 0.18 -0.03 0.35 c 0 0.39 0.05 0.46 0.31 0.46 c 0.09 0 0.28 0.01 0.41 0.02 c 0.28 0.03 0.34 0.09 0.2 0.2 c 0.03 0.13 -0.46 0.05 -1.36 0.03"/><path d="m 10.91 12.34 c -0.03 -0.02 -0.09 -0.12 -0.12 -0.21 c -0.14 -0.4 -0.5 -1.64 -0.61 -2.12 l -0.02 -0.1 c 0.15 0 0.3 0 0.45 0 l 0.17 0.73 c 0.2 0.82 0.29 1.1 0.37 1.1 c 0.05 0 0 -0.14 0.23 -1.04 c 0.19 -0.75 0.32 -0.77 0.46 -0.8 c 0.16 -0.02 0.28 0 0.32 0.08 c 0.02 0.04 0.07 0.22 0.13 0.41 c 0.13 0.29 0.31 1.17 0.41 1.25 c 0.2 -0.39 0.31 -0.91 0.37 -1.36 c 0.01 -0.1 0.05 -0.25 0.09 -0.34 c 0.06 -0.25 0.3 -0.14 0.46 -0.07 c 0.06 0.11 -0.54 2.32 -0.67 2.45 c -0.04 0.04 -0.13 0.05 -0.27 0.05 c -0.2 0 -0.22 0 -0.28 -0.11 c -0.04 -0.06 -0.15 -0.41 -0.25 -0.79 c -0.11 -0.38 -0.21 -0.69 -0.23 -0.7 c -0.08 -0.05 -0.13 0.07 -0.42 1.09 c -0.07 0.22 -0.14 0.43 -0.17 0.45 c -0.06 0.07 -0.37 0.07 -0.45 0.01"/></g><path d="m 16.96 15.94 c -0.05 -0.04 -0.22 -0.09 -0.36 -0.13 c -0.25 -0.06 -0.29 -0.11 -0.49 -0.52 c -0.29 -0.59 -0.39 -1.13 -0.26 -1.39 c 0.05 -0.1 0.09 -0.23 0.09 -0.29 c 0 -0.18 -0.38 -0.88 -0.52 -0.95 c -1.21 -0.48 -2 -1.38 -1.48 -2.35 c 0.03 -0.02 0.14 -0.18 0.25 -0.35 l 0.21 -0.31 l -0.14 -0.25 c -0.2 -0.38 -0.13 -0.59 0.24 -0.69 c 0.23 -0.06 0.29 -0.11 0.29 -0.23 c 0 -0.08 -0.05 -0.12 -0.06 -0.15 c -0.1 -0.3 0.23 -0.36 0.2 -0.47 c -0.04 -0.11 -0.47 0.04 -0.6 -0.03 c -0.12 -0.06 -0.22 -0.12 -0.23 -0.13 c -0.02 -0.01 0.04 -0.13 0.11 -0.26 c 0.08 -0.13 0.14 -0.3 0.14 -0.38 c 0 -0.14 0.29 -0.36 0.37 -0.27 c 0.02 0.02 0.02 0.33 0.13 0.55 c 0.22 0.47 0.1 0.48 0.55 0.21 c 0.3 -0.18 0.58 -0.29 0.4 -0.33 c -0.18 -0.04 -0.55 -0.51 -0.55 -0.7 c 0 -0.1 0.38 -0.65 0.69 -0.98 l 0.21 -0.23 l 0.24 0.21 c 0.41 0.36 1.09 1.19 1.36 1.65 c 0.54 0.91 0.9 2.03 1.03 3.18 c 0.05 0.44 -1.55 0.54 -0.52 1.23 c 0.27 0.18 0.02 2.57 -0.6 3.58 c -0.41 0.67 -0.56 0.84 -0.68 0.77 m -0.25 -6 c 0.13 -0.04 0.25 -0.1 0.25 -0.13 c 0 -0.02 -0.1 -0.13 -0.23 -0.22 c -0.21 -0.16 -0.24 -0.17 -0.45 -0.09 c -0.37 0.14 -0.88 0.13 -0.57 0.25 c 0.15 0.06 0.73 0.27 1 0.19 m 1.07 1.21 c 0.3 -0.48 -0.63 -1.36 -0.69 -1.24 c -0.02 0.09 0.01 0.12 0.13 0.1 c 0.08 -0.01 0.75 1.58 0.56 1.14 m -2.11 -1.52 c 0.07 -0.11 0.07 -0.31 -0.02 -0.51 c -0.13 -0.26 -0.25 -0.27 -0.35 -0.02 c -0.05 0.12 -0.13 0.2 -0.2 0.2 c -0.06 0 -0.45 0.26 -0.45 0.31 c 0 0.13 0.65 0.53 1.02 0.02 m 0.5 -0.38 c 0.04 -0.11 -0.16 -0.18 -0.25 -0.1 c -0.04 0.04 -0.05 0.11 -0.02 0.14 c 0.05 0.09 0.23 0.06 0.27 -0.05 m 0.27 -2.04 c 0.09 -0.22 0.07 -0.48 -0.04 -0.51 c -0.08 -0.03 -0.21 0.31 -0.21 0.55 c 0 0.21 0.16 0.19 0.25 -0.04" style="fill:#238ecc"/><path d="m 14 12.32 c -0.22 -0.12 -0.1 -0.22 -0.03 -0.39 c -0.02 -0.05 0 -0.06 0.15 -0.04 c 0.27 0.07 0.47 0.16 0.74 0.09 c 0.13 -0.05 0.21 -0.2 0.19 -0.31 c -0.24 -0.46 -0.75 -0.46 -0.93 -0.95 c -0.1 -0.32 -0.06 -0.7 0.26 -0.86 c 0.23 -0.11 0.47 -0.12 0.84 -0.04 l 0.25 0.06 c -0.01 0.1 -0.01 0.3 -0.02 0.4 l -0.36 -0.03 c -0.44 -0.04 -0.57 -0.02 -0.57 0.18 c 0 0.14 0 0.13 0.54 0.48 c 0.31 0.2 0.36 0.4 0.41 0.59 c 0.13 0.49 -0.09 0.88 -0.63 0.95 c -0.41 0.07 -0.23 0.06 -0.85 -0.13" style="fill:#f00"/><g style="fill:#238ecc"><path d="m 12.52 5.73 c -0.33 -0.11 -0.38 -0.45 -0.06 -0.45 c 0.2 0 0.48 0.23 0.48 0.38 c 0 0.09 -0.02 0.11 -0.14 0.11 c -0.07 0 -0.2 -0.02 -0.29 -0.04"/><path d="m 7.64 6.61 c -0.54 -0.1 -0.35 -0.92 -0.53 -1 c -0.47 -0.22 -0.43 -0.36 0.2 -0.7 c 0.23 -0.13 0.48 -0.56 0.47 -0.79 c 0 -0.09 1.03 -0.28 1.25 -0.14 c 0.83 -0.55 1.46 0.11 0.7 1.22 c -0.28 0.14 -0.07 0.56 -0.57 0.69 c -0.61 0.15 -1.25 0.77 -1.52 0.72"/><path d="m 9.32 18.79 c -0.35 -0.15 1.04 -0.32 0.95 -0.38 c -0.12 -0.38 0.39 0.09 0.85 -0.06 c 0.54 0.18 1.8 0.07 1.9 0.16 c 0.86 -0.01 0.71 0.13 -0.36 0.34 c -0.27 -0.01 -1.68 0.14 -2.11 0.08 c -0.52 -0.07 -1.05 -0.07 -1.22 -0.14"/></g></svg>