<svg xmlns="http://www.w3.org/2000/svg" viewBox="0 0 22 22"><path d="m 19.23 18.7 c 12.47 -19.31 -21.59 -26.79 -18.87 -6.91 c 1.11 8.11 14.1 14.31 18.87 6.91" style="fill:#bfa99a"/><path d="m 10.38 12.68 c 2.18 -0.46 3.45 -0.64 4.43 -2.72 c 0 0 -2.53 -2.35 -3.8 -2.82 c -1.5 -0.5 -3.2 -0.36 -4.48 0.22 c -1.38 0.71 -3 2.21 -2.77 3 c 0.41 1 2.66 1.87 4.05 2.23 c 0.59 0.15 1.99 0.19 2.56 0.07" style="fill:#707f8f"/><path d="m 10.96 14 c 1.85 -0.61 3 -1.31 4.08 -3.52 c 0 0 -2 -1.88 -3.38 -2.38 c -1.64 -0.53 -3.15 -0.68 -4.55 -0.05 c -1.51 0.76 -3.15 2.31 -3 2.68 c 0.44 1.07 2.57 2.82 4.09 3.2 c 0.64 0.16 2.2 0.27 2.8 0.07" style="fill:#fff"/><path d="m 12 10.84 c 0 1.5 -1.22 2.71 -2.73 2.71 c -1.5 0 -2.73 -1.21 -2.73 -2.71 c 0 -1.5 1.22 -2.71 2.73 -2.71 c 1.51 0 2.73 1.21 2.73 2.71" style="fill:#2fa208"/><path d="m 10.29 10.82 c 0 0.56 -0.45 1.02 -1.02 1.02 c -0.56 0 -1.02 -0.46 -1.02 -1.02 c 0 -0.56 0.46 -1.02 1.02 -1.02 c 0.56 0 1.02 0.45 1.02 1.02" style="fill:#121"/><g style="fill:#817f8f"><path d="m 11.28 15.71 l 1.15 -0.82 c 0.02 -0.02 0.05 -0.01 0.07 0.02 l 1.63 3.09 c 0.01 0.02 0 0.06 -0.02 0.07 l -1.16 0.82 c -0.02 0.02 -0.05 0.01 -0.07 -0.02 l -1.63 -3.09 c -0.02 -0.03 0 -0.06 0.02 -0.08"/><path d="m 7.85 16.8 c -4.15 -0.73 -6.57 -5 -4.99 -8.84 c 1.1 -2.65 3.93 -4.32 6.8 -4 c 2.77 0.3 5 2.2 5.74 4.84 c 0.18 0.67 0.25 1.86 0.14 2.57 c -0.48 3.18 -3.32 5.57 -6.6 5.54 c -0.36 0 -0.85 -0.04 -1.09 -0.09 m 2.54 -1.41 c 1.96 -0.56 3.36 -2.02 3.76 -3.92 c 0.12 -0.56 0.12 -1.52 0 -2.09 c -0.41 -1.96 -2.04 -3.54 -4.1 -3.99 c -0.56 -0.12 -1.75 -0.12 -2.29 0.01 c -2.12 0.5 -3.7 2.09 -4.08 4.11 c -0.09 0.5 -0.08 1.47 0.03 1.99 c 0.41 1.91 1.99 3.5 3.93 3.94 c 1.03 0.18 1.77 0.24 2.74 -0.04"/></g><path d="m 13.91 21.87 c -0.5 -1.21 -1.27 -2.3 -1.63 -3.6 c 0.57 -0.46 1.28 -0.89 1.88 -0.89 c 0.82 1.42 1.54 2 2.53 3.81 c -0.07 0.21 -2.46 0.83 -2.77 0.68" style="fill:#5c4080"/></svg>