<svg xmlns="http://www.w3.org/2000/svg" viewBox="0 0 22 22"><path d="m 1.14 15.59 c 6 12.19 23.84 5.4 20.43 -6.97 c -3.21 -11.65 -19.5 -11.32 -21.39 -0.02 c -0.39 2.36 -0.14 4.75 0.96 6.99" style="fill:#5f9d9f"/><g style="fill:#fff"><path d="m 10.45 20.1 c -0.1 -0.38 0.11 -0.77 0.87 -1.62 c 0.43 -0.48 0.53 -0.62 0.52 -0.72 c -0.02 -0.21 -0.23 -0.19 -1.49 0.21 c -0.64 0.2 -1.26 0.38 -1.37 0.39 c -0.42 0.07 -0.57 -0.22 -0.34 -0.66 c 0.43 -0.94 1.15 -1.1 1.61 -2.05 c 0.16 -0.37 0.04 -0.83 -0.28 -1.05 c -0.09 -0.06 -0.63 -0.33 -1.21 -0.61 c -2.16 -1.03 -3.21 -1.66 -3.95 -2.35 c -0.64 -0.6 -0.79 -0.94 -0.67 -1.43 c 0.39 -1.53 2.19 -2.46 5.98 -3.08 c 0.52 -0.08 0.96 -0.18 1 -0.2 c 0.04 -0.04 0.06 -0.21 0.06 -0.59 c 0 -1.02 0.19 -2 0.46 -2.45 c 0.46 -0.72 1.43 -0.66 1.79 0.11 c 0.11 0.24 0.13 0.33 0.12 0.75 c 0 0.55 -0.11 1.21 -0.29 1.75 c -0.15 0.48 -0.11 0.6 0.19 0.54 c 0.72 -0.87 0.72 -1.78 1.58 -2.48 c 0.5 -0.4 1.21 0.04 1.38 0.83 c 0.07 0.33 0.01 0.94 -0.17 1.66 c -0.13 0.52 -0.12 0.66 0.05 1.11 c 0.42 1.06 1.12 1.28 1.96 1.29 c 1.49 0.05 1.91 -0.41 3.36 -0.39 c 1.2 4.51 -0.87 8.13 -3.08 10.1 c -1.16 -0.03 -2.38 -0.29 -3.34 -0.32 c -0.12 0 -0.44 0.12 -0.97 0.36 c -1.72 0.78 -2.88 1.22 -3.3 1.26 c -0.31 0.04 -0.4 -0.11 -0.48 -0.38"/><path d="m 5.43 7.86 c -0.44 -0.44 -1.82 -3.11 -1.73 -3.35 c 0.1 -0.25 0.49 0.09 1.02 0.88 c 0.85 1.29 1.24 2.24 1 2.48 c -0.1 0.1 -0.19 0.09 -0.29 -0.01"/><path d="m 6.43 7.41 c -0.21 -0.23 -0.45 -1.5 -0.48 -2.61 c -0.02 -0.78 -0.02 -0.82 0.07 -0.9 c 0.09 -0.09 0.1 -0.09 0.18 0.03 c 0.18 0.29 0.55 2.27 0.55 2.97 c 0 0.52 -0.13 0.73 -0.32 0.52"/></g></svg>