<svg xmlns="http://www.w3.org/2000/svg" viewBox="0 0 22 22"><path d="m 5.59 2.35 c 11.63 -7.88 22.33 6.67 12.71 15.95 c -9.1 8.74 -22.1 0.64 -17.38 -10.25 c 0.99 -2.27 2.52 -4.26 4.66 -5.7" style="fill:#00f"/><g style="fill:#fff"><path d="m 9.1 15.22 v 1.25 h -1.17 c -0.21 0 -0.38 0.2 -0.38 0.46 c 0 0.25 0.17 0.45 0.38 0.45 h 4.28 c 0.21 0 0.39 -0.2 0.39 -0.45 c 0 -0.25 -0.17 -0.46 -0.39 -0.46 h -1.17 v -1.25"/><path d="m 5.09 7.89 c -0.18 0 -0.33 0.18 -0.33 0.39 v 7 c 0 0.21 0.15 0.39 0.33 0.39 h 9.95 c 0.18 0 0.32 -0.17 0.32 -0.39 v -7 c 0 -0.21 -0.14 -0.39 -0.32 -0.39 m -9.32 1.02 h 8.68 v 5.75 h -8.68"/><path d="m 6.5 9.58 h 1.27 c 0.04 0 0.07 0.03 0.07 0.06 v 1.02 c 0 0.04 -0.03 0.06 -0.07 0.06 h -1.27 c -0.04 0 -0.07 -0.03 -0.07 -0.06 v -1.02 c 0 -0.04 0.03 -0.06 0.07 -0.06"/></g><g style="fill:#f00"><path d="m 10.43 11.71 l 2.87 -3.23 l -2.95 -3.54 h 1.9 l 2.36 2.79 l -3.52 3.98"/><path d="m 16.32 11.79 l -2.34 -2.79 l 3.55 -3.98 h 0.63 l -2.88 3.24 l 2.94 3.54"/></g></svg>