<svg xmlns="http://www.w3.org/2000/svg" viewBox="0 0 22 22"><path d="m 0.3 13.45 c 1.54 8.88 13.7 11.26 18.93 4.91 c 4.62 -4.71 3.28 -13.72 -2.57 -16.82 c -6.71 -4.13 -16.29 0.98 -16.65 9.21 c -0.04 0.9 0.05 1.81 0.29 2.69" style="fill:#ffc0ca"/><g style="fill:#eb69a9"><path d="m 3.32 13.6 c -0.21 -0.62 -0.38 -1.44 -0.35 -1.68 c 0.29 -0.51 0.89 -0.32 1.37 -0.46 c 0.06 0.65 0.43 1.64 0.86 1.94 c 0.18 0.16 0.32 0.21 0.38 0.35 c 0.23 0.44 0.47 0.78 0.75 1.2 c -0.48 0.39 -0.91 0.86 -1.44 1.18 c -0.7 -0.29 -1.34 -1.87 -1.56 -2.53"/><path d="m 3.82 10.61 c -0.79 -0.07 -0.86 -0.11 -0.86 -0.46 c 0 -0.31 0.24 -1.28 0.45 -1.81 c 0.34 -0.89 1.12 -2.19 1.37 -2.29 c 0.09 -0.04 0.99 0.63 1.33 0.99 c 0.27 0.22 0.11 0.31 -0.05 0.58 c -0.34 0.55 -0.86 1.67 -0.86 1.84 c -0.5 0.54 -0.51 0.7 -0.76 1.21 c -0.02 0 -0.29 -0.03 -0.61 -0.06"/><path d="m 5.95 4.89 l 0.14 -0.14 c 0.6 -0.58 2.16 -1.32 3.26 -1.54 c 1.09 -0.21 2.83 -0.18 3.8 0.07 c 1.03 0.27 2.24 0.86 2.82 1.38 l 0.3 0.27 c -0.42 0.43 -0.72 1.11 -1.23 1.41 c -0.03 0.01 -0.25 -0.11 -0.5 -0.28 c -0.57 -0.37 -1.13 -0.63 -1.77 -0.81 c -1.18 -0.18 -2.3 -0.3 -3.4 0.04 c -0.59 0.18 -1.25 0.49 -1.81 0.85 c -0.18 0.12 -0.36 0.21 -0.38 0.21 c -0.46 -0.45 -0.91 -0.95 -1.23 -1.45"/><path d="m 16.96 9.35 c -0.26 -0.85 -0.61 -1.41 -1.05 -2.12 l 0.25 -0.25 c 0.37 -0.39 1.05 -0.88 1.21 -0.88 c 0.31 0 1.16 1.45 1.53 2.61 c 0.2 0.64 0.36 1.52 0.29 1.69 c -0.05 0.13 -0.18 0.16 -0.89 0.21 l -0.58 0.05 c -0.15 -0.46 -0.73 -1 -0.76 -1.3"/><path d="m 17.22 16.1 c -0.2 -0.11 -1.29 -1.06 -1.29 -1.12 c 0.13 -0.46 0.63 -0.91 0.93 -1.46 c 0.46 -0.38 0.94 -1.08 0.98 -1.93 c 0 -0.15 0.02 -0.2 0.05 -0.14 c 0.4 0.23 0.85 0.05 1.27 0.29 c 0.18 0.18 -0.17 1.7 -0.61 2.66 c -0.28 0.61 -0.75 1.34 -1 1.59 c -0.16 0.14 -0.2 0.16 -0.32 0.09"/><path d="m 10.21 19.1 c -1.05 -0.11 -2.41 -0.55 -3.31 -1.08 c -0.44 -0.26 -0.96 -0.67 -0.96 -0.77 c 0 -0.09 0.95 -1.2 1.12 -1.31 c 0.13 -0.09 0.17 -0.08 0.58 0.17 c 0.63 0.39 1.25 0.66 1.9 0.83 c 1.11 0.18 2.11 0.28 3.14 0 c 0.65 -0.18 1.36 -0.5 1.89 -0.84 c 0.35 -0.23 0.41 -0.25 0.52 -0.17 c 0.19 0.13 0.96 1 1.06 1.2 c 0.08 0.16 0.07 0.18 -0.08 0.33 c -0.43 0.4 -1.61 1.03 -2.42 1.29 c -1.2 0.19 -2.38 0.44 -3.43 0.36"/></g><path d="m 6.11 13.6 c -0.51 -0.22 -0.91 -0.58 -1.15 -1.04 c -0.61 -1.15 -0.28 -2.37 0.83 -3.09 c 0.66 -0.42 1.71 -0.36 2.27 -0.09 c 0.47 0.23 0.87 0.63 1.07 1.07 c 0.23 0.5 0.27 1.3 0.08 1.8 c -0.17 0.45 -0.43 0.8 -0.79 1.06 c -0.75 0.47 -1.66 0.57 -2.31 0.29 m 1.63 -1.03 c 0.37 -0.26 0.55 -0.62 0.54 -1.13 c 0 -0.91 -0.58 -1.44 -1.45 -1.34 c -0.98 0.12 -1.4 1.29 -0.79 2.2 c 0.35 0.51 1.16 0.64 1.7 0.26 m 6.95 1.14 c -0.39 -0.07 -0.99 -0.39 -1.26 -0.69 c -0.12 -0.13 -0.3 -0.4 -0.38 -0.59 c -0.23 -0.66 -0.27 -1.41 0.01 -1.98 c 0.22 -0.45 0.63 -0.85 1.08 -1.07 c 0.73 -0.25 1.59 -0.32 2.18 0.03 c 0.47 0.29 0.65 0.47 0.92 0.93 c 0.68 1.16 0.13 2.73 -1.14 3.25 c -0.47 0.2 -0.8 0.23 -1.4 0.13 m 1.17 -1.12 c 0.36 -0.24 0.54 -0.63 0.54 -1.22 c 0 -0.43 -0.02 -0.5 -0.19 -0.73 c -0.48 -0.57 -1.26 -0.68 -1.76 -0.33 c -0.32 0.23 -0.5 0.56 -0.54 1 c -0.04 0.46 0.09 0.86 0.37 1.13 c 0.49 0.39 1.1 0.47 1.58 0.16 m -6 -1.83 c 0 -0.07 0.78 -1.27 0.95 -1.45 c 0.08 -0.09 0.2 -0.14 0.32 -0.14 c 0.12 0 0.24 0.05 0.32 0.14 c 0.16 0.18 0.95 1.39 0.95 1.45 c 0 0.08 -0.17 0.13 -0.43 0.13 c -0.25 0 -0.41 -0.14 -0.66 -0.55 c -0.14 -0.23 -0.21 -0.23 -0.35 0 c -0.26 0.43 -0.41 0.55 -0.68 0.55 c -0.16 0 -0.32 0.01 -0.41 -0.12" style="fill:#080808"/></svg>