<svg xmlns="http://www.w3.org/2000/svg" viewBox="0 0 22 22"><path d="m 0.25 13.51 c 1.36 8.88 13.48 11.26 18.83 4.92 c 4.71 -4.71 3.54 -13.73 -2.25 -16.82 c -6.63 -4.13 -16.3 0.98 -16.82 9.21 c -0.05 0.9 0.02 1.81 0.24 2.69" style="fill:#2095f3"/><path d="m 10.12 18.32 c -1.57 -0.25 -2.81 -0.88 -3.98 -2.04 c -1.86 -1.85 -2.5 -4.7 -1.63 -7.21 c 1.7 -4.87 7.94 -6.29 11.56 -2.61 c 1.38 1.4 2.03 3 2.02 5 c -0.02 4.18 -3.88 7.49 -7.98 6.86 m 1.28 -2.95 c 0.17 -0.43 -0.17 -0.54 -1.7 -0.54 c -2.18 0 -2.04 0.24 -2.08 -3.36 l -0.04 -2.9 c 0.24 -0.45 0.31 -0.45 0.73 -0.73 l 2.9 0.04 c 3.59 0.04 3.36 -0.1 3.36 2.08 c 0 1.54 0.11 1.87 0.55 1.7 c 0.16 -0.06 0.19 -0.31 0.15 -1.81 c -0.04 -1.66 -0.05 -1.75 -0.34 -2.06 c -0.56 -0.61 -0.84 -0.66 -3.81 -0.65 c -2.45 0 -2.79 0.03 -3.25 0.23 c -0.41 0.19 -0.57 0.35 -0.76 0.79 c -0.22 0.51 -0.24 0.75 -0.2 3.41 c 0.04 3.16 0.07 3.27 0.86 3.75 c 0.33 0.2 0.61 0.23 1.98 0.23 c 1.31 0 1.61 -0.03 1.66 -0.18 m 3.16 -0.59 c 0.52 -0.52 0.74 -0.84 0.69 -0.96 c -0.1 -0.26 -0.48 -0.24 -0.74 0.05 c -0.12 0.13 -0.27 0.24 -0.32 0.24 c -0.05 0 -0.1 -0.45 -0.1 -1 c 0 -1.07 -0.17 -1.51 -0.52 -1.37 c -0.16 0.06 -0.2 0.27 -0.2 1.16 c 0 1.18 -0.11 1.38 -0.53 0.98 c -0.32 -0.3 -0.62 -0.32 -0.73 -0.05 c -0.05 0.14 0.14 0.42 0.68 0.96 c 0.41 0.42 0.81 0.76 0.88 0.76 c 0.07 0 0.47 -0.35 0.89 -0.77 m -3 -2.12 c 1.25 -0.7 1.51 -1.18 0.99 -1.85 c -0.28 -0.36 -1.86 -1.27 -2.2 -1.28 c -0.12 0 -0.38 0.16 -0.57 0.35 c -0.34 0.34 -0.35 0.39 -0.35 1.51 c 0 1.07 0.02 1.18 0.3 1.45 c 0.41 0.41 0.82 0.37 1.83 -0.19 m -1.33 -0.32 c -0.04 -0.04 -0.08 -0.5 -0.08 -1 c 0 -0.67 0.04 -0.95 0.16 -0.99 c 0.16 -0.06 1.57 0.67 1.71 0.89 c 0.11 0.18 -0.14 0.43 -0.84 0.83 c -0.65 0.38 -0.81 0.42 -0.95 0.28" style="fill:#fff"/></svg>