<svg xmlns="http://www.w3.org/2000/svg" viewBox="0 0 16 16"><defs><linearGradient id="0" gradientUnits="userSpaceOnUse" x1="27.2" y1="13.24" x2="48.73" y2="36" gradientTransform="matrix(0.175 0 0 0.171 1.72 4.92)"><stop style="stop-color:#f3d769"/><stop offset="1" style="stop-color:#3d9ade"/></linearGradient></defs><path d="m 15.3 5.47 c 3.11 7.96 -5.6 12.1 -11 10 c -3.78 -1.42 -5.66 -7.1 -2.98 -11.63 c 3.39 -5.76 11.6 -4.53 13.99 1.61" style="fill:#d53d3d"/><path d="m 4.77 3.95 h 6.37 c 0.35 0 0.64 0.27 0.64 0.61 v 7.34 c 0 0.34 -0.29 0.61 -0.64 0.61 h -6.37 c -0.35 0 -0.64 -0.27 -0.64 -0.61 v -7.34 c 0 -0.34 0.29 -0.61 0.64 -0.61" style="fill:#fff"/><g style="fill:#7f7f7f"><path d="m 6.8 6.55 c 0 0.08 0.07 0.14 0.15 0.14 h 3.49 c 0.08 0 0.14 -0.06 0.14 -0.14 c 0 -0.08 -0.06 -0.14 -0.14 -0.14 h -3.49 c -0.08 0 -0.15 0.06 -0.15 0.14"/><path d="m 5.48 7.53 h 2.91 c 0.08 0 0.15 -0.06 0.15 -0.14 c 0 -0.08 -0.07 -0.14 -0.15 -0.14 h -2.91 c -0.08 0 -0.15 0.06 -0.15 0.14 c 0 0.08 0.07 0.14 0.15 0.14"/><path d="m 10.43 8.1 h -2.62 c -0.08 0 -0.14 0.06 -0.14 0.14 c 0 0.08 0.06 0.14 0.14 0.14 h 2.62 c 0.08 0 0.14 -0.06 0.14 -0.14 c 0 -0.07 -0.07 -0.14 -0.14 -0.14"/><path d="m 5.48 9.2 h 3.49 c 0.08 0 0.14 -0.06 0.14 -0.14 c 0 -0.08 -0.07 -0.14 -0.14 -0.14 h -3.49 c -0.08 0 -0.15 0.06 -0.15 0.14 c 0 0.08 0.07 0.14 0.15 0.14"/><path d="m 5.48 6.69 h 0.87 c 0.08 0 0.14 -0.06 0.14 -0.14 c 0 -0.08 -0.07 -0.14 -0.14 -0.14 h -0.87 c -0.08 0 -0.15 0.06 -0.15 0.14 c 0 0.08 0.07 0.14 0.15 0.14"/><path d="m 10.43 7.25 h -1.46 c -0.08 0 -0.14 0.06 -0.14 0.14 c 0 0.08 0.06 0.14 0.14 0.14 h 1.46 c 0.08 0 0.14 -0.06 0.14 -0.14 c 0 -0.08 -0.07 -0.14 -0.14 -0.14"/><path d="m 5.48 8.36 h 1.75 c 0.08 0 0.15 -0.06 0.15 -0.14 c 0 -0.08 -0.07 -0.14 -0.15 -0.14 h -1.75 c -0.08 0 -0.15 0.06 -0.15 0.14 c 0 0.08 0.07 0.14 0.15 0.14"/><path d="m 10.43 8.93 h -0.87 c -0.08 0 -0.15 0.06 -0.15 0.14 c 0 0.08 0.07 0.14 0.15 0.14 h 0.87 c 0.08 0 0.14 -0.06 0.14 -0.14 c 0 -0.07 -0.07 -0.14 -0.14 -0.14"/><path d="m 9.27 10.6 h -1.46 c -0.08 0 -0.14 0.06 -0.14 0.14 c 0 0.08 0.06 0.14 0.14 0.14 h 1.46 c 0.08 0 0.14 -0.06 0.14 -0.14 c 0 -0.07 -0.07 -0.14 -0.14 -0.14"/><path d="m 5.48 10.88 h 1.75 c 0.08 0 0.15 -0.06 0.15 -0.14 c 0 -0.07 -0.07 -0.14 -0.15 -0.14 h -1.75 c -0.08 0 -0.15 0.06 -0.15 0.14 c 0 0.08 0.07 0.14 0.15 0.14"/><path d="m 5.48 10 h 1.16 c 0.08 0 0.14 -0.06 0.14 -0.14 c 0 -0.08 -0.07 -0.14 -0.14 -0.14 h -1.16 c -0.08 0 -0.15 0.06 -0.15 0.14 c 0 0.08 0.07 0.14 0.15 0.14"/><path d="m 5.48 5.86 h 1.75 c 0.08 0 0.15 -0.06 0.15 -0.14 c 0 -0.08 -0.07 -0.14 -0.15 -0.14 h -1.75 c -0.08 0 -0.15 0.06 -0.15 0.14 c 0 0.08 0.07 0.14 0.15 0.14"/><path d="m 8.84 9.9 c 0 -0.07 -0.07 -0.14 -0.15 -0.14 h -1.45 c -0.08 0 -0.15 0.06 -0.15 0.14 c 0 0.08 0.07 0.14 0.15 0.14 h 1.45 c 0.08 0 0.15 -0.06 0.15 -0.14"/><path d="m 10.43 9.76 h -1.16 c -0.08 0 -0.15 0.06 -0.15 0.14 c 0 0.08 0.07 0.14 0.15 0.14 h 1.16 c 0.08 0 0.14 -0.06 0.14 -0.14 c 0 -0.07 -0.07 -0.14 -0.14 -0.14"/><path d="m 10.43 10.6 h -0.59 c -0.08 0 -0.14 0.06 -0.14 0.14 c 0 0.08 0.07 0.14 0.14 0.14 h 0.59 c 0.08 0 0.14 -0.06 0.14 -0.14 c 0 -0.07 -0.07 -0.14 -0.14 -0.14"/></g><path d="m 6.4 10.29 v 0.91 h 0.94 l 2.36 -2.31 l -0.94 -0.91 m 1.77 0.11 c 0.1 -0.1 0.1 -0.25 0 -0.34 l -0.59 -0.57 c -0.1 -0.1 -0.25 -0.1 -0.36 0 l -0.49 0.48 l 0.94 0.91" style="fill:url(#0)"/><path d="m 6.4 11.21 v -0.91 l 0.94 0.91" style="fill:#f6ecc1"/><path d="m 6.4 11.21 v -0.38 l 0.38 0.38" style="fill:#3b3b3b"/><path d="m 9.1 7.64 l 0.94 0.91 l -0.34 0.33 l -0.94 -0.91" style="fill:#efefef"/><path d="m 10.51 8.09 c 0.1 -0.1 0.1 -0.25 0 -0.35 l -0.59 -0.57 c -0.1 -0.1 -0.25 -0.1 -0.35 0 l -0.49 0.48 l 0.94 0.91" style="fill:#a00"/></svg>