<svg xmlns="http://www.w3.org/2000/svg" viewBox="0 0 16 16"><path d="m 8.23 0.14 c -1.64 0.12 -3.55 0.91 -4.88 2 c -1.62 1.32 -2.81 3.35 -3.13 5.35 c -0.38 2.64 1.15 5.48 2.88 6.83 c 0.87 0.66 2 1.18 3.09 1.41 c 2.8 0.6 5.73 -0.53 7.73 -2.98 c 1.2 -1.46 1.82 -2.94 1.97 -4.69 c 0.18 -2.1 -0.64 -4.34 -2.15 -5.86 c -1.71 -1.43 -3.48 -2.2 -5.52 -2.05" style="fill:#2f4e4e"/><path d="m 9.93 7.86 c -0.98 0.55 -1.44 0.95 -2.3 1.23 c 0.19 -0.55 0.37 -1.12 0.59 -1.66 c 0.29 -0.7 0.21 -1.07 -0.43 -2.04 c -0.27 -0.41 -0.5 -0.76 -0.5 -0.77 c 0.64 -0.01 1.26 0.02 1.95 0.04 c 0.57 -0.53 0.86 -0.96 1.45 -1.46 c 0.18 0.64 0.23 1.16 0.35 1.87 c 0.56 0.18 1.13 0.35 1.69 0.52 c 0.2 0.06 0.35 0.13 0.35 0.16 c -0.58 0.5 -1.07 0.81 -1.73 1.28 c 0.11 0.36 0.96 2.28 0.77 2.39 c -0.66 -0.48 -1.56 -1.13 -2.18 -1.57" style="fill:#f9de28"/><g style="fill:#ff8c00"><path d="m 5.32 9 c -0.02 -0.05 0 -0.32 -0.06 -0.65 c -0.05 -0.33 -0.1 -0.71 -0.12 -0.75 c -0.09 -0.23 -0.45 -0.15 -0.63 -0.18 v -0.1 c 0.01 -0.15 0.57 -1.71 0.77 -2.15 c 0.06 -0.13 0.1 -0.18 0.14 -0.18 c 0.13 -0.02 1.02 0.27 1.2 0.39 c 0.05 0.04 0.06 0.06 0.05 0.33 c -0.01 0.55 -0.23 2.53 -0.35 3.16 c -0.02 0.17 -0.04 0.35 -0.23 0.35 c -0.22 -0.04 -0.71 -0.01 -0.79 -0.21"/><path d="m 4.66 12.55 c -0.11 -0.05 -0.28 -0.23 -0.32 -0.34 c -0.05 -0.1 -0.05 -0.21 -0.02 -0.28 c 0.03 -0.06 0.11 -0.05 0.27 0.02 c 0.09 0.05 0.12 0.06 0.21 0.01 c 0.13 -0.09 0.18 -0.21 0.12 -0.32 c -0.01 -0.03 -0.08 -0.12 -0.15 -0.2 c -0.29 -0.33 -0.38 -0.52 -0.33 -0.69 c 0.03 -0.13 0.11 -0.21 0.25 -0.28 c 0.23 -0.11 0.36 -0.1 0.52 0.04 c 0.07 0.07 0.07 0.13 0 0.21 c -0.05 0.06 -0.06 0.06 -0.18 0.06 c -0.23 -0.01 -0.35 0.11 -0.27 0.27 c 0.02 0.04 0.12 0.16 0.23 0.28 c 0.21 0.23 0.25 0.32 0.27 0.57 c 0.03 0.28 -0.09 0.56 -0.26 0.66 c -0.11 0.03 -0.23 0.05 -0.32 0"/><path d="m 5.8 12.97 c -0.1 -0.07 -0.21 -0.17 -0.27 -0.27 c -0.05 -0.07 -0.05 -0.19 0.01 -0.31 c 0.06 -0.13 0.13 -0.16 0.2 -0.11 c 0.15 0.1 0.36 0.05 0.43 -0.09 c 0.03 -0.07 0.04 -0.1 0.01 -0.18 c -0.04 -0.14 -0.1 -0.23 -0.32 -0.48 c -0.15 -0.17 -0.19 -0.23 -0.21 -0.32 c -0.09 -0.37 0.24 -0.77 0.6 -0.73 c 0.1 0.01 0.13 0.02 0.19 0.09 c 0.08 0.11 0.06 0.19 0.01 0.31 c -0.02 0.02 -0.1 0.04 -0.19 0.05 c -0.18 0.02 -0.2 0.04 -0.25 0.14 c -0.05 0.11 -0.03 0.17 0.11 0.32 c 0.3 0.34 0.36 0.44 0.39 0.68 c 0.03 0.19 0 0.52 -0.05 0.64 c -0.02 0.04 -0.08 0.12 -0.14 0.17 c -0.18 0.17 -0.33 0.2 -0.5 0.09"/><path d="m 6.83 13.1 c -0.03 -0.02 -0.03 -0.16 -0.02 -0.93 c 0.02 -1.14 0.04 -1.55 0.1 -1.6 c 0.06 -0.06 0.16 -0.06 0.21 0 c 0.03 0.03 0.04 0.11 0.04 0.55 c 0 0.5 -0.05 1.65 -0.08 1.84 c -0.02 0.13 -0.15 0.2 -0.25 0.13"/><path d="m 7.75 13.29 c -0.14 -0.07 -0.3 -0.27 -0.3 -0.38 c 0 -0.07 0.09 -0.3 0.15 -0.36 c 0.17 -0.07 0.43 0.01 0.52 -0.18 c 0.05 -0.1 0.05 -0.25 0.01 -0.34 c -0.02 -0.04 -0.12 -0.14 -0.22 -0.22 c -0.25 -0.21 -0.34 -0.37 -0.34 -0.62 c 0 -0.21 0.05 -0.34 0.19 -0.5 c 0.2 -0.22 0.41 -0.25 0.58 -0.09 c 0.11 0.1 0.1 0.24 -0.01 0.34 c -0.13 0.08 -0.33 0.03 -0.39 0.17 c -0.07 0.16 -0.02 0.29 0.17 0.45 c 0.28 0.25 0.4 0.5 0.4 0.84 c 0 0.27 -0.09 0.48 -0.27 0.68 c -0.18 0.2 -0.35 0.26 -0.5 0.18"/><path d="m 9.32 13.1 c -0.21 -0.09 -0.25 -0.24 -0.27 -1.21 c -0.01 -0.39 -0.02 -0.65 -0.04 -0.67 c -0.01 -0.02 -0.13 -0.03 -0.16 -0.04 c -0.09 -0.03 -0.14 -0.07 -0.17 -0.22 c -0.02 -0.12 0.05 -0.18 0.09 -0.23 c 0.02 -0.03 0.1 -0.08 0.17 -0.12 c 0.15 -0.07 0.51 -0.19 0.64 -0.2 c 0.08 -0.01 0.16 -0.07 0.18 -0.02 c 0.03 0.07 0.16 0.25 0 0.43 c -0.08 0.11 -0.18 0.2 -0.22 0.32 c -0.01 0.05 -0.03 0.48 -0.04 0.96 c -0.01 0.55 -0.02 0.9 -0.04 0.93 c -0.03 0.06 -0.09 0.1 -0.13 0.08"/><path d="m 10 12.96 c -0.13 -0.1 -0.13 -0.19 0.01 -1.13 c 0.13 -0.93 0.21 -1.31 0.28 -1.38 c 0.04 -0.05 0.11 -0.02 0.15 0.08 c 0.07 0.15 0.61 1.8 0.61 1.89 c 0 0.03 -0.11 0.18 -0.19 0.26 c -0.05 0.06 -0.09 0.04 -0.18 -0.11 c -0.05 -0.08 -0.11 -0.15 -0.12 -0.15 c -0.25 0.02 -0.24 0.21 -0.33 0.41 c -0.09 0.2 -0.11 0.22 -0.23 0.13 m 0.51 -0.87 l 0.08 -0.04 l -0.02 -0.18 c -0.03 -0.4 -0.14 -0.74 -0.23 -0.66 c -0.04 0.04 -0.09 0.44 -0.09 0.7 v 0.22 c 0.09 0 0.18 -0.01 0.26 -0.04"/><path d="m 11.34 12.5 c -0.02 -0.04 -0.04 -0.22 -0.05 -0.39 c -0.03 -0.39 -0.06 -1.54 -0.04 -1.59 c 0.02 -0.05 0.07 -0.03 0.36 0.22 c 0.35 0.3 0.41 0.28 0.34 -0.07 c -0.07 -0.38 -0.07 -0.43 -0.01 -0.45 c 0.08 -0.02 0.2 0.03 0.24 0.11 c 0.02 0.04 0.05 0.14 0.07 0.24 c 0.03 0.19 0.16 1.27 0.13 1.3 c -0.03 0.03 -0.21 -0.08 -0.33 -0.23 c -0.26 -0.32 -0.34 -0.39 -0.39 -0.39 c -0.05 0.01 -0.05 0.02 -0.05 0.17 c 0.01 0.3 0.13 0.55 0.14 0.86 c -0.02 0.07 -0.28 0.3 -0.34 0.3 c -0.03 0 -0.06 -0.03 -0.07 -0.08"/><path d="m 12.88 11.59 c -0.02 -0.04 -0.05 -0.19 -0.06 -0.44 c -0.02 -0.21 -0.04 -0.43 -0.06 -0.5 c -0.04 -0.12 0.02 -0.14 -0.13 -0.12 c -0.12 0.02 -0.14 0.03 -0.15 0 c -0.02 -0.04 -0.12 -0.08 0.12 -0.26 c 0.14 -0.1 0.77 -0.46 0.88 -0.41 c 0.05 0.02 -0.11 0.22 -0.14 0.25 c -0.08 0.05 -0.13 0.27 -0.19 0.9 c -0.04 0.38 -0.07 0.51 -0.13 0.58 c -0.07 0.07 -0.08 0.07 -0.13 0"/><path d="m 3.91 11.9 c -0.11 -0.18 -0.13 -0.36 -0.22 -0.55 c -0.03 -0.06 -0.05 -0.08 -0.01 -0.18 c 0.04 -0.1 0.04 -0.12 0 -0.3 c -0.06 -0.27 -0.13 -0.4 -0.2 -0.4 c -0.09 0 -0.14 0.1 -0.14 0.31 c 0 0.16 0.01 0.21 0.07 0.32 l 0.4 0.03 v 0.32 c 0 0.05 -0.47 -0.02 -0.47 -0.01 c 0 0.05 -0.09 0.11 -0.16 0.11 c -0.04 0 -0.09 -0.02 -0.13 -0.05 c -0.06 -0.04 -0.07 -0.07 -0.06 -0.2 c 0 -0.16 0.13 -0.7 0.23 -0.97 c 0.06 -0.16 0.11 -0.2 0.25 -0.2 c 0.14 0 0.21 0.07 0.28 0.27 c 0.13 0.41 0.35 1.48 0.31 1.54 c -0.03 0.04 -0.09 0.03 -0.14 -0.04"/><path d="m 2.56 8.53 c 0 -0.02 0 -0.11 0 -0.2 c -0.01 -0.28 -0.05 -0.24 -0.26 -0.2 c -0.07 -0.57 -0.25 -0.45 0.27 -0.59 c 0 -0.13 0 -0.24 0 -0.38 c -0.11 0 -0.2 0.02 -0.32 0.04 c -0.03 -0.17 -0.05 -0.35 -0.08 -0.52 c 0.13 -0.02 0.27 -0.05 0.41 -0.07 c 0 -0.15 0 -0.3 0 -0.45 c 0.16 -0.02 0.31 -0.05 0.47 -0.07 c 0 0.15 -0.01 0.28 0 0.44 c 0.16 0 0.25 -0.03 0.44 -0.06 c 0 -0.15 0 -0.3 0 -0.45 c 0.16 -0.03 0.32 -0.05 0.47 -0.08 c 0 0.15 0 0.3 0 0.45 c 0.09 0 0.16 -0.02 0.25 -0.03 c 0.03 0.17 0.05 0.35 0.09 0.52 c -0.12 0.02 -0.23 0.04 -0.35 0.06 c 0 0.13 0 0.28 -0.01 0.39 c 0.11 -0.02 0.21 -0.04 0.31 -0.05 c 0.03 0.18 0.06 0.35 0.09 0.52 c -0.13 0.02 -0.26 0.05 -0.39 0.07 v 0.05 c 0 0.15 0 0.27 -0.01 0.42 c -0.16 0.03 -0.31 0.05 -0.47 0.08 c 0 -0.16 0.01 -0.31 0 -0.46 c -0.01 -0.02 -0.42 0.05 -0.43 0.07 c -0.01 0.01 -0.02 0.44 -0.01 0.46 c -0.15 0.03 -0.33 0.07 -0.46 0.05 m 0.92 -1.29 c 0 -0.09 0 -0.18 0 -0.26 c -0.16 0.02 -0.31 0.05 -0.46 0.07 c -0.01 0.14 0 0.29 -0.01 0.41 c 0.16 0.02 0.25 -0.02 0.46 -0.06 c 0 -0.05 0 -0.11 0 -0.16"/></g></svg>