<svg xmlns="http://www.w3.org/2000/svg" viewBox="0 0 16 16"><path d="m 2.03 11.88 c -5.66 -6.45 2.72 -13.27 7.63 -11.6 c 4.91 1.68 8.21 6.41 5 10.57 c -3.21 4.15 -6.36 8.16 -12 1.71" style="fill:#ffd600"/><g style="fill:#0ab1dd"><path d="m 4.57 5.54 c 0 -0.08 0.23 -0.46 0.46 -0.76 c 0.5 -0.64 1.23 -1.14 2 -1.4 c 0.75 -0.15 1.41 -0.25 2.07 -0.07 c 0.85 0.23 1.51 0.62 2.07 1.22 c 0.22 0.24 0.5 0.63 0.5 0.7 c -0.25 0.16 -0.4 0.14 -0.73 0.2 l -0.33 -0.32 c -0.55 -0.54 -0.87 -0.75 -1.45 -0.95 c -0.53 -0.18 -1.58 -0.13 -1.96 0 c -0.77 0.29 -1.23 0.75 -1.79 1.29 l -0.42 0.08 c -0.23 0.05 -0.43 0.08 -0.44 0.08 c -0.01 0 -0.02 -0.03 -0.02 -0.06"/><path d="m 6.47 11.94 c -0.56 -0.66 -1.42 -1.88 -1.64 -2.31 l -0.05 -0.11 c 0.21 -0.08 0.41 -0.11 0.63 -0.15 l 0.34 0.35 c 0.49 0.52 0.93 0.82 1.49 1 c 0.7 0.22 1.42 0.18 2.03 -0.02 c 0.48 -0.16 0.84 -0.39 1.26 -0.82 c 0.41 -0.41 0.61 -0.74 0.82 -1.29 c 0.05 -0.14 0.11 -0.27 0.13 -0.29 c 0.05 -0.06 0.52 -0.15 0.69 -0.13 c 0.05 0 0.04 0.09 -0.05 0.34 c -0.36 1.03 -1.3 2.45 -2.67 4 c -0.51 0.59 -1.17 1.27 -1.23 1.27 c -0.64 -0.54 -1.19 -1.21 -1.74 -1.86"/></g><path d="m 2.24 8.54 v -1.34 l 0.26 -0.05 c 0.14 -0.02 0.42 -0.08 0.61 -0.13 l 0.35 -0.08 l 0.06 -0.47 c 0.05 -0.4 0.08 -0.48 0.21 -0.51 c 0.91 -0.23 4.3 -0.79 4.45 -0.73 c 0.07 0.02 0.11 0.12 0.11 0.24 c 0 0.39 0.07 0.52 0.29 0.52 c 0.24 0 2.09 -0.31 3.95 -0.67 c 0.7 -0.13 1.3 -0.23 1.34 -0.21 c 0.09 0.05 0.07 2.63 -0.01 2.68 c -0.09 0.05 -11.23 2.08 -11.46 2.08 h -0.16" style="fill:#e33744"/><g style="fill:#fff"><path d="m 2.77 9 c -0.11 -0.33 0.31 -0.56 0.45 -0.65 c 0.26 -0.15 0.17 -0.25 -0.17 -0.18 c -0.18 0.04 -0.21 0.02 -0.21 -0.11 c 0 -0.05 0.02 -0.1 0.05 -0.13 c 0.09 -0.07 0.33 -0.12 0.54 -0.12 c 0.34 0 0.38 0.05 0.41 0.55 c 0.02 0.26 0.02 0.27 0.11 0.36 c 0.07 0.07 0.09 0.1 0.07 0.15 c -0.02 0.1 -0.19 0.16 -0.45 0.17 c -0.12 0 -0.25 0.02 -0.3 0.05 c -0.2 0.07 -0.43 0.08 -0.5 -0.1 m 0.58 -0.22 c 0.11 -0.11 0.04 -0.21 -0.12 -0.16 c -0.23 0.13 -0.02 0.3 0.12 0.16"/><path d="m 4.32 8.54 c -0.01 -0.23 -0.03 -0.44 -0.05 -0.47 c -0.06 -0.08 -0.2 -0.13 -0.18 -0.21 c 0.01 -0.04 0.04 -0.09 0.05 -0.11 c 0.02 -0.02 0.18 -0.06 0.35 -0.09 c 0.17 -0.03 0.38 -0.07 0.45 -0.09 c 0.23 -0.08 0.32 -0.05 0.42 0.1 c 0.04 0.06 0.05 0.14 0.06 0.46 c 0.01 0.42 0 0.55 -0.07 0.62 c -0.04 0.05 -0.26 0.06 -0.29 0.02 c -0.01 -0.01 -0.02 -0.15 -0.03 -0.3 c -0.03 -0.46 -0.04 -0.51 -0.11 -0.54 c -0.05 -0.02 -0.07 -0.02 -0.13 0.02 c -0.09 0.05 -0.12 0.18 -0.15 0.55 c -0.01 0.17 -0.03 0.33 -0.04 0.36 c -0.02 0.05 -0.14 0.11 -0.24 0.11 c -0.06 0 -0.06 -0.01 -0.07 -0.41"/><path d="m 5.91 8.59 c -0.13 -0.19 -0.12 -0.38 -0.12 -0.64 c 0 -0.16 -0.04 -0.25 -0.11 -0.25 c -0.02 0 -0.04 -0.03 -0.05 -0.07 c -0.03 -0.08 -0.09 -0.18 0.08 -0.25 c 0.04 -0.02 0.06 -0.1 0.08 -0.18 c 0.02 -0.14 0.11 -0.24 0.22 -0.27 c 0.09 -0.02 0.14 0.02 0.16 0.16 c 0.02 0.16 0.05 0.21 0.13 0.21 c 0.14 0 0.18 0.18 0.06 0.26 c -0.18 0.13 -0.18 0.13 -0.16 0.39 c 0 0.16 0.01 0.29 0.14 0.36 c 0.08 0.05 0.1 0.07 0.1 0.14 c -0.04 0.14 -0.18 0.17 -0.32 0.19 c -0.09 0.01 -0.16 0 -0.21 -0.04"/><path d="m 6.9 8.45 c -0.02 -0.01 -0.07 -0.05 -0.11 -0.09 c -0.31 -0.29 -0.19 -0.94 0.21 -1.15 c 0.2 -0.1 0.36 -0.11 0.51 -0.04 c 0.16 0.08 0.21 0.2 0.21 0.43 c 0.03 0.21 -0.04 0.19 -0.23 0.23 c -0.27 0.05 -0.46 0.13 -0.46 0.18 c 0 0.02 0.02 0.06 0.05 0.09 c 0.04 0.04 0.07 0.05 0.22 0.03 c 0.3 -0.04 0.38 -0.04 0.38 0.03 c 0.02 0.1 -0.09 0.19 -0.25 0.24 c -0.18 0.05 -0.47 0.08 -0.54 0.05 m 0.4 -0.87 c 0.07 -0.05 0.06 -0.05 0 -0.11 c -0.07 -0.06 -0.14 -0.05 -0.23 0.03 c -0.12 0.12 -0.04 0.25 0.23 0.08"/><path d="m 8.09 8 c 0 -0.12 -0.01 -0.31 -0.02 -0.42 c -0.02 -0.18 -0.03 -0.21 -0.11 -0.27 c -0.09 -0.08 -0.11 -0.16 -0.05 -0.23 c 0.04 -0.04 0.18 -0.08 0.43 -0.11 c 0.18 -0.04 0.37 -0.12 0.53 -0.12 c 0.15 0 0.18 0.01 0.23 0.07 c 0.08 0.09 0.09 0.17 0.09 0.62 c 0 0.47 -0.03 0.55 -0.19 0.55 c -0.14 0 -0.16 -0.04 -0.19 -0.42 c -0.04 -0.43 -0.05 -0.48 -0.15 -0.46 c -0.11 0.02 -0.18 0.19 -0.23 0.58 c -0.02 0.18 -0.04 0.33 -0.04 0.34 c 0 0.06 -0.09 0.11 -0.2 0.11 c -0.17 0.02 -0.12 -0.08 -0.12 -0.22"/><path d="m 9.6 7.52 c 0 -0.47 0.01 -0.44 -0.16 -0.57 c -0.05 -0.04 -0.06 -0.06 -0.04 -0.1 c 0.05 -0.09 0.19 -0.14 0.44 -0.18 c 0.13 -0.02 0.3 -0.05 0.36 -0.08 c 0.18 -0.07 0.35 -0.05 0.43 0.03 c 0.06 0.07 0.07 0.08 0.07 0.61 v 0.54 l -0.07 0.03 c -0.12 0.05 -0.22 0.03 -0.25 -0.04 c -0.07 -0.2 -0.05 -0.93 -0.22 -0.82 c -0.13 0.09 -0.15 0.16 -0.18 0.52 c -0.01 0.19 -0.03 0.37 -0.04 0.39 c -0.11 0.09 -0.23 0.1 -0.36 0.1 c 0 -0.14 0 -0.29 0 -0.43"/><path d="m 11.13 7.57 c -0.14 -0.13 -0.18 -0.21 -0.18 -0.42 c 0 -0.25 0.06 -0.43 0.18 -0.58 c 0.13 -0.14 0.29 -0.23 0.48 -0.25 c 0.17 -0.02 0.28 0.05 0.38 0.2 c 0.07 0.11 0.1 0.35 0.05 0.42 c -0.02 0.03 -0.14 0.07 -0.29 0.11 c -0.33 0.09 -0.35 0.09 -0.35 0.17 c 0 0.1 0.08 0.13 0.31 0.09 c 0.3 -0.04 0.3 -0.04 0.3 0.05 c 0 0.17 -0.19 0.27 -0.58 0.29 c -0.2 0.02 -0.2 0.02 -0.3 -0.07 m 0.5 -0.79 c 0.11 -0.08 -0.07 -0.19 -0.2 -0.12 c -0.05 0.03 -0.14 0.17 -0.1 0.21 c 0.03 0.03 0.24 -0.04 0.29 -0.09"/><path d="m 12.98 7.25 c -0.02 -0.41 -0.02 -0.73 -0.02 -1.17 l -0.13 0.02 c -0.14 0.02 -0.17 0 -0.17 -0.16 c 0 -0.09 0.02 -0.11 0.1 -0.17 c 0.11 -0.07 0.43 -0.2 0.52 -0.2 c 0.04 0 0.05 0.05 0.05 0.83 c 0 0.46 -0.01 0.84 -0.02 0.86 c -0.02 0.04 -0.17 0.09 -0.26 0.09 c -0.06 -0.04 -0.07 -0.05 -0.07 -0.1"/></g></svg>