<svg xmlns="http://www.w3.org/2000/svg" viewBox="0 0 16 16"><path d="m 3.04 2.89 c -13.21 17.45 23.1 17.2 10 0.07 c -2.36 -3 -7.28 -4.48 -10 -0.07" style="fill:#c1676a"/><path d="m 7.31 10.29 h -0.93 c -0.07 0 -0.14 0 -0.21 0 c -0.03 0 -0.07 0 -0.08 -0.03 c -0.02 -0.05 0.07 -0.16 0.09 -0.2 c 0.11 -0.19 0.2 -0.38 0.31 -0.57 c 0.37 -0.68 0.76 -1.36 1.11 -2.05 c 0.09 -0.18 0.19 -0.35 0.28 -0.52 c 0.02 -0.04 0.07 -0.17 0.11 -0.17 c 0.04 -0.01 0.05 0.05 0.07 0.07 c 0.05 0.08 0.09 0.16 0.13 0.25 c 0.18 0.34 0.37 0.68 0.55 1.02 c 0.29 0.55 0.59 1.1 0.89 1.65 c 0.07 0.13 0.14 0.26 0.21 0.39 c 0.02 0.04 0.08 0.1 0.05 0.14 c -0.04 0.05 -0.25 0.02 -0.3 0.02 h -0.93 c 0.54 0.39 1.07 0.78 1.61 1.16 c 0.14 0.11 0.28 0.2 0.41 0.3 c 0.05 0.03 0.12 0.11 0.18 0.11 c 0.05 0 0.12 -0.08 0.16 -0.12 c 0.13 -0.11 0.25 -0.21 0.39 -0.32 c 0.16 -0.13 0.31 -0.26 0.46 -0.4 c 0.04 -0.04 0.15 -0.09 0.15 -0.15 c 0 -0.05 -0.06 -0.13 -0.09 -0.17 c -0.08 -0.13 -0.15 -0.27 -0.22 -0.41 c -0.27 -0.47 -0.52 -0.95 -0.79 -1.43 c -0.64 -1.14 -1.27 -2.29 -1.9 -3.43 c -0.2 -0.36 -0.4 -0.73 -0.61 -1.09 c -0.13 -0.23 -0.28 -0.46 -0.39 -0.71 l -0.1 0.14 l -0.16 0.3 l -0.62 1.12 l -2.24 4 l -0.68 1.22 l -0.18 0.32 l -0.05 0.11 l 0.15 0.14 l 0.84 0.71 l 0.16 0.13 l 0.15 -0.09 l 0.38 -0.27 l 1.09 -0.79 l 0.36 -0.25" style="fill:#fff"/></svg>