<svg xmlns="http://www.w3.org/2000/svg" viewBox="0 0 16 16"><path d="m 8.2 15.96 c -1.64 -0.13 -3.56 -0.92 -4.89 -2 c -1.63 -1.34 -2.82 -3.38 -3.14 -5.4 c -0.38 -2.67 1.15 -5.54 2.89 -6.9 c 0.87 -0.66 2.02 -1.19 3.11 -1.42 c 2.81 -0.6 5.75 0.54 7.77 3 c 1.2 1.48 1.83 2.97 1.98 4.74 c 0.18 2.12 -0.64 4.39 -2.16 5.92 c -1.72 1.44 -3.5 2.22 -5.54 2.07" style="fill:#d9e4e5"/><path d="m 8.27 14.97 c -1.43 -0.11 -3.11 -0.8 -4.27 -1.76 c -1.42 -1.16 -2.46 -2.95 -2.74 -4.71 c -0.34 -2.32 1 -4.82 2.52 -6 c 0.76 -0.57 1.77 -1.04 2.71 -1.23 c 2.46 -0.52 5 0.46 6.78 2.62 c 1.05 1.29 1.6 2.59 1.73 4.13 c 0.16 1.84 -0.57 3.82 -1.89 5.15 c -1.5 1.25 -3.05 1.94 -4.84 1.81" style="fill:#8ccef3"/><path d="m 8.09 14.92 c -1.2 -0.15 -2.41 -0.61 -3.49 -1.3 c -1.31 -0.85 -2.52 -2.43 -3 -3.96 l -0.11 -0.34 l 6.72 -0.01 c 3.7 -0.01 6.73 0 6.74 0.01 c 0.04 0.04 -0.13 0.79 -0.27 1.24 c -0.4 1.21 -1.1 2.25 -1.98 2.92 c -0.98 0.75 -1.94 1.2 -2.95 1.39 c -0.45 0.09 -1.22 0.12 -1.64 0.06" style="fill:#006a9a"/><path d="m 7.19 9.78 c -0.1 -0.08 -0.16 -0.22 -0.14 -0.33 c 0.03 -0.17 0.13 -0.19 1.35 -0.21 c 1.47 -0.03 1.48 -0.04 1.91 -0.79 c 0.23 -0.4 0.23 -0.46 0.18 -1.51 c -0.06 -1.13 -0.16 -1.67 -0.3 -1.67 c -0.1 0 -0.18 0.57 -0.35 2.29 l -0.12 1.22 l -1.15 0.03 c -0.65 0.01 -1.15 -0.01 -1.15 -0.06 c 0 -0.15 2.73 -3.86 2.86 -3.89 c 0.19 -0.04 1.28 1.22 1.53 1.77 c 0.13 0.27 0.22 0.65 0.23 0.84 c 0 0.52 -0.27 1.25 -0.53 1.42 c -0.3 0.2 -0.28 0.32 0.06 0.32 c 0.33 0 0.37 0.18 0.1 0.43 c -0.16 0.15 -0.44 0.18 -2.23 0.22 c -1.68 0.04 -2.09 0.02 -2.23 -0.09" style="fill:#061720"/><path d="m 5.88 5.29 c 0 0.67 -0.54 1.21 -1.21 1.21 c -0.67 0 -1.21 -0.54 -1.21 -1.21 c 0 -0.67 0.54 -1.21 1.21 -1.21 c 0.67 0 1.21 0.54 1.21 1.21" style="fill:#ff1200"/></svg>