<svg xmlns="http://www.w3.org/2000/svg" viewBox="0 0 16 16"><path d="m 14.35 12.18 c 5 -6.09 -3.46 -13.18 -11.1 -12 c -5.68 0.81 -3.39 16.88 4.85 15.8 c 2.45 -0.32 4.58 -1.77 6.22 -3.75" style="fill:#8fd1ec"/><path d="m 6 11.95 c -0.57 -0.31 -1.13 -0.91 -1.45 -1.56 c -0.33 -0.66 -1.47 -4.83 -1.47 -5.39 c 0 -0.66 0.82 -0.98 1.27 -0.7 c 0.38 0.5 0.69 1.2 0.86 1.81 l 0.27 -0.37 c 0.57 -0.38 1.15 -0.3 1.85 -0.47 c 0.63 -0.04 2.19 0.09 2.69 0.34 c 0.49 0.68 0.09 1.5 0.17 2.28 c 0.73 -0.02 2.21 -0.27 2.76 0 c 0.55 0.3 0.56 1.08 0.2 1.43 c -0.69 0.72 -2.11 0.39 -2.69 0.96 c -1.24 1.43 -1.96 1.79 -4.45 1.68" style="fill:#fff"/><path d="m 6.45 12.31 c -0.66 -0.12 -1.39 -0.71 -1.83 -1.49 c -0.32 -0.57 -0.64 -1.49 -0.77 -2.27 c -0.11 -0.6 -0.27 -1.25 -0.73 -2.93 c -0.23 -0.83 -0.24 -1.09 -0.07 -1.34 c 0.28 -0.41 0.75 -0.55 1.17 -0.34 c 0.44 0.34 0.61 0.94 0.9 1.71 l 0.05 0.13 l 0.13 -0.2 c 0.07 -0.11 0.21 -0.23 0.32 -0.28 c 0.21 -0.1 0.86 -0.12 1.02 -0.03 c 0.09 0.05 0.14 0.03 0.3 -0.11 c 0.22 -0.2 0.45 -0.25 0.93 -0.21 c 0.3 0.02 0.39 0.05 0.57 0.2 c 0.2 0.16 0.23 0.17 0.43 0.11 c 0.31 -0.09 0.93 -0.03 1.11 0.1 c 0.3 0.21 0.34 0.39 0.34 1.45 v 0.98 l 0.21 -0.03 c 0.11 -0.02 0.56 -0.07 1 -0.13 c 0.62 -0.07 0.84 -0.08 1.02 -0.03 c 0.32 0.09 0.57 0.27 0.78 0.58 c 0.18 0.25 0.18 0.29 0.16 0.67 c -0.03 0.58 -0.06 0.61 -1.67 1.13 l -1.31 0.43 l -0.15 0.32 c -0.51 1.26 -2.52 1.76 -3.88 1.57 m 1.26 -0.44 c 1.21 -0.17 2.02 -0.69 2.3 -1.48 c 0.12 -0.33 0.05 -0.3 1.64 -0.81 c 0.67 -0.21 1.25 -0.42 1.3 -0.46 c 0.12 -0.08 0.11 -0.54 0 -0.71 c -0.11 -0.17 -0.38 -0.34 -0.61 -0.38 c -0.18 -0.04 -1.94 0.16 -2.04 0.23 c -0.03 0.02 -0.05 0.08 -0.05 0.14 c 0 0.18 -0.2 0.46 -0.41 0.55 c -0.25 0.12 -0.91 0.12 -1.16 0 c -0.18 -0.08 -0.2 -0.08 -0.37 0 c -0.4 0.11 -1.02 0.2 -1.32 -0.08 c -0.14 -0.13 -0.17 -0.14 -0.68 -0.12 c -0.91 0.03 -1.1 -0.15 -1.1 -1.1 c 0 -0.57 -0.01 -0.61 -0.24 -1.2 c -0.13 -0.34 -0.36 -0.91 -0.5 -1.27 c -0.14 -0.36 -0.3 -0.71 -0.37 -0.78 c -0.24 -0.26 -0.75 -0.06 -0.75 0.29 c 0 0.08 0.17 0.76 0.38 1.52 c 0.21 0.75 0.43 1.64 0.49 1.97 c 0.16 0.88 0.35 1.5 0.67 2.15 c 0.34 0.64 0.79 1.27 1.41 1.46 c 0.41 0.13 0.79 0.14 1.4 0.06 m 0.46 -3.32 c 0.1 -0.1 0.11 -0.18 0.11 -1.48 c 0 -1.7 0 -1.68 -0.59 -1.69 c -0.3 0 -0.35 0.02 -0.45 0.14 c -0.11 0.14 -0.11 0.21 -0.11 1.5 v 1.36 l 0.13 0.14 c 0.24 0.17 0.69 0.23 0.91 0.02 m 1.69 -0.16 v -1.25 c 0 -1.5 0.01 -1.48 -0.57 -1.48 c -0.32 -0.01 -0.43 0.07 -0.63 0.27 v 2.46 l 0.13 0.14 c 0.11 0.11 0.19 0.13 0.46 0.13 c 0.31 0 0.41 -0.08 0.6 -0.27 m -3.23 -0.09 c 0.12 -0.08 0.12 -0.11 0.12 -1.23 c 0 -1.14 0 -1.15 -0.13 -1.28 c -0.18 -0.18 -0.71 -0.2 -0.89 -0.02 c -0.12 0.11 -0.12 0.15 -0.12 1.26 c 0 1.07 0.01 1.15 0.11 1.25 c 0.14 0.14 0.73 0.16 0.92 0.02" style="fill:#565c5f"/></svg>