<svg xmlns="http://www.w3.org/2000/svg" viewBox="0 0 16 16"><path d="m 14.83 3.89 c -12.1 -14.1 -23.71 14.88 -5 11.9 c 4.1 -0.65 8.27 -8.1 5 -11.9" style="fill:#4c2f66"/><path d="m 5.32 4.7 c -0.66 0 -1.2 0.52 -1.2 1.14 v 4.58 c 0 0.63 0.54 1.14 1.2 1.14 h 0.95 l 3.32 0.74 c 0.09 0.02 0.18 0.02 0.26 0.02 c 0.56 0 1.05 -0.37 1.18 -0.89 l 1.08 -4.46 c 0.15 -0.61 -0.27 -1.23 -0.91 -1.37 l -1.64 -0.36 c -0.22 -0.34 -0.61 -0.55 -1.03 -0.55 m -3.2 0.77 h 3.2 c 0.22 0 0.4 0.17 0.4 0.38 v 4.58 c 0 0.21 -0.18 0.38 -0.4 0.38 h -3.2 c -0.22 0 -0.4 -0.17 -0.4 -0.38 v -4.58 c 0 -0.21 0.18 -0.38 0.4 -0.38 m 4.41 0.61 l 1.29 0.27 c 0.21 0.05 0.35 0.26 0.3 0.47 l -1.08 4.46 c -0.05 0.2 -0.26 0.33 -0.48 0.29 l -0.65 -0.14 c 0.36 -0.2 0.61 -0.56 0.61 -0.99 m -2.8 -4.2 c 0 0 -1.6 1.23 -1.6 1.93 c 0 0.46 0.39 0.85 0.88 0.85 c 0.17 0 0.33 -0.05 0.48 -0.14 l -0.29 0.8 h 1.07 l -0.29 -0.79 c 0.13 0.08 0.29 0.13 0.48 0.13 c 0.48 0 0.88 -0.38 0.88 -0.85 c 0 -0.69 -1.61 -1.93 -1.61 -1.93" style="fill:#fff"/></svg>