<svg xmlns="http://www.w3.org/2000/svg" viewBox="0 0 16 16"><path d="m 14.22 12.46 c 9.5 -15.21 -22.34 -17.2 -12.16 -0.71 c 2.69 4.23 9.52 6.51 12.16 0.71" style="fill:#333"/><g style="fill:#f00"><path d="m 3.56 10.39 c -0.29 -0.01 -0.32 -0.03 -0.32 -0.19 c 0 -0.11 0.16 -0.9 0.22 -1.12 c 0.06 -0.19 0.12 -0.27 0.21 -0.29 c 0.04 -0.01 0.33 -0.01 0.63 -0.01 h 0.56 v 0.05 c 0 0.04 -0.05 0.25 -0.07 0.26 c 0 0 -0.2 0.01 -0.45 0.02 c -0.41 0.02 -0.45 0.02 -0.49 0.07 c -0.06 0.2 -0.3 0.66 -0.15 0.81 c 0.03 0.03 0.09 0.04 0.26 0.04 c 0.12 0 0.32 0.01 0.44 0.02 l 0.21 0.02 v 0.07 c 0 0.07 -0.05 0.21 -0.09 0.23 c -0.03 0.02 -0.7 0.04 -0.96 0.02"/><path d="m 5.22 10.39 c -0.09 -0.01 -0.17 -0.03 -0.2 -0.05 c -0.06 -0.05 -0.05 -0.21 0.05 -0.72 c 0.15 -0.73 0.18 -0.79 0.36 -0.82 c 0.06 -0.01 0.38 -0.02 0.72 -0.02 h 0.62 l 0.04 0.06 c 0.04 0.06 0.04 0.07 0 0.31 c -0.06 0.36 -0.17 0.86 -0.22 1 c -0.06 0.18 -0.12 0.21 -0.41 0.23 c -0.27 0.02 -0.73 0.02 -0.97 0 m 0.99 -0.39 c 0.03 -0.02 0.06 -0.07 0.07 -0.11 c 0.04 -0.11 0.12 -0.57 0.12 -0.64 c 0 -0.1 -0.07 -0.12 -0.44 -0.11 c -0.39 0.01 -0.39 0.01 -0.46 0.31 c -0.11 0.47 -0.11 0.56 -0.03 0.58 c 0.22 -0.02 0.53 0.11 0.73 -0.02"/><path d="m 7 10.39 c -0.03 -0.01 -0.05 -0.03 -0.05 -0.04 c 0 -0.05 0.26 -1.31 0.29 -1.42 c 0.05 -0.15 0.09 -0.17 0.27 -0.14 c 0.28 0.02 0.58 0 0.82 0 c 0.66 0 0.63 -0.05 0.5 0.6 c -0.03 0.16 -0.09 0.45 -0.14 0.64 l -0.08 0.34 l -0.09 0.02 c -0.05 0.01 -0.13 0.01 -0.17 0 c -0.07 -0.02 -0.07 -0.02 -0.06 -0.14 c 0 -0.06 0.05 -0.32 0.1 -0.57 c 0.05 -0.25 0.08 -0.47 0.07 -0.49 c -0.27 -0.1 -0.49 -0.14 -0.82 -0.04 c -0.05 0.03 -0.05 0.07 -0.2 0.69 c -0.06 0.26 -0.12 0.48 -0.14 0.5 c -0.04 0.04 -0.23 0.06 -0.3 0.04"/><path d="m 9.18 10.39 c -0.07 -0.01 -0.09 -0.02 -0.09 -0.06 c 0 -0.07 0.35 -1.76 0.39 -1.92 c 0.05 -0.18 0.12 -0.27 0.2 -0.3 c 0.12 -0.04 0.41 -0.06 0.53 -0.04 h 0.18 l -0.02 0.12 c -0.02 0.14 -0.12 0.16 -0.29 0.17 c -0.17 0.01 -0.22 0.05 -0.25 0.22 c -0.02 0.13 0 0.16 0.18 0.18 c 0.14 0.02 0.18 0.05 0.14 0.16 c -0.03 0.11 -0.06 0.13 -0.25 0.15 l -0.17 0.02 l -0.03 0.11 c -0.02 0.06 -0.07 0.28 -0.11 0.5 c -0.1 0.49 -0.15 0.66 -0.18 0.68 c -0.07 0.02 -0.15 0.02 -0.23 0.02"/><path d="m 11 11.1 h -0.08 l 0.01 -0.12 c 0.02 -0.2 0.03 -0.2 0.64 -0.2 h 0.52 l 0.05 -0.11 c 0.05 -0.11 0.3 -1.28 0.3 -1.41 c 0 -0.09 -0.07 -0.11 -0.41 -0.11 c -0.41 0 -0.41 0 -0.52 0.59 c -0.06 0.33 -0.05 0.33 0.24 0.36 c 0.13 0.01 0.25 0.02 0.27 0.04 c 0.04 0.02 0.02 0.18 -0.04 0.23 c -0.08 0.09 -0.79 0.08 -0.9 -0.01 c -0.05 -0.04 -0.03 -0.23 0.08 -0.75 c 0.1 -0.52 0.14 -0.64 0.21 -0.73 l 0.06 -0.07 c 0.49 0 0.98 0 1.47 0 l -0.01 0.15 c -0.02 0.17 -0.25 1.32 -0.35 1.74 c -0.09 0.38 -0.11 0.4 -0.41 0.42 c -0.24 0.02 -1 0.02 -1.13 0"/><path d="m 3.27 6.96 c -0.16 -0.07 -0.25 -0.25 -0.25 -0.52 c 0 -0.2 0.04 -0.35 0.14 -0.46 c 0.1 -0.11 0.21 -0.16 0.42 -0.18 c 0.34 -0.03 0.37 -0.05 0.37 -0.22 c 0 -0.13 -0.08 -0.3 -0.16 -0.34 c -0.13 -0.06 -0.3 -0.04 -0.61 0.1 c -0.04 0.02 -0.09 -0.13 -0.06 -0.16 c 0.07 -0.08 0.24 -0.12 0.51 -0.12 c 0.3 0 0.37 0.02 0.46 0.14 c 0.05 0.08 0.06 0.11 0.07 0.5 c 0.01 0.22 0.02 0.6 0.02 0.84 v 0.43 h -0.08 c -0.1 0.01 -0.14 -0.03 -0.16 -0.14 c -0.01 -0.05 -0.02 -0.09 -0.03 -0.1 c -0.01 0 -0.08 0.04 -0.16 0.11 c -0.08 0.06 -0.16 0.13 -0.2 0.14 c -0.08 0.03 -0.22 0.02 -0.3 -0.01 m 0.36 -0.21 c 0.09 -0.04 0.2 -0.17 0.25 -0.27 c 0.05 -0.09 0.07 -0.39 0.04 -0.47 c -0.03 -0.07 -0.15 -0.1 -0.33 -0.07 c -0.24 0.04 -0.34 0.18 -0.34 0.45 c 0 0.18 0.04 0.27 0.16 0.34 c 0.09 0.04 0.16 0.04 0.22 0.01"/><path d="m 4.63 6.95 c -0.04 -0.01 -0.04 -0.07 -0.04 -0.85 c 0 -0.66 -0.01 -0.85 -0.03 -0.91 l -0.04 -0.08 c 0.09 -0.03 0.2 -0.06 0.29 -0.07 c 0.02 0.09 0.03 0.18 0.07 0.27 c 0.02 0.01 0.09 -0.04 0.17 -0.12 c 0.14 -0.13 0.23 -0.17 0.3 -0.14 c 0.03 0.01 0.04 0.03 0.02 0.08 c -0.02 0.09 -0.04 0.11 -0.15 0.14 c -0.11 0.03 -0.27 0.2 -0.33 0.32 c -0.03 0.07 -0.04 0.23 -0.06 0.73 c -0.01 0.35 -0.02 0.64 -0.02 0.64 c 0 0.01 -0.15 0 -0.2 -0.01"/><path d="m 5.61 6.7 c 0.03 -0.41 0 -1.42 -0.04 -1.52 c -0.02 -0.04 -0.03 -0.08 -0.03 -0.09 c 0 -0.01 0.09 -0.03 0.24 -0.07 c 0.06 -0.01 0.07 -0.01 0.08 0.07 c 0.02 0.13 0.06 0.14 0.18 0.06 c 0.28 -0.2 0.52 -0.18 0.66 0.06 c 0.06 0.09 0.05 0.09 0.23 -0.05 c 0.18 -0.15 0.39 -0.19 0.54 -0.1 c 0.14 0.09 0.15 0.14 0.17 1.07 l 0.02 0.84 c -0.09 0 -0.18 0 -0.27 0 l 0.01 -0.78 c -0.04 -0.28 0.08 -0.71 -0.07 -0.86 c -0.12 -0.12 -0.23 -0.14 -0.36 -0.05 c -0.16 0.11 -0.17 0.14 -0.2 0.56 c -0.01 0.21 -0.02 0.54 -0.02 0.74 v 0.37 c -0.08 0 -0.16 0 -0.23 0 v -0.74 c -0.01 -0.62 -0.02 -0.75 -0.05 -0.82 c -0.07 -0.17 -0.27 -0.2 -0.42 -0.07 c -0.15 0.12 -0.15 0.14 -0.17 0.93 c -0.01 0.4 -0.02 0.72 -0.02 0.73 c -0.09 0.01 -0.16 0.01 -0.25 0.01"/><path d="m 8.29 6.99 c -0.08 -0.01 -0.24 -0.04 -0.27 -0.04 c -0.04 -0.01 0.03 -0.07 0.02 -1.2 c -0.01 -0.66 -0.03 -1.23 -0.04 -1.25 c -0.02 -0.05 -0.01 -0.06 0.12 -0.11 c 0.08 -0.04 0.15 -0.06 0.15 -0.06 c 0.01 0 0.01 0.07 0.01 0.16 c 0 0.27 0.03 0.75 0.05 0.78 c 0.01 0.02 0.05 0 0.13 -0.07 c 0.13 -0.12 0.19 -0.14 0.34 -0.14 c 0.33 0 0.5 0.32 0.47 0.92 c -0.01 0.29 -0.08 0.55 -0.19 0.73 c -0.15 0.24 -0.43 0.34 -0.79 0.3 m 0.39 -0.17 c 0.25 -0.13 0.34 -0.34 0.34 -0.87 c 0 -0.3 -0.01 -0.35 -0.06 -0.46 c -0.06 -0.12 -0.15 -0.21 -0.24 -0.23 c -0.12 -0.03 -0.28 0.09 -0.35 0.25 c -0.04 0.1 -0.09 0.73 -0.08 1.05 c 0.01 0.21 0.01 0.21 0.09 0.26 c 0.1 0.07 0.15 0.07 0.3 0"/><path d="m 9.59 6.73 c 0.02 -0.22 0.01 -1.46 -0.01 -1.56 c 0.05 -0.1 0.21 -0.11 0.29 -0.09 c 0.01 0.02 0.02 0.36 0.02 0.77 c 0 0.41 0.01 0.82 0.02 0.93 l 0.02 0.19 c -0.12 0 -0.24 0 -0.36 0"/><path d="m 9.6 4.77 c -0.09 -0.08 -0.09 -0.21 0 -0.31 c 0.13 -0.14 0.29 -0.05 0.29 0.16 c 0 0.19 -0.15 0.27 -0.29 0.14"/><path d="m 10.54 6.97 c -0.03 0 -0.09 -0.04 -0.13 -0.09 c -0.21 -0.2 -0.21 -0.72 0.01 -0.93 c 0.1 -0.1 0.2 -0.14 0.48 -0.16 c 0.11 -0.01 0.22 -0.04 0.24 -0.05 c 0.02 -0.02 0.04 -0.07 0.04 -0.16 c 0 -0.34 -0.21 -0.45 -0.61 -0.31 c -0.09 0.03 -0.17 0.06 -0.18 0.06 c -0.02 0 -0.07 -0.14 -0.06 -0.15 c 0.09 -0.07 0.34 -0.13 0.58 -0.13 c 0.24 0 0.33 0.04 0.42 0.16 l 0.07 0.1 l 0.02 0.82 c 0.01 0.45 0.01 0.83 0 0.84 c -0.01 0.01 -0.05 0.02 -0.1 0.01 c -0.07 -0.01 -0.08 -0.02 -0.11 -0.13 c -0.02 -0.06 -0.04 -0.12 -0.04 -0.13 c 0 0 -0.07 0.05 -0.14 0.11 c -0.07 0.07 -0.16 0.13 -0.19 0.14 c -0.1 0.02 -0.2 0.02 -0.29 0 m 0.63 -0.77 c 0.02 -0.25 0 -0.27 -0.23 -0.26 c -0.32 0 -0.47 0.17 -0.45 0.51 c 0.01 0.14 0.02 0.16 0.11 0.24 c 0.34 0.27 0.55 -0.29 0.57 -0.49"/><path d="m 11.86 6.94 c -0.01 -0.02 -0.02 -0.41 -0.03 -0.89 c -0.01 -0.48 -0.02 -0.88 -0.03 -0.9 c -0.02 -0.04 0.02 -0.07 0.16 -0.1 c 0.07 -0.02 0.08 -0.01 0.1 0.06 c 0.03 0.1 0.09 0.11 0.2 0.02 c 0.24 -0.19 0.6 -0.16 0.71 0.07 c 0.05 0.1 0.05 0.13 0.06 0.92 l 0.01 0.82 h -0.06 c -0.03 0 -0.09 0 -0.13 0.01 l -0.07 0.02 v -0.78 c 0 -0.86 0 -0.88 -0.16 -0.96 c -0.13 -0.07 -0.27 -0.04 -0.39 0.09 c -0.07 0.07 -0.11 0.14 -0.13 0.2 c -0.01 0.05 -0.02 0.4 -0.02 0.77 v 0.68 c -0.08 0 -0.16 0 -0.23 -0.03"/><path d="m 9.52 13.38 c -0.05 -0.02 -0.13 -0.07 -0.16 -0.11 c -0.14 -0.14 -0.15 -0.31 -0.05 -0.82 c 0.14 -0.77 0.24 -1.11 0.39 -1.33 l 0.09 -0.13 l -0.04 -0.14 c -0.05 -0.18 -0.05 -0.28 0 -0.32 c 0.02 -0.02 0.13 0 0.26 -0.04 l 0.08 -0.03 c 0.11 -0.42 0.24 -0.78 0.34 -1.2 c 0.07 -0.32 0.18 -0.4 0.12 -0.52 c -0.09 -0.16 -0.04 -0.4 0.07 -0.72 c 0.04 -0.11 0.03 -0.15 0.27 -0.09 c 0.28 0.07 0.22 0.07 0.14 0.37 c -0.06 0.24 -0.06 0.33 -0.19 0.48 c -0.1 0.11 -0.1 0.39 -0.18 0.73 c -0.09 0.37 -0.19 1 -0.19 1.05 c 0 0.03 -0.05 -0.04 0.05 0.01 c 0.2 0.09 0.27 0.15 0.27 0.21 c 0 0.03 -0.05 0.13 -0.11 0.23 c -0.12 0.2 -0.13 0.25 -0.07 0.36 c 0.05 0.1 0.04 0.22 -0.13 0.92 c -0.2 0.87 -0.25 0.99 -0.44 1.08 c -0.13 0.06 -0.38 0.07 -0.52 0"/></g></svg>