<svg xmlns="http://www.w3.org/2000/svg" viewBox="0 0 16 16"><path d="m 14 11.88 c 5.66 -6.44 -2.72 -13.25 -7.63 -11.58 c -4.91 1.68 -8.21 6.4 -5 10.55 c 3.21 4.15 6.36 8.15 12 1.71" style="fill:#2a5f85"/><path d="m 7.8 12.48 c -0.36 -0.19 -0.98 -0.59 -1.25 -0.8 c -0.38 -0.3 -1.01 -0.94 -1.19 -1.21 c -0.27 -0.41 -0.43 -0.9 -0.5 -1.48 c -0.08 -0.76 -0.14 -3.95 -0.08 -4.16 c 0.01 -0.05 0.05 -0.09 0.1 -0.11 c 0.06 -0.02 0.79 -0.04 2.87 -0.04 c 2.87 -0.01 3.57 0.01 3.63 0.08 c 0.04 0.05 0.01 3.47 -0.04 4 c -0.05 0.7 -0.12 1 -0.31 1.38 c -0.34 0.67 -1.19 1.46 -2.29 2.13 c -0.31 0.18 -0.59 0.32 -0.66 0.32 c -0.02 0 -0.16 -0.06 -0.29 -0.13 m 0.54 -0.32 c 1.18 -0.61 2.21 -1.58 2.47 -2.33 c 0.16 -0.46 0.2 -0.83 0.21 -2.3 c 0.01 -0.82 0 -1.27 -0.01 -1.29 c -0.04 -0.04 -0.66 0.66 -2.88 3.22 c -1.08 1.25 -1.54 1.79 -1.54 1.83 c 0 0.05 0.25 0.25 0.54 0.45 c 0.24 0.15 0.93 0.55 0.96 0.55 c 0 0 0.11 -0.05 0.24 -0.12 m -2.29 -3 c 1.03 -1.07 3 -3.2 3.5 -3.75 c 0.21 -0.24 0.24 -0.27 0.19 -0.29 c -0.07 -0.02 -4.52 -0.09 -4.54 -0.06 c -0.01 0.01 -0.02 0.76 -0.02 1.67 c 0 1.68 0.02 2.05 0.11 2.52 c 0.04 0.2 0.11 0.37 0.16 0.43 c 0.04 0.05 0.11 -0.01 0.6 -0.52" style="fill:#fff"/></svg>