<svg xmlns="http://www.w3.org/2000/svg" viewBox="0 0 16 16"><path d="m 13 14.19 c -9.49 7.38 -19.33 -10.99 -7.59 -13.68 c 7.39 -2.75 14.62 8.21 7.59 13.68" style="fill:#707f8f"/><path d="m 5.54 3.82 l 2.3 2.34 l -1.41 2.24 l -2.3 -2.35" style="fill:#dcdcdc"/><path d="m 8.24 9.96 l -3.12 -0.93 l 0.18 -2.66 l 3.12 0.93" style="fill:#218b21"/><path d="m 8.89 3.43 l -1.79 2.77 l 1.83 1.91 l 1.79 -2.77" style="fill:#dc133c"/><path d="m 11.95 8.54 l -2.72 -1.82 l -1.87 1.86 l 2.72 1.82" style="fill:#7a68ed"/><path d="m 11.51 7.81 l -1.79 2.77 l 1.83 1.91 l 1.79 -2.77" style="fill:#ffa400"/><path d="m 7.1 8.48 l 2.29 2.35 l -1.41 2.24 l -2.29 -2.35" style="fill:#f4f4f4"/><path d="m 11.58 10.64 l 1.79 -2.77 l -1.83 -1.91 l -1.79 2.77" style="fill:#473d8b"/><path d="m 2.78 10.53 l 0.92 -3.18 l 2.61 0.19 l -0.92 3.18" style="fill:#c71485"/></svg>