<svg xmlns="http://www.w3.org/2000/svg" viewBox="0 0 16 16"><defs><linearGradient id="1" gradientUnits="userSpaceOnUse" x1="53.66" y1="137.6" x2="53.72" y2="147.5" gradientTransform="matrix(1.044 0 0 1.023 7.1 -1.02)"><stop style="stop-color:#dcd7d7"/><stop offset="1" style="stop-color:#b0b0c0"/></linearGradient><linearGradient id="2" gradientUnits="userSpaceOnUse" x1="255.4" y1="250.1" x2="256.4" y2="257.1" gradientTransform="matrix(0.996 0 0 0.895 -29.46 2.91)"><stop style="stop-color:#4f4f58"/><stop offset="1" style="stop-color:#5b5b63"/></linearGradient><linearGradient id="3" gradientUnits="userSpaceOnUse" x1="255.7" y1="247.6" x2="256.2" y2="253.4" gradientTransform="matrix(1 0 0 0.902 -32.1 -0.31)"><stop style="stop-color:#606068"/><stop offset="1" style="stop-color:#7f7f87;stop-opacity:0.99"/></linearGradient><radialGradient id="0" gradientUnits="userSpaceOnUse" cx="67.9" cy="134.7" r="20.51" gradientTransform="matrix(1.167 -0.007 0.006 0.812 -18.1 27)"><stop style="stop-color:#fbf8f8"/><stop offset="1" style="stop-color:#e7e7ff"/></radialGradient></defs><path d="m 14.63 11.77 c 4.3 -5.75 -2.58 -12.76 -8.13 -11.55 c -5.46 0.71 -8.76 9 -4.54 13.24 c 3.09 3.04 8.36 4.05 12.67 -1.7" style="fill:#b9bfc9"/><g style="stroke-linecap:round;stroke-linejoin:round"><path d="m 44.67 124.6 h 34.4 c 0.46 0 0.82 0.33 0.82 0.74 v 21 c 0 0.4 -0.36 0.74 -0.82 0.74 h -34.4 c -0.46 0 -0.82 -0.34 -0.82 -0.74 v -21 c 0 -0.42 0.36 -0.74 0.82 -0.74" transform="matrix(0.227 0 0 0.252 -6.14 -26.2)" style="fill:url(#0);stroke:#7c8497;stroke-width:1.2"/><path d="m 56.3 140 h 14.1 c 0.46 0 0.82 0.29 0.82 0.65 v 7.99 c 0 0.36 -0.36 0.65 -0.81 0.65 h -14.1 c -0.46 0 -0.82 -0.29 -0.82 -0.65 v -7.99 c 0 -0.36 0.36 -0.65 0.81 -0.65" transform="matrix(0.227 0 -0.012 0.252 -6.14 -26.2)" style="fill:url(#1);stroke:#737884;stroke-width:1.1"/><path d="m 218.7 227.5 h 14.1 c 0.22 0 0.38 0.16 0.38 0.38 v 4.1 c 0 0.21 -0.18 0.38 -0.39 0.38 h -14.1 c -0.22 0 -0.4 -0.16 -0.4 -0.38 l 0.01 -4.1 c 0 -0.21 0.18 -0.38 0.39 -0.38" transform="matrix(0.227 0 -0.171 0.167 -6.14 -26.2)" style="fill:none;stroke:url(#2);stroke-width:1.85"/><path d="m 213.8 222.3 h 12 c 0.93 0 1.7 0.32 1.7 0.69 l -0.01 4.72 c 0.01 0.39 -0.74 0.69 -1.67 0.69 h -12 c -0.95 0 -1.68 -0.3 -1.7 -0.69 l 0.01 -4.72 c 0 -0.37 0.74 -0.69 1.67 -0.69" transform="matrix(0.227 0 -0.168 0.17 -6.14 -26.2)" style="fill:url(#3);stroke:#606068;stroke-width:1.22"/></g></svg>