<svg xmlns="http://www.w3.org/2000/svg" viewBox="0 0 16 16"><path d="m 13.1 14.1 c -9.6 7.33 -19.56 -10.93 -7.68 -13.6 c 7.48 -2.74 14.79 8.16 7.68 13.6" style="fill:#ededec"/><path d="m 0.1 5.48 l 7.66 0.03 l 7.58 0.01 c 0.25 0.73 0.49 1.34 0.59 2.03 h -15.83 c -0.07 -0.71 -0.07 -1.5 0.01 -2.07" style="fill:#ff8c00"/><path d="m 0.21 8.36 c 0 0 3.56 0 7.89 0 l 7.88 0.01 c 0 0.73 -0.15 1.45 -0.3 2.07 l -7.37 0.07 h -7.41 c -0.15 -0.39 -0.79 -2 -0.7 -2.16" style="fill:#9acd31"/><path d="m 2.75 11.3 c -0.03 -0.03 -0.04 -0.79 -0.02 -0.82 c 0.01 0 0.68 -0.02 1.5 -0.03 c 1.69 -0.03 1.72 -0.04 1.97 -0.39 c 0.11 -0.16 0.13 -0.23 0.15 -0.51 c 0.01 -0.18 -0.01 -0.39 -0.04 -0.49 c -0.07 -0.22 -0.29 -0.46 -0.52 -0.57 c -0.19 -0.09 -0.29 -0.09 -1.63 -0.11 l -1.44 -0.02 v -0.39 c 0 -0.22 0 -0.41 -0.01 -0.43 c 0 -0.02 0.59 -0.04 1.33 -0.05 c 1.27 -0.02 1.34 -0.03 1.55 -0.13 c 0.12 -0.05 0.25 -0.13 0.3 -0.18 c 0.29 -0.26 0.36 -0.88 0.15 -1.25 c -0.21 -0.36 -0.23 -0.36 -1.89 -0.39 l -1.44 -0.02 v -0.38 c 0.01 -0.2 0.02 -0.39 0.03 -0.41 c 0.03 -0.05 2.66 -0.04 3 0.01 c 0.43 0.06 0.7 0.2 1.03 0.53 c 0.23 0.23 0.3 0.33 0.36 0.54 c 0.11 0.34 0.1 0.75 0 1.09 c -0.08 0.26 -0.31 0.61 -0.4 0.61 c -0.04 0 -0.57 0.31 -0.57 0.34 c 0 0.01 0.14 0.08 0.3 0.17 c 0.49 0.25 0.64 0.38 0.77 0.64 c 0.17 0.35 0.23 0.75 0.17 1.14 c -0.07 0.42 -0.16 0.59 -0.51 0.91 c -0.34 0.32 -0.45 0.38 -0.89 0.5 c -0.3 0.07 -0.49 0.08 -1.79 0.08 c -0.8 0 -1.46 -0.01 -1.48 -0.03 m 5.86 -0.38 c -0.04 -0.44 -0.04 -2.36 0 -3 l 0.02 -0.4 l 1.98 -0.01 l 1.97 -0.01 v 0.88 h -2.98 v 2.07 h 1.55 c 0.85 0 1.57 0.02 1.6 0.04 c 0.04 0.02 0.05 0.14 0.04 0.43 l -0.01 0.39 l -4.13 0.02 m -0.02 -5.8 c -0.01 -0.02 -0.01 -0.21 0 -0.42 l 0.02 -0.39 h 2.03 c 1.81 0 2.03 0.01 2.05 0.07 c 0.02 0.04 0.03 0.23 0.03 0.42 v 0.35 h -2.05 c -1.13 0 -2.07 -0.02 -2.07 -0.03" style="fill:#040402"/></svg>