<svg xmlns="http://www.w3.org/2000/svg" viewBox="0 0 16 16"><path d="m 15.33 9.48 c -1.59 10.67 -17.98 7 -14.88 -3.3 c 2.08 -9.81 18.85 -7.16 14.88 3.3" style="fill:#dcdcdc"/><path d="m 4.1 11.48 c 0.24 -0.21 1.09 -1.07 1.89 -1.89 l 1.45 -1.49 l 0.45 0.63 c 0.64 0.9 0.92 1.19 1.14 1.19 c 0.19 0 0.3 -0.08 0.99 -0.73 c 0.46 -0.43 0.62 -0.49 0.82 -0.3 c 0.3 0.29 1.59 2.11 1.86 2.63 c 0.05 0.11 0.08 0.21 0.06 0.23 c -0.05 0.05 -3.29 0.12 -6.39 0.12 h -2.71" style="fill:#3489c1"/><path d="m 11.93 2.78 l 0.09 0.08 c 0.1 0.09 0.11 0.25 0.01 0.35 l -8.9 8.97 c -0.1 0.1 -0.27 0.11 -0.37 0.02 l -0.09 -0.08 c -0.11 -0.09 -0.11 -0.25 -0.01 -0.35 l 8.9 -8.97 c 0.1 -0.1 0.26 -0.11 0.37 -0.02" style="fill:#3c3c3c"/><g style="fill:#7f7f7f"><path d="m 8.41 5.42 c -0.23 -0.82 0.3 -1.69 1.14 -1.84 c 0.21 -0.04 0.82 0.09 0.82 0.18 c 0 0.02 -0.43 0.46 -0.94 0.98 l -0.94 0.94"/><path d="m 2.83 11.27 c 0.05 -0.17 0.17 -0.96 0.17 -1.09 c 0 -0.13 0.18 -0.4 0.39 -0.43 c 0.31 -0.05 0.58 0.12 0.65 -0.59 c 0.1 -0.99 0.24 -1.25 0.67 -1.25 c 0.24 0 0.32 -0.12 0.32 -0.46 c 0 -0.71 0.18 -1.21 0.43 -1.21 c 0.43 -0.1 0.48 -0.62 1.07 0.57 l 0.27 0.55 l -1.9 1.9 c -1.05 1.05 -2.14 2.17 -2.08 2"/></g><path d="m 9.73 6.5 c -0.18 -0.02 -0.53 -0.16 -0.52 -0.21 c 0 -0.01 0.42 -0.44 0.92 -0.96 l 0.92 -0.95 l 0.04 0.06 c 0.06 0.1 0.14 0.36 0.15 0.52 c 0.05 0.47 -0.11 0.88 -0.44 1.2 c -0.15 0.14 -0.39 0.28 -0.57 0.32 c -0.14 0.04 -0.36 0.05 -0.49 0.03" style="fill:#3489c1"/></svg>