<svg xmlns="http://www.w3.org/2000/svg" viewBox="0 0 16 16"><path d="m 4.06 14.45 c 12.98 7.98 17.36 -17.48 2.21 -14.1 c -6.25 1.44 -9.1 10.45 -2.21 14.1" style="fill:#020100"/><g style="fill:#d8ab53"><path d="m 4.87 11.91 c -0.13 -0.05 -0.09 -0.13 0.15 -0.28 c 0.36 -0.28 0.45 -0.48 0.63 -0.84 v -5.56 c -0.22 -0.42 -0.53 -0.73 -0.87 -1.03 c 0.3 -0.07 0.63 -0.05 0.88 -0.05 c 0.75 0.01 0.72 -0.01 0.75 0.51 c 0.03 0.5 0.01 7.1 -0.03 7.12 c -0.26 0.2 -1.22 0.22 -1.52 0.13"/><path d="m 6.89 11.76 c -0.04 -0.13 -0.07 -5.77 -0.04 -6.73 c 0.02 -0.52 0.04 -0.76 0.07 -0.8 c 0.72 -0.1 1.46 -0.27 2.13 0.07 c 0.3 0.15 0.56 0.39 0.77 0.72 c 0.24 0.37 0.28 0.52 0.28 1.05 c 0 0.75 -0.09 1 -0.51 1.43 c -0.14 0.14 -0.25 0.27 -0.24 0.28 c 0.01 0.01 0.16 0.08 0.32 0.17 c 0.52 0.26 0.8 0.58 0.96 1.1 c 0.08 0.25 0.09 1.06 0.02 1.34 c -0.08 0.35 -0.3 0.74 -0.52 0.97 c -0.38 0.37 -0.77 0.55 -1.36 0.6 c -0.36 0.03 -1.8 0.04 -1.88 -0.19 m 2.36 -0.61 c 0.52 -0.26 0.75 -0.79 0.71 -1.59 c -0.04 -0.69 -0.38 -1.11 -1 -1.24 c -0.47 -0.06 -1.15 -0.08 -1.41 0.02 l 0.02 0.95 c 0.02 1.19 -0.08 1.56 0.08 1.84 c 0.38 0.36 1.18 0.23 1.61 0.02 m -1.16 -3.6 c 0.6 -0.07 0.94 -0.26 1.1 -0.59 c 0.32 -0.69 0.14 -1.64 -0.38 -1.96 c -0.21 -0.14 -0.34 -0.17 -0.68 -0.17 c -0.35 0 -0.43 0.04 -0.48 0.18 c -0.02 0.47 -0.18 2.54 0.02 2.58 c 0.07 0 0.26 -0.02 0.42 -0.04"/><path d="m 10.28 7.45 c 0 -0.04 0.05 -0.2 0.11 -0.35 l 0.11 -0.28 c 0.13 -0.98 -0.01 -1.52 -0.37 -2.04 c -0.21 -0.3 -0.27 -0.43 -0.19 -0.43 c 0.07 0 0.39 0.14 0.59 0.28 c 0.44 0.28 0.71 0.66 0.77 1.13 c 0.09 0.67 -0.21 1.32 -0.77 1.67 c -0.17 0.11 -0.25 0.11 -0.25 0.02"/><path d="m 10.62 11.58 c 0 -0.02 0.08 -0.21 0.18 -0.42 c 0.27 -0.55 0.31 -0.73 0.31 -1.34 c 0 -0.6 -0.04 -0.76 -0.3 -1.36 c -0.16 -0.34 -0.18 -0.42 -0.14 -0.46 c 0.04 -0.04 0.07 -0.03 0.2 0.03 c 0.38 0.19 0.77 0.6 0.93 0.97 c 0.16 0.37 0.19 1.02 0.06 1.41 c -0.16 0.46 -0.77 1.09 -1.14 1.19 c -0.06 0.01 -0.09 0.01 -0.09 -0.02"/></g></svg>