<svg xmlns="http://www.w3.org/2000/svg" viewBox="0 0 16 16"><path d="m 12.1 14.83 c 14.1 -12.1 -14.88 -23.71 -11.9 -5 c 0.65 4.1 8.11 8.27 11.9 5" style="fill:#c0c0c0"/><g style="stroke:#000"><path d="m 199.8 154.5 c 0.92 21.2 -10.1 41.1 -28.55 51.88 c -18.48 10.86 -41.5 10.86 -59.98 0 c -18.48 -10.8 -29.47 -30.7 -28.55 -51.88 c -0.92 -21.1 10.1 -41 28.55 -51.82 c 18.48 -10.86 41.5 -10.86 59.98 0 c 18.48 10.8 29.47 30.7 28.55 51.82" transform="matrix(0.064 0 0 0.064 -1.45 -1.94)" style="fill:#696969"/><path d="m 90.1 192.7 c -1.11 -1.3 -2.7 -3.66 -3.49 -5.34 c -1.27 -2.52 -1.19 -2.98 0.63 -2.98 c 1.82 0 1.98 -1.14 1.19 -8.93 c -1.19 -11.6 -2.06 -12.9 -8.88 -14.73 c -3.97 -0.99 -7.14 -3.05 -10.39 -6.79 c -5.87 -6.56 -8.65 -6.87 -8.65 -0.92 c 0 4.73 7.14 14.65 11.42 16 c 1.27 0.38 2.93 2.59 3.81 4.88 l 12.93 15.57 l -15.86 -7.78 c -2.3 -1.07 -8.49 -6.79 -13.25 -8.39 c -7.1 -2.44 -9.12 -3.74 -10.55 -6.94 c -0.95 -2.14 -5.23 -8.24 -9.52 -13.58 c -4.28 -5.27 -10.71 -14.8 -14.2 -21.1 c -3.57 -6.33 -8.65 -13.97 -11.34 -16.87 c -9.44 -10.38 -15.39 -18.7 -21.34 -29.91 c -6.82 -12.9 -13.8 -32.74 -13.72 -38.84 c 0.08 -3.51 0.24 -3.66 1.19 -1.22 c 0.79 1.91 2.7 3.05 6.19 3.59 c 5.23 0.84 47 21.83 51.4 25.79 c 1.35 1.22 4.84 5.8 7.69 10.15 c 2.93 4.43 8.09 11.14 11.5 15 c 5.39 6.11 15.7 28.31 12.29 29.1 c -1.11 0.31 -9.84 -18.85 -13.88 -21.1 c -4.68 -2.67 -8.96 -9.84 -8.96 -14.8 c 0 -0.92 -2.78 -4.66 -6.19 -8.39 c -4.44 -4.81 -8.25 -7.48 -13.64 -9.54 c -17.85 -6.72 -24.59 -4.12 -9.36 3.51 c 14.59 7.4 19.2 10.76 17.45 12.9 c -2.38 2.9 -0.71 5.49 4.68 7.33 c 4.36 1.53 5.79 0.84 1.74 3.97 c -2.86 2.21 -2.93 2.52 -0.95 4.81 c 1.19 1.3 2.54 4.58 3 7.17 c 0.56 3.28 2.86 6.79 7.14 11.14 c 6.9 6.94 11.34 8 15.1 3.66 c 3.81 -4.27 15.31 -6.94 30.93 -7.1 c 15.94 -0.15 24.1 1.76 30.46 7.25 c 3.97 3.51 12.93 4.88 12.93 2.06 c 0 -0.69 2.38 -4.04 5.39 -7.33 c 4.2 -4.66 5 -6.33 3.65 -7.17 c -1.43 -0.92 -1.35 -1.68 0.48 -4.5 c 2.46 -3.82 6.27 -6.11 16.1 -9.31 c 7.93 -2.67 8.33 -3.13 7.3 -8.55 c -0.63 -3.28 -1.9 -4.43 -6.5 -6.26 c -3.09 -1.22 -5.71 -2.67 -5.71 -3.21 c 0 -1.37 7.85 -6.26 17.1 -10.76 c 18.2 -8.7 3.41 -8.55 -15.63 0.23 c -6.58 3.05 -30.77 57.84 -36.41 54.87 c -5.47 -2.9 27.68 -55.94 33.71 -61.89 c 10.23 -10.15 27.3 -22.1 31.41 -22.1 c 1.03 0 3.33 -1.14 5.16 -2.59 c 2.46 -1.98 5.31 -2.67 10.55 -2.67 c 6 0 7.3 -0.38 7.38 -2.29 c 0.08 -1.83 0.32 -1.68 1.27 0.61 c 1.43 3.74 -0.56 15.34 -4.6 26.3 c -6.42 17.48 -14.59 31.1 -28.39 47.2 c -4.52 5.34 -12.14 15.95 -16.97 23.58 c -4.84 7.63 -11.1 16.48 -13.88 19.61 c -2.86 3.13 -5.95 7.78 -6.98 10.23 c -2.3 5.72 -5.47 7.78 -16 10.53 c -10.87 2.9 -14.2 4.73 -22.76 12.67 c -7.53 6.94 -11.82 8.17 -15.1 4.27 m 18.88 -14.35 c 2.22 -2.59 7.14 -7.78 10.79 -11.6 c 6.9 -7.1 9.44 -11.75 8.49 -15.87 c -0.71 -3.36 -1.98 -2.9 -7.69 2.9 c -3.49 3.51 -7.14 5.72 -11.26 6.79 c -7.14 1.83 -8.57 4.35 -8.57 14.35 c 0 9.69 1.98 10.53 8.17 3.43" transform="matrix(0.049 0 0 0.051 2.8 2.69)" style="stroke-width:1.21"/><path d="m 135 180.9 c -0.02 1.27 -1.57 2.32 -3.47 2.3 c -1.97 0 -3.52 -1.03 -3.5 -2.3 c -0.01 -1.34 1.54 -2.39 3.49 -2.34 c 1.92 -0.02 3.47 1 3.48 2.34" transform="matrix(0.07 -0.034 0.032 0.073 -6.68 2.44)"/><path d="m 135 180.9 c 0.03 1.29 -1.52 2.34 -3.47 2.3 c -1.92 0.02 -3.47 -1 -3.5 -2.3 c 0.04 -1.31 1.59 -2.36 3.49 -2.34 c 1.97 0 3.52 1.03 3.48 2.34" transform="matrix(-0.07 -0.034 -0.032 0.073 21.61 2.44)"/></g><g transform="scale(0.063)" style="fill:#fff;stroke:#fff"><g style="stroke-width:0.29"><path d="m 107.5 189.5 c -2 -2.38 -3.94 -4.81 -4.25 -5.5 c -0.69 -1.38 -1.75 -2.38 -3.56 -3.38 c -2.69 -1.56 -6.69 -6.63 -7.94 -10.13 c -0.56 -1.69 -0.56 -3.75 0.06 -4.5 c 0.56 -0.75 1.56 -0.13 4.69 2.88 c 4.19 4.13 5.75 5.13 9.81 6.44 c 3.75 1.25 4.94 2.13 5.69 4.13 c 0.94 2.38 2.06 13.44 1.44 13.81 c -0.13 0.06 -0.69 0.25 -1.25 0.38 l -1.06 0.19 m -1.13 -9.75 c 2.94 -1.19 2.13 -5.25 -1.31 -7 c -1.69 -0.81 -3.25 -0.94 -4.75 -0.31 c -1.19 0.5 -1.63 1.19 -1.63 2.63 c 0 1.38 0.63 2.56 1.81 3.5 c 2.13 1.56 4 1.94 5.88 1.19"/><path d="m 125.4 191 c -0.44 -1.94 -0.38 -8.44 0.13 -10.44 c 0.75 -2.94 1.75 -3.81 6 -5.19 c 4.94 -1.63 6.5 -2.63 11.44 -7.19 c 1.38 -1.31 2.75 -2.38 3 -2.38 c 0.5 0 0.94 1.19 0.94 2.44 c 0 1.19 -1.06 3.75 -2.25 5.5 c -1.13 1.63 -6 6.94 -12.75 13.81 c -3.63 3.75 -4.75 4.75 -5.38 4.75 c -0.69 0 -0.81 -0.19 -1.06 -1.31 m 7.88 -7.25 c 2.31 -1.13 3.75 -3.56 3.19 -5.31 c -0.13 -0.44 -0.69 -1.13 -1.25 -1.5 c -1.75 -1.19 -4.5 -0.69 -6.63 1.25 c -1.13 1.06 -1.31 1.38 -1.44 2.69 c -0.19 1.69 0.06 2.13 1.5 3.06 c 1.06 0.63 3 0.56 4.63 -0.19"/></g><g style="stroke-width:1.43"><path d="m 86.2 145.9 c -5.06 -5.06 -9.88 -16.31 -7.88 -18.31 c 2.38 -2.31 2 -3.25 -2 -5 c -1.94 -0.88 -3.56 -2.81 -3.56 -4.31 c 0 -3.19 -2.69 -5.69 -11.88 -11 c -3.81 -2.13 -6.63 -4.19 -6.31 -4.5 c 0.38 -0.38 4.25 0.75 8.63 2.38 c 8.63 3.25 14 8.5 17.56 17 c 1.25 2.88 3.69 6.81 5.56 8.81 c 1.81 1.94 5.06 6.38 7.19 9.88 c 3.13 5 3.5 6.5 2 7.5 c -3.19 2 -5.5 1.44 -9.25 -2.38"/><path d="m 148.8 149.6 c -1.69 -1.06 -1.5 -2 0.88 -5.38 c 1.56 -2.25 6.56 -10.88 11.1 -19.1 c 9.69 -17.56 11.25 -19.63 17.88 -22.38 c 7.25 -3 8.94 -1.5 2.25 2.06 c -3.13 1.69 -7 4.06 -8.56 5.31 c -2.88 2.31 -2.88 2.31 0 4.38 c 5.63 4.13 7.88 6.31 7.88 7.81 c 0 0.88 -3.44 3 -7.56 4.88 c -8.25 3.63 -13.19 8.19 -12.19 11.13 c 0.69 1.81 -6.81 12.63 -8.69 12.56 c -0.56 0 -1.88 -0.56 -3 -1.25"/></g></g></svg>