<svg xmlns="http://www.w3.org/2000/svg" viewBox="0 0 16 16"><path d="m 7.75 0.2 c 10.61 -1.2 11.1 15.99 0.37 15.79 c -9.92 0.57 -11.43 -16.72 -0.37 -15.79" style="fill:#00707d"/><path d="m 5.5 12.26 c -0.5 -0.2 -0.48 -0.02 -0.48 -4.09 c 0 -3.45 0.01 -3.64 0.13 -3.85 c 0.21 -0.39 0.23 -0.39 2.71 -0.39 c 2.59 0.02 3.31 0.07 2 2.08 c -0.3 0.55 -1.52 1.55 -1.56 2.16 c 0 0.18 0.16 0.47 0.45 0.82 c 0.09 0.11 0.14 0.23 0.12 0.26 c 0.48 0.65 1.16 1.37 1.64 2.1 c 0.14 0.22 0.11 0.6 -0.07 0.77 c -0.27 0.24 -0.43 0.26 -2.6 0.26 c -1.95 0 -2.07 0 -2.33 -0.11" style="fill:#fbc60b"/><path d="m 5.07 11.91 c -0.09 -0.2 -0.05 -7.4 0.01 -7.54 c 0.23 -0.33 0.36 -0.32 0.61 -0.44 h 2.06 c 2.23 0 2.29 0.01 2.56 0.3 c 0.09 0.1 0.13 0.22 0.13 0.39 c 0 0.21 -0.07 0.34 -0.59 1.04 c -0.77 1.04 -1.38 1.88 -1.53 2.13 c -0.21 0.35 -0.14 0.6 0.33 1.22 c 0.09 0.12 0.04 0.17 -1.64 1.58 c -0.95 0.8 -1.76 1.46 -1.81 1.46 c -0.04 0 -0.11 -0.06 -0.14 -0.14" style="fill:#1e53f4"/><path d="m 7.08 5.59 l -1.75 -1.48 l 0.22 -0.11 c 0.21 -0.11 0.3 -0.11 2.29 -0.11 c 2.24 0 2.29 0 2.57 0.3 c 0.09 0.1 0.13 0.22 0.13 0.39 c 0 0.23 -0.08 0.36 -0.81 1.34 c -0.45 0.59 -0.83 1.1 -0.85 1.12 c -0.02 0.02 -0.83 -0.63 -1.79 -1.45" style="fill:#27285a"/><path d="m 9.54 10.35 c -1.35 -1.93 -1.37 -1.96 -1.37 -2.19 c 0 -0.25 0.21 -0.59 1.34 -2.16 c 0.5 -0.7 0.95 -1.34 1 -1.41 c 0.07 -0.13 0.08 0.18 0.09 3.55 c 0 2.03 0 3.68 -0.02 3.68 c -0.01 0 -0.48 -0.66 -1.04 -1.47" style="fill:#fff"/></svg>