<svg xmlns="http://www.w3.org/2000/svg" viewBox="0 0 16 16"><path d="m 9.75 0.55 c 14.87 4.86 -1.09 24.2 -8.65 10.54 c -3.24 -5.35 1 -13 8.65 -10.54" style="fill:#ff8c00"/><g style="fill:#fff"><path d="m 5.21 10.14 v 2.12 h -1.15 v -2.12"/><path d="m 11.89 10.1 v 2.12 h -1.15 v -2.12"/><path d="m 2.91 9.39 h 10.1 v 1.15 h -10.1"/><path d="m 10.63 4.16 l 1.88 4.69 l -0.78 0.35 l -1.88 -4.69"/><path d="m 8.52 3.14 v 6 h -2 v -6"/><path d="m 9.66 3.68 v 5.46 h -0.9 v -5.46"/><path d="m 6.25 3.64 v 5.5 h -1.22 v -5.5"/><path d="m 4.78 4.11 v 5.07 h -1 v -5.07"/></g><g style="fill:#ff8c00"><path d="m 8.55 4.21 h -2.08 v -0.36 h 2.08"/><path d="m 8.55 8.49 h -2.08 v -0.36 h 2.08"/><path d="m 9.41 5.4 h -0.47 v -0.68 h 0.47"/><path d="m 5.86 8.78 h -0.46 v -0.36 h 0.46"/><path d="m 5.86 8.13 h -0.46 v -0.36 h 0.46"/><path d="m 4.49 8.96 h -0.32 v -0.36 h 0.32"/><path d="m 4.46 7.45 h -0.32 v -3.05 h 0.32"/><path d="m 5.82 5.94 h -0.32 v -1.87 h 0.32"/></g></svg>