<svg xmlns="http://www.w3.org/2000/svg" viewBox="0 0 16 16"><path d="m 12.23 14.35 c -8.18 5.76 -16.47 -4.87 -9.8 -11.65 c 6.28 -6.39 16 -0.47 12.99 7.48 c -0.63 1.66 -1.68 3.11 -3.18 4.17"/><path d="m 4.09 11.92 c -1.12 -0.31 -2.07 -1.21 -2.42 -2.3 c -0.23 -0.82 -0.16 -1.77 0.16 -2.48 c 0.41 -0.9 1.13 -1.54 2.08 -1.86 c 0.89 -0.29 1.82 -0.07 2.58 0.2 c 0.51 -0.5 1.08 -1.02 1.62 -1.29 c 0.63 -0.31 0.98 -0.41 1.61 -0.45 c 2.4 -0.14 4.46 1.96 4.29 4.38 c -0.12 1.77 -1.22 3.17 -2.95 3.74 c -0.44 0.15 -1.46 0.18 -1.95 0.07 c -0.54 -0.12 -0.96 -0.3 -1.41 -0.58 l -0.4 -0.25 l -0.32 0.23 c -1.26 0.62 -2 0.79 -2.89 0.6" style="fill:#fff"/><path d="m 4.46 11.36 c -0.66 -0.13 -1.11 -0.39 -1.58 -0.89 c -1.52 -1.63 -0.65 -4.21 1.56 -4.66 c 0.59 -0.12 1.05 -0.05 1.73 0.25 c 0.29 0.13 0.56 0.23 0.61 0.23 c 0.05 0 0.19 -0.14 0.32 -0.32 c 0.47 -0.64 1.07 -1.09 1.83 -1.35 c 1.03 -0.29 2.13 -0.14 3.11 0.62 c 0.83 0.66 1.34 1.8 1.27 2.84 c -0.08 1.03 -0.46 1.76 -1.27 2.46 c -0.82 0.7 -2.08 0.96 -3.05 0.63 c -0.52 -0.18 -0.9 -0.38 -1.26 -0.66 c -0.16 -0.13 -0.33 -0.23 -0.37 -0.23 c -0.43 0.23 -0.72 0.59 -1.18 0.82 c -0.55 0.2 -1.2 0.35 -1.71 0.26" style="fill:#fc6400"/></svg>