<svg xmlns="http://www.w3.org/2000/svg" xmlns:xlink="http://www.w3.org/1999/xlink" viewBox="0 0 16 16"><defs><g id="3" style="clip-path:url(#2)"><path d="m 6.53 12.2 c -0.62 0.01 -0.86 -0.08 -1.2 -0.48 c -0.21 -0.24 -0.27 -0.27 -0.71 -0.29 c -0.55 -0.04 -0.84 -0.21 -1.17 -0.69 c -0.43 -0.54 -0.88 -0.05 -1.01 -0.86 c -0.76 -1 0.18 -1.55 0.01 -1.92 c -0.44 -0.89 -0.2 -1.93 -0.04 -2.13 c 0.13 -0.16 0.36 -0.36 0.5 -0.45 c 0.15 -0.08 0.38 -0.3 0.53 -0.49 c 0.39 -0.52 0.68 -0.69 1.18 -0.69 c 0.4 0 0.44 -0.02 0.79 -0.36 c 0.35 -0.41 0.43 -0.36 0.95 -0.36 c 0.32 0 0.78 0.32 1.02 0.27 c 0.36 -0.08 0.51 -0.45 0.83 -0.37 c 0.82 0.22 1.51 -0.31 2.07 0.64 c 0.09 0.14 0.2 0.17 0.64 0.2 c 0.61 -0.04 0.67 0.17 1.08 0.6 c 0.3 0.31 0.69 0.68 0.86 0.82 c 0.25 0.21 0.34 0.35 0.46 0.79 c 0.23 0.77 -0.04 1.14 -0.11 1.61 c -0.04 0.23 0.47 0.61 0.18 1.14 c 0.02 0.86 -0.95 0.78 -1.16 1.33 c -0.02 0.07 -0.21 0.3 -0.42 0.51 c -0.37 0.36 -0.39 0.38 -0.89 0.41 c -0.47 0.03 -0.53 0.05 -0.73 0.29 c -0.32 0.39 -0.58 0.5 -1.2 0.48 c -0.3 -0.01 -0.68 0.02 -0.84 0.05 c -0.93 -0.73 -0.22 -0.11 -1.61 -0.05 m 2.6 -2.77 c 0.7 -0.37 2.03 -1.56 2.03 -1.72 c 0 -0.2 -1.37 -1.21 -1.97 -1.51 c -0.82 -0.4 -1.72 -0.49 -2.28 -0.21 c -1.29 0.63 -2.38 1.3 -2.51 1.68 c 0 0.16 1.33 1.34 2.18 1.79 c 0.99 0.52 1.65 0.45 2.54 -0.02" style="fill:#fff"/></g><clipPath id="2"><path d="M 0,0 H16 V16 H0 z"/></clipPath><filter id="0" filterUnits="objectBoundingBox" x="0" y="0" width="16" height="16"><feColorMatrix type="matrix" in="SourceGraphic" values="0 0 0 0 1 0 0 0 0 1 0 0 0 0 1 0 0 0 1 0"/></filter><mask id="1"><g style="filter:url(#0)"><path d="M 0,0 H16 V16 H0 z" style="fill-opacity:0.5"/></g></mask></defs><path d="m 13.18 12.95 c -6.47 8.41 -18.2 -2.92 -10.69 -10.36 c 6.43 -7.45 18.89 3.2 10.69 10.36" style="fill:#2c2c2c"/><path d="m 9.54 7.78 c 0 1 -0.8 1.8 -1.78 1.8 c -0.98 0 -1.78 -0.8 -1.78 -1.8 c 0 -1 0.8 -1.8 1.78 -1.8 c 0.98 0 1.78 0.8 1.78 1.8" style="fill:#fff"/><use xlink:href="#3" style="mask:url(#1)"/><g style="fill:#2c2c2c"><path d="m 6.89 7.79 v -1.05 h 0.62 c 0.34 0 0.66 0.01 0.71 0.02 c 0.14 0.03 0.28 0.1 0.36 0.19 c 0.21 0.23 0.15 0.58 -0.13 0.74 l -0.08 0.05 l 0.11 0.05 c 0.22 0.11 0.32 0.25 0.32 0.47 c 0 0.27 -0.16 0.45 -0.47 0.54 c -0.12 0.03 -0.19 0.04 -0.79 0.04 h -0.65 m 1.23 -0.5 c 0.07 -0.04 0.11 -0.09 0.11 -0.17 c 0 -0.16 -0.09 -0.2 -0.47 -0.2 h -0.29 v 0.41 h 0.3 c 0.24 -0.01 0.31 -0.01 0.36 -0.04 m -0.05 -0.82 c 0.09 -0.07 0.09 -0.21 0 -0.28 c -0.04 -0.03 -0.07 -0.04 -0.32 -0.04 h -0.28 v 0.38 h 0.28 c 0.25 -0.01 0.28 -0.01 0.32 -0.04"/><path d="m 7.17 6.34 h 0.37 v 0.67 h -0.37"/><path d="m 7.8 6.34 h 0.37 v 0.67 h -0.37"/><path d="m 7.15 8.48 h 0.37 v 0.71 h -0.37"/><path d="m 7.79 8.48 h 0.37 v 0.71 h -0.37"/></g></svg>