<svg xmlns="http://www.w3.org/2000/svg" viewBox="0 0 16 16" xmlns:xlink="http://www.w3.org/1999/xlink"><defs><linearGradient id="7" gradientUnits="userSpaceOnUse" x1="2.45" y1="10.13" x2="2.2" y2="9.64" gradientTransform="matrix(0.543 0 0 0.59 2.8 2.88)" xlink:href="#1"/><linearGradient id="C" gradientUnits="userSpaceOnUse" x1="4.66" y1="4.27" x2="5.25" y2="3.93" gradientTransform="matrix(0.543 0 0 0.59 2.8 2.88)" xlink:href="#0"/><linearGradient id="8" gradientUnits="userSpaceOnUse" x1="3.63" y1="9.27" x2="2.93" y2="11.56" gradientTransform="matrix(0.543 0 0 0.59 2.8 2.88)" xlink:href="#1"/><linearGradient id="A" gradientUnits="userSpaceOnUse" x1="118.9" y1="63.1" x2="117.9" y2="78.7" gradientTransform="matrix(0.08 0 0 0.083 1.94 -1.52)"><stop style="stop-color:#007f66;stop-opacity:0"/><stop offset="1" style="stop-color:#0fc"/></linearGradient><linearGradient id="B" gradientUnits="userSpaceOnUse" x1="103.5" y1="21.85" x2="103.1" y2="27.94" gradientTransform="matrix(0.098 0 0 0.103 1.55 7.92)" xlink:href="#A"/><linearGradient id="9" gradientUnits="userSpaceOnUse" x1="8.5" y1="14.54" x2="9.13" y2="13.46" gradientTransform="matrix(0.543 0 0 0.59 2.8 2.88)" xlink:href="#1"/><linearGradient id="6" gradientUnits="userSpaceOnUse" x1="5.47" y1="14.66" x2="4.79" y2="14.31" gradientTransform="matrix(0.543 0 0 0.59 2.8 2.88)" xlink:href="#0"/><linearGradient id="0" gradientUnits="userSpaceOnUse" y1="8.6" x2="0" y2="8.96" gradientTransform="matrix(0.543 0 0 0.59 2.8 2.88)"><stop style="stop-color:#001212"/><stop offset="1" style="stop-color:#001212;stop-opacity:0"/></linearGradient><linearGradient id="5" gradientUnits="userSpaceOnUse" x1="3.29" y1="12.41" x2="4.56" y2="12.4" gradientTransform="matrix(0.543 0 0 0.59 2.8 2.88)" xlink:href="#1"/><linearGradient id="1" gradientUnits="userSpaceOnUse" x1="7.37" y1="2.11" x2="6.32" y2="4.08" gradientTransform="matrix(0.543 0 0 0.59 2.8 2.88)"><stop style="stop-color:#020202"/><stop offset="1" style="stop-color:#020202;stop-opacity:0"/></linearGradient><linearGradient id="3" gradientUnits="userSpaceOnUse" x1="2.8" y1="8.76" x2="1.97" y2="7.25" gradientTransform="matrix(0.543 0 0 0.59 2.8 2.88)" xlink:href="#1"/><linearGradient id="4" gradientUnits="userSpaceOnUse" x1="4.92" y1="5.31" x2="3.74" y2="5.3" gradientTransform="matrix(0.543 0 0 0.59 2.8 2.88)" xlink:href="#1"/><linearGradient id="2" gradientUnits="userSpaceOnUse" x1="1022.5" y1="1582.4" x2="1018.6" y2="1575.6" gradientTransform="matrix(0.047 0 0 0.048 -40.2 -70.91)" xlink:href="#1"/></defs><path d="m 0.76 10.98 c -6 -19.45 26.3 -9.73 11.18 3.6 c -3 2.67 -9.56 1.64 -11.18 -3.6" style="fill:#2f4e4e"/><path d="m 5.15 4 h 4.53 l -1.14 2.16 h -2.46 l -1.03 1.92 l 1.04 1.96 h 4.79 l -1.18 2.21 h -4.65 l -2.25 -4.22 l 2.15 -4" style="fill:#fff"/><g style="fill:#00aa87"><path d="m 4.96 4 l 3.58 2.18 l 1.14 -2.15"/><path d="m 6.11 10 l -1.04 2.21 h 4.65 l 1.18 -2.21"/></g><path d="m 4.96 4 l 3.58 2.18 h -2.46 l -1.02 1.93 l 1.04 1.95 l -1.04 2.21 l -2.25 -4.22 l 2.15 -4" style="fill:#0cf"/><path d="m 2.81 8 l 2.25 0.06 l 0.07 0.12 l -2.23 -0.05" style="fill:url(#0)"/><path d="m 8.54 6.17 l -3.58 -2.18 l -0.27 0.53 l 2.71 1.63" style="fill:url(#1)"/><path d="m 6.1 6.15 l 3.64 -2.23 l -1.18 2.1" style="fill:url(#2)"/><g style="fill:#00aa87"><path d="m 6.1 6.17 l 3.6 -2.15 l -1.14 2.15"/><path d="m 2.81 8 l 3.26 -1.87 l -1.03 1.93"/></g><path d="m 2.81 8 l 3.26 -1.87 l -0.22 -0.38 l -2.82 1.77" style="fill:url(#3)"/><path d="m 6.1 6.17 l -1.12 -2.18 l 0.1 4.1" style="fill:#00aa87"/><path d="m 6.11 10 l 3.61 2.21 l 1.18 -2.21" style="fill:#0cf"/><path d="m 4.96 4 l -0.27 0.53 l 0.03 3.54 l 0.34 0.02" style="fill:url(#4)"/><path d="m 5.1 8.1 l -1.71 0.93 l 1.71 3.23" style="fill:#00aa87"/><path d="m 5.1 8.1 v 4.19 l 0.42 -0.89 l 0.04 -2.44" style="fill:url(#5)"/><path d="m 5.1 12.26 l -0.16 -0.32 l 1.04 -2.18 l 0.16 0.29" style="fill:url(#6)"/><path d="m 3.34 9 l 1.71 -0.93 l -0.34 -0.02 l -1.49 0.77" style="fill:url(#7)"/><path d="m 3.34 9 l 2.75 1.02 l -1.04 -1.96" style="fill:#00aa87"/><path d="m 6.11 10 l -2.75 -1.02 l 0.3 0.56 l 2.27 0.89" style="fill:url(#8)"/><path d="m 6.11 10 l 3.61 2.21 l 0.43 -0.84 l -2.33 -1.39" style="fill:url(#9)"/><path d="m 12.1 4.71 c 0 0.44 -0.35 0.8 -0.77 0.8 c -0.43 0 -0.77 -0.36 -0.77 -0.8 c 0 -0.44 0.35 -0.8 0.77 -0.8 c 0.43 0 0.77 0.36 0.77 0.8" style="fill:#0cf"/><path d="m 12.13 4.71 c 0 0.44 -0.35 0.8 -0.77 0.8 c -0.43 0 -0.77 -0.36 -0.77 -0.8 c 0 -0.44 0.35 -0.8 0.77 -0.8 c 0.43 0 0.77 0.36 0.77 0.8" style="fill:url(#A)"/><path d="m 12.1 10.66 c 0 0.21 -0.17 0.39 -0.37 0.39 c -0.21 0 -0.38 -0.18 -0.38 -0.39 c 0 -0.21 0.17 -0.39 0.38 -0.39 c 0.2 0 0.37 0.17 0.37 0.39" style="fill:#0cf"/><path d="m 12.1 10.66 c 0 0.21 -0.17 0.39 -0.37 0.39 c -0.21 0 -0.38 -0.18 -0.38 -0.39 c 0 -0.21 0.17 -0.39 0.38 -0.39 c 0.2 0 0.37 0.17 0.37 0.39" style="fill:url(#B)"/><path d="m 6.1 6.17 l -1.12 -2.18 h 0.29 l 1.05 2.04" style="fill:url(#C)"/><path d="m 10.25 5.69 c -0.09 0 -0.16 0.07 -0.16 0.17 v 0.39 c -0.14 0.04 -0.27 0.09 -0.38 0.16 l -0.27 -0.28 c -0.07 -0.06 -0.17 -0.06 -0.23 0 l -0.27 0.27 c -0.07 0.06 -0.07 0.17 0 0.23 l 0.27 0.28 c -0.07 0.12 -0.13 0.25 -0.16 0.39 h -0.38 c -0.09 0 -0.16 0.07 -0.16 0.16 v 0.38 c 0 0.09 0.07 0.17 0.16 0.17 h 0.38 c 0.04 0.14 0.09 0.27 0.16 0.39 l -0.27 0.28 c -0.07 0.07 -0.07 0.17 0 0.23 l 0.27 0.27 c 0.06 0.07 0.16 0.07 0.23 0 l 0.27 -0.27 c 0.12 0.07 0.25 0.13 0.38 0.16 v 0.39 c 0 0.09 0.07 0.16 0.16 0.16 h 0.38 c 0.09 0 0.16 -0.07 0.16 -0.16 v -0.39 c 0.14 -0.04 0.27 -0.09 0.38 -0.16 l 0.27 0.27 c 0.06 0.07 0.16 0.07 0.23 0 l 0.27 -0.27 c 0.06 -0.07 0.06 -0.17 0 -0.23 l -0.27 -0.28 c 0.07 -0.12 0.13 -0.25 0.16 -0.39 h 0.39 c 0.09 0 0.16 -0.07 0.16 -0.17 v -0.38 c 0 -0.09 -0.07 -0.16 -0.16 -0.16 h -0.39 c -0.04 -0.14 -0.09 -0.27 -0.16 -0.39 l 0.27 -0.28 c 0.06 -0.06 0.06 -0.17 0 -0.23 l -0.27 -0.27 c -0.07 -0.06 -0.17 -0.06 -0.23 0 l -0.27 0.28 c -0.12 -0.07 -0.25 -0.13 -0.38 -0.16 v -0.39 c 0 -0.09 -0.07 -0.17 -0.16 -0.17 m -0.19 1.3 c 0.37 0 0.66 0.3 0.66 0.67 c 0 0.37 -0.3 0.68 -0.66 0.68 c -0.36 0 -0.66 -0.3 -0.66 -0.68 c 0 -0.37 0.3 -0.67 0.66 -0.67" style="fill:#0cf"/><path d="m 10.27 8.64 c -0.45 -0.09 -0.76 -0.39 -0.84 -0.8 c -0.02 -0.12 -0.02 -0.32 0.02 -0.44 c 0.14 -0.5 0.62 -0.84 1.11 -0.78 c 0.41 0.05 0.72 0.29 0.87 0.64 c 0.09 0.22 0.09 0.5 0 0.73 c -0.12 0.31 -0.39 0.55 -0.71 0.63 c -0.09 0.02 -0.34 0.03 -0.44 0.01 m 0.32 -0.45 c 0.21 -0.04 0.4 -0.22 0.45 -0.42 c 0.01 -0.03 0.01 -0.09 0.01 -0.14 c 0 -0.16 -0.05 -0.28 -0.16 -0.39 c -0.19 -0.19 -0.47 -0.23 -0.71 -0.11 c -0.36 0.18 -0.43 0.65 -0.13 0.92 c 0.14 0.13 0.36 0.18 0.55 0.14" style="fill:#00aa87"/></svg>