<svg xmlns="http://www.w3.org/2000/svg" viewBox="0 0 16 16"><path d="m 15.29 6.5 c -1.59 -10.67 -17.98 -7 -14.88 3.3 c 2.08 9.81 18.85 7.16 14.88 -3.3" style="fill:#d1b38c"/><path d="m 6.73 4.07 h 2.5 v 8.16 h -2.5" style="fill:#e2c3a9"/><path d="m 9.36 12.29 l -0.66 -0.02 l -0.01 -0.32 c -0.02 -0.46 -0.03 -0.47 -0.8 -0.47 c -0.78 0 -0.8 0.01 -0.8 0.45 v 0.32 c -0.91 0 -1.82 0 -2.73 0 c -0.27 -0.08 -0.29 -0.25 -0.38 -0.4 c -0.09 -0.14 -0.09 -0.22 -0.1 -3.54 c -0.01 -3.6 0 -3.71 0.19 -3.92 c 0.05 -0.05 0.16 -0.14 0.24 -0.19 c 0.14 -0.09 0.2 -0.09 1.48 -0.11 l 1.33 -0.02 c 0.05 0.15 0.05 0.32 0.05 0.46 c 0 0.38 0.01 0.38 0.78 0.38 c 0.77 0 0.76 0.01 0.76 -0.5 v -0.33 c 0.91 0 1.82 0 2.72 0 c 0.25 0.15 0.44 0.3 0.57 0.63 v 2.28 c 0 2.15 -0.01 2.27 -0.08 2.25 c -1.69 1.14 -1.39 3.06 -2.58 3.06" style="fill:#ca9a6a"/><path d="m 13.63 11.39 c 0 1.28 -1.04 2.31 -2.31 2.31 c -1.28 0 -2.31 -1.03 -2.31 -2.31 c 0 -1.27 1.04 -2.31 2.31 -2.31 c 1.28 0 2.31 1.04 2.31 2.31" style="fill:#5cab5c"/><path d="m 7.41 10.25 c -0.39 -0.11 -0.7 -0.29 -1 -0.59 c -0.33 -0.33 -0.5 -0.64 -0.6 -1.14 c -0.21 -0.98 0.38 -2.06 1.35 -2.45 c 0.43 -0.15 1.1 -0.2 1.61 0 c 0.96 0.38 1.55 1.45 1.35 2.44 c -0.1 0.5 -0.27 0.81 -0.6 1.15 c -0.56 0.55 -1.38 0.79 -2.09 0.59 m 1.22 -0.52 c 0.36 -0.16 0.75 -0.55 0.93 -0.91 c 0.2 -0.48 0.21 -0.98 0.01 -1.39 c -0.19 -0.37 -0.55 -0.73 -0.93 -0.91 c -0.5 -0.23 -1.03 -0.17 -1.4 0.02 c -0.4 0.2 -0.69 0.49 -0.89 0.91 c -0.18 0.46 -0.2 0.93 -0.02 1.34 c 0.2 0.43 0.49 0.77 1.13 1.03 c 0.27 0.11 0.86 0.06 1.17 -0.08 m -1.86 -1.77 c 0.23 -0.09 0.41 -0.08 0.68 -0.1 c 0.04 -0.28 -0.04 -0.63 0.07 -0.89 c 0.07 -0.08 0.8 -0.08 0.87 0 c 0.07 0.31 0.06 0.56 0.07 0.89 c 0.13 0.02 0.66 0 0.66 0.12 c -0.01 0.11 -1.07 1.26 -1.17 1.27 c -0.34 -0.34 -0.82 -0.83 -1.18 -1.29" style="fill:#2d2116"/><g style="fill:#fff"><path d="m 10.86 9.94 h 0.86 v 2.95 h -0.86"/><path d="m 12.76 10.99 v 0.86 h -2.95 v -0.86"/></g></svg>