<svg xmlns="http://www.w3.org/2000/svg" viewBox="0 0 16 16" xmlns:xlink="http://www.w3.org/1999/xlink"><defs><linearGradient id="8" gradientUnits="userSpaceOnUse" x1="25.86" y1="65.4" x2="21.1" y2="80.98" gradientTransform="matrix(0.074 0 0 0.081 3.04 3)" xlink:href="#1"/><linearGradient id="D" gradientUnits="userSpaceOnUse" x1="32.85" y1="31.3" x2="36.85" y2="29" gradientTransform="matrix(0.074 0 0 0.081 3.04 3)" xlink:href="#0"/><linearGradient id="9" gradientUnits="userSpaceOnUse" x1="58.99" y1="101.3" x2="63.3" y2="93.9" gradientTransform="matrix(0.074 0 0 0.081 3.04 3)" xlink:href="#1"/><linearGradient id="B" gradientUnits="userSpaceOnUse" x1="93.9" y1="45.71" x2="93.1" y2="57.5" gradientTransform="matrix(0.074 0 0 0.081 3 2.77)" xlink:href="#A"/><linearGradient id="C" gradientUnits="userSpaceOnUse" x1="103.5" y1="21.85" x2="103.1" y2="27.93" gradientTransform="matrix(0.074 0 0 0.081 3.04 3)" xlink:href="#A"/><linearGradient id="A" gradientUnits="userSpaceOnUse" x1="119" y1="63.1" x2="117.9" y2="78.7" gradientTransform="matrix(0.074 0 0 0.081 2.7 2.95)"><stop style="stop-color:#007f66;stop-opacity:0"/><stop offset="1" style="stop-color:#0fc"/></linearGradient><linearGradient id="7" gradientUnits="userSpaceOnUse" x1="17.85" y1="71.2" x2="16.2" y2="67.93" gradientTransform="matrix(0.074 0 0 0.081 3.04 3)" xlink:href="#1"/><linearGradient id="0" gradientUnits="userSpaceOnUse" x1="14.93" y1="60.86" x2="14.9" y2="63.3" gradientTransform="matrix(0.074 0 0 0.081 3.04 3)"><stop style="stop-color:#001212"/><stop offset="1" style="stop-color:#001212;stop-opacity:0"/></linearGradient><linearGradient id="1" gradientUnits="userSpaceOnUse" x1="51.3" y1="16.58" x2="44.2" y2="30" gradientTransform="matrix(0.074 0 0 0.081 3.04 3)"><stop style="stop-color:#020202"/><stop offset="1" style="stop-color:#020202;stop-opacity:0"/></linearGradient><linearGradient id="6" gradientUnits="userSpaceOnUse" x1="38.4" y1="102.1" x2="33.72" y2="99.8" gradientTransform="matrix(0.074 0 0 0.081 3.04 3)" xlink:href="#0"/><linearGradient id="2" gradientUnits="userSpaceOnUse" x1="1022.5" y1="1582.4" x2="1018.6" y2="1575.6" gradientTransform="matrix(0.044 0 0 0.045 -36.77 -65.7)" xlink:href="#1"/><linearGradient id="4" gradientUnits="userSpaceOnUse" x1="34.6" y1="38.42" x2="26.62" y2="38.4" gradientTransform="matrix(0.074 0 0 0.081 3.04 3)" xlink:href="#1"/><linearGradient id="5" gradientUnits="userSpaceOnUse" x1="23.51" y1="86.8" x2="32.2" y2="86.7" gradientTransform="matrix(0.074 0 0 0.081 3.04 3)" xlink:href="#1"/><linearGradient id="3" gradientUnits="userSpaceOnUse" x1="20.2" y1="61.91" x2="14.56" y2="51.61" gradientTransform="matrix(0.074 0 0 0.081 3.04 3)" xlink:href="#1"/></defs><path d="m 0.76 10.98 c -6 -19.45 26.3 -9.73 11.18 3.6 c -3 2.67 -9.56 1.64 -11.18 -3.6" style="fill:#3d4e7f"/><g style="fill:#fff"><path d="m 5.31 4.25 h 4.21 l -1.06 2 h -2.28 l -0.95 1.79 l 0.96 1.82 h 4.45 l -1.09 2.06 h -4.32 l -2.08 -3.94 l 2 -3.77"/><path d="m 5.13 4.23 l 3.32 2.03 l 1.06 -2"/><path d="m 6.18 9.88 l -0.96 2.07 h 4.32 l 1.09 -2.07"/></g><path d="m 5.13 4.23 l 3.32 2.03 h -2.28 l -0.95 1.79 l 0.96 1.82 l -0.96 2.06 l -2.08 -3.94 l 2 -3.77" style="fill:#0cf"/><path d="m 3.14 8 l 2.08 0.06 l 0.06 0.11 l -2.07 -0.05" style="fill:url(#0)"/><path d="m 8.45 6.26 l -3.32 -2.03 l -0.25 0.5 l 2.52 1.53" style="fill:url(#1)"/><path d="m 6.15 6.24 l 3.38 -2.09 l -1.09 1.96" style="fill:url(#2)"/><g style="fill:#fff"><path d="m 6.17 6.26 l 3.35 -2 l -1.06 2"/><path d="m 3.14 8 l 3.04 -1.74 l -0.95 1.79"/></g><path d="m 3.14 8 l 3.04 -1.74 l -0.21 -0.35 l -2.61 1.66" style="fill:url(#3)"/><path d="m 6.17 6.26 l -1.04 -2.03 l 0.09 3.83" style="fill:#fff"/><path d="m 6.18 9.88 l 3.36 2.07 l 1.09 -2.07" style="fill:#0cf"/><path d="m 5.13 4.23 l -0.25 0.5 l 0.02 3.32 l 0.32 0.02" style="fill:url(#4)"/><path d="m 5.22 8.1 l -1.59 0.88 l 1.59 3" style="fill:#fff"/><path d="m 5.22 8.1 v 3.89 l 0.39 -0.83 l 0.03 -2.28" style="fill:url(#5)"/><path d="m 5.22 11.94 l -0.15 -0.29 l 0.97 -2.04 l 0.15 0.27" style="fill:url(#6)"/><path d="m 3.63 8.93 l 1.59 -0.87 l -0.32 -0.02 l -1.38 0.72" style="fill:url(#7)"/><path d="m 3.63 8.93 l 2.55 0.95 l -0.96 -1.82" style="fill:#fff"/><path d="m 6.18 9.88 l -2.55 -0.95 l 0.28 0.52 l 2.1 0.84" style="fill:url(#8)"/><path d="m 6.18 9.88 l 3.36 2.07 l 0.4 -0.79 l -2.16 -1.3" style="fill:url(#9)"/><path d="m 12.16 9 c 0 0.43 -0.32 0.79 -0.72 0.79 c -0.4 0 -0.72 -0.35 -0.72 -0.79 c 0 -0.43 0.32 -0.78 0.72 -0.78 c 0.39 0 0.72 0.35 0.72 0.78" style="fill:#0cf"/><path d="m 12.17 9 c 0 0.43 -0.32 0.79 -0.72 0.79 c -0.4 0 -0.72 -0.35 -0.72 -0.79 c 0 -0.43 0.32 -0.78 0.72 -0.78 c 0.39 0 0.72 0.35 0.72 0.78" style="fill:url(#A)"/><path d="m 10.47 7.22 c 0 0.33 -0.24 0.6 -0.55 0.6 c -0.3 0 -0.54 -0.27 -0.54 -0.6 c 0 -0.33 0.24 -0.59 0.54 -0.59 c 0.3 0 0.55 0.27 0.55 0.59" style="fill:#0cf"/><path d="m 10.48 7.22 c 0 0.33 -0.25 0.59 -0.55 0.59 c -0.3 0 -0.54 -0.27 -0.54 -0.59 c 0 -0.33 0.24 -0.6 0.54 -0.6 c 0.3 0 0.55 0.27 0.55 0.6" style="fill:url(#B)"/><path d="m 10.96 5.16 c 0 0.17 -0.13 0.31 -0.28 0.31 c -0.16 0 -0.28 -0.14 -0.28 -0.31 c 0 -0.17 0.13 -0.3 0.28 -0.3 c 0.16 0 0.28 0.14 0.28 0.3" style="fill:#0cf"/><path d="m 10.96 5.16 c 0 0.17 -0.13 0.3 -0.28 0.3 c -0.16 0 -0.28 -0.14 -0.28 -0.3 c 0 -0.17 0.13 -0.31 0.28 -0.31 c 0.16 0 0.28 0.14 0.28 0.31" style="fill:url(#C)"/><path d="m 6.17 6.26 l -1.04 -2.03 h 0.26 l 0.98 1.9" style="fill:url(#D)"/></svg>