<svg xmlns="http://www.w3.org/2000/svg" viewBox="0 0 16 16"><path d="m 0.19 9.82 c 0.99 6.46 9.8 8.19 13.69 3.57 c 3.43 -3.42 2.57 -9.98 -1.63 -12.23 c -4.83 -3 -11.86 0.71 -12.24 6.7 c -0.04 0.66 0.02 1.32 0.17 1.96" style="fill:#871434"/><path d="m 10.97 8.1 c 0 1.62 -1.29 2.93 -2.88 2.93 c -1.59 0 -2.88 -1.31 -2.88 -2.93 c 0 -1.61 1.29 -2.93 2.88 -2.93 c 1.59 0 2.88 1.31 2.88 2.93" style="fill:#2f2f2f"/><path d="m 8.09 3.68 c -2.59 0 -4.68 2.13 -4.68 4.75 c 0 2.63 2.09 4.75 4.68 4.75 c 2.59 0 4.68 -2.13 4.68 -4.75 c 0 -2.63 -2.09 -4.75 -4.68 -4.75 m -0.25 2.59 c 0.07 0.25 0.16 0.52 0.25 0.71 c 0.09 -0.19 0.19 -0.46 0.25 -0.71 c 0.41 0.05 0.79 0.21 1.1 0.47 c -0.1 0.18 -0.2 0.39 -0.28 0.6 c 0.21 -0.07 0.41 -0.17 0.59 -0.28 c 0.25 0.32 0.42 0.71 0.47 1.11 c -0.24 0.07 -0.51 0.17 -0.7 0.26 c 0.19 0.09 0.46 0.19 0.7 0.26 c -0.05 0.41 -0.21 0.8 -0.47 1.12 c -0.18 -0.11 -0.38 -0.21 -0.59 -0.28 c 0.07 0.21 0.17 0.42 0.28 0.6 c -0.32 0.26 -0.7 0.43 -1.1 0.47 c -0.07 -0.25 -0.16 -0.51 -0.25 -0.7 c -0.09 0.19 -0.19 0.46 -0.25 0.7 c -0.41 -0.05 -0.79 -0.21 -1.1 -0.47 c 0.1 -0.18 0.21 -0.39 0.28 -0.6 c -0.21 0.07 -0.41 0.17 -0.59 0.28 c -0.25 -0.32 -0.42 -0.71 -0.47 -1.12 c 0.24 -0.07 0.51 -0.16 0.7 -0.26 c -0.19 -0.09 -0.46 -0.19 -0.7 -0.26 c 0.05 -0.41 0.21 -0.79 0.47 -1.11 c 0.18 0.11 0.38 0.21 0.59 0.28 c -0.07 -0.21 -0.17 -0.42 -0.28 -0.6 c 0.32 -0.26 0.7 -0.42 1.1 -0.47" style="fill-opacity:0.1"/><path d="m 8.09 3.31 c -2.59 0 -4.68 2.13 -4.68 4.75 c 0 2.63 2.09 4.76 4.68 4.76 c 2.59 0 4.68 -2.13 4.68 -4.76 c 0 -2.63 -2.09 -4.75 -4.68 -4.75 m 0 2.56 c 1.19 0 2.16 0.98 2.16 2.2 c 0 1.21 -0.97 2.2 -2.16 2.2 c -1.19 0 -2.16 -0.98 -2.16 -2.2 c 0 -1.21 0.97 -2.2 2.16 -2.2" style="fill:#63263f"/><path d="m 8.09 6.6 c 0.18 -0.37 0.36 -1.02 0.36 -1.25 c 0 -0.29 -0.72 -0.29 -0.72 0 c 0 0.22 0.18 0.88 0.36 1.25 m 0 2.93 c 0.18 0.37 0.36 1.02 0.36 1.24 c 0 0.29 -0.72 0.29 -0.72 0 c 0 -0.22 0.18 -0.88 0.36 -1.24 m -1.44 -1.46 c -0.36 0.18 -1 0.37 -1.22 0.37 c -0.29 0 -0.29 -0.73 0 -0.73 c 0.21 0 0.86 0.18 1.22 0.36 m 2.88 0 c 0.36 0.18 1 0.37 1.22 0.37 c 0.29 0 0.29 -0.73 0 -0.73 c -0.21 0 -0.86 0.18 -1.22 0.36 m -3.6 -1.83 c 0 -0.18 0.18 -0.37 0.36 -0.37 c 0.14 0 0.54 0.55 0.72 1.1 c -0.54 -0.18 -1.08 -0.58 -1.08 -0.73 m 0 3.66 c 0 0.18 0.18 0.36 0.36 0.36 c 0.14 0 0.54 -0.55 0.72 -1.1 c -0.54 0.18 -1.08 0.59 -1.08 0.73 m 4.32 -3.66 c 0 -0.18 -0.18 -0.37 -0.36 -0.37 c -0.14 0 -0.54 0.55 -0.72 1.1 c 0.54 -0.18 1.08 -0.58 1.08 -0.73 m 0 3.66 c 0 0.18 -0.18 0.36 -0.36 0.36 c -0.14 0 -0.54 -0.55 -0.72 -1.1 c 0.54 0.18 1.08 0.59 1.08 0.73" style="fill:#b19b80"/><path d="m 8.09 2.94 c -2.98 0 -5.4 2.46 -5.4 5.49 c 0 3 2.42 5.49 5.4 5.49 c 2.98 0 5.4 -2.46 5.4 -5.49 c 0 -3 -2.42 -5.49 -5.4 -5.49 m 0 1.1 c 0.46 0 0.91 0.08 1.35 0.22 c -0.14 0.4 -0.27 1 -0.27 1.61 c 0.46 -0.46 0.79 -0.93 0.99 -1.29 c 0.72 0.41 1.32 1.02 1.71 1.75 c -0.35 0.2 -0.8 0.54 -1.26 1 c 0.59 0 1.18 -0.13 1.57 -0.27 c 0.29 0.89 0.29 1.84 0 2.73 c -0.39 -0.14 -0.98 -0.27 -1.57 -0.27 c 0.46 0.46 0.91 0.8 1.26 1 c -0.39 0.74 -0.99 1.35 -1.71 1.75 c -0.2 -0.36 -0.53 -0.82 -0.99 -1.29 c 0 0.61 0.13 1.21 0.27 1.61 c -0.44 0.14 -0.89 0.22 -1.35 0.22 c -0.46 0 -0.91 -0.08 -1.35 -0.22 c 0.14 -0.4 0.27 -1 0.27 -1.61 c -0.46 0.47 -0.79 0.94 -0.99 1.29 c -0.72 -0.41 -1.32 -1.02 -1.71 -1.75 c 0.35 -0.2 0.8 -0.54 1.26 -1 c -0.59 0 -1.18 0.13 -1.57 0.27 c -0.29 -0.89 -0.29 -1.84 0 -2.73 c 0.39 0.14 0.98 0.27 1.57 0.27 c -0.46 -0.46 -0.91 -0.8 -1.26 -1 c 0.39 -0.74 0.99 -1.35 1.71 -1.75 c 0.2 0.36 0.53 0.82 0.99 1.29 c 0 -0.6 -0.13 -1.21 -0.27 -1.61 c 0.44 -0.14 0.89 -0.22 1.35 -0.22" style="fill-opacity:0.1"/><path d="m 6.65 3.68 c 0.18 0.36 0.36 1.1 0.36 1.83 c -0.54 -0.55 -0.9 -1.1 -1.08 -1.46 m -2.16 2.56 c 0.36 0.18 1.08 0.36 1.8 0.36 c -0.54 -0.55 -1.08 -0.91 -1.44 -1.1 m 2.52 6.59 c 0.18 -0.37 0.36 -1.1 0.36 -1.83 c -0.54 0.55 -0.9 1.1 -1.08 1.46 m -2.16 -2.56 c 0.36 -0.18 1.08 -0.37 1.8 -0.37 c -0.54 0.55 -1.08 0.91 -1.44 1.1 m 5.4 -6.58 c -0.18 0.36 -0.36 1.1 -0.36 1.83 c 0.54 -0.55 0.9 -1.1 1.08 -1.46 m 2.16 2.56 c -0.36 0.18 -1.08 0.36 -1.8 0.36 c 0.54 -0.55 1.08 -0.91 1.44 -1.1 m -2.52 6.59 c -0.18 -0.37 -0.36 -1.1 -0.36 -1.83 c 0.54 0.55 0.9 1.1 1.08 1.46 m 2.16 -2.56 c -0.36 -0.18 -1.08 -0.37 -1.8 -0.37 c 0.54 0.55 1.08 0.91 1.44 1.1" style="fill:#fddfb9"/><path d="m 8.09 2.58 c -2.98 0 -5.4 2.46 -5.4 5.48 c 0 3 2.42 5.49 5.4 5.49 c 2.98 0 5.4 -2.46 5.4 -5.49 c 0 -3 -2.42 -5.48 -5.4 -5.48 m 0 1.1 c 2.39 0 4.32 1.96 4.32 4.39 c 0 2.43 -1.93 4.39 -4.32 4.39 c -2.39 0 -4.32 -1.96 -4.32 -4.39 c 0 -2.42 1.93 -4.39 4.32 -4.39" style="fill:#c10a2d"/></svg>