<svg xmlns="http://www.w3.org/2000/svg" viewBox="0 0 16 16"><path d="m 14.35 12.25 c 5.75 -8.16 -4.88 -16.43 -11.65 -9.78 c -6.39 6.27 -0.46 16 7.48 12.96 c 1.66 -0.63 3.11 -1.68 4.17 -3.18" style="fill:#473d8b"/><path d="m 7.91 10.74 c 0 -1.23 -0.01 -2.24 -0.02 -2.26 c -0.01 -0.01 -0.74 0.69 -1.61 1.56 l -1.59 1.59 l 0.15 0.14 c 0.73 0.66 1.74 1.09 2.82 1.18 l 0.26 0.02" style="fill:#9400d2"/><path d="m 11.75 11.18 c 0.55 -0.65 0.9 -1.41 1.02 -2.17 c 0.09 -0.34 0.1 -0.36 0.12 -0.72 h -2.23 c -1.38 0 -2.22 0.01 -2.21 0.04 c 0.02 0.05 3.06 3.09 3.09 3.09 c 0.02 0 0.11 -0.1 0.22 -0.23" style="fill:#ffa400"/><path d="m 6.11 9.83 l 1.55 -1.55 l -2.26 -0.02 c -1.25 -0.01 -2.27 -0.02 -2.27 -0.02 c 0 0 0 0.13 0.02 0.3 c 0.08 0.81 0.39 1.67 0.85 2.29 c 0.22 0.3 0.45 0.55 0.51 0.55 c 0.02 0 0.75 -0.7 1.6 -1.55" style="fill:#1e8fff"/><g transform="matrix(-0.036 0 0 0.036 12.56 3.61)" style="stroke-width:0.11"><path d="m 130 119.2 c -0.22 -0.22 -0.11 -11.44 0.11 -24.85 c 0.22 -13.41 0.43 -41.78 0.43 -63 l 0.11 -38.59 h 1.95 c 6.93 0 23.72 3.19 33.36 6.27 c 11 3.52 24.48 10.23 34.45 16.93 c 5.2 3.52 14.19 10.78 16.57 13.3 l 1.62 1.65 l -1.62 1.21 c -5.96 4.73 -75.83 75.1 -82.9 83.6 c -3.14 3.85 -3.79 4.29 -4.12 3.52" style="fill:#eaf81c;stroke:#ffd9b9"/><path d="m 51.76 123.5 c -47.2 -0.11 -59.5 -0.22 -59.5 -0.77 c 0 -2.09 1.62 -15.39 2.49 -20.1 c 4.77 -25.62 15.6 -48.6 31.1 -65.3 l 3.79 -4.07 l 42.2 44.53 c 23.29 24.52 42.4 44.97 42.4 45.3 c 0 0.33 -0.76 0.55 -1.52 0.55 c -0.87 0.11 -28.38 0 -60.99 -0.11" style="fill:#ffd600;stroke:#fff"/><path d="m 114.5 262.8 c -20.26 -1.43 -41.1 -7.92 -57.4 -18 c -6.61 -4.07 -15.49 -10.67 -19.72 -14.51 l -3.9 -3.74 l 28.92 -29.47 c 15.92 -16.2 35.86 -36.1 44.2 -44.3 l 15.1 -14.84 l 0.32 15.61 c 0.22 8.58 0.43 36.83 0.43 62.78 c 0.11 37.49 0 47.2 -0.54 47.1 c -0.43 0 -3.68 -0.22 -7.37 -0.55" style="fill:#f00;stroke:#f00"/><path d="m 98 95.2 c -23.72 -23.75 -61.1 -62.2 -62.5 -64.3 c 1.08 -6.6 14.19 -14.18 21.56 -18.58 c 7.91 -4.73 22.42 -11 31.3 -13.52 c 9.86 -2.75 25.89 -5.61 31.85 -5.61 h 2.06 l -0.32 60.91 c -0.22 33.54 -0.54 61.5 -0.65 62.1 c -0.22 0.66 -0.54 1.21 -0.76 1.21 c -0.11 0 -10.29 -10 -22.53 -22.2" style="fill:#ff0;stroke:#ff7f4f"/><path d="m 184.1 123.4 c -22.97 -0.22 -42.79 -0.55 -43.98 -0.77 l -2.27 -0.33 l 4.33 -4.84 c 6.72 -7.48 53.73 -55.3 68.2 -69.4 l 12.78 -12.42 l 3.57 3.96 c 4.87 5.28 12.24 15.28 15.38 20.67 c 6.61 11.33 12.46 26.83 15.38 40.57 c 0.65 6.93 5.09 15.5 2.82 22.32 c -0.32 0.99 -3.47 0.99 -76.3 0.22" style="fill:#9acd31;stroke:#ff9f79"/></g></svg>