<svg xmlns="http://www.w3.org/2000/svg" viewBox="0 0 16 16"><path d="m 3.88 1.34 c -14.1 11.94 14.88 23.43 11.9 4.95 c -0.65 -4.05 -8.1 -8.17 -11.9 -4.95" style="fill:#b0dfe5"/><path d="m 7.97 13.76 c -1.27 -0.29 -2.93 -0.84 -3.86 -1.29 c -0.28 -0.13 -0.36 -0.21 -0.89 -0.79 c -0.32 -0.35 -0.59 -0.64 -0.61 -0.64 c -0.02 0 -0.03 -1.29 -0.03 -2.87 v -2.87 c 0.5 -0.45 1 -0.93 1.43 -1.33 l 0.77 -0.74 l 3.37 -1.61 l 3.54 1.05 c 0.61 0.67 1.21 1.16 1.89 1.73 l 1.03 4.16 l -1.09 4 c -1.96 1.19 -3.99 1.53 -5.55 1.19" style="fill:#9dd5d6"/><path d="m 7.55 11.92 c -0.36 -0.24 -0.78 -0.49 -0.92 -0.57 c -0.34 -0.19 -1.24 -0.77 -1.3 -0.84 c -0.05 -0.06 -0.79 -2.95 -0.79 -3.07 c 0 -0.1 1.45 -2.54 1.58 -2.66 c 0.05 -0.04 0.42 -0.17 0.83 -0.29 c 0.41 -0.12 1.07 -0.73 1.33 -0.95 c 0.08 -0.04 1.27 0.26 1.77 0.11 c 0.49 -0.14 0.93 -0.27 0.97 -0.27 c 0.11 0 1.36 1.29 1.8 1.85 c 0.57 0.72 0.57 0.74 0.6 1.45 c 0.04 0.99 -0.1 2.34 -0.27 2.68 c -0.18 0.36 -1.74 1.83 -2.26 2.13 c -0.11 0.06 -0.3 0.2 -0.45 0.3 c -0.14 0.1 -0.34 0.21 -0.43 0.25 c -0.12 0.05 -1.7 0.33 -1.8 0.32 c 0 0 -0.31 -0.19 -0.68 -0.43" style="fill:#b1f4a2"/><path d="m 6.99 10.68 c -0.09 -0.09 -0.85 -1.45 -0.96 -1.69 c -0.33 -0.52 -0.41 -0.92 -0.65 -1.2 c 0 -0.19 0.07 -0.32 0.55 -0.93 c 0.33 -0.43 0.93 -1.05 1.08 -1.13 c 0.28 -0.14 2 -0.39 2.36 -0.34 c 0.75 0.37 1.96 0.98 2.35 1.6 c 0.14 0.22 0.54 1.2 0.54 1.32 c -0.3 0.7 -0.59 1.53 -0.94 2.19 c -0.32 0.2 -0.68 0.33 -1.04 0.49 c -0.69 0.32 -1 0.44 -1.14 0.44 c -0.5 -0.16 -1.87 -0.58 -2.16 -0.74" style="fill:#c8f45b"/><path d="m 7.29 9.94 l -0.27 -0.47 c -0.52 -0.89 -0.7 -1.25 -0.7 -1.35 c 0 -0.05 0.05 -0.27 0.1 -0.46 c 0.18 -0.42 0.16 -0.91 0.39 -1.3 c 0.07 -0.11 1.53 -1 1.63 -1 c 0.33 -0.06 0.89 -0.64 1.18 -0.58 c 0.16 0.05 0.97 0.55 1.39 0.87 c 0.47 0.35 0.48 0.36 0.66 1.07 c 0.17 0.68 0.24 1.17 0.2 1.34 c -0.11 0.39 -0.7 1.3 -1.14 1.75 c -0.25 0.26 -0.35 0.32 -0.79 0.52 c -0.27 0.13 -0.53 0.23 -0.56 0.22 c -0.7 -0.2 -1.48 -0.42 -2.08 -0.62" style="fill:#d9d929"/><path d="m 7.56 9.31 c -0.07 -0.03 -0.27 -0.54 -0.45 -1.04 c -0.3 -0.83 -0.27 -0.4 0.11 -1.16 c 0.46 -0.94 0.19 -0.75 1.19 -1.14 c 0.55 -0.21 0.43 -0.3 1.33 -0.14 l 0.43 0.07 c 0.21 0.35 0.96 1.07 0.91 1.35 c -0.09 0.45 -0.06 0.84 -0.17 1.3 c -0.36 0.36 -0.67 0.6 -1.08 0.94 c -0.76 -0.07 -1.46 -0.1 -2.26 -0.19" style="fill:#f68e02"/><path d="m 9.54 14.71 c -1.31 -0.54 -2.16 -1.13 -3.49 -1.52 c -0.89 -0.27 -1.56 -0.52 -1.99 -0.73 c -0.21 -0.11 -0.34 -0.21 -0.87 -0.76 c -0.34 -0.35 -0.64 -0.67 -0.65 -0.71 c -0.02 -0.05 -1.09 -3.68 -0.96 -3.84 c 0.21 -0.24 0.94 -1.66 0.95 -1.72 c 0.02 -0.05 0.1 -0.16 0.18 -0.24 c 0.67 -0.64 1.38 -1.25 2 -1.92 c 0.48 -0.27 1.95 -1.02 2.27 -1.1 c -0.01 0.02 -0.87 1.52 -0.98 1.66 c -0.09 0.11 -2.21 1.31 -2.25 1.4 c -0.06 0.14 -0.27 0.87 -0.4 1.47 c -0.17 0.8 -0.44 1.33 -0.54 2.54 c 0.67 0.84 1.8 2.13 3 3.39 c 0.11 -0.01 0.51 0.04 0.98 -0.03 c 0.47 -0.08 2.36 0.61 2.64 0.54 c 0.13 -0.03 2.24 -1.2 2.37 -1.27 c 0.1 -0.05 0.36 -0.35 1 -1.15 l 0.6 -0.74 c 0.03 0.89 0.05 1.87 0.05 2.65 l -0.57 0.3 c -0.93 0.49 -2.11 1.07 -2.34 1.15 c -0.15 0.08 -0.84 0.59 -1.04 0.63" style="fill:#8dabf2"/></svg>