<svg xmlns="http://www.w3.org/2000/svg" xmlns:xlink="http://www.w3.org/1999/xlink" viewBox="0 0 16 16"><defs><g id="1" style="clip-path:url(#0)"><path d="m 8.14 3.68 l 4.55 4.24 c 0.17 0.16 0.2 0.4 0.05 0.54 l -4.34 4.38 c -0.14 0.14 -0.39 0.13 -0.56 -0.04 l -4.55 -4.24 c -0.17 -0.16 -0.2 -0.4 -0.05 -0.54 l 4.34 -4.38 c 0.14 -0.14 0.39 -0.13 0.56 0.03" style="fill:#dc133c"/></g><clipPath id="0"><path d="M 0,0 H16 V16 H0 z"/></clipPath></defs><path d="m 4.16 14.21 c 3.69 3.66 7.11 0.98 9.91 -1.93 c 2.28 -2.36 2.39 -4.56 0.87 -6.89 c -3.95 -6.07 -9.1 -8.32 -14.45 1.1 c -1.32 3.11 1.47 6 3.66 7.72" style="fill:#ff7f4f"/><use xlink:href="#1"/><path d="m 4.4 9.38 c -0.44 -0.44 -0.82 -0.84 -0.85 -0.89 c -0.06 -0.12 -0.06 -0.35 0 -0.46 c 0.04 -0.09 3.39 -3.46 3.43 -3.46 c 0.01 0 0.04 0.03 0.07 0.07 c 0.1 0.11 -0.15 0.28 -0.34 0.49 c 0.07 0.13 0.17 0.45 0.3 0.43 c 0.17 -0.02 0.31 -0.02 0.49 -0.03 c 0.05 0.17 0.1 0.36 0.13 0.52 c -0.17 0.08 -0.34 0.16 -0.51 0.23 c 0.01 0.16 0.02 0.32 0.04 0.47 c 0.18 0.09 0.32 0.12 0.53 0.18 c -0.01 0.17 0.02 0.41 -0.09 0.54 c -0.02 0.02 -0.13 0.02 -0.24 0.02 c -0.3 0 -0.3 0 -0.38 0.23 c -0.03 0.11 -0.07 0.21 -0.07 0.22 c 0.13 0.16 0.25 0.25 0.42 0.4 l -0.1 0.18 c -0.17 0.31 -0.13 0.29 -0.44 0.19 l -0.27 -0.09 c -0.1 0.11 -0.22 0.23 -0.3 0.36 c 0.07 0.19 0.14 0.32 0.24 0.51 c -0.14 0.11 -0.27 0.22 -0.42 0.3 c -0.15 -0.09 -0.25 -0.2 -0.39 -0.32 c -0.2 -0.02 -0.27 0.07 -0.47 0.17 c 0 0 0 0.13 0.02 0.27 c 0.01 0.15 0.02 0.27 0.02 0.27 c 0 0 -0.36 -0.36 -0.8 -0.8" style="fill:#ffc0ca"/><path d="m 8.68 12.21 c -0.1 -0.14 -0.21 -0.23 -0.35 -0.35 c -0.16 0.07 -0.41 0.25 -0.55 0.21 c -0.11 -0.14 -0.19 -0.24 -0.29 -0.38 c 0.1 -0.11 0.21 -0.22 0.31 -0.34 c 0.15 -0.14 -0.07 -0.38 -0.13 -0.52 c -0.2 0 -0.36 0.03 -0.57 0.03 c -0.01 -0.01 -0.14 -0.47 -0.14 -0.5 c 0.18 -0.1 0.32 -0.16 0.52 -0.25 c -0.02 -0.17 -0.04 -0.35 -0.04 -0.5 c -0.17 -0.06 -0.41 -0.1 -0.54 -0.21 c 0 -0.18 0.03 -0.32 0.05 -0.5 c 0.16 0 0.32 0.01 0.48 -0.02 c 0.19 -0.11 0.17 -0.22 0.25 -0.46 c -0.14 -0.13 -0.3 -0.27 -0.43 -0.38 c 0.09 -0.15 0.17 -0.3 0.26 -0.45 c 0.2 0.02 0.4 0.17 0.59 0.13 c 0.11 -0.11 0.19 -0.2 0.29 -0.32 c -0.07 -0.16 -0.23 -0.38 -0.22 -0.54 c 0.06 -0.07 0.34 -0.28 0.38 -0.28 c 0.17 0.11 0.27 0.22 0.43 0.36 c 0.14 -0.07 0.29 -0.14 0.43 -0.21 c 0 -0.18 -0.05 -0.46 0.02 -0.59 c 0.16 -0.05 0.46 -0.13 0.46 -0.12 c 0.09 0.18 0.16 0.32 0.26 0.51 c 0.18 -0.03 0.46 -0.02 0.52 -0.14 l 0.04 -0.11 l 0.74 0.67 c 0.63 0.57 0.99 0.86 1.04 0.95 c 0.09 0.2 -0.02 0.31 -0.21 0.11 c -0.87 -0.91 -2.24 -0.94 -3.21 -0.13 c -0.32 0.26 -0.61 0.73 -0.72 1.17 c -0.07 0.26 -0.08 0.8 -0.03 1.05 c 0.12 0.53 0.44 1.04 0.84 1.34 c 0.09 0.07 0.15 0.17 0.15 0.18 c -0.22 0.21 -0.39 0.41 -0.61 0.55" style="fill:#f8f8ff"/></svg>