<svg xmlns="http://www.w3.org/2000/svg" viewBox="0 0 16 16"><path d="m 12.1 1.34 c 14.1 11.94 -14.88 23.43 -11.9 4.95 c 0.65 -4.05 8.1 -8.17 11.9 -4.95" style="fill:#4581b3"/><g style="fill:#fff"><g transform="matrix(-0.671 -0.402 -0.33 0.57 16.3 6.96)" style="stroke:#fff;stroke-width:0.11"><path d="m 8.16 11.28 c -0.04 0.04 -0.06 0.09 -0.06 0.15 v 1.33 c -0.01 0.12 0.09 0.22 0.21 0.22 c 0.12 -0.01 0.22 -0.09 0.21 -0.21 v -1.12"/><path d="m 12.28 11.15 h -3.83 c -0.06 0.01 -0.12 0.02 -0.15 0.06 l 0.36 0.36 h 3.83 c 0.06 0 0.11 -0.02 0.15 -0.06"/><path d="m 12.35 9.64 v 1.41 l 0.36 0.36 c 0.04 -0.04 0.06 -0.09 0.06 -0.15 v -1.84"/></g><path d="m 5.3 7.61 c 0.2 0.14 -0.03 0.48 -0.23 0.34 l -0.48 -0.28 v -0.5"/><path d="m 9.1 9.1 l -1.21 -0.73 l -0.77 1.33 l 1.21 0.73 m -0.45 -2.05 l -1.21 -0.73 l -0.77 1.32 l 1.21 0.73 m -2.04 -1.22 l 1.04 0.63 c 0.22 0.13 0.48 0.07 0.6 -0.12 l 0.36 -0.62 c 0.11 -0.2 0.03 -0.46 -0.18 -0.59 l -1.04 -0.63 c -0.21 -0.13 -0.48 -0.07 -0.59 0.12 l -0.36 0.62 c -0.11 0.2 -0.03 0.46 0.19 0.59 m 4.85 1.12 l -1.04 -0.63 c -0.21 -0.13 -0.48 -0.07 -0.6 0.12 l -0.36 0.62 c -0.11 0.2 -0.03 0.46 0.18 0.59 l 1.04 0.63 c 0.21 0.13 0.48 0.07 0.6 -0.12 l 0.36 -0.62 c 0.11 -0.2 0.03 -0.46 -0.18 -0.59"/></g><path d="m 7.08 11.3 l -1.25 -0.75 l -1.71 2.95 l 1.25 0.75" style="fill:#ffd600"/><g style="fill-opacity:0.7"><path d="m 12.66 5.69 l -1.21 -0.73 l -2.77 4.78 l 1.21 0.73" style="fill:#629fea"/><path d="m 11.44 4.96 l -1.21 -0.73 l -2.77 4.78 l 1.21 0.73" style="fill:#56e388"/><path d="m 10.23 4.23 l -1.22 -0.73 l -2.77 4.78 l 1.21 0.73" style="fill:#f8e45b"/><path d="m 5 7.55 l 1.21 0.73 l 2.77 -4.78 l -1.21 -0.73" style="fill:#ec333b"/></g><path d="m 9.88 9.57 l -1.04 -0.63 c -0.21 -0.13 -0.48 -0.07 -0.6 0.12 l -0.36 0.62 c -0.11 0.2 -0.03 0.46 0.18 0.59 l 1.04 0.63 c 0.21 0.13 0.48 0.07 0.6 -0.12 l 0.36 -0.62 c 0.11 -0.2 0.03 -0.46 -0.18 -0.59" style="fill:#629fea"/><path d="m 9.1 9.1 l -1.21 -0.73 l -0.77 1.33 l 1.21 0.73" style="fill:#56e388"/><path d="m 5 8.45 l 1.04 0.63 c 0.21 0.13 0.48 0.07 0.6 -0.12 l 0.36 -0.62 c 0.11 -0.2 0.03 -0.46 -0.18 -0.59 l -1.04 -0.63 c -0.21 -0.13 -0.48 -0.07 -0.59 0.12 l -0.36 0.62 c -0.11 0.2 -0.03 0.46 0.19 0.59" style="fill:#ec333b"/><path d="m 7.84 8.34 l -1.21 -0.73 l -0.77 1.32 l 1.21 0.73" style="fill:#f8e45b"/></svg>