<svg xmlns="http://www.w3.org/2000/svg" viewBox="0 0 16 16"><path d="m 13.1 14.18 c -9.51 7.36 -19.37 -10.97 -7.61 -13.65 c 7.41 -2.75 14.65 8.2 7.61 13.65" style="fill:#6c453b"/><path d="m 7.65 12.14 c 0 -0.05 -0.04 -0.12 -0.09 -0.15 c -0.13 -0.08 -0.62 -0.16 -0.82 -0.13 l -0.16 0.03 l 0.09 -0.11 c 0.12 -0.15 0.28 -0.71 0.32 -1.07 c 0.01 -0.16 0.04 -0.32 0.06 -0.34 c 0.02 -0.04 0.16 -0.01 0.58 0.14 c 0.95 0.33 1.57 0.58 1.6 0.64 c 0.02 0.03 0.09 0.21 0.17 0.39 l 0.14 0.33 h -0.37 c -0.29 0 -0.41 0.02 -0.54 0.08 l -0.17 0.09 l -0.07 -0.39 c -0.07 -0.42 -0.16 -0.66 -0.23 -0.66 c -0.06 0 -0.11 0.11 -0.31 0.71 c -0.1 0.3 -0.18 0.5 -0.18 0.45" style="fill:#29b9ee"/><g style="fill:#f8e8b9"><path d="m 6 12.47 c -0.07 -0.18 0.28 -0.49 0.63 -0.55 c 0.28 -0.05 0.8 0.02 0.9 0.12 c 0.07 0.07 0.08 0.39 0.01 0.46 c -0.04 0.04 -0.27 0.05 -0.78 0.05 c -0.64 0 -0.74 -0.01 -0.76 -0.07"/><path d="m 4.45 7.81 c -0.05 -0.02 -0.14 -0.08 -0.19 -0.14 c -0.08 -0.11 -0.09 -0.17 -0.09 -0.86 c 0 -0.41 0.02 -0.8 0.03 -0.86 c 0.05 -0.17 0.2 -0.15 0.42 0.05 c 0.27 0.24 0.43 0.75 0.5 1.53 l 0.03 0.32 h -0.3 c -0.16 0 -0.35 -0.02 -0.4 -0.04"/><path d="m 8.52 12.36 c -0.07 -0.26 0 -0.37 0.29 -0.43 c 0.49 -0.11 0.87 -0.03 1.13 0.22 c 0.2 0.19 0.23 0.32 0.09 0.36 c -0.05 0.02 -0.4 0.03 -0.77 0.03 h -0.68"/><path d="m 10.5 8.86 c -0.02 -0.04 -0.02 -0.35 0 -0.69 c 0.04 -0.91 0.14 -1.23 0.38 -1.25 c 0.26 -0.02 0.39 0.25 0.39 0.82 c 0 0.59 -0.16 0.92 -0.52 1.11 c -0.19 0.1 -0.21 0.1 -0.25 0.02"/></g><path d="m 9.8 6.29 c 0 1.26 -0.73 2.29 -1.62 2.29 c -0.9 0 -1.62 -1.02 -1.62 -2.29 c 0 -1.26 0.72 -2.29 1.62 -2.29 c 0.89 0 1.62 1.02 1.62 2.29" style="fill:#f1e0b1"/><g style="fill:#baba25"><path d="m 8.9 8.16 c -0.14 -0.02 -0.3 -0.05 -0.35 -0.08 c -0.05 -0.03 -0.13 -0.04 -0.17 -0.02 c -0.09 0.04 -0.05 -0.01 0.17 -0.18 c 0.21 -0.16 0.46 -0.54 0.46 -0.71 c 0 -0.08 -0.05 -0.23 -0.11 -0.33 c -0.2 -0.36 -0.13 -0.91 0.2 -1.52 c 0.09 -0.18 0.16 -0.33 0.15 -0.34 c -0.02 -0.02 -0.18 0.02 -0.37 0.07 l -0.34 0.1 l -0.2 -0.18 c -0.11 -0.1 -0.22 -0.18 -0.26 -0.18 c -0.04 0 -0.14 0.08 -0.23 0.18 c -0.12 0.13 -0.21 0.18 -0.3 0.18 c -0.07 0 -0.18 0.02 -0.25 0.05 c -0.12 0.04 -0.14 0.09 -0.24 0.41 c -0.06 0.2 -0.13 0.47 -0.16 0.6 c -0.06 0.28 -0.08 0.96 -0.03 1.21 c 0.03 0.15 0.03 0.16 -0.03 0.12 c -0.04 -0.03 -0.2 -0.07 -0.37 -0.08 l -0.3 -0.03 v -0.32 c 0 -0.19 0.05 -0.57 0.13 -0.93 c 0.07 -0.33 0.16 -0.89 0.19 -1.25 c 0.07 -0.67 0.12 -0.84 0.29 -1.06 c 0.11 -0.14 0.33 -0.2 0.8 -0.2 c 0.18 0 0.3 -0.04 0.53 -0.16 c 0.36 -0.2 0.68 -0.24 0.89 -0.13 c 0.09 0.04 0.27 0.23 0.46 0.47 c 0.17 0.22 0.36 0.43 0.41 0.46 c 0.17 0.11 0.2 0.21 0.1 0.34 l -0.09 0.11 l 0.12 0.34 c 0.12 0.34 0.12 0.34 0.14 1.74 l 0.02 1.39 h -0.5 c -0.28 0 -0.62 -0.02 -0.76 -0.04"/><path d="m 6 9.61 c 0 -0.04 0.06 -0.22 0.13 -0.42 l 0.14 -0.36 l -0.15 -0.1 l -0.14 -0.1 l 0.14 -0.23 c 0.08 -0.13 0.2 -0.26 0.25 -0.29 c 0.16 -0.07 0.6 -0.07 0.63 0 c 0.03 0.06 -0.02 0.35 -0.18 0.98 l -0.1 0.41 l -0.28 0.08 c -0.34 0.1 -0.45 0.11 -0.45 0.02"/><path d="m 9.81 9.61 c -0.15 -0.14 -0.3 -0.26 -0.33 -0.26 c -0.03 0 -0.16 0.09 -0.29 0.19 c -0.13 0.1 -0.26 0.19 -0.29 0.19 c -0.07 0 -0.25 -0.37 -0.39 -0.82 c -0.06 -0.2 -0.11 -0.36 -0.11 -0.38 c 0 -0.05 0.39 0 0.76 0.1 c 0.52 0.14 0.92 0.34 0.99 0.49 c 0.07 0.14 0.05 0.71 -0.02 0.73 c -0.02 0.01 -0.17 -0.1 -0.32 -0.24"/></g><path d="m 8.13 10.62 c -1.28 -0.49 -1.64 -0.67 -1.5 -0.77 c 0.06 -0.04 0.16 -0.38 0.22 -0.76 c 0.14 -0.83 0.07 -0.98 -0.4 -0.8 c -0.18 0.07 -0.32 0.07 -0.36 0.02 c -0.03 -0.05 -0.23 -0.09 -0.44 -0.09 c -0.22 0 -0.44 -0.07 -0.52 -0.15 c -0.08 -0.1 -0.09 -0.15 -0.02 -0.15 c 0.07 0 0.09 -0.18 0.05 -0.52 c -0.06 -0.51 -0.06 -0.52 0.18 -0.44 c 0.13 0.04 0.54 0.13 0.89 0.2 c 0.53 0.1 0.7 0.18 0.91 0.45 c 0.14 0.18 0.36 0.32 0.46 0.32 c 0.44 0 2.74 -0.01 2.81 -0.01 c 0.04 0 0.07 0.23 0.07 0.51 c 0 0.31 0.05 0.51 0.11 0.51 c 0.08 0 0.08 0.05 -0.01 0.15 c -0.16 0.19 -0.34 0.2 -0.5 0 c -0.13 -0.16 -1.06 -0.46 -1.41 -0.46 c -0.29 0 -0.27 0.17 0.08 0.93 c 0.32 0.7 0.62 1.41 0.62 1.47 c 0 0.07 -0.15 0.02 -1.27 -0.4" style="fill:#ef6442"/><g style="fill:#5f5c58"><path d="m 7.5 5.92 c 0.1 0 0.18 0.14 0.18 0.33 v 0.52 c 0 0.18 -0.08 0.33 -0.18 0.33 c -0.11 0 -0.19 -0.15 -0.19 -0.33 v -0.52 c 0 -0.18 0.08 -0.33 0.19 -0.33"/><path d="m 8.14 5.92 c 0.11 0 0.19 0.14 0.19 0.33 v 0.52 c 0 0.18 -0.08 0.33 -0.19 0.33 c -0.1 0 -0.18 -0.15 -0.18 -0.33 v -0.52 c 0 -0.18 0.08 -0.33 0.18 -0.33"/></g></svg>