<svg xmlns="http://www.w3.org/2000/svg" viewBox="0 0 16 16"><path d="m 2.1 3.84 c -5.72 6.09 2.12 13.18 9.94 12 c 5.82 -0.81 5.2 -16.88 -3.25 -15.81 c -2.52 0.32 -4.82 1.77 -6.69 3.76" style="fill:#d2d2d2"/><path d="m 4.46 12.96 c -0.15 -0.06 -0.32 -0.23 -0.38 -0.38 c -0.08 -0.2 -0.02 -0.22 0.63 -0.22 c 0.64 0 0.7 0.02 0.63 0.22 c -0.13 0.34 -0.55 0.52 -0.87 0.38 m 1.75 -0.02 c -0.34 -0.17 -0.6 -0.61 -0.55 -0.93 c 0.04 -0.19 0.1 -0.33 0.16 -0.33 c 0.03 0 0.23 0.21 0.45 0.47 c 0.22 0.26 0.41 0.48 0.44 0.5 c 0.02 0.02 0.16 0.03 0.29 0.03 c 0.27 0 0.34 0.04 0.25 0.14 c -0.17 0.2 -0.76 0.27 -1.05 0.13 m 2.27 0 c -0.17 -0.09 -0.26 -0.18 -0.22 -0.23 c 0.02 -0.02 0.26 -0.04 0.64 -0.04 c 0.63 0 0.73 0.02 0.62 0.14 c -0.17 0.2 -0.77 0.27 -1.05 0.13 m 2.26 0 c -0.17 -0.09 -0.26 -0.18 -0.22 -0.23 c 0.02 -0.02 0.22 -0.04 0.53 -0.04 c 0.46 0 0.5 -0.01 0.53 -0.08 c 0.04 -0.11 -0.05 -0.24 -0.48 -0.76 c -0.24 -0.28 -0.39 -0.49 -0.37 -0.52 c 0.03 -0.08 0.34 -0.15 0.56 -0.13 c 0.38 0.04 0.69 0.29 0.82 0.63 c 0.07 0.2 0.07 0.3 0.02 0.52 c -0.05 0.2 -0.3 0.49 -0.52 0.59 c -0.21 0.1 -0.64 0.1 -0.85 0 m 1.75 -0.28 c -0.07 -0.07 -0.07 -1.42 0.01 -1.48 c 0.22 -0.06 0.38 -0.03 0.61 -0.02 c 0.09 0.58 0.27 0.92 0.45 1.51 c -0.04 0.05 -1 0.05 -1.06 -0.01 m -5.61 -0.29 c -0.09 -0.05 -0.82 -0.95 -0.81 -0.98 c 0.04 -0.11 0.29 -0.19 0.57 -0.19 c 0.46 0 0.79 0.23 0.93 0.64 c 0.07 0.2 0.06 0.47 -0.03 0.53 c -0.07 0.04 -0.6 0.04 -0.66 0 m 1.12 0 c -0.13 -0.08 -0.07 -0.64 0.09 -0.77 c 0.08 -0.07 0.14 -0.02 0.44 0.33 c 0.37 0.45 0.37 0.47 -0.1 0.47 c -0.21 0 -0.4 -0.02 -0.43 -0.03 m 1.28 -0.02 c -0.16 -0.12 -0.85 -0.99 -0.83 -1.04 c 0.03 -0.08 0.34 -0.15 0.56 -0.13 c 0.39 0.04 0.7 0.29 0.82 0.65 c 0.07 0.2 0.05 0.47 -0.03 0.53 c -0.08 0.05 -0.45 0.04 -0.52 -0.02 m 0.98 0.02 c -0.13 -0.08 -0.07 -0.64 0.09 -0.77 c 0.08 -0.07 0.14 -0.02 0.43 0.33 c 0.38 0.45 0.37 0.47 -0.1 0.47 c -0.21 0 -0.4 -0.02 -0.43 -0.03 m -5.74 -0.34 c 0 -0.05 0.69 -0.57 0.96 -0.72 c 0.11 -0.06 0.12 0.07 0.02 0.27 c -0.05 0.11 -0.11 0.25 -0.13 0.33 c -0.01 0.07 -0.04 0.15 -0.07 0.16 c -0.02 0.02 -0.21 0.03 -0.42 0.03 c -0.33 0 -0.37 -0.01 -0.37 -0.07 m -0.46 -0.19 c -0.05 -0.05 -0.03 -0.61 0.03 -0.66 c 0.08 -0.06 0.92 -0.04 0.94 0.02 c 0.02 0.05 -0.82 0.66 -0.9 0.66 c -0.02 0 -0.05 -0.01 -0.07 -0.02 m 0.02 -1.02 c -0.07 -0.07 -0.07 -1.72 0 -1.78 c 0.03 -0.03 0.09 -0.05 0.14 -0.05 c 0.19 -0.23 0.09 -0.44 0.09 -0.84 c -0.14 -0.01 -0.28 -0.02 -0.43 -0.02 c 0 -0.13 0 -0.26 0 -0.38 h 3.23 c 0 0.13 0 0.25 0 0.38 c -0.14 0.01 -0.28 0.02 -0.42 0.02 v 0.42 c 0 0.41 0 0.42 0.09 0.42 c 0.05 0 0.11 0.02 0.14 0.05 c 0.07 0.06 0.07 1.71 0 1.78 c -0.07 0.07 -2.78 0.07 -2.85 0 m 0.88 -2.67 h -0.2 c 0 0.28 0 0.56 0 0.84 h 0.2 c 0 -0.28 0 -0.56 0 -0.84 m 1.29 0 c -0.28 0 -0.57 0 -0.85 0 c 0 0.28 0 0.56 0 0.84 c 0.28 0 0.57 0 0.85 0 c 0 -0.28 0 -0.56 0 -0.84 m 1.06 2.67 c -0.07 -0.07 -0.06 -0.51 0 -0.56 c 0.04 -0.03 0.77 -0.04 2.5 -0.05 l 2.44 -0.01 v -0.23 l -2.44 -0.01 c -1.72 -0.01 -2.46 -0.02 -2.5 -0.05 c -0.07 -0.05 -0.07 -0.5 0 -0.56 c 0.04 -0.04 0.73 -0.05 2.88 -0.05 c 2.68 0 2.84 0 2.97 0.07 c 0.46 0.23 0.46 1.19 0 1.42 c -0.13 0.07 -0.29 0.07 -2.97 0.07 c -2.15 0 -2.84 -0.01 -2.88 -0.05 m 2.26 -1.84 c -0.05 -0.05 -0.07 -0.33 -0.02 -0.41 c 0.04 -0.06 0.27 -0.12 0.47 -0.12 c 0.2 0 0.43 0.06 0.47 0.12 c 0.05 0.08 0.04 0.36 -0.02 0.41 c -0.3 0.05 -0.6 0.11 -0.91 0 m 1.94 0 c -0.07 -0.28 -0.06 -0.51 -0.07 -0.81 l -0.14 -0.02 c -0.14 -0.02 -0.14 -0.02 -0.14 -0.21 v -0.19 c 0.54 0 1.08 0 1.62 0 v 0.19 c 0 0.19 0 0.19 -0.14 0.21 l -0.14 0.02 c -0.02 0.27 0.01 0.56 -0.07 0.81 c -0.3 0.05 -0.47 0.02 -0.91 0 m -0.04 -1.63 c -0.09 -0.05 -0.32 -0.24 -0.39 -0.32 c -0.07 -0.08 -0.16 -0.15 -0.19 -0.15 c -0.33 0 -0.77 -0.29 -0.97 -0.63 c -0.09 -0.16 -0.12 -0.19 -0.2 -0.18 c -0.46 0.05 -1.18 0.05 -1.47 -0.01 c -0.53 -0.11 -1.04 -0.33 -1.43 -0.63 c -0.2 -0.16 -0.49 -0.53 -0.57 -0.74 c -0.07 -0.18 -0.09 -0.18 -0.31 -0.15 c -0.49 0.08 -1.2 0.27 -1.63 0.07 c -0.36 -0.17 -0.55 -0.82 -0.54 -1.03 c -0.49 -0.11 -0.68 -0.68 -0.5 -0.93 c 0.75 -2.22 2.91 -2.95 5.36 -2.55 c 1.96 0.99 3.26 1.74 3.17 3.79 c 0.04 0.15 0.02 0.56 -0.1 0.82 l -0.11 0.22 l 0.2 0.18 c 0.25 0.24 0.34 0.41 0.36 0.73 c 0.02 0.25 0.02 0.26 0.18 0.36 c 0.43 0.27 0.43 0.73 -0.01 1 c -0.23 0.14 -0.57 0.25 -0.83 0.13"/></svg>