<svg xmlns="http://www.w3.org/2000/svg" viewBox="0 0 16 16"><path d="m 0.19 9.82 c 0.99 6.46 9.8 8.19 13.69 3.57 c 3.43 -3.42 2.57 -9.98 -1.63 -12.23 c -4.83 -3 -11.86 0.71 -12.24 6.7 c -0.04 0.66 0.02 1.32 0.17 1.96" style="fill:#fc561f"/><path d="m 4.88 4.21 h 6.48 c 0.41 0 0.75 0.34 0.75 0.77 v 6.34 c 0 0.43 -0.33 0.77 -0.75 0.77 h -6.48 c -0.41 0 -0.75 -0.34 -0.75 -0.77 v -6.34 c 0 -0.42 0.34 -0.77 0.75 -0.77" style="fill:#fff"/><path d="m 5 5.15 h 2.93 v 2.89 h -2.93" style="fill:#613582"/><path d="m 8.18 5.16 h 2.92 v 2.89 h -2.92" style="fill:#c061ca"/><g style="fill:#613582"><path d="m 8.18 8.33 h 2.92 v 2.89 h -2.92"/><path d="m 4.97 8.35 h 2.92 v 2.89 h -2.92"/></g></svg>