<svg xmlns="http://www.w3.org/2000/svg" viewBox="0 0 16 16"><path d="m 14.18 2.81 c 3.91 6 0.75 11.5 -3.68 12.8 c -5.96 1.75 -14.1 -2.85 -8.72 -12.32 c 2.12 -3.77 9.61 -4.77 12.4 -0.48" style="fill:#4069e0"/><g style="fill:#554570"><path d="m 4.63 11.14 c -0.03 -0.02 -0.07 -0.09 -0.09 -0.16 c -0.04 -0.11 -0.04 -0.22 -0.04 -1.09 c 0 -0.96 0 -0.98 -0.05 -1.14 c -0.07 -0.2 -0.09 -0.57 -0.05 -0.78 c 0.04 -0.19 0.14 -0.41 0.25 -0.54 c 0.05 -0.06 0.13 -0.02 0.13 -0.04 c 0.16 0.26 0.33 0.54 0.43 0.84 c 0 0.09 -0.05 0.17 -0.05 0.25 c -0.02 0.19 -0.12 0.36 -0.31 0.56 l -0.17 0.18 c 0.05 0.27 0.06 0.8 0.1 1.11 c 0.17 0.02 0.18 0.01 0.34 0.11 c 0.08 0.03 -0.2 0.52 -0.26 0.68 c -0.04 0.06 -0.14 0.07 -0.21 0.02"/><path d="m 11.55 11.1 c 0.03 -0.02 0.07 -0.09 0.09 -0.16 c 0.04 -0.11 0.04 -0.22 0.04 -1.09 c 0 -0.96 0 -0.97 0.05 -1.13 c 0.07 -0.2 0.09 -0.57 0.05 -0.78 c -0.04 -0.2 -0.16 -0.4 -0.25 -0.55 c -0.13 -0.18 -0.33 -0.05 -0.34 -0.07 c -0.16 0.26 -0.14 0.43 -0.25 0.73 c 0 0.09 0.06 0.32 0.07 0.4 c 0.02 0.19 0.12 0.36 0.31 0.55 l 0.18 0.18 c -0.05 0.27 -0.06 0.8 -0.1 1.11 c -0.23 -0.02 -0.08 -0.06 -0.34 0.11 c -0.08 0.03 0.2 0.51 0.26 0.68 c 0.04 0.06 0.14 0.07 0.21 0.02"/></g><path d="m 7.53 13 c -0.87 -0.33 -1.5 -1.46 -1.79 -3.24 c -0.1 -0.62 -0.12 -2.06 -0.04 -2.71 c 0.16 -1.34 0.55 -2.42 1.09 -3.11 c 1 -1.26 2.25 -0.86 3.04 0.97 c 0.32 0.74 0.52 1.71 0.58 2.73 c 0.14 2.48 -0.6 4.68 -1.74 5.34 c -0.41 0.13 -0.82 0.13 -1.14 0.02" style="fill:#fff"/><path d="m 7.36 5.71 c -0.07 -0.29 0.22 -0.37 0.38 -0.62 c 0 -0.04 0.09 -0.13 0.3 -0.13 c 0.24 0 0.3 0.09 0.32 0.16 c 0.07 0.08 0.59 0.55 0.39 0.57 c -0.09 0.05 -0.13 0.2 -0.21 0.28 c -0.16 -0.1 -0.33 -0.2 -0.49 -0.3 c -0.14 0.09 -0.24 0.15 -0.38 0.24 c -0.13 0.04 -0.22 -0.14 -0.33 -0.2" style="fill:#ff8c00"/><g style="fill:#00ba00"><path d="m 6.5 10.7 c -0.07 -0.1 -0.11 -0.24 -0.22 -0.3 c -0.3 0.01 -0.4 0.14 -0.61 0.33 c -0.3 -0.18 -0.57 -0.29 -0.82 -0.48 l 0.1 -0.44 c 0.15 -0.67 0.25 -1.03 0.29 -1.03 c 0.02 0 0.21 0.09 0.41 0.2 c 0.44 0.23 0.46 0.23 0.88 -0.02 l 0.29 -0.18 l 0.07 0.11 c 0.18 0.27 0.69 1.24 0.69 1.32 c -0.34 0.3 -0.61 0.44 -0.98 0.65 c -0.04 -0.05 -0.07 -0.11 -0.1 -0.16"/><path d="m 8.15 10 c -0.39 -0.41 -0.61 -1 -0.87 -1.51 l 0.13 -0.12 c 0.18 -0.16 0.61 -0.41 0.64 -0.37 c 0.04 0.04 0.3 1.76 0.3 1.98 c 0 0.11 -0.02 0.12 -0.2 0.01"/><path d="m 8.96 8 c -0.41 -0.25 -0.77 -0.46 -0.8 -0.48 c -0.04 -0.02 -0.21 0.05 -0.59 0.25 c -0.29 0.16 -0.54 0.28 -0.57 0.27 c -0.03 -0.01 -0.07 -0.09 -0.09 -0.16 c -0.05 -0.18 -0.06 -0.18 0.43 -0.52 c 0.21 -0.15 0.42 -0.31 0.47 -0.35 c 0.1 -0.09 0.11 -0.3 0.02 -0.39 c -0.05 -0.05 -0.08 -0.05 -0.25 0.05 c -0.11 0.06 -0.33 0.2 -0.49 0.3 c -0.33 0.21 -0.38 0.2 -0.36 -0.04 c 0.01 -0.14 0.03 -0.16 0.45 -0.46 c 0.36 -0.25 0.44 -0.33 0.47 -0.43 c 0.09 -0.19 0.21 -0.24 0.38 -0.35 l 0.25 0.13 c 0.14 0.07 0.53 0.3 0.86 0.51 l 0.61 0.38 l 0.01 0.81 c 0 0.45 0 0.84 -0.02 0.87 c -0.02 0.05 -0.18 -0.03 -0.77 -0.39"/><path d="m 10.13 8.28 c -0.01 -0.03 0 -0.36 0.02 -0.72 c 0.04 -0.67 0.04 -0.67 0.15 -0.76 c 0.18 -0.14 0.79 -0.44 0.82 -0.4 c 0.05 0.05 0.04 1.18 -0.03 1.32 c -0.28 0.31 -0.52 0.43 -0.93 0.63 c -0.01 0 -0.03 -0.02 -0.04 -0.05"/><path d="m 9.28 10.75 c -0.42 -0.23 -0.41 -0.23 -0.46 -0.64 c -0.06 -0.53 -0.06 -0.7 0.02 -0.73 c 0.04 -0.02 0.23 -0.07 0.43 -0.12 c 0.45 -0.11 0.71 -0.23 1.2 -0.56 c 0.21 -0.14 0.4 -0.25 0.44 -0.25 c 0.04 0 0.08 0.06 0.11 0.15 c 0.1 0.24 0.31 0.43 0.47 0.64 c -0.07 0.23 0.02 0.89 -0.18 1.02 c -0.3 0.17 -0.54 0.3 -0.86 0.48 l -0.2 -0.17 c -0.5 -0.32 -0.51 -0.04 -0.76 0.29 c -0.08 -0.04 -0.14 -0.07 -0.2 -0.11"/><path d="m 8.68 8.92 c -0.01 -0.04 -0.04 -0.17 -0.05 -0.3 c -0.02 -0.21 -0.02 -0.23 0.05 -0.2 c 0.09 0.04 0.42 0.23 0.55 0.33 l 0.09 0.07 l -0.13 0.06 c -0.07 0.03 -0.21 0.07 -0.31 0.08 c -0.15 0.02 -0.18 0.02 -0.2 -0.04"/><path d="m 5.63 8.43 l -0.45 -0.24 l -0.1 -0.32 c -0.07 -0.23 -0.14 -0.36 -0.24 -0.46 c -0.18 -0.14 -0.14 -0.29 -0.14 -0.51 c 0 -0.55 0.04 -0.88 0.1 -0.88 c 0.04 0 1.29 0.63 1.33 0.67 c 0 0 0.09 0.38 0.2 0.83 c 0.19 0.82 0.19 0.82 0.12 0.91 c -0.11 0.11 -0.23 0.16 -0.36 0.24 c -0.15 -0.08 -0.3 -0.16 -0.45 -0.23"/></g><path d="m 8.59 10.28 c -0.09 -0.07 -0.17 -0.16 -0.18 -0.2 c -0.01 -0.05 -0.08 -0.52 -0.15 -1.06 c -0.13 -0.91 -0.16 -1.04 -0.26 -1.04 c -0.05 0 -0.72 0.46 -0.74 0.52 c -0.01 0.03 0.14 0.38 0.34 0.77 l 0.37 0.71 c -0.09 0.06 -0.19 0.12 -0.29 0.15 c -0.02 0 -0.19 -0.27 -0.38 -0.61 c -0.19 -0.34 -0.37 -0.65 -0.4 -0.7 l -0.06 -0.09 c -0.25 0.11 -0.48 0.33 -0.75 0.4 c -0.32 -0.09 -0.54 -0.3 -0.87 -0.38 c -0.05 0 -0.17 0.41 -0.31 1.05 c -0.12 0.54 -0.16 0.52 -0.2 -0.09 l -0.02 -0.43 l 0.16 -0.31 c 0.12 -0.23 0.34 -0.42 0.34 -0.57 c 0 -0.04 0.01 -0.08 0.02 -0.09 c 0.02 -0.01 0.21 0.07 0.44 0.18 c 0.4 0.2 0.42 0.21 0.54 0.16 c 0.15 -0.07 0.26 -0.17 0.38 -0.27 l -0.18 -0.76 c -0.09 -0.41 -0.18 -0.79 -0.18 -0.82 c 0 -0.04 0.06 -0.1 0.16 -0.15 c 0.09 -0.05 0.43 -0.18 0.68 -0.39 c 0.42 -0.37 0.48 -0.43 0.5 -0.38 c 0.02 0.09 -0.01 0.28 -0.46 0.59 l -0.41 0.29 c 0 0.13 -0.01 0.27 0.05 0.38 c 0.07 0.05 0.08 0.05 0.6 -0.27 c 0.2 -0.12 0.39 -0.22 0.43 -0.22 c 0.08 0 0.13 0.18 0.07 0.26 c -0.04 0.06 -0.25 0.23 -0.75 0.59 c -0.23 0.16 -0.25 0.19 -0.23 0.29 c 0.05 0.2 0.11 0.32 0.17 0.32 c 0.03 0 0.28 -0.12 0.55 -0.27 c 0.27 -0.15 0.52 -0.27 0.54 -0.27 c 0.03 0 0.36 0.19 0.73 0.41 c 0.73 0.44 0.89 0.52 0.93 0.49 c 0.01 -0.02 0.04 -0.38 0.05 -0.82 c 0.02 -0.44 0.03 -0.82 0.03 -0.86 c 0.01 -0.09 1.49 -0.82 1.53 -0.75 c 0.02 0.03 0.03 0.32 0.03 0.64 v 0.6 c -0.07 0.04 -0.14 0.07 -0.21 0.09 c -0.01 0 -0.02 -0.14 -0.02 -0.3 c 0 -0.43 -0.04 -0.66 -0.1 -0.66 c -0.07 0 -0.68 0.31 -0.81 0.42 c -0.09 0.07 -0.09 0.1 -0.12 0.68 c -0.03 0.64 -0.02 0.82 0.06 0.82 c 0.02 0 0.19 -0.09 0.36 -0.19 c 0.18 -0.11 0.34 -0.19 0.36 -0.19 c 0.04 0 0.09 0.3 0.04 0.39 c -0.04 0.08 -0.76 0.49 -1.07 0.66 c -0.11 0.05 -0.4 0.15 -0.64 0.21 c -0.25 0.06 -0.46 0.13 -0.48 0.15 c -0.04 0.04 -0.04 0.29 0.02 0.64 c 0 0.39 0.07 0.45 -0.18 0.27 m 0.46 -1.32 c 0.31 -0.08 0.33 -0.11 0.17 -0.25 c -0.21 -0.18 -0.53 -0.35 -0.6 -0.32 c -0.05 0.02 -0.06 0.06 -0.04 0.25 c 0.03 0.27 0.08 0.38 0.17 0.38 c 0.11 -0.01 0.2 -0.04 0.29 -0.06" style="fill:#ff0"/><g style="fill:#ff8c00"><path d="m 10.18 12.98 c -0.12 -0.02 -0.3 -0.2 -0.45 -0.45 c -0.16 -0.27 -0.2 -0.49 -0.2 -1.09 c -0.04 -0.32 -0.07 -0.62 0.08 -0.89 c 0.18 -0.34 0.34 -0.26 0.7 0.09 c 0.15 0.18 0.22 0.01 0.41 -0.1 c 0.29 -0.16 0.38 -0.09 0.46 0.04 c 0.05 0.07 0.13 0.45 0.13 0.59 c 0 0.02 0.12 0.02 0.27 0.02 c 0.22 -0.01 0.28 0 0.35 0.07 c 0.2 0.18 -0.04 0.67 -0.57 1.23 c -0.38 0.39 -0.78 0.56 -1.18 0.49"/><path d="m 5.53 12.97 c -0.38 -0.1 -0.82 -0.48 -1.17 -1 c -0.21 -0.33 -0.27 -0.52 -0.18 -0.65 c 0.06 -0.1 0.32 -0.2 0.36 -0.14 c 0.03 0.05 0.24 0.05 0.27 0 c 0.01 -0.02 0.04 -0.14 0.06 -0.26 c 0.06 -0.32 0.13 -0.42 0.28 -0.39 c 0.07 0.01 0.21 0.07 0.32 0.14 c 0.2 0.16 0.25 0.02 0.43 -0.14 c 0.21 -0.18 0.3 -0.16 0.4 -0.12 c 0.03 0.01 0.11 0.13 0.17 0.25 c 0.11 0.23 0.12 0.26 0.13 0.82 c 0.01 0.32 0 0.59 -0.02 0.59 c -0.02 0 -0.03 0.03 -0.03 0.07 c 0 0.12 -0.22 0.53 -0.36 0.68 c -0.2 0.18 -0.4 0.21 -0.66 0.15"/></g><g style="fill:#554570"><path d="m 7.09 13.17 c -0.23 -0.03 -0.88 -0.2 -0.97 -0.25 c -0.01 0 0.04 -0.07 0.11 -0.15 c 0.14 -0.15 0.29 -0.42 0.31 -0.57 c 0.03 -0.16 0.04 -0.16 0.2 -0.07 c 0.23 0.14 0.41 0.21 0.57 0.25 c 0.32 0.08 1.19 0.08 1.51 0 c 0.3 -0.07 0.45 -0.24 0.71 -0.32 c 0.01 0.01 0.03 0.07 0.05 0.15 c 0.05 0.18 0.17 0.4 0.32 0.56 c 0.06 0.07 0.11 0.14 0.1 0.14 c -0.86 0.3 -2.09 0.33 -2.89 0.25"/><path d="m 8.55 5.92 c 0.1 -0.09 0.32 -0.26 0.37 -0.26 c 0.11 0 0.29 -0.11 0.4 -0.23 c 0.16 -0.18 0.23 -0.46 0.19 -0.75 c -0.09 -0.52 -0.45 -0.82 -0.79 -0.65 c -0.22 0.11 -0.35 0.35 -0.39 0.73 c -0.03 0.29 -0.03 0.3 -0.09 0.25 c -0.06 -0.06 -0.31 -0.06 -0.37 0 c -0.02 0.02 -0.05 0.03 -0.06 0.02 c -0.01 -0.01 -0.02 -0.13 -0.04 -0.26 c -0.04 -0.36 -0.13 -0.57 -0.33 -0.71 c -0.12 -0.08 -0.33 -0.11 -0.44 -0.05 c -0.36 0.19 -0.53 0.81 -0.34 1.24 c 0.1 0.23 0.23 0.34 0.48 0.4 c 0.08 0.02 0.15 0.04 0.16 0.05 c 0.07 0.06 0.14 0.1 0.21 0.17 c -0.41 0.24 -0.86 0.75 -1.32 0.88 c -0.07 0 -0.3 -0.15 -0.4 -0.23 c -0.12 -0.27 0 -0.75 0.04 -1.06 c 0.09 -0.82 0.15 -1.09 0.36 -1.49 c 0.22 -0.37 0.51 -0.68 0.85 -0.85 c 0.38 -0.19 0.84 -0.28 1.21 -0.23 c 0.59 0.07 0.98 0.26 1.34 0.65 c 0.29 0.3 0.47 0.67 0.57 1.15 c 0.11 0.52 0.07 0.98 0.21 1.51 c 0.05 0.21 0.05 0.2 -0.31 0.39 l -0.27 0.14 c -0.36 -0.32 -0.95 -0.52 -1.25 -0.8"/></g><g style="fill:#382951"><path d="m 8.55 4.87 c 0 -0.36 0.22 -0.62 0.44 -0.51 c 0.2 0.11 0.29 0.45 0.18 0.68 c -0.06 0.12 -0.23 0.24 -0.35 0.24 c -0.18 -0.06 -0.27 -0.27 -0.27 -0.41"/><path d="m 7.24 5.27 c -0.14 -0.05 -0.27 -0.16 -0.32 -0.27 c -0.13 -0.29 0.09 -0.71 0.33 -0.65 c 0.18 0.04 0.28 0.2 0.3 0.45 c 0.03 0.2 -0.11 0.54 -0.31 0.48"/></g></svg>