<svg xmlns="http://www.w3.org/2000/svg" viewBox="0 0 16 16"><path d="m 0.1 9.82 c 0.69 6.46 9.43 8.19 13.53 3.57 c 3.59 -3.42 3.04 -9.98 -1.06 -12.23 c -4.68 -3 -11.89 0.71 -12.55 6.7 c -0.07 0.66 -0.05 1.32 0.08 1.96" style="fill:#105331"/><g style="fill:#fff"><path d="m 8.12 11.76 l -0.45 -0.03 c -0.25 -0.01 -1.21 -0.02 -2.15 -0.02 h -1.71 v -3.22 l -0.11 -0.11 c -0.17 -0.17 -0.43 -0.53 -0.55 -0.77 c -0.52 -1.04 -0.18 -2.34 0.77 -2.98 c 0.33 -0.22 0.57 -0.31 0.96 -0.36 c 0.71 -0.09 1.27 0.09 1.86 0.61 l 0.32 0.28 h 5.37 v 6.59 l -1.06 -0.02 c -0.58 -0.01 -1.34 -0.01 -1.7 0.01 l -0.64 0.03 c -0.06 0.27 -0.35 0.41 -0.5 0.5 c -0.14 -0.18 -0.26 -0.33 -0.4 -0.51 m -0.42 -0.44 c 0.03 -0.01 0.05 -0.05 0.05 -0.09 c 0 -0.11 -1.36 -2.15 -1.52 -2.3 c -0.15 -0.13 -0.17 -0.14 -0.5 -0.06 c -0.31 0.07 -0.84 0.07 -1.12 0 c -0.36 -0.09 -0.41 -0.08 -0.44 0.08 c -0.03 0.18 -0.03 1.94 0 2.2 l 0.02 0.19 l 0.8 0.01 c 0.9 0.01 2.64 -0.01 2.71 -0.03 m 4.23 -0.01 c 0.04 -0.03 0.05 -0.51 0.09 -2.33 c 0.04 -2.73 0.04 -3.39 -0.04 -3.44 c -0.06 -0.04 -2.8 -0.05 -3.93 -0.01 l -0.75 0.02 v 0.1 c 0.18 0.62 0.18 1.16 0.04 1.68 c -0.06 0.21 -0.32 0.67 -0.56 0.98 c -0.04 0.05 0.11 0.29 1.17 1.91 c 0.38 0.58 0.71 1.07 0.75 1.09 c 0.09 0.04 3.18 0.04 3.24 0 m -6.27 -2.82 c 0.33 -0.08 0.56 -0.23 0.85 -0.52 c 0.43 -0.44 0.57 -0.8 0.57 -1.45 c 0 -0.56 -0.17 -0.96 -0.58 -1.38 c -0.4 -0.41 -0.78 -0.55 -1.44 -0.53 c -0.41 0.01 -0.44 0.02 -0.72 0.16 c -0.58 0.29 -1 0.86 -1.09 1.47 c -0.04 0.31 -0.02 0.72 0.07 0.96 c 0.19 0.58 0.84 1.19 1.38 1.3 c 0.32 0.02 0.66 0.06 0.96 -0.02"/><path d="m 5.72 11.1 c -0.01 -0.01 -0.02 -0.04 -0.02 -0.08 c -0.05 -0.17 -0.2 -0.29 -0.26 -0.46 c -0.06 -0.18 -0.21 -0.1 -0.3 0 c -0.09 0.13 -0.15 0.13 -0.23 0.01 c -0.09 -0.2 -0.07 -0.32 -0.07 -0.55 l -0.16 -0.06 c -0.18 -0.07 -0.19 -0.07 -0.12 -0.19 c 0.05 -0.09 0.11 -0.11 0.27 -0.11 c 0.6 -0.07 0.3 -0.46 0.46 -0.55 c 0.07 -0.04 0.1 -0.04 0.18 -0.01 c 0.05 0.02 0.15 0.05 0.21 0.06 c 0.2 0.1 0.29 0.22 0.4 0.39 c -0.7 -0.24 -0.65 0.16 -0.4 0.55 c 0.11 0.17 0.14 0.18 0.48 0.14 c 0.4 -0.05 0.31 -0.21 0.52 0.03 c 0.1 0.12 0.23 0.29 0.29 0.37 c 0.09 0.13 0.09 0.15 0.04 0.13 c -0.14 -0.05 -0.37 -0.05 -0.55 0 c -0.28 0.02 -0.38 0.35 -0.63 0.35 c -0.05 0 -0.11 -0.01 -0.12 -0.02"/><path d="m 8.54 9.25 c -0.2 -0.15 -0.29 -0.2 -0.51 -0.27 c -0.07 -0.02 -0.81 -0.66 -0.73 -0.78 c 0.15 -0.57 0.68 0.38 0.99 -0.04 c 0.1 -0.09 0.23 -0.17 0.3 -0.18 c 0.25 -0.09 0.17 -0.4 -0.04 -0.43 c -0.09 -0.01 -0.11 -0.03 -0.1 -0.08 c 0.05 -0.17 0.11 -0.46 0.13 -0.6 c 0.02 -0.09 -0.64 -0.36 -0.58 -0.43 c -0.38 -0.72 0.25 -0.48 2.91 -0.45 l 0.76 0.03 v 1.53 c -0.31 -0.99 -0.66 -0.36 -0.22 0.43 c -0.25 0.91 -0.91 -0.33 -0.98 0.33 c -0.05 0.52 -0.04 1.27 -0.25 1.27 c -0.15 0 -0.36 -0.79 -0.45 -0.99 c -0.08 -0.18 -0.22 -0.26 -0.34 -0.18 c -0.14 0.09 -0.53 0.61 -0.56 0.74 c -0.04 0.21 0.03 0.79 0 0.79 c -0.6 0.03 -0.22 -0.59 -0.34 -0.68 m 1.8 -1.74 c 0.02 -0.73 -0.7 -0.61 -1.1 0.11 c -0.3 0.2 0.54 0.48 0.82 0.19"/><path d="m 6.87 6.88 c -0.01 0.01 -0.05 0.02 -0.1 0.02 c -0.21 0.06 -0.35 0.22 -0.57 0.29 c -0.19 0.53 0.22 0.66 -0.67 0.66 l -0.07 0.18 c -0.08 0.2 -0.46 0.28 -0.61 0.22 c -1.26 -0.53 0.23 -0.21 0.23 -0.39 c -0.09 -0.67 -0.57 -0.33 -0.69 -0.51 c -0.05 -0.08 -0.05 -0.11 -0.02 -0.2 c 1.71 0.23 0.88 -0.73 1.45 -1.1 c 0.33 -0.23 0.56 -0.23 0.62 0 c 0.02 0.3 0.43 0.43 0.44 0.7 c 0 0.06 -0.01 0.12 -0.02 0.13"/><path d="m 11.54 10.97 c -0.02 0 -0.06 -0.01 -0.09 -0.03 c -0.21 -0.07 -0.38 -0.04 -0.59 -0.1 c -0.32 0.21 0 0.48 -0.79 0.07 l -0.12 0.07 c -0.13 0.07 -0.8 0.13 -0.9 0.02 c -0.08 -0.09 0.56 -0.2 0.61 -0.3 c 0.12 -0.43 -0.41 -0.46 -0.45 -0.61 c -0.02 -0.07 -0.02 -0.09 0.05 -0.13 c 0.89 0.8 1.46 -0.69 1.53 0.14 c 0.36 0.02 0.94 -1.7 0.92 -1.54 c -0.07 0.19 -0.03 2.18 -0.11 2.35 c -0.02 0.03 -0.05 0.06 -0.06 0.06"/></g></svg>