<svg xmlns="http://www.w3.org/2000/svg" viewBox="0 0 16 16"><path d="m 15.33 9.48 c -1.59 10.67 -17.98 7 -14.88 -3.3 c 2.08 -9.81 18.85 -7.16 14.88 3.3" style="fill:#2159ff"/><path d="m 111.5 198.6 c -11.25 -3.38 -19.88 -8.75 -28.1 -17.31 c -9.31 -9.88 -13.75 -18.75 -16.44 -32.88 l -1.56 -8.5 l -4.63 -4.88 c -5.88 -6.25 -7.5 -10 -7.56 -16.88 c 0 -8.1 1.56 -11.75 7.44 -17.81 l 5 -5.13 v -5.5 c 0 -3 0.31 -6.31 0.69 -7.38 c 0.69 -1.88 1 -1.94 6.31 -1.94 h 5.56 l 5.56 -5.31 c 7.75 -7.31 14.38 -11.63 22.25 -14.5 c 15.69 -5.69 30.1 -5.25 44.5 1.31 c 6.13 2.81 11.63 6.63 18.38 12.81 l 6.1 5.5 l 5.56 0.31 c 3.06 0.13 5.75 0.44 6 0.69 c 0.25 0.25 0.63 3.56 0.88 7.44 l 0.5 6.94 l 4.5 4.56 c 5.94 5.94 8 11.13 7.5 18.81 c -0.38 6.5 -2.81 11.56 -8.1 16.56 c -3.56 3.44 -3.69 3.63 -5.31 11.63 c -1.94 9.31 -3.88 14.94 -7.1 20.75 c -8.1 14.69 -20.31 24.81 -36 29.94 c -7.56 2.44 -24.94 2.88 -32 0.75 m 24.88 -17.56 c 10.19 -2.5 19.88 -9.38 25.69 -18.31 c 4.25 -6.56 5.5 -9.94 6.69 -18.38 c 0.81 -5.63 1.06 -41.75 0.31 -43 c -0.69 -1.13 -4.38 1.13 -10.19 6.13 c -2.75 2.38 -5.31 4.38 -5.69 4.38 c -0.38 0 -2.81 -1.38 -5.44 -3 c -7.81 -4.81 -11 -5.63 -21.44 -5.56 c -10.31 0.06 -14.88 1.31 -21.75 5.94 c -2.06 1.44 -4.13 2.63 -4.56 2.63 c -0.44 0 -2.13 -1.31 -3.81 -2.88 c -4.5 -4.25 -9.38 -7.63 -10.81 -7.63 c -1.94 0 -2.38 6.38 -1.81 25.69 c 0.56 19.88 1.06 23.3 4.38 30.1 c 9.13 18.88 28.88 28.63 48.4 23.94 m -28.1 -93.1 c 13.31 -4.63 23.3 -4.63 36.4 0 l 6.56 2.31 l 2.5 -1.63 c 1.38 -0.88 2.56 -2 2.56 -2.56 c 0 -1.31 -4.69 -5.06 -9.75 -7.81 c -14.63 -7.88 -37.1 -5.06 -48.69 6 l -1.75 1.69 l 2.44 2.13 c 1.38 1.13 2.69 2.13 2.94 2.13 c 0.25 0 3.31 -1 6.81 -2.25" transform="scale(0.063)" style="fill:#fff;stroke:#2159ff;stroke-linecap:round;stroke-width:2"/></svg>