<svg xmlns="http://www.w3.org/2000/svg" viewBox="0 0 16 16"><path d="m 12.16 1.3 c 13.97 11.96 -14.76 23.46 -11.8 4.96 c 0.64 -4.05 8 -8.19 11.8 -4.96" style="fill:#007f7f"/><path d="m 4.17 5.33 c 2.51 -0.41 4.77 -0.7 7.28 -1.11 l 0.24 1.6 c 0.29 1.93 0.53 2.66 0.41 3.12 c -0.57 1.46 -1.52 2.29 -2.23 3.3 c -0.31 0.44 -0.48 0.5 -2.66 0.86 l -1.71 0.28 c -0.44 -2.68 -0.89 -5.37 -1.33 -8.1" style="fill:#fccf2a"/><path d="m 9.77 11.92 c 0.09 -0.54 0.12 -1.21 0.38 -1.59 c 0.2 -0.27 0.3 -0.36 0.75 -0.59 c 0.75 -0.37 0.84 -0.55 1.24 -0.86 c 0.11 0.66 -2.31 3.64 -2.44 3.67 c -0.02 0 0.01 -0.28 0.07 -0.63" style="fill:#b99300"/><path d="m 8.1 10.91 c -0.25 -0.04 -0.41 -0.09 -0.68 -0.25 c -0.26 -0.15 -0.52 -0.38 -0.61 -0.53 c -0.04 -0.05 -0.06 -0.16 -0.06 -0.24 c -0.01 -0.23 0.09 -0.21 0.48 0.11 c 0.56 0.46 0.92 0.56 1.55 0.42 c 0.44 -0.09 0.71 -0.27 0.84 -0.57 c 0.27 -0.59 -0.21 -1.19 -1.14 -1.42 c -0.55 -0.16 -1.3 -0.04 -1.75 -0.4 c -0.34 -0.29 -0.33 -0.73 0.04 -1.22 c 0.27 -0.36 0.7 -0.6 1.18 -0.64 c 0.23 -0.02 0.27 -0.02 0.43 0.07 c 0.19 0.11 0.32 0.26 0.33 0.39 c 0.01 0.1 0 0.1 -0.29 0.02 c -0.51 -0.15 -1.11 0.07 -1.41 0.52 c -0.12 0.18 -0.14 0.28 -0.1 0.42 c 0.05 0.16 0.22 0.21 0.82 0.29 c 0.99 0.12 1.44 0.27 1.86 0.65 c 0.27 0.24 0.43 0.5 0.48 0.8 c 0.06 0.31 -0.04 0.73 -0.23 0.97 c -0.33 0.42 -1.14 0.7 -1.76 0.61" style="fill:#31312e"/></svg>