<svg xmlns="http://www.w3.org/2000/svg" viewBox="0 0 16 16"><path d="m 12.1 1.34 c 14.1 11.94 -14.88 23.43 -11.9 4.95 c 0.65 -4.05 8.1 -8.17 11.9 -4.95" style="fill:#ffd600"/><g transform="matrix(-0.702 -0.422 -0.345 0.598 16.86 7.21)" style="stroke-width:0.11"><path d="m 8.17 11.28 c -0.04 0.04 -0.07 0.09 -0.06 0.15 v 1.33 c 0 0.12 0.1 0.21 0.21 0.21 c 0.12 0 0.21 -0.09 0.21 -0.21 v -1.12" style="fill:#2d4564;stroke:#2d4564"/><path d="m 12.28 11.15 h -3.83 c -0.06 0 -0.11 0.03 -0.15 0.06 l 0.36 0.37 h 3.83 c 0.06 0 0.11 -0.03 0.15 -0.06" style="fill:#365473;stroke:#365473"/><g style="fill:#2d4564;stroke:#2d4564"><path d="m 12.35 9.64 v 1.41 l 0.36 0.37 c 0.04 -0.04 0.06 -0.09 0.06 -0.15 v -1.84"/><path d="m 11.75 9.43 c -0.31 0.03 -0.27 0.64 0.04 0.61 h 0.71 l 0.33 -0.64"/></g></g><path d="m 9.29 9.43 l -1.27 -0.77 l -0.8 1.39 l 1.27 0.76 m -0.47 -2.16 l -1.27 -0.76 l -0.8 1.39 l 1.27 0.77 m -2.13 -1.29 l 1.09 0.66 c 0.23 0.14 0.5 0.08 0.62 -0.13 l 0.38 -0.64 c 0.12 -0.21 0.03 -0.48 -0.2 -0.62 l -1.09 -0.66 c -0.23 -0.14 -0.51 -0.08 -0.63 0.13 l -0.38 0.64 c -0.12 0.21 -0.03 0.48 0.2 0.62 m 5.07 1.18 l -1.09 -0.66 c -0.23 -0.14 -0.5 -0.08 -0.63 0.13 l -0.37 0.64 c -0.12 0.21 -0.04 0.48 0.19 0.62 l 1.09 0.66 c 0.23 0.14 0.5 0.08 0.62 -0.13 l 0.38 -0.64 c 0.12 -0.21 0.03 -0.48 -0.2 -0.62" style="fill:#fff"/><path d="m 7.23 11.76 l -1.31 -0.79 l -1.79 3.09 l 1.31 0.79" style="fill:#f9731e"/><g style="fill-opacity:0.7"><path d="m 13.1 5.88 l -1.27 -0.77 l -2.89 5 l 1.27 0.77" style="fill:#629fea"/><path d="m 11.78 5.11 l -1.27 -0.76 l -2.89 5 l 1.27 0.76" style="fill:#56e388"/><path d="m 10.51 4.35 l -1.27 -0.77 l -2.89 5 l 1.27 0.77" style="fill:#f8e45b"/><path d="m 5.07 7.83 l 1.27 0.76 l 2.89 -5 l -1.27 -0.76" style="fill:#ec333b"/></g><path d="m 10.15 9.95 l -1.09 -0.66 c -0.23 -0.14 -0.51 -0.08 -0.63 0.13 l -0.37 0.64 c -0.12 0.21 -0.04 0.48 0.19 0.62 l 1.09 0.66 c 0.22 0.14 0.5 0.08 0.62 -0.13 l 0.38 -0.64 c 0.12 -0.21 0.03 -0.48 -0.2 -0.62" style="fill:#629fea"/><path d="m 9.29 9.43 l -1.27 -0.77 l -0.8 1.39 l 1.27 0.76" style="fill:#56e388"/><path d="m 5.08 8.77 l 1.09 0.66 c 0.22 0.14 0.5 0.08 0.62 -0.13 l 0.38 -0.64 c 0.12 -0.21 0.03 -0.48 -0.2 -0.62 l -1.09 -0.66 c -0.23 -0.13 -0.51 -0.08 -0.63 0.13 l -0.38 0.64 c -0.12 0.21 -0.03 0.48 0.2 0.62" style="fill:#ec333b"/><path d="m 8 8.66 l -1.27 -0.76 l -0.8 1.39 l 1.27 0.77" style="fill:#f8e45b"/><g transform="matrix(0 0.054 -0.043 0 11.19 2)" style="stroke:#000;stroke-width:1.33"><path d="m 76.5 246 c -21.89 -8.61 -42.76 -25.3 -54.3 -43.4 l -2.48 -3.94 h 17.44 l 4.09 4.58 c 5.4 6 24.66 26.46 34.59 36.72 c 4.31 4.4 7.66 8.15 7.52 8.33 c -0.15 0.18 -3.28 -0.82 -6.86 -2.29"/><path d="m 119.8 254.9 c 0 -1.1 -11.53 -13.64 -32.4 -35.2 l -20.43 -21.2 h 33.42 l 2.7 3.3 c 1.46 1.74 9.92 10.9 18.83 20.24 c 8.83 9.34 19 20.24 22.84 24.2 c 7.66 8.15 7.88 7.42 -2.63 8.61 c -7.73 0.82 -22.33 0.82 -22.33 0"/><path d="m 153.2 222.5 l -23.2 -23.9 h 27.2 l 7 7.69 c 3.87 4.21 12.1 13.1 18.31 19.69 c 6.28 6.59 11.38 12.18 11.38 12.45 c 0 0.46 -13.94 7.1 -16.1 7.6 c -1.09 0.37 -5.98 -4.3 -24.59 -23.53"/><path d="m 186.8 198.6 h 33.3 l 3.14 3.57 c 6.13 7.14 6.1 5.77 0.44 12 c -3.43 3.94 -7.22 7.51 -11.1 10.99"/></g></svg>