<svg xmlns="http://www.w3.org/2000/svg" viewBox="0 0 16 16"><defs><radialGradient id="0" gradientUnits="userSpaceOnUse" cx="32" cy="32" r="18.1" gradientTransform="matrix(0.153 0 0 0.152 3.13 3.35)"><stop style="stop-color:#3d7e95"/><stop offset="1" style="stop-color:#2a5977"/></radialGradient></defs><path d="m 8.47 15.89 c -9.53 0.91 -11.69 -14.42 -1.9 -15.61 c 9 -1.48 13.27 12.42 4.29 15.2 c -0.77 0.3 -1.59 0.3 -2.39 0.41" style="fill:#2f627e"/><path d="m 4.77 4 h 6.54 c 0.52 0 0.94 0.42 0.94 0.94 v 6.46 c 0 0.52 -0.42 0.94 -0.94 0.94 h -6.54 c -0.52 0 -0.94 -0.42 -0.94 -0.94 v -6.46 c 0 -0.52 0.42 -0.94 0.94 -0.94" style="fill:#e2e5e6"/><path d="m 4.94 4.26 h 6.18 c 0.49 0 0.89 0.4 0.89 0.89 v 6.11 c 0 0.49 -0.4 0.89 -0.89 0.89 h -6.18 c -0.49 0 -0.89 -0.4 -0.89 -0.89 v -6.11 c 0 -0.49 0.39 -0.89 0.89 -0.89" style="fill:#444e60"/><path d="m 5.77 5.32 h 4.52 c 0.36 0 0.65 0.29 0.65 0.64 v 4.47 c 0 0.36 -0.29 0.65 -0.65 0.65 h -4.52 c -0.36 0 -0.65 -0.29 -0.65 -0.65 v -4.47 c 0 -0.36 0.29 -0.64 0.65 -0.64" style="fill:#f2f4fa"/><path d="m 5.88 5.46 h 4.3 c 0.34 0 0.62 0.27 0.62 0.62 v 4.25 c 0 0.34 -0.28 0.62 -0.62 0.62 h -4.3 c -0.34 0 -0.62 -0.28 -0.62 -0.62 v -4.25 c 0 -0.34 0.28 -0.62 0.62 -0.62" style="fill:url(#0)"/><path d="m 9.53 6.92 c -0.09 -0.02 -0.18 0.01 -0.24 0.08 l -1.69 1.91 l -0.82 -0.79 c -0.05 -0.05 -0.11 -0.07 -0.18 -0.07 c -0.07 0 -0.13 0.03 -0.18 0.07 c -0.05 0.05 -0.07 0.11 -0.07 0.18 c 0 0.07 0.03 0.13 0.07 0.18 l 1 0.97 c 0.05 0.05 0.12 0.07 0.19 0.07 c 0.07 0 0.13 -0.04 0.18 -0.09 l 1.87 -2.1 c 0.04 -0.05 0.07 -0.11 0.06 -0.18 c 0 -0.07 -0.04 -0.13 -0.09 -0.17 c -0.03 -0.03 -0.07 -0.05 -0.11 -0.05" style="fill:#f2f4fa"/></svg>