<svg xmlns="http://www.w3.org/2000/svg" viewBox="0 0 16 16"><path d="m 2.09 2.45 c -9.1 13.88 15.68 19.24 13.71 4.96 c -0.8 -5.82 -10.25 -10.28 -13.71 -4.96" style="fill:#103997"/><g style="fill:#fff"><path d="m 6 11.96 c -1.09 -0.21 -2.14 -1.05 -2.69 -2.14 c -0.39 -0.77 -0.5 -2.07 -0.27 -2.98 c 0.24 -0.92 0.96 -1.89 1.77 -2.38 c 0.18 -0.11 0.52 -0.27 0.75 -0.34 c 0.9 -0.24 1.89 -0.23 2.73 0.16 c 0.32 0.14 0.84 0.55 0.84 0.64 c -0.22 0.27 -0.45 0.44 -0.72 0.63 l -0.29 -0.19 c -0.47 -0.3 -1.05 -0.44 -1.66 -0.39 c -0.66 0.06 -1.05 0.25 -1.59 0.8 c -0.4 0.4 -0.61 0.75 -0.77 1.27 c -0.13 0.68 -0.16 1.39 0.04 1.97 c 0.3 0.88 0.93 1.57 1.69 1.85 c 0.49 0.17 0.98 0.15 1.44 0.04 l 0.3 -0.07 c 0.14 0.23 0.49 0.59 0.45 0.85 c -0.61 0.3 -1.33 0.4 -2 0.28"/><path d="m 10.27 11.4 c -0.19 -0.17 -0.29 -0.32 -0.44 -0.61 c -0.24 -0.49 -0.35 -0.91 -0.43 -1.66 c -0.08 -0.72 -0.09 -0.81 -0.17 -0.84 c -0.31 -0.05 -0.55 -0.06 -0.88 -0.08 c 0 -0.35 0.02 -0.63 0.05 -0.97 c 0.25 -0.02 0.51 -0.04 0.76 -0.06 v -0.15 c 0 -0.16 -0.14 -0.56 -0.34 -0.96 c -0.07 -0.15 -0.12 -0.29 -0.1 -0.31 c 0.11 -0.11 0.68 -0.51 0.73 -0.51 c 0.16 0 0.54 0.68 0.73 1.32 c 0.2 0.66 0.18 0.65 0.81 0.66 h 0.38 c 0 0.32 0 0.65 0 0.98 c -0.25 0.06 -0.67 -0.05 -0.89 0.11 c -0.13 0.1 -0.02 1.1 0.19 1.75 c 0.11 0.37 0.34 0.65 0.64 0.8 c 0.41 0.15 0.74 0.23 1.2 0.12 c 0.13 -0.04 0.16 -0.03 0.22 0.03 c 0.11 0.12 0.41 0.67 0.41 0.74 c 0 0.15 -0.5 0.25 -1.2 0.25 c -0.62 0 -1.22 -0.21 -1.65 -0.6"/></g></svg>