<svg xmlns="http://www.w3.org/2000/svg" viewBox="0 0 16 16"><path d="m 1.56 12.68 c -5.54 -6.7 5.88 -16.71 12.19 -10.81 c 7.1 6.47 -4.41 19.1 -11.47 11.95 c -0.43 -0.38 -0.48 -0.76 -0.71 -1.13" style="fill:#ecccfb"/><path d="m 5.25 12.75 c 0 -0.03 1.04 -1.07 2.31 -2.32 l 2.3 -2.26 l -0.65 -0.64 c -0.36 -0.36 -0.66 -0.67 -0.66 -0.71 c 0 -0.07 0.53 -0.62 0.64 -0.66 c 0.06 -0.02 0.27 0.17 1.08 0.97 c 0.56 0.54 1.01 1.01 1.01 1.04 c 0 0.03 -1.05 1.09 -2.34 2.34 l -2.33 2.29 h -0.69 c -0.6 0 -0.68 -0.01 -0.68 -0.05 m 0.32 -3.54 c -0.55 -0.54 -1 -1.01 -1 -1.04 c 0 -0.03 1.05 -1.09 2.33 -2.34 l 2.34 -2.29 h 0.69 c 0.59 0 0.69 0.01 0.66 0.05 c -0.02 0.03 -1.05 1.07 -2.31 2.32 l -2.28 2.27 l 0.65 0.64 c 0.36 0.36 0.65 0.67 0.65 0.7 c 0 0.06 -0.63 0.68 -0.68 0.68 c -0.02 0 -0.49 -0.44 -1.04 -0.98" style="fill:#a900ff"/></svg>