<svg xmlns="http://www.w3.org/2000/svg" viewBox="0 0 16 16"><path d="m 8.1 0.17 c 10.55 -1.2 10.41 15.99 -0.19 15.79 c -9.86 0.57 -10.75 -16.73 0.19 -15.79" style="fill:#4581b3"/><path d="m 7.48 13.1 c -0.83 -1.07 -1.34 -1.79 -1.28 -1.83 c 0.02 -0.01 0.3 -0.04 0.63 -0.05 l 0.59 -0.03 v -1.88 c 0 -2.27 -0.04 -3.05 0.04 -3.11 c 0.08 -0.05 0.5 -0.05 0.56 0.01 c -0.01 0.2 0.04 0.46 0.03 0.63 c 0.19 0.04 0.34 0.02 0.53 0.04 l 0.01 2.12 c 0.01 1.34 0.03 2.14 0.05 2.16 c 0.02 0.02 0.29 0.05 0.59 0.07 c 0.32 0.02 0.56 0.05 0.56 0.07 c 0 0.13 -1.7 2.4 -1.79 2.4 c -0.03 0 -0.26 -0.27 -0.52 -0.61" style="fill:#ff8c00"/><g style="fill:#04b9ef"><path d="m 4.28 11.2 c -0.01 -0.02 -0.04 -0.26 -0.05 -0.54 l -0.03 -0.51 l 0.28 -0.07 c 0.59 -0.14 1 -0.4 1.32 -0.82 c 0.29 -0.38 0.38 -0.63 0.41 -1.13 c 0.04 -0.73 -0.11 -1.12 -0.56 -1.59 c -0.3 -0.32 -0.63 -0.5 -1.05 -0.6 l -0.35 -0.09 v -0.51 c 0 -0.38 0.02 -0.52 0.05 -0.56 c 0.07 -0.05 0.45 0 0.78 0.11 c 0.81 0.28 1.38 0.74 1.92 1.56 l 0.19 0.29 c 0 0.83 0 1.66 0 2.48 l -0.24 0.36 c -0.54 0.81 -1.12 1.26 -1.95 1.51 c -0.3 0.09 -0.7 0.14 -0.73 0.09"/><path d="m 11.1 11.16 c -0.3 -0.07 -0.75 -0.23 -0.96 -0.36 c -0.41 -0.25 -1.07 -0.94 -1.25 -1.3 l -0.11 -0.22 c -0.01 -0.85 -0.02 -1.7 -0.03 -2.55 l 0.13 -0.05 c 0.13 -0.05 0.18 -0.16 0.23 -0.4 c 0.03 -0.18 0.21 -0.43 0.36 -0.51 c 0.06 -0.03 0.19 -0.14 0.29 -0.24 c 0.37 -0.39 1.3 -0.79 1.76 -0.74 c 0.14 0.01 0.14 0.01 0.16 0.25 c 0.02 0.13 0.01 0.35 0 0.48 c -0.03 0.27 -0.11 0.37 -0.36 0.41 c -0.29 0.05 -0.66 0.26 -0.95 0.53 c -0.23 0.21 -0.32 0.34 -0.48 0.65 c -0.2 0.28 -0.2 0.52 -0.2 0.85 c 0 0.36 0.02 0.51 0.08 0.67 c 0.14 0.36 0.41 0.75 0.66 0.95 c 0.26 0.21 0.74 0.45 0.98 0.5 c 0.24 0.04 0.29 0.15 0.29 0.64 c 0 0.54 -0.03 0.57 -0.57 0.45"/></g><g style="fill:#ff8c00"><path d="m 8.59 4.42 h 0.98 v 1.06 h -0.98"/><path d="m 6.25 3.75 h 1.09 v 0.72 h -1.09"/><path d="m 6.68 5.11 h 0.7 v 0.62 h -0.7"/><path d="m 8.2 5.72 h 0.7 v 0.71 h -0.7"/><path d="m 7.74 4.66 h 0.54 v 0.77 h -0.54"/></g></svg>