<svg xmlns="http://www.w3.org/2000/svg" viewBox="0 0 16 16"><defs><linearGradient id="0" gradientUnits="userSpaceOnUse" x1="0" x2="1" gradientTransform="matrix(8.265 0 0 9.877 4.88 8.17)"><stop style="stop-color:#b1007f"/><stop offset="0.3" style="stop-color:#ff00e0"/><stop offset="0.81" style="stop-color:#ffa300"/><stop offset="1" style="stop-color:#ff8b00"/></linearGradient><radialGradient id="1" gradientUnits="userSpaceOnUse" cx="-45.64" cy="2.74" r="11.7" gradientTransform="matrix(0.601 0 0 0.599 31.57 4.22)"><stop style="stop-color:#00a9ff"/><stop offset="0.9" style="stop-color:#00afff"/><stop offset="1" style="stop-color:#000"/></radialGradient></defs><path d="m 15.33 9.48 c -1.59 10.67 -17.98 7 -14.88 -3.3 c 2.08 -9.81 18.85 -7.16 14.88 3.3" style="fill:#190401"/><g style="fill-rule:evenodd"><path d="m 12.82 6.27 c 0.18 0.53 0.28 1.09 0.28 1.68 c 0 2.84 -2.32 5.14 -5.16 5.14 c -2.73 0 -4.97 -2.11 -5.15 -4.79 l 5.81 -0.96 h -5.79 c 0.07 -0.57 0.23 -1.11 0.47 -1.62 l 6.39 -1.06 h -5.71 c 0.95 -1.13 2.37 -1.86 3.98 -1.86 c 1.92 0 3.6 1.05 4.49 2.61 l -5.18 0.86" style="fill:#00a9ff"/><path d="m 12.82 6.27 c 0.18 0.53 0.28 1.09 0.28 1.68 c 0 2.84 -2.32 5.14 -5.16 5.14 c -1.16 0 -2.24 -0.38 -3.11 -1.03 c 3.18 -0.09 5.74 -2.64 5.85 -5.8 m 0 -0.57 c -0.05 -0.89 -0.3 -1.73 -0.71 -2.48 c 1.04 0.44 1.9 1.21 2.45 2.19" style="fill:url(#0)"/><path d="m 4.88 12.1 c 0.39 0.3 0.17 0.13 0.02 0.01 c -1.17 -0.88 -1.96 -2.23 -2.07 -3.78 l 5.81 -0.96 h -5.79 c 0.07 -0.57 0.23 -1.11 0.47 -1.62 l 6.39 -1.06 h -5.7 c 0.95 -1.13 2.38 -1.86 3.97 -1.86 c 0.72 0 1.41 0.15 2.04 0.41 c 0.4 0.74 0.66 1.59 0.71 2.48 l -3.43 0.57 h 3.43 c -0.11 3.16 -2.68 5.71 -5.85 5.79" style="fill:url(#1)"/><g style="fill:#fff;fill-opacity:0.1"><path d="m 9.4 3 c 1.3 0.38 2.39 1.25 3.05 2.4 l -5.18 0.86 h 5.57 c 0.18 0.53 0.28 1.09 0.28 1.68 c 0 2.34 -1.56 4.31 -3.7 4.94 l -4.89 -4.87 l 4.09 -0.68 h -3.57 l 2.3 -2.29 l 2.35 -0.39 h -1.96"/><path d="m 12.88 6.33 c 0.17 0.51 0.27 1.06 0.27 1.63 c 0 0.56 -0.09 1.1 -0.26 1.61 l -1.62 -1.62"/><path d="m 10.64 6.27 h 2.2 c 0.18 0.53 0.28 1.09 0.28 1.68 c 0 1.16 -0.39 2.23 -1.04 3.09 l -3.12 -3.1 m 3.11 -3.1 c 0.14 0.18 0.27 0.38 0.38 0.57 l -1.13 0.18"/><path d="m 7.34 2.84 c 0.2 -0.02 0.41 -0.04 0.61 -0.04 c 1.92 0 3.6 1.05 4.49 2.61 l -5.18 0.86 h 5.57 c 0.18 0.53 0.28 1.09 0.28 1.68 c 0 2.84 -2.32 5.14 -5.16 5.14 c -0.2 0 -0.4 -0.01 -0.59 -0.04 l -4.54 -4.52 c -0.01 -0.08 -0.02 -0.16 -0.02 -0.23 l 5.81 -0.96 h -5.79 l 1.85 -1.84 l 5 -0.84 h -4.18"/><path d="m 7.28 7.34 l 1.08 -1.07 h 4.47 c 0.18 0.53 0.28 1.09 0.28 1.68 c 0 1.74 -0.87 3.28 -2.19 4.2 l -4.21 -4.2 l 0.34 -0.34 l 1.58 -0.27 m 2.26 -3.61 c 0.63 0.44 1.15 1.01 1.53 1.68 l -3.85 0.64"/></g></g></svg>