<svg xmlns="http://www.w3.org/2000/svg" viewBox="0 0 16 16"><path d="m 13.94 13.57 c 9.11 -13.98 -15.77 -19.39 -13.79 -5 c 0.81 5.87 10.3 10.36 13.79 5" style="fill:#1096ec"/><g style="fill:#ffdeac"><path d="m 4 9.49 h 7.43 v 0.46 h -7.43"/><path d="m 4 10.96 h 7.43 v 0.46 h -7.43"/></g><g style="fill:#eb4600"><path d="m 10 12.48 c -0.48 -0.08 -1.03 -0.48 -1.27 -0.92 c -0.26 -0.48 -0.25 -1.13 0.03 -1.59 c 0.21 -0.36 0.48 -0.61 0.9 -0.81 c 0.38 -0.21 1.12 -0.18 1.48 -0.07 c 0.25 0.08 0.57 0.27 0.58 0.34 c -0.01 0.09 -0.06 0.15 -0.11 0.23 l -0.27 -0.12 c -0.31 -0.14 -0.66 -0.23 -0.87 -0.23 c -0.62 0 -1.2 0.36 -1.46 0.91 c -0.16 0.35 -0.15 0.88 0 1.17 c 0.1 0.19 0.4 0.49 0.6 0.61 c 0.4 0.23 0.95 0.22 1.35 -0.02 c 0.66 -0.39 0.8 -1.25 0.28 -1.77 c -0.2 -0.2 -0.38 -0.28 -0.77 -0.32 c -0.32 -0.04 -0.81 0.57 -0.84 0.48 c -0.02 -0.05 0.07 -0.54 0.48 -0.73 c 0.3 -0.11 0.74 -0.06 1 0.06 c 0.41 0.2 0.68 0.54 0.77 0.97 c 0.05 0.32 0.02 0.7 -0.1 0.93 c -0.16 0.31 -0.44 0.57 -0.79 0.73 c -0.33 0.15 -0.67 0.2 -0.99 0.15"/><path d="m 3.77 4.38 h 8.17 v 1.53 h -8.17"/></g><g style="fill:#ffdeac"><path d="m 4.07 6.68 h 7.43 v 0.46 h -7.43"/><path d="m 4.07 8.15 h 7.43 v 0.46 h -7.43"/></g></svg>