<svg xmlns="http://www.w3.org/2000/svg" viewBox="0 0 16 16"><path d="m 15.26 11.78 c -3.15 7.55 -15.34 4.19 -15.26 -4.05 c -0.12 -7.48 9.57 -10.32 13.82 -4.99 c 2.13 2.3 2.87 6.13 1.45 9" style="fill:#f4f4f4"/><path d="m 5.18 10.93 v -1.17 l 2.04 -0.02 c 2 -0.01 2.04 -0.02 2.28 -0.13 c 0.3 -0.13 0.54 -0.38 0.73 -0.73 c 0.13 -0.25 0.14 -0.25 0.14 -0.12 c 0 0.25 -0.18 0.93 -0.36 1.3 c -0.32 0.71 -0.86 1.32 -1.57 1.79 l -0.38 0.25 h -2.89 m 0.01 -4.6 c 0.47 0.01 0.93 -0.02 1.39 -0.02 c 0 0.46 0 0.91 0 1.38 c -0.46 0.01 -0.93 0.02 -1.4 0.02 c -0.01 -0.46 0 -0.93 0.01 -1.39 m -1.4 -0.44 c -0.05 -0.32 0.01 -0.61 0.01 -0.95 c 0.36 -0.02 0.57 0 0.95 0 c 0 0.32 0 0.64 0 0.96 c -0.32 -0.02 -0.65 0.03 -0.96 0" style="fill:#516676"/><path d="m 6.91 12.1 l 0.8 -0.48 c 1 -0.77 2 -1.77 2.56 -2.75 c 0.11 -0.16 0.04 0.35 -0.08 0.78 c -0.28 1 -0.98 1.84 -1.89 2.34 c -0.22 0.17 -0.96 0.16 -1.38 0.12" style="fill:#354a5b"/><path d="m 8.43 11.89 c 1.2 -0.86 1.88 -2.38 1.86 -3.15 c -0.02 -0.25 0.11 -0.91 -0.13 -1.33 c -0.14 -0.23 -0.47 -0.55 -0.69 -0.64 c -0.16 -0.07 -1.29 -0.11 -4.13 -0.14 h -0.24 c 0 -0.79 0 -1.59 0 -2.38 l 2.34 0.02 c 0.91 0.07 2.07 -0.01 2.73 0.15 c 1.15 0.41 1.96 1.17 2.44 2.29 c 0.39 0.9 0.39 2.09 0.02 3 c -0.38 0.91 -1.13 1.68 -2.04 2.1 c -0.54 0.25 -0.72 0.29 -1.68 0.31 h -0.97" style="fill:#c24ae6"/><path d="m 12.64 7.97 c -0.85 -1.54 -1.31 -1.89 -2.78 -2.73 c -0.35 -0.2 -1.88 -0.83 -2.05 -0.91 c -0.09 -0.04 -0.04 -0.04 0.69 -0.03 c 0.99 0.02 1.56 0.05 1.78 0.11 c 0.24 0.06 0.77 0.32 1.03 0.49 c 0.78 0.54 1.34 1.35 1.55 2.27 c 0.05 0.23 0.09 1.05 0.05 1.21 l -0.02 0.11" style="fill:#d482e8"/></svg>