<svg xmlns="http://www.w3.org/2000/svg" viewBox="0 0 16 16"><defs><linearGradient id="4" gradientUnits="userSpaceOnUse" x1="6.63" y1="9.67" x2="8.83" y2="12.32" gradientTransform="matrix(0.881 0 0 1.128 1.18 -2.99)"><stop style="stop-color:#666a70"/><stop offset="1" style="stop-color:#2f3335"/></linearGradient><linearGradient id="5" gradientUnits="userSpaceOnUse" x1="7.08" y1="8.58" x2="8.56" y2="9.73" gradientTransform="matrix(0.475 0 0 0.543 4.17 4.39)"><stop style="stop-color:#f45b17"/><stop offset="1" style="stop-color:#ed3e00"/></linearGradient><linearGradient id="3" gradientUnits="userSpaceOnUse" x1="3" y1="5" x2="12" y2="13" gradientTransform="matrix(0.475 0 0 0.543 4.17 4.39)"><stop style="stop-color:#9ca5b0"/><stop offset="1" style="stop-color:#727d86"/></linearGradient><linearGradient id="1" gradientUnits="userSpaceOnUse" y1="14" x2="0" y2="15" gradientTransform="matrix(0.475 0 0 0.543 4.17 4.39)"><stop style="stop-color:#000;stop-opacity:0.2"/><stop offset="1" style="stop-color:#000;stop-opacity:0"/></linearGradient><linearGradient id="0" gradientUnits="userSpaceOnUse" y1="12" x2="0" y2="16" gradientTransform="matrix(0.475 0 0 0.543 4.17 4.39)"><stop style="stop-color:#9da8b2"/><stop offset="1" style="stop-color:#787f85"/></linearGradient><linearGradient id="2" gradientUnits="userSpaceOnUse" y1="-2" x2="0" y2="9" gradientTransform="matrix(0.475 0 0 0.543 4.17 4.39)"><stop style="stop-color:#9da5b0"/><stop offset="0.15" style="stop-color:#9da5b0"/><stop offset="0.85" style="stop-color:#868e96"/><stop offset="1" style="stop-color:#868e96"/></linearGradient></defs><path d="m 12.5 2.34 c 14.24 16.62 -20.24 18.98 -10.77 2 c 2.16 -3.87 6.99 -6.42 10.77 -2"/><path d="m 7.5 11.46 v 1.09 h -0.95 v 0.54 h 2.85 v -0.54 h -0.95 v -1.09" style="fill:url(#0)"/><path d="m 7.5 11.46 h 0.95 v 1.36 h -0.95" style="fill:url(#1)"/><path d="m 6.48 4.39 h 2.98 c 0.23 0 0.41 0.2 0.41 0.44 v 5.1 c 0 0.24 -0.18 0.44 -0.41 0.44 h -2.98 c -0.23 0 -0.41 -0.2 -0.41 -0.44 v -5.1 c 0 -0.24 0.18 -0.44 0.41 -0.44" style="fill:url(#2)"/><path d="m 5.6 7.11 c -0.26 0 -0.48 0.25 -0.48 0.54 v 3.26 c 0 0.6 0.42 1.09 0.95 1.09 h 3.8 c 0.53 0 0.95 -0.48 0.95 -1.09 v -3.26 c 0 -0.3 -0.21 -0.54 -0.47 -0.54 c -0.26 0 -0.48 0.25 -0.48 0.54 v 3.26 h -3.8 v -3.26 c 0 -0.3 -0.21 -0.54 -0.47 -0.54" style="fill:url(#3)"/><path d="m 9.87 8.2 v 1.63 c 0 0.3 -0.21 0.55 -0.47 0.55 h -2.85 c -0.26 0 -0.48 -0.25 -0.48 -0.55 v -1.63" style="fill:url(#4)"/><path d="m 8.45 9.28 c 0 0.3 -0.21 0.54 -0.48 0.54 c -0.26 0 -0.47 -0.24 -0.47 -0.54 c 0 -0.3 0.21 -0.54 0.47 -0.54 c 0.26 0 0.48 0.25 0.48 0.54" style="fill:url(#5)"/></svg>