<svg xmlns="http://www.w3.org/2000/svg" viewBox="0 0 16 16"><path d="m 15.25 5.1 c 6 19.32 -26.3 9.66 -11.18 -3.58 c 3 -2.65 9.56 -1.63 11.18 3.58" style="fill:#ffe74e"/><path d="m 10.1 12.17 c -0.02 -0.19 -0.03 -0.39 -0.04 -0.58 c -0.21 -0.02 -0.43 -0.03 -0.64 -0.04 l -0.02 -2.63 c 0.21 0 0.43 0 0.65 0 c 0.02 -0.18 -0.05 -0.47 0.05 -0.62 c 0.04 -0.03 0.33 -0.04 0.96 -0.04 l 0.91 0.01 c 0.01 0.19 0 0.41 0.07 0.59 c 0.2 0.08 0.34 0 0.56 0 c -0.02 0.42 0.05 0.92 0.02 1.34 c -0.14 0.04 -0.59 0.01 -1.25 0.04 c -0.66 0.03 -1.02 0.03 -1.18 0.05 c -0.04 0.18 0 0.43 0.01 0.63 c 0.82 0.02 1.52 -0.05 2.39 -0.05 c 0.03 0.23 0.03 0.46 0.03 0.69 c -0.2 0.02 -0.43 0 -0.61 0.07 c -0.08 0.18 -0.04 0.35 -0.08 0.54 c -0.67 0.04 -1.18 0.05 -1.81 0.01 m 1.23 -2.61 c 0.09 -0.04 0.06 -0.55 0.02 -0.62 c -0.23 -0.08 -0.41 0 -0.69 0 c 0 0.2 -0.03 0.39 0 0.59 c 0.21 0.11 0.42 0.02 0.67 0.03 m -6.43 2.03 c -0.03 -0.08 -0.04 -1.04 -0.02 -3.35 l 0.03 -3.24 h 3.79 c 0.01 0.19 -0.02 0.4 0.05 0.57 c 0.21 0.09 0.42 0.01 0.63 0.1 c 0.07 0.2 0.05 0.36 0.05 0.57 c 0.18 0 0.38 -0.02 0.55 0.03 c 0.05 0.04 0.08 1.12 0.04 1.63 l -0.03 0.32 h -0.28 c -0.34 -0.02 -0.4 -0.12 -0.36 0.41 v 0.25 h -0.64 l -0.02 -1.26 c -0.18 -0.02 -0.35 -0.03 -0.52 -0.04 c -0.02 -0.21 0.04 -0.5 -0.04 -0.69 c -0.21 -0.07 -0.42 0 -0.64 -0.02 c -0.01 -0.19 -0.02 -0.37 -0.02 -0.56 c -0.21 0 -0.43 0 -0.64 0 c 0 0.19 0.01 0.44 -0.03 0.62 c -0.24 -0.01 -0.35 0.02 -0.55 0.02 c 0 1.12 0.01 2.09 0.02 3.21 c 0.89 0.06 1.25 0.02 2.16 0.02 c 0.35 -0.04 0.33 -0.08 0.33 0.59 c 0 0.45 0 0.94 -0.04 1.38 c -1.2 0.03 -2.3 0.02 -3.46 0.05 c 0.04 -0.65 0.01 -0.66 -0.34 -0.62 m 5.74 -5.92 c -0.19 -0.07 -0.35 -0.05 -0.56 -0.05 c 0 -0.22 0 -0.44 0 -0.66 c 0.18 -0.01 0.39 0.02 0.56 -0.05 c 0.07 -0.04 0.05 -0.36 0.05 -0.57 c 0.22 0.01 0.44 0.02 0.66 0.02 c 0.01 0.18 0.02 0.37 0.02 0.55 c 0.18 0.01 0.36 0.02 0.54 0.02 c 0 0.23 0 0.47 0 0.7 c -0.18 0.02 -0.35 0.03 -0.52 0.04 c -0.02 0.18 -0.03 0.36 -0.04 0.54 c -0.22 0.01 -0.44 0.02 -0.66 0.02 c -0.01 -0.19 0.02 -0.41 -0.05 -0.57" style="fill:#0d0902"/></svg>