<svg xmlns="http://www.w3.org/2000/svg" viewBox="0 0 16 16"><path d="m 7.89 15.97 c -1.64 -0.07 -3.54 -0.79 -4.83 -1.83 c -1.58 -1.27 -2.68 -3.27 -2.91 -5.28 c -0.26 -2.65 1.41 -5.57 3.22 -7 c 0.9 -0.7 2.09 -1.27 3.19 -1.54 c 2.86 -0.71 5.76 0.32 7.67 2.71 c 1.14 1.43 1.71 2.9 1.78 4.66 c 0.09 2.11 -0.85 4.41 -2.44 6 c -1.8 1.51 -3.62 2.36 -5.67 2.29" style="fill:#096051"/><g style="fill:#fff"><path d="m 10.16 5 c -0.09 -0.04 -0.01 -0.13 0.05 -0.18 c 0.12 -0.09 0.29 -0.29 0.16 -0.38 c -0.11 -0.07 -0.13 -0.12 -0.09 -0.2 c 0.04 -0.08 0.11 -0.06 0.32 0.06 c 0.08 0.04 0.08 0.12 0.23 0.02 c 0.14 -0.09 0.2 -0.18 0.27 -0.14 c 0.05 0.04 0.1 0.08 0.1 0.11 c -0.05 0.09 -0.13 0.18 -0.16 0.28 c 0 0.03 0.04 0.1 0.12 0.19 c 0.09 0.09 0.11 0.14 0.05 0.23 c -0.14 0.17 -0.26 -0.11 -0.36 -0.18 c -0.09 -0.05 -0.22 0 -0.37 0.14 c -0.14 0.13 -0.15 0.13 -0.31 0.05"/><path d="m 10.29 4 c -0.04 -0.01 -0.06 -0.03 -0.08 -0.07 c -0.02 -0.06 0 -0.11 0.09 -0.19 c 0.18 -0.15 0.08 -0.29 -0.02 -0.39 c -0.05 -0.05 -0.09 -0.11 -0.09 -0.12 c 0 -0.01 0.02 -0.04 0.04 -0.06 c 0.06 -0.05 0.09 -0.05 0.31 0.07 c 0.16 0.09 0.17 0.09 0.3 -0.02 c 0.12 -0.11 0.16 -0.14 0.2 -0.14 c 0.02 0 0.14 0.11 0.15 0.14 c 0.01 0.03 -0.01 0.06 -0.07 0.14 c -0.12 0.14 -0.12 0.17 0.03 0.34 c 0.07 0.08 0.1 0.13 0.1 0.15 c 0 0.04 -0.12 0.16 -0.16 0.16 c -0.13 -0.06 -0.24 -0.21 -0.38 -0.21 c -0.07 0 -0.14 0.04 -0.21 0.11 c -0.07 0.08 -0.15 0.12 -0.21 0.11"/><path d="m 12.65 5.97 c -0.13 -0.18 -0.11 -0.28 -0.11 -0.5 h -0.46 c -0.9 0 -3.25 0.03 -3.25 0.04 c 0 0 -0.01 0.09 -0.02 0.18 c -0.02 0.23 -0.04 0.26 -0.16 0.26 c -0.2 -0.01 -0.14 -0.3 -0.14 -0.43 v -0.34 c 0.13 -0.01 0.27 -0.02 0.4 -0.04 v -0.12 c 0 -0.07 -0.01 -0.48 -0.02 -0.91 c -0.01 -0.43 -0.02 -0.79 -0.02 -0.79 c 0 0 0.36 -0.11 0.63 -0.18 c 0.3 -0.05 0.32 -0.08 0.43 0.09 c 0.04 0.1 -0.01 0.14 -0.27 0.2 c -0.26 0.05 -0.37 0.1 -0.41 0.19 c -0.04 0.08 0.01 0.18 0.11 0.23 c 0.21 0.05 0.39 -0.02 0.6 0.05 c 0.04 0.04 0.05 0.11 0 0.14 c -0.2 0.15 -0.52 -0.05 -0.7 0.13 c -0.04 0.04 -0.05 0.13 -0.02 0.18 c 0.05 0.09 0.18 0.12 0.45 0.12 c 0.27 0 0.32 0.02 0.29 0.11 c -0.02 0.1 -0.07 0.11 -0.39 0.13 c -0.27 0.02 -0.3 0.03 -0.34 0.11 c -0.03 0.07 -0.04 0.17 -0.02 0.21 c 0.02 0.05 0.12 0.09 0.25 0.1 c 0.12 0.02 1.77 0.01 2.34 0 l 0.33 -0.01 v -0.15 c 0 -0.22 0 -0.22 -0.35 -0.25 c -0.27 -0.02 -0.33 -0.04 -0.33 -0.1 c -0.02 -0.11 0.01 -0.13 0.38 -0.16 c 0.23 -0.02 0.28 -0.03 0.31 -0.09 c 0.02 -0.06 0.03 -0.2 0.01 -0.23 c -0.02 -0.03 -0.17 -0.04 -0.45 -0.05 c -0.13 0 -0.17 0 -0.2 -0.02 c -0.04 -0.02 -0.04 -0.02 -0.04 -0.09 c 0.02 -0.15 0.28 -0.12 0.36 -0.13 c 0.3 -0.02 0.32 -0.02 0.35 -0.06 c 0.02 -0.02 0.02 -0.05 0.02 -0.14 c 0 -0.18 0 -0.19 -0.36 -0.22 c -0.28 -0.02 -0.35 -0.04 -0.39 -0.08 c -0.04 -0.04 -0.04 -0.09 -0.01 -0.13 c 0.01 -0.11 0.31 -0.13 1.17 -0.09 v 0.03 c -0.02 0.17 -0.03 0.36 -0.04 0.52 c -0.02 0.47 -0.05 0.95 -0.05 1.42 l 0.13 0.02 c 0.17 0.02 0.26 0.06 0.29 0.14 c 0.01 0.19 0.07 0.56 -0.09 0.67 c -0.07 0.03 -0.13 0.03 -0.18 -0.01"/><path d="m 6.46 7.77 c -0.05 -0.01 -0.09 -0.04 -0.1 -0.05 c -0.02 -0.05 -0.03 -0.54 -0.03 -1.06 v -0.58 c -0.19 0.01 -0.38 0.02 -0.57 0.04 l -0.05 0.19 c -0.14 0.55 -0.23 0.76 -0.49 1.02 c -0.11 0.11 -0.35 0.31 -0.41 0.34 c -0.18 0 -0.24 -0.08 -0.36 -0.2 c 0.08 -0.08 0.17 -0.15 0.25 -0.21 c 0.27 -0.22 0.52 -0.45 0.62 -0.79 c 0.02 -0.07 0.05 -0.3 0.05 -0.36 c -0.25 -0.07 -0.4 -0.04 -0.76 -0.06 c -0.02 -0.01 -0.03 -0.56 -0.02 -0.73 c 0 -0.19 0.04 -0.52 0.06 -0.54 c 0.26 -0.02 0.48 -0.02 0.76 -0.04 h 0.04 c 0 -0.2 0 -0.41 0 -0.61 h -0.03 c -0.21 -0.07 -0.5 0.07 -0.7 0 c -0.04 -0.02 -0.04 -0.09 -0.04 -0.16 c 0 -0.12 0.04 -0.13 0.48 -0.17 l 0.29 -0.02 v -0.05 c 0.05 -0.2 -0.02 -0.47 0.1 -0.65 c 0.01 -0.02 0.03 -0.02 0.09 -0.01 c 0.11 0.01 0.19 -0.06 0.21 0 c 0.01 0.17 -0.03 0.4 -0.03 0.74 c 0.16 0 0.3 -0.02 0.46 -0.03 c 0.05 -0.17 -0.03 -0.64 0.13 -0.72 c 0.03 -0.02 0.3 -0.05 0.3 -0.04 c 0 0.24 -0.01 0.44 -0.02 0.69 v 0.06 c 0.27 0.01 0.55 0.02 0.82 0.03 h 0.04 v 0.36 c 0 0.49 -0.03 0.73 -0.09 0.79 c -0.04 0.04 -0.14 0.05 -0.36 0.05 c -0.32 0 -0.44 0.06 -0.44 0.06 c -0.01 0.06 -0.01 0.52 0.01 0.65 v 0.05 c 0.34 0 0.68 0 1.02 0 v 0.09 c 0 0.15 -0.02 0.58 -0.04 0.7 c -0.02 0.16 -0.06 0.32 -0.09 0.41 c -0.09 0.17 -0.23 0.26 -0.41 0.26 c -0.07 0 -0.14 -0.07 -0.17 -0.17 c -0.04 -0.11 -0.02 -0.14 0.07 -0.18 c 0.13 -0.06 0.24 -0.2 0.27 -0.36 c 0.02 -0.11 0.02 -0.32 0 -0.37 c -0.03 -0.06 -0.05 -0.06 -0.44 -0.04 h -0.19 v 0.21 c 0 0.11 -0.01 0.47 -0.02 0.79 c 0 0.32 -0.02 0.59 -0.02 0.61 c -0.05 0.05 -0.14 0.05 -0.21 0.05 m -1 -2.16 c 0.02 -0.18 0.06 -0.5 -0.12 -0.58 c -0.12 -0.05 -0.29 -0.02 -0.34 0.06 c -0.04 0.06 -0.06 0.19 -0.06 0.4 c 0 0.28 0.02 0.31 0.24 0.3 c 0.14 0 0.25 -0.07 0.29 -0.18 m 0.84 0.16 v -0.17 c 0.01 -0.26 0.01 -0.46 -0.01 -0.49 c -0.02 -0.04 -0.08 -0.07 -0.18 -0.09 c -0.19 -0.04 -0.29 0.05 -0.32 0.28 c -0.02 0.11 -0.01 0.39 0.01 0.43 c 0.15 0.11 0.33 0.05 0.5 0.04 m -0.02 -1.08 c 0.02 -0.2 0.02 -0.35 0.03 -0.56 c -0.1 -0.01 -0.32 -0.02 -0.41 -0.02 c -0.07 0 -0.18 0.31 -0.09 0.52 c 0.09 0.17 0.38 0.16 0.47 0.06 m 0.95 -0.12 c 0.03 -0.13 0.04 -0.33 0.02 -0.38 c -0.03 -0.07 -0.12 -0.1 -0.32 -0.08 c -0.23 0.02 -0.23 0.04 -0.24 0.34 c 0 0.24 0 0.19 0.07 0.21 c 0.2 0.04 0.42 0.07 0.46 -0.1"/><path d="m 3.73 6.67 c 0 -1.6 -0.02 -1.77 -0.18 -1.52 c -0.06 0.09 -0.11 0.14 -0.15 0.14 c -0.07 0 -0.22 -0.13 -0.22 -0.2 c 0 -0.04 0.04 -0.12 0.18 -0.32 c 0.25 -0.38 0.4 -0.66 0.63 -1.21 c 0.19 -0.46 0.21 -0.5 0.25 -0.5 c 0.05 -0.01 0.32 0.08 0.35 0.13 c 0.02 0.03 -0.08 0.27 -0.33 0.77 l -0.16 0.32 v 3.44 c -0.12 0 -0.24 0 -0.36 0"/><path d="m 10.29 7.75 c -0.09 -0.03 -0.11 -0.05 -0.16 -0.16 c -0.09 -0.17 0.01 -0.17 0.14 -0.18 c 0.18 -0.02 0.22 -0.04 0.24 -0.09 c 0.02 -0.15 0.02 -0.27 0.02 -0.43 h -0.08 c -0.43 0 -2 -0.04 -2 -0.04 c -0.01 -0.01 0.03 -0.3 0.04 -0.3 c 0 0 0.32 0 0.71 0.01 c 0.41 0.01 0.82 0.01 1.24 0.02 c 0.2 -0.16 0.45 -0.3 0.61 -0.5 c 0 -0.01 -0.01 -0.02 -0.02 -0.02 c -0.07 -0.02 -0.36 -0.04 -0.89 -0.04 c -0.61 -0.01 -0.74 -0.02 -0.78 -0.07 c -0.03 -0.03 -0.04 -0.1 -0.02 -0.13 c 0.05 -0.07 0.36 -0.09 1.18 -0.08 c 0.68 0.01 1.16 0.02 1.29 0.04 c 0.3 -0.04 0.13 0.24 -0.11 0.27 c -0.2 0.13 -0.53 0.25 -0.59 0.47 c 0.03 0.03 0.2 0.04 1 0.04 c 0.95 0 0.91 0 0.91 0.09 c 0 0.07 -0.02 0.11 -0.05 0.13 c -0.07 0.04 -0.32 0.05 -1.18 0.08 c -0.28 0.01 -0.56 0.02 -0.84 0.03 l -0.02 0.22 c -0.03 0.46 -0.07 0.54 -0.3 0.61 c -0.11 0.03 -0.23 0.05 -0.32 0.02"/><path d="m 8.44 11.56 c 0 -0.21 0 -0.21 0.37 -0.24 h 0.14 v -0.13 c 0 -0.48 0.03 -2.06 0.04 -2.06 c 0.33 -0.02 0.6 -0.02 0.95 -0.04 h 0.04 l 0.03 -0.28 c 0.03 -0.31 0.04 -0.35 0.11 -0.38 c 0.06 -0.02 0.18 -0.03 0.2 0 c 0.06 0.22 0.05 0.36 0.07 0.6 v 0.06 c 0.2 0 0.4 0 0.61 0 c 0.02 -0.25 0.01 -0.46 0.05 -0.7 c 0.07 -0.06 0.13 -0.04 0.23 -0.02 c 0.05 0.03 0.07 0.1 0.1 0.41 c 0.02 0.16 0.03 0.3 0.04 0.3 c 0.33 0.03 0.6 0.04 0.95 0.07 c 0 0 0.01 0.43 0.02 0.96 c 0.01 0.52 0.02 1.02 0.02 1.09 v 0.14 c 0.17 0.03 0.42 -0.01 0.55 0.09 c 0.02 0.03 0.05 0.18 0.05 0.24 v 0.04 h -4.57 c 0 -0.05 0 -0.09 0 -0.14 m 1.46 -0.19 c 0.06 -0.02 0.08 -0.07 0.1 -0.2 c 0.02 -0.12 0.01 -0.46 -0.01 -0.54 c -0.04 -0.12 -0.11 -0.15 -0.31 -0.15 c -0.23 0 -0.3 0.04 -0.33 0.2 c -0.02 0.13 -0.01 0.5 0.02 0.59 c 0.09 0.16 0.37 0.11 0.54 0.08 m 1.09 -0.11 c 0.03 -0.09 0.05 -0.4 0.02 -0.52 c -0.02 -0.1 -0.06 -0.18 -0.12 -0.21 c -0.05 -0.03 -0.26 -0.04 -0.36 -0.02 c -0.15 0.03 -0.18 0.1 -0.18 0.43 c 0 0.22 0.02 0.36 0.05 0.41 c 0.2 0.06 0.52 0.11 0.58 -0.08 m 0.94 0.11 c 0.07 -0.03 0.09 -0.06 0.11 -0.21 c 0.03 -0.16 0.02 -0.39 -0.02 -0.5 c -0.05 -0.12 -0.12 -0.16 -0.3 -0.16 c -0.3 0 -0.34 0.07 -0.33 0.52 c 0.01 0.3 0.03 0.34 0.13 0.38 c 0.07 0.02 0.35 0.01 0.42 -0.02 m -2.07 -1.13 c 0.05 -0.02 0.1 -0.07 0.12 -0.13 c 0.02 -0.27 0.01 -0.41 0 -0.67 c -0.21 0 -0.41 0 -0.62 0 c 0.02 0.23 -0.08 0.52 0.01 0.73 c 0.13 0.11 0.32 0.12 0.49 0.07 m 1.12 -0.1 c 0.05 -0.3 0.04 -0.44 0.02 -0.7 c -0.2 0 -0.41 0 -0.61 0 v 0.07 c 0 0.22 -0.04 0.43 0.01 0.64 c 0.13 0.13 0.5 0.18 0.59 -0.01 m 1.04 0.01 c 0.04 -0.28 0.02 -0.43 0.01 -0.71 c -0.21 0 -0.41 0 -0.62 0 l -0.01 0.2 c -0.01 0.25 0 0.49 0.02 0.54 c 0.14 0.06 0.55 0.1 0.6 -0.02"/><path d="m 12.49 12.93 c -0.3 -0.29 -1.09 -0.63 -1.14 -0.83 c 0.01 -0.07 0.06 -0.12 0.12 -0.14 c 0.04 -0.01 0.06 -0.01 0.15 0.02 c 0.3 0.11 0.8 0.38 1.03 0.55 c 0.27 0.05 0 0.48 -0.16 0.39"/><path d="m 8.86 12.98 c -0.09 -0.06 -0.2 -0.12 -0.23 -0.21 c 0.35 -0.19 0.76 -0.41 1.04 -0.59 c 0.25 -0.17 0.35 -0.22 0.4 -0.22 c 0.07 0 0.28 0.15 0.32 0.23 c 0.01 0.13 -0.75 0.47 -0.98 0.58 c -0.27 0.14 -0.5 0.25 -0.5 0.25 c -0.02 -0.01 -0.04 -0.02 -0.05 -0.03"/><path d="m 6.63 13.1 c -0.06 -0.06 -0.08 -0.35 -0.08 -0.93 v -0.33 c -0.11 -0.02 -0.2 -0.03 -0.29 -0.04 c -0.36 -0.03 -0.38 -0.04 -0.38 -0.19 c 0 -0.12 0 -0.12 0.26 -0.12 c 0.21 0 0.22 0 0.28 -0.03 c 0.17 -0.11 0.19 -0.36 0.11 -0.54 c -0.06 -0.12 -0.13 -0.14 -0.53 -0.15 c -0.29 0 -0.27 -0.01 -0.29 0.1 c -0.02 0.11 -0.04 0.44 -0.07 1.18 c -0.03 0.88 -0.03 0.88 -0.07 0.9 c -0.15 0.04 -0.33 0.11 -0.46 0.08 c -0.04 -0.04 -0.05 -0.11 -0.04 -0.19 c 0.07 -0.15 0.24 -0.23 0.26 -0.38 c 0.02 -0.67 0.05 -1.13 0.05 -1.82 l -0.41 -0.04 c -0.38 -0.04 -0.44 0.01 -0.52 0.09 c -0.06 0.06 -0.13 0.2 -0.13 0.25 c 0.08 0.19 0.33 0 0.4 -0.09 c 0.04 -0.05 0.08 -0.09 0.08 -0.08 c 0.02 0 0.17 0.18 0.21 0.24 c 0.07 0.1 0.08 0.25 -0.07 0.25 c -0.06 0 -0.28 -0.02 -0.49 -0.02 c -0.51 -0.02 -0.58 -0.03 -0.59 -0.11 c -0.01 -0.06 0 -0.08 0.05 -0.11 c 0.11 -0.09 0.18 -0.23 0.2 -0.37 c -0.01 -0.03 -0.1 -0.05 -0.28 -0.05 h -0.18 v 0.25 c -0.02 0.66 -0.01 1.24 -0.03 1.92 v 0.26 c -0.1 0 -0.2 0 -0.29 0 v -2.7 h 0.32 c 0.34 0 0.39 -0.02 0.42 -0.07 c 0.02 -0.03 0.02 -0.03 -0.06 -0.17 c -0.03 -0.05 -0.02 -0.09 0.03 -0.12 c 0.21 -0.01 0.28 0.1 0.48 0.2 c 0.05 0.02 0.12 -0.02 0.21 -0.11 c 0.09 -0.09 0.11 -0.13 0.07 -0.17 c -0.06 -0.05 -0.19 -0.07 -0.98 -0.1 c -0.43 -0.02 -0.51 -0.04 -0.5 -0.13 c 0.01 -0.07 0.04 -0.07 0.83 -0.07 h 0.73 l 0.1 -0.2 c 0.16 -0.33 0.2 -0.37 0.33 -0.34 c 0.04 0.01 0.07 0.02 0.07 0.03 c 0.04 0.14 -0.22 0.41 -0.07 0.5 c 0.02 0.01 0.05 0.02 0.08 0.02 c 0.02 0 0.05 0.01 0.06 0.01 c 0.03 0.02 -0.01 0.09 -0.14 0.23 c -0.29 0.3 -0.34 0.37 -0.34 0.44 c 0 0.03 0.01 0.05 0.03 0.06 c 0.18 0.04 0.38 0 0.58 0 l 0.05 0.06 c 0.07 0.07 0.09 0.09 0.22 0.11 c 0.14 0.02 0.59 0.04 0.75 0.02 c 0.13 -0.05 0.23 -0.33 0.28 -0.47 c 0.13 -0.43 0.22 -0.51 0.35 -0.47 c 0.16 0.05 0.16 0.11 0.02 0.45 c -0.1 0.24 -0.13 0.34 -0.13 0.41 c 0.11 0.16 0.45 0.06 0.61 0.14 c 0.02 0.02 0.01 0.16 -0.01 0.19 c -0.03 0.04 -0.11 0.05 -0.44 0.05 h -0.32 c 0 0.23 0 0.45 0 0.68 h 0.32 c 0.36 0 0.38 0.01 0.4 0.09 c 0 0.03 0 0.07 0 0.1 c -0.21 0.18 -0.45 0.11 -0.75 0.13 v 0.57 c 0 0.65 -0.01 0.67 -0.09 0.71 c -0.07 0.04 -0.16 0.04 -0.19 0.01"/><path d="m 6.21 10.16 c -0.13 -0.12 -0.21 -0.29 -0.22 -0.46 c 0.02 -0.13 0.09 -0.15 0.19 -0.13 c 0.1 0.07 0.27 0.47 0.23 0.54 c -0.02 0.04 -0.09 0.08 -0.13 0.08 c -0.02 0 -0.05 -0.01 -0.06 -0.02"/><path d="m 5.73 9.13 v -0.15 h 0.38 c 0.82 0.02 1.32 0.04 1.39 0.05 c 0.11 0.02 0.13 0.04 0.15 0.2 v 0.05 h -1.92"/><path d="m 6.6 8.81 c -0.16 -0.07 -0.26 -0.29 -0.18 -0.38 c 0.05 -0.05 0.1 -0.07 0.21 -0.07 h 0.1 l 0.04 0.05 c 0.09 0.1 0.13 0.3 0.07 0.37 c -0.06 0.07 -0.14 0.08 -0.24 0.03"/><path d="m 3.39 8.91 c -0.13 -0.02 -0.21 -0.11 -0.2 -0.18 c 0.02 -0.06 0.11 -0.07 0.94 -0.13 c 0.44 -0.04 0.57 -0.05 0.89 -0.09 c 0.28 -0.04 0.47 -0.04 0.53 0 c 0.09 0.06 0.11 0.13 0.06 0.18 c -0.71 0.15 -1.04 0.1 -1.82 0.21 c -0.13 0.01 -0.27 0.04 -0.4 0.02"/><path d="m 4.39 9.29 c -0.07 -0.09 -0.11 -0.17 -0.05 -0.25 c 0.09 -0.09 0.28 -0.01 0.33 0.13 c 0.02 0.05 0 0.08 -0.07 0.12 c -0.09 0.05 -0.16 0.05 -0.21 0"/><path d="m 3.7 9.33 c -0.06 -0.02 -0.11 -0.05 -0.13 -0.08 c -0.01 -0.01 -0.02 -0.04 -0.02 -0.07 c 0.03 -0.17 0.06 -0.22 0.19 -0.15 c 0.21 0.11 0.2 0.36 -0.05 0.29"/><path d="m 4.11 12.64 c -0.04 -0.02 -0.12 -0.11 -0.12 -0.15 c 0 -0.04 0.1 -0.12 0.18 -0.16 c 0.1 -0.04 0.1 -0.05 0.1 -0.09 c 0 -0.05 -0.04 -0.13 -0.15 -0.21 c -0.15 -0.13 -0.16 -0.17 -0.04 -0.18 c 0.05 0 0.11 0 0.22 0.04 c 0.2 0.05 0.24 0.04 0.32 -0.03 c 0.03 -0.03 0.05 -0.07 0.05 -0.08 c 0 -0.07 -0.1 -0.11 -0.32 -0.14 c -0.35 -0.04 -0.43 -0.07 -0.41 -0.13 c 0.01 -0.07 0.23 -0.1 0.71 -0.1 c 0.37 0.01 0.36 0 0.32 0.14 c -0.01 0.05 -0.06 0.19 -0.11 0.3 c -0.05 0.11 -0.09 0.21 -0.09 0.22 c 0 0 0.04 0.04 0.09 0.07 c 0.11 0.07 0.16 0.14 0.16 0.23 c 0 0.06 0 0.07 -0.03 0.1 c -0.04 0.04 -0.06 0.04 -0.23 -0.04 c -0.14 -0.07 -0.21 -0.08 -0.26 -0.04 c -0.02 0.01 -0.09 0.07 -0.16 0.13 c -0.11 0.08 -0.19 0.14 -0.21 0.13 c 0 0 -0.02 0 -0.03 -0.01"/></g></svg>