<svg xmlns="http://www.w3.org/2000/svg" viewBox="0 0 16 16"><path d="m 6.17 0.2 c -14.99 3.12 1.1 24.62 8.73 11.7 c 3.27 -5 -1.01 -13.31 -8.73 -11.7" style="fill:#ff8c00"/><g style="fill:#fff"><path d="m 12.9 10.17 c -0.29 -0.16 -0.67 -0.31 -0.95 -0.47 c 0 -0.06 0.02 -0.12 0.02 -0.18 c 0 -0.22 -0.03 -0.43 -0.08 -0.64 c 0.25 -0.2 0.59 -0.42 0.85 -0.62 c -0.07 -0.19 -0.15 -0.36 -0.25 -0.54 c -0.32 0.06 -0.71 0.18 -1.04 0.25 c -0.16 -0.23 -0.35 -0.41 -0.58 -0.57 c 0.06 -0.32 0.18 -0.71 0.25 -1.03 c -0.17 -0.1 -0.35 -0.18 -0.54 -0.25 c -0.2 0.25 -0.42 0.59 -0.62 0.84 c -0.2 -0.05 -0.42 -0.08 -0.64 -0.08 c -0.06 0 -0.12 0.02 -0.18 0.02 c -0.17 -0.29 -0.32 -0.66 -0.48 -0.95 c -0.18 0.03 -0.37 0.09 -0.54 0.14 c 0.01 0.32 0.06 0.72 0.06 1.05 c -0.26 0.13 -0.5 0.28 -0.71 0.47 c -0.31 -0.11 -0.67 -0.29 -0.97 -0.41 c -0.12 0.14 -0.21 0.3 -0.31 0.45 c 0.21 0.24 0.51 0.51 0.73 0.76 c -0.11 0.25 -0.18 0.52 -0.21 0.8 c -0.32 0.11 -0.72 0.2 -1.04 0.31 c 0 0.2 0.01 0.39 0.04 0.57 c 0.33 0.05 0.74 0.07 1.08 0.13 c 0.08 0.27 0.18 0.54 0.33 0.76 c -0.18 0.28 -0.42 0.59 -0.58 0.86 c 0.13 0.14 0.27 0.29 0.42 0.41 c 0.27 -0.16 0.59 -0.4 0.87 -0.57 c 0.23 0.15 0.5 0.25 0.77 0.33 c 0.05 0.33 0.07 0.74 0.13 1.07 c 0.19 0.04 0.38 0.04 0.58 0.04 c 0.11 -0.31 0.2 -0.71 0.31 -1.03 c 0.29 -0.03 0.56 -0.09 0.81 -0.21 c 0.25 0.21 0.52 0.51 0.77 0.72 c 0.16 -0.09 0.32 -0.19 0.46 -0.31 c -0.12 -0.3 -0.3 -0.66 -0.41 -0.96 c 0.2 -0.2 0.35 -0.44 0.48 -0.7 c 0.33 0 0.73 0.05 1.05 0.06 c 0.06 -0.17 0.11 -0.36 0.15 -0.54 m -2.26 -0.66 c 0 0.73 -0.59 1.32 -1.33 1.32 c -0.73 0 -1.33 -0.59 -1.33 -1.32 c 0 -0.73 0.59 -1.32 1.33 -1.32 c 0.73 0 1.33 0.59 1.33 1.32"/><path d="m 7.93 5.11 c -0.03 -0.15 -0.09 -0.29 -0.15 -0.43 c -0.41 -0.01 -0.96 0.05 -1.1 -0.11 c -0.14 -0.16 -0.02 -0.68 0.02 -1.09 c -0.16 -0.09 -0.32 -0.15 -0.5 -0.2 c -0.26 0.31 -0.55 0.75 -0.77 0.76 c -0.21 0.01 -0.54 -0.41 -0.83 -0.7 c -0.17 0.07 -0.33 0.17 -0.48 0.27 c 0.09 0.4 0.25 0.9 0.13 1.07 c -0.13 0.17 -0.67 0.17 -1.07 0.22 c -0.05 0.16 -0.07 0.34 -0.09 0.52 c 0.37 0.18 0.88 0.37 0.93 0.57 c 0.06 0.21 -0.3 0.63 -0.52 0.99 c 0.1 0.14 0.23 0.27 0.36 0.39 c 0.38 -0.17 0.86 -0.48 1.05 -0.39 c 0.2 0.08 0.31 0.64 0.46 1.03 c 0.05 0 0.1 0.02 0.14 0.02 c 0.13 0 0.25 -0.02 0.38 -0.04 c 0.11 -0.4 0.16 -0.97 0.35 -1.07 c 0.19 -0.1 0.7 0.16 1.1 0.29 c 0.12 -0.13 0.22 -0.28 0.31 -0.43 c -0.25 -0.33 -0.66 -0.71 -0.62 -0.93 c 0.04 -0.21 0.54 -0.43 0.89 -0.66 c 0 -0.03 0.01 -0.05 0 -0.08 m -1.24 0.41 c 0 0.61 -0.5 1.11 -1.12 1.11 c -0.62 0 -1.12 -0.5 -1.12 -1.11 c 0 -0.61 0.5 -1.11 1.12 -1.11 c 0.62 0 1.12 0.5 1.12 1.11"/></g></svg>