<svg xmlns="http://www.w3.org/2000/svg" viewBox="0 0 16 16"><path d="m 0.29 9.8 c 0.98 6.48 9.74 8.21 13.61 3.59 c 3.4 -3.43 2.56 -10 -1.62 -12.27 c -4.79 -3 -11.78 0.71 -12.16 6.72 c -0.04 0.66 0.02 1.32 0.17 1.96" style="fill:#9931cc"/><g style="fill:#fff"><path d="m 2.35 8.1 c 0.19 -0.33 0.33 -0.61 0.63 -1 c 0.36 -0.07 0.63 0.01 1.08 -0.05 c 0.16 0.06 0.28 0.22 0.7 0.95 l 0.08 0.14 c -0.2 0.34 -0.41 0.69 -0.61 1.03 c -0.45 0 -0.93 0.02 -1.3 0.04 c -0.51 -0.91 -0.15 -0.36 -0.57 -1.11"/><path d="m 3.09 6.13 c 0 -0.18 0.37 -0.87 0.69 -1.32 c 0.31 -0.42 0.93 -1.02 1.19 -1.16 c 0.39 0.05 0.32 0.55 0.75 0.34 c 0.29 -0.15 0.32 -0.22 0.2 -0.49 c -0.11 -0.25 -0.12 -0.31 -0.06 -0.37 c 0.13 -0.12 0.95 -0.37 1.53 -0.46 c 0.37 -0.06 1.29 -0.05 1.46 0.02 c 0.09 0.04 0.1 0.05 0.08 0.13 c -0.04 0.19 -0.58 1.1 -0.7 1.18 c -0.04 0.02 -0.21 0.06 -0.39 0.08 c -0.86 0.1 -1.55 0.37 -2.2 0.87 c -0.52 0.26 -0.98 1.14 -1.2 1.29 c -0.23 0.01 -1.36 0.14 -1.36 -0.1"/><path d="m 9.75 5.17 c -0.3 -0.43 -0.3 -0.73 -0.58 -1.13 c 0.21 -0.34 0.39 -0.73 0.63 -1.04 c 0.45 -0.01 0.8 0.01 1.28 0.03 c 0.2 0.33 0.4 0.67 0.6 1 c -0.21 0.35 -0.34 0.72 -0.67 1.16 c -0.21 0.01 -0.79 -0.01 -1.27 -0.01"/><path d="m 12.23 11.5 c -0.11 -0.13 -0.38 -0.55 -0.53 -0.85 c -0.17 -0.33 -0.18 -0.25 0.09 -0.88 c 0.28 -0.64 0.39 -1.27 0.36 -1.87 c -0.04 -0.59 -0.13 -0.95 -0.41 -1.58 c -0.09 -0.21 -0.17 -0.41 -0.17 -0.45 c 0 -0.13 0.44 -0.91 0.64 -1.12 c 0.09 -0.1 0.11 -0.11 0.15 -0.07 c 0.14 0.12 0.5 0.68 0.7 1.07 c 0.23 0.46 0.55 1.68 0.49 1.86 c -0.2 0.18 -0.41 0.07 -0.6 0.22 c -0.04 0.06 -0.04 0.52 -0.01 0.57 c 0.2 0.15 0.37 0.09 0.59 0.18 c 0.06 0.07 -0.09 0.8 -0.29 1.38 c -0.16 0.47 -0.55 1.19 -0.82 1.5 c -0.11 0.12 -0.12 0.12 -0.2 0.03"/><path d="m 9.74 13.16 c -0.09 -0.12 -0.52 -0.87 -0.55 -0.96 c 0.17 -0.42 0.36 -0.7 0.61 -1.13 c 0.41 0.02 0.82 0 1.23 0.04 c 0.05 0.01 0.23 0.29 0.59 0.93 c 0.05 0.14 -0.46 0.87 -0.66 1.18 c -0.97 -0.04 -1.23 0 -1.21 -0.07"/><path d="m 7.82 13.6 c -0.79 -0.07 -1.63 -0.28 -1.9 -0.47 c -0.22 -0.36 0.29 -0.66 -0.18 -0.89 c -0.35 -0.15 -0.52 0.18 -0.62 0.33 c -0.06 0.09 -0.06 0.09 -0.15 0.03 c -0.28 -0.19 -1.11 -1.06 -1.35 -1.43 c -0.2 -0.3 -0.45 -0.78 -0.52 -0.97 c -0.08 -0.21 -0.07 -0.22 0.75 -0.22 h 0.69 c 0.39 0.56 0.85 1.13 1.39 1.51 c 0.53 0.37 1.36 0.64 2 0.68 l 0.33 0.02 c 0.18 0.43 0.65 0.85 0.7 1.3 c -0.04 0.1 -0.62 0.16 -1.15 0.11"/></g></svg>