<svg xmlns="http://www.w3.org/2000/svg" viewBox="0 0 16 16"><path d="m 12.52 1.71 c -7.95 -5.73 -16.67 4.85 -10.28 11.6 c 6 6.36 16 0.46 13.3 -7.45 c -0.57 -1.65 -1.56 -3.1 -3 -4.15" style="fill:#006789"/><path d="m 3.68 8 v -4.18 h 8.63 v 8.35 h -8.63 m 8.29 -4.18 v -3.85 h -7.95 v 7.7 h 7.95 m -7.5 -0.43 c -0.06 -0.05 -0.06 -6.78 0 -6.84 c 0.06 -0.06 7 -0.06 7.1 0 c 0.06 0.05 0.06 6.78 0 6.84 c -0.06 0.05 -1.88 0.05 -1.94 0 c -0.03 -0.03 -0.04 -0.63 -0.04 -2.48 v -2.44 h -0.54 v 2.44 c 0 1.86 -0.01 2.45 -0.04 2.48 c -0.06 0.05 -1.88 0.05 -1.94 0 c -0.03 -0.03 -0.04 -0.63 -0.04 -2.48 v -2.44 h -0.54 v 2.44 c 0 1.86 -0.01 2.45 -0.04 2.48 c -0.06 0.05 -1.88 0.05 -1.94 0" style="fill:#701b90"/><g style="fill:#0ff"><path d="m 3.7 9.92 c 0.1 -0.04 0.2 -0.09 0.29 -0.12 c 0.01 0.77 0 1.36 0 2.2 c 2.66 0 5.31 0 7.96 0 c 0 -0.55 0 -1.09 0 -1.64 c 0.11 0.09 0.22 0.17 0.33 0.26 c 0 0.57 0 1.13 0 1.7 c -2.87 0 -5.74 0 -8.61 0 c 0 -0.8 0.01 -1.6 0.01 -2.4"/><path d="m 4.46 9.44 c 0.32 -0.38 0.58 -0.91 0.98 -1.15 c 0.38 -0.18 0.54 0.33 0.89 0.46 c 0.12 0.04 0.13 0.07 0.09 0.34 c -0.05 0.84 -0.04 1.5 -0.04 2.37 c -0.64 0 -1.28 0 -1.92 0 c 0 -0.7 0 -1.3 0 -2"/><path d="m 7 9.13 c 0.35 -0.05 0.59 -0.31 0.75 -0.48 c 0.32 -0.35 0.97 -0.81 1.13 -0.81 c 0.06 1.27 0.04 2.24 0.04 3.61 c -0.64 0 -1.28 0 -1.93 0 c 0 -0.77 0 -1.54 0 -2.32"/><path d="m 9.59 8.1 l 0.35 0.25 c 0.32 0.23 0.36 0.27 0.47 0.63 c 0.14 0.48 0.16 0.5 0.68 0.84 l 0.42 0.28 c 0 0.46 0 0.93 0 1.39 c -0.64 0 -1.28 0 -1.92 0 c 0 -1.13 0 -2.26 0 -3.39"/></g></svg>