<svg xmlns="http://www.w3.org/2000/svg" viewBox="0 0 16 16"><path d="m 0.2 9.83 c 3.13 14.99 24.62 -1.1 11.71 -8.73 c -5 -3.27 -13.31 1.01 -11.71 8.73" style="fill:#1eabe6"/><path d="m 6.65 12.51 c -1 -0.26 -1.86 -0.83 -2.42 -1.6 c -0.84 -1.18 -1.05 -2.53 -0.58 -3.92 c 0.14 -0.41 0.49 -1.06 0.59 -1.09 c 0.03 -0.01 0.28 0.25 0.56 0.58 c 0.46 0.54 0.51 0.62 0.51 0.81 v 0.21 l 2.36 0.02 l 2.36 0.01 v -0.12 c 0 -0.15 -0.27 -0.58 -0.53 -0.85 c -0.25 -0.25 -0.7 -0.53 -1.09 -0.66 c -0.38 -0.12 -1.05 -0.13 -1.44 -0.01 l -0.28 0.09 l -0.51 -0.59 c -0.28 -0.32 -0.51 -0.63 -0.51 -0.68 c 0 -0.06 0.11 -0.14 0.31 -0.23 c 1.02 -0.45 2.27 -0.46 3.33 -0.03 c 0.75 0.31 1.55 0.99 1.97 1.68 c 0.38 0.61 0.63 1.47 0.63 2.16 c 0 0.37 -0.11 0.59 -0.39 0.8 c -0.15 0.11 -0.2 0.11 -3.19 0.13 c -2.35 0.01 -3.04 0.03 -3.04 0.08 c 0 0.15 0.23 0.54 0.47 0.79 c 0.5 0.53 0.98 0.76 1.75 0.85 c 0.26 0.03 0.5 0.09 0.6 0.15 c 0.5 0.3 0.51 1.06 0.02 1.4 c -0.26 0.18 -0.83 0.19 -1.47 0.02" style="fill:#095da5"/></svg>