<svg xmlns="http://www.w3.org/2000/svg" viewBox="0 0 16 16"><path d="m 2.03 4.2 c -5.66 6.39 2.72 13.16 7.63 11.49 c 4.91 -1.66 8.21 -6.36 5 -10.48 c -3.21 -4.11 -6.36 -8.1 -12 -1.69" style="fill:#ff7f44"/><path d="m 4.55 12.66 c -0.56 0.06 0.05 -2.83 0.05 -3.38 c 0 -0.71 0.19 -2.98 0.29 -3.63 c 0.06 -0.4 1.32 0.92 2.22 0.62 c 0.63 -0.2 1.43 -0.35 2 -0.14 c 0.88 0.32 1.96 -0.64 2.15 -0.43 c 0.56 0.6 0.31 2.41 0.36 3.36 c 0.04 0.68 0.66 2.96 0.35 3.6 c -0.18 0.37 -1.22 -0.8 -1.59 -0.43 c -2.21 1.09 -3.22 -0.56 -5.83 0.43" style="fill:#889ed5"/><path d="m 4.97 15.1 c 0.02 -0.07 0.17 -0.39 0.33 -0.68 c 0.16 -0.28 0.28 -0.61 0.32 -0.86 c 0.04 -0.22 0.1 -0.55 0.14 -0.73 c 0.04 -0.18 0.05 -0.34 0.04 -0.36 c -0.02 -0.02 -0.24 0.07 -0.5 0.19 c -0.56 0.27 -1.02 0.3 -1.2 0.1 c -0.1 -0.11 -0.11 -0.21 -0.08 -0.92 c 0.04 -0.88 0.2 -1.95 0.34 -2.21 c 0.05 -0.09 0.09 -0.22 0.09 -0.28 c 0 -0.06 0.04 -0.2 0.09 -0.29 c 0.16 -0.32 0.13 -0.41 -0.16 -0.41 c -0.21 0 -0.29 0.04 -0.51 0.27 c -0.32 0.33 -0.62 0.84 -0.62 1.06 c 0 0.52 -0.21 0.48 -0.48 -0.11 c -0.26 -0.56 -0.25 -0.68 0.08 -1.22 c 0.13 -0.21 0.21 -0.41 0.19 -0.47 c -0.06 -0.17 -0.42 0.09 -0.61 0.45 c -0.25 0.45 -0.3 0.51 -0.41 0.37 c -0.09 -0.58 -0.25 -1.07 0.14 -1.45 c 0.27 -0.25 1.32 -0.77 1.66 -0.81 c 0.14 -0.02 0.36 0.02 0.55 0.08 c 0.18 0.06 0.33 0.1 0.35 0.08 c 0.02 -0.02 0.01 -0.25 -0.03 -0.52 c -0.07 -0.51 -0.02 -0.73 0.19 -0.87 c 0.14 -0.09 0.56 0.05 0.88 0.3 c 0.14 0.11 0.29 0.22 0.33 0.25 c 0.32 0 0.39 -0.27 0.59 -0.03 c 0.14 0.18 0.17 0.19 0.25 0.1 c 0.11 -0.13 -0.01 -0.38 -0.37 -0.79 c -0.48 -0.55 -0.73 -1.87 -0.44 -2.34 c 0.16 -0.26 0.61 -0.45 0.86 -0.36 c 0.25 0.09 0.32 0.41 0.35 1.59 c 0.02 0.99 0.14 1.72 0.28 1.81 c 0.13 0.08 1.08 0.02 1.16 -0.07 c 0.1 -0.11 0.23 -0.81 0.22 -1.15 c -0.02 -0.43 0.07 -1.8 0.13 -1.95 c 0.09 -0.24 0.32 -0.3 0.65 -0.17 c 0.4 0.15 0.53 0.38 0.53 0.95 c 0 0.75 -0.36 1.63 -0.84 2.08 c -0.09 0.08 -0.16 0.18 -0.16 0.23 c 0 0.27 0.21 0.39 0.28 0.16 c 0.08 -0.24 0.21 -0.29 0.41 -0.14 l 0.18 0.13 l 0.27 -0.2 c 0.41 -0.31 0.77 -0.46 0.97 -0.39 c 0.22 0.08 0.26 0.27 0.2 0.87 c -0.03 0.27 -0.04 0.51 -0.02 0.53 c 0.02 0.02 0.16 -0.02 0.33 -0.07 c 0.54 -0.19 0.86 -0.11 1.91 0.48 c 0.56 0.31 0.64 0.48 0.56 1.2 c -0.05 0.43 -0.07 0.5 -0.17 0.5 c -0.08 0 -0.19 -0.12 -0.33 -0.36 c -0.22 -0.37 -0.4 -0.52 -0.56 -0.46 c -0.08 0.03 -0.07 0.07 0.04 0.27 c 0.31 0.52 0.44 0.76 0.44 0.84 c 0 0.15 -0.51 1.05 -0.59 1.05 c -0.1 0 -0.16 -0.14 -0.16 -0.38 c 0 -0.27 -0.2 -0.62 -0.56 -0.98 c -0.26 -0.27 -0.35 -0.32 -0.53 -0.32 c -0.12 0 -0.23 0.02 -0.25 0.05 c -0.02 0.03 0.04 0.25 0.13 0.48 c 0.39 1.06 0.61 3.18 0.37 3.56 c -0.09 0.14 -0.15 0.16 -0.44 0.16 c -0.54 0.02 -0.78 -0.35 -1.27 -0.41 c -0.01 0.23 0.11 0.43 0.11 0.67 c 0 0.3 0.13 0.71 0.4 1.23 c 0.13 0.25 0.32 0.54 0.32 0.57 c 0 0.12 -0.21 0.27 -0.35 -0.14 c -0.04 -0.08 -0.14 -0.21 -0.21 -0.3 c -0.29 -0.46 -0.43 -1.11 -0.5 -1.52 c -0.03 -0.17 -0.14 -0.34 -0.38 -0.61 c -0.31 -0.34 -0.33 -0.38 -0.3 -0.61 c 0.05 -0.22 0.12 -0.45 0.1 -0.66 c -0.04 -0.25 -0.02 -0.27 0.18 -0.17 c 0.14 0.07 0.16 0.35 0.02 0.52 c -0.2 0.27 -0.03 0.66 0.29 0.66 c 0.1 0 0.2 -0.03 0.22 -0.06 c 0.06 -0.09 0.25 -0.07 0.35 0.04 c 0.13 0.16 0.79 0.46 1 0.46 c 0.29 0 0.34 -0.2 0.25 -1.03 c -0.04 -0.38 -0.1 -0.87 -0.14 -1.09 c -0.1 -0.57 -0.54 -1.97 -0.65 -2.06 c -0.14 -0.11 -0.12 -0.15 0.11 -0.24 c 0.17 -0.06 0.29 -0.05 0.67 0.04 c 0.43 0.11 0.48 0.14 0.76 0.47 c 0.09 0.09 0.42 0.7 0.59 0.57 c 0.04 -0.04 -0.32 -0.79 -0.46 -0.95 c -0.06 -0.07 -0.28 -0.23 -0.48 -0.37 c -0.23 -0.19 -0.5 -0.14 -0.22 -0.36 c 0.09 -0.07 0.21 -0.11 0.31 -0.09 c 0.36 0.07 0.92 0.23 1.14 0.32 c 0.2 0.09 0.23 0.09 0.23 0.01 c 0 -0.1 -0.43 -0.35 -0.94 -0.55 c -0.56 -0.41 -1.49 0.38 -1.72 0.27 c -0.15 -0.07 -0.23 -0.32 -0.1 -0.32 c 0.08 0 0.17 -0.37 0.22 -0.89 c 0.04 -0.36 0.03 -0.43 -0.06 -0.46 c -0.16 -0.06 -0.47 0.1 -0.79 0.43 c -0.16 0.16 -0.32 0.3 -0.34 0.3 c -0.25 -0.15 -0.37 -0.14 -0.56 -0.05 c -0.27 0.16 -0.39 0.18 -0.59 -0.01 c -0.19 -0.19 -0.2 -0.19 -0.84 -0.19 c -0.61 0 -0.66 0.01 -0.84 0.16 l -0.2 0.16 l -0.36 -0.13 c -0.36 -0.15 -0.34 -0.06 -0.6 0.05 c -0.03 0 -0.18 -0.14 -0.35 -0.3 c -0.47 -0.47 -0.88 -0.58 -0.88 -0.24 c 0 0.27 0.18 1.13 0.25 1.15 c 0.12 0.04 0.06 0.27 -0.1 0.34 c -0.13 0.06 -0.18 0.05 -0.3 -0.05 c -0.23 -0.21 -0.55 -0.33 -0.85 -0.33 c -0.28 0 -0.76 0.14 -0.95 0.28 c -0.05 0.04 -0.2 0.12 -0.32 0.18 c -0.91 0.6 0.54 0.01 0.79 -0.05 c 0.36 -0.09 0.41 -0.09 0.59 0 c 0.11 0.05 0.2 0.13 0.2 0.16 c 0 0.04 -0.12 0.13 -0.26 0.2 c -0.42 0.19 -0.96 0.76 -0.99 1.19 c 0 0.09 0.02 0.17 0.06 0.17 c 0.03 0 0.23 -0.23 0.45 -0.5 c 0.27 -0.35 0.43 -0.5 0.52 -0.5 c 0.07 0 0.29 -0.04 0.46 -0.09 c 0.26 -0.07 0.39 -0.07 0.57 -0.02 c 0.21 0.07 0.29 0.04 0.09 0.18 c -0.35 0.27 -0.86 2.5 -0.82 3.62 l 0.02 0.59 l 0.18 0.02 c 0.24 0.03 0.69 -0.15 0.95 -0.38 c 0.21 -0.18 0.22 -0.19 0.47 -0.11 c 0.29 0.1 0.43 0.04 0.52 -0.22 c 0.11 -0.29 -0.29 -0.62 -0.08 -0.84 c 0.16 -0.16 0.22 -0.07 0.28 0.47 l 0.06 0.55 l -0.3 0.32 c -0.32 0.34 -0.43 0.55 -0.43 0.85 c -0.12 0.48 -0.21 0.97 -0.49 1.35 c -0.13 0.17 -0.33 0.66 -0.37 0.72 c -0.07 0.11 -0.22 0.07 -0.17 -0.16 m 2 -10.3 c 0.13 -0.57 0.04 -1.61 -0.14 -1.79 c -0.07 -0.08 -0.12 -0.07 -0.29 0.01 c -0.32 0.17 -0.37 0.35 -0.16 0.69 c 0.13 0.22 0.18 0.4 0.2 0.77 c 0.02 0.27 0.06 0.52 0.1 0.56 c 0.12 0.16 0.22 0.07 0.29 -0.24 m 2.63 0.2 c 0.04 -0.07 0.07 -0.23 0.07 -0.36 c 0 -0.27 0.13 -0.72 0.28 -1.01 c 0.14 -0.27 0.07 -0.46 -0.2 -0.59 c -0.18 -0.09 -0.24 -0.09 -0.3 -0.03 c -0.16 0.17 -0.21 1.8 -0.06 2.05 c 0.06 0.1 0.15 0.08 0.22 -0.05" style="fill:#4f2c2f"/><path d="m 7.85 12 c -0.8 -0.02 -1.04 -0.05 -1.1 -0.13 c -0.05 -0.29 -0.14 -0.59 -0.14 -0.91 c 0.01 0 0.1 0.02 0.2 0.05 c 0.58 0.09 1.84 0.23 2.41 0.01 c 0.14 -0.06 0.3 -0.12 0.35 -0.13 c 0.22 -0.13 0.05 0.82 -0.06 0.89 c -0.72 0.29 -1.17 0.23 -1.66 0.22" style="fill:#2896d4"/><path d="m 10.18 8.8 c 0 0.36 -0.32 0.65 -0.71 0.65 c -0.39 0 -0.71 -0.29 -0.71 -0.65 c 0 -0.36 0.32 -0.65 0.71 -0.65 c 0.39 0 0.71 0.29 0.71 0.65" style="fill:#fff"/><path d="m 8.94 9.29 c -0.26 -0.14 -0.25 -0.78 0.02 -0.98 c 0.2 -0.15 0.27 -0.04 0.28 0.49 c 0.02 0.52 -0.05 0.63 -0.3 0.49" style="fill:#3445b8"/><path d="m 7.14 8.78 c 0 0.35 -0.32 0.63 -0.71 0.63 c -0.39 0 -0.71 -0.28 -0.71 -0.63 c 0 -0.35 0.32 -0.63 0.71 -0.63 c 0.39 0 0.71 0.28 0.71 0.63" style="fill:#fff"/><path d="m 6.97 9.3 c 0.26 -0.12 0.25 -0.75 -0.02 -0.97 c -0.2 -0.16 -0.27 -0.06 -0.28 0.45 c -0.02 0.52 0.04 0.63 0.3 0.52" style="fill:#3445b8"/><path d="m 2.9 9.16 c -0.03 -0.14 0.23 -0.52 0.48 -0.85 c 0.15 -0.2 0.2 -0.24 0.49 -0.4 c 0.31 -0.18 0.39 -0.25 0.36 -0.32 c -0.04 -0.07 -0.5 -0.14 -0.61 -0.14 c -0.12 0 -0.35 0.25 -0.8 0.41 c -0.21 0.07 -0.51 0.08 -0.52 0.07 c -0.04 -0.04 0.08 -0.34 0.4 -0.52 c 0.37 -0.21 0.81 -0.37 1.12 -0.42 c 0.21 -0.07 0.22 0.09 0.43 0.09 c 0.13 0 0.29 0.15 0.51 0.31 c 0.08 0.06 0.57 -0.09 0.6 -0.09 c 2.38 -0.66 3.36 -0.61 5.84 0.02 c 0.04 -0.01 0.3 0.1 0.39 0.04 c 0.24 -0.18 0.3 -0.53 0.8 -0.36 c 0.42 -0.04 0.61 0.18 0.92 0.23 c 0.55 0.07 0.8 0.46 0.62 0.77 c -0.08 0.13 -0.27 -0.28 -0.4 -0.32 c -0.3 -0.1 -0.82 -0.1 -0.94 -0.1 c -0.16 0.34 0.15 0.34 0.34 0.52 c 0.11 0.12 0.54 0.81 0.41 1.22 c -0.11 0.36 -0.29 -0.06 -0.41 -0.25 c -0.5 -0.73 -0.58 -0.93 -1.36 -0.94 c -2.64 -0.23 -5 -0.29 -7.18 0.1 c -0.79 0.01 -0.67 0.5 -1.21 1.04 c -0.16 -0.04 -0.39 0.21 -0.28 -0.1" style="fill:#d8373e"/><g style="fill:#475b95"><path d="m 7.6 9.43 c 0.02 -0.03 0.2 0.06 0.4 0.21 l 0.07 0.05 c 0.2 0.14 0.34 0.29 0.31 0.32 c -0.02 0.03 -0.2 -0.06 -0.4 -0.2 l -0.07 -0.05 c -0.2 -0.14 -0.34 -0.29 -0.31 -0.32"/><path d="m 8.35 9.39 c -0.02 -0.04 -0.18 0.07 -0.36 0.23 l -0.07 0.06 c -0.18 0.16 -0.3 0.32 -0.28 0.36 c 0.02 0.04 0.18 -0.07 0.36 -0.23 l 0.07 -0.06 c 0.18 -0.16 0.3 -0.32 0.28 -0.36"/></g><g style="fill:#f4f5f5"><path d="m 6.73 4.99 c -0.04 -0.04 -0.06 -0.15 -0.09 -0.4 c 0.13 -0.46 -0.5 -1.03 -0.31 -1.39 c 0.06 -0.11 0.3 -0.27 0.41 -0.27 c 0.17 0 0.26 0.35 0.28 1.04 c 0.02 0.78 -0.11 1.22 -0.29 1.02"/><path d="m 9.43 5 c -0.09 -0.11 -0.13 -0.71 -0.09 -1.28 c 0.05 -0.63 0.1 -0.8 0.24 -0.8 c 0.09 0 0.35 0.16 0.4 0.25 c 0.06 0.46 -0.25 0.91 -0.3 1.38 c -0.04 0.38 -0.14 0.57 -0.25 0.45"/></g><path d="m 5.18 15.25 c 0 -0.06 0.28 -0.63 0.45 -0.91 c 0.3 -0.73 0.44 -1.58 0.88 -2.1 c -0.15 -0.66 1.42 0.16 3 -0.44 l 0.04 0.12 c 0.02 0.07 0.17 0.28 0.34 0.48 c 0.24 0.29 0.31 0.43 0.36 0.68 c 0.11 0.55 0.29 1.07 0.48 1.36 c 0.1 0.16 0.23 0.36 0.27 0.45 l 0.09 0.16 c -1.59 0.95 -3.94 1.19 -5.93 0.21" style="fill:#2853d7"/><path d="m 8.42 7.66 c -0.09 -0.08 -0.18 -0.09 -0.29 -0.03 c -0.21 0.1 -0.43 -0.06 -0.6 0.03 c -0.09 0.05 -0.1 0.05 -0.2 0.01 c -0.14 -0.05 -0.23 -0.2 -0.2 -0.32 c 0.02 -0.07 0.06 -0.1 0.28 -0.2 c 0.42 -0.2 0.67 -0.22 0.85 -0.09 c 0.17 0.11 0.47 0.17 0.48 0.36 c 0 0.13 -0.12 0.31 -0.2 0.31 c -0.03 0 -0.09 -0.03 -0.13 -0.07" style="fill:#fff"/><path d="m 8.49 10.52 c -0.1 0.07 -0.25 -0.18 -0.36 -0.22 c -0.23 -0.09 -0.34 0.28 -0.52 0.21 c -0.18 0.06 -0.34 -0.25 -0.45 -0.22 c -0.14 0.04 -0.01 0.2 0.02 0.29 c 0.02 0.05 0.14 0.34 0.38 0.26 c 0.65 -0.22 0.61 -0.14 0.82 -0.02 c 0.54 -0.01 0.79 -0.75 0.46 -0.48 c -0.11 0.09 -0.3 0.16 -0.35 0.19" style="fill:#475b95"/></svg>