<svg xmlns="http://www.w3.org/2000/svg" viewBox="0 0 16 16"><path d="m 15.91 11.37 c 1.59 -22.76 -29.1 -5.7 -8.89 3.97 c 3.11 1.33 7.76 0.36 8.89 -3.97" style="fill:#69552f"/><g style="fill:#fff"><path d="m 4.71 11.16 l 0.05 -3.47 c 0.04 -3.23 0.05 -3.48 0.14 -3.56 c 0.09 -0.09 0.3 -0.09 3.43 -0.11 l 3.35 -0.02 c 0.08 0.07 0.16 0.15 0.24 0.23 v 1.51 c 0 0.83 -0.02 1.6 -0.04 1.71 l -0.04 0.21 l -0.27 -0.16 c -0.34 -0.19 -0.23 -0.4 -0.24 -0.46 c -0.03 -0.11 -0.06 -0.12 -0.66 -0.15 c -0.34 -0.02 -1.67 -0.03 -2.95 -0.03 h -2.32 c 0 0.55 0 1.1 0 1.66 c 1.27 0.07 1.83 -0.14 1.83 0.29 c 0 0.46 -0.1 0.3 -1 0.32 l -0.82 0.02 c -0.08 0.64 -0.01 0.94 -0.06 1.64 c 0.81 0.01 1.55 -0.05 2.34 0.02 c 0.13 0.23 0.28 0.34 0.66 0.61 c -0.91 0 -2.47 0 -3.38 0 c -0.08 -0.09 -0.15 -0.16 -0.24 -0.25 m 6.59 -4.93 c 0 -0.54 0 -1.07 0 -1.61 h -2.24 c -1.22 0 -2.44 0.05 -3.66 0 c 0 0.58 0 1.02 0 1.6 c 2.06 -0.04 3.84 0.01 5.9 0.01"/><path d="m 12 11.96 l -1.04 -1.04 l -0.36 0.15 c -0.59 0.21 -1.24 0.22 -1.73 -0.01 c -0.39 -0.18 -0.74 -0.52 -0.96 -0.92 c -0.2 -0.55 -0.28 -1.18 -0.02 -1.71 c 0.32 -0.64 1 -1.1 1.67 -1.16 c 0.59 -0.05 1.25 0.23 1.67 0.7 c 0.54 0.66 0.55 1.61 0.3 2.13 c -0.07 0.14 -0.13 0.29 -0.13 0.32 c 0 0.04 0.45 0.52 1.01 1.07 c 1.11 1.11 1.25 1.29 1.16 1.45 c -0.05 0.09 -0.21 0.21 -0.27 0.21 c -0.51 -0.35 -0.95 -0.84 -1.32 -1.2 m -1.67 -1.44 c 0.47 -0.2 0.78 -0.67 0.82 -1.22 c 0.02 -0.29 0 -0.37 -0.14 -0.66 c -0.29 -0.58 -0.74 -0.83 -1.41 -0.79 c -0.42 0.03 -0.75 0.21 -1 0.55 c -0.21 0.28 -0.29 0.57 -0.26 0.97 c 0.08 1 1.06 1.57 2 1.16"/><path d="m 6.54 9.99 c 0 0.18 -0.15 0.33 -0.34 0.33 c -0.19 0 -0.34 -0.15 -0.34 -0.33 c 0 -0.18 0.15 -0.33 0.34 -0.33 c 0.19 0 0.34 0.15 0.34 0.33"/><path d="m 6.65 7.71 c 0 0.18 -0.15 0.32 -0.34 0.32 c -0.19 0 -0.34 -0.14 -0.34 -0.32 c 0 -0.18 0.15 -0.33 0.34 -0.33 c 0.19 0 0.34 0.15 0.34 0.33"/><path d="m 6.64 5.45 c 0 0.18 -0.15 0.32 -0.34 0.32 c -0.19 0 -0.34 -0.14 -0.34 -0.32 c 0 -0.18 0.15 -0.33 0.34 -0.33 c 0.19 0 0.34 0.14 0.34 0.33"/></g></svg>