<svg xmlns="http://www.w3.org/2000/svg" viewBox="0 0 16 16"><path d="m 0.06 8.11 c -1.21 10.63 16.1 10.48 15.92 -0.19 c 0.57 -9.92 -16.87 -10.82 -15.92 0.19" style="fill:#cf76be"/><path d="m 3.36 9.73 v 0.59 c 0 0.49 0.45 0.89 1.01 0.89 h 0.34 v 0.29 l 0.34 0.89 h 0.68 l 0.34 -0.89 v -0.29 h 1.02 v 0.29 l 0.34 0.89 h 0.68 l 0.34 -0.89 v -0.29 h 1.02 v 0.29 l 0.34 0.89 h 0.68 l 0.34 -0.89 v -0.29 h 0.34 c 0.56 0 1.01 -0.4 1.01 -0.89 v -0.59" style="fill-opacity:0.1"/><path d="m 5 4.38 l -0.34 0.89 v 5.94 l 0.34 0.89 h 0.68 l 0.34 -0.89 v -5.94 l -0.34 -0.89 m 1.69 0 l -0.34 0.89 v 5.94 l 0.34 0.89 h 0.68 l 0.34 -0.89 v -5.94 l -0.34 -0.89 m 1.69 0 l -0.34 0.89 v 5.94 l 0.34 0.89 h 0.68 l 0.34 -0.89 v -5.94 l -0.34 -0.89" style="fill:#e5e5e5"/><path d="m 3.54 5.57 h 8.41 c 0.11 0 0.19 0.08 0.19 0.19 v 4.97 c 0 0.1 -0.08 0.19 -0.19 0.19 h -8.41 c -0.11 0 -0.19 -0.09 -0.19 -0.19 v -4.97 c 0 -0.11 0.08 -0.19 0.19 -0.19" style="fill:#616161"/><g style="fill-opacity:0.1"><path d="m 4.71 10.91 v 0.3 h 1.35 v -0.3 m 1.02 0 v 0.3 h 1.35 v -0.3 m 1.02 0 v 0.3 h 1.35 v -0.3"/><path d="m 3.36 10.14 c 0.07 0.44 0.48 0.77 1 0.77 h 6.76 c 0.52 0 0.93 -0.34 1 -0.77 c -0.06 0.27 -0.33 0.48 -0.66 0.48 h -7.44 c -0.33 0 -0.6 -0.2 -0.66 -0.48"/></g><path d="m 5 6.76 l -0.34 0.3 v 2.38 l 0.34 0.3 h 1.36 l 0.34 -0.3 l -0.34 -0.3 h -1.02 v -0.59 h 0.68 l 0.34 -0.3 l -0.34 -0.3 h -0.68 v -0.59 h 1.02 l 0.34 -0.3 l -0.34 -0.3 m 1.01 0 l -0.34 0.3 v 2.38 l 0.34 0.3 l 0.34 -0.3 v -0.89 h 0.68 l 0.34 -0.3 l -0.34 -0.3 h -0.68 v -0.59 h 1.02 l 0.34 -0.3 l -0.34 -0.3 m 1.01 0 l -0.34 0.3 l 0.34 0.3 v 1.78 l -0.34 0.3 l 0.34 0.3 h 0.68 l 0.34 -0.3 l -0.34 -0.3 v -1.78 l 0.34 -0.3 l -0.34 -0.3" style="fill:#e5e5e5"/></svg>