<svg xmlns="http://www.w3.org/2000/svg" viewBox="0 0 16 16"><path d="m 0.19 9.82 c 0.99 6.46 9.8 8.19 13.69 3.57 c 3.43 -3.42 2.57 -9.98 -1.63 -12.23 c -4.83 -3 -11.86 0.71 -12.24 6.7 c -0.04 0.66 0.02 1.32 0.17 1.96" style="fill:#deb0b4"/><path d="m 3.94 5.11 v 1.38 h 0.34 v 4.12 h -0.34 v 1.38 c 0 0.38 0.3 0.69 0.68 0.69 h 1.35 v -0.34 h 4 v 0.34 h 1.35 c 0.38 0 0.68 -0.3 0.68 -0.69 v -1.38 h -0.34 v -4.12 h 0.34 v -1.38" style="fill-opacity:0.1"/><path d="m 4.27 4.42 h 7.41 v 7.56 h -7.41" style="fill:#ececec"/><path d="m 4.61 4.42 c -0.13 0 -0.24 0.04 -0.34 0.09 v 1.97 h 0.34 v -1.38 h 1.35 v -0.69 m 4 0 v 0.69 h 1.35 v 1.38 h 0.34 v -1.97 c -0.1 -0.05 -0.21 -0.09 -0.34 -0.09" style="fill-opacity:0.1"/><path d="m 4.61 4.08 c -0.38 0 -0.68 0.3 -0.68 0.69 v 1.38 h 0.68 v -1.38 h 1.35 v -0.69 m 4 0 v 0.69 h 1.35 v 1.38 h 0.68 v -1.38 c 0 -0.38 -0.3 -0.69 -0.68 -0.69 m -7.41 6.18 v 1.38 c 0 0.38 0.3 0.69 0.68 0.69 h 1.35 v -0.69 h -1.35 v -1.38 m 4 0 v 0.69 h 0.67 v -0.69 m 0.68 0 v 0.69 h 0.68 v -0.69 m 0.67 0 v 1.38 h -1.35 v 0.69 h 1.35 c 0.38 0 0.68 -0.3 0.68 -0.69 v -1.38" style="fill:#ed444c"/><path d="m 5.29 5.45 v 0.69 h 0.68 v 1.72 h -0.68 v 0.69 h 2.7 v -1.38 h -0.67 v 0.69 h -0.68 v -1.72 h 0.68 v -0.69 m 1.35 0 v 0.69 h 0.67 v -0.69 m 0.68 0 v 0.69 h 0.68 v -0.69" style="fill:#3584e4"/><path d="m 8.66 6.83 v 0.34 h 2.02 v -0.34 m -2.02 0.69 v 0.34 h 2.02 v -0.34 m -2.02 0.69 v 0.34 h 2.02 v -0.34 m -5.39 1.03 v 0.34 h 5.39 v -0.34 m -5.39 0.68 v 0.34 h 2.7 v -0.34 m -2.7 0.69 v 0.34 h 2.7 v -0.34" style="fill:#b2b2b2"/></svg>