<svg xmlns="http://www.w3.org/2000/svg" viewBox="0 0 16 16"><path d="m 14.83 3.89 c -12.1 -14.1 -23.71 14.88 -5 11.9 c 4.1 -0.65 8.27 -8.1 5 -11.9" style="fill:#f4f4f4"/><path d="m 10.21 13.92 c -0.01 -0.05 -0.03 -0.35 -0.04 -0.66 c 0.09 -0.64 -0.46 -0.61 -0.6 -0.36 c -0.02 0.16 -0.3 0.59 -0.57 0.71 c -0.31 0.22 -0.36 0.22 -0.65 0.22 c -0.44 0 -0.55 -0.04 -0.57 -0.12 c -0.52 -0.39 -0.64 -0.9 -0.64 -1.27 c 0 -0.41 -0.01 -0.44 -0.09 -0.46 c -0.05 -0.02 -0.11 -0.07 -0.13 -0.13 l -0.04 -0.11 h -2.52 c -0.16 -0.21 -0.3 -0.34 -0.51 -0.5 l -0.02 -3.82 c -0.2 -0.01 -0.23 -0.26 -0.32 -0.3 c -0.13 -0.11 -0.36 -0.27 -0.36 -0.37 v -0.13 l 3.05 -0.02 c 2.67 -0.02 3.05 -0.03 3.05 -0.09 c -0.13 -0.11 -0.25 -0.09 -0.44 -0.11 v -0.23 c 0 -0.24 0 -0.24 0.14 -0.25 c 0.12 -0.01 0.15 0.01 0.18 0.1 c 0.05 0.12 0.18 0.12 0.22 0.22 c 0.09 0.16 0.34 0.14 0.4 0 c 0.05 -0.11 0.18 -0.11 0.22 -0.22 c 0.04 -0.09 0.07 -0.11 0.16 -0.1 c 0.12 0.02 0.12 0.02 0.12 0.25 v 0.23 c -0.14 0.02 -0.32 0.02 -0.4 0.11 c 0.86 0.03 1.2 0.07 2.21 0.07 c 0 -0.73 0 -1.47 0 -2.2 h -1.1 c -0.84 0 -1.11 0.01 -1.12 0.05 c 0.06 0.12 0.21 0.13 0.2 0.26 c -0.01 0.11 -0.02 0.12 -0.28 0.12 h -0.27 v -0.26 c 0 -0.24 0.01 -0.26 0.1 -0.27 c 0.06 -0.01 0.12 -0.06 0.14 -0.12 l 0.04 -0.11 l 2.59 0.02 l 0.02 1.47 l 0.02 1.47 l 0.22 0.01 c 0.37 0.02 0.42 0.04 0.42 0.18 c 0 0.14 -0.05 0.16 -0.42 0.18 l -0.22 0.01 l -0.01 1.91 l -0.01 1.91 c -0.09 0.01 -0.41 0.34 -0.45 0.43 c -0.03 0.09 -0.04 0.09 -1.89 0.09 h -1.86 l -0.04 0.11 c -0.45 0.34 0.17 1.55 0.39 1.09 c 0.25 -0.11 0.17 -0.56 0.35 -0.59 c 0.48 -0.47 0.54 -0.46 1 -0.46 c 0.93 0 1.08 0.39 1.08 1.23 c 0 0.4 -0.01 0.77 -0.03 0.8 c -0.04 0.09 -0.22 0.09 -0.26 0 c -0.01 -0.04 -0.02 -0.38 -0.02 -0.76 c 0 -0.66 -0.05 -0.77 -0.14 -0.79 c -0.38 -0.29 -0.22 -0.22 -0.64 -0.23 c -0.39 -0.02 -0.64 0.25 -0.78 0.54 c -0.01 0.18 -0.25 0.38 -0.37 0.44 c -0.18 0.14 -0.22 0.22 -0.4 0.22 c -0.27 0.04 -0.25 -0.14 -0.42 -0.23 c -0.27 -0.37 -0.31 -0.77 -0.31 -1.07 c 0 -0.56 0 -0.57 0.11 -0.61 c 0.06 -0.02 0.11 -0.08 0.12 -0.14 l 0.01 -0.1 l 1.85 -0.01 l 1.84 -0.01 c 0.04 -0.15 0.17 -0.22 0.29 -0.23 v -3.8 c -2.47 0 -4.95 0 -7.42 0 l -0.01 1.89 c -0.01 1.89 -0.01 1.89 0.08 1.92 c 0.11 0.05 0.13 0.13 0.17 0.23 l 1.27 0.01 l 1.27 0.01 l 0.01 0.1 c 0.01 0.05 0.06 0.11 0.12 0.14 c 0.11 0.04 0.11 0.05 0.12 0.7 c -0.04 0.57 0.14 0.95 0.48 1.25 c 0.13 0.16 0.78 0.2 0.83 -0.01 c 0.36 -0.22 0.57 -0.68 0.72 -0.95 c 0.02 -0.08 0.06 -0.09 0.38 -0.09 c 0.34 0 0.36 0.01 0.4 0.11 c 0.18 0.14 0.25 0.37 0.26 0.74 c 0.02 0.75 0 0.8 -0.17 0.8 c -0.1 0 -0.14 -0.02 -0.15 -0.1 m -7.79 -0.62 c -0.04 -0.26 0.19 -0.18 0.26 -0.34 c 0.05 -0.14 0.26 -0.15 0.29 -0.02 c 0.02 0.05 0.07 0.11 0.13 0.13 c 0.27 0.24 -0.25 0.54 -0.39 0.55 c -0.28 0.02 -0.3 -0.1 -0.29 -0.32 m 0 -1.38 c -0.04 -0.26 0.19 -0.18 0.26 -0.34 c 0.27 -0.27 0.26 0.05 0.42 0.11 c 0.15 0.05 0.14 0.25 0 0.3 c -0.18 0.17 -0.2 0.24 -0.39 0.25 c -0.28 0.02 -0.3 -0.1 -0.29 -0.32 m 0.26 -1.51 c 0.3 -0.18 0.5 -0.19 0.52 0.17 c 0.05 0.28 -0.13 0.24 -0.23 0.42 c -0.5 0.13 -0.54 -0.18 -0.29 -0.59 m 2.14 0.62 c -0.02 -0.57 -0.01 -1 0 -1.61 h 1.19 c 0 0.09 0 0.17 0 0.26 c -0.29 0.02 -0.59 0.03 -0.88 0.04 c 0 0.12 0 0.23 0 0.35 c 0.22 0.01 0.44 0.03 0.66 0.04 c 0 0.09 0 0.17 0 0.26 c -0.22 0.02 -0.44 0.03 -0.66 0.04 c 0 0.12 0 0.23 0 0.35 c 0.29 0.01 0.59 0.03 0.88 0.04 c 0 0.09 0 0.17 0 0.26 c -0.36 -0.05 -0.88 0.13 -1.2 -0.03 m 1.41 0 c -0.02 -0.42 -0.01 -0.74 0 -1.18 h 0.37 c 0.36 0 0.38 0.01 0.4 0.1 c 0.02 0.05 0.05 0.1 0.07 0.1 c 0.02 0 0.05 -0.04 0.07 -0.1 c 0.02 -0.09 0.05 -0.1 0.29 -0.1 c 0.24 0 0.26 0.01 0.28 0.1 c 0.01 0.06 0.06 0.12 0.12 0.14 c 0.11 0.04 0.11 0.04 0.1 0.5 l -0.01 0.46 c -0.09 0 -0.18 0 -0.27 0 l -0.02 -0.43 l -0.02 -0.43 c -0.12 0 -0.23 0 -0.35 0 l -0.02 0.43 l -0.02 0.43 c -0.09 0 -0.18 0 -0.27 0 l -0.02 -0.43 l -0.02 -0.43 c -0.12 0 -0.24 0 -0.36 0 l -0.02 0.43 l -0.02 0.43 c -0.09 0.01 -0.2 0.01 -0.27 -0.03 m 2.1 -0.05 c -0.02 -0.06 -0.08 -0.11 -0.14 -0.12 c -0.1 -0.01 -0.1 -0.03 -0.1 -0.38 c 0 -0.35 0 -0.37 0.11 -0.39 c 0.19 -0.14 0.2 -0.24 0.4 -0.24 c 0.28 -0.07 0.22 0.2 0.4 0.24 c 0.1 0.02 0.11 0.05 0.12 0.34 c 0.01 0.29 0.02 0.32 0.13 0.36 c 0.09 0.03 0.11 0.07 0.1 0.16 c -0.01 0.09 -0.04 0.12 -0.13 0.13 c -0.1 0.01 -0.13 -0.01 -0.17 -0.09 c -0.05 -0.14 -0.12 -0.14 -0.18 0 c -0.04 0.09 -0.07 0.11 -0.27 0.11 c -0.2 0 -0.23 -0.01 -0.27 -0.1 m 0.42 -0.5 v -0.28 c -0.11 0 -0.21 0 -0.31 0 l -0.01 0.23 c -0.02 0.32 0 0.36 0.18 0.34 c 0.21 0.01 0.14 -0.12 0.14 -0.29 m 0.85 0.38 c -0.1 -0.01 -0.1 -0.03 -0.1 -0.38 c 0 -0.35 0 -0.37 0.11 -0.39 c 0.1 -0.13 0.2 -0.24 0.4 -0.24 c 0.22 0 0.24 0.01 0.27 0.11 c 0.07 0.14 0.24 0.14 0.24 0.28 c -0.27 0.16 -0.41 -0.06 -0.52 -0.06 l -0.14 0.02 c 0 0.19 0 0.38 0 0.56 c 0.13 0 0.3 0 0.33 -0.11 c 0.03 -0.12 0.33 -0.1 0.33 0.04 c 0.02 0.21 -0.18 0.14 -0.25 0.29 c -0.04 0.09 -0.07 0.1 -0.26 0.1 c -0.25 0.07 -0.23 -0.2 -0.41 -0.22 m 1.21 0.13 c -0.06 -0.15 0.09 -0.19 0.32 -0.21 c 0.16 -0.02 0.22 -0.04 0.22 -0.09 c 0 -0.05 -0.06 -0.07 -0.21 -0.08 c -0.18 -0.01 -0.22 -0.03 -0.25 -0.11 c -0.11 -0.13 -0.33 -0.32 -0.11 -0.41 c 0.08 -0.16 0.2 -0.24 0.4 -0.24 c 0.2 0 0.27 -0.05 0.27 0.15 c 0 0.15 0 0.15 -0.21 0.17 c -0.45 0.11 0.02 0.18 0.23 0.23 c 0.02 0.05 0.08 0.11 0.13 0.13 c 0.13 0.06 0.12 0.29 0 0.32 c -0.18 0.15 -0.24 0.23 -0.41 0.23 c -0.18 0 -0.34 -0.05 -0.36 -0.09 m -8.13 -1.01 c -0.13 -0.11 -0.02 -0.21 -0.02 -0.33 c -0.07 -0.25 0.2 -0.22 0.23 -0.39 c 0.35 -0.12 0.48 1.13 -0.21 0.72 m 0 -1.03 c -0.17 -0.55 -0.02 -0.79 0.49 -0.7 l 0.02 0.25 c 0.05 0.28 -0.13 0.24 -0.23 0.42 c -0.03 0.1 -0.24 0.13 -0.28 0.03 m 3.74 -0.05 c -0.02 -0.05 -0.08 -0.11 -0.13 -0.13 c -0.09 -0.02 -0.09 -0.05 -0.09 -0.61 c 0 -0.58 0 -0.59 0.11 -0.63 c 0.06 -0.02 0.11 -0.08 0.13 -0.13 c 0.32 -0.17 0.52 -0.08 0.98 -0.07 c 0 0.09 0 0.17 0 0.26 c -0.29 0.02 -0.59 0.03 -0.88 0.04 v 1.04 c 0.27 0 0.53 0 0.8 0 c 0.01 -0.25 -0.04 -0.35 -0.2 -0.37 c -0.19 -0.02 -0.2 -0.03 -0.2 -0.15 v -0.13 c 0.25 0 0.5 0 0.75 0 v 0.37 c 0 0.35 0 0.37 -0.1 0.38 c -0.06 0.01 -0.12 0.06 -0.14 0.12 c -0.16 0.15 -0.95 0.18 -1.02 0 m 1.43 0.05 c -0.01 -0.03 -0.02 -0.31 -0.01 -0.62 l 0.01 -0.56 h 0.37 c 0.36 0 0.38 0 0.39 0.1 c 0.01 0.06 0.06 0.12 0.13 0.14 c 0.14 0.2 0.09 0.5 0.08 0.97 c -0.09 0 -0.18 0 -0.27 0 c -0.01 -0.29 -0.03 -0.57 -0.04 -0.86 c -0.12 0 -0.23 0 -0.35 0 c -0.02 0.29 -0.03 0.57 -0.05 0.86 c -0.1 0.02 -0.2 0.01 -0.27 -0.03 m 1.39 -0.05 c -0.02 -0.05 -0.08 -0.11 -0.13 -0.13 c -0.09 -0.02 -0.09 -0.05 -0.08 -0.51 l 0.01 -0.49 c 0.09 0 0.18 0 0.27 0 l 0.02 0.45 c 0.02 0.43 0.08 0.57 0.14 0.34 c 0.22 0 0.25 -0.25 0.26 -0.47 l 0.02 -0.32 c 0.09 0 0.18 0 0.27 0 v 1.21 l -0.13 0.02 c -0.09 0.01 -0.13 -0.01 -0.16 -0.1 c -0.05 -0.14 -0.12 -0.14 -0.18 0 c -0.06 0.14 -0.25 0.15 -0.31 0 m -6.55 -1.09 c -0.04 -0.16 -0.07 -0.43 0.08 -0.49 c 0.06 -0.02 0.11 -0.08 0.12 -0.14 c 0.23 -0.33 0.28 0.06 0.28 0.27 c 0.04 0.45 -0.09 0.44 -0.48 0.36 m 9.89 -0.93 c -0.01 -0.03 -0.02 -0.7 -0.03 -1.48 l -0.01 -1.43 l -2.94 -0.02 l -0.04 0.1 c -0.02 0.06 -0.08 0.11 -0.13 0.13 c -0.16 0.2 -0.1 0.36 -0.11 0.66 h -0.27 c -0.27 0 -0.27 0 -0.27 -0.13 c 0 -0.1 0.02 -0.13 0.11 -0.15 c 0.11 -0.02 0.11 -0.04 0.13 -0.34 c -0.11 -0.3 0.21 -0.31 0.24 -0.49 c 0.01 -0.1 0.03 -0.1 0.59 -0.12 c 0.34 -0.01 0.57 -0.04 0.57 -0.07 c 0 -0.14 -0.23 -0.05 -0.57 -0.06 l -0.57 -0.02 c 0 -0.09 0 -0.17 0 -0.26 c 0.56 0 1.12 0 1.68 0 c 0.02 0.13 0.03 0.26 0.04 0.39 c 0.43 0 0.86 0 1.28 0 c 0.02 -0.13 0.03 -0.26 0.05 -0.39 c 0.18 0 0.35 0 0.53 0 l 0.01 1.7 c 0.01 1.64 0.02 1.7 0.1 1.75 c 0.11 0.06 0.12 0.23 0.02 0.27 c -0.12 0.05 -0.37 0.03 -0.39 -0.03 m -3.33 -1.21 c -0.14 -0.31 -0.13 -0.3 0.01 -0.55 c 0.08 -0.17 0.54 -0.15 0.56 0 c 0.18 0.36 0.13 0.25 0 0.55 c -0.12 0.15 -0.5 0.16 -0.57 0"/></svg>