<svg xmlns="http://www.w3.org/2000/svg" viewBox="0 0 16 16"><path d="m 12.73 1.58 c -11.8 -7.95 -19.48 17.41 -4.05 14.1 c 6.38 -1.43 10.36 -10.41 4.05 -14.1" style="fill:#4e9595"/><path d="m 9.24 6.96 c -0.79 -0.79 -1.46 -1.48 -1.48 -1.54 c -0.06 -0.16 0.13 -0.41 0.3 -0.41 c 0.28 0.09 0.45 0.26 0.67 0.45 l 0.45 -0.43 c 0.57 -0.54 1.73 -1.64 2.18 -1.64 c 0.76 0 1.31 0.55 1.31 1.3 c 0 0.49 -1.06 1.7 -1.57 2.23 l -0.45 0.46 l 0.16 0.17 c 0.25 0.27 0.31 0.42 0.24 0.61 c -0.05 0.16 -0.14 0.15 -0.27 0.2 c -0.06 0.02 -0.58 -0.45 -1.53 -1.4" style="fill:#536a6a"/><path d="m 3.39 12.44 c -0.17 -0.19 -0.11 -0.38 0.28 -0.88 c 0.17 -0.21 0.24 -0.41 0.27 -0.71 c 0.03 -0.38 0.09 -0.48 0.53 -0.97 c 0.77 -0.86 3.63 -3.66 3.73 -3.66 c 0.05 0 0.43 0.33 0.83 0.72 l 0.73 0.72 l -0.48 0.54 c -0.26 0.3 -1.21 1.24 -2.1 2.09 c -1.64 1.57 -1.77 1.66 -2.36 1.66 c -0.11 0 -0.38 0.14 -0.61 0.32 c -0.46 0.36 -0.62 0.39 -0.83 0.16" style="fill:#f4f4f4"/><path d="m 3.66 12.15 c -0.03 -0.03 0.11 -0.24 0.31 -0.47 c 0.33 -0.38 0.36 -0.46 0.36 -0.84 c 0 -0.39 0.02 -0.45 0.39 -0.83 l 0.39 -0.41 l 0.31 0.38 c 0.17 0.21 0.45 0.48 0.62 0.61 c 0.36 0.26 0.24 0.28 -0.13 0.59 c -0.38 0.32 -0.5 0.38 -0.91 0.43 c -0.37 0.04 -0.54 0.11 -0.79 0.32 c -0.31 0.27 -0.4 0.41 -0.55 0.22" style="fill:#788cde"/><path d="m 5.2 9.58 c 0.42 -0.42 0.83 -0.83 1.25 -1.25 c 0.38 0.38 0.75 0.75 1.13 1.13 c -0.47 0.48 -0.73 0.75 -1.23 1.26 c -0.4 -0.34 -0.77 -0.75 -1.16 -1.14" style="fill:#b2db6b"/><path d="m 6.6 8.25 c 0.52 -0.56 0.77 -0.81 1.25 -1.23 c 0.45 0.36 0.68 0.67 1.13 1.09 c -0.48 0.51 -0.78 0.76 -1.3 1.25 c -0.41 -0.36 -0.68 -0.68 -1.08 -1.11" style="fill:#f47575"/></svg>