<svg xmlns="http://www.w3.org/2000/svg" viewBox="0 0 16 16"><path d="m 14.18 4.13 c 3.64 3.69 0.98 7.11 -1.92 9.91 c -2.36 2.28 -4.54 2.39 -6.86 0.87 c -6 -3.95 -8.29 -9.1 1.09 -14.45 c 3.09 -1.32 5.97 1.47 7.68 3.66" style="fill:#3e3e3e"/><g style="fill:#2fc5e7"><path d="m 7.82 4.5 h 0.47 c 0.12 0 0.22 0.07 0.22 0.16 v 6.92 c 0 0.09 -0.1 0.17 -0.22 0.17 h -0.47 c -0.12 0 -0.22 -0.08 -0.22 -0.17 v -6.92 c 0 -0.09 0.1 -0.16 0.22 -0.16"/><path d="m 9.1 5.81 h 0.47 c 0.13 0 0.22 0.07 0.22 0.17 v 4.16 c 0 0.09 -0.1 0.17 -0.22 0.17 h -0.47 c -0.13 0 -0.23 -0.07 -0.23 -0.17 v -4.16 c 0 -0.09 0.1 -0.17 0.23 -0.17"/></g><path d="m 6.53 5.79 h 0.47 c 0.13 0 0.23 0.07 0.23 0.16 v 4.16 c 0 0.09 -0.1 0.17 -0.23 0.17 h -0.47 c -0.13 0 -0.22 -0.07 -0.22 -0.17 v -4.16 c 0 -0.09 0.1 -0.16 0.22 -0.16" style="fill:#20d7ec"/><g style="fill:#3ce6be"><path d="m 4.11 7 h 0.33 c 0.13 0 0.22 0.07 0.22 0.17 v 2.07 c 0 0.09 -0.1 0.16 -0.22 0.16 h -0.33 c -0.13 0 -0.23 -0.07 -0.23 -0.16 v -2.07 c 0 -0.09 0.1 -0.17 0.23 -0.17"/><path d="m 5.33 7.35 h 0.33 c 0.13 0 0.22 0.07 0.22 0.16 v 1.29 c 0 0.09 -0.1 0.16 -0.22 0.16 h -0.33 c -0.13 0 -0.23 -0.07 -0.23 -0.16 v -1.29 c 0 -0.09 0.1 -0.16 0.23 -0.16"/><path d="m 11.7 7.35 h 0.33 c 0.13 0 0.23 0.07 0.23 0.16 v 1.29 c 0 0.09 -0.1 0.16 -0.23 0.16 h -0.33 c -0.13 0 -0.22 -0.07 -0.22 -0.16 v -1.29 c 0 -0.09 0.1 -0.16 0.22 -0.16"/><path d="m 12.93 7.77 h 0.33 c 0.13 0 0.23 0.07 0.23 0.16 v 0.48 c 0 0.09 -0.1 0.16 -0.23 0.16 h -0.33 c -0.12 0 -0.22 -0.07 -0.22 -0.16 v -0.48 c 0 -0.09 0.1 -0.16 0.22 -0.16"/><path d="m 2.86 7.77 h 0.33 c 0.12 0 0.22 0.07 0.22 0.16 v 0.48 c 0 0.09 -0.1 0.16 -0.22 0.16 h -0.33 c -0.12 0 -0.22 -0.07 -0.22 -0.16 v -0.48 c 0 -0.09 0.1 -0.16 0.22 -0.16"/></g><path d="m 10.39 6.89 h 0.35 c 0.13 0 0.22 0.07 0.22 0.17 v 2.18 c 0 0.09 -0.1 0.16 -0.22 0.16 h -0.35 c -0.13 0 -0.23 -0.07 -0.23 -0.16 v -2.18 c 0 -0.09 0.1 -0.17 0.23 -0.17" style="fill:#2fc5e7"/></svg>