<svg xmlns="http://www.w3.org/2000/svg" viewBox="0 0 16 16"><path d="m 8.15 15.91 c -1.65 -0.13 -3.58 -0.92 -4.92 -2 c -1.64 -1.33 -2.84 -3.37 -3.16 -5.39 c -0.39 -2.66 1.16 -5.52 2.91 -6.87 c 0.88 -0.66 2.04 -1.18 3.12 -1.41 c 2.83 -0.6 5.79 0.54 7.81 3 c 1.21 1.48 1.84 2.96 2 4.73 c 0.18 2.11 -0.65 4.37 -2.17 5.9 c -1.73 1.44 -3.52 2.21 -5.58 2.07" style="fill:#f4f4f4"/><path d="m 6.79 12.75 c -0.92 -0.23 -2 -0.99 -2.65 -1.86 c -0.38 -0.5 -0.74 -1.82 -0.75 -2.72 c 0.16 -1.39 0.46 -2.29 1.32 -3.29 c 0.27 -0.3 1.13 -0.86 1.62 -1.03 c 1.35 -0.48 3 -0.29 4.08 0.46 c 0.91 0.63 1.58 1.51 1.93 2.52 c 0.23 0.69 0.21 2.17 -0.04 2.89 c -0.23 0.66 -0.82 1.51 -1.38 2 c -0.51 0.45 -1.46 0.93 -2.07 1.05 c -0.59 0.11 -1.51 0.09 -2.06 -0.04 m 1.68 -0.5 c 0.19 -0.07 0.2 -3.18 0.01 -3.34 c -0.29 -0.24 -0.04 -0.82 0.34 -0.82 c 0.21 0 0.52 0.26 0.52 0.45 c 0 0.06 -0.05 0.25 -0.12 0.41 c -0.09 0.22 -0.12 0.61 -0.12 1.56 c 0.01 0.7 0.04 1.34 0.06 1.44 c 0.05 0.17 0.05 0.17 0.4 0.02 l 0.35 -0.15 v -3.55 h 2.06 l -0.05 -0.39 c -0.11 -0.81 -0.36 -1.55 -0.68 -1.94 c -0.37 -0.46 -0.7 -0.81 -0.77 -0.81 c -0.04 0 -0.07 0.45 -0.07 1 v 0.99 h -4.28 l 0.02 0.6 c 0.01 0.33 0.01 0.64 0.01 0.7 c -0.02 0.15 -0.32 0.29 -0.5 0.23 c -0.27 -0.09 -0.47 -0.37 -0.2 -0.74 c 0.07 -0.09 0.12 -0.6 0.12 -0.84 v -0.44 h 4.35 c 0 -0.65 0 -1.3 0 -1.96 l -0.55 -0.2 c -0.46 -0.17 -0.68 -0.33 -1.44 -0.33 c -0.91 0 -1.25 0.2 -1.97 0.55 c -0.17 0.08 -0.3 0.2 -0.3 0.25 c 0 0.17 2.36 0.15 2.58 -0.02 c 0.22 -0.17 0.37 -0.15 0.59 0.06 c 0.24 0.22 0.24 0.43 0.01 0.64 c -0.21 0.2 -0.44 0.21 -0.61 0.04 c -0.1 -0.1 -0.41 -0.13 -1.76 -0.13 h -1.63 l -0.13 0.25 c -0.1 0.2 -0.13 0.64 -0.13 2.51 v 2.26 c 0.29 0.44 0.59 0.81 1 1.02 c 0.04 0 0.07 -0.55 0.07 -1.23 v -1.23 l 0.72 -0.04 c 0.39 -0.02 0.73 0.02 0.99 -0.1 c 0.44 -0.21 0.77 0.36 0.46 0.72 c -0.15 0.16 -0.52 0.2 -0.66 0.06 c -0.05 -0.05 -0.3 -0.11 -0.55 -0.14 l -0.46 -0.05 v 2.35 l 0.29 0.12 c 0.51 0.21 1.74 0.35 2.05 0.23 m 2.49 -1.38 c 0.46 -0.59 0.64 -0.91 0.8 -1.45 c 0.18 -0.61 0.2 -0.59 -0.62 -0.59 h -0.74 v 1.28 c 0 0.72 0.04 1.29 0.08 1.29 c 0.04 0 0.26 -0.23 0.48 -0.52 m -6.88 -2.69 c 0 -0.66 0.05 -1.36 0 -1.27 c -0.38 0.68 -0.29 2.38 -0.03 2.57 c 0.01 0.01 0.03 -0.76 0.03 -1.29"/></svg>