<svg xmlns="http://www.w3.org/2000/svg" viewBox="0 0 16 16"><path d="m 1.17 3.89 c 12.1 -14.1 23.71 14.87 5 11.9 c -4.1 -0.65 -8.27 -8.11 -5 -11.9" style="fill:#c9c8c8"/><path d="m 4.61 10.98 h 8.32 v 0.75 h -8.32" style="fill:#536fff"/><path d="m 4.55 12.16 c -0.17 -0.04 -0.23 -0.09 -0.3 -0.22 c -0.08 -0.16 -0.09 -0.36 -0.06 -2.9 c 0.05 -4.89 0.05 -4.71 0.14 -4.8 c 0.11 -0.11 0.39 -0.11 0.48 0.01 c 0.07 0.09 0.1 2.16 0.1 6.58 v 0.69 l 3.96 0.02 c 2.82 0.01 3.98 0.03 4 0.07 c 0.04 0.03 0.07 0.3 0.07 0.41 c 0 0.36 0.24 0.18 -4.22 0.19 c -2.52 0 -4.06 -0.01 -4.2 -0.04 m 4.72 -1.55 c -0.09 -0.08 -0.01 -0.67 -0.01 -0.67 c 0.8 0.08 1.52 -0.04 2.98 0.03 c 0.09 0.09 0.11 0.52 0.03 0.66 c -0.8 -0.05 -1.75 0.05 -3 -0.02 m -2.15 -0.3 c -0.04 -0.25 -0.04 -0.44 -0.05 -0.7 l -0.23 -0.03 c -0.35 -0.05 -0.73 -0.21 -0.84 -0.36 c -0.08 -0.11 -0.09 -0.16 -0.05 -0.31 c 0.05 -0.22 0.09 -0.22 0.64 -0.04 c 0.21 0.07 0.41 0.12 0.45 0.1 c 0.09 -0.03 0.09 -0.98 0 -1.05 c -0.04 -0.03 -0.14 -0.07 -0.24 -0.09 c -0.27 -0.05 -0.55 -0.24 -0.7 -0.46 c -0.19 -0.33 -0.18 -0.77 0.05 -1.05 c 0.16 -0.2 0.48 -0.38 0.76 -0.42 c 0.17 -0.02 0.18 -0.04 0.19 -0.22 c 0.03 -0.38 0.05 -0.43 0.23 -0.41 c 0.16 0.01 0.16 0.02 0.18 0.26 c 0.01 0.13 0.04 0.27 0.07 0.3 c 0.25 0.12 0.52 0.06 0.78 0.16 c 0.18 0.12 0.22 0.4 0.07 0.56 c -0.04 0.01 -0.22 -0.01 -0.41 -0.05 c -0.47 -0.1 -0.5 -0.08 -0.5 0.28 c 0 0.39 0.05 0.47 0.31 0.52 c 0.32 0.05 0.78 0.36 0.91 0.63 c 0.15 0.29 0.16 0.75 0.02 1.02 c -0.16 0.3 -0.57 0.56 -0.98 0.62 l -0.21 0.03 c -0.02 0.22 0.05 0.53 -0.06 0.71 c -0.1 0.04 -0.33 0.09 -0.38 0 m 0.81 -1.54 c 0.14 -0.13 0.16 -0.24 0.05 -0.45 c -0.11 -0.2 -0.34 -0.36 -0.41 -0.28 c -0.05 0.3 -0.01 0.54 0.01 0.86 c 0.13 -0.03 0.26 -0.06 0.36 -0.14 m -0.84 -1.93 c 0.02 -0.31 -0.02 -0.35 -0.19 -0.26 c -0.3 0.16 -0.33 0.23 -0.06 0.45 c 0.18 0.14 0.23 0.11 0.25 -0.19"/></svg>