<svg xmlns="http://www.w3.org/2000/svg" viewBox="0 0 16 16"><path d="m 1.99 3.91 c 13.17 -14.17 21.47 15.1 3.98 11.85 c -4.61 -1.59 -8.21 -7.3 -3.98 -11.85" style="fill:#edd1eb"/><path d="m 9 13.17 c -0.54 -0.13 -1.19 -0.51 -1.32 -0.78 c -0.07 -0.13 -0.08 -0.25 -0.1 -0.88 c -0.02 -0.55 -0.04 -0.73 -0.07 -0.75 c -0.03 -0.01 -0.11 0.04 -0.19 0.11 c -0.61 0.52 -1.09 0.81 -1.4 0.84 c -0.16 0.02 -0.22 0 -0.47 -0.14 c -0.38 -0.31 -1.72 -0.38 -1.72 -0.85 c 0.13 -0.44 0.39 -0.94 0.66 -1.33 c 0.12 -0.17 0.37 -0.47 0.55 -0.66 c 0.18 -0.19 0.67 -0.28 0.67 -0.31 c 0 -0.03 -0.41 -0.22 -0.52 -0.29 c -0.24 -0.18 -0.55 -0.52 -0.64 -0.7 c -0.09 -0.18 -0.18 -0.57 -0.14 -0.66 c 0.05 -0.16 0.13 -0.89 0.13 -1.13 c 0 -0.2 0.02 -0.28 0.08 -0.36 c 0.08 -0.1 0.09 -0.1 0.54 -0.1 c 0.44 0.01 0.9 -0.07 1.31 -0.08 c 0.5 -0.01 0.63 0.05 0.98 0.43 c 0.14 0.15 0.39 0.46 0.41 0.44 c 0.02 -0.01 -0.08 -0.28 -0.08 -0.35 c 0 -0.07 0.04 -0.3 0.08 -0.51 c 0.17 -0.82 0.31 -0.93 1.82 -1.38 c 0.19 -0.05 0.32 -0.19 0.47 -0.29 c 0.05 0 0.46 0.45 0.64 0.71 c 0.37 0.53 0.64 1.23 0.59 1.5 c -0.03 0.16 -0.25 0.63 -0.39 0.88 c -0.16 0.25 -0.12 0.28 0.26 0.22 c 0.38 -0.06 0.61 -0.02 1.08 0.21 c 0.27 0.13 0.39 0.21 0.57 0.41 c 0.26 0.28 0.57 0.83 0.57 0.98 c 0 0.17 -0.16 0.46 -0.54 0.99 c -0.52 0.72 -0.57 0.78 -0.82 0.86 c -0.39 0.13 -0.99 0.14 -1.55 0.02 c -0.14 -0.03 -0.14 0.05 0.03 0.29 c 0.19 0.27 0.36 0.66 0.36 0.82 c 0 0.1 -0.05 0.21 -0.15 0.38 c -0.32 0.46 -0.39 1.09 -0.81 1.46 c -0.12 0.1 -0.18 0.12 -0.32 0.12 c -0.2 0 -0.39 -0.07 -0.57 -0.11" style="fill:#ec8db8"/></svg>