<svg xmlns="http://www.w3.org/2000/svg" viewBox="0 0 16 16"><path d="m 7.46 15.91 c -1.64 -0.13 -3.5 -0.92 -4.75 -2 c -1.52 -1.33 -2.55 -3.37 -2.69 -5.39 c -0.15 -2.66 1.64 -5.52 3.5 -6.87 c 0.93 -0.66 2.14 -1.18 3.25 -1.41 c 2.88 -0.6 5.74 0.54 7.55 3 c 1.09 1.48 1.59 2.96 1.59 4.73 c 0 2.11 -1.03 4.37 -2.69 5.9 c -1.86 1.44 -3.71 2.21 -5.75 2.07" style="fill:#546a2f"/><path d="m 7.64 12.88 c -1.78 -0.31 -3.05 -1.23 -3.74 -2.72 c -1 -2.16 -0.2 -4.73 1.84 -5.92 l 0.49 -0.29 c 0.5 -0.11 1.24 0.26 0.65 0.5 c -0.55 0.18 -1.09 0.52 -1.56 0.99 c -0.4 0.4 -0.52 0.55 -0.73 0.99 c -0.3 0.63 -0.43 1.15 -0.42 1.8 c 0 0.66 0.12 1.16 0.41 1.75 c 0.4 0.81 0.94 1.36 1.74 1.77 c 0.57 0.29 1.09 0.41 1.79 0.41 c 1.8 -0.01 3.32 -1.18 3.78 -2.91 c 0.15 -0.55 0.16 -1.43 0.03 -1.97 c -0.3 -1.25 -1.38 -2.46 -2.5 -2.79 c -0.63 -0.48 0.34 -0.66 0.86 -0.37 c 2.35 1.31 3.17 4.14 1.85 6.39 c -0.31 0.52 -1.01 1.27 -1.51 1.6 c -0.86 0.41 -2.09 0.89 -2.97 0.76" style="fill:#ede7aa"/><path d="m 7.52 12.39 c -0.21 -0.08 -0.67 -0.55 -0.85 -0.88 c -0.2 -0.22 -0.35 -1.08 -0.64 -1.09 c -0.15 0 -0.42 0.13 -0.77 0.38 c -0.3 0.21 -0.46 0.23 -0.57 0.05 c -0.08 -0.11 -0.08 -0.14 0 -0.25 c 0.04 -0.07 0.32 -0.25 0.61 -0.41 c 0.76 -0.4 0.7 -0.31 0.65 -0.96 c -0.02 -0.3 -0.07 -0.58 -0.1 -0.61 c -0.03 -0.03 -0.46 -0.07 -1.04 -0.08 c -1.03 -0.03 -1.08 -0.04 -1.08 -0.26 c 0 -0.25 0 -0.25 1.09 -0.25 h 1.03 c 0.02 -0.39 0.18 -0.86 0.06 -1.23 c -0.21 -0.34 -1.27 -0.63 -1.3 -0.96 c 0 -0.1 0.17 -0.24 0.3 -0.24 c 0.06 0 0.3 0.13 0.53 0.28 c 0.45 0.29 0.59 0.34 0.67 0.19 c 0.17 -0.51 0.1 -1.06 0.35 -1.55 c 0.2 -0.38 0.16 -0.5 -0.17 -0.57 c -0.32 -0.07 -0.46 -0.37 -0.28 -0.6 c 0.08 -0.1 0.16 -0.14 0.28 -0.14 c 0.23 0 0.28 0.05 0.39 0.33 c 0.05 0.14 0.13 0.25 0.18 0.27 c 0.04 0.01 0.2 -0.05 0.36 -0.13 c 0.23 -0.11 0.36 -0.14 0.74 -0.16 c 0.45 -0.02 0.48 -0.01 0.77 0.14 c 0.38 0.2 0.51 0.19 0.57 -0.05 c 0.1 -0.4 0.49 -0.54 0.71 -0.27 c 0.19 0.23 0.05 0.51 -0.3 0.61 c -0.11 0.04 -0.24 0.09 -0.29 0.13 c -0.09 0.07 -0.09 0.08 0.06 0.32 c 0.19 0.29 0.25 0.49 0.32 1.09 c 0.05 0.47 0.12 0.64 0.23 0.64 c 0.22 -0.03 1.32 -0.96 1.38 -0.29 c 0 0.11 -0.33 0.33 -0.83 0.57 l -0.54 0.25 c 0.08 0.4 -0.04 0.89 0.13 1.27 c 0.43 0.12 1.89 -0.04 2.05 0.16 c 0.06 0.08 0.05 0.3 -0.02 0.37 c -0.73 0.05 -1.29 0.05 -2.07 0.07 c -0.01 0.4 -0.16 0.82 -0.11 1.21 c 0.02 0.04 0.3 0.21 0.64 0.39 c 0.65 0.34 0.79 0.48 0.7 0.65 c -0.1 0.18 -0.27 0.18 -0.58 -0.01 c -0.39 -0.24 -0.7 -0.39 -0.81 -0.39 c -0.07 0 -0.19 0.19 -0.44 0.7 c -0.51 1.03 -0.86 1.33 -1.55 1.32 c -0.19 0 -0.39 -0.02 -0.47 -0.05 m 0.18 -2.3 c -0.26 0 -0.87 -0.06 -1 0.16 c -0.12 0.29 0.69 1.7 0.93 1.63 c 0.2 -0.57 0.1 -1.26 0.07 -1.79 m 0.89 1.68 c 0.16 -0.23 0.98 -1.36 0.67 -1.59 c -0.05 -0.04 -0.27 -0.08 -0.48 -0.1 c -0.55 -0.05 -0.54 -0.07 -0.54 0.91 c 0 0.44 0.02 0.82 0.03 0.84 c 0.05 0.08 0.16 0.05 0.32 -0.07 m 0.84 -2.11 c 0.16 -0.1 0.23 -1.04 0.08 -1.09 c -0.11 -0.04 -1 -0.04 -1.15 0 c -0.06 0.24 -0.05 0.85 0.02 0.98 c 0.11 0.04 0.62 0.12 0.9 0.14 c 0.04 0 0.11 -0.01 0.15 -0.04 m -1.75 -0.17 c 0.06 -0.34 0.04 -0.6 0.05 -0.95 h -1.32 l 0.03 0.47 c 0.04 0.66 0.04 0.64 0.45 0.64 c 0.28 -0.04 0.57 0.02 0.79 -0.16 m -0.02 -1.49 c 0.03 -0.03 0.07 -0.22 0.09 -0.44 c 0.05 -0.49 -0.02 -0.57 -0.47 -0.62 c -0.2 0.01 -0.6 -0.16 -0.76 -0.01 c -0.09 0.09 -0.16 0.6 -0.11 0.88 c 0.03 0.18 0.05 0.21 0.17 0.23 c 0.25 0.04 1.04 0.01 1.09 -0.04 m 1.89 -0.02 c 0.09 -0.09 0.06 -0.84 -0.04 -1 c -0.09 -0.14 -0.06 -0.14 -0.87 -0.01 c -0.4 0.06 -0.41 0.08 -0.41 0.55 c 0 0.39 0.04 0.49 0.18 0.52 c 0.21 0.04 1.08 0 1.14 -0.07 m -1.91 -1.51 c 0.07 -0.02 0.08 -0.13 0.08 -0.66 v -0.63 l -0.17 0.03 c -0.26 0.05 -0.57 0.29 -0.75 0.59 c -0.18 0.29 -0.22 0.52 -0.11 0.59 c 0.12 0.07 0.81 0.14 0.95 0.09 m 1.61 -0.07 c 0.17 -0.08 0.17 -0.2 0 -0.54 c -0.15 -0.29 -0.42 -0.54 -0.69 -0.63 c -0.28 -0.09 -0.32 -0.01 -0.32 0.63 c 0 0.3 0.02 0.57 0.04 0.6 c 0.05 0.07 0.78 0.02 0.98 -0.06 m -1.79 -1.59 c 0.36 -0.09 0.66 -0.09 1.06 0 c 0.61 0.14 0.68 0.07 0.38 -0.36 c -0.2 -0.29 -0.41 -0.42 -0.76 -0.46 c -0.52 -0.06 -0.85 0.11 -1.13 0.57 c -0.15 0.25 -0.13 0.4 0.05 0.35 c 0.14 -0.04 0.28 -0.07 0.4 -0.11" style="fill:#ff4500"/></svg>