<svg xmlns="http://www.w3.org/2000/svg" viewBox="0 0 16 16"><path d="m 12.1 1.34 c 14.1 11.94 -14.88 23.43 -11.9 4.95 c 0.65 -4.05 8.1 -8.17 11.9 -4.95" style="fill:#fdb900"/><path d="m 6.5 12.38 c -1.13 -0.5 -1.79 -1.22 -2.36 -2.05 l -0.32 -0.47 l -0.42 -0.03 c -0.32 -0.02 -0.63 -0.09 -0.67 -0.14 c -0.02 -0.36 -0.28 -0.82 0.01 -0.85 c 0.88 0.01 1 0.17 1 -0.28 v -0.55 h -0.43 c -0.63 0 -0.71 -0.08 -0.58 -0.55 l 0.11 -0.38 c 0.38 0 0.75 0 1.13 0 l 0.23 -0.48 c 0.39 -0.81 0.98 -1.4 1.86 -1.85 c 1.03 -0.48 2.27 -0.57 3.2 -0.14 c 0.73 0.34 1.13 0.64 1.54 1.15 l 0.36 0.44 c -0.2 0.12 -0.41 0.49 -0.65 0.51 c -0.04 0 -0.19 -0.14 -0.33 -0.32 c -0.29 -0.39 -0.79 -0.71 -1.54 -0.97 c -1.2 -0.43 -2.71 0.13 -3.48 1.28 l -0.27 0.39 c 0.52 0 1.03 0 1.54 0 v 0.32 c 0 0.5 0.01 0.61 -1 0.61 h -0.71 c 0 0.31 0 0.62 0 0.93 h 1.71 c -0.01 0.21 0.05 0.71 -0.11 0.86 c -0.51 0.02 -0.9 0.05 -1.44 0.11 l 0.51 0.57 c 0.74 0.83 1.3 1.09 2.36 1.09 c 0.71 0 0.89 -0.04 1.38 -0.27 c 0.84 -0.39 1.38 -1.06 1.65 -2 c 0.09 -0.33 0.02 -0.35 -1.27 -0.35 c -0.89 0 -1.08 -0.02 -1.13 -0.14 c -0.08 -0.22 -0.07 -0.67 0.03 -0.73 c 0.2 -0.12 0.98 -0.16 2.12 -0.1 c 1.41 0.08 1.35 0.03 1.23 1.09 c -0.15 1.28 -1.02 2.48 -2.23 3.09 c -0.86 0.38 -2.21 0.59 -3.05 0.23" style="fill:#f4f4f4"/></svg>