<svg xmlns="http://www.w3.org/2000/svg" viewBox="0 0 16 16"><path d="m 14.35 12.24 c 5.75 -8.18 -4.87 -16.47 -11.65 -9.8 c -6.39 6.28 -0.46 16 7.48 12.99 c 1.66 -0.64 3.11 -1.68 4.17 -3.19" style="fill:#4b0081"/><g style="fill:#fff"><path d="m 7.59 3 v 1.55 h -1.61 v -1.31 c -0.08 0.02 -0.15 0.05 -0.23 0.08 v 1.23 h -1.61 v -0.32 c -0.08 0.07 -0.15 0.14 -0.23 0.21 v 0.11 h -0.11 c -0.07 0.07 -0.14 0.14 -0.21 0.22 h 0.33 v 1.55 h -1.27 c -0.03 0.07 -0.05 0.15 -0.08 0.22 h 1.35 v 1.55 h -1.6 c 0 0.07 0 0.15 0.01 0.22 h 1.59 v 1.55 h -1.27 c 0.03 0.08 0.06 0.15 0.09 0.22 h 1.18 v 1.55 h -0.11 c 0.11 0.11 0.22 0.21 0.34 0.32 v -0.1 h 1.6 v 1.01 c 0.08 0.03 0.15 0.05 0.23 0.08 v -1.09 h 1.61 v 1.33 c 0.07 0 0.15 0 0.23 -0.01 v -1.32 h 1.61 v 1.01 c 0.08 -0.03 0.15 -0.06 0.23 -0.09 v -0.92 h 1.49 c 0.12 -0.11 0.23 -0.21 0.34 -0.33 c 0.01 -1.79 -0.04 -5.89 0 -6.88 c -0.11 -0.12 -0.12 -0.11 -0.23 -0.21 v 0.11 h -1.61 v -1.14 c -0.07 -0.03 -0.15 -0.06 -0.23 -0.09 v 1.23 h -1.61 v -1.55 c -0.07 0 -0.15 -0.01 -0.23 -0.01 m -3.44 1.77 h 1.61 v 1.55 h -1.61 m 1.83 -1.55 h 1.61 v 1.55 h -1.61 m 1.83 -1.55 h 1.61 v 1.55 h -1.61 m 1.84 -1.55 h 1.6 v 1.55 h -1.6 m -5.5 0.22 h 1.61 v 1.55 h -1.61 m 1.83 -1.55 h 1.61 v 1.55 h -1.61 m 1.83 -1.55 h 1.61 v 1.55 h -1.61 m 1.84 -1.55 h 1.6 v 1.55 h -1.6 m -5.5 0.22 h 1.61 v 1.55 h -1.61 m 1.83 -1.55 h 1.61 v 1.55 h -1.61 m 1.83 -1.55 h 1.61 v 1.55 h -1.61 m 1.84 -1.55 h 1.6 v 1.55 h -1.6 m -5.5 0.22 h 1.61 v 1.55 h -1.61 m 1.83 -1.55 h 1.61 v 1.55 h -1.61 m 1.83 -1.55 h 1.61 v 1.55 h -1.61 m 1.84 -1.55 h 1.6 v 1.55 h -1.6"/><path d="m 10.56 6.35 l -1.38 1.72 c 0 0.02 0 0.04 0 0.05 c 0 0.12 -0.1 0.22 -0.23 0.22 c -0.13 0 -0.23 -0.1 -0.23 -0.22 c 0 -0.04 0.01 -0.07 0.02 -0.1 l -0.94 -1.45 l -1.14 1.11 c 0 0.13 -0.1 0.22 -0.23 0.22 c -0.13 0 -0.23 -0.1 -0.23 -0.22 l -0.23 -0.22 l -0.69 0.66 c 0 0.12 -0.1 0.22 -0.23 0.22 v 2 h 5.5" style="fill-opacity:0.08"/><path d="m 10.56 5.9 c -0.13 0 -0.23 0.1 -0.23 0.22 c 0 0.04 0.01 0.07 0.03 0.11 l -1.34 1.68 c -0.02 -0.01 -0.04 -0.01 -0.06 -0.01 c -0.01 0 -0.01 0 -0.02 0 l -0.93 -1.44 c 0.02 -0.03 0.03 -0.07 0.03 -0.11 c 0 -0.13 -0.1 -0.22 -0.23 -0.22 c -0.13 0 -0.23 0.1 -0.23 0.22 c 0 0.04 0.01 0.07 0.03 0.1 l -1.07 1.04 c -0.03 -0.02 -0.07 -0.03 -0.11 -0.03 c -0.04 0 -0.08 0.01 -0.11 0.03 l -0.15 -0.14 c 0.02 -0.04 0.03 -0.07 0.03 -0.11 c 0 -0.12 -0.1 -0.22 -0.23 -0.22 c -0.13 0 -0.23 0.1 -0.23 0.22 c 0 0.04 0.01 0.07 0.03 0.11 l -0.61 0.59 c -0.03 -0.02 -0.07 -0.03 -0.11 -0.03 c -0.13 0 -0.23 0.1 -0.23 0.22 c 0 0.12 0.1 0.22 0.23 0.22 c 0.13 0 0.23 -0.1 0.23 -0.22 l 0.69 -0.66 l 0.23 0.22 c 0 0.13 0.1 0.22 0.23 0.22 c 0.13 0 0.23 -0.1 0.23 -0.22 l 1.14 -1.11 l 0.94 1.45 c -0.02 0.03 -0.02 0.06 -0.02 0.1 c 0 0.12 0.1 0.22 0.23 0.22 c 0.13 0 0.23 -0.1 0.23 -0.22 c 0 -0.02 0 -0.04 -0.01 -0.05 l 1.38 -1.72 c 0.13 0 0.23 -0.1 0.23 -0.22 c 0 -0.12 -0.1 -0.22 -0.23 -0.22" style="fill-opacity:0.12"/><path d="m 4.84 8.12 l 0.92 -0.89 l 0.46 0.44 l 1.38 -1.33 l 1.14 1.77 l 1.61 -2 v 3.99 h -5.5" style="fill-opacity:0.54"/><path d="m 10.34 5.68 c -0.13 0 -0.23 0.1 -0.23 0.22 c 0 0.04 0.01 0.08 0.03 0.11 l -1.35 1.68 c -0.02 -0.01 -0.04 -0.01 -0.06 -0.01 c 0 0 -0.01 0 -0.02 0 l -0.93 -1.44 c 0.02 -0.03 0.03 -0.07 0.03 -0.11 c 0 -0.12 -0.1 -0.22 -0.23 -0.22 c -0.13 0 -0.23 0.1 -0.23 0.22 c 0 0.04 0.01 0.07 0.03 0.11 l -1.07 1.03 c -0.03 -0.02 -0.07 -0.03 -0.11 -0.03 c -0.04 0 -0.07 0.01 -0.11 0.03 l -0.15 -0.14 c 0.02 -0.03 0.03 -0.07 0.03 -0.11 c 0 -0.12 -0.1 -0.22 -0.23 -0.22 c -0.13 0 -0.23 0.1 -0.23 0.22 c 0 0.04 0.01 0.07 0.03 0.11 l -0.61 0.59 c -0.03 -0.02 -0.07 -0.02 -0.11 -0.03 c -0.13 0 -0.23 0.1 -0.23 0.22 c 0 0.13 0.11 0.22 0.23 0.22 c 0.13 0 0.23 -0.1 0.23 -0.22 l 0.69 -0.66 l 0.23 0.22 c 0 0.12 0.1 0.22 0.23 0.22 c 0.13 0 0.23 -0.1 0.23 -0.22 l 1.14 -1.11 l 0.94 1.45 c -0.02 0.03 -0.02 0.07 -0.02 0.1 c 0 0.13 0.11 0.22 0.23 0.22 c 0.13 0 0.23 -0.1 0.23 -0.22 c 0 -0.02 0 -0.04 -0.01 -0.05 l 1.38 -1.72 c 0.13 0 0.23 -0.1 0.23 -0.22 c 0 -0.12 -0.1 -0.22 -0.23 -0.22"/><path d="m 12.38 4.92 h 0.82 v 5.75 h -0.82"/><path d="m 12.83 12.27 l -0.24 -0.65 l -0.25 -0.64 l 0.46 -0.02 l 0.46 -0.04 l -0.22 0.67"/></g></svg>