<svg xmlns="http://www.w3.org/2000/svg" viewBox="0 0 16 16"><path d="m 13.97 13.59 c 9.15 -14.1 -15.84 -19.54 -13.85 -5 c 0.81 5.91 10.35 10.44 13.85 5" style="fill:#edc8d7"/><g style="fill:#d5004c;fill-opacity:0.97"><path d="m 7.84 14.44 c -1.49 -0.19 -3.15 -1.67 -3.84 -3.42 c -0.29 -0.74 -0.35 -1.14 -0.36 -2.46 c -0.2 -0.81 -0.54 -0.73 0.19 -1.7 c 0.18 -0.23 0.29 -0.62 0.39 -0.78 c 0.32 -0.48 0.33 -0.48 -0.21 -1.07 c -0.36 -0.39 -0.53 -0.64 -0.71 -1.02 c -0.2 -0.41 -0.3 -0.75 -0.23 -0.75 c 0.01 0 0.26 0.24 0.56 0.53 c 0.5 0.48 0.59 0.55 1 0.71 c 0.25 0.1 0.49 0.18 0.54 0.18 c 0.04 0 0.3 -0.14 0.57 -0.3 c 0.27 -0.17 0.65 -0.64 0.88 -0.75 c 0.41 -0.2 0.45 0.05 1.07 0.06 c 0.86 0.02 1.37 0.09 1.81 0.26 c 0.51 0.13 0.99 -0.14 1.43 0.58 c 0.18 0.12 0.37 0.21 0.43 0.21 c 0.2 0 0.81 -0.24 1.09 -0.43 c 0.15 -0.1 0.45 -0.33 0.67 -0.51 c 0.22 -0.18 0.41 -0.31 0.43 -0.29 c 0.05 0.05 -0.31 0.71 -0.57 1.04 c -0.3 0.41 -0.74 0.63 -1.05 1.01 c 0 0.03 0.04 0.14 0.08 0.25 c 0.11 0.33 0.39 0.62 0.23 1.31 c 0.02 0.07 -0.21 -0.17 -0.21 -0.52 c 0 -0.21 -0.21 -0.34 -0.25 -0.34 c -0.09 0 -0.09 0.03 0.02 0.2 c 0.06 0.09 0.11 0.33 0.14 0.66 c 0.07 0.77 0.06 0.88 -0.06 1.16 c -0.15 0.35 -0.24 0.74 -0.48 1.04 c -0.31 0.45 -0.77 0.82 -1.24 1.05 c -0.24 0.12 -0.55 0.21 -0.84 0.26 c -0.9 0.09 -1.19 0.09 -1.98 -0.4 c -0.27 -0.16 -0.74 -0.64 -0.74 -0.71 c 0 -0.07 0.31 0.1 0.34 0.16 c 0.01 0.02 0.12 0.11 0.25 0.19 c 0.29 0.19 0.33 0.07 0.04 -0.15 c -0.16 -0.13 -0.2 -0.2 -0.3 -0.64 c -0.14 -0.61 -0.12 -0.91 0.11 -1.4 c 0.36 -0.75 0.78 -1.09 1.44 -1.13 c 0.36 -0.02 0.44 -0.01 0.7 0.12 c 0.16 0.08 0.34 0.2 0.39 0.26 c 0.11 0.12 0.11 0.12 -0.03 0.08 c -0.07 -0.02 -0.28 -0.07 -0.46 -0.12 c -0.55 -0.13 -1.08 0.04 -1.45 0.45 c -0.29 0.32 -0.39 0.64 -0.36 1.13 c 0.07 1.14 1.09 1.96 2.14 1.73 c 0.5 -0.11 1.44 -0.73 1.44 -0.96 c 0 -0.04 0.07 -0.16 0.15 -0.28 c 0.15 -0.21 0.15 -0.22 0.15 -1.14 c 0 -0.84 -0.01 -0.96 -0.13 -1.25 c -0.29 -0.74 -0.85 -1.37 -1.45 -1.64 c -0.77 -0.34 -2.04 -0.32 -2.57 0.04 c -0.12 0.08 -0.25 0.53 -0.4 0.57 c -0.72 -0.13 -0.16 -0.26 -0.8 0.14 c -0.51 0.31 -0.96 0.81 -1.16 1.29 c -0.23 0.55 -0.31 0.86 -0.36 1.44 c -0.05 0.56 -0.01 1.08 0.12 1.66 c 0.08 0.36 0.31 0.25 0.52 0.44 c 0.25 0.24 0.19 0.63 0.14 0.71 c -0.05 0.09 0.24 0.79 0.48 1.15 c 0.41 0.54 0.94 1.15 1.51 1.43 c 0.49 0.36 0.8 0.4 1.3 0.58 c 0.17 0.07 0.03 0.12 -0.08 0.14 c -0.03 0 -0.22 -0.03 -0.42 -0.05"/><path d="m 8.6 9.38 c -0.14 -0.05 -0.16 -0.16 -0.04 -0.2 c 0.13 -0.04 0.66 -0.04 0.69 0.01 c 0.02 0.02 -0.01 0.08 -0.05 0.14 c -0.09 0.11 -0.37 0.13 -0.6 0.05"/><path d="m 9.49 9 c -0.11 -0.17 0.25 -0.57 0.4 -0.42 c 0.06 0.06 -0.01 0.36 -0.1 0.45 c -0.08 0.08 -0.23 0.07 -0.3 -0.03"/><path d="m 9.9 8.2 c -0.04 -0.17 0.04 -0.49 0.14 -0.49 c 0.09 0 0.13 0.41 0.07 0.54 c -0.05 0.13 -0.18 0.11 -0.22 -0.05"/></g></svg>