<svg xmlns="http://www.w3.org/2000/svg" viewBox="0 0 16 16"><path d="m 2.8 13.68 c -12.61 -16.65 22.1 -19 10.96 -2 c -2.54 3.88 -7.62 6.43 -10.96 2" style="fill:#ebebeb"/><path d="m 7.1 12.45 c -0.07 -0.11 -0.1 -0.31 -0.1 -0.86 c 0 -0.88 -0.03 -1 -0.22 -1 c -0.31 0 -0.84 -0.26 -1.16 -0.57 c -0.52 -0.51 -0.58 -0.71 -0.62 -2.06 c -0.02 -0.64 -0.05 -1.19 -0.08 -1.23 c -0.03 -0.04 -0.14 -0.11 -0.26 -0.14 c -0.13 -0.04 -0.24 -0.13 -0.29 -0.23 c -0.06 -0.14 -0.06 -0.19 0.05 -0.32 c 0.11 -0.15 0.15 -0.16 0.75 -0.18 c 0.93 -0.03 0.89 -0.12 0.89 1.69 c 0 1.28 0.02 1.48 0.12 1.71 c 0.13 0.28 0.41 0.52 0.64 0.54 l 0.15 0.02 l 0.03 -2.9 c 0.04 -3.34 -0.03 -3.07 0.69 -3.07 c 0.32 0 0.45 0.03 0.57 0.12 l 0.15 0.12 l 0.03 2.86 c 0.03 2.82 0.03 2.87 0.16 2.84 c 0.18 -0.03 0.48 -0.23 0.59 -0.4 c 0.07 -0.11 0.1 -0.46 0.13 -1.71 c 0.04 -1.94 -0.01 -1.83 0.87 -1.83 c 0.69 0 0.88 0.08 0.88 0.37 c 0 0.18 -0.17 0.38 -0.32 0.38 c -0.05 0 -0.14 0.05 -0.2 0.11 c -0.09 0.09 -0.1 0.26 -0.1 0.99 c 0 1.35 -0.1 1.73 -0.58 2.25 c -0.29 0.32 -0.63 0.51 -1.07 0.61 l -0.31 0.07 l -0.03 0.88 c -0.02 0.61 -0.06 0.91 -0.12 0.98 c -0.07 0.08 -0.2 0.11 -0.61 0.11 c -0.47 0 -0.53 -0.02 -0.62 -0.14" style="fill:#4c4c4c"/></svg>