<svg xmlns="http://www.w3.org/2000/svg" viewBox="0 0 16 16"><path d="m 15.25 5 c 5.99 19.37 -26.2 9.68 -11.13 -3.59 c 3 -2.66 9.52 -1.64 11.13 3.59" style="fill:#30b4d4;fill-opacity:0.73"/><path d="m 7.64 13.3 c -0.05 -0.04 -0.05 -0.04 0.01 -0.08 c 0.04 -0.02 0.09 -0.04 0.11 -0.04 c 0.07 0 0.17 -0.13 0.2 -0.25 c 0.01 -0.06 0 -0.41 -0.02 -0.78 c -0.04 -0.74 -0.05 -0.79 -0.23 -0.79 c -0.15 0 -0.16 -0.05 -0.02 -0.1 c 0.06 -0.02 0.19 -0.09 0.28 -0.14 c 0.3 -0.2 0.29 -0.25 0.29 0.86 c 0.01 1.07 0.02 1.1 0.22 1.17 c 0.14 0.05 0.09 0.1 -0.1 0.13 c -0.4 0.05 -0.68 0.05 -0.73 0.02 m -2.21 -0.02 c -0.01 -0.02 0.02 -0.07 0.07 -0.13 l 0.09 -0.1 v -0.47 c 0 -0.43 0 -0.48 -0.07 -0.55 c -0.08 -0.11 -0.2 -0.11 -0.37 -0.02 c -0.16 0.09 -0.2 0.2 -0.18 0.69 c 0.01 0.35 0.02 0.39 0.08 0.46 c 0.04 0.04 0.06 0.09 0.05 0.1 c -0.03 0.03 -0.52 0.02 -0.57 -0.01 c -0.03 -0.02 -0.02 -0.04 0.04 -0.1 c 0.08 -0.07 0.08 -0.08 0.08 -0.57 c 0 -0.27 -0.01 -0.51 -0.02 -0.53 c -0.02 -0.02 -0.07 -0.06 -0.12 -0.09 c -0.1 -0.05 -0.11 -0.05 0 -0.09 c 0.05 -0.02 0.16 -0.05 0.24 -0.07 c 0.13 -0.03 0.16 -0.02 0.25 0.03 c 0.11 0.06 0.11 0.06 0.25 -0.01 c 0.19 -0.09 0.36 -0.09 0.5 0.01 c 0.14 0.09 0.25 0.1 0.38 0.01 c 0.16 -0.1 0.41 -0.12 0.57 -0.03 c 0.23 0.12 0.25 0.18 0.23 0.76 c -0.01 0.46 -0.01 0.5 0.05 0.55 c 0.03 0.03 0.08 0.05 0.11 0.06 c 0.03 0.01 0.06 0.03 0.06 0.04 c 0.01 0.06 -1.71 0.11 -1.74 0.05 m 0.96 -0.11 c 0.04 -0.05 0.12 -0.07 0.14 -0.1 c 0.02 -0.03 0.04 -0.26 0.05 -0.51 l 0.02 -0.45 c -0.08 -0.09 -0.18 -0.16 -0.27 -0.16 c -0.13 0 -0.28 0.07 -0.3 0.14 c -0.01 0.02 -0.03 0.25 -0.04 0.51 c -0.02 0.46 -0.02 0.47 0.05 0.55 c 0.08 0.09 0.11 0.32 0.36 0.03 m 3 0.12 c -0.04 -0.04 -0.02 -0.14 0.13 -0.54 c 0.05 -0.33 0.43 -1.13 0.43 -1.33 c -0.01 -0.03 -0.12 -0.05 -0.35 -0.07 c -0.4 -0.03 -0.5 -0.01 -0.63 0.11 c -0.2 0.17 -0.21 0.11 -0.07 -0.2 c 0.06 -0.13 0.12 -0.22 0.16 -0.23 c 0.3 -0.01 0.58 0.05 0.89 0.03 c 0.27 -0.02 0.43 0.01 0.43 0.1 c 0 0.03 -0.04 0.11 -0.07 0.18 c -0.26 0.52 -0.45 1.52 -0.73 1.91 c -0.05 0.06 -0.14 0.07 -0.18 0.04 m 1.28 -0.03 c -0.01 -0.01 0.02 -0.06 0.06 -0.11 c 0.07 -0.09 0.08 -0.11 0.08 -0.57 v -0.48 l -0.1 -0.09 c -0.11 -0.11 -0.09 -0.14 0.16 -0.2 c 0.16 -0.04 0.19 -0.03 0.26 0.02 c 0.08 0.05 0.09 0.05 0.25 -0.03 c 0.09 -0.04 0.2 -0.08 0.25 -0.08 c 0.1 0 0.32 0.13 0.37 0.23 c 0.02 0.05 0.04 0.26 0.05 0.6 c 0.02 0.5 0.02 0.54 0.09 0.61 c 0.06 0.07 0.06 0.08 0.02 0.1 c -0.07 0.03 -0.46 0.03 -0.53 0 c -0.04 -0.02 -0.04 -0.03 0.03 -0.11 c 0.07 -0.09 0.08 -0.11 0.08 -0.53 c 0 -0.48 -0.02 -0.57 -0.17 -0.64 c -0.11 -0.06 -0.27 0 -0.38 0.13 c -0.07 0.09 -0.08 0.11 -0.08 0.52 c 0 0.41 0 0.43 0.08 0.52 c 0.04 0.05 0.07 0.1 0.05 0.11 c -0.19 0.01 -0.39 0.07 -0.58 0" style="fill:#121111"/><path d="m 7.75 10.63 c -0.02 -0.04 -0.04 -0.17 -0.05 -0.28 c 0 -0.19 0 -0.21 0.17 -0.39 c 0.17 -0.18 0.18 -0.2 0.18 -0.41 c 0 -0.16 -0.01 -0.22 -0.06 -0.24 c -0.27 -0.03 -0.47 -0.02 -0.75 -0.02 c -0.01 0.26 -0.29 0.54 -0.2 0.77 c 0.08 0.22 0.25 0.45 -0.18 0.39 c -0.27 -0.67 -0.32 0.42 -0.55 0.03 c -0.11 -0.12 -0.03 -0.41 -0.05 -0.39 c -0.92 0.22 -0.3 -0.41 0.17 -0.5 c 0.25 -0.05 0.32 -0.08 0.38 -0.16 c 0.05 -0.06 0.06 -0.11 0.04 -0.13 c -0.56 -0.15 -1.09 -0.1 -1.68 -0.28 c -0.18 -0.06 0.1 -0.52 -0.44 -0.34 c -0.31 0.04 -0.71 0.43 -0.82 0.14 c -0.17 -0.43 0.38 -0.46 0.05 -0.69 c -0.74 -0.64 0.61 -0.26 0.52 -0.52 c -0.02 -0.07 -0.08 -0.17 -0.13 -0.21 c -0.18 -0.34 0.06 -0.54 0.32 -0.32 c 0.4 -0.17 0.64 0.5 0.97 0.61 c 0.55 -0.73 0.85 -1.62 1.38 -2.33 c 0.44 -0.59 0.83 -1.15 1.18 -1.73 c 0.17 -0.27 0.05 -0.3 0.01 -0.41 c -0.07 -0.25 0.05 -0.51 0.34 -0.51 c 0.09 0 0.3 0.3 0.38 0.2 c -0.01 -0.59 0.63 -0.54 0.49 -0.02 c 0.41 -0.09 0.95 -0.23 0.61 0.39 c -0.12 0.21 0.01 0.18 0.3 0.48 c 0.17 0.18 0.45 0.42 0.61 0.54 c 0.57 0.42 0.79 0.72 0.93 1.25 c 0.13 0.5 0.15 0.75 0.08 1.05 c -0.02 0.46 -0.87 0.22 -1.18 0.15 c -0.49 -0.11 -0.71 -0.22 -0.8 -0.14 c -0.13 0.12 -0.03 0.43 0 0.88 c 0.04 0.59 -0.1 1.4 -0.29 1.69 c -0.1 0.16 -0.3 0.22 -0.79 0.25 c -0.23 0.01 -0.44 0.04 -0.47 0.06 c -0.03 0.02 -0.05 0.08 -0.05 0.14 c 0 0.09 0.02 0.11 0.14 0.16 c 0.31 0.13 0.41 0.19 0.6 0.41 c 0.23 0.26 0.27 0.37 0.19 0.45 c -0.07 0.07 -0.15 0.03 -0.45 -0.21 c -0.11 -0.09 -0.32 -0.25 -0.18 -0.05 c 0.1 0.15 0.09 0.28 -0.02 0.29 c -0.05 0.01 -0.16 -0.05 -0.3 -0.17 c -0.12 -0.1 -0.23 -0.18 -0.25 -0.18 c -0.02 0 -0.04 0.05 -0.05 0.12 c -0.05 0.25 -0.2 0.35 -0.28 0.2 m 3.88 -4.39 c 0.04 -0.23 0 -0.68 -0.07 -0.84 c -0.09 -0.19 -0.68 -0.75 -0.85 -0.79 c -0.46 -0.11 -0.79 0.86 -0.86 1.05 c -0.13 0.37 -0.14 0.44 -0.07 0.48 c 0.05 0.03 1.5 0.39 1.61 0.39 c 0.16 -0.03 0.21 -0.17 0.24 -0.3" style="fill:#fb5839"/><g style="fill:#30b4d4"><path d="m 7.53 6.13 c 0.29 0.1 0.99 0.52 1.07 0.86 c 0.04 0.19 -0.27 0.7 -0.43 0.89 c -0.46 0.46 -0.68 0.86 -1.21 0.74 c -0.5 -0.12 -0.65 -0.25 -0.57 -0.51 c 0.24 -0.43 0.84 -2.09 1.13 -1.98"/><path d="m 9.28 4.59 c 0 0.23 -0.18 0.41 -0.39 0.41 c -0.21 0 -0.39 -0.19 -0.39 -0.41 c 0 -0.23 0.18 -0.41 0.39 -0.41 c 0.21 0 0.39 0.19 0.39 0.41"/></g></svg>