<svg xmlns="http://www.w3.org/2000/svg" viewBox="0 0 16 16"><path d="m 15.41 10.2 c 2.96 -8.28 -7.67 -12.3 -11.67 -8.93 c -3.99 3.37 -5.36 9.14 -0.84 12.1 c 4.52 2.91 9.54 5.16 12.5 -3.12" style="fill:#dc133c"/><g style="fill:#ffeff4"><path d="m 9.38 3.75 l 0.43 0.39 v 0.79 h 2.56 v 5.89 c 0 0.22 -0.19 0.39 -0.43 0.39 h -7.69 c -0.23 0 -0.43 -0.18 -0.43 -0.39 v -5.89 h 2.56 v -0.79 l 0.43 -0.39 m 2.57 0.39 h -2.57 v 0.79 h 2.57"/><g style="fill-opacity:0.2"><path d="m 9.38 4.14 v 0.2 h -2.57 v -0.2 m 5.55 6.68 v 0.2 c 0 0.22 -0.19 0.39 -0.43 0.39 h -7.69 c -0.23 0 -0.43 -0.18 -0.43 -0.39 v -0.2 c 0 0.22 0.19 0.39 0.43 0.39 h 7.69 c 0.24 0 0.43 -0.18 0.43 -0.39"/><path d="m 9.38 3.75 l 0.43 0.39 v 0.2 l -0.43 -0.39 h -2.57 l -0.43 0.39 v -0.2 l 0.43 -0.39 m 5.55 1.18 v 0.2 h -2.56 v -0.2 m -0.43 0 v 0.2 h -2.57 v -0.2 m -0.43 0 v 0.2 h -2.56 v -0.2"/></g></g><g style="fill:#dc133c"><path d="m 10.18 9.91 c -0.14 -0.04 -0.15 -0.05 -0.15 -0.23 v -0.2 l 0.12 0.06 c 0.06 0.03 0.2 0.06 0.31 0.06 c 0.28 0 0.39 -0.11 0.43 -0.4 c 0.01 -0.13 0.01 -0.22 0 -0.22 c -0.01 0 -0.08 0.06 -0.16 0.14 c -0.27 0.26 -0.59 0.15 -0.77 -0.26 c -0.07 -0.18 -0.09 -0.26 -0.07 -0.54 c 0.02 -0.36 0.07 -0.5 0.25 -0.68 c 0.19 -0.19 0.43 -0.18 0.63 0.04 l 0.14 0.14 v -0.29 h 0.39 l -0.01 0.95 c -0.02 1.07 -0.04 1.16 -0.31 1.35 c -0.17 0.11 -0.54 0.15 -0.79 0.09 m 0.57 -1.11 c 0.16 -0.16 0.19 -0.61 0.05 -0.83 c -0.08 -0.11 -0.29 -0.14 -0.39 -0.04 c -0.13 0.13 -0.17 0.44 -0.1 0.7 c 0.07 0.25 0.28 0.34 0.45 0.17"/><path d="m 4.91 8.13 v -1.16 h 0.45 v 1.86 h 0.8 v 0.45 h -1.25"/><path d="m 6.5 8.72 v -1.19 h 0.39 v 0.14 v 0.15 l 0.1 -0.13 c 0.11 -0.14 0.32 -0.22 0.46 -0.19 c 0.05 0.02 0.16 0.09 0.23 0.17 c 0.17 0.19 0.24 0.46 0.21 0.84 c -0.04 0.66 -0.46 0.98 -0.85 0.63 l -0.16 -0.14 v 0.91 h -0.39 m 0.88 -1.07 c 0.17 -0.17 0.17 -0.7 0 -0.89 c -0.1 -0.11 -0.31 -0.1 -0.39 0.03 c -0.07 0.11 -0.11 0.45 -0.08 0.65 c 0.05 0.28 0.3 0.39 0.47 0.21"/><path d="m 8.3 8.1 v -1.2 h 0.39 l 0.01 0.67 v 0.67 l 0.26 -0.33 l 0.25 -0.34 h 0.46 l -0.19 0.22 c -0.11 0.13 -0.25 0.3 -0.32 0.38 c -0.07 0.09 -0.13 0.17 -0.13 0.2 c 0 0.02 0.15 0.24 0.33 0.48 l 0.33 0.45 h -0.46 l -0.27 -0.36 l -0.27 -0.36 v 0.36 l -0.01 0.36 h -0.39"/></g></svg>