<svg xmlns="http://www.w3.org/2000/svg" viewBox="0 0 16 16"><path d="m 9.94 0.35 c 1.43 0.69 3.41 1.7 3.59 1.82 c 0.11 0.07 0.28 0.27 0.39 0.43 c 0.31 0.46 1.94 3.7 2 3.99 c 0.06 0.27 -0.03 1.22 -0.18 2.08 c -0.39 2.54 -0.26 2.49 -0.63 3 c -0.08 0.14 -0.84 0.96 -1.7 1.82 c -1.64 1.64 -1.82 1.77 -2.48 1.87 c -1.78 0.23 -2.91 0.57 -4.49 0.6 c -1.38 -0.66 -2.86 -1.36 -4.14 -2.17 c -0.2 -0.19 -0.48 -0.67 -1.11 -1.89 c -1.29 -2.5 -1.18 -2.22 -1.13 -3.08 c 0.21 -1.32 0.33 -3.54 0.84 -4.46 c 0.18 -0.29 2.37 -2.56 3.05 -3.16 c 0.34 -0.3 0.68 -0.43 1.44 -0.55 c 0.78 -0.26 2.59 -0.48 3.21 -0.58 c 0.36 -0.07 0.77 -0.02 1.33 0.25" style="fill:#d11353"/><path d="m 3.41 8.91 c -0.02 -0.05 0.81 -3.77 0.87 -3.88 c 0.06 -0.12 3.57 -1.84 3.75 -1.84 c 0.11 0 3.56 1.71 3.68 1.82 c 0.05 0.05 0.95 3.95 0.91 3.99 c -3.86 -0.13 -5.83 -0.02 -9.21 -0.09" style="fill:#221f20"/><g style="fill:#fff"><path d="m 6.54 6.34 c 0 -0.02 0.23 -0.53 0.52 -1.15 c 0.29 -0.62 0.53 -1.15 0.54 -1.18 c 0.24 -0.08 0.42 -0.01 0.7 -0.01 l 0.54 1.13 c 0.3 0.64 0.54 1.18 0.55 1.2 c -0.25 0.05 -0.45 0.03 -0.73 0.03 c -0.05 -0.13 -0.11 -0.27 -0.16 -0.4 c -0.36 0 -0.72 -0.01 -1.08 -0.02 c -0.05 0.13 -0.11 0.27 -0.16 0.4 c -0.24 0 -0.5 0.02 -0.72 0 m 1.72 -0.96 c -0.1 -0.21 -0.16 -0.47 -0.31 -0.63 c -0.04 0.04 -0.29 0.61 -0.29 0.66 c 0.13 0.06 0.64 0.06 0.6 -0.03"/><path d="m 3.38 9.1 c 0 -0.05 1.64 -2.49 1.77 -2.63 c 0.98 0.1 2.06 0.34 2.86 0.48 c 0.92 -0.09 1.83 -0.38 2.76 -0.42 c 0.08 0 0.2 0.14 0.49 0.55 c 0.97 1.38 1.38 2 1.36 2.06 c -0.82 1.03 -1.73 2.05 -2.56 3 c -2.41 -0.02 -2.95 0.03 -4.11 0.01 c -0.98 -1.2 -1.56 -1.85 -2.57 -3.06"/></g><path d="m 7.09 11.89 c -0.45 -0.68 -0.81 -1.25 -0.8 -1.28 c 0.04 -0.06 1.6 -1.04 1.62 -1.02 c 0.01 0.01 0.02 0.81 0.01 1.77 l -0.01 1.75" style="fill:#f68121"/><path d="m 7.9 11.34 c 0 -0.96 0.01 -1.75 0.03 -1.75 c 0.02 0 0.37 0.22 0.79 0.48 c 0.46 0.3 0.75 0.51 0.75 0.56 c 0 0.07 -1.05 1.74 -1.43 2.27 l -0.13 0.19" style="fill:#ec1a23"/><g style="fill:#221f20"><path d="m 7.11 8.16 c 0 0.36 -0.27 0.66 -0.61 0.66 c -0.34 0 -0.61 -0.29 -0.61 -0.66 c 0 -0.36 0.27 -0.66 0.61 -0.66 c 0.34 0 0.61 0.29 0.61 0.66"/><path d="m 10.21 8.2 c 0 0.36 -0.27 0.66 -0.61 0.66 c -0.34 0 -0.61 -0.29 -0.61 -0.66 c 0 -0.36 0.27 -0.66 0.61 -0.66 c 0.34 0 0.61 0.3 0.61 0.66"/></g></svg>