<svg xmlns="http://www.w3.org/2000/svg" viewBox="0 0 16 16"><path d="m 9.98 15.61 c 5.68 -0.2 6.1 -4.92 5.88 -9.32 c -0.18 -3.58 -1.84 -5.31 -4.83 -5.84 c -7.79 -1.4 -13.42 0.99 -9.94 12.31 c 1.48 3.38 5.88 3.32 8.89 2.86" style="fill:#b0dfe5"/><path d="m 5.8 8.21 c 0.01 -0.04 -0.59 -0.96 -1.57 -2.2 c -0.87 -1.1 -1.57 -2 -1.57 -2.03 c 0 -0.02 1 -0.02 2.23 -0.02 c 1.72 0 2.25 0.01 2.3 0.06 c 0.04 0.03 0.24 0.28 0.45 0.55 c 0.21 0.28 0.41 0.5 0.46 0.5 c 0.04 0 0.24 -0.21 0.45 -0.49 c 0.21 -0.27 0.41 -0.52 0.45 -0.55 c 0.06 -0.06 0.38 -0.07 2.3 -0.07 c 1.23 0 2.24 0.01 2.24 0.02 c 0 0.01 -0.71 0.93 -1.57 2.02 c -0.86 1.1 -1.55 2.17 -1.55 2.2 c 0.7 3.57 0.82 3.19 -2.33 2.91 c -3.62 0.31 -2.73 0.22 -2.3 -2.91" style="fill:#028ee6"/><path d="m 2.66 12.16 c 0 -0.03 0.55 -0.73 1.23 -1.57 c 1.75 -2.17 1.88 -2.31 1.91 -2.3 c 0.04 0.02 2.26 2.75 2.26 2.78 c 0 0.04 -0.83 1.05 -0.89 1.09 c -0.08 0.05 -4.51 0.04 -4.51 -0.01 m 6.37 0.01 c -0.05 -0.04 -0.88 -1.06 -0.88 -1.09 c 0 -0.04 2.21 -2.77 2.26 -2.79 c 0.03 -0.01 0.48 0.54 2.71 3.29 c 0.23 0.29 0.43 0.55 0.43 0.57 c 0 0.05 -4.43 0.07 -4.52 0.01 m -1.71 -3.14 c -0.18 -0.1 -0.53 -0.43 -0.53 -0.5 c 0.18 -0.19 0.36 -0.29 0.58 -0.45 l 0.41 0.05 c 0.35 0.04 0.46 0.04 0.68 -0.02 c 0.29 -0.08 0.77 -0.33 0.8 -0.42 c 0.02 -0.07 -0.18 -0.07 -0.45 0.01 c -0.3 0.1 -0.68 0.09 -0.68 -0.02 c 0 -0.02 0.08 -0.07 0.18 -0.11 c 0.12 -0.05 0.17 -0.11 0.16 -0.16 c -0.02 -0.09 -0.45 -0.11 -1 -0.05 c -0.32 0.04 -0.44 0.07 -0.67 0.21 c -0.15 0.09 -0.3 0.15 -0.33 0.13 c -0.09 -0.05 -0.01 -0.59 0.13 -0.9 c 0.18 -0.39 0.39 -0.62 0.78 -0.82 c 0.82 -0.41 1.84 0.09 2.2 0.79 c 0.13 0.28 0.14 0.33 0.14 0.75 c 0 0.41 -0.01 0.48 -0.13 0.72 c -0.16 0.34 -0.46 0.65 -0.79 0.81 c -0.48 0.21 -1.05 0.19 -1.5 -0.04" style="fill:#0a0a0a"/></svg>