<svg xmlns="http://www.w3.org/2000/svg" viewBox="0 0 16 16"><path d="m 13.64 2.97 c 9.91 14.18 -15.86 18.69 -13.3 3.62 c 1.36 -5.99 9.33 -9.3 13.3 -3.62" style="fill:#e52869"/><g style="fill:#fff"><path d="m 3.65 9.96 c -0.12 -0.01 -0.14 -0.02 -0.16 -0.11 c -0.04 -0.2 0.02 -0.34 0.16 -0.36 c 0.18 -0.02 0.33 -0.02 0.51 -0.02 v -2.37 c -0.2 -0.02 -0.44 0.03 -0.63 -0.04 c -0.04 -0.12 -0.08 -0.36 0.03 -0.42 c 0.05 -0.02 0.36 -0.04 0.94 -0.04 c 1 0 0.98 -0.01 0.98 0.26 c 0 0.21 -0.04 0.24 -0.42 0.24 h -0.3 v 2.36 c 0.21 0.02 0.45 0.01 0.66 0.07 c 0.06 0.05 0.08 0.17 0.05 0.3 c -0.03 0.09 -0.05 0.12 -0.13 0.13 c -0.11 0.02 -1.45 0.02 -1.68 0"/><path d="m 6.4 10 c -0.45 -0.1 -0.55 -0.16 -0.56 -0.34 c -0.01 -0.18 0.01 -0.38 0.04 -0.41 c 0.01 -0.01 0.07 0.01 0.13 0.04 c 0.39 0.23 0.86 0.31 1.15 0.08 c 0.05 -0.04 0.05 -0.17 0.07 -1.15 l 0.02 -1.11 c -0.2 -0.05 -0.7 0.08 -0.82 -0.08 c -0.06 -0.09 -0.06 -0.27 0.01 -0.36 c 0.44 -0.11 0.72 -0.13 1.3 -0.05 c 0.11 0.03 0.12 0.26 0.1 1.57 l -0.02 1.14 l -0.08 0.16 c -0.2 0.38 -0.42 0.5 -0.95 0.51 c -0.14 0 -0.28 0 -0.4 -0.01"/><path d="m 8.52 9.93 c -0.09 -0.02 -0.11 -0.04 -0.14 -0.12 c -0.02 -0.05 -0.02 -0.71 -0.02 -1.45 v -1.36 l 0.08 -0.06 c 0.2 -0.06 0.51 -0.14 0.7 0.02 c 0.15 0.13 0.03 0.29 -0.2 0.29 h -0.14 v 2.37 c 0.12 0 0.3 -0.02 0.36 0.06 c 0.07 0.1 0.01 0.23 -0.11 0.25 c -0.18 0.01 -0.36 0.02 -0.54 -0.01"/><path d="m 9.66 9.57 c -0.13 -0.02 -0.25 -0.07 -0.34 -0.15 c -0.42 -0.36 -0.21 -1 0.34 -1.07 c 0.21 -0.02 0.36 0.03 0.51 0.19 c 0.21 0.21 0.25 0.43 0.12 0.68 c -0.12 0.23 -0.42 0.4 -0.64 0.36"/><path d="m 10.23 8.37 c -0.15 -0.06 -0.3 -0.2 -0.37 -0.33 c -0.1 -0.18 -0.07 -0.44 0.05 -0.59 c 0.27 -0.31 0.71 -0.35 0.97 -0.08 c 0.22 0.22 0.25 0.53 0.08 0.77 c -0.16 0.23 -0.5 0.34 -0.74 0.24"/><path d="m 10.58 9.23 c -0.13 -0.25 -0.08 -0.5 0.14 -0.71 c 0.23 -0.22 0.48 -0.23 0.8 -0.04 c 0.14 0.09 0.25 0.29 0.25 0.47 c 0 0.32 -0.3 0.61 -0.62 0.61 c -0.24 0 -0.46 -0.13 -0.58 -0.33"/><path d="m 11.75 9.89 c -0.05 -0.05 -0.05 -0.19 0 -0.23 c 0.11 -0.04 0.21 -0.04 0.33 -0.05 v -2.34 h -0.13 c -0.16 -0.01 -0.25 -0.08 -0.23 -0.2 c 0.01 -0.06 0.04 -0.1 0.09 -0.13 c 0.09 -0.04 0.54 -0.05 0.6 -0.02 c 0.09 0.06 0.11 0.21 0.11 1.61 v 1.41 c -0.27 -0.04 -0.54 0.03 -0.76 -0.04"/></g></svg>