<svg xmlns="http://www.w3.org/2000/svg" viewBox="0 0 16 16"><path d="m 15.96 8.37 c -0.25 -5.69 -4.1 -9.98 -9.45 -7.61 c -3.67 1.62 -7.16 3.41 -6.28 7.61 c 0.87 4.2 5.11 7.61 9.45 7.61 c 4.34 0 6.46 -3.46 6.28 -7.61" style="fill:#8b008b"/><path d="m 9.61 11.9 c 1.45 -0.71 2.29 -2.14 2.7 -3.44 c 0.63 0.45 0.66 2.86 0.27 3.5 c -0.28 0.52 -3.91 0.4 -2.96 -0.05" style="fill:#ff8c00"/><path d="m 6.55 12.33 c -0.44 -0.12 -0.73 -0.25 -1.11 -0.54 c -0.57 -0.44 -1 -0.93 -1.22 -1.64 c -0.14 -0.33 -0.14 -0.71 -0.01 -0.99 c 0.19 -0.4 0.54 -0.67 0.89 -0.67 c 0.16 0 0.58 0.15 0.8 0.28 c 0.37 0.23 0.62 0.53 1.2 1.43 c 0.48 0.75 0.81 1.46 0.81 1.75 c 0 0.14 -0.1 0.29 -0.24 0.36 c -0.36 0.07 -0.77 0.1 -1.11 0.02" style="fill:#fb006c"/><path d="m 4.66 7.89 c -0.13 -0.02 -0.21 -0.13 -0.3 -0.36 c -0.11 -0.29 -0.1 -0.45 0.03 -0.91 c 0.33 -1.15 0.99 -1.94 1.95 -2.34 c 0.71 -0.3 1.29 -0.21 1.66 0.27 c 0.27 0.34 0.14 0.9 0.02 1.16 c -0.21 0.43 -0.62 0.8 -1.5 1.38 c -0.94 0.62 -1.52 0.87 -1.87 0.8" style="fill:#9327ff"/><path d="m 10.43 7.16 c -0.35 -0.38 -1.05 -1.44 -1.34 -2.04 c -0.16 -0.32 -0.22 -0.55 -0.22 -0.79 c 0 -0.47 0.62 -0.45 0.84 -0.44 c 0.47 0.02 0.71 0.08 1.17 0.32 c 0.71 0.36 1.16 0.82 1.52 1.54 c 0.18 0.36 0.23 0.57 0.23 0.96 c -0.08 0.7 -0.38 1.05 -0.94 1.07 c -0.49 0.02 -0.95 -0.3 -1.25 -0.62" style="fill:#00c8ff"/><path d="m 9.25 12.1 c -0.33 -0.12 -0.62 -0.46 -0.66 -0.78 c -0.02 -0.56 0.28 -1.07 0.61 -1.37 c 0.27 -0.26 1.21 -0.89 1.82 -1.23 c 0.43 -0.24 0.7 -0.34 0.96 -0.34 c 0.23 0 0.32 0.06 0.41 0.29 c 0.07 0.19 0.05 0.73 -0.05 1.09 c -0.29 1.07 -1.07 1.94 -2.09 2.31 c -0.27 0.1 -0.77 0.12 -0.99 0.04" style="fill:#ffce00"/></svg>