<svg xmlns="http://www.w3.org/2000/svg" xmlns:xlink="http://www.w3.org/1999/xlink" viewBox="0 0 16 16"><defs><g id="8" style="clip-path:url(#7)"><path d="m 69.5 37 c -9.1 0 -16.45 7.35 -16.45 16.45 c 0 9.16 7.39 16.51 16.45 16.51 c 9.13 0 16.51 -7.35 16.51 -16.51 c 0 -9.1 -7.39 -16.45 -16.51 -16.45 m -6.1 35 c 0 0 -0.06 0 -0.06 0 c -3.84 0.76 -7.93 2.28 -11.17 4.55 c -3.24 2.22 -5.71 5.19 -6.19 8.87 c 0 0 0 0 0 0.06 v 3.5 c 0 2.74 2.22 4.96 4.98 4.96 h 37.1 c 2.7 0 4.98 -2.22 4.98 -4.96 v -3.5 c 0 -0.06 0 -0.06 0 -0.06 c -0.42 -3.68 -3.54 -6.94 -7.15 -9.39 c -3.6 -2.39 -7.63 -3.97 -10.27 -4.08" transform="matrix(0.065 0 0 0.067 3.79 4.15)" style="fill:#007267;stroke:#007267;stroke-linecap:round;stroke-linejoin:round;stroke-width:2"/></g><clipPath id="7"><path d="M 0,0 H16 V16 H0 z"/></clipPath><filter id="5" filterUnits="objectBoundingBox" x="0" y="0" width="16" height="16"><feColorMatrix type="matrix" in="SourceGraphic" values="0 0 0 0 1 0 0 0 0 1 0 0 0 0 1 0 0 0 1 0"/></filter><linearGradient id="A" gradientUnits="userSpaceOnUse" y1="44" x2="0" y2="3.9" gradientTransform="matrix(2.6 0 0 2.795 5.8 -3.08)" xlink:href="#3"/><linearGradient id="B" gradientUnits="userSpaceOnUse" y1="5" x2="0" y2="43" gradientTransform="matrix(2.459 0 0 2.892 4.97 -5.41)"><stop style="stop-color:#fff;stop-opacity:0.5"/><stop offset="0.03" style="stop-color:#fff;stop-opacity:0.12"/><stop offset="0.97" style="stop-color:#fff;stop-opacity:0.08"/><stop offset="1" style="stop-color:#fff;stop-opacity:0.19"/></linearGradient><linearGradient id="4" gradientUnits="userSpaceOnUse" y1="10" x2="0" y2="118"><stop style="stop-color:#43d6b4"/><stop offset="1" style="stop-color:#28bba3"/></linearGradient><linearGradient id="3" gradientUnits="userSpaceOnUse" y1="44" x2="0" y2="3.9" gradientTransform="matrix(2.6 0 0 0.282 5.8 0.23)"><stop style="stop-color:#272727"/><stop offset="1" style="stop-color:#454545"/></linearGradient><linearGradient id="0" gradientUnits="userSpaceOnUse" x1="24.63" y1="3.12" x2="24.64" y2="4.88" gradientTransform="matrix(2.665 0 0 4.093 4.35 -10.57)"><stop style="stop-color:#f4f4f4"/><stop offset="1" style="stop-color:#e0e0e0"/></linearGradient><linearGradient id="2" gradientUnits="userSpaceOnUse" y1="1" x2="0" y2="3" gradientTransform="matrix(2.6 0 0 2.75 0.6 0.12)" xlink:href="#0"/><linearGradient id="1" gradientUnits="userSpaceOnUse" x1="5.21" x2="54.89" gradientTransform="matrix(1.901 0 0 1.988 6.82 0.04)"><stop style="stop-color:#0d9a82"/><stop offset="0.96" style="stop-color:#0d9a82"/><stop offset="0.96" style="stop-color:#c1c1c1"/><stop offset="1" style="stop-color:#c1c1c1"/></linearGradient><mask id="6"><g style="filter:url(#5)"><path d="M 0,0 H16 V16 H0 z" style="fill-opacity:0.05"/></g></mask><radialGradient id="C" gradientUnits="userSpaceOnUse" cx="64.4" cy="114.8" r="52.5" gradientTransform="matrix(1.333 0 0 0.082 -19.85 -3.92)"><stop style="stop-color:#000;stop-opacity:0.1"/><stop offset="1" style="stop-color:#000;stop-opacity:0"/></radialGradient><radialGradient id="9" gradientUnits="userSpaceOnUse" cx="7.5" cy="8.45" r="20" gradientTransform="matrix(0 6.532 -6.428 0 122.5 -37.83)"><stop style="stop-color:#5f5f5f"/><stop offset="0.26" style="stop-color:#4e4e4e"/><stop offset="0.7" style="stop-color:#3b3b3b"/><stop offset="1" style="stop-color:#2a2a2a"/></radialGradient></defs><path d="m 7.97 15.94 c -10.56 1.2 -10.41 -15.99 0.19 -15.79 c 9.86 -0.57 10.74 16.73 -0.19 15.79" style="fill:#007f7f"/><g style="stroke-linejoin:round"><path d="m 109.5 10.37 c -0.78 -2.63 -0.3 -6.36 -0.78 -8.87 h -80.3 l 0.48 7.99" transform="matrix(0.065 0 0 0.067 3.79 4.15)" style="fill:url(#0);stroke-miterlimit:0;stroke:url(#1);stroke-width:1.02"/><g style="stroke-linecap:round"><path d="m 30.5 12.53 h -10.39 c -1.5 0 -2.58 -0.18 -2.58 -0.29 v -8.17 c 0 -1.93 0.6 -2.57 2.52 -2.57 h 10.45" transform="matrix(0.065 0 0 0.067 3.79 4.15)" style="fill:url(#2);stroke:url(#3)"/><path d="m 22.2 9.49 h 86.4 c 1.08 0 1.92 0.82 1.92 1.87 v 105.2 c 0 1.05 -0.84 1.87 -1.92 1.87 h -86.4 c -1.08 0 -1.92 -0.82 -1.92 -1.87 v -105.2 c 0 -1.05 0.84 -1.87 1.92 -1.87" transform="matrix(0.065 0 0 0.067 3.79 4.15)" style="fill:url(#4);stroke-miterlimit:0;stroke:#0d9a82;stroke-width:1.02"/></g></g><use xlink:href="#8" style="mask:url(#6)"/><path d="m 8.3 6.63 c -0.59 0 -1.07 0.49 -1.07 1.1 c 0 0.61 0.48 1.11 1.07 1.11 c 0.59 0 1.07 -0.49 1.07 -1.11 c 0 -0.61 -0.48 -1.1 -1.07 -1.1 m -0.39 2.34 c 0 0 0 0 0 0 c -0.25 0.05 -0.52 0.15 -0.73 0.3 c -0.21 0.15 -0.37 0.35 -0.4 0.59 v 0.24 c 0 0.18 0.14 0.33 0.32 0.33 h 2.41 c 0.18 0 0.32 -0.15 0.32 -0.33 v -0.23 c 0 0 0 0 0 0 c -0.03 -0.25 -0.23 -0.46 -0.46 -0.63 c -0.23 -0.16 -0.5 -0.27 -0.67 -0.27" style="fill:#007267;fill-opacity:0.15"/><path d="m 8.3 6.56 c -0.59 0 -1.07 0.5 -1.07 1.11 c 0 0.61 0.48 1.11 1.07 1.11 c 0.59 0 1.07 -0.5 1.07 -1.11 c 0 -0.61 -0.48 -1.11 -1.07 -1.11 m -0.39 2.34 c 0 0 0 0 0 0 c -0.25 0.05 -0.52 0.15 -0.73 0.3 c -0.21 0.15 -0.37 0.35 -0.4 0.59 v 0.24 c 0 0.18 0.14 0.33 0.32 0.33 h 2.41 c 0.18 0 0.32 -0.15 0.32 -0.33 v -0.23 c 0 0 0 0 0 0 c -0.03 -0.25 -0.23 -0.46 -0.46 -0.63 c -0.23 -0.16 -0.5 -0.27 -0.67 -0.27" style="fill:#fafafa"/><g style="stroke-linecap:round;stroke-linejoin:round"><path d="m 30.5 9.49 c 0 0 0 75.83 0 109 h -10.75 c -1.44 0 -2.22 -0.88 -2.22 -2.39 v -106.6" transform="matrix(0.065 0 0 0.067 3.79 4.15)" style="fill:url(#9);stroke:url(#A)"/><path d="m 19.45 10.48 h 89.1 c 0.48 0 0.96 0.41 0.96 0.93 v 105.2 c 0 0.47 -0.48 0.93 -0.96 0.93 h -89.1 c -0.54 0 -0.96 -0.47 -0.96 -0.93 v -105.2 c 0 -0.53 0.42 -0.93 0.96 -0.93" transform="matrix(0.065 0 0 0.067 3.79 4.15)" style="fill:none;stroke:url(#B)"/></g><path d="m 18.49 3.48 h 92 m -92 2.04 h 92 m -92 1.98 h 92" transform="matrix(0.065 0 0 0.067 3.79 4.15)" style="fill:none;stroke:url(#C)"/></svg>