<svg xmlns="http://www.w3.org/2000/svg" viewBox="0 0 16 16"><path d="m 15.1 4.92 c 6.12 14.34 -19.82 14.91 -14.1 0.34 c 2.05 -5.91 10.96 -7.72 14.1 -0.34" style="fill:#b0dfe5"/><path d="m 4.29 12.93 c -0.21 -0.06 -0.37 -0.22 -0.43 -0.44 c -0.07 -0.26 -0.07 -7.43 0 -7.69 c 0.06 -0.22 0.22 -0.38 0.46 -0.44 c 0.94 -0.07 1.61 -0.04 2.61 -0.04 c -0.1 0.6 -0.08 0.79 -0.16 1.18 c -0.04 0.02 -0.39 0.05 -0.86 0.05 l -0.8 0.01 v 6.17 l 4.54 0.04 c -0.02 0.39 0.01 0.79 -0.04 1.17 c -0.03 0.05 -5.13 0.04 -5.32 -0.02 m 1.36 -1.49 c 0 -0.03 0.48 -0.46 0.52 -0.48 c 0.04 -0.02 0.43 0.26 0.52 0.36 c 0.03 0.04 0.04 0.08 0.03 0.1 c -0.02 0.04 -1.07 0.05 -1.07 0.02 m 1.27 -0.28 c 0.01 -0.32 0.02 -0.63 0.02 -0.95 c 0.35 -0.01 0.7 -0.01 1.05 -0.01 c 0.09 0.78 0.19 0.84 0.2 1.25 h -0.23 c -0.41 -0.02 -0.7 -0.13 -1.04 -0.29 m 1.7 -0.97 c 0.32 0.03 0.75 -0.07 1.04 0.05 c 0.01 0.34 -0.02 0.61 -0.04 0.97 c -0.39 0.19 -0.85 0.23 -1.2 0.26 c 0 -0.38 0.14 -0.79 0.21 -1.28 m -3.23 0.51 c 0 -0.28 0.02 -0.52 0.04 -0.53 c 0.02 -0.01 0.07 0 0.11 0.03 c 0.11 0.08 0.39 0.45 0.38 0.49 c -0.02 0.05 -0.47 0.51 -0.5 0.51 c -0.01 0 -0.02 -0.23 -0.02 -0.5 m 1.07 0.19 l -0.13 -0.11 c 0.13 -0.12 0.25 -0.24 0.38 -0.36 v 0.28 c 0 0.32 -0.03 0.34 -0.24 0.18 m -0.59 -0.65 c 0 -0.03 0.12 -0.04 0.29 -0.04 h 0.29 c -0.12 0.11 -0.23 0.24 -0.37 0.34 c -0.1 -0.08 -0.17 -0.17 -0.22 -0.29 m -0.21 -0.31 c -0.12 -0.15 -0.24 -0.53 -0.26 -0.84 l -0.03 -0.34 h 1.33 l -0.02 1.2 l -0.48 0.01 c -0.36 0.01 -0.5 0 -0.53 -0.04 m 2.32 -0.68 c 0.02 0.34 0 0.33 0 0.7 c -0.34 0 -0.48 0.03 -0.82 0.03 c 0.34 -0.32 0.47 -0.42 0.82 -0.73 m 0.68 0 c 0.33 0.33 0.43 0.39 0.75 0.73 c -0.36 0.02 -0.4 0.02 -0.78 0.02 c 0 -0.33 0.03 -0.42 0.03 -0.75 m 1.26 0.71 c -0.02 -0.02 -0.03 -0.29 -0.03 -0.61 v -0.58 c 0.44 0 0.88 0 1.32 0 l -0.02 0.34 c -0.02 0.29 -0.15 0.71 -0.25 0.81 c -0.04 0.04 -0.99 0.09 -1.03 0.05 m 1.61 -0.04 c -0.01 -0.02 -0.02 -1.01 -0.03 -2.2 l -0.01 -2.16 l -0.81 -0.01 c -0.47 -0.01 -0.83 -0.03 -0.86 -0.05 c -0.02 -0.33 -0.06 -0.8 -0.16 -1.18 h 1.22 c 1.3 0 1.49 0.02 1.69 0.2 c 0.2 0.19 0.21 0.34 0.2 2.97 l -0.01 2.43 c -0.44 -0.05 -0.71 -0.01 -1.23 0 m -4.61 -0.68 v -0.48 h 1.03 l -0.5 0.48 c -0.27 0.27 -0.51 0.49 -0.51 0.49 c -0.01 0 -0.01 -0.22 -0.01 -0.49 m 2.23 0 l -0.5 -0.48 h 1.03 c -0.01 0.32 0.02 0.65 -0.01 0.97 c -0.01 0 -0.24 -0.22 -0.52 -0.49 m -3.75 -1.04 c 0.02 -0.3 0.14 -0.68 0.26 -0.84 c 0.03 -0.04 0.18 -0.05 0.49 -0.05 c 0.46 0 0.53 0.02 0.55 0.19 c 0 0.04 0.01 0.3 0 0.56 v 0.48 h -1.33 m 1.57 -0.72 c 0.17 0.17 0.96 0.51 0.98 0.68 c -0.4 0.06 -0.61 0.05 -1 0.04 c 0 -0.24 -0.02 -0.5 0.03 -0.72 m 2.7 0 c 0.02 0 0.03 0.16 0.03 0.36 v 0.36 c -0.34 0 -0.68 0 -1.02 0 c 0.27 -0.3 0.69 -0.54 0.99 -0.72 m 0.25 0.16 c 0 -0.38 0.02 -0.58 0.05 -0.61 c 0.07 -0.07 0.93 -0.07 0.99 0 c 0.12 0.15 0.23 0.53 0.26 0.84 l 0.02 0.34 c -0.44 0 -0.88 0 -1.32 0 m -4.48 -1.43 c -0.03 -0.03 -0.04 -1.03 -0.01 -1.03 c 0.03 0 0.48 0.46 0.5 0.51 c 0.02 0.04 -0.34 0.5 -0.41 0.52 c -0.04 0.01 -0.07 0.01 -0.09 0 m 5.65 -0.02 c -0.1 -0.08 -0.39 -0.46 -0.37 -0.5 c 0.02 -0.04 0.47 -0.51 0.5 -0.51 c 0.04 0 0.02 1.01 -0.02 1.03 c -0.02 0.01 -0.07 0 -0.11 -0.03 m -5.2 -0.04 c 0.05 -0.13 0.13 -0.2 0.21 -0.3 c 0.13 0.12 0.25 0.24 0.38 0.36 c -0.18 -0.01 -0.46 0.03 -0.59 -0.05 m 4.64 -0.3 l 0.11 0.13 c 0.17 0.2 0.14 0.23 -0.19 0.23 h -0.29 c 0.13 -0.12 0.25 -0.24 0.37 -0.36 m -4.86 -0.89 c 0 -0.01 0.21 -0.02 0.46 -0.02 c 0.26 0 0.46 0.02 0.46 0.04 c 0 0.16 -0.24 0.46 -0.37 0.46 c -0.21 -0.14 -0.37 -0.29 -0.55 -0.48 m 4.38 0.02 c 0 -0.02 0.2 -0.04 0.46 -0.04 c 0.25 0 0.46 0.01 0.46 0.02 c 0 0.04 -0.51 0.49 -0.55 0.48 c -0.18 -0.07 -0.37 -0.27 -0.37 -0.46" style="fill:#3381e2"/><g style="fill:#ffd600"><path d="m 8.32 5.29 c 0.14 0 0.25 1.25 0.24 2.79 c 0 1.54 -0.12 2.8 -0.26 2.8 c -0.14 0.01 -0.24 -1.24 -0.24 -2.79 c 0 -1.54 0.12 -2.8 0.25 -2.8" style="fill-opacity:0.99"/><path d="m 9.18 2.98 c -0.17 0.18 -0.54 0.29 -0.96 0.29 c -0.43 -0.01 -0.81 -0.13 -0.99 -0.31 l -0.17 3.19 c 0 0 0 0 0 0 v 0.01 h 0.01 c 0.21 0.24 0.7 0.41 1.26 0.42 c 0.56 0 1.04 -0.16 1.23 -0.39 h 0.01"/><path d="m 8.26 5.71 c -1.04 0.04 -1.88 0.54 -1.92 1.15 c 0 0.03 -0.01 0.05 -0.01 0.08 c 0 0.5 0.86 0.89 1.92 0.85 c 1.06 -0.03 1.93 -0.47 1.93 -0.97 c 0 -0.03 0 -0.05 -0.01 -0.08 c -0.04 -0.61 -0.88 -1.06 -1.91 -1.03"/><path d="m 9.58 2.8 c 0 0.36 -0.63 0.66 -1.42 0.67 c -0.79 0.01 -1.42 -0.27 -1.42 -0.63 c 0 -0.36 0.64 -0.65 1.42 -0.66 c 0.79 -0.01 1.42 0.27 1.42 0.63"/></g><path d="m 9.81 11.52 v -1.46 h 1.43 c 0.79 0 1.43 0.01 1.43 0.02 c 0 0.01 -0.54 0.55 -1.19 1.21 c -0.65 0.66 -1.3 1.3 -1.43 1.44 l -0.24 0.25" style="fill:#eff8ff"/></svg>