<svg xmlns="http://www.w3.org/2000/svg" viewBox="0 0 16 16"><path d="m 14.33 12.28 c 5.28 -5.92 -3.05 -15 -10 -11.35 c -7 3.73 -5.17 16.1 3.48 15 c 2.57 -0.31 4.81 -1.72 6.53 -3.66"/><path d="m 7.9 12.43 v -0.4 l 1.27 -1.18 c 0.7 -0.64 1.29 -1.17 1.31 -1.17 c 0.06 0 0.8 0.71 0.82 0.77 c 0.01 0.05 -0.12 0.18 -1.8 1.74 l -0.68 0.63 h -0.91 m -2.66 -0.39 c -0.19 -0.04 -0.36 -0.14 -0.49 -0.29 c -0.16 -0.18 -0.19 -0.25 -0.21 -0.58 l -0.02 -0.27 h -0.42 l -0.41 -0.01 v -0.8 h 0.41 l 0.42 -0.01 v -0.76 l 0.01 -0.76 h -0.85 v -0.8 h 0.41 l 0.42 -0.01 v -0.76 l 0.01 -0.76 h -0.85 v -0.8 h 0.41 l 0.42 -0.01 l 0.02 -0.29 c 0.01 -0.21 0.04 -0.32 0.09 -0.42 c 0.09 -0.16 0.32 -0.36 0.44 -0.39 c 0.05 -0.01 0.09 -0.03 0.09 -0.04 c 0 -0.02 1.19 -0.03 2.73 -0.03 h 2.73 l 0.2 0.1 c 0.11 0.05 0.25 0.15 0.3 0.21 c 0.19 0.23 0.2 0.29 0.2 1.61 v 1.21 l -0.36 0.35 c -0.39 0.38 -0.45 0.42 -0.49 0.38 c -0.02 -0.02 -0.04 -0.71 -0.04 -1.54 v -1.51 h -0.36 c -0.23 -0.01 -0.37 0 -0.4 0.03 c -0.04 0.03 -0.05 0.23 -0.05 1.14 c 0 0.86 -0.01 1.1 -0.04 1.1 c -0.02 0 -0.2 -0.15 -0.41 -0.34 c -0.2 -0.18 -0.38 -0.34 -0.39 -0.34 c -0.02 0 -0.2 0.16 -0.41 0.36 c -0.21 0.19 -0.4 0.34 -0.41 0.33 c -0.02 -0.01 -0.03 -0.45 -0.03 -1.14 c 0 -0.99 -0.01 -1.12 -0.05 -1.14 c -0.03 -0.01 -0.39 -0.02 -0.8 -0.02 c -0.7 0 -0.75 0 -0.78 0.06 c -0.04 0.07 -0.05 6 -0.01 6.11 c 0.02 0.04 0.08 0.05 0.37 0.05 c 0.2 0 0.38 0.01 0.41 0.02 c 0.08 0.03 0.08 0.77 0 0.8 c -0.08 0.03 -1.65 0.02 -1.79 -0.02 m 0.13 -1.55 v -0.35 h -0.4 l -0.4 -0.01 v 0.74 h 0.4 h 0.4 m 0 -2.7 v -0.35 h -0.4 l -0.4 -0.01 v 0.74 h 0.4 h 0.4 m 0 -2.7 v -0.35 h -0.4 l -0.4 -0.01 v 0.74 h 0.4 h 0.4 m 5.78 3.3 c -0.22 -0.21 -0.4 -0.39 -0.4 -0.41 c 0 -0.02 0.1 -0.13 0.23 -0.25 c 0.3 -0.29 0.35 -0.29 0.66 0 c 0.38 0.34 0.42 0.38 0.42 0.51 c 0 0.1 -0.03 0.14 -0.22 0.32 c -0.12 0.12 -0.23 0.21 -0.25 0.21 c -0.02 0 -0.21 -0.17 -0.43 -0.38" style="fill:#fff"/></svg>