<svg xmlns="http://www.w3.org/2000/svg" xmlns:xlink="http://www.w3.org/1999/xlink" viewBox="0 0 16 16"><defs><g id="7" style="clip-path:url(#6)"><path d="m 10.78 5.13 l -1.57 0.48 l 0.07 2.64 l 1 -0.02" style="fill:url(#0);fill-rule:evenodd"/><path d="m 9.73 10.33 l 1.18 0.31 l -0.07 -2.8" style="fill:url(#1);fill-rule:evenodd"/><path d="m 8.18 12.46 l 1.59 -1.04 l 1.08 -3.48 l 0.07 2.68 l 1.23 -0.77 l -0.1 -4 l -1.26 -0.73 l -1.1 2.84 l -0.09 -3.57 l -1.64 -0.96" style="fill:url(#2);fill-rule:evenodd"/><path d="m 5.2 5.25 l 1.59 0.41 l 0.07 2.64 l -1 0.02" style="fill:url(#3);fill-rule:evenodd"/><path d="m 6.51 10.4 l -1.16 0.36 l -0.07 -2.8" style="fill:url(#4);fill-rule:evenodd"/><path d="m 8.18 12.46 l -1.64 -0.96 l -1.26 -3.43 l 0.07 2.68 l -1.27 -0.72 l -0.1 -4 l 1.22 -0.79 l 1.24 2.79 l -0.09 -3.57 l 1.59 -1.04" style="fill:url(#5);fill-rule:evenodd"/></g><clipPath id="6"><path d="M 0,0 H16 V16 H0 z"/></clipPath><linearGradient id="5" gradientUnits="userSpaceOnUse" y1="107.1" x2="0" y2="-102.9" gradientTransform="matrix(0.04 0 0 0.037 8.73 8)" xlink:href="#0"/><linearGradient id="4" gradientUnits="userSpaceOnUse" y1="72.1" x2="0" y2="2.13" gradientTransform="matrix(0.04 0 0 0.037 8.73 8)" xlink:href="#2"/><linearGradient id="3" gradientUnits="userSpaceOnUse" x1="-69.96" y1="-2.77" x2="-69.2" y2="-71.8" gradientTransform="matrix(0.04 0 0 0.037 8.73 8)" xlink:href="#1"/><linearGradient id="2" gradientUnits="userSpaceOnUse" y1="87.1" x2="0" y2="-92.9" gradientTransform="matrix(0.04 0 0 0.037 8.73 8)"><stop style="stop-color:#014b79"/><stop offset="1" style="stop-color:#039dff"/></linearGradient><linearGradient id="1" gradientUnits="userSpaceOnUse" y1="67.1" x2="0" y2="-2.88" gradientTransform="matrix(0.04 0 0 0.037 8.73 8)"><stop style="stop-color:#d73b37"/><stop offset="1" style="stop-color:#f37270"/></linearGradient><linearGradient id="0" gradientUnits="userSpaceOnUse" x1="28.38" y1="-10.24" x2="39.55" y2="-76.2" gradientTransform="matrix(0.04 0 0 0.037 8.73 8)"><stop style="stop-color:#62973e"/><stop offset="1" style="stop-color:#a6ff69"/></linearGradient></defs><path d="m 4.16 1.89 c 3.69 -3.66 7.11 -0.98 9.91 1.93 c 2.28 2.37 2.39 4.56 0.87 6.89 c -3.95 6.08 -9.1 8.33 -14.45 -1.09 c -1.32 -3.11 1.47 -6 3.66 -7.72" style="fill:#e3ecee"/><use xlink:href="#7"/></svg>