<svg xmlns="http://www.w3.org/2000/svg" viewBox="0 0 16 16"><path d="m 13.18 12.95 c -6.47 8.41 -18.2 -2.92 -10.69 -10.36 c 6.43 -7.45 18.89 3.2 10.69 10.36" style="fill:#2c2c2c"/><path d="m 6.36 11.93 c -0.5 -0.02 -0.99 0.07 -1.44 -0.15 c -0.58 -0.28 -1.02 -0.79 -1.23 -1.39 l -0.11 -0.31 l 0.01 -2.33 l 0.01 -2.34 l 0.19 -0.38 c 0.34 -0.7 1 -1.2 1.7 -1.31 c 0.17 -0.03 1.16 -0.04 2.47 -0.03 c 2.17 0.02 2.18 0.02 2.45 0.13 c 0.57 0.22 1 0.61 1.29 1.15 c 0.13 0.24 0.15 0.33 0.18 0.79 c 0.04 0.66 0.05 3.47 0 4.14 c -0.03 0.44 -0.05 0.54 -0.18 0.81 c -0.2 0.4 -0.64 0.85 -1.05 1.05 c -0.25 0.12 -0.36 0.15 -0.67 0.16 c -0.74 0.03 -2.47 0.04 -3.62 0.02 m 3.95 -0.85 c 0.45 -0.27 0.66 -0.56 0.87 -0.98 v -4.51 l -0.15 -0.3 c -0.26 -0.45 -0.54 -0.64 -0.95 -0.85 h -4.66 l -0.25 0.14 c -0.42 0.27 -0.6 0.53 -0.82 0.92 v 4.65 c 0.2 0.36 0.48 0.74 0.77 0.89 c 0.32 0.18 0.61 0.2 2.88 0.19 h 2" style="fill:#1780c8"/><path d="m 9.18 9.99 c -0.03 -0.06 -0.32 -0.7 -0.63 -1.42 c -0.66 -1.5 -0.75 -1.68 -0.8 -1.63 c -0.02 0.02 -0.32 0.59 -0.68 1.27 l -0.64 1.23 l -0.2 -0.21 c -0.11 -0.11 -0.36 -0.38 -0.55 -0.59 l -0.35 -0.38 l -0.18 0.29 c -0.1 0.16 -0.2 0.29 -0.23 0.29 c -0.08 0 -0.34 -0.18 -0.34 -0.23 c 0 -0.04 0.43 -0.83 0.59 -1.07 c 0.06 -0.09 0.01 -0.14 0.8 0.7 c 0.16 0.17 0.31 0.31 0.33 0.31 c 0.02 0 0.35 -0.62 0.75 -1.37 c 0.39 -0.75 0.73 -1.38 0.76 -1.38 c 0.05 0 0.12 0.15 0.89 1.91 c 0.28 0.63 0.52 1.16 0.55 1.16 c 0.02 0.01 0.22 -0.38 0.44 -0.85 c 0.22 -0.48 0.41 -0.89 0.43 -0.92 c 0.04 -0.05 0.29 0.3 0.63 0.88 l 0.16 0.27 c -0.12 0.07 -0.24 0.15 -0.36 0.23 l -0.16 -0.19 c -0.2 -0.22 -0.13 -0.31 -0.6 0.75 c -0.42 0.93 -0.49 1.08 -0.53 1.08 c -0.02 0 -0.05 -0.05 -0.08 -0.12" style="fill:#0dc322"/></svg>