<svg xmlns="http://www.w3.org/2000/svg" viewBox="0 0 16 16"><path d="m 0.39 6.29 c 4.91 -14.87 24.49 1.09 10.66 8.65 c -5.41 3.24 -13.2 -1 -10.66 -8.65" style="fill:#f4f4f4"/><path d="m 12.73 8.39 c 0 2.72 -2.29 4.93 -5.1 4.93 c -2.82 0 -5.1 -2.2 -5.1 -4.93 c 0 -2.72 2.28 -4.92 5.1 -4.92 c 2.82 0 5.1 2.2 5.1 4.92" style="fill:#cccdcd"/><path d="m 8.32 13.1 c -0.05 -0.05 -0.18 -0.22 -0.29 -0.39 c -0.17 -0.25 -0.22 -0.3 -0.37 -0.34 c -0.09 -0.03 -0.25 -0.08 -0.34 -0.12 c -0.09 -0.04 -0.19 -0.08 -0.22 -0.08 c -0.08 0 -0.65 -0.19 -0.95 -0.32 l -0.29 -0.13 l -0.27 0.09 c -0.15 0.05 -0.34 0.13 -0.42 0.17 c -0.2 0.11 -0.49 0.19 -0.67 0.19 c -0.13 0 -0.19 -0.04 -0.48 -0.31 c -0.41 -0.39 -0.64 -0.71 -0.87 -1.17 c -0.17 -0.34 -0.18 -0.38 -0.18 -0.71 c 0 -0.32 0.02 -0.38 0.17 -0.69 c 0.1 -0.2 0.16 -0.39 0.16 -0.47 c 0 -0.08 -0.02 -0.55 -0.03 -1.05 l -0.03 -0.9 l -0.13 -0.1 c -0.16 -0.13 -0.16 -0.24 0.03 -0.59 c 0.46 -0.89 1.16 -1.62 1.99 -2.07 c 0.4 -0.22 0.52 -0.25 0.55 -0.14 c 0.02 0.05 0 0.13 -0.03 0.2 c -0.07 0.14 -0.22 0.91 -0.19 0.99 c 0.01 0.03 0.11 0.08 0.23 0.11 c 0.11 0.03 0.42 0.14 0.68 0.25 c 0.27 0.11 0.5 0.2 0.53 0.2 c 0.06 0 1.81 -0.55 1.89 -0.6 c 0.06 -0.04 0.25 -0.61 0.25 -0.77 c 0 -0.13 -0.29 -0.35 -0.69 -0.54 c -0.36 -0.16 -0.44 -0.23 -0.35 -0.29 c 0.1 -0.06 0.84 0.07 1.34 0.23 c 0.35 0.11 1.01 0.44 1.11 0.55 c 0.04 0.04 0.05 0.09 0.04 0.12 c -0.03 0.05 -0.05 0.05 -0.71 -0.02 c -0.3 -0.04 -0.29 -0.05 -0.43 0.46 c -0.07 0.27 -0.09 0.35 -0.05 0.43 c 0.03 0.05 0.32 0.41 0.64 0.8 c 0.54 0.64 0.61 0.71 0.76 0.74 c 0.09 0.02 0.36 0.09 0.6 0.16 c 0.24 0.07 0.45 0.11 0.46 0.09 c 0.05 -0.05 0.16 -0.46 0.16 -0.59 c 0 -0.16 0.09 -0.32 0.16 -0.31 c 0.09 0.02 0.18 0.21 0.31 0.62 c 0.14 0.44 0.18 0.64 0.24 1.24 c 0.04 0.45 0.04 0.58 -0.02 1.05 c -0.09 0.68 -0.13 0.83 -0.26 0.89 c -0.05 0.03 -0.19 0.19 -0.3 0.35 c -0.12 0.17 -0.29 0.39 -0.38 0.49 c -0.22 0.24 -0.25 0.3 -0.28 0.61 c -0.04 0.34 -0.08 0.43 -0.27 0.62 c -0.46 0.47 -1.31 0.9 -2.13 1.08 c -0.46 0.11 -0.6 0.1 -0.71 -0.01 m -0.08 -1.46 c 0.19 -0.16 0.53 -0.45 0.77 -0.64 l 0.43 -0.34 l -0.03 -0.31 c -0.03 -0.37 -0.2 -1.14 -0.28 -1.26 c -0.04 -0.05 -0.36 -0.18 -0.99 -0.39 c -0.52 -0.18 -0.97 -0.33 -1 -0.34 c -0.05 -0.02 -0.26 0.14 -0.8 0.61 c -0.41 0.35 -0.73 0.66 -0.73 0.68 c 0 0.23 0.34 1.52 0.44 1.67 c 0.07 0.11 0.67 0.35 1.19 0.49 c 0.22 0.05 0.4 0.11 0.41 0.12 c 0.01 0.01 0.07 0.02 0.14 0.02 c 0.09 0 0.2 -0.07 0.46 -0.29 m 3.11 -1.2 c 0.24 -0.28 0.41 -0.52 0.55 -0.77 c 0.09 -0.16 0.11 -0.26 0.14 -0.68 c 0.03 -0.5 0.02 -0.63 -0.15 -1.19 c -0.09 -0.28 -0.09 -0.29 -0.46 -0.39 c -0.19 -0.05 -0.79 -0.21 -0.81 -0.21 c -0.01 0 -0.16 0.21 -0.32 0.47 c -0.17 0.26 -0.42 0.64 -0.55 0.83 c -0.18 0.25 -0.24 0.39 -0.22 0.45 c 0.01 0.05 0.06 0.24 0.11 0.43 c 0.05 0.18 0.12 0.52 0.16 0.75 l 0.07 0.41 l 0.36 0.07 c 0.2 0.04 0.48 0.07 0.64 0.07 h 0.28 m -5.1 -2 c 0.37 -0.32 0.68 -0.61 0.7 -0.63 c 0.04 -0.05 0.02 -1.83 -0.01 -1.91 c -0.04 -0.09 -1.29 -0.59 -1.49 -0.59 c -0.16 0 -1.19 0.84 -1.45 1.19 l -0.12 0.16 v 0.69 c 0 0.38 0.02 0.77 0.03 0.87 c 0.02 0.17 0.04 0.19 0.26 0.3 c 0.29 0.15 1.2 0.5 1.32 0.5 c 0.06 0 0.31 -0.18 0.76 -0.58" style="fill:#464c4e"/></svg>