<svg xmlns="http://www.w3.org/2000/svg" viewBox="0 0 16 16"><path d="m 12.49 2.37 c 14.24 16.55 -20.25 18.9 -10.77 2 c 2.16 -3.85 6.99 -6.39 10.77 -2" style="fill:#ff8c00"/><path d="m 7.2 12.74 c -0.01 -0.02 -0.02 -1.39 -0.02 -3.04 c 0 -1.65 -0.01 -3.08 -0.03 -3.17 c -0.02 -0.16 -0.03 -0.13 -0.07 0.27 c -0.03 0.25 -0.07 0.66 -0.09 0.93 c -0.1 1.2 -0.32 2.03 -0.74 2.84 c -0.27 0.52 -0.59 0.95 -1.01 1.37 c -0.36 0.35 -0.94 0.79 -1.05 0.79 c -0.05 0 -0.18 -0.18 -0.43 -0.62 c -0.2 -0.34 -0.36 -0.63 -0.36 -0.66 c 0 -0.02 0.12 -0.13 0.25 -0.24 c 1.4 -1.09 2.2 -3.16 2.34 -6 l 0.03 -0.58 h 3.91 l 0.03 0.58 c 0.14 2.86 0.95 4.95 2.34 6 c 0.14 0.11 0.25 0.22 0.25 0.24 c 0 0.02 -0.16 0.32 -0.36 0.66 c -0.25 0.43 -0.38 0.62 -0.43 0.62 c -0.11 0 -0.69 -0.44 -1.05 -0.79 c -0.42 -0.41 -0.75 -0.85 -1.01 -1.37 c -0.46 -0.89 -0.66 -1.72 -0.78 -3.28 c -0.02 -0.3 -0.05 -0.62 -0.07 -0.72 l -0.03 -0.18 l -0.03 0.18 c -0.02 0.09 -0.03 1.51 -0.03 3.15 c 0 1.64 -0.01 2.99 -0.02 3 c -0.03 0.05 -1.5 0.05 -1.54 0" style="fill:#f9cd9c"/><g style="fill:#f9731e"><path d="m 4.09 12.21 c -0.26 -0.42 -0.39 -0.65 -0.36 -0.67 c 0.02 -0.01 0.12 -0.09 0.23 -0.19 c 0.33 -0.27 0.59 -0.56 0.87 -0.99 l 0.13 -0.2 h 1.11 l -0.07 0.2 c -0.21 0.57 -0.5 1.03 -0.91 1.44 c -0.22 0.23 -0.71 0.61 -0.81 0.64 c -0.01 0.01 -0.09 -0.1 -0.18 -0.23"/><path d="m 7.45 12.5 c -0.04 -0.01 -0.04 -0.37 -0.02 -1.27 l 0.02 -0.57 h 0.99 l 0.02 0.52 c 0.01 0.29 0.02 0.7 0.02 0.91 c 0 0.34 0 0.4 -0.04 0.41 c -0.05 0.02 -0.94 0.01 -0.99 0"/><path d="m 11.49 12.27 c -0.6 -0.38 -1.09 -0.89 -1.39 -1.44 c -0.11 -0.2 -0.27 -0.58 -0.27 -0.63 c 0 -0.03 0.1 -0.04 0.57 -0.04 h 0.57 l 0.18 0.26 c 0.3 0.43 0.51 0.64 1.04 1.04 c 0.07 0.05 0.07 0.05 0.02 0.14 c -0.09 0.16 -0.51 0.77 -0.53 0.77 c -0.01 0 -0.1 -0.05 -0.19 -0.11"/></g></svg>