<svg xmlns="http://www.w3.org/2000/svg" viewBox="0 0 16 16"><path d="m 2.41 3 c -9.98 14.19 15.98 18.71 13.41 3.63 c -1.36 -5.99 -9.41 -9.31 -13.41 -3.63" style="fill:#2e3436"/><path d="m 13.1 8.43 c 0 2.77 -2.24 5 -5 5 c -2.76 0 -5 -2.25 -5 -5 c 0 -2.77 2.24 -5 5 -5 c 2.77 0 5 2.25 5 5" style="fill:#1970d6"/><path d="m 7.25 13.43 c -1.72 -0.29 -3.21 -1.49 -3.85 -3.11 c -0.13 -0.4 -0.55 -1.84 -0.29 -2 c 0.14 -0.09 0.59 -0.16 1.16 -0.19 c 0.5 -0.02 0.54 -0.03 0.86 -0.16 c 1.09 -0.46 1.88 -1.18 2.34 -2.16 c 0.19 -0.29 0.16 -0.56 0.16 -0.9 c 0 -0.75 0.11 -1.35 0.27 -1.43 c 0.1 -0.05 0.88 0.02 1.3 0.11 c 1.68 0.39 3.07 1.68 3.62 3.34 c 0.15 0.46 0.21 0.77 0.23 1.29 c 0.02 0.48 0.02 0.49 -0.06 0.53 c -0.17 0.09 -0.79 0.19 -1.19 0.19 c -0.36 0 -0.43 0.01 -0.69 0.11 c -0.91 0.36 -1.69 0.95 -2.14 1.63 c -0.33 0.46 -0.53 1.01 -0.54 1.51 c -0.01 0.5 -0.07 1 -0.16 1.21 c -0.25 0.2 -0.61 0.11 -1.02 0.05" style="fill:#fff"/></svg>