<svg xmlns="http://www.w3.org/2000/svg" viewBox="0 0 16 16"><path d="m 0.67 9.48 c 1.59 10.67 17.98 7 14.88 -3.3 c -2.08 -9.81 -18.85 -7.16 -14.88 3.3" style="fill:#211e1f"/><g style="fill:#fff"><path d="m 4.79 4.15 h 1.36 v 1.35 h -1.36"/><path d="m 6.36 4.17 h 1.36 v 1.35 h -1.36"/><path d="m 8 4.13 h 1.36 v 1.35 h -1.36"/><path d="m 9.59 4.15 h 1.35 v 1.36 h -1.35"/><path d="m 9.62 5.81 h 1.35 v 1.35 h -1.35"/><path d="m 9.62 7.45 h 1.35 v 1.35 h -1.35"/><path d="m 9.64 9 h 1.36 v 1.35 h -1.36"/><path d="m 9.62 10.71 h 1.35 v 1.36 h -1.35"/><path d="m 4.79 10.69 h 1.36 v 1.35 h -1.36"/></g><path d="m 4.77 9 h 1.35 v 1.35 h -1.35" style="fill:#e54203"/><g style="fill:#fff"><path d="m 4.74 7.41 h 1.35 v 1.35 h -1.35"/><path d="m 4.74 5.79 h 1.35 v 1.35 h -1.35"/></g><path d="m 6.38 9 h 1.35 v 1.35 h -1.35" style="fill:#23e03e"/><path d="m 8 9 h 1.35 v 1.35 h -1.35" style="fill:#2f2de6"/><path d="m 5.7 9 h 0.42 v 1.35 h -0.42" style="fill:#ffd600"/><path d="m 8.96 9 h 0.42 v 1.35 h -0.42" style="fill:#9370db"/><path d="m 7.28 9 h 0.44 v 1.35 h -0.44" style="fill:#00ced0"/></svg>