<svg xmlns="http://www.w3.org/2000/svg" viewBox="0 0 16 16"><path d="m 14.77 11.37 c 4.61 -6.39 -4.72 -14.44 -11.26 -10.1 c -6.61 4.43 -3.36 16.34 5.15 14.36 c 2.54 -0.59 4.6 -2.22 6.11 -4.31" style="fill:#260022"/><path d="m 3.65 13 c -0.13 -0.06 -0.52 -0.58 -0.66 -0.87 c -0.21 -0.61 -0.45 -1.46 -0.18 -1.88 c 0.1 -0.15 0.36 -0.45 0.58 -0.67 c 0.46 -0.47 0.97 -1.22 0.95 -1.39 c -0.03 -0.24 -0.28 -0.44 -0.84 -0.65 c -0.68 -0.26 -0.73 -0.33 -0.7 -0.9 c 0.03 -0.53 0.13 -1.21 0.2 -1.4 c 0.07 -0.18 0.45 -0.49 0.76 -0.62 c 0.56 -0.23 1.32 0.2 1.67 0.93 c 0.07 0.14 0.13 0.24 0.13 0.23 c 0.01 -0.01 0.04 -0.18 0.06 -0.38 c 0.09 -0.67 0.39 -1.19 0.82 -1.48 c 0.46 -0.31 0.98 -0.44 1.65 -0.2 c 0.51 0.18 0.84 0.49 1.15 1.22 c 0.09 0.2 0.16 0.36 0.17 0.36 c 0.01 0 0.05 -0.15 0.1 -0.32 c 0.1 -0.41 0.37 -0.79 0.73 -1 c 0.36 -0.22 0.54 -0.24 0.93 -0.11 c 0.57 0.2 0.73 0.42 1.06 1.52 c 0.17 0.56 0.17 0.58 0.1 0.75 c -0.06 0.12 -0.21 0.25 -0.55 0.46 c -0.42 0.26 -0.48 0.32 -0.56 0.53 c -0.05 0.14 -0.07 0.28 -0.04 0.36 c 0.07 0.18 0.76 0.79 1.23 1.09 c 0.22 0.14 0.5 0.35 0.63 0.46 c 0.4 0.49 0.32 1.16 0.39 1.78 l -0.22 0.5 c -0.12 0.27 -0.25 0.53 -0.29 0.57 c -0.11 0.11 -0.29 0.11 -0.72 0 c -0.96 -0.24 -0.96 -0.82 -0.01 -1.62 c 0.16 -0.13 0.29 -0.26 0.28 -0.28 c 0 -0.03 -0.11 -0.05 -0.24 -0.05 c -0.43 -0.01 -0.56 -0.24 -0.42 -0.7 c 0.05 -0.18 0.09 -0.33 0.08 -0.34 c -0.01 -0.01 -0.12 0.06 -0.25 0.15 l -0.23 0.16 l -0.21 -0.2 c -0.39 -0.38 -0.54 -0.54 -0.73 -0.83 c -0.12 -0.18 -0.2 -0.26 -0.21 -0.21 c -0.15 0.63 -0.19 0.71 -0.41 0.94 c -0.13 0.14 -0.32 0.41 -0.42 0.62 c -0.26 0.53 -0.48 0.79 -0.8 0.95 c -0.38 0.19 -0.78 0.23 -1.21 0.11 c -0.41 -0.11 -0.5 -0.18 -0.86 -0.64 c -0.15 -0.19 -0.43 -0.46 -0.64 -0.61 c -0.35 -0.25 -0.38 -0.3 -0.48 -0.59 c -0.11 -0.34 -0.17 -0.39 -0.2 -0.16 c -0.02 0.16 -0.35 0.82 -0.59 1.18 l -0.16 0.24 l -0.22 -0.09 c -0.12 -0.05 -0.23 -0.07 -0.25 -0.05 c -0.02 0.02 0.02 0.13 0.08 0.24 c 0.13 0.23 0.16 0.43 0.09 0.57 c -0.05 0.11 -0.33 0.25 -0.59 0.28 c -0.14 0.02 -0.12 0.04 0.27 0.23 c 0.55 0.27 0.8 0.46 0.87 0.68 c 0.07 0.23 0.01 0.67 -0.12 0.85 c -0.15 0.19 -0.78 0.4 -0.95 0.31 m 0.29 -2.63 c -0.02 -0.13 -0.04 -0.16 -0.16 -0.14 c -0.07 0.01 -0.14 0.05 -0.16 0.1 c -0.03 0.11 0 0.23 0.23 0.21 c 0.08 -0.01 0.1 -0.05 0.09 -0.17 m 8.37 -0.86 c 0.08 -0.11 -0.01 -0.25 -0.16 -0.23 c -0.12 0.02 -0.18 0.14 -0.12 0.27 c 0.04 0.09 0.21 0.06 0.27 -0.04 m -6.32 -2.21 c -0.02 -0.11 -0.03 -0.26 -0.04 -0.34 c -0.01 -0.09 -0.23 -0.83 -0.3 -0.89 c -0.14 -0.11 0.05 0.65 -0.09 1.04 c 0.01 0.22 0.06 0.15 0.18 0.29 c 0.16 0.18 0.27 0.14 0.24 -0.1 m 3.8 -0.53 c 0.06 -0.09 -0.27 -1.25 -0.3 -1.18 c -0.1 0.25 -0.18 0.72 -0.16 1.2 c 0.03 0.27 0.05 0.33 0.12 0.32 c 0.05 0 0.31 -0.3 0.34 -0.34" style="fill:#78afde"/><g style="fill:#260022"><path d="m 7.1 8.79 c -0.43 -0.08 -0.65 -0.21 -0.9 -0.5 c -0.09 -0.11 -0.29 -0.31 -0.45 -0.45 c -0.15 -0.14 -0.27 -0.26 -0.26 -0.27 c 0.02 -0.03 0.2 0.04 0.35 0.13 c 0.07 0.05 0.28 0.22 0.45 0.38 c 0.39 0.37 0.48 0.43 0.82 0.57 c 0.15 0.06 0.82 0.16 0.83 0.18 c 0 0.06 -0.55 0.03 -0.84 -0.03"/><path d="m 7.81 8.85 c -0.03 -0.04 0.49 -0.23 0.67 -0.35 c 0.23 -0.14 0.38 -0.31 0.62 -0.66 c 0.28 -0.41 0.45 -0.61 0.6 -0.69 c 0.07 -0.04 0.13 -0.06 0.14 -0.05 c 0.01 0.01 -0.07 0.12 -0.16 0.26 c -0.1 0.14 -0.25 0.38 -0.34 0.54 c -0.24 0.43 -0.37 0.56 -0.8 0.76 c -0.29 0.13 -0.7 0.23 -0.72 0.2"/><path d="m 8.94 6.91 c 0.08 0.7 -0.43 1.32 -1.13 1.4 c -0.7 0.08 -1.33 -0.42 -1.41 -1.11 c -0.08 -0.7 0.43 -1.32 1.13 -1.4 c 0.7 -0.08 1.33 0.42 1.41 1.11"/></g><path d="m 8.36 7 c 0.04 0.38 -0.23 0.71 -0.61 0.75 c -0.38 0.04 -0.71 -0.23 -0.76 -0.6 c -0.04 -0.38 0.23 -0.71 0.61 -0.76 c 0.38 -0.04 0.71 0.23 0.76 0.6" style="fill:#b0dede"/><g style="fill:#4c529c"><path d="m 3.16 6.74 c 0.14 -0.07 0.11 -0.17 0.33 -0.03 c 0.15 0.1 0.33 0.24 0.66 0.34 c 0.27 0.08 0.01 0.27 -0.23 0.22 c -0.16 -0.03 -0.51 -0.14 -0.72 -0.23 c -0.24 -0.1 -0.1 -0.17 -0.11 -0.22 c 0.02 -0.06 0.03 -0.07 0.07 -0.09"/><path d="m 12 5.86 c -0.15 -0.04 -0.14 -0.14 -0.33 0.04 c -0.13 0.13 -0.27 0.31 -0.57 0.48 c -0.24 0.14 0.05 0.26 0.27 0.17 c 0.14 -0.06 0.46 -0.26 0.65 -0.38 c 0.22 -0.15 0.06 -0.18 0.06 -0.24 c -0.03 -0.05 -0.04 -0.05 -0.09 -0.07"/></g><g style="fill:#d2ffde"><path d="m 6.36 4.53 c 0.19 -0.35 0.59 -0.62 0.95 -0.66 c 0.36 -0.04 0.8 0.14 1.07 0.43 l 0.16 0.18 c -1.06 -0.16 -1.29 0.03 -2.3 0.26"/><path d="m 7.37 9.9 c 0.18 0.3 0.46 0.5 0.68 0.47 c 0.23 -0.02 0.46 -0.28 0.57 -0.62 l 0.07 -0.21 c -0.61 0.34 -0.72 0.44 -1.43 0.16"/><path d="m 3.35 5.39 c 0.13 -0.27 0.38 -0.49 0.63 -0.52 c 0.24 -0.03 0.54 0.12 0.72 0.36 l 0.12 0.15 c -0.71 -0.14 -0.87 0 -1.54 0.18"/><path d="m 10.1 4.54 c 0.13 -0.27 0.38 -0.48 0.63 -0.51 c 0.24 -0.03 0.54 0.12 0.72 0.36 l 0.11 0.15 c -0.71 -0.14 -0.86 0 -1.54 0.17"/></g><path d="m 6.32 9.12 c 0.39 0.28 1.06 0.43 1.62 0.37 c 0.56 -0.06 1.18 -0.36 1.5 -0.72 l 0.2 -0.23 c -1.72 0.89 -1.96 0.73 -3.56 0.4" style="fill:#4c529c"/><g style="fill:#4b4c95"><path d="m 8.82 4.65 c 0.26 0.21 0.39 0.48 0.31 0.66 c -0.07 0.17 -0.38 0.32 -0.73 0.3 l -0.43 -0.02 c 0.47 -0.4 0.58 -0.55 0.69 -1.08"/><path d="m 6 5 c -0.2 0.27 -0.27 0.56 -0.16 0.71 c 0.11 0.15 0.45 0.25 0.78 0.13 l 0.36 -0.13 c -0.55 -0.29 -0.64 -0.39 -0.86 -0.88"/><path d="m 5.09 5.73 c 0.25 0.21 0.38 0.48 0.3 0.66 c -0.07 0.17 -0.38 0.32 -0.73 0.3 l -0.43 -0.02 c 0.47 -0.4 0.58 -0.55 0.69 -1.07"/><path d="m 9.88 5 c -0.2 0.27 -0.27 0.56 -0.15 0.71 c 0.11 0.15 0.44 0.22 0.78 0.13 l 0.41 -0.11 c -0.55 -0.29 -0.69 -0.4 -0.91 -0.89"/></g></svg>