<svg xmlns="http://www.w3.org/2000/svg" viewBox="0 0 16 16"><path d="m 0.92 5.09 c -5.95 19.34 26 9.67 11.1 -3.58 c -2.99 -2.66 -9.46 -1.64 -11.1 3.58" style="fill:#e7e7fd"/><path d="m 5.15 11.84 c -0.52 -0.24 -0.8 -0.56 -0.93 -1.05 c -0.22 -0.86 0.47 -1.82 1.93 -2.71 l 0.28 -0.17 c 0.04 -0.38 0.02 -0.76 0.08 -1.13 c 0.03 -0.19 -0.06 -0.25 -0.44 -0.31 c -0.64 -0.1 -0.93 -0.33 -0.87 -0.68 c 0.05 -0.3 0.35 -0.42 0.68 -0.28 c 0.21 0.09 0.57 0.13 0.64 0.08 c 0.04 -0.03 0.08 -0.21 0.11 -0.55 c 0.05 -0.59 0.1 -0.74 0.27 -0.83 c 0.21 -0.11 0.36 -0.09 0.52 0.07 c 0.22 0.16 0.13 0.4 0.11 0.65 c -0.04 0.61 -0.04 0.6 0.46 0.49 c 0.37 -0.08 0.51 -0.06 0.64 0.09 c 0.12 0.13 0.14 0.29 0.07 0.47 c -0.38 0.44 -0.71 0.25 -1.22 0.49 c -0.07 0.05 -0.13 0.87 -0.07 0.93 c 0.03 0.03 0.23 -0.02 0.55 -0.13 c 0.67 -0.19 1.31 -0.32 1.9 -0.05 c 0.52 0.24 0.91 0.72 1.09 1.32 c 0.11 0.38 0.11 1.15 0 1.56 c -0.14 0.51 -0.39 0.95 -0.77 1.35 c -0.39 0.41 -0.58 0.51 -0.81 0.42 c -0.18 -0.08 -0.27 -0.21 -0.27 -0.42 c 0 -0.14 0.05 -0.21 0.33 -0.5 c 0.54 -0.56 0.8 -1.24 0.7 -1.91 c -0.1 -0.7 -0.48 -1.08 -1.09 -1.08 c -0.31 0 -0.94 0.19 -1.43 0.43 c -0.35 0.17 -0.31 0.08 -0.45 1.12 c -0.22 1.69 -0.68 2.45 -1.5 2.45 c -0.19 -0.01 -0.38 -0.05 -0.52 -0.11 m 0.69 -0.89 c 0.14 -0.18 0.27 -0.57 0.38 -1.16 c 0.15 -0.77 0.07 -0.8 -0.54 -0.25 c -0.68 0.63 -0.77 1.13 -0.25 1.45 c 0.2 0.12 0.29 0.11 0.4 -0.03 m 4.7 -4.21 c -0.09 -0.07 -0.13 -0.17 -0.15 -0.31 c -0.04 -0.31 -0.15 -0.43 -0.63 -0.68 c -0.35 -0.18 -0.44 -0.25 -0.49 -0.38 c -0.08 -0.19 -0.05 -0.35 0.09 -0.48 c 0.2 -0.18 0.34 -0.17 0.8 0.06 c 0.78 0.39 1.09 0.78 1.09 1.37 c 0 0.25 -0.02 0.31 -0.11 0.41 c -0.15 0.15 -0.44 0.16 -0.61 0.01" style="fill:#6462ff"/></svg>