<svg xmlns="http://www.w3.org/2000/svg" viewBox="0 0 16 16"><path d="m 13.2 2.36 c 12.61 16.61 -22.1 18.96 -10.96 2 c 2.54 -3.86 7.62 -6.41 10.96 -2" style="fill:#1693d0"/><path d="m 3 12.18 c 0 -0.02 0.12 -0.21 0.27 -0.42 c 1.04 -1.54 1.95 -2.91 2.88 -4.4 c 0.55 -0.88 0.77 -1.2 0.81 -1.2 c 0.02 0 0.14 0.07 0.28 0.16 c 0.5 0.33 0.75 0.43 0.77 0.33 c 0 -0.03 -0.2 -0.23 -0.45 -0.46 c -0.25 -0.23 -0.45 -0.43 -0.45 -0.44 c 0.06 -0.1 0.13 -0.17 0.19 -0.27 c 0.4 -0.71 0.71 -1.32 1.16 -2.16 c 0.06 -0.06 0.17 0.09 0.21 0.3 c 0.16 0.66 1.3 3.51 2.17 5.41 c 0.25 0.55 0.45 1.02 0.45 1.05 c -0.01 0.1 -0.13 0.07 -0.51 -0.1 c -0.34 -0.15 -0.49 -0.13 -0.5 -0.07 c -0.01 0.07 0.43 0.29 0.84 0.57 c 0.61 0.41 0.63 0.53 0.93 1.18 c 0.29 0.63 0.28 0.66 -0.15 0.4 c -0.65 -0.38 -1.41 -0.73 -2.38 -1.09 c -0.35 -0.13 -0.65 -0.25 -0.66 -0.27 c 0.18 -0.72 0.06 -1.51 -0.32 -1.98 c -0.32 -0.32 -0.74 -0.35 -1.05 -0.03 c -0.63 0.61 -0.7 1.13 -0.79 1.94 l -0.01 0.11 l -0.48 0.15 c -0.95 0.29 -2.27 0.84 -2.91 1.2 c -0.2 0.11 -0.3 0.14 -0.29 0.07 m 7.73 -1.61 c -0.59 -0.41 -0.95 -0.72 -0.95 -0.81 c 0.01 -0.08 0.09 -0.15 0.18 -0.17 c 0.06 -0.02 0.23 -0.03 0.38 -0.04 c 0.34 -0.02 0.36 -0.05 0.18 -0.38 c -0.13 -0.23 -1.57 -3.72 -1.91 -4.6 c -0.1 -0.27 -0.19 -0.45 -0.21 -0.44 c -0.36 0.57 -0.55 1 -0.88 1.52 l 0.07 0.09 c 0.04 0.05 0.19 0.24 0.34 0.42 c 0.5 0.59 0.55 0.71 0.34 0.8 c -0.08 0.04 -0.14 0.04 -0.29 0.01 c -0.19 -0.04 -0.62 -0.23 -0.79 -0.35 c -0.04 -0.04 -0.11 -0.05 -0.13 -0.04 c -0.03 0.01 -0.14 0.16 -0.25 0.34 c -0.5 0.8 -1.02 1.61 -1.52 2.38 c -0.3 0.47 -0.73 1.11 -0.94 1.43 c -0.21 0.31 -0.39 0.58 -0.39 0.6 c 0.68 -0.21 1 -0.36 1.68 -0.62 c 0.27 -0.1 0.5 -0.2 0.54 -0.25 c 0.05 -0.06 0.09 -0.14 0.12 -0.32 c 0.1 -0.52 0.53 -1.34 0.86 -1.65 c 0.4 -0.31 0.87 -0.44 1.23 -0.26 c 0.38 0.2 0.55 0.4 0.75 0.91 c 0.13 0.32 0.16 0.49 0.17 0.94 c 0 0.23 0.02 0.42 0.03 0.43 c 0.02 0.01 0.2 0.09 0.41 0.16 c 0.21 0.08 0.68 0.28 1.04 0.46 c 0.44 0.21 0.94 0.46 0.88 0.38 c -0.22 -0.56 -0.71 -0.75 -0.95 -0.91"/></svg>