<svg xmlns="http://www.w3.org/2000/svg" viewBox="0 0 16 16"><path d="m 13.71 3 c 9.98 14.19 -15.98 18.71 -13.41 3.63 c 1.36 -5.99 9.41 -9.31 13.41 -3.63" style="fill:#262626"/><path d="m 13.32 8.3 c 0 2.91 -2.34 5.26 -5.22 5.26 c -2.89 0 -5.22 -2.36 -5.22 -5.26 c 0 -2.91 2.34 -5.26 5.22 -5.26 c 2.88 0 5.22 2.36 5.22 5.26" style="fill:#fbca00;fill-rule:evenodd"/><g style="fill:#262626"><path d="m 5.54 4.4 v 7.92 l 0.8 -0.7 v -6.57"/><path d="m 4.75 6.16 v 4.5 l -0.81 -0.74 v -3.06"/><path d="m 7.12 3.73 v 4.14 h 2.7 l 2.25 -1.82 l -0.48 -0.63 l -2 1.59 h -1.66 v -3.28"/><path d="m 8.67 3.84 v 2.52 h 0.71 l 1.68 -1.43 l -0.66 -0.51 l -0.93 0.73 v -1.14"/><path d="m 12.21 6.92 l -1.61 1.38 l 1.61 1.36 l 0.51 -0.64 l -0.86 -0.73 l 0.84 -0.75"/><path d="m 7.12 8.77 v 4.09 h 0.8 v -3.27 h 1.7 l 1.94 1.56 l 0.52 -0.62 l -2.22 -1.79"/><path d="m 8.69 10.37 v 2.48 l 0.8 -0.21 v -1.11 l 0.88 0.73 l 0.66 -0.51 l -1.69 -1.39"/></g></svg>