<svg xmlns="http://www.w3.org/2000/svg" viewBox="0 0 16 16"><path d="m 8 0.15 c 10.66 -1.2 10.5 15.99 -0.19 15.79 c -9.95 0.57 -10.84 -16.73 0.19 -15.79" style="fill:#ee6708"/><path d="m 3.52 4.76 h 9.16 c 0.38 0 0.68 0.3 0.68 0.68 v 4.63 c 0 0.38 -0.3 0.68 -0.68 0.68 h -9.16 c -0.38 0 -0.68 -0.3 -0.68 -0.68 v -4.63 c 0 -0.38 0.3 -0.68 0.68 -0.68" style="fill:#ff8c00"/><g style="fill:#fff"><path d="m 5 11.86 c -0.03 -0.03 -0.06 -0.54 -0.08 -1.19 l -0.03 -1.13 l -0.25 -0.24 c -0.43 -0.41 -0.54 -0.79 -0.34 -1.19 c 0.21 -0.43 0.5 -0.62 0.95 -0.62 c 0.57 0 1.02 0.42 1.02 0.96 c 0 0.38 -0.07 0.54 -0.43 0.89 c -0.36 0.34 -0.43 0.48 -0.35 0.7 c 0.03 0.09 0.1 0.23 0 0.34 c -0.16 0.18 -0.12 0.32 0.02 0.46 c 0.19 0.21 0.05 0.29 0 0.4 c -0.03 0.08 -0.05 0.23 -0.05 0.32 c 0 0.14 -0.02 0.18 -0.15 0.26 c -0.17 0.1 -0.23 0.11 -0.3 0.03 m 0.47 -3.34 c 0.13 -0.13 0.14 -0.29 0.05 -0.4 c -0.3 -0.33 -0.77 0.14 -0.47 0.39 c 0.18 0.1 0.33 0.11 0.42 0.01"/><path d="m 4.25 6.37 h 2 v 0.68 h -2"/><path d="m 7.12 6.42 h 2 v 0.68 h -2"/><path d="m 9.94 6.42 h 2 v 0.68 h -2"/><path d="m 7.86 11.8 c -0.02 -0.04 -0.06 -0.54 -0.08 -1.19 l -0.04 -1.13 l -0.25 -0.23 c -0.43 -0.41 -0.54 -0.79 -0.34 -1.2 c 0.21 -0.43 0.51 -0.61 0.95 -0.61 c 0.57 0 1.02 0.42 1.02 0.96 c 0 0.38 -0.07 0.54 -0.43 0.89 c -0.35 0.34 -0.42 0.49 -0.35 0.7 c 0.03 0.09 0.1 0.23 0 0.34 c -0.16 0.17 -0.12 0.32 0.01 0.46 c 0.2 0.21 0.05 0.29 0.01 0.4 c -0.03 0.08 -0.05 0.22 -0.05 0.32 c 0 0.14 -0.02 0.18 -0.14 0.26 c -0.18 0.11 -0.23 0.11 -0.3 0.04 m 0.47 -3.34 c 0.13 -0.13 0.13 -0.29 0.05 -0.4 c -0.3 -0.33 -0.77 0.14 -0.47 0.39 c 0.17 0.1 0.32 0.11 0.42 0.02"/><path d="m 10.65 11.89 c -0.03 -0.03 -0.06 -0.54 -0.08 -1.19 l -0.03 -1.13 l -0.25 -0.24 c -0.43 -0.4 -0.54 -0.79 -0.34 -1.19 c 0.21 -0.43 0.5 -0.61 0.95 -0.61 c 0.57 0 1.02 0.42 1.02 0.96 c 0 0.38 -0.07 0.54 -0.43 0.89 c -0.36 0.34 -0.43 0.48 -0.35 0.7 c 0.03 0.09 0.1 0.23 0 0.34 c -0.16 0.18 -0.12 0.32 0.02 0.46 c 0.19 0.22 0.05 0.29 0.01 0.41 c -0.03 0.08 -0.05 0.22 -0.05 0.32 c 0 0.14 -0.02 0.18 -0.15 0.26 c -0.17 0.11 -0.23 0.11 -0.3 0.03 m 0.47 -3.34 c 0.13 -0.13 0.14 -0.29 0.05 -0.4 c -0.3 -0.33 -0.77 0.14 -0.47 0.39 c 0.18 0.1 0.33 0.11 0.42 0.02"/></g><g style="fill:#6b5946"><path d="m 4.09 5.71 c 0 0.22 -0.17 0.4 -0.39 0.4 c -0.21 0 -0.39 -0.18 -0.39 -0.4 c 0 -0.22 0.18 -0.4 0.39 -0.4 c 0.21 0 0.39 0.18 0.39 0.4"/><path d="m 12.88 5.69 c 0 0.22 -0.18 0.4 -0.39 0.4 c -0.21 0 -0.39 -0.18 -0.39 -0.4 c 0 -0.22 0.18 -0.4 0.39 -0.4 c 0.21 0 0.39 0.18 0.39 0.4"/></g></svg>