<svg xmlns="http://www.w3.org/2000/svg" viewBox="0 0 16 16"><path d="m 5 15.25 c 19.45 6 9.72 -26.3 -3.61 -11.18 c -2.67 3 -1.64 9.56 3.61 11.18" style="fill:#85ddca"/><path d="m 62.88 1 c -4.72 0.09 -9.43 0.7 -14 1.81 c -10.14 2.51 -19.62 7.57 -27.35 14.64 c -4.24 3.9 -8.11 8.5 -11.13 13.48 c -5.19 8.36 -8.39 18.1 -9.2 27.93 c -0.28 3.86 -0.28 7.85 0.14 11.76 c 0.99 9.34 4.1 18.49 9.1 26.53 c 6.08 9.8 14.9 17.94 25.32 23.1 c 11.84 5.99 25.65 8.13 38.81 5.86 c 9.9 -1.67 19.57 -5.81 27.54 -11.94 c 12.17 -9.15 20.75 -22.82 23.72 -37.78 c 1.46 -7.39 1.6 -15.1 0.42 -22.44 c -1.32 -8.32 -4.39 -16.5 -8.91 -23.56 c -7.26 -11.48 -18.2 -20.49 -30.89 -25.33 c -4.95 -1.91 -10.14 -3.11 -15.33 -3.67 c -2.74 -0.33 -5.47 -0.46 -8.21 -0.42 m -3.49 11.15 c 1.18 0.05 1.6 1.3 1.98 2.23 c 2.03 4.28 4 8.55 5.99 12.83 c 1.74 0.14 3.44 0.42 5.09 0.84 c 3.73 -3.81 7.36 -7.67 11.13 -11.48 c 0.99 -0.7 2.07 0.14 2.92 0.65 c 2.78 1.67 5.66 3.21 8.39 4.93 c 0.9 0.88 0.19 2.14 -0.05 3.16 c -1.32 4.46 -2.59 8.92 -3.91 13.38 c 1.18 1.25 2.26 2.6 3.25 4 c 5.28 -0.42 10.56 -0.93 15.84 -1.3 c 1.13 0.09 1.51 1.3 1.74 2.18 c 0.99 3.11 2.12 6.18 3.07 9.29 c 0.09 1.16 -1.13 1.86 -2.12 1.86 c -6.89 1.49 -13.77 2.93 -20.61 4.37 c -1.23 -6.6 -4.72 -12.78 -9.95 -17 c -5.8 -4.79 -13.49 -7.16 -20.94 -6.37 c -2.36 0.19 -4.72 0.79 -6.93 1.53 c -2.31 -7.11 -4.62 -14.1 -6.84 -21.2 c -0.19 -1.16 0.99 -1.91 2.03 -1.91 c 3.3 -0.65 6.6 -1.39 9.9 -2 m -29.47 13.2 c 1.23 0.19 1.74 1.49 2.64 2.23 c 4.34 4.88 8.72 9.71 13.1 14.59 c -3.77 3.25 -6.74 7.44 -8.49 12.1 c -1.89 5.25 -2.22 11.25 -0.8 16.73 c 1.37 5.58 4.95 11.1 9.34 14.92 c 0 0 -0.47 0.37 -1.18 1.16 c -3.49 4 -7.12 7.9 -10.66 11.85 c -1.13 1.16 -2.12 2.46 -3.3 3.58 c -0.99 0.56 -2.12 -0.23 -2.64 -1.07 c -2.17 -2.51 -4.39 -4.93 -6.51 -7.48 c -0.61 -1.02 0.28 -2.04 0.9 -2.88 l 8.1 -11.57 c -0.71 -1.58 -1.32 -3.21 -1.79 -4.88 c -5.14 -1.25 -10.33 -2.46 -15.47 -3.81 c -1.08 -0.51 -0.94 -1.86 -0.9 -2.88 c 0 -3.21 -0.05 -6.46 0 -9.67 c 0.28 -1.16 1.6 -1.35 2.59 -1.53 c 4.57 -1.16 9.15 -2.28 13.77 -3.39 c 0.47 -1.63 1.08 -3.25 1.84 -4.83 c -3 -4.37 -6.13 -8.69 -9 -13.1 c -0.52 -1.12 0.52 -2 1.18 -2.74 c 2.12 -2.37 4.2 -4.83 6.37 -7.11 c 0.33 -0.19 0.71 -0.28 1.04 -0.28 m 62.5 43.77 c 7.17 1.58 14.29 3 21.41 4.6 c 0.47 0.09 0.47 0.88 1.04 0.74 c 0.33 0.23 -0.28 1.07 -0.33 1.53 c -1.13 3.35 -2.22 6.69 -3.4 9.99 c -0.61 1.02 -1.93 0.79 -2.92 0.65 c -4.72 -0.37 -9.43 -0.79 -14.1 -1.21 c -0.99 1.44 -2.07 2.79 -3.25 4 c 1.46 5.11 2.97 10.22 4.39 15.33 c 0.09 1.25 -1.23 1.77 -2.12 2.28 c -2.78 1.58 -5.56 3.25 -8.39 4.74 c -1.23 0.33 -1.98 -0.88 -2.69 -1.63 c -3.25 -3.35 -6.46 -6.69 -9.67 -10.1 c -1.7 0.42 -3.4 0.7 -5.14 0.84 c -2.26 4.79 -4.48 9.62 -6.79 14.36 c -0.71 0.98 -2.03 0.56 -3 0.33 c -3.11 -0.65 -6.27 -1.16 -9.38 -1.95 c -0.99 -0.51 -0.94 -1.86 -0.47 -2.74 c 2.17 -6.69 4.34 -13.34 6.51 -20 c 6.13 2.23 13 2.32 19.1 0.14 c 7.4 -2.56 13.68 -8.23 16.74 -15.43 c 0.94 -2.09 1.6 -4.28 2.03 -6.55 c 0.14 0.05 0.33 0.09 0.47 0.14" transform="matrix(0.083 0 0 0.084 2.79 2.9)" style="fill:#0078c1;stroke:#7fcfff"/><path d="m 10.8 8.79 c 1.32 0 2.39 1.06 2.39 2.38 v 0.1 c 0 1.31 -1.07 2.38 -2.39 2.38 c -1.32 0 -2.39 -1.06 -2.39 -2.38 v -0.1 c 0 -1.31 1.07 -2.38 2.39 -2.38" style="fill:#fff"/><path d="m 8.41 11.16 c 0 0.02 0 0.04 0 0.06 c 0 1.35 1.07 2.43 2.39 2.43 c 1.32 0 2.39 -1.08 2.39 -2.43 c 0 -0.02 0 -0.04 0 -0.06 c -0.03 1.31 -1.09 2.36 -2.39 2.36 c -1.3 0 -2.36 -1.05 -2.39 -2.36" style="fill:#99a1a6"/><g style="fill:#2d4564"><path d="m 10.96 9.36 c -0.36 0 -0.69 0.1 -0.55 0.32 c 0.21 0.36 0.24 0.73 0.25 0.86 c 0.05 -0.01 0.1 -0.02 0.15 -0.02 c 0.33 0 0.61 0.23 0.66 0.55 c 0.68 -0.34 0.82 -1.21 0.07 -1.6 c -0.14 -0.07 -0.36 -0.12 -0.57 -0.12 m -1.2 1.13 c -0.45 0.02 -0.84 0.34 -0.82 0.92 c 0 0.41 0.54 1.22 0.75 0.86 c 0.2 -0.36 0.53 -0.57 0.63 -0.64 c -0.11 -0.12 -0.18 -0.28 -0.18 -0.45 c 0 -0.2 0.09 -0.38 0.24 -0.51 c -0.2 -0.13 -0.41 -0.19 -0.62 -0.18 m 1.69 0.88 c -0.09 0.28 -0.34 0.46 -0.64 0.46 c -0.08 0 -0.16 -0.02 -0.24 -0.04 c -0.04 0.75 0.65 1.31 1.37 0.86 c 0.36 -0.21 0.8 -1.07 0.38 -1.07 c -0.42 0 -0.77 -0.17 -0.88 -0.22"/><path d="m 11.2 11.18 c 0 -0.22 -0.18 -0.4 -0.4 -0.4 c -0.22 0 -0.4 0.18 -0.4 0.4 c 0 0.22 0.18 0.39 0.4 0.39 c 0.22 0 0.4 -0.18 0.4 -0.39"/></g></svg>