<svg xmlns="http://www.w3.org/2000/svg" viewBox="0 0 16 16"><path d="m 2.05 12.24 c -10.1 -15.9 21.66 -16.65 12.1 -0.26 c -2.52 4.22 -8.45 6.28 -12.1 0.26" style="fill:#707f8f"/><path d="m 7.39 12.64 v -0.32 l -0.3 -0.02 l -0.3 -0.02 l -0.02 -0.29 l -0.02 -0.29 l -0.3 -0.02 l -0.3 -0.02 l -0.02 -0.29 l -0.02 -0.29 l -0.61 -0.04 l -0.02 -0.29 l -0.02 -0.29 l -0.3 -0.02 l -0.3 -0.02 l -0.02 -0.29 l -0.02 -0.29 l -0.3 -0.02 l -0.3 -0.02 l -0.04 -1.2 l -0.3 -0.02 l -0.3 -0.02 v -2.98 l 0.3 -0.02 l 0.3 -0.02 l 0.02 -0.29 l 0.02 -0.29 l 0.61 -0.04 l 0.02 -0.29 l 0.02 -0.29 l 0.3 -0.02 l 0.3 -0.02 l 0.02 -0.29 l 0.02 -0.29 h 5.1 l 0.02 0.29 l 0.02 0.29 l 0.3 0.02 l 0.3 0.02 l 0.02 0.29 l 0.02 0.29 l 0.3 0.02 l 0.3 0.02 l 0.02 0.29 l 0.02 0.29 l 0.61 0.04 v 2.98 l -0.61 0.04 l -0.04 1.2 l -0.3 0.02 l -0.3 0.02 l -0.02 0.29 l -0.02 0.29 l -0.3 0.02 l -0.3 0.02 l -0.02 0.29 l -0.02 0.29 l -0.3 0.02 l -0.3 0.02 l -0.02 0.29 l -0.02 0.29 l -0.3 0.02 l -0.3 0.02 l -0.02 0.29 l -0.02 0.29 l -0.3 0.02 l -0.3 0.02 v 0.64 h -1.25 m -0.03 -5.59 l 0.01 -0.61 h 0.64 l 0.02 0.6 l 0.63 0.02 l 0.01 0.3 l 0.01 0.3 h 0.61 v -0.58 l -0.31 -0.01 l -0.31 -0.01 l -0.01 -0.3 l -0.01 -0.3 l -0.32 -0.01 l -0.31 -0.01 v -0.61 l 0.31 -0.01 l 0.32 -0.01 l 0.01 -0.3 l 0.01 -0.3 h 0.31 l 0.31 -0.01 v -0.58 h -0.61 l -0.01 0.3 l -0.01 0.3 l -0.63 0.02 l -0.01 0.3 l -0.01 0.3 h -0.64 l -0.02 -1.22 h -0.61 v 1.49 c -0.01 0.82 0 1.52 0.01 1.54 c 0.02 0.04 0.1 0.05 0.31 0.04 l 0.29 -0.01" style="fill:#0029c8"/></svg>