<svg xmlns="http://www.w3.org/2000/svg" viewBox="0 0 16 16"><path d="m 3.06 2.93 c -13.1 17.58 22.8 17.33 9.88 0.07 c -2.34 -3 -7.18 -4.52 -9.88 -0.07" style="fill:#49545f"/><path d="m 7.39 12.69 l 0.59 -0.17 l 0.52 0.15 c 3.07 0.94 -3.41 0.5 -1.11 0.02 m -1.2 -0.32 c -0.54 -0.34 -0.97 -0.89 -1.15 -1.46 c -0.1 -0.32 -0.1 -0.32 0.18 -0.29 c 0.24 0.02 0.3 0.06 0.92 0.59 c 0.37 0.31 0.83 0.66 1.03 0.78 c 0.2 0.13 0.36 0.25 0.36 0.28 c 0 0.06 -0.5 0.24 -0.8 0.29 c -0.18 0.03 -0.24 0 -0.54 -0.18 m 2.81 0.13 c -0.28 -0.06 -0.62 -0.19 -0.62 -0.23 c 0.5 -0.34 1.03 -0.71 1.48 -1.09 c 0.57 -0.5 0.64 -0.54 0.87 -0.56 c 0.29 -0.03 0.3 0.01 0.13 0.47 c -0.19 0.52 -0.81 1.2 -1.31 1.41 c -0.2 0.09 -0.18 0.09 -0.55 0 m -2.93 -1.87 c 0.55 -0.22 1.28 -0.38 1.83 -0.53 c 0.72 0.22 1.36 0.21 2 0.5 c 0.04 0.05 -0.55 0.63 -0.94 0.92 c -0.4 0.29 -0.89 0.58 -0.99 0.58 c -0.42 -0.18 -1.82 -1.19 -1.9 -1.48 m -0.59 -0.48 c -0.43 -0.4 -0.68 -0.84 -0.79 -1.38 c -0.03 -0.16 -0.04 -0.35 -0.02 -0.42 c 0.01 -0.22 0.23 -0.09 0.4 -0.05 c 0.35 0.07 0.39 0.09 0.84 0.47 c 0.41 0.35 1.23 0.88 1.5 0.96 c 0.24 0.08 -0.04 0.21 -0.84 0.41 c -0.84 0.21 -0.86 0.21 -1.08 0 m 4.41 0.12 c -0.4 -0.07 -1.28 -0.32 -1.38 -0.39 c -0.09 -0.06 -0.09 -0.07 0.06 -0.14 c 0.59 -0.31 1 -0.57 1.43 -0.93 c 0.44 -0.37 0.53 -0.42 0.81 -0.48 c 0.41 -0.09 0.48 -0.07 0.48 0.18 c 0 0.53 -0.32 1.18 -0.77 1.59 c -0.27 0.24 -0.28 0.25 -0.63 0.18 m -2.98 -1.13 c -0.35 -0.22 -0.92 -0.73 -0.88 -0.79 c 0.02 -0.02 0.2 -0.07 0.4 -0.1 c 0.55 -0.1 1.01 -0.23 1.55 -0.39 c 0.49 0.14 0.98 0.29 1.47 0.37 c 0.25 0.05 0.46 0.1 0.46 0.13 c 0 0.09 -0.39 0.45 -0.73 0.68 c -0.45 0.3 -1.08 0.63 -1.22 0.62 c -0.38 -0.11 -0.7 -0.3 -1.05 -0.52 m -1.41 -1.22 c -0.23 -0.21 -0.35 -0.59 -0.34 -1.13 c 0.01 -0.61 0.02 -0.62 0.4 -0.49 c 0.22 0.08 0.41 0.2 0.7 0.46 c 0.33 0.38 0.89 0.53 1.23 0.88 c 0 0.07 -0.73 0.27 -1.35 0.37 c -0.29 0.07 -0.45 0.1 -0.64 -0.08 m 4.16 0.06 c -0.52 -0.09 -1.17 -0.28 -1.21 -0.34 c -0.02 -0.02 0.15 -0.14 0.37 -0.27 c 0.59 -0.26 1.02 -0.95 1.61 -1.09 c 0.14 -0.03 0.27 -0.04 0.29 -0.03 c 0.02 0.02 0.04 0.29 0.04 0.61 c 0 0.61 -0.09 0.89 -0.35 1.11 c -0.13 0.11 -0.17 0.11 -0.75 0.01 m -3.27 -1.6 c 0 -0.03 0.05 -0.06 0.12 -0.07 c 0.41 -0.07 0.9 -0.18 1.17 -0.26 c 0.3 -0.09 0.31 -0.09 0.62 0 c 0.37 0.21 0.59 0.18 1.23 0.35 c 0 0.19 -1.29 1.06 -1.56 1.05 c -0.39 -0.13 -1.52 -0.8 -1.57 -1.07 m -0.39 -0.41 c -0.16 -0.16 -0.11 -1.04 0.07 -1.22 c 0.24 0 1.23 0.71 1.42 0.95 c 0 0.07 -0.18 0.13 -0.73 0.25 c -0.52 0.11 -0.67 0.12 -0.76 0.02 m 3.34 0.02 c -0.43 -0.09 -0.91 -0.23 -0.91 -0.27 c 0 -0.02 0.13 -0.12 0.27 -0.21 c 0.37 -0.2 0.6 -0.57 0.98 -0.75 c 0.19 -0.1 0.18 -0.08 0.27 0.1 c 0.13 0.27 0.16 0.8 0.06 1.02 c -0.14 0.26 -0.41 0.18 -0.67 0.12 m -2.35 -1.09 c 0.19 -0.38 0.49 -0.36 0.98 -0.55 c 0.17 0.08 1.09 0.4 1.02 0.52 c -0.13 0.2 -0.87 0.71 -1.02 0.71 c -0.34 -0.15 -0.76 -0.35 -0.98 -0.67 m -0.36 -0.46 c -0.14 -0.34 0.02 -0.71 0.26 -0.95 c 0.25 0 0.88 0.54 0.69 0.66 c -0.14 0.09 -0.75 0.34 -0.82 0.34 c -0.04 0 -0.09 -0.02 -0.13 -0.05 m 2.16 -0.09 c -0.38 -0.16 -0.47 -0.22 -0.47 -0.29 c 0 -0.09 0.58 -0.59 0.68 -0.59 c 0.16 0 0.37 0.46 0.35 0.76 c -0.02 0.31 -0.1 0.33 -0.57 0.13 m -1.24 -1.05 c 0 -0.18 0.15 -0.43 0.31 -0.52 c 0.13 -0.07 0.14 -0.07 0.3 0.05 c 0.22 0.18 0.31 0.44 0.21 0.63 c -0.08 0.16 -0.31 0.42 -0.38 0.42 c -0.21 -0.12 -0.44 -0.37 -0.45 -0.59" style="fill:#75283d"/><path d="m 4.54 9.85 c -0.47 0.15 -0.83 0.68 -1.1 1.02 c -0.24 0.33 0.5 -0.37 1.24 -0.38 c 0.46 0 0.79 -0.14 0.79 -0.14 c -0.29 -0.28 -0.58 -0.61 -0.92 -0.5" style="fill:#ede7aa"/><g style="fill:#6a9d47"><path d="m 5.24 12.69 c -0.47 0.34 -0.84 0.81 -0.98 1.28 c -0.04 0.15 -0.04 0.16 0.12 0.16 c 0.98 -0.47 0.95 -1.15 2.19 -1.13 l -0.36 -0.4 c -0.29 -0.32 -0.65 -0.14 -0.97 0.09"/><path d="m 10.55 12.71 c 0.5 0.33 0.88 0.8 1.02 1.26 c 0.05 0.14 0.04 0.16 -0.12 0.16 c -1.03 -0.46 -0.99 -1.14 -2.29 -1.12 l 0.37 -0.39 c 0.3 -0.32 0.68 -0.14 1.01 0.08"/><path d="m 9.8 13.1 c 0.49 0.37 0.64 0.96 0.79 1.47 c 0.05 0.17 0.04 0.18 -0.12 0.18 c -1.01 -0.52 -0.98 -1.27 -2.25 -1.25 l 0.36 -0.44 c 0.3 -0.36 0.89 -0.21 1.22 0.03"/><path d="m 6 12.97 c -0.46 0.38 -0.52 1.01 -0.65 1.54 c -0.04 0.17 -0.04 0.18 0.11 0.18 c 0.95 -0.53 0.91 -1.3 2.1 -1.28 l -0.34 -0.45 c -0.28 -0.37 -0.91 -0.25 -1.22 0"/><path d="m 7.83 13.36 c -0.02 0.57 -0.24 1.13 -0.59 1.5 c -0.41 0.45 -0.76 -1.69 -0.38 -1.9 c 0.43 -0.23 0.98 -0.09 0.97 0.4"/><path d="m 7.64 13.27 c 0.02 0.26 0.67 2.08 0.96 1.58 c 0.35 -1.11 0.55 -0.89 0.27 -1.82 c -0.45 -0.21 -1.3 -0.29 -1.24 0.24"/></g><g style="fill:#fff8dc"><path d="m 5.26 5.89 c 0.22 0.23 0.52 0.38 0.81 0.41 c 0.42 0.02 -0.89 -1 -0.89 -1 c -0.09 0.28 -0.07 0.43 0.09 0.6"/><path d="m 10.88 5.89 c -0.24 0.23 -0.56 0.37 -0.85 0.38 c -0.43 -0.01 0.99 -1.02 0.99 -1.02 c 0.07 0.31 0.04 0.47 -0.14 0.64"/><path d="m 5.96 4.36 c 0.19 0.23 0.46 0.41 0.72 0.46 c 0.4 0.07 -0.74 -1.04 -0.74 -1.04 c -0.12 0.25 -0.12 0.39 0.02 0.57"/><path d="m 10.15 4.29 c -0.18 0.21 -0.44 0.37 -0.7 0.42 c -0.39 0.06 0.71 -0.94 0.71 -0.94 c 0.12 0.23 0.11 0.36 -0.02 0.52"/><path d="m 9.1 2.87 c -0.1 0.3 -0.28 0.55 -0.49 0.68 c -0.32 0.17 0.38 -1.29 0.38 -1.29 c 0.16 0.24 0.18 0.39 0.11 0.61"/><path d="m 6.84 2.88 c 0.11 0.29 0.31 0.52 0.54 0.65 c 0.35 0.16 -0.41 -1.23 -0.41 -1.23 c -0.17 0.23 -0.2 0.38 -0.13 0.58"/></g><path d="m 11.45 9.79 c 0.48 0.15 0.85 0.7 1.13 1.05 c 0.25 0.35 -0.51 -0.39 -1.27 -0.39 c -0.47 0 -0.8 -0.14 -0.8 -0.14 c 0.29 -0.29 0.59 -0.63 0.94 -0.52" style="fill:#ede7aa"/><g style="fill:#fffacd"><path d="m 4.85 7.52 c -0.34 0.04 -0.79 0.13 -0.91 0.65 c -0.22 0.23 0.4 -0.22 0.91 -0.11 c 0.31 0.07 0.55 0.01 0.55 0.01 c -0.15 -0.27 -0.3 -0.58 -0.55 -0.55"/><path d="m 11.12 7.59 c 0.34 0.04 0.7 0.2 0.91 0.64 c 0.22 0.23 -0.4 -0.22 -0.91 -0.11 c -0.32 0.07 -0.55 0.02 -0.55 0.02 c 0.15 -0.27 0.29 -0.57 0.55 -0.54"/></g></svg>