<svg xmlns="http://www.w3.org/2000/svg" viewBox="0 0 16 16"><path d="m 0.34 9.78 c 0.98 6.42 9.71 8.14 13.56 3.55 c 3.39 -3.41 2.55 -9.93 -1.62 -12.17 c -4.78 -2.99 -11.74 0.71 -12.1 6.66 c -0.04 0.65 0.02 1.31 0.17 1.95" style="fill:#299fdf"/><g style="fill:#fff"><path d="m 7.5 12.63 c -2.08 -0.22 -3.76 -1.87 -4 -3.92 c -0.16 -1.4 0.29 -2.73 1.27 -3.71 c 0.37 -0.37 0.71 -0.61 1.25 -0.88 c 1.32 -0.67 3 -0.58 4.29 0.23 c 0.42 0.26 0.98 0.78 1.24 1.14 c 0.23 0.33 0.62 1.1 0.73 1.46 c 0.18 0.6 0.18 1.7 0 2.4 c -0.38 1.46 -1.71 2.78 -3.18 3.15 c -0.52 0.13 -1.11 0.19 -1.59 0.14 m 1.41 -1.04 c 0.98 -0.31 1.77 -0.96 2.2 -1.82 c 0.36 -0.91 0.52 -1.76 0.26 -2.61 c -0.29 -0.94 -0.93 -1.71 -1.75 -2.14 c -0.97 -0.44 -1.93 -0.54 -2.76 -0.26 c -0.98 0.34 -1.7 0.98 -2.14 1.9 c -0.4 1.02 -0.42 2.05 -0.02 2.95 c 0.27 0.59 0.77 1.18 1.29 1.53 c 0.34 0.22 0.84 0.44 1.21 0.51 c 0.41 0.09 1.34 0.05 1.7 -0.06"/><path d="m 7.45 10.5 c -0.3 -0.07 -0.52 -0.16 -0.73 -0.28 c -0.2 -0.11 -0.43 -0.32 -0.43 -0.38 c 0 -0.06 0.38 -0.46 0.5 -0.52 c 0.09 -0.05 0.13 -0.04 0.47 0.12 c 0.45 0.22 0.9 0.23 1.27 0.05 c 0.58 -0.29 0.91 -0.84 0.86 -1.46 c -0.05 -0.54 -0.34 -0.95 -0.85 -1.19 c -0.46 -0.21 -0.91 -0.19 -1.41 0.09 c -0.26 0.14 -0.29 0.14 -0.63 -0.21 l -0.23 -0.24 l 0.21 -0.2 c 0.75 -0.69 2.12 -0.68 2.96 0.01 c 0.39 0.32 0.72 0.85 0.84 1.33 c 0.06 0.25 0.06 0.78 0 1.04 c -0.14 0.58 -0.61 1.24 -1.09 1.53 c -0.55 0.24 -1.21 0.43 -1.74 0.31"/></g></svg>