<svg xmlns="http://www.w3.org/2000/svg" viewBox="0 0 16 16"><path d="m 6.38 0.32 c -8.25 1.23 -8.56 13.5 -0.56 15.35 c 6.48 1.91 11.82 -5 9.72 -10.17 c -0.98 -3.46 -5.07 -6.26 -9.16 -5.18" style="fill:#696969"/><path d="m 14.27 8.2 c 0 3.4 -2.79 6.15 -6.22 6.15 c -3.43 0 -6.22 -2.75 -6.22 -6.15 c 0 -3.39 2.79 -6.15 6.22 -6.15 c 3.43 0 6.22 2.75 6.22 6.15" style="fill:#fdd036"/><path d="m 11.43 6.63 c 0 1.44 -1.47 2.61 -3.29 2.61 c -1.82 0 -3.29 -1.17 -3.29 -2.61 c 0 -1.44 1.47 -2.61 3.29 -2.61 c 1.82 0 3.29 1.17 3.29 2.61" style="fill:#fff"/><path d="m 3.69 12.68 c -0.52 -0.56 -0.5 -0.49 -0.25 -1.16 c 0.29 -0.77 0.33 -1.02 0.39 -2.55 c 0.07 -1.57 0.11 -1.91 0.36 -2.66 c 0.27 -0.82 0.49 -1.21 0.96 -1.71 c 0.46 -0.5 0.93 -0.79 1.5 -0.95 c 0.56 -0.16 2.29 -0.15 2.81 0.02 c 0.58 0.18 0.84 0.34 1.3 0.79 c 0.71 0.7 0.97 1.18 1.19 2.21 c 0.18 0.84 0.24 1.39 0.28 2.59 c 0.04 1.11 0.09 1.39 0.45 2.28 c 0.15 0.37 0.18 0.5 0.14 0.59 c -0.08 0.18 -0.62 0.76 -0.7 0.76 c -0.04 0 -0.1 -0.13 -0.13 -0.29 c -0.09 -0.46 -0.45 -1.27 -0.73 -1.64 c -0.14 -0.19 -0.38 -0.43 -0.53 -0.54 c -0.26 -0.19 -0.3 -0.2 -0.72 -0.2 c -0.36 0 -0.54 0.04 -0.97 0.2 c -0.46 0.17 -0.59 0.19 -1.05 0.19 c -0.44 0 -0.62 -0.03 -1.08 -0.19 c -0.9 -0.3 -1.3 -0.22 -1.87 0.36 c -0.4 0.41 -0.74 1.08 -0.86 1.69 c -0.05 0.25 -0.11 0.48 -0.14 0.5 c -0.03 0.04 -0.17 -0.07 -0.36 -0.28 m 2.58 -5.5 c 0.33 -0.17 0.46 -0.37 0.49 -0.74 c 0.06 -0.75 -0.59 -1.25 -1.21 -0.93 c -0.66 0.34 -0.66 1.33 0 1.66 c 0.13 0.07 0.3 0.13 0.36 0.13 c 0.07 0 0.23 -0.05 0.36 -0.13 m -0.59 -0.7 c -0.07 -0.11 -0.08 -0.17 -0.03 -0.28 c 0.08 -0.17 0.18 -0.22 0.37 -0.17 c 0.16 0.04 0.23 0.27 0.14 0.46 c -0.09 0.2 -0.36 0.19 -0.48 -0.01 m 5 0.62 c 0.25 -0.19 0.35 -0.41 0.35 -0.77 c 0 -0.48 -0.31 -0.86 -0.75 -0.92 c -0.47 -0.06 -0.97 0.42 -0.97 0.94 c 0 0.52 0.5 1 0.97 0.93 c 0.12 -0.02 0.3 -0.1 0.4 -0.18 m -0.71 -0.61 c -0.14 -0.3 0.14 -0.61 0.39 -0.44 c 0.11 0.07 0.14 0.39 0.06 0.5 c -0.11 0.14 -0.38 0.1 -0.45 -0.05" style="fill:#454545"/><path d="m 7.45 9.37 c -0.55 -0.12 -0.9 -0.32 -1.13 -0.67 l -0.12 -0.18 h 3.68 l -0.24 0.25 c -0.42 0.46 -0.92 0.64 -1.67 0.63 c -0.23 0 -0.47 -0.02 -0.53 -0.03" style="fill:#ff8c00"/><path d="m 5.89 8.49 c -0.54 -0.03 -0.63 -0.05 -0.73 -0.21 c -0.12 -0.21 -0.11 -0.36 0.05 -0.49 c 0.14 -0.12 0.23 -0.14 0.98 -0.19 c 0.45 -0.04 0.52 -0.08 0.85 -0.52 c 0.3 -0.4 0.46 -0.56 0.63 -0.63 c 0.19 -0.08 0.55 -0.08 0.7 0 c 0.13 0.06 0.45 0.4 0.71 0.72 c 0.23 0.29 0.31 0.32 0.9 0.39 c 0.89 0.1 0.93 0.12 0.98 0.43 c 0.02 0.12 0 0.18 -0.09 0.29 c -0.1 0.13 -0.14 0.14 -0.59 0.19 c -0.42 0.05 -3.59 0.06 -4.39 0.02" style="fill:#ffd600"/></svg>