<svg xmlns="http://www.w3.org/2000/svg" viewBox="0 0 16 16"><path d="m 3.87 14.8 c -14 -12 14.84 -23.61 11.87 -4.99 c -0.65 4.08 -8.1 8.24 -11.87 4.99" style="fill:#218b21"/><g style="fill:#ff1414"><path d="m 5 7.91 c -0.05 -0.04 -0.05 -0.06 0.16 -0.29 c 0.29 -0.33 0.48 -0.63 0.48 -0.77 c 0 -0.13 -0.33 -0.82 -0.54 -1.14 c -0.08 -0.11 -0.14 -0.23 -0.14 -0.25 c 0 -0.08 0.16 -0.11 0.59 -0.11 h 0.43 l 0.02 0.21 c 0.02 0.25 0.1 0.37 0.22 0.37 c 0.08 0 0.09 -0.02 0.12 -0.32 c 0.02 -0.23 0.06 -0.26 0.29 -0.26 c 0.34 0 0.37 0.11 0.11 0.36 c -0.18 0.17 -0.29 0.36 -0.35 0.54 c -0.04 0.16 0.02 0.35 0.35 1 c 0.18 0.36 0.3 0.64 0.29 0.66 c -0.02 0.03 -0.15 0.03 -0.54 0.02 c -0.28 -0.01 -0.52 -0.02 -0.52 -0.03 c -0.01 -0.01 0.01 -0.06 0.04 -0.13 c 0.06 -0.15 0.06 -0.18 -0.02 -0.34 c -0.1 -0.19 -0.17 -0.23 -0.26 -0.12 c -0.09 0.11 -0.12 0.28 -0.08 0.43 c 0.03 0.09 0.02 0.13 -0.02 0.16 c -0.07 0.06 -0.53 0.07 -0.61 0.02"/><path d="m 7.66 7.93 l -0.22 -0.02 v -0.12 c 0 -0.07 0.02 -0.34 0.04 -0.61 c 0.03 -0.45 0 -1.31 -0.05 -1.63 c -0.02 -0.1 -0.01 -0.12 0.07 -0.14 c 0.05 -0.02 0.19 -0.03 0.32 -0.03 c 0.21 0 0.26 0.01 0.4 0.09 c 0.09 0.05 0.18 0.09 0.2 0.09 c 0.02 0 0.12 -0.05 0.21 -0.11 c 0.22 -0.15 0.41 -0.16 0.54 -0.04 c 0.12 0.12 0.14 0.37 0.04 0.52 c -0.06 0.09 -0.1 0.11 -0.2 0.12 c -0.09 0 -0.17 -0.02 -0.26 -0.06 c -0.16 -0.08 -0.26 -0.06 -0.32 0.07 c -0.07 0.14 -0.11 0.57 -0.1 1.1 c 0.01 0.43 0.02 0.49 0.08 0.6 c 0.06 0.11 0.06 0.12 0.02 0.14 c -0.07 0.04 -0.51 0.06 -0.77 0.04"/><path d="m 10.15 7.97 c -0.06 -0.02 -0.17 -0.08 -0.23 -0.14 c -0.23 -0.18 -0.22 -0.11 -0.23 -1.07 l -0.01 -0.86 l -0.09 -0.17 l -0.09 -0.18 l 0.27 -0.32 c 0.15 -0.18 0.3 -0.38 0.33 -0.45 c 0.04 -0.07 0.1 -0.14 0.14 -0.17 c 0.13 -0.09 0.18 -0.01 0.2 0.33 c 0.01 0.16 0.02 0.31 0.04 0.34 c 0.02 0.03 0.12 0.08 0.23 0.12 c 0.11 0.04 0.22 0.09 0.24 0.11 c 0.05 0.07 -0.08 0.18 -0.28 0.24 c -0.13 0.04 -0.17 0.07 -0.2 0.13 c -0.04 0.11 -0.07 1.1 -0.04 1.34 c 0.03 0.23 0.07 0.28 0.25 0.3 c 0.18 0.02 0.21 0.08 0.09 0.23 c -0.15 0.19 -0.42 0.29 -0.61 0.22"/></g><g style="fill:#fff"><path d="m 7.23 12.74 c -0.16 -0.05 -0.25 -0.14 -0.41 -0.39 c -0.08 -0.12 -0.18 -0.23 -0.23 -0.26 c -0.05 -0.03 -0.18 -0.11 -0.28 -0.18 c -0.21 -0.14 -0.38 -0.38 -0.49 -0.72 c -0.07 -0.19 -0.07 -0.25 -0.07 -0.75 c 0.01 -0.82 0.12 -1.23 0.41 -1.53 c 0.16 -0.16 0.29 -0.22 0.55 -0.26 c 0.32 -0.05 0.6 -0.01 0.84 0.12 c 0.51 0.26 0.68 0.61 0.71 1.46 c 0.01 0.34 0 0.51 -0.04 0.71 c -0.1 0.53 -0.17 0.64 -0.57 0.96 c -0.16 0.13 -0.29 0.25 -0.29 0.27 c 0 0.05 0.14 0.18 0.31 0.28 c 0.23 0.13 0.23 0.23 0 0.3 c -0.15 0.04 -0.3 0.04 -0.45 -0.01 m 0.09 -1.07 c 0.19 -0.11 0.26 -0.3 0.32 -0.86 c 0.04 -0.41 0.04 -0.64 -0.02 -1.06 c -0.05 -0.4 -0.11 -0.54 -0.28 -0.65 c -0.33 -0.23 -0.69 -0.09 -0.81 0.32 c -0.1 0.34 -0.08 1.5 0.03 1.88 c 0.06 0.2 0.24 0.41 0.39 0.44 c 0.13 0.03 0.23 0.01 0.36 -0.07"/><path d="m 8.93 11.75 l -0.16 -0.11 v -1.84 l -0.12 -0.08 c -0.07 -0.05 -0.13 -0.11 -0.13 -0.14 c 0 -0.03 0.06 -0.1 0.14 -0.16 c 0.1 -0.07 0.17 -0.16 0.25 -0.32 c 0.09 -0.18 0.13 -0.23 0.2 -0.25 c 0.17 -0.04 0.26 0.09 0.26 0.4 c 0 0.13 0.01 0.21 0.03 0.21 c 0.07 0 0.34 0.13 0.34 0.17 c 0 0.04 -0.27 0.17 -0.34 0.17 c -0.05 0 -0.07 0.51 -0.06 1.12 c 0.01 0.61 0.02 0.64 0.23 0.64 c 0.09 0 0.2 0.07 0.2 0.12 c 0 0.09 -0.26 0.19 -0.51 0.19 c -0.13 0 -0.18 -0.02 -0.32 -0.11"/></g></svg>