<svg xmlns="http://www.w3.org/2000/svg" viewBox="0 0 16 16"><path d="m 15.93 8 c 1.2 -10.55 -16.1 -10.41 -15.86 0.19 c -0.57 9.86 16.79 10.74 15.86 -0.19" style="fill:#d0d2e5"/><g style="fill:#3c4597"><path d="m 2.5 9.64 c -0.83 -0.26 -1.16 -1.66 -0.55 -2.35 c 0.28 -0.31 0.54 -0.41 1.05 -0.41 c 0.62 0 0.88 0.12 0.9 0.41 c 0.02 0.19 0.01 0.2 -0.11 0.17 c -0.61 -0.17 -0.98 -0.16 -1.25 0.05 c -0.22 0.17 -0.3 0.42 -0.28 0.87 c 0.03 0.52 0.27 0.8 0.72 0.87 c 0.3 0.05 0.46 -0.1 0.44 -0.39 c -0.02 -0.16 -0.05 -0.21 -0.19 -0.27 c -0.14 -0.06 -0.17 -0.1 -0.17 -0.25 v -0.18 c 0.3 0 0.61 0 0.91 0 v 1.31 c -0.23 0.32 -1.02 0.29 -1.47 0.17"/><path d="m 5.23 9.66 c -0.02 -0.02 -0.04 -0.24 -0.04 -0.49 c 0 -0.59 -0.03 -0.68 -0.48 -1.48 c -0.21 -0.37 -0.38 -0.7 -0.38 -0.73 c 0 -0.04 0.09 -0.06 0.23 -0.06 c 0.26 0 0.34 0.06 0.64 0.54 c 0.11 0.16 0.21 0.31 0.25 0.33 c 0.03 0.02 0.14 -0.1 0.25 -0.27 c 0.33 -0.51 0.43 -0.6 0.7 -0.6 c 0.13 0 0.23 0.01 0.23 0.03 c 0 0.05 -0.28 0.58 -0.57 1.06 c -0.28 0.47 -0.29 0.49 -0.29 0.92 c -0.01 0.69 -0.04 0.75 -0.29 0.77 c -0.12 0.01 -0.23 0 -0.25 -0.02"/><path d="m 7.17 9.65 c -0.09 -0.05 -0.15 -1.9 -0.08 -2.41 c 0.02 -0.29 0.01 -0.31 0.29 -0.34 c 0.37 -0.04 1.08 0.03 1.27 0.13 c 0.22 0.11 0.33 0.34 0.33 0.66 c 0.01 0.33 -0.19 0.43 -0.31 0.69 c 0.01 0.02 0.14 0.29 0.3 0.6 c 0.16 0.31 0.27 0.6 0.25 0.64 c -0.17 0.12 -0.32 0.08 -0.54 0.08 l -0.21 -0.45 c -0.22 -0.47 -0.4 -0.67 -0.59 -0.64 c -0.13 0.02 -0.18 0.24 -0.19 0.73 c 0 0.22 -0.03 0.31 -0.09 0.33 c -0.14 0.02 -0.32 0.05 -0.44 -0.02 m 1 -1.56 c 0.39 -0.2 0.24 -0.74 -0.2 -0.7 c -0.19 0.02 -0.2 0.03 -0.24 0.25 c -0.09 0.45 0.09 0.63 0.44 0.45"/><path d="m 10.38 9.61 c -0.44 -0.21 -0.55 -0.59 -0.53 -1.84 l 0.02 -0.84 l 0.25 -0.02 c 0.31 -0.02 0.29 -0.08 0.34 1.15 c 0.03 0.84 0.04 0.93 0.14 1.04 c 0.19 0.2 0.55 0.14 0.69 -0.11 c 0.04 -0.08 0.08 -0.48 0.1 -1.09 l 0.03 -0.98 c 0.22 -0.01 0.47 -0.01 0.52 0.16 c 0.03 0.09 0.04 0.56 0.02 1.05 c -0.04 1.04 -0.1 1.23 -0.51 1.44 c -0.29 0.15 -0.79 0.17 -1.06 0.04"/><path d="m 12.96 9.64 c -0.22 -0.07 -0.36 -0.2 -0.36 -0.37 c 0 -0.08 0.02 -0.16 0.03 -0.17 c 0.02 -0.02 0.21 0.02 0.43 0.07 c 0.3 0.1 0.81 0.09 0.82 -0.28 c 0 -0.18 -0.13 -0.27 -0.59 -0.43 c -0.21 -0.07 -0.41 -0.18 -0.52 -0.29 c -0.16 -0.15 -0.18 -0.2 -0.18 -0.48 c 0 -0.38 0.14 -0.63 0.44 -0.77 c 0.26 -0.13 0.78 -0.13 1.04 0 c 0.17 0.08 0.2 0.12 0.21 0.29 c 0.02 0.31 -0.36 0.13 -0.64 0.12 c -0.3 0 -0.38 0.02 -0.47 0.11 c -0.23 0.22 -0.07 0.38 0.59 0.57 c 0.16 0.04 0.38 0.15 0.48 0.23 c 0.36 0.37 0.18 1.13 -0.22 1.34 c -0.2 0.1 -0.8 0.12 -1.08 0.04"/></g></svg>