<svg xmlns="http://www.w3.org/2000/svg" viewBox="0 0 16 16"><path d="m 15.25 10.99 c 5.97 -19.4 -26.1 -9.7 -11.1 3.59 c 3 2.66 9.49 1.64 11.1 -3.59" style="fill:#d74b75"/><path d="m 7.37 12.35 c -0.79 -0.12 -1.39 -0.39 -2.02 -0.94 c -1 -0.85 -1.45 -1.72 -1.52 -2.96 c -0.11 -1.8 1 -3.45 2.8 -4.15 c 0.5 -0.2 1.52 -0.27 3.51 -0.24 c 1.67 0.02 1.73 0.03 1.92 0.32 c 0.09 0.14 0.1 0.35 0.1 2.41 v 2.26 l -0.16 0.42 c -0.45 1.2 -1.22 2.05 -2.29 2.54 c -0.7 0.32 -1.59 0.45 -2.34 0.34" style="fill:#b7c1c8"/><path d="m 11 8.31 c 0 1.67 -1.35 3 -3 3 c -1.67 0 -3 -1.36 -3 -3 c 0 -1.67 1.35 -3 3 -3 c 1.66 0 3 1.36 3 3" style="fill:#8169c8"/><path d="m 5.39 9.89 c -0.23 -0.3 -0.38 -0.81 -0.41 -1.38 c -0.05 -0.95 0.23 -1.7 0.89 -2.37 c 0.98 -0.99 2.49 -1.17 3.65 -0.43 c 0.36 0.23 0.32 0.25 -0.15 0.08 c -0.48 -0.17 -1.37 -0.21 -1.82 -0.08 c -1.07 0.31 -1.89 1.14 -2.16 2.2 c -0.13 0.49 -0.09 1.32 0.08 1.79 c 0.07 0.19 0.11 0.35 0.1 0.36 c -0.01 0.01 -0.09 -0.07 -0.17 -0.18" style="fill:#7560b3"/><path d="m 11.67 5 c 0 0.25 -0.21 0.46 -0.47 0.46 c -0.26 0 -0.47 -0.2 -0.47 -0.46 c 0 -0.26 0.21 -0.46 0.47 -0.46 c 0.26 0 0.47 0.2 0.47 0.46" style="fill:#80878d"/></svg>