<svg xmlns="http://www.w3.org/2000/svg" viewBox="0 0 16 16"><path d="m 0.75 10.97 c -6 -19.45 26.3 -9.72 11.18 3.61 c -3 2.67 -9.56 1.64 -11.18 -3.61" style="fill:#ffd600"/><path d="m 7.85 4.67 c 5.27 0.75 3 4.43 -0.45 8 c -3.75 -6.3 -3.57 -6.78 0.45 -8" style="fill:#ff4500"/><path d="m 5.86 11.84 c -0.76 -0.65 -1.44 -1.25 -1.51 -1.32 l -0.12 -0.13 v -1.2 c 0 -0.9 0.14 -1.16 0.1 -1.21 c -0.03 -0.03 -0.5 -0.37 -0.87 -0.68 c -0.82 -0.71 -0.92 -0.8 -0.89 -0.89 c 0.04 -0.09 0.16 -0.08 0.85 0.06 c 0.33 0.07 0.61 0.13 0.62 0.13 c 0.05 0 -0.02 -0.16 -0.32 -0.66 c -0.18 -0.32 -0.32 -0.6 -0.3 -0.64 c 0.01 -0.04 0.3 -0.2 0.63 -0.38 c 0.33 -0.17 1.17 -0.61 1.86 -0.97 c 0.69 -0.36 1.29 -0.65 1.33 -0.65 c 0.1 0 0.23 0.18 0.56 0.73 c 0.15 0.26 0.3 0.49 0.34 0.52 c 0.05 0.04 0.16 -0.05 0.65 -0.5 c 0.37 -0.34 0.62 -0.55 0.68 -0.55 c 0.05 0 0.27 0.15 0.5 0.34 c 1.47 1.23 2.59 2.18 2.61 2.23 c 0.04 0.1 -0.07 0.22 -0.57 0.66 c -0.25 0.22 -0.46 0.43 -0.46 0.46 c 0 0.05 0.39 0.13 0.9 0.17 c 0.46 0.04 0.64 0.09 0.64 0.19 c 0 0.1 -0.02 0.11 -1 0.62 l -0.79 0.41 l -0.01 1.21 c -0.01 1.09 -0.02 1.22 -0.09 1.27 c -0.16 0.14 -3.74 1.95 -3.84 1.95 c -0.08 0 -0.48 -0.31 -1.5 -1.19 m 1.61 0.65 c 0.07 -0.47 0.06 -0.24 0.09 -0.75 c -0.02 -0.53 0.07 -2.13 -0.18 -2.24 c -0.07 0 -0.09 0.02 -0.07 0.08 c 0.03 0.13 0.02 1.63 -0.02 1.79 c 0.01 0.35 -0.02 1.13 0.18 1.12 m 1.29 -3.91 c 0.46 -0.2 2.48 -1.26 2.25 -1.32 c -0.18 -0.05 -2.86 -2.54 -2.86 -2.49 c 0 0.02 -3.47 1.72 -3.56 1.85 c -0.09 0.13 2.04 2.24 2.52 2.36 c 0.44 0.11 1.23 -0.21 1.65 -0.39" style="fill:#fbeb59"/><path d="m 169.5 287.2 c -3.48 -3.25 -14.71 -13.46 -24.89 -22.75 c -26.71 -24.42 -35.94 -33.3 -36.1 -34.82 c -0.09 -0.65 0 -13.93 0.09 -29.43 l -0.61 -24.61 l -2.7 -4.09 c -1.13 -1.95 -12.36 -9.19 -21.23 -17.36 c -8.96 -8.17 -20.45 -20.24 -20.2 -20.89 c 0.52 -1.49 7.22 -1.49 30.37 3.44 c 6.09 1.3 10.36 3.71 10.36 1.76 c 0 -0.65 -5.22 3.06 -9.48 -4.55 c -5.48 -10 -9.48 -28 -8.79 -29.2 c 1.39 -2.32 86.8 -47.82 89.1 -47.54 c 1.39 0.19 6.27 6.41 12.1 16.71 c 5.92 10.4 6.61 17.55 8.09 17.83 c 1.48 0.19 5.66 -3.25 15.58 -12.91 c 12.62 -12.53 13.57 -13.18 15.75 -12.1 c 4.44 2.41 68.1 58.68 68.5 60.5 c 0.26 1.3 -3.31 5.57 -11.92 14.21 c -6.79 6.78 -12 12.63 -11.66 12.91 c 0.78 0.84 15.66 3.25 24.97 3.99 c 4.18 0.37 8.44 1.3 9.48 2.04 c 1.74 1.39 1.65 1.58 -1.39 4.18 c -1.74 1.49 -9.75 6.31 -17.84 10.77 c -8.09 4.36 -15.92 8.73 -17.58 9.75 l -2.87 1.67 v 28.41 c 0 25.63 -0.17 28.6 -1.74 30.36 c -2.18 2.51 -82.5 46.2 -86.2 46.98 c -5.22 -1.21 -6.09 -2.6 -9.14 -5.39 m 42.81 -20.43 c 18.62 -10 36.72 -19.78 40.3 -21.82 l 6.53 -3.71 l -0.26 -16.43 c -0.26 -20.52 -0.87 -25.44 -2.78 -23.86 c -0.87 0.74 -3.13 0.93 -6.35 0.46 c -4.7 -0.65 -5.83 -0.28 -17.84 5.39 l -12.79 5.94 c -14.97 0.19 -28.2 -4.27 -41.51 -4.83 c -6.27 0 -39.85 -7.61 -42.4 -9.47 c -8.79 -6.5 -8.88 -6.5 -14.71 -5.85 c -6.87 0.65 -6.61 0 -7.57 20.8 l -0.61 14.21 l 11.92 10.49 c 32.81 29.2 52.91 46.8 53.5 46.8 c 0.44 0 15.92 -8.17 34.55 -18.1 m 29.85 -74.6 c 29.1 -16.62 38.46 -22.75 38.46 -25.2 c 0 -2.32 -3.65 -3.81 -11.83 -4.74 c -5.83 -0.65 -6.09 -0.56 -18.27 5.85 c -46.73 24.42 -61 32 -61.5 32.87 c -0.26 0.56 -0.26 1.3 0.09 1.67 c 0.87 0.93 25.32 3.06 28.54 2.51 c 1.39 -0.28 12.36 -6 24.54 -13 m -89.5 -3.06 c 0 -1.58 -20.97 -23.31 -34 -35.2 l -9.57 -8.73 l -10.96 -2.69 c -12.36 -2.97 -16.45 -3.34 -16.45 -1.21 c 0 1.49 13.75 13.93 36.98 33.61 c 20.27 17.2 21.41 17.92 26.98 17.92 c 3.39 -0.09 6 -0.28 7 -3.71 m 43.6 -1.58 c 18.88 -6 14.36 -7.89 10.18 -13.18 c -2.87 -3.62 -12.53 -5.85 -27.85 -9.75 c -24.54 -6.41 -30.63 -12.44 -38.3 -22.56 c -2.7 -3.62 -1.22 -10.58 -1.65 -10.77 c -0.78 -0.37 -19.75 11.51 -19.75 13.1 c 0 0.56 7.22 8.1 9 10.12 c 4.87 5.57 35.85 34.4 36.9 34.4 c 11.66 7.24 10.44 9.1 31.5 -1.3 m 47.4 -23 c 6.27 -3.44 11.49 -6.87 11.66 -7.71 c 0.26 -1.49 -25.58 -24.98 -27.5 -24.98 c -16.97 -13.18 -23.58 -14 -35.1 -24.51 c -13.23 1.02 -42.46 7.52 -36.3 21.2 c 2.18 4.64 11.4 7.24 30.98 12.35 c 12.27 3.25 35.2 15.32 41.1 28.88 c 0 2.97 0.87 2.69 15.1 -5.11 m 40.81 -37.42 l -11.1 -11 c -5 -5.2 -42.99 -39.74 -45.77 -41 c -1.48 -0.74 -2 -0.65 -11.49 8.17 c -6.35 5.94 -10.88 11 -14.62 10 c -0.61 -0.19 1.83 4.27 4.18 5.29 c 13.31 8.26 13.1 15.97 24.8 24 c 0 2.6 0.78 3.34 12.88 13.1 c 12.1 9.66 17.58 13.74 18.8 13.74 c 6.7 -8.45 17.32 -14.67 22.28 -22.28 m -161.5 7.1 c 5.57 -3.06 10.44 -6.13 10.79 -6.78 c 25.5 -19.96 36.46 -25.1 53.4 -37 c 0.61 -1.67 -10.53 -22.47 -12.88 -23.86 c -0.96 -0.65 -7.31 2.23 -21.32 9.84 c -10.96 5.94 -28.45 15.41 -38.9 21.1 c -10.44 5.66 -19.4 10.96 -19.93 11.7 c -1.22 1.86 14.88 30.73 17.1 30.73 c 0.87 0 6.09 -2.6 11.66 -5.66" transform="matrix(0.045 0 0 0.042 -0.64 0.71)" style="fill:#c9630c;stroke:#c9630c"/><path d="m 8.46 8.36 c 0 -0.32 -0.28 -0.5 -1.08 -0.7 c -1.29 -0.32 -1.72 -0.56 -2 -1.11 c -0.11 -0.2 -0.14 -0.32 -0.15 -0.63 c -0.04 -0.83 0.41 -1.41 1.3 -1.64 c 0.32 -0.09 1.29 -0.09 1.6 -0.01 c 0.46 0.13 0.82 0.36 1.06 0.7 c 0.1 0.14 0.16 0.18 0.27 0.18 c 0.16 0 0.17 0.03 0.05 0.15 c -0.13 0.19 0.27 0.36 0.06 0.55 c -0.09 0.2 -0.13 0.39 -0.25 0.52 c -0.16 0.16 -0.21 0.18 -0.39 0.18 c -0.17 0 -0.25 -0.03 -0.38 -0.14 c -0.17 -0.13 -0.19 -0.4 -0.36 -0.49 c -0.13 -0.07 -0.17 -0.14 -0.2 -0.41 c -0.02 -0.22 -0.23 -0.32 -0.7 -0.32 c -0.61 0 -0.96 0.2 -0.96 0.55 c 0 0.33 0.25 0.48 1.27 0.75 c 1.16 0.31 1.55 0.53 1.84 1 c 0.47 0.61 -0.85 0.96 -0.96 0.87" style="fill:#52b705"/><path d="m 8.11 5.88 c -0.17 -0.18 -0.1 -0.52 0.14 -0.64 c 0.13 -0.07 0.14 -0.07 0.17 0 c 0.02 0.04 -0.01 0.1 -0.06 0.14 c -0.08 0.06 -0.08 0.07 -0.01 0.12 c 0.15 0.09 0.19 0.23 0.11 0.36 c -0.09 0.14 -0.23 0.15 -0.35 0.02 m 1.15 -0.04 c -0.12 -0.14 -0.13 -0.25 -0.07 -0.41 c 0.04 -0.1 0.12 -0.18 0.21 -0.22 c 0.16 -0.07 0.25 -0.03 0.13 0.07 c -0.11 0.08 -0.11 0.2 0.01 0.23 c 0.11 0.03 0.13 0.26 0.04 0.36 c -0.08 0.09 -0.25 0.07 -0.32 -0.02" style="fill:#273405"/></svg>