<svg xmlns="http://www.w3.org/2000/svg" viewBox="0 0 16 16"><path d="m 15.79 7.96 c 1.19 -10.64 -15.91 -10.49 -15.71 0.19 c -0.57 9.94 16.63 10.83 15.71 -0.19" style="fill:#ffe4c3"/><g style="fill:#f9a62a"><path d="m 4.24 7.21 h 5.81 c 0.24 0 0.44 0.18 0.44 0.4 v 0.58 c 0 0.22 -0.2 0.4 -0.44 0.4 h -5.81 c -0.24 0 -0.44 -0.18 -0.44 -0.4 v -0.58 c 0 -0.22 0.2 -0.4 0.44 -0.4"/><path d="m 4.24 9.32 h 5.81 c 0.24 0 0.44 0.18 0.44 0.4 v 0.58 c 0 0.22 -0.2 0.4 -0.44 0.4 h -5.81 c -0.24 0 -0.44 -0.18 -0.44 -0.4 v -0.58 c 0 -0.22 0.2 -0.4 0.44 -0.4"/><path d="m 9.32 11.44 h 2.39 c 0.24 0 0.44 0.18 0.44 0.39 v 0.59 c 0 0.22 -0.2 0.39 -0.44 0.39 h -2.39 c -0.24 0 -0.44 -0.18 -0.44 -0.39 v -0.59 c 0 -0.22 0.2 -0.39 0.44 -0.39"/><path d="m 3.76 4.84 h 8.73 c 0.24 0 0.44 0.18 0.44 0.39 v 0.59 c 0 0.22 -0.2 0.39 -0.44 0.39 h -8.73 c -0.24 0 -0.44 -0.18 -0.44 -0.39 v -0.59 c 0 -0.22 0.2 -0.39 0.44 -0.39"/></g><g style="fill:#fff"><path d="m 5 9.99 c 0 0.24 -0.2 0.43 -0.45 0.43 c -0.25 0 -0.45 -0.2 -0.45 -0.43 c 0 -0.24 0.2 -0.43 0.45 -0.43 c 0.25 0 0.45 0.19 0.45 0.43"/><path d="m 6.08 10 c 0 0.24 -0.2 0.43 -0.45 0.43 c -0.25 0 -0.45 -0.19 -0.45 -0.43 c 0 -0.24 0.2 -0.43 0.45 -0.43 c 0.25 0 0.45 0.19 0.45 0.43"/><path d="m 7.2 10.1 c 0 0.24 -0.2 0.43 -0.45 0.43 c -0.25 0 -0.45 -0.19 -0.45 -0.43 c 0 -0.24 0.2 -0.43 0.45 -0.43 c 0.25 0 0.45 0.2 0.45 0.43"/><path d="m 8.3 10.1 c 0 0.24 -0.2 0.43 -0.45 0.43 c -0.25 0 -0.45 -0.19 -0.45 -0.43 c 0 -0.24 0.2 -0.43 0.45 -0.43 c 0.25 0 0.45 0.2 0.45 0.43"/><path d="m 4.72 7.54 h 2.17 c 0.24 0 0.44 0.17 0.44 0.37 c 0 0.2 -0.2 0.37 -0.44 0.37 h -2.17 c -0.24 0 -0.44 -0.16 -0.44 -0.37 c 0 -0.2 0.2 -0.37 0.44 -0.37"/><path d="m 9.73 11.77 h 1.5 c 0.24 0 0.44 0.16 0.44 0.37 c 0 0.2 -0.2 0.37 -0.44 0.37 h -1.5 c -0.24 0 -0.44 -0.16 -0.44 -0.37 c 0 -0.21 0.2 -0.37 0.44 -0.37"/></g><path d="m 11.93 5.12 h 0.04 c 0.24 0 0.44 0.18 0.44 0.4 v 0.11 c 0 0.22 -0.2 0.39 -0.44 0.39 h -0.04 c -0.24 0 -0.44 -0.18 -0.44 -0.39 v -0.11 c 0 -0.22 0.2 -0.4 0.44 -0.4" style="fill:#ff4500"/></svg>