<svg xmlns="http://www.w3.org/2000/svg" viewBox="0 0 16 16"><path d="m 0.67 6.5 c 1.59 -10.67 17.98 -7 14.88 3.3 c -2.08 9.81 -18.85 7.16 -14.88 -3.3" style="fill:#dcdcdc"/><path d="m 5.68 13.28 c -0.29 -0.17 -0.69 -1 -0.68 -1.05 c 0.72 -0.09 1.02 -0.3 1.36 -0.36 c 0.11 0.05 0.23 0.1 0.27 0.1 c 0.09 0 0.37 -0.23 0.37 -0.31 c 0 -0.03 0.14 -0.19 0.3 -0.34 c 0.34 -0.32 0.72 -0.51 0.6 -0.68 c -0.04 -0.05 -0.07 -0.11 -0.09 -0.2 c -0.03 -0.15 -0.37 -0.2 -0.5 -0.21 c -0.2 -0.02 -0.3 0.13 -0.29 0.46 c 0 0.14 0.18 0.52 0.16 0.54 c -0.12 0.07 -0.5 -0.49 -0.67 -1 c -0.07 -0.22 -0.08 -0.28 -0.03 -0.41 c 0.07 -0.21 0 -0.35 -0.17 -0.35 c -0.16 0 -0.23 0.09 -0.24 0.29 c 0 0.13 -0.02 0.17 -0.08 0.18 c -0.05 0.01 -0.08 -0.02 -0.1 -0.11 c -0.02 -0.08 -0.1 -0.2 -0.22 -0.3 c -0.32 -0.29 -0.23 -0.42 0.28 -0.42 c 0.4 0 0.49 -0.06 0.49 -0.32 c 0 -0.24 -0.07 -0.31 -0.27 -0.25 c -0.3 0.1 -0.48 0.04 -0.55 -0.18 c 0.07 -0.49 0.09 -0.85 0.08 -1.19 c -0.02 -0.42 -0.01 -1.03 0.01 -1.35 c -0.1 -0.5 0.23 -0.8 0.38 -1.18 c 0 -0.11 0.57 -0.59 0.92 -0.79 l 0.36 -0.19 c 0.97 -0.01 1.93 -0.02 2.9 -0.02 c 0.6 0.28 1.04 0.85 1.44 1.21 c 0.4 0.29 0.27 0.73 0.21 1.14 c -0.04 0.28 0.09 0.58 0.02 0.82 c -0.05 0.16 -0.05 0.18 0.05 0.3 c 0.09 0.12 0.1 0.16 0.09 0.67 c 0.03 0.38 -0.08 0.71 -0.22 1.04 c -0.05 0.12 -0.11 0.25 -0.12 0.29 c -0.03 0.08 -0.12 0.12 -0.2 0.09 c -0.09 -0.04 -0.13 -0.39 -0.07 -0.79 c 0.04 -0.29 0.04 -0.36 -0.01 -0.41 c -0.05 -0.05 -0.08 -0.05 -0.18 -0.01 c -0.16 0.06 -0.11 -0.18 -0.21 -0.35 c -0.17 -0.26 -0.54 0.02 -0.81 -0.04 c -0.15 -0.03 -0.31 0 -0.31 0.06 c 0 0.02 0.09 0.07 0.21 0.13 c 0.2 0.09 0.21 0.09 0.21 0.27 c 0 0.15 -0.02 0.18 -0.11 0.23 c -0.3 0.17 -0.51 -0.09 -0.69 -0.12 c -0.05 0.01 -0.15 0 -0.24 -0.03 c -0.21 -0.07 -0.21 -0.2 0.02 -0.39 c 0.09 -0.08 0.24 -0.24 0.32 -0.36 c 0.19 -0.26 0.32 -0.3 0.81 -0.25 c 0.3 0.03 0.37 0.05 0.45 0.14 c 0.25 0.22 0.14 -0.42 0.21 -0.64 c 0.09 -0.31 0.09 -0.78 0 -0.88 c -0.04 -0.04 -0.06 -0.12 -0.06 -0.18 c 0 -0.21 -0.08 -0.25 -0.5 -0.23 c -0.43 -0.08 -0.59 0.3 -0.96 0.31 c -0.29 0.02 -0.51 0.2 -0.8 0.24 c -0.5 -0.24 -0.97 -0.31 -1.48 -0.4 c -0.29 -0.05 -0.38 -0.02 -0.34 0.14 c -0.04 0.23 -0.18 0.43 -0.19 0.64 c -0.02 0.58 -0.07 1.01 -0.18 1.3 c -0.08 0.23 -0.1 0.35 -0.08 0.48 c 0.04 0.24 0.12 0.3 0.3 0.23 c 0.27 -0.14 0.22 0.14 0.22 0.3 c -0.01 0.32 -0.02 0.39 -0.12 0.53 c -0.06 0.09 -0.11 0.22 -0.11 0.29 c 0 0.14 0.09 0.38 0.17 0.41 c 0.1 0.06 1.09 0.48 1.12 0.02 c 0.01 -0.15 -0.24 -0.45 -0.09 -0.54 c 0.26 -0.14 0.28 -0.15 0.34 -0.08 c 0.07 0.14 0.06 0.3 0.17 0.4 c 0.11 0.1 0.13 0.1 0.37 0.08 l 0.26 -0.03 l -0.03 0.17 c -0.02 0.13 -0.07 0.2 -0.21 0.32 c -0.15 0.13 -0.2 0.15 -0.33 0.14 c -0.15 -0.02 -0.43 0.11 -0.43 0.18 c 0 0.02 0.37 0.06 0.46 0.09 c 0.29 0.11 -0.03 0.09 0.01 0.18 c 0.23 0.41 -1.04 1.14 -0.95 1.2 c 0.04 0.02 0.39 0.26 0.61 0.3 c 0.34 0 1.41 0.22 1.59 -0.17 c 0.05 -0.13 0.5 -0.64 0.63 -0.64 c 0.13 0 -0.32 0.64 -0.55 0.88 c -0.25 0.36 -0.61 0.25 -1.02 0.26 c -0.37 0.02 -0.69 0.04 -1.02 -0.11 c -0.14 -0.07 -0.28 -0.16 -0.31 -0.22 c -0.12 -0.21 -0.27 -0.18 -0.43 0.08 c -0.14 0.24 -0.45 0.61 -0.55 0.68 c -0.06 0.04 -0.19 0.13 -0.29 0.2 c -0.21 0.16 -0.4 0.17 -0.67 0.05 m -1 -1.44 c -0.12 -0.11 0.55 -0.19 0.72 -0.25 c 0.27 -0.23 0.12 -0.75 -0.14 -0.89 c -0.31 -0.16 0.06 -0.26 0.13 -0.42 c 0.08 -0.17 0.21 -0.26 0.4 -0.26 c 0.13 0 0.14 0.01 0.14 0.11 c 0 0.13 -0.1 0.23 -0.28 0.27 c -0.33 0.08 -0.24 0.3 -0.04 0.38 c 0.13 0.05 0.2 0.11 0.2 0.15 c 0 0.21 0.11 0.55 -0.04 0.69 c -0.14 0.09 -0.28 0.11 -0.34 0.24 c -0.07 0.18 -0.61 0.11 -0.74 -0.01 m -0.46 -0.51 c -0.28 -0.21 -0.52 -0.39 -0.8 -0.54 c -0.15 -0.08 -0.29 -0.48 -0.29 -0.55 c -0.05 -1.53 0.12 0.03 0.44 0.27 c 0.14 0.12 0.39 0.19 0.47 0.37 c 0.09 0.19 0.75 0.54 0.65 1 c 0 0.1 -0.35 -0.5 -0.47 -0.54 m 6.36 -0.08 c -0.02 -0.03 -0.02 -0.17 0 -0.33 c 0.03 -0.23 0.05 -0.31 0.16 -0.43 c 0.31 -0.39 -0.51 -0.54 -0.07 -0.71 c 0.11 -0.04 0.25 -0.14 0.33 -0.21 c 0.18 -0.18 0.27 -0.16 0.24 0.07 c -0.01 0.09 -0.04 0.3 -0.05 0.46 c -0.02 0.16 -0.07 0.41 -0.13 0.54 c -0.06 0.14 -0.11 0.29 -0.11 0.34 c 0 0.2 -0.28 0.4 -0.37 0.27 m -1.71 -0.21 c -0.22 -0.06 0.01 -0.2 0.22 -0.21 c 0.21 -0.02 0.35 0.02 0.35 0.11 c -0.08 0.17 -0.44 0.14 -0.57 0.11 m 0.6 -0.92 c 0.06 -0.01 0.21 -0.06 0.32 -0.1 c 0.27 -0.1 0.54 -0.1 0.57 0 c 0.03 0.09 -0.01 0.28 -0.08 0.36 c -0.06 0.07 -0.39 0.2 -0.5 0.2 c -0.18 -0.07 -0.57 -0.4 -0.32 -0.46 m -6.51 -0.5 c -0.12 -0.22 -0.25 -0.17 -0.48 -0.17 c -0.42 -0.01 -0.88 -0.28 -0.91 -0.46 c -0.02 -0.14 -0.15 -1.36 0.26 -0.19 c 0.19 0.09 0.15 0.23 0.32 0.36 c 0.14 0.05 0.5 0.04 0.69 -0.02 c 0.09 -0.03 0.22 -0.06 0.29 -0.06 c 0.27 0 0.43 0.4 0.26 0.61 c -0.14 0.16 -0.27 0.14 -0.42 -0.06 m 5.29 -0.71 c -0.07 -0.13 -0.09 -0.45 -0.04 -0.73 c 0.02 -0.14 0.02 -0.17 -0.05 -0.21 c -0.11 -0.05 -0.18 0 -0.27 0.16 c -0.05 0.11 -0.09 0.13 -0.23 0.14 c -0.18 0.02 -0.43 -0.09 -0.43 -0.18 c 0 -0.12 0.09 -0.21 0.26 -0.26 c 0.22 -0.06 0.89 -0.12 0.01 -0.16 c -0.28 -0.01 -0.5 -0.09 -0.55 -0.2 c -0.06 -0.16 -0.01 -0.22 0.25 -0.29 c 0.39 -0.1 0.57 -0.06 0.82 0.2 c 0.29 0.3 0.49 0.63 0.52 0.85 c 0.08 0.55 0.08 0.59 -0.02 0.7 c -0.12 0.14 -0.2 0.14 -0.29 -0.02 m -6 -0.14 c -0.09 -0.05 -0.33 -0.31 -0.32 -0.39 c 0.01 -0.09 0.25 0.12 0.46 0.07 c 0.24 0.02 0.35 -0.29 0.55 -0.3 c 0.15 0 0.14 0.17 -0.01 0.28 c -0.25 0.23 -0.38 0.48 -0.68 0.34 m -0.54 -0.29 c -0.14 -0.05 -0.13 -0.23 0.01 -0.29 c 0.14 -0.06 0.32 0.05 0.32 0.18 c 0 0.13 -0.14 0.18 -0.34 0.1 m 2 -0.38 c -0.11 -0.23 0.13 -0.45 0.29 -0.25 c 0.13 0.17 0.06 0.35 -0.14 0.35 c -0.06 0 -0.12 -0.04 -0.15 -0.1 m 1.11 -0.22 c -1.27 -0.22 -0.16 -0.86 -0.13 -1.29 l -0.27 -0.01 c -0.46 -0.05 -0.57 0.46 -0.95 0.66 c -0.05 0.03 -0.11 0.1 -0.12 0.18 c -0.02 0.07 -0.07 0.18 -0.11 0.23 c -0.08 0.09 -0.26 0.73 -0.32 0.66 c -0.11 -0.13 0.09 -0.94 0.24 -1.02 c 0.07 -0.04 0.26 -0.21 0.41 -0.38 c 0.16 -0.17 0.34 -0.32 0.39 -0.33 c 0.06 -0.01 0.13 -0.07 0.16 -0.16 c 0.36 -0.43 0.52 -0.08 0.69 -0.04 c 0.34 0.09 0.29 0.48 0.02 0.55 c -0.09 0.02 -0.12 0.06 -0.14 0.15 c -0.05 0.25 -0.04 0.31 0.11 0.38 c 0.2 0.09 0.6 0.42 0.64 0.52 c 0.05 0.11 0.08 0.27 -0.05 0.27 c -0.21 -0.05 -0.38 -0.37 -0.58 -0.37"/></svg>