<svg xmlns="http://www.w3.org/2000/svg" viewBox="0 0 16 16"><path d="m 0.16 9.84 c 0.75 6.44 9.43 8.16 13.45 3.57 c 3.52 -3.42 2.91 -9.95 -1.17 -12.2 c -4.68 -3 -11.78 0.71 -12.38 6.68 c -0.06 0.66 -0.03 1.32 0.1 1.95" style="fill:#4581b3"/><path d="m 9.68 4.24 h 2 c 0.5 0 0.9 0.43 0.9 0.95 v 1.84 c 0 0.52 -0.4 0.95 -0.9 0.95 h -2 c -0.5 0 -0.9 -0.43 -0.9 -0.95 v -1.84 c 0 -0.52 0.4 -0.95 0.9 -0.95" style="fill:#00bfff"/><path d="m 4.69 6.18 h 4 c 0.5 0 0.9 0.43 0.9 0.95 v 3.73 c 0 0.52 -0.4 0.95 -0.9 0.95 h -4 c -0.5 0 -0.9 -0.43 -0.9 -0.95 v -3.73 c 0 -0.52 0.4 -0.95 0.9 -0.95" style="fill:#b0c3de"/><path d="m 5.06 7 c 0 0.2 -0.16 0.36 -0.36 0.36 c -0.2 0 -0.36 -0.16 -0.36 -0.36 c 0 -0.2 0.16 -0.36 0.36 -0.36 c 0.2 0 0.36 0.16 0.36 0.36" style="fill:#fff"/><path d="m 6.08 7 c 0 0.2 -0.16 0.36 -0.36 0.36 c -0.2 0 -0.36 -0.16 -0.36 -0.36 c 0 -0.2 0.16 -0.36 0.36 -0.36 c 0.2 0 0.36 0.16 0.36 0.36" style="fill:#fffafa"/><path d="m 7 7 c 0 0.2 -0.16 0.36 -0.36 0.36 c -0.2 0 -0.36 -0.16 -0.36 -0.36 c 0 -0.2 0.16 -0.36 0.36 -0.36 c 0.2 0 0.36 0.16 0.36 0.36" style="fill:#ffe4e0"/><g style="fill:#eff8ff"><path d="m 9.93 5 c 0 0.16 -0.13 0.3 -0.29 0.3 c -0.16 0 -0.29 -0.13 -0.29 -0.3 c 0 -0.16 0.13 -0.3 0.29 -0.3 c 0.16 0 0.29 0.13 0.29 0.3"/><path d="m 10.79 5 c 0 0.16 -0.13 0.3 -0.29 0.3 c -0.16 0 -0.29 -0.13 -0.29 -0.3 c 0 -0.16 0.13 -0.3 0.29 -0.3 c 0.16 0 0.29 0.13 0.29 0.3"/></g></svg>