<svg xmlns="http://www.w3.org/2000/svg" viewBox="0 0 16 16"><path d="m 2.03 4.2 c -5.66 6.39 2.72 13.16 7.63 11.49 c 4.91 -1.66 8.2 -6.36 5 -10.47 c -3.21 -4.12 -6.36 -8.1 -12 -1.69" style="fill:#4069e0"/><path d="m 4.53 12.15 v -0.67 l 0.15 -0.14 c 0.08 -0.08 0.32 -0.25 0.52 -0.37 c 0.62 -0.37 1.66 -1.07 1.77 -1.19 c 0.27 -0.29 0.32 -0.11 0.32 1.18 v 1.06 l -0.33 0.09 c -0.18 0.05 -0.41 0.12 -0.49 0.16 c -0.09 0.04 -0.27 0.11 -0.41 0.13 c -0.13 0.03 -0.3 0.08 -0.37 0.12 c -0.07 0.04 -0.2 0.09 -0.31 0.11 c -0.11 0.03 -0.21 0.08 -0.25 0.12 c -0.04 0.05 -0.14 0.07 -0.33 0.07 h -0.27 m 3.26 -0.14 c 0 -0.11 -0.04 -0.18 -0.15 -0.29 c -0.09 -0.08 -0.18 -0.19 -0.21 -0.24 c -0.05 -0.09 -0.04 -0.1 0.11 -0.15 c 0.09 -0.03 0.18 -0.09 0.21 -0.14 c 0.03 -0.06 0.05 -0.42 0.04 -0.95 c 0 -0.47 0 -0.89 0.02 -0.93 c 0.06 -0.16 0.3 -0.15 0.37 0 c 0.02 0.04 0.03 0.46 0.03 0.93 c -0.01 0.52 0.01 0.89 0.04 0.95 c 0.03 0.05 0.12 0.11 0.21 0.14 c 0.15 0.05 0.16 0.06 0.11 0.15 c -0.03 0.05 -0.12 0.16 -0.21 0.24 c -0.11 0.11 -0.15 0.18 -0.15 0.29 c 0 0.14 -0.01 0.14 -0.21 0.14 c -0.2 0 -0.21 0 -0.21 -0.14 m 3.07 0.07 c -0.03 -0.04 -0.14 -0.09 -0.25 -0.12 c -0.1 -0.02 -0.24 -0.07 -0.31 -0.11 c -0.07 -0.04 -0.23 -0.09 -0.37 -0.12 c -0.14 -0.03 -0.32 -0.09 -0.41 -0.13 c -0.09 -0.04 -0.31 -0.11 -0.5 -0.16 l -0.33 -0.09 v -1.06 c 0 -1.29 0.05 -1.47 0.32 -1.18 c 0.11 0.12 1.15 0.82 1.77 1.19 c 0.2 0.12 0.43 0.29 0.52 0.37 l 0.15 0.14 v 1.33 h -0.27 c -0.18 0 -0.29 -0.02 -0.33 -0.07 m -3.69 -3.52 c -0.02 -0.04 -0.03 -0.89 -0.03 -1.89 c 0 -1.97 0.02 -2.18 0.26 -2.58 c 0.06 -0.1 0.11 -0.25 0.11 -0.34 c 0 -0.08 0.05 -0.23 0.11 -0.34 c 0.1 -0.17 0.11 -0.27 0.16 -1.25 c 0.05 -1.04 0.08 -1.19 0.21 -1.19 c 0.14 0 0.16 0.15 0.21 1.19 c 0.05 0.98 0.06 1.08 0.16 1.25 c 0.06 0.1 0.11 0.25 0.11 0.34 c 0 0.09 0.05 0.24 0.11 0.34 c 0.24 0.4 0.26 0.61 0.26 2.58 c 0 1 -0.01 1.85 -0.03 1.89 c -0.02 0.06 -0.14 0.07 -0.82 0.07 c -0.68 0 -0.8 -0.01 -0.82 -0.07" style="fill:#fff"/></svg>