<svg xmlns="http://www.w3.org/2000/svg" viewBox="0 0 16 16"><path d="m 2.03 4.13 c -5.66 6.45 2.72 13.27 7.63 11.59 c 4.91 -1.68 8.21 -6.41 5 -10.57 c -3.21 -4.15 -6.36 -8.16 -12 -1.71" style="fill:#37445f"/><path d="m 6.43 12.96 c -1.08 -0.65 -1.67 -1.64 -1.75 -2.94 c -0.02 -0.22 -0.07 -0.36 0.09 -0.52 c 0.18 -0.18 0.59 -0.54 0.65 -0.54 c 0.07 0 0.07 0.04 0.01 0.32 c -0.07 0.31 0.4 0.58 0.61 0.72 c 0.05 0.03 0.17 0.2 0.27 0.38 c 0.33 0.62 0.84 1.13 1.41 1.39 c 0.28 0.18 0.57 0.13 0.9 0.13 c 0.7 0 0.93 -0.04 1.41 -0.29 c 0.55 -0.28 0.92 -0.71 1.21 -1.45 c 0.07 -0.17 0.14 -0.48 0.15 -0.53 c 0.26 -1.3 -1.29 -2.78 -1.24 -2.73 c 0.01 0.02 1.61 0.32 1.89 2.75 c 0.06 0.57 -0.36 1.98 -0.85 2.58 c -0.38 0.47 -1.4 0.93 -2.06 1.09 c -0.93 0.19 -1.87 0.11 -2.69 -0.36" style="fill:#c2e7ed"/><path d="m 5.95 9.87 c -0.14 -0.14 -0.27 -0.25 -0.29 -0.25 c -0.41 -0.42 0.1 -1.11 0.2 -1.23 c 0.14 -0.21 0.34 -0.53 0.44 -0.71 c 0.1 -0.18 0.25 -0.41 0.34 -0.51 c 0.17 -0.19 0.43 -0.33 0.53 -0.29 c 0.08 0.03 0.25 0.41 0.28 0.64 c 0.04 0.23 -0.07 0.39 -0.43 0.75 c -0.6 0.58 -0.58 0.67 -0.24 0.78 c 0.16 0.05 0.29 0.06 0.73 0.05 c 0.59 -0.02 0.86 -0.07 0.96 -0.19 c 0.04 -0.04 0.11 -0.27 0.17 -0.57 c 0.15 -0.73 0.27 -0.87 0.45 -0.5 c 0.06 0.11 0.11 0.32 0.14 0.55 c 0.05 0.42 0.09 0.52 0.24 0.57 c 0.15 0.06 0.68 0.05 0.75 0 c 0.09 -0.07 0.08 -0.1 -0.07 -0.26 c -0.27 -0.3 -0.76 -1.52 -0.61 -1.52 c 0.09 0 0.25 0.16 0.41 0.38 c 0.34 0.47 0.88 1 1.21 1.14 c 0.1 0.08 0.27 0.27 0.38 0.53 c -0.14 0.21 -0.85 0.21 -1.16 0.23 c -0.48 0.04 -1.34 0.08 -1.91 0.1 c -0.79 -0.03 -2.16 0.3 -2.52 0.32" style="fill:#ffdeac"/><path d="m 8 11.8 c -0.21 -0.06 -0.37 -0.16 -0.75 -0.44 c -0.35 -0.26 -0.5 -0.41 -0.41 -0.41 c 0.04 0 0.09 -0.09 0.15 -0.22 c 0.11 -0.27 0.18 -0.38 0.45 -0.67 c 0.4 -0.43 0.05 -0.47 0.2 -0.44 c 0.24 0 1.69 -0.07 2.05 -0.09 c -0.01 -0.01 -0.11 0.02 -0.11 0.3 c 0 0.09 -0.03 0.33 -0.06 0.53 c -0.11 0.73 -0.06 0.95 0.27 1.15 c 0.17 0.1 0.16 0.11 -0.29 0.23 c -0.4 0.11 -1.21 0.14 -1.49 0.06" style="fill:#8dc896"/><path d="m 8.18 7.16 c -0.09 -0.04 -0.18 -0.11 -0.21 -0.16 c -0.06 -0.11 -0.01 -0.32 0.13 -0.54 c 0.31 -0.46 0.45 -0.85 0.45 -1.28 c 0 -0.3 0.02 -0.36 0.26 -0.61 c 0.1 -0.1 0.22 -0.25 0.28 -0.32 c 0.26 -0.33 0.5 0.2 0.46 1.15 c -0.02 0.57 -0.12 0.66 -0.34 0.66 c -0.29 0 -0.38 0.16 -0.41 0.69 c -0.01 0.28 -0.02 0.32 -0.11 0.4 c -0.13 0.11 -0.29 0.11 -0.5 0" style="fill:#ffdeac"/><path d="m 7.57 8.91 c 0 -0.16 -0.16 -0.58 -0.26 -0.7 l -0.08 -0.09 l 0.09 -0.12 c 0.2 -0.27 0.21 -0.55 0.04 -0.91 c -0.09 -0.19 -0.09 -0.19 -0.01 -0.19 c 0.2 -0.02 0.36 -0.06 0.56 -0.1 v 0.11 c 0 0.29 0.57 0.49 0.82 0.3 c 0.05 -0.04 0.1 -0.11 0.1 -0.15 c 0 -0.07 0 -0.07 0.12 -0.02 c 0.06 0.03 0.2 0.07 0.31 0.08 c 0.11 0.01 0.2 0.04 0.2 0.07 c 0 0.02 0.03 0.15 0.05 0.28 c 0.29 0.57 0.39 0.95 0.29 1.37 c -0.03 0.13 -0.07 0.14 -0.28 0.05 c -0.13 -0.05 -0.16 -0.08 -0.18 -0.2 c -0.18 -1.02 -0.3 -1.25 -0.53 -1.03 c -0.07 0.07 -0.12 0.21 -0.21 0.59 c -0.08 0.34 -0.15 0.54 -0.2 0.61 c -0.09 0.1 -0.36 0.17 -0.66 0.17 c -0.16 0 -0.17 0 -0.17 -0.13" style="fill:#8dc896"/><g style="fill:#78a6be"><path d="m 7.4 5.68 c -0.04 -0.02 -0.2 -0.07 -0.35 -0.1 c -0.4 -0.09 -0.5 -0.18 -0.5 -0.46 c 0 -0.19 0.03 -0.27 0.18 -0.48 c 0.1 -0.14 0.18 -0.28 0.18 -0.31 c 0 -0.11 0.11 -0.05 0.2 0.11 c 0.07 0.11 0.11 0.29 0.13 0.54 c 0.02 0.34 0.04 0.39 0.18 0.54 c 0.09 0.09 0.15 0.17 0.15 0.18 c 0 0.03 -0.07 0.02 -0.15 -0.02"/><path d="m 7.98 3.82 c 0.03 -0.02 0.06 -0.04 0.07 -0.03 c 0.01 0.01 0.27 0.05 0.57 0.1 c 0.31 0.05 0.57 0.1 0.59 0.12 c 0.04 0.04 -0.56 0.6 -0.64 0.6 c -0.18 -0.07 -0.55 -0.57 -0.59 -0.79"/></g><path d="m 4.62 9.56 c 0 -0.05 0.07 -0.46 0.1 -0.59 c 0.15 -0.57 0.48 -1.11 0.94 -1.54 c 0.37 -0.35 0.61 -0.5 1.39 -0.93 c 0.19 -0.11 0.39 -0.23 0.45 -0.28 c 0.13 -0.12 0.19 -0.26 0.17 -0.41 c -0.02 -0.14 -0.05 -0.22 -0.2 -0.42 c -0.19 -0.26 -0.2 -0.28 -0.2 -0.63 c 0 -0.37 -0.04 -0.5 -0.18 -0.69 c -0.19 -0.26 -0.35 -0.35 -0.68 -0.38 c -1.59 0.24 -1.74 1.75 -0.48 2.17 c 0.14 0.09 -1.4 0.26 -1.2 -1.43 c 0.05 -0.41 0.32 -0.84 0.7 -1.03 c 0.3 -0.14 0.7 -0.26 1.05 -0.26 c 0.34 0 0.59 0.05 0.89 0.19 c 0.43 0.21 0.56 0.61 0.82 1 c 0.08 0.12 0.17 0.24 0.2 0.27 c 0.3 0.15 0.18 0.01 0.12 0.54 c -0.03 0.46 -0.08 0.63 -0.38 1.17 c -0.11 0.2 -0.2 0.39 -0.21 0.43 c -0.02 0.08 0.01 0.07 -0.38 0.14 c -0.11 0.02 -0.2 0.04 -0.21 0.05 c 0 0 -0.05 -0.02 -0.09 -0.06 c -0.04 -0.04 -0.09 -0.07 -0.1 -0.07 c -0.07 0 -0.29 0.11 -0.4 0.2 c -0.17 0.14 -0.24 0.25 -0.54 0.73 c -0.29 0.48 -0.48 0.77 -0.58 0.88 c -0.04 0.05 -0.2 0.25 -0.32 0.34 c -0.25 0.16 -0.53 0.36 -0.62 0.54 c -0.03 0.06 -0.05 0.1 -0.05 0.08" style="fill:#8ebfd0"/><path d="m 8.25 4.9 c 0 0.27 -0.19 0.49 -0.42 0.49 c -0.23 0 -0.43 -0.22 -0.43 -0.49 c 0 -0.27 0.19 -0.49 0.43 -0.49 c 0.23 0 0.42 0.22 0.42 0.49" style="fill:#a8d6e0"/><path d="m 7.99 4.9 c 0 0.12 -0.09 0.21 -0.19 0.21 c -0.11 0 -0.19 -0.09 -0.19 -0.21 c 0 -0.12 0.08 -0.21 0.19 -0.21 c 0.1 0 0.19 0.09 0.19 0.21" style="fill:#dfffff"/></svg>