<svg xmlns="http://www.w3.org/2000/svg" viewBox="0 0 16 16"><path d="m 0.25 9.68 c 0.62 8.22 12.83 8.46 15.27 0.48 c 2.38 -6.47 -4.12 -11.75 -9.43 -9.63 c -3.52 1 -6.62 5.1 -5.84 9.16" style="fill:#2e2f31"/><path d="m 3 11.97 c -0.04 -0.03 -0.05 -0.65 -0.04 -2.94 l 0.01 -2.91 l 3.92 -0.01 c 3.11 -0.01 3.93 0 3.95 0.05 c 0.02 0.03 0.04 1.34 0.04 2.9 c 0 2.15 -0.01 2.86 -0.05 2.89 c -0.04 0.04 -0.97 0.05 -3.91 0.05 c -2.13 0 -3.89 -0.02 -3.92 -0.04 m 7.1 -0.91 l -0.01 -0.13 l -3.15 -0.01 c -2.77 -0.01 -3.16 0 -3.18 0.06 c -0.02 0.04 -0.02 0.1 0 0.14 c 0.02 0.06 0.42 0.07 3.19 0.07 h 3.17 m -3.57 -3.07 v -1.21 h -2.78 l -0.01 1.16 c -0.01 0.64 0 1.2 0.01 1.23 c 0.02 0.05 0.31 0.05 1.4 0.05 l 1.38 -0.01 m 3.55 -1.2 l -0.01 -1.22 h -1.3 l -0.01 1.22 l -0.01 1.23 h 1.35 m 1.11 -0.84 l -0.01 -2.71 l -3.74 -0.02 l -3.74 -0.02 v -0.73 h 8.2 l 0.02 6.2 h -0.72 m 1.17 -3.82 c 0 -1.73 -0.02 -2.67 -0.05 -2.73 c -0.05 -0.09 -0.14 -0.09 -3.77 -0.09 h -3.72 v -0.6 h 8.1 v 6 h -0.54" style="fill:#fff"/></svg>