<svg xmlns="http://www.w3.org/2000/svg" viewBox="0 0 16 16"><path d="m 8.15 15.91 c -1.65 -0.13 -3.58 -0.92 -4.92 -2 c -1.64 -1.33 -2.84 -3.37 -3.16 -5.39 c -0.39 -2.66 1.16 -5.52 2.91 -6.87 c 0.88 -0.66 2.04 -1.18 3.12 -1.41 c 2.83 -0.6 5.79 0.54 7.81 3 c 1.21 1.48 1.84 2.96 2 4.73 c 0.18 2.11 -0.65 4.37 -2.17 5.9 c -1.73 1.44 -3.52 2.21 -5.58 2.07" style="fill:#007c89"/><g style="fill:#fff"><path d="m 5.57 6.3 l 1.35 -0.96 v 5.51 l -1.35 -0.96 v -3.59"/><g style="fill-rule:evenodd"><path d="m 9.1 8.48 v -3.14 l 1.35 0.96 v 3.59 l -1.35 0.96 l -3.25 -4.73 l 1.09 -0.78 l 2.16 3.14"/><path d="m 10 11.7 c 0.21 -0.12 0.47 -0.05 0.59 0.16 c 0.12 0.21 0.05 0.47 -0.16 0.6 c -0.8 0.47 -1.71 0.7 -2.63 0.67 c -0.83 -0.03 -1.64 -0.28 -2.36 -0.71 c -0.2 -0.13 -0.27 -0.39 -0.15 -0.6 c 0.12 -0.21 0.39 -0.27 0.59 -0.15 c 0.59 0.36 1.26 0.56 1.95 0.59 c 0.76 0.03 1.51 -0.16 2.17 -0.55 m 1.61 -5.45 c -0.11 -0.21 -0.02 -0.48 0.19 -0.59 c 0.21 -0.11 0.47 -0.02 0.57 0.2 c 0.37 0.75 0.55 1.58 0.52 2.42 c -0.02 0.64 -0.16 1.26 -0.41 1.85 c -0.09 0.22 -0.35 0.32 -0.56 0.23 c -0.22 -0.1 -0.32 -0.36 -0.22 -0.57 c 0.21 -0.48 0.32 -1 0.34 -1.53 c 0.02 -0.69 -0.12 -1.38 -0.43 -2 m -5.4 -1.89 c -0.21 0.11 -0.47 0.01 -0.57 -0.21 c -0.1 -0.22 -0.01 -0.48 0.2 -0.58 c 0.71 -0.36 1.51 -0.52 2.3 -0.5 c 0.77 0.03 1.52 0.24 2.2 0.61 c 0.21 0.11 0.29 0.38 0.17 0.59 c -0.11 0.21 -0.37 0.29 -0.58 0.18 c -0.55 -0.31 -1.18 -0.48 -1.81 -0.51 c -0.66 -0.02 -1.31 0.12 -1.9 0.41 m -2.1 5.07 c 0.07 0.23 -0.05 0.48 -0.27 0.55 c -0.22 0.08 -0.46 -0.05 -0.54 -0.27 c -0.19 -0.57 -0.27 -1.17 -0.25 -1.77 c 0.02 -0.79 0.23 -1.57 0.61 -2.26 c 0.11 -0.21 0.38 -0.29 0.58 -0.17 c 0.2 0.12 0.28 0.38 0.17 0.59 c -0.31 0.57 -0.48 1.21 -0.5 1.87 c -0.02 0.5 0.05 0.99 0.2 1.46 m 7.55 -4.5 c -0.01 0.24 -0.21 0.43 -0.44 0.42 c -0.24 -0.01 -0.42 -0.21 -0.41 -0.45 c 0.01 -0.24 0.21 -0.43 0.45 -0.42 c 0.23 0.01 0.42 0.21 0.41 0.45 m -6.69 6.07 c -0.01 0.24 -0.2 0.43 -0.44 0.42 c -0.24 -0.01 -0.42 -0.21 -0.41 -0.45 c 0.01 -0.24 0.2 -0.43 0.44 -0.42 c 0.24 0.01 0.42 0.21 0.41 0.45 m 6.86 0.24 c 0.01 -0.24 -0.18 -0.44 -0.41 -0.45 c -0.23 -0.01 -0.43 0.18 -0.44 0.42 c -0.01 0.24 0.18 0.45 0.41 0.45 c 0.23 0.01 0.43 -0.18 0.45 -0.42 m -6.55 -6.52 c 0.01 -0.24 -0.18 -0.45 -0.41 -0.45 c -0.23 -0.01 -0.43 0.18 -0.44 0.42 c -0.01 0.24 0.18 0.44 0.41 0.45 c 0.23 0.01 0.43 -0.18 0.44 -0.42"/></g></g></svg>