<svg xmlns="http://www.w3.org/2000/svg" viewBox="0 0 16 16"><path d="m 0.25 7.96 c -1.09 -10.5 16.57 -10.43 15.6 0.27 c 0.78 10.1 -16.92 10.49 -15.6 -0.27" style="fill:#778799"/><path d="m 4.35 5 h 7.45 c 0.76 0 1.38 0.48 1.38 1.07 v 4.11 c 0 0.59 -0.61 1.07 -1.38 1.07 h -7.45 c -0.76 0 -1.37 -0.48 -1.37 -1.07 v -4.11 c 0 -0.59 0.62 -1.07 1.37 -1.07" style="fill:#3d3745"/><g style="fill:#a3a2a5"><path d="m 6.89 9.64 h 2.17 c 0.3 0 0.55 0.21 0.55 0.48 c 0 0.27 -0.25 0.48 -0.55 0.48 h -2.17 c -0.3 0 -0.55 -0.22 -0.55 -0.48 c 0 -0.27 0.25 -0.48 0.55 -0.48"/><path d="m 12.15 7.59 c 0 0.93 -0.75 1.68 -1.68 1.68 c -0.93 0 -1.68 -0.75 -1.68 -1.68 c 0 -0.93 0.75 -1.68 1.68 -1.68 c 0.93 0 1.68 0.75 1.68 1.68"/><path d="m 7.5 7.55 c 0 0.93 -0.75 1.68 -1.68 1.68 c -0.93 0 -1.68 -0.75 -1.68 -1.68 c 0 -0.93 0.75 -1.68 1.68 -1.68 c 0.93 0 1.68 0.75 1.68 1.68"/></g><g style="fill:#e36396"><path d="m 6.99 7.57 c 0 0.66 -0.53 1.2 -1.18 1.2 c -0.65 0 -1.18 -0.54 -1.18 -1.2 c 0 -0.66 0.52 -1.2 1.18 -1.2 c 0.65 0 1.18 0.54 1.18 1.2"/><path d="m 11.6 7.57 c 0 0.66 -0.53 1.2 -1.18 1.2 c -0.65 0 -1.18 -0.54 -1.18 -1.2 c 0 -0.66 0.53 -1.2 1.18 -1.2 c 0.65 0 1.18 0.54 1.18 1.2"/></g><path d="m 4.36 5.98 c 0 0.27 -0.22 0.48 -0.48 0.48 c -0.27 0 -0.48 -0.21 -0.48 -0.48 c 0 -0.27 0.21 -0.48 0.48 -0.48 c 0.27 0 0.48 0.21 0.48 0.48" style="fill:#3ccd80"/></svg>