<svg xmlns="http://www.w3.org/2000/svg" viewBox="0 0 16 16"><defs><linearGradient id="0" gradientUnits="userSpaceOnUse" x1="35.63" y1="74.1" x2="36.4" y2="5.61" gradientTransform="matrix(1.067 0 0 1.106 -5.54 -7)"><stop style="stop-color:#066ab3"/><stop offset="1" style="stop-color:#20cdf6"/></linearGradient><linearGradient id="1" gradientUnits="userSpaceOnUse" x1="77.1" y1="103.1" x2="74.5" y2="-19.94"><stop style="stop-color:#0c0c0c"/><stop offset="1" style="stop-color:#262626"/></linearGradient><linearGradient id="2" gradientUnits="userSpaceOnUse" x1="55.72" y1="61.2" x2="56.73" y2="30.51"><stop style="stop-color:#bc0000"/><stop offset="1" style="stop-color:#ff1616"/></linearGradient></defs><path d="m 1.71 3.39 c -5.74 6.68 5.38 16.68 11.86 10.79 c 7.27 -6.45 -3.83 -19.1 -11.1 -11.92 c -0.45 0.37 -0.5 0.75 -0.75 1.13" style="fill:#191919"/><g style="stroke:#000"><g style="stroke-width:1.55"><path d="m 38.1 -2.3 l -0.37 10.37 l 3.93 1.49 l -4 1.9 l 3.81 1.97 l -3.89 2.6 l 3.89 0.48 l -3.56 2.97 l 0.08 1.71 c -4.39 4.05 -5.96 9.15 -6.67 14.72 c -2.07 17.36 15.32 35.2 38.84 39.89 c 23.6 4.68 44.3 -5.61 46.4 -23 c 0.08 -0.78 0.12 -1.56 0.12 -2.38 c 5 -6.36 10.19 -11.9 13.87 -19 c -7.41 -0.89 -13.95 -0.78 -20.2 -0.45 c 3.52 -3.27 7.7 -7.55 11.18 -12.16 c -4.89 2.57 -9.52 3.83 -12.5 4.87 c 3.23 -4.09 6.17 -7.84 7.99 -11.9 l -13.29 7.18 l 4.26 -9.52 c -6.62 4.42 -11.14 6.32 -15.82 8.37 c -4.55 -2.23 -9.48 -3.9 -14.49 -4.94 c -6.67 -1.3 -14.1 -1.45 -20.37 -0.41 c -9.15 -9.41 -13.66 -11.38 -19.21 -14.72" transform="matrix(0.094 0 0 0.105 0.72 3.92)" style="fill:url(#0)"/><g style="fill:url(#1)"><path d="m 76.3 45.2 c 0 0 5.92 -11.1 20.1 -7.25 c 14.24 3.87 14 14.54 14 14.54 c 0 0 -5.55 10.71 -19.58 7.29 c -13.99 -3.46 -14.62 -14.57 -14.62 -14.57" transform="matrix(0.094 0 0 0.105 0.76 3.74)"/><path d="m 35.89 37.4 c 0 0 5.92 -11.1 20.1 -7.25 c 14.2 3.87 13.99 14.54 13.99 14.54 c 0 0 -5.55 10.74 -19.54 7.29 c -14 -3.42 -14.66 -14.57 -14.66 -14.57" transform="matrix(0.094 0 0 0.105 0.76 3.74)"/></g></g><g transform="matrix(0.094 0 0 0.105 0.81 3.74)"><g style="fill:none;stroke-linecap:round;stroke-width:2.12"><path d="m 62.2 56.91 l -9.56 -2.34"/><path d="m 60.98 60.4 l -8.49 -0.11"/><path d="m 75.3 59.96 l 12.55 2"/><path d="m 74.6 63.72 l 7.87 3.79"/><path d="m 71.2 67.1 c -1.2 -2.31 -2.36 -4.13 -3.81 -12.23 l 3.89 1.34 c -2.4 4.09 -4.97 7.14 -7.62 9.63" style="stroke-linejoin:round"/><path d="m 73.2 33 l -2.65 -5.39"/><path d="m 76.1 26.2 l 0.79 -5.21"/><path d="m 78.4 31.3 l 3.44 -4.68"/></g><g style="fill:url(#2);stroke-width:1.55"><path d="m 101.8 39.99 c -5.1 1.86 -8.41 6.62 -8.41 11.93 c 0 3.09 1.16 6.1 3.23 8.44 c 9.81 -0.22 13.83 -7.96 13.83 -7.96 c 0 0 0.12 -7.73 -8.65 -12.42"/><path d="m 61.4 32.3 c -5.1 1.82 -8.41 6.58 -8.41 11.93 c 0 3.09 1.16 6.1 3.27 8.44 c 9.81 -0.22 13.83 -7.96 13.83 -7.96 c 0 0 0.08 -7.73 -8.69 -12.42"/></g></g></g></svg>