<svg xmlns="http://www.w3.org/2000/svg" viewBox="0 0 16 16"><path d="m 14.63 11.77 c 4.3 -5.75 -2.58 -12.76 -8.13 -11.55 c -5.46 0.71 -8.76 9 -4.54 13.24 c 3.09 3.04 8.36 4.05 12.67 -1.7" style="fill:#6a8e22"/><path d="m 1.93 8.1 h 11.95 c 0 0 0 0.11 0 0.25 c 0 0.14 0 0.25 0 0.25 h -11.95 c 0 0 0 -0.11 0 -0.25 c 0 -0.14 0 -0.25 0 -0.25" style="fill:#dcdcdc"/><path d="m 4.06 6.33 h 7.66 c 0.34 0 0.61 0.27 0.61 0.61 v 2.52 c 0 0.34 -0.27 0.61 -0.61 0.61 h -7.66 c -0.34 0 -0.61 -0.28 -0.61 -0.61 v -2.52 c 0 -0.34 0.27 -0.61 0.61 -0.61" style="fill:#d0bea8"/><path d="m 4.51 6.34 h 0.86 v 3.71 h -0.86" style="fill:#734206"/><path d="m 5.82 6.32 h 0.86 v 3.71 h -0.86" style="fill:#f00"/><path d="m 7.2 6.34 h 0.86 v 3.71 h -0.86"/><path d="m 10.54 6.34 h 0.86 v 3.71 h -0.86" style="fill:#ffd600"/></svg>