<svg xmlns="http://www.w3.org/2000/svg" viewBox="0 0 16 16"><path d="m 15.87 6.17 c -2.57 -15 -24.66 1.1 -12 8.72 c 4.89 3.27 13.35 -1.01 12 -8.72" style="fill:#007f7f"/><path d="m 5.51 10.76 c 0 -0.03 0.06 -0.3 0.14 -0.61 c 0.57 -2.2 1.57 -3.84 3 -4.91 c 0.48 -0.36 0.73 -0.51 1.54 -0.96 c 0.59 -0.32 1.73 -0.7 2.56 -0.84 c 0.31 -0.19 0.61 0.12 0.45 0.21 c -0.05 0.02 -0.97 0.94 -2.06 2.04 l -1.98 1.99 c -0.29 -0.05 -0.29 -0.07 -0.57 -0.05 l -0.89 0.9 c -0.49 0.49 -1.19 1.21 -1.55 1.59 c -0.36 0.38 -0.66 0.67 -0.66 0.64" style="fill:#ff5d81"/><path d="m 7.38 10.27 c 1.43 -1.48 1.75 -1.82 1.84 -1.95 c 0.11 -0.16 0.09 -0.36 -0.05 -0.51 c -0.12 -0.12 -0.12 -0.12 -0.03 -0.12 c 0.12 0 0.38 -0.25 2.05 -1.95 c 1.61 -1.64 2.13 -2.14 2.19 -2.11 c 0.11 0.07 0.02 0.5 -0.39 1.91 c -0.21 0.72 -0.4 1.16 -0.85 1.92 c -0.13 0.21 -0.13 0.21 -0.43 0.27 c -0.43 0.08 -0.7 0.16 -0.7 0.23 c 0 0.03 0.06 0.13 0.13 0.22 c 0.25 0.32 0.16 0.55 -0.4 1.06 c -1 0.93 -2.27 1.6 -3.86 2.05 c -0.28 0.08 -0.55 0.16 -0.6 0.18 c -0.04 0.02 0.45 -0.52 1.1 -1.19" style="fill:#b7457d"/><path d="m 4.19 12.84 c -0.23 -0.23 -0.21 -0.36 0.1 -0.71 c 0.57 -0.64 4.05 -4.16 4.29 -4.33 c 0.11 -0.08 0.14 -0.09 0.29 -0.04 c 0.2 0.06 0.3 0.19 0.3 0.38 c 0 0.11 -0.05 0.2 -0.2 0.37 c -0.3 0.34 -3 3.12 -3.75 3.84 c -0.73 0.72 -0.78 0.74 -1.04 0.49" style="fill:#4b438c"/><path d="m 3.53 11.19 c -0.36 -0.36 -0.51 -0.93 -0.58 -2.11 c -0.09 -1.59 0.35 -2.79 1.46 -3.99 c 0.71 -0.77 1.77 -1.35 2.86 -1.57 c 0.8 -0.16 2 -0.02 2.79 0.32 l 0.49 0.21 l -0.66 0.35 c -0.36 0.19 -0.92 0.55 -1.23 0.79 c -0.38 0.28 -0.38 0.44 -0.91 0.44 c -0.53 0 -1.23 0.33 -1.74 0.81 c -0.86 0.82 -1.18 1.79 -1 3.05 c 0.12 0.86 -0.01 1.43 -0.41 1.74 c -0.38 0.3 -0.76 0.29 -1.08 -0.04" style="fill:#51d1fb"/><path d="m 6.85 14.1 c -0.46 -0.11 -1.13 -0.43 -1.74 -0.84 l -0.41 -0.27 c 0.32 -0.29 0.64 -0.59 0.96 -0.89 l 0.29 0.23 c 0.84 0.66 2.64 0.8 3.75 0.3 c 0.85 -0.39 1.7 -1.24 2.09 -2.09 c 0.27 -0.58 0.31 -0.82 0.32 -1.72 c 0 -0.78 -0.06 -1.18 0.09 -1.46 c 0.27 -0.37 0.44 -0.7 0.59 -1.12 l 0.24 0.71 c 0.68 1.99 0.28 4 -1.08 5.52 c -1.08 1.18 -2.33 1.74 -3.84 1.72 c -0.46 -0.01 -1.03 -0.05 -1.26 -0.11" style="fill:#0d9cbf"/></svg>