<svg xmlns="http://www.w3.org/2000/svg" viewBox="0 0 16 16"><path d="m 15.23 11.75 c -3.13 7.49 -15.24 4.15 -15.2 -4 c -0.12 -7.42 9.51 -10.23 13.73 -4.95 c 2.11 2.29 2.85 6.07 1.43 8.96" style="fill:#ee1970"/><g style="fill:#fff"><path d="m 6.07 14.71 c -0.43 -0.07 -0.81 -0.26 -1 -0.51 c -0.31 -0.4 -0.39 -1.05 -0.18 -1.45 c 0.16 -0.28 0.47 -0.41 1.24 -0.52 c 0.56 -0.08 0.73 -0.14 0.92 -0.36 c 0.19 -0.21 0.23 -0.32 0.24 -0.57 c 0 -0.19 -0.02 -0.25 -0.17 -0.57 c -0.3 -0.63 -0.78 -1.49 -1.01 -1.77 c -0.15 -0.24 -2.14 0.86 -2.43 1.04 c -0.57 0.36 -1.08 0.64 -1.34 0.73 c -1.39 0.11 -1.31 -1.37 -0.65 -2.16 c 0.19 -0.2 0.63 -0.45 1.74 -1.02 c 0.52 -0.27 1.17 -0.6 1.43 -0.74 c 0.57 -0.31 0.54 -0.24 0.37 -0.92 c -0.23 -0.86 -0.25 -0.98 -0.27 -1.55 c -0.03 -0.93 0.09 -1.34 0.5 -1.79 c 0.77 -0.82 2.32 -1.22 3.18 -0.82 c 0.32 0.15 0.58 0.43 0.79 0.86 c 0.18 0.38 0.29 0.68 0.51 1.48 c 0.23 0.83 0.27 0.89 0.5 0.89 c 0.24 0 0.46 -0.13 0.64 -0.38 c 0.16 -0.22 0.23 -0.38 0.57 -1.25 c 0.13 -0.32 0.33 -0.79 0.46 -1.04 c 0.39 -0.96 2 1.13 1.85 1.38 c -0.02 0.04 -0.11 0.25 -0.18 0.45 c -0.35 0.98 -0.62 1.37 -1.96 2.82 c -0.28 0.3 -0.54 0.61 -0.57 0.67 c -0.09 0.2 -0.04 0.29 0.45 0.73 c 0.68 0.61 1.15 1.17 1.36 1.59 c 0.23 0.47 0.59 1.47 0.88 2.47 c 0.31 0.78 -0.96 1.59 -1.42 1.6 c -0.51 0 -0.69 -0.05 -0.89 -0.22 c -0.22 -0.19 -0.31 -0.46 -0.37 -1.12 c -0.09 -0.95 -0.43 -1.65 -0.93 -1.9 c -0.17 -0.09 -0.23 -0.1 -0.4 -0.09 h -0.19 l -0.01 0.23 c 0 0.13 -0.03 0.5 -0.05 0.82 c -0.14 1.67 -0.63 2.3 -2.06 2.75 c -0.66 0.2 -1.17 0.27 -1.54 0.21 m 1.77 -9.52 c 0.62 -0.18 1.18 -0.48 1.34 -0.71 c 0.09 -0.13 0.09 -0.15 0.09 -0.49 c 0 -0.34 -0.01 -0.36 -0.16 -0.72 c -0.27 -0.64 -0.54 -0.89 -1 -0.93 c -0.29 -0.02 -0.61 0.06 -0.98 0.24 c -0.47 0.24 -0.68 0.52 -0.73 1 c -0.04 0.56 0.01 1.2 0.51 1.53 c 0.3 0.18 0.5 0.2 0.92 0.08"/><path d="m 8.63 4.41 c -0.08 -0.11 -0.18 -0.58 -0.14 -0.68 c 0.02 -0.04 0.07 -0.09 0.14 -0.12 c 0.13 -0.05 0.21 0.01 0.32 0.25 c 0.1 0.21 0.09 0.35 -0.05 0.51 c -0.14 0.16 -0.18 0.17 -0.27 0.05"/><path d="m 8.28 3.22 c -0.13 -0.16 -0.14 -0.32 -0.05 -0.42 c 0.07 -0.08 0.22 -0.04 0.32 0.09 c 0.1 0.12 0.09 0.34 -0.02 0.41 c -0.12 0.08 -0.13 0.07 -0.26 -0.08"/></g></svg>