<svg xmlns="http://www.w3.org/2000/svg" viewBox="0 0 16 16"><path d="m 0.76 10.98 c -6 -19.45 26.3 -9.73 11.18 3.6 c -3 2.67 -9.56 1.64 -11.18 -3.6" style="fill:#3d005f"/><path d="m 4.48 10 c 0 -0.23 -0.04 -0.43 -0.27 -0.43 c -0.1 0 -0.24 0.09 -0.23 -0.11 c 0 -0.04 0.01 -0.17 -0.01 -0.22 c -0.03 -0.07 0.02 -0.11 0.17 -0.14 c 0.28 -0.06 0.24 -0.14 0.24 -0.37 c 0 -0.16 0.16 -0.2 0.28 -0.2 c 0.2 0 0.3 -0.12 0.3 -0.37 c 0 -0.19 -0.02 -0.21 -0.21 -0.25 c -0.3 -0.06 -0.43 0.01 -0.43 0.23 c 0 0.16 -0.02 0.19 -0.18 0.19 c -0.23 0 -0.33 0.11 -0.33 0.34 c 0.08 0.39 0.02 0.38 -0.41 0.34 v -0.76 c -0.01 -0.86 -0.07 -0.89 -0.31 -0.92 c -0.2 -0.02 -0.2 -0.02 -0.22 -0.43 c -0.02 -0.51 0.05 -0.68 0.31 -0.68 c 0.19 0 0.19 0 0.19 -0.38 c 0 -0.57 0.04 -0.66 0.29 -0.71 c 0.21 -0.04 0.22 -0.05 0.22 -0.36 c 0 -0.49 -0.06 -0.73 0.2 -0.73 c 0.2 0 0.3 0.01 0.28 -0.35 c -0.02 -0.25 0.14 -0.21 0.43 -0.19 c 0.08 0.01 0.11 0.07 0.11 0.23 c 0 0.25 0.29 0.12 0.56 0.19 c 0.12 0.03 0.04 0.33 0.03 0.41 c -0.02 0.24 0.01 0.28 0.21 0.28 c 0.3 0 0.29 -0.12 0.27 -0.38 c -0.02 -0.21 -0.04 -0.22 -0.26 -0.24 l -0.24 -0.02 v -0.96 c 0.54 -0.09 0.99 -0.08 1.53 -0.08 l 0.02 0.51 l 0.02 0.51 c 0.18 0.02 0.37 0.03 0.55 0.04 l -0.04 -0.39 c -0.07 -0.63 -0.03 -0.67 0.73 -0.67 c 0.35 0 0.68 0.02 0.73 0.04 c 0.07 0.03 0.1 0.12 0.1 0.29 c 0 0.25 0 0.25 0.27 0.27 c 0.41 -0.02 0.1 0.5 0.38 0.5 c 0.4 -0.04 0.44 0 0.43 0.31 c -0.02 0.42 0.08 0.21 0.26 0.23 c 0.18 0.03 0.23 0.07 0.24 0.2 c 0.04 0.41 0.07 0.46 0.26 0.46 c 0.17 0 0.18 0.02 0.22 0.34 c 0.05 0.46 0.05 1.05 -0.01 1.15 c -0.02 0.04 -0.23 0.05 -0.32 0.06 c -0.13 0.02 -0.05 0.1 -0.07 0.31 c -0.02 0.23 -0.01 0.25 0.17 0.25 c 0.12 0 0.2 0.04 0.23 0.11 c 0.06 0.16 -0.31 0.77 -0.56 0.66 c -0.21 -0.09 -0.31 -0.79 -0.82 -0.87 c -0.21 -0.03 -0.34 -0.13 -0.34 -0.28 c 0 -0.17 -0.25 -0.21 -0.34 -0.09 c -0.09 0.11 0.18 0.31 -0.3 0.23 c -0.56 -0.09 -1.05 0.01 -1.59 0 c -0.3 0 -0.29 0.09 -0.29 -0.07 c 0 -0.09 -0.02 -0.12 -0.06 -0.12 c -0.32 -0.03 -0.2 0.1 -0.2 0.18 c 0 0.18 -0.04 0.27 -0.39 0.25 c -0.23 -0.02 -0.24 -0.01 -0.28 0.25 c -0.04 0.26 -0.05 0.27 -0.29 0.27 h -0.25 v 0.3 c 0 0.43 0.44 0.05 0.43 0.42 c 0 0.43 0.21 0.62 -0.47 0.61 c -0.04 0.45 0.04 0.79 -0.09 0.8 c -0.13 0 -0.88 0.16 -0.88 0.01 m -0.1 -2.93 c 0.02 -0.24 0.02 -0.24 -0.24 -0.27 l -0.26 -0.03 c 0 0.19 0 0.38 0 0.57 l 0.24 -0.02 c 0.24 -0.02 0.25 0.12 0.26 -0.26 m 1 0.23 c 0.07 -0.02 0.1 -0.12 0.1 -0.26 c 0 -0.22 0 -0.22 -0.29 -0.22 h -0.29 v 0.26 c 0 0.25 0.01 0.27 0.18 0.27 c 0.11 0 0.23 -0.02 0.29 -0.04 m 4.83 -0.78 c 0 -0.23 -0.23 -0.26 -0.53 -0.26 c -0.16 0 -0.04 -0.06 -0.05 -0.29 c -0.02 -0.2 -0.05 -0.25 -0.17 -0.27 c -0.18 -0.03 -0.26 0.08 -0.26 0.33 c 0 0.16 0.02 0.18 0.22 0.18 c 0.21 0 0.22 0.01 0.22 0.25 c 0 0.14 0.01 0.27 0.03 0.29 c 0.02 0.02 0.15 0.02 0.29 0 c 0.25 -0.02 0.26 -0.04 0.26 -0.24 m -2.7 -0.09 c -0.02 -0.19 -0.37 -0.15 -0.39 -0.01 c -0.01 0.04 -0.06 0.26 0 0.26 c 0.28 -0.03 0.43 0.16 0.39 -0.25 m 0.92 0.03 c -0.04 -0.24 -0.21 -0.05 -0.31 -0.05 c -0.15 0 -0.08 0.29 -0.01 0.34 c 0.05 0.04 0.18 -0.06 0.29 -0.06 c 0.15 0 0.05 -0.14 0.04 -0.23 m -3.96 -0.76 c -0.19 0 -0.38 0 -0.57 0 c 0 0.18 0 0.35 0 0.53 c 0.19 0 0.38 0 0.57 0 c 0 -0.18 0 -0.35 0 -0.53 m 2.05 0.26 c 0 -0.26 0 -0.26 -0.26 -0.26 c -0.25 0 -0.25 0 -0.25 0.26 c 0 0.27 0 0.27 0.25 0.27 c 0.26 0 0.26 0 0.26 -0.27 m 1.05 -1.35 h -0.51 c -0.49 0 -0.52 0.01 -0.54 0.15 c -0.04 0.3 -0.12 0.39 0.43 0.37 l 0.65 -0.03 c 0.16 0 -0.03 -0.33 -0.04 -0.49 m 1.05 0.23 c 0 -0.2 -0.03 -0.27 -0.13 -0.3 c -0.25 -0.08 -0.39 0.02 -0.39 0.3 c 0 0.26 0 0.26 0.26 0.26 c 0.25 0 0.25 0 0.25 -0.26 m 0.51 -0.79 c 0 -0.54 -0.1 -0.4 -0.39 -0.4 c -0.11 0 -0.12 0.13 -0.12 0.62 c 0 0.26 0.04 0.3 0.3 0.3 h 0.21" style="fill:#ee79ed"/><path d="m 6.53 13.37 c -0.07 -0.04 -0.08 -0.22 -0.08 -2.57 v -2.53 h 0.2 c 0.31 0 0.34 -0.02 0.34 -0.28 c 0 -0.2 0 -0.32 0.09 -0.36 c 0.72 0.03 0.9 0.01 1.65 -0.02 c -0.02 0.61 0.37 0.29 0.39 0.47 c 0.19 0.02 0.41 0.13 0.6 0.15 l 0.03 0.27 l 0.05 0.45 h 0.71 c -0.03 1.06 0.86 0.2 0.93 0.77 c 0 0.23 0.05 0.29 0.29 0.28 c -0.03 0.61 0.58 0.18 0.67 0.71 c -0.02 0.34 -0.46 0.74 -0.46 0.82 c 0 0.13 -0.01 0.13 -0.19 0.13 c -0.29 0 -0.77 0.09 -0.81 0.16 c -0.02 0.03 -0.03 0.13 -0.03 0.23 c 0 0.14 -0.02 0.35 -0.09 0.35 c -0.27 0 -1.02 -0.07 -1.05 -0.02 c -0.02 0.03 -0.02 0.13 -0.01 0.22 l 0.02 0.18 c -0.38 0.05 -0.79 0.05 -1.11 0.03 l -0.02 -0.18 c -0.04 -0.28 -0.07 -0.3 -0.34 -0.3 h -0.24 v 0.51 c 0 0.45 -0.01 0.51 -0.09 0.55 c -0.11 0.06 -1.35 0.06 -1.45 0 m 2.4 -4 c -0.15 -0.01 -0.35 -0.01 -0.32 -0.11 c -0.03 -0.15 0.03 -0.47 0 -0.49 c -0.03 -0.02 -0.16 -0.04 -0.27 -0.04 c -0.34 0.05 -0.25 0.06 -0.25 -0.46 c -0.2 0 -0.39 0 -0.58 0 c -0.01 0.16 0.04 0.41 -0.01 0.53 c -0.26 0.02 -0.28 0.01 -0.54 0.01 l 0.02 0.88 c 0.49 -0.04 0.39 0 0.42 0.5 c 1.67 -0.11 1.6 0.25 1.54 -0.81 m 1.84 2.35 c 0.13 -0.03 0.14 -0.04 0.14 -0.23 c 0 -0.3 -0.03 -0.34 -0.25 -0.34 c -0.24 0 -0.34 0.09 -0.34 0.3 c 0 0.3 0.07 0.35 0.44 0.27" style="fill:#d156d5"/></svg>