<svg xmlns="http://www.w3.org/2000/svg" viewBox="0 0 16 16"><path d="m 14.63 4.23 c 4.3 5.75 -2.58 12.76 -8.13 11.55 c -5.46 -0.71 -8.76 -9 -4.54 -13.24 c 3.09 -3.04 8.36 -4.05 12.67 1.7" style="fill:#e86a21"/><path d="m 10.1 12.1 c -0.23 -0.17 -1.27 -0.74 -1.3 -0.93 c 0 -0.07 0.83 -1.33 1 -1.53 c 0.16 -0.18 0.56 -0.38 0.88 -0.42 c 0.14 -0.02 0.29 -0.05 0.32 -0.07 c 0.03 -0.02 0.35 -0.59 0.7 -1.28 c 0.36 -0.69 0.68 -1.28 0.71 -1.32 c 0.39 -0.32 0.81 0.01 0.81 0.37 c 0 0.22 -0.04 0.29 -0.66 1.49 l -0.66 1.26 l 0.12 0.25 c 0.16 0.33 0.24 0.8 0.19 1.09 c -0.25 0.57 -0.35 1.18 -0.68 1.7 c -0.51 -0.11 -0.99 -0.37 -1.44 -0.61 m -5.76 0.1 c -0.2 -0.07 -0.47 -0.37 -0.53 -0.58 c -0.06 -0.22 -0.06 -6.49 0 -6.71 c 0.06 -0.22 0.36 -0.53 0.57 -0.59 c 0.21 -0.06 0.5 -0.06 0.56 0 c 0.03 0.03 0.05 0.18 0.05 0.39 c 0 0.41 0.06 0.57 0.27 0.74 c 0.24 0.16 0.57 0.16 0.76 0 c 0.21 -0.16 0.27 -0.33 0.27 -0.74 c 0 -0.21 0.02 -0.36 0.05 -0.39 c 0.07 -0.07 3.1 -0.07 3.17 0 c 0.03 0.03 0.05 0.18 0.05 0.39 c 0 0.41 0.06 0.57 0.27 0.74 c 0.23 0.16 0.57 0.16 0.76 0 c 0.21 -0.16 0.27 -0.33 0.27 -0.74 c 0 -0.21 0.02 -0.36 0.05 -0.39 c 0.06 -0.06 0.36 -0.07 0.56 0 c 0.21 0.06 0.51 0.37 0.57 0.59 c 0.06 0.63 0.04 1.1 0.04 1.75 c -0.11 0.17 -0.42 0.94 -0.54 0.85 c -0.04 -0.04 -0.05 -0.17 -0.05 -0.52 c 0 -0.52 -0.04 -0.66 -0.21 -0.74 c -0.08 -0.04 -0.92 -0.05 -3.35 -0.05 c -3.52 0 -3.41 -0.01 -3.51 0.23 c -0.04 0.08 -0.05 0.73 -0.05 2.5 c 0 2.6 0 2.57 0.21 2.67 c 0.07 0.04 0.67 0.05 2.26 0.05 h 2.16 c 0.17 0.11 0.91 0.45 0.82 0.55 c -0.07 0.09 -5.25 0.09 -5.48 0 m 0.31 -0.89 c -0.02 -0.31 -0.01 -0.55 0 -0.87 c 0.45 0 0.89 0 1.34 0 c 0 0.3 0 0.6 0 0.9 c -0.4 -0.06 -0.85 -0.05 -1.34 -0.03 m 0 -1.31 c -0.02 -0.31 -0.01 -0.55 0 -0.87 c 0.45 0 0.89 0 1.34 0 c 0 0.3 0 0.6 0 0.9 c -0.57 0.01 -0.92 -0.02 -1.34 -0.03 m 1.73 0 c -0.02 -0.31 -0.01 -0.55 0 -0.87 c 0.45 0 0.89 0 1.34 0 c 0 0.3 0 0.6 0 0.9 c -0.43 -0.04 -0.87 0.05 -1.34 -0.03 m 1.73 0 c -0.02 -0.31 0 -0.55 0 -0.87 c 0.45 0 0.89 0 1.34 0 l 0.01 0.23 c -0.01 0.34 -0.13 0.42 -0.32 0.7 h -0.5 c -0.38 0 -0.51 -0.02 -0.53 -0.05 m -3.46 -1.31 c -0.02 -0.31 -0.01 -0.55 0 -0.87 c 0.45 0 0.89 0 1.34 0 c 0 0.3 0 0.6 0 0.9 l -0.66 0.01 c -0.53 0.01 -0.66 0 -0.68 -0.04 m 1.73 0 c -0.02 -0.31 -0.01 -0.55 0 -0.87 c 0.45 0 0.89 0 1.34 0 c 0 0.3 0 0.6 0 0.9 c -0.52 0.04 -1.08 0.02 -1.34 -0.03 m 1.73 0 c -0.02 -0.31 -0.01 -0.55 0 -0.87 c 0.45 0 0.89 0 1.34 0 c 0 0.3 0 0.6 0 0.9 l -0.66 0.01 c -0.53 0.01 -0.66 0 -0.68 -0.04 m 1.73 0 c -0.02 -0.31 0 -0.55 0 -0.87 c 0.45 0 0.89 0 1.34 0 l 0.01 0.2 c -0.01 0.31 -0.11 0.43 -0.25 0.7 c -0.32 -0.04 -0.89 -0.02 -1.1 -0.03 m -1.73 -1.31 c -0.02 -0.31 -0.01 -0.54 0 -0.87 c 0.45 0 0.89 0 1.34 0 c 0 0.3 0 0.6 0 0.9 l -0.66 0.01 c -0.53 0.01 -0.66 0 -0.68 -0.05 m 1.73 0 c -0.02 -0.31 0 -0.54 0 -0.87 c 0.45 0 0.89 0 1.34 0 c 0 0.3 0 0.6 0 0.9 l -0.66 0.01 c -0.53 0.01 -0.66 0 -0.68 -0.05 m -4.39 -2.1 c -0.2 -0.11 -0.23 -0.23 -0.23 -0.94 c 0 -0.71 0.03 -0.83 0.23 -0.94 c 0.14 -0.08 0.21 -0.08 0.36 0 c 0.21 0.11 0.24 0.23 0.24 0.94 c 0 0.71 -0.03 0.83 -0.24 0.94 c -0.14 0.08 -0.22 0.07 -0.36 0 m 4.56 0 c -0.2 -0.11 -0.23 -0.23 -0.23 -0.94 c 0 -0.71 0.03 -0.83 0.23 -0.94 c 0.14 -0.08 0.21 -0.08 0.36 0 c 0.21 0.11 0.23 0.23 0.23 0.94 c 0 0.71 -0.03 0.83 -0.23 0.94 c -0.14 0.08 -0.23 0.07 -0.36 0" style="fill:#fff"/><path d="m 9.79 9.97 c 0 -0.12 0.1 -0.19 0.21 -0.29 c 0.06 -0.06 0.09 -0.03 0.16 0 c 0.13 0.06 1.54 0.84 1.76 0.98 c 0.09 0.05 0.18 0.11 0.19 0.13 c 0.04 0.05 -0.03 0.41 -0.08 0.41 c -0.73 -0.41 -1.55 -0.73 -2.24 -1.23" style="fill:#e86a21"/></svg>