<svg xmlns="http://www.w3.org/2000/svg" viewBox="0 0 16 16"><path d="m 13.17 2.38 c 12.46 16.58 -21.83 18.93 -10.82 2 c 2.51 -3.86 7.53 -6.4 10.82 -2" style="fill:#7092a6"/><path d="m 6.34 13.72 c -2.71 -0.25 -4.64 -1.04 -4.77 -1.95 c -0.07 -0.42 0.29 -1.46 1.01 -1.25 c 6 1.69 7.27 -1.28 10 -0.21 c 0.75 0.3 1.31 0.71 1.45 1.09 c 0.37 0.99 -1.32 1.91 -4.16 2.27 c -0.63 0.08 -2.89 0.12 -3.54 0.06" style="fill:#87d75b"/><path d="m 2.34 10.84 c 0.05 -0.39 0.03 -0.75 0.1 -1.14 c -0.16 0.05 0.25 -0.11 0.39 -0.15 c 0.43 -0.13 0.49 -0.2 0.53 -0.54 c 0.02 -0.17 -0.06 -0.34 -0.02 -0.38 c 0.07 -0.07 0.81 -0.25 0.98 -0.25 c 0.05 0 -0.05 -0.06 -0.02 -0.41 c 0.02 -0.3 0.09 -0.52 0.13 -0.55 c 0.04 -0.03 0.3 -0.09 0.46 -0.12 c 0.17 -0.03 0.34 -0.09 0.38 -0.13 c 0.11 -0.33 -0.09 -0.7 0.13 -1.09 l 0.46 -0.12 c 0.49 -0.05 0.48 -0.35 0.51 -1.05 l 0.21 -0.08 c 0.12 -0.05 0.3 -0.12 0.42 -0.16 c 0.23 -0.08 0.33 -0.24 0.33 -0.54 c 0 -0.14 -0.05 -0.36 0.03 -0.45 c 0.14 -0.15 0.73 -0.27 0.81 -0.18 c 1.67 0.05 2.45 -0.01 3.83 0.12 c 0.04 2.87 -0.12 6.09 -0.15 8.3 c -3.13 0.07 -9.62 0.66 -9.53 -1.08 m 3.17 -0.14 c 0 -0.19 -0.07 -0.41 -0.2 -0.43 c -0.3 -0.07 -2.54 -0.41 -2.62 -0.41 c -0.13 0.14 -0.14 0.46 -0.02 0.63 c 0.59 0.09 2.8 0.55 2.83 0.22 m 0.24 -0.79 c -0.57 -0.18 -2.23 -0.45 -2.42 -0.39 c -0.3 0.08 -0.21 0.16 0.3 0.25 c 0.55 0.1 1.56 0.25 1.89 0.27 c 0.21 -0.07 0.19 -0.02 0.23 -0.13 m 0.54 -0.8 c -0.17 -0.14 -1.38 -0.21 -2.43 -0.32 l -0.37 -0.04 v 0.22 c 0 0.26 -0.04 0.24 0.8 0.39 c 0.78 0.14 1.52 0.23 1.65 0.21 c 0.25 0.01 0.5 -0.33 0.35 -0.46 m 0.42 -0.27 c 0.11 -0.07 -0.43 -0.06 -1.16 -0.18 c -1.01 -0.16 -1.39 -0.2 -1.39 -0.13 c 0 0.03 0.04 0.07 0.09 0.09 c 0.09 0.03 0.86 0.15 1.55 0.25 c 0.18 0.02 0.34 0.05 0.36 0.05 c 0.01 0 0.44 0.04 0.55 -0.08 m 0.56 -0.36 c 0.09 -0.14 0.22 -0.46 0.07 -0.56 c -0.06 -0.04 -0.94 -0.07 -1.47 -0.13 c -1.07 -0.13 -1.29 -0.14 -1.32 -0.05 c -0.03 0.1 0.02 0.44 0.08 0.5 c 0.06 0.07 1.25 0.23 1.82 0.24 c 0.42 0.01 0.75 0.09 0.82 -0.01 m 0.54 -0.89 c 0.02 -0.11 -0.77 -0.11 -1.41 -0.19 c -0.61 -0.07 -1.57 -0.07 -1.57 0 c 0 0.08 0.15 0.11 0.85 0.16 c 0.03 0.1 2.31 0.16 2.13 0.03 m 0.74 -0.34 c 0.08 -0.09 0.1 -0.52 0.1 -0.56 c 0 -0.04 -0.13 0.02 -0.27 -0.04 c -1.15 -0.07 -1.7 -0.12 -2.9 -0.17 c 0.02 0.21 -0.04 0.39 0.04 0.59 c 0.91 0.22 2.49 0.29 3 0.18 m 0.7 -0.98 c 0.01 -0.02 -0.09 -0.06 -0.2 -0.08 c -0.44 -0.07 -2.27 -0.21 -2.59 -0.19 c -0.33 0.02 -0.52 0.1 -0.43 0.19 c 0.07 0.08 3.07 0.32 3.21 0.08 m 0.43 -0.4 c 0.17 -0.08 0.2 -0.46 0.03 -0.64 c -0.1 -0.11 -0.21 0 -0.57 -0.03 c -0.71 -0.05 -2.59 -0.13 -2.62 -0.1 c -0.06 0.23 -0.04 0.41 -0.04 0.66 l 0.17 0.04 c 0.18 0.04 1.63 0.11 2.43 0.13 c 0.27 0 0.53 -0.02 0.61 -0.05 m 0.34 -0.96 c 0 -0.09 -0.18 -0.11 -1.43 -0.17 c -0.94 -0.04 -1.3 -0.04 -1.42 0 c -0.27 0.11 -0.07 0.16 0.74 0.18 c 1.88 0.04 2.11 0.04 2.11 -0.01 m 0.56 -0.36 c 0.18 -0.04 0.26 -0.22 0.18 -0.45 c -0.05 -0.14 -0.05 -0.14 -0.82 -0.21 c -0.42 -0.04 -1.14 -0.07 -1.6 -0.07 c -0.91 -0.01 -0.89 -0.02 -0.89 0.34 c 0 0.31 0.04 0.33 0.78 0.36 c 1.01 0.05 2.16 0.06 2.35 0.02" style="fill:#3f5b84"/><path d="m 11.92 7.85 c 0.16 0.09 0.2 0.32 0.09 0.52 l -1.15 2.12 c -0.11 0.2 -0.32 0.29 -0.48 0.2 c -0.16 -0.09 -0.2 -0.32 -0.09 -0.52 l 1.15 -2.12 c 0.11 -0.2 0.32 -0.29 0.48 -0.2" style="fill:#ffa400"/><path d="m 7.75 9.63 h 4.21 c 0.18 0 0.34 0.13 0.34 0.3 v 2.02 c 0 0.16 -0.15 0.3 -0.34 0.3 h -4.21 c -0.19 0 -0.34 -0.13 -0.34 -0.3 v -2.02 c 0 -0.16 0.15 -0.3 0.34 -0.3" style="fill:#ea673b"/><path d="m 8.8 11.93 c 0 0.54 -0.46 0.98 -1.02 0.98 c -0.56 0 -1.02 -0.44 -1.02 -0.98 c 0 -0.54 0.46 -0.98 1.02 -0.98 c 0.56 0 1.02 0.44 1.02 0.98" style="fill:#5586e7"/><path d="m 7.69 11.81 c -0.1 0.21 -0.31 0.32 -0.46 0.24 c -0.15 -0.08 -0.2 -0.31 -0.09 -0.52 c 0.1 -0.21 0.3 -0.31 0.46 -0.24 c 0.15 0.08 0.2 0.31 0.1 0.52" style="fill:#86ceeb"/><path d="m 12.62 9.1 l -0.14 0.29 c -0.11 0.23 -0.34 0.34 -0.52 0.26 l -1.46 -0.75 c -0.17 -0.09 -0.23 -0.35 -0.12 -0.58 l 0.14 -0.28 c 0.11 -0.23 0.34 -0.35 0.52 -0.26 l 1.46 0.75 c 0.18 0.09 0.23 0.35 0.12 0.58" style="fill:#942a38"/><path d="m 8.97 9.11 c -0.09 0 -0.19 -0.02 -0.27 -0.05 c -0.3 -0.09 -0.62 -0.36 -0.73 -0.6 c -0.09 -0.21 -0.13 -0.27 -0.21 -0.46 c 0.48 -0.26 0.96 -0.52 1.43 -0.78 c 0.15 0.2 0.26 0.44 0.3 0.63 c 0.09 0.41 0.08 0.67 -0.03 0.88 l -0.06 0.13 c 0.27 0.5 0.54 1 0.81 1.5 c -0.15 0.08 -0.3 0.16 -0.45 0.24 c -0.29 -0.53 -0.57 -1.05 -0.8 -1.48 m 0.09 -0.53 c 0.25 -0.2 0.09 -0.54 0.03 -0.83 c -0.29 0.16 -0.58 0.32 -0.87 0.47 c 0.15 0.16 0.32 0.38 0.49 0.46 c 0.13 0.05 0.23 0.02 0.35 -0.1" style="fill:#c54560"/><g style="fill:#ed8be6"><path d="m 5.9 12.54 c -0.02 -0.01 -0.11 -0.05 -0.19 -0.11 c -0.17 -0.11 -0.23 -0.11 -0.46 -0.02 c -0.17 0.06 -0.34 0.09 -0.43 0.05 c -0.09 -0.28 0.2 -0.52 0.02 -0.75 c -0.11 -0.13 -0.2 -0.36 -0.17 -0.44 c 0.23 -0.13 0.39 0 0.67 -0.03 c 0.18 -0.11 0.53 -0.51 0.68 -0.36 c 0.04 0.04 0.05 0.09 0.05 0.21 c -0.02 0.37 0.46 0.23 0.46 0.47 c 0 0.09 -0.02 0.12 -0.11 0.21 c -0.1 0.13 -0.29 0.11 -0.36 0.24 c 0 0.01 0.03 0.09 0.06 0.18 c 0.07 0.2 0.08 0.29 0.02 0.32 c -0.05 0.03 -0.17 0.03 -0.25 0.01"/><path d="m 2.61 11.91 c 0 0.03 0 0.13 0 0.22 c 0.01 0.21 -0.01 0.27 -0.16 0.45 c -0.12 0.14 -0.2 0.29 -0.21 0.38 c -0.04 0.26 0.46 0.03 0.55 0.32 c 0.05 0.16 0.18 0.35 0.25 0.36 c 0.05 0.01 0.1 -0.08 0.18 -0.34 c 0.04 -0.23 0.15 -0.33 0.33 -0.42 c 0.27 -0.14 0.34 -0.22 0.31 -0.35 c -0.11 -0.17 -0.41 -0.08 -0.27 -0.43 c 0.02 -0.07 0.04 -0.17 0.04 -0.22 c 0.01 -0.09 0 -0.11 -0.07 -0.14 c -0.23 -0.11 -0.35 0.19 -0.51 0.24 c -0.01 -0.01 -0.06 -0.07 -0.11 -0.14 c -0.11 -0.16 -0.18 -0.2 -0.23 -0.16 c -0.2 0.07 -0.09 0.16 -0.11 0.24"/><path d="m 12.91 9.94 c 0.03 0.25 0.02 0.43 -0.15 0.54 c -0.14 0.07 -0.23 0.18 -0.23 0.26 c 0 0.06 -0.07 0.2 0.37 0.21 c 0.2 0.04 0.29 0.12 0.36 0.27 c 0.08 0.16 0.07 0.45 0.35 0.41 c 0.07 0.03 0.12 -0.03 0.2 -0.23 c 0.07 -0.23 0.19 -0.24 0.38 -0.25 c 0.33 -0.02 0.42 -0.07 0.37 -0.2 c -0.02 -0.05 -0.06 -0.09 -0.18 -0.18 c -0.26 -0.17 -0.17 -0.24 -0.16 -0.48 c 0 -0.08 -0.01 -0.09 -0.09 -0.15 c -0.14 -0.07 -0.31 -0.11 -0.43 -0.01 c -0.03 0.05 -0.15 0.07 -0.2 0.04 c -0.01 -0.01 -0.08 -0.08 -0.15 -0.16 c -0.13 -0.17 -0.36 -0.33 -0.42 -0.05"/></g><g style="fill:#ffeff4"><path d="m 13.39 10.69 c 0 0.1 0.04 0.2 0.1 0.25 c 0.06 0.05 0.14 0.05 0.2 0 c 0.06 -0.05 0.1 -0.15 0.1 -0.25 c 0 -0.1 -0.04 -0.2 -0.1 -0.25 c -0.06 -0.05 -0.14 -0.05 -0.2 0 c -0.06 0.05 -0.1 0.15 -0.1 0.25"/><path d="m 5.37 11.66 c 0 0.09 0.04 0.16 0.11 0.2 c 0.07 0.04 0.15 0.04 0.22 0 c 0.07 -0.04 0.11 -0.12 0.11 -0.2 c 0 -0.08 -0.04 -0.16 -0.11 -0.2 c -0.07 -0.04 -0.15 -0.04 -0.22 0 c -0.07 0.04 -0.11 0.12 -0.11 0.2"/><path d="m 2.81 12.57 c 0 0.09 0.04 0.18 0.09 0.23 c 0.06 0.05 0.13 0.05 0.18 0 c 0.06 -0.05 0.09 -0.13 0.09 -0.23 c 0 -0.09 -0.03 -0.18 -0.09 -0.23 c -0.05 -0.05 -0.13 -0.05 -0.18 0 c -0.05 0.05 -0.09 0.13 -0.09 0.23"/></g><g style="fill:#ff0"><path d="m 12.6 12.5 c 0 0.12 -0.16 0.22 -0.36 0.22 c -0.2 0 -0.36 -0.1 -0.36 -0.22 c 0 -0.12 0.16 -0.22 0.36 -0.22 c 0.2 0 0.36 0.1 0.36 0.22"/><path d="m 11.89 12.87 c 0 0.12 -0.17 0.21 -0.38 0.21 c -0.21 0 -0.38 -0.1 -0.38 -0.21 c 0 -0.12 0.17 -0.22 0.38 -0.22 c 0.21 0 0.38 0.1 0.38 0.22"/></g><path d="m 10.98 12.52 c -0.14 0.01 -0.22 -0.02 -0.47 -0.13 c -0.25 -0.12 -0.43 -0.27 -0.61 -0.51 c -0.12 -0.16 -0.38 -0.56 -0.37 -0.58 c 0 -0.01 0.11 -0.07 0.24 -0.15 l 0.23 -0.14 l -0.15 -0.29 l -0.15 -0.29 l 0.03 -0.09 c 0.03 -0.08 0.04 -0.09 0.13 -0.14 c 0.08 -0.04 0.11 -0.05 0.16 -0.04 c 0.11 0.02 0.15 0.07 0.29 0.35 l 0.13 0.26 l 0.27 -0.14 l 0.27 -0.14 l 0.06 0.14 c 0.39 0.88 0.47 1.19 0.37 1.48 c -0.05 0.13 -0.2 0.35 -0.27 0.39 c -0.02 0.01 -0.1 0.02 -0.17 0.03" style="fill:#6e58a3"/><path d="m 10.23 11.96 c 0 0.02 0 0.13 -0.02 0.22 c -0.04 0.21 -0.01 0.25 0.19 0.37 c 0.14 0.09 0.25 0.2 0.25 0.29 c 0 0.07 -0.13 0.14 -0.39 0.23 c -0.22 0.04 -0.41 0.15 -0.5 0.32 c -0.02 0.38 -0.17 0.39 -0.27 0.43 c -0.07 0.03 -0.13 -0.04 -0.21 -0.26 c -0.07 -0.25 -0.2 -0.26 -0.41 -0.28 c -0.36 -0.02 -0.45 -0.08 -0.39 -0.21 c 0.02 -0.06 0.07 -0.1 0.2 -0.2 c 0.29 -0.19 0.19 -0.27 0.17 -0.53 c 0 -0.08 -0.01 -0.26 0.09 -0.33 c 0.15 -0.09 0.35 0.05 0.48 0.15 c 0.03 0.05 0.16 0.08 0.21 0.04 c 0.13 -0.1 0.32 -0.47 0.49 -0.43 c 0.05 0.02 0.11 0.11 0.13 0.19" style="fill:#ed8be6"/><path d="m 9.35 12.8 c 0 0.11 0.04 0.2 0.1 0.25 c 0.06 0.05 0.14 0.05 0.2 0 c 0.06 -0.05 0.1 -0.14 0.1 -0.25 c 0 -0.1 -0.04 -0.2 -0.1 -0.25 c -0.06 -0.05 -0.14 -0.05 -0.2 0 c -0.06 0.05 -0.1 0.15 -0.1 0.25" style="fill:#ffeff4"/></svg>