<svg xmlns="http://www.w3.org/2000/svg" viewBox="0 0 16 16"><path d="m 14.42 3.79 c 8.59 15.77 -22.8 16.51 -12 0.26 c 2.86 -4.18 9.68 -6.22 12 -0.26" style="fill:#ffd600"/><path d="m 5 6.88 c -0.69 0 -1.24 1.21 -1.24 2.68 c 0 1.47 0.55 2.6 1.24 2.6 c 0.02 0 0.03 -0.02 0.05 -0.02 v 0.02 l 4.73 -0.52 c -0.97 0 -1.64 -0.65 -1.64 -2.08 c 0 -1.42 0.55 -2.08 1.64 -2.08 l -0.85 -0.59 c -1.73 -0.01 -3.93 0 -3.93 0 m 0.01 0.59 h 2.67 c 0.09 0 0.17 0.11 0.1 0.22 c -0.45 0.9 -0.48 2.25 -0.19 3.31 c 0 0.11 -0.08 0.19 -0.17 0.19 h -2.71 c -0.09 0 -0.13 -0.12 -0.13 -0.22 c -0.05 -1.04 -0.49 -2.47 0.32 -3.47 c 0 0 0.02 -0.04 0.12 -0.04"/><path d="m 7.15 4.5 c -0.21 0 -0.38 0.1 -0.48 0.28 l -1.23 2.19 l -0.07 0.17 h 0.82 l 0.03 -0.06 l 0.78 -1.29 c 0.02 -0.03 0.09 -0.09 0.15 -0.09 h 3.97 c 0.04 0 0.04 0.07 0.04 0.07 l -1.54 3.4 l -0.05 0.09 l 0.09 0.05 l 0.04 0.42 l 0.38 0.22 l 0.05 -0.1 l 1.86 -4.16 c 0.08 -0.14 0 -0.83 -0.05 -0.95 c -0.07 -0.13 -0.21 -0.24 -0.39 -0.24 h -4.39" style="fill-rule:evenodd"/><path d="m 10.24 9.56 c 0 0.49 -0.21 0.89 -0.47 0.89 c -0.27 0 -0.48 -0.4 -0.48 -0.89 c 0 -0.49 0.21 -0.89 0.48 -0.89 c 0.26 0 0.47 0.4 0.47 0.89"/><path d="m 7.19 10.46 c 0 0 -1.57 -0.01 -1.67 -0.01 c -0.1 0 -0.14 0.02 -0.2 -0.09 c -0.16 -0.25 -0.28 -0.66 -0.31 -1.02 c -0.01 -0.07 -0.11 -0.07 -0.16 -0.07 h -1.37 c -0.07 0 -0.08 0.14 -0.08 0.14 c -0.03 1.13 0.39 2.83 1.55 2.82 h 4.23 c -1.44 -0.09 -1.41 -0.8 -1.52 -1.47 c -0.1 -0.21 -0.14 -0.31 -0.31 -0.31" style="fill-rule:evenodd"/><path d="m 8.17 6.88 c -0.15 0.02 -0.26 0.16 -0.25 0.32 c 0.01 0.16 0.14 0.29 0.29 0.27 h 1.34 c 1.67 0 1.93 4.16 0 4.16 h -1.58 c -0.15 0 -0.27 0.13 -0.27 0.3 c 0 0.16 0.12 0.3 0.27 0.3 h 1.58 c 2.6 0 2.42 -5.35 0 -5.35 h -1.34 c -0.02 0 -0.04 0 -0.05 0"/><g transform="matrix(0.057 0 0 0.047 0.37 3.66)" style="stroke:#000;stroke-width:1.33"><path d="m 76.5 246 c -21.96 -8.59 -42.75 -25.28 -54.3 -43.4 l -2.47 -3.96 h 17.43 l 4.12 4.63 c 5.42 6 24.63 26.43 34.58 36.67 c 4.32 4.46 7.69 8.18 7.55 8.34 c -0.21 0.17 -3.29 -0.83 -6.93 -2.31"/><path d="m 119.8 254.9 c 0 -1.07 -11.6 -13.71 -32.46 -35.2 l -20.45 -21.1 h 33.42 l 2.68 3.3 c 1.51 1.73 10 10.9 18.87 20.24 c 8.85 9.42 19.1 20.24 22.78 24.2 c 7.69 8.18 7.89 7.43 -2.61 8.51 c -7.69 0.91 -22.2 0.91 -22.2 0.08"/><path d="m 153.2 222.5 l -23.2 -23.95 h 27.2 l 7 7.68 c 3.84 4.3 12.1 13.1 18.32 19.74 c 6.24 6.61 11.32 12.14 11.32 12.39 c 0 0.5 -13.93 7.1 -16.1 7.68 c -1.1 0.25 -5.97 -4.38 -24.5 -23.54"/><path d="m 186.8 198.6 h 33.42 l 3.09 3.55 c 6.11 7.1 6 5.78 0.48 12.1 c -3.43 3.96 -7.21 7.52 -11.19 10.99"/></g></svg>