<svg xmlns="http://www.w3.org/2000/svg" viewBox="0 0 16 16"><path d="m 15.81 6.28 c -0.99 -6.46 -9.8 -8.19 -13.69 -3.57 c -3.43 3.43 -2.58 9.98 1.63 12.23 c 4.82 3 11.86 -0.71 12.24 -6.7 c 0.04 -0.66 -0.02 -1.32 -0.17 -1.96" style="fill:#424242"/><path d="m 4.67 4.39 h 6.54 c 0.38 0 0.68 0.32 0.68 0.72 v 6.19 c 0 0.39 -0.3 0.72 -0.68 0.72 h -6.54 c -0.38 0 -0.68 -0.32 -0.68 -0.72 v -6.19 c 0 -0.4 0.3 -0.72 0.68 -0.72" style="fill:#cdcdcd"/><path d="m 4.68 4.39 c -0.38 0 -0.7 0.3 -0.7 0.69 v 6.26 c 0 0.38 0.3 0.69 0.7 0.69 h 6.52 c 0.38 0 0.69 -0.3 0.69 -0.69 v -6.26 c 0 -0.38 -0.3 -0.69 -0.69 -0.69 m -6.42 0.19 h 6.32 c 0.33 0 0.59 0.26 0.59 0.59 v 5.67 c 0 0.32 -0.26 0.58 -0.59 0.58 h -6.32 c -0.33 0 -0.59 -0.26 -0.59 -0.58 v -5.67 c 0 -0.32 0.26 -0.59 0.59 -0.59" style="fill-opacity:0.5"/><path d="m 4.91 5.18 h 6.07 c 0.07 0 0.13 0.05 0.13 0.13 v 5.42 c 0 0.07 -0.06 0.13 -0.13 0.13 h -6.07 c -0.07 0 -0.13 -0.05 -0.13 -0.13 v -5.42 c 0 -0.07 0.05 -0.13 0.13 -0.13" style="fill:#424242"/><path d="m 5.37 5.76 v 0.19 h 5.14 v -0.19 m -5.14 0.59 v 0.19 h 3.16 v -0.19" style="fill:#94a5ff"/><path d="m 5.37 8.11 v 0.19 h 1.19 v -0.19 m -1.19 0.58 v 0.2 h 1.19 v -0.2 m -1.19 0.59 v 0.19 h 1.19 v -0.19" style="fill:#cf3b00"/><path d="m 5.37 6.93 v 0.19 h 1.19 v -0.19 m -1.19 0.59 v 0.19 h 1.19 v -0.19" style="fill:#7851c1"/><path d="m 6.93 8.11 v 0.19 h 3.55 v -0.19 m -3.55 0.58 v 0.2 h 1.98 v -0.2" style="fill:#72c38e"/><path d="m 6.93 9.28 v 0.19 h 3.55 v -0.19 m -5.13 0.58 v 0.19 h 3.16 v -0.19" style="fill:#fff"/><path d="m 6.93 6.93 v 0.19 h 3.55 v -0.19 m -3.55 0.59 v 0.19 h 1.98 v -0.19" style="fill:#b84aca"/></svg>