<svg xmlns="http://www.w3.org/2000/svg" viewBox="0 0 16 16"><defs><linearGradient id="0" gradientUnits="userSpaceOnUse" x1="6.31" x2="9.61"><stop style="stop-color:#26a269"/><stop offset="0.09" style="stop-color:#84e3b7"/><stop offset="0.33" style="stop-color:#26a269"/><stop offset="0.69" style="stop-color:#26a269"/><stop offset="0.9" style="stop-color:#175d3c"/><stop offset="1" style="stop-color:#26a269"/></linearGradient><linearGradient id="1" gradientUnits="userSpaceOnUse" x1="4" x2="7.33"><stop style="stop-color:#803d9c"/><stop offset="0.11" style="stop-color:#b278c9"/><stop offset="0.24" style="stop-color:#803d9c"/><stop offset="0.73" style="stop-color:#803d9c"/><stop offset="0.87" style="stop-color:#4c255c"/><stop offset="1" style="stop-color:#803d9c"/></linearGradient><linearGradient id="2" gradientUnits="userSpaceOnUse" x1="8.59" x2="11.88"><stop style="stop-color:#e56100"/><stop offset="0.07" style="stop-color:#ff8f3d"/><stop offset="0.17" style="stop-color:#e56100"/><stop offset="0.89" style="stop-color:#e56100"/><stop offset="1" style="stop-color:#9c4200"/></linearGradient></defs><path d="m 1.84 4.37 c -9.33 16.86 22.27 14.31 12.1 -1 c -2.7 -3.93 -9.49 -5.28 -12.1 1" style="fill:#ffd600"/><path d="m 6.94 4.22 h 2.04 c 0.34 0 0.63 0.28 0.63 0.63 v 2.04 c 0 0.35 -0.28 0.63 -0.63 0.63 h -2.04 c -0.35 0 -0.63 -0.28 -0.63 -0.63 v -2.04 c 0 -0.34 0.28 -0.63 0.63 -0.63" style="fill:url(#0)"/><path d="m 6.94 3.75 h 2.04 c 0.34 0 0.63 0.28 0.63 0.63 v 2.04 c 0 0.35 -0.28 0.63 -0.63 0.63 h -2.04 c -0.35 0 -0.63 -0.28 -0.63 -0.63 v -2.04 c 0 -0.35 0.28 -0.63 0.63 -0.63" style="fill:#56e388"/><g transform="matrix(0.078 0 0 0.078 2.94 2.81)" style="fill:#f4f4f4;stroke:#f4f4f4"><path d="m 76.97 55.5 c 1.49 -0.85 3.39 -0.35 4.23 1.15 l 6.73 11.68 c 0.9 1.5 0.35 3.39 -1.1 4.24 c -1.49 0.85 -3.39 0.35 -4.23 -1.15 l -6.77 -11.68 c -0.85 -1.5 -0.35 -3.34 1.15 -4.24"/><path d="m 52.81 55.5 c -1.49 -0.85 -3.39 -0.35 -4.23 1.15 l -6.73 11.68 c -0.9 1.5 -0.35 3.39 1.1 4.24 c 1.49 0.85 3.39 0.35 4.23 -1.15 l 6.77 -11.68 c 0.85 -1.5 0.35 -3.34 -1.15 -4.24"/></g><path d="m 4.66 8.6 h 2.04 c 0.35 0 0.63 0.28 0.63 0.63 v 2.04 c 0 0.35 -0.28 0.63 -0.63 0.63 h -2.04 c -0.34 0 -0.63 -0.28 -0.63 -0.63 v -2.04 c 0 -0.34 0.28 -0.63 0.63 -0.63" style="fill:url(#1)"/><path d="m 4.66 8.13 h 2.04 c 0.35 0 0.63 0.28 0.63 0.63 v 2.04 c 0 0.35 -0.28 0.63 -0.63 0.63 h -2.04 c -0.34 0 -0.63 -0.28 -0.63 -0.63 v -2.04 c 0 -0.34 0.28 -0.63 0.63 -0.63" style="fill:#dc89dd"/><path d="m 9.21 8.6 h 2.04 c 0.34 0 0.63 0.28 0.63 0.63 v 2.04 c 0 0.35 -0.28 0.63 -0.63 0.63 h -2.04 c -0.35 0 -0.63 -0.28 -0.63 -0.63 v -2.04 c 0 -0.34 0.28 -0.63 0.63 -0.63" style="fill:url(#2)"/><path d="m 9.21 8.13 h 2.04 c 0.34 0 0.63 0.28 0.63 0.63 v 2.04 c 0 0.35 -0.28 0.63 -0.63 0.63 h -2.04 c -0.35 0 -0.63 -0.28 -0.63 -0.63 v -2.04 c 0 -0.34 0.28 -0.63 0.63 -0.63" style="fill:#ff8c00"/><g transform="matrix(0.05 0 0 0.049 1.36 2.71)" style="stroke:#000;stroke-width:1.33"><path d="m 76.5 246 c -21.89 -8.67 -42.78 -25.36 -54.3 -43.4 l -2.48 -3.98 h 17.41 l 4.1 4.61 c 5.42 6 24.68 26.47 34.58 36.73 c 4.33 4.37 7.74 8.19 7.5 8.35 c -0.15 0.16 -3.25 -0.87 -6.88 -2.31"/><path d="m 119.8 254.9 c 0 -1.11 -11.6 -13.75 -32.49 -35.2 l -20.42 -21.1 h 33.42 l 2.71 3.26 c 1.47 1.83 9.98 10.89 18.8 20.27 c 8.9 9.38 19.1 20.27 22.82 24.2 c 7.66 8.11 7.89 7.39 -2.55 8.51 c -7.81 0.87 -22.28 0.87 -22.28 0.08"/><path d="m 153.2 222.5 l -23.2 -23.93 h 27.2 l 6.96 7.71 c 3.87 4.21 12.15 13.1 18.33 19.72 c 6.27 6.6 11.37 12.16 11.37 12.4 c 0 0.4 -13.92 7.1 -16.1 7.63 c -1.08 0.32 -5.96 -4.37 -24.6 -23.53"/><path d="m 186.8 198.6 h 33.3 l 3.09 3.58 c 6.19 7.1 6.11 5.72 0.54 12 c -3.48 3.98 -7.27 7.55 -11.22 10.97"/></g></svg>