<svg xmlns="http://www.w3.org/2000/svg" viewBox="0 0 16 16"><defs><linearGradient id="0" gradientUnits="userSpaceOnUse" x1="12" x2="36" gradientTransform="matrix(0.295 0 0 0.303 0.96 0.55)"><stop style="stop-color:#e2f4fb"/><stop offset="1" style="stop-color:#f9f9f9"/></linearGradient></defs><path d="m 12.74 12.95 c 12.27 -17.1 -15.2 -15.84 -12.46 -3.59 c 1.17 5.94 8.48 9.41 12.46 3.59" style="fill:#009c47"/><path d="m 8.64 10.29 v 0.02 c 0 0.14 0.11 0.25 0.25 0.25 h 2.38 c 0.14 0 0.25 -0.11 0.25 -0.25 v -0.02 c 0 0.14 -0.11 0.25 -0.25 0.25 h -2.38 c -0.14 0 -0.25 -0.11 -0.25 -0.25 m 0 0.03 v 0.03 c 0 0.14 0.11 0.25 0.25 0.25 h 2.38 c 0.14 0 0.25 -0.11 0.25 -0.25 v -0.03 c 0 0.14 -0.11 0.25 -0.25 0.25 h -2.38 c -0.14 0 -0.25 -0.11 -0.25 -0.25" style="fill-opacity:0.02"/><g style="fill-rule:evenodd"><path d="m 4.5 8.73 l 2.36 2.43 l 4.73 -5.15 l -0.89 -0.91 l -3.84 4.24 l -1.48 -1.52" style="fill-opacity:0.1"/><path d="m 4.5 8.43 l 2.36 2.42 l 4.73 -5.15 l -0.89 -0.91 l -3.84 4.24 l -1.48 -1.52" style="fill:url(#0)"/></g></svg>