<svg xmlns="http://www.w3.org/2000/svg" viewBox="0 0 16 16"><path d="m 13.7 2.41 c 9.84 14.1 -14.89 19.54 -13.6 5 c 0.52 -5.91 9.84 -10.44 13.6 -5" style="fill:#1096ec"/><path d="m 13.77 8.24 c 0 3.14 -2.55 5.69 -5.69 5.69 c -3.14 0 -5.69 -2.55 -5.69 -5.69 c 0 -3.14 2.55 -5.69 5.69 -5.69 c 3.14 0 5.69 2.55 5.69 5.69" style="fill:#ffdeac"/><path d="m 7.25 13.35 c -1.53 -0.29 -2.76 -1.22 -3.43 -2.61 c -0.3 -0.63 -0.45 -1.18 -0.47 -1.81 c -0.02 -0.36 -0.01 -0.38 0.04 -0.45 c 0.18 -0.23 0.9 -0.47 1.86 -0.61 c 0.45 -0.07 1.22 -0.14 1.45 -0.14 c 0.15 0 0.16 0 0.21 0.09 c 0.22 0.44 0.66 0.86 1.11 1.07 c 0.35 0.16 0.57 0.2 0.99 0.2 c 0.34 0 0.42 -0.01 0.64 -0.08 c 0.54 -0.16 1 -0.5 1.32 -0.97 c 0.04 -0.05 0.08 -0.11 0.09 -0.11 c 0.06 -0.05 0.95 0.17 1.28 0.31 c 0.12 0.05 0.26 0.14 0.32 0.2 l 0.11 0.11 l -0.02 0.39 c -0.03 0.64 -0.17 1.19 -0.47 1.82 c -0.64 1.33 -1.82 2.25 -3.28 2.57 c -0.39 0.09 -1.34 0.1 -1.73 0.03" style="fill:#845117"/><path d="m 7.64 13.36 c -0.39 -0.06 -0.53 -0.08 -0.77 -0.14 c -0.82 -0.21 -1.49 -0.6 -2.13 -1.25 c -0.65 -0.65 -1.02 -1.32 -1.24 -2.22 c -0.08 -0.33 -0.16 -0.88 -0.13 -0.93 c 0.01 -0.01 0.07 0.02 0.15 0.07 c 0.43 0.29 1.42 0.5 2.95 0.64 c 0.55 0.05 2.58 0.05 3.12 0 c 1.53 -0.13 2.52 -0.35 2.95 -0.64 c 0.07 -0.05 0.14 -0.09 0.15 -0.07 c 0.02 0.03 -0.04 0.49 -0.09 0.74 c -0.2 0.97 -0.63 1.77 -1.34 2.48 c -0.56 0.55 -1.23 0.95 -1.98 1.15 c -0.14 0.04 -0.36 0.09 -0.49 0.11 c -0.22 0.04 -1 0.07 -1.17 0.05" style="fill:#6b4004"/><path d="m 3.47 6.7 c -0.12 -0.12 -0.09 -0.24 0.13 -0.66 c 0.52 -1.02 1.36 -1.88 2.37 -2.41 c 0.22 -0.12 0.45 -0.21 0.5 -0.21 c 0.21 0 0.33 0.35 0.16 0.5 c -0.05 0.04 -0.28 0.2 -0.52 0.35 c -0.78 0.49 -1.37 1.08 -1.84 1.84 c -0.4 0.65 -0.43 0.68 -0.58 0.68 c -0.07 0 -0.17 -0.04 -0.21 -0.08" style="fill:#fff"/><path d="m 11.32 6.73 c 0 1.31 -1.04 2.37 -2.33 2.37 c -1.29 0 -2.33 -1.06 -2.33 -2.37 c 0 -1.31 1.04 -2.37 2.33 -2.37 c 1.29 0 2.33 1.06 2.33 2.37" style="fill:#f55d42"/></svg>