<svg xmlns="http://www.w3.org/2000/svg" viewBox="0 0 16 16"><path d="m 0.16 6.21 c 3.13 -14.99 24.69 1.11 11.74 8.73 c -5 3.27 -13.36 -1.01 -11.74 -8.73" style="fill:#ffecdb"/><g style="fill:#d2d9e3"><path d="m 4.79 8.42 c -1.17 -3.82 0.38 -5.85 3.19 -3.96 c 0.09 -0.05 0.32 0.93 0.47 1.43 c 0.26 0.84 0.18 1.47 -0.43 3.5 c -0.45 1.5 0.93 2.5 -1.11 2.56 c -4.73 -1.1 -2.03 -3.1 -2.13 -3.53"/><path d="m 9.93 8.38 c 0.77 -0.91 0.84 -2.44 2.71 -1.58 c 0.06 -0.02 0.34 0.29 0.46 0.52 c 0.19 0.39 0.14 0.67 -0.32 1.6 c -0.34 0.69 -0.46 0.92 -0.82 1.17 c -0.74 -0.05 -1.3 -1.11 -2.04 -1.7"/></g><path d="m 5.5 6.25 c 0 0.34 -0.17 0.62 -0.38 0.62 c -0.21 0 -0.38 -0.28 -0.38 -0.62 c 0 -0.34 0.17 -0.61 0.38 -0.61 c 0.21 0 0.38 0.28 0.38 0.61" style="fill:#d8455d"/><path d="m 6.82 12.78 c -1.3 -0.17 -1.89 -0.84 -2.22 -1.99 c -0.09 -0.33 -0.09 -0.34 0.03 -0.23 c 0.15 0.13 0.64 0.4 1.02 0.55 c 0.43 0.17 0.91 0.41 1.53 0.45 c 0.43 0.02 0.69 -0.07 0.79 0.02 c 0.54 0.27 1.81 0.35 1.93 0.64 c 0.08 0 0.17 0.03 0.15 0.04 c -1.03 0.38 -0.68 0.89 -0.99 0.89 c -0.43 0 -1.09 -0.33 -1.46 -0.21 c -0.11 0.04 -0.71 -0.14 -0.77 -0.15" style="fill:#8eabdc"/><path d="m 7.58 13.7 c -0.11 -0.08 -0.15 -0.09 -0.22 -0.05 c -0.23 0.14 -0.39 -0.04 -0.38 -0.41 c 0.02 -0.34 0.02 -0.33 -0.21 -0.37 c -0.29 -0.04 -0.38 0.01 -0.57 0.34 c -0.15 0.26 -0.17 0.27 -0.33 0.26 c -0.09 -0.01 -0.23 -0.01 -0.32 -0.01 c -0.36 0 -0.47 -0.49 -0.21 -0.85 c 0.08 -0.11 0.14 -0.22 0.14 -0.24 c 0 -0.07 -0.29 -0.26 -0.7 -0.46 c -0.3 -0.15 -0.43 -0.25 -0.57 -0.43 c -0.15 -0.2 -0.2 -0.24 -0.34 -0.24 c -0.23 0 -0.29 -0.15 -0.25 -0.64 c 0.06 -0.82 0.32 -1.47 0.76 -1.95 c 0.13 -0.14 0.25 -0.31 0.28 -0.38 c 0.09 -0.22 -0.12 -0.61 -0.23 -0.83 c -0.13 -0.26 -0.24 -1.36 -0.11 -1.61 c 0.05 -0.11 0.07 0.71 0.12 0.96 c 0.08 0.44 0.18 0.66 0.33 0.76 c 0.12 0.08 0.12 0.09 0.05 0.3 c -0.09 0.29 -0.09 0.89 0 1.2 c 0.13 0.42 0.21 0.4 0.68 -0.17 c 0.19 -0.23 0.46 -0.54 0.61 -0.7 c 0.24 -0.26 0.27 -0.28 0.37 -0.22 c 0.14 0.08 0.73 0.02 1 -0.1 c 0.3 -0.13 0.57 -0.36 0.71 -0.61 c 0.11 -0.18 0.13 -0.27 0.12 -0.59 c -0.02 -1.06 -0.4 -1.79 -1.16 -2.2 c -0.31 -0.16 -0.32 -0.17 -0.87 -0.17 l -1 0.25 l 0.51 -0.36 c 0.08 -0.05 0.06 -0.13 0.02 -0.16 c -0.06 -0.06 -0.3 0.07 -0.39 0.21 c -0.07 0.07 0.47 0 -0.02 0.25 c -0.5 0.25 -0.81 0.6 -0.98 1.11 l -0.07 1.11 l -0.07 -0.08 c -0.28 -0.33 0.07 -1.55 0.04 -1.86 c -0.1 -0.89 0 -1.5 0.25 -1.56 c 0.09 -0.02 0.15 -0.09 0.23 -0.29 c 0.26 -0.64 0.66 -0.8 0.91 -0.38 c 0.07 0.12 0.09 0.24 0.09 0.57 c 0 0.47 0.01 0.48 0.39 0.34 c 0.16 -0.05 0.34 -0.07 0.71 -0.06 l 0.5 0.02 l 0.13 -0.24 c 0.07 -0.13 0.18 -0.28 0.25 -0.33 c 0.12 -0.09 0.13 -0.09 0.29 -0.01 l 0.17 0.08 l 0.12 -0.18 c 0.31 -0.5 0.75 -0.52 0.98 -0.06 c 0.17 0.34 0.21 0.66 0.18 1.66 c -0.01 0.53 -0.05 1.19 -0.09 1.48 c -0.09 0.77 -0.08 1.26 0.04 1.8 c 0.11 0.46 0.25 0.67 0.42 0.67 c 0.04 0 0.18 -0.23 0.34 -0.54 c 0.34 -0.68 0.45 -0.82 0.74 -0.96 c 0.13 -0.07 0.28 -0.2 0.36 -0.31 c 0.22 -0.31 0.36 -0.38 0.71 -0.38 c 0.22 0 0.35 0.03 0.46 0.09 c 0.14 0.08 0.16 0.12 0.16 0.3 c 0 0.16 0.04 0.26 0.21 0.51 c 0.12 0.17 0.25 0.41 0.29 0.54 c 0.08 0.23 0.08 0.24 -0.07 0.7 c -0.09 0.25 -0.29 0.74 -0.46 1.08 c -0.3 0.61 -0.3 0.63 -0.25 0.82 c 0.07 0.26 -0.02 0.5 -0.34 0.93 c -0.38 0.52 -0.79 0.78 -1.7 1.11 c -0.11 0.04 -0.68 0.36 -1 0.56 c -0.06 0.04 -0.05 0.07 0.06 0.18 c 0.11 0.11 0.13 0.19 0.13 0.37 c 0 0.16 -0.02 0.23 -0.07 0.25 c -0.12 0.04 -0.3 -0.02 -0.48 -0.18 c -0.09 -0.08 -0.24 -0.16 -0.33 -0.17 c -0.16 -0.02 -0.2 0 -0.53 0.32 c -0.2 0.19 -0.38 0.34 -0.41 0.34 c -0.02 0 -0.11 -0.05 -0.18 -0.11 m 1.63 -0.67 c 0.04 -0.06 0.03 -0.11 -0.05 -0.2 l -0.11 -0.12 l 0.38 -0.18 c 0.36 -0.17 0.54 -0.29 0.54 -0.36 c 0 -0.02 -0.19 -0.06 -0.42 -0.09 c -0.43 -0.07 -0.75 -0.16 -1.12 -0.33 c -0.12 -0.05 -0.28 -0.11 -0.35 -0.13 c -0.19 -0.04 -0.45 -0.32 -0.63 -0.68 c -0.11 -0.22 -0.27 -0.43 -0.49 -0.64 c -0.38 -0.37 -0.67 -0.55 -1.05 -0.65 c -0.3 -0.09 -0.52 -0.04 -0.85 0.16 c -0.39 0.25 -0.47 0.66 -0.26 1.33 c 0.25 0.83 0.82 1.33 1.82 1.58 c 0.41 0.1 0.44 0.1 0.67 0.03 c 0.2 -0.06 0.27 -0.07 0.39 -0.02 c 0.09 0.03 0.23 0.06 0.33 0.06 c 0.22 0 0.46 0.08 0.49 0.17 c 0.01 0.04 0.09 0.07 0.16 0.07 c 0.07 0 0.16 0.02 0.2 0.05 c 0.11 0.07 0.3 0.04 0.36 -0.06 m 2.92 -3.11 c 0.14 -0.05 0.2 -0.14 0.55 -0.87 c 0.58 -1.19 0.61 -1.39 0.29 -1.91 c -0.16 -0.26 -0.33 -0.38 -0.41 -0.29 c -0.07 0.07 -0.63 1.32 -0.63 1.41 c 0 0.05 0.04 0.1 0.1 0.12 c 0.13 0.04 0.17 0.23 0.09 0.42 c -0.04 0.09 -0.18 0.35 -0.32 0.59 c -0.14 0.24 -0.25 0.48 -0.25 0.52 c 0 0.09 0.34 0.1 0.57 0.02 m -1.72 -1.68 c 0.17 -0.18 0.32 -0.41 0.5 -0.79 c 0.14 -0.3 0.25 -0.56 0.23 -0.59 c -0.11 -0.19 -0.41 0.16 -0.77 0.9 c -0.27 0.56 -0.32 0.73 -0.23 0.73 c 0.02 0 0.14 -0.11 0.27 -0.25 m -3.19 -3.99 c 0 -0.06 -0.25 -0.3 -0.32 -0.3 c -0.04 0 -0.09 0.05 -0.14 0.11 c -0.07 0.1 -0.07 0.11 0 0.16 c 0.09 0.06 0.45 0.09 0.45 0.03 m -0.23 2.81 c -0.18 -0.11 -0.21 -0.21 -0.04 -0.17 c 0.24 0.06 0.64 -0.25 0.54 -0.41 c -0.02 -0.03 0 -0.13 0.03 -0.22 c 0.08 -0.24 -0.01 -0.43 -0.23 -0.5 c -0.1 -0.03 -0.21 -0.03 -0.28 0 c -0.15 0.05 -0.14 0.02 0.01 -0.2 c 0.18 -0.26 0.32 -0.28 0.52 -0.09 c 0.29 0.28 0.36 0.66 0.25 1.21 c -0.07 0.3 -0.14 0.38 -0.46 0.43 c -0.13 0.02 -0.21 0 -0.32 -0.07 m -2.12 -0.09 c -0.11 -0.04 -0.16 -0.25 -0.18 -0.65 c -0.02 -0.3 0 -0.42 0.08 -0.59 c 0.05 -0.12 0.1 -0.25 0.1 -0.28 c 0 -0.17 0.24 -0.05 0.31 0.16 c 0.03 0.09 0.02 0.1 -0.06 0.1 c -0.16 0 -0.2 0.16 -0.2 0.52 c 0 0.39 0.05 0.54 0.2 0.54 c 0.11 0 0.11 0.02 0.04 0.14 c -0.05 0.09 -0.15 0.11 -0.28 0.06" style="fill:#545169"/><g style="fill:#2f2e46"><path d="m 5.91 4.22 c 0.08 -0.21 0.14 -0.66 0.37 -0.73 c 0.25 -0.07 0.58 -0.1 0.7 -0.07 c 0.04 0.01 0.05 0.03 0.05 0.09 c 0 0.07 -0.02 0.1 -0.11 0.2 c -0.13 0.16 -0.21 0.32 -0.31 0.51 c -0.22 0 -0.43 0 -0.7 0"/><path d="m 5 11.98 c -0.38 -0.16 -0.6 -0.32 -0.8 -0.58 c -0.15 -0.2 -0.18 -0.22 -0.36 -0.21 c -0.06 0 -0.09 -0.01 -0.12 -0.06 c -0.09 -0.31 -0.05 -0.68 0.02 -1 c 0.14 -0.69 0.33 -1.06 0.77 -1.53 l 0.18 -0.19 c 0.02 0.21 0.05 0.43 0.09 0.62 c 0.09 0.31 -0.05 0.61 -0.07 0.86 c -0.07 0.36 -0.1 0.74 -0.03 1 c 0.11 0.43 0.21 0.7 0.38 0.93 c 0.1 0.14 0.12 0.2 0.09 0.2 c -0.01 0 -0.07 -0.02 -0.14 -0.05"/></g><path d="m 7.73 6.34 c 0 0.4 -0.24 0.73 -0.53 0.73 c -0.3 0 -0.54 -0.33 -0.54 -0.73 c 0 -0.4 0.24 -0.73 0.54 -0.73 c 0.29 0 0.53 0.33 0.53 0.73" style="fill:#d8455d"/><g style="fill:#2f2e46"><path d="m 9.99 12.14 c -0.3 -0.14 -0.69 -0.15 -1.05 -0.25 c -0.05 -0.01 -0.21 -0.07 -0.35 -0.13 c -0.28 -0.11 -0.61 -0.19 -0.79 -0.38 c -0.34 -0.45 -0.66 -0.91 -0.63 -1.41 c 0.04 -0.65 0.36 -1.49 0.73 -1.91 c 0.16 -0.18 0.41 -0.3 0.7 -0.35 c 0.17 -0.02 0.54 -0.07 0.27 -0.2 c -0.06 -0.03 -0.16 -0.1 -0.22 -0.16 c -0.13 -0.12 -0.14 -0.18 -0.05 -0.34 c 0.09 -0.18 0.13 -0.21 0.33 -0.23 c 0.1 0 0.19 -0.02 0.2 -0.04 c 0.04 -0.1 0.03 -0.21 -0.03 -0.26 c -0.03 -0.01 -0.11 -0.02 -0.18 -0.02 c -0.24 0 -0.38 -0.13 -0.38 -0.35 c 0 -0.23 0.08 -0.33 0.39 -0.48 c 0.11 -0.06 0.22 -0.12 0.25 -0.13 c 0.08 -0.06 0.13 -0.27 0.22 -0.93 c 0.03 -0.21 0.06 -0.43 0.07 -0.47 l 0.02 -0.07 l 0.08 0.2 c 0.07 0.18 -0.09 1.09 -0.18 1.84 c -0.06 0.48 -0.07 0.79 -0.02 1.01 c 0.07 0.39 0.21 0.91 0.27 1 c 0.06 0.09 0.21 0.21 0.32 0.23 c 0.07 0.02 0.08 0.03 0.09 0.11 c 0.16 0.27 0.32 -0.08 0.46 -0.23 c 0.46 -0.58 0.5 -1.23 0.88 -1.7 c 0.14 -0.18 0.27 -0.3 0.38 -0.36 c 0.09 -0.05 0.29 -0.07 0.46 -0.04 c 0.34 0.05 0.44 0.15 0.44 0.46 c 0 0.16 0 0.16 -0.09 0.25 c -0.13 0.14 -0.55 1 -0.67 1.37 c -0.05 0.15 -0.03 0.21 0.06 0.27 c 0.18 0.11 0.14 0.29 -0.18 0.86 c -0.32 0.55 -0.34 0.64 -0.19 0.7 c 0.12 0.04 0.41 0.02 0.56 -0.04 c 0.07 -0.02 0.13 -0.05 0.14 -0.05 c 0.04 0 0.08 0.16 0.08 0.31 c 0 0.32 -0.18 0.64 -0.57 1.04 c -0.25 0.26 -0.43 0.39 -0.76 0.55 c -0.23 0.11 -0.94 0.39 -0.99 0.39 c -0.01 0 -0.05 -0.03 -0.08 -0.07 m -0.18 -0.39 c 0.18 -0.04 0.56 -0.15 0.73 -0.21 c 0.13 -0.05 0.18 -0.11 0.18 -0.19 c 0 -0.08 0.1 -0.13 0.5 -0.27 c 0.21 -0.07 0.45 -0.16 0.54 -0.2 c 0.18 -0.1 0.32 -0.25 0.41 -0.44 c 0.23 -0.39 -0.63 -0.02 -0.81 0.04 c -0.13 0.04 -0.44 0.39 -0.48 0.22 c -0.03 -0.11 0.22 -0.25 0.49 -0.39 c 0.46 -0.19 -0.14 -0.17 -0.24 -0.17 c -0.36 -0.13 -0.57 0.3 -0.86 0.32 c -0.15 0 -0.26 -0.04 -0.42 -0.13 c -0.19 -0.12 -0.24 -0.11 -0.28 0 c -0.15 0.16 -0.32 0.26 -0.36 0.44 c -0.07 0.25 -0.27 0.48 -0.54 0.48 c -0.07 0 -0.17 0.07 -0.18 0.13 c 0.08 0.53 0.92 0.44 1.32 0.37"/><path d="m 7.59 13.66 c -0.11 -0.09 -0.16 -0.09 -0.27 -0.04 c -0.21 0.09 -0.27 0 -0.27 -0.43 v -0.31 l 0.16 -0.04 c 0.2 -0.05 0.39 -0.05 0.56 -0.01 c 0.07 0.02 0.18 0.04 0.23 0.04 c 0.13 0 0.28 0.05 0.37 0.11 c 0.12 0.08 0.1 0.14 -0.14 0.37 c -0.21 0.21 -0.46 0.41 -0.51 0.41 c -0.02 0 -0.08 -0.04 -0.14 -0.09 m 0.25 -0.09 c 0.03 -0.02 0.1 -0.11 0.14 -0.18 c 0.11 -0.17 0.12 -0.27 0.02 -0.32 c -0.11 -0.05 -0.19 -0.04 -0.27 0.04 c -0.12 0.12 -0.15 0.32 -0.07 0.45 c 0.04 0.06 0.1 0.07 0.17 0.01 m -0.53 -0.11 c 0.1 -0.11 0.13 -0.2 0.14 -0.36 c 0 -0.14 0 -0.14 -0.05 -0.15 c -0.21 0.06 -0.33 0.32 -0.26 0.52 c 0.03 0.08 0.1 0.07 0.18 -0.01"/><path d="m 9.28 13.44 c -0.05 -0.03 -0.14 -0.09 -0.21 -0.14 l -0.11 -0.08 l 0.11 -0.05 c 0.11 -0.05 0.2 -0.14 0.2 -0.2 c 0 -0.02 -0.02 -0.08 -0.05 -0.13 c -0.05 -0.08 -0.05 -0.11 -0.03 -0.13 c 0.04 -0.05 0.08 -0.04 0.09 0.02 c 0.01 0.03 0.06 0.1 0.11 0.17 c 0.11 0.13 0.15 0.23 0.15 0.39 c 0 0.08 -0.01 0.12 -0.05 0.16 c -0.06 0.07 -0.09 0.07 -0.21 0"/><path d="m 5.83 13.46 c -0.04 -0.02 -0.13 -0.04 -0.21 -0.04 c -0.29 -0.03 -0.36 -0.11 -0.36 -0.39 c 0 -0.18 0 -0.18 0.19 -0.5 c 0.05 -0.09 0.1 -0.14 0.13 -0.14 c 0.02 0 0.13 0.05 0.24 0.11 c 0.11 0.06 0.31 0.14 0.44 0.2 c 0.13 0.05 0.24 0.1 0.25 0.12 c 0 0.01 -0.02 0.04 -0.06 0.06 c -0.09 0.05 -0.15 0.11 -0.3 0.34 c -0.11 0.14 -0.16 0.32 -0.32 0.25 m 0.14 -0.2 c 0.09 -0.11 0.23 -0.46 0.02 -0.46 c -0.05 0 -0.07 0.02 -0.13 0.09 c -0.12 0.16 -0.13 0.34 -0.04 0.41 c 0.05 0.04 0.07 0.03 0.14 -0.04 m -0.45 -0.04 c 0.02 -0.02 0.05 -0.09 0.07 -0.15 c 0.04 -0.13 0.04 -0.39 0 -0.39 c -0.05 0 -0.23 0.22 -0.25 0.3 c -0.04 0.2 0.07 0.35 0.17 0.23"/><path d="m 5.29 9.16 c 0.1 -0.1 0.24 -0.26 0.32 -0.35 c 0.22 -0.27 0.65 -0.74 0.73 -0.81 c 0.09 -0.08 0.17 -0.04 0.27 -0.02 c 0.18 0.05 0.64 -0.03 0.99 -0.17 c 0.11 -0.04 0.2 -0.07 0.21 -0.07 c -0.25 0.23 -0.65 0.34 -0.9 0.41 c -0.51 0.15 -0.57 0.2 -0.95 0.73 c -0.11 0.14 -0.25 0.43 -0.41 0.34 c -0.2 -0.06 -0.26 0.04 -0.42 0.11 c -0.01 0 0.06 -0.08 0.16 -0.18"/><path d="m 7.21 7.13 c -0.13 -0.07 -0.11 -0.11 0.04 -0.15 c 0.16 -0.04 0.39 -0.17 0.43 -0.24 c 0 -0.28 0.11 -0.64 -0.01 -0.9 c -0.05 -0.11 -0.12 -0.15 -0.25 -0.17 c -0.22 -0.03 -0.25 -0.04 -0.25 -0.07 c 0 -0.1 0.22 -0.33 0.31 -0.33 c 0.07 0 0.27 0.24 0.36 0.42 c 0.14 0.31 0.15 0.66 0.05 1.06 c -0.06 0.25 -0.13 0.32 -0.3 0.38 c -0.15 0.05 -0.27 0.05 -0.37 -0.01"/><path d="m 4.61 6.41 c -0.03 -0.27 0.09 -0.72 0.23 -0.95 c 0.07 -0.11 0.25 -0.09 0.36 0.07 c 0.08 0.11 -0.09 0.14 -0.23 0.16 c -0.05 0.01 -0.09 0.03 -0.11 0.05 c -0.07 0.21 0.04 1 0 1.1 c 0 0 -0.18 -0.13 -0.2 -0.21"/><path d="m 4.89 6.94 c -0.07 -0.05 -0.13 -0.23 -0.08 -0.31 c 0.09 0.01 0.15 0.1 0.25 0.17 c 0.07 0.04 0.08 0.08 0.02 0.13 c -0.06 0.04 -0.12 0.04 -0.18 0.01"/></g><g style="fill:#ffb5c1"><path d="m 7.21 6.39 c 0 0.18 -0.11 0.33 -0.23 0.33 c -0.13 0 -0.24 -0.15 -0.24 -0.33 c 0 -0.18 0.11 -0.33 0.24 -0.33 c 0.13 0 0.23 0.14 0.23 0.33"/><path d="m 5.19 6.25 c 0 0.18 -0.08 0.32 -0.18 0.32 c -0.1 0 -0.18 -0.14 -0.18 -0.32 c 0 -0.18 0.08 -0.32 0.18 -0.32 c 0.1 0 0.18 0.14 0.18 0.32"/></g></svg>