<svg xmlns="http://www.w3.org/2000/svg" viewBox="0 0 16 16"><path d="m 15.3 5.47 c 3.11 7.96 -5.6 12.1 -11 10 c -3.78 -1.42 -5.66 -7.1 -2.98 -11.63 c 3.39 -5.76 11.6 -4.53 13.99 1.61" style="fill:#fbdc00"/><path d="m 6.89 14.81 c -0.78 -0.11 -1.91 -0.6 -2.66 -1.14 c -0.47 -0.33 -1.12 -0.98 -1.47 -1.47 c -0.52 -0.71 -1 -1.81 -1.14 -2.59 c -0.24 -0.91 -0.15 -1.92 0 -2.72 c 0.33 -1.84 1.72 -3.67 3.45 -4.55 c 0.68 -0.34 1.58 -0.64 1.97 -0.64 c 1.04 -0.19 2.25 -0.04 3.18 0.29 c 2.21 0.81 3.86 2.79 4.25 5.12 c 0.1 0.6 0.1 1.75 0 2.34 c -0.46 2.66 -2.63 4.86 -5.25 5.33 c -0.5 0.09 -1.77 0.1 -2.32 0.02 m 3 -0.96 c 1.72 -0.59 3.05 -1.94 3.64 -3.69 c 0.43 -1.26 0.4 -2.64 -0.06 -3.94 c -0.63 -1.75 -2.07 -3.1 -3.89 -3.64 c -0.56 -0.16 -0.61 -0.17 -1.55 -0.17 c -0.95 0 -0.98 0.01 -1.56 0.17 c -2.71 0.79 -4.48 3.36 -4.24 6.11 c 0.13 1.39 0.55 2.44 1.39 3.44 c 0.93 1.11 2.22 1.8 3.69 1.99 c 0.94 0.13 1.75 0.02 2.58 -0.27 m -4.38 -1.73 c -0.04 -0.03 -0.09 -0.23 -0.13 -0.45 c -0.07 -0.63 -0.49 -0.79 -1.02 -0.89 c -0.22 -0.05 -0.27 -0.08 -0.36 -0.25 c -0.17 -0.34 -0.46 -1.11 -0.46 -1.22 c 0 -0.06 0.1 -0.26 0.23 -0.44 c 0.34 -0.44 0.21 -0.86 0 -1.18 c -0.13 -0.19 -0.23 -0.39 -0.23 -0.43 c 0 -0.1 0.41 -1.14 0.52 -1.31 c 0.07 -0.1 0.16 -0.13 0.48 -0.19 c 0.51 -0.06 0.77 -0.39 0.83 -0.77 c 0.09 -0.54 0.11 -0.55 0.79 -0.84 c 0.34 -0.14 0.66 -0.26 0.71 -0.26 c 0.05 0 0.24 0.11 0.42 0.23 c 0.43 0.35 0.86 0.22 1.18 0 c 0.19 -0.13 0.38 -0.23 0.41 -0.23 c 0.14 0 1.34 0.54 1.38 0.62 c 0.02 0.05 0.07 0.25 0.11 0.46 c 0.1 0.55 0.24 0.71 0.76 0.79 c 0.25 0.04 0.43 0.11 0.5 0.17 c 0.06 0.06 0.22 0.39 0.36 0.74 l 0.25 0.64 l -0.24 0.36 c -0.28 0.39 -0.3 0.8 -0.08 1.15 c 0.35 0.52 0.34 0.45 0.05 1.18 c -0.14 0.36 -0.3 0.69 -0.34 0.72 c -0.04 0.04 -0.19 0.08 -0.32 0.09 c -0.67 0.09 -0.84 0.23 -0.95 0.83 c -0.04 0.22 -0.1 0.44 -0.13 0.47 c -0.06 0.08 -1.25 0.59 -1.36 0.59 c -0.04 0 -0.23 -0.11 -0.42 -0.25 c -0.3 -0.21 -0.37 -0.25 -0.59 -0.25 c -0.22 0 -0.3 0.03 -0.59 0.25 c -0.19 0.14 -0.38 0.25 -0.43 0.24 c -0.45 -0.2 -0.92 -0.26 -1.33 -0.57 m 3.76 -0.45 c 0.28 -0.14 0.28 -0.14 0.36 -0.5 c 0.08 -0.33 0.11 -0.38 0.44 -0.71 c 0.31 -0.36 0.54 -0.35 0.95 -0.44 c 0.07 -0.02 0.3 -0.48 0.3 -0.61 c 0 -0.03 -0.08 -0.18 -0.18 -0.33 c -0.18 -0.26 -0.18 -0.28 -0.18 -0.79 c 0 -0.52 0 -0.53 0.18 -0.77 c 0.21 -0.29 0.21 -0.32 0.07 -0.66 c -0.08 -0.29 -0.18 -0.28 -0.45 -0.33 c -0.32 -0.06 -0.36 -0.08 -0.7 -0.43 c -0.34 -0.35 -0.36 -0.39 -0.43 -0.72 c -0.07 -0.35 -0.07 -0.36 -0.3 -0.45 c -0.31 -0.14 -0.39 -0.13 -0.69 0.08 c -0.26 0.18 -0.28 0.18 -0.75 0.18 c -0.47 0 -0.49 0 -0.75 -0.18 c -0.31 -0.21 -0.38 -0.22 -0.7 -0.08 c -0.24 0.11 -0.25 0.11 -0.31 0.55 c -0.03 0.16 -0.11 0.28 -0.4 0.59 c -0.36 0.37 -0.38 0.39 -0.7 0.44 l -0.33 0.06 c -0.1 0.2 -0.19 0.4 -0.29 0.6 l 0.21 0.32 c 0.21 0.32 0.21 0.33 0.21 0.79 c 0 0.46 0 0.47 -0.21 0.79 l -0.21 0.32 c 0.13 0.34 0.24 0.59 0.5 0.63 c 0.4 0.07 0.55 0.16 0.86 0.52 c 0.24 0.28 0.3 0.39 0.36 0.64 c 0.03 0.17 0.07 0.33 0.09 0.36 c 0.2 0.13 0.37 0.17 0.6 0.25 l 0.29 -0.19 c 0.28 -0.19 0.29 -0.19 0.78 -0.19 c 0.5 0 0.5 0 0.78 0.21 c 0.26 0.23 0.36 0.19 0.61 0.06 m -2 -0.84 c -1.06 -0.31 -1.76 -1.23 -1.77 -2.34 c 0 -0.56 0.11 -0.95 0.38 -1.36 c 0.31 -0.46 0.34 -0.47 0.62 -0.2 c 0.13 0.13 0.23 0.26 0.23 0.29 c 0 0.04 -0.07 0.16 -0.14 0.29 c -0.21 0.31 -0.33 0.77 -0.3 1.09 c 0.05 0.47 0.36 1 0.69 1.2 l 0.16 0.09 l 0.36 -0.56 c 0.2 -0.31 0.34 -0.57 0.32 -0.59 c -0.34 -0.19 -0.82 -0.06 -1.13 -0.33 c -0.06 -0.06 -0.03 -0.16 0.25 -0.66 c 0.18 -0.32 0.5 -0.9 0.71 -1.29 c 0.28 -0.5 0.42 -0.7 0.49 -0.71 c 0.13 -0.02 0.59 0.28 0.59 0.38 c 0 0.05 -0.2 0.43 -0.44 0.86 c -0.24 0.43 -0.44 0.8 -0.45 0.84 c 0.21 0.16 1.23 0.27 1.24 0.46 c 0 0.02 -0.23 0.41 -0.52 0.86 c -0.29 0.45 -0.53 0.86 -0.54 0.89 c -0.02 0.05 0.01 0.06 0.14 0.04 c 0.76 -0.16 1.28 -0.76 1.32 -1.51 c 0.02 -0.47 -0.08 -0.79 -0.35 -1.13 c -0.11 -0.14 -0.2 -0.28 -0.2 -0.32 c 0 -0.03 0.08 -0.16 0.18 -0.28 c 0.25 -0.3 0.36 -0.29 0.64 0.05 c 0.45 0.57 0.63 1.22 0.52 1.94 c -0.2 1.42 -1.66 2.39 -3 1.99" style="fill:#042639"/></svg>