<svg xmlns="http://www.w3.org/2000/svg" viewBox="0 0 16 16"><path d="m 12.1 1.32 c 14.1 11.96 -14.88 23.47 -11.9 4.97 c 0.65 -4.06 8.1 -8.19 11.9 -4.97" style="fill:#ff8c00"/><path d="m 12.66 8.36 c 0 -2.72 -2.14 -4.93 -4.79 -4.93 c -2.64 0 -4.79 2.21 -4.79 4.93 c 0 2.73 2.15 4.94 4.79 4.94 c 2.65 0 4.79 -2.21 4.79 -4.94" style="fill:#0ba15d"/><path d="m 12.66 8.2 c -0.03 2.7 -2.16 4.88 -4.79 4.88 c -2.6 0 -4.73 -2.14 -4.79 -4.82 c 0 0.04 0 0.07 -0.01 0.11 c 0 2.73 2.14 4.94 4.79 4.94 c 2.65 0 4.79 -2.21 4.79 -4.94 c 0 -0.05 0 -0.11 0 -0.16" style="fill-opacity:0.3"/><path d="m 5.68 8.91 c 0 -0.32 -0.23 -0.57 -0.52 -0.57 c -0.29 0 -0.52 0.25 -0.52 0.57 c 0 0.32 0.23 0.57 0.52 0.57 c 0.29 0 0.52 -0.26 0.52 -0.57"/><path d="m 3.83 5.88 c -0.12 0.2 -0.23 0.39 -0.32 0.61 c -0.1 0.21 -0.18 0.43 -0.24 0.66 c -0.06 0.22 -0.11 0.45 -0.14 0.69 c -0.03 0.23 -0.05 0.46 -0.05 0.7 c 0 0.19 0.02 0.37 0.04 0.55 c 1.18 -2.22 8.11 -2.09 9.53 -0.96 c 0 -0.03 0 -0.06 -0.01 -0.09 c -0.01 -0.08 -0.02 -0.17 -0.03 -0.25 c -0.02 -0.08 -0.03 -0.16 -0.04 -0.25 c -0.02 -0.08 -0.04 -0.16 -0.06 -0.24 c -0.02 -0.08 -0.04 -0.16 -0.07 -0.24 c -0.02 -0.08 -0.05 -0.16 -0.08 -0.24 c -0.03 -0.08 -0.06 -0.16 -0.09 -0.23 c -0.03 -0.08 -0.07 -0.15 -0.1 -0.23 c -0.04 -0.07 -0.07 -0.15 -0.11 -0.22 c -0.04 -0.07 -0.08 -0.14 -0.13 -0.21 c -0.04 -0.07 -0.09 -0.14 -0.13 -0.21 c -0.05 -0.07 -0.09 -0.14 -0.14 -0.2 c -0.05 -0.06 -0.1 -0.13 -0.15 -0.19 c -0.05 -0.06 -0.11 -0.13 -0.16 -0.19 c -0.01 -0.01 -0.02 -0.02 -0.02 -0.02 c -0.98 -0.49 -2.05 -0.75 -3.16 -0.75 c -1.58 0.01 -3.11 0.54 -4.33 1.52" style="fill-opacity:0.3"/><path d="m 10.48 8.86 c 0 -0.32 -0.21 -0.58 -0.48 -0.58 c -0.27 0 -0.48 0.26 -0.48 0.58 c 0 0.32 0.21 0.58 0.48 0.58 c 0.27 0 0.48 -0.26 0.48 -0.58"/><path d="m 6.87 9.53 c 0.16 0.82 0.5 1.34 0.88 1.34 c 0.38 0 0.73 -0.52 0.88 -1.34" style="fill-opacity:0.74"/><path d="m 3.83 5.71 c -0.12 0.2 -0.23 0.39 -0.32 0.61 c -0.28 0.69 -0.43 1.36 -0.43 2.05 c 0 0.19 0.02 0.37 0.04 0.55 c 1.18 -2.22 8.11 -2.08 9.53 -0.96 c -0.02 -0.2 -0.04 -0.4 -0.08 -0.58 c -0.2 -0.85 -0.54 -1.59 -1.06 -2.22 c -0.05 -0.06 -0.11 -0.13 -0.16 -0.18 c -0.01 -0.01 -0.02 -0.02 -0.02 -0.03 c -0.98 -0.49 -2.05 -0.75 -3.16 -0.75 c -1.58 0.01 -3.11 0.54 -4.33 1.52" style="fill:#fc7d00"/><path d="m 8.57 5.74 c 0 0.57 -0.48 1.04 -1.07 1.04 c -0.59 0 -1.07 -0.46 -1.07 -1.04 c 0 -0.57 0.48 -1.04 1.07 -1.04 c 0.59 0 1.07 0.46 1.07 1.04" style="fill:#b22525"/><path d="m 3.83 5.71 c -0.25 0.4 -0.43 0.84 -0.56 1.26 c -0.13 0.46 -0.19 0.94 -0.19 1.39 c 0 0.01 0 0.02 0 0.04 c 0.03 -0.93 0.3 -1.82 0.75 -2.56 c 2.35 -1.64 5.11 -1.94 7.49 -0.77 c 0.12 0.13 0.25 0.28 0.34 0.4 c 0.52 0.81 0.88 1.6 0.97 2.46 c 0 0 0.01 0.01 0.01 0.01 c 0 -0.03 0 -0.06 0 -0.09 c -0.12 -1.06 -0.65 -2.19 -1.3 -2.9 c -0.01 -0.01 -0.02 -0.02 -0.02 -0.02 c -2.66 -1.09 -5.38 -0.87 -7.49 0.77" style="fill:#fff;fill-opacity:0.2"/><path d="m 8.19 5.74 c 0 0.37 -0.31 0.67 -0.7 0.67 c -0.38 0 -0.69 -0.3 -0.69 -0.67 c 0 -0.37 0.31 -0.67 0.69 -0.67 c 0.38 0 0.7 0.3 0.7 0.67" style="fill:#b22525"/><path d="m 4 11.96 c 1.12 0.86 2.48 1.33 3.88 1.34 c 1.28 0 2.52 -0.39 3.59 -1.12 c -1.07 0.16 -2.14 0.24 -3.22 0.24 c -1.43 -0.02 -2.84 -0.17 -4.24 -0.46" style="fill:#087042"/><path d="m 7.89 3.52 c -1.67 0 -3.26 0.76 -4.33 2.07 c 1.46 -0.58 3 -0.88 4.59 -0.89 c 1.29 0 2.57 0.2 3.81 0.58 c -1.07 -1.13 -2.54 -1.77 -4.07 -1.77" style="fill-opacity:0.3"/><path d="m 4 11.96 c 1.12 0.86 2.48 1.33 3.88 1.34 c 1.28 0 2.52 -0.39 3.59 -1.12 c -1.07 0.16 -2.14 0.24 -3.22 0.24 c -1.43 -0.02 -2.84 -0.17 -4.24 -0.46" style="fill-opacity:0.2"/><path d="m 7.89 3.43 c -1.67 0 -3.26 0.76 -4.33 2.08 c 1.46 -0.58 3 -0.88 4.59 -0.89 c 1.29 0 2.57 0.2 3.81 0.59 c -1.07 -1.13 -2.54 -1.77 -4.07 -1.77" style="fill:#087042"/><g style="fill-opacity:0.3"><path d="m 4 11.96 c 0.14 0.1 0.28 0.2 0.43 0.3 c 1.26 0.23 2.54 0.36 3.82 0.38 c 0.93 0 1.86 -0.06 2.78 -0.18 c 0.15 -0.08 0.3 -0.18 0.44 -0.27 c -1.07 0.16 -2.14 0.23 -3.22 0.23 c -1.43 -0.02 -2.84 -0.17 -4.24 -0.46"/><path d="m 8.15 4.39 c -1.47 0.01 -2.92 0.28 -4.3 0.79 c -0.1 0.11 -0.2 0.21 -0.29 0.32 c 1.46 -0.58 3 -0.88 4.59 -0.89 c 1.29 0 2.57 0.2 3.81 0.59 c -0.11 -0.11 -0.21 -0.21 -0.32 -0.31 c -1.13 -0.32 -2.3 -0.49 -3.48 -0.49"/></g><path d="m 7.89 3.43 c -1.67 0 -3.26 0.76 -4.33 2.08 c 0.1 -0.04 0.2 -0.07 0.29 -0.11 c 1.06 -1.12 2.52 -1.75 4 -1.75 c 1.38 0 2.71 0.52 3.74 1.45 c 0.11 0.03 0.22 0.06 0.32 0.09 c -1.07 -1.13 -2.54 -1.77 -4.06 -1.77" style="fill:#fff;fill-opacity:0.1"/></svg>