<svg xmlns="http://www.w3.org/2000/svg" viewBox="0 0 16 16"><path d="m 12.13 1.21 c 14 12 -14.79 23.63 -11.83 5 c 0.65 -4.09 8.1 -8.25 11.83 -5" style="fill:#b0dfe5"/><g style="fill:#28588b"><path d="m 4.89 12.4 c -0.32 -0.13 -0.5 -0.25 -0.8 -0.53 c -0.29 -0.25 -0.54 -0.54 -0.5 -0.54 c 0.01 0 0.17 0.1 0.35 0.23 c 0.39 0.27 0.79 0.43 1.15 0.46 c 0.23 0.02 0.34 0 0.63 -0.09 c 0.5 -0.17 1.04 -0.43 1.46 -0.71 c 1.58 -1.05 1.91 -1.23 2.64 -1.46 c 0.53 -0.16 1.22 -0.16 1.93 0.02 c 0.82 0.2 0.69 0.29 -0.62 0.43 c -1.23 0.13 -1.73 0.31 -2.92 1 c -0.42 0.24 -0.9 0.52 -1.07 0.62 c -1 0.55 -1.78 0.75 -2.23 0.57"/><path d="m 4.59 11.22 c -0.05 -0.06 -0.06 -0.34 -0.06 -2.06 c 0 -1.09 0.01 -2 0.03 -2.02 c 0.02 -0.02 0.34 -0.04 0.72 -0.04 c 0.2 0.05 0.7 -0.08 0.71 0.09 c 0.04 0.16 0.04 3.88 0.01 4.06 c -0.03 0.14 -0.05 0.17 -0.18 0.21 c -0.41 0.16 -0.91 0.09 -1.22 -0.23"/></g><path d="m 7.12 10.9 c -0.04 -0.07 0.02 -3.92 0.01 -4.53 v -0.62 c 0.24 0.03 1.3 -0.08 1.41 0.07 c 0.02 0.04 0.04 0.92 0.04 2.16 c 0 1.93 0.03 1.96 -0.04 2.02 c -0.47 0.24 -0.96 0.64 -1.42 0.9" style="fill:#2d5f92"/><path d="m 9.57 9.39 c -0.04 -0.07 -0.05 -0.64 -0.03 -2.38 c 0.01 -1.26 0.04 -2.32 0.05 -2.36 c 0.03 -0.06 0.1 -0.07 0.63 -0.07 c 0.33 0 0.64 0.01 0.69 0.02 l 0.09 0.03 v 2.36 c 0 1.3 -0.01 2.36 -0.03 2.36 c -0.39 -0.11 -1.13 -0.03 -1.39 0.04" style="fill:#4b7fb3"/></svg>