<svg xmlns="http://www.w3.org/2000/svg" viewBox="0 0 16 16"><path d="m 7.99 0.07 c 10.56 -1.2 10.41 15.91 -0.19 15.71 c -9.86 0.57 -10.74 -16.63 0.19 -15.71" style="fill:#f4f4f4"/><path d="m 10.1 10.54 c 0 1.21 -0.97 2.19 -2.17 2.19 c -1.2 0 -2.17 -0.98 -2.17 -2.19 c 0 -1.21 0.97 -2.19 2.17 -2.19 c 1.2 0 2.17 0.98 2.17 2.19" style="fill:#c83d38"/><path d="m 10 7.89 c 0 1.21 -0.97 2.19 -2.17 2.19 c -1.2 0 -2.17 -0.98 -2.17 -2.19 c 0 -1.21 0.97 -2.19 2.17 -2.19 c 1.2 0 2.17 0.98 2.17 2.19" style="fill:#945bb0"/><path d="m 10 5.61 c 0 1.21 -0.97 2.19 -2.17 2.19 c -1.2 0 -2.17 -0.98 -2.17 -2.19 c 0 -1.21 0.97 -2.19 2.17 -2.19 c 1.2 0 2.17 0.98 2.17 2.19" style="fill:#3b962e"/></svg>