<svg xmlns="http://www.w3.org/2000/svg" viewBox="0 0 16 16"><path d="m 3.3 14.45 c 12 7.98 19.44 -17.48 3.89 -14.1 c -6.43 1.44 -10.33 10.45 -3.89 14.1" style="fill:#66cdaa"/><path d="m 4.98 7.62 c 0 -0.28 0.54 -4.86 0.59 -4.99 c 0.05 -0.14 0.07 -0.15 0.27 -0.12 c 1.97 0.11 3.52 0.26 5.41 0.57 c -0.12 1.33 -0.21 2.07 -0.38 4.39 l -0.03 0.13 c -0.7 0.04 -5.45 0.06 -5.86 0.02" style="fill:#fff"/><path d="m 7.08 7.36 c -0.25 -0.04 -0.34 -0.23 -0.4 -0.36 c -0.16 -0.31 -0.32 -0.72 0.48 -0.87 c 0.13 -0.02 0.12 -0.07 0.14 -0.23 c 0.04 -0.32 0.04 -0.32 0.17 -0.46 c 0.27 -0.28 0.63 -0.32 0.92 -0.09 c 0.13 0.1 0.21 0.25 0.22 0.46 c 0.02 0.17 -0.03 0.24 -0.09 0.37 c 0 0 0.1 0.08 0.22 0.17 c 1 0.16 0.21 1.73 -0.57 0.92 l 0.11 0.91 c 0.03 0.29 -0.98 0.16 -0.82 -0.14 c 0.31 -0.59 0.08 -0.79 0.03 -0.81"/><path d="m 9.41 4.79 c -0.07 -0.02 -0.2 -0.12 -0.23 -0.19 c -0.09 -0.16 -0.19 -0.38 0.29 -0.45 c 0.08 -0.01 0.07 -0.04 0.08 -0.12 c 0.02 -0.16 0.02 -0.17 0.1 -0.24 c 0.15 -0.14 0.37 -0.16 0.54 -0.05 c 0.08 0.05 0.12 0.13 0.13 0.24 c 0.01 0.09 -0.02 0.13 -0.05 0.2 c 0 0 0.06 0.04 0.13 0.09 c 0.58 0.09 0.12 0.91 -0.34 0.48 l 0.06 0.47 c 0.02 0.15 -0.57 0.09 -0.48 -0.07 c 0.18 -0.31 0.05 -0.41 0.02 -0.42"/><path d="m 7.71 14.54 c -0.23 -0.09 -0.68 -0.27 -1.55 -0.66 c -0.43 -0.19 -0.98 -0.43 -1.24 -0.54 c -0.26 -0.11 -0.52 -0.24 -0.6 -0.29 l -0.13 -0.09 v -5.29 l 0.09 -0.04 c 0.09 -0.04 0.41 -0.04 3.6 -0.04 c 2.91 0 3.53 0.01 3.63 0.04 l 0.11 0.03 v 1.9 c 0 1.04 0 2.24 -0.02 2.67 l -0.02 0.78 l -0.33 0.16 c -0.35 0.17 -2.34 1.05 -2.75 1.23 c -0.29 0.12 -0.56 0.21 -0.61 0.21 c -0.02 0 -0.11 -0.03 -0.2 -0.06" style="fill:#698e5c"/><path d="m 6.7 4.82 c -0.03 -0.01 -0.09 -0.09 -0.13 -0.16 c -0.14 -0.25 -0.31 -0.27 -0.43 -0.06 c -0.06 0.11 -0.18 0.17 -0.28 0.15 c -0.06 -0.01 -0.07 -0.02 -0.07 -0.16 c 0 -0.12 0.04 -0.23 0.2 -0.56 c 0.11 -0.23 0.23 -0.46 0.29 -0.52 c 0.09 -0.13 0.23 -0.18 0.33 -0.12 c 0.07 0.04 0.21 0.5 0.3 0.93 c 0.08 0.41 0.08 0.46 -0.04 0.5 c -0.05 0.02 -0.1 0.03 -0.1 0.03 c 0 0 -0.03 -0.01 -0.06 -0.03 m -0.2 -0.64 c 0.05 -0.2 -0.06 -0.38 -0.15 -0.25 c -0.05 0.08 -0.05 0.21 0 0.29 c 0.05 0.08 0.13 0.06 0.15 -0.04"/><g transform="scale(0.063)" style="fill:none;stroke:#fff"><path d="m 77.2 133.9 l 98.9 -0.56" style="stroke-dasharray:5.82237 5.82237;stroke-width:5.82"/><g style="stroke-dasharray:5.5818 5.5818;stroke-width:5.58"><path d="m 173.3 142 l 0.81 63.75"/><path d="m 79.88 143.1 l 0.75 63.75"/></g></g></svg>