<svg xmlns="http://www.w3.org/2000/svg" xmlns:xlink="http://www.w3.org/1999/xlink" viewBox="0 0 16 16"><defs><g id="5" style="clip-path:url(#4)"><path d="m 8.11 12.22 c -2.28 0 -4.12 -1.85 -4.12 -4.13 c 0 -2.29 1.84 -4.13 4.12 -4.13 c 2.27 0 4.12 1.85 4.12 4.13 c 0 2.28 -1.84 4.13 -4.12 4.13" style="fill:url(#3)"/></g><clipPath id="4"><path d="M 0,0 H16 V16 H0 z"/></clipPath><filter id="1" filterUnits="objectBoundingBox" x="0" y="0" width="16" height="16"><feColorMatrix type="matrix" in="SourceGraphic" values="0 0 0 0 1 0 0 0 0 1 0 0 0 0 1 0 0 0 1 0"/></filter><linearGradient id="C" gradientUnits="userSpaceOnUse" x1="8.91" y1="9.63" x2="7.39" y2="6.55"><stop style="stop-color:#fff;stop-opacity:0.7"/><stop offset="1" style="stop-color:#fff;stop-opacity:0"/></linearGradient><linearGradient id="9" gradientUnits="userSpaceOnUse" y1="8.74" x2="0" y2="6.53"><stop style="stop-color:#fff"/><stop offset="1" style="stop-color:#979797"/></linearGradient><linearGradient id="B" gradientUnits="userSpaceOnUse" y1="9.64" x2="0" y2="6.53"><stop style="stop-color:#fff"/><stop offset="1" style="stop-color:#393939"/></linearGradient><linearGradient id="A" gradientUnits="userSpaceOnUse" x1="9.65" x2="6.55"><stop style="stop-color:#fff;stop-opacity:0.2"/><stop offset="1" style="stop-color:#fff;stop-opacity:0"/></linearGradient><linearGradient id="7" gradientUnits="userSpaceOnUse" y1="9.97" x2="0" y2="5.95"><stop style="stop-color:#ccc"/><stop offset="1" style="stop-color:#959595"/></linearGradient><linearGradient id="6" gradientUnits="userSpaceOnUse" y1="4.11" x2="0" y2="12.1"><stop style="stop-color:#191919"/><stop offset="1" style="stop-color:#393939"/></linearGradient><linearGradient id="3" gradientUnits="userSpaceOnUse" y1="3.95" x2="0" y2="17.74"><stop style="stop-color:#fff"/><stop offset="1" style="stop-color:#fff;stop-opacity:0"/></linearGradient><linearGradient id="0" gradientUnits="userSpaceOnUse" x1="16.76" y1="16.83" x2="11.36" y2="19.95"><stop style="stop-color:#b3b3b3"/><stop offset="0.5" style="stop-color:#787878"/><stop offset="1" style="stop-color:#b3b3b3"/></linearGradient><mask id="2"><g style="filter:url(#1)"><path d="M 0,0 H16 V16 H0 z" style="fill-opacity:0.6"/></g></mask><radialGradient id="8" gradientUnits="userSpaceOnUse" cx="47.2" cy="45.74" r="20.2" gradientTransform="matrix(-0.087 0 0 -0.087 12.22 12)"><stop style="stop-color:#000;stop-opacity:0"/><stop offset="0.83" style="stop-color:#000"/><stop offset="1" style="stop-color:#000;stop-opacity:0"/></radialGradient></defs><path d="m 0.23 9.7 c 1.24 8.19 13.57 8.43 15.44 0.47 c 1.92 -6.45 -5 -11.71 -10.23 -9.6 c -3.48 1 -6.29 5.08 -5.21 9.13" style="fill:#7f7f7f"/><path d="m 3.56 10.71 c -1.45 -2.52 -0.59 -5.74 1.92 -7.19 c 2.51 -1.45 5.71 -0.59 7.16 1.93 c 1.45 2.52 0.59 5.74 -1.92 7.19 c -2.51 1.45 -5.71 0.59 -7.16 -1.93" style="fill:url(#0)"/><use xlink:href="#5" style="mask:url(#2)"/><path d="m 8.1 12.1 c -2.18 0 -3.95 -1.78 -3.95 -3.97 c 0 -2.19 1.77 -3.97 3.95 -3.97 c 2.19 0 3.96 1.78 3.96 3.97 c 0 2.2 -1.77 3.97 -3.96 3.97" style="fill:url(#6)"/><path d="m 8.1 10.92 l 0.58 -0.77 c 0.9 -0.25 1.55 -1.07 1.55 -2.06 c 0 -1.18 -0.95 -2.14 -2.13 -2.14 c -1.18 0 -2.13 0.96 -2.13 2.14 c 0 0.98 0.66 1.81 1.55 2.06" style="fill:url(#7)"/><path d="m 6.36 8 c 0 -0.98 0.79 -1.77 1.76 -1.77 c 0.97 0 1.76 0.79 1.76 1.77 c 0 0.97 -0.79 1.76 -1.76 1.76 c -0.97 0 -1.76 -0.79 -1.76 -1.76" style="fill:url(#8)"/><path d="m 6.55 8.1 c 0 -0.86 0.7 -1.56 1.55 -1.56 c 0.86 0 1.55 0.7 1.55 1.56 c 0 0.86 -0.7 1.55 -1.55 1.55 c -0.86 0 -1.55 -0.7 -1.55 -1.55" style="fill:url(#9)"/><path d="m 10.1 11.32 l -0.21 0.12 l -0.47 -0.82 l 0.21 -0.12 m 2.17 -1.54 l -0.06 0.23 l -0.91 -0.25 l 0.06 -0.23 m 0.45 -2.63 l 0.12 0.21 l -0.82 0.47 l -0.12 -0.2 m -1.54 -2.18 l 0.23 0.06 l -0.25 0.92 l -0.23 -0.06 m -2.62 -0.45 l 0.2 -0.12 l 0.47 0.82 l -0.2 0.12 m -2.17 1.54 l 0.06 -0.23 l 0.91 0.25 l -0.06 0.23 m -0.45 2.63 l -0.12 -0.21 l 0.82 -0.47 l 0.12 0.2 m 1.54 2.18 l -0.23 -0.06 l 0.25 -0.92 l 0.23 0.06" style="fill:#fff;fill-opacity:0.7"/><path d="m 8.1 9.64 c 0.07 0 0.14 0 0.2 -0.01 l -0.2 -0.51 l -0.2 0.51 c 0.07 0.01 0.13 0.01 0.2 0.01 m -0.2 -0.01 l -0.07 -0.54 l -0.32 0.44 c 0.06 0.03 0.13 0.05 0.2 0.07 c 0.06 0.02 0.13 0.03 0.2 0.04 m -0.39 -0.11 l 0.08 -0.54 l -0.43 0.34 c 0.05 0.04 0.11 0.08 0.17 0.11 c 0.06 0.04 0.12 0.06 0.18 0.09 m -0.35 -0.2 l 0.21 -0.5 l -0.5 0.21 c 0.04 0.05 0.09 0.11 0.13 0.16 c 0.05 0.05 0.1 0.09 0.15 0.13 m -0.29 -0.29 l 0.34 -0.43 l -0.54 0.08 c 0.02 0.06 0.05 0.13 0.09 0.18 c 0.04 0.06 0.07 0.12 0.11 0.17 m -0.2 -0.35 l 0.43 -0.33 l -0.5 0.14 c 0.02 0.07 0.04 0.13 0.07 0.19 m 0.43 -0.33 l -0.54 -0.06 c 0.01 0.07 0.02 0.13 0.04 0.2 m -0.04 -0.2 l 0.5 -0.2 l -0.5 -0.2 c -0.01 0.06 -0.01 0.13 -0.01 0.2 c 0 0.07 0 0.14 0.01 0.2 m 0 -0.41 l 0.54 -0.06 l -0.43 -0.33 c -0.03 0.06 -0.05 0.13 -0.07 0.2 c -0.02 0.07 -0.03 0.13 -0.04 0.2 m 0.11 -0.4 l 0.54 0.08 l -0.34 -0.43 c -0.04 0.05 -0.08 0.11 -0.11 0.17 c -0.04 0.06 -0.06 0.12 -0.09 0.18 m 0.2 -0.35 l 0.5 0.21 l -0.21 -0.5 c -0.05 0.04 -0.11 0.09 -0.15 0.14 c -0.05 0.05 -0.09 0.1 -0.14 0.15 m 0.29 -0.29 l 0.43 0.34 l -0.08 -0.54 c -0.06 0.03 -0.13 0.05 -0.18 0.09 c -0.06 0.04 -0.12 0.07 -0.17 0.11 m 0.35 -0.2 l 0.32 0.44 l -0.14 -0.5 c -0.07 0.02 -0.13 0.04 -0.19 0.07 m 0.32 0.44 l 0.07 -0.54 c -0.07 0.01 -0.13 0.02 -0.2 0.04 m 0.2 -0.04 l 0.2 0.51 l 0.2 -0.51 c -0.07 -0.01 -0.13 -0.01 -0.2 -0.01 c -0.07 0 -0.13 0 -0.2 0.01 m 0.4 0 l 0.07 0.54 l 0.32 -0.44 c -0.06 -0.03 -0.13 -0.05 -0.2 -0.07 c -0.06 -0.02 -0.13 -0.03 -0.2 -0.04 m 0.39 0.11 l -0.08 0.54 l 0.43 -0.34 c -0.05 -0.04 -0.11 -0.08 -0.17 -0.11 c -0.06 -0.04 -0.12 -0.06 -0.18 -0.09 m 0.35 0.2 l -0.21 0.5 l 0.5 -0.21 c -0.04 -0.05 -0.09 -0.11 -0.13 -0.16 c -0.05 -0.05 -0.1 -0.09 -0.15 -0.13 m 0.29 0.29 l -0.34 0.43 l 0.54 -0.08 c -0.02 -0.06 -0.05 -0.13 -0.09 -0.18 c -0.04 -0.06 -0.07 -0.12 -0.11 -0.17 m 0.2 0.35 l -0.43 0.33 l 0.5 -0.14 c -0.02 -0.06 -0.04 -0.13 -0.07 -0.19 m -0.43 0.33 l 0.54 0.06 c -0.01 -0.07 -0.02 -0.13 -0.04 -0.2 m 0.04 0.2 l -0.5 0.2 l 0.5 0.2 c 0.01 -0.06 0.01 -0.13 0.01 -0.2 c 0 -0.07 0 -0.14 -0.01 -0.2 m 0 0.41 l -0.54 0.06 l 0.43 0.33 c 0.03 -0.06 0.05 -0.13 0.07 -0.2 c 0.02 -0.07 0.03 -0.13 0.04 -0.2 m -0.11 0.4 l -0.54 -0.08 l 0.34 0.43 c 0.04 -0.05 0.08 -0.11 0.11 -0.17 c 0.04 -0.06 0.06 -0.12 0.09 -0.18 m -0.2 0.35 l -0.5 -0.21 l 0.21 0.5 c 0.05 -0.04 0.11 -0.09 0.15 -0.14 c 0.05 -0.05 0.09 -0.1 0.14 -0.15 m -0.29 0.29 l -0.43 -0.34 l 0.08 0.54 c 0.06 -0.03 0.13 -0.05 0.18 -0.09 c 0.06 -0.04 0.12 -0.07 0.17 -0.11 m -0.35 0.2 l -0.32 -0.44 l 0.14 0.5 c 0.07 -0.02 0.13 -0.04 0.19 -0.07 m -0.32 -0.44 l -0.07 0.54 c 0.07 -0.01 0.13 -0.02 0.2 -0.04" style="fill:url(#A)"/><path d="m 6.55 8.1 c 0 0.86 0.69 1.55 1.55 1.55 c 0.86 0 1.55 -0.69 1.55 -1.55 c 0 -0.86 -0.69 -1.55 -1.55 -1.55 c -0.86 0 -1.55 0.69 -1.55 1.55 m 0.5 0 c 0 -0.57 0.47 -1.05 1.04 -1.05 c 0.58 0 1.05 0.47 1.05 1.05 c 0 0.58 -0.47 1.05 -1.05 1.05 c -0.57 0 -1.04 -0.47 -1.04 -1.05" style="fill:url(#B)"/><path d="m 8.3 9.63 l 0.06 -0.54 c -0.09 0.02 -0.18 0.04 -0.27 0.04 l 0.2 0.51 m -0.2 -0.51 c -0.09 0 -0.18 -0.01 -0.27 -0.04 l 0.06 0.54 m -0.06 -0.54 c -0.09 -0.02 -0.18 -0.06 -0.25 -0.1 l -0.08 0.54 l 0.32 -0.44 m -0.25 -0.1 c -0.08 -0.05 -0.15 -0.11 -0.21 -0.17 l -0.21 0.5 m 0.21 -0.5 c -0.07 -0.07 -0.12 -0.14 -0.16 -0.21 l -0.34 0.43 m 1.49 0.05 l 0.33 0.44 l -0.08 -0.54 c -0.08 0.05 -0.16 0.08 -0.25 0.1 m 0.68 0.23 l -0.21 -0.5 c -0.07 0.07 -0.14 0.12 -0.21 0.16 m 0.21 -0.16 l 0.5 0.21 l -0.34 -0.43 c -0.04 0.08 -0.1 0.15 -0.16 0.21 m 0.16 -0.21 l 0.54 0.08 l -0.43 -0.33 c -0.02 0.09 -0.06 0.18 -0.1 0.25 m 0.1 -0.25 l 0.54 -0.07 l -0.5 -0.2 c 0 0.09 -0.01 0.18 -0.04 0.27 m 0.04 -0.27 l 0.5 -0.2 l -0.54 -0.07 c 0.02 0.09 0.04 0.18 0.04 0.27 m -0.04 -0.27 l 0.43 -0.33 l -0.54 0.08 c 0.05 0.08 0.08 0.16 0.1 0.25 m -2.43 0.86 l 0.54 -0.08 c -0.05 -0.08 -0.08 -0.16 -0.1 -0.25 l -0.44 0.32 m 0.44 -0.32 c -0.02 -0.09 -0.04 -0.18 -0.04 -0.27 l -0.5 0.2 m 0.5 -0.2 c 0 -0.09 0.01 -0.18 0.04 -0.27 l -0.54 0.06 m 0.54 -0.06 c 0.02 -0.09 0.06 -0.18 0.1 -0.25 l -0.54 -0.08 l 0.44 0.33 m 0.1 -0.25 c 0.05 -0.08 0.1 -0.15 0.16 -0.21 l -0.5 -0.21 l 0.33 0.43 m 0.17 -0.21 c 0.07 -0.07 0.14 -0.12 0.21 -0.16 l -0.43 -0.34 m 1.84 0.71 l 0.34 -0.43 l -0.5 0.21 c 0.07 0.07 0.12 0.14 0.16 0.21 m -0.16 -0.21 l 0.21 -0.5 l -0.43 0.34 c 0.08 0.04 0.15 0.1 0.21 0.16 m -0.21 -0.16 l 0.08 -0.54 l -0.32 0.44 c 0.09 0.02 0.17 0.06 0.25 0.1 m -0.25 -0.1 l -0.06 -0.54 l -0.2 0.51 c 0.09 0 0.18 0.01 0.27 0.04 m -0.27 -0.04 l -0.2 -0.51 l -0.06 0.54 c 0.09 -0.02 0.18 -0.04 0.27 -0.04 m -0.27 0.04 l -0.33 -0.44 l 0.08 0.54 c 0.08 -0.05 0.16 -0.08 0.25 -0.1" style="fill:url(#C)"/><path d="m 8.3 9.63 l -0.2 -0.51 l -0.2 0.51 l 0.2 -0.25 m 0.2 0.25 l 0.13 -0.29 l 0.26 0.18 l -0.32 -0.44 m 0.32 0.43 l 0.05 -0.31 l 0.3 0.11 l -0.43 -0.34 m 0.43 0.34 l -0.03 -0.32 l 0.32 0.03 l -0.5 -0.21 m 0.5 0.21 l -0.12 -0.3 l 0.32 -0.05 l -0.54 -0.08 l 0.34 0.43 m 0.2 -0.35 l -0.19 -0.26 l 0.29 -0.13 l -0.54 0.07 l 0.44 0.32 m 0.11 -0.39 l -0.25 -0.2 l 0.25 -0.2 l -0.5 0.2 m 0.5 -0.2 l -0.29 -0.13 l 0.18 -0.26 l -0.43 0.33 m 0.43 -0.33 l -0.32 -0.05 l 0.12 -0.3 l -0.34 0.43 m 0.34 -0.43 l -0.32 0.04 l 0.04 -0.32 l -0.21 0.5 l 0.5 -0.21 m -0.29 -0.29 l -0.3 0.11 l -0.05 -0.32 l -0.08 0.54 m 0.08 -0.54 l -0.26 0.19 l -0.13 -0.29 l 0.06 0.54 m -0.06 -0.54 l -0.2 0.25 l -0.2 -0.25 l 0.2 0.5 m -0.2 -0.5 l -0.13 0.29 l -0.26 -0.18 l 0.32 0.44 m -0.32 -0.44 l -0.05 0.32 l -0.3 -0.11 l 0.43 0.34 m -0.43 -0.34 l 0.03 0.32 l -0.32 -0.03 l 0.5 0.21 l -0.21 -0.5 m -0.29 0.29 l 0.11 0.3 l -0.32 0.05 l 0.54 0.08 m -0.54 -0.08 l 0.19 0.26 l -0.29 0.13 l 0.54 -0.06 l -0.44 -0.33 m -0.11 0.39 l 0.25 0.2 l -0.25 0.2 l 0.5 -0.2 m -0.5 0.2 l 0.29 0.13 l -0.18 0.26 l 0.44 -0.33 m -0.44 0.33 l 0.32 0.05 l -0.11 0.3 l 0.34 -0.43 m -0.34 0.43 l 0.32 -0.03 l -0.03 0.32 l 0.21 -0.5 l -0.5 0.21 m 0.29 0.29 l 0.3 -0.11 l 0.05 0.31 l 0.08 -0.54 l -0.43 0.34 m 0.35 0.2 l 0.26 -0.18 l 0.13 0.29 l -0.06 -0.54" style="fill-opacity:0.3"/><g style="fill:#fff"><path d="m 8.1 10.92 l 0.58 -0.77 c 0.9 -0.25 1.55 -1.08 1.55 -2.06 c 0 -0.03 0 -0.06 0 -0.09 c -0.04 0.95 -0.68 1.73 -1.55 1.98 l -0.58 0.78 l -0.57 -0.78 c -0.88 -0.24 -1.52 -1.03 -1.55 -1.98 c 0 0.03 0 0.05 0 0.09 c 0 0.98 0.66 1.8 1.56 2.06" style="fill-opacity:0.8"/><g style="fill-opacity:0.3"><path d="m 8.97 11.8 l 0.23 -0.07 l -0.13 -0.48 c -0.07 0.02 -0.15 0.04 -0.23 0.06 l 0.13 0.48 m -2.66 -0.35 l 0.25 -0.43 c -0.07 -0.04 -0.14 -0.08 -0.21 -0.12 l -0.25 0.44 m 5.22 -1.23 l 0.12 -0.21 l -0.43 -0.25 c -0.04 0.07 -0.07 0.14 -0.12 0.21 m -6.42 -0.66 l 0.48 -0.13 c -0.02 -0.07 -0.04 -0.15 -0.06 -0.23 l -0.48 0.13 m 6.9 -1.61 l 0.48 -0.13 l -0.06 -0.23 l -0.48 0.13 c 0.02 0.07 0.04 0.15 0.06 0.23 m -6.11 -0.81 c 0.04 -0.07 0.07 -0.14 0.12 -0.21 l -0.43 -0.25 l -0.12 0.21 m 5.1 -1 l 0.25 -0.43 l -0.21 -0.12 l -0.25 0.43 c 0.07 0.04 0.14 0.07 0.21 0.12 m -2.72 -0.36 c 0.07 -0.02 0.15 -0.04 0.23 -0.06 l -0.13 -0.48 l -0.23 0.06"/><path d="m 7.98 11.89 h 0.24 v -0.5 c -0.08 0 -0.16 0 -0.24 -0.01 m -2.47 -0.52 l 0.35 -0.36 c -0.06 -0.05 -0.12 -0.11 -0.17 -0.17 l -0.35 0.36 m 5.36 0.17 l 0.17 -0.17 l -0.36 -0.35 c -0.05 0.06 -0.11 0.12 -0.17 0.17 m -6 -2.3 h 0.5 c 0 -0.08 0 -0.16 0.01 -0.24 h -0.5 v 0.24 m 7.08 0 h 0.5 v -0.24 h -0.5 c 0 0.08 0 0.16 -0.01 0.24 m -5.7 -2.37 c 0.05 -0.06 0.11 -0.12 0.17 -0.17 l -0.36 -0.35 l -0.17 0.17 m 5.18 0.36 l 0.35 -0.36 l -0.17 -0.17 l -0.35 0.36 c 0.06 0.05 0.11 0.11 0.17 0.17 m -2.53 -1.06 c 0.08 0 0.16 0 0.24 0.01 v -0.5 h -0.24 v 0.5"/></g></g></svg>