<svg xmlns="http://www.w3.org/2000/svg" xmlns:xlink="http://www.w3.org/1999/xlink" viewBox="0 0 16 16"><defs><g id="8" style="clip-path:url(#7)"><path d="m 76.8 5.95 c -0.07 4.44 -1.87 7.19 -3.2 10.22 c -2.4 5.57 -3.34 11.31 2.14 14.71 c 5.27 -1.3 14.55 -13.52 1.07 -24.94" transform="matrix(0.059 0 0 0.072 5.72 4.87)" style="fill:url(#5);stroke:url(#6);fill-rule:evenodd;stroke-linecap:round;stroke-linejoin:round"/></g><clipPath id="7"><path d="M 0,0 H16 V16 H0 z"/></clipPath><filter id="3" filterUnits="objectBoundingBox" x="0" y="0" width="16" height="16"><feColorMatrix type="matrix" in="SourceGraphic" values="0 0 0 0 1 0 0 0 0 1 0 0 0 0 1 0 0 0 1 0"/></filter><linearGradient id="6" gradientUnits="userSpaceOnUse" x1="77.7" y1="12.5" x2="80.3" y2="31.86"><stop style="stop-color:#f4a200;stop-opacity:0.89"/><stop offset="1" style="stop-color:#f45f00"/></linearGradient><linearGradient id="9" gradientUnits="userSpaceOnUse" x1="22.8" y1="8.67" x2="24.45" y2="21.82"><stop style="stop-color:#fff;stop-opacity:0.9"/><stop offset="1" style="stop-color:#fff;stop-opacity:0.15"/></linearGradient><linearGradient id="A" gradientUnits="userSpaceOnUse" x1="24.53" y1="9.34" x2="22.55" y2="32" gradientTransform="matrix(0.024 0 0 0.037 9.69 5.72)"><stop style="stop-color:#ff4c19;stop-opacity:0.95"/><stop offset="1" style="stop-color:#ff4c19;stop-opacity:0.16"/></linearGradient><linearGradient id="5" gradientUnits="userSpaceOnUse" x1="76.7" y1="19.45" x2="76.6" y2="25.64"><stop style="stop-color:#fbe84e;stop-opacity:0.83"/><stop offset="1" style="stop-color:#fdc345"/></linearGradient><linearGradient id="1" gradientUnits="userSpaceOnUse" x1="10" y1="10.26" x2="37.2" y2="23.46"><stop style="stop-color:#e6ebeb"/><stop offset="0.5" style="stop-color:#e5ebeb"/><stop offset="1" style="stop-color:#fff"/></linearGradient><linearGradient id="0" gradientUnits="userSpaceOnUse" x1="4.43" x2="39.86"><stop style="stop-color:#e2e2e2"/><stop offset="1" style="stop-color:#9e9e9e"/></linearGradient><linearGradient id="2" gradientUnits="userSpaceOnUse" x1="19.5" x2="32.86" spreadMethod="reflect"><stop style="stop-color:#be6108"/><stop offset="1" style="stop-color:#f49d11"/></linearGradient><mask id="4"><g style="filter:url(#3)"><path d="M 0,0 H16 V16 H0 z" style="fill-opacity:0.9"/></g></mask></defs><path d="m 15.87 11.41 c 1.59 -22.85 -29.1 -5.72 -8.89 3.98 c 2.9 1.41 7.76 0.36 8.89 -3.98" style="fill:#d41919"/><g style="fill-rule:evenodd"><path d="m 2.51 32.49 c -0.22 0.99 0.59 2.03 1.96 2 h 36.2 c 1.3 -0.04 1.72 -1.2 1.44 -2.18 l -7.87 -28.83 h -25.99 l -5.71 29" transform="matrix(0.198 0 0 0.221 4.06 3.49)" style="fill:#a6a6a6;stroke:#646464"/><g style="stroke:#696969"><g transform="matrix(0.197 0 0 0.239 4.06 3.09)"><path d="m 7.29 24 h 29.3 c 0.83 0 1.48 0.64 1.48 1.45 l 1.31 4.65 c 0 0.82 -0.67 1.45 -1.5 1.45 h -31.44 c -0.83 0 -1.48 -0.64 -1.48 -1.45 l 0.85 -4.65 c 0 -0.82 0.67 -1.45 1.5 -1.45" style="fill:#c5c5c5"/><path d="m 7.29 21.84 h 29.3 c 0.83 0 1.48 0.65 1.48 1.47 l 1.31 4.65 c 0 0.8 -0.67 1.45 -1.5 1.45 h -31.44 c -0.83 0 -1.48 -0.65 -1.48 -1.45 l 0.85 -4.65 c 0 -0.82 0.67 -1.47 1.5 -1.47" style="fill:url(#0)"/></g><path d="m 7.69 6.76 l -4.07 20.48 c 0 0 24.78 0 24.78 0 c 11.86 0 14.35 -3.78 14.35 -3.78 c 0 0 -3.16 -1.1 -4.51 -5.78 c 0 0 -2.89 -10.91 -2.89 -10.91" transform="matrix(0.198 0 0 0.221 4.06 3.49)" style="fill:url(#1)"/></g></g><g transform="matrix(0.198 0 0 0.221 4.06 3.49)"><path d="m 8.56 7.68 l -3.77 18.64 c 0 0 16.21 0 23 0 c 10.59 0 13.3 -2.71 13.3 -2.71 c 0 0 -2.83 -1.75 -4.05 -6 c 0 0 -2.57 -9.85 -2.57 -9.85 l -25.93 -0.07" style="fill:none;stroke:#fff"/><path d="m 8.95 1.49 h 25.2 c 0.87 0 1.56 0.67 1.56 1.5 l 0.38 2.14 c 0 0.83 -0.71 1.5 -1.58 1.5 h -25.89 c -0.87 0 -1.58 -0.67 -1.58 -1.5 l 0.36 -2.14 c 0 -0.83 0.69 -1.5 1.58 -1.5" style="fill:#3464a3;stroke:#696969;fill-rule:evenodd"/></g><path d="m 9.27 8.56 l -0.86 -0.05 l -0.07 -2.36 l -1.08 0.14 l -0.02 -0.45 l 1.93 -0.21 l 0.09 2.92"/><g style="stroke-linecap:round"><path d="m 10.69 2.65 h 23.32" transform="matrix(0.198 0 0 0.221 4.06 3.49)" style="stroke-opacity:0.3;fill:none;stroke:#fff"/><g style="stroke-linejoin:round"><path d="m 48.3 41.1 c 0 4.23 -7 7.64 -15.64 7.64 c -8.64 0 -15.66 -3.41 -15.66 -7.64 c 0 -4.21 7 -7.64 15.66 -7.64 c 8.64 0 15.64 3.43 15.64 7.64" transform="matrix(0.186 0 0 0.205 4.13 3.42)" style="fill:#9bb9df;stroke:#3366a3"/><path d="m 48.3 41.1 c 0 4.23 -7 7.65 -15.65 7.65 c -8.63 0 -15.65 -3.42 -15.65 -7.65 c 0 -4.2 7 -7.63 15.65 -7.63 c 8.65 0 15.65 3.42 15.65 7.63" transform="matrix(0.175 0 0 0.176 4.5 4.64)" style="fill:none;stroke:#fff"/><g style="stroke:#be6108"><path d="m 32.85 24.2 c -7.11 0 -12.85 2.5 -12.85 5.62 c 0 0.32 0.06 0.69 0.19 1 h -0.19 v 8.58 c 0 0.02 0 0.04 0 0.08 c 0 3.11 5.74 5.64 12.85 5.64 c 7.09 0 12.87 -2.53 12.87 -5.64 c 0 -0.04 0 -0.06 0 -0.08 v -8.58 h -0.21 c 0.13 -0.32 0.21 -0.67 0.21 -1 c 0 -3.11 -5.78 -5.62 -12.87 -5.62" transform="matrix(0.186 0 0 0.205 4.13 3.57)" style="fill:url(#2)"/><path d="m 32.85 24.1 c -7.11 0 -12.85 2.53 -12.85 5.66 c 0 0.1 0.02 0.17 0.02 0.27 c 0 0 -0.02 0 -0.02 0 c 0.02 0.08 0.04 0.15 0.06 0.23 c 0 0 0 0.02 0 0.02 c 0 0.02 0 0.02 0 0.04 c 0.02 0.57 0.23 1.91 0.08 2.53 c -0.19 0.76 0.25 1.35 0.76 1.85 c 0.48 0.48 0.4 1.22 0.8 1.6 c 0.48 0.48 0.06 0.4 0.84 0.02 c 0.67 -0.34 1.07 -0.91 1.45 -1.28 c 0.36 -0.36 1.05 -0.51 1.72 -0.59 c 0.8 0.23 1.68 0.4 2.63 0.55 c 0.27 0.63 0.38 1.16 0.8 1.58 c 0.74 0.74 1.41 0.86 2 1.45 c 0.04 0.04 0.08 0 0.13 0 c 0.55 0 0.63 1.03 1.18 1.16 c 1.05 0.27 1.07 -1.94 1.83 -2.73 c 0.38 -0.36 1.7 -0.65 2.17 -0.88 c 0.53 -0.27 0.95 -0.48 1.41 -0.67 c 0 0 0.02 0 0.02 0 c 0.02 0 0.04 -0.02 0.06 -0.02 c 0.61 -0.11 1.14 -0.23 1.7 -0.38 c 0.04 -0.02 0.08 0 0.13 0 c 0.38 0.02 0.74 0.15 1.09 0.5 c 0.59 0.61 0.93 1.18 1.43 1.56 c 0.57 0.42 1.22 0.38 1.72 -0.13 c 0.42 -0.42 0.48 -1.49 0.99 -2 c 0.53 -0.51 -0.15 -2.12 0.44 -2.73 c 0.59 -0.57 0.36 -1.14 0.23 -1.43 c 0.04 -0.19 0.06 -0.38 0.06 -0.57 c 0 -3.11 -5.78 -5.66 -12.89 -5.66" transform="matrix(0.186 0 0 0.205 4.13 3.57)" style="fill:#ffe6c1"/></g><path d="m 32.68 25 c -6.52 0 -11.77 2 -11.77 4.52 c 0 0.08 0.02 0.15 0.02 0.21 c 0 0 -0.02 0 -0.02 0 c 0.02 0.08 0.04 0.13 0.06 0.17 c 0 0.02 0 0.02 0 0.02 c 0 0.02 0 0.02 0 0.02 c 0.02 0.48 0.21 1.52 0.06 2.04 c -0.17 0.61 0.25 1.09 0.71 1.49 c 0.44 0.38 0.38 1.54 0.71 1.87 c 0.44 0.38 0.06 -0.27 0.8 -0.59 c 0.61 -0.25 0.97 -0.71 1.3 -1 c 0.34 -0.29 0.97 -0.4 1.58 -0.48 c 0.76 0.19 1.58 0.32 2.42 0.46 c 0.25 0.5 0.36 0.93 0.76 1.26 c 0.67 0.59 0.71 1.16 1.24 1.62 c 0.02 0.04 0.19 -0.23 0.23 -0.23 c 0.48 0 0.93 1.64 1.41 1.75 c 0.97 0.21 1.45 -2.15 2.14 -2.76 c 0.36 -0.3 1.35 -0.4 1.75 -0.59 c 0.48 -0.21 0.76 -0.97 1.18 -1.11 c 0 0 0.02 0 0.02 0 c 0.02 0 0.4 0.46 0.42 0.46 c 0.55 -0.1 0.69 -0.65 1.18 -0.78 c 0.04 0 0.08 0.02 0.13 0 c 0.36 0.02 0.67 0.13 0.99 0.4 c 0.55 0.5 0.86 0.95 1.32 1.26 c 0.53 0.34 1.6 1.35 2.04 0.95 c 0.4 -0.34 0.21 -1.54 0.69 -1.94 c 0.46 -0.42 0.19 -2.06 0.76 -2.53 c 0.53 -0.44 -0.25 -1.28 -0.4 -1.49 c 0.04 -0.15 0.06 -0.3 0.06 -0.46 c 0 -2.5 -5.3 -4.52 -11.8 -4.52" transform="matrix(0.186 0 0 0.205 4.13 3.57)" style="fill:none;stroke:#fff;stroke-width:0.86"/><g style="fill:#ff8162;stroke:#ff3d0f"><path d="m 21.96 11.65 v 11.44 h 0.08 c 0.27 0.34 1.05 0.57 1.98 0.57 c 0.88 0 1.66 -0.25 1.93 -0.57 c 0.06 -0.08 0.13 -0.15 0.13 -0.25 c 0 -0.1 -0.04 -0.21 -0.13 -0.3 v -10.86 h -3.99" transform="matrix(0.186 0 0 0.205 5.74 4.67)" style="stroke-width:0.5"/><path d="m 34.8 29.6 c 0.1 0.32 -0.34 0.63 -1.11 0.8 c -0.77 0.17 -1.73 0.17 -2.5 0 c -0.77 -0.17 -1.2 -0.48 -1.11 -0.8 c -0.1 -0.32 0.34 -0.63 1.11 -0.8 c 0.77 -0.17 1.73 -0.17 2.5 0 c 0.77 0.17 1.2 0.48 1.11 0.8" transform="matrix(0.163 0 0 0.205 4.93 1.02)" style="fill-opacity:0.94;stroke-width:0.53"/></g><path d="m 22.46 12.76 l -0.04 9.95 l 0.15 0.23 l -0.13 -0.17 c 0.21 0.3 0.99 0.53 1.7 0.53 c 0.69 0 1.2 -0.17 1.41 -0.46 c 0.06 -0.1 0.08 -0.13 0.08 -0.21 c 0 -0.1 0.08 -0.13 0.02 -0.21 v -9.64 l -0.74 0.23 l -0.82 0.11 l -1.03 -0.11" transform="matrix(0.186 0 0 0.205 5.74 4.67)" style="fill:none;stroke:#ffa189;stroke-width:0.42"/></g></g><use xlink:href="#8" style="mask:url(#4)"/><path d="m 77.6 8.13 c -0.54 3.48 -1.96 6 -3.03 8.46 c -1.21 2.68 -1.96 5.41 -1.82 7.71 c 0.13 2.14 1.08 3.96 3.24 5.46 c 1.01 -0.37 2.22 -1.12 3.37 -2.41 c 1.28 -1.39 2.49 -3.21 3.1 -5.41 c 1.08 -3.91 0.2 -8.78 -4.85 -13.82" transform="matrix(0.058 0 0 0.073 5.77 4.86)" style="fill:none;stroke:url(#9)"/><path d="m 10.32 5.91 c -0.02 0.32 -0.35 0.57 -0.1 0.87 c 0.12 -0.04 0.32 -0.29 0.1 -0.87" style="fill:url(#A);fill-rule:evenodd"/></svg>