<svg xmlns="http://www.w3.org/2000/svg" viewBox="0 0 16 16"><defs><clipPath id="0"><path d="m 4 5 h 6 v 5 h -6"/></clipPath><clipPath id="1"><path d="m 2.11 2.43 h 9.29 c 0.54 0 0.98 0.41 0.98 0.91 v 8.57 c 0 0.5 -0.44 0.9 -0.98 0.9 h -9.29 c -0.54 0 -0.98 -0.4 -0.98 -0.9 v -8.57 c 0 -0.5 0.44 -0.91 0.98 -0.91"/></clipPath></defs><path d="m 8.15 15.91 c -1.65 -0.13 -3.58 -0.92 -4.92 -2 c -1.64 -1.33 -2.84 -3.37 -3.16 -5.39 c -0.39 -2.66 1.16 -5.52 2.91 -6.87 c 0.88 -0.66 2.04 -1.18 3.12 -1.41 c 2.83 -0.6 5.79 0.54 7.81 3 c 1.21 1.48 1.84 2.96 2 4.73 c 0.18 2.11 -0.65 4.37 -2.17 5.9 c -1.73 1.44 -3.52 2.21 -5.58 2.07" style="fill:#778799"/><g style="clip-path:url(#0)"><g style="clip-path:url(#1)"><path d="m 9.2 5.14 c 0 1.59 0 3.14 0 4.52 c -1.72 0 -3.41 0 -4.89 0 c 0 -1.59 0 -3.14 0 -4.52 c 1.7 0 3.43 0 4.89 0 m -0.49 0.45 h -2.2 v 0.9 h 2.2 m -2.69 -0.9 h -1.22 v 0.9 h 1.22 m 2.69 0.45 h -2.2 v 0.9 h 2.2 m -2.69 -0.9 h -1.22 v 0.9 h 1.22 m 2.69 0.45 h -2.2 v 0.9 h 2.2 m -2.69 -0.9 h -1.22 v 0.9 h 1.22" style="fill:#fff"/></g></g><path d="m 8.29 11.79 c -0.04 -0.03 -0.04 -0.49 -0.03 -1.96 c 0.01 -1.59 0.02 -1.85 0.07 -1.89 c 0.09 -0.07 2.16 -0.1 2.36 -0.02 c 0.39 0.15 0.61 0.54 0.61 1 c 0 0.48 -0.19 0.77 -0.66 1 c -0.16 0.09 -0.06 0.14 0.05 0.3 c 0.2 0.13 0.23 0.18 0.55 0.8 c 0.27 0.52 0.33 0.67 0.29 0.7 c -0.35 0.05 -0.63 0.04 -1 0.04 l -0.32 -0.65 c -0.44 -0.88 -0.43 -0.87 -0.71 -0.87 h -0.22 l -0.01 0.74 v 0.79 c -0.32 0.07 -0.64 0.04 -0.95 0.04 m 1.86 -2.43 c 0.19 -0.12 0.19 -0.43 0.04 -0.62 c -0.27 -0.21 -0.92 -0.15 -0.93 -0.07 l -0.01 0.5 c 0 0.32 0.02 0.35 0.47 0.32 c 0.19 -0.01 0.32 -0.07 0.43 -0.13" style="fill:#1f64b7"/></svg>