<svg xmlns="http://www.w3.org/2000/svg" viewBox="0 0 16 16"><path d="m 0.67 9.55 c 1.59 10.54 17.98 6.94 14.88 -3.26 c -2.08 -9.69 -18.85 -7.1 -14.88 3.26" style="fill:#db2a2a"/><g style="fill:#fff"><path d="m 4.14 11.38 c 0 -0.06 0.8 -1.46 1.49 -2.58 c 0.24 -0.39 0.46 -0.71 0.5 -0.71 c 0.04 0 0.37 0.27 0.74 0.6 c 0.37 0.33 0.78 0.64 0.91 0.69 c 0.28 0.11 0.47 0 1.36 -0.77 c 0.34 -0.3 0.66 -0.51 0.71 -0.48 c 0.05 0.04 0.41 0.6 0.8 1.27 c 0.39 0.66 0.81 1.36 0.93 1.56 l 0.23 0.36 l -0.36 0.06 c -0.45 0.07 -7.31 0.08 -7.31 0.01"/><path d="m 3.75 8.32 c 0 -1.22 0.02 -2.21 0.05 -2.21 c 0.09 0 1.56 1.28 1.65 1.43 c 0.05 0.1 -0.06 0.38 -0.35 0.86 c -0.24 0.39 -0.62 1.03 -0.85 1.43 c -0.23 0.39 -0.44 0.71 -0.46 0.71 c -0.02 0 -0.04 -1 -0.04 -2.22"/><path d="m 6.73 7.76 c -0.59 -0.5 -1.37 -1.15 -1.74 -1.45 c -0.62 -0.5 -0.65 -0.54 -0.44 -0.61 c 0.3 -0.08 6.34 -0.08 6.73 0 c 0.28 0.06 0.24 0.1 -1.18 1.3 c -1.8 1.52 -2 1.67 -2.16 1.67 c -0.07 0 -0.61 -0.41 -1.2 -0.91"/><path d="m 11.83 10.13 c -0.13 -0.23 -0.5 -0.86 -0.81 -1.39 c -0.31 -0.53 -0.57 -1.02 -0.57 -1.09 c 0 -0.07 0.36 -0.46 0.8 -0.86 c 0.63 -0.56 0.82 -0.69 0.89 -0.58 c 0.1 0.16 0.11 3.76 0.01 4.11 c -0.06 0.22 -0.08 0.21 -0.3 -0.2"/></g></svg>