<svg xmlns="http://www.w3.org/2000/svg" viewBox="0 0 16 16"><path d="m 14.1 2.91 c 3.89 5.95 1.02 11.88 -3.66 12.66 c -6.29 1.52 -13.98 -2.82 -8.67 -12.19 c 2.11 -3.72 9.55 -4.71 12.33 -0.47" style="fill:#003693"/><g style="fill:#fff"><path d="m 7 9.12 c -0.07 -0.07 -0.19 -0.32 -0.27 -0.55 c -0.08 -0.23 -0.18 -0.43 -0.23 -0.43 c -0.13 0 -0.21 0.23 -0.2 0.58 c 0.02 0.36 -0.08 0.54 -0.21 0.41 c -0.07 -0.07 -0.09 -1.2 -0.02 -1.69 c 0.03 -0.19 0 -0.32 -0.09 -0.5 c -0.08 -0.15 -0.13 -0.36 -0.13 -0.54 c 0 -0.25 -0.03 -0.32 -0.19 -0.48 c -0.11 -0.1 -0.28 -0.3 -0.38 -0.45 c -0.16 -0.23 -0.18 -0.32 -0.18 -0.7 c 0 -0.39 -0.02 -0.45 -0.16 -0.58 c -0.14 -0.13 -0.16 -0.18 -0.16 -0.71 c 0 -0.7 0.09 -0.75 0.37 -0.17 c 0.11 0.22 0.22 0.39 0.25 0.39 c 0.09 0 0.24 -0.2 0.38 -0.5 c 0.09 -0.21 0.16 -0.29 0.24 -0.27 c 0.09 0.02 0.11 0.1 0.13 0.56 c 0.02 0.51 0.01 0.55 -0.14 0.68 c -0.34 0.31 -0.29 0.59 0.22 1.23 c 0.37 0.46 0.37 0.47 0.37 0.86 c 0 0.46 0.08 0.57 0.39 0.52 c 0.18 -0.03 0.24 0 0.58 0.36 c 0.21 0.21 0.41 0.39 0.45 0.39 c 0.04 0 0.19 -0.15 0.34 -0.34 c 0.25 -0.32 0.49 -0.45 0.82 -0.45 c 0.14 0 0.25 -0.21 0.2 -0.4 c -0.07 -0.27 0.04 -0.57 0.34 -0.96 c 0.42 -0.52 0.47 -0.63 0.42 -0.88 c -0.03 -0.14 -0.1 -0.24 -0.22 -0.31 c -0.18 -0.1 -0.19 -0.11 -0.19 -0.59 c 0 -0.55 0.1 -0.78 0.29 -0.66 c 0.06 0.04 0.14 0.14 0.17 0.24 c 0.15 0.46 0.45 0.51 0.61 0.1 c 0.12 -0.31 0.21 -0.41 0.34 -0.36 c 0.08 0.03 0.1 0.14 0.1 0.58 c 0 0.53 0 0.55 -0.19 0.7 c -0.18 0.14 -0.19 0.18 -0.18 0.54 c 0.02 0.42 -0.04 0.55 -0.45 1.05 c -0.16 0.2 -0.26 0.39 -0.29 0.56 c -0.03 0.15 -0.1 0.31 -0.19 0.39 c -0.11 0.09 -0.15 0.2 -0.15 0.36 c 0 0.3 -0.09 0.37 -0.48 0.37 c -0.38 0 -0.4 0.03 -0.4 0.71 c 0 0.6 0.02 0.63 0.38 0.63 c 0.38 0 0.59 0.15 0.4 0.28 c -0.16 0.11 -0.91 0.11 -1.07 0 c -0.1 -0.07 -0.12 -0.15 -0.1 -0.57 c 0.01 -0.3 0 -0.5 -0.05 -0.53 c -0.11 -0.06 -0.32 0.08 -0.36 0.24 c -0.02 0.08 -0.06 0.15 -0.08 0.15 c -0.02 0 -0.16 -0.12 -0.3 -0.25 l -0.27 -0.25 l -0.06 0.16 c -0.04 0.09 -0.05 0.35 -0.03 0.58 c 0.04 0.4 0.03 0.42 -0.13 0.52 c -0.16 0.1 -0.17 0.1 -0.28 -0.02 m -0.23 -1.36 c 0.17 -0.12 0.05 -0.31 -0.2 -0.31 c -0.22 0 -0.29 0.2 -0.12 0.32 c 0.14 0.1 0.16 0.1 0.31 -0.01"/><path d="m 7.63 6.47 c -0.12 -0.04 -0.39 -0.41 -0.33 -0.66 c 0.02 -0.09 0.05 0.09 0.19 0.21 c 0.17 0.16 0.51 0.25 0.76 0.2 c 0.26 -0.05 0.45 -0.29 0.22 -0.75 c -0.18 -0.37 -0.18 -0.57 0.18 -0.65 c 0.09 -0.02 0.17 0.04 0.24 0.14 c 0.11 0.16 0.23 0.29 -0.03 0.41 c -0.23 0.11 -0.14 0.36 -0.14 0.56 c 0 0.43 -0.08 0.5 -0.57 0.54 c -0.22 0.02 -0.46 0.02 -0.52 0"/><path d="m 7.11 5.34 c -0.09 -0.25 0 -0.5 0.17 -0.52 c 0.2 -0.03 0.36 0.11 0.36 0.3 c 0 0.42 -0.4 0.58 -0.53 0.22"/><path d="m 10.33 9.82 c -0.02 -0.02 -0.04 -0.22 -0.05 -0.44 c -0.02 -0.36 -0.03 -0.41 -0.13 -0.53 c -0.08 -0.1 -0.09 -0.14 -0.06 -0.18 c 0.12 -0.12 0.36 0.07 0.42 0.34 c 0.04 0.2 0 0.79 -0.06 0.82 c -0.06 0.04 -0.09 0.04 -0.13 -0.02"/><path d="m 10.88 9.47 c -0.07 -0.07 -0.07 -0.06 -0.02 -0.32 c 0.03 -0.16 0.03 -0.24 -0.01 -0.34 c -0.05 -0.15 -0.3 -0.36 -0.56 -0.48 c -0.17 -0.07 -0.2 -0.14 -0.11 -0.22 c 0.13 -0.11 0.4 0.04 0.6 0.31 c 0.06 0.09 0.17 0.18 0.24 0.21 c 0.07 0.03 0.15 0.08 0.18 0.11 c 0.13 0.15 0.13 0.17 -0.01 0.38 c -0.07 0.11 -0.13 0.23 -0.13 0.26 c 0 0.11 -0.1 0.16 -0.17 0.09"/><path d="m 11.1 8.33 c -0.01 -0.05 -0.11 -0.2 -0.21 -0.31 c -0.19 -0.2 -0.2 -0.21 -0.46 -0.23 c -0.3 -0.03 -0.39 -0.09 -0.29 -0.19 c 0.05 -0.05 0.12 -0.06 0.35 -0.05 c 0.27 0.02 0.29 0.02 0.44 0.16 c 0.22 0.21 0.43 0.53 0.41 0.63 c -0.01 0.06 -0.04 0.08 -0.11 0.09 c -0.09 -0.02 -0.11 -0.04 -0.13 -0.1"/><path d="m 11.55 8.8 c -0.04 -0.05 -0.04 -0.2 0.01 -0.58 c 0.03 -0.21 -0.02 -0.3 -0.3 -0.61 l -0.29 -0.32 l -0.35 -0.03 c -0.45 -0.04 -0.55 -0.06 -0.5 -0.13 c 0.05 -0.07 0.29 -0.12 0.66 -0.12 c 0.4 0 0.45 0.02 0.68 0.39 c 0.09 0.14 0.22 0.31 0.27 0.37 c 0.09 0.1 0.1 0.13 0.1 0.53 c 0 0.45 -0.03 0.55 -0.17 0.55 c -0.04 0 -0.09 -0.02 -0.12 -0.05"/><path d="m 5.39 9.8 c -0.08 -0.09 -0.12 -0.44 -0.07 -0.68 c 0.04 -0.17 0.07 -0.23 0.2 -0.35 c 0.09 -0.08 0.19 -0.14 0.22 -0.13 c 0.1 0.02 0.09 0.13 -0.02 0.22 c -0.1 0.08 -0.11 0.12 -0.13 0.5 c -0.04 0.51 -0.07 0.59 -0.21 0.44"/><path d="m 5.08 8.59 c -0.06 -0.09 0.25 -0.45 0.43 -0.5 c 0.1 -0.03 0.25 0.04 0.25 0.11 c 0 0.03 -0.05 0.07 -0.13 0.1 c -0.07 0.03 -0.2 0.11 -0.29 0.19 c -0.18 0.15 -0.23 0.17 -0.26 0.11"/><path d="m 4.71 9.18 c -0.16 -0.18 -0.2 -0.24 -0.17 -0.31 c 0.02 -0.04 0.02 -0.21 0.02 -0.36 l -0.01 -0.29 l 0.2 -0.25 c 0.29 -0.36 0.38 -0.41 0.65 -0.41 c 0.41 0 0.45 0.17 0.06 0.22 c -0.25 0.03 -0.38 0.12 -0.55 0.38 c -0.14 0.2 -0.16 0.4 -0.05 0.44 c 0.06 0.02 0.08 0.07 0.1 0.21 c 0.05 0.46 0.05 0.59 0.01 0.59 c -0.02 0 -0.14 -0.1 -0.25 -0.23"/><path d="m 4.1 8.81 c -0.03 -0.03 -0.05 -0.2 -0.05 -0.48 c 0 -0.4 0.01 -0.45 0.09 -0.55 c 0.05 -0.06 0.14 -0.18 0.2 -0.27 c 0.06 -0.09 0.18 -0.24 0.27 -0.33 l 0.16 -0.16 h 0.41 c 0.49 0 0.61 0.03 0.61 0.13 c 0 0.06 -0.04 0.07 -0.33 0.1 c -0.54 0.04 -0.58 0.06 -0.89 0.43 c -0.27 0.32 -0.29 0.41 -0.23 0.72 c 0.05 0.23 0.04 0.27 -0.01 0.36 c -0.07 0.1 -0.14 0.12 -0.21 0.05"/></g><g style="fill:#9aabcf"><path d="m 2.7 12.62 c -0.09 -0.11 -0.05 -2.52 0.04 -2.57 c 0.11 -0.06 0.61 -0.11 0.85 -0.07 c 0.17 0.03 0.25 0.07 0.41 0.22 c 0.32 0.32 0.32 0.59 -0.01 0.98 c -0.25 0.29 -0.25 0.3 0.23 1.12 c 0.1 0.17 0.1 0.19 0.04 0.28 c -0.09 0.13 -0.29 0.13 -0.42 0 c -0.05 -0.06 -0.18 -0.27 -0.28 -0.48 c -0.19 -0.38 -0.34 -0.54 -0.39 -0.39 c -0.02 0.04 0 0.24 0.03 0.44 c 0.06 0.42 0.04 0.48 -0.25 0.52 c -0.08 0 -0.19 0.01 -0.23 -0.04 m 0.8 -1.46 c 0.12 -0.08 0.24 -0.29 0.24 -0.43 c 0 -0.13 -0.16 -0.39 -0.28 -0.46 c -0.14 -0.07 -0.21 0.04 -0.27 0.39 c -0.07 0.49 0.05 0.68 0.31 0.49"/><path d="m 4.95 12.69 c -0.09 -0.01 -0.19 -0.04 -0.21 -0.08 c -0.07 -0.08 -0.08 -2.05 -0.01 -2.12 c 0.02 -0.02 0.21 -0.05 0.43 -0.07 c 0.29 -0.02 0.39 -0.01 0.47 0.05 c 0.14 0.11 0.04 0.23 -0.23 0.27 c -0.25 0.04 -0.33 0.13 -0.33 0.33 c 0 0.18 0.07 0.25 0.25 0.25 c 0.24 0 0.39 0.07 0.37 0.19 c -0.02 0.12 -0.09 0.16 -0.38 0.2 c -0.22 0.04 -0.23 0.04 -0.24 0.2 c -0.02 0.19 0.05 0.4 0.14 0.43 c 0.03 0.01 0.13 0.03 0.23 0.05 c 0.2 0.04 0.31 0.18 0.18 0.24 c -0.21 0.05 -0.45 0.09 -0.66 0.07"/><path d="m 7.19 12.59 c -0.05 -0.05 -0.1 -0.16 -0.12 -0.25 c -0.04 -0.2 -0.21 -0.34 -0.4 -0.34 c -0.16 0 -0.26 0.09 -0.45 0.42 c -0.14 0.24 -0.23 0.27 -0.31 0.11 c -0.04 -0.09 -0.03 -0.14 0.03 -0.26 c 0.16 -0.35 0.29 -0.71 0.43 -1.06 c 0.1 -0.17 0.16 -0.75 0.36 -0.75 c 0.12 0 0.19 0.13 0.41 0.73 c 0.1 0.29 0.25 0.68 0.32 0.89 c 0.16 0.43 0.16 0.5 0.04 0.56 c -0.13 0.07 -0.22 0.06 -0.32 -0.04 m -0.39 -0.97 c 0.08 -0.32 -0.11 -0.47 -0.23 -0.18 c -0.08 0.21 -0.05 0.29 0.09 0.29 c 0.08 0 0.12 -0.03 0.14 -0.11"/><path d="m 8.1 12.61 c -0.1 -0.07 -0.11 -0.09 -0.11 -1.08 c 0 -1 0 -1.01 0.11 -1.05 c 0.05 -0.03 0.14 -0.03 0.2 -0.01 c 0.09 0.03 0.1 0.07 0.13 0.91 c 0.02 0.48 0.04 0.9 0.05 0.93 c 0.01 0.03 0.13 0.07 0.25 0.09 c 0.27 0.03 0.35 0.09 0.28 0.2 c -0.07 0.11 -0.77 0.14 -0.91 0.03"/><path d="m 9.52 12.64 c -0.03 -0.02 -0.06 -0.36 -0.08 -0.91 c -0.02 -0.51 -0.05 -0.9 -0.08 -0.94 c -0.03 -0.03 -0.12 -0.07 -0.21 -0.07 c -0.14 -0.02 -0.16 -0.03 -0.16 -0.13 c 0 -0.09 0.03 -0.12 0.13 -0.14 c 0.18 -0.04 0.82 -0.05 1.04 -0.01 c 0.15 0.03 0.17 0.04 0.16 0.14 c -0.01 0.09 -0.05 0.13 -0.17 0.15 c -0.09 0.02 -0.17 0.06 -0.19 0.09 c -0.02 0.03 -0.04 0.42 -0.04 0.86 c 0 0.64 -0.02 0.81 -0.07 0.89 c -0.07 0.1 -0.22 0.13 -0.32 0.07"/><path d="m 10.76 12.65 c -0.05 -0.01 -0.09 -0.09 -0.11 -0.21 c -0.05 -0.31 -0.01 -1.88 0.05 -1.93 c 0.03 -0.03 0.22 -0.06 0.44 -0.08 c 0.33 -0.02 0.41 -0.02 0.52 0.05 c 0.13 0.08 0.12 0.17 0 0.26 c -0.07 0.05 -0.16 -0.01 -0.28 -0.01 c -0.25 0 -0.31 0.07 -0.29 0.34 c 0.03 0.25 0.08 0.29 0.34 0.28 c 0.21 -0.01 0.29 0.05 0.27 0.21 c -0.01 0.08 -0.06 0.1 -0.3 0.13 l -0.28 0.04 c 0 0.21 0 0.42 0 0.63 h 0.24 c 0.25 0 0.32 0.02 0.36 0.14 c 0.05 0.14 -0.06 0.18 -0.48 0.17 c -0.23 0 -0.45 -0.02 -0.49 -0.03"/><path d="m 12.1 12.59 c -0.03 -0.05 -0.05 -0.47 -0.05 -1.06 c 0 -0.92 0 -0.97 0.09 -1.05 c 0.07 -0.07 0.12 -0.07 0.21 -0.04 c 0.12 0.04 0.13 0.06 0.15 0.41 c 0.01 0.21 0.04 0.39 0.05 0.4 c 0.23 -0.18 0.38 -0.44 0.59 -0.68 c 0.14 -0.16 0.18 -0.18 0.24 -0.13 c 0.11 0.09 0.09 0.14 -0.16 0.46 c -0.13 0.16 -0.24 0.34 -0.25 0.4 c -0.05 0.18 0.03 0.39 0.26 0.73 c 0.13 0.19 0.23 0.38 0.23 0.43 c 0 0.21 -0.24 0.27 -0.39 0.1 c -0.05 -0.06 -0.17 -0.25 -0.26 -0.43 c -0.22 -0.44 -0.3 -0.42 -0.3 0.08 c 0 0.3 -0.01 0.36 -0.09 0.4 c -0.14 0.07 -0.27 0.05 -0.32 -0.04"/></g></svg>