<svg xmlns="http://www.w3.org/2000/svg" viewBox="0 0 16 16"><path d="m 15.82 9.81 c -0.98 6.47 -9.71 8.21 -13.57 3.59 c -3.39 -3.43 -2.55 -10 1.61 -12.26 c 4.78 -3 11.75 0.71 12.1 6.72 c 0.04 0.66 -0.02 1.32 -0.17 1.96" style="fill:#dc312f"/><g style="fill:#fff"><path d="m 2.51 10.98 c -0.22 -0.08 -0.48 -0.36 -0.48 -0.52 c 0 -0.23 0.46 -0.86 0.95 -1.3 c 0.27 -0.24 0.3 -0.32 0.32 -1.07 c 0.02 -0.52 0.04 -0.77 0.13 -1.08 c 0.48 -1.91 1.75 -3.22 3.63 -3.75 c 0.61 -0.34 2.22 -0.15 2.09 0.08 c -0.03 0.03 -0.24 0.13 -0.46 0.21 c -0.5 0.2 -0.75 0.32 -1.04 0.54 c -0.74 0.54 -1.23 1.29 -1.43 2.15 c -0.08 0.36 -0.07 1.35 0.02 1.8 c 0.09 0.43 0.26 0.85 0.41 0.99 c 0.18 0.17 0.45 0.1 1.39 -0.37 c 0.64 -0.32 1.11 -0.61 1.13 -0.69 c 0.15 -0.57 0.19 -0.88 0.63 -1.07 c 0.53 -0.33 0.98 0.01 1.34 0.04 c 0.05 -0.01 0.46 -0.27 0.91 -0.56 c 0.45 -0.3 0.89 -0.58 0.99 -0.63 c 0.21 -0.11 0.34 0 0.39 0.21 c 0 0.16 -0.36 0.51 -1.04 1 c -0.8 0.59 -0.87 0.7 -1.04 1.12 c -0.26 0.68 -0.89 0.95 -1.5 0.77 c -0.47 -0.14 -0.59 -0.01 -1.7 0.5 c -1.72 0.79 -3.05 1.27 -4.27 1.55 c -0.53 0.12 -1.14 0.15 -1.36 0.07 m 0.93 -0.69 c 0.36 -0.05 0.24 -0.26 0.19 -0.38 c -0.13 -0.18 -0.38 -0.1 -0.48 0.03 c -0.38 0.28 -0.12 0.53 0.3 0.35"/><path d="m 7.18 12.92 c -0.6 -0.12 -1.34 -0.45 -1.9 -0.86 c -0.33 -0.24 -0.57 -0.49 -0.57 -0.59 c 0 -0.07 0.27 -0.2 0.83 -0.4 c 0.74 -0.27 1.37 -0.52 2.1 -0.81 l 0.41 0.2 c 0.91 0.35 1.67 0.48 2.56 0.31 c 0.5 -0.1 1.08 -0.4 1.65 -0.85 c 0.25 -0.2 0.46 -0.36 0.47 -0.35 c 0.01 0.01 -0.02 0.14 -0.07 0.29 c -0.15 0.49 -0.7 1.34 -1.15 1.8 c -1.31 1.2 -2.91 1.46 -4.33 1.27"/></g></svg>