<svg xmlns="http://www.w3.org/2000/svg" viewBox="0 0 16 16"><path d="m 12.29 13.66 c 14.59 -16.55 -19.61 -18.89 -10.64 -2 c 2.04 3.85 6.78 6.39 10.64 2" style="fill:#eaf3ff"/><path d="m 7.63 13.96 c -0.18 -0.09 -0.25 -0.28 -0.34 -1.07 c -0.27 -2.38 -1.54 -4.3 -3.66 -5.54 c -0.54 -0.31 -0.62 -0.45 -1.09 -1.73 c -0.43 -1.2 -0.55 -1.57 -0.61 -2 c -0.15 -0.59 0.59 -0.08 0.76 -0.05 c 0.35 0.06 1.49 0.45 2.23 0.76 c 0.62 0.27 0.77 0.28 1.21 0.1 c 0.98 -0.39 2.45 -0.41 3.56 -0.06 l 0.66 0.21 l 0.65 -0.27 c 0.68 -0.29 1.73 -0.65 2.2 -0.77 c 0.44 -0.14 0.76 -0.38 0.73 0.08 c -0.04 0.72 -1.03 3.18 -1.37 3.54 c -0.07 0.08 -0.28 0.2 -0.46 0.28 c -0.51 0.21 -1.05 0.63 -1.67 1.29 c -1.13 1.2 -1.7 2.47 -1.91 4.3 c -0.07 0.64 -0.11 0.78 -0.23 0.88 c -0.15 0.12 -0.46 0.14 -0.68 0.04" style="fill:#5d9ad7"/><g style="fill:#635462"><path d="m 5.61 11.1 c -0.16 -0.15 -0.41 -0.35 -0.55 -0.45 c -0.45 -0.31 -0.54 -0.45 -0.36 -0.54 c 0.27 -0.14 0.69 0.05 1.14 0.51 c 0.46 0.46 0.54 0.76 0.19 0.75 c -0.11 0 -0.2 -0.06 -0.43 -0.28"/><path d="m 9.61 11.19 c 0.04 -0.16 0.28 -0.48 0.53 -0.7 c 0.52 -0.47 1.2 -0.57 1.07 -0.15 c -0.02 0.04 -0.14 0.15 -0.29 0.24 c -0.14 0.09 -0.41 0.29 -0.6 0.46 c -0.29 0.26 -0.48 0.4 -0.54 0.4 c -0.11 -0.05 -0.2 -0.14 -0.18 -0.25"/><path d="m 7.71 14.1 c -0.34 -0.23 -0.45 -0.54 -0.33 -0.91 c 0.02 -0.01 0.26 -0.03 0.53 -0.04 c 0.6 -0.01 0.64 0.01 0.61 0.33 c -0.05 0.55 -0.39 0.81 -0.81 0.61"/><path d="m 3.31 6.2 c -0.21 -0.45 -0.63 -1.48 -0.65 -1.89 c 0 -0.16 -0.05 -0.1 0.14 -0.06 c 0.3 0.08 1.78 0.41 1.79 0.63 c -0.3 0.43 -0.6 0.77 -0.95 1.19 c -0.18 0.22 -0.22 0.24 -0.32 0.13"/><path d="m 12.23 6.25 c -0.06 -0.2 -0.9 -1.14 -1.01 -1.14 c -0.11 -0.38 1 -0.54 1.39 -0.76 c 0.22 -0.04 0.61 -0.25 0.56 0.11 c -0.16 0.53 -0.34 1.39 -0.62 1.74 c -0.13 0.15 -0.28 0.18 -0.32 0.05"/></g></svg>