<svg xmlns="http://www.w3.org/2000/svg" viewBox="0 0 16 16"><path d="m 2.13 3.46 c -9.97 17.33 22.95 15.98 11.45 -0.7 c -2.3 -3.34 -8.76 -3.98 -11.45 0.7" style="fill:#2f4e4e"/><path d="m 8.97 5.93 c -0.21 -0.04 -0.45 -0.08 -0.54 -0.1 l -0.16 -0.03 v -0.64 c 0 -0.72 0.07 -1.65 0.11 -1.7 c 0.05 -0.05 0.95 0.07 1.44 0.19 c 0.54 0.13 0.53 0.02 0.12 1.1 c -0.15 0.4 -0.32 0.85 -0.36 0.99 c -0.05 0.17 -0.11 0.26 -0.16 0.26 c -0.04 0 -0.24 -0.04 -0.45 -0.07" style="fill:#ff0"/><path d="m 1.87 10.16 c -0.1 -0.02 -0.11 -0.04 -0.11 -0.44 c 0 -0.84 0.35 -2.09 0.83 -2.93 c 0.62 -1.08 1.71 -2.11 2.81 -2.64 c 0.27 -0.13 0.37 -0.16 0.42 -0.12 c 0.14 0.12 0.9 1.93 0.86 2.05 c -0.01 0.03 -0.2 0.16 -0.4 0.28 c -0.54 0.32 -0.89 0.62 -1.25 1.07 c -0.5 0.63 -0.77 1.26 -0.94 2.27 c -0.04 0.23 -0.09 0.43 -0.1 0.45 c -0.03 0.04 -1.97 0.05 -2.12 0.02" style="fill:#d25345"/><path d="m 6.91 5.85 c -0.16 -0.25 -0.78 -1.77 -0.78 -1.93 c 0 -0.1 0.14 -0.15 0.68 -0.27 c 0.33 -0.07 1.13 -0.18 1.3 -0.19 c 0.02 0 0.02 0.15 0.01 0.34 c -0.01 0.19 -0.03 0.71 -0.05 1.17 l -0.03 0.83 l -0.35 0.07 c -0.5 0.11 -0.71 0.11 -0.79 -0.03" style="fill:#ff8c00"/><path d="m 12.32 10 c -0.02 -0.11 -0.04 -0.3 -0.05 -0.43 c -0.05 -0.41 -0.21 -0.92 -0.47 -1.51 c -0.21 -0.47 -0.26 -0.62 -0.26 -0.84 v -0.26 l -0.18 -0.03 c -0.31 -0.05 -0.48 -0.12 -1.12 -0.49 l -0.63 -0.36 l 0.16 -0.45 c 0.2 -0.55 0.52 -1.36 0.64 -1.6 c 0.11 -0.22 0.12 -0.22 0.71 0.09 c 0.87 0.45 1.83 1.3 2.38 2.09 c 0.65 0.94 1.08 2.23 1.16 3.52 l 0.03 0.46 h -2.36" style="fill:#6f922f"/><g style="fill:#fff"><path d="m 6.71 10.17 c -0.09 -0.15 0.05 -0.66 0.42 -1.61 c 0.09 -0.22 0.16 -0.41 0.16 -0.43 c 0 -0.02 -0.13 -0.03 -0.3 -0.04 c -0.21 -0.01 -0.34 -0.04 -0.45 -0.09 c -0.17 -0.08 -0.23 -0.2 -0.15 -0.27 c 0.07 -0.07 0.39 -0.12 0.77 -0.12 c 0.41 0 0.63 0.04 0.72 0.13 l 0.07 0.07 l -0.08 0.23 c -0.11 0.33 -0.63 1.5 -0.83 1.87 c -0.18 0.33 -0.26 0.39 -0.33 0.26"/><path d="m 8.54 10.2 c -0.34 -0.08 -0.3 -0.23 0.29 -1.02 c 0.4 -0.54 0.46 -0.63 0.54 -0.8 c 0.07 -0.14 0.07 -0.16 0.02 -0.24 c -0.07 -0.11 -0.25 -0.19 -0.38 -0.16 c -0.05 0.02 -0.17 0.07 -0.26 0.13 c -0.28 0.17 -0.45 0.11 -0.35 -0.13 c 0.09 -0.21 0.47 -0.43 0.73 -0.43 c 0.23 0 0.51 0.17 0.63 0.38 c 0.16 0.28 0.04 0.68 -0.36 1.24 c -0.32 0.45 -0.36 0.52 -0.31 0.55 c 0.02 0.01 0.13 0.04 0.23 0.05 c 0.23 0.03 0.33 0.07 0.43 0.16 c 0.1 0.1 0.09 0.19 -0.02 0.24 c -0.11 0.04 -1.04 0.07 -1.2 0.04"/></g></svg>