<svg xmlns="http://www.w3.org/2000/svg" viewBox="0 0 16 16"><path d="m 7.97 15.94 c -10.56 1.2 -10.41 -15.99 0.19 -15.79 c 9.86 -0.57 10.74 16.73 -0.19 15.79" style="fill:#f27f1c"/><path d="m 6.23 12.35 c -0.36 -0.04 -0.36 -0.1 -0.05 -0.41 l 0.28 -0.29 h 3.12 l 0.28 0.29 c 0.16 0.16 0.27 0.32 0.26 0.36 c -0.02 0.05 -0.41 0.07 -1.84 0.08 c -1 0 -1.92 -0.01 -2.04 -0.02 m 3.86 -0.66 l -0.31 -0.31 v -2.5 l 0.59 -0.55 l -0.59 -0.63 v -2.48 l 0.29 -0.29 c 0.47 -0.47 0.45 -0.64 0.45 3.46 c 0 2.42 -0.02 3.54 -0.06 3.57 c -0.04 0.02 -0.2 -0.1 -0.37 -0.27 m -4.54 0.16 c -0.04 -0.11 -0.04 -6.92 0 -7 c 0.05 -0.14 0.15 -0.1 0.43 0.19 l 0.27 0.27 v 2.53 l -0.3 0.26 l -0.3 0.26 l 0.3 0.3 l 0.3 0.3 v 2.53 l -0.27 0.23 c -0.29 0.25 -0.38 0.28 -0.43 0.15 m 0.69 -3.27 c -0.25 -0.18 -0.27 -0.29 -0.08 -0.47 c 0.14 -0.13 0.15 -0.13 1.84 -0.12 h 1.7 l 0.16 0.15 c 0.2 0.2 0.2 0.26 -0.02 0.44 l -0.17 0.15 h -3.21 m 0 -3.77 c -0.22 -0.14 -0.55 -0.52 -0.51 -0.59 c 0.05 -0.07 4.1 -0.07 4.15 0 c 0.02 0.03 -0.1 0.2 -0.26 0.37 l -0.3 0.32 h -1.45 c -1.31 0 -1.47 -0.01 -1.63 -0.11" style="fill:#3d3d3d"/></svg>