<svg xmlns="http://www.w3.org/2000/svg" viewBox="0 0 16 16"><path d="m 0.7 6.46 c 1.59 -10.67 17.98 -7 14.88 3.3 c -2.08 9.81 -18.85 7.16 -14.88 -3.3" style="fill:#5f9d9f"/><path d="m 3.9 4.28 h 6.92 v 8.18 h -6.92" style="fill:#ff9414"/><path d="m 4.8 3.68 h 6.6 v 7.81 h -6.6" style="fill:#eff8ff"/><path d="m 5.5 9.42 h 2.55 v 0.33 h -2.55" style="fill:#424244"/><path d="m 5.42 7.96 c 0 -0.13 0.05 -0.35 0.12 -0.48 c 0.08 -0.16 0.32 -0.41 0.5 -0.5 c 0.11 -0.05 0.4 -0.13 0.41 -0.11 c 0 0 0.01 0.11 0.02 0.24 l 0.02 0.23 l -0.18 0.09 c -0.25 0.14 -0.38 0.31 -0.38 0.55 v 0.07 h -0.51" style="fill:#fd3645"/><path d="m 6.24 9.1 c -0.13 -0.03 -0.31 -0.14 -0.45 -0.27 c -0.2 -0.19 -0.32 -0.39 -0.37 -0.68 l -0.01 -0.08 h 0.51 l 0.04 0.11 c 0.04 0.13 0.19 0.31 0.32 0.38 c 0.06 0.04 0.13 0.05 0.23 0.05 c 0.27 0 0.47 -0.15 0.6 -0.43 l 0.06 -0.13 l 0.23 0.02 c 0.13 0 0.23 0.02 0.24 0.02 c 0 0 0 0.07 -0.02 0.14 c -0.06 0.36 -0.36 0.71 -0.71 0.84 c -0.14 0.05 -0.54 0.07 -0.68 0.04" style="fill:#ffab06"/><g style="fill:#424244"><path d="m 5.52 9.99 h 2.55 v 0.33 h -2.55"/><path d="m 5.52 10.52 h 2.55 v 0.33 h -2.55"/></g><path d="m 9.13 9.2 h 1.08 v 1.1 h -1.08" style="fill:#ff3442"/><path d="m 9.83 9.91 h 0.75 v 0.79 h -0.75" style="fill:#60ce9b"/><g style="fill:#fd3543"><path d="m 8.39 8.41 h 2.23 v 0.24 h -2.23"/><path d="m 8.37 7.89 h 2.23 v 0.24 h -2.23"/><path d="m 8.41 7.34 h 2.23 v 0.24 h -2.23"/><path d="m 8.39 6.81 h 2.23 v 0.24 h -2.23"/></g><g style="fill:#ff8c00"><path d="m 9.1 6 h 1.48 v 0.24 h -1.48"/><path d="m 9.1 5.47 h 1.49 v 0.24 h -1.49"/><path d="m 9.1 4.9 h 1.49 v 0.24 h -1.49"/><path d="m 9.1 4.39 h 1.49 v 0.24 h -1.49"/></g><path d="m 5.36 5.9 h 3.27 v 0.25 h -3.27" style="fill:#6ec5f2"/><path d="m 5.54 4.5 h 0.42 v 1.25 h -0.42" style="fill:#ffaf10"/><path d="m 6.38 4.88 h 0.42 v 0.89 h -0.42" style="fill:#fd3644"/><path d="m 7.2 5.28 h 0.42 v 0.49 h -0.42" style="fill:#30c275"/><path d="m 7.87 4.23 h 0.42 v 1.55 h -0.42" style="fill:#90dfe7"/></svg>