<svg xmlns="http://www.w3.org/2000/svg" viewBox="0 0 16 16"><path d="m 7.35 15.78 c 9.67 0.91 12.27 -14.42 2.34 -15.61 c -9.13 -1.47 -13.83 12.42 -4.76 15.2 c 0.77 0.3 1.61 0.3 2.42 0.41" style="fill:#c6e252"/><path d="m 9.57 11.33 c -0.13 -0.02 -0.18 -0.07 -0.24 -0.2 c -0.07 -0.15 -0.07 -0.45 0 -0.59 c 0.09 -0.19 0.12 -0.2 0.57 -0.2 h 0.4 v -4 h -0.34 c -0.46 0 -0.52 -0.02 -0.61 -0.2 c -0.12 -0.23 -0.09 -0.58 0.06 -0.75 l 0.08 -0.08 h 2.19 l 0.09 0.09 c 0.05 0.05 0.11 0.14 0.12 0.21 c 0.07 0.24 -0.02 0.6 -0.17 0.68 c -0.04 0.02 -0.21 0.04 -0.45 0.04 l -0.38 0.01 v 4 h 0.41 c 0.45 0 0.45 0 0.55 0.19 c 0.07 0.13 0.07 0.48 0 0.62 c -0.1 0.2 -0.1 0.2 -1.2 0.2 c -0.54 0 -1.03 0 -1.08 -0.02"/><path d="m 4.34 11.33 c -0.05 -0.01 -0.09 -0.05 -0.13 -0.12 c -0.08 -0.16 -0.08 -0.6 0 -0.75 c 0.05 -0.09 0.07 -0.11 0.16 -0.12 h 0.1 v -4 h -0.06 c -0.11 0 -0.18 -0.07 -0.22 -0.23 c -0.08 -0.27 -0.02 -0.68 0.11 -0.77 c 0.02 -0.01 0.29 -0.02 0.59 -0.02 c 0.51 0 0.58 0 0.69 0.05 c 0.38 0.17 0.61 0.69 0.67 1.47 c 0.05 0.73 -0.07 1.32 -0.39 1.81 c -0.04 0.07 -0.04 0.08 0.08 0.38 c 0.12 0.3 0.26 0.75 0.36 1.12 c 0.05 0.19 0.05 0.2 0.14 0.2 c 0.13 0.01 0.19 0.11 0.22 0.35 c 0.04 0.24 0 0.47 -0.1 0.58 c -0.05 0.06 -0.09 0.07 -0.26 0.08 l -0.2 0.01 l -0.1 -0.4 c -0.19 -0.77 -0.41 -1.44 -0.59 -1.77 l -0.08 -0.16 h -0.45 v 1.29 h 0.13 c 0.08 0 0.15 0.02 0.17 0.04 c 0.07 0.07 0.11 0.24 0.11 0.48 c 0 0.32 -0.05 0.43 -0.19 0.47 c -0.11 0.03 -0.61 0.04 -0.75 0 m 1.1 -3.38 c 0.25 -0.13 0.38 -0.42 0.38 -0.86 c 0 -0.33 -0.07 -0.52 -0.23 -0.67 l -0.11 -0.1 h -0.62 v 1.7 l 0.23 -0.01 c 0.18 -0.01 0.27 -0.02 0.34 -0.07"/><path d="m 7.16 11.32 c -0.19 -0.05 -0.25 -0.29 -0.11 -0.44 c 0.07 -0.08 0.09 -0.08 0.27 -0.08 h 0.19 v -1.37 h -0.18 c -0.22 0 -0.31 -0.07 -0.31 -0.26 c 0 -0.19 0.09 -0.27 0.31 -0.27 h 0.18 v -0.19 c 0 -0.36 0.16 -0.64 0.45 -0.78 c 0.26 -0.13 0.98 -0.06 1.1 0.1 c 0.07 0.1 0.06 0.28 -0.02 0.37 c -0.06 0.07 -0.08 0.07 -0.21 0.05 c -0.38 -0.06 -0.53 -0.07 -0.65 -0.04 c -0.18 0.04 -0.23 0.1 -0.25 0.31 l -0.01 0.18 h 0.41 c 0.4 0 0.41 0 0.48 0.07 c 0.09 0.1 0.1 0.28 0 0.39 c -0.05 0.06 -0.07 0.07 -0.47 0.07 h -0.41 v 1.37 h 0.37 c 0.41 0 0.47 0.02 0.51 0.19 c 0.04 0.18 -0.03 0.3 -0.19 0.34 c -0.15 0.03 -1.32 0.03 -1.45 0"/><path d="m 7.67 7.55 c -0.38 -0.1 -0.68 -0.39 -0.79 -0.78 c -0.2 -0.67 0.22 -1.34 0.9 -1.45 c 0.74 -0.12 1.38 0.55 1.26 1.31 c -0.11 0.66 -0.73 1.08 -1.37 0.92 m 0.57 -0.5 c 0.25 -0.1 0.39 -0.32 0.39 -0.61 c 0 -0.21 -0.05 -0.34 -0.19 -0.47 c -0.39 -0.37 -1.07 -0.18 -1.18 0.32 c -0.12 0.56 0.43 0.98 0.98 0.75"/></svg>