<svg xmlns="http://www.w3.org/2000/svg" viewBox="0 0 16 16"><path d="m 11.15 15.89 c -22.61 1.57 -5.5 -28.85 4.11 -8.96 c 1.32 3.07 1.16 8.16 -2.78 8.77" style="fill:#d41919"/><g style="fill:#fff"><path d="m 4.33 8.09 v -0.52 l -0.24 -0.04 c -0.39 -0.06 -0.46 -0.11 -0.46 -0.32 c 0 -0.24 0.08 -0.31 0.42 -0.35 l 0.28 -0.03 v -1.08 l -0.29 -0.04 c -0.35 -0.05 -0.41 -0.1 -0.41 -0.33 c 0 -0.23 0.06 -0.29 0.41 -0.34 c 0.33 -0.04 0.33 -0.03 0.35 -0.73 l 0.02 -0.46 l -0.38 -0.02 l -0.38 -0.02 l -0.02 -0.21 c -0.01 -0.12 0.01 -0.24 0.04 -0.28 c 0.03 -0.04 0.2 -0.07 0.36 -0.09 l 0.31 -0.03 l 0.01 -0.4 l 0.02 -0.4 h -1.05 v 0.22 c 0 0.27 -0.09 0.34 -0.47 0.34 h -0.28 v 1.22 l 0.73 0.03 l 0.02 0.21 c 0.01 0.12 -0.01 0.24 -0.04 0.28 c -0.03 0.04 -0.18 0.07 -0.34 0.09 l -0.29 0.03 v 1.11 l 0.28 0.03 c 0.15 0.02 0.3 0.05 0.34 0.07 c 0.07 0.05 0.08 0.46 0.01 0.51 c -0.03 0.02 -0.19 0.05 -0.35 0.07 l -0.3 0.03 v 1.09 l 0.24 0.04 c 0.44 0.07 0.51 0.16 0.51 0.68 v 0.19 h 0.95"/><path d="m 3.13 12.74 c -0.06 -0.06 -0.08 -0.2 -0.08 -0.52 c 0 -0.61 -0.06 -1.07 -0.14 -1.09 c -0.04 -0.01 -0.11 -0.07 -0.16 -0.12 c -0.08 -0.09 -0.09 -0.19 -0.09 -0.8 c 0 -0.39 0.01 -0.8 0.03 -0.91 l 0.03 -0.2 h 0.82 c 0.81 0 0.82 0 0.86 0.12 c 0.02 0.07 0.03 0.48 0.03 0.91 c 0 0.7 -0.01 0.8 -0.09 0.89 c -0.05 0.05 -0.12 0.11 -0.15 0.12 c -0.09 0.03 -0.14 0.43 -0.14 1.06 v 0.57 l -0.15 0.03 c -0.29 0.06 -0.67 0.04 -0.75 -0.05 m 0.59 -2.39 c 0.05 -0.02 0.08 -0.1 0.08 -0.27 c 0 -0.2 -0.02 -0.24 -0.13 -0.27 c -0.07 -0.02 -0.18 -0.02 -0.25 0 c -0.1 0.03 -0.12 0.06 -0.12 0.23 c 0 0.11 0.03 0.23 0.06 0.27 c 0.06 0.07 0.23 0.08 0.36 0.03"/><path d="m 5.96 12.3 c -0.05 -0.04 -0.06 -0.07 -0.07 -0.23 c -0.01 -0.22 0.04 -0.56 0.13 -0.66 c 0.11 -0.13 0.39 -0.09 0.37 0.16 c -0.02 0.29 0.03 0.49 -0.05 0.72 c -0.04 0.11 -0.29 0.09 -0.38 0.02"/><path d="m 6.52 10.61 c -0.23 -0.07 -0.18 -0.36 0.14 -0.78 c 0.14 -0.2 0.73 -0.77 0.92 -0.89 c 0.08 -0.05 0.18 -0.1 0.21 -0.1 c 0.09 0 0.27 0.18 0.27 0.26 c 0 0.09 -0.11 0.22 -0.41 0.5 c -0.32 0.3 -0.5 0.5 -0.62 0.68 c -0.12 0.18 -0.21 0.27 -0.3 0.31 c -0.09 0.04 -0.09 0.04 -0.2 0.01"/><path d="m 12.82 12.36 c -0.06 -0.95 -0.15 -1.35 -0.44 -1.86 c -0.35 -0.63 -1.04 -1.2 -1.65 -1.39 c -0.46 -0.14 -1.16 -0.25 -1.56 -0.25 c -0.32 0 -0.34 -0.02 -0.35 -0.21 c 0 -0.17 0.03 -0.21 0.21 -0.24 c 0.38 -0.05 1.35 -0.01 1.65 0.08 c 0.88 0.25 1.83 1.05 2.27 1.9 c 0.24 0.46 0.41 1.16 0.41 1.67 c 0 0.36 -0.04 0.76 -0.2 0.66 c -0.31 0.01 -0.34 -0.12 -0.36 -0.38"/><path d="m 5.12 13.26 c -0.28 -1 -0.09 -2.27 0.3 -3.06 c 0.53 -1.07 1.22 -1.77 2.28 -2.28 c 0.98 -0.41 1.87 -0.59 2.97 -0.37 c 0.25 0.05 0.61 0.17 0.84 0.28 c 1.45 0.64 2.39 1.79 2.75 3.31 c 0.19 0.82 0.02 1.99 -0.29 2.16 c -0.16 0.02 -0.27 -0.04 -0.37 -0.17 c 0.09 -0.29 0.17 -1.48 0.1 -1.83 c -0.16 -0.78 -0.59 -1.55 -1.17 -2.11 c -0.52 -0.51 -1.13 -0.84 -1.89 -1.05 c -0.87 -0.23 -1.68 -0.16 -2.63 0.24 c -1.02 0.43 -1.81 1.28 -2.22 2.37 c -0.39 0.77 -0.14 2.68 -0.24 2.64 c -0.13 0.07 -0.38 0 -0.45 -0.13"/><path d="m 13.1 13.74 c -0.3 -0.09 -0.55 -0.17 -1.44 -0.48 c -0.8 -0.28 -1.09 -0.38 -1.27 -0.4 c -0.12 -0.02 -0.15 -0.02 -0.32 0.06 c -0.24 0.11 -0.41 0.14 -0.63 0.11 c -0.32 -0.04 -0.56 -0.21 -0.68 -0.48 c -0.09 -0.2 -0.08 -0.48 0.03 -0.67 c 0.1 -0.18 0.18 -0.25 0.41 -0.35 c 0.25 -0.09 0.5 -0.13 0.74 -0.02 c 0.17 0.08 0.32 0.24 0.43 0.45 c 0.11 0.21 0.21 0.29 0.51 0.43 c 0.43 0.2 2.39 0.91 2.5 0.91 c 0.25 0.17 0.18 0.4 0.02 0.52 c -0.11 -0.02 -0.2 -0.05 -0.28 -0.07 m -3.42 -1.25 c 0.11 -0.07 0.14 -0.34 0.05 -0.46 c -0.06 -0.07 -0.3 -0.1 -0.39 -0.05 c -0.14 0.08 -0.15 0.27 -0.04 0.41 c 0.12 0.14 0.24 0.17 0.38 0.09"/></g></svg>