<svg xmlns="http://www.w3.org/2000/svg" viewBox="0 0 16 16"><path d="m 0.2 9.83 c 3.13 14.99 24.62 -1.1 11.71 -8.73 c -5 -3.27 -13.31 1.02 -11.71 8.73" style="fill:#ec8719"/><path d="m 4.66 4.66 v 1.34 h 1.33 c 2.22 0 4 1.79 4 4 v 1.34 h 1.33 v -1.34 c 0 -2.96 -2.38 -5.34 -5.34 -5.34 m -1.33 2.67 v 1.34 h 1.33 c 0.74 0 1.34 0.59 1.34 1.34 v 1.33 h 1.34 v -1.33 c 0 -1.48 -1.19 -2.67 -2.67 -2.67 m -0.55 2.45 c -0.43 0 -0.78 0.35 -0.78 0.78 c 0 0.43 0.35 0.78 0.78 0.78 c 0.43 0 0.78 -0.34 0.78 -0.78 c 0 -0.43 -0.35 -0.78 -0.78 -0.78" style="fill:#464646"/></svg>