<svg xmlns="http://www.w3.org/2000/svg" viewBox="0 0 16 16"><path d="m 15.25 5 c 6 19.45 -26.3 9.73 -11.18 -3.61 c 3 -2.67 9.56 -1.64 11.18 3.61" style="fill:#661325"/><path d="m 12.22 12.96 c -0.11 -0.1 -0.82 -1.25 -1.6 -2.57 c -0.77 -1.32 -1.5 -2.48 -1.6 -2.57 c -0.22 -0.21 -0.43 -0.23 -0.66 -0.05 c -0.2 0.16 -0.22 0.41 -0.06 0.82 c 0.07 0.18 0.09 0.35 0.06 0.5 c -0.06 0.3 -0.37 0.61 -0.67 0.66 c -0.43 0.07 -0.52 0.14 -1.27 1.09 c -0.45 0.57 -0.8 0.95 -0.89 0.97 c -0.19 0.05 -0.43 -0.1 -0.48 -0.3 c -0.04 -0.18 -0.07 -0.14 1.43 -2.89 c 0.63 -1.16 1.16 -2.17 1.18 -2.25 c 0.06 -0.23 -0.13 -0.47 -0.38 -0.47 c -0.16 0 -0.29 0.09 -0.63 0.42 c -0.54 0.52 -0.73 0.57 -1.78 0.55 c -0.64 -0.02 -0.82 -0.05 -1 -0.15 c -0.36 -0.21 -0.49 -0.45 -0.49 -0.88 c 0 -0.41 0.11 -0.62 0.45 -0.87 c 0.17 -0.13 0.27 -0.14 2.85 -0.16 c 1.47 -0.01 2.79 0 2.94 0.02 c 0.34 0.05 0.75 0.32 0.96 0.63 c 0.2 0.29 2.5 6.89 2.5 7.17 c 0 0.26 -0.25 0.53 -0.48 0.53 c -0.09 0 -0.25 -0.08 -0.35 -0.18" style="fill:#fff"/></svg>