<svg xmlns="http://www.w3.org/2000/svg" viewBox="0 0 16 16"><path d="m 3.34 14.1 c 10.1 7.71 18.84 -10.54 6.79 -13.59 c -7.66 -2.99 -14.25 7.87 -6.79 13.59" style="fill:#121a1a"/><path d="m 6.36 4.55 l -0.94 1.63 l -0.2 -0.12 l -0.12 0.2 l -0.2 -0.12 l -0.23 0.41 l 0.2 0.12 l -0.12 0.2 l 0.2 0.12 l -0.94 1.63 l 0.81 0.47 l 0.94 -1.63 l 0.32 -0.09 l 0.23 -0.41 l -0.09 -0.32 l 0.94 -1.63 m 2.12 -0.47 l -0.81 0.47 l 0.94 1.63 l -0.09 0.32 l 0.23 0.41 l 0.32 0.09 l 0.94 1.63 l 0.81 -0.47 l -0.94 -1.63 l 0.2 -0.12 l -0.12 -0.2 l 0.2 -0.12 l -0.23 -0.41 l -0.2 0.12 l -0.12 -0.2 l -0.2 0.12" style="fill-opacity:0.1"/><path d="m 8.76 7.88 c 0 0.52 -0.42 0.94 -0.94 0.94 c -0.52 0 -0.94 -0.42 -0.94 -0.94 c 0 -0.52 0.42 -0.94 0.94 -0.94 c 0.52 0 0.94 0.42 0.94 0.94" style="fill:#5c68ad"/><path d="m 5.48 10 h 4.69 v 0.94 h -4.69" style="fill:#317581"/><path d="m 7.59 9.76 l -0.23 0.23 v 1.18 h 0.23 v 0.23 h 0.47 v -0.23 h 0.23 v -1.18 l -0.23 -0.23" style="fill:#d7c584"/><path d="m 6.18 10 v 0.94 h 0.23 v -0.94 m 0.7 0 v 0.94 h 0.23 v -0.94 m 0.94 0 v 0.94 h 0.23 v -0.94 m 0.7 0 v 0.94 h 0.23 v -0.94" style="fill-opacity:0.15"/><path d="m 7.17 4.79 l -2.34 4.07 l -0.81 -0.47 l 2.34 -4.07" style="fill:#317581"/><path d="m 6.32 6.74 l -0.09 -0.32 l -1.02 -0.59 l -0.12 0.2 l -0.2 -0.12 l -0.23 0.41 l 0.2 0.12 l -0.12 0.2 l 1.02 0.59 l 0.32 -0.09" style="fill:#d7c584"/><path d="m 6.82 5.4 l -0.81 -0.47 l -0.12 0.2 l 0.81 0.47 m -0.35 0.61 l -0.81 -0.47 l -0.12 0.2 l 0.81 0.47 m -0.47 0.81 l -0.81 -0.47 l -0.12 0.2 l 0.81 0.47 m -0.35 0.61 l -0.81 -0.47 l -0.12 0.2 l 0.81 0.47" style="fill-opacity:0.15"/><path d="m 10.82 8.86 l -2.34 -4.07 l 0.81 -0.47 l 2.34 4.07" style="fill:#317581"/><path d="m 9.57 7.14 l 0.32 0.09 l 1.02 -0.59 l -0.12 -0.2 l 0.2 -0.12 l -0.23 -0.41 l -0.2 0.12 l -0.12 -0.2 l -1.02 0.59 l -0.09 0.32" style="fill:#d7c584"/><path d="m 10.47 8.25 l 0.81 -0.47 l -0.12 -0.2 l -0.81 0.47 m -0.35 -0.61 l 0.81 -0.47 l -0.12 -0.2 l -0.81 0.47 m -0.47 -0.81 l 0.81 -0.47 l -0.12 -0.2 l -0.81 0.47 m -0.35 -0.61 l 0.81 -0.47 l -0.12 -0.2 l -0.81 0.47" style="fill-opacity:0.15"/><path d="m 7.82 5.77 c -0.26 0 -0.52 0.05 -0.76 0.14 l -0.21 0.36 c 0.29 -0.18 0.63 -0.27 0.97 -0.27 c 0.34 0 0.68 0.09 0.97 0.27 l -0.21 -0.36 c -0.24 -0.09 -0.5 -0.14 -0.76 -0.14 m -1.87 2.07 l -0.21 0.36 c 0.08 0.52 0.35 0.99 0.76 1.32 h 0.42 c -0.6 -0.33 -0.97 -0.96 -0.97 -1.64 c 0 -0.01 0 -0.03 0 -0.04 m 3.75 0 c 0 0.01 0 0.02 0 0.04 c 0 0.68 -0.38 1.31 -0.97 1.64 h 0.42 c 0.41 -0.33 0.68 -0.8 0.76 -1.32" style="fill:#f9f9f9;fill-opacity:0.9"/><g style="fill:#fff"><path d="m 7.78 3.25 l -0.16 -0.71 l -0.61 -0.17 l 0.61 -0.19 l 0.15 -0.71 l 0.16 0.71 l 0.61 0.18 l -0.61 0.19"/><path d="m 12.64 11.75 l -0.15 -0.68 l -0.59 -0.17 l 0.58 -0.18 l 0.14 -0.68 l 0.15 0.68 l 0.59 0.16 l -0.58 0.18"/><path d="m 3.32 11.85 l -0.16 -0.7 l -0.62 -0.17 l 0.62 -0.18 l 0.15 -0.71 l 0.16 0.7 l 0.62 0.18 l -0.62 0.18"/></g></svg>