<svg xmlns="http://www.w3.org/2000/svg" viewBox="0 0 16 16"><path d="m 14.21 5.09 c 0.75 0.95 1.5 2.76 1.59 3.85 c 0.14 1.57 -0.41 3.4 -1.34 4.51 c -1.25 1.48 -3.76 2.5 -6.27 2.54 c -1.8 0.03 -4.21 -0.46 -5.43 -1.1 c -1.05 -0.54 -1.79 -1.36 -2.2 -2.41 c -0.55 -1.42 -0.58 -2.82 -0.07 -4.23 c 0.83 -3 2.7 -5.1 4.38 -6.7 c 4.25 -3.69 7.1 0.6 9.34 3.55" style="fill:#b2c9fa"/><path d="m 6.84 6.17 c -0.87 0.24 -1.04 -1.14 -0.66 -1.77 c 0.72 -0.71 3.39 -0.9 3.79 0.13 c 0.12 0.77 0.04 1.48 -0.56 1.77 c -1.41 -0.43 -2.07 -0.05 -2.57 -0.14" style="fill:#d77e9e"/><path d="m 6.93 6.24 c -0.84 -0.07 -0.99 0.9 -0.63 1.52 c 0.73 0.71 3.39 0.9 3.79 -0.13 c 0.12 -0.77 0.07 -1.06 -0.52 -1.36 c -1.6 -0.13 -2.15 -0.12 -2.65 -0.03" style="fill:#ffb3be"/><path d="m 8.57 5.09 c 0 0.28 -0.22 0.51 -0.5 0.51 c -0.27 0 -0.5 -0.23 -0.5 -0.51 c 0 -0.29 0.22 -0.52 0.5 -0.52 c 0.28 0 0.5 0.23 0.5 0.52" style="fill:#fbe792"/><path d="m 6.1 8.1 c -1.54 -0.06 -1.59 1.68 -1 2.85 c 1.16 1.34 5.42 1.7 6.1 -0.24 c 0.2 -1.45 0.21 -2.07 -0.72 -2.63 c -2.18 0.86 -3.27 0.41 -4.34 0.03" style="fill:#c6e5fb"/><path d="m 3.11 12.71 c 0.05 -0.51 0.15 -1.06 0.21 -1.5 c 0.16 -1.13 0.17 -1.16 0.32 -1.38 c 0.06 -0.09 0.09 -0.17 0.07 -0.23 c -0.05 -0.2 0.36 -0.67 0.75 -0.87 c 0.15 -0.09 0.34 -0.11 0.45 -0.23 c 0.05 -0.06 0.26 -0.2 0.46 -0.31 c 0.41 -0.22 0.6 -0.42 0.6 -0.6 c 0 -0.06 -0.09 -0.31 -0.19 -0.55 l -0.19 -0.44 l -0.04 -0.66 c -0.07 -1.16 -0.01 -1.47 0.36 -1.85 c 0.31 -0.32 1.71 -1.47 1.87 -1.52 c 0.07 -0.02 0.25 -0.04 0.37 -0.03 c 0.24 0.02 0.25 0.03 1 0.56 c 0.42 0.3 0.84 0.63 0.92 0.71 c 0.18 0.2 0.35 0.56 0.33 0.73 c -0.02 0.29 0 0.52 0.05 0.59 c 0.16 0.3 -0.02 0.61 0.11 0.85 c 0.13 0.26 0.1 0.56 -0.1 1.11 c -0.09 0.25 -0.17 0.49 -0.17 0.52 c 0 0.14 0.17 0.37 0.43 0.56 c 0.15 0.11 0.34 0.26 0.41 0.33 c 0.07 0.07 0.22 0.17 0.32 0.22 c 0.11 0.05 0.29 0.21 0.42 0.35 c 0.39 0.42 0.56 0.88 0.56 1.55 c 0 0.32 0.02 0.43 0.07 0.49 c 0.15 0.46 0.16 0.86 0.26 1.38 c 0.02 0.11 0.04 0.21 0.03 0.21 c -0.02 0.03 -9.68 0.04 -9.69 0.01 m 5.67 -1.38 c 0.78 -0.04 1.43 -0.09 1.45 -0.11 c 0.08 -0.09 0.53 -1.04 0.53 -1.11 c 0 -0.11 -0.07 -0.29 -0.12 -0.29 c -0.02 0 -0.29 0.16 -0.59 0.37 l -0.57 0.37 h -2.83 l 0.01 -0.09 l 0.01 -0.09 l 2.81 -0.04 l 0.76 -0.5 c 0.42 -0.28 0.76 -0.51 0.77 -0.51 c 0.02 -0.02 0.07 -0.5 0.05 -0.55 c -0.02 -0.07 -0.12 -0.06 -0.24 0.03 c -0.29 0.22 -0.73 0.32 -0.83 0.19 c -0.06 -0.08 -0.02 -0.11 0.17 -0.11 c 0.17 0 0.7 -0.21 0.77 -0.3 c 0.05 -0.07 0.01 -0.12 -0.26 -0.3 c -0.24 -0.17 -0.24 -0.17 -0.38 -0.1 c -0.07 0.04 -0.31 0.13 -0.53 0.22 l -0.39 0.16 h -2.54 l -1.1 -0.45 c -0.21 0.16 -0.59 0.23 -0.73 0.46 c -0.03 0.05 -0.08 0.24 -0.11 0.41 c -0.05 0.38 -0.14 0.28 0.71 0.83 c 0.44 0.28 0.62 0.41 0.62 0.47 c 0 0.11 -0.11 0.09 -0.34 -0.07 c -0.11 -0.08 -0.23 -0.14 -0.25 -0.14 c -0.04 0 -0.09 0.18 -0.09 0.3 c 0.35 0.41 0.66 0.68 1.07 1.08 l 0.37 -0.02 c 0.2 -0.01 1 -0.06 1.79 -0.1 m -1.86 -0.27 c -0.16 -0.16 -0.18 -0.21 -0.09 -0.25 c 0.03 -0.01 0.11 0.03 0.2 0.11 c 0.13 0.13 0.14 0.13 0.39 0.11 c 0.14 -0.02 0.5 -0.03 0.8 -0.04 c 0.47 -0.01 0.55 0 0.55 0.05 c 0 0.07 -0.21 0.09 -1.19 0.14 l -0.5 0.02 m 1.86 -1.15 c 0 -0.08 0.08 -0.11 0.29 -0.11 c 0.09 0 0.21 -0.03 0.26 -0.06 c 0.05 -0.04 0.12 -0.05 0.16 -0.04 c 0.06 0.02 0.05 0.04 -0.07 0.15 c -0.12 0.11 -0.16 0.12 -0.39 0.12 c -0.2 0 -0.26 -0.01 -0.26 -0.05 m -2.58 -0.66 c -0.21 -0.1 -0.37 -0.2 -0.38 -0.24 c -0.02 -0.1 0.07 -0.08 0.42 0.09 c 0.3 0.14 0.34 0.15 0.81 0.17 c 0.41 0.02 0.5 0.04 0.5 0.09 c 0 0.05 -0.09 0.06 -0.5 0.07 h -0.49 m 1.88 -1.85 c -0.4 0.08 -0.72 0.01 -1.09 0 c 0.05 0.32 0.3 0.62 0.54 0.63 c 0.24 -0.16 0.41 -0.37 0.55 -0.63 m 0.1 -0.27 c 0.22 -0.1 0.24 -0.12 0.52 -0.57 c 0.16 -0.26 0.28 -0.48 0.27 -0.5 c -0.02 -0.02 -0.23 -0.05 -0.47 -0.07 c -0.24 -0.02 -0.55 -0.07 -0.69 -0.11 c -0.24 -0.06 -0.27 -0.06 -0.52 0 c -0.15 0.04 -0.49 0.09 -0.77 0.12 c -0.31 0.03 -0.5 0.06 -0.51 0.09 c -0.02 0.07 0.6 0.88 0.75 0.96 c 0.34 0.21 1.01 0.25 1.43 0.07 m -1 -0.38 c -0.07 -0.03 -0.14 -0.08 -0.15 -0.13 c -0.01 -0.06 0 -0.07 0.12 -0.04 c 0.16 0.04 0.66 0.04 0.8 0 c 0.09 -0.03 0.11 -0.02 0.09 0.04 c -0.03 0.16 -0.57 0.23 -0.87 0.12 m -0.48 -0.96 c 0.18 -0.02 0.46 -0.07 0.6 -0.11 c 0.25 -0.07 0.29 -0.07 0.54 0 c 0.32 0.09 0.94 0.16 1.15 0.14 c 0.21 -0.02 0.23 -0.14 0.11 -0.84 c -0.11 -0.6 -0.18 -0.79 -0.37 -0.89 c -0.16 -0.09 -0.99 -0.3 -1.19 -0.3 c -0.16 0 -0.87 0.17 -1.08 0.25 c -0.14 0.05 -0.3 0.23 -0.34 0.38 c -0.04 0.14 -0.15 1.08 -0.15 1.29 c 0.08 0.25 0.48 0.11 0.73 0.09" style="fill:#8676d1"/><g style="fill:#785ae5"><path d="m 4.48 12.23 c 0.02 -0.54 0.05 -0.7 0.14 -0.72 c 0.08 -0.02 0.1 0.09 0.13 0.72 l 0.02 0.46 c -0.11 0 -0.21 0 -0.31 0"/><path d="m 10.95 12.28 c 0.02 -0.49 0.05 -0.63 0.15 -0.64 c 0.08 -0.02 0.1 0.07 0.13 0.64 l 0.02 0.41 c -0.11 0 -0.21 0 -0.32 0"/><path d="m 7.97 5.29 h 0.21 c 0 0 0 0.13 0 0.28 c 0 0.16 0 0.28 0 0.28 h -0.21 c 0 0 0 -0.13 0 -0.28 c 0 -0.16 0 -0.28 0 -0.28"/><path d="m 7.97 4.32 h 0.21 c 0 0 0 0.13 0 0.28 c 0 0.16 0 0.28 0 0.28 h -0.21 c 0 0 0 -0.13 0 -0.28 c 0 -0.15 0 -0.28 0 -0.28"/><path d="m 8.87 4.98 v 0.21 c 0 0 -0.13 0 -0.28 0 c -0.16 0 -0.28 0 -0.28 0 v -0.21 c 0 0 0.13 0 0.28 0 c 0.15 0 0.28 0 0.28 0"/><path d="m 7.81 4.99 v 0.21 c 0 0 -0.13 0 -0.28 0 c -0.15 0 -0.28 0 -0.28 0 v -0.21 c 0 0 0.13 0 0.28 0 c 0.16 0 0.28 0 0.28 0"/></g></svg>