<svg xmlns="http://www.w3.org/2000/svg" viewBox="0 0 16 16" xmlns:xlink="http://www.w3.org/1999/xlink"><path d="m 5 15.25 c 19.45 6 9.72 -26.3 -3.61 -11.18 c -2.67 3 -1.64 9.56 3.61 11.18" style="fill:#3d4e7f"/><path d="m 10.3 4.16 c -1.59 0.02 -3.52 0.77 -4.49 0.74 c -0.9 -0.03 -2.68 -0.23 -3.37 0.38 c -0.3 0.26 1.5 0.17 3.49 1.3 c 2.11 1.18 2.23 2.28 2.23 2.28 c 0 0 -1.09 0.91 -1.43 1.7 c 0.52 0 0.63 0.01 0.63 0.01 c 0.08 -0.12 0.19 -0.24 0.29 -0.37 c 0.11 -0.13 0.22 -0.26 0.35 -0.38 c 0.13 -0.13 0.28 -0.25 0.44 -0.36 c 0.08 -0.05 0.17 -0.11 0.26 -0.15 c 0.09 -0.05 0.18 -0.09 0.28 -0.13 c 0.1 -0.04 0.2 -0.07 0.3 -0.11 c 0.11 -0.03 0.21 -0.05 0.33 -0.07 c 0.11 -0.02 0.23 -0.02 0.33 -0.02 c 0.11 0.01 0.22 0.02 0.33 0.05 c 0.11 0.02 0.21 0.06 0.31 0.1 c 0.1 0.04 0.2 0.09 0.3 0.14 c 0.1 0.06 0.19 0.12 0.29 0.19 c 0.09 0.07 0.18 0.14 0.27 0.21 c 0.17 0.15 0.33 0.31 0.48 0.48 c 0.14 0.16 0.13 0.24 0.25 0.39 h 2.13 c 0 0 -0.21 -4.88 -2.58 -6.11 c -0.4 -0.21 -0.89 -0.29 -1.42 -0.28 m -0.49 1.36 c 0.2 0 0.4 0.08 0.38 0.27 c -0.02 0.17 -0.19 0.22 -0.37 0.22 c -0.2 0.01 -0.36 -0.07 -0.38 -0.24 c -0.01 -0.17 0.11 -0.25 0.36 -0.25 m -5 0.02 c 1.5 -0.01 2.21 0.25 2.59 0.48 c 0.5 0.3 0.3 0.63 -0.2 0.53 c -0.78 -0.15 -0.71 -0.45 -2.4 -1" id="0" style="fill:#fff;fill-rule:evenodd"/><use xlink:href="#0"/><g style="fill:#fff"><path d="m 2.5 12.49 v -0.31 h 0.61 c 0.09 0 0.17 -0.02 0.23 -0.07 c 0.06 -0.04 0.09 -0.1 0.09 -0.18 c 0 -0.04 -0.01 -0.07 -0.02 -0.1 c -0.02 -0.03 -0.04 -0.06 -0.07 -0.08 c -0.03 -0.02 -0.06 -0.04 -0.11 -0.05 c -0.04 -0.01 -0.08 -0.02 -0.13 -0.02 h -0.14 c -0.07 0 -0.14 -0.01 -0.2 -0.04 c -0.06 -0.02 -0.11 -0.06 -0.16 -0.1 c -0.05 -0.05 -0.08 -0.1 -0.11 -0.15 c -0.02 -0.06 -0.04 -0.13 -0.04 -0.2 c 0 -0.07 0.02 -0.14 0.04 -0.2 c 0.03 -0.06 0.06 -0.11 0.11 -0.15 c 0.05 -0.04 0.1 -0.08 0.17 -0.1 c 0.07 -0.03 0.14 -0.04 0.22 -0.04 h 0.57 v 0.31 h -0.59 c -0.07 0 -0.12 0.02 -0.15 0.05 c -0.04 0.04 -0.05 0.08 -0.05 0.13 c 0 0.05 0.02 0.1 0.05 0.14 c 0.04 0.04 0.09 0.05 0.15 0.05 h 0.17 c 0.07 0 0.15 0.02 0.21 0.04 c 0.07 0.03 0.12 0.07 0.17 0.11 c 0.05 0.05 0.09 0.11 0.11 0.17 c 0.03 0.07 0.04 0.14 0.04 0.22 c 0 0.08 -0.01 0.15 -0.04 0.22 c -0.03 0.07 -0.07 0.13 -0.12 0.17 c -0.05 0.05 -0.11 0.09 -0.19 0.11 c -0.07 0.03 -0.15 0.04 -0.24 0.04"/><path d="m 3.85 12.49 v -1.77 h 0.3 v 1.46 h 0.47 v 0.31"/><path d="m 4.74 12.49 v -1.77 h 0.3 v 1.77"/><path d="m 5.15 12.49 m 1.08 -1.69 c 0.02 -0.03 0.05 -0.05 0.08 -0.07 c 0.03 -0.02 0.06 -0.02 0.1 -0.02 c 0.04 0 0.07 0.02 0.09 0.04 c 0.02 0.03 0.04 0.07 0.04 0.11 v 1.08 l 0.74 -1.14 c 0.02 -0.03 0.05 -0.05 0.07 -0.07 c 0.03 -0.02 0.07 -0.02 0.1 -0.02 c 0.04 0 0.07 0.02 0.09 0.04 c 0.03 0.03 0.04 0.07 0.04 0.11 v 1.63 h -0.3 v -1.2 l -0.68 1.09 c -0.03 0.04 -0.05 0.07 -0.08 0.08 c -0.03 0.02 -0.06 0.02 -0.09 0.02 c -0.03 0 -0.05 0 -0.07 -0.02 c -0.02 -0.01 -0.05 -0.02 -0.06 -0.04 c -0.02 -0.02 -0.03 -0.04 -0.04 -0.06 c -0.01 -0.02 -0.02 -0.05 -0.02 -0.08 v -0.99 l -0.74 1.2 h -0.36"/><path d="m 7.77 12.49 m 0.3 -1.46 v 1.15 h 0.27 c 0.11 0 0.19 -0.02 0.25 -0.05 c 0.07 -0.04 0.1 -0.09 0.1 -0.16 c 0 -0.07 -0.02 -0.13 -0.07 -0.16 c -0.05 -0.04 -0.1 -0.05 -0.17 -0.05 h -0.21 v -0.31 h 0.21 c 0.07 0 0.12 -0.02 0.15 -0.05 c 0.04 -0.04 0.05 -0.09 0.05 -0.16 c 0 -0.07 -0.02 -0.13 -0.07 -0.16 c -0.05 -0.03 -0.13 -0.05 -0.25 -0.05 m 0.4 0.53 c 0.05 0.02 0.09 0.05 0.12 0.08 c 0.03 0.03 0.06 0.07 0.08 0.1 c 0.02 0.04 0.03 0.07 0.04 0.11 c 0.01 0.04 0.01 0.08 0.01 0.11 c 0 0.07 -0.01 0.14 -0.04 0.2 c -0.03 0.06 -0.07 0.12 -0.13 0.17 c -0.05 0.05 -0.13 0.09 -0.21 0.11 c -0.09 0.03 -0.19 0.04 -0.31 0.04 h -0.52 v -1.77 h 0.59 c 0.2 0 0.34 0.04 0.45 0.11 c 0.1 0.08 0.15 0.19 0.15 0.35 c 0 0.04 0 0.07 -0.01 0.11 c -0.01 0.04 -0.02 0.07 -0.04 0.11 c -0.02 0.03 -0.04 0.06 -0.07 0.09 c -0.03 0.03 -0.06 0.05 -0.11 0.07"/><path d="m 9.1 12.48 m 0.8 0 c -0.12 0 -0.23 -0.02 -0.32 -0.07 c -0.1 -0.05 -0.18 -0.11 -0.25 -0.19 c -0.07 -0.08 -0.13 -0.18 -0.16 -0.29 c -0.04 -0.11 -0.06 -0.23 -0.06 -0.36 c 0 -0.13 0.02 -0.24 0.06 -0.35 c 0.04 -0.11 0.09 -0.2 0.16 -0.27 c 0.07 -0.08 0.16 -0.14 0.25 -0.18 c 0.1 -0.04 0.21 -0.06 0.33 -0.06 h 0.05 c 0.12 0 0.23 0.02 0.33 0.07 c 0.1 0.04 0.18 0.1 0.25 0.18 c 0.07 0.07 0.13 0.17 0.16 0.27 c 0.04 0.11 0.06 0.22 0.06 0.34 c 0 0.13 -0.02 0.25 -0.06 0.36 c -0.04 0.11 -0.1 0.2 -0.17 0.29 c -0.07 0.08 -0.16 0.14 -0.25 0.19 c -0.1 0.04 -0.21 0.07 -0.32 0.07 m -0.05 -1.45 c -0.07 0 -0.14 0.01 -0.21 0.04 c -0.06 0.03 -0.12 0.07 -0.17 0.12 c -0.05 0.05 -0.08 0.11 -0.11 0.18 c -0.03 0.07 -0.04 0.15 -0.04 0.23 c 0 0.09 0.01 0.16 0.04 0.23 c 0.03 0.07 0.06 0.13 0.11 0.18 c 0.05 0.05 0.1 0.09 0.16 0.12 c 0.07 0.03 0.14 0.04 0.21 0.04 h 0.05 c 0.08 0 0.15 -0.01 0.21 -0.04 c 0.07 -0.03 0.12 -0.07 0.17 -0.12 c 0.05 -0.05 0.08 -0.11 0.11 -0.18 c 0.03 -0.07 0.04 -0.14 0.04 -0.23 c 0 -0.08 -0.01 -0.16 -0.04 -0.23 c -0.02 -0.07 -0.06 -0.13 -0.11 -0.18 c -0.05 -0.05 -0.1 -0.09 -0.17 -0.12 c -0.06 -0.03 -0.13 -0.04 -0.21 -0.04"/><path d="m 10.87 12.49 m 0.8 0 c -0.12 0 -0.23 -0.02 -0.33 -0.07 c -0.1 -0.05 -0.18 -0.11 -0.25 -0.19 c -0.07 -0.08 -0.13 -0.18 -0.16 -0.29 c -0.04 -0.11 -0.06 -0.23 -0.06 -0.36 c 0 -0.13 0.02 -0.25 0.05 -0.35 c 0.04 -0.11 0.1 -0.2 0.16 -0.27 c 0.07 -0.08 0.16 -0.14 0.25 -0.18 c 0.1 -0.04 0.21 -0.06 0.33 -0.06 h 0.05 c 0.12 0 0.23 0.02 0.33 0.07 c 0.1 0.04 0.18 0.1 0.25 0.18 c 0.07 0.07 0.13 0.17 0.16 0.27 c 0.04 0.11 0.05 0.22 0.05 0.35 c 0 0.13 -0.02 0.24 -0.06 0.36 c -0.04 0.11 -0.09 0.2 -0.17 0.29 c -0.07 0.08 -0.16 0.14 -0.25 0.19 c -0.1 0.05 -0.2 0.07 -0.32 0.07 m -0.05 -1.46 c -0.08 0 -0.15 0.02 -0.21 0.04 c -0.07 0.03 -0.12 0.07 -0.17 0.12 c -0.05 0.05 -0.09 0.11 -0.11 0.18 c -0.02 0.07 -0.04 0.15 -0.04 0.23 c 0 0.08 0.02 0.16 0.04 0.23 c 0.03 0.07 0.06 0.13 0.11 0.18 c 0.05 0.05 0.1 0.09 0.17 0.12 c 0.06 0.03 0.14 0.04 0.21 0.04 h 0.05 c 0.08 0 0.15 -0.02 0.21 -0.04 c 0.07 -0.03 0.13 -0.07 0.17 -0.12 c 0.05 -0.05 0.08 -0.11 0.11 -0.18 c 0.02 -0.07 0.04 -0.14 0.04 -0.23 c 0 -0.09 -0.01 -0.16 -0.04 -0.23 c -0.03 -0.07 -0.07 -0.13 -0.11 -0.18 c -0.05 -0.05 -0.1 -0.09 -0.17 -0.12 c -0.06 -0.03 -0.13 -0.04 -0.21 -0.04"/><path d="m 12.66 12.48 m 0.71 -0.71 l -0.41 0.64 c -0.02 0.04 -0.05 0.06 -0.08 0.07 c -0.03 0.01 -0.06 0.02 -0.1 0.02 c -0.04 0 -0.07 -0.01 -0.09 -0.04 c -0.02 -0.03 -0.04 -0.07 -0.04 -0.11 v -1.63 h 0.3 v 1.2 l 0.74 -1.2 h 0.36 l -0.52 0.78 l 0.71 0.99 h -0.41"/></g></svg>