<svg xmlns="http://www.w3.org/2000/svg" viewBox="0 0 16 16"><path d="m 11.77 15.29 c 7.52 -3.15 4.17 -15.34 -4 -15.26 c -7.45 -0.12 -10.28 9.57 -4.97 13.82 c 2.3 2.13 6.1 2.87 9 1.45" style="fill:#86cefa"/><path d="m 4.86 12.7 c -1.13 -0.76 -2.03 -2.18 -2.3 -3.63 c -0.08 -0.45 -0.07 -1.49 0.02 -1.95 c 0.33 -1.69 1.39 -3.09 2.91 -3.86 c 0.81 -0.41 1.56 -0.58 2.5 -0.58 c 2.07 0 3.92 1.1 4.95 2.98 c 0.44 0.79 0.61 1.49 0.61 2.45 c 0 1.25 -0.34 2.3 -1.08 3.3 c -0.46 0.63 -1.48 1.5 -1.66 1.43 c -0.09 -0.04 -0.5 -0.75 -0.5 -0.86 c 0.41 -0.46 0.98 -0.84 1.35 -1.36 c 0.54 -0.8 0.78 -1.57 0.78 -2.52 c 0 -0.71 -0.12 -1.24 -0.41 -1.84 c -0.54 -1.1 -1.74 -2.07 -2.97 -2.39 c -0.61 -0.16 -1.56 -0.16 -2.16 0 c -0.57 0.15 -1.18 0.46 -1.65 0.84 c -1.66 1.33 -2.11 3.51 -1.14 5.48 c 0.09 0.18 0.23 0.42 0.31 0.54 c 0.19 0.28 0.8 0.87 1.06 1.03 c 0.2 0.12 0.21 0.16 0.2 0.34 c -0.02 0.14 -0.37 0.75 -0.45 0.78 c -0.04 0.01 -0.2 -0.07 -0.37 -0.18 m 1.12 -1.92 c -0.76 -0.61 -1.29 -1.72 -1.29 -2.7 c 0 -0.75 0.41 -1.69 0.98 -2.26 c 1.29 -1.29 3.36 -1.28 4.67 0.02 c 0.39 0.39 0.7 0.88 0.88 1.42 c 0.25 0.84 0.09 1.82 -0.33 2.53 c -0.32 0.53 -0.93 1.13 -1.16 1.13 c -0.28 -0.25 -0.39 -0.51 -0.57 -0.87 c 0 -0.01 0.16 -0.18 0.36 -0.38 c 0.39 -0.39 0.54 -0.64 0.66 -1.12 c 0.19 -0.72 -0.09 -1.5 -0.73 -2.04 c -0.47 -0.4 -0.87 -0.55 -1.46 -0.55 c -0.77 0 -1.38 0.32 -1.79 0.95 c -0.25 0.37 -0.37 0.76 -0.36 1.2 c 0 0.66 0.21 1.17 0.68 1.62 c 0.16 0.16 0.3 0.34 0.3 0.39 c 0 0.09 -0.28 0.61 -0.41 0.77 c -0.11 0.13 -0.16 0.11 -0.44 -0.11 m 1.65 -1.59 c -0.46 -0.23 -0.72 -0.73 -0.69 -1.14 c 0.07 -1.05 1.43 -1.36 2 -0.45 c 0.2 0.3 0.23 0.72 0.08 1.02 c -0.26 0.5 -0.87 0.76 -1.39 0.58" style="fill:#4c90f3"/></svg>