<svg xmlns="http://www.w3.org/2000/svg" viewBox="0 0 16 16"><path d="m 8.15 15.91 c -1.65 -0.13 -3.58 -0.92 -4.92 -2 c -1.64 -1.33 -2.84 -3.37 -3.16 -5.39 c -0.39 -2.66 1.16 -5.52 2.91 -6.87 c 0.88 -0.66 2.04 -1.18 3.12 -1.41 c 2.83 -0.6 5.79 0.54 7.81 3 c 1.21 1.48 1.84 2.96 2 4.73 c 0.18 2.11 -0.65 4.37 -2.17 5.9 c -1.73 1.44 -3.52 2.21 -5.58 2.07" style="fill:#eff8ff"/><path d="m 8.13 12.36 c -0.06 -0.16 -0.16 -0.42 -0.2 -0.56 c -0.07 -0.2 -0.22 -0.33 -0.59 -0.51 c -0.63 -0.3 -0.7 -0.3 -1.07 -0.03 c -0.16 0.12 -0.36 0.22 -0.43 0.22 c -0.16 0 -1.36 -1.19 -1.36 -1.35 c 0.2 -0.39 0.28 -0.58 0.47 -0.9 l -0.26 -0.58 c -0.25 -0.56 -0.28 -0.59 -0.71 -0.71 c -0.25 -0.07 -0.49 -0.18 -0.53 -0.24 c -0.04 -0.06 -0.07 -0.4 -0.07 -0.76 c 0 -0.73 0.09 -0.83 0.68 -0.83 c 0.3 0 0.34 -0.04 0.51 -0.41 c 0.23 -0.51 0.23 -0.52 -0.01 -0.84 c -0.24 -0.32 -0.2 -0.43 0.27 -0.75 c 0.39 -0.27 0.48 -0.25 1.05 0.14 c 0.11 0.07 0.28 0.08 0.59 0.02 c 0.38 -0.07 0.45 -0.12 0.53 -0.35 c 0.05 -0.15 0.1 -0.28 0.11 -0.3 c 0.02 -0.02 0.26 0.02 0.55 0.08 c 0.42 0.09 0.54 0.16 0.65 0.37 c 0.18 0.34 0.11 0.43 -0.36 0.43 c -0.8 0 -1.7 0.68 -1.91 1.45 c -0.26 0.95 0.19 2.72 0.67 2.65 c 0.2 -0.03 0.21 -0.07 0.23 -0.76 c 0.03 -0.73 0.03 -0.73 0.45 -1.19 c 0.41 -0.44 0.44 -0.45 0.92 -0.45 c 0.27 0 0.5 0.03 0.5 0.06 c 0 0.03 -0.15 0.23 -0.32 0.44 c -0.37 0.44 -0.38 0.52 -0.14 0.91 c 0.13 0.21 0.27 0.3 0.52 0.35 c 0.32 0.06 0.37 0.04 0.69 -0.31 c 0.19 -0.21 0.39 -0.36 0.44 -0.32 c 0.05 0.03 0.09 0.26 0.09 0.5 c 0 0.41 -0.04 0.49 -0.42 0.88 c -0.4 0.42 -0.44 0.44 -1.06 0.5 c -0.48 0.05 -0.69 0.11 -0.83 0.25 c -0.1 0.1 -0.16 0.23 -0.15 0.28 c 0.01 0.05 0.31 0.23 0.65 0.4 c 1.08 0.54 2.1 0.47 2.84 -0.17 l 0.39 -0.33 l 0.3 0.41 c 0.16 0.23 0.3 0.48 0.3 0.57 c 0 0.21 -0.45 0.96 -0.57 0.96 c -0.29 -0.12 -0.48 -0.28 -0.73 -0.47 l -0.45 0.21 c -0.47 0.21 -0.52 0.29 -0.56 0.93 l -0.02 0.36 c -0.51 0.02 -1.02 0.04 -1.52 0.05 c -0.04 -0.1 -0.08 -0.2 -0.12 -0.29" style="fill:#2195e0"/><path d="m 10.38 9.73 c 0.34 -0.34 0.45 -0.53 0.54 -0.93 c 0.21 -0.93 -0.37 -2.19 -1.31 -2.82 c -0.6 -0.41 -1.35 -0.58 -1.94 -0.45 c -0.36 0.08 -0.55 0.22 -0.85 0.59 c -0.26 0.32 -0.32 0.32 -0.26 0 c 0.09 -0.48 0.47 -0.96 0.96 -1.21 c 0.66 -0.29 1.64 -0.13 2.18 0.14 c 0.56 0.28 1.18 0.88 1.55 1.5 c 0.5 0.84 0.59 1.82 0.23 2.53 c -0.24 0.47 -0.8 0.9 -1.22 0.94 l -0.19 0.02" style="fill:#60a66a"/></svg>