<svg xmlns="http://www.w3.org/2000/svg" viewBox="0 0 16 16"><path d="m 13.71 3 c 9.98 14.19 -15.98 18.71 -13.41 3.63 c 1.36 -5.99 9.41 -9.31 13.41 -3.63" style="fill:#020000"/><path d="m 6.29 11.17 c -0.05 -0.07 -0.07 -0.21 -0.05 -0.38 c 0.06 -0.36 0.4 -0.66 1.59 -1.36 c 1.18 -0.69 1.55 -1.02 1.55 -1.36 c 0 -0.2 -0.04 -0.27 -0.23 -0.39 c -0.13 -0.08 -0.32 -0.14 -0.42 -0.14 c -0.21 0 -0.41 -0.16 -0.41 -0.33 c 0 -0.08 0.11 -0.1 0.48 -0.1 c 1.02 0 1.68 0.71 1.32 1.43 c -0.06 0.11 -0.41 0.49 -0.79 0.84 l -0.68 0.64 l 0.31 0.05 c 0.45 0.07 2.49 0.06 3.05 -0.01 c 0.27 -0.04 0.51 -0.1 0.54 -0.15 c 0.09 -0.16 -0.23 -0.77 -1.74 -3.28 c -0.9 -1.48 -1.14 -1.79 -1.35 -1.67 c -0.07 0.04 -0.39 0.47 -0.71 0.96 c -0.7 1.05 -0.6 1.05 -1.27 0 c -0.24 -0.37 -0.5 -0.69 -0.57 -0.71 c -0.3 -0.1 -0.21 -0.23 -2.49 3.62 c -0.71 1.2 -1.31 2.36 -1.38 2.37 c -0.34 0.07 -0.68 -2.21 -0.42 -3.32 c 0.47 -2 2.13 -3.6 4.05 -4.14 c 0.75 -0.21 2.19 -0.22 2.86 -0.03 c 1.79 0.53 3 1.81 3.69 3.61 c 0.21 0.81 0.39 2.21 -0.08 3.85 c -0.09 0.1 -0.53 0.11 -3.44 0.11 c -2.89 0 -3.35 -0.02 -3.43 -0.11" style="fill:#fff"/></svg>