<svg xmlns="http://www.w3.org/2000/svg" viewBox="0 0 16 16"><path d="m 3.85 14.34 c 5.89 5.25 14.98 -3 11.3 -9.96 c -3.71 -7 -15.99 -5.14 -14.94 3.46 c 0.31 2.56 1.71 4.78 3.64 6.49" style="fill:#182833"/><g style="fill:#fff"><path d="m 2.98 6.44 c -0.04 -0.06 -0.06 -0.19 -0.09 -0.73 c -0.01 -0.21 -0.04 -0.42 -0.05 -0.45 c -0.02 -0.04 -0.07 -0.09 -0.13 -0.13 c -0.1 -0.05 -0.11 -0.07 -0.11 -0.17 c 0 -0.23 -0.02 -0.22 0.45 -0.22 h 0.42 c 0.11 0.11 0.05 0.22 0.05 0.36 l -0.13 0.07 c -0.12 0.06 -0.14 0.04 -0.23 0.91 c -0.03 0.27 -0.07 0.41 -0.11 0.41 c -0.01 0 -0.04 -0.02 -0.06 -0.05"/><path d="m 4.81 6.46 c -0.13 -0.07 -0.14 -0.12 -0.14 -0.98 v -0.79 c 0.25 0.01 0.51 -0.01 0.76 0.02 c 0.07 0.03 0.03 0.34 -0.05 0.39 c -0.02 0.01 -0.1 0.03 -0.17 0.04 c -0.31 0.04 -0.29 0.32 0.03 0.32 c 0.13 0 0.18 0.05 0.18 0.18 c 0 0.07 -0.02 0.12 -0.05 0.15 c -0.05 0.05 -0.18 0.09 -0.29 0.09 c -0.03 0 -0.07 0.02 -0.09 0.04 c -0.05 0.21 0.08 0.25 0.24 0.27 c 0.16 0.01 0.18 0.02 0.18 0.07 c 0.02 0.21 -0.04 0.25 -0.33 0.25 c -0.13 0 -0.25 -0.01 -0.29 -0.03"/><path d="m 3.75 6.46 c -0.04 -0.04 -0.1 -0.71 -0.13 -1.32 l -0.02 -0.4 c 0.11 0 0.23 0 0.34 0 l 0.02 0.27 c 0.02 0.32 0.04 0.37 0.1 0.39 c 0.1 0.03 0.13 -0.04 0.15 -0.34 c 0.01 -0.16 0.03 -0.3 0.04 -0.31 c 0.09 -0.04 0.17 -0.04 0.27 -0.05 v 0.73 c 0 0.77 -0.02 1.02 -0.1 1.05 c -0.09 0.04 -0.14 -0.03 -0.17 -0.27 c -0.04 -0.24 -0.08 -0.32 -0.17 -0.32 c -0.07 0 -0.12 0.12 -0.15 0.34 c -0.01 0.11 -0.04 0.22 -0.05 0.24 c -0.04 0.04 -0.09 0.04 -0.13 0"/><path d="m 5.93 6.48 c -0.03 -0.1 -0.05 -1.04 -0.05 -2 v -1.05 l 0.08 -0.03 c 0.16 -0.04 0.24 -0.01 0.41 0.02 c 0.02 0.31 0.03 0.63 0.05 0.94 l 0.02 0.25 c 0.09 0 0.18 0 0.28 0 l 0.02 -0.5 c 0.02 -0.59 0.03 -0.69 0.09 -0.72 c 0.02 -0.01 0.14 -0.03 0.27 -0.04 c 0.32 -0.07 0.23 0.13 0.23 0.39 c 0 0.5 -0.04 2.08 -0.06 2.47 c -0.02 0.33 -0.02 0.34 -0.26 0.3 c -0.09 -0.01 -0.17 -0.03 -0.18 -0.04 c -0.01 -0.01 -0.04 -0.26 -0.06 -0.55 l -0.04 -0.54 h -0.15 c -0.08 0 -0.14 0 -0.14 0.01 c 0 0.04 -0.1 1.11 -0.1 1.12 c -0.13 0.02 -0.3 0.05 -0.4 0"/><path d="m 7.62 6.5 c -0.07 -0.03 -0.01 -0.54 0.21 -1.84 c 0.16 -0.95 0.23 -1.29 0.27 -1.34 c 0.02 -0.02 0.07 -0.03 0.21 -0.02 c 0.3 0.02 0.35 0.04 0.38 0.15 c 0.1 0.34 0.41 2.33 0.44 2.78 l 0.02 0.2 l -0.08 0.03 c -0.11 0.04 -0.68 0.04 -0.73 0 c -0.04 -0.03 -0.04 -0.07 -0.05 -0.26 c 0 -0.26 0.02 -0.3 0.15 -0.3 c 0.11 0 0.14 -0.06 0.13 -0.21 c -0.02 -0.16 -0.11 -0.6 -0.15 -0.7 c -0.05 -0.12 -0.07 -0.04 -0.26 0.75 c -0.13 0.54 -0.18 0.69 -0.25 0.73 c -0.06 0.03 -0.24 0.05 -0.28 0.04"/><path d="m 9.58 6.5 c -0.14 -0.04 -0.06 -0.03 -0.07 -0.2 c -0.02 -0.32 -0.07 -2.68 -0.06 -2.78 c 0.02 -0.07 0.04 -0.09 0.08 -0.11 c 0.08 -0.03 1.17 -0.03 1.25 0 c 0.06 0.02 0.06 0.03 0.07 0.29 c 0.02 0.34 -0.02 2.46 -0.05 2.6 c -0.02 0.12 -0.09 0.18 -0.21 0.21 c -0.12 0.02 -0.2 -0.03 -0.22 -0.14 c -0.01 -0.04 -0.03 -0.52 -0.04 -1.05 c -0.03 -1.05 -0.03 -1.13 -0.08 -1.15 c -0.04 -0.03 -0.18 -0.03 -0.22 0 c -0.02 0.01 -0.04 0.25 -0.06 0.94 c -0.04 1.14 -0.05 1.27 -0.1 1.34 c -0.09 0.05 -0.2 0.07 -0.29 0.05"/><path d="m 11.25 6.5 c -0.08 0 -0.1 -0.02 -0.12 -0.07 c -0.01 -0.03 -0.03 -0.73 -0.04 -1.55 l -0.02 -1.49 c 0.3 0 0.59 0 0.88 0 c 0.2 0.2 0.37 0.44 0.51 0.63 v 0.36 c 0 0.57 -0.05 1.82 -0.07 1.92 c 0 0.21 -0.95 0.21 -1.14 0.19 m 0.64 -0.67 c 0.03 -0.03 0.04 -0.82 0.02 -1.29 l -0.02 -0.36 c -0.09 0 -0.18 0 -0.27 0 c -0.03 0.34 -0.03 0.7 -0.02 0.99 c 0.01 0.62 0.01 0.65 0.05 0.68 c 0.05 0.04 0.19 0.03 0.23 -0.02"/><path d="m 12.96 6.5 c -0.09 -0.02 -0.12 -0.1 -0.14 -0.39 c -0.03 -0.35 -0.03 -1.15 0 -1.26 c 0.04 -0.14 0.07 -0.15 0.35 -0.15 c 0.14 0 0.29 0.02 0.34 0.03 c 0.21 0.09 0.09 0.59 0.09 0.8 v 0.78 l -0.06 0.07 c -0.09 0.11 -0.34 0.15 -0.57 0.11 m 0.27 -0.35 c 0.04 -0.05 0.08 -0.49 0.06 -0.72 c -0.02 -0.21 -0.07 -0.33 -0.13 -0.27 c -0.04 0.04 -0.07 0.42 -0.05 0.73 c 0.01 0.28 0.05 0.35 0.12 0.26"/><path d="m 13.8 6.41 c -0.09 -0.11 -0.1 -0.19 -0.1 -0.93 c 0 -0.55 0.01 -0.73 0.03 -0.74 c 0.05 -0.04 0.63 -0.04 0.7 0 c 0.14 0.07 0.04 0.37 -0.13 0.37 c -0.17 0 -0.31 0.11 -0.28 0.21 c 0.02 0.06 0.14 0.12 0.25 0.12 c 0.11 0 0.16 0.04 0.18 0.13 c 0.03 0.18 -0.08 0.29 -0.29 0.29 c -0.05 0 -0.1 0.01 -0.11 0.02 c -0.02 0.01 -0.03 0.1 -0.04 0.21 c -0.02 0.26 -0.05 0.34 -0.12 0.34 c -0.03 0 -0.07 -0.02 -0.08 -0.03"/><path d="m 12.88 10.74 c -0.05 -0.07 -0.07 -0.52 -0.06 -2.05 c 0 -1.23 0.01 -1.56 0.04 -1.59 c 0.4 0 1.17 -0.16 1.52 0.01 c 0.05 0.07 0.06 0.63 0.05 1.98 c -0.01 1.38 -0.03 1.53 -0.14 1.62 c -0.13 0.06 -0.23 0.05 -0.38 0 c -0.02 -0.02 -0.03 -0.44 -0.05 -1.35 c -0.01 -0.73 -0.03 -1.36 -0.04 -1.41 c -0.02 -0.16 -0.3 -0.09 -0.42 -0.1 l -0.02 0.63 c -0.03 1.12 -0.07 2.09 -0.08 2.16 c -0.01 0.05 -0.04 0.07 -0.1 0.09 c -0.12 0.04 -0.29 0.04 -0.33 0"/><path d="m 11.95 10.71 c -0.03 -0.03 -0.05 -0.09 -0.06 -0.17 c -0.01 -0.07 -0.02 -0.86 -0.02 -1.75 c 0 -1.52 0 -1.63 0.04 -1.69 c 0.02 -0.04 0.06 -0.07 0.1 -0.07 c 0.16 0.02 0.3 0.06 0.42 0.16 v 0.8 c 0 0.44 0 1.22 -0.02 1.74 c -0.02 0.91 -0.02 0.93 -0.07 0.98 c -0.07 0.06 -0.33 0.06 -0.39 0"/><path d="m 10.31 10.73 c -0.27 -0.01 -0.32 -0.02 -0.34 -0.06 c -0.06 -0.08 -0.07 -0.45 -0.07 -2 c 0 -1.81 -0.03 -1.64 0.27 -1.64 c 0.14 0 0.19 0.01 0.23 0.05 l 0.06 0.04 l 0.01 1.41 c 0 0.78 0.02 1.42 0.02 1.43 c 0.01 0.01 0.18 0.02 0.38 0.04 c 0.2 0.02 0.38 0.03 0.41 0.04 c 0.06 0.02 0.09 0.09 0.13 0.33 c 0.04 0.27 0.03 0.34 -0.03 0.35 c -0.1 0.02 -0.75 0.03 -1.07 0.02"/><path d="m 8 10.74 c -0.09 -0.03 -0.08 -0.09 -0.09 -1.91 v -1.75 c 0.29 -0.04 0.6 -0.04 0.86 -0.04 c 0.49 0 0.55 0 0.61 0.05 c 0.16 0.11 0.21 0.41 0.2 1.21 c -0.01 0.39 -0.02 0.52 -0.05 0.61 c -0.04 0.21 -0.28 0.26 -0.33 0.4 c 0.11 0.48 0.31 1.07 0.32 1.23 c 0.03 0.21 0.13 0.24 -0.26 0.21 c -0.28 0 -0.29 -0.01 -0.46 -0.66 c -0.09 -0.34 -0.21 -0.72 -0.24 -0.73 c -0.04 -0.02 -0.05 0.06 -0.07 0.72 c -0.01 0.34 -0.02 0.63 -0.03 0.63 c -0.14 0.02 -0.3 0.03 -0.44 0.02 m 0.87 -2.21 c 0.02 -0.22 0.03 -0.39 0.04 -0.63 c -0.15 0 -0.3 0 -0.45 0 c 0 0.22 0 0.45 0 0.67 c 0.14 -0.01 0.29 -0.02 0.41 -0.04"/><path d="m 6 10.68 c 0 -0.03 -0.02 -0.09 -0.05 -0.15 c -0.07 -0.16 -0.07 -0.38 -0.07 -1.94 c 0 -1.32 0 -1.47 0.04 -1.51 c 0.03 -0.03 0.13 -0.04 0.75 -0.04 c 0.39 0 0.75 0.01 0.79 0.02 c 0.13 0.24 -0.01 0.54 -0.07 0.79 c -0.27 0.02 -0.56 0.01 -0.83 0.06 c -0.1 0.05 -0.1 0.54 0 0.6 c 0.02 0.01 0.19 0.02 0.38 0.02 c 0.29 0 0.36 0.01 0.39 0.04 c 0.07 0.08 0.08 0.53 0.01 0.71 c -0.03 0.07 -0.05 0.08 -0.14 0.1 c -0.25 0.02 -0.46 0.02 -0.71 0.02 c 0 0.18 -0.01 0.37 0.02 0.55 c 0.06 0.14 0.36 0.07 0.5 0.07 c 0.26 0.01 0.48 0.02 0.5 0.03 c 0.03 0.03 -0.04 0.49 -0.1 0.66 c -0.04 0.04 -1.29 0.06 -1.41 0"/><path d="m 3.41 12.29 v -0.66 c 0 -1.07 -0.03 -2.19 -0.07 -2.25 c -0.16 -0.22 -0.08 0.03 -0.1 1.14 c -0.02 1.18 -0.04 1.42 -0.09 1.44 c -0.04 0.02 -0.32 -0.29 -0.39 -0.42 c -0.09 -0.19 -0.11 -0.35 -0.09 -1.31 c 0.02 -0.89 -0.01 -1.6 -0.05 -1.65 c -0.14 -0.16 -0.05 0.09 -0.07 1.13 c -0.02 1 -0.04 1.36 -0.07 1.43 c -0.02 0.06 -0.08 0.03 -0.29 -0.17 l -0.21 -0.21 v -1.89 c 0 -1.83 0.01 -2.22 0.05 -2.22 c 0.04 0 0.52 0.51 1.29 1.34 c 0.41 0.44 0.75 0.79 0.76 0.79 c 0.01 0 0.21 -0.21 0.45 -0.46 c 0.23 -0.25 0.52 -0.55 0.64 -0.66 l 0.21 -0.21 l 0.02 0.08 c 0.02 0.1 0 1 -0.03 1.27 c -0.01 0.11 -0.03 0.77 -0.04 1.48 c -0.01 0.71 -0.02 1.3 -0.03 1.3 c -0.04 0 -0.3 -0.2 -0.54 -0.4 c -0.18 -0.15 -0.25 -0.24 -0.27 -0.29 c -0.01 -0.04 -0.03 -0.31 -0.04 -0.59 c -0.01 -0.28 -0.02 -0.52 -0.04 -0.54 c -0.13 0.04 -0.18 0.13 -0.3 0.25 l -0.02 0.77 c -0.03 1.54 -0.07 2 -0.15 2 c -0.2 -0.13 -0.39 -0.33 -0.54 -0.48"/><path d="m 3.45 7.11 l 0.07 -0.02 c 0.14 -0.06 1.09 -0.05 1.18 0 c 0.03 0.02 0.02 0.03 -0.01 0.09 c -0.05 0.07 -0.57 0.63 -0.6 0.63 c -0.23 -0.22 -0.47 -0.45 -0.64 -0.69"/></g></svg>