<svg xmlns="http://www.w3.org/2000/svg" viewBox="0 0 16 16"><path d="m 13.71 3 c 9.98 14.19 -15.98 18.71 -13.41 3.63 c 1.36 -5.99 9.41 -9.31 13.41 -3.63" style="fill:#617376"/><path d="m 6.42 15.78 c -1.64 -0.26 -3.13 -1 -4.19 -2.09 c 1.92 -0.16 9.1 0.02 11.61 -0.25 c -1.97 1.87 -4.37 2.51 -7.42 2.33"/><g style="fill:#fff"><path d="m 3.14 6.55 c -0.05 -0.01 -0.08 -0.07 -0.08 -0.13 c 0 -0.05 -0.01 -0.65 -0.03 -1.33 l -0.02 -1.23 l 0.53 -0.03 c 0.66 -0.04 0.96 0 1.04 0.13 c 0.07 0.31 0.24 0.89 0.03 1.11 c -0.09 0.09 -0.13 0.1 -0.5 0.07 c -0.58 -0.05 -0.59 -0.04 -0.59 0.76 c 0 0.61 0 0.63 -0.11 0.65 c -0.09 0.02 -0.2 0.02 -0.28 0 m 1.04 -1.95 c 0.12 -0.18 -0.02 -0.3 -0.15 -0.33 c -0.27 -0.06 -0.45 0.02 -0.45 0.2 c 0 0.08 0.03 0.16 0.08 0.19 c 0.09 0.06 0.42 0.02 0.52 -0.05"/><path d="m 6.19 6.59 c -0.04 -0.03 -0.05 -0.11 -0.07 -0.47 c -0.03 -0.44 -0.08 -0.7 -0.15 -0.82 c -0.13 -0.11 -0.35 -0.07 -0.48 0.04 c -0.19 0.13 -0.09 0.43 -0.08 0.63 c 0.02 0.45 0.01 0.55 -0.02 0.57 c -0.05 0.04 -0.36 0.03 -0.4 -0.01 c -0.04 -0.03 -0.04 -0.13 -0.01 -0.99 c 0.02 -0.53 0.04 -1 0.05 -1.05 c 0.02 -0.2 -0.12 -0.39 -0.05 -0.58 c 0.02 -0.04 0.11 -0.04 0.74 -0.04 c 0.75 0 0.88 0.02 0.9 0.11 c 0.01 0.03 0 0.2 -0.01 0.37 c -0.02 0.17 -0.02 0.75 -0.02 1.28 v 0.96 l -0.09 0.02 c -0.15 0.02 -0.26 0.02 -0.3 -0.02 m -0.29 -1.85 c 0.16 -0.08 0.25 -0.37 0.14 -0.43 c -0.75 -0.26 -0.66 0.68 -0.14 0.43"/><path d="m 7.63 6.54 c -0.02 -0.04 -0.02 -0.32 -0.01 -1.04 c 0.02 -1.04 0.01 -1.16 -0.1 -1.24 c -0.08 -0.06 -0.23 -0.05 -0.4 0.01 c -0.18 0.07 -0.22 0.04 -0.23 -0.2 l -0.01 -0.17 l 0.09 -0.03 c 0.05 -0.02 0.36 -0.03 0.89 -0.03 h 0.8 c 0.01 0.13 0.01 0.27 0.02 0.4 c -0.17 0.01 -0.34 0.01 -0.5 0.05 c -0.02 0.02 -0.07 1.34 -0.07 2.07 v 0.18 c -0.13 0.03 -0.39 0.11 -0.46 0"/><path d="m 9.11 6.57 h -0.1 v -0.21 c 0 -0.3 -0.05 -1.88 -0.07 -2.21 l -0.02 -0.28 c 0.18 0 0.36 0 0.54 0 c 0.04 0.29 -0.03 0.61 0.06 0.89 c 0.19 0.11 0.3 0.06 0.56 0.06 c 0.01 -0.32 0.03 -0.65 0.04 -0.98 c 0.16 0.01 0.34 0.02 0.49 0.06 c 0.04 0.04 0.03 1.37 -0.01 1.82 c -0.02 0.29 -0.02 0.34 0.03 0.5 c 0.03 0.09 0.05 0.22 0.05 0.27 c -0.01 0.18 -0.22 0.09 -0.34 0.07 c -0.21 -0.02 -0.19 -0.06 -0.21 -0.26 c -0.01 -0.13 -0.03 -0.38 -0.04 -0.56 c -0.02 -0.32 -0.03 -0.34 -0.1 -0.4 c -0.16 -0.09 -0.25 -0.06 -0.44 -0.06 c -0.04 0.27 -0.04 0.56 -0.05 0.8 c 0 0.25 -0.01 0.47 -0.01 0.49 c 0 0.03 -0.15 0.04 -0.39 0.01"/><path d="m 11.35 6.56 c -0.09 -0.01 -0.19 -0.03 -0.23 -0.05 c -0.1 -0.04 -0.17 -0.18 -0.17 -0.35 c 0.04 -0.23 0.15 -0.31 0.35 -0.46 c 0.05 -0.02 0.05 -0.02 0.05 0.05 c 0 0.08 0.1 0.37 0.14 0.43 c 0.03 0.04 0.22 0.04 0.34 0 c 0.11 -0.04 0.14 -0.11 0.21 -0.5 c 0.11 -0.39 -0.21 -0.47 -0.47 -0.5 c -0.46 -0.05 -0.59 -0.11 -0.63 -0.31 c -0.05 -0.23 -0.01 -0.71 0.07 -0.87 c 0.07 -0.13 0.21 -0.18 0.48 -0.18 c 0.24 -0.01 0.46 0.05 0.7 0.08 c 0.23 0.03 0.39 0.25 0.39 0.54 c 0 0.07 -0.02 0.13 -0.04 0.14 c -0.04 0.03 -0.06 0.02 -0.17 -0.09 c -0.15 -0.16 -0.36 -0.26 -0.59 -0.28 c -0.25 -0.03 -0.42 0.19 -0.35 0.37 c 0.05 0.13 0.1 0.16 0.34 0.19 c 0.2 0.02 0.38 0.09 0.57 0.22 c 0.11 0.07 0.13 0.1 0.17 0.22 c 0.06 0.23 0.08 0.57 0.04 0.7 c -0.02 0.07 -0.05 0.18 -0.07 0.27 c -0.04 0.19 -0.16 0.32 -0.34 0.37 c -0.13 0.04 -0.56 0.04 -0.8 0"/><path d="m 12.18 12.34 c -0.02 -0.03 -0.08 -2.73 -0.06 -2.75 c 0 0 0.23 -0.02 0.52 -0.04 c 0.55 -0.04 0.85 -0.01 0.98 0.07 c 0.09 0.05 0.16 0.23 0.2 0.47 c 0.04 0.3 -0.01 0.46 -0.21 0.65 l -0.14 0.14 c 0.13 0.11 0.27 0.21 0.4 0.31 v 0.26 c 0 0.14 -0.01 0.39 -0.03 0.54 c -0.03 0.34 -0.04 0.35 -0.34 0.35 h -0.22 c -0.05 -0.32 0.1 -0.79 -0.05 -1.05 c -0.07 -0.12 -0.26 -0.22 -0.41 -0.21 c -0.23 0.01 -0.14 0.52 -0.14 0.7 c 0 0.42 -0.02 0.5 -0.07 0.52 c -0.09 0.04 -0.41 0.05 -0.43 0.02 m 1.05 -1.88 c 0.08 -0.05 0.13 -0.22 0.1 -0.29 c -0.19 -0.13 -0.35 -0.15 -0.57 -0.18 c 0 0.17 -0.03 0.51 0.13 0.54 c 0.1 0.01 0.26 -0.02 0.34 -0.07"/><path d="m 10.4 12.34 c -0.07 0 -0.14 -0.02 -0.16 -0.04 c -0.02 -0.03 -0.04 -0.43 -0.06 -1.35 c -0.02 -0.72 -0.02 -1.32 -0.02 -1.32 c 0.01 0 0.36 -0.02 0.79 -0.03 l 0.78 -0.02 l 0.07 0.07 c 0.06 0.05 0.07 0.09 0.07 0.21 c 0 0.21 -0.01 0.22 -0.5 0.21 c -0.46 -0.01 -0.58 0.01 -0.63 0.12 c -0.04 0.09 -0.04 0.21 -0.01 0.28 c 0.27 0.21 0.59 -0.04 0.6 0.34 c 0 0.22 -0.04 0.27 -0.21 0.24 c -0.16 -0.02 -0.3 0.01 -0.34 0.07 c -0.04 0.07 -0.07 0.51 -0.05 0.61 c 0.01 0.05 0.04 0.1 0.05 0.11 c 0.07 0.04 0.37 0.06 0.59 0.03 c 0.27 -0.03 0.38 -0.03 0.42 0.01 c 0.04 0.04 0.08 0.25 0.05 0.33 c -0.04 0.14 -0.05 0.15 -0.71 0.14 c -0.34 0 -0.67 -0.01 -0.74 -0.02"/><path d="m 9.48 12.56 c -0.2 -0.22 -0.18 -0.22 -0.7 -0.19 c -0.4 0.02 -0.46 0.02 -0.52 -0.02 c -0.14 -0.09 -0.14 -0.13 -0.14 -1.43 c 0.01 -1.16 0.01 -1.2 0.06 -1.27 c 0.08 -0.11 0.21 -0.14 0.38 -0.11 c 0.17 0.03 0.67 0.04 0.92 0.01 c 0.17 -0.02 0.2 -0.02 0.25 0.03 c 0.06 0.05 0.07 0.07 0.07 0.24 c 0 0.41 -0.09 0.59 -0.34 0.7 c -0.11 0.05 -0.11 0.05 -0.15 0 c -0.02 -0.03 -0.04 -0.08 -0.04 -0.11 c 0 -0.11 -0.06 -0.27 -0.13 -0.33 c -0.06 -0.05 -0.08 -0.06 -0.18 -0.05 c -0.2 0.03 -0.29 0.09 -0.32 0.21 c -0.04 0.14 -0.11 1 -0.11 1.32 c 0 0.35 0.02 0.37 0.34 0.37 c 0.2 0 0.23 -0.01 0.3 -0.06 c 0.07 -0.06 0.07 -0.08 0.08 -0.23 c 0 -0.2 -0.05 -0.29 -0.24 -0.38 c -0.07 -0.03 -0.13 -0.07 -0.13 -0.08 c 0 -0.05 0.13 -0.13 0.39 -0.25 c 0.14 -0.06 0.29 -0.11 0.32 -0.11 c 0.1 0.02 0.13 0.17 0.15 0.8 c 0.01 0.55 0.01 0.6 -0.05 0.81 c -0.04 0.13 -0.07 0.23 -0.08 0.25 c -0.01 0.01 -0.08 -0.05 -0.15 -0.13"/><path d="m 6.23 12.36 c -0.11 -0.04 -0.12 -0.11 -0.14 -1.18 c -0.01 -0.57 -0.02 -1.17 -0.03 -1.33 v -0.29 c 0.17 0 0.34 0.01 0.51 0.02 l 0.14 0.39 c 0.23 0.64 0.36 0.85 0.45 0.76 c 0.02 -0.02 0.04 -0.24 0.04 -0.61 c 0.01 -0.32 0.02 -0.59 0.04 -0.6 c 0.02 -0.02 0.38 0.03 0.47 0.06 c 0.04 0.02 0.05 0.3 0.01 1.77 c -0.01 0.66 -0.03 0.95 -0.05 0.97 c -0.04 0.05 -0.21 0.07 -0.3 0.04 c -0.09 -0.03 -0.13 -0.09 -0.27 -0.39 c -0.13 -0.29 -0.31 -0.58 -0.4 -0.63 c -0.11 -0.06 -0.13 -0.01 -0.14 0.53 v 0.5 h -0.14 c -0.07 0 -0.16 0 -0.18 -0.01"/><path d="m 5.26 12.36 l -0.02 -0.27 c -0.03 -0.42 -0.09 -0.83 -0.16 -1 c -0.03 -0.09 -0.09 -0.11 -0.29 -0.07 c -0.32 0.04 -0.34 0.09 -0.3 0.81 c 0.02 0.26 0.02 0.48 0.01 0.49 c -0.02 0.03 -0.44 0.05 -0.48 0.03 c -0.02 -0.02 -0.02 -0.05 0.01 -0.14 c 0.04 -0.1 0.04 -0.28 0.03 -1.16 c 0 -0.57 -0.02 -1.11 -0.03 -1.18 c -0.02 -0.14 0.03 -0.3 0.1 -0.31 c 0.3 -0.01 1.23 0.01 1.35 0.03 c 0.21 0.03 0.26 0.09 0.26 0.3 c -0.11 0.32 0 0.68 -0.03 0.97 c -0.04 0.27 -0.04 0.95 -0.01 1.33 l 0.02 0.21 c -0.16 -0.01 -0.32 -0.02 -0.45 -0.03 m -0.25 -1.89 c 0.15 -0.15 0.14 -0.28 0.16 -0.48 c -0.19 0 -0.38 0 -0.57 0 c 0 0.15 -0.05 0.44 0.09 0.51 c 0.06 0.03 0.24 0.02 0.32 -0.02"/><path d="m 2.04 11.55 c -0.02 -0.91 -0.07 -1.52 -0.16 -1.79 c -0.03 -0.09 -0.05 -0.16 -0.05 -0.18 c 0 -0.04 0.62 -0.06 1.04 -0.04 c 0.52 0.03 0.63 0.08 0.76 0.37 c 0.06 0.13 0.07 0.16 0.07 0.68 c 0 0.68 -0.03 1.27 -0.06 1.37 c -0.02 0.04 -0.09 0.16 -0.18 0.25 l -0.16 0.16 l -0.26 -0.03 c -0.24 -0.03 -0.76 -0.02 -0.92 0.02 l -0.07 0.02 m 1.01 -0.52 c 0.05 -0.02 0.1 -0.05 0.11 -0.07 c 0.04 -0.07 0.05 -1.48 0.01 -1.56 c -0.05 -0.11 -0.16 -0.16 -0.36 -0.16 c -0.3 0 -0.28 -0.05 -0.28 0.87 c 0 0.43 0.01 0.82 0.02 0.87 c 0.11 0.16 0.34 0.12 0.5 0.07"/><path d="m 7.37 9.22 c -0.28 -0.05 -0.31 -0.24 -0.38 -0.43 c -0.07 -0.18 0 -0.4 0.16 -0.61 c 0.19 -0.23 0.19 -0.28 0.01 -0.57 c -0.22 -0.34 -0.22 -0.41 0.04 -0.61 c 0.2 -0.16 0.2 -0.16 0.4 -0.14 c 0.27 0.02 0.44 0.11 0.53 0.25 c 0.07 0.11 0.07 0.24 -0.01 0.38 c -0.09 0.16 -0.2 0.18 -0.31 0.32 l 0.13 0.18 c 0.2 0.27 0.24 0.64 0.46 0.51 l 0.3 -0.17 l 0.14 0.11 c -0.66 0.47 0.07 0.57 -0.13 0.73 c -0.06 0.05 -0.44 -0.13 -0.5 -0.11 c -0.59 0.16 -0.44 0.26 -0.83 0.14 m 0.64 -0.26 c 0.17 -0.07 0.11 -0.26 -0.16 -0.52 c -0.16 -0.16 -0.31 -0.17 -0.4 -0.04 c -0.1 0.15 -0.08 0.48 0.09 0.55 c 0.07 0.04 0.35 0.06 0.48 0.01 m -0.22 -1.51 c 0.08 -0.25 -0.04 -0.39 -0.26 -0.26 c -0.13 0.07 -0.16 0.19 -0.09 0.29 c 0.06 0.09 0.16 0.55 0.36 -0.04"/></g><path d="m 13.27 9 c -0.11 -0.03 -0.12 -0.05 -0.16 -0.28 c -0.05 -0.28 -0.09 -0.32 -0.37 -0.3 c -0.2 0.01 -0.23 0 -0.31 -0.07 c -0.16 -0.16 -0.16 -0.55 0 -0.79 c 0.04 -0.05 0.09 -0.2 0.13 -0.32 c 0.06 -0.21 0.24 -0.62 0.35 -0.76 c 0.05 -0.07 0.05 -0.06 0.15 0.08 c 0.19 0.3 0.28 0.61 0.43 0.93 c 0.12 0.25 0.16 0.26 0.86 0.3 c 0.28 0.02 0.57 0.06 0.64 0.08 l 0.13 0.05 c 0.01 0.37 -0.78 0.58 -1.1 0.84 c -0.3 0.23 -0.52 0.3 -0.77 0.25"/><path d="m 3.7 9.1 c -0.02 -0.02 -0.04 -0.1 -0.06 -0.18 c -0.01 -0.07 -0.04 -0.14 -0.05 -0.15 c -0.01 -0.01 -0.1 0.02 -0.18 0.07 c -0.24 0.12 -0.34 0.11 -0.5 -0.07 c -0.08 -0.08 -0.23 -0.24 -0.33 -0.35 c -0.11 -0.11 -0.2 -0.22 -0.2 -0.25 c 0 -0.08 0.16 -0.18 0.33 -0.21 c 0.1 -0.01 0.32 0 0.59 0.04 c 0.23 0.03 0.46 0.05 0.51 0.04 c 0.12 -0.03 0.16 -0.18 0.16 -0.59 c 0 -0.73 0.21 -1 0.5 -0.63 c 0.07 0.09 0.21 0.25 0.3 0.34 c 0.2 0.19 0.22 0.27 0.11 0.47 c -0.11 0.21 -0.08 0.39 0.07 0.39 c 0.09 0 0.11 0.09 0.05 0.28 c -0.07 0.22 -0.12 0.26 -0.33 0.26 c -0.21 0 -0.32 0.07 -0.42 0.27 c -0.12 0.23 -0.44 0.41 -0.54 0.29"/><path d="m 6.98 1.88 c 0.01 -0.04 0.04 -0.07 0.06 -0.07 c 0.07 0 0.27 -0.21 0.27 -0.29 c 0 -0.05 -0.06 -0.15 -0.13 -0.22 c -0.08 -0.08 -0.66 0.03 -0.52 -0.36 c 0.02 -0.05 0.49 -0.07 0.64 -0.21 c 0.25 -0.24 0.26 -0.25 0.2 -0.38 c -0.12 -0.27 0.11 -0.29 0.73 -0.29 c 0.45 -0.07 0.49 0.16 0.88 0.26 c 0.13 0.03 0.25 0.1 0.38 0.23 c 0.33 0.34 0.21 0.54 -0.29 0.49 c -0.26 -0.03 -0.48 0.02 -0.54 0.11 c -0.11 0.17 0.14 0.5 0.47 0.61 c 0.34 0.11 0.52 0.46 0.41 0.79 c -0.17 0.38 -0.4 0.16 -0.57 -0.05 c -0.25 -0.3 -0.29 -0.28 -0.3 0.16 c -0.01 0.56 -0.14 0.85 -0.35 0.73 c -0.13 -0.07 -0.28 -0.36 -0.31 -0.58 c -0.04 -0.24 -0.13 -0.39 -0.25 -0.39 c -0.05 0 -0.22 0.06 -0.39 0.13 c -0.29 0.13 -0.54 0.23 -0.6 0.15 c -0.06 -0.08 -0.32 -0.44 0.2 -0.83"/></svg>