<svg xmlns="http://www.w3.org/2000/svg" viewBox="0 0 16 16"><path d="m 2.61 14.2 c 5.64 5.34 15.81 -2.48 12.82 -9.66 c -2.09 -6.08 -10.72 -5.52 -13.75 -0.57 c -2.27 3 -2.24 7.89 0.93 10.23" style="fill:#392f28"/><path d="m 6.91 9 l 0.34 0.3 c 0.17 0.15 0.2 0.41 0.05 0.57 l -1.44 1.61 c -0.14 0.16 -0.4 0.17 -0.58 0.02 l -0.34 -0.3 c -0.17 -0.15 -0.19 -0.41 -0.05 -0.57 l 1.44 -1.61 c 0.15 -0.16 0.41 -0.18 0.58 -0.02" style="fill:#fff"/><path d="m 10.49 3.75 c 0.82 0.06 1.67 0.79 1.65 1.86 c -0.01 0.66 -0.28 1.39 -0.75 2 c -1.48 1.8 -2.03 0.53 -0.84 -0.67 c 0.75 -0.8 0.55 -1.18 0.54 -1.35 c -0.04 -0.47 -0.62 -0.9 -1 -0.79 c -0.34 0.09 -0.65 0 -1.37 0.79 c -0.92 1.25 -1.94 0.5 -0.73 -0.7 c 0.97 -1 1.79 -1.17 2.51 -1.15" style="fill:#f4f4f4"/><path d="m 7.28 4.61 l 4.37 3.83 c 0.17 0.15 0.2 0.41 0.05 0.57 l -2.66 2.98 c -0.15 0.16 -0.41 0.17 -0.58 0.02 l -4.37 -3.83 c -0.18 -0.15 -0.2 -0.4 -0.05 -0.57 l 2.66 -2.98 c 0.14 -0.16 0.4 -0.17 0.58 -0.02" style="fill:#ffa400"/><path d="m 6.34 12.42 c -0.56 0.63 -1.55 0.65 -2.23 0.07 c -0.67 -0.59 -0.76 -1.57 -0.21 -2.2 c 0.56 -0.62 1.55 -0.65 2.23 -0.06 c 0.67 0.59 0.77 1.57 0.21 2.19" style="fill:#f4f4f4"/><path d="m 5.12 12.16 c -0.19 0.21 -0.52 0.22 -0.75 0.02 c -0.23 -0.2 -0.26 -0.53 -0.07 -0.74 c 0.19 -0.21 0.52 -0.22 0.75 -0.02 c 0.23 0.2 0.26 0.53 0.07 0.73" style="fill:#392f28"/></svg>