<svg xmlns="http://www.w3.org/2000/svg" viewBox="0 0 16 16"><path d="m 13.71 13.1 c 9.98 -14.19 -15.98 -18.71 -13.41 -3.63 c 1.36 5.99 9.41 9.31 13.41 3.63" style="fill:#00a1ad"/><g style="fill:#fff"><path d="m 6.94 13 c -0.24 -0.11 -0.38 -0.45 -0.49 -1.13 c -0.05 -0.34 -0.11 -0.52 -0.25 -0.8 c -0.09 -0.2 -0.2 -0.48 -0.23 -0.62 c -0.14 -0.56 -0.25 -0.8 -0.83 -1.91 c -0.18 -0.35 -0.38 -0.79 -0.45 -0.98 c -0.51 -1.53 0.15 -3.09 1.63 -3.85 c 0.92 -0.42 1.87 -0.43 2.75 -0.08 c 0.68 0.27 1.34 0.87 1.67 1.52 c 0.32 0.64 0.36 1.6 0.11 2.39 c -0.05 0.18 -0.29 0.71 -0.53 1.19 c -0.5 0.99 -0.51 1.03 -0.84 2 c -0.17 0.52 -0.26 0.84 -0.29 1.07 c -0.02 0.18 -0.05 0.39 -0.07 0.46 c -0.06 0.23 -0.27 0.62 -0.42 0.68 c -0.29 0.13 -1.53 0.14 -1.76 0.04 m 0.6 -2.22 c 0 -0.01 0.02 -0.4 0.04 -0.88 l 0.02 -0.87 l -0.24 -0.16 c -0.54 -0.37 -0.77 -0.62 -0.91 -1.04 c -0.07 -0.21 -0.38 -1.7 -0.38 -1.84 c 0 -0.09 0.06 -0.07 0.36 0.08 c 0.68 0.34 1.16 0.77 1.44 1.26 c 0.24 0.42 0.19 0.82 0.41 0.2 c 0.13 -0.35 0.56 -0.52 1 -0.52 c 0.56 0 0.43 0.12 0.29 0.4 c -0.1 0.19 -0.46 0.66 -0.64 0.82 c -0.17 0.16 -0.27 0.2 -0.52 0.23 c -0.12 0.02 -0.21 0.05 -0.26 0.11 c -0.04 0.04 -0.14 0.16 -0.21 0.25 l -0.14 0.17 c 0.07 0.5 0.07 1.21 0.13 1.78 c 0.34 -0.05 0.95 0.04 1.07 -0.07 c 0.04 -0.07 0.1 -0.21 0.12 -0.32 c 0.07 -0.3 0.22 -0.65 0.7 -1.64 c 0.53 -1.11 0.65 -1.41 0.73 -1.82 c 0.07 -0.36 0.06 -0.64 -0.06 -1.07 c -0.14 -0.49 -0.32 -0.82 -0.66 -1.16 c -0.35 -0.35 -0.66 -0.53 -1.19 -0.69 c -0.72 -0.2 -1.52 -0.12 -2.1 0.17 c -0.55 0.27 -0.94 0.66 -1.21 1.21 c -0.18 0.37 -0.26 0.73 -0.27 1.17 c 0 0.6 0.14 1.01 0.75 2.14 c 0.45 0.84 0.55 1.08 0.69 1.62 c 0.13 0.52 0.15 0.54 0.66 0.5 c 0.21 -0.01 0.4 -0.03 0.41 -0.03"/><path d="m 8.18 8.42 h 0.16 v 2.56 h -0.16"/></g><g style="fill:#00a1ad"><path d="m 7 11.43 l 1.47 -0.06 c 0.07 0 0.13 0.05 0.13 0.12 v 0.13 c 0 0.07 -0.05 0.13 -0.12 0.13 l -1.47 0.06 c -0.07 0 -0.13 -0.05 -0.13 -0.12 v -0.12 c 0 -0.07 0.05 -0.13 0.12 -0.13"/><path d="m 7.28 12.1 l 1.14 -0.03 c 0.07 0 0.13 0.05 0.13 0.12 v 0.13 c 0 0.07 -0.05 0.13 -0.13 0.13 l -1.14 0.02 c -0.07 0 -0.13 -0.05 -0.13 -0.12 v -0.13 c 0 -0.07 0.05 -0.13 0.12 -0.13"/></g></svg>