<svg xmlns="http://www.w3.org/2000/svg" viewBox="0 0 16 16"><path d="m 0.13 8 c -1.2 -10.55 15.99 -10.41 15.79 0.19 c 0.57 9.86 -16.72 10.74 -15.79 -0.19" style="fill:#b4f1f6"/><path d="m 4.35 10.86 c -2 -0.45 -2.77 -3.07 -1.37 -4.66 c 0.7 -0.8 1.95 -1.1 3 -0.73 c 0.55 0.19 0.55 0.18 0 0.88 l -0.49 0.61 h -0.37 c -0.64 0 -1.06 0.34 -1.2 0.93 c -0.17 0.76 0.36 1.43 1.14 1.43 c 0.66 0 1 -0.27 2.06 -1.58 c 1.65 -2.05 2.55 -2.6 3.89 -2.39 c 1.26 0.19 2.14 1.09 2.32 2.35 c 0.27 1.87 -1.08 3.36 -2.96 3.24 c -0.48 -0.03 -1.11 -0.21 -1.19 -0.34 c 0.28 -0.49 0.58 -0.81 0.96 -1.28 c 0.31 0 0.67 0.02 0.93 -0.12 c 0.95 -0.5 0.76 -1.98 -0.29 -2.22 c -0.29 -0.07 -0.37 -0.06 -0.64 0.03 c -0.45 0.14 -0.8 0.47 -1.59 1.46 c -1.09 1.37 -1.56 1.83 -2.25 2.18 c -0.59 0.3 -1.26 0.37 -1.98 0.21" style="fill:#494949"/><g style="fill:#20a4c7"><path d="m 5.52 6.91 c 0.26 -0.42 0.76 -0.75 0.94 -1.21 c 0.64 0.18 1.04 0.61 1.48 1.07 c -0.32 0.31 -0.8 1.14 -1.14 1.27 c -0.39 -0.41 -0.84 -0.83 -1.29 -1.14"/><path d="m 7.8 9.45 c 0.36 -0.45 0.71 -0.89 1.07 -1.34 c 0.37 0.47 0.88 0.86 1.29 1.15 c -0.24 0.23 -0.7 1.18 -0.99 1.24 c -0.55 -0.2 -1 -0.72 -1.37 -1.05"/></g></svg>