<svg xmlns="http://www.w3.org/2000/svg" viewBox="0 0 16 16"><path d="m 0.06 9.82 c 0.55 6.46 9.25 8.19 13.45 3.57 c 3.66 -3.42 3.26 -9.98 -0.79 -12.23 c -4.62 -3 -11.91 0.71 -12.7 6.7 c -0.09 0.66 -0.07 1.32 0.04 1.96" style="fill:#f4b243"/><path d="m 3.98 5.09 v 4.44 l 1.68 0.34 l 0.67 -1.36 l 3.71 2.05 l -3.71 1.02 l -2.36 -1.37 v 2.39 h 7.41 l 0.67 -0.68 v -4.44 l -2.36 1.03 l -3.71 -2.39 l 3.04 0.68 l 0.67 -1.37 l 2.36 1.37 v -2.39" style="fill-opacity:0.1"/><path d="m 4.65 4.07 l -0.67 0.68 v 4.43 l 1.68 0.34 l 0.67 -1.37 l 3.71 2.05 v 0.34 l -3.04 -0.68 l -0.68 1.36 l -2.36 -1.36 v 2.39 h 7.41 l 0.67 -0.68 v -4.44 l -1.68 -0.34 l -0.68 1.36 l -3.71 -2.05 v -0.34 l 3.04 0.68 l 0.67 -1.36 l 2.36 1.36 v -2.39" style="fill:#464646"/></svg>