<svg xmlns="http://www.w3.org/2000/svg" viewBox="0 0 16 16"><defs><linearGradient id="0" gradientUnits="userSpaceOnUse" y1="15.28" x2="0" y2="0.75"><stop style="stop-color:#043495"/><stop offset="1" style="stop-color:#45dff4"/></linearGradient></defs><path d="m 10.61 0.77 c -7.96 -3.11 -12.1 5.6 -10 11 c 1.42 3.78 7.1 5.66 11.63 2.98 c 5.75 -3.39 4.53 -11.6 -1.61 -14" style="fill:#f8f8ff"/><path d="m 7.87 3.22 c -2.71 0 -4.91 2.21 -4.91 4.95 c 0 2.73 2.2 4.95 4.91 4.95 c 2.71 0 4.91 -2.21 4.91 -4.95 c 0 -2.73 -2.2 -4.95 -4.91 -4.95 m 0 0.99 c 2.16 0 3.93 1.77 3.93 3.96 c 0 2.18 -1.76 3.96 -3.93 3.96 c -2.16 0 -3.93 -1.77 -3.93 -3.96 c 0 -2.18 1.76 -3.96 3.93 -3.96 m -1.16 1.36 v 0.79 h 0.67 c 0.07 0.23 0.18 0.4 0.23 0.64 c -0.57 0.98 -1.23 2.06 -1.8 3 c -0.07 0.13 -0.18 0.27 -0.17 0.41 h 0.98 c 0.5 -0.72 0.94 -1.52 1.46 -2.23 c 0.29 0.82 0.63 1.59 0.9 2.43 c 0.55 -0.14 1.11 -0.27 1.57 -0.5 c -0.13 -0.22 -0.15 -0.55 -0.29 -0.76 c -0.22 0.09 -0.45 0.18 -0.7 0.23 c -0.47 -1.38 -1.04 -2.66 -1.51 -4" style="fill:url(#0)"/></svg>