<svg xmlns="http://www.w3.org/2000/svg" viewBox="0 0 16 16"><path d="m 0.08 7.76 c 0.25 5.69 4.1 9.97 9.45 7.61 c 3.67 -1.62 7.16 -3.41 6.28 -7.61 c -0.87 -4.2 -5.11 -7.61 -9.45 -7.61 c -4.34 0 -6.46 3.45 -6.28 7.61" style="fill:#282534"/><g style="fill:#fff"><path d="m 3.11 7.34 c -0.02 -0.02 -0.04 -0.22 -0.04 -0.44 v -0.41 l 0.68 -0.37 c 0.45 -0.25 0.67 -0.4 0.66 -0.46 c -0.01 -0.05 -0.31 -0.24 -0.68 -0.42 l -0.66 -0.34 l 0.02 -0.41 c 0.02 -0.41 0.02 -0.41 0.18 -0.4 c 0.15 0.01 0.98 0.43 1.92 0.96 l 0.36 0.2 v 0.79 l -1.04 0.61 c -1.06 0.62 -1.32 0.75 -1.39 0.68"/><path d="m 5.95 7.52 h 2.5 v 0.92 h -2.5"/></g><path d="m 15.95 12 c 0 2.18 -1.76 3.94 -3.94 3.94 c -2.18 0 -3.94 -1.76 -3.94 -3.94 c 0 -2.18 1.77 -3.94 3.94 -3.94 c 2.18 0 3.94 1.77 3.94 3.94" style="fill:#fa01d2"/><g style="fill:#fff"><path d="m 9.38 13.3 c -0.05 -0.3 -0.11 -2.48 0.03 -2.75 c 0.94 0.57 1.66 0.94 2.54 1.41 c 0 0.97 0 1.95 0 2.92 c -0.93 -0.48 -1.81 -1.02 -2.57 -1.59"/><path d="m 12.1 11.76 c -0.16 -0.04 -1.04 -0.5 -1.09 -0.57 c 0.99 -0.6 1.7 -1.04 2.52 -1.46 c 0.41 0.3 0.82 0.34 1.15 0.67 c -0.68 0.38 -2.19 1.15 -2.58 1.36"/><path d="m 9.51 10.41 c 0 0 0.01 -0.03 0.03 -0.05 c 0.64 -0.3 2.22 -1.25 2.58 -1.36 c 0.34 0.21 0.84 0.45 1.19 0.63 c -0.87 0.31 -1.81 0.96 -2.61 1.4 c -0.41 -0.16 -0.84 -0.41 -1.2 -0.62"/><path d="m 12.22 14.77 c -0.03 -0.98 0.01 -1.73 0.01 -2.77 c 0.7 -0.29 1.94 -1.02 2.55 -1.36 c 0.1 0.08 0.05 0.28 0.05 0.4 c -0.02 0.42 -0.07 2.21 -0.05 2.31 c -0.96 0.66 -1.92 1.19 -2.55 1.43"/></g></svg>