<svg xmlns="http://www.w3.org/2000/svg" viewBox="0 0 16 16"><path d="m 13.97 13.39 c 9.15 -14.39 -15.84 -19 -13.85 -4.58 c 0.81 5.89 10.35 10.1 13.85 4.58" style="fill:#b0dfe5"/><path d="m 11.44 5.41 h -7.08 c -0.48 0 -0.88 0.36 -0.88 0.79 v 3.95 c 0 0.44 0.4 0.79 0.88 0.79 h 7.08 c 0.49 0 0.89 -0.36 0.89 -0.79 v -3.95 c 0 -0.43 -0.4 -0.79 -0.89 -0.79 m -3.98 1.19 h 0.89 v 0.79 h -0.89 m 0 0.39 h 0.89 v 0.79 h -0.89 m -1.33 -1.98 h 0.89 v 0.79 h -0.89 m 0 0.39 h 0.89 v 0.79 h -0.89 m -0.44 0 h -0.88 v -0.79 h 0.88 m 0 -0.39 h -0.88 v -0.79 h 0.88 m 3.98 3.56 h -3.54 v -0.79 h 3.54 m 0 -0.79 h -0.88 v -0.79 h 0.88 m 0 -0.39 h -0.88 v -0.79 h 0.88 m 1.33 1.98 h -0.88 v -0.79 h 0.88 m 0 -0.39 h -0.88 v -0.79 h 0.88"/><path d="m 7.5 11.63 c -0.02 -0.13 -0.03 -0.86 -0.03 -1.61 v -1.38 h -0.95 v -4.21 h 1.52 c 0.83 0 1.52 0.02 1.52 0.04 c 0 0.02 -0.25 0.68 -0.57 1.45 c -0.31 0.78 -0.57 1.45 -0.58 1.5 c -0.01 0.08 0.05 0.1 0.56 0.14 l 0.57 0.05 l -2 4.26" style="fill:#00acee"/></svg>