<svg xmlns="http://www.w3.org/2000/svg" viewBox="0 0 16 16"><path d="m 15.26 11.8 c -3.15 7.51 -15.34 4.16 -15.26 -4 c -0.12 -7.44 9.57 -10.26 13.82 -4.96 c 2.13 2.29 2.87 6.09 1.45 8.98" style="fill:#eff8ff"/><path d="m 7.1 13.82 c -2.19 -0.42 -3.96 -2.07 -4.57 -4.27 c -0.19 -0.7 -0.19 -2.14 0 -2.86 c 0.17 -0.62 0.55 -1.43 0.91 -1.94 c 0.3 -0.42 0.99 -1.1 1.42 -1.39 c 1.59 -1.09 3.74 -1.32 5.51 -0.58 c 1.68 0.7 2.94 2.17 3.43 3.99 c 0.17 0.63 0.18 1.96 0.02 2.61 c -0.52 2.11 -2.04 3.7 -4.13 4.31 c -0.86 0.14 -1.79 0.27 -2.61 0.13 m 2.2 -0.38 c 1.67 -0.35 3.08 -1.47 3.8 -3.04 c 0.32 -0.68 0.45 -1.2 0.49 -1.97 c 0.14 -2.47 -1.38 -4.69 -3.73 -5.47 c -1.32 -0.39 -2.94 -0.26 -4.1 0.3 c -1.35 0.65 -2.36 1.82 -2.82 3.27 c -0.16 0.52 -0.26 1.79 -0.18 2.35 c 0.04 0.26 0.16 0.36 0.16 0.12 c 0 -0.05 0.09 -0.3 0.19 -0.56 c 0.67 -1.68 2.48 -3.23 4.31 -3.71 c 0.24 -0.06 0.29 -0.06 0.36 0.03 c 0.07 0.1 0.11 0.08 0.46 -0.16 c 0.61 -0.41 1.45 -0.73 1.63 -0.62 c 0.09 0.06 0.11 0.32 0.04 0.84 l -0.04 0.38 l 0.16 -0.3 c 0.08 -0.16 0.23 -0.34 0.33 -0.39 c 0.24 -0.13 0.87 -0.22 1.19 -0.18 c 0.39 0.05 0.44 0.15 0.24 0.55 c -0.18 0.38 -0.63 0.9 -0.77 0.9 c -0.13 0 -0.11 0.03 0.18 0.39 c 0.57 0.7 0.86 1.41 0.73 1.86 c -0.11 0.38 -0.38 0.5 -0.38 0.16 c 0 -0.08 -0.05 -0.21 -0.11 -0.28 c -0.15 -0.18 -0.3 -0.12 -0.46 0.19 c -0.1 0.2 -0.16 0.25 -0.31 0.25 c -0.11 0 -0.19 0.03 -0.19 0.08 c 0 0.22 -0.42 0.62 -0.91 0.86 c -0.72 0.36 -1.18 0.45 -1.93 0.42 c -0.77 -0.03 -1.07 -0.15 -1.5 -0.61 c -0.38 -0.4 -0.57 -0.5 -0.91 -0.5 c -0.36 0 -0.69 0.33 -0.84 0.84 c -0.14 0.5 -0.1 1.49 0.09 1.96 c 0.43 1.06 1.32 1.77 2.54 2.04 c 0.52 0.11 1.73 0.11 2.29 0 m -0.45 -2.11 c 0.14 -0.16 0.18 -0.16 0.82 -0.16 c 0.74 0 0.91 -0.06 0.46 -0.16 c -0.5 -0.11 -0.41 -0.2 0.19 -0.2 c 0.45 0 0.56 -0.02 0.71 -0.13 c 0.1 -0.07 0.19 -0.21 0.21 -0.31 c 0.03 -0.13 0.07 -0.18 0.15 -0.16 c 0.18 0.03 0.28 -0.1 0.32 -0.41 c 0.08 -0.62 0.18 -0.69 0.25 -0.17 c 0.06 0.45 0 0.87 -0.52 1.06 c -0.23 0.08 -0.4 0.32 -0.46 0.4 c -0.21 0.25 -0.36 0.29 -1.14 0.3 c -0.41 0 -0.84 0.03 -0.94 0.06 l -0.19 0.05" style="fill:#5678d7"/></svg>