<svg xmlns="http://www.w3.org/2000/svg" viewBox="0 0 16 16"><path d="m 13.79 12.49 c 10.62 -16.1 -21.33 -16.76 -11.91 -0.32 c 2.34 4.09 8.32 5.75 11.91 0.32" style="fill:#01a3ba"/><path d="m 6.13 3.55 h 3.77 c 1.9 0 3.44 1.93 3.44 4.32 v 1.19 c 0 2.39 -1.54 4.32 -3.44 4.32 h -3.77 c -1.9 0 -3.44 -1.93 -3.44 -4.32 v -1.19 c 0 -2.39 1.54 -4.32 3.44 -4.32" style="fill:#fff"/><path d="m 7.4 12.82 c -1.13 -0.31 -2.32 -1.36 -3.47 -3 c -0.43 -0.63 -0.92 -1.46 -1.07 -1.81 l -0.13 -0.31 l 0.03 -1 c 0.03 -1.15 0.08 -1.42 0.35 -1.96 c 0.16 -0.31 0.26 -0.45 0.59 -0.77 c 0.45 -0.43 0.8 -0.66 1.33 -0.83 l 0.35 -0.12 h 2.68 c 3 0 2.87 -0.01 3.54 0.33 c 0.82 0.41 1.44 1.16 1.66 1.99 c 0.06 0.24 0.14 1.44 0.15 2.29 c 0 0.11 -0.09 0.32 -0.34 0.76 c -0.57 1.04 -1.34 2.12 -2.05 2.92 c -0.52 0.58 -1.45 1.24 -2.08 1.47 c -0.36 0.13 -1.17 0.17 -1.53 0.07 m -0.59 -2.11 c 0.39 -0.08 0.59 -0.1 1.29 -0.1 c 0.72 0 0.88 0.02 1.32 0.12 c 0.58 0.13 0.54 0.13 0.54 0.07 c 0 -0.05 -0.49 -0.24 -0.82 -0.31 c -0.17 -0.04 -0.56 -0.06 -1.09 -0.06 c -0.86 0 -1.21 0.05 -1.65 0.23 c -0.23 0.09 -0.33 0.2 -0.16 0.16 c 0.06 -0.02 0.32 -0.07 0.57 -0.13 m -0.48 -2.85 c 0.55 -0.16 1.02 -0.54 1.28 -1.04 c 0.17 -0.33 0.24 -0.66 0.21 -1.07 c -0.02 -0.29 -0.05 -0.41 -0.18 -0.67 c -0.37 -0.73 -1.07 -1.15 -1.89 -1.15 c -0.59 0 -1.03 0.18 -1.46 0.6 c -0.44 0.43 -0.61 0.85 -0.61 1.46 c 0 0.56 0.21 1.04 0.63 1.43 c 0.57 0.53 1.23 0.68 2.03 0.45 m 4.35 0.07 c 0.46 -0.09 0.78 -0.25 1.11 -0.55 c 0.47 -0.43 0.67 -0.95 0.64 -1.64 c -0.02 -0.32 -0.04 -0.43 -0.16 -0.66 c -0.65 -1.29 -2.44 -1.55 -3.43 -0.5 c -0.99 1.05 -0.61 2.69 0.75 3.25 c 0.42 0.18 0.61 0.19 1.1 0.1" style="fill:#99c84e"/><path d="m 5.48 13.35 c -1.34 -0.2 -2.41 -1.17 -2.72 -2.45 c -0.08 -0.34 -0.13 -2.5 -0.06 -2.5 c 0.03 0 0.12 0.13 0.21 0.3 c 0.12 0.25 0.15 0.36 0.15 0.64 c 0 0.52 0.06 0.6 0.28 0.4 l 0.11 -0.11 l 0.18 0.27 c 0.17 0.25 0.18 0.28 0.18 0.68 c 0 0.67 0.08 0.8 0.31 0.5 c 0.06 -0.08 0.14 -0.15 0.17 -0.15 c 0.03 0 0.13 0.09 0.22 0.2 c 0.16 0.2 0.16 0.21 0.19 0.85 c 0.03 0.75 0.08 0.82 0.33 0.51 c 0.36 -0.43 0.26 -0.43 0.8 0.02 c 0.49 0.41 0.86 0.64 1.2 0.76 c 0.11 0.04 0.19 0.08 0.19 0.1 c 0 0.05 -1.38 0.04 -1.72 -0.01 m 3.32 0.02 c 0 -0.02 0.08 -0.07 0.19 -0.11 c 0.33 -0.12 0.71 -0.36 1.2 -0.76 l 0.48 -0.4 l 0.15 0.19 c 0.09 0.11 0.19 0.24 0.23 0.29 c 0.05 0.06 0.11 0.09 0.16 0.07 c 0.06 -0.02 0.08 -0.16 0.1 -0.67 c 0.03 -0.64 0.03 -0.65 0.19 -0.85 c 0.09 -0.11 0.19 -0.2 0.22 -0.2 c 0.03 0 0.11 0.07 0.17 0.15 c 0.22 0.3 0.3 0.17 0.3 -0.5 c 0 -0.4 0.01 -0.43 0.18 -0.68 l 0.18 -0.27 l 0.11 0.11 c 0.22 0.2 0.28 0.12 0.28 -0.4 c 0 -0.29 0.03 -0.39 0.15 -0.64 c 0.08 -0.16 0.18 -0.3 0.21 -0.3 c 0.09 0 0.02 2.23 -0.07 2.57 c -0.33 1.15 -1.28 2.05 -2.4 2.34 c -0.54 0.13 -2.03 0.15 -2.03 0.07 m -2.86 -2.75 c 0.18 -0.16 0.46 -0.36 0.64 -0.45 c 0.81 -0.38 2.02 -0.38 2.83 0 c 0.28 0.13 0.97 0.68 0.92 0.73 c -0.01 0.01 -0.19 -0.06 -0.4 -0.16 c -0.61 -0.28 -1.15 -0.39 -1.93 -0.39 c -0.79 0 -1.32 0.11 -1.93 0.39 c -0.21 0.09 -0.39 0.17 -0.41 0.17 c -0.02 0 0.11 -0.14 0.29 -0.3 m -0.57 -0.69 c 0.18 -0.19 0.77 -0.63 1.08 -0.8 c 0.74 -0.42 1.7 -0.53 2.46 -0.27 c 0.22 0.07 0.5 0.2 0.63 0.27 c 0.31 0.18 0.89 0.61 1.08 0.8 c 0.14 0.16 0.14 0.15 -0.29 -0.07 c -0.79 -0.42 -1.68 -0.67 -2.34 -0.67 c -0.66 0 -1.55 0.25 -2.34 0.67 c -0.43 0.22 -0.43 0.23 -0.29 0.07" style="fill:#6f9b4b"/><path d="m 6.78 12.1 c -0.29 -0.13 -0.34 -0.52 -0.08 -0.72 c 0.18 -0.14 0.39 -0.13 0.57 0.05 c 0.24 0.24 0.18 0.55 -0.13 0.68 c -0.2 0.08 -0.16 0.08 -0.35 0 m 2.1 0 c -0.3 -0.13 -0.36 -0.44 -0.12 -0.68 c 0.17 -0.17 0.38 -0.19 0.57 -0.04 c 0.27 0.21 0.2 0.63 -0.12 0.73 c -0.14 0.07 -0.21 0.04 -0.32 -0.02 m -3.44 -5 c -0.93 -0.24 -1.24 -1.32 -0.57 -2 c 0.73 -0.75 1.97 -0.31 2.04 0.73 c 0.01 0.17 -0.01 0.39 -0.04 0.5 c -0.07 0.23 -0.36 0.55 -0.6 0.67 c -0.21 0.11 -0.61 0.16 -0.82 0.1 m 4.47 -0.05 c -0.46 -0.16 -0.8 -0.62 -0.8 -1.08 c 0 -0.44 0.29 -0.92 0.66 -1.1 c 0.35 -0.16 0.72 -0.18 1.03 -0.05 c 0.46 0.2 0.72 0.59 0.72 1.12 c 0.01 0.54 -0.36 1.01 -0.89 1.16 c -0.27 0.07 -0.4 0.07 -0.72 -0.04" style="fill:#116a36"/><g style="fill:#31cd31"><path d="m 4.48 5.88 c 0.08 -0.59 0.58 -1.12 1.13 -1.2 l 0.11 -0.02 c 0 0.42 0 0.85 0 1.27 c -0.41 0 -0.82 0 -1.23 0"/><path d="m 9.1 5.88 c 0.08 -0.59 0.58 -1.12 1.13 -1.2 l 0.11 -0.02 c 0 0.42 0 0.85 0 1.27 c -0.41 0 -0.82 0 -1.23 0"/></g><g style="fill:#ffd600"><path d="m 5.7 7.24 l 0.31 -0.09 c 0.54 -0.16 0.98 -0.67 0.98 -1.12 v -0.2 c 0.27 0 0.54 0 0.82 0 c -0.03 0.3 -0.14 0.62 -0.25 0.87 c -0.3 0.64 -0.9 1.1 -1.57 1.22 l -0.29 0.05 c 0 -0.26 0 -0.52 0 -0.73"/><path d="m 10.25 7.23 l 0.29 -0.07 c 0.53 -0.13 0.97 -0.56 1.07 -1.04 c 0.05 -0.24 0.09 -0.27 0.5 -0.27 h 0.34 l -0.04 0.27 c -0.13 0.9 -0.92 1.63 -1.97 1.82 l -0.19 0.03 c 0 -0.25 0 -0.49 0 -0.73"/></g></svg>