<svg xmlns="http://www.w3.org/2000/svg" viewBox="0 0 16 16"><path d="m 13.71 3 c 9.98 14.19 -15.98 18.71 -13.41 3.63 c 1.36 -5.99 9.41 -9.31 13.41 -3.63" style="fill:#1a6980"/><path d="m 7.39 13.61 c -1.43 -0.16 -2.79 -0.93 -3.65 -2.06 c -1.04 -1.36 -1.3 -3 -0.76 -4.75 l 0.2 -0.63 c -0.12 -0.12 -0.23 -0.24 -0.35 -0.36 l 0.27 -0.39 c 0.53 -0.77 1.41 -1.56 2.17 -1.93 c 1.63 -0.73 3.46 -0.65 4.84 -0.02 c 1.45 0.68 2.51 1.84 2.96 3.28 c 0.25 0.8 0.3 2.19 0.1 2.94 c -0.49 1.83 -1.85 3.2 -3.68 3.72 c -0.74 0.19 -1.41 0.27 -2.08 0.19 m 5 -4.7 c 0.22 -1.95 -0.79 -3.77 -2.58 -4.64 c -0.73 -0.36 -1.26 -0.47 -2.13 -0.47 c -0.87 0 -1.34 0.09 -1.96 0.39 c -0.6 0.28 -1.09 0.64 -1.45 1.06 c -0.47 0.55 -0.38 0.57 0.53 0.13 c 1.14 -0.5 2.27 -0.68 3.29 -0.34 c 1.67 0.56 2.7 1.89 2.7 3.48 c 0 0.9 -0.32 1.68 -0.93 2.29 c -0.55 0.54 -1.19 0.8 -1.96 0.8 c -1.07 0 -1.93 -0.54 -2.27 -1.43 c -0.25 -0.66 -0.19 -1.31 0.2 -2.07 c 0.23 -0.45 0.2 -0.59 -0.08 -0.39 c -0.21 0.14 -0.59 0.58 -0.71 0.82 c -0.39 0.74 -0.32 1.9 0.17 2.7 c 0.43 0.71 1.34 1.32 2.2 1.46 c 2.5 0.35 4.72 -1.91 4.98 -3.81 m -3.64 1.69 c 0.15 -0.11 0.37 -0.32 0.32 -0.41 c -0.03 -0.06 -0.18 -0.15 -0.42 -0.36 c -0.09 -0.17 0.4 -0.41 0.25 -1.13 c -0.16 -0.53 -0.8 -0.91 -1.34 -0.8 c -0.46 0.11 -0.9 0.43 -1.11 0.83 c -0.39 0.76 0.1 1.81 0.97 2 c 0.48 0.1 1 0.12 1.33 -0.13 m -4.88 -0.63 c 0.01 -0.27 0.19 -1.23 0.29 -1.46 c 0.45 -1.18 1.55 -1.94 2.81 -1.95 c 0.88 0 1.61 0.29 2.38 0.96 c 0.25 0.21 0.46 0.39 0.49 0.39 c 0.13 0 0.1 -0.16 -0.09 -0.55 c -0.3 -0.58 -0.77 -1.04 -1.4 -1.33 c -0.57 -0.27 -0.92 -0.34 -1.54 -0.34 c -0.59 0 -1.1 0.14 -1.59 0.4 c -0.9 0.5 -1.54 1.4 -1.68 2.38 c -0.08 0.56 0.08 1.54 0.25 1.54 c 0.05 0 0.08 -0.02 0.08 -0.04" style="fill:#fff"/></svg>