<svg xmlns="http://www.w3.org/2000/svg" viewBox="0 0 16 16"><path d="m 2.41 3 c -9.98 14.19 15.98 18.7 13.41 3.62 c -1.37 -6 -9.41 -9.31 -13.41 -3.62" style="fill:#e6ecef"/><path d="m 3.48 12.68 c -0.07 -0.06 -0.06 -0.16 0.03 -0.43 c 0.13 -0.39 0.2 -1.01 0.2 -1.66 c 0 -0.65 -0.03 -0.84 -0.3 -2 c -0.07 -0.32 -0.13 -0.61 -0.13 -0.66 c 0 -0.05 0.12 -0.2 0.35 -0.41 c 0.38 -0.36 0.53 -0.61 0.66 -1.07 c 0.1 -0.35 0.1 -1.22 0 -1.71 c -0.07 -0.34 -0.07 -0.38 -0.01 -0.43 c 0.07 -0.07 1.85 -0.66 1.98 -0.66 c 0.1 0 0.17 0.07 0.32 0.34 c 0.16 0.29 0.6 0.73 0.95 0.95 c 0.16 0.11 0.34 0.22 0.39 0.25 l 0.09 0.06 v 3.71 c 0 2.84 -0.01 3.72 -0.05 3.75 c -0.07 0.07 -4.4 0.07 -4.47 0 m 2.27 -0.41 c 0 -0.21 0.07 -0.3 0.2 -0.3 c 0.13 0 0.2 0.1 0.2 0.3 v 0.11 h 1.5 v -1.59 h -0.12 c -0.21 0 -0.32 -0.06 -0.32 -0.19 c 0 -0.13 0.1 -0.19 0.32 -0.19 h 0.12 v -5 l -0.29 -0.18 c -0.45 -0.28 -0.88 -0.71 -1.16 -1.17 c -0.04 -0.06 -0.1 -0.05 -0.79 0.17 c -0.41 0.13 -0.76 0.25 -0.77 0.26 c -0.02 0.02 0 0.2 0.03 0.4 c 0.19 1.23 -0.1 2.25 -0.82 2.89 l -0.21 0.19 l 0.09 0.4 c 0.34 1.43 0.39 1.87 0.33 2.68 c -0.02 0.3 -0.07 0.72 -0.12 0.92 c -0.04 0.2 -0.08 0.37 -0.08 0.39 c 0 0.02 0.42 0.03 0.94 0.03 h 0.95 m 0.04 -0.82 c -0.02 -0.05 -0.04 -0.15 -0.04 -0.21 c 0 -0.06 0.02 -0.15 0.04 -0.21 c 0.04 -0.08 0.06 -0.1 0.17 -0.09 c 0.11 0.01 0.13 0.03 0.16 0.15 c 0.02 0.09 0.02 0.2 0 0.29 c -0.03 0.13 -0.05 0.14 -0.16 0.15 c -0.11 0.01 -0.13 0 -0.17 -0.09 m -1.33 -0.82 c -0.07 -0.03 -0.09 -0.06 -0.08 -0.16 c 0.01 -0.11 0.03 -0.13 0.16 -0.16 c 0.09 -0.02 0.21 -0.02 0.3 0 c 0.13 0.03 0.15 0.05 0.16 0.16 c 0.01 0.1 0 0.13 -0.09 0.16 c -0.13 0.05 -0.32 0.05 -0.45 0 m 0.94 0 c -0.07 -0.03 -0.09 -0.06 -0.08 -0.16 c 0.01 -0.11 0.03 -0.13 0.16 -0.16 c 0.09 -0.02 0.21 -0.02 0.3 0 c 0.13 0.03 0.15 0.05 0.16 0.16 c 0.01 0.1 0 0.13 -0.09 0.16 c -0.13 0.05 -0.32 0.05 -0.45 0 m 0.95 0 c -0.07 -0.03 -0.09 -0.06 -0.08 -0.16 c 0.01 -0.11 0.03 -0.13 0.16 -0.16 c 0.09 -0.02 0.2 -0.02 0.29 0 c 0.13 0.03 0.15 0.05 0.16 0.16 c 0.01 0.1 0 0.13 -0.09 0.16 c -0.13 0.05 -0.32 0.05 -0.45 0 m -0.56 -0.7 c -0.02 -0.05 -0.04 -0.15 -0.04 -0.21 c 0 -0.06 0.02 -0.15 0.04 -0.21 c 0.04 -0.09 0.06 -0.1 0.17 -0.09 c 0.11 0.01 0.13 0.03 0.16 0.16 c 0.02 0.09 0.02 0.2 0 0.28 c -0.03 0.13 -0.05 0.14 -0.16 0.16 c -0.11 0.01 -0.13 0 -0.17 -0.09 m 0 -0.91 c -0.02 -0.05 -0.04 -0.15 -0.04 -0.21 c 0 -0.06 0.02 -0.15 0.04 -0.21 c 0.04 -0.09 0.06 -0.1 0.17 -0.09 c 0.11 0.01 0.13 0.03 0.16 0.16 c 0.02 0.09 0.02 0.2 0 0.28 c -0.03 0.13 -0.05 0.14 -0.16 0.16 c -0.11 0.01 -0.13 0 -0.17 -0.09 m -1.8 -0.82 c -0.07 -0.03 -0.09 -0.06 -0.08 -0.16 c 0.01 -0.11 0.03 -0.13 0.16 -0.16 c 0.09 -0.02 0.2 -0.02 0.29 0 c 0.13 0.03 0.15 0.05 0.16 0.16 c 0.01 0.11 0 0.13 -0.09 0.16 c -0.13 0.04 -0.32 0.04 -0.45 0 m 0.94 0 c -0.07 -0.03 -0.09 -0.06 -0.08 -0.16 c 0.01 -0.11 0.03 -0.13 0.16 -0.16 c 0.09 -0.02 0.21 -0.02 0.3 0 c 0.13 0.03 0.15 0.05 0.16 0.16 c 0.01 0.11 0 0.13 -0.09 0.16 c -0.13 0.04 -0.32 0.04 -0.45 0 m 0.95 0 c -0.07 -0.03 -0.09 -0.06 -0.08 -0.16 c 0.01 -0.11 0.03 -0.13 0.16 -0.16 c 0.09 -0.02 0.2 -0.02 0.3 0 c 0.13 0.03 0.15 0.05 0.16 0.16 c 0.01 0.11 0 0.13 -0.09 0.16 c -0.13 0.04 -0.32 0.04 -0.45 0 m 0.95 0 c -0.07 -0.03 -0.09 -0.06 -0.08 -0.16 c 0.01 -0.11 0.03 -0.13 0.16 -0.16 c 0.09 -0.02 0.2 -0.02 0.29 0 c 0.13 0.03 0.15 0.05 0.16 0.16 c 0.01 0.11 0 0.13 -0.09 0.16 c -0.13 0.04 -0.32 0.04 -0.45 0 m -1.03 -0.7 c -0.02 -0.05 -0.04 -0.15 -0.04 -0.21 c 0 -0.06 0.02 -0.16 0.04 -0.21 c 0.04 -0.08 0.06 -0.1 0.17 -0.09 c 0.11 0.01 0.13 0.03 0.16 0.15 c 0.02 0.09 0.02 0.2 0 0.29 c -0.03 0.13 -0.05 0.14 -0.16 0.15 c -0.11 0.01 -0.13 0 -0.17 -0.09 m 0 -0.91 c -0.02 -0.05 -0.04 -0.15 -0.04 -0.21 c 0 -0.06 0.02 -0.15 0.04 -0.21 c 0.04 -0.08 0.06 -0.1 0.17 -0.09 c 0.11 0.01 0.13 0.03 0.16 0.15 c 0.02 0.09 0.02 0.2 0 0.29 c -0.03 0.13 -0.05 0.14 -0.16 0.15 c -0.11 0.01 -0.13 0 -0.17 -0.09 m 0 -0.91 c -0.02 -0.05 -0.04 -0.15 -0.04 -0.21 c 0 -0.06 0.02 -0.15 0.04 -0.21 c 0.04 -0.08 0.06 -0.1 0.17 -0.09 c 0.11 0.01 0.13 0.03 0.16 0.15 c 0.02 0.09 0.02 0.2 0 0.29 c -0.03 0.13 -0.05 0.14 -0.16 0.15 c -0.11 0.01 -0.13 0 -0.17 -0.09 m 0 -0.91 c -0.02 -0.05 -0.04 -0.15 -0.04 -0.21 c 0 -0.06 0.02 -0.15 0.04 -0.21 c 0.04 -0.08 0.06 -0.1 0.17 -0.09 c 0.11 0.01 0.13 0.03 0.16 0.15 c 0.02 0.09 0.02 0.2 0 0.29 c -0.03 0.13 -0.05 0.14 -0.16 0.15 c -0.11 0.01 -0.13 0 -0.17 -0.09 m 2.88 7.64 c -0.07 -0.07 -0.07 -1.97 0 -2.04 c 0.07 -0.07 3.93 -0.07 4 0 c 0.07 0.07 0.07 1.97 0 2.04 c -0.07 0.06 -3.93 0.06 -4 0 m 1.8 -0.41 c 0 -0.2 0.06 -0.3 0.2 -0.3 c 0.13 0 0.2 0.1 0.2 0.3 v 0.11 h 1.49 v -0.53 h -0.19 c -0.29 0 -0.4 -0.05 -0.4 -0.19 c 0 -0.14 0.11 -0.19 0.4 -0.19 h 0.19 v -0.53 h -1.48 l -0.04 0.12 c -0.03 0.11 -0.05 0.13 -0.17 0.13 c -0.12 0 -0.14 -0.02 -0.17 -0.13 l -0.04 -0.12 h -1.48 v 0.53 h 0.2 c 0.29 0 0.39 0.05 0.39 0.19 c 0 0.14 -0.11 0.19 -0.39 0.19 h -0.2 v 0.53 h 1.5 m -0.5 -0.57 c -0.07 -0.03 -0.09 -0.06 -0.08 -0.16 c 0.01 -0.11 0.03 -0.13 0.16 -0.16 c 0.09 -0.02 0.2 -0.02 0.29 0 c 0.13 0.03 0.15 0.05 0.16 0.16 c 0.01 0.1 0 0.13 -0.09 0.16 c -0.13 0.05 -0.32 0.05 -0.45 0 m 0.94 0 c -0.07 -0.03 -0.09 -0.06 -0.08 -0.16 c 0.01 -0.11 0.03 -0.13 0.16 -0.16 c 0.09 -0.02 0.21 -0.02 0.3 0 c 0.13 0.03 0.15 0.05 0.16 0.16 c 0.01 0.1 0 0.13 -0.09 0.16 c -0.13 0.05 -0.32 0.05 -0.45 0 m -1.95 -2.06 c -0.07 -0.11 -0.68 -4.38 -0.64 -4.51 c 0.02 -0.05 0.13 -0.16 0.25 -0.25 c 0.13 -0.09 0.39 -0.3 0.6 -0.48 c 0.23 -0.2 0.47 -0.38 0.63 -0.45 c 0.24 -0.11 0.28 -0.12 0.71 -0.12 c 0.43 0 0.46 0.01 0.71 0.12 c 0.16 0.07 0.4 0.25 0.63 0.45 c 0.2 0.18 0.47 0.4 0.6 0.48 c 0.13 0.09 0.24 0.2 0.25 0.25 c 0.04 0.13 -0.57 4.4 -0.64 4.51 l -0.05 0.09 h -2.98 m 2.77 -0.46 c 0.01 -0.07 0.14 -0.99 0.3 -2.06 l 0.28 -1.93 l -0.15 -0.11 c -0.08 -0.06 -0.29 -0.23 -0.45 -0.38 c -0.63 -0.54 -0.8 -0.63 -1.25 -0.63 c -0.45 0 -0.62 0.08 -1.25 0.63 c -0.17 0.14 -0.38 0.32 -0.46 0.38 l -0.14 0.11 l 0.28 1.93 c 0.15 1.07 0.29 1.99 0.3 2.06 l 0.02 0.13 h 2.51 m -1.41 -0.36 c -0.02 -0.06 -0.04 -0.15 -0.04 -0.21 c 0 -0.06 0.02 -0.15 0.04 -0.21 c 0.03 -0.09 0.06 -0.1 0.16 -0.09 c 0.11 0.01 0.13 0.03 0.16 0.16 c 0.02 0.09 0.02 0.2 0 0.29 c -0.03 0.12 -0.05 0.14 -0.16 0.15 c -0.11 0.01 -0.13 0 -0.16 -0.09 m 0 -0.91 c -0.02 -0.05 -0.04 -0.15 -0.04 -0.21 c 0 -0.06 0.02 -0.15 0.04 -0.21 c 0.03 -0.09 0.06 -0.1 0.16 -0.09 c 0.11 0.01 0.13 0.03 0.16 0.16 c 0.02 0.09 0.02 0.2 0 0.28 c -0.03 0.13 -0.05 0.14 -0.16 0.16 c -0.11 0.01 -0.13 0 -0.16 -0.09 m 0 -0.91 c -0.02 -0.05 -0.04 -0.15 -0.04 -0.21 c 0 -0.06 0.02 -0.15 0.04 -0.21 c 0.03 -0.09 0.06 -0.1 0.16 -0.09 c 0.11 0.01 0.13 0.03 0.16 0.16 c 0.02 0.09 0.02 0.2 0 0.28 c -0.03 0.13 -0.05 0.14 -0.16 0.16 c -0.11 0.01 -0.13 0 -0.16 -0.09 m 0 -0.91 c -0.02 -0.05 -0.04 -0.15 -0.04 -0.21 c 0 -0.06 0.02 -0.15 0.04 -0.21 c 0.03 -0.09 0.06 -0.1 0.16 -0.09 c 0.11 0.01 0.13 0.03 0.16 0.16 c 0.02 0.09 0.02 0.2 0 0.28 c -0.03 0.13 -0.05 0.14 -0.16 0.16 c -0.11 0.01 -0.13 0 -0.16 -0.09 m -1.33 -0.82 c -0.07 -0.02 -0.09 -0.06 -0.09 -0.15 c 0 -0.14 0.15 -0.21 0.34 -0.16 c 0.09 0.03 0.12 0.05 0.13 0.16 c 0.01 0.1 0 0.13 -0.09 0.16 c -0.13 0.04 -0.17 0.04 -0.29 0 m 0.78 0 c -0.07 -0.03 -0.09 -0.06 -0.08 -0.16 c 0.01 -0.11 0.03 -0.13 0.16 -0.16 c 0.09 -0.02 0.21 -0.02 0.3 0 c 0.13 0.03 0.15 0.05 0.16 0.16 c 0.01 0.11 0 0.13 -0.09 0.16 c -0.13 0.04 -0.32 0.04 -0.45 0 m 0.95 0 c -0.07 -0.03 -0.09 -0.06 -0.08 -0.16 c 0.01 -0.11 0.03 -0.13 0.16 -0.16 c 0.09 -0.02 0.2 -0.02 0.29 0 c 0.13 0.03 0.15 0.05 0.16 0.16 c 0.01 0.11 0 0.13 -0.09 0.16 c -0.13 0.04 -0.32 0.04 -0.45 0 m 0.95 0 c -0.07 -0.02 -0.09 -0.06 -0.09 -0.15 c 0 -0.14 0.15 -0.21 0.33 -0.16 c 0.1 0.03 0.12 0.05 0.13 0.16 c 0.01 0.1 0 0.13 -0.09 0.16 c -0.13 0.04 -0.17 0.04 -0.29 0 m -1.35 -0.55 c -0.02 -0.05 -0.04 -0.15 -0.04 -0.21 c 0 -0.06 0.02 -0.15 0.04 -0.21 c 0.03 -0.08 0.06 -0.1 0.16 -0.09 c 0.11 0.01 0.13 0.03 0.16 0.15 c 0.02 0.09 0.02 0.2 0 0.29 c -0.03 0.13 -0.05 0.14 -0.16 0.15 c -0.11 0.01 -0.13 0 -0.16 -0.09"/></svg>