<svg xmlns="http://www.w3.org/2000/svg" viewBox="0 0 16 16"><path d="m 8.15 15.91 c -1.65 -0.13 -3.58 -0.92 -4.92 -2 c -1.64 -1.33 -2.84 -3.37 -3.16 -5.39 c -0.39 -2.66 1.16 -5.52 2.91 -6.87 c 0.88 -0.66 2.04 -1.18 3.12 -1.41 c 2.83 -0.6 5.79 0.54 7.81 3 c 1.21 1.48 1.84 2.96 2 4.73 c 0.18 2.11 -0.65 4.37 -2.17 5.9 c -1.73 1.44 -3.52 2.21 -5.58 2.07" style="fill:#ff8c00"/><path d="m 7.56 13.1 c -1.27 -0.16 -2.24 -0.61 -3.1 -1.44 c -1.3 -1.26 -1.81 -3 -1.37 -4.79 c 0.69 -2.78 3.56 -4.42 6.34 -3.62 c 1.27 0.37 2.41 1.29 3 2.43 c 0.42 0.8 0.6 1.5 0.59 2.38 c 0 1.39 -0.52 2.62 -1.52 3.59 c -0.74 0.72 -1.59 1.17 -2.57 1.35 c -0.38 0.07 -1.11 0.12 -1.38 0.09 m 0.3 -1.95 c 0.02 -0.03 0.06 -0.12 0.07 -0.19 c 0.02 -0.07 0.06 -0.24 0.1 -0.38 l 0.07 -0.24 l 0.39 0.03 c 0.79 0.06 1.2 -0.13 1.49 -0.68 c 0.15 -0.29 0.17 -0.36 0.17 -0.64 c 0 -0.35 -0.05 -0.48 -0.29 -0.7 l -0.16 -0.15 l 0.22 -0.2 c 0.23 -0.21 0.36 -0.49 0.36 -0.79 c 0 -0.42 -0.27 -0.78 -0.79 -1.04 c -0.23 -0.11 -0.33 -0.18 -0.31 -0.23 c 0.04 -0.11 0.16 -0.64 0.16 -0.73 c 0 -0.11 -0.24 -0.22 -0.47 -0.22 c -0.13 0 -0.16 0.02 -0.18 0.13 c -0.02 0.07 -0.06 0.24 -0.11 0.39 c -0.07 0.26 -0.08 0.27 -0.22 0.26 c -0.08 0 -0.16 -0.02 -0.17 -0.03 c -0.01 -0.01 0.02 -0.19 0.08 -0.41 c 0.07 -0.3 0.09 -0.4 0.04 -0.45 c -0.08 -0.09 -0.48 -0.18 -0.55 -0.12 c -0.03 0.03 -0.1 0.21 -0.14 0.41 c -0.05 0.2 -0.11 0.37 -0.14 0.39 c -0.04 0.01 -0.28 -0.03 -0.54 -0.09 c -0.31 -0.07 -0.5 -0.1 -0.52 -0.07 c -0.05 0.05 -0.16 0.39 -0.16 0.52 c 0 0.08 0.04 0.11 0.24 0.17 c 0.25 0.07 0.38 0.16 0.38 0.26 c 0 0.03 -0.07 0.3 -0.15 0.61 c -0.08 0.3 -0.23 0.87 -0.32 1.25 c -0.09 0.38 -0.19 0.72 -0.22 0.75 c -0.04 0.04 -0.13 0.04 -0.29 0 c -0.28 -0.06 -0.3 -0.05 -0.45 0.33 c -0.07 0.18 -0.09 0.27 -0.05 0.3 c 0.02 0.02 0.26 0.1 0.52 0.17 c 0.26 0.07 0.48 0.13 0.5 0.14 c 0.02 0.02 -0.01 0.18 -0.06 0.37 c -0.05 0.19 -0.09 0.38 -0.09 0.43 c 0 0.18 0.54 0.3 0.62 0.14 c 0.02 -0.04 0.08 -0.22 0.12 -0.4 c 0.08 -0.29 0.09 -0.32 0.2 -0.32 c 0.22 0 0.23 0.04 0.13 0.44 c -0.05 0.2 -0.09 0.4 -0.08 0.44 c 0.02 0.13 0.52 0.23 0.61 0.13 m -0.17 -1.76 c -0.39 -0.09 -0.38 -0.06 -0.19 -0.68 c 0.09 -0.31 0.15 -0.42 0.2 -0.4 c 0.04 0.01 0.21 0.05 0.39 0.1 c 0.59 0.15 0.81 0.31 0.81 0.6 c 0 0.1 -0.04 0.19 -0.13 0.29 c -0.12 0.13 -0.15 0.14 -0.44 0.16 c -0.17 0 -0.45 -0.02 -0.64 -0.07 m 0.43 -1.82 c -0.14 -0.03 -0.27 -0.07 -0.28 -0.07 c -0.02 -0.02 0.14 -0.88 0.18 -0.91 c 0.01 -0.01 0.15 0.01 0.3 0.05 c 0.67 0.18 0.88 0.41 0.69 0.78 c -0.11 0.21 -0.39 0.26 -0.89 0.15" style="fill:#fff"/></svg>