<svg xmlns="http://www.w3.org/2000/svg" viewBox="0 0 16 16"><path d="m 13.66 3 c 9.98 14.19 -15.98 18.71 -13.41 3.63 c 1.37 -5.99 9.41 -9.31 13.41 -3.63" style="fill:#f00"/><path d="m 6.78 14.1 c -0.04 -0.06 -0.14 -0.27 -0.21 -0.47 c -0.08 -0.52 -0.21 -0.38 -0.55 -0.47 c -0.48 -0.13 -0.55 -0.19 -0.6 -0.48 c -0.05 -0.31 -0.11 -0.34 -0.64 -0.34 c -0.31 0 -0.48 -0.02 -0.52 -0.05 c -0.03 -0.03 -0.05 -0.16 -0.05 -0.29 c 0 -0.36 0.08 -1.08 0.13 -1.18 c 0.02 -0.05 0.59 -0.65 1.26 -1.33 c 1.14 -1.18 1.49 -1.57 1.43 -1.63 c -0.04 -0.05 -0.3 0.18 -1.05 0.9 c -1.13 1.09 -1.36 1.27 -2.29 1.73 c -0.78 0.39 -1.35 0.64 -1.46 0.63 c -0.12 -0.02 -0.18 -0.15 -0.3 -0.66 c -0.13 -0.53 0.28 -0.63 -0.4 -0.93 c -0.16 -0.07 -0.19 -0.27 -0.19 -0.3 c 0 -0.04 0.1 -0.2 0.23 -0.38 c 0.25 -0.35 0.27 -0.46 0.16 -0.88 c -0.11 -0.4 -0.09 -0.49 0.14 -0.73 c 0.18 -0.16 0.22 -0.18 0.14 -0.39 c -0.04 -0.1 -0.06 -0.29 -0.06 -0.43 c 0 -0.29 0.05 -0.35 0.51 -0.63 c 0.15 -0.09 0.48 -0.09 0.5 -0.13 c 0.02 -0.05 -0.13 -0.34 -0.11 -0.5 c 0.06 -0.37 0.12 -0.44 0.69 -0.71 c 0.42 -0.2 0.43 -0.2 0.62 -0.49 c 0.22 -0.34 0.26 -0.36 0.72 -0.26 l 0.29 0.06 l 0.26 -0.25 c 0.3 -0.29 0.36 -0.3 0.75 -0.14 c 0.23 0.09 0.2 0.34 0.51 0.08 c 0.37 -0.31 0.48 -0.05 0.52 0.08 c 0.12 0.43 0.21 1.07 0.3 2.1 c 0.1 1.16 0.15 1.47 0.23 1.52 c 0.15 0.09 0.49 -0.31 0.61 -0.72 c 0.04 -0.15 0.13 -0.5 0.19 -0.78 c 0.18 -0.87 0.4 -1.34 0.96 -2.04 c 0.3 -0.38 0.33 -0.39 0.61 -0.26 l 0.17 0.08 c 0.19 -0.1 0.38 -0.3 0.59 -0.32 c 0.16 0.09 0.23 0.26 0.33 0.41 c 0.1 0.16 0.13 0.17 0.45 0.26 c 0.31 0.08 0.8 0.26 0.86 0.32 c 0.02 0.02 0.07 0.17 0.11 0.32 c 0.06 0.27 0.07 0.28 0.21 0.32 c 0.5 0.12 0.48 0.1 0.52 0.5 c 0.04 0.49 0.04 0.5 0.21 0.56 c 0.29 0.11 0.68 0.31 0.7 0.36 c 0.01 0.03 -0.05 0.22 -0.13 0.41 c -0.21 0.38 -0.11 0.54 0.12 0.81 c 0.15 0.17 0.27 0.34 0.27 0.36 c 0 0.03 -0.07 0.2 -0.16 0.39 c -0.19 0.3 -0.16 0.45 0.02 0.69 c 0.29 0.4 0.29 0.39 0.15 0.68 c -0.11 0.21 -0.13 0.3 -0.13 0.55 c 0 0.3 0 0.3 -0.2 0.51 c -0.61 0.11 -0.22 0.3 -0.38 0.73 c -0.19 0.55 -0.31 0.79 -0.42 0.79 c -0.03 0 -0.22 -0.11 -0.42 -0.25 c -0.26 -0.18 -0.43 -0.26 -0.63 -0.31 c -0.33 -0.08 -0.31 -0.07 -1.5 -1.11 c -1.01 -0.89 -1.12 -1 -1.61 -1.71 c -0.47 -0.66 -0.93 -1.24 -0.97 -1.24 c -0.07 0 -0.04 0.16 0.06 0.37 c 0.05 0.11 0.27 0.43 0.48 0.7 c 0.53 0.69 0.76 1.08 1.4 2.36 c 0.09 0.35 0.7 0.93 0.46 1.23 c -0.22 0.27 -0.28 0.4 -0.35 0.76 c -0.1 0.52 -0.11 0.52 -0.55 0.46 c -0.51 -0.07 -0.68 -0.04 -0.95 0.21 l -0.22 0.21 h -0.38 l -0.5 -0.27 l -0.29 0.49 c -0.13 0.22 -0.45 0.23 -0.49 0.23 c -0.05 0 -0.12 -0.05 -0.16 -0.11" style="fill:#007f7f"/><g style="fill:#fff"><path d="m 9.56 12.84 c -0.03 -0.02 -0.16 -0.13 -0.27 -0.24 c -0.21 -0.2 -0.33 -0.26 -0.35 -0.2 c -0.02 0.05 -0.17 0.22 -0.23 0.25 c -0.04 0.02 -0.06 0.02 -0.09 -0.01 c -0.05 -0.05 -0.02 -0.15 0.1 -0.36 c 0.09 -0.15 0.1 -0.19 0.11 -0.36 c 0 -0.11 0 -0.23 0 -0.28 c -0.02 -0.09 -0.03 -0.09 -0.19 -0.12 c -0.13 -0.02 -0.15 -0.09 -0.09 -0.21 c 0.09 -0.18 0.05 -0.6 -0.09 -0.79 c -0.04 -0.06 -0.14 -0.23 -0.23 -0.39 c -0.17 -0.3 -0.46 -0.65 -0.55 -0.65 c -0.03 0 -0.05 0.04 -0.08 0.09 c -0.06 0.15 -0.21 0.93 -0.2 1.03 c 0.01 0.05 0.06 0.17 0.12 0.27 c 0.13 0.23 0.16 0.35 0.1 0.41 c -0.05 0.05 -0.09 0.04 -0.16 -0.07 c -0.06 -0.09 -0.11 -0.12 -0.14 -0.07 c -0.01 0.02 -0.02 0.18 -0.04 0.36 c -0.01 0.18 -0.03 0.37 -0.04 0.43 c -0.03 0.1 -0.09 0.14 -0.17 0.12 c -0.04 -0.01 -0.04 -0.05 -0.04 -0.39 c 0 -0.21 -0.01 -0.4 -0.02 -0.42 c -0.05 -0.13 -0.21 0.02 -0.49 0.43 c -0.09 0.13 -0.52 0.66 -0.52 0.64 c -0.15 -0.24 0.33 -0.71 0.37 -0.8 c 0.02 -0.05 0.18 -0.24 0.35 -0.43 c 0.17 -0.19 0.33 -0.38 0.35 -0.42 c 0.02 -0.04 0.04 -0.15 0.05 -0.24 c 0.02 -0.18 0.09 -0.51 0.16 -0.75 c 0.04 -0.14 0.04 -0.17 0.02 -0.18 c -0.05 -0.02 -0.23 0.04 -0.33 0.11 c -0.11 0.09 -1.02 0.86 -1.11 0.84 c -0.26 -0.04 0.77 -0.95 1.13 -1.16 c 0.24 -0.14 0.38 -0.27 0.43 -0.4 c 0.05 -0.13 0.12 -0.5 0.17 -0.9 c 0.06 -0.48 0.06 -0.64 0.2 -0.64 c 0.06 0 0.11 0.21 0.11 0.23 c 0 0.04 -0.12 1.03 -0.15 1.21 c -0.02 0.12 -0.02 0.2 0 0.24 c 0.01 0.04 0.13 0.18 0.25 0.32 c 0.48 0.54 0.71 0.88 0.71 1.02 c 0 0.12 0.13 0.39 0.22 0.46 c 0.08 0.07 0.12 0.07 0.27 -0.03 c 0.11 -0.08 0.14 -0.06 0.2 0.12 c 0.04 0.13 0.09 0.18 0.25 0.23 c 0.05 0.02 0.12 0.05 0.15 0.08 c 0.06 0.06 0.06 0.16 0 0.2 c -0.08 0.04 -0.32 0.01 -0.5 -0.08 c -0.27 -0.13 -0.3 -0.11 -0.27 0.21 c 0.03 0.25 0.09 0.36 0.35 0.67 c 0.11 0.14 0.24 0.3 0.28 0.38 c 0.11 0.19 0.07 0.32 -0.07 0.22"/><path d="m 2.68 10.55 c -0.07 -0.2 0.15 -0.8 0.41 -1.08 c 0.23 -0.25 1.06 -0.95 1.22 -1.02 c 0.05 -0.03 0.09 -0.11 0.07 -0.16 c -0.01 -0.02 -0.04 -0.03 -0.09 -0.03 c -0.09 0 -1.01 0.18 -1.19 0.23 c -0.14 0.04 -0.34 0.18 -0.5 0.36 c -0.18 0.2 -0.18 0.31 0.03 0.38 c 0.13 0.04 0.22 0.12 0.21 0.18 c -0.01 0.06 -0.13 0.07 -0.26 0.01 c -0.09 -0.04 -0.19 -0.04 -0.29 -0.07 c -0.05 -0.03 -0.11 -0.14 -0.11 -0.21 c 0 -0.11 0.15 -0.33 0.35 -0.52 c 0.38 -0.38 0.4 -0.39 0.41 -0.48 c 0.04 -0.2 -0.18 -0.5 0.26 -0.05 c 0.2 0.16 0.79 0.04 1.09 -0.03 c 0.31 -0.05 0.66 -0.14 0.88 -0.25 c 0.48 -0.25 1.2 -0.5 1.55 -0.55 c 0.12 -0.02 0.22 -0.04 0.23 -0.05 c 0.03 -0.02 -0.03 -0.12 -0.13 -0.21 c -0.13 -0.13 -0.31 -0.24 -0.44 -0.28 c -0.13 -0.04 -1.12 -0.03 -1.14 -0.14 c -0.04 -0.18 0.78 -0.22 1.18 -0.13 c 0.03 0.01 0.14 0.09 0.25 0.17 c 0.2 0.16 0.44 0.31 0.51 0.31 c 0.03 0 0.04 -0.01 0.02 -0.07 c -0.06 -0.29 -0.37 -1.18 -0.51 -1.45 c -0.13 -0.26 -0.3 -0.42 -0.41 -0.38 c -0.1 0.12 -0.1 0.43 -0.24 0.44 c -0.16 0 -0.19 -0.15 -0.08 -0.42 c 0.08 -0.2 0.22 -0.36 0.31 -0.36 c 0.14 0 0.34 0.18 0.51 0.43 c 0.24 0.38 0.58 1.25 0.58 1.47 c 0 0.13 0.05 0.39 0.11 0.54 c 0.03 0.07 0.04 0.13 0.04 0.13 c -0.41 0.51 -0.41 0.08 -0.55 0.17 c -0.28 0.11 -0.59 0.15 -0.82 0.23 c -0.13 0.05 -0.27 0.1 -0.32 0.11 c -0.18 0.05 -0.86 0.48 -1.39 0.89 c -0.61 0.47 -1.26 1.07 -1.37 1.26 c -0.03 0.05 -0.06 0.14 -0.07 0.19 c -0.03 0.19 -0.19 0.49 -0.26 0.49 c -0.02 0 -0.04 -0.02 -0.04 -0.04"/><path d="m 13.29 11.25 c -0.2 -0.28 -0.22 -0.34 -0.29 -0.6 c 0.03 -0.26 0.02 -0.36 -0.05 -0.39 c -0.05 -0.02 -0.16 0.07 -0.21 0.17 c -0.09 0.18 -0.04 0.37 0.15 0.6 c 0.14 0.14 0.02 0.11 -0.09 0.09 c -0.18 -0.03 -0.19 -0.04 -0.3 -0.25 c -0.1 -0.19 -0.09 -0.33 0.04 -0.5 c 0.11 -0.15 0.25 -0.45 0.25 -0.54 c 0 -0.21 -0.14 -0.37 -0.61 -0.65 c -0.4 -0.24 -0.61 -0.39 -0.89 -0.63 c -0.35 -0.33 -0.82 -0.52 -1.21 -0.68 c -0.28 -0.11 -0.92 -0.26 -1.33 -0.31 c -0.32 -0.22 -0.64 -0.21 -0.56 -0.38 c 0.06 -0.12 0.43 -0.09 0.46 -0.29 c 0.02 -0.15 0.03 -0.16 0.18 -0.31 c 0.18 -0.2 0.26 -0.3 0.46 -0.64 c 0.21 -0.36 0.34 -0.67 0.39 -0.92 c 0.03 -0.13 0.08 -0.29 0.13 -0.4 c 0.08 -0.18 0.09 -0.22 0.11 -0.48 c 0.03 -0.32 0.06 -0.43 0.13 -0.43 c 0.09 0 0.13 0.08 0.12 0.23 c -0.01 0.19 0.02 0.19 0.2 0.01 c 0.12 -0.16 0.38 -0.32 0.39 -0.09 l -0.17 0.2 c -0.36 0.43 -0.65 0.86 -0.61 0.9 c 0.03 0.03 0.24 -0.1 0.51 -0.32 c 0.14 -0.12 0.34 -0.26 0.44 -0.32 c 0.14 -0.09 0.18 -0.1 0.21 -0.08 c 0.02 0.02 0.04 0.04 0.04 0.04 c 0 0.02 -0.49 0.48 -0.68 0.65 c -0.08 0.07 -0.23 0.19 -0.33 0.26 c -0.26 0.19 -0.34 0.29 -0.51 0.62 c -0.13 0.25 -0.25 0.44 -0.52 0.84 c -0.08 0.12 -0.07 0.15 0.02 0.15 c 0.09 0 0.4 -0.17 0.84 -0.46 c 0.54 -0.54 0.77 -1.04 1.29 -1.51 c 0.14 -0.13 0.32 -0.1 0.64 -0.18 c 0.26 -0.07 0.36 -0.05 0.36 0.05 c 0 0.03 0.02 0.08 0.04 0.12 c 0.08 0.13 -0.08 0.1 -0.15 0.1 c -0.24 0 -0.77 0.1 -0.89 0.17 c -0.3 0.25 -0.45 0.6 -0.66 0.91 c -0.05 0.08 -0.1 0.14 -0.1 0.15 c 0 0.02 0.39 -0.01 0.7 -0.04 c 0.25 -0.03 0.36 -0.07 0.48 -0.22 c 0.19 -0.22 0.53 -0.43 0.75 -0.46 c 0.5 -0.22 0.59 -0.12 0.34 0.29 h -0.23 c -0.21 0 -0.24 0 -0.36 0.07 c -0.17 0.09 -0.37 0.29 -0.35 0.35 c 0.03 0.09 0.63 0.29 0.86 0.29 c 0.06 0 0.2 -0.02 0.3 -0.04 c 0.21 -0.04 0.38 -0.03 0.45 0.03 c 0.05 0.04 0.02 0.06 -0.16 0.12 c -0.25 0.07 -0.32 0.2 -0.19 0.32 c 0.08 0.08 0.11 0.17 0.06 0.21 c -0.04 0.04 -0.09 0.02 -0.25 -0.12 c -0.23 -0.19 -0.89 -0.46 -1.3 -0.54 c -0.29 -0.05 -0.89 -0.03 -1.2 0.05 c -0.16 0.04 -0.38 0.14 -0.72 0.34 c -0.14 0.08 -0.38 0.2 -0.52 0.27 c -0.33 0.15 -0.33 0.15 -0.3 0.2 c 0.05 0.09 0.16 0.13 0.39 0.14 c 0.27 0.01 0.41 -0.02 0.59 -0.13 c 0.15 -0.09 0.21 -0.11 0.25 -0.06 c 0.04 0.04 0.01 0.09 -0.1 0.2 c -0.13 0.13 -0.09 0.21 0.12 0.25 c 0.07 0.01 0.3 0.1 0.51 0.2 c 0.31 0.14 0.4 0.17 0.49 0.17 c 0.13 0 0.59 -0.13 0.87 -0.25 c 0.26 -0.11 0.34 -0.11 0.62 -0.04 c 0.27 0.07 0.48 0.07 0.95 0.03 c 0.32 -0.03 0.37 -0.02 0.38 0.07 c 0.01 0.05 -0.04 0.09 -0.29 0.24 c -0.25 0.16 -0.22 0.15 -0.45 0.08 c -0.32 -0.11 -0.45 -0.13 -0.79 -0.13 c -0.35 0 -0.6 0.05 -0.83 0.15 c -0.11 0.05 -0.12 0.06 -0.12 0.13 c 0 0.06 0.02 0.09 0.14 0.21 c 0.2 0.19 0.42 0.34 0.57 0.4 c 0.07 0.03 0.2 0.08 0.27 0.12 c 0.18 0.09 0.22 0.09 0.44 0 c 0.31 -0.12 0.5 -0.13 0.56 -0.04 c 0.04 0.05 -0.04 0.11 -0.22 0.17 c -0.18 0.05 -0.32 0.13 -0.32 0.16 c -0.01 0.09 0.02 0.2 0.16 0.56 c 0.09 0.24 0.16 0.47 0.18 0.57 c 0.2 0.71 0.05 1.37 -0.02 0.77"/><path d="m 2.66 6.58 c -0.02 -0.08 0.01 -0.15 0.09 -0.2 c 0.04 -0.03 0.14 -0.11 0.23 -0.18 c 0.23 -0.2 0.25 -0.21 0.61 -0.23 c 0.27 -0.02 0.32 -0.03 0.35 -0.07 c 0.04 -0.06 0.02 -0.18 -0.04 -0.25 c -0.21 -0.13 -0.37 -0.14 -0.59 -0.17 c -0.23 -0.14 -0.16 -0.32 0.09 -0.28 c 0.14 0 0.39 0.16 0.47 0.05 c 0.04 -0.2 -0.04 -0.42 0.07 -0.55 c 0 -0.01 0.19 0.13 0.22 0.14 c 0.04 0.02 0.11 0.01 0.25 -0.04 c 0.3 -0.1 0.37 -0.15 0.37 -0.24 c 0 -0.09 -0.06 -0.28 -0.11 -0.34 c -0.17 -0.39 0.14 -0.23 0.19 -0.14 c 0.07 0.12 0.16 0.36 0.16 0.43 c 0 0.11 0.08 0.18 0.36 0.32 c 0.21 0.11 0.27 0.15 0.28 0.2 c 0 0.04 -0.01 0.06 -0.05 0.09 c -0.05 0.03 -0.09 0.02 -0.21 -0.03 c -0.28 -0.11 -0.83 -0.12 -1 -0.02 c -0.16 0.09 -0.31 0.28 -0.36 0.45 c -0.02 0.07 -0.01 0.09 0.09 0.21 c 0.11 0.13 0.2 0.36 0.17 0.44 c -0.03 0.07 -0.14 0.08 -0.46 0.02 c -0.38 -0.07 -0.38 -0.07 -0.68 0.18 c -0.3 0.25 -0.45 0.31 -0.48 0.2"/><path d="m 2.91 7.55 c -0.05 -0.03 -0.34 -0.1 -0.21 -0.18 c 0.07 -0.04 0.56 -0.14 0.71 -0.14 c 0.21 0 0.21 0.06 0.02 0.21 c -0.14 0.11 -0.48 0.13 -0.51 0.11"/><path d="m 3.77 7.23 c -0.05 -0.05 0.07 -0.11 0.11 -0.18 c 0.04 -0.06 0.16 -0.07 0.23 -0.02 c 0.05 0.04 0.05 0.07 -0.02 0.16 c -0.07 0.09 -0.27 0.11 -0.32 0.05"/><path d="m 4.34 7 c -0.09 -0.09 0.13 -0.29 0.3 -0.29 c 0.05 0 0.27 -0.18 0.27 0.01 c 0 0.08 -0.3 0.22 -0.44 0.27 c -0.09 0.03 -0.11 0.04 -0.13 0.01"/><path d="m 10.15 8.69 c 0.02 -0.06 -0.01 -0.41 0.13 -0.3 c 0.07 0.06 0.18 0.44 0.39 0.75 c 0.14 0.2 0 0.26 -0.23 0.09 c -0.16 -0.12 -0.3 -0.49 -0.29 -0.54"/></g></svg>