<svg xmlns="http://www.w3.org/2000/svg" viewBox="0 0 16 16"><path d="m 1.87 10.84 c -0.76 -0.96 -1.53 -2.79 -1.63 -3.87 c -0.15 -1.57 0.38 -3.38 1.3 -4.46 c 1.24 -1.45 3.75 -2.42 6.27 -2.4 c 1.81 0.01 4.23 0.55 5.47 1.21 c 1.05 0.57 1.81 1.4 2.23 2.46 c 0.57 1.43 0.61 2.83 0.11 4.22 c -0.8 2.98 -2.66 4.99 -4.33 6.59 c -4.23 3.59 -7.09 -0.75 -9.41 -3.74" style="fill:#0027b7"/><g style="fill:#fff"><path d="m 4.09 5.64 c -0.32 -0.52 -0.38 -0.66 -0.3 -0.71 c 0.09 -0.06 8.28 -0.04 8.34 0.02 c 0.04 0.04 -0.22 0.59 -0.38 0.8 l -0.1 0.13 h -7.41"/><path d="m 7.29 11.23 c -1.46 -2.52 -2.48 -4.32 -2.45 -4.35 c 0.05 -0.05 6.24 -0.07 6.29 -0.02 c 0.05 0.04 -0.64 1.3 -2.07 3.81 c -0.86 1.5 -1 1.73 -1.05 1.73 c -0.02 0 -0.34 -0.53 -0.71 -1.18 m 1.28 -1.74 c 0.65 -1.13 0.86 -1.52 0.82 -1.58 c -0.02 -0.03 -0.52 -0.05 -1.4 -0.05 c -1.23 0 -1.36 0.01 -1.36 0.08 c 0 0.11 0.96 1.83 1.29 2.31 c 0.12 0.18 0.1 0.2 0.66 -0.76"/></g></svg>