<svg xmlns="http://www.w3.org/2000/svg" viewBox="0 0 16 16"><path d="m 13.71 3 c 9.98 14.19 -15.98 18.71 -13.41 3.63 c 1.36 -5.99 9.41 -9.31 13.41 -3.63" style="fill:#f4f4f4"/><path d="m 3.64 9.77 c -0.05 -0.11 0.36 -1.75 0.46 -1.84 c 0.12 -0.1 0.38 -0.08 0.41 0.04 c 0.02 0.06 -0.07 0.5 -0.19 0.97 c -0.21 0.83 -0.22 0.86 -0.43 0.89 c -0.12 0.01 -0.23 -0.01 -0.25 -0.06 m 8.66 -0.02 c -0.02 -0.05 0.16 -0.49 0.42 -0.97 l 0.46 -0.87 l 0.48 -0.01 c 0.3 -0.01 0.51 0.02 0.54 0.09 c 0.05 0.08 0.21 1.35 0.21 1.66 c 0 0.17 -0.45 0.14 -0.53 -0.04 c -0.06 -0.14 -0.09 -0.29 -0.21 0.04 c -0.07 0.2 -0.2 0.2 -0.74 0.2 c -0.36 0 -0.62 -0.04 -0.64 -0.09 m 1.54 -0.63 c 0.04 -0.12 0 -0.76 -0.06 -0.99 c -0.02 -0.09 -0.05 -0.09 -0.13 -0.02 c -0.16 0.18 -0.45 0.87 -0.41 1 c 0.05 0.16 0.55 0.17 0.6 0.01 m -11.88 0.44 c -0.04 -0.21 -0.18 -2 -0.18 -2.23 c 0 -0.11 0.05 -0.15 0.2 -0.15 c 0.11 0 0.21 0.03 0.23 0.07 c 0.02 0.04 0.07 0.41 0.11 0.84 c 0.04 0.42 0.1 0.8 0.13 0.84 c 0.04 0.04 0.16 -0.1 0.29 -0.34 c 0.12 -0.23 0.35 -0.63 0.5 -0.91 l 0.29 -0.5 h 0.57 c 0.07 0 -0.04 0.14 0.16 -0.01 c 0.14 -0.12 0.4 0.01 0.42 0.16 c 0.03 0.31 -0.49 0.52 -0.52 0.18 c -0.03 -0.29 -0.07 -0.16 -0.11 -0.14 c -0.04 0.02 -0.36 0.56 -0.7 1.21 l -0.63 1.18 h -0.36 c -0.32 0 -0.37 -0.02 -0.39 -0.2 m 2.56 0.13 c -0.02 -0.04 0 -0.15 0.03 -0.26 c 0.05 -0.18 0.1 -0.19 0.55 -0.19 c 0.53 0 0.7 -0.08 0.63 -0.29 c -0.02 -0.09 -0.12 -0.14 -0.27 -0.14 c -0.44 0 -0.76 -0.34 -0.7 -0.74 c 0.03 -0.23 0.34 -0.25 0.49 -0.04 c 0.09 0.13 0.21 0.18 0.42 0.18 c 0.6 0 0.84 0.74 0.42 1.28 c -0.2 0.26 -0.22 0.27 -0.87 0.27 c -0.36 0 -0.68 -0.03 -0.69 -0.07 m 1.84 -0.17 c 0 -0.13 0.09 -0.54 0.19 -0.92 c 0.16 -0.63 0.2 -0.69 0.37 -0.71 c 0.11 -0.02 0.22 0 0.25 0.05 c 0.05 0.07 -0.2 1.52 -0.31 1.74 c -0.02 0.05 -0.14 0.09 -0.27 0.09 c -0.21 0 -0.23 -0.02 -0.23 -0.24 m 0.8 0.09 c 0 -0.28 0.53 -2.37 0.62 -2.44 c 0.12 -0.1 1.22 -0.09 1.43 0.01 c 0.35 0.17 0.29 0.96 -0.13 1.78 c -0.31 0.61 -0.64 0.8 -1.37 0.8 c -0.48 0 -0.55 -0.02 -0.55 -0.15 m 1.21 -0.66 c 0.26 -0.22 0.51 -0.82 0.45 -1.04 c -0.05 -0.16 -0.62 -0.19 -0.7 -0.03 c -0.07 0.14 -0.29 1.02 -0.29 1.16 c 0 0.18 0.29 0.13 0.54 -0.1 m 0.54 0.74 c 0 -0.11 0.86 -1.68 0.96 -1.75 c 0.09 -0.06 0.96 -0.05 1.02 0.02 c 0.04 0.05 0.18 1.3 0.18 1.59 c 0 0.17 -0.04 0.21 -0.2 0.21 c -0.13 0 -0.23 -0.07 -0.29 -0.19 l -0.1 -0.19 l -0.08 0.19 c -0.08 0.18 -0.13 0.19 -0.79 0.19 c -0.39 0 -0.7 -0.03 -0.7 -0.07 m 1.59 -0.57 c 0.05 -0.19 -0.04 -1.07 -0.12 -1.07 c -0.1 0 -0.55 0.95 -0.5 1.08 c 0.05 0.17 0.57 0.16 0.62 -0.01 m 0.95 0.6 c -0.05 -0.06 0.27 -1.59 0.36 -1.74 c 0.08 -0.12 0.43 -0.14 0.48 -0.04 c 0.02 0.04 -0.05 0.46 -0.15 0.93 l -0.18 0.85 l -0.23 0.03 c -0.13 0.01 -0.25 0 -0.28 -0.03 m -6.54 -2.1 c -0.02 -0.04 0.04 -0.16 0.14 -0.26 c 0.15 -0.15 0.27 -0.18 0.81 -0.18 c 0.56 0 0.63 0.02 0.63 0.15 c 0 0.3 -0.14 0.36 -0.85 0.36 c -0.38 0 -0.71 -0.04 -0.73 -0.08 m 1.89 0.01 c -0.13 -0.27 0.2 -0.63 0.46 -0.5 c 0.12 0.06 0.13 0.32 0.02 0.46 c -0.09 0.12 -0.43 0.14 -0.48 0.04 m 3.25 -0.04 c 0 -0.27 0.18 -0.42 0.48 -0.39 c 0.26 0.02 0.29 0.05 0.29 0.24 c 0 0.2 -0.02 0.21 -0.39 0.24 c -0.28 0.02 -0.38 0 -0.38 -0.09 m 1.25 0.04 c -0.02 -0.04 0 -0.15 0.03 -0.26 c 0.05 -0.18 0.09 -0.19 0.83 -0.19 c 0.7 0 0.78 0.02 0.78 0.15 c 0 0.3 -0.14 0.36 -0.89 0.36 c -0.39 0 -0.73 -0.03 -0.75 -0.07 m 2.11 -0.03 c 0 -0.28 0.15 -0.42 0.43 -0.42 c 0.24 0 0.3 0.03 0.33 0.19 c 0.02 0.1 0.02 0.22 0 0.26 c -0.05 0.11 -0.77 0.09 -0.77 -0.02"/></svg>