<svg xmlns="http://www.w3.org/2000/svg" viewBox="0 0 16 16"><path d="m 3.65 1.96 c 6.18 -5.53 15.1 1.76 11.45 8.97 c -3.73 7.29 -16 6.56 -15 -2.06 c 0.4 -3.14 2.13 -5.34 3.55 -6.91" style="fill:#4092d8"/><path d="m 7.21 12.65 c -0.57 -0.1 -1.14 -0.32 -1.61 -0.6 c -0.09 -0.05 -2.05 1.26 -2.46 0.98 c -0.25 -0.33 0.85 -2.48 0.8 -2.62 c -0.36 -0.79 -0.68 -1.54 -0.68 -2.47 c 0 -0.6 0.07 -1.06 0.25 -1.56 c 0.57 -1.63 2.02 -2.86 3.71 -3.15 c 0.45 -0.08 1.29 -0.08 1.74 0 c 1.94 0.33 3.55 1.93 3.89 3.85 c 0.08 0.44 0.08 1.28 0 1.72 c -0.34 1.92 -1.95 3.52 -3.89 3.86 c -0.43 0.07 -1.35 0.07 -1.75 0 m 1.32 -2.62 c 0.05 -0.05 0.07 -0.17 0.09 -0.5 c 0.02 -0.35 0.04 -0.43 0.09 -0.47 c 0.12 -0.07 0.41 0.11 0.91 0.61 l 0.46 0.46 c 0.26 0.05 0.71 0.05 1.03 -0.04 c 0.1 -0.06 0.07 -0.27 -0.09 -0.5 c -0.08 -0.12 -0.31 -0.39 -0.51 -0.61 c -0.55 -0.61 -0.54 -0.5 -0.14 -1.09 c 0.62 -0.94 0.77 -1.3 0.58 -1.4 c -0.1 -0.05 -0.82 -0.05 -0.96 0 c -0.07 0.02 -0.15 0.14 -0.29 0.41 c -0.3 0.61 -0.7 1.18 -0.91 1.29 c -0.08 0.04 -0.11 0.04 -0.16 0 c -0.05 -0.04 -0.06 -0.18 -0.06 -0.86 c 0 -0.76 0 -0.8 -0.08 -0.84 c -0.05 -0.03 -0.31 -0.04 -0.68 -0.04 c -0.72 0.02 -0.76 0.04 -0.58 0.35 c 0.11 0.2 0.11 0.21 0.11 0.93 c 0 0.65 -0.01 0.73 -0.07 0.76 c -0.18 0.07 -0.75 -0.8 -1.07 -1.63 c -0.15 -0.4 -0.19 -0.42 -0.74 -0.42 c -0.36 0 -0.42 0.01 -0.49 0.08 c -0.06 0.06 -0.07 0.11 -0.05 0.19 c 0.16 0.75 0.82 1.95 1.4 2.57 c 0.37 0.4 0.86 0.68 1.42 0.82 c 0.05 0.01 0.23 0.02 0.4 0.01 c 0.23 -0.01 0.34 -0.03 0.39 -0.08" style="fill:#fff"/></svg>