<svg xmlns="http://www.w3.org/2000/svg" viewBox="0 0 16 16"><path d="m 8 0.17 c 10.7 -1.2 10.55 15.92 -0.19 15.71 c -9.99 0.56 -10.89 -16.64 0.19 -15.71" style="fill:#46cfcc"/><path d="m 6.73 2.57 h 2.64 c 0.57 0 1.03 0.35 1.03 0.77 v 9.37 c 0 0.43 -0.46 0.77 -1.03 0.77 h -2.64 c -0.57 0 -1.04 -0.35 -1.04 -0.77 v -9.37 c 0 -0.43 0.46 -0.77 1.04 -0.77" style="fill:#77767a"/><path d="m 5.73 4.52 h 4.49 c 0.57 0 1.03 0.35 1.03 0.78 v 5.41 c 0 0.43 -0.46 0.78 -1.03 0.78 h -4.49 c -0.57 0 -1.04 -0.35 -1.04 -0.78 v -5.41 c 0 -0.43 0.46 -0.78 1.04 -0.78" style="fill:#344fa3"/><path d="m 5.17 12 c -0.13 -0.05 -0.29 -0.12 -0.35 -0.16 c -0.14 -0.09 -0.54 -0.59 -0.65 -0.8 c -0.14 -0.28 -0.2 -2.52 -0.12 -4.78 l 0.04 -1.06 c 0.22 -0.52 0.61 -1 1.06 -1.18 l 0.29 -0.11 h 2.55 c 2.53 0 2.55 0 2.82 0.11 c 0.59 0.32 0.81 0.64 1.05 1.19 v 2.87 c 0 2.3 -0.01 2.89 -0.06 2.98 c -0.27 0.39 -0.63 0.82 -0.99 0.94 c -0.31 0.11 -0.34 0.11 -2.86 0.11 c -2.31 0 -2.57 -0.01 -2.78 -0.09 m 5.66 -1.06 c 0.06 -0.04 0.14 -0.13 0.19 -0.2 c 0.09 -0.13 0.09 -0.25 0.09 -2.8 c 0 -2.87 0.01 -2.79 -0.25 -2.96 c -0.13 -0.09 -0.24 -0.09 -2.88 -0.09 c -2.68 0 -2.75 0 -2.9 0.09 c -0.29 0.18 -0.29 0.15 -0.27 3.05 l 0.02 2.63 l 0.11 0.13 c 0.06 0.07 0.15 0.14 0.2 0.16 c 0.05 0.02 1.33 0.04 2.84 0.04 c 2.15 0 2.77 -0.01 2.86 -0.06" style="fill:#221e2f"/><g style="fill:#fff"><path d="m 5.28 8 c -0.09 -0.17 0.17 -0.29 0.48 -0.23 c 0.13 0.02 0.24 0.14 0.18 0.24 c -0.18 0.11 -0.52 0.15 -0.67 -0.01"/><path d="m 5.66 9.43 c -0.02 -0.02 -0.05 -0.05 -0.06 -0.07 c -0.02 -0.04 -0.02 -0.06 0.01 -0.11 c 0.11 -0.11 0.21 -0.19 0.32 -0.08 c 0.04 0.05 0.04 0.06 0.02 0.12 c -0.05 0.13 -0.21 0.2 -0.29 0.14"/><path d="m 6.62 10.41 c -0.11 -0.05 -0.11 -0.18 -0.01 -0.27 c 0.09 -0.08 0.14 -0.09 0.2 -0.03 c 0.08 0.08 0.07 0.16 -0.04 0.28 c -0.05 0.05 -0.08 0.06 -0.15 0.02"/><path d="m 7.87 10.71 c -0.07 -0.07 -0.09 -0.2 -0.05 -0.4 c 0.03 -0.22 0.07 -0.28 0.21 -0.26 c 0.12 0.11 0.12 0.48 0.05 0.64 c -0.04 0.07 -0.14 0.08 -0.21 0.01"/><path d="m 7.91 5.86 c -0.07 -0.04 -0.1 -0.14 -0.1 -0.32 c 0 -0.27 0.07 -0.4 0.21 -0.38 c 0.13 0.11 0.09 0.32 0.07 0.52 l -0.02 0.2 c -0.06 0.01 -0.12 0 -0.17 -0.02"/><path d="m 6.68 5.87 c -0.05 -0.02 -0.13 -0.12 -0.14 -0.2 c -0.02 -0.07 0.07 -0.16 0.16 -0.16 c 0.1 0.04 0.18 0.18 0.14 0.26 c -0.04 0.08 -0.1 0.11 -0.16 0.09"/><path d="m 5.73 6.8 c -0.07 -0.03 -0.13 -0.11 -0.13 -0.16 c 0 -0.05 0.1 -0.16 0.15 -0.16 c 0.07 0 0.2 0.15 0.2 0.22 c 0 0.1 -0.11 0.15 -0.22 0.1"/><path d="m 9.14 5.82 c -0.05 -0.04 -0.05 -0.06 -0.04 -0.11 c 0.03 -0.14 0.2 -0.22 0.27 -0.14 c 0.05 0.04 0.04 0.11 -0.02 0.21 c -0.05 0.1 -0.12 0.12 -0.21 0.05"/><path d="m 10.1 6.78 c -0.11 -0.08 -0.04 -0.23 0.13 -0.29 c 0.2 -0.02 0.17 0.22 0.06 0.29 c -0.09 0.05 -0.12 0.05 -0.19 0"/><path d="m 10.1 9.39 c -0.08 -0.07 -0.1 -0.16 -0.06 -0.23 c 0.05 -0.09 0.13 -0.08 0.24 0.01 c 0.1 0.09 0.11 0.14 0.04 0.22 c -0.07 0.07 -0.14 0.07 -0.22 0"/><path d="m 9.24 10.39 c -0.06 -0.03 -0.15 -0.14 -0.15 -0.2 c 0 -0.05 0.11 -0.14 0.17 -0.14 c 0.05 0 0.13 0.13 0.14 0.23 c 0.01 0.07 0 0.09 -0.05 0.1 c -0.03 0.01 -0.05 0.02 -0.06 0.02 c -0.02 -0.01 -0.03 -0.02 -0.05 -0.02"/><path d="m 10.46 8.11 c 0.07 -0.01 0.12 -0.04 0.16 -0.09 c 0.09 -0.17 -0.17 -0.29 -0.48 -0.23 c -0.13 0.02 -0.25 0.13 -0.19 0.24 c 0.12 0.13 0.35 0.09 0.51 0.07"/><path d="m 7 8.97 l -0.11 -0.11 c -0.1 0.15 -0.24 0.31 -0.37 0.25 c -0.12 -0.06 -0.14 -0.16 -0.14 -0.61 c 0 -0.6 0 -0.59 0.62 -0.59 c 0.51 0 0.56 0.02 0.56 0.2 c -0.01 0.16 -0.13 0.25 -0.28 0.28 c -0.07 0.01 -0.11 0.03 -0.11 0.06 c 0 0.07 0.25 0.29 0.43 0.38 c 0.34 0.16 0.64 0.09 1.03 -0.27 c 0.23 -0.21 0.29 -0.24 0.36 -0.22 c 0.22 0.07 0.19 0.3 -0.07 0.57 c -0.16 0.16 -0.44 0.33 -0.64 0.38 c -0.45 0.09 -0.95 -0.01 -1.3 -0.33"/></g><path d="m 8.43 7.92 c -0.2 -0.09 -0.11 -0.35 0.13 -0.39 c 0.2 -0.03 0.22 -0.09 0.09 -0.23 c -0.18 -0.2 -0.4 -0.3 -0.7 -0.3 c -0.28 0 -0.47 0.11 -0.68 0.3 c -0.29 0.27 -0.37 0.3 -0.46 0.18 c -0.09 -0.12 -0.06 -0.24 0.14 -0.48 c 0.17 -0.2 0.57 -0.43 0.85 -0.47 c 0.34 -0.05 0.75 0.08 1.09 0.37 l 0.16 0.14 l 0.05 -0.13 c 0.07 -0.14 0.14 -0.19 0.26 -0.16 c 0.21 0.19 0.25 0.89 0.12 1.16 c -0.27 0.05 -0.74 0.16 -1.05 0.03" style="fill:#ff8c00"/></svg>