<svg xmlns="http://www.w3.org/2000/svg" viewBox="0 0 16 16"><path d="m 0.35 9.81 c 0.98 6.39 9.66 8.1 13.48 3.54 c 3.37 -3.39 2.54 -9.88 -1.61 -12.1 c -4.75 -2.97 -11.67 0.7 -12.1 6.63 c -0.04 0.65 0.02 1.3 0.17 1.94" style="fill:#d2d2d2"/><path d="m 13.69 8.13 c 0 3.14 -2.53 5.7 -5.64 5.7 c -3.12 0 -5.64 -2.55 -5.64 -5.7 c 0 -3.15 2.53 -5.7 5.64 -5.7 c 3.11 0 5.64 2.55 5.64 5.7" style="fill:#ecebee"/><path d="m 4.59 11 c -0.15 -0.12 -0.35 -0.34 -0.44 -0.49 c -0.16 -0.25 -0.16 -0.28 -0.14 -0.5 c 0.03 -0.24 0.03 -0.24 -0.14 -0.37 c -0.09 -0.07 -0.28 -0.21 -0.4 -0.32 c -0.13 -0.1 -0.33 -0.04 -0.41 -0.06 c -0.2 -0.05 -0.21 -0.02 -0.39 -0.55 c -0.04 0 -0.12 -0.05 -0.16 -0.12 c -0.11 -0.17 -0.11 -1.14 0.01 -1.69 c 0.11 -0.55 0.59 -1.54 0.66 -1.63 c 0.35 -0.45 0.68 -1.09 0.86 -1.07 c 0.12 0.02 0.18 0.47 0.39 0.31 c 0.29 -0.21 0.53 0.53 0.57 0.59 c 0.03 0.08 -0.02 0.31 -0.23 0.41 c -0.23 0.11 -0.63 0.09 -0.88 0.07 c -0.42 -0.04 -0.47 0.45 -0.29 0.29 c 0.13 -0.09 0 0.17 0.2 0.36 c 0.1 0.24 0.27 0.73 0.28 0.41 c 0 -0.13 0.41 -0.41 0.24 -0.76 c -0.05 -0.09 0.41 0 0.71 0.38 c 0.23 0.28 0.41 0.83 0.34 0.87 c -0.64 0.34 -1.34 0.09 -1.34 0.46 c 0 0.17 -0.02 0.31 -0.04 0.31 c -0.07 0 -0.23 0.3 -0.23 0.43 c 0 0.12 0.14 0.42 0.06 0.34 c -0.11 -0.1 -0.55 -0.36 -0.67 -0.23 c -0.09 0.11 -0.06 0.36 0.07 0.47 c 0.08 0.07 0.1 0.07 0.19 0.01 c 0.23 -0.06 0.62 -0.35 0.62 -0.07 c -0.01 0.16 -0.11 0.11 -0.21 0.04 c -0.04 -0.06 -0.09 -0.05 -0.18 0.04 c -0.07 0.07 -0.07 0.08 0 0.15 c 0.04 0.04 0.09 0.14 0.11 0.21 c 0.02 0.07 0.09 0.16 0.15 0.2 c 0.23 0.1 0.39 -0.11 0.62 -0.05 c 0.56 -0.13 0.16 -0.05 0.59 0.19 c 0.07 0.04 0.22 0.24 0.37 0.34 c 0.14 0.11 0.39 0.25 0.55 0.33 c 0.34 0.16 0.6 0.22 0.47 0.47 c -0.07 0.2 -0.15 0.45 -0.27 0.58 c -0.1 0.11 -0.4 0.22 -0.42 0.3 c -0.02 0.11 -0.08 0.09 -0.13 0.14 c -0.27 0.34 -0.11 1.47 -0.16 1.39 l -0.36 -0.12 l -0.38 -1.32 c -0.16 -0.47 -0.07 -0.65 -0.2 -0.75 m -0.62 -3.61 c -0.01 -0.03 -0.02 0 -0.02 0.06 c 0.02 0.14 0.04 0.01 0.02 -0.06 m -0.17 -0.1 c -0.07 -0.44 -0.36 -0.3 -0.38 -0.24 c 0.02 0.1 0.19 0.4 0.38 0.24" style="fill:#238ecc"/><g style="fill:#f00"><path d="m 4.05 8.97 c -0.01 -0.02 -0.01 -0.42 -0.01 -0.89 c 0.01 -0.98 0 -0.93 0.27 -0.93 c 0.2 0 0.23 0.03 0.52 0.58 c 0.24 0.45 0.37 0.65 0.4 0.65 c 0.04 0 0.05 -0.09 0.07 -0.64 l 0.02 -0.56 h 0.26 l -0.01 0.84 c -0.01 0.59 -0.02 0.86 -0.04 0.9 c -0.04 0.07 -0.2 0.11 -0.29 0.05 c -0.08 -0.04 -0.24 -0.3 -0.55 -0.87 c -0.12 -0.23 -0.24 -0.42 -0.26 -0.44 c -0.08 -0.07 -0.09 0.02 -0.09 0.68 v 0.65 c -0.1 0 -0.22 0 -0.3 -0.04"/><path d="m 6.07 8.98 v -0.57 c 0 -0.31 0.01 -0.71 0.02 -0.88 l 0.02 -0.32 h 0.48 c 0.41 0 0.48 0 0.5 0.04 c 0.03 0.08 0.04 0.14 -0.25 0.16 c -0.34 0.02 -0.45 -0.02 -0.45 0.24 c 0 0.25 0.02 0.27 0.33 0.3 c 0.22 0.02 0.26 -0.04 0.27 0.08 c 0.01 0.07 0.05 0.13 -0.16 0.13 c -0.18 0 -0.38 0 -0.42 0.06 c -0.01 0.02 -0.02 0.13 -0.02 0.25 c 0 0.28 0.04 0.33 0.23 0.33 c 0.07 0 0.21 0.01 0.3 0.02 c 0.2 0.02 0.25 0.06 0.15 0.14 c 0.02 0.09 -0.34 0.04 -0.99 0.02"/><path d="m 7.93 8.97 c -0.02 -0.02 -0.06 -0.08 -0.09 -0.15 c -0.1 -0.29 -0.36 -1.2 -0.44 -1.54 l -0.02 -0.07 c 0.11 0 0.22 0 0.32 0 l 0.13 0.53 c 0.14 0.59 0.21 0.8 0.27 0.8 c 0.04 0 0 -0.11 0.17 -0.75 c 0.14 -0.55 0.23 -0.57 0.34 -0.58 c 0.12 -0.02 0.21 0 0.24 0.06 c 0.01 0.02 0.05 0.16 0.09 0.3 c 0.09 0.21 0.23 0.86 0.3 0.91 c 0.15 -0.29 0.22 -0.66 0.27 -0.99 c 0.01 -0.07 0.04 -0.18 0.07 -0.25 c 0.04 -0.18 0.22 -0.11 0.34 -0.05 c 0.05 0.07 -0.39 1.69 -0.48 1.78 c -0.03 0.02 -0.09 0.04 -0.2 0.04 c -0.14 0 -0.16 -0.01 -0.2 -0.08 c -0.02 -0.04 -0.11 -0.3 -0.18 -0.57 c -0.08 -0.27 -0.15 -0.5 -0.17 -0.51 c -0.06 -0.04 -0.09 0.05 -0.3 0.79 c -0.05 0.16 -0.1 0.31 -0.12 0.33 c -0.05 0.05 -0.27 0.05 -0.33 0"/></g><path d="m 12.34 11.59 c -0.04 -0.02 -0.16 -0.07 -0.27 -0.09 c -0.18 -0.05 -0.21 -0.08 -0.36 -0.38 c -0.21 -0.43 -0.29 -0.82 -0.19 -1 c 0.04 -0.07 0.07 -0.17 0.07 -0.21 c 0 -0.13 -0.27 -0.64 -0.38 -0.7 c -0.89 -0.35 -1.46 -1 -1.08 -1.71 c 0.02 -0.02 0.11 -0.13 0.18 -0.25 l 0.15 -0.22 l -0.1 -0.18 c -0.14 -0.27 -0.09 -0.43 0.18 -0.5 c 0.17 -0.05 0.21 -0.08 0.21 -0.17 c 0 -0.06 -0.04 -0.09 -0.04 -0.11 c -0.07 -0.21 0.17 -0.26 0.14 -0.34 c -0.03 -0.08 -0.34 0.03 -0.43 -0.02 c -0.09 -0.04 -0.16 -0.09 -0.17 -0.1 c -0.01 -0.01 0.03 -0.09 0.08 -0.18 c 0.05 -0.1 0.1 -0.22 0.1 -0.28 c 0 -0.11 0.21 -0.26 0.27 -0.2 c 0.02 0.02 0.01 0.24 0.09 0.4 c 0.16 0.34 0.07 0.35 0.4 0.15 c 0.22 -0.13 0.42 -0.21 0.29 -0.24 c -0.13 -0.02 -0.41 -0.37 -0.41 -0.51 c 0 -0.07 0.28 -0.47 0.5 -0.72 l 0.15 -0.16 l 0.18 0.15 c 0.29 0.26 0.79 0.86 0.99 1.2 c 0.39 0.66 0.66 1.47 0.75 2.32 c 0.04 0.32 -1.13 0.39 -0.38 0.89 c 0.2 0.13 0.01 1.87 -0.43 2.6 c -0.3 0.49 -0.41 0.61 -0.5 0.56 m -0.18 -4.39 c 0.1 -0.03 0.18 -0.07 0.18 -0.09 c 0 -0.02 -0.07 -0.09 -0.16 -0.16 c -0.15 -0.12 -0.18 -0.13 -0.33 -0.07 c -0.27 0.1 -0.64 0.09 -0.41 0.18 c 0.11 0.04 0.54 0.19 0.73 0.13 m 0.78 0.88 c 0.22 -0.35 -0.46 -0.98 -0.5 -0.9 c -0.01 0.07 0.01 0.08 0.09 0.07 c 0.06 -0.01 0.55 1.15 0.41 0.83 m -1.54 -1.11 c 0.05 -0.07 0.05 -0.23 -0.02 -0.37 c -0.09 -0.19 -0.18 -0.2 -0.25 -0.01 c -0.04 0.09 -0.09 0.14 -0.14 0.14 c -0.05 0 -0.32 0.19 -0.32 0.23 c 0 0.09 0.47 0.39 0.74 0.01 m 0.37 -0.27 c 0.02 -0.08 -0.12 -0.13 -0.18 -0.07 c -0.03 0.03 -0.03 0.07 -0.02 0.11 c 0.04 0.07 0.17 0.04 0.2 -0.04 m 0.2 -1.48 c 0.06 -0.16 0.05 -0.35 -0.03 -0.37 c -0.06 -0.02 -0.16 0.23 -0.16 0.4 c 0 0.16 0.12 0.14 0.18 -0.03" style="fill:#238ecc"/><path d="m 10.18 8.96 c -0.16 -0.09 -0.07 -0.16 -0.02 -0.28 c -0.02 -0.04 0 -0.04 0.11 -0.03 c 0.2 0.05 0.34 0.11 0.54 0.07 c 0.09 -0.04 0.16 -0.14 0.13 -0.23 c -0.17 -0.33 -0.54 -0.34 -0.67 -0.69 c -0.07 -0.23 -0.04 -0.51 0.19 -0.63 c 0.17 -0.08 0.34 -0.09 0.61 -0.03 l 0.18 0.04 c -0.01 0.07 -0.01 0.21 -0.02 0.29 l -0.26 -0.02 c -0.32 -0.02 -0.41 -0.02 -0.41 0.13 c 0 0.1 0 0.09 0.39 0.35 c 0.22 0.14 0.26 0.29 0.3 0.43 c 0.1 0.36 -0.07 0.64 -0.46 0.69 c -0.3 0.05 -0.17 0.04 -0.62 -0.1" style="fill:#f00"/><g style="fill:#238ecc"><path d="m 9.11 4.16 c -0.24 -0.08 -0.27 -0.33 -0.05 -0.33 c 0.14 0 0.35 0.17 0.35 0.28 c 0 0.07 -0.01 0.08 -0.1 0.08 c -0.05 0 -0.14 -0.01 -0.21 -0.03"/><path d="m 5.55 4.81 c -0.39 -0.07 -0.26 -0.67 -0.38 -0.73 c -0.34 -0.16 -0.32 -0.26 0.14 -0.52 c 0.17 -0.09 0.35 -0.41 0.34 -0.57 c 0 -0.07 0.75 -0.21 0.91 -0.1 c 0.6 -0.4 1.06 0.08 0.5 0.88 c -0.2 0.11 -0.05 0.41 -0.41 0.5 c -0.44 0.11 -0.91 0.56 -1.11 0.52"/><path d="m 6.78 13.66 c -0.26 -0.11 0.75 -0.23 0.68 -0.28 c -0.09 -0.27 0.29 0.06 0.62 -0.04 c 0.39 0.13 1.31 0.05 1.38 0.12 c 0.63 -0.01 0.52 0.09 -0.27 0.25 c -0.2 -0.01 -1.22 0.11 -1.53 0.06 c -0.38 -0.05 -0.76 -0.05 -0.89 -0.11"/></g></svg>