<svg xmlns="http://www.w3.org/2000/svg" viewBox="0 0 16 16"><path d="m 13.9 13.16 c 4.18 -5.95 1.31 -11.37 -3.04 -12.66 c -5.85 -1.73 -14.1 2.82 -9.28 12.19 c 1.93 3.72 9.33 4.71 12.31 0.47" style="fill:#f4f4f4"/><path d="m 3.66 10.44 h 8.8 c 0.01 0 0.02 0.02 0.02 0.04 v 1.91 c 0 0.02 -0.01 0.04 -0.02 0.04 h -8.8 c -0.01 0 -0.02 -0.02 -0.02 -0.04 v -1.91 c 0 -0.02 0.01 -0.04 0.02 -0.04" style="fill:#ff7f86"/><path d="m 2.68 5.64 h 1.92 c 0.01 0 0.01 0.02 0.01 0.04 v 3.78 c 0 0.02 0 0.04 -0.01 0.04 h -1.92 c -0.01 0 -0.02 -0.02 -0.02 -0.04 v -3.78 c 0 -0.02 0.01 -0.04 0.02 -0.04" style="fill:#f37040"/><path d="m 11.7 5.6 h 1.87 c 0.01 0 0.02 0.02 0.02 0.04 v 3.87 c 0 0.02 -0.01 0.04 -0.02 0.04 h -1.87 c -0.01 0 -0.02 -0.02 -0.02 -0.04 v -3.87 c 0 -0.02 0.01 -0.04 0.02 -0.04" style="fill:#8e93c8"/><path d="m 9.66 5.64 h 1.73 c 0.01 0 0.02 0.02 0.02 0.04 v 3.68 c 0 0.02 -0.01 0.04 -0.02 0.04 h -1.73 c -0.01 0 -0.02 -0.02 -0.02 -0.04 v -3.68 c 0 -0.02 0.01 -0.04 0.02 -0.04" style="fill:#acff2f"/><path d="m 7.61 6.64 h 1.96 c 0.01 0 0.02 0.02 0.02 0.04 v 2.77 c 0 0.02 -0.01 0.04 -0.02 0.04 h -1.96 c -0.01 0 -0.01 -0.02 -0.01 -0.04 v -2.77 c 0 -0.02 0 -0.04 0.01 -0.04" style="fill:#ffd600"/><path d="m 3.55 12.48 c -0.03 -0.05 -0.04 -0.46 -0.04 -1.02 c 0 -0.56 0.02 -0.96 0.04 -1.02 c 0.04 -0.08 0.14 -0.08 4.54 -0.08 h 4.49 l 0.04 0.11 c 0.06 0.14 0.06 1.83 0 1.98 l -0.04 0.11 h -2.11 c -1.58 0 -2.12 -0.01 -2.16 -0.05 c -0.07 -0.07 -0.06 -0.19 0.02 -0.22 c 0.05 -0.02 0.07 -0.09 0.05 -0.34 l -0.01 -0.31 l -0.25 -0.01 c -0.15 -0.01 -0.28 0.01 -0.32 0.04 c -0.08 0.07 -0.08 0.47 0 0.58 c 0.09 0.11 0.09 0.26 0 0.3 c -0.04 0.01 -1 0.02 -2.14 0.02 c -2 0 -2.07 0 -2.11 -0.08 m 0.89 -0.54 v -0.3 h -0.61 l -0.01 0.25 c -0.02 0.37 -0.02 0.38 0.33 0.36 l 0.29 -0.01 m 1.02 -0.27 c 0.02 -0.33 -0.02 -0.37 -0.37 -0.35 l -0.25 0.01 l -0.01 0.32 l -0.02 0.31 l 0.32 -0.01 l 0.32 -0.01 m 0.97 -0.29 l -0.01 -0.31 l -0.25 -0.01 c -0.15 -0.01 -0.28 0.01 -0.32 0.04 c -0.07 0.05 -0.09 0.52 -0.04 0.57 c 0.02 0.02 0.16 0.03 0.33 0.03 h 0.3 m 0.99 -0.31 c 0.01 -0.27 0 -0.29 -0.09 -0.31 c -0.06 -0.02 -0.2 -0.02 -0.32 -0.01 l -0.21 0.01 l -0.01 0.25 c -0.02 0.37 -0.02 0.38 0.33 0.36 l 0.29 -0.01 m 1.96 -0.3 v -0.3 h -0.61 l -0.01 0.25 c -0.02 0.37 -0.02 0.38 0.33 0.36 l 0.3 -0.01 m 1 -0.05 c 0.05 -0.12 0.03 -0.47 -0.02 -0.53 c -0.03 -0.03 -0.17 -0.05 -0.3 -0.05 c -0.29 0 -0.34 0.05 -0.34 0.31 c 0 0.32 0.02 0.34 0.35 0.34 c 0.23 0 0.3 -0.02 0.32 -0.07 m 0.96 -0.26 v -0.3 h -0.61 l -0.02 0.25 c -0.02 0.37 -0.01 0.38 0.33 0.36 l 0.3 -0.01 m 1.02 -0.27 c 0.02 -0.33 -0.03 -0.37 -0.37 -0.35 l -0.25 0.01 l -0.01 0.32 l -0.01 0.31 l 0.32 -0.01 l 0.32 -0.01 m -7.94 -0.95 c 0.05 -0.02 0.07 -0.09 0.07 -0.32 v -0.3 l -0.63 0.02 l -0.01 0.25 c -0.01 0.15 0.01 0.28 0.04 0.31 c 0.05 0.06 0.4 0.09 0.54 0.04 m 1.03 -0.04 c 0.03 -0.04 0.05 -0.16 0.04 -0.31 l -0.02 -0.25 l -0.63 -0.02 v 0.3 c 0 0.16 0.02 0.31 0.03 0.32 c 0.05 0.06 0.52 0.03 0.58 -0.03 m 1 -0.28 l 0.01 -0.31 l -0.32 0.01 l -0.32 0.01 l -0.01 0.25 c -0.02 0.34 0.02 0.38 0.36 0.36 l 0.27 -0.01 m 0.98 -0.04 c 0.03 -0.04 0.05 -0.16 0.04 -0.31 l -0.02 -0.25 l -0.32 -0.01 l -0.31 -0.01 v 0.3 c 0 0.2 0.02 0.3 0.05 0.32 c 0.12 0.05 0.5 0.03 0.55 -0.03 m 1 -0.27 l 0.01 -0.31 h -0.3 c -0.34 0 -0.36 0.02 -0.36 0.31 c 0 0.3 0.05 0.34 0.36 0.33 l 0.27 -0.01 m 0.97 -0.02 c 0.04 -0.02 0.05 -0.12 0.04 -0.31 l -0.01 -0.28 h -0.61 l -0.01 0.28 c -0.02 0.32 0.01 0.35 0.32 0.35 c 0.12 0 0.25 -0.02 0.28 -0.04 m 1 -0.02 c 0.03 -0.04 0.05 -0.16 0.04 -0.31 l -0.02 -0.25 l -0.31 -0.01 c -0.34 -0.01 -0.36 0 -0.37 0.33 c 0 0.26 0.06 0.31 0.35 0.31 c 0.16 0 0.27 -0.02 0.3 -0.06 m 0.94 0.04 c 0.05 -0.02 0.07 -0.09 0.07 -0.32 v -0.3 l -0.31 0.01 l -0.32 0.01 l -0.02 0.28 c -0.01 0.19 0 0.29 0.04 0.31 c 0.07 0.04 0.43 0.05 0.54 0.01 m 1.02 -0.04 c 0.03 -0.04 0.05 -0.16 0.04 -0.31 l -0.01 -0.25 l -0.63 -0.02 v 0.3 c 0 0.16 0.01 0.31 0.03 0.32 c 0.06 0.06 0.53 0.03 0.58 -0.03 m -9.78 -1.69 c -0.04 -0.11 -0.03 -4.9 0.01 -4.96 c 0.03 -0.04 0.18 -0.05 0.62 -0.04 l 0.59 0.01 l 0.01 0.37 c 0.02 0.6 -0.02 0.56 0.48 0.56 c 0.27 0 0.45 0.02 0.48 0.05 c 0.03 0.03 0.05 0.2 0.05 0.47 c 0 0.34 0.01 0.42 0.07 0.44 c 0.04 0.02 1.06 0.03 2.28 0.03 c 1.66 0 2.22 -0.01 2.26 -0.05 c 0.03 -0.03 0.05 -0.2 0.05 -0.45 c 0 -0.25 0.02 -0.41 0.05 -0.44 c 0.04 -0.04 0.42 -0.05 1.43 -0.05 c 1.08 0 1.39 -0.02 1.43 -0.06 c 0.03 -0.03 0.05 -0.24 0.06 -0.46 l 0.01 -0.41 l 0.54 -0.01 c 0.32 -0.01 0.57 0.01 0.62 0.04 c 0.08 0.04 0.09 0.09 0.09 1.13 c 0 0.6 -0.02 1.11 -0.04 1.13 c -0.06 0.08 -0.22 0.07 -0.27 -0.02 c -0.04 -0.08 -0.08 -0.09 -0.36 -0.08 l -0.31 0.01 l -0.02 0.3 c -0.01 0.21 0 0.31 0.05 0.33 c 0.09 0.06 0.53 0.04 0.63 -0.02 c 0.11 -0.09 0.27 -0.09 0.3 0 c 0.02 0.04 0.03 0.54 0.03 1.12 c 0 0.99 0 1.05 -0.09 1.09 c -0.05 0.03 -1.87 0.04 -5.55 0.04 c -4.95 0 -5.47 0 -5.5 -0.07 m 2.91 -0.54 v -0.32 l -0.28 -0.01 c -0.16 -0.01 -0.3 0.01 -0.34 0.04 c -0.08 0.07 -0.09 0.52 -0.01 0.59 c 0.04 0.04 0.16 0.05 0.34 0.04 l 0.28 -0.01 m 0.97 -0.03 c 0.06 -0.06 0.07 -0.5 0.02 -0.59 c -0.03 -0.04 -0.13 -0.05 -0.34 -0.04 l -0.3 0.01 l -0.01 0.28 c -0.01 0.15 0 0.3 0.01 0.33 c 0.03 0.07 0.55 0.08 0.63 0.01 m 0.99 -0.29 v -0.32 l -0.28 -0.01 c -0.23 -0.01 -0.29 0 -0.34 0.06 c -0.07 0.09 -0.07 0.35 -0.02 0.51 c 0.04 0.11 0.06 0.11 0.34 0.1 l 0.29 -0.01 m 0.97 -0.03 c 0.06 -0.06 0.07 -0.5 0.02 -0.59 c -0.02 -0.04 -0.13 -0.05 -0.34 -0.04 l -0.3 0.01 l -0.02 0.28 c -0.01 0.15 0 0.3 0.01 0.33 c 0.03 0.07 0.55 0.08 0.63 0.01 m 1.01 -0.03 c 0.05 -0.09 0.06 -0.36 0.02 -0.51 c -0.02 -0.09 -0.05 -0.09 -0.32 -0.09 c -0.34 0 -0.39 0.04 -0.39 0.34 c 0 0.3 0.05 0.34 0.37 0.34 c 0.23 0 0.29 -0.02 0.33 -0.08 m 0.98 -0.26 v -0.32 h -0.65 l -0.01 0.28 c -0.02 0.4 -0.02 0.4 0.35 0.38 l 0.32 -0.01 m 0.97 -0.03 c 0.06 -0.06 0.07 -0.5 0.02 -0.59 c -0.02 -0.04 -0.13 -0.05 -0.34 -0.04 l -0.3 0.01 l -0.02 0.28 c -0.01 0.15 0 0.3 0.01 0.33 c 0.03 0.07 0.55 0.08 0.63 0.01 m 1.03 -0.05 c 0.04 -0.14 0.03 -0.47 -0.01 -0.54 c -0.03 -0.04 -0.13 -0.05 -0.36 -0.04 l -0.32 0.01 l -0.01 0.28 c -0.01 0.15 0 0.3 0.01 0.33 c 0.02 0.04 0.11 0.06 0.35 0.06 c 0.3 0 0.32 -0.01 0.35 -0.1 m 0.93 0.05 c 0.06 -0.06 0.07 -0.5 0.02 -0.59 c -0.02 -0.04 -0.13 -0.05 -0.34 -0.04 l -0.3 0.01 l -0.02 0.28 c 0 0.15 0 0.3 0.01 0.33 c 0.03 0.07 0.55 0.08 0.63 0.01 m -9.84 -0.29 v -0.3 h -0.61 v 0.27 c 0 0.15 0.01 0.29 0.03 0.3 c 0.02 0.02 0.15 0.03 0.3 0.03 h 0.27 m 0.98 -0.3 v -0.28 h -0.61 l -0.01 0.23 c -0.02 0.34 -0.01 0.36 0.33 0.34 l 0.29 -0.01 m 7.89 -0.95 c 0.08 -0.08 0.09 -0.45 0.02 -0.58 c -0.04 -0.07 -0.09 -0.08 -0.3 -0.08 c -0.39 0 -0.39 0.01 -0.39 0.34 c 0 0.17 0.02 0.31 0.05 0.34 c 0.08 0.08 0.54 0.07 0.62 -0.02 m -8.89 -0.3 v -0.3 h -0.57 l -0.02 0.25 c -0.02 0.37 -0.01 0.38 0.31 0.36 l 0.27 -0.01 m 1 -0.3 v -0.3 l -0.28 -0.02 c -0.33 -0.02 -0.35 0.01 -0.35 0.32 c 0 0.29 0.05 0.33 0.37 0.31 l 0.26 -0.01 m 1.02 -0.31 c 0.01 -0.29 0.01 -0.31 -0.09 -0.33 c -0.15 -0.04 -0.36 -0.03 -0.49 0.02 c -0.11 0.04 -0.11 0.06 -0.11 0.32 c 0 0.15 0.02 0.29 0.03 0.3 c 0.02 0.02 0.17 0.02 0.34 0.02 l 0.3 -0.01 m 1.02 -0.28 c 0.02 -0.33 -0.04 -0.39 -0.33 -0.39 c -0.31 0 -0.36 0.05 -0.36 0.36 c 0 0.15 0.01 0.29 0.03 0.3 c 0.02 0.02 0.17 0.02 0.34 0.02 l 0.31 -0.01 m 0.97 -0.31 c 0.01 -0.29 0 -0.31 -0.09 -0.33 c -0.14 -0.04 -0.44 -0.03 -0.5 0.01 c -0.07 0.05 -0.11 0.31 -0.08 0.5 l 0.03 0.15 l 0.63 -0.02 m 1.02 -0.28 c 0.02 -0.33 -0.03 -0.39 -0.33 -0.39 c -0.31 0 -0.36 0.05 -0.36 0.36 c 0 0.15 0.02 0.29 0.03 0.3 c 0.02 0.02 0.17 0.02 0.34 0.02 l 0.31 -0.01 m 1 -0.05 c 0.04 -0.11 0.03 -0.45 -0.02 -0.54 c -0.04 -0.07 -0.09 -0.08 -0.3 -0.08 c -0.32 0 -0.39 0.06 -0.39 0.34 c 0 0.34 0.01 0.34 0.37 0.34 c 0.25 0 0.32 -0.01 0.35 -0.07 m 0.98 -0.25 c 0.01 -0.21 0 -0.31 -0.05 -0.34 c -0.09 -0.05 -0.53 -0.04 -0.59 0.02 c -0.06 0.05 -0.07 0.56 -0.02 0.61 c 0.02 0.02 0.17 0.02 0.34 0.02 l 0.3 -0.01 m 1.02 -0.28 c 0.02 -0.34 -0.03 -0.39 -0.34 -0.39 c -0.34 0 -0.34 0.01 -0.34 0.37 v 0.32 l 0.34 -0.01 l 0.34 -0.01 m 1.96 -0.3 v -0.3 h -0.65 l -0.02 0.25 c -0.02 0.38 -0.02 0.38 0.35 0.36 l 0.32 -0.01 m -7.92 -0.96 c 0.04 -0.02 0.05 -0.12 0.05 -0.33 l -0.02 -0.3 l -0.28 -0.01 c -0.16 -0.01 -0.3 0 -0.34 0.04 c -0.08 0.06 -0.09 0.52 -0.01 0.59 c 0.06 0.05 0.5 0.07 0.59 0.01 m 1 -0.01 c 0.07 -0.07 0.07 -0.53 -0.01 -0.59 c -0.04 -0.03 -0.17 -0.04 -0.34 -0.04 l -0.28 0.01 l -0.01 0.3 c -0.01 0.21 0 0.31 0.04 0.33 c 0.09 0.05 0.54 0.04 0.59 -0.01 m 0.96 0.01 c 0.04 -0.02 0.05 -0.12 0.04 -0.33 l -0.02 -0.3 l -0.28 -0.01 c -0.33 -0.02 -0.39 0.03 -0.39 0.32 c 0 0.3 0.05 0.36 0.34 0.36 c 0.14 0 0.28 -0.02 0.31 -0.04 m 1 -0.01 c 0.07 -0.07 0.07 -0.53 -0.01 -0.59 c -0.04 -0.03 -0.17 -0.04 -0.34 -0.04 l -0.27 0.01 l -0.02 0.27 c -0.01 0.16 0.01 0.3 0.04 0.33 c 0.06 0.08 0.52 0.08 0.6 0.01 m 1.01 -0.04 c 0.06 -0.11 0.06 -0.41 0 -0.52 c -0.04 -0.07 -0.09 -0.09 -0.33 -0.09 c -0.32 0 -0.37 0.05 -0.37 0.35 c 0 0.3 0.05 0.34 0.37 0.34 c 0.23 0 0.29 -0.02 0.33 -0.09 m 0.98 -0.26 v -0.32 h -0.65 l -0.01 0.3 c -0.01 0.21 0 0.31 0.04 0.34 c 0.03 0.02 0.18 0.03 0.34 0.02 l 0.28 -0.01 m 0.97 -0.03 c 0.06 -0.06 0.07 -0.5 0.02 -0.59 c -0.02 -0.04 -0.13 -0.05 -0.34 -0.04 l -0.3 0.01 l -0.02 0.27 c -0.01 0.15 0 0.3 0.01 0.34 c 0.03 0.07 0.55 0.08 0.63 0.01 m 1.01 -0.04 c 0.05 -0.1 0.06 -0.47 0.01 -0.55 c -0.03 -0.04 -0.13 -0.05 -0.36 -0.04 l -0.32 0.01 l -0.01 0.27 c -0.01 0.15 0 0.3 0.01 0.34 c 0.02 0.04 0.11 0.06 0.33 0.06 c 0.26 0 0.31 -0.02 0.35 -0.09 m -8.9 -0.27 l 0.01 -0.29 h -0.61 v 0.27 c 0 0.15 0.02 0.29 0.03 0.3 c 0.02 0.02 0.15 0.02 0.29 0.02 l 0.27 -0.01 m 1 -0.28 v -0.28 h -0.61 l -0.01 0.23 c -0.02 0.35 -0.01 0.36 0.33 0.34 l 0.29 -0.02 m 7.89 -0.95 c 0.08 -0.09 0.09 -0.48 0.01 -0.59 c -0.05 -0.06 -0.11 -0.07 -0.36 -0.06 l -0.3 0.01 l -0.01 0.3 c -0.01 0.25 0 0.31 0.06 0.36 c 0.11 0.08 0.52 0.07 0.6 -0.01 m -7.92 -0.01 c 0.04 -0.03 0.05 -0.12 0.04 -0.31 l -0.02 -0.28 h -0.61 l -0.01 0.25 c -0.01 0.15 0.01 0.27 0.04 0.31 c 0.05 0.07 0.46 0.08 0.55 0.02 m 5.97 -0.29 c 0.02 -0.35 0 -0.37 -0.33 -0.37 c -0.35 0 -0.36 0.01 -0.36 0.34 c 0 0.16 0.02 0.3 0.03 0.32 c 0.02 0.02 0.17 0.03 0.34 0.02 l 0.3 -0.01 m 1.02 -0.27 c 0.02 -0.35 -0.02 -0.39 -0.32 -0.39 c -0.36 0 -0.37 0 -0.37 0.37 v 0.32 l 0.34 -0.01 l 0.34 -0.01 m 1.96 -0.05 c 0.02 -0.04 0.03 -0.17 0.03 -0.3 c 0 -0.27 -0.06 -0.32 -0.35 -0.32 c -0.3 0 -0.35 0.05 -0.35 0.36 c 0 0.15 0.02 0.29 0.03 0.3 c 0.02 0.02 0.16 0.03 0.32 0.03 c 0.23 0 0.3 -0.02 0.32 -0.07 m -9.88 -0.27 l -0.01 -0.29 h -0.57 l -0.02 0.29 l -0.01 0.29 h 0.62 m 9.84 -0.96 c 0.08 -0.07 0.07 -0.53 -0.01 -0.59 c -0.04 -0.03 -0.17 -0.05 -0.34 -0.04 l -0.28 0.02 l -0.02 0.27 c -0.01 0.16 0.01 0.3 0.04 0.34 c 0.07 0.07 0.52 0.08 0.6 0.01 m -9.85 -0.3 l 0.01 -0.29 h -0.61 v 0.27 c 0 0.15 0.02 0.29 0.03 0.3 c 0.02 0.02 0.15 0.02 0.29 0.02 l 0.27 -0.01"/></svg>