<svg xmlns="http://www.w3.org/2000/svg" viewBox="0 0 16 16"><path d="m 4.07 1.71 c 8.46 -5.73 16.24 4.85 9.25 11.6 c -6.59 6.36 -16.1 0.46 -12.63 -7.45 c 0.71 -1.65 1.83 -3.1 3.38 -4.15" style="fill:#00f"/><g style="fill:#fff"><path d="m 6.61 11.1 v 0.91 h -0.85 c -0.16 0 -0.28 0.15 -0.28 0.33 c 0 0.18 0.13 0.33 0.28 0.33 h 3.11 c 0.16 0 0.28 -0.15 0.28 -0.33 c 0 -0.18 -0.13 -0.33 -0.28 -0.33 h -0.85 v -0.91"/><path d="m 3.7 5.74 c -0.13 0 -0.23 0.13 -0.23 0.28 v 5.11 c 0 0.16 0.11 0.28 0.23 0.28 h 7.24 c 0.13 0 0.23 -0.13 0.23 -0.28 v -5.11 c 0 -0.16 -0.11 -0.28 -0.23 -0.28 m -6.77 0.75 h 6.31 v 4.18 h -6.31"/><path d="m 4.73 6.97 h 0.93 c 0.03 0 0.05 0.02 0.05 0.05 v 0.74 c 0 0.03 -0.02 0.05 -0.05 0.05 h -0.93 c -0.03 0 -0.05 -0.02 -0.05 -0.05 v -0.74 c 0 -0.03 0.02 -0.05 0.05 -0.05"/></g><g style="fill:#f00"><path d="m 7.59 8.52 l 2.09 -2.35 l -2.15 -2.58 h 1.38 l 1.71 2.03 l -2.56 2.9"/><path d="m 11.87 8.58 l -1.7 -2.03 l 2.58 -2.9 h 0.46 l -2.1 2.36 l 2.14 2.57 h -1.38"/></g></svg>