<svg xmlns="http://www.w3.org/2000/svg" viewBox="0 0 16 16"><path d="m 0.19 9.82 c 0.99 6.46 9.8 8.19 13.69 3.57 c 3.43 -3.42 2.57 -9.98 -1.63 -12.23 c -4.83 -3 -11.86 0.71 -12.24 6.7 c -0.04 0.66 0.02 1.32 0.17 1.96" style="fill:#2095f3"/><path d="m 7.36 13.32 c -1.14 -0.18 -2.05 -0.64 -2.89 -1.48 c -1.36 -1.35 -1.82 -3.42 -1.19 -5.25 c 1.23 -3.55 5.77 -4.57 8.41 -1.9 c 1 1.02 1.48 2.19 1.47 3.64 c -0.02 3.04 -2.82 5.45 -5.8 4.98 m 0.93 -2.14 c 0.12 -0.32 -0.12 -0.39 -1.23 -0.39 c -1.59 0 -1.48 0.17 -1.51 -2.45 l -0.03 -2.11 c 0.18 -0.32 0.23 -0.33 0.53 -0.53 l 2.11 0.03 c 2.61 0.03 2.44 -0.07 2.44 1.51 c 0 1.12 0.08 1.36 0.4 1.23 c 0.12 -0.05 0.14 -0.23 0.11 -1.32 c -0.03 -1.2 -0.04 -1.27 -0.25 -1.5 c -0.41 -0.44 -0.61 -0.48 -2.77 -0.48 c -1.79 0 -2.03 0.02 -2.37 0.17 c -0.3 0.14 -0.41 0.26 -0.55 0.57 c -0.16 0.37 -0.17 0.55 -0.15 2.48 c 0.03 2.3 0.05 2.38 0.63 2.73 c 0.24 0.15 0.44 0.17 1.44 0.17 c 0.96 0 1.17 -0.02 1.21 -0.13 m 2.3 -0.43 c 0.38 -0.38 0.54 -0.61 0.5 -0.7 c -0.07 -0.19 -0.35 -0.17 -0.54 0.04 c -0.09 0.09 -0.19 0.17 -0.23 0.17 c -0.04 0 -0.07 -0.32 -0.07 -0.73 c 0 -0.78 -0.12 -1.09 -0.38 -1 c -0.12 0.05 -0.14 0.2 -0.14 0.84 c 0 0.86 -0.07 1 -0.38 0.72 c -0.23 -0.22 -0.45 -0.24 -0.53 -0.04 c -0.04 0.1 0.1 0.3 0.49 0.7 c 0.3 0.3 0.59 0.55 0.64 0.55 c 0.05 0 0.34 -0.25 0.65 -0.56 m -2.2 -1.54 c 0.91 -0.5 1.1 -0.86 0.72 -1.34 c -0.2 -0.26 -1.35 -0.93 -1.59 -0.93 c -0.09 0 -0.28 0.11 -0.42 0.25 c -0.25 0.25 -0.25 0.29 -0.25 1.1 c 0 0.78 0.02 0.86 0.21 1.05 c 0.3 0.3 0.6 0.27 1.33 -0.14 m -0.96 -0.23 c -0.03 -0.03 -0.06 -0.36 -0.06 -0.73 c 0 -0.48 0.04 -0.69 0.12 -0.72 c 0.12 -0.05 1.14 0.48 1.24 0.64 c 0.08 0.13 -0.1 0.31 -0.61 0.61 c -0.48 0.27 -0.59 0.3 -0.69 0.2" style="fill:#fff"/></svg>