<svg xmlns="http://www.w3.org/2000/svg" viewBox="0 0 16 16"><path d="m 0.76 11 c -6 -19.34 26.3 -9.67 11.18 3.58 c -3 2.66 -9.56 1.64 -11.18 -3.58" style="fill:#b3dec8"/><path d="m 6.86 12.51 c -1.49 -0.21 -2.92 -1.44 -3.46 -2.99 c -0.2 -0.58 -0.27 -1.52 -0.16 -2.32 c 0.2 -1.55 1.41 -2.99 2.96 -3.54 c 0.8 -0.29 2.2 -0.29 3 0 c 1.56 0.55 2.76 1.98 2.96 3.54 c 0.07 0.5 0.07 1.11 0 1.61 c -0.24 1.82 -1.86 3.46 -3.67 3.7 c -0.46 0.06 -1.18 0.06 -1.64 0 m 2.85 -1.79 c 0.32 -0.16 0.34 -0.68 0.04 -0.88 c -0.05 -0.03 -0.6 -0.19 -1.23 -0.36 c -0.63 -0.17 -1.18 -0.32 -1.21 -0.33 c -0.16 -0.05 -0.23 -0.27 -0.1 -0.38 c 0.04 -0.03 0.63 -0.3 1.32 -0.61 c 0.69 -0.3 1.3 -0.57 1.36 -0.6 c 0.44 -0.23 0.52 -0.93 0.13 -1.19 c -0.13 -0.09 -3.86 -1.12 -4.05 -1.12 c -0.06 0 -0.16 0.03 -0.23 0.07 c -0.35 0.19 -0.34 0.72 0.02 0.89 c 0.08 0.04 0.54 0.18 1.02 0.3 c 1.05 0.28 1.07 0.29 1.1 0.4 c 0.05 0.21 0.05 0.21 -1.29 0.87 c -0.7 0.34 -1.3 0.65 -1.36 0.68 c -0.26 0.18 -0.35 0.71 -0.17 0.98 c 0.05 0.08 0.15 0.17 0.21 0.2 c 0.18 0.09 4 1.12 4.17 1.13 c 0.07 0 0.19 -0.02 0.26 -0.05" style="fill:#139c53"/></svg>