<svg xmlns="http://www.w3.org/2000/svg" viewBox="0 0 24 24"><path d="m 5.64 2.56 c 12.27 -8.59 24.71 7.28 14.71 17.4 c -9.42 9.54 -24.1 0.7 -19.49 -11.18 c 0.95 -2.48 2.52 -4.65 4.78 -6.23" style="fill:#f60"/><g style="fill:#fff"><path d="m 9.1 9.45 c -1.37 0.23 -2.18 1.03 -2.46 2.15 h -1.64 v 1.43 h 1.64 c 0.28 1.12 1.09 1.92 2.46 2.15 m 0.82 -5.73 v 5.73 c 1.37 -0.23 2.18 -1.03 2.46 -2.15 h 1.64 v -1.43 h -1.64 c -0.28 -1.13 -1.09 -1.92 -2.46 -2.15"/><path d="m 11.82 16.38 l 0.89 0.02 c 0.85 0.02 0.91 0.02 1.12 0.13 c 0.31 0.16 0.4 0.3 0.4 0.64 c 0 0.27 0 0.28 -0.19 0.44 c -0.17 0.16 -0.23 0.15 -0.02 0.26 c 0.2 0.11 0.37 0.4 0.36 0.64 c 0 0.22 -0.14 0.51 -0.29 0.62 c -0.26 0.18 -0.41 0.21 -1.36 0.23 l -0.92 0.02 c 0 -1.04 0 -1.92 0 -2.99 m 1.54 2.43 c 0.17 -0.06 0.23 -0.16 0.23 -0.39 c 0 -0.29 -0.14 -0.36 -0.63 -0.36 h -0.39 c 0 0.26 -0.01 0.53 0.03 0.78 c 0.24 0.02 0.53 0.05 0.76 -0.02 m 0 -1.37 c 0.06 -0.05 0.09 -0.14 0.09 -0.25 c 0 -0.25 -0.11 -0.31 -0.54 -0.31 h -0.34 c 0 0.21 -0.01 0.44 0.04 0.65 c 0.22 0.01 0.58 0.05 0.76 -0.09"/><path d="m 4.82 19.34 c -0.53 -0.11 -0.53 -0.12 -0.53 -0.45 v -0.29 c 0.35 0.13 0.77 0.26 1.09 0.26 c 0.42 0 0.56 -0.08 0.59 -0.33 c 0.02 -0.21 -0.07 -0.27 -0.61 -0.4 c -0.87 -0.2 -1.12 -0.45 -1.05 -1.06 c 0.04 -0.32 0.28 -0.59 0.64 -0.69 c 0.21 -0.06 0.89 -0.05 1.24 0.01 l 0.29 0.05 c 0.01 0.2 0.02 0.4 0.03 0.6 l -0.25 -0.08 c -0.5 -0.17 -1.07 -0.16 -1.21 0.03 c -0.08 0.1 -0.07 0.3 0.03 0.38 c 0.05 0.04 0.3 0.12 0.57 0.18 c 0.85 0.18 1.11 0.43 1.07 0.99 c -0.04 0.57 -0.39 0.83 -1.16 0.85 c -0.24 -0.01 -0.49 0 -0.73 -0.05"/><path d="m 7.48 17.88 v -1.49 c 0.34 0.01 0.68 0.02 1.03 0.03 l 0.34 0.76 c 0.19 0.42 0.36 0.76 0.38 0.77 c 0.02 0 0.2 -0.34 0.39 -0.77 l 0.36 -0.78 c 0.33 0 0.67 0 1 0 v 2.97 c -0.25 0 -0.5 0 -0.75 0 l -0.02 -2.21 l -0.36 0.8 l -0.36 0.8 h -0.25 c -0.43 0.06 -0.47 -0.48 -0.62 -0.8 l -0.36 -0.81 l -0.01 1.11 l -0.01 1.11 c -0.25 0 -0.5 0 -0.75 0"/></g></svg>