<svg xmlns="http://www.w3.org/2000/svg" viewBox="0 0 24 24"><defs><clipPath id="0"><path d="m 4 11 h 11 v 9 h -11"/></clipPath><clipPath id="1"><path d="m 0.38 6.62 h 19.1 c 1.11 0 2 0.71 2 1.6 v 15.17 c 0 0.88 -0.9 1.6 -2 1.6 h -19.1 c -1.11 0 -2 -0.71 -2 -1.6 v -15.17 c 0 -0.88 0.9 -1.6 2 -1.6"/></clipPath></defs><path d="m 5.64 2.56 c 12.27 -8.59 24.71 7.28 14.71 17.4 c -9.42 9.54 -24.1 0.7 -19.49 -11.18 c 0.95 -2.48 2.52 -4.65 4.78 -6.23" style="fill:#f60"/><g style="clip-path:url(#0)"><g style="clip-path:url(#1)"><path d="m 14.96 11.41 c 0 2.81 0 5.55 0 7.98 c -3.53 0 -7 0 -10.1 0 c 0 -2.81 0 -5.55 0 -7.98 c 3.49 0 7.1 0 10.1 0 m -1 0.8 h -4.53 v 1.6 h 4.53 m -5.53 -1.6 h -2.51 v 1.6 h 2.51 m 5.53 0.8 h -4.53 v 1.59 h 4.53 m -5.53 -1.59 h -2.51 v 1.59 h 2.51 m 5.53 0.8 h -4.53 v 1.6 h 4.53 m -5.53 -1.6 h -2.51 v 1.6 h 2.51" style="fill:#fff"/></g></g></svg>