<svg xmlns="http://www.w3.org/2000/svg" xmlns:xlink="http://www.w3.org/1999/xlink" viewBox="0 0 24 24"><defs><g id="3" style="clip-path:url(#2)"><path d="m 346.6 405.9 l 42.69 0.05 c 8.11 -0.12 14.68 6.76 14.67 15.25 l 0.07 109.4 c -0.11 8.41 -6.54 15.26 -14.75 15.3 l -42.59 0.04 c -8.13 -0.06 -14.69 -6.94 -14.77 -15.33 l 0.11 -109.4 c -0.07 -8.4 6.54 -15.26 14.57 -15.28" transform="matrix(0.02 0.023 -0.023 0.02 13.37 -4.35)" style="fill:#fff;stroke:#fff;fill-rule:evenodd"/></g><g id="8" style="clip-path:url(#7)"><path d="m 346.6 405.9 l 42.69 0.05 c 8.11 -0.12 14.68 6.76 14.67 15.25 l 0.07 109.4 c -0.11 8.41 -6.54 15.26 -14.75 15.3 l -42.59 0.04 c -8.13 -0.06 -14.69 -6.94 -14.77 -15.33 l 0.11 -109.4 c -0.07 -8.4 6.54 -15.26 14.57 -15.28" transform="matrix(0.02 0.023 -0.023 0.02 13.37 -4.35)" style="fill:#fff;fill-opacity:0.28;stroke:#fff;fill-rule:evenodd"/></g><g id="C" style="clip-path:url(#B)"><path d="m 215.4 320.4 l 49.4 -0.05 l 0.03 49.5 l -49.54 -0.03" transform="matrix(0.02 0.023 -0.023 0.02 9.1 -4.08)" style="fill:#fff;stroke:#fff;fill-rule:evenodd"/></g><g id="F" style="clip-path:url(#E)"><path d="m 275 320.2 l 49.54 0.03 l -0.06 49.61 l -49.5 -0.13" transform="matrix(0.02 0.023 -0.023 0.02 9.1 -4.08)" style="fill:#fff;stroke:#fff;fill-rule:evenodd"/></g><g id="I" style="clip-path:url(#H)"><path d="m 334.5 320.3 l 49.54 0.03 l 0.03 49.5 l -49.54 -0.03" transform="matrix(0.02 0.023 -0.023 0.02 9.1 -4.08)" style="fill:#fff;stroke:#fff;fill-rule:evenodd"/></g><g id="L" style="clip-path:url(#K)"><path d="m 215.5 380.3 l 49.4 -0.05 l 0.03 49.5 l -49.54 -0.03" transform="matrix(0.02 0.023 -0.023 0.02 9.1 -4.08)" style="fill:#fff;stroke:#fff;fill-rule:evenodd"/></g><g id="O" style="clip-path:url(#N)"><path d="m 275 380.3 l 49.4 -0.05 l 0.03 49.5 l -49.54 -0.03" transform="matrix(0.02 0.023 -0.023 0.02 9.1 -4.08)" style="fill:#fff;stroke:#fff;fill-rule:evenodd"/></g><g id="R" style="clip-path:url(#Q)"><path d="m 334.5 380.3 l 49.54 0.03 l 0.03 49.5 l -49.54 -0.03" transform="matrix(0.02 0.023 -0.023 0.02 9.1 -4.08)" style="fill:#fff;stroke:#fff;fill-rule:evenodd"/></g><g id="U" style="clip-path:url(#T)"><path d="m 215.4 320.3 l 49.4 -0.05 l 0.03 49.5 l -49.54 -0.03" transform="matrix(0.02 0.023 -0.023 0.02 15.2 3.15)" style="fill:#fff;fill-opacity:0.97;stroke:#fff;fill-rule:evenodd"/></g><g id="X" style="clip-path:url(#W)"><path d="m 274.9 320.3 l 49.54 0.03 l 0.03 49.5 l -49.54 -0.03" transform="matrix(0.02 0.023 -0.023 0.02 15.2 3.15)" style="fill:#fff;fill-opacity:0.97;stroke:#fff;fill-rule:evenodd"/></g><g id="a" style="clip-path:url(#Z)"><path d="m 334.5 320.3 l 49.54 0.03 l 0.03 49.5 l -49.54 -0.03" transform="matrix(0.02 0.023 -0.023 0.02 15.2 3.15)" style="fill:#fff;fill-opacity:0.97;stroke:#fff;fill-rule:evenodd"/></g><g id="d" style="clip-path:url(#c)"><path d="m 215.4 380.3 l 49.4 -0.05 l 0.03 49.5 l -49.4 0.05" transform="matrix(0.02 0.023 -0.023 0.02 15.2 3.15)" style="fill:#fff;fill-opacity:0.97;stroke:#fff;fill-rule:evenodd"/></g><g id="g" style="clip-path:url(#f)"><path d="m 275 380.4 l 49.4 -0.05 l 0.03 49.5 l -49.54 -0.03" transform="matrix(0.02 0.023 -0.023 0.02 15.2 3.15)" style="fill:#fff;fill-opacity:0.97;stroke:#fff;fill-rule:evenodd"/></g><g id="j" style="clip-path:url(#i)"><path d="m 334.5 380.2 l 49.5 0.13 l 0.03 49.5 l -49.54 -0.03" transform="matrix(0.02 0.023 -0.023 0.02 15.2 3.15)" style="fill:#fff;fill-opacity:0.97;stroke:#fff;fill-rule:evenodd"/></g><clipPath id="B"><path d="M 0,0 H24 V24 H0 z"/></clipPath><clipPath id="W"><path d="M 0,0 H24 V24 H0 z"/></clipPath><clipPath id="N"><path d="M 0,0 H24 V24 H0 z"/></clipPath><clipPath id="E"><path d="M 0,0 H24 V24 H0 z"/></clipPath><clipPath id="T"><path d="M 0,0 H24 V24 H0 z"/></clipPath><clipPath id="K"><path d="M 0,0 H24 V24 H0 z"/></clipPath><clipPath id="H"><path d="M 0,0 H24 V24 H0 z"/></clipPath><clipPath id="Q"><path d="M 0,0 H24 V24 H0 z"/></clipPath><clipPath id="Z"><path d="M 0,0 H24 V24 H0 z"/></clipPath><clipPath id="i"><path d="M 0,0 H24 V24 H0 z"/></clipPath><clipPath id="f"><path d="M 0,0 H24 V24 H0 z"/></clipPath><clipPath id="9"><path d="m 3 14 h 6 v 5 h -6"/></clipPath><clipPath id="2"><path d="M 0,0 H24 V24 H0 z"/></clipPath><clipPath id="4"><path d="m 1 9 h 11 v 10 h -11"/></clipPath><clipPath id="7"><path d="M 0,0 H24 V24 H0 z"/></clipPath><clipPath id="5"><path d="m 8.83 9 l 2.79 3.29 l -7.45 6.57 l -2.79 -3.29"/></clipPath><clipPath id="c"><path d="M 0,0 H24 V24 H0 z"/></clipPath><filter id="0" filterUnits="objectBoundingBox" x="0" y="0" width="24" height="24"><feColorMatrix type="matrix" in="SourceGraphic" values="0 0 0 0 1 0 0 0 0 1 0 0 0 0 1 0 0 0 1 0"/></filter><mask id="b"><g style="filter:url(#0)"><path d="M 0,0 H24 V24 H0 z" style="fill-opacity:0.97"/></g></mask><mask id="M"><g style="filter:url(#0)"><path d="M 0,0 H24 V24 H0 z" style="fill-opacity:0.97"/></g></mask><mask id="6"><g style="filter:url(#0)"><path d="M 0,0 H24 V24 H0 z" style="fill-opacity:0.97"/></g></mask><mask id="1"><g style="filter:url(#0)"><path d="M 0,0 H24 V24 H0 z" style="fill-opacity:0.97"/></g></mask><mask id="h"><g style="filter:url(#0)"><path d="M 0,0 H24 V24 H0 z" style="fill-opacity:0.97"/></g></mask><mask id="e"><g style="filter:url(#0)"><path d="M 0,0 H24 V24 H0 z" style="fill-opacity:0.97"/></g></mask><mask id="A"><g style="filter:url(#0)"><path d="M 0,0 H24 V24 H0 z" style="fill-opacity:0.97"/></g></mask><mask id="P"><g style="filter:url(#0)"><path d="M 0,0 H24 V24 H0 z" style="fill-opacity:0.97"/></g></mask><mask id="J"><g style="filter:url(#0)"><path d="M 0,0 H24 V24 H0 z" style="fill-opacity:0.97"/></g></mask><mask id="Y"><g style="filter:url(#0)"><path d="M 0,0 H24 V24 H0 z" style="fill-opacity:0.97"/></g></mask><mask id="S"><g style="filter:url(#0)"><path d="M 0,0 H24 V24 H0 z" style="fill-opacity:0.97"/></g></mask><mask id="V"><g style="filter:url(#0)"><path d="M 0,0 H24 V24 H0 z" style="fill-opacity:0.97"/></g></mask><mask id="D"><g style="filter:url(#0)"><path d="M 0,0 H24 V24 H0 z" style="fill-opacity:0.97"/></g></mask><mask id="G"><g style="filter:url(#0)"><path d="M 0,0 H24 V24 H0 z" style="fill-opacity:0.97"/></g></mask></defs><path d="m 5.64 2.56 c 12.27 -8.59 24.71 7.28 14.71 17.4 c -9.42 9.54 -24.1 0.7 -19.49 -11.18 c 0.95 -2.48 2.52 -4.65 4.78 -6.23" style="fill:#f60"/><use xlink:href="#3" style="mask:url(#1)"/><path d="m 251.8 647.4 c 22.51 -50.92 67.5 -82.9 116.5 -82.8 c 49.1 -0.05 94.1 31.86 116.6 82.6" transform="matrix(0.02 0.023 -0.023 0.02 13.37 -4.35)" style="fill:#fff;fill-opacity:0.97;stroke:#fff;fill-rule:evenodd"/><g style="clip-path:url(#4)"><g style="clip-path:url(#5)"><use xlink:href="#8" style="mask:url(#6)"/></g></g><path d="m 381 -673.2 c -0.01 7.32 -5.87 13.1 -13.1 13.21 c -7.22 -0.05 -13.16 -5.95 -13.1 -13.17 c -0.09 -7.24 5.87 -13.1 13 -13.1 c 7.31 -0.04 13.26 5.87 13.17 13.1" transform="matrix(0.02 0.023 0.023 -0.02 13.37 -4.35)" style="fill:#fff;stroke:#fff;fill-rule:evenodd"/><g style="clip-path:url(#9)"><g style="clip-path:url(#5)"><path d="m 251.8 647.4 c 22.51 -50.92 67.5 -82.9 116.5 -82.8 c 49.1 -0.05 94.1 31.86 116.6 82.6" transform="matrix(0.02 0.023 -0.023 0.02 13.37 -4.35)" style="fill:#fff;fill-opacity:0.28;stroke:#fff;fill-rule:evenodd"/></g></g><use xlink:href="#C" style="mask:url(#A)"/><use xlink:href="#F" style="mask:url(#D)"/><use xlink:href="#I" style="mask:url(#G)"/><use xlink:href="#L" style="mask:url(#J)"/><use xlink:href="#O" style="mask:url(#M)"/><use xlink:href="#R" style="mask:url(#P)"/><use xlink:href="#U" style="mask:url(#S)"/><use xlink:href="#X" style="mask:url(#V)"/><use xlink:href="#a" style="mask:url(#Y)"/><use xlink:href="#d" style="mask:url(#b)"/><use xlink:href="#g" style="mask:url(#e)"/><use xlink:href="#j" style="mask:url(#h)"/></svg>