<svg xmlns="http://www.w3.org/2000/svg" viewBox="0 0 24 24"><path d="m 5.64 2.56 c 12.27 -8.59 24.71 7.28 14.71 17.4 c -9.42 9.54 -24.1 0.7 -19.49 -11.18 c 0.95 -2.48 2.52 -4.65 4.78 -6.23" style="fill:#f60"/><g style="fill:#fff"><path d="m 3.86 10.6 c -0.12 -0.14 -0.3 -0.4 -0.4 -0.59 c -0.18 -0.33 -0.18 -0.34 0 -0.47 c 0.1 -0.08 0.42 -0.23 0.71 -0.34 c 0.44 -0.16 0.57 -0.26 0.74 -0.57 c 0.16 -0.29 0.37 -0.47 0.89 -0.77 c 0.38 -0.21 0.89 -0.46 1.14 -0.54 c 0.62 -0.2 2.04 -0.27 2.59 -0.14 c 0.69 0.16 1.29 0.47 1.35 0.68 c 0.03 0.1 0.04 0.2 0.02 0.21 c -0.01 0.01 -0.29 -0.02 -0.61 -0.07 c -0.71 -0.12 -1.38 -0.04 -1.9 0.21 c -0.5 0.24 -0.59 0.55 -0.34 1.2 c 0.03 0.09 -0.11 0.23 -0.4 0.41 c -0.43 0.27 -0.45 0.27 -0.67 0.12 c -0.36 -0.26 -0.89 -0.39 -1.31 -0.33 c -0.33 0.05 -0.44 0.13 -0.73 0.51 c -0.19 0.25 -0.46 0.52 -0.6 0.59 c -0.25 0.13 -0.27 0.13 -0.48 -0.12"/><path d="m 16.69 12.22 c -0.53 -0.57 -0.54 -0.57 -1.03 -0.55 c -0.33 0 -0.63 0.08 -0.87 0.21 c -0.37 0.21 -0.37 0.21 -0.7 0.03 c -0.46 -0.25 -0.5 -0.32 -0.41 -0.72 c 0.12 -0.52 -0.01 -0.74 -0.52 -0.94 c -0.46 -0.18 -1.57 -0.23 -2.07 -0.1 c -0.29 0.08 -0.35 -0.1 -0.12 -0.34 c 0.55 -0.55 2.46 -0.74 3.67 -0.36 c 0.95 0.3 1.78 0.82 2 1.26 c 0.15 0.29 0.28 0.39 0.62 0.5 c 0.23 0.08 0.54 0.23 0.68 0.33 l 0.25 0.19 l -0.18 0.31 c -0.24 0.42 -0.54 0.74 -0.69 0.74 c -0.07 0 -0.36 -0.26 -0.66 -0.57"/><path d="m 8.42 19.49 c -0.3 -0.2 -0.58 -0.43 -0.63 -0.52 c -0.1 -0.17 0.04 -0.38 1.57 -2.42 l 0.99 -1.33 l -0.83 -1.33 c -0.45 -0.73 -0.84 -1.44 -0.84 -1.57 c -0.02 -0.19 -0.69 -1.23 -1.33 -2.05 c -0.04 -0.05 0.12 -0.21 0.38 -0.39 l 0.45 -0.3 l 0.71 1 c 0.5 0.7 0.77 1 0.9 1 c 0.12 0 0.46 0.35 1 1.02 c 0.52 0.64 0.87 0.99 0.95 0.96 c 0.07 -0.03 0.18 -0.05 0.25 -0.05 c 0.07 0 0.42 -0.41 0.79 -0.92 c 0.36 -0.5 0.7 -0.92 0.74 -0.92 c 0.04 0 0.24 0.11 0.45 0.24 c 0.42 0.28 0.46 0.16 -0.48 1.45 c -0.3 0.41 -0.52 0.8 -0.49 0.87 c 0.03 0.07 -0.04 0.27 -0.14 0.44 l -0.19 0.31 l 0.7 0.97 c 0.39 0.54 0.72 1.03 0.75 1.1 c 0.06 0.16 -0.27 0.46 -0.92 0.85 c -0.61 0.37 -0.68 0.34 -1.25 -0.43 c -0.23 -0.31 -0.43 -0.56 -0.46 -0.55 c -0.03 0 -0.51 0.65 -1.07 1.45 c -0.79 1.11 -1.07 1.45 -1.24 1.46 c -0.14 0.02 -0.43 -0.11 -0.77 -0.34"/></g></svg>