<svg xmlns="http://www.w3.org/2000/svg" viewBox="0 0 24 24"><path d="m 4.94 3.66 c -20.44 24.76 30.95 28.3 16.1 3 c -3.39 -5.77 -10.68 -9.56 -16.1 -3" style="fill:#ff8c00"/><path d="m 7.44 19.1 c -0.43 -0.16 -0.45 -0.35 -0.45 -3.84 v -3.41 l -0.59 -0.04 c -0.46 -0.03 -0.62 -0.09 -0.76 -0.32 c -0.18 -0.29 -0.16 -0.3 2.6 -3.11 l 2.78 -2.83 h 1.08 h 1.08 l 2.7 2.75 c 2.77 2.82 2.98 3.11 2.47 3.4 c -0.12 0.07 -0.43 0.13 -0.68 0.13 h -0.46 v 3.41 c 0 1.87 -0.04 3.46 -0.09 3.54 c -0.24 0.38 -0.61 0.4 -5 0.39 c -2.46 -0.01 -4.54 -0.04 -4.64 -0.07" style="fill:#fff"/></svg>