<svg xmlns="http://www.w3.org/2000/svg" viewBox="0 0 24 24"><path d="m 18.27 2.55 c -12.18 -8.54 -24.54 7.22 -14.61 17.27 c 9.36 9.47 23.89 0.69 19.35 -11.1 c -0.95 -2.46 -2.5 -4.62 -4.74 -6.18" style="fill:#ff8c00"/><g style="fill:#fff"><path d="m 10.92 3.8 h 0.41 c 0.06 0 0.11 0.05 0.11 0.12 v 11.19 c 0 0.06 -0.05 0.12 -0.11 0.12 h -0.41 c -0.06 0 -0.11 -0.05 -0.11 -0.12 v -11.19 c 0 -0.07 0.05 -0.12 0.11 -0.12"/><path d="m 12.21 9.63 v -4.46 l 0.42 0.29 c 2.08 1.42 3.91 3.96 4.97 6.87 c 0.26 0.71 0.49 1.4 0.52 1.53 l 0.05 0.24 h -5.96"/><path d="m 8.36 18 c -2.26 -1.11 -3.63 -1.94 -3.63 -3.16 h 8.09 l 6.29 -0.04 c 0 1.1 -0.36 1.83 -0.99 3.12 c -3.25 0.05 -6.63 0.26 -9.77 0.08"/><path d="m 9.98 10.52 v -3.49 l -0.22 0.22 c -1.11 1.11 -2.09 3.09 -2.65 5.37 c -0.14 0.55 -0.26 1.09 -0.28 1.2 l -0.03 0.19 h 3.18"/></g></svg>