<svg xmlns="http://www.w3.org/2000/svg" viewBox="0 0 48 48"><path d="m 0.61 29.49 c 9.37 44.98 73.86 -3.3 35.1 -26.2 c -15 -9.81 -39.94 3.04 -35.1 26.2" style="fill:#dcdcdc"/><path d="m 28.86 13.43 l 0.05 0.05 l 0.13 -0.05 m 1.44 1.52 l 8.92 8.3 v -8.3" style="fill-opacity:0.2"/><path d="m 28.86 5.12 l 10.54 9.83 h -8.92 c -0.79 0 -1.62 -0.78 -1.62 -1.52 v -8.31" style="fill:#fff;fill-opacity:0.39"/><g style="fill:#696969"><path d="m 10.64 30.75 v -9.43 h 0.81 v 8.32 h 3 v 1.11"/><path d="m 18.25 29.9 c -0.28 0.37 -0.55 0.63 -0.81 0.77 c -0.26 0.15 -0.53 0.23 -0.83 0.23 c -0.49 0 -0.86 -0.18 -1.13 -0.55 c -0.26 -0.37 -0.39 -0.84 -0.39 -1.41 c 0 -0.34 0.05 -0.64 0.14 -0.91 c 0.1 -0.28 0.23 -0.5 0.39 -0.67 c 0.16 -0.17 0.34 -0.29 0.54 -0.38 c 0.15 -0.06 0.37 -0.12 0.67 -0.18 c 0.61 -0.11 1.05 -0.25 1.34 -0.4 c 0 -0.16 0 -0.26 0 -0.3 c 0 -0.47 -0.07 -0.8 -0.21 -1 c -0.19 -0.26 -0.48 -0.39 -0.86 -0.39 c -0.36 0 -0.62 0.09 -0.79 0.29 c -0.17 0.19 -0.29 0.52 -0.37 1 l -0.74 -0.15 c 0.07 -0.48 0.18 -0.88 0.33 -1.17 c 0.15 -0.3 0.38 -0.53 0.66 -0.69 c 0.29 -0.16 0.63 -0.25 1 -0.25 c 0.38 0 0.69 0.07 0.93 0.21 c 0.24 0.14 0.41 0.31 0.52 0.52 c 0.11 0.21 0.19 0.47 0.23 0.79 c 0.03 0.2 0.04 0.55 0.04 1.07 v 1.54 c 0 1.08 0.02 1.76 0.05 2.05 c 0.03 0.29 0.1 0.55 0.19 0.82 h -0.79 c -0.08 -0.24 -0.13 -0.52 -0.15 -0.84 m -0.06 -2.59 c -0.27 0.17 -0.68 0.32 -1.23 0.44 c -0.31 0.07 -0.53 0.15 -0.66 0.23 c -0.13 0.09 -0.23 0.21 -0.3 0.38 c -0.07 0.16 -0.1 0.34 -0.1 0.55 c 0 0.31 0.07 0.57 0.22 0.77 c 0.16 0.21 0.38 0.31 0.67 0.31 c 0.29 0 0.55 -0.1 0.77 -0.29 c 0.23 -0.2 0.39 -0.46 0.5 -0.8 c 0.08 -0.26 0.12 -0.64 0.12 -1.16"/><path d="m 21.78 30.75 v -8.32 h -2.02 v -1.11 h 4.87 v 1.11 h -2.03 v 8.32"/><path d="m 27.45 28.55 l 0.78 0.15 c -0.13 0.7 -0.35 1.24 -0.68 1.63 c -0.33 0.38 -0.76 0.58 -1.27 0.58 c -0.65 0 -1.17 -0.31 -1.55 -0.92 c -0.38 -0.62 -0.57 -1.48 -0.57 -2.59 c 0 -1.15 0.19 -2.04 0.58 -2.68 c 0.38 -0.64 0.88 -0.95 1.5 -0.95 c 0.6 0 1.08 0.31 1.46 0.93 c 0.38 0.62 0.57 1.5 0.57 2.63 c 0 0.07 0 0.17 0 0.31 h -3.32 c 0.03 0.75 0.17 1.33 0.41 1.73 c 0.25 0.4 0.56 0.6 0.93 0.6 c 0.28 0 0.51 -0.11 0.71 -0.34 c 0.2 -0.22 0.35 -0.58 0.46 -1.07 m -2.47 -1.88 h 2.48 c -0.04 -0.57 -0.13 -1 -0.29 -1.29 c -0.24 -0.45 -0.55 -0.67 -0.93 -0.67 c -0.35 0 -0.64 0.18 -0.88 0.54 c -0.23 0.36 -0.36 0.83 -0.39 1.43"/><path d="m 28.65 30.75 l 2.38 -4.91 l -2.09 -4.52 h 0.96 l 1.12 2.42 c 0.23 0.5 0.39 0.89 0.49 1.16 c 0.14 -0.34 0.3 -0.7 0.49 -1.07 l 1.23 -2.5 h 0.88 l -2.16 4.45 l 2.32 4.98 h -1 l -1.55 -3.36 c -0.09 -0.2 -0.18 -0.41 -0.27 -0.63 c -0.14 0.34 -0.23 0.58 -0.29 0.71 l -1.54 3.29"/></g></svg>