<svg xmlns="http://www.w3.org/2000/svg" viewBox="0 0 48 48"><path d="m 47.53 29.63 c -9.37 44.98 -73.86 -3.31 -35.1 -26.2 c 15 -9.8 39.94 3.04 35.1 26.2" style="fill:#8fd244"/><path d="m 29.39 12.89 l 0.05 0.05 l 0.13 -0.05 m 1.45 1.52 l 8.91 8.31 v -8.31" style="fill-opacity:0.2"/><path d="m 29.3 4.58 l 10.54 9.82 h -8.92 c -0.79 0 -1.62 -0.78 -1.62 -1.52 v -8.3" style="fill:#fff;fill-opacity:0.39"/><g style="fill:#4069e0"><path d="m 16.59 30.1 l 0.74 -0.88 l 5.82 4.93 l -0.75 0.88"/><path d="m 16.53 26.37 l 0.75 0.88 l 5.8 -4.95 l -0.75 -0.88"/><path d="m 18.2 27.51 v 1.15 l 4.54 -0.03 v -1.15"/></g><path d="m 18.86 28 c 0 1.81 -1.43 3.27 -3.2 3.27 c -1.77 0 -3.2 -1.46 -3.2 -3.27 c 0 -1.81 1.43 -3.27 3.2 -3.27 c 1.77 0 3.2 1.46 3.2 3.27" style="fill:#6395ec"/><g style="fill:#fff"><path d="m 22.5 26.92 h 8.33 c 0.5 0 0.91 0.55 0.91 1.22 c 0 0.68 -0.41 1.22 -0.91 1.22 h -8.33 c -0.5 0 -0.91 -0.55 -0.91 -1.22 c 0 -0.67 0.41 -1.22 0.91 -1.22"/><path d="m 22.86 19.8 h 7.61 c 0.7 0 1.27 0.71 1.27 1.58 c 0 0.88 -0.57 1.58 -1.27 1.58 h -7.61 c -0.7 0 -1.27 -0.71 -1.27 -1.58 c 0 -0.88 0.57 -1.58 1.27 -1.58"/><path d="m 23.2 33.39 h 7.46 c 0.74 0 1.34 0.77 1.34 1.73 c 0 0.95 -0.6 1.73 -1.34 1.73 h -7.46 c -0.74 0 -1.34 -0.77 -1.34 -1.73 c 0 -0.95 0.6 -1.73 1.34 -1.73"/></g></svg>