<svg xmlns="http://www.w3.org/2000/svg" viewBox="0 0 48 48"><path d="m 0.61 29.49 c 9.37 44.98 73.86 -3.3 35.1 -26.2 c -15 -9.81 -39.94 3.04 -35.1 26.2" style="fill:#f9731e"/><path d="m 28.86 13.43 l 0.05 0.05 l 0.13 -0.05 m 1.44 1.52 l 8.92 8.3 v -8.3" style="fill-opacity:0.2"/><g style="fill:#fff"><path d="m 28.86 5.12 l 10.54 9.83 h -8.92 c -0.79 0 -1.62 -0.78 -1.62 -1.52 v -8.31" style="fill-opacity:0.39"/><path d="m 18.41 15.89 c -0.56 0 -1.08 0.2 -1.47 0.59 c 0 0 -4.9 4.71 -4.9 4.71 c -0.37 0.38 -0.6 0.89 -0.6 1.43 c 0 0 -0.04 6.68 -0.04 6.68 c 0 0.55 0.21 1.05 0.6 1.43 c 0 0 4.84 4.77 4.84 4.77 c 0.39 0.36 0.91 0.59 1.47 0.59 c 0 0 6.88 0.04 6.88 0.04 c 0.56 0 1.08 -0.2 1.47 -0.59 c 0 0 4.9 -4.71 4.9 -4.71 c 0.38 -0.38 0.61 -0.89 0.61 -1.43 c 0 0 0.04 -6.68 0.04 -6.68 c 0 -0.55 -0.21 -1.05 -0.6 -1.44 c 0 0 -4.84 -4.77 -4.84 -4.77 c -0.39 -0.36 -0.91 -0.59 -1.48 -0.59 c 0 0 -6.87 -0.04 -6.87 -0.04 m 6.81 7.59 c -0.66 0 -1.31 0.26 -1.79 0.73 c -0.48 0.46 -0.75 1.09 -0.75 1.76 c 0 0.64 0.27 1.27 0.75 1.74 c 0.48 0.46 1.12 0.73 1.79 0.73 c 0.69 0 1.33 -0.26 1.81 -0.73 c 0.48 -0.46 0.75 -1.09 0.75 -1.74 c 0 -1.38 -1.14 -2.48 -2.55 -2.48 m -6.79 -2.3 c 1.08 0 2.12 0.34 2.97 0.99 c 0 0 -1.18 2.04 -1.18 2.04 c -0.48 -0.46 -1.12 -0.73 -1.79 -0.73 c -0.68 0 -1.33 0.26 -1.8 0.73 c -0.48 0.46 -0.75 1.09 -0.75 1.76 c 0 0.64 0.27 1.27 0.75 1.74 c 0.48 0.46 1.12 0.73 1.8 0.73 c 0.64 0 1.27 -0.24 1.75 -0.67 c 0 0 1.2 2 1.2 2 c -0.85 0.63 -1.89 0.97 -2.95 0.97 c -1.31 0 -2.55 -0.5 -3.46 -1.39 c -0.93 -0.91 -1.45 -2.12 -1.45 -3.37 c 0 -2.64 2.2 -4.79 4.92 -4.79 m 6.79 0 c 2.72 0 4.92 2.14 4.92 4.79 c 0 2.63 -2.2 4.77 -4.92 4.77 c -1.29 0 -2.53 -0.5 -3.46 -1.39 c -0.91 -0.91 -1.43 -2.12 -1.43 -3.37 c 0 -2.64 2.2 -4.79 4.9 -4.79"/></g></svg>