<svg xmlns="http://www.w3.org/2000/svg" viewBox="0 0 48 48"><path d="m 0.61 29.49 c 9.37 44.98 73.86 -3.3 35.1 -26.2 c -15 -9.81 -39.94 3.04 -35.1 26.2" style="fill:#eaeaea"/><path d="m 28.86 13.43 l 0.05 0.05 l 0.13 -0.05 m 1.44 1.52 l 8.92 8.3 v -8.3" style="fill-opacity:0.2"/><path d="m 28.86 5.12 l 10.54 9.83 h -8.92 c -0.79 0 -1.62 -0.78 -1.62 -1.52 v -8.31" style="fill:#fff;fill-opacity:0.39"/><path d="m 31.2 19.35 c -1.36 -0.18 -4.91 2.37 -8.4 6 c -1.56 1.64 -2.91 3.25 -3.95 4.78 c 1.21 0.41 2.19 1.43 2.58 2.71 c 1.45 -1.09 3 -2.5 4.56 -4.14 c 3.96 -4.16 6.46 -8.29 5.58 -9.21 c -0.09 -0.1 -0.21 -0.16 -0.37 -0.18 m -12.99 12.62 c -4.51 1.27 -1.13 4.27 -4.51 6.32 c 4.51 0 6.77 -2.37 6.77 -3.95 c 0 -0.79 0.07 -2.24 -2.26 -2.37" style="fill:#a37fdc"/></svg>