<svg xmlns="http://www.w3.org/2000/svg" viewBox="0 0 48 48"><path d="m 0.61 29.49 c 9.37 44.98 73.85 -3.3 35.1 -26.2 c -15 -9.8 -39.94 3.04 -35.1 26.2" style="fill:#e6ecef"/><path d="m 28.86 13.43 l 0.05 0.05 l 0.13 -0.05 m 1.45 1.51 l 8.91 8.31 v -8.31" style="fill-opacity:0.2"/><path d="m 28.86 5.11 l 10.54 9.82 h -8.91 c -0.79 0 -1.62 -0.78 -1.62 -1.51 v -8.31" style="fill:#fff;fill-opacity:0.39"/><path d="m 35.3 29.51 c 0.09 -0.18 -0.01 -0.37 -0.41 -0.81 c -0.58 -0.64 -1.24 -1.77 -1.77 -3 c -0.53 -1.25 -0.62 -1.63 -1 -4.16 c -0.11 -0.68 -0.22 -1.3 -0.25 -1.39 c -0.04 -0.1 -0.41 -0.27 -1.05 -0.48 c -1.07 -0.34 -1.59 -0.68 -2.24 -1.46 c -0.49 -0.59 -1.19 -2.27 -1.38 -3.3 c -0.13 -0.71 -0.16 -0.79 -0.32 -0.84 c -0.19 -0.06 -4.36 0.41 -4.63 0.53 c -0.21 0.09 -0.29 0.29 -0.38 0.93 c -0.1 0.71 -0.65 1.95 -1.2 2.7 c -0.26 0.35 -0.53 0.73 -0.61 0.83 l -0.14 0.2 l 3 7.14 c 2.29 5.46 3 7.15 3.14 7.19 c 0.19 0.06 9.16 -3.86 9.25 -4.05 m -5 1.28 c -0.16 -0.4 -0.38 -0.53 -0.65 -0.41 c -0.28 0.12 -0.33 0.37 -0.16 0.77 l 0.09 0.21 l -1.55 0.68 l -1.55 0.68 l -1.29 -3.07 l 0.24 -0.11 c 0.44 -0.19 0.61 -0.41 0.5 -0.65 c -0.11 -0.25 -0.37 -0.27 -0.81 -0.08 l -0.24 0.11 l -4.05 -9.63 l 0.44 -0.61 c 0.69 -0.95 1.22 -2.17 1.44 -3.3 c 0.03 -0.15 0.16 -0.18 1.77 -0.38 c 0.96 -0.12 1.77 -0.21 1.82 -0.19 c 0.04 0.01 0.16 0.37 0.27 0.8 c 0.6 2.54 2 4.24 4 4.81 l 0.6 0.17 l 0.13 0.85 c 0.46 3.06 0.7 3.95 1.49 5.47 c 0.29 0.57 0.74 1.32 0.99 1.66 c 0.25 0.34 0.46 0.65 0.48 0.68 c 0.01 0.03 -0.86 0.44 -1.93 0.91 l -1.96 0.86 m -0.74 -1.54 c 0 -0.13 -0.04 -0.32 -0.09 -0.44 c -0.05 -0.12 -0.16 -0.28 -0.25 -0.37 c -0.14 -0.13 -0.2 -0.13 -0.42 -0.02 c -0.22 0.12 -0.25 0.18 -0.21 0.45 c 0.02 0.19 0.11 0.4 0.23 0.55 c 0.17 0.21 0.23 0.23 0.46 0.15 c 0.23 -0.08 0.27 -0.13 0.28 -0.32 m 2.09 -2.78 c 0.13 -0.12 0.14 -0.2 0.04 -0.38 c -0.11 -0.2 -0.17 -0.22 -0.46 -0.16 c -0.2 0.04 -0.44 0.14 -0.61 0.27 c -0.24 0.18 -0.27 0.23 -0.2 0.45 c 0.06 0.21 0.11 0.25 0.32 0.23 c 0.3 -0.02 0.7 -0.2 0.92 -0.41 m -1.95 0.86 c 0.13 -0.12 0.13 -0.2 0.03 -0.38 c -0.11 -0.2 -0.17 -0.21 -0.46 -0.16 c -0.21 0.04 -0.44 0.14 -0.61 0.27 c -0.24 0.18 -0.27 0.23 -0.2 0.45 c 0.06 0.21 0.11 0.25 0.32 0.23 c 0.3 -0.02 0.7 -0.2 0.92 -0.41 m -1.96 0.86 c 0.13 -0.12 0.14 -0.2 0.04 -0.38 c -0.11 -0.2 -0.17 -0.21 -0.46 -0.16 c -0.21 0.04 -0.44 0.14 -0.61 0.27 c -0.24 0.18 -0.27 0.23 -0.2 0.45 c 0.06 0.21 0.11 0.25 0.32 0.23 c 0.3 -0.02 0.7 -0.2 0.92 -0.41 m 0.59 -1.85 c 0 -0.13 -0.04 -0.32 -0.09 -0.44 c -0.05 -0.12 -0.16 -0.28 -0.25 -0.37 c -0.14 -0.13 -0.2 -0.13 -0.42 -0.02 c -0.22 0.12 -0.25 0.18 -0.21 0.45 c 0.02 0.19 0.11 0.4 0.23 0.55 c 0.16 0.21 0.22 0.23 0.46 0.15 c 0.23 -0.08 0.27 -0.13 0.27 -0.32 m -0.74 -1.75 c 0 -0.13 -0.04 -0.32 -0.09 -0.44 c -0.05 -0.12 -0.16 -0.28 -0.25 -0.37 c -0.14 -0.13 -0.2 -0.13 -0.42 -0.02 c -0.22 0.12 -0.25 0.18 -0.21 0.45 c 0.02 0.19 0.11 0.4 0.23 0.55 c 0.17 0.21 0.23 0.23 0.46 0.15 c 0.23 -0.08 0.27 -0.13 0.27 -0.32 m 3.07 -3.21 c 0.13 -0.12 0.14 -0.2 0.04 -0.38 c -0.11 -0.2 -0.17 -0.22 -0.46 -0.16 c -0.2 0.04 -0.44 0.14 -0.61 0.27 c -0.24 0.18 -0.27 0.23 -0.2 0.45 c 0.06 0.21 0.11 0.24 0.32 0.23 c 0.3 -0.03 0.71 -0.2 0.92 -0.41 m -1.95 0.86 c 0.13 -0.12 0.13 -0.2 0.03 -0.38 c -0.11 -0.2 -0.17 -0.22 -0.46 -0.16 c -0.21 0.04 -0.44 0.14 -0.61 0.27 c -0.24 0.18 -0.27 0.23 -0.2 0.45 c 0.06 0.21 0.11 0.24 0.32 0.23 c 0.3 -0.03 0.7 -0.21 0.92 -0.41 m -1.96 0.86 c 0.13 -0.12 0.14 -0.2 0.04 -0.38 c -0.11 -0.2 -0.17 -0.22 -0.46 -0.16 c -0.21 0.04 -0.44 0.14 -0.61 0.27 c -0.24 0.18 -0.27 0.23 -0.2 0.45 c 0.06 0.21 0.11 0.25 0.32 0.23 c 0.3 -0.03 0.7 -0.21 0.92 -0.41 m -1.95 0.86 c 0.13 -0.12 0.14 -0.2 0.04 -0.38 c -0.11 -0.2 -0.17 -0.22 -0.46 -0.16 c -0.2 0.04 -0.44 0.14 -0.61 0.27 c -0.24 0.18 -0.27 0.23 -0.2 0.45 c 0.06 0.21 0.11 0.25 0.32 0.23 c 0.3 -0.03 0.7 -0.21 0.92 -0.41 m 1.57 -2.28 c 0 -0.13 -0.04 -0.32 -0.09 -0.44 c -0.05 -0.12 -0.16 -0.28 -0.25 -0.37 c -0.13 -0.13 -0.2 -0.13 -0.41 -0.02 c -0.22 0.12 -0.25 0.18 -0.21 0.45 c 0.02 0.19 0.11 0.4 0.23 0.55 c 0.16 0.21 0.22 0.23 0.46 0.15 c 0.23 -0.08 0.27 -0.13 0.27 -0.32 m -0.74 -1.75 c 0 -0.13 -0.04 -0.32 -0.09 -0.44 c -0.05 -0.12 -0.16 -0.28 -0.25 -0.37 c -0.14 -0.13 -0.2 -0.13 -0.42 -0.02 c -0.22 0.12 -0.25 0.18 -0.21 0.45 c 0.02 0.19 0.11 0.4 0.23 0.55 c 0.16 0.21 0.23 0.23 0.46 0.15 c 0.23 -0.08 0.27 -0.13 0.27 -0.32 m -0.73 -1.75 c 0 -0.13 -0.04 -0.32 -0.09 -0.44 c -0.05 -0.11 -0.16 -0.28 -0.25 -0.37 c -0.14 -0.13 -0.2 -0.13 -0.42 -0.02 c -0.22 0.12 -0.25 0.18 -0.21 0.45 c 0.02 0.19 0.11 0.4 0.23 0.55 c 0.17 0.21 0.23 0.23 0.46 0.15 c 0.23 -0.08 0.27 -0.13 0.28 -0.32 m -0.74 -1.75 c 0 -0.13 -0.04 -0.32 -0.09 -0.44 c -0.05 -0.11 -0.16 -0.28 -0.25 -0.36 c -0.13 -0.13 -0.2 -0.14 -0.41 -0.02 c -0.22 0.12 -0.25 0.18 -0.21 0.45 c 0.02 0.19 0.11 0.4 0.23 0.55 c 0.17 0.21 0.23 0.23 0.47 0.15 c 0.23 -0.08 0.27 -0.13 0.27 -0.32 m 0.22 17.32 c 0.09 -0.19 -1.46 -3.85 -1.65 -3.92 c -0.19 -0.06 -8.18 3.43 -8.27 3.62 c -0.09 0.19 1.45 3.85 1.64 3.92 c 0.2 0.06 8.18 -3.43 8.27 -3.62 m -4.06 0.85 c -0.17 -0.4 -0.38 -0.53 -0.66 -0.41 c -0.27 0.12 -0.32 0.37 -0.16 0.77 l 0.09 0.21 l -1.55 0.68 l -1.55 0.68 l -0.43 -1.02 l 0.4 -0.18 c 0.6 -0.27 0.78 -0.46 0.67 -0.73 c -0.11 -0.27 -0.37 -0.27 -0.98 0 l -0.4 0.18 l -0.43 -1.02 l 3.07 -1.34 l 0.17 0.2 c 0.16 0.18 0.21 0.19 0.46 0.08 c 0.25 -0.11 0.28 -0.16 0.25 -0.39 l -0.02 -0.27 l 3.07 -1.34 l 0.43 1.02 l -0.4 0.18 c -0.6 0.27 -0.78 0.46 -0.66 0.72 c 0.11 0.27 0.37 0.27 0.97 0.01 l 0.4 -0.18 l 0.43 1.02 l -1.55 0.68 l -1.55 0.68 m 0.58 -1.56 c 0.13 -0.12 0.14 -0.2 0.04 -0.38 c -0.11 -0.2 -0.17 -0.22 -0.46 -0.16 c -0.21 0.04 -0.44 0.14 -0.61 0.27 c -0.24 0.18 -0.27 0.23 -0.2 0.45 c 0.06 0.21 0.12 0.25 0.32 0.23 c 0.3 -0.02 0.7 -0.2 0.92 -0.41 m -1.95 0.86 c 0.13 -0.12 0.14 -0.2 0.04 -0.38 c -0.11 -0.2 -0.17 -0.22 -0.46 -0.16 c -0.2 0.04 -0.44 0.14 -0.61 0.27 c -0.24 0.18 -0.27 0.23 -0.2 0.45 c 0.06 0.21 0.11 0.25 0.32 0.23 c 0.3 -0.02 0.7 -0.2 0.92 -0.41 m 2.37 -5.72 c 0.05 -0.27 -2.15 -9.1 -2.32 -9.27 c -0.07 -0.08 -0.39 -0.2 -0.72 -0.25 c -0.33 -0.05 -1.06 -0.23 -1.63 -0.39 c -0.64 -0.18 -1.28 -0.29 -1.66 -0.29 c -0.6 0 -0.68 0.02 -1.57 0.41 c -0.89 0.39 -0.96 0.43 -1.37 0.88 c -0.27 0.29 -0.63 0.84 -0.94 1.43 c -0.28 0.54 -0.66 1.2 -0.85 1.48 c -0.19 0.28 -0.33 0.59 -0.32 0.7 c 0.03 0.27 4.75 7.96 4.98 8.1 l 0.18 0.12 l 3.09 -1.35 l 3.09 -1.36 m -6.11 1.62 c -0.08 -0.12 -1.11 -1.78 -2.28 -3.7 l -2.14 -3.47 l 0.21 -0.35 c 0.11 -0.2 0.4 -0.71 0.63 -1.14 c 0.87 -1.62 1.15 -1.93 2.08 -2.34 c 0.93 -0.41 1.34 -0.4 3.09 0.07 c 0.47 0.13 1.04 0.27 1.25 0.32 l 0.4 0.09 l 0.99 3.98 c 0.55 2.19 1.02 4.09 1.05 4.23 l 0.05 0.26 l -2.6 1.14 l -2.6 1.14 m 2.63 -1.98 c 0 -0.13 -0.04 -0.32 -0.09 -0.44 c -0.05 -0.11 -0.16 -0.28 -0.25 -0.36 c -0.14 -0.13 -0.2 -0.14 -0.42 -0.02 c -0.22 0.12 -0.25 0.18 -0.21 0.45 c 0.02 0.19 0.11 0.4 0.23 0.55 c 0.16 0.21 0.23 0.23 0.46 0.15 c 0.23 -0.08 0.27 -0.13 0.27 -0.32 m -0.74 -1.75 c 0 -0.13 -0.04 -0.32 -0.09 -0.44 c -0.05 -0.11 -0.16 -0.28 -0.25 -0.36 c -0.14 -0.13 -0.2 -0.14 -0.42 -0.02 c -0.22 0.12 -0.25 0.18 -0.21 0.45 c 0.02 0.19 0.11 0.4 0.23 0.55 c 0.17 0.21 0.23 0.23 0.46 0.14 c 0.23 -0.08 0.27 -0.13 0.27 -0.32 m -0.73 -1.75 c 0 -0.13 -0.04 -0.32 -0.09 -0.44 c -0.05 -0.12 -0.16 -0.28 -0.25 -0.37 c -0.14 -0.13 -0.2 -0.13 -0.41 -0.02 c -0.22 0.12 -0.25 0.18 -0.22 0.45 c 0.03 0.19 0.11 0.4 0.23 0.55 c 0.17 0.21 0.23 0.23 0.46 0.15 c 0.23 -0.08 0.28 -0.13 0.28 -0.32 m -0.74 -1.75 c 0 -0.13 -0.04 -0.32 -0.09 -0.44 c -0.05 -0.12 -0.16 -0.28 -0.25 -0.37 c -0.14 -0.13 -0.2 -0.13 -0.42 -0.02 c -0.22 0.12 -0.25 0.18 -0.21 0.45 c 0.02 0.19 0.11 0.4 0.23 0.55 c 0.16 0.21 0.22 0.23 0.46 0.15 c 0.23 -0.08 0.27 -0.13 0.27 -0.32 m 2.09 -2.78 c 0.11 -0.11 0.13 -0.21 0.06 -0.37 c -0.11 -0.27 -0.48 -0.28 -0.82 -0.01 c -0.18 0.14 -0.2 0.21 -0.14 0.41 c 0.06 0.21 0.11 0.24 0.32 0.23 c 0.29 -0.02 0.38 -0.07 0.59 -0.26 m -1.62 0.71 c 0.13 -0.12 0.13 -0.2 0.03 -0.38 c -0.11 -0.2 -0.17 -0.22 -0.46 -0.16 c -0.21 0.04 -0.44 0.14 -0.61 0.27 c -0.24 0.18 -0.27 0.23 -0.2 0.45 c 0.06 0.21 0.11 0.25 0.32 0.23 c 0.3 -0.03 0.7 -0.21 0.92 -0.41 m -1.96 0.86 c 0.13 -0.12 0.14 -0.2 0.04 -0.38 c -0.11 -0.2 -0.17 -0.22 -0.46 -0.16 c -0.2 0.04 -0.44 0.14 -0.61 0.27 c -0.24 0.18 -0.27 0.23 -0.2 0.45 c 0.06 0.21 0.11 0.25 0.32 0.23 c 0.3 -0.03 0.7 -0.21 0.92 -0.41 m -1.96 0.86 c 0.11 -0.11 0.13 -0.21 0.06 -0.37 c -0.12 -0.27 -0.48 -0.28 -0.82 -0.01 c -0.18 0.14 -0.21 0.21 -0.14 0.41 c 0.06 0.21 0.11 0.25 0.32 0.23 c 0.29 -0.02 0.38 -0.06 0.59 -0.26 m 2.34 -2.28 c 0 -0.13 -0.04 -0.32 -0.09 -0.44 c -0.05 -0.11 -0.16 -0.28 -0.25 -0.36 c -0.14 -0.13 -0.2 -0.14 -0.42 -0.02 c -0.22 0.12 -0.25 0.18 -0.21 0.45 c 0.02 0.19 0.11 0.4 0.23 0.55 c 0.16 0.21 0.22 0.23 0.46 0.15 c 0.23 -0.08 0.27 -0.13 0.27 -0.32"/></svg>