<svg xmlns="http://www.w3.org/2000/svg" viewBox="0 0 48 48"><path d="m 0.61 29.49 c 9.37 44.98 73.86 -3.3 35.1 -26.2 c -15 -9.81 -39.94 3.04 -35.1 26.2" style="fill:#3670c8"/><path d="m 28.86 13.43 l 0.05 0.05 l 0.13 -0.05 m 1.44 1.52 l 8.92 8.3 v -8.3" style="fill-opacity:0.2"/><path d="m 28.86 5.12 l 10.54 9.83 h -8.92 c -0.79 0 -1.62 -0.78 -1.62 -1.52 v -8.31" style="fill:#fff;fill-opacity:0.39"/><g style="fill:#86cdde"><path d="m 14.19 17.24 c -0.81 0 -1.25 1.06 -0.73 1.75 l 1.71 2.34 c -1.72 1.74 -3.11 4.17 -3.11 6.9 c 0 1.03 0.93 1.03 0.93 1.03 h 17.1 c 0 0 0.95 0 0.95 -1.08 c 0 -2.71 -1.39 -5.12 -3.11 -6.84 l 1.7 -2.34 c 0.53 -0.7 0.07 -1.78 -0.75 -1.75 c -0.28 0.01 -0.54 0.16 -0.72 0.4 l -1.77 2.44 c -1.43 -0.95 -3.09 -1.49 -4.86 -1.49 c -1.78 0 -3.43 0.55 -4.86 1.49 l -1.77 -2.44 c -0.18 -0.25 -0.46 -0.4 -0.75 -0.4 m 2.62 6.68 c 0.66 0 1.19 0.6 1.19 1.34 c 0 0.74 -0.53 1.33 -1.19 1.33 c -0.66 0 -1.19 -0.59 -1.19 -1.33 c 0 -0.74 0.53 -1.34 1.19 -1.34 m 9.51 0 c 0.66 0 1.19 0.6 1.19 1.34 c 0 0.74 -0.53 1.33 -1.19 1.33 c -0.66 0 -1.19 -0.59 -1.19 -1.33 c 0 -0.74 0.53 -1.34 1.19 -1.34"/><path d="m 14.2 34.94 h 0.75 v 1 h -0.75"/><path d="m 18.21 33.71 c -0.53 0 -0.89 0.07 -1.09 0.2 c -0.2 0.14 -0.3 0.37 -0.3 0.69 c 0 0.26 0.07 0.46 0.23 0.62 c 0.15 0.15 0.36 0.23 0.62 0.23 c 0.36 0 0.65 -0.14 0.87 -0.43 c 0.22 -0.29 0.33 -0.67 0.33 -1.15 v -0.16 m 0.65 -0.3 v 2.54 h -0.65 v -0.68 c -0.15 0.27 -0.34 0.47 -0.56 0.6 c -0.22 0.13 -0.49 0.19 -0.81 0.19 c -0.41 0 -0.73 -0.13 -0.97 -0.38 c -0.24 -0.26 -0.36 -0.6 -0.36 -1.03 c 0 -0.5 0.15 -0.88 0.45 -1.13 c 0.3 -0.26 0.75 -0.38 1.34 -0.38 h 0.91 v -0.07 c 0 -0.34 -0.1 -0.6 -0.3 -0.78 c -0.2 -0.18 -0.47 -0.28 -0.82 -0.28 c -0.23 0 -0.45 0.03 -0.66 0.09 c -0.21 0.06 -0.42 0.15 -0.62 0.27 v -0.68 c 0.24 -0.11 0.47 -0.18 0.69 -0.23 c 0.23 -0.05 0.44 -0.08 0.66 -0.08 c 0.57 0 1 0.16 1.28 0.5 c 0.29 0.33 0.43 0.84 0.43 1.52"/><path d="m 22.65 33.71 c -0.52 0 -0.89 0.07 -1.09 0.2 c -0.2 0.14 -0.3 0.37 -0.3 0.69 c 0 0.26 0.07 0.46 0.23 0.62 c 0.15 0.15 0.36 0.23 0.62 0.23 c 0.36 0 0.65 -0.14 0.87 -0.43 c 0.22 -0.29 0.33 -0.67 0.33 -1.15 v -0.16 m 0.65 -0.3 v 2.54 h -0.65 v -0.68 c -0.15 0.27 -0.33 0.47 -0.55 0.6 c -0.22 0.13 -0.49 0.19 -0.81 0.19 c -0.41 0 -0.73 -0.13 -0.97 -0.38 c -0.24 -0.26 -0.36 -0.6 -0.36 -1.03 c 0 -0.5 0.15 -0.88 0.45 -1.13 c 0.3 -0.26 0.75 -0.38 1.34 -0.38 h 0.91 v -0.07 c 0 -0.34 -0.1 -0.6 -0.3 -0.78 c -0.2 -0.18 -0.47 -0.28 -0.83 -0.28 c -0.23 0 -0.45 0.03 -0.66 0.09 c -0.21 0.06 -0.42 0.15 -0.62 0.27 v -0.68 c 0.24 -0.11 0.47 -0.18 0.7 -0.23 c 0.22 -0.05 0.44 -0.08 0.65 -0.08 c 0.57 0 1 0.16 1.29 0.5 c 0.29 0.33 0.43 0.84 0.43 1.52"/><path d="m 28.1 33.73 c 0 -0.54 -0.1 -0.96 -0.3 -1.26 c -0.2 -0.31 -0.46 -0.46 -0.81 -0.46 c -0.34 0 -0.62 0.15 -0.81 0.46 c -0.2 0.3 -0.3 0.73 -0.3 1.26 c 0 0.54 0.1 0.96 0.3 1.27 c 0.2 0.3 0.47 0.46 0.81 0.46 c 0.34 0 0.61 -0.15 0.81 -0.46 c 0.2 -0.31 0.3 -0.73 0.3 -1.27 m -2.21 -1.55 c 0.14 -0.27 0.31 -0.46 0.52 -0.59 c 0.21 -0.13 0.46 -0.19 0.75 -0.19 c 0.48 0 0.87 0.21 1.17 0.64 c 0.3 0.43 0.45 0.99 0.45 1.69 c 0 0.7 -0.15 1.27 -0.45 1.7 c -0.3 0.43 -0.69 0.64 -1.17 0.64 c -0.29 0 -0.54 -0.06 -0.75 -0.19 c -0.21 -0.13 -0.38 -0.32 -0.52 -0.59 v 0.67 h -0.65 v -6.18 h 0.65"/></g></svg>