<svg xmlns="http://www.w3.org/2000/svg" viewBox="0 0 48 48"><path d="m 0.61 29.49 c 9.37 44.98 73.86 -3.3 35.1 -26.2 c -15 -9.81 -39.94 3.04 -35.1 26.2" style="fill:#dcdcdc"/><path d="m 28.86 13.43 l 0.05 0.05 l 0.13 -0.05 m 1.44 1.52 l 8.92 8.3 v -8.3" style="fill-opacity:0.2"/><path d="m 28.86 5.12 l 10.54 9.83 h -8.92 c -0.79 0 -1.62 -0.78 -1.62 -1.52 v -8.31" style="fill:#fff;fill-opacity:0.39"/><path d="m 20.71 24.81 v -2.45 c 0 -0.28 0.23 -0.5 0.52 -0.5 h 1.79 c 0.29 0 0.52 0.22 0.52 0.5 v 4.49 c 0 0.07 -0.04 0.12 -0.07 0.17 l -0.45 0.43 c -0.11 0.1 -0.11 0.26 0 0.34 l 0.45 0.43 c 0.05 0.05 0.07 0.11 0.07 0.17 v 2.45 c 0 0.28 -0.23 0.5 -0.52 0.5 h -1.79 c -0.29 0 -0.52 -0.22 -0.52 -0.5 v -4.49 c 0 -0.07 0.04 -0.12 0.07 -0.17 l 0.45 -0.43 c 0.11 -0.1 0.11 -0.26 0 -0.34 l -0.45 -0.43 c -0.05 -0.05 -0.07 -0.1 -0.07 -0.17 m 8 1.8 c 0 -3.56 -2.98 -6.44 -6.66 -6.44 c -3.68 0 -6.65 2.88 -6.65 6.44 c 0 3.56 2.98 6.45 6.65 6.45 c 3.68 0 6.66 -2.89 6.66 -6.45 m 2.1 0 c 0 4.68 -3.92 8.46 -8.74 8.46 c -4.84 0 -8.74 -3.8 -8.74 -8.46 c 0 -4.68 3.93 -8.46 8.74 -8.46 c 4.82 0 8.74 3.79 8.74 8.46 m -19.25 0 c 0 5.61 4.69 10.16 10.49 10.16 c 5.8 0 10.49 -4.55 10.49 -10.16 c 0 -5.61 -4.7 -10.16 -10.49 -10.16 c -5.8 0 -10.49 4.54 -10.49 10.16 m -0.71 0 c 0 -6 5 -10.85 11.2 -10.85 c 6.19 0 11.2 4.85 11.2 10.85 c 0 6 -5 10.85 -11.2 10.85 c -6.19 0 -11.2 -4.86 -11.2 -10.85" style="fill:#777"/></svg>