<svg xmlns="http://www.w3.org/2000/svg" viewBox="0 0 48 48"><path d="m 0.61 29.49 c 9.37 44.98 73.86 -3.3 35.1 -26.2 c -15 -9.81 -39.94 3.04 -35.1 26.2" style="fill:#c2b8af"/><path d="m 29.36 12 l 0.05 0.05 l 0.13 -0.05 m 1.44 1.52 l 8.92 8.31 v -8.31" style="fill-opacity:0.2"/><path d="m 29.46 3.75 l 10.54 9.82 h -8.91 c -0.79 0 -1.62 -0.78 -1.62 -1.52 v -8.3" style="fill:#fff;fill-opacity:0.39"/><path d="m 22.87 16.84 c -0.57 0 -1.02 0.08 -1.25 0.33 c -0.11 0.11 -0.19 0.3 -0.31 0.6 c -0.11 0.3 -0.25 0.7 -0.39 1.2 c -0.3 0.99 -0.66 2.32 -1.05 3.99 c -0.59 2.39 -0.18 3.8 0.23 4.57 c 0.25 0.48 0.46 0.84 0.52 1.3 c 0.06 0.46 -0.04 1.05 -0.42 1.98 c -0.29 0.68 -0.57 1.06 -0.83 1.28 c -0.26 0.22 -0.5 0.29 -0.73 0.33 c -0.66 -0.15 -1.23 -0.22 -1.66 -0.22 c -0.22 0 -0.42 0.02 -0.57 0.07 c -0.16 0.05 -0.29 0.13 -0.34 0.27 c -0.07 0.19 0.03 0.38 0.19 0.56 c 0.16 0.18 0.41 0.36 0.72 0.56 c 0.62 0.38 1.52 0.79 2.55 1.13 c 1.02 0.35 1.97 0.57 2.72 0.65 c 0.37 0.04 0.69 0.04 0.94 0.01 c 0.25 -0.04 0.45 -0.13 0.52 -0.32 c 0.05 -0.14 0.01 -0.28 -0.08 -0.42 c -0.09 -0.13 -0.22 -0.27 -0.39 -0.39 c -0.34 -0.27 -0.83 -0.56 -1.44 -0.84 c -0.26 -0.26 -0.48 -0.46 -0.61 -0.77 c -0.12 -0.32 -0.15 -0.78 0.06 -1.57 c 0.41 -1.55 0.91 -2 1.49 -2.36 c 0.58 -0.35 1.31 -0.59 2.08 -1.59 c 1.28 -1.67 1.63 -2.96 2.36 -4.91 c 0.39 -1.02 0.66 -1.78 0.83 -2.3 c 0.09 -0.26 0.15 -0.46 0.18 -0.62 c 0.04 -0.15 0.06 -0.25 0 -0.37 c -0.38 -0.69 -1.28 -1.21 -2.29 -1.57 c -1 -0.36 -2.14 -0.57 -2.99 -0.57 m 0.11 0.71 c 0.59 0 1.36 0.14 1.98 0.35 c 0.67 0.22 1.32 0.5 1.78 0.76 c 0.22 0.13 0.41 0.24 0.52 0.35 c 0.11 0.11 0.14 0.19 0.14 0.21 c -0.16 0.84 -0.46 1.48 -0.61 1.85 c -0.34 -0.2 -0.71 -0.21 -1.05 -0.09 c -0.42 0.13 -0.84 0.37 -1.3 0.56 c -0.46 0.18 -0.93 0.3 -1.45 0.21 c -0.51 -0.09 -1.09 -0.39 -1.74 -1.08 c 0.02 -0.09 0.52 -1.85 0.87 -2.9 c 0.01 -0.03 0.07 -0.1 0.24 -0.14 c 0.16 -0.05 0.38 -0.06 0.64 -0.06" style="fill:#a00"/></svg>