<svg xmlns="http://www.w3.org/2000/svg" viewBox="0 0 48 48"><path d="m 0.61 29.49 c 9.37 44.98 73.86 -3.3 35.1 -26.2 c -15 -9.81 -39.94 3.04 -35.1 26.2" style="fill:#ffa400"/><path d="m 28.86 13.43 l 0.05 0.05 l 0.13 -0.05 m 1.44 1.52 l 8.92 8.3 v -8.3" style="fill-opacity:0.2"/><g style="fill:#fff"><path d="m 28.86 5.12 l 10.54 9.83 h -8.92 c -0.79 0 -1.62 -0.78 -1.62 -1.52 v -8.31" style="fill-opacity:0.39"/><path d="m 21.26 36.69 c -1.15 -0.2 -2.2 -1.09 -2.95 -2.53 l -0.28 -0.54 l -0.55 0.05 c -0.3 0.02 -0.94 0.04 -1.41 0.04 c -3.46 -0.04 -4.8 -1.45 -3.21 -3.36 c 0.52 -0.63 1.88 -1.63 2.87 -2.12 l 0.31 -0.15 l -0.49 -0.32 c -2 -1.31 -3.7 -3 -4.43 -4.45 c -0.35 -0.7 -0.46 -1.14 -0.43 -1.71 c 0.05 -0.99 0.67 -1.57 1.82 -1.73 c 1.11 -0.15 2.78 0.25 4.55 1.08 l 0.83 0.39 v -0.29 c 0 -0.39 0.14 -0.9 0.39 -1.41 c 0.27 -0.54 0.97 -1.25 1.52 -1.54 c 2.29 -1.22 5.14 -0.02 5.73 2.41 c 0.04 0.19 0.08 0.45 0.08 0.58 v 0.24 l 0.68 -0.33 c 1.79 -0.86 3.56 -1.29 4.7 -1.14 c 1.13 0.15 1.75 0.75 1.82 1.72 c 0.11 1.65 -1.75 4 -4.74 6.08 l -0.6 0.41 l 0.3 0.14 c 0.79 0.39 1.96 1.21 2.57 1.81 c 1.64 1.6 1.15 3.04 -1.2 3.52 c -0.69 0.14 -1.85 0.2 -2.7 0.14 c -0.4 -0.03 -0.8 -0.05 -0.88 -0.05 c -0.13 0 -0.18 0.07 -0.43 0.54 c -0.73 1.39 -1.71 2.26 -2.81 2.49 c -0.43 0.09 -0.66 0.09 -1.06 0.02 m 1.18 -1.14 c 0.2 -0.06 0.46 -0.19 0.59 -0.27 c 0.27 -0.18 0.91 -0.82 0.91 -0.9 c 0 -0.06 -0.56 -0.25 -1.07 -0.36 c -0.45 -0.09 -1.75 -0.09 -2.21 0 c -0.55 0.11 -1.07 0.29 -1.07 0.38 c 0 0.11 0.63 0.72 0.93 0.91 c 0.61 0.38 1.29 0.46 1.93 0.25 m -4.61 -2.59 c -0.11 -0.28 -0.29 -1.07 -0.38 -1.69 c -0.1 -0.7 -0.12 -2.44 -0.03 -3 c 0.03 -0.2 0.05 -0.37 0.04 -0.38 c -0.04 -0.04 -0.59 0.24 -1.09 0.53 c -1.89 1.12 -2.82 2.27 -2.61 3.22 c 0.21 0.91 1.49 1.48 3.39 1.49 h 0.74 m 9.56 -0.09 c 0.63 -0.1 0.96 -0.2 1.36 -0.39 c 0.95 -0.47 1.2 -1.18 0.73 -2.11 c -0.29 -0.57 -1.27 -1.46 -2.25 -2.05 c -0.48 -0.29 -1.21 -0.65 -1.24 -0.61 c -0.01 0.01 0 0.25 0.04 0.53 c 0.15 1.25 0.04 2.77 -0.29 4 c -0.09 0.37 -0.17 0.68 -0.17 0.68 c 0 0.05 1.4 0 1.83 -0.07 m -8.09 -0.36 c 0.8 -0.39 1.35 -0.53 2.33 -0.56 c 0.63 -0.02 0.89 -0.01 1.22 0.07 c 0.46 0.11 1.01 0.34 1.45 0.6 c 0.16 0.09 0.31 0.15 0.34 0.13 c 0.05 -0.05 0.34 -1.07 0.34 -1.19 c 0 -0.04 -0.24 -0.18 -0.54 -0.32 c -1.75 -0.84 -3.75 -0.84 -5.5 0 c -0.54 0.26 -0.54 0.27 -0.51 0.45 c 0.03 0.2 0.28 1.1 0.3 1.1 c 0.01 0 0.27 -0.12 0.57 -0.27 m -0.19 -3.16 c 0.43 -0.28 0.97 -0.53 1.45 -0.65 c 0.52 -0.14 1.6 -0.16 2.07 -0.05 c 0.77 0.18 1.48 0.54 2.13 1.09 c 0.18 0.15 0.35 0.28 0.37 0.28 c 0.04 0 -0.01 -1.11 -0.07 -1.49 c -0.03 -0.18 -0.09 -0.25 -0.39 -0.46 c -0.96 -0.66 -1.85 -0.95 -2.95 -0.95 c -0.93 -0.01 -1.55 0.14 -2.39 0.56 c -0.28 0.14 -0.61 0.35 -0.74 0.46 c -0.22 0.2 -0.24 0.23 -0.29 0.63 c -0.03 0.23 -0.05 0.61 -0.05 0.84 v 0.41 l 0.3 -0.25 c 0.17 -0.14 0.42 -0.33 0.57 -0.42 m -1.96 -2 c 0.36 -0.16 0.38 -0.18 0.42 -0.41 c 0.06 -0.35 0.4 -1.32 0.64 -1.82 c 0.12 -0.23 0.34 -0.62 0.5 -0.86 l 0.29 -0.43 l -0.27 -0.3 c -0.15 -0.16 -0.39 -0.53 -0.53 -0.82 l -0.26 -0.52 l -0.54 -0.25 c -1.17 -0.55 -2.13 -0.8 -3.12 -0.8 c -0.54 0 -0.74 0.02 -1 0.12 c -0.88 0.32 -1.29 1.04 -1.07 1.89 c 0.25 0.93 1.16 2.02 2.62 3.14 c 0.71 0.55 1.73 1.22 1.84 1.22 c 0.05 0 0.27 -0.07 0.47 -0.17 m 10.3 -0.27 c 1.83 -1.22 3.13 -2.5 3.59 -3.51 c 0.08 -0.18 0.14 -0.44 0.16 -0.75 c 0.02 -0.42 0.01 -0.5 -0.13 -0.78 c -0.18 -0.36 -0.45 -0.58 -0.95 -0.77 c -0.27 -0.1 -0.45 -0.13 -1 -0.13 c -0.74 0 -1.09 0.05 -1.94 0.32 c -0.65 0.2 -1.73 0.7 -1.79 0.83 c -0.02 0.05 -0.13 0.25 -0.23 0.46 c -0.1 0.21 -0.32 0.54 -0.49 0.74 l -0.3 0.36 l 0.21 0.28 c 0.46 0.61 0.98 1.79 1.23 2.79 c 0.06 0.23 0.09 0.26 0.42 0.41 c 0.2 0.09 0.41 0.16 0.47 0.17 c 0.06 0 0.4 -0.19 0.75 -0.43 m -8.13 -1.04 c 1.41 -0.93 3.39 -0.92 4.82 0.03 c 0.12 0.08 0.23 0.14 0.24 0.13 c 0.01 -0.01 -0.11 -0.22 -0.25 -0.46 c -0.38 -0.62 -0.98 -1.21 -1.49 -1.45 c -0.37 -0.18 -0.45 -0.19 -0.93 -0.19 c -0.47 0 -0.57 0.02 -0.92 0.18 c -0.45 0.21 -0.93 0.63 -1.29 1.12 c -0.24 0.34 -0.52 0.82 -0.47 0.82 c 0.02 0 0.15 -0.07 0.29 -0.17 m 0.22 -4.12 c 0.23 -0.23 0.33 -0.59 0.33 -1.11 c 0 -0.54 -0.08 -0.82 -0.29 -1.07 c -0.41 -0.48 -0.95 0 -1.03 0.91 c -0.05 0.59 0.08 0.96 0.43 1.22 c 0.15 0.11 0.3 0.2 0.34 0.2 c 0.03 0 0.13 -0.07 0.21 -0.15 m 4.85 -0.05 c 0.37 -0.25 0.45 -0.43 0.45 -1.04 c 0 -0.95 -0.48 -1.54 -0.94 -1.16 c -0.48 0.39 -0.52 1.77 -0.07 2.24 c 0.09 0.09 0.18 0.17 0.2 0.17 c 0.03 0 0.18 -0.09 0.36 -0.21"/></g></svg>