<svg xmlns="http://www.w3.org/2000/svg" viewBox="0 0 48 48"><path d="m 0.61 29.49 c 9.37 44.98 73.86 -3.3 35.1 -26.2 c -15 -9.81 -39.94 3.04 -35.1 26.2" style="fill:#4581b3"/><path d="m 28.86 13.43 l 0.05 0.05 l 0.13 -0.05 m 1.44 1.52 l 8.92 8.3 v -8.3" style="fill-opacity:0.2"/><g style="fill:#fff"><path d="m 28.86 5.12 l 10.54 9.83 h -8.92 c -0.79 0 -1.62 -0.78 -1.62 -1.52 v -8.31" style="fill-opacity:0.39"/><path d="m 19.99 28.41 c -1.54 -0.74 -2.56 -1.95 -2.62 -4.2 c -0.02 -0.77 0.1 -2.29 0.65 -2.73 c 3.23 -2.57 1.72 -7.29 3.64 -5.25 c 0.46 0.49 2.09 2.97 2.36 3.59 c 0.98 2.21 1.45 5.52 0.02 7.32 c -0.51 0.63 -1.24 1.18 -1.84 1.39 c -0.7 0.23 -1.59 0.19 -2.21 -0.11"/><path d="m 19.52 26.34 c 1.48 0 2.14 -0.06 3.61 -0.06 c 0 3.33 1.04 6.67 1.04 10 c -1.48 0 -4.21 0.06 -5.69 0.06 c 0 -3.33 1.04 -6.66 1.04 -10"/></g><path d="m 18.86 28.92 h 5.11 v 1.04 h -5.11" style="fill:#4581b3"/></svg>