<svg xmlns="http://www.w3.org/2000/svg" viewBox="0 0 48 48"><path d="m 0.61 29.49 c 9.37 44.98 73.86 -3.3 35.1 -26.2 c -15 -9.81 -39.94 3.04 -35.1 26.2" style="fill:#9370db"/><path d="m 28.86 13.43 l 0.05 0.05 l 0.13 -0.05 m 1.44 1.52 l 8.92 8.3 v -8.3" style="fill-opacity:0.2"/><g style="fill:#fff"><path d="m 28.86 5.12 l 10.54 9.83 h -8.92 c -0.79 0 -1.62 -0.78 -1.62 -1.52 v -8.31" style="fill-opacity:0.39"/><path d="m 15.1 33.1 c -0.09 -0.05 -0.12 -0.79 -0.13 -3.08 l -0.02 -3 l -1.45 -0.02 c -0.88 -0.02 -1.49 -0.06 -1.57 -0.11 c -0.16 -0.13 -0.16 -1.4 0 -1.53 c 0.07 -0.05 0.68 -0.1 1.57 -0.11 l 1.45 -0.02 v -3.43 l -1.77 -0.02 c -2.05 -0.02 -1.99 0 -1.99 -0.82 c 0 -0.9 -0.24 -0.84 3 -0.84 c 2.71 0 2.82 0.01 2.91 0.16 c 0.06 0.11 0.09 2.16 0.07 6.45 c -0.02 5.48 -0.04 6.3 -0.16 6.37 c -0.16 0.09 -1.77 0.1 -1.92 0.01 m 3.75 -0.02 c -0.14 -0.08 -0.15 -0.47 -0.15 -6.4 c 0 -3.47 0.02 -6.38 0.05 -6.45 c 0.08 -0.19 2 -0.19 2.1 0 c 0.03 0.07 0.05 2.63 0.05 5.67 v 5.54 h 1.79 c 1.27 0 1.82 0.03 1.89 0.1 c 0.07 0.06 0.11 0.36 0.11 0.77 c 0 0.59 -0.02 0.69 -0.17 0.76 c -0.23 0.11 -5.46 0.11 -5.68 0 m 7.53 0.01 c -0.12 -0.07 -0.14 -0.88 -0.16 -6.37 c -0.02 -4.29 0 -6.34 0.07 -6.45 c 0.09 -0.15 0.2 -0.16 2.91 -0.16 c 3.24 0 3 -0.07 3 0.84 c 0 0.82 0.06 0.79 -1.98 0.82 l -1.77 0.02 v 3.43 l 1.45 0.02 c 0.89 0.01 1.5 0.05 1.57 0.11 c 0.16 0.13 0.16 1.4 0 1.53 c -0.07 0.05 -0.68 0.1 -1.57 0.11 l -1.45 0.02 l -0.02 3 c -0.02 2.29 -0.05 3 -0.13 3.08 c -0.16 0.09 -1.76 0.08 -1.92 -0.01 m -3.83 -3.23 c -0.07 -0.17 -0.07 -9.45 0 -9.62 c 0.08 -0.19 2 -0.19 2.1 0 c 0.07 0.17 0.07 9.45 0 9.62 c -0.05 0.11 -0.22 0.13 -1.05 0.13 c -0.83 0 -1 -0.02 -1.05 -0.13 m 0.05 -11.31 c -0.07 -0.07 -0.11 -0.42 -0.11 -1.06 c 0 -1.15 -0.02 -1.13 1.1 -1.13 c 1.12 0 1.1 -0.02 1.1 1.13 c 0 0.64 -0.04 0.99 -0.11 1.06 c -0.14 0.13 -1.85 0.13 -1.99 0"/></g></svg>