<svg xmlns="http://www.w3.org/2000/svg" xmlns:xlink="http://www.w3.org/1999/xlink" viewBox="0 0 48 48"><defs><g id="3" style="clip-path:url(#2)"><path d="m 156 127.1 c -2.59 -4.59 -4.72 -8.45 -4.72 -8.59 c 0 -0.12 2.18 -3.96 4.82 -8.5 l 4.79 -8.29 h 19.36 l 4.61 8.1 c 2.52 4.42 4.68 8.22 4.79 8.38 c 0.14 0.23 -1.04 2.48 -4.45 8.5 c -2.55 4.47 -4.77 8.31 -4.91 8.47 c -0.23 0.28 -1.55 0.33 -9.91 0.33 h -9.66" transform="matrix(0.169 0 0 0.167 -6.53 7)" style="fill:#fff;stroke:#0c0606;stroke-width:0.67"/></g><clipPath id="2"><path d="M 0,0 H48 V48 H0 z"/></clipPath><filter id="0" filterUnits="objectBoundingBox" x="0" y="0" width="48" height="48"><feColorMatrix type="matrix" in="SourceGraphic" values="0 0 0 0 1 0 0 0 0 1 0 0 0 0 1 0 0 0 1 0"/></filter><mask id="1"><g style="filter:url(#0)"><path d="M 0,0 H48 V48 H0 z" style="fill-opacity:0.98"/></g></mask></defs><path d="m 0.61 29.49 c 9.37 44.98 73.86 -3.3 35.1 -26.2 c -15 -9.81 -39.94 3.04 -35.1 26.2" style="fill:#31cd31"/><path d="m 28.86 13.43 l 0.05 0.05 l 0.13 -0.05 m 1.44 1.52 l 8.92 8.3 v -8.3" style="fill-opacity:0.2"/><path d="m 28.86 5.12 l 10.54 9.83 h -8.92 c -0.79 0 -1.62 -0.78 -1.62 -1.52 v -8.31" style="fill:#fff;fill-opacity:0.39"/><g transform="matrix(0.169 0 0 0.167 -6.53 7)"><g style="stroke:#000;stroke-width:1.18"><path d="m 115.8 101.6 c -1.64 5.29 -2.45 11.1 -2.45 16.92 c 0 14.49 5.28 27.67 14.1 37.78 l 31.58 -54.61 h -43.2" style="fill:#c0f"/><path d="m 128.5 157.5 c 10.44 11.31 25.33 18.35 42 18.35 c 3.75 0 7.39 -0.35 10.91 -1.05 l -31.2 -54.7" style="fill:#4c3dff"/><path d="m 212.2 79.3 c -10.44 -11.1 -25.2 -18 -41.66 -18 c -3.77 0 -7.5 0.35 -11.16 1.05 l 31.3 54.61" style="fill:#ff8433"/><path d="m 157.8 62.7 c -19.47 4.35 -35.2 18.84 -41.4 37.43 h 63" style="fill:#f00"/></g><path d="m 225.2 135.4 c 1.64 -5.29 2.48 -11.1 2.48 -16.95 c 0 -14.58 -5.53 -27.88 -14.45 -38.1 l -31.2 54.96 h 43.2" style="fill:#04d503;stroke:#0c0606;stroke-width:1.88"/><path d="m 182.9 174.5 c 19.61 -4.35 35.3 -18.82 41.68 -37.52 h -63.2" style="fill:#fff200;stroke:#000;stroke-width:1.95"/></g><g style="fill:#fff"><path d="m 23.96 23.7 v 0.25 h -0.06 l 1.63 2.81 l 0.14 -0.25 l -5.28 -9.11 c -0.1 0.02 -0.18 0.04 -0.26 0.06 l 3.64 6.25"/><path d="m 20.41 23.79 l 0.22 0.12 l -0.04 0.06 h 3.29 l -0.16 -0.25 h -10.63 c -0.04 0.08 -0.06 0.18 -0.08 0.25 h 7.29"/><path d="m 23.76 23.71 l 0.14 0.26 h 0.08 v -0.26"/><path d="m 14.71 33.52 l 0.22 0.12 l 0.22 -0.38 c -0.06 -0.06 -0.12 -0.14 -0.18 -0.2"/><path d="m 18.7 26.84 l 0.21 -0.12 l 0.04 0.06 l 1.64 -2.81 h -0.3 l -5.33 9.11 c 0.06 0.06 0.12 0.14 0.18 0.2 l 3.64 -6.24"/><path d="m 20.31 23.97 h 0.3 l 0.04 -0.06 l -0.22 -0.12"/><path d="m 20.52 29.84 v -0.26 h 0.06 l -1.63 -2.82 l -0.16 0.25 l 5.26 9.13 c 0.1 -0.02 0.18 -0.04 0.26 -0.06 l -3.6 -6.26 h -0.2"/><path d="m 18.83 27.1 l 0.14 -0.25 l -0.04 -0.06 l -0.22 0.12"/><path d="m 31.36 29.84 h 0.52 v -0.26 h -0.42 c -0.04 0.1 -0.06 0.18 -0.1 0.26"/><path d="m 24.2 29.59 l -0.12 0.2 l -0.22 -0.12 l 0.04 -0.06 h -3.29 l 0.14 0.25 h 10.63 c 0.04 -0.08 0.06 -0.18 0.08 -0.25 h -7.27"/><path d="m 20.75 29.86 l -0.16 -0.25 h -0.06 v 0.25"/><path d="m 29.68 20 l -0.22 -0.12 l -0.2 0.35 c 0.06 0.06 0.12 0.14 0.18 0.2"/><path d="m 25.78 26.72 l -0.22 0.12 l -0.04 -0.08 l -1.63 2.83 h 0.3 l 5.26 -9.17 c -0.06 -0.06 -0.12 -0.14 -0.18 -0.2 l -3.61 6.28"/><path d="m 25.68 26.52 l -0.16 0.26 l 0.06 0.08 l 0.21 -0.12"/><path d="m 24.1 29.8 l 0.12 -0.2 h -0.3 l -0.04 0.08"/></g><use xlink:href="#3" style="mask:url(#1)"/><path d="m 231.2 118.4 c 0 33.38 -27 60.4 -60.4 60.4 c -33.37 0 -60.4 -27 -60.4 -60.4 c 0 -33.4 27 -60.4 60.4 -60.4 c 33.3 0 60.4 27 60.4 60.4" transform="matrix(0.169 0 0 0.167 -6.53 7)" style="fill:none;stroke-miterlimit:10;stroke:#0c0606;stroke-width:6.6"/></svg>