<svg xmlns="http://www.w3.org/2000/svg" viewBox="0 0 48 48"><path d="m 0.61 29.49 c 9.37 44.98 73.86 -3.3 35.1 -26.2 c -15 -9.81 -39.94 3.04 -35.1 26.2" style="fill:#0f0"/><path d="m 28.86 13.43 l 0.05 0.05 l 0.13 -0.05 m 1.44 1.52 l 8.92 8.3 v -8.3" style="fill-opacity:0.2"/><path d="m 28.86 5.12 l 10.54 9.83 h -8.92 c -0.79 0 -1.62 -0.78 -1.62 -1.52 v -8.31" style="fill:#2f4e4e;fill-opacity:0.39"/><path d="m 31.43 23.1 c -1.36 -0.09 -2.4 -0.06 -3.86 -0.06 c 0 -0.74 0 -1.48 0 -2.22 c 2.12 0 4.25 0 6.37 0 c 0 0.69 0 1.38 0 2.07 l -1.84 3.94 l -1.84 3.94 c -0.82 0 -1.64 0 -2.47 0 c 1.18 -2.72 2.7 -5.45 3.64 -7.67"/><path d="m 12.53 20.84 c 2.22 0 4.44 0 6.66 0 c 0 0.76 0 1.53 0 2.29 c -1.48 0 -2.96 0 -4.44 0 c 0 0.53 0 1.05 0 1.58 c 1.34 0 2.67 0 4 0 c 0 0.71 0 1.43 0 2.14 c -1.34 0 -2.68 0 -4 0 c 0 0.55 0 1.1 0 1.65 c 1.5 0 3 0 4.51 0 c 0 0.76 0 1.53 0 2.29 c -2.24 0 -4.49 0 -6.73 0 c 0 -3.32 0 -6.63 0 -9.95"/><path d="m 21.24 30.39 c -0.55 -0.33 -1.2 -0.9 -1.16 -1 c 0.03 -0.08 1.07 -1.56 1.2 -1.71 c 0.03 -0.04 0.21 0.07 0.4 0.24 c 1.04 0.92 2.34 0.99 2.8 0.14 c 0.3 -0.57 0.16 -1.21 -0.37 -1.6 c -0.81 -0.28 -1.43 -0.08 -2.12 0.27 c -0.43 -0.29 -0.89 -0.57 -1.27 -0.93 c -0.04 -0.11 0.07 -3.12 0.17 -4.38 l 0.04 -0.59 c 1.83 0 3.66 0 5.49 0 c 0 0.74 0 1.48 0 2.22 c -1.23 0 -2.47 0 -3.7 0 c -0.11 0.53 -0.09 1.12 -0.09 1.56 l 0.48 -0.17 c 1.58 -0.55 3.14 0.3 3.6 1.97 c 0.24 1.54 -0.05 3.13 -1.34 4 c -1.37 0.71 -2.94 0.68 -4.13 -0.03"/></svg>