<svg xmlns="http://www.w3.org/2000/svg" viewBox="0 0 48 48"><path d="m 0.61 29.49 c 9.37 44.98 73.86 -3.3 35.1 -26.2 c -15 -9.81 -39.94 3.04 -35.1 26.2" style="fill:#e84d31"/><path d="m 28.86 13.43 l 0.05 0.05 l 0.13 -0.05 m 1.44 1.52 l 8.92 8.3 v -8.3" style="fill-opacity:0.2"/><g style="fill:#fff"><path d="m 28.86 5.12 l 10.54 9.83 h -8.92 c -0.79 0 -1.62 -0.78 -1.62 -1.52 v -8.31" style="fill-opacity:0.39"/><path d="m 24.78 29.91 c -0.61 -0.13 -1.59 -0.61 -2 -0.96 l -0.27 -0.23 c 0.29 -0.58 0.58 -1.16 0.87 -1.74 l 0.28 0.18 c 1.34 0.88 2.84 1.01 2.84 0.26 c 0 -0.34 -0.2 -0.48 -1.23 -0.86 c -1.5 -0.55 -2.11 -1.09 -2.34 -2.04 c -0.14 -0.59 -0.07 -1.54 0.17 -2.06 c 0.25 -0.55 0.79 -1.08 1.35 -1.33 c 0.61 -0.27 1.85 -0.26 2.62 0.01 c 0.54 0.19 1.44 0.68 1.44 0.78 c 0 0.12 -0.77 1.81 -0.82 1.79 c -1.62 -0.82 -2.66 -0.93 -2.66 -0.26 c 0 0.33 0.18 0.48 0.89 0.75 c 1.72 0.66 2.26 1.06 2.59 1.91 c 0.39 1.02 0.12 2.45 -0.61 3.16 c -0.67 0.65 -1.91 0.91 -3.1 0.64"/><path d="m 16.67 29.7 c -0.27 -0.09 -0.54 -0.27 -0.79 -0.52 c -0.53 -0.53 -0.71 -1.05 -0.71 -2.08 c 0 -0.7 0.03 -0.84 0.23 -1.26 c 0.28 -0.57 0.76 -1 1.33 -1.2 c 0.53 -0.18 1.59 -0.17 2.16 0.01 c 0.23 0.07 0.45 0.13 0.49 0.13 c 0.13 0 -0.02 -0.86 -0.18 -1.07 c -0.61 -0.67 -1.8 -0.51 -2.52 -0.27 c -0.34 0.13 -0.49 0.14 -0.51 0.07 c -0.11 -0.67 -0.44 -1.32 -0.34 -1.98 c 0.05 -0.04 0.41 -0.16 0.8 -0.29 c 1.17 -0.27 2.38 -0.44 3.37 0.01 c 0.84 0.39 1.39 1.16 1.59 2.2 c 0.12 2.21 0.09 3.9 0.09 6.21 c -0.75 0 -1.49 0 -2.23 0 v -0.46 c 0 -0.25 -0.02 -0.45 -0.04 -0.45 c -0.03 0 -0.15 0.12 -0.29 0.27 c -0.72 0.57 -1.71 0.88 -2.43 0.67 m 2.23 -1.89 c 0.3 -0.2 0.53 -0.75 0.53 -1.26 c 0 -0.5 -0.09 -0.58 -0.72 -0.66 c -0.8 -0.09 -1.34 0.38 -1.34 1.16 c 0.03 0.6 0.5 0.99 0.95 0.95 c 0.21 -0.04 0.41 -0.1 0.59 -0.18"/></g></svg>