<svg xmlns="http://www.w3.org/2000/svg" viewBox="0 0 48 48"><path d="m 0.61 29.49 c 9.37 44.98 73.86 -3.3 35.1 -26.2 c -15 -9.81 -39.94 3.04 -35.1 26.2" style="fill:#93a525"/><path d="m 28.86 13.43 l 0.05 0.05 l 0.13 -0.05 m 1.44 1.52 l 8.92 8.3 v -8.3" style="fill-opacity:0.2"/><g style="fill:#fff"><path d="m 28.86 5.12 l 10.54 9.83 h -8.92 c -0.79 0 -1.62 -0.78 -1.62 -1.52 v -8.31" style="fill-opacity:0.39"/><path d="m 29.39 25.2 v -3.78 h 1.41 v 5.73 c 0.86 0 1.72 0 2.58 0 c 0 0.61 0 1.22 0 1.83 c -1.33 0 -2.66 0 -3.99 0"/><path d="m 10.52 21.43 c 0.47 0 0.95 0 1.41 0 c 0 0.94 0 1.88 0 2.82 c 0.66 0 1.33 0 2 0 c 0 -0.94 0 -1.88 0 -2.82 c 0.5 0 1 0 1.5 0 c 0 2.52 0 5 0 7.56 c -0.5 0 -1 0 -1.5 0 c 0 -0.97 0 -1.94 0 -2.91 c -0.66 0 -1.33 0 -2 0 c 0 0.97 0 1.94 0 2.91 c -0.47 0 -0.94 0 -1.41 0 c 0 -2.52 0 -5 0 -7.56"/><path d="m 16.1 28.81 c 0.03 -0.11 0.55 -1.82 1.15 -3.8 l 1.09 -3.61 c 0.46 0 0.93 0 1.4 0 l 1.14 3.78 c 0.63 2.08 1.14 3.79 1.14 3.8 c -0.54 0.02 -0.95 -0.01 -1.54 -0.02 c -0.13 -0.46 -0.27 -0.91 -0.4 -1.37 c -0.7 0.04 -1.55 -0.09 -2.17 0.1 c -0.14 0.46 -0.24 0.82 -0.38 1.31 c -0.32 -0.02 -1.53 0.1 -1.44 -0.18 m 3.54 -2.77 c 0.05 -0.05 -0.54 -2.2 -0.61 -2.2 c -0.04 0 -0.66 2.05 -0.66 2.2 c 0 0.06 1.2 0.06 1.26 0"/><path d="m 22.57 25.2 v -3.78 c 0.52 0 1.04 0 1.56 0 l 0.64 1.45 c 0.36 0.8 0.67 1.45 0.7 1.45 c 0.03 0 0.33 -0.66 0.68 -1.45 l 0.62 -1.45 c 0.52 0 1.03 0 1.54 0 v 7.56 c -0.47 0 -0.94 0 -1.41 0 v -2.22 c 0 -1.22 -0.03 -2.18 -0.07 -2.14 c -0.04 0.04 -0.34 0.68 -0.68 1.41 c -0.33 0.73 -0.63 1.36 -0.66 1.39 c -0.03 0.04 -0.35 -0.57 -0.71 -1.35 c -0.36 -0.78 -0.69 -1.42 -0.72 -1.42 c -0.04 0 -0.06 0.97 -0.06 2.16 v 2.16 c -0.47 0 -0.94 0 -1.41 0"/></g></svg>