<svg xmlns="http://www.w3.org/2000/svg" viewBox="0 0 48 48"><path d="m 0.61 29.49 c 9.37 44.98 73.86 -3.3 35.1 -26.2 c -15 -9.81 -39.94 3.04 -35.1 26.2" style="fill:#dcdcdc"/><path d="m 28.86 13.43 l 0.05 0.05 l 0.13 -0.05 m 1.44 1.52 l 8.92 8.3 v -8.3" style="fill-opacity:0.2"/><path d="m 28.86 5.12 l 10.54 9.83 h -8.92 c -0.79 0 -1.62 -0.78 -1.62 -1.52 v -8.31" style="fill:#fff;fill-opacity:0.39"/><g style="fill:#545454"><path d="m 16.7 31.2 c 0 0.52 0.16 0.9 0.47 1.14 c 0.31 0.23 0.77 0.35 1.36 0.36 v 1.07 c -1 -0.01 -1.79 -0.23 -2.34 -0.66 c -0.55 -0.43 -0.84 -1.04 -0.84 -1.82 v -2.31 c 0 -0.53 -0.16 -0.89 -0.49 -1.13 c -0.34 -0.23 -0.82 -0.34 -1.46 -0.34 v -1.08 c 0.7 -0.01 1.19 -0.13 1.5 -0.37 c 0.31 -0.23 0.46 -0.59 0.46 -1.08 v -2.33 c 0 -0.79 0.3 -1.39 0.87 -1.84 c 0.57 -0.44 1.34 -0.66 2.3 -0.66 v 1.05 c -1.21 0.03 -1.83 0.54 -1.83 1.52 v 2.25 c 0 1.09 -0.58 1.73 -1.77 1.93 v 0.09 c 1.19 0.2 1.77 0.84 1.77 1.93 v 2.26"/><path d="m 27.5 26.9 c -1.18 -0.2 -1.78 -0.85 -1.78 -1.93 v -2.25 c 0 -0.98 -0.61 -1.48 -1.81 -1.52 v -1.05 c 0.99 0 1.75 0.22 2.3 0.67 c 0.56 0.44 0.84 1.04 0.84 1.82 v 2.33 c 0 0.49 0.16 0.86 0.47 1.09 c 0.3 0.23 0.81 0.35 1.51 0.36 v 1.08 c -0.65 0 -1.15 0.11 -1.48 0.34 c -0.33 0.23 -0.51 0.6 -0.51 1.13 v 2.31 c 0 0.78 -0.27 1.38 -0.82 1.81 c -0.54 0.44 -1.32 0.66 -2.33 0.67 v -1.07 c 0.6 -0.01 1.04 -0.13 1.35 -0.36 c 0.31 -0.24 0.46 -0.62 0.46 -1.14 v -2.26 c 0 -0.58 0.15 -1.01 0.44 -1.32 c 0.3 -0.3 0.74 -0.51 1.34 -0.61 v -0.09"/></g></svg>