<svg xmlns="http://www.w3.org/2000/svg" viewBox="0 0 48 48"><path d="m 0.61 29.49 c 9.37 44.98 73.86 -3.3 35.1 -26.2 c -15 -9.81 -39.94 3.04 -35.1 26.2" style="fill:#ffd733"/><path d="m 28.86 13.43 l 0.05 0.05 l 0.13 -0.05 m 1.44 1.52 l 8.92 8.3 v -8.3" style="fill-opacity:0.2"/><path d="m 28.86 5.12 l 10.54 9.83 h -8.92 c -0.79 0 -1.62 -0.78 -1.62 -1.52 v -8.31" style="fill:#fff;fill-opacity:0.39"/><path d="m 17 16.88 h 9.4 c 2.6 0 4.7 2 4.7 4.49 v 8.98 c 0 2.48 -2.11 4.49 -4.7 4.49 h -9.4 c -2.6 0 -4.7 -2 -4.7 -4.49 v -8.98 c 0 -2.48 2.11 -4.49 4.7 -4.49" style="fill:#fbb100"/><path d="m 21.63 25.3 h 4.09 v 5.09 c -0.53 0.18 -1.1 0.31 -1.69 0.4 c -0.58 0.11 -1.24 0.16 -1.98 0.16 c -1.54 0 -2.72 -0.43 -3.55 -1.3 c -0.83 -0.87 -1.25 -2.13 -1.25 -3.77 c 0 -1.03 0.2 -1.92 0.61 -2.67 c 0.43 -0.75 1.04 -1.33 1.84 -1.75 c 0.8 -0.42 1.77 -0.63 2.91 -0.63 c 0.55 0 1.09 0.05 1.62 0.16 c 0.53 0.1 1.01 0.25 1.43 0.45 l -0.73 1.66 c -0.31 -0.15 -0.67 -0.28 -1.08 -0.38 c -0.41 -0.11 -0.83 -0.16 -1.27 -0.16 c -0.63 0 -1.18 0.13 -1.67 0.4 c -0.46 0.27 -0.82 0.66 -1.08 1.17 c -0.25 0.49 -0.38 1.08 -0.38 1.75 c 0 0.64 0.1 1.21 0.29 1.71 c 0.19 0.49 0.48 0.88 0.87 1.16 c 0.39 0.27 0.91 0.41 1.55 0.41 c 0.32 0 0.57 -0.02 0.78 -0.05 c 0.22 -0.03 0.42 -0.06 0.61 -0.09 v -2.04 h -1.95" style="fill:#fff"/></svg>