<svg xmlns="http://www.w3.org/2000/svg" viewBox="0 0 24 24"><path d="m 0.35 14.55 c 1.86 12.3 20.36 12.66 23.2 0.71 c 2.88 -9.68 -7.55 -17.58 -15.34 -14.41 c -5.22 1.5 -9.44 7.63 -7.82 13.7" style="fill:#dc133c"/><g style="fill:#fff"><path d="m 12 9.23 c 1.67 0 2.94 1.3 2.94 2.99 c 0 1.69 -1.27 2.98 -2.94 2.98 c -1.66 0 -2.94 -1.3 -2.94 -2.98 c 0 -1.69 1.28 -2.99 2.94 -2.99 m 0 -0.99 c -2.16 0 -3.92 1.79 -3.92 3.98 c 0 2.19 1.76 3.98 3.92 3.98 c 2.16 0 3.92 -1.79 3.92 -3.98 c 0 -2.19 -1.76 -3.98 -3.92 -3.98"/><path d="m 6.46 6.14 c -0.2 -0.2 -0.49 -0.2 -0.68 0 c -0.2 0.2 -0.2 0.5 0 0.7 l 1.18 1.39 c 0.1 0.1 0.2 0.1 0.39 0.1 c 0.2 0 0.29 0 0.39 -0.1 c 0.2 -0.2 0.2 -0.5 0 -0.7"/><path d="m 16.75 8.23 c 0.1 0 0.2 0 0.29 -0.1 l 1.28 -1.19 c 0.2 -0.2 0.2 -0.5 0 -0.7 c -0.2 -0.2 -0.49 -0.2 -0.69 0 l -1.27 1.2 c -0.2 0.2 -0.2 0.5 0 0.7 c 0.1 0 0.29 0.1 0.39 0.1"/><path d="m 6.95 15.5 l -1.28 1.29 c -0.2 0.2 -0.2 0.5 0 0.7 c 0.1 0.1 0.2 0.1 0.39 0.1 c 0.2 0 0.29 0 0.39 -0.1 l 1.27 -1.29 c 0.2 -0.2 0.2 -0.5 0 -0.7 c -0.2 -0.2 -0.59 -0.1 -0.78 0"/><path d="m 17 15.59 c -0.2 -0.2 -0.49 -0.2 -0.68 0 c -0.2 0.2 -0.2 0.5 0 0.7 l 1.27 1.19 c 0.1 0.1 0.2 0.1 0.29 0.1 c 0.1 0 0.29 -0.1 0.39 -0.2 c 0.2 -0.2 0.2 -0.5 0 -0.7"/><path d="m 11.79 4.15 c -0.29 0 -0.49 0.2 -0.49 0.5 v 1.59 c 0 0.3 0.2 0.5 0.49 0.5 c 0.29 0 0.49 -0.2 0.49 -0.5 v -1.59 c 0 -0.3 -0.2 -0.5 -0.49 -0.5"/><path d="m 11.79 17.55 c -0.29 0 -0.49 0.2 -0.49 0.5 v 1.59 c 0 0.3 0.2 0.5 0.49 0.5 c 0.29 0 0.49 -0.2 0.49 -0.5 v -1.59 c 0 -0.3 -0.2 -0.5 -0.49 -0.5"/><path d="m 6.75 12.61 c 0 -0.3 -0.2 -0.5 -0.49 -0.5 h -1.57 c -0.3 0 -0.49 0.2 -0.49 0.5 c 0 0.3 0.2 0.5 0.49 0.5 h 1.57 c 0.29 0 0.49 -0.2 0.49 -0.5"/><path d="m 19.39 12.1 h -1.57 c -0.29 0 -0.49 0.2 -0.49 0.5 c 0 0.3 0.2 0.5 0.49 0.5 h 1.57 c 0.3 0 0.49 -0.2 0.49 -0.5 c 0 -0.3 -0.2 -0.5 -0.49 -0.5"/></g></svg>