<svg xmlns="http://www.w3.org/2000/svg" viewBox="0 0 24 24"><path d="m 0.19 16.1 c -2.38 -34.3 43.65 -4.05 13.34 7.3 c -4.67 1.52 -11.64 -0.66 -13.34 -7.3" style="fill:#7f7f7f"/><path d="m 17.1 11.31 c -0.39 -1.64 -1.78 -2.77 -3.56 -2.77 c -0.2 0 -0.3 0 -0.49 0.1 c -0.1 -1.74 -1.48 -3.18 -3.16 -3.18 c -1.48 0 -2.87 1.23 -3.26 2.77 c -1.58 -0.61 -3.26 0.62 -3.26 2.36 c 0 1.33 0.89 2.15 1.78 2.56 c 0.1 0 0.1 0 0.2 0 c 0.1 0 0.1 0 0.2 -0.1 c -0.1 0.41 -0.2 0.71 -0.2 1.13 c 0 2.05 1.48 3.59 3.36 3.59 c 2.63 0 5.24 0 7.51 0 c 1.68 0 3.07 -1.54 3.07 -3.38 c -0.1 -1.33 -0.99 -2.56 -2.18 -3.07 m -11.37 1.13 c 0 -0.1 -0.1 -0.2 -0.2 -0.3 c -0.59 -0.21 -1.19 -0.72 -1.19 -1.54 c 0 -1.13 1.19 -2.05 2.37 -1.23 c 0.16 -0.05 0.43 -0.02 0.59 -0.1 c 0 -0.07 0 -0.14 0 -0.21 c 0.2 -1.33 1.38 -2.56 2.57 -2.56 c 1.19 0 2.18 1.02 2.18 2.25 c 0 0.11 0 0.11 0 0.21 c -0.79 0.41 -1.48 1.13 -1.88 1.95 c -1.65 -0.9 -3.77 0.3 -4.45 1.54 m 10.38 4.31 c -2.57 0 -5.19 0 -7.51 0 c -1.19 0 -2.27 -1.13 -2.27 -2.57 c 0 -1.43 1.09 -2.56 2.47 -2.56 c 0.39 -0.1 0.89 0.11 1.29 0.41 c 0.66 -0.14 0.79 -0.04 0.79 -0.41 c 0.39 -0.92 1.38 -2.05 2.67 -2.05 c 1.38 0 2.47 0.93 2.67 2.26 c -0.07 0.24 0.2 0.34 0.2 0.41 c 0.89 0.31 1.58 1.23 1.58 2.15 c 0.2 1.23 -0.79 2.36 -1.88 2.36" style="fill:#fff"/></svg>