<svg xmlns="http://www.w3.org/2000/svg" viewBox="0 0 24 24"><path d="m 0.19 6.93 c -2.38 34.3 43.65 8.61 13.34 -5.99 c -4.67 -2 -11.64 -0.54 -13.34 5.99" style="fill:#ff8c00"/><g style="fill:#fff"><path d="m 6.32 9 c 0.1 0.09 0.29 0.09 0.38 0.09 c 0.09 0 0.29 0 0.38 -0.09 c 0.19 -0.19 0.19 -0.46 0 -0.65 l -1.23 -1.3 c -0.19 -0.09 -0.57 -0.09 -0.76 0 c -0.19 0.09 -0.19 0.46 0 0.65"/><path d="m 13.78 9.12 c 0.09 0 0.28 0 0.38 -0.09 l 1.23 -1.21 c 0.19 -0.19 0.19 -0.46 0 -0.65 c -0.19 -0.19 -0.47 -0.19 -0.66 0 l -1.23 1.21 c -0.19 0.19 -0.19 0.46 0 0.65 c 0 0.09 0.19 0.09 0.29 0.09"/><path d="m 9.91 7.1 c 0.28 0 0.47 -0.18 0.47 -0.46 v -1.48 c 0 -0.28 -0.19 -0.46 -0.47 -0.46 c -0.29 0 -0.47 0.18 -0.47 0.46 v 1.48 c 0 0.28 0.19 0.46 0.47 0.46"/><path d="m 16.8 12.46 c -0.47 -1.39 -1.7 -2.41 -3.21 -2.6 c -0.66 -1.21 -1.89 -1.86 -3.3 -1.86 c -2.08 0 -3.68 1.58 -3.68 3.63 c 0 0.19 0 0.28 0 0.46 c -0.09 0.09 -0.29 0.09 -0.38 0.19 c 0 0 0 -0.09 0 -0.09 c 0 -0.28 -0.19 -0.46 -0.47 -0.46 h -1.51 c -0.29 0 -0.47 0.18 -0.47 0.46 c 0 0.28 0.19 0.46 0.47 0.46 h 1.51 c -0.66 0.55 -1.04 1.39 -1.04 2.32 c 0 1.77 1.6 3.25 3.49 3.25 h 7.36 c 0 0 0.09 0 0.09 0 c 0 0 0.09 0 0.09 0 c 1.7 0 3.12 -1.3 3.12 -2.97 c 0 -1.21 -0.85 -2.32 -2.08 -2.79 m -9.25 -0.84 c 0 -1.49 1.23 -2.7 2.74 -2.7 c 0.85 0 1.6 0.37 2.07 1.02 c -1.23 0.18 -2.27 1.11 -2.83 2.04 c -0.28 -0.18 -0.75 -0.28 -1.32 -0.28 c -0.19 0 -0.47 0 -0.66 0.09 c 0 -0.09 0 -0.09 0 -0.19 m 8.21 5.67 c 0 0 -0.09 0 -0.09 0 c 0 0 -0.09 0 -0.09 0 h -7.36 c -1.42 0 -2.55 -1.02 -2.55 -2.32 c 0 -1.02 0.57 -1.77 1.51 -2.14 c 0 0 0.09 0 0.09 0 c 0 0 0 0 0.09 0 c 0.29 -0.09 0.57 -0.18 0.85 -0.18 c 0.57 0 0.94 0.09 1.32 0.28 c 0 0 0 0 0.09 0 c 0 0 0.09 0 0.09 0 c 0 0 0.1 0 0.1 0 c 0 0 0.09 0 0.09 0 c 0 0 0.09 0 0.09 0 c 0 0 0 0 0.09 0 c 0 0 0.09 -0.09 0.09 -0.09 c 0.47 -1.02 1.51 -2.04 2.83 -2.04 c 1.42 0 2.64 0.84 2.93 2.14 c 0 0.09 0.09 0.19 0.19 0.19 c 0.09 0 0.09 0.09 0.19 0.09 c 0.95 0.19 1.61 1.12 1.61 1.95 c 0 1.21 -1.04 2.14 -2.17 2.14"/></g></svg>