<svg xmlns="http://www.w3.org/2000/svg" viewBox="0 0 24 24"><path d="m 4.29 3.57 c -18.84 24.86 33 28.39 16.37 3 c -3.79 -5.79 -11.38 -9.6 -16.37 -3" style="fill:#7a68ed"/><path d="m 14.94 10.1 c -0.18 -0.33 -0.62 -0.65 -1.23 -1.06 v -1.3 c 0.27 -0.16 0.44 -0.41 0.44 -0.65 c 0 -0.41 -0.27 -0.73 -0.7 -0.81 c -0.09 0 -0.09 0 -0.18 0 c -0.09 0 -0.09 0 -0.18 0 c -0.35 0.08 -0.61 0.32 -0.7 0.65 l -1.75 1.14 c -0.09 0 -0.26 -0.08 -0.35 -0.08 c -1.4 -0.25 -1.84 0.08 -2 0.41 c 0 0.08 0 0.08 -0.09 0.16 l -1.49 6.85 c -0.18 0.98 0.44 2.04 1.4 2.36 l 0.52 0.16 c 0.27 0.08 0.53 0.16 0.88 0.16 c 0.79 0 1.49 -0.41 1.93 -1.06 l 1.4 -2.45 v 3.91 h -0.44 c -0.26 0 -0.44 0.16 -0.44 0.41 c 0 0.25 0.18 0.41 0.44 0.41 h 1.75 c 0.26 0 0.44 -0.16 0.44 -0.41 c 0 -0.24 -0.18 -0.41 -0.44 -0.41 h -0.44 v -5.46 l 1.23 -2.2 c 0.09 -0.25 0.17 -0.49 0 -0.73 m -0.79 0.32 c -0.09 0 -0.18 0.08 -0.44 0.08 v -0.49 c 0.35 0.24 0.44 0.41 0.44 0.41 m -2.63 4.73 c -0.53 0 -1.23 -0.16 -1.75 -0.41 c -0.61 -0.25 -1.32 -0.57 -1.75 -0.82 l 0.35 -1.79 c 0.44 0.32 1.14 0.73 1.93 0.98 c 0.79 0.33 1.58 0.41 2.11 0.41 m -3.5 -3.83 c 0.52 0.33 1.31 0.65 2.28 1.06 c 0.61 0.16 1.23 0.32 1.66 0.41 v 1.55 c 0 0 -0.09 0 -0.09 0 c -0.79 0 -1.58 -0.08 -2.11 -0.33 c -0.61 -0.16 -1.4 -0.57 -2 -1.06 c 0 0 -0.09 0 -0.09 0 m 3.94 -3.91 c 0.09 0.16 0.18 0.24 0.35 0.32 v 0.98 c -0.26 -0.08 -0.44 -0.25 -0.7 -0.33 h -0.09 c -0.26 -0.08 -0.44 -0.08 -0.61 -0.16 c -0.09 0 -0.09 0 -0.18 -0.08 m -1.14 0.65 c 0.35 0.08 0.61 0.16 1.05 0.24 c 0.18 0.08 0.44 0.08 0.7 0.16 c 0.35 0.16 0.7 0.25 0.96 0.41 v 0.73 c -0.35 -0.08 -0.79 -0.16 -1.31 -0.41 c -1.84 -0.57 -2.28 -1.06 -2.37 -1.22 c 0.18 0 0.44 0 0.96 0.08 m -1.05 8.32 l -0.52 -0.16 c -0.61 -0.16 -0.96 -0.82 -0.88 -1.39 l 0.18 -0.73 c 0.53 0.25 1.14 0.57 1.67 0.73 c 0.17 0.08 0.88 0.25 1.66 0.41 l -0.35 0.65 c -0.44 0.57 -1.14 0.73 -1.75 0.49" style="fill:#fff"/></svg>