<svg xmlns="http://www.w3.org/2000/svg" viewBox="0 0 24 24"><path d="m 19.82 20.2 c 18.84 -25.7 -33 -26.93 -16.37 -2.29 c 3.79 5.62 11.38 9.1 16.37 2.29" style="fill:#d60329"/><path d="m 16.5 18.41 h -0.41 v -9.39 c 0.49 -0.15 0.81 -0.62 0.81 -1.09 c 0 -0.62 -0.57 -1.16 -1.22 -1.16 c -0.65 0 -1.22 0.54 -1.22 1.16 c 0 0.54 0.33 0.93 0.81 1.09 v 2.17 l -1.63 -0.93 c 0 -0.16 0 -0.31 -0.08 -0.46 c -0.08 -0.31 -0.32 -1.32 -0.98 -1.47 c 0 0 -0.08 0 -0.08 0 c 0 0 0 0 -0.08 0 l -6.83 0.93 c -0.98 0.23 -1.71 1 -1.71 1.94 v 0.46 c 0 0.93 0.73 1.71 1.71 1.94 l 6.75 0.93 c 0 0 0 0 0.08 0 c 0.08 0 0.08 0 0.16 0 c 0.65 -0.16 0.89 -0.93 0.98 -1.86 l 1.71 -1.01 v 6.75 h -0.41 c -0.24 0 -0.41 0.16 -0.41 0.39 c 0 0.23 0.16 0.39 0.41 0.39 h 1.63 c 0.24 0 0.41 -0.15 0.41 -0.39 c 0 -0.23 -0.16 -0.39 -0.41 -0.39 m -9.19 -5.35 c -0.08 -0.46 -0.16 -1.16 -0.16 -1.63 c 0 -0.46 0.08 -1.16 0.16 -1.63 l 1.79 -0.23 c -0.16 0.54 -0.32 1.24 -0.32 1.86 c 0 0.62 0.16 1.32 0.32 1.86 m 0.89 0 c -0.24 -0.46 -0.41 -1.24 -0.41 -1.86 c 0 -0.62 0.16 -1.4 0.41 -1.86 c 0 -0.08 0 -0.08 0 -0.15 l 1.46 -0.23 c -0.16 0.7 -0.24 1.55 -0.24 2.25 c 0 0.7 0.08 1.55 0.24 2.17 l -1.46 -0.16 c 0 -0.08 0 -0.08 0 -0.16 m -5.29 -1.63 v -0.46 c 0 -0.54 0.41 -1.09 1.06 -1.16 l 0.73 -0.07 c -0.16 0.46 -0.16 1.09 -0.16 1.47 c 0 0.39 0 1 0.16 1.47 l -0.73 -0.08 c -0.65 -0.08 -1.06 -0.62 -1.06 -1.16 m 7.73 2.1 c -0.08 -0.08 -0.41 -0.39 -0.41 -2.33 c 0 -1.94 0.32 -2.25 0.41 -2.33 c 0 0 0.16 0.16 0.32 0.86 c 0.08 0.31 0.08 0.85 0.08 1.47 c 0 2 -0.32 2.33 -0.41 2.33 m 1.22 -1.63 c 0 -0.23 0 -0.47 0 -0.7 c 0 -0.23 0 -0.46 0 -0.7 l 1.22 0.7" style="fill:#fff"/></svg>