<svg xmlns="http://www.w3.org/2000/svg" viewBox="0 0 24 24"><path d="m 19.8 20.52 c 18.92 -24.98 -33.2 -28.52 -16.45 -3 c 3.81 5.81 11.43 9.65 16.45 3" style="fill:#0b7879"/><g style="fill:#fff"><path d="m 12.85 18.34 h -1.88 c -0.19 0 -0.32 0.2 -0.32 0.5 c 0 0.3 0.13 0.51 0.32 0.51 h 1.88 c 0.19 0 0.31 -0.2 0.31 -0.51 c 0 -0.3 -0.13 -0.5 -0.31 -0.5"/><path d="m 14.73 16.31 h -3.77 c -0.19 0 -0.32 0.2 -0.32 0.51 c 0 0.3 0.13 0.5 0.32 0.5 h 3.77 c 0.19 0 0.31 -0.2 0.31 -0.5 c 0 -0.3 -0.13 -0.51 -0.31 -0.51"/><path d="m 15.99 14.28 h -5 c -0.19 0 -0.32 0.2 -0.32 0.51 c 0 0.3 0.13 0.51 0.32 0.51 h 5 c 0.19 0 0.31 -0.2 0.31 -0.51 c 0 -0.3 -0.13 -0.51 -0.31 -0.51"/><path d="m 16.62 12.26 h -7.54 c -0.19 0 -0.31 0.2 -0.31 0.5 c 0 0.3 0.13 0.51 0.31 0.51 h 7.54 c 0.19 0 0.32 -0.2 0.32 -0.51 c 0 -0.3 -0.13 -0.5 -0.32 -0.5"/><path d="m 15.68 10.74 c 0 -0.3 -0.13 -0.51 -0.31 -0.51 h -7.54 c -0.19 0 -0.31 0.2 -0.31 0.51 c 0 0.3 0.13 0.51 0.31 0.51 h 7.54 c 0.19 0 0.31 -0.2 0.31 -0.51"/><path d="m 15.99 8.21 h -6.91 c -0.19 0 -0.31 0.2 -0.31 0.5 c 0 0.3 0.13 0.51 0.31 0.51 h 6.91 c 0.19 0 0.31 -0.2 0.31 -0.51 c 0 -0.3 -0.13 -0.5 -0.31 -0.5"/><path d="m 16.3 6.69 c 0 -0.3 -0.13 -0.51 -0.31 -0.51 h -8.79 c -0.19 0 -0.31 0.2 -0.31 0.51 c 0 0.3 0.13 0.5 0.31 0.5 h 8.79 c 0.19 0 0.31 -0.2 0.31 -0.5"/></g></svg>