<svg xmlns="http://www.w3.org/2000/svg" viewBox="0 0 24 24"><path d="m 5.61 21.5 c 8.93 7.92 22.67 -4.57 17.1 -15 c -5.62 -10.57 -24.2 -7.75 -22.62 5.23 c 0.47 3.86 2.59 7.21 5.51 9.8" style="fill:#689586"/><g style="fill:#fff"><path d="m 7.86 12.79 c 0.45 0 0.98 -0.09 1.42 -0.36 c 0.8 0.8 1.87 1.24 3 1.24 c 0.98 0 1.95 -0.36 2.75 -1.06 c 0.18 0.09 0.53 0.18 0.8 0.18 c 1.77 0 3.11 -1.32 3.11 -3.09 c 0 -1.77 -1.34 -3.09 -3.11 -3.09 h -0.09 c -0.8 -1.15 -2.13 -1.77 -3.46 -1.77 c -1.42 0 -2.76 0.71 -3.64 1.86 c -0.27 0 -0.53 -0.09 -0.8 -0.09 c -1.78 0 -3.11 1.32 -3.11 3.09 c 0 1.77 1.33 3.09 3.11 3.09 m 0 -5.3 c 0.27 0 0.54 0.09 0.8 0.18 c 0 0 0.09 0 0.09 0 c 0.09 0 0.18 0 0.18 -0.09 c 0.18 0 0.27 -0.09 0.27 -0.09 c 0.71 -1.06 1.78 -1.77 3.11 -1.77 c 1.07 0 2.04 0.44 2.66 1.23 c 0 0 0 0.09 0 0.09 c 0 0.27 0.18 0.44 0.45 0.44 h 0.45 c 1.24 0 2.22 0.97 2.22 2.21 c 0 1.23 -0.98 2.21 -2.22 2.21 c -0.18 0 -0.45 -0.09 -0.71 -0.18 c 0 0 0 0 -0.09 0 c 0 0 -0.09 0 -0.09 0 c 0 0 -0.09 0 -0.09 0 c 0 0 -0.09 0 -0.09 0 c 0 0 -0.09 0 -0.09 0 c 0 0 0 0 -0.09 0 c -0.62 0.7 -1.51 1.06 -2.31 1.06 c -0.98 0 -1.96 -0.44 -2.58 -1.15 c 0 0 -0.09 0 -0.09 -0.09 c 0 0 -0.09 0 -0.09 0 c 0 0 -0.09 0 -0.09 0 c 0 0 -0.09 0 -0.09 0 c 0 0 -0.09 0 -0.09 0 c 0 0 -0.09 0 -0.09 0 c -0.44 0.18 -0.89 0.36 -1.33 0.36 c -1.24 0 -2.22 -0.97 -2.22 -2.21 c 0 -1.23 0.98 -2.21 2.22 -2.21"/><path d="m 7.41 18.1 c 0 1.24 1.77 1.24 1.77 0 c 0 -0.53 -0.89 -1.77 -0.89 -1.77 c 0 0 -0.89 1.24 -0.89 1.77"/><path d="m 6.52 13.68 c 0 0 -0.89 1.23 -0.89 1.77 c 0 1.23 1.78 1.23 1.78 0 c 0 -0.53 -0.89 -1.77 -0.89 -1.77"/><path d="m 13.63 13.68 c 0 0 -0.89 1.23 -0.89 1.77 c 0 1.23 1.78 1.23 1.78 0 c 0 -0.53 -0.89 -1.77 -0.89 -1.77"/><path d="m 16.3 15.44 c 0 1.23 1.78 1.23 1.78 0 c 0 -0.53 -0.89 -1.77 -0.89 -1.77 c 0 0 -0.89 1.23 -0.89 1.77"/><path d="m 10.96 18.1 c 0 1.24 1.78 1.24 1.78 0 c 0 -0.53 -0.89 -1.77 -0.89 -1.77 c 0 0 -0.89 1.24 -0.89 1.77"/><path d="m 14.52 18.1 c 0 1.24 1.78 1.24 1.78 0 c 0 -0.53 -0.89 -1.77 -0.89 -1.77 c 0 0 -0.89 1.24 -0.89 1.77"/><path d="m 10.1 13.68 c 0 0 -0.89 1.23 -0.89 1.77 c 0 1.23 1.78 1.23 1.78 0 c 0 -0.53 -0.89 -1.77 -0.89 -1.77"/></g></svg>