<svg xmlns="http://www.w3.org/2000/svg" viewBox="0 0 24 24"><path d="m 5.61 2.5 c 8.93 -7.92 22.67 4.57 17.1 15 c -5.62 10.57 -24.2 7.75 -22.62 -5.23 c 0.47 -3.86 2.59 -7.21 5.51 -9.8" style="fill:#20b2aa"/><g style="fill:#fff"><path d="m 11 17.41 c 0 2.12 2.93 2.12 2.93 0 c 0 -0.92 -1.46 -3.04 -1.46 -3.04 c 0 0 -1.47 2.12 -1.47 3.04"/><path d="m 17.56 9.3 c -0.39 -1.84 -2.05 -3.22 -4.11 -3.22 c -1.66 0 -3.13 0.92 -3.81 2.3 c -0.49 -0.18 -1.08 -0.46 -1.66 -0.46 c -2.15 0 -3.81 1.75 -3.81 3.87 c 0 2.12 1.66 3.87 3.81 3.87 c 0.29 0 0.49 -0.19 0.49 -0.46 c 0 -0.28 -0.2 -0.46 -0.49 -0.46 c -1.57 0 -2.84 -1.29 -2.84 -2.95 c 0 -1.66 1.27 -2.95 2.84 -2.95 c 0.59 0 1.27 0.37 1.57 0.64 c 0.2 0.18 0.49 0.09 0.68 -0.09 c 0.1 -0.09 0.1 -0.19 0.1 -0.28 c 0.49 -1.29 1.76 -2.12 3.13 -2.12 c 1.66 0 2.93 1.2 3.23 2.77 c 0 0 0 0.09 0 0.09 c 0 0 0 0 0 0.09 c 0 0.09 0.1 0.09 0.1 0.09 c 0 0 0.1 0.09 0.1 0.09 c 1.27 0.28 1.96 1.2 1.96 2.3 c 0 1.38 -1.17 2.58 -2.45 2.58 c -0.29 0 -0.49 0.19 -0.49 0.46 c 0 0.28 0.2 0.46 0.49 0.46 c 1.86 0 3.42 -1.57 3.42 -3.5 c 0 -1.47 -0.88 -2.58 -2.25 -3.13"/></g></svg>