<svg xmlns="http://www.w3.org/2000/svg" viewBox="0 0 24 24"><path d="m 18.39 21.5 c -8.93 7.92 -22.67 -4.57 -17.1 -15 c 5.62 -10.57 24.2 -7.75 22.62 5.23 c -0.47 3.86 -2.6 7.21 -5.51 9.8" style="fill:#70706e"/><g style="fill:#fff"><path d="m 11.71 10.1 c 0 0 -1.36 1.91 -1.36 2.73 c 0 1.91 2.73 1.91 2.73 0 c 0 -0.83 -1.36 -2.73 -1.36 -2.73"/><path d="m 5.44 15.56 c 0 1.49 2.27 1.49 2.27 0 c 0 -0.58 -1.09 -2.16 -1.09 -2.16 c 0 0 -1.18 1.49 -1.18 2.16"/><path d="m 9.1 17.22 c 0 1.49 2.27 1.49 2.27 0 c 0 -0.58 -1.09 -2.16 -1.09 -2.16 c 0 0 -1.18 1.49 -1.18 2.16"/><path d="m 12.71 17.22 c 0 1.49 2.27 1.49 2.27 0 c 0 -0.58 -1.09 -2.16 -1.09 -2.16 c 0 0 -1.18 1.49 -1.18 2.16"/><path d="m 16.2 15.56 c 0 1.49 2.27 1.49 2.27 0 c 0.09 -0.58 -1.09 -2.16 -1.09 -2.16 c 0 0 -1.18 1.49 -1.18 2.16"/><path d="m 19.2 10.51 c 0 -1.16 -0.82 -2.16 -2.09 -2.65 c -0.36 -1.57 -1.91 -2.73 -3.82 -2.73 c -1.55 0 -2.82 0.75 -3.55 1.91 c -0.46 -0.25 -1 -0.33 -1.55 -0.33 c -1.91 0 -3.55 1.49 -3.55 3.23 c 0 1.74 1.64 3.23 3.55 3.23 c 0.27 0 0.45 -0.17 0.45 -0.42 c 0 -0.25 -0.18 -0.41 -0.45 -0.41 c -1.46 0 -2.64 -1.07 -2.64 -2.4 c 0 -1.32 1.18 -2.4 2.64 -2.4 c 0.54 0 1.09 0.16 1.45 0.41 c 0.13 0 0.24 0 0.36 0 c 0.24 0 0.37 -0.19 0.37 -0.33 c 0.45 -0.99 1.54 -1.66 2.91 -1.66 c 1.54 0 2.73 0.91 3 2.32 c -0.02 0.17 0.18 0.25 0.27 0.33 c 1.09 0.25 1.73 0.99 1.73 1.91 c 0 1.16 -1 2.15 -2.27 2.15 c -0.27 0 -0.45 0.17 -0.45 0.41 c 0 0.25 0.18 0.41 0.45 0.41 c 1.73 0 3.18 -1.32 3.18 -2.98"/></g></svg>