<svg xmlns="http://www.w3.org/2000/svg" viewBox="0 0 24 24"><path d="m 5 2.54 c 8.38 -7.92 22.73 4.57 17.82 15 c -4.95 10.57 -23.54 7.75 -22.72 -5.23 c 0.24 -3.86 2.16 -7.21 4.89 -9.8" style="fill:#213352"/><g style="fill:#fff"><path d="m 16.51 16.73 c 0 1.25 1.85 1.25 1.85 0 c 0 -0.54 -0.93 -1.78 -0.93 -1.78 c 0 0 -0.92 1.25 -0.92 1.78"/><path d="m 5.43 16.56 c 0 1.25 1.85 1.25 1.85 0 c 0 -0.54 -0.92 -1.79 -0.92 -1.79 c 0 0 -0.93 1.25 -0.93 1.79"/><path d="m 13.74 18.34 c 0 1.25 1.85 1.25 1.85 0 c 0 -0.54 -0.93 -1.79 -0.93 -1.79 c 0 0 -0.92 1.25 -0.92 1.79"/><path d="m 8.2 18.34 c 0 1.25 1.85 1.25 1.85 0 c 0 -0.54 -0.92 -1.79 -0.92 -1.79 c 0 0 -0.93 1.25 -0.93 1.79"/><path d="m 19.28 11.65 c 0 -1.25 -0.83 -2.32 -2.13 -2.86 c -0.37 -1.7 -1.94 -2.95 -3.88 -2.95 c -1.57 0 -2.86 0.8 -3.6 2.05 c -0.46 -0.27 -1.02 -0.36 -1.57 -0.36 c -1.94 0 -3.6 1.61 -3.6 3.48 c 0 1.87 1.66 3.48 3.6 3.48 c 0.28 0 0.46 -0.18 0.46 -0.45 c 0 -0.27 -0.18 -0.45 -0.46 -0.45 c -1.48 0 -2.68 -1.16 -2.68 -2.59 c 0 -1.43 1.2 -2.59 2.68 -2.59 c 0.55 0 1.11 0.18 1.48 0.45 c 0.11 0 0.31 0 0.46 0 c 0.25 -0.02 0.28 -0.25 0.28 -0.27 c 0 0 0 0 0 -0.09 c 0.46 -1.07 1.57 -1.78 2.96 -1.78 c 1.57 0 2.77 0.98 3.05 2.5 v 0.09 c 0.05 0.13 0.18 0.18 0.28 0.27 c 1.11 0.27 1.75 1.07 1.75 2.05 c 0 1.25 -1.02 2.23 -2.31 2.23 c -0.28 0 -0.46 0.18 -0.46 0.45 c 0 0.27 0.18 0.45 0.46 0.45 c 1.75 0 3.23 -1.43 3.23 -3.12"/><path d="m 15.1 11.21 h -2.31 l -0.18 2.68 h -2.13 l 0.93 4.91 l 0.74 -3.13 h 2.03"/></g></svg>