<svg xmlns="http://www.w3.org/2000/svg" viewBox="0 0 24 24"><path d="m 19.9 4.23 c 12.18 9.77 -5.65 27.41 -16.43 16.1 c -10.8 -9.7 6.1 -28.51 16.43 -16.1" style="fill:#70929f"/><g style="fill:#fff"><path d="m 8.32 15.84 c 0 0.5 -0.39 0.9 -0.86 0.9 c -0.48 0 -0.86 -0.4 -0.86 -0.9 c 0 -0.49 0.38 -0.89 0.86 -0.89 c 0.48 0 0.86 0.4 0.86 0.89"/><path d="m 16.95 15.84 c 0 0.5 -0.39 0.9 -0.86 0.9 c -0.48 0 -0.86 -0.4 -0.86 -0.9 c 0 -0.49 0.39 -0.89 0.86 -0.89 c 0.48 0 0.86 0.4 0.86 0.89"/><path d="m 15.22 18.53 c 0 0.5 -0.39 0.89 -0.86 0.89 c -0.48 0 -0.86 -0.4 -0.86 -0.89 c 0 -0.5 0.39 -0.89 0.86 -0.89 c 0.47 0 0.86 0.4 0.86 0.89"/><path d="m 10.1 18.53 c 0 0.5 -0.39 0.89 -0.86 0.89 c -0.48 0 -0.86 -0.4 -0.86 -0.89 c 0 -0.5 0.39 -0.89 0.86 -0.89 c 0.48 0 0.86 0.4 0.86 0.89"/><path d="m 12.64 16.74 c 0 0.49 -0.39 0.89 -0.86 0.89 c -0.48 0 -0.86 -0.4 -0.86 -0.89 c 0 -0.5 0.39 -0.9 0.86 -0.9 c 0.48 0 0.86 0.4 0.86 0.9"/><path d="m 15.66 7.79 c -0.86 -1.16 -2.07 -1.79 -3.45 -1.79 c -1.38 0 -2.68 0.71 -3.54 1.88 c -0.26 0 -0.52 -0.09 -0.77 -0.09 c -1.73 0 -3 1.34 -3 3.13 c 0 1.79 1.29 3.14 3 3.14 c 0.43 0 0.95 -0.09 1.38 -0.36 c 0.78 0.8 1.81 1.25 2.93 1.25 c 0.95 0 1.89 -0.36 2.67 -1.07 c 0.26 0.09 0.52 0.18 0.78 0.18 c 1.72 0 3 -1.34 3 -3.14 c 0 -1.79 -1.29 -3.13 -3 -3.13 m 0 5.38 c -0.17 0 -0.43 -0.09 -0.69 -0.18 c 0 0 0 0 -0.09 0 c 0 0 -0.09 0 -0.09 0 c 0 0 -0.09 0 -0.09 0 c 0 0 -0.09 0 -0.09 0 c 0 0 -0.09 0 -0.09 0.09 c -0.69 0.63 -1.55 0.98 -2.33 0.98 c -0.95 0 -1.9 -0.45 -2.5 -1.16 c 0 0 -0.09 0 -0.09 -0.09 c 0 0 -0.09 0 -0.09 0 c 0 0 -0.09 0 -0.09 0 c 0 0 -0.09 0 -0.09 0 c 0 0 -0.09 0 -0.09 0 c 0 0 -0.09 0 -0.09 0 c 0 0 0 0 -0.09 0 c -0.34 0.18 -0.78 0.36 -1.21 0.36 c -1.21 0 -2.16 -0.99 -2.16 -2.24 c 0 -1.25 0.95 -2.24 2.16 -2.24 c 0.26 0 0.52 0.09 0.77 0.18 c 0 0 0.09 0 0.09 0 c 0.09 0 0.17 0 0.17 -0.09 c 0.17 0 0.26 -0.09 0.26 -0.09 c 0.69 -1.07 1.72 -1.79 3 -1.79 c 1.12 0 2.16 0.54 2.84 1.61 c 0 0 0 0.09 0.09 0.09 c 0 0 0 0 0.09 0 c 0 0 0.09 0 0.09 0 c 0 0 0.09 0 0.09 0 c 0 0 0 0 0.09 0 h 0.26 c 1.12 0.09 2.07 1.07 2.07 2.33 c 0 1.25 -0.95 2.24 -2.16 2.24"/></g></svg>