<svg xmlns="http://www.w3.org/2000/svg" viewBox="0 0 24 24"><path d="m 13 23.83 c -14.26 1.36 -18.1 -21.63 -3.46 -23.41 c 13.46 -2.21 20.39 18.63 7 22.79 c -1.14 0.46 -2.38 0.45 -3.56 0.62" style="fill:#00ced0"/><g style="fill:#fff"><path d="m 16 7.86 c -0.89 -1.25 -2.15 -1.92 -3.58 -1.92 c -1.43 0 -2.78 0.77 -3.67 2 c -0.27 0 -0.54 -0.09 -0.8 -0.09 c -1.79 0 -3.14 1.44 -3.14 3.36 c 0 1.92 1.34 3.36 3.14 3.36 c 0.45 0 0.98 -0.1 1.43 -0.38 c 0.81 0.86 1.88 1.34 3.05 1.34 c 0.98 0 1.97 -0.38 2.77 -1.15 c 0.27 0.09 0.54 0.19 0.8 0.19 c 1.79 0 3.14 -1.44 3.14 -3.36 c 0 -1.92 -1.34 -3.36 -3.14 -3.36 m 0 5.75 c -0.18 0 -0.45 -0.09 -0.71 -0.19 c -0.14 0 -0.23 0 -0.36 0 c 0 0 -0.09 0 -0.09 0.1 c -0.71 0.67 -1.61 1.05 -2.41 1.05 c -0.99 0 -1.97 -0.48 -2.6 -1.25 c 0 0 -0.09 0 -0.09 -0.09 c -0.18 0 -0.35 0 -0.54 0 c -0.36 0.19 -0.8 0.38 -1.25 0.38 c -1.25 0 -2.24 -1.05 -2.24 -2.4 c 0 -1.34 0.98 -2.4 2.24 -2.4 c 0.27 0 0.54 0.1 0.8 0.19 c 0.19 -0.04 0.39 -0.09 0.54 -0.19 c 0.91 -1.2 2.04 -1.89 3.14 -1.92 c 1.07 0 2.06 0.48 2.68 1.34 v 0.09 c 0 0.29 0.18 0.48 0.45 0.48 h 0.45 c 1.25 0 2.24 1.05 2.24 2.4 c 0 1.34 -0.98 2.4 -2.24 2.4"/><path d="m 11.1 18.99 c 0 1.73 2.24 1.73 2.24 0 c -0.09 -0.67 -1.16 -2.49 -1.16 -2.49 c 0 0 -1.07 1.73 -1.07 2.49"/><path d="m 15.34 17.62 c 0 1.73 2.24 1.73 2.24 0 c -0.09 -0.67 -1.16 -2.49 -1.16 -2.49 c 0 0 -1.07 1.73 -1.07 2.49"/><path d="m 6.48 17.66 c 0 1.73 2.24 1.73 2.24 0 c -0.09 -0.67 -1.16 -2.49 -1.16 -2.49 c 0 0 -1.07 1.73 -1.07 2.49"/></g></svg>