<svg xmlns="http://www.w3.org/2000/svg" viewBox="0 0 24 24"><path d="m 20.56 4.5 c 14.97 21.28 -23.97 28.1 -20.1 5.44 c 2.05 -8.99 14.1 -13.97 20.1 -5.44" style="fill:#00bfff"/><g style="fill:#fff"><path d="m 4.66 10.86 c 0 -1.91 1.34 -3.35 3.14 -3.35 h 0.09 c 0.8 -1.24 2.15 -1.91 3.5 -1.91 c 1.43 0 2.78 0.77 3.67 2 c 0.27 0 0.54 -0.1 0.81 -0.1 c 1.79 0 3.14 1.44 3.14 3.35 c 0 1.91 -1.34 3.35 -3.14 3.35 c -0.45 0 -0.99 -0.1 -1.43 -0.38 c -0.81 0.86 -1.88 1.34 -3.05 1.34 c -0.99 0 -1.97 -0.38 -2.78 -1.15 c -0.27 0.09 -0.54 0.19 -0.8 0.19 c -1.79 0 -3.14 -1.43 -3.14 -3.35 m 3.14 2.39 c 0.18 0 0.45 -0.09 0.71 -0.19 c 0.16 0.01 0.45 -0.05 0.45 0.1 c 0.67 0.64 1.61 1.04 2.42 1.05 c 0.98 0 1.97 -0.48 2.6 -1.24 c 0.07 -0.06 0.09 0 0.09 -0.1 c 0.18 0 0.38 0 0.54 0 c 0.36 0.19 0.8 0.38 1.25 0.38 c 1.25 0 2.24 -1.05 2.24 -2.39 c 0 -1.34 -0.98 -2.39 -2.24 -2.39 c -0.27 0 -0.54 0.1 -0.81 0.19 c -0.18 -0.02 -0.4 -0.1 -0.54 -0.19 c -0.73 -1.2 -2.03 -1.89 -3.14 -1.91 c -1.08 0 -2.06 0.48 -2.69 1.34 v 0.1 c 0 0.29 -0.18 0.48 -0.45 0.48 h -0.45 c -1.25 0 -2.24 1.05 -2.24 2.39 c 0 1.34 0.99 2.39 2.24 2.39"/><path d="m 15.51 18 c 0 1.34 -1.79 1.34 -1.79 0 c 0 -0.57 0.9 -1.91 0.9 -1.91 c 0 0 0.89 1.34 0.89 1.91"/><path d="m 18.29 17.1 c 0 1.34 -1.79 1.34 -1.79 0 c 0 -0.57 0.9 -1.91 0.9 -1.91 c 0 0 0.89 1.34 0.89 1.91"/><path d="m 7.35 17.1 c 0 1.34 -1.79 1.34 -1.79 0 c 0 -0.57 0.9 -1.91 0.9 -1.91 c 0 0 0.89 1.34 0.89 1.91"/><path d="m 10 18 c 0 1.34 -1.79 1.34 -1.79 0 c 0 -0.57 0.89 -1.91 0.89 -1.91 c 0 0 0.89 1.34 0.89 1.91"/><path d="m 12.73 18.98 c 0 1.34 -1.79 1.34 -1.79 0 c 0 -0.57 0.89 -1.91 0.89 -1.91 c 0 0 0.9 1.34 0.9 1.91"/></g></svg>