<svg xmlns="http://www.w3.org/2000/svg" viewBox="0 0 24 24"><path d="m 20.56 19.59 c 14.97 -21.28 -23.97 -28.1 -20.1 -5.44 c 2.05 8.99 14.1 13.97 20.1 5.44" style="fill:#4c5262"/><g style="fill:#fff"><path d="m 7.91 14.1 c -1.81 0 -3.17 -1.42 -3.17 -3.32 c 0 -1.9 1.36 -3.32 3.17 -3.32 c 0.36 0 0.73 0.09 1.18 0.19 c 0.18 0.09 0.36 0.38 0.27 0.66 c -0.09 0.19 -0.36 0.38 -0.64 0.28 c -0.27 -0.09 -0.54 -0.19 -0.82 -0.19 c -1.27 0 -2.27 1.04 -2.27 2.37 c 0 1.33 1 2.37 2.27 2.37 c 0.45 0 0.91 -0.19 1.27 -0.38 c 0.18 -0.09 0.45 -0.09 0.64 0.19 c 0.18 0.29 0.09 0.47 -0.18 0.66 c -0.54 0.29 -1.18 0.47 -1.72 0.47"/><path d="m 16.1 14.1 c -0.36 0 -0.91 -0.19 -1.09 -0.19 c -0.27 -0.09 -0.36 -0.38 -0.27 -0.57 c 0.09 -0.29 0.36 -0.38 0.55 -0.29 c 0.36 0 0.63 0.1 0.81 0.1 c 1.27 0 2.27 -1.04 2.27 -2.37 c 0 -1.33 -1 -2.37 -2.27 -2.37 h -0.45 c -0.27 0 -0.45 -0.19 -0.45 -0.48 c 0 -0.28 0.18 -0.47 0.45 -0.47 h 0.45 c 1.82 0 3.18 1.42 3.18 3.32 c 0 1.89 -1.36 3.32 -3.18 3.32"/><path d="m 12.44 15.1 c -1.27 0 -2.45 -0.57 -3.36 -1.61 c -0.18 -0.19 -0.18 -0.47 0 -0.66 c 0.18 -0.19 0.45 -0.19 0.63 0 c 0.73 0.86 1.73 1.33 2.72 1.33 c 0.82 0 1.72 -0.38 2.45 -1.04 c 0.18 -0.19 0.45 -0.19 0.63 0 c 0.18 0.19 0.18 0.48 0 0.66 c -0.91 0.86 -2 1.33 -3.08 1.33"/><path d="m 8.91 8.61 c -0.09 0 -0.18 0 -0.27 -0.09 c -0.18 -0.09 -0.27 -0.38 -0.09 -0.66 c 0.82 -1.42 2.27 -2.27 3.9 -2.27 c 1.54 0 2.9 0.76 3.72 2.09 c 0.18 0.19 0.09 0.47 -0.09 0.66 c -0.18 0.19 -0.45 0.09 -0.63 -0.1 c -0.73 -1.14 -1.81 -1.71 -2.99 -1.71 c -1.27 0 -2.45 0.66 -3.18 1.9 c -0.09 0.09 -0.18 0.19 -0.36 0.19"/><path d="m 6.55 14.21 l -0.91 1.42 l 0.91 1.42 l 0.91 -1.42"/><path d="m 17.43 14.21 l -0.91 1.42 l 0.91 1.42 l 0.91 -1.42"/><path d="m 14.71 15.53 l -0.91 1.43 l 0.91 1.42 l 0.91 -1.42"/><path d="m 9.27 15.63 l -0.91 1.42 l 0.91 1.43 l 0.91 -1.43"/><path d="m 11.99 17.1 l -0.91 1.42 l 0.91 1.42 l 0.91 -1.42"/></g></svg>