<svg xmlns="http://www.w3.org/2000/svg" viewBox="0 0 24 24"><path d="m 19.89 19.88 c 12.1 -9.78 -5.62 -27.41 -16.32 -16.1 c -10.73 9.7 6 28.51 16.32 16.1" style="fill:#4b4d6f"/><g style="fill:#fff"><path d="m 12.75 17.66 c 0 0.25 0.2 0.46 0.44 0.46 c 0.24 0 0.44 -0.21 0.44 -0.46 c 0 -0.25 -0.2 -0.45 -0.44 -0.45 c -0.24 0 -0.44 0.2 -0.44 0.45"/><path d="m 10.18 17.63 c 0 0.25 0.2 0.46 0.44 0.46 c 0.24 0 0.44 -0.21 0.44 -0.46 c 0 -0.25 -0.2 -0.45 -0.44 -0.45 c -0.24 0 -0.44 0.2 -0.44 0.45"/><path d="m 11.4 19.45 c 0 0.25 0.2 0.45 0.44 0.45 c 0.24 0 0.44 -0.2 0.44 -0.45 c 0 -0.25 -0.2 -0.46 -0.44 -0.46 c -0.25 0 -0.44 0.21 -0.44 0.46"/><path d="m 15.6 13.82 c -0.27 0 -0.44 -0.18 -0.44 -0.45 c 0 -0.27 0.18 -0.46 0.44 -0.46 c 1.41 0 2.56 -1.18 2.56 -2.64 c 0 -1.46 -1.14 -2.64 -2.56 -2.64 c -0.53 0 -1.06 0.18 -1.41 0.45 c -0.13 0 -0.38 0 -0.53 0 c -0.07 -0.05 -0.17 -0.12 -0.18 -0.18 c 0 -0.06 0 -0.13 0 -0.18 c -0.44 -1.09 -1.5 -1.82 -2.82 -1.82 c -1.41 0 -2.47 0.91 -2.82 2.18 c 0 0.09 0 0.27 -0.09 0.36 c -0.09 0.18 -0.26 0.36 -0.44 0.36 c -0.06 0 -0.12 0 -0.18 0 c -0.79 0.36 -1.32 1.18 -1.32 2.09 c 0 1.27 0.97 2.36 2.2 2.36 c 0.27 0 0.44 0.18 0.44 0.46 c 0 0.27 -0.18 0.45 -0.44 0.45 c -1.68 0 -3.09 -1.45 -3.09 -3.27 c 0 -1.36 0.79 -2.55 2.03 -3 c 0.44 -1.73 1.94 -2.91 3.71 -2.91 c 1.5 0 2.73 0.82 3.44 2.09 c 0.44 -0.27 0.97 -0.36 1.5 -0.36 c 1.85 0 3.44 1.64 3.44 3.55 c 0 1.91 -1.59 3.55 -3.44 3.55"/></g><g style="fill:#f4f4f4"><path d="m 14.17 13.59 c -0.09 -0.26 -0.01 -0.26 -1.27 -0.05 c -0.45 0.08 -0.82 0.13 -0.83 0.12 c -0.01 -0.01 0.01 -0.05 0.04 -0.09 c 0.96 -1.21 1.14 -1.52 1.03 -1.76 c -0.05 -0.12 -0.1 -0.14 -0.23 -0.14 c -0.29 0 -0.38 0.13 -0.72 1.08 c -0.36 0.98 -0.33 0.92 -0.36 0.85 c -0.02 -0.03 -0.11 -0.31 -0.22 -0.62 c -0.43 -1.27 -0.56 -1.46 -0.88 -1.23 c -0.27 0.18 -0.23 0.41 0.14 0.84 c 0.35 0.4 0.82 1 0.82 1.05 c 0 0.05 0.05 0.05 -0.81 -0.1 c -0.81 -0.14 -1.05 -0.16 -1.14 -0.09 c -0.16 0.14 -0.23 0.43 -0.12 0.55 c 0.16 0.18 0.36 0.22 0.71 0.13 c 0.34 -0.09 1.36 -0.27 1.38 -0.24 c 0.02 0.03 -0.16 0.26 -0.68 0.89 c -0.24 0.29 -0.41 0.52 -0.44 0.63 c -0.05 0.15 -0.05 0.17 0.01 0.31 c 0.07 0.14 0.07 0.15 0.27 0.16 c 0.18 0.01 0.22 0 0.27 -0.07 c 0.04 -0.04 0.2 -0.46 0.37 -0.92 c 0.17 -0.46 0.32 -0.84 0.34 -0.85 c 0.02 -0.01 0.14 0.31 0.29 0.71 c 0.41 1.14 0.4 1.13 0.66 1.13 c 0.19 0 0.24 -0.03 0.32 -0.2 c 0.1 -0.16 0.04 -0.21 -0.04 -0.37 c -0.06 -0.13 -0.32 -0.49 -0.58 -0.81 c -0.26 -0.33 -0.46 -0.6 -0.46 -0.61 c 0.02 -0.02 0.6 0.08 1.16 0.21 c 0.5 0.11 0.7 0.12 0.85 0.03 c 0.18 -0.16 0.17 -0.38 0.13 -0.54"/><path d="m 7.34 19.1 c 0.22 -0.07 0.22 -0.01 0.04 -1.14 c -0.07 -0.4 -0.11 -0.74 -0.1 -0.75 c 0.01 -0.01 0.04 0 0.07 0.03 c 1.04 0.87 1.3 1.03 1.5 0.93 c 0.1 -0.05 0.12 -0.09 0.12 -0.21 c 0 -0.26 -0.11 -0.34 -0.92 -0.65 c -0.83 -0.32 -0.78 -0.3 -0.73 -0.33 c 0.03 -0.01 0.27 -0.1 0.53 -0.2 c 1.09 -0.39 1.24 -0.5 1.05 -0.8 c -0.16 -0.24 -0.35 -0.21 -0.72 0.13 c -0.34 0.31 -0.86 0.74 -0.89 0.74 c -0.04 0 -0.04 0.04 0.09 -0.73 c 0.12 -0.73 0.14 -0.94 0.07 -1.02 c -0.13 -0.15 -0.36 -0.2 -0.47 -0.11 c -0.15 0.14 -0.18 0.33 -0.11 0.64 c 0.07 0.31 0.23 1.22 0.21 1.25 c -0.02 0.02 -0.22 -0.14 -0.76 -0.62 c -0.25 -0.22 -0.45 -0.36 -0.54 -0.4 c -0.13 -0.05 -0.14 -0.05 -0.26 0.01 c -0.12 0.06 -0.13 0.07 -0.13 0.25 c -0.01 0.16 0 0.2 0.05 0.25 c 0.04 0.03 0.39 0.18 0.79 0.33 c 0.39 0.15 0.72 0.29 0.72 0.3 c 0 0.02 -0.27 0.13 -0.61 0.26 c -0.96 0.36 -0.96 0.36 -0.96 0.6 c 0 0.17 0.02 0.21 0.17 0.28 c 0.14 0.09 0.19 0.04 0.32 -0.03 c 0.11 -0.05 0.42 -0.29 0.69 -0.52 c 0.28 -0.23 0.51 -0.42 0.52 -0.41 c 0.02 0.02 -0.07 0.54 -0.18 1.04 c -0.1 0.45 -0.1 0.62 -0.02 0.77 c 0.14 0.16 0.32 0.15 0.46 0.11"/><path d="m 16.58 18.98 c 0.23 -0.07 0.23 -0.01 0.04 -1.13 c -0.06 -0.4 -0.11 -0.73 -0.1 -0.74 c 0.01 -0.01 0.04 0.01 0.07 0.04 c 1.06 0.86 1.32 1.02 1.54 0.92 c 0.1 -0.05 0.12 -0.09 0.13 -0.21 c 0 -0.25 -0.12 -0.34 -0.95 -0.64 c -0.85 -0.32 -0.8 -0.29 -0.74 -0.32 c 0.03 -0.02 0.27 -0.11 0.54 -0.2 c 1.11 -0.39 1.27 -0.5 1.07 -0.79 c -0.16 -0.24 -0.36 -0.2 -0.74 0.13 c -0.35 0.31 -0.88 0.73 -0.91 0.73 c -0.04 0 -0.04 0.04 0.09 -0.73 c 0.13 -0.72 0.14 -0.94 0.07 -1.01 c -0.13 -0.15 -0.37 -0.2 -0.48 -0.11 c -0.16 0.14 -0.19 0.32 -0.11 0.63 c 0.08 0.3 0.23 1.21 0.21 1.23 c -0.02 0.02 -0.22 -0.14 -0.78 -0.61 c -0.25 -0.21 -0.46 -0.36 -0.55 -0.39 c -0.13 -0.05 -0.15 -0.04 -0.27 0.01 c -0.13 0.06 -0.13 0.07 -0.14 0.25 c -0.01 0.16 0 0.2 0.06 0.24 c 0.04 0.03 0.39 0.18 0.8 0.33 c 0.4 0.15 0.73 0.28 0.74 0.3 c 0 0.01 -0.28 0.13 -0.62 0.25 c -0.99 0.36 -0.98 0.36 -0.98 0.59 c 0 0.17 0.02 0.21 0.17 0.28 c 0.14 0.09 0.19 0.04 0.32 -0.04 c 0.11 -0.05 0.43 -0.28 0.71 -0.52 c 0.28 -0.23 0.52 -0.41 0.53 -0.41 c 0.02 0.02 -0.07 0.54 -0.18 1.03 c -0.1 0.45 -0.11 0.62 -0.02 0.76 c 0.14 0.16 0.33 0.15 0.46 0.11"/></g><g style="fill:#fff"><path d="m 14.1 20.1 c 0 0.25 0.2 0.45 0.44 0.45 c 0.25 0 0.44 -0.2 0.44 -0.45 c 0 -0.25 -0.2 -0.46 -0.44 -0.46 c -0.24 0 -0.44 0.2 -0.44 0.46"/><path d="m 8.91 20.23 c 0 0.25 0.2 0.45 0.44 0.45 c 0.24 0 0.44 -0.2 0.44 -0.45 c 0 -0.25 -0.2 -0.46 -0.44 -0.46 c -0.25 0 -0.44 0.2 -0.44 0.46"/></g></svg>