<svg xmlns="http://www.w3.org/2000/svg" viewBox="0 0 24 24"><path d="m 19.9 4.23 c 12.18 9.77 -5.65 27.41 -16.43 16.1 c -10.8 -9.7 6.1 -28.51 16.43 -16.1" style="fill:#084670"/><g style="fill:#fff"><path d="m 11.41 18.1 c 0 0.25 -0.2 0.46 -0.44 0.46 c -0.24 0 -0.44 -0.2 -0.44 -0.46 c 0 -0.25 0.2 -0.45 0.44 -0.45 c 0.25 0 0.44 0.2 0.44 0.45"/><path d="m 13.75 18.1 c 0 0.25 -0.2 0.46 -0.44 0.46 c -0.25 0 -0.44 -0.2 -0.44 -0.46 c 0 -0.25 0.2 -0.45 0.44 -0.45 c 0.24 0 0.44 0.2 0.44 0.45"/><path d="m 12.14 19.83 c 0 0.25 -0.2 0.46 -0.44 0.46 c -0.25 0 -0.44 -0.21 -0.44 -0.46 c 0 -0.25 0.2 -0.45 0.44 -0.45 c 0.24 0 0.44 0.2 0.44 0.45"/><path d="m 8.41 14.25 c 0.26 0 0.44 -0.18 0.44 -0.45 c 0 -0.27 -0.18 -0.46 -0.44 -0.46 c -1.41 0 -2.56 -1.18 -2.56 -2.64 c 0 -1.45 1.15 -2.64 2.56 -2.64 c 0.53 0 1.06 0.18 1.41 0.45 c 0.13 0 0.37 0 0.53 0 c 0.07 -0.05 0.17 -0.11 0.18 -0.18 c 0 -0.07 0 -0.13 0 -0.18 c 0.44 -1.09 1.5 -1.82 2.82 -1.82 c 1.41 0 2.47 0.91 2.82 2.18 c 0 0.09 0 0.27 0.09 0.36 c 0.09 0.18 0.27 0.37 0.44 0.37 c 0.06 0 0.12 0 0.18 0 c 0.8 0.36 1.32 1.18 1.32 2.09 c 0 1.27 -0.97 2.36 -2.21 2.36 c -0.26 0 -0.44 0.18 -0.44 0.46 c 0 0.27 0.18 0.45 0.44 0.45 c 1.68 0 3.09 -1.45 3.09 -3.27 c 0 -1.36 -0.79 -2.55 -2.03 -3 c -0.44 -1.73 -1.94 -2.91 -3.7 -2.91 c -1.5 0 -2.74 0.82 -3.44 2.09 c -0.44 -0.27 -0.97 -0.36 -1.5 -0.36 c -1.86 0 -3.44 1.64 -3.44 3.55 c 0 1.91 1.59 3.55 3.44 3.55"/></g><g style="fill:#f4f4f4"><path d="m 11.78 16.72 c -0.32 -0.12 -0.32 -0.02 -0.06 -1.75 c 0.09 -0.62 0.16 -1.13 0.15 -1.14 c -0.01 -0.01 -0.06 0.01 -0.11 0.05 c -1.5 1.33 -1.88 1.57 -2.18 1.42 c -0.14 -0.07 -0.18 -0.13 -0.18 -0.32 c 0 -0.4 0.16 -0.52 1.34 -1 c 1.21 -0.49 1.13 -0.45 1.05 -0.5 c -0.04 -0.02 -0.39 -0.16 -0.77 -0.3 c -1.58 -0.59 -1.8 -0.77 -1.53 -1.21 c 0.23 -0.37 0.52 -0.32 1.05 0.2 c 0.5 0.48 1.25 1.13 1.3 1.13 c 0.06 0 0.07 0.07 -0.13 -1.12 c -0.18 -1.12 -0.2 -1.45 -0.11 -1.56 c 0.18 -0.23 0.53 -0.31 0.68 -0.16 c 0.22 0.22 0.27 0.5 0.15 0.98 c -0.11 0.47 -0.33 1.87 -0.3 1.9 c 0.03 0.03 0.32 -0.21 1.11 -0.94 c 0.36 -0.34 0.65 -0.56 0.78 -0.61 c 0.19 -0.07 0.21 -0.07 0.38 0.02 c 0.18 0.09 0.18 0.1 0.2 0.38 c 0.01 0.24 0 0.3 -0.08 0.38 c -0.05 0.05 -0.57 0.28 -1.14 0.51 c -0.57 0.23 -1.04 0.43 -1.05 0.46 c -0.01 0.02 0.39 0.2 0.88 0.39 c 1.41 0.56 1.4 0.55 1.4 0.91 c 0 0.27 -0.04 0.33 -0.25 0.44 c -0.2 0.14 -0.27 0.05 -0.46 -0.05 c -0.15 -0.08 -0.61 -0.44 -1 -0.8 c -0.4 -0.36 -0.74 -0.64 -0.75 -0.63 c -0.03 0.03 0.1 0.83 0.26 1.59 c 0.14 0.7 0.15 0.96 0.04 1.18 c -0.2 0.25 -0.47 0.23 -0.66 0.17"/><path d="m 18.92 17.52 c -0.08 0.24 -0.01 0.23 -1.22 0.04 c -0.43 -0.07 -0.8 -0.12 -0.8 -0.11 c -0.01 0.01 0 0.05 0.04 0.08 c 0.93 1.11 1.11 1.38 1 1.6 c -0.05 0.11 -0.09 0.13 -0.22 0.13 c -0.28 0 -0.37 -0.13 -0.7 -0.98 c -0.34 -0.88 -0.32 -0.83 -0.35 -0.77 c -0.02 0.03 -0.11 0.28 -0.21 0.56 c -0.42 1.16 -0.54 1.32 -0.86 1.12 c -0.26 -0.17 -0.22 -0.38 0.14 -0.77 c 0.34 -0.36 0.79 -0.91 0.79 -0.95 c 0 -0.04 0.05 -0.05 -0.79 0.09 c -0.79 0.13 -1.02 0.15 -1.1 0.08 c -0.16 -0.13 -0.22 -0.39 -0.11 -0.5 c 0.16 -0.16 0.35 -0.2 0.69 -0.11 c 0.33 0.08 1.31 0.24 1.34 0.22 c 0.02 -0.02 -0.15 -0.23 -0.66 -0.81 c -0.24 -0.27 -0.39 -0.48 -0.43 -0.57 c -0.05 -0.14 -0.05 -0.15 0.01 -0.28 c 0.06 -0.13 0.07 -0.13 0.27 -0.14 c 0.17 -0.01 0.21 0 0.27 0.06 c 0.04 0.04 0.2 0.41 0.36 0.83 c 0.16 0.42 0.3 0.77 0.32 0.77 c 0.02 0.01 0.14 -0.29 0.28 -0.65 c 0.39 -1.03 0.39 -1.02 0.64 -1.02 c 0.18 0 0.23 0.03 0.3 0.18 c 0.1 0.14 0.04 0.2 -0.04 0.34 c -0.06 0.11 -0.31 0.45 -0.56 0.74 c -0.25 0.29 -0.45 0.54 -0.44 0.55 c 0.02 0.02 0.58 -0.07 1.12 -0.19 c 0.49 -0.1 0.67 -0.11 0.82 -0.03 c 0.18 0.15 0.16 0.35 0.12 0.49"/><path d="m 9.88 17.37 c -0.08 0.23 -0.01 0.23 -1.23 0.04 c -0.43 -0.07 -0.79 -0.12 -0.8 -0.11 c -0.01 0.01 0 0.05 0.04 0.08 c 0.93 1.1 1.11 1.38 1 1.59 c -0.05 0.11 -0.09 0.13 -0.22 0.13 c -0.28 0 -0.37 -0.12 -0.7 -0.98 c -0.34 -0.88 -0.32 -0.83 -0.35 -0.77 c -0.02 0.03 -0.11 0.28 -0.21 0.56 c -0.42 1.15 -0.54 1.32 -0.86 1.12 c -0.26 -0.17 -0.22 -0.38 0.14 -0.77 c 0.34 -0.36 0.79 -0.91 0.79 -0.95 c 0 -0.04 0.05 -0.05 -0.79 0.09 c -0.79 0.13 -1.02 0.15 -1.1 0.08 c -0.16 -0.13 -0.22 -0.39 -0.11 -0.5 c 0.16 -0.16 0.35 -0.2 0.69 -0.11 c 0.33 0.08 1.31 0.25 1.33 0.22 c 0.02 -0.02 -0.15 -0.24 -0.66 -0.81 c -0.23 -0.27 -0.39 -0.48 -0.43 -0.57 c -0.05 -0.14 -0.05 -0.15 0.01 -0.28 c 0.06 -0.13 0.07 -0.13 0.27 -0.14 c 0.17 -0.01 0.21 0 0.27 0.06 c 0.03 0.04 0.2 0.41 0.36 0.83 c 0.16 0.42 0.3 0.77 0.32 0.77 c 0.02 0 0.14 -0.29 0.28 -0.65 c 0.39 -1.03 0.39 -1.03 0.64 -1.03 c 0.18 0 0.23 0.03 0.3 0.18 c 0.1 0.14 0.04 0.2 -0.04 0.34 c -0.06 0.11 -0.31 0.45 -0.56 0.74 c -0.25 0.3 -0.45 0.54 -0.44 0.55 c 0.02 0.02 0.58 -0.07 1.12 -0.19 c 0.49 -0.11 0.67 -0.11 0.82 -0.03 c 0.18 0.15 0.16 0.35 0.12 0.49"/></g></svg>