<svg xmlns="http://www.w3.org/2000/svg" viewBox="0 0 24 24"><path d="m 9.7 23.48 c -2.2 -0.93 -5.24 -2.31 -5.51 -2.49 c -0.17 -0.11 -0.45 -0.39 -0.62 -0.62 c -0.5 -0.66 -3.2 -5.36 -3.31 -5.79 c -0.11 -0.39 -0.06 -1.81 0.11 -3.09 c 0.37 -3.79 0.19 -3.7 0.68 -4.52 c 0.11 -0.22 1.18 -1.47 2.39 -2.79 c 2.32 -2.52 2.57 -2.73 3.55 -2.92 c 2.63 -0.45 4.3 -1.02 6.66 -1.15 c 2.11 0.9 4.38 1.84 6.36 2.96 c 0.31 0.27 0.77 0.96 1.81 2.73 c 2.12 3.62 1.95 3.23 1.94 4.49 c -0.21 1.97 -0.2 5.26 -0.88 6.66 c -0.23 0.44 -3.33 3.93 -4.3 4.86 c -0.49 0.46 -0.97 0.67 -2.11 0.91 c -1.14 0.43 -3.83 0.87 -4.75 1.04 c -0.53 0.13 -1.15 0.08 -2 -0.29" style="fill:#4069e0"/><path d="m 15.72 10.46 l 2.37 1.11 c 0.09 0 0.09 0 0.19 0 c 0.19 0 0.38 -0.09 0.48 -0.28 c 0.09 -0.19 0 -0.46 -0.19 -0.65 l -1.7 -0.84 l 1.52 -0.83 c 0.19 -0.09 0.28 -0.37 0.19 -0.65 c -0.09 -0.28 -0.47 -0.28 -0.66 -0.09 l -1.61 0.84 l 0.19 -1.86 c 0 -0.28 -0.19 -0.46 -0.38 -0.46 c -0.28 0 -0.47 0.19 -0.47 0.37 l -0.38 2.5 l -2.84 1.57 v -3.15 l 2.08 -1.48 c 0.19 -0.18 0.29 -0.46 0.1 -0.65 c -0.19 -0.18 -0.47 -0.28 -0.66 -0.09 l -1.51 1.02 v -1.76 c 0 -0.28 -0.19 -0.46 -0.48 -0.46 c -0.28 0 -0.47 0.18 -0.47 0.46 v 1.76 l -1.51 -1.02 c -0.19 -0.18 -0.47 -0.09 -0.66 0.09 c -0.19 0.18 -0.09 0.46 0.09 0.65 l 2.08 1.48 v 3.24 l -2.74 -1.76 l -0.29 -2.5 c 0 -0.28 -0.29 -0.46 -0.47 -0.37 c -0.29 0 -0.47 0.28 -0.47 0.55 l 0.19 1.76 l -1.51 -0.93 c -0.29 -0.19 -0.57 -0.09 -0.66 0.09 c -0.19 0.28 -0.09 0.56 0.09 0.65 l 1.61 0.93 l -1.7 0.74 c -0.29 0.19 -0.38 0.46 -0.29 0.65 c 0.1 0.19 0.29 0.28 0.48 0.28 c 0.09 0 0.09 0 0.19 0 l 2.27 -1.02 l 2.84 1.67 l -2.84 1.57 l -2.36 -1.11 c -0.19 -0.09 -0.47 0 -0.66 0.19 c -0.09 0.28 0 0.55 0.29 0.74 l 1.7 0.83 l -1.61 0.84 c -0.19 0.09 -0.29 0.37 -0.19 0.65 c 0.09 0.18 0.28 0.28 0.38 0.28 c 0.09 0 0.19 0 0.19 -0.09 l 1.61 -0.83 l -0.19 1.85 c 0 0.28 0.19 0.46 0.38 0.46 c 0 0 0 0 0.1 0 c 0.28 0 0.47 -0.19 0.47 -0.37 l 0.38 -2.59 l 2.84 -1.58 v 3.25 l -2.08 1.48 c -0.19 0.19 -0.28 0.46 -0.09 0.65 c 0.09 0.09 0.29 0.19 0.38 0.19 c 0.09 0 0.19 0 0.29 -0.09 l 1.51 -1.11 v 1.76 c 0 0.28 0.19 0.46 0.47 0.46 c 0.29 0 0.48 -0.19 0.48 -0.46 v -1.76 l 1.51 1.02 c 0.19 0.19 0.47 0.09 0.66 -0.09 c 0.19 -0.18 0.09 -0.46 -0.1 -0.65 l -2.08 -1.48 v -3.15 l 2.74 1.67 l 0.29 2.5 c 0 0.28 0.19 0.37 0.47 0.37 c 0 0 0 0 0.09 0 c 0.29 0 0.47 -0.28 0.38 -0.46 l -0.19 -1.85 l 1.52 0.93 c 0.09 0 0.19 0.09 0.29 0.09 c 0.19 0 0.28 -0.09 0.38 -0.19 c 0.09 -0.18 0.09 -0.46 -0.19 -0.65 l -1.61 -0.93 l 1.7 -0.74 c 0.29 -0.09 0.38 -0.37 0.29 -0.65 c -0.09 -0.28 -0.38 -0.37 -0.66 -0.28 l -2.27 1.02 l -2.74 -1.67" style="fill:#fff"/></svg>