<svg xmlns="http://www.w3.org/2000/svg" viewBox="0 0 24 24"><path d="m 10.22 0.43 c -12.39 1.84 -13.86 20.1 -2.1 22.89 c 9.49 2.84 18 -7.46 15.31 -15.2 c -1.19 -5.16 -7.1 -9.33 -13.21 -7.73" style="fill:#7c5999"/><g transform="matrix(0.795 0 0 0.975 5.48 2.9)" style="fill:none;stroke-miterlimit:10;stroke:#fff;stroke-linecap:round"><path d="m 0.5 12.5 c 1.1 0.6 2.3 1 3.5 1 c 1.4 0 2.8 -0.4 4 -1 c 1.3 -0.6 2.6 -0.9 4 -1 c 1.4 0 1.7 0.4 3.5 1"/><path d="m 0.5 9.5 c 1.1 0.6 2.3 1 3.5 1 c 1.4 0 2.8 -0.4 4 -1 c 1.3 -0.6 2.6 -0.9 4 -1 c 1.4 0 1.7 0.4 3.5 1"/><path d="m 0.5 6.5 c 1.1 0.6 2.3 1 3.5 1 c 1.4 0 2.8 -0.4 4 -1 c 1.2 -0.6 2.6 -1 4 -1 c 1.4 0 1.7 0.4 3.5 1"/></g></svg>