<svg xmlns="http://www.w3.org/2000/svg" viewBox="0 0 24 24"><path d="m 19.8 20.52 c 18.92 -24.98 -33.2 -28.52 -16.45 -3 c 3.81 5.81 11.43 9.65 16.45 3" style="fill:#3e4a79"/><g style="fill:#fff"><path d="m 15.72 13.53 c -0.02 -0.25 -0.16 -0.51 -0.38 -0.77 c 0.58 -0.34 0.95 -0.86 0.92 -1.38 c -0.02 -0.26 -0.09 -0.43 -0.24 -0.69 c 0.51 -0.34 0.82 -0.86 0.78 -1.46 c -0.09 -1.46 -2.23 -2.58 -4.83 -2.58 c -2.61 0 -4.61 1.12 -4.52 2.58 c 0.04 0.6 0.4 1.12 0.96 1.46 c -0.12 0.26 -0.18 0.43 -0.16 0.69 c 0.03 0.52 0.46 1.03 1.09 1.38 c -0.18 0.26 -0.3 0.52 -0.29 0.77 c 0.02 0.43 0.31 0.77 0.8 1.03 c -0.06 0.09 -0.06 0.17 -0.05 0.26 c 0.03 0.43 0.45 0.77 1.13 1.03 c -0.26 0.17 -0.38 0.43 -0.36 0.69 c 0.02 0.34 0.38 0.69 0.86 0.95 c -0.06 0.09 -0.12 0.26 -0.11 0.34 c 0.03 0.43 0.58 0.77 1.39 0.86 c 0.03 0.52 0.52 0.86 1.05 0.86 c 0.54 0 0.98 -0.34 0.95 -0.86 c -0.01 -0.17 -0.09 -0.34 -0.23 -0.52 c 0.13 -0.17 0.19 -0.26 0.18 -0.43 c 0 -0.09 -0.08 -0.17 -0.08 -0.26 c 0.45 -0.26 0.7 -0.6 0.68 -0.95 c -0.02 -0.34 -0.31 -0.69 -0.72 -0.86 c 0.39 -0.26 0.64 -0.52 0.62 -0.86 c -0.01 -0.09 -0.01 -0.17 -0.08 -0.26 c 0.45 -0.26 0.7 -0.6 0.67 -1.03 m -7.94 -4.29 c -0.06 -1.03 1.67 -2.15 4.21 -2.15 c 2.54 0 4.41 1.12 4.47 2.15 c 0.03 0.43 -0.21 0.86 -0.66 1.2 c -0.71 -0.69 -2.14 -1.2 -3.68 -1.2 c -1.54 0 -2.91 0.52 -3.54 1.2 c -0.49 -0.34 -0.78 -0.77 -0.8 -1.2 m 7.63 1.38 c -0.71 0.43 -1.82 0.77 -3.16 0.77 c -1.34 0 -2.5 -0.34 -3.25 -0.77 c 0.57 -0.52 1.75 -0.95 3.15 -0.95 c 1.4 0 2.63 0.43 3.27 0.95 m -6.84 0.77 c -0.01 -0.17 0.05 -0.26 0.11 -0.43 c 0.9 0.52 2.19 0.86 3.59 0.86 c 1.4 0 2.65 -0.34 3.49 -0.86 c 0.08 0.17 0.15 0.26 0.16 0.43 c 0.02 0.34 -0.35 0.77 -0.93 1.12 c -0.63 -0.43 -1.58 -0.69 -2.71 -0.69 c -1.14 0 -2.05 0.26 -2.63 0.69 c -0.63 -0.34 -1.05 -0.77 -1.07 -1.12 m 5.96 1.29 c -0.59 0.26 -1.31 0.43 -2.18 0.43 c -0.87 0 -1.61 -0.17 -2.23 -0.43 c 0.52 -0.26 1.24 -0.43 2.18 -0.43 c 0.93 0 1.68 0.17 2.23 0.43 m -0.17 6 c 0.01 0.17 -0.24 0.43 -0.64 0.43 c -0.4 0 -0.68 -0.26 -0.7 -0.43 c 0.47 0 0.86 -0.09 1.12 -0.26 c 0.14 0.09 0.21 0.17 0.21 0.26 m -1.02 -0.34 c 0.07 0 0.2 -0.09 0.33 -0.09 c -0.07 0 -0.2 0.09 -0.33 0.09 m 0.97 -0.52 c 0 0.09 0 0.09 -0.06 0.17 c -0.14 -0.09 -0.34 -0.17 -0.61 -0.17 c -0.4 0 -0.73 0.17 -0.91 0.52 c -0.74 -0.09 -1.09 -0.34 -1.1 -0.52 c -0.01 -0.09 0.06 -0.09 0.12 -0.17 c 0.34 0.09 0.75 0.17 1.21 0.17 c 0.46 0 0.86 -0.09 1.19 -0.17 c 0.07 0.09 0.14 0.09 0.14 0.17 m -1.9 -0.43 c 0.13 0 0.33 -0.09 0.53 -0.09 c 0.2 0 0.4 0 0.54 0.09 c -0.13 0 -0.34 0 -0.54 0 c -0.2 0 -0.34 0 -0.54 0 m 2.49 -0.86 c 0.01 0.17 -0.24 0.43 -0.7 0.6 c -0.34 -0.17 -0.75 -0.26 -1.29 -0.26 c -0.47 0 -0.93 0.09 -1.25 0.34 c -0.48 -0.17 -0.76 -0.43 -0.77 -0.69 c -0.01 -0.17 0.17 -0.43 0.5 -0.6 c 0.34 0.09 0.75 0.17 1.15 0.17 c 0.6 0 1.06 -0.09 1.52 -0.26 c 0.54 0.17 0.83 0.52 0.84 0.69 m -0.11 -1.72 c 0.01 0.17 -0.24 0.43 -0.77 0.6 c -0.34 -0.09 -0.75 -0.17 -1.21 -0.17 c -0.54 0 -1.07 0.09 -1.45 0.34 c -0.81 -0.17 -1.23 -0.52 -1.25 -0.77 c 0 0 0 0 0 -0.09 c 0.62 0.34 1.43 0.52 2.37 0.52 c 0.94 0 1.73 -0.17 2.31 -0.43 m -4.36 -0.34 c 0.39 -0.26 1.04 -0.52 1.97 -0.52 c 0.94 0 1.69 0.26 2.04 0.52 c -0.52 0.26 -1.18 0.34 -1.98 0.34 c -0.8 0 -1.48 -0.17 -2.03 -0.34 m 4.39 -0.26 c -0.49 -0.34 -1.38 -0.69 -2.45 -0.69 c -1.07 0 -1.92 0.34 -2.36 0.69 c -0.41 -0.17 -0.63 -0.43 -0.64 -0.69 c -0.01 -0.17 0.11 -0.34 0.3 -0.51 c 0.75 0.34 1.7 0.51 2.7 0.51 c 1 0 1.93 -0.17 2.64 -0.51 c 0.21 0.17 0.36 0.34 0.36 0.51 c 0.02 0.26 -0.17 0.52 -0.56 0.69"/><path d="m 6.89 11.26 c -0.23 0.02 -0.43 -0.17 -0.43 -0.41 c 0 -0.24 0.19 -0.44 0.43 -0.46 c 0.23 -0.01 0.43 0.17 0.43 0.41 c 0 0.24 -0.19 0.44 -0.43 0.46"/><path d="m 7.08 13.55 c -0.23 0.01 -0.43 -0.16 -0.43 -0.39 c 0 -0.23 0.19 -0.43 0.43 -0.44 c 0.23 -0.02 0.43 0.16 0.43 0.38 c 0 0.23 -0.19 0.43 -0.43 0.44"/><path d="m 8.83 16.1 c -0.23 0.02 -0.43 -0.16 -0.43 -0.38 c 0 -0.23 0.19 -0.43 0.43 -0.45 c 0.23 -0.02 0.43 0.15 0.43 0.38 c 0 0.23 -0.19 0.43 -0.43 0.45"/><path d="m 4.96 6.58 c 0.02 0.26 -0.18 0.46 -0.44 0.46 c -0.25 0 -0.48 -0.21 -0.49 -0.46 c -0.02 -0.26 0.18 -0.47 0.44 -0.47 c 0.26 0 0.48 0.21 0.49 0.47"/><path d="m 10.34 18.1 c 0.02 0.2 -0.12 0.37 -0.31 0.37 c -0.18 0 -0.34 -0.16 -0.36 -0.37 c -0.01 -0.21 0.13 -0.37 0.31 -0.37 c 0.18 0 0.35 0.16 0.36 0.37"/><path d="m 16.22 16.1 c -0.24 0.02 -0.43 -0.14 -0.43 -0.34 c 0 -0.21 0.19 -0.38 0.43 -0.4 c 0.24 -0.01 0.43 0.14 0.43 0.35 c 0 0.2 -0.19 0.38 -0.43 0.39"/><path d="m 16.71 13.46 c -0.24 0.01 -0.43 -0.13 -0.43 -0.33 c 0 -0.2 0.19 -0.36 0.43 -0.38 c 0.23 -0.01 0.43 0.13 0.43 0.33 c 0 0.2 -0.2 0.36 -0.43 0.38"/><path d="m 16.2 6.23 c 0.02 0.24 -0.17 0.43 -0.42 0.43 c -0.25 0 -0.46 -0.19 -0.47 -0.43 c -0.02 -0.24 0.17 -0.43 0.42 -0.43 c 0.25 0 0.46 0.19 0.47 0.43"/><path d="m 7.93 6.3 c 0.02 0.28 -0.21 0.51 -0.51 0.51 c -0.3 0 -0.55 -0.23 -0.57 -0.51 c -0.02 -0.28 0.21 -0.5 0.51 -0.5 c 0.3 0 0.55 0.23 0.57 0.5"/><path d="m 12.1 8.32 c 0.02 0.3 -0.2 0.54 -0.49 0.54 c -0.29 0 -0.54 -0.24 -0.55 -0.54 c -0.02 -0.3 0.2 -0.54 0.49 -0.54 c 0.29 0 0.54 0.25 0.55 0.54"/><path d="m 13.53 10.53 c 0.02 0.24 -0.17 0.43 -0.42 0.43 c -0.25 0 -0.46 -0.19 -0.47 -0.43 c -0.02 -0.24 0.18 -0.43 0.42 -0.43 c 0.25 0 0.46 0.19 0.47 0.43"/><path d="m 5.86 9.12 c -0.32 0.02 -0.57 -0.21 -0.57 -0.51 c 0 -0.3 0.26 -0.56 0.57 -0.58 c 0.32 -0.02 0.57 0.21 0.57 0.51 c 0 0.3 -0.26 0.56 -0.57 0.58"/></g></svg>