<svg xmlns="http://www.w3.org/2000/svg" viewBox="0 0 24 24"><path d="m 1.75 5.95 c 18.1 -20.99 35.57 22.2 7.53 17.74 c -6.15 -0.97 -12.41 -12.1 -7.53 -17.74" style="fill:#5f9d9f"/><g style="fill:#fff"><path d="m 15.23 9.75 c -1.64 0 -3 0.9 -3.38 2.08 c -0.35 -1.18 -1.73 -2.08 -3.46 -2.08 c -1.99 0 -3.55 1.18 -3.55 2.71 c 0 1.54 1.56 2.71 3.55 2.71 c 1.73 0 3.12 -0.9 3.46 -2.07 c 0.35 1.17 1.73 2.07 3.38 2.07 c 1.91 0 3.47 -1.17 3.47 -2.71 c 0 -1.53 -1.56 -2.71 -3.47 -2.71 m -6.84 4.51 c -1.47 0 -2.69 -0.81 -2.69 -1.8 c 0 -0.99 1.21 -1.8 2.69 -1.8 c 1.47 0 2.68 0.81 2.68 1.8 c 0 0.99 -1.21 1.8 -2.68 1.8 m 6.84 0 c -1.39 0 -2.6 -0.81 -2.6 -1.8 c 0 -0.99 1.21 -1.8 2.6 -1.8 c 1.39 0 2.6 0.81 2.6 1.8 c 0 0.99 -1.21 1.8 -2.6 1.8"/><path d="m 7.44 7 c 0 0.5 -0.39 0.9 -0.87 0.9 c -0.48 0 -0.87 -0.4 -0.87 -0.9 c 0 -0.5 0.39 -0.9 0.87 -0.9 c 0.48 0 0.87 0.4 0.87 0.9"/><path d="m 17.84 7 c 0 0.5 -0.39 0.9 -0.87 0.9 c -0.48 0 -0.87 -0.4 -0.87 -0.9 c 0 -0.5 0.39 -0.9 0.87 -0.9 c 0.48 0 0.87 0.4 0.87 0.9"/><path d="m 7.44 17.87 c 0 0.5 -0.39 0.91 -0.87 0.91 c -0.48 0 -0.87 -0.41 -0.87 -0.91 c 0 -0.5 0.39 -0.9 0.87 -0.9 c 0.48 0 0.87 0.41 0.87 0.9"/><path d="m 17.84 17.87 c 0 0.5 -0.39 0.91 -0.87 0.91 c -0.48 0 -0.87 -0.41 -0.87 -0.91 c 0 -0.5 0.39 -0.9 0.87 -0.9 c 0.48 0 0.87 0.41 0.87 0.9"/><path d="m 12.64 16.96 c 0 0.5 -0.39 0.9 -0.87 0.9 c -0.48 0 -0.87 -0.4 -0.87 -0.9 c 0 -0.5 0.39 -0.9 0.87 -0.9 c 0.48 0 0.87 0.41 0.87 0.9"/><path d="m 12.64 7.94 c 0 0.5 -0.39 0.9 -0.87 0.9 c -0.48 0 -0.87 -0.4 -0.87 -0.9 c 0 -0.5 0.39 -0.9 0.87 -0.9 c 0.48 0 0.87 0.4 0.87 0.9"/></g></svg>