<svg xmlns="http://www.w3.org/2000/svg" viewBox="0 0 24 24"><path d="m 22.25 5.95 c -18.1 -20.99 -35.57 22.2 -7.53 17.74 c 6.15 -0.97 12.41 -12.1 7.53 -17.74" style="fill:#707f8f"/><g style="fill:#fff"><path d="m 15.23 9.8 c -1.64 0 -3 0.89 -3.38 2.05 c -0.35 -1.16 -1.73 -2.05 -3.46 -2.05 c -1.99 0 -3.55 1.16 -3.55 2.67 c 0 1.51 1.56 2.67 3.55 2.67 c 1.73 0 3.12 -0.89 3.46 -2.05 c 0.35 1.16 1.73 2.05 3.38 2.05 c 1.91 0 3.47 -1.16 3.47 -2.67 c 0 -1.51 -1.56 -2.67 -3.47 -2.67 m -6.84 4.45 c -1.47 0 -2.69 -0.8 -2.69 -1.78 c 0 -0.98 1.21 -1.78 2.69 -1.78 c 1.47 0 2.68 0.8 2.68 1.78 c 0 0.98 -1.21 1.78 -2.68 1.78 m 6.84 0 c -1.39 0 -2.6 -0.8 -2.6 -1.78 c 0 -0.98 1.21 -1.78 2.6 -1.78 c 1.39 0 2.6 0.8 2.6 1.78 c 0 0.98 -1.21 1.78 -2.6 1.78"/><path d="m 7.44 7.14 c 0 0.49 -0.39 0.89 -0.87 0.89 c -0.48 0 -0.87 -0.4 -0.87 -0.89 c 0 -0.49 0.39 -0.89 0.87 -0.89 c 0.48 0 0.87 0.4 0.87 0.89"/><path d="m 17.84 7.14 c 0 0.49 -0.39 0.89 -0.87 0.89 c -0.48 0 -0.87 -0.4 -0.87 -0.89 c 0 -0.49 0.39 -0.89 0.87 -0.89 c 0.48 0 0.87 0.4 0.87 0.89"/><path d="m 7.44 17.81 c 0 0.49 -0.39 0.89 -0.87 0.89 c -0.48 0 -0.87 -0.39 -0.87 -0.89 c 0 -0.49 0.39 -0.89 0.87 -0.89 c 0.48 0 0.87 0.4 0.87 0.89"/><path d="m 17.84 17.81 c 0 0.49 -0.39 0.89 -0.87 0.89 c -0.48 0 -0.87 -0.39 -0.87 -0.89 c 0 -0.49 0.39 -0.89 0.87 -0.89 c 0.48 0 0.87 0.4 0.87 0.89"/><path d="m 10.9 16.92 c 0 0.49 -0.39 0.89 -0.87 0.89 c -0.48 0 -0.87 -0.4 -0.87 -0.89 c 0 -0.49 0.39 -0.89 0.87 -0.89 c 0.48 0 0.87 0.39 0.87 0.89"/><path d="m 14.37 16.92 c 0 0.49 -0.39 0.89 -0.86 0.89 c -0.48 0 -0.87 -0.4 -0.87 -0.89 c 0 -0.49 0.39 -0.89 0.87 -0.89 c 0.48 0 0.86 0.39 0.86 0.89"/><path d="m 10.9 8 c 0 0.49 -0.39 0.89 -0.87 0.89 c -0.48 0 -0.87 -0.4 -0.87 -0.89 c 0 -0.49 0.39 -0.89 0.87 -0.89 c 0.48 0 0.87 0.4 0.87 0.89"/><path d="m 14.37 8 c 0 0.49 -0.39 0.89 -0.86 0.89 c -0.48 0 -0.87 -0.4 -0.87 -0.89 c 0 -0.49 0.39 -0.89 0.87 -0.89 c 0.48 0 0.86 0.4 0.86 0.89"/></g></svg>