<svg xmlns="http://www.w3.org/2000/svg" viewBox="0 0 24 24"><path d="m 3.04 6.29 c -8.48 9.59 4.08 19.73 11.44 17.24 c 7.36 -2.5 12.31 -9.54 7.5 -15.71 c -4.81 -6.18 -9.53 -12.13 -18 -2.54" style="fill:#4581b3"/><path d="m 14.1 13.36 v -6.37 c 0 -1.08 -0.96 -1.96 -2.13 -1.96 c -1.17 0 -2.12 0.88 -2.12 1.96 v 6.37 c -1.27 0.69 -2.12 1.96 -2.12 3.43 c 0 2.15 1.91 3.92 4.25 3.92 c 2.34 0 4.25 -1.77 4.25 -3.92 c 0 -1.37 -0.85 -2.64 -2.12 -3.43 m -2.13 6.37 c -1.7 0 -3.18 -1.37 -3.18 -2.94 c 0 -1.18 0.74 -2.16 1.8 -2.74 c 0.11 0 0.21 -0.1 0.32 -0.2 l -0.04 -1.99 h 2.08 l 0.08 1.99 c 0 0.1 0.11 0.2 0.21 0.2 c 1.17 0.59 1.91 1.57 1.91 2.74 c 0 1.57 -1.49 2.94 -3.19 2.94" style="fill:#fff"/><g transform="matrix(1.062 0 0 0.98 3.48 5)" style="fill:none;stroke-miterlimit:10;stroke:#fff;stroke-linecap:round"><path d="m 3 4.5 h 1.5"/><path d="m 3.5 6.5 h 1"/><path d="m 2.5 2.5 h 2"/></g></svg>