<svg xmlns="http://www.w3.org/2000/svg" viewBox="0 0 24 24"><path d="m 12 23.91 c 15.83 1.8 15.61 -23.99 -0.28 -23.69 c -14.79 -0.85 -16.1 25.1 0.28 23.69" style="fill:#5b6e85"/><path d="m 11.96 5.23 c -1.45 0.01 -2.63 1.27 -2.63 2.84 v 4.21 h 5.27 v -4.21 c -0.01 -1.57 -1.18 -2.83 -2.63 -2.84 m -0.62 1.4 c 0.2 0 0.38 0.18 0.38 0.41 c 0 0.22 -0.17 0.4 -0.38 0.4 c -0.2 0 -0.38 -0.18 -0.38 -0.4 c 0 -0.22 0.16 -0.41 0.38 -0.41 m 1.23 0 c 0.2 0 0.38 0.18 0.38 0.41 c 0 0.22 -0.17 0.4 -0.38 0.4 c -0.2 0 -0.38 -0.18 -0.38 -0.4 c 0 -0.22 0.16 -0.41 0.38 -0.41 m -2.46 1.24 c 0.2 0 0.38 0.18 0.38 0.41 c 0 0.22 -0.17 0.4 -0.38 0.4 c -0.2 0 -0.38 -0.18 -0.38 -0.4 c 0 -0.22 0.16 -0.41 0.38 -0.41 m 1.23 0 c 0.2 0 0.38 0.18 0.38 0.41 c 0 0.22 -0.17 0.4 -0.38 0.4 c -0.2 0 -0.38 -0.18 -0.38 -0.4 c 0 -0.22 0.16 -0.41 0.38 -0.41 m 1.23 0 c 0.2 0 0.38 0.18 0.38 0.41 c 0 0.22 -0.17 0.4 -0.38 0.4 c -0.2 0 -0.38 -0.18 -0.38 -0.4 c 0 -0.22 0.16 -0.41 0.38 -0.41 m 1.23 0 c 0.2 0 0.38 0.18 0.38 0.41 c 0 0.22 -0.17 0.4 -0.38 0.4 c -0.2 0 -0.38 -0.18 -0.38 -0.4 c 0 -0.22 0.16 -0.41 0.38 -0.41 m -3.69 1.3 c 0.2 0 0.38 0.18 0.38 0.41 c 0 0.22 -0.17 0.4 -0.38 0.4 c -0.2 0 -0.38 -0.18 -0.38 -0.4 c 0 -0.22 0.16 -0.41 0.38 -0.41 m 1.23 0 c 0.2 0 0.38 0.18 0.38 0.41 c 0 0.22 -0.17 0.4 -0.38 0.4 c -0.2 0 -0.38 -0.18 -0.38 -0.4 c 0 -0.22 0.16 -0.41 0.38 -0.41 m 1.23 0 c 0.2 0 0.38 0.18 0.38 0.41 c 0 0.22 -0.17 0.4 -0.38 0.4 c -0.2 0 -0.38 -0.18 -0.38 -0.4 c 0 -0.22 0.16 -0.41 0.38 -0.41 m 1.23 0 c 0.2 0 0.38 0.18 0.38 0.41 c 0 0.22 -0.17 0.4 -0.38 0.4 c -0.2 0 -0.38 -0.18 -0.38 -0.4 c 0 -0.22 0.16 -0.41 0.38 -0.41 m -3.69 1.34 c 0.2 0 0.38 0.18 0.38 0.41 c 0 0.22 -0.17 0.41 -0.38 0.41 c -0.2 0 -0.38 -0.18 -0.38 -0.41 c 0 -0.22 0.16 -0.41 0.38 -0.41 m 1.23 0 c 0.2 0 0.38 0.18 0.38 0.41 c 0 0.22 -0.17 0.41 -0.38 0.41 c -0.2 0 -0.38 -0.18 -0.38 -0.41 c 0 -0.22 0.16 -0.41 0.38 -0.41 m 1.23 0 c 0.2 0 0.38 0.18 0.38 0.41 c 0 0.22 -0.17 0.41 -0.38 0.41 c -0.2 0 -0.38 -0.18 -0.38 -0.41 c 0 -0.22 0.16 -0.41 0.38 -0.41 m 1.23 0 c 0.2 0 0.38 0.18 0.38 0.41 c 0 0.22 -0.17 0.41 -0.38 0.41 c -0.2 0 -0.38 -0.18 -0.38 -0.41 c 0 -0.22 0.16 -0.41 0.38 -0.41 m -5.47 2.16 v 0.98 c 0 1.85 1.3 3.37 3.1 3.57 v 1.66 c -1.37 0.08 -2.42 0.48 -2.42 0.96 h 5.79 c 0 -0.49 -1.05 -0.89 -2.42 -0.96 v -1.68 c 1.75 -0.26 3.09 -1.75 3.1 -3.56 v -0.98 m -6.57 0.01 h 6 v 0.79 c -0.01 1.82 -1.4 3.17 -3.06 3.18 c -1.65 0 -2.94 -1.36 -2.95 -3.18 m 0.43 -0.68 v 0.68 c 0.01 1.56 1.18 2.83 2.63 2.84 c 1.45 -0.01 2.63 -1.27 2.63 -2.84 v -0.68" style="fill:#fff;fill-opacity:0.5"/></svg>