<svg xmlns="http://www.w3.org/2000/svg" viewBox="0 0 24 24"><path d="m 19.86 4.2 c 12.1 9.76 -5.63 27.36 -16.34 16.1 c -10.75 -9.68 6 -28.46 16.34 -16.1" style="fill:#084670"/><path d="m 11.89 3.43 c -4.82 0 -8.73 3.89 -8.73 8.7 c 0 4.8 3.91 8.7 8.73 8.7 c 4.82 0 8.73 -3.9 8.73 -8.7 c 0 -4.81 -3.91 -8.7 -8.73 -8.7 m 0 0.65 c 4.46 0 8.1 3.61 8.1 8.1 c 0 4.45 -3.62 8.1 -8.1 8.1 c -4.46 0 -8.1 -3.6 -8.1 -8.1 c 0 -4.45 3.61 -8.1 8.1 -8.1 m 0 1.55 c -0.05 0 -0.11 0 -0.16 0 c -1.05 0.03 -2.04 0.3 -2.91 0.78 c -0.1 0.05 -0.19 0.11 -0.29 0.16 c -1.81 1.11 -3 3.07 -3.09 5.32 c 0 0.05 0 0.11 0 0.16 c 0 0.06 0 0.11 0 0.17 c 0.03 1.05 0.31 2.04 0.79 2.91 c 0.05 0.1 0.11 0.19 0.16 0.29 c 0.26 0.41 0.56 0.8 0.9 1.14 l 1.46 -1.46 c -0.77 -0.79 -1.25 -1.86 -1.25 -3.05 c 0 -2.41 1.96 -4.36 4.38 -4.36 c 0.96 0 1.85 0.31 2.57 0.83 c 0.05 0.04 0.11 0.09 0.17 0.14 l 1.47 -1.47 c -0.27 -0.23 -0.55 -0.44 -0.85 -0.63 c -0.09 -0.06 -0.19 -0.11 -0.29 -0.16 c -0.87 -0.47 -1.86 -0.75 -2.91 -0.78 c -0.05 0 -0.11 0 -0.16 0 m -0.02 2.13 c -0.07 0 -0.13 0.05 -0.14 0.13 l -0.22 3.3 c -0.13 0.05 -0.24 0.14 -0.33 0.25 c -0.29 0.34 -0.29 0.84 0 1.18 c 0.37 0.44 1.04 0.44 1.41 0.01 c 0.29 -0.34 0.29 -0.84 0.01 -1.18 c -0.1 -0.12 -0.22 -0.2 -0.35 -0.26 l -0.25 -3.3 c 0 -0.07 -0.07 -0.13 -0.14 -0.13 m 4.94 0.16 l -1.48 1.47 c 0.02 0.02 0.04 0.04 0.06 0.07 c 0.24 0.32 0.43 0.68 0.58 1.05 l 2 -0.54 c -0.12 -0.35 -0.27 -0.68 -0.44 -1 c -0.05 -0.1 -0.11 -0.19 -0.17 -0.29 c -0.17 -0.27 -0.36 -0.53 -0.57 -0.77 m 1.43 3.04 l -2 0.54 c 0.02 0.19 0.04 0.38 0.04 0.57 c 0 0.24 -0.02 0.48 -0.06 0.71 l 2 0.54 c 0.07 -0.36 0.11 -0.72 0.12 -1.1 c 0 -0.05 0 -0.09 0 -0.14 c 0 -0.06 0 -0.13 0 -0.19 c -0.01 -0.31 -0.04 -0.62 -0.1 -0.92 m -6.35 0.74 c 0.09 0 0.17 0.03 0.23 0.1 c 0.06 0.06 0.1 0.15 0.1 0.23 c 0 0.09 -0.04 0.17 -0.1 0.23 c -0.13 0.13 -0.34 0.13 -0.47 0 c -0.07 -0.07 -0.1 -0.15 -0.1 -0.23 c 0 -0.09 0.03 -0.17 0.1 -0.23 c 0.07 -0.07 0.15 -0.1 0.24 -0.1 m 4 2.05 c -0.21 0.51 -0.52 0.97 -0.91 1.37 l 1.46 1.46 c 0.35 -0.35 0.66 -0.75 0.92 -1.17 c 0.06 -0.09 0.11 -0.19 0.16 -0.29 c 0.14 -0.27 0.27 -0.54 0.38 -0.83" style="fill:#fff;fill-opacity:0.5"/></svg>