<svg xmlns="http://www.w3.org/2000/svg" viewBox="0 0 24 24"><path d="m 23.81 12.14 c 1.8 15.83 -23.99 15.61 -23.69 -0.28 c -0.85 -14.79 25.1 -16.1 23.69 0.28" style="fill:#d11353"/><g style="fill:#fff"><path d="m 8.71 18.76 c -0.16 -0.05 -0.33 -0.24 -0.36 -0.39 c -0.04 -0.21 0.04 -0.44 0.19 -0.56 c 0.13 -0.11 0.14 -0.11 1.11 -0.12 l 0.98 -0.01 c 0 -0.26 0 -0.52 0 -0.78 l -2.14 -0.02 c -1.88 -0.02 -2.16 -0.02 -2.35 -0.09 c -0.62 -0.3 -0.96 -0.71 -1.19 -1.29 l -0.01 -3.42 c -0.01 -2.23 0 -3.5 0.03 -3.66 c 0.13 -0.71 0.69 -1.27 1.4 -1.41 c 0.3 -0.05 11.52 -0.06 11.82 0 c 0.49 0.09 0.92 0.4 1.16 0.82 c 0.27 0.46 0.25 0.25 0.27 3.88 c 0.01 2 0 3.43 -0.03 3.61 c -0.11 0.8 -0.72 1.41 -1.5 1.53 c -0.14 0.02 -1.14 0.04 -2.21 0.04 h -1.95 c 0 0.26 0 0.52 0 0.78 l 0.99 0.01 l 0.99 0.01 l 0.13 0.12 c 0.25 0.24 0.25 0.59 0 0.83 l -0.13 0.12 h -3.56 c -1.96 0 -3.6 -0.01 -3.65 -0.02 m 4.07 -1.86 c -0.34 0 -0.69 0 -1.03 0 c 0 0.26 0 0.52 0 0.79 c 0.34 0 0.69 0 1.03 0 c 0 -0.26 0 -0.52 0 -0.79 m 5.79 -1.62 v -3.34 c 0 -3.25 0 -3.34 -0.08 -3.5 c -0.09 -0.16 -0.21 -0.25 -0.35 -0.35 l -5.74 -0.01 c -3.16 -0.01 -5.8 0 -5.88 0.01 c -0.16 0.03 -0.36 0.19 -0.46 0.36 c -0.06 0.12 -0.07 0.4 -0.08 3.32 c -0.01 2.08 0 3.28 0.03 3.43 c 0.05 0.29 0.14 0.41 0.38 0.53 l 0.18 0.09 h 11.45 c 0.28 -0.14 0.41 -0.29 0.55 -0.55"/><path d="m 9.28 11.82 c 0.29 0 0.57 0 0.86 0 l 0.02 -0.79 c 0.02 -0.68 0.03 -0.83 0.11 -1.02 c 0.32 -0.82 1.11 -1.33 2.02 -1.33 c 0.91 0 1.75 0.55 2.03 1.36 c 0.07 0.19 0.09 0.37 0.11 1 l 0.02 0.77 c 0.29 0 0.57 0 0.86 0 c 0 1.02 0 2.04 0 3.06 c -2 0 -4 0 -6 0 c 0 -1.02 0 -2.04 0 -3.06 m 3.55 -0.68 v -0.69 c -0.17 -0.2 -0.37 -0.28 -0.54 -0.28 c -0.29 0 -0.35 0.09 -0.54 0.28 v 1.37 c 0.36 0 0.71 0 1.07 0"/></g></svg>