<svg xmlns="http://www.w3.org/2000/svg" viewBox="0 0 24 24"><path d="m 0.19 12.14 c -1.8 15.83 23.99 15.61 23.69 -0.28 c 0.85 -14.79 -25.1 -16.1 -23.69 0.28" style="fill:#105331"/><g style="fill:#fff"><path d="m 3.21 3.86 c -1.06 0 -1.91 0.85 -1.91 1.91 v 8.58 c 0 1.06 0.84 1.91 1.91 1.91 h 5.99 v 2 h -2.71 c -0.27 0 -0.49 0.02 -0.49 0.3 c 0 0.28 0.22 0.29 0.49 0.3 h 9 c 0.27 0 0.49 -0.02 0.49 -0.3 c 0 -0.28 -0.22 -0.31 -0.49 -0.3 h -2.71 v -2 h 5.99 c 1.06 0 1.91 -0.85 1.91 -1.91 v -8.58 c 0 -1.06 -0.85 -1.91 -1.91 -1.91 m -15.56 0.5 h 15.54 c 0.79 0 1.43 0.64 1.43 1.43 v 8.54 c 0 0.79 -0.64 1.43 -1.43 1.43 h -15.54 c -0.79 0 -1.43 -0.64 -1.43 -1.43 v -8.54 c 0 -0.79 0.64 -1.43 1.43 -1.43 m 6.57 11.93 h 2.4 v 2 h -2.4" transform="matrix(0.721 0 0 0.742 3.99 4.42)" style="stroke:#fff"/><path d="m 9.48 11.76 c 0.29 0 0.57 0 0.86 0 v -0.7 c 0 -0.77 -0.02 -0.86 -0.3 -0.97 c -0.2 -0.09 -0.45 -0.06 -0.64 0.03 c -0.27 0.13 -0.29 0.01 -0.31 1.18 l -0.02 1.24 c -0.54 0 -0.95 -0.02 -1.49 -0.02 l 0.01 -1.24 c 0 -0.57 -0.06 -1.08 0.18 -1.59 c 0.52 -1 1.36 -1.27 2.23 -1.2 c 0.65 0.08 1.14 0.33 1.51 0.79 c 0.38 0.45 0.48 0.85 0.48 1.86 v 0.6 c 1.2 0 2.4 0 3.6 0 c 0 1.05 0 2.09 0 3.14 c -2.04 0 -4.08 0 -6.12 0 c 0 -1.09 0 -2 0 -3.14"/></g></svg>