<svg xmlns="http://www.w3.org/2000/svg" viewBox="0 0 24 24"><path d="m 21.95 6.35 c 6.46 8.63 -3.87 19.1 -12.2 17.33 c -8.2 -1.07 -13.14 -13.54 -6.8 -19.87 c 4.63 -4.55 12.54 -6.08 19 2.54" style="fill:#2699f2"/><path d="m 11.5 4.3 c -4.11 0 -7.43 3.31 -7.43 7.39 c 0 4.08 3.33 7.39 7.43 7.39 c 1.35 0 2.68 -0.37 3.83 -1.07 c -0.07 -0.25 -0.11 -0.51 -0.11 -0.78 c 0 -1.53 1.25 -2.77 2.79 -2.77 c 0.12 0 0.24 0.01 0.36 0.02 c 0.37 -0.89 0.56 -1.84 0.57 -2.8 c 0 -4.08 -3.33 -7.39 -7.43 -7.39 m -2.91 4.62 c 0.18 0 0.42 0.02 0.86 0.04 c 1.7 0.09 2.05 0.09 3.04 0.03 c 1.21 -0.08 2.37 -0.08 2.7 0 c 0.69 0.16 1.31 0.69 1.66 1.41 c 0.19 0.39 0.25 0.71 0.22 1.19 c -0.02 0.4 -0.1 0.77 -0.22 1.07 c -0.2 0.47 -0.66 1 -1.05 1.21 c -0.44 0.23 -1.19 0.42 -2.11 0.53 c -0.49 0.06 -3.09 0.09 -3.84 0.04 c -0.74 -0.04 -1.69 -0.2 -2.15 -0.34 c -0.68 -0.22 -1.12 -0.6 -1.46 -1.27 c -0.21 -0.43 -0.29 -0.71 -0.31 -1.27 c -0.02 -0.4 -0.01 -0.48 0.05 -0.71 c 0.12 -0.47 0.34 -0.85 0.72 -1.24 c 0.37 -0.38 0.77 -0.56 1.45 -0.66 c 0.16 -0.02 0.26 -0.04 0.44 -0.04 m 0.59 0.93 c -0.77 0 -1.39 0.83 -1.39 1.85 c 0 1.02 0.63 1.85 1.39 1.85 c 0.77 0 1.39 -0.83 1.39 -1.85 c 0 -1.02 -0.63 -1.85 -1.39 -1.85 m 4.65 0 c -0.77 0 -1.39 0.83 -1.39 1.85 c 0 1.02 0.63 1.85 1.39 1.85 c 0.77 0 1.39 -0.83 1.39 -1.85 c 0 -1.02 -0.62 -1.85 -1.39 -1.85" style="fill:#fff"/><path d="m 19.86 17.23 c 0 1.02 -0.83 1.85 -1.86 1.85 c -1.03 0 -1.86 -0.82 -1.86 -1.85 c 0 -1.02 0.83 -1.85 1.86 -1.85 c 1.03 0 1.86 0.83 1.86 1.85" style="fill:#ff4500"/></svg>