<svg xmlns="http://www.w3.org/2000/svg" viewBox="0 0 24 24"><path d="m 2.57 17.9 c 17.26 21.91 34.72 -23.85 6.59 -17 c -7 1.7 -12.43 9.62 -6.59 17" style="fill:#696969"/><path d="m 12.57 15.84 c -0.38 -1.34 -0.79 -2.81 -0.9 -3.26 c -0.28 -1.07 -0.63 -0.82 -1.07 0.77 c -0.63 2.28 -1.84 2.57 -2.35 0.54 c -0.92 -3.7 -0.29 -0.8 -1.89 -0.75 l -2.78 0.07 l -0.13 -1.32 c -0.07 -0.79 1 -0.41 1.71 -0.41 c 0.67 0 0.95 -0.25 1.45 -1.3 c 0.79 -1.68 1.54 -2.22 1.85 -1.05 c 0.44 1.63 0.52 3.15 1.06 2.48 c 0.06 -0.07 0.63 -2.42 0.89 -3.31 c 0.26 -0.88 0.57 -2.09 0.85 -2.25 c 1.05 -0.6 1.15 -0.21 2.05 3.25 c 0.49 1.89 1.16 5.55 1.32 5.55 c 0.17 0 0.93 -2.38 0.93 -2.62 c 0 -0.57 0.87 -0.75 2.53 -0.75 c 0.89 0 1.66 0.13 1.66 0.42 c 0 0.98 -0.04 1.36 -1.88 1.36 c -1.1 0 -1.11 0.01 -1.95 2.52 c -0.8 2.38 -0.9 2.52 -1.76 2.52 c -0.87 0 -0.95 -0.12 -1.61 -2.45" style="fill:#fff"/></svg>