<svg xmlns="http://www.w3.org/2000/svg" xmlns:xlink="http://www.w3.org/1999/xlink" viewBox="0 0 24 24"><defs><g id="3" style="clip-path:url(#2)"><path d="m 9.38 4.75 l -1.23 1.66 l -0.02 0.02 c -0.02 0.04 -0.04 0.07 -0.04 0.11 v 12.46 c 0 0.14 0.13 0.24 0.3 0.24 h 7.59 c 0.16 0 0.3 -0.11 0.3 -0.24 v -12.46 c 0 -0.04 -0.01 -0.08 -0.04 -0.11 l -0.02 -0.02 l -1.23 -1.66" style="fill:#fff;fill-rule:evenodd"/><path d="m 8.45 6.31 h 7.48 c 0.2 0 0.35 0.16 0.35 0.35 v 12.24 c 0 0.2 -0.16 0.35 -0.35 0.35 h -7.48 c -0.19 0 -0.35 -0.16 -0.35 -0.35 v -12.24 c 0 -0.2 0.16 -0.35 0.35 -0.35" style="fill:#ffe4e0;fill-rule:evenodd"/><path d="m 9.99 6.57 h 4.41 v 12.65 h -4.41" style="fill:#fff;fill-rule:evenodd"/><path d="m 8.4 6.31 c -0.16 0 -0.3 0.11 -0.3 0.24 v 0.13 c 0 -0.13 0.13 -0.24 0.3 -0.24 h 1.36 l 0.24 0.13 h 4.43 l 0.26 -0.13 h 1.32 c 0.16 0 0.3 0.11 0.3 0.24 v -0.13 c 0 -0.14 -0.13 -0.24 -0.3 -0.24" style="fill:#ff4500;fill-rule:evenodd"/><path d="m 14.7 6.44 l -0.3 0.16 c 0 0 -0.03 12.72 0 12.62 c 0.04 -0.1 0.22 -1.88 0.22 -1.88" style="fill:#ff4500"/><path d="m 9.7 6.44 l 0.29 0.16 c 0 0 0.04 12.72 0 12.62 c -0.03 -0.1 -0.21 -1.88 -0.21 -1.88" style="fill:#ff4500"/><path d="m 11.35 9 c -0.17 0 -0.32 -0.11 -0.32 -0.24 c 0 -0.13 0.14 -0.24 0.32 -0.24 h 1.53 c 0.17 0 0.31 0.11 0.31 0.24 c 0 0.13 -0.14 0.24 -0.31 0.24" style="fill:#fc561f"/><path d="m 11.38 8.57 h 1.48 c 0.11 0 0.2 0.06 0.2 0.14 c 0 0.08 -0.09 0.14 -0.2 0.14 h -1.48 c -0.11 0 -0.2 -0.06 -0.2 -0.14 c 0 -0.07 0.09 -0.14 0.2 -0.14" style="fill:#fc561f"/><path d="m 11.35 7.71 c -0.17 0 -0.32 -0.11 -0.32 -0.24 c 0 -0.13 0.14 -0.24 0.32 -0.24 h 1.53 c 0.17 0 0.31 0.11 0.31 0.24 c 0 0.13 -0.14 0.24 -0.31 0.24" style="fill:#fc561f"/><path d="m 11.38 7.28 h 1.48 c 0.11 0 0.2 0.06 0.2 0.14 c 0 0.08 -0.09 0.14 -0.2 0.14 h -1.48 c -0.11 0 -0.2 -0.06 -0.2 -0.14 c 0 -0.08 0.09 -0.14 0.2 -0.14" style="fill:#fc561f"/><path d="m 11.35 10.17 c -0.17 0 -0.32 -0.11 -0.32 -0.24 c 0 -0.13 0.14 -0.24 0.32 -0.24 h 1.53 c 0.17 0 0.31 0.11 0.31 0.24 c 0 0.13 -0.14 0.24 -0.31 0.24" style="fill:#fc561f"/><path d="m 11.38 9.74 h 1.48 c 0.11 0 0.2 0.06 0.2 0.14 c 0 0.07 -0.09 0.14 -0.2 0.14 h -1.48 c -0.11 0 -0.2 -0.06 -0.2 -0.14 c 0 -0.08 0.09 -0.14 0.2 -0.14" style="fill:#fc561f"/><path d="m 11.35 11.34 c -0.17 0 -0.32 -0.11 -0.32 -0.24 c 0 -0.13 0.14 -0.24 0.32 -0.24 h 1.53 c 0.17 0 0.31 0.11 0.31 0.24 c 0 0.13 -0.14 0.24 -0.31 0.24" style="fill:#ff4500"/><path d="m 11.38 10.9 h 1.48 c 0.11 0 0.2 0.06 0.2 0.14 c 0 0.08 -0.09 0.14 -0.2 0.14 h -1.48 c -0.11 0 -0.2 -0.06 -0.2 -0.14 c 0 -0.08 0.09 -0.14 0.2 -0.14" style="fill:#fc561f"/><path d="m 13.51 13.23 c 0 0.78 -0.61 1.41 -1.36 1.41 c -0.75 0 -1.36 -0.63 -1.36 -1.41 c 0 -0.78 0.61 -1.41 1.36 -1.41 c 0.75 0 1.36 0.63 1.36 1.41" style="fill:#fc561f"/><path d="m 13.1 13.23 c 0 0.54 -0.42 0.97 -0.94 0.97 c -0.52 0 -0.94 -0.43 -0.94 -0.97 c 0 -0.54 0.42 -0.97 0.94 -0.97 c 0.52 0 0.94 0.43 0.94 0.97" style="fill:#fc561f"/><path d="m 12.97 13.23 c 0 0.47 -0.37 0.85 -0.82 0.85 c -0.45 0 -0.82 -0.38 -0.82 -0.85 c 0 -0.47 0.37 -0.85 0.82 -0.85 c 0.46 0 0.82 0.38 0.82 0.85" style="fill:#fc561f"/><path d="m 12.15 12.38 c -0.45 0 -0.82 0.38 -0.82 0.85 c 0 0.04 0 0.09 0.01 0.13 c 0.06 -0.41 0.4 -0.72 0.81 -0.72 c 0.41 0 0.75 0.31 0.81 0.72 c 0.01 -0.04 0.01 -0.09 0.01 -0.13 c 0 -0.47 -0.37 -0.85 -0.82 -0.85" style="fill:#fc561f;fill-opacity:0.2"/><path d="m 46.3 688.9 c 2.33 2.34 2.33 6.14 0 8.48 c -2.33 2.34 -6.14 2.34 -8.47 0 c -2.36 -2.34 -2.36 -6.14 0 -8.48 c 0.03 -0.06 0.09 -0.13 0.16 -0.16" transform="matrix(0.124 0 0 0.123 6.93 -72.3)" style="fill:#fc561f;stroke:#fff;stroke-linecap:round;stroke-width:2"/><path d="m 42.3 687.5 v 5" transform="matrix(0.124 0 0 0.123 6.93 -72.3)" style="fill:none;stroke:#fff;stroke-linecap:round;stroke-width:2"/><path d="m 95.8 213.8 c -2.93 -0.54 -4.17 -1.09 -6.1 -2.78 c -3.37 -2.96 -3.57 -3.86 -3.72 -18.23 c -0.1 -7 -0.05 -13.22 0.1 -13.82 c 0.25 -0.97 0.5 -1.03 3.62 -1.03 c 2.83 0 3.42 0.12 3.82 0.84 c 0.25 0.54 0.45 5.43 0.45 12.74 c 0 10.44 0.1 11.95 0.74 12.61 c 2.28 2.35 8.19 1.99 9.38 -0.54 c 0.2 -0.42 0.5 -6.34 0.65 -13.1 l 0.2 -12.37 h 7.2 l 0.1 12.8 c 0.15 14.18 -0.1 15.93 -2.63 19 c -2.68 3.2 -8.59 4.89 -13.85 3.86" transform="matrix(0.079 0 0 0.065 2.12 3.75)" style="fill:#fc561f;stroke:#ff4500;stroke-width:1.42"/><path d="m 118.4 213.4 c -0.45 -0.3 -0.55 -4.16 -0.45 -17.8 l 0.1 -17.5 l 7.15 -0.12 c 8.34 -0.12 11 0.42 13.3 2.72 c 2.13 2.17 3.08 4.59 3.08 7.97 c 0 5.07 -1.79 8.33 -5.81 10.5 c -1.94 1.03 -3.08 1.33 -6.35 1.51 l -3.97 0.24 v 5.85 c 0 3.98 -0.15 6.1 -0.55 6.46 c -0.6 0.6 -5.61 0.72 -6.5 0.18 m 12.9 -21.31 c 1.74 -0.6 2.63 -2.05 2.33 -3.62 c -0.25 -1.39 -1.49 -1.93 -5.21 -2.29 l -2.98 -0.3 v 6.82 l 2.13 -0.06 c 1.19 0 2.83 -0.24 3.67 -0.54" transform="matrix(0.079 0 0 0.065 2.12 3.75)" style="fill:#fc561f;stroke:#ff4500;stroke-width:1.42"/><path d="m 173 241.4 c -2.73 -0.66 -6.65 -2.29 -7.25 -3 c -0.35 -0.42 -0.25 -1.33 0.4 -3.62 c 1.34 -4.41 1.34 -4.41 5.71 -3 c 4.22 1.33 6.65 1.45 8.83 0.42 c 2.88 -1.39 1.79 -2.96 -3.42 -4.89 c -7.35 -2.72 -9.88 -4.77 -10.72 -8.75 c -1.09 -4.95 1.69 -9.78 6.9 -12.19 c 4.27 -1.93 14.59 -1.03 15.88 1.39 c 0.55 1.03 -1.34 6.94 -2.28 7.12 c -0.4 0.06 -2.23 -0.18 -4 -0.54 c -4.67 -0.97 -8.44 -0.06 -8.44 1.99 c 0 0.84 1.29 1.57 5.86 3.26 c 6.8 2.47 9.38 5.07 9.73 9.78 c 0.35 4.83 -2.13 8.87 -6.85 10.98 c -2.63 1.21 -7.59 1.75 -10.32 1.09" transform="matrix(0.079 0 0 0.065 0.55 1.91)" style="fill:#fc561f;stroke:#ff4500;stroke-width:1.42"/></g><clipPath id="0"><path d="m 8 4 h 9 v 16 h -9"/></clipPath><clipPath id="1"><path d="m 9.38 4.75 l -1.23 1.66 l -0.02 0.02 c -0.02 0.04 -0.04 0.07 -0.04 0.11 v 12.46 c 0 0.14 0.13 0.24 0.3 0.24 h 7.59 c 0.16 0 0.3 -0.11 0.3 -0.24 v -12.46 c 0 -0.04 -0.01 -0.08 -0.04 -0.11 l -0.02 -0.02 l -1.23 -1.66"/></clipPath><clipPath id="2"><path d="M 0,0 H24 V24 H0 z"/></clipPath></defs><path d="m 0.28 14.74 c 1.49 9.69 14.71 12.28 20.54 5.36 c 5.14 -5.14 3.86 -14.97 -2.45 -18.34 c -7.24 -4.51 -17.78 1.07 -18.36 10 c -0.06 0.98 0.03 1.98 0.26 2.93" style="fill:#fc561f"/><g style="clip-path:url(#0)"><g style="clip-path:url(#1)"><use xlink:href="#3"/></g></g></svg>