<svg xmlns="http://www.w3.org/2000/svg" viewBox="0 0 24 24"><path d="m 22.89 17.63 c -4.73 11.26 -23 6.25 -22.89 -6 c -0.18 -11.14 14.36 -15.38 20.74 -7.43 c 3.19 3.44 4.3 9.13 2.16 13.47"/><path d="m 19.74 11.96 c 0 4.14 -3.45 7.5 -7.71 7.5 c -4.26 0 -7.71 -3.36 -7.71 -7.5 c 0 -4.14 3.45 -7.5 7.71 -7.5 c 4.26 0 7.71 3.36 7.71 7.5" style="fill:#a9a9a9"/><g style="fill:#fff"><path d="m 3.16 9.92 l -0.35 -1.82 l -1.27 -0.66 l 1.27 -0.5 l 0.46 -1.81 l 0.35 1.82 l 1.27 0.66 l -1.27 0.5"/><path d="m 21.55 11.88 l -0.38 -0.92 l -0.76 -0.51 l 0.79 -0.45 l 0.44 -0.88 l 0.38 0.92 l 0.76 0.51 l -0.79 0.44"/><path d="m 15.85 22.65 l -0.24 -0.92 l -0.72 -0.45 l 0.7 -0.31 l 0.34 -0.95 l 0.24 0.92 l 0.72 0.45 l -0.7 0.31"/></g></svg>