<svg xmlns="http://www.w3.org/2000/svg" viewBox="0 0 24 24"><path d="m 22.89 17.63 c -4.73 11.26 -23 6.25 -22.89 -6 c -0.18 -11.14 14.36 -15.38 20.74 -7.43 c 3.19 3.44 4.3 9.13 2.16 13.47"/><path d="m 19.74 11.96 c 0 4.14 -3.45 7.5 -7.71 7.5 c -4.26 0 -7.71 -3.36 -7.71 -7.5 c 0 -4.14 3.45 -7.5 7.71 -7.5 c 4.26 0 7.71 3.36 7.71 7.5" style="fill:#696969"/><path d="m 11.86 19.1 c -2.25 -1.39 -3.68 -3.74 -3.98 -6.57 c -0.1 -0.99 -0.01 -2.18 0.25 -3.2 c 0.43 -1.71 1.47 -3.37 2.8 -4.47 l 0.46 -0.38 l -0.41 0.05 c -3.44 0.44 -6.15 3.09 -6.63 6.48 c -0.34 2.42 0.73 5 2.71 6.64 c 1.25 1 2.89 1.63 4.51 1.72 l 0.77 0.05" style="fill:#a9a9a9"/><g style="fill:#fff"><path d="m 3.16 9.92 l -0.35 -1.82 l -1.27 -0.66 l 1.27 -0.5 l 0.46 -1.81 l 0.35 1.82 l 1.27 0.66 l -1.27 0.5"/><path d="m 21.55 11.88 l -0.38 -0.92 l -0.76 -0.51 l 0.79 -0.45 l 0.44 -0.88 l 0.38 0.92 l 0.76 0.51 l -0.79 0.44"/><path d="m 15.85 22.65 l -0.24 -0.92 l -0.72 -0.45 l 0.7 -0.31 l 0.34 -0.95 l 0.24 0.92 l 0.72 0.45 l -0.7 0.31"/><path d="m 74.4 240.6 c -14.83 1.13 -24 -15 -19.75 -31.42 c 4 -10.88 8.1 -14.38 19.96 -19.1 c -2.96 -12.33 0.79 -22.75 9.92 -26.71 c 7.33 -3.54 17 -3.54 23.42 -0.08 c 2.92 1.58 3.5 4.17 6.17 3.21 c 3.46 -8.88 10.5 -20.92 32.2 -20.83 c 12.21 -0.83 25.3 11 28.3 20.83 c 2.92 9.46 5.42 -0.29 15.83 2.63 c 27.96 3.88 29.2 41.67 5.92 48.83 c -0.92 13.83 -5.63 19.1 -14.1 21.75 c -32.71 8 -36.92 -12 -52.63 -8.79 c -6.13 2.75 -16.54 14.38 -38.54 3.29" transform="matrix(0.094 0 0 0.094 1.63 -2.65)" style="stroke:#696969;stroke-width:2.13"/></g></svg>