<svg xmlns="http://www.w3.org/2000/svg" viewBox="0 0 256 256"><g style="fill:#ff8c00"><path d="m 3.79 145.2 c -27.4 -149.1 194.7 -199.9 243.6 -64.3 c 46 127.8 -124.4 230.1 -208.4 135.3 c -17.52 -19.79 -30.2 -43.71 -35.2 -71.1"/><g transform="matrix(3.208 0 0 3.539 40.86 31.38)" style="stroke:#fff"><path d="m 6.29 14.52 v 24.45 h 41.92 v -24.45 h -9.67 l -3.63 -4.66 h -16.1 l -3.63 4.66"/><path d="m 6.29 14.52 v 24.45 h 41.92 v -24.45 h -9.67 l -3.63 -4.66 h -16.1 l -3.63 4.66" style="stroke-width:3.5"/></g></g><g style="stroke:#fff"><g transform="matrix(3.208 0 0 3.539 40.86 31.38)"><path d="m 18.36 26.44 c 0 3.6 3.46 6.53 7.71 6.53 c 4.25 0 7.71 -2.93 7.71 -6.53 c 0 -3.6 -3.46 -6.54 -7.71 -6.54 c -4.25 0 -7.71 2.93 -7.71 6.54" style="fill:#ff7f4e;stroke-width:3.74"/><path d="m 38.1 18.42 h 6.29 v 4.19 h -6.29" style="fill:#fff"/></g><path d="m 10.42 14.49 h 7.22 v 1.93 h -7.22" transform="scale(5.333)" style="fill:#fff;stroke-width:0.29"/></g></svg>