<svg xmlns="http://www.w3.org/2000/svg" viewBox="0 0 256 256"><path d="m 211.5 38.6 c 200.1 265.3 -350.6 302.9 -173.9 32.2 c 40.3 -61.73 120.9 -102.5 173.9 -32.2" style="fill:#9acd30"/><g style="fill-rule:evenodd;stroke-linecap:round;stroke-linejoin:round"><path d="m 21.45 4.87 c -0.5 0 -6.73 -0.01 -7.1 0.27 c -0.52 0.39 -0.85 1 -0.85 1.7 v 5.59 h -3.31 c -0.55 0 -1.05 0.21 -1.43 0.54 c -0.44 0.39 -0.72 0.97 -0.72 1.61 v 5 c 0 1.21 0.96 2.19 2.15 2.19 h 3.31 v 3.5 h -3.31 c -1.2 0 -2.15 0.95 -2.15 2.16 v 5.06 c 0 1.2 0.96 2.16 2.15 2.16 h 3.31 v 3.5 h -3.31 c -1.2 0 -2.15 0.99 -2.15 2.19 v 5 c 0 1.21 0.96 2.16 2.15 2.16 h 3.31 v 5.59 c 0 1.2 0.98 2.15 2.19 2.15 h 28.62 c 1.21 0 2.19 -0.95 2.19 -2.15 v -5.59 h 3.31 c 1.2 0 2.15 -0.96 2.15 -2.16 v -5 c 0 -1.21 -0.95 -2.19 -2.15 -2.19 h -3.31 v -3.5 h 3.31 c 1.2 0 2.15 -0.95 2.15 -2.16 v -5.06 c 0 -1.21 -0.95 -2.16 -2.15 -2.16 h -3.31 v -3.5 h 3.31 c 1.2 0 2.15 -0.99 2.15 -2.19 v -5 c 0 -1.21 -0.95 -2.16 -2.15 -2.16 h -3.31 v -5.59 c 0 -1.2 -0.98 -2.15 -2.19 -2.15 h -7.66 c -0.11 3.44 -2.9 6.19 -6.38 6.19 c -3.47 0 -6.29 -2.75 -6.4 -6.19" transform="matrix(2.457 0 0 2.663 57.5 56.78)" style="fill:#fff;stroke:#fff;stroke-width:8.13"/><g style="fill:#abff2f;stroke:#000"><path d="m 23.51 6.69 c -1.11 0 -9.27 -1.88 -9.27 2 v 42.69 c 0 1.11 0.89 2 2 2 h 26.4 c 1.11 0 2 -0.89 2 -2 v -42.69 c 0 -1.11 -0.89 -2 -2 -2 h -7.1 c -0.1 3.18 -2.67 5.72 -5.87 5.72 c -3.2 0 -5.8 -2.54 -5.9 -5.72" transform="matrix(2.664 0 0 2.888 52.6 51.2)" style="stroke-width:2.88"/><g style="stroke-width:1.73"><path d="m 9.89 15.1 c -1.11 0 -2 0.89 -2 2 v 4.65 c 0 1.11 0.89 2 2 2 h 4.65 c 1.11 0 2 -0.89 2 -2 v -4.65 c 0 -1.1 -0.89 -2 -2 -2" transform="matrix(2.664 0 0 2.888 56 47.57)"/><path d="m 10.91 26.97 c -1.11 0 -2 0.89 -2 2 v 4.65 c 0 1.11 0.89 2 2 2 h 4.65 c 1.11 0 2 -0.89 2 -2 v -4.65 c 0 -1.1 -0.89 -2 -2 -2" transform="matrix(2.664 0 0 2.888 53.3 47.57)"/><path d="m 10.91 41.4 c -1.11 0 -2 0.89 -2 2 v 4.65 c 0 1.1 0.89 2 2 2 h 4.65 c 1.11 0 2 -0.89 2 -2 v -4.65 c 0 -1.11 -0.89 -2 -2 -2" transform="matrix(2.664 0 0 2.888 53.3 40.2)"/><g transform="matrix(2.664 0 0 2.888 53.3 47.57)"><path d="m 42.8 15.1 c -1.11 0 -2 0.89 -2 2 v 4.65 c 0 1.11 0.89 2 2 2 h 4.64 c 1.11 0 2 -0.89 2 -2 v -4.65 c 0 -1.1 -0.89 -2 -2 -2"/><path d="m 42.8 26.97 c -1.11 0 -2 0.89 -2 2 v 4.65 c 0 1.11 0.89 2 2 2 h 4.64 c 1.11 0 2 -0.89 2 -2 v -4.65 c 0 -1.1 -0.89 -2 -2 -2"/><path d="m 42.8 38.85 c -1.11 0 -2 0.89 -2 2 v 4.65 c 0 1.11 0.89 2 2 2 h 4.64 c 1.11 0 2 -0.89 2 -2 v -4.65 c 0 -1.1 -0.89 -2 -2 -2"/></g></g></g></g></svg>