<svg xmlns="http://www.w3.org/2000/svg" viewBox="0 0 48 48"><path d="m 38.2 5.12 c 39.4 34.52 -55.4 69.4 -35.3 13.18 c 5 -14 21.96 -24.86 35.3 -13.18" style="fill:#218b21"/><path d="m -2.58 302.7 c -5.13 -2.09 -5.13 -5.08 0.03 -15.89 c 1.42 -3 2.87 -7.45 3.21 -9.85 c 0.84 -5.97 1.89 -7.56 6.11 -9.22 c 5.68 -2.22 9.83 -5.61 12.76 -10.43 c 3.86 -6.31 9.55 -13.19 22.77 -27.52 c 17.68 -19.2 25.45 -30.1 40.4 -56.62 c 10.92 -19.42 16.65 -28.2 26.47 -40.4 c 8.75 -10.92 25.8 -27.34 31.2 -30 c 3.27 -1.63 4.08 -1.71 6.95 -0.59 c 6.74 2.59 18.5 4.79 28.78 5.39 l 10.63 0.62 l 0.47 3.85 c 1.4 11 1.68 21.54 4.96 32.45 c 2.12 6.95 2.29 8.4 1.22 11.31 c -2.85 7.81 -18.1 24.1 -33.4 35.56 c -11.78 8.87 -21 14.57 -39.3 24.3 c -25.1 13.26 -34.3 20 -51.1 37.46 c -10.63 11 -16.1 15.77 -24.34 20.91 c -10.37 6.53 -13.87 10.74 -15.8 18.93 c -0.51 2.23 -1.12 2.5 -6.74 3.1 c -7.22 0.76 -11.73 2.4 -15.88 5.68 c -3.35 2.65 -4.94 2.83 -9.36 1.02" transform="matrix(0.135 0.004 0.003 0.143 9.39 -3.42)" style="fill:#fff;stroke:#fff;stroke-linecap:round;stroke-width:1.93"/><g style="fill:#218b21"><path d="m 32 16.68 c 0.34 0.31 0.32 0.84 -0.04 1.19 l -5.63 5.44 c -0.36 0.34 -0.92 0.38 -1.26 0.07 c -0.34 -0.31 -0.32 -0.84 0.04 -1.19 l 5.63 -5.44 c 0.36 -0.35 0.92 -0.38 1.26 -0.07"/><path d="m 28.78 15.1 c 0.31 0.23 0.3 0.72 -0.03 1.1 l -4.11 4.76 c -0.32 0.38 -0.84 0.49 -1.15 0.26 c -0.31 -0.23 -0.3 -0.72 0.03 -1.09 l 4.11 -4.76 c 0.32 -0.38 0.84 -0.5 1.15 -0.27"/><path d="m 33.5 19.8 c 0.27 0.27 0.19 0.76 -0.18 1.08 l -4.76 4.11 c -0.38 0.33 -0.9 0.37 -1.17 0.1 c -0.27 -0.27 -0.19 -0.76 0.18 -1.08 l 4.76 -4.11 c 0.38 -0.33 0.9 -0.37 1.18 -0.1"/></g></svg>