<svg xmlns="http://www.w3.org/2000/svg" viewBox="0 0 48 48"><path d="m 8.19 39.79 c -24.36 -19.67 11.31 -55.1 32.85 -32.47 c 21.6 19.52 -12.1 57.4 -32.85 32.47" style="fill:#707f8f"/><path d="m 12.3 34.48 c -0.46 -0.12 -0.84 -0.39 -1.11 -0.82 c -0.2 -0.32 -0.21 -0.8 -0.21 -9.75 v -9.4 l 0.3 -0.38 c 0.63 -0.78 -0.17 -0.74 12.6 -0.74 c 11.13 0 11.66 0.01 12 0.23 c 0.22 0.13 0.51 0.41 0.64 0.64 c 0.23 0.4 0.23 0.63 0.23 9.68 c 0 10.37 0.05 9.73 -0.84 10.31 l -0.44 0.29 l -11.43 0.02 c -6.29 0.01 -11.59 -0.02 -11.79 -0.07 m 20.84 -7.1 c -6.19 0 -12.38 0 -18.57 0 c 0 1.22 0 2.44 0 3.65 c 6.19 0 12.38 0 18.57 0 c 0 -1.21 0 -2.43 0 -3.65" style="fill:#fff"/></svg>