<svg xmlns="http://www.w3.org/2000/svg" viewBox="0 0 48 48"><path d="m 42.4 8.71 c 11.68 17.85 2.25 34.1 -10.97 37.99 c -17.79 5.19 -41.94 -8.46 -26 -36.56 c 6.32 -11.18 28.67 -14.1 36.99 -1.41" style="fill:#fb8600"/><path d="m 9.79 39.95 c -0.05 -0.06 1.15 -1.41 2.68 -3 l 2.78 -2.91 h 3.98 l 2.15 1.86 c 2.7 2.33 2.64 2.29 3.48 2.29 c 0.84 0 0.79 0.04 3.49 -2.29 l 2.15 -1.86 h 3.78 c 2.08 0 3.78 0.05 3.78 0.11 c 0 0.06 -1.25 1.41 -2.77 3 l -2.78 2.9 h -11.32 c -6.22 0 -11.36 -0.05 -11.41 -0.1 m 12.2 -6.47 c -2.31 -2.03 -2.82 -2.54 -2.85 -2.89 c -0.03 -0.24 0.03 -0.48 0.14 -0.55 c 0.1 -0.07 0.96 -0.13 1.91 -0.13 h 1.72 l -0.04 -2.97 l -0.04 -2.98 h -5.62 l -0.14 3.82 h -0.49 c -0.47 0 -0.61 -0.15 -2.78 -2.86 c -1.25 -1.57 -2.28 -2.94 -2.28 -3.05 c 0 -0.11 1.05 -1.52 2.35 -3.14 c 2.19 -2.75 2.37 -2.94 2.77 -2.9 l 0.43 0.05 l 0.04 1.94 c 0.04 1.87 0.05 1.95 0.35 2.03 c 0.17 0.04 1.45 0.06 2.84 0.04 l 2.53 -0.04 v -6 l -1.82 -0.07 l -1.83 -0.07 l -0.04 -0.45 c -0.04 -0.42 0.14 -0.61 2.77 -2.9 c 1.55 -1.35 2.88 -2.45 2.96 -2.45 c 0.08 0 1.41 1.11 2.96 2.45 c 2.63 2.29 2.81 2.48 2.77 2.9 l -0.04 0.45 l -1.83 0.07 l -1.82 0.07 v 6 l 2.53 0.04 c 1.39 0.02 2.67 0 2.84 -0.04 c 0.3 -0.08 0.31 -0.16 0.35 -2.03 l 0.04 -1.94 l 0.44 -0.05 c 0.41 -0.04 0.57 0.12 2.77 2.89 c 1.29 1.61 2.34 3 2.33 3.13 c 0 0.11 -1.05 1.51 -2.32 3.11 c -2.21 2.76 -2.35 2.91 -2.77 2.86 l -0.45 -0.04 l -0.14 -3.82 h -5.62 l -0.04 2.98 l -0.04 2.97 h 1.72 c 0.95 0 1.81 0.06 1.91 0.13 c 0.11 0.07 0.17 0.31 0.14 0.55 c -0.04 0.35 -0.54 0.86 -2.86 2.89 c -1.54 1.35 -2.84 2.46 -2.88 2.46 c -0.04 0 -1.33 -1.11 -2.88 -2.46" style="fill:#fff"/></svg>