<svg xmlns="http://www.w3.org/2000/svg" viewBox="0 0 48 48"><path d="m 43.4 36.73 c 26.1 -47.7 -69.3 -49.95 -36.45 -0.78 c 8.66 12.66 29.42 18.83 36.45 0.78" style="fill:#ff8c00"/><path d="m 15.1 33.3 c -0.86 -2.82 -2.03 -8.16 -1.8 -8.29 c 0.04 -0.02 0.56 -0.04 1.14 -0.04 c 1.71 0.24 2.81 -1.04 3.97 -1.29 c 0.3 0.29 2.04 7.5 2.4 9.97 c 0.25 1.72 0.31 2.59 0.24 3.73 c -4.51 1.06 -4.82 -0.42 -5.96 -4.09 m 7.77 6.84 c -0.57 -5.73 -0.93 -10 -0.91 -17.54 c 0.1 -0.14 0.8 0.07 1.47 0.26 c 1.79 0.57 3 -0.38 4.38 -0.48 c 0.18 0.27 0.38 5.72 0.31 8.32 c -0.07 2.7 0.11 7.91 -0.12 8.82 c 0.1 4.55 -4.57 5 -5.13 0.62 m 7 -5.08 c 0.28 -2.88 1.25 -8.14 1.55 -8.43 c 0.09 -0.08 0.44 0 0.99 0.23 c 1.09 0.47 2.49 0.59 3.47 0.3 c 0.39 -0.11 0.75 -0.16 0.8 -0.11 c -0.55 4.46 -0.97 9.87 -2.79 10.29 c -4 1.37 -4.42 1.82 -4 -2.29 m 3.78 -9.59 c -1.32 -0.31 -2.58 -1.34 -2.91 -2.38 c -0.56 -1.97 0.54 -3.43 1.51 -4.8 c 1.71 -2.38 2.05 -3.63 1.43 -5.21 c -0.35 -0.88 -0.29 -1.05 0.3 -0.86 c 1.52 0.5 3.88 3.77 4.8 6.66 c 0.4 1.26 0.36 3.1 -0.11 4.07 c -0.86 1.82 -3.15 2.96 -5 2.52 m -21 -2.56 c -2.28 -0.83 -3.39 -3.46 -2.61 -6.17 c 0.63 -2.2 2.18 -4.72 3.69 -6 c 0.76 -0.66 1.48 -1.03 1.68 -0.85 c 0.04 0.04 -0.07 0.49 -0.25 1.02 c -0.58 1.71 -0.3 2.6 1.68 5.41 c 1.41 2 1.67 2.68 1.45 3.8 c -0.07 0.36 -0.2 0.8 -0.27 1 c -0.25 0.63 -1.05 1.36 -1.93 1.75 c -1.05 0.47 -2.3 0.51 -3.43 0.1 m 9.3 -2.61 c -0.93 -0.82 -1.33 -1.73 -1.24 -2.8 c 0.08 -0.91 0.39 -1.56 1.75 -3.65 c 1.24 -1.91 1.61 -2.63 1.82 -3.58 c 0.24 -1.13 0.45 -1.13 1.62 0.01 c 1.12 1.09 1.71 2.05 2.3 3.71 c 0.39 1.08 0.44 1.42 0.45 2.84 c 0.04 1.51 -0.19 2.51 -1.34 3.47 c -2 0.98 -3.73 1.43 -5.36 0" style="fill:#fff"/></svg>