<svg xmlns="http://www.w3.org/2000/svg" viewBox="0 0 48 48"><path d="m 22.1 47.66 c 28.52 2.73 36.2 -43.3 6.91 -46.82 c -26.93 -4.43 -40.78 37.3 -14 45.58 c 2.27 0.91 4.75 0.89 7.12 1.23" style="fill:#ff8c00"/><path d="m 15.1 38.77 c -0.34 -0.09 -0.71 -0.25 -0.84 -0.35 c -0.69 -0.54 -1.14 -1.06 -1.41 -1.66 l -0.3 -0.66 v -21.68 l 0.3 -0.66 c 0.5 -1.1 1.61 -1.98 2.61 -2.07 c 0.58 -0.05 0.58 -0.05 0.58 1.54 c 0 0.99 0.06 1.69 0.18 1.96 c 0.2 0.5 0.99 1.25 1.59 1.5 c 0.56 0.24 1.6 0.23 2.22 -0.02 c 0.46 -0.19 0.53 -0.19 1.07 0.06 c 0.75 0.35 1.53 0.34 2.34 -0.01 c 0.63 -0.28 0.66 -0.28 1.04 -0.05 c 0.64 0.39 1.75 0.42 2.53 0.08 c 0.62 -0.27 0.68 -0.28 1.05 -0.08 c 0.59 0.31 1.64 0.27 2.41 -0.11 c 1.29 -0.62 1.62 -1.31 1.62 -3.39 c 0 -1.04 0.05 -1.47 0.16 -1.52 c 0.09 -0.03 0.43 0.01 0.77 0.1 c 1.04 0.27 1.98 1.2 2.37 2.32 c 0.3 0.88 0.29 21.48 0 22.38 c -0.27 0.81 -0.98 1.63 -1.79 2.07 l -0.66 0.36 l -8.6 0.03 c -6.66 0.02 -8.74 -0.01 -9.21 -0.14 m 2.94 -23.92 c -0.16 -0.24 -0.2 -0.71 -0.2 -2.4 c 0 -2.07 0 -2.11 0.32 -2.44 c 0.35 -0.36 0.69 -0.34 1.13 0.05 c 0.2 0.18 0.23 0.48 0.23 2.42 c 0 1.98 -0.03 2.25 -0.24 2.44 c -0.34 0.32 -1 0.29 -1.24 -0.07 m 3.6 0.02 c -0.21 -0.24 -0.25 -0.54 -0.29 -2.21 c -0.05 -2.11 0.06 -2.64 0.58 -2.84 c 0.39 -0.15 0.88 0.07 1.06 0.5 c 0.08 0.19 0.14 1.11 0.14 2.19 c 0 2.25 -0.14 2.64 -0.92 2.64 c -0.18 0 -0.45 -0.13 -0.58 -0.28 m 3.51 -0.02 c -0.16 -0.24 -0.2 -0.71 -0.2 -2.4 c 0 -2.07 0.01 -2.11 0.33 -2.44 c 0.35 -0.36 0.69 -0.34 1.13 0.05 c 0.2 0.18 0.23 0.48 0.23 2.42 c 0 1.98 -0.03 2.25 -0.24 2.44 c -0.35 0.32 -1 0.29 -1.24 -0.07 m 3.6 0.02 c -0.21 -0.24 -0.25 -0.54 -0.29 -2.21 c -0.05 -2.11 0.06 -2.64 0.58 -2.84 c 0.39 -0.15 0.88 0.07 1.07 0.5 c 0.08 0.19 0.14 1.11 0.14 2.19 c 0 2.25 -0.14 2.64 -0.92 2.64 c -0.18 0 -0.45 -0.13 -0.58 -0.28" style="fill:#fff"/></svg>