<svg xmlns="http://www.w3.org/2000/svg" viewBox="0 0 48 48"><path d="m 4.59 11.27 c -26.1 47.7 69.3 49.95 36.45 0.78 c -8.66 -12.66 -29.42 -18.82 -36.45 -0.78" style="fill:#ff8c00"/><path d="m 31.89 40.75 c -3.84 -3.3 -5.18 -3.04 -11.9 -11.13 l -7.21 -8.7 l -2.85 -4.21 c -3.34 -4.95 -2.09 -3.15 -1.88 -3.15 c 0.09 0 1 0 3.33 1.8 l 4.21 3.28 l 7.66 8.3 l 7.66 8.3 l 2.63 4.36 c 0.33 1.74 1.95 4.34 1.24 3.38 c -0.07 0 -0.68 -0.31 -2.91 -2.23 m 6.63 -2.1 c -3.07 -8.3 -4.11 -10.46 -7.4 -15.38 c -3.22 -4.81 -5.84 -6.97 -13.99 -11.52 c -1.41 -0.79 -1.89 -1.2 -1.42 -1.2 c 0.37 0 2.77 0.55 4.19 0.95 c 5.1 1.46 9.67 3.8 12.13 6.23 c 1.7 1.68 4 5.52 4.93 8.16 c 0.84 2.44 1.63 7.28 1.9 11.71 c 0.06 0.97 0.07 1.76 0.01 1.76 c -0.05 0 -0.21 -0.32 -0.36 -0.71" style="fill:#fff"/></svg>