<svg xmlns="http://www.w3.org/2000/svg" viewBox="0 0 48 48"><path d="m 39.8 39.79 c 24.36 -19.67 -11.3 -55.1 -32.85 -32.47 c -21.6 19.52 12.1 57.4 32.85 32.47" style="fill:#ff8c00"/><path d="m 13.46 38.42 l -2.5 -0.05 c 1.77 -1.71 3.54 -3.41 5.3 -5.12 h 4.46 c 4.36 -0.01 4.47 0 4.76 0.32 c 0.16 0.18 1.23 1.18 2.37 2.2 l 2.07 1.87 c 1.62 -1.43 3.4 -3 4.74 -4.4 c 0.84 0.01 1.68 0.01 2.51 0.02 l -2.73 2.64 l -2.73 2.64 l -7.88 -0.03 c -3.46 -0.04 -6.92 -0.02 -10.38 -0.09" style="fill:#ffdeac"/><path d="m 27.1 32.2 c -3.11 -2.93 -3.07 -2.7 -0.57 -2.75 l 1.48 -0.03 l 0.04 -4.34 c 0.03 -3.09 -0.01 -4.39 -0.12 -4.52 c -0.24 -0.27 -7.33 -0.27 -7.57 0.01 c -0.2 0.55 -0.12 1 -0.08 1.59 l 1.62 0.04 c 0.89 0.02 1.71 0.07 1.82 0.11 c 0.14 0.05 -0.68 0.9 -2.53 2.64 c -1.5 1.41 -2.8 2.57 -2.88 2.57 c -0.08 0 -1.34 -1.13 -2.81 -2.51 c -1.75 -1.64 -2.62 -2.55 -2.53 -2.64 c 0.08 -0.07 0.86 -0.14 1.75 -0.16 l 1.61 -0.04 l 0.09 -1.26 c 0.13 -1.84 0.76 -2.85 2.26 -3.63 l 0.75 -0.39 h 9.41 l 0.75 0.39 c 0.83 0.43 1.41 0.99 1.89 1.82 c 0.31 0.55 0.32 0.66 0.36 5.48 l 0.04 4.92 h 1.67 c 1.07 0 1.7 0.05 1.77 0.14 c 0.1 0.15 -5.09 5.14 -5.35 5.14 c -0.08 0 -1.37 -1.16 -2.87 -2.57 m -16.2 -17.34 c 0 -0.05 1.25 -1.27 2.78 -2.71 l 2.78 -2.61 h 10.34 c 5.69 0 10.39 0.04 10.44 0.09 c -1.81 1.98 -3.36 3.34 -5.46 5.32 h -10.44 c -5.74 0 -10.44 -0.05 -10.44 -0.1" style="fill:#fff"/><g style="fill:#ffdeac"><path d="m 11.2 31 c 0 -0.16 2.5 -2.63 3.3 -3.26 l 0.41 -0.32 c 1.12 0.87 2.08 1.99 3.27 2.76 c 1.1 -0.59 1.78 -1.3 2.77 -2.16 c 0.91 1.64 1.03 2 1.64 3 c 0 0.06 -2.56 0.12 -5.7 0.12 c -3.86 0 -5.7 -0.05 -5.7 -0.16"/><path d="m 21.66 27.5 c 0.46 -0.63 0.92 -1.03 1.51 -1.61 c 0.93 0.08 1.91 -0.07 2.84 0.01 v 1.13 c -0.01 0.84 -0.2 0.59 -2.43 0.59 c -1.05 0 -1.92 -0.05 -1.92 -0.13"/><path d="m 33.63 27.3 c -0.1 -1.21 0.09 -1.35 1.25 -1.34 c 0.77 0 1.53 0.09 2.28 0.23 l -0.84 0.74 c -0.75 0.66 -0.93 0.74 -1.57 0.74 c -0.69 0 -1.09 0.04 -1.12 -0.37"/></g></svg>