<svg xmlns="http://www.w3.org/2000/svg" viewBox="0 0 48 48"><path d="m 43.2 11.16 c 26.1 47.7 -69.3 49.95 -36.45 0.78 c 8.66 -12.66 29.42 -18.82 36.45 -0.78" style="fill:#ff8c00"/><path d="m 19.98 43.2 c -0.17 -0.16 -0.3 -0.43 -0.3 -0.59 c 0 -0.16 0.64 -0.93 1.42 -1.72 c 2.04 -2.05 2.86 -3.69 2.86 -5.73 c 0 -3.77 3.66 -6.84 7.34 -6.17 c 5.16 0.93 6.98 7.36 3.09 10.88 c -1.82 1.64 -4.89 2.66 -9.51 3.16 c -4.68 0.51 -4.56 0.51 -4.9 0.16 m -1.8 -10.58 c -0.22 -0.23 -0.34 -0.59 -0.37 -1.1 l -0.05 -0.76 l -1 -0.25 c -3.48 -0.88 -6.16 -3.54 -6.94 -6.9 c -0.12 -0.52 -0.31 -1 -0.42 -1.07 c -0.11 -0.07 -0.49 -0.13 -0.84 -0.13 c -0.51 0 -0.71 -0.08 -0.96 -0.4 c -0.39 -0.5 -0.4 -0.69 -0.03 -1.14 c 0.21 -0.27 0.5 -0.38 1.11 -0.44 l 0.82 -0.08 l 0.27 -1.07 c 0.88 -3.45 3.65 -6.27 6.85 -6.97 c 1.09 -0.24 1.22 -0.36 1.22 -1.07 c 0 -0.43 0.11 -0.71 0.38 -0.98 c 0.46 -0.46 0.69 -0.47 1.21 -0.06 c 0.32 0.25 0.4 0.45 0.4 0.98 c 0 0.79 0.12 0.89 1.27 1.14 c 3.13 0.67 5.97 3.55 6.83 6.92 l 0.28 1.11 l 0.75 0.05 c 1.8 0.12 1.96 2 0.17 2 c -0.36 0 -0.72 0.05 -0.82 0.12 c -0.09 0.06 -0.25 0.49 -0.36 0.95 c -0.75 3.3 -3.44 6.08 -6.74 6.97 c -0.55 0.14 -1.08 0.33 -1.18 0.41 c -0.11 0.08 -0.19 0.45 -0.19 0.81 c 0 1.15 -0.94 1.69 -1.64 0.94 m -0.33 -5.82 c 0.16 -0.99 0.89 -1.39 1.56 -0.87 c 0.27 0.21 0.41 0.48 0.45 0.88 c 0.04 0.53 0.07 0.57 0.54 0.55 c 1.7 -0.08 4.31 -2.69 4.38 -4.39 c 0.02 -0.45 -0.02 -0.48 -0.55 -0.53 c -0.57 -0.05 -1.19 -0.58 -1.19 -1.02 c 0 -0.4 0.57 -0.88 1.16 -0.98 c 0.59 -0.1 0.6 -0.12 0.57 -0.68 c -0.07 -1.19 -1.5 -3.11 -2.84 -3.79 c -1.66 -0.84 -2.1 -0.82 -2.1 0.13 c 0 0.32 -0.12 0.61 -0.34 0.81 c -0.7 0.65 -1.48 0.2 -1.64 -0.95 c -0.08 -0.57 -0.13 -0.64 -0.46 -0.6 c -0.7 0.08 -1.98 0.77 -2.73 1.48 c -0.85 0.79 -1.68 2.23 -1.74 3 c -0.04 0.5 -0.02 0.52 0.53 0.57 c 0.39 0.03 0.67 0.17 0.88 0.44 c 0.58 0.74 0.23 1.42 -0.8 1.57 c -0.59 0.08 -0.65 0.13 -0.62 0.51 c 0.1 1.38 1.65 3.3 3.3 4.09 c 1.23 0.59 1.54 0.55 1.66 -0.21 m -0.12 -3.46 c -1.84 -1.12 -1.21 -3.87 0.92 -4.08 c 1.75 -0.18 3 1.79 2.09 3.28 c -0.64 1.04 -2 1.41 -3 0.8 m 15.7 4.36 c -2.57 -0.87 -2.83 -0.99 -2.87 -1.32 c -0.07 -0.58 1.93 -16.22 2.09 -16.38 c 0.09 -0.09 0.48 -0.09 1.04 0.01 c 2.3 0.41 4.06 1.53 5.33 3.39 c 0.95 1.41 1.52 3.05 1.77 5.18 l 0.19 1.59 l -2.13 4.26 c -1.42 2.84 -2.2 4.25 -2.36 4.25 c -0.13 -0.01 -1.5 -0.44 -3.06 -0.97" style="fill:#fff"/></svg>