<svg xmlns="http://www.w3.org/2000/svg" viewBox="0 0 48 48"><path d="m 22.1 47.66 c 28.52 2.73 36.2 -43.3 6.91 -46.82 c -26.93 -4.43 -40.78 37.3 -14 45.58 c 2.27 0.91 4.75 0.89 7.12 1.23" style="fill:#ff8c00"/><path d="m 34.5 39.2 c 0.68 -0.26 1.47 -1.1 1.66 -1.78 c 0.21 -0.76 0.21 -24.96 0 -25.71 c -0.08 -0.29 -0.37 -0.77 -0.64 -1.05 c -0.93 -0.99 -0.55 -0.96 -11.27 -0.92 l -9.56 0.04 l -0.65 0.36 c -0.36 0.2 -0.89 0.65 -1.18 1 c -0.93 1.13 -0.91 0.89 -0.88 11 c 0.04 8.61 0.05 8.99 0.29 9.5 c 0.35 0.75 1.11 1.52 1.89 1.9 l 0.65 0.33 h 9.13 c 10.18 0 9.69 -0.04 10.3 0.93 c 0.36 0.58 0.36 1.2 0 1.78 c -0.62 0.98 -0.1 0.94 -10.36 0.9 l -9.19 -0.04 l -0.57 -0.31 c -0.7 -0.39 -1.33 -1.01 -1.68 -1.67 c -0.3 -0.58 -0.48 -0.55 -0.48 0.08 c 0 1.33 0.86 2.75 2.08 3.43 l 0.65 0.36 l 9.64 0.03 c 8.29 0.02 9.71 0 10.17 -0.18 m -9.85 -13.1 c -2.06 -2.19 -3.78 -3.98 -3.83 -3.98 c -0.05 0 -0.11 1.78 -0.13 3.95 l -0.04 3.95 l -1.74 0.04 l -1.75 0.04 l 0.04 -8.34 l 0.03 -8.34 l 1.57 -0.04 c 1.05 -0.03 1.63 0.01 1.74 0.12 c 0.14 0.13 0.18 0.89 0.18 4.05 c 0 2.14 0.04 3.9 0.09 3.9 c 0.05 0 1.81 -1.83 3.91 -4.06 c 3.44 -3.66 3.86 -4.05 4.19 -4 l 0.36 0.04 l 0.04 8.34 l 0.03 8.34 h -0.48 c -0.46 0 -0.64 -0.17 -4.21 -3.98" style="fill:#fff"/></svg>