<svg xmlns="http://www.w3.org/2000/svg" viewBox="0 0 48 48"><path d="m 42.4 39.47 c 11.68 -17.85 2.25 -34.1 -10.97 -37.99 c -17.79 -5.19 -41.94 8.46 -26 36.56 c 6.32 11.18 28.67 14.1 36.99 1.42" style="fill:#fb8600"/><path d="m 13.46 39.3 c -0.7 -0.26 -1.55 -1.14 -1.73 -1.77 c -0.18 -0.67 -0.18 -24.83 0 -25.5 c 0.18 -0.67 1.04 -1.52 1.8 -1.78 c 0.52 -0.18 1.26 -0.21 4.64 -0.18 l 4 0.04 l 0.04 5.7 c 0.02 3.13 0 5.78 -0.04 5.89 c -0.05 0.14 -0.41 -0.15 -1.2 -0.96 c -0.63 -0.63 -1.26 -1.21 -1.42 -1.3 c -0.16 -0.08 -0.82 -0.15 -1.46 -0.15 h -1.18 v 1.17 c 0 0.91 0.06 1.27 0.25 1.58 c 0.39 0.67 7.57 8.1 7.82 8.1 c 0.13 0 1.9 -1.77 4.07 -4.07 c 4.21 -4.45 4 -4.21 3.97 -5.85 l -0.04 -0.87 l -1.04 -0.04 c -0.57 -0.02 -1.18 0 -1.36 0.04 c -0.18 0.04 -0.86 0.62 -1.5 1.28 c -0.65 0.66 -1.23 1.2 -1.28 1.2 c -0.05 0 -0.07 -2.64 -0.06 -5.86 l 0.04 -5.86 h 5.98 l 0.67 0.36 c 0.88 0.48 1.69 1.44 1.93 2.3 c 0.28 0.98 0.29 17.68 0.01 18.63 c -0.27 0.91 -0.98 1.73 -1.92 2.22 l -0.8 0.41 h -9.38 c -10.46 0 -9.95 -0.04 -10.58 0.93 c -0.38 0.58 -0.38 1.19 0 1.77 c 0.63 0.98 0.1 0.93 10.63 0.89 l 9.43 -0.04 l 0.65 -0.36 c 0.7 -0.38 1.32 -1 1.7 -1.68 c 0.28 -0.51 0.45 -0.46 0.45 0.14 c 0 1.31 -0.88 2.73 -2.13 3.41 l -0.67 0.36 l -9.89 0.03 c -8.51 0.02 -9.96 0 -10.43 -0.18" style="fill:#fff"/></svg>