<svg xmlns="http://www.w3.org/2000/svg" viewBox="0 0 48 48"><path d="m 4.59 11.27 c -26.1 47.7 69.3 49.95 36.45 0.78 c -8.66 -12.66 -29.42 -18.82 -36.45 -0.78" style="fill:#ff8c00"/><path d="m 18.32 40.72 c 0 -0.11 0.89 -1.07 1.98 -2.12 l 1.98 -1.92 h 8.69 c 4.78 0 8.69 0.05 8.69 0.13 c 0 0.07 -0.93 1.02 -2.06 2.12 l -2.06 2 h -8.61 c -6.96 0 -8.61 -0.04 -8.61 -0.2 m 1.12 -8.54 c 0 -0.05 0.29 -0.37 0.64 -0.7 c 0.43 -0.41 0.7 -0.84 0.82 -1.34 c 0.14 -0.52 0.29 -0.75 0.53 -0.82 c 0.18 -0.05 0.89 -0.36 1.56 -0.69 l 1.22 -0.6 h 7.72 c 4.25 0 7.72 0.06 7.72 0.13 c 0 0.07 -0.93 1.02 -2.06 2.12 l -2.06 2 h -8 c -4.43 0 -8.1 -0.04 -8.1 -0.1 m -2.21 -2.46 c -0.23 -0.24 -0.36 -0.61 -0.39 -1.14 l -0.05 -0.78 l -1.2 -0.32 c -1.76 -0.48 -3.13 -1.26 -4.43 -2.51 c -1.32 -1.27 -2.2 -2.71 -2.6 -4.27 c -0.16 -0.59 -0.34 -1.17 -0.41 -1.28 c -0.07 -0.11 -0.46 -0.2 -0.91 -0.2 c -0.65 0 -0.84 -0.07 -1.11 -0.41 c -0.41 -0.51 -0.42 -0.71 -0.03 -1.18 c 0.22 -0.27 0.52 -0.39 1.14 -0.45 c 0.93 -0.09 0.99 -0.15 1.27 -1.34 c 0.24 -1.05 1.15 -2.82 1.88 -3.69 c 1.39 -1.64 3.23 -2.8 5.22 -3.28 l 1.17 -0.28 l 0.09 -0.84 c 0.06 -0.62 0.18 -0.91 0.46 -1.13 c 0.48 -0.38 0.68 -0.37 1.2 0.03 c 0.34 0.26 0.42 0.46 0.42 1.01 c 0 0.38 0.09 0.74 0.2 0.81 c 0.11 0.07 0.7 0.27 1.32 0.45 c 2.41 0.69 4.57 2.33 5.82 4.42 c 0.56 0.94 0.78 1.49 1.31 3.36 c 0.1 0.34 0.22 0.4 0.9 0.44 c 1.9 0.12 2.07 2.07 0.19 2.07 c -0.38 0 -0.77 0.05 -0.87 0.12 c -0.1 0.06 -0.31 0.57 -0.45 1.14 c -0.91 3.43 -3.92 6.31 -7.42 7.08 c -0.89 0.2 -1 0.32 -1 1.21 c 0 1.16 -1 1.7 -1.73 0.94 m -0.34 -5.98 c 0.12 -0.73 0.46 -1.09 1.02 -1.09 c 0.59 0 1.03 0.45 1.08 1.12 c 0.05 0.53 0.09 0.57 0.53 0.55 c 1.41 -0.06 3.31 -1.55 4.18 -3.28 c 0.71 -1.4 0.68 -1.72 -0.13 -1.79 c -0.59 -0.05 -1.25 -0.6 -1.25 -1.05 c 0 -0.41 0.59 -0.9 1.21 -1 c 0.78 -0.13 0.83 -0.33 0.39 -1.49 c -0.47 -1.23 -1.8 -2.62 -3.12 -3.25 c -1.35 -0.65 -1.74 -0.59 -1.86 0.29 c -0.15 1.1 -0.96 1.46 -1.68 0.75 c -0.27 -0.27 -0.39 -0.56 -0.39 -0.95 c 0 -0.51 -0.04 -0.56 -0.45 -0.56 c -0.73 0 -2.33 0.88 -3.15 1.74 c -0.79 0.83 -1.53 2.2 -1.58 2.93 c -0.03 0.39 0.04 0.44 0.6 0.54 c 0.66 0.11 1.21 0.6 1.21 1.07 c 0 0.42 -0.61 0.96 -1.09 0.96 c -0.8 0 -0.91 0.18 -0.62 1.03 c 0.59 1.68 1.79 2.98 3.48 3.76 c 1.17 0.54 1.49 0.48 1.61 -0.28 m 0.02 -3.51 c -1.18 -0.57 -1.65 -2.05 -0.97 -3.04 c 0.21 -0.3 0.63 -0.71 0.94 -0.91 c 1.02 -0.68 2.54 -0.2 3.11 0.97 c 0.95 1.96 -1.09 3.93 -3.07 2.98 m 11.64 3.32 c -0.05 -0.05 0.11 -0.55 0.34 -1.13 c 0.4 -0.97 0.48 -1.05 1.11 -1.24 c 0.92 -0.27 1.37 -0.58 1.79 -1.24 l 0.36 -0.56 h 3.75 c 2.07 0 3.76 0.05 3.76 0.13 c 0 0.07 -0.93 1.02 -2.06 2.12 l -2.06 2 h -3.45 c -1.9 0 -3.49 -0.04 -3.54 -0.09" style="fill:#fff"/></svg>