<svg xmlns="http://www.w3.org/2000/svg" viewBox="0 0 48 48"><path d="m 4.59 11.27 c -26.1 47.7 69.3 49.95 36.45 0.78 c -8.66 -12.66 -29.42 -18.82 -36.45 -0.78" style="fill:#ff8c00"/><path d="m 23.2 42.73 c -4.74 -0.45 -7.61 -1.83 -8.79 -4.23 c -0.76 -1.53 -0.87 -3.05 -0.38 -5 c 0.72 -2.84 2.18 -4.73 5.7 -7.38 c 4.36 -3.29 6.55 -5.6 7.89 -8.32 c 0.76 -1.55 1.02 -3.1 0.79 -4.66 c -0.16 -1.07 -1.24 -2.65 -2.4 -3.51 c -1.72 -1.27 -4.73 -2.33 -7.51 -2.64 l -1.11 -0.13 l -0.53 -1.04 c -0.29 -0.57 -0.47 -1.13 -0.41 -1.23 c 0.16 -0.26 3.43 -0.05 5.97 0.38 c 4.68 0.79 7.91 2.73 9.37 5.64 c 0.85 1.69 1.15 3.09 1.16 5.38 c 0 1.71 -0.06 2.17 -0.41 3.05 c -0.94 2.34 -2.47 4.46 -6.29 8.67 c -3.55 3.91 -4.23 4.78 -4.92 6.2 c -0.66 1.36 -0.79 2.71 -0.34 3.56 c 0.32 0.61 1.27 1.49 1.97 1.85 c 0.95 0.47 3 0.96 4.58 1.09 c 0.98 0.08 1.53 0.2 1.59 0.35 c 0.05 0.13 -0.14 0.64 -0.41 1.16 l -0.5 0.93 l -1.67 0.02 c -0.92 0.01 -2.43 -0.05 -3.34 -0.14" style="fill:#fff"/></svg>