<svg xmlns="http://www.w3.org/2000/svg" viewBox="0 0 48 48"><path d="m 4.59 11.27 c -26.1 47.7 69.3 49.95 36.45 0.78 c -8.66 -12.66 -29.42 -18.82 -36.45 -0.78" style="fill:#ff8c00"/><path d="m 29.94 42.2 c -4.27 -0.43 -6.54 -1.64 -7.48 -4 c -0.35 -0.88 -0.42 -2.29 -0.17 -3.53 c 0.5 -2.47 1.66 -4.09 4.71 -6.57 c 3.46 -2.8 4.95 -4.41 6 -6.48 c 1.05 -2.03 1.26 -3.87 0.59 -5.39 c -0.9 -2.06 -3.71 -3.7 -7.22 -4.22 c -0.54 -0.08 -1.09 -0.18 -1.21 -0.21 c -0.27 -0.09 -1.02 -1.66 -0.89 -1.88 c 0.18 -0.3 4.16 0.12 6.19 0.64 c 4.56 1.19 6.78 3.86 7.09 8.56 c 0.21 3.13 -0.88 5.1 -6.38 11.47 c -2.61 3 -3.5 4.55 -3.5 6 c 0 1.38 0.96 2.45 2.76 3.07 c 0.99 0.34 2.43 0.6 3.31 0.6 c 0.79 0 0.86 0.23 0.36 1.21 l -0.4 0.79 l -1.27 0.02 c -0.7 0.01 -1.84 -0.04 -2.54 -0.11 m -13.32 -10.38 c -0.2 -0.22 -0.31 -0.57 -0.34 -1.06 l -0.05 -0.73 l -0.93 -0.25 c -3.21 -0.85 -5.69 -3.43 -6.41 -6.68 c -0.11 -0.5 -0.29 -0.96 -0.39 -1.03 c -0.1 -0.07 -0.45 -0.13 -0.77 -0.13 c -0.47 0 -0.65 -0.09 -0.88 -0.39 c -0.36 -0.48 -0.37 -0.66 -0.03 -1.11 c 0.2 -0.25 0.46 -0.36 1.02 -0.42 l 0.75 -0.08 l 0.25 -1.04 c 0.81 -3.34 3.37 -6.07 6.32 -6.75 c 1.01 -0.23 1.13 -0.34 1.13 -1.04 c 0 -0.42 0.09 -0.68 0.34 -0.95 c 0.43 -0.44 0.64 -0.45 1.12 -0.05 c 0.3 0.25 0.38 0.43 0.38 0.94 c 0 0.76 0.11 0.87 1.17 1.11 c 2.89 0.65 5.52 3.44 6.31 6.71 l 0.26 1.08 l 0.69 0.04 c 1.66 0.11 1.81 1.95 0.16 1.96 c -0.33 0 -0.67 0.05 -0.75 0.11 c -0.09 0.06 -0.24 0.48 -0.33 0.92 c -0.7 3.2 -3.18 5.89 -6.23 6.75 c -0.5 0.14 -1 0.32 -1.09 0.4 c -0.1 0.08 -0.18 0.43 -0.18 0.79 c 0 1.11 -0.87 1.63 -1.52 0.91 m -0.3 -5.63 c 0.15 -0.96 0.82 -1.35 1.44 -0.84 c 0.25 0.21 0.38 0.47 0.41 0.85 c 0.04 0.52 0.07 0.55 0.5 0.53 c 1.57 -0.07 3.98 -2.61 4.05 -4.25 c 0.02 -0.44 -0.01 -0.47 -0.5 -0.52 c -0.52 -0.04 -1.1 -0.56 -1.1 -0.99 c 0 -0.39 0.53 -0.85 1.07 -0.95 c 0.54 -0.1 0.55 -0.12 0.52 -0.66 c -0.07 -1.16 -1.39 -3 -2.62 -3.66 c -1.53 -0.82 -1.94 -0.8 -1.94 0.12 c 0 0.3 -0.11 0.59 -0.31 0.79 c -0.65 0.63 -1.38 0.19 -1.52 -0.93 c -0.07 -0.55 -0.12 -0.62 -0.43 -0.58 c -0.64 0.07 -1.82 0.75 -2.52 1.43 c -0.79 0.77 -1.55 2.16 -1.61 2.91 c -0.04 0.48 -0.02 0.5 0.49 0.55 c 0.36 0.03 0.61 0.16 0.81 0.43 c 0.54 0.72 0.22 1.38 -0.74 1.52 c -0.55 0.08 -0.6 0.12 -0.57 0.5 c 0.09 1.34 1.53 3.2 3.04 3.96 c 1.14 0.57 1.42 0.53 1.54 -0.2 m -0.11 -3.35 c -1.7 -1.08 -1.12 -3.75 0.86 -3.96 c 1.61 -0.17 2.77 1.73 1.93 3.18 c -0.59 1.01 -1.86 1.37 -2.79 0.78" style="fill:#fff"/></svg>