<svg xmlns="http://www.w3.org/2000/svg" viewBox="0 0 48 48"><path d="m 16.18 2.32 c 23.89 -9.31 36.1 16.8 30.1 33 c -4.25 11.34 -21.2 16.99 -34.88 8.94 c -17.27 -10.16 -13.59 -34.8 4.82 -41.98" style="fill:#ff8c00"/><path d="m 24.1 43.4 c -0.55 -0.09 -0.89 -0.61 -0.98 -1.48 c -0.09 -0.86 -0.36 -1.1 -1.23 -1.1 c -0.63 0 -3.13 -0.78 -4.35 -1.35 c -3.19 -1.49 -6.07 -4.3 -7.67 -7.48 c -0.59 -1.18 -1.27 -3.27 -1.41 -4.39 c -0.19 -1.47 -0.26 -1.57 -1.18 -1.57 c -1.4 0 -2.04 -1.05 -1.22 -2 c 0.3 -0.35 0.54 -0.44 1.28 -0.5 c 0.5 -0.04 0.91 -0.09 0.91 -0.12 c 0 -0.02 0.11 -0.64 0.25 -1.37 c 1.28 -6.7 6.27 -11.66 13.1 -12.99 l 1.44 -0.28 l 0.1 -0.94 c 0.08 -0.75 0.19 -1.01 0.53 -1.3 c 0.48 -0.41 0.7 -0.45 1.27 -0.18 c 0.5 0.22 0.61 0.46 0.72 1.56 l 0.09 0.87 l 1.44 0.27 c 5.1 0.93 9.15 3.91 11.54 8.41 c 0.75 1.39 1.21 2.73 1.59 4.61 l 0.28 1.35 l 0.82 0.05 c 1.44 0.08 2.07 1.11 1.27 2.04 c -0.3 0.35 -0.56 0.46 -1.23 0.52 l -0.85 0.09 l -0.2 1.16 c -0.41 2.46 -1.2 4.47 -2.56 6.52 c -2.54 3.82 -6.29 6.17 -11.38 7.13 l -0.72 0.14 l -0.08 0.82 c -0.12 1.15 -0.64 1.66 -1.54 1.52 m -1.05 -9.26 c 0.05 -2 0.11 -2.28 0.55 -2.7 c 0.48 -0.44 1.17 -0.41 1.65 0.07 c 0.37 0.37 0.39 0.48 0.39 2.31 c 0 1.52 0.05 1.94 0.23 2 c 0.39 0.15 2.18 -0.39 3.58 -1.07 c 3 -1.46 5.51 -4.83 5.87 -7.85 l 0.1 -0.88 h -1.93 c -1.84 0 -1.95 -0.02 -2.41 -0.41 c -0.58 -0.48 -0.65 -1.11 -0.19 -1.68 c 0.29 -0.35 0.44 -0.38 2.35 -0.45 c 2.42 -0.09 2.36 -0.03 1.75 -1.96 c -1.07 -3.4 -3.79 -6.12 -7.23 -7.2 c -0.68 -0.21 -1.41 -0.37 -1.64 -0.34 c -0.41 0.05 -0.41 0.05 -0.49 1.95 c -0.05 1.05 -0.14 2.03 -0.21 2.17 c -0.07 0.14 -0.35 0.36 -0.61 0.46 c -0.41 0.17 -0.56 0.16 -0.91 -0.03 c -0.67 -0.38 -0.81 -0.86 -0.82 -2.8 c 0 -2.06 0.08 -1.98 -1.65 -1.54 c -1.09 0.28 -2.46 0.92 -3.5 1.63 c -1.11 0.76 -2.7 2.56 -3.34 3.77 c -0.65 1.23 -1.35 3.53 -1.14 3.73 c 0.07 0.07 0.97 0.15 2 0.18 c 1.71 0.05 1.9 0.08 2.28 0.44 c 0.52 0.48 0.55 1.27 0.07 1.7 c -0.28 0.25 -0.66 0.32 -2.36 0.38 l -2 0.08 l 0.03 0.66 c 0.04 0.86 0.69 2.71 1.36 3.84 c 0.77 1.3 2.71 3.2 4 3.93 c 1.16 0.64 3.27 1.36 3.83 1.29 c 0.3 -0.03 0.32 -0.16 0.36 -1.7 m 0.23 -5.76 c -0.74 -0.23 -1.94 -1.34 -2.29 -2.1 c -0.81 -1.78 0.12 -4 2 -4.88 c 1.97 -0.89 4.54 0.48 5 2.68 c 0.58 2.68 -2.12 5.13 -4.73 4.29" style="fill:#fff"/></svg>