<svg xmlns="http://www.w3.org/2000/svg" viewBox="0 0 48 48"><path d="m 8.59 7.33 c -37.5 49.4 65.72 56.4 32.59 5.98 c -7.55 -11.49 -22.65 -19 -32.59 -5.98" style="fill:#ff8c00"/><path d="m 22.79 12.39 c -3.2 0 -5.78 2.73 -5.78 6.12 c 0.01 0.36 0.03 0.88 0.06 1.33 c -0.55 0.26 -0.59 1.47 -0.13 2.71 c 0.19 0.49 0.42 0.87 0.68 1.18 c 0.07 0.35 0.04 0.51 0.13 0.91 c 0.21 0.73 1.06 2.16 1.84 3.34 c 0.08 0.91 0.16 1.82 0 2.86 c -2.25 2.11 -8.1 3 -8.1 5.21 l -0.12 0.84 h 22.75 l -0.13 -0.84 c -0.01 -1.88 -5.83 -3 -8.1 -5.21 c -0.09 -0.84 -0.11 -1.68 -0.06 -2.51 c 0.71 -1.24 1.67 -2.88 1.91 -3.69 c 0.09 -0.41 0.12 -0.69 0.18 -1.04 c 0.21 -0.29 0.4 -0.63 0.55 -1.04 c 0.45 -1.18 0.41 -2.31 -0.06 -2.64 c 0.03 -0.48 0.05 -0.98 0.06 -1.4 c 0 -3.39 -2.57 -6.12 -5.78 -6.12" style="fill:#fff;fill-rule:evenodd"/><path d="m -551.8 780.8 h 7.2 c 2.41 0 4.36 1.84 4.36 4.09 v 73.7 c 0.01 2.25 -1.96 4.09 -4.37 4.09 h -7.18 c -2.43 0 -4.38 -1.84 -4.38 -4.09 v -73.7 c 0.01 -2.25 1.96 -4.06 4.37 -4.07" transform="matrix(0.002 -0.203 0.177 0.001 -108.9 -80.5)" style="fill:#ff4500;stroke:#ff4500;stroke-linecap:round;stroke-width:1.48"/></svg>