<svg xmlns="http://www.w3.org/2000/svg" viewBox="0 0 48 48"><path d="m 24.45 47.74 c -4.95 -0.39 -10.74 -2.75 -14.77 -6 c -4.91 -4 -8.51 -10.12 -9.47 -16.2 c -1.15 -7.98 3.48 -16.56 8.72 -20.63 c 2.63 -1.98 6.11 -3.56 9.37 -4.25 c 8.5 -1.8 17.36 1.61 23.44 8.99 c 3.64 4.43 5.53 8.89 5.99 14.18 c 0.55 6.33 -1.95 13.1 -6.52 17.7 c -5.2 4.31 -10.56 6.65 -16.73 6.21" style="fill:#ff8c00"/><path d="m 37.8 21 c 0.6 3 0.21 6.11 -1.12 8.9 c -3.37 7.1 -11.71 10 -18.77 6.65 c -2.75 -1.31 -4.8 -3.25 -6.36 -6 c -1.67 -2.97 -1.63 -5.27 0.11 -7.14 c 0.51 -0.54 0.76 -0.7 1.77 -1.05 c 1.08 -0.39 1.27 -0.41 2.22 -0.26 c 1.84 0.29 2.91 1.19 3.85 3.27 c 0.92 2.04 2.2 3 4.09 3.2 c 1.05 0.1 2.89 -0.55 3.64 -1.29 c 0.77 -0.75 1.3 -1.81 1.42 -2.88 c 0.09 -0.79 0.05 -1.09 -0.31 -2.11 c -0.36 -1 -0.52 -1.27 -1.08 -1.82 c -0.62 -0.61 -2.05 -1.36 -3 -1.59 c 4.45 -3.08 1.19 -6.21 -2.7 -7.9 c 0.59 -1.37 5.76 -0.78 7 -0.42 c 4.4 1.26 8.3 5.66 9.24 10.44" style="fill:#fff"/></svg>