<svg xmlns="http://www.w3.org/2000/svg" viewBox="0 0 48 48"><path d="m 24.45 47.74 c -4.95 -0.39 -10.74 -2.75 -14.77 -6 c -4.91 -4 -8.51 -10.12 -9.47 -16.2 c -1.15 -7.98 3.48 -16.56 8.72 -20.63 c 2.63 -1.98 6.11 -3.56 9.37 -4.25 c 8.5 -1.8 17.36 1.61 23.44 8.99 c 3.64 4.43 5.53 8.89 5.99 14.18 c 0.55 6.33 -1.95 13.1 -6.52 17.7 c -5.2 4.31 -10.56 6.65 -16.73 6.21" style="fill:#ff8c00"/><path d="m 17.1 11.76 c 2.72 -1.46 5.78 -1.98 8.84 -1.53 c 7.74 1.16 13 8.27 11.85 16 c -0.45 3 -1.7 5.54 -3.89 7.83 c -2.35 2.47 -4.57 3.11 -6.86 1.99 c -0.66 -0.33 -0.89 -0.53 -1.52 -1.39 c -0.69 -0.92 -0.76 -1.09 -0.9 -2.05 c -0.27 -1.84 0.29 -3.13 2 -4.64 c 1.68 -1.48 2.26 -2.99 1.87 -4.84 c -0.21 -1.04 -1.37 -2.6 -2.3 -3.11 c -0.94 -0.52 -2.11 -0.71 -3.17 -0.52 c -0.78 0.14 -1.06 0.28 -1.92 0.91 c -0.86 0.64 -1.07 0.86 -1.43 1.56 c -0.4 0.77 -0.7 2.36 -0.64 3.35 c -4.24 -3.35 -6.29 0.68 -6.76 4.89 c -1.48 -0.16 -2.43 -5.28 -2.46 -6.59 c -0.08 -4.57 2.99 -9.59 7.29 -11.89" style="fill:#fff"/></svg>