<svg xmlns="http://www.w3.org/2000/svg" viewBox="0 0 48 48"><path d="m 24.45 47.74 c -4.95 -0.39 -10.74 -2.75 -14.77 -6 c -4.91 -4 -8.51 -10.12 -9.47 -16.2 c -1.15 -7.98 3.48 -16.56 8.72 -20.63 c 2.63 -1.98 6.11 -3.56 9.37 -4.25 c 8.5 -1.8 17.36 1.61 23.44 8.99 c 3.64 4.43 5.53 8.89 5.99 14.18 c 0.55 6.33 -1.95 13.1 -6.52 17.7 c -5.2 4.31 -10.56 6.65 -16.73 6.21" style="fill:#ff8c00"/><path d="m 33.45 13.59 c 2.26 2.1 3.75 4.82 4.3 7.87 c 1.41 7.7 -3.61 14.98 -11.31 16.39 c -3 0.55 -5.8 0.18 -8.67 -1.14 c -3.09 -1.43 -4.42 -3.32 -4.1 -5.86 c 0.09 -0.73 0.21 -1 0.82 -1.89 c 0.65 -0.95 0.79 -1.07 1.65 -1.51 c 1.66 -0.85 3.05 -0.74 5 0.39 c 1.94 1.11 3.55 1.17 5.18 0.2 c 0.91 -0.54 2 -2.14 2.2 -3.18 c 0.18 -1.06 -0.02 -2.23 -0.54 -3.16 c -0.39 -0.7 -0.6 -0.91 -1.48 -1.52 c -0.88 -0.61 -1.16 -0.73 -1.94 -0.85 c -0.86 -0.13 -2.46 0.11 -3.38 0.48 c 1.8 -5.1 -2.68 -5.73 -6.82 -4.82 c -0.33 -1.45 4.21 -4 5.44 -4.45 c 4.3 -1.55 10 -0.27 13.61 3.05" style="fill:#fff"/></svg>