<svg xmlns="http://www.w3.org/2000/svg" viewBox="0 0 48 48"><path d="m 24.45 47.74 c -4.95 -0.39 -10.74 -2.75 -14.77 -6 c -4.91 -4 -8.51 -10.12 -9.47 -16.2 c -1.15 -7.98 3.48 -16.56 8.72 -20.63 c 2.63 -1.98 6.11 -3.56 9.37 -4.25 c 8.5 -1.8 17.36 1.61 23.44 8.99 c 3.64 4.43 5.53 8.89 5.99 14.18 c 0.55 6.33 -1.95 13.1 -6.52 17.7 c -5.2 4.31 -10.56 6.65 -16.73 6.21" style="fill:#ff8c00"/><path d="m 10.2 27.1 c -0.61 -3 -0.23 -6.11 1.09 -8.91 c 3.34 -7.08 11.66 -10.1 18.74 -6.73 c 2.76 1.3 4.82 3.23 6.38 5.98 c 1.68 2.96 1.66 5.27 -0.08 7.14 c -0.5 0.54 -0.76 0.7 -1.77 1.06 c -1.08 0.39 -1.27 0.41 -2.22 0.27 c -1.84 -0.28 -2.91 -1.18 -3.87 -3.26 c -0.93 -2.03 -2.21 -3 -4.1 -3.18 c -1.05 -0.09 -2.88 0.57 -3.64 1.3 c -0.77 0.75 -1.29 1.82 -1.41 2.89 c -0.09 0.79 -0.04 1.09 0.32 2.1 c 0.36 1 0.52 1.27 1.09 1.82 c 0.62 0.6 2.06 1.35 3 1.57 c -4.43 3.1 -1.17 6.22 2.73 7.89 c -0.58 1.37 -5.76 0.8 -7 0.45 c -4.4 -1.24 -8.32 -5.63 -9.29 -10.4" style="fill:#fff"/></svg>