<svg xmlns="http://www.w3.org/2000/svg" viewBox="0 0 48 48"><path d="m 12.65 45.79 c -22.68 -9.45 -12.56 -46 12.14 -45.79 c 22.45 -0.37 30.96 28.72 14.97 41.47 c -6.91 6.38 -18.37 8.61 -27.1 4.32" style="fill:#ff8c00"/><path d="m 38.2 32.47 c -1.21 -0.99 -3.3 -1.9 -3.46 -2.42 c -0.02 -1.24 0.06 -1.27 0.18 -1.81 c 0.63 0.02 1 0.05 2.66 0.45 c 1.78 0.5 1.93 -0.33 1.64 2.34 c -0.4 1.32 0.01 2.08 -1.02 1.44" style="fill:#fff"/><path d="m 27.3 18.25 c 0 1.48 -2.21 2.68 -4.94 2.68 c -2.73 0 -4.94 -1.2 -4.94 -2.68 c 0 -1.48 2.21 -2.68 4.94 -2.68 c 2.73 0 4.94 1.2 4.94 2.68" style="fill:#ffe4c3"/><g style="fill:#fff"><path d="m 20.5 33.1 c -2.26 -0.53 -3.29 -0.89 -4.23 -1.49 c -1.66 -1.06 -2.46 -1.99 -2.99 -3.45 l -0.45 -1.26 l 0.43 -2.24 c 0.24 -1.23 0.7 -3.47 1.03 -4.98 c 0.26 -1.69 0.39 -2.52 1.45 -3.66 c 1.39 -1.48 3.45 -2.39 5.96 -2.63 c 1.98 -0.02 3.43 0.4 5.29 1.35 c 0.86 0.45 1.36 0.58 2.42 0.65 c 1.09 0.07 1.71 -0.13 1.71 0.11 c 0.05 3.13 0 7.24 0.35 9 c 0.23 1.15 0.38 2.27 0.32 2.48 c -0.29 1.05 -1.11 2.66 -1.73 3.36 c -1.8 2.03 -6.64 3.42 -9.55 2.74 m 5.26 -12.18 c 1.14 -0.48 2.13 -1.4 2.38 -2.21 c 0.36 -1.19 -0.62 -2.55 -2.38 -3.28 c -1.19 -0.5 -3.95 -0.68 -5.46 -0.36 c -4.73 1.01 -4.97 4.87 -0.37 6.14 c 1.95 0.22 4.12 0.42 5.84 -0.29"/><path d="m 9.66 29.51 c -0.29 -0.19 -0.47 -0.84 -0.71 -2.48 c -0.11 -5.37 1.45 -6.31 5.23 -8.55 c -0.37 0.95 -0.54 1.93 -0.68 2.94 c -3 1.71 -3.39 2.5 -3.43 5.39 c -0.02 2.16 -0.14 2.9 -0.42 2.7"/><path d="m 34.99 27.61 c -0.54 -3.32 -0.84 -4.45 -3.33 -5.72 c 0.16 -1.25 0 -1.98 -0.12 -3.79 c 3.45 0.78 7 3.8 7.5 8.54 c 0.04 0.6 0.54 1.69 0 1.81 c -1.91 -0.39 -2.35 -0.59 -4.05 -0.84"/></g></svg>