<svg xmlns="http://www.w3.org/2000/svg" xmlns:xlink="http://www.w3.org/1999/xlink" viewBox="0 0 48 48"><defs><g id="3" style="clip-path:url(#2)"><path d="m 23 38.2 c -0.11 -0.02 -1.09 0.41 -1.41 0.36 c -5.41 -0.78 -9.81 -5.75 -11.14 -11 c -1.32 -5.26 0.82 -11.38 5.59 -14.74 c 1.26 -0.93 6.73 -2.86 8.13 -1.91 c 1.63 4.9 0.98 9.42 0.88 14.36 c 5.09 0.4 8.38 -0.42 12.68 -0.01 l 0.16 1.38 c 0.48 3.96 -4 8.47 -7.65 10.66 c -2.34 1.08 -4.63 1.23 -7.24 0.9" style="fill:#fff"/></g><clipPath id="2"><path d="M 0,0 H48 V48 H0 z"/></clipPath><filter id="0" filterUnits="objectBoundingBox" x="0" y="0" width="48" height="48"><feColorMatrix type="matrix" in="SourceGraphic" values="0 0 0 0 1 0 0 0 0 1 0 0 0 0 1 0 0 0 1 0"/></filter><mask id="1"><g style="filter:url(#0)"><path d="M 0,0 H48 V48 H0 z" style="fill-opacity:0.5"/></g></mask></defs><path d="m 11.29 5.13 c 24.54 -17.2 49.4 14.55 29.42 34.8 c -18.84 19.1 -48.1 1.39 -38.98 -22.35 c 1.91 -4.95 5 -9.3 9.55 -12.45" style="fill:#ff8c00"/><use xlink:href="#3" style="mask:url(#1)"/><path d="m 21.92 40.6 c -5.33 -0.68 -9.36 -3.59 -12 -8.69 c -1.93 -4.66 -2.32 -10.44 -0.26 -14.19 c 2.66 -4.81 7.51 -8 12.91 -8.49 c 2.39 -0.21 3.77 -0.26 3.97 0.31 c 0.15 0.41 0.16 3.45 0.3 7 l 0.26 6.91 c 4.16 0.36 8 0.09 12.41 -0.01 l 0.18 2.99 c -2.48 8.51 -6.31 13.96 -17.75 14.1 m 7.35 -3.19 c 3.95 -1.79 7.84 -6.91 8.36 -11.58 c -3.07 -0.52 -7.3 0.02 -13.16 0.04 c 0.17 -4.18 0.47 -14.95 -1.28 -14.94 c -1.87 -0.47 -5.93 1.22 -8.5 3.54 c -4.55 4.1 -5.91 10.29 -3.42 15.54 c 3.47 6.8 11.1 10.11 18 7.4" style="fill:#fff"/></svg>