<svg xmlns="http://www.w3.org/2000/svg" viewBox="0 0 48 48"><path d="m 43.1 35.3 c 14.18 -17.25 -4.93 -38.3 -21.84 -34.65 c -16.55 2.14 -28.3 27.1 -16.54 39.73 c 8.59 9.11 24.2 12.16 38.4 -5.08" style="fill:#ff8c00"/><g style="fill:#fff"><path d="m 36.89 13.96 c 0.28 0.39 0.43 0.94 0.38 1.42 l -0.05 0.46 l -3.98 5.58 c -3.94 5.53 -3.98 5.58 -4.31 5.77 c -0.62 0.35 -1.4 0.38 -2 0.08 l -0.32 -0.16 l -0.32 0.46 c -0.2 0.29 -0.41 0.5 -0.55 0.57 c -0.34 0.17 -0.82 0.16 -1.3 -0.03 l -0.43 -0.17 l -1.47 1.43 c -2.7 2.62 -5.55 5.94 -6.07 5.8 c -0.52 -0.59 0.82 -2 3.22 -7.1 c 0.6 -1.27 1.09 -2.32 1.08 -2.33 c 0 -0.02 -0.16 -0.17 -0.34 -0.35 c -0.64 -0.64 -0.68 -1.09 -0.16 -1.83 l 0.35 -0.49 l -0.29 -0.25 c -0.39 -0.33 -0.59 -0.7 -0.69 -1.21 c -0.16 -0.81 -0.35 -0.49 4 -6.6 c 4.39 -6.16 4.11 -5.82 5 -5.98 c 0.88 -0.15 0.79 -0.2 4.68 2.41 c 2.44 1.63 3.45 2.34 3.56 2.49"/><path d="m 9.61 36.86 h 16.75 c 0.84 0 1.53 0.36 1.53 0.8 v 0.66 c 0 0.44 -0.68 0.8 -1.53 0.8 h -16.75 c -0.84 0 -1.53 -0.36 -1.53 -0.8 v -0.66 c 0 -0.44 0.69 -0.8 1.53 -0.8"/><path d="m 22.29 33.44 h 15.1 c 0.84 0 1.53 0.36 1.53 0.8 v 0.65 c 0 0.45 -0.68 0.8 -1.53 0.8 h -15.1 c -0.85 0 -1.53 -0.36 -1.53 -0.8 v -0.65 c 0 -0.45 0.68 -0.8 1.53 -0.8"/></g></svg>