<svg xmlns="http://www.w3.org/2000/svg" viewBox="0 0 48 48"><path d="m 1.11 29.1 c 4.5 24.62 41.1 25.35 45.87 1.43 c 5.1 -19.38 -16.1 -35.2 -31.3 -28.86 c -10.23 3 -18.2 15.27 -14.56 27.44" style="fill:#ff8c00"/><path d="m 20.69 18.78 c 0 3.29 -2.74 5.95 -6.13 5.95 c -3.38 0 -6.13 -2.66 -6.13 -5.95 c 0 -3.28 2.74 -5.94 6.13 -5.94 c 3.38 0 6.13 2.66 6.13 5.94" style="fill:#fff"/><path d="m 18.72 18.82 c 0 2.25 -1.86 4.08 -4.16 4.08 c -2.3 0 -4.16 -1.83 -4.16 -4.08 c 0 -2.26 1.86 -4.09 4.16 -4.09 c 2.3 0 4.16 1.83 4.16 4.09" style="fill:#ff8c00"/><g style="fill:#fff"><path d="m 19.23 32.1 c 0 2.56 -2.11 4.63 -4.71 4.63 c -2.6 0 -4.7 -2.07 -4.7 -4.63 c 0 -2.56 2.11 -4.63 4.7 -4.63 c 2.6 0 4.71 2.07 4.71 4.63"/><path d="m 24.92 17.29 h 13.2 c 0.72 0 1.31 0.59 1.31 1.31 v 0.36 c 0 0.73 -0.59 1.31 -1.31 1.31 h -13.2 c -0.73 0 -1.31 -0.59 -1.31 -1.31 v -0.36 c 0 -0.73 0.59 -1.31 1.31 -1.31"/><path d="m 24.92 30.56 h 13.2 c 0.72 0 1.31 0.59 1.31 1.31 v 0.37 c 0 0.72 -0.59 1.31 -1.31 1.31 h -13.2 c -0.73 0 -1.31 -0.59 -1.31 -1.31 v -0.37 c 0 -0.72 0.59 -1.31 1.31 -1.31"/></g></svg>