<svg xmlns="http://www.w3.org/2000/svg" viewBox="0 0 48 48"><path d="m 5.22 16 c -2.27 2.92 -4.53 8.42 -4.81 11.7 c -0.41 4.73 1.22 10.16 4 13.39 c 3.75 4.33 11.32 7.17 18.88 7.1 c 5.42 -0.07 12.68 -1.76 16.39 -3.8 c 3.15 -1.73 5.4 -4.26 6.63 -7.45 c 1.67 -4.32 1.74 -8.54 0.22 -12.71 c -2.5 -8.93 -8.13 -14.93 -13.16 -19.71 c -12.8 -10.68 -21.26 2.45 -28.2 11.52" style="fill:#ff8c00"/><g style="fill:#fff"><path d="m 12.42 34 c 0 -0.37 11.14 -24.49 11.3 -24.48 c 0.11 0 6.1 11.96 9.34 18.62 l 2.65 5.45 l -3 0.1 c -7.77 0.25 -20.27 0.45 -20.27 0.31"/><path d="m 22.54 38.1 c -6.53 -0.28 -11.19 -2.41 -9.95 -4.56 c 4.09 -4.84 19 -7.41 23.3 0.32 c 0.24 0.93 -0.44 1.8 -2.02 2.57 c -2.55 1.23 -6.79 1.86 -11.32 1.67"/></g></svg>