<svg xmlns="http://www.w3.org/2000/svg" viewBox="0 0 48 48"><path d="m 45.65 15.26 c 17.89 57.86 -78.2 28.93 -33.3 -10.72 c 9 -7.94 28.45 -4.89 33.3 10.72" style="fill:#ff8c00"/><g style="fill:#fff"><path d="m 15.88 11.3 h 11.3 c 1.39 0 2.51 1.13 2.51 2.51 v 11.18 c 0 1.39 -1.13 2.51 -2.51 2.51 h -11.3 c -1.39 0 -2.51 -1.13 -2.51 -2.51 v -11.18 c 0 -1.39 1.13 -2.51 2.51 -2.51"/><path d="m 40.45 32.2 c 0 4.55 -3.58 8.24 -8 8.24 c -4.42 0 -8 -3.69 -8 -8.24 c 0 -4.55 3.58 -8.24 8 -8.24 c 4.42 0 8 3.69 8 8.24"/></g><g style="fill:#ff8c00"><path d="m 37.2 32.2 c 0 2.68 -2.17 4.84 -4.85 4.84 c -2.68 0 -4.84 -2.17 -4.84 -4.84 c 0 -2.67 2.17 -4.84 4.84 -4.84 c 2.68 0 4.85 2.17 4.85 4.84"/><path d="m 19.68 25.61 c -1.67 -2.26 -5.18 -3.92 -4.32 -4.77 c 0.12 -0.58 1.39 -1.44 1.67 -1.68 c 1 -1.04 2.03 2.21 2.8 1.71 c 1.78 -2.07 3.27 -5.39 4.34 -7.62 c 2.37 0.53 3.66 2.27 3.44 3.38 c -2.03 3.13 -4.2 5.35 -6.6 8.11 c -0.34 0.39 -0.73 0.76 -0.88 0.82 c -0.18 0.11 -0.3 0.1 -0.47 0.05"/></g><path d="m 18.71 38.82 c -0.33 -0.29 -0.33 -0.29 -0.42 -1.29 c -0.1 -1.14 -0.24 -1.46 -0.78 -1.7 c -0.3 -0.14 -0.48 -0.14 -2.05 -0.04 c -1.66 0.22 -1.69 0.13 -2.72 -0.85 l 0.02 -1.89 c 0.02 -3 0.14 -3.58 0.79 -3.88 c 0.42 -0.1 0.98 0 1.22 0.43 c 0.39 1.1 -0.25 2.46 0.36 3.47 c 0.44 0.71 1.52 1.01 2.23 0.63 c 0.45 -0.24 0.89 -0.86 1.09 -1.53 c 0.38 -1.27 1.15 -1.24 2.7 0.09 c 0.39 0.34 1.04 0.84 1.43 1.12 c 1.1 0.78 1.5 1.5 1.16 2.12 c -0.26 0.47 -2.93 2.86 -3.76 3.36 c -0.54 0.25 -0.96 0.22 -1.27 -0.04" style="fill:#fff"/></svg>