<svg xmlns="http://www.w3.org/2000/svg" xmlns:xlink="http://www.w3.org/1999/xlink" viewBox="0 0 48 48"><defs><g id="3" style="clip-path:url(#2)"><path d="m 13.33 36.57 c -0.27 -6.48 0.37 -16.2 -0.23 -21.97 c -0.25 -2.37 8.86 -2.47 11.45 -1.33 c 1.52 3.29 0.5 7.37 1.66 10.37 c 5.11 1 7.91 -0.11 10.67 1.13 c -0.03 4.73 1.29 8.96 0.02 11.74 c -6.36 0.43 -17.5 3.37 -23.57 0.06" style="fill:#fff"/></g><clipPath id="2"><path d="M 0,0 H48 V48 H0 z"/></clipPath><filter id="0" filterUnits="objectBoundingBox" x="0" y="0" width="48" height="48"><feColorMatrix type="matrix" in="SourceGraphic" values="0 0 0 0 1 0 0 0 0 1 0 0 0 0 1 0 0 0 1 0"/></filter><mask id="1"><g style="filter:url(#0)"><path d="M 0,0 H48 V48 H0 z" style="fill-opacity:0.5"/></g></mask></defs><path d="m 34.3 47.82 c -69 4.77 -17.29 -87.3 12 -26.68 c 4 9.34 1.09 23.27 -12 26.68" style="fill:#ff8c00"/><use xlink:href="#3" style="mask:url(#1)"/><path d="m 13.61 38 c -1.18 -0.1 -1.44 -0.51 -2.14 -1.29 v -23.8 c 0.26 -0.88 0.45 -1.03 1.24 -1.32 h 6.22 c 8.61 0 8 -0.45 8.1 6 c 0.05 4.35 0.07 4.45 0.46 4.82 c 0.39 0.36 0.61 0.38 4.84 0.42 c 3.84 0.04 4.5 0.08 5 0.36 c 1.24 0.66 1.22 0.57 1.22 7.48 v 6.22 c -0.87 1.11 -1.38 1 -2.03 1.09 c -1.04 0.13 -20.92 0.15 -22.91 0.03 m 23.1 -2.88 l -0.08 -4.77 c -0.07 -4.52 -0.1 -4.79 -0.45 -5.13 c -0.36 -0.35 -0.56 -0.36 -4.96 -0.34 c -4.91 0.02 -5.15 -0.01 -5.8 -0.86 c -0.3 -0.4 -0.34 -0.89 -0.39 -5.08 c -0.05 -4.36 -0.08 -4.66 -0.42 -4.99 c -0.34 -0.33 -0.62 -0.35 -5.3 -0.36 c -4.68 -0.01 -4.96 0 -5.3 0.33 c -0.35 0.34 -0.36 0.64 -0.37 10.82 v 10.47 c 0.27 0.45 0.34 0.54 0.8 0.81 h 21.36 c 0.54 -0.19 0.77 -0.41 0.92 -0.89" style="fill:#fff"/></svg>