<svg xmlns="http://www.w3.org/2000/svg" viewBox="0 0 48 48"><path d="m 23.45 47.74 c 4.89 -0.38 10.62 -2.74 14.61 -6 c 4.86 -3.98 8.41 -10.1 9.36 -16.1 c 1.14 -7.95 -3.44 -16.5 -8.62 -20.55 c -2.6 -1.98 -6 -3.55 -9.27 -4.23 c -8.39 -1.79 -17.2 1.6 -23.2 8.96 c -3.6 4.41 -5.46 8.86 -5.92 14.1 c -0.54 6.31 1.93 13.1 6.45 17.64 c 5.14 4.3 10.44 6.63 16.54 6.19" style="fill:#ff8c00"/><path d="m 12.21 18.96 l 23 -7.55 v 16.95 l -23 7.55" style="fill:#fff"/><path d="m 35.93 30.3 c 0 4.25 -3.45 7.69 -7.69 7.69 c -4.25 0 -7.69 -3.44 -7.69 -7.69 c 0 -4.25 3.44 -7.69 7.69 -7.69 c 4.25 0 7.69 3.44 7.69 7.69" style="fill:#ff8c00"/><path d="m 34.84 30.35 c 0 3.64 -2.91 6.59 -6.5 6.59 c -3.59 0 -6.5 -2.95 -6.5 -6.59 c 0 -3.64 2.91 -6.59 6.5 -6.59 c 3.59 0 6.5 2.95 6.5 6.59" style="fill:#fff"/></svg>