<svg xmlns="http://www.w3.org/2000/svg" viewBox="0 0 48 48"><path d="m 24.45 47.74 c -4.95 -0.39 -10.74 -2.75 -14.77 -6 c -4.91 -4 -8.51 -10.12 -9.47 -16.2 c -1.15 -7.98 3.48 -16.56 8.72 -20.63 c 2.63 -1.98 6.11 -3.56 9.37 -4.25 c 8.5 -1.8 17.36 1.61 23.44 8.99 c 3.64 4.43 5.53 8.89 5.99 14.18 c 0.55 6.33 -1.95 13.1 -6.52 17.7 c -5.2 4.31 -10.56 6.65 -16.73 6.21" style="fill:#ff8c00"/><g style="fill:#fff"><path d="m 9.47 18.83 h 4.93 v 14.1 h -4.93"/><path d="m 15.89 11.82 h 4.92 v 21.1 h -4.92"/><path d="m 22.2 21.82 h 4.92 v 11.1 h -4.92"/><path d="m 31.93 23.76 h 10.22 v 1.27 h -10.22"/><path d="m 32 26.66 h 10.3 v 1.27 h -10.3"/><path d="m 32 29.43 h 10.15 v 1.27 h -10.15"/></g></svg>