<svg xmlns="http://www.w3.org/2000/svg" viewBox="0 0 48 48"><path d="m 0.28 27.87 c 0.52 -6.5 4.45 -15 9.39 -20.25 c 3.91 -4.15 7.45 -6.24 11.84 -7 c 6.15 -1.09 11.34 1.21 16.38 7.27 c 5.66 7.09 11.3 17.3 9.14 24.93 c -0.87 3 -2 5.07 -3.95 7.16 c -3.99 4.28 -10 6.97 -17.23 7.64 c -4.07 0.38 -7.32 0.11 -11.23 -0.93 c -6.64 -1.78 -11.23 -5.55 -13.39 -10.97 c -0.68 -1.71 -1.14 -5.46 -0.95 -7.84" style="fill:#fd8b01"/><g style="fill:#fff"><path d="m 11.87 38.45 c 0.1 -0.35 0.37 -1.59 0.6 -2.77 c 0.54 -2.71 2.05 -5.86 2.97 -6.16 c 0.5 -0.16 0.94 0.05 1.48 0.68 c 0.88 1.04 3.19 7.93 2.84 8.5 c -0.39 0.63 -1.56 0.42 -1.97 -0.34 c -0.54 -1.02 -1.93 -1.85 -2.63 -1.58 c -1.02 0.63 -1.41 2.27 -2.56 2.29 c -0.69 0 -0.86 -0.14 -0.73 -0.63 m 4.84 -4.37 c 0.51 -0.97 0.08 -1.88 -0.83 -1.75 c -1.52 0.92 -0.21 3.67 0.83 1.75"/><path d="m 22.1 37.95 c -0.21 -0.62 -0.39 -2.48 -0.39 -4.13 c 0 -2.52 0.11 -3.11 0.71 -3.71 c 1 -1 2.7 -0.92 4.18 0.23 c 1.14 0.88 1.81 1.27 1.05 2.52 c -0.63 1.05 -0.04 1.66 0.14 1.77 c 0.17 0.11 0.31 0.74 0.31 1.41 c 0 1.71 -1.75 3.04 -4 3.04 c -1.5 0 -1.65 -0.08 -2 -1.13 m 3.7 -1.91 c 0 -0.79 -1.11 -1.18 -1.69 -0.6 c -0.6 0.61 -0.54 1.65 0.35 1.52 c 0.53 -0.07 1.34 -0.45 1.34 -0.92 m -0.33 -3.17 c 0.07 -0.5 -0.34 -1.32 -0.68 -1.32 c -0.6 0 -0.93 0.66 -0.67 1.36 c 0.25 0.69 1.22 0.86 1.35 -0.04"/><path d="m 31.71 38 c -1.46 -0.97 -2.23 -2.55 -2.16 -4.4 c 0.06 -1.73 0.8 -2.74 2.64 -3.64 c 1.83 -0.89 2.86 -0.96 3.46 -0.22 c 0.61 0.74 -0.13 1.61 -1.38 1.63 c -1.52 0.01 -2.68 1.15 -2.68 2.65 c 0 1.64 0.72 2.36 2.6 2.62 c 1.36 0.18 1.48 0.29 1.38 1.14 c -0.09 0.79 -0.3 0.95 -1.35 1.01 c -0.97 -0.05 -1.87 -0.35 -2.52 -0.78"/><path d="m 20.35 16.53 c -0.36 -0.23 -0.23 -1 0.61 -3.63 c 1.37 -4.26 1.87 -5 3.24 -5 c 0.94 0 1.16 0.21 1.8 1.7 c 1.54 3.57 2.37 6.48 1.97 6.88 c -0.61 0.62 -1.2 0.46 -2.5 -0.69 c -0.67 -0.59 -1.37 -1.07 -1.55 -1.07 c -0.19 0 -0.77 0.48 -1.29 1.07 c -0.98 1.11 -1.49 1.28 -2.29 0.77 m 4.34 -3.85 c 0.7 -0.71 0.7 -1.04 -0.01 -1.75 c -0.44 -0.45 -0.68 -0.48 -1.07 -0.16 c -0.61 0.51 -0.64 1.47 -0.07 2.05 c 0.53 0.54 0.48 0.54 1.15 -0.13"/><path d="m 29.41 23.84 c -1.18 -2.1 -1.39 -4.31 -0.42 -4.45 c 0.5 -0.07 0.78 0.29 1.55 1.97 c 1.66 3.63 0.7 5.74 -1.13 2.48"/><path d="m 23.46 25.1 c -0.77 -1.11 -0.5 -5.61 0.36 -5.94 c 0.25 -0.1 0.66 0.03 0.91 0.28 c 0.61 0.61 0.65 5.11 0.06 5.83 c -0.53 0.64 -0.79 0.61 -1.33 -0.17"/><path d="m 16.33 24.94 c -0.35 -0.66 -0.1 -1.64 1.03 -3.94 c 0.65 -1.33 0.96 -1.68 1.42 -1.61 c 0.98 0.14 0.89 1.5 -0.25 3.92 c -1.05 2.22 -1.65 2.66 -2.2 1.63"/></g></svg>