<svg xmlns="http://www.w3.org/2000/svg" viewBox="0 0 48 48"><path d="m 36.71 5.13 c -24.54 -17.2 -49.4 14.55 -29.42 34.8 c 18.84 19.1 48.1 1.39 38.98 -22.35 c -1.91 -4.95 -5 -9.3 -9.55 -12.45" style="fill:#ff8c00"/><path d="m 18.41 37.3 c -3.14 -1.53 -5.82 -3.82 -7.7 -6.58 c -2 -3.68 -2.6 -8.9 -1.08 -11.82 c 1.6 -3 3.88 -5.21 6.81 -6.51 c 2.94 -1.31 7.16 -1.52 7.78 -0.4 c 0.54 0.98 0.23 1.18 -2.3 1.48 c -12.45 1.46 -14.32 15.86 -2.8 21.49 c 4.13 1.8 9.3 1.93 12.46 0.17 c 3.04 -1.72 5.15 -4.63 5.49 -7.55 c 0.22 -1.86 0.49 -2.39 1.15 -2.29 c 1.33 0.23 1.82 3.62 0.84 5.79 c -0.94 2.09 -4 5.15 -6.62 6.57 c -4 1.57 -10.4 1.4 -14 -0.36" style="fill:#fff"/></svg>