<svg xmlns="http://www.w3.org/2000/svg" xmlns:xlink="http://www.w3.org/1999/xlink" viewBox="0 0 48 48"><defs><g id="3" style="clip-path:url(#2)"><path d="m 13.1 14 c 6.87 -0.13 14.51 0.33 22 0.31 c 2.28 3.12 2.38 15.8 -0.41 20.1 c -5 1.34 -16.87 -0.02 -22.2 0.02 c -2.46 -5.13 -2.81 -16.83 0.57 -20.38" style="fill:#fff"/></g><clipPath id="2"><path d="M 0,0 H48 V48 H0 z"/></clipPath><filter id="0" filterUnits="objectBoundingBox" x="0" y="0" width="48" height="48"><feColorMatrix type="matrix" in="SourceGraphic" values="0 0 0 0 1 0 0 0 0 1 0 0 0 0 1 0 0 0 1 0"/></filter><mask id="1"><g style="filter:url(#0)"><path d="M 0,0 H48 V48 H0 z" style="fill-opacity:0.5"/></g></mask></defs><path d="m 10.36 5.11 c 23.7 -17.1 50.1 14.5 31.1 34.7 c -17.91 19 -48.1 1.39 -40.1 -22.29 c 1.67 -4.93 4.59 -9.27 8.95 -12.41" style="fill:#ff8c00"/><path d="m 13.39 36.71 c -1.35 -0.35 -3.39 -3 -3.71 -4.53 c -0.09 -0.46 -0.15 -3.7 -0.15 -7.93 c 0 -8.72 -0.07 -8.32 1.58 -10.36 c 1.91 -2.36 0.89 -2.18 11.91 -2.24 c 10.73 -0.06 10.97 -0.04 12 1.02 c 1.26 1.25 2.24 2.62 2.48 3.46 c 0.14 0.48 0.19 2.45 0.19 8.14 c 0 4.12 -0.05 7.78 -0.11 8.13 c -0.63 1.33 -2.07 3.5 -3.25 4.23 c -0.45 0.25 -19.83 0.33 -21 0.09 m 20 -2.97 c 0.64 -0.8 1.38 -1.4 1.81 -2.39 c 0.21 -0.51 0.23 -13.54 0.01 -14.22 c -0.8 -0.86 -1.38 -1.73 -2.12 -2.57 h -9.51 c -6.23 0 -9.6 0.06 -9.78 0.18 c -0.46 0.9 -1.74 2.09 -1.88 2.62 c -0.17 0.75 -0.18 12.33 -0.01 13.4 c 0.48 1.45 1.23 2.14 1.99 3.18 h 9.59 c 2.92 -0.1 9.55 -0.02 9.9 -0.2" style="fill:#fff"/><use xlink:href="#3" style="mask:url(#1)"/></svg>