<svg xmlns="http://www.w3.org/2000/svg" xmlns:xlink="http://www.w3.org/1999/xlink" viewBox="0 0 48 48"><defs><g id="3" style="clip-path:url(#2)"><path d="m 31.67 12.5 c 3.48 0 6.3 1.69 6.3 3.77 v 13 c 0 2.08 -2.82 3.77 -6.3 3.77 c -3.48 0 -6.29 -1.69 -6.29 -3.77 v -13 c 0 -2.08 2.82 -3.77 6.29 -3.77" style="fill:#fff"/><path d="m 37.52 16 c 0 1.61 -2.57 2.91 -5.73 2.91 c -3.17 0 -5.73 -1.3 -5.73 -2.91 c 0 -1.61 2.56 -2.91 5.73 -2.91 c 3.16 0 5.73 1.3 5.73 2.91" style="fill:#ffdeac"/><path d="m 8.22 32.65 c 0 -0.29 7 -19.32 7.14 -19.31 c 0.07 0 3.86 9.43 5.9 14.68 l 1.67 4.3 l -1.91 0.08 c -4.91 0.2 -12.8 0.35 -12.8 0.25" style="fill:#fff"/><path d="m 14.61 35.88 c -4.13 -0.22 -7.1 -1.9 -6.29 -3.59 c 2.59 -3.82 12 -5.84 14.72 0.25 c 0.15 0.73 -0.28 1.42 -1.28 2.02 c -1.61 0.97 -4.29 1.47 -7.15 1.32" style="fill:#fff"/></g><g id="6" style="clip-path:url(#5)"><path d="m 184.8 165.6 c 0 21 -16.78 38 -37.49 38 c -20.71 0 -37.49 -17 -37.47 -38 c -0.02 -20.97 16.76 -38 37.47 -38 c 20.71 0 37.49 17 37.49 38" transform="matrix(0.178 0 0 0.175 -0.86 2.3)" style="fill:#fff;stroke:#fff;stroke-linecap:round;stroke-width:6"/></g><clipPath id="2"><path d="M 0,0 H48 V48 H0 z"/></clipPath><clipPath id="5"><path d="M 0,0 H48 V48 H0 z"/></clipPath><filter id="0" filterUnits="objectBoundingBox" x="0" y="0" width="48" height="48"><feColorMatrix type="matrix" in="SourceGraphic" values="0 0 0 0 1 0 0 0 0 1 0 0 0 0 1 0 0 0 1 0"/></filter><mask id="4"><g style="filter:url(#0)"><path d="M 0,0 H48 V48 H0 z" style="fill-opacity:0.5"/></g></mask><mask id="1"><g style="filter:url(#0)"><path d="M 0,0 H48 V48 H0 z" style="fill-opacity:0.5"/></g></mask></defs><path d="m 47.68 27.98 c -0.18 -6.5 -3.68 -15 -8.36 -20.25 c -3.7 -4.15 -7.12 -6.24 -11.48 -7 c -6.09 -1.09 -11.41 1.21 -16.75 7.26 c -6 7.09 -12.19 17.3 -10.42 24.93 c 0.72 3 1.74 5.07 3.58 7.16 c 3.77 4.29 9.68 6.97 16.83 7.64 c 4.05 0.38 7.32 0.11 11.29 -0.93 c 6.73 -1.78 11.51 -5.55 13.95 -10.97 c 0.77 -1.71 1.41 -5.46 1.35 -7.83" style="fill:#fd8b01"/><use xlink:href="#3" style="mask:url(#1)"/><use xlink:href="#6" style="mask:url(#4)"/><path d="m 127.2 204.7 c -14.27 -3.19 -25.63 -14.4 -29.33 -28.96 c -0.9 -3.54 -1.27 -9.65 -0.83 -13.92 c 1.92 -19.1 16.75 -33.73 35.6 -35.2 c 10.56 -0.81 21.58 3.48 29.33 11.46 c 5.1 5.25 8.35 11.17 10.38 18.79 c 1.17 4.42 1.06 14.29 -0.19 19.1 c -3.54 13.46 -13.69 24.1 -26.75 28 c -5.29 1.58 -12.9 1.88 -18.21 0.69 m 14.1 -5.31 c 5.85 -0.94 13.25 -5.13 17.67 -9.98 c 6.54 -7.19 9.56 -16.58 8.69 -27 c -1.13 -13.35 -10.46 -24.94 -23.35 -29 c -7.71 -1.98 -16.21 -1.06 -22.2 1.35 c -7.33 2.98 -14.79 10.83 -17.65 18.6 c -3.44 9.71 -2.6 20.1 1.23 28.1 c 5 10.29 14.85 17.33 25.79 18.4 c 3.77 0.27 7.08 0.02 9.81 -0.42" transform="scale(0.188)" style="fill:#fff;stroke:#fff;stroke-linecap:round;stroke-width:2.58"/></svg>