<svg xmlns="http://www.w3.org/2000/svg" viewBox="0 0 48 48"><path d="m 20.25 47.3 c 6.47 -1.06 14.93 -5.72 20.2 -11.1 c 4.13 -4.26 6.21 -7.97 6.99 -12.43 c 1.09 -6.24 -1.2 -11.25 -7.23 -15.77 c -7.1 -5.06 -17.22 -9.84 -24.81 -7 c -3 1.13 -5 2.43 -7.13 4.55 c -4.27 4.35 -6.94 10.62 -7.61 17.87 c -0.38 4.1 -0.11 7.33 0.93 11.16 c 1.77 6.49 5.53 10.76 10.92 12.47 c 1.7 0.54 5.43 0.68 7.8 0.29" style="fill:#fd8b01"/><g style="stroke:#fff"><g transform="matrix(0.056 0.499 -0.589 0.048 322.4 -190.8)" style="fill:#fff;fill-rule:evenodd"><path d="m 358.4 518.1 l 4.93 -3.92 l 45.92 41.2 l -5.07 3.12" style="stroke-miterlimit:2"/><path d="m 402.5 554.5 c -8.1 -7 5.37 -2.67 12.91 10.49 c -14.33 -8.33 -11.2 -9 -12.91 -10.49"/></g><path d="m 6.56 44.5 c 0 0 -8.62 -21.29 -0.61 -30.59 c 6.64 -7.72 11.5 11.26 16.22 2.2 c 1.78 -3.41 0.11 -11.23 -11.33 -15.23" transform="matrix(0.668 0 0 0.69 8.15 12.51)" style="fill:#ffdeac"/></g></svg>