<svg xmlns="http://www.w3.org/2000/svg" viewBox="0 0 48 48"><path d="m 24.2 47.74 c 4.89 -0.38 10.57 -2.75 14.47 -6 c 4.75 -3.99 8.15 -10.1 8.93 -16.1 c 0.91 -7.96 -3.91 -16.52 -9.21 -20.59 c -2.66 -1.98 -6.15 -3.55 -9.41 -4.24 c -8.46 -1.79 -17.2 1.61 -22.96 8.98 c -3.48 4.42 -5.23 8.87 -5.54 14.1 c -0.37 6.32 2.3 13.1 6.96 17.67 c 5.27 4.3 10.64 6.64 16.74 6.2" style="fill:#ff8c00"/><path d="m 33.3 12.8 l -0.15 24.63 h -18.82 l 0.15 -24.63" style="fill:#fff"/><path d="m 35.91 27.94 c 0 4.37 -3.55 7.9 -7.95 7.9 c -4.39 0 -7.95 -3.54 -7.95 -7.9 c 0 -4.36 3.56 -7.9 7.95 -7.9 c 4.39 0 7.95 3.54 7.95 7.9" style="fill:#ff8c00"/><path d="m 34.65 27.94 c 0 3.74 -3 6.77 -6.72 6.77 c -3.71 0 -6.72 -3 -6.72 -6.77 c 0 -3.74 3 -6.77 6.72 -6.77 c 3.71 0 6.72 3 6.72 6.77" style="fill:#ffdeac"/></svg>