<svg xmlns="http://www.w3.org/2000/svg" viewBox="0 0 48 48"><path d="m 0.52 24.1 c -3.59 -31.67 47.84 -31.2 47.2 0.56 c 1.7 29.57 -50 32.2 -47.2 -0.56" style="fill:#ff8c00"/><path d="m 7.89 18.3 h 32.51 v 14.25 h -32.51" style="fill:#fff"/><g style="fill:#ff8c00"><path d="m 26.48 30.7 c -0.56 -0.08 -0.84 -0.18 -1.41 -0.47 c -0.47 -0.25 -1.44 -1.11 -1.39 -1.24 c 0.01 -0.04 0.32 -0.43 0.69 -0.88 l 0.67 -0.82 l 0.37 0.35 c 0.54 0.51 1.04 0.74 1.61 0.75 c 0.74 0.01 1.14 -0.36 1.14 -1.06 c 0 -0.77 -0.4 -1.05 -1.58 -1.09 l -0.76 -0.03 l -0.15 -0.64 c -0.08 -0.35 -0.14 -0.68 -0.14 -0.72 c 0 -0.05 0.43 -0.55 0.96 -1.12 l 0.95 -1.04 l -1.63 -0.02 l -1.63 -0.02 v -2.21 h 6.1 v 1.95 l -1 1.01 c -0.55 0.55 -1 1.04 -1 1.07 c 0 0.04 0.16 0.12 0.35 0.19 c 1.13 0.4 1.79 1.39 1.79 2.7 c 0 1.05 -0.33 1.87 -0.99 2.5 c -0.5 0.47 -0.99 0.72 -1.64 0.83 c -0.52 0.08 -0.64 0.08 -1.24 0"/><path d="m 12.83 26.76 c 0 -3 -0.02 -3.81 -0.09 -3.81 c -0.05 0 -0.36 0.08 -0.69 0.17 c -0.41 0.12 -0.62 0.15 -0.65 0.1 c -0.05 -0.09 -0.44 -1.99 -0.41 -2 c 0.01 -0.01 0.55 -0.2 1.19 -0.42 c 1.16 -0.4 1.17 -0.4 2 -0.4 h 0.85 v 10.18 h -2.21"/><path d="m 16.32 29.52 v -1.05 l 1.75 -1.6 c 2.2 -2.02 2.45 -2.34 2.45 -3.16 c 0 -0.64 -0.37 -1.04 -0.95 -1.05 c -0.48 0 -0.92 0.31 -1.54 1.07 l -0.14 0.18 l -0.75 -0.75 l -0.75 -0.75 l 0.26 -0.38 c 0.14 -0.21 0.44 -0.57 0.67 -0.79 c 1.5 -1.5 4.11 -1.22 5.07 0.54 c 0.58 1.06 0.54 2.64 -0.09 3.69 c -0.28 0.46 -1.11 1.3 -2.17 2.19 l -0.71 0.6 l 1.72 0.02 l 1.72 0.02 v 2.28 h -6.55"/></g></svg>