<svg xmlns="http://www.w3.org/2000/svg" viewBox="0 0 48 48"><path d="m 42.78 15.75 c 2.27 2.92 4.52 8.42 4.81 11.7 c 0.41 4.73 -1.22 10.16 -4 13.39 c -3.75 4.33 -11.32 7.17 -18.88 7.1 c -5.42 -0.07 -12.68 -1.76 -16.39 -3.8 c -3.15 -1.73 -5.4 -4.26 -6.63 -7.45 c -1.67 -4.32 -1.75 -8.54 -0.22 -12.71 c 2.5 -8.93 8.12 -14.93 13.16 -19.71 c 12.8 -10.67 21.26 2.45 28.2 11.53" style="fill:#ff8c00"/><path d="m 35.58 33.72 c 0 -0.37 -11.14 -24.49 -11.3 -24.48 c -0.11 0 -6.1 11.96 -9.34 18.62 l -2.65 5.45 l 5.72 5.57 c 0.36 0.36 17.57 -5 17.57 -5.16" style="fill:#fff"/></svg>