<svg xmlns="http://www.w3.org/2000/svg" viewBox="0 0 48 48"><path d="m 24.45 47.74 c -4.95 -0.39 -10.74 -2.75 -14.77 -6 c -4.91 -4 -8.51 -10.12 -9.47 -16.2 c -1.15 -7.98 3.48 -16.56 8.72 -20.63 c 2.63 -1.98 6.11 -3.56 9.37 -4.25 c 8.5 -1.8 17.36 1.61 23.44 8.99 c 3.64 4.43 5.53 8.89 5.99 14.18 c 0.55 6.33 -1.95 13.1 -6.52 17.7 c -5.2 4.31 -10.56 6.65 -16.73 6.21" style="fill:#0000cd"/><path d="m 10.1 14.58 h 27.2 v 16.86 h -27.2" style="fill:#fff"/><path d="m 10.52 31.3 c 6.61 -3.3 25.41 -12.71 25.93 -12.98 l 0.72 -0.37 v 13.51 h -13.48 h -13.48" style="fill:#1e8fff"/><path d="m 29.44 33.2 l -2.5 3.73 l -2.41 3.78 l 4.79 0.11 l 4.79 0.02 l -2.29 -3.84" style="fill:#fff"/></svg>