<svg xmlns="http://www.w3.org/2000/svg" viewBox="0 0 48 48"><path d="m 23.71 0.59 c 31.48 -3.6 32 47.98 0.35 47.4 c -29.43 1.71 -33.1 -50.2 -0.35 -47.4" style="fill:#ff8c00"/><g style="fill:#fff"><path d="m 10.55 20.67 c -0.48 -0.21 -0.54 -0.42 -0.57 -1.77 c -0.03 -1.5 0.07 -1.98 0.82 -3.67 c 0.68 -1.55 0.81 -1.94 0.98 -2.97 c 0.11 -1.1 0.8 -2 1.79 -2.48 c 0.62 -0.16 1.48 -0.43 2 0.02 c 0.71 0.95 1 2.03 1.49 3.05 c 0.87 1.7 0.86 3.5 1.67 5 c 0.45 0.76 0.61 1.98 -0.2 2.52 c -0.49 0.3 -1.64 0.01 -2.3 -0.58 c -0.54 -0.53 -0.54 -1.3 -1.07 -1.68 c -0.44 -0.31 -1.07 -0.45 -1.51 -0.32 c -0.59 0.17 -0.86 0.55 -1.05 1.48 c -0.09 0.44 -0.41 0.98 -0.71 1.21 c -0.42 0.2 -0.97 0.31 -1.34 0.16 m 4.23 -5.14 c 0.32 -0.16 0.55 -0.64 0.55 -1.13 c 0 -0.96 -0.8 -1.52 -1.58 -1.12 c -0.72 0.36 -0.73 1.8 -0.01 2.23 c 0.35 0.11 0.75 0.16 1.04 0.02"/><path d="m 14.38 37.59 c -1.04 -1.46 -2.97 -2.88 -3.3 -4.73 c -0.09 -0.61 0.08 -0.73 1.23 -0.91 c 0.67 -0.11 1.01 -0.02 1.48 -0.4 v -3.09 c 0 -4.12 0.12 -5.08 0.69 -5.52 c 0.16 -0.13 0.29 -0.18 0.38 -0.14 c 0.22 0.07 0.64 0.59 0.73 0.9 c 0.13 0.46 0.21 1.75 0.25 4.21 c 0.06 3.11 0.13 3.64 0.52 3.82 c 0.1 0.04 0.47 0.08 0.84 0.08 c 0.84 0 1.13 0.08 1.42 0.41 c 0.51 0.59 0.46 0.89 -0.38 1.96 c -0.87 0.94 -2.22 3.54 -3.33 3.58 c -0.2 -0.02 -0.39 -0.07 -0.53 -0.17"/><path d="m 22.46 35.7 c -1.75 -2.3 -2 -2.86 -1.58 -3.37 c 0.71 -0.53 1.64 -0.28 2.23 -0.85 c 0.62 -0.52 0.32 -1.54 0.32 -2.29 c 0 -4.23 0.29 -10.33 0.58 -12.24 c 0.13 -0.86 0.42 -1.23 0.63 -0.79 c 0.36 0.78 0.66 4.67 0.8 10.39 c 0.11 4.52 0.13 4.8 0.44 5.11 c 0.71 0.36 1.83 -0.07 2.4 0.59 c 0.48 0.57 0.41 0.9 -0.41 1.93 c -0.89 0.96 -2.21 3.54 -3.35 3.58 c -0.94 -0.3 -1.5 -1.32 -2.07 -2.06"/><path d="m 33.67 37.56 c -1 -1.37 -3 -3 -3.28 -4.66 c -0.04 -0.29 -0.02 -0.36 0.14 -0.56 c 0.92 -0.5 1.74 -0.03 2.52 -0.73 l 0.05 -3.71 c 0.09 -6.2 0.41 -10.95 0.76 -11.67 c 0.18 -0.38 0.29 -0.38 0.45 0 c 0.37 0.86 0.65 4.64 0.8 10.69 c 0.09 3.51 0.14 4.34 0.33 4.63 c 0.14 0.22 0.21 0.23 1.15 0.29 c 1.26 0.07 1.76 0.37 1.76 1.06 c -0.45 1.16 -2.63 3.91 -3.56 4.66 c -0.38 0.28 -0.79 0.29 -1.13 0.01"/></g></svg>