<svg xmlns="http://www.w3.org/2000/svg" viewBox="0 0 48 48"><g style="fill:#ff8c00"><path d="M 0.558594 29.476562 C 3.53125 48.84375 29.976562 54.039062 41.636719 40.199219 C 51.914062 29.925781 49.363281 10.257812 36.746094 3.507812 C 22.269531 -5.511719 1.175781 5.636719 0.03125 23.605469 C -0.0859375 25.574219 0.0820312 27.5625 0.550781 29.476562 Z M 0.558594 29.476562 "/><path d="M 59.371172 64.229 L 191.392005 64.229 L 191.392005 191.624834 L 59.371172 191.624834 Z M 59.371172 64.229 " transform="matrix(0.188 0 0 0.188 0.47 0.37)" style="stroke:#fff;stroke-linecap:round;stroke-width:8.3"/></g><g style="fill:#fff"><path d="M 11.484375 13.273438 L 12.359375 12.28125 L 36.121094 35 L 35.246094 35.988281 Z M 11.484375 13.273438 "/><path d="M 36.121094 13.273438 L 35.246094 12.28125 L 11.484375 35 L 12.359375 35.988281 Z M 36.121094 13.273438 "/></g></svg>