<svg xmlns="http://www.w3.org/2000/svg" viewBox="0 0 48 48"><path d="m 22.83 47.75 c 4.93 -0.03 10.76 -1.98 14.86 -4.98 c 5 -3.64 8.77 -9.5 9.91 -15.45 c 1.39 -7.88 -2.95 -16.77 -8 -21.2 c -2.54 -2.16 -5.95 -3.98 -9.18 -4.9 c -8.38 -2.4 -17.29 0.37 -23.55 7.31 c -3.75 4.16 -5.77 8.47 -6.39 13.72 c -0.75 6.28 1.53 13.23 5.93 18.1 c 5 4.67 10.28 7.38 16.42 7.38" style="fill:#ff8c00"/><path d="m 13.9 12.85 h 21.51 v 21 h -21.51" style="fill:#fff"/><path d="m 14 33 l 2.59 -1.23 c 3.49 -1.65 4.12 -2 5.84 -3.22 c 3.25 -2.3 5.67 -4.79 8.17 -8.38 c 1.47 -2.12 2.46 -3.84 3.67 -6.37 l 0.44 -0.92 c 0.23 0 0.46 0 0.7 0 c 0 0.45 0 0.89 0 1.34 l -0.96 1.89 c -1.02 2 -1.47 2.8 -2.37 4.15 c -2.67 4 -5.19 6.76 -8.51 9.19 c -1.77 1.3 -2.86 1.91 -6.42 3.61 l -1.61 0.77 c -0.52 0 -1.05 0 -1.57 0 c 0.02 -0.3 0.03 -0.55 0.04 -0.85" style="fill:#ff8c00"/><g style="fill:#fff"><path d="m 10.52 18.54 h 1.52 v 15.34 h -1.52"/><path d="m 31.96 35.41 v 1.53 h -18.27 v -1.53"/></g></svg>