<svg xmlns="http://www.w3.org/2000/svg" viewBox="0 0 48 48"><path d="m 18.62 47.3 c -44.81 -9.36 3.3 -73.7 26.1 -35.1 c 9.77 15 -3 39.86 -26.1 35.1" style="fill:#ff8c00"/><g style="fill:#fff"><path d="m 18.25 35.8 c -0.75 -1.7 -1.01 -1.38 -3.89 -1.54 c -5 -0.77 -7.23 -4.46 -5.89 -9.16 c 1 -3.4 2.58 -5.13 6.19 -7 c 2.43 -1.27 3.76 -1.36 4.31 -0.81 c 0.55 0.55 0.35 0.98 -0.98 2.07 c -3.66 2.5 -6.25 2.37 -6.82 6.94 c -0.12 3.39 0.3 5.16 3.98 5.16 c 2.74 0 3.04 -0.13 3.36 -1.41 c 0.48 -1.91 1.1 -1.78 3.85 0.79 l 2.36 2.2 l -2.52 2.3 c -1.38 1.27 -2.66 2.3 -2.84 2.3 c -0.18 0 -0.68 -0.82 -1.13 -1.83"/><path d="m 22.99 21.82 c -0.23 -0.36 0.73 -2.25 2.14 -4.2 c 2.63 -3.65 2.63 -4.39 -0.01 -4.73 c -0.85 -0.11 -2.22 0.88 -2.32 -0.59 c -0.13 -1.94 1.7 -1.41 4.54 -1.55 c 3.33 -0.16 3.78 -0.04 4.13 1.05 c 0.28 0.87 -0.23 2.07 -1.79 4.18 c -1.2 1.63 -2.05 3.18 -1.88 3.45 c 0.17 0.27 1.15 0.65 2.19 0.85 c 1.13 0.22 1.66 0.64 1.63 1.11 c -0.13 1.85 -8.1 1.36 -8.64 0.43"/><path d="m 35.64 36.73 c -2.72 -3.34 -3.13 -3.55 -4.66 -1.27 c -1.54 2.3 -3.33 2.09 -3.33 1.18 c 0 -0.7 -0.64 -1.84 3.21 -9.34 c 0.46 -0.91 1.17 -1.67 1.58 -1.67 c 1.01 0 2.98 1.56 3.45 3.39 c 0.21 0.82 0.8 2.68 1.3 3.91 c 0.65 1.6 0.94 3.34 0.18 3.98 c -0.97 0.55 -1.26 0.41 -1.74 -0.18 m -1.25 -5 c 0 -0.81 -1.49 -2.88 -1.49 -2.88 c -1.34 1.93 -1.31 1.74 -1.48 2.89 c -0.14 0.93 2.96 0.58 2.97 -0.01"/></g></svg>