<svg xmlns="http://www.w3.org/2000/svg" viewBox="0 0 48 48"><path d="m 45.4 32.97 c 17.83 -57.86 -77.92 -28.93 -33.2 10.72 c 8.97 7.95 28.35 4.89 33.2 -10.72" style="fill:#ff8c00"/><path d="m 20.56 12.23 h 17.1 v 24.89 h -17.1" style="fill:#fff"/><path d="m 27.96 34.39 c 0.74 -0.29 0.87 -0.73 0.92 -3.3 l -0.05 -3.63 c -1.54 0 -3.44 0.43 -4.09 -0.42 c -0.67 -1.12 -0.22 -1.75 0.96 -2.13 c 1.29 -0.13 1.92 -0.02 3.3 -0.02 l -0.11 -2.93 c -0.01 -3.57 -0.11 -3.66 -3.7 -3.66 h -2.29 v -1.32 c -2.83 -11.56 -14.27 15.27 -4.5 17.55 c 1.55 0.09 2.46 0.13 9.55 -0.14" style="fill:#ff8c00"/><path d="m 26.2 33.2 c 0.67 -0.25 0.78 -0.64 0.83 -2.89 l 0.05 -2.09 h -1.26 c -1.5 0 -2.04 -0.21 -2.5 -0.95 c -0.61 -0.98 -0.25 -2.24 0.77 -2.78 c 0.41 -0.21 0.73 -0.26 1.74 -0.26 h 1.23 v -1.9 c -0.01 -3.12 -0.1 -3.21 -3.33 -3.21 h -2.05 v -1.16 c 0 -0.95 -0.05 -1.25 -0.3 -1.7 c -0.73 -1.32 -2.57 -1.32 -3.3 0 c -0.25 0.45 -0.3 0.75 -0.3 1.7 v 1.16 h -2.12 c -3.2 0 -3.27 0.07 -3.27 3.33 v 1.9 h -1.25 c -1 0 -1.33 0.05 -1.69 0.25 c -1.3 0.73 -1.3 2.51 0 3.24 c 0.36 0.2 0.68 0.25 1.68 0.25 h 1.23 l 0.05 2.16 c 0.05 2.35 0.15 2.71 0.87 2.96 c 0.19 0.07 1.25 0.12 2.35 0.12 h 2 v -1.16 c 0 -0.97 0.05 -1.25 0.3 -1.7 c 0.77 -1.34 2.8 -1.34 3.57 0 c 0.26 0.45 0.31 0.73 0.31 1.7 v 1.16 h 2.05 c 1.13 0 2.19 -0.06 2.35 -0.12" style="fill:#fff"/></svg>