<svg xmlns="http://www.w3.org/2000/svg" viewBox="0 0 48 48"><path d="m 22.63 47.74 c 4.96 -0.39 10.83 -2.75 14.96 -6 c 5 -4 8.83 -10.12 9.97 -16.2 c 1.4 -7.98 -2.96 -16.56 -8.1 -20.63 c -2.56 -1.98 -6 -3.56 -9.24 -4.25 c -8.44 -1.8 -17.41 1.61 -23.72 8.99 c -3.78 4.43 -5.8 8.89 -6.43 14.18 c -0.75 6.33 1.54 13.1 5.97 17.7 c 5.07 4.31 10.35 6.65 16.53 6.21" style="fill:#ff8c00"/><path d="m 12.63 27.73 v -7.99 c 7.46 -0.05 13.52 -1.97 21.81 -7.1 c 0.07 -0.02 0.08 1.6 0.08 7.97 v 8 c -7.45 5.58 -13.9 6.73 -21.75 7.08 l -0.14 0.04" style="fill:#fff"/></svg>