<svg xmlns="http://www.w3.org/2000/svg" viewBox="0 0 48 48"><path d="m 45.91 16.28 c 9.29 23.89 -16.76 36.1 -32.95 30.1 c -11.31 -4.25 -16.94 -21.2 -8.91 -34.88 c 10.13 -17.27 34.71 -13.59 41.87 4.82" style="fill:#ff8c00"/><path d="m 29.1 17.68 v 2.45 h -12.25 v -2.45" style="fill:#dc133c"/><path d="m 36.51 38.59 c -0.39 -0.14 -2.41 -1.56 -2.75 -1.92 c -0.8 -0.85 -1.88 -1.62 -1.88 -2.04 c 0 -0.37 0.8 -0.44 1.92 -1.55 c 1.36 -1.34 2.71 -2.38 3 -2.32 c 0.29 0.06 0.63 0.79 0.63 1.38 c 0 1.03 0.7 1.63 1.22 1.06 c 0.19 -0.21 0.2 -0.41 0.07 -2.95 c -0.14 -3.41 -0.13 -6.5 -0.13 -9.9 c -1.3 -0.35 -2.61 -0.21 -3.64 -0.2 l -3 0.04 c 0 -0.82 0 -1.64 0 -2.46 c 1.82 0.03 3.71 0.08 5.45 0.13 c 2.08 0.07 2.14 0.08 2.65 0.4 c 0.38 0.24 0.56 0.45 0.66 0.77 c 0.11 0.33 0.16 2.42 0.19 7.91 c 0.04 7 0.03 7.5 -0.16 7.87 c -0.32 0.61 -0.68 0.81 -1.66 0.9 c -1.2 0.11 -1.41 0.32 -1.41 1.43 c 0.07 0.7 -0.41 1.7 -1.16 1.45" style="fill:#fff"/><path d="m 24.42 34.86 v 2.45 h -13.1 v -2.45" style="fill:#dc133c"/><g style="fill:#fff"><path d="m 29.2 21.97 v 2.45 h -17.62 v -2.45"/><path d="m 29.1 26.2 v 2.45 h -17.62 v -2.45"/><path d="m 29.2 13.37 v 2.45 h -17.62 v -2.45"/><path d="m 29.1 30.44 v 2.45 h -17.62 v -2.45"/></g></svg>