<svg xmlns="http://www.w3.org/2000/svg" viewBox="0 0 48 48"><path d="m 0.52 24.1 c -3.59 -31.67 47.84 -31.2 47.2 0.56 c 1.7 29.57 -50 32.2 -47.2 -0.56" style="fill:#ff8c00"/><path d="m 7 18.3 h 33.36 v 14.25 h -33.36" style="fill:#fff"/><g style="fill:#ff8c00"><path d="m 22.3 25.76 v -5.09 h 6.7 v 2.41 h -4.41 v 1.81 h 3.99 v 2.27 h -3.99 v 3.7 h -2.28"/><path d="m 12.65 26.2 c -0.6 -0.24 -1.05 -0.76 -1.33 -1.52 c -0.21 -0.59 -0.21 -1.69 0.01 -2.3 c 0.35 -0.96 0.97 -1.51 1.76 -1.57 c 0.25 -0.02 0.61 0.01 0.79 0.07 c 0.46 0.14 1.02 0.71 1.28 1.31 c 0.19 0.44 0.21 0.55 0.21 1.36 c 0 0.79 -0.02 0.92 -0.18 1.3 c -0.4 0.92 -0.99 1.38 -1.8 1.41 c -0.28 0.02 -0.61 -0.01 -0.72 -0.06 m 1.02 -1.61 c 0.33 -0.29 0.45 -1.3 0.21 -1.79 c -0.22 -0.45 -0.63 -0.61 -0.95 -0.37 c -0.39 0.29 -0.5 1.47 -0.19 1.93 c 0.27 0.38 0.66 0.48 0.94 0.23"/><path d="m 12.24 30.64 c 0.07 -0.11 1.52 -2.41 3.21 -5.09 l 3.08 -4.88 h 0.75 c 0.41 0 0.74 0.03 0.73 0.06 c -0.01 0.04 -1.45 2.33 -3.19 5.09 l -3.17 5 h -1.55"/><path d="m 18.26 30.63 c -1.52 -0.57 -1.98 -3.28 -0.8 -4.73 c 0.76 -0.94 2.23 -0.92 2.96 0.05 c 0.47 0.63 0.57 0.97 0.57 2 c 0 0.84 -0.02 0.96 -0.19 1.37 c -0.27 0.63 -0.8 1.18 -1.27 1.33 c -0.49 0.16 -0.8 0.15 -1.27 -0.03 m 1.12 -1.68 c 0.44 -0.61 0.33 -1.85 -0.19 -2.11 c -0.27 -0.13 -0.51 -0.1 -0.7 0.1 c -0.42 0.45 -0.42 1.57 0 2.02 c 0.25 0.27 0.68 0.26 0.88 -0.02"/></g></svg>