<svg xmlns="http://www.w3.org/2000/svg" viewBox="0 0 48 48"><path d="m 18.2 1.04 c -24.35 3.69 -23.84 40.4 0.12 45.97 c 19.45 5.71 34.49 -14.98 27.66 -30.45 c -3.33 -10.36 -15.8 -18.74 -27.79 -15.52" style="fill:#ff8c00"/><g style="fill:#fff"><path d="m 20.51 37.63 c -1.71 -0.31 -1.82 -0.05 -1.99 -3.35 c -0.12 -2.42 -0.06 -2.71 0.25 -3.11 c 0.63 -0.77 1.57 -0.59 5.8 -0.51 c 3 0.05 4.59 0.13 5.8 -0.41 c 0.9 -0.41 0.25 -2.52 -0.08 -2.82 c -2.69 -0.99 -9.49 0 -11.1 -0.46 c -0.91 -1.27 -0.65 -2.2 -0.64 -3.07 c 0.01 -3.07 0.16 -3.87 1.98 -4 c 4.57 -0.04 8.61 -0.15 13.16 0.16 c 1.46 0.35 2.17 0.54 2.72 1.71 c 0.51 1.1 0.61 1.96 0.68 5.67 c 0.06 3.27 -0.05 5.72 -0.29 6.84 c -0.17 0.79 -0.62 1.53 -1.38 2.27 c -1.02 1.04 -11.59 1.3 -14.95 1.11 m 1.82 -1.48 c 0.31 -0.23 0.34 -1.74 0.33 -2.84 c 0 -1.39 -0.26 -1.36 -1.15 -1.46 c -0.5 -0.06 -1.31 -0.09 -1.53 0.57 c -0.23 0.68 -0.23 3.23 0 3.66 c -0.16 0.65 2.5 1.13 2.35 0.08 m -0.25 -10.16 c 0.53 -0.51 0.89 -3.3 0.61 -4.32 c -0.2 -0.69 -1.66 -0.36 -2.36 -0.32 c -0.73 0.14 -0.57 4.3 -0.17 4.58 c 0.47 0.33 1.63 0.33 1.92 0.06"/><path d="m 14.55 13.4 c 0 0.93 -0.79 1.69 -1.77 1.69 c -0.98 0 -1.77 -0.76 -1.77 -1.69 c 0 -0.93 0.79 -1.68 1.77 -1.68 c 0.98 0 1.77 0.75 1.77 1.68"/><path d="m 14.28 19.61 c 0 0.93 -0.79 1.68 -1.77 1.68 c -0.98 0 -1.77 -0.75 -1.77 -1.68 c 0 -0.93 0.79 -1.69 1.77 -1.69 c 0.98 0 1.77 0.75 1.77 1.69"/><path d="m 14.28 26.2 c 0 0.93 -0.79 1.69 -1.77 1.69 c -0.98 0 -1.77 -0.75 -1.77 -1.69 c 0 -0.93 0.79 -1.68 1.77 -1.68 c 0.98 0 1.77 0.75 1.77 1.68"/><path d="m 14.1 32.48 c 0 0.93 -0.79 1.68 -1.77 1.68 c -0.98 0 -1.78 -0.75 -1.78 -1.68 c 0 -0.93 0.8 -1.69 1.78 -1.69 c 0.98 0 1.77 0.75 1.77 1.69"/><path d="m 20.94 13.4 c 0 0.93 -0.8 1.69 -1.78 1.69 c -0.98 0 -1.77 -0.76 -1.77 -1.69 c 0 -0.93 0.8 -1.68 1.77 -1.68 c 0.98 0 1.78 0.75 1.78 1.68"/><path d="m 27.41 13.4 c 0 0.93 -0.79 1.69 -1.77 1.69 c -0.98 0 -1.77 -0.76 -1.77 -1.69 c 0 -0.93 0.79 -1.68 1.77 -1.68 c 0.98 0 1.77 0.75 1.77 1.68"/><path d="m 34.2 13.49 c 0 0.93 -0.79 1.68 -1.77 1.68 c -0.98 0 -1.77 -0.75 -1.77 -1.68 c 0 -0.93 0.79 -1.69 1.77 -1.69 c 0.98 0 1.77 0.75 1.77 1.69"/></g></svg>