<svg xmlns="http://www.w3.org/2000/svg" xmlns:xlink="http://www.w3.org/1999/xlink" viewBox="0 0 48 48"><defs><g id="3" style="clip-path:url(#2)"><path d="m 23.3 36.2 c -1.99 -0.07 -3.14 -0.23 -3.14 -0.46 c 0 -0.2 0.52 -0.93 1.16 -1.63 c 2.91 -3.21 3.43 -6.9 1.78 -12.5 c -1.31 -3.63 -2.61 -4.58 -3.58 -6.26 c 0 -0.39 1.21 -0.45 8.12 -0.38 l 8.12 0.09 l 0.21 10.13 c 0.13 6.1 0.09 10.35 -0.09 10.69 c -0.31 0.59 -2.84 0.65 -12.57 0.32" style="fill:#fff"/></g><clipPath id="2"><path d="M 0,0 H48 V48 H0 z"/></clipPath><filter id="0" filterUnits="objectBoundingBox" x="0" y="0" width="48" height="48"><feColorMatrix type="matrix" in="SourceGraphic" values="0 0 0 0 1 0 0 0 0 1 0 0 0 0 1 0 0 0 1 0"/></filter><mask id="1"><g style="filter:url(#0)"><path d="M 0,0 H48 V48 H0 z" style="fill-opacity:0.5"/></g></mask></defs><path d="m 27.85 47.7 c -6.5 -0.18 -15 -3.68 -20.25 -8.36 c -4.15 -3.7 -6.24 -7.13 -7 -11.48 c -1.09 -6.1 1.21 -11.41 7.26 -16.75 c 7.09 -6 17.3 -12.19 24.93 -10.42 c 3 0.71 5.07 1.74 7.16 3.58 c 4.29 3.77 6.97 9.68 7.64 16.84 c 0.38 4.05 0.11 7.32 -0.93 11.28 c -1.78 6.73 -5.55 11.52 -10.97 13.96 c -1.71 0.77 -5.46 1.41 -7.83 1.35" style="fill:#fd8b01"/><use xlink:href="#3" style="mask:url(#1)"/><g style="fill:#fff"><path d="m 18 37.82 c -0.17 -0.26 -0.36 -0.71 -0.41 -1 c -0.12 -0.61 0.06 -0.91 2.19 -3.71 c 2 -2.63 2.27 -3.39 2.29 -6.65 l 0.02 -2.61 l -0.69 -1.39 c -0.38 -0.76 -1.25 -2.31 -1.93 -3.43 c -2 -3.3 -2.37 -4.55 -1.58 -5.52 l 0.36 -0.44 h 9.18 c 5 0 9.4 0.06 9.68 0.14 c 0.46 0.13 0.5 0.23 0.64 1.58 c 0.09 0.79 0.16 6.21 0.16 12.1 c 0 8.3 -0.05 10.7 -0.23 11 l -0.24 0.42 h -19.1 m 17.48 -2.2 c 0.2 -0.2 0.23 -2.3 0.19 -10.6 c -0.03 -5.7 -0.08 -10.38 -0.11 -10.42 c -0.04 -0.03 -3.67 -0.08 -8.1 -0.1 c -5.74 -0.03 -8.1 0.02 -8.22 0.17 c -0.16 0.16 0.13 0.7 1.09 2.14 c 2.22 3.28 3.18 6.25 3.18 9.85 c 0 2.72 -0.61 4.43 -2.41 6.68 c -1.24 1.55 -1.39 1.84 -1.13 2.11 c 0.32 0.32 3.06 0.44 9.45 0.42 c 4.51 -0.02 5.86 -0.07 6 -0.26"/><path d="m 11.71 30.8 c -0.25 -0.46 -0.48 -8.13 -0.26 -8.98 c 0.07 -0.29 0.37 -0.59 0.76 -0.78 l 0.64 -0.3 l 1.36 0.89 c 1.7 1.13 3.41 2.41 4.2 3.14 c 1.17 1.09 0.61 2.42 -1.76 4.17 c -3 2.24 -4.42 2.77 -4.93 1.86"/></g></svg>