<svg xmlns="http://www.w3.org/2000/svg" viewBox="0 0 48 48"><path d="m 11.29 5.13 c 24.54 -17.2 49.4 14.55 29.42 34.8 c -18.84 19.1 -48.1 1.39 -38.98 -22.35 c 1.91 -4.95 5 -9.3 9.55 -12.45" style="fill:#ff8c00"/><path d="m 16.73 38.4 c -2.95 -1.69 -5.36 -4.22 -6.91 -7.27 c -1.57 -4.07 -1.54 -9.83 0.33 -13.1 c 1.96 -3.35 4.5 -5.76 7.59 -7.2 c 3.1 -1.44 7.35 -1.68 7.82 -0.44 c 0.42 1.09 0.09 1.3 -2.47 1.63 c -12.62 1.62 -16.23 17.52 -5.38 23.74 c 3.91 2 9.1 2.14 12.44 0.19 c 3.24 -1.9 5.7 -5.11 6.39 -8.34 c 0.44 -2.05 0.78 -2.65 1.43 -2.52 c 1.3 0.25 1.39 3.99 0.15 6.4 c -1.19 2.3 -4.65 5.7 -7.41 7.26 c -4.23 1.74 -10.56 1.55 -13.98 -0.39" style="fill:#fff"/></svg>