<svg xmlns="http://www.w3.org/2000/svg" viewBox="0 0 48 48"><path d="m 11.29 5.13 c 24.54 -17.2 49.4 14.55 29.42 34.8 c -18.84 19.1 -48.1 1.39 -38.98 -22.35 c 1.91 -4.95 5 -9.3 9.55 -12.45" style="fill:#ff8c00"/><path d="m 16.43 38.65 c -3.08 -1.96 -5.79 -5.1 -7.22 -8.39 c -1.27 -2.93 -1.02 -9.55 0.47 -12.45 c 2.8 -5.42 8.85 -9.56 13.97 -9.56 c 2.33 0 3.06 0.57 9.76 7.57 c 6.57 6.88 7.24 7.81 7.27 10.13 c 0.03 3.15 -1.39 6.07 -4.6 9.45 c -3.69 3.89 -6.66 5.16 -12.1 5.16 c -3.89 0 -5.07 -0.29 -7.6 -1.9 m 14 -2.07 c 1.37 -0.71 3.16 -2 3.98 -2.87 c 1.61 -1.72 3.57 -5.93 3.57 -7.65 c 0 -1.57 -11.5 -14.39 -13.35 -14.88 c -2.17 -0.57 -6.36 0.79 -8.86 2.89 c -9.4 7.91 -3.92 23.64 8.27 23.75 c 2.57 0.02 4.75 -0.4 6.39 -1.24" style="fill:#fff"/></svg>