<svg xmlns="http://www.w3.org/2000/svg" viewBox="0 0 48 48"><path d="m 4.95 36.77 c -17.26 -24.45 14.61 -49.2 34.95 -29.3 c 19.2 18.77 1.39 47.93 -22.44 38.81 c -4.98 -1.9 -9.34 -5 -12.51 -9.51" style="fill:#ff8c00"/><g style="fill:#fff"><path d="m 32.66 9.47 c 0 0 1.56 0 1.56 2 v 10.1 l -3.11 0.01 v -2 h -1.25 l -2.65 -3.45 l -1.1 -1.43 l -3.76 4.87 h -6.81 v 14.1 h 8.31 l 2.25 2.95 l 2.27 -2.95 h 2.73 v -4 l 3.11 -0.01 v 6 c 0 0 0 2 -1.56 2 h -18.68 c -1.55 0 -1.55 -2 -1.55 -2 v -24.2 c 0 0 0 -2 1.55 -2 m 12.1 7.99 l 2.16 2.8 l -2.55 3.3 l 10.1 -0.04 v 4 l -10.1 0.04 l 2.55 3.3 l -2.16 2.8 l -6.23 -8.16 l 6.23 -8.1" style="fill-opacity:0.5"/><path d="m 33.55 37.1 c 0.49 -0.49 0.5 -0.56 0.5 -3.96 v -3.47 h -2.85 v 4.07 h -2.81 l -1.05 1.43 c -0.58 0.78 -1.13 1.42 -1.21 1.42 c -0.09 0 -0.64 -0.64 -1.24 -1.42 l -1.08 -1.43 h -8.26 v -14.23 h 6.69 l 1.87 -2.44 c 1.03 -1.34 1.93 -2.44 2 -2.44 c 0.07 0 0.98 1.1 2 2.44 c 1.65 2.13 1.96 2.44 2.49 2.44 c 0.57 0 0.6 0.04 0.6 0.91 v 0.91 h 2.85 v -10.8 l -1 -1 h -9.68 c -5.93 0 -9.83 0.08 -10.1 0.2 c -0.21 0.11 -0.47 0.49 -0.6 0.84 c -0.28 0.81 -0.32 25.1 -0.04 25.86 c 0.46 1.22 -0.04 1.16 10.62 1.16 h 9.76 l 0.5 -0.5"/><path d="m 27.2 32.1 l 0.95 -1.25 l -1.21 -1.56 c -0.66 -0.86 -1.21 -1.62 -1.21 -1.7 c 0 -0.08 2.24 -0.14 4.98 -0.14 h 4.98 v -3.86 h -4.98 c -2.74 0 -4.98 -0.07 -4.97 -0.15 c 0 -0.08 0.55 -0.84 1.21 -1.67 l 1.2 -1.52 l -0.54 -0.73 c -0.99 -1.33 -1.46 -1.89 -1.54 -1.8 c -0.04 0.05 -1.41 1.81 -3.05 3.93 l -2.97 3.85 l 0.55 0.73 c 2.46 3.26 5.4 7 5.52 7.08 c 0.07 0.03 0.57 -0.51 1.09 -1.2"/></g></svg>